<?xml version="1.0" encoding="UTF-8" standalone="no"?>
<!DOCTYPE svg PUBLIC "-//W3C//DTD SVG 1.1//EN"
 "http://www.w3.org/Graphics/SVG/1.1/DTD/svg11.dtd">
<!-- Generated by graphviz version 2.38.0 (20140413.2041)
 -->
<!-- Title: OgreGLESUtil.h Pages: 1 -->
<svg width="814pt" height="420pt"
 viewBox="0.00 0.00 813.50 420.00" xmlns="http://www.w3.org/2000/svg" xmlns:xlink="http://www.w3.org/1999/xlink">
<g id="graph0" class="graph" transform="scale(1 1) rotate(0) translate(4 416)">
<title>OgreGLESUtil.h</title>
<!-- Node1 -->
<g id="node1" class="node"><title>Node1</title>
<polygon fill="#bfbfbf" stroke="black" points="364,-392.5 364,-411.5 451,-411.5 451,-392.5 364,-392.5"/>
<text text-anchor="middle" x="407.5" y="-399.5" font-family="Helvetica,sans-Serif" font-size="10.00">OgreGLESUtil.h</text>
</g>
<!-- Node2 -->
<g id="node2" class="node"><title>Node2</title>
<g id="a_node2"><a xlink:href="_g_l_e_s_2include_2_e_g_l_2_ogre_e_g_l_support_8h.html" target="_top" xlink:title="OgreEGLSupport.h">
<polygon fill="none" stroke="black" points="358,-336.5 358,-355.5 457,-355.5 457,-336.5 358,-336.5"/>
<text text-anchor="middle" x="407.5" y="-343.5" font-family="Helvetica,sans-Serif" font-size="10.00">OgreEGLSupport.h</text>
</a>
</g>
</g>
<!-- Node1&#45;&gt;Node2 -->
<g id="edge1" class="edge"><title>Node1&#45;&gt;Node2</title>
<path fill="none" stroke="midnightblue" d="M407.5,-392.083C407.5,-385.006 407.5,-374.861 407.5,-365.986"/>
<polygon fill="midnightblue" stroke="midnightblue" points="411,-365.751 407.5,-355.751 404,-365.751 411,-365.751"/>
</g>
<!-- Node3 -->
<g id="node3" class="node"><title>Node3</title>
<g id="a_node3"><a xlink:href="_ogre_g_l_e_s_support_8h.html" target="_top" xlink:title="OgreGLESSupport.h">
<polygon fill="none" stroke="black" points="513.5,-168.5 513.5,-187.5 619.5,-187.5 619.5,-168.5 513.5,-168.5"/>
<text text-anchor="middle" x="566.5" y="-175.5" font-family="Helvetica,sans-Serif" font-size="10.00">OgreGLESSupport.h</text>
</a>
</g>
</g>
<!-- Node2&#45;&gt;Node3 -->
<g id="edge2" class="edge"><title>Node2&#45;&gt;Node3</title>
<path fill="none" stroke="midnightblue" d="M420.369,-336.468C432.793,-327.943 451.829,-314.109 466.5,-300 501.684,-266.164 536.588,-220.441 554.38,-196.03"/>
<polygon fill="midnightblue" stroke="midnightblue" points="557.314,-197.945 560.325,-187.787 551.637,-193.85 557.314,-197.945"/>
</g>
<!-- Node4 -->
<g id="node4" class="node"><title>Node4</title>
<g id="a_node4"><a xlink:href="_ogre_g_l_e_s_prerequisites_8h.html" target="_top" xlink:title="OgreGLESPrerequisites.h">
<polygon fill="none" stroke="black" points="222,-112.5 222,-131.5 351,-131.5 351,-112.5 222,-112.5"/>
<text text-anchor="middle" x="286.5" y="-119.5" font-family="Helvetica,sans-Serif" font-size="10.00">OgreGLESPrerequisites.h</text>
</a>
</g>
</g>
<!-- Node2&#45;&gt;Node4 -->
<g id="edge19" class="edge"><title>Node2&#45;&gt;Node4</title>
<path fill="none" stroke="midnightblue" d="M369.98,-336.482C326.158,-324.297 255.695,-297.222 224.5,-244 202.852,-207.066 242.999,-161.731 268.246,-138.437"/>
<polygon fill="midnightblue" stroke="midnightblue" points="270.684,-140.953 275.822,-131.688 266.027,-135.726 270.684,-140.953"/>
</g>
<!-- Node14 -->
<g id="node14" class="node"><title>Node14</title>
<g id="a_node14"><a xlink:href="_ogre_g_l_e_s_p_buffer_8h.html" target="_top" xlink:title="OgreGLESPBuffer.h">
<polygon fill="none" stroke="black" points="234,-224.5 234,-243.5 339,-243.5 339,-224.5 234,-224.5"/>
<text text-anchor="middle" x="286.5" y="-231.5" font-family="Helvetica,sans-Serif" font-size="10.00">OgreGLESPBuffer.h</text>
</a>
</g>
</g>
<!-- Node2&#45;&gt;Node14 -->
<g id="edge20" class="edge"><title>Node2&#45;&gt;Node14</title>
<path fill="none" stroke="midnightblue" d="M394.592,-336.299C382.089,-327.649 362.826,-313.724 347.5,-300 330.315,-284.611 312.461,-265.105 300.544,-251.495"/>
<polygon fill="midnightblue" stroke="midnightblue" points="303.139,-249.145 293.95,-243.871 297.845,-253.724 303.139,-249.145"/>
</g>
<!-- Node15 -->
<g id="node15" class="node"><title>Node15</title>
<g id="a_node15"><a xlink:href="_g_l_e_s_2include_2_e_g_l_2_ogre_e_g_l_window_8h.html" target="_top" xlink:title="OgreEGLWindow.h">
<polygon fill="none" stroke="black" points="357,-280.5 357,-299.5 458,-299.5 458,-280.5 357,-280.5"/>
<text text-anchor="middle" x="407.5" y="-287.5" font-family="Helvetica,sans-Serif" font-size="10.00">OgreEGLWindow.h</text>
</a>
</g>
</g>
<!-- Node2&#45;&gt;Node15 -->
<g id="edge22" class="edge"><title>Node2&#45;&gt;Node15</title>
<path fill="none" stroke="midnightblue" d="M402.334,-336.083C400.824,-328.927 400.394,-318.635 401.042,-309.691"/>
<polygon fill="midnightblue" stroke="midnightblue" points="404.515,-310.126 402.369,-299.751 397.577,-309.2 404.515,-310.126"/>
</g>
<!-- Node3&#45;&gt;Node4 -->
<g id="edge3" class="edge"><title>Node3&#45;&gt;Node4</title>
<path fill="none" stroke="midnightblue" d="M522.133,-168.444C472.878,-158.944 393.372,-143.611 340.529,-133.42"/>
<polygon fill="midnightblue" stroke="midnightblue" points="341.141,-129.974 330.659,-131.516 339.816,-136.847 341.141,-129.974"/>
</g>
<!-- Node10 -->
<g id="node10" class="node"><title>Node10</title>
<g id="a_node10"><a xlink:href="_ogre_render_window_8h.html" target="_top" xlink:title="OgreRenderWindow.h">
<polygon fill="none" stroke="black" points="502,-112.5 502,-131.5 615,-131.5 615,-112.5 502,-112.5"/>
<text text-anchor="middle" x="558.5" y="-119.5" font-family="Helvetica,sans-Serif" font-size="10.00">OgreRenderWindow.h</text>
</a>
</g>
</g>
<!-- Node3&#45;&gt;Node10 -->
<g id="edge11" class="edge"><title>Node3&#45;&gt;Node10</title>
<path fill="none" stroke="midnightblue" d="M565.179,-168.083C564.119,-160.927 562.594,-150.635 561.269,-141.691"/>
<polygon fill="midnightblue" stroke="midnightblue" points="564.724,-141.13 559.796,-131.751 557.8,-142.156 564.724,-141.13"/>
</g>
<!-- Node12 -->
<g id="node12" class="node"><title>Node12</title>
<g id="a_node12"><a xlink:href="_ogre_config_option_map_8h.html" target="_top" xlink:title="OgreConfigOptionMap.h">
<polygon fill="none" stroke="black" points="633.5,-112.5 633.5,-131.5 755.5,-131.5 755.5,-112.5 633.5,-112.5"/>
<text text-anchor="middle" x="694.5" y="-119.5" font-family="Helvetica,sans-Serif" font-size="10.00">OgreConfigOptionMap.h</text>
</a>
</g>
</g>
<!-- Node3&#45;&gt;Node12 -->
<g id="edge15" class="edge"><title>Node3&#45;&gt;Node12</title>
<path fill="none" stroke="midnightblue" d="M586.782,-168.444C607.847,-159.557 641.017,-145.563 664.986,-135.451"/>
<polygon fill="midnightblue" stroke="midnightblue" points="666.46,-138.628 674.313,-131.516 663.739,-132.179 666.46,-138.628"/>
</g>
<!-- Node5 -->
<g id="node5" class="node"><title>Node5</title>
<g id="a_node5"><a xlink:href="_ogre_prerequisites_8h.html" target="_top" xlink:title="OgrePrerequisites.h">
<polygon fill="none" stroke="red" points="507,-0.5 507,-19.5 610,-19.5 610,-0.5 507,-0.5"/>
<text text-anchor="middle" x="558.5" y="-7.5" font-family="Helvetica,sans-Serif" font-size="10.00">OgrePrerequisites.h</text>
</a>
</g>
</g>
<!-- Node4&#45;&gt;Node5 -->
<g id="edge4" class="edge"><title>Node4&#45;&gt;Node5</title>
<path fill="none" stroke="midnightblue" d="M270.461,-112.479C248.896,-99.9559 215.151,-75.9088 232.5,-56 266.09,-17.4548 412.052,-10.8104 496.845,-10.3016"/>
<polygon fill="midnightblue" stroke="midnightblue" points="496.882,-13.8016 506.87,-10.2682 496.859,-6.8016 496.882,-13.8016"/>
</g>
<!-- Node6 -->
<g id="node6" class="node"><title>Node6</title>
<g id="a_node6"><a xlink:href="_ogre_log_manager_8h.html" target="_top" xlink:title="OgreLogManager.h">
<polygon fill="none" stroke="red" points="0,-56.5 0,-75.5 99,-75.5 99,-56.5 0,-56.5"/>
<text text-anchor="middle" x="49.5" y="-63.5" font-family="Helvetica,sans-Serif" font-size="10.00">OgreLogManager.h</text>
</a>
</g>
</g>
<!-- Node4&#45;&gt;Node6 -->
<g id="edge5" class="edge"><title>Node4&#45;&gt;Node6</title>
<path fill="none" stroke="midnightblue" d="M248.947,-112.444C207.689,-103.043 141.356,-87.9291 96.6336,-77.7393"/>
<polygon fill="midnightblue" stroke="midnightblue" points="97.4053,-74.3255 86.8777,-75.5164 95.8502,-81.1506 97.4053,-74.3255"/>
</g>
<!-- Node7 -->
<g id="node7" class="node"><title>Node7</title>
<g id="a_node7"><a xlink:href="_ogre_math_8h.html" target="_top" xlink:title="OgreMath.h">
<polygon fill="none" stroke="red" points="117.5,-56.5 117.5,-75.5 185.5,-75.5 185.5,-56.5 117.5,-56.5"/>
<text text-anchor="middle" x="151.5" y="-63.5" font-family="Helvetica,sans-Serif" font-size="10.00">OgreMath.h</text>
</a>
</g>
</g>
<!-- Node4&#45;&gt;Node7 -->
<g id="edge7" class="edge"><title>Node4&#45;&gt;Node7</title>
<path fill="none" stroke="midnightblue" d="M265.109,-112.444C242.793,-103.517 207.597,-89.4387 182.292,-79.3168"/>
<polygon fill="midnightblue" stroke="midnightblue" points="183.376,-75.9807 172.791,-75.5164 180.776,-82.4801 183.376,-75.9807"/>
</g>
<!-- Node8 -->
<g id="node8" class="node"><title>Node8</title>
<polygon fill="none" stroke="#bfbfbf" points="242,-56.5 242,-75.5 349,-75.5 349,-56.5 242,-56.5"/>
<text text-anchor="middle" x="295.5" y="-63.5" font-family="Helvetica,sans-Serif" font-size="10.00">OpenGLES/ES1/gl.h</text>
</g>
<!-- Node4&#45;&gt;Node8 -->
<g id="edge9" class="edge"><title>Node4&#45;&gt;Node8</title>
<path fill="none" stroke="midnightblue" d="M287.986,-112.083C289.179,-104.927 290.894,-94.6353 292.385,-85.6911"/>
<polygon fill="midnightblue" stroke="midnightblue" points="295.85,-86.1904 294.041,-75.7511 288.945,-85.0396 295.85,-86.1904"/>
</g>
<!-- Node9 -->
<g id="node9" class="node"><title>Node9</title>
<polygon fill="none" stroke="#bfbfbf" points="367.5,-56.5 367.5,-75.5 487.5,-75.5 487.5,-56.5 367.5,-56.5"/>
<text text-anchor="middle" x="427.5" y="-63.5" font-family="Helvetica,sans-Serif" font-size="10.00">OpenGLES/ES1/glext.h</text>
</g>
<!-- Node4&#45;&gt;Node9 -->
<g id="edge10" class="edge"><title>Node4&#45;&gt;Node9</title>
<path fill="none" stroke="midnightblue" d="M308.842,-112.444C332.253,-103.478 369.236,-89.314 395.69,-79.1827"/>
<polygon fill="midnightblue" stroke="midnightblue" points="397.176,-82.3615 405.263,-75.5164 394.672,-75.8245 397.176,-82.3615"/>
</g>
<!-- Node6&#45;&gt;Node5 -->
<g id="edge6" class="edge"><title>Node6&#45;&gt;Node5</title>
<path fill="none" stroke="midnightblue" d="M99.0485,-57.2517C102.245,-56.8107 105.416,-56.3892 108.5,-56 246.793,-38.5494 409.694,-23.6607 496.563,-16.173"/>
<polygon fill="midnightblue" stroke="midnightblue" points="497.109,-19.6392 506.773,-15.2969 496.511,-12.6648 497.109,-19.6392"/>
</g>
<!-- Node7&#45;&gt;Node5 -->
<g id="edge8" class="edge"><title>Node7&#45;&gt;Node5</title>
<path fill="none" stroke="midnightblue" d="M185.545,-58.3528C190.226,-57.5161 194.976,-56.7069 199.5,-56 303.459,-39.7536 425.08,-25.5012 496.736,-17.5895"/>
<polygon fill="midnightblue" stroke="midnightblue" points="497.38,-21.0399 506.938,-16.4687 496.616,-14.0817 497.38,-21.0399"/>
</g>
<!-- Node10&#45;&gt;Node5 -->
<g id="edge12" class="edge"><title>Node10&#45;&gt;Node5</title>
<path fill="none" stroke="midnightblue" d="M578.723,-112.495C593.271,-105.168 611.801,-93.0628 620.5,-76 631.113,-55.1835 608.066,-36.4685 587.123,-24.5256"/>
<polygon fill="midnightblue" stroke="midnightblue" points="588.548,-21.3184 578.08,-19.6836 585.244,-27.4895 588.548,-21.3184"/>
</g>
<!-- Node11 -->
<g id="node11" class="node"><title>Node11</title>
<g id="a_node11"><a xlink:href="_ogre_render_target_8h.html" target="_top" xlink:title="OgreRenderTarget.h">
<polygon fill="none" stroke="red" points="506,-56.5 506,-75.5 611,-75.5 611,-56.5 506,-56.5"/>
<text text-anchor="middle" x="558.5" y="-63.5" font-family="Helvetica,sans-Serif" font-size="10.00">OgreRenderTarget.h</text>
</a>
</g>
</g>
<!-- Node10&#45;&gt;Node11 -->
<g id="edge13" class="edge"><title>Node10&#45;&gt;Node11</title>
<path fill="none" stroke="midnightblue" d="M558.5,-112.083C558.5,-105.006 558.5,-94.8611 558.5,-85.9865"/>
<polygon fill="midnightblue" stroke="midnightblue" points="562,-85.751 558.5,-75.7511 555,-85.7511 562,-85.751"/>
</g>
<!-- Node11&#45;&gt;Node5 -->
<g id="edge14" class="edge"><title>Node11&#45;&gt;Node5</title>
<path fill="none" stroke="midnightblue" d="M558.5,-56.083C558.5,-49.0059 558.5,-38.8611 558.5,-29.9865"/>
<polygon fill="midnightblue" stroke="midnightblue" points="562,-29.751 558.5,-19.7511 555,-29.7511 562,-29.751"/>
</g>
<!-- Node12&#45;&gt;Node5 -->
<g id="edge16" class="edge"><title>Node12&#45;&gt;Node5</title>
<path fill="none" stroke="midnightblue" d="M687.961,-112.225C677.776,-98.9525 657.045,-73.4693 635.5,-56 620.162,-43.5635 600.997,-32.3502 585.624,-24.2277"/>
<polygon fill="midnightblue" stroke="midnightblue" points="587.103,-21.0527 576.61,-19.5865 583.898,-27.2762 587.103,-21.0527"/>
</g>
<!-- Node13 -->
<g id="node13" class="node"><title>Node13</title>
<g id="a_node13"><a xlink:href="_ogre_string_vector_8h.html" target="_top" xlink:title="OgreStringVector.h">
<polygon fill="none" stroke="red" points="705.5,-56.5 705.5,-75.5 805.5,-75.5 805.5,-56.5 705.5,-56.5"/>
<text text-anchor="middle" x="755.5" y="-63.5" font-family="Helvetica,sans-Serif" font-size="10.00">OgreStringVector.h</text>
</a>
</g>
</g>
<!-- Node12&#45;&gt;Node13 -->
<g id="edge17" class="edge"><title>Node12&#45;&gt;Node13</title>
<path fill="none" stroke="midnightblue" d="M704.301,-112.324C713.318,-104.341 726.906,-92.3128 737.818,-82.6529"/>
<polygon fill="midnightblue" stroke="midnightblue" points="740.353,-85.083 745.521,-75.8339 735.713,-79.8416 740.353,-85.083"/>
</g>
<!-- Node13&#45;&gt;Node5 -->
<g id="edge18" class="edge"><title>Node13&#45;&gt;Node5</title>
<path fill="none" stroke="midnightblue" d="M724.285,-56.4435C690.567,-47.2011 636.7,-32.4356 599.568,-22.2572"/>
<polygon fill="midnightblue" stroke="midnightblue" points="600.139,-18.7846 589.569,-19.5164 598.288,-25.5356 600.139,-18.7846"/>
</g>
<!-- Node14&#45;&gt;Node4 -->
<g id="edge21" class="edge"><title>Node14&#45;&gt;Node4</title>
<path fill="none" stroke="midnightblue" d="M286.5,-224.368C286.5,-206.617 286.5,-165.666 286.5,-141.597"/>
<polygon fill="midnightblue" stroke="midnightblue" points="290,-141.591 286.5,-131.591 283,-141.591 290,-141.591"/>
</g>
<!-- Node15&#45;&gt;Node2 -->
<g id="edge24" class="edge"><title>Node15&#45;&gt;Node2</title>
<path fill="none" stroke="midnightblue" d="M412.631,-299.751C414.157,-306.858 414.604,-317.136 413.972,-326.101"/>
<polygon fill="midnightblue" stroke="midnightblue" points="410.493,-325.713 412.666,-336.083 417.434,-326.622 410.493,-325.713"/>
</g>
<!-- Node15&#45;&gt;Node10 -->
<g id="edge23" class="edge"><title>Node15&#45;&gt;Node10</title>
<path fill="none" stroke="midnightblue" d="M422.364,-280.382C435.312,-272.292 453.932,-259.183 466.5,-244 490.58,-214.908 481.053,-197.604 504.5,-168 513.616,-156.49 526.09,-145.86 536.753,-137.824"/>
<polygon fill="midnightblue" stroke="midnightblue" points="539.128,-140.425 545.171,-131.722 535.02,-134.758 539.128,-140.425"/>
</g>
<!-- Node16 -->
<g id="node16" class="node"><title>Node16</title>
<g id="a_node16"><a xlink:href="_g_l_e_s_2include_2_e_g_l_2_ogre_e_g_l_context_8h.html" target="_top" xlink:title="OgreEGLContext.h">
<polygon fill="none" stroke="black" points="357.5,-224.5 357.5,-243.5 457.5,-243.5 457.5,-224.5 357.5,-224.5"/>
<text text-anchor="middle" x="407.5" y="-231.5" font-family="Helvetica,sans-Serif" font-size="10.00">OgreEGLContext.h</text>
</a>
</g>
</g>
<!-- Node15&#45;&gt;Node16 -->
<g id="edge25" class="edge"><title>Node15&#45;&gt;Node16</title>
<path fill="none" stroke="midnightblue" d="M407.5,-280.083C407.5,-273.006 407.5,-262.861 407.5,-253.986"/>
<polygon fill="midnightblue" stroke="midnightblue" points="411,-253.751 407.5,-243.751 404,-253.751 411,-253.751"/>
</g>
<!-- Node17 -->
<g id="node17" class="node"><title>Node17</title>
<g id="a_node17"><a xlink:href="_ogre_g_l_e_s_context_8h.html" target="_top" xlink:title="OgreGLESContext.h">
<polygon fill="none" stroke="black" points="333,-168.5 333,-187.5 440,-187.5 440,-168.5 333,-168.5"/>
<text text-anchor="middle" x="386.5" y="-175.5" font-family="Helvetica,sans-Serif" font-size="10.00">OgreGLESContext.h</text>
</a>
</g>
</g>
<!-- Node16&#45;&gt;Node17 -->
<g id="edge26" class="edge"><title>Node16&#45;&gt;Node17</title>
<path fill="none" stroke="midnightblue" d="M404.032,-224.083C401.188,-216.77 397.071,-206.181 393.54,-197.103"/>
<polygon fill="midnightblue" stroke="midnightblue" points="396.79,-195.803 389.903,-187.751 390.266,-198.34 396.79,-195.803"/>
</g>
<!-- Node17&#45;&gt;Node4 -->
<g id="edge27" class="edge"><title>Node17&#45;&gt;Node4</title>
<path fill="none" stroke="midnightblue" d="M370.433,-168.324C354.542,-159.743 329.993,-146.486 311.542,-136.522"/>
<polygon fill="midnightblue" stroke="midnightblue" points="312.989,-133.326 302.527,-131.655 309.663,-139.486 312.989,-133.326"/>
</g>
</g>
</svg>
