<?xml version="1.0" encoding="UTF-8" standalone="no"?>
<!DOCTYPE svg PUBLIC "-//W3C//DTD SVG 1.1//EN"
 "http://www.w3.org/Graphics/SVG/1.1/DTD/svg11.dtd">
<!-- Generated by graphviz version 2.38.0 (20140413.2041)
 -->
<!-- Title: OgreEGLSupport.h Pages: 1 -->
<svg width="1065pt" height="532pt"
 viewBox="0.00 0.00 1065.00 532.00" xmlns="http://www.w3.org/2000/svg" xmlns:xlink="http://www.w3.org/1999/xlink">
<g id="graph0" class="graph" transform="scale(1 1) rotate(0) translate(4 528)">
<title>OgreEGLSupport.h</title>
<!-- Node1 -->
<g id="node1" class="node"><title>Node1</title>
<polygon fill="#bfbfbf" stroke="black" points="613,-504.5 613,-523.5 712,-523.5 712,-504.5 613,-504.5"/>
<text text-anchor="middle" x="662.5" y="-511.5" font-family="Helvetica,sans-Serif" font-size="10.00">OgreEGLSupport.h</text>
</g>
<!-- Node2 -->
<g id="node2" class="node"><title>Node2</title>
<g id="a_node2"><a xlink:href="_ogre_g_l_e_s_support_8h.html" target="_top" xlink:title="OgreGLESSupport.h">
<polygon fill="none" stroke="black" points="446.5,-336.5 446.5,-355.5 552.5,-355.5 552.5,-336.5 446.5,-336.5"/>
<text text-anchor="middle" x="499.5" y="-343.5" font-family="Helvetica,sans-Serif" font-size="10.00">OgreGLESSupport.h</text>
</a>
</g>
</g>
<!-- Node1&#45;&gt;Node2 -->
<g id="edge1" class="edge"><title>Node1&#45;&gt;Node2</title>
<path fill="none" stroke="midnightblue" d="M649.444,-504.46C636.831,-495.93 617.489,-482.092 602.5,-468 566.498,-434.154 530.452,-388.435 512.048,-364.027"/>
<polygon fill="midnightblue" stroke="midnightblue" points="514.683,-361.705 505.896,-355.785 509.073,-365.892 514.683,-361.705"/>
</g>
<!-- Node3 -->
<g id="node3" class="node"><title>Node3</title>
<g id="a_node3"><a xlink:href="_ogre_g_l_e_s_prerequisites_8h.html" target="_top" xlink:title="OgreGLESPrerequisites.h">
<polygon fill="none" stroke="black" points="680,-280.5 680,-299.5 809,-299.5 809,-280.5 680,-280.5"/>
<text text-anchor="middle" x="744.5" y="-287.5" font-family="Helvetica,sans-Serif" font-size="10.00">OgreGLESPrerequisites.h</text>
</a>
</g>
</g>
<!-- Node1&#45;&gt;Node3 -->
<g id="edge47" class="edge"><title>Node1&#45;&gt;Node3</title>
<path fill="none" stroke="midnightblue" d="M680.325,-504.389C693.974,-496.798 712.021,-484.394 721.5,-468 751.042,-416.904 749.356,-343.86 746.558,-309.812"/>
<polygon fill="midnightblue" stroke="midnightblue" points="750.041,-309.472 745.609,-299.849 743.073,-310.135 750.041,-309.472"/>
</g>
<!-- Node24 -->
<g id="node24" class="node"><title>Node24</title>
<g id="a_node24"><a xlink:href="_ogre_g_l_e_s_p_buffer_8h.html" target="_top" xlink:title="OgreGLESPBuffer.h">
<polygon fill="none" stroke="black" points="773,-392.5 773,-411.5 878,-411.5 878,-392.5 773,-392.5"/>
<text text-anchor="middle" x="825.5" y="-399.5" font-family="Helvetica,sans-Serif" font-size="10.00">OgreGLESPBuffer.h</text>
</a>
</g>
</g>
<!-- Node1&#45;&gt;Node24 -->
<g id="edge48" class="edge"><title>Node1&#45;&gt;Node24</title>
<path fill="none" stroke="midnightblue" d="M686.159,-504.469C706.338,-496.611 735.628,-483.792 758.5,-468 779.013,-453.837 799.063,-433.228 811.801,-419.032"/>
<polygon fill="midnightblue" stroke="midnightblue" points="814.437,-421.336 818.405,-411.512 809.177,-416.717 814.437,-421.336"/>
</g>
<!-- Node25 -->
<g id="node25" class="node"><title>Node25</title>
<g id="a_node25"><a xlink:href="_g_l_e_s_2include_2_e_g_l_2_ogre_e_g_l_window_8h.html" target="_top" xlink:title="OgreEGLWindow.h">
<polygon fill="none" stroke="black" points="612,-448.5 612,-467.5 713,-467.5 713,-448.5 612,-448.5"/>
<text text-anchor="middle" x="662.5" y="-455.5" font-family="Helvetica,sans-Serif" font-size="10.00">OgreEGLWindow.h</text>
</a>
</g>
</g>
<!-- Node1&#45;&gt;Node25 -->
<g id="edge50" class="edge"><title>Node1&#45;&gt;Node25</title>
<path fill="none" stroke="midnightblue" d="M657.334,-504.083C655.824,-496.927 655.394,-486.635 656.042,-477.691"/>
<polygon fill="midnightblue" stroke="midnightblue" points="659.515,-478.126 657.369,-467.751 652.577,-477.2 659.515,-478.126"/>
</g>
<!-- Node2&#45;&gt;Node3 -->
<g id="edge2" class="edge"><title>Node2&#45;&gt;Node3</title>
<path fill="none" stroke="midnightblue" d="M538.321,-336.444C581.061,-327.023 649.832,-311.866 696.066,-301.675"/>
<polygon fill="midnightblue" stroke="midnightblue" points="696.848,-305.087 705.861,-299.516 695.342,-298.251 696.848,-305.087"/>
</g>
<!-- Node17 -->
<g id="node17" class="node"><title>Node17</title>
<g id="a_node17"><a xlink:href="_ogre_render_window_8h.html" target="_top" xlink:title="OgreRenderWindow.h">
<polygon fill="none" stroke="black" points="483,-280.5 483,-299.5 596,-299.5 596,-280.5 483,-280.5"/>
<text text-anchor="middle" x="539.5" y="-287.5" font-family="Helvetica,sans-Serif" font-size="10.00">OgreRenderWindow.h</text>
</a>
</g>
</g>
<!-- Node2&#45;&gt;Node17 -->
<g id="edge27" class="edge"><title>Node2&#45;&gt;Node17</title>
<path fill="none" stroke="midnightblue" d="M506.105,-336.083C511.755,-328.455 520.045,-317.264 526.951,-307.941"/>
<polygon fill="midnightblue" stroke="midnightblue" points="529.878,-309.87 533.018,-299.751 524.253,-305.703 529.878,-309.87"/>
</g>
<!-- Node20 -->
<g id="node20" class="node"><title>Node20</title>
<g id="a_node20"><a xlink:href="_ogre_config_option_map_8h.html" target="_top" xlink:title="OgreConfigOptionMap.h">
<polygon fill="none" stroke="black" points="183.5,-280.5 183.5,-299.5 305.5,-299.5 305.5,-280.5 183.5,-280.5"/>
<text text-anchor="middle" x="244.5" y="-287.5" font-family="Helvetica,sans-Serif" font-size="10.00">OgreConfigOptionMap.h</text>
</a>
</g>
</g>
<!-- Node2&#45;&gt;Node20 -->
<g id="edge37" class="edge"><title>Node2&#45;&gt;Node20</title>
<path fill="none" stroke="midnightblue" d="M459.094,-336.444C414.517,-327.004 342.732,-311.802 294.608,-301.611"/>
<polygon fill="midnightblue" stroke="midnightblue" points="295.225,-298.164 284.716,-299.516 293.774,-305.012 295.225,-298.164"/>
</g>
<!-- Node4 -->
<g id="node4" class="node"><title>Node4</title>
<g id="a_node4"><a xlink:href="_ogre_prerequisites_8h.html" target="_top" xlink:title="OgrePrerequisites.h">
<polygon fill="none" stroke="black" points="307,-112.5 307,-131.5 410,-131.5 410,-112.5 307,-112.5"/>
<text text-anchor="middle" x="358.5" y="-119.5" font-family="Helvetica,sans-Serif" font-size="10.00">OgrePrerequisites.h</text>
</a>
</g>
</g>
<!-- Node3&#45;&gt;Node4 -->
<g id="edge3" class="edge"><title>Node3&#45;&gt;Node4</title>
<path fill="none" stroke="midnightblue" d="M679.951,-281.673C580.934,-268.927 399.031,-239.037 361.5,-188 351.783,-174.787 352.123,-155.654 354.238,-141.566"/>
<polygon fill="midnightblue" stroke="midnightblue" points="357.711,-142.039 356.156,-131.559 350.836,-140.721 357.711,-142.039"/>
</g>
<!-- Node11 -->
<g id="node11" class="node"><title>Node11</title>
<g id="a_node11"><a xlink:href="_ogre_log_manager_8h.html" target="_top" xlink:title="OgreLogManager.h">
<polygon fill="none" stroke="black" points="656,-224.5 656,-243.5 755,-243.5 755,-224.5 656,-224.5"/>
<text text-anchor="middle" x="705.5" y="-231.5" font-family="Helvetica,sans-Serif" font-size="10.00">OgreLogManager.h</text>
</a>
</g>
</g>
<!-- Node3&#45;&gt;Node11 -->
<g id="edge11" class="edge"><title>Node3&#45;&gt;Node11</title>
<path fill="none" stroke="midnightblue" d="M738.06,-280.083C732.551,-272.455 724.469,-261.264 717.735,-251.941"/>
<polygon fill="midnightblue" stroke="midnightblue" points="720.513,-249.809 711.82,-243.751 714.838,-253.907 720.513,-249.809"/>
</g>
<!-- Node14 -->
<g id="node14" class="node"><title>Node14</title>
<g id="a_node14"><a xlink:href="_ogre_math_8h.html" target="_top" xlink:title="OgreMath.h">
<polygon fill="none" stroke="black" points="838.5,-168.5 838.5,-187.5 906.5,-187.5 906.5,-168.5 838.5,-168.5"/>
<text text-anchor="middle" x="872.5" y="-175.5" font-family="Helvetica,sans-Serif" font-size="10.00">OgreMath.h</text>
</a>
</g>
</g>
<!-- Node3&#45;&gt;Node14 -->
<g id="edge21" class="edge"><title>Node3&#45;&gt;Node14</title>
<path fill="none" stroke="midnightblue" d="M750.99,-280.327C761.084,-267.187 781.568,-241.875 802.5,-224 816.425,-212.108 833.721,-200.961 847.636,-192.736"/>
<polygon fill="midnightblue" stroke="midnightblue" points="849.735,-195.565 856.647,-187.535 846.236,-189.503 849.735,-195.565"/>
</g>
<!-- Node15 -->
<g id="node15" class="node"><title>Node15</title>
<polygon fill="none" stroke="#bfbfbf" points="950,-224.5 950,-243.5 1057,-243.5 1057,-224.5 950,-224.5"/>
<text text-anchor="middle" x="1003.5" y="-231.5" font-family="Helvetica,sans-Serif" font-size="10.00">OpenGLES/ES1/gl.h</text>
</g>
<!-- Node3&#45;&gt;Node15 -->
<g id="edge25" class="edge"><title>Node3&#45;&gt;Node15</title>
<path fill="none" stroke="midnightblue" d="M785.539,-280.444C830.816,-271.004 903.727,-255.802 952.606,-245.611"/>
<polygon fill="midnightblue" stroke="midnightblue" points="953.578,-248.984 962.653,-243.516 952.149,-242.131 953.578,-248.984"/>
</g>
<!-- Node16 -->
<g id="node16" class="node"><title>Node16</title>
<polygon fill="none" stroke="#bfbfbf" points="811.5,-224.5 811.5,-243.5 931.5,-243.5 931.5,-224.5 811.5,-224.5"/>
<text text-anchor="middle" x="871.5" y="-231.5" font-family="Helvetica,sans-Serif" font-size="10.00">OpenGLES/ES1/glext.h</text>
</g>
<!-- Node3&#45;&gt;Node16 -->
<g id="edge26" class="edge"><title>Node3&#45;&gt;Node16</title>
<path fill="none" stroke="midnightblue" d="M764.624,-280.444C785.524,-271.557 818.435,-257.563 842.216,-247.451"/>
<polygon fill="midnightblue" stroke="midnightblue" points="843.638,-250.65 851.471,-243.516 840.898,-244.208 843.638,-250.65"/>
</g>
<!-- Node5 -->
<g id="node5" class="node"><title>Node5</title>
<g id="a_node5"><a xlink:href="_ogre_platform_8h.html" target="_top" xlink:title="OgrePlatform.h">
<polygon fill="none" stroke="red" points="317,-56.5 317,-75.5 400,-75.5 400,-56.5 317,-56.5"/>
<text text-anchor="middle" x="358.5" y="-63.5" font-family="Helvetica,sans-Serif" font-size="10.00">OgrePlatform.h</text>
</a>
</g>
</g>
<!-- Node4&#45;&gt;Node5 -->
<g id="edge4" class="edge"><title>Node4&#45;&gt;Node5</title>
<path fill="none" stroke="midnightblue" d="M358.5,-112.083C358.5,-105.006 358.5,-94.8611 358.5,-85.9865"/>
<polygon fill="midnightblue" stroke="midnightblue" points="362,-85.751 358.5,-75.7511 355,-85.7511 362,-85.751"/>
</g>
<!-- Node6 -->
<g id="node6" class="node"><title>Node6</title>
<polygon fill="none" stroke="#bfbfbf" points="143,-0.5 143,-19.5 184,-19.5 184,-0.5 143,-0.5"/>
<text text-anchor="middle" x="163.5" y="-7.5" font-family="Helvetica,sans-Serif" font-size="10.00">string</text>
</g>
<!-- Node4&#45;&gt;Node6 -->
<g id="edge5" class="edge"><title>Node4&#45;&gt;Node6</title>
<path fill="none" stroke="midnightblue" d="M306.91,-117.517C249.979,-112.473 163.698,-100.863 143.5,-76 132.263,-62.168 141.23,-42.0509 150.482,-27.8684"/>
<polygon fill="midnightblue" stroke="midnightblue" points="153.464,-29.7132 156.393,-19.5313 147.754,-25.6642 153.464,-29.7132"/>
</g>
<!-- Node7 -->
<g id="node7" class="node"><title>Node7</title>
<g id="a_node7"><a xlink:href="_ogre_std_headers_8h.html" target="_top" xlink:title="OgreStdHeaders.h">
<polygon fill="none" stroke="red" points="152.5,-56.5 152.5,-75.5 250.5,-75.5 250.5,-56.5 152.5,-56.5"/>
<text text-anchor="middle" x="201.5" y="-63.5" font-family="Helvetica,sans-Serif" font-size="10.00">OgreStdHeaders.h</text>
</a>
</g>
</g>
<!-- Node4&#45;&gt;Node7 -->
<g id="edge6" class="edge"><title>Node4&#45;&gt;Node7</title>
<path fill="none" stroke="midnightblue" d="M333.623,-112.444C307.211,-103.359 265.285,-88.9388 235.758,-78.7831"/>
<polygon fill="midnightblue" stroke="midnightblue" points="236.855,-75.4593 226.261,-75.5164 234.579,-82.0787 236.855,-75.4593"/>
</g>
<!-- Node8 -->
<g id="node8" class="node"><title>Node8</title>
<g id="a_node8"><a xlink:href="_ogre_memory_allocator_config_8h.html" target="_top" xlink:title="This file configures Ogre&#39;s memory allocators. ">
<polygon fill="none" stroke="red" points="467.5,-56.5 467.5,-75.5 615.5,-75.5 615.5,-56.5 467.5,-56.5"/>
<text text-anchor="middle" x="541.5" y="-63.5" font-family="Helvetica,sans-Serif" font-size="10.00">OgreMemoryAllocatorConfig.h</text>
</a>
</g>
</g>
<!-- Node4&#45;&gt;Node8 -->
<g id="edge8" class="edge"><title>Node4&#45;&gt;Node8</title>
<path fill="none" stroke="midnightblue" d="M387.497,-112.444C418.685,-103.241 468.43,-88.5617 502.908,-78.3879"/>
<polygon fill="midnightblue" stroke="midnightblue" points="504.038,-81.7036 512.639,-75.5164 502.057,-74.9898 504.038,-81.7036"/>
</g>
<!-- Node7&#45;&gt;Node6 -->
<g id="edge7" class="edge"><title>Node7&#45;&gt;Node6</title>
<path fill="none" stroke="midnightblue" d="M195.225,-56.083C189.858,-48.4554 181.982,-37.2645 175.421,-27.9408"/>
<polygon fill="midnightblue" stroke="midnightblue" points="178.275,-25.9149 169.658,-19.7511 172.551,-29.9434 178.275,-25.9149"/>
</g>
<!-- Node9 -->
<g id="node9" class="node"><title>Node9</title>
<g id="a_node9"><a xlink:href="_ogre_header_prefix_8h.html" target="_top" xlink:title="OgreHeaderPrefix.h">
<polygon fill="none" stroke="black" points="744,-0.5 744,-19.5 847,-19.5 847,-0.5 744,-0.5"/>
<text text-anchor="middle" x="795.5" y="-7.5" font-family="Helvetica,sans-Serif" font-size="10.00">OgreHeaderPrefix.h</text>
</a>
</g>
</g>
<!-- Node8&#45;&gt;Node9 -->
<g id="edge9" class="edge"><title>Node8&#45;&gt;Node9</title>
<path fill="none" stroke="midnightblue" d="M581.747,-56.4435C626.15,-47.0036 697.653,-31.802 745.588,-21.6111"/>
<polygon fill="midnightblue" stroke="midnightblue" points="746.388,-25.0195 755.441,-19.5164 744.932,-18.1725 746.388,-25.0195"/>
</g>
<!-- Node10 -->
<g id="node10" class="node"><title>Node10</title>
<g id="a_node10"><a xlink:href="_ogre_header_suffix_8h.html" target="_top" xlink:title="OgreHeaderSuffix.h">
<polygon fill="none" stroke="black" points="592,-0.5 592,-19.5 695,-19.5 695,-0.5 592,-0.5"/>
<text text-anchor="middle" x="643.5" y="-7.5" font-family="Helvetica,sans-Serif" font-size="10.00">OgreHeaderSuffix.h</text>
</a>
</g>
</g>
<!-- Node8&#45;&gt;Node10 -->
<g id="edge10" class="edge"><title>Node8&#45;&gt;Node10</title>
<path fill="none" stroke="midnightblue" d="M557.888,-56.324C574.171,-47.7034 599.367,-34.3643 618.216,-24.3855"/>
<polygon fill="midnightblue" stroke="midnightblue" points="619.952,-27.4267 627.153,-19.6545 616.677,-21.2402 619.952,-27.4267"/>
</g>
<!-- Node11&#45;&gt;Node4 -->
<g id="edge12" class="edge"><title>Node11&#45;&gt;Node4</title>
<path fill="none" stroke="midnightblue" d="M655.944,-224.475C617.886,-217.105 564.415,-204.953 519.5,-188 501.644,-181.26 498.945,-175.74 481.5,-168 453.003,-155.356 419.748,-143.347 395.007,-134.921"/>
<polygon fill="midnightblue" stroke="midnightblue" points="395.894,-131.526 385.3,-131.649 393.658,-138.16 395.894,-131.526"/>
</g>
<!-- Node11&#45;&gt;Node9 -->
<g id="edge19" class="edge"><title>Node11&#45;&gt;Node9</title>
<path fill="none" stroke="midnightblue" d="M755.408,-229.384C811.021,-224.195 895.751,-212.429 915.5,-188 935.946,-162.708 1001.71,-187.527 903.5,-56 891.392,-39.7838 872.35,-29.3739 853.605,-22.707"/>
<polygon fill="midnightblue" stroke="midnightblue" points="854.46,-19.305 843.868,-19.5509 852.302,-25.9639 854.46,-19.305"/>
</g>
<!-- Node11&#45;&gt;Node10 -->
<g id="edge20" class="edge"><title>Node11&#45;&gt;Node10</title>
<path fill="none" stroke="midnightblue" d="M719.87,-224.33C731.38,-216.469 746.689,-203.722 753.5,-188 757.034,-179.844 756.032,-176.521 753.5,-168 735.976,-109.02 686.394,-53.347 660.197,-26.9645"/>
<polygon fill="midnightblue" stroke="midnightblue" points="662.456,-24.2766 652.878,-19.746 657.54,-29.2602 662.456,-24.2766"/>
</g>
<!-- Node12 -->
<g id="node12" class="node"><title>Node12</title>
<g id="a_node12"><a xlink:href="_ogre_log_8h.html" target="_top" xlink:title="OgreLog.h">
<polygon fill="none" stroke="red" points="682.5,-168.5 682.5,-187.5 744.5,-187.5 744.5,-168.5 682.5,-168.5"/>
<text text-anchor="middle" x="713.5" y="-175.5" font-family="Helvetica,sans-Serif" font-size="10.00">OgreLog.h</text>
</a>
</g>
</g>
<!-- Node11&#45;&gt;Node12 -->
<g id="edge13" class="edge"><title>Node11&#45;&gt;Node12</title>
<path fill="none" stroke="midnightblue" d="M706.821,-224.083C707.881,-216.927 709.406,-206.635 710.731,-197.691"/>
<polygon fill="midnightblue" stroke="midnightblue" points="714.2,-198.156 712.204,-187.751 707.276,-197.13 714.2,-198.156"/>
</g>
<!-- Node13 -->
<g id="node13" class="node"><title>Node13</title>
<g id="a_node13"><a xlink:href="_ogre_singleton_8h.html" target="_top" xlink:title="OgreSingleton.h">
<polygon fill="none" stroke="black" points="386.5,-168.5 386.5,-187.5 472.5,-187.5 472.5,-168.5 386.5,-168.5"/>
<text text-anchor="middle" x="429.5" y="-175.5" font-family="Helvetica,sans-Serif" font-size="10.00">OgreSingleton.h</text>
</a>
</g>
</g>
<!-- Node11&#45;&gt;Node13 -->
<g id="edge17" class="edge"><title>Node11&#45;&gt;Node13</title>
<path fill="none" stroke="midnightblue" d="M661.767,-224.444C613.174,-214.936 534.711,-199.585 482.623,-189.394"/>
<polygon fill="midnightblue" stroke="midnightblue" points="483.06,-185.913 472.574,-187.428 481.716,-192.783 483.06,-185.913"/>
</g>
<!-- Node12&#45;&gt;Node4 -->
<g id="edge14" class="edge"><title>Node12&#45;&gt;Node4</title>
<path fill="none" stroke="midnightblue" d="M682.307,-172.255C623.772,-163.351 496.495,-143.991 420.103,-132.371"/>
<polygon fill="midnightblue" stroke="midnightblue" points="420.545,-128.898 410.132,-130.854 419.492,-135.818 420.545,-128.898"/>
</g>
<!-- Node12&#45;&gt;Node9 -->
<g id="edge15" class="edge"><title>Node12&#45;&gt;Node9</title>
<path fill="none" stroke="midnightblue" d="M719.134,-168.35C730.142,-151.213 754.881,-111.533 771.5,-76 778.667,-60.6769 785.202,-42.5746 789.637,-29.3702"/>
<polygon fill="midnightblue" stroke="midnightblue" points="793.051,-30.1916 792.836,-19.5989 786.398,-28.0135 793.051,-30.1916"/>
</g>
<!-- Node12&#45;&gt;Node10 -->
<g id="edge16" class="edge"><title>Node12&#45;&gt;Node10</title>
<path fill="none" stroke="midnightblue" d="M709.736,-168.075C698.67,-141.832 666.079,-64.5453 651.14,-29.1165"/>
<polygon fill="midnightblue" stroke="midnightblue" points="654.224,-27.4224 647.113,-19.5681 647.774,-30.1423 654.224,-27.4224"/>
</g>
<!-- Node13&#45;&gt;Node4 -->
<g id="edge18" class="edge"><title>Node13&#45;&gt;Node4</title>
<path fill="none" stroke="midnightblue" d="M418.093,-168.324C407.391,-160.185 391.159,-147.839 378.337,-138.087"/>
<polygon fill="midnightblue" stroke="midnightblue" points="380.193,-135.102 370.115,-131.834 375.956,-140.673 380.193,-135.102"/>
</g>
<!-- Node14&#45;&gt;Node4 -->
<g id="edge22" class="edge"><title>Node14&#45;&gt;Node4</title>
<path fill="none" stroke="midnightblue" d="M838.377,-173.415C753.122,-164.458 529.832,-141 420.55,-129.519"/>
<polygon fill="midnightblue" stroke="midnightblue" points="420.65,-126.01 410.339,-128.446 419.918,-132.972 420.65,-126.01"/>
</g>
<!-- Node14&#45;&gt;Node9 -->
<g id="edge23" class="edge"><title>Node14&#45;&gt;Node9</title>
<path fill="none" stroke="midnightblue" d="M876.84,-168.28C886.662,-147.191 908.048,-92.484 885.5,-56 875.827,-40.348 858.878,-29.958 842.278,-23.1496"/>
<polygon fill="midnightblue" stroke="midnightblue" points="843.195,-19.7561 832.602,-19.5421 840.749,-26.3151 843.195,-19.7561"/>
</g>
<!-- Node14&#45;&gt;Node10 -->
<g id="edge24" class="edge"><title>Node14&#45;&gt;Node10</title>
<path fill="none" stroke="midnightblue" d="M864.772,-168.136C853.295,-155.185 830.804,-130.61 809.5,-112 777.902,-84.3965 769.284,-77.9067 733.5,-56 713.763,-43.9174 690.354,-32.29 672.357,-23.8819"/>
<polygon fill="midnightblue" stroke="midnightblue" points="673.521,-20.5645 662.974,-19.5596 670.592,-26.9224 673.521,-20.5645"/>
</g>
<!-- Node17&#45;&gt;Node4 -->
<g id="edge28" class="edge"><title>Node17&#45;&gt;Node4</title>
<path fill="none" stroke="midnightblue" d="M482.813,-286.105C421.157,-281.631 328.431,-270.571 306.5,-244 284.999,-217.949 292.458,-198.721 306.5,-168 312.277,-155.36 323.552,-144.911 334.131,-137.274"/>
<polygon fill="midnightblue" stroke="midnightblue" points="336.349,-140.001 342.717,-131.533 332.458,-134.182 336.349,-140.001"/>
</g>
<!-- Node18 -->
<g id="node18" class="node"><title>Node18</title>
<g id="a_node18"><a xlink:href="_ogre_render_target_8h.html" target="_top" xlink:title="OgreRenderTarget.h">
<polygon fill="none" stroke="black" points="525,-224.5 525,-243.5 630,-243.5 630,-224.5 525,-224.5"/>
<text text-anchor="middle" x="577.5" y="-231.5" font-family="Helvetica,sans-Serif" font-size="10.00">OgreRenderTarget.h</text>
</a>
</g>
</g>
<!-- Node17&#45;&gt;Node18 -->
<g id="edge29" class="edge"><title>Node17&#45;&gt;Node18</title>
<path fill="none" stroke="midnightblue" d="M545.775,-280.083C551.142,-272.455 559.018,-261.264 565.579,-251.941"/>
<polygon fill="midnightblue" stroke="midnightblue" points="568.449,-253.943 571.342,-243.751 562.725,-249.915 568.449,-253.943"/>
</g>
<!-- Node18&#45;&gt;Node4 -->
<g id="edge30" class="edge"><title>Node18&#45;&gt;Node4</title>
<path fill="none" stroke="midnightblue" d="M524.908,-227.235C473.025,-220.511 398.517,-207.732 377.5,-188 364.92,-176.19 360.52,-156.557 359.055,-141.953"/>
<polygon fill="midnightblue" stroke="midnightblue" points="362.523,-141.328 358.409,-131.565 355.536,-141.763 362.523,-141.328"/>
</g>
<!-- Node18&#45;&gt;Node9 -->
<g id="edge35" class="edge"><title>Node18&#45;&gt;Node9</title>
<path fill="none" stroke="midnightblue" d="M630.163,-225.228C675.273,-217.574 735.691,-204.625 753.5,-188 798.289,-146.189 799.314,-66.0976 797.184,-29.7577"/>
<polygon fill="midnightblue" stroke="midnightblue" points="800.661,-29.3151 796.433,-19.6004 793.68,-29.8313 800.661,-29.3151"/>
</g>
<!-- Node18&#45;&gt;Node10 -->
<g id="edge36" class="edge"><title>Node18&#45;&gt;Node10</title>
<path fill="none" stroke="midnightblue" d="M595.682,-224.366C609.279,-216.835 626.94,-204.521 635.5,-188 662.454,-135.979 653.728,-63.3865 647.494,-29.6305"/>
<polygon fill="midnightblue" stroke="midnightblue" points="650.914,-28.8828 645.531,-19.7575 644.049,-30.2481 650.914,-28.8828"/>
</g>
<!-- Node19 -->
<g id="node19" class="node"><title>Node19</title>
<g id="a_node19"><a xlink:href="_ogre_pixel_format_8h.html" target="_top" xlink:title="OgrePixelFormat.h">
<polygon fill="none" stroke="red" points="528.5,-168.5 528.5,-187.5 626.5,-187.5 626.5,-168.5 528.5,-168.5"/>
<text text-anchor="middle" x="577.5" y="-175.5" font-family="Helvetica,sans-Serif" font-size="10.00">OgrePixelFormat.h</text>
</a>
</g>
</g>
<!-- Node18&#45;&gt;Node19 -->
<g id="edge31" class="edge"><title>Node18&#45;&gt;Node19</title>
<path fill="none" stroke="midnightblue" d="M577.5,-224.083C577.5,-217.006 577.5,-206.861 577.5,-197.986"/>
<polygon fill="midnightblue" stroke="midnightblue" points="581,-197.751 577.5,-187.751 574,-197.751 581,-197.751"/>
</g>
<!-- Node19&#45;&gt;Node4 -->
<g id="edge32" class="edge"><title>Node19&#45;&gt;Node4</title>
<path fill="none" stroke="midnightblue" d="M542.799,-168.444C504.915,-159.102 444.151,-144.119 402.838,-133.933"/>
<polygon fill="midnightblue" stroke="midnightblue" points="403.586,-130.512 393.039,-131.516 401.91,-137.309 403.586,-130.512"/>
</g>
<!-- Node19&#45;&gt;Node9 -->
<g id="edge33" class="edge"><title>Node19&#45;&gt;Node9</title>
<path fill="none" stroke="midnightblue" d="M588.914,-168.309C624.231,-141.416 732.002,-59.3518 776.239,-25.6665"/>
<polygon fill="midnightblue" stroke="midnightblue" points="778.364,-28.448 784.199,-19.6051 774.123,-22.8788 778.364,-28.448"/>
</g>
<!-- Node19&#45;&gt;Node10 -->
<g id="edge34" class="edge"><title>Node19&#45;&gt;Node10</title>
<path fill="none" stroke="midnightblue" d="M556.717,-168.389C513.812,-149.406 422.361,-101.984 458.5,-56 473.755,-36.5896 534.194,-24.5099 581.894,-17.8147"/>
<polygon fill="midnightblue" stroke="midnightblue" points="582.418,-21.2758 591.858,-16.467 581.479,-14.339 582.418,-21.2758"/>
</g>
<!-- Node20&#45;&gt;Node4 -->
<g id="edge38" class="edge"><title>Node20&#45;&gt;Node4</title>
<path fill="none" stroke="midnightblue" d="M243.789,-280.351C242.498,-258.95 242.009,-202.741 268.5,-168 280.298,-152.528 298.865,-142.002 316.078,-135.045"/>
<polygon fill="midnightblue" stroke="midnightblue" points="317.311,-138.321 325.45,-131.539 314.858,-131.765 317.311,-138.321"/>
</g>
<!-- Node21 -->
<g id="node21" class="node"><title>Node21</title>
<g id="a_node21"><a xlink:href="_ogre_string_vector_8h.html" target="_top" xlink:title="OgreStringVector.h">
<polygon fill="none" stroke="black" points="100.5,-224.5 100.5,-243.5 200.5,-243.5 200.5,-224.5 100.5,-224.5"/>
<text text-anchor="middle" x="150.5" y="-231.5" font-family="Helvetica,sans-Serif" font-size="10.00">OgreStringVector.h</text>
</a>
</g>
</g>
<!-- Node20&#45;&gt;Node21 -->
<g id="edge39" class="edge"><title>Node20&#45;&gt;Node21</title>
<path fill="none" stroke="midnightblue" d="M229.397,-280.324C214.597,-271.822 191.806,-258.729 174.518,-248.797"/>
<polygon fill="midnightblue" stroke="midnightblue" points="175.98,-245.601 165.565,-243.655 172.493,-251.671 175.98,-245.601"/>
</g>
<!-- Node21&#45;&gt;Node4 -->
<g id="edge40" class="edge"><title>Node21&#45;&gt;Node4</title>
<path fill="none" stroke="midnightblue" d="M159.106,-224.283C173.009,-210.624 201.766,-184.08 230.5,-168 256.904,-153.224 289.036,-141.947 314.501,-134.377"/>
<polygon fill="midnightblue" stroke="midnightblue" points="315.624,-137.696 324.26,-131.559 313.682,-130.971 315.624,-137.696"/>
</g>
<!-- Node22 -->
<g id="node22" class="node"><title>Node22</title>
<g id="a_node22"><a xlink:href="_ogre_shared_ptr_8h.html" target="_top" xlink:title="OgreSharedPtr.h">
<polygon fill="none" stroke="red" points="89,-168.5 89,-187.5 178,-187.5 178,-168.5 89,-168.5"/>
<text text-anchor="middle" x="133.5" y="-175.5" font-family="Helvetica,sans-Serif" font-size="10.00">OgreSharedPtr.h</text>
</a>
</g>
</g>
<!-- Node21&#45;&gt;Node22 -->
<g id="edge41" class="edge"><title>Node21&#45;&gt;Node22</title>
<path fill="none" stroke="midnightblue" d="M147.693,-224.083C145.415,-216.849 142.129,-206.409 139.292,-197.397"/>
<polygon fill="midnightblue" stroke="midnightblue" points="142.596,-196.239 136.255,-187.751 135.919,-198.341 142.596,-196.239"/>
</g>
<!-- Node23 -->
<g id="node23" class="node"><title>Node23</title>
<g id="a_node23"><a xlink:href="_ogre_string_8h.html" target="_top" xlink:title="OgreString.h">
<polygon fill="none" stroke="black" points="0,-168.5 0,-187.5 71,-187.5 71,-168.5 0,-168.5"/>
<text text-anchor="middle" x="35.5" y="-175.5" font-family="Helvetica,sans-Serif" font-size="10.00">OgreString.h</text>
</a>
</g>
</g>
<!-- Node21&#45;&gt;Node23 -->
<g id="edge43" class="edge"><title>Node21&#45;&gt;Node23</title>
<path fill="none" stroke="midnightblue" d="M132.278,-224.444C113.604,-215.675 84.344,-201.935 62.8826,-191.858"/>
<polygon fill="midnightblue" stroke="midnightblue" points="64.1763,-188.599 53.6368,-187.516 61.2009,-194.935 64.1763,-188.599"/>
</g>
<!-- Node22&#45;&gt;Node4 -->
<g id="edge42" class="edge"><title>Node22&#45;&gt;Node4</title>
<path fill="none" stroke="midnightblue" d="M169.152,-168.444C208.156,-159.083 270.766,-144.056 313.217,-133.868"/>
<polygon fill="midnightblue" stroke="midnightblue" points="314.108,-137.254 323.015,-131.516 312.474,-130.447 314.108,-137.254"/>
</g>
<!-- Node23&#45;&gt;Node4 -->
<g id="edge44" class="edge"><title>Node23&#45;&gt;Node4</title>
<path fill="none" stroke="midnightblue" d="M71.0168,-169.602C73.8841,-169.046 76.7388,-168.505 79.5,-168 154.014,-154.376 240.128,-140.818 296.748,-132.201"/>
<polygon fill="midnightblue" stroke="midnightblue" points="297.605,-135.611 306.967,-130.651 296.556,-128.691 297.605,-135.611"/>
</g>
<!-- Node23&#45;&gt;Node9 -->
<g id="edge45" class="edge"><title>Node23&#45;&gt;Node9</title>
<path fill="none" stroke="midnightblue" d="M54.3971,-168.39C113.884,-141.313 294.152,-59.4741 307.5,-56 478.528,-11.488 527.556,-36.6032 703.5,-20 713.326,-19.0727 723.741,-18.0716 733.894,-17.0856"/>
<polygon fill="midnightblue" stroke="midnightblue" points="734.315,-20.5612 743.928,-16.1079 733.636,-13.5942 734.315,-20.5612"/>
</g>
<!-- Node23&#45;&gt;Node10 -->
<g id="edge46" class="edge"><title>Node23&#45;&gt;Node10</title>
<path fill="none" stroke="midnightblue" d="M40.1322,-168.276C52.9527,-145.137 91.4268,-82.1855 143.5,-56 218.707,-18.1817 465.104,-11.8146 581.52,-10.9672"/>
<polygon fill="midnightblue" stroke="midnightblue" points="581.719,-14.4662 591.698,-10.9049 581.676,-7.46633 581.719,-14.4662"/>
</g>
<!-- Node24&#45;&gt;Node3 -->
<g id="edge49" class="edge"><title>Node24&#45;&gt;Node3</title>
<path fill="none" stroke="midnightblue" d="M819.144,-392.368C805.718,-374.135 774.268,-331.426 756.779,-307.675"/>
<polygon fill="midnightblue" stroke="midnightblue" points="759.574,-305.568 750.826,-299.591 753.938,-309.719 759.574,-305.568"/>
</g>
<!-- Node25&#45;&gt;Node1 -->
<g id="edge52" class="edge"><title>Node25&#45;&gt;Node1</title>
<path fill="none" stroke="midnightblue" d="M667.631,-467.751C669.157,-474.858 669.604,-485.136 668.972,-494.101"/>
<polygon fill="midnightblue" stroke="midnightblue" points="665.493,-493.713 667.666,-504.083 672.434,-494.622 665.493,-493.713"/>
</g>
<!-- Node25&#45;&gt;Node17 -->
<g id="edge51" class="edge"><title>Node25&#45;&gt;Node17</title>
<path fill="none" stroke="midnightblue" d="M647.972,-448.47C635.07,-440.347 616.324,-427.137 603.5,-412 596.153,-403.328 564.05,-340.052 548.291,-308.62"/>
<polygon fill="midnightblue" stroke="midnightblue" points="551.404,-307.021 543.8,-299.643 545.144,-310.152 551.404,-307.021"/>
</g>
<!-- Node26 -->
<g id="node26" class="node"><title>Node26</title>
<g id="a_node26"><a xlink:href="_g_l_e_s_2include_2_e_g_l_2_ogre_e_g_l_context_8h.html" target="_top" xlink:title="OgreEGLContext.h">
<polygon fill="none" stroke="black" points="612.5,-392.5 612.5,-411.5 712.5,-411.5 712.5,-392.5 612.5,-392.5"/>
<text text-anchor="middle" x="662.5" y="-399.5" font-family="Helvetica,sans-Serif" font-size="10.00">OgreEGLContext.h</text>
</a>
</g>
</g>
<!-- Node25&#45;&gt;Node26 -->
<g id="edge53" class="edge"><title>Node25&#45;&gt;Node26</title>
<path fill="none" stroke="midnightblue" d="M662.5,-448.083C662.5,-441.006 662.5,-430.861 662.5,-421.986"/>
<polygon fill="midnightblue" stroke="midnightblue" points="666,-421.751 662.5,-411.751 659,-421.751 666,-421.751"/>
</g>
<!-- Node27 -->
<g id="node27" class="node"><title>Node27</title>
<g id="a_node27"><a xlink:href="_ogre_g_l_e_s_context_8h.html" target="_top" xlink:title="OgreGLESContext.h">
<polygon fill="none" stroke="black" points="609,-336.5 609,-355.5 716,-355.5 716,-336.5 609,-336.5"/>
<text text-anchor="middle" x="662.5" y="-343.5" font-family="Helvetica,sans-Serif" font-size="10.00">OgreGLESContext.h</text>
</a>
</g>
</g>
<!-- Node26&#45;&gt;Node27 -->
<g id="edge54" class="edge"><title>Node26&#45;&gt;Node27</title>
<path fill="none" stroke="midnightblue" d="M662.5,-392.083C662.5,-385.006 662.5,-374.861 662.5,-365.986"/>
<polygon fill="midnightblue" stroke="midnightblue" points="666,-365.751 662.5,-355.751 659,-365.751 666,-365.751"/>
</g>
<!-- Node27&#45;&gt;Node3 -->
<g id="edge55" class="edge"><title>Node27&#45;&gt;Node3</title>
<path fill="none" stroke="midnightblue" d="M675.675,-336.324C688.347,-327.979 707.733,-315.212 722.706,-305.352"/>
<polygon fill="midnightblue" stroke="midnightblue" points="724.931,-308.078 731.358,-299.655 721.081,-302.231 724.931,-308.078"/>
</g>
</g>
</svg>
