<?xml version="1.0" encoding="UTF-8" standalone="no"?>
<!DOCTYPE svg PUBLIC "-//W3C//DTD SVG 1.1//EN"
 "http://www.w3.org/Graphics/SVG/1.1/DTD/svg11.dtd">
<!-- Generated by graphviz version 2.38.0 (20140413.2041)
 -->
<!-- Title: OgreWin32EGLRenderTexture.h Pages: 1 -->
<svg width="2841pt" height="252pt"
 viewBox="0.00 0.00 2841.00 252.00" xmlns="http://www.w3.org/2000/svg" xmlns:xlink="http://www.w3.org/1999/xlink">
<g id="graph0" class="graph" transform="scale(1 1) rotate(0) translate(4 248)">
<title>OgreWin32EGLRenderTexture.h</title>
<!-- Node1 -->
<g id="node1" class="node"><title>Node1</title>
<polygon fill="#bfbfbf" stroke="black" points="910.5,-224.5 910.5,-243.5 1068.5,-243.5 1068.5,-224.5 910.5,-224.5"/>
<text text-anchor="middle" x="989.5" y="-231.5" font-family="Helvetica,sans-Serif" font-size="10.00">OgreWin32EGLRenderTexture.h</text>
</g>
<!-- Node2 -->
<g id="node2" class="node"><title>Node2</title>
<g id="a_node2"><a xlink:href="_ogre_prerequisites_8h.html" target="_top" xlink:title="OgrePrerequisites.h">
<polygon fill="none" stroke="black" points="535,-168.5 535,-187.5 638,-187.5 638,-168.5 535,-168.5"/>
<text text-anchor="middle" x="586.5" y="-175.5" font-family="Helvetica,sans-Serif" font-size="10.00">OgrePrerequisites.h</text>
</a>
</g>
</g>
<!-- Node1&#45;&gt;Node2 -->
<g id="edge1" class="edge"><title>Node1&#45;&gt;Node2</title>
<path fill="none" stroke="midnightblue" d="M925.643,-224.444C849.651,-214.261 723.627,-197.374 648.473,-187.304"/>
<polygon fill="midnightblue" stroke="midnightblue" points="648.593,-183.789 638.216,-185.93 647.663,-190.727 648.593,-183.789"/>
</g>
<!-- Node43 -->
<g id="node43" class="node"><title>Node43</title>
<polygon fill="none" stroke="#bfbfbf" points="924.5,-168.5 924.5,-187.5 1054.5,-187.5 1054.5,-168.5 924.5,-168.5"/>
<text text-anchor="middle" x="989.5" y="-175.5" font-family="Helvetica,sans-Serif" font-size="10.00">OgreEGLRenderTexture.h</text>
</g>
<!-- Node1&#45;&gt;Node43 -->
<g id="edge51" class="edge"><title>Node1&#45;&gt;Node43</title>
<path fill="none" stroke="midnightblue" d="M989.5,-224.083C989.5,-217.006 989.5,-206.861 989.5,-197.986"/>
<polygon fill="midnightblue" stroke="midnightblue" points="993,-197.751 989.5,-187.751 986,-197.751 993,-197.751"/>
</g>
<!-- Node44 -->
<g id="node44" class="node"><title>Node44</title>
<g id="a_node44"><a xlink:href="_g_l_support_2include_2_e_g_l_2_w_i_n32_2_ogre_win32_e_g_l_support_8h.html" target="_top" xlink:title="OgreWin32EGLSupport.h">
<polygon fill="none" stroke="black" points="1608,-168.5 1608,-187.5 1735,-187.5 1735,-168.5 1608,-168.5"/>
<text text-anchor="middle" x="1671.5" y="-175.5" font-family="Helvetica,sans-Serif" font-size="10.00">OgreWin32EGLSupport.h</text>
</a>
</g>
</g>
<!-- Node1&#45;&gt;Node44 -->
<g id="edge52" class="edge"><title>Node1&#45;&gt;Node44</title>
<path fill="none" stroke="midnightblue" d="M1068.73,-226.726C1201.85,-216.187 1468.45,-195.077 1597.78,-184.837"/>
<polygon fill="midnightblue" stroke="midnightblue" points="1598.28,-188.308 1607.98,-184.03 1597.73,-181.33 1598.28,-188.308"/>
</g>
<!-- Node3 -->
<g id="node3" class="node"><title>Node3</title>
<g id="a_node3"><a xlink:href="_ogre_platform_8h.html" target="_top" xlink:title="OgrePlatform.h">
<polygon fill="none" stroke="black" points="545,-112.5 545,-131.5 628,-131.5 628,-112.5 545,-112.5"/>
<text text-anchor="middle" x="586.5" y="-119.5" font-family="Helvetica,sans-Serif" font-size="10.00">OgrePlatform.h</text>
</a>
</g>
</g>
<!-- Node2&#45;&gt;Node3 -->
<g id="edge2" class="edge"><title>Node2&#45;&gt;Node3</title>
<path fill="none" stroke="midnightblue" d="M586.5,-168.083C586.5,-161.006 586.5,-150.861 586.5,-141.986"/>
<polygon fill="midnightblue" stroke="midnightblue" points="590,-141.751 586.5,-131.751 583,-141.751 590,-141.751"/>
</g>
<!-- Node6 -->
<g id="node6" class="node"><title>Node6</title>
<polygon fill="none" stroke="#bfbfbf" points="642,-56.5 642,-75.5 683,-75.5 683,-56.5 642,-56.5"/>
<text text-anchor="middle" x="662.5" y="-63.5" font-family="Helvetica,sans-Serif" font-size="10.00">string</text>
</g>
<!-- Node2&#45;&gt;Node6 -->
<g id="edge5" class="edge"><title>Node2&#45;&gt;Node6</title>
<path fill="none" stroke="midnightblue" d="M599.086,-168.286C610.205,-160.038 626.208,-146.749 636.5,-132 646.488,-117.686 653.452,-98.9766 657.642,-85.3077"/>
<polygon fill="midnightblue" stroke="midnightblue" points="661.032,-86.1831 660.412,-75.6064 654.301,-84.2612 661.032,-86.1831"/>
</g>
<!-- Node7 -->
<g id="node7" class="node"><title>Node7</title>
<g id="a_node7"><a xlink:href="_ogre_std_headers_8h.html" target="_top" xlink:title="OgreStdHeaders.h">
<polygon fill="none" stroke="black" points="1803.5,-112.5 1803.5,-131.5 1901.5,-131.5 1901.5,-112.5 1803.5,-112.5"/>
<text text-anchor="middle" x="1852.5" y="-119.5" font-family="Helvetica,sans-Serif" font-size="10.00">OgreStdHeaders.h</text>
</a>
</g>
</g>
<!-- Node2&#45;&gt;Node7 -->
<g id="edge6" class="edge"><title>Node2&#45;&gt;Node7</title>
<path fill="none" stroke="midnightblue" d="M638.092,-174.799C840.308,-166.174 1578.31,-134.695 1793.34,-125.524"/>
<polygon fill="midnightblue" stroke="midnightblue" points="1793.63,-129.014 1803.48,-125.091 1793.34,-122.021 1793.63,-129.014"/>
</g>
<!-- Node37 -->
<g id="node37" class="node"><title>Node37</title>
<g id="a_node37"><a xlink:href="_ogre_memory_allocator_config_8h.html" target="_top" xlink:title="This file configures Ogre&#39;s memory allocators. ">
<polygon fill="none" stroke="black" points="233.5,-112.5 233.5,-131.5 381.5,-131.5 381.5,-112.5 233.5,-112.5"/>
<text text-anchor="middle" x="307.5" y="-119.5" font-family="Helvetica,sans-Serif" font-size="10.00">OgreMemoryAllocatorConfig.h</text>
</a>
</g>
</g>
<!-- Node2&#45;&gt;Node37 -->
<g id="edge37" class="edge"><title>Node2&#45;&gt;Node37</title>
<path fill="none" stroke="midnightblue" d="M542.292,-168.444C493.213,-158.944 413.99,-143.611 361.336,-133.42"/>
<polygon fill="midnightblue" stroke="midnightblue" points="361.984,-129.98 351.502,-131.516 360.654,-136.853 361.984,-129.98"/>
</g>
<!-- Node4 -->
<g id="node4" class="node"><title>Node4</title>
<g id="a_node4"><a xlink:href="_ogre_config_8h.html" target="_top" xlink:title="OgreConfig.h">
<polygon fill="none" stroke="black" points="549.5,-56.5 549.5,-75.5 623.5,-75.5 623.5,-56.5 549.5,-56.5"/>
<text text-anchor="middle" x="586.5" y="-63.5" font-family="Helvetica,sans-Serif" font-size="10.00">OgreConfig.h</text>
</a>
</g>
</g>
<!-- Node3&#45;&gt;Node4 -->
<g id="edge3" class="edge"><title>Node3&#45;&gt;Node4</title>
<path fill="none" stroke="midnightblue" d="M586.5,-112.083C586.5,-105.006 586.5,-94.8611 586.5,-85.9865"/>
<polygon fill="midnightblue" stroke="midnightblue" points="590,-85.751 586.5,-75.7511 583,-85.7511 590,-85.751"/>
</g>
<!-- Node5 -->
<g id="node5" class="node"><title>Node5</title>
<polygon fill="none" stroke="#bfbfbf" points="534.5,-0.5 534.5,-19.5 638.5,-19.5 638.5,-0.5 534.5,-0.5"/>
<text text-anchor="middle" x="586.5" y="-7.5" font-family="Helvetica,sans-Serif" font-size="10.00">OgreBuildSettings.h</text>
</g>
<!-- Node4&#45;&gt;Node5 -->
<g id="edge4" class="edge"><title>Node4&#45;&gt;Node5</title>
<path fill="none" stroke="midnightblue" d="M586.5,-56.083C586.5,-49.0059 586.5,-38.8611 586.5,-29.9865"/>
<polygon fill="midnightblue" stroke="midnightblue" points="590,-29.751 586.5,-19.7511 583,-29.7511 590,-29.751"/>
</g>
<!-- Node7&#45;&gt;Node6 -->
<g id="edge16" class="edge"><title>Node7&#45;&gt;Node6</title>
<path fill="none" stroke="midnightblue" d="M1803.43,-120.745C1614.21,-119.508 931.031,-112.658 693.288,-75.5958"/>
<polygon fill="midnightblue" stroke="midnightblue" points="693.753,-72.1256 683.322,-73.98 692.632,-79.0353 693.753,-72.1256"/>
</g>
<!-- Node8 -->
<g id="node8" class="node"><title>Node8</title>
<polygon fill="none" stroke="#bfbfbf" points="1672,-56.5 1672,-75.5 1721,-75.5 1721,-56.5 1672,-56.5"/>
<text text-anchor="middle" x="1696.5" y="-63.5" font-family="Helvetica,sans-Serif" font-size="10.00">cassert</text>
</g>
<!-- Node7&#45;&gt;Node8 -->
<g id="edge7" class="edge"><title>Node7&#45;&gt;Node8</title>
<path fill="none" stroke="midnightblue" d="M1827.78,-112.444C1801.65,-103.399 1760.24,-89.064 1730.92,-78.9158"/>
<polygon fill="midnightblue" stroke="midnightblue" points="1731.7,-75.4801 1721.1,-75.5164 1729.41,-82.0951 1731.7,-75.4801"/>
</g>
<!-- Node9 -->
<g id="node9" class="node"><title>Node9</title>
<polygon fill="none" stroke="#bfbfbf" points="1739,-56.5 1739,-75.5 1782,-75.5 1782,-56.5 1739,-56.5"/>
<text text-anchor="middle" x="1760.5" y="-63.5" font-family="Helvetica,sans-Serif" font-size="10.00">cstdio</text>
</g>
<!-- Node7&#45;&gt;Node9 -->
<g id="edge8" class="edge"><title>Node7&#45;&gt;Node9</title>
<path fill="none" stroke="midnightblue" d="M1837.72,-112.324C1823.23,-103.822 1800.93,-90.7288 1784.01,-80.7975"/>
<polygon fill="midnightblue" stroke="midnightblue" points="1785.64,-77.6981 1775.24,-75.6545 1782.1,-83.735 1785.64,-77.6981"/>
</g>
<!-- Node10 -->
<g id="node10" class="node"><title>Node10</title>
<polygon fill="none" stroke="#bfbfbf" points="1800,-56.5 1800,-75.5 1845,-75.5 1845,-56.5 1800,-56.5"/>
<text text-anchor="middle" x="1822.5" y="-63.5" font-family="Helvetica,sans-Serif" font-size="10.00">cstdlib</text>
</g>
<!-- Node7&#45;&gt;Node10 -->
<g id="edge9" class="edge"><title>Node7&#45;&gt;Node10</title>
<path fill="none" stroke="midnightblue" d="M1847.55,-112.083C1843.4,-104.613 1837.35,-93.7244 1832.23,-84.5199"/>
<polygon fill="midnightblue" stroke="midnightblue" points="1835.28,-82.7929 1827.36,-75.7511 1829.16,-86.1924 1835.28,-82.7929"/>
</g>
<!-- Node11 -->
<g id="node11" class="node"><title>Node11</title>
<polygon fill="none" stroke="#bfbfbf" points="1863,-56.5 1863,-75.5 1904,-75.5 1904,-56.5 1863,-56.5"/>
<text text-anchor="middle" x="1883.5" y="-63.5" font-family="Helvetica,sans-Serif" font-size="10.00">ctime</text>
</g>
<!-- Node7&#45;&gt;Node11 -->
<g id="edge10" class="edge"><title>Node7&#45;&gt;Node11</title>
<path fill="none" stroke="midnightblue" d="M1857.62,-112.083C1861.91,-104.613 1868.16,-93.7244 1873.44,-84.5199"/>
<polygon fill="midnightblue" stroke="midnightblue" points="1876.53,-86.1662 1878.48,-75.7511 1870.46,-82.6811 1876.53,-86.1662"/>
</g>
<!-- Node12 -->
<g id="node12" class="node"><title>Node12</title>
<polygon fill="none" stroke="#bfbfbf" points="1922.5,-56.5 1922.5,-75.5 1968.5,-75.5 1968.5,-56.5 1922.5,-56.5"/>
<text text-anchor="middle" x="1945.5" y="-63.5" font-family="Helvetica,sans-Serif" font-size="10.00">cstring</text>
</g>
<!-- Node7&#45;&gt;Node12 -->
<g id="edge11" class="edge"><title>Node7&#45;&gt;Node12</title>
<path fill="none" stroke="midnightblue" d="M1867.44,-112.324C1882.09,-103.822 1904.63,-90.7288 1921.74,-80.7975"/>
<polygon fill="midnightblue" stroke="midnightblue" points="1923.7,-83.7027 1930.6,-75.6545 1920.19,-77.6491 1923.7,-83.7027"/>
</g>
<!-- Node13 -->
<g id="node13" class="node"><title>Node13</title>
<polygon fill="none" stroke="#bfbfbf" points="1987,-56.5 1987,-75.5 2036,-75.5 2036,-56.5 1987,-56.5"/>
<text text-anchor="middle" x="2011.5" y="-63.5" font-family="Helvetica,sans-Serif" font-size="10.00">cstdarg</text>
</g>
<!-- Node7&#45;&gt;Node13 -->
<g id="edge12" class="edge"><title>Node7&#45;&gt;Node13</title>
<path fill="none" stroke="midnightblue" d="M1877.69,-112.444C1904.6,-103.306 1947.4,-88.7689 1977.33,-78.6044"/>
<polygon fill="midnightblue" stroke="midnightblue" points="1978.6,-81.869 1986.95,-75.339 1976.35,-75.2408 1978.6,-81.869"/>
</g>
<!-- Node14 -->
<g id="node14" class="node"><title>Node14</title>
<polygon fill="none" stroke="#bfbfbf" points="2054.5,-56.5 2054.5,-75.5 2098.5,-75.5 2098.5,-56.5 2054.5,-56.5"/>
<text text-anchor="middle" x="2076.5" y="-63.5" font-family="Helvetica,sans-Serif" font-size="10.00">cmath</text>
</g>
<!-- Node7&#45;&gt;Node14 -->
<g id="edge13" class="edge"><title>Node7&#45;&gt;Node14</title>
<path fill="none" stroke="midnightblue" d="M1891.83,-112.476C1928.88,-104.304 1986.14,-91.3044 2044.44,-76.1777"/>
<polygon fill="midnightblue" stroke="midnightblue" points="2045.4,-79.5461 2054.19,-73.6321 2043.63,-72.7734 2045.4,-79.5461"/>
</g>
<!-- Node15 -->
<g id="node15" class="node"><title>Node15</title>
<polygon fill="none" stroke="#bfbfbf" points="2116.5,-56.5 2116.5,-75.5 2160.5,-75.5 2160.5,-56.5 2116.5,-56.5"/>
<text text-anchor="middle" x="2138.5" y="-63.5" font-family="Helvetica,sans-Serif" font-size="10.00">vector</text>
</g>
<!-- Node7&#45;&gt;Node15 -->
<g id="edge14" class="edge"><title>Node7&#45;&gt;Node15</title>
<path fill="none" stroke="midnightblue" d="M1901.69,-112.969C1960.35,-103.286 2055.9,-87.155 2106.45,-76.0079"/>
<polygon fill="midnightblue" stroke="midnightblue" points="2107.25,-79.4138 2116.22,-73.7787 2105.7,-72.5889 2107.25,-79.4138"/>
</g>
<!-- Node16 -->
<g id="node16" class="node"><title>Node16</title>
<polygon fill="none" stroke="#bfbfbf" points="2179,-56.5 2179,-75.5 2214,-75.5 2214,-56.5 2179,-56.5"/>
<text text-anchor="middle" x="2196.5" y="-63.5" font-family="Helvetica,sans-Serif" font-size="10.00">map</text>
</g>
<!-- Node7&#45;&gt;Node16 -->
<g id="edge15" class="edge"><title>Node7&#45;&gt;Node16</title>
<path fill="none" stroke="midnightblue" d="M1901.75,-113.44C1905.05,-112.948 1908.32,-112.464 1911.5,-112 2022.93,-95.7276 2055.03,-102.044 2169.1,-75.6785"/>
<polygon fill="midnightblue" stroke="midnightblue" points="2169.98,-79.0669 2178.91,-73.3762 2168.38,-72.2518 2169.98,-79.0669"/>
</g>
<!-- Node17 -->
<g id="node17" class="node"><title>Node17</title>
<polygon fill="none" stroke="#bfbfbf" points="2232.5,-56.5 2232.5,-75.5 2262.5,-75.5 2262.5,-56.5 2232.5,-56.5"/>
<text text-anchor="middle" x="2247.5" y="-63.5" font-family="Helvetica,sans-Serif" font-size="10.00">set</text>
</g>
<!-- Node7&#45;&gt;Node17 -->
<g id="edge17" class="edge"><title>Node7&#45;&gt;Node17</title>
<path fill="none" stroke="midnightblue" d="M1901.74,-113.352C1905.04,-112.881 1908.32,-112.426 1911.5,-112 2046.61,-93.9065 2085.98,-108.052 2222.44,-75.6948"/>
<polygon fill="midnightblue" stroke="midnightblue" points="2223.54,-79.031 2232.44,-73.2837 2221.9,-72.2261 2223.54,-79.031"/>
</g>
<!-- Node18 -->
<g id="node18" class="node"><title>Node18</title>
<polygon fill="none" stroke="#bfbfbf" points="2281,-56.5 2281,-75.5 2310,-75.5 2310,-56.5 2281,-56.5"/>
<text text-anchor="middle" x="2295.5" y="-63.5" font-family="Helvetica,sans-Serif" font-size="10.00">list</text>
</g>
<!-- Node7&#45;&gt;Node18 -->
<g id="edge18" class="edge"><title>Node7&#45;&gt;Node18</title>
<path fill="none" stroke="midnightblue" d="M1901.73,-113.296C1905.03,-112.839 1908.31,-112.402 1911.5,-112 2067.76,-92.2821 2113.06,-111.706 2270.9,-75.4855"/>
<polygon fill="midnightblue" stroke="midnightblue" points="2272.02,-78.8179 2280.96,-73.1364 2270.43,-72.0011 2272.02,-78.8179"/>
</g>
<!-- Node19 -->
<g id="node19" class="node"><title>Node19</title>
<polygon fill="none" stroke="#bfbfbf" points="2328,-56.5 2328,-75.5 2371,-75.5 2371,-56.5 2328,-56.5"/>
<text text-anchor="middle" x="2349.5" y="-63.5" font-family="Helvetica,sans-Serif" font-size="10.00">deque</text>
</g>
<!-- Node7&#45;&gt;Node19 -->
<g id="edge19" class="edge"><title>Node7&#45;&gt;Node19</title>
<path fill="none" stroke="midnightblue" d="M1901.72,-113.253C1905.03,-112.806 1908.31,-112.384 1911.5,-112 2088.97,-90.6563 2138.93,-109.62 2317.67,-76.0168"/>
<polygon fill="midnightblue" stroke="midnightblue" points="2318.51,-79.4213 2327.67,-74.1081 2317.19,-72.5455 2318.51,-79.4213"/>
</g>
<!-- Node20 -->
<g id="node20" class="node"><title>Node20</title>
<polygon fill="none" stroke="#bfbfbf" points="2389,-56.5 2389,-75.5 2432,-75.5 2432,-56.5 2389,-56.5"/>
<text text-anchor="middle" x="2410.5" y="-63.5" font-family="Helvetica,sans-Serif" font-size="10.00">queue</text>
</g>
<!-- Node7&#45;&gt;Node20 -->
<g id="edge20" class="edge"><title>Node7&#45;&gt;Node20</title>
<path fill="none" stroke="midnightblue" d="M1901.72,-113.211C1905.03,-112.774 1908.31,-112.365 1911.5,-112 2115.96,-88.5922 2173.19,-113.455 2378.78,-75.9702"/>
<polygon fill="midnightblue" stroke="midnightblue" points="2379.48,-79.3989 2388.68,-74.1376 2378.21,-72.5158 2379.48,-79.3989"/>
</g>
<!-- Node21 -->
<g id="node21" class="node"><title>Node21</title>
<polygon fill="none" stroke="#bfbfbf" points="2450,-56.5 2450,-75.5 2491,-75.5 2491,-56.5 2450,-56.5"/>
<text text-anchor="middle" x="2470.5" y="-63.5" font-family="Helvetica,sans-Serif" font-size="10.00">bitset</text>
</g>
<!-- Node7&#45;&gt;Node21 -->
<g id="edge21" class="edge"><title>Node7&#45;&gt;Node21</title>
<path fill="none" stroke="midnightblue" d="M1901.71,-113.178C1905.02,-112.75 1908.31,-112.351 1911.5,-112 2142.86,-86.5416 2207.58,-118.358 2439.63,-75.953"/>
<polygon fill="midnightblue" stroke="midnightblue" points="2440.54,-79.3441 2449.74,-74.0795 2439.27,-72.4614 2440.54,-79.3441"/>
</g>
<!-- Node22 -->
<g id="node22" class="node"><title>Node22</title>
<polygon fill="none" stroke="#bfbfbf" points="2509.5,-56.5 2509.5,-75.5 2565.5,-75.5 2565.5,-56.5 2509.5,-56.5"/>
<text text-anchor="middle" x="2537.5" y="-63.5" font-family="Helvetica,sans-Serif" font-size="10.00">algorithm</text>
</g>
<!-- Node7&#45;&gt;Node22 -->
<g id="edge22" class="edge"><title>Node7&#45;&gt;Node22</title>
<path fill="none" stroke="midnightblue" d="M1901.71,-113.153C1905.02,-112.731 1908.31,-112.341 1911.5,-112 2168.98,-84.55 2239.39,-114.371 2499.2,-75.918"/>
<polygon fill="midnightblue" stroke="midnightblue" points="2499.95,-79.3452 2509.32,-74.4005 2498.91,-72.4226 2499.95,-79.3452"/>
</g>
<!-- Node23 -->
<g id="node23" class="node"><title>Node23</title>
<polygon fill="none" stroke="#bfbfbf" points="2584,-56.5 2584,-75.5 2643,-75.5 2643,-56.5 2584,-56.5"/>
<text text-anchor="middle" x="2613.5" y="-63.5" font-family="Helvetica,sans-Serif" font-size="10.00">functional</text>
</g>
<!-- Node7&#45;&gt;Node23 -->
<g id="edge23" class="edge"><title>Node7&#45;&gt;Node23</title>
<path fill="none" stroke="midnightblue" d="M1901.71,-113.128C1905.02,-112.711 1908.3,-112.33 1911.5,-112 2201.75,-82.0541 2280.55,-116.54 2573.72,-75.8293"/>
<polygon fill="midnightblue" stroke="midnightblue" points="2574.37,-79.2713 2583.79,-74.4128 2573.4,-72.3395 2574.37,-79.2713"/>
</g>
<!-- Node24 -->
<g id="node24" class="node"><title>Node24</title>
<polygon fill="none" stroke="#bfbfbf" points="2661.5,-56.5 2661.5,-75.5 2701.5,-75.5 2701.5,-56.5 2661.5,-56.5"/>
<text text-anchor="middle" x="2681.5" y="-63.5" font-family="Helvetica,sans-Serif" font-size="10.00">limits</text>
</g>
<!-- Node7&#45;&gt;Node24 -->
<g id="edge24" class="edge"><title>Node7&#45;&gt;Node24</title>
<path fill="none" stroke="midnightblue" d="M1901.71,-113.107C1905.02,-112.695 1908.3,-112.321 1911.5,-112 2236.21,-79.4332 2325.96,-132.218 2651.19,-75.7472"/>
<polygon fill="midnightblue" stroke="midnightblue" points="2652.14,-79.1354 2661.38,-73.9567 2650.92,-72.2412 2652.14,-79.1354"/>
</g>
<!-- Node25 -->
<g id="node25" class="node"><title>Node25</title>
<polygon fill="none" stroke="#bfbfbf" points="2719.5,-56.5 2719.5,-75.5 2769.5,-75.5 2769.5,-56.5 2719.5,-56.5"/>
<text text-anchor="middle" x="2744.5" y="-63.5" font-family="Helvetica,sans-Serif" font-size="10.00">fstream</text>
</g>
<!-- Node7&#45;&gt;Node25 -->
<g id="edge25" class="edge"><title>Node7&#45;&gt;Node25</title>
<path fill="none" stroke="midnightblue" d="M1901.71,-113.094C1905.02,-112.686 1908.3,-112.315 1911.5,-112 2261.98,-77.4719 2357.36,-128.819 2709.42,-75.8079"/>
<polygon fill="midnightblue" stroke="midnightblue" points="2710.02,-79.2571 2719.38,-74.2911 2708.96,-72.3369 2710.02,-79.2571"/>
</g>
<!-- Node26 -->
<g id="node26" class="node"><title>Node26</title>
<polygon fill="none" stroke="#bfbfbf" points="2788,-56.5 2788,-75.5 2833,-75.5 2833,-56.5 2788,-56.5"/>
<text text-anchor="middle" x="2810.5" y="-63.5" font-family="Helvetica,sans-Serif" font-size="10.00">iosfwd</text>
</g>
<!-- Node7&#45;&gt;Node26 -->
<g id="edge26" class="edge"><title>Node7&#45;&gt;Node26</title>
<path fill="none" stroke="midnightblue" d="M1901.7,-113.081C1905.01,-112.676 1908.3,-112.309 1911.5,-112 2292.09,-75.1825 2395.86,-135.57 2777.98,-75.6294"/>
<polygon fill="midnightblue" stroke="midnightblue" points="2778.59,-79.0759 2787.92,-74.0527 2777.49,-72.1623 2778.59,-79.0759"/>
</g>
<!-- Node27 -->
<g id="node27" class="node"><title>Node27</title>
<polygon fill="none" stroke="#bfbfbf" points="701.5,-56.5 701.5,-75.5 753.5,-75.5 753.5,-56.5 701.5,-56.5"/>
<text text-anchor="middle" x="727.5" y="-63.5" font-family="Helvetica,sans-Serif" font-size="10.00">sstream</text>
</g>
<!-- Node7&#45;&gt;Node27 -->
<g id="edge27" class="edge"><title>Node7&#45;&gt;Node27</title>
<path fill="none" stroke="midnightblue" d="M1803.32,-120.344C1621.55,-117.709 987.159,-106.595 763.758,-75.8155"/>
<polygon fill="midnightblue" stroke="midnightblue" points="764.147,-72.3356 753.752,-74.3823 763.155,-79.2649 764.147,-72.3356"/>
</g>
<!-- Node28 -->
<g id="node28" class="node"><title>Node28</title>
<polygon fill="none" stroke="#bfbfbf" points="771.5,-56.5 771.5,-75.5 839.5,-75.5 839.5,-56.5 771.5,-56.5"/>
<text text-anchor="middle" x="805.5" y="-63.5" font-family="Helvetica,sans-Serif" font-size="10.00">sys/types.h</text>
</g>
<!-- Node7&#45;&gt;Node28 -->
<g id="edge28" class="edge"><title>Node7&#45;&gt;Node28</title>
<path fill="none" stroke="midnightblue" d="M1803.42,-121.597C1658.7,-122.765 1221.11,-122.035 849.82,-75.9461"/>
<polygon fill="midnightblue" stroke="midnightblue" points="850.041,-72.4465 839.683,-74.6744 849.17,-79.392 850.041,-72.4465"/>
</g>
<!-- Node29 -->
<g id="node29" class="node"><title>Node29</title>
<polygon fill="none" stroke="#bfbfbf" points="857.5,-56.5 857.5,-75.5 917.5,-75.5 917.5,-56.5 857.5,-56.5"/>
<text text-anchor="middle" x="887.5" y="-63.5" font-family="Helvetica,sans-Serif" font-size="10.00">sys/stat.h</text>
</g>
<!-- Node7&#45;&gt;Node29 -->
<g id="edge29" class="edge"><title>Node7&#45;&gt;Node29</title>
<path fill="none" stroke="midnightblue" d="M1803.02,-121.684C1665.46,-122.929 1266.8,-122.074 927.651,-75.8926"/>
<polygon fill="midnightblue" stroke="midnightblue" points="928.019,-72.4103 917.635,-74.5131 927.064,-79.3449 928.019,-72.4103"/>
</g>
<!-- Node30 -->
<g id="node30" class="node"><title>Node30</title>
<polygon fill="none" stroke="#bfbfbf" points="936,-56.5 936,-75.5 987,-75.5 987,-56.5 936,-56.5"/>
<text text-anchor="middle" x="961.5" y="-63.5" font-family="Helvetica,sans-Serif" font-size="10.00">unistd.h</text>
</g>
<!-- Node7&#45;&gt;Node30 -->
<g id="edge30" class="edge"><title>Node7&#45;&gt;Node30</title>
<path fill="none" stroke="midnightblue" d="M1803.37,-119.704C1648.81,-115.43 1172.89,-100.704 997.494,-75.7681"/>
<polygon fill="midnightblue" stroke="midnightblue" points="997.78,-72.2723 987.375,-74.2657 996.752,-79.1964 997.78,-72.2723"/>
</g>
<!-- Node31 -->
<g id="node31" class="node"><title>Node31</title>
<polygon fill="none" stroke="#bfbfbf" points="1005.5,-56.5 1005.5,-75.5 1051.5,-75.5 1051.5,-56.5 1005.5,-56.5"/>
<text text-anchor="middle" x="1028.5" y="-63.5" font-family="Helvetica,sans-Serif" font-size="10.00">dlfcn.h</text>
</g>
<!-- Node7&#45;&gt;Node31 -->
<g id="edge31" class="edge"><title>Node7&#45;&gt;Node31</title>
<path fill="none" stroke="midnightblue" d="M1803.38,-119.608C1656.89,-115.24 1223.74,-100.702 1062.04,-75.8339"/>
<polygon fill="midnightblue" stroke="midnightblue" points="1062.22,-72.3174 1051.79,-74.1809 1061.1,-79.2281 1062.22,-72.3174"/>
</g>
<!-- Node32 -->
<g id="node32" class="node"><title>Node32</title>
<polygon fill="none" stroke="#bfbfbf" points="1069.5,-56.5 1069.5,-75.5 1147.5,-75.5 1147.5,-56.5 1069.5,-56.5"/>
<text text-anchor="middle" x="1108.5" y="-63.5" font-family="Helvetica,sans-Serif" font-size="10.00">ext/hash_map</text>
</g>
<!-- Node7&#45;&gt;Node32 -->
<g id="edge32" class="edge"><title>Node7&#45;&gt;Node32</title>
<path fill="none" stroke="midnightblue" d="M1803.37,-119.862C1690.89,-116.817 1405.92,-106.617 1158.02,-76.0387"/>
<polygon fill="midnightblue" stroke="midnightblue" points="1158.09,-72.5204 1147.73,-74.7554 1157.22,-79.4665 1158.09,-72.5204"/>
</g>
<!-- Node33 -->
<g id="node33" class="node"><title>Node33</title>
<polygon fill="none" stroke="#bfbfbf" points="1166,-56.5 1166,-75.5 1239,-75.5 1239,-56.5 1166,-56.5"/>
<text text-anchor="middle" x="1202.5" y="-63.5" font-family="Helvetica,sans-Serif" font-size="10.00">ext/hash_set</text>
</g>
<!-- Node7&#45;&gt;Node33 -->
<g id="edge33" class="edge"><title>Node7&#45;&gt;Node33</title>
<path fill="none" stroke="midnightblue" d="M1803.27,-119.393C1701.51,-115.628 1460.5,-104.417 1249.31,-76.0998"/>
<polygon fill="midnightblue" stroke="midnightblue" points="1249.65,-72.6148 1239.27,-74.7384 1248.71,-79.5512 1249.65,-72.6148"/>
</g>
<!-- Node34 -->
<g id="node34" class="node"><title>Node34</title>
<polygon fill="none" stroke="#bfbfbf" points="1257,-56.5 1257,-75.5 1328,-75.5 1328,-56.5 1257,-56.5"/>
<text text-anchor="middle" x="1292.5" y="-63.5" font-family="Helvetica,sans-Serif" font-size="10.00">sys/param.h</text>
</g>
<!-- Node7&#45;&gt;Node34 -->
<g id="edge34" class="edge"><title>Node7&#45;&gt;Node34</title>
<path fill="none" stroke="midnightblue" d="M1803.3,-118.511C1713.12,-113.555 1515.16,-100.854 1338.31,-75.9553"/>
<polygon fill="midnightblue" stroke="midnightblue" points="1338.69,-72.4751 1328.3,-74.53 1337.71,-79.4052 1338.69,-72.4751"/>
</g>
<!-- Node35 -->
<g id="node35" class="node"><title>Node35</title>
<polygon fill="none" stroke="#bfbfbf" points="1346.5,-56.5 1346.5,-75.5 1512.5,-75.5 1512.5,-56.5 1346.5,-56.5"/>
<text text-anchor="middle" x="1429.5" y="-63.5" font-family="Helvetica,sans-Serif" font-size="10.00">CoreFoundation/CoreFoundation.h</text>
</g>
<!-- Node7&#45;&gt;Node35 -->
<g id="edge35" class="edge"><title>Node7&#45;&gt;Node35</title>
<path fill="none" stroke="midnightblue" d="M1803.15,-114.7C1730.09,-105.373 1592.52,-87.8115 1506.24,-76.7965"/>
<polygon fill="midnightblue" stroke="midnightblue" points="1506.6,-73.3144 1496.24,-75.5198 1505.71,-80.258 1506.6,-73.3144"/>
</g>
<!-- Node36 -->
<g id="node36" class="node"><title>Node36</title>
<polygon fill="none" stroke="#bfbfbf" points="1530.5,-56.5 1530.5,-75.5 1654.5,-75.5 1654.5,-56.5 1530.5,-56.5"/>
<text text-anchor="middle" x="1592.5" y="-63.5" font-family="Helvetica,sans-Serif" font-size="10.00">emscripten/emscripten.h</text>
</g>
<!-- Node7&#45;&gt;Node36 -->
<g id="edge36" class="edge"><title>Node7&#45;&gt;Node36</title>
<path fill="none" stroke="midnightblue" d="M1811.3,-112.444C1765.85,-103.004 1692.66,-87.802 1643.59,-77.6111"/>
<polygon fill="midnightblue" stroke="midnightblue" points="1644.01,-74.1232 1633.51,-75.5164 1642.58,-80.9769 1644.01,-74.1232"/>
</g>
<!-- Node38 -->
<g id="node38" class="node"><title>Node38</title>
<g id="a_node38"><a xlink:href="_ogre_memory_allocated_object_8h.html" target="_top" xlink:title="OgreMemoryAllocatedObject.h">
<polygon fill="none" stroke="black" points="381.5,-56.5 381.5,-75.5 531.5,-75.5 531.5,-56.5 381.5,-56.5"/>
<text text-anchor="middle" x="456.5" y="-63.5" font-family="Helvetica,sans-Serif" font-size="10.00">OgreMemoryAllocatedObject.h</text>
</a>
</g>
</g>
<!-- Node37&#45;&gt;Node38 -->
<g id="edge38" class="edge"><title>Node37&#45;&gt;Node38</title>
<path fill="none" stroke="midnightblue" d="M331.109,-112.444C355.958,-103.438 395.274,-89.1891 423.254,-79.049"/>
<polygon fill="midnightblue" stroke="midnightblue" points="424.792,-82.2144 433.001,-75.5164 422.407,-75.6332 424.792,-82.2144"/>
</g>
<!-- Node39 -->
<g id="node39" class="node"><title>Node39</title>
<g id="a_node39"><a xlink:href="_ogre_header_prefix_8h.html" target="_top" xlink:title="OgreHeaderPrefix.h">
<polygon fill="none" stroke="black" points="269,-0.5 269,-19.5 372,-19.5 372,-0.5 269,-0.5"/>
<text text-anchor="middle" x="320.5" y="-7.5" font-family="Helvetica,sans-Serif" font-size="10.00">OgreHeaderPrefix.h</text>
</a>
</g>
</g>
<!-- Node37&#45;&gt;Node39 -->
<g id="edge42" class="edge"><title>Node37&#45;&gt;Node39</title>
<path fill="none" stroke="midnightblue" d="M314.39,-112.319C320.769,-103.684 329.808,-89.7696 333.5,-76 337.686,-60.3878 333.366,-42.341 328.613,-29.2305"/>
<polygon fill="midnightblue" stroke="midnightblue" points="331.844,-27.8846 324.863,-19.9152 325.35,-30.4988 331.844,-27.8846"/>
</g>
<!-- Node40 -->
<g id="node40" class="node"><title>Node40</title>
<g id="a_node40"><a xlink:href="_ogre_header_suffix_8h.html" target="_top" xlink:title="OgreHeaderSuffix.h">
<polygon fill="none" stroke="black" points="131,-0.5 131,-19.5 234,-19.5 234,-0.5 131,-0.5"/>
<text text-anchor="middle" x="182.5" y="-7.5" font-family="Helvetica,sans-Serif" font-size="10.00">OgreHeaderSuffix.h</text>
</a>
</g>
</g>
<!-- Node37&#45;&gt;Node40 -->
<g id="edge50" class="edge"><title>Node37&#45;&gt;Node40</title>
<path fill="none" stroke="midnightblue" d="M243.226,-112.431C221.02,-106.087 198.278,-95.0797 184.5,-76 174.904,-62.7109 175.549,-43.5883 177.906,-29.5234"/>
<polygon fill="midnightblue" stroke="midnightblue" points="181.373,-30.0415 180,-19.536 174.522,-28.605 181.373,-30.0415"/>
</g>
<!-- Node41 -->
<g id="node41" class="node"><title>Node41</title>
<g id="a_node41"><a xlink:href="_ogre_memory_s_t_l_allocator_8h.html" target="_top" xlink:title="OgreMemorySTLAllocator.h">
<polygon fill="none" stroke="black" points="0,-56.5 0,-75.5 137,-75.5 137,-56.5 0,-56.5"/>
<text text-anchor="middle" x="68.5" y="-63.5" font-family="Helvetica,sans-Serif" font-size="10.00">OgreMemorySTLAllocator.h</text>
</a>
</g>
</g>
<!-- Node37&#45;&gt;Node41 -->
<g id="edge43" class="edge"><title>Node37&#45;&gt;Node41</title>
<path fill="none" stroke="midnightblue" d="M269.63,-112.444C228.024,-103.043 161.131,-87.9291 116.031,-77.7393"/>
<polygon fill="midnightblue" stroke="midnightblue" points="116.719,-74.3064 106.193,-75.5164 115.176,-81.1343 116.719,-74.3064"/>
</g>
<!-- Node42 -->
<g id="node42" class="node"><title>Node42</title>
<g id="a_node42"><a xlink:href="_ogre_memory_ned_pooling_8h.html" target="_top" xlink:title="OgreMemoryNedPooling.h">
<polygon fill="none" stroke="black" points="194,-56.5 194,-75.5 325,-75.5 325,-56.5 194,-56.5"/>
<text text-anchor="middle" x="259.5" y="-63.5" font-family="Helvetica,sans-Serif" font-size="10.00">OgreMemoryNedPooling.h</text>
</a>
</g>
</g>
<!-- Node37&#45;&gt;Node42 -->
<g id="edge47" class="edge"><title>Node37&#45;&gt;Node42</title>
<path fill="none" stroke="midnightblue" d="M299.574,-112.083C292.654,-104.298 282.435,-92.8015 274.048,-83.3665"/>
<polygon fill="midnightblue" stroke="midnightblue" points="276.538,-80.8999 267.279,-75.7511 271.306,-85.5505 276.538,-80.8999"/>
</g>
<!-- Node38&#45;&gt;Node2 -->
<g id="edge39" class="edge"><title>Node38&#45;&gt;Node2</title>
<path fill="none" stroke="midnightblue" d="M466.653,-75.5914C488.633,-94.1898 540.867,-138.387 568.555,-161.816"/>
<polygon fill="midnightblue" stroke="midnightblue" points="566.404,-164.581 576.299,-168.368 570.926,-159.237 566.404,-164.581"/>
</g>
<!-- Node38&#45;&gt;Node39 -->
<g id="edge40" class="edge"><title>Node38&#45;&gt;Node39</title>
<path fill="none" stroke="midnightblue" d="M434.95,-56.4435C412.469,-47.5171 377.012,-33.4387 351.52,-23.3168"/>
<polygon fill="midnightblue" stroke="midnightblue" points="352.535,-19.9539 341.949,-19.5164 349.951,-26.4598 352.535,-19.9539"/>
</g>
<!-- Node38&#45;&gt;Node40 -->
<g id="edge41" class="edge"><title>Node38&#45;&gt;Node40</title>
<path fill="none" stroke="midnightblue" d="M413.084,-56.4435C364.985,-46.9641 287.405,-31.6747 235.694,-21.4835"/>
<polygon fill="midnightblue" stroke="midnightblue" points="236.201,-18.0162 225.713,-19.5164 234.847,-24.8841 236.201,-18.0162"/>
</g>
<!-- Node41&#45;&gt;Node2 -->
<g id="edge44" class="edge"><title>Node41&#45;&gt;Node2</title>
<path fill="none" stroke="midnightblue" d="M84.8316,-75.5555C112.673,-89.7354 171.467,-117.936 224.5,-132 327.48,-159.31 451.437,-170.16 524.333,-174.389"/>
<polygon fill="midnightblue" stroke="midnightblue" points="524.53,-177.905 534.709,-174.966 524.919,-170.916 524.53,-177.905"/>
</g>
<!-- Node41&#45;&gt;Node39 -->
<g id="edge45" class="edge"><title>Node41&#45;&gt;Node39</title>
<path fill="none" stroke="midnightblue" d="M108.43,-56.4435C152.391,-47.0234 223.127,-31.8656 270.683,-21.6752"/>
<polygon fill="midnightblue" stroke="midnightblue" points="271.712,-25.0341 280.757,-19.5164 270.245,-18.1895 271.712,-25.0341"/>
</g>
<!-- Node41&#45;&gt;Node40 -->
<g id="edge46" class="edge"><title>Node41&#45;&gt;Node40</title>
<path fill="none" stroke="midnightblue" d="M86.5636,-56.4435C105.075,-47.6751 134.081,-33.9355 155.355,-23.8579"/>
<polygon fill="midnightblue" stroke="midnightblue" points="156.982,-26.9604 164.521,-19.5164 153.985,-20.6343 156.982,-26.9604"/>
</g>
<!-- Node42&#45;&gt;Node39 -->
<g id="edge48" class="edge"><title>Node42&#45;&gt;Node39</title>
<path fill="none" stroke="midnightblue" d="M269.301,-56.324C278.318,-48.3414 291.906,-36.3128 302.818,-26.6529"/>
<polygon fill="midnightblue" stroke="midnightblue" points="305.353,-29.083 310.521,-19.8339 300.713,-23.8416 305.353,-29.083"/>
</g>
<!-- Node42&#45;&gt;Node40 -->
<g id="edge49" class="edge"><title>Node42&#45;&gt;Node40</title>
<path fill="none" stroke="midnightblue" d="M247.129,-56.324C235.342,-48.0577 217.368,-35.4527 203.364,-25.6322"/>
<polygon fill="midnightblue" stroke="midnightblue" points="205.038,-22.5307 194.841,-19.6545 201.018,-28.2619 205.038,-22.5307"/>
</g>
<!-- Node45 -->
<g id="node45" class="node"><title>Node45</title>
<polygon fill="none" stroke="#bfbfbf" points="1920,-112.5 1920,-131.5 2019,-131.5 2019,-112.5 1920,-112.5"/>
<text text-anchor="middle" x="1969.5" y="-119.5" font-family="Helvetica,sans-Serif" font-size="10.00">OgreEGLSupport.h</text>
</g>
<!-- Node44&#45;&gt;Node45 -->
<g id="edge53" class="edge"><title>Node44&#45;&gt;Node45</title>
<path fill="none" stroke="midnightblue" d="M1718.72,-168.444C1771.25,-158.925 1856.11,-143.547 1912.35,-133.356"/>
<polygon fill="midnightblue" stroke="midnightblue" points="1913.29,-136.743 1922.5,-131.516 1912.04,-129.856 1913.29,-136.743"/>
</g>
</g>
</svg>
