<?xml version="1.0" encoding="UTF-8" standalone="no"?>
<!DOCTYPE svg PUBLIC "-//W3C//DTD SVG 1.1//EN"
 "http://www.w3.org/Graphics/SVG/1.1/DTD/svg11.dtd">
<!-- Generated by graphviz version 2.38.0 (20140413.2041)
 -->
<!-- Title: OgreEGLSupport.h Pages: 1 -->
<svg width="744pt" height="420pt"
 viewBox="0.00 0.00 743.50 420.00" xmlns="http://www.w3.org/2000/svg" xmlns:xlink="http://www.w3.org/1999/xlink">
<g id="graph0" class="graph" transform="scale(1 1) rotate(0) translate(4 416)">
<title>OgreEGLSupport.h</title>
<!-- Node1 -->
<g id="node1" class="node"><title>Node1</title>
<polygon fill="#bfbfbf" stroke="black" points="488,-392.5 488,-411.5 587,-411.5 587,-392.5 488,-392.5"/>
<text text-anchor="middle" x="537.5" y="-399.5" font-family="Helvetica,sans-Serif" font-size="10.00">OgreEGLSupport.h</text>
</g>
<!-- Node2 -->
<g id="node2" class="node"><title>Node2</title>
<g id="a_node2"><a xlink:href="_ogre_g_l_native_support_8h.html" target="_top" xlink:title="OgreGLNativeSupport.h">
<polygon fill="none" stroke="black" points="315,-336.5 315,-355.5 436,-355.5 436,-336.5 315,-336.5"/>
<text text-anchor="middle" x="375.5" y="-343.5" font-family="Helvetica,sans-Serif" font-size="10.00">OgreGLNativeSupport.h</text>
</a>
</g>
</g>
<!-- Node1&#45;&gt;Node2 -->
<g id="edge1" class="edge"><title>Node1&#45;&gt;Node2</title>
<path fill="none" stroke="midnightblue" d="M511.831,-392.444C484.577,-383.359 441.316,-368.939 410.849,-358.783"/>
<polygon fill="midnightblue" stroke="midnightblue" points="411.643,-355.358 401.049,-355.516 409.429,-361.999 411.643,-355.358"/>
</g>
<!-- Node17 -->
<g id="node17" class="node"><title>Node17</title>
<polygon fill="none" stroke="#bfbfbf" points="675.5,-224.5 675.5,-243.5 735.5,-243.5 735.5,-224.5 675.5,-224.5"/>
<text text-anchor="middle" x="705.5" y="-231.5" font-family="Helvetica,sans-Serif" font-size="10.00">EGL/egl.h</text>
</g>
<!-- Node1&#45;&gt;Node17 -->
<g id="edge28" class="edge"><title>Node1&#45;&gt;Node17</title>
<path fill="none" stroke="midnightblue" d="M558.456,-392.438C590.815,-378.144 652.727,-346.346 686.5,-300 696.345,-286.49 701.115,-267.935 703.411,-254.108"/>
<polygon fill="midnightblue" stroke="midnightblue" points="706.93,-254.2 704.814,-243.819 699.995,-253.254 706.93,-254.2"/>
</g>
<!-- Node18 -->
<g id="node18" class="node"><title>Node18</title>
<g id="a_node18"><a xlink:href="_g_l_support_2include_2_e_g_l_2_ogre_e_g_l_window_8h.html" target="_top" xlink:title="OgreEGLWindow.h">
<polygon fill="none" stroke="black" points="487,-336.5 487,-355.5 588,-355.5 588,-336.5 487,-336.5"/>
<text text-anchor="middle" x="537.5" y="-343.5" font-family="Helvetica,sans-Serif" font-size="10.00">OgreEGLWindow.h</text>
</a>
</g>
</g>
<!-- Node1&#45;&gt;Node18 -->
<g id="edge29" class="edge"><title>Node1&#45;&gt;Node18</title>
<path fill="none" stroke="midnightblue" d="M532.334,-392.083C530.824,-384.927 530.394,-374.635 531.042,-365.691"/>
<polygon fill="midnightblue" stroke="midnightblue" points="534.515,-366.126 532.369,-355.751 527.577,-365.2 534.515,-366.126"/>
</g>
<!-- Node3 -->
<g id="node3" class="node"><title>Node3</title>
<g id="a_node3"><a xlink:href="_ogre_g_l_support_prerequisites_8h.html" target="_top" xlink:title="OgreGLSupportPrerequisites.h">
<polygon fill="none" stroke="black" points="273,-168.5 273,-187.5 422,-187.5 422,-168.5 273,-168.5"/>
<text text-anchor="middle" x="347.5" y="-175.5" font-family="Helvetica,sans-Serif" font-size="10.00">OgreGLSupportPrerequisites.h</text>
</a>
</g>
</g>
<!-- Node2&#45;&gt;Node3 -->
<g id="edge2" class="edge"><title>Node2&#45;&gt;Node3</title>
<path fill="none" stroke="midnightblue" d="M368.637,-336.489C355.757,-319.904 328.374,-281.584 318.5,-244 316.241,-235.403 315.99,-232.527 318.5,-224 321.512,-213.765 327.655,-203.66 333.514,-195.627"/>
<polygon fill="midnightblue" stroke="midnightblue" points="336.432,-197.577 339.827,-187.541 330.914,-193.269 336.432,-197.577"/>
</g>
<!-- Node11 -->
<g id="node11" class="node"><title>Node11</title>
<g id="a_node11"><a xlink:href="_ogre_config_option_map_8h.html" target="_top" xlink:title="OgreConfigOptionMap.h">
<polygon fill="none" stroke="black" points="149.5,-280.5 149.5,-299.5 271.5,-299.5 271.5,-280.5 149.5,-280.5"/>
<text text-anchor="middle" x="210.5" y="-287.5" font-family="Helvetica,sans-Serif" font-size="10.00">OgreConfigOptionMap.h</text>
</a>
</g>
</g>
<!-- Node2&#45;&gt;Node11 -->
<g id="edge11" class="edge"><title>Node2&#45;&gt;Node11</title>
<path fill="none" stroke="midnightblue" d="M349.355,-336.444C321.477,-327.32 277.152,-312.813 246.1,-302.651"/>
<polygon fill="midnightblue" stroke="midnightblue" points="247.115,-299.3 236.522,-299.516 244.938,-305.953 247.115,-299.3"/>
</g>
<!-- Node15 -->
<g id="node15" class="node"><title>Node15</title>
<g id="a_node15"><a xlink:href="_ogre_pixel_format_8h.html" target="_top" xlink:title="OgrePixelFormat.h">
<polygon fill="none" stroke="black" points="515.5,-168.5 515.5,-187.5 613.5,-187.5 613.5,-168.5 515.5,-168.5"/>
<text text-anchor="middle" x="564.5" y="-175.5" font-family="Helvetica,sans-Serif" font-size="10.00">OgrePixelFormat.h</text>
</a>
</g>
</g>
<!-- Node2&#45;&gt;Node15 -->
<g id="edge21" class="edge"><title>Node2&#45;&gt;Node15</title>
<path fill="none" stroke="midnightblue" d="M383.01,-336.196C394.157,-323.319 415.978,-298.836 436.5,-280 472.504,-246.954 518.162,-212.545 544.077,-193.64"/>
<polygon fill="midnightblue" stroke="midnightblue" points="546.329,-196.33 552.372,-187.628 542.221,-190.663 546.329,-196.33"/>
</g>
<!-- Node4 -->
<g id="node4" class="node"><title>Node4</title>
<g id="a_node4"><a xlink:href="_ogre_prerequisites_8h.html" target="_top" xlink:title="OgrePrerequisites.h">
<polygon fill="none" stroke="black" points="233,-112.5 233,-131.5 336,-131.5 336,-112.5 233,-112.5"/>
<text text-anchor="middle" x="284.5" y="-119.5" font-family="Helvetica,sans-Serif" font-size="10.00">OgrePrerequisites.h</text>
</a>
</g>
</g>
<!-- Node3&#45;&gt;Node4 -->
<g id="edge3" class="edge"><title>Node3&#45;&gt;Node4</title>
<path fill="none" stroke="midnightblue" d="M337.378,-168.324C327.974,-160.263 313.756,-148.077 302.431,-138.369"/>
<polygon fill="midnightblue" stroke="midnightblue" points="304.677,-135.684 294.806,-131.834 300.121,-140.999 304.677,-135.684"/>
</g>
<!-- Node5 -->
<g id="node5" class="node"><title>Node5</title>
<g id="a_node5"><a xlink:href="_ogre_platform_8h.html" target="_top" xlink:title="OgrePlatform.h">
<polygon fill="none" stroke="red" points="262,-56.5 262,-75.5 345,-75.5 345,-56.5 262,-56.5"/>
<text text-anchor="middle" x="303.5" y="-63.5" font-family="Helvetica,sans-Serif" font-size="10.00">OgrePlatform.h</text>
</a>
</g>
</g>
<!-- Node4&#45;&gt;Node5 -->
<g id="edge4" class="edge"><title>Node4&#45;&gt;Node5</title>
<path fill="none" stroke="midnightblue" d="M287.637,-112.083C290.183,-104.849 293.856,-94.4087 297.027,-85.3968"/>
<polygon fill="midnightblue" stroke="midnightblue" points="300.403,-86.3459 300.421,-75.7511 293.8,-84.0225 300.403,-86.3459"/>
</g>
<!-- Node6 -->
<g id="node6" class="node"><title>Node6</title>
<polygon fill="none" stroke="#bfbfbf" points="137,-0.5 137,-19.5 178,-19.5 178,-0.5 137,-0.5"/>
<text text-anchor="middle" x="157.5" y="-7.5" font-family="Helvetica,sans-Serif" font-size="10.00">string</text>
</g>
<!-- Node4&#45;&gt;Node6 -->
<g id="edge5" class="edge"><title>Node4&#45;&gt;Node6</title>
<path fill="none" stroke="midnightblue" d="M274.535,-112.368C253.112,-93.8137 202.427,-49.9129 175.323,-26.4376"/>
<polygon fill="midnightblue" stroke="midnightblue" points="177.27,-23.4929 167.419,-19.5914 172.687,-28.7841 177.27,-23.4929"/>
</g>
<!-- Node7 -->
<g id="node7" class="node"><title>Node7</title>
<g id="a_node7"><a xlink:href="_ogre_std_headers_8h.html" target="_top" xlink:title="OgreStdHeaders.h">
<polygon fill="none" stroke="red" points="31.5,-56.5 31.5,-75.5 129.5,-75.5 129.5,-56.5 31.5,-56.5"/>
<text text-anchor="middle" x="80.5" y="-63.5" font-family="Helvetica,sans-Serif" font-size="10.00">OgreStdHeaders.h</text>
</a>
</g>
</g>
<!-- Node4&#45;&gt;Node7 -->
<g id="edge6" class="edge"><title>Node4&#45;&gt;Node7</title>
<path fill="none" stroke="midnightblue" d="M252.176,-112.444C217.111,-103.162 161.002,-88.3093 122.535,-78.127"/>
<polygon fill="midnightblue" stroke="midnightblue" points="123.236,-74.692 112.673,-75.5164 121.445,-81.4589 123.236,-74.692"/>
</g>
<!-- Node8 -->
<g id="node8" class="node"><title>Node8</title>
<g id="a_node8"><a xlink:href="_ogre_memory_allocator_config_8h.html" target="_top" xlink:title="This file configures Ogre&#39;s memory allocators. ">
<polygon fill="none" stroke="red" points="439.5,-56.5 439.5,-75.5 587.5,-75.5 587.5,-56.5 439.5,-56.5"/>
<text text-anchor="middle" x="513.5" y="-63.5" font-family="Helvetica,sans-Serif" font-size="10.00">OgreMemoryAllocatorConfig.h</text>
</a>
</g>
</g>
<!-- Node4&#45;&gt;Node8 -->
<g id="edge8" class="edge"><title>Node4&#45;&gt;Node8</title>
<path fill="none" stroke="midnightblue" d="M320.786,-112.444C360.483,-103.083 424.207,-88.0561 467.412,-77.868"/>
<polygon fill="midnightblue" stroke="midnightblue" points="468.454,-81.2182 477.384,-75.5164 466.848,-74.4051 468.454,-81.2182"/>
</g>
<!-- Node7&#45;&gt;Node6 -->
<g id="edge7" class="edge"><title>Node7&#45;&gt;Node6</title>
<path fill="none" stroke="midnightblue" d="M92.8714,-56.324C104.658,-48.0577 122.632,-35.4527 136.636,-25.6322"/>
<polygon fill="midnightblue" stroke="midnightblue" points="138.982,-28.2619 145.159,-19.6545 134.962,-22.5307 138.982,-28.2619"/>
</g>
<!-- Node9 -->
<g id="node9" class="node"><title>Node9</title>
<g id="a_node9"><a xlink:href="_ogre_header_prefix_8h.html" target="_top" xlink:title="OgreHeaderPrefix.h">
<polygon fill="none" stroke="black" points="360,-0.5 360,-19.5 463,-19.5 463,-0.5 360,-0.5"/>
<text text-anchor="middle" x="411.5" y="-7.5" font-family="Helvetica,sans-Serif" font-size="10.00">OgreHeaderPrefix.h</text>
</a>
</g>
</g>
<!-- Node8&#45;&gt;Node9 -->
<g id="edge9" class="edge"><title>Node8&#45;&gt;Node9</title>
<path fill="none" stroke="midnightblue" d="M497.112,-56.324C480.829,-47.7034 455.633,-34.3643 436.784,-24.3855"/>
<polygon fill="midnightblue" stroke="midnightblue" points="438.323,-21.2402 427.847,-19.6545 435.048,-27.4267 438.323,-21.2402"/>
</g>
<!-- Node10 -->
<g id="node10" class="node"><title>Node10</title>
<g id="a_node10"><a xlink:href="_ogre_header_suffix_8h.html" target="_top" xlink:title="OgreHeaderSuffix.h">
<polygon fill="none" stroke="black" points="597,-0.5 597,-19.5 700,-19.5 700,-0.5 597,-0.5"/>
<text text-anchor="middle" x="648.5" y="-7.5" font-family="Helvetica,sans-Serif" font-size="10.00">OgreHeaderSuffix.h</text>
</a>
</g>
</g>
<!-- Node8&#45;&gt;Node10 -->
<g id="edge10" class="edge"><title>Node8&#45;&gt;Node10</title>
<path fill="none" stroke="midnightblue" d="M534.891,-56.4435C557.207,-47.5171 592.403,-33.4387 617.708,-23.3168"/>
<polygon fill="midnightblue" stroke="midnightblue" points="619.224,-26.4801 627.209,-19.5164 616.624,-19.9807 619.224,-26.4801"/>
</g>
<!-- Node11&#45;&gt;Node4 -->
<g id="edge12" class="edge"><title>Node11&#45;&gt;Node4</title>
<path fill="none" stroke="midnightblue" d="M214.158,-280.461C222.665,-260.64 244.504,-210.001 263.5,-168 267.592,-158.953 272.252,-148.938 276.142,-140.658"/>
<polygon fill="midnightblue" stroke="midnightblue" points="279.314,-142.136 280.413,-131.599 272.982,-139.151 279.314,-142.136"/>
</g>
<!-- Node12 -->
<g id="node12" class="node"><title>Node12</title>
<g id="a_node12"><a xlink:href="_ogre_string_vector_8h.html" target="_top" xlink:title="OgreStringVector.h">
<polygon fill="none" stroke="black" points="83.5,-224.5 83.5,-243.5 183.5,-243.5 183.5,-224.5 83.5,-224.5"/>
<text text-anchor="middle" x="133.5" y="-231.5" font-family="Helvetica,sans-Serif" font-size="10.00">OgreStringVector.h</text>
</a>
</g>
</g>
<!-- Node11&#45;&gt;Node12 -->
<g id="edge13" class="edge"><title>Node11&#45;&gt;Node12</title>
<path fill="none" stroke="midnightblue" d="M198.129,-280.324C186.342,-272.058 168.368,-259.453 154.364,-249.632"/>
<polygon fill="midnightblue" stroke="midnightblue" points="156.038,-246.531 145.841,-243.655 152.018,-252.262 156.038,-246.531"/>
</g>
<!-- Node12&#45;&gt;Node4 -->
<g id="edge14" class="edge"><title>Node12&#45;&gt;Node4</title>
<path fill="none" stroke="midnightblue" d="M127.535,-224.484C118.966,-211.099 105.552,-184.925 118.5,-168 131.364,-151.185 180.913,-139.191 222.557,-131.836"/>
<polygon fill="midnightblue" stroke="midnightblue" points="223.402,-135.242 232.671,-130.111 222.225,-128.342 223.402,-135.242"/>
</g>
<!-- Node13 -->
<g id="node13" class="node"><title>Node13</title>
<g id="a_node13"><a xlink:href="_ogre_shared_ptr_8h.html" target="_top" xlink:title="OgreSharedPtr.h">
<polygon fill="none" stroke="red" points="128,-168.5 128,-187.5 217,-187.5 217,-168.5 128,-168.5"/>
<text text-anchor="middle" x="172.5" y="-175.5" font-family="Helvetica,sans-Serif" font-size="10.00">OgreSharedPtr.h</text>
</a>
</g>
</g>
<!-- Node12&#45;&gt;Node13 -->
<g id="edge15" class="edge"><title>Node12&#45;&gt;Node13</title>
<path fill="none" stroke="midnightblue" d="M139.94,-224.083C145.449,-216.455 153.531,-205.264 160.265,-195.941"/>
<polygon fill="midnightblue" stroke="midnightblue" points="163.162,-197.907 166.18,-187.751 157.487,-193.809 163.162,-197.907"/>
</g>
<!-- Node14 -->
<g id="node14" class="node"><title>Node14</title>
<g id="a_node14"><a xlink:href="_ogre_string_8h.html" target="_top" xlink:title="OgreString.h">
<polygon fill="none" stroke="black" points="0,-168.5 0,-187.5 71,-187.5 71,-168.5 0,-168.5"/>
<text text-anchor="middle" x="35.5" y="-175.5" font-family="Helvetica,sans-Serif" font-size="10.00">OgreString.h</text>
</a>
</g>
</g>
<!-- Node12&#45;&gt;Node14 -->
<g id="edge17" class="edge"><title>Node12&#45;&gt;Node14</title>
<path fill="none" stroke="midnightblue" d="M117.755,-224.324C102.181,-215.743 78.1227,-202.486 60.0407,-192.522"/>
<polygon fill="midnightblue" stroke="midnightblue" points="61.6539,-189.415 51.2063,-187.655 58.2756,-195.546 61.6539,-189.415"/>
</g>
<!-- Node13&#45;&gt;Node4 -->
<g id="edge16" class="edge"><title>Node13&#45;&gt;Node4</title>
<path fill="none" stroke="midnightblue" d="M190.495,-168.324C208.538,-159.625 236.547,-146.12 257.303,-136.113"/>
<polygon fill="midnightblue" stroke="midnightblue" points="259.062,-139.15 266.55,-131.655 256.022,-132.845 259.062,-139.15"/>
</g>
<!-- Node14&#45;&gt;Node4 -->
<g id="edge18" class="edge"><title>Node14&#45;&gt;Node4</title>
<path fill="none" stroke="midnightblue" d="M71.1756,-169.263C114.237,-159.924 186.88,-144.171 235.258,-133.679"/>
<polygon fill="midnightblue" stroke="midnightblue" points="236.162,-137.064 245.193,-131.524 234.679,-130.223 236.162,-137.064"/>
</g>
<!-- Node14&#45;&gt;Node9 -->
<g id="edge19" class="edge"><title>Node14&#45;&gt;Node9</title>
<path fill="none" stroke="midnightblue" d="M43.0197,-168.28C63.0238,-145.697 120.219,-85.0467 181.5,-56 234.935,-30.6723 301.828,-19.5989 349.676,-14.7582"/>
<polygon fill="midnightblue" stroke="midnightblue" points="350.263,-18.2183 359.888,-13.7901 349.602,-11.2495 350.263,-18.2183"/>
</g>
<!-- Node14&#45;&gt;Node10 -->
<g id="edge20" class="edge"><title>Node14&#45;&gt;Node10</title>
<path fill="none" stroke="midnightblue" d="M49.2419,-168.389C89.8524,-143.094 209.175,-69.9216 252.5,-56 313.12,-36.5213 491.25,-21.7917 586.597,-15.0503"/>
<polygon fill="midnightblue" stroke="midnightblue" points="586.949,-18.5344 596.681,-14.3454 586.461,-11.5514 586.949,-18.5344"/>
</g>
<!-- Node15&#45;&gt;Node4 -->
<g id="edge22" class="edge"><title>Node15&#45;&gt;Node4</title>
<path fill="none" stroke="midnightblue" d="M520.133,-168.444C470.878,-158.944 391.372,-143.611 338.529,-133.42"/>
<polygon fill="midnightblue" stroke="midnightblue" points="339.141,-129.974 328.659,-131.516 337.816,-136.847 339.141,-129.974"/>
</g>
<!-- Node15&#45;&gt;Node9 -->
<g id="edge26" class="edge"><title>Node15&#45;&gt;Node9</title>
<path fill="none" stroke="midnightblue" d="M528.243,-168.414C486.267,-156.163 420.009,-129.021 397.5,-76 391.03,-60.7588 396.205,-42.191 402.007,-28.8091"/>
<polygon fill="midnightblue" stroke="midnightblue" points="405.195,-30.2557 406.384,-19.7278 398.89,-27.2166 405.195,-30.2557"/>
</g>
<!-- Node15&#45;&gt;Node10 -->
<g id="edge27" class="edge"><title>Node15&#45;&gt;Node10</title>
<path fill="none" stroke="midnightblue" d="M586.256,-168.433C618.179,-154.524 676.515,-123.687 700.5,-76 710.265,-56.5838 690.611,-37.5479 672.733,-25.1462"/>
<polygon fill="midnightblue" stroke="midnightblue" points="674.527,-22.1377 664.236,-19.6184 670.71,-28.0054 674.527,-22.1377"/>
</g>
<!-- Node16 -->
<g id="node16" class="node"><title>Node16</title>
<g id="a_node16"><a xlink:href="_ogre_common_8h.html" target="_top" xlink:title="OgreCommon.h">
<polygon fill="none" stroke="black" points="605.5,-56.5 605.5,-75.5 691.5,-75.5 691.5,-56.5 605.5,-56.5"/>
<text text-anchor="middle" x="648.5" y="-63.5" font-family="Helvetica,sans-Serif" font-size="10.00">OgreCommon.h</text>
</a>
</g>
</g>
<!-- Node15&#45;&gt;Node16 -->
<g id="edge23" class="edge"><title>Node15&#45;&gt;Node16</title>
<path fill="none" stroke="midnightblue" d="M571.091,-168.368C585.015,-150.135 617.629,-107.426 635.766,-83.6752"/>
<polygon fill="midnightblue" stroke="midnightblue" points="638.652,-85.6633 641.939,-75.5914 633.088,-81.4149 638.652,-85.6633"/>
</g>
<!-- Node16&#45;&gt;Node9 -->
<g id="edge24" class="edge"><title>Node16&#45;&gt;Node9</title>
<path fill="none" stroke="midnightblue" d="M610.947,-56.4435C569.689,-47.0431 503.356,-31.9291 458.634,-21.7393"/>
<polygon fill="midnightblue" stroke="midnightblue" points="459.405,-18.3255 448.878,-19.5164 457.85,-25.1506 459.405,-18.3255"/>
</g>
<!-- Node16&#45;&gt;Node10 -->
<g id="edge25" class="edge"><title>Node16&#45;&gt;Node10</title>
<path fill="none" stroke="midnightblue" d="M648.5,-56.083C648.5,-49.0059 648.5,-38.8611 648.5,-29.9865"/>
<polygon fill="midnightblue" stroke="midnightblue" points="652,-29.751 648.5,-19.7511 645,-29.7511 652,-29.751"/>
</g>
<!-- Node18&#45;&gt;Node1 -->
<g id="edge37" class="edge"><title>Node18&#45;&gt;Node1</title>
<path fill="none" stroke="midnightblue" d="M542.631,-355.751C544.157,-362.858 544.604,-373.136 543.972,-382.101"/>
<polygon fill="midnightblue" stroke="midnightblue" points="540.493,-381.713 542.666,-392.083 547.434,-382.622 540.493,-381.713"/>
</g>
<!-- Node19 -->
<g id="node19" class="node"><title>Node19</title>
<g id="a_node19"><a xlink:href="_ogre_render_window_8h.html" target="_top" xlink:title="OgreRenderWindow.h">
<polygon fill="none" stroke="black" points="564,-280.5 564,-299.5 677,-299.5 677,-280.5 564,-280.5"/>
<text text-anchor="middle" x="620.5" y="-287.5" font-family="Helvetica,sans-Serif" font-size="10.00">OgreRenderWindow.h</text>
</a>
</g>
</g>
<!-- Node18&#45;&gt;Node19 -->
<g id="edge30" class="edge"><title>Node18&#45;&gt;Node19</title>
<path fill="none" stroke="midnightblue" d="M550.835,-336.324C563.662,-327.979 583.285,-315.212 598.44,-305.352"/>
<polygon fill="midnightblue" stroke="midnightblue" points="600.724,-308.042 607.198,-299.655 596.907,-302.174 600.724,-308.042"/>
</g>
<!-- Node21 -->
<g id="node21" class="node"><title>Node21</title>
<g id="a_node21"><a xlink:href="_g_l_support_2include_2_e_g_l_2_ogre_e_g_l_context_8h.html" target="_top" xlink:title="OgreEGLContext.h">
<polygon fill="none" stroke="black" points="445.5,-280.5 445.5,-299.5 545.5,-299.5 545.5,-280.5 445.5,-280.5"/>
<text text-anchor="middle" x="495.5" y="-287.5" font-family="Helvetica,sans-Serif" font-size="10.00">OgreEGLContext.h</text>
</a>
</g>
</g>
<!-- Node18&#45;&gt;Node21 -->
<g id="edge38" class="edge"><title>Node18&#45;&gt;Node21</title>
<path fill="none" stroke="midnightblue" d="M530.565,-336.083C524.571,-328.377 515.748,-317.033 508.452,-307.653"/>
<polygon fill="midnightblue" stroke="midnightblue" points="511.209,-305.496 502.306,-299.751 505.683,-309.793 511.209,-305.496"/>
</g>
<!-- Node19&#45;&gt;Node4 -->
<g id="edge31" class="edge"><title>Node19&#45;&gt;Node4</title>
<path fill="none" stroke="midnightblue" d="M605.282,-280.483C589.626,-271.634 564.614,-257.252 543.5,-244 517.868,-227.913 457.808,-181.041 430.5,-168 399.241,-153.072 361.877,-141.664 332.774,-134.069"/>
<polygon fill="midnightblue" stroke="midnightblue" points="333.402,-130.617 322.847,-131.542 331.675,-137.401 333.402,-130.617"/>
</g>
<!-- Node20 -->
<g id="node20" class="node"><title>Node20</title>
<g id="a_node20"><a xlink:href="_ogre_render_target_8h.html" target="_top" xlink:title="OgreRenderTarget.h">
<polygon fill="none" stroke="black" points="552,-224.5 552,-243.5 657,-243.5 657,-224.5 552,-224.5"/>
<text text-anchor="middle" x="604.5" y="-231.5" font-family="Helvetica,sans-Serif" font-size="10.00">OgreRenderTarget.h</text>
</a>
</g>
</g>
<!-- Node19&#45;&gt;Node20 -->
<g id="edge32" class="edge"><title>Node19&#45;&gt;Node20</title>
<path fill="none" stroke="midnightblue" d="M617.858,-280.083C615.714,-272.849 612.621,-262.409 609.951,-253.397"/>
<polygon fill="midnightblue" stroke="midnightblue" points="613.29,-252.345 607.093,-243.751 606.578,-254.333 613.29,-252.345"/>
</g>
<!-- Node20&#45;&gt;Node4 -->
<g id="edge33" class="edge"><title>Node20&#45;&gt;Node4</title>
<path fill="none" stroke="midnightblue" d="M585.7,-224.4C565.963,-215.364 534.031,-200.724 506.5,-188 487.367,-179.158 483.365,-175.045 463.5,-168 422.231,-153.363 374.016,-141.53 338.03,-133.678"/>
<polygon fill="midnightblue" stroke="midnightblue" points="338.733,-130.25 328.22,-131.57 337.262,-137.093 338.733,-130.25"/>
</g>
<!-- Node20&#45;&gt;Node9 -->
<g id="edge35" class="edge"><title>Node20&#45;&gt;Node9</title>
<path fill="none" stroke="midnightblue" d="M610.989,-224.367C619.967,-211.279 633.856,-186.034 622.5,-168 572.079,-87.929 491.76,-148.118 430.5,-76 419.449,-62.9904 414.822,-43.8303 412.886,-29.6805"/>
<polygon fill="midnightblue" stroke="midnightblue" points="416.356,-29.2044 411.84,-19.6201 409.393,-29.9286 416.356,-29.2044"/>
</g>
<!-- Node20&#45;&gt;Node10 -->
<g id="edge36" class="edge"><title>Node20&#45;&gt;Node10</title>
<path fill="none" stroke="midnightblue" d="M616.531,-224.375C627.627,-215.992 644.064,-202.441 655.5,-188 690.559,-143.73 701.753,-130.772 715.5,-76 717.664,-67.3785 719.681,-63.8443 715.5,-56 707.95,-41.8339 693.739,-31.3348 680.342,-24.0576"/>
<polygon fill="midnightblue" stroke="midnightblue" points="681.798,-20.8724 671.288,-19.5289 678.666,-27.1329 681.798,-20.8724"/>
</g>
<!-- Node20&#45;&gt;Node15 -->
<g id="edge34" class="edge"><title>Node20&#45;&gt;Node15</title>
<path fill="none" stroke="midnightblue" d="M597.895,-224.083C592.245,-216.455 583.955,-205.264 577.049,-195.941"/>
<polygon fill="midnightblue" stroke="midnightblue" points="579.747,-193.703 570.982,-187.751 574.122,-197.87 579.747,-193.703"/>
</g>
<!-- Node21&#45;&gt;Node17 -->
<g id="edge41" class="edge"><title>Node21&#45;&gt;Node17</title>
<path fill="none" stroke="midnightblue" d="M528.775,-280.444C565.906,-270.896 625.959,-255.454 665.587,-245.263"/>
<polygon fill="midnightblue" stroke="midnightblue" points="666.629,-248.609 675.443,-242.729 664.886,-241.83 666.629,-248.609"/>
</g>
<!-- Node22 -->
<g id="node22" class="node"><title>Node22</title>
<g id="a_node22"><a xlink:href="_ogre_g_l_context_8h.html" target="_top" xlink:title="OgreGLContext.h">
<polygon fill="none" stroke="black" points="328,-224.5 328,-243.5 421,-243.5 421,-224.5 328,-224.5"/>
<text text-anchor="middle" x="374.5" y="-231.5" font-family="Helvetica,sans-Serif" font-size="10.00">OgreGLContext.h</text>
</a>
</g>
</g>
<!-- Node21&#45;&gt;Node22 -->
<g id="edge39" class="edge"><title>Node21&#45;&gt;Node22</title>
<path fill="none" stroke="midnightblue" d="M476.327,-280.444C456.591,-271.636 425.615,-257.812 403.007,-247.722"/>
<polygon fill="midnightblue" stroke="midnightblue" points="404.141,-244.396 393.583,-243.516 401.289,-250.788 404.141,-244.396"/>
</g>
<!-- Node22&#45;&gt;Node3 -->
<g id="edge40" class="edge"><title>Node22&#45;&gt;Node3</title>
<path fill="none" stroke="midnightblue" d="M370.041,-224.083C366.346,-216.691 360.977,-205.953 356.406,-196.811"/>
<polygon fill="midnightblue" stroke="midnightblue" points="359.478,-195.13 351.876,-187.751 353.217,-198.261 359.478,-195.13"/>
</g>
</g>
</svg>
