<?xml version="1.0" encoding="UTF-8" standalone="no"?>
<!DOCTYPE svg PUBLIC "-//W3C//DTD SVG 1.1//EN"
 "http://www.w3.org/Graphics/SVG/1.1/DTD/svg11.dtd">
<!-- Generated by graphviz version 2.38.0 (20140413.2041)
 -->
<!-- Title: OgreEGLContext.h Pages: 1 -->
<svg width="244pt" height="196pt"
 viewBox="0.00 0.00 243.50 196.00" xmlns="http://www.w3.org/2000/svg" xmlns:xlink="http://www.w3.org/1999/xlink">
<g id="graph0" class="graph" transform="scale(1 1) rotate(0) translate(4 192)">
<title>OgreEGLContext.h</title>
<!-- Node1 -->
<g id="node1" class="node"><title>Node1</title>
<polygon fill="#bfbfbf" stroke="black" points="54,-168.5 54,-187.5 154,-187.5 154,-168.5 54,-168.5"/>
<text text-anchor="middle" x="104" y="-175.5" font-family="Helvetica,sans-Serif" font-size="10.00">OgreEGLContext.h</text>
</g>
<!-- Node2 -->
<g id="node2" class="node"><title>Node2</title>
<g id="a_node2"><a xlink:href="_g_l_e_s_2include_2_e_g_l_2_ogre_e_g_l_render_texture_8h.html" target="_top" xlink:title="OgreEGLRenderTexture.h">
<polygon fill="none" stroke="black" points="0,-0.5 0,-19.5 130,-19.5 130,-0.5 0,-0.5"/>
<text text-anchor="middle" x="65" y="-7.5" font-family="Helvetica,sans-Serif" font-size="10.00">OgreEGLRenderTexture.h</text>
</a>
</g>
</g>
<!-- Node1&#45;&gt;Node2 -->
<g id="edge1" class="edge"><title>Node1&#45;&gt;Node2</title>
<path fill="none" stroke="midnightblue" d="M94.7588,-159.129C90.9146,-151.032 86.7225,-141.225 84,-132 71.9014,-91.0068 67.0884,-39.7928 65.5788,-19.679"/>
<polygon fill="midnightblue" stroke="midnightblue" points="91.7269,-160.893 99.3054,-168.297 97.9981,-157.783 91.7269,-160.893"/>
</g>
<!-- Node3 -->
<g id="node3" class="node"><title>Node3</title>
<g id="a_node3"><a xlink:href="_g_l_e_s_2include_2_e_g_l_2_ogre_e_g_l_window_8h.html" target="_top" xlink:title="OgreEGLWindow.h">
<polygon fill="none" stroke="black" points="93.5,-112.5 93.5,-131.5 194.5,-131.5 194.5,-112.5 93.5,-112.5"/>
<text text-anchor="middle" x="144" y="-119.5" font-family="Helvetica,sans-Serif" font-size="10.00">OgreEGLWindow.h</text>
</a>
</g>
</g>
<!-- Node1&#45;&gt;Node3 -->
<g id="edge2" class="edge"><title>Node1&#45;&gt;Node3</title>
<path fill="none" stroke="midnightblue" d="M116.7,-159.855C123.626,-150.505 131.906,-139.327 137.518,-131.751"/>
<polygon fill="midnightblue" stroke="midnightblue" points="113.745,-157.964 110.605,-168.083 119.37,-162.131 113.745,-157.964"/>
</g>
<!-- Node4 -->
<g id="node4" class="node"><title>Node4</title>
<g id="a_node4"><a xlink:href="_g_l_e_s_2include_2_e_g_l_2_ogre_e_g_l_support_8h.html" target="_top" xlink:title="OgreEGLSupport.h">
<polygon fill="none" stroke="black" points="94.5,-56.5 94.5,-75.5 193.5,-75.5 193.5,-56.5 94.5,-56.5"/>
<text text-anchor="middle" x="144" y="-63.5" font-family="Helvetica,sans-Serif" font-size="10.00">OgreEGLSupport.h</text>
</a>
</g>
</g>
<!-- Node3&#45;&gt;Node4 -->
<g id="edge3" class="edge"><title>Node3&#45;&gt;Node4</title>
<path fill="none" stroke="midnightblue" d="M137.528,-102.101C136.896,-93.1357 137.343,-82.8579 138.869,-75.7511"/>
<polygon fill="midnightblue" stroke="midnightblue" points="134.066,-102.622 138.834,-112.083 141.007,-101.713 134.066,-102.622"/>
</g>
<!-- Node4&#45;&gt;Node2 -->
<g id="edge4" class="edge"><title>Node4&#45;&gt;Node2</title>
<path fill="none" stroke="midnightblue" d="M122.966,-50.6221C108.534,-40.7574 89.8585,-27.9919 77.6612,-19.6545"/>
<polygon fill="midnightblue" stroke="midnightblue" points="121.077,-53.5703 131.307,-56.324 125.027,-47.7914 121.077,-53.5703"/>
</g>
<!-- Node4&#45;&gt;Node3 -->
<g id="edge5" class="edge"><title>Node4&#45;&gt;Node3</title>
<path fill="none" stroke="midnightblue" d="M150.458,-85.6911C151.106,-94.6353 150.676,-104.927 149.166,-112.083"/>
<polygon fill="midnightblue" stroke="midnightblue" points="153.923,-85.2002 149.131,-75.7511 146.985,-86.1262 153.923,-85.2002"/>
</g>
<!-- Node5 -->
<g id="node5" class="node"><title>Node5</title>
<g id="a_node5"><a xlink:href="_e_g_l_2_ogre_g_l_e_s_util_8h.html" target="_top" xlink:title="OgreGLESUtil.h">
<polygon fill="none" stroke="black" points="148.5,-0.5 148.5,-19.5 235.5,-19.5 235.5,-0.5 148.5,-0.5"/>
<text text-anchor="middle" x="192" y="-7.5" font-family="Helvetica,sans-Serif" font-size="10.00">OgreGLESUtil.h</text>
</a>
</g>
</g>
<!-- Node4&#45;&gt;Node5 -->
<g id="edge6" class="edge"><title>Node4&#45;&gt;Node5</title>
<path fill="none" stroke="midnightblue" d="M158.728,-48.4314C167.14,-38.9673 177.349,-27.4827 184.221,-19.7511"/>
<polygon fill="midnightblue" stroke="midnightblue" points="155.954,-46.2836 151.926,-56.083 161.186,-50.9342 155.954,-46.2836"/>
</g>
</g>
</svg>
