<?xml version="1.0" encoding="UTF-8" standalone="no"?>
<!DOCTYPE svg PUBLIC "-//W3C//DTD SVG 1.1//EN"
 "http://www.w3.org/Graphics/SVG/1.1/DTD/svg11.dtd">
<!-- Generated by graphviz version 2.38.0 (20140413.2041)
 -->
<!-- Title: OgreGLRenderToVertexBuffer.h Pages: 1 -->
<svg width="3404pt" height="420pt"
 viewBox="0.00 0.00 3403.50 420.00" xmlns="http://www.w3.org/2000/svg" xmlns:xlink="http://www.w3.org/1999/xlink">
<g id="graph0" class="graph" transform="scale(1 1) rotate(0) translate(4 416)">
<title>OgreGLRenderToVertexBuffer.h</title>
<!-- Node1 -->
<g id="node1" class="node"><title>Node1</title>
<polygon fill="#bfbfbf" stroke="black" points="2970,-392.5 2970,-411.5 3126,-411.5 3126,-392.5 2970,-392.5"/>
<text text-anchor="middle" x="3048" y="-399.5" font-family="Helvetica,sans-Serif" font-size="10.00">OgreGLRenderToVertexBuffer.h</text>
</g>
<!-- Node2 -->
<g id="node2" class="node"><title>Node2</title>
<g id="a_node2"><a xlink:href="_ogre_render_to_vertex_buffer_8h.html" target="_top" xlink:title="OgreRenderToVertexBuffer.h">
<polygon fill="none" stroke="black" points="2887.5,-336.5 2887.5,-355.5 3030.5,-355.5 3030.5,-336.5 2887.5,-336.5"/>
<text text-anchor="middle" x="2959" y="-343.5" font-family="Helvetica,sans-Serif" font-size="10.00">OgreRenderToVertexBuffer.h</text>
</a>
</g>
</g>
<!-- Node1&#45;&gt;Node2 -->
<g id="edge1" class="edge"><title>Node1&#45;&gt;Node2</title>
<path fill="none" stroke="midnightblue" d="M3033.7,-392.324C3019.82,-383.9 2998.51,-370.971 2982.2,-361.074"/>
<polygon fill="midnightblue" stroke="midnightblue" points="2983.63,-357.85 2973.26,-355.655 2980,-363.834 2983.63,-357.85"/>
</g>
<!-- Node45 -->
<g id="node45" class="node"><title>Node45</title>
<g id="a_node45"><a xlink:href="_ogre_g_l_prerequisites_8h.html" target="_top" xlink:title="OgreGLPrerequisites.h">
<polygon fill="none" stroke="black" points="3080,-336.5 3080,-355.5 3196,-355.5 3196,-336.5 3080,-336.5"/>
<text text-anchor="middle" x="3138" y="-343.5" font-family="Helvetica,sans-Serif" font-size="10.00">OgreGLPrerequisites.h</text>
</a>
</g>
</g>
<!-- Node1&#45;&gt;Node45 -->
<g id="edge59" class="edge"><title>Node1&#45;&gt;Node45</title>
<path fill="none" stroke="midnightblue" d="M3062.46,-392.324C3076.5,-383.9 3098.05,-370.971 3114.54,-361.074"/>
<polygon fill="midnightblue" stroke="midnightblue" points="3116.8,-363.801 3123.58,-355.655 3113.2,-357.798 3116.8,-363.801"/>
</g>
<!-- Node3 -->
<g id="node3" class="node"><title>Node3</title>
<g id="a_node3"><a xlink:href="_ogre_prerequisites_8h.html" target="_top" xlink:title="OgrePrerequisites.h">
<polygon fill="none" stroke="black" points="2687.5,-168.5 2687.5,-187.5 2790.5,-187.5 2790.5,-168.5 2687.5,-168.5"/>
<text text-anchor="middle" x="2739" y="-175.5" font-family="Helvetica,sans-Serif" font-size="10.00">OgrePrerequisites.h</text>
</a>
</g>
</g>
<!-- Node2&#45;&gt;Node3 -->
<g id="edge2" class="edge"><title>Node2&#45;&gt;Node3</title>
<path fill="none" stroke="midnightblue" d="M2950.99,-336.303C2939.13,-323.561 2916.03,-299.243 2895,-280 2866.12,-253.571 2859.73,-245.483 2827,-224 2808.12,-211.607 2785.39,-200.062 2767.76,-191.769"/>
<polygon fill="midnightblue" stroke="midnightblue" points="2769.09,-188.529 2758.55,-187.511 2766.16,-194.884 2769.09,-188.529"/>
</g>
<!-- Node43 -->
<g id="node43" class="node"><title>Node43</title>
<g id="a_node43"><a xlink:href="_ogre_render_operation_8h.html" target="_top" xlink:title="OgreRenderOperation.h">
<polygon fill="none" stroke="black" points="2767.5,-280.5 2767.5,-299.5 2886.5,-299.5 2886.5,-280.5 2767.5,-280.5"/>
<text text-anchor="middle" x="2827" y="-287.5" font-family="Helvetica,sans-Serif" font-size="10.00">OgreRenderOperation.h</text>
</a>
</g>
</g>
<!-- Node2&#45;&gt;Node43 -->
<g id="edge51" class="edge"><title>Node2&#45;&gt;Node43</title>
<path fill="none" stroke="midnightblue" d="M2938.08,-336.444C2916.26,-327.517 2881.85,-313.439 2857.11,-303.317"/>
<polygon fill="midnightblue" stroke="midnightblue" points="2858.4,-300.063 2847.82,-299.516 2855.75,-306.542 2858.4,-300.063"/>
</g>
<!-- Node4 -->
<g id="node4" class="node"><title>Node4</title>
<g id="a_node4"><a xlink:href="_ogre_platform_8h.html" target="_top" xlink:title="OgrePlatform.h">
<polygon fill="none" stroke="black" points="2792.5,-112.5 2792.5,-131.5 2875.5,-131.5 2875.5,-112.5 2792.5,-112.5"/>
<text text-anchor="middle" x="2834" y="-119.5" font-family="Helvetica,sans-Serif" font-size="10.00">OgrePlatform.h</text>
</a>
</g>
</g>
<!-- Node3&#45;&gt;Node4 -->
<g id="edge3" class="edge"><title>Node3&#45;&gt;Node4</title>
<path fill="none" stroke="midnightblue" d="M2754.26,-168.324C2769.22,-159.822 2792.25,-146.729 2809.73,-136.797"/>
<polygon fill="midnightblue" stroke="midnightblue" points="2811.81,-139.639 2818.77,-131.655 2808.35,-133.553 2811.81,-139.639"/>
</g>
<!-- Node6 -->
<g id="node6" class="node"><title>Node6</title>
<polygon fill="none" stroke="#bfbfbf" points="66.5,-56.5 66.5,-75.5 107.5,-75.5 107.5,-56.5 66.5,-56.5"/>
<text text-anchor="middle" x="87" y="-63.5" font-family="Helvetica,sans-Serif" font-size="10.00">string</text>
</g>
<!-- Node3&#45;&gt;Node6 -->
<g id="edge5" class="edge"><title>Node3&#45;&gt;Node6</title>
<path fill="none" stroke="midnightblue" d="M2687.34,-175.645C2501.92,-170.723 1852.58,-152.97 1317,-132 786.882,-111.244 645.099,-165.135 117.975,-75.6901"/>
<polygon fill="midnightblue" stroke="midnightblue" points="118.271,-72.1903 107.825,-73.9584 117.094,-79.0905 118.271,-72.1903"/>
</g>
<!-- Node7 -->
<g id="node7" class="node"><title>Node7</title>
<g id="a_node7"><a xlink:href="_ogre_std_headers_8h.html" target="_top" xlink:title="OgreStdHeaders.h">
<polygon fill="none" stroke="black" points="1326,-112.5 1326,-131.5 1424,-131.5 1424,-112.5 1326,-112.5"/>
<text text-anchor="middle" x="1375" y="-119.5" font-family="Helvetica,sans-Serif" font-size="10.00">OgreStdHeaders.h</text>
</a>
</g>
</g>
<!-- Node3&#45;&gt;Node7 -->
<g id="edge6" class="edge"><title>Node3&#45;&gt;Node7</title>
<path fill="none" stroke="midnightblue" d="M2687.2,-174.949C2473.57,-166.492 1661.58,-134.345 1434.39,-125.351"/>
<polygon fill="midnightblue" stroke="midnightblue" points="1434.46,-121.851 1424.33,-124.953 1434.18,-128.846 1434.46,-121.851"/>
</g>
<!-- Node37 -->
<g id="node37" class="node"><title>Node37</title>
<g id="a_node37"><a xlink:href="_ogre_memory_allocator_config_8h.html" target="_top" xlink:title="This file configures Ogre&#39;s memory allocators. ">
<polygon fill="none" stroke="black" points="2518,-112.5 2518,-131.5 2666,-131.5 2666,-112.5 2518,-112.5"/>
<text text-anchor="middle" x="2592" y="-119.5" font-family="Helvetica,sans-Serif" font-size="10.00">OgreMemoryAllocatorConfig.h</text>
</a>
</g>
</g>
<!-- Node3&#45;&gt;Node37 -->
<g id="edge37" class="edge"><title>Node3&#45;&gt;Node37</title>
<path fill="none" stroke="midnightblue" d="M2715.71,-168.444C2691.19,-159.438 2652.4,-145.189 2624.8,-135.049"/>
<polygon fill="midnightblue" stroke="midnightblue" points="2625.78,-131.679 2615.18,-131.516 2623.36,-138.25 2625.78,-131.679"/>
</g>
<!-- Node5 -->
<g id="node5" class="node"><title>Node5</title>
<g id="a_node5"><a xlink:href="_ogre_config_8h.html" target="_top" xlink:title="OgreConfig.h">
<polygon fill="none" stroke="red" points="2826,-56.5 2826,-75.5 2900,-75.5 2900,-56.5 2826,-56.5"/>
<text text-anchor="middle" x="2863" y="-63.5" font-family="Helvetica,sans-Serif" font-size="10.00">OgreConfig.h</text>
</a>
</g>
</g>
<!-- Node4&#45;&gt;Node5 -->
<g id="edge4" class="edge"><title>Node4&#45;&gt;Node5</title>
<path fill="none" stroke="midnightblue" d="M2838.79,-112.083C2842.76,-104.691 2848.53,-93.9533 2853.43,-84.8111"/>
<polygon fill="midnightblue" stroke="midnightblue" points="2856.65,-86.217 2858.3,-75.7511 2850.49,-82.9051 2856.65,-86.217"/>
</g>
<!-- Node7&#45;&gt;Node6 -->
<g id="edge16" class="edge"><title>Node7&#45;&gt;Node6</title>
<path fill="none" stroke="midnightblue" d="M1325.88,-119.985C1113.49,-115.501 278.074,-96.8163 118.149,-75.5255"/>
<polygon fill="midnightblue" stroke="midnightblue" points="118.226,-71.9985 107.82,-73.9883 117.196,-78.9223 118.226,-71.9985"/>
</g>
<!-- Node8 -->
<g id="node8" class="node"><title>Node8</title>
<polygon fill="none" stroke="#bfbfbf" points="1286.5,-56.5 1286.5,-75.5 1335.5,-75.5 1335.5,-56.5 1286.5,-56.5"/>
<text text-anchor="middle" x="1311" y="-63.5" font-family="Helvetica,sans-Serif" font-size="10.00">cassert</text>
</g>
<!-- Node7&#45;&gt;Node8 -->
<g id="edge7" class="edge"><title>Node7&#45;&gt;Node8</title>
<path fill="none" stroke="midnightblue" d="M1364.72,-112.324C1355.16,-104.263 1340.72,-92.0765 1329.22,-82.3695"/>
<polygon fill="midnightblue" stroke="midnightblue" points="1331.37,-79.6076 1321.47,-75.8339 1326.86,-84.9577 1331.37,-79.6076"/>
</g>
<!-- Node9 -->
<g id="node9" class="node"><title>Node9</title>
<polygon fill="none" stroke="#bfbfbf" points="1353.5,-56.5 1353.5,-75.5 1396.5,-75.5 1396.5,-56.5 1353.5,-56.5"/>
<text text-anchor="middle" x="1375" y="-63.5" font-family="Helvetica,sans-Serif" font-size="10.00">cstdio</text>
</g>
<!-- Node7&#45;&gt;Node9 -->
<g id="edge8" class="edge"><title>Node7&#45;&gt;Node9</title>
<path fill="none" stroke="midnightblue" d="M1375,-112.083C1375,-105.006 1375,-94.8611 1375,-85.9865"/>
<polygon fill="midnightblue" stroke="midnightblue" points="1378.5,-85.751 1375,-75.7511 1371.5,-85.7511 1378.5,-85.751"/>
</g>
<!-- Node10 -->
<g id="node10" class="node"><title>Node10</title>
<polygon fill="none" stroke="#bfbfbf" points="1414.5,-56.5 1414.5,-75.5 1459.5,-75.5 1459.5,-56.5 1414.5,-56.5"/>
<text text-anchor="middle" x="1437" y="-63.5" font-family="Helvetica,sans-Serif" font-size="10.00">cstdlib</text>
</g>
<!-- Node7&#45;&gt;Node10 -->
<g id="edge9" class="edge"><title>Node7&#45;&gt;Node10</title>
<path fill="none" stroke="midnightblue" d="M1384.96,-112.324C1394.13,-104.341 1407.94,-92.3128 1419.03,-82.6529"/>
<polygon fill="midnightblue" stroke="midnightblue" points="1421.62,-85.041 1426.86,-75.8339 1417.02,-79.7624 1421.62,-85.041"/>
</g>
<!-- Node11 -->
<g id="node11" class="node"><title>Node11</title>
<polygon fill="none" stroke="#bfbfbf" points="1477.5,-56.5 1477.5,-75.5 1518.5,-75.5 1518.5,-56.5 1477.5,-56.5"/>
<text text-anchor="middle" x="1498" y="-63.5" font-family="Helvetica,sans-Serif" font-size="10.00">ctime</text>
</g>
<!-- Node7&#45;&gt;Node11 -->
<g id="edge10" class="edge"><title>Node7&#45;&gt;Node11</title>
<path fill="none" stroke="midnightblue" d="M1394.49,-112.444C1414.64,-103.596 1446.32,-89.6875 1469.33,-79.5865"/>
<polygon fill="midnightblue" stroke="midnightblue" points="1470.85,-82.7411 1478.6,-75.5164 1468.04,-76.3316 1470.85,-82.7411"/>
</g>
<!-- Node12 -->
<g id="node12" class="node"><title>Node12</title>
<polygon fill="none" stroke="#bfbfbf" points="1537,-56.5 1537,-75.5 1583,-75.5 1583,-56.5 1537,-56.5"/>
<text text-anchor="middle" x="1560" y="-63.5" font-family="Helvetica,sans-Serif" font-size="10.00">cstring</text>
</g>
<!-- Node7&#45;&gt;Node12 -->
<g id="edge11" class="edge"><title>Node7&#45;&gt;Node12</title>
<path fill="none" stroke="midnightblue" d="M1404.31,-112.444C1437.79,-102.672 1492.42,-86.7275 1527.26,-76.5567"/>
<polygon fill="midnightblue" stroke="midnightblue" points="1528.34,-79.8869 1536.96,-73.7251 1526.38,-73.1673 1528.34,-79.8869"/>
</g>
<!-- Node13 -->
<g id="node13" class="node"><title>Node13</title>
<polygon fill="none" stroke="#bfbfbf" points="1601.5,-56.5 1601.5,-75.5 1650.5,-75.5 1650.5,-56.5 1601.5,-56.5"/>
<text text-anchor="middle" x="1626" y="-63.5" font-family="Helvetica,sans-Serif" font-size="10.00">cstdarg</text>
</g>
<!-- Node7&#45;&gt;Node13 -->
<g id="edge12" class="edge"><title>Node7&#45;&gt;Node13</title>
<path fill="none" stroke="midnightblue" d="M1419.62,-112.482C1461.46,-104.332 1525.96,-91.3452 1591.12,-76.1069"/>
<polygon fill="midnightblue" stroke="midnightblue" points="1592.23,-79.4424 1601.16,-73.7427 1590.62,-72.6288 1592.23,-79.4424"/>
</g>
<!-- Node14 -->
<g id="node14" class="node"><title>Node14</title>
<polygon fill="none" stroke="#bfbfbf" points="1669,-56.5 1669,-75.5 1713,-75.5 1713,-56.5 1669,-56.5"/>
<text text-anchor="middle" x="1691" y="-63.5" font-family="Helvetica,sans-Serif" font-size="10.00">cmath</text>
</g>
<!-- Node7&#45;&gt;Node14 -->
<g id="edge13" class="edge"><title>Node7&#45;&gt;Node14</title>
<path fill="none" stroke="midnightblue" d="M1424.07,-115C1478.89,-107.902 1570.41,-94.8779 1658.78,-75.8011"/>
<polygon fill="midnightblue" stroke="midnightblue" points="1659.68,-79.1865 1668.7,-73.6301 1658.19,-72.3482 1659.68,-79.1865"/>
</g>
<!-- Node15 -->
<g id="node15" class="node"><title>Node15</title>
<polygon fill="none" stroke="#bfbfbf" points="1731,-56.5 1731,-75.5 1775,-75.5 1775,-56.5 1731,-56.5"/>
<text text-anchor="middle" x="1753" y="-63.5" font-family="Helvetica,sans-Serif" font-size="10.00">vector</text>
</g>
<!-- Node7&#45;&gt;Node15 -->
<g id="edge14" class="edge"><title>Node7&#45;&gt;Node15</title>
<path fill="none" stroke="midnightblue" d="M1424.24,-117.014C1489.89,-111.173 1609.76,-98.667 1720.73,-75.9843"/>
<polygon fill="midnightblue" stroke="midnightblue" points="1721.67,-79.3633 1730.75,-73.9026 1720.25,-72.5096 1721.67,-79.3633"/>
</g>
<!-- Node16 -->
<g id="node16" class="node"><title>Node16</title>
<polygon fill="none" stroke="#bfbfbf" points="1793.5,-56.5 1793.5,-75.5 1828.5,-75.5 1828.5,-56.5 1793.5,-56.5"/>
<text text-anchor="middle" x="1811" y="-63.5" font-family="Helvetica,sans-Serif" font-size="10.00">map</text>
</g>
<!-- Node7&#45;&gt;Node16 -->
<g id="edge15" class="edge"><title>Node7&#45;&gt;Node16</title>
<path fill="none" stroke="midnightblue" d="M1424.02,-118.966C1499.44,-115.106 1648.45,-104.583 1783.33,-75.6581"/>
<polygon fill="midnightblue" stroke="midnightblue" points="1784.41,-79.0056 1793.43,-73.4518 1782.91,-72.1669 1784.41,-79.0056"/>
</g>
<!-- Node17 -->
<g id="node17" class="node"><title>Node17</title>
<polygon fill="none" stroke="#bfbfbf" points="1847,-56.5 1847,-75.5 1877,-75.5 1877,-56.5 1847,-56.5"/>
<text text-anchor="middle" x="1862" y="-63.5" font-family="Helvetica,sans-Serif" font-size="10.00">set</text>
</g>
<!-- Node7&#45;&gt;Node17 -->
<g id="edge17" class="edge"><title>Node7&#45;&gt;Node17</title>
<path fill="none" stroke="midnightblue" d="M1424.19,-120.202C1509.32,-117.938 1689.19,-109.259 1837,-76 1837.1,-75.9772 1837.2,-75.9541 1837.3,-75.9308"/>
<polygon fill="midnightblue" stroke="midnightblue" points="1838.23,-79.3066 1846.84,-73.1347 1836.26,-72.5893 1838.23,-79.3066"/>
</g>
<!-- Node18 -->
<g id="node18" class="node"><title>Node18</title>
<polygon fill="none" stroke="#bfbfbf" points="1895.5,-56.5 1895.5,-75.5 1924.5,-75.5 1924.5,-56.5 1895.5,-56.5"/>
<text text-anchor="middle" x="1910" y="-63.5" font-family="Helvetica,sans-Serif" font-size="10.00">list</text>
</g>
<!-- Node7&#45;&gt;Node18 -->
<g id="edge18" class="edge"><title>Node7&#45;&gt;Node18</title>
<path fill="none" stroke="midnightblue" d="M1424.3,-121.062C1514.55,-120.228 1712.18,-114.005 1885.66,-75.3901"/>
<polygon fill="midnightblue" stroke="midnightblue" points="1886.49,-78.7899 1895.47,-73.1651 1884.94,-71.9632 1886.49,-78.7899"/>
</g>
<!-- Node19 -->
<g id="node19" class="node"><title>Node19</title>
<polygon fill="none" stroke="#bfbfbf" points="1942.5,-56.5 1942.5,-75.5 1985.5,-75.5 1985.5,-56.5 1942.5,-56.5"/>
<text text-anchor="middle" x="1964" y="-63.5" font-family="Helvetica,sans-Serif" font-size="10.00">deque</text>
</g>
<!-- Node7&#45;&gt;Node19 -->
<g id="edge19" class="edge"><title>Node7&#45;&gt;Node19</title>
<path fill="none" stroke="midnightblue" d="M1424.32,-120.357C1520.47,-118.385 1739.65,-110.361 1932.42,-75.6917"/>
<polygon fill="midnightblue" stroke="midnightblue" points="1933.25,-79.0995 1942.45,-73.8591 1931.99,-72.2135 1933.25,-79.0995"/>
</g>
<!-- Node20 -->
<g id="node20" class="node"><title>Node20</title>
<polygon fill="none" stroke="#bfbfbf" points="2003.5,-56.5 2003.5,-75.5 2046.5,-75.5 2046.5,-56.5 2003.5,-56.5"/>
<text text-anchor="middle" x="2025" y="-63.5" font-family="Helvetica,sans-Serif" font-size="10.00">queue</text>
</g>
<!-- Node7&#45;&gt;Node20 -->
<g id="edge20" class="edge"><title>Node7&#45;&gt;Node20</title>
<path fill="none" stroke="midnightblue" d="M1424.39,-120.913C1528.25,-119.977 1776.87,-113.78 1993.49,-75.6617"/>
<polygon fill="midnightblue" stroke="midnightblue" points="1994.23,-79.0856 2003.46,-73.8814 1993,-72.1947 1994.23,-79.0856"/>
</g>
<!-- Node21 -->
<g id="node21" class="node"><title>Node21</title>
<polygon fill="none" stroke="#bfbfbf" points="2064.5,-56.5 2064.5,-75.5 2105.5,-75.5 2105.5,-56.5 2064.5,-56.5"/>
<text text-anchor="middle" x="2085" y="-63.5" font-family="Helvetica,sans-Serif" font-size="10.00">bitset</text>
</g>
<!-- Node7&#45;&gt;Node21 -->
<g id="edge21" class="edge"><title>Node7&#45;&gt;Node21</title>
<path fill="none" stroke="midnightblue" d="M1424.11,-121.52C1535.13,-121.888 1813.8,-118.282 2054.5,-75.6139"/>
<polygon fill="midnightblue" stroke="midnightblue" points="2055.27,-79.0326 2064.49,-73.817 2054.03,-72.1432 2055.27,-79.0326"/>
</g>
<!-- Node22 -->
<g id="node22" class="node"><title>Node22</title>
<polygon fill="none" stroke="#bfbfbf" points="2124,-56.5 2124,-75.5 2180,-75.5 2180,-56.5 2124,-56.5"/>
<text text-anchor="middle" x="2152" y="-63.5" font-family="Helvetica,sans-Serif" font-size="10.00">algorithm</text>
</g>
<!-- Node7&#45;&gt;Node22 -->
<g id="edge22" class="edge"><title>Node7&#45;&gt;Node22</title>
<path fill="none" stroke="midnightblue" d="M1424.16,-120.913C1543.21,-120.073 1856.19,-114.091 2114,-76 2114.1,-75.9851 2114.2,-75.9701 2114.3,-75.955"/>
<polygon fill="midnightblue" stroke="midnightblue" points="2114.66,-79.4466 2123.88,-74.2274 2113.42,-72.5577 2114.66,-79.4466"/>
</g>
<!-- Node23 -->
<g id="node23" class="node"><title>Node23</title>
<polygon fill="none" stroke="#bfbfbf" points="2198.5,-56.5 2198.5,-75.5 2257.5,-75.5 2257.5,-56.5 2198.5,-56.5"/>
<text text-anchor="middle" x="2228" y="-63.5" font-family="Helvetica,sans-Serif" font-size="10.00">functional</text>
</g>
<!-- Node7&#45;&gt;Node23 -->
<g id="edge23" class="edge"><title>Node7&#45;&gt;Node23</title>
<path fill="none" stroke="midnightblue" d="M1424.38,-121.209C1550.28,-121.116 1893.56,-116.924 2188.27,-75.8245"/>
<polygon fill="midnightblue" stroke="midnightblue" points="2188.88,-79.2731 2198.29,-74.4097 2187.9,-72.3419 2188.88,-79.2731"/>
</g>
<!-- Node24 -->
<g id="node24" class="node"><title>Node24</title>
<polygon fill="none" stroke="#bfbfbf" points="126,-56.5 126,-75.5 166,-75.5 166,-56.5 126,-56.5"/>
<text text-anchor="middle" x="146" y="-63.5" font-family="Helvetica,sans-Serif" font-size="10.00">limits</text>
</g>
<!-- Node7&#45;&gt;Node24 -->
<g id="edge24" class="edge"><title>Node7&#45;&gt;Node24</title>
<path fill="none" stroke="midnightblue" d="M1325.91,-120.879C1132.43,-120.142 421.628,-114.896 176.057,-75.6383"/>
<polygon fill="midnightblue" stroke="midnightblue" points="176.554,-72.1731 166.116,-73.9862 175.407,-79.0784 176.554,-72.1731"/>
</g>
<!-- Node25 -->
<g id="node25" class="node"><title>Node25</title>
<polygon fill="none" stroke="#bfbfbf" points="184,-56.5 184,-75.5 234,-75.5 234,-56.5 184,-56.5"/>
<text text-anchor="middle" x="209" y="-63.5" font-family="Helvetica,sans-Serif" font-size="10.00">fstream</text>
</g>
<!-- Node7&#45;&gt;Node25 -->
<g id="edge25" class="edge"><title>Node7&#45;&gt;Node25</title>
<path fill="none" stroke="midnightblue" d="M1325.87,-120.478C1139.63,-118.28 476.406,-108.411 244.19,-75.7769"/>
<polygon fill="midnightblue" stroke="midnightblue" points="244.523,-72.2885 234.122,-74.3063 243.511,-79.215 244.523,-72.2885"/>
</g>
<!-- Node26 -->
<g id="node26" class="node"><title>Node26</title>
<polygon fill="none" stroke="#bfbfbf" points="252.5,-56.5 252.5,-75.5 297.5,-75.5 297.5,-56.5 252.5,-56.5"/>
<text text-anchor="middle" x="275" y="-63.5" font-family="Helvetica,sans-Serif" font-size="10.00">iosfwd</text>
</g>
<!-- Node7&#45;&gt;Node26 -->
<g id="edge26" class="edge"><title>Node7&#45;&gt;Node26</title>
<path fill="none" stroke="midnightblue" d="M1325.85,-120.441C1146.53,-118.172 526.996,-108.246 307.717,-75.6216"/>
<polygon fill="midnightblue" stroke="midnightblue" points="307.999,-72.1237 297.581,-74.0509 306.927,-79.0411 307.999,-72.1237"/>
</g>
<!-- Node27 -->
<g id="node27" class="node"><title>Node27</title>
<polygon fill="none" stroke="#bfbfbf" points="316,-56.5 316,-75.5 368,-75.5 368,-56.5 316,-56.5"/>
<text text-anchor="middle" x="342" y="-63.5" font-family="Helvetica,sans-Serif" font-size="10.00">sstream</text>
</g>
<!-- Node7&#45;&gt;Node27 -->
<g id="edge27" class="edge"><title>Node7&#45;&gt;Node27</title>
<path fill="none" stroke="midnightblue" d="M1325.83,-120.128C1154.36,-116.879 582.639,-104.264 378.286,-75.8252"/>
<polygon fill="midnightblue" stroke="midnightblue" points="378.652,-72.3419 368.254,-74.3714 377.648,-79.2695 378.652,-72.3419"/>
</g>
<!-- Node28 -->
<g id="node28" class="node"><title>Node28</title>
<polygon fill="none" stroke="#bfbfbf" points="386,-56.5 386,-75.5 454,-75.5 454,-56.5 386,-56.5"/>
<text text-anchor="middle" x="420" y="-63.5" font-family="Helvetica,sans-Serif" font-size="10.00">sys/types.h</text>
</g>
<!-- Node7&#45;&gt;Node28 -->
<g id="edge28" class="edge"><title>Node7&#45;&gt;Node28</title>
<path fill="none" stroke="midnightblue" d="M1325.82,-121.279C1190.07,-121.474 798.577,-118.149 464.548,-75.9834"/>
<polygon fill="midnightblue" stroke="midnightblue" points="464.548,-72.455 454.185,-74.6603 463.661,-79.3986 464.548,-72.455"/>
</g>
<!-- Node29 -->
<g id="node29" class="node"><title>Node29</title>
<polygon fill="none" stroke="#bfbfbf" points="472,-56.5 472,-75.5 532,-75.5 532,-56.5 472,-56.5"/>
<text text-anchor="middle" x="502" y="-63.5" font-family="Helvetica,sans-Serif" font-size="10.00">sys/stat.h</text>
</g>
<!-- Node7&#45;&gt;Node29 -->
<g id="edge29" class="edge"><title>Node7&#45;&gt;Node29</title>
<path fill="none" stroke="midnightblue" d="M1325.83,-121.303C1198.02,-121.459 844.82,-117.868 542.421,-75.9404"/>
<polygon fill="midnightblue" stroke="midnightblue" points="542.527,-72.421 532.137,-74.4969 541.553,-79.353 542.527,-72.421"/>
</g>
<!-- Node30 -->
<g id="node30" class="node"><title>Node30</title>
<polygon fill="none" stroke="#bfbfbf" points="550.5,-56.5 550.5,-75.5 601.5,-75.5 601.5,-56.5 550.5,-56.5"/>
<text text-anchor="middle" x="576" y="-63.5" font-family="Helvetica,sans-Serif" font-size="10.00">unistd.h</text>
</g>
<!-- Node7&#45;&gt;Node30 -->
<g id="edge30" class="edge"><title>Node7&#45;&gt;Node30</title>
<path fill="none" stroke="midnightblue" d="M1325.94,-121.373C1205.63,-121.592 886.384,-117.954 612.028,-75.8266"/>
<polygon fill="midnightblue" stroke="midnightblue" points="612.297,-72.3264 601.877,-74.2471 611.22,-79.2432 612.297,-72.3264"/>
</g>
<!-- Node31 -->
<g id="node31" class="node"><title>Node31</title>
<polygon fill="none" stroke="#bfbfbf" points="620,-56.5 620,-75.5 666,-75.5 666,-56.5 620,-56.5"/>
<text text-anchor="middle" x="643" y="-63.5" font-family="Helvetica,sans-Serif" font-size="10.00">dlfcn.h</text>
</g>
<!-- Node7&#45;&gt;Node31 -->
<g id="edge31" class="edge"><title>Node7&#45;&gt;Node31</title>
<path fill="none" stroke="midnightblue" d="M1325.79,-121.368C1212.45,-121.46 924.311,-117.376 676.211,-75.845"/>
<polygon fill="midnightblue" stroke="midnightblue" points="676.734,-72.3838 666.289,-74.1603 675.562,-79.285 676.734,-72.3838"/>
</g>
<!-- Node32 -->
<g id="node32" class="node"><title>Node32</title>
<polygon fill="none" stroke="#bfbfbf" points="684,-56.5 684,-75.5 762,-75.5 762,-56.5 684,-56.5"/>
<text text-anchor="middle" x="723" y="-63.5" font-family="Helvetica,sans-Serif" font-size="10.00">ext/hash_map</text>
</g>
<!-- Node7&#45;&gt;Node32 -->
<g id="edge32" class="edge"><title>Node7&#45;&gt;Node32</title>
<path fill="none" stroke="midnightblue" d="M1325.88,-119.189C1224.34,-115.047 983.815,-103.169 772.286,-76.0278"/>
<polygon fill="midnightblue" stroke="midnightblue" points="772.603,-72.5397 762.236,-74.7238 771.703,-79.4815 772.603,-72.5397"/>
</g>
<!-- Node33 -->
<g id="node33" class="node"><title>Node33</title>
<polygon fill="none" stroke="#bfbfbf" points="780.5,-56.5 780.5,-75.5 853.5,-75.5 853.5,-56.5 780.5,-56.5"/>
<text text-anchor="middle" x="817" y="-63.5" font-family="Helvetica,sans-Serif" font-size="10.00">ext/hash_set</text>
</g>
<!-- Node7&#45;&gt;Node33 -->
<g id="edge33" class="edge"><title>Node7&#45;&gt;Node33</title>
<path fill="none" stroke="midnightblue" d="M1325.99,-118.498C1236.16,-113.523 1038.97,-100.79 863.697,-76.1109"/>
<polygon fill="midnightblue" stroke="midnightblue" points="864.174,-72.6436 853.78,-74.6983 863.187,-79.5736 864.174,-72.6436"/>
</g>
<!-- Node34 -->
<g id="node34" class="node"><title>Node34</title>
<polygon fill="none" stroke="#bfbfbf" points="871.5,-56.5 871.5,-75.5 942.5,-75.5 942.5,-56.5 871.5,-56.5"/>
<text text-anchor="middle" x="907" y="-63.5" font-family="Helvetica,sans-Serif" font-size="10.00">sys/param.h</text>
</g>
<!-- Node7&#45;&gt;Node34 -->
<g id="edge34" class="edge"><title>Node7&#45;&gt;Node34</title>
<path fill="none" stroke="midnightblue" d="M1325.96,-117.248C1248.8,-111.024 1094.16,-97.2549 952.952,-76.0112"/>
<polygon fill="midnightblue" stroke="midnightblue" points="953.222,-72.5121 942.809,-74.4687 952.169,-79.4325 953.222,-72.5121"/>
</g>
<!-- Node35 -->
<g id="node35" class="node"><title>Node35</title>
<polygon fill="none" stroke="#bfbfbf" points="961,-56.5 961,-75.5 1127,-75.5 1127,-56.5 961,-56.5"/>
<text text-anchor="middle" x="1044" y="-63.5" font-family="Helvetica,sans-Serif" font-size="10.00">CoreFoundation/CoreFoundation.h</text>
</g>
<!-- Node7&#45;&gt;Node35 -->
<g id="edge35" class="edge"><title>Node7&#45;&gt;Node35</title>
<path fill="none" stroke="midnightblue" d="M1325.8,-112.974C1267.34,-103.436 1169.72,-87.5109 1106.11,-77.1324"/>
<polygon fill="midnightblue" stroke="midnightblue" points="1106.63,-73.6721 1096.2,-75.5162 1105.51,-80.5807 1106.63,-73.6721"/>
</g>
<!-- Node36 -->
<g id="node36" class="node"><title>Node36</title>
<polygon fill="none" stroke="#bfbfbf" points="1145,-56.5 1145,-75.5 1269,-75.5 1269,-56.5 1145,-56.5"/>
<text text-anchor="middle" x="1207" y="-63.5" font-family="Helvetica,sans-Serif" font-size="10.00">emscripten/emscripten.h</text>
</g>
<!-- Node7&#45;&gt;Node36 -->
<g id="edge36" class="edge"><title>Node7&#45;&gt;Node36</title>
<path fill="none" stroke="midnightblue" d="M1348.38,-112.444C1319.99,-103.32 1274.86,-88.8133 1243.25,-78.6509"/>
<polygon fill="midnightblue" stroke="midnightblue" points="1244.09,-75.2445 1233.5,-75.5164 1241.94,-81.9087 1244.09,-75.2445"/>
</g>
<!-- Node38 -->
<g id="node38" class="node"><title>Node38</title>
<g id="a_node38"><a xlink:href="_ogre_memory_allocated_object_8h.html" target="_top" xlink:title="OgreMemoryAllocatedObject.h">
<polygon fill="none" stroke="black" points="2314,-56.5 2314,-75.5 2464,-75.5 2464,-56.5 2314,-56.5"/>
<text text-anchor="middle" x="2389" y="-63.5" font-family="Helvetica,sans-Serif" font-size="10.00">OgreMemoryAllocatedObject.h</text>
</a>
</g>
</g>
<!-- Node37&#45;&gt;Node38 -->
<g id="edge38" class="edge"><title>Node37&#45;&gt;Node38</title>
<path fill="none" stroke="midnightblue" d="M2559.83,-112.444C2524.94,-103.162 2469.11,-88.3093 2430.83,-78.127"/>
<polygon fill="midnightblue" stroke="midnightblue" points="2431.58,-74.7048 2421.02,-75.5164 2429.78,-81.4696 2431.58,-74.7048"/>
</g>
<!-- Node39 -->
<g id="node39" class="node"><title>Node39</title>
<g id="a_node39"><a xlink:href="_ogre_header_prefix_8h.html" target="_top" xlink:title="OgreHeaderPrefix.h">
<polygon fill="none" stroke="black" points="2285.5,-0.5 2285.5,-19.5 2388.5,-19.5 2388.5,-0.5 2285.5,-0.5"/>
<text text-anchor="middle" x="2337" y="-7.5" font-family="Helvetica,sans-Serif" font-size="10.00">OgreHeaderPrefix.h</text>
</a>
</g>
</g>
<!-- Node37&#45;&gt;Node39 -->
<g id="edge42" class="edge"><title>Node37&#45;&gt;Node39</title>
<path fill="none" stroke="midnightblue" d="M2517.86,-119.918C2442.11,-117.056 2331.88,-107.427 2305,-76 2292.44,-61.3223 2306.47,-40.865 2319.7,-26.8432"/>
<polygon fill="midnightblue" stroke="midnightblue" points="2322.17,-29.3241 2326.79,-19.7931 2317.23,-24.3583 2322.17,-29.3241"/>
</g>
<!-- Node40 -->
<g id="node40" class="node"><title>Node40</title>
<g id="a_node40"><a xlink:href="_ogre_header_suffix_8h.html" target="_top" xlink:title="OgreHeaderSuffix.h">
<polygon fill="none" stroke="black" points="2638.5,-0.5 2638.5,-19.5 2741.5,-19.5 2741.5,-0.5 2638.5,-0.5"/>
<text text-anchor="middle" x="2690" y="-7.5" font-family="Helvetica,sans-Serif" font-size="10.00">OgreHeaderSuffix.h</text>
</a>
</g>
</g>
<!-- Node37&#45;&gt;Node40 -->
<g id="edge50" class="edge"><title>Node37&#45;&gt;Node40</title>
<path fill="none" stroke="midnightblue" d="M2599.69,-112.368C2616.01,-94.0547 2654.32,-51.0489 2675.42,-27.3624"/>
<polygon fill="midnightblue" stroke="midnightblue" points="2678.31,-29.3863 2682.35,-19.5914 2673.08,-24.7298 2678.31,-29.3863"/>
</g>
<!-- Node41 -->
<g id="node41" class="node"><title>Node41</title>
<g id="a_node41"><a xlink:href="_ogre_memory_s_t_l_allocator_8h.html" target="_top" xlink:title="OgreMemorySTLAllocator.h">
<polygon fill="none" stroke="black" points="2670.5,-56.5 2670.5,-75.5 2807.5,-75.5 2807.5,-56.5 2670.5,-56.5"/>
<text text-anchor="middle" x="2739" y="-63.5" font-family="Helvetica,sans-Serif" font-size="10.00">OgreMemorySTLAllocator.h</text>
</a>
</g>
</g>
<!-- Node37&#45;&gt;Node41 -->
<g id="edge43" class="edge"><title>Node37&#45;&gt;Node41</title>
<path fill="none" stroke="midnightblue" d="M2615.29,-112.444C2639.81,-103.438 2678.6,-89.1891 2706.2,-79.049"/>
<polygon fill="midnightblue" stroke="midnightblue" points="2707.64,-82.25 2715.82,-75.5164 2705.22,-75.6793 2707.64,-82.25"/>
</g>
<!-- Node42 -->
<g id="node42" class="node"><title>Node42</title>
<g id="a_node42"><a xlink:href="_ogre_memory_ned_pooling_8h.html" target="_top" xlink:title="OgreMemoryNedPooling.h">
<polygon fill="none" stroke="black" points="2482.5,-56.5 2482.5,-75.5 2613.5,-75.5 2613.5,-56.5 2482.5,-56.5"/>
<text text-anchor="middle" x="2548" y="-63.5" font-family="Helvetica,sans-Serif" font-size="10.00">OgreMemoryNedPooling.h</text>
</a>
</g>
</g>
<!-- Node37&#45;&gt;Node42 -->
<g id="edge47" class="edge"><title>Node37&#45;&gt;Node42</title>
<path fill="none" stroke="midnightblue" d="M2584.73,-112.083C2578.46,-104.377 2569.21,-93.0333 2561.57,-83.6531"/>
<polygon fill="midnightblue" stroke="midnightblue" points="2564.16,-81.2926 2555.13,-75.7511 2558.73,-85.7143 2564.16,-81.2926"/>
</g>
<!-- Node38&#45;&gt;Node3 -->
<g id="edge39" class="edge"><title>Node38&#45;&gt;Node3</title>
<path fill="none" stroke="midnightblue" d="M2401.71,-75.5806C2422.97,-89.5404 2467.52,-117.103 2509,-132 2564.12,-151.796 2629.97,-163.558 2677.05,-170.061"/>
<polygon fill="midnightblue" stroke="midnightblue" points="2676.73,-173.548 2687.1,-171.409 2677.66,-166.61 2676.73,-173.548"/>
</g>
<!-- Node38&#45;&gt;Node39 -->
<g id="edge40" class="edge"><title>Node38&#45;&gt;Node39</title>
<path fill="none" stroke="midnightblue" d="M2380.41,-56.083C2372.84,-48.2195 2361.62,-36.5688 2352.49,-27.0813"/>
<polygon fill="midnightblue" stroke="midnightblue" points="2354.88,-24.5266 2345.43,-19.7511 2349.84,-29.3821 2354.88,-24.5266"/>
</g>
<!-- Node38&#45;&gt;Node40 -->
<g id="edge41" class="edge"><title>Node38&#45;&gt;Node40</title>
<path fill="none" stroke="midnightblue" d="M2436.69,-56.4435C2489.86,-46.9049 2575.82,-31.4834 2632.63,-21.293"/>
<polygon fill="midnightblue" stroke="midnightblue" points="2633.3,-24.7273 2642.53,-19.5164 2632.07,-17.8373 2633.3,-24.7273"/>
</g>
<!-- Node41&#45;&gt;Node3 -->
<g id="edge44" class="edge"><title>Node41&#45;&gt;Node3</title>
<path fill="none" stroke="midnightblue" d="M2739,-75.5914C2739,-93.3079 2739,-134.254 2739,-158.348"/>
<polygon fill="midnightblue" stroke="midnightblue" points="2735.5,-158.368 2739,-168.368 2742.5,-158.369 2735.5,-158.368"/>
</g>
<!-- Node41&#45;&gt;Node39 -->
<g id="edge45" class="edge"><title>Node41&#45;&gt;Node39</title>
<path fill="none" stroke="midnightblue" d="M2675.3,-56.4435C2599.5,-46.2609 2473.79,-29.3744 2398.82,-19.3041"/>
<polygon fill="midnightblue" stroke="midnightblue" points="2398.97,-15.7923 2388.59,-17.9298 2398.03,-22.73 2398.97,-15.7923"/>
</g>
<!-- Node41&#45;&gt;Node40 -->
<g id="edge46" class="edge"><title>Node41&#45;&gt;Node40</title>
<path fill="none" stroke="midnightblue" d="M2730.91,-56.083C2723.84,-48.2982 2713.41,-36.8015 2704.85,-27.3665"/>
<polygon fill="midnightblue" stroke="midnightblue" points="2707.25,-24.8047 2697.94,-19.7511 2702.07,-29.5087 2707.25,-24.8047"/>
</g>
<!-- Node42&#45;&gt;Node39 -->
<g id="edge48" class="edge"><title>Node42&#45;&gt;Node39</title>
<path fill="none" stroke="midnightblue" d="M2514.57,-56.4435C2478.14,-47.1221 2419.77,-32.1828 2379.97,-21.9972"/>
<polygon fill="midnightblue" stroke="midnightblue" points="2380.83,-18.6051 2370.28,-19.5164 2379.1,-25.3866 2380.83,-18.6051"/>
</g>
<!-- Node42&#45;&gt;Node40 -->
<g id="edge49" class="edge"><title>Node42&#45;&gt;Node40</title>
<path fill="none" stroke="midnightblue" d="M2570.5,-56.4435C2594.08,-47.4776 2631.32,-33.314 2657.96,-23.1827"/>
<polygon fill="midnightblue" stroke="midnightblue" points="2659.5,-26.3424 2667.6,-19.5164 2657.01,-19.7995 2659.5,-26.3424"/>
</g>
<!-- Node43&#45;&gt;Node3 -->
<g id="edge52" class="edge"><title>Node43&#45;&gt;Node3</title>
<path fill="none" stroke="midnightblue" d="M2826.18,-280.159C2824.55,-266.8 2819.87,-241.206 2807,-224 2796.94,-210.554 2781.6,-199.907 2768.04,-192.352"/>
<polygon fill="midnightblue" stroke="midnightblue" points="2769.5,-189.166 2759.02,-187.619 2766.25,-195.364 2769.5,-189.166"/>
</g>
<!-- Node43&#45;&gt;Node39 -->
<g id="edge57" class="edge"><title>Node43&#45;&gt;Node39</title>
<path fill="none" stroke="midnightblue" d="M2767.3,-288.286C2359.46,-283.218 0,-250.795 0,-179 0,-179 0,-179 0,-121 0,-84.8221 16.7819,-72.4571 49,-56 99.9798,-29.9594 1914.66,-14.3262 2275.12,-11.4741"/>
<polygon fill="midnightblue" stroke="midnightblue" points="2275.38,-14.9722 2285.35,-11.3934 2275.33,-7.97242 2275.38,-14.9722"/>
</g>
<!-- Node43&#45;&gt;Node40 -->
<g id="edge58" class="edge"><title>Node43&#45;&gt;Node40</title>
<path fill="none" stroke="midnightblue" d="M2836.64,-280.47C2872.2,-248.033 2990.73,-130.439 2929,-56 2906.92,-29.3696 2815.17,-18.3935 2751.99,-13.9424"/>
<polygon fill="midnightblue" stroke="midnightblue" points="2751.94,-10.4309 2741.73,-13.2581 2751.47,-17.4154 2751.94,-10.4309"/>
</g>
<!-- Node44 -->
<g id="node44" class="node"><title>Node44</title>
<g id="a_node44"><a xlink:href="_ogre_vertex_index_data_8h.html" target="_top" xlink:title="OgreVertexIndexData.h">
<polygon fill="none" stroke="red" points="2679.5,-224.5 2679.5,-243.5 2798.5,-243.5 2798.5,-224.5 2679.5,-224.5"/>
<text text-anchor="middle" x="2739" y="-231.5" font-family="Helvetica,sans-Serif" font-size="10.00">OgreVertexIndexData.h</text>
</a>
</g>
</g>
<!-- Node43&#45;&gt;Node44 -->
<g id="edge53" class="edge"><title>Node43&#45;&gt;Node44</title>
<path fill="none" stroke="midnightblue" d="M2812.86,-280.324C2799.13,-271.9 2778.06,-258.971 2761.94,-249.074"/>
<polygon fill="midnightblue" stroke="midnightblue" points="2763.46,-245.902 2753.1,-243.655 2759.8,-251.868 2763.46,-245.902"/>
</g>
<!-- Node44&#45;&gt;Node3 -->
<g id="edge54" class="edge"><title>Node44&#45;&gt;Node3</title>
<path fill="none" stroke="midnightblue" d="M2739,-224.083C2739,-217.006 2739,-206.861 2739,-197.986"/>
<polygon fill="midnightblue" stroke="midnightblue" points="2742.5,-197.751 2739,-187.751 2735.5,-197.751 2742.5,-197.751"/>
</g>
<!-- Node44&#45;&gt;Node39 -->
<g id="edge55" class="edge"><title>Node44&#45;&gt;Node39</title>
<path fill="none" stroke="midnightblue" d="M2679.45,-231.926C2292.18,-224.649 144.659,-179.683 57,-76 51.2611,-69.212 50.7769,-62.3471 57,-56 96.9373,-15.2667 1913.97,-11.4036 2275.01,-11.0381"/>
<polygon fill="midnightblue" stroke="midnightblue" points="2275.27,-14.5379 2285.27,-11.0282 2275.26,-7.53793 2275.27,-14.5379"/>
</g>
<!-- Node44&#45;&gt;Node40 -->
<g id="edge56" class="edge"><title>Node44&#45;&gt;Node40</title>
<path fill="none" stroke="midnightblue" d="M2759.37,-224.449C2815.64,-199.67 2965.41,-125.178 2909,-56 2889.45,-32.0204 2809.31,-20.4555 2751.63,-15.1426"/>
<polygon fill="midnightblue" stroke="midnightblue" points="2751.77,-11.6414 2741.51,-14.2518 2751.16,-18.6145 2751.77,-11.6414"/>
</g>
<!-- Node45&#45;&gt;Node3 -->
<g id="edge60" class="edge"><title>Node45&#45;&gt;Node3</title>
<path fill="none" stroke="midnightblue" d="M3112.98,-336.495C3088.15,-327.882 3049.1,-313.886 3016,-300 2943.03,-269.39 2927.71,-255.218 2855,-224 2827.39,-212.144 2795.53,-199.883 2772.19,-191.16"/>
<polygon fill="midnightblue" stroke="midnightblue" points="2773.34,-187.854 2762.75,-187.65 2770.9,-194.415 2773.34,-187.854"/>
</g>
<!-- Node46 -->
<g id="node46" class="node"><title>Node46</title>
<polygon fill="none" stroke="#bfbfbf" points="3182.5,-280.5 3182.5,-299.5 3245.5,-299.5 3245.5,-280.5 3182.5,-280.5"/>
<text text-anchor="middle" x="3214" y="-287.5" font-family="Helvetica,sans-Serif" font-size="10.00">windows.h</text>
</g>
<!-- Node45&#45;&gt;Node46 -->
<g id="edge61" class="edge"><title>Node45&#45;&gt;Node46</title>
<path fill="none" stroke="midnightblue" d="M3150.21,-336.324C3161.78,-328.107 3179.38,-315.602 3193.16,-305.807"/>
<polygon fill="midnightblue" stroke="midnightblue" points="3195.44,-308.479 3201.57,-299.834 3191.39,-302.773 3195.44,-308.479"/>
</g>
<!-- Node47 -->
<g id="node47" class="node"><title>Node47</title>
<polygon fill="none" stroke="#bfbfbf" points="3263.5,-280.5 3263.5,-299.5 3316.5,-299.5 3316.5,-280.5 3263.5,-280.5"/>
<text text-anchor="middle" x="3290" y="-287.5" font-family="Helvetica,sans-Serif" font-size="10.00">wingdi.h</text>
</g>
<!-- Node45&#45;&gt;Node47 -->
<g id="edge62" class="edge"><title>Node45&#45;&gt;Node47</title>
<path fill="none" stroke="midnightblue" d="M3162.08,-336.444C3187.54,-327.399 3227.89,-313.064 3256.46,-302.916"/>
<polygon fill="midnightblue" stroke="midnightblue" points="3257.78,-306.162 3266.03,-299.516 3255.43,-299.566 3257.78,-306.162"/>
</g>
<!-- Node48 -->
<g id="node48" class="node"><title>Node48</title>
<polygon fill="none" stroke="#bfbfbf" points="3334.5,-280.5 3334.5,-299.5 3395.5,-299.5 3395.5,-280.5 3334.5,-280.5"/>
<text text-anchor="middle" x="3365" y="-287.5" font-family="Helvetica,sans-Serif" font-size="10.00">GL/glew.h</text>
</g>
<!-- Node45&#45;&gt;Node48 -->
<g id="edge63" class="edge"><title>Node45&#45;&gt;Node48</title>
<path fill="none" stroke="midnightblue" d="M3173.97,-336.444C3214.94,-326.697 3281.73,-310.809 3324.5,-300.635"/>
<polygon fill="midnightblue" stroke="midnightblue" points="3325.38,-304.024 3334.3,-298.304 3323.76,-297.214 3325.38,-304.024"/>
</g>
<!-- Node49 -->
<g id="node49" class="node"><title>Node49</title>
<polygon fill="none" stroke="#bfbfbf" points="3025,-280.5 3025,-299.5 3093,-299.5 3093,-280.5 3025,-280.5"/>
<text text-anchor="middle" x="3059" y="-287.5" font-family="Helvetica,sans-Serif" font-size="10.00">GL/wglew.h</text>
</g>
<!-- Node45&#45;&gt;Node49 -->
<g id="edge64" class="edge"><title>Node45&#45;&gt;Node49</title>
<path fill="none" stroke="midnightblue" d="M3125.31,-336.324C3113.1,-327.979 3094.42,-315.212 3080,-305.352"/>
<polygon fill="midnightblue" stroke="midnightblue" points="3081.89,-302.408 3071.66,-299.655 3077.94,-308.187 3081.89,-302.408"/>
</g>
<!-- Node50 -->
<g id="node50" class="node"><title>Node50</title>
<polygon fill="none" stroke="#bfbfbf" points="3111.5,-280.5 3111.5,-299.5 3164.5,-299.5 3164.5,-280.5 3111.5,-280.5"/>
<text text-anchor="middle" x="3138" y="-287.5" font-family="Helvetica,sans-Serif" font-size="10.00">GL/glu.h</text>
</g>
<!-- Node45&#45;&gt;Node50 -->
<g id="edge65" class="edge"><title>Node45&#45;&gt;Node50</title>
<path fill="none" stroke="midnightblue" d="M3138,-336.083C3138,-329.006 3138,-318.861 3138,-309.986"/>
<polygon fill="midnightblue" stroke="midnightblue" points="3141.5,-309.751 3138,-299.751 3134.5,-309.751 3141.5,-309.751"/>
</g>
</g>
</svg>
