<?xml version="1.0" encoding="UTF-8" standalone="no"?>
<!DOCTYPE svg PUBLIC "-//W3C//DTD SVG 1.1//EN"
 "http://www.w3.org/Graphics/SVG/1.1/DTD/svg11.dtd">
<!-- Generated by graphviz version 2.38.0 (20140413.2041)
 -->
<!-- Title: OgreGLGpuProgramManager.h Pages: 1 -->
<svg width="312pt" height="252pt"
 viewBox="0.00 0.00 312.00 252.00" xmlns="http://www.w3.org/2000/svg" xmlns:xlink="http://www.w3.org/1999/xlink">
<g id="graph0" class="graph" transform="scale(1 1) rotate(0) translate(4 248)">
<title>OgreGLGpuProgramManager.h</title>
<!-- Node1 -->
<g id="node1" class="node"><title>Node1</title>
<polygon fill="#bfbfbf" stroke="black" points="90,-224.5 90,-243.5 241,-243.5 241,-224.5 90,-224.5"/>
<text text-anchor="middle" x="165.5" y="-231.5" font-family="Helvetica,sans-Serif" font-size="10.00">OgreGLGpuProgramManager.h</text>
</g>
<!-- Node2 -->
<g id="node2" class="node"><title>Node2</title>
<g id="a_node2"><a xlink:href="_ogre_g_l_render_system_8h.html" target="_top" xlink:title="OgreGLRenderSystem.h">
<polygon fill="none" stroke="black" points="103.5,-168.5 103.5,-187.5 227.5,-187.5 227.5,-168.5 103.5,-168.5"/>
<text text-anchor="middle" x="165.5" y="-175.5" font-family="Helvetica,sans-Serif" font-size="10.00">OgreGLRenderSystem.h</text>
</a>
</g>
</g>
<!-- Node1&#45;&gt;Node2 -->
<g id="edge1" class="edge"><title>Node1&#45;&gt;Node2</title>
<path fill="none" stroke="midnightblue" d="M165.5,-213.805C165.5,-204.91 165.5,-194.78 165.5,-187.751"/>
<polygon fill="midnightblue" stroke="midnightblue" points="162,-214.083 165.5,-224.083 169,-214.083 162,-214.083"/>
</g>
<!-- Node3 -->
<g id="node3" class="node"><title>Node3</title>
<g id="a_node3"><a xlink:href="_ogre_g_l_support_8h.html" target="_top" xlink:title="OgreGLSupport.h">
<polygon fill="none" stroke="black" points="119.5,-112.5 119.5,-131.5 211.5,-131.5 211.5,-112.5 119.5,-112.5"/>
<text text-anchor="middle" x="165.5" y="-119.5" font-family="Helvetica,sans-Serif" font-size="10.00">OgreGLSupport.h</text>
</a>
</g>
</g>
<!-- Node2&#45;&gt;Node3 -->
<g id="edge2" class="edge"><title>Node2&#45;&gt;Node3</title>
<path fill="none" stroke="midnightblue" d="M165.5,-157.805C165.5,-148.91 165.5,-138.78 165.5,-131.751"/>
<polygon fill="midnightblue" stroke="midnightblue" points="162,-158.083 165.5,-168.083 169,-158.083 162,-158.083"/>
</g>
<!-- Node4 -->
<g id="node4" class="node"><title>Node4</title>
<g id="a_node4"><a xlink:href="_ogre_g_l_a_t_i_f_s_init_8h.html" target="_top" xlink:title="OgreGLATIFSInit.h">
<polygon fill="none" stroke="black" points="0,-56.5 0,-75.5 101,-75.5 101,-56.5 0,-56.5"/>
<text text-anchor="middle" x="50.5" y="-63.5" font-family="Helvetica,sans-Serif" font-size="10.00">OgreGLATIFSInit.h</text>
</a>
</g>
</g>
<!-- Node3&#45;&gt;Node4 -->
<g id="edge3" class="edge"><title>Node3&#45;&gt;Node4</title>
<path fill="none" stroke="midnightblue" d="M138.019,-108.096C116.534,-98.0073 87.2781,-84.2697 68.6368,-75.5164"/>
<polygon fill="midnightblue" stroke="midnightblue" points="136.738,-111.361 147.278,-112.444 139.714,-105.025 136.738,-111.361"/>
</g>
<!-- Node5 -->
<g id="node5" class="node"><title>Node5</title>
<g id="a_node5"><a xlink:href="_ogre_g_l_texture_8h.html" target="_top" xlink:title="OgreGLTexture.h">
<polygon fill="none" stroke="black" points="119.5,-56.5 119.5,-75.5 211.5,-75.5 211.5,-56.5 119.5,-56.5"/>
<text text-anchor="middle" x="165.5" y="-63.5" font-family="Helvetica,sans-Serif" font-size="10.00">OgreGLTexture.h</text>
</a>
</g>
</g>
<!-- Node3&#45;&gt;Node5 -->
<g id="edge4" class="edge"><title>Node3&#45;&gt;Node5</title>
<path fill="none" stroke="midnightblue" d="M165.5,-101.805C165.5,-92.9102 165.5,-82.7798 165.5,-75.7511"/>
<polygon fill="midnightblue" stroke="midnightblue" points="162,-102.083 165.5,-112.083 169,-102.083 162,-102.083"/>
</g>
<!-- Node7 -->
<g id="node7" class="node"><title>Node7</title>
<g id="a_node7"><a xlink:href="_ogre_g_l_texture_manager_8h.html" target="_top" xlink:title="OgreGLTextureManager.h">
<polygon fill="none" stroke="black" points="175,-0.5 175,-19.5 304,-19.5 304,-0.5 175,-0.5"/>
<text text-anchor="middle" x="239.5" y="-7.5" font-family="Helvetica,sans-Serif" font-size="10.00">OgreGLTextureManager.h</text>
</a>
</g>
</g>
<!-- Node3&#45;&gt;Node7 -->
<g id="edge7" class="edge"><title>Node3&#45;&gt;Node7</title>
<path fill="none" stroke="midnightblue" d="M188.673,-106.834C199.746,-98.9934 212.332,-88.3388 220.5,-76 232.311,-58.1573 236.931,-32.8316 238.616,-19.6811"/>
<polygon fill="midnightblue" stroke="midnightblue" points="186.586,-104.019 180.231,-112.496 190.486,-109.832 186.586,-104.019"/>
</g>
<!-- Node6 -->
<g id="node6" class="node"><title>Node6</title>
<g id="a_node6"><a xlink:href="_ogre_g_l_render_texture_8h.html" target="_top" xlink:title="OgreGLRenderTexture.h">
<polygon fill="none" stroke="red" points="34,-0.5 34,-19.5 157,-19.5 157,-0.5 34,-0.5"/>
<text text-anchor="middle" x="95.5" y="-7.5" font-family="Helvetica,sans-Serif" font-size="10.00">OgreGLRenderTexture.h</text>
</a>
</g>
</g>
<!-- Node5&#45;&gt;Node6 -->
<g id="edge5" class="edge"><title>Node5&#45;&gt;Node6</title>
<path fill="none" stroke="midnightblue" d="M146.186,-50.1008C133.588,-40.3824 117.572,-28.0269 106.951,-19.8339"/>
<polygon fill="midnightblue" stroke="midnightblue" points="144.198,-52.9871 154.253,-56.324 148.473,-47.4446 144.198,-52.9871"/>
</g>
<!-- Node5&#45;&gt;Node7 -->
<g id="edge6" class="edge"><title>Node5&#45;&gt;Node7</title>
<path fill="none" stroke="midnightblue" d="M185.534,-50.3804C198.909,-40.6204 216.059,-28.1057 227.394,-19.8339"/>
<polygon fill="midnightblue" stroke="midnightblue" points="183.404,-47.602 177.389,-56.324 187.53,-53.2565 183.404,-47.602"/>
</g>
</g>
</svg>
