<?xml version="1.0" encoding="UTF-8" standalone="no"?>
<!DOCTYPE svg PUBLIC "-//W3C//DTD SVG 1.1//EN"
 "http://www.w3.org/Graphics/SVG/1.1/DTD/svg11.dtd">
<!-- Generated by graphviz version 2.38.0 (20140413.2041)
 -->
<!-- Title: OgreD3D11HardwareVertexBuffer.h Pages: 1 -->
<svg width="2393pt" height="420pt"
 viewBox="0.00 0.00 2393.00 420.00" xmlns="http://www.w3.org/2000/svg" xmlns:xlink="http://www.w3.org/1999/xlink">
<g id="graph0" class="graph" transform="scale(1 1) rotate(0) translate(4 416)">
<title>OgreD3D11HardwareVertexBuffer.h</title>
<!-- Node1 -->
<g id="node1" class="node"><title>Node1</title>
<polygon fill="#bfbfbf" stroke="black" points="1846,-392.5 1846,-411.5 2019,-411.5 2019,-392.5 1846,-392.5"/>
<text text-anchor="middle" x="1932.5" y="-399.5" font-family="Helvetica,sans-Serif" font-size="10.00">OgreD3D11HardwareVertexBuffer.h</text>
</g>
<!-- Node2 -->
<g id="node2" class="node"><title>Node2</title>
<g id="a_node2"><a xlink:href="_ogre_d3_d11_prerequisites_8h.html" target="_top" xlink:title="OgreD3D11Prerequisites.h">
<polygon fill="none" stroke="black" points="1615.5,-224.5 1615.5,-243.5 1749.5,-243.5 1749.5,-224.5 1615.5,-224.5"/>
<text text-anchor="middle" x="1682.5" y="-231.5" font-family="Helvetica,sans-Serif" font-size="10.00">OgreD3D11Prerequisites.h</text>
</a>
</g>
</g>
<!-- Node1&#45;&gt;Node2 -->
<g id="edge1" class="edge"><title>Node1&#45;&gt;Node2</title>
<path fill="none" stroke="midnightblue" d="M1919.41,-392.309C1878.74,-365.304 1754.29,-282.667 1703.96,-249.248"/>
<polygon fill="midnightblue" stroke="midnightblue" points="1705.73,-246.221 1695.46,-243.605 1701.85,-252.053 1705.73,-246.221"/>
</g>
<!-- Node45 -->
<g id="node45" class="node"><title>Node45</title>
<g id="a_node45"><a xlink:href="_ogre_hardware_vertex_buffer_8h.html" target="_top" xlink:title="OgreHardwareVertexBuffer.h">
<polygon fill="none" stroke="black" points="2020,-336.5 2020,-355.5 2163,-355.5 2163,-336.5 2020,-336.5"/>
<text text-anchor="middle" x="2091.5" y="-343.5" font-family="Helvetica,sans-Serif" font-size="10.00">OgreHardwareVertexBuffer.h</text>
</a>
</g>
</g>
<!-- Node1&#45;&gt;Node45 -->
<g id="edge46" class="edge"><title>Node1&#45;&gt;Node45</title>
<path fill="none" stroke="midnightblue" d="M1957.69,-392.444C1984.44,-383.359 2026.9,-368.939 2056.81,-358.783"/>
<polygon fill="midnightblue" stroke="midnightblue" points="2058.08,-362.046 2066.42,-355.516 2055.83,-355.418 2058.08,-362.046"/>
</g>
<!-- Node3 -->
<g id="node3" class="node"><title>Node3</title>
<g id="a_node3"><a xlink:href="_ogre_prerequisites_8h.html" target="_top" xlink:title="OgrePrerequisites.h">
<polygon fill="none" stroke="black" points="1894,-112.5 1894,-131.5 1997,-131.5 1997,-112.5 1894,-112.5"/>
<text text-anchor="middle" x="1945.5" y="-119.5" font-family="Helvetica,sans-Serif" font-size="10.00">OgrePrerequisites.h</text>
</a>
</g>
</g>
<!-- Node2&#45;&gt;Node3 -->
<g id="edge2" class="edge"><title>Node2&#45;&gt;Node3</title>
<path fill="none" stroke="midnightblue" d="M1726.71,-224.493C1760,-217.198 1806.28,-205.133 1844.5,-188 1875.03,-174.317 1906.96,-152.256 1926.54,-137.692"/>
<polygon fill="midnightblue" stroke="midnightblue" points="1928.76,-140.406 1934.63,-131.585 1924.54,-134.822 1928.76,-140.406"/>
</g>
<!-- Node39 -->
<g id="node39" class="node"><title>Node39</title>
<g id="a_node39"><a xlink:href="_ogre_min_g_w_support_8h.html" target="_top" xlink:title="WIN32/OgreMinGWSupport.h">
<polygon fill="none" stroke="black" points="1609.5,-168.5 1609.5,-187.5 1755.5,-187.5 1755.5,-168.5 1609.5,-168.5"/>
<text text-anchor="middle" x="1682.5" y="-175.5" font-family="Helvetica,sans-Serif" font-size="10.00">WIN32/OgreMinGWSupport.h</text>
</a>
</g>
</g>
<!-- Node2&#45;&gt;Node39 -->
<g id="edge39" class="edge"><title>Node2&#45;&gt;Node39</title>
<path fill="none" stroke="midnightblue" d="M1682.5,-224.083C1682.5,-217.006 1682.5,-206.861 1682.5,-197.986"/>
<polygon fill="midnightblue" stroke="midnightblue" points="1686,-197.751 1682.5,-187.751 1679,-197.751 1686,-197.751"/>
</g>
<!-- Node40 -->
<g id="node40" class="node"><title>Node40</title>
<g id="a_node40"><a xlink:href="_ogre_com_ptr_8h.html" target="_top" xlink:title="WIN32/OgreComPtr.h">
<polygon fill="none" stroke="black" points="1378,-168.5 1378,-187.5 1491,-187.5 1491,-168.5 1378,-168.5"/>
<text text-anchor="middle" x="1434.5" y="-175.5" font-family="Helvetica,sans-Serif" font-size="10.00">WIN32/OgreComPtr.h</text>
</a>
</g>
</g>
<!-- Node2&#45;&gt;Node40 -->
<g id="edge40" class="edge"><title>Node2&#45;&gt;Node40</title>
<path fill="none" stroke="midnightblue" d="M1643.2,-224.444C1599.94,-215.023 1530.33,-199.866 1483.53,-189.675"/>
<polygon fill="midnightblue" stroke="midnightblue" points="1484.13,-186.224 1473.61,-187.516 1482.64,-193.064 1484.13,-186.224"/>
</g>
<!-- Node42 -->
<g id="node42" class="node"><title>Node42</title>
<polygon fill="none" stroke="#bfbfbf" points="1773.5,-168.5 1773.5,-187.5 1835.5,-187.5 1835.5,-168.5 1773.5,-168.5"/>
<text text-anchor="middle" x="1804.5" y="-175.5" font-family="Helvetica,sans-Serif" font-size="10.00">d3d11_1.h</text>
</g>
<!-- Node2&#45;&gt;Node42 -->
<g id="edge43" class="edge"><title>Node2&#45;&gt;Node42</title>
<path fill="none" stroke="midnightblue" d="M1701.83,-224.444C1721.82,-215.596 1753.24,-201.687 1776.06,-191.586"/>
<polygon fill="midnightblue" stroke="midnightblue" points="1777.53,-194.764 1785.26,-187.516 1774.7,-188.363 1777.53,-194.764"/>
</g>
<!-- Node43 -->
<g id="node43" class="node"><title>Node43</title>
<polygon fill="none" stroke="#bfbfbf" points="1279.5,-168.5 1279.5,-187.5 1359.5,-187.5 1359.5,-168.5 1279.5,-168.5"/>
<text text-anchor="middle" x="1319.5" y="-175.5" font-family="Helvetica,sans-Serif" font-size="10.00">d3d11shader.h</text>
</g>
<!-- Node2&#45;&gt;Node43 -->
<g id="edge44" class="edge"><title>Node2&#45;&gt;Node43</title>
<path fill="none" stroke="midnightblue" d="M1617.74,-224.476C1556.41,-216.23 1461.47,-203.025 1369.62,-188.131"/>
<polygon fill="midnightblue" stroke="midnightblue" points="1370.02,-184.651 1359.59,-186.496 1368.9,-191.559 1370.02,-184.651"/>
</g>
<!-- Node44 -->
<g id="node44" class="node"><title>Node44</title>
<polygon fill="none" stroke="#bfbfbf" points="1509.5,-168.5 1509.5,-187.5 1591.5,-187.5 1591.5,-168.5 1509.5,-168.5"/>
<text text-anchor="middle" x="1550.5" y="-175.5" font-family="Helvetica,sans-Serif" font-size="10.00">D3Dcompiler.h</text>
</g>
<!-- Node2&#45;&gt;Node44 -->
<g id="edge45" class="edge"><title>Node2&#45;&gt;Node44</title>
<path fill="none" stroke="midnightblue" d="M1661.58,-224.444C1639.76,-215.517 1605.35,-201.439 1580.61,-191.317"/>
<polygon fill="midnightblue" stroke="midnightblue" points="1581.9,-188.063 1571.32,-187.516 1579.25,-194.542 1581.9,-188.063"/>
</g>
<!-- Node4 -->
<g id="node4" class="node"><title>Node4</title>
<g id="a_node4"><a xlink:href="_ogre_platform_8h.html" target="_top" xlink:title="OgrePlatform.h">
<polygon fill="none" stroke="black" points="1911,-56.5 1911,-75.5 1994,-75.5 1994,-56.5 1911,-56.5"/>
<text text-anchor="middle" x="1952.5" y="-63.5" font-family="Helvetica,sans-Serif" font-size="10.00">OgrePlatform.h</text>
</a>
</g>
</g>
<!-- Node3&#45;&gt;Node4 -->
<g id="edge3" class="edge"><title>Node3&#45;&gt;Node4</title>
<path fill="none" stroke="midnightblue" d="M1946.66,-112.083C1947.58,-104.927 1948.92,-94.6353 1950.08,-85.6911"/>
<polygon fill="midnightblue" stroke="midnightblue" points="1953.55,-86.1181 1951.37,-75.7511 1946.61,-85.2181 1953.55,-86.1181"/>
</g>
<!-- Node6 -->
<g id="node6" class="node"><title>Node6</title>
<polygon fill="none" stroke="#bfbfbf" points="0,-0.5 0,-19.5 41,-19.5 41,-0.5 0,-0.5"/>
<text text-anchor="middle" x="20.5" y="-7.5" font-family="Helvetica,sans-Serif" font-size="10.00">string</text>
</g>
<!-- Node3&#45;&gt;Node6 -->
<g id="edge5" class="edge"><title>Node3&#45;&gt;Node6</title>
<path fill="none" stroke="midnightblue" d="M1894,-119.913C1631.52,-114.124 440.31,-84.7791 50.8909,-19.5473"/>
<polygon fill="midnightblue" stroke="midnightblue" points="51.4495,-16.0921 41.0019,-17.8527 50.2671,-22.9916 51.4495,-16.0921"/>
</g>
<!-- Node7 -->
<g id="node7" class="node"><title>Node7</title>
<g id="a_node7"><a xlink:href="_ogre_std_headers_8h.html" target="_top" xlink:title="OgreStdHeaders.h">
<polygon fill="none" stroke="red" points="1146.5,-56.5 1146.5,-75.5 1244.5,-75.5 1244.5,-56.5 1146.5,-56.5"/>
<text text-anchor="middle" x="1195.5" y="-63.5" font-family="Helvetica,sans-Serif" font-size="10.00">OgreStdHeaders.h</text>
</a>
</g>
</g>
<!-- Node3&#45;&gt;Node7 -->
<g id="edge6" class="edge"><title>Node3&#45;&gt;Node7</title>
<path fill="none" stroke="midnightblue" d="M1893.95,-117.288C1759.47,-107.606 1398.54,-81.6189 1255.29,-71.3046"/>
<polygon fill="midnightblue" stroke="midnightblue" points="1255.17,-67.7875 1244.95,-70.5602 1254.67,-74.7694 1255.17,-67.7875"/>
</g>
<!-- Node36 -->
<g id="node36" class="node"><title>Node36</title>
<g id="a_node36"><a xlink:href="_ogre_memory_allocator_config_8h.html" target="_top" xlink:title="This file configures Ogre&#39;s memory allocators. ">
<polygon fill="none" stroke="red" points="2036.5,-56.5 2036.5,-75.5 2184.5,-75.5 2184.5,-56.5 2036.5,-56.5"/>
<text text-anchor="middle" x="2110.5" y="-63.5" font-family="Helvetica,sans-Serif" font-size="10.00">OgreMemoryAllocatorConfig.h</text>
</a>
</g>
</g>
<!-- Node3&#45;&gt;Node36 -->
<g id="edge36" class="edge"><title>Node3&#45;&gt;Node36</title>
<path fill="none" stroke="midnightblue" d="M1971.64,-112.444C1999.52,-103.32 2043.85,-88.8133 2074.9,-78.6509"/>
<polygon fill="midnightblue" stroke="midnightblue" points="2076.06,-81.9533 2084.48,-75.5164 2073.88,-75.3005 2076.06,-81.9533"/>
</g>
<!-- Node5 -->
<g id="node5" class="node"><title>Node5</title>
<g id="a_node5"><a xlink:href="_ogre_config_8h.html" target="_top" xlink:title="OgreConfig.h">
<polygon fill="none" stroke="red" points="2068.5,-0.5 2068.5,-19.5 2142.5,-19.5 2142.5,-0.5 2068.5,-0.5"/>
<text text-anchor="middle" x="2105.5" y="-7.5" font-family="Helvetica,sans-Serif" font-size="10.00">OgreConfig.h</text>
</a>
</g>
</g>
<!-- Node4&#45;&gt;Node5 -->
<g id="edge4" class="edge"><title>Node4&#45;&gt;Node5</title>
<path fill="none" stroke="midnightblue" d="M1976.74,-56.4435C2002.37,-47.3986 2042.99,-33.064 2071.74,-22.9158"/>
<polygon fill="midnightblue" stroke="midnightblue" points="2073.11,-26.1452 2081.37,-19.5164 2070.78,-19.5442 2073.11,-26.1452"/>
</g>
<!-- Node7&#45;&gt;Node6 -->
<g id="edge16" class="edge"><title>Node7&#45;&gt;Node6</title>
<path fill="none" stroke="midnightblue" d="M1146.42,-64.7154C958.823,-63.3767 286.326,-56.217 51.5014,-19.6299"/>
<polygon fill="midnightblue" stroke="midnightblue" points="51.7532,-16.1251 41.3218,-17.9786 50.6323,-23.0347 51.7532,-16.1251"/>
</g>
<!-- Node8 -->
<g id="node8" class="node"><title>Node8</title>
<polygon fill="none" stroke="#bfbfbf" points="889,-0.5 889,-19.5 938,-19.5 938,-0.5 889,-0.5"/>
<text text-anchor="middle" x="913.5" y="-7.5" font-family="Helvetica,sans-Serif" font-size="10.00">cassert</text>
</g>
<!-- Node7&#45;&gt;Node8 -->
<g id="edge7" class="edge"><title>Node7&#45;&gt;Node8</title>
<path fill="none" stroke="midnightblue" d="M1146.11,-57.3814C1097.85,-49.6449 1022.12,-36.7303 948.245,-20.256"/>
<polygon fill="midnightblue" stroke="midnightblue" points="948.833,-16.8008 938.308,-18.0157 947.293,-23.6294 948.833,-16.8008"/>
</g>
<!-- Node9 -->
<g id="node9" class="node"><title>Node9</title>
<polygon fill="none" stroke="#bfbfbf" points="956,-0.5 956,-19.5 999,-19.5 999,-0.5 956,-0.5"/>
<text text-anchor="middle" x="977.5" y="-7.5" font-family="Helvetica,sans-Serif" font-size="10.00">cstdio</text>
</g>
<!-- Node7&#45;&gt;Node9 -->
<g id="edge8" class="edge"><title>Node7&#45;&gt;Node9</title>
<path fill="none" stroke="midnightblue" d="M1157.17,-56.4936C1121.15,-48.351 1065.53,-35.398 1008.92,-20.2803"/>
<polygon fill="midnightblue" stroke="midnightblue" points="1009.65,-16.8538 999.088,-17.6354 1007.84,-23.6134 1009.65,-16.8538"/>
</g>
<!-- Node10 -->
<g id="node10" class="node"><title>Node10</title>
<polygon fill="none" stroke="#bfbfbf" points="1017,-0.5 1017,-19.5 1062,-19.5 1062,-0.5 1017,-0.5"/>
<text text-anchor="middle" x="1039.5" y="-7.5" font-family="Helvetica,sans-Serif" font-size="10.00">cstdlib</text>
</g>
<!-- Node7&#45;&gt;Node10 -->
<g id="edge9" class="edge"><title>Node7&#45;&gt;Node10</title>
<path fill="none" stroke="midnightblue" d="M1170.78,-56.4435C1144.04,-47.1858 1101.28,-32.3866 1071.87,-22.2066"/>
<polygon fill="midnightblue" stroke="midnightblue" points="1072.67,-18.7788 1062.08,-18.8151 1070.38,-25.3937 1072.67,-18.7788"/>
</g>
<!-- Node11 -->
<g id="node11" class="node"><title>Node11</title>
<polygon fill="none" stroke="#bfbfbf" points="1080,-0.5 1080,-19.5 1121,-19.5 1121,-0.5 1080,-0.5"/>
<text text-anchor="middle" x="1100.5" y="-7.5" font-family="Helvetica,sans-Serif" font-size="10.00">ctime</text>
</g>
<!-- Node7&#45;&gt;Node11 -->
<g id="edge10" class="edge"><title>Node7&#45;&gt;Node11</title>
<path fill="none" stroke="midnightblue" d="M1180.24,-56.324C1165.28,-47.8215 1142.25,-34.7288 1124.77,-24.7975"/>
<polygon fill="midnightblue" stroke="midnightblue" points="1126.15,-21.5534 1115.73,-19.6545 1122.69,-27.639 1126.15,-21.5534"/>
</g>
<!-- Node12 -->
<g id="node12" class="node"><title>Node12</title>
<polygon fill="none" stroke="#bfbfbf" points="1139.5,-0.5 1139.5,-19.5 1185.5,-19.5 1185.5,-0.5 1139.5,-0.5"/>
<text text-anchor="middle" x="1162.5" y="-7.5" font-family="Helvetica,sans-Serif" font-size="10.00">cstring</text>
</g>
<!-- Node7&#45;&gt;Node12 -->
<g id="edge11" class="edge"><title>Node7&#45;&gt;Node12</title>
<path fill="none" stroke="midnightblue" d="M1190.05,-56.083C1185.49,-48.6127 1178.83,-37.7244 1173.21,-28.5199"/>
<polygon fill="midnightblue" stroke="midnightblue" points="1176.05,-26.4588 1167.85,-19.7511 1170.08,-30.109 1176.05,-26.4588"/>
</g>
<!-- Node13 -->
<g id="node13" class="node"><title>Node13</title>
<polygon fill="none" stroke="#bfbfbf" points="1204,-0.5 1204,-19.5 1253,-19.5 1253,-0.5 1204,-0.5"/>
<text text-anchor="middle" x="1228.5" y="-7.5" font-family="Helvetica,sans-Serif" font-size="10.00">cstdarg</text>
</g>
<!-- Node7&#45;&gt;Node13 -->
<g id="edge12" class="edge"><title>Node7&#45;&gt;Node13</title>
<path fill="none" stroke="midnightblue" d="M1200.95,-56.083C1205.51,-48.6127 1212.17,-37.7244 1217.79,-28.5199"/>
<polygon fill="midnightblue" stroke="midnightblue" points="1220.92,-30.109 1223.15,-19.7511 1214.95,-26.4588 1220.92,-30.109"/>
</g>
<!-- Node14 -->
<g id="node14" class="node"><title>Node14</title>
<polygon fill="none" stroke="#bfbfbf" points="1271.5,-0.5 1271.5,-19.5 1315.5,-19.5 1315.5,-0.5 1271.5,-0.5"/>
<text text-anchor="middle" x="1293.5" y="-7.5" font-family="Helvetica,sans-Serif" font-size="10.00">cmath</text>
</g>
<!-- Node7&#45;&gt;Node14 -->
<g id="edge13" class="edge"><title>Node7&#45;&gt;Node14</title>
<path fill="none" stroke="midnightblue" d="M1211.25,-56.324C1226.82,-47.7428 1250.88,-34.486 1268.96,-24.5224"/>
<polygon fill="midnightblue" stroke="midnightblue" points="1270.72,-27.546 1277.79,-19.6545 1267.35,-21.4152 1270.72,-27.546"/>
</g>
<!-- Node15 -->
<g id="node15" class="node"><title>Node15</title>
<polygon fill="none" stroke="#bfbfbf" points="1333.5,-0.5 1333.5,-19.5 1377.5,-19.5 1377.5,-0.5 1333.5,-0.5"/>
<text text-anchor="middle" x="1355.5" y="-7.5" font-family="Helvetica,sans-Serif" font-size="10.00">vector</text>
</g>
<!-- Node7&#45;&gt;Node15 -->
<g id="edge14" class="edge"><title>Node7&#45;&gt;Node15</title>
<path fill="none" stroke="midnightblue" d="M1220.85,-56.4435C1248.72,-47.0385 1293.53,-31.9142 1323.72,-21.7242"/>
<polygon fill="midnightblue" stroke="midnightblue" points="1325,-24.9871 1333.36,-18.473 1322.76,-18.3546 1325,-24.9871"/>
</g>
<!-- Node16 -->
<g id="node16" class="node"><title>Node16</title>
<polygon fill="none" stroke="#bfbfbf" points="1396,-0.5 1396,-19.5 1431,-19.5 1431,-0.5 1396,-0.5"/>
<text text-anchor="middle" x="1413.5" y="-7.5" font-family="Helvetica,sans-Serif" font-size="10.00">map</text>
</g>
<!-- Node7&#45;&gt;Node16 -->
<g id="edge15" class="edge"><title>Node7&#45;&gt;Node16</title>
<path fill="none" stroke="midnightblue" d="M1236.39,-56.4882C1273.12,-48.591 1328.72,-36.0274 1385.91,-19.9601"/>
<polygon fill="midnightblue" stroke="midnightblue" points="1387.19,-23.236 1395.85,-17.1366 1385.28,-16.5024 1387.19,-23.236"/>
</g>
<!-- Node17 -->
<g id="node17" class="node"><title>Node17</title>
<polygon fill="none" stroke="#bfbfbf" points="1449.5,-0.5 1449.5,-19.5 1479.5,-19.5 1479.5,-0.5 1449.5,-0.5"/>
<text text-anchor="middle" x="1464.5" y="-7.5" font-family="Helvetica,sans-Serif" font-size="10.00">set</text>
</g>
<!-- Node7&#45;&gt;Node17 -->
<g id="edge17" class="edge"><title>Node7&#45;&gt;Node17</title>
<path fill="none" stroke="midnightblue" d="M1244.63,-58.348C1294.29,-51.0648 1372.97,-37.9822 1439.5,-20 1439.6,-19.9729 1439.7,-19.9456 1439.8,-19.9181"/>
<polygon fill="midnightblue" stroke="midnightblue" points="1440.81,-23.2707 1449.29,-16.9217 1438.7,-16.5957 1440.81,-23.2707"/>
</g>
<!-- Node18 -->
<g id="node18" class="node"><title>Node18</title>
<polygon fill="none" stroke="#bfbfbf" points="1498,-0.5 1498,-19.5 1527,-19.5 1527,-0.5 1498,-0.5"/>
<text text-anchor="middle" x="1512.5" y="-7.5" font-family="Helvetica,sans-Serif" font-size="10.00">list</text>
</g>
<!-- Node7&#45;&gt;Node18 -->
<g id="edge18" class="edge"><title>Node7&#45;&gt;Node18</title>
<path fill="none" stroke="midnightblue" d="M1244.6,-60.5859C1301.25,-54.8041 1397.18,-42.8964 1488.02,-19.6014"/>
<polygon fill="midnightblue" stroke="midnightblue" points="1489.14,-22.9265 1497.93,-17.0094 1487.37,-16.1544 1489.14,-22.9265"/>
</g>
<!-- Node19 -->
<g id="node19" class="node"><title>Node19</title>
<polygon fill="none" stroke="#bfbfbf" points="1545,-0.5 1545,-19.5 1588,-19.5 1588,-0.5 1545,-0.5"/>
<text text-anchor="middle" x="1566.5" y="-7.5" font-family="Helvetica,sans-Serif" font-size="10.00">deque</text>
</g>
<!-- Node7&#45;&gt;Node19 -->
<g id="edge19" class="edge"><title>Node7&#45;&gt;Node19</title>
<path fill="none" stroke="midnightblue" d="M1244.59,-60.8489C1309.1,-54.8781 1425.99,-42.2811 1535.07,-19.7795"/>
<polygon fill="midnightblue" stroke="midnightblue" points="1535.86,-23.1913 1544.92,-17.715 1534.42,-16.34 1535.86,-23.1913"/>
</g>
<!-- Node20 -->
<g id="node20" class="node"><title>Node20</title>
<polygon fill="none" stroke="#bfbfbf" points="1606,-0.5 1606,-19.5 1649,-19.5 1649,-0.5 1606,-0.5"/>
<text text-anchor="middle" x="1627.5" y="-7.5" font-family="Helvetica,sans-Serif" font-size="10.00">queue</text>
</g>
<!-- Node7&#45;&gt;Node20 -->
<g id="edge20" class="edge"><title>Node7&#45;&gt;Node20</title>
<path fill="none" stroke="midnightblue" d="M1244.68,-62.1948C1318.86,-57.3706 1463.83,-45.6349 1596.04,-19.7415"/>
<polygon fill="midnightblue" stroke="midnightblue" points="1596.81,-23.1557 1605.94,-17.7708 1595.45,-16.2904 1596.81,-23.1557"/>
</g>
<!-- Node21 -->
<g id="node21" class="node"><title>Node21</title>
<polygon fill="none" stroke="#bfbfbf" points="1667,-0.5 1667,-19.5 1708,-19.5 1708,-0.5 1667,-0.5"/>
<text text-anchor="middle" x="1687.5" y="-7.5" font-family="Helvetica,sans-Serif" font-size="10.00">bitset</text>
</g>
<!-- Node7&#45;&gt;Node21 -->
<g id="edge21" class="edge"><title>Node7&#45;&gt;Node21</title>
<path fill="none" stroke="midnightblue" d="M1244.51,-63.3528C1327.54,-59.8836 1501.18,-49.6996 1656.76,-19.7333"/>
<polygon fill="midnightblue" stroke="midnightblue" points="1657.84,-23.0883 1666.98,-17.7307 1656.49,-16.2189 1657.84,-23.0883"/>
</g>
<!-- Node22 -->
<g id="node22" class="node"><title>Node22</title>
<polygon fill="none" stroke="#bfbfbf" points="1726.5,-0.5 1726.5,-19.5 1782.5,-19.5 1782.5,-0.5 1726.5,-0.5"/>
<text text-anchor="middle" x="1754.5" y="-7.5" font-family="Helvetica,sans-Serif" font-size="10.00">algorithm</text>
</g>
<!-- Node7&#45;&gt;Node22 -->
<g id="edge22" class="edge"><title>Node7&#45;&gt;Node22</title>
<path fill="none" stroke="midnightblue" d="M1244.64,-63.1551C1337.39,-59.1429 1544.4,-47.6607 1716.5,-20 1716.6,-19.9839 1716.7,-19.9676 1716.8,-19.9512"/>
<polygon fill="midnightblue" stroke="midnightblue" points="1717.19,-23.4394 1726.37,-18.1467 1715.89,-16.5606 1717.19,-23.4394"/>
</g>
<!-- Node23 -->
<g id="node23" class="node"><title>Node23</title>
<polygon fill="none" stroke="#bfbfbf" points="1801,-0.5 1801,-19.5 1860,-19.5 1860,-0.5 1801,-0.5"/>
<text text-anchor="middle" x="1830.5" y="-7.5" font-family="Helvetica,sans-Serif" font-size="10.00">functional</text>
</g>
<!-- Node7&#45;&gt;Node23 -->
<g id="edge23" class="edge"><title>Node7&#45;&gt;Node23</title>
<path fill="none" stroke="midnightblue" d="M1244.84,-63.799C1345.67,-60.8001 1582.62,-50.9633 1790.88,-19.845"/>
<polygon fill="midnightblue" stroke="midnightblue" points="1791.42,-23.3045 1800.78,-18.3471 1790.37,-16.3834 1791.42,-23.3045"/>
</g>
<!-- Node24 -->
<g id="node24" class="node"><title>Node24</title>
<polygon fill="none" stroke="#bfbfbf" points="1878.5,-0.5 1878.5,-19.5 1918.5,-19.5 1918.5,-0.5 1878.5,-0.5"/>
<text text-anchor="middle" x="1898.5" y="-7.5" font-family="Helvetica,sans-Serif" font-size="10.00">limits</text>
</g>
<!-- Node7&#45;&gt;Node24 -->
<g id="edge24" class="edge"><title>Node7&#45;&gt;Node24</title>
<path fill="none" stroke="midnightblue" d="M1244.52,-65.4709C1356.21,-65.7301 1637.76,-61.7765 1868.5,-20 1868.6,-19.9818 1868.7,-19.9635 1868.8,-19.9449"/>
<polygon fill="midnightblue" stroke="midnightblue" points="1869.37,-23.4056 1878.32,-17.7264 1867.78,-16.5884 1869.37,-23.4056"/>
</g>
<!-- Node25 -->
<g id="node25" class="node"><title>Node25</title>
<polygon fill="none" stroke="#bfbfbf" points="1936.5,-0.5 1936.5,-19.5 1986.5,-19.5 1986.5,-0.5 1936.5,-0.5"/>
<text text-anchor="middle" x="1961.5" y="-7.5" font-family="Helvetica,sans-Serif" font-size="10.00">fstream</text>
</g>
<!-- Node7&#45;&gt;Node25 -->
<g id="edge25" class="edge"><title>Node7&#45;&gt;Node25</title>
<path fill="none" stroke="midnightblue" d="M1244.7,-65.3103C1361.59,-65.3343 1665.13,-61.2053 1926.31,-19.8577"/>
<polygon fill="midnightblue" stroke="midnightblue" points="1927.05,-23.2847 1936.37,-18.2442 1925.94,-16.3731 1927.05,-23.2847"/>
</g>
<!-- Node26 -->
<g id="node26" class="node"><title>Node26</title>
<polygon fill="none" stroke="#bfbfbf" points="2005,-0.5 2005,-19.5 2050,-19.5 2050,-0.5 2005,-0.5"/>
<text text-anchor="middle" x="2027.5" y="-7.5" font-family="Helvetica,sans-Serif" font-size="10.00">iosfwd</text>
</g>
<!-- Node7&#45;&gt;Node26 -->
<g id="edge26" class="edge"><title>Node7&#45;&gt;Node26</title>
<path fill="none" stroke="midnightblue" d="M1244.58,-63.641C1392.18,-59.3381 1831.28,-44.8979 1995,-19.6129"/>
<polygon fill="midnightblue" stroke="midnightblue" points="1995.6,-23.061 2004.91,-18.0104 1994.48,-16.1507 1995.6,-23.061"/>
</g>
<!-- Node27 -->
<g id="node27" class="node"><title>Node27</title>
<polygon fill="none" stroke="#bfbfbf" points="59.5,-0.5 59.5,-19.5 111.5,-19.5 111.5,-0.5 59.5,-0.5"/>
<text text-anchor="middle" x="85.5" y="-7.5" font-family="Helvetica,sans-Serif" font-size="10.00">sstream</text>
</g>
<!-- Node7&#45;&gt;Node27 -->
<g id="edge27" class="edge"><title>Node7&#45;&gt;Node27</title>
<path fill="none" stroke="midnightblue" d="M1146.37,-64.312C966.36,-61.5818 342.415,-50.2229 121.943,-19.8418"/>
<polygon fill="midnightblue" stroke="midnightblue" points="122.148,-16.3355 111.752,-18.3807 121.154,-23.2646 122.148,-16.3355"/>
</g>
<!-- Node28 -->
<g id="node28" class="node"><title>Node28</title>
<polygon fill="none" stroke="#bfbfbf" points="129.5,-0.5 129.5,-19.5 197.5,-19.5 197.5,-0.5 129.5,-0.5"/>
<text text-anchor="middle" x="163.5" y="-7.5" font-family="Helvetica,sans-Serif" font-size="10.00">sys/types.h</text>
</g>
<!-- Node7&#45;&gt;Node28 -->
<g id="edge28" class="edge"><title>Node7&#45;&gt;Node28</title>
<path fill="none" stroke="midnightblue" d="M1146.38,-65.5497C1003.04,-66.5623 572.882,-65.3973 207.655,-19.9268"/>
<polygon fill="midnightblue" stroke="midnightblue" points="208.042,-16.448 197.684,-18.6723 207.169,-23.3933 208.042,-16.448"/>
</g>
<!-- Node29 -->
<g id="node29" class="node"><title>Node29</title>
<polygon fill="none" stroke="#bfbfbf" points="215.5,-0.5 215.5,-19.5 275.5,-19.5 275.5,-0.5 215.5,-0.5"/>
<text text-anchor="middle" x="245.5" y="-7.5" font-family="Helvetica,sans-Serif" font-size="10.00">sys/stat.h</text>
</g>
<!-- Node7&#45;&gt;Node29 -->
<g id="edge29" class="edge"><title>Node7&#45;&gt;Node29</title>
<path fill="none" stroke="midnightblue" d="M1146.33,-65.6247C1010.6,-66.6996 619.267,-65.416 285.975,-19.9384"/>
<polygon fill="midnightblue" stroke="midnightblue" points="286.02,-16.4115 275.635,-18.5106 285.062,-23.3457 286.02,-16.4115"/>
</g>
<!-- Node30 -->
<g id="node30" class="node"><title>Node30</title>
<polygon fill="none" stroke="#bfbfbf" points="294,-0.5 294,-19.5 345,-19.5 345,-0.5 294,-0.5"/>
<text text-anchor="middle" x="319.5" y="-7.5" font-family="Helvetica,sans-Serif" font-size="10.00">unistd.h</text>
</g>
<!-- Node7&#45;&gt;Node30 -->
<g id="edge30" class="edge"><title>Node7&#45;&gt;Node30</title>
<path fill="none" stroke="midnightblue" d="M1146.42,-63.6525C993.706,-59.2628 527.472,-44.3216 355.309,-19.7433"/>
<polygon fill="midnightblue" stroke="midnightblue" points="355.782,-16.2752 345.375,-18.263 354.75,-23.1987 355.782,-16.2752"/>
</g>
<!-- Node31 -->
<g id="node31" class="node"><title>Node31</title>
<polygon fill="none" stroke="#bfbfbf" points="363.5,-0.5 363.5,-19.5 409.5,-19.5 409.5,-0.5 363.5,-0.5"/>
<text text-anchor="middle" x="386.5" y="-7.5" font-family="Helvetica,sans-Serif" font-size="10.00">dlfcn.h</text>
</g>
<!-- Node7&#45;&gt;Node31 -->
<g id="edge31" class="edge"><title>Node7&#45;&gt;Node31</title>
<path fill="none" stroke="midnightblue" d="M1146.27,-63.5421C1001.54,-59.0411 578.233,-44.2796 419.831,-19.8041"/>
<polygon fill="midnightblue" stroke="midnightblue" points="420.217,-16.3211 409.786,-18.1779 419.099,-23.2311 420.217,-16.3211"/>
</g>
<!-- Node32 -->
<g id="node32" class="node"><title>Node32</title>
<polygon fill="none" stroke="#bfbfbf" points="427.5,-0.5 427.5,-19.5 505.5,-19.5 505.5,-0.5 427.5,-0.5"/>
<text text-anchor="middle" x="466.5" y="-7.5" font-family="Helvetica,sans-Serif" font-size="10.00">ext/hash_map</text>
</g>
<!-- Node7&#45;&gt;Node32 -->
<g id="edge32" class="edge"><title>Node7&#45;&gt;Node32</title>
<path fill="none" stroke="midnightblue" d="M1146.17,-63.7581C1035.25,-60.5317 757.628,-50.0308 515.769,-20.0104"/>
<polygon fill="midnightblue" stroke="midnightblue" points="516.091,-16.5234 505.733,-18.7508 515.219,-23.469 516.091,-16.5234"/>
</g>
<!-- Node33 -->
<g id="node33" class="node"><title>Node33</title>
<polygon fill="none" stroke="#bfbfbf" points="524,-0.5 524,-19.5 597,-19.5 597,-0.5 524,-0.5"/>
<text text-anchor="middle" x="560.5" y="-7.5" font-family="Helvetica,sans-Serif" font-size="10.00">ext/hash_set</text>
</g>
<!-- Node7&#45;&gt;Node33 -->
<g id="edge33" class="edge"><title>Node7&#45;&gt;Node33</title>
<path fill="none" stroke="midnightblue" d="M1146.33,-63.2666C1046.48,-59.3103 812.662,-47.8285 607.339,-20.1078"/>
<polygon fill="midnightblue" stroke="midnightblue" points="607.657,-16.6188 597.275,-18.7327 606.709,-23.5543 607.657,-16.6188"/>
</g>
<!-- Node34 -->
<g id="node34" class="node"><title>Node34</title>
<polygon fill="none" stroke="#bfbfbf" points="615,-0.5 615,-19.5 686,-19.5 686,-0.5 615,-0.5"/>
<text text-anchor="middle" x="650.5" y="-7.5" font-family="Helvetica,sans-Serif" font-size="10.00">sys/param.h</text>
</g>
<!-- Node7&#45;&gt;Node34 -->
<g id="edge34" class="edge"><title>Node7&#45;&gt;Node34</title>
<path fill="none" stroke="midnightblue" d="M1146.33,-62.3354C1058.17,-57.1754 867.275,-44.261 696.239,-19.9503"/>
<polygon fill="midnightblue" stroke="midnightblue" points="696.698,-16.4803 686.301,-18.5216 695.701,-23.4091 696.698,-16.4803"/>
</g>
<!-- Node35 -->
<g id="node35" class="node"><title>Node35</title>
<polygon fill="none" stroke="#bfbfbf" points="704.5,-0.5 704.5,-19.5 870.5,-19.5 870.5,-0.5 704.5,-0.5"/>
<text text-anchor="middle" x="787.5" y="-7.5" font-family="Helvetica,sans-Serif" font-size="10.00">CoreFoundation/CoreFoundation.h</text>
</g>
<!-- Node7&#45;&gt;Node35 -->
<g id="edge35" class="edge"><title>Node7&#45;&gt;Node35</title>
<path fill="none" stroke="midnightblue" d="M1146.29,-58.4863C1075.58,-49.1287 944.707,-31.8069 862.081,-20.871"/>
<polygon fill="midnightblue" stroke="midnightblue" points="862.375,-17.3794 852.002,-19.537 861.456,-24.3189 862.375,-17.3794"/>
</g>
<!-- Node37 -->
<g id="node37" class="node"><title>Node37</title>
<g id="a_node37"><a xlink:href="_ogre_header_prefix_8h.html" target="_top" xlink:title="OgreHeaderPrefix.h">
<polygon fill="none" stroke="black" points="2161,-0.5 2161,-19.5 2264,-19.5 2264,-0.5 2161,-0.5"/>
<text text-anchor="middle" x="2212.5" y="-7.5" font-family="Helvetica,sans-Serif" font-size="10.00">OgreHeaderPrefix.h</text>
</a>
</g>
</g>
<!-- Node36&#45;&gt;Node37 -->
<g id="edge37" class="edge"><title>Node36&#45;&gt;Node37</title>
<path fill="none" stroke="midnightblue" d="M2126.89,-56.324C2143.17,-47.7034 2168.37,-34.3643 2187.22,-24.3855"/>
<polygon fill="midnightblue" stroke="midnightblue" points="2188.95,-27.4267 2196.15,-19.6545 2185.68,-21.2402 2188.95,-27.4267"/>
</g>
<!-- Node38 -->
<g id="node38" class="node"><title>Node38</title>
<g id="a_node38"><a xlink:href="_ogre_header_suffix_8h.html" target="_top" xlink:title="OgreHeaderSuffix.h">
<polygon fill="none" stroke="black" points="2282,-0.5 2282,-19.5 2385,-19.5 2385,-0.5 2282,-0.5"/>
<text text-anchor="middle" x="2333.5" y="-7.5" font-family="Helvetica,sans-Serif" font-size="10.00">OgreHeaderSuffix.h</text>
</a>
</g>
</g>
<!-- Node36&#45;&gt;Node38 -->
<g id="edge38" class="edge"><title>Node36&#45;&gt;Node38</title>
<path fill="none" stroke="midnightblue" d="M2145.84,-56.4435C2184.41,-47.1024 2246.28,-32.1194 2288.35,-21.9326"/>
<polygon fill="midnightblue" stroke="midnightblue" points="2289.43,-25.2717 2298.33,-19.5164 2287.79,-18.4683 2289.43,-25.2717"/>
</g>
<!-- Node40&#45;&gt;Node3 -->
<g id="edge41" class="edge"><title>Node40&#45;&gt;Node3</title>
<path fill="none" stroke="midnightblue" d="M1491.01,-169.163C1494.22,-168.759 1497.4,-168.368 1500.5,-168 1637.02,-151.794 1797.56,-136.48 1883.59,-128.575"/>
<polygon fill="midnightblue" stroke="midnightblue" points="1884.07,-132.047 1893.71,-127.649 1883.43,-125.076 1884.07,-132.047"/>
</g>
<!-- Node41 -->
<g id="node41" class="node"><title>Node41</title>
<polygon fill="none" stroke="#bfbfbf" points="1405,-112.5 1405,-131.5 1464,-131.5 1464,-112.5 1405,-112.5"/>
<text text-anchor="middle" x="1434.5" y="-119.5" font-family="Helvetica,sans-Serif" font-size="10.00">winerror.h</text>
</g>
<!-- Node40&#45;&gt;Node41 -->
<g id="edge42" class="edge"><title>Node40&#45;&gt;Node41</title>
<path fill="none" stroke="midnightblue" d="M1434.5,-168.083C1434.5,-161.006 1434.5,-150.861 1434.5,-141.986"/>
<polygon fill="midnightblue" stroke="midnightblue" points="1438,-141.751 1434.5,-131.751 1431,-141.751 1438,-141.751"/>
</g>
<!-- Node45&#45;&gt;Node3 -->
<g id="edge47" class="edge"><title>Node45&#45;&gt;Node3</title>
<path fill="none" stroke="midnightblue" d="M2028.71,-336.472C1985.94,-329.228 1934.77,-317.238 1921.5,-300 1884.83,-252.361 1917.46,-175.37 1935.46,-140.801"/>
<polygon fill="midnightblue" stroke="midnightblue" points="1938.61,-142.335 1940.29,-131.874 1932.45,-139.009 1938.61,-142.335"/>
</g>
<!-- Node45&#45;&gt;Node37 -->
<g id="edge61" class="edge"><title>Node45&#45;&gt;Node37</title>
<path fill="none" stroke="midnightblue" d="M2140.61,-336.467C2193.3,-324.163 2269.5,-295.849 2269.5,-235 2269.5,-235 2269.5,-235 2269.5,-121 2269.5,-84.3005 2244.18,-47.6567 2227.29,-27.2973"/>
<polygon fill="midnightblue" stroke="midnightblue" points="2229.85,-24.9037 2220.67,-19.6161 2224.55,-29.475 2229.85,-24.9037"/>
</g>
<!-- Node45&#45;&gt;Node38 -->
<g id="edge62" class="edge"><title>Node45&#45;&gt;Node38</title>
<path fill="none" stroke="midnightblue" d="M2163.27,-343.378C2238.38,-337.409 2345.5,-314.891 2345.5,-235 2345.5,-235 2345.5,-235 2345.5,-121 2345.5,-88.7578 2340.34,-51.5116 2336.79,-29.6812"/>
<polygon fill="midnightblue" stroke="midnightblue" points="2340.19,-28.7982 2335.07,-19.5232 2333.29,-29.9673 2340.19,-28.7982"/>
</g>
<!-- Node46 -->
<g id="node46" class="node"><title>Node46</title>
<g id="a_node46"><a xlink:href="_ogre_hardware_buffer_8h.html" target="_top" xlink:title="OgreHardwareBuffer.h">
<polygon fill="none" stroke="black" points="2127.5,-224.5 2127.5,-243.5 2241.5,-243.5 2241.5,-224.5 2127.5,-224.5"/>
<text text-anchor="middle" x="2184.5" y="-231.5" font-family="Helvetica,sans-Serif" font-size="10.00">OgreHardwareBuffer.h</text>
</a>
</g>
</g>
<!-- Node45&#45;&gt;Node46 -->
<g id="edge48" class="edge"><title>Node45&#45;&gt;Node46</title>
<path fill="none" stroke="midnightblue" d="M2104.11,-336.384C2115.77,-328.006 2133.12,-314.459 2145.5,-300 2157.92,-285.504 2168.78,-266.571 2175.87,-252.88"/>
<polygon fill="midnightblue" stroke="midnightblue" points="2179.17,-254.103 2180.51,-243.594 2172.91,-250.971 2179.17,-254.103"/>
</g>
<!-- Node48 -->
<g id="node48" class="node"><title>Node48</title>
<g id="a_node48"><a xlink:href="_ogre_shared_ptr_8h.html" target="_top" xlink:title="OgreSharedPtr.h">
<polygon fill="none" stroke="black" points="2047,-280.5 2047,-299.5 2136,-299.5 2136,-280.5 2047,-280.5"/>
<text text-anchor="middle" x="2091.5" y="-287.5" font-family="Helvetica,sans-Serif" font-size="10.00">OgreSharedPtr.h</text>
</a>
</g>
</g>
<!-- Node45&#45;&gt;Node48 -->
<g id="edge54" class="edge"><title>Node45&#45;&gt;Node48</title>
<path fill="none" stroke="midnightblue" d="M2091.5,-336.083C2091.5,-329.006 2091.5,-318.861 2091.5,-309.986"/>
<polygon fill="midnightblue" stroke="midnightblue" points="2095,-309.751 2091.5,-299.751 2088,-309.751 2095,-309.751"/>
</g>
<!-- Node50 -->
<g id="node50" class="node"><title>Node50</title>
<g id="a_node50"><a xlink:href="_ogre_colour_value_8h.html" target="_top" xlink:title="OgreColourValue.h">
<polygon fill="none" stroke="black" points="1930,-280.5 1930,-299.5 2029,-299.5 2029,-280.5 1930,-280.5"/>
<text text-anchor="middle" x="1979.5" y="-287.5" font-family="Helvetica,sans-Serif" font-size="10.00">OgreColourValue.h</text>
</a>
</g>
</g>
<!-- Node45&#45;&gt;Node50 -->
<g id="edge59" class="edge"><title>Node45&#45;&gt;Node50</title>
<path fill="none" stroke="midnightblue" d="M2073.51,-336.324C2055.46,-327.625 2027.45,-314.12 2006.7,-304.113"/>
<polygon fill="midnightblue" stroke="midnightblue" points="2007.98,-300.845 1997.45,-299.655 2004.94,-307.15 2007.98,-300.845"/>
</g>
<!-- Node46&#45;&gt;Node3 -->
<g id="edge49" class="edge"><title>Node46&#45;&gt;Node3</title>
<path fill="none" stroke="midnightblue" d="M2165.75,-224.368C2123.86,-205.091 2022.53,-158.454 1973.29,-135.789"/>
<polygon fill="midnightblue" stroke="midnightblue" points="1974.71,-132.593 1964.17,-131.591 1971.79,-138.952 1974.71,-132.593"/>
</g>
<!-- Node47 -->
<g id="node47" class="node"><title>Node47</title>
<g id="a_node47"><a xlink:href="_ogre_exception_8h.html" target="_top" xlink:title="OgreException.h">
<polygon fill="none" stroke="red" points="2140,-168.5 2140,-187.5 2229,-187.5 2229,-168.5 2140,-168.5"/>
<text text-anchor="middle" x="2184.5" y="-175.5" font-family="Helvetica,sans-Serif" font-size="10.00">OgreException.h</text>
</a>
</g>
</g>
<!-- Node46&#45;&gt;Node47 -->
<g id="edge50" class="edge"><title>Node46&#45;&gt;Node47</title>
<path fill="none" stroke="midnightblue" d="M2184.5,-224.083C2184.5,-217.006 2184.5,-206.861 2184.5,-197.986"/>
<polygon fill="midnightblue" stroke="midnightblue" points="2188,-197.751 2184.5,-187.751 2181,-197.751 2188,-197.751"/>
</g>
<!-- Node47&#45;&gt;Node3 -->
<g id="edge51" class="edge"><title>Node47&#45;&gt;Node3</title>
<path fill="none" stroke="midnightblue" d="M2146.63,-168.444C2105.02,-159.043 2038.13,-143.929 1993.03,-133.739"/>
<polygon fill="midnightblue" stroke="midnightblue" points="1993.72,-130.306 1983.19,-131.516 1992.18,-137.134 1993.72,-130.306"/>
</g>
<!-- Node47&#45;&gt;Node37 -->
<g id="edge52" class="edge"><title>Node47&#45;&gt;Node37</title>
<path fill="none" stroke="midnightblue" d="M2186.01,-168.075C2190.41,-141.945 2203.36,-65.2106 2209.37,-29.577"/>
<polygon fill="midnightblue" stroke="midnightblue" points="2212.84,-30.011 2211.05,-19.5681 2205.94,-28.8467 2212.84,-30.011"/>
</g>
<!-- Node47&#45;&gt;Node38 -->
<g id="edge53" class="edge"><title>Node47&#45;&gt;Node38</title>
<path fill="none" stroke="midnightblue" d="M2192.51,-168.075C2216.47,-141.38 2287.84,-61.865 2318.85,-27.3218"/>
<polygon fill="midnightblue" stroke="midnightblue" points="2321.73,-29.3479 2325.81,-19.5681 2316.52,-24.6721 2321.73,-29.3479"/>
</g>
<!-- Node48&#45;&gt;Node3 -->
<g id="edge55" class="edge"><title>Node48&#45;&gt;Node3</title>
<path fill="none" stroke="midnightblue" d="M2059.76,-280.424C2039.4,-273.507 2013.66,-261.928 1996.5,-244 1992.71,-240.044 1965.87,-173.824 1952.72,-141.063"/>
<polygon fill="midnightblue" stroke="midnightblue" points="1955.94,-139.706 1948.98,-131.724 1949.45,-142.308 1955.94,-139.706"/>
</g>
<!-- Node49 -->
<g id="node49" class="node"><title>Node49</title>
<g id="a_node49"><a xlink:href="_ogre_atomic_scalar_8h.html" target="_top" xlink:title="OgreAtomicScalar.h">
<polygon fill="none" stroke="red" points="2005.5,-224.5 2005.5,-243.5 2109.5,-243.5 2109.5,-224.5 2005.5,-224.5"/>
<text text-anchor="middle" x="2057.5" y="-231.5" font-family="Helvetica,sans-Serif" font-size="10.00">OgreAtomicScalar.h</text>
</a>
</g>
</g>
<!-- Node48&#45;&gt;Node49 -->
<g id="edge56" class="edge"><title>Node48&#45;&gt;Node49</title>
<path fill="none" stroke="midnightblue" d="M2085.89,-280.083C2081.13,-272.534 2074.18,-261.495 2068.35,-252.23"/>
<polygon fill="midnightblue" stroke="midnightblue" points="2071.3,-250.349 2063.01,-243.751 2065.38,-254.078 2071.3,-250.349"/>
</g>
<!-- Node49&#45;&gt;Node3 -->
<g id="edge57" class="edge"><title>Node49&#45;&gt;Node3</title>
<path fill="none" stroke="midnightblue" d="M2048.54,-224.159C2035.86,-211.644 2011.93,-188.053 1991.5,-168 1981.61,-158.293 1970.51,-147.429 1961.69,-138.808"/>
<polygon fill="midnightblue" stroke="midnightblue" points="1963.93,-136.103 1954.33,-131.618 1959.03,-141.11 1963.93,-136.103"/>
</g>
<!-- Node49&#45;&gt;Node47 -->
<g id="edge58" class="edge"><title>Node49&#45;&gt;Node47</title>
<path fill="none" stroke="midnightblue" d="M2077.62,-224.444C2098.52,-215.557 2131.43,-201.563 2155.22,-191.451"/>
<polygon fill="midnightblue" stroke="midnightblue" points="2156.64,-194.65 2164.47,-187.516 2153.9,-188.208 2156.64,-194.65"/>
</g>
<!-- Node50&#45;&gt;Node3 -->
<g id="edge60" class="edge"><title>Node50&#45;&gt;Node3</title>
<path fill="none" stroke="midnightblue" d="M1975.79,-280.192C1972.16,-271.232 1966.71,-256.872 1963.5,-244 1954.61,-208.407 1949.52,-165.757 1947.15,-141.779"/>
<polygon fill="midnightblue" stroke="midnightblue" points="1950.62,-141.251 1946.2,-131.62 1943.65,-141.903 1950.62,-141.251"/>
</g>
</g>
</svg>
