<?xml version="1.0" encoding="UTF-8" standalone="no"?>
<!DOCTYPE svg PUBLIC "-//W3C//DTD SVG 1.1//EN"
 "http://www.w3.org/Graphics/SVG/1.1/DTD/svg11.dtd">
<!-- Generated by graphviz version 2.38.0 (20140413.2041)
 -->
<!-- Title: OgreShadowCameraSetupFocused.h Pages: 1 -->
<svg width="3125pt" height="476pt"
 viewBox="0.00 0.00 3125.00 476.00" xmlns="http://www.w3.org/2000/svg" xmlns:xlink="http://www.w3.org/1999/xlink">
<g id="graph0" class="graph" transform="scale(1 1) rotate(0) translate(4 472)">
<title>OgreShadowCameraSetupFocused.h</title>
<!-- Node1 -->
<g id="node1" class="node"><title>Node1</title>
<polygon fill="#bfbfbf" stroke="black" points="1793.5,-448.5 1793.5,-467.5 1972.5,-467.5 1972.5,-448.5 1793.5,-448.5"/>
<text text-anchor="middle" x="1883" y="-455.5" font-family="Helvetica,sans-Serif" font-size="10.00">OgreShadowCameraSetupFocused.h</text>
</g>
<!-- Node2 -->
<g id="node2" class="node"><title>Node2</title>
<g id="a_node2"><a xlink:href="_ogre_prerequisites_8h.html" target="_top" xlink:title="OgrePrerequisites.h">
<polygon fill="none" stroke="black" points="2111.5,-168.5 2111.5,-187.5 2214.5,-187.5 2214.5,-168.5 2111.5,-168.5"/>
<text text-anchor="middle" x="2163" y="-175.5" font-family="Helvetica,sans-Serif" font-size="10.00">OgrePrerequisites.h</text>
</a>
</g>
</g>
<!-- Node1&#45;&gt;Node2 -->
<g id="edge1" class="edge"><title>Node1&#45;&gt;Node2</title>
<path fill="none" stroke="midnightblue" d="M1882.01,-448.193C1880.07,-426.912 1877.89,-371.809 1902,-336 1955.74,-256.177 2064.96,-210.506 2123.63,-190.768"/>
<polygon fill="midnightblue" stroke="midnightblue" points="2124.87,-194.043 2133.28,-187.601 2122.69,-187.392 2124.87,-194.043"/>
</g>
<!-- Node38 -->
<g id="node38" class="node"><title>Node38</title>
<g id="a_node38"><a xlink:href="_ogre_header_prefix_8h.html" target="_top" xlink:title="OgreHeaderPrefix.h">
<polygon fill="none" stroke="black" points="2411.5,-0.5 2411.5,-19.5 2514.5,-19.5 2514.5,-0.5 2411.5,-0.5"/>
<text text-anchor="middle" x="2463" y="-7.5" font-family="Helvetica,sans-Serif" font-size="10.00">OgreHeaderPrefix.h</text>
</a>
</g>
</g>
<!-- Node1&#45;&gt;Node38 -->
<g id="edge70" class="edge"><title>Node1&#45;&gt;Node38</title>
<path fill="none" stroke="midnightblue" d="M1793.45,-456.512C1419.23,-453.895 0,-437.974 0,-347 0,-347 0,-347 0,-121 0,-81.3821 24.792,-72.0798 61,-56 170.994,-7.15238 2035.73,-9.80926 2401.16,-10.8031"/>
<polygon fill="midnightblue" stroke="midnightblue" points="2401.27,-14.3034 2411.28,-10.8313 2401.29,-7.30338 2401.27,-14.3034"/>
</g>
<!-- Node39 -->
<g id="node39" class="node"><title>Node39</title>
<g id="a_node39"><a xlink:href="_ogre_header_suffix_8h.html" target="_top" xlink:title="OgreHeaderSuffix.h">
<polygon fill="none" stroke="black" points="2932.5,-0.5 2932.5,-19.5 3035.5,-19.5 3035.5,-0.5 2932.5,-0.5"/>
<text text-anchor="middle" x="2984" y="-7.5" font-family="Helvetica,sans-Serif" font-size="10.00">OgreHeaderSuffix.h</text>
</a>
</g>
</g>
<!-- Node1&#45;&gt;Node39 -->
<g id="edge75" class="edge"><title>Node1&#45;&gt;Node39</title>
<path fill="none" stroke="midnightblue" d="M1972.74,-453.696C2256.7,-442.657 3117,-404.468 3117,-347 3117,-347 3117,-347 3117,-121 3117,-70.7254 3059.87,-39.1005 3020.5,-23.2746"/>
<polygon fill="midnightblue" stroke="midnightblue" points="3021.5,-19.9123 3010.91,-19.5897 3018.99,-26.4459 3021.5,-19.9123"/>
</g>
<!-- Node42 -->
<g id="node42" class="node"><title>Node42</title>
<g id="a_node42"><a xlink:href="_ogre_shadow_camera_setup_8h.html" target="_top" xlink:title="OgreShadowCameraSetup.h">
<polygon fill="none" stroke="black" points="847.5,-224.5 847.5,-243.5 988.5,-243.5 988.5,-224.5 847.5,-224.5"/>
<text text-anchor="middle" x="918" y="-231.5" font-family="Helvetica,sans-Serif" font-size="10.00">OgreShadowCameraSetup.h</text>
</a>
</g>
</g>
<!-- Node1&#45;&gt;Node42 -->
<g id="edge50" class="edge"><title>Node1&#45;&gt;Node42</title>
<path fill="none" stroke="midnightblue" d="M1845.76,-448.433C1695.29,-413.818 1132.29,-284.299 965.101,-245.836"/>
<polygon fill="midnightblue" stroke="midnightblue" points="965.657,-242.372 955.127,-243.541 964.088,-249.194 965.657,-242.372"/>
</g>
<!-- Node43 -->
<g id="node43" class="node"><title>Node43</title>
<g id="a_node43"><a xlink:href="_ogre_polygon_8h.html" target="_top" xlink:title="OgrePolygon.h">
<polygon fill="none" stroke="black" points="2186.5,-336.5 2186.5,-355.5 2267.5,-355.5 2267.5,-336.5 2186.5,-336.5"/>
<text text-anchor="middle" x="2227" y="-343.5" font-family="Helvetica,sans-Serif" font-size="10.00">OgrePolygon.h</text>
</a>
</g>
</g>
<!-- Node1&#45;&gt;Node43 -->
<g id="edge54" class="edge"><title>Node1&#45;&gt;Node43</title>
<path fill="none" stroke="midnightblue" d="M1946.42,-448.454C1990.35,-441.427 2049.74,-429.709 2100,-412 2138.32,-398.497 2179.68,-375.61 2204.45,-360.909"/>
<polygon fill="midnightblue" stroke="midnightblue" points="2206.32,-363.866 2213.09,-355.712 2202.71,-357.868 2206.32,-363.866"/>
</g>
<!-- Node47 -->
<g id="node47" class="node"><title>Node47</title>
<g id="a_node47"><a xlink:href="_ogre_convex_body_8h.html" target="_top" xlink:title="OgreConvexBody.h">
<polygon fill="none" stroke="black" points="1989,-392.5 1989,-411.5 2091,-411.5 2091,-392.5 1989,-392.5"/>
<text text-anchor="middle" x="2040" y="-399.5" font-family="Helvetica,sans-Serif" font-size="10.00">OgreConvexBody.h</text>
</a>
</g>
</g>
<!-- Node1&#45;&gt;Node47 -->
<g id="edge64" class="edge"><title>Node1&#45;&gt;Node47</title>
<path fill="none" stroke="midnightblue" d="M1907.88,-448.444C1934.29,-439.359 1976.22,-424.939 2005.74,-414.783"/>
<polygon fill="midnightblue" stroke="midnightblue" points="2006.92,-418.079 2015.24,-411.516 2004.64,-411.459 2006.92,-418.079"/>
</g>
<!-- Node49 -->
<g id="node49" class="node"><title>Node49</title>
<g id="a_node49"><a xlink:href="_ogre_axis_aligned_box_8h.html" target="_top" xlink:title="OgreAxisAlignedBox.h">
<polygon fill="none" stroke="black" points="1763.5,-280.5 1763.5,-299.5 1878.5,-299.5 1878.5,-280.5 1763.5,-280.5"/>
<text text-anchor="middle" x="1821" y="-287.5" font-family="Helvetica,sans-Serif" font-size="10.00">OgreAxisAlignedBox.h</text>
</a>
</g>
</g>
<!-- Node1&#45;&gt;Node49 -->
<g id="edge71" class="edge"><title>Node1&#45;&gt;Node49</title>
<path fill="none" stroke="midnightblue" d="M1879.67,-448.075C1869.87,-421.832 1841,-344.545 1827.77,-309.117"/>
<polygon fill="midnightblue" stroke="midnightblue" points="1830.98,-307.711 1824.2,-299.568 1824.42,-310.161 1830.98,-307.711"/>
</g>
<!-- Node3 -->
<g id="node3" class="node"><title>Node3</title>
<g id="a_node3"><a xlink:href="_ogre_platform_8h.html" target="_top" xlink:title="OgrePlatform.h">
<polygon fill="none" stroke="black" points="377.5,-112.5 377.5,-131.5 460.5,-131.5 460.5,-112.5 377.5,-112.5"/>
<text text-anchor="middle" x="419" y="-119.5" font-family="Helvetica,sans-Serif" font-size="10.00">OgrePlatform.h</text>
</a>
</g>
</g>
<!-- Node2&#45;&gt;Node3 -->
<g id="edge2" class="edge"><title>Node2&#45;&gt;Node3</title>
<path fill="none" stroke="midnightblue" d="M2111.28,-175.399C1855.35,-167.474 726.505,-132.521 470.676,-124.6"/>
<polygon fill="midnightblue" stroke="midnightblue" points="470.649,-121.098 460.546,-124.286 470.432,-128.094 470.649,-121.098"/>
</g>
<!-- Node5 -->
<g id="node5" class="node"><title>Node5</title>
<polygon fill="none" stroke="#bfbfbf" points="196.5,-56.5 196.5,-75.5 237.5,-75.5 237.5,-56.5 196.5,-56.5"/>
<text text-anchor="middle" x="217" y="-63.5" font-family="Helvetica,sans-Serif" font-size="10.00">string</text>
</g>
<!-- Node2&#45;&gt;Node5 -->
<g id="edge4" class="edge"><title>Node2&#45;&gt;Node5</title>
<path fill="none" stroke="midnightblue" d="M2111.33,-176.011C1846.65,-170.684 640.261,-143.181 247.723,-75.8678"/>
<polygon fill="midnightblue" stroke="midnightblue" points="248.21,-72.3999 237.756,-74.1185 247,-79.2946 248.21,-72.3999"/>
</g>
<!-- Node6 -->
<g id="node6" class="node"><title>Node6</title>
<g id="a_node6"><a xlink:href="_ogre_std_headers_8h.html" target="_top" xlink:title="OgreStdHeaders.h">
<polygon fill="none" stroke="black" points="1336,-112.5 1336,-131.5 1434,-131.5 1434,-112.5 1336,-112.5"/>
<text text-anchor="middle" x="1385" y="-119.5" font-family="Helvetica,sans-Serif" font-size="10.00">OgreStdHeaders.h</text>
</a>
</g>
</g>
<!-- Node2&#45;&gt;Node6 -->
<g id="edge5" class="edge"><title>Node2&#45;&gt;Node6</title>
<path fill="none" stroke="midnightblue" d="M2111.35,-173.415C1972.48,-163.776 1591.66,-137.344 1444.31,-127.117"/>
<polygon fill="midnightblue" stroke="midnightblue" points="1444.33,-123.61 1434.11,-126.409 1443.85,-130.593 1444.33,-123.61"/>
</g>
<!-- Node36 -->
<g id="node36" class="node"><title>Node36</title>
<g id="a_node36"><a xlink:href="_ogre_memory_allocator_config_8h.html" target="_top" xlink:title="This file configures Ogre&#39;s memory allocators. ">
<polygon fill="none" stroke="black" points="2573,-112.5 2573,-131.5 2721,-131.5 2721,-112.5 2573,-112.5"/>
<text text-anchor="middle" x="2647" y="-119.5" font-family="Helvetica,sans-Serif" font-size="10.00">OgreMemoryAllocatorConfig.h</text>
</a>
</g>
</g>
<!-- Node2&#45;&gt;Node36 -->
<g id="edge36" class="edge"><title>Node2&#45;&gt;Node36</title>
<path fill="none" stroke="midnightblue" d="M2214.8,-171.221C2298.02,-161.936 2462.33,-143.604 2562.65,-132.411"/>
<polygon fill="midnightblue" stroke="midnightblue" points="2563.2,-135.871 2572.75,-131.284 2562.42,-128.915 2563.2,-135.871"/>
</g>
<!-- Node4 -->
<g id="node4" class="node"><title>Node4</title>
<g id="a_node4"><a xlink:href="_ogre_config_8h.html" target="_top" xlink:title="OgreConfig.h">
<polygon fill="none" stroke="red" points="104,-56.5 104,-75.5 178,-75.5 178,-56.5 104,-56.5"/>
<text text-anchor="middle" x="141" y="-63.5" font-family="Helvetica,sans-Serif" font-size="10.00">OgreConfig.h</text>
</a>
</g>
</g>
<!-- Node3&#45;&gt;Node4 -->
<g id="edge3" class="edge"><title>Node3&#45;&gt;Node4</title>
<path fill="none" stroke="midnightblue" d="M377.085,-112.891C332.705,-104.301 260.319,-90.2759 188.311,-76.2531"/>
<polygon fill="midnightblue" stroke="midnightblue" points="188.641,-72.7516 178.156,-74.275 187.302,-79.6225 188.641,-72.7516"/>
</g>
<!-- Node6&#45;&gt;Node5 -->
<g id="edge15" class="edge"><title>Node6&#45;&gt;Node5</title>
<path fill="none" stroke="midnightblue" d="M1335.81,-119.415C1132.14,-112.81 360.674,-87.3354 247.796,-75.4626"/>
<polygon fill="midnightblue" stroke="midnightblue" points="248.119,-71.9751 237.75,-74.1523 247.213,-78.9163 248.119,-71.9751"/>
</g>
<!-- Node7 -->
<g id="node7" class="node"><title>Node7</title>
<polygon fill="none" stroke="#bfbfbf" points="761.5,-56.5 761.5,-75.5 810.5,-75.5 810.5,-56.5 761.5,-56.5"/>
<text text-anchor="middle" x="786" y="-63.5" font-family="Helvetica,sans-Serif" font-size="10.00">cassert</text>
</g>
<!-- Node6&#45;&gt;Node7 -->
<g id="edge6" class="edge"><title>Node6&#45;&gt;Node7</title>
<path fill="none" stroke="midnightblue" d="M1335.78,-120.173C1238.69,-117.876 1015.68,-109.299 820.609,-75.9925"/>
<polygon fill="midnightblue" stroke="midnightblue" points="821.205,-72.5437 810.754,-74.2845 820.009,-79.4409 821.205,-72.5437"/>
</g>
<!-- Node8 -->
<g id="node8" class="node"><title>Node8</title>
<polygon fill="none" stroke="#bfbfbf" points="828.5,-56.5 828.5,-75.5 871.5,-75.5 871.5,-56.5 828.5,-56.5"/>
<text text-anchor="middle" x="850" y="-63.5" font-family="Helvetica,sans-Serif" font-size="10.00">cstdio</text>
</g>
<!-- Node6&#45;&gt;Node8 -->
<g id="edge7" class="edge"><title>Node6&#45;&gt;Node8</title>
<path fill="none" stroke="midnightblue" d="M1335.79,-119.916C1246.68,-117.239 1052.66,-108.134 881.754,-76.0032"/>
<polygon fill="midnightblue" stroke="midnightblue" points="882.307,-72.5456 871.828,-74.1058 880.993,-79.4212 882.307,-72.5456"/>
</g>
<!-- Node9 -->
<g id="node9" class="node"><title>Node9</title>
<polygon fill="none" stroke="#bfbfbf" points="889.5,-56.5 889.5,-75.5 934.5,-75.5 934.5,-56.5 889.5,-56.5"/>
<text text-anchor="middle" x="912" y="-63.5" font-family="Helvetica,sans-Serif" font-size="10.00">cstdlib</text>
</g>
<!-- Node6&#45;&gt;Node9 -->
<g id="edge8" class="edge"><title>Node6&#45;&gt;Node9</title>
<path fill="none" stroke="midnightblue" d="M1335.85,-118.904C1255.64,-114.851 1091.6,-103.921 944.671,-76.0159"/>
<polygon fill="midnightblue" stroke="midnightblue" points="945.053,-72.5252 934.571,-74.0654 943.726,-79.3982 945.053,-72.5252"/>
</g>
<!-- Node10 -->
<g id="node10" class="node"><title>Node10</title>
<polygon fill="none" stroke="#bfbfbf" points="952.5,-56.5 952.5,-75.5 993.5,-75.5 993.5,-56.5 952.5,-56.5"/>
<text text-anchor="middle" x="973" y="-63.5" font-family="Helvetica,sans-Serif" font-size="10.00">ctime</text>
</g>
<!-- Node6&#45;&gt;Node10 -->
<g id="edge9" class="edge"><title>Node6&#45;&gt;Node10</title>
<path fill="none" stroke="midnightblue" d="M1335.72,-117.949C1264.45,-112.935 1128.44,-101.107 1003.65,-75.7636"/>
<polygon fill="midnightblue" stroke="midnightblue" points="1004.04,-72.2701 993.536,-73.6748 1002.62,-79.1254 1004.04,-72.2701"/>
</g>
<!-- Node11 -->
<g id="node11" class="node"><title>Node11</title>
<polygon fill="none" stroke="#bfbfbf" points="1012,-56.5 1012,-75.5 1058,-75.5 1058,-56.5 1012,-56.5"/>
<text text-anchor="middle" x="1035" y="-63.5" font-family="Helvetica,sans-Serif" font-size="10.00">cstring</text>
</g>
<!-- Node6&#45;&gt;Node11 -->
<g id="edge10" class="edge"><title>Node6&#45;&gt;Node11</title>
<path fill="none" stroke="midnightblue" d="M1335.89,-116.11C1275.13,-109.606 1168.42,-96.6985 1068.31,-76.0397"/>
<polygon fill="midnightblue" stroke="midnightblue" points="1068.83,-72.5744 1058.33,-73.9501 1067.4,-79.4258 1068.83,-72.5744"/>
</g>
<!-- Node12 -->
<g id="node12" class="node"><title>Node12</title>
<polygon fill="none" stroke="#bfbfbf" points="1076.5,-56.5 1076.5,-75.5 1125.5,-75.5 1125.5,-56.5 1076.5,-56.5"/>
<text text-anchor="middle" x="1101" y="-63.5" font-family="Helvetica,sans-Serif" font-size="10.00">cstdarg</text>
</g>
<!-- Node6&#45;&gt;Node12 -->
<g id="edge11" class="edge"><title>Node6&#45;&gt;Node12</title>
<path fill="none" stroke="midnightblue" d="M1335.9,-113.365C1287.5,-105.568 1211.22,-92.5641 1135.95,-76.0626"/>
<polygon fill="midnightblue" stroke="midnightblue" points="1136.35,-72.5645 1125.83,-73.819 1134.83,-79.3989 1136.35,-72.5645"/>
</g>
<!-- Node13 -->
<g id="node13" class="node"><title>Node13</title>
<polygon fill="none" stroke="#bfbfbf" points="1144,-56.5 1144,-75.5 1188,-75.5 1188,-56.5 1144,-56.5"/>
<text text-anchor="middle" x="1166" y="-63.5" font-family="Helvetica,sans-Serif" font-size="10.00">cmath</text>
</g>
<!-- Node6&#45;&gt;Node13 -->
<g id="edge12" class="edge"><title>Node6&#45;&gt;Node13</title>
<path fill="none" stroke="midnightblue" d="M1347.06,-112.477C1311.07,-104.269 1255.27,-91.2224 1198.23,-76.2362"/>
<polygon fill="midnightblue" stroke="midnightblue" points="1198.88,-72.7887 1188.32,-73.6164 1197.09,-79.5561 1198.88,-72.7887"/>
</g>
<!-- Node14 -->
<g id="node14" class="node"><title>Node14</title>
<polygon fill="none" stroke="#bfbfbf" points="1206,-56.5 1206,-75.5 1250,-75.5 1250,-56.5 1206,-56.5"/>
<text text-anchor="middle" x="1228" y="-63.5" font-family="Helvetica,sans-Serif" font-size="10.00">vector</text>
</g>
<!-- Node6&#45;&gt;Node14 -->
<g id="edge13" class="edge"><title>Node6&#45;&gt;Node14</title>
<path fill="none" stroke="midnightblue" d="M1360.12,-112.444C1332.93,-103.092 1289.31,-88.0859 1259.69,-77.8984"/>
<polygon fill="midnightblue" stroke="midnightblue" points="1260.82,-74.5862 1250.22,-74.6433 1258.54,-81.2056 1260.82,-74.5862"/>
</g>
<!-- Node15 -->
<g id="node15" class="node"><title>Node15</title>
<polygon fill="none" stroke="#bfbfbf" points="1268.5,-56.5 1268.5,-75.5 1303.5,-75.5 1303.5,-56.5 1268.5,-56.5"/>
<text text-anchor="middle" x="1286" y="-63.5" font-family="Helvetica,sans-Serif" font-size="10.00">map</text>
</g>
<!-- Node6&#45;&gt;Node15 -->
<g id="edge14" class="edge"><title>Node6&#45;&gt;Node15</title>
<path fill="none" stroke="midnightblue" d="M1369.09,-112.324C1353.36,-103.743 1329.06,-90.486 1310.79,-80.5224"/>
<polygon fill="midnightblue" stroke="midnightblue" points="1312.32,-77.3704 1301.87,-75.6545 1308.97,-83.5157 1312.32,-77.3704"/>
</g>
<!-- Node16 -->
<g id="node16" class="node"><title>Node16</title>
<polygon fill="none" stroke="#bfbfbf" points="1322,-56.5 1322,-75.5 1352,-75.5 1352,-56.5 1322,-56.5"/>
<text text-anchor="middle" x="1337" y="-63.5" font-family="Helvetica,sans-Serif" font-size="10.00">set</text>
</g>
<!-- Node6&#45;&gt;Node16 -->
<g id="edge16" class="edge"><title>Node6&#45;&gt;Node16</title>
<path fill="none" stroke="midnightblue" d="M1377.07,-112.083C1370.15,-104.298 1359.93,-92.8015 1351.55,-83.3665"/>
<polygon fill="midnightblue" stroke="midnightblue" points="1354.04,-80.8999 1344.78,-75.7511 1348.81,-85.5505 1354.04,-80.8999"/>
</g>
<!-- Node17 -->
<g id="node17" class="node"><title>Node17</title>
<polygon fill="none" stroke="#bfbfbf" points="1370.5,-56.5 1370.5,-75.5 1399.5,-75.5 1399.5,-56.5 1370.5,-56.5"/>
<text text-anchor="middle" x="1385" y="-63.5" font-family="Helvetica,sans-Serif" font-size="10.00">list</text>
</g>
<!-- Node6&#45;&gt;Node17 -->
<g id="edge17" class="edge"><title>Node6&#45;&gt;Node17</title>
<path fill="none" stroke="midnightblue" d="M1385,-112.083C1385,-105.006 1385,-94.8611 1385,-85.9865"/>
<polygon fill="midnightblue" stroke="midnightblue" points="1388.5,-85.751 1385,-75.7511 1381.5,-85.7511 1388.5,-85.751"/>
</g>
<!-- Node18 -->
<g id="node18" class="node"><title>Node18</title>
<polygon fill="none" stroke="#bfbfbf" points="1417.5,-56.5 1417.5,-75.5 1460.5,-75.5 1460.5,-56.5 1417.5,-56.5"/>
<text text-anchor="middle" x="1439" y="-63.5" font-family="Helvetica,sans-Serif" font-size="10.00">deque</text>
</g>
<!-- Node6&#45;&gt;Node18 -->
<g id="edge18" class="edge"><title>Node6&#45;&gt;Node18</title>
<path fill="none" stroke="midnightblue" d="M1393.92,-112.083C1401.78,-104.22 1413.43,-92.5688 1422.92,-83.0813"/>
<polygon fill="midnightblue" stroke="midnightblue" points="1425.65,-85.2971 1430.25,-75.7511 1420.7,-80.3473 1425.65,-85.2971"/>
</g>
<!-- Node19 -->
<g id="node19" class="node"><title>Node19</title>
<polygon fill="none" stroke="#bfbfbf" points="1478.5,-56.5 1478.5,-75.5 1521.5,-75.5 1521.5,-56.5 1478.5,-56.5"/>
<text text-anchor="middle" x="1500" y="-63.5" font-family="Helvetica,sans-Serif" font-size="10.00">queue</text>
</g>
<!-- Node6&#45;&gt;Node19 -->
<g id="edge19" class="edge"><title>Node6&#45;&gt;Node19</title>
<path fill="none" stroke="midnightblue" d="M1403.22,-112.444C1421.9,-103.675 1451.16,-89.9355 1472.62,-79.8579"/>
<polygon fill="midnightblue" stroke="midnightblue" points="1474.3,-82.935 1481.86,-75.5164 1471.32,-76.5988 1474.3,-82.935"/>
</g>
<!-- Node20 -->
<g id="node20" class="node"><title>Node20</title>
<polygon fill="none" stroke="#bfbfbf" points="1539.5,-56.5 1539.5,-75.5 1580.5,-75.5 1580.5,-56.5 1539.5,-56.5"/>
<text text-anchor="middle" x="1560" y="-63.5" font-family="Helvetica,sans-Serif" font-size="10.00">bitset</text>
</g>
<!-- Node6&#45;&gt;Node20 -->
<g id="edge20" class="edge"><title>Node6&#45;&gt;Node20</title>
<path fill="none" stroke="midnightblue" d="M1412.73,-112.444C1444.61,-102.606 1496.77,-86.5122 1529.69,-76.3518"/>
<polygon fill="midnightblue" stroke="midnightblue" points="1530.73,-79.6956 1539.25,-73.4026 1528.66,-73.0068 1530.73,-79.6956"/>
</g>
<!-- Node21 -->
<g id="node21" class="node"><title>Node21</title>
<polygon fill="none" stroke="#bfbfbf" points="1599,-56.5 1599,-75.5 1655,-75.5 1655,-56.5 1599,-56.5"/>
<text text-anchor="middle" x="1627" y="-63.5" font-family="Helvetica,sans-Serif" font-size="10.00">algorithm</text>
</g>
<!-- Node6&#45;&gt;Node21 -->
<g id="edge21" class="edge"><title>Node6&#45;&gt;Node21</title>
<path fill="none" stroke="midnightblue" d="M1424.53,-112.47C1465.66,-103.55 1531.9,-89.0585 1589,-76 1589.1,-75.9773 1589.2,-75.9546 1589.3,-75.9319"/>
<polygon fill="midnightblue" stroke="midnightblue" points="1589.84,-79.3996 1598.79,-73.7326 1588.26,-72.5802 1589.84,-79.3996"/>
</g>
<!-- Node22 -->
<g id="node22" class="node"><title>Node22</title>
<polygon fill="none" stroke="#bfbfbf" points="1673.5,-56.5 1673.5,-75.5 1732.5,-75.5 1732.5,-56.5 1673.5,-56.5"/>
<text text-anchor="middle" x="1703" y="-63.5" font-family="Helvetica,sans-Serif" font-size="10.00">functional</text>
</g>
<!-- Node6&#45;&gt;Node22 -->
<g id="edge22" class="edge"><title>Node6&#45;&gt;Node22</title>
<path fill="none" stroke="midnightblue" d="M1434.06,-114.101C1487.85,-106.311 1576.91,-92.7509 1663.26,-76.032"/>
<polygon fill="midnightblue" stroke="midnightblue" points="1664.09,-79.437 1673.23,-74.0851 1662.75,-72.5668 1664.09,-79.437"/>
</g>
<!-- Node23 -->
<g id="node23" class="node"><title>Node23</title>
<polygon fill="none" stroke="#bfbfbf" points="1751,-56.5 1751,-75.5 1791,-75.5 1791,-56.5 1751,-56.5"/>
<text text-anchor="middle" x="1771" y="-63.5" font-family="Helvetica,sans-Serif" font-size="10.00">limits</text>
</g>
<!-- Node6&#45;&gt;Node23 -->
<g id="edge23" class="edge"><title>Node6&#45;&gt;Node23</title>
<path fill="none" stroke="midnightblue" d="M1434.09,-117.385C1503.14,-111.713 1632.67,-98.9316 1741,-76 1741.1,-75.9789 1741.2,-75.9576 1741.3,-75.9361"/>
<polygon fill="midnightblue" stroke="midnightblue" points="1741.93,-79.3853 1750.78,-73.5604 1740.23,-72.5951 1741.93,-79.3853"/>
</g>
<!-- Node24 -->
<g id="node24" class="node"><title>Node24</title>
<polygon fill="none" stroke="#bfbfbf" points="1809,-56.5 1809,-75.5 1859,-75.5 1859,-56.5 1809,-56.5"/>
<text text-anchor="middle" x="1834" y="-63.5" font-family="Helvetica,sans-Serif" font-size="10.00">fstream</text>
</g>
<!-- Node6&#45;&gt;Node24 -->
<g id="edge24" class="edge"><title>Node6&#45;&gt;Node24</title>
<path fill="none" stroke="midnightblue" d="M1434.22,-118.073C1510.46,-113.013 1661.76,-100.872 1798.99,-75.9289"/>
<polygon fill="midnightblue" stroke="midnightblue" points="1799.65,-79.3671 1808.84,-74.1109 1798.38,-72.4833 1799.65,-79.3671"/>
</g>
<!-- Node25 -->
<g id="node25" class="node"><title>Node25</title>
<polygon fill="none" stroke="#bfbfbf" points="1877.5,-56.5 1877.5,-75.5 1922.5,-75.5 1922.5,-56.5 1877.5,-56.5"/>
<text text-anchor="middle" x="1900" y="-63.5" font-family="Helvetica,sans-Serif" font-size="10.00">iosfwd</text>
</g>
<!-- Node6&#45;&gt;Node25 -->
<g id="edge25" class="edge"><title>Node6&#45;&gt;Node25</title>
<path fill="none" stroke="midnightblue" d="M1434.08,-119.364C1520.02,-115.863 1703.37,-105.561 1867.13,-75.8002"/>
<polygon fill="midnightblue" stroke="midnightblue" points="1868.2,-79.1634 1877.39,-73.9052 1866.92,-72.2799 1868.2,-79.1634"/>
</g>
<!-- Node26 -->
<g id="node26" class="node"><title>Node26</title>
<polygon fill="none" stroke="#bfbfbf" points="1941,-56.5 1941,-75.5 1993,-75.5 1993,-56.5 1941,-56.5"/>
<text text-anchor="middle" x="1967" y="-63.5" font-family="Helvetica,sans-Serif" font-size="10.00">sstream</text>
</g>
<!-- Node6&#45;&gt;Node26 -->
<g id="edge26" class="edge"><title>Node6&#45;&gt;Node26</title>
<path fill="none" stroke="midnightblue" d="M1434.27,-119.623C1528.7,-116.404 1741.75,-106.339 1930.64,-75.7469"/>
<polygon fill="midnightblue" stroke="midnightblue" points="1931.46,-79.16 1940.76,-74.085 1930.32,-72.2526 1931.46,-79.16"/>
</g>
<!-- Node27 -->
<g id="node27" class="node"><title>Node27</title>
<polygon fill="none" stroke="#bfbfbf" points="2011,-56.5 2011,-75.5 2079,-75.5 2079,-56.5 2011,-56.5"/>
<text text-anchor="middle" x="2045" y="-63.5" font-family="Helvetica,sans-Serif" font-size="10.00">sys/types.h</text>
</g>
<!-- Node6&#45;&gt;Node27 -->
<g id="edge27" class="edge"><title>Node6&#45;&gt;Node27</title>
<path fill="none" stroke="midnightblue" d="M1434.03,-119.647C1537.18,-116.321 1784.31,-105.832 2000.84,-75.9772"/>
<polygon fill="midnightblue" stroke="midnightblue" points="2001.38,-79.4356 2010.8,-74.5868 2000.42,-72.5028 2001.38,-79.4356"/>
</g>
<!-- Node28 -->
<g id="node28" class="node"><title>Node28</title>
<polygon fill="none" stroke="#bfbfbf" points="2097,-56.5 2097,-75.5 2157,-75.5 2157,-56.5 2097,-56.5"/>
<text text-anchor="middle" x="2127" y="-63.5" font-family="Helvetica,sans-Serif" font-size="10.00">sys/stat.h</text>
</g>
<!-- Node6&#45;&gt;Node28 -->
<g id="edge28" class="edge"><title>Node6&#45;&gt;Node28</title>
<path fill="none" stroke="midnightblue" d="M1434.29,-120.598C1547.86,-119.08 1836.72,-111.846 2086.85,-75.9217"/>
<polygon fill="midnightblue" stroke="midnightblue" points="2087.47,-79.3696 2096.86,-74.4665 2086.46,-72.4425 2087.47,-79.3696"/>
</g>
<!-- Node29 -->
<g id="node29" class="node"><title>Node29</title>
<polygon fill="none" stroke="#bfbfbf" points="2175.5,-56.5 2175.5,-75.5 2226.5,-75.5 2226.5,-56.5 2175.5,-56.5"/>
<text text-anchor="middle" x="2201" y="-63.5" font-family="Helvetica,sans-Serif" font-size="10.00">unistd.h</text>
</g>
<!-- Node6&#45;&gt;Node29 -->
<g id="edge29" class="edge"><title>Node6&#45;&gt;Node29</title>
<path fill="none" stroke="midnightblue" d="M1434.24,-121.464C1556.58,-121.913 1884.11,-118.796 2165.15,-75.7974"/>
<polygon fill="midnightblue" stroke="midnightblue" points="2165.78,-79.2414 2175.12,-74.2509 2164.7,-72.324 2165.78,-79.2414"/>
</g>
<!-- Node30 -->
<g id="node30" class="node"><title>Node30</title>
<polygon fill="none" stroke="#bfbfbf" points="2245,-56.5 2245,-75.5 2291,-75.5 2291,-56.5 2245,-56.5"/>
<text text-anchor="middle" x="2268" y="-63.5" font-family="Helvetica,sans-Serif" font-size="10.00">dlfcn.h</text>
</g>
<!-- Node6&#45;&gt;Node30 -->
<g id="edge30" class="edge"><title>Node6&#45;&gt;Node30</title>
<path fill="none" stroke="midnightblue" d="M1434.07,-119.778C1587.88,-115.736 2060.13,-101.66 2234.63,-75.5882"/>
<polygon fill="midnightblue" stroke="midnightblue" points="2235.36,-79.0169 2244.7,-74.0158 2234.28,-72.1007 2235.36,-79.0169"/>
</g>
<!-- Node31 -->
<g id="node31" class="node"><title>Node31</title>
<polygon fill="none" stroke="#bfbfbf" points="2309,-56.5 2309,-75.5 2387,-75.5 2387,-56.5 2309,-56.5"/>
<text text-anchor="middle" x="2348" y="-63.5" font-family="Helvetica,sans-Serif" font-size="10.00">ext/hash_map</text>
</g>
<!-- Node6&#45;&gt;Node31 -->
<g id="edge31" class="edge"><title>Node6&#45;&gt;Node31</title>
<path fill="none" stroke="midnightblue" d="M1434.29,-120.931C1570.38,-120.239 1962.9,-114.856 2298.37,-76.0229"/>
<polygon fill="midnightblue" stroke="midnightblue" points="2299.25,-79.4436 2308.77,-74.8052 2298.43,-72.4911 2299.25,-79.4436"/>
</g>
<!-- Node32 -->
<g id="node32" class="node"><title>Node32</title>
<polygon fill="none" stroke="#bfbfbf" points="255.5,-56.5 255.5,-75.5 328.5,-75.5 328.5,-56.5 255.5,-56.5"/>
<text text-anchor="middle" x="292" y="-63.5" font-family="Helvetica,sans-Serif" font-size="10.00">ext/hash_set</text>
</g>
<!-- Node6&#45;&gt;Node32 -->
<g id="edge32" class="edge"><title>Node6&#45;&gt;Node32</title>
<path fill="none" stroke="midnightblue" d="M1335.88,-119.338C1147.44,-112.903 474.863,-89.3698 338.931,-75.9413"/>
<polygon fill="midnightblue" stroke="midnightblue" points="339.083,-72.4372 328.762,-74.8334 338.324,-79.396 339.083,-72.4372"/>
</g>
<!-- Node33 -->
<g id="node33" class="node"><title>Node33</title>
<polygon fill="none" stroke="#bfbfbf" points="346.5,-56.5 346.5,-75.5 417.5,-75.5 417.5,-56.5 346.5,-56.5"/>
<text text-anchor="middle" x="382" y="-63.5" font-family="Helvetica,sans-Serif" font-size="10.00">sys/param.h</text>
</g>
<!-- Node6&#45;&gt;Node33 -->
<g id="edge33" class="edge"><title>Node6&#45;&gt;Node33</title>
<path fill="none" stroke="midnightblue" d="M1335.81,-119.669C1168.99,-115.005 624.729,-98.5161 427.739,-75.8492"/>
<polygon fill="midnightblue" stroke="midnightblue" points="428.127,-72.3708 417.783,-74.6613 427.297,-79.3215 428.127,-72.3708"/>
</g>
<!-- Node34 -->
<g id="node34" class="node"><title>Node34</title>
<polygon fill="none" stroke="#bfbfbf" points="436,-56.5 436,-75.5 602,-75.5 602,-56.5 436,-56.5"/>
<text text-anchor="middle" x="519" y="-63.5" font-family="Helvetica,sans-Serif" font-size="10.00">CoreFoundation/CoreFoundation.h</text>
</g>
<!-- Node6&#45;&gt;Node34 -->
<g id="edge34" class="edge"><title>Node6&#45;&gt;Node34</title>
<path fill="none" stroke="midnightblue" d="M1335.6,-118.805C1214.4,-113.274 892.411,-97.7003 612.586,-76.0944"/>
<polygon fill="midnightblue" stroke="midnightblue" points="612.473,-72.5752 602.232,-75.2907 611.931,-79.5542 612.473,-72.5752"/>
</g>
<!-- Node35 -->
<g id="node35" class="node"><title>Node35</title>
<polygon fill="none" stroke="#bfbfbf" points="620,-56.5 620,-75.5 744,-75.5 744,-56.5 620,-56.5"/>
<text text-anchor="middle" x="682" y="-63.5" font-family="Helvetica,sans-Serif" font-size="10.00">emscripten/emscripten.h</text>
</g>
<!-- Node6&#45;&gt;Node35 -->
<g id="edge35" class="edge"><title>Node6&#45;&gt;Node35</title>
<path fill="none" stroke="midnightblue" d="M1335.67,-118.451C1230.64,-112.817 976.9,-98.1064 754.427,-76.1979"/>
<polygon fill="midnightblue" stroke="midnightblue" points="754.488,-72.6869 744.192,-75.1826 753.797,-79.6527 754.488,-72.6869"/>
</g>
<!-- Node37 -->
<g id="node37" class="node"><title>Node37</title>
<g id="a_node37"><a xlink:href="_ogre_memory_allocated_object_8h.html" target="_top" xlink:title="OgreMemoryAllocatedObject.h">
<polygon fill="none" stroke="black" points="2787,-56.5 2787,-75.5 2937,-75.5 2937,-56.5 2787,-56.5"/>
<text text-anchor="middle" x="2862" y="-63.5" font-family="Helvetica,sans-Serif" font-size="10.00">OgreMemoryAllocatedObject.h</text>
</a>
</g>
</g>
<!-- Node36&#45;&gt;Node37 -->
<g id="edge37" class="edge"><title>Node36&#45;&gt;Node37</title>
<path fill="none" stroke="midnightblue" d="M2681.07,-112.444C2718.18,-103.122 2777.66,-88.1828 2818.21,-77.9972"/>
<polygon fill="midnightblue" stroke="midnightblue" points="2819.25,-81.347 2828.09,-75.5164 2817.54,-74.5579 2819.25,-81.347"/>
</g>
<!-- Node36&#45;&gt;Node38 -->
<g id="edge41" class="edge"><title>Node36&#45;&gt;Node38</title>
<path fill="none" stroke="midnightblue" d="M2641.43,-112.144C2632.3,-98.2953 2612.86,-71.4955 2590,-56 2566.77,-40.2539 2537.42,-29.3833 2512.79,-22.2767"/>
<polygon fill="midnightblue" stroke="midnightblue" points="2513.48,-18.8355 2502.91,-19.5507 2511.62,-25.5836 2513.48,-18.8355"/>
</g>
<!-- Node36&#45;&gt;Node39 -->
<g id="edge49" class="edge"><title>Node36&#45;&gt;Node39</title>
<path fill="none" stroke="midnightblue" d="M2721.29,-117.098C2797.68,-111.824 2910.37,-100.148 2946,-76 2962.2,-65.0246 2972.44,-44.6644 2978.16,-29.6448"/>
<polygon fill="midnightblue" stroke="midnightblue" points="2981.58,-30.4574 2981.54,-19.8626 2974.97,-28.1691 2981.58,-30.4574"/>
</g>
<!-- Node40 -->
<g id="node40" class="node"><title>Node40</title>
<g id="a_node40"><a xlink:href="_ogre_memory_s_t_l_allocator_8h.html" target="_top" xlink:title="OgreMemorySTLAllocator.h">
<polygon fill="none" stroke="black" points="2443.5,-56.5 2443.5,-75.5 2580.5,-75.5 2580.5,-56.5 2443.5,-56.5"/>
<text text-anchor="middle" x="2512" y="-63.5" font-family="Helvetica,sans-Serif" font-size="10.00">OgreMemorySTLAllocator.h</text>
</a>
</g>
</g>
<!-- Node36&#45;&gt;Node40 -->
<g id="edge42" class="edge"><title>Node36&#45;&gt;Node40</title>
<path fill="none" stroke="midnightblue" d="M2625.61,-112.444C2603.29,-103.517 2568.1,-89.4387 2542.79,-79.3168"/>
<polygon fill="midnightblue" stroke="midnightblue" points="2543.88,-75.9807 2533.29,-75.5164 2541.28,-82.4801 2543.88,-75.9807"/>
</g>
<!-- Node41 -->
<g id="node41" class="node"><title>Node41</title>
<g id="a_node41"><a xlink:href="_ogre_memory_ned_pooling_8h.html" target="_top" xlink:title="OgreMemoryNedPooling.h">
<polygon fill="none" stroke="black" points="2637.5,-56.5 2637.5,-75.5 2768.5,-75.5 2768.5,-56.5 2637.5,-56.5"/>
<text text-anchor="middle" x="2703" y="-63.5" font-family="Helvetica,sans-Serif" font-size="10.00">OgreMemoryNedPooling.h</text>
</a>
</g>
</g>
<!-- Node36&#45;&gt;Node41 -->
<g id="edge46" class="edge"><title>Node36&#45;&gt;Node41</title>
<path fill="none" stroke="midnightblue" d="M2656,-112.324C2664.19,-104.42 2676.51,-92.5482 2686.47,-82.9377"/>
<polygon fill="midnightblue" stroke="midnightblue" points="2689.07,-85.2947 2693.84,-75.8339 2684.21,-80.2558 2689.07,-85.2947"/>
</g>
<!-- Node37&#45;&gt;Node2 -->
<g id="edge38" class="edge"><title>Node37&#45;&gt;Node2</title>
<path fill="none" stroke="midnightblue" d="M2848.81,-75.6266C2825.79,-90.1798 2776.3,-119.265 2730,-132 2636.35,-157.756 2351.82,-170.5 2225.06,-175.022"/>
<polygon fill="midnightblue" stroke="midnightblue" points="2224.63,-171.535 2214.76,-175.384 2224.87,-178.531 2224.63,-171.535"/>
</g>
<!-- Node37&#45;&gt;Node38 -->
<g id="edge39" class="edge"><title>Node37&#45;&gt;Node38</title>
<path fill="none" stroke="midnightblue" d="M2798.78,-56.4435C2723.64,-46.2751 2599.11,-29.4214 2524.67,-19.3462"/>
<polygon fill="midnightblue" stroke="midnightblue" points="2524.89,-15.8438 2514.51,-17.971 2523.95,-22.7806 2524.89,-15.8438"/>
</g>
<!-- Node37&#45;&gt;Node39 -->
<g id="edge40" class="edge"><title>Node37&#45;&gt;Node39</title>
<path fill="none" stroke="midnightblue" d="M2881.33,-56.4435C2901.32,-47.5961 2932.74,-33.6875 2955.56,-23.5865"/>
<polygon fill="midnightblue" stroke="midnightblue" points="2957.03,-26.7645 2964.76,-19.5164 2954.2,-20.3635 2957.03,-26.7645"/>
</g>
<!-- Node40&#45;&gt;Node2 -->
<g id="edge43" class="edge"><title>Node40&#45;&gt;Node2</title>
<path fill="none" stroke="midnightblue" d="M2484.68,-75.6104C2422.49,-95.2121 2270.3,-143.179 2199.87,-165.378"/>
<polygon fill="midnightblue" stroke="midnightblue" points="2198.58,-162.116 2190.1,-168.46 2200.68,-168.792 2198.58,-162.116"/>
</g>
<!-- Node40&#45;&gt;Node38 -->
<g id="edge44" class="edge"><title>Node40&#45;&gt;Node38</title>
<path fill="none" stroke="midnightblue" d="M2503.91,-56.083C2496.84,-48.2982 2486.41,-36.8015 2477.85,-27.3665"/>
<polygon fill="midnightblue" stroke="midnightblue" points="2480.25,-24.8047 2470.94,-19.7511 2475.07,-29.5087 2480.25,-24.8047"/>
</g>
<!-- Node40&#45;&gt;Node39 -->
<g id="edge45" class="edge"><title>Node40&#45;&gt;Node39</title>
<path fill="none" stroke="midnightblue" d="M2580.63,-57.1479C2672.49,-46.6386 2834.05,-28.1552 2922.26,-18.0635"/>
<polygon fill="midnightblue" stroke="midnightblue" points="2922.85,-21.5193 2932.38,-16.9052 2922.05,-14.5647 2922.85,-21.5193"/>
</g>
<!-- Node41&#45;&gt;Node38 -->
<g id="edge47" class="edge"><title>Node41&#45;&gt;Node38</title>
<path fill="none" stroke="midnightblue" d="M2664.97,-56.4435C2623.19,-47.0431 2556.02,-31.9291 2510.73,-21.7393"/>
<polygon fill="midnightblue" stroke="midnightblue" points="2511.38,-18.297 2500.85,-19.5164 2509.84,-25.1263 2511.38,-18.297"/>
</g>
<!-- Node41&#45;&gt;Node39 -->
<g id="edge48" class="edge"><title>Node41&#45;&gt;Node39</title>
<path fill="none" stroke="midnightblue" d="M2747.53,-56.4435C2796.96,-46.9444 2876.75,-31.611 2929.78,-21.4198"/>
<polygon fill="midnightblue" stroke="midnightblue" points="2930.52,-24.8408 2939.68,-19.5164 2929.2,-17.9666 2930.52,-24.8408"/>
</g>
<!-- Node42&#45;&gt;Node2 -->
<g id="edge51" class="edge"><title>Node42&#45;&gt;Node2</title>
<path fill="none" stroke="midnightblue" d="M988.581,-232.699C1171.83,-231.401 1677.65,-224.508 2097,-188 2098.3,-187.887 2099.61,-187.767 2100.93,-187.64"/>
<polygon fill="midnightblue" stroke="midnightblue" points="2101.6,-191.088 2111.17,-186.553 2100.86,-184.127 2101.6,-191.088"/>
</g>
<!-- Node42&#45;&gt;Node38 -->
<g id="edge52" class="edge"><title>Node42&#45;&gt;Node38</title>
<path fill="none" stroke="midnightblue" d="M847.299,-229.123C628.877,-215.913 -14.0736,-167.166 95,-56 136.593,-13.6091 2032.7,-11.0817 2401.29,-10.9912"/>
<polygon fill="midnightblue" stroke="midnightblue" points="2401.49,-14.4913 2411.49,-10.9892 2401.49,-7.49126 2401.49,-14.4913"/>
</g>
<!-- Node42&#45;&gt;Node39 -->
<g id="edge53" class="edge"><title>Node42&#45;&gt;Node39</title>
<path fill="none" stroke="midnightblue" d="M988.648,-229.145C1320.35,-211.037 2708.04,-135.161 2730,-132 2837.99,-116.461 2891.98,-153.274 2969,-76 2980.87,-64.0903 2984.1,-44.7825 2984.67,-30.2988"/>
<polygon fill="midnightblue" stroke="midnightblue" points="2988.17,-29.9523 2984.68,-19.9509 2981.17,-29.9495 2988.17,-29.9523"/>
</g>
<!-- Node43&#45;&gt;Node2 -->
<g id="edge55" class="edge"><title>Node43&#45;&gt;Node2</title>
<path fill="none" stroke="midnightblue" d="M2216.67,-336.308C2198.53,-320.286 2161.6,-284.05 2148,-244 2142.71,-228.425 2147.91,-210.124 2153.58,-196.917"/>
<polygon fill="midnightblue" stroke="midnightblue" points="2156.9,-198.098 2158.05,-187.566 2150.58,-195.083 2156.9,-198.098"/>
</g>
<!-- Node43&#45;&gt;Node38 -->
<g id="edge62" class="edge"><title>Node43&#45;&gt;Node38</title>
<path fill="none" stroke="midnightblue" d="M2267.79,-339.503C2323.09,-329.499 2415,-302.689 2415,-235 2415,-235 2415,-235 2415,-121 2415,-85.5849 2436.16,-48.707 2450.38,-27.9203"/>
<polygon fill="midnightblue" stroke="midnightblue" points="2453.38,-29.7421 2456.33,-19.565 2447.68,-25.6838 2453.38,-29.7421"/>
</g>
<!-- Node43&#45;&gt;Node39 -->
<g id="edge63" class="edge"><title>Node43&#45;&gt;Node39</title>
<path fill="none" stroke="midnightblue" d="M2267.64,-343.839C2432.3,-338.606 3041,-313.922 3041,-235 3041,-235 3041,-235 3041,-121 3041,-84.3005 3015.68,-47.6567 2998.79,-27.2973"/>
<polygon fill="midnightblue" stroke="midnightblue" points="3001.35,-24.9037 2992.17,-19.6161 2996.05,-29.475 3001.35,-24.9037"/>
</g>
<!-- Node44 -->
<g id="node44" class="node"><title>Node44</title>
<g id="a_node44"><a xlink:href="_ogre_vector3_8h.html" target="_top" xlink:title="OgreVector3.h">
<polygon fill="none" stroke="black" points="2200,-280.5 2200,-299.5 2280,-299.5 2280,-280.5 2200,-280.5"/>
<text text-anchor="middle" x="2240" y="-287.5" font-family="Helvetica,sans-Serif" font-size="10.00">OgreVector3.h</text>
</a>
</g>
</g>
<!-- Node43&#45;&gt;Node44 -->
<g id="edge56" class="edge"><title>Node43&#45;&gt;Node44</title>
<path fill="none" stroke="midnightblue" d="M2229.15,-336.083C2230.87,-328.927 2233.35,-318.635 2235.5,-309.691"/>
<polygon fill="midnightblue" stroke="midnightblue" points="2238.96,-310.293 2237.89,-299.751 2232.15,-308.654 2238.96,-310.293"/>
</g>
<!-- Node44&#45;&gt;Node2 -->
<g id="edge57" class="edge"><title>Node44&#45;&gt;Node2</title>
<path fill="none" stroke="midnightblue" d="M2243.86,-280.289C2249.07,-267.099 2256.55,-241.722 2246,-224 2236.9,-208.721 2220.61,-198.31 2204.86,-191.386"/>
<polygon fill="midnightblue" stroke="midnightblue" points="2205.77,-187.981 2195.18,-187.512 2203.17,-194.479 2205.77,-187.981"/>
</g>
<!-- Node45 -->
<g id="node45" class="node"><title>Node45</title>
<g id="a_node45"><a xlink:href="_ogre_quaternion_8h.html" target="_top" xlink:title="OgreQuaternion.h">
<polygon fill="none" stroke="red" points="2293.5,-224.5 2293.5,-243.5 2386.5,-243.5 2386.5,-224.5 2293.5,-224.5"/>
<text text-anchor="middle" x="2340" y="-231.5" font-family="Helvetica,sans-Serif" font-size="10.00">OgreQuaternion.h</text>
</a>
</g>
</g>
<!-- Node44&#45;&gt;Node45 -->
<g id="edge58" class="edge"><title>Node44&#45;&gt;Node45</title>
<path fill="none" stroke="midnightblue" d="M2256.07,-280.324C2271.96,-271.743 2296.51,-258.486 2314.96,-248.522"/>
<polygon fill="midnightblue" stroke="midnightblue" points="2316.84,-251.486 2323.97,-243.655 2313.51,-245.326 2316.84,-251.486"/>
</g>
<!-- Node46 -->
<g id="node46" class="node"><title>Node46</title>
<g id="a_node46"><a xlink:href="_ogre_vector2_8h.html" target="_top" xlink:title="OgreVector2.h">
<polygon fill="none" stroke="red" points="2157,-224.5 2157,-243.5 2237,-243.5 2237,-224.5 2157,-224.5"/>
<text text-anchor="middle" x="2197" y="-231.5" font-family="Helvetica,sans-Serif" font-size="10.00">OgreVector2.h</text>
</a>
</g>
</g>
<!-- Node44&#45;&gt;Node46 -->
<g id="edge60" class="edge"><title>Node44&#45;&gt;Node46</title>
<path fill="none" stroke="midnightblue" d="M2232.9,-280.083C2226.76,-272.377 2217.73,-261.033 2210.26,-251.653"/>
<polygon fill="midnightblue" stroke="midnightblue" points="2212.94,-249.394 2203.97,-243.751 2207.46,-253.754 2212.94,-249.394"/>
</g>
<!-- Node45&#45;&gt;Node2 -->
<g id="edge59" class="edge"><title>Node45&#45;&gt;Node2</title>
<path fill="none" stroke="midnightblue" d="M2311.95,-224.444C2281.92,-215.28 2234.09,-200.688 2200.76,-190.519"/>
<polygon fill="midnightblue" stroke="midnightblue" points="2201.5,-187.087 2190.91,-187.516 2199.46,-193.782 2201.5,-187.087"/>
</g>
<!-- Node46&#45;&gt;Node2 -->
<g id="edge61" class="edge"><title>Node46&#45;&gt;Node2</title>
<path fill="none" stroke="midnightblue" d="M2191.39,-224.083C2186.63,-216.534 2179.68,-205.495 2173.85,-196.23"/>
<polygon fill="midnightblue" stroke="midnightblue" points="2176.8,-194.349 2168.51,-187.751 2170.88,-198.078 2176.8,-194.349"/>
</g>
<!-- Node47&#45;&gt;Node2 -->
<g id="edge65" class="edge"><title>Node47&#45;&gt;Node2</title>
<path fill="none" stroke="midnightblue" d="M2048.58,-392.228C2056.8,-383.525 2069.22,-369.563 2078,-356 2082.74,-348.681 2134.2,-240.005 2154.67,-196.657"/>
<polygon fill="midnightblue" stroke="midnightblue" points="2157.85,-198.115 2158.95,-187.577 2151.52,-195.126 2157.85,-198.115"/>
</g>
<!-- Node47&#45;&gt;Node38 -->
<g id="edge67" class="edge"><title>Node47&#45;&gt;Node38</title>
<path fill="none" stroke="midnightblue" d="M1988.82,-400.108C1653.97,-393.443 -201.999,-343.375 80,-56 121.87,-13.3317 2030.99,-11.0287 2401.19,-10.9836"/>
<polygon fill="midnightblue" stroke="midnightblue" points="2401.44,-14.4837 2411.44,-10.9829 2401.44,-7.48369 2401.44,-14.4837"/>
</g>
<!-- Node47&#45;&gt;Node39 -->
<g id="edge69" class="edge"><title>Node47&#45;&gt;Node39</title>
<path fill="none" stroke="midnightblue" d="M2091.17,-401.019C2300.29,-400.432 3079,-391.501 3079,-291 3079,-291 3079,-291 3079,-121 3079,-77.7385 3036.39,-43.0862 3008.25,-24.9149"/>
<polygon fill="midnightblue" stroke="midnightblue" points="3010.03,-21.9032 2999.69,-19.6042 3006.34,-27.851 3010.03,-21.9032"/>
</g>
<!-- Node47&#45;&gt;Node43 -->
<g id="edge66" class="edge"><title>Node47&#45;&gt;Node43</title>
<path fill="none" stroke="midnightblue" d="M2069.63,-392.444C2101.5,-383.241 2152.33,-368.562 2187.56,-358.388"/>
<polygon fill="midnightblue" stroke="midnightblue" points="2188.87,-361.653 2197.51,-355.516 2186.93,-354.928 2188.87,-361.653"/>
</g>
<!-- Node48 -->
<g id="node48" class="node"><title>Node48</title>
<g id="a_node48"><a xlink:href="_ogre_thread_headers_8h.html" target="_top" xlink:title="Threading/OgreThreadHeaders.h">
<polygon fill="none" stroke="red" points="1911,-336.5 1911,-355.5 2069,-355.5 2069,-336.5 1911,-336.5"/>
<text text-anchor="middle" x="1990" y="-343.5" font-family="Helvetica,sans-Serif" font-size="10.00">Threading/OgreThreadHeaders.h</text>
</a>
</g>
</g>
<!-- Node47&#45;&gt;Node48 -->
<g id="edge68" class="edge"><title>Node47&#45;&gt;Node48</title>
<path fill="none" stroke="midnightblue" d="M2031.74,-392.083C2024.54,-384.298 2013.89,-372.801 2005.15,-363.367"/>
<polygon fill="midnightblue" stroke="midnightblue" points="2007.47,-360.711 1998.1,-355.751 2002.33,-365.467 2007.47,-360.711"/>
</g>
<!-- Node49&#45;&gt;Node2 -->
<g id="edge72" class="edge"><title>Node49&#45;&gt;Node2</title>
<path fill="none" stroke="midnightblue" d="M1827.88,-280.132C1839.57,-265.76 1864.79,-237.617 1893,-224 1911.44,-215.096 2027.49,-197.778 2101.32,-187.415"/>
<polygon fill="midnightblue" stroke="midnightblue" points="2102.02,-190.851 2111.44,-186.001 2101.05,-183.918 2102.02,-190.851"/>
</g>
<!-- Node50 -->
<g id="node50" class="node"><title>Node50</title>
<g id="a_node50"><a xlink:href="_ogre_matrix4_8h.html" target="_top" xlink:title="OgreMatrix4.h">
<polygon fill="none" stroke="red" points="1763,-224.5 1763,-243.5 1841,-243.5 1841,-224.5 1763,-224.5"/>
<text text-anchor="middle" x="1802" y="-231.5" font-family="Helvetica,sans-Serif" font-size="10.00">OgreMatrix4.h</text>
</a>
</g>
</g>
<!-- Node49&#45;&gt;Node50 -->
<g id="edge73" class="edge"><title>Node49&#45;&gt;Node50</title>
<path fill="none" stroke="midnightblue" d="M1817.86,-280.083C1815.32,-272.849 1811.64,-262.409 1808.47,-253.397"/>
<polygon fill="midnightblue" stroke="midnightblue" points="1811.7,-252.023 1805.08,-243.751 1805.1,-254.346 1811.7,-252.023"/>
</g>
<!-- Node50&#45;&gt;Node2 -->
<g id="edge74" class="edge"><title>Node50&#45;&gt;Node2</title>
<path fill="none" stroke="midnightblue" d="M1841.06,-226.262C1845.75,-225.483 1850.48,-224.713 1855,-224 1940.33,-210.524 2039.18,-196.332 2101.4,-187.572"/>
<polygon fill="midnightblue" stroke="midnightblue" points="2102.03,-191.019 2111.45,-186.161 2101.06,-184.087 2102.03,-191.019"/>
</g>
</g>
</svg>
