<?xml version="1.0" encoding="UTF-8" standalone="no"?>
<!DOCTYPE svg PUBLIC "-//W3C//DTD SVG 1.1//EN"
 "http://www.w3.org/Graphics/SVG/1.1/DTD/svg11.dtd">
<!-- Generated by graphviz version 2.38.0 (20140413.2041)
 -->
<!-- Title: OgreIdString.h Pages: 1 -->
<svg width="561pt" height="252pt"
 viewBox="0.00 0.00 560.50 252.00" xmlns="http://www.w3.org/2000/svg" xmlns:xlink="http://www.w3.org/1999/xlink">
<g id="graph0" class="graph" transform="scale(1 1) rotate(0) translate(4 248)">
<title>OgreIdString.h</title>
<!-- Node1 -->
<g id="node1" class="node"><title>Node1</title>
<polygon fill="#bfbfbf" stroke="black" points="239.5,-224.5 239.5,-243.5 319.5,-243.5 319.5,-224.5 239.5,-224.5"/>
<text text-anchor="middle" x="279.5" y="-231.5" font-family="Helvetica,sans-Serif" font-size="10.00">OgreIdString.h</text>
</g>
<!-- Node2 -->
<g id="node2" class="node"><title>Node2</title>
<g id="a_node2"><a xlink:href="_ogre_hlms_property_map_8h.html" target="_top" xlink:title="OgreHlmsPropertyMap.h">
<polygon fill="none" stroke="black" points="79,-168.5 79,-187.5 204,-187.5 204,-168.5 79,-168.5"/>
<text text-anchor="middle" x="141.5" y="-175.5" font-family="Helvetica,sans-Serif" font-size="10.00">OgreHlmsPropertyMap.h</text>
</a>
</g>
</g>
<!-- Node1&#45;&gt;Node2 -->
<g id="edge1" class="edge"><title>Node1&#45;&gt;Node2</title>
<path fill="none" stroke="midnightblue" d="M248.251,-220.772C222.329,-210.629 186.138,-196.467 163.264,-187.516"/>
<polygon fill="midnightblue" stroke="midnightblue" points="247.046,-224.059 257.633,-224.444 249.596,-217.54 247.046,-224.059"/>
</g>
<!-- Node6 -->
<g id="node6" class="node"><title>Node6</title>
<g id="a_node6"><a xlink:href="_ogre_hlms_shader_generator_8h.html" target="_top" xlink:title="OgreHlmsShaderGenerator.h">
<polygon fill="none" stroke="black" points="170,-112.5 170,-131.5 313,-131.5 313,-112.5 170,-112.5"/>
<text text-anchor="middle" x="241.5" y="-119.5" font-family="Helvetica,sans-Serif" font-size="10.00">OgreHlmsShaderGenerator.h</text>
</a>
</g>
</g>
<!-- Node1&#45;&gt;Node6 -->
<g id="edge10" class="edge"><title>Node1&#45;&gt;Node6</title>
<path fill="none" stroke="midnightblue" d="M266.689,-216.072C261.177,-207.976 255.168,-197.906 251.5,-188 244.364,-168.727 242.319,-144.422 241.734,-131.689"/>
<polygon fill="midnightblue" stroke="midnightblue" points="263.884,-218.166 272.551,-224.259 269.575,-214.091 263.884,-218.166"/>
</g>
<!-- Node7 -->
<g id="node7" class="node"><title>Node7</title>
<g id="a_node7"><a xlink:href="_ogre_hlms_property_helper_8h.html" target="_top" xlink:title="OgreHlmsPropertyHelper.h">
<polygon fill="none" stroke="black" points="260.5,-168.5 260.5,-187.5 394.5,-187.5 394.5,-168.5 260.5,-168.5"/>
<text text-anchor="middle" x="327.5" y="-175.5" font-family="Helvetica,sans-Serif" font-size="10.00">OgreHlmsPropertyHelper.h</text>
</a>
</g>
</g>
<!-- Node1&#45;&gt;Node7 -->
<g id="edge7" class="edge"><title>Node1&#45;&gt;Node7</title>
<path fill="none" stroke="midnightblue" d="M294.228,-216.431C302.64,-206.967 312.849,-195.483 319.721,-187.751"/>
<polygon fill="midnightblue" stroke="midnightblue" points="291.454,-214.284 287.426,-224.083 296.686,-218.934 291.454,-214.284"/>
</g>
<!-- Node8 -->
<g id="node8" class="node"><title>Node8</title>
<g id="a_node8"><a xlink:href="_ogre_hlms_shader_common_8h.html" target="_top" xlink:title="OgreHlmsShaderCommon.h">
<polygon fill="none" stroke="black" points="412.5,-168.5 412.5,-187.5 552.5,-187.5 552.5,-168.5 412.5,-168.5"/>
<text text-anchor="middle" x="482.5" y="-175.5" font-family="Helvetica,sans-Serif" font-size="10.00">OgreHlmsShaderCommon.h</text>
</a>
</g>
</g>
<!-- Node1&#45;&gt;Node8 -->
<g id="edge8" class="edge"><title>Node1&#45;&gt;Node8</title>
<path fill="none" stroke="midnightblue" d="M321.494,-221.829C359.823,-211.633 415.652,-196.782 450.485,-187.516"/>
<polygon fill="midnightblue" stroke="midnightblue" points="320.43,-218.49 311.666,-224.444 322.23,-225.255 320.43,-218.49"/>
</g>
<!-- Node3 -->
<g id="node3" class="node"><title>Node3</title>
<g id="a_node3"><a xlink:href="_ogre_hlms_datablock_8h.html" target="_top" xlink:title="OgreHlmsDatablock.h">
<polygon fill="none" stroke="black" points="0,-112.5 0,-131.5 113,-131.5 113,-112.5 0,-112.5"/>
<text text-anchor="middle" x="56.5" y="-119.5" font-family="Helvetica,sans-Serif" font-size="10.00">OgreHlmsDatablock.h</text>
</a>
</g>
</g>
<!-- Node2&#45;&gt;Node3 -->
<g id="edge2" class="edge"><title>Node2&#45;&gt;Node3</title>
<path fill="none" stroke="midnightblue" d="M119.306,-162.901C103.72,-152.999 83.3703,-140.071 70.1228,-131.655"/>
<polygon fill="midnightblue" stroke="midnightblue" points="117.526,-165.916 127.843,-168.324 121.279,-160.007 117.526,-165.916"/>
</g>
<!-- Node4 -->
<g id="node4" class="node"><title>Node4</title>
<g id="a_node4"><a xlink:href="_ogre_hlms_material_base_8h.html" target="_top" xlink:title="OgreHlmsMaterialBase.h">
<polygon fill="none" stroke="black" points="35.5,-56.5 35.5,-75.5 161.5,-75.5 161.5,-56.5 35.5,-56.5"/>
<text text-anchor="middle" x="98.5" y="-63.5" font-family="Helvetica,sans-Serif" font-size="10.00">OgreHlmsMaterialBase.h</text>
</a>
</g>
</g>
<!-- Node2&#45;&gt;Node4 -->
<g id="edge5" class="edge"><title>Node2&#45;&gt;Node4</title>
<path fill="none" stroke="midnightblue" d="M136.779,-158.667C133.162,-145.481 127.743,-127.385 121.5,-112 116.221,-98.9921 108.557,-84.666 103.55,-75.7506"/>
<polygon fill="midnightblue" stroke="midnightblue" points="133.42,-159.657 139.371,-168.422 140.185,-157.858 133.42,-159.657"/>
</g>
<!-- Node2&#45;&gt;Node6 -->
<g id="edge6" class="edge"><title>Node2&#45;&gt;Node6</title>
<path fill="none" stroke="midnightblue" d="M166.588,-163.453C185.049,-153.483 209.597,-140.228 225.473,-131.655"/>
<polygon fill="midnightblue" stroke="midnightblue" points="164.703,-160.493 157.567,-168.324 168.029,-166.652 164.703,-160.493"/>
</g>
<!-- Node3&#45;&gt;Node4 -->
<g id="edge3" class="edge"><title>Node3&#45;&gt;Node4</title>
<path fill="none" stroke="midnightblue" d="M69.6102,-104.144C76.9278,-94.7357 85.7409,-83.4046 91.6936,-75.7511"/>
<polygon fill="midnightblue" stroke="midnightblue" points="66.8122,-102.041 63.4354,-112.083 72.3376,-106.338 66.8122,-102.041"/>
</g>
<!-- Node5 -->
<g id="node5" class="node"><title>Node5</title>
<g id="a_node5"><a xlink:href="_ogre_hlms_pbs_material_8h.html" target="_top" xlink:title="OgreHlmsPbsMaterial.h">
<polygon fill="none" stroke="black" points="38,-0.5 38,-19.5 159,-19.5 159,-0.5 38,-0.5"/>
<text text-anchor="middle" x="98.5" y="-7.5" font-family="Helvetica,sans-Serif" font-size="10.00">OgreHlmsPbsMaterial.h</text>
</a>
</g>
</g>
<!-- Node4&#45;&gt;Node5 -->
<g id="edge4" class="edge"><title>Node4&#45;&gt;Node5</title>
<path fill="none" stroke="midnightblue" d="M98.5,-45.8045C98.5,-36.9102 98.5,-26.7798 98.5,-19.7511"/>
<polygon fill="midnightblue" stroke="midnightblue" points="95.0001,-46.083 98.5,-56.083 102,-46.083 95.0001,-46.083"/>
</g>
<!-- Node8&#45;&gt;Node6 -->
<g id="edge9" class="edge"><title>Node8&#45;&gt;Node6</title>
<path fill="none" stroke="midnightblue" d="M434.377,-166.217C388.838,-156.013 321.39,-140.901 279.509,-131.516"/>
<polygon fill="midnightblue" stroke="midnightblue" points="433.79,-169.672 444.313,-168.444 435.32,-162.842 433.79,-169.672"/>
</g>
</g>
</svg>
