<?xml version="1.0" encoding="UTF-8" standalone="no"?>
<!DOCTYPE svg PUBLIC "-//W3C//DTD SVG 1.1//EN"
 "http://www.w3.org/Graphics/SVG/1.1/DTD/svg11.dtd">
<!-- Generated by graphviz version 2.38.0 (20140413.2041)
 -->
<!-- Title: OgreGLRenderSystem.h Pages: 1 -->
<svg width="386pt" height="308pt"
 viewBox="0.00 0.00 386.00 308.00" xmlns="http://www.w3.org/2000/svg" xmlns:xlink="http://www.w3.org/1999/xlink">
<g id="graph0" class="graph" transform="scale(1 1) rotate(0) translate(4 304)">
<title>OgreGLRenderSystem.h</title>
<!-- Node1 -->
<g id="node1" class="node"><title>Node1</title>
<polygon fill="#bfbfbf" stroke="black" points="177.5,-280.5 177.5,-299.5 301.5,-299.5 301.5,-280.5 177.5,-280.5"/>
<text text-anchor="middle" x="239.5" y="-287.5" font-family="Helvetica,sans-Serif" font-size="10.00">OgreGLRenderSystem.h</text>
</g>
<!-- Node2 -->
<g id="node2" class="node"><title>Node2</title>
<g id="a_node2"><a xlink:href="_ogre_g_l_support_8h.html" target="_top" xlink:title="OgreGLSupport.h">
<polygon fill="none" stroke="black" points="193.5,-224.5 193.5,-243.5 285.5,-243.5 285.5,-224.5 193.5,-224.5"/>
<text text-anchor="middle" x="239.5" y="-231.5" font-family="Helvetica,sans-Serif" font-size="10.00">OgreGLSupport.h</text>
</a>
</g>
</g>
<!-- Node1&#45;&gt;Node2 -->
<g id="edge1" class="edge"><title>Node1&#45;&gt;Node2</title>
<path fill="none" stroke="midnightblue" d="M239.5,-269.805C239.5,-260.91 239.5,-250.78 239.5,-243.751"/>
<polygon fill="midnightblue" stroke="midnightblue" points="236,-270.083 239.5,-280.083 243,-270.083 236,-270.083"/>
</g>
<!-- Node3 -->
<g id="node3" class="node"><title>Node3</title>
<g id="a_node3"><a xlink:href="_ogre_g_l_a_t_i_f_s_init_8h.html" target="_top" xlink:title="OgreGLATIFSInit.h">
<polygon fill="none" stroke="black" points="74,-168.5 74,-187.5 175,-187.5 175,-168.5 74,-168.5"/>
<text text-anchor="middle" x="124.5" y="-175.5" font-family="Helvetica,sans-Serif" font-size="10.00">OgreGLATIFSInit.h</text>
</a>
</g>
</g>
<!-- Node2&#45;&gt;Node3 -->
<g id="edge2" class="edge"><title>Node2&#45;&gt;Node3</title>
<path fill="none" stroke="midnightblue" d="M212.019,-220.096C190.534,-210.007 161.278,-196.27 142.637,-187.516"/>
<polygon fill="midnightblue" stroke="midnightblue" points="210.738,-223.361 221.278,-224.444 213.714,-217.025 210.738,-223.361"/>
</g>
<!-- Node4 -->
<g id="node4" class="node"><title>Node4</title>
<g id="a_node4"><a xlink:href="_ogre_g_l_texture_8h.html" target="_top" xlink:title="OgreGLTexture.h">
<polygon fill="none" stroke="black" points="193.5,-168.5 193.5,-187.5 285.5,-187.5 285.5,-168.5 193.5,-168.5"/>
<text text-anchor="middle" x="239.5" y="-175.5" font-family="Helvetica,sans-Serif" font-size="10.00">OgreGLTexture.h</text>
</a>
</g>
</g>
<!-- Node2&#45;&gt;Node4 -->
<g id="edge3" class="edge"><title>Node2&#45;&gt;Node4</title>
<path fill="none" stroke="midnightblue" d="M239.5,-213.805C239.5,-204.91 239.5,-194.78 239.5,-187.751"/>
<polygon fill="midnightblue" stroke="midnightblue" points="236,-214.083 239.5,-224.083 243,-214.083 236,-214.083"/>
</g>
<!-- Node9 -->
<g id="node9" class="node"><title>Node9</title>
<g id="a_node9"><a xlink:href="_ogre_g_l_texture_manager_8h.html" target="_top" xlink:title="OgreGLTextureManager.h">
<polygon fill="none" stroke="black" points="249,-112.5 249,-131.5 378,-131.5 378,-112.5 249,-112.5"/>
<text text-anchor="middle" x="313.5" y="-119.5" font-family="Helvetica,sans-Serif" font-size="10.00">OgreGLTextureManager.h</text>
</a>
</g>
</g>
<!-- Node2&#45;&gt;Node9 -->
<g id="edge10" class="edge"><title>Node2&#45;&gt;Node9</title>
<path fill="none" stroke="midnightblue" d="M262.673,-218.834C273.746,-210.993 286.332,-200.339 294.5,-188 306.311,-170.157 310.931,-144.832 312.616,-131.681"/>
<polygon fill="midnightblue" stroke="midnightblue" points="260.586,-216.019 254.231,-224.496 264.486,-221.832 260.586,-216.019"/>
</g>
<!-- Node5 -->
<g id="node5" class="node"><title>Node5</title>
<g id="a_node5"><a xlink:href="_ogre_g_l_render_texture_8h.html" target="_top" xlink:title="OgreGLRenderTexture.h">
<polygon fill="none" stroke="black" points="108,-112.5 108,-131.5 231,-131.5 231,-112.5 108,-112.5"/>
<text text-anchor="middle" x="169.5" y="-119.5" font-family="Helvetica,sans-Serif" font-size="10.00">OgreGLRenderTexture.h</text>
</a>
</g>
</g>
<!-- Node4&#45;&gt;Node5 -->
<g id="edge4" class="edge"><title>Node4&#45;&gt;Node5</title>
<path fill="none" stroke="midnightblue" d="M220.186,-162.101C207.588,-152.382 191.572,-140.027 180.951,-131.834"/>
<polygon fill="midnightblue" stroke="midnightblue" points="218.198,-164.987 228.253,-168.324 222.473,-159.445 218.198,-164.987"/>
</g>
<!-- Node4&#45;&gt;Node9 -->
<g id="edge9" class="edge"><title>Node4&#45;&gt;Node9</title>
<path fill="none" stroke="midnightblue" d="M259.534,-162.38C272.909,-152.62 290.059,-140.106 301.394,-131.834"/>
<polygon fill="midnightblue" stroke="midnightblue" points="257.404,-159.602 251.389,-168.324 261.53,-165.257 257.404,-159.602"/>
</g>
<!-- Node6 -->
<g id="node6" class="node"><title>Node6</title>
<g id="a_node6"><a xlink:href="_ogre_g_l_frame_buffer_object_8h.html" target="_top" xlink:title="OgreGLFrameBufferObject.h">
<polygon fill="none" stroke="red" points="0,-56.5 0,-75.5 141,-75.5 141,-56.5 0,-56.5"/>
<text text-anchor="middle" x="70.5" y="-63.5" font-family="Helvetica,sans-Serif" font-size="10.00">OgreGLFrameBufferObject.h</text>
</a>
</g>
</g>
<!-- Node5&#45;&gt;Node6 -->
<g id="edge5" class="edge"><title>Node5&#45;&gt;Node6</title>
<path fill="none" stroke="midnightblue" d="M144.663,-107.453C126.386,-97.4835 102.084,-84.2279 86.3666,-75.6545"/>
<polygon fill="midnightblue" stroke="midnightblue" points="143.139,-110.608 153.594,-112.324 146.491,-104.463 143.139,-110.608"/>
</g>
<!-- Node7 -->
<g id="node7" class="node"><title>Node7</title>
<g id="a_node7"><a xlink:href="_ogre_g_l_f_b_o_render_texture_8h.html" target="_top" xlink:title="OgreGLFBORenderTexture.h">
<polygon fill="none" stroke="black" points="48,-0.5 48,-19.5 191,-19.5 191,-0.5 48,-0.5"/>
<text text-anchor="middle" x="119.5" y="-7.5" font-family="Helvetica,sans-Serif" font-size="10.00">OgreGLFBORenderTexture.h</text>
</a>
</g>
</g>
<!-- Node5&#45;&gt;Node7 -->
<g id="edge7" class="edge"><title>Node5&#45;&gt;Node7</title>
<path fill="none" stroke="midnightblue" d="M165.314,-102.432C161.953,-89.1331 156.621,-70.9988 149.5,-56 143.057,-42.4287 132.949,-28.2434 126.274,-19.5129"/>
<polygon fill="midnightblue" stroke="midnightblue" points="161.941,-103.378 167.668,-112.291 168.75,-101.752 161.941,-103.378"/>
</g>
<!-- Node8 -->
<g id="node8" class="node"><title>Node8</title>
<g id="a_node8"><a xlink:href="_ogre_g_l_p_b_render_texture_8h.html" target="_top" xlink:title="OgreGLPBRenderTexture.h">
<polygon fill="none" stroke="black" points="198,-56.5 198,-75.5 335,-75.5 335,-56.5 198,-56.5"/>
<text text-anchor="middle" x="266.5" y="-63.5" font-family="Helvetica,sans-Serif" font-size="10.00">OgreGLPBRenderTexture.h</text>
</a>
</g>
</g>
<!-- Node5&#45;&gt;Node8 -->
<g id="edge8" class="edge"><title>Node5&#45;&gt;Node8</title>
<path fill="none" stroke="midnightblue" d="M193.835,-107.453C211.743,-97.4835 235.554,-84.2279 250.954,-75.6545"/>
<polygon fill="midnightblue" stroke="midnightblue" points="192.12,-104.402 185.085,-112.324 195.525,-110.518 192.12,-104.402"/>
</g>
<!-- Node6&#45;&gt;Node7 -->
<g id="edge6" class="edge"><title>Node6&#45;&gt;Node7</title>
<path fill="none" stroke="midnightblue" d="M85.5345,-48.4314C94.1222,-38.9673 104.543,-27.4827 111.559,-19.7511"/>
<polygon fill="midnightblue" stroke="midnightblue" points="82.7193,-46.3254 78.5914,-56.083 87.9033,-51.0293 82.7193,-46.3254"/>
</g>
</g>
</svg>
