<?xml version="1.0" encoding="UTF-8" standalone="no"?>
<!DOCTYPE svg PUBLIC "-//W3C//DTD SVG 1.1//EN"
 "http://www.w3.org/Graphics/SVG/1.1/DTD/svg11.dtd">
<!-- Generated by graphviz version 2.38.0 (20140413.2041)
 -->
<!-- Title: OgreD3D9HardwarePixelBuffer.h Pages: 1 -->
<svg width="282pt" height="84pt"
 viewBox="0.00 0.00 282.00 84.00" xmlns="http://www.w3.org/2000/svg" xmlns:xlink="http://www.w3.org/1999/xlink">
<g id="graph0" class="graph" transform="scale(1 1) rotate(0) translate(4 80)">
<title>OgreD3D9HardwarePixelBuffer.h</title>
<!-- Node1 -->
<g id="node1" class="node"><title>Node1</title>
<polygon fill="#bfbfbf" stroke="black" points="68.5,-56.5 68.5,-75.5 229.5,-75.5 229.5,-56.5 68.5,-56.5"/>
<text text-anchor="middle" x="149" y="-63.5" font-family="Helvetica,sans-Serif" font-size="10.00">OgreD3D9HardwarePixelBuffer.h</text>
</g>
<!-- Node2 -->
<g id="node2" class="node"><title>Node2</title>
<g id="a_node2"><a xlink:href="_ogre_d3_d9_multi_render_target_8h.html" target="_top" xlink:title="OgreD3D9MultiRenderTarget.h">
<polygon fill="none" stroke="black" points="0,-0.5 0,-19.5 152,-19.5 152,-0.5 0,-0.5"/>
<text text-anchor="middle" x="76" y="-7.5" font-family="Helvetica,sans-Serif" font-size="10.00">OgreD3D9MultiRenderTarget.h</text>
</a>
</g>
</g>
<!-- Node1&#45;&gt;Node2 -->
<g id="edge1" class="edge"><title>Node1&#45;&gt;Node2</title>
<path fill="none" stroke="midnightblue" d="M128.858,-50.1008C115.721,-40.3824 99.0179,-28.0269 87.9421,-19.8339"/>
<polygon fill="midnightblue" stroke="midnightblue" points="127.15,-53.1907 137.271,-56.324 131.313,-47.5631 127.15,-53.1907"/>
</g>
<!-- Node3 -->
<g id="node3" class="node"><title>Node3</title>
<g id="a_node3"><a xlink:href="_ogre_d3_d9_texture_8h.html" target="_top" xlink:title="OgreD3D9Texture.h">
<polygon fill="none" stroke="black" points="170,-0.5 170,-19.5 274,-19.5 274,-0.5 170,-0.5"/>
<text text-anchor="middle" x="222" y="-7.5" font-family="Helvetica,sans-Serif" font-size="10.00">OgreD3D9Texture.h</text>
</a>
</g>
</g>
<!-- Node1&#45;&gt;Node3 -->
<g id="edge2" class="edge"><title>Node1&#45;&gt;Node3</title>
<path fill="none" stroke="midnightblue" d="M169.142,-50.1008C182.279,-40.3824 198.982,-28.0269 210.058,-19.8339"/>
<polygon fill="midnightblue" stroke="midnightblue" points="166.687,-47.5631 160.729,-56.324 170.85,-53.1907 166.687,-47.5631"/>
</g>
</g>
</svg>
