<?xml version="1.0" encoding="UTF-8" standalone="no"?>
<!DOCTYPE svg PUBLIC "-//W3C//DTD SVG 1.1//EN"
 "http://www.w3.org/Graphics/SVG/1.1/DTD/svg11.dtd">
<!-- Generated by graphviz version 2.38.0 (20140413.2041)
 -->
<!-- Title: OgreGLPixelFormat.h Pages: 1 -->
<svg width="3384pt" height="308pt"
 viewBox="0.00 0.00 3384.10 308.00" xmlns="http://www.w3.org/2000/svg" xmlns:xlink="http://www.w3.org/1999/xlink">
<g id="graph0" class="graph" transform="scale(1 1) rotate(0) translate(4 304)">
<title>OgreGLPixelFormat.h</title>
<!-- Node1 -->
<g id="node1" class="node"><title>Node1</title>
<polygon fill="#bfbfbf" stroke="black" points="468,-280.5 468,-299.5 579,-299.5 579,-280.5 468,-280.5"/>
<text text-anchor="middle" x="523.5" y="-287.5" font-family="Helvetica,sans-Serif" font-size="10.00">OgreGLPixelFormat.h</text>
</g>
<!-- Node2 -->
<g id="node2" class="node"><title>Node2</title>
<g id="a_node2"><a xlink:href="_ogre_g_l_prerequisites_8h.html" target="_top" xlink:title="OgreGLPrerequisites.h">
<polygon fill="none" stroke="black" points="210.5,-224.5 210.5,-243.5 326.5,-243.5 326.5,-224.5 210.5,-224.5"/>
<text text-anchor="middle" x="268.5" y="-231.5" font-family="Helvetica,sans-Serif" font-size="10.00">OgreGLPrerequisites.h</text>
</a>
</g>
</g>
<!-- Node1&#45;&gt;Node2 -->
<g id="edge1" class="edge"><title>Node1&#45;&gt;Node2</title>
<path fill="none" stroke="midnightblue" d="M483.094,-280.444C438.517,-271.004 366.732,-255.802 318.608,-245.611"/>
<polygon fill="midnightblue" stroke="midnightblue" points="319.225,-242.164 308.716,-243.516 317.774,-249.012 319.225,-242.164"/>
</g>
<!-- Node48 -->
<g id="node48" class="node"><title>Node48</title>
<g id="a_node48"><a xlink:href="_ogre_pixel_format_8h.html" target="_top" xlink:title="OgrePixelFormat.h">
<polygon fill="none" stroke="black" points="729.5,-224.5 729.5,-243.5 827.5,-243.5 827.5,-224.5 729.5,-224.5"/>
<text text-anchor="middle" x="778.5" y="-231.5" font-family="Helvetica,sans-Serif" font-size="10.00">OgrePixelFormat.h</text>
</a>
</g>
</g>
<!-- Node1&#45;&gt;Node48 -->
<g id="edge56" class="edge"><title>Node1&#45;&gt;Node48</title>
<path fill="none" stroke="midnightblue" d="M563.906,-280.444C608.483,-271.004 680.268,-255.802 728.392,-245.611"/>
<polygon fill="midnightblue" stroke="midnightblue" points="729.226,-249.012 738.284,-243.516 727.775,-242.164 729.226,-249.012"/>
</g>
<!-- Node3 -->
<g id="node3" class="node"><title>Node3</title>
<g id="a_node3"><a xlink:href="_ogre_prerequisites_8h.html" target="_top" xlink:title="OgrePrerequisites.h">
<polygon fill="none" stroke="black" points="727,-168.5 727,-187.5 830,-187.5 830,-168.5 727,-168.5"/>
<text text-anchor="middle" x="778.5" y="-175.5" font-family="Helvetica,sans-Serif" font-size="10.00">OgrePrerequisites.h</text>
</a>
</g>
</g>
<!-- Node2&#45;&gt;Node3 -->
<g id="edge2" class="edge"><title>Node2&#45;&gt;Node3</title>
<path fill="none" stroke="midnightblue" d="M326.507,-226.858C423.333,-216.606 617.047,-196.095 716.48,-185.567"/>
<polygon fill="midnightblue" stroke="midnightblue" points="717.098,-189.021 726.674,-184.488 716.361,-182.06 717.098,-189.021"/>
</g>
<!-- Node43 -->
<g id="node43" class="node"><title>Node43</title>
<polygon fill="none" stroke="#bfbfbf" points="237,-168.5 237,-187.5 300,-187.5 300,-168.5 237,-168.5"/>
<text text-anchor="middle" x="268.5" y="-175.5" font-family="Helvetica,sans-Serif" font-size="10.00">windows.h</text>
</g>
<!-- Node2&#45;&gt;Node43 -->
<g id="edge51" class="edge"><title>Node2&#45;&gt;Node43</title>
<path fill="none" stroke="midnightblue" d="M268.5,-224.083C268.5,-217.006 268.5,-206.861 268.5,-197.986"/>
<polygon fill="midnightblue" stroke="midnightblue" points="272,-197.751 268.5,-187.751 265,-197.751 272,-197.751"/>
</g>
<!-- Node44 -->
<g id="node44" class="node"><title>Node44</title>
<polygon fill="none" stroke="#bfbfbf" points="318,-168.5 318,-187.5 371,-187.5 371,-168.5 318,-168.5"/>
<text text-anchor="middle" x="344.5" y="-175.5" font-family="Helvetica,sans-Serif" font-size="10.00">wingdi.h</text>
</g>
<!-- Node2&#45;&gt;Node44 -->
<g id="edge52" class="edge"><title>Node2&#45;&gt;Node44</title>
<path fill="none" stroke="midnightblue" d="M280.711,-224.324C292.276,-216.107 309.875,-203.602 323.661,-193.807"/>
<polygon fill="midnightblue" stroke="midnightblue" points="325.943,-196.479 332.067,-187.834 321.888,-190.773 325.943,-196.479"/>
</g>
<!-- Node45 -->
<g id="node45" class="node"><title>Node45</title>
<polygon fill="none" stroke="#bfbfbf" points="0,-168.5 0,-187.5 61,-187.5 61,-168.5 0,-168.5"/>
<text text-anchor="middle" x="30.5" y="-175.5" font-family="Helvetica,sans-Serif" font-size="10.00">GL/glew.h</text>
</g>
<!-- Node2&#45;&gt;Node45 -->
<g id="edge53" class="edge"><title>Node2&#45;&gt;Node45</title>
<path fill="none" stroke="midnightblue" d="M230.788,-224.444C187.255,-214.566 115.92,-198.381 71.1713,-188.228"/>
<polygon fill="midnightblue" stroke="midnightblue" points="71.7505,-184.77 61.2239,-185.971 70.2016,-191.597 71.7505,-184.77"/>
</g>
<!-- Node46 -->
<g id="node46" class="node"><title>Node46</title>
<polygon fill="none" stroke="#bfbfbf" points="79.5,-168.5 79.5,-187.5 147.5,-187.5 147.5,-168.5 79.5,-168.5"/>
<text text-anchor="middle" x="113.5" y="-175.5" font-family="Helvetica,sans-Serif" font-size="10.00">GL/wglew.h</text>
</g>
<!-- Node2&#45;&gt;Node46 -->
<g id="edge54" class="edge"><title>Node2&#45;&gt;Node46</title>
<path fill="none" stroke="midnightblue" d="M243.94,-224.444C217.977,-215.399 176.832,-201.064 147.703,-190.916"/>
<polygon fill="midnightblue" stroke="midnightblue" points="148.54,-187.501 137.945,-187.516 146.237,-194.112 148.54,-187.501"/>
</g>
<!-- Node47 -->
<g id="node47" class="node"><title>Node47</title>
<polygon fill="none" stroke="#bfbfbf" points="166,-168.5 166,-187.5 219,-187.5 219,-168.5 166,-168.5"/>
<text text-anchor="middle" x="192.5" y="-175.5" font-family="Helvetica,sans-Serif" font-size="10.00">GL/glu.h</text>
</g>
<!-- Node2&#45;&gt;Node47 -->
<g id="edge55" class="edge"><title>Node2&#45;&gt;Node47</title>
<path fill="none" stroke="midnightblue" d="M256.289,-224.324C244.724,-216.107 227.125,-203.602 213.339,-193.807"/>
<polygon fill="midnightblue" stroke="midnightblue" points="215.112,-190.773 204.933,-187.834 211.057,-196.479 215.112,-190.773"/>
</g>
<!-- Node4 -->
<g id="node4" class="node"><title>Node4</title>
<g id="a_node4"><a xlink:href="_ogre_platform_8h.html" target="_top" xlink:title="OgrePlatform.h">
<polygon fill="none" stroke="black" points="471,-112.5 471,-131.5 554,-131.5 554,-112.5 471,-112.5"/>
<text text-anchor="middle" x="512.5" y="-119.5" font-family="Helvetica,sans-Serif" font-size="10.00">OgrePlatform.h</text>
</a>
</g>
</g>
<!-- Node3&#45;&gt;Node4 -->
<g id="edge3" class="edge"><title>Node3&#45;&gt;Node4</title>
<path fill="none" stroke="midnightblue" d="M736.352,-168.444C689.617,-158.956 614.214,-143.649 564.013,-133.457"/>
<polygon fill="midnightblue" stroke="midnightblue" points="564.51,-129.987 554.013,-131.428 563.117,-136.847 564.51,-129.987"/>
</g>
<!-- Node6 -->
<g id="node6" class="node"><title>Node6</title>
<polygon fill="none" stroke="#bfbfbf" points="1068,-56.5 1068,-75.5 1109,-75.5 1109,-56.5 1068,-56.5"/>
<text text-anchor="middle" x="1088.5" y="-63.5" font-family="Helvetica,sans-Serif" font-size="10.00">string</text>
</g>
<!-- Node3&#45;&gt;Node6 -->
<g id="edge5" class="edge"><title>Node3&#45;&gt;Node6</title>
<path fill="none" stroke="midnightblue" d="M802.567,-168.46C858.491,-148.616 997.101,-99.4318 1058.46,-77.6607"/>
<polygon fill="midnightblue" stroke="midnightblue" points="1059.7,-80.9321 1067.96,-74.2894 1057.36,-74.3351 1059.7,-80.9321"/>
</g>
<!-- Node7 -->
<g id="node7" class="node"><title>Node7</title>
<g id="a_node7"><a xlink:href="_ogre_std_headers_8h.html" target="_top" xlink:title="OgreStdHeaders.h">
<polygon fill="none" stroke="black" points="2159.5,-112.5 2159.5,-131.5 2257.5,-131.5 2257.5,-112.5 2159.5,-112.5"/>
<text text-anchor="middle" x="2208.5" y="-119.5" font-family="Helvetica,sans-Serif" font-size="10.00">OgreStdHeaders.h</text>
</a>
</g>
</g>
<!-- Node3&#45;&gt;Node7 -->
<g id="edge6" class="edge"><title>Node3&#45;&gt;Node7</title>
<path fill="none" stroke="midnightblue" d="M830.239,-175.046C1051.15,-166.704 1914.74,-134.093 2149.38,-125.232"/>
<polygon fill="midnightblue" stroke="midnightblue" points="2149.57,-128.728 2159.43,-124.853 2149.3,-121.733 2149.57,-128.728"/>
</g>
<!-- Node37 -->
<g id="node37" class="node"><title>Node37</title>
<g id="a_node37"><a xlink:href="_ogre_memory_allocator_config_8h.html" target="_top" xlink:title="This file configures Ogre&#39;s memory allocators. ">
<polygon fill="none" stroke="black" points="704.5,-112.5 704.5,-131.5 852.5,-131.5 852.5,-112.5 704.5,-112.5"/>
<text text-anchor="middle" x="778.5" y="-119.5" font-family="Helvetica,sans-Serif" font-size="10.00">OgreMemoryAllocatorConfig.h</text>
</a>
</g>
</g>
<!-- Node3&#45;&gt;Node37 -->
<g id="edge37" class="edge"><title>Node3&#45;&gt;Node37</title>
<path fill="none" stroke="midnightblue" d="M778.5,-168.083C778.5,-161.006 778.5,-150.861 778.5,-141.986"/>
<polygon fill="midnightblue" stroke="midnightblue" points="782,-141.751 778.5,-131.751 775,-141.751 782,-141.751"/>
</g>
<!-- Node5 -->
<g id="node5" class="node"><title>Node5</title>
<g id="a_node5"><a xlink:href="_ogre_config_8h.html" target="_top" xlink:title="OgreConfig.h">
<polygon fill="none" stroke="red" points="427.5,-56.5 427.5,-75.5 501.5,-75.5 501.5,-56.5 427.5,-56.5"/>
<text text-anchor="middle" x="464.5" y="-63.5" font-family="Helvetica,sans-Serif" font-size="10.00">OgreConfig.h</text>
</a>
</g>
</g>
<!-- Node4&#45;&gt;Node5 -->
<g id="edge4" class="edge"><title>Node4&#45;&gt;Node5</title>
<path fill="none" stroke="midnightblue" d="M504.574,-112.083C497.654,-104.298 487.435,-92.8015 479.048,-83.3665"/>
<polygon fill="midnightblue" stroke="midnightblue" points="481.538,-80.8999 472.279,-75.7511 476.306,-85.5505 481.538,-80.8999"/>
</g>
<!-- Node7&#45;&gt;Node6 -->
<g id="edge16" class="edge"><title>Node7&#45;&gt;Node6</title>
<path fill="none" stroke="midnightblue" d="M2159.28,-120.601C1977.36,-118.876 1342.53,-110.579 1119.32,-75.6047"/>
<polygon fill="midnightblue" stroke="midnightblue" points="1119.76,-72.1297 1109.32,-73.9731 1118.63,-79.0383 1119.76,-72.1297"/>
</g>
<!-- Node8 -->
<g id="node8" class="node"><title>Node8</title>
<polygon fill="none" stroke="#bfbfbf" points="1633,-56.5 1633,-75.5 1682,-75.5 1682,-56.5 1633,-56.5"/>
<text text-anchor="middle" x="1657.5" y="-63.5" font-family="Helvetica,sans-Serif" font-size="10.00">cassert</text>
</g>
<!-- Node7&#45;&gt;Node8 -->
<g id="edge7" class="edge"><title>Node7&#45;&gt;Node8</title>
<path fill="none" stroke="midnightblue" d="M2159.31,-119.532C2068.69,-116.219 1869.27,-106.089 1692.29,-75.8227"/>
<polygon fill="midnightblue" stroke="midnightblue" points="1692.72,-72.3466 1682.27,-74.0844 1691.53,-79.2434 1692.72,-72.3466"/>
</g>
<!-- Node9 -->
<g id="node9" class="node"><title>Node9</title>
<polygon fill="none" stroke="#bfbfbf" points="1700,-56.5 1700,-75.5 1743,-75.5 1743,-56.5 1700,-56.5"/>
<text text-anchor="middle" x="1721.5" y="-63.5" font-family="Helvetica,sans-Serif" font-size="10.00">cstdio</text>
</g>
<!-- Node7&#45;&gt;Node9 -->
<g id="edge8" class="edge"><title>Node7&#45;&gt;Node9</title>
<path fill="none" stroke="midnightblue" d="M2159.49,-119.124C2077.3,-115.334 1906.5,-104.707 1753.13,-75.743"/>
<polygon fill="midnightblue" stroke="midnightblue" points="1753.54,-72.2568 1743.06,-73.8086 1752.22,-79.1313 1753.54,-72.2568"/>
</g>
<!-- Node10 -->
<g id="node10" class="node"><title>Node10</title>
<polygon fill="none" stroke="#bfbfbf" points="1761,-56.5 1761,-75.5 1806,-75.5 1806,-56.5 1761,-56.5"/>
<text text-anchor="middle" x="1783.5" y="-63.5" font-family="Helvetica,sans-Serif" font-size="10.00">cstdlib</text>
</g>
<!-- Node7&#45;&gt;Node10 -->
<g id="edge9" class="edge"><title>Node7&#45;&gt;Node10</title>
<path fill="none" stroke="midnightblue" d="M2159.41,-117.915C2086.53,-112.78 1945.37,-100.707 1816.19,-75.8165"/>
<polygon fill="midnightblue" stroke="midnightblue" points="1816.6,-72.3314 1806.12,-73.8449 1815.26,-79.201 1816.6,-72.3314"/>
</g>
<!-- Node11 -->
<g id="node11" class="node"><title>Node11</title>
<polygon fill="none" stroke="#bfbfbf" points="1824,-56.5 1824,-75.5 1865,-75.5 1865,-56.5 1824,-56.5"/>
<text text-anchor="middle" x="1844.5" y="-63.5" font-family="Helvetica,sans-Serif" font-size="10.00">ctime</text>
</g>
<!-- Node7&#45;&gt;Node11 -->
<g id="edge10" class="edge"><title>Node7&#45;&gt;Node11</title>
<path fill="none" stroke="midnightblue" d="M2159.41,-116.827C2095.9,-110.891 1981.76,-98.4004 1875.02,-75.7772"/>
<polygon fill="midnightblue" stroke="midnightblue" points="1875.56,-72.3131 1865.05,-73.6286 1874.08,-79.1561 1875.56,-72.3131"/>
</g>
<!-- Node12 -->
<g id="node12" class="node"><title>Node12</title>
<polygon fill="none" stroke="#bfbfbf" points="1883.5,-56.5 1883.5,-75.5 1929.5,-75.5 1929.5,-56.5 1883.5,-56.5"/>
<text text-anchor="middle" x="1906.5" y="-63.5" font-family="Helvetica,sans-Serif" font-size="10.00">cstring</text>
</g>
<!-- Node7&#45;&gt;Node12 -->
<g id="edge11" class="edge"><title>Node7&#45;&gt;Node12</title>
<path fill="none" stroke="midnightblue" d="M2159.13,-114.261C2104.96,-106.514 2015.58,-92.6941 1939.5,-76 1939.4,-75.9777 1939.3,-75.9553 1939.2,-75.9328"/>
<polygon fill="midnightblue" stroke="midnightblue" points="1940.05,-72.5383 1929.51,-73.5914 1938.4,-79.3425 1940.05,-72.5383"/>
</g>
<!-- Node13 -->
<g id="node13" class="node"><title>Node13</title>
<polygon fill="none" stroke="#bfbfbf" points="1948,-56.5 1948,-75.5 1997,-75.5 1997,-56.5 1948,-56.5"/>
<text text-anchor="middle" x="1972.5" y="-63.5" font-family="Helvetica,sans-Serif" font-size="10.00">cstdarg</text>
</g>
<!-- Node7&#45;&gt;Node13 -->
<g id="edge12" class="edge"><title>Node7&#45;&gt;Node13</title>
<path fill="none" stroke="midnightblue" d="M2167.77,-112.421C2128.97,-104.139 2068.69,-90.9865 2007.23,-76.1033"/>
<polygon fill="midnightblue" stroke="midnightblue" points="2007.9,-72.6649 1997.35,-73.7003 2006.24,-79.4662 2007.9,-72.6649"/>
</g>
<!-- Node14 -->
<g id="node14" class="node"><title>Node14</title>
<polygon fill="none" stroke="#bfbfbf" points="2015.5,-56.5 2015.5,-75.5 2059.5,-75.5 2059.5,-56.5 2015.5,-56.5"/>
<text text-anchor="middle" x="2037.5" y="-63.5" font-family="Helvetica,sans-Serif" font-size="10.00">cmath</text>
</g>
<!-- Node7&#45;&gt;Node14 -->
<g id="edge13" class="edge"><title>Node7&#45;&gt;Node14</title>
<path fill="none" stroke="midnightblue" d="M2181.4,-112.444C2150.98,-102.837 2101.66,-87.2622 2069.4,-77.0749"/>
<polygon fill="midnightblue" stroke="midnightblue" points="2070.16,-73.6448 2059.57,-73.971 2068.06,-80.3199 2070.16,-73.6448"/>
</g>
<!-- Node15 -->
<g id="node15" class="node"><title>Node15</title>
<polygon fill="none" stroke="#bfbfbf" points="2077.5,-56.5 2077.5,-75.5 2121.5,-75.5 2121.5,-56.5 2077.5,-56.5"/>
<text text-anchor="middle" x="2099.5" y="-63.5" font-family="Helvetica,sans-Serif" font-size="10.00">vector</text>
</g>
<!-- Node7&#45;&gt;Node15 -->
<g id="edge14" class="edge"><title>Node7&#45;&gt;Node15</title>
<path fill="none" stroke="midnightblue" d="M2190.99,-112.324C2173.43,-103.625 2146.17,-90.1202 2125.97,-80.113"/>
<polygon fill="midnightblue" stroke="midnightblue" points="2127.48,-76.9575 2116.97,-75.6545 2124.38,-83.23 2127.48,-76.9575"/>
</g>
<!-- Node16 -->
<g id="node16" class="node"><title>Node16</title>
<polygon fill="none" stroke="#bfbfbf" points="2140,-56.5 2140,-75.5 2175,-75.5 2175,-56.5 2140,-56.5"/>
<text text-anchor="middle" x="2157.5" y="-63.5" font-family="Helvetica,sans-Serif" font-size="10.00">map</text>
</g>
<!-- Node7&#45;&gt;Node16 -->
<g id="edge15" class="edge"><title>Node7&#45;&gt;Node16</title>
<path fill="none" stroke="midnightblue" d="M2200.08,-112.083C2192.65,-104.22 2181.65,-92.5688 2172.69,-83.0813"/>
<polygon fill="midnightblue" stroke="midnightblue" points="2175.18,-80.618 2165.76,-75.7511 2170.09,-85.4244 2175.18,-80.618"/>
</g>
<!-- Node17 -->
<g id="node17" class="node"><title>Node17</title>
<polygon fill="none" stroke="#bfbfbf" points="2193.5,-56.5 2193.5,-75.5 2223.5,-75.5 2223.5,-56.5 2193.5,-56.5"/>
<text text-anchor="middle" x="2208.5" y="-63.5" font-family="Helvetica,sans-Serif" font-size="10.00">set</text>
</g>
<!-- Node7&#45;&gt;Node17 -->
<g id="edge17" class="edge"><title>Node7&#45;&gt;Node17</title>
<path fill="none" stroke="midnightblue" d="M2208.5,-112.083C2208.5,-105.006 2208.5,-94.8611 2208.5,-85.9865"/>
<polygon fill="midnightblue" stroke="midnightblue" points="2212,-85.751 2208.5,-75.7511 2205,-85.7511 2212,-85.751"/>
</g>
<!-- Node18 -->
<g id="node18" class="node"><title>Node18</title>
<polygon fill="none" stroke="#bfbfbf" points="2242,-56.5 2242,-75.5 2271,-75.5 2271,-56.5 2242,-56.5"/>
<text text-anchor="middle" x="2256.5" y="-63.5" font-family="Helvetica,sans-Serif" font-size="10.00">list</text>
</g>
<!-- Node7&#45;&gt;Node18 -->
<g id="edge18" class="edge"><title>Node7&#45;&gt;Node18</title>
<path fill="none" stroke="midnightblue" d="M2216.43,-112.083C2223.35,-104.298 2233.57,-92.8015 2241.95,-83.3665"/>
<polygon fill="midnightblue" stroke="midnightblue" points="2244.69,-85.5505 2248.72,-75.7511 2239.46,-80.8999 2244.69,-85.5505"/>
</g>
<!-- Node19 -->
<g id="node19" class="node"><title>Node19</title>
<polygon fill="none" stroke="#bfbfbf" points="2289,-56.5 2289,-75.5 2332,-75.5 2332,-56.5 2289,-56.5"/>
<text text-anchor="middle" x="2310.5" y="-63.5" font-family="Helvetica,sans-Serif" font-size="10.00">deque</text>
</g>
<!-- Node7&#45;&gt;Node19 -->
<g id="edge19" class="edge"><title>Node7&#45;&gt;Node19</title>
<path fill="none" stroke="midnightblue" d="M2224.89,-112.324C2241.17,-103.703 2266.37,-90.3643 2285.22,-80.3855"/>
<polygon fill="midnightblue" stroke="midnightblue" points="2286.95,-83.4267 2294.15,-75.6545 2283.68,-77.2402 2286.95,-83.4267"/>
</g>
<!-- Node20 -->
<g id="node20" class="node"><title>Node20</title>
<polygon fill="none" stroke="#bfbfbf" points="2350,-56.5 2350,-75.5 2393,-75.5 2393,-56.5 2350,-56.5"/>
<text text-anchor="middle" x="2371.5" y="-63.5" font-family="Helvetica,sans-Serif" font-size="10.00">queue</text>
</g>
<!-- Node7&#45;&gt;Node20 -->
<g id="edge20" class="edge"><title>Node7&#45;&gt;Node20</title>
<path fill="none" stroke="midnightblue" d="M2234.33,-112.444C2263.04,-102.932 2309.41,-87.5697 2340.17,-77.3787"/>
<polygon fill="midnightblue" stroke="midnightblue" points="2341.57,-80.6041 2349.96,-74.1368 2339.36,-73.9593 2341.57,-80.6041"/>
</g>
<!-- Node21 -->
<g id="node21" class="node"><title>Node21</title>
<polygon fill="none" stroke="#bfbfbf" points="2411,-56.5 2411,-75.5 2452,-75.5 2452,-56.5 2411,-56.5"/>
<text text-anchor="middle" x="2431.5" y="-63.5" font-family="Helvetica,sans-Serif" font-size="10.00">bitset</text>
</g>
<!-- Node7&#45;&gt;Node21 -->
<g id="edge21" class="edge"><title>Node7&#45;&gt;Node21</title>
<path fill="none" stroke="midnightblue" d="M2249.22,-112.462C2286.46,-104.449 2343.3,-91.7205 2400.95,-76.2838"/>
<polygon fill="midnightblue" stroke="midnightblue" points="2402.22,-79.5662 2410.96,-73.5779 2400.39,-72.8087 2402.22,-79.5662"/>
</g>
<!-- Node22 -->
<g id="node22" class="node"><title>Node22</title>
<polygon fill="none" stroke="#bfbfbf" points="2470.5,-56.5 2470.5,-75.5 2526.5,-75.5 2526.5,-56.5 2470.5,-56.5"/>
<text text-anchor="middle" x="2498.5" y="-63.5" font-family="Helvetica,sans-Serif" font-size="10.00">algorithm</text>
</g>
<!-- Node7&#45;&gt;Node22 -->
<g id="edge22" class="edge"><title>Node7&#45;&gt;Node22</title>
<path fill="none" stroke="midnightblue" d="M2257.65,-113.194C2306.56,-105.216 2383.98,-92.0254 2460.03,-76.2081"/>
<polygon fill="midnightblue" stroke="midnightblue" points="2461.19,-79.5404 2470.26,-74.062 2459.75,-72.6894 2461.19,-79.5404"/>
</g>
<!-- Node23 -->
<g id="node23" class="node"><title>Node23</title>
<polygon fill="none" stroke="#bfbfbf" points="2545,-56.5 2545,-75.5 2604,-75.5 2604,-56.5 2545,-56.5"/>
<text text-anchor="middle" x="2574.5" y="-63.5" font-family="Helvetica,sans-Serif" font-size="10.00">functional</text>
</g>
<!-- Node7&#45;&gt;Node23 -->
<g id="edge23" class="edge"><title>Node7&#45;&gt;Node23</title>
<path fill="none" stroke="midnightblue" d="M2257.75,-115.624C2319.94,-108.525 2430.39,-94.8865 2534.68,-76.0006"/>
<polygon fill="midnightblue" stroke="midnightblue" points="2535.54,-79.4006 2544.75,-74.1566 2534.28,-72.5151 2535.54,-79.4006"/>
</g>
<!-- Node24 -->
<g id="node24" class="node"><title>Node24</title>
<polygon fill="none" stroke="#bfbfbf" points="2622.5,-56.5 2622.5,-75.5 2662.5,-75.5 2662.5,-56.5 2622.5,-56.5"/>
<text text-anchor="middle" x="2642.5" y="-63.5" font-family="Helvetica,sans-Serif" font-size="10.00">limits</text>
</g>
<!-- Node7&#45;&gt;Node24 -->
<g id="edge24" class="edge"><title>Node7&#45;&gt;Node24</title>
<path fill="none" stroke="midnightblue" d="M2257.6,-118.563C2332.4,-114.192 2479.37,-103.018 2612.39,-75.8609"/>
<polygon fill="midnightblue" stroke="midnightblue" points="2613.27,-79.2529 2622.35,-73.7919 2611.84,-72.3992 2613.27,-79.2529"/>
</g>
<!-- Node25 -->
<g id="node25" class="node"><title>Node25</title>
<polygon fill="none" stroke="#bfbfbf" points="2680.5,-56.5 2680.5,-75.5 2730.5,-75.5 2730.5,-56.5 2680.5,-56.5"/>
<text text-anchor="middle" x="2705.5" y="-63.5" font-family="Helvetica,sans-Serif" font-size="10.00">fstream</text>
</g>
<!-- Node7&#45;&gt;Node25 -->
<g id="edge25" class="edge"><title>Node7&#45;&gt;Node25</title>
<path fill="none" stroke="midnightblue" d="M2257.52,-118.847C2340.59,-114.63 2514.39,-103.356 2670.12,-75.9699"/>
<polygon fill="midnightblue" stroke="midnightblue" points="2671.12,-79.3465 2680.35,-74.1426 2669.89,-72.4555 2671.12,-79.3465"/>
</g>
<!-- Node26 -->
<g id="node26" class="node"><title>Node26</title>
<polygon fill="none" stroke="#bfbfbf" points="2749,-56.5 2749,-75.5 2794,-75.5 2794,-56.5 2749,-56.5"/>
<text text-anchor="middle" x="2771.5" y="-63.5" font-family="Helvetica,sans-Serif" font-size="10.00">iosfwd</text>
</g>
<!-- Node7&#45;&gt;Node26 -->
<g id="edge26" class="edge"><title>Node7&#45;&gt;Node26</title>
<path fill="none" stroke="midnightblue" d="M2257.59,-119.942C2350.07,-117.28 2556.4,-108.151 2738.85,-75.7418"/>
<polygon fill="midnightblue" stroke="midnightblue" points="2739.68,-79.1493 2748.9,-73.9291 2738.44,-72.2606 2739.68,-79.1493"/>
</g>
<!-- Node27 -->
<g id="node27" class="node"><title>Node27</title>
<polygon fill="none" stroke="#bfbfbf" points="2812.5,-56.5 2812.5,-75.5 2864.5,-75.5 2864.5,-56.5 2812.5,-56.5"/>
<text text-anchor="middle" x="2838.5" y="-63.5" font-family="Helvetica,sans-Serif" font-size="10.00">sstream</text>
</g>
<!-- Node7&#45;&gt;Node27 -->
<g id="edge27" class="edge"><title>Node7&#45;&gt;Node27</title>
<path fill="none" stroke="midnightblue" d="M2257.83,-120.201C2358.55,-117.938 2595.13,-109.391 2802.09,-75.9471"/>
<polygon fill="midnightblue" stroke="midnightblue" points="2802.93,-79.3559 2812.23,-74.2838 2801.8,-72.4481 2802.93,-79.3559"/>
</g>
<!-- Node28 -->
<g id="node28" class="node"><title>Node28</title>
<polygon fill="none" stroke="#bfbfbf" points="2882.5,-56.5 2882.5,-75.5 2950.5,-75.5 2950.5,-56.5 2882.5,-56.5"/>
<text text-anchor="middle" x="2916.5" y="-63.5" font-family="Helvetica,sans-Serif" font-size="10.00">sys/types.h</text>
</g>
<!-- Node7&#45;&gt;Node28 -->
<g id="edge28" class="edge"><title>Node7&#45;&gt;Node28</title>
<path fill="none" stroke="midnightblue" d="M2257.54,-120.007C2366.44,-117.303 2636.72,-107.828 2872.18,-75.9891"/>
<polygon fill="midnightblue" stroke="midnightblue" points="2872.87,-79.4272 2882.31,-74.6032 2871.92,-72.4919 2872.87,-79.4272"/>
</g>
<!-- Node29 -->
<g id="node29" class="node"><title>Node29</title>
<polygon fill="none" stroke="#bfbfbf" points="2968.5,-56.5 2968.5,-75.5 3028.5,-75.5 3028.5,-56.5 2968.5,-56.5"/>
<text text-anchor="middle" x="2998.5" y="-63.5" font-family="Helvetica,sans-Serif" font-size="10.00">sys/stat.h</text>
</g>
<!-- Node7&#45;&gt;Node29 -->
<g id="edge29" class="edge"><title>Node7&#45;&gt;Node29</title>
<path fill="none" stroke="midnightblue" d="M2257.55,-120.885C2376.36,-120.003 2688.99,-114.066 2958.39,-75.9083"/>
<polygon fill="midnightblue" stroke="midnightblue" points="2958.96,-79.3631 2968.36,-74.4789 2957.96,-72.434 2958.96,-79.3631"/>
</g>
<!-- Node30 -->
<g id="node30" class="node"><title>Node30</title>
<polygon fill="none" stroke="#bfbfbf" points="3047,-56.5 3047,-75.5 3098,-75.5 3098,-56.5 3047,-56.5"/>
<text text-anchor="middle" x="3072.5" y="-63.5" font-family="Helvetica,sans-Serif" font-size="10.00">unistd.h</text>
</g>
<!-- Node7&#45;&gt;Node30 -->
<g id="edge30" class="edge"><title>Node7&#45;&gt;Node30</title>
<path fill="none" stroke="midnightblue" d="M2257.9,-121.702C2385.49,-122.794 2736.4,-121.221 3036.42,-75.8246"/>
<polygon fill="midnightblue" stroke="midnightblue" points="3037.27,-79.2355 3046.62,-74.2607 3036.21,-72.3163 3037.27,-79.2355"/>
</g>
<!-- Node31 -->
<g id="node31" class="node"><title>Node31</title>
<polygon fill="none" stroke="#bfbfbf" points="3116.5,-56.5 3116.5,-75.5 3162.5,-75.5 3162.5,-56.5 3116.5,-56.5"/>
<text text-anchor="middle" x="3139.5" y="-63.5" font-family="Helvetica,sans-Serif" font-size="10.00">dlfcn.h</text>
</g>
<!-- Node7&#45;&gt;Node31 -->
<g id="edge31" class="edge"><title>Node7&#45;&gt;Node31</title>
<path fill="none" stroke="midnightblue" d="M2257.53,-119.993C2417.28,-116.49 2922.48,-103.602 3106.15,-75.7928"/>
<polygon fill="midnightblue" stroke="midnightblue" points="3106.89,-79.2197 3116.22,-74.1995 3105.79,-72.3057 3106.89,-79.2197"/>
</g>
<!-- Node32 -->
<g id="node32" class="node"><title>Node32</title>
<polygon fill="none" stroke="#bfbfbf" points="3180.5,-56.5 3180.5,-75.5 3258.5,-75.5 3258.5,-56.5 3180.5,-56.5"/>
<text text-anchor="middle" x="3219.5" y="-63.5" font-family="Helvetica,sans-Serif" font-size="10.00">ext/hash_map</text>
</g>
<!-- Node7&#45;&gt;Node32 -->
<g id="edge32" class="edge"><title>Node7&#45;&gt;Node32</title>
<path fill="none" stroke="midnightblue" d="M2257.55,-121.103C2398.22,-120.89 2815.18,-116.694 3170.31,-75.9668"/>
<polygon fill="midnightblue" stroke="midnightblue" points="3170.74,-79.4406 3180.27,-74.8131 3169.94,-72.4871 3170.74,-79.4406"/>
</g>
<!-- Node33 -->
<g id="node33" class="node"><title>Node33</title>
<polygon fill="none" stroke="#bfbfbf" points="1127,-56.5 1127,-75.5 1200,-75.5 1200,-56.5 1127,-56.5"/>
<text text-anchor="middle" x="1163.5" y="-63.5" font-family="Helvetica,sans-Serif" font-size="10.00">ext/hash_set</text>
</g>
<!-- Node7&#45;&gt;Node33 -->
<g id="edge33" class="edge"><title>Node7&#45;&gt;Node33</title>
<path fill="none" stroke="midnightblue" d="M2159.43,-121.356C2015.25,-121.858 1580.32,-119.471 1210.19,-75.8673"/>
<polygon fill="midnightblue" stroke="midnightblue" points="1210.42,-72.371 1200.08,-74.6646 1209.6,-79.322 1210.42,-72.371"/>
</g>
<!-- Node34 -->
<g id="node34" class="node"><title>Node34</title>
<polygon fill="none" stroke="#bfbfbf" points="1218,-56.5 1218,-75.5 1289,-75.5 1289,-56.5 1218,-56.5"/>
<text text-anchor="middle" x="1253.5" y="-63.5" font-family="Helvetica,sans-Serif" font-size="10.00">sys/param.h</text>
</g>
<!-- Node7&#45;&gt;Node34 -->
<g id="edge34" class="edge"><title>Node7&#45;&gt;Node34</title>
<path fill="none" stroke="midnightblue" d="M2159.45,-121.119C2024.04,-120.907 1633.52,-116.636 1299.64,-75.9302"/>
<polygon fill="midnightblue" stroke="midnightblue" points="1299.64,-72.4031 1289.28,-74.6532 1298.78,-79.3505 1299.64,-72.4031"/>
</g>
<!-- Node35 -->
<g id="node35" class="node"><title>Node35</title>
<polygon fill="none" stroke="#bfbfbf" points="1307.5,-56.5 1307.5,-75.5 1473.5,-75.5 1473.5,-56.5 1307.5,-56.5"/>
<text text-anchor="middle" x="1390.5" y="-63.5" font-family="Helvetica,sans-Serif" font-size="10.00">CoreFoundation/CoreFoundation.h</text>
</g>
<!-- Node7&#45;&gt;Node35 -->
<g id="edge35" class="edge"><title>Node7&#45;&gt;Node35</title>
<path fill="none" stroke="midnightblue" d="M2159.16,-118.549C2043.29,-112.663 1744.5,-96.7235 1483.77,-76.0752"/>
<polygon fill="midnightblue" stroke="midnightblue" points="1483.98,-72.5808 1473.73,-75.2764 1483.42,-79.5587 1483.98,-72.5808"/>
</g>
<!-- Node36 -->
<g id="node36" class="node"><title>Node36</title>
<polygon fill="none" stroke="#bfbfbf" points="1491.5,-56.5 1491.5,-75.5 1615.5,-75.5 1615.5,-56.5 1491.5,-56.5"/>
<text text-anchor="middle" x="1553.5" y="-63.5" font-family="Helvetica,sans-Serif" font-size="10.00">emscripten/emscripten.h</text>
</g>
<!-- Node7&#45;&gt;Node36 -->
<g id="edge36" class="edge"><title>Node7&#45;&gt;Node36</title>
<path fill="none" stroke="midnightblue" d="M2159.2,-118.023C2060.19,-111.865 1829.86,-96.644 1625.82,-76.0897"/>
<polygon fill="midnightblue" stroke="midnightblue" points="1626.12,-72.6021 1615.82,-75.0755 1625.41,-79.5664 1626.12,-72.6021"/>
</g>
<!-- Node38 -->
<g id="node38" class="node"><title>Node38</title>
<g id="a_node38"><a xlink:href="_ogre_memory_allocated_object_8h.html" target="_top" xlink:title="OgreMemoryAllocatedObject.h">
<polygon fill="none" stroke="black" points="900.5,-56.5 900.5,-75.5 1050.5,-75.5 1050.5,-56.5 900.5,-56.5"/>
<text text-anchor="middle" x="975.5" y="-63.5" font-family="Helvetica,sans-Serif" font-size="10.00">OgreMemoryAllocatedObject.h</text>
</a>
</g>
</g>
<!-- Node37&#45;&gt;Node38 -->
<g id="edge38" class="edge"><title>Node37&#45;&gt;Node38</title>
<path fill="none" stroke="midnightblue" d="M809.715,-112.444C843.433,-103.201 897.3,-88.4356 934.432,-78.2572"/>
<polygon fill="midnightblue" stroke="midnightblue" points="935.712,-81.5356 944.431,-75.5164 933.861,-74.7846 935.712,-81.5356"/>
</g>
<!-- Node39 -->
<g id="node39" class="node"><title>Node39</title>
<g id="a_node39"><a xlink:href="_ogre_header_prefix_8h.html" target="_top" xlink:title="OgreHeaderPrefix.h">
<polygon fill="none" stroke="black" points="872,-0.5 872,-19.5 975,-19.5 975,-0.5 872,-0.5"/>
<text text-anchor="middle" x="923.5" y="-7.5" font-family="Helvetica,sans-Serif" font-size="10.00">OgreHeaderPrefix.h</text>
</a>
</g>
</g>
<!-- Node37&#45;&gt;Node39 -->
<g id="edge42" class="edge"><title>Node37&#45;&gt;Node39</title>
<path fill="none" stroke="midnightblue" d="M794.923,-112.441C810.55,-104.002 834.441,-90.3212 853.5,-76 873.671,-60.8431 894.591,-40.7442 908.244,-26.9307"/>
<polygon fill="midnightblue" stroke="midnightblue" points="910.908,-29.212 915.383,-19.6086 905.896,-24.3253 910.908,-29.212"/>
</g>
<!-- Node40 -->
<g id="node40" class="node"><title>Node40</title>
<g id="a_node40"><a xlink:href="_ogre_header_suffix_8h.html" target="_top" xlink:title="OgreHeaderSuffix.h">
<polygon fill="none" stroke="black" points="651,-0.5 651,-19.5 754,-19.5 754,-0.5 651,-0.5"/>
<text text-anchor="middle" x="702.5" y="-7.5" font-family="Helvetica,sans-Serif" font-size="10.00">OgreHeaderSuffix.h</text>
</a>
</g>
</g>
<!-- Node37&#45;&gt;Node40 -->
<g id="edge50" class="edge"><title>Node37&#45;&gt;Node40</title>
<path fill="none" stroke="midnightblue" d="M704.312,-116.495C644.791,-111.148 568.058,-99.7549 548.5,-76 519.067,-40.2505 586.158,-23.8135 640.879,-16.5029"/>
<polygon fill="midnightblue" stroke="midnightblue" points="641.441,-19.96 650.927,-15.2415 640.568,-13.0145 641.441,-19.96"/>
</g>
<!-- Node41 -->
<g id="node41" class="node"><title>Node41</title>
<g id="a_node41"><a xlink:href="_ogre_memory_s_t_l_allocator_8h.html" target="_top" xlink:title="OgreMemorySTLAllocator.h">
<polygon fill="none" stroke="black" points="558,-56.5 558,-75.5 695,-75.5 695,-56.5 558,-56.5"/>
<text text-anchor="middle" x="626.5" y="-63.5" font-family="Helvetica,sans-Serif" font-size="10.00">OgreMemorySTLAllocator.h</text>
</a>
</g>
</g>
<!-- Node37&#45;&gt;Node41 -->
<g id="edge43" class="edge"><title>Node37&#45;&gt;Node41</title>
<path fill="none" stroke="midnightblue" d="M754.415,-112.444C728.955,-103.399 688.606,-89.064 660.041,-78.9158"/>
<polygon fill="midnightblue" stroke="midnightblue" points="661.067,-75.5661 650.472,-75.5164 658.723,-82.1622 661.067,-75.5661"/>
</g>
<!-- Node42 -->
<g id="node42" class="node"><title>Node42</title>
<g id="a_node42"><a xlink:href="_ogre_memory_ned_pooling_8h.html" target="_top" xlink:title="OgreMemoryNedPooling.h">
<polygon fill="none" stroke="black" points="713,-56.5 713,-75.5 844,-75.5 844,-56.5 713,-56.5"/>
<text text-anchor="middle" x="778.5" y="-63.5" font-family="Helvetica,sans-Serif" font-size="10.00">OgreMemoryNedPooling.h</text>
</a>
</g>
</g>
<!-- Node37&#45;&gt;Node42 -->
<g id="edge47" class="edge"><title>Node37&#45;&gt;Node42</title>
<path fill="none" stroke="midnightblue" d="M778.5,-112.083C778.5,-105.006 778.5,-94.8611 778.5,-85.9865"/>
<polygon fill="midnightblue" stroke="midnightblue" points="782,-85.751 778.5,-75.7511 775,-85.7511 782,-85.751"/>
</g>
<!-- Node38&#45;&gt;Node3 -->
<g id="edge39" class="edge"><title>Node38&#45;&gt;Node3</title>
<path fill="none" stroke="midnightblue" d="M960.8,-75.5152C939.14,-88.0314 897.34,-112.07 861.5,-132 842.1,-142.788 819.999,-154.755 803.483,-163.635"/>
<polygon fill="midnightblue" stroke="midnightblue" points="801.623,-160.661 794.467,-168.474 804.933,-166.829 801.623,-160.661"/>
</g>
<!-- Node38&#45;&gt;Node39 -->
<g id="edge40" class="edge"><title>Node38&#45;&gt;Node39</title>
<path fill="none" stroke="midnightblue" d="M966.913,-56.083C959.341,-48.2195 948.122,-36.5688 938.986,-27.0813"/>
<polygon fill="midnightblue" stroke="midnightblue" points="941.385,-24.5266 931.927,-19.7511 936.342,-29.3821 941.385,-24.5266"/>
</g>
<!-- Node38&#45;&gt;Node40 -->
<g id="edge41" class="edge"><title>Node38&#45;&gt;Node40</title>
<path fill="none" stroke="midnightblue" d="M932.242,-56.4435C884.319,-46.9641 807.022,-31.6747 755.5,-21.4835"/>
<polygon fill="midnightblue" stroke="midnightblue" points="756.044,-18.0235 745.555,-19.5164 754.686,-24.8904 756.044,-18.0235"/>
</g>
<!-- Node41&#45;&gt;Node3 -->
<g id="edge44" class="edge"><title>Node41&#45;&gt;Node3</title>
<path fill="none" stroke="midnightblue" d="M634.379,-75.7535C646.594,-88.9986 671.23,-114.446 695.5,-132 712.709,-144.447 733.76,-155.822 750.355,-164.022"/>
<polygon fill="midnightblue" stroke="midnightblue" points="749.023,-167.265 759.549,-168.467 752.07,-160.963 749.023,-167.265"/>
</g>
<!-- Node41&#45;&gt;Node39 -->
<g id="edge45" class="edge"><title>Node41&#45;&gt;Node39</title>
<path fill="none" stroke="midnightblue" d="M673.561,-56.4435C725.915,-46.9246 810.49,-31.5472 866.54,-21.3563"/>
<polygon fill="midnightblue" stroke="midnightblue" points="867.447,-24.7489 876.66,-19.5164 866.195,-17.8618 867.447,-24.7489"/>
</g>
<!-- Node41&#45;&gt;Node40 -->
<g id="edge46" class="edge"><title>Node41&#45;&gt;Node40</title>
<path fill="none" stroke="midnightblue" d="M638.711,-56.324C650.276,-48.1066 667.875,-35.6017 681.661,-25.8069"/>
<polygon fill="midnightblue" stroke="midnightblue" points="683.943,-28.4791 690.067,-19.8339 679.888,-22.7729 683.943,-28.4791"/>
</g>
<!-- Node42&#45;&gt;Node39 -->
<g id="edge48" class="edge"><title>Node42&#45;&gt;Node39</title>
<path fill="none" stroke="midnightblue" d="M801.476,-56.4435C825.657,-47.4381 863.918,-33.1891 891.146,-23.049"/>
<polygon fill="midnightblue" stroke="midnightblue" points="892.482,-26.2864 900.632,-19.5164 890.039,-19.7265 892.482,-26.2864"/>
</g>
<!-- Node42&#45;&gt;Node40 -->
<g id="edge49" class="edge"><title>Node42&#45;&gt;Node40</title>
<path fill="none" stroke="midnightblue" d="M766.289,-56.324C754.724,-48.1066 737.125,-35.6017 723.339,-25.8069"/>
<polygon fill="midnightblue" stroke="midnightblue" points="725.112,-22.7729 714.933,-19.8339 721.057,-28.4791 725.112,-22.7729"/>
</g>
<!-- Node48&#45;&gt;Node3 -->
<g id="edge57" class="edge"><title>Node48&#45;&gt;Node3</title>
<path fill="none" stroke="midnightblue" d="M778.5,-224.083C778.5,-217.006 778.5,-206.861 778.5,-197.986"/>
<polygon fill="midnightblue" stroke="midnightblue" points="782,-197.751 778.5,-187.751 775,-197.751 782,-197.751"/>
</g>
<!-- Node48&#45;&gt;Node39 -->
<g id="edge61" class="edge"><title>Node48&#45;&gt;Node39</title>
<path fill="none" stroke="midnightblue" d="M827.579,-231.958C1177.51,-224.294 3282.81,-174.177 3371.5,-76 3377.46,-69.4039 3377.73,-62.3429 3371.5,-56 3328.41,-12.1096 1361.06,-10.8007 985.194,-10.9517"/>
<polygon fill="midnightblue" stroke="midnightblue" points="985.055,-7.4517 975.056,-10.9563 985.058,-14.4517 985.055,-7.4517"/>
</g>
<!-- Node48&#45;&gt;Node40 -->
<g id="edge62" class="edge"><title>Node48&#45;&gt;Node40</title>
<path fill="none" stroke="midnightblue" d="M729.454,-231.669C641.107,-226.155 460.492,-199.638 418.5,-76 415.641,-67.5833 412.727,-62.7594 418.5,-56 446.483,-23.2339 565.87,-14.1957 640.661,-11.784"/>
<polygon fill="midnightblue" stroke="midnightblue" points="641.011,-15.2754 650.905,-11.4859 640.807,-8.27834 641.011,-15.2754"/>
</g>
<!-- Node49 -->
<g id="node49" class="node"><title>Node49</title>
<g id="a_node49"><a xlink:href="_ogre_common_8h.html" target="_top" xlink:title="OgreCommon.h">
<polygon fill="none" stroke="black" points="3276.5,-56.5 3276.5,-75.5 3362.5,-75.5 3362.5,-56.5 3276.5,-56.5"/>
<text text-anchor="middle" x="3319.5" y="-63.5" font-family="Helvetica,sans-Serif" font-size="10.00">OgreCommon.h</text>
</a>
</g>
</g>
<!-- Node48&#45;&gt;Node49 -->
<g id="edge58" class="edge"><title>Node48&#45;&gt;Node49</title>
<path fill="none" stroke="midnightblue" d="M827.803,-231.878C1083.15,-225.653 2281.01,-191.403 3266.29,-76.016"/>
<polygon fill="midnightblue" stroke="midnightblue" points="3266.9,-79.4689 3276.42,-74.8259 3266.08,-72.5167 3266.9,-79.4689"/>
</g>
<!-- Node49&#45;&gt;Node39 -->
<g id="edge59" class="edge"><title>Node49&#45;&gt;Node39</title>
<path fill="none" stroke="midnightblue" d="M3276.44,-57.0274C3273.42,-56.6288 3270.42,-56.2789 3267.5,-56 2805.8,-11.8726 1308.48,-10.6494 985.336,-10.9125"/>
<polygon fill="midnightblue" stroke="midnightblue" points="985.224,-7.41252 975.227,-10.9216 985.23,-14.4125 985.224,-7.41252"/>
</g>
<!-- Node49&#45;&gt;Node40 -->
<g id="edge60" class="edge"><title>Node49&#45;&gt;Node40</title>
<path fill="none" stroke="midnightblue" d="M3276.44,-57.0133C3273.42,-56.618 3270.42,-56.2728 3267.5,-56 2735.54,-6.28945 1397.45,-38.914 863.5,-20 830.84,-18.8431 794.488,-16.8698 764.603,-15.0653"/>
<polygon fill="midnightblue" stroke="midnightblue" points="764.513,-11.5534 754.318,-14.4357 764.086,-18.5403 764.513,-11.5534"/>
</g>
</g>
</svg>
