<?xml version="1.0" encoding="UTF-8" standalone="no"?>
<!DOCTYPE svg PUBLIC "-//W3C//DTD SVG 1.1//EN"
 "http://www.w3.org/Graphics/SVG/1.1/DTD/svg11.dtd">
<!-- Generated by graphviz version 2.38.0 (20140413.2041)
 -->
<!-- Title: OgreGLES2RenderToVertexBuffer.h Pages: 1 -->
<svg width="3201pt" height="420pt"
 viewBox="0.00 0.00 3201.09 420.00" xmlns="http://www.w3.org/2000/svg" xmlns:xlink="http://www.w3.org/1999/xlink">
<g id="graph0" class="graph" transform="scale(1 1) rotate(0) translate(4 416)">
<title>OgreGLES2RenderToVertexBuffer.h</title>
<!-- Node1 -->
<g id="node1" class="node"><title>Node1</title>
<polygon fill="#bfbfbf" stroke="black" points="576.519,-392.5 576.519,-411.5 751.519,-411.5 751.519,-392.5 576.519,-392.5"/>
<text text-anchor="middle" x="664.019" y="-399.5" font-family="Helvetica,sans-Serif" font-size="10.00">OgreGLES2RenderToVertexBuffer.h</text>
</g>
<!-- Node2 -->
<g id="node2" class="node"><title>Node2</title>
<g id="a_node2"><a xlink:href="_ogre_render_to_vertex_buffer_8h.html" target="_top" xlink:title="OgreRenderToVertexBuffer.h">
<polygon fill="none" stroke="black" points="462.519,-336.5 462.519,-355.5 605.519,-355.5 605.519,-336.5 462.519,-336.5"/>
<text text-anchor="middle" x="534.019" y="-343.5" font-family="Helvetica,sans-Serif" font-size="10.00">OgreRenderToVertexBuffer.h</text>
</a>
</g>
</g>
<!-- Node1&#45;&gt;Node2 -->
<g id="edge1" class="edge"><title>Node1&#45;&gt;Node2</title>
<path fill="none" stroke="midnightblue" d="M643.42,-392.444C622.025,-383.557 588.337,-369.563 563.994,-359.451"/>
<polygon fill="midnightblue" stroke="midnightblue" points="565.099,-356.12 554.521,-355.516 562.413,-362.585 565.099,-356.12"/>
</g>
<!-- Node45 -->
<g id="node45" class="node"><title>Node45</title>
<g id="a_node45"><a xlink:href="_ogre_g_l_e_s2_prerequisites_8h.html" target="_top" xlink:title="OgreGLES2Prerequisites.h">
<polygon fill="none" stroke="black" points="727.019,-336.5 727.019,-355.5 861.019,-355.5 861.019,-336.5 727.019,-336.5"/>
<text text-anchor="middle" x="794.019" y="-343.5" font-family="Helvetica,sans-Serif" font-size="10.00">OgreGLES2Prerequisites.h</text>
</a>
</g>
</g>
<!-- Node1&#45;&gt;Node45 -->
<g id="edge59" class="edge"><title>Node1&#45;&gt;Node45</title>
<path fill="none" stroke="midnightblue" d="M684.617,-392.444C706.012,-383.557 739.7,-369.563 764.043,-359.451"/>
<polygon fill="midnightblue" stroke="midnightblue" points="765.624,-362.585 773.516,-355.516 762.938,-356.12 765.624,-362.585"/>
</g>
<!-- Node3 -->
<g id="node3" class="node"><title>Node3</title>
<g id="a_node3"><a xlink:href="_ogre_prerequisites_8h.html" target="_top" xlink:title="OgrePrerequisites.h">
<polygon fill="none" stroke="black" points="589.519,-168.5 589.519,-187.5 692.519,-187.5 692.519,-168.5 589.519,-168.5"/>
<text text-anchor="middle" x="641.019" y="-175.5" font-family="Helvetica,sans-Serif" font-size="10.00">OgrePrerequisites.h</text>
</a>
</g>
</g>
<!-- Node2&#45;&gt;Node3 -->
<g id="edge2" class="edge"><title>Node2&#45;&gt;Node3</title>
<path fill="none" stroke="midnightblue" d="M532.902,-336.399C530.615,-315.108 527.57,-259.13 553.019,-224 564.127,-208.666 582.008,-198.191 598.76,-191.234"/>
<polygon fill="midnightblue" stroke="midnightblue" points="600.343,-194.376 608.433,-187.535 597.843,-187.838 600.343,-194.376"/>
</g>
<!-- Node43 -->
<g id="node43" class="node"><title>Node43</title>
<g id="a_node43"><a xlink:href="_ogre_render_operation_8h.html" target="_top" xlink:title="OgreRenderOperation.h">
<polygon fill="none" stroke="black" points="386.519,-280.5 386.519,-299.5 505.519,-299.5 505.519,-280.5 386.519,-280.5"/>
<text text-anchor="middle" x="446.019" y="-287.5" font-family="Helvetica,sans-Serif" font-size="10.00">OgreRenderOperation.h</text>
</a>
</g>
</g>
<!-- Node2&#45;&gt;Node43 -->
<g id="edge51" class="edge"><title>Node2&#45;&gt;Node43</title>
<path fill="none" stroke="midnightblue" d="M519.88,-336.324C506.152,-327.9 485.082,-314.971 468.954,-305.074"/>
<polygon fill="midnightblue" stroke="midnightblue" points="470.476,-301.902 460.122,-299.655 466.815,-307.868 470.476,-301.902"/>
</g>
<!-- Node4 -->
<g id="node4" class="node"><title>Node4</title>
<g id="a_node4"><a xlink:href="_ogre_platform_8h.html" target="_top" xlink:title="OgrePlatform.h">
<polygon fill="none" stroke="black" points="236.519,-112.5 236.519,-131.5 319.519,-131.5 319.519,-112.5 236.519,-112.5"/>
<text text-anchor="middle" x="278.019" y="-119.5" font-family="Helvetica,sans-Serif" font-size="10.00">OgrePlatform.h</text>
</a>
</g>
</g>
<!-- Node3&#45;&gt;Node4 -->
<g id="edge3" class="edge"><title>Node3&#45;&gt;Node4</title>
<path fill="none" stroke="midnightblue" d="M589.395,-169.32C520.415,-159.059 398.876,-140.979 329.811,-130.705"/>
<polygon fill="midnightblue" stroke="midnightblue" points="330.01,-127.196 319.604,-129.186 328.98,-134.12 330.01,-127.196"/>
</g>
<!-- Node6 -->
<g id="node6" class="node"><title>Node6</title>
<polygon fill="none" stroke="#bfbfbf" points="860.519,-56.5 860.519,-75.5 901.519,-75.5 901.519,-56.5 860.519,-56.5"/>
<text text-anchor="middle" x="881.019" y="-63.5" font-family="Helvetica,sans-Serif" font-size="10.00">string</text>
</g>
<!-- Node3&#45;&gt;Node6 -->
<g id="edge5" class="edge"><title>Node3&#45;&gt;Node6</title>
<path fill="none" stroke="midnightblue" d="M659.851,-168.368C701.911,-149.091 803.665,-102.454 853.114,-79.7894"/>
<polygon fill="midnightblue" stroke="midnightblue" points="854.641,-82.9398 862.274,-75.5914 851.725,-76.5763 854.641,-82.9398"/>
</g>
<!-- Node7 -->
<g id="node7" class="node"><title>Node7</title>
<g id="a_node7"><a xlink:href="_ogre_std_headers_8h.html" target="_top" xlink:title="OgreStdHeaders.h">
<polygon fill="none" stroke="black" points="2029.02,-112.5 2029.02,-131.5 2127.02,-131.5 2127.02,-112.5 2029.02,-112.5"/>
<text text-anchor="middle" x="2078.02" y="-119.5" font-family="Helvetica,sans-Serif" font-size="10.00">OgreStdHeaders.h</text>
</a>
</g>
</g>
<!-- Node3&#45;&gt;Node7 -->
<g id="edge6" class="edge"><title>Node3&#45;&gt;Node7</title>
<path fill="none" stroke="midnightblue" d="M692.635,-172.74C714.354,-171.064 739.903,-169.248 763.019,-168 1247.41,-141.855 1833.05,-128.121 2018.64,-124.198"/>
<polygon fill="midnightblue" stroke="midnightblue" points="2018.81,-127.695 2028.73,-123.986 2018.66,-120.697 2018.81,-127.695"/>
</g>
<!-- Node37 -->
<g id="node37" class="node"><title>Node37</title>
<g id="a_node37"><a xlink:href="_ogre_memory_allocator_config_8h.html" target="_top" xlink:title="This file configures Ogre&#39;s memory allocators. ">
<polygon fill="none" stroke="black" points="486.019,-112.5 486.019,-131.5 634.019,-131.5 634.019,-112.5 486.019,-112.5"/>
<text text-anchor="middle" x="560.019" y="-119.5" font-family="Helvetica,sans-Serif" font-size="10.00">OgreMemoryAllocatorConfig.h</text>
</a>
</g>
</g>
<!-- Node3&#45;&gt;Node37 -->
<g id="edge37" class="edge"><title>Node3&#45;&gt;Node37</title>
<path fill="none" stroke="midnightblue" d="M628.004,-168.324C615.487,-159.979 596.337,-147.212 581.547,-137.352"/>
<polygon fill="midnightblue" stroke="midnightblue" points="583.262,-134.289 573,-131.655 579.379,-140.114 583.262,-134.289"/>
</g>
<!-- Node5 -->
<g id="node5" class="node"><title>Node5</title>
<g id="a_node5"><a xlink:href="_ogre_config_8h.html" target="_top" xlink:title="OgreConfig.h">
<polygon fill="none" stroke="red" points="142.019,-56.5 142.019,-75.5 216.019,-75.5 216.019,-56.5 142.019,-56.5"/>
<text text-anchor="middle" x="179.019" y="-63.5" font-family="Helvetica,sans-Serif" font-size="10.00">OgreConfig.h</text>
</a>
</g>
</g>
<!-- Node4&#45;&gt;Node5 -->
<g id="edge4" class="edge"><title>Node4&#45;&gt;Node5</title>
<path fill="none" stroke="midnightblue" d="M262.112,-112.324C246.38,-103.743 222.076,-90.486 203.81,-80.5224"/>
<polygon fill="midnightblue" stroke="midnightblue" points="205.34,-77.3704 194.885,-75.6545 201.988,-83.5157 205.34,-77.3704"/>
</g>
<!-- Node7&#45;&gt;Node6 -->
<g id="edge16" class="edge"><title>Node7&#45;&gt;Node6</title>
<path fill="none" stroke="midnightblue" d="M2028.93,-120.821C1838.83,-119.865 1150.17,-113.917 911.76,-75.8166"/>
<polygon fill="midnightblue" stroke="midnightblue" points="912.207,-72.3429 901.768,-74.1548 911.058,-79.2481 912.207,-72.3429"/>
</g>
<!-- Node8 -->
<g id="node8" class="node"><title>Node8</title>
<polygon fill="none" stroke="#bfbfbf" points="2157.52,-56.5 2157.52,-75.5 2206.52,-75.5 2206.52,-56.5 2157.52,-56.5"/>
<text text-anchor="middle" x="2182.02" y="-63.5" font-family="Helvetica,sans-Serif" font-size="10.00">cassert</text>
</g>
<!-- Node7&#45;&gt;Node8 -->
<g id="edge7" class="edge"><title>Node7&#45;&gt;Node8</title>
<path fill="none" stroke="midnightblue" d="M2094.73,-112.324C2111.33,-103.703 2137.02,-90.3643 2156.24,-80.3855"/>
<polygon fill="midnightblue" stroke="midnightblue" points="2158.09,-83.3689 2165.35,-75.6545 2154.86,-77.1565 2158.09,-83.3689"/>
</g>
<!-- Node9 -->
<g id="node9" class="node"><title>Node9</title>
<polygon fill="none" stroke="#bfbfbf" points="2224.52,-56.5 2224.52,-75.5 2267.52,-75.5 2267.52,-56.5 2224.52,-56.5"/>
<text text-anchor="middle" x="2246.02" y="-63.5" font-family="Helvetica,sans-Serif" font-size="10.00">cstdio</text>
</g>
<!-- Node7&#45;&gt;Node9 -->
<g id="edge8" class="edge"><title>Node7&#45;&gt;Node9</title>
<path fill="none" stroke="midnightblue" d="M2104.64,-112.444C2134.53,-102.837 2182.98,-87.2622 2214.67,-77.0749"/>
<polygon fill="midnightblue" stroke="midnightblue" points="2215.88,-80.3632 2224.33,-73.971 2213.74,-73.699 2215.88,-80.3632"/>
</g>
<!-- Node10 -->
<g id="node10" class="node"><title>Node10</title>
<polygon fill="none" stroke="#bfbfbf" points="2285.52,-56.5 2285.52,-75.5 2330.52,-75.5 2330.52,-56.5 2285.52,-56.5"/>
<text text-anchor="middle" x="2308.02" y="-63.5" font-family="Helvetica,sans-Serif" font-size="10.00">cstdlib</text>
</g>
<!-- Node7&#45;&gt;Node10 -->
<g id="edge9" class="edge"><title>Node7&#45;&gt;Node10</title>
<path fill="none" stroke="midnightblue" d="M2118.97,-112.493C2157.2,-104.384 2216.04,-91.4763 2275.45,-76.2997"/>
<polygon fill="midnightblue" stroke="midnightblue" points="2276.56,-79.6275 2285.37,-73.7444 2274.82,-72.8486 2276.56,-79.6275"/>
</g>
<!-- Node11 -->
<g id="node11" class="node"><title>Node11</title>
<polygon fill="none" stroke="#bfbfbf" points="2348.52,-56.5 2348.52,-75.5 2389.52,-75.5 2389.52,-56.5 2348.52,-56.5"/>
<text text-anchor="middle" x="2369.02" y="-63.5" font-family="Helvetica,sans-Serif" font-size="10.00">ctime</text>
</g>
<!-- Node7&#45;&gt;Node11 -->
<g id="edge10" class="edge"><title>Node7&#45;&gt;Node11</title>
<path fill="none" stroke="midnightblue" d="M2127.18,-114.517C2177.95,-107.385 2259.6,-94.7023 2338.42,-76.1408"/>
<polygon fill="midnightblue" stroke="midnightblue" points="2339.6,-79.4566 2348.52,-73.7269 2337.98,-72.6486 2339.6,-79.4566"/>
</g>
<!-- Node12 -->
<g id="node12" class="node"><title>Node12</title>
<polygon fill="none" stroke="#bfbfbf" points="2408.02,-56.5 2408.02,-75.5 2454.02,-75.5 2454.02,-56.5 2408.02,-56.5"/>
<text text-anchor="middle" x="2431.02" y="-63.5" font-family="Helvetica,sans-Serif" font-size="10.00">cstring</text>
</g>
<!-- Node7&#45;&gt;Node12 -->
<g id="edge11" class="edge"><title>Node7&#45;&gt;Node12</title>
<path fill="none" stroke="midnightblue" d="M2127.05,-116.207C2188.27,-109.762 2296.35,-96.8765 2397.6,-76.0596"/>
<polygon fill="midnightblue" stroke="midnightblue" points="2398.62,-79.4231 2407.69,-73.9536 2397.19,-72.5707 2398.62,-79.4231"/>
</g>
<!-- Node13 -->
<g id="node13" class="node"><title>Node13</title>
<polygon fill="none" stroke="#bfbfbf" points="2472.52,-56.5 2472.52,-75.5 2521.52,-75.5 2521.52,-56.5 2472.52,-56.5"/>
<text text-anchor="middle" x="2497.02" y="-63.5" font-family="Helvetica,sans-Serif" font-size="10.00">cstdarg</text>
</g>
<!-- Node7&#45;&gt;Node13 -->
<g id="edge12" class="edge"><title>Node7&#45;&gt;Node13</title>
<path fill="none" stroke="midnightblue" d="M2127.28,-117.5C2198.97,-111.913 2336.31,-99.3407 2462.4,-75.856"/>
<polygon fill="midnightblue" stroke="midnightblue" points="2463.05,-79.2945 2472.23,-73.9983 2461.75,-72.4162 2463.05,-79.2945"/>
</g>
<!-- Node14 -->
<g id="node14" class="node"><title>Node14</title>
<polygon fill="none" stroke="#bfbfbf" points="2540.02,-56.5 2540.02,-75.5 2584.02,-75.5 2584.02,-56.5 2540.02,-56.5"/>
<text text-anchor="middle" x="2562.02" y="-63.5" font-family="Helvetica,sans-Serif" font-size="10.00">cmath</text>
</g>
<!-- Node7&#45;&gt;Node14 -->
<g id="edge13" class="edge"><title>Node7&#45;&gt;Node14</title>
<path fill="none" stroke="midnightblue" d="M2127.05,-119.079C2208.82,-115.233 2378.23,-104.536 2529.83,-75.8966"/>
<polygon fill="midnightblue" stroke="midnightblue" points="2530.63,-79.3074 2539.79,-73.9841 2529.31,-72.433 2530.63,-79.3074"/>
</g>
<!-- Node15 -->
<g id="node15" class="node"><title>Node15</title>
<polygon fill="none" stroke="#bfbfbf" points="2602.02,-56.5 2602.02,-75.5 2646.02,-75.5 2646.02,-56.5 2602.02,-56.5"/>
<text text-anchor="middle" x="2624.02" y="-63.5" font-family="Helvetica,sans-Serif" font-size="10.00">vector</text>
</g>
<!-- Node7&#45;&gt;Node15 -->
<g id="edge14" class="edge"><title>Node7&#45;&gt;Node15</title>
<path fill="none" stroke="midnightblue" d="M2127.09,-119.897C2217.46,-117.176 2416.3,-107.982 2591.86,-75.8628"/>
<polygon fill="midnightblue" stroke="midnightblue" points="2592.6,-79.2854 2601.79,-74.0164 2591.32,-72.4033 2592.6,-79.2854"/>
</g>
<!-- Node16 -->
<g id="node16" class="node"><title>Node16</title>
<polygon fill="none" stroke="#bfbfbf" points="2664.52,-56.5 2664.52,-75.5 2699.52,-75.5 2699.52,-56.5 2664.52,-56.5"/>
<text text-anchor="middle" x="2682.02" y="-63.5" font-family="Helvetica,sans-Serif" font-size="10.00">map</text>
</g>
<!-- Node7&#45;&gt;Node16 -->
<g id="edge15" class="edge"><title>Node7&#45;&gt;Node16</title>
<path fill="none" stroke="midnightblue" d="M2127.21,-121.18C2225.85,-120.679 2454.73,-115.173 2654.38,-75.5697"/>
<polygon fill="midnightblue" stroke="midnightblue" points="2655.36,-78.9434 2664.47,-73.5347 2653.97,-72.0817 2655.36,-78.9434"/>
</g>
<!-- Node17 -->
<g id="node17" class="node"><title>Node17</title>
<polygon fill="none" stroke="#bfbfbf" points="2718.02,-56.5 2718.02,-75.5 2748.02,-75.5 2748.02,-56.5 2718.02,-56.5"/>
<text text-anchor="middle" x="2733.02" y="-63.5" font-family="Helvetica,sans-Serif" font-size="10.00">set</text>
</g>
<!-- Node7&#45;&gt;Node17 -->
<g id="edge17" class="edge"><title>Node7&#45;&gt;Node17</title>
<path fill="none" stroke="midnightblue" d="M2127.24,-119.317C2252.22,-114.759 2580.31,-100.946 2708.05,-75.4823"/>
<polygon fill="midnightblue" stroke="midnightblue" points="2708.92,-78.8766 2717.98,-73.3879 2707.48,-72.0273 2708.92,-78.8766"/>
</g>
<!-- Node18 -->
<g id="node18" class="node"><title>Node18</title>
<polygon fill="none" stroke="#bfbfbf" points="2766.52,-56.5 2766.52,-75.5 2795.52,-75.5 2795.52,-56.5 2766.52,-56.5"/>
<text text-anchor="middle" x="2781.02" y="-63.5" font-family="Helvetica,sans-Serif" font-size="10.00">list</text>
</g>
<!-- Node7&#45;&gt;Node18 -->
<g id="edge18" class="edge"><title>Node7&#45;&gt;Node18</title>
<path fill="none" stroke="midnightblue" d="M2127.04,-119.61C2258.64,-115.589 2618.47,-102.627 2756.56,-75.2965"/>
<polygon fill="midnightblue" stroke="midnightblue" points="2757.43,-78.6901 2766.5,-73.2176 2756,-71.8383 2757.43,-78.6901"/>
</g>
<!-- Node19 -->
<g id="node19" class="node"><title>Node19</title>
<polygon fill="none" stroke="#bfbfbf" points="2813.52,-56.5 2813.52,-75.5 2856.52,-75.5 2856.52,-56.5 2813.52,-56.5"/>
<text text-anchor="middle" x="2835.02" y="-63.5" font-family="Helvetica,sans-Serif" font-size="10.00">deque</text>
</g>
<!-- Node7&#45;&gt;Node19 -->
<g id="edge19" class="edge"><title>Node7&#45;&gt;Node19</title>
<path fill="none" stroke="midnightblue" d="M2127.09,-119.432C2265.04,-114.796 2655.35,-100.059 2803,-75.9296"/>
<polygon fill="midnightblue" stroke="midnightblue" points="2803.94,-79.3191 2813.2,-74.1761 2802.76,-72.4202 2803.94,-79.3191"/>
</g>
<!-- Node20 -->
<g id="node20" class="node"><title>Node20</title>
<polygon fill="none" stroke="#bfbfbf" points="2874.52,-56.5 2874.52,-75.5 2917.52,-75.5 2917.52,-56.5 2874.52,-56.5"/>
<text text-anchor="middle" x="2896.02" y="-63.5" font-family="Helvetica,sans-Serif" font-size="10.00">queue</text>
</g>
<!-- Node7&#45;&gt;Node20 -->
<g id="edge20" class="edge"><title>Node7&#45;&gt;Node20</title>
<path fill="none" stroke="midnightblue" d="M2127.17,-119.701C2273.23,-115.607 2703.92,-101.793 2864.06,-75.9108"/>
<polygon fill="midnightblue" stroke="midnightblue" points="2864.93,-79.3121 2874.21,-74.1885 2863.76,-72.4107 2864.93,-79.3121"/>
</g>
<!-- Node21 -->
<g id="node21" class="node"><title>Node21</title>
<polygon fill="none" stroke="#bfbfbf" points="2935.52,-56.5 2935.52,-75.5 2976.52,-75.5 2976.52,-56.5 2935.52,-56.5"/>
<text text-anchor="middle" x="2956.02" y="-63.5" font-family="Helvetica,sans-Serif" font-size="10.00">bitset</text>
</g>
<!-- Node7&#45;&gt;Node21 -->
<g id="edge21" class="edge"><title>Node7&#45;&gt;Node21</title>
<path fill="none" stroke="midnightblue" d="M2127.07,-119.996C2280.81,-116.605 2752.8,-104.262 2925.31,-75.8356"/>
<polygon fill="midnightblue" stroke="midnightblue" points="2926,-79.2684 2935.26,-74.1177 2924.81,-72.3705 2926,-79.2684"/>
</g>
<!-- Node22 -->
<g id="node22" class="node"><title>Node22</title>
<polygon fill="none" stroke="#bfbfbf" points="2995.02,-56.5 2995.02,-75.5 3051.02,-75.5 3051.02,-56.5 2995.02,-56.5"/>
<text text-anchor="middle" x="3023.02" y="-63.5" font-family="Helvetica,sans-Serif" font-size="10.00">algorithm</text>
</g>
<!-- Node7&#45;&gt;Node22 -->
<g id="edge22" class="edge"><title>Node7&#45;&gt;Node22</title>
<path fill="none" stroke="midnightblue" d="M2127.22,-119.789C2288.21,-115.637 2799.09,-100.918 2984.92,-75.8299"/>
<polygon fill="midnightblue" stroke="midnightblue" points="2985.43,-79.2931 2994.84,-74.4346 2984.45,-72.3613 2985.43,-79.2931"/>
</g>
<!-- Node23 -->
<g id="node23" class="node"><title>Node23</title>
<polygon fill="none" stroke="#bfbfbf" points="919.519,-56.5 919.519,-75.5 978.519,-75.5 978.519,-56.5 919.519,-56.5"/>
<text text-anchor="middle" x="949.019" y="-63.5" font-family="Helvetica,sans-Serif" font-size="10.00">functional</text>
</g>
<!-- Node7&#45;&gt;Node23 -->
<g id="edge23" class="edge"><title>Node7&#45;&gt;Node23</title>
<path fill="none" stroke="midnightblue" d="M2028.86,-120.183C1847.17,-116.977 1213.03,-104.096 988.771,-75.7702"/>
<polygon fill="midnightblue" stroke="midnightblue" points="989.094,-72.2828 978.724,-74.4532 988.185,-79.2234 989.094,-72.2828"/>
</g>
<!-- Node24 -->
<g id="node24" class="node"><title>Node24</title>
<polygon fill="none" stroke="#bfbfbf" points="997.019,-56.5 997.019,-75.5 1037.02,-75.5 1037.02,-56.5 997.019,-56.5"/>
<text text-anchor="middle" x="1017.02" y="-63.5" font-family="Helvetica,sans-Serif" font-size="10.00">limits</text>
</g>
<!-- Node7&#45;&gt;Node24 -->
<g id="edge24" class="edge"><title>Node7&#45;&gt;Node24</title>
<path fill="none" stroke="midnightblue" d="M2028.98,-120.531C1853.72,-118.6 1258.11,-109.776 1047.19,-75.6662"/>
<polygon fill="midnightblue" stroke="midnightblue" points="1047.58,-72.1831 1037.14,-73.9699 1046.42,-79.0855 1047.58,-72.1831"/>
</g>
<!-- Node25 -->
<g id="node25" class="node"><title>Node25</title>
<polygon fill="none" stroke="#bfbfbf" points="1055.02,-56.5 1055.02,-75.5 1105.02,-75.5 1105.02,-56.5 1055.02,-56.5"/>
<text text-anchor="middle" x="1080.02" y="-63.5" font-family="Helvetica,sans-Serif" font-size="10.00">fstream</text>
</g>
<!-- Node7&#45;&gt;Node25 -->
<g id="edge25" class="edge"><title>Node7&#45;&gt;Node25</title>
<path fill="none" stroke="midnightblue" d="M2028.82,-120.034C1858.41,-116.479 1294.08,-102.915 1115.02,-76 1114.92,-75.9848 1114.82,-75.9695 1114.72,-75.954"/>
<polygon fill="midnightblue" stroke="midnightblue" points="1115.61,-72.5614 1105.13,-74.113 1114.29,-79.4358 1115.61,-72.5614"/>
</g>
<!-- Node26 -->
<g id="node26" class="node"><title>Node26</title>
<polygon fill="none" stroke="#bfbfbf" points="1123.52,-56.5 1123.52,-75.5 1168.52,-75.5 1168.52,-56.5 1123.52,-56.5"/>
<text text-anchor="middle" x="1146.02" y="-63.5" font-family="Helvetica,sans-Serif" font-size="10.00">iosfwd</text>
</g>
<!-- Node7&#45;&gt;Node26 -->
<g id="edge26" class="edge"><title>Node7&#45;&gt;Node26</title>
<path fill="none" stroke="midnightblue" d="M2028.93,-119.995C1869.01,-116.498 1363.24,-103.626 1178.72,-75.6323"/>
<polygon fill="midnightblue" stroke="midnightblue" points="1179.03,-72.1376 1168.6,-74.0283 1177.93,-79.0512 1179.03,-72.1376"/>
</g>
<!-- Node27 -->
<g id="node27" class="node"><title>Node27</title>
<polygon fill="none" stroke="#bfbfbf" points="1187.02,-56.5 1187.02,-75.5 1239.02,-75.5 1239.02,-56.5 1187.02,-56.5"/>
<text text-anchor="middle" x="1213.02" y="-63.5" font-family="Helvetica,sans-Serif" font-size="10.00">sstream</text>
</g>
<!-- Node7&#45;&gt;Node27 -->
<g id="edge27" class="edge"><title>Node7&#45;&gt;Node27</title>
<path fill="none" stroke="midnightblue" d="M2028.55,-121.707C1900.81,-122.811 1549.48,-121.265 1249.48,-75.9077"/>
<polygon fill="midnightblue" stroke="midnightblue" points="1249.69,-72.3995 1239.28,-74.3451 1248.63,-79.3188 1249.69,-72.3995"/>
</g>
<!-- Node28 -->
<g id="node28" class="node"><title>Node28</title>
<polygon fill="none" stroke="#bfbfbf" points="1257.02,-56.5 1257.02,-75.5 1325.02,-75.5 1325.02,-56.5 1257.02,-56.5"/>
<text text-anchor="middle" x="1291.02" y="-63.5" font-family="Helvetica,sans-Serif" font-size="10.00">sys/types.h</text>
</g>
<!-- Node7&#45;&gt;Node28 -->
<g id="edge28" class="edge"><title>Node7&#45;&gt;Node28</title>
<path fill="none" stroke="midnightblue" d="M2028.59,-120.497C1910.39,-118.762 1602.01,-111.085 1335.47,-75.9929"/>
<polygon fill="midnightblue" stroke="midnightblue" points="1335.58,-72.4772 1325.21,-74.6256 1334.66,-79.4159 1335.58,-72.4772"/>
</g>
<!-- Node29 -->
<g id="node29" class="node"><title>Node29</title>
<polygon fill="none" stroke="#bfbfbf" points="1343.02,-56.5 1343.02,-75.5 1403.02,-75.5 1403.02,-56.5 1343.02,-56.5"/>
<text text-anchor="middle" x="1373.02" y="-63.5" font-family="Helvetica,sans-Serif" font-size="10.00">sys/stat.h</text>
</g>
<!-- Node7&#45;&gt;Node29 -->
<g id="edge29" class="edge"><title>Node7&#45;&gt;Node29</title>
<path fill="none" stroke="midnightblue" d="M2028.94,-120.256C1918.41,-118.018 1641.75,-109.27 1413.02,-76 1412.92,-75.9853 1412.82,-75.9704 1412.71,-75.9555"/>
<polygon fill="midnightblue" stroke="midnightblue" points="1413.52,-72.5427 1403.07,-74.2812 1412.32,-79.4396 1413.52,-72.5427"/>
</g>
<!-- Node30 -->
<g id="node30" class="node"><title>Node30</title>
<polygon fill="none" stroke="#bfbfbf" points="1421.52,-56.5 1421.52,-75.5 1472.52,-75.5 1472.52,-56.5 1421.52,-56.5"/>
<text text-anchor="middle" x="1447.02" y="-63.5" font-family="Helvetica,sans-Serif" font-size="10.00">unistd.h</text>
</g>
<!-- Node7&#45;&gt;Node30 -->
<g id="edge30" class="edge"><title>Node7&#45;&gt;Node30</title>
<path fill="none" stroke="midnightblue" d="M2029,-120.217C1928.28,-117.979 1690.77,-109.466 1482.42,-75.7374"/>
<polygon fill="midnightblue" stroke="midnightblue" points="1482.96,-72.2786 1472.52,-74.1121 1481.82,-79.1861 1482.96,-72.2786"/>
</g>
<!-- Node31 -->
<g id="node31" class="node"><title>Node31</title>
<polygon fill="none" stroke="#bfbfbf" points="1491.02,-56.5 1491.02,-75.5 1537.02,-75.5 1537.02,-56.5 1491.02,-56.5"/>
<text text-anchor="middle" x="1514.02" y="-63.5" font-family="Helvetica,sans-Serif" font-size="10.00">dlfcn.h</text>
</g>
<!-- Node7&#45;&gt;Node31 -->
<g id="edge31" class="edge"><title>Node7&#45;&gt;Node31</title>
<path fill="none" stroke="midnightblue" d="M2028.83,-119.951C1936.18,-117.302 1729.46,-108.196 1547.34,-75.9103"/>
<polygon fill="midnightblue" stroke="midnightblue" points="1547.78,-72.4325 1537.32,-74.1046 1546.54,-79.3217 1547.78,-72.4325"/>
</g>
<!-- Node32 -->
<g id="node32" class="node"><title>Node32</title>
<polygon fill="none" stroke="#bfbfbf" points="1555.02,-56.5 1555.02,-75.5 1633.02,-75.5 1633.02,-56.5 1555.02,-56.5"/>
<text text-anchor="middle" x="1594.02" y="-63.5" font-family="Helvetica,sans-Serif" font-size="10.00">ext/hash_map</text>
</g>
<!-- Node7&#45;&gt;Node32 -->
<g id="edge32" class="edge"><title>Node7&#45;&gt;Node32</title>
<path fill="none" stroke="midnightblue" d="M2028.94,-117.188C1948.21,-110.634 1782.43,-95.9829 1643.02,-76 1642.92,-75.9854 1642.82,-75.9708 1642.71,-75.9561"/>
<polygon fill="midnightblue" stroke="midnightblue" points="1643.44,-72.5273 1633.02,-74.4495 1642.37,-79.4442 1643.44,-72.5273"/>
</g>
<!-- Node33 -->
<g id="node33" class="node"><title>Node33</title>
<polygon fill="none" stroke="#bfbfbf" points="1651.52,-56.5 1651.52,-75.5 1724.52,-75.5 1724.52,-56.5 1651.52,-56.5"/>
<text text-anchor="middle" x="1688.02" y="-63.5" font-family="Helvetica,sans-Serif" font-size="10.00">ext/hash_set</text>
</g>
<!-- Node7&#45;&gt;Node33 -->
<g id="edge33" class="edge"><title>Node7&#45;&gt;Node33</title>
<path fill="none" stroke="midnightblue" d="M2028.89,-115.561C1963.96,-108.156 1845.82,-93.9259 1734.68,-76.0132"/>
<polygon fill="midnightblue" stroke="midnightblue" points="1735.07,-72.5306 1724.64,-74.3813 1733.95,-79.44 1735.07,-72.5306"/>
</g>
<!-- Node34 -->
<g id="node34" class="node"><title>Node34</title>
<polygon fill="none" stroke="#bfbfbf" points="1742.52,-56.5 1742.52,-75.5 1813.52,-75.5 1813.52,-56.5 1742.52,-56.5"/>
<text text-anchor="middle" x="1778.02" y="-63.5" font-family="Helvetica,sans-Serif" font-size="10.00">sys/param.h</text>
</g>
<!-- Node7&#45;&gt;Node34 -->
<g id="edge34" class="edge"><title>Node7&#45;&gt;Node34</title>
<path fill="none" stroke="midnightblue" d="M2028.6,-112.621C1979.29,-104.184 1901.11,-90.6001 1823.78,-76.1096"/>
<polygon fill="midnightblue" stroke="midnightblue" points="1824.34,-72.6536 1813.87,-74.2457 1823.05,-79.5331 1824.34,-72.6536"/>
</g>
<!-- Node35 -->
<g id="node35" class="node"><title>Node35</title>
<polygon fill="none" stroke="#bfbfbf" points="1832.02,-56.5 1832.02,-75.5 1998.02,-75.5 1998.02,-56.5 1832.02,-56.5"/>
<text text-anchor="middle" x="1915.02" y="-63.5" font-family="Helvetica,sans-Serif" font-size="10.00">CoreFoundation/CoreFoundation.h</text>
</g>
<!-- Node7&#45;&gt;Node35 -->
<g id="edge35" class="edge"><title>Node7&#45;&gt;Node35</title>
<path fill="none" stroke="midnightblue" d="M2052.19,-112.444C2024.77,-103.359 1981.24,-88.9388 1950.59,-78.7831"/>
<polygon fill="midnightblue" stroke="midnightblue" points="1951.32,-75.3389 1940.73,-75.5164 1949.12,-81.9837 1951.32,-75.3389"/>
</g>
<!-- Node36 -->
<g id="node36" class="node"><title>Node36</title>
<polygon fill="none" stroke="#bfbfbf" points="2016.02,-56.5 2016.02,-75.5 2140.02,-75.5 2140.02,-56.5 2016.02,-56.5"/>
<text text-anchor="middle" x="2078.02" y="-63.5" font-family="Helvetica,sans-Serif" font-size="10.00">emscripten/emscripten.h</text>
</g>
<!-- Node7&#45;&gt;Node36 -->
<g id="edge36" class="edge"><title>Node7&#45;&gt;Node36</title>
<path fill="none" stroke="midnightblue" d="M2078.02,-112.083C2078.02,-105.006 2078.02,-94.8611 2078.02,-85.9865"/>
<polygon fill="midnightblue" stroke="midnightblue" points="2081.52,-85.751 2078.02,-75.7511 2074.52,-85.7511 2081.52,-85.751"/>
</g>
<!-- Node38 -->
<g id="node38" class="node"><title>Node38</title>
<g id="a_node38"><a xlink:href="_ogre_memory_allocated_object_8h.html" target="_top" xlink:title="OgreMemoryAllocatedObject.h">
<polygon fill="none" stroke="black" points="654.019,-56.5 654.019,-75.5 804.019,-75.5 804.019,-56.5 654.019,-56.5"/>
<text text-anchor="middle" x="729.019" y="-63.5" font-family="Helvetica,sans-Serif" font-size="10.00">OgreMemoryAllocatedObject.h</text>
</a>
</g>
</g>
<!-- Node37&#45;&gt;Node38 -->
<g id="edge38" class="edge"><title>Node37&#45;&gt;Node38</title>
<path fill="none" stroke="midnightblue" d="M586.797,-112.444C615.352,-103.32 660.751,-88.8133 692.555,-78.6509"/>
<polygon fill="midnightblue" stroke="midnightblue" points="693.905,-81.8941 702.365,-75.5164 691.774,-75.2262 693.905,-81.8941"/>
</g>
<!-- Node39 -->
<g id="node39" class="node"><title>Node39</title>
<g id="a_node39"><a xlink:href="_ogre_header_prefix_8h.html" target="_top" xlink:title="OgreHeaderPrefix.h">
<polygon fill="none" stroke="black" points="192.519,-0.5 192.519,-19.5 295.519,-19.5 295.519,-0.5 192.519,-0.5"/>
<text text-anchor="middle" x="244.019" y="-7.5" font-family="Helvetica,sans-Serif" font-size="10.00">OgreHeaderPrefix.h</text>
</a>
</g>
</g>
<!-- Node37&#45;&gt;Node39 -->
<g id="edge42" class="edge"><title>Node37&#45;&gt;Node39</title>
<path fill="none" stroke="midnightblue" d="M539.33,-112.406C518.411,-103.613 485.229,-89.3801 457.019,-76 439.418,-67.6522 436.226,-62.9253 418.019,-56 378.734,-41.0576 332.616,-29.381 297.732,-21.6704"/>
<polygon fill="midnightblue" stroke="midnightblue" points="298.263,-18.2041 287.748,-19.5037 296.778,-25.0449 298.263,-18.2041"/>
</g>
<!-- Node40 -->
<g id="node40" class="node"><title>Node40</title>
<g id="a_node40"><a xlink:href="_ogre_header_suffix_8h.html" target="_top" xlink:title="OgreHeaderSuffix.h">
<polygon fill="none" stroke="black" points="780.519,-0.5 780.519,-19.5 883.519,-19.5 883.519,-0.5 780.519,-0.5"/>
<text text-anchor="middle" x="832.019" y="-7.5" font-family="Helvetica,sans-Serif" font-size="10.00">OgreHeaderSuffix.h</text>
</a>
</g>
</g>
<!-- Node37&#45;&gt;Node40 -->
<g id="edge50" class="edge"><title>Node37&#45;&gt;Node40</title>
<path fill="none" stroke="midnightblue" d="M568.611,-112.411C583.087,-98.4387 613.823,-70.8582 645.019,-56 684.562,-37.1659 732.676,-25.8183 770.197,-19.2298"/>
<polygon fill="midnightblue" stroke="midnightblue" points="771.204,-22.6095 780.483,-17.4955 770.04,-15.707 771.204,-22.6095"/>
</g>
<!-- Node41 -->
<g id="node41" class="node"><title>Node41</title>
<g id="a_node41"><a xlink:href="_ogre_memory_s_t_l_allocator_8h.html" target="_top" xlink:title="OgreMemorySTLAllocator.h">
<polygon fill="none" stroke="black" points="272.519,-56.5 272.519,-75.5 409.519,-75.5 409.519,-56.5 272.519,-56.5"/>
<text text-anchor="middle" x="341.019" y="-63.5" font-family="Helvetica,sans-Serif" font-size="10.00">OgreMemorySTLAllocator.h</text>
</a>
</g>
</g>
<!-- Node37&#45;&gt;Node41 -->
<g id="edge43" class="edge"><title>Node37&#45;&gt;Node41</title>
<path fill="none" stroke="midnightblue" d="M525.317,-112.444C487.434,-103.102 426.67,-88.1194 385.356,-77.9326"/>
<polygon fill="midnightblue" stroke="midnightblue" points="386.105,-74.5123 375.557,-75.5164 384.429,-81.3088 386.105,-74.5123"/>
</g>
<!-- Node42 -->
<g id="node42" class="node"><title>Node42</title>
<g id="a_node42"><a xlink:href="_ogre_memory_ned_pooling_8h.html" target="_top" xlink:title="OgreMemoryNedPooling.h">
<polygon fill="none" stroke="black" points="466.519,-56.5 466.519,-75.5 597.519,-75.5 597.519,-56.5 466.519,-56.5"/>
<text text-anchor="middle" x="532.019" y="-63.5" font-family="Helvetica,sans-Serif" font-size="10.00">OgreMemoryNedPooling.h</text>
</a>
</g>
</g>
<!-- Node37&#45;&gt;Node42 -->
<g id="edge47" class="edge"><title>Node37&#45;&gt;Node42</title>
<path fill="none" stroke="midnightblue" d="M555.395,-112.083C551.562,-104.691 545.994,-93.9533 541.254,-84.8111"/>
<polygon fill="midnightblue" stroke="midnightblue" points="544.266,-83.0175 536.556,-75.7511 538.052,-86.2398 544.266,-83.0175"/>
</g>
<!-- Node38&#45;&gt;Node3 -->
<g id="edge39" class="edge"><title>Node38&#45;&gt;Node3</title>
<path fill="none" stroke="midnightblue" d="M722.145,-75.5914C707.587,-93.7889 673.423,-136.494 654.401,-160.272"/>
<polygon fill="midnightblue" stroke="midnightblue" points="651.438,-158.373 647.924,-168.368 656.904,-162.746 651.438,-158.373"/>
</g>
<!-- Node38&#45;&gt;Node39 -->
<g id="edge40" class="edge"><title>Node38&#45;&gt;Node39</title>
<path fill="none" stroke="midnightblue" d="M653.769,-56.6217C558.049,-45.9643 394.544,-27.7596 305.771,-17.8755"/>
<polygon fill="midnightblue" stroke="midnightblue" points="305.912,-14.3697 295.586,-16.7416 305.138,-21.3267 305.912,-14.3697"/>
</g>
<!-- Node38&#45;&gt;Node40 -->
<g id="edge41" class="edge"><title>Node38&#45;&gt;Node40</title>
<path fill="none" stroke="midnightblue" d="M745.567,-56.324C762.01,-47.7034 787.453,-34.3643 806.487,-24.3855"/>
<polygon fill="midnightblue" stroke="midnightblue" points="808.279,-27.3977 815.511,-19.6545 805.029,-21.198 808.279,-27.3977"/>
</g>
<!-- Node41&#45;&gt;Node3 -->
<g id="edge44" class="edge"><title>Node41&#45;&gt;Node3</title>
<path fill="none" stroke="midnightblue" d="M356.534,-75.5414C381.382,-88.9601 431.9,-115.181 477.019,-132 515.002,-146.159 559.415,-158.074 592.436,-166.08"/>
<polygon fill="midnightblue" stroke="midnightblue" points="591.759,-169.517 602.298,-168.437 593.386,-162.708 591.759,-169.517"/>
</g>
<!-- Node41&#45;&gt;Node39 -->
<g id="edge45" class="edge"><title>Node41&#45;&gt;Node39</title>
<path fill="none" stroke="midnightblue" d="M325.434,-56.324C310.019,-47.7428 286.206,-34.486 268.309,-24.5224"/>
<polygon fill="midnightblue" stroke="midnightblue" points="270.004,-21.4606 259.565,-19.6545 266.599,-27.5767 270.004,-21.4606"/>
</g>
<!-- Node41&#45;&gt;Node40 -->
<g id="edge46" class="edge"><title>Node41&#45;&gt;Node40</title>
<path fill="none" stroke="midnightblue" d="M409.548,-57.4631C505.504,-46.91 678.441,-27.8904 770.482,-17.7678"/>
<polygon fill="midnightblue" stroke="midnightblue" points="770.926,-21.2401 780.483,-16.6678 770.161,-14.2821 770.926,-21.2401"/>
</g>
<!-- Node42&#45;&gt;Node39 -->
<g id="edge48" class="edge"><title>Node42&#45;&gt;Node39</title>
<path fill="none" stroke="midnightblue" d="M486.384,-56.4435C435.722,-46.9444 353.944,-31.611 299.591,-21.4198"/>
<polygon fill="midnightblue" stroke="midnightblue" points="299.913,-17.9193 289.439,-19.5164 298.623,-24.7994 299.913,-17.9193"/>
</g>
<!-- Node42&#45;&gt;Node40 -->
<g id="edge49" class="edge"><title>Node42&#45;&gt;Node40</title>
<path fill="none" stroke="midnightblue" d="M579.554,-56.4435C632.547,-46.9049 718.222,-31.4834 774.835,-21.293"/>
<polygon fill="midnightblue" stroke="midnightblue" points="775.483,-24.7327 784.705,-19.5164 774.243,-17.8434 775.483,-24.7327"/>
</g>
<!-- Node43&#45;&gt;Node3 -->
<g id="edge52" class="edge"><title>Node43&#45;&gt;Node3</title>
<path fill="none" stroke="midnightblue" d="M453.876,-280.296C466.596,-266.654 493.006,-240.133 520.019,-224 544.625,-209.304 574.842,-198.061 598.924,-190.489"/>
<polygon fill="midnightblue" stroke="midnightblue" points="599.953,-193.834 608.497,-187.568 597.911,-187.138 599.953,-193.834"/>
</g>
<!-- Node43&#45;&gt;Node39 -->
<g id="edge57" class="edge"><title>Node43&#45;&gt;Node39</title>
<path fill="none" stroke="midnightblue" d="M386.17,-286.089C276.51,-280.253 51.994,-265.787 24.0185,-244 -0.278011,-225.078 0.0185341,-209.795 0.0185341,-179 0.0185341,-179 0.0185341,-179 0.0185341,-121 0.0185341,-90.2048 0.653129,-76.06 24.0185,-56 47.3746,-35.948 125.634,-23.511 182.171,-16.9246"/>
<polygon fill="midnightblue" stroke="midnightblue" points="182.913,-20.3631 192.456,-15.7623 182.127,-13.4074 182.913,-20.3631"/>
</g>
<!-- Node43&#45;&gt;Node40 -->
<g id="edge58" class="edge"><title>Node43&#45;&gt;Node40</title>
<path fill="none" stroke="midnightblue" d="M505.803,-286.075C543.453,-284.26 593.075,-281.917 637.019,-280 706.953,-276.95 3155.02,-249.001 3155.02,-179 3155.02,-179 3155.02,-179 3155.02,-121 3155.02,-86.1146 3141.67,-72.6555 3111.02,-56 3060.93,-28.7837 1253.81,-14.0987 893.967,-11.4411"/>
<polygon fill="midnightblue" stroke="midnightblue" points="893.772,-7.93968 883.746,-11.366 893.72,-14.9395 893.772,-7.93968"/>
</g>
<!-- Node44 -->
<g id="node44" class="node"><title>Node44</title>
<g id="a_node44"><a xlink:href="_ogre_vertex_index_data_8h.html" target="_top" xlink:title="OgreVertexIndexData.h">
<polygon fill="none" stroke="red" points="348.519,-224.5 348.519,-243.5 467.519,-243.5 467.519,-224.5 348.519,-224.5"/>
<text text-anchor="middle" x="408.019" y="-231.5" font-family="Helvetica,sans-Serif" font-size="10.00">OgreVertexIndexData.h</text>
</a>
</g>
</g>
<!-- Node43&#45;&gt;Node44 -->
<g id="edge53" class="edge"><title>Node43&#45;&gt;Node44</title>
<path fill="none" stroke="midnightblue" d="M439.744,-280.083C434.376,-272.455 426.501,-261.264 419.94,-251.941"/>
<polygon fill="midnightblue" stroke="midnightblue" points="422.794,-249.915 414.177,-243.751 417.069,-253.943 422.794,-249.915"/>
</g>
<!-- Node44&#45;&gt;Node3 -->
<g id="edge54" class="edge"><title>Node44&#45;&gt;Node3</title>
<path fill="none" stroke="midnightblue" d="M444.938,-224.444C485.414,-215.063 550.439,-199.993 594.403,-189.804"/>
<polygon fill="midnightblue" stroke="midnightblue" points="595.32,-193.184 604.272,-187.516 593.74,-186.365 595.32,-193.184"/>
</g>
<!-- Node44&#45;&gt;Node39 -->
<g id="edge55" class="edge"><title>Node44&#45;&gt;Node39</title>
<path fill="none" stroke="midnightblue" d="M348.48,-227.165C266.766,-215.332 126.888,-180.019 100.019,-76 97.7954,-67.3936 94.7533,-63.1617 100.019,-56 118.906,-30.3097 152.394,-18.8767 182.325,-13.9508"/>
<polygon fill="midnightblue" stroke="midnightblue" points="182.911,-17.4026 192.313,-12.5185 181.917,-10.4735 182.911,-17.4026"/>
</g>
<!-- Node44&#45;&gt;Node40 -->
<g id="edge56" class="edge"><title>Node44&#45;&gt;Node40</title>
<path fill="none" stroke="midnightblue" d="M430.445,-224.458C514.948,-192.252 809.524,-79.8062 813.019,-76 824.562,-63.4255 829.123,-44.207 830.909,-29.9251"/>
<polygon fill="midnightblue" stroke="midnightblue" points="834.414,-30.025 831.827,-19.751 827.443,-29.3961 834.414,-30.025"/>
</g>
<!-- Node45&#45;&gt;Node3 -->
<g id="edge60" class="edge"><title>Node45&#45;&gt;Node3</title>
<path fill="none" stroke="midnightblue" d="M795.405,-336.472C798.408,-314.861 803.144,-257.305 775.019,-224 757.047,-202.719 728.672,-191.463 702.65,-185.526"/>
<polygon fill="midnightblue" stroke="midnightblue" points="703.319,-182.09 692.818,-183.501 701.907,-188.946 703.319,-182.09"/>
</g>
<!-- Node46 -->
<g id="node46" class="node"><title>Node46</title>
<g id="a_node46"><a xlink:href="_ogre_log_manager_8h.html" target="_top" xlink:title="OgreLogManager.h">
<polygon fill="none" stroke="black" points="646.519,-280.5 646.519,-299.5 745.519,-299.5 745.519,-280.5 646.519,-280.5"/>
<text text-anchor="middle" x="696.019" y="-287.5" font-family="Helvetica,sans-Serif" font-size="10.00">OgreLogManager.h</text>
</a>
</g>
</g>
<!-- Node45&#45;&gt;Node46 -->
<g id="edge61" class="edge"><title>Node45&#45;&gt;Node46</title>
<path fill="none" stroke="midnightblue" d="M778.273,-336.324C762.7,-327.743 738.641,-314.486 720.559,-304.522"/>
<polygon fill="midnightblue" stroke="midnightblue" points="722.172,-301.415 711.725,-299.655 718.794,-307.546 722.172,-301.415"/>
</g>
<!-- Node49 -->
<g id="node49" class="node"><title>Node49</title>
<g id="a_node49"><a xlink:href="_ogre_math_8h.html" target="_top" xlink:title="OgreMath.h">
<polygon fill="none" stroke="black" points="822.019,-224.5 822.019,-243.5 890.019,-243.5 890.019,-224.5 822.019,-224.5"/>
<text text-anchor="middle" x="856.019" y="-231.5" font-family="Helvetica,sans-Serif" font-size="10.00">OgreMath.h</text>
</a>
</g>
</g>
<!-- Node45&#45;&gt;Node49 -->
<g id="edge71" class="edge"><title>Node45&#45;&gt;Node49</title>
<path fill="none" stroke="midnightblue" d="M798.884,-336.368C809.07,-318.296 832.81,-276.176 846.263,-252.307"/>
<polygon fill="midnightblue" stroke="midnightblue" points="849.315,-254.022 851.176,-243.591 843.217,-250.584 849.315,-254.022"/>
</g>
<!-- Node50 -->
<g id="node50" class="node"><title>Node50</title>
<polygon fill="none" stroke="#bfbfbf" points="860.019,-280.5 860.019,-299.5 950.019,-299.5 950.019,-280.5 860.019,-280.5"/>
<text text-anchor="middle" x="905.019" y="-287.5" font-family="Helvetica,sans-Serif" font-size="10.00">GLES2/gles2w.h</text>
</g>
<!-- Node45&#45;&gt;Node50 -->
<g id="edge75" class="edge"><title>Node45&#45;&gt;Node50</title>
<path fill="none" stroke="midnightblue" d="M811.853,-336.324C829.734,-327.625 857.494,-314.12 878.064,-304.113"/>
<polygon fill="midnightblue" stroke="midnightblue" points="879.768,-307.177 887.229,-299.655 876.705,-300.882 879.768,-307.177"/>
</g>
<!-- Node46&#45;&gt;Node3 -->
<g id="edge62" class="edge"><title>Node46&#45;&gt;Node3</title>
<path fill="none" stroke="midnightblue" d="M691.703,-280.368C682.707,-262.376 661.794,-220.55 649.832,-196.627"/>
<polygon fill="midnightblue" stroke="midnightblue" points="652.917,-194.97 645.314,-187.591 646.656,-198.101 652.917,-194.97"/>
</g>
<!-- Node46&#45;&gt;Node39 -->
<g id="edge69" class="edge"><title>Node46&#45;&gt;Node39</title>
<path fill="none" stroke="midnightblue" d="M646.292,-285.935C493.002,-275.828 38.0185,-240.639 38.0185,-179 38.0185,-179 38.0185,-179 38.0185,-121 38.0185,-54.8469 121.704,-28.3354 182.398,-17.8068"/>
<polygon fill="midnightblue" stroke="midnightblue" points="182.995,-21.2557 192.302,-16.1929 181.869,-14.3468 182.995,-21.2557"/>
</g>
<!-- Node46&#45;&gt;Node40 -->
<g id="edge70" class="edge"><title>Node46&#45;&gt;Node40</title>
<path fill="none" stroke="midnightblue" d="M745.555,-285.587C775.971,-283.624 815.731,-281.298 851.019,-280 915.372,-277.633 3116.47,-281.223 3169.02,-244 3194.15,-226.199 3193.02,-209.795 3193.02,-179 3193.02,-179 3193.02,-179 3193.02,-121 3193.02,-90.2048 3194.11,-73.8473 3169.02,-56 3121.31,-22.0685 1259.38,-12.7408 893.903,-11.2352"/>
<polygon fill="midnightblue" stroke="midnightblue" points="893.795,-7.73488 883.781,-11.194 893.767,-14.7348 893.795,-7.73488"/>
</g>
<!-- Node47 -->
<g id="node47" class="node"><title>Node47</title>
<g id="a_node47"><a xlink:href="_ogre_log_8h.html" target="_top" xlink:title="OgreLog.h">
<polygon fill="none" stroke="red" points="704.019,-224.5 704.019,-243.5 766.019,-243.5 766.019,-224.5 704.019,-224.5"/>
<text text-anchor="middle" x="735.019" y="-231.5" font-family="Helvetica,sans-Serif" font-size="10.00">OgreLog.h</text>
</a>
</g>
</g>
<!-- Node46&#45;&gt;Node47 -->
<g id="edge63" class="edge"><title>Node46&#45;&gt;Node47</title>
<path fill="none" stroke="midnightblue" d="M702.459,-280.083C707.967,-272.455 716.05,-261.264 722.784,-251.941"/>
<polygon fill="midnightblue" stroke="midnightblue" points="725.681,-253.907 728.698,-243.751 720.006,-249.809 725.681,-253.907"/>
</g>
<!-- Node48 -->
<g id="node48" class="node"><title>Node48</title>
<g id="a_node48"><a xlink:href="_ogre_singleton_8h.html" target="_top" xlink:title="OgreSingleton.h">
<polygon fill="none" stroke="black" points="562.019,-224.5 562.019,-243.5 648.019,-243.5 648.019,-224.5 562.019,-224.5"/>
<text text-anchor="middle" x="605.019" y="-231.5" font-family="Helvetica,sans-Serif" font-size="10.00">OgreSingleton.h</text>
</a>
</g>
</g>
<!-- Node46&#45;&gt;Node48 -->
<g id="edge67" class="edge"><title>Node46&#45;&gt;Node48</title>
<path fill="none" stroke="midnightblue" d="M681.398,-280.324C667.07,-271.822 645.006,-258.729 628.27,-248.797"/>
<polygon fill="midnightblue" stroke="midnightblue" points="629.989,-245.748 619.603,-243.655 626.417,-251.768 629.989,-245.748"/>
</g>
<!-- Node47&#45;&gt;Node3 -->
<g id="edge64" class="edge"><title>Node47&#45;&gt;Node3</title>
<path fill="none" stroke="midnightblue" d="M719.916,-224.324C705.115,-215.822 682.324,-202.729 665.036,-192.797"/>
<polygon fill="midnightblue" stroke="midnightblue" points="666.498,-189.601 656.084,-187.655 663.011,-195.671 666.498,-189.601"/>
</g>
<!-- Node47&#45;&gt;Node39 -->
<g id="edge65" class="edge"><title>Node47&#45;&gt;Node39</title>
<path fill="none" stroke="midnightblue" d="M703.725,-228.21C607.355,-213.235 316.205,-166.261 227.019,-132 181.623,-114.561 157.045,-118.28 133.019,-76 117.538,-48.7579 152.37,-31.852 187.014,-22.1355"/>
<polygon fill="midnightblue" stroke="midnightblue" points="187.955,-25.5072 196.739,-19.583 186.178,-18.7366 187.955,-25.5072"/>
</g>
<!-- Node47&#45;&gt;Node40 -->
<g id="edge66" class="edge"><title>Node47&#45;&gt;Node40</title>
<path fill="none" stroke="midnightblue" d="M766.106,-229.058C780.382,-227.34 797.542,-225.402 813.019,-224 937.612,-212.716 2974.51,-167.322 3060.02,-76 3066.09,-69.5113 3066.24,-62.3485 3060.02,-56 3021.04,-16.2291 1249.21,-11.5964 893.735,-11.0671"/>
<polygon fill="midnightblue" stroke="midnightblue" points="893.639,-7.56701 883.634,-11.0526 893.629,-14.567 893.639,-7.56701"/>
</g>
<!-- Node48&#45;&gt;Node3 -->
<g id="edge68" class="edge"><title>Node48&#45;&gt;Node3</title>
<path fill="none" stroke="midnightblue" d="M610.963,-224.083C615.996,-216.534 623.355,-205.495 629.532,-196.23"/>
<polygon fill="midnightblue" stroke="midnightblue" points="632.55,-198.013 635.184,-187.751 626.725,-194.13 632.55,-198.013"/>
</g>
<!-- Node49&#45;&gt;Node3 -->
<g id="edge72" class="edge"><title>Node49&#45;&gt;Node3</title>
<path fill="none" stroke="midnightblue" d="M821.951,-224.444C784.838,-215.122 725.357,-200.183 684.804,-189.997"/>
<polygon fill="midnightblue" stroke="midnightblue" points="685.478,-186.558 674.927,-187.516 683.773,-193.347 685.478,-186.558"/>
</g>
<!-- Node49&#45;&gt;Node39 -->
<g id="edge73" class="edge"><title>Node49&#45;&gt;Node39</title>
<path fill="none" stroke="midnightblue" d="M839.295,-224.421C811.382,-210.465 753.206,-182.906 701.019,-168 605.386,-140.685 334.338,-145.32 263.019,-76 250.645,-63.9735 246.214,-44.3727 244.686,-29.8351"/>
<polygon fill="midnightblue" stroke="midnightblue" points="248.154,-29.2439 243.986,-19.5033 241.17,-29.717 248.154,-29.2439"/>
</g>
<!-- Node49&#45;&gt;Node40 -->
<g id="edge74" class="edge"><title>Node49&#45;&gt;Node40</title>
<path fill="none" stroke="midnightblue" d="M890.048,-232.953C1182.36,-232.262 3255.29,-221.531 3093.02,-56 3053.43,-15.6136 1252.49,-11.4726 893.779,-11.0484"/>
<polygon fill="midnightblue" stroke="midnightblue" points="893.594,-7.54827 883.59,-11.0369 893.586,-14.5483 893.594,-7.54827"/>
</g>
</g>
</svg>
