<?xml version="1.0" encoding="UTF-8" standalone="no"?>
<!DOCTYPE svg PUBLIC "-//W3C//DTD SVG 1.1//EN"
 "http://www.w3.org/Graphics/SVG/1.1/DTD/svg11.dtd">
<!-- Generated by graphviz version 2.38.0 (20140413.2041)
 -->
<!-- Title: OgreMatrix4.h Pages: 1 -->
<svg width="2932pt" height="476pt"
 viewBox="0.00 0.00 2931.50 476.00" xmlns="http://www.w3.org/2000/svg" xmlns:xlink="http://www.w3.org/1999/xlink">
<g id="graph0" class="graph" transform="scale(1 1) rotate(0) translate(4 472)">
<title>OgreMatrix4.h</title>
<!-- Node1 -->
<g id="node1" class="node"><title>Node1</title>
<polygon fill="#bfbfbf" stroke="black" points="2104.5,-448.5 2104.5,-467.5 2182.5,-467.5 2182.5,-448.5 2104.5,-448.5"/>
<text text-anchor="middle" x="2143.5" y="-455.5" font-family="Helvetica,sans-Serif" font-size="10.00">OgreMatrix4.h</text>
</g>
<!-- Node2 -->
<g id="node2" class="node"><title>Node2</title>
<g id="a_node2"><a xlink:href="_ogre_prerequisites_8h.html" target="_top" xlink:title="OgrePrerequisites.h">
<polygon fill="none" stroke="black" points="2119,-168.5 2119,-187.5 2222,-187.5 2222,-168.5 2119,-168.5"/>
<text text-anchor="middle" x="2170.5" y="-175.5" font-family="Helvetica,sans-Serif" font-size="10.00">OgrePrerequisites.h</text>
</a>
</g>
</g>
<!-- Node1&#45;&gt;Node2 -->
<g id="edge1" class="edge"><title>Node1&#45;&gt;Node2</title>
<path fill="none" stroke="midnightblue" d="M2108.41,-448.388C2087.96,-441.666 2063.19,-430.311 2047.5,-412 2027.92,-389.144 2028.5,-377.098 2028.5,-347 2028.5,-347 2028.5,-347 2028.5,-289 2028.5,-237.069 2088.59,-206.154 2130.59,-190.887"/>
<polygon fill="midnightblue" stroke="midnightblue" points="2131.74,-194.192 2140.04,-187.602 2129.44,-187.58 2131.74,-194.192"/>
</g>
<!-- Node43 -->
<g id="node43" class="node"><title>Node43</title>
<g id="a_node43"><a xlink:href="_ogre_matrix3_8h.html" target="_top" xlink:title="OgreMatrix3.h">
<polygon fill="none" stroke="black" points="2056.5,-392.5 2056.5,-411.5 2134.5,-411.5 2134.5,-392.5 2056.5,-392.5"/>
<text text-anchor="middle" x="2095.5" y="-399.5" font-family="Helvetica,sans-Serif" font-size="10.00">OgreMatrix3.h</text>
</a>
</g>
</g>
<!-- Node1&#45;&gt;Node43 -->
<g id="edge51" class="edge"><title>Node1&#45;&gt;Node43</title>
<path fill="none" stroke="midnightblue" d="M2135.57,-448.083C2128.65,-440.298 2118.43,-428.801 2110.05,-419.367"/>
<polygon fill="midnightblue" stroke="midnightblue" points="2112.54,-416.9 2103.28,-411.751 2107.31,-421.55 2112.54,-416.9"/>
</g>
<!-- Node48 -->
<g id="node48" class="node"><title>Node48</title>
<g id="a_node48"><a xlink:href="_ogre_vector4_8h.html" target="_top" xlink:title="OgreVector4.h">
<polygon fill="none" stroke="black" points="2152.5,-392.5 2152.5,-411.5 2232.5,-411.5 2232.5,-392.5 2152.5,-392.5"/>
<text text-anchor="middle" x="2192.5" y="-399.5" font-family="Helvetica,sans-Serif" font-size="10.00">OgreVector4.h</text>
</a>
</g>
</g>
<!-- Node1&#45;&gt;Node48 -->
<g id="edge64" class="edge"><title>Node1&#45;&gt;Node48</title>
<path fill="none" stroke="midnightblue" d="M2151.59,-448.083C2158.66,-440.298 2169.09,-428.801 2177.65,-419.367"/>
<polygon fill="midnightblue" stroke="midnightblue" points="2180.43,-421.509 2184.56,-411.751 2175.25,-416.805 2180.43,-421.509"/>
</g>
<!-- Node49 -->
<g id="node49" class="node"><title>Node49</title>
<g id="a_node49"><a xlink:href="_ogre_plane_8h.html" target="_top" xlink:title="OgrePlane.h">
<polygon fill="none" stroke="black" points="2251,-392.5 2251,-411.5 2322,-411.5 2322,-392.5 2251,-392.5"/>
<text text-anchor="middle" x="2286.5" y="-399.5" font-family="Helvetica,sans-Serif" font-size="10.00">OgrePlane.h</text>
</a>
</g>
</g>
<!-- Node1&#45;&gt;Node49 -->
<g id="edge67" class="edge"><title>Node1&#45;&gt;Node49</title>
<path fill="none" stroke="midnightblue" d="M2166.16,-448.444C2189.9,-439.478 2227.41,-425.314 2254.24,-415.183"/>
<polygon fill="midnightblue" stroke="midnightblue" points="2255.83,-418.324 2263.95,-411.516 2253.36,-411.775 2255.83,-418.324"/>
</g>
<!-- Node3 -->
<g id="node3" class="node"><title>Node3</title>
<g id="a_node3"><a xlink:href="_ogre_platform_8h.html" target="_top" xlink:title="OgrePlatform.h">
<polygon fill="none" stroke="black" points="2668,-112.5 2668,-131.5 2751,-131.5 2751,-112.5 2668,-112.5"/>
<text text-anchor="middle" x="2709.5" y="-119.5" font-family="Helvetica,sans-Serif" font-size="10.00">OgrePlatform.h</text>
</a>
</g>
</g>
<!-- Node2&#45;&gt;Node3 -->
<g id="edge2" class="edge"><title>Node2&#45;&gt;Node3</title>
<path fill="none" stroke="midnightblue" d="M2222.18,-171.822C2325.1,-161.512 2554.59,-138.52 2657.65,-128.195"/>
<polygon fill="midnightblue" stroke="midnightblue" points="2658.21,-131.656 2667.81,-127.177 2657.51,-124.691 2658.21,-131.656"/>
</g>
<!-- Node6 -->
<g id="node6" class="node"><title>Node6</title>
<polygon fill="none" stroke="#bfbfbf" points="2150,-56.5 2150,-75.5 2191,-75.5 2191,-56.5 2150,-56.5"/>
<text text-anchor="middle" x="2170.5" y="-63.5" font-family="Helvetica,sans-Serif" font-size="10.00">string</text>
</g>
<!-- Node2&#45;&gt;Node6 -->
<g id="edge5" class="edge"><title>Node2&#45;&gt;Node6</title>
<path fill="none" stroke="midnightblue" d="M2170.5,-168.368C2170.5,-150.617 2170.5,-109.666 2170.5,-85.5974"/>
<polygon fill="midnightblue" stroke="midnightblue" points="2174,-85.5914 2170.5,-75.5914 2167,-85.5915 2174,-85.5914"/>
</g>
<!-- Node7 -->
<g id="node7" class="node"><title>Node7</title>
<g id="a_node7"><a xlink:href="_ogre_std_headers_8h.html" target="_top" xlink:title="OgreStdHeaders.h">
<polygon fill="none" stroke="black" points="1134.5,-112.5 1134.5,-131.5 1232.5,-131.5 1232.5,-112.5 1134.5,-112.5"/>
<text text-anchor="middle" x="1183.5" y="-119.5" font-family="Helvetica,sans-Serif" font-size="10.00">OgreStdHeaders.h</text>
</a>
</g>
</g>
<!-- Node2&#45;&gt;Node7 -->
<g id="edge6" class="edge"><title>Node2&#45;&gt;Node7</title>
<path fill="none" stroke="midnightblue" d="M2118.82,-174.173C1950.92,-164.986 1421.29,-136.01 1242.85,-126.247"/>
<polygon fill="midnightblue" stroke="midnightblue" points="1242.79,-122.738 1232.61,-125.687 1242.4,-129.728 1242.79,-122.738"/>
</g>
<!-- Node37 -->
<g id="node37" class="node"><title>Node37</title>
<g id="a_node37"><a xlink:href="_ogre_memory_allocator_config_8h.html" target="_top" xlink:title="This file configures Ogre&#39;s memory allocators. ">
<polygon fill="none" stroke="black" points="2381.5,-112.5 2381.5,-131.5 2529.5,-131.5 2529.5,-112.5 2381.5,-112.5"/>
<text text-anchor="middle" x="2455.5" y="-119.5" font-family="Helvetica,sans-Serif" font-size="10.00">OgreMemoryAllocatorConfig.h</text>
</a>
</g>
</g>
<!-- Node2&#45;&gt;Node37 -->
<g id="edge37" class="edge"><title>Node2&#45;&gt;Node37</title>
<path fill="none" stroke="midnightblue" d="M2215.66,-168.444C2265.79,-158.944 2346.72,-143.611 2400.51,-133.42"/>
<polygon fill="midnightblue" stroke="midnightblue" points="2401.38,-136.817 2410.55,-131.516 2400.08,-129.939 2401.38,-136.817"/>
</g>
<!-- Node4 -->
<g id="node4" class="node"><title>Node4</title>
<g id="a_node4"><a xlink:href="_ogre_config_8h.html" target="_top" xlink:title="OgreConfig.h">
<polygon fill="none" stroke="black" points="2834.5,-56.5 2834.5,-75.5 2908.5,-75.5 2908.5,-56.5 2834.5,-56.5"/>
<text text-anchor="middle" x="2871.5" y="-63.5" font-family="Helvetica,sans-Serif" font-size="10.00">OgreConfig.h</text>
</a>
</g>
</g>
<!-- Node3&#45;&gt;Node4 -->
<g id="edge3" class="edge"><title>Node3&#45;&gt;Node4</title>
<path fill="none" stroke="midnightblue" d="M2735.17,-112.444C2762.42,-103.359 2805.68,-88.9388 2836.15,-78.7831"/>
<polygon fill="midnightblue" stroke="midnightblue" points="2837.57,-81.9992 2845.95,-75.5164 2835.36,-75.3584 2837.57,-81.9992"/>
</g>
<!-- Node5 -->
<g id="node5" class="node"><title>Node5</title>
<polygon fill="none" stroke="#bfbfbf" points="2819.5,-0.5 2819.5,-19.5 2923.5,-19.5 2923.5,-0.5 2819.5,-0.5"/>
<text text-anchor="middle" x="2871.5" y="-7.5" font-family="Helvetica,sans-Serif" font-size="10.00">OgreBuildSettings.h</text>
</g>
<!-- Node4&#45;&gt;Node5 -->
<g id="edge4" class="edge"><title>Node4&#45;&gt;Node5</title>
<path fill="none" stroke="midnightblue" d="M2871.5,-56.083C2871.5,-49.0059 2871.5,-38.8611 2871.5,-29.9865"/>
<polygon fill="midnightblue" stroke="midnightblue" points="2875,-29.751 2871.5,-19.7511 2868,-29.7511 2875,-29.751"/>
</g>
<!-- Node7&#45;&gt;Node6 -->
<g id="edge16" class="edge"><title>Node7&#45;&gt;Node6</title>
<path fill="none" stroke="midnightblue" d="M1232.73,-120.273C1399.67,-117.563 1944.18,-106.67 2139.79,-75.5966"/>
<polygon fill="midnightblue" stroke="midnightblue" points="2140.38,-79.0465 2149.67,-73.9574 2139.24,-72.1408 2140.38,-79.0465"/>
</g>
<!-- Node8 -->
<g id="node8" class="node"><title>Node8</title>
<polygon fill="none" stroke="#bfbfbf" points="506,-56.5 506,-75.5 555,-75.5 555,-56.5 506,-56.5"/>
<text text-anchor="middle" x="530.5" y="-63.5" font-family="Helvetica,sans-Serif" font-size="10.00">cassert</text>
</g>
<!-- Node7&#45;&gt;Node8 -->
<g id="edge7" class="edge"><title>Node7&#45;&gt;Node8</title>
<path fill="none" stroke="midnightblue" d="M1134.48,-120.658C1030.78,-119.242 781.558,-112.188 565.203,-75.9929"/>
<polygon fill="midnightblue" stroke="midnightblue" points="565.696,-72.5266 555.251,-74.3032 564.524,-79.4278 565.696,-72.5266"/>
</g>
<!-- Node9 -->
<g id="node9" class="node"><title>Node9</title>
<polygon fill="none" stroke="#bfbfbf" points="573,-56.5 573,-75.5 616,-75.5 616,-56.5 573,-56.5"/>
<text text-anchor="middle" x="594.5" y="-63.5" font-family="Helvetica,sans-Serif" font-size="10.00">cstdio</text>
</g>
<!-- Node7&#45;&gt;Node9 -->
<g id="edge8" class="edge"><title>Node7&#45;&gt;Node9</title>
<path fill="none" stroke="midnightblue" d="M1134.44,-120.516C1038.27,-118.822 818.295,-111.265 626.311,-75.993"/>
<polygon fill="midnightblue" stroke="midnightblue" points="626.796,-72.5231 616.323,-74.128 625.511,-79.4042 626.796,-72.5231"/>
</g>
<!-- Node10 -->
<g id="node10" class="node"><title>Node10</title>
<polygon fill="none" stroke="#bfbfbf" points="634,-56.5 634,-75.5 679,-75.5 679,-56.5 634,-56.5"/>
<text text-anchor="middle" x="656.5" y="-63.5" font-family="Helvetica,sans-Serif" font-size="10.00">cstdlib</text>
</g>
<!-- Node7&#45;&gt;Node10 -->
<g id="edge9" class="edge"><title>Node7&#45;&gt;Node10</title>
<path fill="none" stroke="midnightblue" d="M1134.49,-119.668C1046.73,-116.61 856.96,-106.932 689.072,-75.9705"/>
<polygon fill="midnightblue" stroke="midnightblue" points="689.539,-72.4973 679.065,-74.0948 688.249,-79.3774 689.539,-72.4973"/>
</g>
<!-- Node11 -->
<g id="node11" class="node"><title>Node11</title>
<polygon fill="none" stroke="#bfbfbf" points="697,-56.5 697,-75.5 738,-75.5 738,-56.5 697,-56.5"/>
<text text-anchor="middle" x="717.5" y="-63.5" font-family="Helvetica,sans-Serif" font-size="10.00">ctime</text>
</g>
<!-- Node7&#45;&gt;Node11 -->
<g id="edge10" class="edge"><title>Node7&#45;&gt;Node11</title>
<path fill="none" stroke="midnightblue" d="M1134.34,-118.949C1054.94,-114.978 893.57,-104.187 748.033,-75.7061"/>
<polygon fill="midnightblue" stroke="midnightblue" points="748.519,-72.2341 738.028,-73.7148 747.152,-79.0994 748.519,-72.2341"/>
</g>
<!-- Node12 -->
<g id="node12" class="node"><title>Node12</title>
<polygon fill="none" stroke="#bfbfbf" points="756.5,-56.5 756.5,-75.5 802.5,-75.5 802.5,-56.5 756.5,-56.5"/>
<text text-anchor="middle" x="779.5" y="-63.5" font-family="Helvetica,sans-Serif" font-size="10.00">cstring</text>
</g>
<!-- Node7&#45;&gt;Node12 -->
<g id="edge11" class="edge"><title>Node7&#45;&gt;Node12</title>
<path fill="none" stroke="midnightblue" d="M1134.37,-117.478C1064.78,-111.958 933.441,-99.588 812.952,-76.0198"/>
<polygon fill="midnightblue" stroke="midnightblue" points="813.309,-72.5222 802.818,-74.0055 811.944,-79.3879 813.309,-72.5222"/>
</g>
<!-- Node13 -->
<g id="node13" class="node"><title>Node13</title>
<polygon fill="none" stroke="#bfbfbf" points="821,-56.5 821,-75.5 870,-75.5 870,-56.5 821,-56.5"/>
<text text-anchor="middle" x="845.5" y="-63.5" font-family="Helvetica,sans-Serif" font-size="10.00">cstdarg</text>
</g>
<!-- Node7&#45;&gt;Node13 -->
<g id="edge12" class="edge"><title>Node7&#45;&gt;Node13</title>
<path fill="none" stroke="midnightblue" d="M1134.24,-115.427C1075.87,-108.443 975.542,-95.2417 880.119,-75.9215"/>
<polygon fill="midnightblue" stroke="midnightblue" points="880.806,-72.4896 870.307,-73.9092 879.4,-79.3469 880.806,-72.4896"/>
</g>
<!-- Node14 -->
<g id="node14" class="node"><title>Node14</title>
<polygon fill="none" stroke="#bfbfbf" points="888.5,-56.5 888.5,-75.5 932.5,-75.5 932.5,-56.5 888.5,-56.5"/>
<text text-anchor="middle" x="910.5" y="-63.5" font-family="Helvetica,sans-Serif" font-size="10.00">cmath</text>
</g>
<!-- Node7&#45;&gt;Node14 -->
<g id="edge13" class="edge"><title>Node7&#45;&gt;Node14</title>
<path fill="none" stroke="midnightblue" d="M1134.07,-113.277C1087.16,-105.619 1014.5,-92.909 942.878,-76.146"/>
<polygon fill="midnightblue" stroke="midnightblue" points="943.319,-72.6537 932.781,-73.7539 941.705,-79.4651 943.319,-72.6537"/>
</g>
<!-- Node15 -->
<g id="node15" class="node"><title>Node15</title>
<polygon fill="none" stroke="#bfbfbf" points="950.5,-56.5 950.5,-75.5 994.5,-75.5 994.5,-56.5 950.5,-56.5"/>
<text text-anchor="middle" x="972.5" y="-63.5" font-family="Helvetica,sans-Serif" font-size="10.00">vector</text>
</g>
<!-- Node7&#45;&gt;Node15 -->
<g id="edge14" class="edge"><title>Node7&#45;&gt;Node15</title>
<path fill="none" stroke="midnightblue" d="M1147.54,-112.431C1113.19,-104.153 1059.74,-91.0304 1004.74,-76.2659"/>
<polygon fill="midnightblue" stroke="midnightblue" points="1005.39,-72.8153 994.823,-73.5894 1003.57,-79.5736 1005.39,-72.8153"/>
</g>
<!-- Node16 -->
<g id="node16" class="node"><title>Node16</title>
<polygon fill="none" stroke="#bfbfbf" points="1013,-56.5 1013,-75.5 1048,-75.5 1048,-56.5 1013,-56.5"/>
<text text-anchor="middle" x="1030.5" y="-63.5" font-family="Helvetica,sans-Serif" font-size="10.00">map</text>
</g>
<!-- Node7&#45;&gt;Node16 -->
<g id="edge15" class="edge"><title>Node7&#45;&gt;Node16</title>
<path fill="none" stroke="midnightblue" d="M1159.26,-112.444C1131.67,-102.707 1086.72,-86.8408 1057.89,-76.6654"/>
<polygon fill="midnightblue" stroke="midnightblue" points="1059.01,-73.3508 1048.42,-73.323 1056.68,-79.9517 1059.01,-73.3508"/>
</g>
<!-- Node17 -->
<g id="node17" class="node"><title>Node17</title>
<polygon fill="none" stroke="#bfbfbf" points="1066.5,-56.5 1066.5,-75.5 1096.5,-75.5 1096.5,-56.5 1066.5,-56.5"/>
<text text-anchor="middle" x="1081.5" y="-63.5" font-family="Helvetica,sans-Serif" font-size="10.00">set</text>
</g>
<!-- Node7&#45;&gt;Node17 -->
<g id="edge17" class="edge"><title>Node7&#45;&gt;Node17</title>
<path fill="none" stroke="midnightblue" d="M1167.11,-112.324C1150.44,-103.499 1124.43,-89.7302 1105.46,-79.6827"/>
<polygon fill="midnightblue" stroke="midnightblue" points="1106.99,-76.5363 1096.52,-74.9507 1103.72,-82.7228 1106.99,-76.5363"/>
</g>
<!-- Node18 -->
<g id="node18" class="node"><title>Node18</title>
<polygon fill="none" stroke="#bfbfbf" points="1115,-56.5 1115,-75.5 1144,-75.5 1144,-56.5 1115,-56.5"/>
<text text-anchor="middle" x="1129.5" y="-63.5" font-family="Helvetica,sans-Serif" font-size="10.00">list</text>
</g>
<!-- Node7&#45;&gt;Node18 -->
<g id="edge18" class="edge"><title>Node7&#45;&gt;Node18</title>
<path fill="none" stroke="midnightblue" d="M1174.58,-112.083C1166.72,-104.22 1155.07,-92.5688 1145.58,-83.0813"/>
<polygon fill="midnightblue" stroke="midnightblue" points="1147.8,-80.3473 1138.25,-75.7511 1142.85,-85.2971 1147.8,-80.3473"/>
</g>
<!-- Node19 -->
<g id="node19" class="node"><title>Node19</title>
<polygon fill="none" stroke="#bfbfbf" points="1162,-56.5 1162,-75.5 1205,-75.5 1205,-56.5 1162,-56.5"/>
<text text-anchor="middle" x="1183.5" y="-63.5" font-family="Helvetica,sans-Serif" font-size="10.00">deque</text>
</g>
<!-- Node7&#45;&gt;Node19 -->
<g id="edge19" class="edge"><title>Node7&#45;&gt;Node19</title>
<path fill="none" stroke="midnightblue" d="M1183.5,-112.083C1183.5,-105.006 1183.5,-94.8611 1183.5,-85.9865"/>
<polygon fill="midnightblue" stroke="midnightblue" points="1187,-85.751 1183.5,-75.7511 1180,-85.7511 1187,-85.751"/>
</g>
<!-- Node20 -->
<g id="node20" class="node"><title>Node20</title>
<polygon fill="none" stroke="#bfbfbf" points="1223,-56.5 1223,-75.5 1266,-75.5 1266,-56.5 1223,-56.5"/>
<text text-anchor="middle" x="1244.5" y="-63.5" font-family="Helvetica,sans-Serif" font-size="10.00">queue</text>
</g>
<!-- Node7&#45;&gt;Node20 -->
<g id="edge20" class="edge"><title>Node7&#45;&gt;Node20</title>
<path fill="none" stroke="midnightblue" d="M1193.3,-112.324C1202.32,-104.341 1215.91,-92.3128 1226.82,-82.6529"/>
<polygon fill="midnightblue" stroke="midnightblue" points="1229.35,-85.083 1234.52,-75.8339 1224.71,-79.8416 1229.35,-85.083"/>
</g>
<!-- Node21 -->
<g id="node21" class="node"><title>Node21</title>
<polygon fill="none" stroke="#bfbfbf" points="1284,-56.5 1284,-75.5 1325,-75.5 1325,-56.5 1284,-56.5"/>
<text text-anchor="middle" x="1304.5" y="-63.5" font-family="Helvetica,sans-Serif" font-size="10.00">bitset</text>
</g>
<!-- Node7&#45;&gt;Node21 -->
<g id="edge21" class="edge"><title>Node7&#45;&gt;Node21</title>
<path fill="none" stroke="midnightblue" d="M1202.67,-112.444C1222.41,-103.636 1253.39,-89.8116 1275.99,-79.722"/>
<polygon fill="midnightblue" stroke="midnightblue" points="1277.71,-82.788 1285.42,-75.5164 1274.86,-76.3957 1277.71,-82.788"/>
</g>
<!-- Node22 -->
<g id="node22" class="node"><title>Node22</title>
<polygon fill="none" stroke="#bfbfbf" points="1343.5,-56.5 1343.5,-75.5 1399.5,-75.5 1399.5,-56.5 1343.5,-56.5"/>
<text text-anchor="middle" x="1371.5" y="-63.5" font-family="Helvetica,sans-Serif" font-size="10.00">algorithm</text>
</g>
<!-- Node7&#45;&gt;Node22 -->
<g id="edge22" class="edge"><title>Node7&#45;&gt;Node22</title>
<path fill="none" stroke="midnightblue" d="M1213.29,-112.444C1245.8,-103.105 1297.94,-88.1287 1333.41,-77.9421"/>
<polygon fill="midnightblue" stroke="midnightblue" points="1334.74,-81.2002 1343.39,-75.0755 1332.81,-74.4723 1334.74,-81.2002"/>
</g>
<!-- Node23 -->
<g id="node23" class="node"><title>Node23</title>
<polygon fill="none" stroke="#bfbfbf" points="1418,-56.5 1418,-75.5 1477,-75.5 1477,-56.5 1418,-56.5"/>
<text text-anchor="middle" x="1447.5" y="-63.5" font-family="Helvetica,sans-Serif" font-size="10.00">functional</text>
</g>
<!-- Node7&#45;&gt;Node23 -->
<g id="edge23" class="edge"><title>Node7&#45;&gt;Node23</title>
<path fill="none" stroke="midnightblue" d="M1228.4,-112.422C1271.75,-104.053 1339.47,-90.739 1407.65,-76.1335"/>
<polygon fill="midnightblue" stroke="midnightblue" points="1408.67,-79.4943 1417.71,-73.9696 1407.2,-72.6508 1408.67,-79.4943"/>
</g>
<!-- Node24 -->
<g id="node24" class="node"><title>Node24</title>
<polygon fill="none" stroke="#bfbfbf" points="1495.5,-56.5 1495.5,-75.5 1535.5,-75.5 1535.5,-56.5 1495.5,-56.5"/>
<text text-anchor="middle" x="1515.5" y="-63.5" font-family="Helvetica,sans-Serif" font-size="10.00">limits</text>
</g>
<!-- Node7&#45;&gt;Node24 -->
<g id="edge24" class="edge"><title>Node7&#45;&gt;Node24</title>
<path fill="none" stroke="midnightblue" d="M1232.54,-115.885C1292.62,-109.117 1397.29,-95.6963 1485.5,-76 1485.6,-75.9778 1485.7,-75.9554 1485.8,-75.9329"/>
<polygon fill="midnightblue" stroke="midnightblue" points="1486.46,-79.3776 1495.27,-73.4983 1484.71,-72.5979 1486.46,-79.3776"/>
</g>
<!-- Node25 -->
<g id="node25" class="node"><title>Node25</title>
<polygon fill="none" stroke="#bfbfbf" points="1553.5,-56.5 1553.5,-75.5 1603.5,-75.5 1603.5,-56.5 1553.5,-56.5"/>
<text text-anchor="middle" x="1578.5" y="-63.5" font-family="Helvetica,sans-Serif" font-size="10.00">fstream</text>
</g>
<!-- Node7&#45;&gt;Node25 -->
<g id="edge25" class="edge"><title>Node7&#45;&gt;Node25</title>
<path fill="none" stroke="midnightblue" d="M1232.59,-116.995C1300.37,-111 1426.57,-98.1694 1543.17,-76.0253"/>
<polygon fill="midnightblue" stroke="midnightblue" points="1544.18,-79.3947 1553.34,-74.0652 1542.85,-72.5212 1544.18,-79.3947"/>
</g>
<!-- Node26 -->
<g id="node26" class="node"><title>Node26</title>
<polygon fill="none" stroke="#bfbfbf" points="1622,-56.5 1622,-75.5 1667,-75.5 1667,-56.5 1622,-56.5"/>
<text text-anchor="middle" x="1644.5" y="-63.5" font-family="Helvetica,sans-Serif" font-size="10.00">iosfwd</text>
</g>
<!-- Node7&#45;&gt;Node26 -->
<g id="edge26" class="edge"><title>Node7&#45;&gt;Node26</title>
<path fill="none" stroke="midnightblue" d="M1232.79,-118.553C1311.19,-114.067 1469.13,-102.606 1612.06,-75.7478"/>
<polygon fill="midnightblue" stroke="midnightblue" points="1612.72,-79.185 1621.89,-73.872 1611.41,-72.3091 1612.72,-79.185"/>
</g>
<!-- Node27 -->
<g id="node27" class="node"><title>Node27</title>
<polygon fill="none" stroke="#bfbfbf" points="1685.5,-56.5 1685.5,-75.5 1737.5,-75.5 1737.5,-56.5 1685.5,-56.5"/>
<text text-anchor="middle" x="1711.5" y="-63.5" font-family="Helvetica,sans-Serif" font-size="10.00">sstream</text>
</g>
<!-- Node7&#45;&gt;Node27 -->
<g id="edge27" class="edge"><title>Node7&#45;&gt;Node27</title>
<path fill="none" stroke="midnightblue" d="M1232.71,-119.006C1319.9,-114.928 1507.32,-103.715 1675.24,-75.7486"/>
<polygon fill="midnightblue" stroke="midnightblue" points="1675.98,-79.1743 1685.25,-74.0573 1674.81,-72.2721 1675.98,-79.1743"/>
</g>
<!-- Node28 -->
<g id="node28" class="node"><title>Node28</title>
<polygon fill="none" stroke="#bfbfbf" points="1755.5,-56.5 1755.5,-75.5 1823.5,-75.5 1823.5,-56.5 1755.5,-56.5"/>
<text text-anchor="middle" x="1789.5" y="-63.5" font-family="Helvetica,sans-Serif" font-size="10.00">sys/types.h</text>
</g>
<!-- Node7&#45;&gt;Node28 -->
<g id="edge28" class="edge"><title>Node7&#45;&gt;Node28</title>
<path fill="none" stroke="midnightblue" d="M1232.68,-119.164C1329.14,-115.109 1550.01,-103.59 1745.15,-76.0179"/>
<polygon fill="midnightblue" stroke="midnightblue" points="1745.9,-79.4462 1755.3,-74.5651 1744.91,-72.5168 1745.9,-79.4462"/>
</g>
<!-- Node29 -->
<g id="node29" class="node"><title>Node29</title>
<polygon fill="none" stroke="#bfbfbf" points="1841.5,-56.5 1841.5,-75.5 1901.5,-75.5 1901.5,-56.5 1841.5,-56.5"/>
<text text-anchor="middle" x="1871.5" y="-63.5" font-family="Helvetica,sans-Serif" font-size="10.00">sys/stat.h</text>
</g>
<!-- Node7&#45;&gt;Node29 -->
<g id="edge29" class="edge"><title>Node7&#45;&gt;Node29</title>
<path fill="none" stroke="midnightblue" d="M1232.63,-120.23C1339.75,-117.985 1602.36,-109.402 1831.17,-75.9586"/>
<polygon fill="midnightblue" stroke="midnightblue" points="1831.98,-79.3779 1841.36,-74.4505 1830.95,-72.4535 1831.98,-79.3779"/>
</g>
<!-- Node30 -->
<g id="node30" class="node"><title>Node30</title>
<polygon fill="none" stroke="#bfbfbf" points="1920,-56.5 1920,-75.5 1971,-75.5 1971,-56.5 1920,-56.5"/>
<text text-anchor="middle" x="1945.5" y="-63.5" font-family="Helvetica,sans-Serif" font-size="10.00">unistd.h</text>
</g>
<!-- Node7&#45;&gt;Node30 -->
<g id="edge30" class="edge"><title>Node7&#45;&gt;Node30</title>
<path fill="none" stroke="midnightblue" d="M1232.78,-121.162C1349.16,-120.858 1650.11,-116.052 1909.63,-75.8084"/>
<polygon fill="midnightblue" stroke="midnightblue" points="1910.29,-79.2485 1919.62,-74.2383 1909.2,-72.3334 1910.29,-79.2485"/>
</g>
<!-- Node31 -->
<g id="node31" class="node"><title>Node31</title>
<polygon fill="none" stroke="#bfbfbf" points="1989.5,-56.5 1989.5,-75.5 2035.5,-75.5 2035.5,-56.5 1989.5,-56.5"/>
<text text-anchor="middle" x="2012.5" y="-63.5" font-family="Helvetica,sans-Serif" font-size="10.00">dlfcn.h</text>
</g>
<!-- Node7&#45;&gt;Node31 -->
<g id="edge31" class="edge"><title>Node7&#45;&gt;Node31</title>
<path fill="none" stroke="midnightblue" d="M1232.6,-119.574C1379.69,-115.094 1816.11,-100.227 1979.31,-75.5671"/>
<polygon fill="midnightblue" stroke="midnightblue" points="1979.87,-79.0229 1989.2,-74.0053 1978.77,-72.1087 1979.87,-79.0229"/>
</g>
<!-- Node32 -->
<g id="node32" class="node"><title>Node32</title>
<polygon fill="none" stroke="#bfbfbf" points="2053.5,-56.5 2053.5,-75.5 2131.5,-75.5 2131.5,-56.5 2053.5,-56.5"/>
<text text-anchor="middle" x="2092.5" y="-63.5" font-family="Helvetica,sans-Serif" font-size="10.00">ext/hash_map</text>
</g>
<!-- Node7&#45;&gt;Node32 -->
<g id="edge32" class="edge"><title>Node7&#45;&gt;Node32</title>
<path fill="none" stroke="midnightblue" d="M1232.72,-120.716C1363.26,-119.475 1729.23,-112.818 2043.07,-76.0052"/>
<polygon fill="midnightblue" stroke="midnightblue" points="2043.75,-79.4484 2053.27,-74.7952 2042.93,-72.4971 2043.75,-79.4484"/>
</g>
<!-- Node33 -->
<g id="node33" class="node"><title>Node33</title>
<polygon fill="none" stroke="#bfbfbf" points="0,-56.5 0,-75.5 73,-75.5 73,-56.5 0,-56.5"/>
<text text-anchor="middle" x="36.5" y="-63.5" font-family="Helvetica,sans-Serif" font-size="10.00">ext/hash_set</text>
</g>
<!-- Node7&#45;&gt;Node33 -->
<g id="edge33" class="edge"><title>Node7&#45;&gt;Node33</title>
<path fill="none" stroke="midnightblue" d="M1134.46,-120.02C951.712,-116.21 309.648,-101.386 83.3958,-76.0169"/>
<polygon fill="midnightblue" stroke="midnightblue" points="83.5986,-72.5171 73.2616,-74.8398 82.7909,-79.4703 83.5986,-72.5171"/>
</g>
<!-- Node34 -->
<g id="node34" class="node"><title>Node34</title>
<polygon fill="none" stroke="#bfbfbf" points="91,-56.5 91,-75.5 162,-75.5 162,-56.5 91,-56.5"/>
<text text-anchor="middle" x="126.5" y="-63.5" font-family="Helvetica,sans-Serif" font-size="10.00">sys/param.h</text>
</g>
<!-- Node7&#45;&gt;Node34 -->
<g id="edge34" class="edge"><title>Node7&#45;&gt;Node34</title>
<path fill="none" stroke="midnightblue" d="M1134.31,-121.47C988.722,-122.295 547.287,-120.735 172.242,-75.8731"/>
<polygon fill="midnightblue" stroke="midnightblue" points="172.629,-72.3945 162.282,-74.6695 171.789,-79.344 172.629,-72.3945"/>
</g>
<!-- Node35 -->
<g id="node35" class="node"><title>Node35</title>
<polygon fill="none" stroke="#bfbfbf" points="180.5,-56.5 180.5,-75.5 346.5,-75.5 346.5,-56.5 180.5,-56.5"/>
<text text-anchor="middle" x="263.5" y="-63.5" font-family="Helvetica,sans-Serif" font-size="10.00">CoreFoundation/CoreFoundation.h</text>
</g>
<!-- Node7&#45;&gt;Node35 -->
<g id="edge35" class="edge"><title>Node7&#45;&gt;Node35</title>
<path fill="none" stroke="midnightblue" d="M1134.46,-119.075C1007.73,-113.944 658.804,-98.8068 356.996,-76.082"/>
<polygon fill="midnightblue" stroke="midnightblue" points="356.966,-72.5699 346.731,-75.3048 356.438,-79.5499 356.966,-72.5699"/>
</g>
<!-- Node36 -->
<g id="node36" class="node"><title>Node36</title>
<polygon fill="none" stroke="#bfbfbf" points="364.5,-56.5 364.5,-75.5 488.5,-75.5 488.5,-56.5 364.5,-56.5"/>
<text text-anchor="middle" x="426.5" y="-63.5" font-family="Helvetica,sans-Serif" font-size="10.00">emscripten/emscripten.h</text>
</g>
<!-- Node7&#45;&gt;Node36 -->
<g id="edge36" class="edge"><title>Node7&#45;&gt;Node36</title>
<path fill="none" stroke="midnightblue" d="M1134.27,-118.832C1022.88,-113.701 742.829,-99.5185 498.815,-76.1765"/>
<polygon fill="midnightblue" stroke="midnightblue" points="498.979,-72.6762 488.69,-75.2006 498.308,-79.6439 498.979,-72.6762"/>
</g>
<!-- Node38 -->
<g id="node38" class="node"><title>Node38</title>
<g id="a_node38"><a xlink:href="_ogre_memory_allocated_object_8h.html" target="_top" xlink:title="OgreMemoryAllocatedObject.h">
<polygon fill="none" stroke="black" points="2285.5,-56.5 2285.5,-75.5 2435.5,-75.5 2435.5,-56.5 2285.5,-56.5"/>
<text text-anchor="middle" x="2360.5" y="-63.5" font-family="Helvetica,sans-Serif" font-size="10.00">OgreMemoryAllocatedObject.h</text>
</a>
</g>
</g>
<!-- Node37&#45;&gt;Node38 -->
<g id="edge38" class="edge"><title>Node37&#45;&gt;Node38</title>
<path fill="none" stroke="midnightblue" d="M2440.24,-112.324C2425.28,-103.822 2402.25,-90.7288 2384.77,-80.7975"/>
<polygon fill="midnightblue" stroke="midnightblue" points="2386.15,-77.5534 2375.73,-75.6545 2382.69,-83.639 2386.15,-77.5534"/>
</g>
<!-- Node39 -->
<g id="node39" class="node"><title>Node39</title>
<g id="a_node39"><a xlink:href="_ogre_header_prefix_8h.html" target="_top" xlink:title="OgreHeaderPrefix.h">
<polygon fill="none" stroke="black" points="2620,-0.5 2620,-19.5 2723,-19.5 2723,-0.5 2620,-0.5"/>
<text text-anchor="middle" x="2671.5" y="-7.5" font-family="Helvetica,sans-Serif" font-size="10.00">OgreHeaderPrefix.h</text>
</a>
</g>
</g>
<!-- Node37&#45;&gt;Node39 -->
<g id="edge42" class="edge"><title>Node37&#45;&gt;Node39</title>
<path fill="none" stroke="midnightblue" d="M2529.77,-120.198C2607.12,-117.601 2720.85,-108.221 2748.5,-76 2766.36,-55.1861 2733.47,-35.4874 2705.28,-23.3442"/>
<polygon fill="midnightblue" stroke="midnightblue" points="2706.57,-20.0876 2695.99,-19.5251 2703.91,-26.5626 2706.57,-20.0876"/>
</g>
<!-- Node40 -->
<g id="node40" class="node"><title>Node40</title>
<g id="a_node40"><a xlink:href="_ogre_header_suffix_8h.html" target="_top" xlink:title="OgreHeaderSuffix.h">
<polygon fill="none" stroke="black" points="2309,-0.5 2309,-19.5 2412,-19.5 2412,-0.5 2309,-0.5"/>
<text text-anchor="middle" x="2360.5" y="-7.5" font-family="Helvetica,sans-Serif" font-size="10.00">OgreHeaderSuffix.h</text>
</a>
</g>
</g>
<!-- Node37&#45;&gt;Node40 -->
<g id="edge50" class="edge"><title>Node37&#45;&gt;Node40</title>
<path fill="none" stroke="midnightblue" d="M2386.57,-112.475C2342.16,-105.404 2290.24,-93.6256 2276.5,-76 2259,-53.5621 2293.12,-34.5585 2322.98,-23.0008"/>
<polygon fill="midnightblue" stroke="midnightblue" points="2324.28,-26.2523 2332.46,-19.515 2321.86,-19.6827 2324.28,-26.2523"/>
</g>
<!-- Node41 -->
<g id="node41" class="node"><title>Node41</title>
<g id="a_node41"><a xlink:href="_ogre_memory_s_t_l_allocator_8h.html" target="_top" xlink:title="OgreMemorySTLAllocator.h">
<polygon fill="none" stroke="black" points="2603,-56.5 2603,-75.5 2740,-75.5 2740,-56.5 2603,-56.5"/>
<text text-anchor="middle" x="2671.5" y="-63.5" font-family="Helvetica,sans-Serif" font-size="10.00">OgreMemorySTLAllocator.h</text>
</a>
</g>
</g>
<!-- Node37&#45;&gt;Node41 -->
<g id="edge43" class="edge"><title>Node37&#45;&gt;Node41</title>
<path fill="none" stroke="midnightblue" d="M2489.73,-112.444C2527.01,-103.122 2586.77,-88.1828 2627.51,-77.9972"/>
<polygon fill="midnightblue" stroke="midnightblue" points="2628.58,-81.3374 2637.43,-75.5164 2626.88,-74.5464 2628.58,-81.3374"/>
</g>
<!-- Node42 -->
<g id="node42" class="node"><title>Node42</title>
<g id="a_node42"><a xlink:href="_ogre_memory_ned_pooling_8h.html" target="_top" xlink:title="OgreMemoryNedPooling.h">
<polygon fill="none" stroke="black" points="2454,-56.5 2454,-75.5 2585,-75.5 2585,-56.5 2454,-56.5"/>
<text text-anchor="middle" x="2519.5" y="-63.5" font-family="Helvetica,sans-Serif" font-size="10.00">OgreMemoryNedPooling.h</text>
</a>
</g>
</g>
<!-- Node37&#45;&gt;Node42 -->
<g id="edge47" class="edge"><title>Node37&#45;&gt;Node42</title>
<path fill="none" stroke="midnightblue" d="M2465.78,-112.324C2475.34,-104.263 2489.78,-92.0765 2501.28,-82.3695"/>
<polygon fill="midnightblue" stroke="midnightblue" points="2503.64,-84.9577 2509.03,-75.8339 2499.13,-79.6076 2503.64,-84.9577"/>
</g>
<!-- Node38&#45;&gt;Node2 -->
<g id="edge39" class="edge"><title>Node38&#45;&gt;Node2</title>
<path fill="none" stroke="midnightblue" d="M2345.66,-75.5914C2312.84,-94.5906 2233.88,-140.304 2194.16,-163.301"/>
<polygon fill="midnightblue" stroke="midnightblue" points="2192.31,-160.329 2185.41,-168.368 2195.82,-166.387 2192.31,-160.329"/>
</g>
<!-- Node38&#45;&gt;Node39 -->
<g id="edge40" class="edge"><title>Node38&#45;&gt;Node39</title>
<path fill="none" stroke="midnightblue" d="M2409.78,-56.4435C2464.83,-46.8851 2553.9,-31.4195 2612.58,-21.2298"/>
<polygon fill="midnightblue" stroke="midnightblue" points="2613.2,-24.6757 2622.45,-19.5164 2612,-17.7788 2613.2,-24.6757"/>
</g>
<!-- Node38&#45;&gt;Node40 -->
<g id="edge41" class="edge"><title>Node38&#45;&gt;Node40</title>
<path fill="none" stroke="midnightblue" d="M2360.5,-56.083C2360.5,-49.0059 2360.5,-38.8611 2360.5,-29.9865"/>
<polygon fill="midnightblue" stroke="midnightblue" points="2364,-29.751 2360.5,-19.7511 2357,-29.7511 2364,-29.751"/>
</g>
<!-- Node41&#45;&gt;Node2 -->
<g id="edge44" class="edge"><title>Node41&#45;&gt;Node2</title>
<path fill="none" stroke="midnightblue" d="M2657.76,-75.6443C2634.31,-89.9552 2584.58,-118.343 2538.5,-132 2433.88,-163.006 2306.45,-172.681 2232.29,-175.679"/>
<polygon fill="midnightblue" stroke="midnightblue" points="2232.05,-172.185 2222.19,-176.059 2232.31,-179.18 2232.05,-172.185"/>
</g>
<!-- Node41&#45;&gt;Node39 -->
<g id="edge45" class="edge"><title>Node41&#45;&gt;Node39</title>
<path fill="none" stroke="midnightblue" d="M2671.5,-56.083C2671.5,-49.0059 2671.5,-38.8611 2671.5,-29.9865"/>
<polygon fill="midnightblue" stroke="midnightblue" points="2675,-29.751 2671.5,-19.7511 2668,-29.7511 2675,-29.751"/>
</g>
<!-- Node41&#45;&gt;Node40 -->
<g id="edge46" class="edge"><title>Node41&#45;&gt;Node40</title>
<path fill="none" stroke="midnightblue" d="M2622.22,-56.4435C2567.17,-46.8851 2478.1,-31.4195 2419.42,-21.2298"/>
<polygon fill="midnightblue" stroke="midnightblue" points="2420,-17.7788 2409.55,-19.5164 2418.8,-24.6757 2420,-17.7788"/>
</g>
<!-- Node42&#45;&gt;Node39 -->
<g id="edge48" class="edge"><title>Node42&#45;&gt;Node39</title>
<path fill="none" stroke="midnightblue" d="M2543.58,-56.4435C2569.04,-47.3986 2609.39,-33.064 2637.96,-22.9158"/>
<polygon fill="midnightblue" stroke="midnightblue" points="2639.28,-26.1622 2647.53,-19.5164 2636.93,-19.5661 2639.28,-26.1622"/>
</g>
<!-- Node42&#45;&gt;Node40 -->
<g id="edge49" class="edge"><title>Node42&#45;&gt;Node40</title>
<path fill="none" stroke="midnightblue" d="M2494.31,-56.4435C2467.56,-47.3591 2425.1,-32.9388 2395.19,-22.7831"/>
<polygon fill="midnightblue" stroke="midnightblue" points="2396.17,-19.4182 2385.58,-19.5164 2393.92,-26.0464 2396.17,-19.4182"/>
</g>
<!-- Node43&#45;&gt;Node2 -->
<g id="edge52" class="edge"><title>Node43&#45;&gt;Node2</title>
<path fill="none" stroke="midnightblue" d="M2097.1,-392.267C2102.07,-366.055 2118.49,-286.045 2144.5,-224 2148.51,-214.431 2154.17,-204.378 2159.18,-196.207"/>
<polygon fill="midnightblue" stroke="midnightblue" points="2162.22,-197.94 2164.63,-187.622 2156.31,-194.188 2162.22,-197.94"/>
</g>
<!-- Node44 -->
<g id="node44" class="node"><title>Node44</title>
<g id="a_node44"><a xlink:href="_ogre_vector3_8h.html" target="_top" xlink:title="OgreVector3.h">
<polygon fill="none" stroke="black" points="2164.5,-336.5 2164.5,-355.5 2244.5,-355.5 2244.5,-336.5 2164.5,-336.5"/>
<text text-anchor="middle" x="2204.5" y="-343.5" font-family="Helvetica,sans-Serif" font-size="10.00">OgreVector3.h</text>
</a>
</g>
</g>
<!-- Node43&#45;&gt;Node44 -->
<g id="edge53" class="edge"><title>Node43&#45;&gt;Node44</title>
<path fill="none" stroke="midnightblue" d="M2113.01,-392.324C2130.57,-383.625 2157.83,-370.12 2178.03,-360.113"/>
<polygon fill="midnightblue" stroke="midnightblue" points="2179.62,-363.23 2187.03,-355.655 2176.52,-356.958 2179.62,-363.23"/>
</g>
<!-- Node44&#45;&gt;Node2 -->
<g id="edge54" class="edge"><title>Node44&#45;&gt;Node2</title>
<path fill="none" stroke="midnightblue" d="M2192,-336.302C2181.63,-328.251 2167.61,-315.245 2161.5,-300 2147.77,-265.751 2157.04,-221.718 2164.27,-197.327"/>
<polygon fill="midnightblue" stroke="midnightblue" points="2167.66,-198.199 2167.35,-187.608 2160.99,-196.08 2167.66,-198.199"/>
</g>
<!-- Node45 -->
<g id="node45" class="node"><title>Node45</title>
<g id="a_node45"><a xlink:href="_ogre_quaternion_8h.html" target="_top" xlink:title="OgreQuaternion.h">
<polygon fill="none" stroke="black" points="2171,-280.5 2171,-299.5 2264,-299.5 2264,-280.5 2171,-280.5"/>
<text text-anchor="middle" x="2217.5" y="-287.5" font-family="Helvetica,sans-Serif" font-size="10.00">OgreQuaternion.h</text>
</a>
</g>
</g>
<!-- Node44&#45;&gt;Node45 -->
<g id="edge55" class="edge"><title>Node44&#45;&gt;Node45</title>
<path fill="none" stroke="midnightblue" d="M2206.65,-336.083C2208.37,-328.927 2210.85,-318.635 2213,-309.691"/>
<polygon fill="midnightblue" stroke="midnightblue" points="2216.46,-310.293 2215.39,-299.751 2209.65,-308.654 2216.46,-310.293"/>
</g>
<!-- Node47 -->
<g id="node47" class="node"><title>Node47</title>
<g id="a_node47"><a xlink:href="_ogre_vector2_8h.html" target="_top" xlink:title="OgreVector2.h">
<polygon fill="none" stroke="black" points="2282.5,-280.5 2282.5,-299.5 2362.5,-299.5 2362.5,-280.5 2282.5,-280.5"/>
<text text-anchor="middle" x="2322.5" y="-287.5" font-family="Helvetica,sans-Serif" font-size="10.00">OgreVector2.h</text>
</a>
</g>
</g>
<!-- Node44&#45;&gt;Node47 -->
<g id="edge61" class="edge"><title>Node44&#45;&gt;Node47</title>
<path fill="none" stroke="midnightblue" d="M2223.2,-336.444C2242.44,-327.636 2272.65,-313.812 2294.7,-303.722"/>
<polygon fill="midnightblue" stroke="midnightblue" points="2296.25,-306.86 2303.89,-299.516 2293.34,-300.495 2296.25,-306.86"/>
</g>
<!-- Node45&#45;&gt;Node2 -->
<g id="edge56" class="edge"><title>Node45&#45;&gt;Node2</title>
<path fill="none" stroke="midnightblue" d="M2213.81,-280.368C2206.16,-262.456 2188.41,-220.923 2178.17,-196.948"/>
<polygon fill="midnightblue" stroke="midnightblue" points="2181.32,-195.412 2174.17,-187.591 2174.88,-198.162 2181.32,-195.412"/>
</g>
<!-- Node46 -->
<g id="node46" class="node"><title>Node46</title>
<g id="a_node46"><a xlink:href="_ogre_math_8h.html" target="_top" xlink:title="OgreMath.h">
<polygon fill="none" stroke="black" points="2306.5,-224.5 2306.5,-243.5 2374.5,-243.5 2374.5,-224.5 2306.5,-224.5"/>
<text text-anchor="middle" x="2340.5" y="-231.5" font-family="Helvetica,sans-Serif" font-size="10.00">OgreMath.h</text>
</a>
</g>
</g>
<!-- Node45&#45;&gt;Node46 -->
<g id="edge57" class="edge"><title>Node45&#45;&gt;Node46</title>
<path fill="none" stroke="midnightblue" d="M2236.99,-280.444C2257.14,-271.596 2288.82,-257.687 2311.83,-247.586"/>
<polygon fill="midnightblue" stroke="midnightblue" points="2313.35,-250.741 2321.1,-243.516 2310.54,-244.332 2313.35,-250.741"/>
</g>
<!-- Node46&#45;&gt;Node2 -->
<g id="edge58" class="edge"><title>Node46&#45;&gt;Node2</title>
<path fill="none" stroke="midnightblue" d="M2313.56,-224.444C2284.84,-215.32 2239.17,-200.813 2207.18,-190.651"/>
<polygon fill="midnightblue" stroke="midnightblue" points="2207.9,-187.208 2197.31,-187.516 2205.78,-193.88 2207.9,-187.208"/>
</g>
<!-- Node46&#45;&gt;Node39 -->
<g id="edge59" class="edge"><title>Node46&#45;&gt;Node39</title>
<path fill="none" stroke="midnightblue" d="M2374.73,-229.746C2465.4,-220.388 2708.34,-190.269 2759.5,-132 2781.85,-106.538 2783.56,-84.6685 2765.5,-56 2755.49,-40.1125 2738.15,-29.7108 2721.06,-22.9583"/>
<polygon fill="midnightblue" stroke="midnightblue" points="2722.24,-19.6623 2711.65,-19.5706 2719.87,-26.2491 2722.24,-19.6623"/>
</g>
<!-- Node46&#45;&gt;Node40 -->
<g id="edge60" class="edge"><title>Node46&#45;&gt;Node40</title>
<path fill="none" stroke="midnightblue" d="M2331.55,-224.399C2305.08,-197.894 2231.26,-115.664 2268.5,-56 2278.26,-40.3644 2295.2,-30.013 2311.9,-23.2301"/>
<polygon fill="midnightblue" stroke="midnightblue" points="2313.48,-26.378 2321.65,-19.6357 2311.06,-19.8098 2313.48,-26.378"/>
</g>
<!-- Node47&#45;&gt;Node2 -->
<g id="edge62" class="edge"><title>Node47&#45;&gt;Node2</title>
<path fill="none" stroke="midnightblue" d="M2310.57,-280.368C2284.6,-261.573 2222.69,-216.768 2190.58,-193.533"/>
<polygon fill="midnightblue" stroke="midnightblue" points="2192.52,-190.619 2182.37,-187.591 2188.42,-196.29 2192.52,-190.619"/>
</g>
<!-- Node47&#45;&gt;Node46 -->
<g id="edge63" class="edge"><title>Node47&#45;&gt;Node46</title>
<path fill="none" stroke="midnightblue" d="M2325.47,-280.083C2327.88,-272.849 2331.36,-262.409 2334.37,-253.397"/>
<polygon fill="midnightblue" stroke="midnightblue" points="2337.74,-254.345 2337.58,-243.751 2331.1,-252.131 2337.74,-254.345"/>
</g>
<!-- Node48&#45;&gt;Node2 -->
<g id="edge65" class="edge"><title>Node48&#45;&gt;Node2</title>
<path fill="none" stroke="midnightblue" d="M2182.59,-392.497C2173.71,-384.199 2161.22,-370.706 2155.5,-356 2134.23,-301.296 2139.85,-281.526 2151.5,-224 2153.39,-214.649 2157.29,-204.827 2161.07,-196.753"/>
<polygon fill="midnightblue" stroke="midnightblue" points="2164.29,-198.138 2165.62,-187.628 2158.03,-195.011 2164.29,-198.138"/>
</g>
<!-- Node48&#45;&gt;Node44 -->
<g id="edge66" class="edge"><title>Node48&#45;&gt;Node44</title>
<path fill="none" stroke="midnightblue" d="M2194.48,-392.083C2196.07,-384.927 2198.36,-374.635 2200.35,-365.691"/>
<polygon fill="midnightblue" stroke="midnightblue" points="2203.8,-366.272 2202.56,-355.751 2196.97,-364.754 2203.8,-366.272"/>
</g>
<!-- Node49&#45;&gt;Node2 -->
<g id="edge68" class="edge"><title>Node49&#45;&gt;Node2</title>
<path fill="none" stroke="midnightblue" d="M2300.83,-392.412C2331.53,-372.896 2398.73,-323.529 2371.5,-280 2352.1,-248.993 2330.04,-260.7 2297.5,-244 2280.87,-235.465 2277.08,-232.625 2260.5,-224 2239.45,-213.05 2215.39,-201.05 2197.45,-192.198"/>
<polygon fill="midnightblue" stroke="midnightblue" points="2198.69,-188.906 2188.17,-187.63 2195.6,-195.186 2198.69,-188.906"/>
</g>
<!-- Node49&#45;&gt;Node44 -->
<g id="edge69" class="edge"><title>Node49&#45;&gt;Node44</title>
<path fill="none" stroke="midnightblue" d="M2273.33,-392.324C2260.65,-383.979 2241.27,-371.212 2226.29,-361.352"/>
<polygon fill="midnightblue" stroke="midnightblue" points="2227.92,-358.231 2217.64,-355.655 2224.07,-364.078 2227.92,-358.231"/>
</g>
</g>
</svg>
