<?xml version="1.0" encoding="UTF-8" standalone="no"?>
<!DOCTYPE svg PUBLIC "-//W3C//DTD SVG 1.1//EN"
 "http://www.w3.org/Graphics/SVG/1.1/DTD/svg11.dtd">
<!-- Generated by graphviz version 2.38.0 (20140413.2041)
 -->
<!-- Title: OgreGLESHardwarePixelBuffer.h Pages: 1 -->
<svg width="2283pt" height="420pt"
 viewBox="0.00 0.00 2283.00 420.00" xmlns="http://www.w3.org/2000/svg" xmlns:xlink="http://www.w3.org/1999/xlink">
<g id="graph0" class="graph" transform="scale(1 1) rotate(0) translate(4 416)">
<title>OgreGLESHardwarePixelBuffer.h</title>
<!-- Node1 -->
<g id="node1" class="node"><title>Node1</title>
<polygon fill="#bfbfbf" stroke="black" points="402,-392.5 402,-411.5 564,-411.5 564,-392.5 402,-392.5"/>
<text text-anchor="middle" x="483" y="-399.5" font-family="Helvetica,sans-Serif" font-size="10.00">OgreGLESHardwarePixelBuffer.h</text>
</g>
<!-- Node2 -->
<g id="node2" class="node"><title>Node2</title>
<g id="a_node2"><a xlink:href="_ogre_g_l_e_s_prerequisites_8h.html" target="_top" xlink:title="OgreGLESPrerequisites.h">
<polygon fill="none" stroke="black" points="251.5,-280.5 251.5,-299.5 380.5,-299.5 380.5,-280.5 251.5,-280.5"/>
<text text-anchor="middle" x="316" y="-287.5" font-family="Helvetica,sans-Serif" font-size="10.00">OgreGLESPrerequisites.h</text>
</a>
</g>
</g>
<!-- Node1&#45;&gt;Node2 -->
<g id="edge1" class="edge"><title>Node1&#45;&gt;Node2</title>
<path fill="none" stroke="midnightblue" d="M469.896,-392.368C441.239,-373.492 372.757,-328.385 337.614,-305.237"/>
<polygon fill="midnightblue" stroke="midnightblue" points="339.32,-302.169 329.043,-299.591 335.469,-308.015 339.32,-302.169"/>
</g>
<!-- Node44 -->
<g id="node44" class="node"><title>Node44</title>
<g id="a_node44"><a xlink:href="_ogre_hardware_pixel_buffer_8h.html" target="_top" xlink:title="OgreHardwarePixelBuffer.h">
<polygon fill="none" stroke="black" points="481,-336.5 481,-355.5 617,-355.5 617,-336.5 481,-336.5"/>
<text text-anchor="middle" x="549" y="-343.5" font-family="Helvetica,sans-Serif" font-size="10.00">OgreHardwarePixelBuffer.h</text>
</a>
</g>
</g>
<!-- Node1&#45;&gt;Node44 -->
<g id="edge56" class="edge"><title>Node1&#45;&gt;Node44</title>
<path fill="none" stroke="midnightblue" d="M493.604,-392.324C503.456,-384.263 518.351,-372.077 530.215,-362.369"/>
<polygon fill="midnightblue" stroke="midnightblue" points="532.68,-364.875 538.203,-355.834 528.247,-359.457 532.68,-364.875"/>
</g>
<!-- Node3 -->
<g id="node3" class="node"><title>Node3</title>
<g id="a_node3"><a xlink:href="_ogre_prerequisites_8h.html" target="_top" xlink:title="OgrePrerequisites.h">
<polygon fill="none" stroke="black" points="789.5,-112.5 789.5,-131.5 892.5,-131.5 892.5,-112.5 789.5,-112.5"/>
<text text-anchor="middle" x="841" y="-119.5" font-family="Helvetica,sans-Serif" font-size="10.00">OgrePrerequisites.h</text>
</a>
</g>
</g>
<!-- Node2&#45;&gt;Node3 -->
<g id="edge2" class="edge"><title>Node2&#45;&gt;Node3</title>
<path fill="none" stroke="midnightblue" d="M380.651,-285.965C457.608,-281.315 589.593,-270.046 700,-244 771.29,-227.182 812.916,-247.951 855,-188 864.713,-174.163 858.731,-154.885 851.833,-140.919"/>
<polygon fill="midnightblue" stroke="midnightblue" points="854.734,-138.931 846.859,-131.843 848.595,-142.295 854.734,-138.931"/>
</g>
<!-- Node37 -->
<g id="node37" class="node"><title>Node37</title>
<g id="a_node37"><a xlink:href="_ogre_log_manager_8h.html" target="_top" xlink:title="OgreLogManager.h">
<polygon fill="none" stroke="black" points="330.5,-224.5 330.5,-243.5 429.5,-243.5 429.5,-224.5 330.5,-224.5"/>
<text text-anchor="middle" x="380" y="-231.5" font-family="Helvetica,sans-Serif" font-size="10.00">OgreLogManager.h</text>
</a>
</g>
</g>
<!-- Node2&#45;&gt;Node37 -->
<g id="edge37" class="edge"><title>Node2&#45;&gt;Node37</title>
<path fill="none" stroke="midnightblue" d="M326.283,-280.324C335.836,-272.263 350.28,-260.077 361.784,-250.369"/>
<polygon fill="midnightblue" stroke="midnightblue" points="364.144,-252.958 369.53,-243.834 359.63,-247.608 364.144,-252.958"/>
</g>
<!-- Node41 -->
<g id="node41" class="node"><title>Node41</title>
<g id="a_node41"><a xlink:href="_ogre_math_8h.html" target="_top" xlink:title="OgreMath.h">
<polygon fill="none" stroke="black" points="138,-168.5 138,-187.5 206,-187.5 206,-168.5 138,-168.5"/>
<text text-anchor="middle" x="172" y="-175.5" font-family="Helvetica,sans-Serif" font-size="10.00">OgreMath.h</text>
</a>
</g>
</g>
<!-- Node2&#45;&gt;Node41 -->
<g id="edge50" class="edge"><title>Node2&#45;&gt;Node41</title>
<path fill="none" stroke="midnightblue" d="M251.206,-286.957C182.742,-283.272 81.3486,-272.944 57,-244 32.9447,-215.405 86.097,-196.878 127.92,-187.188"/>
<polygon fill="midnightblue" stroke="midnightblue" points="128.704,-190.599 137.715,-185.027 127.196,-183.763 128.704,-190.599"/>
</g>
<!-- Node42 -->
<g id="node42" class="node"><title>Node42</title>
<polygon fill="none" stroke="#bfbfbf" points="66.5,-224.5 66.5,-243.5 173.5,-243.5 173.5,-224.5 66.5,-224.5"/>
<text text-anchor="middle" x="120" y="-231.5" font-family="Helvetica,sans-Serif" font-size="10.00">OpenGLES/ES1/gl.h</text>
</g>
<!-- Node2&#45;&gt;Node42 -->
<g id="edge54" class="edge"><title>Node2&#45;&gt;Node42</title>
<path fill="none" stroke="midnightblue" d="M284.943,-280.444C251.397,-271.201 197.803,-256.436 160.859,-246.257"/>
<polygon fill="midnightblue" stroke="midnightblue" points="161.482,-242.798 150.911,-243.516 159.623,-249.547 161.482,-242.798"/>
</g>
<!-- Node43 -->
<g id="node43" class="node"><title>Node43</title>
<polygon fill="none" stroke="#bfbfbf" points="192,-224.5 192,-243.5 312,-243.5 312,-224.5 192,-224.5"/>
<text text-anchor="middle" x="252" y="-231.5" font-family="Helvetica,sans-Serif" font-size="10.00">OpenGLES/ES1/glext.h</text>
</g>
<!-- Node2&#45;&gt;Node43 -->
<g id="edge55" class="edge"><title>Node2&#45;&gt;Node43</title>
<path fill="none" stroke="midnightblue" d="M305.717,-280.324C296.164,-272.263 281.72,-260.077 270.216,-250.369"/>
<polygon fill="midnightblue" stroke="midnightblue" points="272.37,-247.608 262.47,-243.834 267.856,-252.958 272.37,-247.608"/>
</g>
<!-- Node4 -->
<g id="node4" class="node"><title>Node4</title>
<g id="a_node4"><a xlink:href="_ogre_platform_8h.html" target="_top" xlink:title="OgrePlatform.h">
<polygon fill="none" stroke="black" points="1995.5,-56.5 1995.5,-75.5 2078.5,-75.5 2078.5,-56.5 1995.5,-56.5"/>
<text text-anchor="middle" x="2037" y="-63.5" font-family="Helvetica,sans-Serif" font-size="10.00">OgrePlatform.h</text>
</a>
</g>
</g>
<!-- Node3&#45;&gt;Node4 -->
<g id="edge3" class="edge"><title>Node3&#45;&gt;Node4</title>
<path fill="none" stroke="midnightblue" d="M892.775,-118.662C1089.45,-109.782 1788.99,-78.1977 1985.39,-69.3303"/>
<polygon fill="midnightblue" stroke="midnightblue" points="1985.61,-72.824 1995.44,-68.8764 1985.29,-65.8311 1985.61,-72.824"/>
</g>
<!-- Node6 -->
<g id="node6" class="node"><title>Node6</title>
<polygon fill="none" stroke="#bfbfbf" points="2141.5,-0.5 2141.5,-19.5 2182.5,-19.5 2182.5,-0.5 2141.5,-0.5"/>
<text text-anchor="middle" x="2162" y="-7.5" font-family="Helvetica,sans-Serif" font-size="10.00">string</text>
</g>
<!-- Node3&#45;&gt;Node6 -->
<g id="edge5" class="edge"><title>Node3&#45;&gt;Node6</title>
<path fill="none" stroke="midnightblue" d="M892.634,-121.07C1066.96,-120.447 1649.34,-111.335 2131.29,-19.952"/>
<polygon fill="midnightblue" stroke="midnightblue" points="2132.07,-23.3679 2141.23,-18.0533 2130.75,-16.4923 2132.07,-23.3679"/>
</g>
<!-- Node7 -->
<g id="node7" class="node"><title>Node7</title>
<g id="a_node7"><a xlink:href="_ogre_std_headers_8h.html" target="_top" xlink:title="OgreStdHeaders.h">
<polygon fill="none" stroke="red" points="1147,-56.5 1147,-75.5 1245,-75.5 1245,-56.5 1147,-56.5"/>
<text text-anchor="middle" x="1196" y="-63.5" font-family="Helvetica,sans-Serif" font-size="10.00">OgreStdHeaders.h</text>
</a>
</g>
</g>
<!-- Node3&#45;&gt;Node7 -->
<g id="edge6" class="edge"><title>Node3&#45;&gt;Node7</title>
<path fill="none" stroke="midnightblue" d="M892.62,-113.148C957.462,-103.285 1068.48,-86.3974 1136.73,-76.0158"/>
<polygon fill="midnightblue" stroke="midnightblue" points="1137.53,-79.4344 1146.89,-74.4702 1136.48,-72.514 1137.53,-79.4344"/>
</g>
<!-- Node34 -->
<g id="node34" class="node"><title>Node34</title>
<g id="a_node34"><a xlink:href="_ogre_memory_allocator_config_8h.html" target="_top" xlink:title="This file configures Ogre&#39;s memory allocators. ">
<polygon fill="none" stroke="red" points="555,-56.5 555,-75.5 703,-75.5 703,-56.5 555,-56.5"/>
<text text-anchor="middle" x="629" y="-63.5" font-family="Helvetica,sans-Serif" font-size="10.00">OgreMemoryAllocatorConfig.h</text>
</a>
</g>
</g>
<!-- Node3&#45;&gt;Node34 -->
<g id="edge34" class="edge"><title>Node3&#45;&gt;Node34</title>
<path fill="none" stroke="midnightblue" d="M807.408,-112.444C770.813,-103.122 712.162,-88.1828 672.174,-77.9972"/>
<polygon fill="midnightblue" stroke="midnightblue" points="672.989,-74.5932 662.435,-75.5164 671.261,-81.3766 672.989,-74.5932"/>
</g>
<!-- Node5 -->
<g id="node5" class="node"><title>Node5</title>
<g id="a_node5"><a xlink:href="_ogre_config_8h.html" target="_top" xlink:title="OgreConfig.h">
<polygon fill="none" stroke="red" points="2201,-0.5 2201,-19.5 2275,-19.5 2275,-0.5 2201,-0.5"/>
<text text-anchor="middle" x="2238" y="-7.5" font-family="Helvetica,sans-Serif" font-size="10.00">OgreConfig.h</text>
</a>
</g>
</g>
<!-- Node4&#45;&gt;Node5 -->
<g id="edge4" class="edge"><title>Node4&#45;&gt;Node5</title>
<path fill="none" stroke="midnightblue" d="M2068.85,-56.4435C2103.4,-47.1616 2158.68,-32.3093 2196.58,-22.127"/>
<polygon fill="midnightblue" stroke="midnightblue" points="2197.55,-25.4912 2206.3,-19.5164 2195.73,-18.7309 2197.55,-25.4912"/>
</g>
<!-- Node7&#45;&gt;Node6 -->
<g id="edge16" class="edge"><title>Node7&#45;&gt;Node6</title>
<path fill="none" stroke="midnightblue" d="M1245.08,-64.2788C1409.5,-61.6115 1940.75,-50.8977 2131.35,-19.8183"/>
<polygon fill="midnightblue" stroke="midnightblue" points="2131.98,-23.2615 2141.25,-18.1304 2130.8,-16.3611 2131.98,-23.2615"/>
</g>
<!-- Node8 -->
<g id="node8" class="node"><title>Node8</title>
<polygon fill="none" stroke="#bfbfbf" points="1759.5,-0.5 1759.5,-19.5 1808.5,-19.5 1808.5,-0.5 1759.5,-0.5"/>
<text text-anchor="middle" x="1784" y="-7.5" font-family="Helvetica,sans-Serif" font-size="10.00">cassert</text>
</g>
<!-- Node7&#45;&gt;Node8 -->
<g id="edge7" class="edge"><title>Node7&#45;&gt;Node8</title>
<path fill="none" stroke="midnightblue" d="M1245.01,-64.0693C1340.56,-61.5978 1558.43,-52.7413 1749.31,-20.0093"/>
<polygon fill="midnightblue" stroke="midnightblue" points="1749.99,-23.4437 1759.25,-18.2803 1748.79,-16.5474 1749.99,-23.4437"/>
</g>
<!-- Node9 -->
<g id="node9" class="node"><title>Node9</title>
<polygon fill="none" stroke="#bfbfbf" points="1826.5,-0.5 1826.5,-19.5 1869.5,-19.5 1869.5,-0.5 1826.5,-0.5"/>
<text text-anchor="middle" x="1848" y="-7.5" font-family="Helvetica,sans-Serif" font-size="10.00">cstdio</text>
</g>
<!-- Node7&#45;&gt;Node9 -->
<g id="edge8" class="edge"><title>Node7&#45;&gt;Node9</title>
<path fill="none" stroke="midnightblue" d="M1245.25,-65.0845C1349.43,-64.4802 1599.7,-58.8907 1816.22,-19.9674"/>
<polygon fill="midnightblue" stroke="midnightblue" points="1816.97,-23.3884 1826.18,-18.149 1815.71,-16.5023 1816.97,-23.3884"/>
</g>
<!-- Node10 -->
<g id="node10" class="node"><title>Node10</title>
<polygon fill="none" stroke="#bfbfbf" points="1887.5,-0.5 1887.5,-19.5 1932.5,-19.5 1932.5,-0.5 1887.5,-0.5"/>
<text text-anchor="middle" x="1910" y="-7.5" font-family="Helvetica,sans-Serif" font-size="10.00">cstdlib</text>
</g>
<!-- Node7&#45;&gt;Node10 -->
<g id="edge9" class="edge"><title>Node7&#45;&gt;Node10</title>
<path fill="none" stroke="midnightblue" d="M1245.3,-65.3938C1356.75,-65.5045 1636.55,-61.4036 1877.45,-19.9081"/>
<polygon fill="midnightblue" stroke="midnightblue" points="1878.2,-23.3307 1887.45,-18.1609 1876.99,-16.4353 1878.2,-23.3307"/>
</g>
<!-- Node11 -->
<g id="node11" class="node"><title>Node11</title>
<polygon fill="none" stroke="#bfbfbf" points="1950.5,-0.5 1950.5,-19.5 1991.5,-19.5 1991.5,-0.5 1950.5,-0.5"/>
<text text-anchor="middle" x="1971" y="-7.5" font-family="Helvetica,sans-Serif" font-size="10.00">ctime</text>
</g>
<!-- Node7&#45;&gt;Node11 -->
<g id="edge10" class="edge"><title>Node7&#45;&gt;Node11</title>
<path fill="none" stroke="midnightblue" d="M1245.08,-63.5808C1385.64,-59.2776 1788.83,-45.2079 1940.21,-19.8638"/>
<polygon fill="midnightblue" stroke="midnightblue" points="1941,-23.2791 1950.24,-18.0989 1939.79,-16.385 1941,-23.2791"/>
</g>
<!-- Node12 -->
<g id="node12" class="node"><title>Node12</title>
<polygon fill="none" stroke="#bfbfbf" points="2010,-0.5 2010,-19.5 2056,-19.5 2056,-0.5 2010,-0.5"/>
<text text-anchor="middle" x="2033" y="-7.5" font-family="Helvetica,sans-Serif" font-size="10.00">cstring</text>
</g>
<!-- Node7&#45;&gt;Node12 -->
<g id="edge11" class="edge"><title>Node7&#45;&gt;Node12</title>
<path fill="none" stroke="midnightblue" d="M1245.12,-63.6597C1393.37,-59.3976 1835.65,-45.0348 1999.78,-19.7838"/>
<polygon fill="midnightblue" stroke="midnightblue" points="2000.4,-23.2288 2009.71,-18.1834 1999.29,-16.3179 2000.4,-23.2288"/>
</g>
<!-- Node13 -->
<g id="node13" class="node"><title>Node13</title>
<polygon fill="none" stroke="#bfbfbf" points="2074.5,-0.5 2074.5,-19.5 2123.5,-19.5 2123.5,-0.5 2074.5,-0.5"/>
<text text-anchor="middle" x="2099" y="-7.5" font-family="Helvetica,sans-Serif" font-size="10.00">cstdarg</text>
</g>
<!-- Node7&#45;&gt;Node13 -->
<g id="edge12" class="edge"><title>Node7&#45;&gt;Node13</title>
<path fill="none" stroke="midnightblue" d="M1245.04,-63.7965C1401.15,-59.7598 1886.16,-45.579 2064.23,-19.707"/>
<polygon fill="midnightblue" stroke="midnightblue" points="2064.88,-23.1475 2074.24,-18.1871 2063.83,-16.2267 2064.88,-23.1475"/>
</g>
<!-- Node14 -->
<g id="node14" class="node"><title>Node14</title>
<polygon fill="none" stroke="#bfbfbf" points="407,-0.5 407,-19.5 451,-19.5 451,-0.5 407,-0.5"/>
<text text-anchor="middle" x="429" y="-7.5" font-family="Helvetica,sans-Serif" font-size="10.00">cmath</text>
</g>
<!-- Node7&#45;&gt;Node14 -->
<g id="edge13" class="edge"><title>Node7&#45;&gt;Node14</title>
<path fill="none" stroke="midnightblue" d="M1146.91,-65.7288C1029.55,-66.6748 723.63,-64.433 461.31,-19.8294"/>
<polygon fill="midnightblue" stroke="midnightblue" points="461.662,-16.3386 451.213,-18.0877 460.472,-23.2367 461.662,-16.3386"/>
</g>
<!-- Node15 -->
<g id="node15" class="node"><title>Node15</title>
<polygon fill="none" stroke="#bfbfbf" points="469,-0.5 469,-19.5 513,-19.5 513,-0.5 469,-0.5"/>
<text text-anchor="middle" x="491" y="-7.5" font-family="Helvetica,sans-Serif" font-size="10.00">vector</text>
</g>
<!-- Node7&#45;&gt;Node15 -->
<g id="edge14" class="edge"><title>Node7&#45;&gt;Node15</title>
<path fill="none" stroke="midnightblue" d="M1146.93,-65.3317C1036.66,-65.3043 760.946,-60.9203 523.084,-19.8035"/>
<polygon fill="midnightblue" stroke="midnightblue" points="523.67,-16.3528 513.215,-18.0724 522.46,-23.2475 523.67,-16.3528"/>
</g>
<!-- Node16 -->
<g id="node16" class="node"><title>Node16</title>
<polygon fill="none" stroke="#bfbfbf" points="531.5,-0.5 531.5,-19.5 566.5,-19.5 566.5,-0.5 531.5,-0.5"/>
<text text-anchor="middle" x="549" y="-7.5" font-family="Helvetica,sans-Serif" font-size="10.00">map</text>
</g>
<!-- Node7&#45;&gt;Node16 -->
<g id="edge15" class="edge"><title>Node7&#45;&gt;Node16</title>
<path fill="none" stroke="midnightblue" d="M1146.81,-65.5621C1042.79,-65.8657 792.996,-61.9153 576.506,-19.5304"/>
<polygon fill="midnightblue" stroke="midnightblue" points="577.039,-16.0679 566.548,-17.5487 575.673,-22.9333 577.039,-16.0679"/>
</g>
<!-- Node17 -->
<g id="node17" class="node"><title>Node17</title>
<polygon fill="none" stroke="#bfbfbf" points="585,-0.5 585,-19.5 615,-19.5 615,-0.5 585,-0.5"/>
<text text-anchor="middle" x="600" y="-7.5" font-family="Helvetica,sans-Serif" font-size="10.00">set</text>
</g>
<!-- Node7&#45;&gt;Node17 -->
<g id="edge17" class="edge"><title>Node7&#45;&gt;Node17</title>
<path fill="none" stroke="midnightblue" d="M1146.73,-65.7273C1048.5,-66.1907 821.562,-62.318 624.97,-19.5689"/>
<polygon fill="midnightblue" stroke="midnightblue" points="625.56,-16.1149 615.04,-17.3704 624.047,-22.9494 625.56,-16.1149"/>
</g>
<!-- Node18 -->
<g id="node18" class="node"><title>Node18</title>
<polygon fill="none" stroke="#bfbfbf" points="633.5,-0.5 633.5,-19.5 662.5,-19.5 662.5,-0.5 633.5,-0.5"/>
<text text-anchor="middle" x="648" y="-7.5" font-family="Helvetica,sans-Serif" font-size="10.00">list</text>
</g>
<!-- Node7&#45;&gt;Node18 -->
<g id="edge18" class="edge"><title>Node7&#45;&gt;Node18</title>
<path fill="none" stroke="midnightblue" d="M1146.77,-65.4539C1054.62,-65.2997 850.058,-60.2065 672.66,-19.8073"/>
<polygon fill="midnightblue" stroke="midnightblue" points="673.429,-16.3929 662.896,-17.5414 671.846,-23.2117 673.429,-16.3929"/>
</g>
<!-- Node19 -->
<g id="node19" class="node"><title>Node19</title>
<polygon fill="none" stroke="#bfbfbf" points="680.5,-0.5 680.5,-19.5 723.5,-19.5 723.5,-0.5 680.5,-0.5"/>
<text text-anchor="middle" x="702" y="-7.5" font-family="Helvetica,sans-Serif" font-size="10.00">deque</text>
</g>
<!-- Node7&#45;&gt;Node19 -->
<g id="edge19" class="edge"><title>Node7&#45;&gt;Node19</title>
<path fill="none" stroke="midnightblue" d="M1146.78,-63.3727C1063.38,-59.9331 889,-49.792 733.704,-19.9896"/>
<polygon fill="midnightblue" stroke="midnightblue" points="733.989,-16.4793 723.504,-17.998 732.648,-23.3495 733.989,-16.4793"/>
</g>
<!-- Node20 -->
<g id="node20" class="node"><title>Node20</title>
<polygon fill="none" stroke="#bfbfbf" points="741.5,-0.5 741.5,-19.5 784.5,-19.5 784.5,-0.5 741.5,-0.5"/>
<text text-anchor="middle" x="763" y="-7.5" font-family="Helvetica,sans-Serif" font-size="10.00">queue</text>
</g>
<!-- Node7&#45;&gt;Node20 -->
<g id="edge20" class="edge"><title>Node7&#45;&gt;Node20</title>
<path fill="none" stroke="midnightblue" d="M1146.86,-62.3748C1072.37,-57.7705 926.408,-46.3057 794.395,-19.9653"/>
<polygon fill="midnightblue" stroke="midnightblue" points="795.008,-16.5184 784.512,-17.9597 793.616,-23.3786 795.008,-16.5184"/>
</g>
<!-- Node21 -->
<g id="node21" class="node"><title>Node21</title>
<polygon fill="none" stroke="#bfbfbf" points="802.5,-0.5 802.5,-19.5 843.5,-19.5 843.5,-0.5 802.5,-0.5"/>
<text text-anchor="middle" x="823" y="-7.5" font-family="Helvetica,sans-Serif" font-size="10.00">bitset</text>
</g>
<!-- Node7&#45;&gt;Node21 -->
<g id="edge21" class="edge"><title>Node7&#45;&gt;Node21</title>
<path fill="none" stroke="midnightblue" d="M1146.73,-61.0474C1081.68,-55.2772 963.54,-42.8874 853.485,-19.7616"/>
<polygon fill="midnightblue" stroke="midnightblue" points="854.054,-16.3044 843.544,-17.6383 852.592,-23.15 854.054,-16.3044"/>
</g>
<!-- Node22 -->
<g id="node22" class="node"><title>Node22</title>
<polygon fill="none" stroke="#bfbfbf" points="862,-0.5 862,-19.5 918,-19.5 918,-0.5 862,-0.5"/>
<text text-anchor="middle" x="890" y="-7.5" font-family="Helvetica,sans-Serif" font-size="10.00">algorithm</text>
</g>
<!-- Node7&#45;&gt;Node22 -->
<g id="edge22" class="edge"><title>Node7&#45;&gt;Node22</title>
<path fill="none" stroke="midnightblue" d="M1146.71,-57.8576C1094.73,-50.0779 1010.23,-36.735 928.22,-20.1327"/>
<polygon fill="midnightblue" stroke="midnightblue" points="928.732,-16.6651 918.234,-18.0921 927.331,-23.5234 928.732,-16.6651"/>
</g>
<!-- Node23 -->
<g id="node23" class="node"><title>Node23</title>
<polygon fill="none" stroke="#bfbfbf" points="936.5,-0.5 936.5,-19.5 995.5,-19.5 995.5,-0.5 936.5,-0.5"/>
<text text-anchor="middle" x="966" y="-7.5" font-family="Helvetica,sans-Serif" font-size="10.00">functional</text>
</g>
<!-- Node7&#45;&gt;Node23 -->
<g id="edge23" class="edge"><title>Node7&#45;&gt;Node23</title>
<path fill="none" stroke="midnightblue" d="M1159.56,-56.4435C1117.57,-46.587 1048.84,-30.4491 1005.58,-20.2922"/>
<polygon fill="midnightblue" stroke="midnightblue" points="1006.23,-16.8494 995.691,-17.971 1004.63,-23.6641 1006.23,-16.8494"/>
</g>
<!-- Node24 -->
<g id="node24" class="node"><title>Node24</title>
<polygon fill="none" stroke="#bfbfbf" points="1014,-0.5 1014,-19.5 1054,-19.5 1054,-0.5 1014,-0.5"/>
<text text-anchor="middle" x="1034" y="-7.5" font-family="Helvetica,sans-Serif" font-size="10.00">limits</text>
</g>
<!-- Node7&#45;&gt;Node24 -->
<g id="edge24" class="edge"><title>Node7&#45;&gt;Node24</title>
<path fill="none" stroke="midnightblue" d="M1170.33,-56.4435C1141.47,-46.8247 1094.67,-31.2238 1064.11,-21.0372"/>
<polygon fill="midnightblue" stroke="midnightblue" points="1065.01,-17.6486 1054.42,-17.8067 1062.8,-24.2894 1065.01,-17.6486"/>
</g>
<!-- Node25 -->
<g id="node25" class="node"><title>Node25</title>
<polygon fill="none" stroke="#bfbfbf" points="1072,-0.5 1072,-19.5 1122,-19.5 1122,-0.5 1072,-0.5"/>
<text text-anchor="middle" x="1097" y="-7.5" font-family="Helvetica,sans-Serif" font-size="10.00">fstream</text>
</g>
<!-- Node7&#45;&gt;Node25 -->
<g id="edge25" class="edge"><title>Node7&#45;&gt;Node25</title>
<path fill="none" stroke="midnightblue" d="M1180.09,-56.324C1164.36,-47.7428 1140.06,-34.486 1121.79,-24.5224"/>
<polygon fill="midnightblue" stroke="midnightblue" points="1123.32,-21.3704 1112.87,-19.6545 1119.97,-27.5157 1123.32,-21.3704"/>
</g>
<!-- Node26 -->
<g id="node26" class="node"><title>Node26</title>
<polygon fill="none" stroke="#bfbfbf" points="1140.5,-0.5 1140.5,-19.5 1185.5,-19.5 1185.5,-0.5 1140.5,-0.5"/>
<text text-anchor="middle" x="1163" y="-7.5" font-family="Helvetica,sans-Serif" font-size="10.00">iosfwd</text>
</g>
<!-- Node7&#45;&gt;Node26 -->
<g id="edge26" class="edge"><title>Node7&#45;&gt;Node26</title>
<path fill="none" stroke="midnightblue" d="M1190.55,-56.083C1185.99,-48.6127 1179.33,-37.7244 1173.71,-28.5199"/>
<polygon fill="midnightblue" stroke="midnightblue" points="1176.55,-26.4588 1168.35,-19.7511 1170.58,-30.109 1176.55,-26.4588"/>
</g>
<!-- Node27 -->
<g id="node27" class="node"><title>Node27</title>
<polygon fill="none" stroke="#bfbfbf" points="1204,-0.5 1204,-19.5 1256,-19.5 1256,-0.5 1204,-0.5"/>
<text text-anchor="middle" x="1230" y="-7.5" font-family="Helvetica,sans-Serif" font-size="10.00">sstream</text>
</g>
<!-- Node7&#45;&gt;Node27 -->
<g id="edge27" class="edge"><title>Node7&#45;&gt;Node27</title>
<path fill="none" stroke="midnightblue" d="M1201.61,-56.083C1206.37,-48.5341 1213.32,-37.4948 1219.15,-28.2298"/>
<polygon fill="midnightblue" stroke="midnightblue" points="1222.12,-30.0783 1224.49,-19.7511 1216.2,-26.3486 1222.12,-30.0783"/>
</g>
<!-- Node28 -->
<g id="node28" class="node"><title>Node28</title>
<polygon fill="none" stroke="#bfbfbf" points="1274,-0.5 1274,-19.5 1342,-19.5 1342,-0.5 1274,-0.5"/>
<text text-anchor="middle" x="1308" y="-7.5" font-family="Helvetica,sans-Serif" font-size="10.00">sys/types.h</text>
</g>
<!-- Node7&#45;&gt;Node28 -->
<g id="edge28" class="edge"><title>Node7&#45;&gt;Node28</title>
<path fill="none" stroke="midnightblue" d="M1213.99,-56.324C1232.04,-47.6247 1260.05,-34.1202 1280.8,-24.113"/>
<polygon fill="midnightblue" stroke="midnightblue" points="1282.56,-27.1502 1290.05,-19.6545 1279.52,-20.8449 1282.56,-27.1502"/>
</g>
<!-- Node29 -->
<g id="node29" class="node"><title>Node29</title>
<polygon fill="none" stroke="#bfbfbf" points="1360,-0.5 1360,-19.5 1420,-19.5 1420,-0.5 1360,-0.5"/>
<text text-anchor="middle" x="1390" y="-7.5" font-family="Helvetica,sans-Serif" font-size="10.00">sys/stat.h</text>
</g>
<!-- Node7&#45;&gt;Node29 -->
<g id="edge29" class="edge"><title>Node7&#45;&gt;Node29</title>
<path fill="none" stroke="midnightblue" d="M1226.74,-56.4435C1260.04,-47.1739 1313.3,-32.3487 1349.88,-22.1675"/>
<polygon fill="midnightblue" stroke="midnightblue" points="1351.03,-25.481 1359.72,-19.4275 1349.15,-18.7374 1351.03,-25.481"/>
</g>
<!-- Node30 -->
<g id="node30" class="node"><title>Node30</title>
<polygon fill="none" stroke="#bfbfbf" points="1438.5,-0.5 1438.5,-19.5 1489.5,-19.5 1489.5,-0.5 1438.5,-0.5"/>
<text text-anchor="middle" x="1464" y="-7.5" font-family="Helvetica,sans-Serif" font-size="10.00">unistd.h</text>
</g>
<!-- Node7&#45;&gt;Node30 -->
<g id="edge30" class="edge"><title>Node7&#45;&gt;Node30</title>
<path fill="none" stroke="midnightblue" d="M1244.82,-56.4646C1289.97,-48.371 1359.13,-35.4637 1428.62,-19.9701"/>
<polygon fill="midnightblue" stroke="midnightblue" points="1429.44,-23.3741 1438.43,-17.7669 1427.91,-16.5444 1429.44,-23.3741"/>
</g>
<!-- Node31 -->
<g id="node31" class="node"><title>Node31</title>
<polygon fill="none" stroke="#bfbfbf" points="1508,-0.5 1508,-19.5 1554,-19.5 1554,-0.5 1508,-0.5"/>
<text text-anchor="middle" x="1531" y="-7.5" font-family="Helvetica,sans-Serif" font-size="10.00">dlfcn.h</text>
</g>
<!-- Node7&#45;&gt;Node31 -->
<g id="edge31" class="edge"><title>Node7&#45;&gt;Node31</title>
<path fill="none" stroke="midnightblue" d="M1245.15,-59.6433C1303.31,-52.8739 1403.21,-39.8991 1497.66,-20.063"/>
<polygon fill="midnightblue" stroke="midnightblue" points="1498.62,-23.4384 1507.67,-17.9312 1497.16,-16.5921 1498.62,-23.4384"/>
</g>
<!-- Node32 -->
<g id="node32" class="node"><title>Node32</title>
<polygon fill="none" stroke="#bfbfbf" points="1572,-0.5 1572,-19.5 1650,-19.5 1650,-0.5 1572,-0.5"/>
<text text-anchor="middle" x="1611" y="-7.5" font-family="Helvetica,sans-Serif" font-size="10.00">ext/hash_map</text>
</g>
<!-- Node7&#45;&gt;Node32 -->
<g id="edge32" class="edge"><title>Node7&#45;&gt;Node32</title>
<path fill="none" stroke="midnightblue" d="M1245.11,-59.9782C1313.71,-52.7431 1442.33,-38.3776 1561.7,-20.1194"/>
<polygon fill="midnightblue" stroke="midnightblue" points="1562.39,-23.5538 1571.74,-18.5704 1561.33,-16.6356 1562.39,-23.5538"/>
</g>
<!-- Node33 -->
<g id="node33" class="node"><title>Node33</title>
<polygon fill="none" stroke="#bfbfbf" points="1668.5,-0.5 1668.5,-19.5 1741.5,-19.5 1741.5,-0.5 1668.5,-0.5"/>
<text text-anchor="middle" x="1705" y="-7.5" font-family="Helvetica,sans-Serif" font-size="10.00">ext/hash_set</text>
</g>
<!-- Node7&#45;&gt;Node33 -->
<g id="edge33" class="edge"><title>Node7&#45;&gt;Node33</title>
<path fill="none" stroke="midnightblue" d="M1245.19,-61.7834C1328.14,-56.0169 1501.32,-42.5133 1658.09,-19.9883"/>
<polygon fill="midnightblue" stroke="midnightblue" points="1659,-23.3931 1668.4,-18.4916 1658,-16.4658 1659,-23.3931"/>
</g>
<!-- Node35 -->
<g id="node35" class="node"><title>Node35</title>
<g id="a_node35"><a xlink:href="_ogre_header_prefix_8h.html" target="_top" xlink:title="OgreHeaderPrefix.h">
<polygon fill="none" stroke="black" points="285.5,-0.5 285.5,-19.5 388.5,-19.5 388.5,-0.5 285.5,-0.5"/>
<text text-anchor="middle" x="337" y="-7.5" font-family="Helvetica,sans-Serif" font-size="10.00">OgreHeaderPrefix.h</text>
</a>
</g>
</g>
<!-- Node34&#45;&gt;Node35 -->
<g id="edge35" class="edge"><title>Node34&#45;&gt;Node35</title>
<path fill="none" stroke="midnightblue" d="M582.732,-56.4435C531.259,-46.9246 448.107,-31.5472 393.001,-21.3563"/>
<polygon fill="midnightblue" stroke="midnightblue" points="393.522,-17.8933 383.052,-19.5164 392.249,-24.7766 393.522,-17.8933"/>
</g>
<!-- Node36 -->
<g id="node36" class="node"><title>Node36</title>
<g id="a_node36"><a xlink:href="_ogre_header_suffix_8h.html" target="_top" xlink:title="OgreHeaderSuffix.h">
<polygon fill="none" stroke="black" points="138.5,-0.5 138.5,-19.5 241.5,-19.5 241.5,-0.5 138.5,-0.5"/>
<text text-anchor="middle" x="190" y="-7.5" font-family="Helvetica,sans-Serif" font-size="10.00">OgreHeaderSuffix.h</text>
</a>
</g>
</g>
<!-- Node34&#45;&gt;Node36 -->
<g id="edge36" class="edge"><title>Node34&#45;&gt;Node36</title>
<path fill="none" stroke="midnightblue" d="M559.439,-56.4435C474.697,-46.0196 332.84,-28.5703 251.784,-18.5999"/>
<polygon fill="midnightblue" stroke="midnightblue" points="252.079,-15.1099 241.727,-17.3627 251.225,-22.0575 252.079,-15.1099"/>
</g>
<!-- Node37&#45;&gt;Node3 -->
<g id="edge38" class="edge"><title>Node37&#45;&gt;Node3</title>
<path fill="none" stroke="midnightblue" d="M429.5,-225.246C508.433,-212.853 654.546,-189.787 660,-188 678.511,-181.935 680.986,-175.413 699,-168 731.945,-154.443 770.553,-142.446 799.188,-134.256"/>
<polygon fill="midnightblue" stroke="midnightblue" points="800.203,-137.606 808.876,-131.521 798.301,-130.87 800.203,-137.606"/>
</g>
<!-- Node37&#45;&gt;Node35 -->
<g id="edge48" class="edge"><title>Node37&#45;&gt;Node35</title>
<path fill="none" stroke="midnightblue" d="M383.156,-224.337C390.01,-204.258 404.8,-153.111 394,-112 385.515,-79.7011 364.098,-46.8587 350.068,-27.7348"/>
<polygon fill="midnightblue" stroke="midnightblue" points="352.68,-25.3856 343.863,-19.5112 347.093,-29.6019 352.68,-25.3856"/>
</g>
<!-- Node37&#45;&gt;Node36 -->
<g id="edge49" class="edge"><title>Node37&#45;&gt;Node36</title>
<path fill="none" stroke="midnightblue" d="M330.314,-224.911C258.077,-213.035 132.236,-191.868 129,-188 110.545,-165.942 72.2446,-211.776 149,-56 154.452,-44.9359 163.453,-34.6076 171.635,-26.6435"/>
<polygon fill="midnightblue" stroke="midnightblue" points="174.099,-29.133 179.086,-19.7855 169.358,-23.9826 174.099,-29.133"/>
</g>
<!-- Node38 -->
<g id="node38" class="node"><title>Node38</title>
<g id="a_node38"><a xlink:href="_ogre_log_8h.html" target="_top" xlink:title="OgreLog.h">
<polygon fill="none" stroke="red" points="252,-168.5 252,-187.5 314,-187.5 314,-168.5 252,-168.5"/>
<text text-anchor="middle" x="283" y="-175.5" font-family="Helvetica,sans-Serif" font-size="10.00">OgreLog.h</text>
</a>
</g>
</g>
<!-- Node37&#45;&gt;Node38 -->
<g id="edge39" class="edge"><title>Node37&#45;&gt;Node38</title>
<path fill="none" stroke="midnightblue" d="M364.415,-224.324C349.001,-215.743 325.188,-202.486 307.29,-192.522"/>
<polygon fill="midnightblue" stroke="midnightblue" points="308.986,-189.461 298.546,-187.655 305.581,-195.577 308.986,-189.461"/>
</g>
<!-- Node40 -->
<g id="node40" class="node"><title>Node40</title>
<g id="a_node40"><a xlink:href="_ogre_singleton_8h.html" target="_top" xlink:title="OgreSingleton.h">
<polygon fill="none" stroke="black" points="708,-168.5 708,-187.5 794,-187.5 794,-168.5 708,-168.5"/>
<text text-anchor="middle" x="751" y="-175.5" font-family="Helvetica,sans-Serif" font-size="10.00">OgreSingleton.h</text>
</a>
</g>
</g>
<!-- Node37&#45;&gt;Node40 -->
<g id="edge46" class="edge"><title>Node37&#45;&gt;Node40</title>
<path fill="none" stroke="midnightblue" d="M429.667,-225.245C432.486,-224.82 435.278,-224.403 438,-224 551.661,-207.191 580.361,-204.96 694,-188 695.254,-187.813 696.523,-187.622 697.804,-187.429"/>
<polygon fill="midnightblue" stroke="midnightblue" points="698.396,-190.879 707.752,-185.907 697.338,-183.959 698.396,-190.879"/>
</g>
<!-- Node38&#45;&gt;Node3 -->
<g id="edge40" class="edge"><title>Node38&#45;&gt;Node3</title>
<path fill="none" stroke="midnightblue" d="M314.196,-173.981C403.291,-165.359 660.11,-140.506 779.109,-128.989"/>
<polygon fill="midnightblue" stroke="midnightblue" points="779.539,-132.464 789.156,-128.017 778.865,-125.497 779.539,-132.464"/>
</g>
<!-- Node38&#45;&gt;Node35 -->
<g id="edge44" class="edge"><title>Node38&#45;&gt;Node35</title>
<path fill="none" stroke="midnightblue" d="M283.036,-168.419C283.287,-155.821 284.523,-131.682 290,-112 298.605,-81.0776 315.806,-47.8007 326.841,-28.2178"/>
<polygon fill="midnightblue" stroke="midnightblue" points="329.879,-29.9552 331.835,-19.5424 323.813,-26.4629 329.879,-29.9552"/>
</g>
<!-- Node38&#45;&gt;Node36 -->
<g id="edge45" class="edge"><title>Node38&#45;&gt;Node36</title>
<path fill="none" stroke="midnightblue" d="M278,-168.075C263.234,-141.719 219.624,-63.878 199.894,-28.6608"/>
<polygon fill="midnightblue" stroke="midnightblue" points="202.741,-26.5816 194.8,-19.5681 196.634,-30.003 202.741,-26.5816"/>
</g>
<!-- Node39 -->
<g id="node39" class="node"><title>Node39</title>
<g id="a_node39"><a xlink:href="_ogre_common_8h.html" target="_top" xlink:title="OgreCommon.h">
<polygon fill="none" stroke="black" points="299,-112.5 299,-131.5 385,-131.5 385,-112.5 299,-112.5"/>
<text text-anchor="middle" x="342" y="-119.5" font-family="Helvetica,sans-Serif" font-size="10.00">OgreCommon.h</text>
</a>
</g>
</g>
<!-- Node38&#45;&gt;Node39 -->
<g id="edge41" class="edge"><title>Node38&#45;&gt;Node39</title>
<path fill="none" stroke="midnightblue" d="M292.479,-168.324C301.201,-160.341 314.343,-148.313 324.898,-138.653"/>
<polygon fill="midnightblue" stroke="midnightblue" points="327.334,-141.167 332.348,-131.834 322.608,-136.004 327.334,-141.167"/>
</g>
<!-- Node39&#45;&gt;Node35 -->
<g id="edge42" class="edge"><title>Node39&#45;&gt;Node35</title>
<path fill="none" stroke="midnightblue" d="M341.608,-112.368C340.801,-94.617 338.939,-53.6664 337.845,-29.5974"/>
<polygon fill="midnightblue" stroke="midnightblue" points="341.341,-29.4221 337.391,-19.5914 334.348,-29.7401 341.341,-29.4221"/>
</g>
<!-- Node39&#45;&gt;Node36 -->
<g id="edge43" class="edge"><title>Node39&#45;&gt;Node36</title>
<path fill="none" stroke="midnightblue" d="M330.073,-112.368C304.101,-93.5728 242.189,-48.7684 210.082,-25.5334"/>
<polygon fill="midnightblue" stroke="midnightblue" points="212.025,-22.6187 201.872,-19.5914 207.921,-28.2896 212.025,-22.6187"/>
</g>
<!-- Node40&#45;&gt;Node3 -->
<g id="edge47" class="edge"><title>Node40&#45;&gt;Node3</title>
<path fill="none" stroke="midnightblue" d="M765.46,-168.324C779.5,-159.9 801.048,-146.971 817.543,-137.074"/>
<polygon fill="midnightblue" stroke="midnightblue" points="819.802,-139.801 826.576,-131.655 816.2,-133.798 819.802,-139.801"/>
</g>
<!-- Node41&#45;&gt;Node3 -->
<g id="edge51" class="edge"><title>Node41&#45;&gt;Node3</title>
<path fill="none" stroke="midnightblue" d="M206.267,-172.298C217.911,-170.796 231.009,-169.21 243,-168 438.431,-148.273 670.596,-133.182 779.209,-126.608"/>
<polygon fill="midnightblue" stroke="midnightblue" points="779.557,-130.093 789.329,-125.998 779.136,-123.106 779.557,-130.093"/>
</g>
<!-- Node41&#45;&gt;Node35 -->
<g id="edge52" class="edge"><title>Node41&#45;&gt;Node35</title>
<path fill="none" stroke="midnightblue" d="M180.871,-168.075C207.518,-141.267 287.112,-61.1902 321.211,-26.8851"/>
<polygon fill="midnightblue" stroke="midnightblue" points="323.916,-29.1279 328.484,-19.5681 318.951,-24.1931 323.916,-29.1279"/>
</g>
<!-- Node41&#45;&gt;Node36 -->
<g id="edge53" class="edge"><title>Node41&#45;&gt;Node36</title>
<path fill="none" stroke="midnightblue" d="M168.144,-168.249C164.442,-159.333 159.111,-145.006 157,-132 151.589,-98.6584 146.491,-88.1014 157,-56 160.49,-45.3397 167.573,-35.1174 174.286,-27.1175"/>
<polygon fill="midnightblue" stroke="midnightblue" points="176.904,-29.4395 180.98,-19.66 171.695,-24.7633 176.904,-29.4395"/>
</g>
<!-- Node44&#45;&gt;Node3 -->
<g id="edge57" class="edge"><title>Node44&#45;&gt;Node3</title>
<path fill="none" stroke="midnightblue" d="M617.222,-345.354C716.972,-344.551 896.285,-337.7 947,-300 994.095,-264.991 990.809,-210.168 950,-168 934.461,-151.944 912.36,-141.399 892.116,-134.584"/>
<polygon fill="midnightblue" stroke="midnightblue" points="892.954,-131.179 882.365,-131.531 890.862,-137.859 892.954,-131.179"/>
</g>
<!-- Node44&#45;&gt;Node35 -->
<g id="edge77" class="edge"><title>Node44&#45;&gt;Node35</title>
<path fill="none" stroke="midnightblue" d="M549.028,-336.491C548.663,-297.44 541.662,-133.96 452,-56 433.62,-40.0193 408.907,-29.3603 387.101,-22.4468"/>
<polygon fill="midnightblue" stroke="midnightblue" points="387.903,-19.0337 377.319,-19.5283 385.901,-25.7414 387.903,-19.0337"/>
</g>
<!-- Node44&#45;&gt;Node36 -->
<g id="edge78" class="edge"><title>Node44&#45;&gt;Node36</title>
<path fill="none" stroke="midnightblue" d="M480.855,-345.462C333.828,-344.62 0,-332.025 0,-235 0,-235 0,-235 0,-121 0,-60.5031 73.0362,-32.7383 128.544,-20.3729"/>
<polygon fill="midnightblue" stroke="midnightblue" points="129.27,-23.7967 138.333,-18.3084 127.826,-16.9474 129.27,-23.7967"/>
</g>
<!-- Node45 -->
<g id="node45" class="node"><title>Node45</title>
<g id="a_node45"><a xlink:href="_ogre_hardware_buffer_8h.html" target="_top" xlink:title="OgreHardwareBuffer.h">
<polygon fill="none" stroke="black" points="577,-224.5 577,-243.5 691,-243.5 691,-224.5 577,-224.5"/>
<text text-anchor="middle" x="634" y="-231.5" font-family="Helvetica,sans-Serif" font-size="10.00">OgreHardwareBuffer.h</text>
</a>
</g>
</g>
<!-- Node44&#45;&gt;Node45 -->
<g id="edge58" class="edge"><title>Node44&#45;&gt;Node45</title>
<path fill="none" stroke="midnightblue" d="M555.67,-336.368C569.759,-318.135 602.762,-275.426 621.115,-251.675"/>
<polygon fill="midnightblue" stroke="midnightblue" points="624.016,-253.644 627.361,-243.591 618.477,-249.364 624.016,-253.644"/>
</g>
<!-- Node47 -->
<g id="node47" class="node"><title>Node47</title>
<g id="a_node47"><a xlink:href="_ogre_image_8h.html" target="_top" xlink:title="OgreImage.h">
<polygon fill="none" stroke="black" points="447.5,-224.5 447.5,-243.5 520.5,-243.5 520.5,-224.5 447.5,-224.5"/>
<text text-anchor="middle" x="484" y="-231.5" font-family="Helvetica,sans-Serif" font-size="10.00">OgreImage.h</text>
</a>
</g>
</g>
<!-- Node44&#45;&gt;Node47 -->
<g id="edge64" class="edge"><title>Node44&#45;&gt;Node47</title>
<path fill="none" stroke="midnightblue" d="M543.9,-336.368C533.22,-318.296 508.332,-276.176 494.227,-252.307"/>
<polygon fill="midnightblue" stroke="midnightblue" points="497.177,-250.42 489.077,-243.591 491.151,-253.981 497.177,-250.42"/>
</g>
<!-- Node49 -->
<g id="node49" class="node"><title>Node49</title>
<g id="a_node49"><a xlink:href="_ogre_shared_ptr_8h.html" target="_top" xlink:title="OgreSharedPtr.h">
<polygon fill="none" stroke="black" points="849.5,-280.5 849.5,-299.5 938.5,-299.5 938.5,-280.5 849.5,-280.5"/>
<text text-anchor="middle" x="894" y="-287.5" font-family="Helvetica,sans-Serif" font-size="10.00">OgreSharedPtr.h</text>
</a>
</g>
</g>
<!-- Node44&#45;&gt;Node49 -->
<g id="edge72" class="edge"><title>Node44&#45;&gt;Node49</title>
<path fill="none" stroke="midnightblue" d="M603.666,-336.444C668.233,-326.338 774.988,-309.628 839.487,-299.532"/>
<polygon fill="midnightblue" stroke="midnightblue" points="840.125,-302.975 849.463,-297.971 839.042,-296.06 840.125,-302.975"/>
</g>
<!-- Node45&#45;&gt;Node3 -->
<g id="edge59" class="edge"><title>Node45&#45;&gt;Node3</title>
<path fill="none" stroke="midnightblue" d="M691.468,-227.753C744.36,-221.639 817.35,-209.516 836,-188 846.763,-175.583 846.926,-156.344 845.051,-142.014"/>
<polygon fill="midnightblue" stroke="midnightblue" points="848.436,-141.05 843.273,-131.798 841.539,-142.25 848.436,-141.05"/>
</g>
<!-- Node46 -->
<g id="node46" class="node"><title>Node46</title>
<g id="a_node46"><a xlink:href="_ogre_exception_8h.html" target="_top" xlink:title="OgreException.h">
<polygon fill="none" stroke="red" points="562.5,-168.5 562.5,-187.5 651.5,-187.5 651.5,-168.5 562.5,-168.5"/>
<text text-anchor="middle" x="607" y="-175.5" font-family="Helvetica,sans-Serif" font-size="10.00">OgreException.h</text>
</a>
</g>
</g>
<!-- Node45&#45;&gt;Node46 -->
<g id="edge60" class="edge"><title>Node45&#45;&gt;Node46</title>
<path fill="none" stroke="midnightblue" d="M629.541,-224.083C625.846,-216.691 620.477,-205.953 615.906,-196.811"/>
<polygon fill="midnightblue" stroke="midnightblue" points="618.978,-195.13 611.376,-187.751 612.717,-198.261 618.978,-195.13"/>
</g>
<!-- Node46&#45;&gt;Node3 -->
<g id="edge61" class="edge"><title>Node46&#45;&gt;Node3</title>
<path fill="none" stroke="midnightblue" d="M644.078,-168.444C684.728,-159.063 750.032,-143.993 794.184,-133.804"/>
<polygon fill="midnightblue" stroke="midnightblue" points="795.139,-137.175 804.095,-131.516 793.565,-130.355 795.139,-137.175"/>
</g>
<!-- Node46&#45;&gt;Node35 -->
<g id="edge62" class="edge"><title>Node46&#45;&gt;Node35</title>
<path fill="none" stroke="midnightblue" d="M624.61,-168.422C663.26,-148.52 749.212,-97.7216 712,-56 667.122,-5.68295 483.222,-27.2065 398.619,-19.8116"/>
<polygon fill="midnightblue" stroke="midnightblue" points="398.886,-16.3202 388.568,-18.7281 398.136,-23.2799 398.886,-16.3202"/>
</g>
<!-- Node46&#45;&gt;Node36 -->
<g id="edge63" class="edge"><title>Node46&#45;&gt;Node36</title>
<path fill="none" stroke="midnightblue" d="M589.111,-168.432C545.438,-147.682 429.648,-93.6696 330,-56 296.501,-43.3367 257.68,-31.0401 229.426,-22.5103"/>
<polygon fill="midnightblue" stroke="midnightblue" points="230.108,-19.0611 219.524,-19.5445 228.1,-25.7667 230.108,-19.0611"/>
</g>
<!-- Node47&#45;&gt;Node3 -->
<g id="edge65" class="edge"><title>Node47&#45;&gt;Node3</title>
<path fill="none" stroke="midnightblue" d="M520.533,-228.709C601.804,-219.047 791.345,-195.82 803,-188 819.247,-177.1 829.485,-156.727 835.187,-141.684"/>
<polygon fill="midnightblue" stroke="midnightblue" points="838.615,-142.478 838.559,-131.884 831.996,-140.201 838.615,-142.478"/>
</g>
<!-- Node47&#45;&gt;Node39 -->
<g id="edge66" class="edge"><title>Node47&#45;&gt;Node39</title>
<path fill="none" stroke="midnightblue" d="M462.814,-224.39C444.799,-216.482 418.78,-203.635 399,-188 381.421,-174.104 364.959,-154.309 354.291,-140.222"/>
<polygon fill="midnightblue" stroke="midnightblue" points="356.913,-137.881 348.163,-131.908 351.278,-142.034 356.913,-137.881"/>
</g>
<!-- Node48 -->
<g id="node48" class="node"><title>Node48</title>
<g id="a_node48"><a xlink:href="_ogre_pixel_format_8h.html" target="_top" xlink:title="OgrePixelFormat.h">
<polygon fill="none" stroke="black" points="408,-168.5 408,-187.5 506,-187.5 506,-168.5 408,-168.5"/>
<text text-anchor="middle" x="457" y="-175.5" font-family="Helvetica,sans-Serif" font-size="10.00">OgrePixelFormat.h</text>
</a>
</g>
</g>
<!-- Node47&#45;&gt;Node48 -->
<g id="edge67" class="edge"><title>Node47&#45;&gt;Node48</title>
<path fill="none" stroke="midnightblue" d="M479.541,-224.083C475.846,-216.691 470.477,-205.953 465.906,-196.811"/>
<polygon fill="midnightblue" stroke="midnightblue" points="468.978,-195.13 461.376,-187.751 462.717,-198.261 468.978,-195.13"/>
</g>
<!-- Node48&#45;&gt;Node3 -->
<g id="edge68" class="edge"><title>Node48&#45;&gt;Node3</title>
<path fill="none" stroke="midnightblue" d="M506.024,-170.106C575.685,-160.31 703.275,-142.368 779.289,-131.678"/>
<polygon fill="midnightblue" stroke="midnightblue" points="779.791,-135.142 789.206,-130.284 778.816,-128.21 779.791,-135.142"/>
</g>
<!-- Node48&#45;&gt;Node35 -->
<g id="edge70" class="edge"><title>Node48&#45;&gt;Node35</title>
<path fill="none" stroke="midnightblue" d="M460.286,-168.388C464.614,-155.751 471.011,-131.563 465,-112 456.166,-83.2485 449.63,-75.8132 427,-56 410.92,-41.9214 389.654,-31.0215 371.831,-23.4776"/>
<polygon fill="midnightblue" stroke="midnightblue" points="372.921,-20.1431 362.339,-19.633 370.293,-26.6311 372.921,-20.1431"/>
</g>
<!-- Node48&#45;&gt;Node36 -->
<g id="edge71" class="edge"><title>Node48&#45;&gt;Node36</title>
<path fill="none" stroke="midnightblue" d="M450.043,-168.072C439.2,-154.6 417.105,-128.859 394,-112 338.732,-71.6721 264.921,-39.6987 222.922,-23.223"/>
<polygon fill="midnightblue" stroke="midnightblue" points="224.05,-19.9065 213.46,-19.563 221.524,-26.4351 224.05,-19.9065"/>
</g>
<!-- Node48&#45;&gt;Node39 -->
<g id="edge69" class="edge"><title>Node48&#45;&gt;Node39</title>
<path fill="none" stroke="midnightblue" d="M438.778,-168.444C420.104,-159.675 390.844,-145.935 369.383,-135.858"/>
<polygon fill="midnightblue" stroke="midnightblue" points="370.676,-132.599 360.137,-131.516 367.701,-138.935 370.676,-132.599"/>
</g>
<!-- Node49&#45;&gt;Node3 -->
<g id="edge73" class="edge"><title>Node49&#45;&gt;Node3</title>
<path fill="none" stroke="midnightblue" d="M913.906,-280.41C928.225,-273.04 946.458,-260.916 955,-244 959.007,-236.065 956.98,-232.666 955,-224 948.845,-197.063 947.262,-187.81 928,-168 913.929,-153.528 894.201,-142.801 877.089,-135.459"/>
<polygon fill="midnightblue" stroke="midnightblue" points="877.96,-132.036 867.378,-131.524 875.331,-138.523 877.96,-132.036"/>
</g>
<!-- Node50 -->
<g id="node50" class="node"><title>Node50</title>
<g id="a_node50"><a xlink:href="_ogre_atomic_scalar_8h.html" target="_top" xlink:title="OgreAtomicScalar.h">
<polygon fill="none" stroke="red" points="842,-224.5 842,-243.5 946,-243.5 946,-224.5 842,-224.5"/>
<text text-anchor="middle" x="894" y="-231.5" font-family="Helvetica,sans-Serif" font-size="10.00">OgreAtomicScalar.h</text>
</a>
</g>
</g>
<!-- Node49&#45;&gt;Node50 -->
<g id="edge74" class="edge"><title>Node49&#45;&gt;Node50</title>
<path fill="none" stroke="midnightblue" d="M894,-280.083C894,-273.006 894,-262.861 894,-253.986"/>
<polygon fill="midnightblue" stroke="midnightblue" points="897.5,-253.751 894,-243.751 890.5,-253.751 897.5,-253.751"/>
</g>
<!-- Node50&#45;&gt;Node3 -->
<g id="edge75" class="edge"><title>Node50&#45;&gt;Node3</title>
<path fill="none" stroke="midnightblue" d="M900.503,-224.098C909.133,-211.1 922.159,-186.467 912,-168 904.113,-153.663 889.514,-143.253 875.597,-136.079"/>
<polygon fill="midnightblue" stroke="midnightblue" points="876.698,-132.728 866.161,-131.622 873.708,-139.058 876.698,-132.728"/>
</g>
<!-- Node50&#45;&gt;Node46 -->
<g id="edge76" class="edge"><title>Node50&#45;&gt;Node46</title>
<path fill="none" stroke="midnightblue" d="M848.524,-224.444C797.889,-214.916 716.064,-199.521 661.902,-189.33"/>
<polygon fill="midnightblue" stroke="midnightblue" points="662.266,-185.837 651.791,-187.428 660.971,-192.716 662.266,-185.837"/>
</g>
</g>
</svg>
