<?xml version="1.0" encoding="UTF-8" standalone="no"?>
<!DOCTYPE svg PUBLIC "-//W3C//DTD SVG 1.1//EN"
 "http://www.w3.org/Graphics/SVG/1.1/DTD/svg11.dtd">
<!-- Generated by graphviz version 2.38.0 (20140413.2041)
 -->
<!-- Title: OgreGLXContext.h Pages: 1 -->
<svg width="588pt" height="420pt"
 viewBox="0.00 0.00 587.50 420.00" xmlns="http://www.w3.org/2000/svg" xmlns:xlink="http://www.w3.org/1999/xlink">
<g id="graph0" class="graph" transform="scale(1 1) rotate(0) translate(4 416)">
<title>OgreGLXContext.h</title>
<!-- Node1 -->
<g id="node1" class="node"><title>Node1</title>
<polygon fill="#bfbfbf" stroke="black" points="284.5,-392.5 284.5,-411.5 384.5,-411.5 384.5,-392.5 284.5,-392.5"/>
<text text-anchor="middle" x="334.5" y="-399.5" font-family="Helvetica,sans-Serif" font-size="10.00">OgreGLXContext.h</text>
</g>
<!-- Node2 -->
<g id="node2" class="node"><title>Node2</title>
<g id="a_node2"><a xlink:href="_ogre_g_l_context_8h.html" target="_top" xlink:title="OgreGLContext.h">
<polygon fill="none" stroke="black" points="358,-336.5 358,-355.5 451,-355.5 451,-336.5 358,-336.5"/>
<text text-anchor="middle" x="404.5" y="-343.5" font-family="Helvetica,sans-Serif" font-size="10.00">OgreGLContext.h</text>
</a>
</g>
</g>
<!-- Node1&#45;&gt;Node2 -->
<g id="edge1" class="edge"><title>Node1&#45;&gt;Node2</title>
<path fill="none" stroke="midnightblue" d="M345.747,-392.324C356.297,-384.185 372.301,-371.839 384.942,-362.087"/>
<polygon fill="midnightblue" stroke="midnightblue" points="387.269,-364.713 393.049,-355.834 382.993,-359.171 387.269,-364.713"/>
</g>
<!-- Node11 -->
<g id="node11" class="node"><title>Node11</title>
<g id="a_node11"><a xlink:href="_ogre_g_l_x_g_l_support_8h.html" target="_top" xlink:title="OgreGLXGLSupport.h">
<polygon fill="none" stroke="black" points="208.5,-336.5 208.5,-355.5 320.5,-355.5 320.5,-336.5 208.5,-336.5"/>
<text text-anchor="middle" x="264.5" y="-343.5" font-family="Helvetica,sans-Serif" font-size="10.00">OgreGLXGLSupport.h</text>
</a>
</g>
</g>
<!-- Node1&#45;&gt;Node11 -->
<g id="edge11" class="edge"><title>Node1&#45;&gt;Node11</title>
<path fill="none" stroke="midnightblue" d="M323.253,-392.324C312.703,-384.185 296.699,-371.839 284.058,-362.087"/>
<polygon fill="midnightblue" stroke="midnightblue" points="286.007,-359.171 275.951,-355.834 281.731,-364.713 286.007,-359.171"/>
</g>
<!-- Node3 -->
<g id="node3" class="node"><title>Node3</title>
<g id="a_node3"><a xlink:href="_ogre_g_l_support_prerequisites_8h.html" target="_top" xlink:title="OgreGLSupportPrerequisites.h">
<polygon fill="none" stroke="black" points="337,-224.5 337,-243.5 486,-243.5 486,-224.5 337,-224.5"/>
<text text-anchor="middle" x="411.5" y="-231.5" font-family="Helvetica,sans-Serif" font-size="10.00">OgreGLSupportPrerequisites.h</text>
</a>
</g>
</g>
<!-- Node2&#45;&gt;Node3 -->
<g id="edge2" class="edge"><title>Node2&#45;&gt;Node3</title>
<path fill="none" stroke="midnightblue" d="M405.049,-336.368C406.179,-318.617 408.785,-277.666 410.317,-253.597"/>
<polygon fill="midnightblue" stroke="midnightblue" points="413.811,-253.794 410.953,-243.591 406.825,-253.349 413.811,-253.794"/>
</g>
<!-- Node4 -->
<g id="node4" class="node"><title>Node4</title>
<g id="a_node4"><a xlink:href="_ogre_prerequisites_8h.html" target="_top" xlink:title="OgrePrerequisites.h">
<polygon fill="none" stroke="black" points="298,-112.5 298,-131.5 401,-131.5 401,-112.5 298,-112.5"/>
<text text-anchor="middle" x="349.5" y="-119.5" font-family="Helvetica,sans-Serif" font-size="10.00">OgrePrerequisites.h</text>
</a>
</g>
</g>
<!-- Node3&#45;&gt;Node4 -->
<g id="edge3" class="edge"><title>Node3&#45;&gt;Node4</title>
<path fill="none" stroke="midnightblue" d="M406.635,-224.368C396.448,-206.296 372.709,-164.176 359.255,-140.307"/>
<polygon fill="midnightblue" stroke="midnightblue" points="362.302,-138.584 354.342,-131.591 356.204,-142.022 362.302,-138.584"/>
</g>
<!-- Node5 -->
<g id="node5" class="node"><title>Node5</title>
<g id="a_node5"><a xlink:href="_ogre_platform_8h.html" target="_top" xlink:title="OgrePlatform.h">
<polygon fill="none" stroke="red" points="380,-56.5 380,-75.5 463,-75.5 463,-56.5 380,-56.5"/>
<text text-anchor="middle" x="421.5" y="-63.5" font-family="Helvetica,sans-Serif" font-size="10.00">OgrePlatform.h</text>
</a>
</g>
</g>
<!-- Node4&#45;&gt;Node5 -->
<g id="edge4" class="edge"><title>Node4&#45;&gt;Node5</title>
<path fill="none" stroke="midnightblue" d="M361.068,-112.324C371.92,-104.185 388.381,-91.8395 401.383,-82.0874"/>
<polygon fill="midnightblue" stroke="midnightblue" points="403.821,-84.6339 409.721,-75.8339 399.621,-79.0339 403.821,-84.6339"/>
</g>
<!-- Node6 -->
<g id="node6" class="node"><title>Node6</title>
<polygon fill="none" stroke="#bfbfbf" points="420,-0.5 420,-19.5 461,-19.5 461,-0.5 420,-0.5"/>
<text text-anchor="middle" x="440.5" y="-7.5" font-family="Helvetica,sans-Serif" font-size="10.00">string</text>
</g>
<!-- Node4&#45;&gt;Node6 -->
<g id="edge5" class="edge"><title>Node4&#45;&gt;Node6</title>
<path fill="none" stroke="midnightblue" d="M350.45,-112.134C352.275,-98.7413 357.336,-73.1039 370.5,-56 380.953,-42.4188 396.749,-31.7617 410.692,-24.2349"/>
<polygon fill="midnightblue" stroke="midnightblue" points="412.63,-27.1763 419.96,-19.5267 409.459,-20.9354 412.63,-27.1763"/>
</g>
<!-- Node7 -->
<g id="node7" class="node"><title>Node7</title>
<g id="a_node7"><a xlink:href="_ogre_std_headers_8h.html" target="_top" xlink:title="OgreStdHeaders.h">
<polygon fill="none" stroke="red" points="481.5,-56.5 481.5,-75.5 579.5,-75.5 579.5,-56.5 481.5,-56.5"/>
<text text-anchor="middle" x="530.5" y="-63.5" font-family="Helvetica,sans-Serif" font-size="10.00">OgreStdHeaders.h</text>
</a>
</g>
</g>
<!-- Node4&#45;&gt;Node7 -->
<g id="edge6" class="edge"><title>Node4&#45;&gt;Node7</title>
<path fill="none" stroke="midnightblue" d="M378.18,-112.444C409.027,-103.241 458.228,-88.5617 492.329,-78.3879"/>
<polygon fill="midnightblue" stroke="midnightblue" points="493.372,-81.7293 501.954,-75.5164 491.371,-75.0215 493.372,-81.7293"/>
</g>
<!-- Node8 -->
<g id="node8" class="node"><title>Node8</title>
<g id="a_node8"><a xlink:href="_ogre_memory_allocator_config_8h.html" target="_top" xlink:title="This file configures Ogre&#39;s memory allocators. ">
<polygon fill="none" stroke="red" points="175.5,-56.5 175.5,-75.5 323.5,-75.5 323.5,-56.5 175.5,-56.5"/>
<text text-anchor="middle" x="249.5" y="-63.5" font-family="Helvetica,sans-Serif" font-size="10.00">OgreMemoryAllocatorConfig.h</text>
</a>
</g>
</g>
<!-- Node4&#45;&gt;Node8 -->
<g id="edge8" class="edge"><title>Node4&#45;&gt;Node8</title>
<path fill="none" stroke="midnightblue" d="M333.433,-112.324C317.542,-103.743 292.993,-90.486 274.542,-80.5224"/>
<polygon fill="midnightblue" stroke="midnightblue" points="275.989,-77.3264 265.527,-75.6545 272.663,-83.4857 275.989,-77.3264"/>
</g>
<!-- Node7&#45;&gt;Node6 -->
<g id="edge7" class="edge"><title>Node7&#45;&gt;Node6</title>
<path fill="none" stroke="midnightblue" d="M516.04,-56.324C502,-47.9002 480.452,-34.9709 463.957,-25.0741"/>
<polygon fill="midnightblue" stroke="midnightblue" points="465.3,-21.7983 454.924,-19.6545 461.698,-27.8007 465.3,-21.7983"/>
</g>
<!-- Node9 -->
<g id="node9" class="node"><title>Node9</title>
<g id="a_node9"><a xlink:href="_ogre_header_prefix_8h.html" target="_top" xlink:title="OgreHeaderPrefix.h">
<polygon fill="none" stroke="black" points="121,-0.5 121,-19.5 224,-19.5 224,-0.5 121,-0.5"/>
<text text-anchor="middle" x="172.5" y="-7.5" font-family="Helvetica,sans-Serif" font-size="10.00">OgreHeaderPrefix.h</text>
</a>
</g>
</g>
<!-- Node8&#45;&gt;Node9 -->
<g id="edge9" class="edge"><title>Node8&#45;&gt;Node9</title>
<path fill="none" stroke="midnightblue" d="M237.129,-56.324C225.342,-48.0577 207.368,-35.4527 193.364,-25.6322"/>
<polygon fill="midnightblue" stroke="midnightblue" points="195.038,-22.5307 184.841,-19.6545 191.018,-28.2619 195.038,-22.5307"/>
</g>
<!-- Node10 -->
<g id="node10" class="node"><title>Node10</title>
<g id="a_node10"><a xlink:href="_ogre_header_suffix_8h.html" target="_top" xlink:title="OgreHeaderSuffix.h">
<polygon fill="none" stroke="black" points="0,-0.5 0,-19.5 103,-19.5 103,-0.5 0,-0.5"/>
<text text-anchor="middle" x="51.5" y="-7.5" font-family="Helvetica,sans-Serif" font-size="10.00">OgreHeaderSuffix.h</text>
</a>
</g>
</g>
<!-- Node8&#45;&gt;Node10 -->
<g id="edge10" class="edge"><title>Node8&#45;&gt;Node10</title>
<path fill="none" stroke="midnightblue" d="M218.126,-56.4435C184.237,-47.2011 130.097,-32.4356 92.7764,-22.2572"/>
<polygon fill="midnightblue" stroke="midnightblue" points="93.2955,-18.771 82.7269,-19.5164 91.4536,-25.5243 93.2955,-18.771"/>
</g>
<!-- Node12 -->
<g id="node12" class="node"><title>Node12</title>
<g id="a_node12"><a xlink:href="_ogre_g_l_native_support_8h.html" target="_top" xlink:title="OgreGLNativeSupport.h">
<polygon fill="none" stroke="black" points="194,-280.5 194,-299.5 315,-299.5 315,-280.5 194,-280.5"/>
<text text-anchor="middle" x="254.5" y="-287.5" font-family="Helvetica,sans-Serif" font-size="10.00">OgreGLNativeSupport.h</text>
</a>
</g>
</g>
<!-- Node11&#45;&gt;Node12 -->
<g id="edge12" class="edge"><title>Node11&#45;&gt;Node12</title>
<path fill="none" stroke="midnightblue" d="M262.849,-336.083C261.524,-328.927 259.618,-318.635 257.961,-309.691"/>
<polygon fill="midnightblue" stroke="midnightblue" points="261.383,-308.947 256.121,-299.751 254.5,-310.221 261.383,-308.947"/>
</g>
<!-- Node17 -->
<g id="node17" class="node"><title>Node17</title>
<polygon fill="none" stroke="#bfbfbf" points="333,-280.5 333,-299.5 386,-299.5 386,-280.5 333,-280.5"/>
<text text-anchor="middle" x="359.5" y="-287.5" font-family="Helvetica,sans-Serif" font-size="10.00">GL/glx.h</text>
</g>
<!-- Node11&#45;&gt;Node17 -->
<g id="edge25" class="edge"><title>Node11&#45;&gt;Node17</title>
<path fill="none" stroke="midnightblue" d="M279.763,-336.324C294.721,-327.822 317.755,-314.729 335.227,-304.797"/>
<polygon fill="midnightblue" stroke="midnightblue" points="337.31,-307.639 344.274,-299.655 333.851,-301.553 337.31,-307.639"/>
</g>
<!-- Node18 -->
<g id="node18" class="node"><title>Node18</title>
<polygon fill="none" stroke="#bfbfbf" points="109,-280.5 109,-299.5 176,-299.5 176,-280.5 109,-280.5"/>
<text text-anchor="middle" x="142.5" y="-287.5" font-family="Helvetica,sans-Serif" font-size="10.00">GL/glxext.h</text>
</g>
<!-- Node11&#45;&gt;Node18 -->
<g id="edge26" class="edge"><title>Node11&#45;&gt;Node18</title>
<path fill="none" stroke="midnightblue" d="M245.169,-336.444C225.18,-327.596 193.757,-313.687 170.936,-303.586"/>
<polygon fill="midnightblue" stroke="midnightblue" points="172.302,-300.363 161.741,-299.516 169.468,-306.764 172.302,-300.363"/>
</g>
<!-- Node12&#45;&gt;Node3 -->
<g id="edge13" class="edge"><title>Node12&#45;&gt;Node3</title>
<path fill="none" stroke="midnightblue" d="M279.377,-280.444C305.789,-271.359 347.715,-256.939 377.242,-246.783"/>
<polygon fill="midnightblue" stroke="midnightblue" points="378.421,-250.079 386.739,-243.516 376.145,-243.459 378.421,-250.079"/>
</g>
<!-- Node13 -->
<g id="node13" class="node"><title>Node13</title>
<g id="a_node13"><a xlink:href="_ogre_config_option_map_8h.html" target="_top" xlink:title="OgreConfigOptionMap.h">
<polygon fill="none" stroke="black" points="196.5,-224.5 196.5,-243.5 318.5,-243.5 318.5,-224.5 196.5,-224.5"/>
<text text-anchor="middle" x="257.5" y="-231.5" font-family="Helvetica,sans-Serif" font-size="10.00">OgreConfigOptionMap.h</text>
</a>
</g>
</g>
<!-- Node12&#45;&gt;Node13 -->
<g id="edge14" class="edge"><title>Node12&#45;&gt;Node13</title>
<path fill="none" stroke="midnightblue" d="M254.995,-280.083C255.389,-273.006 255.952,-262.861 256.445,-253.986"/>
<polygon fill="midnightblue" stroke="midnightblue" points="259.954,-253.93 257.014,-243.751 252.964,-253.542 259.954,-253.93"/>
</g>
<!-- Node15 -->
<g id="node15" class="node"><title>Node15</title>
<g id="a_node15"><a xlink:href="_ogre_pixel_format_8h.html" target="_top" xlink:title="OgrePixelFormat.h">
<polygon fill="none" stroke="black" points="98.5,-168.5 98.5,-187.5 196.5,-187.5 196.5,-168.5 98.5,-168.5"/>
<text text-anchor="middle" x="147.5" y="-175.5" font-family="Helvetica,sans-Serif" font-size="10.00">OgrePixelFormat.h</text>
</a>
</g>
</g>
<!-- Node12&#45;&gt;Node15 -->
<g id="edge18" class="edge"><title>Node12&#45;&gt;Node15</title>
<path fill="none" stroke="midnightblue" d="M237.618,-280.357C223.111,-272.342 202.258,-259.357 187.5,-244 174.054,-230.008 162.901,-210.752 155.819,-196.834"/>
<polygon fill="midnightblue" stroke="midnightblue" points="158.938,-195.246 151.406,-187.795 152.648,-198.317 158.938,-195.246"/>
</g>
<!-- Node13&#45;&gt;Node4 -->
<g id="edge15" class="edge"><title>Node13&#45;&gt;Node4</title>
<path fill="none" stroke="midnightblue" d="M277.976,-224.424C293.577,-216.924 314.519,-204.626 327.5,-188 338.029,-174.515 343.668,-155.704 346.59,-141.787"/>
<polygon fill="midnightblue" stroke="midnightblue" points="350.048,-142.334 348.393,-131.87 343.161,-141.083 350.048,-142.334"/>
</g>
<!-- Node14 -->
<g id="node14" class="node"><title>Node14</title>
<g id="a_node14"><a xlink:href="_ogre_string_vector_8h.html" target="_top" xlink:title="OgreStringVector.h">
<polygon fill="none" stroke="red" points="218.5,-168.5 218.5,-187.5 318.5,-187.5 318.5,-168.5 218.5,-168.5"/>
<text text-anchor="middle" x="268.5" y="-175.5" font-family="Helvetica,sans-Serif" font-size="10.00">OgreStringVector.h</text>
</a>
</g>
</g>
<!-- Node13&#45;&gt;Node14 -->
<g id="edge16" class="edge"><title>Node13&#45;&gt;Node14</title>
<path fill="none" stroke="midnightblue" d="M259.316,-224.083C260.774,-216.927 262.871,-206.635 264.693,-197.691"/>
<polygon fill="midnightblue" stroke="midnightblue" points="268.151,-198.248 266.717,-187.751 261.292,-196.851 268.151,-198.248"/>
</g>
<!-- Node14&#45;&gt;Node4 -->
<g id="edge17" class="edge"><title>Node14&#45;&gt;Node4</title>
<path fill="none" stroke="midnightblue" d="M281.514,-168.324C294.032,-159.979 313.182,-147.212 327.971,-137.352"/>
<polygon fill="midnightblue" stroke="midnightblue" points="330.139,-140.114 336.518,-131.655 326.256,-134.289 330.139,-140.114"/>
</g>
<!-- Node15&#45;&gt;Node4 -->
<g id="edge19" class="edge"><title>Node15&#45;&gt;Node4</title>
<path fill="none" stroke="midnightblue" d="M179.508,-168.444C214.229,-159.162 269.788,-144.309 307.877,-134.127"/>
<polygon fill="midnightblue" stroke="midnightblue" points="308.885,-137.48 317.642,-131.516 307.078,-130.718 308.885,-137.48"/>
</g>
<!-- Node15&#45;&gt;Node9 -->
<g id="edge23" class="edge"><title>Node15&#45;&gt;Node9</title>
<path fill="none" stroke="midnightblue" d="M148.844,-168.075C152.779,-141.945 164.336,-65.2106 169.702,-29.577"/>
<polygon fill="midnightblue" stroke="midnightblue" points="173.181,-29.9779 171.21,-19.5681 166.259,-28.9353 173.181,-29.9779"/>
</g>
<!-- Node15&#45;&gt;Node10 -->
<g id="edge24" class="edge"><title>Node15&#45;&gt;Node10</title>
<path fill="none" stroke="midnightblue" d="M128.941,-168.433C100.266,-154.031 46.231,-121.963 24.5,-76 16.7879,-59.6883 26.9545,-40.5692 36.9412,-27.3077"/>
<polygon fill="midnightblue" stroke="midnightblue" points="39.6791,-29.4884 43.2882,-19.5272 34.255,-25.0636 39.6791,-29.4884"/>
</g>
<!-- Node16 -->
<g id="node16" class="node"><title>Node16</title>
<g id="a_node16"><a xlink:href="_ogre_common_8h.html" target="_top" xlink:title="OgreCommon.h">
<polygon fill="none" stroke="black" points="33.5,-56.5 33.5,-75.5 119.5,-75.5 119.5,-56.5 33.5,-56.5"/>
<text text-anchor="middle" x="76.5" y="-63.5" font-family="Helvetica,sans-Serif" font-size="10.00">OgreCommon.h</text>
</a>
</g>
</g>
<!-- Node15&#45;&gt;Node16 -->
<g id="edge20" class="edge"><title>Node15&#45;&gt;Node16</title>
<path fill="none" stroke="midnightblue" d="M141.929,-168.368C130.264,-150.296 103.077,-108.176 87.6711,-84.3074"/>
<polygon fill="midnightblue" stroke="midnightblue" points="90.4091,-82.0952 82.0454,-75.5914 84.5278,-85.8913 90.4091,-82.0952"/>
</g>
<!-- Node16&#45;&gt;Node9 -->
<g id="edge21" class="edge"><title>Node16&#45;&gt;Node9</title>
<path fill="none" stroke="midnightblue" d="M91.9241,-56.324C107.04,-47.8215 130.315,-34.7288 147.971,-24.7975"/>
<polygon fill="midnightblue" stroke="midnightblue" points="150.114,-27.6077 157.114,-19.6545 146.683,-21.5066 150.114,-27.6077"/>
</g>
<!-- Node16&#45;&gt;Node10 -->
<g id="edge22" class="edge"><title>Node16&#45;&gt;Node10</title>
<path fill="none" stroke="midnightblue" d="M72.3718,-56.083C68.9861,-48.77 64.084,-38.1814 59.8812,-29.1034"/>
<polygon fill="midnightblue" stroke="midnightblue" points="62.9289,-27.3553 55.5514,-19.7511 56.5766,-30.2962 62.9289,-27.3553"/>
</g>
</g>
</svg>
