<?xml version="1.0" encoding="UTF-8" standalone="no"?>
<!DOCTYPE svg PUBLIC "-//W3C//DTD SVG 1.1//EN"
 "http://www.w3.org/Graphics/SVG/1.1/DTD/svg11.dtd">
<!-- Generated by graphviz version 2.38.0 (20140413.2041)
 -->
<!-- Title: OgreCompositionPass.h Pages: 1 -->
<svg width="3369pt" height="420pt"
 viewBox="0.00 0.00 3369.00 420.00" xmlns="http://www.w3.org/2000/svg" xmlns:xlink="http://www.w3.org/1999/xlink">
<g id="graph0" class="graph" transform="scale(1 1) rotate(0) translate(4 416)">
<title>OgreCompositionPass.h</title>
<!-- Node1 -->
<g id="node1" class="node"><title>Node1</title>
<polygon fill="#bfbfbf" stroke="black" points="2421.5,-392.5 2421.5,-411.5 2544.5,-411.5 2544.5,-392.5 2421.5,-392.5"/>
<text text-anchor="middle" x="2483" y="-399.5" font-family="Helvetica,sans-Serif" font-size="10.00">OgreCompositionPass.h</text>
</g>
<!-- Node2 -->
<g id="node2" class="node"><title>Node2</title>
<g id="a_node2"><a xlink:href="_ogre_prerequisites_8h.html" target="_top" xlink:title="OgrePrerequisites.h">
<polygon fill="none" stroke="black" points="2537.5,-168.5 2537.5,-187.5 2640.5,-187.5 2640.5,-168.5 2537.5,-168.5"/>
<text text-anchor="middle" x="2589" y="-175.5" font-family="Helvetica,sans-Serif" font-size="10.00">OgrePrerequisites.h</text>
</a>
</g>
</g>
<!-- Node1&#45;&gt;Node2 -->
<g id="edge1" class="edge"><title>Node1&#45;&gt;Node2</title>
<path fill="none" stroke="midnightblue" d="M2478.19,-392.438C2468.95,-375.456 2449.03,-336.033 2442,-300 2435.35,-265.931 2435.76,-248.846 2460,-224 2477.91,-205.646 2503.69,-194.769 2527.51,-188.327"/>
<polygon fill="midnightblue" stroke="midnightblue" points="2528.36,-191.722 2537.22,-185.908 2526.67,-184.93 2528.36,-191.722"/>
</g>
<!-- Node38 -->
<g id="node38" class="node"><title>Node38</title>
<g id="a_node38"><a xlink:href="_ogre_header_prefix_8h.html" target="_top" xlink:title="OgreHeaderPrefix.h">
<polygon fill="none" stroke="black" points="2439.5,-0.5 2439.5,-19.5 2542.5,-19.5 2542.5,-0.5 2439.5,-0.5"/>
<text text-anchor="middle" x="2491" y="-7.5" font-family="Helvetica,sans-Serif" font-size="10.00">OgreHeaderPrefix.h</text>
</a>
</g>
</g>
<!-- Node1&#45;&gt;Node38 -->
<g id="edge50" class="edge"><title>Node1&#45;&gt;Node38</title>
<path fill="none" stroke="midnightblue" d="M2421.31,-399.925C2038.16,-393.052 0,-353.551 0,-291 0,-291 0,-291 0,-121 0,-82.8683 21.4851,-72.2093 56,-56 111.349,-30.0065 2056.07,-14.2378 2429.38,-11.4468"/>
<polygon fill="midnightblue" stroke="midnightblue" points="2429.48,-14.9463 2439.45,-11.3718 2429.42,-7.94647 2429.48,-14.9463"/>
</g>
<!-- Node39 -->
<g id="node39" class="node"><title>Node39</title>
<g id="a_node39"><a xlink:href="_ogre_header_suffix_8h.html" target="_top" xlink:title="OgreHeaderSuffix.h">
<polygon fill="none" stroke="black" points="3103.5,-0.5 3103.5,-19.5 3206.5,-19.5 3206.5,-0.5 3103.5,-0.5"/>
<text text-anchor="middle" x="3155" y="-7.5" font-family="Helvetica,sans-Serif" font-size="10.00">OgreHeaderSuffix.h</text>
</a>
</g>
</g>
<!-- Node1&#45;&gt;Node39 -->
<g id="edge81" class="edge"><title>Node1&#45;&gt;Node39</title>
<path fill="none" stroke="midnightblue" d="M2544.74,-399.76C2744.59,-394.936 3361,-373.38 3361,-291 3361,-291 3361,-291 3361,-121 3361,-54.8469 3277.31,-28.3354 3216.62,-17.8068"/>
<polygon fill="midnightblue" stroke="midnightblue" points="3217.15,-14.3468 3206.72,-16.1929 3216.02,-21.2557 3217.15,-14.3468"/>
</g>
<!-- Node42 -->
<g id="node42" class="node"><title>Node42</title>
<g id="a_node42"><a xlink:href="_ogre_render_system_8h.html" target="_top" xlink:title="OgreRenderSystem.h">
<polygon fill="none" stroke="black" points="2554.5,-336.5 2554.5,-355.5 2665.5,-355.5 2665.5,-336.5 2554.5,-336.5"/>
<text text-anchor="middle" x="2610" y="-343.5" font-family="Helvetica,sans-Serif" font-size="10.00">OgreRenderSystem.h</text>
</a>
</g>
</g>
<!-- Node1&#45;&gt;Node42 -->
<g id="edge51" class="edge"><title>Node1&#45;&gt;Node42</title>
<path fill="none" stroke="midnightblue" d="M2503.12,-392.444C2524.02,-383.557 2556.93,-369.563 2580.72,-359.451"/>
<polygon fill="midnightblue" stroke="midnightblue" points="2582.14,-362.65 2589.97,-355.516 2579.4,-356.208 2582.14,-362.65"/>
</g>
<!-- Node3 -->
<g id="node3" class="node"><title>Node3</title>
<g id="a_node3"><a xlink:href="_ogre_platform_8h.html" target="_top" xlink:title="OgrePlatform.h">
<polygon fill="none" stroke="black" points="604.5,-112.5 604.5,-131.5 687.5,-131.5 687.5,-112.5 604.5,-112.5"/>
<text text-anchor="middle" x="646" y="-119.5" font-family="Helvetica,sans-Serif" font-size="10.00">OgrePlatform.h</text>
</a>
</g>
</g>
<!-- Node2&#45;&gt;Node3 -->
<g id="edge2" class="edge"><title>Node2&#45;&gt;Node3</title>
<path fill="none" stroke="midnightblue" d="M2537.03,-175.556C2261.45,-167.897 973.298,-132.096 697.899,-124.442"/>
<polygon fill="midnightblue" stroke="midnightblue" points="697.875,-120.94 687.782,-124.161 697.681,-127.938 697.875,-120.94"/>
</g>
<!-- Node5 -->
<g id="node5" class="node"><title>Node5</title>
<polygon fill="none" stroke="#bfbfbf" points="2383.5,-56.5 2383.5,-75.5 2424.5,-75.5 2424.5,-56.5 2383.5,-56.5"/>
<text text-anchor="middle" x="2404" y="-63.5" font-family="Helvetica,sans-Serif" font-size="10.00">string</text>
</g>
<!-- Node2&#45;&gt;Node5 -->
<g id="edge4" class="edge"><title>Node2&#45;&gt;Node5</title>
<path fill="none" stroke="midnightblue" d="M2574.48,-168.368C2542.6,-149.412 2466.23,-104.001 2427.45,-80.9424"/>
<polygon fill="midnightblue" stroke="midnightblue" points="2428.83,-77.6938 2418.45,-75.5914 2425.26,-83.7106 2428.83,-77.6938"/>
</g>
<!-- Node6 -->
<g id="node6" class="node"><title>Node6</title>
<g id="a_node6"><a xlink:href="_ogre_std_headers_8h.html" target="_top" xlink:title="OgreStdHeaders.h">
<polygon fill="none" stroke="black" points="1168,-112.5 1168,-131.5 1266,-131.5 1266,-112.5 1168,-112.5"/>
<text text-anchor="middle" x="1217" y="-119.5" font-family="Helvetica,sans-Serif" font-size="10.00">OgreStdHeaders.h</text>
</a>
</g>
</g>
<!-- Node2&#45;&gt;Node6 -->
<g id="edge5" class="edge"><title>Node2&#45;&gt;Node6</title>
<path fill="none" stroke="midnightblue" d="M2537.31,-174.965C2322.96,-166.529 1504.64,-134.321 1276.41,-125.338"/>
<polygon fill="midnightblue" stroke="midnightblue" points="1276.44,-121.837 1266.31,-124.941 1276.17,-128.832 1276.44,-121.837"/>
</g>
<!-- Node36 -->
<g id="node36" class="node"><title>Node36</title>
<g id="a_node36"><a xlink:href="_ogre_memory_allocator_config_8h.html" target="_top" xlink:title="This file configures Ogre&#39;s memory allocators. ">
<polygon fill="none" stroke="black" points="2663,-112.5 2663,-131.5 2811,-131.5 2811,-112.5 2663,-112.5"/>
<text text-anchor="middle" x="2737" y="-119.5" font-family="Helvetica,sans-Serif" font-size="10.00">OgreMemoryAllocatorConfig.h</text>
</a>
</g>
</g>
<!-- Node2&#45;&gt;Node36 -->
<g id="edge36" class="edge"><title>Node2&#45;&gt;Node36</title>
<path fill="none" stroke="midnightblue" d="M2612.45,-168.444C2637.13,-159.438 2676.19,-145.189 2703.98,-135.049"/>
<polygon fill="midnightblue" stroke="midnightblue" points="2705.46,-138.232 2713.66,-131.516 2703.06,-131.656 2705.46,-138.232"/>
</g>
<!-- Node4 -->
<g id="node4" class="node"><title>Node4</title>
<g id="a_node4"><a xlink:href="_ogre_config_8h.html" target="_top" xlink:title="OgreConfig.h">
<polygon fill="none" stroke="red" points="142,-56.5 142,-75.5 216,-75.5 216,-56.5 142,-56.5"/>
<text text-anchor="middle" x="179" y="-63.5" font-family="Helvetica,sans-Serif" font-size="10.00">OgreConfig.h</text>
</a>
</g>
</g>
<!-- Node3&#45;&gt;Node4 -->
<g id="edge3" class="edge"><title>Node3&#45;&gt;Node4</title>
<path fill="none" stroke="midnightblue" d="M604.316,-117.751C530.247,-111.716 370.658,-97.5334 226.052,-76.0403"/>
<polygon fill="midnightblue" stroke="midnightblue" points="226.518,-72.5711 216.109,-74.5472 225.478,-79.4935 226.518,-72.5711"/>
</g>
<!-- Node6&#45;&gt;Node5 -->
<g id="edge15" class="edge"><title>Node6&#45;&gt;Node5</title>
<path fill="none" stroke="midnightblue" d="M1266.27,-120.737C1455.46,-119.477 2136.23,-112.556 2373.24,-75.5912"/>
<polygon fill="midnightblue" stroke="midnightblue" points="2373.87,-79.0356 2383.18,-73.9797 2372.75,-72.1259 2373.87,-79.0356"/>
</g>
<!-- Node7 -->
<g id="node7" class="node"><title>Node7</title>
<polygon fill="none" stroke="#bfbfbf" points="2001.5,-56.5 2001.5,-75.5 2050.5,-75.5 2050.5,-56.5 2001.5,-56.5"/>
<text text-anchor="middle" x="2026" y="-63.5" font-family="Helvetica,sans-Serif" font-size="10.00">cassert</text>
</g>
<!-- Node6&#45;&gt;Node7 -->
<g id="edge6" class="edge"><title>Node6&#45;&gt;Node7</title>
<path fill="none" stroke="midnightblue" d="M1266.42,-121.683C1388.35,-122.612 1713.25,-120.48 1990.98,-76.0108"/>
<polygon fill="midnightblue" stroke="midnightblue" points="1991.95,-79.4002 2001.26,-74.3427 1990.82,-72.4906 1991.95,-79.4002"/>
</g>
<!-- Node8 -->
<g id="node8" class="node"><title>Node8</title>
<polygon fill="none" stroke="#bfbfbf" points="2068.5,-56.5 2068.5,-75.5 2111.5,-75.5 2111.5,-56.5 2068.5,-56.5"/>
<text text-anchor="middle" x="2090" y="-63.5" font-family="Helvetica,sans-Serif" font-size="10.00">cstdio</text>
</g>
<!-- Node6&#45;&gt;Node8 -->
<g id="edge7" class="edge"><title>Node6&#45;&gt;Node8</title>
<path fill="none" stroke="midnightblue" d="M1266.18,-119.851C1419.16,-116.049 1886.2,-102.663 2058.52,-75.5711"/>
<polygon fill="midnightblue" stroke="midnightblue" points="2059.17,-79.0124 2068.47,-73.9357 2058.03,-72.1052 2059.17,-79.0124"/>
</g>
<!-- Node9 -->
<g id="node9" class="node"><title>Node9</title>
<polygon fill="none" stroke="#bfbfbf" points="2129.5,-56.5 2129.5,-75.5 2174.5,-75.5 2174.5,-56.5 2129.5,-56.5"/>
<text text-anchor="middle" x="2152" y="-63.5" font-family="Helvetica,sans-Serif" font-size="10.00">cstdlib</text>
</g>
<!-- Node6&#45;&gt;Node9 -->
<g id="edge8" class="edge"><title>Node6&#45;&gt;Node9</title>
<path fill="none" stroke="midnightblue" d="M1266.25,-120.001C1426.71,-116.523 1934.16,-103.701 2119.27,-75.6369"/>
<polygon fill="midnightblue" stroke="midnightblue" points="2120.09,-79.0508 2129.42,-74.0288 2118.99,-72.1371 2120.09,-79.0508"/>
</g>
<!-- Node10 -->
<g id="node10" class="node"><title>Node10</title>
<polygon fill="none" stroke="#bfbfbf" points="2192.5,-56.5 2192.5,-75.5 2233.5,-75.5 2233.5,-56.5 2192.5,-56.5"/>
<text text-anchor="middle" x="2213" y="-63.5" font-family="Helvetica,sans-Serif" font-size="10.00">ctime</text>
</g>
<!-- Node6&#45;&gt;Node10 -->
<g id="edge9" class="edge"><title>Node6&#45;&gt;Node10</title>
<path fill="none" stroke="midnightblue" d="M1266.1,-120.3C1433.9,-117.664 1984.58,-106.944 2182.19,-75.6117"/>
<polygon fill="midnightblue" stroke="midnightblue" points="2182.88,-79.0453 2192.17,-73.9586 2181.74,-72.1393 2182.88,-79.0453"/>
</g>
<!-- Node11 -->
<g id="node11" class="node"><title>Node11</title>
<polygon fill="none" stroke="#bfbfbf" points="2252,-56.5 2252,-75.5 2298,-75.5 2298,-56.5 2252,-56.5"/>
<text text-anchor="middle" x="2275" y="-63.5" font-family="Helvetica,sans-Serif" font-size="10.00">cstring</text>
</g>
<!-- Node6&#45;&gt;Node11 -->
<g id="edge10" class="edge"><title>Node6&#45;&gt;Node11</title>
<path fill="none" stroke="midnightblue" d="M1266.28,-120.288C1441,-117.539 2031.07,-106.304 2241.67,-75.5684"/>
<polygon fill="midnightblue" stroke="midnightblue" points="2242.34,-79.0056 2251.7,-74.0425 2241.29,-72.0851 2242.34,-79.0056"/>
</g>
<!-- Node12 -->
<g id="node12" class="node"><title>Node12</title>
<polygon fill="none" stroke="#bfbfbf" points="2316.5,-56.5 2316.5,-75.5 2365.5,-75.5 2365.5,-56.5 2316.5,-56.5"/>
<text text-anchor="middle" x="2341" y="-63.5" font-family="Helvetica,sans-Serif" font-size="10.00">cstdarg</text>
</g>
<!-- Node6&#45;&gt;Node12 -->
<g id="edge11" class="edge"><title>Node6&#45;&gt;Node12</title>
<path fill="none" stroke="midnightblue" d="M1266.19,-120.39C1447.98,-117.917 2082.45,-107.306 2306.22,-75.6904"/>
<polygon fill="midnightblue" stroke="midnightblue" points="2306.86,-79.1342 2316.25,-74.2178 2305.85,-72.2086 2306.86,-79.1342"/>
</g>
<!-- Node13 -->
<g id="node13" class="node"><title>Node13</title>
<polygon fill="none" stroke="#bfbfbf" points="234,-56.5 234,-75.5 278,-75.5 278,-56.5 234,-56.5"/>
<text text-anchor="middle" x="256" y="-63.5" font-family="Helvetica,sans-Serif" font-size="10.00">cmath</text>
</g>
<!-- Node6&#45;&gt;Node13 -->
<g id="edge12" class="edge"><title>Node6&#45;&gt;Node13</title>
<path fill="none" stroke="midnightblue" d="M1167.73,-120.137C1004.02,-117.036 478.361,-105.144 288.349,-75.7621"/>
<polygon fill="midnightblue" stroke="midnightblue" points="288.637,-72.2632 278.207,-74.1225 287.52,-79.1735 288.637,-72.2632"/>
</g>
<!-- Node14 -->
<g id="node14" class="node"><title>Node14</title>
<polygon fill="none" stroke="#bfbfbf" points="296,-56.5 296,-75.5 340,-75.5 340,-56.5 296,-56.5"/>
<text text-anchor="middle" x="318" y="-63.5" font-family="Helvetica,sans-Serif" font-size="10.00">vector</text>
</g>
<!-- Node6&#45;&gt;Node14 -->
<g id="edge13" class="edge"><title>Node6&#45;&gt;Node14</title>
<path fill="none" stroke="midnightblue" d="M1167.99,-119.946C1011.99,-116.362 527.335,-103.405 350.174,-75.7408"/>
<polygon fill="midnightblue" stroke="midnightblue" points="350.642,-72.271 340.208,-74.1131 349.513,-79.1794 350.642,-72.271"/>
</g>
<!-- Node15 -->
<g id="node15" class="node"><title>Node15</title>
<polygon fill="none" stroke="#bfbfbf" points="358.5,-56.5 358.5,-75.5 393.5,-75.5 393.5,-56.5 358.5,-56.5"/>
<text text-anchor="middle" x="376" y="-63.5" font-family="Helvetica,sans-Serif" font-size="10.00">map</text>
</g>
<!-- Node6&#45;&gt;Node15 -->
<g id="edge14" class="edge"><title>Node6&#45;&gt;Node15</title>
<path fill="none" stroke="midnightblue" d="M1167.81,-119.996C1018.29,-116.681 569.803,-104.716 403.602,-75.4546"/>
<polygon fill="midnightblue" stroke="midnightblue" points="404.009,-71.9706 393.539,-73.5939 402.736,-78.8539 404.009,-71.9706"/>
</g>
<!-- Node16 -->
<g id="node16" class="node"><title>Node16</title>
<polygon fill="none" stroke="#bfbfbf" points="412,-56.5 412,-75.5 442,-75.5 442,-56.5 412,-56.5"/>
<text text-anchor="middle" x="427" y="-63.5" font-family="Helvetica,sans-Serif" font-size="10.00">set</text>
</g>
<!-- Node6&#45;&gt;Node16 -->
<g id="edge16" class="edge"><title>Node6&#45;&gt;Node16</title>
<path fill="none" stroke="midnightblue" d="M1167.84,-120.034C1024.39,-116.918 607.189,-105.672 451.876,-75.4369"/>
<polygon fill="midnightblue" stroke="midnightblue" points="452.529,-71.9982 442.03,-73.4178 451.123,-78.8555 452.529,-71.9982"/>
</g>
<!-- Node17 -->
<g id="node17" class="node"><title>Node17</title>
<polygon fill="none" stroke="#bfbfbf" points="460.5,-56.5 460.5,-75.5 489.5,-75.5 489.5,-56.5 460.5,-56.5"/>
<text text-anchor="middle" x="475" y="-63.5" font-family="Helvetica,sans-Serif" font-size="10.00">list</text>
</g>
<!-- Node6&#45;&gt;Node17 -->
<g id="edge17" class="edge"><title>Node6&#45;&gt;Node17</title>
<path fill="none" stroke="midnightblue" d="M1167.87,-119.905C1030.72,-116.543 644.814,-104.916 499.896,-75.7255"/>
<polygon fill="midnightblue" stroke="midnightblue" points="500.394,-72.2533 489.885,-73.5933 498.936,-79.0998 500.394,-72.2533"/>
</g>
<!-- Node18 -->
<g id="node18" class="node"><title>Node18</title>
<polygon fill="none" stroke="#bfbfbf" points="507.5,-56.5 507.5,-75.5 550.5,-75.5 550.5,-56.5 507.5,-56.5"/>
<text text-anchor="middle" x="529" y="-63.5" font-family="Helvetica,sans-Serif" font-size="10.00">deque</text>
</g>
<!-- Node6&#45;&gt;Node18 -->
<g id="edge18" class="edge"><title>Node6&#45;&gt;Node18</title>
<path fill="none" stroke="midnightblue" d="M1167.84,-121.364C1059.37,-121.368 791.477,-116.994 560.737,-75.9506"/>
<polygon fill="midnightblue" stroke="midnightblue" points="561.28,-72.4923 550.818,-74.1593 560.036,-79.3808 561.28,-72.4923"/>
</g>
<!-- Node19 -->
<g id="node19" class="node"><title>Node19</title>
<polygon fill="none" stroke="#bfbfbf" points="568.5,-56.5 568.5,-75.5 611.5,-75.5 611.5,-56.5 568.5,-56.5"/>
<text text-anchor="middle" x="590" y="-63.5" font-family="Helvetica,sans-Serif" font-size="10.00">queue</text>
</g>
<!-- Node6&#45;&gt;Node19 -->
<g id="edge19" class="edge"><title>Node6&#45;&gt;Node19</title>
<path fill="none" stroke="midnightblue" d="M1167.79,-120.872C1066.74,-119.839 828.654,-113.448 621.95,-76.0059"/>
<polygon fill="midnightblue" stroke="midnightblue" points="622.289,-72.5095 611.821,-74.1412 621.022,-79.3939 622.289,-72.5095"/>
</g>
<!-- Node20 -->
<g id="node20" class="node"><title>Node20</title>
<polygon fill="none" stroke="#bfbfbf" points="629.5,-56.5 629.5,-75.5 670.5,-75.5 670.5,-56.5 629.5,-56.5"/>
<text text-anchor="middle" x="650" y="-63.5" font-family="Helvetica,sans-Serif" font-size="10.00">bitset</text>
</g>
<!-- Node6&#45;&gt;Node20 -->
<g id="edge20" class="edge"><title>Node6&#45;&gt;Node20</title>
<path fill="none" stroke="midnightblue" d="M1167.67,-120.282C1074.2,-118.183 864.923,-109.959 680.398,-75.6358"/>
<polygon fill="midnightblue" stroke="midnightblue" points="680.993,-72.1865 670.517,-73.7682 679.693,-79.0647 680.993,-72.1865"/>
</g>
<!-- Node21 -->
<g id="node21" class="node"><title>Node21</title>
<polygon fill="none" stroke="#bfbfbf" points="689,-56.5 689,-75.5 745,-75.5 745,-56.5 689,-56.5"/>
<text text-anchor="middle" x="717" y="-63.5" font-family="Helvetica,sans-Serif" font-size="10.00">algorithm</text>
</g>
<!-- Node6&#45;&gt;Node21 -->
<g id="edge21" class="edge"><title>Node6&#45;&gt;Node21</title>
<path fill="none" stroke="midnightblue" d="M1167.7,-118.508C1084.57,-113.806 911.158,-101.845 755.427,-76.016"/>
<polygon fill="midnightblue" stroke="midnightblue" points="755.638,-72.5024 745.196,-74.2946 754.477,-79.4054 755.638,-72.5024"/>
</g>
<!-- Node22 -->
<g id="node22" class="node"><title>Node22</title>
<polygon fill="none" stroke="#bfbfbf" points="763.5,-56.5 763.5,-75.5 822.5,-75.5 822.5,-56.5 763.5,-56.5"/>
<text text-anchor="middle" x="793" y="-63.5" font-family="Helvetica,sans-Serif" font-size="10.00">functional</text>
</g>
<!-- Node6&#45;&gt;Node22 -->
<g id="edge22" class="edge"><title>Node6&#45;&gt;Node22</title>
<path fill="none" stroke="midnightblue" d="M1167.83,-117.005C1096.25,-110.804 959.044,-97.4675 832.601,-75.9206"/>
<polygon fill="midnightblue" stroke="midnightblue" points="833.191,-72.4708 822.742,-74.2198 832.001,-79.3689 833.191,-72.4708"/>
</g>
<!-- Node23 -->
<g id="node23" class="node"><title>Node23</title>
<polygon fill="none" stroke="#bfbfbf" points="841,-56.5 841,-75.5 881,-75.5 881,-56.5 841,-56.5"/>
<text text-anchor="middle" x="861" y="-63.5" font-family="Helvetica,sans-Serif" font-size="10.00">limits</text>
</g>
<!-- Node6&#45;&gt;Node23 -->
<g id="edge23" class="edge"><title>Node6&#45;&gt;Node23</title>
<path fill="none" stroke="midnightblue" d="M1167.8,-116.77C1105.43,-110.848 994.539,-98.4534 891.148,-75.934"/>
<polygon fill="midnightblue" stroke="midnightblue" points="891.688,-72.4688 881.167,-73.7229 890.174,-79.3031 891.688,-72.4688"/>
</g>
<!-- Node24 -->
<g id="node24" class="node"><title>Node24</title>
<polygon fill="none" stroke="#bfbfbf" points="899,-56.5 899,-75.5 949,-75.5 949,-56.5 899,-56.5"/>
<text text-anchor="middle" x="924" y="-63.5" font-family="Helvetica,sans-Serif" font-size="10.00">fstream</text>
</g>
<!-- Node6&#45;&gt;Node24 -->
<g id="edge24" class="edge"><title>Node6&#45;&gt;Node24</title>
<path fill="none" stroke="midnightblue" d="M1167.58,-113.72C1117.43,-106.039 1037.35,-92.9785 959.206,-76.1135"/>
<polygon fill="midnightblue" stroke="midnightblue" points="959.708,-72.6408 949.192,-73.9288 958.216,-79.4799 959.708,-72.6408"/>
</g>
<!-- Node25 -->
<g id="node25" class="node"><title>Node25</title>
<polygon fill="none" stroke="#bfbfbf" points="967.5,-56.5 967.5,-75.5 1012.5,-75.5 1012.5,-56.5 967.5,-56.5"/>
<text text-anchor="middle" x="990" y="-63.5" font-family="Helvetica,sans-Serif" font-size="10.00">iosfwd</text>
</g>
<!-- Node6&#45;&gt;Node25 -->
<g id="edge25" class="edge"><title>Node6&#45;&gt;Node25</title>
<path fill="none" stroke="midnightblue" d="M1177.65,-112.493C1140.25,-104.281 1082.21,-91.207 1022.65,-76.0712"/>
<polygon fill="midnightblue" stroke="midnightblue" points="1023.25,-72.6112 1012.69,-73.5247 1021.51,-79.393 1023.25,-72.6112"/>
</g>
<!-- Node26 -->
<g id="node26" class="node"><title>Node26</title>
<polygon fill="none" stroke="#bfbfbf" points="1031,-56.5 1031,-75.5 1083,-75.5 1083,-56.5 1031,-56.5"/>
<text text-anchor="middle" x="1057" y="-63.5" font-family="Helvetica,sans-Serif" font-size="10.00">sstream</text>
</g>
<!-- Node6&#45;&gt;Node26 -->
<g id="edge26" class="edge"><title>Node6&#45;&gt;Node26</title>
<path fill="none" stroke="midnightblue" d="M1191.65,-112.444C1164.73,-103.359 1122,-88.9388 1091.91,-78.7831"/>
<polygon fill="midnightblue" stroke="midnightblue" points="1092.83,-75.3981 1082.23,-75.5164 1090.59,-82.0305 1092.83,-75.3981"/>
</g>
<!-- Node27 -->
<g id="node27" class="node"><title>Node27</title>
<polygon fill="none" stroke="#bfbfbf" points="1101,-56.5 1101,-75.5 1169,-75.5 1169,-56.5 1101,-56.5"/>
<text text-anchor="middle" x="1135" y="-63.5" font-family="Helvetica,sans-Serif" font-size="10.00">sys/types.h</text>
</g>
<!-- Node6&#45;&gt;Node27 -->
<g id="edge27" class="edge"><title>Node6&#45;&gt;Node27</title>
<path fill="none" stroke="midnightblue" d="M1203.83,-112.324C1191.15,-103.979 1171.77,-91.2122 1156.79,-81.3524"/>
<polygon fill="midnightblue" stroke="midnightblue" points="1158.42,-78.2313 1148.14,-75.6545 1154.57,-84.0776 1158.42,-78.2313"/>
</g>
<!-- Node28 -->
<g id="node28" class="node"><title>Node28</title>
<polygon fill="none" stroke="#bfbfbf" points="1187,-56.5 1187,-75.5 1247,-75.5 1247,-56.5 1187,-56.5"/>
<text text-anchor="middle" x="1217" y="-63.5" font-family="Helvetica,sans-Serif" font-size="10.00">sys/stat.h</text>
</g>
<!-- Node6&#45;&gt;Node28 -->
<g id="edge28" class="edge"><title>Node6&#45;&gt;Node28</title>
<path fill="none" stroke="midnightblue" d="M1217,-112.083C1217,-105.006 1217,-94.8611 1217,-85.9865"/>
<polygon fill="midnightblue" stroke="midnightblue" points="1220.5,-85.751 1217,-75.7511 1213.5,-85.7511 1220.5,-85.751"/>
</g>
<!-- Node29 -->
<g id="node29" class="node"><title>Node29</title>
<polygon fill="none" stroke="#bfbfbf" points="1265.5,-56.5 1265.5,-75.5 1316.5,-75.5 1316.5,-56.5 1265.5,-56.5"/>
<text text-anchor="middle" x="1291" y="-63.5" font-family="Helvetica,sans-Serif" font-size="10.00">unistd.h</text>
</g>
<!-- Node6&#45;&gt;Node29 -->
<g id="edge29" class="edge"><title>Node6&#45;&gt;Node29</title>
<path fill="none" stroke="midnightblue" d="M1228.89,-112.324C1240.15,-104.107 1257.29,-91.6017 1270.71,-81.8069"/>
<polygon fill="midnightblue" stroke="midnightblue" points="1272.88,-84.5559 1278.89,-75.8339 1268.75,-78.9014 1272.88,-84.5559"/>
</g>
<!-- Node30 -->
<g id="node30" class="node"><title>Node30</title>
<polygon fill="none" stroke="#bfbfbf" points="1335,-56.5 1335,-75.5 1381,-75.5 1381,-56.5 1335,-56.5"/>
<text text-anchor="middle" x="1358" y="-63.5" font-family="Helvetica,sans-Serif" font-size="10.00">dlfcn.h</text>
</g>
<!-- Node6&#45;&gt;Node30 -->
<g id="edge30" class="edge"><title>Node6&#45;&gt;Node30</title>
<path fill="none" stroke="midnightblue" d="M1239.34,-112.444C1262.75,-103.478 1299.74,-89.314 1326.19,-79.1827"/>
<polygon fill="midnightblue" stroke="midnightblue" points="1327.68,-82.3615 1335.76,-75.5164 1325.17,-75.8245 1327.68,-82.3615"/>
</g>
<!-- Node31 -->
<g id="node31" class="node"><title>Node31</title>
<polygon fill="none" stroke="#bfbfbf" points="1399,-56.5 1399,-75.5 1477,-75.5 1477,-56.5 1399,-56.5"/>
<text text-anchor="middle" x="1438" y="-63.5" font-family="Helvetica,sans-Serif" font-size="10.00">ext/hash_map</text>
</g>
<!-- Node6&#45;&gt;Node31 -->
<g id="edge31" class="edge"><title>Node6&#45;&gt;Node31</title>
<path fill="none" stroke="midnightblue" d="M1252.02,-112.444C1290.25,-103.102 1351.57,-88.1194 1393.26,-77.9326"/>
<polygon fill="midnightblue" stroke="midnightblue" points="1394.26,-81.2901 1403.15,-75.5164 1392.6,-74.4901 1394.26,-81.2901"/>
</g>
<!-- Node32 -->
<g id="node32" class="node"><title>Node32</title>
<polygon fill="none" stroke="#bfbfbf" points="1495.5,-56.5 1495.5,-75.5 1568.5,-75.5 1568.5,-56.5 1495.5,-56.5"/>
<text text-anchor="middle" x="1532" y="-63.5" font-family="Helvetica,sans-Serif" font-size="10.00">ext/hash_set</text>
</g>
<!-- Node6&#45;&gt;Node32 -->
<g id="edge32" class="edge"><title>Node6&#45;&gt;Node32</title>
<path fill="none" stroke="midnightblue" d="M1266.16,-113.192C1318.03,-104.86 1402.44,-91.0379 1485.27,-76.0911"/>
<polygon fill="midnightblue" stroke="midnightblue" points="1486.14,-79.4897 1495.36,-74.263 1484.9,-72.6018 1486.14,-79.4897"/>
</g>
<!-- Node33 -->
<g id="node33" class="node"><title>Node33</title>
<polygon fill="none" stroke="#bfbfbf" points="1586.5,-56.5 1586.5,-75.5 1657.5,-75.5 1657.5,-56.5 1586.5,-56.5"/>
<text text-anchor="middle" x="1622" y="-63.5" font-family="Helvetica,sans-Serif" font-size="10.00">sys/param.h</text>
</g>
<!-- Node6&#45;&gt;Node33 -->
<g id="edge33" class="edge"><title>Node6&#45;&gt;Node33</title>
<path fill="none" stroke="midnightblue" d="M1266.07,-116.015C1333.55,-108.907 1458.97,-94.7879 1575.97,-76.0583"/>
<polygon fill="midnightblue" stroke="midnightblue" points="1576.87,-79.4594 1586.18,-74.4089 1575.75,-72.549 1576.87,-79.4594"/>
</g>
<!-- Node34 -->
<g id="node34" class="node"><title>Node34</title>
<polygon fill="none" stroke="#bfbfbf" points="1676,-56.5 1676,-75.5 1842,-75.5 1842,-56.5 1676,-56.5"/>
<text text-anchor="middle" x="1759" y="-63.5" font-family="Helvetica,sans-Serif" font-size="10.00">CoreFoundation/CoreFoundation.h</text>
</g>
<!-- Node6&#45;&gt;Node34 -->
<g id="edge34" class="edge"><title>Node6&#45;&gt;Node34</title>
<path fill="none" stroke="midnightblue" d="M1266.05,-116.113C1356.23,-107.128 1549.7,-87.8528 1665.64,-76.3018"/>
<polygon fill="midnightblue" stroke="midnightblue" points="1666.31,-79.7518 1675.92,-75.2776 1665.62,-72.7863 1666.31,-79.7518"/>
</g>
<!-- Node35 -->
<g id="node35" class="node"><title>Node35</title>
<polygon fill="none" stroke="#bfbfbf" points="1860,-56.5 1860,-75.5 1984,-75.5 1984,-56.5 1860,-56.5"/>
<text text-anchor="middle" x="1922" y="-63.5" font-family="Helvetica,sans-Serif" font-size="10.00">emscripten/emscripten.h</text>
</g>
<!-- Node6&#45;&gt;Node35 -->
<g id="edge35" class="edge"><title>Node6&#45;&gt;Node35</title>
<path fill="none" stroke="midnightblue" d="M1266.4,-118.425C1371.65,-112.737 1625.98,-97.9228 1849.73,-76.0759"/>
<polygon fill="midnightblue" stroke="midnightblue" points="1850.07,-79.5586 1859.68,-75.0969 1849.39,-72.5922 1850.07,-79.5586"/>
</g>
<!-- Node37 -->
<g id="node37" class="node"><title>Node37</title>
<g id="a_node37"><a xlink:href="_ogre_memory_allocated_object_8h.html" target="_top" xlink:title="OgreMemoryAllocatedObject.h">
<polygon fill="none" stroke="black" points="2901,-56.5 2901,-75.5 3051,-75.5 3051,-56.5 2901,-56.5"/>
<text text-anchor="middle" x="2976" y="-63.5" font-family="Helvetica,sans-Serif" font-size="10.00">OgreMemoryAllocatedObject.h</text>
</a>
</g>
</g>
<!-- Node36&#45;&gt;Node37 -->
<g id="edge37" class="edge"><title>Node36&#45;&gt;Node37</title>
<path fill="none" stroke="midnightblue" d="M2774.87,-112.444C2816.48,-103.043 2883.37,-87.9291 2928.47,-77.7393"/>
<polygon fill="midnightblue" stroke="midnightblue" points="2929.32,-81.1343 2938.31,-75.5164 2927.78,-74.3064 2929.32,-81.1343"/>
</g>
<!-- Node36&#45;&gt;Node38 -->
<g id="edge41" class="edge"><title>Node36&#45;&gt;Node38</title>
<path fill="none" stroke="midnightblue" d="M2735,-112.289C2731.27,-98.1425 2721.87,-70.3167 2703,-56 2679.77,-38.3748 2606.94,-25.5952 2553.1,-18.2552"/>
<polygon fill="midnightblue" stroke="midnightblue" points="2553.32,-14.7536 2542.94,-16.904 2552.4,-21.6924 2553.32,-14.7536"/>
</g>
<!-- Node36&#45;&gt;Node39 -->
<g id="edge49" class="edge"><title>Node36&#45;&gt;Node39</title>
<path fill="none" stroke="midnightblue" d="M2811.35,-114.617C2892.26,-106.972 3015.98,-93.0367 3060,-76 3089.95,-64.4095 3119.73,-41.7565 3137.76,-26.4973"/>
<polygon fill="midnightblue" stroke="midnightblue" points="3140.35,-28.8795 3145.61,-19.6813 3135.77,-23.5931 3140.35,-28.8795"/>
</g>
<!-- Node40 -->
<g id="node40" class="node"><title>Node40</title>
<g id="a_node40"><a xlink:href="_ogre_memory_s_t_l_allocator_8h.html" target="_top" xlink:title="OgreMemorySTLAllocator.h">
<polygon fill="none" stroke="black" points="2557.5,-56.5 2557.5,-75.5 2694.5,-75.5 2694.5,-56.5 2557.5,-56.5"/>
<text text-anchor="middle" x="2626" y="-63.5" font-family="Helvetica,sans-Serif" font-size="10.00">OgreMemorySTLAllocator.h</text>
</a>
</g>
</g>
<!-- Node36&#45;&gt;Node40 -->
<g id="edge42" class="edge"><title>Node36&#45;&gt;Node40</title>
<path fill="none" stroke="midnightblue" d="M2719.17,-112.324C2701.28,-103.625 2673.52,-90.1202 2652.95,-80.113"/>
<polygon fill="midnightblue" stroke="midnightblue" points="2654.31,-76.8819 2643.79,-75.6545 2651.25,-83.1765 2654.31,-76.8819"/>
</g>
<!-- Node41 -->
<g id="node41" class="node"><title>Node41</title>
<g id="a_node41"><a xlink:href="_ogre_memory_ned_pooling_8h.html" target="_top" xlink:title="OgreMemoryNedPooling.h">
<polygon fill="none" stroke="black" points="2751.5,-56.5 2751.5,-75.5 2882.5,-75.5 2882.5,-56.5 2751.5,-56.5"/>
<text text-anchor="middle" x="2817" y="-63.5" font-family="Helvetica,sans-Serif" font-size="10.00">OgreMemoryNedPooling.h</text>
</a>
</g>
</g>
<!-- Node36&#45;&gt;Node41 -->
<g id="edge46" class="edge"><title>Node36&#45;&gt;Node41</title>
<path fill="none" stroke="midnightblue" d="M2749.85,-112.324C2762.22,-103.979 2781.13,-91.2122 2795.74,-81.3524"/>
<polygon fill="midnightblue" stroke="midnightblue" points="2797.85,-84.1503 2804.18,-75.6545 2793.93,-78.3483 2797.85,-84.1503"/>
</g>
<!-- Node37&#45;&gt;Node2 -->
<g id="edge38" class="edge"><title>Node37&#45;&gt;Node2</title>
<path fill="none" stroke="midnightblue" d="M2958.65,-75.6012C2930.29,-89.3418 2871.96,-116.292 2820,-132 2763.71,-149.019 2697.69,-161.126 2650.68,-168.464"/>
<polygon fill="midnightblue" stroke="midnightblue" points="2650,-165.027 2640.65,-170.003 2651.06,-171.946 2650,-165.027"/>
</g>
<!-- Node37&#45;&gt;Node38 -->
<g id="edge39" class="edge"><title>Node37&#45;&gt;Node38</title>
<path fill="none" stroke="midnightblue" d="M2900.75,-56.6217C2805.03,-45.9643 2641.53,-27.7596 2552.75,-17.8755"/>
<polygon fill="midnightblue" stroke="midnightblue" points="2552.89,-14.3697 2542.57,-16.7416 2552.12,-21.3267 2552.89,-14.3697"/>
</g>
<!-- Node37&#45;&gt;Node39 -->
<g id="edge40" class="edge"><title>Node37&#45;&gt;Node39</title>
<path fill="none" stroke="midnightblue" d="M3004.36,-56.4435C3034.74,-47.2801 3083.11,-32.6876 3116.82,-22.5192"/>
<polygon fill="midnightblue" stroke="midnightblue" points="3118.21,-25.7555 3126.77,-19.5164 3116.18,-19.0538 3118.21,-25.7555"/>
</g>
<!-- Node40&#45;&gt;Node2 -->
<g id="edge43" class="edge"><title>Node40&#45;&gt;Node2</title>
<path fill="none" stroke="midnightblue" d="M2623.11,-75.5914C2617.12,-93.3881 2603.25,-134.625 2595.16,-158.674"/>
<polygon fill="midnightblue" stroke="midnightblue" points="2591.77,-157.774 2591.9,-168.368 2598.41,-160.006 2591.77,-157.774"/>
</g>
<!-- Node40&#45;&gt;Node38 -->
<g id="edge44" class="edge"><title>Node40&#45;&gt;Node38</title>
<path fill="none" stroke="midnightblue" d="M2604.61,-56.4435C2582.29,-47.5171 2547.1,-33.4387 2521.79,-23.3168"/>
<polygon fill="midnightblue" stroke="midnightblue" points="2522.88,-19.9807 2512.29,-19.5164 2520.28,-26.4801 2522.88,-19.9807"/>
</g>
<!-- Node40&#45;&gt;Node39 -->
<g id="edge45" class="edge"><title>Node40&#45;&gt;Node39</title>
<path fill="none" stroke="midnightblue" d="M2694.62,-57.9958C2798.3,-47.412 2993.34,-27.5024 3092.98,-17.3309"/>
<polygon fill="midnightblue" stroke="midnightblue" points="3093.6,-20.7859 3103.19,-16.2884 3092.89,-13.8221 3093.6,-20.7859"/>
</g>
<!-- Node41&#45;&gt;Node38 -->
<g id="edge47" class="edge"><title>Node41&#45;&gt;Node38</title>
<path fill="none" stroke="midnightblue" d="M2765.34,-56.4435C2707.52,-46.8654 2613.89,-31.3556 2552.38,-21.1667"/>
<polygon fill="midnightblue" stroke="midnightblue" points="2552.85,-17.6977 2542.41,-19.5164 2551.71,-24.6036 2552.85,-17.6977"/>
</g>
<!-- Node41&#45;&gt;Node39 -->
<g id="edge48" class="edge"><title>Node41&#45;&gt;Node39</title>
<path fill="none" stroke="midnightblue" d="M2870.56,-56.4435C2931.16,-46.7609 3029.71,-31.0166 3093.44,-20.8353"/>
<polygon fill="midnightblue" stroke="midnightblue" points="3094.03,-24.2847 3103.36,-19.2508 3092.93,-17.3723 3094.03,-24.2847"/>
</g>
<!-- Node42&#45;&gt;Node2 -->
<g id="edge52" class="edge"><title>Node42&#45;&gt;Node2</title>
<path fill="none" stroke="midnightblue" d="M2554.16,-336.467C2513.57,-328.991 2463.63,-316.704 2451,-300 2432.01,-274.891 2466.87,-237.588 2482,-224 2499.41,-208.367 2523.04,-197.658 2543.66,-190.622"/>
<polygon fill="midnightblue" stroke="midnightblue" points="2544.75,-193.947 2553.2,-187.55 2542.61,-187.285 2544.75,-193.947"/>
</g>
<!-- Node42&#45;&gt;Node38 -->
<g id="edge79" class="edge"><title>Node42&#45;&gt;Node38</title>
<path fill="none" stroke="midnightblue" d="M2554.49,-344.122C2180.05,-338.019 38,-300.26 38,-235 38,-235 38,-235 38,-121 38,-81.985 61.4763,-72.1319 97,-56 206.218,-6.40261 2065.08,-9.6619 2429.35,-10.7814"/>
<polygon fill="midnightblue" stroke="midnightblue" points="2429.43,-14.2816 2439.44,-10.8131 2429.45,-7.28161 2429.43,-14.2816"/>
</g>
<!-- Node42&#45;&gt;Node39 -->
<g id="edge80" class="edge"><title>Node42&#45;&gt;Node39</title>
<path fill="none" stroke="midnightblue" d="M2665.65,-342.267C2833.45,-333.293 3323,-301.421 3323,-235 3323,-235 3323,-235 3323,-121 3323,-65.2274 3257.39,-36.204 3208.18,-22.2781"/>
<polygon fill="midnightblue" stroke="midnightblue" points="3208.83,-18.8296 3198.26,-19.611 3207.01,-25.5892 3208.83,-18.8296"/>
</g>
<!-- Node43 -->
<g id="node43" class="node"><title>Node43</title>
<g id="a_node43"><a xlink:href="_ogre_texture_unit_state_8h.html" target="_top" xlink:title="OgreTextureUnitState.h">
<polygon fill="none" stroke="red" points="2743,-280.5 2743,-299.5 2863,-299.5 2863,-280.5 2743,-280.5"/>
<text text-anchor="middle" x="2803" y="-287.5" font-family="Helvetica,sans-Serif" font-size="10.00">OgreTextureUnitState.h</text>
</a>
</g>
</g>
<!-- Node42&#45;&gt;Node43 -->
<g id="edge53" class="edge"><title>Node42&#45;&gt;Node43</title>
<path fill="none" stroke="midnightblue" d="M2640.58,-336.444C2673.61,-327.201 2726.39,-312.436 2762.77,-302.257"/>
<polygon fill="midnightblue" stroke="midnightblue" points="2763.87,-305.582 2772.56,-299.516 2761.99,-298.84 2763.87,-305.582"/>
</g>
<!-- Node44 -->
<g id="node44" class="node"><title>Node44</title>
<g id="a_node44"><a xlink:href="_ogre_common_8h.html" target="_top" xlink:title="OgreCommon.h">
<polygon fill="none" stroke="black" points="3209,-168.5 3209,-187.5 3295,-187.5 3295,-168.5 3209,-168.5"/>
<text text-anchor="middle" x="3252" y="-175.5" font-family="Helvetica,sans-Serif" font-size="10.00">OgreCommon.h</text>
</a>
</g>
</g>
<!-- Node42&#45;&gt;Node44 -->
<g id="edge62" class="edge"><title>Node42&#45;&gt;Node44</title>
<path fill="none" stroke="midnightblue" d="M2665.55,-342.335C2799.15,-334.922 3133.81,-310.072 3221,-244 3235.77,-232.808 3243.83,-212.787 3248,-197.912"/>
<polygon fill="midnightblue" stroke="midnightblue" points="3251.5,-198.316 3250.47,-187.772 3244.7,-196.656 3251.5,-198.316"/>
</g>
<!-- Node46 -->
<g id="node46" class="node"><title>Node46</title>
<g id="a_node46"><a xlink:href="_ogre_render_system_capabilities_8h.html" target="_top" xlink:title="OgreRenderSystemCapabilities.h">
<polygon fill="none" stroke="red" points="2166,-224.5 2166,-243.5 2328,-243.5 2328,-224.5 2166,-224.5"/>
<text text-anchor="middle" x="2247" y="-231.5" font-family="Helvetica,sans-Serif" font-size="10.00">OgreRenderSystemCapabilities.h</text>
</a>
</g>
</g>
<!-- Node42&#45;&gt;Node46 -->
<g id="edge63" class="edge"><title>Node42&#45;&gt;Node46</title>
<path fill="none" stroke="midnightblue" d="M2566.09,-336.446C2526.89,-328.399 2468.09,-315.316 2418,-300 2367.27,-284.49 2309.95,-261.552 2276.23,-247.479"/>
<polygon fill="midnightblue" stroke="midnightblue" points="2277.54,-244.233 2266.97,-243.587 2274.83,-250.686 2277.54,-244.233"/>
</g>
<!-- Node47 -->
<g id="node47" class="node"><title>Node47</title>
<g id="a_node47"><a xlink:href="_ogre_config_option_map_8h.html" target="_top" xlink:title="OgreConfigOptionMap.h">
<polygon fill="none" stroke="red" points="2460,-280.5 2460,-299.5 2582,-299.5 2582,-280.5 2460,-280.5"/>
<text text-anchor="middle" x="2521" y="-287.5" font-family="Helvetica,sans-Serif" font-size="10.00">OgreConfigOptionMap.h</text>
</a>
</g>
</g>
<!-- Node42&#45;&gt;Node47 -->
<g id="edge67" class="edge"><title>Node42&#45;&gt;Node47</title>
<path fill="none" stroke="midnightblue" d="M2595.7,-336.324C2581.82,-327.9 2560.51,-314.971 2544.2,-305.074"/>
<polygon fill="midnightblue" stroke="midnightblue" points="2545.63,-301.85 2535.26,-299.655 2542,-307.834 2545.63,-301.85"/>
</g>
<!-- Node48 -->
<g id="node48" class="node"><title>Node48</title>
<g id="a_node48"><a xlink:href="_ogre_gpu_program_8h.html" target="_top" xlink:title="OgreGpuProgram.h">
<polygon fill="none" stroke="red" points="2498.5,-224.5 2498.5,-243.5 2599.5,-243.5 2599.5,-224.5 2498.5,-224.5"/>
<text text-anchor="middle" x="2549" y="-231.5" font-family="Helvetica,sans-Serif" font-size="10.00">OgreGpuProgram.h</text>
</a>
</g>
</g>
<!-- Node42&#45;&gt;Node48 -->
<g id="edge69" class="edge"><title>Node42&#45;&gt;Node48</title>
<path fill="none" stroke="midnightblue" d="M2608.74,-336.078C2606.61,-323.054 2601.47,-298.39 2591,-280 2584.75,-269.022 2575.31,-258.586 2566.97,-250.534"/>
<polygon fill="midnightblue" stroke="midnightblue" points="2569.17,-247.802 2559.44,-243.603 2564.43,-252.952 2569.17,-247.802"/>
</g>
<!-- Node49 -->
<g id="node49" class="node"><title>Node49</title>
<g id="a_node49"><a xlink:href="_ogre_plane_8h.html" target="_top" xlink:title="OgrePlane.h">
<polygon fill="none" stroke="red" points="2638.5,-280.5 2638.5,-299.5 2709.5,-299.5 2709.5,-280.5 2638.5,-280.5"/>
<text text-anchor="middle" x="2674" y="-287.5" font-family="Helvetica,sans-Serif" font-size="10.00">OgrePlane.h</text>
</a>
</g>
</g>
<!-- Node42&#45;&gt;Node49 -->
<g id="edge73" class="edge"><title>Node42&#45;&gt;Node49</title>
<path fill="none" stroke="midnightblue" d="M2620.28,-336.324C2629.84,-328.263 2644.28,-316.077 2655.78,-306.369"/>
<polygon fill="midnightblue" stroke="midnightblue" points="2658.14,-308.958 2663.53,-299.834 2653.63,-303.608 2658.14,-308.958"/>
</g>
<!-- Node50 -->
<g id="node50" class="node"><title>Node50</title>
<g id="a_node50"><a xlink:href="_ogre_hardware_vertex_buffer_8h.html" target="_top" xlink:title="OgreHardwareVertexBuffer.h">
<polygon fill="none" stroke="red" points="2846.5,-224.5 2846.5,-243.5 2989.5,-243.5 2989.5,-224.5 2846.5,-224.5"/>
<text text-anchor="middle" x="2918" y="-231.5" font-family="Helvetica,sans-Serif" font-size="10.00">OgreHardwareVertexBuffer.h</text>
</a>
</g>
</g>
<!-- Node42&#45;&gt;Node50 -->
<g id="edge75" class="edge"><title>Node42&#45;&gt;Node50</title>
<path fill="none" stroke="midnightblue" d="M2665.56,-340.454C2732.01,-334.167 2838.47,-321.137 2872,-300 2889.67,-288.858 2902.51,-268.219 2910.06,-253.178"/>
<polygon fill="midnightblue" stroke="midnightblue" points="2913.36,-254.386 2914.44,-243.846 2907.03,-251.412 2913.36,-254.386"/>
</g>
<!-- Node43&#45;&gt;Node2 -->
<g id="edge54" class="edge"><title>Node43&#45;&gt;Node2</title>
<path fill="none" stroke="midnightblue" d="M2775.04,-280.37C2750.62,-272.362 2714.56,-259.382 2685,-244 2656.79,-229.323 2626.84,-208.007 2608.04,-193.836"/>
<polygon fill="midnightblue" stroke="midnightblue" points="2610.07,-190.982 2600,-187.695 2605.82,-196.545 2610.07,-190.982"/>
</g>
<!-- Node43&#45;&gt;Node38 -->
<g id="edge60" class="edge"><title>Node43&#45;&gt;Node38</title>
<path fill="none" stroke="midnightblue" d="M2804.99,-280.427C2807.59,-266.965 2810.46,-240.686 2798,-224 2763.7,-178.069 2604.21,-164.524 2557,-132 2529.52,-113.069 2522.56,-105.516 2507,-76 2499.38,-61.5427 2495.3,-43.355 2493.18,-29.8977"/>
<polygon fill="midnightblue" stroke="midnightblue" points="2496.63,-29.3282 2491.81,-19.8919 2489.7,-30.2728 2496.63,-29.3282"/>
</g>
<!-- Node43&#45;&gt;Node39 -->
<g id="edge61" class="edge"><title>Node43&#45;&gt;Node39</title>
<path fill="none" stroke="midnightblue" d="M2863.07,-281.617C2902.72,-275.204 2955.07,-263.737 2998,-244 3099.51,-197.332 3152.84,-182.998 3185,-76 3190.17,-58.7856 3179.93,-40.2761 3170.03,-27.429"/>
<polygon fill="midnightblue" stroke="midnightblue" points="3172.53,-24.9573 3163.43,-19.525 3167.15,-29.4441 3172.53,-24.9573"/>
</g>
<!-- Node43&#45;&gt;Node44 -->
<g id="edge55" class="edge"><title>Node43&#45;&gt;Node44</title>
<path fill="none" stroke="midnightblue" d="M2863.01,-287.35C2958.18,-283.868 3138.72,-273.485 3195,-244 3215.7,-233.156 3232.3,-211.461 3242.14,-196.124"/>
<polygon fill="midnightblue" stroke="midnightblue" points="3245.15,-197.911 3247.36,-187.55 3239.17,-194.269 3245.15,-197.911"/>
</g>
<!-- Node45 -->
<g id="node45" class="node"><title>Node45</title>
<g id="a_node45"><a xlink:href="_ogre_blend_mode_8h.html" target="_top" xlink:title="OgreBlendMode.h">
<polygon fill="none" stroke="red" points="2694.5,-224.5 2694.5,-243.5 2789.5,-243.5 2789.5,-224.5 2694.5,-224.5"/>
<text text-anchor="middle" x="2742" y="-231.5" font-family="Helvetica,sans-Serif" font-size="10.00">OgreBlendMode.h</text>
</a>
</g>
</g>
<!-- Node43&#45;&gt;Node45 -->
<g id="edge58" class="edge"><title>Node43&#45;&gt;Node45</title>
<path fill="none" stroke="midnightblue" d="M2793.2,-280.324C2784.18,-272.341 2770.59,-260.313 2759.68,-250.653"/>
<polygon fill="midnightblue" stroke="midnightblue" points="2761.79,-247.842 2751.98,-243.834 2757.15,-253.083 2761.79,-247.842"/>
</g>
<!-- Node44&#45;&gt;Node38 -->
<g id="edge56" class="edge"><title>Node44&#45;&gt;Node38</title>
<path fill="none" stroke="midnightblue" d="M3208.65,-176.031C3089.38,-173.003 2758.29,-162.055 2654,-132 2602.8,-117.246 2589.81,-109.022 2548,-76 2530.41,-62.112 2513.95,-42.3155 2503.29,-28.2255"/>
<polygon fill="midnightblue" stroke="midnightblue" points="2505.91,-25.8848 2497.16,-19.9098 2500.27,-30.0368 2505.91,-25.8848"/>
</g>
<!-- Node44&#45;&gt;Node39 -->
<g id="edge57" class="edge"><title>Node44&#45;&gt;Node39</title>
<path fill="none" stroke="midnightblue" d="M3254.17,-168.488C3259.04,-147.399 3268.61,-91.8477 3245,-56 3234.8,-40.512 3217.58,-30.1308 3200.92,-23.2844"/>
<polygon fill="midnightblue" stroke="midnightblue" points="3201.82,-19.8855 3191.23,-19.6499 3199.36,-26.4395 3201.82,-19.8855"/>
</g>
<!-- Node45&#45;&gt;Node2 -->
<g id="edge59" class="edge"><title>Node45&#45;&gt;Node2</title>
<path fill="none" stroke="midnightblue" d="M2717.76,-224.444C2692.13,-215.399 2651.51,-201.064 2622.76,-190.916"/>
<polygon fill="midnightblue" stroke="midnightblue" points="2623.72,-187.544 2613.13,-187.516 2621.39,-194.145 2623.72,-187.544"/>
</g>
<!-- Node46&#45;&gt;Node2 -->
<g id="edge64" class="edge"><title>Node46&#45;&gt;Node2</title>
<path fill="none" stroke="midnightblue" d="M2301.19,-224.444C2362.69,-214.733 2462.81,-198.925 2527.27,-188.746"/>
<polygon fill="midnightblue" stroke="midnightblue" points="2527.97,-192.18 2537.3,-187.163 2526.88,-185.265 2527.97,-192.18"/>
</g>
<!-- Node46&#45;&gt;Node38 -->
<g id="edge65" class="edge"><title>Node46&#45;&gt;Node38</title>
<path fill="none" stroke="midnightblue" d="M2165.7,-229.861C1986.79,-222.891 1545.47,-205.367 1176,-188 936.608,-176.747 264.004,-305.807 99,-132 92.88,-125.553 97.9139,-120.822 99,-112 102.135,-86.5373 92.929,-71.9789 113,-56 159.658,-18.8544 2059.83,-12.1024 2429.17,-11.1402"/>
<polygon fill="midnightblue" stroke="midnightblue" points="2429.4,-14.6397 2439.39,-11.114 2429.38,-7.63971 2429.4,-14.6397"/>
</g>
<!-- Node46&#45;&gt;Node39 -->
<g id="edge66" class="edge"><title>Node46&#45;&gt;Node39</title>
<path fill="none" stroke="midnightblue" d="M2278.8,-224.496C2330.65,-210.891 2436.78,-184.128 2528,-168 2778.53,-123.705 2870.42,-199.238 3093,-76 3114.02,-64.3643 3132.19,-43.199 3143.33,-28.1842"/>
<polygon fill="midnightblue" stroke="midnightblue" points="3146.37,-29.9463 3149.32,-19.7704 3140.67,-25.8858 3146.37,-29.9463"/>
</g>
<!-- Node47&#45;&gt;Node2 -->
<g id="edge68" class="edge"><title>Node47&#45;&gt;Node2</title>
<path fill="none" stroke="midnightblue" d="M2510.96,-280.242C2497.52,-267.424 2476.71,-243.012 2489,-224 2499.38,-207.948 2517,-197.565 2534.58,-190.874"/>
<polygon fill="midnightblue" stroke="midnightblue" points="2535.99,-194.091 2544.3,-187.524 2533.71,-187.473 2535.99,-194.091"/>
</g>
<!-- Node48&#45;&gt;Node2 -->
<g id="edge70" class="edge"><title>Node48&#45;&gt;Node2</title>
<path fill="none" stroke="midnightblue" d="M2555.61,-224.083C2561.26,-216.455 2569.54,-205.264 2576.45,-195.941"/>
<polygon fill="midnightblue" stroke="midnightblue" points="2579.38,-197.87 2582.52,-187.751 2573.75,-193.703 2579.38,-197.87"/>
</g>
<!-- Node48&#45;&gt;Node38 -->
<g id="edge71" class="edge"><title>Node48&#45;&gt;Node38</title>
<path fill="none" stroke="midnightblue" d="M2498.27,-230.854C2230.7,-219.461 981.021,-165.332 595,-132 387.678,-114.098 -12.7335,-204.541 133,-56 174.405,-13.7977 2061.5,-11.1176 2429.25,-10.9963"/>
<polygon fill="midnightblue" stroke="midnightblue" points="2429.44,-14.4964 2439.43,-10.9935 2429.43,-7.49638 2429.44,-14.4964"/>
</g>
<!-- Node48&#45;&gt;Node39 -->
<g id="edge72" class="edge"><title>Node48&#45;&gt;Node39</title>
<path fill="none" stroke="midnightblue" d="M2599.66,-225.404C2726.24,-205.505 3051.81,-148.354 3131,-76 3144.16,-63.9738 3150.13,-44.0843 3152.82,-29.4683"/>
<polygon fill="midnightblue" stroke="midnightblue" points="3156.29,-29.9443 3154.3,-19.5369 3149.36,-28.9099 3156.29,-29.9443"/>
</g>
<!-- Node49&#45;&gt;Node2 -->
<g id="edge74" class="edge"><title>Node49&#45;&gt;Node2</title>
<path fill="none" stroke="midnightblue" d="M2667.33,-280.368C2653.24,-262.135 2620.24,-219.426 2601.89,-195.675"/>
<polygon fill="midnightblue" stroke="midnightblue" points="2604.52,-193.364 2595.64,-187.591 2598.98,-197.644 2604.52,-193.364"/>
</g>
<!-- Node50&#45;&gt;Node2 -->
<g id="edge76" class="edge"><title>Node50&#45;&gt;Node2</title>
<path fill="none" stroke="midnightblue" d="M2865.87,-224.444C2807.43,-214.851 2712.74,-199.31 2650.67,-189.122"/>
<polygon fill="midnightblue" stroke="midnightblue" points="2651.05,-185.638 2640.62,-187.472 2649.92,-192.545 2651.05,-185.638"/>
</g>
<!-- Node50&#45;&gt;Node38 -->
<g id="edge77" class="edge"><title>Node50&#45;&gt;Node38</title>
<path fill="none" stroke="midnightblue" d="M2899.52,-224.389C2869.95,-210.874 2809.95,-184.524 2757,-168 2687.42,-146.285 2663.11,-162.687 2597,-132 2559.59,-114.635 2549.26,-107.804 2523,-76 2511.38,-61.9334 2502.66,-42.9431 2497.28,-29.1225"/>
<polygon fill="midnightblue" stroke="midnightblue" points="2500.56,-27.9052 2493.82,-19.7288 2493.99,-30.3223 2500.56,-27.9052"/>
</g>
<!-- Node50&#45;&gt;Node39 -->
<g id="edge78" class="edge"><title>Node50&#45;&gt;Node39</title>
<path fill="none" stroke="midnightblue" d="M2949.32,-224.491C3005.64,-207.285 3122.44,-162.429 3169,-76 3176.94,-61.2609 3171.39,-42.36 3165.09,-28.7434"/>
<polygon fill="midnightblue" stroke="midnightblue" points="3168.02,-26.802 3160.33,-19.5173 3161.8,-30.0095 3168.02,-26.802"/>
</g>
</g>
</svg>
