<?xml version="1.0" encoding="UTF-8" standalone="no"?>
<!DOCTYPE svg PUBLIC "-//W3C//DTD SVG 1.1//EN"
 "http://www.w3.org/Graphics/SVG/1.1/DTD/svg11.dtd">
<!-- Generated by graphviz version 2.38.0 (20140413.2041)
 -->
<!-- Title: OgrePageContentCollectionFactory.h Pages: 1 -->
<svg width="184pt" height="151pt"
 viewBox="0.00 0.00 184.00 151.00" xmlns="http://www.w3.org/2000/svg" xmlns:xlink="http://www.w3.org/1999/xlink">
<g id="graph0" class="graph" transform="scale(1 1) rotate(0) translate(4 147)">
<title>OgrePageContentCollectionFactory.h</title>
<!-- Node1 -->
<g id="node1" class="node"><title>Node1</title>
<polygon fill="#bfbfbf" stroke="black" points="19,-112.5 19,-142.5 157,-142.5 157,-112.5 19,-112.5"/>
<text text-anchor="start" x="27" y="-130.5" font-family="Helvetica,sans-Serif" font-size="10.00">OgrePageContentCollection</text>
<text text-anchor="middle" x="88" y="-119.5" font-family="Helvetica,sans-Serif" font-size="10.00">Factory.h</text>
</g>
<!-- Node2 -->
<g id="node2" class="node"><title>Node2</title>
<g id="a_node2"><a xlink:href="_ogre_simple_page_content_collection_8h.html" target="_top" xlink:title="OgreSimplePageContentCollection.h">
<polygon fill="none" stroke="black" points="-1.42109e-14,-56.5 -1.42109e-14,-75.5 176,-75.5 176,-56.5 -1.42109e-14,-56.5"/>
<text text-anchor="middle" x="88" y="-63.5" font-family="Helvetica,sans-Serif" font-size="10.00">OgreSimplePageContentCollection.h</text>
</a>
</g>
</g>
<!-- Node1&#45;&gt;Node2 -->
<g id="edge1" class="edge"><title>Node1&#45;&gt;Node2</title>
<path fill="none" stroke="midnightblue" d="M88,-102.289C88,-92.857 88,-82.6548 88,-75.6578"/>
<polygon fill="midnightblue" stroke="midnightblue" points="84.5001,-102.399 88,-112.399 91.5001,-102.399 84.5001,-102.399"/>
</g>
<!-- Node3 -->
<g id="node3" class="node"><title>Node3</title>
<g id="a_node3"><a xlink:href="_ogre_paging_8h.html" target="_top" xlink:title="OgrePaging.h">
<polygon fill="none" stroke="black" points="50,-0.5 50,-19.5 126,-19.5 126,-0.5 50,-0.5"/>
<text text-anchor="middle" x="88" y="-7.5" font-family="Helvetica,sans-Serif" font-size="10.00">OgrePaging.h</text>
</a>
</g>
</g>
<!-- Node2&#45;&gt;Node3 -->
<g id="edge2" class="edge"><title>Node2&#45;&gt;Node3</title>
<path fill="none" stroke="midnightblue" d="M88,-45.8045C88,-36.9102 88,-26.7798 88,-19.7511"/>
<polygon fill="midnightblue" stroke="midnightblue" points="84.5001,-46.083 88,-56.083 91.5001,-46.083 84.5001,-46.083"/>
</g>
</g>
</svg>
