<?xml version="1.0" encoding="UTF-8" standalone="no"?>
<!DOCTYPE svg PUBLIC "-//W3C//DTD SVG 1.1//EN"
 "http://www.w3.org/Graphics/SVG/1.1/DTD/svg11.dtd">
<!-- Generated by graphviz version 2.38.0 (20140413.2041)
 -->
<!-- Title: OgreGLES2Prerequisites.h Pages: 1 -->
<svg width="3239pt" height="364pt"
 viewBox="0.00 0.00 3239.00 364.00" xmlns="http://www.w3.org/2000/svg" xmlns:xlink="http://www.w3.org/1999/xlink">
<g id="graph0" class="graph" transform="scale(1 1) rotate(0) translate(4 360)">
<title>OgreGLES2Prerequisites.h</title>
<!-- Node1 -->
<g id="node1" class="node"><title>Node1</title>
<polygon fill="#bfbfbf" stroke="black" points="2931,-336.5 2931,-355.5 3065,-355.5 3065,-336.5 2931,-336.5"/>
<text text-anchor="middle" x="2998" y="-343.5" font-family="Helvetica,sans-Serif" font-size="10.00">OgreGLES2Prerequisites.h</text>
</g>
<!-- Node2 -->
<g id="node2" class="node"><title>Node2</title>
<g id="a_node2"><a xlink:href="_ogre_prerequisites_8h.html" target="_top" xlink:title="OgrePrerequisites.h">
<polygon fill="none" stroke="black" points="2693.5,-168.5 2693.5,-187.5 2796.5,-187.5 2796.5,-168.5 2693.5,-168.5"/>
<text text-anchor="middle" x="2745" y="-175.5" font-family="Helvetica,sans-Serif" font-size="10.00">OgrePrerequisites.h</text>
</a>
</g>
</g>
<!-- Node1&#45;&gt;Node2 -->
<g id="edge1" class="edge"><title>Node1&#45;&gt;Node2</title>
<path fill="none" stroke="midnightblue" d="M2987.6,-336.457C2962.16,-315.761 2894.37,-261.859 2833,-224 2813.65,-212.066 2790.77,-200.434 2773.18,-191.986"/>
<polygon fill="midnightblue" stroke="midnightblue" points="2774.55,-188.761 2764.02,-187.639 2771.55,-195.086 2774.55,-188.761"/>
</g>
<!-- Node43 -->
<g id="node43" class="node"><title>Node43</title>
<g id="a_node43"><a xlink:href="_ogre_log_manager_8h.html" target="_top" xlink:title="OgreLogManager.h">
<polygon fill="none" stroke="black" points="2696.5,-280.5 2696.5,-299.5 2795.5,-299.5 2795.5,-280.5 2696.5,-280.5"/>
<text text-anchor="middle" x="2746" y="-287.5" font-family="Helvetica,sans-Serif" font-size="10.00">OgreLogManager.h</text>
</a>
</g>
</g>
<!-- Node1&#45;&gt;Node43 -->
<g id="edge51" class="edge"><title>Node1&#45;&gt;Node43</title>
<path fill="none" stroke="midnightblue" d="M2958.07,-336.444C2914.11,-327.023 2843.37,-311.866 2795.82,-301.675"/>
<polygon fill="midnightblue" stroke="midnightblue" points="2796.25,-298.189 2785.74,-299.516 2794.79,-305.034 2796.25,-298.189"/>
</g>
<!-- Node49 -->
<g id="node49" class="node"><title>Node49</title>
<g id="a_node49"><a xlink:href="_ogre_math_8h.html" target="_top" xlink:title="OgreMath.h">
<polygon fill="none" stroke="black" points="3007,-224.5 3007,-243.5 3075,-243.5 3075,-224.5 3007,-224.5"/>
<text text-anchor="middle" x="3041" y="-231.5" font-family="Helvetica,sans-Serif" font-size="10.00">OgreMath.h</text>
</a>
</g>
</g>
<!-- Node1&#45;&gt;Node49 -->
<g id="edge66" class="edge"><title>Node1&#45;&gt;Node49</title>
<path fill="none" stroke="midnightblue" d="M3001.37,-336.368C3008.38,-318.456 3024.61,-276.923 3033.98,-252.948"/>
<polygon fill="midnightblue" stroke="midnightblue" points="3037.26,-254.179 3037.64,-243.591 3030.74,-251.631 3037.26,-254.179"/>
</g>
<!-- Node50 -->
<g id="node50" class="node"><title>Node50</title>
<polygon fill="none" stroke="#bfbfbf" points="3045,-280.5 3045,-299.5 3135,-299.5 3135,-280.5 3045,-280.5"/>
<text text-anchor="middle" x="3090" y="-287.5" font-family="Helvetica,sans-Serif" font-size="10.00">GLES2/gles2w.h</text>
</g>
<!-- Node1&#45;&gt;Node50 -->
<g id="edge70" class="edge"><title>Node1&#45;&gt;Node50</title>
<path fill="none" stroke="midnightblue" d="M3012.78,-336.324C3027.27,-327.822 3049.57,-314.729 3066.49,-304.797"/>
<polygon fill="midnightblue" stroke="midnightblue" points="3068.4,-307.735 3075.26,-299.655 3064.86,-301.698 3068.4,-307.735"/>
</g>
<!-- Node3 -->
<g id="node3" class="node"><title>Node3</title>
<g id="a_node3"><a xlink:href="_ogre_platform_8h.html" target="_top" xlink:title="OgrePlatform.h">
<polygon fill="none" stroke="black" points="3137.5,-112.5 3137.5,-131.5 3220.5,-131.5 3220.5,-112.5 3137.5,-112.5"/>
<text text-anchor="middle" x="3179" y="-119.5" font-family="Helvetica,sans-Serif" font-size="10.00">OgrePlatform.h</text>
</a>
</g>
</g>
<!-- Node2&#45;&gt;Node3 -->
<g id="edge2" class="edge"><title>Node2&#45;&gt;Node3</title>
<path fill="none" stroke="midnightblue" d="M2796.92,-170.54C2880.51,-160.14 3043.95,-139.803 3127.36,-129.425"/>
<polygon fill="midnightblue" stroke="midnightblue" points="3127.88,-132.888 3137.37,-128.18 3127.01,-125.942 3127.88,-132.888"/>
</g>
<!-- Node6 -->
<g id="node6" class="node"><title>Node6</title>
<polygon fill="none" stroke="#bfbfbf" points="2413.5,-56.5 2413.5,-75.5 2454.5,-75.5 2454.5,-56.5 2413.5,-56.5"/>
<text text-anchor="middle" x="2434" y="-63.5" font-family="Helvetica,sans-Serif" font-size="10.00">string</text>
</g>
<!-- Node2&#45;&gt;Node6 -->
<g id="edge5" class="edge"><title>Node2&#45;&gt;Node6</title>
<path fill="none" stroke="midnightblue" d="M2720.86,-168.46C2664.75,-148.616 2525.69,-99.4318 2464.14,-77.6607"/>
<polygon fill="midnightblue" stroke="midnightblue" points="2465.2,-74.3243 2454.61,-74.2894 2462.87,-80.9237 2465.2,-74.3243"/>
</g>
<!-- Node7 -->
<g id="node7" class="node"><title>Node7</title>
<g id="a_node7"><a xlink:href="_ogre_std_headers_8h.html" target="_top" xlink:title="OgreStdHeaders.h">
<polygon fill="none" stroke="black" points="1405,-112.5 1405,-131.5 1503,-131.5 1503,-112.5 1405,-112.5"/>
<text text-anchor="middle" x="1454" y="-119.5" font-family="Helvetica,sans-Serif" font-size="10.00">OgreStdHeaders.h</text>
</a>
</g>
</g>
<!-- Node2&#45;&gt;Node7 -->
<g id="edge6" class="edge"><title>Node2&#45;&gt;Node7</title>
<path fill="none" stroke="midnightblue" d="M2693.19,-174.833C2487.84,-166.243 1731.62,-134.612 1513.35,-125.482"/>
<polygon fill="midnightblue" stroke="midnightblue" points="1513.2,-121.973 1503.06,-125.052 1512.91,-128.967 1513.2,-121.973"/>
</g>
<!-- Node37 -->
<g id="node37" class="node"><title>Node37</title>
<g id="a_node37"><a xlink:href="_ogre_memory_allocator_config_8h.html" target="_top" xlink:title="This file configures Ogre&#39;s memory allocators. ">
<polygon fill="none" stroke="black" points="2671,-112.5 2671,-131.5 2819,-131.5 2819,-112.5 2671,-112.5"/>
<text text-anchor="middle" x="2745" y="-119.5" font-family="Helvetica,sans-Serif" font-size="10.00">OgreMemoryAllocatorConfig.h</text>
</a>
</g>
</g>
<!-- Node2&#45;&gt;Node37 -->
<g id="edge37" class="edge"><title>Node2&#45;&gt;Node37</title>
<path fill="none" stroke="midnightblue" d="M2745,-168.083C2745,-161.006 2745,-150.861 2745,-141.986"/>
<polygon fill="midnightblue" stroke="midnightblue" points="2748.5,-141.751 2745,-131.751 2741.5,-141.751 2748.5,-141.751"/>
</g>
<!-- Node4 -->
<g id="node4" class="node"><title>Node4</title>
<g id="a_node4"><a xlink:href="_ogre_config_8h.html" target="_top" xlink:title="OgreConfig.h">
<polygon fill="none" stroke="black" points="3142,-56.5 3142,-75.5 3216,-75.5 3216,-56.5 3142,-56.5"/>
<text text-anchor="middle" x="3179" y="-63.5" font-family="Helvetica,sans-Serif" font-size="10.00">OgreConfig.h</text>
</a>
</g>
</g>
<!-- Node3&#45;&gt;Node4 -->
<g id="edge3" class="edge"><title>Node3&#45;&gt;Node4</title>
<path fill="none" stroke="midnightblue" d="M3179,-112.083C3179,-105.006 3179,-94.8611 3179,-85.9865"/>
<polygon fill="midnightblue" stroke="midnightblue" points="3182.5,-85.751 3179,-75.7511 3175.5,-85.7511 3182.5,-85.751"/>
</g>
<!-- Node5 -->
<g id="node5" class="node"><title>Node5</title>
<polygon fill="none" stroke="#bfbfbf" points="3127,-0.5 3127,-19.5 3231,-19.5 3231,-0.5 3127,-0.5"/>
<text text-anchor="middle" x="3179" y="-7.5" font-family="Helvetica,sans-Serif" font-size="10.00">OgreBuildSettings.h</text>
</g>
<!-- Node4&#45;&gt;Node5 -->
<g id="edge4" class="edge"><title>Node4&#45;&gt;Node5</title>
<path fill="none" stroke="midnightblue" d="M3179,-56.083C3179,-49.0059 3179,-38.8611 3179,-29.9865"/>
<polygon fill="midnightblue" stroke="midnightblue" points="3182.5,-29.751 3179,-19.7511 3175.5,-29.7511 3182.5,-29.751"/>
</g>
<!-- Node7&#45;&gt;Node6 -->
<g id="edge16" class="edge"><title>Node7&#45;&gt;Node6</title>
<path fill="none" stroke="midnightblue" d="M1503.16,-120.254C1669.14,-117.493 2208.7,-106.477 2403.08,-75.6313"/>
<polygon fill="midnightblue" stroke="midnightblue" points="2403.88,-79.0456 2413.17,-73.9564 2402.74,-72.1399 2403.88,-79.0456"/>
</g>
<!-- Node8 -->
<g id="node8" class="node"><title>Node8</title>
<polygon fill="none" stroke="#bfbfbf" points="1696.5,-56.5 1696.5,-75.5 1745.5,-75.5 1745.5,-56.5 1696.5,-56.5"/>
<text text-anchor="middle" x="1721" y="-63.5" font-family="Helvetica,sans-Serif" font-size="10.00">cassert</text>
</g>
<!-- Node7&#45;&gt;Node8 -->
<g id="edge7" class="edge"><title>Node7&#45;&gt;Node8</title>
<path fill="none" stroke="midnightblue" d="M1503.08,-112.685C1548.36,-104.762 1617.66,-92.0018 1686.1,-76.3202"/>
<polygon fill="midnightblue" stroke="midnightblue" points="1687.23,-79.6501 1696.19,-73.9856 1685.65,-72.8303 1687.23,-79.6501"/>
</g>
<!-- Node9 -->
<g id="node9" class="node"><title>Node9</title>
<polygon fill="none" stroke="#bfbfbf" points="1763.5,-56.5 1763.5,-75.5 1806.5,-75.5 1806.5,-56.5 1763.5,-56.5"/>
<text text-anchor="middle" x="1785" y="-63.5" font-family="Helvetica,sans-Serif" font-size="10.00">cstdio</text>
</g>
<!-- Node7&#45;&gt;Node9 -->
<g id="edge8" class="edge"><title>Node7&#45;&gt;Node9</title>
<path fill="none" stroke="midnightblue" d="M1503.21,-115.665C1560.9,-108.958 1659.51,-96.0836 1753.46,-75.843"/>
<polygon fill="midnightblue" stroke="midnightblue" points="1754.39,-79.2217 1763.41,-73.6664 1752.9,-72.3833 1754.39,-79.2217"/>
</g>
<!-- Node10 -->
<g id="node10" class="node"><title>Node10</title>
<polygon fill="none" stroke="#bfbfbf" points="1824.5,-56.5 1824.5,-75.5 1869.5,-75.5 1869.5,-56.5 1824.5,-56.5"/>
<text text-anchor="middle" x="1847" y="-63.5" font-family="Helvetica,sans-Serif" font-size="10.00">cstdlib</text>
</g>
<!-- Node7&#45;&gt;Node10 -->
<g id="edge9" class="edge"><title>Node7&#45;&gt;Node10</title>
<path fill="none" stroke="midnightblue" d="M1503.13,-117.23C1571.04,-111.503 1697.49,-98.9756 1814.53,-75.7965"/>
<polygon fill="midnightblue" stroke="midnightblue" points="1815.26,-79.2192 1824.38,-73.8163 1813.88,-72.3566 1815.26,-79.2192"/>
</g>
<!-- Node11 -->
<g id="node11" class="node"><title>Node11</title>
<polygon fill="none" stroke="#bfbfbf" points="1887.5,-56.5 1887.5,-75.5 1928.5,-75.5 1928.5,-56.5 1887.5,-56.5"/>
<text text-anchor="middle" x="1908" y="-63.5" font-family="Helvetica,sans-Serif" font-size="10.00">ctime</text>
</g>
<!-- Node7&#45;&gt;Node11 -->
<g id="edge10" class="edge"><title>Node7&#45;&gt;Node11</title>
<path fill="none" stroke="midnightblue" d="M1503.09,-118.753C1580.68,-114.557 1736.41,-103.516 1877.35,-75.736"/>
<polygon fill="midnightblue" stroke="midnightblue" points="1878.35,-79.1044 1887.47,-73.7067 1876.98,-72.2409 1878.35,-79.1044"/>
</g>
<!-- Node12 -->
<g id="node12" class="node"><title>Node12</title>
<polygon fill="none" stroke="#bfbfbf" points="1947,-56.5 1947,-75.5 1993,-75.5 1993,-56.5 1947,-56.5"/>
<text text-anchor="middle" x="1970" y="-63.5" font-family="Helvetica,sans-Serif" font-size="10.00">cstring</text>
</g>
<!-- Node7&#45;&gt;Node12 -->
<g id="edge11" class="edge"><title>Node7&#45;&gt;Node12</title>
<path fill="none" stroke="midnightblue" d="M1503.06,-119.238C1588.96,-115.544 1772.26,-104.952 1936.4,-75.7561"/>
<polygon fill="midnightblue" stroke="midnightblue" points="1937.46,-79.1204 1946.68,-73.8977 1936.22,-72.2319 1937.46,-79.1204"/>
</g>
<!-- Node13 -->
<g id="node13" class="node"><title>Node13</title>
<polygon fill="none" stroke="#bfbfbf" points="2011.5,-56.5 2011.5,-75.5 2060.5,-75.5 2060.5,-56.5 2011.5,-56.5"/>
<text text-anchor="middle" x="2036" y="-63.5" font-family="Helvetica,sans-Serif" font-size="10.00">cstdarg</text>
</g>
<!-- Node7&#45;&gt;Node13 -->
<g id="edge12" class="edge"><title>Node7&#45;&gt;Node13</title>
<path fill="none" stroke="midnightblue" d="M1503.12,-119.874C1597.77,-117.075 1812.02,-107.693 2001.1,-75.8307"/>
<polygon fill="midnightblue" stroke="midnightblue" points="2001.96,-79.2348 2011.23,-74.0987 2000.78,-72.335 2001.96,-79.2348"/>
</g>
<!-- Node14 -->
<g id="node14" class="node"><title>Node14</title>
<polygon fill="none" stroke="#bfbfbf" points="2079,-56.5 2079,-75.5 2123,-75.5 2123,-56.5 2079,-56.5"/>
<text text-anchor="middle" x="2101" y="-63.5" font-family="Helvetica,sans-Serif" font-size="10.00">cmath</text>
</g>
<!-- Node7&#45;&gt;Node14 -->
<g id="edge13" class="edge"><title>Node7&#45;&gt;Node14</title>
<path fill="none" stroke="midnightblue" d="M1503.04,-120.746C1606.19,-119.494 1853.12,-112.731 2068.83,-75.6076"/>
<polygon fill="midnightblue" stroke="midnightblue" points="2069.5,-79.0428 2078.75,-73.8743 2068.3,-72.1472 2069.5,-79.0428"/>
</g>
<!-- Node15 -->
<g id="node15" class="node"><title>Node15</title>
<polygon fill="none" stroke="#bfbfbf" points="2141,-56.5 2141,-75.5 2185,-75.5 2185,-56.5 2141,-56.5"/>
<text text-anchor="middle" x="2163" y="-63.5" font-family="Helvetica,sans-Serif" font-size="10.00">vector</text>
</g>
<!-- Node7&#45;&gt;Node15 -->
<g id="edge14" class="edge"><title>Node7&#45;&gt;Node15</title>
<path fill="none" stroke="midnightblue" d="M1503.36,-121.359C1614.28,-121.389 1891.63,-117.113 2130.86,-75.8123"/>
<polygon fill="midnightblue" stroke="midnightblue" points="2131.54,-79.2467 2140.78,-74.0735 2130.33,-72.3517 2131.54,-79.2467"/>
</g>
<!-- Node16 -->
<g id="node16" class="node"><title>Node16</title>
<polygon fill="none" stroke="#bfbfbf" points="2203.5,-56.5 2203.5,-75.5 2238.5,-75.5 2238.5,-56.5 2203.5,-56.5"/>
<text text-anchor="middle" x="2221" y="-63.5" font-family="Helvetica,sans-Serif" font-size="10.00">map</text>
</g>
<!-- Node7&#45;&gt;Node16 -->
<g id="edge15" class="edge"><title>Node7&#45;&gt;Node16</title>
<path fill="none" stroke="midnightblue" d="M1503.22,-119.681C1643.18,-115.671 2042.51,-102.366 2193.45,-75.4559"/>
<polygon fill="midnightblue" stroke="midnightblue" points="2194.27,-78.863 2203.46,-73.5794 2192.98,-71.983 2194.27,-78.863"/>
</g>
<!-- Node17 -->
<g id="node17" class="node"><title>Node17</title>
<polygon fill="none" stroke="#bfbfbf" points="2257,-56.5 2257,-75.5 2287,-75.5 2287,-56.5 2257,-56.5"/>
<text text-anchor="middle" x="2272" y="-63.5" font-family="Helvetica,sans-Serif" font-size="10.00">set</text>
</g>
<!-- Node7&#45;&gt;Node17 -->
<g id="edge17" class="edge"><title>Node7&#45;&gt;Node17</title>
<path fill="none" stroke="midnightblue" d="M1503,-120.068C1652.87,-116.926 2103.61,-105.234 2247,-76 2247.1,-75.9793 2247.2,-75.9582 2247.31,-75.9368"/>
<polygon fill="midnightblue" stroke="midnightblue" points="2248.19,-79.3234 2256.86,-73.2364 2246.29,-72.5871 2248.19,-79.3234"/>
</g>
<!-- Node18 -->
<g id="node18" class="node"><title>Node18</title>
<polygon fill="none" stroke="#bfbfbf" points="2305.5,-56.5 2305.5,-75.5 2334.5,-75.5 2334.5,-56.5 2305.5,-56.5"/>
<text text-anchor="middle" x="2320" y="-63.5" font-family="Helvetica,sans-Serif" font-size="10.00">list</text>
</g>
<!-- Node7&#45;&gt;Node18 -->
<g id="edge18" class="edge"><title>Node7&#45;&gt;Node18</title>
<path fill="none" stroke="midnightblue" d="M1503.27,-120.335C1656.52,-117.963 2124.28,-108.362 2295.61,-75.2553"/>
<polygon fill="midnightblue" stroke="midnightblue" points="2296.38,-78.6688 2305.49,-73.2486 2294.99,-71.8088 2296.38,-78.6688"/>
</g>
<!-- Node19 -->
<g id="node19" class="node"><title>Node19</title>
<polygon fill="none" stroke="#bfbfbf" points="2352.5,-56.5 2352.5,-75.5 2395.5,-75.5 2395.5,-56.5 2352.5,-56.5"/>
<text text-anchor="middle" x="2374" y="-63.5" font-family="Helvetica,sans-Serif" font-size="10.00">deque</text>
</g>
<!-- Node7&#45;&gt;Node19 -->
<g id="edge19" class="edge"><title>Node7&#45;&gt;Node19</title>
<path fill="none" stroke="midnightblue" d="M1503.06,-120.014C1661.68,-116.597 2160.38,-103.991 2342.48,-75.5725"/>
<polygon fill="midnightblue" stroke="midnightblue" points="2343.16,-79.0082 2352.47,-73.9437 2342.04,-72.0995 2343.16,-79.0082"/>
</g>
<!-- Node20 -->
<g id="node20" class="node"><title>Node20</title>
<polygon fill="none" stroke="#bfbfbf" points="263.5,-56.5 263.5,-75.5 306.5,-75.5 306.5,-56.5 263.5,-56.5"/>
<text text-anchor="middle" x="285" y="-63.5" font-family="Helvetica,sans-Serif" font-size="10.00">queue</text>
</g>
<!-- Node7&#45;&gt;Node20 -->
<g id="edge20" class="edge"><title>Node7&#45;&gt;Node20</title>
<path fill="none" stroke="midnightblue" d="M1404.85,-120.703C1217.79,-119.322 549.447,-112.034 316.884,-75.8664"/>
<polygon fill="midnightblue" stroke="midnightblue" points="317.235,-72.3777 306.804,-74.2342 316.116,-79.2877 317.235,-72.3777"/>
</g>
<!-- Node21 -->
<g id="node21" class="node"><title>Node21</title>
<polygon fill="none" stroke="#bfbfbf" points="324.5,-56.5 324.5,-75.5 365.5,-75.5 365.5,-56.5 324.5,-56.5"/>
<text text-anchor="middle" x="345" y="-63.5" font-family="Helvetica,sans-Serif" font-size="10.00">bitset</text>
</g>
<!-- Node7&#45;&gt;Node21 -->
<g id="edge21" class="edge"><title>Node7&#45;&gt;Node21</title>
<path fill="none" stroke="midnightblue" d="M1404.96,-120.579C1224.46,-118.779 596.633,-110.263 375.717,-75.5893"/>
<polygon fill="midnightblue" stroke="midnightblue" points="376.257,-72.1311 365.823,-73.972 375.127,-79.0394 376.257,-72.1311"/>
</g>
<!-- Node22 -->
<g id="node22" class="node"><title>Node22</title>
<polygon fill="none" stroke="#bfbfbf" points="384,-56.5 384,-75.5 440,-75.5 440,-56.5 384,-56.5"/>
<text text-anchor="middle" x="412" y="-63.5" font-family="Helvetica,sans-Serif" font-size="10.00">algorithm</text>
</g>
<!-- Node7&#45;&gt;Node22 -->
<g id="edge22" class="edge"><title>Node7&#45;&gt;Node22</title>
<path fill="none" stroke="midnightblue" d="M1404.8,-120.06C1232.55,-116.577 656.385,-103.242 450.29,-75.8482"/>
<polygon fill="midnightblue" stroke="midnightblue" points="450.557,-72.3519 440.172,-74.4487 449.598,-79.2859 450.557,-72.3519"/>
</g>
<!-- Node23 -->
<g id="node23" class="node"><title>Node23</title>
<polygon fill="none" stroke="#bfbfbf" points="458.5,-56.5 458.5,-75.5 517.5,-75.5 517.5,-56.5 458.5,-56.5"/>
<text text-anchor="middle" x="488" y="-63.5" font-family="Helvetica,sans-Serif" font-size="10.00">functional</text>
</g>
<!-- Node7&#45;&gt;Node23 -->
<g id="edge23" class="edge"><title>Node7&#45;&gt;Node23</title>
<path fill="none" stroke="midnightblue" d="M1404.97,-121.684C1267.73,-122.946 868.079,-122.169 527.76,-75.8154"/>
<polygon fill="midnightblue" stroke="midnightblue" points="528.093,-72.3283 517.709,-74.4306 527.138,-79.2628 528.093,-72.3283"/>
</g>
<!-- Node24 -->
<g id="node24" class="node"><title>Node24</title>
<polygon fill="none" stroke="#bfbfbf" points="536,-56.5 536,-75.5 576,-75.5 576,-56.5 536,-56.5"/>
<text text-anchor="middle" x="556" y="-63.5" font-family="Helvetica,sans-Serif" font-size="10.00">limits</text>
</g>
<!-- Node7&#45;&gt;Node24 -->
<g id="edge24" class="edge"><title>Node7&#45;&gt;Node24</title>
<path fill="none" stroke="midnightblue" d="M1404.91,-120.065C1248.67,-116.841 763.294,-104.857 586.089,-75.6677"/>
<polygon fill="midnightblue" stroke="midnightblue" points="586.572,-72.1993 576.122,-73.9482 585.382,-79.0974 586.572,-72.1993"/>
</g>
<!-- Node25 -->
<g id="node25" class="node"><title>Node25</title>
<polygon fill="none" stroke="#bfbfbf" points="594,-56.5 594,-75.5 644,-75.5 644,-56.5 594,-56.5"/>
<text text-anchor="middle" x="619" y="-63.5" font-family="Helvetica,sans-Serif" font-size="10.00">fstream</text>
</g>
<!-- Node7&#45;&gt;Node25 -->
<g id="edge25" class="edge"><title>Node7&#45;&gt;Node25</title>
<path fill="none" stroke="midnightblue" d="M1404.87,-121.684C1280.47,-122.682 943.029,-120.814 654.377,-75.8761"/>
<polygon fill="midnightblue" stroke="midnightblue" points="654.553,-72.3607 644.13,-74.2593 653.462,-79.2751 654.553,-72.3607"/>
</g>
<!-- Node26 -->
<g id="node26" class="node"><title>Node26</title>
<polygon fill="none" stroke="#bfbfbf" points="662.5,-56.5 662.5,-75.5 707.5,-75.5 707.5,-56.5 662.5,-56.5"/>
<text text-anchor="middle" x="685" y="-63.5" font-family="Helvetica,sans-Serif" font-size="10.00">iosfwd</text>
</g>
<!-- Node7&#45;&gt;Node26 -->
<g id="edge26" class="edge"><title>Node7&#45;&gt;Node26</title>
<path fill="none" stroke="midnightblue" d="M1404.87,-121.596C1287.4,-122.252 981.171,-119.423 717.73,-75.7036"/>
<polygon fill="midnightblue" stroke="midnightblue" points="718.032,-72.2052 707.59,-73.9967 716.87,-79.1081 718.032,-72.2052"/>
</g>
<!-- Node27 -->
<g id="node27" class="node"><title>Node27</title>
<polygon fill="none" stroke="#bfbfbf" points="726,-56.5 726,-75.5 778,-75.5 778,-56.5 726,-56.5"/>
<text text-anchor="middle" x="752" y="-63.5" font-family="Helvetica,sans-Serif" font-size="10.00">sstream</text>
</g>
<!-- Node7&#45;&gt;Node27 -->
<g id="edge27" class="edge"><title>Node7&#45;&gt;Node27</title>
<path fill="none" stroke="midnightblue" d="M1404.7,-120.771C1295.25,-119.598 1023.72,-113.017 788.382,-75.9245"/>
<polygon fill="midnightblue" stroke="midnightblue" points="788.691,-72.4295 778.264,-74.3072 787.586,-79.3418 788.691,-72.4295"/>
</g>
<!-- Node28 -->
<g id="node28" class="node"><title>Node28</title>
<polygon fill="none" stroke="#bfbfbf" points="796,-56.5 796,-75.5 864,-75.5 864,-56.5 796,-56.5"/>
<text text-anchor="middle" x="830" y="-63.5" font-family="Helvetica,sans-Serif" font-size="10.00">sys/types.h</text>
</g>
<!-- Node7&#45;&gt;Node28 -->
<g id="edge28" class="edge"><title>Node7&#45;&gt;Node28</title>
<path fill="none" stroke="midnightblue" d="M1404.8,-119.332C1306,-115.519 1076.36,-104.323 874.111,-75.9792"/>
<polygon fill="midnightblue" stroke="midnightblue" points="874.59,-72.5122 864.197,-74.5728 873.606,-79.4428 874.59,-72.5122"/>
</g>
<!-- Node29 -->
<g id="node29" class="node"><title>Node29</title>
<polygon fill="none" stroke="#bfbfbf" points="882,-56.5 882,-75.5 942,-75.5 942,-56.5 882,-56.5"/>
<text text-anchor="middle" x="912" y="-63.5" font-family="Helvetica,sans-Serif" font-size="10.00">sys/stat.h</text>
</g>
<!-- Node7&#45;&gt;Node29 -->
<g id="edge29" class="edge"><title>Node7&#45;&gt;Node29</title>
<path fill="none" stroke="midnightblue" d="M1404.81,-118.849C1316.18,-114.484 1123.67,-102.774 952.119,-75.9682"/>
<polygon fill="midnightblue" stroke="midnightblue" points="952.578,-72.4972 942.153,-74.39 951.483,-79.4111 952.578,-72.4972"/>
</g>
<!-- Node30 -->
<g id="node30" class="node"><title>Node30</title>
<polygon fill="none" stroke="#bfbfbf" points="960.5,-56.5 960.5,-75.5 1011.5,-75.5 1011.5,-56.5 960.5,-56.5"/>
<text text-anchor="middle" x="986" y="-63.5" font-family="Helvetica,sans-Serif" font-size="10.00">unistd.h</text>
</g>
<!-- Node7&#45;&gt;Node30 -->
<g id="edge30" class="edge"><title>Node7&#45;&gt;Node30</title>
<path fill="none" stroke="midnightblue" d="M1404.97,-118.277C1326.16,-113.384 1166.38,-101.329 1021.48,-75.808"/>
<polygon fill="midnightblue" stroke="midnightblue" points="1021.98,-72.3414 1011.52,-74.0274 1020.75,-79.2322 1021.98,-72.3414"/>
</g>
<!-- Node31 -->
<g id="node31" class="node"><title>Node31</title>
<polygon fill="none" stroke="#bfbfbf" points="1030,-56.5 1030,-75.5 1076,-75.5 1076,-56.5 1030,-56.5"/>
<text text-anchor="middle" x="1053" y="-63.5" font-family="Helvetica,sans-Serif" font-size="10.00">dlfcn.h</text>
</g>
<!-- Node7&#45;&gt;Node31 -->
<g id="edge31" class="edge"><title>Node7&#45;&gt;Node31</title>
<path fill="none" stroke="midnightblue" d="M1404.97,-117.42C1335.87,-111.847 1205.79,-99.432 1086.36,-76.0048"/>
<polygon fill="midnightblue" stroke="midnightblue" points="1086.81,-72.525 1076.32,-74.0028 1085.44,-79.3899 1086.81,-72.525"/>
</g>
<!-- Node32 -->
<g id="node32" class="node"><title>Node32</title>
<polygon fill="none" stroke="#bfbfbf" points="1094,-56.5 1094,-75.5 1172,-75.5 1172,-56.5 1094,-56.5"/>
<text text-anchor="middle" x="1133" y="-63.5" font-family="Helvetica,sans-Serif" font-size="10.00">ext/hash_map</text>
</g>
<!-- Node7&#45;&gt;Node32 -->
<g id="edge32" class="edge"><title>Node7&#45;&gt;Node32</title>
<path fill="none" stroke="midnightblue" d="M1404.63,-113.196C1351.99,-104.801 1265.92,-90.8619 1181.98,-76.1422"/>
<polygon fill="midnightblue" stroke="midnightblue" points="1182.47,-72.6758 1172.02,-74.3904 1181.26,-79.5699 1182.47,-72.6758"/>
</g>
<!-- Node33 -->
<g id="node33" class="node"><title>Node33</title>
<polygon fill="none" stroke="#bfbfbf" points="1190.5,-56.5 1190.5,-75.5 1263.5,-75.5 1263.5,-56.5 1190.5,-56.5"/>
<text text-anchor="middle" x="1227" y="-63.5" font-family="Helvetica,sans-Serif" font-size="10.00">ext/hash_set</text>
</g>
<!-- Node7&#45;&gt;Node33 -->
<g id="edge33" class="edge"><title>Node7&#45;&gt;Node33</title>
<path fill="none" stroke="midnightblue" d="M1418.03,-112.444C1378.68,-103.083 1315.51,-88.0561 1272.69,-77.868"/>
<polygon fill="midnightblue" stroke="midnightblue" points="1273.34,-74.4258 1262.8,-75.5164 1271.72,-81.2358 1273.34,-74.4258"/>
</g>
<!-- Node34 -->
<g id="node34" class="node"><title>Node34</title>
<polygon fill="none" stroke="#bfbfbf" points="1281.5,-56.5 1281.5,-75.5 1352.5,-75.5 1352.5,-56.5 1281.5,-56.5"/>
<text text-anchor="middle" x="1317" y="-63.5" font-family="Helvetica,sans-Serif" font-size="10.00">sys/param.h</text>
</g>
<!-- Node7&#45;&gt;Node34 -->
<g id="edge34" class="edge"><title>Node7&#45;&gt;Node34</title>
<path fill="none" stroke="midnightblue" d="M1432.29,-112.444C1409.65,-103.517 1373.93,-89.4387 1348.25,-79.3168"/>
<polygon fill="midnightblue" stroke="midnightblue" points="1349.19,-75.9273 1338.61,-75.5164 1346.63,-82.4397 1349.19,-75.9273"/>
</g>
<!-- Node35 -->
<g id="node35" class="node"><title>Node35</title>
<polygon fill="none" stroke="#bfbfbf" points="1371,-56.5 1371,-75.5 1537,-75.5 1537,-56.5 1371,-56.5"/>
<text text-anchor="middle" x="1454" y="-63.5" font-family="Helvetica,sans-Serif" font-size="10.00">CoreFoundation/CoreFoundation.h</text>
</g>
<!-- Node7&#45;&gt;Node35 -->
<g id="edge35" class="edge"><title>Node7&#45;&gt;Node35</title>
<path fill="none" stroke="midnightblue" d="M1454,-112.083C1454,-105.006 1454,-94.8611 1454,-85.9865"/>
<polygon fill="midnightblue" stroke="midnightblue" points="1457.5,-85.751 1454,-75.7511 1450.5,-85.7511 1457.5,-85.751"/>
</g>
<!-- Node36 -->
<g id="node36" class="node"><title>Node36</title>
<polygon fill="none" stroke="#bfbfbf" points="1555,-56.5 1555,-75.5 1679,-75.5 1679,-56.5 1555,-56.5"/>
<text text-anchor="middle" x="1617" y="-63.5" font-family="Helvetica,sans-Serif" font-size="10.00">emscripten/emscripten.h</text>
</g>
<!-- Node7&#45;&gt;Node36 -->
<g id="edge36" class="edge"><title>Node7&#45;&gt;Node36</title>
<path fill="none" stroke="midnightblue" d="M1479.83,-112.444C1507.25,-103.359 1550.78,-88.9388 1581.43,-78.7831"/>
<polygon fill="midnightblue" stroke="midnightblue" points="1582.9,-81.9837 1591.29,-75.5164 1580.7,-75.3389 1582.9,-81.9837"/>
</g>
<!-- Node38 -->
<g id="node38" class="node"><title>Node38</title>
<g id="a_node38"><a xlink:href="_ogre_memory_allocated_object_8h.html" target="_top" xlink:title="OgreMemoryAllocatedObject.h">
<polygon fill="none" stroke="black" points="2511,-56.5 2511,-75.5 2661,-75.5 2661,-56.5 2511,-56.5"/>
<text text-anchor="middle" x="2586" y="-63.5" font-family="Helvetica,sans-Serif" font-size="10.00">OgreMemoryAllocatedObject.h</text>
</a>
</g>
</g>
<!-- Node37&#45;&gt;Node38 -->
<g id="edge38" class="edge"><title>Node37&#45;&gt;Node38</title>
<path fill="none" stroke="midnightblue" d="M2719.81,-112.444C2693.06,-103.359 2650.6,-88.9388 2620.69,-78.7831"/>
<polygon fill="midnightblue" stroke="midnightblue" points="2621.67,-75.4182 2611.08,-75.5164 2619.42,-82.0464 2621.67,-75.4182"/>
</g>
<!-- Node39 -->
<g id="node39" class="node"><title>Node39</title>
<g id="a_node39"><a xlink:href="_ogre_header_prefix_8h.html" target="_top" xlink:title="OgreHeaderPrefix.h">
<polygon fill="none" stroke="black" points="2740.5,-0.5 2740.5,-19.5 2843.5,-19.5 2843.5,-0.5 2740.5,-0.5"/>
<text text-anchor="middle" x="2792" y="-7.5" font-family="Helvetica,sans-Serif" font-size="10.00">OgreHeaderPrefix.h</text>
</a>
</g>
</g>
<!-- Node37&#45;&gt;Node39 -->
<g id="edge42" class="edge"><title>Node37&#45;&gt;Node39</title>
<path fill="none" stroke="midnightblue" d="M2771.93,-112.356C2788.72,-105.411 2808.98,-93.8247 2819,-76 2827.84,-60.2727 2817.5,-41.0638 2807.17,-27.6217"/>
<polygon fill="midnightblue" stroke="midnightblue" points="2809.67,-25.156 2800.58,-19.7156 2804.29,-29.638 2809.67,-25.156"/>
</g>
<!-- Node40 -->
<g id="node40" class="node"><title>Node40</title>
<g id="a_node40"><a xlink:href="_ogre_header_suffix_8h.html" target="_top" xlink:title="OgreHeaderSuffix.h">
<polygon fill="none" stroke="black" points="2482.5,-0.5 2482.5,-19.5 2585.5,-19.5 2585.5,-0.5 2482.5,-0.5"/>
<text text-anchor="middle" x="2534" y="-7.5" font-family="Helvetica,sans-Serif" font-size="10.00">OgreHeaderSuffix.h</text>
</a>
</g>
</g>
<!-- Node37&#45;&gt;Node40 -->
<g id="edge50" class="edge"><title>Node37&#45;&gt;Node40</title>
<path fill="none" stroke="midnightblue" d="M2671,-117.428C2607.59,-112.632 2523.23,-101.522 2502,-76 2489.76,-61.288 2503.37,-41.1052 2516.43,-27.1504"/>
<polygon fill="midnightblue" stroke="midnightblue" points="2519.25,-29.283 2523.85,-19.7421 2514.3,-24.3278 2519.25,-29.283"/>
</g>
<!-- Node41 -->
<g id="node41" class="node"><title>Node41</title>
<g id="a_node41"><a xlink:href="_ogre_memory_s_t_l_allocator_8h.html" target="_top" xlink:title="OgreMemorySTLAllocator.h">
<polygon fill="none" stroke="black" points="2867.5,-56.5 2867.5,-75.5 3004.5,-75.5 3004.5,-56.5 2867.5,-56.5"/>
<text text-anchor="middle" x="2936" y="-63.5" font-family="Helvetica,sans-Serif" font-size="10.00">OgreMemorySTLAllocator.h</text>
</a>
</g>
</g>
<!-- Node37&#45;&gt;Node41 -->
<g id="edge43" class="edge"><title>Node37&#45;&gt;Node41</title>
<path fill="none" stroke="midnightblue" d="M2775.26,-112.444C2807.96,-103.201 2860.18,-88.4356 2896.18,-78.2572"/>
<polygon fill="midnightblue" stroke="midnightblue" points="2897.21,-81.6051 2905.88,-75.5164 2895.3,-74.8691 2897.21,-81.6051"/>
</g>
<!-- Node42 -->
<g id="node42" class="node"><title>Node42</title>
<g id="a_node42"><a xlink:href="_ogre_memory_ned_pooling_8h.html" target="_top" xlink:title="OgreMemoryNedPooling.h">
<polygon fill="none" stroke="black" points="2679.5,-56.5 2679.5,-75.5 2810.5,-75.5 2810.5,-56.5 2679.5,-56.5"/>
<text text-anchor="middle" x="2745" y="-63.5" font-family="Helvetica,sans-Serif" font-size="10.00">OgreMemoryNedPooling.h</text>
</a>
</g>
</g>
<!-- Node37&#45;&gt;Node42 -->
<g id="edge47" class="edge"><title>Node37&#45;&gt;Node42</title>
<path fill="none" stroke="midnightblue" d="M2745,-112.083C2745,-105.006 2745,-94.8611 2745,-85.9865"/>
<polygon fill="midnightblue" stroke="midnightblue" points="2748.5,-85.751 2745,-75.7511 2741.5,-85.7511 2748.5,-85.751"/>
</g>
<!-- Node38&#45;&gt;Node2 -->
<g id="edge39" class="edge"><title>Node38&#45;&gt;Node2</title>
<path fill="none" stroke="midnightblue" d="M2594.85,-75.667C2608.53,-88.7992 2635.96,-114.101 2662,-132 2679.62,-144.108 2700.82,-155.557 2717.39,-163.877"/>
<polygon fill="midnightblue" stroke="midnightblue" points="2716.03,-167.109 2726.55,-168.395 2719.13,-160.832 2716.03,-167.109"/>
</g>
<!-- Node38&#45;&gt;Node39 -->
<g id="edge40" class="edge"><title>Node38&#45;&gt;Node39</title>
<path fill="none" stroke="midnightblue" d="M2618.64,-56.4435C2654.05,-47.1616 2710.71,-32.3093 2749.55,-22.127"/>
<polygon fill="midnightblue" stroke="midnightblue" points="2750.73,-25.4378 2759.51,-19.5164 2748.95,-18.6666 2750.73,-25.4378"/>
</g>
<!-- Node38&#45;&gt;Node40 -->
<g id="edge41" class="edge"><title>Node38&#45;&gt;Node40</title>
<path fill="none" stroke="midnightblue" d="M2577.41,-56.083C2569.84,-48.2195 2558.62,-36.5688 2549.49,-27.0813"/>
<polygon fill="midnightblue" stroke="midnightblue" points="2551.88,-24.5266 2542.43,-19.7511 2546.84,-29.3821 2551.88,-24.5266"/>
</g>
<!-- Node41&#45;&gt;Node2 -->
<g id="edge44" class="edge"><title>Node41&#45;&gt;Node2</title>
<path fill="none" stroke="midnightblue" d="M2922.14,-75.6161C2901.7,-88.258 2862.2,-112.451 2828,-132 2808.85,-142.948 2786.89,-154.822 2770.38,-163.623"/>
<polygon fill="midnightblue" stroke="midnightblue" points="2768.53,-160.638 2761.34,-168.419 2771.82,-166.821 2768.53,-160.638"/>
</g>
<!-- Node41&#45;&gt;Node39 -->
<g id="edge45" class="edge"><title>Node41&#45;&gt;Node39</title>
<path fill="none" stroke="midnightblue" d="M2913.18,-56.4435C2889.17,-47.4381 2851.17,-33.1891 2824.13,-23.049"/>
<polygon fill="midnightblue" stroke="midnightblue" points="2825.3,-19.7506 2814.71,-19.5164 2822.84,-26.3049 2825.3,-19.7506"/>
</g>
<!-- Node41&#45;&gt;Node40 -->
<g id="edge46" class="edge"><title>Node41&#45;&gt;Node40</title>
<path fill="none" stroke="midnightblue" d="M2872.3,-56.4435C2796.5,-46.2609 2670.79,-29.3744 2595.82,-19.3041"/>
<polygon fill="midnightblue" stroke="midnightblue" points="2595.97,-15.7923 2585.59,-17.9298 2595.03,-22.73 2595.97,-15.7923"/>
</g>
<!-- Node42&#45;&gt;Node39 -->
<g id="edge48" class="edge"><title>Node42&#45;&gt;Node39</title>
<path fill="none" stroke="midnightblue" d="M2752.76,-56.083C2759.54,-48.2982 2769.54,-36.8015 2777.76,-27.3665"/>
<polygon fill="midnightblue" stroke="midnightblue" points="2780.46,-29.592 2784.38,-19.7511 2775.18,-24.9963 2780.46,-29.592"/>
</g>
<!-- Node42&#45;&gt;Node40 -->
<g id="edge49" class="edge"><title>Node42&#45;&gt;Node40</title>
<path fill="none" stroke="midnightblue" d="M2711.57,-56.4435C2675.14,-47.1221 2616.77,-32.1828 2576.97,-21.9972"/>
<polygon fill="midnightblue" stroke="midnightblue" points="2577.83,-18.6051 2567.28,-19.5164 2576.1,-25.3866 2577.83,-18.6051"/>
</g>
<!-- Node43&#45;&gt;Node2 -->
<g id="edge52" class="edge"><title>Node43&#45;&gt;Node2</title>
<path fill="none" stroke="midnightblue" d="M2741.63,-280.307C2737.44,-271.437 2731.4,-257.145 2729,-244 2726.07,-227.943 2731.17,-209.939 2736.37,-196.958"/>
<polygon fill="midnightblue" stroke="midnightblue" points="2739.6,-198.321 2740.41,-187.758 2733.19,-195.505 2739.6,-198.321"/>
</g>
<!-- Node43&#45;&gt;Node39 -->
<g id="edge64" class="edge"><title>Node43&#45;&gt;Node39</title>
<path fill="none" stroke="midnightblue" d="M2767.47,-280.473C2822.04,-257.421 2965.17,-187.948 3014,-76 3017.55,-67.8525 3019.63,-62.8815 3014,-56 2994.1,-31.6598 2912.45,-20.1697 2853.95,-14.9731"/>
<polygon fill="midnightblue" stroke="midnightblue" points="2853.94,-11.4599 2843.68,-14.1037 2853.35,-18.435 2853.94,-11.4599"/>
</g>
<!-- Node43&#45;&gt;Node40 -->
<g id="edge65" class="edge"><title>Node43&#45;&gt;Node40</title>
<path fill="none" stroke="midnightblue" d="M2696.45,-288.877C2365.65,-287.953 483.074,-281.09 231,-244 125.482,-228.474 0,-285.654 0,-179 0,-179 0,-179 0,-121 0,-74.8419 37.5977,-71.7101 81,-56 196.693,-14.1233 2102.38,-11.1818 2472.13,-11.0058"/>
<polygon fill="midnightblue" stroke="midnightblue" points="2472.37,-14.5058 2482.37,-11.0015 2472.37,-7.5058 2472.37,-14.5058"/>
</g>
<!-- Node44 -->
<g id="node44" class="node"><title>Node44</title>
<g id="a_node44"><a xlink:href="_ogre_log_8h.html" target="_top" xlink:title="OgreLog.h">
<polygon fill="none" stroke="black" points="240,-224.5 240,-243.5 302,-243.5 302,-224.5 240,-224.5"/>
<text text-anchor="middle" x="271" y="-231.5" font-family="Helvetica,sans-Serif" font-size="10.00">OgreLog.h</text>
</a>
</g>
</g>
<!-- Node43&#45;&gt;Node44 -->
<g id="edge53" class="edge"><title>Node43&#45;&gt;Node44</title>
<path fill="none" stroke="midnightblue" d="M2696.28,-287.915C2375.86,-280.924 605.946,-242.308 312.289,-235.901"/>
<polygon fill="midnightblue" stroke="midnightblue" points="312.158,-232.397 302.084,-235.678 312.005,-239.396 312.158,-232.397"/>
</g>
<!-- Node48 -->
<g id="node48" class="node"><title>Node48</title>
<g id="a_node48"><a xlink:href="_ogre_singleton_8h.html" target="_top" xlink:title="OgreSingleton.h">
<polygon fill="none" stroke="black" points="2738,-224.5 2738,-243.5 2824,-243.5 2824,-224.5 2738,-224.5"/>
<text text-anchor="middle" x="2781" y="-231.5" font-family="Helvetica,sans-Serif" font-size="10.00">OgreSingleton.h</text>
</a>
</g>
</g>
<!-- Node43&#45;&gt;Node48 -->
<g id="edge62" class="edge"><title>Node43&#45;&gt;Node48</title>
<path fill="none" stroke="midnightblue" d="M2751.78,-280.083C2756.67,-272.534 2763.83,-261.495 2769.83,-252.23"/>
<polygon fill="midnightblue" stroke="midnightblue" points="2772.83,-254.046 2775.33,-243.751 2766.95,-250.239 2772.83,-254.046"/>
</g>
<!-- Node44&#45;&gt;Node2 -->
<g id="edge54" class="edge"><title>Node44&#45;&gt;Node2</title>
<path fill="none" stroke="midnightblue" d="M302.281,-232.317C559.77,-226.697 2328.86,-188.083 2683.27,-180.347"/>
<polygon fill="midnightblue" stroke="midnightblue" points="2683.42,-183.845 2693.34,-180.128 2683.26,-176.847 2683.42,-183.845"/>
</g>
<!-- Node44&#45;&gt;Node39 -->
<g id="edge60" class="edge"><title>Node44&#45;&gt;Node39</title>
<path fill="none" stroke="midnightblue" d="M269.798,-224.32C265.033,-189.572 248.016,-62.0764 254,-56 276.806,-32.8402 2561.51,-20.9881 2594,-20 2639.62,-18.6125 2691.13,-16.2465 2730.17,-14.2886"/>
<polygon fill="midnightblue" stroke="midnightblue" points="2730.51,-17.7758 2740.32,-13.7745 2730.16,-10.7847 2730.51,-17.7758"/>
</g>
<!-- Node44&#45;&gt;Node40 -->
<g id="edge61" class="edge"><title>Node44&#45;&gt;Node40</title>
<path fill="none" stroke="midnightblue" d="M239.77,-231.122C186.038,-227.169 79.6684,-215.931 57,-188 16.9494,-138.652 57.5499,-88.7795 112,-56 164.094,-24.6387 2099.79,-13.2105 2472.33,-11.2993"/>
<polygon fill="midnightblue" stroke="midnightblue" points="2472.4,-14.7991 2482.38,-11.2482 2472.36,-7.79923 2472.4,-14.7991"/>
</g>
<!-- Node45 -->
<g id="node45" class="node"><title>Node45</title>
<g id="a_node45"><a xlink:href="_ogre_common_8h.html" target="_top" xlink:title="OgreCommon.h">
<polygon fill="none" stroke="black" points="121,-56.5 121,-75.5 207,-75.5 207,-56.5 121,-56.5"/>
<text text-anchor="middle" x="164" y="-63.5" font-family="Helvetica,sans-Serif" font-size="10.00">OgreCommon.h</text>
</a>
</g>
</g>
<!-- Node44&#45;&gt;Node45 -->
<g id="edge55" class="edge"><title>Node44&#45;&gt;Node45</title>
<path fill="none" stroke="midnightblue" d="M267.635,-224.265C259.444,-203.597 237.07,-150.542 209,-112 201.132,-101.196 190.652,-90.5548 181.785,-82.3346"/>
<polygon fill="midnightblue" stroke="midnightblue" points="183.993,-79.6136 174.217,-75.5309 179.313,-84.8193 183.993,-79.6136"/>
</g>
<!-- Node46 -->
<g id="node46" class="node"><title>Node46</title>
<g id="a_node46"><a xlink:href="_ogre_thread_headers_8h.html" target="_top" xlink:title="Threading/OgreThreadHeaders.h">
<polygon fill="none" stroke="black" points="66,-168.5 66,-187.5 224,-187.5 224,-168.5 66,-168.5"/>
<text text-anchor="middle" x="145" y="-175.5" font-family="Helvetica,sans-Serif" font-size="10.00">Threading/OgreThreadHeaders.h</text>
</a>
</g>
</g>
<!-- Node44&#45;&gt;Node46 -->
<g id="edge58" class="edge"><title>Node44&#45;&gt;Node46</title>
<path fill="none" stroke="midnightblue" d="M251.035,-224.444C230.391,-215.596 197.937,-201.687 174.368,-191.586"/>
<polygon fill="midnightblue" stroke="midnightblue" points="175.442,-188.239 164.872,-187.516 172.684,-194.673 175.442,-188.239"/>
</g>
<!-- Node45&#45;&gt;Node39 -->
<g id="edge56" class="edge"><title>Node45&#45;&gt;Node39</title>
<path fill="none" stroke="midnightblue" d="M207.181,-57.5247C211.835,-56.9156 216.508,-56.3867 221,-56 746.45,-10.7601 2066.85,-35.9757 2594,-20 2639.62,-18.6174 2691.13,-16.2512 2730.17,-14.292"/>
<polygon fill="midnightblue" stroke="midnightblue" points="2730.51,-17.7791 2740.32,-13.7775 2730.16,-10.7881 2730.51,-17.7791"/>
</g>
<!-- Node45&#45;&gt;Node40 -->
<g id="edge57" class="edge"><title>Node45&#45;&gt;Node40</title>
<path fill="none" stroke="midnightblue" d="M207.183,-57.5443C211.836,-56.9314 216.509,-56.3963 221,-56 676.648,-15.7866 2152.58,-11.5085 2472.47,-11.0539"/>
<polygon fill="midnightblue" stroke="midnightblue" points="2472.49,-14.554 2482.48,-11.0404 2472.48,-7.55403 2472.49,-14.554"/>
</g>
<!-- Node47 -->
<g id="node47" class="node"><title>Node47</title>
<g id="a_node47"><a xlink:href="_ogre_thread_defines_8h.html" target="_top" xlink:title="OgreThreadDefines.h">
<polygon fill="none" stroke="red" points="90,-112.5 90,-131.5 200,-131.5 200,-112.5 90,-112.5"/>
<text text-anchor="middle" x="145" y="-119.5" font-family="Helvetica,sans-Serif" font-size="10.00">OgreThreadDefines.h</text>
</a>
</g>
</g>
<!-- Node46&#45;&gt;Node47 -->
<g id="edge59" class="edge"><title>Node46&#45;&gt;Node47</title>
<path fill="none" stroke="midnightblue" d="M145,-168.083C145,-161.006 145,-150.861 145,-141.986"/>
<polygon fill="midnightblue" stroke="midnightblue" points="148.5,-141.751 145,-131.751 141.5,-141.751 148.5,-141.751"/>
</g>
<!-- Node48&#45;&gt;Node2 -->
<g id="edge63" class="edge"><title>Node48&#45;&gt;Node2</title>
<path fill="none" stroke="midnightblue" d="M2775.06,-224.083C2770.02,-216.534 2762.66,-205.495 2756.49,-196.23"/>
<polygon fill="midnightblue" stroke="midnightblue" points="2759.29,-194.13 2750.83,-187.751 2753.47,-198.013 2759.29,-194.13"/>
</g>
<!-- Node49&#45;&gt;Node2 -->
<g id="edge67" class="edge"><title>Node49&#45;&gt;Node2</title>
<path fill="none" stroke="midnightblue" d="M3006.92,-226.584C3002.24,-225.711 2997.5,-224.831 2993,-224 2927.78,-211.969 2852.86,-198.411 2802.59,-189.351"/>
<polygon fill="midnightblue" stroke="midnightblue" points="2803.02,-185.873 2792.56,-187.544 2801.78,-192.762 2803.02,-185.873"/>
</g>
<!-- Node49&#45;&gt;Node39 -->
<g id="edge68" class="edge"><title>Node49&#45;&gt;Node39</title>
<path fill="none" stroke="midnightblue" d="M3047.73,-224.423C3068.73,-196.559 3129.13,-107.423 3085,-56 3055.81,-21.9866 2930.7,-13.4261 2853.71,-11.4285"/>
<polygon fill="midnightblue" stroke="midnightblue" points="2853.73,-7.92796 2843.65,-11.1974 2853.56,-14.9261 2853.73,-7.92796"/>
</g>
<!-- Node49&#45;&gt;Node40 -->
<g id="edge69" class="edge"><title>Node49&#45;&gt;Node40</title>
<path fill="none" stroke="midnightblue" d="M3042.88,-224.364C3048.61,-195.537 3062.61,-101.87 3014,-56 2998.99,-41.8391 2722.27,-22.7917 2595.95,-14.7896"/>
<polygon fill="midnightblue" stroke="midnightblue" points="2595.86,-11.2773 2585.66,-14.1413 2595.42,-18.2634 2595.86,-11.2773"/>
</g>
</g>
</svg>
