<?xml version="1.0" encoding="UTF-8" standalone="no"?>
<!DOCTYPE svg PUBLIC "-//W3C//DTD SVG 1.1//EN"
 "http://www.w3.org/Graphics/SVG/1.1/DTD/svg11.dtd">
<!-- Generated by graphviz version 2.38.0 (20140413.2041)
 -->
<!-- Title: OgreSceneQuery.h Pages: 1 -->
<svg width="1513pt" height="319pt"
 viewBox="0.00 0.00 1512.50 319.00" xmlns="http://www.w3.org/2000/svg" xmlns:xlink="http://www.w3.org/1999/xlink">
<g id="graph0" class="graph" transform="scale(1 1) rotate(0) translate(4 315)">
<title>OgreSceneQuery.h</title>
<!-- Node1 -->
<g id="node1" class="node"><title>Node1</title>
<polygon fill="#bfbfbf" stroke="black" points="1012.5,-291.5 1012.5,-310.5 1112.5,-310.5 1112.5,-291.5 1012.5,-291.5"/>
<text text-anchor="middle" x="1062.5" y="-298.5" font-family="Helvetica,sans-Serif" font-size="10.00">OgreSceneQuery.h</text>
</g>
<!-- Node2 -->
<g id="node2" class="node"><title>Node2</title>
<g id="a_node2"><a xlink:href="_ogre_scene_manager_8h.html" target="_top" xlink:title="OgreSceneManager.h">
<polygon fill="none" stroke="black" points="1007,-235.5 1007,-254.5 1118,-254.5 1118,-235.5 1007,-235.5"/>
<text text-anchor="middle" x="1062.5" y="-242.5" font-family="Helvetica,sans-Serif" font-size="10.00">OgreSceneManager.h</text>
</a>
</g>
</g>
<!-- Node1&#45;&gt;Node2 -->
<g id="edge1" class="edge"><title>Node1&#45;&gt;Node2</title>
<path fill="none" stroke="midnightblue" d="M1062.5,-280.805C1062.5,-271.91 1062.5,-261.78 1062.5,-254.751"/>
<polygon fill="midnightblue" stroke="midnightblue" points="1059,-281.083 1062.5,-291.083 1066,-281.083 1059,-281.083"/>
</g>
<!-- Node3 -->
<g id="node3" class="node"><title>Node3</title>
<g id="a_node3"><a xlink:href="_ogre_scene_manager_enumerator_8h.html" target="_top" xlink:title="OgreSceneManagerEnumerator.h">
<polygon fill="none" stroke="black" points="795,-179.5 795,-198.5 956,-198.5 956,-179.5 795,-179.5"/>
<text text-anchor="middle" x="875.5" y="-186.5" font-family="Helvetica,sans-Serif" font-size="10.00">OgreSceneManagerEnumerator.h</text>
</a>
</g>
</g>
<!-- Node2&#45;&gt;Node3 -->
<g id="edge2" class="edge"><title>Node2&#45;&gt;Node3</title>
<path fill="none" stroke="midnightblue" d="M1022.91,-232.568C987.634,-222.381 936.806,-207.703 904.992,-198.516"/>
<polygon fill="midnightblue" stroke="midnightblue" points="1022.29,-236.032 1032.87,-235.444 1024.23,-229.307 1022.29,-236.032"/>
</g>
<!-- Node6 -->
<g id="node6" class="node"><title>Node6</title>
<g id="a_node6"><a xlink:href="_ogre_8h.html" target="_top" xlink:title="Ogre.h">
<polygon fill="none" stroke="red" points="961.5,-56.5 961.5,-75.5 1007.5,-75.5 1007.5,-56.5 961.5,-56.5"/>
<text text-anchor="middle" x="984.5" y="-63.5" font-family="Helvetica,sans-Serif" font-size="10.00">Ogre.h</text>
</a>
</g>
</g>
<!-- Node2&#45;&gt;Node6 -->
<g id="edge13" class="edge"><title>Node2&#45;&gt;Node6</title>
<path fill="none" stroke="midnightblue" d="M1050.43,-226.854C1037.21,-207.362 1016.21,-174.193 1003.5,-143 993.957,-119.572 988.251,-90.0681 985.844,-75.6846"/>
<polygon fill="midnightblue" stroke="midnightblue" points="1047.67,-229.009 1056.23,-235.255 1053.43,-225.036 1047.67,-229.009"/>
</g>
<!-- Node13 -->
<g id="node13" class="node"><title>Node13</title>
<g id="a_node13"><a xlink:href="_ogre_shader_generator_8h.html" target="_top" xlink:title="OgreShaderGenerator.h">
<polygon fill="none" stroke="black" points="1081,-179.5 1081,-198.5 1200,-198.5 1200,-179.5 1081,-179.5"/>
<text text-anchor="middle" x="1140.5" y="-186.5" font-family="Helvetica,sans-Serif" font-size="10.00">OgreShaderGenerator.h</text>
</a>
</g>
</g>
<!-- Node2&#45;&gt;Node13 -->
<g id="edge14" class="edge"><title>Node2&#45;&gt;Node13</title>
<path fill="none" stroke="midnightblue" d="M1083.27,-229.622C1097.52,-219.757 1115.96,-206.992 1128,-198.655"/>
<polygon fill="midnightblue" stroke="midnightblue" points="1081.26,-226.754 1075.03,-235.324 1085.25,-232.51 1081.26,-226.754"/>
</g>
<!-- Node18 -->
<g id="node18" class="node"><title>Node18</title>
<g id="a_node18"><a xlink:href="_ogre_terrain_8h.html" target="_top" xlink:title="OgreTerrain.h">
<polygon fill="none" stroke="black" points="1329.5,-179.5 1329.5,-198.5 1405.5,-198.5 1405.5,-179.5 1329.5,-179.5"/>
<text text-anchor="middle" x="1367.5" y="-186.5" font-family="Helvetica,sans-Serif" font-size="10.00">OgreTerrain.h</text>
</a>
</g>
</g>
<!-- Node2&#45;&gt;Node18 -->
<g id="edge20" class="edge"><title>Node2&#45;&gt;Node18</title>
<path fill="none" stroke="midnightblue" d="M1120.73,-233.69C1181.96,-222.85 1276.55,-206.103 1329.06,-196.807"/>
<polygon fill="midnightblue" stroke="midnightblue" points="1120.06,-230.254 1110.83,-235.444 1121.29,-237.146 1120.06,-230.254"/>
</g>
<!-- Node4 -->
<g id="node4" class="node"><title>Node4</title>
<g id="a_node4"><a xlink:href="_ogre_root_8h.html" target="_top" xlink:title="OgreRoot.h">
<polygon fill="none" stroke="black" points="545,-118 545,-137 612,-137 612,-118 545,-118"/>
<text text-anchor="middle" x="578.5" y="-125" font-family="Helvetica,sans-Serif" font-size="10.00">OgreRoot.h</text>
</a>
</g>
</g>
<!-- Node3&#45;&gt;Node4 -->
<g id="edge3" class="edge"><title>Node3&#45;&gt;Node4</title>
<path fill="none" stroke="midnightblue" d="M822.776,-177.437C761.908,-165.243 663.6,-145.549 612.224,-135.256"/>
<polygon fill="midnightblue" stroke="midnightblue" points="822.454,-180.942 832.947,-179.475 823.83,-174.079 822.454,-180.942"/>
</g>
<!-- Node3&#45;&gt;Node6 -->
<g id="edge12" class="edge"><title>Node3&#45;&gt;Node6</title>
<path fill="none" stroke="midnightblue" d="M890.117,-171.773C913.534,-145.779 958.655,-95.69 976.732,-75.6232"/>
<polygon fill="midnightblue" stroke="midnightblue" points="887.432,-169.525 883.339,-179.298 892.633,-174.211 887.432,-169.525"/>
</g>
<!-- Node5 -->
<g id="node5" class="node"><title>Node5</title>
<g id="a_node5"><a xlink:href="gtk_2_ogre_config_dialog_imp_8h.html" target="_top" xlink:title="OgreConfigDialogImp.h">
<polygon fill="none" stroke="black" points="824,-56.5 824,-75.5 943,-75.5 943,-56.5 824,-56.5"/>
<text text-anchor="middle" x="883.5" y="-63.5" font-family="Helvetica,sans-Serif" font-size="10.00">OgreConfigDialogImp.h</text>
</a>
</g>
</g>
<!-- Node4&#45;&gt;Node5 -->
<g id="edge4" class="edge"><title>Node4&#45;&gt;Node5</title>
<path fill="none" stroke="midnightblue" d="M621.954,-118.023C679.893,-106.72 781.864,-86.8274 839.885,-75.5085"/>
<polygon fill="midnightblue" stroke="midnightblue" points="621.158,-114.612 612.013,-119.962 622.498,-121.483 621.158,-114.612"/>
</g>
<!-- Node4&#45;&gt;Node6 -->
<g id="edge5" class="edge"><title>Node4&#45;&gt;Node6</title>
<path fill="none" stroke="midnightblue" d="M622.397,-122.449C692.447,-115.561 833.634,-99.9432 951.5,-76 954.643,-75.3616 957.928,-74.5921 961.155,-73.7752"/>
<polygon fill="midnightblue" stroke="midnightblue" points="621.799,-118.991 612.184,-123.441 622.475,-125.958 621.799,-118.991"/>
</g>
<!-- Node7 -->
<g id="node7" class="node"><title>Node7</title>
<g id="a_node7"><a xlink:href="_o_s_x_2_ogre_config_dialog_imp_8h.html" target="_top" xlink:title="OgreConfigDialogImp.h">
<polygon fill="none" stroke="black" points="0,-56.5 0,-75.5 119,-75.5 119,-56.5 0,-56.5"/>
<text text-anchor="middle" x="59.5" y="-63.5" font-family="Helvetica,sans-Serif" font-size="10.00">OgreConfigDialogImp.h</text>
</a>
</g>
</g>
<!-- Node4&#45;&gt;Node7 -->
<g id="edge6" class="edge"><title>Node4&#45;&gt;Node7</title>
<path fill="none" stroke="midnightblue" d="M534.635,-121.842C454.113,-113.232 277.319,-94.0546 128.5,-76 125.502,-75.6363 122.431,-75.2577 119.331,-74.8708"/>
<polygon fill="midnightblue" stroke="midnightblue" points="534.573,-125.355 544.888,-122.936 535.316,-118.394 534.573,-125.355"/>
</g>
<!-- Node8 -->
<g id="node8" class="node"><title>Node8</title>
<g id="a_node8"><a xlink:href="_ogre_static_plugin_loader_8h.html" target="_top" xlink:title="OgreStaticPluginLoader.h">
<polygon fill="none" stroke="black" points="137.5,-56.5 137.5,-75.5 265.5,-75.5 265.5,-56.5 137.5,-56.5"/>
<text text-anchor="middle" x="201.5" y="-63.5" font-family="Helvetica,sans-Serif" font-size="10.00">OgreStaticPluginLoader.h</text>
</a>
</g>
</g>
<!-- Node4&#45;&gt;Node8 -->
<g id="edge7" class="edge"><title>Node4&#45;&gt;Node8</title>
<path fill="none" stroke="midnightblue" d="M534.565,-119.566C465.214,-108.621 330.552,-87.3677 255.44,-75.5131"/>
<polygon fill="midnightblue" stroke="midnightblue" points="534.289,-123.066 544.712,-121.167 535.38,-116.151 534.289,-123.066"/>
</g>
<!-- Node9 -->
<g id="node9" class="node"><title>Node9</title>
<g id="a_node9"><a xlink:href="_ogre_trays_8h.html" target="_top" xlink:title="OgreTrays.h">
<polygon fill="none" stroke="black" points="284,-56.5 284,-75.5 355,-75.5 355,-56.5 284,-56.5"/>
<text text-anchor="middle" x="319.5" y="-63.5" font-family="Helvetica,sans-Serif" font-size="10.00">OgreTrays.h</text>
</a>
</g>
</g>
<!-- Node4&#45;&gt;Node9 -->
<g id="edge8" class="edge"><title>Node4&#45;&gt;Node9</title>
<path fill="none" stroke="midnightblue" d="M534.934,-116.492C484.385,-104.879 401.996,-85.9519 355.111,-75.1808"/>
<polygon fill="midnightblue" stroke="midnightblue" points="534.376,-119.955 544.906,-118.782 535.943,-113.132 534.376,-119.955"/>
</g>
<!-- Node10 -->
<g id="node10" class="node"><title>Node10</title>
<g id="a_node10"><a xlink:href="_ogre_d3_d11_mappings_8h.html" target="_top" xlink:title="OgreD3D11Mappings.h">
<polygon fill="none" stroke="red" points="373,-56.5 373,-75.5 492,-75.5 492,-56.5 373,-56.5"/>
<text text-anchor="middle" x="432.5" y="-63.5" font-family="Helvetica,sans-Serif" font-size="10.00">OgreD3D11Mappings.h</text>
</a>
</g>
</g>
<!-- Node4&#45;&gt;Node10 -->
<g id="edge9" class="edge"><title>Node4&#45;&gt;Node10</title>
<path fill="none" stroke="midnightblue" d="M548.15,-114.131C519.785,-102.572 478.189,-85.62 453.379,-75.5091"/>
<polygon fill="midnightblue" stroke="midnightblue" points="547,-117.442 557.582,-117.975 549.642,-110.96 547,-117.442"/>
</g>
<!-- Node11 -->
<g id="node11" class="node"><title>Node11</title>
<g id="a_node11"><a xlink:href="_ogre_e_a_g_l_view_controller_8h.html" target="_top" xlink:title="OgreEAGLViewController.h">
<polygon fill="none" stroke="black" points="510.5,-56.5 510.5,-75.5 646.5,-75.5 646.5,-56.5 510.5,-56.5"/>
<text text-anchor="middle" x="578.5" y="-63.5" font-family="Helvetica,sans-Serif" font-size="10.00">OgreEAGLViewController.h</text>
</a>
</g>
</g>
<!-- Node4&#45;&gt;Node11 -->
<g id="edge10" class="edge"><title>Node4&#45;&gt;Node11</title>
<path fill="none" stroke="midnightblue" d="M578.5,-107.817C578.5,-96.9962 578.5,-83.898 578.5,-75.5091"/>
<polygon fill="midnightblue" stroke="midnightblue" points="575,-107.975 578.5,-117.975 582,-107.975 575,-107.975"/>
</g>
<!-- Node12 -->
<g id="node12" class="node"><title>Node12</title>
<g id="a_node12"><a xlink:href="_ogre_e_a_g_l2_view_controller_8h.html" target="_top" xlink:title="OgreEAGL2ViewController.h">
<polygon fill="none" stroke="black" points="665,-56.5 665,-75.5 806,-75.5 806,-56.5 665,-56.5"/>
<text text-anchor="middle" x="735.5" y="-63.5" font-family="Helvetica,sans-Serif" font-size="10.00">OgreEAGL2ViewController.h</text>
</a>
</g>
</g>
<!-- Node4&#45;&gt;Node12 -->
<g id="edge11" class="edge"><title>Node4&#45;&gt;Node12</title>
<path fill="none" stroke="midnightblue" d="M610.738,-114.282C641.248,-102.72 686.252,-85.6641 713.047,-75.5091"/>
<polygon fill="midnightblue" stroke="midnightblue" points="609.105,-111.158 600.994,-117.975 611.586,-117.704 609.105,-111.158"/>
</g>
<!-- Node14 -->
<g id="node14" class="node"><title>Node14</title>
<g id="a_node14"><a xlink:href="_ogre_r_t_shader_system_8h.html" target="_top" xlink:title="OgreRTShaderSystem.h">
<polygon fill="none" stroke="black" points="1113.5,-56.5 1113.5,-75.5 1237.5,-75.5 1237.5,-56.5 1113.5,-56.5"/>
<text text-anchor="middle" x="1175.5" y="-63.5" font-family="Helvetica,sans-Serif" font-size="10.00">OgreRTShaderSystem.h</text>
</a>
</g>
</g>
<!-- Node13&#45;&gt;Node14 -->
<g id="edge15" class="edge"><title>Node13&#45;&gt;Node14</title>
<path fill="none" stroke="midnightblue" d="M1210.1,-180.029C1256.33,-173.137 1311.09,-161.341 1325.5,-143 1354.36,-106.275 1288.55,-85.7687 1235.14,-75.5535"/>
<polygon fill="midnightblue" stroke="midnightblue" points="1209.48,-176.582 1200.08,-181.468 1210.47,-183.511 1209.48,-176.582"/>
</g>
<!-- Node16 -->
<g id="node16" class="node"><title>Node16</title>
<g id="a_node16"><a xlink:href="_ogre_shader_material_serializer_listener_8h.html" target="_top" xlink:title="OgreShaderMaterialSerializer\lListener.h">
<polygon fill="none" stroke="black" points="1013,-112.5 1013,-142.5 1156,-142.5 1156,-112.5 1013,-112.5"/>
<text text-anchor="start" x="1021" y="-130.5" font-family="Helvetica,sans-Serif" font-size="10.00">OgreShaderMaterialSerializer</text>
<text text-anchor="middle" x="1084.5" y="-119.5" font-family="Helvetica,sans-Serif" font-size="10.00">Listener.h</text>
</a>
</g>
</g>
<!-- Node13&#45;&gt;Node16 -->
<g id="edge17" class="edge"><title>Node13&#45;&gt;Node16</title>
<path fill="none" stroke="midnightblue" d="M1125.53,-172.091C1116.86,-162.88 1106.05,-151.393 1097.7,-142.523"/>
<polygon fill="midnightblue" stroke="midnightblue" points="1123.07,-174.592 1132.48,-179.475 1128.17,-169.794 1123.07,-174.592"/>
</g>
<!-- Node17 -->
<g id="node17" class="node"><title>Node17</title>
<g id="a_node17"><a xlink:href="_ogre_shader_f_f_p_render_state_builder_8h.html" target="_top" xlink:title="OgreShaderFFPRenderState\lBuilder.h">
<polygon fill="none" stroke="black" points="1174.5,-112.5 1174.5,-142.5 1316.5,-142.5 1316.5,-112.5 1174.5,-112.5"/>
<text text-anchor="start" x="1182.5" y="-130.5" font-family="Helvetica,sans-Serif" font-size="10.00">OgreShaderFFPRenderState</text>
<text text-anchor="middle" x="1245.5" y="-119.5" font-family="Helvetica,sans-Serif" font-size="10.00">Builder.h</text>
</a>
</g>
</g>
<!-- Node13&#45;&gt;Node17 -->
<g id="edge19" class="edge"><title>Node13&#45;&gt;Node17</title>
<path fill="none" stroke="midnightblue" d="M1164.25,-174.542C1181.1,-164.991 1203.68,-152.199 1220.75,-142.523"/>
<polygon fill="midnightblue" stroke="midnightblue" points="1162.52,-171.5 1155.54,-179.475 1165.97,-177.59 1162.52,-171.5"/>
</g>
<!-- Node15 -->
<g id="node15" class="node"><title>Node15</title>
<g id="a_node15"><a xlink:href="_ogre_s_g_technique_resolver_listener_8h.html" target="_top" xlink:title="OgreSGTechniqueResolverListener.h">
<polygon fill="none" stroke="black" points="1086,-0.5 1086,-19.5 1265,-19.5 1265,-0.5 1086,-0.5"/>
<text text-anchor="middle" x="1175.5" y="-7.5" font-family="Helvetica,sans-Serif" font-size="10.00">OgreSGTechniqueResolverListener.h</text>
</a>
</g>
</g>
<!-- Node14&#45;&gt;Node15 -->
<g id="edge16" class="edge"><title>Node14&#45;&gt;Node15</title>
<path fill="none" stroke="midnightblue" d="M1175.5,-45.8045C1175.5,-36.9102 1175.5,-26.7798 1175.5,-19.7511"/>
<polygon fill="midnightblue" stroke="midnightblue" points="1172,-46.083 1175.5,-56.083 1179,-46.083 1172,-46.083"/>
</g>
<!-- Node16&#45;&gt;Node14 -->
<g id="edge18" class="edge"><title>Node16&#45;&gt;Node14</title>
<path fill="none" stroke="midnightblue" d="M1114.67,-106.776C1130.79,-96.2315 1149.83,-83.7834 1162.26,-75.6578"/>
<polygon fill="midnightblue" stroke="midnightblue" points="1112.52,-103.997 1106.07,-112.399 1116.35,-109.856 1112.52,-103.997"/>
</g>
<!-- Node19 -->
<g id="node19" class="node"><title>Node19</title>
<g id="a_node19"><a xlink:href="_ogre_terrain_group_8h.html" target="_top" xlink:title="OgreTerrainGroup.h">
<polygon fill="none" stroke="black" points="1372.5,-118 1372.5,-137 1474.5,-137 1474.5,-118 1372.5,-118"/>
<text text-anchor="middle" x="1423.5" y="-125" font-family="Helvetica,sans-Serif" font-size="10.00">OgreTerrainGroup.h</text>
</a>
</g>
</g>
<!-- Node18&#45;&gt;Node19 -->
<g id="edge21" class="edge"><title>Node18&#45;&gt;Node19</title>
<path fill="none" stroke="midnightblue" d="M1382.56,-171.997C1393.16,-160.736 1406.93,-146.104 1415.49,-137.009"/>
<polygon fill="midnightblue" stroke="midnightblue" points="1379.83,-169.794 1375.52,-179.475 1384.93,-174.592 1379.83,-169.794"/>
</g>
<!-- Node20 -->
<g id="node20" class="node"><title>Node20</title>
<g id="a_node20"><a xlink:href="_ogre_terrain_paged_world_section_8h.html" target="_top" xlink:title="OgreTerrainPagedWorldSection.h">
<polygon fill="none" stroke="black" points="1342.5,-56.5 1342.5,-75.5 1504.5,-75.5 1504.5,-56.5 1342.5,-56.5"/>
<text text-anchor="middle" x="1423.5" y="-63.5" font-family="Helvetica,sans-Serif" font-size="10.00">OgreTerrainPagedWorldSection.h</text>
</a>
</g>
</g>
<!-- Node19&#45;&gt;Node20 -->
<g id="edge22" class="edge"><title>Node19&#45;&gt;Node20</title>
<path fill="none" stroke="midnightblue" d="M1423.5,-107.817C1423.5,-96.9962 1423.5,-83.898 1423.5,-75.5091"/>
<polygon fill="midnightblue" stroke="midnightblue" points="1420,-107.975 1423.5,-117.975 1427,-107.975 1420,-107.975"/>
</g>
</g>
</svg>
