<?xml version="1.0" encoding="UTF-8" standalone="no"?>
<!DOCTYPE svg PUBLIC "-//W3C//DTD SVG 1.1//EN"
 "http://www.w3.org/Graphics/SVG/1.1/DTD/svg11.dtd">
<!-- Generated by graphviz version 2.38.0 (20140413.2041)
 -->
<!-- Title: OgreShadowCameraSetupPlaneOptimal.h Pages: 1 -->
<svg width="2974pt" height="319pt"
 viewBox="0.00 0.00 2974.23 319.00" xmlns="http://www.w3.org/2000/svg" xmlns:xlink="http://www.w3.org/1999/xlink">
<g id="graph0" class="graph" transform="scale(1 1) rotate(0) translate(4 315)">
<title>OgreShadowCameraSetupPlaneOptimal.h</title>
<!-- Node1 -->
<g id="node1" class="node"><title>Node1</title>
<polygon fill="#bfbfbf" stroke="black" points="2304.23,-280.5 2304.23,-310.5 2462.23,-310.5 2462.23,-280.5 2304.23,-280.5"/>
<text text-anchor="start" x="2312.23" y="-298.5" font-family="Helvetica,sans-Serif" font-size="10.00">OgreShadowCameraSetupPlane</text>
<text text-anchor="middle" x="2383.23" y="-287.5" font-family="Helvetica,sans-Serif" font-size="10.00">Optimal.h</text>
</g>
<!-- Node2 -->
<g id="node2" class="node"><title>Node2</title>
<g id="a_node2"><a xlink:href="_ogre_prerequisites_8h.html" target="_top" xlink:title="OgrePrerequisites.h">
<polygon fill="none" stroke="black" points="2332.73,-168.5 2332.73,-187.5 2435.73,-187.5 2435.73,-168.5 2332.73,-168.5"/>
<text text-anchor="middle" x="2384.23" y="-175.5" font-family="Helvetica,sans-Serif" font-size="10.00">OgrePrerequisites.h</text>
</a>
</g>
</g>
<!-- Node1&#45;&gt;Node2 -->
<g id="edge1" class="edge"><title>Node1&#45;&gt;Node2</title>
<path fill="none" stroke="midnightblue" d="M2394.4,-280.43C2401.32,-270.79 2409.56,-257.374 2413.23,-244 2415.58,-235.428 2415.74,-232.527 2413.23,-224 2410.22,-213.765 2404.07,-203.66 2398.21,-195.627"/>
<polygon fill="midnightblue" stroke="midnightblue" points="2400.81,-193.269 2391.9,-187.541 2395.3,-197.577 2400.81,-193.269"/>
</g>
<!-- Node39 -->
<g id="node39" class="node"><title>Node39</title>
<g id="a_node39"><a xlink:href="_ogre_header_prefix_8h.html" target="_top" xlink:title="OgreHeaderPrefix.h">
<polygon fill="none" stroke="black" points="2377.73,-0.5 2377.73,-19.5 2480.73,-19.5 2480.73,-0.5 2377.73,-0.5"/>
<text text-anchor="middle" x="2429.23" y="-7.5" font-family="Helvetica,sans-Serif" font-size="10.00">OgreHeaderPrefix.h</text>
</a>
</g>
</g>
<!-- Node1&#45;&gt;Node39 -->
<g id="edge55" class="edge"><title>Node1&#45;&gt;Node39</title>
<path fill="none" stroke="midnightblue" d="M2303.98,-294.892C1890.66,-296.428 1.22848,-296.998 1.22848,-179 1.22848,-179 1.22848,-179 1.22848,-121 1.22848,-90.9022 -3.68545,-74.2757 20.2285,-56 68.2692,-19.286 1995.59,-12.1809 2367.48,-11.1508"/>
<polygon fill="midnightblue" stroke="midnightblue" points="2367.53,-14.6508 2377.52,-11.1235 2367.51,-7.65084 2367.53,-14.6508"/>
</g>
<!-- Node40 -->
<g id="node40" class="node"><title>Node40</title>
<g id="a_node40"><a xlink:href="_ogre_header_suffix_8h.html" target="_top" xlink:title="OgreHeaderSuffix.h">
<polygon fill="none" stroke="black" points="2730.73,-0.5 2730.73,-19.5 2833.73,-19.5 2833.73,-0.5 2730.73,-0.5"/>
<text text-anchor="middle" x="2782.23" y="-7.5" font-family="Helvetica,sans-Serif" font-size="10.00">OgreHeaderSuffix.h</text>
</a>
</g>
</g>
<!-- Node1&#45;&gt;Node40 -->
<g id="edge56" class="edge"><title>Node1&#45;&gt;Node40</title>
<path fill="none" stroke="midnightblue" d="M2462.46,-295.115C2621.86,-294.209 2966.23,-280.506 2966.23,-179 2966.23,-179 2966.23,-179 2966.23,-121 2966.23,-62.6636 2897.25,-34.526 2843.76,-21.4766"/>
<polygon fill="midnightblue" stroke="midnightblue" points="2844.5,-18.0564 2833.97,-19.2117 2842.93,-24.8762 2844.5,-18.0564"/>
</g>
<!-- Node43 -->
<g id="node43" class="node"><title>Node43</title>
<g id="a_node43"><a xlink:href="_ogre_shadow_camera_setup_8h.html" target="_top" xlink:title="OgreShadowCameraSetup.h">
<polygon fill="none" stroke="black" points="2263.73,-224.5 2263.73,-243.5 2404.73,-243.5 2404.73,-224.5 2263.73,-224.5"/>
<text text-anchor="middle" x="2334.23" y="-231.5" font-family="Helvetica,sans-Serif" font-size="10.00">OgreShadowCameraSetup.h</text>
</a>
</g>
</g>
<!-- Node1&#45;&gt;Node43 -->
<g id="edge51" class="edge"><title>Node1&#45;&gt;Node43</title>
<path fill="none" stroke="midnightblue" d="M2371.62,-280.399C2364.5,-271.753 2355.35,-260.642 2347.88,-251.576"/>
<polygon fill="midnightblue" stroke="midnightblue" points="2350.42,-249.152 2341.36,-243.658 2345.01,-253.602 2350.42,-249.152"/>
</g>
<!-- Node3 -->
<g id="node3" class="node"><title>Node3</title>
<g id="a_node3"><a xlink:href="_ogre_platform_8h.html" target="_top" xlink:title="OgrePlatform.h">
<polygon fill="none" stroke="black" points="739.728,-112.5 739.728,-131.5 822.728,-131.5 822.728,-112.5 739.728,-112.5"/>
<text text-anchor="middle" x="781.228" y="-119.5" font-family="Helvetica,sans-Serif" font-size="10.00">OgrePlatform.h</text>
</a>
</g>
</g>
<!-- Node2&#45;&gt;Node3 -->
<g id="edge2" class="edge"><title>Node2&#45;&gt;Node3</title>
<path fill="none" stroke="midnightblue" d="M2332.71,-175.264C2091.53,-167.14 1075.56,-132.915 833.266,-124.753"/>
<polygon fill="midnightblue" stroke="midnightblue" points="833.09,-121.245 822.978,-124.406 832.854,-128.241 833.09,-121.245"/>
</g>
<!-- Node6 -->
<g id="node6" class="node"><title>Node6</title>
<polygon fill="none" stroke="#bfbfbf" points="2308.73,-56.5 2308.73,-75.5 2349.73,-75.5 2349.73,-56.5 2308.73,-56.5"/>
<text text-anchor="middle" x="2329.23" y="-63.5" font-family="Helvetica,sans-Serif" font-size="10.00">string</text>
</g>
<!-- Node2&#45;&gt;Node6 -->
<g id="edge5" class="edge"><title>Node2&#45;&gt;Node6</title>
<path fill="none" stroke="midnightblue" d="M2379.91,-168.368C2370.92,-150.376 2350,-108.55 2338.04,-84.6267"/>
<polygon fill="midnightblue" stroke="midnightblue" points="2341.13,-82.9704 2333.52,-75.5914 2334.87,-86.101 2341.13,-82.9704"/>
</g>
<!-- Node7 -->
<g id="node7" class="node"><title>Node7</title>
<g id="a_node7"><a xlink:href="_ogre_std_headers_8h.html" target="_top" xlink:title="OgreStdHeaders.h">
<polygon fill="none" stroke="black" points="1421.23,-112.5 1421.23,-131.5 1519.23,-131.5 1519.23,-112.5 1421.23,-112.5"/>
<text text-anchor="middle" x="1470.23" y="-119.5" font-family="Helvetica,sans-Serif" font-size="10.00">OgreStdHeaders.h</text>
</a>
</g>
</g>
<!-- Node2&#45;&gt;Node7 -->
<g id="edge6" class="edge"><title>Node2&#45;&gt;Node7</title>
<path fill="none" stroke="midnightblue" d="M2332.47,-173.942C2174.25,-164.594 1697.58,-136.432 1529.6,-126.508"/>
<polygon fill="midnightblue" stroke="midnightblue" points="1529.65,-123.005 1519.46,-125.909 1529.24,-129.993 1529.65,-123.005"/>
</g>
<!-- Node37 -->
<g id="node37" class="node"><title>Node37</title>
<g id="a_node37"><a xlink:href="_ogre_memory_allocator_config_8h.html" target="_top" xlink:title="This file configures Ogre&#39;s memory allocators. ">
<polygon fill="none" stroke="black" points="2469.23,-112.5 2469.23,-131.5 2617.23,-131.5 2617.23,-112.5 2469.23,-112.5"/>
<text text-anchor="middle" x="2543.23" y="-119.5" font-family="Helvetica,sans-Serif" font-size="10.00">OgreMemoryAllocatorConfig.h</text>
</a>
</g>
</g>
<!-- Node2&#45;&gt;Node37 -->
<g id="edge37" class="edge"><title>Node2&#45;&gt;Node37</title>
<path fill="none" stroke="midnightblue" d="M2409.42,-168.444C2436.17,-159.359 2478.63,-144.939 2508.53,-134.783"/>
<polygon fill="midnightblue" stroke="midnightblue" points="2509.81,-138.046 2518.15,-131.516 2507.56,-131.418 2509.81,-138.046"/>
</g>
<!-- Node4 -->
<g id="node4" class="node"><title>Node4</title>
<g id="a_node4"><a xlink:href="_ogre_config_8h.html" target="_top" xlink:title="OgreConfig.h">
<polygon fill="none" stroke="black" points="29.2285,-56.5 29.2285,-75.5 103.228,-75.5 103.228,-56.5 29.2285,-56.5"/>
<text text-anchor="middle" x="66.2285" y="-63.5" font-family="Helvetica,sans-Serif" font-size="10.00">OgreConfig.h</text>
</a>
</g>
</g>
<!-- Node3&#45;&gt;Node4 -->
<g id="edge3" class="edge"><title>Node3&#45;&gt;Node4</title>
<path fill="none" stroke="midnightblue" d="M739.471,-118.537C638.294,-112.457 372.022,-95.7841 150.228,-76 138.365,-74.9417 125.574,-73.6492 113.64,-72.3775"/>
<polygon fill="midnightblue" stroke="midnightblue" points="113.735,-68.8675 103.417,-71.2717 112.982,-75.8269 113.735,-68.8675"/>
</g>
<!-- Node5 -->
<g id="node5" class="node"><title>Node5</title>
<polygon fill="none" stroke="#bfbfbf" points="14.2285,-0.5 14.2285,-19.5 118.228,-19.5 118.228,-0.5 14.2285,-0.5"/>
<text text-anchor="middle" x="66.2285" y="-7.5" font-family="Helvetica,sans-Serif" font-size="10.00">OgreBuildSettings.h</text>
</g>
<!-- Node4&#45;&gt;Node5 -->
<g id="edge4" class="edge"><title>Node4&#45;&gt;Node5</title>
<path fill="none" stroke="midnightblue" d="M66.2285,-56.083C66.2285,-49.0059 66.2285,-38.8611 66.2285,-29.9865"/>
<polygon fill="midnightblue" stroke="midnightblue" points="69.7286,-29.751 66.2285,-19.7511 62.7286,-29.7511 69.7286,-29.751"/>
</g>
<!-- Node7&#45;&gt;Node6 -->
<g id="edge16" class="edge"><title>Node7&#45;&gt;Node6</title>
<path fill="none" stroke="midnightblue" d="M1519.47,-119.859C1670.88,-116.114 2129.07,-102.957 2298.7,-75.5477"/>
<polygon fill="midnightblue" stroke="midnightblue" points="2299.45,-78.97 2308.73,-73.85 2298.28,-72.0682 2299.45,-78.97"/>
</g>
<!-- Node8 -->
<g id="node8" class="node"><title>Node8</title>
<polygon fill="none" stroke="#bfbfbf" points="1319.73,-56.5 1319.73,-75.5 1368.73,-75.5 1368.73,-56.5 1319.73,-56.5"/>
<text text-anchor="middle" x="1344.23" y="-63.5" font-family="Helvetica,sans-Serif" font-size="10.00">cassert</text>
</g>
<!-- Node7&#45;&gt;Node8 -->
<g id="edge7" class="edge"><title>Node7&#45;&gt;Node8</title>
<path fill="none" stroke="midnightblue" d="M1450.26,-112.444C1429.62,-103.596 1397.17,-89.6875 1373.6,-79.5865"/>
<polygon fill="midnightblue" stroke="midnightblue" points="1374.67,-76.2387 1364.1,-75.5164 1371.91,-82.6727 1374.67,-76.2387"/>
</g>
<!-- Node9 -->
<g id="node9" class="node"><title>Node9</title>
<polygon fill="none" stroke="#bfbfbf" points="1386.73,-56.5 1386.73,-75.5 1429.73,-75.5 1429.73,-56.5 1386.73,-56.5"/>
<text text-anchor="middle" x="1408.23" y="-63.5" font-family="Helvetica,sans-Serif" font-size="10.00">cstdio</text>
</g>
<!-- Node7&#45;&gt;Node9 -->
<g id="edge8" class="edge"><title>Node7&#45;&gt;Node9</title>
<path fill="none" stroke="midnightblue" d="M1460.27,-112.324C1451.1,-104.341 1437.29,-92.3128 1426.2,-82.6529"/>
<polygon fill="midnightblue" stroke="midnightblue" points="1428.21,-79.7624 1418.37,-75.8339 1423.61,-85.041 1428.21,-79.7624"/>
</g>
<!-- Node10 -->
<g id="node10" class="node"><title>Node10</title>
<polygon fill="none" stroke="#bfbfbf" points="1447.73,-56.5 1447.73,-75.5 1492.73,-75.5 1492.73,-56.5 1447.73,-56.5"/>
<text text-anchor="middle" x="1470.23" y="-63.5" font-family="Helvetica,sans-Serif" font-size="10.00">cstdlib</text>
</g>
<!-- Node7&#45;&gt;Node10 -->
<g id="edge9" class="edge"><title>Node7&#45;&gt;Node10</title>
<path fill="none" stroke="midnightblue" d="M1470.23,-112.083C1470.23,-105.006 1470.23,-94.8611 1470.23,-85.9865"/>
<polygon fill="midnightblue" stroke="midnightblue" points="1473.73,-85.751 1470.23,-75.7511 1466.73,-85.7511 1473.73,-85.751"/>
</g>
<!-- Node11 -->
<g id="node11" class="node"><title>Node11</title>
<polygon fill="none" stroke="#bfbfbf" points="1510.73,-56.5 1510.73,-75.5 1551.73,-75.5 1551.73,-56.5 1510.73,-56.5"/>
<text text-anchor="middle" x="1531.23" y="-63.5" font-family="Helvetica,sans-Serif" font-size="10.00">ctime</text>
</g>
<!-- Node7&#45;&gt;Node11 -->
<g id="edge10" class="edge"><title>Node7&#45;&gt;Node11</title>
<path fill="none" stroke="midnightblue" d="M1480.03,-112.324C1489.05,-104.341 1502.63,-92.3128 1513.55,-82.6529"/>
<polygon fill="midnightblue" stroke="midnightblue" points="1516.08,-85.083 1521.25,-75.8339 1511.44,-79.8416 1516.08,-85.083"/>
</g>
<!-- Node12 -->
<g id="node12" class="node"><title>Node12</title>
<polygon fill="none" stroke="#bfbfbf" points="1570.23,-56.5 1570.23,-75.5 1616.23,-75.5 1616.23,-56.5 1570.23,-56.5"/>
<text text-anchor="middle" x="1593.23" y="-63.5" font-family="Helvetica,sans-Serif" font-size="10.00">cstring</text>
</g>
<!-- Node7&#45;&gt;Node12 -->
<g id="edge11" class="edge"><title>Node7&#45;&gt;Node12</title>
<path fill="none" stroke="midnightblue" d="M1489.72,-112.444C1509.87,-103.596 1541.55,-89.6875 1564.56,-79.5865"/>
<polygon fill="midnightblue" stroke="midnightblue" points="1566.08,-82.7411 1573.83,-75.5164 1563.27,-76.3316 1566.08,-82.7411"/>
</g>
<!-- Node13 -->
<g id="node13" class="node"><title>Node13</title>
<polygon fill="none" stroke="#bfbfbf" points="1634.73,-56.5 1634.73,-75.5 1683.73,-75.5 1683.73,-56.5 1634.73,-56.5"/>
<text text-anchor="middle" x="1659.23" y="-63.5" font-family="Helvetica,sans-Serif" font-size="10.00">cstdarg</text>
</g>
<!-- Node7&#45;&gt;Node13 -->
<g id="edge12" class="edge"><title>Node7&#45;&gt;Node13</title>
<path fill="none" stroke="midnightblue" d="M1500.18,-112.444C1534,-102.78 1588.95,-87.0801 1624.59,-76.8969"/>
<polygon fill="midnightblue" stroke="midnightblue" points="1625.89,-80.1663 1634.54,-74.0537 1623.96,-73.4357 1625.89,-80.1663"/>
</g>
<!-- Node14 -->
<g id="node14" class="node"><title>Node14</title>
<polygon fill="none" stroke="#bfbfbf" points="1702.23,-56.5 1702.23,-75.5 1746.23,-75.5 1746.23,-56.5 1702.23,-56.5"/>
<text text-anchor="middle" x="1724.23" y="-63.5" font-family="Helvetica,sans-Serif" font-size="10.00">cmath</text>
</g>
<!-- Node7&#45;&gt;Node14 -->
<g id="edge13" class="edge"><title>Node7&#45;&gt;Node14</title>
<path fill="none" stroke="midnightblue" d="M1517.66,-112.441C1560.65,-104.447 1625.93,-91.7181 1692.13,-75.8676"/>
<polygon fill="midnightblue" stroke="midnightblue" points="1693.01,-79.2574 1701.9,-73.5066 1691.36,-72.4532 1693.01,-79.2574"/>
</g>
<!-- Node15 -->
<g id="node15" class="node"><title>Node15</title>
<polygon fill="none" stroke="#bfbfbf" points="1764.23,-56.5 1764.23,-75.5 1808.23,-75.5 1808.23,-56.5 1764.23,-56.5"/>
<text text-anchor="middle" x="1786.23" y="-63.5" font-family="Helvetica,sans-Serif" font-size="10.00">vector</text>
</g>
<!-- Node7&#45;&gt;Node15 -->
<g id="edge14" class="edge"><title>Node7&#45;&gt;Node15</title>
<path fill="none" stroke="midnightblue" d="M1519.24,-115.169C1574.25,-108.203 1666.27,-95.2804 1754.11,-76.0204"/>
<polygon fill="midnightblue" stroke="midnightblue" points="1754.96,-79.4153 1763.96,-73.8276 1753.44,-72.5823 1754.96,-79.4153"/>
</g>
<!-- Node16 -->
<g id="node16" class="node"><title>Node16</title>
<polygon fill="none" stroke="#bfbfbf" points="1826.73,-56.5 1826.73,-75.5 1861.73,-75.5 1861.73,-56.5 1826.73,-56.5"/>
<text text-anchor="middle" x="1844.23" y="-63.5" font-family="Helvetica,sans-Serif" font-size="10.00">map</text>
</g>
<!-- Node7&#45;&gt;Node16 -->
<g id="edge15" class="edge"><title>Node7&#45;&gt;Node16</title>
<path fill="none" stroke="midnightblue" d="M1519.31,-117.63C1585.04,-112.462 1705.27,-100.708 1816.59,-75.7019"/>
<polygon fill="midnightblue" stroke="midnightblue" points="1817.68,-79.0437 1826.65,-73.4013 1816.12,-72.2201 1817.68,-79.0437"/>
</g>
<!-- Node17 -->
<g id="node17" class="node"><title>Node17</title>
<polygon fill="none" stroke="#bfbfbf" points="1880.23,-56.5 1880.23,-75.5 1910.23,-75.5 1910.23,-56.5 1880.23,-56.5"/>
<text text-anchor="middle" x="1895.23" y="-63.5" font-family="Helvetica,sans-Serif" font-size="10.00">set</text>
</g>
<!-- Node7&#45;&gt;Node17 -->
<g id="edge17" class="edge"><title>Node7&#45;&gt;Node17</title>
<path fill="none" stroke="midnightblue" d="M1519.5,-119.155C1595.62,-115.479 1746.02,-104.925 1870.23,-76 1870.33,-75.9765 1870.43,-75.9526 1870.53,-75.9285"/>
<polygon fill="midnightblue" stroke="midnightblue" points="1871.47,-79.3003 1880.06,-73.0973 1869.48,-72.5902 1871.47,-79.3003"/>
</g>
<!-- Node18 -->
<g id="node18" class="node"><title>Node18</title>
<polygon fill="none" stroke="#bfbfbf" points="1928.73,-56.5 1928.73,-75.5 1957.73,-75.5 1957.73,-56.5 1928.73,-56.5"/>
<text text-anchor="middle" x="1943.23" y="-63.5" font-family="Helvetica,sans-Serif" font-size="10.00">list</text>
</g>
<!-- Node7&#45;&gt;Node18 -->
<g id="edge18" class="edge"><title>Node7&#45;&gt;Node18</title>
<path fill="none" stroke="midnightblue" d="M1519.41,-120.213C1600.95,-118.012 1769.14,-109.672 1918.86,-75.4291"/>
<polygon fill="midnightblue" stroke="midnightblue" points="1919.75,-78.8155 1928.69,-73.1359 1918.16,-71.9984 1919.75,-78.8155"/>
</g>
<!-- Node19 -->
<g id="node19" class="node"><title>Node19</title>
<polygon fill="none" stroke="#bfbfbf" points="1975.73,-56.5 1975.73,-75.5 2018.73,-75.5 2018.73,-56.5 1975.73,-56.5"/>
<text text-anchor="middle" x="1997.23" y="-63.5" font-family="Helvetica,sans-Serif" font-size="10.00">deque</text>
</g>
<!-- Node7&#45;&gt;Node19 -->
<g id="edge19" class="edge"><title>Node7&#45;&gt;Node19</title>
<path fill="none" stroke="midnightblue" d="M1519.24,-119.668C1607,-116.61 1796.77,-106.932 1965.61,-75.7218"/>
<polygon fill="midnightblue" stroke="midnightblue" points="1966.49,-79.1172 1975.68,-73.8308 1965.2,-72.2376 1966.49,-79.1172"/>
</g>
<!-- Node20 -->
<g id="node20" class="node"><title>Node20</title>
<polygon fill="none" stroke="#bfbfbf" points="2036.73,-56.5 2036.73,-75.5 2079.73,-75.5 2079.73,-56.5 2036.73,-56.5"/>
<text text-anchor="middle" x="2058.23" y="-63.5" font-family="Helvetica,sans-Serif" font-size="10.00">queue</text>
</g>
<!-- Node7&#45;&gt;Node20 -->
<g id="edge20" class="edge"><title>Node7&#45;&gt;Node20</title>
<path fill="none" stroke="midnightblue" d="M1519.46,-120.349C1615.44,-118.362 1834.23,-110.314 2026.67,-75.689"/>
<polygon fill="midnightblue" stroke="midnightblue" points="2027.47,-79.0998 2036.68,-73.8587 2026.22,-72.2139 2027.47,-79.0998"/>
</g>
<!-- Node21 -->
<g id="node21" class="node"><title>Node21</title>
<polygon fill="none" stroke="#bfbfbf" points="2097.73,-56.5 2097.73,-75.5 2138.73,-75.5 2138.73,-56.5 2097.73,-56.5"/>
<text text-anchor="middle" x="2118.23" y="-63.5" font-family="Helvetica,sans-Serif" font-size="10.00">bitset</text>
</g>
<!-- Node7&#45;&gt;Node21 -->
<g id="edge21" class="edge"><title>Node7&#45;&gt;Node21</title>
<path fill="none" stroke="midnightblue" d="M1519.56,-121.051C1623.31,-120.376 1871.61,-114.647 2087.77,-75.6217"/>
<polygon fill="midnightblue" stroke="midnightblue" points="2088.51,-79.0447 2097.72,-73.7986 2087.25,-72.1595 2088.51,-79.0447"/>
</g>
<!-- Node22 -->
<g id="node22" class="node"><title>Node22</title>
<polygon fill="none" stroke="#bfbfbf" points="2157.23,-56.5 2157.23,-75.5 2213.23,-75.5 2213.23,-56.5 2157.23,-56.5"/>
<text text-anchor="middle" x="2185.23" y="-63.5" font-family="Helvetica,sans-Serif" font-size="10.00">algorithm</text>
</g>
<!-- Node7&#45;&gt;Node22 -->
<g id="edge22" class="edge"><title>Node7&#45;&gt;Node22</title>
<path fill="none" stroke="midnightblue" d="M1519.38,-120.525C1631.39,-118.833 1913.98,-111.125 2147.23,-76 2147.33,-75.9849 2147.43,-75.9696 2147.53,-75.9542"/>
<polygon fill="midnightblue" stroke="midnightblue" points="2147.9,-79.445 2157.11,-74.2097 2146.64,-72.5583 2147.9,-79.445"/>
</g>
<!-- Node23 -->
<g id="node23" class="node"><title>Node23</title>
<polygon fill="none" stroke="#bfbfbf" points="2231.73,-56.5 2231.73,-75.5 2290.73,-75.5 2290.73,-56.5 2231.73,-56.5"/>
<text text-anchor="middle" x="2261.23" y="-63.5" font-family="Helvetica,sans-Serif" font-size="10.00">functional</text>
</g>
<!-- Node7&#45;&gt;Node23 -->
<g id="edge23" class="edge"><title>Node7&#45;&gt;Node23</title>
<path fill="none" stroke="midnightblue" d="M1519.34,-120.891C1638.31,-120.02 1951.36,-114.106 2221.52,-75.8295"/>
<polygon fill="midnightblue" stroke="midnightblue" points="2222.11,-79.2802 2231.51,-74.3956 2221.12,-72.3511 2222.11,-79.2802"/>
</g>
<!-- Node24 -->
<g id="node24" class="node"><title>Node24</title>
<polygon fill="none" stroke="#bfbfbf" points="159.228,-56.5 159.228,-75.5 199.228,-75.5 199.228,-56.5 159.228,-56.5"/>
<text text-anchor="middle" x="179.228" y="-63.5" font-family="Helvetica,sans-Serif" font-size="10.00">limits</text>
</g>
<!-- Node7&#45;&gt;Node24 -->
<g id="edge24" class="edge"><title>Node7&#45;&gt;Node24</title>
<path fill="none" stroke="midnightblue" d="M1420.95,-120.015C1207.87,-115.656 369.723,-97.4232 209.677,-75.5706"/>
<polygon fill="midnightblue" stroke="midnightblue" points="209.757,-72.0423 199.343,-73.9911 208.7,-78.9619 209.757,-72.0423"/>
</g>
<!-- Node25 -->
<g id="node25" class="node"><title>Node25</title>
<polygon fill="none" stroke="#bfbfbf" points="217.228,-56.5 217.228,-75.5 267.228,-75.5 267.228,-56.5 217.228,-56.5"/>
<text text-anchor="middle" x="242.228" y="-63.5" font-family="Helvetica,sans-Serif" font-size="10.00">fstream</text>
</g>
<!-- Node7&#45;&gt;Node25 -->
<g id="edge25" class="edge"><title>Node7&#45;&gt;Node25</title>
<path fill="none" stroke="midnightblue" d="M1421.1,-120.596C1228.27,-118.787 522.222,-110.037 277.268,-75.7527"/>
<polygon fill="midnightblue" stroke="midnightblue" points="277.749,-72.286 267.35,-74.3122 276.743,-79.2133 277.749,-72.286"/>
</g>
<!-- Node26 -->
<g id="node26" class="node"><title>Node26</title>
<polygon fill="none" stroke="#bfbfbf" points="285.728,-56.5 285.728,-75.5 330.728,-75.5 330.728,-56.5 285.728,-56.5"/>
<text text-anchor="middle" x="308.228" y="-63.5" font-family="Helvetica,sans-Serif" font-size="10.00">iosfwd</text>
</g>
<!-- Node7&#45;&gt;Node26 -->
<g id="edge26" class="edge"><title>Node7&#45;&gt;Node26</title>
<path fill="none" stroke="midnightblue" d="M1421.17,-120.574C1235.2,-118.727 572.974,-109.969 340.872,-75.6071"/>
<polygon fill="midnightblue" stroke="midnightblue" points="341.224,-72.1202 330.808,-74.0575 340.159,-79.0387 341.224,-72.1202"/>
</g>
<!-- Node27 -->
<g id="node27" class="node"><title>Node27</title>
<polygon fill="none" stroke="#bfbfbf" points="349.228,-56.5 349.228,-75.5 401.228,-75.5 401.228,-56.5 349.228,-56.5"/>
<text text-anchor="middle" x="375.228" y="-63.5" font-family="Helvetica,sans-Serif" font-size="10.00">sstream</text>
</g>
<!-- Node7&#45;&gt;Node27 -->
<g id="edge27" class="edge"><title>Node7&#45;&gt;Node27</title>
<path fill="none" stroke="midnightblue" d="M1421.16,-120.279C1242.85,-117.452 628.778,-105.84 411.523,-75.8223"/>
<polygon fill="midnightblue" stroke="midnightblue" points="411.877,-72.3373 401.481,-74.379 410.881,-79.2661 411.877,-72.3373"/>
</g>
<!-- Node28 -->
<g id="node28" class="node"><title>Node28</title>
<polygon fill="none" stroke="#bfbfbf" points="419.228,-56.5 419.228,-75.5 487.228,-75.5 487.228,-56.5 419.228,-56.5"/>
<text text-anchor="middle" x="453.228" y="-63.5" font-family="Helvetica,sans-Serif" font-size="10.00">sys/types.h</text>
</g>
<!-- Node7&#45;&gt;Node28 -->
<g id="edge28" class="edge"><title>Node7&#45;&gt;Node28</title>
<path fill="none" stroke="midnightblue" d="M1421.09,-121.5C1279.2,-122.356 856.611,-120.763 497.484,-75.9407"/>
<polygon fill="midnightblue" stroke="midnightblue" points="497.772,-72.4493 487.412,-74.6701 496.896,-79.3942 497.772,-72.4493"/>
</g>
<!-- Node29 -->
<g id="node29" class="node"><title>Node29</title>
<polygon fill="none" stroke="#bfbfbf" points="505.228,-56.5 505.228,-75.5 565.228,-75.5 565.228,-56.5 505.228,-56.5"/>
<text text-anchor="middle" x="535.228" y="-63.5" font-family="Helvetica,sans-Serif" font-size="10.00">sys/stat.h</text>
</g>
<!-- Node7&#45;&gt;Node29 -->
<g id="edge29" class="edge"><title>Node7&#45;&gt;Node29</title>
<path fill="none" stroke="midnightblue" d="M1420.89,-121.567C1286.5,-122.464 902.684,-120.705 575.514,-75.9142"/>
<polygon fill="midnightblue" stroke="midnightblue" points="575.75,-72.4135 565.364,-74.5081 574.789,-79.3473 575.75,-72.4135"/>
</g>
<!-- Node30 -->
<g id="node30" class="node"><title>Node30</title>
<polygon fill="none" stroke="#bfbfbf" points="583.728,-56.5 583.728,-75.5 634.728,-75.5 634.728,-56.5 583.728,-56.5"/>
<text text-anchor="middle" x="609.228" y="-63.5" font-family="Helvetica,sans-Serif" font-size="10.00">unistd.h</text>
</g>
<!-- Node7&#45;&gt;Node30 -->
<g id="edge30" class="edge"><title>Node7&#45;&gt;Node30</title>
<path fill="none" stroke="midnightblue" d="M1421,-121.686C1293.87,-122.742 944.234,-121.088 645.271,-75.8195"/>
<polygon fill="midnightblue" stroke="midnightblue" points="645.519,-72.3168 635.104,-74.2601 644.458,-79.2358 645.519,-72.3168"/>
</g>
<!-- Node31 -->
<g id="node31" class="node"><title>Node31</title>
<polygon fill="none" stroke="#bfbfbf" points="653.228,-56.5 653.228,-75.5 699.228,-75.5 699.228,-56.5 653.228,-56.5"/>
<text text-anchor="middle" x="676.228" y="-63.5" font-family="Helvetica,sans-Serif" font-size="10.00">dlfcn.h</text>
</g>
<!-- Node7&#45;&gt;Node31 -->
<g id="edge31" class="edge"><title>Node7&#45;&gt;Node31</title>
<path fill="none" stroke="midnightblue" d="M1420.79,-121.74C1300.31,-122.763 982.074,-120.765 709.596,-75.8593"/>
<polygon fill="midnightblue" stroke="midnightblue" points="709.956,-72.371 699.515,-74.1747 708.802,-79.2752 709.956,-72.371"/>
</g>
<!-- Node32 -->
<g id="node32" class="node"><title>Node32</title>
<polygon fill="none" stroke="#bfbfbf" points="717.228,-56.5 717.228,-75.5 795.228,-75.5 795.228,-56.5 717.228,-56.5"/>
<text text-anchor="middle" x="756.228" y="-63.5" font-family="Helvetica,sans-Serif" font-size="10.00">ext/hash_map</text>
</g>
<!-- Node7&#45;&gt;Node32 -->
<g id="edge32" class="edge"><title>Node7&#45;&gt;Node32</title>
<path fill="none" stroke="midnightblue" d="M1421.16,-119.664C1312.19,-116.271 1041.67,-105.495 805.612,-76.0274"/>
<polygon fill="midnightblue" stroke="midnightblue" points="805.821,-72.5261 795.462,-74.746 804.945,-79.471 805.821,-72.5261"/>
</g>
<!-- Node33 -->
<g id="node33" class="node"><title>Node33</title>
<polygon fill="none" stroke="#bfbfbf" points="813.728,-56.5 813.728,-75.5 886.728,-75.5 886.728,-56.5 813.728,-56.5"/>
<text text-anchor="middle" x="850.228" y="-63.5" font-family="Helvetica,sans-Serif" font-size="10.00">ext/hash_set</text>
</g>
<!-- Node7&#45;&gt;Node33 -->
<g id="edge33" class="edge"><title>Node7&#45;&gt;Node33</title>
<path fill="none" stroke="midnightblue" d="M1421.17,-119.136C1323.27,-114.988 1096.57,-103.244 897.084,-76.114"/>
<polygon fill="midnightblue" stroke="midnightblue" points="897.388,-72.623 887.005,-74.7267 896.434,-79.5576 897.388,-72.623"/>
</g>
<!-- Node34 -->
<g id="node34" class="node"><title>Node34</title>
<polygon fill="none" stroke="#bfbfbf" points="904.728,-56.5 904.728,-75.5 975.728,-75.5 975.728,-56.5 904.728,-56.5"/>
<text text-anchor="middle" x="940.228" y="-63.5" font-family="Helvetica,sans-Serif" font-size="10.00">sys/param.h</text>
</g>
<!-- Node7&#45;&gt;Node34 -->
<g id="edge34" class="edge"><title>Node7&#45;&gt;Node34</title>
<path fill="none" stroke="midnightblue" d="M1421.15,-118.154C1335.16,-112.796 1151.53,-99.6995 986.379,-76.0142"/>
<polygon fill="midnightblue" stroke="midnightblue" points="986.43,-72.4851 976.031,-74.5126 985.425,-79.4125 986.43,-72.4851"/>
</g>
<!-- Node35 -->
<g id="node35" class="node"><title>Node35</title>
<polygon fill="none" stroke="#bfbfbf" points="994.228,-56.5 994.228,-75.5 1160.23,-75.5 1160.23,-56.5 994.228,-56.5"/>
<text text-anchor="middle" x="1077.23" y="-63.5" font-family="Helvetica,sans-Serif" font-size="10.00">CoreFoundation/CoreFoundation.h</text>
</g>
<!-- Node7&#45;&gt;Node35 -->
<g id="edge35" class="edge"><title>Node7&#45;&gt;Node35</title>
<path fill="none" stroke="midnightblue" d="M1420.85,-114.216C1352.49,-104.822 1228.53,-87.7902 1149.68,-76.9548"/>
<polygon fill="midnightblue" stroke="midnightblue" points="1149.72,-73.428 1139.34,-75.5341 1148.77,-80.3628 1149.72,-73.428"/>
</g>
<!-- Node36 -->
<g id="node36" class="node"><title>Node36</title>
<polygon fill="none" stroke="#bfbfbf" points="1178.23,-56.5 1178.23,-75.5 1302.23,-75.5 1302.23,-56.5 1178.23,-56.5"/>
<text text-anchor="middle" x="1240.23" y="-63.5" font-family="Helvetica,sans-Serif" font-size="10.00">emscripten/emscripten.h</text>
</g>
<!-- Node7&#45;&gt;Node36 -->
<g id="edge36" class="edge"><title>Node7&#45;&gt;Node36</title>
<path fill="none" stroke="midnightblue" d="M1433.78,-112.444C1393.83,-103.063 1329.64,-87.9926 1286.24,-77.8036"/>
<polygon fill="midnightblue" stroke="midnightblue" points="1287.04,-74.3948 1276.5,-75.5164 1285.44,-81.2095 1287.04,-74.3948"/>
</g>
<!-- Node38 -->
<g id="node38" class="node"><title>Node38</title>
<g id="a_node38"><a xlink:href="_ogre_memory_allocated_object_8h.html" target="_top" xlink:title="OgreMemoryAllocatedObject.h">
<polygon fill="none" stroke="black" points="2406.23,-56.5 2406.23,-75.5 2556.23,-75.5 2556.23,-56.5 2406.23,-56.5"/>
<text text-anchor="middle" x="2481.23" y="-63.5" font-family="Helvetica,sans-Serif" font-size="10.00">OgreMemoryAllocatedObject.h</text>
</a>
</g>
</g>
<!-- Node37&#45;&gt;Node38 -->
<g id="edge38" class="edge"><title>Node37&#45;&gt;Node38</title>
<path fill="none" stroke="midnightblue" d="M2533.27,-112.324C2524.1,-104.341 2510.29,-92.3128 2499.2,-82.6529"/>
<polygon fill="midnightblue" stroke="midnightblue" points="2501.21,-79.7624 2491.37,-75.8339 2496.61,-85.041 2501.21,-79.7624"/>
</g>
<!-- Node37&#45;&gt;Node39 -->
<g id="edge42" class="edge"><title>Node37&#45;&gt;Node39</title>
<path fill="none" stroke="midnightblue" d="M2469.17,-116.136C2442.09,-110.332 2414.01,-98.7264 2397.23,-76 2385.86,-60.6041 2399.31,-40.5503 2412.09,-26.8127"/>
<polygon fill="midnightblue" stroke="midnightblue" points="2414.76,-29.0893 2419.34,-19.537 2409.81,-24.1465 2414.76,-29.0893"/>
</g>
<!-- Node37&#45;&gt;Node40 -->
<g id="edge50" class="edge"><title>Node37&#45;&gt;Node40</title>
<path fill="none" stroke="midnightblue" d="M2606.66,-112.43C2640.49,-105.932 2681.88,-94.787 2715.23,-76 2737.18,-63.6313 2757.18,-42.3094 2769.51,-27.4727"/>
<polygon fill="midnightblue" stroke="midnightblue" points="2772.29,-29.5904 2775.83,-19.6031 2766.84,-25.2054 2772.29,-29.5904"/>
</g>
<!-- Node41 -->
<g id="node41" class="node"><title>Node41</title>
<g id="a_node41"><a xlink:href="_ogre_memory_s_t_l_allocator_8h.html" target="_top" xlink:title="OgreMemorySTLAllocator.h">
<polygon fill="none" stroke="black" points="2762.73,-56.5 2762.73,-75.5 2899.73,-75.5 2899.73,-56.5 2762.73,-56.5"/>
<text text-anchor="middle" x="2831.23" y="-63.5" font-family="Helvetica,sans-Serif" font-size="10.00">OgreMemorySTLAllocator.h</text>
</a>
</g>
</g>
<!-- Node37&#45;&gt;Node41 -->
<g id="edge43" class="edge"><title>Node37&#45;&gt;Node41</title>
<path fill="none" stroke="midnightblue" d="M2588.86,-112.444C2639.53,-102.944 2721.3,-87.611 2775.66,-77.4198"/>
<polygon fill="midnightblue" stroke="midnightblue" points="2776.62,-80.7994 2785.81,-75.5164 2775.33,-73.9193 2776.62,-80.7994"/>
</g>
<!-- Node42 -->
<g id="node42" class="node"><title>Node42</title>
<g id="a_node42"><a xlink:href="_ogre_memory_ned_pooling_8h.html" target="_top" xlink:title="OgreMemoryNedPooling.h">
<polygon fill="none" stroke="black" points="2574.73,-56.5 2574.73,-75.5 2705.73,-75.5 2705.73,-56.5 2574.73,-56.5"/>
<text text-anchor="middle" x="2640.23" y="-63.5" font-family="Helvetica,sans-Serif" font-size="10.00">OgreMemoryNedPooling.h</text>
</a>
</g>
</g>
<!-- Node37&#45;&gt;Node42 -->
<g id="edge47" class="edge"><title>Node37&#45;&gt;Node42</title>
<path fill="none" stroke="midnightblue" d="M2558.81,-112.324C2574.23,-103.743 2598.04,-90.486 2615.94,-80.5224"/>
<polygon fill="midnightblue" stroke="midnightblue" points="2617.65,-83.5767 2624.68,-75.6545 2614.24,-77.4606 2617.65,-83.5767"/>
</g>
<!-- Node38&#45;&gt;Node2 -->
<g id="edge39" class="edge"><title>Node38&#45;&gt;Node2</title>
<path fill="none" stroke="midnightblue" d="M2473.65,-75.5914C2457.53,-93.8691 2419.62,-136.871 2398.7,-160.586"/>
<polygon fill="midnightblue" stroke="midnightblue" points="2395.83,-158.553 2391.84,-168.368 2401.08,-163.183 2395.83,-158.553"/>
</g>
<!-- Node38&#45;&gt;Node39 -->
<g id="edge40" class="edge"><title>Node38&#45;&gt;Node39</title>
<path fill="none" stroke="midnightblue" d="M2472.64,-56.083C2465.07,-48.2195 2453.85,-36.5688 2444.71,-27.0813"/>
<polygon fill="midnightblue" stroke="midnightblue" points="2447.11,-24.5266 2437.66,-19.7511 2442.07,-29.3821 2447.11,-24.5266"/>
</g>
<!-- Node38&#45;&gt;Node40 -->
<g id="edge41" class="edge"><title>Node38&#45;&gt;Node40</title>
<path fill="none" stroke="midnightblue" d="M2528.92,-56.4435C2582.09,-46.9049 2668.05,-31.4834 2724.85,-21.293"/>
<polygon fill="midnightblue" stroke="midnightblue" points="2725.53,-24.7273 2734.76,-19.5164 2724.3,-17.8373 2725.53,-24.7273"/>
</g>
<!-- Node41&#45;&gt;Node2 -->
<g id="edge44" class="edge"><title>Node41&#45;&gt;Node2</title>
<path fill="none" stroke="midnightblue" d="M2807.52,-75.5713C2769.62,-89.0309 2692.87,-115.307 2626.23,-132 2565.66,-147.172 2495.4,-159.684 2446.24,-167.63"/>
<polygon fill="midnightblue" stroke="midnightblue" points="2445.4,-164.219 2436.08,-169.255 2446.51,-171.131 2445.4,-164.219"/>
</g>
<!-- Node41&#45;&gt;Node39 -->
<g id="edge45" class="edge"><title>Node41&#45;&gt;Node39</title>
<path fill="none" stroke="midnightblue" d="M2767.53,-56.4435C2691.73,-46.2609 2566.02,-29.3744 2491.05,-19.3041"/>
<polygon fill="midnightblue" stroke="midnightblue" points="2491.19,-15.7923 2480.82,-17.9298 2490.26,-22.73 2491.19,-15.7923"/>
</g>
<!-- Node41&#45;&gt;Node40 -->
<g id="edge46" class="edge"><title>Node41&#45;&gt;Node40</title>
<path fill="none" stroke="midnightblue" d="M2823.14,-56.083C2816.07,-48.2982 2805.64,-36.8015 2797.08,-27.3665"/>
<polygon fill="midnightblue" stroke="midnightblue" points="2799.48,-24.8047 2790.17,-19.7511 2794.3,-29.5087 2799.48,-24.8047"/>
</g>
<!-- Node42&#45;&gt;Node39 -->
<g id="edge48" class="edge"><title>Node42&#45;&gt;Node39</title>
<path fill="none" stroke="midnightblue" d="M2606.79,-56.4435C2570.37,-47.1221 2512,-32.1828 2472.2,-21.9972"/>
<polygon fill="midnightblue" stroke="midnightblue" points="2473.06,-18.6051 2462.51,-19.5164 2471.33,-25.3866 2473.06,-18.6051"/>
</g>
<!-- Node42&#45;&gt;Node40 -->
<g id="edge49" class="edge"><title>Node42&#45;&gt;Node40</title>
<path fill="none" stroke="midnightblue" d="M2662.73,-56.4435C2686.31,-47.4776 2723.55,-33.314 2750.19,-23.1827"/>
<polygon fill="midnightblue" stroke="midnightblue" points="2751.73,-26.3424 2759.83,-19.5164 2749.24,-19.7995 2751.73,-26.3424"/>
</g>
<!-- Node43&#45;&gt;Node2 -->
<g id="edge52" class="edge"><title>Node43&#45;&gt;Node2</title>
<path fill="none" stroke="midnightblue" d="M2342.48,-224.083C2349.69,-216.298 2360.34,-204.801 2369.07,-195.367"/>
<polygon fill="midnightblue" stroke="midnightblue" points="2371.9,-197.467 2376.13,-187.751 2366.76,-192.711 2371.9,-197.467"/>
</g>
<!-- Node43&#45;&gt;Node39 -->
<g id="edge53" class="edge"><title>Node43&#45;&gt;Node39</title>
<path fill="none" stroke="midnightblue" d="M2263.63,-232.711C1872.82,-230.508 -2.53214,-211.807 150.228,-56 190.148,-15.2844 2006.39,-11.4071 2367.27,-11.0386"/>
<polygon fill="midnightblue" stroke="midnightblue" points="2367.52,-14.5385 2377.52,-11.0287 2367.51,-7.53846 2367.52,-14.5385"/>
</g>
<!-- Node43&#45;&gt;Node40 -->
<g id="edge54" class="edge"><title>Node43&#45;&gt;Node40</title>
<path fill="none" stroke="midnightblue" d="M2403.77,-224.488C2542.94,-205.875 2847.65,-156.653 2909.23,-76 2931.33,-47.0525 2886.14,-29.9141 2843.67,-20.5693"/>
<polygon fill="midnightblue" stroke="midnightblue" points="2844.33,-17.132 2833.83,-18.5256 2842.91,-23.9858 2844.33,-17.132"/>
</g>
</g>
</svg>
