<?xml version="1.0" encoding="UTF-8" standalone="no"?>
<!DOCTYPE svg PUBLIC "-//W3C//DTD SVG 1.1//EN"
 "http://www.w3.org/Graphics/SVG/1.1/DTD/svg11.dtd">
<!-- Generated by graphviz version 2.38.0 (20140413.2041)
 -->
<!-- Title: OgreGLESTexture.h Pages: 1 -->
<svg width="507pt" height="196pt"
 viewBox="0.00 0.00 507.00 196.00" xmlns="http://www.w3.org/2000/svg" xmlns:xlink="http://www.w3.org/1999/xlink">
<g id="graph0" class="graph" transform="scale(1 1) rotate(0) translate(4 192)">
<title>OgreGLESTexture.h</title>
<!-- Node1 -->
<g id="node1" class="node"><title>Node1</title>
<polygon fill="#bfbfbf" stroke="black" points="296,-168.5 296,-187.5 401,-187.5 401,-168.5 296,-168.5"/>
<text text-anchor="middle" x="348.5" y="-175.5" font-family="Helvetica,sans-Serif" font-size="10.00">OgreGLESTexture.h</text>
</g>
<!-- Node2 -->
<g id="node2" class="node"><title>Node2</title>
<g id="a_node2"><a xlink:href="_ogre_g_l_e_s_render_texture_8h.html" target="_top" xlink:title="OgreGLESRenderTexture.h">
<polygon fill="none" stroke="black" points="201,-112.5 201,-131.5 338,-131.5 338,-112.5 201,-112.5"/>
<text text-anchor="middle" x="269.5" y="-119.5" font-family="Helvetica,sans-Serif" font-size="10.00">OgreGLESRenderTexture.h</text>
</a>
</g>
</g>
<!-- Node1&#45;&gt;Node2 -->
<g id="edge1" class="edge"><title>Node1&#45;&gt;Node2</title>
<path fill="none" stroke="midnightblue" d="M327.466,-162.622C313.034,-152.757 294.359,-139.992 282.161,-131.655"/>
<polygon fill="midnightblue" stroke="midnightblue" points="325.577,-165.57 335.807,-168.324 329.527,-159.791 325.577,-165.57"/>
</g>
<!-- Node7 -->
<g id="node7" class="node"><title>Node7</title>
<g id="a_node7"><a xlink:href="_ogre_g_l_e_s_texture_manager_8h.html" target="_top" xlink:title="OgreGLESTextureManager.h">
<polygon fill="none" stroke="black" points="356,-112.5 356,-131.5 499,-131.5 499,-112.5 356,-112.5"/>
<text text-anchor="middle" x="427.5" y="-119.5" font-family="Helvetica,sans-Serif" font-size="10.00">OgreGLESTextureManager.h</text>
</a>
</g>
</g>
<!-- Node1&#45;&gt;Node7 -->
<g id="edge7" class="edge"><title>Node1&#45;&gt;Node7</title>
<path fill="none" stroke="midnightblue" d="M369.534,-162.622C383.966,-152.757 402.641,-139.992 414.839,-131.655"/>
<polygon fill="midnightblue" stroke="midnightblue" points="367.473,-159.791 361.193,-168.324 371.423,-165.57 367.473,-159.791"/>
</g>
<!-- Node3 -->
<g id="node3" class="node"><title>Node3</title>
<g id="a_node3"><a xlink:href="_ogre_g_l_e_s_frame_buffer_object_8h.html" target="_top" xlink:title="OgreGLESFrameBufferObject.h">
<polygon fill="none" stroke="black" points="86,-56.5 86,-75.5 241,-75.5 241,-56.5 86,-56.5"/>
<text text-anchor="middle" x="163.5" y="-63.5" font-family="Helvetica,sans-Serif" font-size="10.00">OgreGLESFrameBufferObject.h</text>
</a>
</g>
</g>
<!-- Node2&#45;&gt;Node3 -->
<g id="edge2" class="edge"><title>Node2&#45;&gt;Node3</title>
<path fill="none" stroke="midnightblue" d="M243.444,-107.726C223.816,-97.7271 197.472,-84.3065 180.488,-75.6545"/>
<polygon fill="midnightblue" stroke="midnightblue" points="241.97,-110.903 252.469,-112.324 245.148,-104.666 241.97,-110.903"/>
</g>
<!-- Node5 -->
<g id="node5" class="node"><title>Node5</title>
<g id="a_node5"><a xlink:href="_ogre_g_l_e_s_f_b_o_render_texture_8h.html" target="_top" xlink:title="OgreGLESFBORenderTexture.h">
<polygon fill="none" stroke="black" points="191,-0.5 191,-19.5 348,-19.5 348,-0.5 191,-0.5"/>
<text text-anchor="middle" x="269.5" y="-7.5" font-family="Helvetica,sans-Serif" font-size="10.00">OgreGLESFBORenderTexture.h</text>
</a>
</g>
</g>
<!-- Node2&#45;&gt;Node5 -->
<g id="edge5" class="edge"><title>Node2&#45;&gt;Node5</title>
<path fill="none" stroke="midnightblue" d="M269.5,-102.348C269.5,-78.2538 269.5,-37.3079 269.5,-19.5914"/>
<polygon fill="midnightblue" stroke="midnightblue" points="266,-102.368 269.5,-112.368 273,-102.369 266,-102.368"/>
</g>
<!-- Node6 -->
<g id="node6" class="node"><title>Node6</title>
<g id="a_node6"><a xlink:href="_ogre_g_l_e_s_p_b_render_texture_8h.html" target="_top" xlink:title="OgreGLESPBRenderTexture.h">
<polygon fill="none" stroke="black" points="297.5,-56.5 297.5,-75.5 447.5,-75.5 447.5,-56.5 297.5,-56.5"/>
<text text-anchor="middle" x="372.5" y="-63.5" font-family="Helvetica,sans-Serif" font-size="10.00">OgreGLESPBRenderTexture.h</text>
</a>
</g>
</g>
<!-- Node2&#45;&gt;Node6 -->
<g id="edge6" class="edge"><title>Node2&#45;&gt;Node6</title>
<path fill="none" stroke="midnightblue" d="M295.079,-107.59C314.123,-97.6052 339.564,-84.2672 355.992,-75.6545"/>
<polygon fill="midnightblue" stroke="midnightblue" points="293.28,-104.581 286.049,-112.324 296.531,-110.78 293.28,-104.581"/>
</g>
<!-- Node4 -->
<g id="node4" class="node"><title>Node4</title>
<g id="a_node4"><a xlink:href="_ogre_g_l_e_s_f_b_o_multi_render_target_8h.html" target="_top" xlink:title="OgreGLESFBOMultiRenderTarget.h">
<polygon fill="none" stroke="black" points="0,-0.5 0,-19.5 173,-19.5 173,-0.5 0,-0.5"/>
<text text-anchor="middle" x="86.5" y="-7.5" font-family="Helvetica,sans-Serif" font-size="10.00">OgreGLESFBOMultiRenderTarget.h</text>
</a>
</g>
</g>
<!-- Node3&#45;&gt;Node4 -->
<g id="edge3" class="edge"><title>Node3&#45;&gt;Node4</title>
<path fill="none" stroke="midnightblue" d="M142.599,-50.3422C128.589,-40.5169 110.617,-27.9132 98.8407,-19.6545"/>
<polygon fill="midnightblue" stroke="midnightblue" points="140.932,-53.4477 151.129,-56.324 144.951,-47.7166 140.932,-53.4477"/>
</g>
<!-- Node3&#45;&gt;Node5 -->
<g id="edge4" class="edge"><title>Node3&#45;&gt;Node5</title>
<path fill="none" stroke="midnightblue" d="M189.556,-51.7261C209.184,-41.7271 235.528,-28.3065 252.512,-19.6545"/>
<polygon fill="midnightblue" stroke="midnightblue" points="187.852,-48.666 180.531,-56.324 191.03,-54.9033 187.852,-48.666"/>
</g>
</g>
</svg>
