<?xml version="1.0" encoding="UTF-8" standalone="no"?>
<!DOCTYPE svg PUBLIC "-//W3C//DTD SVG 1.1//EN"
 "http://www.w3.org/Graphics/SVG/1.1/DTD/svg11.dtd">
<!-- Generated by graphviz version 2.38.0 (20140413.2041)
 -->
<!-- Title: OgreSimpleSpline.h Pages: 1 -->
<svg width="978pt" height="532pt"
 viewBox="0.00 0.00 978.09 532.00" xmlns="http://www.w3.org/2000/svg" xmlns:xlink="http://www.w3.org/1999/xlink">
<g id="graph0" class="graph" transform="scale(1 1) rotate(0) translate(4 528)">
<title>OgreSimpleSpline.h</title>
<!-- Node1 -->
<g id="node1" class="node"><title>Node1</title>
<polygon fill="#bfbfbf" stroke="black" points="252.086,-504.5 252.086,-523.5 355.086,-523.5 355.086,-504.5 252.086,-504.5"/>
<text text-anchor="middle" x="303.586" y="-511.5" font-family="Helvetica,sans-Serif" font-size="10.00">OgreSimpleSpline.h</text>
</g>
<!-- Node2 -->
<g id="node2" class="node"><title>Node2</title>
<g id="a_node2"><a xlink:href="_ogre_animation_track_8h.html" target="_top" xlink:title="OgreAnimationTrack.h">
<polygon fill="none" stroke="black" points="246.586,-448.5 246.586,-467.5 360.586,-467.5 360.586,-448.5 246.586,-448.5"/>
<text text-anchor="middle" x="303.586" y="-455.5" font-family="Helvetica,sans-Serif" font-size="10.00">OgreAnimationTrack.h</text>
</a>
</g>
</g>
<!-- Node1&#45;&gt;Node2 -->
<g id="edge1" class="edge"><title>Node1&#45;&gt;Node2</title>
<path fill="none" stroke="midnightblue" d="M303.586,-493.805C303.586,-484.91 303.586,-474.78 303.586,-467.751"/>
<polygon fill="midnightblue" stroke="midnightblue" points="300.086,-494.083 303.586,-504.083 307.086,-494.083 300.086,-494.083"/>
</g>
<!-- Node3 -->
<g id="node3" class="node"><title>Node3</title>
<g id="a_node3"><a xlink:href="_ogre_animation_8h.html" target="_top" xlink:title="OgreAnimation.h">
<polygon fill="none" stroke="black" points="194.086,-392.5 194.086,-411.5 283.086,-411.5 283.086,-392.5 194.086,-392.5"/>
<text text-anchor="middle" x="238.586" y="-399.5" font-family="Helvetica,sans-Serif" font-size="10.00">OgreAnimation.h</text>
</a>
</g>
</g>
<!-- Node2&#45;&gt;Node3 -->
<g id="edge2" class="edge"><title>Node2&#45;&gt;Node3</title>
<path fill="none" stroke="midnightblue" d="M285.313,-441.82C273.668,-432.145 258.987,-419.948 249.219,-411.834"/>
<polygon fill="midnightblue" stroke="midnightblue" points="283.214,-444.626 293.143,-448.324 287.687,-439.242 283.214,-444.626"/>
</g>
<!-- Node4 -->
<g id="node4" class="node"><title>Node4</title>
<g id="a_node4"><a xlink:href="_ogre_8h.html" target="_top" xlink:title="Ogre.h">
<polygon fill="none" stroke="black" points="354.586,-224.5 354.586,-243.5 400.586,-243.5 400.586,-224.5 354.586,-224.5"/>
<text text-anchor="middle" x="377.586" y="-231.5" font-family="Helvetica,sans-Serif" font-size="10.00">Ogre.h</text>
</a>
</g>
</g>
<!-- Node2&#45;&gt;Node4 -->
<g id="edge36" class="edge"><title>Node2&#45;&gt;Node4</title>
<path fill="none" stroke="midnightblue" d="M249.986,-446.302C147.623,-423.623 -59.0717,-365.674 16.5861,-280 39.0572,-254.554 278.411,-240.109 354.502,-236.135"/>
<polygon fill="midnightblue" stroke="midnightblue" points="249.335,-449.742 259.851,-448.45 250.825,-442.902 249.335,-449.742"/>
</g>
<!-- Node15 -->
<g id="node15" class="node"><title>Node15</title>
<g id="a_node15"><a xlink:href="_ogre_mesh_8h.html" target="_top" xlink:title="OgreMesh.h">
<polygon fill="none" stroke="black" points="383.586,-336.5 383.586,-355.5 453.586,-355.5 453.586,-336.5 383.586,-336.5"/>
<text text-anchor="middle" x="418.586" y="-343.5" font-family="Helvetica,sans-Serif" font-size="10.00">OgreMesh.h</text>
</a>
</g>
</g>
<!-- Node2&#45;&gt;Node15 -->
<g id="edge37" class="edge"><title>Node2&#45;&gt;Node15</title>
<path fill="none" stroke="midnightblue" d="M320.099,-441.205C344.749,-417.627 390.328,-374.029 409.604,-355.591"/>
<polygon fill="midnightblue" stroke="midnightblue" points="317.417,-438.927 312.61,-448.368 322.256,-443.985 317.417,-438.927"/>
</g>
<!-- Node23 -->
<g id="node23" class="node"><title>Node23</title>
<g id="a_node23"><a xlink:href="_ogre_sub_mesh_8h.html" target="_top" xlink:title="OgreSubMesh.h">
<polygon fill="none" stroke="black" points="682.086,-392.5 682.086,-411.5 769.086,-411.5 769.086,-392.5 682.086,-392.5"/>
<text text-anchor="middle" x="725.586" y="-399.5" font-family="Helvetica,sans-Serif" font-size="10.00">OgreSubMesh.h</text>
</a>
</g>
</g>
<!-- Node2&#45;&gt;Node23 -->
<g id="edge38" class="edge"><title>Node2&#45;&gt;Node23</title>
<path fill="none" stroke="midnightblue" d="M371.007,-448.373C458.323,-437.2 608.041,-418.041 681.842,-408.598"/>
<polygon fill="midnightblue" stroke="midnightblue" points="370.413,-444.92 360.938,-449.661 371.301,-451.863 370.413,-444.92"/>
</g>
<!-- Node3&#45;&gt;Node4 -->
<g id="edge3" class="edge"><title>Node3&#45;&gt;Node4</title>
<path fill="none" stroke="midnightblue" d="M183.705,-390.786C106.474,-374.111 -19.5566,-337.065 30.5861,-280 52.0384,-255.586 280.106,-240.544 354.363,-236.265"/>
<polygon fill="midnightblue" stroke="midnightblue" points="183.285,-394.275 193.792,-392.909 184.727,-387.425 183.285,-394.275"/>
</g>
<!-- Node3&#45;&gt;Node15 -->
<g id="edge22" class="edge"><title>Node3&#45;&gt;Node15</title>
<path fill="none" stroke="midnightblue" d="M276.694,-389.568C310.65,-379.381 359.575,-364.703 390.198,-355.516"/>
<polygon fill="midnightblue" stroke="midnightblue" points="275.68,-386.218 267.108,-392.444 277.692,-392.922 275.68,-386.218"/>
</g>
<!-- Node21 -->
<g id="node21" class="node"><title>Node21</title>
<g id="a_node21"><a xlink:href="_ogre_skeleton_8h.html" target="_top" xlink:title="OgreSkeleton.h">
<polygon fill="none" stroke="black" points="147.586,-336.5 147.586,-355.5 231.586,-355.5 231.586,-336.5 147.586,-336.5"/>
<text text-anchor="middle" x="189.586" y="-343.5" font-family="Helvetica,sans-Serif" font-size="10.00">OgreSkeleton.h</text>
</a>
</g>
</g>
<!-- Node3&#45;&gt;Node21 -->
<g id="edge32" class="edge"><title>Node3&#45;&gt;Node21</title>
<path fill="none" stroke="midnightblue" d="M223.552,-384.431C214.964,-374.967 204.543,-363.483 197.527,-355.751"/>
<polygon fill="midnightblue" stroke="midnightblue" points="221.183,-387.029 230.495,-392.083 226.367,-382.325 221.183,-387.029"/>
</g>
<!-- Node5 -->
<g id="node5" class="node"><title>Node5</title>
<g id="a_node5"><a xlink:href="_ogre_hlms_datablock_8h.html" target="_top" xlink:title="OgreHlmsDatablock.h">
<polygon fill="none" stroke="black" points="100.086,-112.5 100.086,-131.5 213.086,-131.5 213.086,-112.5 100.086,-112.5"/>
<text text-anchor="middle" x="156.586" y="-119.5" font-family="Helvetica,sans-Serif" font-size="10.00">OgreHlmsDatablock.h</text>
</a>
</g>
</g>
<!-- Node4&#45;&gt;Node5 -->
<g id="edge4" class="edge"><title>Node4&#45;&gt;Node5</title>
<path fill="none" stroke="midnightblue" d="M344.011,-232.689C277.6,-231.285 133.223,-224.058 102.586,-188 85.5821,-167.987 118.758,-144.182 140.254,-131.672"/>
<polygon fill="midnightblue" stroke="midnightblue" points="344.284,-236.194 354.345,-232.873 344.409,-229.195 344.284,-236.194"/>
</g>
<!-- Node6 -->
<g id="node6" class="node"><title>Node6</title>
<g id="a_node6"><a xlink:href="_ogre_hlms_material_base_8h.html" target="_top" xlink:title="OgreHlmsMaterialBase.h">
<polygon fill="none" stroke="black" points="64.5861,-56.5 64.5861,-75.5 190.586,-75.5 190.586,-56.5 64.5861,-56.5"/>
<text text-anchor="middle" x="127.586" y="-63.5" font-family="Helvetica,sans-Serif" font-size="10.00">OgreHlmsMaterialBase.h</text>
</a>
</g>
</g>
<!-- Node4&#45;&gt;Node6 -->
<g id="edge16" class="edge"><title>Node4&#45;&gt;Node6</title>
<path fill="none" stroke="midnightblue" d="M344.172,-232.675C276.663,-231.257 127.622,-224.02 94.5861,-188 71.7236,-163.072 79.1763,-143.842 90.5861,-112 95.8402,-97.337 108.162,-84.0309 117.148,-75.7555"/>
<polygon fill="midnightblue" stroke="midnightblue" points="344.215,-236.176 354.276,-232.856 344.34,-229.177 344.215,-236.176"/>
</g>
<!-- Node7 -->
<g id="node7" class="node"><title>Node7</title>
<g id="a_node7"><a xlink:href="_ogre_hlms_pbs_material_8h.html" target="_top" xlink:title="OgreHlmsPbsMaterial.h">
<polygon fill="none" stroke="black" points="7.08609,-0.5 7.08609,-19.5 128.086,-19.5 128.086,-0.5 7.08609,-0.5"/>
<text text-anchor="middle" x="67.5861" y="-7.5" font-family="Helvetica,sans-Serif" font-size="10.00">OgreHlmsPbsMaterial.h</text>
</a>
</g>
</g>
<!-- Node4&#45;&gt;Node7 -->
<g id="edge17" class="edge"><title>Node4&#45;&gt;Node7</title>
<path fill="none" stroke="midnightblue" d="M344.139,-232.62C274.288,-231.111 116.268,-223.73 78.5861,-188 30.5516,-142.453 55.4413,-48.5661 64.6459,-19.6611"/>
<polygon fill="midnightblue" stroke="midnightblue" points="344.107,-236.12 354.171,-232.809 344.239,-229.121 344.107,-236.12"/>
</g>
<!-- Node8 -->
<g id="node8" class="node"><title>Node8</title>
<g id="a_node8"><a xlink:href="_ogre_hlms_property_map_8h.html" target="_top" xlink:title="OgreHlmsPropertyMap.h">
<polygon fill="none" stroke="black" points="270.086,-168.5 270.086,-187.5 395.086,-187.5 395.086,-168.5 270.086,-168.5"/>
<text text-anchor="middle" x="332.586" y="-175.5" font-family="Helvetica,sans-Serif" font-size="10.00">OgreHlmsPropertyMap.h</text>
</a>
</g>
</g>
<!-- Node4&#45;&gt;Node8 -->
<g id="edge7" class="edge"><title>Node4&#45;&gt;Node8</title>
<path fill="none" stroke="midnightblue" d="M363.539,-216.144C355.699,-206.736 346.257,-195.405 339.879,-187.751"/>
<polygon fill="midnightblue" stroke="midnightblue" points="361.065,-218.641 370.155,-224.083 366.442,-214.16 361.065,-218.641"/>
</g>
<!-- Node9 -->
<g id="node9" class="node"><title>Node9</title>
<g id="a_node9"><a xlink:href="_ogre_hlms_shader_generator_8h.html" target="_top" xlink:title="OgreHlmsShaderGenerator.h">
<polygon fill="none" stroke="black" points="352.086,-112.5 352.086,-131.5 495.086,-131.5 495.086,-112.5 352.086,-112.5"/>
<text text-anchor="middle" x="423.586" y="-119.5" font-family="Helvetica,sans-Serif" font-size="10.00">OgreHlmsShaderGenerator.h</text>
</a>
</g>
</g>
<!-- Node4&#45;&gt;Node9 -->
<g id="edge20" class="edge"><title>Node4&#45;&gt;Node9</title>
<path fill="none" stroke="midnightblue" d="M388.785,-215.74C393.771,-207.558 399.439,-197.511 403.586,-188 412.081,-168.519 418.518,-144.298 421.591,-131.634"/>
<polygon fill="midnightblue" stroke="midnightblue" points="385.735,-214.015 383.378,-224.344 391.662,-217.74 385.735,-214.015"/>
</g>
<!-- Node10 -->
<g id="node10" class="node"><title>Node10</title>
<g id="a_node10"><a xlink:href="_ogre_hlms_shader_template_8h.html" target="_top" xlink:title="OgreHlmsShaderTemplate.h">
<polygon fill="none" stroke="black" points="111.586,-168.5 111.586,-187.5 251.586,-187.5 251.586,-168.5 111.586,-168.5"/>
<text text-anchor="middle" x="181.586" y="-175.5" font-family="Helvetica,sans-Serif" font-size="10.00">OgreHlmsShaderTemplate.h</text>
</a>
</g>
</g>
<!-- Node4&#45;&gt;Node10 -->
<g id="edge11" class="edge"><title>Node4&#45;&gt;Node10</title>
<path fill="none" stroke="midnightblue" d="M344.567,-223.903C307.713,-213.749 248.537,-197.446 212.541,-187.529"/>
<polygon fill="midnightblue" stroke="midnightblue" points="343.762,-227.312 354.333,-226.593 345.622,-220.563 343.762,-227.312"/>
</g>
<!-- Node11 -->
<g id="node11" class="node"><title>Node11</title>
<g id="a_node11"><a xlink:href="_ogre_hlms_manager_8h.html" target="_top" xlink:title="OgreHlmsManager.h">
<polygon fill="none" stroke="black" points="614.086,-112.5 614.086,-131.5 721.086,-131.5 721.086,-112.5 614.086,-112.5"/>
<text text-anchor="middle" x="667.586" y="-119.5" font-family="Helvetica,sans-Serif" font-size="10.00">OgreHlmsManager.h</text>
</a>
</g>
</g>
<!-- Node4&#45;&gt;Node11 -->
<g id="edge13" class="edge"><title>Node4&#45;&gt;Node11</title>
<path fill="none" stroke="midnightblue" d="M411.008,-232.067C456.404,-229.549 538.954,-220.454 600.586,-188 627.258,-173.955 650.541,-146.006 661.28,-131.772"/>
<polygon fill="midnightblue" stroke="midnightblue" points="410.658,-228.58 400.837,-232.555 410.993,-235.572 410.658,-228.58"/>
</g>
<!-- Node12 -->
<g id="node12" class="node"><title>Node12</title>
<g id="a_node12"><a xlink:href="_ogre_hlms_shader_manager_8h.html" target="_top" xlink:title="OgreHlmsShaderManager.h">
<polygon fill="none" stroke="black" points="648.086,-168.5 648.086,-187.5 785.086,-187.5 785.086,-168.5 648.086,-168.5"/>
<text text-anchor="middle" x="716.586" y="-175.5" font-family="Helvetica,sans-Serif" font-size="10.00">OgreHlmsShaderManager.h</text>
</a>
</g>
</g>
<!-- Node4&#45;&gt;Node12 -->
<g id="edge14" class="edge"><title>Node4&#45;&gt;Node12</title>
<path fill="none" stroke="midnightblue" d="M410.824,-227.705C469.6,-218.343 592.343,-198.791 663.136,-187.514"/>
<polygon fill="midnightblue" stroke="midnightblue" points="409.945,-224.301 400.62,-229.331 411.047,-231.214 409.945,-224.301"/>
</g>
<!-- Node13 -->
<g id="node13" class="node"><title>Node13</title>
<g id="a_node13"><a xlink:href="_ogre_hlms_shader_common_8h.html" target="_top" xlink:title="OgreHlmsShaderCommon.h">
<polygon fill="none" stroke="black" points="451.586,-168.5 451.586,-187.5 591.586,-187.5 591.586,-168.5 451.586,-168.5"/>
<text text-anchor="middle" x="521.586" y="-175.5" font-family="Helvetica,sans-Serif" font-size="10.00">OgreHlmsShaderCommon.h</text>
</a>
</g>
</g>
<!-- Node4&#45;&gt;Node13 -->
<g id="edge18" class="edge"><title>Node4&#45;&gt;Node13</title>
<path fill="none" stroke="midnightblue" d="M409.837,-220.906C436.91,-210.754 474.903,-196.506 498.876,-187.516"/>
<polygon fill="midnightblue" stroke="midnightblue" points="408.538,-217.655 400.403,-224.444 410.996,-224.209 408.538,-217.655"/>
</g>
<!-- Node14 -->
<g id="node14" class="node"><title>Node14</title>
<g id="a_node14"><a xlink:href="_ogre_hlms_shader_pieces_manager_8h.html" target="_top" xlink:title="OgreHlmsShaderPiecesManager.h">
<polygon fill="none" stroke="black" points="803.086,-168.5 803.086,-187.5 970.086,-187.5 970.086,-168.5 803.086,-168.5"/>
<text text-anchor="middle" x="886.586" y="-175.5" font-family="Helvetica,sans-Serif" font-size="10.00">OgreHlmsShaderPiecesManager.h</text>
</a>
</g>
</g>
<!-- Node4&#45;&gt;Node14 -->
<g id="edge21" class="edge"><title>Node4&#45;&gt;Node14</title>
<path fill="none" stroke="midnightblue" d="M411.175,-229.437C490.753,-220.994 692.584,-199.582 806.021,-187.547"/>
<polygon fill="midnightblue" stroke="midnightblue" points="410.354,-226.004 400.779,-230.539 411.093,-232.965 410.354,-226.004"/>
</g>
<!-- Node5&#45;&gt;Node6 -->
<g id="edge5" class="edge"><title>Node5&#45;&gt;Node6</title>
<path fill="none" stroke="midnightblue" d="M146.91,-102.983C141.988,-93.8168 136.228,-83.0922 132.286,-75.7511"/>
<polygon fill="midnightblue" stroke="midnightblue" points="143.983,-104.929 151.797,-112.083 150.149,-101.617 143.983,-104.929"/>
</g>
<!-- Node6&#45;&gt;Node7 -->
<g id="edge6" class="edge"><title>Node6&#45;&gt;Node7</title>
<path fill="none" stroke="midnightblue" d="M110.405,-49.5372C99.7069,-39.9087 86.3298,-27.8694 77.4015,-19.8339"/>
<polygon fill="midnightblue" stroke="midnightblue" points="108.172,-52.2358 117.946,-56.324 112.854,-47.0327 108.172,-52.2358"/>
</g>
<!-- Node8&#45;&gt;Node5 -->
<g id="edge8" class="edge"><title>Node8&#45;&gt;Node5</title>
<path fill="none" stroke="midnightblue" d="M294.897,-165.436C261.714,-155.255 214.158,-140.664 184.343,-131.516"/>
<polygon fill="midnightblue" stroke="midnightblue" points="294.112,-168.856 304.698,-168.444 296.165,-162.164 294.112,-168.856"/>
</g>
<!-- Node8&#45;&gt;Node6 -->
<g id="edge9" class="edge"><title>Node8&#45;&gt;Node6</title>
<path fill="none" stroke="midnightblue" d="M310.099,-163.088C287.894,-149.528 252.824,-128.586 221.586,-112 196.018,-98.424 165.691,-84.2399 146.542,-75.5109"/>
<polygon fill="midnightblue" stroke="midnightblue" points="308.425,-166.167 318.779,-168.413 312.086,-160.2 308.425,-166.167"/>
</g>
<!-- Node8&#45;&gt;Node9 -->
<g id="edge10" class="edge"><title>Node8&#45;&gt;Node9</title>
<path fill="none" stroke="midnightblue" d="M355.88,-163.177C372.625,-153.241 394.687,-140.149 409.002,-131.655"/>
<polygon fill="midnightblue" stroke="midnightblue" points="354.021,-160.211 347.207,-168.324 357.593,-166.231 354.021,-160.211"/>
</g>
<!-- Node10&#45;&gt;Node5 -->
<g id="edge12" class="edge"><title>Node10&#45;&gt;Node5</title>
<path fill="none" stroke="midnightblue" d="M173.245,-158.983C169.001,-149.817 164.036,-139.092 160.638,-131.751"/>
<polygon fill="midnightblue" stroke="midnightblue" points="170.08,-160.479 177.458,-168.083 176.433,-157.538 170.08,-160.479"/>
</g>
<!-- Node12&#45;&gt;Node11 -->
<g id="edge15" class="edge"><title>Node12&#45;&gt;Node11</title>
<path fill="none" stroke="midnightblue" d="M701.552,-160.431C692.964,-150.967 682.543,-139.483 675.527,-131.751"/>
<polygon fill="midnightblue" stroke="midnightblue" points="699.183,-163.029 708.495,-168.083 704.367,-158.325 699.183,-163.029"/>
</g>
<!-- Node13&#45;&gt;Node9 -->
<g id="edge19" class="edge"><title>Node13&#45;&gt;Node9</title>
<path fill="none" stroke="midnightblue" d="M497,-163.453C478.908,-153.483 454.851,-140.228 439.292,-131.655"/>
<polygon fill="midnightblue" stroke="midnightblue" points="495.393,-166.563 505.841,-168.324 498.771,-160.432 495.393,-166.563"/>
</g>
<!-- Node15&#45;&gt;Node4 -->
<g id="edge25" class="edge"><title>Node15&#45;&gt;Node4</title>
<path fill="none" stroke="midnightblue" d="M409.066,-327.302C404.9,-319.136 400.159,-309.224 396.586,-300 388.942,-280.266 382.654,-256.148 379.594,-243.567"/>
<polygon fill="midnightblue" stroke="midnightblue" points="406.005,-329.001 413.745,-336.235 412.206,-325.753 406.005,-329.001"/>
</g>
<!-- Node16 -->
<g id="node16" class="node"><title>Node16</title>
<g id="a_node16"><a xlink:href="_ogre_instance_batch_8h.html" target="_top" xlink:title="OgreInstanceBatch.h">
<polygon fill="none" stroke="red" points="406.086,-280.5 406.086,-299.5 515.086,-299.5 515.086,-280.5 406.086,-280.5"/>
<text text-anchor="middle" x="460.586" y="-287.5" font-family="Helvetica,sans-Serif" font-size="10.00">OgreInstanceBatch.h</text>
</a>
</g>
</g>
<!-- Node15&#45;&gt;Node16 -->
<g id="edge23" class="edge"><title>Node15&#45;&gt;Node16</title>
<path fill="none" stroke="midnightblue" d="M431.696,-328.144C439.014,-318.736 447.827,-307.405 453.78,-299.751"/>
<polygon fill="midnightblue" stroke="midnightblue" points="428.898,-326.041 425.522,-336.083 434.424,-330.338 428.898,-326.041"/>
</g>
<!-- Node17 -->
<g id="node17" class="node"><title>Node17</title>
<g id="a_node17"><a xlink:href="_ogre_patch_mesh_8h.html" target="_top" xlink:title="OgrePatchMesh.h">
<polygon fill="none" stroke="black" points="533.086,-280.5 533.086,-299.5 628.086,-299.5 628.086,-280.5 533.086,-280.5"/>
<text text-anchor="middle" x="580.586" y="-287.5" font-family="Helvetica,sans-Serif" font-size="10.00">OgrePatchMesh.h</text>
</a>
</g>
</g>
<!-- Node15&#45;&gt;Node17 -->
<g id="edge26" class="edge"><title>Node15&#45;&gt;Node17</title>
<path fill="none" stroke="midnightblue" d="M454.07,-333.172C484.574,-323.004 527.831,-308.585 555.037,-299.516"/>
<polygon fill="midnightblue" stroke="midnightblue" points="452.635,-329.961 444.255,-336.444 454.849,-336.602 452.635,-329.961"/>
</g>
<!-- Node18 -->
<g id="node18" class="node"><title>Node18</title>
<g id="a_node18"><a xlink:href="_ogre_static_geometry_8h.html" target="_top" xlink:title="OgreStaticGeometry.h">
<polygon fill="none" stroke="black" points="646.586,-280.5 646.586,-299.5 760.586,-299.5 760.586,-280.5 646.586,-280.5"/>
<text text-anchor="middle" x="703.586" y="-287.5" font-family="Helvetica,sans-Serif" font-size="10.00">OgreStaticGeometry.h</text>
</a>
</g>
</g>
<!-- Node15&#45;&gt;Node18 -->
<g id="edge28" class="edge"><title>Node15&#45;&gt;Node18</title>
<path fill="none" stroke="midnightblue" d="M463.678,-336.456C517.02,-326.349 605.286,-309.625 658.587,-299.526"/>
<polygon fill="midnightblue" stroke="midnightblue" points="462.992,-333.024 453.819,-338.324 464.295,-339.902 462.992,-333.024"/>
</g>
<!-- Node19 -->
<g id="node19" class="node"><title>Node19</title>
<g id="a_node19"><a xlink:href="_ogre_lod_strategy_8h.html" target="_top" xlink:title="OgreLodStrategy.h">
<polygon fill="none" stroke="red" points="778.586,-280.5 778.586,-299.5 876.586,-299.5 876.586,-280.5 778.586,-280.5"/>
<text text-anchor="middle" x="827.586" y="-287.5" font-family="Helvetica,sans-Serif" font-size="10.00">OgreLodStrategy.h</text>
</a>
</g>
</g>
<!-- Node15&#45;&gt;Node19 -->
<g id="edge30" class="edge"><title>Node15&#45;&gt;Node19</title>
<path fill="none" stroke="midnightblue" d="M463.947,-339.573C530.882,-331.477 660.025,-315.521 769.586,-300 772.512,-299.586 775.519,-299.149 778.552,-298.702"/>
<polygon fill="midnightblue" stroke="midnightblue" points="463.259,-336.131 453.75,-340.804 464.098,-343.08 463.259,-336.131"/>
</g>
<!-- Node20 -->
<g id="node20" class="node"><title>Node20</title>
<g id="a_node20"><a xlink:href="_ogre_instanced_geometry_8h.html" target="_top" xlink:title="OgreInstancedGeometry.h">
<polygon fill="none" stroke="black" points="218.086,-280.5 218.086,-299.5 349.086,-299.5 349.086,-280.5 218.086,-280.5"/>
<text text-anchor="middle" x="283.586" y="-287.5" font-family="Helvetica,sans-Serif" font-size="10.00">OgreInstancedGeometry.h</text>
</a>
</g>
</g>
<!-- Node15&#45;&gt;Node20 -->
<g id="edge31" class="edge"><title>Node15&#45;&gt;Node20</title>
<path fill="none" stroke="midnightblue" d="M387.68,-332.638C362.346,-322.504 327.155,-308.427 304.877,-299.516"/>
<polygon fill="midnightblue" stroke="midnightblue" points="386.61,-335.979 397.195,-336.444 389.21,-329.48 386.61,-335.979"/>
</g>
<!-- Node16&#45;&gt;Node4 -->
<g id="edge24" class="edge"><title>Node16&#45;&gt;Node4</title>
<path fill="none" stroke="midnightblue" d="M438.487,-274.622C423.324,-264.757 403.703,-251.992 390.888,-243.655"/>
<polygon fill="midnightblue" stroke="midnightblue" points="436.96,-277.804 447.251,-280.324 440.777,-271.937 436.96,-277.804"/>
</g>
<!-- Node17&#45;&gt;Node4 -->
<g id="edge27" class="edge"><title>Node17&#45;&gt;Node4</title>
<path fill="none" stroke="midnightblue" d="M538.54,-277.815C496.773,-266.705 434.263,-250.077 400.762,-241.165"/>
<polygon fill="midnightblue" stroke="midnightblue" points="537.856,-281.255 548.42,-280.444 539.656,-274.49 537.856,-281.255"/>
</g>
<!-- Node18&#45;&gt;Node4 -->
<g id="edge29" class="edge"><title>Node18&#45;&gt;Node4</title>
<path fill="none" stroke="midnightblue" d="M641.93,-278.787C568.852,-266.682 450.722,-247.115 400.917,-238.865"/>
<polygon fill="midnightblue" stroke="midnightblue" points="641.493,-282.262 651.93,-280.444 642.637,-275.356 641.493,-282.262"/>
</g>
<!-- Node21&#45;&gt;Node4 -->
<g id="edge33" class="edge"><title>Node21&#45;&gt;Node4</title>
<path fill="none" stroke="midnightblue" d="M190.318,-325.709C191.9,-311.229 196.371,-291.923 208.586,-280 248.564,-240.976 318.379,-234.802 354.488,-234.416"/>
<polygon fill="midnightblue" stroke="midnightblue" points="186.801,-325.828 189.576,-336.053 193.783,-326.329 186.801,-325.828"/>
</g>
<!-- Node22 -->
<g id="node22" class="node"><title>Node22</title>
<g id="a_node22"><a xlink:href="_ogre_skeleton_instance_8h.html" target="_top" xlink:title="OgreSkeletonInstance.h">
<polygon fill="none" stroke="black" points="39.5861,-280.5 39.5861,-299.5 161.586,-299.5 161.586,-280.5 39.5861,-280.5"/>
<text text-anchor="middle" x="100.586" y="-287.5" font-family="Helvetica,sans-Serif" font-size="10.00">OgreSkeletonInstance.h</text>
</a>
</g>
</g>
<!-- Node21&#45;&gt;Node22 -->
<g id="edge34" class="edge"><title>Node21&#45;&gt;Node22</title>
<path fill="none" stroke="midnightblue" d="M166.348,-330.901C150.028,-320.999 128.721,-308.071 114.85,-299.655"/>
<polygon fill="midnightblue" stroke="midnightblue" points="164.922,-334.129 175.287,-336.324 168.553,-328.144 164.922,-334.129"/>
</g>
<!-- Node22&#45;&gt;Node4 -->
<g id="edge35" class="edge"><title>Node22&#45;&gt;Node4</title>
<path fill="none" stroke="midnightblue" d="M154.622,-278.466C215.187,-266.659 310.613,-248.056 354.321,-239.535"/>
<polygon fill="midnightblue" stroke="midnightblue" points="153.623,-275.095 144.478,-280.444 154.963,-281.965 153.623,-275.095"/>
</g>
<!-- Node23&#45;&gt;Node4 -->
<g id="edge39" class="edge"><title>Node23&#45;&gt;Node4</title>
<path fill="none" stroke="midnightblue" d="M765.07,-389.419C825.418,-369.854 929.244,-327.697 885.586,-280 852.445,-243.793 495.555,-236.547 400.652,-235.257"/>
<polygon fill="midnightblue" stroke="midnightblue" points="763.905,-386.116 755.429,-392.473 766.019,-392.79 763.905,-386.116"/>
</g>
</g>
</svg>
