<?xml version="1.0" encoding="UTF-8" standalone="no"?>
<!DOCTYPE svg PUBLIC "-//W3C//DTD SVG 1.1//EN"
 "http://www.w3.org/Graphics/SVG/1.1/DTD/svg11.dtd">
<!-- Generated by graphviz version 2.38.0 (20140413.2041)
 -->
<!-- Title: OgreShadowTextureManager.h Pages: 1 -->
<svg width="3101pt" height="308pt"
 viewBox="0.00 0.00 3101.00 308.00" xmlns="http://www.w3.org/2000/svg" xmlns:xlink="http://www.w3.org/1999/xlink">
<g id="graph0" class="graph" transform="scale(1 1) rotate(0) translate(4 304)">
<title>OgreShadowTextureManager.h</title>
<!-- Node1 -->
<g id="node1" class="node"><title>Node1</title>
<polygon fill="#bfbfbf" stroke="black" points="677,-280.5 677,-299.5 829,-299.5 829,-280.5 677,-280.5"/>
<text text-anchor="middle" x="753" y="-287.5" font-family="Helvetica,sans-Serif" font-size="10.00">OgreShadowTextureManager.h</text>
</g>
<!-- Node2 -->
<g id="node2" class="node"><title>Node2</title>
<g id="a_node2"><a xlink:href="_ogre_prerequisites_8h.html" target="_top" xlink:title="OgrePrerequisites.h">
<polygon fill="none" stroke="black" points="738.5,-168.5 738.5,-187.5 841.5,-187.5 841.5,-168.5 738.5,-168.5"/>
<text text-anchor="middle" x="790" y="-175.5" font-family="Helvetica,sans-Serif" font-size="10.00">OgrePrerequisites.h</text>
</a>
</g>
</g>
<!-- Node1&#45;&gt;Node2 -->
<g id="edge1" class="edge"><title>Node1&#45;&gt;Node2</title>
<path fill="none" stroke="midnightblue" d="M755.315,-280.084C758.652,-267.479 765.17,-243.782 772,-224 775.128,-214.94 779.036,-205.034 782.411,-196.828"/>
<polygon fill="midnightblue" stroke="midnightblue" points="785.668,-198.11 786.301,-187.534 779.211,-195.407 785.668,-198.11"/>
</g>
<!-- Node39 -->
<g id="node39" class="node"><title>Node39</title>
<g id="a_node39"><a xlink:href="_ogre_header_prefix_8h.html" target="_top" xlink:title="OgreHeaderPrefix.h">
<polygon fill="none" stroke="black" points="128.5,-0.5 128.5,-19.5 231.5,-19.5 231.5,-0.5 128.5,-0.5"/>
<text text-anchor="middle" x="180" y="-7.5" font-family="Helvetica,sans-Serif" font-size="10.00">OgreHeaderPrefix.h</text>
</a>
</g>
</g>
<!-- Node1&#45;&gt;Node39 -->
<g id="edge60" class="edge"><title>Node1&#45;&gt;Node39</title>
<path fill="none" stroke="midnightblue" d="M676.654,-285.771C485.22,-276.661 0,-246.875 0,-179 0,-179 0,-179 0,-121 0,-63.7142 67.2003,-35.3661 119.481,-21.98"/>
<polygon fill="midnightblue" stroke="midnightblue" points="120.49,-25.3366 129.381,-19.5745 118.837,-18.5345 120.49,-25.3366"/>
</g>
<!-- Node40 -->
<g id="node40" class="node"><title>Node40</title>
<g id="a_node40"><a xlink:href="_ogre_header_suffix_8h.html" target="_top" xlink:title="OgreHeaderSuffix.h">
<polygon fill="none" stroke="black" points="471.5,-0.5 471.5,-19.5 574.5,-19.5 574.5,-0.5 471.5,-0.5"/>
<text text-anchor="middle" x="523" y="-7.5" font-family="Helvetica,sans-Serif" font-size="10.00">OgreHeaderSuffix.h</text>
</a>
</g>
</g>
<!-- Node1&#45;&gt;Node40 -->
<g id="edge61" class="edge"><title>Node1&#45;&gt;Node40</title>
<path fill="none" stroke="midnightblue" d="M829.199,-289.298C1219.45,-290.339 2976,-288.915 2976,-179 2976,-179 2976,-179 2976,-121 2976,-90.9022 2980.92,-74.2734 2957,-56 2908.43,-18.8899 959.047,-12.1009 584.783,-11.1387"/>
<polygon fill="midnightblue" stroke="midnightblue" points="584.695,-7.63861 574.686,-11.1132 584.677,-14.6386 584.695,-7.63861"/>
</g>
<!-- Node43 -->
<g id="node43" class="node"><title>Node43</title>
<g id="a_node43"><a xlink:href="_ogre_singleton_8h.html" target="_top" xlink:title="OgreSingleton.h">
<polygon fill="none" stroke="black" points="781,-224.5 781,-243.5 867,-243.5 867,-224.5 781,-224.5"/>
<text text-anchor="middle" x="824" y="-231.5" font-family="Helvetica,sans-Serif" font-size="10.00">OgreSingleton.h</text>
</a>
</g>
</g>
<!-- Node1&#45;&gt;Node43 -->
<g id="edge51" class="edge"><title>Node1&#45;&gt;Node43</title>
<path fill="none" stroke="midnightblue" d="M764.407,-280.324C775.109,-272.185 791.341,-259.839 804.163,-250.087"/>
<polygon fill="midnightblue" stroke="midnightblue" points="806.544,-252.673 812.385,-243.834 802.307,-247.102 806.544,-252.673"/>
</g>
<!-- Node44 -->
<g id="node44" class="node"><title>Node44</title>
<g id="a_node44"><a xlink:href="_ogre_pixel_format_8h.html" target="_top" xlink:title="OgrePixelFormat.h">
<polygon fill="none" stroke="black" points="627,-224.5 627,-243.5 725,-243.5 725,-224.5 627,-224.5"/>
<text text-anchor="middle" x="676" y="-231.5" font-family="Helvetica,sans-Serif" font-size="10.00">OgrePixelFormat.h</text>
</a>
</g>
</g>
<!-- Node1&#45;&gt;Node44 -->
<g id="edge53" class="edge"><title>Node1&#45;&gt;Node44</title>
<path fill="none" stroke="midnightblue" d="M740.629,-280.324C728.842,-272.058 710.868,-259.453 696.864,-249.632"/>
<polygon fill="midnightblue" stroke="midnightblue" points="698.538,-246.531 688.341,-243.655 694.518,-252.262 698.538,-246.531"/>
</g>
<!-- Node3 -->
<g id="node3" class="node"><title>Node3</title>
<g id="a_node3"><a xlink:href="_ogre_platform_8h.html" target="_top" xlink:title="OgrePlatform.h">
<polygon fill="none" stroke="black" points="2286.5,-112.5 2286.5,-131.5 2369.5,-131.5 2369.5,-112.5 2286.5,-112.5"/>
<text text-anchor="middle" x="2328" y="-119.5" font-family="Helvetica,sans-Serif" font-size="10.00">OgrePlatform.h</text>
</a>
</g>
</g>
<!-- Node2&#45;&gt;Node3 -->
<g id="edge2" class="edge"><title>Node2&#45;&gt;Node3</title>
<path fill="none" stroke="midnightblue" d="M841.612,-175.188C1076.22,-166.951 2040.8,-133.084 2276.07,-124.823"/>
<polygon fill="midnightblue" stroke="midnightblue" points="2276.53,-128.31 2286.4,-124.461 2276.28,-121.314 2276.53,-128.31"/>
</g>
<!-- Node6 -->
<g id="node6" class="node"><title>Node6</title>
<polygon fill="none" stroke="#bfbfbf" points="757.5,-56.5 757.5,-75.5 798.5,-75.5 798.5,-56.5 757.5,-56.5"/>
<text text-anchor="middle" x="778" y="-63.5" font-family="Helvetica,sans-Serif" font-size="10.00">string</text>
</g>
<!-- Node2&#45;&gt;Node6 -->
<g id="edge5" class="edge"><title>Node2&#45;&gt;Node6</title>
<path fill="none" stroke="midnightblue" d="M789.058,-168.368C787.122,-150.617 782.655,-109.666 780.029,-85.5974"/>
<polygon fill="midnightblue" stroke="midnightblue" points="783.501,-85.1528 778.937,-75.5914 776.542,-85.912 783.501,-85.1528"/>
</g>
<!-- Node7 -->
<g id="node7" class="node"><title>Node7</title>
<g id="a_node7"><a xlink:href="_ogre_std_headers_8h.html" target="_top" xlink:title="OgreStdHeaders.h">
<polygon fill="none" stroke="black" points="1591,-112.5 1591,-131.5 1689,-131.5 1689,-112.5 1591,-112.5"/>
<text text-anchor="middle" x="1640" y="-119.5" font-family="Helvetica,sans-Serif" font-size="10.00">OgreStdHeaders.h</text>
</a>
</g>
</g>
<!-- Node2&#45;&gt;Node7 -->
<g id="edge6" class="edge"><title>Node2&#45;&gt;Node7</title>
<path fill="none" stroke="midnightblue" d="M841.574,-173.724C990.805,-164.243 1422.46,-136.82 1580.83,-126.759"/>
<polygon fill="midnightblue" stroke="midnightblue" points="1581.11,-130.249 1590.86,-126.122 1580.66,-123.263 1581.11,-130.249"/>
</g>
<!-- Node37 -->
<g id="node37" class="node"><title>Node37</title>
<g id="a_node37"><a xlink:href="_ogre_memory_allocator_config_8h.html" target="_top" xlink:title="This file configures Ogre&#39;s memory allocators. ">
<polygon fill="none" stroke="black" points="415,-112.5 415,-131.5 563,-131.5 563,-112.5 415,-112.5"/>
<text text-anchor="middle" x="489" y="-119.5" font-family="Helvetica,sans-Serif" font-size="10.00">OgreMemoryAllocatorConfig.h</text>
</a>
</g>
</g>
<!-- Node2&#45;&gt;Node37 -->
<g id="edge37" class="edge"><title>Node2&#45;&gt;Node37</title>
<path fill="none" stroke="midnightblue" d="M742.306,-168.444C689.136,-158.905 603.176,-143.483 546.374,-133.293"/>
<polygon fill="midnightblue" stroke="midnightblue" points="546.932,-129.837 536.471,-131.516 545.696,-136.727 546.932,-129.837"/>
</g>
<!-- Node4 -->
<g id="node4" class="node"><title>Node4</title>
<g id="a_node4"><a xlink:href="_ogre_config_8h.html" target="_top" xlink:title="OgreConfig.h">
<polygon fill="none" stroke="black" points="3004,-56.5 3004,-75.5 3078,-75.5 3078,-56.5 3004,-56.5"/>
<text text-anchor="middle" x="3041" y="-63.5" font-family="Helvetica,sans-Serif" font-size="10.00">OgreConfig.h</text>
</a>
</g>
</g>
<!-- Node3&#45;&gt;Node4 -->
<g id="edge3" class="edge"><title>Node3&#45;&gt;Node4</title>
<path fill="none" stroke="midnightblue" d="M2369.63,-118.532C2470.48,-112.441 2735.91,-95.7467 2957,-76 2968.86,-74.9404 2981.65,-73.6473 2993.59,-72.3756"/>
<polygon fill="midnightblue" stroke="midnightblue" points="2994.25,-75.825 3003.81,-71.2699 2993.49,-68.8656 2994.25,-75.825"/>
</g>
<!-- Node5 -->
<g id="node5" class="node"><title>Node5</title>
<polygon fill="none" stroke="#bfbfbf" points="2989,-0.5 2989,-19.5 3093,-19.5 3093,-0.5 2989,-0.5"/>
<text text-anchor="middle" x="3041" y="-7.5" font-family="Helvetica,sans-Serif" font-size="10.00">OgreBuildSettings.h</text>
</g>
<!-- Node4&#45;&gt;Node5 -->
<g id="edge4" class="edge"><title>Node4&#45;&gt;Node5</title>
<path fill="none" stroke="midnightblue" d="M3041,-56.083C3041,-49.0059 3041,-38.8611 3041,-29.9865"/>
<polygon fill="midnightblue" stroke="midnightblue" points="3044.5,-29.751 3041,-19.7511 3037.5,-29.7511 3044.5,-29.751"/>
</g>
<!-- Node7&#45;&gt;Node6 -->
<g id="edge16" class="edge"><title>Node7&#45;&gt;Node6</title>
<path fill="none" stroke="midnightblue" d="M1590.79,-119.935C1438.89,-116.402 977.96,-103.778 808.756,-75.8461"/>
<polygon fill="midnightblue" stroke="midnightblue" points="809.207,-72.3722 798.756,-74.1151 808.013,-79.2696 809.207,-72.3722"/>
</g>
<!-- Node8 -->
<g id="node8" class="node"><title>Node8</title>
<polygon fill="none" stroke="#bfbfbf" points="2651.5,-56.5 2651.5,-75.5 2700.5,-75.5 2700.5,-56.5 2651.5,-56.5"/>
<text text-anchor="middle" x="2676" y="-63.5" font-family="Helvetica,sans-Serif" font-size="10.00">cassert</text>
</g>
<!-- Node7&#45;&gt;Node8 -->
<g id="edge7" class="edge"><title>Node7&#45;&gt;Node8</title>
<path fill="none" stroke="midnightblue" d="M1689.13,-120.235C1861.13,-117.337 2436.41,-105.727 2641.21,-75.9044"/>
<polygon fill="midnightblue" stroke="midnightblue" points="2641.9,-79.3397 2651.26,-74.3784 2640.85,-72.419 2641.9,-79.3397"/>
</g>
<!-- Node9 -->
<g id="node9" class="node"><title>Node9</title>
<polygon fill="none" stroke="#bfbfbf" points="2718.5,-56.5 2718.5,-75.5 2761.5,-75.5 2761.5,-56.5 2718.5,-56.5"/>
<text text-anchor="middle" x="2740" y="-63.5" font-family="Helvetica,sans-Serif" font-size="10.00">cstdio</text>
</g>
<!-- Node7&#45;&gt;Node9 -->
<g id="edge8" class="edge"><title>Node7&#45;&gt;Node9</title>
<path fill="none" stroke="midnightblue" d="M1689.26,-120.556C1868.98,-118.689 2489.87,-109.991 2708.11,-75.8716"/>
<polygon fill="midnightblue" stroke="midnightblue" points="2708.89,-79.291 2718.19,-74.2276 2707.76,-72.3822 2708.89,-79.291"/>
</g>
<!-- Node10 -->
<g id="node10" class="node"><title>Node10</title>
<polygon fill="none" stroke="#bfbfbf" points="2779.5,-56.5 2779.5,-75.5 2824.5,-75.5 2824.5,-56.5 2779.5,-56.5"/>
<text text-anchor="middle" x="2802" y="-63.5" font-family="Helvetica,sans-Serif" font-size="10.00">cstdlib</text>
</g>
<!-- Node7&#45;&gt;Node10 -->
<g id="edge9" class="edge"><title>Node7&#45;&gt;Node10</title>
<path fill="none" stroke="midnightblue" d="M1689.11,-120.63C1875.28,-118.985 2538.19,-110.87 2769.43,-75.8121"/>
<polygon fill="midnightblue" stroke="midnightblue" points="2770.13,-79.2464 2779.46,-74.2307 2769.04,-72.3319 2770.13,-79.2464"/>
</g>
<!-- Node11 -->
<g id="node11" class="node"><title>Node11</title>
<polygon fill="none" stroke="#bfbfbf" points="2842.5,-56.5 2842.5,-75.5 2883.5,-75.5 2883.5,-56.5 2842.5,-56.5"/>
<text text-anchor="middle" x="2863" y="-63.5" font-family="Helvetica,sans-Serif" font-size="10.00">ctime</text>
</g>
<!-- Node7&#45;&gt;Node11 -->
<g id="edge10" class="edge"><title>Node7&#45;&gt;Node11</title>
<path fill="none" stroke="midnightblue" d="M1689.18,-120.868C1882.08,-120.089 2588.05,-114.711 2832.03,-75.8522"/>
<polygon fill="midnightblue" stroke="midnightblue" points="2832.96,-79.2457 2842.25,-74.157 2831.81,-72.34 2832.96,-79.2457"/>
</g>
<!-- Node12 -->
<g id="node12" class="node"><title>Node12</title>
<polygon fill="none" stroke="#bfbfbf" points="2902,-56.5 2902,-75.5 2948,-75.5 2948,-56.5 2902,-56.5"/>
<text text-anchor="middle" x="2925" y="-63.5" font-family="Helvetica,sans-Serif" font-size="10.00">cstring</text>
</g>
<!-- Node7&#45;&gt;Node12 -->
<g id="edge11" class="edge"><title>Node7&#45;&gt;Node12</title>
<path fill="none" stroke="midnightblue" d="M1689.16,-120.797C1888.11,-119.736 2634.77,-113.395 2891.69,-75.7637"/>
<polygon fill="midnightblue" stroke="midnightblue" points="2892.36,-79.2018 2901.72,-74.2386 2891.31,-72.2813 2892.36,-79.2018"/>
</g>
<!-- Node13 -->
<g id="node13" class="node"><title>Node13</title>
<polygon fill="none" stroke="#bfbfbf" points="816.5,-56.5 816.5,-75.5 865.5,-75.5 865.5,-56.5 816.5,-56.5"/>
<text text-anchor="middle" x="841" y="-63.5" font-family="Helvetica,sans-Serif" font-size="10.00">cstdarg</text>
</g>
<!-- Node7&#45;&gt;Node13 -->
<g id="edge12" class="edge"><title>Node7&#45;&gt;Node13</title>
<path fill="none" stroke="midnightblue" d="M1590.86,-121.497C1470.34,-121.993 1150.6,-118.932 875.922,-75.7846"/>
<polygon fill="midnightblue" stroke="midnightblue" points="876.185,-72.2826 865.76,-74.1665 875.085,-79.1955 876.185,-72.2826"/>
</g>
<!-- Node14 -->
<g id="node14" class="node"><title>Node14</title>
<polygon fill="none" stroke="#bfbfbf" points="884,-56.5 884,-75.5 928,-75.5 928,-56.5 884,-56.5"/>
<text text-anchor="middle" x="906" y="-63.5" font-family="Helvetica,sans-Serif" font-size="10.00">cmath</text>
</g>
<!-- Node7&#45;&gt;Node14 -->
<g id="edge13" class="edge"><title>Node7&#45;&gt;Node14</title>
<path fill="none" stroke="midnightblue" d="M1590.99,-121.526C1477.41,-121.96 1187.52,-118.57 938.185,-75.8146"/>
<polygon fill="midnightblue" stroke="midnightblue" points="938.666,-72.3458 928.214,-74.0799 937.466,-79.2422 938.666,-72.3458"/>
</g>
<!-- Node15 -->
<g id="node15" class="node"><title>Node15</title>
<polygon fill="none" stroke="#bfbfbf" points="946,-56.5 946,-75.5 990,-75.5 990,-56.5 946,-56.5"/>
<text text-anchor="middle" x="968" y="-63.5" font-family="Helvetica,sans-Serif" font-size="10.00">vector</text>
</g>
<!-- Node7&#45;&gt;Node15 -->
<g id="edge14" class="edge"><title>Node7&#45;&gt;Node15</title>
<path fill="none" stroke="midnightblue" d="M1590.92,-121.09C1484.57,-120.527 1225.04,-115.056 1000.22,-75.8347"/>
<polygon fill="midnightblue" stroke="midnightblue" points="1000.67,-72.3608 990.217,-74.063 999.453,-79.2535 1000.67,-72.3608"/>
</g>
<!-- Node16 -->
<g id="node16" class="node"><title>Node16</title>
<polygon fill="none" stroke="#bfbfbf" points="1008.5,-56.5 1008.5,-75.5 1043.5,-75.5 1043.5,-56.5 1008.5,-56.5"/>
<text text-anchor="middle" x="1026" y="-63.5" font-family="Helvetica,sans-Serif" font-size="10.00">map</text>
</g>
<!-- Node7&#45;&gt;Node16 -->
<g id="edge15" class="edge"><title>Node7&#45;&gt;Node16</title>
<path fill="none" stroke="midnightblue" d="M1590.74,-121.274C1490.77,-120.959 1257.06,-115.799 1053.53,-75.5443"/>
<polygon fill="midnightblue" stroke="midnightblue" points="1054.04,-72.0786 1043.55,-73.5381 1052.66,-78.9412 1054.04,-72.0786"/>
</g>
<!-- Node17 -->
<g id="node17" class="node"><title>Node17</title>
<polygon fill="none" stroke="#bfbfbf" points="1062,-56.5 1062,-75.5 1092,-75.5 1092,-56.5 1062,-56.5"/>
<text text-anchor="middle" x="1077" y="-63.5" font-family="Helvetica,sans-Serif" font-size="10.00">set</text>
</g>
<!-- Node7&#45;&gt;Node17 -->
<g id="edge17" class="edge"><title>Node7&#45;&gt;Node17</title>
<path fill="none" stroke="midnightblue" d="M1590.64,-121.385C1496.63,-121.151 1285.64,-115.971 1101.88,-75.562"/>
<polygon fill="midnightblue" stroke="midnightblue" points="1102.57,-72.1291 1092.04,-73.359 1101.04,-78.9599 1102.57,-72.1291"/>
</g>
<!-- Node18 -->
<g id="node18" class="node"><title>Node18</title>
<polygon fill="none" stroke="#bfbfbf" points="1110.5,-56.5 1110.5,-75.5 1139.5,-75.5 1139.5,-56.5 1110.5,-56.5"/>
<text text-anchor="middle" x="1125" y="-63.5" font-family="Helvetica,sans-Serif" font-size="10.00">list</text>
</g>
<!-- Node7&#45;&gt;Node18 -->
<g id="edge18" class="edge"><title>Node7&#45;&gt;Node18</title>
<path fill="none" stroke="midnightblue" d="M1590.73,-121.048C1503.05,-120.152 1314.37,-113.791 1149.71,-75.8347"/>
<polygon fill="midnightblue" stroke="midnightblue" points="1150.44,-72.4098 1139.9,-73.5285 1148.83,-79.2241 1150.44,-72.4098"/>
</g>
<!-- Node19 -->
<g id="node19" class="node"><title>Node19</title>
<polygon fill="none" stroke="#bfbfbf" points="1157.5,-56.5 1157.5,-75.5 1200.5,-75.5 1200.5,-56.5 1157.5,-56.5"/>
<text text-anchor="middle" x="1179" y="-63.5" font-family="Helvetica,sans-Serif" font-size="10.00">deque</text>
</g>
<!-- Node7&#45;&gt;Node19 -->
<g id="edge19" class="edge"><title>Node7&#45;&gt;Node19</title>
<path fill="none" stroke="midnightblue" d="M1590.75,-118.862C1512.03,-114.792 1353,-103.885 1210.32,-75.9325"/>
<polygon fill="midnightblue" stroke="midnightblue" points="1211,-72.4998 1200.51,-73.9786 1209.63,-79.3649 1211,-72.4998"/>
</g>
<!-- Node20 -->
<g id="node20" class="node"><title>Node20</title>
<polygon fill="none" stroke="#bfbfbf" points="1218.5,-56.5 1218.5,-75.5 1261.5,-75.5 1261.5,-56.5 1218.5,-56.5"/>
<text text-anchor="middle" x="1240" y="-63.5" font-family="Helvetica,sans-Serif" font-size="10.00">queue</text>
</g>
<!-- Node7&#45;&gt;Node20 -->
<g id="edge20" class="edge"><title>Node7&#45;&gt;Node20</title>
<path fill="none" stroke="midnightblue" d="M1590.95,-117.548C1521.81,-112.128 1391.7,-99.8971 1271.67,-75.804"/>
<polygon fill="midnightblue" stroke="midnightblue" points="1272.07,-72.3136 1261.57,-73.7438 1270.67,-79.1723 1272.07,-72.3136"/>
</g>
<!-- Node21 -->
<g id="node21" class="node"><title>Node21</title>
<polygon fill="none" stroke="#bfbfbf" points="1279.5,-56.5 1279.5,-75.5 1320.5,-75.5 1320.5,-56.5 1279.5,-56.5"/>
<text text-anchor="middle" x="1300" y="-63.5" font-family="Helvetica,sans-Serif" font-size="10.00">bitset</text>
</g>
<!-- Node7&#45;&gt;Node21 -->
<g id="edge21" class="edge"><title>Node7&#45;&gt;Node21</title>
<path fill="none" stroke="midnightblue" d="M1590.74,-116.116C1531.28,-109.72 1428.2,-97.0329 1330.59,-75.8166"/>
<polygon fill="midnightblue" stroke="midnightblue" points="1331.07,-72.3392 1320.55,-73.6004 1329.56,-79.1745 1331.07,-72.3392"/>
</g>
<!-- Node22 -->
<g id="node22" class="node"><title>Node22</title>
<polygon fill="none" stroke="#bfbfbf" points="1339,-56.5 1339,-75.5 1395,-75.5 1395,-56.5 1339,-56.5"/>
<text text-anchor="middle" x="1367" y="-63.5" font-family="Helvetica,sans-Serif" font-size="10.00">algorithm</text>
</g>
<!-- Node7&#45;&gt;Node22 -->
<g id="edge22" class="edge"><title>Node7&#45;&gt;Node22</title>
<path fill="none" stroke="midnightblue" d="M1592.17,-112.469C1544.6,-103.836 1469.59,-89.8252 1405,-76 1404.9,-75.9787 1404.8,-75.9574 1404.7,-75.936"/>
<polygon fill="midnightblue" stroke="midnightblue" points="1405.71,-72.5754 1395.19,-73.8204 1404.19,-79.4084 1405.71,-72.5754"/>
</g>
<!-- Node23 -->
<g id="node23" class="node"><title>Node23</title>
<polygon fill="none" stroke="#bfbfbf" points="1413.5,-56.5 1413.5,-75.5 1472.5,-75.5 1472.5,-56.5 1413.5,-56.5"/>
<text text-anchor="middle" x="1443" y="-63.5" font-family="Helvetica,sans-Serif" font-size="10.00">functional</text>
</g>
<!-- Node7&#45;&gt;Node23 -->
<g id="edge23" class="edge"><title>Node7&#45;&gt;Node23</title>
<path fill="none" stroke="midnightblue" d="M1608.78,-112.444C1574.67,-103.092 1519.93,-88.0874 1482.76,-77.8999"/>
<polygon fill="midnightblue" stroke="midnightblue" points="1483.35,-74.4311 1472.78,-75.1629 1481.5,-81.1821 1483.35,-74.4311"/>
</g>
<!-- Node24 -->
<g id="node24" class="node"><title>Node24</title>
<polygon fill="none" stroke="#bfbfbf" points="1491,-56.5 1491,-75.5 1531,-75.5 1531,-56.5 1491,-56.5"/>
<text text-anchor="middle" x="1511" y="-63.5" font-family="Helvetica,sans-Serif" font-size="10.00">limits</text>
</g>
<!-- Node7&#45;&gt;Node24 -->
<g id="edge24" class="edge"><title>Node7&#45;&gt;Node24</title>
<path fill="none" stroke="midnightblue" d="M1619.56,-112.444C1598.33,-103.557 1564.9,-89.5632 1540.75,-79.4514"/>
<polygon fill="midnightblue" stroke="midnightblue" points="1541.92,-76.1493 1531.34,-75.5164 1539.22,-82.6064 1541.92,-76.1493"/>
</g>
<!-- Node25 -->
<g id="node25" class="node"><title>Node25</title>
<polygon fill="none" stroke="#bfbfbf" points="1549,-56.5 1549,-75.5 1599,-75.5 1599,-56.5 1549,-56.5"/>
<text text-anchor="middle" x="1574" y="-63.5" font-family="Helvetica,sans-Serif" font-size="10.00">fstream</text>
</g>
<!-- Node7&#45;&gt;Node25 -->
<g id="edge25" class="edge"><title>Node7&#45;&gt;Node25</title>
<path fill="none" stroke="midnightblue" d="M1629.4,-112.324C1619.54,-104.263 1604.65,-92.0765 1592.78,-82.3695"/>
<polygon fill="midnightblue" stroke="midnightblue" points="1594.75,-79.4575 1584.8,-75.8339 1590.32,-84.8752 1594.75,-79.4575"/>
</g>
<!-- Node26 -->
<g id="node26" class="node"><title>Node26</title>
<polygon fill="none" stroke="#bfbfbf" points="1617.5,-56.5 1617.5,-75.5 1662.5,-75.5 1662.5,-56.5 1617.5,-56.5"/>
<text text-anchor="middle" x="1640" y="-63.5" font-family="Helvetica,sans-Serif" font-size="10.00">iosfwd</text>
</g>
<!-- Node7&#45;&gt;Node26 -->
<g id="edge26" class="edge"><title>Node7&#45;&gt;Node26</title>
<path fill="none" stroke="midnightblue" d="M1640,-112.083C1640,-105.006 1640,-94.8611 1640,-85.9865"/>
<polygon fill="midnightblue" stroke="midnightblue" points="1643.5,-85.751 1640,-75.7511 1636.5,-85.7511 1643.5,-85.751"/>
</g>
<!-- Node27 -->
<g id="node27" class="node"><title>Node27</title>
<polygon fill="none" stroke="#bfbfbf" points="1681,-56.5 1681,-75.5 1733,-75.5 1733,-56.5 1681,-56.5"/>
<text text-anchor="middle" x="1707" y="-63.5" font-family="Helvetica,sans-Serif" font-size="10.00">sstream</text>
</g>
<!-- Node7&#45;&gt;Node27 -->
<g id="edge27" class="edge"><title>Node7&#45;&gt;Node27</title>
<path fill="none" stroke="midnightblue" d="M1650.76,-112.324C1660.77,-104.263 1675.89,-92.0765 1687.93,-82.3695"/>
<polygon fill="midnightblue" stroke="midnightblue" points="1690.45,-84.8343 1696.04,-75.8339 1686.06,-79.3841 1690.45,-84.8343"/>
</g>
<!-- Node28 -->
<g id="node28" class="node"><title>Node28</title>
<polygon fill="none" stroke="#bfbfbf" points="1751,-56.5 1751,-75.5 1819,-75.5 1819,-56.5 1751,-56.5"/>
<text text-anchor="middle" x="1785" y="-63.5" font-family="Helvetica,sans-Serif" font-size="10.00">sys/types.h</text>
</g>
<!-- Node7&#45;&gt;Node28 -->
<g id="edge28" class="edge"><title>Node7&#45;&gt;Node28</title>
<path fill="none" stroke="midnightblue" d="M1662.98,-112.444C1687.16,-103.438 1725.42,-89.1891 1752.65,-79.049"/>
<polygon fill="midnightblue" stroke="midnightblue" points="1753.98,-82.2864 1762.13,-75.5164 1751.54,-75.7265 1753.98,-82.2864"/>
</g>
<!-- Node29 -->
<g id="node29" class="node"><title>Node29</title>
<polygon fill="none" stroke="#bfbfbf" points="1837,-56.5 1837,-75.5 1897,-75.5 1897,-56.5 1837,-56.5"/>
<text text-anchor="middle" x="1867" y="-63.5" font-family="Helvetica,sans-Serif" font-size="10.00">sys/stat.h</text>
</g>
<!-- Node7&#45;&gt;Node29 -->
<g id="edge29" class="edge"><title>Node7&#45;&gt;Node29</title>
<path fill="none" stroke="midnightblue" d="M1675.97,-112.444C1717.17,-102.642 1784.48,-86.6292 1827.22,-76.4629"/>
<polygon fill="midnightblue" stroke="midnightblue" points="1828.08,-79.8562 1837,-74.1368 1826.46,-73.0462 1828.08,-79.8562"/>
</g>
<!-- Node30 -->
<g id="node30" class="node"><title>Node30</title>
<polygon fill="none" stroke="#bfbfbf" points="1915.5,-56.5 1915.5,-75.5 1966.5,-75.5 1966.5,-56.5 1915.5,-56.5"/>
<text text-anchor="middle" x="1941" y="-63.5" font-family="Helvetica,sans-Serif" font-size="10.00">unistd.h</text>
</g>
<!-- Node7&#45;&gt;Node30 -->
<g id="edge30" class="edge"><title>Node7&#45;&gt;Node30</title>
<path fill="none" stroke="midnightblue" d="M1689.26,-113.935C1740.74,-106.269 1824.04,-93.0675 1905.52,-75.9436"/>
<polygon fill="midnightblue" stroke="midnightblue" points="1906.39,-79.337 1915.44,-73.836 1904.94,-72.4897 1906.39,-79.337"/>
</g>
<!-- Node31 -->
<g id="node31" class="node"><title>Node31</title>
<polygon fill="none" stroke="#bfbfbf" points="1985,-56.5 1985,-75.5 2031,-75.5 2031,-56.5 1985,-56.5"/>
<text text-anchor="middle" x="2008" y="-63.5" font-family="Helvetica,sans-Serif" font-size="10.00">dlfcn.h</text>
</g>
<!-- Node7&#45;&gt;Node31 -->
<g id="edge31" class="edge"><title>Node7&#45;&gt;Node31</title>
<path fill="none" stroke="midnightblue" d="M1689.05,-116.619C1752.82,-110.441 1867.76,-97.6643 1974.69,-76.0233"/>
<polygon fill="midnightblue" stroke="midnightblue" points="1975.58,-79.4119 1984.67,-73.9705 1974.17,-72.5552 1975.58,-79.4119"/>
</g>
<!-- Node32 -->
<g id="node32" class="node"><title>Node32</title>
<polygon fill="none" stroke="#bfbfbf" points="2049,-56.5 2049,-75.5 2127,-75.5 2127,-56.5 2049,-56.5"/>
<text text-anchor="middle" x="2088" y="-63.5" font-family="Helvetica,sans-Serif" font-size="10.00">ext/hash_map</text>
</g>
<!-- Node7&#45;&gt;Node32 -->
<g id="edge32" class="edge"><title>Node7&#45;&gt;Node32</title>
<path fill="none" stroke="midnightblue" d="M1689.1,-116.645C1762.85,-109.848 1906.8,-95.5859 2038.86,-76.0769"/>
<polygon fill="midnightblue" stroke="midnightblue" points="2039.37,-79.5387 2048.75,-74.6025 2038.34,-72.6153 2039.37,-79.5387"/>
</g>
<!-- Node33 -->
<g id="node33" class="node"><title>Node33</title>
<polygon fill="none" stroke="#bfbfbf" points="2145.5,-56.5 2145.5,-75.5 2218.5,-75.5 2218.5,-56.5 2145.5,-56.5"/>
<text text-anchor="middle" x="2182" y="-63.5" font-family="Helvetica,sans-Serif" font-size="10.00">ext/hash_set</text>
</g>
<!-- Node7&#45;&gt;Node33 -->
<g id="edge33" class="edge"><title>Node7&#45;&gt;Node33</title>
<path fill="none" stroke="midnightblue" d="M1689.12,-118.222C1776.67,-112.905 1965.59,-99.7811 2135.28,-75.9499"/>
<polygon fill="midnightblue" stroke="midnightblue" points="2135.99,-79.3844 2145.4,-74.5129 2135.01,-72.454 2135.99,-79.3844"/>
</g>
<!-- Node34 -->
<g id="node34" class="node"><title>Node34</title>
<polygon fill="none" stroke="#bfbfbf" points="2236.5,-56.5 2236.5,-75.5 2307.5,-75.5 2307.5,-56.5 2236.5,-56.5"/>
<text text-anchor="middle" x="2272" y="-63.5" font-family="Helvetica,sans-Serif" font-size="10.00">sys/param.h</text>
</g>
<!-- Node7&#45;&gt;Node34 -->
<g id="edge34" class="edge"><title>Node7&#45;&gt;Node34</title>
<path fill="none" stroke="midnightblue" d="M1689.01,-119.327C1788.54,-115.481 2021.6,-104.189 2226.03,-76.129"/>
<polygon fill="midnightblue" stroke="midnightblue" points="2226.62,-79.5798 2236.05,-74.7368 2225.66,-72.6464 2226.62,-79.5798"/>
</g>
<!-- Node35 -->
<g id="node35" class="node"><title>Node35</title>
<polygon fill="none" stroke="#bfbfbf" points="2326,-56.5 2326,-75.5 2492,-75.5 2492,-56.5 2326,-56.5"/>
<text text-anchor="middle" x="2409" y="-63.5" font-family="Helvetica,sans-Serif" font-size="10.00">CoreFoundation/CoreFoundation.h</text>
</g>
<!-- Node7&#45;&gt;Node35 -->
<g id="edge35" class="edge"><title>Node7&#45;&gt;Node35</title>
<path fill="none" stroke="midnightblue" d="M1689.31,-118.25C1799.54,-111.989 2074.55,-95.7359 2315.76,-76.079"/>
<polygon fill="midnightblue" stroke="midnightblue" points="2316.08,-79.5639 2325.77,-75.2597 2315.51,-72.5872 2316.08,-79.5639"/>
</g>
<!-- Node36 -->
<g id="node36" class="node"><title>Node36</title>
<polygon fill="none" stroke="#bfbfbf" points="2510,-56.5 2510,-75.5 2634,-75.5 2634,-56.5 2510,-56.5"/>
<text text-anchor="middle" x="2572" y="-63.5" font-family="Helvetica,sans-Serif" font-size="10.00">emscripten/emscripten.h</text>
</g>
<!-- Node7&#45;&gt;Node36 -->
<g id="edge36" class="edge"><title>Node7&#45;&gt;Node36</title>
<path fill="none" stroke="midnightblue" d="M1689.11,-119.704C1819.4,-115.993 2184.8,-103.819 2499.46,-76.0722"/>
<polygon fill="midnightblue" stroke="midnightblue" points="2500.04,-79.5344 2509.69,-75.1628 2499.42,-72.5619 2500.04,-79.5344"/>
</g>
<!-- Node38 -->
<g id="node38" class="node"><title>Node38</title>
<g id="a_node38"><a xlink:href="_ogre_memory_allocated_object_8h.html" target="_top" xlink:title="OgreMemoryAllocatedObject.h">
<polygon fill="none" stroke="black" points="551,-56.5 551,-75.5 701,-75.5 701,-56.5 551,-56.5"/>
<text text-anchor="middle" x="626" y="-63.5" font-family="Helvetica,sans-Serif" font-size="10.00">OgreMemoryAllocatedObject.h</text>
</a>
</g>
</g>
<!-- Node37&#45;&gt;Node38 -->
<g id="edge38" class="edge"><title>Node37&#45;&gt;Node38</title>
<path fill="none" stroke="midnightblue" d="M510.708,-112.444C533.355,-103.517 569.072,-89.4387 594.752,-79.3168"/>
<polygon fill="midnightblue" stroke="midnightblue" points="596.374,-82.4397 604.394,-75.5164 593.807,-75.9273 596.374,-82.4397"/>
</g>
<!-- Node37&#45;&gt;Node39 -->
<g id="edge42" class="edge"><title>Node37&#45;&gt;Node39</title>
<path fill="none" stroke="midnightblue" d="M414.694,-118.36C339.582,-114.174 230.261,-103.428 199,-76 185.901,-64.5072 181.601,-44.5335 180.302,-29.752"/>
<polygon fill="midnightblue" stroke="midnightblue" points="183.794,-29.4993 179.798,-19.687 176.803,-29.8497 183.794,-29.4993"/>
</g>
<!-- Node37&#45;&gt;Node40 -->
<g id="edge50" class="edge"><title>Node37&#45;&gt;Node40</title>
<path fill="none" stroke="midnightblue" d="M491.692,-112.376C494.517,-103.319 499.082,-88.6624 503,-76 507.853,-60.3147 513.335,-42.4901 517.331,-29.4788"/>
<polygon fill="midnightblue" stroke="midnightblue" points="520.703,-30.4209 520.291,-19.8341 514.011,-28.3668 520.703,-30.4209"/>
</g>
<!-- Node41 -->
<g id="node41" class="node"><title>Node41</title>
<g id="a_node41"><a xlink:href="_ogre_memory_s_t_l_allocator_8h.html" target="_top" xlink:title="OgreMemorySTLAllocator.h">
<polygon fill="none" stroke="black" points="208.5,-56.5 208.5,-75.5 345.5,-75.5 345.5,-56.5 208.5,-56.5"/>
<text text-anchor="middle" x="277" y="-63.5" font-family="Helvetica,sans-Serif" font-size="10.00">OgreMemorySTLAllocator.h</text>
</a>
</g>
</g>
<!-- Node37&#45;&gt;Node41 -->
<g id="edge43" class="edge"><title>Node37&#45;&gt;Node41</title>
<path fill="none" stroke="midnightblue" d="M455.408,-112.444C418.813,-103.122 360.162,-88.1828 320.174,-77.9972"/>
<polygon fill="midnightblue" stroke="midnightblue" points="320.989,-74.5932 310.435,-75.5164 319.261,-81.3766 320.989,-74.5932"/>
</g>
<!-- Node42 -->
<g id="node42" class="node"><title>Node42</title>
<g id="a_node42"><a xlink:href="_ogre_memory_ned_pooling_8h.html" target="_top" xlink:title="OgreMemoryNedPooling.h">
<polygon fill="none" stroke="black" points="363.5,-56.5 363.5,-75.5 494.5,-75.5 494.5,-56.5 363.5,-56.5"/>
<text text-anchor="middle" x="429" y="-63.5" font-family="Helvetica,sans-Serif" font-size="10.00">OgreMemoryNedPooling.h</text>
</a>
</g>
</g>
<!-- Node37&#45;&gt;Node42 -->
<g id="edge47" class="edge"><title>Node37&#45;&gt;Node42</title>
<path fill="none" stroke="midnightblue" d="M479.36,-112.324C470.49,-104.341 457.125,-92.3128 446.392,-82.6529"/>
<polygon fill="midnightblue" stroke="midnightblue" points="448.59,-79.922 438.815,-75.8339 443.907,-85.1251 448.59,-79.922"/>
</g>
<!-- Node38&#45;&gt;Node2 -->
<g id="edge39" class="edge"><title>Node38&#45;&gt;Node2</title>
<path fill="none" stroke="midnightblue" d="M638.809,-75.5914C666.896,-94.4303 734.143,-139.535 768.701,-162.714"/>
<polygon fill="midnightblue" stroke="midnightblue" points="766.877,-165.705 777.131,-168.368 770.776,-159.891 766.877,-165.705"/>
</g>
<!-- Node38&#45;&gt;Node39 -->
<g id="edge40" class="edge"><title>Node38&#45;&gt;Node39</title>
<path fill="none" stroke="midnightblue" d="M555.33,-56.4435C468.795,-45.9662 323.639,-28.3912 241.508,-18.4471"/>
<polygon fill="midnightblue" stroke="midnightblue" points="241.917,-14.9712 231.569,-17.2437 241.075,-21.9204 241.917,-14.9712"/>
</g>
<!-- Node38&#45;&gt;Node40 -->
<g id="edge41" class="edge"><title>Node38&#45;&gt;Node40</title>
<path fill="none" stroke="midnightblue" d="M609.451,-56.324C593.008,-47.7034 567.565,-34.3643 548.532,-24.3855"/>
<polygon fill="midnightblue" stroke="midnightblue" points="549.989,-21.198 539.508,-19.6545 546.739,-27.3977 549.989,-21.198"/>
</g>
<!-- Node41&#45;&gt;Node2 -->
<g id="edge44" class="edge"><title>Node41&#45;&gt;Node2</title>
<path fill="none" stroke="midnightblue" d="M290.274,-75.6814C312.955,-90.047 361.085,-118.514 406,-132 516.284,-165.114 651.197,-174.055 728.208,-176.351"/>
<polygon fill="midnightblue" stroke="midnightblue" points="728.133,-179.85 738.223,-176.621 728.322,-172.852 728.133,-179.85"/>
</g>
<!-- Node41&#45;&gt;Node39 -->
<g id="edge45" class="edge"><title>Node41&#45;&gt;Node39</title>
<path fill="none" stroke="midnightblue" d="M261.415,-56.324C246.001,-47.7428 222.188,-34.486 204.29,-24.5224"/>
<polygon fill="midnightblue" stroke="midnightblue" points="205.986,-21.4606 195.546,-19.6545 202.581,-27.5767 205.986,-21.4606"/>
</g>
<!-- Node41&#45;&gt;Node40 -->
<g id="edge46" class="edge"><title>Node41&#45;&gt;Node40</title>
<path fill="none" stroke="midnightblue" d="M315.979,-56.4435C358.894,-47.0234 427.946,-31.8656 474.369,-21.6752"/>
<polygon fill="midnightblue" stroke="midnightblue" points="475.186,-25.0792 484.203,-19.5164 473.685,-18.242 475.186,-25.0792"/>
</g>
<!-- Node42&#45;&gt;Node39 -->
<g id="edge48" class="edge"><title>Node42&#45;&gt;Node39</title>
<path fill="none" stroke="midnightblue" d="M389.545,-56.4435C346.108,-47.0234 276.214,-31.8656 229.224,-21.6752"/>
<polygon fill="midnightblue" stroke="midnightblue" points="229.785,-18.2154 219.27,-19.5164 228.301,-25.0564 229.785,-18.2154"/>
</g>
<!-- Node42&#45;&gt;Node40 -->
<g id="edge49" class="edge"><title>Node42&#45;&gt;Node40</title>
<path fill="none" stroke="midnightblue" d="M444.103,-56.324C458.903,-47.8215 481.694,-34.7288 498.982,-24.7975"/>
<polygon fill="midnightblue" stroke="midnightblue" points="501.007,-27.6707 507.935,-19.6545 497.52,-21.6009 501.007,-27.6707"/>
</g>
<!-- Node43&#45;&gt;Node2 -->
<g id="edge52" class="edge"><title>Node43&#45;&gt;Node2</title>
<path fill="none" stroke="midnightblue" d="M818.386,-224.083C813.633,-216.534 806.682,-205.495 800.848,-196.23"/>
<polygon fill="midnightblue" stroke="midnightblue" points="803.8,-194.349 795.51,-187.751 797.876,-198.078 803.8,-194.349"/>
</g>
<!-- Node44&#45;&gt;Node2 -->
<g id="edge54" class="edge"><title>Node44&#45;&gt;Node2</title>
<path fill="none" stroke="midnightblue" d="M694.064,-224.444C712.575,-215.675 741.581,-201.935 762.855,-191.858"/>
<polygon fill="midnightblue" stroke="midnightblue" points="764.482,-194.96 772.021,-187.516 761.485,-188.634 764.482,-194.96"/>
</g>
<!-- Node44&#45;&gt;Node39 -->
<g id="edge58" class="edge"><title>Node44&#45;&gt;Node39</title>
<path fill="none" stroke="midnightblue" d="M626.721,-228.242C492.688,-214.173 126.88,-167.888 57,-76 35.8622,-48.2049 77.8316,-31.0729 118.369,-21.4252"/>
<polygon fill="midnightblue" stroke="midnightblue" points="119.34,-24.7944 128.331,-19.1896 117.807,-17.9643 119.34,-24.7944"/>
</g>
<!-- Node44&#45;&gt;Node40 -->
<g id="edge59" class="edge"><title>Node44&#45;&gt;Node40</title>
<path fill="none" stroke="midnightblue" d="M682.047,-224.127C700.32,-196.12 751.249,-108.352 710,-56 694.517,-36.3491 633.093,-24.2854 584.813,-17.6593"/>
<polygon fill="midnightblue" stroke="midnightblue" points="585.103,-14.1674 574.731,-16.3272 584.186,-21.1071 585.103,-14.1674"/>
</g>
<!-- Node45 -->
<g id="node45" class="node"><title>Node45</title>
<g id="a_node45"><a xlink:href="_ogre_common_8h.html" target="_top" xlink:title="OgreCommon.h">
<polygon fill="none" stroke="black" points="66,-56.5 66,-75.5 152,-75.5 152,-56.5 66,-56.5"/>
<text text-anchor="middle" x="109" y="-63.5" font-family="Helvetica,sans-Serif" font-size="10.00">OgreCommon.h</text>
</a>
</g>
</g>
<!-- Node44&#45;&gt;Node45 -->
<g id="edge55" class="edge"><title>Node44&#45;&gt;Node45</title>
<path fill="none" stroke="midnightblue" d="M646.71,-224.425C552.136,-196.737 254.87,-109.706 147.864,-78.3781"/>
<polygon fill="midnightblue" stroke="midnightblue" points="148.696,-74.9749 138.115,-75.5241 146.729,-81.6929 148.696,-74.9749"/>
</g>
<!-- Node45&#45;&gt;Node39 -->
<g id="edge56" class="edge"><title>Node45&#45;&gt;Node39</title>
<path fill="none" stroke="midnightblue" d="M120.407,-56.324C131.109,-48.1849 147.341,-35.8395 160.163,-26.0874"/>
<polygon fill="midnightblue" stroke="midnightblue" points="162.544,-28.6734 168.385,-19.8339 158.307,-23.1018 162.544,-28.6734"/>
</g>
<!-- Node45&#45;&gt;Node40 -->
<g id="edge57" class="edge"><title>Node45&#45;&gt;Node40</title>
<path fill="none" stroke="midnightblue" d="M152.134,-59.3739C225.867,-49.7564 376.384,-30.1239 461.246,-19.0549"/>
<polygon fill="midnightblue" stroke="midnightblue" points="461.796,-22.5128 471.26,-17.7487 460.891,-15.5716 461.796,-22.5128"/>
</g>
</g>
</svg>
