<?xml version="1.0" encoding="UTF-8" standalone="no"?>
<!DOCTYPE svg PUBLIC "-//W3C//DTD SVG 1.1//EN"
 "http://www.w3.org/Graphics/SVG/1.1/DTD/svg11.dtd">
<!-- Generated by graphviz version 2.38.0 (20140413.2041)
 -->
<!-- Title: OgreViewport.h Pages: 1 -->
<svg width="971pt" height="364pt"
 viewBox="0.00 0.00 971.00 364.00" xmlns="http://www.w3.org/2000/svg" xmlns:xlink="http://www.w3.org/1999/xlink">
<g id="graph0" class="graph" transform="scale(1 1) rotate(0) translate(4 360)">
<title>OgreViewport.h</title>
<!-- Node1 -->
<g id="node1" class="node"><title>Node1</title>
<polygon fill="#bfbfbf" stroke="black" points="373.5,-336.5 373.5,-355.5 457.5,-355.5 457.5,-336.5 373.5,-336.5"/>
<text text-anchor="middle" x="415.5" y="-343.5" font-family="Helvetica,sans-Serif" font-size="10.00">OgreViewport.h</text>
</g>
<!-- Node2 -->
<g id="node2" class="node"><title>Node2</title>
<g id="a_node2"><a xlink:href="_ogre_compositor_chain_8h.html" target="_top" xlink:title="OgreCompositorChain.h">
<polygon fill="none" stroke="black" points="354.5,-280.5 354.5,-299.5 476.5,-299.5 476.5,-280.5 354.5,-280.5"/>
<text text-anchor="middle" x="415.5" y="-287.5" font-family="Helvetica,sans-Serif" font-size="10.00">OgreCompositorChain.h</text>
</a>
</g>
</g>
<!-- Node1&#45;&gt;Node2 -->
<g id="edge1" class="edge"><title>Node1&#45;&gt;Node2</title>
<path fill="none" stroke="midnightblue" d="M415.5,-325.805C415.5,-316.91 415.5,-306.78 415.5,-299.751"/>
<polygon fill="midnightblue" stroke="midnightblue" points="412,-326.083 415.5,-336.083 419,-326.083 412,-326.083"/>
</g>
<!-- Node3 -->
<g id="node3" class="node"><title>Node3</title>
<g id="a_node3"><a xlink:href="_ogre_8h.html" target="_top" xlink:title="Ogre.h">
<polygon fill="none" stroke="black" points="347.5,-224.5 347.5,-243.5 393.5,-243.5 393.5,-224.5 347.5,-224.5"/>
<text text-anchor="middle" x="370.5" y="-231.5" font-family="Helvetica,sans-Serif" font-size="10.00">Ogre.h</text>
</a>
</g>
</g>
<!-- Node1&#45;&gt;Node3 -->
<g id="edge21" class="edge"><title>Node1&#45;&gt;Node3</title>
<path fill="none" stroke="midnightblue" d="M381.676,-331.964C367.862,-324.764 353.319,-314.321 345.5,-300 335.071,-280.898 351.668,-256.523 362.441,-243.734"/>
<polygon fill="midnightblue" stroke="midnightblue" points="380.499,-335.281 391.031,-336.438 383.519,-328.966 380.499,-335.281"/>
</g>
<!-- Node14 -->
<g id="node14" class="node"><title>Node14</title>
<g id="a_node14"><a xlink:href="_ogre_overlay_8h.html" target="_top" xlink:title="OgreOverlay.h">
<polygon fill="none" stroke="black" points="494.5,-280.5 494.5,-299.5 574.5,-299.5 574.5,-280.5 494.5,-280.5"/>
<text text-anchor="middle" x="534.5" y="-287.5" font-family="Helvetica,sans-Serif" font-size="10.00">OgreOverlay.h</text>
</a>
</g>
</g>
<!-- Node1&#45;&gt;Node14 -->
<g id="edge22" class="edge"><title>Node1&#45;&gt;Node14</title>
<path fill="none" stroke="midnightblue" d="M443.637,-332.232C465.896,-322.131 496.356,-308.309 515.732,-299.516"/>
<polygon fill="midnightblue" stroke="midnightblue" points="442.016,-329.124 434.356,-336.444 444.909,-335.498 442.016,-329.124"/>
</g>
<!-- Node2&#45;&gt;Node3 -->
<g id="edge2" class="edge"><title>Node2&#45;&gt;Node3</title>
<path fill="none" stroke="midnightblue" d="M401.453,-272.144C393.613,-262.736 384.171,-251.405 377.793,-243.751"/>
<polygon fill="midnightblue" stroke="midnightblue" points="398.979,-274.641 408.069,-280.083 404.356,-270.16 398.979,-274.641"/>
</g>
<!-- Node4 -->
<g id="node4" class="node"><title>Node4</title>
<g id="a_node4"><a xlink:href="_ogre_hlms_datablock_8h.html" target="_top" xlink:title="OgreHlmsDatablock.h">
<polygon fill="none" stroke="black" points="93,-112.5 93,-131.5 206,-131.5 206,-112.5 93,-112.5"/>
<text text-anchor="middle" x="149.5" y="-119.5" font-family="Helvetica,sans-Serif" font-size="10.00">OgreHlmsDatablock.h</text>
</a>
</g>
</g>
<!-- Node3&#45;&gt;Node4 -->
<g id="edge3" class="edge"><title>Node3&#45;&gt;Node4</title>
<path fill="none" stroke="midnightblue" d="M336.925,-232.689C270.514,-231.285 126.137,-224.058 95.5,-188 78.4961,-167.987 111.672,-144.182 133.168,-131.672"/>
<polygon fill="midnightblue" stroke="midnightblue" points="337.198,-236.194 347.259,-232.873 337.323,-229.195 337.198,-236.194"/>
</g>
<!-- Node5 -->
<g id="node5" class="node"><title>Node5</title>
<g id="a_node5"><a xlink:href="_ogre_hlms_material_base_8h.html" target="_top" xlink:title="OgreHlmsMaterialBase.h">
<polygon fill="none" stroke="black" points="57.5,-56.5 57.5,-75.5 183.5,-75.5 183.5,-56.5 57.5,-56.5"/>
<text text-anchor="middle" x="120.5" y="-63.5" font-family="Helvetica,sans-Serif" font-size="10.00">OgreHlmsMaterialBase.h</text>
</a>
</g>
</g>
<!-- Node3&#45;&gt;Node5 -->
<g id="edge15" class="edge"><title>Node3&#45;&gt;Node5</title>
<path fill="none" stroke="midnightblue" d="M337.085,-232.675C269.577,-231.257 120.536,-224.02 87.5,-188 64.6375,-163.072 72.0902,-143.842 83.5,-112 88.7541,-97.337 101.076,-84.0309 110.062,-75.7555"/>
<polygon fill="midnightblue" stroke="midnightblue" points="337.129,-236.176 347.19,-232.856 337.254,-229.177 337.129,-236.176"/>
</g>
<!-- Node6 -->
<g id="node6" class="node"><title>Node6</title>
<g id="a_node6"><a xlink:href="_ogre_hlms_pbs_material_8h.html" target="_top" xlink:title="OgreHlmsPbsMaterial.h">
<polygon fill="none" stroke="black" points="0,-0.5 0,-19.5 121,-19.5 121,-0.5 0,-0.5"/>
<text text-anchor="middle" x="60.5" y="-7.5" font-family="Helvetica,sans-Serif" font-size="10.00">OgreHlmsPbsMaterial.h</text>
</a>
</g>
</g>
<!-- Node3&#45;&gt;Node6 -->
<g id="edge16" class="edge"><title>Node3&#45;&gt;Node6</title>
<path fill="none" stroke="midnightblue" d="M337.053,-232.62C267.202,-231.111 109.182,-223.73 71.5,-188 23.4655,-142.453 48.3552,-48.5661 57.5598,-19.6611"/>
<polygon fill="midnightblue" stroke="midnightblue" points="337.021,-236.12 347.085,-232.809 337.153,-229.121 337.021,-236.12"/>
</g>
<!-- Node7 -->
<g id="node7" class="node"><title>Node7</title>
<g id="a_node7"><a xlink:href="_ogre_hlms_property_map_8h.html" target="_top" xlink:title="OgreHlmsPropertyMap.h">
<polygon fill="none" stroke="black" points="263,-168.5 263,-187.5 388,-187.5 388,-168.5 263,-168.5"/>
<text text-anchor="middle" x="325.5" y="-175.5" font-family="Helvetica,sans-Serif" font-size="10.00">OgreHlmsPropertyMap.h</text>
</a>
</g>
</g>
<!-- Node3&#45;&gt;Node7 -->
<g id="edge6" class="edge"><title>Node3&#45;&gt;Node7</title>
<path fill="none" stroke="midnightblue" d="M356.453,-216.144C348.613,-206.736 339.171,-195.405 332.793,-187.751"/>
<polygon fill="midnightblue" stroke="midnightblue" points="353.979,-218.641 363.069,-224.083 359.356,-214.16 353.979,-218.641"/>
</g>
<!-- Node8 -->
<g id="node8" class="node"><title>Node8</title>
<g id="a_node8"><a xlink:href="_ogre_hlms_shader_generator_8h.html" target="_top" xlink:title="OgreHlmsShaderGenerator.h">
<polygon fill="none" stroke="black" points="345,-112.5 345,-131.5 488,-131.5 488,-112.5 345,-112.5"/>
<text text-anchor="middle" x="416.5" y="-119.5" font-family="Helvetica,sans-Serif" font-size="10.00">OgreHlmsShaderGenerator.h</text>
</a>
</g>
</g>
<!-- Node3&#45;&gt;Node8 -->
<g id="edge19" class="edge"><title>Node3&#45;&gt;Node8</title>
<path fill="none" stroke="midnightblue" d="M381.699,-215.74C386.684,-207.558 392.352,-197.511 396.5,-188 404.995,-168.519 411.432,-144.298 414.505,-131.634"/>
<polygon fill="midnightblue" stroke="midnightblue" points="378.649,-214.015 376.292,-224.344 384.576,-217.74 378.649,-214.015"/>
</g>
<!-- Node9 -->
<g id="node9" class="node"><title>Node9</title>
<g id="a_node9"><a xlink:href="_ogre_hlms_shader_template_8h.html" target="_top" xlink:title="OgreHlmsShaderTemplate.h">
<polygon fill="none" stroke="black" points="104.5,-168.5 104.5,-187.5 244.5,-187.5 244.5,-168.5 104.5,-168.5"/>
<text text-anchor="middle" x="174.5" y="-175.5" font-family="Helvetica,sans-Serif" font-size="10.00">OgreHlmsShaderTemplate.h</text>
</a>
</g>
</g>
<!-- Node3&#45;&gt;Node9 -->
<g id="edge10" class="edge"><title>Node3&#45;&gt;Node9</title>
<path fill="none" stroke="midnightblue" d="M337.481,-223.903C300.626,-213.749 241.451,-197.446 205.455,-187.529"/>
<polygon fill="midnightblue" stroke="midnightblue" points="336.676,-227.312 347.247,-226.593 338.535,-220.563 336.676,-227.312"/>
</g>
<!-- Node10 -->
<g id="node10" class="node"><title>Node10</title>
<g id="a_node10"><a xlink:href="_ogre_hlms_manager_8h.html" target="_top" xlink:title="OgreHlmsManager.h">
<polygon fill="none" stroke="black" points="607,-112.5 607,-131.5 714,-131.5 714,-112.5 607,-112.5"/>
<text text-anchor="middle" x="660.5" y="-119.5" font-family="Helvetica,sans-Serif" font-size="10.00">OgreHlmsManager.h</text>
</a>
</g>
</g>
<!-- Node3&#45;&gt;Node10 -->
<g id="edge12" class="edge"><title>Node3&#45;&gt;Node10</title>
<path fill="none" stroke="midnightblue" d="M403.922,-232.067C449.318,-229.549 531.868,-220.454 593.5,-188 620.172,-173.955 643.455,-146.006 654.194,-131.772"/>
<polygon fill="midnightblue" stroke="midnightblue" points="403.572,-228.58 393.751,-232.555 403.907,-235.572 403.572,-228.58"/>
</g>
<!-- Node11 -->
<g id="node11" class="node"><title>Node11</title>
<g id="a_node11"><a xlink:href="_ogre_hlms_shader_manager_8h.html" target="_top" xlink:title="OgreHlmsShaderManager.h">
<polygon fill="none" stroke="black" points="641,-168.5 641,-187.5 778,-187.5 778,-168.5 641,-168.5"/>
<text text-anchor="middle" x="709.5" y="-175.5" font-family="Helvetica,sans-Serif" font-size="10.00">OgreHlmsShaderManager.h</text>
</a>
</g>
</g>
<!-- Node3&#45;&gt;Node11 -->
<g id="edge13" class="edge"><title>Node3&#45;&gt;Node11</title>
<path fill="none" stroke="midnightblue" d="M403.738,-227.705C462.514,-218.343 585.257,-198.791 656.05,-187.514"/>
<polygon fill="midnightblue" stroke="midnightblue" points="402.859,-224.301 393.534,-229.331 403.96,-231.214 402.859,-224.301"/>
</g>
<!-- Node12 -->
<g id="node12" class="node"><title>Node12</title>
<g id="a_node12"><a xlink:href="_ogre_hlms_shader_common_8h.html" target="_top" xlink:title="OgreHlmsShaderCommon.h">
<polygon fill="none" stroke="black" points="444.5,-168.5 444.5,-187.5 584.5,-187.5 584.5,-168.5 444.5,-168.5"/>
<text text-anchor="middle" x="514.5" y="-175.5" font-family="Helvetica,sans-Serif" font-size="10.00">OgreHlmsShaderCommon.h</text>
</a>
</g>
</g>
<!-- Node3&#45;&gt;Node12 -->
<g id="edge17" class="edge"><title>Node3&#45;&gt;Node12</title>
<path fill="none" stroke="midnightblue" d="M402.751,-220.906C429.824,-210.754 467.817,-196.506 491.79,-187.516"/>
<polygon fill="midnightblue" stroke="midnightblue" points="401.452,-217.655 393.317,-224.444 403.909,-224.209 401.452,-217.655"/>
</g>
<!-- Node13 -->
<g id="node13" class="node"><title>Node13</title>
<g id="a_node13"><a xlink:href="_ogre_hlms_shader_pieces_manager_8h.html" target="_top" xlink:title="OgreHlmsShaderPiecesManager.h">
<polygon fill="none" stroke="black" points="796,-168.5 796,-187.5 963,-187.5 963,-168.5 796,-168.5"/>
<text text-anchor="middle" x="879.5" y="-175.5" font-family="Helvetica,sans-Serif" font-size="10.00">OgreHlmsShaderPiecesManager.h</text>
</a>
</g>
</g>
<!-- Node3&#45;&gt;Node13 -->
<g id="edge20" class="edge"><title>Node3&#45;&gt;Node13</title>
<path fill="none" stroke="midnightblue" d="M404.089,-229.437C483.667,-220.994 685.498,-199.582 798.935,-187.547"/>
<polygon fill="midnightblue" stroke="midnightblue" points="403.268,-226.004 393.693,-230.539 404.007,-232.965 403.268,-226.004"/>
</g>
<!-- Node4&#45;&gt;Node5 -->
<g id="edge4" class="edge"><title>Node4&#45;&gt;Node5</title>
<path fill="none" stroke="midnightblue" d="M139.824,-102.983C134.902,-93.8168 129.142,-83.0922 125.2,-75.7511"/>
<polygon fill="midnightblue" stroke="midnightblue" points="136.896,-104.929 144.711,-112.083 143.063,-101.617 136.896,-104.929"/>
</g>
<!-- Node5&#45;&gt;Node6 -->
<g id="edge5" class="edge"><title>Node5&#45;&gt;Node6</title>
<path fill="none" stroke="midnightblue" d="M103.319,-49.5372C92.6208,-39.9087 79.2437,-27.8694 70.3154,-19.8339"/>
<polygon fill="midnightblue" stroke="midnightblue" points="101.086,-52.2358 110.86,-56.324 105.768,-47.0327 101.086,-52.2358"/>
</g>
<!-- Node7&#45;&gt;Node4 -->
<g id="edge7" class="edge"><title>Node7&#45;&gt;Node4</title>
<path fill="none" stroke="midnightblue" d="M287.811,-165.436C254.628,-155.255 207.072,-140.664 177.257,-131.516"/>
<polygon fill="midnightblue" stroke="midnightblue" points="287.025,-168.856 297.612,-168.444 289.079,-162.164 287.025,-168.856"/>
</g>
<!-- Node7&#45;&gt;Node5 -->
<g id="edge8" class="edge"><title>Node7&#45;&gt;Node5</title>
<path fill="none" stroke="midnightblue" d="M303.013,-163.088C280.808,-149.528 245.738,-128.586 214.5,-112 188.932,-98.424 158.605,-84.2399 139.456,-75.5109"/>
<polygon fill="midnightblue" stroke="midnightblue" points="301.339,-166.167 311.693,-168.413 305,-160.2 301.339,-166.167"/>
</g>
<!-- Node7&#45;&gt;Node8 -->
<g id="edge9" class="edge"><title>Node7&#45;&gt;Node8</title>
<path fill="none" stroke="midnightblue" d="M348.794,-163.177C365.539,-153.241 387.6,-140.149 401.916,-131.655"/>
<polygon fill="midnightblue" stroke="midnightblue" points="346.934,-160.211 340.121,-168.324 350.507,-166.231 346.934,-160.211"/>
</g>
<!-- Node9&#45;&gt;Node4 -->
<g id="edge11" class="edge"><title>Node9&#45;&gt;Node4</title>
<path fill="none" stroke="midnightblue" d="M166.159,-158.983C161.915,-149.817 156.95,-139.092 153.551,-131.751"/>
<polygon fill="midnightblue" stroke="midnightblue" points="162.994,-160.479 170.372,-168.083 169.347,-157.538 162.994,-160.479"/>
</g>
<!-- Node11&#45;&gt;Node10 -->
<g id="edge14" class="edge"><title>Node11&#45;&gt;Node10</title>
<path fill="none" stroke="midnightblue" d="M694.466,-160.431C685.878,-150.967 675.457,-139.483 668.441,-131.751"/>
<polygon fill="midnightblue" stroke="midnightblue" points="692.097,-163.029 701.409,-168.083 697.281,-158.325 692.097,-163.029"/>
</g>
<!-- Node12&#45;&gt;Node8 -->
<g id="edge18" class="edge"><title>Node12&#45;&gt;Node8</title>
<path fill="none" stroke="midnightblue" d="M489.914,-163.453C471.822,-153.483 447.765,-140.228 432.206,-131.655"/>
<polygon fill="midnightblue" stroke="midnightblue" points="488.307,-166.563 498.755,-168.324 491.685,-160.432 488.307,-166.563"/>
</g>
<!-- Node15 -->
<g id="node15" class="node"><title>Node15</title>
<g id="a_node15"><a xlink:href="_ogre_trays_8h.html" target="_top" xlink:title="OgreTrays.h">
<polygon fill="none" stroke="black" points="499,-224.5 499,-243.5 570,-243.5 570,-224.5 499,-224.5"/>
<text text-anchor="middle" x="534.5" y="-231.5" font-family="Helvetica,sans-Serif" font-size="10.00">OgreTrays.h</text>
</a>
</g>
</g>
<!-- Node14&#45;&gt;Node15 -->
<g id="edge23" class="edge"><title>Node14&#45;&gt;Node15</title>
<path fill="none" stroke="midnightblue" d="M534.5,-269.805C534.5,-260.91 534.5,-250.78 534.5,-243.751"/>
<polygon fill="midnightblue" stroke="midnightblue" points="531,-270.083 534.5,-280.083 538,-270.083 531,-270.083"/>
</g>
</g>
</svg>
