<?xml version="1.0" encoding="UTF-8" standalone="no"?>
<!DOCTYPE svg PUBLIC "-//W3C//DTD SVG 1.1//EN"
 "http://www.w3.org/Graphics/SVG/1.1/DTD/svg11.dtd">
<!-- Generated by graphviz version 2.38.0 (20140413.2041)
 -->
<!-- Title: OgreInstanceBatch.h Pages: 1 -->
<svg width="1138pt" height="319pt"
 viewBox="0.00 0.00 1138.24 319.00" xmlns="http://www.w3.org/2000/svg" xmlns:xlink="http://www.w3.org/1999/xlink">
<g id="graph0" class="graph" transform="scale(1 1) rotate(0) translate(4 315)">
<title>OgreInstanceBatch.h</title>
<!-- Node1 -->
<g id="node1" class="node"><title>Node1</title>
<polygon fill="#bfbfbf" stroke="black" points="780.737,-291.5 780.737,-310.5 889.737,-310.5 889.737,-291.5 780.737,-291.5"/>
<text text-anchor="middle" x="835.237" y="-298.5" font-family="Helvetica,sans-Serif" font-size="10.00">OgreInstanceBatch.h</text>
</g>
<!-- Node2 -->
<g id="node2" class="node"><title>Node2</title>
<g id="a_node2"><a xlink:href="_ogre_8h.html" target="_top" xlink:title="Ogre.h">
<polygon fill="none" stroke="black" points="509.237,-235.5 509.237,-254.5 555.237,-254.5 555.237,-235.5 509.237,-235.5"/>
<text text-anchor="middle" x="532.237" y="-242.5" font-family="Helvetica,sans-Serif" font-size="10.00">Ogre.h</text>
</a>
</g>
</g>
<!-- Node1&#45;&gt;Node2 -->
<g id="edge1" class="edge"><title>Node1&#45;&gt;Node2</title>
<path fill="none" stroke="midnightblue" d="M777.2,-289.657C709.938,-277.669 602.338,-258.493 555.397,-250.127"/>
<polygon fill="midnightblue" stroke="midnightblue" points="776.767,-293.135 787.226,-291.444 777.995,-286.243 776.767,-293.135"/>
</g>
<!-- Node13 -->
<g id="node13" class="node"><title>Node13</title>
<g id="a_node13"><a xlink:href="_ogre_instance_batch_h_w_8h.html" target="_top" xlink:title="OgreInstanceBatchHW.h">
<polygon fill="none" stroke="black" points="700.237,-235.5 700.237,-254.5 826.237,-254.5 826.237,-235.5 700.237,-235.5"/>
<text text-anchor="middle" x="763.237" y="-242.5" font-family="Helvetica,sans-Serif" font-size="10.00">OgreInstanceBatchHW.h</text>
</a>
</g>
</g>
<!-- Node1&#45;&gt;Node13 -->
<g id="edge20" class="edge"><title>Node1&#45;&gt;Node13</title>
<path fill="none" stroke="midnightblue" d="M815.372,-285.101C802.414,-275.382 785.94,-263.027 775.016,-254.834"/>
<polygon fill="midnightblue" stroke="midnightblue" points="813.569,-288.124 823.669,-291.324 817.769,-282.524 813.569,-288.124"/>
</g>
<!-- Node14 -->
<g id="node14" class="node"><title>Node14</title>
<g id="a_node14"><a xlink:href="_ogre_instance_batch_v_t_f_8h.html" target="_top" xlink:title="OgreInstanceBatchVTF.h">
<polygon fill="none" stroke="black" points="844.237,-235.5 844.237,-254.5 972.237,-254.5 972.237,-235.5 844.237,-235.5"/>
<text text-anchor="middle" x="908.237" y="-242.5" font-family="Helvetica,sans-Serif" font-size="10.00">OgreInstanceBatchVTF.h</text>
</a>
</g>
</g>
<!-- Node1&#45;&gt;Node14 -->
<g id="edge21" class="edge"><title>Node1&#45;&gt;Node14</title>
<path fill="none" stroke="midnightblue" d="M855.379,-285.101C868.517,-275.382 885.22,-263.027 896.295,-254.834"/>
<polygon fill="midnightblue" stroke="midnightblue" points="852.924,-282.563 846.966,-291.324 857.087,-288.191 852.924,-282.563"/>
</g>
<!-- Node16 -->
<g id="node16" class="node"><title>Node16</title>
<g id="a_node16"><a xlink:href="_ogre_instance_batch_shader_8h.html" target="_top" xlink:title="OgreInstanceBatchShader.h">
<polygon fill="none" stroke="black" points="990.237,-235.5 990.237,-254.5 1130.24,-254.5 1130.24,-235.5 990.237,-235.5"/>
<text text-anchor="middle" x="1060.24" y="-242.5" font-family="Helvetica,sans-Serif" font-size="10.00">OgreInstanceBatchShader.h</text>
</a>
</g>
</g>
<!-- Node1&#45;&gt;Node16 -->
<g id="edge23" class="edge"><title>Node1&#45;&gt;Node16</title>
<path fill="none" stroke="midnightblue" d="M880.703,-289.088C923.21,-278.887 985.816,-263.861 1024.75,-254.516"/>
<polygon fill="midnightblue" stroke="midnightblue" points="879.796,-285.706 870.889,-291.444 881.43,-292.513 879.796,-285.706"/>
</g>
<!-- Node3 -->
<g id="node3" class="node"><title>Node3</title>
<g id="a_node3"><a xlink:href="_ogre_hlms_datablock_8h.html" target="_top" xlink:title="OgreHlmsDatablock.h">
<polygon fill="none" stroke="black" points="136.737,-112.5 136.737,-131.5 249.737,-131.5 249.737,-112.5 136.737,-112.5"/>
<text text-anchor="middle" x="193.237" y="-119.5" font-family="Helvetica,sans-Serif" font-size="10.00">OgreHlmsDatablock.h</text>
</a>
</g>
</g>
<!-- Node2&#45;&gt;Node3 -->
<g id="edge2" class="edge"><title>Node2&#45;&gt;Node3</title>
<path fill="none" stroke="midnightblue" d="M499.021,-243.924C425.632,-243.054 252.874,-236.923 211.237,-199 191.99,-181.469 191.489,-147.485 192.441,-131.588"/>
<polygon fill="midnightblue" stroke="midnightblue" points="499.068,-247.424 509.1,-244.017 499.133,-240.425 499.068,-247.424"/>
</g>
<!-- Node4 -->
<g id="node4" class="node"><title>Node4</title>
<g id="a_node4"><a xlink:href="_ogre_hlms_material_base_8h.html" target="_top" xlink:title="OgreHlmsMaterialBase.h">
<polygon fill="none" stroke="black" points="175.237,-56.5 175.237,-75.5 301.237,-75.5 301.237,-56.5 175.237,-56.5"/>
<text text-anchor="middle" x="238.237" y="-63.5" font-family="Helvetica,sans-Serif" font-size="10.00">OgreHlmsMaterialBase.h</text>
</a>
</g>
</g>
<!-- Node2&#45;&gt;Node4 -->
<g id="edge14" class="edge"><title>Node2&#45;&gt;Node4</title>
<path fill="none" stroke="midnightblue" d="M565.35,-241.444C658.548,-234.094 917.128,-212.56 929.237,-199 938.415,-188.724 937.489,-179.034 929.237,-168 876.515,-97.4967 825.72,-128.462 739.237,-112 583.531,-82.361 396.779,-72.1296 301.271,-68.6846"/>
<polygon fill="midnightblue" stroke="midnightblue" points="565.031,-237.958 555.335,-242.23 565.578,-244.937 565.031,-237.958"/>
</g>
<!-- Node5 -->
<g id="node5" class="node"><title>Node5</title>
<g id="a_node5"><a xlink:href="_ogre_hlms_pbs_material_8h.html" target="_top" xlink:title="OgreHlmsPbsMaterial.h">
<polygon fill="none" stroke="black" points="56.7374,-0.5 56.7374,-19.5 177.737,-19.5 177.737,-0.5 56.7374,-0.5"/>
<text text-anchor="middle" x="117.237" y="-7.5" font-family="Helvetica,sans-Serif" font-size="10.00">OgreHlmsPbsMaterial.h</text>
</a>
</g>
</g>
<!-- Node2&#45;&gt;Node5 -->
<g id="edge15" class="edge"><title>Node2&#45;&gt;Node5</title>
<path fill="none" stroke="midnightblue" d="M498.985,-243.651C389.888,-242.164 47.9385,-234.671 15.2374,-199 -38.587,-140.287 69.3967,-47.9768 105.822,-19.591"/>
<polygon fill="midnightblue" stroke="midnightblue" points="499.046,-247.152 509.09,-243.78 499.135,-240.152 499.046,-247.152"/>
</g>
<!-- Node6 -->
<g id="node6" class="node"><title>Node6</title>
<g id="a_node6"><a xlink:href="_ogre_hlms_property_map_8h.html" target="_top" xlink:title="OgreHlmsPropertyMap.h">
<polygon fill="none" stroke="black" points="220.737,-174 220.737,-193 345.737,-193 345.737,-174 220.737,-174"/>
<text text-anchor="middle" x="283.237" y="-181" font-family="Helvetica,sans-Serif" font-size="10.00">OgreHlmsPropertyMap.h</text>
</a>
</g>
</g>
<!-- Node2&#45;&gt;Node6 -->
<g id="edge5" class="edge"><title>Node2&#45;&gt;Node6</title>
<path fill="none" stroke="midnightblue" d="M498.876,-236.028C452.069,-224.843 367.252,-204.576 319.121,-193.075"/>
<polygon fill="midnightblue" stroke="midnightblue" points="498.272,-239.482 508.812,-238.402 499.899,-232.674 498.272,-239.482"/>
</g>
<!-- Node7 -->
<g id="node7" class="node"><title>Node7</title>
<g id="a_node7"><a xlink:href="_ogre_hlms_shader_generator_8h.html" target="_top" xlink:title="OgreHlmsShaderGenerator.h">
<polygon fill="none" stroke="black" points="362.737,-112.5 362.737,-131.5 505.737,-131.5 505.737,-112.5 362.737,-112.5"/>
<text text-anchor="middle" x="434.237" y="-119.5" font-family="Helvetica,sans-Serif" font-size="10.00">OgreHlmsShaderGenerator.h</text>
</a>
</g>
</g>
<!-- Node2&#45;&gt;Node7 -->
<g id="edge18" class="edge"><title>Node2&#45;&gt;Node7</title>
<path fill="none" stroke="midnightblue" d="M531.586,-224.961C530.13,-208.409 525.793,-184.551 513.237,-168 499.882,-150.395 477.507,-138.587 459.972,-131.501"/>
<polygon fill="midnightblue" stroke="midnightblue" points="528.1,-225.304 532.199,-235.074 535.087,-224.88 528.1,-225.304"/>
</g>
<!-- Node8 -->
<g id="node8" class="node"><title>Node8</title>
<g id="a_node8"><a xlink:href="_ogre_hlms_shader_template_8h.html" target="_top" xlink:title="OgreHlmsShaderTemplate.h">
<polygon fill="none" stroke="black" points="24.2374,-174 24.2374,-193 164.237,-193 164.237,-174 24.2374,-174"/>
<text text-anchor="middle" x="94.2374" y="-181" font-family="Helvetica,sans-Serif" font-size="10.00">OgreHlmsShaderTemplate.h</text>
</a>
</g>
</g>
<!-- Node2&#45;&gt;Node8 -->
<g id="edge9" class="edge"><title>Node2&#45;&gt;Node8</title>
<path fill="none" stroke="midnightblue" d="M498.882,-240.261C436.033,-233.106 295.812,-216.612 178.237,-199 166.382,-197.224 153.62,-195.121 141.711,-193.074"/>
<polygon fill="midnightblue" stroke="midnightblue" points="498.663,-243.759 508.994,-241.408 499.452,-236.803 498.663,-243.759"/>
</g>
<!-- Node9 -->
<g id="node9" class="node"><title>Node9</title>
<g id="a_node9"><a xlink:href="_ogre_hlms_manager_8h.html" target="_top" xlink:title="OgreHlmsManager.h">
<polygon fill="none" stroke="black" points="623.737,-112.5 623.737,-131.5 730.737,-131.5 730.737,-112.5 623.737,-112.5"/>
<text text-anchor="middle" x="677.237" y="-119.5" font-family="Helvetica,sans-Serif" font-size="10.00">OgreHlmsManager.h</text>
</a>
</g>
</g>
<!-- Node2&#45;&gt;Node9 -->
<g id="edge11" class="edge"><title>Node2&#45;&gt;Node9</title>
<path fill="none" stroke="midnightblue" d="M565.312,-240.234C610.837,-234.292 689.136,-221.087 706.237,-199 722.492,-178.007 699.233,-146.86 685.729,-131.795"/>
<polygon fill="midnightblue" stroke="midnightblue" points="564.8,-236.771 555.315,-241.491 565.674,-243.716 564.8,-236.771"/>
</g>
<!-- Node10 -->
<g id="node10" class="node"><title>Node10</title>
<g id="a_node10"><a xlink:href="_ogre_hlms_shader_manager_8h.html" target="_top" xlink:title="OgreHlmsShaderManager.h">
<polygon fill="none" stroke="black" points="560.737,-174 560.737,-193 697.737,-193 697.737,-174 560.737,-174"/>
<text text-anchor="middle" x="629.237" y="-181" font-family="Helvetica,sans-Serif" font-size="10.00">OgreHlmsShaderManager.h</text>
</a>
</g>
</g>
<!-- Node2&#45;&gt;Node10 -->
<g id="edge12" class="edge"><title>Node2&#45;&gt;Node10</title>
<path fill="none" stroke="midnightblue" d="M554.663,-230.244C573.402,-218.75 599.53,-202.723 615.365,-193.009"/>
<polygon fill="midnightblue" stroke="midnightblue" points="552.829,-227.263 546.135,-235.475 556.489,-233.23 552.829,-227.263"/>
</g>
<!-- Node11 -->
<g id="node11" class="node"><title>Node11</title>
<g id="a_node11"><a xlink:href="_ogre_hlms_shader_common_8h.html" target="_top" xlink:title="OgreHlmsShaderCommon.h">
<polygon fill="none" stroke="black" points="364.237,-174 364.237,-193 504.237,-193 504.237,-174 364.237,-174"/>
<text text-anchor="middle" x="434.237" y="-181" font-family="Helvetica,sans-Serif" font-size="10.00">OgreHlmsShaderCommon.h</text>
</a>
</g>
</g>
<!-- Node2&#45;&gt;Node11 -->
<g id="edge16" class="edge"><title>Node2&#45;&gt;Node11</title>
<path fill="none" stroke="midnightblue" d="M509.581,-230.244C490.649,-218.75 464.251,-202.723 448.252,-193.009"/>
<polygon fill="midnightblue" stroke="midnightblue" points="507.832,-233.277 518.196,-235.475 511.465,-227.294 507.832,-233.277"/>
</g>
<!-- Node12 -->
<g id="node12" class="node"><title>Node12</title>
<g id="a_node12"><a xlink:href="_ogre_hlms_shader_pieces_manager_8h.html" target="_top" xlink:title="OgreHlmsShaderPiecesManager.h">
<polygon fill="none" stroke="black" points="753.737,-174 753.737,-193 920.737,-193 920.737,-174 753.737,-174"/>
<text text-anchor="middle" x="837.237" y="-181" font-family="Helvetica,sans-Serif" font-size="10.00">OgreHlmsShaderPiecesManager.h</text>
</a>
</g>
</g>
<!-- Node2&#45;&gt;Node12 -->
<g id="edge19" class="edge"><title>Node2&#45;&gt;Node12</title>
<path fill="none" stroke="midnightblue" d="M565.38,-237.534C620.676,-226.747 731.751,-205.078 793.431,-193.046"/>
<polygon fill="midnightblue" stroke="midnightblue" points="564.557,-234.129 555.412,-239.479 565.898,-240.999 564.557,-234.129"/>
</g>
<!-- Node3&#45;&gt;Node4 -->
<g id="edge3" class="edge"><title>Node3&#45;&gt;Node4</title>
<path fill="none" stroke="midnightblue" d="M207.284,-104.144C215.124,-94.7357 224.567,-83.4046 230.945,-75.7511"/>
<polygon fill="midnightblue" stroke="midnightblue" points="204.381,-102.16 200.668,-112.083 209.759,-106.641 204.381,-102.16"/>
</g>
<!-- Node4&#45;&gt;Node5 -->
<g id="edge4" class="edge"><title>Node4&#45;&gt;Node5</title>
<path fill="none" stroke="midnightblue" d="M209.932,-52.3678C187.272,-42.2553 156.111,-28.3486 136.321,-19.5164"/>
<polygon fill="midnightblue" stroke="midnightblue" points="208.506,-55.5643 219.065,-56.4435 211.359,-49.1719 208.506,-55.5643"/>
</g>
<!-- Node6&#45;&gt;Node3 -->
<g id="edge6" class="edge"><title>Node6&#45;&gt;Node3</title>
<path fill="none" stroke="midnightblue" d="M261.954,-168.43C244.604,-156.959 220.667,-141.134 206.108,-131.509"/>
<polygon fill="midnightblue" stroke="midnightblue" points="260.071,-171.38 270.343,-173.975 263.931,-165.541 260.071,-171.38"/>
</g>
<!-- Node6&#45;&gt;Node4 -->
<g id="edge7" class="edge"><title>Node6&#45;&gt;Node4</title>
<path fill="none" stroke="midnightblue" d="M277.151,-164.105C272.31,-149.794 265.215,-129.494 258.237,-112 253.107,-99.1355 246.46,-84.5323 242.271,-75.5426"/>
<polygon fill="midnightblue" stroke="midnightblue" points="273.881,-165.364 280.373,-173.736 280.519,-163.143 273.881,-165.364"/>
</g>
<!-- Node6&#45;&gt;Node7 -->
<g id="edge8" class="edge"><title>Node6&#45;&gt;Node7</title>
<path fill="none" stroke="midnightblue" d="M314.243,-170.282C343.587,-158.72 386.871,-141.664 412.643,-131.509"/>
<polygon fill="midnightblue" stroke="midnightblue" points="312.893,-167.053 304.872,-173.975 315.459,-173.565 312.893,-167.053"/>
</g>
<!-- Node8&#45;&gt;Node3 -->
<g id="edge10" class="edge"><title>Node8&#45;&gt;Node3</title>
<path fill="none" stroke="midnightblue" d="M117.125,-168.744C136.25,-157.25 162.918,-141.223 179.079,-131.509"/>
<polygon fill="midnightblue" stroke="midnightblue" points="115.19,-165.824 108.422,-173.975 118.796,-171.824 115.19,-165.824"/>
</g>
<!-- Node10&#45;&gt;Node9 -->
<g id="edge13" class="edge"><title>Node10&#45;&gt;Node9</title>
<path fill="none" stroke="midnightblue" d="M642.412,-166.169C651.461,-154.952 663.107,-140.516 670.373,-131.509"/>
<polygon fill="midnightblue" stroke="midnightblue" points="639.669,-163.994 636.115,-173.975 645.118,-168.39 639.669,-163.994"/>
</g>
<!-- Node11&#45;&gt;Node7 -->
<g id="edge17" class="edge"><title>Node11&#45;&gt;Node7</title>
<path fill="none" stroke="midnightblue" d="M434.237,-163.817C434.237,-152.996 434.237,-139.898 434.237,-131.509"/>
<polygon fill="midnightblue" stroke="midnightblue" points="430.738,-163.975 434.237,-173.975 437.738,-163.975 430.738,-163.975"/>
</g>
<!-- Node15 -->
<g id="node15" class="node"><title>Node15</title>
<g id="a_node15"><a xlink:href="_ogre_instance_batch_h_w___v_t_f_8h.html" target="_top" xlink:title="OgreInstanceBatchHW\l_VTF.h">
<polygon fill="none" stroke="black" points="976.237,-168.5 976.237,-198.5 1094.24,-198.5 1094.24,-168.5 976.237,-168.5"/>
<text text-anchor="start" x="984.237" y="-186.5" font-family="Helvetica,sans-Serif" font-size="10.00">OgreInstanceBatchHW</text>
<text text-anchor="middle" x="1035.24" y="-175.5" font-family="Helvetica,sans-Serif" font-size="10.00">_VTF.h</text>
</a>
</g>
</g>
<!-- Node14&#45;&gt;Node15 -->
<g id="edge22" class="edge"><title>Node14&#45;&gt;Node15</title>
<path fill="none" stroke="midnightblue" d="M935.558,-231.2C956.082,-221.585 984.175,-208.423 1005.31,-198.523"/>
<polygon fill="midnightblue" stroke="midnightblue" points="934.004,-228.063 926.433,-235.475 936.974,-234.402 934.004,-228.063"/>
</g>
</g>
</svg>
