<?xml version="1.0" encoding="UTF-8" standalone="no"?>
<!DOCTYPE svg PUBLIC "-//W3C//DTD SVG 1.1//EN"
 "http://www.w3.org/Graphics/SVG/1.1/DTD/svg11.dtd">
<!-- Generated by graphviz version 2.38.0 (20140413.2041)
 -->
<!-- Title: OgreGLESFrameBufferObject.h Pages: 1 -->
<svg width="356pt" height="84pt"
 viewBox="0.00 0.00 356.00 84.00" xmlns="http://www.w3.org/2000/svg" xmlns:xlink="http://www.w3.org/1999/xlink">
<g id="graph0" class="graph" transform="scale(1 1) rotate(0) translate(4 80)">
<title>OgreGLESFrameBufferObject.h</title>
<!-- Node1 -->
<g id="node1" class="node"><title>Node1</title>
<polygon fill="#bfbfbf" stroke="black" points="100,-56.5 100,-75.5 255,-75.5 255,-56.5 100,-56.5"/>
<text text-anchor="middle" x="177.5" y="-63.5" font-family="Helvetica,sans-Serif" font-size="10.00">OgreGLESFrameBufferObject.h</text>
</g>
<!-- Node2 -->
<g id="node2" class="node"><title>Node2</title>
<g id="a_node2"><a xlink:href="_ogre_g_l_e_s_f_b_o_multi_render_target_8h.html" target="_top" xlink:title="OgreGLESFBOMultiRenderTarget.h">
<polygon fill="none" stroke="black" points="0,-0.5 0,-19.5 173,-19.5 173,-0.5 0,-0.5"/>
<text text-anchor="middle" x="86.5" y="-7.5" font-family="Helvetica,sans-Serif" font-size="10.00">OgreGLESFBOMultiRenderTarget.h</text>
</a>
</g>
</g>
<!-- Node1&#45;&gt;Node2 -->
<g id="edge1" class="edge"><title>Node1&#45;&gt;Node2</title>
<path fill="none" stroke="midnightblue" d="M154.206,-51.1774C137.461,-41.2407 115.4,-28.1492 101.084,-19.6545"/>
<polygon fill="midnightblue" stroke="midnightblue" points="152.493,-54.2307 162.879,-56.324 156.066,-48.2108 152.493,-54.2307"/>
</g>
<!-- Node3 -->
<g id="node3" class="node"><title>Node3</title>
<g id="a_node3"><a xlink:href="_ogre_g_l_e_s_f_b_o_render_texture_8h.html" target="_top" xlink:title="OgreGLESFBORenderTexture.h">
<polygon fill="none" stroke="black" points="191,-0.5 191,-19.5 348,-19.5 348,-0.5 191,-0.5"/>
<text text-anchor="middle" x="269.5" y="-7.5" font-family="Helvetica,sans-Serif" font-size="10.00">OgreGLESFBORenderTexture.h</text>
</a>
</g>
</g>
<!-- Node1&#45;&gt;Node3 -->
<g id="edge2" class="edge"><title>Node1&#45;&gt;Node3</title>
<path fill="none" stroke="midnightblue" d="M201.05,-51.1774C217.979,-41.2407 240.283,-28.1492 254.755,-19.6545"/>
<polygon fill="midnightblue" stroke="midnightblue" points="199.134,-48.2435 192.281,-56.324 202.677,-54.2804 199.134,-48.2435"/>
</g>
</g>
</svg>
