<?xml version="1.0" encoding="UTF-8" standalone="no"?>
<!DOCTYPE svg PUBLIC "-//W3C//DTD SVG 1.1//EN"
 "http://www.w3.org/Graphics/SVG/1.1/DTD/svg11.dtd">
<!-- Generated by graphviz version 2.38.0 (20140413.2041)
 -->
<!-- Title: OgreGLPBRenderTexture.h Pages: 1 -->
<svg width="1528pt" height="420pt"
 viewBox="0.00 0.00 1527.50 420.00" xmlns="http://www.w3.org/2000/svg" xmlns:xlink="http://www.w3.org/1999/xlink">
<g id="graph0" class="graph" transform="scale(1 1) rotate(0) translate(4 416)">
<title>OgreGLPBRenderTexture.h</title>
<!-- Node1 -->
<g id="node1" class="node"><title>Node1</title>
<polygon fill="#bfbfbf" stroke="black" points="948.5,-392.5 948.5,-411.5 1085.5,-411.5 1085.5,-392.5 948.5,-392.5"/>
<text text-anchor="middle" x="1017" y="-399.5" font-family="Helvetica,sans-Serif" font-size="10.00">OgreGLPBRenderTexture.h</text>
</g>
<!-- Node2 -->
<g id="node2" class="node"><title>Node2</title>
<g id="a_node2"><a xlink:href="_ogre_g_l_render_texture_8h.html" target="_top" xlink:title="OgreGLRenderTexture.h">
<polygon fill="none" stroke="black" points="778.5,-336.5 778.5,-355.5 901.5,-355.5 901.5,-336.5 778.5,-336.5"/>
<text text-anchor="middle" x="840" y="-343.5" font-family="Helvetica,sans-Serif" font-size="10.00">OgreGLRenderTexture.h</text>
</a>
</g>
</g>
<!-- Node1&#45;&gt;Node2 -->
<g id="edge1" class="edge"><title>Node1&#45;&gt;Node2</title>
<path fill="none" stroke="midnightblue" d="M988.954,-392.444C958.918,-383.28 911.087,-368.688 877.757,-358.519"/>
<polygon fill="midnightblue" stroke="midnightblue" points="878.501,-355.087 867.915,-355.516 876.458,-361.782 878.501,-355.087"/>
</g>
<!-- Node25 -->
<g id="node25" class="node"><title>Node25</title>
<g id="a_node25"><a xlink:href="_ogre_g_l_p_buffer_8h.html" target="_top" xlink:title="OgreGLPBuffer.h">
<polygon fill="none" stroke="red" points="1239,-168.5 1239,-187.5 1331,-187.5 1331,-168.5 1239,-168.5"/>
<text text-anchor="middle" x="1285" y="-175.5" font-family="Helvetica,sans-Serif" font-size="10.00">OgreGLPBuffer.h</text>
</a>
</g>
</g>
<!-- Node1&#45;&gt;Node25 -->
<g id="edge54" class="edge"><title>Node1&#45;&gt;Node25</title>
<path fill="none" stroke="midnightblue" d="M1027.51,-392.297C1068.12,-358.657 1215.13,-236.877 1266.85,-194.035"/>
<polygon fill="midnightblue" stroke="midnightblue" points="1269.1,-196.717 1274.57,-187.643 1264.63,-191.326 1269.1,-196.717"/>
</g>
<!-- Node3 -->
<g id="node3" class="node"><title>Node3</title>
<g id="a_node3"><a xlink:href="_ogre_g_l_texture_8h.html" target="_top" xlink:title="OgreGLTexture.h">
<polygon fill="none" stroke="black" points="618,-280.5 618,-299.5 710,-299.5 710,-280.5 618,-280.5"/>
<text text-anchor="middle" x="664" y="-287.5" font-family="Helvetica,sans-Serif" font-size="10.00">OgreGLTexture.h</text>
</a>
</g>
</g>
<!-- Node2&#45;&gt;Node3 -->
<g id="edge2" class="edge"><title>Node2&#45;&gt;Node3</title>
<path fill="none" stroke="midnightblue" d="M812.112,-336.444C782.246,-327.28 734.685,-312.688 701.544,-302.519"/>
<polygon fill="midnightblue" stroke="midnightblue" points="702.344,-299.104 691.757,-299.516 700.291,-305.796 702.344,-299.104"/>
</g>
<!-- Node4 -->
<g id="node4" class="node"><title>Node4</title>
<g id="a_node4"><a xlink:href="_ogre_g_l_prerequisites_8h.html" target="_top" xlink:title="OgreGLPrerequisites.h">
<polygon fill="none" stroke="black" points="1204,-112.5 1204,-131.5 1320,-131.5 1320,-112.5 1204,-112.5"/>
<text text-anchor="middle" x="1262" y="-119.5" font-family="Helvetica,sans-Serif" font-size="10.00">OgreGLPrerequisites.h</text>
</a>
</g>
</g>
<!-- Node3&#45;&gt;Node4 -->
<g id="edge3" class="edge"><title>Node3&#45;&gt;Node4</title>
<path fill="none" stroke="midnightblue" d="M710.062,-289.764C849.322,-290.97 1261.21,-286.051 1340,-188 1357.16,-166.643 1324.73,-147.259 1296.6,-135.325"/>
<polygon fill="midnightblue" stroke="midnightblue" points="1297.89,-132.069 1287.3,-131.571 1295.27,-138.56 1297.89,-132.069"/>
</g>
<!-- Node6 -->
<g id="node6" class="node"><title>Node6</title>
<g id="a_node6"><a xlink:href="_ogre_platform_8h.html" target="_top" xlink:title="OgrePlatform.h">
<polygon fill="none" stroke="red" points="651.5,-0.5 651.5,-19.5 734.5,-19.5 734.5,-0.5 651.5,-0.5"/>
<text text-anchor="middle" x="693" y="-7.5" font-family="Helvetica,sans-Serif" font-size="10.00">OgrePlatform.h</text>
</a>
</g>
</g>
<!-- Node3&#45;&gt;Node6 -->
<g id="edge11" class="edge"><title>Node3&#45;&gt;Node6</title>
<path fill="none" stroke="midnightblue" d="M617.836,-286.239C467.256,-276.624 0,-241.733 0,-179 0,-179 0,-179 0,-121 0,-66.4926 52.2156,-73.013 104,-56 203.15,-23.4256 516.938,-14.2032 641.406,-11.7911"/>
<polygon fill="midnightblue" stroke="midnightblue" points="641.512,-15.2898 651.445,-11.6034 641.381,-8.29101 641.512,-15.2898"/>
</g>
<!-- Node12 -->
<g id="node12" class="node"><title>Node12</title>
<g id="a_node12"><a xlink:href="_ogre_render_texture_8h.html" target="_top" xlink:title="OgreRenderTexture.h">
<polygon fill="none" stroke="black" points="322,-168.5 322,-187.5 432,-187.5 432,-168.5 322,-168.5"/>
<text text-anchor="middle" x="377" y="-175.5" font-family="Helvetica,sans-Serif" font-size="10.00">OgreRenderTexture.h</text>
</a>
</g>
</g>
<!-- Node3&#45;&gt;Node12 -->
<g id="edge12" class="edge"><title>Node3&#45;&gt;Node12</title>
<path fill="none" stroke="midnightblue" d="M641.48,-280.368C590.763,-260.93 467.469,-213.674 408.904,-191.228"/>
<polygon fill="midnightblue" stroke="midnightblue" points="410.006,-187.902 399.416,-187.591 407.501,-194.439 410.006,-187.902"/>
</g>
<!-- Node16 -->
<g id="node16" class="node"><title>Node16</title>
<g id="a_node16"><a xlink:href="_ogre_texture_8h.html" target="_top" xlink:title="OgreTexture.h">
<polygon fill="none" stroke="black" points="477.5,-168.5 477.5,-187.5 556.5,-187.5 556.5,-168.5 477.5,-168.5"/>
<text text-anchor="middle" x="517" y="-175.5" font-family="Helvetica,sans-Serif" font-size="10.00">OgreTexture.h</text>
</a>
</g>
</g>
<!-- Node3&#45;&gt;Node16 -->
<g id="edge20" class="edge"><title>Node3&#45;&gt;Node16</title>
<path fill="none" stroke="midnightblue" d="M652.465,-280.368C627.455,-261.653 567.983,-217.151 536.822,-193.832"/>
<polygon fill="midnightblue" stroke="midnightblue" points="538.585,-190.78 528.481,-187.591 534.391,-196.385 538.585,-190.78"/>
</g>
<!-- Node21 -->
<g id="node21" class="node"><title>Node21</title>
<g id="a_node21"><a xlink:href="_ogre_g_l_support_8h.html" target="_top" xlink:title="OgreGLSupport.h">
<polygon fill="none" stroke="black" points="985,-224.5 985,-243.5 1077,-243.5 1077,-224.5 985,-224.5"/>
<text text-anchor="middle" x="1031" y="-231.5" font-family="Helvetica,sans-Serif" font-size="10.00">OgreGLSupport.h</text>
</a>
</g>
</g>
<!-- Node3&#45;&gt;Node21 -->
<g id="edge34" class="edge"><title>Node3&#45;&gt;Node21</title>
<path fill="none" stroke="midnightblue" d="M710.109,-282.216C777.267,-272.334 901.874,-253.999 974.47,-243.318"/>
<polygon fill="midnightblue" stroke="midnightblue" points="975.407,-246.718 984.791,-241.799 974.388,-239.792 975.407,-246.718"/>
</g>
<!-- Node27 -->
<g id="node27" class="node"><title>Node27</title>
<g id="a_node27"><a xlink:href="_ogre_hardware_pixel_buffer_8h.html" target="_top" xlink:title="OgreHardwarePixelBuffer.h">
<polygon fill="none" stroke="black" points="596,-168.5 596,-187.5 732,-187.5 732,-168.5 596,-168.5"/>
<text text-anchor="middle" x="664" y="-175.5" font-family="Helvetica,sans-Serif" font-size="10.00">OgreHardwarePixelBuffer.h</text>
</a>
</g>
</g>
<!-- Node3&#45;&gt;Node27 -->
<g id="edge47" class="edge"><title>Node3&#45;&gt;Node27</title>
<path fill="none" stroke="midnightblue" d="M664,-280.368C664,-262.617 664,-221.666 664,-197.597"/>
<polygon fill="midnightblue" stroke="midnightblue" points="667.5,-197.591 664,-187.591 660.5,-197.591 667.5,-197.591"/>
</g>
<!-- Node5 -->
<g id="node5" class="node"><title>Node5</title>
<g id="a_node5"><a xlink:href="_ogre_prerequisites_8h.html" target="_top" xlink:title="OgrePrerequisites.h">
<polygon fill="none" stroke="red" points="641.5,-56.5 641.5,-75.5 744.5,-75.5 744.5,-56.5 641.5,-56.5"/>
<text text-anchor="middle" x="693" y="-63.5" font-family="Helvetica,sans-Serif" font-size="10.00">OgrePrerequisites.h</text>
</a>
</g>
</g>
<!-- Node4&#45;&gt;Node5 -->
<g id="edge4" class="edge"><title>Node4&#45;&gt;Node5</title>
<path fill="none" stroke="midnightblue" d="M1203.78,-115.475C1095.7,-105.218 865.007,-83.324 754.498,-72.8364"/>
<polygon fill="midnightblue" stroke="midnightblue" points="754.793,-69.3487 744.507,-71.8882 754.131,-76.3174 754.793,-69.3487"/>
</g>
<!-- Node7 -->
<g id="node7" class="node"><title>Node7</title>
<polygon fill="none" stroke="#bfbfbf" points="1385.5,-56.5 1385.5,-75.5 1448.5,-75.5 1448.5,-56.5 1385.5,-56.5"/>
<text text-anchor="middle" x="1417" y="-63.5" font-family="Helvetica,sans-Serif" font-size="10.00">windows.h</text>
</g>
<!-- Node4&#45;&gt;Node7 -->
<g id="edge6" class="edge"><title>Node4&#45;&gt;Node7</title>
<path fill="none" stroke="midnightblue" d="M1286.56,-112.444C1312.52,-103.399 1353.67,-89.064 1382.8,-78.9158"/>
<polygon fill="midnightblue" stroke="midnightblue" points="1384.26,-82.1116 1392.55,-75.5164 1381.96,-75.5013 1384.26,-82.1116"/>
</g>
<!-- Node8 -->
<g id="node8" class="node"><title>Node8</title>
<polygon fill="none" stroke="#bfbfbf" points="1466.5,-56.5 1466.5,-75.5 1519.5,-75.5 1519.5,-56.5 1466.5,-56.5"/>
<text text-anchor="middle" x="1493" y="-63.5" font-family="Helvetica,sans-Serif" font-size="10.00">wingdi.h</text>
</g>
<!-- Node4&#45;&gt;Node8 -->
<g id="edge7" class="edge"><title>Node4&#45;&gt;Node8</title>
<path fill="none" stroke="midnightblue" d="M1299.79,-112.492C1337.04,-104.06 1395.83,-90.625 1456.19,-76.1624"/>
<polygon fill="midnightblue" stroke="midnightblue" points="1457.37,-79.4773 1466.28,-73.7381 1455.74,-72.671 1457.37,-79.4773"/>
</g>
<!-- Node9 -->
<g id="node9" class="node"><title>Node9</title>
<polygon fill="none" stroke="#bfbfbf" points="1148.5,-56.5 1148.5,-75.5 1209.5,-75.5 1209.5,-56.5 1148.5,-56.5"/>
<text text-anchor="middle" x="1179" y="-63.5" font-family="Helvetica,sans-Serif" font-size="10.00">GL/glew.h</text>
</g>
<!-- Node4&#45;&gt;Node9 -->
<g id="edge8" class="edge"><title>Node4&#45;&gt;Node9</title>
<path fill="none" stroke="midnightblue" d="M1248.66,-112.324C1235.84,-103.979 1216.22,-91.2122 1201.06,-81.3524"/>
<polygon fill="midnightblue" stroke="midnightblue" points="1202.59,-78.1742 1192.3,-75.6545 1198.78,-84.0417 1202.59,-78.1742"/>
</g>
<!-- Node10 -->
<g id="node10" class="node"><title>Node10</title>
<polygon fill="none" stroke="#bfbfbf" points="1228,-56.5 1228,-75.5 1296,-75.5 1296,-56.5 1228,-56.5"/>
<text text-anchor="middle" x="1262" y="-63.5" font-family="Helvetica,sans-Serif" font-size="10.00">GL/wglew.h</text>
</g>
<!-- Node4&#45;&gt;Node10 -->
<g id="edge9" class="edge"><title>Node4&#45;&gt;Node10</title>
<path fill="none" stroke="midnightblue" d="M1262,-112.083C1262,-105.006 1262,-94.8611 1262,-85.9865"/>
<polygon fill="midnightblue" stroke="midnightblue" points="1265.5,-85.751 1262,-75.7511 1258.5,-85.7511 1265.5,-85.751"/>
</g>
<!-- Node11 -->
<g id="node11" class="node"><title>Node11</title>
<polygon fill="none" stroke="#bfbfbf" points="1314.5,-56.5 1314.5,-75.5 1367.5,-75.5 1367.5,-56.5 1314.5,-56.5"/>
<text text-anchor="middle" x="1341" y="-63.5" font-family="Helvetica,sans-Serif" font-size="10.00">GL/glu.h</text>
</g>
<!-- Node4&#45;&gt;Node11 -->
<g id="edge10" class="edge"><title>Node4&#45;&gt;Node11</title>
<path fill="none" stroke="midnightblue" d="M1274.69,-112.324C1286.9,-103.979 1305.58,-91.2122 1320,-81.3524"/>
<polygon fill="midnightblue" stroke="midnightblue" points="1322.06,-84.1871 1328.34,-75.6545 1318.11,-78.4082 1322.06,-84.1871"/>
</g>
<!-- Node5&#45;&gt;Node6 -->
<g id="edge5" class="edge"><title>Node5&#45;&gt;Node6</title>
<path fill="none" stroke="midnightblue" d="M693,-56.083C693,-49.0059 693,-38.8611 693,-29.9865"/>
<polygon fill="midnightblue" stroke="midnightblue" points="696.5,-29.751 693,-19.7511 689.5,-29.7511 696.5,-29.751"/>
</g>
<!-- Node12&#45;&gt;Node5 -->
<g id="edge13" class="edge"><title>Node12&#45;&gt;Node5</title>
<path fill="none" stroke="midnightblue" d="M390.967,-168.433C413.83,-154.742 461.01,-127.858 504,-112 545.798,-96.5815 594.777,-85.0942 632.4,-77.586"/>
<polygon fill="midnightblue" stroke="midnightblue" points="633.552,-80.9271 642.695,-75.5738 632.209,-74.0571 633.552,-80.9271"/>
</g>
<!-- Node13 -->
<g id="node13" class="node"><title>Node13</title>
<g id="a_node13"><a xlink:href="_ogre_render_target_8h.html" target="_top" xlink:title="OgreRenderTarget.h">
<polygon fill="none" stroke="red" points="324.5,-112.5 324.5,-131.5 429.5,-131.5 429.5,-112.5 324.5,-112.5"/>
<text text-anchor="middle" x="377" y="-119.5" font-family="Helvetica,sans-Serif" font-size="10.00">OgreRenderTarget.h</text>
</a>
</g>
</g>
<!-- Node12&#45;&gt;Node13 -->
<g id="edge14" class="edge"><title>Node12&#45;&gt;Node13</title>
<path fill="none" stroke="midnightblue" d="M377,-168.083C377,-161.006 377,-150.861 377,-141.986"/>
<polygon fill="midnightblue" stroke="midnightblue" points="380.5,-141.751 377,-131.751 373.5,-141.751 380.5,-141.751"/>
</g>
<!-- Node14 -->
<g id="node14" class="node"><title>Node14</title>
<g id="a_node14"><a xlink:href="_ogre_header_prefix_8h.html" target="_top" xlink:title="OgreHeaderPrefix.h">
<polygon fill="none" stroke="black" points="113.5,-56.5 113.5,-75.5 216.5,-75.5 216.5,-56.5 113.5,-56.5"/>
<text text-anchor="middle" x="165" y="-63.5" font-family="Helvetica,sans-Serif" font-size="10.00">OgreHeaderPrefix.h</text>
</a>
</g>
</g>
<!-- Node12&#45;&gt;Node14 -->
<g id="edge18" class="edge"><title>Node12&#45;&gt;Node14</title>
<path fill="none" stroke="midnightblue" d="M321.859,-174.909C256.659,-171.142 153.944,-160.7 130,-132 117.392,-116.887 132.504,-96.5167 146.616,-82.6342"/>
<polygon fill="midnightblue" stroke="midnightblue" points="149.195,-85.0172 154.171,-75.6638 144.448,-79.8723 149.195,-85.0172"/>
</g>
<!-- Node15 -->
<g id="node15" class="node"><title>Node15</title>
<g id="a_node15"><a xlink:href="_ogre_header_suffix_8h.html" target="_top" xlink:title="OgreHeaderSuffix.h">
<polygon fill="none" stroke="black" points="234.5,-56.5 234.5,-75.5 337.5,-75.5 337.5,-56.5 234.5,-56.5"/>
<text text-anchor="middle" x="286" y="-63.5" font-family="Helvetica,sans-Serif" font-size="10.00">OgreHeaderSuffix.h</text>
</a>
</g>
</g>
<!-- Node12&#45;&gt;Node15 -->
<g id="edge19" class="edge"><title>Node12&#45;&gt;Node15</title>
<path fill="none" stroke="midnightblue" d="M321.962,-174.53C258.786,-170.405 160.909,-159.625 138,-132 132.326,-125.158 132.707,-119.141 138,-112 148.926,-97.2579 190.359,-85.4321 226.616,-77.6098"/>
<polygon fill="midnightblue" stroke="midnightblue" points="227.601,-80.9796 236.675,-75.5105 226.171,-74.1272 227.601,-80.9796"/>
</g>
<!-- Node13&#45;&gt;Node5 -->
<g id="edge15" class="edge"><title>Node13&#45;&gt;Node5</title>
<path fill="none" stroke="midnightblue" d="M427.071,-112.444C483.006,-102.885 573.508,-87.4195 633.137,-77.2298"/>
<polygon fill="midnightblue" stroke="midnightblue" points="633.896,-80.6509 643.163,-75.5164 632.716,-73.751 633.896,-80.6509"/>
</g>
<!-- Node13&#45;&gt;Node14 -->
<g id="edge16" class="edge"><title>Node13&#45;&gt;Node14</title>
<path fill="none" stroke="midnightblue" d="M343.408,-112.444C306.813,-103.122 248.162,-88.1828 208.174,-77.9972"/>
<polygon fill="midnightblue" stroke="midnightblue" points="208.989,-74.5932 198.435,-75.5164 207.261,-81.3766 208.989,-74.5932"/>
</g>
<!-- Node13&#45;&gt;Node15 -->
<g id="edge17" class="edge"><title>Node13&#45;&gt;Node15</title>
<path fill="none" stroke="midnightblue" d="M362.379,-112.324C348.051,-103.822 325.987,-90.7288 309.251,-80.7975"/>
<polygon fill="midnightblue" stroke="midnightblue" points="310.97,-77.7478 300.584,-75.6545 307.398,-83.7677 310.97,-77.7478"/>
</g>
<!-- Node16&#45;&gt;Node5 -->
<g id="edge21" class="edge"><title>Node16&#45;&gt;Node5</title>
<path fill="none" stroke="midnightblue" d="M513.586,-168.357C508.854,-154.799 502.237,-128.391 515,-112 529.337,-93.587 585.507,-81.5155 630.965,-74.5551"/>
<polygon fill="midnightblue" stroke="midnightblue" points="631.69,-77.986 641.072,-73.0631 630.668,-71.0611 631.69,-77.986"/>
</g>
<!-- Node16&#45;&gt;Node14 -->
<g id="edge30" class="edge"><title>Node16&#45;&gt;Node14</title>
<path fill="none" stroke="midnightblue" d="M477.296,-172.329C394.745,-162.485 211.285,-139.869 200,-132 184.265,-121.027 174.965,-100.667 169.955,-85.6463"/>
<polygon fill="midnightblue" stroke="midnightblue" points="173.248,-84.4439 167.033,-75.8634 166.541,-86.4468 173.248,-84.4439"/>
</g>
<!-- Node16&#45;&gt;Node15 -->
<g id="edge33" class="edge"><title>Node16&#45;&gt;Node15</title>
<path fill="none" stroke="midnightblue" d="M477.408,-171.896C395.229,-161.212 213.374,-137.059 209,-132 191.063,-111.252 223.974,-91.5382 252.181,-79.3737"/>
<polygon fill="midnightblue" stroke="midnightblue" points="253.569,-82.5875 261.486,-75.5472 250.906,-76.1135 253.569,-82.5875"/>
</g>
<!-- Node17 -->
<g id="node17" class="node"><title>Node17</title>
<g id="a_node17"><a xlink:href="_ogre_hardware_buffer_8h.html" target="_top" xlink:title="OgreHardwareBuffer.h">
<polygon fill="none" stroke="red" points="524,-112.5 524,-131.5 638,-131.5 638,-112.5 524,-112.5"/>
<text text-anchor="middle" x="581" y="-119.5" font-family="Helvetica,sans-Serif" font-size="10.00">OgreHardwareBuffer.h</text>
</a>
</g>
</g>
<!-- Node16&#45;&gt;Node17 -->
<g id="edge22" class="edge"><title>Node16&#45;&gt;Node17</title>
<path fill="none" stroke="midnightblue" d="M527.283,-168.324C536.836,-160.263 551.28,-148.077 562.784,-138.369"/>
<polygon fill="midnightblue" stroke="midnightblue" points="565.144,-140.958 570.53,-131.834 560.63,-135.608 565.144,-140.958"/>
</g>
<!-- Node18 -->
<g id="node18" class="node"><title>Node18</title>
<g id="a_node18"><a xlink:href="_ogre_resource_8h.html" target="_top" xlink:title="OgreResource.h">
<polygon fill="none" stroke="red" points="218,-112.5 218,-131.5 306,-131.5 306,-112.5 218,-112.5"/>
<text text-anchor="middle" x="262" y="-119.5" font-family="Helvetica,sans-Serif" font-size="10.00">OgreResource.h</text>
</a>
</g>
</g>
<!-- Node16&#45;&gt;Node18 -->
<g id="edge24" class="edge"><title>Node16&#45;&gt;Node18</title>
<path fill="none" stroke="midnightblue" d="M477.436,-168.622C433.031,-159.218 360.881,-143.94 312.455,-133.685"/>
<polygon fill="midnightblue" stroke="midnightblue" points="313.008,-130.224 302.5,-131.577 311.558,-137.072 313.008,-130.224"/>
</g>
<!-- Node19 -->
<g id="node19" class="node"><title>Node19</title>
<g id="a_node19"><a xlink:href="_ogre_image_8h.html" target="_top" xlink:title="OgreImage.h">
<polygon fill="none" stroke="red" points="656.5,-112.5 656.5,-131.5 729.5,-131.5 729.5,-112.5 656.5,-112.5"/>
<text text-anchor="middle" x="693" y="-119.5" font-family="Helvetica,sans-Serif" font-size="10.00">OgreImage.h</text>
</a>
</g>
</g>
<!-- Node16&#45;&gt;Node19 -->
<g id="edge28" class="edge"><title>Node16&#45;&gt;Node19</title>
<path fill="none" stroke="midnightblue" d="M544.888,-168.444C574.754,-159.28 622.315,-144.688 655.456,-134.519"/>
<polygon fill="midnightblue" stroke="midnightblue" points="656.709,-137.796 665.243,-131.516 654.656,-131.104 656.709,-137.796"/>
</g>
<!-- Node20 -->
<g id="node20" class="node"><title>Node20</title>
<g id="a_node20"><a xlink:href="_ogre_shared_ptr_8h.html" target="_top" xlink:title="OgreSharedPtr.h">
<polygon fill="none" stroke="red" points="786.5,-112.5 786.5,-131.5 875.5,-131.5 875.5,-112.5 786.5,-112.5"/>
<text text-anchor="middle" x="831" y="-119.5" font-family="Helvetica,sans-Serif" font-size="10.00">OgreSharedPtr.h</text>
</a>
</g>
</g>
<!-- Node16&#45;&gt;Node20 -->
<g id="edge31" class="edge"><title>Node16&#45;&gt;Node20</title>
<path fill="none" stroke="midnightblue" d="M556.768,-170.161C612.341,-160.604 713.443,-143.217 776.142,-132.434"/>
<polygon fill="midnightblue" stroke="midnightblue" points="776.98,-135.842 786.242,-130.697 775.794,-128.943 776.98,-135.842"/>
</g>
<!-- Node17&#45;&gt;Node5 -->
<g id="edge23" class="edge"><title>Node17&#45;&gt;Node5</title>
<path fill="none" stroke="midnightblue" d="M598.995,-112.324C617.038,-103.625 645.047,-90.1202 665.803,-80.113"/>
<polygon fill="midnightblue" stroke="midnightblue" points="667.562,-83.1502 675.05,-75.6545 664.522,-76.8449 667.562,-83.1502"/>
</g>
<!-- Node18&#45;&gt;Node5 -->
<g id="edge25" class="edge"><title>Node18&#45;&gt;Node5</title>
<path fill="none" stroke="midnightblue" d="M306.221,-113.322C309.189,-112.859 312.136,-112.413 315,-112 426.044,-95.972 556.041,-81.4125 631.021,-73.4224"/>
<polygon fill="midnightblue" stroke="midnightblue" points="631.654,-76.875 641.229,-72.3391 630.915,-69.9141 631.654,-76.875"/>
</g>
<!-- Node18&#45;&gt;Node14 -->
<g id="edge26" class="edge"><title>Node18&#45;&gt;Node14</title>
<path fill="none" stroke="midnightblue" d="M246.415,-112.324C231.001,-103.743 207.188,-90.486 189.29,-80.5224"/>
<polygon fill="midnightblue" stroke="midnightblue" points="190.986,-77.4606 180.546,-75.6545 187.581,-83.5767 190.986,-77.4606"/>
</g>
<!-- Node18&#45;&gt;Node15 -->
<g id="edge27" class="edge"><title>Node18&#45;&gt;Node15</title>
<path fill="none" stroke="midnightblue" d="M265.963,-112.083C269.213,-104.77 273.919,-94.1814 277.954,-85.1034"/>
<polygon fill="midnightblue" stroke="midnightblue" points="281.248,-86.3107 282.111,-75.7511 274.851,-83.4677 281.248,-86.3107"/>
</g>
<!-- Node19&#45;&gt;Node5 -->
<g id="edge29" class="edge"><title>Node19&#45;&gt;Node5</title>
<path fill="none" stroke="midnightblue" d="M693,-112.083C693,-105.006 693,-94.8611 693,-85.9865"/>
<polygon fill="midnightblue" stroke="midnightblue" points="696.5,-85.751 693,-75.7511 689.5,-85.7511 696.5,-85.751"/>
</g>
<!-- Node20&#45;&gt;Node5 -->
<g id="edge32" class="edge"><title>Node20&#45;&gt;Node5</title>
<path fill="none" stroke="midnightblue" d="M809.133,-112.444C786.221,-103.478 750.025,-89.314 724.134,-79.1827"/>
<polygon fill="midnightblue" stroke="midnightblue" points="725.352,-75.9011 714.764,-75.5164 722.801,-82.4198 725.352,-75.9011"/>
</g>
<!-- Node21&#45;&gt;Node4 -->
<g id="edge35" class="edge"><title>Node21&#45;&gt;Node4</title>
<path fill="none" stroke="midnightblue" d="M1077.31,-226.088C1110.76,-219.697 1156.17,-208.065 1192,-188 1214.5,-175.402 1235.49,-154.129 1248.51,-139.366"/>
<polygon fill="midnightblue" stroke="midnightblue" points="1251.36,-141.416 1255.2,-131.542 1246.04,-136.866 1251.36,-141.416"/>
</g>
<!-- Node22 -->
<g id="node22" class="node"><title>Node22</title>
<g id="a_node22"><a xlink:href="_ogre_g_l_render_system_8h.html" target="_top" xlink:title="OgreGLRenderSystem.h">
<polygon fill="none" stroke="red" points="1059,-168.5 1059,-187.5 1183,-187.5 1183,-168.5 1059,-168.5"/>
<text text-anchor="middle" x="1121" y="-175.5" font-family="Helvetica,sans-Serif" font-size="10.00">OgreGLRenderSystem.h</text>
</a>
</g>
</g>
<!-- Node21&#45;&gt;Node22 -->
<g id="edge36" class="edge"><title>Node21&#45;&gt;Node22</title>
<path fill="none" stroke="midnightblue" d="M1045.46,-224.324C1059.5,-215.9 1081.05,-202.971 1097.54,-193.074"/>
<polygon fill="midnightblue" stroke="midnightblue" points="1099.8,-195.801 1106.58,-187.655 1096.2,-189.798 1099.8,-195.801"/>
</g>
<!-- Node23 -->
<g id="node23" class="node"><title>Node23</title>
<g id="a_node23"><a xlink:href="_ogre_render_window_8h.html" target="_top" xlink:title="OgreRenderWindow.h">
<polygon fill="none" stroke="black" points="750.5,-168.5 750.5,-187.5 863.5,-187.5 863.5,-168.5 750.5,-168.5"/>
<text text-anchor="middle" x="807" y="-175.5" font-family="Helvetica,sans-Serif" font-size="10.00">OgreRenderWindow.h</text>
</a>
</g>
</g>
<!-- Node21&#45;&gt;Node23 -->
<g id="edge39" class="edge"><title>Node21&#45;&gt;Node23</title>
<path fill="none" stroke="midnightblue" d="M995.507,-224.444C956.676,-215.083 894.344,-200.056 852.082,-189.868"/>
<polygon fill="midnightblue" stroke="midnightblue" points="852.869,-186.458 842.327,-187.516 851.229,-193.263 852.869,-186.458"/>
</g>
<!-- Node24 -->
<g id="node24" class="node"><title>Node24</title>
<g id="a_node24"><a xlink:href="_ogre_config_option_map_8h.html" target="_top" xlink:title="OgreConfigOptionMap.h">
<polygon fill="none" stroke="red" points="970,-112.5 970,-131.5 1092,-131.5 1092,-112.5 970,-112.5"/>
<text text-anchor="middle" x="1031" y="-119.5" font-family="Helvetica,sans-Serif" font-size="10.00">OgreConfigOptionMap.h</text>
</a>
</g>
</g>
<!-- Node21&#45;&gt;Node24 -->
<g id="edge42" class="edge"><title>Node21&#45;&gt;Node24</title>
<path fill="none" stroke="midnightblue" d="M1031,-224.368C1031,-206.617 1031,-165.666 1031,-141.597"/>
<polygon fill="midnightblue" stroke="midnightblue" points="1034.5,-141.591 1031,-131.591 1027.5,-141.591 1034.5,-141.591"/>
</g>
<!-- Node21&#45;&gt;Node25 -->
<g id="edge44" class="edge"><title>Node21&#45;&gt;Node25</title>
<path fill="none" stroke="midnightblue" d="M1071.25,-224.444C1115.65,-215.004 1187.15,-199.802 1235.09,-189.611"/>
<polygon fill="midnightblue" stroke="midnightblue" points="1235.89,-193.02 1244.94,-187.516 1234.43,-186.173 1235.89,-193.02"/>
</g>
<!-- Node26 -->
<g id="node26" class="node"><title>Node26</title>
<g id="a_node26"><a xlink:href="_ogre_g_l_native_support_8h.html" target="_top" xlink:title="OgreGLNativeSupport.h">
<polygon fill="none" stroke="red" points="881.5,-168.5 881.5,-187.5 1002.5,-187.5 1002.5,-168.5 881.5,-168.5"/>
<text text-anchor="middle" x="942" y="-175.5" font-family="Helvetica,sans-Serif" font-size="10.00">OgreGLNativeSupport.h</text>
</a>
</g>
</g>
<!-- Node21&#45;&gt;Node26 -->
<g id="edge45" class="edge"><title>Node21&#45;&gt;Node26</title>
<path fill="none" stroke="midnightblue" d="M1016.7,-224.324C1002.82,-215.9 981.508,-202.971 965.196,-193.074"/>
<polygon fill="midnightblue" stroke="midnightblue" points="966.629,-189.85 956.264,-187.655 962.998,-195.834 966.629,-189.85"/>
</g>
<!-- Node22&#45;&gt;Node4 -->
<g id="edge37" class="edge"><title>Node22&#45;&gt;Node4</title>
<path fill="none" stroke="midnightblue" d="M1143.34,-168.444C1166.75,-159.478 1203.74,-145.314 1230.19,-135.183"/>
<polygon fill="midnightblue" stroke="midnightblue" points="1231.68,-138.361 1239.76,-131.516 1229.17,-131.824 1231.68,-138.361"/>
</g>
<!-- Node22&#45;&gt;Node6 -->
<g id="edge38" class="edge"><title>Node22&#45;&gt;Node6</title>
<path fill="none" stroke="midnightblue" d="M1120.91,-168.463C1120.28,-154.565 1116.96,-127.089 1101,-112 1049.67,-63.4543 842.539,-30.5604 744.686,-17.4167"/>
<polygon fill="midnightblue" stroke="midnightblue" points="745.093,-13.9401 734.72,-16.0956 744.173,-20.8794 745.093,-13.9401"/>
</g>
<!-- Node23&#45;&gt;Node5 -->
<g id="edge40" class="edge"><title>Node23&#45;&gt;Node5</title>
<path fill="none" stroke="midnightblue" d="M841.086,-168.466C876.556,-157.954 924.195,-138.218 903,-112 884.601,-89.2411 809.804,-77.473 754.693,-71.7744"/>
<polygon fill="midnightblue" stroke="midnightblue" points="754.946,-68.2824 744.65,-70.7796 754.256,-75.2483 754.946,-68.2824"/>
</g>
<!-- Node23&#45;&gt;Node13 -->
<g id="edge41" class="edge"><title>Node23&#45;&gt;Node13</title>
<path fill="none" stroke="midnightblue" d="M750.481,-169.245C747.274,-168.82 744.096,-168.402 741,-168 635.527,-154.29 512.726,-139.313 440.112,-130.559"/>
<polygon fill="midnightblue" stroke="midnightblue" points="440.118,-127.035 429.771,-129.314 439.281,-133.984 440.118,-127.035"/>
</g>
<!-- Node24&#45;&gt;Node5 -->
<g id="edge43" class="edge"><title>Node24&#45;&gt;Node5</title>
<path fill="none" stroke="midnightblue" d="M977.443,-112.444C916.837,-102.761 818.289,-87.0166 754.562,-76.8353"/>
<polygon fill="midnightblue" stroke="midnightblue" points="755.071,-73.3723 744.644,-75.2508 753.966,-80.2847 755.071,-73.3723"/>
</g>
<!-- Node26&#45;&gt;Node24 -->
<g id="edge46" class="edge"><title>Node26&#45;&gt;Node24</title>
<path fill="none" stroke="midnightblue" d="M956.299,-168.324C970.183,-159.9 991.492,-146.971 1007.8,-137.074"/>
<polygon fill="midnightblue" stroke="midnightblue" points="1010,-139.834 1016.74,-131.655 1006.37,-133.85 1010,-139.834"/>
</g>
<!-- Node27&#45;&gt;Node5 -->
<g id="edge48" class="edge"><title>Node27&#45;&gt;Node5</title>
<path fill="none" stroke="midnightblue" d="M725.183,-168.498C786.714,-159.323 873.909,-144.364 884,-132 921.814,-85.6684 824.232,-72.225 755.035,-68.4096"/>
<polygon fill="midnightblue" stroke="midnightblue" points="754.785,-64.8931 744.624,-67.895 754.439,-71.8845 754.785,-64.8931"/>
</g>
<!-- Node27&#45;&gt;Node14 -->
<g id="edge52" class="edge"><title>Node27&#45;&gt;Node14</title>
<path fill="none" stroke="midnightblue" d="M595.643,-170.611C469.635,-158.783 213.113,-134.45 209,-132 191.116,-121.349 178.909,-100.267 171.971,-84.9935"/>
<polygon fill="midnightblue" stroke="midnightblue" points="175.104,-83.4126 168.005,-75.5474 168.649,-86.1226 175.104,-83.4126"/>
</g>
<!-- Node27&#45;&gt;Node15 -->
<g id="edge53" class="edge"><title>Node27&#45;&gt;Node15</title>
<path fill="none" stroke="midnightblue" d="M687.081,-168.46C715.648,-156.666 758.199,-134.31 738,-112 712.311,-83.6266 465.634,-72.4077 347.921,-68.6426"/>
<polygon fill="midnightblue" stroke="midnightblue" points="347.729,-65.135 337.625,-68.3218 347.511,-72.1316 347.729,-65.135"/>
</g>
<!-- Node27&#45;&gt;Node17 -->
<g id="edge49" class="edge"><title>Node27&#45;&gt;Node17</title>
<path fill="none" stroke="midnightblue" d="M650.665,-168.324C637.838,-159.979 618.215,-147.212 603.06,-137.352"/>
<polygon fill="midnightblue" stroke="midnightblue" points="604.593,-134.174 594.302,-131.655 600.776,-140.042 604.593,-134.174"/>
</g>
<!-- Node27&#45;&gt;Node19 -->
<g id="edge50" class="edge"><title>Node27&#45;&gt;Node19</title>
<path fill="none" stroke="midnightblue" d="M668.789,-168.083C672.758,-160.691 678.525,-149.953 683.435,-140.811"/>
<polygon fill="midnightblue" stroke="midnightblue" points="686.653,-142.217 688.3,-131.751 680.486,-138.905 686.653,-142.217"/>
</g>
<!-- Node27&#45;&gt;Node20 -->
<g id="edge51" class="edge"><title>Node27&#45;&gt;Node20</title>
<path fill="none" stroke="midnightblue" d="M690.462,-168.444C718.678,-159.32 763.54,-144.813 794.968,-134.651"/>
<polygon fill="midnightblue" stroke="midnightblue" points="796.224,-137.923 804.662,-131.516 794.07,-131.263 796.224,-137.923"/>
</g>
</g>
</svg>
