<?xml version="1.0" encoding="UTF-8" standalone="no"?>
<!DOCTYPE svg PUBLIC "-//W3C//DTD SVG 1.1//EN"
 "http://www.w3.org/Graphics/SVG/1.1/DTD/svg11.dtd">
<!-- Generated by graphviz version 2.38.0 (20140413.2041)
 -->
<!-- Title: OgreD3D11Plugin.h Pages: 1 -->
<svg width="1732pt" height="476pt"
 viewBox="0.00 0.00 1732.00 476.00" xmlns="http://www.w3.org/2000/svg" xmlns:xlink="http://www.w3.org/1999/xlink">
<g id="graph0" class="graph" transform="scale(1 1) rotate(0) translate(4 472)">
<title>OgreD3D11Plugin.h</title>
<!-- Node1 -->
<g id="node1" class="node"><title>Node1</title>
<polygon fill="#bfbfbf" stroke="black" points="463,-448.5 463,-467.5 567,-467.5 567,-448.5 463,-448.5"/>
<text text-anchor="middle" x="515" y="-455.5" font-family="Helvetica,sans-Serif" font-size="10.00">OgreD3D11Plugin.h</text>
</g>
<!-- Node2 -->
<g id="node2" class="node"><title>Node2</title>
<g id="a_node2"><a xlink:href="_ogre_plugin_8h.html" target="_top" xlink:title="OgrePlugin.h">
<polygon fill="none" stroke="black" points="322.5,-392.5 322.5,-411.5 395.5,-411.5 395.5,-392.5 322.5,-392.5"/>
<text text-anchor="middle" x="359" y="-399.5" font-family="Helvetica,sans-Serif" font-size="10.00">OgrePlugin.h</text>
</a>
</g>
</g>
<!-- Node1&#45;&gt;Node2 -->
<g id="edge1" class="edge"><title>Node1&#45;&gt;Node2</title>
<path fill="none" stroke="midnightblue" d="M490.281,-448.444C464.152,-439.399 422.741,-425.064 393.424,-414.916"/>
<polygon fill="midnightblue" stroke="midnightblue" points="394.198,-411.48 383.603,-411.516 391.908,-418.095 394.198,-411.48"/>
</g>
<!-- Node30 -->
<g id="node30" class="node"><title>Node30</title>
<g id="a_node30"><a xlink:href="_ogre_d3_d11_render_system_8h.html" target="_top" xlink:title="OgreD3D11RenderSystem.h">
<polygon fill="none" stroke="black" points="601,-392.5 601,-411.5 743,-411.5 743,-392.5 601,-392.5"/>
<text text-anchor="middle" x="672" y="-399.5" font-family="Helvetica,sans-Serif" font-size="10.00">OgreD3D11RenderSystem.h</text>
</a>
</g>
</g>
<!-- Node1&#45;&gt;Node30 -->
<g id="edge30" class="edge"><title>Node1&#45;&gt;Node30</title>
<path fill="none" stroke="midnightblue" d="M539.877,-448.444C566.289,-439.359 608.215,-424.939 637.742,-414.783"/>
<polygon fill="midnightblue" stroke="midnightblue" points="638.921,-418.079 647.239,-411.516 636.645,-411.459 638.921,-418.079"/>
</g>
<!-- Node3 -->
<g id="node3" class="node"><title>Node3</title>
<g id="a_node3"><a xlink:href="_ogre_prerequisites_8h.html" target="_top" xlink:title="OgrePrerequisites.h">
<polygon fill="none" stroke="black" points="706.5,-112.5 706.5,-131.5 809.5,-131.5 809.5,-112.5 706.5,-112.5"/>
<text text-anchor="middle" x="758" y="-119.5" font-family="Helvetica,sans-Serif" font-size="10.00">OgrePrerequisites.h</text>
</a>
</g>
</g>
<!-- Node2&#45;&gt;Node3 -->
<g id="edge2" class="edge"><title>Node2&#45;&gt;Node3</title>
<path fill="none" stroke="midnightblue" d="M322.441,-401.475C251.047,-400.293 100,-386.507 100,-291 100,-291 100,-291 100,-233 100,-174.676 158.287,-185.256 214,-168 302.51,-140.585 573.222,-128.796 696.134,-124.757"/>
<polygon fill="midnightblue" stroke="midnightblue" points="696.614,-128.243 706.496,-124.423 696.388,-121.247 696.614,-128.243"/>
</g>
<!-- Node4 -->
<g id="node4" class="node"><title>Node4</title>
<g id="a_node4"><a xlink:href="_ogre_platform_8h.html" target="_top" xlink:title="OgrePlatform.h">
<polygon fill="none" stroke="black" points="140.5,-56.5 140.5,-75.5 223.5,-75.5 223.5,-56.5 140.5,-56.5"/>
<text text-anchor="middle" x="182" y="-63.5" font-family="Helvetica,sans-Serif" font-size="10.00">OgrePlatform.h</text>
</a>
</g>
</g>
<!-- Node3&#45;&gt;Node4 -->
<g id="edge3" class="edge"><title>Node3&#45;&gt;Node4</title>
<path fill="none" stroke="midnightblue" d="M706.377,-116.16C597.102,-105.916 343.484,-82.1391 233.935,-71.8689"/>
<polygon fill="midnightblue" stroke="midnightblue" points="234.076,-68.3668 223.793,-70.9181 233.422,-75.3363 234.076,-68.3668"/>
</g>
<!-- Node6 -->
<g id="node6" class="node"><title>Node6</title>
<polygon fill="none" stroke="#bfbfbf" points="92.5,-0.5 92.5,-19.5 133.5,-19.5 133.5,-0.5 92.5,-0.5"/>
<text text-anchor="middle" x="113" y="-7.5" font-family="Helvetica,sans-Serif" font-size="10.00">string</text>
</g>
<!-- Node3&#45;&gt;Node6 -->
<g id="edge5" class="edge"><title>Node3&#45;&gt;Node6</title>
<path fill="none" stroke="midnightblue" d="M706.131,-114.775C601.33,-101.703 356.911,-68.7103 143.386,-19.8147"/>
<polygon fill="midnightblue" stroke="midnightblue" points="144.094,-16.3862 133.563,-17.549 142.521,-23.2071 144.094,-16.3862"/>
</g>
<!-- Node7 -->
<g id="node7" class="node"><title>Node7</title>
<g id="a_node7"><a xlink:href="_ogre_std_headers_8h.html" target="_top" xlink:title="OgreStdHeaders.h">
<polygon fill="none" stroke="red" points="709,-56.5 709,-75.5 807,-75.5 807,-56.5 709,-56.5"/>
<text text-anchor="middle" x="758" y="-63.5" font-family="Helvetica,sans-Serif" font-size="10.00">OgreStdHeaders.h</text>
</a>
</g>
</g>
<!-- Node3&#45;&gt;Node7 -->
<g id="edge6" class="edge"><title>Node3&#45;&gt;Node7</title>
<path fill="none" stroke="midnightblue" d="M758,-112.083C758,-105.006 758,-94.8611 758,-85.9865"/>
<polygon fill="midnightblue" stroke="midnightblue" points="761.5,-85.751 758,-75.7511 754.5,-85.7511 761.5,-85.751"/>
</g>
<!-- Node27 -->
<g id="node27" class="node"><title>Node27</title>
<g id="a_node27"><a xlink:href="_ogre_memory_allocator_config_8h.html" target="_top" xlink:title="This file configures Ogre&#39;s memory allocators. ">
<polygon fill="none" stroke="red" points="1168,-56.5 1168,-75.5 1316,-75.5 1316,-56.5 1168,-56.5"/>
<text text-anchor="middle" x="1242" y="-63.5" font-family="Helvetica,sans-Serif" font-size="10.00">OgreMemoryAllocatorConfig.h</text>
</a>
</g>
</g>
<!-- Node3&#45;&gt;Node27 -->
<g id="edge27" class="edge"><title>Node3&#45;&gt;Node27</title>
<path fill="none" stroke="midnightblue" d="M809.796,-115.221C893.022,-105.936 1057.33,-87.6039 1157.65,-76.4114"/>
<polygon fill="midnightblue" stroke="midnightblue" points="1158.2,-79.8715 1167.75,-75.2841 1157.42,-72.9146 1158.2,-79.8715"/>
</g>
<!-- Node5 -->
<g id="node5" class="node"><title>Node5</title>
<g id="a_node5"><a xlink:href="_ogre_config_8h.html" target="_top" xlink:title="OgreConfig.h">
<polygon fill="none" stroke="red" points="0,-0.5 0,-19.5 74,-19.5 74,-0.5 0,-0.5"/>
<text text-anchor="middle" x="37" y="-7.5" font-family="Helvetica,sans-Serif" font-size="10.00">OgreConfig.h</text>
</a>
</g>
</g>
<!-- Node4&#45;&gt;Node5 -->
<g id="edge4" class="edge"><title>Node4&#45;&gt;Node5</title>
<path fill="none" stroke="midnightblue" d="M159.024,-56.4435C134.843,-47.4381 96.5819,-33.1891 69.3539,-23.049"/>
<polygon fill="midnightblue" stroke="midnightblue" points="70.4609,-19.7265 59.8682,-19.5164 68.0179,-26.2864 70.4609,-19.7265"/>
</g>
<!-- Node7&#45;&gt;Node6 -->
<g id="edge16" class="edge"><title>Node7&#45;&gt;Node6</title>
<path fill="none" stroke="midnightblue" d="M708.907,-65.0276C605.66,-64.3084 358.564,-58.5007 143.409,-19.6141"/>
<polygon fill="midnightblue" stroke="midnightblue" points="143.979,-16.1604 133.512,-17.7976 142.716,-23.0454 143.979,-16.1604"/>
</g>
<!-- Node8 -->
<g id="node8" class="node"><title>Node8</title>
<polygon fill="none" stroke="#bfbfbf" points="493.5,-0.5 493.5,-19.5 542.5,-19.5 542.5,-0.5 493.5,-0.5"/>
<text text-anchor="middle" x="518" y="-7.5" font-family="Helvetica,sans-Serif" font-size="10.00">cassert</text>
</g>
<!-- Node7&#45;&gt;Node8 -->
<g id="edge7" class="edge"><title>Node7&#45;&gt;Node8</title>
<path fill="none" stroke="midnightblue" d="M715.431,-56.4232C675.608,-48.2485 614.246,-35.2675 552.705,-20.3341"/>
<polygon fill="midnightblue" stroke="midnightblue" points="553.375,-16.8949 542.83,-17.921 551.714,-23.6948 553.375,-16.8949"/>
</g>
<!-- Node9 -->
<g id="node9" class="node"><title>Node9</title>
<polygon fill="none" stroke="#bfbfbf" points="560.5,-0.5 560.5,-19.5 603.5,-19.5 603.5,-0.5 560.5,-0.5"/>
<text text-anchor="middle" x="582" y="-7.5" font-family="Helvetica,sans-Serif" font-size="10.00">cstdio</text>
</g>
<!-- Node7&#45;&gt;Node9 -->
<g id="edge8" class="edge"><title>Node7&#45;&gt;Node9</title>
<path fill="none" stroke="midnightblue" d="M730.112,-56.4435C698.314,-46.6872 646.456,-30.7764 613.301,-20.6036"/>
<polygon fill="midnightblue" stroke="midnightblue" points="614.241,-17.2311 603.654,-17.6439 612.188,-23.9232 614.241,-17.2311"/>
</g>
<!-- Node10 -->
<g id="node10" class="node"><title>Node10</title>
<polygon fill="none" stroke="#bfbfbf" points="621.5,-0.5 621.5,-19.5 666.5,-19.5 666.5,-0.5 621.5,-0.5"/>
<text text-anchor="middle" x="644" y="-7.5" font-family="Helvetica,sans-Serif" font-size="10.00">cstdlib</text>
</g>
<!-- Node7&#45;&gt;Node10 -->
<g id="edge9" class="edge"><title>Node7&#45;&gt;Node10</title>
<path fill="none" stroke="midnightblue" d="M739.936,-56.4435C721.425,-47.6751 692.419,-33.9355 671.145,-23.8579"/>
<polygon fill="midnightblue" stroke="midnightblue" points="672.515,-20.6343 661.979,-19.5164 669.518,-26.9604 672.515,-20.6343"/>
</g>
<!-- Node11 -->
<g id="node11" class="node"><title>Node11</title>
<polygon fill="none" stroke="#bfbfbf" points="684.5,-0.5 684.5,-19.5 725.5,-19.5 725.5,-0.5 684.5,-0.5"/>
<text text-anchor="middle" x="705" y="-7.5" font-family="Helvetica,sans-Serif" font-size="10.00">ctime</text>
</g>
<!-- Node7&#45;&gt;Node11 -->
<g id="edge10" class="edge"><title>Node7&#45;&gt;Node11</title>
<path fill="none" stroke="midnightblue" d="M749.248,-56.083C741.53,-48.2195 730.095,-36.5688 720.783,-27.0813"/>
<polygon fill="midnightblue" stroke="midnightblue" points="723.092,-24.4363 713.589,-19.7511 718.096,-29.3396 723.092,-24.4363"/>
</g>
<!-- Node12 -->
<g id="node12" class="node"><title>Node12</title>
<polygon fill="none" stroke="#bfbfbf" points="744,-0.5 744,-19.5 790,-19.5 790,-0.5 744,-0.5"/>
<text text-anchor="middle" x="767" y="-7.5" font-family="Helvetica,sans-Serif" font-size="10.00">cstring</text>
</g>
<!-- Node7&#45;&gt;Node12 -->
<g id="edge11" class="edge"><title>Node7&#45;&gt;Node12</title>
<path fill="none" stroke="midnightblue" d="M759.486,-56.083C760.679,-48.9272 762.394,-38.6353 763.885,-29.6911"/>
<polygon fill="midnightblue" stroke="midnightblue" points="767.35,-30.1904 765.541,-19.7511 760.445,-29.0396 767.35,-30.1904"/>
</g>
<!-- Node13 -->
<g id="node13" class="node"><title>Node13</title>
<polygon fill="none" stroke="#bfbfbf" points="808.5,-0.5 808.5,-19.5 857.5,-19.5 857.5,-0.5 808.5,-0.5"/>
<text text-anchor="middle" x="833" y="-7.5" font-family="Helvetica,sans-Serif" font-size="10.00">cstdarg</text>
</g>
<!-- Node7&#45;&gt;Node13 -->
<g id="edge12" class="edge"><title>Node7&#45;&gt;Node13</title>
<path fill="none" stroke="midnightblue" d="M770.05,-56.324C781.463,-48.1066 798.831,-35.6017 812.435,-25.8069"/>
<polygon fill="midnightblue" stroke="midnightblue" points="814.66,-28.5174 820.731,-19.8339 810.57,-22.8366 814.66,-28.5174"/>
</g>
<!-- Node14 -->
<g id="node14" class="node"><title>Node14</title>
<polygon fill="none" stroke="#bfbfbf" points="876,-0.5 876,-19.5 920,-19.5 920,-0.5 876,-0.5"/>
<text text-anchor="middle" x="898" y="-7.5" font-family="Helvetica,sans-Serif" font-size="10.00">cmath</text>
</g>
<!-- Node7&#45;&gt;Node14 -->
<g id="edge13" class="edge"><title>Node7&#45;&gt;Node14</title>
<path fill="none" stroke="midnightblue" d="M780.183,-56.4435C803.428,-47.4776 840.149,-33.314 866.415,-23.1827"/>
<polygon fill="midnightblue" stroke="midnightblue" points="867.85,-26.3807 875.92,-19.5164 865.331,-19.8497 867.85,-26.3807"/>
</g>
<!-- Node15 -->
<g id="node15" class="node"><title>Node15</title>
<polygon fill="none" stroke="#bfbfbf" points="938,-0.5 938,-19.5 982,-19.5 982,-0.5 938,-0.5"/>
<text text-anchor="middle" x="960" y="-7.5" font-family="Helvetica,sans-Serif" font-size="10.00">vector</text>
</g>
<!-- Node7&#45;&gt;Node15 -->
<g id="edge14" class="edge"><title>Node7&#45;&gt;Node15</title>
<path fill="none" stroke="midnightblue" d="M791.489,-56.4535C823.989,-48.1005 874.95,-34.8487 927.785,-20.2893"/>
<polygon fill="midnightblue" stroke="midnightblue" points="928.963,-23.595 937.668,-17.5564 927.097,-16.8482 928.963,-23.595"/>
</g>
<!-- Node16 -->
<g id="node16" class="node"><title>Node16</title>
<polygon fill="none" stroke="#bfbfbf" points="1000.5,-0.5 1000.5,-19.5 1035.5,-19.5 1035.5,-0.5 1000.5,-0.5"/>
<text text-anchor="middle" x="1018" y="-7.5" font-family="Helvetica,sans-Serif" font-size="10.00">map</text>
</g>
<!-- Node7&#45;&gt;Node16 -->
<g id="edge15" class="edge"><title>Node7&#45;&gt;Node16</title>
<path fill="none" stroke="midnightblue" d="M807.061,-57.4454C852.372,-50.0382 921.66,-37.626 990.65,-19.7934"/>
<polygon fill="midnightblue" stroke="midnightblue" points="991.596,-23.1639 1000.38,-17.2411 989.82,-16.3929 991.596,-23.1639"/>
</g>
<!-- Node17 -->
<g id="node17" class="node"><title>Node17</title>
<polygon fill="none" stroke="#bfbfbf" points="1054,-0.5 1054,-19.5 1084,-19.5 1084,-0.5 1054,-0.5"/>
<text text-anchor="middle" x="1069" y="-7.5" font-family="Helvetica,sans-Serif" font-size="10.00">set</text>
</g>
<!-- Node7&#45;&gt;Node17 -->
<g id="edge17" class="edge"><title>Node7&#45;&gt;Node17</title>
<path fill="none" stroke="midnightblue" d="M807.153,-60.1329C864.592,-53.7883 962.199,-40.9577 1044,-20 1044.1,-19.9742 1044.2,-19.9482 1044.3,-19.922"/>
<polygon fill="midnightblue" stroke="midnightblue" points="1045.28,-23.2818 1053.81,-16.9872 1043.22,-16.5934 1045.28,-23.2818"/>
</g>
<!-- Node18 -->
<g id="node18" class="node"><title>Node18</title>
<polygon fill="none" stroke="#bfbfbf" points="1102.5,-0.5 1102.5,-19.5 1131.5,-19.5 1131.5,-0.5 1102.5,-0.5"/>
<text text-anchor="middle" x="1117" y="-7.5" font-family="Helvetica,sans-Serif" font-size="10.00">list</text>
</g>
<!-- Node7&#45;&gt;Node18 -->
<g id="edge18" class="edge"><title>Node7&#45;&gt;Node18</title>
<path fill="none" stroke="midnightblue" d="M807.195,-61.8725C871.09,-57.0481 986.033,-45.7698 1092.5,-19.5539"/>
<polygon fill="midnightblue" stroke="midnightblue" points="1093.6,-22.8866 1102.44,-17.0547 1091.89,-16.0977 1093.6,-22.8866"/>
</g>
<!-- Node19 -->
<g id="node19" class="node"><title>Node19</title>
<polygon fill="none" stroke="#bfbfbf" points="1149.5,-0.5 1149.5,-19.5 1192.5,-19.5 1192.5,-0.5 1149.5,-0.5"/>
<text text-anchor="middle" x="1171" y="-7.5" font-family="Helvetica,sans-Serif" font-size="10.00">deque</text>
</g>
<!-- Node7&#45;&gt;Node19 -->
<g id="edge19" class="edge"><title>Node7&#45;&gt;Node19</title>
<path fill="none" stroke="midnightblue" d="M807.254,-61.8122C878.485,-56.6297 1014.45,-44.5926 1139.32,-19.7979"/>
<polygon fill="midnightblue" stroke="midnightblue" points="1140.32,-23.165 1149.43,-17.7553 1138.94,-16.3034 1140.32,-23.165"/>
</g>
<!-- Node20 -->
<g id="node20" class="node"><title>Node20</title>
<polygon fill="none" stroke="#bfbfbf" points="1210.5,-0.5 1210.5,-19.5 1253.5,-19.5 1253.5,-0.5 1210.5,-0.5"/>
<text text-anchor="middle" x="1232" y="-7.5" font-family="Helvetica,sans-Serif" font-size="10.00">queue</text>
</g>
<!-- Node7&#45;&gt;Node20 -->
<g id="edge20" class="edge"><title>Node7&#45;&gt;Node20</title>
<path fill="none" stroke="midnightblue" d="M807.261,-62.9141C887.649,-58.8754 1052.06,-47.9649 1200.25,-19.7714"/>
<polygon fill="midnightblue" stroke="midnightblue" points="1201.29,-23.1361 1210.44,-17.8005 1199.96,-16.2636 1201.29,-23.1361"/>
</g>
<!-- Node21 -->
<g id="node21" class="node"><title>Node21</title>
<polygon fill="none" stroke="#bfbfbf" points="1271.5,-0.5 1271.5,-19.5 1312.5,-19.5 1312.5,-0.5 1271.5,-0.5"/>
<text text-anchor="middle" x="1292" y="-7.5" font-family="Helvetica,sans-Serif" font-size="10.00">bitset</text>
</g>
<!-- Node7&#45;&gt;Node21 -->
<g id="edge21" class="edge"><title>Node7&#45;&gt;Node21</title>
<path fill="none" stroke="midnightblue" d="M807.11,-63.9068C896.051,-61.2148 1089.68,-52.0871 1261.5,-19.6676"/>
<polygon fill="midnightblue" stroke="midnightblue" points="1262.32,-23.0743 1271.48,-17.7531 1261,-16.1997 1262.32,-23.0743"/>
</g>
<!-- Node22 -->
<g id="node22" class="node"><title>Node22</title>
<polygon fill="none" stroke="#bfbfbf" points="152,-0.5 152,-19.5 208,-19.5 208,-0.5 152,-0.5"/>
<text text-anchor="middle" x="180" y="-7.5" font-family="Helvetica,sans-Serif" font-size="10.00">algorithm</text>
</g>
<!-- Node7&#45;&gt;Node22 -->
<g id="edge22" class="edge"><title>Node7&#45;&gt;Node22</title>
<path fill="none" stroke="midnightblue" d="M708.827,-63.4705C615.101,-60.0009 404.363,-49.5376 218.16,-19.9427"/>
<polygon fill="midnightblue" stroke="midnightblue" points="218.619,-16.4715 208.189,-18.3356 217.505,-23.3824 218.619,-16.4715"/>
</g>
<!-- Node23 -->
<g id="node23" class="node"><title>Node23</title>
<polygon fill="none" stroke="#bfbfbf" points="226.5,-0.5 226.5,-19.5 285.5,-19.5 285.5,-0.5 226.5,-0.5"/>
<text text-anchor="middle" x="256" y="-7.5" font-family="Helvetica,sans-Serif" font-size="10.00">functional</text>
</g>
<!-- Node7&#45;&gt;Node23 -->
<g id="edge23" class="edge"><title>Node7&#45;&gt;Node23</title>
<path fill="none" stroke="midnightblue" d="M708.731,-62.3199C625.652,-57.3414 452.302,-44.9794 296.001,-19.9474"/>
<polygon fill="midnightblue" stroke="midnightblue" points="296.163,-16.4279 285.732,-18.2802 295.041,-23.3375 296.163,-16.4279"/>
</g>
<!-- Node24 -->
<g id="node24" class="node"><title>Node24</title>
<polygon fill="none" stroke="#bfbfbf" points="304,-0.5 304,-19.5 344,-19.5 344,-0.5 304,-0.5"/>
<text text-anchor="middle" x="324" y="-7.5" font-family="Helvetica,sans-Serif" font-size="10.00">limits</text>
</g>
<!-- Node7&#45;&gt;Node24 -->
<g id="edge24" class="edge"><title>Node7&#45;&gt;Node24</title>
<path fill="none" stroke="midnightblue" d="M708.9,-62.5628C634.104,-58.1918 487.133,-47.018 354.112,-19.8609"/>
<polygon fill="midnightblue" stroke="midnightblue" points="354.656,-16.3992 344.153,-17.7919 353.232,-23.2529 354.656,-16.3992"/>
</g>
<!-- Node25 -->
<g id="node25" class="node"><title>Node25</title>
<polygon fill="none" stroke="#bfbfbf" points="362,-0.5 362,-19.5 412,-19.5 412,-0.5 362,-0.5"/>
<text text-anchor="middle" x="387" y="-7.5" font-family="Helvetica,sans-Serif" font-size="10.00">fstream</text>
</g>
<!-- Node7&#45;&gt;Node25 -->
<g id="edge25" class="edge"><title>Node7&#45;&gt;Node25</title>
<path fill="none" stroke="midnightblue" d="M708.849,-60.3984C644.938,-53.9824 529.712,-40.9415 422.212,-20.0226"/>
<polygon fill="midnightblue" stroke="midnightblue" points="422.657,-16.543 412.169,-18.0404 421.302,-23.4105 422.657,-16.543"/>
</g>
<!-- Node26 -->
<g id="node26" class="node"><title>Node26</title>
<polygon fill="none" stroke="#bfbfbf" points="430.5,-0.5 430.5,-19.5 475.5,-19.5 475.5,-0.5 430.5,-0.5"/>
<text text-anchor="middle" x="453" y="-7.5" font-family="Helvetica,sans-Serif" font-size="10.00">iosfwd</text>
</g>
<!-- Node7&#45;&gt;Node26 -->
<g id="edge26" class="edge"><title>Node7&#45;&gt;Node26</title>
<path fill="none" stroke="midnightblue" d="M708.906,-58.744C655.907,-51.5887 568.875,-38.6766 485.491,-20.1314"/>
<polygon fill="midnightblue" stroke="midnightblue" points="486.13,-16.6879 475.605,-17.9021 484.59,-23.5164 486.13,-16.6879"/>
</g>
<!-- Node28 -->
<g id="node28" class="node"><title>Node28</title>
<g id="a_node28"><a xlink:href="_ogre_header_prefix_8h.html" target="_top" xlink:title="OgreHeaderPrefix.h">
<polygon fill="none" stroke="black" points="1330.5,-0.5 1330.5,-19.5 1433.5,-19.5 1433.5,-0.5 1330.5,-0.5"/>
<text text-anchor="middle" x="1382" y="-7.5" font-family="Helvetica,sans-Serif" font-size="10.00">OgreHeaderPrefix.h</text>
</a>
</g>
</g>
<!-- Node27&#45;&gt;Node28 -->
<g id="edge28" class="edge"><title>Node27&#45;&gt;Node28</title>
<path fill="none" stroke="midnightblue" d="M1264.18,-56.4435C1287.43,-47.4776 1324.15,-33.314 1350.42,-23.1827"/>
<polygon fill="midnightblue" stroke="midnightblue" points="1351.85,-26.3807 1359.92,-19.5164 1349.33,-19.8497 1351.85,-26.3807"/>
</g>
<!-- Node29 -->
<g id="node29" class="node"><title>Node29</title>
<g id="a_node29"><a xlink:href="_ogre_header_suffix_8h.html" target="_top" xlink:title="OgreHeaderSuffix.h">
<polygon fill="none" stroke="black" points="1520.5,-0.5 1520.5,-19.5 1623.5,-19.5 1623.5,-0.5 1520.5,-0.5"/>
<text text-anchor="middle" x="1572" y="-7.5" font-family="Helvetica,sans-Serif" font-size="10.00">OgreHeaderSuffix.h</text>
</a>
</g>
</g>
<!-- Node27&#45;&gt;Node29 -->
<g id="edge29" class="edge"><title>Node27&#45;&gt;Node29</title>
<path fill="none" stroke="midnightblue" d="M1294.29,-56.4435C1352.99,-46.8372 1448.16,-31.2643 1510.42,-21.0769"/>
<polygon fill="midnightblue" stroke="midnightblue" points="1511.19,-24.4966 1520.5,-19.4275 1510.06,-17.5884 1511.19,-24.4966"/>
</g>
<!-- Node31 -->
<g id="node31" class="node"><title>Node31</title>
<g id="a_node31"><a xlink:href="_ogre_d3_d11_prerequisites_8h.html" target="_top" xlink:title="OgreD3D11Prerequisites.h">
<polygon fill="none" stroke="black" points="387,-280.5 387,-299.5 521,-299.5 521,-280.5 387,-280.5"/>
<text text-anchor="middle" x="454" y="-287.5" font-family="Helvetica,sans-Serif" font-size="10.00">OgreD3D11Prerequisites.h</text>
</a>
</g>
</g>
<!-- Node30&#45;&gt;Node31 -->
<g id="edge31" class="edge"><title>Node30&#45;&gt;Node31</title>
<path fill="none" stroke="midnightblue" d="M600.748,-399.742C526.534,-396.745 417.445,-387.017 391,-356 375.068,-337.313 402.057,-317.222 425.506,-304.403"/>
<polygon fill="midnightblue" stroke="midnightblue" points="427.29,-307.42 434.548,-299.702 424.061,-301.209 427.29,-307.42"/>
</g>
<!-- Node37 -->
<g id="node37" class="node"><title>Node37</title>
<g id="a_node37"><a xlink:href="_ogre_render_system_8h.html" target="_top" xlink:title="OgreRenderSystem.h">
<polygon fill="none" stroke="black" points="1049.5,-280.5 1049.5,-299.5 1160.5,-299.5 1160.5,-280.5 1049.5,-280.5"/>
<text text-anchor="middle" x="1105" y="-287.5" font-family="Helvetica,sans-Serif" font-size="10.00">OgreRenderSystem.h</text>
</a>
</g>
</g>
<!-- Node30&#45;&gt;Node37 -->
<g id="edge39" class="edge"><title>Node30&#45;&gt;Node37</title>
<path fill="none" stroke="midnightblue" d="M743.125,-393.271C797.877,-386.324 875.086,-374.352 941,-356 990.466,-342.227 1045.48,-318.615 1077.56,-303.959"/>
<polygon fill="midnightblue" stroke="midnightblue" points="1079.14,-307.087 1086.75,-299.719 1076.2,-300.731 1079.14,-307.087"/>
</g>
<!-- Node46 -->
<g id="node46" class="node"><title>Node46</title>
<g id="a_node46"><a xlink:href="_ogre_d3_d11_device_8h.html" target="_top" xlink:title="OgreD3D11Device.h">
<polygon fill="none" stroke="black" points="400.5,-336.5 400.5,-355.5 507.5,-355.5 507.5,-336.5 400.5,-336.5"/>
<text text-anchor="middle" x="454" y="-343.5" font-family="Helvetica,sans-Serif" font-size="10.00">OgreD3D11Device.h</text>
</a>
</g>
</g>
<!-- Node30&#45;&gt;Node46 -->
<g id="edge70" class="edge"><title>Node30&#45;&gt;Node46</title>
<path fill="none" stroke="midnightblue" d="M637.457,-392.444C599.747,-383.102 539.26,-368.119 498.135,-357.933"/>
<polygon fill="midnightblue" stroke="midnightblue" points="498.929,-354.524 488.381,-355.516 497.246,-361.318 498.929,-354.524"/>
</g>
<!-- Node47 -->
<g id="node47" class="node"><title>Node47</title>
<g id="a_node47"><a xlink:href="_ogre_d3_d11_device_resource_8h.html" target="_top" xlink:title="OgreD3D11DeviceResource.h">
<polygon fill="none" stroke="black" points="525.5,-336.5 525.5,-355.5 674.5,-355.5 674.5,-336.5 525.5,-336.5"/>
<text text-anchor="middle" x="600" y="-343.5" font-family="Helvetica,sans-Serif" font-size="10.00">OgreD3D11DeviceResource.h</text>
</a>
</g>
</g>
<!-- Node30&#45;&gt;Node47 -->
<g id="edge72" class="edge"><title>Node30&#45;&gt;Node47</title>
<path fill="none" stroke="midnightblue" d="M660.432,-392.324C649.58,-384.185 633.119,-371.839 620.117,-362.087"/>
<polygon fill="midnightblue" stroke="midnightblue" points="621.879,-359.034 611.779,-355.834 617.679,-364.634 621.879,-359.034"/>
</g>
<!-- Node48 -->
<g id="node48" class="node"><title>Node48</title>
<g id="a_node48"><a xlink:href="_ogre_d3_d11_driver_8h.html" target="_top" xlink:title="OgreD3D11Driver.h">
<polygon fill="none" stroke="black" points="692.5,-336.5 692.5,-355.5 795.5,-355.5 795.5,-336.5 692.5,-336.5"/>
<text text-anchor="middle" x="744" y="-343.5" font-family="Helvetica,sans-Serif" font-size="10.00">OgreD3D11Driver.h</text>
</a>
</g>
</g>
<!-- Node30&#45;&gt;Node48 -->
<g id="edge74" class="edge"><title>Node30&#45;&gt;Node48</title>
<path fill="none" stroke="midnightblue" d="M683.568,-392.324C694.42,-384.185 710.881,-371.839 723.883,-362.087"/>
<polygon fill="midnightblue" stroke="midnightblue" points="726.321,-364.634 732.221,-355.834 722.121,-359.034 726.321,-364.634"/>
</g>
<!-- Node49 -->
<g id="node49" class="node"><title>Node49</title>
<g id="a_node49"><a xlink:href="_ogre_d3_d11_mappings_8h.html" target="_top" xlink:title="OgreD3D11Mappings.h">
<polygon fill="none" stroke="black" points="813.5,-336.5 813.5,-355.5 932.5,-355.5 932.5,-336.5 813.5,-336.5"/>
<text text-anchor="middle" x="873" y="-343.5" font-family="Helvetica,sans-Serif" font-size="10.00">OgreD3D11Mappings.h</text>
</a>
</g>
</g>
<!-- Node30&#45;&gt;Node49 -->
<g id="edge77" class="edge"><title>Node30&#45;&gt;Node49</title>
<path fill="none" stroke="midnightblue" d="M698.76,-392.444C731.412,-383.122 786.862,-368.183 826.505,-357.997"/>
<polygon fill="midnightblue" stroke="midnightblue" points="827.397,-361.382 836.22,-355.516 825.665,-354.6 827.397,-361.382"/>
</g>
<!-- Node31&#45;&gt;Node3 -->
<g id="edge32" class="edge"><title>Node31&#45;&gt;Node3</title>
<path fill="none" stroke="midnightblue" d="M386.786,-288.584C308.463,-286.504 186.029,-277.759 157,-244 151.204,-237.26 151.259,-230.786 157,-224 225.666,-142.832 556.911,-126.859 696.146,-123.743"/>
<polygon fill="midnightblue" stroke="midnightblue" points="696.307,-127.24 706.231,-123.532 696.161,-120.242 696.307,-127.24"/>
</g>
<!-- Node32 -->
<g id="node32" class="node"><title>Node32</title>
<g id="a_node32"><a xlink:href="_ogre_min_g_w_support_8h.html" target="_top" xlink:title="WIN32/OgreMinGWSupport.h">
<polygon fill="none" stroke="black" points="166,-224.5 166,-243.5 312,-243.5 312,-224.5 166,-224.5"/>
<text text-anchor="middle" x="239" y="-231.5" font-family="Helvetica,sans-Serif" font-size="10.00">WIN32/OgreMinGWSupport.h</text>
</a>
</g>
</g>
<!-- Node31&#45;&gt;Node32 -->
<g id="edge33" class="edge"><title>Node31&#45;&gt;Node32</title>
<path fill="none" stroke="midnightblue" d="M419.933,-280.444C382.82,-271.122 323.339,-256.183 282.785,-245.997"/>
<polygon fill="midnightblue" stroke="midnightblue" points="283.459,-242.558 272.908,-243.516 281.754,-249.347 283.459,-242.558"/>
</g>
<!-- Node33 -->
<g id="node33" class="node"><title>Node33</title>
<g id="a_node33"><a xlink:href="_ogre_com_ptr_8h.html" target="_top" xlink:title="WIN32/OgreComPtr.h">
<polygon fill="none" stroke="red" points="514.5,-168.5 514.5,-187.5 627.5,-187.5 627.5,-168.5 514.5,-168.5"/>
<text text-anchor="middle" x="571" y="-175.5" font-family="Helvetica,sans-Serif" font-size="10.00">WIN32/OgreComPtr.h</text>
</a>
</g>
</g>
<!-- Node31&#45;&gt;Node33 -->
<g id="edge34" class="edge"><title>Node31&#45;&gt;Node33</title>
<path fill="none" stroke="midnightblue" d="M521.145,-285.294C549.935,-279.964 581.021,-268.404 599,-244 609.984,-229.09 598.329,-209.206 586.885,-195.373"/>
<polygon fill="midnightblue" stroke="midnightblue" points="589.258,-192.776 579.991,-187.641 584.033,-197.434 589.258,-192.776"/>
</g>
<!-- Node34 -->
<g id="node34" class="node"><title>Node34</title>
<polygon fill="none" stroke="#bfbfbf" points="330,-224.5 330,-243.5 392,-243.5 392,-224.5 330,-224.5"/>
<text text-anchor="middle" x="361" y="-231.5" font-family="Helvetica,sans-Serif" font-size="10.00">d3d11_1.h</text>
</g>
<!-- Node31&#45;&gt;Node34 -->
<g id="edge36" class="edge"><title>Node31&#45;&gt;Node34</title>
<path fill="none" stroke="midnightblue" d="M439.058,-280.324C424.415,-271.822 401.866,-258.729 384.762,-248.797"/>
<polygon fill="midnightblue" stroke="midnightblue" points="386.31,-245.649 375.905,-243.655 382.795,-251.703 386.31,-245.649"/>
</g>
<!-- Node35 -->
<g id="node35" class="node"><title>Node35</title>
<polygon fill="none" stroke="#bfbfbf" points="410,-224.5 410,-243.5 490,-243.5 490,-224.5 410,-224.5"/>
<text text-anchor="middle" x="450" y="-231.5" font-family="Helvetica,sans-Serif" font-size="10.00">d3d11shader.h</text>
</g>
<!-- Node31&#45;&gt;Node35 -->
<g id="edge37" class="edge"><title>Node31&#45;&gt;Node35</title>
<path fill="none" stroke="midnightblue" d="M453.339,-280.083C452.815,-273.006 452.064,-262.861 451.406,-253.986"/>
<polygon fill="midnightblue" stroke="midnightblue" points="454.877,-253.465 450.648,-243.751 447.897,-253.982 454.877,-253.465"/>
</g>
<!-- Node36 -->
<g id="node36" class="node"><title>Node36</title>
<polygon fill="none" stroke="#bfbfbf" points="508,-224.5 508,-243.5 590,-243.5 590,-224.5 508,-224.5"/>
<text text-anchor="middle" x="549" y="-231.5" font-family="Helvetica,sans-Serif" font-size="10.00">D3Dcompiler.h</text>
</g>
<!-- Node31&#45;&gt;Node36 -->
<g id="edge38" class="edge"><title>Node31&#45;&gt;Node36</title>
<path fill="none" stroke="midnightblue" d="M469.263,-280.324C484.221,-271.822 507.255,-258.729 524.727,-248.797"/>
<polygon fill="midnightblue" stroke="midnightblue" points="526.81,-251.639 533.774,-243.655 523.351,-245.553 526.81,-251.639"/>
</g>
<!-- Node33&#45;&gt;Node3 -->
<g id="edge35" class="edge"><title>Node33&#45;&gt;Node3</title>
<path fill="none" stroke="midnightblue" d="M600.631,-168.444C632.5,-159.241 683.333,-144.562 718.564,-134.388"/>
<polygon fill="midnightblue" stroke="midnightblue" points="719.872,-137.653 728.508,-131.516 717.929,-130.928 719.872,-137.653"/>
</g>
<!-- Node37&#45;&gt;Node3 -->
<g id="edge40" class="edge"><title>Node37&#45;&gt;Node3</title>
<path fill="none" stroke="midnightblue" d="M1049.43,-283.428C950.673,-272.2 751.329,-243.095 713,-188 701.052,-170.826 719.287,-151.059 735.996,-137.876"/>
<polygon fill="midnightblue" stroke="midnightblue" points="738.475,-140.395 744.428,-131.63 734.309,-134.77 738.475,-140.395"/>
</g>
<!-- Node37&#45;&gt;Node28 -->
<g id="edge68" class="edge"><title>Node37&#45;&gt;Node28</title>
<path fill="none" stroke="midnightblue" d="M1156.41,-280.455C1182.1,-274.017 1212.26,-262.919 1234,-244 1262.64,-219.076 1253.46,-200.554 1273,-168 1304.89,-114.856 1348.27,-55.6823 1369.4,-27.5697"/>
<polygon fill="midnightblue" stroke="midnightblue" points="1372.2,-29.6697 1375.43,-19.5806 1366.61,-25.4506 1372.2,-29.6697"/>
</g>
<!-- Node37&#45;&gt;Node29 -->
<g id="edge69" class="edge"><title>Node37&#45;&gt;Node29</title>
<path fill="none" stroke="midnightblue" d="M1160.75,-284.942C1312.9,-273.124 1724,-235.928 1724,-179 1724,-179 1724,-179 1724,-121 1724,-67.4368 1661.29,-37.2997 1616.43,-22.5935"/>
<polygon fill="midnightblue" stroke="midnightblue" points="1617.46,-19.2497 1606.87,-19.6023 1615.37,-25.9301 1617.46,-19.2497"/>
</g>
<!-- Node38 -->
<g id="node38" class="node"><title>Node38</title>
<g id="a_node38"><a xlink:href="_ogre_texture_unit_state_8h.html" target="_top" xlink:title="OgreTextureUnitState.h">
<polygon fill="none" stroke="red" points="1282,-168.5 1282,-187.5 1402,-187.5 1402,-168.5 1282,-168.5"/>
<text text-anchor="middle" x="1342" y="-175.5" font-family="Helvetica,sans-Serif" font-size="10.00">OgreTextureUnitState.h</text>
</a>
</g>
</g>
<!-- Node37&#45;&gt;Node38 -->
<g id="edge41" class="edge"><title>Node37&#45;&gt;Node38</title>
<path fill="none" stroke="midnightblue" d="M1159.05,-280.436C1191.95,-273.712 1234.03,-262.34 1268,-244 1291.61,-231.251 1314.09,-209.705 1327.94,-194.94"/>
<polygon fill="midnightblue" stroke="midnightblue" points="1330.55,-197.277 1334.7,-187.533 1325.38,-192.557 1330.55,-197.277"/>
</g>
<!-- Node39 -->
<g id="node39" class="node"><title>Node39</title>
<g id="a_node39"><a xlink:href="_ogre_common_8h.html" target="_top" xlink:title="OgreCommon.h">
<polygon fill="none" stroke="black" points="1458,-112.5 1458,-131.5 1544,-131.5 1544,-112.5 1458,-112.5"/>
<text text-anchor="middle" x="1501" y="-119.5" font-family="Helvetica,sans-Serif" font-size="10.00">OgreCommon.h</text>
</a>
</g>
</g>
<!-- Node37&#45;&gt;Node39 -->
<g id="edge48" class="edge"><title>Node37&#45;&gt;Node39</title>
<path fill="none" stroke="midnightblue" d="M1160.78,-286.037C1276.82,-278.576 1537.85,-254.603 1591,-188 1609.47,-164.858 1573.37,-146.085 1541.54,-134.77"/>
<polygon fill="midnightblue" stroke="midnightblue" points="1542.46,-131.386 1531.86,-131.502 1540.22,-138.018 1542.46,-131.386"/>
</g>
<!-- Node40 -->
<g id="node40" class="node"><title>Node40</title>
<g id="a_node40"><a xlink:href="_ogre_render_system_capabilities_8h.html" target="_top" xlink:title="OgreRenderSystemCapabilities.h">
<polygon fill="none" stroke="red" points="1420,-168.5 1420,-187.5 1582,-187.5 1582,-168.5 1420,-168.5"/>
<text text-anchor="middle" x="1501" y="-175.5" font-family="Helvetica,sans-Serif" font-size="10.00">OgreRenderSystemCapabilities.h</text>
</a>
</g>
</g>
<!-- Node37&#45;&gt;Node40 -->
<g id="edge49" class="edge"><title>Node37&#45;&gt;Node40</title>
<path fill="none" stroke="midnightblue" d="M1145.69,-280.433C1184.71,-271.988 1245.19,-258.303 1297,-244 1357.28,-227.359 1426.44,-204.517 1466.77,-190.812"/>
<polygon fill="midnightblue" stroke="midnightblue" points="1468.04,-194.075 1476.38,-187.534 1465.78,-187.45 1468.04,-194.075"/>
</g>
<!-- Node41 -->
<g id="node41" class="node"><title>Node41</title>
<g id="a_node41"><a xlink:href="_ogre_config_option_map_8h.html" target="_top" xlink:title="OgreConfigOptionMap.h">
<polygon fill="none" stroke="red" points="812,-168.5 812,-187.5 934,-187.5 934,-168.5 812,-168.5"/>
<text text-anchor="middle" x="873" y="-175.5" font-family="Helvetica,sans-Serif" font-size="10.00">OgreConfigOptionMap.h</text>
</a>
</g>
</g>
<!-- Node37&#45;&gt;Node41 -->
<g id="edge53" class="edge"><title>Node37&#45;&gt;Node41</title>
<path fill="none" stroke="midnightblue" d="M1060.31,-280.458C1029.3,-273.407 987.674,-261.657 954,-244 929.209,-231.001 904.697,-209.863 889.243,-195.238"/>
<polygon fill="midnightblue" stroke="midnightblue" points="891.263,-192.322 881.645,-187.877 886.392,-197.349 891.263,-192.322"/>
</g>
<!-- Node42 -->
<g id="node42" class="node"><title>Node42</title>
<g id="a_node42"><a xlink:href="_ogre_gpu_program_8h.html" target="_top" xlink:title="OgreGpuProgram.h">
<polygon fill="none" stroke="red" points="1124.5,-224.5 1124.5,-243.5 1225.5,-243.5 1225.5,-224.5 1124.5,-224.5"/>
<text text-anchor="middle" x="1175" y="-231.5" font-family="Helvetica,sans-Serif" font-size="10.00">OgreGpuProgram.h</text>
</a>
</g>
</g>
<!-- Node37&#45;&gt;Node42 -->
<g id="edge55" class="edge"><title>Node37&#45;&gt;Node42</title>
<path fill="none" stroke="midnightblue" d="M1116.25,-280.324C1126.8,-272.185 1142.8,-259.839 1155.44,-250.087"/>
<polygon fill="midnightblue" stroke="midnightblue" points="1157.77,-252.713 1163.55,-243.834 1153.49,-247.171 1157.77,-252.713"/>
</g>
<!-- Node44 -->
<g id="node44" class="node"><title>Node44</title>
<g id="a_node44"><a xlink:href="_ogre_plane_8h.html" target="_top" xlink:title="OgrePlane.h">
<polygon fill="none" stroke="red" points="722.5,-168.5 722.5,-187.5 793.5,-187.5 793.5,-168.5 722.5,-168.5"/>
<text text-anchor="middle" x="758" y="-175.5" font-family="Helvetica,sans-Serif" font-size="10.00">OgrePlane.h</text>
</a>
</g>
</g>
<!-- Node37&#45;&gt;Node44 -->
<g id="edge61" class="edge"><title>Node37&#45;&gt;Node44</title>
<path fill="none" stroke="midnightblue" d="M1063.49,-280.485C1026.1,-272.418 969.839,-259.284 922,-244 873.484,-228.5 818.796,-205.709 786.427,-191.64"/>
<polygon fill="midnightblue" stroke="midnightblue" points="787.693,-188.374 777.129,-187.572 784.887,-194.787 787.693,-188.374"/>
</g>
<!-- Node45 -->
<g id="node45" class="node"><title>Node45</title>
<g id="a_node45"><a xlink:href="_ogre_hardware_vertex_buffer_8h.html" target="_top" xlink:title="OgreHardwareVertexBuffer.h">
<polygon fill="none" stroke="red" points="963.5,-224.5 963.5,-243.5 1106.5,-243.5 1106.5,-224.5 963.5,-224.5"/>
<text text-anchor="middle" x="1035" y="-231.5" font-family="Helvetica,sans-Serif" font-size="10.00">OgreHardwareVertexBuffer.h</text>
</a>
</g>
</g>
<!-- Node37&#45;&gt;Node45 -->
<g id="edge63" class="edge"><title>Node37&#45;&gt;Node45</title>
<path fill="none" stroke="midnightblue" d="M1093.75,-280.324C1083.2,-272.185 1067.2,-259.839 1054.56,-250.087"/>
<polygon fill="midnightblue" stroke="midnightblue" points="1056.51,-247.171 1046.45,-243.834 1052.23,-252.713 1056.51,-247.171"/>
</g>
<!-- Node38&#45;&gt;Node3 -->
<g id="edge42" class="edge"><title>Node38&#45;&gt;Node3</title>
<path fill="none" stroke="midnightblue" d="M1281.97,-171.45C1170.48,-161.141 932.545,-139.139 819.758,-128.71"/>
<polygon fill="midnightblue" stroke="midnightblue" points="819.848,-125.204 809.568,-127.768 819.204,-132.174 819.848,-125.204"/>
</g>
<!-- Node38&#45;&gt;Node28 -->
<g id="edge46" class="edge"><title>Node38&#45;&gt;Node28</title>
<path fill="none" stroke="midnightblue" d="M1344.15,-168.075C1350.45,-141.945 1368.94,-65.2106 1377.52,-29.577"/>
<polygon fill="midnightblue" stroke="midnightblue" points="1381,-30.1098 1379.94,-19.5681 1374.19,-28.4699 1381,-30.1098"/>
</g>
<!-- Node38&#45;&gt;Node29 -->
<g id="edge47" class="edge"><title>Node38&#45;&gt;Node29</title>
<path fill="none" stroke="midnightblue" d="M1354.04,-168.309C1391.3,-141.416 1505.01,-59.3518 1551.68,-25.6665"/>
<polygon fill="midnightblue" stroke="midnightblue" points="1554.02,-28.2955 1560.08,-19.6051 1549.92,-22.6195 1554.02,-28.2955"/>
</g>
<!-- Node38&#45;&gt;Node39 -->
<g id="edge43" class="edge"><title>Node38&#45;&gt;Node39</title>
<path fill="none" stroke="midnightblue" d="M1367.19,-168.444C1393.94,-159.359 1436.4,-144.939 1466.31,-134.783"/>
<polygon fill="midnightblue" stroke="midnightblue" points="1467.58,-138.046 1475.92,-131.516 1465.33,-131.418 1467.58,-138.046"/>
</g>
<!-- Node39&#45;&gt;Node28 -->
<g id="edge44" class="edge"><title>Node39&#45;&gt;Node28</title>
<path fill="none" stroke="midnightblue" d="M1492.48,-112.426C1479.89,-99.8371 1455.51,-75.7088 1434,-56 1423,-45.9174 1410.34,-34.9522 1400.27,-26.3703"/>
<polygon fill="midnightblue" stroke="midnightblue" points="1402.4,-23.5897 1392.51,-19.7937 1397.88,-28.9296 1402.4,-23.5897"/>
</g>
<!-- Node39&#45;&gt;Node29 -->
<g id="edge45" class="edge"><title>Node39&#45;&gt;Node29</title>
<path fill="none" stroke="midnightblue" d="M1506.57,-112.368C1518.24,-94.2957 1545.42,-52.1764 1560.83,-28.3074"/>
<polygon fill="midnightblue" stroke="midnightblue" points="1563.97,-29.8913 1566.45,-19.5914 1558.09,-26.0952 1563.97,-29.8913"/>
</g>
<!-- Node40&#45;&gt;Node3 -->
<g id="edge50" class="edge"><title>Node40&#45;&gt;Node3</title>
<path fill="none" stroke="midnightblue" d="M1419.58,-168.744C1416.68,-168.487 1413.82,-168.238 1411,-168 1193.91,-149.67 935.754,-133.557 819.785,-126.62"/>
<polygon fill="midnightblue" stroke="midnightblue" points="819.869,-123.119 809.679,-126.017 819.453,-130.107 819.869,-123.119"/>
</g>
<!-- Node40&#45;&gt;Node28 -->
<g id="edge51" class="edge"><title>Node40&#45;&gt;Node28</title>
<path fill="none" stroke="midnightblue" d="M1488.77,-168.386C1477.48,-160.01 1460.73,-146.464 1449,-132 1422.13,-98.877 1400.29,-53.4663 1389.44,-28.7657"/>
<polygon fill="midnightblue" stroke="midnightblue" points="1392.64,-27.3506 1385.48,-19.5438 1386.21,-30.1134 1392.64,-27.3506"/>
</g>
<!-- Node40&#45;&gt;Node29 -->
<g id="edge52" class="edge"><title>Node40&#45;&gt;Node29</title>
<path fill="none" stroke="midnightblue" d="M1515.89,-168.298C1527.95,-160.417 1544.31,-147.659 1553,-132 1571.08,-99.4155 1573.31,-54.7403 1572.92,-29.7975"/>
<polygon fill="midnightblue" stroke="midnightblue" points="1576.41,-29.4396 1572.59,-19.558 1569.41,-29.6659 1576.41,-29.4396"/>
</g>
<!-- Node41&#45;&gt;Node3 -->
<g id="edge54" class="edge"><title>Node41&#45;&gt;Node3</title>
<path fill="none" stroke="midnightblue" d="M854.778,-168.444C836.104,-159.675 806.844,-145.935 785.383,-135.858"/>
<polygon fill="midnightblue" stroke="midnightblue" points="786.676,-132.599 776.137,-131.516 783.701,-138.935 786.676,-132.599"/>
</g>
<!-- Node42&#45;&gt;Node3 -->
<g id="edge56" class="edge"><title>Node42&#45;&gt;Node3</title>
<path fill="none" stroke="midnightblue" d="M1166.32,-224.058C1151.68,-209.579 1120.45,-181.287 1088,-168 999.565,-131.794 887.781,-123.58 819.651,-122.307"/>
<polygon fill="midnightblue" stroke="midnightblue" points="819.561,-118.805 809.513,-122.163 819.462,-125.805 819.561,-118.805"/>
</g>
<!-- Node42&#45;&gt;Node28 -->
<g id="edge57" class="edge"><title>Node42&#45;&gt;Node28</title>
<path fill="none" stroke="midnightblue" d="M1170.47,-224.397C1156.46,-196.453 1117.18,-107.099 1159,-56 1164.22,-49.6262 1257.33,-32.4497 1321.57,-21.2566"/>
<polygon fill="midnightblue" stroke="midnightblue" points="1322.36,-24.672 1331.62,-19.5142 1321.17,-17.775 1322.36,-24.672"/>
</g>
<!-- Node42&#45;&gt;Node29 -->
<g id="edge60" class="edge"><title>Node42&#45;&gt;Node29</title>
<path fill="none" stroke="midnightblue" d="M1225.86,-231.665C1337.81,-228.201 1597.69,-217.083 1624,-188 1663.36,-144.497 1648.39,-109.357 1624,-56 1618.22,-43.3602 1606.95,-32.911 1596.37,-25.2737"/>
<polygon fill="midnightblue" stroke="midnightblue" points="1598.04,-22.1817 1587.78,-19.5333 1594.15,-28.0009 1598.04,-22.1817"/>
</g>
<!-- Node43 -->
<g id="node43" class="node"><title>Node43</title>
<g id="a_node43"><a xlink:href="_ogre_shared_ptr_8h.html" target="_top" xlink:title="OgreSharedPtr.h">
<polygon fill="none" stroke="red" points="990.5,-168.5 990.5,-187.5 1079.5,-187.5 1079.5,-168.5 990.5,-168.5"/>
<text text-anchor="middle" x="1035" y="-175.5" font-family="Helvetica,sans-Serif" font-size="10.00">OgreSharedPtr.h</text>
</a>
</g>
</g>
<!-- Node42&#45;&gt;Node43 -->
<g id="edge58" class="edge"><title>Node42&#45;&gt;Node43</title>
<path fill="none" stroke="midnightblue" d="M1152.82,-224.444C1129.57,-215.478 1092.85,-201.314 1066.58,-191.183"/>
<polygon fill="midnightblue" stroke="midnightblue" points="1067.67,-187.85 1057.08,-187.516 1065.15,-194.381 1067.67,-187.85"/>
</g>
<!-- Node43&#45;&gt;Node3 -->
<g id="edge59" class="edge"><title>Node43&#45;&gt;Node3</title>
<path fill="none" stroke="midnightblue" d="M991.109,-168.444C942.483,-158.964 864.054,-143.675 811.776,-133.483"/>
<polygon fill="midnightblue" stroke="midnightblue" points="812.171,-129.995 801.686,-131.516 810.832,-136.865 812.171,-129.995"/>
</g>
<!-- Node44&#45;&gt;Node3 -->
<g id="edge62" class="edge"><title>Node44&#45;&gt;Node3</title>
<path fill="none" stroke="midnightblue" d="M758,-168.083C758,-161.006 758,-150.861 758,-141.986"/>
<polygon fill="midnightblue" stroke="midnightblue" points="761.5,-141.751 758,-131.751 754.5,-141.751 761.5,-141.751"/>
</g>
<!-- Node45&#45;&gt;Node3 -->
<g id="edge64" class="edge"><title>Node45&#45;&gt;Node3</title>
<path fill="none" stroke="midnightblue" d="M1025.55,-224.456C1009.67,-210.549 976.111,-183.059 943,-168 903.808,-150.175 856.605,-138.839 819.689,-132.004"/>
<polygon fill="midnightblue" stroke="midnightblue" points="820.025,-128.508 809.565,-130.193 818.793,-135.399 820.025,-128.508"/>
</g>
<!-- Node45&#45;&gt;Node28 -->
<g id="edge66" class="edge"><title>Node45&#45;&gt;Node28</title>
<path fill="none" stroke="midnightblue" d="M1048.29,-224.394C1060.05,-216.218 1076.99,-202.976 1088,-188 1125.75,-136.658 1094.38,-95.9833 1144,-56 1150.9,-50.4399 1251.94,-32.6858 1320.13,-21.2106"/>
<polygon fill="midnightblue" stroke="midnightblue" points="1321.07,-24.6017 1330.35,-19.4955 1319.91,-17.6981 1321.07,-24.6017"/>
</g>
<!-- Node45&#45;&gt;Node29 -->
<g id="edge67" class="edge"><title>Node45&#45;&gt;Node29</title>
<path fill="none" stroke="midnightblue" d="M1106.52,-224.823C1109.38,-224.537 1112.22,-224.262 1115,-224 1167.81,-219.034 1554.94,-226.893 1591,-188 1631.93,-143.859 1599.58,-64.4263 1581.76,-28.9559"/>
<polygon fill="midnightblue" stroke="midnightblue" points="1584.72,-27.0626 1577,-19.8132 1578.52,-30.2986 1584.72,-27.0626"/>
</g>
<!-- Node45&#45;&gt;Node43 -->
<g id="edge65" class="edge"><title>Node45&#45;&gt;Node43</title>
<path fill="none" stroke="midnightblue" d="M1035,-224.083C1035,-217.006 1035,-206.861 1035,-197.986"/>
<polygon fill="midnightblue" stroke="midnightblue" points="1038.5,-197.751 1035,-187.751 1031.5,-197.751 1038.5,-197.751"/>
</g>
<!-- Node46&#45;&gt;Node31 -->
<g id="edge71" class="edge"><title>Node46&#45;&gt;Node31</title>
<path fill="none" stroke="midnightblue" d="M454,-336.083C454,-329.006 454,-318.861 454,-309.986"/>
<polygon fill="midnightblue" stroke="midnightblue" points="457.5,-309.751 454,-299.751 450.5,-309.751 457.5,-309.751"/>
</g>
<!-- Node47&#45;&gt;Node31 -->
<g id="edge73" class="edge"><title>Node47&#45;&gt;Node31</title>
<path fill="none" stroke="midnightblue" d="M576.866,-336.444C552.518,-327.438 513.993,-313.189 486.577,-303.049"/>
<polygon fill="midnightblue" stroke="midnightblue" points="487.619,-299.703 477.026,-299.516 485.191,-306.268 487.619,-299.703"/>
</g>
<!-- Node48&#45;&gt;Node31 -->
<g id="edge75" class="edge"><title>Node48&#45;&gt;Node31</title>
<path fill="none" stroke="midnightblue" d="M698.049,-336.444C646.929,-326.925 564.346,-311.547 509.617,-301.356"/>
<polygon fill="midnightblue" stroke="midnightblue" points="510.208,-297.906 499.736,-299.516 508.927,-304.788 510.208,-297.906"/>
</g>
<!-- Node48&#45;&gt;Node43 -->
<g id="edge76" class="edge"><title>Node48&#45;&gt;Node43</title>
<path fill="none" stroke="midnightblue" d="M790.225,-336.436C832.234,-327.94 890.403,-314.174 909,-300 940.221,-276.205 925.864,-251.373 954,-224 968.037,-210.344 987.04,-199.5 1003.11,-191.882"/>
<polygon fill="midnightblue" stroke="midnightblue" points="1005,-194.869 1012.67,-187.559 1002.12,-188.491 1005,-194.869"/>
</g>
<!-- Node49&#45;&gt;Node30 -->
<g id="edge83" class="edge"><title>Node49&#45;&gt;Node30</title>
<path fill="none" stroke="midnightblue" d="M846.38,-355.516C813.794,-364.822 758.353,-379.76 718.665,-389.959"/>
<polygon fill="midnightblue" stroke="midnightblue" points="717.761,-386.578 708.938,-392.444 719.493,-393.36 717.761,-386.578"/>
</g>
<!-- Node49&#45;&gt;Node31 -->
<g id="edge78" class="edge"><title>Node49&#45;&gt;Node31</title>
<path fill="none" stroke="midnightblue" d="M813.162,-337.188C810.063,-336.786 806.995,-336.388 804,-336 709.898,-323.814 601.548,-309.901 530.636,-300.812"/>
<polygon fill="midnightblue" stroke="midnightblue" points="530.815,-297.307 520.451,-299.507 529.925,-304.25 530.815,-297.307"/>
</g>
<!-- Node49&#45;&gt;Node37 -->
<g id="edge80" class="edge"><title>Node49&#45;&gt;Node37</title>
<path fill="none" stroke="midnightblue" d="M909.761,-336.444C950.063,-327.063 1014.81,-311.993 1058.58,-301.804"/>
<polygon fill="midnightblue" stroke="midnightblue" points="1059.46,-305.192 1068.41,-299.516 1057.88,-298.375 1059.46,-305.192"/>
</g>
<!-- Node49&#45;&gt;Node38 -->
<g id="edge79" class="edge"><title>Node49&#45;&gt;Node38</title>
<path fill="none" stroke="midnightblue" d="M932.669,-340.539C993.158,-334.951 1088.98,-323.151 1169,-300 1228.65,-282.742 1249.06,-283.47 1297,-244 1312.84,-230.957 1325.53,-210.981 1333.34,-196.617"/>
<polygon fill="midnightblue" stroke="midnightblue" points="1336.46,-198.212 1337.95,-187.723 1330.24,-194.991 1336.46,-198.212"/>
</g>
<!-- Node50 -->
<g id="node50" class="node"><title>Node50</title>
<g id="a_node50"><a xlink:href="_ogre_root_8h.html" target="_top" xlink:title="OgreRoot.h">
<polygon fill="none" stroke="red" points="833.5,-280.5 833.5,-299.5 900.5,-299.5 900.5,-280.5 833.5,-280.5"/>
<text text-anchor="middle" x="867" y="-287.5" font-family="Helvetica,sans-Serif" font-size="10.00">OgreRoot.h</text>
</a>
</g>
</g>
<!-- Node49&#45;&gt;Node50 -->
<g id="edge81" class="edge"><title>Node49&#45;&gt;Node50</title>
<path fill="none" stroke="midnightblue" d="M872.009,-336.083C871.214,-328.927 870.071,-318.635 869.077,-309.691"/>
<polygon fill="midnightblue" stroke="midnightblue" points="872.555,-309.303 867.972,-299.751 865.598,-310.076 872.555,-309.303"/>
</g>
<!-- Node50&#45;&gt;Node3 -->
<g id="edge82" class="edge"><title>Node50&#45;&gt;Node3</title>
<path fill="none" stroke="midnightblue" d="M833.471,-285.833C784.913,-280.474 698.754,-267.803 680,-244 659.095,-217.468 663.106,-197.25 680,-168 688.677,-152.977 704.487,-142.523 719.617,-135.499"/>
<polygon fill="midnightblue" stroke="midnightblue" points="721.047,-138.694 728.879,-131.559 718.307,-132.253 721.047,-138.694"/>
</g>
</g>
</svg>
