<?xml version="1.0" encoding="UTF-8" standalone="no"?>
<!DOCTYPE svg PUBLIC "-//W3C//DTD SVG 1.1//EN"
 "http://www.w3.org/Graphics/SVG/1.1/DTD/svg11.dtd">
<!-- Generated by graphviz version 2.38.0 (20140413.2041)
 -->
<!-- Title: OgreGLSLShader.h Pages: 1 -->
<svg width="399pt" height="151pt"
 viewBox="0.00 0.00 399.00 151.00" xmlns="http://www.w3.org/2000/svg" xmlns:xlink="http://www.w3.org/1999/xlink">
<g id="graph0" class="graph" transform="scale(1 1) rotate(0) translate(4 147)">
<title>OgreGLSLShader.h</title>
<!-- Node1 -->
<g id="node1" class="node"><title>Node1</title>
<polygon fill="#bfbfbf" stroke="black" points="183,-123.5 183,-142.5 284,-142.5 284,-123.5 183,-123.5"/>
<text text-anchor="middle" x="233.5" y="-130.5" font-family="Helvetica,sans-Serif" font-size="10.00">OgreGLSLShader.h</text>
</g>
<!-- Node2 -->
<g id="node2" class="node"><title>Node2</title>
<g id="a_node2"><a xlink:href="_ogre_g_l_s_l_program_manager_8h.html" target="_top" xlink:title="OgreGLSLProgramManager.h">
<polygon fill="none" stroke="black" points="79,-67.5 79,-86.5 224,-86.5 224,-67.5 79,-67.5"/>
<text text-anchor="middle" x="151.5" y="-74.5" font-family="Helvetica,sans-Serif" font-size="10.00">OgreGLSLProgramManager.h</text>
</a>
</g>
</g>
<!-- Node1&#45;&gt;Node2 -->
<g id="edge1" class="edge"><title>Node1&#45;&gt;Node2</title>
<path fill="none" stroke="midnightblue" d="M211.667,-117.622C196.687,-107.757 177.303,-94.9919 164.642,-86.6545"/>
<polygon fill="midnightblue" stroke="midnightblue" points="210.049,-120.747 220.325,-123.324 213.899,-114.901 210.049,-120.747"/>
</g>
<!-- Node5 -->
<g id="node5" class="node"><title>Node5</title>
<g id="a_node5"><a xlink:href="_ogre_g_l3_plus_render_system_8h.html" target="_top" xlink:title="OgreGL3PlusRenderSystem.h">
<polygon fill="none" stroke="black" points="242,-67.5 242,-86.5 391,-86.5 391,-67.5 242,-67.5"/>
<text text-anchor="middle" x="316.5" y="-74.5" font-family="Helvetica,sans-Serif" font-size="10.00">OgreGL3PlusRenderSystem.h</text>
</a>
</g>
</g>
<!-- Node1&#45;&gt;Node5 -->
<g id="edge4" class="edge"><title>Node1&#45;&gt;Node5</title>
<path fill="none" stroke="midnightblue" d="M255.599,-117.622C270.762,-107.757 290.383,-94.9919 303.198,-86.6545"/>
<polygon fill="midnightblue" stroke="midnightblue" points="253.309,-114.937 246.835,-123.324 257.126,-120.804 253.309,-114.937"/>
</g>
<!-- Node3 -->
<g id="node3" class="node"><title>Node3</title>
<g id="a_node3"><a xlink:href="_ogre_g_l_s_l_monolithic_program_manager_8h.html" target="_top" xlink:title="OgreGLSLMonolithicProgram\lManager.h">
<polygon fill="none" stroke="black" points="0,-0.5 0,-30.5 143,-30.5 143,-0.5 0,-0.5"/>
<text text-anchor="start" x="8" y="-18.5" font-family="Helvetica,sans-Serif" font-size="10.00">OgreGLSLMonolithicProgram</text>
<text text-anchor="middle" x="71.5" y="-7.5" font-family="Helvetica,sans-Serif" font-size="10.00">Manager.h</text>
</a>
</g>
</g>
<!-- Node2&#45;&gt;Node3 -->
<g id="edge2" class="edge"><title>Node2&#45;&gt;Node3</title>
<path fill="none" stroke="midnightblue" d="M131.961,-61.468C119.295,-52.0474 102.883,-39.8408 90.3544,-30.523"/>
<polygon fill="midnightblue" stroke="midnightblue" points="129.925,-64.3156 140.038,-67.4751 134.103,-58.6988 129.925,-64.3156"/>
</g>
<!-- Node4 -->
<g id="node4" class="node"><title>Node4</title>
<g id="a_node4"><a xlink:href="_ogre_g_l_s_l_separable_program_manager_8h.html" target="_top" xlink:title="OgreGLSLSeparableProgram\lManager.h">
<polygon fill="none" stroke="black" points="161,-0.5 161,-30.5 304,-30.5 304,-0.5 161,-0.5"/>
<text text-anchor="start" x="169" y="-18.5" font-family="Helvetica,sans-Serif" font-size="10.00">OgreGLSLSeparableProgram</text>
<text text-anchor="middle" x="232.5" y="-7.5" font-family="Helvetica,sans-Serif" font-size="10.00">Manager.h</text>
</a>
</g>
</g>
<!-- Node2&#45;&gt;Node4 -->
<g id="edge3" class="edge"><title>Node2&#45;&gt;Node4</title>
<path fill="none" stroke="midnightblue" d="M171.283,-61.468C184.108,-52.0474 200.725,-39.8408 213.41,-30.523"/>
<polygon fill="midnightblue" stroke="midnightblue" points="169.093,-58.7342 163.105,-67.4751 173.237,-64.3757 169.093,-58.7342"/>
</g>
</g>
</svg>
