<?xml version="1.0" encoding="UTF-8" standalone="no"?>
<!DOCTYPE svg PUBLIC "-//W3C//DTD SVG 1.1//EN"
 "http://www.w3.org/Graphics/SVG/1.1/DTD/svg11.dtd">
<!-- Generated by graphviz version 2.38.0 (20140413.2041)
 -->
<!-- Title: OgreStringInterface.h Pages: 1 -->
<svg width="3174pt" height="252pt"
 viewBox="0.00 0.00 3174.00 252.00" xmlns="http://www.w3.org/2000/svg" xmlns:xlink="http://www.w3.org/1999/xlink">
<g id="graph0" class="graph" transform="scale(1 1) rotate(0) translate(4 248)">
<title>OgreStringInterface.h</title>
<!-- Node1 -->
<g id="node1" class="node"><title>Node1</title>
<polygon fill="#bfbfbf" stroke="black" points="2854,-224.5 2854,-243.5 2964,-243.5 2964,-224.5 2854,-224.5"/>
<text text-anchor="middle" x="2909" y="-231.5" font-family="Helvetica,sans-Serif" font-size="10.00">OgreStringInterface.h</text>
</g>
<!-- Node2 -->
<g id="node2" class="node"><title>Node2</title>
<g id="a_node2"><a xlink:href="_ogre_prerequisites_8h.html" target="_top" xlink:title="OgrePrerequisites.h">
<polygon fill="none" stroke="black" points="2333.5,-168.5 2333.5,-187.5 2436.5,-187.5 2436.5,-168.5 2333.5,-168.5"/>
<text text-anchor="middle" x="2385" y="-175.5" font-family="Helvetica,sans-Serif" font-size="10.00">OgrePrerequisites.h</text>
</a>
</g>
</g>
<!-- Node1&#45;&gt;Node2 -->
<g id="edge1" class="edge"><title>Node1&#45;&gt;Node2</title>
<path fill="none" stroke="midnightblue" d="M2853.91,-227.323C2755.47,-217.179 2550.04,-196.008 2446.89,-185.378"/>
<polygon fill="midnightblue" stroke="midnightblue" points="2446.94,-181.865 2436.63,-184.321 2446.22,-188.828 2446.94,-181.865"/>
</g>
<!-- Node39 -->
<g id="node39" class="node"><title>Node39</title>
<g id="a_node39"><a xlink:href="_ogre_header_prefix_8h.html" target="_top" xlink:title="OgreHeaderPrefix.h">
<polygon fill="none" stroke="black" points="2477.5,-0.5 2477.5,-19.5 2580.5,-19.5 2580.5,-0.5 2477.5,-0.5"/>
<text text-anchor="middle" x="2529" y="-7.5" font-family="Helvetica,sans-Serif" font-size="10.00">OgreHeaderPrefix.h</text>
</a>
</g>
</g>
<!-- Node1&#45;&gt;Node39 -->
<g id="edge57" class="edge"><title>Node1&#45;&gt;Node39</title>
<path fill="none" stroke="midnightblue" d="M2853.75,-232.183C2461.15,-226.109 105.961,-185.179 6,-76 -0.00251629,-69.4439 -0.229098,-62.3412 6,-56 50.4935,-10.7059 2084.46,-10.5453 2467.24,-10.917"/>
<polygon fill="midnightblue" stroke="midnightblue" points="2467.29,-14.4169 2477.3,-10.9272 2467.3,-7.41691 2467.29,-14.4169"/>
</g>
<!-- Node40 -->
<g id="node40" class="node"><title>Node40</title>
<g id="a_node40"><a xlink:href="_ogre_header_suffix_8h.html" target="_top" xlink:title="OgreHeaderSuffix.h">
<polygon fill="none" stroke="black" points="2734.5,-0.5 2734.5,-19.5 2837.5,-19.5 2837.5,-0.5 2734.5,-0.5"/>
<text text-anchor="middle" x="2786" y="-7.5" font-family="Helvetica,sans-Serif" font-size="10.00">OgreHeaderSuffix.h</text>
</a>
</g>
</g>
<!-- Node1&#45;&gt;Node40 -->
<g id="edge58" class="edge"><title>Node1&#45;&gt;Node40</title>
<path fill="none" stroke="midnightblue" d="M2916.45,-224.259C2939.04,-196.644 3002.8,-109.911 2961,-56 2946.97,-37.9075 2892.05,-25.8175 2847.43,-18.7668"/>
<polygon fill="midnightblue" stroke="midnightblue" points="2847.92,-15.3008 2837.5,-17.2532 2846.86,-22.2208 2847.92,-15.3008"/>
</g>
<!-- Node43 -->
<g id="node43" class="node"><title>Node43</title>
<g id="a_node43"><a xlink:href="_ogre_common_8h.html" target="_top" xlink:title="OgreCommon.h">
<polygon fill="none" stroke="black" points="2866,-56.5 2866,-75.5 2952,-75.5 2952,-56.5 2866,-56.5"/>
<text text-anchor="middle" x="2909" y="-63.5" font-family="Helvetica,sans-Serif" font-size="10.00">OgreCommon.h</text>
</a>
</g>
</g>
<!-- Node1&#45;&gt;Node43 -->
<g id="edge51" class="edge"><title>Node1&#45;&gt;Node43</title>
<path fill="none" stroke="midnightblue" d="M2909,-224.075C2909,-197.945 2909,-121.211 2909,-85.577"/>
<polygon fill="midnightblue" stroke="midnightblue" points="2912.5,-85.5681 2909,-75.5681 2905.5,-85.5681 2912.5,-85.5681"/>
</g>
<!-- Node44 -->
<g id="node44" class="node"><title>Node44</title>
<g id="a_node44"><a xlink:href="_ogre_thread_headers_8h.html" target="_top" xlink:title="Threading/OgreThreadHeaders.h">
<polygon fill="none" stroke="black" points="3008,-168.5 3008,-187.5 3166,-187.5 3166,-168.5 3008,-168.5"/>
<text text-anchor="middle" x="3087" y="-175.5" font-family="Helvetica,sans-Serif" font-size="10.00">Threading/OgreThreadHeaders.h</text>
</a>
</g>
</g>
<!-- Node1&#45;&gt;Node44 -->
<g id="edge54" class="edge"><title>Node1&#45;&gt;Node44</title>
<path fill="none" stroke="midnightblue" d="M2937.2,-224.444C2967.41,-215.28 3015.51,-200.688 3049.03,-190.519"/>
<polygon fill="midnightblue" stroke="midnightblue" points="3050.37,-193.769 3058.93,-187.516 3048.34,-187.07 3050.37,-193.769"/>
</g>
<!-- Node3 -->
<g id="node3" class="node"><title>Node3</title>
<g id="a_node3"><a xlink:href="_ogre_platform_8h.html" target="_top" xlink:title="OgrePlatform.h">
<polygon fill="none" stroke="black" points="649.5,-112.5 649.5,-131.5 732.5,-131.5 732.5,-112.5 649.5,-112.5"/>
<text text-anchor="middle" x="691" y="-119.5" font-family="Helvetica,sans-Serif" font-size="10.00">OgrePlatform.h</text>
</a>
</g>
</g>
<!-- Node2&#45;&gt;Node3 -->
<g id="edge2" class="edge"><title>Node2&#45;&gt;Node3</title>
<path fill="none" stroke="midnightblue" d="M2333.38,-175.354C2082.74,-167.365 994.599,-132.678 743.039,-124.659"/>
<polygon fill="midnightblue" stroke="midnightblue" points="742.829,-121.15 732.722,-124.33 742.606,-128.147 742.829,-121.15"/>
</g>
<!-- Node6 -->
<g id="node6" class="node"><title>Node6</title>
<polygon fill="none" stroke="#bfbfbf" points="2257.5,-56.5 2257.5,-75.5 2298.5,-75.5 2298.5,-56.5 2257.5,-56.5"/>
<text text-anchor="middle" x="2278" y="-63.5" font-family="Helvetica,sans-Serif" font-size="10.00">string</text>
</g>
<!-- Node2&#45;&gt;Node6 -->
<g id="edge5" class="edge"><title>Node2&#45;&gt;Node6</title>
<path fill="none" stroke="midnightblue" d="M2376.6,-168.368C2358.71,-149.974 2316.59,-106.671 2293.61,-83.0519"/>
<polygon fill="midnightblue" stroke="midnightblue" points="2295.84,-80.3192 2286.36,-75.5914 2290.82,-85.2 2295.84,-80.3192"/>
</g>
<!-- Node7 -->
<g id="node7" class="node"><title>Node7</title>
<g id="a_node7"><a xlink:href="_ogre_std_headers_8h.html" target="_top" xlink:title="OgreStdHeaders.h">
<polygon fill="none" stroke="black" points="1385,-112.5 1385,-131.5 1483,-131.5 1483,-112.5 1385,-112.5"/>
<text text-anchor="middle" x="1434" y="-119.5" font-family="Helvetica,sans-Serif" font-size="10.00">OgreStdHeaders.h</text>
</a>
</g>
</g>
<!-- Node2&#45;&gt;Node7 -->
<g id="edge6" class="edge"><title>Node2&#45;&gt;Node7</title>
<path fill="none" stroke="midnightblue" d="M2333.19,-174.058C2169.96,-164.789 1666.87,-136.223 1493.47,-126.377"/>
<polygon fill="midnightblue" stroke="midnightblue" points="1493.45,-122.87 1483.26,-125.797 1493.05,-129.859 1493.45,-122.87"/>
</g>
<!-- Node37 -->
<g id="node37" class="node"><title>Node37</title>
<g id="a_node37"><a xlink:href="_ogre_memory_allocator_config_8h.html" target="_top" xlink:title="This file configures Ogre&#39;s memory allocators. ">
<polygon fill="none" stroke="black" points="2449,-112.5 2449,-131.5 2597,-131.5 2597,-112.5 2449,-112.5"/>
<text text-anchor="middle" x="2523" y="-119.5" font-family="Helvetica,sans-Serif" font-size="10.00">OgreMemoryAllocatorConfig.h</text>
</a>
</g>
</g>
<!-- Node2&#45;&gt;Node37 -->
<g id="edge37" class="edge"><title>Node2&#45;&gt;Node37</title>
<path fill="none" stroke="midnightblue" d="M2406.87,-168.444C2429.78,-159.478 2465.98,-145.314 2491.87,-135.183"/>
<polygon fill="midnightblue" stroke="midnightblue" points="2493.2,-138.42 2501.24,-131.516 2490.65,-131.901 2493.2,-138.42"/>
</g>
<!-- Node4 -->
<g id="node4" class="node"><title>Node4</title>
<g id="a_node4"><a xlink:href="_ogre_config_8h.html" target="_top" xlink:title="OgreConfig.h">
<polygon fill="none" stroke="black" points="15,-56.5 15,-75.5 89,-75.5 89,-56.5 15,-56.5"/>
<text text-anchor="middle" x="52" y="-63.5" font-family="Helvetica,sans-Serif" font-size="10.00">OgreConfig.h</text>
</a>
</g>
</g>
<!-- Node3&#45;&gt;Node4 -->
<g id="edge3" class="edge"><title>Node3&#45;&gt;Node4</title>
<path fill="none" stroke="midnightblue" d="M649.486,-119.528C554.066,-115.785 311.642,-104.227 99.1884,-76.0026"/>
<polygon fill="midnightblue" stroke="midnightblue" points="99.472,-72.5093 89.0949,-74.6459 98.5395,-79.4469 99.472,-72.5093"/>
</g>
<!-- Node5 -->
<g id="node5" class="node"><title>Node5</title>
<polygon fill="none" stroke="#bfbfbf" points="0,-0.5 0,-19.5 104,-19.5 104,-0.5 0,-0.5"/>
<text text-anchor="middle" x="52" y="-7.5" font-family="Helvetica,sans-Serif" font-size="10.00">OgreBuildSettings.h</text>
</g>
<!-- Node4&#45;&gt;Node5 -->
<g id="edge4" class="edge"><title>Node4&#45;&gt;Node5</title>
<path fill="none" stroke="midnightblue" d="M52,-56.083C52,-49.0059 52,-38.8611 52,-29.9865"/>
<polygon fill="midnightblue" stroke="midnightblue" points="55.5001,-29.751 52,-19.7511 48.5001,-29.7511 55.5001,-29.751"/>
</g>
<!-- Node7&#45;&gt;Node6 -->
<g id="edge16" class="edge"><title>Node7&#45;&gt;Node6</title>
<path fill="none" stroke="midnightblue" d="M1483.15,-119.804C1632.57,-115.935 2080.8,-102.533 2247.41,-75.5593"/>
<polygon fill="midnightblue" stroke="midnightblue" points="2248.22,-78.971 2257.5,-73.8472 2247.05,-72.0697 2248.22,-78.971"/>
</g>
<!-- Node8 -->
<g id="node8" class="node"><title>Node8</title>
<polygon fill="none" stroke="#bfbfbf" points="1345.5,-56.5 1345.5,-75.5 1394.5,-75.5 1394.5,-56.5 1345.5,-56.5"/>
<text text-anchor="middle" x="1370" y="-63.5" font-family="Helvetica,sans-Serif" font-size="10.00">cassert</text>
</g>
<!-- Node7&#45;&gt;Node8 -->
<g id="edge7" class="edge"><title>Node7&#45;&gt;Node8</title>
<path fill="none" stroke="midnightblue" d="M1423.72,-112.324C1414.16,-104.263 1399.72,-92.0765 1388.22,-82.3695"/>
<polygon fill="midnightblue" stroke="midnightblue" points="1390.37,-79.6076 1380.47,-75.8339 1385.86,-84.9577 1390.37,-79.6076"/>
</g>
<!-- Node9 -->
<g id="node9" class="node"><title>Node9</title>
<polygon fill="none" stroke="#bfbfbf" points="1412.5,-56.5 1412.5,-75.5 1455.5,-75.5 1455.5,-56.5 1412.5,-56.5"/>
<text text-anchor="middle" x="1434" y="-63.5" font-family="Helvetica,sans-Serif" font-size="10.00">cstdio</text>
</g>
<!-- Node7&#45;&gt;Node9 -->
<g id="edge8" class="edge"><title>Node7&#45;&gt;Node9</title>
<path fill="none" stroke="midnightblue" d="M1434,-112.083C1434,-105.006 1434,-94.8611 1434,-85.9865"/>
<polygon fill="midnightblue" stroke="midnightblue" points="1437.5,-85.751 1434,-75.7511 1430.5,-85.7511 1437.5,-85.751"/>
</g>
<!-- Node10 -->
<g id="node10" class="node"><title>Node10</title>
<polygon fill="none" stroke="#bfbfbf" points="1473.5,-56.5 1473.5,-75.5 1518.5,-75.5 1518.5,-56.5 1473.5,-56.5"/>
<text text-anchor="middle" x="1496" y="-63.5" font-family="Helvetica,sans-Serif" font-size="10.00">cstdlib</text>
</g>
<!-- Node7&#45;&gt;Node10 -->
<g id="edge9" class="edge"><title>Node7&#45;&gt;Node10</title>
<path fill="none" stroke="midnightblue" d="M1443.96,-112.324C1453.13,-104.341 1466.94,-92.3128 1478.03,-82.6529"/>
<polygon fill="midnightblue" stroke="midnightblue" points="1480.62,-85.041 1485.86,-75.8339 1476.02,-79.7624 1480.62,-85.041"/>
</g>
<!-- Node11 -->
<g id="node11" class="node"><title>Node11</title>
<polygon fill="none" stroke="#bfbfbf" points="1536.5,-56.5 1536.5,-75.5 1577.5,-75.5 1577.5,-56.5 1536.5,-56.5"/>
<text text-anchor="middle" x="1557" y="-63.5" font-family="Helvetica,sans-Serif" font-size="10.00">ctime</text>
</g>
<!-- Node7&#45;&gt;Node11 -->
<g id="edge10" class="edge"><title>Node7&#45;&gt;Node11</title>
<path fill="none" stroke="midnightblue" d="M1453.49,-112.444C1473.64,-103.596 1505.32,-89.6875 1528.33,-79.5865"/>
<polygon fill="midnightblue" stroke="midnightblue" points="1529.85,-82.7411 1537.6,-75.5164 1527.04,-76.3316 1529.85,-82.7411"/>
</g>
<!-- Node12 -->
<g id="node12" class="node"><title>Node12</title>
<polygon fill="none" stroke="#bfbfbf" points="1596,-56.5 1596,-75.5 1642,-75.5 1642,-56.5 1596,-56.5"/>
<text text-anchor="middle" x="1619" y="-63.5" font-family="Helvetica,sans-Serif" font-size="10.00">cstring</text>
</g>
<!-- Node7&#45;&gt;Node12 -->
<g id="edge11" class="edge"><title>Node7&#45;&gt;Node12</title>
<path fill="none" stroke="midnightblue" d="M1463.31,-112.444C1496.79,-102.672 1551.42,-86.7275 1586.26,-76.5567"/>
<polygon fill="midnightblue" stroke="midnightblue" points="1587.34,-79.8869 1595.96,-73.7251 1585.38,-73.1673 1587.34,-79.8869"/>
</g>
<!-- Node13 -->
<g id="node13" class="node"><title>Node13</title>
<polygon fill="none" stroke="#bfbfbf" points="1660.5,-56.5 1660.5,-75.5 1709.5,-75.5 1709.5,-56.5 1660.5,-56.5"/>
<text text-anchor="middle" x="1685" y="-63.5" font-family="Helvetica,sans-Serif" font-size="10.00">cstdarg</text>
</g>
<!-- Node7&#45;&gt;Node13 -->
<g id="edge12" class="edge"><title>Node7&#45;&gt;Node13</title>
<path fill="none" stroke="midnightblue" d="M1478.62,-112.482C1520.46,-104.332 1584.96,-91.3452 1650.12,-76.1069"/>
<polygon fill="midnightblue" stroke="midnightblue" points="1651.23,-79.4424 1660.16,-73.7427 1649.62,-72.6288 1651.23,-79.4424"/>
</g>
<!-- Node14 -->
<g id="node14" class="node"><title>Node14</title>
<polygon fill="none" stroke="#bfbfbf" points="1728,-56.5 1728,-75.5 1772,-75.5 1772,-56.5 1728,-56.5"/>
<text text-anchor="middle" x="1750" y="-63.5" font-family="Helvetica,sans-Serif" font-size="10.00">cmath</text>
</g>
<!-- Node7&#45;&gt;Node14 -->
<g id="edge13" class="edge"><title>Node7&#45;&gt;Node14</title>
<path fill="none" stroke="midnightblue" d="M1483.07,-115C1537.89,-107.902 1629.41,-94.8779 1717.78,-75.8011"/>
<polygon fill="midnightblue" stroke="midnightblue" points="1718.68,-79.1865 1727.7,-73.6301 1717.19,-72.3482 1718.68,-79.1865"/>
</g>
<!-- Node15 -->
<g id="node15" class="node"><title>Node15</title>
<polygon fill="none" stroke="#bfbfbf" points="1790,-56.5 1790,-75.5 1834,-75.5 1834,-56.5 1790,-56.5"/>
<text text-anchor="middle" x="1812" y="-63.5" font-family="Helvetica,sans-Serif" font-size="10.00">vector</text>
</g>
<!-- Node7&#45;&gt;Node15 -->
<g id="edge14" class="edge"><title>Node7&#45;&gt;Node15</title>
<path fill="none" stroke="midnightblue" d="M1483.24,-117.014C1548.89,-111.173 1668.76,-98.667 1779.73,-75.9843"/>
<polygon fill="midnightblue" stroke="midnightblue" points="1780.67,-79.3633 1789.75,-73.9026 1779.25,-72.5096 1780.67,-79.3633"/>
</g>
<!-- Node16 -->
<g id="node16" class="node"><title>Node16</title>
<polygon fill="none" stroke="#bfbfbf" points="1852.5,-56.5 1852.5,-75.5 1887.5,-75.5 1887.5,-56.5 1852.5,-56.5"/>
<text text-anchor="middle" x="1870" y="-63.5" font-family="Helvetica,sans-Serif" font-size="10.00">map</text>
</g>
<!-- Node7&#45;&gt;Node16 -->
<g id="edge15" class="edge"><title>Node7&#45;&gt;Node16</title>
<path fill="none" stroke="midnightblue" d="M1483.02,-118.966C1558.44,-115.106 1707.45,-104.583 1842.33,-75.6581"/>
<polygon fill="midnightblue" stroke="midnightblue" points="1843.41,-79.0056 1852.43,-73.4518 1841.91,-72.1669 1843.41,-79.0056"/>
</g>
<!-- Node17 -->
<g id="node17" class="node"><title>Node17</title>
<polygon fill="none" stroke="#bfbfbf" points="1906,-56.5 1906,-75.5 1936,-75.5 1936,-56.5 1906,-56.5"/>
<text text-anchor="middle" x="1921" y="-63.5" font-family="Helvetica,sans-Serif" font-size="10.00">set</text>
</g>
<!-- Node7&#45;&gt;Node17 -->
<g id="edge17" class="edge"><title>Node7&#45;&gt;Node17</title>
<path fill="none" stroke="midnightblue" d="M1483.19,-120.202C1568.32,-117.938 1748.19,-109.259 1896,-76 1896.1,-75.9772 1896.2,-75.9541 1896.3,-75.9308"/>
<polygon fill="midnightblue" stroke="midnightblue" points="1897.23,-79.3066 1905.84,-73.1347 1895.26,-72.5893 1897.23,-79.3066"/>
</g>
<!-- Node18 -->
<g id="node18" class="node"><title>Node18</title>
<polygon fill="none" stroke="#bfbfbf" points="1954.5,-56.5 1954.5,-75.5 1983.5,-75.5 1983.5,-56.5 1954.5,-56.5"/>
<text text-anchor="middle" x="1969" y="-63.5" font-family="Helvetica,sans-Serif" font-size="10.00">list</text>
</g>
<!-- Node7&#45;&gt;Node18 -->
<g id="edge18" class="edge"><title>Node7&#45;&gt;Node18</title>
<path fill="none" stroke="midnightblue" d="M1483.3,-121.062C1573.55,-120.228 1771.18,-114.005 1944.66,-75.3901"/>
<polygon fill="midnightblue" stroke="midnightblue" points="1945.49,-78.7899 1954.47,-73.1651 1943.94,-71.9632 1945.49,-78.7899"/>
</g>
<!-- Node19 -->
<g id="node19" class="node"><title>Node19</title>
<polygon fill="none" stroke="#bfbfbf" points="2001.5,-56.5 2001.5,-75.5 2044.5,-75.5 2044.5,-56.5 2001.5,-56.5"/>
<text text-anchor="middle" x="2023" y="-63.5" font-family="Helvetica,sans-Serif" font-size="10.00">deque</text>
</g>
<!-- Node7&#45;&gt;Node19 -->
<g id="edge19" class="edge"><title>Node7&#45;&gt;Node19</title>
<path fill="none" stroke="midnightblue" d="M1483.32,-120.357C1579.47,-118.385 1798.65,-110.361 1991.42,-75.6917"/>
<polygon fill="midnightblue" stroke="midnightblue" points="1992.25,-79.0995 2001.45,-73.8591 1990.99,-72.2135 1992.25,-79.0995"/>
</g>
<!-- Node20 -->
<g id="node20" class="node"><title>Node20</title>
<polygon fill="none" stroke="#bfbfbf" points="2062.5,-56.5 2062.5,-75.5 2105.5,-75.5 2105.5,-56.5 2062.5,-56.5"/>
<text text-anchor="middle" x="2084" y="-63.5" font-family="Helvetica,sans-Serif" font-size="10.00">queue</text>
</g>
<!-- Node7&#45;&gt;Node20 -->
<g id="edge20" class="edge"><title>Node7&#45;&gt;Node20</title>
<path fill="none" stroke="midnightblue" d="M1483.39,-120.913C1587.25,-119.977 1835.87,-113.78 2052.49,-75.6617"/>
<polygon fill="midnightblue" stroke="midnightblue" points="2053.23,-79.0856 2062.46,-73.8814 2052,-72.1947 2053.23,-79.0856"/>
</g>
<!-- Node21 -->
<g id="node21" class="node"><title>Node21</title>
<polygon fill="none" stroke="#bfbfbf" points="2123.5,-56.5 2123.5,-75.5 2164.5,-75.5 2164.5,-56.5 2123.5,-56.5"/>
<text text-anchor="middle" x="2144" y="-63.5" font-family="Helvetica,sans-Serif" font-size="10.00">bitset</text>
</g>
<!-- Node7&#45;&gt;Node21 -->
<g id="edge21" class="edge"><title>Node7&#45;&gt;Node21</title>
<path fill="none" stroke="midnightblue" d="M1483.11,-121.52C1594.13,-121.888 1872.8,-118.282 2113.5,-75.6139"/>
<polygon fill="midnightblue" stroke="midnightblue" points="2114.27,-79.0326 2123.49,-73.817 2113.03,-72.1432 2114.27,-79.0326"/>
</g>
<!-- Node22 -->
<g id="node22" class="node"><title>Node22</title>
<polygon fill="none" stroke="#bfbfbf" points="2183,-56.5 2183,-75.5 2239,-75.5 2239,-56.5 2183,-56.5"/>
<text text-anchor="middle" x="2211" y="-63.5" font-family="Helvetica,sans-Serif" font-size="10.00">algorithm</text>
</g>
<!-- Node7&#45;&gt;Node22 -->
<g id="edge22" class="edge"><title>Node7&#45;&gt;Node22</title>
<path fill="none" stroke="midnightblue" d="M1483.16,-120.913C1602.21,-120.073 1915.19,-114.091 2173,-76 2173.1,-75.9851 2173.2,-75.9701 2173.3,-75.955"/>
<polygon fill="midnightblue" stroke="midnightblue" points="2173.66,-79.4466 2182.88,-74.2274 2172.42,-72.5577 2173.66,-79.4466"/>
</g>
<!-- Node23 -->
<g id="node23" class="node"><title>Node23</title>
<polygon fill="none" stroke="#bfbfbf" points="107.5,-56.5 107.5,-75.5 166.5,-75.5 166.5,-56.5 107.5,-56.5"/>
<text text-anchor="middle" x="137" y="-63.5" font-family="Helvetica,sans-Serif" font-size="10.00">functional</text>
</g>
<!-- Node7&#45;&gt;Node23 -->
<g id="edge23" class="edge"><title>Node7&#45;&gt;Node23</title>
<path fill="none" stroke="midnightblue" d="M1384.69,-120.495C1185.12,-118.258 436.066,-107.959 176.829,-75.7722"/>
<polygon fill="midnightblue" stroke="midnightblue" points="177.068,-72.2742 166.704,-74.4704 176.176,-79.2171 177.068,-72.2742"/>
</g>
<!-- Node24 -->
<g id="node24" class="node"><title>Node24</title>
<polygon fill="none" stroke="#bfbfbf" points="185,-56.5 185,-75.5 225,-75.5 225,-56.5 185,-56.5"/>
<text text-anchor="middle" x="205" y="-63.5" font-family="Helvetica,sans-Serif" font-size="10.00">limits</text>
</g>
<!-- Node7&#45;&gt;Node24 -->
<g id="edge24" class="edge"><title>Node7&#45;&gt;Node24</title>
<path fill="none" stroke="midnightblue" d="M1384.91,-120.879C1191.43,-120.142 480.628,-114.896 235.057,-75.6383"/>
<polygon fill="midnightblue" stroke="midnightblue" points="235.554,-72.1731 225.116,-73.9862 234.407,-79.0784 235.554,-72.1731"/>
</g>
<!-- Node25 -->
<g id="node25" class="node"><title>Node25</title>
<polygon fill="none" stroke="#bfbfbf" points="243,-56.5 243,-75.5 293,-75.5 293,-56.5 243,-56.5"/>
<text text-anchor="middle" x="268" y="-63.5" font-family="Helvetica,sans-Serif" font-size="10.00">fstream</text>
</g>
<!-- Node7&#45;&gt;Node25 -->
<g id="edge25" class="edge"><title>Node7&#45;&gt;Node25</title>
<path fill="none" stroke="midnightblue" d="M1384.87,-120.478C1198.63,-118.28 535.406,-108.411 303.19,-75.7769"/>
<polygon fill="midnightblue" stroke="midnightblue" points="303.523,-72.2885 293.122,-74.3063 302.511,-79.215 303.523,-72.2885"/>
</g>
<!-- Node26 -->
<g id="node26" class="node"><title>Node26</title>
<polygon fill="none" stroke="#bfbfbf" points="311.5,-56.5 311.5,-75.5 356.5,-75.5 356.5,-56.5 311.5,-56.5"/>
<text text-anchor="middle" x="334" y="-63.5" font-family="Helvetica,sans-Serif" font-size="10.00">iosfwd</text>
</g>
<!-- Node7&#45;&gt;Node26 -->
<g id="edge26" class="edge"><title>Node7&#45;&gt;Node26</title>
<path fill="none" stroke="midnightblue" d="M1384.85,-120.441C1205.53,-118.172 585.996,-108.246 366.717,-75.6216"/>
<polygon fill="midnightblue" stroke="midnightblue" points="366.999,-72.1237 356.581,-74.0509 365.927,-79.0411 366.999,-72.1237"/>
</g>
<!-- Node27 -->
<g id="node27" class="node"><title>Node27</title>
<polygon fill="none" stroke="#bfbfbf" points="375,-56.5 375,-75.5 427,-75.5 427,-56.5 375,-56.5"/>
<text text-anchor="middle" x="401" y="-63.5" font-family="Helvetica,sans-Serif" font-size="10.00">sstream</text>
</g>
<!-- Node7&#45;&gt;Node27 -->
<g id="edge27" class="edge"><title>Node7&#45;&gt;Node27</title>
<path fill="none" stroke="midnightblue" d="M1384.83,-120.128C1213.36,-116.879 641.639,-104.264 437.286,-75.8252"/>
<polygon fill="midnightblue" stroke="midnightblue" points="437.652,-72.3419 427.254,-74.3714 436.648,-79.2695 437.652,-72.3419"/>
</g>
<!-- Node28 -->
<g id="node28" class="node"><title>Node28</title>
<polygon fill="none" stroke="#bfbfbf" points="445,-56.5 445,-75.5 513,-75.5 513,-56.5 445,-56.5"/>
<text text-anchor="middle" x="479" y="-63.5" font-family="Helvetica,sans-Serif" font-size="10.00">sys/types.h</text>
</g>
<!-- Node7&#45;&gt;Node28 -->
<g id="edge28" class="edge"><title>Node7&#45;&gt;Node28</title>
<path fill="none" stroke="midnightblue" d="M1384.82,-121.279C1249.07,-121.474 857.577,-118.149 523.548,-75.9834"/>
<polygon fill="midnightblue" stroke="midnightblue" points="523.548,-72.455 513.185,-74.6603 522.661,-79.3986 523.548,-72.455"/>
</g>
<!-- Node29 -->
<g id="node29" class="node"><title>Node29</title>
<polygon fill="none" stroke="#bfbfbf" points="531,-56.5 531,-75.5 591,-75.5 591,-56.5 531,-56.5"/>
<text text-anchor="middle" x="561" y="-63.5" font-family="Helvetica,sans-Serif" font-size="10.00">sys/stat.h</text>
</g>
<!-- Node7&#45;&gt;Node29 -->
<g id="edge29" class="edge"><title>Node7&#45;&gt;Node29</title>
<path fill="none" stroke="midnightblue" d="M1384.83,-121.303C1257.02,-121.459 903.82,-117.868 601.421,-75.9404"/>
<polygon fill="midnightblue" stroke="midnightblue" points="601.527,-72.421 591.137,-74.4969 600.553,-79.353 601.527,-72.421"/>
</g>
<!-- Node30 -->
<g id="node30" class="node"><title>Node30</title>
<polygon fill="none" stroke="#bfbfbf" points="609.5,-56.5 609.5,-75.5 660.5,-75.5 660.5,-56.5 609.5,-56.5"/>
<text text-anchor="middle" x="635" y="-63.5" font-family="Helvetica,sans-Serif" font-size="10.00">unistd.h</text>
</g>
<!-- Node7&#45;&gt;Node30 -->
<g id="edge30" class="edge"><title>Node7&#45;&gt;Node30</title>
<path fill="none" stroke="midnightblue" d="M1384.94,-121.373C1264.63,-121.592 945.384,-117.954 671.028,-75.8266"/>
<polygon fill="midnightblue" stroke="midnightblue" points="671.297,-72.3264 660.877,-74.2471 670.22,-79.2432 671.297,-72.3264"/>
</g>
<!-- Node31 -->
<g id="node31" class="node"><title>Node31</title>
<polygon fill="none" stroke="#bfbfbf" points="679,-56.5 679,-75.5 725,-75.5 725,-56.5 679,-56.5"/>
<text text-anchor="middle" x="702" y="-63.5" font-family="Helvetica,sans-Serif" font-size="10.00">dlfcn.h</text>
</g>
<!-- Node7&#45;&gt;Node31 -->
<g id="edge31" class="edge"><title>Node7&#45;&gt;Node31</title>
<path fill="none" stroke="midnightblue" d="M1384.79,-121.368C1271.45,-121.46 983.311,-117.376 735.211,-75.845"/>
<polygon fill="midnightblue" stroke="midnightblue" points="735.734,-72.3838 725.289,-74.1603 734.562,-79.285 735.734,-72.3838"/>
</g>
<!-- Node32 -->
<g id="node32" class="node"><title>Node32</title>
<polygon fill="none" stroke="#bfbfbf" points="743,-56.5 743,-75.5 821,-75.5 821,-56.5 743,-56.5"/>
<text text-anchor="middle" x="782" y="-63.5" font-family="Helvetica,sans-Serif" font-size="10.00">ext/hash_map</text>
</g>
<!-- Node7&#45;&gt;Node32 -->
<g id="edge32" class="edge"><title>Node7&#45;&gt;Node32</title>
<path fill="none" stroke="midnightblue" d="M1384.88,-119.189C1283.34,-115.047 1042.81,-103.169 831.286,-76.0278"/>
<polygon fill="midnightblue" stroke="midnightblue" points="831.603,-72.5397 821.236,-74.7238 830.703,-79.4815 831.603,-72.5397"/>
</g>
<!-- Node33 -->
<g id="node33" class="node"><title>Node33</title>
<polygon fill="none" stroke="#bfbfbf" points="839.5,-56.5 839.5,-75.5 912.5,-75.5 912.5,-56.5 839.5,-56.5"/>
<text text-anchor="middle" x="876" y="-63.5" font-family="Helvetica,sans-Serif" font-size="10.00">ext/hash_set</text>
</g>
<!-- Node7&#45;&gt;Node33 -->
<g id="edge33" class="edge"><title>Node7&#45;&gt;Node33</title>
<path fill="none" stroke="midnightblue" d="M1384.99,-118.498C1295.16,-113.523 1097.97,-100.79 922.697,-76.1109"/>
<polygon fill="midnightblue" stroke="midnightblue" points="923.174,-72.6436 912.78,-74.6983 922.187,-79.5736 923.174,-72.6436"/>
</g>
<!-- Node34 -->
<g id="node34" class="node"><title>Node34</title>
<polygon fill="none" stroke="#bfbfbf" points="930.5,-56.5 930.5,-75.5 1001.5,-75.5 1001.5,-56.5 930.5,-56.5"/>
<text text-anchor="middle" x="966" y="-63.5" font-family="Helvetica,sans-Serif" font-size="10.00">sys/param.h</text>
</g>
<!-- Node7&#45;&gt;Node34 -->
<g id="edge34" class="edge"><title>Node7&#45;&gt;Node34</title>
<path fill="none" stroke="midnightblue" d="M1384.96,-117.248C1307.8,-111.024 1153.16,-97.2549 1011.95,-76.0112"/>
<polygon fill="midnightblue" stroke="midnightblue" points="1012.22,-72.5121 1001.81,-74.4687 1011.17,-79.4325 1012.22,-72.5121"/>
</g>
<!-- Node35 -->
<g id="node35" class="node"><title>Node35</title>
<polygon fill="none" stroke="#bfbfbf" points="1020,-56.5 1020,-75.5 1186,-75.5 1186,-56.5 1020,-56.5"/>
<text text-anchor="middle" x="1103" y="-63.5" font-family="Helvetica,sans-Serif" font-size="10.00">CoreFoundation/CoreFoundation.h</text>
</g>
<!-- Node7&#45;&gt;Node35 -->
<g id="edge35" class="edge"><title>Node7&#45;&gt;Node35</title>
<path fill="none" stroke="midnightblue" d="M1384.8,-112.974C1326.34,-103.436 1228.72,-87.5109 1165.11,-77.1324"/>
<polygon fill="midnightblue" stroke="midnightblue" points="1165.63,-73.6721 1155.2,-75.5162 1164.51,-80.5807 1165.63,-73.6721"/>
</g>
<!-- Node36 -->
<g id="node36" class="node"><title>Node36</title>
<polygon fill="none" stroke="#bfbfbf" points="1204,-56.5 1204,-75.5 1328,-75.5 1328,-56.5 1204,-56.5"/>
<text text-anchor="middle" x="1266" y="-63.5" font-family="Helvetica,sans-Serif" font-size="10.00">emscripten/emscripten.h</text>
</g>
<!-- Node7&#45;&gt;Node36 -->
<g id="edge36" class="edge"><title>Node7&#45;&gt;Node36</title>
<path fill="none" stroke="midnightblue" d="M1407.38,-112.444C1378.99,-103.32 1333.86,-88.8133 1302.25,-78.6509"/>
<polygon fill="midnightblue" stroke="midnightblue" points="1303.09,-75.2445 1292.5,-75.5164 1300.94,-81.9087 1303.09,-75.2445"/>
</g>
<!-- Node38 -->
<g id="node38" class="node"><title>Node38</title>
<g id="a_node38"><a xlink:href="_ogre_memory_allocated_object_8h.html" target="_top" xlink:title="OgreMemoryAllocatedObject.h">
<polygon fill="none" stroke="black" points="2660,-56.5 2660,-75.5 2810,-75.5 2810,-56.5 2660,-56.5"/>
<text text-anchor="middle" x="2735" y="-63.5" font-family="Helvetica,sans-Serif" font-size="10.00">OgreMemoryAllocatedObject.h</text>
</a>
</g>
</g>
<!-- Node37&#45;&gt;Node38 -->
<g id="edge38" class="edge"><title>Node37&#45;&gt;Node38</title>
<path fill="none" stroke="midnightblue" d="M2556.59,-112.444C2593.19,-103.122 2651.84,-88.1828 2691.83,-77.9972"/>
<polygon fill="midnightblue" stroke="midnightblue" points="2692.74,-81.3766 2701.57,-75.5164 2691.01,-74.5932 2692.74,-81.3766"/>
</g>
<!-- Node37&#45;&gt;Node39 -->
<g id="edge42" class="edge"><title>Node37&#45;&gt;Node39</title>
<path fill="none" stroke="midnightblue" d="M2516.49,-112.253C2508.09,-99.8502 2495.17,-76.3902 2501,-56 2503.9,-45.8435 2509.83,-35.747 2515.49,-27.6991"/>
<polygon fill="midnightblue" stroke="midnightblue" points="2518.38,-29.6853 2521.59,-19.5891 2512.78,-25.4786 2518.38,-29.6853"/>
</g>
<!-- Node37&#45;&gt;Node40 -->
<g id="edge50" class="edge"><title>Node37&#45;&gt;Node40</title>
<path fill="none" stroke="midnightblue" d="M2597.31,-120.335C2675.47,-117.871 2790.96,-108.62 2819,-76 2831.67,-61.2611 2817.26,-40.816 2803.71,-26.8139"/>
<polygon fill="midnightblue" stroke="midnightblue" points="2806.06,-24.2188 2796.44,-19.7749 2801.19,-29.2466 2806.06,-24.2188"/>
</g>
<!-- Node41 -->
<g id="node41" class="node"><title>Node41</title>
<g id="a_node41"><a xlink:href="_ogre_memory_s_t_l_allocator_8h.html" target="_top" xlink:title="OgreMemorySTLAllocator.h">
<polygon fill="none" stroke="black" points="2316.5,-56.5 2316.5,-75.5 2453.5,-75.5 2453.5,-56.5 2316.5,-56.5"/>
<text text-anchor="middle" x="2385" y="-63.5" font-family="Helvetica,sans-Serif" font-size="10.00">OgreMemorySTLAllocator.h</text>
</a>
</g>
</g>
<!-- Node37&#45;&gt;Node41 -->
<g id="edge43" class="edge"><title>Node37&#45;&gt;Node41</title>
<path fill="none" stroke="midnightblue" d="M2501.13,-112.444C2478.22,-103.478 2442.02,-89.314 2416.13,-79.1827"/>
<polygon fill="midnightblue" stroke="midnightblue" points="2417.35,-75.9011 2406.76,-75.5164 2414.8,-82.4198 2417.35,-75.9011"/>
</g>
<!-- Node42 -->
<g id="node42" class="node"><title>Node42</title>
<g id="a_node42"><a xlink:href="_ogre_memory_ned_pooling_8h.html" target="_top" xlink:title="OgreMemoryNedPooling.h">
<polygon fill="none" stroke="black" points="2510.5,-56.5 2510.5,-75.5 2641.5,-75.5 2641.5,-56.5 2510.5,-56.5"/>
<text text-anchor="middle" x="2576" y="-63.5" font-family="Helvetica,sans-Serif" font-size="10.00">OgreMemoryNedPooling.h</text>
</a>
</g>
</g>
<!-- Node37&#45;&gt;Node42 -->
<g id="edge47" class="edge"><title>Node37&#45;&gt;Node42</title>
<path fill="none" stroke="midnightblue" d="M2531.75,-112.083C2539.47,-104.22 2550.9,-92.5688 2560.22,-83.0813"/>
<polygon fill="midnightblue" stroke="midnightblue" points="2562.9,-85.3396 2567.41,-75.7511 2557.91,-80.4363 2562.9,-85.3396"/>
</g>
<!-- Node38&#45;&gt;Node2 -->
<g id="edge39" class="edge"><title>Node38&#45;&gt;Node2</title>
<path fill="none" stroke="midnightblue" d="M2720.85,-75.7183C2697.68,-89.6231 2649.83,-116.799 2606,-132 2553.72,-150.129 2491.82,-161.955 2446.85,-168.913"/>
<polygon fill="midnightblue" stroke="midnightblue" points="2446.31,-165.454 2436.95,-170.409 2447.36,-172.376 2446.31,-165.454"/>
</g>
<!-- Node38&#45;&gt;Node39 -->
<g id="edge40" class="edge"><title>Node38&#45;&gt;Node39</title>
<path fill="none" stroke="midnightblue" d="M2702.36,-56.4435C2666.95,-47.1616 2610.29,-32.3093 2571.45,-22.127"/>
<polygon fill="midnightblue" stroke="midnightblue" points="2572.05,-18.6666 2561.49,-19.5164 2570.27,-25.4378 2572.05,-18.6666"/>
</g>
<!-- Node38&#45;&gt;Node40 -->
<g id="edge41" class="edge"><title>Node38&#45;&gt;Node40</title>
<path fill="none" stroke="midnightblue" d="M2743.42,-56.083C2750.85,-48.2195 2761.85,-36.5688 2770.81,-27.0813"/>
<polygon fill="midnightblue" stroke="midnightblue" points="2773.41,-29.4244 2777.74,-19.7511 2768.32,-24.618 2773.41,-29.4244"/>
</g>
<!-- Node41&#45;&gt;Node2 -->
<g id="edge44" class="edge"><title>Node41&#45;&gt;Node2</title>
<path fill="none" stroke="midnightblue" d="M2385,-75.5914C2385,-93.3079 2385,-134.254 2385,-158.348"/>
<polygon fill="midnightblue" stroke="midnightblue" points="2381.5,-158.368 2385,-168.368 2388.5,-158.369 2381.5,-158.368"/>
</g>
<!-- Node41&#45;&gt;Node39 -->
<g id="edge45" class="edge"><title>Node41&#45;&gt;Node39</title>
<path fill="none" stroke="midnightblue" d="M2407.82,-56.4435C2431.83,-47.4381 2469.83,-33.1891 2496.87,-23.049"/>
<polygon fill="midnightblue" stroke="midnightblue" points="2498.16,-26.3049 2506.29,-19.5164 2495.7,-19.7506 2498.16,-26.3049"/>
</g>
<!-- Node41&#45;&gt;Node40 -->
<g id="edge46" class="edge"><title>Node41&#45;&gt;Node40</title>
<path fill="none" stroke="midnightblue" d="M2448.54,-56.4435C2524.05,-46.2751 2649.2,-29.4214 2724.02,-19.3462"/>
<polygon fill="midnightblue" stroke="midnightblue" points="2724.79,-22.7743 2734.23,-17.971 2723.86,-15.837 2724.79,-22.7743"/>
</g>
<!-- Node42&#45;&gt;Node39 -->
<g id="edge48" class="edge"><title>Node42&#45;&gt;Node39</title>
<path fill="none" stroke="midnightblue" d="M2568.24,-56.083C2561.46,-48.2982 2551.46,-36.8015 2543.24,-27.3665"/>
<polygon fill="midnightblue" stroke="midnightblue" points="2545.82,-24.9963 2536.62,-19.7511 2540.54,-29.592 2545.82,-24.9963"/>
</g>
<!-- Node42&#45;&gt;Node40 -->
<g id="edge49" class="edge"><title>Node42&#45;&gt;Node40</title>
<path fill="none" stroke="midnightblue" d="M2609.28,-56.4435C2645.45,-47.1419 2703.38,-32.246 2742.98,-22.062"/>
<polygon fill="midnightblue" stroke="midnightblue" points="2744.07,-25.3966 2752.88,-19.5164 2742.32,-18.6172 2744.07,-25.3966"/>
</g>
<!-- Node43&#45;&gt;Node39 -->
<g id="edge52" class="edge"><title>Node43&#45;&gt;Node39</title>
<path fill="none" stroke="midnightblue" d="M2865.78,-58.8581C2798.39,-49.2812 2668,-30.7526 2590.73,-19.7715"/>
<polygon fill="midnightblue" stroke="midnightblue" points="2591.04,-16.2814 2580.65,-18.3395 2590.06,-23.2117 2591.04,-16.2814"/>
</g>
<!-- Node43&#45;&gt;Node40 -->
<g id="edge53" class="edge"><title>Node43&#45;&gt;Node40</title>
<path fill="none" stroke="midnightblue" d="M2889.51,-56.4435C2869.36,-47.5961 2837.68,-33.6875 2814.67,-23.5865"/>
<polygon fill="midnightblue" stroke="midnightblue" points="2815.96,-20.3316 2805.4,-19.5164 2813.15,-26.7411 2815.96,-20.3316"/>
</g>
<!-- Node45 -->
<g id="node45" class="node"><title>Node45</title>
<g id="a_node45"><a xlink:href="_ogre_thread_defines_8h.html" target="_top" xlink:title="OgreThreadDefines.h">
<polygon fill="none" stroke="black" points="3032,-112.5 3032,-131.5 3142,-131.5 3142,-112.5 3032,-112.5"/>
<text text-anchor="middle" x="3087" y="-119.5" font-family="Helvetica,sans-Serif" font-size="10.00">OgreThreadDefines.h</text>
</a>
</g>
</g>
<!-- Node44&#45;&gt;Node45 -->
<g id="edge55" class="edge"><title>Node44&#45;&gt;Node45</title>
<path fill="none" stroke="midnightblue" d="M3087,-168.083C3087,-161.006 3087,-150.861 3087,-141.986"/>
<polygon fill="midnightblue" stroke="midnightblue" points="3090.5,-141.751 3087,-131.751 3083.5,-141.751 3090.5,-141.751"/>
</g>
<!-- Node46 -->
<g id="node46" class="node"><title>Node46</title>
<g id="a_node46"><a xlink:href="_ogre_thread_defines_none_8h.html" target="_top" xlink:title="OgreThreadDefinesNone.h">
<polygon fill="none" stroke="black" points="3020.5,-56.5 3020.5,-75.5 3153.5,-75.5 3153.5,-56.5 3020.5,-56.5"/>
<text text-anchor="middle" x="3087" y="-63.5" font-family="Helvetica,sans-Serif" font-size="10.00">OgreThreadDefinesNone.h</text>
</a>
</g>
</g>
<!-- Node45&#45;&gt;Node46 -->
<g id="edge56" class="edge"><title>Node45&#45;&gt;Node46</title>
<path fill="none" stroke="midnightblue" d="M3087,-112.083C3087,-105.006 3087,-94.8611 3087,-85.9865"/>
<polygon fill="midnightblue" stroke="midnightblue" points="3090.5,-85.751 3087,-75.7511 3083.5,-85.7511 3090.5,-85.751"/>
</g>
</g>
</svg>
