<?xml version="1.0" encoding="UTF-8" standalone="no"?>
<!DOCTYPE svg PUBLIC "-//W3C//DTD SVG 1.1//EN"
 "http://www.w3.org/Graphics/SVG/1.1/DTD/svg11.dtd">
<!-- Generated by graphviz version 2.38.0 (20140413.2041)
 -->
<!-- Title: OgreInstanceManager.h Pages: 1 -->
<svg width="3127pt" height="476pt"
 viewBox="0.00 0.00 3127.23 476.00" xmlns="http://www.w3.org/2000/svg" xmlns:xlink="http://www.w3.org/1999/xlink">
<g id="graph0" class="graph" transform="scale(1 1) rotate(0) translate(4 472)">
<title>OgreInstanceManager.h</title>
<!-- Node1 -->
<g id="node1" class="node"><title>Node1</title>
<polygon fill="#bfbfbf" stroke="black" points="2610.73,-448.5 2610.73,-467.5 2731.73,-467.5 2731.73,-448.5 2610.73,-448.5"/>
<text text-anchor="middle" x="2671.23" y="-455.5" font-family="Helvetica,sans-Serif" font-size="10.00">OgreInstanceManager.h</text>
</g>
<!-- Node2 -->
<g id="node2" class="node"><title>Node2</title>
<g id="a_node2"><a xlink:href="_ogre_prerequisites_8h.html" target="_top" xlink:title="OgrePrerequisites.h">
<polygon fill="none" stroke="black" points="2172.73,-168.5 2172.73,-187.5 2275.73,-187.5 2275.73,-168.5 2172.73,-168.5"/>
<text text-anchor="middle" x="2224.23" y="-175.5" font-family="Helvetica,sans-Serif" font-size="10.00">OgrePrerequisites.h</text>
</a>
</g>
</g>
<!-- Node1&#45;&gt;Node2 -->
<g id="edge1" class="edge"><title>Node1&#45;&gt;Node2</title>
<path fill="none" stroke="midnightblue" d="M2664.44,-448.124C2637.37,-413.385 2532.93,-285.54 2416.23,-224 2375.78,-202.67 2325.28,-191.348 2286.22,-185.397"/>
<polygon fill="midnightblue" stroke="midnightblue" points="2286.43,-181.892 2276.04,-183.927 2285.43,-188.82 2286.43,-181.892"/>
</g>
<!-- Node39 -->
<g id="node39" class="node"><title>Node39</title>
<g id="a_node39"><a xlink:href="_ogre_header_prefix_8h.html" target="_top" xlink:title="OgreHeaderPrefix.h">
<polygon fill="none" stroke="black" points="2416.73,-0.5 2416.73,-19.5 2519.73,-19.5 2519.73,-0.5 2416.73,-0.5"/>
<text text-anchor="middle" x="2468.23" y="-7.5" font-family="Helvetica,sans-Serif" font-size="10.00">OgreHeaderPrefix.h</text>
</a>
</g>
</g>
<!-- Node1&#45;&gt;Node39 -->
<g id="edge73" class="edge"><title>Node1&#45;&gt;Node39</title>
<path fill="none" stroke="midnightblue" d="M2610.45,-456.132C2213.02,-450.262 1.22916,-414.561 1.22916,-347 1.22916,-347 1.22916,-347 1.22916,-121 1.22916,-90.9022 -3.68749,-74.2721 20.2292,-56 69.0921,-18.6691 2030.72,-12.0569 2406.39,-11.1322"/>
<polygon fill="midnightblue" stroke="midnightblue" points="2406.53,-14.6319 2416.53,-11.1077 2406.52,-7.63194 2406.53,-14.6319"/>
</g>
<!-- Node40 -->
<g id="node40" class="node"><title>Node40</title>
<g id="a_node40"><a xlink:href="_ogre_header_suffix_8h.html" target="_top" xlink:title="OgreHeaderSuffix.h">
<polygon fill="none" stroke="black" points="2904.73,-0.5 2904.73,-19.5 3007.73,-19.5 3007.73,-0.5 2904.73,-0.5"/>
<text text-anchor="middle" x="2956.23" y="-7.5" font-family="Helvetica,sans-Serif" font-size="10.00">OgreHeaderSuffix.h</text>
</a>
</g>
</g>
<!-- Node1&#45;&gt;Node40 -->
<g id="edge74" class="edge"><title>Node1&#45;&gt;Node40</title>
<path fill="none" stroke="midnightblue" d="M2732.11,-454.711C2854.61,-448.444 3119.23,-425.787 3119.23,-347 3119.23,-347 3119.23,-347 3119.23,-121 3119.23,-65.7451 3054.08,-36.3893 3006.15,-22.2704"/>
<polygon fill="midnightblue" stroke="midnightblue" points="3007.1,-18.8994 2996.52,-19.5657 3005.2,-25.6388 3007.1,-18.8994"/>
</g>
<!-- Node43 -->
<g id="node43" class="node"><title>Node43</title>
<g id="a_node43"><a xlink:href="_ogre_render_operation_8h.html" target="_top" xlink:title="OgreRenderOperation.h">
<polygon fill="none" stroke="black" points="2240.73,-392.5 2240.73,-411.5 2359.73,-411.5 2359.73,-392.5 2240.73,-392.5"/>
<text text-anchor="middle" x="2300.23" y="-399.5" font-family="Helvetica,sans-Serif" font-size="10.00">OgreRenderOperation.h</text>
</a>
</g>
</g>
<!-- Node1&#45;&gt;Node43 -->
<g id="edge51" class="edge"><title>Node1&#45;&gt;Node43</title>
<path fill="none" stroke="midnightblue" d="M2612.44,-448.444C2546.23,-438.806 2438.76,-423.163 2368.78,-412.978"/>
<polygon fill="midnightblue" stroke="midnightblue" points="2369.14,-409.493 2358.74,-411.516 2368.13,-416.42 2369.14,-409.493"/>
</g>
<!-- Node3 -->
<g id="node3" class="node"><title>Node3</title>
<g id="a_node3"><a xlink:href="_ogre_platform_8h.html" target="_top" xlink:title="OgrePlatform.h">
<polygon fill="none" stroke="black" points="159.729,-112.5 159.729,-131.5 242.729,-131.5 242.729,-112.5 159.729,-112.5"/>
<text text-anchor="middle" x="201.229" y="-119.5" font-family="Helvetica,sans-Serif" font-size="10.00">OgrePlatform.h</text>
</a>
</g>
</g>
<!-- Node2&#45;&gt;Node3 -->
<g id="edge2" class="edge"><title>Node2&#45;&gt;Node3</title>
<path fill="none" stroke="midnightblue" d="M2172.7,-175.625C1890.68,-168.096 536.462,-131.948 253.234,-124.388"/>
<polygon fill="midnightblue" stroke="midnightblue" points="252.934,-120.879 242.844,-124.111 252.747,-127.877 252.934,-120.879"/>
</g>
<!-- Node6 -->
<g id="node6" class="node"><title>Node6</title>
<polygon fill="none" stroke="#bfbfbf" points="197.729,-56.5 197.729,-75.5 238.729,-75.5 238.729,-56.5 197.729,-56.5"/>
<text text-anchor="middle" x="218.229" y="-63.5" font-family="Helvetica,sans-Serif" font-size="10.00">string</text>
</g>
<!-- Node2&#45;&gt;Node6 -->
<g id="edge5" class="edge"><title>Node2&#45;&gt;Node6</title>
<path fill="none" stroke="midnightblue" d="M2172.67,-175.406C2013.18,-170.375 1513.68,-153.86 1100.23,-132 724.605,-112.14 623.453,-142.847 248.769,-75.6295"/>
<polygon fill="midnightblue" stroke="midnightblue" points="249.2,-72.1508 238.737,-73.8182 247.956,-79.0394 249.2,-72.1508"/>
</g>
<!-- Node7 -->
<g id="node7" class="node"><title>Node7</title>
<g id="a_node7"><a xlink:href="_ogre_std_headers_8h.html" target="_top" xlink:title="OgreStdHeaders.h">
<polygon fill="none" stroke="black" points="1109.23,-112.5 1109.23,-131.5 1207.23,-131.5 1207.23,-112.5 1109.23,-112.5"/>
<text text-anchor="middle" x="1158.23" y="-119.5" font-family="Helvetica,sans-Serif" font-size="10.00">OgreStdHeaders.h</text>
</a>
</g>
</g>
<!-- Node2&#45;&gt;Node7 -->
<g id="edge6" class="edge"><title>Node2&#45;&gt;Node7</title>
<path fill="none" stroke="midnightblue" d="M2172.45,-174.377C1994.25,-165.35 1406.85,-135.594 1217.57,-126.006"/>
<polygon fill="midnightblue" stroke="midnightblue" points="1217.7,-122.508 1207.53,-125.498 1217.34,-129.499 1217.7,-122.508"/>
</g>
<!-- Node37 -->
<g id="node37" class="node"><title>Node37</title>
<g id="a_node37"><a xlink:href="_ogre_memory_allocator_config_8h.html" target="_top" xlink:title="This file configures Ogre&#39;s memory allocators. ">
<polygon fill="none" stroke="black" points="2595.23,-112.5 2595.23,-131.5 2743.23,-131.5 2743.23,-112.5 2595.23,-112.5"/>
<text text-anchor="middle" x="2669.23" y="-119.5" font-family="Helvetica,sans-Serif" font-size="10.00">OgreMemoryAllocatorConfig.h</text>
</a>
</g>
</g>
<!-- Node2&#45;&gt;Node37 -->
<g id="edge37" class="edge"><title>Node2&#45;&gt;Node37</title>
<path fill="none" stroke="midnightblue" d="M2276.15,-170.7C2353.16,-161.354 2498.32,-143.74 2589.05,-132.729"/>
<polygon fill="midnightblue" stroke="midnightblue" points="2589.51,-136.199 2599.02,-131.52 2588.67,-129.25 2589.51,-136.199"/>
</g>
<!-- Node4 -->
<g id="node4" class="node"><title>Node4</title>
<g id="a_node4"><a xlink:href="_ogre_config_8h.html" target="_top" xlink:title="OgreConfig.h">
<polygon fill="none" stroke="black" points="29.2292,-56.5 29.2292,-75.5 103.229,-75.5 103.229,-56.5 29.2292,-56.5"/>
<text text-anchor="middle" x="66.2292" y="-63.5" font-family="Helvetica,sans-Serif" font-size="10.00">OgreConfig.h</text>
</a>
</g>
</g>
<!-- Node3&#45;&gt;Node4 -->
<g id="edge3" class="edge"><title>Node3&#45;&gt;Node4</title>
<path fill="none" stroke="midnightblue" d="M179.838,-112.444C157.522,-103.517 122.326,-89.4387 97.0212,-79.3168"/>
<polygon fill="midnightblue" stroke="midnightblue" points="98.1049,-75.9807 87.5202,-75.5164 95.5051,-82.4801 98.1049,-75.9807"/>
</g>
<!-- Node5 -->
<g id="node5" class="node"><title>Node5</title>
<polygon fill="none" stroke="#bfbfbf" points="14.2292,-0.5 14.2292,-19.5 118.229,-19.5 118.229,-0.5 14.2292,-0.5"/>
<text text-anchor="middle" x="66.2292" y="-7.5" font-family="Helvetica,sans-Serif" font-size="10.00">OgreBuildSettings.h</text>
</g>
<!-- Node4&#45;&gt;Node5 -->
<g id="edge4" class="edge"><title>Node4&#45;&gt;Node5</title>
<path fill="none" stroke="midnightblue" d="M66.2292,-56.083C66.2292,-49.0059 66.2292,-38.8611 66.2292,-29.9865"/>
<polygon fill="midnightblue" stroke="midnightblue" points="69.7293,-29.751 66.2292,-19.7511 62.7293,-29.7511 69.7293,-29.751"/>
</g>
<!-- Node7&#45;&gt;Node6 -->
<g id="edge16" class="edge"><title>Node7&#45;&gt;Node6</title>
<path fill="none" stroke="midnightblue" d="M1109.15,-120.137C947.958,-117.063 434.998,-105.31 248.678,-75.5258"/>
<polygon fill="midnightblue" stroke="midnightblue" points="249.169,-72.0595 238.729,-73.8634 248.016,-78.9638 249.169,-72.0595"/>
</g>
<!-- Node8 -->
<g id="node8" class="node"><title>Node8</title>
<polygon fill="none" stroke="#bfbfbf" points="2024.73,-56.5 2024.73,-75.5 2073.73,-75.5 2073.73,-56.5 2024.73,-56.5"/>
<text text-anchor="middle" x="2049.23" y="-63.5" font-family="Helvetica,sans-Serif" font-size="10.00">cassert</text>
</g>
<!-- Node7&#45;&gt;Node8 -->
<g id="edge7" class="edge"><title>Node7&#45;&gt;Node8</title>
<path fill="none" stroke="midnightblue" d="M1207.49,-119.801C1362.45,-115.817 1839.6,-101.867 2014.41,-75.9225"/>
<polygon fill="midnightblue" stroke="midnightblue" points="2015.14,-79.3501 2024.49,-74.3578 2014.07,-72.433 2015.14,-79.3501"/>
</g>
<!-- Node9 -->
<g id="node9" class="node"><title>Node9</title>
<polygon fill="none" stroke="#bfbfbf" points="2091.73,-56.5 2091.73,-75.5 2134.73,-75.5 2134.73,-56.5 2091.73,-56.5"/>
<text text-anchor="middle" x="2113.23" y="-63.5" font-family="Helvetica,sans-Serif" font-size="10.00">cstdio</text>
</g>
<!-- Node7&#45;&gt;Node9 -->
<g id="edge8" class="edge"><title>Node7&#45;&gt;Node9</title>
<path fill="none" stroke="midnightblue" d="M1207.47,-120.12C1370.46,-116.972 1892.22,-104.973 2081.59,-75.5887"/>
<polygon fill="midnightblue" stroke="midnightblue" points="2082.39,-79.0048 2091.7,-73.9491 2081.27,-72.0951 2082.39,-79.0048"/>
</g>
<!-- Node10 -->
<g id="node10" class="node"><title>Node10</title>
<polygon fill="none" stroke="#bfbfbf" points="2152.73,-56.5 2152.73,-75.5 2197.73,-75.5 2197.73,-56.5 2152.73,-56.5"/>
<text text-anchor="middle" x="2175.23" y="-63.5" font-family="Helvetica,sans-Serif" font-size="10.00">cstdlib</text>
</g>
<!-- Node7&#45;&gt;Node10 -->
<g id="edge9" class="edge"><title>Node7&#45;&gt;Node10</title>
<path fill="none" stroke="midnightblue" d="M1207.38,-120.239C1377.41,-117.379 1940.83,-105.946 2142.73,-75.5941"/>
<polygon fill="midnightblue" stroke="midnightblue" points="2143.31,-79.0468 2152.65,-74.0407 2142.23,-72.1312 2143.31,-79.0468"/>
</g>
<!-- Node11 -->
<g id="node11" class="node"><title>Node11</title>
<polygon fill="none" stroke="#bfbfbf" points="2215.73,-56.5 2215.73,-75.5 2256.73,-75.5 2256.73,-56.5 2215.73,-56.5"/>
<text text-anchor="middle" x="2236.23" y="-63.5" font-family="Helvetica,sans-Serif" font-size="10.00">ctime</text>
</g>
<!-- Node7&#45;&gt;Node11 -->
<g id="edge10" class="edge"><title>Node7&#45;&gt;Node11</title>
<path fill="none" stroke="midnightblue" d="M1207.4,-120.507C1384.63,-118.481 1991.02,-109.343 2205.49,-75.5943"/>
<polygon fill="midnightblue" stroke="midnightblue" points="2206.1,-79.0409 2215.41,-73.9686 2204.97,-72.1332 2206.1,-79.0409"/>
</g>
<!-- Node12 -->
<g id="node12" class="node"><title>Node12</title>
<polygon fill="none" stroke="#bfbfbf" points="2275.23,-56.5 2275.23,-75.5 2321.23,-75.5 2321.23,-56.5 2275.23,-56.5"/>
<text text-anchor="middle" x="2298.23" y="-63.5" font-family="Helvetica,sans-Serif" font-size="10.00">cstring</text>
</g>
<!-- Node7&#45;&gt;Node12 -->
<g id="edge11" class="edge"><title>Node7&#45;&gt;Node12</title>
<path fill="none" stroke="midnightblue" d="M1207.24,-120.477C1390.6,-118.294 2036.87,-108.529 2264.73,-75.5875"/>
<polygon fill="midnightblue" stroke="midnightblue" points="2265.57,-79.0009 2274.93,-74.0521 2264.52,-72.0787 2265.57,-79.0009"/>
</g>
<!-- Node13 -->
<g id="node13" class="node"><title>Node13</title>
<polygon fill="none" stroke="#bfbfbf" points="2339.73,-56.5 2339.73,-75.5 2388.73,-75.5 2388.73,-56.5 2339.73,-56.5"/>
<text text-anchor="middle" x="2364.23" y="-63.5" font-family="Helvetica,sans-Serif" font-size="10.00">cstdarg</text>
</g>
<!-- Node7&#45;&gt;Node13 -->
<g id="edge12" class="edge"><title>Node7&#45;&gt;Node13</title>
<path fill="none" stroke="midnightblue" d="M1207.44,-120.554C1398.03,-118.608 2088.52,-109.458 2329.38,-75.6963"/>
<polygon fill="midnightblue" stroke="midnightblue" points="2330.09,-79.1305 2339.48,-74.2262 2329.08,-72.2035 2330.09,-79.1305"/>
</g>
<!-- Node14 -->
<g id="node14" class="node"><title>Node14</title>
<polygon fill="none" stroke="#bfbfbf" points="257.229,-56.5 257.229,-75.5 301.229,-75.5 301.229,-56.5 257.229,-56.5"/>
<text text-anchor="middle" x="279.229" y="-63.5" font-family="Helvetica,sans-Serif" font-size="10.00">cmath</text>
</g>
<!-- Node7&#45;&gt;Node14 -->
<g id="edge13" class="edge"><title>Node7&#45;&gt;Node14</title>
<path fill="none" stroke="midnightblue" d="M1108.98,-119.871C955.193,-116.116 484.374,-102.831 311.415,-75.7449"/>
<polygon fill="midnightblue" stroke="midnightblue" points="311.872,-72.2733 301.438,-74.1097 310.74,-79.1811 311.872,-72.2733"/>
</g>
<!-- Node15 -->
<g id="node15" class="node"><title>Node15</title>
<polygon fill="none" stroke="#bfbfbf" points="319.229,-56.5 319.229,-75.5 363.229,-75.5 363.229,-56.5 319.229,-56.5"/>
<text text-anchor="middle" x="341.229" y="-63.5" font-family="Helvetica,sans-Serif" font-size="10.00">vector</text>
</g>
<!-- Node7&#45;&gt;Node15 -->
<g id="edge14" class="edge"><title>Node7&#45;&gt;Node15</title>
<path fill="none" stroke="midnightblue" d="M1109.21,-119.64C963.546,-115.374 534.025,-101.124 373.611,-75.7835"/>
<polygon fill="midnightblue" stroke="midnightblue" points="373.878,-72.28 363.44,-74.0983 372.733,-79.1859 373.878,-72.28"/>
</g>
<!-- Node16 -->
<g id="node16" class="node"><title>Node16</title>
<polygon fill="none" stroke="#bfbfbf" points="381.729,-56.5 381.729,-75.5 416.729,-75.5 416.729,-56.5 381.729,-56.5"/>
<text text-anchor="middle" x="399.229" y="-63.5" font-family="Helvetica,sans-Serif" font-size="10.00">map</text>
</g>
<!-- Node7&#45;&gt;Node16 -->
<g id="edge15" class="edge"><title>Node7&#45;&gt;Node16</title>
<path fill="none" stroke="midnightblue" d="M1109.04,-119.644C970.132,-115.556 575.881,-102.108 426.663,-75.4371"/>
<polygon fill="midnightblue" stroke="midnightblue" points="427.246,-71.9855 416.772,-73.5777 425.953,-78.865 427.246,-71.9855"/>
</g>
<!-- Node17 -->
<g id="node17" class="node"><title>Node17</title>
<polygon fill="none" stroke="#bfbfbf" points="435.229,-56.5 435.229,-75.5 465.229,-75.5 465.229,-56.5 435.229,-56.5"/>
<text text-anchor="middle" x="450.229" y="-63.5" font-family="Helvetica,sans-Serif" font-size="10.00">set</text>
</g>
<!-- Node7&#45;&gt;Node17 -->
<g id="edge17" class="edge"><title>Node7&#45;&gt;Node17</title>
<path fill="none" stroke="midnightblue" d="M1108.85,-119.626C976.274,-115.648 613.796,-102.783 475.237,-75.4782"/>
<polygon fill="midnightblue" stroke="midnightblue" points="475.766,-72.0133 465.263,-73.401 474.339,-78.8663 475.766,-72.0133"/>
</g>
<!-- Node18 -->
<g id="node18" class="node"><title>Node18</title>
<polygon fill="none" stroke="#bfbfbf" points="483.729,-56.5 483.729,-75.5 512.729,-75.5 512.729,-56.5 483.729,-56.5"/>
<text text-anchor="middle" x="498.229" y="-63.5" font-family="Helvetica,sans-Serif" font-size="10.00">list</text>
</g>
<!-- Node7&#45;&gt;Node18 -->
<g id="edge18" class="edge"><title>Node7&#45;&gt;Node18</title>
<path fill="none" stroke="midnightblue" d="M1108.99,-119.443C983.135,-115.166 651.162,-101.931 523.068,-75.7323"/>
<polygon fill="midnightblue" stroke="midnightblue" points="523.632,-72.2734 513.118,-73.5752 522.149,-79.1145 523.632,-72.2734"/>
</g>
<!-- Node19 -->
<g id="node19" class="node"><title>Node19</title>
<polygon fill="none" stroke="#bfbfbf" points="530.729,-56.5 530.729,-75.5 573.729,-75.5 573.729,-56.5 530.729,-56.5"/>
<text text-anchor="middle" x="552.229" y="-63.5" font-family="Helvetica,sans-Serif" font-size="10.00">deque</text>
</g>
<!-- Node7&#45;&gt;Node19 -->
<g id="edge19" class="edge"><title>Node7&#45;&gt;Node19</title>
<path fill="none" stroke="midnightblue" d="M1109.22,-120.683C1010.92,-119.29 782.731,-112.255 584.086,-75.9956"/>
<polygon fill="midnightblue" stroke="midnightblue" points="584.522,-72.5169 574.051,-74.1341 583.245,-79.3994 584.522,-72.5169"/>
</g>
<!-- Node20 -->
<g id="node20" class="node"><title>Node20</title>
<polygon fill="none" stroke="#bfbfbf" points="591.729,-56.5 591.729,-75.5 634.729,-75.5 634.729,-56.5 591.729,-56.5"/>
<text text-anchor="middle" x="613.229" y="-63.5" font-family="Helvetica,sans-Serif" font-size="10.00">queue</text>
</g>
<!-- Node7&#45;&gt;Node20 -->
<g id="edge20" class="edge"><title>Node7&#45;&gt;Node20</title>
<path fill="none" stroke="midnightblue" d="M1109.13,-120.039C1018.71,-117.549 819.81,-108.721 644.947,-75.9923"/>
<polygon fill="midnightblue" stroke="midnightblue" points="645.534,-72.5412 635.056,-74.1103 644.225,-79.4179 645.534,-72.5412"/>
</g>
<!-- Node21 -->
<g id="node21" class="node"><title>Node21</title>
<polygon fill="none" stroke="#bfbfbf" points="652.729,-56.5 652.729,-75.5 693.729,-75.5 693.729,-56.5 652.729,-56.5"/>
<text text-anchor="middle" x="673.229" y="-63.5" font-family="Helvetica,sans-Serif" font-size="10.00">bitset</text>
</g>
<!-- Node7&#45;&gt;Node21 -->
<g id="edge21" class="edge"><title>Node7&#45;&gt;Node21</title>
<path fill="none" stroke="midnightblue" d="M1108.96,-119.239C1026.78,-115.625 856.565,-105.262 703.791,-75.7016"/>
<polygon fill="midnightblue" stroke="midnightblue" points="704.242,-72.2233 693.755,-73.7266 702.891,-79.0916 704.242,-72.2233"/>
</g>
<!-- Node22 -->
<g id="node22" class="node"><title>Node22</title>
<polygon fill="none" stroke="#bfbfbf" points="712.229,-56.5 712.229,-75.5 768.229,-75.5 768.229,-56.5 712.229,-56.5"/>
<text text-anchor="middle" x="740.229" y="-63.5" font-family="Helvetica,sans-Serif" font-size="10.00">algorithm</text>
</g>
<!-- Node7&#45;&gt;Node22 -->
<g id="edge22" class="edge"><title>Node7&#45;&gt;Node22</title>
<path fill="none" stroke="midnightblue" d="M1108.93,-117.098C1037.96,-111.059 902.757,-97.9812 778.505,-76.0361"/>
<polygon fill="midnightblue" stroke="midnightblue" points="778.896,-72.5506 768.436,-74.2336 777.663,-79.441 778.896,-72.5506"/>
</g>
<!-- Node23 -->
<g id="node23" class="node"><title>Node23</title>
<polygon fill="none" stroke="#bfbfbf" points="786.729,-56.5 786.729,-75.5 845.729,-75.5 845.729,-56.5 786.729,-56.5"/>
<text text-anchor="middle" x="816.229" y="-63.5" font-family="Helvetica,sans-Serif" font-size="10.00">functional</text>
</g>
<!-- Node7&#45;&gt;Node23 -->
<g id="edge23" class="edge"><title>Node7&#45;&gt;Node23</title>
<path fill="none" stroke="midnightblue" d="M1109.22,-114.939C1051.2,-107.492 951.434,-93.8418 856.092,-76.0302"/>
<polygon fill="midnightblue" stroke="midnightblue" points="856.464,-72.5387 845.988,-74.1236 855.166,-79.4173 856.464,-72.5387"/>
</g>
<!-- Node24 -->
<g id="node24" class="node"><title>Node24</title>
<polygon fill="none" stroke="#bfbfbf" points="864.229,-56.5 864.229,-75.5 904.229,-75.5 904.229,-56.5 864.229,-56.5"/>
<text text-anchor="middle" x="884.229" y="-63.5" font-family="Helvetica,sans-Serif" font-size="10.00">limits</text>
</g>
<!-- Node7&#45;&gt;Node24 -->
<g id="edge24" class="edge"><title>Node7&#45;&gt;Node24</title>
<path fill="none" stroke="midnightblue" d="M1109.06,-113.737C1061.46,-106.312 987.146,-93.6788 914.234,-76.0145"/>
<polygon fill="midnightblue" stroke="midnightblue" points="914.971,-72.5914 904.424,-73.6048 913.301,-79.3893 914.971,-72.5914"/>
</g>
<!-- Node25 -->
<g id="node25" class="node"><title>Node25</title>
<polygon fill="none" stroke="#bfbfbf" points="922.229,-56.5 922.229,-75.5 972.229,-75.5 972.229,-56.5 922.229,-56.5"/>
<text text-anchor="middle" x="947.229" y="-63.5" font-family="Helvetica,sans-Serif" font-size="10.00">fstream</text>
</g>
<!-- Node7&#45;&gt;Node25 -->
<g id="edge25" class="edge"><title>Node7&#45;&gt;Node25</title>
<path fill="none" stroke="midnightblue" d="M1124.27,-112.472C1090.64,-104.002 1037.41,-90.5354 982.398,-76.2859"/>
<polygon fill="midnightblue" stroke="midnightblue" points="983.031,-72.8345 972.473,-73.7116 981.274,-79.6103 983.031,-72.8345"/>
</g>
<!-- Node26 -->
<g id="node26" class="node"><title>Node26</title>
<polygon fill="none" stroke="#bfbfbf" points="990.729,-56.5 990.729,-75.5 1035.73,-75.5 1035.73,-56.5 990.729,-56.5"/>
<text text-anchor="middle" x="1013.23" y="-63.5" font-family="Helvetica,sans-Serif" font-size="10.00">iosfwd</text>
</g>
<!-- Node7&#45;&gt;Node26 -->
<g id="edge26" class="edge"><title>Node7&#45;&gt;Node26</title>
<path fill="none" stroke="midnightblue" d="M1135.25,-112.444C1111.07,-103.438 1072.81,-89.1891 1045.58,-79.049"/>
<polygon fill="midnightblue" stroke="midnightblue" points="1046.69,-75.7265 1036.1,-75.5164 1044.25,-82.2864 1046.69,-75.7265"/>
</g>
<!-- Node27 -->
<g id="node27" class="node"><title>Node27</title>
<polygon fill="none" stroke="#bfbfbf" points="1054.23,-56.5 1054.23,-75.5 1106.23,-75.5 1106.23,-56.5 1054.23,-56.5"/>
<text text-anchor="middle" x="1080.23" y="-63.5" font-family="Helvetica,sans-Serif" font-size="10.00">sstream</text>
</g>
<!-- Node7&#45;&gt;Node27 -->
<g id="edge27" class="edge"><title>Node7&#45;&gt;Node27</title>
<path fill="none" stroke="midnightblue" d="M1145.7,-112.324C1133.64,-103.979 1115.2,-91.2122 1100.96,-81.3524"/>
<polygon fill="midnightblue" stroke="midnightblue" points="1102.94,-78.469 1092.73,-75.6545 1098.96,-84.2243 1102.94,-78.469"/>
</g>
<!-- Node28 -->
<g id="node28" class="node"><title>Node28</title>
<polygon fill="none" stroke="#bfbfbf" points="1124.23,-56.5 1124.23,-75.5 1192.23,-75.5 1192.23,-56.5 1124.23,-56.5"/>
<text text-anchor="middle" x="1158.23" y="-63.5" font-family="Helvetica,sans-Serif" font-size="10.00">sys/types.h</text>
</g>
<!-- Node7&#45;&gt;Node28 -->
<g id="edge28" class="edge"><title>Node7&#45;&gt;Node28</title>
<path fill="none" stroke="midnightblue" d="M1158.23,-112.083C1158.23,-105.006 1158.23,-94.8611 1158.23,-85.9865"/>
<polygon fill="midnightblue" stroke="midnightblue" points="1161.73,-85.751 1158.23,-75.7511 1154.73,-85.7511 1161.73,-85.751"/>
</g>
<!-- Node29 -->
<g id="node29" class="node"><title>Node29</title>
<polygon fill="none" stroke="#bfbfbf" points="1210.23,-56.5 1210.23,-75.5 1270.23,-75.5 1270.23,-56.5 1210.23,-56.5"/>
<text text-anchor="middle" x="1240.23" y="-63.5" font-family="Helvetica,sans-Serif" font-size="10.00">sys/stat.h</text>
</g>
<!-- Node7&#45;&gt;Node29 -->
<g id="edge29" class="edge"><title>Node7&#45;&gt;Node29</title>
<path fill="none" stroke="midnightblue" d="M1171.4,-112.324C1184.08,-103.979 1203.46,-91.2122 1218.43,-81.3524"/>
<polygon fill="midnightblue" stroke="midnightblue" points="1220.66,-84.0776 1227.09,-75.6545 1216.81,-78.2313 1220.66,-84.0776"/>
</g>
<!-- Node30 -->
<g id="node30" class="node"><title>Node30</title>
<polygon fill="none" stroke="#bfbfbf" points="1288.73,-56.5 1288.73,-75.5 1339.73,-75.5 1339.73,-56.5 1288.73,-56.5"/>
<text text-anchor="middle" x="1314.23" y="-63.5" font-family="Helvetica,sans-Serif" font-size="10.00">unistd.h</text>
</g>
<!-- Node7&#45;&gt;Node30 -->
<g id="edge30" class="edge"><title>Node7&#45;&gt;Node30</title>
<path fill="none" stroke="midnightblue" d="M1182.95,-112.444C1209.08,-103.399 1250.49,-89.064 1279.81,-78.9158"/>
<polygon fill="midnightblue" stroke="midnightblue" points="1281.32,-82.0951 1289.63,-75.5164 1279.03,-75.4801 1281.32,-82.0951"/>
</g>
<!-- Node31 -->
<g id="node31" class="node"><title>Node31</title>
<polygon fill="none" stroke="#bfbfbf" points="1358.23,-56.5 1358.23,-75.5 1404.23,-75.5 1404.23,-56.5 1358.23,-56.5"/>
<text text-anchor="middle" x="1381.23" y="-63.5" font-family="Helvetica,sans-Serif" font-size="10.00">dlfcn.h</text>
</g>
<!-- Node7&#45;&gt;Node31 -->
<g id="edge31" class="edge"><title>Node7&#45;&gt;Node31</title>
<path fill="none" stroke="midnightblue" d="M1195.81,-112.492C1234.21,-103.708 1295.51,-89.4292 1348.23,-76 1348.33,-75.9743 1348.43,-75.9486 1348.53,-75.9228"/>
<polygon fill="midnightblue" stroke="midnightblue" points="1349.39,-79.3158 1358.18,-73.3934 1347.62,-72.5448 1349.39,-79.3158"/>
</g>
<!-- Node32 -->
<g id="node32" class="node"><title>Node32</title>
<polygon fill="none" stroke="#bfbfbf" points="1422.23,-56.5 1422.23,-75.5 1500.23,-75.5 1500.23,-56.5 1422.23,-56.5"/>
<text text-anchor="middle" x="1461.23" y="-63.5" font-family="Helvetica,sans-Serif" font-size="10.00">ext/hash_map</text>
</g>
<!-- Node7&#45;&gt;Node32 -->
<g id="edge32" class="edge"><title>Node7&#45;&gt;Node32</title>
<path fill="none" stroke="midnightblue" d="M1207.62,-112.445C1256.9,-103.873 1335.06,-90.1793 1412.3,-76.1544"/>
<polygon fill="midnightblue" stroke="midnightblue" points="1412.99,-79.5863 1422.2,-74.3535 1411.74,-72.6993 1412.99,-79.5863"/>
</g>
<!-- Node33 -->
<g id="node33" class="node"><title>Node33</title>
<polygon fill="none" stroke="#bfbfbf" points="1518.73,-56.5 1518.73,-75.5 1591.73,-75.5 1591.73,-56.5 1518.73,-56.5"/>
<text text-anchor="middle" x="1555.23" y="-63.5" font-family="Helvetica,sans-Serif" font-size="10.00">ext/hash_set</text>
</g>
<!-- Node7&#45;&gt;Node33 -->
<g id="edge33" class="edge"><title>Node7&#45;&gt;Node33</title>
<path fill="none" stroke="midnightblue" d="M1207.5,-115.717C1273.61,-108.4 1394.92,-94.1739 1508.68,-75.9898"/>
<polygon fill="midnightblue" stroke="midnightblue" points="1509.29,-79.4366 1518.61,-74.3898 1508.18,-72.5257 1509.29,-79.4366"/>
</g>
<!-- Node34 -->
<g id="node34" class="node"><title>Node34</title>
<polygon fill="none" stroke="#bfbfbf" points="1609.73,-56.5 1609.73,-75.5 1680.73,-75.5 1680.73,-56.5 1609.73,-56.5"/>
<text text-anchor="middle" x="1645.23" y="-63.5" font-family="Helvetica,sans-Serif" font-size="10.00">sys/param.h</text>
</g>
<!-- Node7&#45;&gt;Node34 -->
<g id="edge34" class="edge"><title>Node7&#45;&gt;Node34</title>
<path fill="none" stroke="midnightblue" d="M1207.48,-117.537C1287.48,-111.573 1450.81,-97.9866 1599.22,-76.0115"/>
<polygon fill="midnightblue" stroke="midnightblue" points="1600.05,-79.4258 1609.42,-74.4834 1599.01,-72.503 1600.05,-79.4258"/>
</g>
<!-- Node35 -->
<g id="node35" class="node"><title>Node35</title>
<polygon fill="none" stroke="#bfbfbf" points="1699.23,-56.5 1699.23,-75.5 1865.23,-75.5 1865.23,-56.5 1699.23,-56.5"/>
<text text-anchor="middle" x="1782.23" y="-63.5" font-family="Helvetica,sans-Serif" font-size="10.00">CoreFoundation/CoreFoundation.h</text>
</g>
<!-- Node7&#45;&gt;Node35 -->
<g id="edge35" class="edge"><title>Node7&#45;&gt;Node35</title>
<path fill="none" stroke="midnightblue" d="M1207.3,-117.039C1299.3,-109.568 1504.28,-92.7205 1688.91,-76.0179"/>
<polygon fill="midnightblue" stroke="midnightblue" points="1689.44,-79.4846 1699.08,-75.0962 1688.81,-72.5132 1689.44,-79.4846"/>
</g>
<!-- Node36 -->
<g id="node36" class="node"><title>Node36</title>
<polygon fill="none" stroke="#bfbfbf" points="1883.23,-56.5 1883.23,-75.5 2007.23,-75.5 2007.23,-56.5 1883.23,-56.5"/>
<text text-anchor="middle" x="1945.23" y="-63.5" font-family="Helvetica,sans-Serif" font-size="10.00">emscripten/emscripten.h</text>
</g>
<!-- Node7&#45;&gt;Node36 -->
<g id="edge36" class="edge"><title>Node7&#45;&gt;Node36</title>
<path fill="none" stroke="midnightblue" d="M1207.36,-118.986C1321.98,-114.056 1616.17,-100.068 1872.66,-76.0918"/>
<polygon fill="midnightblue" stroke="midnightblue" points="1873.29,-79.5479 1882.92,-75.1255 1872.63,-72.5788 1873.29,-79.5479"/>
</g>
<!-- Node38 -->
<g id="node38" class="node"><title>Node38</title>
<g id="a_node38"><a xlink:href="_ogre_memory_allocated_object_8h.html" target="_top" xlink:title="OgreMemoryAllocatedObject.h">
<polygon fill="none" stroke="black" points="2445.23,-56.5 2445.23,-75.5 2595.23,-75.5 2595.23,-56.5 2445.23,-56.5"/>
<text text-anchor="middle" x="2520.23" y="-63.5" font-family="Helvetica,sans-Serif" font-size="10.00">OgreMemoryAllocatedObject.h</text>
</a>
</g>
</g>
<!-- Node37&#45;&gt;Node38 -->
<g id="edge38" class="edge"><title>Node37&#45;&gt;Node38</title>
<path fill="none" stroke="midnightblue" d="M2645.62,-112.444C2620.77,-103.438 2581.45,-89.1891 2553.48,-79.049"/>
<polygon fill="midnightblue" stroke="midnightblue" points="2554.32,-75.6332 2543.73,-75.5164 2551.94,-82.2144 2554.32,-75.6332"/>
</g>
<!-- Node37&#45;&gt;Node39 -->
<g id="edge42" class="edge"><title>Node37&#45;&gt;Node39</title>
<path fill="none" stroke="midnightblue" d="M2662.63,-112.124C2651.87,-98.2474 2629.23,-71.4103 2604.23,-56 2578.51,-40.1449 2546.58,-29.2041 2520.12,-22.084"/>
<polygon fill="midnightblue" stroke="midnightblue" points="2520.83,-18.6523 2510.27,-19.5399 2519.07,-25.4298 2520.83,-18.6523"/>
</g>
<!-- Node37&#45;&gt;Node40 -->
<g id="edge50" class="edge"><title>Node37&#45;&gt;Node40</title>
<path fill="none" stroke="midnightblue" d="M2695.51,-112.434C2720.67,-103.989 2759.52,-90.305 2792.23,-76 2810.08,-68.1943 2813.36,-63.7595 2831.23,-56 2860.55,-43.2659 2894.76,-31.1298 2919.98,-22.677"/>
<polygon fill="midnightblue" stroke="midnightblue" points="2921.12,-25.9851 2929.51,-19.5127 2918.91,-19.3416 2921.12,-25.9851"/>
</g>
<!-- Node41 -->
<g id="node41" class="node"><title>Node41</title>
<g id="a_node41"><a xlink:href="_ogre_memory_s_t_l_allocator_8h.html" target="_top" xlink:title="OgreMemorySTLAllocator.h">
<polygon fill="none" stroke="black" points="2839.73,-56.5 2839.73,-75.5 2976.73,-75.5 2976.73,-56.5 2839.73,-56.5"/>
<text text-anchor="middle" x="2908.23" y="-63.5" font-family="Helvetica,sans-Serif" font-size="10.00">OgreMemorySTLAllocator.h</text>
</a>
</g>
</g>
<!-- Node37&#45;&gt;Node41 -->
<g id="edge43" class="edge"><title>Node37&#45;&gt;Node41</title>
<path fill="none" stroke="midnightblue" d="M2707.1,-112.444C2748.7,-103.043 2815.6,-87.9291 2860.7,-77.7393"/>
<polygon fill="midnightblue" stroke="midnightblue" points="2861.55,-81.1343 2870.54,-75.5164 2860.01,-74.3064 2861.55,-81.1343"/>
</g>
<!-- Node42 -->
<g id="node42" class="node"><title>Node42</title>
<g id="a_node42"><a xlink:href="_ogre_memory_ned_pooling_8h.html" target="_top" xlink:title="OgreMemoryNedPooling.h">
<polygon fill="none" stroke="black" points="2651.73,-56.5 2651.73,-75.5 2782.73,-75.5 2782.73,-56.5 2651.73,-56.5"/>
<text text-anchor="middle" x="2717.23" y="-63.5" font-family="Helvetica,sans-Serif" font-size="10.00">OgreMemoryNedPooling.h</text>
</a>
</g>
</g>
<!-- Node37&#45;&gt;Node42 -->
<g id="edge47" class="edge"><title>Node37&#45;&gt;Node42</title>
<path fill="none" stroke="midnightblue" d="M2677.16,-112.083C2684.08,-104.298 2694.29,-92.8015 2702.68,-83.3665"/>
<polygon fill="midnightblue" stroke="midnightblue" points="2705.42,-85.5505 2709.45,-75.7511 2700.19,-80.8999 2705.42,-85.5505"/>
</g>
<!-- Node38&#45;&gt;Node2 -->
<g id="edge39" class="edge"><title>Node38&#45;&gt;Node2</title>
<path fill="none" stroke="midnightblue" d="M2497.11,-75.5914C2444.8,-95.0315 2317.23,-142.44 2256.88,-164.865"/>
<polygon fill="midnightblue" stroke="midnightblue" points="2255.61,-161.604 2247.46,-168.368 2258.05,-168.166 2255.61,-161.604"/>
</g>
<!-- Node38&#45;&gt;Node39 -->
<g id="edge40" class="edge"><title>Node38&#45;&gt;Node39</title>
<path fill="none" stroke="midnightblue" d="M2511.64,-56.083C2504.07,-48.2195 2492.85,-36.5688 2483.71,-27.0813"/>
<polygon fill="midnightblue" stroke="midnightblue" points="2486.11,-24.5266 2476.66,-19.7511 2481.07,-29.3821 2486.11,-24.5266"/>
</g>
<!-- Node38&#45;&gt;Node40 -->
<g id="edge41" class="edge"><title>Node38&#45;&gt;Node40</title>
<path fill="none" stroke="midnightblue" d="M2589.31,-56.4435C2673.36,-46.0339 2813.98,-28.618 2894.54,-18.6408"/>
<polygon fill="midnightblue" stroke="midnightblue" points="2895.04,-22.1053 2904.53,-17.4026 2894.18,-15.1584 2895.04,-22.1053"/>
</g>
<!-- Node41&#45;&gt;Node2 -->
<g id="edge44" class="edge"><title>Node41&#45;&gt;Node2</title>
<path fill="none" stroke="midnightblue" d="M2892.4,-75.5479C2864.83,-89.9822 2805.81,-118.893 2752.23,-132 2587.38,-172.326 2385.94,-177.901 2286.25,-177.868"/>
<polygon fill="midnightblue" stroke="midnightblue" points="2286.06,-174.368 2276.05,-177.845 2286.04,-181.368 2286.06,-174.368"/>
</g>
<!-- Node41&#45;&gt;Node39 -->
<g id="edge45" class="edge"><title>Node41&#45;&gt;Node39</title>
<path fill="none" stroke="midnightblue" d="M2839.48,-56.5625C2754.65,-46.1511 2611.66,-28.6024 2530.11,-18.5948"/>
<polygon fill="midnightblue" stroke="midnightblue" points="2530.35,-15.0976 2520,-17.3533 2529.5,-22.0454 2530.35,-15.0976"/>
</g>
<!-- Node41&#45;&gt;Node40 -->
<g id="edge46" class="edge"><title>Node41&#45;&gt;Node40</title>
<path fill="none" stroke="midnightblue" d="M2916.16,-56.083C2923.08,-48.2982 2933.29,-36.8015 2941.68,-27.3665"/>
<polygon fill="midnightblue" stroke="midnightblue" points="2944.42,-29.5505 2948.45,-19.7511 2939.19,-24.8999 2944.42,-29.5505"/>
</g>
<!-- Node42&#45;&gt;Node39 -->
<g id="edge48" class="edge"><title>Node42&#45;&gt;Node39</title>
<path fill="none" stroke="midnightblue" d="M2677.77,-56.4435C2634.34,-47.0234 2564.44,-31.8656 2517.45,-21.6752"/>
<polygon fill="midnightblue" stroke="midnightblue" points="2518.01,-18.2154 2507.5,-19.5164 2516.53,-25.0564 2518.01,-18.2154"/>
</g>
<!-- Node42&#45;&gt;Node40 -->
<g id="edge49" class="edge"><title>Node42&#45;&gt;Node40</title>
<path fill="none" stroke="midnightblue" d="M2755.1,-56.4435C2796.7,-47.0431 2863.6,-31.9291 2908.7,-21.7393"/>
<polygon fill="midnightblue" stroke="midnightblue" points="2909.55,-25.1343 2918.54,-19.5164 2908.01,-18.3064 2909.55,-25.1343"/>
</g>
<!-- Node43&#45;&gt;Node2 -->
<g id="edge52" class="edge"><title>Node43&#45;&gt;Node2</title>
<path fill="none" stroke="midnightblue" d="M2240.43,-394.787C2159.53,-382.536 2021.98,-346.761 1993.23,-244 1990.83,-235.44 1987.58,-230.86 1993.23,-224 2014.29,-198.44 2101.32,-187.206 2162.32,-182.404"/>
<polygon fill="midnightblue" stroke="midnightblue" points="2162.91,-185.87 2172.62,-181.634 2162.39,-178.889 2162.91,-185.87"/>
</g>
<!-- Node43&#45;&gt;Node39 -->
<g id="edge71" class="edge"><title>Node43&#45;&gt;Node39</title>
<path fill="none" stroke="midnightblue" d="M2240.52,-401.176C1891.55,-401.822 131.229,-399.695 131.229,-291 131.229,-291 131.229,-291 131.229,-121 131.229,-85.3501 146.644,-72.5319 178.229,-56 228.992,-29.4304 2045.46,-14.2209 2406.29,-11.4584"/>
<polygon fill="midnightblue" stroke="midnightblue" points="2406.56,-14.9565 2416.53,-11.3803 2406.51,-7.9567 2406.56,-14.9565"/>
</g>
<!-- Node43&#45;&gt;Node40 -->
<g id="edge72" class="edge"><title>Node43&#45;&gt;Node40</title>
<path fill="none" stroke="midnightblue" d="M2359.89,-401.01C2542.46,-399.452 3081.23,-382.37 3081.23,-235 3081.23,-235 3081.23,-235 3081.23,-121 3081.23,-72.1731 3026.81,-39.8917 2989.79,-23.5781"/>
<polygon fill="midnightblue" stroke="midnightblue" points="2990.9,-20.2502 2980.33,-19.5868 2988.18,-26.6995 2990.9,-20.2502"/>
</g>
<!-- Node44 -->
<g id="node44" class="node"><title>Node44</title>
<g id="a_node44"><a xlink:href="_ogre_vertex_index_data_8h.html" target="_top" xlink:title="OgreVertexIndexData.h">
<polygon fill="none" stroke="black" points="2240.73,-336.5 2240.73,-355.5 2359.73,-355.5 2359.73,-336.5 2240.73,-336.5"/>
<text text-anchor="middle" x="2300.23" y="-343.5" font-family="Helvetica,sans-Serif" font-size="10.00">OgreVertexIndexData.h</text>
</a>
</g>
</g>
<!-- Node43&#45;&gt;Node44 -->
<g id="edge53" class="edge"><title>Node43&#45;&gt;Node44</title>
<path fill="none" stroke="midnightblue" d="M2300.23,-392.083C2300.23,-385.006 2300.23,-374.861 2300.23,-365.986"/>
<polygon fill="midnightblue" stroke="midnightblue" points="2303.73,-365.751 2300.23,-355.751 2296.73,-365.751 2303.73,-365.751"/>
</g>
<!-- Node44&#45;&gt;Node2 -->
<g id="edge54" class="edge"><title>Node44&#45;&gt;Node2</title>
<path fill="none" stroke="midnightblue" d="M2326.02,-336.37C2343.64,-329.223 2366.26,-317.395 2380.23,-300 2401.9,-273.012 2418.4,-251.383 2397.23,-224 2383.49,-206.234 2330,-194.173 2286.08,-187.045"/>
<polygon fill="midnightblue" stroke="midnightblue" points="2286.44,-183.558 2276.02,-185.469 2285.36,-190.474 2286.44,-183.558"/>
</g>
<!-- Node44&#45;&gt;Node39 -->
<g id="edge69" class="edge"><title>Node44&#45;&gt;Node39</title>
<path fill="none" stroke="midnightblue" d="M2240.6,-342.167C1905.46,-326.195 271.229,-247.664 271.229,-235 271.229,-235 271.229,-235 271.229,-177 271.229,-146.775 270.119,-135.596 251.229,-112 227.817,-82.7543 162.002,-82.7502 188.229,-56 228.166,-15.2667 2045.2,-11.4036 2406.24,-11.0381"/>
<polygon fill="midnightblue" stroke="midnightblue" points="2406.5,-14.5379 2416.49,-11.0282 2406.49,-7.53793 2406.5,-14.5379"/>
</g>
<!-- Node44&#45;&gt;Node40 -->
<g id="edge70" class="edge"><title>Node44&#45;&gt;Node40</title>
<path fill="none" stroke="midnightblue" d="M2359.78,-344.366C2536.09,-340.898 3043.23,-318.773 3043.23,-179 3043.23,-179 3043.23,-179 3043.23,-121 3043.23,-79.3996 3004.48,-44.3306 2978.7,-25.6049"/>
<polygon fill="midnightblue" stroke="midnightblue" points="2980.41,-22.5314 2970.21,-19.679 2976.41,-28.2719 2980.41,-22.5314"/>
</g>
<!-- Node45 -->
<g id="node45" class="node"><title>Node45</title>
<g id="a_node45"><a xlink:href="_ogre_hardware_vertex_buffer_8h.html" target="_top" xlink:title="OgreHardwareVertexBuffer.h">
<polygon fill="none" stroke="black" points="2228.73,-280.5 2228.73,-299.5 2371.73,-299.5 2371.73,-280.5 2228.73,-280.5"/>
<text text-anchor="middle" x="2300.23" y="-287.5" font-family="Helvetica,sans-Serif" font-size="10.00">OgreHardwareVertexBuffer.h</text>
</a>
</g>
</g>
<!-- Node44&#45;&gt;Node45 -->
<g id="edge55" class="edge"><title>Node44&#45;&gt;Node45</title>
<path fill="none" stroke="midnightblue" d="M2300.23,-336.083C2300.23,-329.006 2300.23,-318.861 2300.23,-309.986"/>
<polygon fill="midnightblue" stroke="midnightblue" points="2303.73,-309.751 2300.23,-299.751 2296.73,-309.751 2303.73,-309.751"/>
</g>
<!-- Node49 -->
<g id="node49" class="node"><title>Node49</title>
<g id="a_node49"><a xlink:href="_ogre_hardware_index_buffer_8h.html" target="_top" xlink:title="OgreHardwareIndexBuffer.h">
<polygon fill="none" stroke="black" points="2036.23,-280.5 2036.23,-299.5 2174.23,-299.5 2174.23,-280.5 2036.23,-280.5"/>
<text text-anchor="middle" x="2105.23" y="-287.5" font-family="Helvetica,sans-Serif" font-size="10.00">OgreHardwareIndexBuffer.h</text>
</a>
</g>
</g>
<!-- Node44&#45;&gt;Node49 -->
<g id="edge65" class="edge"><title>Node44&#45;&gt;Node49</title>
<path fill="none" stroke="midnightblue" d="M2269.33,-336.444C2235.96,-327.201 2182.64,-312.436 2145.88,-302.257"/>
<polygon fill="midnightblue" stroke="midnightblue" points="2146.55,-298.812 2135.98,-299.516 2144.69,-305.558 2146.55,-298.812"/>
</g>
<!-- Node45&#45;&gt;Node2 -->
<g id="edge56" class="edge"><title>Node45&#45;&gt;Node2</title>
<path fill="none" stroke="midnightblue" d="M2294.27,-280.368C2281.72,-262.215 2252.42,-219.802 2235.97,-195.99"/>
<polygon fill="midnightblue" stroke="midnightblue" points="2238.73,-193.829 2230.17,-187.591 2232.97,-197.808 2238.73,-193.829"/>
</g>
<!-- Node45&#45;&gt;Node39 -->
<g id="edge63" class="edge"><title>Node45&#45;&gt;Node39</title>
<path fill="none" stroke="midnightblue" d="M2335.59,-280.397C2356.21,-273.678 2381.24,-262.324 2397.23,-244 2417.1,-221.226 2417.23,-209.225 2417.23,-179 2417.23,-179 2417.23,-179 2417.23,-121 2417.23,-90.9022 2423.1,-83.0849 2436.23,-56 2441.08,-45.9902 2448.11,-35.8098 2454.34,-27.6697"/>
<polygon fill="midnightblue" stroke="midnightblue" points="2457.16,-29.7452 2460.66,-19.7423 2451.69,-25.3844 2457.16,-29.7452"/>
</g>
<!-- Node45&#45;&gt;Node40 -->
<g id="edge64" class="edge"><title>Node45&#45;&gt;Node40</title>
<path fill="none" stroke="midnightblue" d="M2354.62,-280.489C2503.06,-256.044 2909.17,-180.612 2986.23,-76 2997.44,-60.7754 2984.73,-40.6893 2972.57,-26.8972"/>
<polygon fill="midnightblue" stroke="midnightblue" points="2975.08,-24.4501 2965.66,-19.5883 2969.99,-29.2593 2975.08,-24.4501"/>
</g>
<!-- Node46 -->
<g id="node46" class="node"><title>Node46</title>
<g id="a_node46"><a xlink:href="_ogre_hardware_buffer_8h.html" target="_top" xlink:title="OgreHardwareBuffer.h">
<polygon fill="none" stroke="red" points="2011.23,-224.5 2011.23,-243.5 2125.23,-243.5 2125.23,-224.5 2011.23,-224.5"/>
<text text-anchor="middle" x="2068.23" y="-231.5" font-family="Helvetica,sans-Serif" font-size="10.00">OgreHardwareBuffer.h</text>
</a>
</g>
</g>
<!-- Node45&#45;&gt;Node46 -->
<g id="edge57" class="edge"><title>Node45&#45;&gt;Node46</title>
<path fill="none" stroke="midnightblue" d="M2263.47,-280.444C2223.17,-271.063 2158.42,-255.993 2114.64,-245.804"/>
<polygon fill="midnightblue" stroke="midnightblue" points="2115.35,-242.375 2104.82,-243.516 2113.76,-249.192 2115.35,-242.375"/>
</g>
<!-- Node47 -->
<g id="node47" class="node"><title>Node47</title>
<g id="a_node47"><a xlink:href="_ogre_shared_ptr_8h.html" target="_top" xlink:title="OgreSharedPtr.h">
<polygon fill="none" stroke="red" points="2143.73,-224.5 2143.73,-243.5 2232.73,-243.5 2232.73,-224.5 2143.73,-224.5"/>
<text text-anchor="middle" x="2188.23" y="-231.5" font-family="Helvetica,sans-Serif" font-size="10.00">OgreSharedPtr.h</text>
</a>
</g>
</g>
<!-- Node45&#45;&gt;Node47 -->
<g id="edge59" class="edge"><title>Node45&#45;&gt;Node47</title>
<path fill="none" stroke="midnightblue" d="M2282.23,-280.324C2264.19,-271.625 2236.18,-258.12 2215.43,-248.113"/>
<polygon fill="midnightblue" stroke="midnightblue" points="2216.71,-244.845 2206.18,-243.655 2213.67,-251.15 2216.71,-244.845"/>
</g>
<!-- Node48 -->
<g id="node48" class="node"><title>Node48</title>
<g id="a_node48"><a xlink:href="_ogre_colour_value_8h.html" target="_top" xlink:title="OgreColourValue.h">
<polygon fill="none" stroke="black" points="2289.73,-224.5 2289.73,-243.5 2388.73,-243.5 2388.73,-224.5 2289.73,-224.5"/>
<text text-anchor="middle" x="2339.23" y="-231.5" font-family="Helvetica,sans-Serif" font-size="10.00">OgreColourValue.h</text>
</a>
</g>
</g>
<!-- Node45&#45;&gt;Node48 -->
<g id="edge61" class="edge"><title>Node45&#45;&gt;Node48</title>
<path fill="none" stroke="midnightblue" d="M2306.67,-280.083C2312.18,-272.455 2320.26,-261.264 2326.99,-251.941"/>
<polygon fill="midnightblue" stroke="midnightblue" points="2329.89,-253.907 2332.91,-243.751 2324.22,-249.809 2329.89,-253.907"/>
</g>
<!-- Node46&#45;&gt;Node2 -->
<g id="edge58" class="edge"><title>Node46&#45;&gt;Node2</title>
<path fill="none" stroke="midnightblue" d="M2092.95,-224.444C2119.08,-215.399 2160.49,-201.064 2189.81,-190.916"/>
<polygon fill="midnightblue" stroke="midnightblue" points="2191.32,-194.095 2199.63,-187.516 2189.03,-187.48 2191.32,-194.095"/>
</g>
<!-- Node47&#45;&gt;Node2 -->
<g id="edge60" class="edge"><title>Node47&#45;&gt;Node2</title>
<path fill="none" stroke="midnightblue" d="M2194.17,-224.083C2199.21,-216.534 2206.57,-205.495 2212.74,-196.23"/>
<polygon fill="midnightblue" stroke="midnightblue" points="2215.76,-198.013 2218.4,-187.751 2209.94,-194.13 2215.76,-198.013"/>
</g>
<!-- Node48&#45;&gt;Node2 -->
<g id="edge62" class="edge"><title>Node48&#45;&gt;Node2</title>
<path fill="none" stroke="midnightblue" d="M2321.01,-224.444C2302.33,-215.675 2273.07,-201.935 2251.61,-191.858"/>
<polygon fill="midnightblue" stroke="midnightblue" points="2252.91,-188.599 2242.37,-187.516 2249.93,-194.935 2252.91,-188.599"/>
</g>
<!-- Node49&#45;&gt;Node2 -->
<g id="edge66" class="edge"><title>Node49&#45;&gt;Node2</title>
<path fill="none" stroke="midnightblue" d="M2067.07,-280.438C2029.32,-270.205 1980.14,-251.01 2002.23,-224 2022.13,-199.66 2103.78,-188.17 2162.28,-182.973"/>
<polygon fill="midnightblue" stroke="midnightblue" points="2162.88,-186.435 2172.55,-182.104 2162.29,-179.46 2162.88,-186.435"/>
</g>
<!-- Node49&#45;&gt;Node46 -->
<g id="edge67" class="edge"><title>Node49&#45;&gt;Node46</title>
<path fill="none" stroke="midnightblue" d="M2099.12,-280.083C2093.95,-272.534 2086.38,-261.495 2080.03,-252.23"/>
<polygon fill="midnightblue" stroke="midnightblue" points="2082.76,-250.022 2074.23,-243.751 2076.99,-253.979 2082.76,-250.022"/>
</g>
<!-- Node49&#45;&gt;Node47 -->
<g id="edge68" class="edge"><title>Node49&#45;&gt;Node47</title>
<path fill="none" stroke="midnightblue" d="M2118.56,-280.324C2131.39,-271.979 2151.01,-259.212 2166.17,-249.352"/>
<polygon fill="midnightblue" stroke="midnightblue" points="2168.45,-252.042 2174.93,-243.655 2164.64,-246.174 2168.45,-252.042"/>
</g>
</g>
</svg>
