<?xml version="1.0" encoding="UTF-8" standalone="no"?>
<!DOCTYPE svg PUBLIC "-//W3C//DTD SVG 1.1//EN"
 "http://www.w3.org/Graphics/SVG/1.1/DTD/svg11.dtd">
<!-- Generated by graphviz version 2.38.0 (20140413.2041)
 -->
<!-- Title: OgreD3D11Device.h Pages: 1 -->
<svg width="506pt" height="151pt"
 viewBox="0.00 0.00 506.00 151.00" xmlns="http://www.w3.org/2000/svg" xmlns:xlink="http://www.w3.org/1999/xlink">
<g id="graph0" class="graph" transform="scale(1 1) rotate(0) translate(4 147)">
<title>OgreD3D11Device.h</title>
<!-- Node1 -->
<g id="node1" class="node"><title>Node1</title>
<polygon fill="#bfbfbf" stroke="black" points="189.5,-123.5 189.5,-142.5 296.5,-142.5 296.5,-123.5 189.5,-123.5"/>
<text text-anchor="middle" x="243" y="-130.5" font-family="Helvetica,sans-Serif" font-size="10.00">OgreD3D11Device.h</text>
</g>
<!-- Node2 -->
<g id="node2" class="node"><title>Node2</title>
<g id="a_node2"><a xlink:href="_ogre_d3_d11_hardware_occlusion_query_8h.html" target="_top" xlink:title="OgreD3D11HardwareOcclusion\lQuery.h">
<polygon fill="none" stroke="black" points="0,-56.5 0,-86.5 154,-86.5 154,-56.5 0,-56.5"/>
<text text-anchor="start" x="8" y="-74.5" font-family="Helvetica,sans-Serif" font-size="10.00">OgreD3D11HardwareOcclusion</text>
<text text-anchor="middle" x="77" y="-63.5" font-family="Helvetica,sans-Serif" font-size="10.00">Query.h</text>
</a>
</g>
</g>
<!-- Node1&#45;&gt;Node2 -->
<g id="edge1" class="edge"><title>Node1&#45;&gt;Node2</title>
<path fill="none" stroke="midnightblue" d="M209.453,-119.976C182.463,-110.302 144.493,-96.6919 116.123,-86.523"/>
<polygon fill="midnightblue" stroke="midnightblue" points="208.622,-123.396 219.216,-123.475 210.984,-116.806 208.622,-123.396"/>
</g>
<!-- Node3 -->
<g id="node3" class="node"><title>Node3</title>
<g id="a_node3"><a xlink:href="_ogre_d3_d11_render_system_8h.html" target="_top" xlink:title="OgreD3D11RenderSystem.h">
<polygon fill="none" stroke="black" points="172,-62 172,-81 314,-81 314,-62 172,-62"/>
<text text-anchor="middle" x="243" y="-69" font-family="Helvetica,sans-Serif" font-size="10.00">OgreD3D11RenderSystem.h</text>
</a>
</g>
</g>
<!-- Node1&#45;&gt;Node3 -->
<g id="edge2" class="edge"><title>Node1&#45;&gt;Node3</title>
<path fill="none" stroke="midnightblue" d="M243,-113.317C243,-102.496 243,-89.398 243,-81.0091"/>
<polygon fill="midnightblue" stroke="midnightblue" points="239.5,-113.475 243,-123.475 246.5,-113.475 239.5,-113.475"/>
</g>
<!-- Node6 -->
<g id="node6" class="node"><title>Node6</title>
<g id="a_node6"><a xlink:href="_ogre_d3_d11_stereo_driver_n_v_i_d_i_a_8h.html" target="_top" xlink:title="OgreD3D11StereoDriverNVIDIA.h">
<polygon fill="none" stroke="black" points="332,-62 332,-81 498,-81 498,-62 332,-62"/>
<text text-anchor="middle" x="415" y="-69" font-family="Helvetica,sans-Serif" font-size="10.00">OgreD3D11StereoDriverNVIDIA.h</text>
</a>
</g>
</g>
<!-- Node1&#45;&gt;Node6 -->
<g id="edge6" class="edge"><title>Node1&#45;&gt;Node6</title>
<path fill="none" stroke="midnightblue" d="M277.45,-120.083C310.884,-108.517 360.791,-91.2524 390.402,-81.0091"/>
<polygon fill="midnightblue" stroke="midnightblue" points="275.95,-116.898 267.643,-123.475 278.238,-123.513 275.95,-116.898"/>
</g>
<!-- Node4 -->
<g id="node4" class="node"><title>Node4</title>
<g id="a_node4"><a xlink:href="_ogre_d3_d11_mappings_8h.html" target="_top" xlink:title="OgreD3D11Mappings.h">
<polygon fill="none" stroke="black" points="183.5,-0.5 183.5,-19.5 302.5,-19.5 302.5,-0.5 183.5,-0.5"/>
<text text-anchor="middle" x="243" y="-7.5" font-family="Helvetica,sans-Serif" font-size="10.00">OgreD3D11Mappings.h</text>
</a>
</g>
</g>
<!-- Node3&#45;&gt;Node4 -->
<g id="edge3" class="edge"><title>Node3&#45;&gt;Node4</title>
<path fill="none" stroke="midnightblue" d="M236.683,-51.8165C235.797,-40.9962 236.27,-27.898 238.103,-19.5091"/>
<polygon fill="midnightblue" stroke="midnightblue" points="233.252,-52.554 238.099,-61.9751 240.185,-51.5876 233.252,-52.554"/>
</g>
<!-- Node5 -->
<g id="node5" class="node"><title>Node5</title>
<g id="a_node5"><a xlink:href="_ogre_d3_d11_plugin_8h.html" target="_top" xlink:title="OgreD3D11Plugin.h">
<polygon fill="none" stroke="black" points="321,-0.5 321,-19.5 425,-19.5 425,-0.5 321,-0.5"/>
<text text-anchor="middle" x="373" y="-7.5" font-family="Helvetica,sans-Serif" font-size="10.00">OgreD3D11Plugin.h</text>
</a>
</g>
</g>
<!-- Node3&#45;&gt;Node5 -->
<g id="edge5" class="edge"><title>Node3&#45;&gt;Node5</title>
<path fill="none" stroke="midnightblue" d="M271.023,-57.6742C296.248,-46.1287 332.607,-29.4875 354.409,-19.5091"/>
<polygon fill="midnightblue" stroke="midnightblue" points="269.262,-54.6308 261.626,-61.9751 272.175,-60.9958 269.262,-54.6308"/>
</g>
<!-- Node4&#45;&gt;Node3 -->
<g id="edge4" class="edge"><title>Node4&#45;&gt;Node3</title>
<path fill="none" stroke="midnightblue" d="M249.315,-29.6631C250.203,-40.4806 249.732,-53.5803 247.901,-61.9751"/>
<polygon fill="midnightblue" stroke="midnightblue" points="252.746,-28.929 247.897,-19.5091 245.814,-29.897 252.746,-28.929"/>
</g>
</g>
</svg>
