<?xml version="1.0" encoding="UTF-8" standalone="no"?>
<!DOCTYPE svg PUBLIC "-//W3C//DTD SVG 1.1//EN"
 "http://www.w3.org/Graphics/SVG/1.1/DTD/svg11.dtd">
<!-- Generated by graphviz version 2.38.0 (20140413.2041)
 -->
<!-- Title: OgreVolumePrerequisites.h Pages: 1 -->
<svg width="1379pt" height="207pt"
 viewBox="0.00 0.00 1378.50 207.00" xmlns="http://www.w3.org/2000/svg" xmlns:xlink="http://www.w3.org/1999/xlink">
<g id="graph0" class="graph" transform="scale(1 1) rotate(0) translate(4 203)">
<title>OgreVolumePrerequisites.h</title>
<!-- Node1 -->
<g id="node1" class="node"><title>Node1</title>
<polygon fill="#bfbfbf" stroke="black" points="508,-179.5 508,-198.5 644,-198.5 644,-179.5 508,-179.5"/>
<text text-anchor="middle" x="576" y="-186.5" font-family="Helvetica,sans-Serif" font-size="10.00">OgreVolumePrerequisites.h</text>
</g>
<!-- Node2 -->
<g id="node2" class="node"><title>Node2</title>
<g id="a_node2"><a xlink:href="_ogre_volume_source_8h.html" target="_top" xlink:title="OgreVolumeSource.h">
<polygon fill="none" stroke="black" points="97,-118 97,-137 207,-137 207,-118 97,-118"/>
<text text-anchor="middle" x="152" y="-125" font-family="Helvetica,sans-Serif" font-size="10.00">OgreVolumeSource.h</text>
</a>
</g>
</g>
<!-- Node1&#45;&gt;Node2 -->
<g id="edge1" class="edge"><title>Node1&#45;&gt;Node2</title>
<path fill="none" stroke="midnightblue" d="M497.342,-179.88C425.227,-171.997 315.597,-158.908 221,-143 210.86,-141.295 199.946,-139.147 189.856,-137.032"/>
<polygon fill="midnightblue" stroke="midnightblue" points="497.384,-183.405 507.704,-181.005 498.14,-176.446 497.384,-183.405"/>
</g>
<!-- Node3 -->
<g id="node3" class="node"><title>Node3</title>
<g id="a_node3"><a xlink:href="_ogre_volume_cache_source_8h.html" target="_top" xlink:title="OgreVolumeCacheSource.h">
<polygon fill="none" stroke="black" points="0,-56.5 0,-75.5 138,-75.5 138,-56.5 0,-56.5"/>
<text text-anchor="middle" x="69" y="-63.5" font-family="Helvetica,sans-Serif" font-size="10.00">OgreVolumeCacheSource.h</text>
</a>
</g>
</g>
<!-- Node1&#45;&gt;Node3 -->
<g id="edge7" class="edge"><title>Node1&#45;&gt;Node3</title>
<path fill="none" stroke="midnightblue" d="M497.237,-185.665C367.072,-181.087 118.34,-169.02 88,-143 68.1779,-126.001 67.4015,-91.7504 68.2521,-75.6876"/>
<polygon fill="midnightblue" stroke="midnightblue" points="497.43,-189.174 507.545,-186.021 497.672,-182.178 497.43,-189.174"/>
</g>
<!-- Node4 -->
<g id="node4" class="node"><title>Node4</title>
<g id="a_node4"><a xlink:href="_ogre_volume_c_s_g_source_8h.html" target="_top" xlink:title="OgreVolumeCSGSource.h">
<polygon fill="none" stroke="black" points="302.5,-56.5 302.5,-75.5 433.5,-75.5 433.5,-56.5 302.5,-56.5"/>
<text text-anchor="middle" x="368" y="-63.5" font-family="Helvetica,sans-Serif" font-size="10.00">OgreVolumeCSGSource.h</text>
</a>
</g>
</g>
<!-- Node1&#45;&gt;Node4 -->
<g id="edge10" class="edge"><title>Node1&#45;&gt;Node4</title>
<path fill="none" stroke="midnightblue" d="M497.382,-186.586C422.669,-183.381 317.97,-173.41 292,-143 283.052,-132.523 285.177,-123.97 292,-112 302.252,-94.016 322.826,-82.4854 339.985,-75.603"/>
<polygon fill="midnightblue" stroke="midnightblue" points="497.584,-190.097 507.714,-186.995 497.861,-183.103 497.584,-190.097"/>
</g>
<!-- Node5 -->
<g id="node5" class="node"><title>Node5</title>
<g id="a_node5"><a xlink:href="_ogre_volume_grid_source_8h.html" target="_top" xlink:title="OgreVolumeGridSource.h">
<polygon fill="none" stroke="black" points="156,-56.5 156,-75.5 284,-75.5 284,-56.5 156,-56.5"/>
<text text-anchor="middle" x="220" y="-63.5" font-family="Helvetica,sans-Serif" font-size="10.00">OgreVolumeGridSource.h</text>
</a>
</g>
</g>
<!-- Node1&#45;&gt;Node5 -->
<g id="edge19" class="edge"><title>Node1&#45;&gt;Node5</title>
<path fill="none" stroke="midnightblue" d="M497.707,-182.263C423.657,-175.722 318.708,-163.233 283,-143 254.371,-126.778 233.248,-92.1389 224.476,-75.8334"/>
<polygon fill="midnightblue" stroke="midnightblue" points="497.676,-185.773 507.94,-183.147 498.278,-178.799 497.676,-185.773"/>
</g>
<!-- Node8 -->
<g id="node8" class="node"><title>Node8</title>
<g id="a_node8"><a xlink:href="_ogre_volume_chunk_8h.html" target="_top" xlink:title="OgreVolumeChunk.h">
<polygon fill="none" stroke="black" points="301.5,-118 301.5,-137 408.5,-137 408.5,-118 301.5,-118"/>
<text text-anchor="middle" x="355" y="-125" font-family="Helvetica,sans-Serif" font-size="10.00">OgreVolumeChunk.h</text>
</a>
</g>
</g>
<!-- Node1&#45;&gt;Node8 -->
<g id="edge8" class="edge"><title>Node1&#45;&gt;Node8</title>
<path fill="none" stroke="midnightblue" d="M534.484,-176.822C491.554,-165.264 425.472,-147.473 386.605,-137.009"/>
<polygon fill="midnightblue" stroke="midnightblue" points="533.77,-180.255 544.336,-179.475 535.59,-173.496 533.77,-180.255"/>
</g>
<!-- Node9 -->
<g id="node9" class="node"><title>Node9</title>
<g id="a_node9"><a xlink:href="_ogre_volume_chunk_handler_8h.html" target="_top" xlink:title="OgreVolumeChunkHandler.h">
<polygon fill="none" stroke="black" points="426.5,-118 426.5,-137 567.5,-137 567.5,-118 426.5,-118"/>
<text text-anchor="middle" x="497" y="-125" font-family="Helvetica,sans-Serif" font-size="10.00">OgreVolumeChunkHandler.h</text>
</a>
</g>
</g>
<!-- Node1&#45;&gt;Node9 -->
<g id="edge9" class="edge"><title>Node1&#45;&gt;Node9</title>
<path fill="none" stroke="midnightblue" d="M556.474,-173.294C541.32,-161.88 520.843,-146.458 508.298,-137.009"/>
<polygon fill="midnightblue" stroke="midnightblue" points="554.588,-176.255 564.681,-179.475 558.799,-170.663 554.588,-176.255"/>
</g>
<!-- Node10 -->
<g id="node10" class="node"><title>Node10</title>
<g id="a_node10"><a xlink:href="_ogre_volume_simplex_noise_8h.html" target="_top" xlink:title="OgreVolumeSimplexNoise.h">
<polygon fill="none" stroke="black" points="586,-118 586,-137 726,-137 726,-118 586,-118"/>
<text text-anchor="middle" x="656" y="-125" font-family="Helvetica,sans-Serif" font-size="10.00">OgreVolumeSimplexNoise.h</text>
</a>
</g>
</g>
<!-- Node1&#45;&gt;Node10 -->
<g id="edge11" class="edge"><title>Node1&#45;&gt;Node10</title>
<path fill="none" stroke="midnightblue" d="M595.773,-173.294C611.119,-161.88 631.855,-146.458 644.559,-137.009"/>
<polygon fill="midnightblue" stroke="midnightblue" points="593.397,-170.699 587.462,-179.475 597.575,-176.316 593.397,-170.699"/>
</g>
<!-- Node11 -->
<g id="node11" class="node"><title>Node11</title>
<g id="a_node11"><a xlink:href="_ogre_volume_octree_node_8h.html" target="_top" xlink:title="OgreVolumeOctreeNode.h">
<polygon fill="none" stroke="black" points="744.5,-118 744.5,-137 875.5,-137 875.5,-118 744.5,-118"/>
<text text-anchor="middle" x="810" y="-125" font-family="Helvetica,sans-Serif" font-size="10.00">OgreVolumeOctreeNode.h</text>
</a>
</g>
</g>
<!-- Node1&#45;&gt;Node11 -->
<g id="edge13" class="edge"><title>Node1&#45;&gt;Node11</title>
<path fill="none" stroke="midnightblue" d="M619.385,-176.968C664.823,-165.415 735.209,-147.517 776.536,-137.009"/>
<polygon fill="midnightblue" stroke="midnightblue" points="618.356,-173.619 609.526,-179.475 620.081,-180.403 618.356,-173.619"/>
</g>
<!-- Node12 -->
<g id="node12" class="node"><title>Node12</title>
<g id="a_node12"><a xlink:href="_ogre_volume_dual_grid_generator_8h.html" target="_top" xlink:title="OgreVolumeDualGridGenerator.h">
<polygon fill="none" stroke="black" points="785,-56.5 785,-75.5 945,-75.5 945,-56.5 785,-56.5"/>
<text text-anchor="middle" x="865" y="-63.5" font-family="Helvetica,sans-Serif" font-size="10.00">OgreVolumeDualGridGenerator.h</text>
</a>
</g>
</g>
<!-- Node1&#45;&gt;Node12 -->
<g id="edge15" class="edge"><title>Node1&#45;&gt;Node12</title>
<path fill="none" stroke="midnightblue" d="M654.469,-187.758C735.748,-185.64 854.895,-176.667 884,-143 900.9,-123.451 882.248,-91.0563 871.507,-75.6518"/>
<polygon fill="midnightblue" stroke="midnightblue" points="654.175,-184.264 644.258,-187.993 654.336,-191.262 654.175,-184.264"/>
</g>
<!-- Node13 -->
<g id="node13" class="node"><title>Node13</title>
<g id="a_node13"><a xlink:href="_ogre_volume_iso_surface_8h.html" target="_top" xlink:title="OgreVolumeIsoSurface.h">
<polygon fill="none" stroke="black" points="932,-118 932,-137 1058,-137 1058,-118 932,-118"/>
<text text-anchor="middle" x="995" y="-125" font-family="Helvetica,sans-Serif" font-size="10.00">OgreVolumeIsoSurface.h</text>
</a>
</g>
</g>
<!-- Node1&#45;&gt;Node13 -->
<g id="edge16" class="edge"><title>Node1&#45;&gt;Node13</title>
<path fill="none" stroke="midnightblue" d="M654.281,-178.949C723.716,-170.623 827.817,-157.413 918,-143 929.015,-141.24 940.873,-139.119 951.905,-137.05"/>
<polygon fill="midnightblue" stroke="midnightblue" points="653.808,-175.48 644.294,-180.141 654.638,-182.431 653.808,-175.48"/>
</g>
<!-- Node15 -->
<g id="node15" class="node"><title>Node15</title>
<g id="a_node15"><a xlink:href="_ogre_volume_mesh_builder_8h.html" target="_top" xlink:title="OgreVolumeMeshBuilder.h">
<polygon fill="none" stroke="black" points="1076.5,-118 1076.5,-137 1209.5,-137 1209.5,-118 1076.5,-118"/>
<text text-anchor="middle" x="1143" y="-125" font-family="Helvetica,sans-Serif" font-size="10.00">OgreVolumeMeshBuilder.h</text>
</a>
</g>
</g>
<!-- Node1&#45;&gt;Node15 -->
<g id="edge20" class="edge"><title>Node1&#45;&gt;Node15</title>
<path fill="none" stroke="midnightblue" d="M654.18,-183.187C751.29,-176.668 921.892,-163.443 1067,-143 1078.44,-141.388 1090.77,-139.223 1102.1,-137.058"/>
<polygon fill="midnightblue" stroke="midnightblue" points="653.896,-179.698 644.15,-183.854 654.361,-186.682 653.896,-179.698"/>
</g>
<!-- Node16 -->
<g id="node16" class="node"><title>Node16</title>
<g id="a_node16"><a xlink:href="_ogre_volume_octree_node_split_policy_8h.html" target="_top" xlink:title="OgreVolumeOctreeNodeSplit\lPolicy.h">
<polygon fill="none" stroke="black" points="1227.5,-112.5 1227.5,-142.5 1370.5,-142.5 1370.5,-112.5 1227.5,-112.5"/>
<text text-anchor="start" x="1235.5" y="-130.5" font-family="Helvetica,sans-Serif" font-size="10.00">OgreVolumeOctreeNodeSplit</text>
<text text-anchor="middle" x="1299" y="-119.5" font-family="Helvetica,sans-Serif" font-size="10.00">Policy.h</text>
</a>
</g>
</g>
<!-- Node1&#45;&gt;Node16 -->
<g id="edge21" class="edge"><title>Node1&#45;&gt;Node16</title>
<path fill="none" stroke="midnightblue" d="M654.596,-185.272C776.034,-180.433 1016.43,-168.369 1219,-143 1221.66,-142.667 1224.37,-142.303 1227.1,-141.915"/>
<polygon fill="midnightblue" stroke="midnightblue" points="654.14,-181.787 644.285,-185.677 654.415,-188.782 654.14,-181.787"/>
</g>
<!-- Node2&#45;&gt;Node3 -->
<g id="edge2" class="edge"><title>Node2&#45;&gt;Node3</title>
<path fill="none" stroke="midnightblue" d="M131.93,-112.113C115.967,-100.669 94.1734,-85.046 80.8698,-75.5091"/>
<polygon fill="midnightblue" stroke="midnightblue" points="129.941,-114.993 140.108,-117.975 134.02,-109.304 129.941,-114.993"/>
</g>
<!-- Node2&#45;&gt;Node4 -->
<g id="edge3" class="edge"><title>Node2&#45;&gt;Node4</title>
<path fill="none" stroke="midnightblue" d="M192.843,-115.249C234.808,-103.689 299.203,-85.9511 337.11,-75.5091"/>
<polygon fill="midnightblue" stroke="midnightblue" points="191.659,-111.945 182.948,-117.975 193.518,-118.694 191.659,-111.945"/>
</g>
<!-- Node2&#45;&gt;Node5 -->
<g id="edge4" class="edge"><title>Node2&#45;&gt;Node5</title>
<path fill="none" stroke="midnightblue" d="M169.543,-111.15C182.508,-99.8058 199.679,-84.7811 210.275,-75.5091"/>
<polygon fill="midnightblue" stroke="midnightblue" points="166.964,-108.756 161.743,-117.975 171.573,-114.024 166.964,-108.756"/>
</g>
<!-- Node6 -->
<g id="node6" class="node"><title>Node6</title>
<g id="a_node6"><a xlink:href="_ogre_volume_half_float_grid_source_8h.html" target="_top" xlink:title="OgreVolumeHalfFloatGridSource.h">
<polygon fill="none" stroke="black" points="50.5,-0.5 50.5,-19.5 217.5,-19.5 217.5,-0.5 50.5,-0.5"/>
<text text-anchor="middle" x="134" y="-7.5" font-family="Helvetica,sans-Serif" font-size="10.00">OgreVolumeHalfFloatGridSource.h</text>
</a>
</g>
</g>
<!-- Node5&#45;&gt;Node6 -->
<g id="edge5" class="edge"><title>Node5&#45;&gt;Node6</title>
<path fill="none" stroke="midnightblue" d="M197.545,-50.9005C181.776,-40.9986 161.186,-28.0705 147.783,-19.6545"/>
<polygon fill="midnightblue" stroke="midnightblue" points="195.852,-53.9704 206.183,-56.324 199.575,-48.0421 195.852,-53.9704"/>
</g>
<!-- Node7 -->
<g id="node7" class="node"><title>Node7</title>
<g id="a_node7"><a xlink:href="_ogre_volume_texture_source_8h.html" target="_top" xlink:title="OgreVolumeTextureSource.h">
<polygon fill="none" stroke="black" points="235.5,-0.5 235.5,-19.5 378.5,-19.5 378.5,-0.5 235.5,-0.5"/>
<text text-anchor="middle" x="307" y="-7.5" font-family="Helvetica,sans-Serif" font-size="10.00">OgreVolumeTextureSource.h</text>
</a>
</g>
</g>
<!-- Node5&#45;&gt;Node7 -->
<g id="edge6" class="edge"><title>Node5&#45;&gt;Node7</title>
<path fill="none" stroke="midnightblue" d="M242.716,-50.9005C258.669,-40.9986 279.497,-28.0705 293.057,-19.6545"/>
<polygon fill="midnightblue" stroke="midnightblue" points="240.629,-48.0765 233.978,-56.324 244.32,-54.024 240.629,-48.0765"/>
</g>
<!-- Node10&#45;&gt;Node4 -->
<g id="edge12" class="edge"><title>Node10&#45;&gt;Node4</title>
<path fill="none" stroke="midnightblue" d="M604.704,-115.902C548.869,-104.367 460.691,-86.1498 409.187,-75.5091"/>
<polygon fill="midnightblue" stroke="midnightblue" points="604.235,-119.379 614.737,-117.975 605.652,-112.524 604.235,-119.379"/>
</g>
<!-- Node11&#45;&gt;Node12 -->
<g id="edge14" class="edge"><title>Node11&#45;&gt;Node12</title>
<path fill="none" stroke="midnightblue" d="M824.792,-110.497C835.202,-99.2356 848.727,-84.6044 857.134,-75.5091"/>
<polygon fill="midnightblue" stroke="midnightblue" points="822.098,-108.256 817.88,-117.975 827.238,-113.008 822.098,-108.256"/>
</g>
<!-- Node13&#45;&gt;Node12 -->
<g id="edge17" class="edge"><title>Node13&#45;&gt;Node12</title>
<path fill="none" stroke="midnightblue" d="M966.977,-113.674C941.752,-102.129 905.393,-85.4875 883.591,-75.5091"/>
<polygon fill="midnightblue" stroke="midnightblue" points="965.825,-116.996 976.374,-117.975 968.738,-110.631 965.825,-116.996"/>
</g>
<!-- Node14 -->
<g id="node14" class="node"><title>Node14</title>
<g id="a_node14"><a xlink:href="_ogre_volume_iso_surface_m_c_8h.html" target="_top" xlink:title="OgreVolumeIsoSurfaceMC.h">
<polygon fill="none" stroke="black" points="963,-56.5 963,-75.5 1105,-75.5 1105,-56.5 963,-56.5"/>
<text text-anchor="middle" x="1034" y="-63.5" font-family="Helvetica,sans-Serif" font-size="10.00">OgreVolumeIsoSurfaceMC.h</text>
</a>
</g>
</g>
<!-- Node13&#45;&gt;Node14 -->
<g id="edge18" class="edge"><title>Node13&#45;&gt;Node14</title>
<path fill="none" stroke="midnightblue" d="M1006.14,-109.505C1013.43,-98.388 1022.63,-84.3395 1028.42,-75.5091"/>
<polygon fill="midnightblue" stroke="midnightblue" points="1003.14,-107.693 1000.59,-117.975 1009,-111.53 1003.14,-107.693"/>
</g>
</g>
</svg>
