<?xml version="1.0" encoding="UTF-8" standalone="no"?>
<!DOCTYPE svg PUBLIC "-//W3C//DTD SVG 1.1//EN"
 "http://www.w3.org/Graphics/SVG/1.1/DTD/svg11.dtd">
<!-- Generated by graphviz version 2.38.0 (20140413.2041)
 -->
<!-- Title: OgreD3D9Driver.h Pages: 1 -->
<svg width="276pt" height="84pt"
 viewBox="0.00 0.00 275.50 84.00" xmlns="http://www.w3.org/2000/svg" xmlns:xlink="http://www.w3.org/1999/xlink">
<g id="graph0" class="graph" transform="scale(1 1) rotate(0) translate(4 80)">
<title>OgreD3D9Driver.h</title>
<!-- Node1 -->
<g id="node1" class="node"><title>Node1</title>
<polygon fill="#bfbfbf" stroke="black" points="78.5,-56.5 78.5,-75.5 176.5,-75.5 176.5,-56.5 78.5,-56.5"/>
<text text-anchor="middle" x="127.5" y="-63.5" font-family="Helvetica,sans-Serif" font-size="10.00">OgreD3D9Driver.h</text>
</g>
<!-- Node2 -->
<g id="node2" class="node"><title>Node2</title>
<g id="a_node2"><a xlink:href="_ogre_d3_d9_driver_list_8h.html" target="_top" xlink:title="OgreD3D9DriverList.h">
<polygon fill="none" stroke="black" points="0,-0.5 0,-19.5 113,-19.5 113,-0.5 0,-0.5"/>
<text text-anchor="middle" x="56.5" y="-7.5" font-family="Helvetica,sans-Serif" font-size="10.00">OgreD3D9DriverList.h</text>
</a>
</g>
</g>
<!-- Node1&#45;&gt;Node2 -->
<g id="edge1" class="edge"><title>Node1&#45;&gt;Node2</title>
<path fill="none" stroke="midnightblue" d="M107.91,-50.1008C95.1324,-40.3824 78.8873,-28.0269 68.1149,-19.8339"/>
<polygon fill="midnightblue" stroke="midnightblue" points="106.014,-53.0561 116.093,-56.324 110.252,-47.4844 106.014,-53.0561"/>
</g>
<!-- Node3 -->
<g id="node3" class="node"><title>Node3</title>
<g id="a_node3"><a xlink:href="_ogre_d3_d9_video_mode_list_8h.html" target="_top" xlink:title="OgreD3D9VideoModeList.h">
<polygon fill="none" stroke="black" points="131.5,-0.5 131.5,-19.5 267.5,-19.5 267.5,-0.5 131.5,-0.5"/>
<text text-anchor="middle" x="199.5" y="-7.5" font-family="Helvetica,sans-Serif" font-size="10.00">OgreD3D9VideoModeList.h</text>
</a>
</g>
</g>
<!-- Node1&#45;&gt;Node3 -->
<g id="edge2" class="edge"><title>Node1&#45;&gt;Node3</title>
<path fill="none" stroke="midnightblue" d="M147.366,-50.1008C160.323,-40.3824 176.797,-28.0269 187.721,-19.8339"/>
<polygon fill="midnightblue" stroke="midnightblue" points="144.968,-47.5239 139.068,-56.324 149.168,-53.1239 144.968,-47.5239"/>
</g>
</g>
</svg>
