<?xml version="1.0" encoding="UTF-8" standalone="no"?>
<!DOCTYPE svg PUBLIC "-//W3C//DTD SVG 1.1//EN"
 "http://www.w3.org/Graphics/SVG/1.1/DTD/svg11.dtd">
<!-- Generated by graphviz version 2.38.0 (20140413.2041)
 -->
<!-- Title: OgreResourceManager.h Pages: 1 -->
<svg width="3524pt" height="476pt"
 viewBox="0.00 0.00 3523.81 476.00" xmlns="http://www.w3.org/2000/svg" xmlns:xlink="http://www.w3.org/1999/xlink">
<g id="graph0" class="graph" transform="scale(1 1) rotate(0) translate(4 472)">
<title>OgreResourceManager.h</title>
<!-- Node1 -->
<g id="node1" class="node"><title>Node1</title>
<polygon fill="#bfbfbf" stroke="black" points="1009.81,-448.5 1009.81,-467.5 1134.81,-467.5 1134.81,-448.5 1009.81,-448.5"/>
<text text-anchor="middle" x="1072.31" y="-455.5" font-family="Helvetica,sans-Serif" font-size="10.00">OgreResourceManager.h</text>
</g>
<!-- Node2 -->
<g id="node2" class="node"><title>Node2</title>
<g id="a_node2"><a xlink:href="_ogre_compositor_manager_8h.html" target="_top" xlink:title="OgreCompositorManager.h">
<polygon fill="none" stroke="black" points="621.309,-280.5 621.309,-299.5 755.309,-299.5 755.309,-280.5 621.309,-280.5"/>
<text text-anchor="middle" x="688.309" y="-287.5" font-family="Helvetica,sans-Serif" font-size="10.00">OgreCompositorManager.h</text>
</a>
</g>
</g>
<!-- Node1&#45;&gt;Node2 -->
<g id="edge1" class="edge"><title>Node1&#45;&gt;Node2</title>
<path fill="none" stroke="midnightblue" d="M1013.72,-446.413C978.602,-439.018 933.493,-427.65 895.309,-412 816.348,-379.638 731.109,-321.514 700.281,-299.64"/>
<polygon fill="midnightblue" stroke="midnightblue" points="1013.32,-449.903 1023.82,-448.488 1014.73,-443.046 1013.32,-449.903"/>
</g>
<!-- Node14 -->
<g id="node14" class="node"><title>Node14</title>
<g id="a_node14"><a xlink:href="_ogre_material_manager_8h.html" target="_top" xlink:title="OgreMaterialManager.h">
<polygon fill="none" stroke="black" points="268.309,-392.5 268.309,-411.5 386.309,-411.5 386.309,-392.5 268.309,-392.5"/>
<text text-anchor="middle" x="327.309" y="-399.5" font-family="Helvetica,sans-Serif" font-size="10.00">OgreMaterialManager.h</text>
</a>
</g>
</g>
<!-- Node1&#45;&gt;Node14 -->
<g id="edge21" class="edge"><title>Node1&#45;&gt;Node14</title>
<path fill="none" stroke="midnightblue" d="M999.47,-451.72C852.175,-441.044 521.487,-417.075 386.449,-407.287"/>
<polygon fill="midnightblue" stroke="midnightblue" points="999.526,-455.234 1009.75,-452.466 1000.03,-448.252 999.526,-455.234"/>
</g>
<!-- Node20 -->
<g id="node20" class="node"><title>Node20</title>
<g id="a_node20"><a xlink:href="_ogre_gpu_program_manager_8h.html" target="_top" xlink:title="OgreGpuProgramManager.h">
<polygon fill="none" stroke="black" points="1157.31,-392.5 1157.31,-411.5 1295.31,-411.5 1295.31,-392.5 1157.31,-392.5"/>
<text text-anchor="middle" x="1226.31" y="-399.5" font-family="Helvetica,sans-Serif" font-size="10.00">OgreGpuProgramManager.h</text>
</a>
</g>
</g>
<!-- Node1&#45;&gt;Node20 -->
<g id="edge30" class="edge"><title>Node1&#45;&gt;Node20</title>
<path fill="none" stroke="midnightblue" d="M1106.42,-445.039C1135.4,-434.879 1176.27,-420.546 1202.02,-411.516"/>
<polygon fill="midnightblue" stroke="midnightblue" points="1104.99,-441.832 1096.71,-448.444 1107.31,-448.437 1104.99,-441.832"/>
</g>
<!-- Node30 -->
<g id="node30" class="node"><title>Node30</title>
<g id="a_node30"><a xlink:href="_ogre_high_level_gpu_program_manager_8h.html" target="_top" xlink:title="OgreHighLevelGpuProgramManager.h">
<polygon fill="none" stroke="black" points="2487.31,-392.5 2487.31,-411.5 2669.31,-411.5 2669.31,-392.5 2487.31,-392.5"/>
<text text-anchor="middle" x="2578.31" y="-399.5" font-family="Helvetica,sans-Serif" font-size="10.00">OgreHighLevelGpuProgramManager.h</text>
</a>
</g>
</g>
<!-- Node1&#45;&gt;Node30 -->
<g id="edge41" class="edge"><title>Node1&#45;&gt;Node30</title>
<path fill="none" stroke="midnightblue" d="M1145.13,-454.389C1394.18,-445.459 2211.76,-416.143 2486.97,-406.275"/>
<polygon fill="midnightblue" stroke="midnightblue" points="1144.97,-450.892 1135.1,-454.748 1145.22,-457.888 1144.97,-450.892"/>
</g>
<!-- Node39 -->
<g id="node39" class="node"><title>Node39</title>
<g id="a_node39"><a xlink:href="_ogre_mesh_manager_8h.html" target="_top" xlink:title="OgreMeshManager.h">
<polygon fill="none" stroke="black" points="773.809,-280.5 773.809,-299.5 880.809,-299.5 880.809,-280.5 773.809,-280.5"/>
<text text-anchor="middle" x="827.309" y="-287.5" font-family="Helvetica,sans-Serif" font-size="10.00">OgreMeshManager.h</text>
</a>
</g>
</g>
<!-- Node1&#45;&gt;Node39 -->
<g id="edge51" class="edge"><title>Node1&#45;&gt;Node39</title>
<path fill="none" stroke="midnightblue" d="M1021.73,-445.913C972.046,-432.557 897.208,-405.475 851.309,-356 836.255,-339.773 830.443,-313.293 828.364,-299.682"/>
<polygon fill="midnightblue" stroke="midnightblue" points="1021.06,-449.356 1031.62,-448.48 1022.82,-442.58 1021.06,-449.356"/>
</g>
<!-- Node40 -->
<g id="node40" class="node"><title>Node40</title>
<g id="a_node40"><a xlink:href="_ogre_skeleton_manager_8h.html" target="_top" xlink:title="OgreSkeletonManager.h">
<polygon fill="none" stroke="black" points="639.309,-392.5 639.309,-411.5 761.309,-411.5 761.309,-392.5 639.309,-392.5"/>
<text text-anchor="middle" x="700.309" y="-399.5" font-family="Helvetica,sans-Serif" font-size="10.00">OgreSkeletonManager.h</text>
</a>
</g>
</g>
<!-- Node1&#45;&gt;Node40 -->
<g id="edge53" class="edge"><title>Node1&#45;&gt;Node40</title>
<path fill="none" stroke="midnightblue" d="M1003.28,-446.979C933.009,-436.779 825.254,-421.137 758.978,-411.516"/>
<polygon fill="midnightblue" stroke="midnightblue" points="1002.97,-450.471 1013.36,-448.444 1003.97,-443.543 1002.97,-450.471"/>
</g>
<!-- Node41 -->
<g id="node41" class="node"><title>Node41</title>
<g id="a_node41"><a xlink:href="_ogre_texture_manager_8h.html" target="_top" xlink:title="OgreTextureManager.h">
<polygon fill="none" stroke="black" points="2037.31,-280.5 2037.31,-299.5 2153.31,-299.5 2153.31,-280.5 2037.31,-280.5"/>
<text text-anchor="middle" x="2095.31" y="-287.5" font-family="Helvetica,sans-Serif" font-size="10.00">OgreTextureManager.h</text>
</a>
</g>
</g>
<!-- Node1&#45;&gt;Node41 -->
<g id="edge55" class="edge"><title>Node1&#45;&gt;Node41</title>
<path fill="none" stroke="midnightblue" d="M1145,-456.19C1297.32,-452.863 1660,-436.373 1951.31,-356 2000.75,-342.358 2054.8,-313.963 2080.34,-299.648"/>
<polygon fill="midnightblue" stroke="midnightblue" points="1144.76,-452.694 1134.84,-456.399 1144.91,-459.692 1144.76,-452.694"/>
</g>
<!-- Node47 -->
<g id="node47" class="node"><title>Node47</title>
<g id="a_node47"><a xlink:href="_ogre_font_manager_8h.html" target="_top" xlink:title="OgreFontManager.h">
<polygon fill="none" stroke="black" points="3102.81,-392.5 3102.81,-411.5 3205.81,-411.5 3205.81,-392.5 3102.81,-392.5"/>
<text text-anchor="middle" x="3154.31" y="-399.5" font-family="Helvetica,sans-Serif" font-size="10.00">OgreFontManager.h</text>
</a>
</g>
</g>
<!-- Node1&#45;&gt;Node47 -->
<g id="edge63" class="edge"><title>Node1&#45;&gt;Node47</title>
<path fill="none" stroke="midnightblue" d="M1145.28,-455.107C1474.87,-446.559 2820.84,-411.649 3102.48,-404.344"/>
<polygon fill="midnightblue" stroke="midnightblue" points="1144.81,-451.618 1134.9,-455.377 1144.99,-458.616 1144.81,-451.618"/>
</g>
<!-- Node3 -->
<g id="node3" class="node"><title>Node3</title>
<g id="a_node3"><a xlink:href="_ogre_8h.html" target="_top" xlink:title="Ogre.h">
<polygon fill="none" stroke="black" points="665.309,-224.5 665.309,-243.5 711.309,-243.5 711.309,-224.5 665.309,-224.5"/>
<text text-anchor="middle" x="688.309" y="-231.5" font-family="Helvetica,sans-Serif" font-size="10.00">Ogre.h</text>
</a>
</g>
</g>
<!-- Node2&#45;&gt;Node3 -->
<g id="edge2" class="edge"><title>Node2&#45;&gt;Node3</title>
<path fill="none" stroke="midnightblue" d="M688.309,-269.805C688.309,-260.91 688.309,-250.78 688.309,-243.751"/>
<polygon fill="midnightblue" stroke="midnightblue" points="684.809,-270.083 688.309,-280.083 691.809,-270.083 684.809,-270.083"/>
</g>
<!-- Node4 -->
<g id="node4" class="node"><title>Node4</title>
<g id="a_node4"><a xlink:href="_ogre_hlms_datablock_8h.html" target="_top" xlink:title="OgreHlmsDatablock.h">
<polygon fill="none" stroke="black" points="341.809,-112.5 341.809,-131.5 454.809,-131.5 454.809,-112.5 341.809,-112.5"/>
<text text-anchor="middle" x="398.309" y="-119.5" font-family="Helvetica,sans-Serif" font-size="10.00">OgreHlmsDatablock.h</text>
</a>
</g>
</g>
<!-- Node3&#45;&gt;Node4 -->
<g id="edge3" class="edge"><title>Node3&#45;&gt;Node4</title>
<path fill="none" stroke="midnightblue" d="M654.914,-231.852C590.184,-228.945 450.953,-219.147 416.309,-188 400.113,-173.439 397.95,-145.724 397.978,-131.656"/>
<polygon fill="midnightblue" stroke="midnightblue" points="654.863,-235.353 665.001,-232.276 655.157,-228.359 654.863,-235.353"/>
</g>
<!-- Node5 -->
<g id="node5" class="node"><title>Node5</title>
<g id="a_node5"><a xlink:href="_ogre_hlms_material_base_8h.html" target="_top" xlink:title="OgreHlmsMaterialBase.h">
<polygon fill="none" stroke="black" points="379.309,-56.5 379.309,-75.5 505.309,-75.5 505.309,-56.5 379.309,-56.5"/>
<text text-anchor="middle" x="442.309" y="-63.5" font-family="Helvetica,sans-Serif" font-size="10.00">OgreHlmsMaterialBase.h</text>
</a>
</g>
</g>
<!-- Node3&#45;&gt;Node5 -->
<g id="edge15" class="edge"><title>Node3&#45;&gt;Node5</title>
<path fill="none" stroke="midnightblue" d="M655.208,-232.331C553.318,-229.935 249.498,-220.13 220.309,-188 165.263,-127.407 308.244,-90.8808 389.935,-75.5143"/>
<polygon fill="midnightblue" stroke="midnightblue" points="655.169,-235.831 665.246,-232.559 655.328,-228.833 655.169,-235.831"/>
</g>
<!-- Node6 -->
<g id="node6" class="node"><title>Node6</title>
<g id="a_node6"><a xlink:href="_ogre_hlms_pbs_material_8h.html" target="_top" xlink:title="OgreHlmsPbsMaterial.h">
<polygon fill="none" stroke="black" points="736.809,-0.5 736.809,-19.5 857.809,-19.5 857.809,-0.5 736.809,-0.5"/>
<text text-anchor="middle" x="797.309" y="-7.5" font-family="Helvetica,sans-Serif" font-size="10.00">OgreHlmsPbsMaterial.h</text>
</a>
</g>
</g>
<!-- Node3&#45;&gt;Node6 -->
<g id="edge16" class="edge"><title>Node3&#45;&gt;Node6</title>
<path fill="none" stroke="midnightblue" d="M721.493,-232.162C820.179,-229.331 1106.71,-218.529 1134.31,-188 1221.51,-91.5547 975.617,-38.8067 857.123,-19.5564"/>
<polygon fill="midnightblue" stroke="midnightblue" points="721.374,-228.664 711.475,-232.44 721.568,-235.661 721.374,-228.664"/>
</g>
<!-- Node7 -->
<g id="node7" class="node"><title>Node7</title>
<g id="a_node7"><a xlink:href="_ogre_hlms_property_map_8h.html" target="_top" xlink:title="OgreHlmsPropertyMap.h">
<polygon fill="none" stroke="black" points="425.809,-168.5 425.809,-187.5 550.809,-187.5 550.809,-168.5 425.809,-168.5"/>
<text text-anchor="middle" x="488.309" y="-175.5" font-family="Helvetica,sans-Serif" font-size="10.00">OgreHlmsPropertyMap.h</text>
</a>
</g>
</g>
<!-- Node3&#45;&gt;Node7 -->
<g id="edge6" class="edge"><title>Node3&#45;&gt;Node7</title>
<path fill="none" stroke="midnightblue" d="M655.041,-224.018C617.513,-213.885 556.92,-197.525 520.038,-187.567"/>
<polygon fill="midnightblue" stroke="midnightblue" points="654.408,-227.472 664.975,-226.7 656.233,-220.714 654.408,-227.472"/>
</g>
<!-- Node8 -->
<g id="node8" class="node"><title>Node8</title>
<g id="a_node8"><a xlink:href="_ogre_hlms_shader_generator_8h.html" target="_top" xlink:title="OgreHlmsShaderGenerator.h">
<polygon fill="none" stroke="black" points="567.809,-112.5 567.809,-131.5 710.809,-131.5 710.809,-112.5 567.809,-112.5"/>
<text text-anchor="middle" x="639.309" y="-119.5" font-family="Helvetica,sans-Serif" font-size="10.00">OgreHlmsShaderGenerator.h</text>
</a>
</g>
</g>
<!-- Node3&#45;&gt;Node8 -->
<g id="edge19" class="edge"><title>Node3&#45;&gt;Node8</title>
<path fill="none" stroke="midnightblue" d="M704.514,-216.834C715.916,-203.42 727.619,-184.017 718.309,-168 707.76,-149.85 686.849,-138.413 669.19,-131.613"/>
<polygon fill="midnightblue" stroke="midnightblue" points="701.821,-214.592 697.644,-224.329 706.981,-219.322 701.821,-214.592"/>
</g>
<!-- Node9 -->
<g id="node9" class="node"><title>Node9</title>
<g id="a_node9"><a xlink:href="_ogre_hlms_shader_template_8h.html" target="_top" xlink:title="OgreHlmsShaderTemplate.h">
<polygon fill="none" stroke="black" points="229.309,-168.5 229.309,-187.5 369.309,-187.5 369.309,-168.5 229.309,-168.5"/>
<text text-anchor="middle" x="299.309" y="-175.5" font-family="Helvetica,sans-Serif" font-size="10.00">OgreHlmsShaderTemplate.h</text>
</a>
</g>
</g>
<!-- Node3&#45;&gt;Node9 -->
<g id="edge10" class="edge"><title>Node3&#45;&gt;Node9</title>
<path fill="none" stroke="midnightblue" d="M655.001,-228.376C589.661,-219.306 443.812,-199.059 360.592,-187.507"/>
<polygon fill="midnightblue" stroke="midnightblue" points="654.754,-231.875 665.14,-229.784 655.717,-224.942 654.754,-231.875"/>
</g>
<!-- Node10 -->
<g id="node10" class="node"><title>Node10</title>
<g id="a_node10"><a xlink:href="_ogre_hlms_manager_8h.html" target="_top" xlink:title="OgreHlmsManager.h">
<polygon fill="none" stroke="black" points="828.809,-112.5 828.809,-131.5 935.809,-131.5 935.809,-112.5 828.809,-112.5"/>
<text text-anchor="middle" x="882.309" y="-119.5" font-family="Helvetica,sans-Serif" font-size="10.00">OgreHlmsManager.h</text>
</a>
</g>
</g>
<!-- Node3&#45;&gt;Node10 -->
<g id="edge12" class="edge"><title>Node3&#45;&gt;Node10</title>
<path fill="none" stroke="midnightblue" d="M721.852,-231.264C778.133,-227.574 887.751,-216.786 911.309,-188 925.552,-170.596 904.886,-145.085 891.748,-131.791"/>
<polygon fill="midnightblue" stroke="midnightblue" points="721.438,-227.783 711.672,-231.893 721.869,-234.77 721.438,-227.783"/>
</g>
<!-- Node11 -->
<g id="node11" class="node"><title>Node11</title>
<g id="a_node11"><a xlink:href="_ogre_hlms_shader_manager_8h.html" target="_top" xlink:title="OgreHlmsShaderManager.h">
<polygon fill="none" stroke="black" points="765.809,-168.5 765.809,-187.5 902.809,-187.5 902.809,-168.5 765.809,-168.5"/>
<text text-anchor="middle" x="834.309" y="-175.5" font-family="Helvetica,sans-Serif" font-size="10.00">OgreHlmsShaderManager.h</text>
</a>
</g>
</g>
<!-- Node3&#45;&gt;Node11 -->
<g id="edge13" class="edge"><title>Node3&#45;&gt;Node11</title>
<path fill="none" stroke="midnightblue" d="M721.008,-220.906C748.457,-210.754 786.977,-196.506 811.283,-187.516"/>
<polygon fill="midnightblue" stroke="midnightblue" points="719.608,-217.692 711.443,-224.444 722.036,-224.257 719.608,-217.692"/>
</g>
<!-- Node12 -->
<g id="node12" class="node"><title>Node12</title>
<g id="a_node12"><a xlink:href="_ogre_hlms_shader_common_8h.html" target="_top" xlink:title="OgreHlmsShaderCommon.h">
<polygon fill="none" stroke="black" points="569.309,-168.5 569.309,-187.5 709.309,-187.5 709.309,-168.5 569.309,-168.5"/>
<text text-anchor="middle" x="639.309" y="-175.5" font-family="Helvetica,sans-Serif" font-size="10.00">OgreHlmsShaderCommon.h</text>
</a>
</g>
</g>
<!-- Node3&#45;&gt;Node12 -->
<g id="edge17" class="edge"><title>Node3&#45;&gt;Node12</title>
<path fill="none" stroke="midnightblue" d="M673.275,-216.431C664.687,-206.967 654.266,-195.483 647.25,-187.751"/>
<polygon fill="midnightblue" stroke="midnightblue" points="670.906,-219.029 680.218,-224.083 676.09,-214.325 670.906,-219.029"/>
</g>
<!-- Node13 -->
<g id="node13" class="node"><title>Node13</title>
<g id="a_node13"><a xlink:href="_ogre_hlms_shader_pieces_manager_8h.html" target="_top" xlink:title="OgreHlmsShaderPiecesManager.h">
<polygon fill="none" stroke="black" points="958.809,-168.5 958.809,-187.5 1125.81,-187.5 1125.81,-168.5 958.809,-168.5"/>
<text text-anchor="middle" x="1042.31" y="-175.5" font-family="Helvetica,sans-Serif" font-size="10.00">OgreHlmsShaderPiecesManager.h</text>
</a>
</g>
</g>
<!-- Node3&#45;&gt;Node13 -->
<g id="edge20" class="edge"><title>Node3&#45;&gt;Node13</title>
<path fill="none" stroke="midnightblue" d="M721.728,-227.902C782.577,-218.62 912.023,-198.874 986.473,-187.517"/>
<polygon fill="midnightblue" stroke="midnightblue" points="720.894,-224.489 711.536,-229.457 721.949,-231.409 720.894,-224.489"/>
</g>
<!-- Node4&#45;&gt;Node5 -->
<g id="edge4" class="edge"><title>Node4&#45;&gt;Node5</title>
<path fill="none" stroke="midnightblue" d="M412.044,-104.144C419.71,-94.7357 428.942,-83.4046 435.179,-75.7511"/>
<polygon fill="midnightblue" stroke="midnightblue" points="409.178,-102.12 405.575,-112.083 414.605,-106.541 409.178,-102.12"/>
</g>
<!-- Node5&#45;&gt;Node6 -->
<g id="edge5" class="edge"><title>Node5&#45;&gt;Node6</title>
<path fill="none" stroke="midnightblue" d="M508.598,-54.9166C575.664,-44.715 678.204,-29.1174 741.321,-19.5164"/>
<polygon fill="midnightblue" stroke="midnightblue" points="507.92,-51.4794 498.56,-56.4435 508.973,-58.3998 507.92,-51.4794"/>
</g>
<!-- Node7&#45;&gt;Node4 -->
<g id="edge7" class="edge"><title>Node7&#45;&gt;Node4</title>
<path fill="none" stroke="midnightblue" d="M465.271,-163.177C448.71,-153.241 426.891,-140.149 412.733,-131.655"/>
<polygon fill="midnightblue" stroke="midnightblue" points="463.473,-166.18 473.849,-168.324 467.075,-160.178 463.473,-166.18"/>
</g>
<!-- Node7&#45;&gt;Node5 -->
<g id="edge8" class="edge"><title>Node7&#45;&gt;Node5</title>
<path fill="none" stroke="midnightblue" d="M481.542,-158.389C476.695,-145.317 469.886,-127.474 463.309,-112 457.846,-99.1463 450.887,-84.5403 446.514,-75.5469"/>
<polygon fill="midnightblue" stroke="midnightblue" points="478.372,-159.91 485.105,-168.091 484.943,-157.497 478.372,-159.91"/>
</g>
<!-- Node7&#45;&gt;Node8 -->
<g id="edge9" class="edge"><title>Node7&#45;&gt;Node8</title>
<path fill="none" stroke="midnightblue" d="M521.755,-165.039C550.167,-154.879 590.246,-140.546 615.495,-131.516"/>
<polygon fill="midnightblue" stroke="midnightblue" points="520.473,-161.781 512.235,-168.444 522.83,-168.372 520.473,-161.781"/>
</g>
<!-- Node9&#45;&gt;Node4 -->
<g id="edge11" class="edge"><title>Node9&#45;&gt;Node4</title>
<path fill="none" stroke="midnightblue" d="M324.146,-163.453C342.423,-153.483 366.725,-140.228 382.442,-131.655"/>
<polygon fill="midnightblue" stroke="midnightblue" points="322.318,-160.463 315.215,-168.324 325.67,-166.608 322.318,-160.463"/>
</g>
<!-- Node11&#45;&gt;Node10 -->
<g id="edge14" class="edge"><title>Node11&#45;&gt;Node10</title>
<path fill="none" stroke="midnightblue" d="M849.037,-160.431C857.449,-150.967 867.658,-139.483 874.53,-131.751"/>
<polygon fill="midnightblue" stroke="midnightblue" points="846.263,-158.284 842.235,-168.083 851.495,-162.934 846.263,-158.284"/>
</g>
<!-- Node12&#45;&gt;Node8 -->
<g id="edge18" class="edge"><title>Node12&#45;&gt;Node8</title>
<path fill="none" stroke="midnightblue" d="M639.309,-157.805C639.309,-148.91 639.309,-138.78 639.309,-131.751"/>
<polygon fill="midnightblue" stroke="midnightblue" points="635.809,-158.083 639.309,-168.083 642.809,-158.083 635.809,-158.083"/>
</g>
<!-- Node14&#45;&gt;Node3 -->
<g id="edge26" class="edge"><title>Node14&#45;&gt;Node3</title>
<path fill="none" stroke="midnightblue" d="M257.913,-401.53C172.995,-400.524 36.5002,-392.987 4.30906,-356 -1.5266,-349.295 -1.25586,-342.931 4.30906,-336 46.9097,-282.939 550.669,-244.636 665.229,-236.576"/>
<polygon fill="midnightblue" stroke="midnightblue" points="257.972,-405.031 268.003,-401.622 258.035,-398.031 257.972,-405.031"/>
</g>
<!-- Node15 -->
<g id="node15" class="node"><title>Node15</title>
<g id="a_node15"><a xlink:href="_ogre_compositor_instance_8h.html" target="_top" xlink:title="OgreCompositorInstance.h">
<polygon fill="none" stroke="black" points="13.3091,-336.5 13.3091,-355.5 147.309,-355.5 147.309,-336.5 13.3091,-336.5"/>
<text text-anchor="middle" x="80.3091" y="-343.5" font-family="Helvetica,sans-Serif" font-size="10.00">OgreCompositorInstance.h</text>
</a>
</g>
</g>
<!-- Node14&#45;&gt;Node15 -->
<g id="edge22" class="edge"><title>Node14&#45;&gt;Node15</title>
<path fill="none" stroke="midnightblue" d="M278.282,-390.281C231.605,-380.077 162.278,-364.92 119.264,-355.516"/>
<polygon fill="midnightblue" stroke="midnightblue" points="277.654,-393.727 288.171,-392.444 279.149,-386.888 277.654,-393.727"/>
</g>
<!-- Node17 -->
<g id="node17" class="node"><title>Node17</title>
<g id="a_node17"><a xlink:href="_ogre_s_g_technique_resolver_listener_8h.html" target="_top" xlink:title="OgreSGTechniqueResolverListener.h">
<polygon fill="none" stroke="black" points="326.809,-336.5 326.809,-355.5 505.809,-355.5 505.809,-336.5 326.809,-336.5"/>
<text text-anchor="middle" x="416.309" y="-343.5" font-family="Helvetica,sans-Serif" font-size="10.00">OgreSGTechniqueResolverListener.h</text>
</a>
</g>
</g>
<!-- Node14&#45;&gt;Node17 -->
<g id="edge27" class="edge"><title>Node14&#45;&gt;Node17</title>
<path fill="none" stroke="midnightblue" d="M350.547,-386.901C366.867,-376.999 388.174,-364.071 402.045,-355.655"/>
<polygon fill="midnightblue" stroke="midnightblue" points="348.342,-384.144 341.608,-392.324 351.973,-390.129 348.342,-384.144"/>
</g>
<!-- Node18 -->
<g id="node18" class="node"><title>Node18</title>
<g id="a_node18"><a xlink:href="_ogre_g_l3_plus_render_system_8h.html" target="_top" xlink:title="OgreGL3PlusRenderSystem.h">
<polygon fill="none" stroke="black" points="523.809,-336.5 523.809,-355.5 672.809,-355.5 672.809,-336.5 523.809,-336.5"/>
<text text-anchor="middle" x="598.309" y="-343.5" font-family="Helvetica,sans-Serif" font-size="10.00">OgreGL3PlusRenderSystem.h</text>
</a>
</g>
</g>
<!-- Node14&#45;&gt;Node18 -->
<g id="edge28" class="edge"><title>Node14&#45;&gt;Node18</title>
<path fill="none" stroke="midnightblue" d="M380.137,-390.473C431.354,-380.268 508.079,-364.979 555.569,-355.516"/>
<polygon fill="midnightblue" stroke="midnightblue" points="379.373,-387.057 370.25,-392.444 380.741,-393.922 379.373,-387.057"/>
</g>
<!-- Node19 -->
<g id="node19" class="node"><title>Node19</title>
<g id="a_node19"><a xlink:href="_ogre_g_l_e_s2_render_system_8h.html" target="_top" xlink:title="OgreGLES2RenderSystem.h">
<polygon fill="none" stroke="black" points="165.809,-336.5 165.809,-355.5 308.809,-355.5 308.809,-336.5 165.809,-336.5"/>
<text text-anchor="middle" x="237.309" y="-343.5" font-family="Helvetica,sans-Serif" font-size="10.00">OgreGLES2RenderSystem.h</text>
</a>
</g>
</g>
<!-- Node14&#45;&gt;Node19 -->
<g id="edge29" class="edge"><title>Node14&#45;&gt;Node19</title>
<path fill="none" stroke="midnightblue" d="M304.271,-387.177C287.71,-377.241 265.891,-364.149 251.733,-355.655"/>
<polygon fill="midnightblue" stroke="midnightblue" points="302.473,-390.18 312.849,-392.324 306.075,-384.178 302.473,-390.18"/>
</g>
<!-- Node15&#45;&gt;Node3 -->
<g id="edge25" class="edge"><title>Node15&#45;&gt;Node3</title>
<path fill="none" stroke="midnightblue" d="M121.221,-333.745C173.869,-319.587 268.326,-295.283 350.309,-280 467.865,-258.086 610.348,-242.737 665.228,-237.237"/>
<polygon fill="midnightblue" stroke="midnightblue" points="120.005,-330.448 111.265,-336.436 121.832,-337.206 120.005,-330.448"/>
</g>
<!-- Node16 -->
<g id="node16" class="node"><title>Node16</title>
<g id="a_node16"><a xlink:href="_ogre_compositor_chain_8h.html" target="_top" xlink:title="OgreCompositorChain.h">
<polygon fill="none" stroke="black" points="359.309,-280.5 359.309,-299.5 481.309,-299.5 481.309,-280.5 359.309,-280.5"/>
<text text-anchor="middle" x="420.309" y="-287.5" font-family="Helvetica,sans-Serif" font-size="10.00">OgreCompositorChain.h</text>
</a>
</g>
</g>
<!-- Node15&#45;&gt;Node16 -->
<g id="edge23" class="edge"><title>Node15&#45;&gt;Node16</title>
<path fill="none" stroke="midnightblue" d="M144.193,-334.854C208.433,-324.651 306.36,-309.098 366.687,-299.516"/>
<polygon fill="midnightblue" stroke="midnightblue" points="143.51,-331.418 134.183,-336.444 144.608,-338.332 143.51,-331.418"/>
</g>
<!-- Node16&#45;&gt;Node3 -->
<g id="edge24" class="edge"><title>Node16&#45;&gt;Node3</title>
<path fill="none" stroke="midnightblue" d="M472.899,-278.404C531.192,-266.658 622.586,-248.243 665.108,-239.675"/>
<polygon fill="midnightblue" stroke="midnightblue" points="471.886,-275.037 462.774,-280.444 473.269,-281.899 471.886,-275.037"/>
</g>
<!-- Node20&#45;&gt;Node3 -->
<g id="edge31" class="edge"><title>Node20&#45;&gt;Node3</title>
<path fill="none" stroke="midnightblue" d="M1147.07,-396.011C1051.48,-389.169 901.382,-375.467 884.309,-356 861.989,-330.55 910.47,-306.422 889.309,-280 867.235,-252.437 759.588,-240.619 711.542,-236.658"/>
<polygon fill="midnightblue" stroke="midnightblue" points="1147.07,-399.52 1157.29,-396.732 1147.56,-392.537 1147.07,-399.52"/>
</g>
<!-- Node21 -->
<g id="node21" class="node"><title>Node21</title>
<g id="a_node21"><a xlink:href="_ogre_d3_d11_gpu_program_manager_8h.html" target="_top" xlink:title="OgreD3D11GpuProgramManager.h">
<polygon fill="none" stroke="black" points="1421.81,-336.5 1421.81,-355.5 1590.81,-355.5 1590.81,-336.5 1421.81,-336.5"/>
<text text-anchor="middle" x="1506.31" y="-343.5" font-family="Helvetica,sans-Serif" font-size="10.00">OgreD3D11GpuProgramManager.h</text>
</a>
</g>
</g>
<!-- Node20&#45;&gt;Node21 -->
<g id="edge32" class="edge"><title>Node20&#45;&gt;Node21</title>
<path fill="none" stroke="midnightblue" d="M1280.56,-390.537C1333.48,-380.332 1412.98,-364.999 1462.15,-355.516"/>
<polygon fill="midnightblue" stroke="midnightblue" points="1279.83,-387.113 1270.68,-392.444 1281.16,-393.986 1279.83,-387.113"/>
</g>
<!-- Node22 -->
<g id="node22" class="node"><title>Node22</title>
<g id="a_node22"><a xlink:href="_ogre_d3_d9_gpu_program_manager_8h.html" target="_top" xlink:title="OgreD3D9GpuProgramManager.h">
<polygon fill="none" stroke="black" points="1609.31,-336.5 1609.31,-355.5 1773.31,-355.5 1773.31,-336.5 1609.31,-336.5"/>
<text text-anchor="middle" x="1691.31" y="-343.5" font-family="Helvetica,sans-Serif" font-size="10.00">OgreD3D9GpuProgramManager.h</text>
</a>
</g>
</g>
<!-- Node20&#45;&gt;Node22 -->
<g id="edge33" class="edge"><title>Node20&#45;&gt;Node22</title>
<path fill="none" stroke="midnightblue" d="M1305.57,-391.796C1393.1,-381.63 1532.89,-365.397 1617.98,-355.516"/>
<polygon fill="midnightblue" stroke="midnightblue" points="1304.95,-388.344 1295.42,-392.974 1305.76,-395.297 1304.95,-388.344"/>
</g>
<!-- Node23 -->
<g id="node23" class="node"><title>Node23</title>
<g id="a_node23"><a xlink:href="_ogre_g_l_gpu_program_manager_8h.html" target="_top" xlink:title="OgreGLGpuProgramManager.h">
<polygon fill="none" stroke="black" points="1791.81,-336.5 1791.81,-355.5 1942.81,-355.5 1942.81,-336.5 1791.81,-336.5"/>
<text text-anchor="middle" x="1867.31" y="-343.5" font-family="Helvetica,sans-Serif" font-size="10.00">OgreGLGpuProgramManager.h</text>
</a>
</g>
</g>
<!-- Node20&#45;&gt;Node23 -->
<g id="edge34" class="edge"><title>Node20&#45;&gt;Node23</title>
<path fill="none" stroke="midnightblue" d="M1305.86,-395.183C1413.83,-387.146 1612.77,-371.834 1782.31,-356 1785.41,-355.71 1788.58,-355.407 1791.77,-355.096"/>
<polygon fill="midnightblue" stroke="midnightblue" points="1305.41,-391.706 1295.7,-395.938 1305.93,-398.687 1305.41,-391.706"/>
</g>
<!-- Node27 -->
<g id="node27" class="node"><title>Node27</title>
<g id="a_node27"><a xlink:href="_ogre_g_l_s_l_shader_manager_8h.html" target="_top" xlink:title="OgreGLSLShaderManager.h">
<polygon fill="none" stroke="black" points="893.809,-336.5 893.809,-355.5 1032.81,-355.5 1032.81,-336.5 893.809,-336.5"/>
<text text-anchor="middle" x="963.309" y="-343.5" font-family="Helvetica,sans-Serif" font-size="10.00">OgreGLSLShaderManager.h</text>
</a>
</g>
</g>
<!-- Node20&#45;&gt;Node27 -->
<g id="edge38" class="edge"><title>Node20&#45;&gt;Node27</title>
<path fill="none" stroke="midnightblue" d="M1174.73,-390.41C1125.03,-380.204 1050.78,-364.96 1004.79,-355.516"/>
<polygon fill="midnightblue" stroke="midnightblue" points="1174.14,-393.861 1184.64,-392.444 1175.54,-387.004 1174.14,-393.861"/>
</g>
<!-- Node28 -->
<g id="node28" class="node"><title>Node28</title>
<g id="a_node28"><a xlink:href="_ogre_g_l_e_s_gpu_program_manager_8h.html" target="_top" xlink:title="OgreGLESGpuProgramManager.h">
<polygon fill="none" stroke="black" points="1051.31,-336.5 1051.31,-355.5 1215.31,-355.5 1215.31,-336.5 1051.31,-336.5"/>
<text text-anchor="middle" x="1133.31" y="-343.5" font-family="Helvetica,sans-Serif" font-size="10.00">OgreGLESGpuProgramManager.h</text>
</a>
</g>
</g>
<!-- Node20&#45;&gt;Node28 -->
<g id="edge39" class="edge"><title>Node20&#45;&gt;Node28</title>
<path fill="none" stroke="midnightblue" d="M1202.5,-387.177C1185.39,-377.241 1162.84,-364.149 1148.21,-355.655"/>
<polygon fill="midnightblue" stroke="midnightblue" points="1200.96,-390.329 1211.37,-392.324 1204.48,-384.276 1200.96,-390.329"/>
</g>
<!-- Node29 -->
<g id="node29" class="node"><title>Node29</title>
<g id="a_node29"><a xlink:href="_ogre_g_l_e_s2_gpu_program_manager_8h.html" target="_top" xlink:title="OgreGLES2GpuProgramManager.h">
<polygon fill="none" stroke="black" points="1233.31,-336.5 1233.31,-355.5 1403.31,-355.5 1403.31,-336.5 1233.31,-336.5"/>
<text text-anchor="middle" x="1318.31" y="-343.5" font-family="Helvetica,sans-Serif" font-size="10.00">OgreGLES2GpuProgramManager.h</text>
</a>
</g>
</g>
<!-- Node20&#45;&gt;Node29 -->
<g id="edge40" class="edge"><title>Node20&#45;&gt;Node29</title>
<path fill="none" stroke="midnightblue" d="M1249.86,-387.177C1266.79,-377.241 1289.09,-364.149 1303.56,-355.655"/>
<polygon fill="midnightblue" stroke="midnightblue" points="1247.94,-384.243 1241.09,-392.324 1251.49,-390.28 1247.94,-384.243"/>
</g>
<!-- Node24 -->
<g id="node24" class="node"><title>Node24</title>
<g id="a_node24"><a xlink:href="_ogre_g_l_render_system_8h.html" target="_top" xlink:title="OgreGLRenderSystem.h">
<polygon fill="none" stroke="black" points="1686.31,-280.5 1686.31,-299.5 1810.31,-299.5 1810.31,-280.5 1686.31,-280.5"/>
<text text-anchor="middle" x="1748.31" y="-287.5" font-family="Helvetica,sans-Serif" font-size="10.00">OgreGLRenderSystem.h</text>
</a>
</g>
</g>
<!-- Node23&#45;&gt;Node24 -->
<g id="edge35" class="edge"><title>Node23&#45;&gt;Node24</title>
<path fill="none" stroke="midnightblue" d="M1839.17,-332.232C1816.91,-322.131 1786.45,-308.309 1767.08,-299.516"/>
<polygon fill="midnightblue" stroke="midnightblue" points="1837.9,-335.498 1848.45,-336.444 1840.79,-329.124 1837.9,-335.498"/>
</g>
<!-- Node25 -->
<g id="node25" class="node"><title>Node25</title>
<g id="a_node25"><a xlink:href="_ogre_g_l_support_8h.html" target="_top" xlink:title="OgreGLSupport.h">
<polygon fill="none" stroke="red" points="1582.31,-224.5 1582.31,-243.5 1674.31,-243.5 1674.31,-224.5 1582.31,-224.5"/>
<text text-anchor="middle" x="1628.31" y="-231.5" font-family="Helvetica,sans-Serif" font-size="10.00">OgreGLSupport.h</text>
</a>
</g>
</g>
<!-- Node24&#45;&gt;Node25 -->
<g id="edge36" class="edge"><title>Node24&#45;&gt;Node25</title>
<path fill="none" stroke="midnightblue" d="M1719.94,-276.232C1697.49,-266.131 1666.77,-252.309 1647.23,-243.516"/>
<polygon fill="midnightblue" stroke="midnightblue" points="1718.74,-279.532 1729.29,-280.444 1721.61,-273.148 1718.74,-279.532"/>
</g>
<!-- Node26 -->
<g id="node26" class="node"><title>Node26</title>
<g id="a_node26"><a xlink:href="_ogre_g_l_texture_manager_8h.html" target="_top" xlink:title="OgreGLTextureManager.h">
<polygon fill="none" stroke="black" points="2013.81,-168.5 2013.81,-187.5 2142.81,-187.5 2142.81,-168.5 2013.81,-168.5"/>
<text text-anchor="middle" x="2078.31" y="-175.5" font-family="Helvetica,sans-Serif" font-size="10.00">OgreGLTextureManager.h</text>
</a>
</g>
</g>
<!-- Node25&#45;&gt;Node26 -->
<g id="edge37" class="edge"><title>Node25&#45;&gt;Node26</title>
<path fill="none" stroke="midnightblue" d="M1684.76,-223.856C1806.74,-207.114 1937.32,-193.151 2013.53,-185.401"/>
<polygon fill="midnightblue" stroke="midnightblue" points="1683.92,-220.438 1674.5,-225.274 1684.88,-227.372 1683.92,-220.438"/>
</g>
<!-- Node30&#45;&gt;Node3 -->
<g id="edge42" class="edge"><title>Node30&#45;&gt;Node3</title>
<path fill="none" stroke="midnightblue" d="M2476.98,-400.766C2365.72,-398.651 2182.38,-389.678 2028.31,-356 1931.75,-334.893 1916.29,-299.081 1819.31,-280 1596.37,-236.136 853.32,-234.799 711.728,-234.951"/>
<polygon fill="midnightblue" stroke="midnightblue" points="2477.13,-404.269 2487.19,-400.944 2477.25,-397.27 2477.13,-404.269"/>
</g>
<!-- Node31 -->
<g id="node31" class="node"><title>Node31</title>
<g id="a_node31"><a xlink:href="_ogre_unified_high_level_gpu_program_8h.html" target="_top" xlink:title="OgreUnifiedHighLevelGpuProgram.h">
<polygon fill="none" stroke="black" points="2209.81,-336.5 2209.81,-355.5 2384.81,-355.5 2384.81,-336.5 2209.81,-336.5"/>
<text text-anchor="middle" x="2297.31" y="-343.5" font-family="Helvetica,sans-Serif" font-size="10.00">OgreUnifiedHighLevelGpuProgram.h</text>
</a>
</g>
</g>
<!-- Node30&#45;&gt;Node31 -->
<g id="edge43" class="edge"><title>Node30&#45;&gt;Node31</title>
<path fill="none" stroke="midnightblue" d="M2523.86,-390.537C2470.76,-380.332 2390.97,-364.999 2341.63,-355.516"/>
<polygon fill="midnightblue" stroke="midnightblue" points="2523.3,-393.993 2533.78,-392.444 2524.62,-387.119 2523.3,-393.993"/>
</g>
<!-- Node32 -->
<g id="node32" class="node"><title>Node32</title>
<g id="a_node32"><a xlink:href="_ogre_d3_d11_h_l_s_l_program_factory_8h.html" target="_top" xlink:title="OgreD3D11HLSLProgramFactory.h">
<polygon fill="none" stroke="black" points="2402.81,-336.5 2402.81,-355.5 2573.81,-355.5 2573.81,-336.5 2402.81,-336.5"/>
<text text-anchor="middle" x="2488.31" y="-343.5" font-family="Helvetica,sans-Serif" font-size="10.00">OgreD3D11HLSLProgramFactory.h</text>
</a>
</g>
</g>
<!-- Node30&#45;&gt;Node32 -->
<g id="edge44" class="edge"><title>Node30&#45;&gt;Node32</title>
<path fill="none" stroke="midnightblue" d="M2555.27,-387.177C2538.71,-377.241 2516.89,-364.149 2502.73,-355.655"/>
<polygon fill="midnightblue" stroke="midnightblue" points="2553.47,-390.18 2563.85,-392.324 2557.07,-384.178 2553.47,-390.18"/>
</g>
<!-- Node33 -->
<g id="node33" class="node"><title>Node33</title>
<g id="a_node33"><a xlink:href="_ogre_d3_d11_vertex_declaration_8h.html" target="_top" xlink:title="OgreD3D11VertexDeclaration.h">
<polygon fill="none" stroke="black" points="2591.81,-336.5 2591.81,-355.5 2746.81,-355.5 2746.81,-336.5 2591.81,-336.5"/>
<text text-anchor="middle" x="2669.31" y="-343.5" font-family="Helvetica,sans-Serif" font-size="10.00">OgreD3D11VertexDeclaration.h</text>
</a>
</g>
</g>
<!-- Node30&#45;&gt;Node33 -->
<g id="edge45" class="edge"><title>Node30&#45;&gt;Node33</title>
<path fill="none" stroke="midnightblue" d="M2601.6,-387.177C2618.35,-377.241 2640.41,-364.149 2654.72,-355.655"/>
<polygon fill="midnightblue" stroke="midnightblue" points="2599.74,-384.211 2592.93,-392.324 2603.32,-390.231 2599.74,-384.211"/>
</g>
<!-- Node34 -->
<g id="node34" class="node"><title>Node34</title>
<g id="a_node34"><a xlink:href="_ogre_d3_d9_h_l_s_l_program_factory_8h.html" target="_top" xlink:title="OgreD3D9HLSLProgramFactory.h">
<polygon fill="none" stroke="black" points="2765.31,-336.5 2765.31,-355.5 2931.31,-355.5 2931.31,-336.5 2765.31,-336.5"/>
<text text-anchor="middle" x="2848.31" y="-343.5" font-family="Helvetica,sans-Serif" font-size="10.00">OgreD3D9HLSLProgramFactory.h</text>
</a>
</g>
</g>
<!-- Node30&#45;&gt;Node34 -->
<g id="edge46" class="edge"><title>Node30&#45;&gt;Node34</title>
<path fill="none" stroke="midnightblue" d="M2630.94,-390.473C2681.97,-380.268 2758.41,-364.979 2805.73,-355.516"/>
<polygon fill="midnightblue" stroke="midnightblue" points="2630.21,-387.05 2621.09,-392.444 2631.58,-393.914 2630.21,-387.05"/>
</g>
<!-- Node35 -->
<g id="node35" class="node"><title>Node35</title>
<g id="a_node35"><a xlink:href="_ogre_g_l_s_l_program_factory_8h.html" target="_top" xlink:title="OgreGLSLProgramFactory.h">
<polygon fill="none" stroke="black" points="2949.31,-336.5 2949.31,-355.5 3089.31,-355.5 3089.31,-336.5 2949.31,-336.5"/>
<text text-anchor="middle" x="3019.31" y="-343.5" font-family="Helvetica,sans-Serif" font-size="10.00">OgreGLSLProgramFactory.h</text>
</a>
</g>
</g>
<!-- Node30&#45;&gt;Node35 -->
<g id="edge47" class="edge"><title>Node30&#45;&gt;Node35</title>
<path fill="none" stroke="midnightblue" d="M2658.36,-391.198C2741.61,-381.004 2870.63,-365.206 2949.76,-355.516"/>
<polygon fill="midnightblue" stroke="midnightblue" points="2657.69,-387.754 2648.19,-392.444 2658.54,-394.702 2657.69,-387.754"/>
</g>
<!-- Node36 -->
<g id="node36" class="node"><title>Node36</title>
<g id="a_node36"><a xlink:href="_ogre_g_l_s_l_shader_factory_8h.html" target="_top" xlink:title="OgreGLSLShaderFactory.h">
<polygon fill="none" stroke="black" points="3107.31,-336.5 3107.31,-355.5 3241.31,-355.5 3241.31,-336.5 3107.31,-336.5"/>
<text text-anchor="middle" x="3174.31" y="-343.5" font-family="Helvetica,sans-Serif" font-size="10.00">OgreGLSLShaderFactory.h</text>
</a>
</g>
</g>
<!-- Node30&#45;&gt;Node36 -->
<g id="edge48" class="edge"><title>Node30&#45;&gt;Node36</title>
<path fill="none" stroke="midnightblue" d="M2679.77,-393.172C2784.64,-384.858 2953.06,-370.882 3098.31,-356 3101.22,-355.702 3104.19,-355.389 3107.19,-355.065"/>
<polygon fill="midnightblue" stroke="midnightblue" points="2679.2,-389.706 2669.51,-393.984 2679.75,-396.684 2679.2,-389.706"/>
</g>
<!-- Node37 -->
<g id="node37" class="node"><title>Node37</title>
<g id="a_node37"><a xlink:href="_ogre_g_l_s_l_e_s_cg_program_factory_8h.html" target="_top" xlink:title="OgreGLSLESCgProgramFactory.h">
<polygon fill="none" stroke="black" points="3259.81,-336.5 3259.81,-355.5 3426.81,-355.5 3426.81,-336.5 3259.81,-336.5"/>
<text text-anchor="middle" x="3343.31" y="-343.5" font-family="Helvetica,sans-Serif" font-size="10.00">OgreGLSLESCgProgramFactory.h</text>
</a>
</g>
</g>
<!-- Node30&#45;&gt;Node37 -->
<g id="edge49" class="edge"><title>Node30&#45;&gt;Node37</title>
<path fill="none" stroke="midnightblue" d="M2679.47,-395.162C2811.04,-387.354 3048,-372.56 3250.31,-356 3253.38,-355.749 3256.51,-355.485 3259.67,-355.212"/>
<polygon fill="midnightblue" stroke="midnightblue" points="2679.18,-391.673 2669.4,-395.758 2679.59,-398.661 2679.18,-391.673"/>
</g>
<!-- Node38 -->
<g id="node38" class="node"><title>Node38</title>
<g id="a_node38"><a xlink:href="_ogre_g_l_s_l_e_s_program_factory_8h.html" target="_top" xlink:title="OgreGLSLESProgramFactory.h">
<polygon fill="none" stroke="black" points="2037.31,-336.5 2037.31,-355.5 2191.31,-355.5 2191.31,-336.5 2037.31,-336.5"/>
<text text-anchor="middle" x="2114.31" y="-343.5" font-family="Helvetica,sans-Serif" font-size="10.00">OgreGLSLESProgramFactory.h</text>
</a>
</g>
</g>
<!-- Node30&#45;&gt;Node38 -->
<g id="edge50" class="edge"><title>Node30&#45;&gt;Node38</title>
<path fill="none" stroke="midnightblue" d="M2494.88,-391.291C2407.34,-381.103 2271.09,-365.246 2187.57,-355.526"/>
<polygon fill="midnightblue" stroke="midnightblue" points="2494.71,-394.794 2505.04,-392.473 2495.51,-387.841 2494.71,-394.794"/>
</g>
<!-- Node39&#45;&gt;Node3 -->
<g id="edge52" class="edge"><title>Node39&#45;&gt;Node3</title>
<path fill="none" stroke="midnightblue" d="M795.833,-276.772C769.724,-266.629 733.27,-252.467 710.231,-243.516"/>
<polygon fill="midnightblue" stroke="midnightblue" points="794.695,-280.085 805.284,-280.444 797.23,-273.56 794.695,-280.085"/>
</g>
<!-- Node40&#45;&gt;Node3 -->
<g id="edge54" class="edge"><title>Node40&#45;&gt;Node3</title>
<path fill="none" stroke="midnightblue" d="M698.797,-382.424C696.794,-368.331 692.137,-349.196 681.309,-336 659.368,-309.26 630.24,-329.579 612.309,-300 596.649,-274.166 637.387,-253.422 665.091,-242.783"/>
<polygon fill="midnightblue" stroke="midnightblue" points="695.326,-382.88 699.902,-392.436 702.284,-382.112 695.326,-382.88"/>
</g>
<!-- Node41&#45;&gt;Node3 -->
<g id="edge56" class="edge"><title>Node41&#45;&gt;Node3</title>
<path fill="none" stroke="midnightblue" d="M2027.16,-280.32C2025.86,-280.207 2024.58,-280.101 2023.31,-280 1493.33,-238.031 841.97,-235.142 711.632,-234.997"/>
<polygon fill="midnightblue" stroke="midnightblue" points="2026.91,-283.812 2037.2,-281.277 2027.57,-276.844 2026.91,-283.812"/>
</g>
<!-- Node41&#45;&gt;Node26 -->
<g id="edge59" class="edge"><title>Node41&#45;&gt;Node26</title>
<path fill="none" stroke="midnightblue" d="M2163.74,-288.649C2293.13,-286.775 2556.67,-276.56 2509.31,-224 2485.26,-197.312 2257.18,-185.398 2142.91,-181.068"/>
<polygon fill="midnightblue" stroke="midnightblue" points="2163.49,-285.152 2153.53,-288.783 2163.58,-292.151 2163.49,-285.152"/>
</g>
<!-- Node42 -->
<g id="node42" class="node"><title>Node42</title>
<g id="a_node42"><a xlink:href="_ogre_d3_d11_texture_manager_8h.html" target="_top" xlink:title="OgreD3D11TextureManager.h">
<polygon fill="none" stroke="black" points="1692.81,-224.5 1692.81,-243.5 1839.81,-243.5 1839.81,-224.5 1692.81,-224.5"/>
<text text-anchor="middle" x="1766.31" y="-231.5" font-family="Helvetica,sans-Serif" font-size="10.00">OgreD3D11TextureManager.h</text>
</a>
</g>
</g>
<!-- Node41&#45;&gt;Node42 -->
<g id="edge57" class="edge"><title>Node41&#45;&gt;Node42</title>
<path fill="none" stroke="midnightblue" d="M2033.11,-278.791C1970.94,-268.587 1876.45,-253.078 1818.2,-243.516"/>
<polygon fill="midnightblue" stroke="midnightblue" points="2032.74,-282.278 2043.18,-280.444 2033.88,-275.37 2032.74,-282.278"/>
</g>
<!-- Node43 -->
<g id="node43" class="node"><title>Node43</title>
<g id="a_node43"><a xlink:href="_ogre_d3_d9_texture_manager_8h.html" target="_top" xlink:title="OgreD3D9TextureManager.h">
<polygon fill="none" stroke="black" points="1858.31,-224.5 1858.31,-243.5 2000.31,-243.5 2000.31,-224.5 1858.31,-224.5"/>
<text text-anchor="middle" x="1929.31" y="-231.5" font-family="Helvetica,sans-Serif" font-size="10.00">OgreD3D9TextureManager.h</text>
</a>
</g>
</g>
<!-- Node41&#45;&gt;Node43 -->
<g id="edge58" class="edge"><title>Node41&#45;&gt;Node43</title>
<path fill="none" stroke="midnightblue" d="M2059.36,-277.304C2028.08,-267.129 1983.49,-252.625 1955.49,-243.516"/>
<polygon fill="midnightblue" stroke="midnightblue" points="2058.41,-280.678 2069.01,-280.444 2060.58,-274.022 2058.41,-280.678"/>
</g>
<!-- Node44 -->
<g id="node44" class="node"><title>Node44</title>
<g id="a_node44"><a xlink:href="_ogre_g_l3_plus_texture_manager_8h.html" target="_top" xlink:title="OgreGL3PlusTextureManager.h">
<polygon fill="none" stroke="black" points="2018.31,-224.5 2018.31,-243.5 2172.31,-243.5 2172.31,-224.5 2018.31,-224.5"/>
<text text-anchor="middle" x="2095.31" y="-231.5" font-family="Helvetica,sans-Serif" font-size="10.00">OgreGL3PlusTextureManager.h</text>
</a>
</g>
</g>
<!-- Node41&#45;&gt;Node44 -->
<g id="edge60" class="edge"><title>Node41&#45;&gt;Node44</title>
<path fill="none" stroke="midnightblue" d="M2095.31,-269.805C2095.31,-260.91 2095.31,-250.78 2095.31,-243.751"/>
<polygon fill="midnightblue" stroke="midnightblue" points="2091.81,-270.083 2095.31,-280.083 2098.81,-270.083 2091.81,-270.083"/>
</g>
<!-- Node45 -->
<g id="node45" class="node"><title>Node45</title>
<g id="a_node45"><a xlink:href="_ogre_g_l_e_s_texture_manager_8h.html" target="_top" xlink:title="OgreGLESTextureManager.h">
<polygon fill="none" stroke="black" points="2190.81,-224.5 2190.81,-243.5 2333.81,-243.5 2333.81,-224.5 2190.81,-224.5"/>
<text text-anchor="middle" x="2262.31" y="-231.5" font-family="Helvetica,sans-Serif" font-size="10.00">OgreGLESTextureManager.h</text>
</a>
</g>
</g>
<!-- Node41&#45;&gt;Node45 -->
<g id="edge61" class="edge"><title>Node41&#45;&gt;Node45</title>
<path fill="none" stroke="midnightblue" d="M2131.48,-277.304C2162.95,-267.129 2207.8,-252.625 2235.97,-243.516"/>
<polygon fill="midnightblue" stroke="midnightblue" points="2130.21,-274.037 2121.77,-280.444 2132.36,-280.697 2130.21,-274.037"/>
</g>
<!-- Node46 -->
<g id="node46" class="node"><title>Node46</title>
<g id="a_node46"><a xlink:href="_ogre_g_l_e_s2_texture_manager_8h.html" target="_top" xlink:title="OgreGLES2TextureManager.h">
<polygon fill="none" stroke="black" points="2352.31,-224.5 2352.31,-243.5 2500.31,-243.5 2500.31,-224.5 2352.31,-224.5"/>
<text text-anchor="middle" x="2426.31" y="-231.5" font-family="Helvetica,sans-Serif" font-size="10.00">OgreGLES2TextureManager.h</text>
</a>
</g>
</g>
<!-- Node41&#45;&gt;Node46 -->
<g id="edge62" class="edge"><title>Node41&#45;&gt;Node46</title>
<path fill="none" stroke="midnightblue" d="M2157.89,-278.791C2220.43,-268.587 2315.5,-253.078 2374.11,-243.516"/>
<polygon fill="midnightblue" stroke="midnightblue" points="2157.06,-275.379 2147.76,-280.444 2158.19,-282.288 2157.06,-275.379"/>
</g>
<!-- Node48 -->
<g id="node48" class="node"><title>Node48</title>
<g id="a_node48"><a xlink:href="_ogre_trays_8h.html" target="_top" xlink:title="OgreTrays.h">
<polygon fill="none" stroke="black" points="3444.81,-336.5 3444.81,-355.5 3515.81,-355.5 3515.81,-336.5 3444.81,-336.5"/>
<text text-anchor="middle" x="3480.31" y="-343.5" font-family="Helvetica,sans-Serif" font-size="10.00">OgreTrays.h</text>
</a>
</g>
</g>
<!-- Node47&#45;&gt;Node48 -->
<g id="edge64" class="edge"><title>Node47&#45;&gt;Node48</title>
<path fill="none" stroke="midnightblue" d="M3215.88,-391.84C3272.89,-383.192 3359.97,-369.562 3435.31,-356 3438.29,-355.464 3441.38,-354.888 3444.47,-354.297"/>
<polygon fill="midnightblue" stroke="midnightblue" points="3215.31,-388.386 3205.94,-393.342 3216.35,-395.307 3215.31,-388.386"/>
</g>
</g>
</svg>
