<?xml version="1.0" encoding="UTF-8" standalone="no"?>
<!DOCTYPE svg PUBLIC "-//W3C//DTD SVG 1.1//EN"
 "http://www.w3.org/Graphics/SVG/1.1/DTD/svg11.dtd">
<!-- Generated by graphviz version 2.38.0 (20140413.2041)
 -->
<!-- Title: OgreGLXGLSupport.h Pages: 1 -->
<svg width="162pt" height="140pt"
 viewBox="0.00 0.00 162.00 140.00" xmlns="http://www.w3.org/2000/svg" xmlns:xlink="http://www.w3.org/1999/xlink">
<g id="graph0" class="graph" transform="scale(1 1) rotate(0) translate(4 136)">
<title>OgreGLXGLSupport.h</title>
<!-- Node1 -->
<g id="node1" class="node"><title>Node1</title>
<polygon fill="#bfbfbf" stroke="black" points="33,-112.5 33,-131.5 145,-131.5 145,-112.5 33,-112.5"/>
<text text-anchor="middle" x="89" y="-119.5" font-family="Helvetica,sans-Serif" font-size="10.00">OgreGLXGLSupport.h</text>
</g>
<!-- Node2 -->
<g id="node2" class="node"><title>Node2</title>
<g id="a_node2"><a xlink:href="_ogre_g_l_x_context_8h.html" target="_top" xlink:title="OgreGLXContext.h">
<polygon fill="none" stroke="black" points="0,-56.5 0,-75.5 100,-75.5 100,-56.5 0,-56.5"/>
<text text-anchor="middle" x="50" y="-63.5" font-family="Helvetica,sans-Serif" font-size="10.00">OgreGLXContext.h</text>
</a>
</g>
</g>
<!-- Node1&#45;&gt;Node2 -->
<g id="edge1" class="edge"><title>Node1&#45;&gt;Node2</title>
<path fill="none" stroke="midnightblue" d="M76.6178,-103.855C69.8646,-94.5048 61.7914,-83.3265 56.3202,-75.7511"/>
<polygon fill="midnightblue" stroke="midnightblue" points="73.8676,-106.025 82.5599,-112.083 79.5424,-101.927 73.8676,-106.025"/>
</g>
<!-- Node3 -->
<g id="node3" class="node"><title>Node3</title>
<g id="a_node3"><a xlink:href="_ogre_g_l_x_render_texture_8h.html" target="_top" xlink:title="OgreGLXRenderTexture.h">
<polygon fill="none" stroke="black" points="24,-0.5 24,-19.5 154,-19.5 154,-0.5 24,-0.5"/>
<text text-anchor="middle" x="89" y="-7.5" font-family="Helvetica,sans-Serif" font-size="10.00">OgreGLXRenderTexture.h</text>
</a>
</g>
</g>
<!-- Node1&#45;&gt;Node3 -->
<g id="edge3" class="edge"><title>Node1&#45;&gt;Node3</title>
<path fill="none" stroke="midnightblue" d="M98.9254,-103.302C102.899,-95.2382 107.003,-85.4085 109,-76 113.363,-55.4417 101.989,-32.0474 94.6537,-19.7"/>
<polygon fill="midnightblue" stroke="midnightblue" points="95.6933,-101.928 94.1302,-112.407 101.887,-105.19 95.6933,-101.928"/>
</g>
<!-- Node2&#45;&gt;Node3 -->
<g id="edge2" class="edge"><title>Node2&#45;&gt;Node3</title>
<path fill="none" stroke="midnightblue" d="M62.3822,-47.8554C69.1354,-38.5048 77.2086,-27.3265 82.6798,-19.7511"/>
<polygon fill="midnightblue" stroke="midnightblue" points="59.4576,-45.927 56.4401,-56.083 65.1324,-50.0254 59.4576,-45.927"/>
</g>
</g>
</svg>
