<?xml version="1.0" encoding="UTF-8" standalone="no"?>
<!DOCTYPE svg PUBLIC "-//W3C//DTD SVG 1.1//EN"
 "http://www.w3.org/Graphics/SVG/1.1/DTD/svg11.dtd">
<!-- Generated by graphviz version 2.38.0 (20140413.2041)
 -->
<!-- Title: OgreOSXCocoaView.h Pages: 1 -->
<svg width="3077pt" height="420pt"
 viewBox="0.00 0.00 3077.00 420.00" xmlns="http://www.w3.org/2000/svg" xmlns:xlink="http://www.w3.org/1999/xlink">
<g id="graph0" class="graph" transform="scale(1 1) rotate(0) translate(4 416)">
<title>OgreOSXCocoaView.h</title>
<!-- Node1 -->
<g id="node1" class="node"><title>Node1</title>
<polygon fill="#bfbfbf" stroke="black" points="1309.5,-392.5 1309.5,-411.5 1426.5,-411.5 1426.5,-392.5 1309.5,-392.5"/>
<text text-anchor="middle" x="1368" y="-399.5" font-family="Helvetica,sans-Serif" font-size="10.00">OgreOSXCocoaView.h</text>
</g>
<!-- Node2 -->
<g id="node2" class="node"><title>Node2</title>
<g id="a_node2"><a xlink:href="_ogre_render_window_8h.html" target="_top" xlink:title="OgreRenderWindow.h">
<polygon fill="none" stroke="black" points="1251.5,-336.5 1251.5,-355.5 1364.5,-355.5 1364.5,-336.5 1251.5,-336.5"/>
<text text-anchor="middle" x="1308" y="-343.5" font-family="Helvetica,sans-Serif" font-size="10.00">OgreRenderWindow.h</text>
</a>
</g>
</g>
<!-- Node1&#45;&gt;Node2 -->
<g id="edge1" class="edge"><title>Node1&#45;&gt;Node2</title>
<path fill="none" stroke="midnightblue" d="M1358.36,-392.324C1349.49,-384.341 1336.13,-372.313 1325.39,-362.653"/>
<polygon fill="midnightblue" stroke="midnightblue" points="1327.59,-359.922 1317.82,-355.834 1322.91,-365.125 1327.59,-359.922"/>
</g>
<!-- Node46 -->
<g id="node46" class="node"><title>Node46</title>
<polygon fill="none" stroke="#bfbfbf" points="1382.5,-336.5 1382.5,-355.5 1475.5,-355.5 1475.5,-336.5 1382.5,-336.5"/>
<text text-anchor="middle" x="1429" y="-343.5" font-family="Helvetica,sans-Serif" font-size="10.00">AppKit/NSView.h</text>
</g>
<!-- Node1&#45;&gt;Node46 -->
<g id="edge62" class="edge"><title>Node1&#45;&gt;Node46</title>
<path fill="none" stroke="midnightblue" d="M1377.8,-392.324C1386.82,-384.341 1400.41,-372.313 1411.32,-362.653"/>
<polygon fill="midnightblue" stroke="midnightblue" points="1413.85,-365.083 1419.02,-355.834 1409.21,-359.842 1413.85,-365.083"/>
</g>
<!-- Node3 -->
<g id="node3" class="node"><title>Node3</title>
<g id="a_node3"><a xlink:href="_ogre_prerequisites_8h.html" target="_top" xlink:title="OgrePrerequisites.h">
<polygon fill="none" stroke="black" points="1278.5,-168.5 1278.5,-187.5 1381.5,-187.5 1381.5,-168.5 1278.5,-168.5"/>
<text text-anchor="middle" x="1330" y="-175.5" font-family="Helvetica,sans-Serif" font-size="10.00">OgrePrerequisites.h</text>
</a>
</g>
</g>
<!-- Node2&#45;&gt;Node3 -->
<g id="edge2" class="edge"><title>Node2&#45;&gt;Node3</title>
<path fill="none" stroke="midnightblue" d="M1313.36,-336.438C1318.51,-327.669 1325.96,-313.454 1329,-300 1337.01,-264.607 1334.66,-221.887 1332.29,-197.842"/>
<polygon fill="midnightblue" stroke="midnightblue" points="1335.74,-197.21 1331.17,-187.652 1328.79,-197.975 1335.74,-197.21"/>
</g>
<!-- Node43 -->
<g id="node43" class="node"><title>Node43</title>
<g id="a_node43"><a xlink:href="_ogre_render_target_8h.html" target="_top" xlink:title="OgreRenderTarget.h">
<polygon fill="none" stroke="black" points="1215.5,-280.5 1215.5,-299.5 1320.5,-299.5 1320.5,-280.5 1215.5,-280.5"/>
<text text-anchor="middle" x="1268" y="-287.5" font-family="Helvetica,sans-Serif" font-size="10.00">OgreRenderTarget.h</text>
</a>
</g>
</g>
<!-- Node2&#45;&gt;Node43 -->
<g id="edge51" class="edge"><title>Node2&#45;&gt;Node43</title>
<path fill="none" stroke="midnightblue" d="M1301.39,-336.083C1295.74,-328.455 1287.46,-317.264 1280.55,-307.941"/>
<polygon fill="midnightblue" stroke="midnightblue" points="1283.25,-305.703 1274.48,-299.751 1277.62,-309.87 1283.25,-305.703"/>
</g>
<!-- Node4 -->
<g id="node4" class="node"><title>Node4</title>
<g id="a_node4"><a xlink:href="_ogre_platform_8h.html" target="_top" xlink:title="OgrePlatform.h">
<polygon fill="none" stroke="black" points="399.5,-112.5 399.5,-131.5 482.5,-131.5 482.5,-112.5 399.5,-112.5"/>
<text text-anchor="middle" x="441" y="-119.5" font-family="Helvetica,sans-Serif" font-size="10.00">OgrePlatform.h</text>
</a>
</g>
</g>
<!-- Node3&#45;&gt;Node4 -->
<g id="edge3" class="edge"><title>Node3&#45;&gt;Node4</title>
<path fill="none" stroke="midnightblue" d="M1278.36,-173.863C1121.33,-164.325 650.621,-135.733 493.045,-126.161"/>
<polygon fill="midnightblue" stroke="midnightblue" points="492.881,-122.645 482.687,-125.532 492.456,-129.632 492.881,-122.645"/>
</g>
<!-- Node6 -->
<g id="node6" class="node"><title>Node6</title>
<polygon fill="none" stroke="#bfbfbf" points="262.5,-56.5 262.5,-75.5 303.5,-75.5 303.5,-56.5 262.5,-56.5"/>
<text text-anchor="middle" x="283" y="-63.5" font-family="Helvetica,sans-Serif" font-size="10.00">string</text>
</g>
<!-- Node3&#45;&gt;Node6 -->
<g id="edge5" class="edge"><title>Node3&#45;&gt;Node6</title>
<path fill="none" stroke="midnightblue" d="M1278.34,-175.554C1129.18,-170.6 685.219,-150.378 313.645,-75.9914"/>
<polygon fill="midnightblue" stroke="midnightblue" points="314.273,-72.5477 303.778,-73.9998 312.888,-79.4093 314.273,-72.5477"/>
</g>
<!-- Node7 -->
<g id="node7" class="node"><title>Node7</title>
<g id="a_node7"><a xlink:href="_ogre_std_headers_8h.html" target="_top" xlink:title="OgreStdHeaders.h">
<polygon fill="none" stroke="black" points="1281,-112.5 1281,-131.5 1379,-131.5 1379,-112.5 1281,-112.5"/>
<text text-anchor="middle" x="1330" y="-119.5" font-family="Helvetica,sans-Serif" font-size="10.00">OgreStdHeaders.h</text>
</a>
</g>
</g>
<!-- Node3&#45;&gt;Node7 -->
<g id="edge6" class="edge"><title>Node3&#45;&gt;Node7</title>
<path fill="none" stroke="midnightblue" d="M1330,-168.083C1330,-161.006 1330,-150.861 1330,-141.986"/>
<polygon fill="midnightblue" stroke="midnightblue" points="1333.5,-141.751 1330,-131.751 1326.5,-141.751 1333.5,-141.751"/>
</g>
<!-- Node37 -->
<g id="node37" class="node"><title>Node37</title>
<g id="a_node37"><a xlink:href="_ogre_memory_allocator_config_8h.html" target="_top" xlink:title="This file configures Ogre&#39;s memory allocators. ">
<polygon fill="none" stroke="black" points="2601,-112.5 2601,-131.5 2749,-131.5 2749,-112.5 2601,-112.5"/>
<text text-anchor="middle" x="2675" y="-119.5" font-family="Helvetica,sans-Serif" font-size="10.00">OgreMemoryAllocatorConfig.h</text>
</a>
</g>
</g>
<!-- Node3&#45;&gt;Node37 -->
<g id="edge37" class="edge"><title>Node3&#45;&gt;Node37</title>
<path fill="none" stroke="midnightblue" d="M1381.9,-174.916C1586.3,-166.71 2336.87,-136.576 2590.56,-126.39"/>
<polygon fill="midnightblue" stroke="midnightblue" points="2590.97,-129.876 2600.83,-125.978 2590.69,-122.882 2590.97,-129.876"/>
</g>
<!-- Node5 -->
<g id="node5" class="node"><title>Node5</title>
<g id="a_node5"><a xlink:href="_ogre_config_8h.html" target="_top" xlink:title="OgreConfig.h">
<polygon fill="none" stroke="red" points="170,-56.5 170,-75.5 244,-75.5 244,-56.5 170,-56.5"/>
<text text-anchor="middle" x="207" y="-63.5" font-family="Helvetica,sans-Serif" font-size="10.00">OgreConfig.h</text>
</a>
</g>
</g>
<!-- Node4&#45;&gt;Node5 -->
<g id="edge4" class="edge"><title>Node4&#45;&gt;Node5</title>
<path fill="none" stroke="midnightblue" d="M403.922,-112.444C363.272,-103.063 297.968,-87.9926 253.816,-77.8036"/>
<polygon fill="midnightblue" stroke="midnightblue" points="254.435,-74.3547 243.905,-75.5164 252.861,-81.1755 254.435,-74.3547"/>
</g>
<!-- Node7&#45;&gt;Node6 -->
<g id="edge16" class="edge"><title>Node7&#45;&gt;Node6</title>
<path fill="none" stroke="midnightblue" d="M1280.71,-120.494C1106.69,-118.451 520.831,-109.332 313.624,-75.8071"/>
<polygon fill="midnightblue" stroke="midnightblue" points="314.195,-72.354 303.752,-74.1402 313.03,-79.2563 314.195,-72.354"/>
</g>
<!-- Node8 -->
<g id="node8" class="node"><title>Node8</title>
<polygon fill="none" stroke="#bfbfbf" points="1754.5,-56.5 1754.5,-75.5 1803.5,-75.5 1803.5,-56.5 1754.5,-56.5"/>
<text text-anchor="middle" x="1779" y="-63.5" font-family="Helvetica,sans-Serif" font-size="10.00">cassert</text>
</g>
<!-- Node7&#45;&gt;Node8 -->
<g id="edge7" class="edge"><title>Node7&#45;&gt;Node8</title>
<path fill="none" stroke="midnightblue" d="M1379.04,-118.221C1455.39,-113.342 1607.33,-101.426 1744.39,-76.0573"/>
<polygon fill="midnightblue" stroke="midnightblue" points="1745.05,-79.4946 1754.23,-74.2074 1743.76,-72.6151 1745.05,-79.4946"/>
</g>
<!-- Node9 -->
<g id="node9" class="node"><title>Node9</title>
<polygon fill="none" stroke="#bfbfbf" points="1821.5,-56.5 1821.5,-75.5 1864.5,-75.5 1864.5,-56.5 1821.5,-56.5"/>
<text text-anchor="middle" x="1843" y="-63.5" font-family="Helvetica,sans-Serif" font-size="10.00">cstdio</text>
</g>
<!-- Node7&#45;&gt;Node9 -->
<g id="edge8" class="edge"><title>Node7&#45;&gt;Node9</title>
<path fill="none" stroke="midnightblue" d="M1379,-119.488C1464.81,-116.177 1647.83,-106.16 1811.21,-75.7599"/>
<polygon fill="midnightblue" stroke="midnightblue" points="1812.27,-79.1214 1821.45,-73.8234 1810.97,-72.2435 1812.27,-79.1214"/>
</g>
<!-- Node10 -->
<g id="node10" class="node"><title>Node10</title>
<polygon fill="none" stroke="#bfbfbf" points="1882.5,-56.5 1882.5,-75.5 1927.5,-75.5 1927.5,-56.5 1882.5,-56.5"/>
<text text-anchor="middle" x="1905" y="-63.5" font-family="Helvetica,sans-Serif" font-size="10.00">cstdlib</text>
</g>
<!-- Node7&#45;&gt;Node10 -->
<g id="edge9" class="edge"><title>Node7&#45;&gt;Node10</title>
<path fill="none" stroke="midnightblue" d="M1379.08,-120.072C1473.13,-117.616 1685.24,-108.803 1872.38,-75.733"/>
<polygon fill="midnightblue" stroke="midnightblue" points="1873.18,-79.1461 1882.4,-73.9345 1871.94,-72.2562 1873.18,-79.1461"/>
</g>
<!-- Node11 -->
<g id="node11" class="node"><title>Node11</title>
<polygon fill="none" stroke="#bfbfbf" points="1945.5,-56.5 1945.5,-75.5 1986.5,-75.5 1986.5,-56.5 1945.5,-56.5"/>
<text text-anchor="middle" x="1966" y="-63.5" font-family="Helvetica,sans-Serif" font-size="10.00">ctime</text>
</g>
<!-- Node7&#45;&gt;Node11 -->
<g id="edge10" class="edge"><title>Node7&#45;&gt;Node11</title>
<path fill="none" stroke="midnightblue" d="M1379.16,-120.951C1481.32,-120.075 1723.9,-113.973 1935.44,-75.6442"/>
<polygon fill="midnightblue" stroke="midnightblue" points="1936.29,-79.047 1945.49,-73.7946 1935.02,-72.1626 1936.29,-79.047"/>
</g>
<!-- Node12 -->
<g id="node12" class="node"><title>Node12</title>
<polygon fill="none" stroke="#bfbfbf" points="2005,-56.5 2005,-75.5 2051,-75.5 2051,-56.5 2005,-56.5"/>
<text text-anchor="middle" x="2028" y="-63.5" font-family="Helvetica,sans-Serif" font-size="10.00">cstring</text>
</g>
<!-- Node7&#45;&gt;Node12 -->
<g id="edge11" class="edge"><title>Node7&#45;&gt;Node12</title>
<path fill="none" stroke="midnightblue" d="M1379.2,-120.999C1488.4,-120.283 1759.26,-114.566 1994.57,-75.6692"/>
<polygon fill="midnightblue" stroke="midnightblue" points="1995.41,-79.0783 2004.69,-73.9725 1994.25,-72.1747 1995.41,-79.0783"/>
</g>
<!-- Node13 -->
<g id="node13" class="node"><title>Node13</title>
<polygon fill="none" stroke="#bfbfbf" points="2069.5,-56.5 2069.5,-75.5 2118.5,-75.5 2118.5,-56.5 2069.5,-56.5"/>
<text text-anchor="middle" x="2094" y="-63.5" font-family="Helvetica,sans-Serif" font-size="10.00">cstdarg</text>
</g>
<!-- Node7&#45;&gt;Node13 -->
<g id="edge12" class="edge"><title>Node7&#45;&gt;Node13</title>
<path fill="none" stroke="midnightblue" d="M1379.06,-121.298C1495.64,-121.297 1798.35,-117.116 2059.2,-75.7717"/>
<polygon fill="midnightblue" stroke="midnightblue" points="2059.92,-79.2005 2069.24,-74.1583 2058.81,-72.2891 2059.92,-79.2005"/>
</g>
<!-- Node14 -->
<g id="node14" class="node"><title>Node14</title>
<polygon fill="none" stroke="#bfbfbf" points="2137,-56.5 2137,-75.5 2181,-75.5 2181,-56.5 2137,-56.5"/>
<text text-anchor="middle" x="2159" y="-63.5" font-family="Helvetica,sans-Serif" font-size="10.00">cmath</text>
</g>
<!-- Node7&#45;&gt;Node14 -->
<g id="edge13" class="edge"><title>Node7&#45;&gt;Node14</title>
<path fill="none" stroke="midnightblue" d="M1379.16,-119.627C1526.47,-115.295 1963.5,-100.81 2126.86,-75.5252"/>
<polygon fill="midnightblue" stroke="midnightblue" points="2127.45,-78.9763 2136.76,-73.9228 2126.33,-72.0663 2127.45,-78.9763"/>
</g>
<!-- Node15 -->
<g id="node15" class="node"><title>Node15</title>
<polygon fill="none" stroke="#bfbfbf" points="2199,-56.5 2199,-75.5 2243,-75.5 2243,-56.5 2199,-56.5"/>
<text text-anchor="middle" x="2221" y="-63.5" font-family="Helvetica,sans-Serif" font-size="10.00">vector</text>
</g>
<!-- Node7&#45;&gt;Node15 -->
<g id="edge14" class="edge"><title>Node7&#45;&gt;Node15</title>
<path fill="none" stroke="midnightblue" d="M1379.11,-119.916C1534.19,-116.265 2013.05,-103.183 2188.66,-75.7672"/>
<polygon fill="midnightblue" stroke="midnightblue" points="2189.49,-79.1791 2198.79,-74.1118 2188.36,-72.2707 2189.49,-79.1791"/>
</g>
<!-- Node16 -->
<g id="node16" class="node"><title>Node16</title>
<polygon fill="none" stroke="#bfbfbf" points="2261.5,-56.5 2261.5,-75.5 2296.5,-75.5 2296.5,-56.5 2261.5,-56.5"/>
<text text-anchor="middle" x="2279" y="-63.5" font-family="Helvetica,sans-Serif" font-size="10.00">map</text>
</g>
<!-- Node7&#45;&gt;Node16 -->
<g id="edge15" class="edge"><title>Node7&#45;&gt;Node16</title>
<path fill="none" stroke="midnightblue" d="M1379.18,-120.366C1541.95,-117.996 2062.98,-108.172 2251.41,-75.4408"/>
<polygon fill="midnightblue" stroke="midnightblue" points="2252.25,-78.8444 2261.46,-73.6108 2251,-71.9574 2252.25,-78.8444"/>
</g>
<!-- Node17 -->
<g id="node17" class="node"><title>Node17</title>
<polygon fill="none" stroke="#bfbfbf" points="2315,-56.5 2315,-75.5 2345,-75.5 2345,-56.5 2315,-56.5"/>
<text text-anchor="middle" x="2330" y="-63.5" font-family="Helvetica,sans-Serif" font-size="10.00">set</text>
</g>
<!-- Node7&#45;&gt;Node17 -->
<g id="edge17" class="edge"><title>Node7&#45;&gt;Node17</title>
<path fill="none" stroke="midnightblue" d="M1379.03,-120.671C1550.82,-119.217 2124.87,-111.735 2305,-76 2305.1,-75.9798 2305.2,-75.9593 2305.31,-75.9384"/>
<polygon fill="midnightblue" stroke="midnightblue" points="2306.18,-79.3278 2314.87,-73.2631 2304.3,-72.5866 2306.18,-79.3278"/>
</g>
<!-- Node18 -->
<g id="node18" class="node"><title>Node18</title>
<polygon fill="none" stroke="#bfbfbf" points="2363.5,-56.5 2363.5,-75.5 2392.5,-75.5 2392.5,-56.5 2363.5,-56.5"/>
<text text-anchor="middle" x="2378" y="-63.5" font-family="Helvetica,sans-Serif" font-size="10.00">list</text>
</g>
<!-- Node7&#45;&gt;Node18 -->
<g id="edge18" class="edge"><title>Node7&#45;&gt;Node18</title>
<path fill="none" stroke="midnightblue" d="M1379.04,-120.881C1553.56,-120.148 2144.7,-114.918 2353.54,-75.2485"/>
<polygon fill="midnightblue" stroke="midnightblue" points="2354.37,-78.6534 2363.49,-73.2717 2353,-71.7876 2354.37,-78.6534"/>
</g>
<!-- Node19 -->
<g id="node19" class="node"><title>Node19</title>
<polygon fill="none" stroke="#bfbfbf" points="2410.5,-56.5 2410.5,-75.5 2453.5,-75.5 2453.5,-56.5 2410.5,-56.5"/>
<text text-anchor="middle" x="2432" y="-63.5" font-family="Helvetica,sans-Serif" font-size="10.00">deque</text>
</g>
<!-- Node7&#45;&gt;Node19 -->
<g id="edge19" class="edge"><title>Node7&#45;&gt;Node19</title>
<path fill="none" stroke="midnightblue" d="M1379.29,-120.501C1559.15,-118.438 2180.52,-109.145 2400.31,-75.5845"/>
<polygon fill="midnightblue" stroke="midnightblue" points="2401.15,-78.996 2410.47,-73.968 2400.05,-72.083 2401.15,-78.996"/>
</g>
<!-- Node20 -->
<g id="node20" class="node"><title>Node20</title>
<polygon fill="none" stroke="#bfbfbf" points="321.5,-56.5 321.5,-75.5 364.5,-75.5 364.5,-56.5 321.5,-56.5"/>
<text text-anchor="middle" x="343" y="-63.5" font-family="Helvetica,sans-Serif" font-size="10.00">queue</text>
</g>
<!-- Node7&#45;&gt;Node20 -->
<g id="edge20" class="edge"><title>Node7&#45;&gt;Node20</title>
<path fill="none" stroke="midnightblue" d="M1280.77,-120.273C1113.92,-117.565 569.865,-106.681 374.932,-75.8868"/>
<polygon fill="midnightblue" stroke="midnightblue" points="375.244,-72.3911 364.808,-74.2147 374.104,-79.2975 375.244,-72.3911"/>
</g>
<!-- Node21 -->
<g id="node21" class="node"><title>Node21</title>
<polygon fill="none" stroke="#bfbfbf" points="382.5,-56.5 382.5,-75.5 423.5,-75.5 423.5,-56.5 382.5,-56.5"/>
<text text-anchor="middle" x="403" y="-63.5" font-family="Helvetica,sans-Serif" font-size="10.00">bitset</text>
</g>
<!-- Node7&#45;&gt;Node21 -->
<g id="edge21" class="edge"><title>Node7&#45;&gt;Node21</title>
<path fill="none" stroke="midnightblue" d="M1280.77,-120.094C1121.01,-116.911 617.255,-104.929 433.571,-75.5466"/>
<polygon fill="midnightblue" stroke="midnightblue" points="433.941,-72.06 423.5,-73.8614 432.786,-78.964 433.941,-72.06"/>
</g>
<!-- Node22 -->
<g id="node22" class="node"><title>Node22</title>
<polygon fill="none" stroke="#bfbfbf" points="442,-56.5 442,-75.5 498,-75.5 498,-56.5 442,-56.5"/>
<text text-anchor="middle" x="470" y="-63.5" font-family="Helvetica,sans-Serif" font-size="10.00">algorithm</text>
</g>
<!-- Node7&#45;&gt;Node22 -->
<g id="edge22" class="edge"><title>Node7&#45;&gt;Node22</title>
<path fill="none" stroke="midnightblue" d="M1280.99,-121.451C1154.4,-121.948 806.198,-119.078 508.307,-75.9062"/>
<polygon fill="midnightblue" stroke="midnightblue" points="508.579,-72.4087 498.176,-74.4195 507.562,-79.3345 508.579,-72.4087"/>
</g>
<!-- Node23 -->
<g id="node23" class="node"><title>Node23</title>
<polygon fill="none" stroke="#bfbfbf" points="516.5,-56.5 516.5,-75.5 575.5,-75.5 575.5,-56.5 516.5,-56.5"/>
<text text-anchor="middle" x="546" y="-63.5" font-family="Helvetica,sans-Serif" font-size="10.00">functional</text>
</g>
<!-- Node7&#45;&gt;Node23 -->
<g id="edge23" class="edge"><title>Node7&#45;&gt;Node23</title>
<path fill="none" stroke="midnightblue" d="M1280.9,-120.851C1162.77,-119.891 853.323,-113.791 586.005,-75.8724"/>
<polygon fill="midnightblue" stroke="midnightblue" points="586.11,-72.3517 575.714,-74.3938 585.115,-79.2805 586.11,-72.3517"/>
</g>
<!-- Node24 -->
<g id="node24" class="node"><title>Node24</title>
<polygon fill="none" stroke="#bfbfbf" points="594,-56.5 594,-75.5 634,-75.5 634,-56.5 594,-56.5"/>
<text text-anchor="middle" x="614" y="-63.5" font-family="Helvetica,sans-Serif" font-size="10.00">limits</text>
</g>
<!-- Node7&#45;&gt;Node24 -->
<g id="edge24" class="edge"><title>Node7&#45;&gt;Node24</title>
<path fill="none" stroke="midnightblue" d="M1280.78,-121.724C1168.85,-122.526 886.788,-119.782 644.194,-75.7661"/>
<polygon fill="midnightblue" stroke="midnightblue" points="644.598,-72.2817 634.129,-73.9119 643.329,-79.1658 644.598,-72.2817"/>
</g>
<!-- Node25 -->
<g id="node25" class="node"><title>Node25</title>
<polygon fill="none" stroke="#bfbfbf" points="652,-56.5 652,-75.5 702,-75.5 702,-56.5 652,-56.5"/>
<text text-anchor="middle" x="677" y="-63.5" font-family="Helvetica,sans-Serif" font-size="10.00">fstream</text>
</g>
<!-- Node7&#45;&gt;Node25 -->
<g id="edge25" class="edge"><title>Node7&#45;&gt;Node25</title>
<path fill="none" stroke="midnightblue" d="M1280.68,-120.522C1176.94,-118.848 928.559,-111.327 712.095,-75.867"/>
<polygon fill="midnightblue" stroke="midnightblue" points="712.576,-72.3991 702.137,-74.2122 711.428,-79.3043 712.576,-72.3991"/>
</g>
<!-- Node26 -->
<g id="node26" class="node"><title>Node26</title>
<polygon fill="none" stroke="#bfbfbf" points="720.5,-56.5 720.5,-75.5 765.5,-75.5 765.5,-56.5 720.5,-56.5"/>
<text text-anchor="middle" x="743" y="-63.5" font-family="Helvetica,sans-Serif" font-size="10.00">iosfwd</text>
</g>
<!-- Node7&#45;&gt;Node26 -->
<g id="edge26" class="edge"><title>Node7&#45;&gt;Node26</title>
<path fill="none" stroke="midnightblue" d="M1280.97,-120.197C1185.38,-117.947 967.446,-109.46 775.583,-75.7224"/>
<polygon fill="midnightblue" stroke="midnightblue" points="776.059,-72.2521 765.6,-73.9396 774.829,-79.1431 776.059,-72.2521"/>
</g>
<!-- Node27 -->
<g id="node27" class="node"><title>Node27</title>
<polygon fill="none" stroke="#bfbfbf" points="784,-56.5 784,-75.5 836,-75.5 836,-56.5 784,-56.5"/>
<text text-anchor="middle" x="810" y="-63.5" font-family="Helvetica,sans-Serif" font-size="10.00">sstream</text>
</g>
<!-- Node7&#45;&gt;Node27 -->
<g id="edge27" class="edge"><title>Node7&#45;&gt;Node27</title>
<path fill="none" stroke="midnightblue" d="M1280.78,-119.023C1194.58,-114.999 1010.63,-103.911 846.554,-76.0096"/>
<polygon fill="midnightblue" stroke="midnightblue" points="846.726,-72.4875 836.276,-74.2349 845.534,-79.3854 846.726,-72.4875"/>
</g>
<!-- Node28 -->
<g id="node28" class="node"><title>Node28</title>
<polygon fill="none" stroke="#bfbfbf" points="854,-56.5 854,-75.5 922,-75.5 922,-56.5 854,-56.5"/>
<text text-anchor="middle" x="888" y="-63.5" font-family="Helvetica,sans-Serif" font-size="10.00">sys/types.h</text>
</g>
<!-- Node7&#45;&gt;Node28 -->
<g id="edge28" class="edge"><title>Node7&#45;&gt;Node28</title>
<path fill="none" stroke="midnightblue" d="M1280.97,-116.966C1207.41,-110.586 1063.96,-96.8744 932.465,-76.1016"/>
<polygon fill="midnightblue" stroke="midnightblue" points="932.641,-72.5853 922.214,-74.4637 931.536,-79.4977 932.641,-72.5853"/>
</g>
<!-- Node29 -->
<g id="node29" class="node"><title>Node29</title>
<polygon fill="none" stroke="#bfbfbf" points="940,-56.5 940,-75.5 1000,-75.5 1000,-56.5 940,-56.5"/>
<text text-anchor="middle" x="970" y="-63.5" font-family="Helvetica,sans-Serif" font-size="10.00">sys/stat.h</text>
</g>
<!-- Node7&#45;&gt;Node29 -->
<g id="edge29" class="edge"><title>Node7&#45;&gt;Node29</title>
<path fill="none" stroke="midnightblue" d="M1280.84,-115.465C1219.7,-108.28 1111.96,-94.6361 1010.31,-76.1064"/>
<polygon fill="midnightblue" stroke="midnightblue" points="1010.65,-72.6096 1000.18,-74.2391 1009.38,-79.4937 1010.65,-72.6096"/>
</g>
<!-- Node30 -->
<g id="node30" class="node"><title>Node30</title>
<polygon fill="none" stroke="#bfbfbf" points="1018.5,-56.5 1018.5,-75.5 1069.5,-75.5 1069.5,-56.5 1018.5,-56.5"/>
<text text-anchor="middle" x="1044" y="-63.5" font-family="Helvetica,sans-Serif" font-size="10.00">unistd.h</text>
</g>
<!-- Node7&#45;&gt;Node30 -->
<g id="edge30" class="edge"><title>Node7&#45;&gt;Node30</title>
<path fill="none" stroke="midnightblue" d="M1280.73,-113.278C1232.15,-105.414 1155.57,-92.3578 1079.77,-76.0261"/>
<polygon fill="midnightblue" stroke="midnightblue" points="1080.08,-72.5122 1069.56,-73.8067 1078.59,-79.3522 1080.08,-72.5122"/>
</g>
<!-- Node31 -->
<g id="node31" class="node"><title>Node31</title>
<polygon fill="none" stroke="#bfbfbf" points="1088,-56.5 1088,-75.5 1134,-75.5 1134,-56.5 1088,-56.5"/>
<text text-anchor="middle" x="1111" y="-63.5" font-family="Helvetica,sans-Serif" font-size="10.00">dlfcn.h</text>
</g>
<!-- Node7&#45;&gt;Node31 -->
<g id="edge31" class="edge"><title>Node7&#45;&gt;Node31</title>
<path fill="none" stroke="midnightblue" d="M1292.64,-112.451C1256.89,-104.171 1201.21,-91.0226 1143.99,-76.1853"/>
<polygon fill="midnightblue" stroke="midnightblue" points="1144.6,-72.7292 1134.04,-73.5939 1142.84,-79.5029 1144.6,-72.7292"/>
</g>
<!-- Node32 -->
<g id="node32" class="node"><title>Node32</title>
<polygon fill="none" stroke="#bfbfbf" points="1152,-56.5 1152,-75.5 1230,-75.5 1230,-56.5 1152,-56.5"/>
<text text-anchor="middle" x="1191" y="-63.5" font-family="Helvetica,sans-Serif" font-size="10.00">ext/hash_map</text>
</g>
<!-- Node7&#45;&gt;Node32 -->
<g id="edge32" class="edge"><title>Node7&#45;&gt;Node32</title>
<path fill="none" stroke="midnightblue" d="M1307.98,-112.444C1284.9,-103.478 1248.44,-89.314 1222.36,-79.1827"/>
<polygon fill="midnightblue" stroke="midnightblue" points="1223.51,-75.8753 1212.92,-75.5164 1220.98,-82.4002 1223.51,-75.8753"/>
</g>
<!-- Node33 -->
<g id="node33" class="node"><title>Node33</title>
<polygon fill="none" stroke="#bfbfbf" points="1248.5,-56.5 1248.5,-75.5 1321.5,-75.5 1321.5,-56.5 1248.5,-56.5"/>
<text text-anchor="middle" x="1285" y="-63.5" font-family="Helvetica,sans-Serif" font-size="10.00">ext/hash_set</text>
</g>
<!-- Node7&#45;&gt;Node33 -->
<g id="edge33" class="edge"><title>Node7&#45;&gt;Node33</title>
<path fill="none" stroke="midnightblue" d="M1322.57,-112.083C1316.15,-104.377 1306.69,-93.0333 1298.88,-83.6531"/>
<polygon fill="midnightblue" stroke="midnightblue" points="1301.38,-81.1927 1292.29,-75.7511 1296.01,-85.674 1301.38,-81.1927"/>
</g>
<!-- Node34 -->
<g id="node34" class="node"><title>Node34</title>
<polygon fill="none" stroke="#bfbfbf" points="1339.5,-56.5 1339.5,-75.5 1410.5,-75.5 1410.5,-56.5 1339.5,-56.5"/>
<text text-anchor="middle" x="1375" y="-63.5" font-family="Helvetica,sans-Serif" font-size="10.00">sys/param.h</text>
</g>
<!-- Node7&#45;&gt;Node34 -->
<g id="edge34" class="edge"><title>Node7&#45;&gt;Node34</title>
<path fill="none" stroke="midnightblue" d="M1337.43,-112.083C1343.85,-104.377 1353.31,-93.0333 1361.12,-83.6531"/>
<polygon fill="midnightblue" stroke="midnightblue" points="1363.99,-85.674 1367.71,-75.7511 1358.62,-81.1927 1363.99,-85.674"/>
</g>
<!-- Node35 -->
<g id="node35" class="node"><title>Node35</title>
<polygon fill="none" stroke="#bfbfbf" points="1429,-56.5 1429,-75.5 1595,-75.5 1595,-56.5 1429,-56.5"/>
<text text-anchor="middle" x="1512" y="-63.5" font-family="Helvetica,sans-Serif" font-size="10.00">CoreFoundation/CoreFoundation.h</text>
</g>
<!-- Node7&#45;&gt;Node35 -->
<g id="edge35" class="edge"><title>Node7&#45;&gt;Node35</title>
<path fill="none" stroke="midnightblue" d="M1358.84,-112.444C1389.86,-103.241 1439.33,-88.5617 1473.62,-78.3879"/>
<polygon fill="midnightblue" stroke="midnightblue" points="1474.71,-81.7164 1483.3,-75.5164 1472.71,-75.0055 1474.71,-81.7164"/>
</g>
<!-- Node36 -->
<g id="node36" class="node"><title>Node36</title>
<polygon fill="none" stroke="#bfbfbf" points="1613,-56.5 1613,-75.5 1737,-75.5 1737,-56.5 1613,-56.5"/>
<text text-anchor="middle" x="1675" y="-63.5" font-family="Helvetica,sans-Serif" font-size="10.00">emscripten/emscripten.h</text>
</g>
<!-- Node7&#45;&gt;Node36 -->
<g id="edge36" class="edge"><title>Node7&#45;&gt;Node36</title>
<path fill="none" stroke="midnightblue" d="M1379.06,-113.32C1439.76,-103.821 1543.26,-87.6197 1610.38,-77.1151"/>
<polygon fill="midnightblue" stroke="midnightblue" points="1611.07,-80.5484 1620.41,-75.544 1609.99,-73.6326 1611.07,-80.5484"/>
</g>
<!-- Node38 -->
<g id="node38" class="node"><title>Node38</title>
<g id="a_node38"><a xlink:href="_ogre_memory_allocated_object_8h.html" target="_top" xlink:title="OgreMemoryAllocatedObject.h">
<polygon fill="none" stroke="black" points="2815,-56.5 2815,-75.5 2965,-75.5 2965,-56.5 2815,-56.5"/>
<text text-anchor="middle" x="2890" y="-63.5" font-family="Helvetica,sans-Serif" font-size="10.00">OgreMemoryAllocatedObject.h</text>
</a>
</g>
</g>
<!-- Node37&#45;&gt;Node38 -->
<g id="edge38" class="edge"><title>Node37&#45;&gt;Node38</title>
<path fill="none" stroke="midnightblue" d="M2709.07,-112.444C2746.18,-103.122 2805.66,-88.1828 2846.21,-77.9972"/>
<polygon fill="midnightblue" stroke="midnightblue" points="2847.25,-81.347 2856.09,-75.5164 2845.54,-74.5579 2847.25,-81.347"/>
</g>
<!-- Node39 -->
<g id="node39" class="node"><title>Node39</title>
<g id="a_node39"><a xlink:href="_ogre_header_prefix_8h.html" target="_top" xlink:title="OgreHeaderPrefix.h">
<polygon fill="none" stroke="black" points="2838.5,-0.5 2838.5,-19.5 2941.5,-19.5 2941.5,-0.5 2838.5,-0.5"/>
<text text-anchor="middle" x="2890" y="-7.5" font-family="Helvetica,sans-Serif" font-size="10.00">OgreHeaderPrefix.h</text>
</a>
</g>
</g>
<!-- Node37&#45;&gt;Node39 -->
<g id="edge42" class="edge"><title>Node37&#45;&gt;Node39</title>
<path fill="none" stroke="midnightblue" d="M2749.34,-120.469C2828.29,-118.14 2945.58,-109.022 2974,-76 2992.72,-54.2467 2957.62,-34.9164 2927.23,-23.1047"/>
<polygon fill="midnightblue" stroke="midnightblue" points="2928.2,-19.7297 2917.6,-19.5403 2925.77,-26.2944 2928.2,-19.7297"/>
</g>
<!-- Node40 -->
<g id="node40" class="node"><title>Node40</title>
<g id="a_node40"><a xlink:href="_ogre_header_suffix_8h.html" target="_top" xlink:title="OgreHeaderSuffix.h">
<polygon fill="none" stroke="black" points="2488.5,-0.5 2488.5,-19.5 2591.5,-19.5 2591.5,-0.5 2488.5,-0.5"/>
<text text-anchor="middle" x="2540" y="-7.5" font-family="Helvetica,sans-Serif" font-size="10.00">OgreHeaderSuffix.h</text>
</a>
</g>
</g>
<!-- Node37&#45;&gt;Node40 -->
<g id="edge50" class="edge"><title>Node37&#45;&gt;Node40</title>
<path fill="none" stroke="midnightblue" d="M2668.6,-112.215C2658.63,-98.928 2638.31,-73.4269 2617,-56 2601.72,-43.4984 2582.55,-32.2848 2567.16,-24.1786"/>
<polygon fill="midnightblue" stroke="midnightblue" points="2568.64,-21 2558.14,-19.5491 2565.44,-27.2281 2568.64,-21"/>
</g>
<!-- Node41 -->
<g id="node41" class="node"><title>Node41</title>
<g id="a_node41"><a xlink:href="_ogre_memory_s_t_l_allocator_8h.html" target="_top" xlink:title="OgreMemorySTLAllocator.h">
<polygon fill="none" stroke="black" points="2471.5,-56.5 2471.5,-75.5 2608.5,-75.5 2608.5,-56.5 2471.5,-56.5"/>
<text text-anchor="middle" x="2540" y="-63.5" font-family="Helvetica,sans-Serif" font-size="10.00">OgreMemorySTLAllocator.h</text>
</a>
</g>
</g>
<!-- Node37&#45;&gt;Node41 -->
<g id="edge43" class="edge"><title>Node37&#45;&gt;Node41</title>
<path fill="none" stroke="midnightblue" d="M2653.61,-112.444C2631.29,-103.517 2596.1,-89.4387 2570.79,-79.3168"/>
<polygon fill="midnightblue" stroke="midnightblue" points="2571.88,-75.9807 2561.29,-75.5164 2569.28,-82.4801 2571.88,-75.9807"/>
</g>
<!-- Node42 -->
<g id="node42" class="node"><title>Node42</title>
<g id="a_node42"><a xlink:href="_ogre_memory_ned_pooling_8h.html" target="_top" xlink:title="OgreMemoryNedPooling.h">
<polygon fill="none" stroke="black" points="2665.5,-56.5 2665.5,-75.5 2796.5,-75.5 2796.5,-56.5 2665.5,-56.5"/>
<text text-anchor="middle" x="2731" y="-63.5" font-family="Helvetica,sans-Serif" font-size="10.00">OgreMemoryNedPooling.h</text>
</a>
</g>
</g>
<!-- Node37&#45;&gt;Node42 -->
<g id="edge47" class="edge"><title>Node37&#45;&gt;Node42</title>
<path fill="none" stroke="midnightblue" d="M2684,-112.324C2692.19,-104.42 2704.51,-92.5482 2714.47,-82.9377"/>
<polygon fill="midnightblue" stroke="midnightblue" points="2717.07,-85.2947 2721.84,-75.8339 2712.21,-80.2558 2717.07,-85.2947"/>
</g>
<!-- Node38&#45;&gt;Node3 -->
<g id="edge39" class="edge"><title>Node38&#45;&gt;Node3</title>
<path fill="none" stroke="midnightblue" d="M2877.23,-75.6245C2854.47,-90.4529 2804.84,-120.311 2758,-132 2624.48,-165.317 1649.31,-174.687 1392.07,-176.591"/>
<polygon fill="midnightblue" stroke="midnightblue" points="1391.77,-173.093 1381.79,-176.666 1391.82,-180.093 1391.77,-173.093"/>
</g>
<!-- Node38&#45;&gt;Node39 -->
<g id="edge40" class="edge"><title>Node38&#45;&gt;Node39</title>
<path fill="none" stroke="midnightblue" d="M2890,-56.083C2890,-49.0059 2890,-38.8611 2890,-29.9865"/>
<polygon fill="midnightblue" stroke="midnightblue" points="2893.5,-29.751 2890,-19.7511 2886.5,-29.7511 2893.5,-29.751"/>
</g>
<!-- Node38&#45;&gt;Node40 -->
<g id="edge41" class="edge"><title>Node38&#45;&gt;Node40</title>
<path fill="none" stroke="midnightblue" d="M2834.54,-56.4435C2771.24,-46.6763 2667.95,-30.7408 2602.02,-20.5694"/>
<polygon fill="midnightblue" stroke="midnightblue" points="2602.19,-17.0541 2591.78,-18.9883 2601.13,-23.9723 2602.19,-17.0541"/>
</g>
<!-- Node41&#45;&gt;Node3 -->
<g id="edge44" class="edge"><title>Node41&#45;&gt;Node3</title>
<path fill="none" stroke="midnightblue" d="M2471.11,-75.0471C2468.03,-75.3757 2464.98,-75.6948 2462,-76 2053.97,-117.736 1562.18,-158.289 1391.71,-172.059"/>
<polygon fill="midnightblue" stroke="midnightblue" points="1391.35,-168.577 1381.66,-172.87 1391.91,-175.554 1391.35,-168.577"/>
</g>
<!-- Node41&#45;&gt;Node39 -->
<g id="edge45" class="edge"><title>Node41&#45;&gt;Node39</title>
<path fill="none" stroke="midnightblue" d="M2595.46,-56.4435C2658.76,-46.6763 2762.05,-30.7408 2827.98,-20.5694"/>
<polygon fill="midnightblue" stroke="midnightblue" points="2828.87,-23.9723 2838.22,-18.9883 2827.81,-17.0541 2828.87,-23.9723"/>
</g>
<!-- Node41&#45;&gt;Node40 -->
<g id="edge46" class="edge"><title>Node41&#45;&gt;Node40</title>
<path fill="none" stroke="midnightblue" d="M2540,-56.083C2540,-49.0059 2540,-38.8611 2540,-29.9865"/>
<polygon fill="midnightblue" stroke="midnightblue" points="2543.5,-29.751 2540,-19.7511 2536.5,-29.7511 2543.5,-29.751"/>
</g>
<!-- Node42&#45;&gt;Node39 -->
<g id="edge48" class="edge"><title>Node42&#45;&gt;Node39</title>
<path fill="none" stroke="midnightblue" d="M2756.19,-56.4435C2782.94,-47.3591 2825.4,-32.9388 2855.31,-22.7831"/>
<polygon fill="midnightblue" stroke="midnightblue" points="2856.58,-26.0464 2864.92,-19.5164 2854.33,-19.4182 2856.58,-26.0464"/>
</g>
<!-- Node42&#45;&gt;Node40 -->
<g id="edge49" class="edge"><title>Node42&#45;&gt;Node40</title>
<path fill="none" stroke="midnightblue" d="M2700.74,-56.4435C2668.04,-47.2011 2615.82,-32.4356 2579.82,-22.2572"/>
<polygon fill="midnightblue" stroke="midnightblue" points="2580.7,-18.8691 2570.12,-19.5164 2578.79,-25.6051 2580.7,-18.8691"/>
</g>
<!-- Node43&#45;&gt;Node3 -->
<g id="edge52" class="edge"><title>Node43&#45;&gt;Node3</title>
<path fill="none" stroke="midnightblue" d="M1272.87,-280.368C1283.05,-262.296 1306.79,-220.176 1320.24,-196.307"/>
<polygon fill="midnightblue" stroke="midnightblue" points="1323.3,-198.022 1325.16,-187.591 1317.2,-194.584 1323.3,-198.022"/>
</g>
<!-- Node43&#45;&gt;Node39 -->
<g id="edge60" class="edge"><title>Node43&#45;&gt;Node39</title>
<path fill="none" stroke="midnightblue" d="M1320.93,-288.605C1618.41,-286.047 3069,-268.963 3069,-179 3069,-179 3069,-179 3069,-121 3069,-63.7744 3001.77,-35.3759 2949.72,-21.9642"/>
<polygon fill="midnightblue" stroke="midnightblue" points="2950.41,-18.5303 2939.86,-19.5541 2948.74,-25.3298 2950.41,-18.5303"/>
</g>
<!-- Node43&#45;&gt;Node40 -->
<g id="edge61" class="edge"><title>Node43&#45;&gt;Node40</title>
<path fill="none" stroke="midnightblue" d="M1215.13,-287.23C975.151,-278.855 0,-241.008 0,-179 0,-179 0,-179 0,-121 0,-87.0792 10.5388,-72.8124 40,-56 94.5994,-24.8421 2098.37,-13.222 2478.2,-11.2971"/>
<polygon fill="midnightblue" stroke="midnightblue" points="2478.46,-14.7959 2488.44,-11.2455 2478.42,-7.796 2478.46,-14.7959"/>
</g>
<!-- Node44 -->
<g id="node44" class="node"><title>Node44</title>
<g id="a_node44"><a xlink:href="_ogre_pixel_format_8h.html" target="_top" xlink:title="OgrePixelFormat.h">
<polygon fill="none" stroke="black" points="1185,-224.5 1185,-243.5 1283,-243.5 1283,-224.5 1185,-224.5"/>
<text text-anchor="middle" x="1234" y="-231.5" font-family="Helvetica,sans-Serif" font-size="10.00">OgrePixelFormat.h</text>
</a>
</g>
</g>
<!-- Node43&#45;&gt;Node44 -->
<g id="edge53" class="edge"><title>Node43&#45;&gt;Node44</title>
<path fill="none" stroke="midnightblue" d="M1262.39,-280.083C1257.63,-272.534 1250.68,-261.495 1244.85,-252.23"/>
<polygon fill="midnightblue" stroke="midnightblue" points="1247.8,-250.349 1239.51,-243.751 1241.88,-254.078 1247.8,-250.349"/>
</g>
<!-- Node44&#45;&gt;Node3 -->
<g id="edge54" class="edge"><title>Node44&#45;&gt;Node3</title>
<path fill="none" stroke="midnightblue" d="M1249.42,-224.324C1264.54,-215.822 1287.82,-202.729 1305.47,-192.797"/>
<polygon fill="midnightblue" stroke="midnightblue" points="1307.61,-195.608 1314.61,-187.655 1304.18,-189.507 1307.61,-195.608"/>
</g>
<!-- Node44&#45;&gt;Node39 -->
<g id="edge58" class="edge"><title>Node44&#45;&gt;Node39</title>
<path fill="none" stroke="midnightblue" d="M1283.17,-232.82C1556.94,-231.279 2884.73,-216.564 2990,-76 3008.58,-51.1856 2971.23,-33.1634 2937,-22.4764"/>
<polygon fill="midnightblue" stroke="midnightblue" points="2937.6,-19.003 2927.02,-19.5265 2935.62,-25.7162 2937.6,-19.003"/>
</g>
<!-- Node44&#45;&gt;Node40 -->
<g id="edge59" class="edge"><title>Node44&#45;&gt;Node40</title>
<path fill="none" stroke="midnightblue" d="M1184.99,-233.142C942.892,-233.06 -107.15,-223.152 57,-56 100.736,-11.4641 2098.32,-10.681 2478.03,-10.9351"/>
<polygon fill="midnightblue" stroke="midnightblue" points="2478.27,-14.4352 2488.27,-10.9425 2478.28,-7.43517 2478.27,-14.4352"/>
</g>
<!-- Node45 -->
<g id="node45" class="node"><title>Node45</title>
<g id="a_node45"><a xlink:href="_ogre_common_8h.html" target="_top" xlink:title="OgreCommon.h">
<polygon fill="none" stroke="black" points="66,-56.5 66,-75.5 152,-75.5 152,-56.5 66,-56.5"/>
<text text-anchor="middle" x="109" y="-63.5" font-family="Helvetica,sans-Serif" font-size="10.00">OgreCommon.h</text>
</a>
</g>
</g>
<!-- Node44&#45;&gt;Node45 -->
<g id="edge55" class="edge"><title>Node44&#45;&gt;Node45</title>
<path fill="none" stroke="midnightblue" d="M1184.73,-228.983C1054.37,-217.947 689.815,-184.457 390,-132 304.276,-117.001 205.433,-92.409 150.795,-78.1622"/>
<polygon fill="midnightblue" stroke="midnightblue" points="151.358,-74.6916 140.798,-75.5419 149.583,-81.4629 151.358,-74.6916"/>
</g>
<!-- Node45&#45;&gt;Node39 -->
<g id="edge56" class="edge"><title>Node45&#45;&gt;Node39</title>
<path fill="none" stroke="midnightblue" d="M152.061,-57.0125C155.079,-56.6174 158.081,-56.2725 161,-56 700.713,-5.62385 2058.08,-32.4076 2600,-20 2678.74,-18.1972 2769.48,-15.2391 2828.19,-13.2095"/>
<polygon fill="midnightblue" stroke="midnightblue" points="2828.53,-16.6997 2838.41,-12.8544 2828.29,-9.70392 2828.53,-16.6997"/>
</g>
<!-- Node45&#45;&gt;Node40 -->
<g id="edge57" class="edge"><title>Node45&#45;&gt;Node40</title>
<path fill="none" stroke="midnightblue" d="M152.062,-57.0265C155.08,-56.6281 158.081,-56.2785 161,-56 630.101,-11.2316 2152.57,-10.5177 2478.3,-10.8923"/>
<polygon fill="midnightblue" stroke="midnightblue" points="2478.49,-14.3924 2488.49,-10.9049 2478.49,-7.39245 2478.49,-14.3924"/>
</g>
</g>
</svg>
