<?xml version="1.0" encoding="UTF-8" standalone="no"?>
<!DOCTYPE svg PUBLIC "-//W3C//DTD SVG 1.1//EN"
 "http://www.w3.org/Graphics/SVG/1.1/DTD/svg11.dtd">
<!-- Generated by graphviz version 2.38.0 (20140413.2041)
 -->
<!-- Title: OgreShaderFFPTexturing.h Pages: 1 -->
<svg width="3180pt" height="476pt"
 viewBox="0.00 0.00 3180.00 476.00" xmlns="http://www.w3.org/2000/svg" xmlns:xlink="http://www.w3.org/1999/xlink">
<g id="graph0" class="graph" transform="scale(1 1) rotate(0) translate(4 472)">
<title>OgreShaderFFPTexturing.h</title>
<!-- Node1 -->
<g id="node1" class="node"><title>Node1</title>
<polygon fill="#bfbfbf" stroke="black" points="433,-448.5 433,-467.5 569,-467.5 569,-448.5 433,-448.5"/>
<text text-anchor="middle" x="501" y="-455.5" font-family="Helvetica,sans-Serif" font-size="10.00">OgreShaderFFPTexturing.h</text>
</g>
<!-- Node2 -->
<g id="node2" class="node"><title>Node2</title>
<g id="a_node2"><a xlink:href="_ogre_shader_prerequisites_8h.html" target="_top" xlink:title="OgreShaderPrerequisites.h">
<polygon fill="none" stroke="black" points="397,-280.5 397,-299.5 531,-299.5 531,-280.5 397,-280.5"/>
<text text-anchor="middle" x="464" y="-287.5" font-family="Helvetica,sans-Serif" font-size="10.00">OgreShaderPrerequisites.h</text>
</a>
</g>
</g>
<!-- Node1&#45;&gt;Node2 -->
<g id="edge1" class="edge"><title>Node1&#45;&gt;Node2</title>
<path fill="none" stroke="midnightblue" d="M499.011,-448.075C493.187,-421.945 476.083,-345.211 468.141,-309.577"/>
<polygon fill="midnightblue" stroke="midnightblue" points="471.502,-308.567 465.91,-299.568 464.669,-310.09 471.502,-308.567"/>
</g>
<!-- Node44 -->
<g id="node44" class="node"><title>Node44</title>
<g id="a_node44"><a xlink:href="_ogre_shader_sub_render_state_8h.html" target="_top" xlink:title="OgreShaderSubRenderState.h">
<polygon fill="none" stroke="black" points="324.5,-392.5 324.5,-411.5 473.5,-411.5 473.5,-392.5 324.5,-392.5"/>
<text text-anchor="middle" x="399" y="-399.5" font-family="Helvetica,sans-Serif" font-size="10.00">OgreShaderSubRenderState.h</text>
</a>
</g>
</g>
<!-- Node1&#45;&gt;Node44 -->
<g id="edge54" class="edge"><title>Node1&#45;&gt;Node44</title>
<path fill="none" stroke="midnightblue" d="M484.612,-448.324C468.329,-439.703 443.133,-426.364 424.284,-416.386"/>
<polygon fill="midnightblue" stroke="midnightblue" points="425.823,-413.24 415.347,-411.655 422.548,-419.427 425.823,-413.24"/>
</g>
<!-- Node48 -->
<g id="node48" class="node"><title>Node48</title>
<g id="a_node48"><a xlink:href="_ogre_render_system_8h.html" target="_top" xlink:title="OgreRenderSystem.h">
<polygon fill="none" stroke="red" points="492.5,-224.5 492.5,-243.5 603.5,-243.5 603.5,-224.5 492.5,-224.5"/>
<text text-anchor="middle" x="548" y="-231.5" font-family="Helvetica,sans-Serif" font-size="10.00">OgreRenderSystem.h</text>
</a>
</g>
</g>
<!-- Node1&#45;&gt;Node48 -->
<g id="edge71" class="edge"><title>Node1&#45;&gt;Node48</title>
<path fill="none" stroke="midnightblue" d="M503.577,-448.229C510.451,-424.534 529.422,-357.166 540,-300 542.848,-284.608 544.947,-266.973 546.278,-253.958"/>
<polygon fill="midnightblue" stroke="midnightblue" points="549.773,-254.173 547.25,-243.883 542.806,-253.501 549.773,-254.173"/>
</g>
<!-- Node3 -->
<g id="node3" class="node"><title>Node3</title>
<g id="a_node3"><a xlink:href="_ogre_prerequisites_8h.html" target="_top" xlink:title="OgrePrerequisites.h">
<polygon fill="none" stroke="black" points="618.5,-168.5 618.5,-187.5 721.5,-187.5 721.5,-168.5 618.5,-168.5"/>
<text text-anchor="middle" x="670" y="-175.5" font-family="Helvetica,sans-Serif" font-size="10.00">OgrePrerequisites.h</text>
</a>
</g>
</g>
<!-- Node2&#45;&gt;Node3 -->
<g id="edge2" class="edge"><title>Node2&#45;&gt;Node3</title>
<path fill="none" stroke="midnightblue" d="M531.268,-287.382C569.091,-283.113 614.826,-271.884 646,-244 659.289,-232.113 665.235,-212.202 667.887,-197.542"/>
<polygon fill="midnightblue" stroke="midnightblue" points="671.36,-197.976 669.339,-187.576 664.433,-196.967 671.36,-197.976"/>
</g>
<!-- Node43 -->
<g id="node43" class="node"><title>Node43</title>
<g id="a_node43"><a xlink:href="_ogre_common_8h.html" target="_top" xlink:title="OgreCommon.h">
<polygon fill="none" stroke="black" points="428,-168.5 428,-187.5 514,-187.5 514,-168.5 428,-168.5"/>
<text text-anchor="middle" x="471" y="-175.5" font-family="Helvetica,sans-Serif" font-size="10.00">OgreCommon.h</text>
</a>
</g>
</g>
<!-- Node2&#45;&gt;Node43 -->
<g id="edge51" class="edge"><title>Node2&#45;&gt;Node43</title>
<path fill="none" stroke="midnightblue" d="M464.549,-280.368C465.679,-262.617 468.285,-221.666 469.817,-197.597"/>
<polygon fill="midnightblue" stroke="midnightblue" points="473.311,-197.794 470.453,-187.591 466.325,-197.349 473.311,-197.794"/>
</g>
<!-- Node4 -->
<g id="node4" class="node"><title>Node4</title>
<g id="a_node4"><a xlink:href="_ogre_platform_8h.html" target="_top" xlink:title="OgrePlatform.h">
<polygon fill="none" stroke="black" points="817.5,-112.5 817.5,-131.5 900.5,-131.5 900.5,-112.5 817.5,-112.5"/>
<text text-anchor="middle" x="859" y="-119.5" font-family="Helvetica,sans-Serif" font-size="10.00">OgrePlatform.h</text>
</a>
</g>
</g>
<!-- Node3&#45;&gt;Node4 -->
<g id="edge3" class="edge"><title>Node3&#45;&gt;Node4</title>
<path fill="none" stroke="midnightblue" d="M699.948,-168.444C732.158,-159.241 783.534,-144.562 819.142,-134.388"/>
<polygon fill="midnightblue" stroke="midnightblue" points="820.539,-137.629 829.192,-131.516 818.616,-130.898 820.539,-137.629"/>
</g>
<!-- Node6 -->
<g id="node6" class="node"><title>Node6</title>
<polygon fill="none" stroke="#bfbfbf" points="3064.5,-56.5 3064.5,-75.5 3105.5,-75.5 3105.5,-56.5 3064.5,-56.5"/>
<text text-anchor="middle" x="3085" y="-63.5" font-family="Helvetica,sans-Serif" font-size="10.00">string</text>
</g>
<!-- Node3&#45;&gt;Node6 -->
<g id="edge5" class="edge"><title>Node3&#45;&gt;Node6</title>
<path fill="none" stroke="midnightblue" d="M721.769,-176.6C1023.92,-173.998 2562.74,-156.995 3054.18,-75.6432"/>
<polygon fill="midnightblue" stroke="midnightblue" points="3054.9,-79.0711 3064.17,-73.9542 3053.73,-72.1689 3054.9,-79.0711"/>
</g>
<!-- Node7 -->
<g id="node7" class="node"><title>Node7</title>
<g id="a_node7"><a xlink:href="_ogre_std_headers_8h.html" target="_top" xlink:title="OgreStdHeaders.h">
<polygon fill="none" stroke="black" points="1786,-112.5 1786,-131.5 1884,-131.5 1884,-112.5 1786,-112.5"/>
<text text-anchor="middle" x="1835" y="-119.5" font-family="Helvetica,sans-Serif" font-size="10.00">OgreStdHeaders.h</text>
</a>
</g>
</g>
<!-- Node3&#45;&gt;Node7 -->
<g id="edge6" class="edge"><title>Node3&#45;&gt;Node7</title>
<path fill="none" stroke="midnightblue" d="M721.562,-174.61C911.791,-165.793 1573.65,-135.114 1775.86,-125.741"/>
<polygon fill="midnightblue" stroke="midnightblue" points="1776.16,-129.231 1785.99,-125.272 1775.84,-122.239 1776.16,-129.231"/>
</g>
<!-- Node37 -->
<g id="node37" class="node"><title>Node37</title>
<g id="a_node37"><a xlink:href="_ogre_memory_allocator_config_8h.html" target="_top" xlink:title="This file configures Ogre&#39;s memory allocators. ">
<polygon fill="none" stroke="black" points="440,-112.5 440,-131.5 588,-131.5 588,-112.5 440,-112.5"/>
<text text-anchor="middle" x="514" y="-119.5" font-family="Helvetica,sans-Serif" font-size="10.00">OgreMemoryAllocatorConfig.h</text>
</a>
</g>
</g>
<!-- Node3&#45;&gt;Node37 -->
<g id="edge37" class="edge"><title>Node3&#45;&gt;Node37</title>
<path fill="none" stroke="midnightblue" d="M645.281,-168.444C619.152,-159.399 577.741,-145.064 548.424,-134.916"/>
<polygon fill="midnightblue" stroke="midnightblue" points="549.198,-131.48 538.603,-131.516 546.908,-138.095 549.198,-131.48"/>
</g>
<!-- Node5 -->
<g id="node5" class="node"><title>Node5</title>
<g id="a_node5"><a xlink:href="_ogre_config_8h.html" target="_top" xlink:title="OgreConfig.h">
<polygon fill="none" stroke="red" points="822,-56.5 822,-75.5 896,-75.5 896,-56.5 822,-56.5"/>
<text text-anchor="middle" x="859" y="-63.5" font-family="Helvetica,sans-Serif" font-size="10.00">OgreConfig.h</text>
</a>
</g>
</g>
<!-- Node4&#45;&gt;Node5 -->
<g id="edge4" class="edge"><title>Node4&#45;&gt;Node5</title>
<path fill="none" stroke="midnightblue" d="M859,-112.083C859,-105.006 859,-94.8611 859,-85.9865"/>
<polygon fill="midnightblue" stroke="midnightblue" points="862.5,-85.751 859,-75.7511 855.5,-85.7511 862.5,-85.751"/>
</g>
<!-- Node7&#45;&gt;Node6 -->
<g id="edge16" class="edge"><title>Node7&#45;&gt;Node6</title>
<path fill="none" stroke="midnightblue" d="M1884.22,-120.853C2079.9,-120.014 2803.78,-114.431 3054.05,-75.6184"/>
<polygon fill="midnightblue" stroke="midnightblue" points="3054.86,-79.0321 3064.18,-73.9852 3053.75,-72.1213 3054.86,-79.0321"/>
</g>
<!-- Node8 -->
<g id="node8" class="node"><title>Node8</title>
<polygon fill="none" stroke="#bfbfbf" points="2619.5,-56.5 2619.5,-75.5 2668.5,-75.5 2668.5,-56.5 2619.5,-56.5"/>
<text text-anchor="middle" x="2644" y="-63.5" font-family="Helvetica,sans-Serif" font-size="10.00">cassert</text>
</g>
<!-- Node7&#45;&gt;Node8 -->
<g id="edge7" class="edge"><title>Node7&#45;&gt;Node8</title>
<path fill="none" stroke="midnightblue" d="M1884.42,-121.683C2006.35,-122.612 2331.25,-120.48 2608.98,-76.0108"/>
<polygon fill="midnightblue" stroke="midnightblue" points="2609.95,-79.4002 2619.26,-74.3427 2608.82,-72.4906 2609.95,-79.4002"/>
</g>
<!-- Node9 -->
<g id="node9" class="node"><title>Node9</title>
<polygon fill="none" stroke="#bfbfbf" points="2686.5,-56.5 2686.5,-75.5 2729.5,-75.5 2729.5,-56.5 2686.5,-56.5"/>
<text text-anchor="middle" x="2708" y="-63.5" font-family="Helvetica,sans-Serif" font-size="10.00">cstdio</text>
</g>
<!-- Node7&#45;&gt;Node9 -->
<g id="edge8" class="edge"><title>Node7&#45;&gt;Node9</title>
<path fill="none" stroke="midnightblue" d="M1884.24,-119.91C2037.44,-116.282 2505.11,-103.357 2676.32,-75.8589"/>
<polygon fill="midnightblue" stroke="midnightblue" points="2676.91,-79.3084 2686.19,-74.1981 2675.75,-72.4053 2676.91,-79.3084"/>
</g>
<!-- Node10 -->
<g id="node10" class="node"><title>Node10</title>
<polygon fill="none" stroke="#bfbfbf" points="2747.5,-56.5 2747.5,-75.5 2792.5,-75.5 2792.5,-56.5 2747.5,-56.5"/>
<text text-anchor="middle" x="2770" y="-63.5" font-family="Helvetica,sans-Serif" font-size="10.00">cstdlib</text>
</g>
<!-- Node7&#45;&gt;Node10 -->
<g id="edge9" class="edge"><title>Node7&#45;&gt;Node10</title>
<path fill="none" stroke="midnightblue" d="M1884.03,-120.063C2044.37,-116.766 2552.95,-104.423 2737.35,-75.8424"/>
<polygon fill="midnightblue" stroke="midnightblue" points="2738.14,-79.2593 2747.45,-74.2039 2737.02,-72.3495 2738.14,-79.2593"/>
</g>
<!-- Node11 -->
<g id="node11" class="node"><title>Node11</title>
<polygon fill="none" stroke="#bfbfbf" points="2810.5,-56.5 2810.5,-75.5 2851.5,-75.5 2851.5,-56.5 2810.5,-56.5"/>
<text text-anchor="middle" x="2831" y="-63.5" font-family="Helvetica,sans-Serif" font-size="10.00">ctime</text>
</g>
<!-- Node7&#45;&gt;Node11 -->
<g id="edge10" class="edge"><title>Node7&#45;&gt;Node11</title>
<path fill="none" stroke="midnightblue" d="M1884.16,-120.362C2052.17,-117.93 2603.52,-107.799 2800.31,-75.8221"/>
<polygon fill="midnightblue" stroke="midnightblue" points="2800.97,-79.2591 2810.25,-74.1343 2799.8,-72.3579 2800.97,-79.2591"/>
</g>
<!-- Node12 -->
<g id="node12" class="node"><title>Node12</title>
<polygon fill="none" stroke="#bfbfbf" points="2870,-56.5 2870,-75.5 2916,-75.5 2916,-56.5 2870,-56.5"/>
<text text-anchor="middle" x="2893" y="-63.5" font-family="Helvetica,sans-Serif" font-size="10.00">cstring</text>
</g>
<!-- Node7&#45;&gt;Node12 -->
<g id="edge11" class="edge"><title>Node7&#45;&gt;Node12</title>
<path fill="none" stroke="midnightblue" d="M1884.03,-120.345C2058.56,-117.784 2649.85,-107.088 2859.72,-75.7719"/>
<polygon fill="midnightblue" stroke="midnightblue" points="2860.38,-79.2118 2869.72,-74.2166 2859.3,-72.2949 2860.38,-79.2118"/>
</g>
<!-- Node13 -->
<g id="node13" class="node"><title>Node13</title>
<polygon fill="none" stroke="#bfbfbf" points="2934.5,-56.5 2934.5,-75.5 2983.5,-75.5 2983.5,-56.5 2934.5,-56.5"/>
<text text-anchor="middle" x="2959" y="-63.5" font-family="Helvetica,sans-Serif" font-size="10.00">cstdarg</text>
</g>
<!-- Node7&#45;&gt;Node13 -->
<g id="edge12" class="edge"><title>Node7&#45;&gt;Node13</title>
<path fill="none" stroke="midnightblue" d="M1884.19,-120.39C2065.98,-117.917 2700.45,-107.306 2924.22,-75.6904"/>
<polygon fill="midnightblue" stroke="midnightblue" points="2924.86,-79.1342 2934.25,-74.2178 2923.85,-72.2086 2924.86,-79.1342"/>
</g>
<!-- Node14 -->
<g id="node14" class="node"><title>Node14</title>
<polygon fill="none" stroke="#bfbfbf" points="3002,-56.5 3002,-75.5 3046,-75.5 3046,-56.5 3002,-56.5"/>
<text text-anchor="middle" x="3024" y="-63.5" font-family="Helvetica,sans-Serif" font-size="10.00">cmath</text>
</g>
<!-- Node7&#45;&gt;Node14 -->
<g id="edge13" class="edge"><title>Node7&#45;&gt;Node14</title>
<path fill="none" stroke="midnightblue" d="M1884.3,-120.681C2073.63,-119.214 2754.87,-111.631 2991.86,-75.7138"/>
<polygon fill="midnightblue" stroke="midnightblue" points="2992.46,-79.1624 3001.8,-74.1486 2991.37,-72.2477 2992.46,-79.1624"/>
</g>
<!-- Node15 -->
<g id="node15" class="node"><title>Node15</title>
<polygon fill="none" stroke="#bfbfbf" points="914,-56.5 914,-75.5 958,-75.5 958,-56.5 914,-56.5"/>
<text text-anchor="middle" x="936" y="-63.5" font-family="Helvetica,sans-Serif" font-size="10.00">vector</text>
</g>
<!-- Node7&#45;&gt;Node15 -->
<g id="edge14" class="edge"><title>Node7&#45;&gt;Node15</title>
<path fill="none" stroke="midnightblue" d="M1785.99,-119.946C1629.99,-116.362 1145.34,-103.405 968.174,-75.7408"/>
<polygon fill="midnightblue" stroke="midnightblue" points="968.642,-72.271 958.208,-74.1131 967.513,-79.1794 968.642,-72.271"/>
</g>
<!-- Node16 -->
<g id="node16" class="node"><title>Node16</title>
<polygon fill="none" stroke="#bfbfbf" points="976.5,-56.5 976.5,-75.5 1011.5,-75.5 1011.5,-56.5 976.5,-56.5"/>
<text text-anchor="middle" x="994" y="-63.5" font-family="Helvetica,sans-Serif" font-size="10.00">map</text>
</g>
<!-- Node7&#45;&gt;Node16 -->
<g id="edge15" class="edge"><title>Node7&#45;&gt;Node16</title>
<path fill="none" stroke="midnightblue" d="M1785.81,-119.996C1636.29,-116.681 1187.8,-104.716 1021.6,-75.4546"/>
<polygon fill="midnightblue" stroke="midnightblue" points="1022.01,-71.9706 1011.54,-73.5939 1020.74,-78.8539 1022.01,-71.9706"/>
</g>
<!-- Node17 -->
<g id="node17" class="node"><title>Node17</title>
<polygon fill="none" stroke="#bfbfbf" points="1030,-56.5 1030,-75.5 1060,-75.5 1060,-56.5 1030,-56.5"/>
<text text-anchor="middle" x="1045" y="-63.5" font-family="Helvetica,sans-Serif" font-size="10.00">set</text>
</g>
<!-- Node7&#45;&gt;Node17 -->
<g id="edge17" class="edge"><title>Node7&#45;&gt;Node17</title>
<path fill="none" stroke="midnightblue" d="M1785.92,-119.948C1639.56,-116.521 1207.75,-104.232 1070,-76 1069.9,-75.9792 1069.8,-75.958 1069.69,-75.9365"/>
<polygon fill="midnightblue" stroke="midnightblue" points="1070.71,-72.5872 1060.14,-73.2312 1068.81,-79.3225 1070.71,-72.5872"/>
</g>
<!-- Node18 -->
<g id="node18" class="node"><title>Node18</title>
<polygon fill="none" stroke="#bfbfbf" points="1078.5,-56.5 1078.5,-75.5 1107.5,-75.5 1107.5,-56.5 1078.5,-56.5"/>
<text text-anchor="middle" x="1093" y="-63.5" font-family="Helvetica,sans-Serif" font-size="10.00">list</text>
</g>
<!-- Node7&#45;&gt;Node18 -->
<g id="edge18" class="edge"><title>Node7&#45;&gt;Node18</title>
<path fill="none" stroke="midnightblue" d="M1785.96,-119.813C1649.05,-116.208 1263.8,-104 1117.62,-75.3198"/>
<polygon fill="midnightblue" stroke="midnightblue" points="1118.02,-71.8278 1107.52,-73.2263 1116.6,-78.6823 1118.02,-71.8278"/>
</g>
<!-- Node19 -->
<g id="node19" class="node"><title>Node19</title>
<polygon fill="none" stroke="#bfbfbf" points="1125.5,-56.5 1125.5,-75.5 1168.5,-75.5 1168.5,-56.5 1125.5,-56.5"/>
<text text-anchor="middle" x="1147" y="-63.5" font-family="Helvetica,sans-Serif" font-size="10.00">deque</text>
</g>
<!-- Node7&#45;&gt;Node19 -->
<g id="edge19" class="edge"><title>Node7&#45;&gt;Node19</title>
<path fill="none" stroke="midnightblue" d="M1785.94,-121.21C1677.69,-120.909 1410.3,-115.961 1178.51,-75.6522"/>
<polygon fill="midnightblue" stroke="midnightblue" points="1179,-72.1847 1168.54,-73.8933 1177.78,-79.0782 1179,-72.1847"/>
</g>
<!-- Node20 -->
<g id="node20" class="node"><title>Node20</title>
<polygon fill="none" stroke="#bfbfbf" points="1186.5,-56.5 1186.5,-75.5 1229.5,-75.5 1229.5,-56.5 1186.5,-56.5"/>
<text text-anchor="middle" x="1208" y="-63.5" font-family="Helvetica,sans-Serif" font-size="10.00">queue</text>
</g>
<!-- Node7&#45;&gt;Node20 -->
<g id="edge20" class="edge"><title>Node7&#45;&gt;Node20</title>
<path fill="none" stroke="midnightblue" d="M1785.89,-120.719C1685.02,-119.405 1447.23,-112.515 1239.42,-75.6517"/>
<polygon fill="midnightblue" stroke="midnightblue" points="1240.01,-72.2017 1229.54,-73.8735 1238.77,-79.0908 1240.01,-72.2017"/>
</g>
<!-- Node21 -->
<g id="node21" class="node"><title>Node21</title>
<polygon fill="none" stroke="#bfbfbf" points="1247.5,-56.5 1247.5,-75.5 1288.5,-75.5 1288.5,-56.5 1247.5,-56.5"/>
<text text-anchor="middle" x="1268" y="-63.5" font-family="Helvetica,sans-Serif" font-size="10.00">bitset</text>
</g>
<!-- Node7&#45;&gt;Node21 -->
<g id="edge21" class="edge"><title>Node7&#45;&gt;Node21</title>
<path fill="none" stroke="midnightblue" d="M1785.67,-120.282C1692.2,-118.183 1482.92,-109.959 1298.4,-75.6358"/>
<polygon fill="midnightblue" stroke="midnightblue" points="1298.99,-72.1865 1288.52,-73.7682 1297.69,-79.0647 1298.99,-72.1865"/>
</g>
<!-- Node22 -->
<g id="node22" class="node"><title>Node22</title>
<polygon fill="none" stroke="#bfbfbf" points="1307,-56.5 1307,-75.5 1363,-75.5 1363,-56.5 1307,-56.5"/>
<text text-anchor="middle" x="1335" y="-63.5" font-family="Helvetica,sans-Serif" font-size="10.00">algorithm</text>
</g>
<!-- Node7&#45;&gt;Node22 -->
<g id="edge22" class="edge"><title>Node7&#45;&gt;Node22</title>
<path fill="none" stroke="midnightblue" d="M1785.82,-118.404C1701.08,-113.442 1522.25,-100.826 1373,-76 1372.9,-75.9833 1372.8,-75.9665 1372.7,-75.9496"/>
<polygon fill="midnightblue" stroke="midnightblue" points="1373.62,-72.562 1363.14,-74.1119 1372.3,-79.4362 1373.62,-72.562"/>
</g>
<!-- Node23 -->
<g id="node23" class="node"><title>Node23</title>
<polygon fill="none" stroke="#bfbfbf" points="1381.5,-56.5 1381.5,-75.5 1440.5,-75.5 1440.5,-56.5 1381.5,-56.5"/>
<text text-anchor="middle" x="1411" y="-63.5" font-family="Helvetica,sans-Serif" font-size="10.00">functional</text>
</g>
<!-- Node7&#45;&gt;Node23 -->
<g id="edge23" class="edge"><title>Node7&#45;&gt;Node23</title>
<path fill="none" stroke="midnightblue" d="M1785.83,-117.005C1714.25,-110.804 1577.04,-97.4675 1450.6,-75.9206"/>
<polygon fill="midnightblue" stroke="midnightblue" points="1451.19,-72.4708 1440.74,-74.2198 1450,-79.3689 1451.19,-72.4708"/>
</g>
<!-- Node24 -->
<g id="node24" class="node"><title>Node24</title>
<polygon fill="none" stroke="#bfbfbf" points="1459,-56.5 1459,-75.5 1499,-75.5 1499,-56.5 1459,-56.5"/>
<text text-anchor="middle" x="1479" y="-63.5" font-family="Helvetica,sans-Serif" font-size="10.00">limits</text>
</g>
<!-- Node7&#45;&gt;Node24 -->
<g id="edge24" class="edge"><title>Node7&#45;&gt;Node24</title>
<path fill="none" stroke="midnightblue" d="M1785.8,-116.77C1723.43,-110.848 1612.54,-98.4534 1509.15,-75.934"/>
<polygon fill="midnightblue" stroke="midnightblue" points="1509.69,-72.4688 1499.17,-73.7229 1508.17,-79.3031 1509.69,-72.4688"/>
</g>
<!-- Node25 -->
<g id="node25" class="node"><title>Node25</title>
<polygon fill="none" stroke="#bfbfbf" points="1517,-56.5 1517,-75.5 1567,-75.5 1567,-56.5 1517,-56.5"/>
<text text-anchor="middle" x="1542" y="-63.5" font-family="Helvetica,sans-Serif" font-size="10.00">fstream</text>
</g>
<!-- Node7&#45;&gt;Node25 -->
<g id="edge25" class="edge"><title>Node7&#45;&gt;Node25</title>
<path fill="none" stroke="midnightblue" d="M1785.8,-113.603C1733.72,-105.498 1649.23,-91.56 1577,-76 1576.9,-75.9785 1576.8,-75.957 1576.7,-75.9353"/>
<polygon fill="midnightblue" stroke="midnightblue" points="1577.71,-72.5767 1567.18,-73.7279 1576.13,-79.3959 1577.71,-72.5767"/>
</g>
<!-- Node26 -->
<g id="node26" class="node"><title>Node26</title>
<polygon fill="none" stroke="#bfbfbf" points="1585.5,-56.5 1585.5,-75.5 1630.5,-75.5 1630.5,-56.5 1585.5,-56.5"/>
<text text-anchor="middle" x="1608" y="-63.5" font-family="Helvetica,sans-Serif" font-size="10.00">iosfwd</text>
</g>
<!-- Node7&#45;&gt;Node26 -->
<g id="edge26" class="edge"><title>Node7&#45;&gt;Node26</title>
<path fill="none" stroke="midnightblue" d="M1795.65,-112.493C1758.25,-104.281 1700.21,-91.207 1640.65,-76.0712"/>
<polygon fill="midnightblue" stroke="midnightblue" points="1641.25,-72.6112 1630.69,-73.5247 1639.51,-79.393 1641.25,-72.6112"/>
</g>
<!-- Node27 -->
<g id="node27" class="node"><title>Node27</title>
<polygon fill="none" stroke="#bfbfbf" points="1649,-56.5 1649,-75.5 1701,-75.5 1701,-56.5 1649,-56.5"/>
<text text-anchor="middle" x="1675" y="-63.5" font-family="Helvetica,sans-Serif" font-size="10.00">sstream</text>
</g>
<!-- Node7&#45;&gt;Node27 -->
<g id="edge27" class="edge"><title>Node7&#45;&gt;Node27</title>
<path fill="none" stroke="midnightblue" d="M1809.65,-112.444C1782.73,-103.359 1740,-88.9388 1709.91,-78.7831"/>
<polygon fill="midnightblue" stroke="midnightblue" points="1710.83,-75.3981 1700.23,-75.5164 1708.59,-82.0305 1710.83,-75.3981"/>
</g>
<!-- Node28 -->
<g id="node28" class="node"><title>Node28</title>
<polygon fill="none" stroke="#bfbfbf" points="1719,-56.5 1719,-75.5 1787,-75.5 1787,-56.5 1719,-56.5"/>
<text text-anchor="middle" x="1753" y="-63.5" font-family="Helvetica,sans-Serif" font-size="10.00">sys/types.h</text>
</g>
<!-- Node7&#45;&gt;Node28 -->
<g id="edge28" class="edge"><title>Node7&#45;&gt;Node28</title>
<path fill="none" stroke="midnightblue" d="M1821.83,-112.324C1809.15,-103.979 1789.77,-91.2122 1774.79,-81.3524"/>
<polygon fill="midnightblue" stroke="midnightblue" points="1776.42,-78.2313 1766.14,-75.6545 1772.57,-84.0776 1776.42,-78.2313"/>
</g>
<!-- Node29 -->
<g id="node29" class="node"><title>Node29</title>
<polygon fill="none" stroke="#bfbfbf" points="1805,-56.5 1805,-75.5 1865,-75.5 1865,-56.5 1805,-56.5"/>
<text text-anchor="middle" x="1835" y="-63.5" font-family="Helvetica,sans-Serif" font-size="10.00">sys/stat.h</text>
</g>
<!-- Node7&#45;&gt;Node29 -->
<g id="edge29" class="edge"><title>Node7&#45;&gt;Node29</title>
<path fill="none" stroke="midnightblue" d="M1835,-112.083C1835,-105.006 1835,-94.8611 1835,-85.9865"/>
<polygon fill="midnightblue" stroke="midnightblue" points="1838.5,-85.751 1835,-75.7511 1831.5,-85.7511 1838.5,-85.751"/>
</g>
<!-- Node30 -->
<g id="node30" class="node"><title>Node30</title>
<polygon fill="none" stroke="#bfbfbf" points="1883.5,-56.5 1883.5,-75.5 1934.5,-75.5 1934.5,-56.5 1883.5,-56.5"/>
<text text-anchor="middle" x="1909" y="-63.5" font-family="Helvetica,sans-Serif" font-size="10.00">unistd.h</text>
</g>
<!-- Node7&#45;&gt;Node30 -->
<g id="edge30" class="edge"><title>Node7&#45;&gt;Node30</title>
<path fill="none" stroke="midnightblue" d="M1846.89,-112.324C1858.15,-104.107 1875.29,-91.6017 1888.71,-81.8069"/>
<polygon fill="midnightblue" stroke="midnightblue" points="1890.88,-84.5559 1896.89,-75.8339 1886.75,-78.9014 1890.88,-84.5559"/>
</g>
<!-- Node31 -->
<g id="node31" class="node"><title>Node31</title>
<polygon fill="none" stroke="#bfbfbf" points="1953,-56.5 1953,-75.5 1999,-75.5 1999,-56.5 1953,-56.5"/>
<text text-anchor="middle" x="1976" y="-63.5" font-family="Helvetica,sans-Serif" font-size="10.00">dlfcn.h</text>
</g>
<!-- Node7&#45;&gt;Node31 -->
<g id="edge31" class="edge"><title>Node7&#45;&gt;Node31</title>
<path fill="none" stroke="midnightblue" d="M1857.34,-112.444C1880.75,-103.478 1917.74,-89.314 1944.19,-79.1827"/>
<polygon fill="midnightblue" stroke="midnightblue" points="1945.68,-82.3615 1953.76,-75.5164 1943.17,-75.8245 1945.68,-82.3615"/>
</g>
<!-- Node32 -->
<g id="node32" class="node"><title>Node32</title>
<polygon fill="none" stroke="#bfbfbf" points="2017,-56.5 2017,-75.5 2095,-75.5 2095,-56.5 2017,-56.5"/>
<text text-anchor="middle" x="2056" y="-63.5" font-family="Helvetica,sans-Serif" font-size="10.00">ext/hash_map</text>
</g>
<!-- Node7&#45;&gt;Node32 -->
<g id="edge32" class="edge"><title>Node7&#45;&gt;Node32</title>
<path fill="none" stroke="midnightblue" d="M1870.02,-112.444C1908.25,-103.102 1969.57,-88.1194 2011.26,-77.9326"/>
<polygon fill="midnightblue" stroke="midnightblue" points="2012.26,-81.2901 2021.15,-75.5164 2010.6,-74.4901 2012.26,-81.2901"/>
</g>
<!-- Node33 -->
<g id="node33" class="node"><title>Node33</title>
<polygon fill="none" stroke="#bfbfbf" points="2113.5,-56.5 2113.5,-75.5 2186.5,-75.5 2186.5,-56.5 2113.5,-56.5"/>
<text text-anchor="middle" x="2150" y="-63.5" font-family="Helvetica,sans-Serif" font-size="10.00">ext/hash_set</text>
</g>
<!-- Node7&#45;&gt;Node33 -->
<g id="edge33" class="edge"><title>Node7&#45;&gt;Node33</title>
<path fill="none" stroke="midnightblue" d="M1884.16,-113.192C1936.03,-104.86 2020.44,-91.0379 2103.27,-76.0911"/>
<polygon fill="midnightblue" stroke="midnightblue" points="2104.14,-79.4897 2113.36,-74.263 2102.9,-72.6018 2104.14,-79.4897"/>
</g>
<!-- Node34 -->
<g id="node34" class="node"><title>Node34</title>
<polygon fill="none" stroke="#bfbfbf" points="2204.5,-56.5 2204.5,-75.5 2275.5,-75.5 2275.5,-56.5 2204.5,-56.5"/>
<text text-anchor="middle" x="2240" y="-63.5" font-family="Helvetica,sans-Serif" font-size="10.00">sys/param.h</text>
</g>
<!-- Node7&#45;&gt;Node34 -->
<g id="edge34" class="edge"><title>Node7&#45;&gt;Node34</title>
<path fill="none" stroke="midnightblue" d="M1884.22,-116.091C1951.9,-109.07 2077.68,-95.0544 2193.89,-76.2522"/>
<polygon fill="midnightblue" stroke="midnightblue" points="2194.72,-79.6631 2204.02,-74.596 2193.59,-72.7547 2194.72,-79.6631"/>
</g>
<!-- Node35 -->
<g id="node35" class="node"><title>Node35</title>
<polygon fill="none" stroke="#bfbfbf" points="2294,-56.5 2294,-75.5 2460,-75.5 2460,-56.5 2294,-56.5"/>
<text text-anchor="middle" x="2377" y="-63.5" font-family="Helvetica,sans-Serif" font-size="10.00">CoreFoundation/CoreFoundation.h</text>
</g>
<!-- Node7&#45;&gt;Node35 -->
<g id="edge35" class="edge"><title>Node7&#45;&gt;Node35</title>
<path fill="none" stroke="midnightblue" d="M1884.05,-116.113C1974.23,-107.128 2167.7,-87.8528 2283.64,-76.3018"/>
<polygon fill="midnightblue" stroke="midnightblue" points="2284.31,-79.7518 2293.92,-75.2776 2283.62,-72.7863 2284.31,-79.7518"/>
</g>
<!-- Node36 -->
<g id="node36" class="node"><title>Node36</title>
<polygon fill="none" stroke="#bfbfbf" points="2478,-56.5 2478,-75.5 2602,-75.5 2602,-56.5 2478,-56.5"/>
<text text-anchor="middle" x="2540" y="-63.5" font-family="Helvetica,sans-Serif" font-size="10.00">emscripten/emscripten.h</text>
</g>
<!-- Node7&#45;&gt;Node36 -->
<g id="edge36" class="edge"><title>Node7&#45;&gt;Node36</title>
<path fill="none" stroke="midnightblue" d="M1884.4,-118.425C1989.65,-112.737 2243.98,-97.9228 2467.73,-76.0759"/>
<polygon fill="midnightblue" stroke="midnightblue" points="2468.07,-79.5586 2477.68,-75.0969 2467.39,-72.5922 2468.07,-79.5586"/>
</g>
<!-- Node38 -->
<g id="node38" class="node"><title>Node38</title>
<g id="a_node38"><a xlink:href="_ogre_memory_allocated_object_8h.html" target="_top" xlink:title="OgreMemoryAllocatedObject.h">
<polygon fill="none" stroke="black" points="578,-56.5 578,-75.5 728,-75.5 728,-56.5 578,-56.5"/>
<text text-anchor="middle" x="653" y="-63.5" font-family="Helvetica,sans-Serif" font-size="10.00">OgreMemoryAllocatedObject.h</text>
</a>
</g>
</g>
<!-- Node37&#45;&gt;Node38 -->
<g id="edge38" class="edge"><title>Node37&#45;&gt;Node38</title>
<path fill="none" stroke="midnightblue" d="M536.025,-112.444C559.104,-103.478 595.562,-89.314 621.641,-79.1827"/>
<polygon fill="midnightblue" stroke="midnightblue" points="623.024,-82.4002 631.078,-75.5164 620.489,-75.8753 623.024,-82.4002"/>
</g>
<!-- Node39 -->
<g id="node39" class="node"><title>Node39</title>
<g id="a_node39"><a xlink:href="_ogre_header_prefix_8h.html" target="_top" xlink:title="OgreHeaderPrefix.h">
<polygon fill="none" stroke="black" points="652.5,-0.5 652.5,-19.5 755.5,-19.5 755.5,-0.5 652.5,-0.5"/>
<text text-anchor="middle" x="704" y="-7.5" font-family="Helvetica,sans-Serif" font-size="10.00">OgreHeaderPrefix.h</text>
</a>
</g>
</g>
<!-- Node37&#45;&gt;Node39 -->
<g id="edge42" class="edge"><title>Node37&#45;&gt;Node39</title>
<path fill="none" stroke="midnightblue" d="M519.26,-112.086C527.918,-98.1566 546.477,-71.2489 569,-56 592.93,-39.7987 623.177,-29.0078 648.972,-22.0656"/>
<polygon fill="midnightblue" stroke="midnightblue" points="650.165,-25.373 658.984,-19.5008 648.428,-18.592 650.165,-25.373"/>
</g>
<!-- Node40 -->
<g id="node40" class="node"><title>Node40</title>
<g id="a_node40"><a xlink:href="_ogre_header_suffix_8h.html" target="_top" xlink:title="OgreHeaderSuffix.h">
<polygon fill="none" stroke="black" points="136.5,-0.5 136.5,-19.5 239.5,-19.5 239.5,-0.5 136.5,-0.5"/>
<text text-anchor="middle" x="188" y="-7.5" font-family="Helvetica,sans-Serif" font-size="10.00">OgreHeaderSuffix.h</text>
</a>
</g>
</g>
<!-- Node37&#45;&gt;Node40 -->
<g id="edge50" class="edge"><title>Node37&#45;&gt;Node40</title>
<path fill="none" stroke="midnightblue" d="M439.725,-116.594C366.203,-110.978 259.869,-99.0907 226,-76 209.835,-64.9791 199.582,-44.6267 193.855,-29.6213"/>
<polygon fill="midnightblue" stroke="midnightblue" points="197.049,-28.1498 190.464,-19.85 190.436,-30.4448 197.049,-28.1498"/>
</g>
<!-- Node41 -->
<g id="node41" class="node"><title>Node41</title>
<g id="a_node41"><a xlink:href="_ogre_memory_s_t_l_allocator_8h.html" target="_top" xlink:title="OgreMemorySTLAllocator.h">
<polygon fill="none" stroke="black" points="235.5,-56.5 235.5,-75.5 372.5,-75.5 372.5,-56.5 235.5,-56.5"/>
<text text-anchor="middle" x="304" y="-63.5" font-family="Helvetica,sans-Serif" font-size="10.00">OgreMemorySTLAllocator.h</text>
</a>
</g>
</g>
<!-- Node37&#45;&gt;Node41 -->
<g id="edge43" class="edge"><title>Node37&#45;&gt;Node41</title>
<path fill="none" stroke="midnightblue" d="M480.725,-112.444C444.552,-103.142 386.623,-88.246 347.019,-78.062"/>
<polygon fill="midnightblue" stroke="midnightblue" points="347.676,-74.6172 337.119,-75.5164 345.933,-81.3966 347.676,-74.6172"/>
</g>
<!-- Node42 -->
<g id="node42" class="node"><title>Node42</title>
<g id="a_node42"><a xlink:href="_ogre_memory_ned_pooling_8h.html" target="_top" xlink:title="OgreMemoryNedPooling.h">
<polygon fill="none" stroke="black" points="390.5,-56.5 390.5,-75.5 521.5,-75.5 521.5,-56.5 390.5,-56.5"/>
<text text-anchor="middle" x="456" y="-63.5" font-family="Helvetica,sans-Serif" font-size="10.00">OgreMemoryNedPooling.h</text>
</a>
</g>
</g>
<!-- Node37&#45;&gt;Node42 -->
<g id="edge47" class="edge"><title>Node37&#45;&gt;Node42</title>
<path fill="none" stroke="midnightblue" d="M504.681,-112.324C496.107,-104.341 483.188,-92.3128 472.812,-82.6529"/>
<polygon fill="midnightblue" stroke="midnightblue" points="475.192,-80.0865 465.488,-75.8339 470.422,-85.2098 475.192,-80.0865"/>
</g>
<!-- Node38&#45;&gt;Node3 -->
<g id="edge39" class="edge"><title>Node38&#45;&gt;Node3</title>
<path fill="none" stroke="midnightblue" d="M654.328,-75.5914C657.066,-93.3079 663.394,-134.254 667.117,-158.348"/>
<polygon fill="midnightblue" stroke="midnightblue" points="663.68,-159.02 668.666,-168.368 670.598,-157.951 663.68,-159.02"/>
</g>
<!-- Node38&#45;&gt;Node39 -->
<g id="edge40" class="edge"><title>Node38&#45;&gt;Node39</title>
<path fill="none" stroke="midnightblue" d="M661.422,-56.083C668.848,-48.2195 679.852,-36.5688 688.812,-27.0813"/>
<polygon fill="midnightblue" stroke="midnightblue" points="691.413,-29.4244 695.735,-19.7511 686.324,-24.618 691.413,-29.4244"/>
</g>
<!-- Node38&#45;&gt;Node40 -->
<g id="edge41" class="edge"><title>Node38&#45;&gt;Node40</title>
<path fill="none" stroke="midnightblue" d="M579.576,-56.4733C488.582,-45.9063 335.136,-28.0868 249.855,-18.1831"/>
<polygon fill="midnightblue" stroke="midnightblue" points="250.138,-14.6926 239.801,-17.0156 249.331,-21.6459 250.138,-14.6926"/>
</g>
<!-- Node41&#45;&gt;Node3 -->
<g id="edge44" class="edge"><title>Node41&#45;&gt;Node3</title>
<path fill="none" stroke="midnightblue" d="M317.516,-75.5776C340.119,-89.5329 387.41,-117.09 431,-132 489.369,-151.966 558.963,-163.799 607.956,-170.28"/>
<polygon fill="midnightblue" stroke="midnightblue" points="607.721,-173.778 618.086,-171.582 608.614,-166.836 607.721,-173.778"/>
</g>
<!-- Node41&#45;&gt;Node39 -->
<g id="edge45" class="edge"><title>Node41&#45;&gt;Node39</title>
<path fill="none" stroke="midnightblue" d="M367.381,-56.4435C442.703,-46.2751 567.545,-29.4214 642.176,-19.3462"/>
<polygon fill="midnightblue" stroke="midnightblue" points="642.921,-22.7775 652.363,-17.971 641.985,-15.8404 642.921,-22.7775"/>
</g>
<!-- Node41&#45;&gt;Node40 -->
<g id="edge46" class="edge"><title>Node41&#45;&gt;Node40</title>
<path fill="none" stroke="midnightblue" d="M285.619,-56.4435C266.784,-47.6751 237.269,-33.9355 215.621,-23.8579"/>
<polygon fill="midnightblue" stroke="midnightblue" points="216.838,-20.5637 206.295,-19.5164 213.883,-26.9098 216.838,-20.5637"/>
</g>
<!-- Node42&#45;&gt;Node39 -->
<g id="edge48" class="edge"><title>Node42&#45;&gt;Node39</title>
<path fill="none" stroke="midnightblue" d="M495.296,-56.4435C538.559,-47.0234 608.173,-31.8656 654.973,-21.6752"/>
<polygon fill="midnightblue" stroke="midnightblue" points="655.861,-25.0639 664.888,-19.5164 654.372,-18.2242 655.861,-25.0639"/>
</g>
<!-- Node42&#45;&gt;Node40 -->
<g id="edge49" class="edge"><title>Node42&#45;&gt;Node40</title>
<path fill="none" stroke="midnightblue" d="M413.535,-56.4435C366.587,-46.9839 290.924,-31.7384 240.346,-21.5472"/>
<polygon fill="midnightblue" stroke="midnightblue" points="240.761,-18.0607 230.267,-19.5164 239.378,-24.9228 240.761,-18.0607"/>
</g>
<!-- Node43&#45;&gt;Node39 -->
<g id="edge52" class="edge"><title>Node43&#45;&gt;Node39</title>
<path fill="none" stroke="midnightblue" d="M514.049,-169.343C590.073,-154.786 742.688,-120.552 770,-76 782.78,-55.1525 757.096,-36.1393 734.13,-24.1359"/>
<polygon fill="midnightblue" stroke="midnightblue" points="735.417,-20.8684 724.9,-19.5873 732.323,-27.1473 735.417,-20.8684"/>
</g>
<!-- Node43&#45;&gt;Node40 -->
<g id="edge53" class="edge"><title>Node43&#45;&gt;Node40</title>
<path fill="none" stroke="midnightblue" d="M427.633,-173.736C379.896,-168.983 301.619,-157.725 239,-132 197.497,-114.95 176.172,-115.56 155,-76 146.197,-59.552 158.473,-40.4948 170.472,-27.2866"/>
<polygon fill="midnightblue" stroke="midnightblue" points="173.217,-29.4862 177.716,-19.8941 168.217,-24.5868 173.217,-29.4862"/>
</g>
<!-- Node44&#45;&gt;Node2 -->
<g id="edge55" class="edge"><title>Node44&#45;&gt;Node2</title>
<path fill="none" stroke="midnightblue" d="M404.1,-392.368C414.78,-374.296 439.668,-332.176 453.773,-308.307"/>
<polygon fill="midnightblue" stroke="midnightblue" points="456.849,-309.981 458.923,-299.591 450.823,-306.42 456.849,-309.981"/>
</g>
<!-- Node45 -->
<g id="node45" class="node"><title>Node45</title>
<g id="a_node45"><a xlink:href="_ogre_shader_script_translator_8h.html" target="_top" xlink:title="OgreShaderScriptTranslator.h">
<polygon fill="none" stroke="black" points="258,-336.5 258,-355.5 404,-355.5 404,-336.5 258,-336.5"/>
<text text-anchor="middle" x="331" y="-343.5" font-family="Helvetica,sans-Serif" font-size="10.00">OgreShaderScriptTranslator.h</text>
</a>
</g>
</g>
<!-- Node44&#45;&gt;Node45 -->
<g id="edge56" class="edge"><title>Node44&#45;&gt;Node45</title>
<path fill="none" stroke="midnightblue" d="M388.075,-392.324C377.825,-384.185 362.279,-371.839 349.999,-362.087"/>
<polygon fill="midnightblue" stroke="midnightblue" points="352.132,-359.312 342.124,-355.834 347.779,-364.794 352.132,-359.312"/>
</g>
<!-- Node45&#45;&gt;Node2 -->
<g id="edge57" class="edge"><title>Node45&#45;&gt;Node2</title>
<path fill="none" stroke="midnightblue" d="M352.074,-336.444C374.06,-327.517 408.734,-313.439 433.664,-303.317"/>
<polygon fill="midnightblue" stroke="midnightblue" points="435.076,-306.521 443.024,-299.516 432.442,-300.035 435.076,-306.521"/>
</g>
<!-- Node46 -->
<g id="node46" class="node"><title>Node46</title>
<g id="a_node46"><a xlink:href="_ogre_script_translator_8h.html" target="_top" xlink:title="OgreScriptTranslator.h">
<polygon fill="none" stroke="black" points="263.5,-280.5 263.5,-299.5 378.5,-299.5 378.5,-280.5 263.5,-280.5"/>
<text text-anchor="middle" x="321" y="-287.5" font-family="Helvetica,sans-Serif" font-size="10.00">OgreScriptTranslator.h</text>
</a>
</g>
</g>
<!-- Node45&#45;&gt;Node46 -->
<g id="edge58" class="edge"><title>Node45&#45;&gt;Node46</title>
<path fill="none" stroke="midnightblue" d="M329.349,-336.083C328.024,-328.927 326.118,-318.635 324.461,-309.691"/>
<polygon fill="midnightblue" stroke="midnightblue" points="327.883,-308.947 322.621,-299.751 321,-310.221 327.883,-308.947"/>
</g>
<!-- Node47 -->
<g id="node47" class="node"><title>Node47</title>
<g id="a_node47"><a xlink:href="_ogre_script_compiler_8h.html" target="_top" xlink:title="OgreScriptCompiler.h">
<polygon fill="none" stroke="red" points="0,-224.5 0,-243.5 110,-243.5 110,-224.5 0,-224.5"/>
<text text-anchor="middle" x="55" y="-231.5" font-family="Helvetica,sans-Serif" font-size="10.00">OgreScriptCompiler.h</text>
</a>
</g>
</g>
<!-- Node45&#45;&gt;Node47 -->
<g id="edge70" class="edge"><title>Node45&#45;&gt;Node47</title>
<path fill="none" stroke="midnightblue" d="M309.343,-336.368C260.671,-316.97 142.491,-269.87 86.0306,-247.367"/>
<polygon fill="midnightblue" stroke="midnightblue" points="87.1419,-244.042 76.5567,-243.591 84.5502,-250.545 87.1419,-244.042"/>
</g>
<!-- Node46&#45;&gt;Node3 -->
<g id="edge59" class="edge"><title>Node46&#45;&gt;Node3</title>
<path fill="none" stroke="midnightblue" d="M378.679,-281.098C460.577,-269.731 601.838,-249.523 612,-244 632.468,-232.876 649.303,-211.606 659.467,-196.428"/>
<polygon fill="midnightblue" stroke="midnightblue" points="662.474,-198.221 664.906,-187.909 656.574,-194.454 662.474,-198.221"/>
</g>
<!-- Node46&#45;&gt;Node39 -->
<g id="edge68" class="edge"><title>Node46&#45;&gt;Node39</title>
<path fill="none" stroke="midnightblue" d="M378.704,-280.886C381.846,-280.558 384.96,-280.259 388,-280 465.106,-273.438 3172,-256.384 3172,-179 3172,-179 3172,-179 3172,-121 3172,-86.8442 3160.75,-72.7723 3131,-56 3077.92,-26.0794 1138.93,-13.4881 765.775,-11.3395"/>
<polygon fill="midnightblue" stroke="midnightblue" points="765.727,-7.83924 755.707,-11.2819 765.687,-14.8391 765.727,-7.83924"/>
</g>
<!-- Node46&#45;&gt;Node40 -->
<g id="edge69" class="edge"><title>Node46&#45;&gt;Node40</title>
<path fill="none" stroke="midnightblue" d="M309.6,-280.472C275.993,-254.465 177.864,-172.046 149,-76 146.442,-67.4872 145.893,-64.3283 149,-56 153.173,-44.8124 161.52,-34.5598 169.424,-26.6759"/>
<polygon fill="midnightblue" stroke="midnightblue" points="172.062,-29.0029 177.01,-19.6346 167.299,-23.8724 172.062,-29.0029"/>
</g>
<!-- Node46&#45;&gt;Node47 -->
<g id="edge60" class="edge"><title>Node46&#45;&gt;Node47</title>
<path fill="none" stroke="midnightblue" d="M278.852,-280.444C232.254,-270.984 157.156,-255.738 106.955,-245.547"/>
<polygon fill="midnightblue" stroke="midnightblue" points="107.448,-242.076 96.9513,-243.516 106.055,-248.936 107.448,-242.076"/>
</g>
<!-- Node46&#45;&gt;Node48 -->
<g id="edge63" class="edge"><title>Node46&#45;&gt;Node48</title>
<path fill="none" stroke="midnightblue" d="M356.969,-280.444C396.319,-271.083 459.487,-256.056 502.314,-245.868"/>
<polygon fill="midnightblue" stroke="midnightblue" points="503.281,-249.236 512.199,-243.516 501.661,-242.426 503.281,-249.236"/>
</g>
<!-- Node47&#45;&gt;Node39 -->
<g id="edge61" class="edge"><title>Node47&#45;&gt;Node39</title>
<path fill="none" stroke="midnightblue" d="M103.985,-224.439C228.331,-202.627 549.715,-145.718 597,-132 613.09,-127.332 727.607,-89.8733 737,-76 747.676,-60.2311 734.401,-40.5435 721.643,-26.9914"/>
<polygon fill="midnightblue" stroke="midnightblue" points="723.944,-24.345 714.375,-19.7972 719.02,-29.3198 723.944,-24.345"/>
</g>
<!-- Node47&#45;&gt;Node40 -->
<g id="edge62" class="edge"><title>Node47&#45;&gt;Node40</title>
<path fill="none" stroke="midnightblue" d="M53.3893,-224.123C48.833,-196.103 38.6581,-108.301 79,-56 91.5687,-39.7053 111.072,-29.2691 130.126,-22.6028"/>
<polygon fill="midnightblue" stroke="midnightblue" points="131.252,-25.9175 139.71,-19.5367 129.119,-19.2503 131.252,-25.9175"/>
</g>
<!-- Node48&#45;&gt;Node3 -->
<g id="edge64" class="edge"><title>Node48&#45;&gt;Node3</title>
<path fill="none" stroke="midnightblue" d="M567.331,-224.444C587.32,-215.596 618.743,-201.687 641.564,-191.586"/>
<polygon fill="midnightblue" stroke="midnightblue" points="643.032,-194.764 650.759,-187.516 640.198,-188.363 643.032,-194.764"/>
</g>
<!-- Node48&#45;&gt;Node39 -->
<g id="edge66" class="edge"><title>Node48&#45;&gt;Node39</title>
<path fill="none" stroke="midnightblue" d="M603.741,-231.78C970.704,-223.483 3027.98,-172.732 3115,-76 3120.94,-69.3915 3121.23,-62.3438 3115,-56 3072.6,-12.8014 1138.06,-10.9294 765.656,-10.9697"/>
<polygon fill="midnightblue" stroke="midnightblue" points="765.607,-7.46957 755.608,-10.9713 765.608,-14.4696 765.607,-7.46957"/>
</g>
<!-- Node48&#45;&gt;Node40 -->
<g id="edge67" class="edge"><title>Node48&#45;&gt;Node40</title>
<path fill="none" stroke="midnightblue" d="M547.187,-224.427C545.395,-210.477 539.818,-182.929 523,-168 474.308,-124.778 443.619,-149.827 381,-132 301.643,-109.408 260.415,-136.21 204,-76 192.463,-63.6872 188.866,-44.4335 187.914,-30.0722"/>
<polygon fill="midnightblue" stroke="midnightblue" points="191.405,-29.7236 187.615,-19.8297 184.408,-29.9273 191.405,-29.7236"/>
</g>
<!-- Node48&#45;&gt;Node43 -->
<g id="edge65" class="edge"><title>Node48&#45;&gt;Node43</title>
<path fill="none" stroke="midnightblue" d="M535.629,-224.324C523.842,-216.058 505.868,-203.453 491.864,-193.632"/>
<polygon fill="midnightblue" stroke="midnightblue" points="493.538,-190.531 483.341,-187.655 489.518,-196.262 493.538,-190.531"/>
</g>
</g>
</svg>
