<?xml version="1.0" encoding="UTF-8" standalone="no"?>
<!DOCTYPE svg PUBLIC "-//W3C//DTD SVG 1.1//EN"
 "http://www.w3.org/Graphics/SVG/1.1/DTD/svg11.dtd">
<!-- Generated by graphviz version 2.38.0 (20140413.2041)
 -->
<!-- Title: OgreD3D9RenderSystem.h Pages: 1 -->
<svg width="273pt" height="84pt"
 viewBox="0.00 0.00 272.50 84.00" xmlns="http://www.w3.org/2000/svg" xmlns:xlink="http://www.w3.org/1999/xlink">
<g id="graph0" class="graph" transform="scale(1 1) rotate(0) translate(4 80)">
<title>OgreD3D9RenderSystem.h</title>
<!-- Node1 -->
<g id="node1" class="node"><title>Node1</title>
<polygon fill="#bfbfbf" stroke="black" points="50.5,-56.5 50.5,-75.5 187.5,-75.5 187.5,-56.5 50.5,-56.5"/>
<text text-anchor="middle" x="119" y="-63.5" font-family="Helvetica,sans-Serif" font-size="10.00">OgreD3D9RenderSystem.h</text>
</g>
<!-- Node2 -->
<g id="node2" class="node"><title>Node2</title>
<g id="a_node2"><a xlink:href="_ogre_d3_d9_plugin_8h.html" target="_top" xlink:title="OgreD3D9Plugin.h">
<polygon fill="none" stroke="black" points="0,-0.5 0,-19.5 98,-19.5 98,-0.5 0,-0.5"/>
<text text-anchor="middle" x="49" y="-7.5" font-family="Helvetica,sans-Serif" font-size="10.00">OgreD3D9Plugin.h</text>
</a>
</g>
</g>
<!-- Node1&#45;&gt;Node2 -->
<g id="edge1" class="edge"><title>Node1&#45;&gt;Node2</title>
<path fill="none" stroke="midnightblue" d="M99.6862,-50.1008C87.0883,-40.3824 71.0719,-28.0269 60.4513,-19.8339"/>
<polygon fill="midnightblue" stroke="midnightblue" points="97.6976,-52.9871 107.753,-56.324 101.973,-47.4446 97.6976,-52.9871"/>
</g>
<!-- Node3 -->
<g id="node3" class="node"><title>Node3</title>
<g id="a_node3"><a xlink:href="_ogre_d3_d9_stereo_driver_a_m_d_8h.html" target="_top" xlink:title="OgreD3D9StereoDriverAMD.h">
<polygon fill="none" stroke="black" points="115.5,-0.5 115.5,-19.5 264.5,-19.5 264.5,-0.5 115.5,-0.5"/>
<text text-anchor="middle" x="190" y="-7.5" font-family="Helvetica,sans-Serif" font-size="10.00">OgreD3D9StereoDriverAMD.h</text>
</a>
</g>
</g>
<!-- Node1&#45;&gt;Node3 -->
<g id="edge2" class="edge"><title>Node1&#45;&gt;Node3</title>
<path fill="none" stroke="midnightblue" d="M138.59,-50.1008C151.368,-40.3824 167.613,-28.0269 178.385,-19.8339"/>
<polygon fill="midnightblue" stroke="midnightblue" points="136.248,-47.4844 130.407,-56.324 140.486,-53.0561 136.248,-47.4844"/>
</g>
</g>
</svg>
