<?xml version="1.0" encoding="UTF-8" standalone="no"?>
<!DOCTYPE svg PUBLIC "-//W3C//DTD SVG 1.1//EN"
 "http://www.w3.org/Graphics/SVG/1.1/DTD/svg11.dtd">
<!-- Generated by graphviz version 2.38.0 (20140413.2041)
 -->
<!-- Title: OgrePass.h Pages: 1 -->
<svg width="768pt" height="319pt"
 viewBox="0.00 0.00 768.00 319.00" xmlns="http://www.w3.org/2000/svg" xmlns:xlink="http://www.w3.org/1999/xlink">
<g id="graph0" class="graph" transform="scale(1 1) rotate(0) translate(4 315)">
<title>OgrePass.h</title>
<!-- Node1 -->
<g id="node1" class="node"><title>Node1</title>
<polygon fill="#bfbfbf" stroke="black" points="278,-291.5 278,-310.5 346,-310.5 346,-291.5 278,-291.5"/>
<text text-anchor="middle" x="312" y="-298.5" font-family="Helvetica,sans-Serif" font-size="10.00">OgrePass.h</text>
</g>
<!-- Node2 -->
<g id="node2" class="node"><title>Node2</title>
<g id="a_node2"><a xlink:href="_ogre_render_queue_sorting_grouping_8h.html" target="_top" xlink:title="OgreRenderQueueSortingGrouping.h">
<polygon fill="none" stroke="black" points="148,-235.5 148,-254.5 324,-254.5 324,-235.5 148,-235.5"/>
<text text-anchor="middle" x="236" y="-242.5" font-family="Helvetica,sans-Serif" font-size="10.00">OgreRenderQueueSortingGrouping.h</text>
</a>
</g>
</g>
<!-- Node1&#45;&gt;Node2 -->
<g id="edge1" class="edge"><title>Node1&#45;&gt;Node2</title>
<path fill="none" stroke="midnightblue" d="M291.424,-285.38C277.688,-275.62 260.075,-263.106 248.433,-254.834"/>
<polygon fill="midnightblue" stroke="midnightblue" points="289.61,-288.385 299.789,-291.324 293.665,-282.679 289.61,-288.385"/>
</g>
<!-- Node6 -->
<g id="node6" class="node"><title>Node6</title>
<g id="a_node6"><a xlink:href="_ogre_8h.html" target="_top" xlink:title="Ogre.h">
<polygon fill="none" stroke="red" points="265,-0.5 265,-19.5 311,-19.5 311,-0.5 265,-0.5"/>
<text text-anchor="middle" x="288" y="-7.5" font-family="Helvetica,sans-Serif" font-size="10.00">Ogre.h</text>
</a>
</g>
</g>
<!-- Node1&#45;&gt;Node6 -->
<g id="edge17" class="edge"><title>Node1&#45;&gt;Node6</title>
<path fill="none" stroke="midnightblue" d="M267.709,-293.841C181.604,-280.62 0,-246.088 0,-190 0,-190 0,-190 0,-132 0,-94.0345 8.49673,-78.6038 39,-56 74.7361,-29.5185 209.737,-16.7748 264.603,-12.6049"/>
<polygon fill="midnightblue" stroke="midnightblue" points="267.308,-297.32 277.718,-295.348 268.351,-290.398 267.308,-297.32"/>
</g>
<!-- Node14 -->
<g id="node14" class="node"><title>Node14</title>
<g id="a_node14"><a xlink:href="_ogre_render_object_listener_8h.html" target="_top" xlink:title="OgreRenderObjectListener.h">
<polygon fill="none" stroke="black" points="497,-179.5 497,-198.5 637,-198.5 637,-179.5 497,-179.5"/>
<text text-anchor="middle" x="567" y="-186.5" font-family="Helvetica,sans-Serif" font-size="10.00">OgreRenderObjectListener.h</text>
</a>
</g>
</g>
<!-- Node1&#45;&gt;Node14 -->
<g id="edge18" class="edge"><title>Node1&#45;&gt;Node14</title>
<path fill="none" stroke="midnightblue" d="M350.167,-288.415C376.373,-280.067 411.751,-268.017 442,-255 483.116,-237.306 529.324,-211.694 552.334,-198.526"/>
<polygon fill="midnightblue" stroke="midnightblue" points="349.089,-285.085 340.602,-291.427 351.192,-291.761 349.089,-285.085"/>
</g>
<!-- Node15 -->
<g id="node15" class="node"><title>Node15</title>
<g id="a_node15"><a xlink:href="_ogre_technique_8h.html" target="_top" xlink:title="OgreTechnique.h">
<polygon fill="none" stroke="black" points="342.5,-235.5 342.5,-254.5 433.5,-254.5 433.5,-235.5 342.5,-235.5"/>
<text text-anchor="middle" x="388" y="-242.5" font-family="Helvetica,sans-Serif" font-size="10.00">OgreTechnique.h</text>
</a>
</g>
</g>
<!-- Node1&#45;&gt;Node15 -->
<g id="edge21" class="edge"><title>Node1&#45;&gt;Node15</title>
<path fill="none" stroke="midnightblue" d="M332.576,-285.38C346.312,-275.62 363.925,-263.106 375.567,-254.834"/>
<polygon fill="midnightblue" stroke="midnightblue" points="330.335,-282.679 324.211,-291.324 334.39,-288.385 330.335,-282.679"/>
</g>
<!-- Node3 -->
<g id="node3" class="node"><title>Node3</title>
<g id="a_node3"><a xlink:href="_ogre_scene_manager_8h.html" target="_top" xlink:title="OgreSceneManager.h">
<polygon fill="none" stroke="black" points="197.5,-179.5 197.5,-198.5 308.5,-198.5 308.5,-179.5 197.5,-179.5"/>
<text text-anchor="middle" x="253" y="-186.5" font-family="Helvetica,sans-Serif" font-size="10.00">OgreSceneManager.h</text>
</a>
</g>
</g>
<!-- Node2&#45;&gt;Node3 -->
<g id="edge2" class="edge"><title>Node2&#45;&gt;Node3</title>
<path fill="none" stroke="midnightblue" d="M241.857,-225.396C244.701,-216.362 247.983,-205.936 250.245,-198.751"/>
<polygon fill="midnightblue" stroke="midnightblue" points="238.472,-224.493 238.807,-235.083 245.149,-226.596 238.472,-224.493"/>
</g>
<!-- Node13 -->
<g id="node13" class="node"><title>Node13</title>
<g id="a_node13"><a xlink:href="_ogre_render_queue_invocation_8h.html" target="_top" xlink:title="OgreRenderQueueInvocation.h">
<polygon fill="none" stroke="black" points="28.5,-179.5 28.5,-198.5 179.5,-198.5 179.5,-179.5 28.5,-179.5"/>
<text text-anchor="middle" x="104" y="-186.5" font-family="Helvetica,sans-Serif" font-size="10.00">OgreRenderQueueInvocation.h</text>
</a>
</g>
</g>
<!-- Node2&#45;&gt;Node13 -->
<g id="edge15" class="edge"><title>Node2&#45;&gt;Node13</title>
<path fill="none" stroke="midnightblue" d="M205.781,-231.638C181.01,-221.504 146.6,-207.427 124.818,-198.516"/>
<polygon fill="midnightblue" stroke="midnightblue" points="204.503,-234.897 215.084,-235.444 207.154,-228.418 204.503,-234.897"/>
</g>
<!-- Node4 -->
<g id="node4" class="node"><title>Node4</title>
<g id="a_node4"><a xlink:href="_ogre_scene_manager_enumerator_8h.html" target="_top" xlink:title="OgreSceneManagerEnumerator.h">
<polygon fill="none" stroke="black" points="160.5,-123.5 160.5,-142.5 321.5,-142.5 321.5,-123.5 160.5,-123.5"/>
<text text-anchor="middle" x="241" y="-130.5" font-family="Helvetica,sans-Serif" font-size="10.00">OgreSceneManagerEnumerator.h</text>
</a>
</g>
</g>
<!-- Node3&#45;&gt;Node4 -->
<g id="edge3" class="edge"><title>Node3&#45;&gt;Node4</title>
<path fill="none" stroke="midnightblue" d="M248.8,-169.101C246.808,-160.136 244.524,-149.858 242.945,-142.751"/>
<polygon fill="midnightblue" stroke="midnightblue" points="245.432,-170.08 251.018,-179.083 252.266,-168.562 245.432,-170.08"/>
</g>
<!-- Node3&#45;&gt;Node6 -->
<g id="edge7" class="edge"><title>Node3&#45;&gt;Node6</title>
<path fill="none" stroke="midnightblue" d="M290.57,-175.542C305.609,-168.496 321.385,-158.014 330,-143 349.245,-109.463 344.179,-91.973 330,-56 324.043,-40.8879 310.354,-27.8572 300.214,-19.7638"/>
<polygon fill="midnightblue" stroke="midnightblue" points="289.178,-172.331 281.372,-179.495 291.942,-178.762 289.178,-172.331"/>
</g>
<!-- Node7 -->
<g id="node7" class="node"><title>Node7</title>
<g id="a_node7"><a xlink:href="_ogre_shader_generator_8h.html" target="_top" xlink:title="OgreShaderGenerator.h">
<polygon fill="none" stroke="black" points="507.5,-123.5 507.5,-142.5 626.5,-142.5 626.5,-123.5 507.5,-123.5"/>
<text text-anchor="middle" x="567" y="-130.5" font-family="Helvetica,sans-Serif" font-size="10.00">OgreShaderGenerator.h</text>
</a>
</g>
</g>
<!-- Node3&#45;&gt;Node7 -->
<g id="edge8" class="edge"><title>Node3&#45;&gt;Node7</title>
<path fill="none" stroke="midnightblue" d="M312.733,-177.727C372.07,-167.523 461.994,-152.058 517.479,-142.516"/>
<polygon fill="midnightblue" stroke="midnightblue" points="312.016,-174.299 302.754,-179.444 313.203,-181.198 312.016,-174.299"/>
</g>
<!-- Node11 -->
<g id="node11" class="node"><title>Node11</title>
<g id="a_node11"><a xlink:href="_ogre_terrain_8h.html" target="_top" xlink:title="OgreTerrain.h">
<polygon fill="none" stroke="black" points="66,-123.5 66,-142.5 142,-142.5 142,-123.5 66,-123.5"/>
<text text-anchor="middle" x="104" y="-130.5" font-family="Helvetica,sans-Serif" font-size="10.00">OgreTerrain.h</text>
</a>
</g>
</g>
<!-- Node3&#45;&gt;Node11 -->
<g id="edge13" class="edge"><title>Node3&#45;&gt;Node11</title>
<path fill="none" stroke="midnightblue" d="M219.629,-175.906C191.616,-165.754 152.304,-151.506 127.499,-142.516"/>
<polygon fill="midnightblue" stroke="midnightblue" points="218.796,-179.327 229.391,-179.444 221.181,-172.746 218.796,-179.327"/>
</g>
<!-- Node5 -->
<g id="node5" class="node"><title>Node5</title>
<g id="a_node5"><a xlink:href="_ogre_root_8h.html" target="_top" xlink:title="OgreRoot.h">
<polygon fill="none" stroke="red" points="254.5,-62 254.5,-81 321.5,-81 321.5,-62 254.5,-62"/>
<text text-anchor="middle" x="288" y="-69" font-family="Helvetica,sans-Serif" font-size="10.00">OgreRoot.h</text>
</a>
</g>
</g>
<!-- Node4&#45;&gt;Node5 -->
<g id="edge4" class="edge"><title>Node4&#45;&gt;Node5</title>
<path fill="none" stroke="midnightblue" d="M254.162,-115.338C262.984,-104.169 274.233,-89.9278 281.279,-81.0091"/>
<polygon fill="midnightblue" stroke="midnightblue" points="251.186,-113.458 247.734,-123.475 256.679,-117.797 251.186,-113.458"/>
</g>
<!-- Node4&#45;&gt;Node6 -->
<g id="edge6" class="edge"><title>Node4&#45;&gt;Node6</title>
<path fill="none" stroke="midnightblue" d="M238.44,-112.955C237.12,-97.0599 237.16,-74.1554 245,-56 251.511,-40.921 265.45,-27.884 275.7,-19.7801"/>
<polygon fill="midnightblue" stroke="midnightblue" points="234.985,-113.56 239.548,-123.121 241.943,-112.801 234.985,-113.56"/>
</g>
<!-- Node5&#45;&gt;Node6 -->
<g id="edge5" class="edge"><title>Node5&#45;&gt;Node6</title>
<path fill="none" stroke="midnightblue" d="M288,-51.8165C288,-40.9962 288,-27.898 288,-19.5091"/>
<polygon fill="midnightblue" stroke="midnightblue" points="284.5,-51.9751 288,-61.9751 291.5,-51.9751 284.5,-51.9751"/>
</g>
<!-- Node8 -->
<g id="node8" class="node"><title>Node8</title>
<g id="a_node8"><a xlink:href="_ogre_r_t_shader_system_8h.html" target="_top" xlink:title="OgreRTShaderSystem.h">
<polygon fill="none" stroke="red" points="636,-0.5 636,-19.5 760,-19.5 760,-0.5 636,-0.5"/>
<text text-anchor="middle" x="698" y="-7.5" font-family="Helvetica,sans-Serif" font-size="10.00">OgreRTShaderSystem.h</text>
</a>
</g>
</g>
<!-- Node7&#45;&gt;Node8 -->
<g id="edge9" class="edge"><title>Node7&#45;&gt;Node8</title>
<path fill="none" stroke="midnightblue" d="M635.029,-121.538C673.918,-114.015 717.244,-102.466 729,-87 745.211,-65.6719 720.894,-34.6821 706.831,-19.7237"/>
<polygon fill="midnightblue" stroke="midnightblue" points="633.924,-118.184 624.735,-123.459 635.208,-125.065 633.924,-118.184"/>
</g>
<!-- Node9 -->
<g id="node9" class="node"><title>Node9</title>
<g id="a_node9"><a xlink:href="_ogre_shader_material_serializer_listener_8h.html" target="_top" xlink:title="OgreShaderMaterialSerializer\lListener.h">
<polygon fill="none" stroke="black" points="576.5,-56.5 576.5,-86.5 719.5,-86.5 719.5,-56.5 576.5,-56.5"/>
<text text-anchor="start" x="584.5" y="-74.5" font-family="Helvetica,sans-Serif" font-size="10.00">OgreShaderMaterialSerializer</text>
<text text-anchor="middle" x="648" y="-63.5" font-family="Helvetica,sans-Serif" font-size="10.00">Listener.h</text>
</a>
</g>
</g>
<!-- Node7&#45;&gt;Node9 -->
<g id="edge10" class="edge"><title>Node7&#45;&gt;Node9</title>
<path fill="none" stroke="midnightblue" d="M586.783,-117.468C599.608,-108.047 616.225,-95.8408 628.91,-86.523"/>
<polygon fill="midnightblue" stroke="midnightblue" points="584.593,-114.734 578.605,-123.475 588.737,-120.376 584.593,-114.734"/>
</g>
<!-- Node10 -->
<g id="node10" class="node"><title>Node10</title>
<g id="a_node10"><a xlink:href="_ogre_shader_f_f_p_render_state_builder_8h.html" target="_top" xlink:title="OgreShaderFFPRenderState\lBuilder.h">
<polygon fill="none" stroke="black" points="416,-56.5 416,-86.5 558,-86.5 558,-56.5 416,-56.5"/>
<text text-anchor="start" x="424" y="-74.5" font-family="Helvetica,sans-Serif" font-size="10.00">OgreShaderFFPRenderState</text>
<text text-anchor="middle" x="487" y="-63.5" font-family="Helvetica,sans-Serif" font-size="10.00">Builder.h</text>
</a>
</g>
</g>
<!-- Node7&#45;&gt;Node10 -->
<g id="edge12" class="edge"><title>Node7&#45;&gt;Node10</title>
<path fill="none" stroke="midnightblue" d="M547.461,-117.468C534.795,-108.047 518.383,-95.8408 505.854,-86.523"/>
<polygon fill="midnightblue" stroke="midnightblue" points="545.425,-120.316 555.538,-123.475 549.603,-114.699 545.425,-120.316"/>
</g>
<!-- Node9&#45;&gt;Node8 -->
<g id="edge11" class="edge"><title>Node9&#45;&gt;Node8</title>
<path fill="none" stroke="midnightblue" d="M666.316,-48.7037C674.776,-38.636 684.339,-27.2567 690.725,-19.6578"/>
<polygon fill="midnightblue" stroke="midnightblue" points="663.603,-46.4918 659.849,-56.3993 668.962,-50.9952 663.603,-46.4918"/>
</g>
<!-- Node12 -->
<g id="node12" class="node"><title>Node12</title>
<g id="a_node12"><a xlink:href="_ogre_terrain_group_8h.html" target="_top" xlink:title="OgreTerrainGroup.h">
<polygon fill="none" stroke="red" points="66,-62 66,-81 168,-81 168,-62 66,-62"/>
<text text-anchor="middle" x="117" y="-69" font-family="Helvetica,sans-Serif" font-size="10.00">OgreTerrainGroup.h</text>
</a>
</g>
</g>
<!-- Node11&#45;&gt;Node12 -->
<g id="edge14" class="edge"><title>Node11&#45;&gt;Node12</title>
<path fill="none" stroke="midnightblue" d="M108.008,-113.657C110.386,-102.772 113.289,-89.4863 115.141,-81.0091"/>
<polygon fill="midnightblue" stroke="midnightblue" points="104.578,-112.958 105.863,-123.475 111.417,-114.453 104.578,-112.958"/>
</g>
<!-- Node13&#45;&gt;Node6 -->
<g id="edge16" class="edge"><title>Node13&#45;&gt;Node6</title>
<path fill="none" stroke="midnightblue" d="M81.826,-173.161C72.2814,-165.424 62.1467,-155.053 57,-143 41.8156,-107.44 32.4111,-85.8412 57,-56 83.1773,-24.2311 211.26,-14.5941 264.609,-11.9306"/>
<polygon fill="midnightblue" stroke="midnightblue" points="79.8282,-176.038 89.9216,-179.259 84.0398,-170.447 79.8282,-176.038"/>
</g>
<!-- Node14&#45;&gt;Node6 -->
<g id="edge19" class="edge"><title>Node14&#45;&gt;Node6</title>
<path fill="none" stroke="midnightblue" d="M603.945,-176.058C664.78,-154.573 774.953,-106.881 729,-56 700.758,-24.7299 398.101,-14.0288 311.204,-11.5887"/>
<polygon fill="midnightblue" stroke="midnightblue" points="602.587,-172.824 594.279,-179.398 604.874,-179.44 602.587,-172.824"/>
</g>
<!-- Node14&#45;&gt;Node7 -->
<g id="edge20" class="edge"><title>Node14&#45;&gt;Node7</title>
<path fill="none" stroke="midnightblue" d="M567,-168.805C567,-159.91 567,-149.78 567,-142.751"/>
<polygon fill="midnightblue" stroke="midnightblue" points="563.5,-169.083 567,-179.083 570.5,-169.083 563.5,-169.083"/>
</g>
<!-- Node15&#45;&gt;Node6 -->
<g id="edge22" class="edge"><title>Node15&#45;&gt;Node6</title>
<path fill="none" stroke="midnightblue" d="M388.543,-224.859C388.669,-188.861 384.613,-109.859 350,-56 339.43,-39.5524 320.556,-27.1561 306.399,-19.5817"/>
<polygon fill="midnightblue" stroke="midnightblue" points="385.036,-225.266 388.378,-235.32 392.035,-225.377 385.036,-225.266"/>
</g>
</g>
</svg>
