<?xml version="1.0" encoding="UTF-8" standalone="no"?>
<!DOCTYPE svg PUBLIC "-//W3C//DTD SVG 1.1//EN"
 "http://www.w3.org/Graphics/SVG/1.1/DTD/svg11.dtd">
<!-- Generated by graphviz version 2.38.0 (20140413.2041)
 -->
<!-- Title: OgreGL3PlusHardwareOcclusionQuery.h Pages: 1 -->
<svg width="3282pt" height="431pt"
 viewBox="0.00 0.00 3282.00 431.00" xmlns="http://www.w3.org/2000/svg" xmlns:xlink="http://www.w3.org/1999/xlink">
<g id="graph0" class="graph" transform="scale(1 1) rotate(0) translate(4 427)">
<title>OgreGL3PlusHardwareOcclusionQuery.h</title>
<!-- Node1 -->
<g id="node1" class="node"><title>Node1</title>
<polygon fill="#bfbfbf" stroke="black" points="3027.5,-392.5 3027.5,-422.5 3188.5,-422.5 3188.5,-392.5 3027.5,-392.5"/>
<text text-anchor="start" x="3035.5" y="-410.5" font-family="Helvetica,sans-Serif" font-size="10.00">OgreGL3PlusHardwareOcclusion</text>
<text text-anchor="middle" x="3108" y="-399.5" font-family="Helvetica,sans-Serif" font-size="10.00">Query.h</text>
</g>
<!-- Node2 -->
<g id="node2" class="node"><title>Node2</title>
<g id="a_node2"><a xlink:href="_ogre_g_l3_plus_prerequisites_8h.html" target="_top" xlink:title="OgreGL3PlusPrerequisites.h">
<polygon fill="none" stroke="black" points="2952,-336.5 2952,-355.5 3092,-355.5 3092,-336.5 2952,-336.5"/>
<text text-anchor="middle" x="3022" y="-343.5" font-family="Helvetica,sans-Serif" font-size="10.00">OgreGL3PlusPrerequisites.h</text>
</a>
</g>
</g>
<!-- Node1&#45;&gt;Node2 -->
<g id="edge1" class="edge"><title>Node1&#45;&gt;Node2</title>
<path fill="none" stroke="midnightblue" d="M3087.62,-392.399C3074.09,-383.04 3056.39,-370.792 3042.78,-361.377"/>
<polygon fill="midnightblue" stroke="midnightblue" points="3044.73,-358.469 3034.51,-355.658 3040.75,-364.226 3044.73,-358.469"/>
</g>
<!-- Node50 -->
<g id="node50" class="node"><title>Node50</title>
<g id="a_node50"><a xlink:href="_ogre_hardware_occlusion_query_8h.html" target="_top" xlink:title="OgreHardwareOcclusionQuery.h">
<polygon fill="none" stroke="black" points="3116,-336.5 3116,-355.5 3274,-355.5 3274,-336.5 3116,-336.5"/>
<text text-anchor="middle" x="3195" y="-343.5" font-family="Helvetica,sans-Serif" font-size="10.00">OgreHardwareOcclusionQuery.h</text>
</a>
</g>
</g>
<!-- Node1&#45;&gt;Node50 -->
<g id="edge67" class="edge"><title>Node1&#45;&gt;Node50</title>
<path fill="none" stroke="midnightblue" d="M3128.62,-392.399C3142.3,-383.04 3160.21,-370.792 3173.98,-361.377"/>
<polygon fill="midnightblue" stroke="midnightblue" points="3176.06,-364.192 3182.34,-355.658 3172.11,-358.414 3176.06,-364.192"/>
</g>
<!-- Node3 -->
<g id="node3" class="node"><title>Node3</title>
<g id="a_node3"><a xlink:href="_ogre_prerequisites_8h.html" target="_top" xlink:title="OgrePrerequisites.h">
<polygon fill="none" stroke="black" points="2621.5,-168.5 2621.5,-187.5 2724.5,-187.5 2724.5,-168.5 2621.5,-168.5"/>
<text text-anchor="middle" x="2673" y="-175.5" font-family="Helvetica,sans-Serif" font-size="10.00">OgrePrerequisites.h</text>
</a>
</g>
</g>
<!-- Node2&#45;&gt;Node3 -->
<g id="edge2" class="edge"><title>Node2&#45;&gt;Node3</title>
<path fill="none" stroke="midnightblue" d="M3033.13,-336.292C3048.36,-323.325 3072.26,-298.487 3058,-280 3018.76,-229.14 2833.45,-198.883 2734.94,-186.128"/>
<polygon fill="midnightblue" stroke="midnightblue" points="2735.18,-182.631 2724.81,-184.84 2734.29,-189.575 2735.18,-182.631"/>
</g>
<!-- Node43 -->
<g id="node43" class="node"><title>Node43</title>
<g id="a_node43"><a xlink:href="_ogre_log_manager_8h.html" target="_top" xlink:title="OgreLogManager.h">
<polygon fill="none" stroke="black" points="2653.5,-280.5 2653.5,-299.5 2752.5,-299.5 2752.5,-280.5 2653.5,-280.5"/>
<text text-anchor="middle" x="2703" y="-287.5" font-family="Helvetica,sans-Serif" font-size="10.00">OgreLogManager.h</text>
</a>
</g>
</g>
<!-- Node2&#45;&gt;Node43 -->
<g id="edge51" class="edge"><title>Node2&#45;&gt;Node43</title>
<path fill="none" stroke="midnightblue" d="M2971.45,-336.444C2914.74,-326.843 2822.82,-311.283 2762.64,-301.095"/>
<polygon fill="midnightblue" stroke="midnightblue" points="2762.97,-297.601 2752.52,-299.383 2761.8,-304.503 2762.97,-297.601"/>
</g>
<!-- Node47 -->
<g id="node47" class="node"><title>Node47</title>
<polygon fill="none" stroke="#bfbfbf" points="3106.5,-280.5 3106.5,-299.5 3169.5,-299.5 3169.5,-280.5 3106.5,-280.5"/>
<text text-anchor="middle" x="3138" y="-287.5" font-family="Helvetica,sans-Serif" font-size="10.00">windows.h</text>
</g>
<!-- Node2&#45;&gt;Node47 -->
<g id="edge64" class="edge"><title>Node2&#45;&gt;Node47</title>
<path fill="none" stroke="midnightblue" d="M3040.38,-336.444C3059.22,-327.675 3088.73,-313.935 3110.38,-303.858"/>
<polygon fill="midnightblue" stroke="midnightblue" points="3112.12,-306.91 3119.71,-299.516 3109.16,-300.564 3112.12,-306.91"/>
</g>
<!-- Node48 -->
<g id="node48" class="node"><title>Node48</title>
<polygon fill="none" stroke="#bfbfbf" points="2917.5,-280.5 2917.5,-299.5 2970.5,-299.5 2970.5,-280.5 2917.5,-280.5"/>
<text text-anchor="middle" x="2944" y="-287.5" font-family="Helvetica,sans-Serif" font-size="10.00">wingdi.h</text>
</g>
<!-- Node2&#45;&gt;Node48 -->
<g id="edge65" class="edge"><title>Node2&#45;&gt;Node48</title>
<path fill="none" stroke="midnightblue" d="M3009.47,-336.324C2997.41,-327.979 2978.97,-315.212 2964.73,-305.352"/>
<polygon fill="midnightblue" stroke="midnightblue" points="2966.72,-302.469 2956.5,-299.655 2962.73,-308.224 2966.72,-302.469"/>
</g>
<!-- Node49 -->
<g id="node49" class="node"><title>Node49</title>
<polygon fill="none" stroke="#bfbfbf" points="2988.5,-280.5 2988.5,-299.5 3049.5,-299.5 3049.5,-280.5 2988.5,-280.5"/>
<text text-anchor="middle" x="3019" y="-287.5" font-family="Helvetica,sans-Serif" font-size="10.00">GL/gl3w.h</text>
</g>
<!-- Node2&#45;&gt;Node49 -->
<g id="edge66" class="edge"><title>Node2&#45;&gt;Node49</title>
<path fill="none" stroke="midnightblue" d="M3021.5,-336.083C3021.11,-329.006 3020.55,-318.861 3020.05,-309.986"/>
<polygon fill="midnightblue" stroke="midnightblue" points="3023.54,-309.542 3019.49,-299.751 3016.55,-309.93 3023.54,-309.542"/>
</g>
<!-- Node4 -->
<g id="node4" class="node"><title>Node4</title>
<g id="a_node4"><a xlink:href="_ogre_platform_8h.html" target="_top" xlink:title="OgrePlatform.h">
<polygon fill="none" stroke="black" points="690.5,-112.5 690.5,-131.5 773.5,-131.5 773.5,-112.5 690.5,-112.5"/>
<text text-anchor="middle" x="732" y="-119.5" font-family="Helvetica,sans-Serif" font-size="10.00">OgrePlatform.h</text>
</a>
</g>
</g>
<!-- Node3&#45;&gt;Node4 -->
<g id="edge3" class="edge"><title>Node3&#45;&gt;Node4</title>
<path fill="none" stroke="midnightblue" d="M2621.24,-175.703C2416.64,-170.554 1644.51,-150.917 1009,-132 930.609,-129.667 839.749,-126.656 784.076,-124.777"/>
<polygon fill="midnightblue" stroke="midnightblue" points="783.876,-121.268 773.764,-124.428 783.64,-128.264 783.876,-121.268"/>
</g>
<!-- Node6 -->
<g id="node6" class="node"><title>Node6</title>
<polygon fill="none" stroke="#bfbfbf" points="262.5,-56.5 262.5,-75.5 303.5,-75.5 303.5,-56.5 262.5,-56.5"/>
<text text-anchor="middle" x="283" y="-63.5" font-family="Helvetica,sans-Serif" font-size="10.00">string</text>
</g>
<!-- Node3&#45;&gt;Node6 -->
<g id="edge5" class="edge"><title>Node3&#45;&gt;Node6</title>
<path fill="none" stroke="midnightblue" d="M2621.43,-176.168C2428.14,-172.9 1728.23,-159.745 1152,-132 1061.32,-127.634 441.515,-94.5901 313.43,-75.4523"/>
<polygon fill="midnightblue" stroke="midnightblue" points="313.945,-71.99 303.509,-73.8154 312.805,-78.8967 313.945,-71.99"/>
</g>
<!-- Node7 -->
<g id="node7" class="node"><title>Node7</title>
<g id="a_node7"><a xlink:href="_ogre_std_headers_8h.html" target="_top" xlink:title="OgreStdHeaders.h">
<polygon fill="none" stroke="black" points="1161,-112.5 1161,-131.5 1259,-131.5 1259,-112.5 1161,-112.5"/>
<text text-anchor="middle" x="1210" y="-119.5" font-family="Helvetica,sans-Serif" font-size="10.00">OgreStdHeaders.h</text>
</a>
</g>
</g>
<!-- Node3&#45;&gt;Node7 -->
<g id="edge6" class="edge"><title>Node3&#45;&gt;Node7</title>
<path fill="none" stroke="midnightblue" d="M2621.36,-175.094C2397.13,-166.818 1508.5,-134.018 1269.47,-125.195"/>
<polygon fill="midnightblue" stroke="midnightblue" points="1269.36,-121.689 1259.24,-124.818 1269.11,-128.684 1269.36,-121.689"/>
</g>
<!-- Node37 -->
<g id="node37" class="node"><title>Node37</title>
<g id="a_node37"><a xlink:href="_ogre_memory_allocator_config_8h.html" target="_top" xlink:title="This file configures Ogre&#39;s memory allocators. ">
<polygon fill="none" stroke="black" points="2642,-112.5 2642,-131.5 2790,-131.5 2790,-112.5 2642,-112.5"/>
<text text-anchor="middle" x="2716" y="-119.5" font-family="Helvetica,sans-Serif" font-size="10.00">OgreMemoryAllocatorConfig.h</text>
</a>
</g>
</g>
<!-- Node3&#45;&gt;Node37 -->
<g id="edge37" class="edge"><title>Node3&#45;&gt;Node37</title>
<path fill="none" stroke="midnightblue" d="M2680.1,-168.083C2686.24,-160.377 2695.27,-149.033 2702.74,-139.653"/>
<polygon fill="midnightblue" stroke="midnightblue" points="2705.54,-141.754 2709.03,-131.751 2700.06,-137.394 2705.54,-141.754"/>
</g>
<!-- Node5 -->
<g id="node5" class="node"><title>Node5</title>
<g id="a_node5"><a xlink:href="_ogre_config_8h.html" target="_top" xlink:title="OgreConfig.h">
<polygon fill="none" stroke="red" points="170,-56.5 170,-75.5 244,-75.5 244,-56.5 170,-56.5"/>
<text text-anchor="middle" x="207" y="-63.5" font-family="Helvetica,sans-Serif" font-size="10.00">OgreConfig.h</text>
</a>
</g>
</g>
<!-- Node4&#45;&gt;Node5 -->
<g id="edge4" class="edge"><title>Node4&#45;&gt;Node5</title>
<path fill="none" stroke="midnightblue" d="M690.188,-118.477C608.384,-113.238 421.285,-99.7634 254.071,-76.0195"/>
<polygon fill="midnightblue" stroke="midnightblue" points="254.499,-72.5451 244.103,-74.5883 253.504,-79.474 254.499,-72.5451"/>
</g>
<!-- Node7&#45;&gt;Node6 -->
<g id="edge16" class="edge"><title>Node7&#45;&gt;Node6</title>
<path fill="none" stroke="midnightblue" d="M1160.79,-118.41C1126.17,-116.595 1078.75,-114.124 1037,-112 718.54,-95.7989 632.263,-129.974 313.483,-75.5819"/>
<polygon fill="midnightblue" stroke="midnightblue" points="313.949,-72.1106 303.5,-73.8627 312.761,-79.0091 313.949,-72.1106"/>
</g>
<!-- Node8 -->
<g id="node8" class="node"><title>Node8</title>
<polygon fill="none" stroke="#bfbfbf" points="2221.5,-56.5 2221.5,-75.5 2270.5,-75.5 2270.5,-56.5 2221.5,-56.5"/>
<text text-anchor="middle" x="2246" y="-63.5" font-family="Helvetica,sans-Serif" font-size="10.00">cassert</text>
</g>
<!-- Node7&#45;&gt;Node8 -->
<g id="edge7" class="edge"><title>Node7&#45;&gt;Node8</title>
<path fill="none" stroke="midnightblue" d="M1259.13,-120.235C1431.13,-117.337 2006.41,-105.727 2211.21,-75.9044"/>
<polygon fill="midnightblue" stroke="midnightblue" points="2211.9,-79.3397 2221.26,-74.3784 2210.85,-72.419 2211.9,-79.3397"/>
</g>
<!-- Node9 -->
<g id="node9" class="node"><title>Node9</title>
<polygon fill="none" stroke="#bfbfbf" points="2288.5,-56.5 2288.5,-75.5 2331.5,-75.5 2331.5,-56.5 2288.5,-56.5"/>
<text text-anchor="middle" x="2310" y="-63.5" font-family="Helvetica,sans-Serif" font-size="10.00">cstdio</text>
</g>
<!-- Node7&#45;&gt;Node9 -->
<g id="edge8" class="edge"><title>Node7&#45;&gt;Node9</title>
<path fill="none" stroke="midnightblue" d="M1259.2,-120.497C1438.72,-118.423 2058.93,-109.093 2278.33,-75.5819"/>
<polygon fill="midnightblue" stroke="midnightblue" points="2279.15,-78.9962 2288.47,-73.9678 2278.05,-72.0832 2279.15,-78.9962"/>
</g>
<!-- Node10 -->
<g id="node10" class="node"><title>Node10</title>
<polygon fill="none" stroke="#bfbfbf" points="2349.5,-56.5 2349.5,-75.5 2394.5,-75.5 2394.5,-56.5 2349.5,-56.5"/>
<text text-anchor="middle" x="2372" y="-63.5" font-family="Helvetica,sans-Serif" font-size="10.00">cstdlib</text>
</g>
<!-- Node7&#45;&gt;Node10 -->
<g id="edge9" class="edge"><title>Node7&#45;&gt;Node10</title>
<path fill="none" stroke="midnightblue" d="M1259.06,-120.574C1445.03,-118.727 2107.25,-109.969 2339.36,-75.6071"/>
<polygon fill="midnightblue" stroke="midnightblue" points="2340.07,-79.0387 2349.42,-74.0575 2339,-72.1202 2340.07,-79.0387"/>
</g>
<!-- Node11 -->
<g id="node11" class="node"><title>Node11</title>
<polygon fill="none" stroke="#bfbfbf" points="2412.5,-56.5 2412.5,-75.5 2453.5,-75.5 2453.5,-56.5 2412.5,-56.5"/>
<text text-anchor="middle" x="2433" y="-63.5" font-family="Helvetica,sans-Serif" font-size="10.00">ctime</text>
</g>
<!-- Node7&#45;&gt;Node11 -->
<g id="edge10" class="edge"><title>Node7&#45;&gt;Node11</title>
<path fill="none" stroke="midnightblue" d="M1259.12,-120.806C1451.92,-119.789 2157.78,-113.631 2402.28,-75.5836"/>
<polygon fill="midnightblue" stroke="midnightblue" points="2402.87,-79.0344 2412.18,-73.9829 2401.75,-72.1242 2402.87,-79.0344"/>
</g>
<!-- Node12 -->
<g id="node12" class="node"><title>Node12</title>
<polygon fill="none" stroke="#bfbfbf" points="322,-56.5 322,-75.5 368,-75.5 368,-56.5 322,-56.5"/>
<text text-anchor="middle" x="345" y="-63.5" font-family="Helvetica,sans-Serif" font-size="10.00">cstring</text>
</g>
<!-- Node7&#45;&gt;Node12 -->
<g id="edge11" class="edge"><title>Node7&#45;&gt;Node12</title>
<path fill="none" stroke="midnightblue" d="M1160.73,-118.41C994.354,-109.658 459.658,-81.4571 378.274,-75.1466"/>
<polygon fill="midnightblue" stroke="midnightblue" points="378.573,-71.6593 368.285,-74.1886 377.905,-78.6273 378.573,-71.6593"/>
</g>
<!-- Node13 -->
<g id="node13" class="node"><title>Node13</title>
<polygon fill="none" stroke="#bfbfbf" points="386.5,-56.5 386.5,-75.5 435.5,-75.5 435.5,-56.5 386.5,-56.5"/>
<text text-anchor="middle" x="411" y="-63.5" font-family="Helvetica,sans-Serif" font-size="10.00">cstdarg</text>
</g>
<!-- Node7&#45;&gt;Node13 -->
<g id="edge12" class="edge"><title>Node7&#45;&gt;Node13</title>
<path fill="none" stroke="midnightblue" d="M1160.99,-118.388C1005.83,-110.084 531.019,-84.4025 445.84,-75.4341"/>
<polygon fill="midnightblue" stroke="midnightblue" points="446.118,-71.9416 435.76,-74.1665 445.245,-78.8869 446.118,-71.9416"/>
</g>
<!-- Node14 -->
<g id="node14" class="node"><title>Node14</title>
<polygon fill="none" stroke="#bfbfbf" points="454,-56.5 454,-75.5 498,-75.5 498,-56.5 454,-56.5"/>
<text text-anchor="middle" x="476" y="-63.5" font-family="Helvetica,sans-Serif" font-size="10.00">cmath</text>
</g>
<!-- Node7&#45;&gt;Node14 -->
<g id="edge13" class="edge"><title>Node7&#45;&gt;Node14</title>
<path fill="none" stroke="midnightblue" d="M1160.76,-118.473C1017.41,-111.032 604.87,-88.9953 508.376,-75.6613"/>
<polygon fill="midnightblue" stroke="midnightblue" points="508.633,-72.1593 498.214,-74.0799 507.557,-79.0761 508.633,-72.1593"/>
</g>
<!-- Node15 -->
<g id="node15" class="node"><title>Node15</title>
<polygon fill="none" stroke="#bfbfbf" points="516,-56.5 516,-75.5 560,-75.5 560,-56.5 516,-56.5"/>
<text text-anchor="middle" x="538" y="-63.5" font-family="Helvetica,sans-Serif" font-size="10.00">vector</text>
</g>
<!-- Node7&#45;&gt;Node15 -->
<g id="edge14" class="edge"><title>Node7&#45;&gt;Node15</title>
<path fill="none" stroke="midnightblue" d="M1160.93,-118.158C1026.93,-110.317 659.335,-88.2365 570.279,-75.66"/>
<polygon fill="midnightblue" stroke="midnightblue" points="570.642,-72.1739 560.217,-74.063 569.545,-79.0874 570.642,-72.1739"/>
</g>
<!-- Node16 -->
<g id="node16" class="node"><title>Node16</title>
<polygon fill="none" stroke="#bfbfbf" points="578.5,-56.5 578.5,-75.5 613.5,-75.5 613.5,-56.5 578.5,-56.5"/>
<text text-anchor="middle" x="596" y="-63.5" font-family="Helvetica,sans-Serif" font-size="10.00">map</text>
</g>
<!-- Node7&#45;&gt;Node16 -->
<g id="edge15" class="edge"><title>Node7&#45;&gt;Node16</title>
<path fill="none" stroke="midnightblue" d="M1160.85,-117.926C1035.11,-109.968 706.406,-88.5461 623.562,-75.3442"/>
<polygon fill="midnightblue" stroke="midnightblue" points="624.013,-71.8692 613.55,-73.5381 622.77,-78.758 624.013,-71.8692"/>
</g>
<!-- Node17 -->
<g id="node17" class="node"><title>Node17</title>
<polygon fill="none" stroke="#bfbfbf" points="632,-56.5 632,-75.5 662,-75.5 662,-56.5 632,-56.5"/>
<text text-anchor="middle" x="647" y="-63.5" font-family="Helvetica,sans-Serif" font-size="10.00">set</text>
</g>
<!-- Node7&#45;&gt;Node17 -->
<g id="edge17" class="edge"><title>Node7&#45;&gt;Node17</title>
<path fill="none" stroke="midnightblue" d="M1160.95,-118.635C1049.91,-113.011 781.152,-97.8091 672.088,-75.5364"/>
<polygon fill="midnightblue" stroke="midnightblue" points="672.557,-72.0569 662.043,-73.359 671.074,-78.898 672.557,-72.0569"/>
</g>
<!-- Node18 -->
<g id="node18" class="node"><title>Node18</title>
<polygon fill="none" stroke="#bfbfbf" points="680.5,-56.5 680.5,-75.5 709.5,-75.5 709.5,-56.5 680.5,-56.5"/>
<text text-anchor="middle" x="695" y="-63.5" font-family="Helvetica,sans-Serif" font-size="10.00">list</text>
</g>
<!-- Node7&#45;&gt;Node18 -->
<g id="edge18" class="edge"><title>Node7&#45;&gt;Node18</title>
<path fill="none" stroke="midnightblue" d="M1160.85,-118.268C1057.21,-112.229 818.341,-96.7852 719.82,-75.7794"/>
<polygon fill="midnightblue" stroke="midnightblue" points="720.426,-72.3281 709.9,-73.5285 718.877,-79.1546 720.426,-72.3281"/>
</g>
<!-- Node19 -->
<g id="node19" class="node"><title>Node19</title>
<polygon fill="none" stroke="#bfbfbf" points="727.5,-56.5 727.5,-75.5 770.5,-75.5 770.5,-56.5 727.5,-56.5"/>
<text text-anchor="middle" x="749" y="-63.5" font-family="Helvetica,sans-Serif" font-size="10.00">deque</text>
</g>
<!-- Node7&#45;&gt;Node19 -->
<g id="edge19" class="edge"><title>Node7&#45;&gt;Node19</title>
<path fill="none" stroke="midnightblue" d="M1160.75,-118.862C1082.03,-114.792 923.004,-103.885 780.316,-75.9325"/>
<polygon fill="midnightblue" stroke="midnightblue" points="780.999,-72.4998 770.508,-73.9786 779.631,-79.3649 780.999,-72.4998"/>
</g>
<!-- Node20 -->
<g id="node20" class="node"><title>Node20</title>
<polygon fill="none" stroke="#bfbfbf" points="788.5,-56.5 788.5,-75.5 831.5,-75.5 831.5,-56.5 788.5,-56.5"/>
<text text-anchor="middle" x="810" y="-63.5" font-family="Helvetica,sans-Serif" font-size="10.00">queue</text>
</g>
<!-- Node7&#45;&gt;Node20 -->
<g id="edge20" class="edge"><title>Node7&#45;&gt;Node20</title>
<path fill="none" stroke="midnightblue" d="M1160.79,-117.696C1091.43,-112.452 960.92,-100.434 841.556,-76.0221"/>
<polygon fill="midnightblue" stroke="midnightblue" points="842.02,-72.5439 831.517,-73.9338 840.595,-79.3972 842.02,-72.5439"/>
</g>
<!-- Node21 -->
<g id="node21" class="node"><title>Node21</title>
<polygon fill="none" stroke="#bfbfbf" points="849.5,-56.5 849.5,-75.5 890.5,-75.5 890.5,-56.5 849.5,-56.5"/>
<text text-anchor="middle" x="870" y="-63.5" font-family="Helvetica,sans-Serif" font-size="10.00">bitset</text>
</g>
<!-- Node7&#45;&gt;Node21 -->
<g id="edge21" class="edge"><title>Node7&#45;&gt;Node21</title>
<path fill="none" stroke="midnightblue" d="M1160.74,-116.116C1101.28,-109.72 998.196,-97.0329 900.587,-75.8166"/>
<polygon fill="midnightblue" stroke="midnightblue" points="901.071,-72.3392 890.552,-73.6004 899.562,-79.1745 901.071,-72.3392"/>
</g>
<!-- Node22 -->
<g id="node22" class="node"><title>Node22</title>
<polygon fill="none" stroke="#bfbfbf" points="909,-56.5 909,-75.5 965,-75.5 965,-56.5 909,-56.5"/>
<text text-anchor="middle" x="937" y="-63.5" font-family="Helvetica,sans-Serif" font-size="10.00">algorithm</text>
</g>
<!-- Node7&#45;&gt;Node22 -->
<g id="edge22" class="edge"><title>Node7&#45;&gt;Node22</title>
<path fill="none" stroke="midnightblue" d="M1161.49,-112.486C1115.83,-104.305 1045.3,-91.2477 975.142,-76.1668"/>
<polygon fill="midnightblue" stroke="midnightblue" points="975.762,-72.72 965.248,-74.0257 974.282,-79.5616 975.762,-72.72"/>
</g>
<!-- Node23 -->
<g id="node23" class="node"><title>Node23</title>
<polygon fill="none" stroke="#bfbfbf" points="983.5,-56.5 983.5,-75.5 1042.5,-75.5 1042.5,-56.5 983.5,-56.5"/>
<text text-anchor="middle" x="1013" y="-63.5" font-family="Helvetica,sans-Serif" font-size="10.00">functional</text>
</g>
<!-- Node7&#45;&gt;Node23 -->
<g id="edge23" class="edge"><title>Node7&#45;&gt;Node23</title>
<path fill="none" stroke="midnightblue" d="M1178.78,-112.444C1144.67,-103.092 1089.93,-88.0874 1052.76,-77.8999"/>
<polygon fill="midnightblue" stroke="midnightblue" points="1053.35,-74.4311 1042.78,-75.1629 1051.5,-81.1821 1053.35,-74.4311"/>
</g>
<!-- Node24 -->
<g id="node24" class="node"><title>Node24</title>
<polygon fill="none" stroke="#bfbfbf" points="1061,-56.5 1061,-75.5 1101,-75.5 1101,-56.5 1061,-56.5"/>
<text text-anchor="middle" x="1081" y="-63.5" font-family="Helvetica,sans-Serif" font-size="10.00">limits</text>
</g>
<!-- Node7&#45;&gt;Node24 -->
<g id="edge24" class="edge"><title>Node7&#45;&gt;Node24</title>
<path fill="none" stroke="midnightblue" d="M1189.56,-112.444C1168.33,-103.557 1134.9,-89.5632 1110.75,-79.4514"/>
<polygon fill="midnightblue" stroke="midnightblue" points="1111.92,-76.1493 1101.34,-75.5164 1109.22,-82.6064 1111.92,-76.1493"/>
</g>
<!-- Node25 -->
<g id="node25" class="node"><title>Node25</title>
<polygon fill="none" stroke="#bfbfbf" points="1119,-56.5 1119,-75.5 1169,-75.5 1169,-56.5 1119,-56.5"/>
<text text-anchor="middle" x="1144" y="-63.5" font-family="Helvetica,sans-Serif" font-size="10.00">fstream</text>
</g>
<!-- Node7&#45;&gt;Node25 -->
<g id="edge25" class="edge"><title>Node7&#45;&gt;Node25</title>
<path fill="none" stroke="midnightblue" d="M1199.4,-112.324C1189.54,-104.263 1174.65,-92.0765 1162.78,-82.3695"/>
<polygon fill="midnightblue" stroke="midnightblue" points="1164.75,-79.4575 1154.8,-75.8339 1160.32,-84.8752 1164.75,-79.4575"/>
</g>
<!-- Node26 -->
<g id="node26" class="node"><title>Node26</title>
<polygon fill="none" stroke="#bfbfbf" points="1187.5,-56.5 1187.5,-75.5 1232.5,-75.5 1232.5,-56.5 1187.5,-56.5"/>
<text text-anchor="middle" x="1210" y="-63.5" font-family="Helvetica,sans-Serif" font-size="10.00">iosfwd</text>
</g>
<!-- Node7&#45;&gt;Node26 -->
<g id="edge26" class="edge"><title>Node7&#45;&gt;Node26</title>
<path fill="none" stroke="midnightblue" d="M1210,-112.083C1210,-105.006 1210,-94.8611 1210,-85.9865"/>
<polygon fill="midnightblue" stroke="midnightblue" points="1213.5,-85.751 1210,-75.7511 1206.5,-85.7511 1213.5,-85.751"/>
</g>
<!-- Node27 -->
<g id="node27" class="node"><title>Node27</title>
<polygon fill="none" stroke="#bfbfbf" points="1251,-56.5 1251,-75.5 1303,-75.5 1303,-56.5 1251,-56.5"/>
<text text-anchor="middle" x="1277" y="-63.5" font-family="Helvetica,sans-Serif" font-size="10.00">sstream</text>
</g>
<!-- Node7&#45;&gt;Node27 -->
<g id="edge27" class="edge"><title>Node7&#45;&gt;Node27</title>
<path fill="none" stroke="midnightblue" d="M1220.76,-112.324C1230.77,-104.263 1245.89,-92.0765 1257.93,-82.3695"/>
<polygon fill="midnightblue" stroke="midnightblue" points="1260.45,-84.8343 1266.04,-75.8339 1256.06,-79.3841 1260.45,-84.8343"/>
</g>
<!-- Node28 -->
<g id="node28" class="node"><title>Node28</title>
<polygon fill="none" stroke="#bfbfbf" points="1321,-56.5 1321,-75.5 1389,-75.5 1389,-56.5 1321,-56.5"/>
<text text-anchor="middle" x="1355" y="-63.5" font-family="Helvetica,sans-Serif" font-size="10.00">sys/types.h</text>
</g>
<!-- Node7&#45;&gt;Node28 -->
<g id="edge28" class="edge"><title>Node7&#45;&gt;Node28</title>
<path fill="none" stroke="midnightblue" d="M1232.98,-112.444C1257.16,-103.438 1295.42,-89.1891 1322.65,-79.049"/>
<polygon fill="midnightblue" stroke="midnightblue" points="1323.98,-82.2864 1332.13,-75.5164 1321.54,-75.7265 1323.98,-82.2864"/>
</g>
<!-- Node29 -->
<g id="node29" class="node"><title>Node29</title>
<polygon fill="none" stroke="#bfbfbf" points="1407,-56.5 1407,-75.5 1467,-75.5 1467,-56.5 1407,-56.5"/>
<text text-anchor="middle" x="1437" y="-63.5" font-family="Helvetica,sans-Serif" font-size="10.00">sys/stat.h</text>
</g>
<!-- Node7&#45;&gt;Node29 -->
<g id="edge29" class="edge"><title>Node7&#45;&gt;Node29</title>
<path fill="none" stroke="midnightblue" d="M1245.97,-112.444C1287.17,-102.642 1354.48,-86.6292 1397.22,-76.4629"/>
<polygon fill="midnightblue" stroke="midnightblue" points="1398.08,-79.8562 1407,-74.1368 1396.46,-73.0462 1398.08,-79.8562"/>
</g>
<!-- Node30 -->
<g id="node30" class="node"><title>Node30</title>
<polygon fill="none" stroke="#bfbfbf" points="1485.5,-56.5 1485.5,-75.5 1536.5,-75.5 1536.5,-56.5 1485.5,-56.5"/>
<text text-anchor="middle" x="1511" y="-63.5" font-family="Helvetica,sans-Serif" font-size="10.00">unistd.h</text>
</g>
<!-- Node7&#45;&gt;Node30 -->
<g id="edge30" class="edge"><title>Node7&#45;&gt;Node30</title>
<path fill="none" stroke="midnightblue" d="M1259.26,-113.935C1310.74,-106.269 1394.04,-93.0675 1475.52,-75.9436"/>
<polygon fill="midnightblue" stroke="midnightblue" points="1476.39,-79.337 1485.44,-73.836 1474.94,-72.4897 1476.39,-79.337"/>
</g>
<!-- Node31 -->
<g id="node31" class="node"><title>Node31</title>
<polygon fill="none" stroke="#bfbfbf" points="1555,-56.5 1555,-75.5 1601,-75.5 1601,-56.5 1555,-56.5"/>
<text text-anchor="middle" x="1578" y="-63.5" font-family="Helvetica,sans-Serif" font-size="10.00">dlfcn.h</text>
</g>
<!-- Node7&#45;&gt;Node31 -->
<g id="edge31" class="edge"><title>Node7&#45;&gt;Node31</title>
<path fill="none" stroke="midnightblue" d="M1259.16,-116.46C1322.78,-110.13 1437.16,-97.2045 1544.61,-75.8071"/>
<polygon fill="midnightblue" stroke="midnightblue" points="1545.55,-79.1894 1554.66,-73.7782 1544.16,-72.328 1545.55,-79.1894"/>
</g>
<!-- Node32 -->
<g id="node32" class="node"><title>Node32</title>
<polygon fill="none" stroke="#bfbfbf" points="1619,-56.5 1619,-75.5 1697,-75.5 1697,-56.5 1619,-56.5"/>
<text text-anchor="middle" x="1658" y="-63.5" font-family="Helvetica,sans-Serif" font-size="10.00">ext/hash_map</text>
</g>
<!-- Node7&#45;&gt;Node32 -->
<g id="edge32" class="edge"><title>Node7&#45;&gt;Node32</title>
<path fill="none" stroke="midnightblue" d="M1259.1,-116.645C1332.85,-109.848 1476.8,-95.5859 1608.86,-76.0769"/>
<polygon fill="midnightblue" stroke="midnightblue" points="1609.37,-79.5387 1618.75,-74.6025 1608.34,-72.6153 1609.37,-79.5387"/>
</g>
<!-- Node33 -->
<g id="node33" class="node"><title>Node33</title>
<polygon fill="none" stroke="#bfbfbf" points="1715.5,-56.5 1715.5,-75.5 1788.5,-75.5 1788.5,-56.5 1715.5,-56.5"/>
<text text-anchor="middle" x="1752" y="-63.5" font-family="Helvetica,sans-Serif" font-size="10.00">ext/hash_set</text>
</g>
<!-- Node7&#45;&gt;Node33 -->
<g id="edge33" class="edge"><title>Node7&#45;&gt;Node33</title>
<path fill="none" stroke="midnightblue" d="M1259.12,-118.222C1346.67,-112.905 1535.59,-99.7811 1705.28,-75.9499"/>
<polygon fill="midnightblue" stroke="midnightblue" points="1705.99,-79.3844 1715.4,-74.5129 1705.01,-72.454 1705.99,-79.3844"/>
</g>
<!-- Node34 -->
<g id="node34" class="node"><title>Node34</title>
<polygon fill="none" stroke="#bfbfbf" points="1806.5,-56.5 1806.5,-75.5 1877.5,-75.5 1877.5,-56.5 1806.5,-56.5"/>
<text text-anchor="middle" x="1842" y="-63.5" font-family="Helvetica,sans-Serif" font-size="10.00">sys/param.h</text>
</g>
<!-- Node7&#45;&gt;Node34 -->
<g id="edge34" class="edge"><title>Node7&#45;&gt;Node34</title>
<path fill="none" stroke="midnightblue" d="M1259.3,-119.235C1358.86,-115.234 1591.16,-103.695 1796.16,-75.9414"/>
<polygon fill="midnightblue" stroke="midnightblue" points="1796.77,-79.3897 1806.2,-74.5648 1795.82,-72.4545 1796.77,-79.3897"/>
</g>
<!-- Node35 -->
<g id="node35" class="node"><title>Node35</title>
<polygon fill="none" stroke="#bfbfbf" points="1896,-56.5 1896,-75.5 2062,-75.5 2062,-56.5 1896,-56.5"/>
<text text-anchor="middle" x="1979" y="-63.5" font-family="Helvetica,sans-Serif" font-size="10.00">CoreFoundation/CoreFoundation.h</text>
</g>
<!-- Node7&#45;&gt;Node35 -->
<g id="edge35" class="edge"><title>Node7&#45;&gt;Node35</title>
<path fill="none" stroke="midnightblue" d="M1259.23,-118.23C1369.3,-111.929 1643.89,-95.599 1885.82,-75.988"/>
<polygon fill="midnightblue" stroke="midnightblue" points="1886.18,-79.4706 1895.86,-75.1706 1885.61,-72.4937 1886.18,-79.4706"/>
</g>
<!-- Node36 -->
<g id="node36" class="node"><title>Node36</title>
<polygon fill="none" stroke="#bfbfbf" points="2080,-56.5 2080,-75.5 2204,-75.5 2204,-56.5 2080,-56.5"/>
<text text-anchor="middle" x="2142" y="-63.5" font-family="Helvetica,sans-Serif" font-size="10.00">emscripten/emscripten.h</text>
</g>
<!-- Node7&#45;&gt;Node36 -->
<g id="edge36" class="edge"><title>Node7&#45;&gt;Node36</title>
<path fill="none" stroke="midnightblue" d="M1259.11,-119.704C1389.4,-115.993 1754.8,-103.819 2069.46,-76.0722"/>
<polygon fill="midnightblue" stroke="midnightblue" points="2070.04,-79.5344 2079.69,-75.1628 2069.42,-72.5619 2070.04,-79.5344"/>
</g>
<!-- Node38 -->
<g id="node38" class="node"><title>Node38</title>
<g id="a_node38"><a xlink:href="_ogre_memory_allocated_object_8h.html" target="_top" xlink:title="OgreMemoryAllocatedObject.h">
<polygon fill="none" stroke="black" points="2510,-56.5 2510,-75.5 2660,-75.5 2660,-56.5 2510,-56.5"/>
<text text-anchor="middle" x="2585" y="-63.5" font-family="Helvetica,sans-Serif" font-size="10.00">OgreMemoryAllocatedObject.h</text>
</a>
</g>
</g>
<!-- Node37&#45;&gt;Node38 -->
<g id="edge38" class="edge"><title>Node37&#45;&gt;Node38</title>
<path fill="none" stroke="midnightblue" d="M2695.24,-112.444C2673.68,-103.557 2639.74,-89.5632 2615.21,-79.4514"/>
<polygon fill="midnightblue" stroke="midnightblue" points="2616.24,-76.0917 2605.66,-75.5164 2613.57,-82.5634 2616.24,-76.0917"/>
</g>
<!-- Node39 -->
<g id="node39" class="node"><title>Node39</title>
<g id="a_node39"><a xlink:href="_ogre_header_prefix_8h.html" target="_top" xlink:title="OgreHeaderPrefix.h">
<polygon fill="none" stroke="black" points="2430.5,-0.5 2430.5,-19.5 2533.5,-19.5 2533.5,-0.5 2430.5,-0.5"/>
<text text-anchor="middle" x="2482" y="-7.5" font-family="Helvetica,sans-Serif" font-size="10.00">OgreHeaderPrefix.h</text>
</a>
</g>
</g>
<!-- Node37&#45;&gt;Node39 -->
<g id="edge42" class="edge"><title>Node37&#45;&gt;Node39</title>
<path fill="none" stroke="midnightblue" d="M2641.79,-113.614C2588.04,-106.798 2521.37,-94.8371 2501,-76 2488.33,-64.2842 2483.94,-44.6378 2482.51,-30.0048"/>
<polygon fill="midnightblue" stroke="midnightblue" points="2485.97,-29.3648 2481.88,-19.5916 2478.99,-29.7827 2485.97,-29.3648"/>
</g>
<!-- Node40 -->
<g id="node40" class="node"><title>Node40</title>
<g id="a_node40"><a xlink:href="_ogre_header_suffix_8h.html" target="_top" xlink:title="OgreHeaderSuffix.h">
<polygon fill="none" stroke="black" points="2786.5,-0.5 2786.5,-19.5 2889.5,-19.5 2889.5,-0.5 2786.5,-0.5"/>
<text text-anchor="middle" x="2838" y="-7.5" font-family="Helvetica,sans-Serif" font-size="10.00">OgreHeaderSuffix.h</text>
</a>
</g>
</g>
<!-- Node37&#45;&gt;Node40 -->
<g id="edge50" class="edge"><title>Node37&#45;&gt;Node40</title>
<path fill="none" stroke="midnightblue" d="M2754.65,-112.384C2776.04,-105.762 2801.54,-94.5125 2818,-76 2829.39,-63.1908 2834.3,-44.0038 2836.41,-29.7932"/>
<polygon fill="midnightblue" stroke="midnightblue" points="2839.9,-30.0151 2837.57,-19.6804 2832.95,-29.2144 2839.9,-30.0151"/>
</g>
<!-- Node41 -->
<g id="node41" class="node"><title>Node41</title>
<g id="a_node41"><a xlink:href="_ogre_memory_s_t_l_allocator_8h.html" target="_top" xlink:title="OgreMemorySTLAllocator.h">
<polygon fill="none" stroke="black" points="2866.5,-56.5 2866.5,-75.5 3003.5,-75.5 3003.5,-56.5 2866.5,-56.5"/>
<text text-anchor="middle" x="2935" y="-63.5" font-family="Helvetica,sans-Serif" font-size="10.00">OgreMemorySTLAllocator.h</text>
</a>
</g>
</g>
<!-- Node37&#45;&gt;Node41 -->
<g id="edge43" class="edge"><title>Node37&#45;&gt;Node41</title>
<path fill="none" stroke="midnightblue" d="M2750.7,-112.444C2788.58,-103.102 2849.35,-88.1194 2890.66,-77.9326"/>
<polygon fill="midnightblue" stroke="midnightblue" points="2891.59,-81.3088 2900.46,-75.5164 2889.91,-74.5123 2891.59,-81.3088"/>
</g>
<!-- Node42 -->
<g id="node42" class="node"><title>Node42</title>
<g id="a_node42"><a xlink:href="_ogre_memory_ned_pooling_8h.html" target="_top" xlink:title="OgreMemoryNedPooling.h">
<polygon fill="none" stroke="black" points="2678.5,-56.5 2678.5,-75.5 2809.5,-75.5 2809.5,-56.5 2678.5,-56.5"/>
<text text-anchor="middle" x="2744" y="-63.5" font-family="Helvetica,sans-Serif" font-size="10.00">OgreMemoryNedPooling.h</text>
</a>
</g>
</g>
<!-- Node37&#45;&gt;Node42 -->
<g id="edge47" class="edge"><title>Node37&#45;&gt;Node42</title>
<path fill="none" stroke="midnightblue" d="M2720.62,-112.083C2724.46,-104.691 2730.02,-93.9533 2734.76,-84.8111"/>
<polygon fill="midnightblue" stroke="midnightblue" points="2737.97,-86.2398 2739.46,-75.7511 2731.75,-83.0175 2737.97,-86.2398"/>
</g>
<!-- Node38&#45;&gt;Node3 -->
<g id="edge39" class="edge"><title>Node38&#45;&gt;Node3</title>
<path fill="none" stroke="midnightblue" d="M2590.97,-75.5992C2599.83,-88.22 2617.1,-112.387 2633,-132 2640.9,-141.743 2650.18,-152.239 2657.82,-160.642"/>
<polygon fill="midnightblue" stroke="midnightblue" points="2655.45,-163.239 2664.79,-168.242 2660.61,-158.507 2655.45,-163.239"/>
</g>
<!-- Node38&#45;&gt;Node39 -->
<g id="edge40" class="edge"><title>Node38&#45;&gt;Node39</title>
<path fill="none" stroke="midnightblue" d="M2568.45,-56.324C2552.01,-47.7034 2526.57,-34.3643 2507.53,-24.3855"/>
<polygon fill="midnightblue" stroke="midnightblue" points="2508.99,-21.198 2498.51,-19.6545 2505.74,-27.3977 2508.99,-21.198"/>
</g>
<!-- Node38&#45;&gt;Node40 -->
<g id="edge41" class="edge"><title>Node38&#45;&gt;Node40</title>
<path fill="none" stroke="midnightblue" d="M2625.09,-56.4435C2669.32,-47.0036 2740.54,-31.802 2788.28,-21.6111"/>
<polygon fill="midnightblue" stroke="midnightblue" points="2789.05,-25.0268 2798.1,-19.5164 2787.59,-18.181 2789.05,-25.0268"/>
</g>
<!-- Node41&#45;&gt;Node3 -->
<g id="edge44" class="edge"><title>Node41&#45;&gt;Node3</title>
<path fill="none" stroke="midnightblue" d="M2918.5,-75.5657C2893.16,-88.5656 2842.97,-113.697 2799,-132 2769.09,-144.451 2734.37,-156.693 2708.96,-165.258"/>
<polygon fill="midnightblue" stroke="midnightblue" points="2707.73,-161.975 2699.36,-168.466 2709.95,-168.614 2707.73,-161.975"/>
</g>
<!-- Node41&#45;&gt;Node39 -->
<g id="edge45" class="edge"><title>Node41&#45;&gt;Node39</title>
<path fill="none" stroke="midnightblue" d="M2866.2,-56.7986C2778.44,-46.3367 2627.96,-28.3994 2543.73,-18.3586"/>
<polygon fill="midnightblue" stroke="midnightblue" points="2544.14,-14.8827 2533.8,-17.1743 2543.31,-21.8335 2544.14,-14.8827"/>
</g>
<!-- Node41&#45;&gt;Node40 -->
<g id="edge46" class="edge"><title>Node41&#45;&gt;Node40</title>
<path fill="none" stroke="midnightblue" d="M2919.42,-56.324C2904,-47.7428 2880.19,-34.486 2862.29,-24.5224"/>
<polygon fill="midnightblue" stroke="midnightblue" points="2863.99,-21.4606 2853.55,-19.6545 2860.58,-27.5767 2863.99,-21.4606"/>
</g>
<!-- Node42&#45;&gt;Node39 -->
<g id="edge48" class="edge"><title>Node42&#45;&gt;Node39</title>
<path fill="none" stroke="midnightblue" d="M2702.49,-56.4435C2656.59,-46.9839 2582.62,-31.7384 2533.17,-21.5472"/>
<polygon fill="midnightblue" stroke="midnightblue" points="2533.82,-18.1072 2523.32,-19.5164 2532.41,-24.9631 2533.82,-18.1072"/>
</g>
<!-- Node42&#45;&gt;Node40 -->
<g id="edge49" class="edge"><title>Node42&#45;&gt;Node40</title>
<path fill="none" stroke="midnightblue" d="M2759.1,-56.324C2773.9,-47.8215 2796.69,-34.7288 2813.98,-24.7975"/>
<polygon fill="midnightblue" stroke="midnightblue" points="2816.01,-27.6707 2822.93,-19.6545 2812.52,-21.6009 2816.01,-27.6707"/>
</g>
<!-- Node43&#45;&gt;Node3 -->
<g id="edge52" class="edge"><title>Node43&#45;&gt;Node3</title>
<path fill="none" stroke="midnightblue" d="M2710.02,-280.372C2719.42,-267.715 2733.91,-243.504 2725,-224 2719.22,-211.36 2707.95,-200.911 2697.37,-193.274"/>
<polygon fill="midnightblue" stroke="midnightblue" points="2699.04,-190.182 2688.78,-187.533 2695.15,-196.001 2699.04,-190.182"/>
</g>
<!-- Node43&#45;&gt;Node39 -->
<g id="edge62" class="edge"><title>Node43&#45;&gt;Node39</title>
<path fill="none" stroke="midnightblue" d="M2653.48,-288.323C2286.22,-283.141 0,-248.11 0,-179 0,-179 0,-179 0,-121 0,-84.8221 16.7723,-72.4382 49,-56 103.427,-28.2387 2047.26,-13.898 2420.41,-11.3978"/>
<polygon fill="midnightblue" stroke="midnightblue" points="2420.5,-14.8974 2430.47,-11.3307 2420.45,-7.89754 2420.5,-14.8974"/>
</g>
<!-- Node43&#45;&gt;Node40 -->
<g id="edge63" class="edge"><title>Node43&#45;&gt;Node40</title>
<path fill="none" stroke="midnightblue" d="M2739.46,-280.489C2815.07,-260.461 2985.57,-202.22 3030,-76 3032.95,-67.6154 3035.52,-62.9657 3030,-56 3013.88,-35.669 2949.55,-23.6387 2899.75,-17.2065"/>
<polygon fill="midnightblue" stroke="midnightblue" points="2900.04,-13.7156 2889.68,-15.956 2899.17,-20.6622 2900.04,-13.7156"/>
</g>
<!-- Node44 -->
<g id="node44" class="node"><title>Node44</title>
<g id="a_node44"><a xlink:href="_ogre_log_8h.html" target="_top" xlink:title="OgreLog.h">
<polygon fill="none" stroke="red" points="2550,-224.5 2550,-243.5 2612,-243.5 2612,-224.5 2550,-224.5"/>
<text text-anchor="middle" x="2581" y="-231.5" font-family="Helvetica,sans-Serif" font-size="10.00">OgreLog.h</text>
</a>
</g>
</g>
<!-- Node43&#45;&gt;Node44 -->
<g id="edge53" class="edge"><title>Node43&#45;&gt;Node44</title>
<path fill="none" stroke="midnightblue" d="M2683.67,-280.444C2663.68,-271.596 2632.26,-257.687 2609.44,-247.586"/>
<polygon fill="midnightblue" stroke="midnightblue" points="2610.8,-244.363 2600.24,-243.516 2607.97,-250.764 2610.8,-244.363"/>
</g>
<!-- Node46 -->
<g id="node46" class="node"><title>Node46</title>
<g id="a_node46"><a xlink:href="_ogre_singleton_8h.html" target="_top" xlink:title="OgreSingleton.h">
<polygon fill="none" stroke="black" points="2630,-224.5 2630,-243.5 2716,-243.5 2716,-224.5 2630,-224.5"/>
<text text-anchor="middle" x="2673" y="-231.5" font-family="Helvetica,sans-Serif" font-size="10.00">OgreSingleton.h</text>
</a>
</g>
</g>
<!-- Node43&#45;&gt;Node46 -->
<g id="edge60" class="edge"><title>Node43&#45;&gt;Node46</title>
<path fill="none" stroke="midnightblue" d="M2698.05,-280.083C2693.9,-272.613 2687.85,-261.724 2682.73,-252.52"/>
<polygon fill="midnightblue" stroke="midnightblue" points="2685.78,-250.793 2677.86,-243.751 2679.66,-254.192 2685.78,-250.793"/>
</g>
<!-- Node44&#45;&gt;Node3 -->
<g id="edge54" class="edge"><title>Node44&#45;&gt;Node3</title>
<path fill="none" stroke="midnightblue" d="M2595.78,-224.324C2610.27,-215.822 2632.57,-202.729 2649.49,-192.797"/>
<polygon fill="midnightblue" stroke="midnightblue" points="2651.4,-195.735 2658.26,-187.655 2647.86,-189.698 2651.4,-195.735"/>
</g>
<!-- Node44&#45;&gt;Node39 -->
<g id="edge58" class="edge"><title>Node44&#45;&gt;Node39</title>
<path fill="none" stroke="midnightblue" d="M2549.89,-232.953C2356.71,-232.364 1301.66,-224.851 448,-132 273.478,-113.018 171.998,-208.641 57,-76 51.1772,-69.2838 50.7732,-62.3434 57,-56 99.6597,-12.5414 2046.46,-10.8806 2420.29,-10.9628"/>
<polygon fill="midnightblue" stroke="midnightblue" points="2420.37,-14.4627 2430.37,-10.9655 2420.37,-7.46274 2420.37,-14.4627"/>
</g>
<!-- Node44&#45;&gt;Node40 -->
<g id="edge59" class="edge"><title>Node44&#45;&gt;Node40</title>
<path fill="none" stroke="midnightblue" d="M2612.13,-224.707C2643.05,-216.255 2691.67,-202.378 2733,-188 2859.2,-144.097 2937.16,-186.691 3012,-76 3041.81,-31.9054 2960.84,-17.6502 2899.56,-13.0867"/>
<polygon fill="midnightblue" stroke="midnightblue" points="2899.74,-9.59115 2889.53,-12.4112 2899.27,-16.5753 2899.74,-9.59115"/>
</g>
<!-- Node45 -->
<g id="node45" class="node"><title>Node45</title>
<g id="a_node45"><a xlink:href="_ogre_common_8h.html" target="_top" xlink:title="OgreCommon.h">
<polygon fill="none" stroke="black" points="66,-56.5 66,-75.5 152,-75.5 152,-56.5 66,-56.5"/>
<text text-anchor="middle" x="109" y="-63.5" font-family="Helvetica,sans-Serif" font-size="10.00">OgreCommon.h</text>
</a>
</g>
</g>
<!-- Node44&#45;&gt;Node45 -->
<g id="edge55" class="edge"><title>Node44&#45;&gt;Node45</title>
<path fill="none" stroke="midnightblue" d="M2549.92,-231.979C2369.5,-225.925 1438.72,-192.895 681,-132 452.581,-113.643 392.875,-108.429 162.146,-76.0885"/>
<polygon fill="midnightblue" stroke="midnightblue" points="162.486,-72.6021 152.097,-74.6781 161.513,-79.5341 162.486,-72.6021"/>
</g>
<!-- Node45&#45;&gt;Node39 -->
<g id="edge56" class="edge"><title>Node45&#45;&gt;Node39</title>
<path fill="none" stroke="midnightblue" d="M152.062,-57.0281C155.08,-56.6293 158.081,-56.2792 161,-56 617.914,-12.2857 2099.19,-10.7365 2420.25,-10.9263"/>
<polygon fill="midnightblue" stroke="midnightblue" points="2420.29,-14.4262 2430.29,-10.933 2420.3,-7.42621 2420.29,-14.4262"/>
</g>
<!-- Node45&#45;&gt;Node40 -->
<g id="edge57" class="edge"><title>Node45&#45;&gt;Node40</title>
<path fill="none" stroke="midnightblue" d="M152.061,-57.0138C155.079,-56.6184 158.081,-56.273 161,-56 687.873,-6.72685 2012.97,-32.0415 2542,-20 2623.02,-18.1559 2716.49,-15.1705 2776.36,-13.1485"/>
<polygon fill="midnightblue" stroke="midnightblue" points="2776.53,-16.6449 2786.41,-12.8076 2776.29,-9.64888 2776.53,-16.6449"/>
</g>
<!-- Node46&#45;&gt;Node3 -->
<g id="edge61" class="edge"><title>Node46&#45;&gt;Node3</title>
<path fill="none" stroke="midnightblue" d="M2673,-224.083C2673,-217.006 2673,-206.861 2673,-197.986"/>
<polygon fill="midnightblue" stroke="midnightblue" points="2676.5,-197.751 2673,-187.751 2669.5,-197.751 2676.5,-197.751"/>
</g>
<!-- Node50&#45;&gt;Node3 -->
<g id="edge68" class="edge"><title>Node50&#45;&gt;Node3</title>
<path fill="none" stroke="midnightblue" d="M3195.28,-336.116C3195.2,-322.228 3192.97,-295.377 3178,-280 3117.16,-217.523 2855.83,-191.617 2734.87,-182.824"/>
<polygon fill="midnightblue" stroke="midnightblue" points="2734.89,-179.316 2724.66,-182.098 2734.39,-186.298 2734.89,-179.316"/>
</g>
</g>
</svg>
