<?xml version="1.0" encoding="UTF-8" standalone="no"?>
<!DOCTYPE svg PUBLIC "-//W3C//DTD SVG 1.1//EN"
 "http://www.w3.org/Graphics/SVG/1.1/DTD/svg11.dtd">
<!-- Generated by graphviz version 2.38.0 (20140413.2041)
 -->
<!-- Title: OgreDistanceLodStrategy.h Pages: 1 -->
<svg width="3290pt" height="476pt"
 viewBox="0.00 0.00 3290.00 476.00" xmlns="http://www.w3.org/2000/svg" xmlns:xlink="http://www.w3.org/1999/xlink">
<g id="graph0" class="graph" transform="scale(1 1) rotate(0) translate(4 472)">
<title>OgreDistanceLodStrategy.h</title>
<!-- Node1 -->
<g id="node1" class="node"><title>Node1</title>
<polygon fill="#bfbfbf" stroke="black" points="3123.5,-448.5 3123.5,-467.5 3260.5,-467.5 3260.5,-448.5 3123.5,-448.5"/>
<text text-anchor="middle" x="3192" y="-455.5" font-family="Helvetica,sans-Serif" font-size="10.00">OgreDistanceLodStrategy.h</text>
</g>
<!-- Node2 -->
<g id="node2" class="node"><title>Node2</title>
<g id="a_node2"><a xlink:href="_ogre_prerequisites_8h.html" target="_top" xlink:title="OgrePrerequisites.h">
<polygon fill="none" stroke="black" points="2669.5,-168.5 2669.5,-187.5 2772.5,-187.5 2772.5,-168.5 2669.5,-168.5"/>
<text text-anchor="middle" x="2721" y="-175.5" font-family="Helvetica,sans-Serif" font-size="10.00">OgrePrerequisites.h</text>
</a>
</g>
</g>
<!-- Node1&#45;&gt;Node2 -->
<g id="edge1" class="edge"><title>Node1&#45;&gt;Node2</title>
<path fill="none" stroke="midnightblue" d="M3200.64,-448.326C3219.15,-428.634 3259.75,-378.93 3244,-336 3221.51,-274.723 3206.71,-254.491 3149,-224 3087.05,-191.269 2886.13,-182.344 2783.13,-179.911"/>
<polygon fill="midnightblue" stroke="midnightblue" points="2782.95,-176.406 2772.88,-179.683 2782.8,-183.404 2782.95,-176.406"/>
</g>
<!-- Node42 -->
<g id="node42" class="node"><title>Node42</title>
<g id="a_node42"><a xlink:href="_ogre_lod_strategy_8h.html" target="_top" xlink:title="OgreLodStrategy.h">
<polygon fill="none" stroke="black" points="2592,-392.5 2592,-411.5 2690,-411.5 2690,-392.5 2592,-392.5"/>
<text text-anchor="middle" x="2641" y="-399.5" font-family="Helvetica,sans-Serif" font-size="10.00">OgreLodStrategy.h</text>
</a>
</g>
</g>
<!-- Node1&#45;&gt;Node42 -->
<g id="edge50" class="edge"><title>Node1&#45;&gt;Node42</title>
<path fill="none" stroke="midnightblue" d="M3123.33,-450.27C3014.28,-439.582 2803.33,-418.909 2700.4,-408.821"/>
<polygon fill="midnightblue" stroke="midnightblue" points="2700.48,-405.312 2690.18,-407.82 2699.79,-412.279 2700.48,-405.312"/>
</g>
<!-- Node50 -->
<g id="node50" class="node"><title>Node50</title>
<g id="a_node50"><a xlink:href="_ogre_singleton_8h.html" target="_top" xlink:title="OgreSingleton.h">
<polygon fill="none" stroke="black" points="3149,-336.5 3149,-355.5 3235,-355.5 3235,-336.5 3149,-336.5"/>
<text text-anchor="middle" x="3192" y="-343.5" font-family="Helvetica,sans-Serif" font-size="10.00">OgreSingleton.h</text>
</a>
</g>
</g>
<!-- Node1&#45;&gt;Node50 -->
<g id="edge80" class="edge"><title>Node1&#45;&gt;Node50</title>
<path fill="none" stroke="midnightblue" d="M3192,-448.368C3192,-430.617 3192,-389.666 3192,-365.597"/>
<polygon fill="midnightblue" stroke="midnightblue" points="3195.5,-365.591 3192,-355.591 3188.5,-365.591 3195.5,-365.591"/>
</g>
<!-- Node3 -->
<g id="node3" class="node"><title>Node3</title>
<g id="a_node3"><a xlink:href="_ogre_platform_8h.html" target="_top" xlink:title="OgrePlatform.h">
<polygon fill="none" stroke="black" points="520.5,-112.5 520.5,-131.5 603.5,-131.5 603.5,-112.5 520.5,-112.5"/>
<text text-anchor="middle" x="562" y="-119.5" font-family="Helvetica,sans-Serif" font-size="10.00">OgrePlatform.h</text>
</a>
</g>
</g>
<!-- Node2&#45;&gt;Node3 -->
<g id="edge2" class="edge"><title>Node2&#45;&gt;Node3</title>
<path fill="none" stroke="midnightblue" d="M2669.5,-175.712C2375.25,-168.352 909.717,-131.697 614.043,-124.302"/>
<polygon fill="midnightblue" stroke="midnightblue" points="613.706,-120.792 603.621,-124.041 613.531,-127.79 613.706,-120.792"/>
</g>
<!-- Node5 -->
<g id="node5" class="node"><title>Node5</title>
<polygon fill="none" stroke="#bfbfbf" points="310.5,-56.5 310.5,-75.5 351.5,-75.5 351.5,-56.5 310.5,-56.5"/>
<text text-anchor="middle" x="331" y="-63.5" font-family="Helvetica,sans-Serif" font-size="10.00">string</text>
</g>
<!-- Node2&#45;&gt;Node5 -->
<g id="edge4" class="edge"><title>Node2&#45;&gt;Node5</title>
<path fill="none" stroke="midnightblue" d="M2669.28,-176.562C2369.14,-173.751 847.892,-155.81 361.716,-75.6225"/>
<polygon fill="midnightblue" stroke="midnightblue" points="362.267,-72.1661 351.825,-73.9578 361.106,-79.069 362.267,-72.1661"/>
</g>
<!-- Node6 -->
<g id="node6" class="node"><title>Node6</title>
<g id="a_node6"><a xlink:href="_ogre_std_headers_8h.html" target="_top" xlink:title="OgreStdHeaders.h">
<polygon fill="none" stroke="black" points="1565,-112.5 1565,-131.5 1663,-131.5 1663,-112.5 1565,-112.5"/>
<text text-anchor="middle" x="1614" y="-119.5" font-family="Helvetica,sans-Serif" font-size="10.00">OgreStdHeaders.h</text>
</a>
</g>
</g>
<!-- Node2&#45;&gt;Node6 -->
<g id="edge5" class="edge"><title>Node2&#45;&gt;Node6</title>
<path fill="none" stroke="midnightblue" d="M2669.46,-174.486C2486.32,-165.552 1867.54,-135.368 1673.03,-125.88"/>
<polygon fill="midnightblue" stroke="midnightblue" points="1673.16,-122.382 1663,-125.39 1672.82,-129.373 1673.16,-122.382"/>
</g>
<!-- Node36 -->
<g id="node36" class="node"><title>Node36</title>
<g id="a_node36"><a xlink:href="_ogre_memory_allocator_config_8h.html" target="_top" xlink:title="This file configures Ogre&#39;s memory allocators. ">
<polygon fill="none" stroke="black" points="2678,-112.5 2678,-131.5 2826,-131.5 2826,-112.5 2678,-112.5"/>
<text text-anchor="middle" x="2752" y="-119.5" font-family="Helvetica,sans-Serif" font-size="10.00">OgreMemoryAllocatorConfig.h</text>
</a>
</g>
</g>
<!-- Node2&#45;&gt;Node36 -->
<g id="edge36" class="edge"><title>Node2&#45;&gt;Node36</title>
<path fill="none" stroke="midnightblue" d="M2726.12,-168.083C2730.41,-160.613 2736.66,-149.724 2741.94,-140.52"/>
<polygon fill="midnightblue" stroke="midnightblue" points="2745.03,-142.166 2746.98,-131.751 2738.96,-138.681 2745.03,-142.166"/>
</g>
<!-- Node4 -->
<g id="node4" class="node"><title>Node4</title>
<g id="a_node4"><a xlink:href="_ogre_config_8h.html" target="_top" xlink:title="OgreConfig.h">
<polygon fill="none" stroke="red" points="218,-56.5 218,-75.5 292,-75.5 292,-56.5 218,-56.5"/>
<text text-anchor="middle" x="255" y="-63.5" font-family="Helvetica,sans-Serif" font-size="10.00">OgreConfig.h</text>
</a>
</g>
</g>
<!-- Node3&#45;&gt;Node4 -->
<g id="edge3" class="edge"><title>Node3&#45;&gt;Node4</title>
<path fill="none" stroke="midnightblue" d="M520.361,-114.117C470.769,-105.855 385.165,-91.3848 302.007,-76.1539"/>
<polygon fill="midnightblue" stroke="midnightblue" points="302.611,-72.7064 292.143,-74.3415 301.346,-79.5912 302.611,-72.7064"/>
</g>
<!-- Node6&#45;&gt;Node5 -->
<g id="edge15" class="edge"><title>Node6&#45;&gt;Node5</title>
<path fill="none" stroke="midnightblue" d="M1564.87,-119.587C1348.14,-113.309 483.324,-87.7895 361.861,-75.2671"/>
<polygon fill="midnightblue" stroke="midnightblue" points="362.182,-71.7798 351.82,-73.9879 361.298,-78.7237 362.182,-71.7798"/>
</g>
<!-- Node7 -->
<g id="node7" class="node"><title>Node7</title>
<polygon fill="none" stroke="#bfbfbf" points="1340.5,-56.5 1340.5,-75.5 1389.5,-75.5 1389.5,-56.5 1340.5,-56.5"/>
<text text-anchor="middle" x="1365" y="-63.5" font-family="Helvetica,sans-Serif" font-size="10.00">cassert</text>
</g>
<!-- Node6&#45;&gt;Node7 -->
<g id="edge6" class="edge"><title>Node6&#45;&gt;Node7</title>
<path fill="none" stroke="midnightblue" d="M1569.14,-112.482C1527.47,-104.384 1463.48,-91.4783 1399.65,-76.2995"/>
<polygon fill="midnightblue" stroke="midnightblue" points="1400.36,-72.8718 1389.82,-73.9442 1398.73,-79.679 1400.36,-72.8718"/>
</g>
<!-- Node8 -->
<g id="node8" class="node"><title>Node8</title>
<polygon fill="none" stroke="#bfbfbf" points="1407.5,-56.5 1407.5,-75.5 1450.5,-75.5 1450.5,-56.5 1407.5,-56.5"/>
<text text-anchor="middle" x="1429" y="-63.5" font-family="Helvetica,sans-Serif" font-size="10.00">cstdio</text>
</g>
<!-- Node6&#45;&gt;Node8 -->
<g id="edge7" class="edge"><title>Node6&#45;&gt;Node8</title>
<path fill="none" stroke="midnightblue" d="M1584.26,-112.452C1554.99,-104.019 1508.77,-90.6541 1460.34,-76.3781"/>
<polygon fill="midnightblue" stroke="midnightblue" points="1461.2,-72.9854 1450.62,-73.512 1459.22,-79.6992 1461.2,-72.9854"/>
</g>
<!-- Node9 -->
<g id="node9" class="node"><title>Node9</title>
<polygon fill="none" stroke="#bfbfbf" points="1468.5,-56.5 1468.5,-75.5 1513.5,-75.5 1513.5,-56.5 1468.5,-56.5"/>
<text text-anchor="middle" x="1491" y="-63.5" font-family="Helvetica,sans-Serif" font-size="10.00">cstdlib</text>
</g>
<!-- Node6&#45;&gt;Node9 -->
<g id="edge8" class="edge"><title>Node6&#45;&gt;Node9</title>
<path fill="none" stroke="midnightblue" d="M1594.51,-112.444C1574.36,-103.596 1542.68,-89.6875 1519.67,-79.5865"/>
<polygon fill="midnightblue" stroke="midnightblue" points="1520.96,-76.3316 1510.4,-75.5164 1518.15,-82.7411 1520.96,-76.3316"/>
</g>
<!-- Node10 -->
<g id="node10" class="node"><title>Node10</title>
<polygon fill="none" stroke="#bfbfbf" points="1531.5,-56.5 1531.5,-75.5 1572.5,-75.5 1572.5,-56.5 1531.5,-56.5"/>
<text text-anchor="middle" x="1552" y="-63.5" font-family="Helvetica,sans-Serif" font-size="10.00">ctime</text>
</g>
<!-- Node6&#45;&gt;Node10 -->
<g id="edge9" class="edge"><title>Node6&#45;&gt;Node10</title>
<path fill="none" stroke="midnightblue" d="M1604.04,-112.324C1594.87,-104.341 1581.06,-92.3128 1569.97,-82.6529"/>
<polygon fill="midnightblue" stroke="midnightblue" points="1571.98,-79.7624 1562.14,-75.8339 1567.38,-85.041 1571.98,-79.7624"/>
</g>
<!-- Node11 -->
<g id="node11" class="node"><title>Node11</title>
<polygon fill="none" stroke="#bfbfbf" points="1591,-56.5 1591,-75.5 1637,-75.5 1637,-56.5 1591,-56.5"/>
<text text-anchor="middle" x="1614" y="-63.5" font-family="Helvetica,sans-Serif" font-size="10.00">cstring</text>
</g>
<!-- Node6&#45;&gt;Node11 -->
<g id="edge10" class="edge"><title>Node6&#45;&gt;Node11</title>
<path fill="none" stroke="midnightblue" d="M1614,-112.083C1614,-105.006 1614,-94.8611 1614,-85.9865"/>
<polygon fill="midnightblue" stroke="midnightblue" points="1617.5,-85.751 1614,-75.7511 1610.5,-85.7511 1617.5,-85.751"/>
</g>
<!-- Node12 -->
<g id="node12" class="node"><title>Node12</title>
<polygon fill="none" stroke="#bfbfbf" points="1655.5,-56.5 1655.5,-75.5 1704.5,-75.5 1704.5,-56.5 1655.5,-56.5"/>
<text text-anchor="middle" x="1680" y="-63.5" font-family="Helvetica,sans-Serif" font-size="10.00">cstdarg</text>
</g>
<!-- Node6&#45;&gt;Node12 -->
<g id="edge11" class="edge"><title>Node6&#45;&gt;Node12</title>
<path fill="none" stroke="midnightblue" d="M1624.6,-112.324C1634.46,-104.263 1649.35,-92.0765 1661.22,-82.3695"/>
<polygon fill="midnightblue" stroke="midnightblue" points="1663.68,-84.8752 1669.2,-75.8339 1659.25,-79.4575 1663.68,-84.8752"/>
</g>
<!-- Node13 -->
<g id="node13" class="node"><title>Node13</title>
<polygon fill="none" stroke="#bfbfbf" points="1723,-56.5 1723,-75.5 1767,-75.5 1767,-56.5 1723,-56.5"/>
<text text-anchor="middle" x="1745" y="-63.5" font-family="Helvetica,sans-Serif" font-size="10.00">cmath</text>
</g>
<!-- Node6&#45;&gt;Node13 -->
<g id="edge12" class="edge"><title>Node6&#45;&gt;Node13</title>
<path fill="none" stroke="midnightblue" d="M1634.76,-112.444C1656.32,-103.557 1690.26,-89.5632 1714.79,-79.4514"/>
<polygon fill="midnightblue" stroke="midnightblue" points="1716.43,-82.5634 1724.34,-75.5164 1713.76,-76.0917 1716.43,-82.5634"/>
</g>
<!-- Node14 -->
<g id="node14" class="node"><title>Node14</title>
<polygon fill="none" stroke="#bfbfbf" points="1785,-56.5 1785,-75.5 1829,-75.5 1829,-56.5 1785,-56.5"/>
<text text-anchor="middle" x="1807" y="-63.5" font-family="Helvetica,sans-Serif" font-size="10.00">vector</text>
</g>
<!-- Node6&#45;&gt;Node14 -->
<g id="edge13" class="edge"><title>Node6&#45;&gt;Node14</title>
<path fill="none" stroke="midnightblue" d="M1645.09,-112.48C1675.75,-104.052 1724.19,-90.6664 1775.12,-76.227"/>
<polygon fill="midnightblue" stroke="midnightblue" points="1776.33,-79.5219 1784.99,-73.4231 1774.42,-72.7881 1776.33,-79.5219"/>
</g>
<!-- Node15 -->
<g id="node15" class="node"><title>Node15</title>
<polygon fill="none" stroke="#bfbfbf" points="1847.5,-56.5 1847.5,-75.5 1882.5,-75.5 1882.5,-56.5 1847.5,-56.5"/>
<text text-anchor="middle" x="1865" y="-63.5" font-family="Helvetica,sans-Serif" font-size="10.00">map</text>
</g>
<!-- Node6&#45;&gt;Node15 -->
<g id="edge14" class="edge"><title>Node6&#45;&gt;Node15</title>
<path fill="none" stroke="midnightblue" d="M1663.34,-112.894C1706.86,-105.34 1772.11,-93.0285 1837.7,-75.7995"/>
<polygon fill="midnightblue" stroke="midnightblue" points="1838.61,-79.1781 1847.38,-73.2219 1836.81,-72.414 1838.61,-79.1781"/>
</g>
<!-- Node16 -->
<g id="node16" class="node"><title>Node16</title>
<polygon fill="none" stroke="#bfbfbf" points="1901,-56.5 1901,-75.5 1931,-75.5 1931,-56.5 1901,-56.5"/>
<text text-anchor="middle" x="1916" y="-63.5" font-family="Helvetica,sans-Serif" font-size="10.00">set</text>
</g>
<!-- Node6&#45;&gt;Node16 -->
<g id="edge16" class="edge"><title>Node6&#45;&gt;Node16</title>
<path fill="none" stroke="midnightblue" d="M1663.1,-115.799C1718.92,-109.25 1812.47,-96.3288 1891,-76 1891.1,-75.974 1891.2,-75.9477 1891.3,-75.9213"/>
<polygon fill="midnightblue" stroke="midnightblue" points="1892.29,-79.2797 1900.8,-72.9748 1890.22,-72.5938 1892.29,-79.2797"/>
</g>
<!-- Node17 -->
<g id="node17" class="node"><title>Node17</title>
<polygon fill="none" stroke="#bfbfbf" points="1949.5,-56.5 1949.5,-75.5 1978.5,-75.5 1978.5,-56.5 1949.5,-56.5"/>
<text text-anchor="middle" x="1964" y="-63.5" font-family="Helvetica,sans-Serif" font-size="10.00">list</text>
</g>
<!-- Node6&#45;&gt;Node17 -->
<g id="edge17" class="edge"><title>Node6&#45;&gt;Node17</title>
<path fill="none" stroke="midnightblue" d="M1663.25,-117.617C1725.65,-112.582 1836.43,-101.144 1939.49,-75.5657"/>
<polygon fill="midnightblue" stroke="midnightblue" points="1940.61,-78.8943 1949.44,-73.046 1938.89,-72.1086 1940.61,-78.8943"/>
</g>
<!-- Node18 -->
<g id="node18" class="node"><title>Node18</title>
<polygon fill="none" stroke="#bfbfbf" points="1996.5,-56.5 1996.5,-75.5 2039.5,-75.5 2039.5,-56.5 1996.5,-56.5"/>
<text text-anchor="middle" x="2018" y="-63.5" font-family="Helvetica,sans-Serif" font-size="10.00">deque</text>
</g>
<!-- Node6&#45;&gt;Node18 -->
<g id="edge18" class="edge"><title>Node6&#45;&gt;Node18</title>
<path fill="none" stroke="midnightblue" d="M1663.29,-117.618C1733.16,-112.261 1865.09,-100.076 1986.59,-75.7505"/>
<polygon fill="midnightblue" stroke="midnightblue" points="1987.33,-79.1708 1996.43,-73.7474 1985.93,-72.3113 1987.33,-79.1708"/>
</g>
<!-- Node19 -->
<g id="node19" class="node"><title>Node19</title>
<polygon fill="none" stroke="#bfbfbf" points="2057.5,-56.5 2057.5,-75.5 2100.5,-75.5 2100.5,-56.5 2057.5,-56.5"/>
<text text-anchor="middle" x="2079" y="-63.5" font-family="Helvetica,sans-Serif" font-size="10.00">queue</text>
</g>
<!-- Node6&#45;&gt;Node19 -->
<g id="edge19" class="edge"><title>Node6&#45;&gt;Node19</title>
<path fill="none" stroke="midnightblue" d="M1663.24,-118.771C1742.35,-114.564 1902.68,-103.457 2047.49,-75.7321"/>
<polygon fill="midnightblue" stroke="midnightblue" points="2048.29,-79.1405 2057.44,-73.7946 2046.96,-72.2694 2048.29,-79.1405"/>
</g>
<!-- Node20 -->
<g id="node20" class="node"><title>Node20</title>
<polygon fill="none" stroke="#bfbfbf" points="2118.5,-56.5 2118.5,-75.5 2159.5,-75.5 2159.5,-56.5 2118.5,-56.5"/>
<text text-anchor="middle" x="2139" y="-63.5" font-family="Helvetica,sans-Serif" font-size="10.00">bitset</text>
</g>
<!-- Node6&#45;&gt;Node20 -->
<g id="edge20" class="edge"><title>Node6&#45;&gt;Node20</title>
<path fill="none" stroke="midnightblue" d="M1663.29,-119.789C1751.07,-116.924 1940.24,-107.552 2108.45,-75.6802"/>
<polygon fill="midnightblue" stroke="midnightblue" points="2109.32,-79.0772 2118.48,-73.7486 2108,-72.2035 2109.32,-79.0772"/>
</g>
<!-- Node21 -->
<g id="node21" class="node"><title>Node21</title>
<polygon fill="none" stroke="#bfbfbf" points="2178,-56.5 2178,-75.5 2234,-75.5 2234,-56.5 2178,-56.5"/>
<text text-anchor="middle" x="2206" y="-63.5" font-family="Helvetica,sans-Serif" font-size="10.00">algorithm</text>
</g>
<!-- Node6&#45;&gt;Node21 -->
<g id="edge21" class="edge"><title>Node6&#45;&gt;Node21</title>
<path fill="none" stroke="midnightblue" d="M1663.21,-119.504C1760.28,-116.003 1983.09,-105.234 2168,-76 2168.1,-75.9841 2168.2,-75.9681 2168.3,-75.952"/>
<polygon fill="midnightblue" stroke="midnightblue" points="2168.69,-79.4408 2177.87,-74.163 2167.4,-72.56 2168.69,-79.4408"/>
</g>
<!-- Node22 -->
<g id="node22" class="node"><title>Node22</title>
<polygon fill="none" stroke="#bfbfbf" points="2252.5,-56.5 2252.5,-75.5 2311.5,-75.5 2311.5,-56.5 2252.5,-56.5"/>
<text text-anchor="middle" x="2282" y="-63.5" font-family="Helvetica,sans-Serif" font-size="10.00">functional</text>
</g>
<!-- Node6&#45;&gt;Node22 -->
<g id="edge22" class="edge"><title>Node6&#45;&gt;Node22</title>
<path fill="none" stroke="midnightblue" d="M1663.22,-120.076C1767.98,-117.55 2020.83,-108.483 2242.1,-75.8794"/>
<polygon fill="midnightblue" stroke="midnightblue" points="2242.91,-79.2979 2252.28,-74.3593 2241.87,-72.3746 2242.91,-79.2979"/>
</g>
<!-- Node23 -->
<g id="node23" class="node"><title>Node23</title>
<polygon fill="none" stroke="#bfbfbf" points="2330,-56.5 2330,-75.5 2370,-75.5 2370,-56.5 2330,-56.5"/>
<text text-anchor="middle" x="2350" y="-63.5" font-family="Helvetica,sans-Serif" font-size="10.00">limits</text>
</g>
<!-- Node6&#45;&gt;Node23 -->
<g id="edge23" class="edge"><title>Node6&#45;&gt;Node23</title>
<path fill="none" stroke="midnightblue" d="M1663.25,-121.693C1778.89,-122.49 2076.41,-119.711 2320,-76 2320.1,-75.982 2320.2,-75.9638 2320.3,-75.9453"/>
<polygon fill="midnightblue" stroke="midnightblue" points="2320.87,-79.4066 2329.82,-73.7352 2319.29,-72.5881 2320.87,-79.4066"/>
</g>
<!-- Node24 -->
<g id="node24" class="node"><title>Node24</title>
<polygon fill="none" stroke="#bfbfbf" points="2388,-56.5 2388,-75.5 2438,-75.5 2438,-56.5 2388,-56.5"/>
<text text-anchor="middle" x="2413" y="-63.5" font-family="Helvetica,sans-Serif" font-size="10.00">fstream</text>
</g>
<!-- Node6&#45;&gt;Node24 -->
<g id="edge24" class="edge"><title>Node6&#45;&gt;Node24</title>
<path fill="none" stroke="midnightblue" d="M1663.14,-121.497C1783.66,-121.993 2103.4,-118.932 2377.72,-75.8667"/>
<polygon fill="midnightblue" stroke="midnightblue" points="2378.54,-79.2799 2387.87,-74.2517 2377.44,-72.3669 2378.54,-79.2799"/>
</g>
<!-- Node25 -->
<g id="node25" class="node"><title>Node25</title>
<polygon fill="none" stroke="#bfbfbf" points="2456.5,-56.5 2456.5,-75.5 2501.5,-75.5 2501.5,-56.5 2456.5,-56.5"/>
<text text-anchor="middle" x="2479" y="-63.5" font-family="Helvetica,sans-Serif" font-size="10.00">iosfwd</text>
</g>
<!-- Node6&#45;&gt;Node25 -->
<g id="edge25" class="edge"><title>Node6&#45;&gt;Node25</title>
<path fill="none" stroke="midnightblue" d="M1663.18,-119.765C1815,-115.732 2275.7,-101.796 2446.32,-75.6354"/>
<polygon fill="midnightblue" stroke="midnightblue" points="2447.09,-79.0568 2456.41,-74.0168 2445.99,-72.1452 2447.09,-79.0568"/>
</g>
<!-- Node26 -->
<g id="node26" class="node"><title>Node26</title>
<polygon fill="none" stroke="#bfbfbf" points="370,-56.5 370,-75.5 422,-75.5 422,-56.5 370,-56.5"/>
<text text-anchor="middle" x="396" y="-63.5" font-family="Helvetica,sans-Serif" font-size="10.00">sstream</text>
</g>
<!-- Node6&#45;&gt;Node26 -->
<g id="edge26" class="edge"><title>Node6&#45;&gt;Node26</title>
<path fill="none" stroke="midnightblue" d="M1564.69,-119.747C1360.28,-114.469 583.432,-93.5681 432.395,-75.7252"/>
<polygon fill="midnightblue" stroke="midnightblue" points="432.622,-72.2249 422.251,-74.3917 431.709,-79.1652 432.622,-72.2249"/>
</g>
<!-- Node27 -->
<g id="node27" class="node"><title>Node27</title>
<polygon fill="none" stroke="#bfbfbf" points="440,-56.5 440,-75.5 508,-75.5 508,-56.5 440,-56.5"/>
<text text-anchor="middle" x="474" y="-63.5" font-family="Helvetica,sans-Serif" font-size="10.00">sys/types.h</text>
</g>
<!-- Node6&#45;&gt;Node27 -->
<g id="edge27" class="edge"><title>Node6&#45;&gt;Node27</title>
<path fill="none" stroke="midnightblue" d="M1564.97,-119.467C1370.9,-113.336 660.539,-90.2735 518.454,-75.8394"/>
<polygon fill="midnightblue" stroke="midnightblue" points="518.51,-72.3239 508.182,-74.6862 517.729,-79.2802 518.51,-72.3239"/>
</g>
<!-- Node28 -->
<g id="node28" class="node"><title>Node28</title>
<polygon fill="none" stroke="#bfbfbf" points="526,-56.5 526,-75.5 586,-75.5 586,-56.5 526,-56.5"/>
<text text-anchor="middle" x="556" y="-63.5" font-family="Helvetica,sans-Serif" font-size="10.00">sys/stat.h</text>
</g>
<!-- Node6&#45;&gt;Node28 -->
<g id="edge28" class="edge"><title>Node6&#45;&gt;Node28</title>
<path fill="none" stroke="midnightblue" d="M1564.74,-120.017C1390.79,-116.365 805.107,-102.466 596.096,-75.8446"/>
<polygon fill="midnightblue" stroke="midnightblue" points="596.506,-72.3685 586.133,-74.5265 595.587,-79.308 596.506,-72.3685"/>
</g>
<!-- Node29 -->
<g id="node29" class="node"><title>Node29</title>
<polygon fill="none" stroke="#bfbfbf" points="604.5,-56.5 604.5,-75.5 655.5,-75.5 655.5,-56.5 604.5,-56.5"/>
<text text-anchor="middle" x="630" y="-63.5" font-family="Helvetica,sans-Serif" font-size="10.00">unistd.h</text>
</g>
<!-- Node6&#45;&gt;Node29 -->
<g id="edge29" class="edge"><title>Node6&#45;&gt;Node29</title>
<path fill="none" stroke="midnightblue" d="M1564.93,-119.998C1399.26,-116.41 860.645,-103.036 665.987,-75.7585"/>
<polygon fill="midnightblue" stroke="midnightblue" points="666.273,-72.2632 655.872,-74.2809 665.261,-79.1897 666.273,-72.2632"/>
</g>
<!-- Node30 -->
<g id="node30" class="node"><title>Node30</title>
<polygon fill="none" stroke="#bfbfbf" points="674,-56.5 674,-75.5 720,-75.5 720,-56.5 674,-56.5"/>
<text text-anchor="middle" x="697" y="-63.5" font-family="Helvetica,sans-Serif" font-size="10.00">dlfcn.h</text>
</g>
<!-- Node6&#45;&gt;Node30 -->
<g id="edge30" class="edge"><title>Node6&#45;&gt;Node30</title>
<path fill="none" stroke="midnightblue" d="M1564.89,-119.946C1406.7,-116.331 910.791,-103.207 730.184,-75.7689"/>
<polygon fill="midnightblue" stroke="midnightblue" points="730.708,-72.3084 720.283,-74.1974 729.611,-79.2218 730.708,-72.3084"/>
</g>
<!-- Node31 -->
<g id="node31" class="node"><title>Node31</title>
<polygon fill="none" stroke="#bfbfbf" points="738,-56.5 738,-75.5 816,-75.5 816,-56.5 738,-56.5"/>
<text text-anchor="middle" x="777" y="-63.5" font-family="Helvetica,sans-Serif" font-size="10.00">ext/hash_map</text>
</g>
<!-- Node6&#45;&gt;Node31 -->
<g id="edge31" class="edge"><title>Node6&#45;&gt;Node31</title>
<path fill="none" stroke="midnightblue" d="M1564.87,-120.387C1442,-118.384 1111.39,-110.109 826.349,-76.004"/>
<polygon fill="midnightblue" stroke="midnightblue" points="826.577,-72.5061 816.229,-74.7799 825.736,-79.4555 826.577,-72.5061"/>
</g>
<!-- Node32 -->
<g id="node32" class="node"><title>Node32</title>
<polygon fill="none" stroke="#bfbfbf" points="834.5,-56.5 834.5,-75.5 907.5,-75.5 907.5,-56.5 834.5,-56.5"/>
<text text-anchor="middle" x="871" y="-63.5" font-family="Helvetica,sans-Serif" font-size="10.00">ext/hash_set</text>
</g>
<!-- Node6&#45;&gt;Node32 -->
<g id="edge32" class="edge"><title>Node6&#45;&gt;Node32</title>
<path fill="none" stroke="midnightblue" d="M1564.7,-120.072C1451.79,-117.464 1165.67,-108.107 917.688,-76.0647"/>
<polygon fill="midnightblue" stroke="midnightblue" points="918.14,-72.594 907.771,-74.7683 917.233,-79.535 918.14,-72.594"/>
</g>
<!-- Node33 -->
<g id="node33" class="node"><title>Node33</title>
<polygon fill="none" stroke="#bfbfbf" points="925.5,-56.5 925.5,-75.5 996.5,-75.5 996.5,-56.5 925.5,-56.5"/>
<text text-anchor="middle" x="961" y="-63.5" font-family="Helvetica,sans-Serif" font-size="10.00">sys/param.h</text>
</g>
<!-- Node6&#45;&gt;Node33 -->
<g id="edge33" class="edge"><title>Node6&#45;&gt;Node33</title>
<path fill="none" stroke="midnightblue" d="M1564.92,-119.424C1462.89,-115.703 1220.33,-104.551 1006.93,-75.9486"/>
<polygon fill="midnightblue" stroke="midnightblue" points="1007.17,-72.4493 996.794,-74.5733 1006.23,-79.3857 1007.17,-72.4493"/>
</g>
<!-- Node34 -->
<g id="node34" class="node"><title>Node34</title>
<polygon fill="none" stroke="#bfbfbf" points="1015,-56.5 1015,-75.5 1181,-75.5 1181,-56.5 1015,-56.5"/>
<text text-anchor="middle" x="1098" y="-63.5" font-family="Helvetica,sans-Serif" font-size="10.00">CoreFoundation/CoreFoundation.h</text>
</g>
<!-- Node6&#45;&gt;Node34 -->
<g id="edge34" class="edge"><title>Node6&#45;&gt;Node34</title>
<path fill="none" stroke="midnightblue" d="M1564.99,-115.871C1478.88,-106.859 1299.17,-88.0522 1189.51,-76.5761"/>
<polygon fill="midnightblue" stroke="midnightblue" points="1189.75,-73.0832 1179.44,-75.5233 1189.03,-80.0452 1189.75,-73.0832"/>
</g>
<!-- Node35 -->
<g id="node35" class="node"><title>Node35</title>
<polygon fill="none" stroke="#bfbfbf" points="1199,-56.5 1199,-75.5 1323,-75.5 1323,-56.5 1199,-56.5"/>
<text text-anchor="middle" x="1261" y="-63.5" font-family="Helvetica,sans-Serif" font-size="10.00">emscripten/emscripten.h</text>
</g>
<!-- Node6&#45;&gt;Node35 -->
<g id="edge35" class="edge"><title>Node6&#45;&gt;Node35</title>
<path fill="none" stroke="midnightblue" d="M1564.92,-113.492C1502.8,-103.99 1395.61,-87.5919 1326.55,-77.0267"/>
<polygon fill="midnightblue" stroke="midnightblue" points="1327.06,-73.5643 1316.64,-75.5118 1326,-80.4838 1327.06,-73.5643"/>
</g>
<!-- Node37 -->
<g id="node37" class="node"><title>Node37</title>
<g id="a_node37"><a xlink:href="_ogre_memory_allocated_object_8h.html" target="_top" xlink:title="OgreMemoryAllocatedObject.h">
<polygon fill="none" stroke="black" points="2558,-56.5 2558,-75.5 2708,-75.5 2708,-56.5 2558,-56.5"/>
<text text-anchor="middle" x="2633" y="-63.5" font-family="Helvetica,sans-Serif" font-size="10.00">OgreMemoryAllocatedObject.h</text>
</a>
</g>
</g>
<!-- Node36&#45;&gt;Node37 -->
<g id="edge37" class="edge"><title>Node36&#45;&gt;Node37</title>
<path fill="none" stroke="midnightblue" d="M2733.14,-112.444C2713.73,-103.636 2683.27,-89.8116 2661.04,-79.722"/>
<polygon fill="midnightblue" stroke="midnightblue" points="2662.32,-76.4615 2651.77,-75.5164 2659.43,-82.836 2662.32,-76.4615"/>
</g>
<!-- Node38 -->
<g id="node38" class="node"><title>Node38</title>
<g id="a_node38"><a xlink:href="_ogre_header_prefix_8h.html" target="_top" xlink:title="OgreHeaderPrefix.h">
<polygon fill="none" stroke="black" points="2882.5,-0.5 2882.5,-19.5 2985.5,-19.5 2985.5,-0.5 2882.5,-0.5"/>
<text text-anchor="middle" x="2934" y="-7.5" font-family="Helvetica,sans-Serif" font-size="10.00">OgreHeaderPrefix.h</text>
</a>
</g>
</g>
<!-- Node36&#45;&gt;Node38 -->
<g id="edge41" class="edge"><title>Node36&#45;&gt;Node38</title>
<path fill="none" stroke="midnightblue" d="M2782.56,-112.492C2806.44,-105.03 2839.84,-92.7484 2866,-76 2887.16,-62.4572 2907.44,-41.7234 2920.26,-27.3287"/>
<polygon fill="midnightblue" stroke="midnightblue" points="2922.98,-29.533 2926.89,-19.6881 2917.69,-24.9427 2922.98,-29.533"/>
</g>
<!-- Node39 -->
<g id="node39" class="node"><title>Node39</title>
<g id="a_node39"><a xlink:href="_ogre_header_suffix_8h.html" target="_top" xlink:title="OgreHeaderSuffix.h">
<polygon fill="none" stroke="black" points="2529.5,-0.5 2529.5,-19.5 2632.5,-19.5 2632.5,-0.5 2529.5,-0.5"/>
<text text-anchor="middle" x="2581" y="-7.5" font-family="Helvetica,sans-Serif" font-size="10.00">OgreHeaderSuffix.h</text>
</a>
</g>
</g>
<!-- Node36&#45;&gt;Node39 -->
<g id="edge49" class="edge"><title>Node36&#45;&gt;Node39</title>
<path fill="none" stroke="midnightblue" d="M2677.97,-114.236C2626.82,-107.852 2565.18,-96.1642 2549,-76 2537.02,-61.0759 2550.58,-40.9331 2563.56,-27.0456"/>
<polygon fill="midnightblue" stroke="midnightblue" points="2566.33,-29.2222 2570.93,-19.6785 2561.38,-24.27 2566.33,-29.2222"/>
</g>
<!-- Node40 -->
<g id="node40" class="node"><title>Node40</title>
<g id="a_node40"><a xlink:href="_ogre_memory_s_t_l_allocator_8h.html" target="_top" xlink:title="OgreMemorySTLAllocator.h">
<polygon fill="none" stroke="black" points="2914.5,-56.5 2914.5,-75.5 3051.5,-75.5 3051.5,-56.5 2914.5,-56.5"/>
<text text-anchor="middle" x="2983" y="-63.5" font-family="Helvetica,sans-Serif" font-size="10.00">OgreMemorySTLAllocator.h</text>
</a>
</g>
</g>
<!-- Node36&#45;&gt;Node40 -->
<g id="edge42" class="edge"><title>Node36&#45;&gt;Node40</title>
<path fill="none" stroke="midnightblue" d="M2788.6,-112.444C2828.73,-103.063 2893.2,-87.9926 2936.78,-77.8036"/>
<polygon fill="midnightblue" stroke="midnightblue" points="2937.63,-81.2009 2946.57,-75.5164 2936.03,-74.3847 2937.63,-81.2009"/>
</g>
<!-- Node41 -->
<g id="node41" class="node"><title>Node41</title>
<g id="a_node41"><a xlink:href="_ogre_memory_ned_pooling_8h.html" target="_top" xlink:title="OgreMemoryNedPooling.h">
<polygon fill="none" stroke="black" points="2726.5,-56.5 2726.5,-75.5 2857.5,-75.5 2857.5,-56.5 2726.5,-56.5"/>
<text text-anchor="middle" x="2792" y="-63.5" font-family="Helvetica,sans-Serif" font-size="10.00">OgreMemoryNedPooling.h</text>
</a>
</g>
</g>
<!-- Node36&#45;&gt;Node41 -->
<g id="edge46" class="edge"><title>Node36&#45;&gt;Node41</title>
<path fill="none" stroke="midnightblue" d="M2758.61,-112.083C2764.26,-104.455 2772.54,-93.2645 2779.45,-83.9408"/>
<polygon fill="midnightblue" stroke="midnightblue" points="2782.38,-85.87 2785.52,-75.7511 2776.75,-81.7034 2782.38,-85.87"/>
</g>
<!-- Node37&#45;&gt;Node2 -->
<g id="edge38" class="edge"><title>Node37&#45;&gt;Node2</title>
<path fill="none" stroke="midnightblue" d="M2636.58,-75.5835C2642.25,-88.6066 2654.21,-113.768 2669,-132 2678.17,-143.299 2690.39,-154.039 2700.68,-162.191"/>
<polygon fill="midnightblue" stroke="midnightblue" points="2698.7,-165.08 2708.77,-168.386 2702.96,-159.525 2698.7,-165.08"/>
</g>
<!-- Node37&#45;&gt;Node38 -->
<g id="edge39" class="edge"><title>Node37&#45;&gt;Node38</title>
<path fill="none" stroke="midnightblue" d="M2680.69,-56.4435C2733.86,-46.9049 2819.82,-31.4834 2876.63,-21.293"/>
<polygon fill="midnightblue" stroke="midnightblue" points="2877.3,-24.7273 2886.53,-19.5164 2876.07,-17.8373 2877.3,-24.7273"/>
</g>
<!-- Node37&#45;&gt;Node39 -->
<g id="edge40" class="edge"><title>Node37&#45;&gt;Node39</title>
<path fill="none" stroke="midnightblue" d="M2624.41,-56.083C2616.84,-48.2195 2605.62,-36.5688 2596.49,-27.0813"/>
<polygon fill="midnightblue" stroke="midnightblue" points="2598.88,-24.5266 2589.43,-19.7511 2593.84,-29.3821 2598.88,-24.5266"/>
</g>
<!-- Node40&#45;&gt;Node2 -->
<g id="edge43" class="edge"><title>Node40&#45;&gt;Node2</title>
<path fill="none" stroke="midnightblue" d="M2963.94,-75.6466C2935.85,-88.3265 2881.63,-112.567 2835,-132 2807.46,-143.48 2775.88,-155.888 2752.95,-164.761"/>
<polygon fill="midnightblue" stroke="midnightblue" points="2751.45,-161.587 2743.38,-168.453 2753.97,-168.118 2751.45,-161.587"/>
</g>
<!-- Node40&#45;&gt;Node38 -->
<g id="edge44" class="edge"><title>Node40&#45;&gt;Node38</title>
<path fill="none" stroke="midnightblue" d="M2974.91,-56.083C2967.84,-48.2982 2957.41,-36.8015 2948.85,-27.3665"/>
<polygon fill="midnightblue" stroke="midnightblue" points="2951.25,-24.8047 2941.94,-19.7511 2946.07,-29.5087 2951.25,-24.8047"/>
</g>
<!-- Node40&#45;&gt;Node39 -->
<g id="edge45" class="edge"><title>Node40&#45;&gt;Node39</title>
<path fill="none" stroke="midnightblue" d="M2919.3,-56.4435C2843.5,-46.2609 2717.79,-29.3744 2642.82,-19.3041"/>
<polygon fill="midnightblue" stroke="midnightblue" points="2642.97,-15.7923 2632.59,-17.9298 2642.03,-22.73 2642.97,-15.7923"/>
</g>
<!-- Node41&#45;&gt;Node38 -->
<g id="edge47" class="edge"><title>Node41&#45;&gt;Node38</title>
<path fill="none" stroke="midnightblue" d="M2814.5,-56.4435C2838.08,-47.4776 2875.32,-33.314 2901.96,-23.1827"/>
<polygon fill="midnightblue" stroke="midnightblue" points="2903.5,-26.3424 2911.6,-19.5164 2901.01,-19.7995 2903.5,-26.3424"/>
</g>
<!-- Node41&#45;&gt;Node39 -->
<g id="edge48" class="edge"><title>Node41&#45;&gt;Node39</title>
<path fill="none" stroke="midnightblue" d="M2758.57,-56.4435C2722.14,-47.1221 2663.77,-32.1828 2623.97,-21.9972"/>
<polygon fill="midnightblue" stroke="midnightblue" points="2624.83,-18.6051 2614.28,-19.5164 2623.1,-25.3866 2624.83,-18.6051"/>
</g>
<!-- Node42&#45;&gt;Node2 -->
<g id="edge51" class="edge"><title>Node42&#45;&gt;Node2</title>
<path fill="none" stroke="midnightblue" d="M2629.86,-392.232C2606.02,-372.348 2553.93,-322.276 2576,-280 2599.3,-235.38 2652.29,-206.467 2687.35,-191.457"/>
<polygon fill="midnightblue" stroke="midnightblue" points="2688.81,-194.639 2696.72,-187.59 2686.14,-188.168 2688.81,-194.639"/>
</g>
<!-- Node42&#45;&gt;Node38 -->
<g id="edge78" class="edge"><title>Node42&#45;&gt;Node38</title>
<path fill="none" stroke="midnightblue" d="M2690.23,-394.787C2840.33,-374.489 3282,-304.131 3282,-179 3282,-179 3282,-179 3282,-121 3282,-77.8889 3248.86,-74.6736 3210,-56 3141.58,-23.1184 3053.77,-13.6164 2995.79,-11.2009"/>
<polygon fill="midnightblue" stroke="midnightblue" points="2995.8,-7.69903 2985.68,-10.8389 2995.55,-14.6946 2995.8,-7.69903"/>
</g>
<!-- Node42&#45;&gt;Node39 -->
<g id="edge79" class="edge"><title>Node42&#45;&gt;Node39</title>
<path fill="none" stroke="midnightblue" d="M2591.76,-400.279C2230.22,-394.829 0,-358.473 0,-291 0,-291 0,-291 0,-121 0,-83.7249 19.4727,-72.2896 53,-56 110.221,-28.1984 2137.96,-13.8407 2519.46,-11.3826"/>
<polygon fill="midnightblue" stroke="midnightblue" points="2519.5,-14.8825 2529.48,-11.3183 2519.46,-7.88261 2519.5,-14.8825"/>
</g>
<!-- Node43 -->
<g id="node43" class="node"><title>Node43</title>
<g id="a_node43"><a xlink:href="_ogre_mesh_8h.html" target="_top" xlink:title="OgreMesh.h">
<polygon fill="none" stroke="red" points="2727,-336.5 2727,-355.5 2797,-355.5 2797,-336.5 2727,-336.5"/>
<text text-anchor="middle" x="2762" y="-343.5" font-family="Helvetica,sans-Serif" font-size="10.00">OgreMesh.h</text>
</a>
</g>
</g>
<!-- Node42&#45;&gt;Node43 -->
<g id="edge52" class="edge"><title>Node42&#45;&gt;Node43</title>
<path fill="none" stroke="midnightblue" d="M2660.17,-392.444C2679.91,-383.636 2710.89,-369.812 2733.49,-359.722"/>
<polygon fill="midnightblue" stroke="midnightblue" points="2735.21,-362.788 2742.92,-355.516 2732.36,-356.396 2735.21,-362.788"/>
</g>
<!-- Node49 -->
<g id="node49" class="node"><title>Node49</title>
<g id="a_node49"><a xlink:href="_ogre_material_8h.html" target="_top" xlink:title="OgreMaterial.h">
<polygon fill="none" stroke="red" points="740,-280.5 740,-299.5 820,-299.5 820,-280.5 740,-280.5"/>
<text text-anchor="middle" x="780" y="-287.5" font-family="Helvetica,sans-Serif" font-size="10.00">OgreMaterial.h</text>
</a>
</g>
</g>
<!-- Node42&#45;&gt;Node49 -->
<g id="edge73" class="edge"><title>Node42&#45;&gt;Node49</title>
<path fill="none" stroke="midnightblue" d="M2591.7,-398.086C2328.92,-382.554 1095.03,-309.621 830.153,-293.964"/>
<polygon fill="midnightblue" stroke="midnightblue" points="830.25,-290.464 820.06,-293.368 829.836,-297.452 830.25,-290.464"/>
</g>
<!-- Node43&#45;&gt;Node2 -->
<g id="edge53" class="edge"><title>Node43&#45;&gt;Node2</title>
<path fill="none" stroke="midnightblue" d="M2759.8,-336.075C2753.34,-309.945 2734.39,-233.211 2725.59,-197.577"/>
<polygon fill="midnightblue" stroke="midnightblue" points="2728.91,-196.437 2723.12,-187.568 2722.12,-198.116 2728.91,-196.437"/>
</g>
<!-- Node43&#45;&gt;Node38 -->
<g id="edge71" class="edge"><title>Node43&#45;&gt;Node38</title>
<path fill="none" stroke="midnightblue" d="M2797.18,-344.237C2856.04,-342.02 2977.55,-333.403 3074,-300 3121.04,-283.709 3130.65,-273.148 3171,-244 3206.22,-218.563 3244,-222.442 3244,-179 3244,-179 3244,-179 3244,-121 3244,-78.5445 3211.91,-75.1087 3174,-56 3117.87,-27.7067 3046.24,-17.0923 2995.9,-13.169"/>
<polygon fill="midnightblue" stroke="midnightblue" points="2996.03,-9.66983 2985.81,-12.4498 2995.54,-16.6521 2996.03,-9.66983"/>
</g>
<!-- Node43&#45;&gt;Node39 -->
<g id="edge72" class="edge"><title>Node43&#45;&gt;Node39</title>
<path fill="none" stroke="midnightblue" d="M2726.87,-345.086C2529.53,-345.386 1538.76,-344.518 731,-300 576.558,-291.488 38,-389.676 38,-235 38,-235 38,-235 38,-121 38,-84.2802 56.1262,-72.3603 89,-56 145.085,-28.0883 2140.04,-13.8443 2519.14,-11.3865"/>
<polygon fill="midnightblue" stroke="midnightblue" points="2519.39,-14.8851 2529.36,-11.3206 2519.34,-7.88528 2519.39,-14.8851"/>
</g>
<!-- Node44 -->
<g id="node44" class="node"><title>Node44</title>
<g id="a_node44"><a xlink:href="_ogre_resource_8h.html" target="_top" xlink:title="OgreResource.h">
<polygon fill="none" stroke="red" points="736,-224.5 736,-243.5 824,-243.5 824,-224.5 736,-224.5"/>
<text text-anchor="middle" x="780" y="-231.5" font-family="Helvetica,sans-Serif" font-size="10.00">OgreResource.h</text>
</a>
</g>
</g>
<!-- Node43&#45;&gt;Node44 -->
<g id="edge54" class="edge"><title>Node43&#45;&gt;Node44</title>
<path fill="none" stroke="midnightblue" d="M2726.76,-343.044C2489.48,-329.875 1125.66,-254.184 834.629,-238.032"/>
<polygon fill="midnightblue" stroke="midnightblue" points="834.513,-234.52 824.335,-237.461 834.125,-241.509 834.513,-234.52"/>
</g>
<!-- Node45 -->
<g id="node45" class="node"><title>Node45</title>
<g id="a_node45"><a xlink:href="_ogre_axis_aligned_box_8h.html" target="_top" xlink:title="OgreAxisAlignedBox.h">
<polygon fill="none" stroke="red" points="2778.5,-224.5 2778.5,-243.5 2893.5,-243.5 2893.5,-224.5 2778.5,-224.5"/>
<text text-anchor="middle" x="2836" y="-231.5" font-family="Helvetica,sans-Serif" font-size="10.00">OgreAxisAlignedBox.h</text>
</a>
</g>
</g>
<!-- Node43&#45;&gt;Node45 -->
<g id="edge58" class="edge"><title>Node43&#45;&gt;Node45</title>
<path fill="none" stroke="midnightblue" d="M2767.81,-336.368C2780.02,-318.215 2808.55,-275.802 2824.57,-251.99"/>
<polygon fill="midnightblue" stroke="midnightblue" points="2827.54,-253.842 2830.22,-243.591 2821.73,-249.935 2827.54,-253.842"/>
</g>
<!-- Node46 -->
<g id="node46" class="node"><title>Node46</title>
<g id="a_node46"><a xlink:href="_ogre_vertex_bone_assignment_8h.html" target="_top" xlink:title="OgreVertexBoneAssignment.h">
<polygon fill="none" stroke="black" points="2585.5,-280.5 2585.5,-299.5 2734.5,-299.5 2734.5,-280.5 2585.5,-280.5"/>
<text text-anchor="middle" x="2660" y="-287.5" font-family="Helvetica,sans-Serif" font-size="10.00">OgreVertexBoneAssignment.h</text>
</a>
</g>
</g>
<!-- Node43&#45;&gt;Node46 -->
<g id="edge60" class="edge"><title>Node43&#45;&gt;Node46</title>
<path fill="none" stroke="midnightblue" d="M2745.61,-336.324C2729.33,-327.703 2704.13,-314.364 2685.28,-304.386"/>
<polygon fill="midnightblue" stroke="midnightblue" points="2686.82,-301.24 2676.35,-299.655 2683.55,-307.427 2686.82,-301.24"/>
</g>
<!-- Node47 -->
<g id="node47" class="node"><title>Node47</title>
<g id="a_node47"><a xlink:href="_ogre_animation_8h.html" target="_top" xlink:title="OgreAnimation.h">
<polygon fill="none" stroke="red" points="2953.5,-280.5 2953.5,-299.5 3042.5,-299.5 3042.5,-280.5 2953.5,-280.5"/>
<text text-anchor="middle" x="2998" y="-287.5" font-family="Helvetica,sans-Serif" font-size="10.00">OgreAnimation.h</text>
</a>
</g>
</g>
<!-- Node43&#45;&gt;Node47 -->
<g id="edge62" class="edge"><title>Node43&#45;&gt;Node47</title>
<path fill="none" stroke="midnightblue" d="M2797.08,-336.974C2837.9,-327.632 2905.51,-312.164 2950.89,-301.78"/>
<polygon fill="midnightblue" stroke="midnightblue" points="2951.81,-305.159 2960.78,-299.516 2950.25,-298.335 2951.81,-305.159"/>
</g>
<!-- Node48 -->
<g id="node48" class="node"><title>Node48</title>
<g id="a_node48"><a xlink:href="_ogre_animation_track_8h.html" target="_top" xlink:title="OgreAnimationTrack.h">
<polygon fill="none" stroke="red" points="3026,-224.5 3026,-243.5 3140,-243.5 3140,-224.5 3026,-224.5"/>
<text text-anchor="middle" x="3083" y="-231.5" font-family="Helvetica,sans-Serif" font-size="10.00">OgreAnimationTrack.h</text>
</a>
</g>
</g>
<!-- Node43&#45;&gt;Node48 -->
<g id="edge70" class="edge"><title>Node43&#45;&gt;Node48</title>
<path fill="none" stroke="midnightblue" d="M2797.13,-343.521C2865.06,-340.029 3011.21,-329.248 3051,-300 3066.17,-288.85 3074.54,-268.519 3078.87,-253.554"/>
<polygon fill="midnightblue" stroke="midnightblue" points="3082.28,-254.369 3081.36,-243.814 3075.5,-252.639 3082.28,-254.369"/>
</g>
<!-- Node44&#45;&gt;Node2 -->
<g id="edge55" class="edge"><title>Node44&#45;&gt;Node2</title>
<path fill="none" stroke="midnightblue" d="M824.187,-231.771C1079.19,-224.676 2361.65,-188.997 2659.25,-180.718"/>
<polygon fill="midnightblue" stroke="midnightblue" points="2659.52,-184.212 2669.42,-180.435 2659.33,-177.215 2659.52,-184.212"/>
</g>
<!-- Node44&#45;&gt;Node38 -->
<g id="edge56" class="edge"><title>Node44&#45;&gt;Node38</title>
<path fill="none" stroke="midnightblue" d="M735.769,-233.113C576.526,-232.216 50.1128,-217.257 209,-56 232.71,-31.9368 2607.23,-20.7686 2641,-20 2720.8,-18.184 2812.79,-15.2152 2872.08,-13.1877"/>
<polygon fill="midnightblue" stroke="midnightblue" points="2872.53,-16.6746 2882.4,-12.8331 2872.29,-9.67875 2872.53,-16.6746"/>
</g>
<!-- Node44&#45;&gt;Node39 -->
<g id="edge57" class="edge"><title>Node44&#45;&gt;Node39</title>
<path fill="none" stroke="midnightblue" d="M735.578,-232.48C603.548,-230.552 219.956,-222.046 176,-188 127.735,-150.616 95.231,-99.564 138,-56 180.991,-12.2101 2143.28,-10.8184 2519.13,-10.9541"/>
<polygon fill="midnightblue" stroke="midnightblue" points="2519.27,-14.454 2529.27,-10.9582 2519.27,-7.45402 2519.27,-14.454"/>
</g>
<!-- Node45&#45;&gt;Node2 -->
<g id="edge59" class="edge"><title>Node45&#45;&gt;Node2</title>
<path fill="none" stroke="midnightblue" d="M2817.78,-224.444C2799.1,-215.675 2769.84,-201.935 2748.38,-191.858"/>
<polygon fill="midnightblue" stroke="midnightblue" points="2749.68,-188.599 2739.14,-187.516 2746.7,-194.935 2749.68,-188.599"/>
</g>
<!-- Node46&#45;&gt;Node2 -->
<g id="edge61" class="edge"><title>Node46&#45;&gt;Node2</title>
<path fill="none" stroke="midnightblue" d="M2664.79,-280.368C2674.76,-262.376 2697.96,-220.55 2711.23,-196.627"/>
<polygon fill="midnightblue" stroke="midnightblue" points="2714.45,-198.034 2716.24,-187.591 2708.33,-194.639 2714.45,-198.034"/>
</g>
<!-- Node47&#45;&gt;Node2 -->
<g id="edge63" class="edge"><title>Node47&#45;&gt;Node2</title>
<path fill="none" stroke="midnightblue" d="M2992.31,-280.241C2982.59,-266.025 2961.35,-238.101 2936,-224 2888.7,-197.685 2827.75,-186.717 2782.83,-182.167"/>
<polygon fill="midnightblue" stroke="midnightblue" points="2782.93,-178.661 2772.64,-181.217 2782.28,-185.631 2782.93,-178.661"/>
</g>
<!-- Node47&#45;&gt;Node38 -->
<g id="edge68" class="edge"><title>Node47&#45;&gt;Node38</title>
<path fill="none" stroke="midnightblue" d="M3042.67,-287.814C3076.83,-284.406 3122.44,-274.006 3149,-244 3188.29,-199.62 3175.73,-170.765 3168,-112 3164.64,-86.454 3171.75,-73.6737 3153,-56 3130.65,-34.9338 3052.25,-22.7167 2995.63,-16.4582"/>
<polygon fill="midnightblue" stroke="midnightblue" points="2996,-12.9779 2985.69,-15.3947 2995.26,-19.9382 2996,-12.9779"/>
</g>
<!-- Node47&#45;&gt;Node39 -->
<g id="edge69" class="edge"><title>Node47&#45;&gt;Node39</title>
<path fill="none" stroke="midnightblue" d="M3000.5,-280.445C3012.06,-240.862 3059.81,-77.3404 3060,-76 3061.25,-67.2001 3065.98,-62.5728 3060,-56 3032.41,-25.7005 2765.67,-15.4113 2642.62,-12.2585"/>
<polygon fill="midnightblue" stroke="midnightblue" points="2642.68,-8.75892 2632.59,-12.0092 2642.5,-15.7568 2642.68,-8.75892"/>
</g>
<!-- Node47&#45;&gt;Node48 -->
<g id="edge64" class="edge"><title>Node47&#45;&gt;Node48</title>
<path fill="none" stroke="midnightblue" d="M3011.66,-280.324C3024.92,-271.9 3045.27,-258.971 3060.85,-249.074"/>
<polygon fill="midnightblue" stroke="midnightblue" points="3062.81,-251.971 3069.38,-243.655 3059.06,-246.063 3062.81,-251.971"/>
</g>
<!-- Node48&#45;&gt;Node2 -->
<g id="edge65" class="edge"><title>Node48&#45;&gt;Node2</title>
<path fill="none" stroke="midnightblue" d="M3025.64,-224.444C2959.36,-214.557 2850.72,-198.351 2782.67,-188.2"/>
<polygon fill="midnightblue" stroke="midnightblue" points="2782.93,-184.7 2772.53,-186.686 2781.9,-191.623 2782.93,-184.7"/>
</g>
<!-- Node48&#45;&gt;Node38 -->
<g id="edge66" class="edge"><title>Node48&#45;&gt;Node38</title>
<path fill="none" stroke="midnightblue" d="M3097.66,-224.402C3109.41,-216.585 3125.03,-203.862 3132,-188 3155.6,-134.289 3168.6,-101.851 3132,-56 3115.15,-34.885 3047.49,-22.9226 2995.91,-16.7223"/>
<polygon fill="midnightblue" stroke="midnightblue" points="2996.16,-13.2285 2985.83,-15.5581 2995.36,-20.1822 2996.16,-13.2285"/>
</g>
<!-- Node48&#45;&gt;Node39 -->
<g id="edge67" class="edge"><title>Node48&#45;&gt;Node39</title>
<path fill="none" stroke="midnightblue" d="M3087.39,-224.194C3100.92,-195.627 3138.51,-104.582 3094,-56 3064.05,-23.306 2772.47,-14.2599 2642.72,-11.8441"/>
<polygon fill="midnightblue" stroke="midnightblue" points="2642.6,-8.34154 2632.54,-11.662 2642.48,-15.3404 2642.6,-8.34154"/>
</g>
<!-- Node49&#45;&gt;Node2 -->
<g id="edge74" class="edge"><title>Node49&#45;&gt;Node2</title>
<path fill="none" stroke="midnightblue" d="M820.095,-286.728C1065.1,-272.843 2359.78,-199.471 2659.17,-182.504"/>
<polygon fill="midnightblue" stroke="midnightblue" points="2659.61,-185.985 2669.4,-181.924 2659.22,-178.996 2659.61,-185.985"/>
</g>
<!-- Node49&#45;&gt;Node38 -->
<g id="edge76" class="edge"><title>Node49&#45;&gt;Node38</title>
<path fill="none" stroke="midnightblue" d="M739.76,-286.231C601.154,-276.161 152,-238.91 152,-179 152,-179 152,-179 152,-121 152,-87.5366 161.098,-72.8657 190,-56 248.81,-21.6821 2572.93,-21.5453 2641,-20 2720.8,-18.1886 2812.79,-15.2188 2872.08,-13.1898"/>
<polygon fill="midnightblue" stroke="midnightblue" points="2872.53,-16.6767 2882.4,-12.8349 2872.29,-9.68081 2872.53,-16.6767"/>
</g>
<!-- Node49&#45;&gt;Node39 -->
<g id="edge77" class="edge"><title>Node49&#45;&gt;Node39</title>
<path fill="none" stroke="midnightblue" d="M739.594,-287.859C607.268,-283.892 192.285,-269.523 138,-244 101.871,-227.013 76,-218.923 76,-179 76,-179 76,-179 76,-121 76,-86.1146 89.3353,-72.6332 120,-56 174.353,-26.5177 2143.22,-13.5563 2519.28,-11.347"/>
<polygon fill="midnightblue" stroke="midnightblue" points="2519.44,-14.8462 2529.42,-11.2878 2519.4,-7.84633 2519.44,-14.8462"/>
</g>
<!-- Node49&#45;&gt;Node44 -->
<g id="edge75" class="edge"><title>Node49&#45;&gt;Node44</title>
<path fill="none" stroke="midnightblue" d="M780,-280.083C780,-273.006 780,-262.861 780,-253.986"/>
<polygon fill="midnightblue" stroke="midnightblue" points="783.5,-253.751 780,-243.751 776.5,-253.751 783.5,-253.751"/>
</g>
<!-- Node50&#45;&gt;Node2 -->
<g id="edge81" class="edge"><title>Node50&#45;&gt;Node2</title>
<path fill="none" stroke="midnightblue" d="M3148.9,-341.623C3086.82,-336.029 2976.17,-323.097 2944,-300 2912.65,-277.491 2932.61,-247.503 2902,-224 2867.96,-197.864 2820.65,-186.728 2782.94,-182.067"/>
<polygon fill="midnightblue" stroke="midnightblue" points="2782.9,-178.541 2772.57,-180.917 2782.13,-185.499 2782.9,-178.541"/>
</g>
</g>
</svg>
