<?xml version="1.0" encoding="UTF-8" standalone="no"?>
<!DOCTYPE svg PUBLIC "-//W3C//DTD SVG 1.1//EN"
 "http://www.w3.org/Graphics/SVG/1.1/DTD/svg11.dtd">
<!-- Generated by graphviz version 2.38.0 (20140413.2041)
 -->
<!-- Title: OgreAndroidResourceManager.h Pages: 1 -->
<svg width="3153pt" height="420pt"
 viewBox="0.00 0.00 3153.00 420.00" xmlns="http://www.w3.org/2000/svg" xmlns:xlink="http://www.w3.org/1999/xlink">
<g id="graph0" class="graph" transform="scale(1 1) rotate(0) translate(4 416)">
<title>OgreAndroidResourceManager.h</title>
<!-- Node1 -->
<g id="node1" class="node"><title>Node1</title>
<polygon fill="#bfbfbf" stroke="black" points="2509,-392.5 2509,-411.5 2667,-411.5 2667,-392.5 2509,-392.5"/>
<text text-anchor="middle" x="2588" y="-399.5" font-family="Helvetica,sans-Serif" font-size="10.00">OgreAndroidResourceManager.h</text>
</g>
<!-- Node2 -->
<g id="node2" class="node"><title>Node2</title>
<g id="a_node2"><a xlink:href="_ogre_g_l_e_s_prerequisites_8h.html" target="_top" xlink:title="OgreGLESPrerequisites.h">
<polygon fill="none" stroke="black" points="2523.5,-336.5 2523.5,-355.5 2652.5,-355.5 2652.5,-336.5 2523.5,-336.5"/>
<text text-anchor="middle" x="2588" y="-343.5" font-family="Helvetica,sans-Serif" font-size="10.00">OgreGLESPrerequisites.h</text>
</a>
</g>
</g>
<!-- Node1&#45;&gt;Node2 -->
<g id="edge1" class="edge"><title>Node1&#45;&gt;Node2</title>
<path fill="none" stroke="midnightblue" d="M2588,-392.083C2588,-385.006 2588,-374.861 2588,-365.986"/>
<polygon fill="midnightblue" stroke="midnightblue" points="2591.5,-365.751 2588,-355.751 2584.5,-365.751 2591.5,-365.751"/>
</g>
<!-- Node3 -->
<g id="node3" class="node"><title>Node3</title>
<g id="a_node3"><a xlink:href="_ogre_prerequisites_8h.html" target="_top" xlink:title="OgrePrerequisites.h">
<polygon fill="none" stroke="black" points="2458.5,-168.5 2458.5,-187.5 2561.5,-187.5 2561.5,-168.5 2458.5,-168.5"/>
<text text-anchor="middle" x="2510" y="-175.5" font-family="Helvetica,sans-Serif" font-size="10.00">OgrePrerequisites.h</text>
</a>
</g>
</g>
<!-- Node2&#45;&gt;Node3 -->
<g id="edge2" class="edge"><title>Node2&#45;&gt;Node3</title>
<path fill="none" stroke="midnightblue" d="M2570.57,-336.475C2556.96,-328.859 2538.76,-316.378 2529,-300 2509.92,-267.989 2508.06,-223.102 2508.78,-197.969"/>
<polygon fill="midnightblue" stroke="midnightblue" points="2512.3,-197.795 2509.26,-187.643 2505.3,-197.47 2512.3,-197.795"/>
</g>
<!-- Node43 -->
<g id="node43" class="node"><title>Node43</title>
<g id="a_node43"><a xlink:href="_ogre_log_manager_8h.html" target="_top" xlink:title="OgreLogManager.h">
<polygon fill="none" stroke="black" points="2538.5,-280.5 2538.5,-299.5 2637.5,-299.5 2637.5,-280.5 2538.5,-280.5"/>
<text text-anchor="middle" x="2588" y="-287.5" font-family="Helvetica,sans-Serif" font-size="10.00">OgreLogManager.h</text>
</a>
</g>
</g>
<!-- Node2&#45;&gt;Node43 -->
<g id="edge51" class="edge"><title>Node2&#45;&gt;Node43</title>
<path fill="none" stroke="midnightblue" d="M2588,-336.083C2588,-329.006 2588,-318.861 2588,-309.986"/>
<polygon fill="midnightblue" stroke="midnightblue" points="2591.5,-309.751 2588,-299.751 2584.5,-309.751 2591.5,-309.751"/>
</g>
<!-- Node48 -->
<g id="node48" class="node"><title>Node48</title>
<g id="a_node48"><a xlink:href="_ogre_math_8h.html" target="_top" xlink:title="OgreMath.h">
<polygon fill="none" stroke="black" points="2414,-224.5 2414,-243.5 2482,-243.5 2482,-224.5 2414,-224.5"/>
<text text-anchor="middle" x="2448" y="-231.5" font-family="Helvetica,sans-Serif" font-size="10.00">OgreMath.h</text>
</a>
</g>
</g>
<!-- Node2&#45;&gt;Node48 -->
<g id="edge65" class="edge"><title>Node2&#45;&gt;Node48</title>
<path fill="none" stroke="midnightblue" d="M2562.68,-336.421C2543.06,-328.92 2515.94,-316.62 2496,-300 2479.89,-286.573 2466.23,-266.661 2457.65,-252.417"/>
<polygon fill="midnightblue" stroke="midnightblue" points="2460.59,-250.513 2452.55,-243.611 2454.53,-254.019 2460.59,-250.513"/>
</g>
<!-- Node49 -->
<g id="node49" class="node"><title>Node49</title>
<polygon fill="none" stroke="#bfbfbf" points="2655.5,-280.5 2655.5,-299.5 2762.5,-299.5 2762.5,-280.5 2655.5,-280.5"/>
<text text-anchor="middle" x="2709" y="-287.5" font-family="Helvetica,sans-Serif" font-size="10.00">OpenGLES/ES1/gl.h</text>
</g>
<!-- Node2&#45;&gt;Node49 -->
<g id="edge69" class="edge"><title>Node2&#45;&gt;Node49</title>
<path fill="none" stroke="midnightblue" d="M2607.17,-336.444C2626.91,-327.636 2657.89,-313.812 2680.49,-303.722"/>
<polygon fill="midnightblue" stroke="midnightblue" points="2682.21,-306.788 2689.92,-299.516 2679.36,-300.396 2682.21,-306.788"/>
</g>
<!-- Node50 -->
<g id="node50" class="node"><title>Node50</title>
<polygon fill="none" stroke="#bfbfbf" points="2781,-280.5 2781,-299.5 2901,-299.5 2901,-280.5 2781,-280.5"/>
<text text-anchor="middle" x="2841" y="-287.5" font-family="Helvetica,sans-Serif" font-size="10.00">OpenGLES/ES1/glext.h</text>
</g>
<!-- Node2&#45;&gt;Node50 -->
<g id="edge70" class="edge"><title>Node2&#45;&gt;Node50</title>
<path fill="none" stroke="midnightblue" d="M2628.09,-336.444C2672.32,-327.004 2743.54,-311.802 2791.28,-301.611"/>
<polygon fill="midnightblue" stroke="midnightblue" points="2792.05,-305.027 2801.1,-299.516 2790.59,-298.181 2792.05,-305.027"/>
</g>
<!-- Node4 -->
<g id="node4" class="node"><title>Node4</title>
<g id="a_node4"><a xlink:href="_ogre_platform_8h.html" target="_top" xlink:title="OgrePlatform.h">
<polygon fill="none" stroke="black" points="66.5,-112.5 66.5,-131.5 149.5,-131.5 149.5,-112.5 66.5,-112.5"/>
<text text-anchor="middle" x="108" y="-119.5" font-family="Helvetica,sans-Serif" font-size="10.00">OgrePlatform.h</text>
</a>
</g>
</g>
<!-- Node3&#45;&gt;Node4 -->
<g id="edge3" class="edge"><title>Node3&#45;&gt;Node4</title>
<path fill="none" stroke="midnightblue" d="M2458.44,-175.841C2142.94,-168.748 476.033,-131.274 159.811,-124.165"/>
<polygon fill="midnightblue" stroke="midnightblue" points="159.639,-120.66 149.563,-123.934 159.482,-127.658 159.639,-120.66"/>
</g>
<!-- Node6 -->
<g id="node6" class="node"><title>Node6</title>
<polygon fill="none" stroke="#bfbfbf" points="158.5,-56.5 158.5,-75.5 199.5,-75.5 199.5,-56.5 158.5,-56.5"/>
<text text-anchor="middle" x="179" y="-63.5" font-family="Helvetica,sans-Serif" font-size="10.00">string</text>
</g>
<!-- Node3&#45;&gt;Node6 -->
<g id="edge5" class="edge"><title>Node3&#45;&gt;Node6</title>
<path fill="none" stroke="midnightblue" d="M2458.26,-176.098C2268.87,-172.653 1595.62,-159.128 1041,-132 673.733,-114.036 574.578,-143.36 209.804,-75.949"/>
<polygon fill="midnightblue" stroke="midnightblue" points="210.234,-72.4689 199.763,-74.0813 208.954,-79.3509 210.234,-72.4689"/>
</g>
<!-- Node7 -->
<g id="node7" class="node"><title>Node7</title>
<g id="a_node7"><a xlink:href="_ogre_std_headers_8h.html" target="_top" xlink:title="OgreStdHeaders.h">
<polygon fill="none" stroke="black" points="1050,-112.5 1050,-131.5 1148,-131.5 1148,-112.5 1050,-112.5"/>
<text text-anchor="middle" x="1099" y="-119.5" font-family="Helvetica,sans-Serif" font-size="10.00">OgreStdHeaders.h</text>
</a>
</g>
</g>
<!-- Node3&#45;&gt;Node7 -->
<g id="edge6" class="edge"><title>Node3&#45;&gt;Node7</title>
<path fill="none" stroke="midnightblue" d="M2458.11,-175.014C2239.1,-166.633 1391,-134.175 1158.33,-125.271"/>
<polygon fill="midnightblue" stroke="midnightblue" points="1158.17,-121.762 1148.04,-124.877 1157.9,-128.757 1158.17,-121.762"/>
</g>
<!-- Node37 -->
<g id="node37" class="node"><title>Node37</title>
<g id="a_node37"><a xlink:href="_ogre_memory_allocator_config_8h.html" target="_top" xlink:title="This file configures Ogre&#39;s memory allocators. ">
<polygon fill="none" stroke="black" points="2547,-112.5 2547,-131.5 2695,-131.5 2695,-112.5 2547,-112.5"/>
<text text-anchor="middle" x="2621" y="-119.5" font-family="Helvetica,sans-Serif" font-size="10.00">OgreMemoryAllocatorConfig.h</text>
</a>
</g>
</g>
<!-- Node3&#45;&gt;Node37 -->
<g id="edge37" class="edge"><title>Node3&#45;&gt;Node37</title>
<path fill="none" stroke="midnightblue" d="M2527.83,-168.324C2545.72,-159.625 2573.48,-146.12 2594.05,-136.113"/>
<polygon fill="midnightblue" stroke="midnightblue" points="2595.75,-139.177 2603.21,-131.655 2592.69,-132.882 2595.75,-139.177"/>
</g>
<!-- Node5 -->
<g id="node5" class="node"><title>Node5</title>
<g id="a_node5"><a xlink:href="_ogre_config_8h.html" target="_top" xlink:title="OgreConfig.h">
<polygon fill="none" stroke="red" points="66,-56.5 66,-75.5 140,-75.5 140,-56.5 66,-56.5"/>
<text text-anchor="middle" x="103" y="-63.5" font-family="Helvetica,sans-Serif" font-size="10.00">OgreConfig.h</text>
</a>
</g>
</g>
<!-- Node4&#45;&gt;Node5 -->
<g id="edge4" class="edge"><title>Node4&#45;&gt;Node5</title>
<path fill="none" stroke="midnightblue" d="M107.174,-112.083C106.519,-105.006 105.58,-94.8611 104.758,-85.9865"/>
<polygon fill="midnightblue" stroke="midnightblue" points="108.217,-85.3858 103.81,-75.7511 101.247,-86.0312 108.217,-85.3858"/>
</g>
<!-- Node7&#45;&gt;Node6 -->
<g id="edge16" class="edge"><title>Node7&#45;&gt;Node6</title>
<path fill="none" stroke="midnightblue" d="M1049.81,-120.136C890.772,-117.092 390.774,-105.51 209.679,-75.827"/>
<polygon fill="midnightblue" stroke="midnightblue" points="210.203,-72.3657 199.755,-74.1241 209.019,-79.2649 210.203,-72.3657"/>
</g>
<!-- Node8 -->
<g id="node8" class="node"><title>Node8</title>
<polygon fill="none" stroke="#bfbfbf" points="2176.5,-56.5 2176.5,-75.5 2225.5,-75.5 2225.5,-56.5 2176.5,-56.5"/>
<text text-anchor="middle" x="2201" y="-63.5" font-family="Helvetica,sans-Serif" font-size="10.00">cassert</text>
</g>
<!-- Node7&#45;&gt;Node8 -->
<g id="edge7" class="edge"><title>Node7&#45;&gt;Node8</title>
<path fill="none" stroke="midnightblue" d="M1148.19,-120.392C1327.65,-117.95 1947.68,-107.495 2166.17,-75.9062"/>
<polygon fill="midnightblue" stroke="midnightblue" points="2166.9,-79.3358 2176.26,-74.3859 2165.85,-72.4138 2166.9,-79.3358"/>
</g>
<!-- Node9 -->
<g id="node9" class="node"><title>Node9</title>
<polygon fill="none" stroke="#bfbfbf" points="2243.5,-56.5 2243.5,-75.5 2286.5,-75.5 2286.5,-56.5 2243.5,-56.5"/>
<text text-anchor="middle" x="2265" y="-63.5" font-family="Helvetica,sans-Serif" font-size="10.00">cstdio</text>
</g>
<!-- Node7&#45;&gt;Node9 -->
<g id="edge8" class="edge"><title>Node7&#45;&gt;Node9</title>
<path fill="none" stroke="midnightblue" d="M1148.29,-120.636C1335.11,-119.015 2000.36,-110.975 2233.37,-75.5718"/>
<polygon fill="midnightblue" stroke="midnightblue" points="2234.14,-78.9934 2243.47,-73.9747 2233.05,-72.0793 2234.14,-78.9934"/>
</g>
<!-- Node10 -->
<g id="node10" class="node"><title>Node10</title>
<polygon fill="none" stroke="#bfbfbf" points="2304.5,-56.5 2304.5,-75.5 2349.5,-75.5 2349.5,-56.5 2304.5,-56.5"/>
<text text-anchor="middle" x="2327" y="-63.5" font-family="Helvetica,sans-Serif" font-size="10.00">cstdlib</text>
</g>
<!-- Node7&#45;&gt;Node10 -->
<g id="edge9" class="edge"><title>Node7&#45;&gt;Node10</title>
<path fill="none" stroke="midnightblue" d="M1148.23,-120.698C1341.44,-119.278 2048.86,-111.796 2294.48,-75.5862"/>
<polygon fill="midnightblue" stroke="midnightblue" points="2295.07,-79.0368 2304.42,-74.0638 2294.01,-72.1173 2295.07,-79.0368"/>
</g>
<!-- Node11 -->
<g id="node11" class="node"><title>Node11</title>
<polygon fill="none" stroke="#bfbfbf" points="217.5,-56.5 217.5,-75.5 258.5,-75.5 258.5,-56.5 217.5,-56.5"/>
<text text-anchor="middle" x="238" y="-63.5" font-family="Helvetica,sans-Serif" font-size="10.00">ctime</text>
</g>
<!-- Node7&#45;&gt;Node11 -->
<g id="edge10" class="edge"><title>Node7&#45;&gt;Node11</title>
<path fill="none" stroke="midnightblue" d="M1049.91,-119.87C898.413,-116.147 438.673,-103.025 268.56,-75.5521"/>
<polygon fill="midnightblue" stroke="midnightblue" points="268.946,-72.0677 258.502,-73.8504 267.778,-78.9696 268.946,-72.0677"/>
</g>
<!-- Node12 -->
<g id="node12" class="node"><title>Node12</title>
<polygon fill="none" stroke="#bfbfbf" points="277,-56.5 277,-75.5 323,-75.5 323,-56.5 277,-56.5"/>
<text text-anchor="middle" x="300" y="-63.5" font-family="Helvetica,sans-Serif" font-size="10.00">cstring</text>
</g>
<!-- Node7&#45;&gt;Node12 -->
<g id="edge11" class="edge"><title>Node7&#45;&gt;Node12</title>
<path fill="none" stroke="midnightblue" d="M1049.68,-121.767C928.763,-122.866 607.985,-121.057 333.443,-75.8709"/>
<polygon fill="midnightblue" stroke="midnightblue" points="333.727,-72.3699 323.287,-74.1758 332.574,-79.2744 333.727,-72.3699"/>
</g>
<!-- Node13 -->
<g id="node13" class="node"><title>Node13</title>
<polygon fill="none" stroke="#bfbfbf" points="341.5,-56.5 341.5,-75.5 390.5,-75.5 390.5,-56.5 341.5,-56.5"/>
<text text-anchor="middle" x="366" y="-63.5" font-family="Helvetica,sans-Serif" font-size="10.00">cstdarg</text>
</g>
<!-- Node7&#45;&gt;Node13 -->
<g id="edge12" class="edge"><title>Node7&#45;&gt;Node13</title>
<path fill="none" stroke="midnightblue" d="M1049.9,-121.106C936.813,-120.652 649.259,-115.498 400.703,-75.7615"/>
<polygon fill="midnightblue" stroke="midnightblue" points="401.193,-72.2954 390.762,-74.1503 400.073,-79.2053 401.193,-72.2954"/>
</g>
<!-- Node14 -->
<g id="node14" class="node"><title>Node14</title>
<polygon fill="none" stroke="#bfbfbf" points="409,-56.5 409,-75.5 453,-75.5 453,-56.5 409,-56.5"/>
<text text-anchor="middle" x="431" y="-63.5" font-family="Helvetica,sans-Serif" font-size="10.00">cmath</text>
</g>
<!-- Node7&#45;&gt;Node14 -->
<g id="edge13" class="edge"><title>Node7&#45;&gt;Node14</title>
<path fill="none" stroke="midnightblue" d="M1049.82,-121.059C943.881,-120.427 686.339,-114.817 463.148,-75.8232"/>
<polygon fill="midnightblue" stroke="midnightblue" points="463.675,-72.3621 453.217,-74.0618 462.452,-79.2545 463.675,-72.3621"/>
</g>
<!-- Node15 -->
<g id="node15" class="node"><title>Node15</title>
<polygon fill="none" stroke="#bfbfbf" points="471,-56.5 471,-75.5 515,-75.5 515,-56.5 471,-56.5"/>
<text text-anchor="middle" x="493" y="-63.5" font-family="Helvetica,sans-Serif" font-size="10.00">vector</text>
</g>
<!-- Node7&#45;&gt;Node15 -->
<g id="edge14" class="edge"><title>Node7&#45;&gt;Node15</title>
<path fill="none" stroke="midnightblue" d="M1049.72,-120.524C951.424,-118.847 724.051,-111.32 525.263,-75.861"/>
<polygon fill="midnightblue" stroke="midnightblue" points="525.685,-72.3804 515.221,-74.0412 524.437,-79.2683 525.685,-72.3804"/>
</g>
<!-- Node16 -->
<g id="node16" class="node"><title>Node16</title>
<polygon fill="none" stroke="#bfbfbf" points="533.5,-56.5 533.5,-75.5 568.5,-75.5 568.5,-56.5 533.5,-56.5"/>
<text text-anchor="middle" x="551" y="-63.5" font-family="Helvetica,sans-Serif" font-size="10.00">map</text>
</g>
<!-- Node7&#45;&gt;Node16 -->
<g id="edge15" class="edge"><title>Node7&#45;&gt;Node16</title>
<path fill="none" stroke="midnightblue" d="M1049.96,-120.595C958.634,-119.014 756.402,-111.626 578.358,-75.5343"/>
<polygon fill="midnightblue" stroke="midnightblue" points="579.056,-72.1049 568.556,-73.5129 577.642,-78.9606 579.056,-72.1049"/>
</g>
<!-- Node17 -->
<g id="node17" class="node"><title>Node17</title>
<polygon fill="none" stroke="#bfbfbf" points="587,-56.5 587,-75.5 617,-75.5 617,-56.5 587,-56.5"/>
<text text-anchor="middle" x="602" y="-63.5" font-family="Helvetica,sans-Serif" font-size="10.00">set</text>
</g>
<!-- Node7&#45;&gt;Node17 -->
<g id="edge17" class="edge"><title>Node7&#45;&gt;Node17</title>
<path fill="none" stroke="midnightblue" d="M1049.98,-120.571C965.106,-118.913 785.474,-111.377 626.976,-75.615"/>
<polygon fill="midnightblue" stroke="midnightblue" points="627.579,-72.1624 617.049,-73.3314 626.01,-78.9842 627.579,-72.1624"/>
</g>
<!-- Node18 -->
<g id="node18" class="node"><title>Node18</title>
<polygon fill="none" stroke="#bfbfbf" points="635.5,-56.5 635.5,-75.5 664.5,-75.5 664.5,-56.5 635.5,-56.5"/>
<text text-anchor="middle" x="650" y="-63.5" font-family="Helvetica,sans-Serif" font-size="10.00">list</text>
</g>
<!-- Node7&#45;&gt;Node18 -->
<g id="edge18" class="edge"><title>Node7&#45;&gt;Node18</title>
<path fill="none" stroke="midnightblue" d="M1049.72,-120.055C971.493,-117.634 814.262,-109.004 674.908,-75.9214"/>
<polygon fill="midnightblue" stroke="midnightblue" points="675.45,-72.4514 664.907,-73.4969 673.801,-79.2544 675.45,-72.4514"/>
</g>
<!-- Node19 -->
<g id="node19" class="node"><title>Node19</title>
<polygon fill="none" stroke="#bfbfbf" points="682.5,-56.5 682.5,-75.5 725.5,-75.5 725.5,-56.5 682.5,-56.5"/>
<text text-anchor="middle" x="704" y="-63.5" font-family="Helvetica,sans-Serif" font-size="10.00">deque</text>
</g>
<!-- Node7&#45;&gt;Node19 -->
<g id="edge19" class="edge"><title>Node7&#45;&gt;Node19</title>
<path fill="none" stroke="midnightblue" d="M1049.86,-117.59C981.287,-112.25 852.953,-100.149 735.404,-75.9952"/>
<polygon fill="midnightblue" stroke="midnightblue" points="736.022,-72.5488 725.518,-73.9294 734.591,-79.4008 736.022,-72.5488"/>
</g>
<!-- Node20 -->
<g id="node20" class="node"><title>Node20</title>
<polygon fill="none" stroke="#bfbfbf" points="743.5,-56.5 743.5,-75.5 786.5,-75.5 786.5,-56.5 743.5,-56.5"/>
<text text-anchor="middle" x="765" y="-63.5" font-family="Helvetica,sans-Serif" font-size="10.00">queue</text>
</g>
<!-- Node7&#45;&gt;Node20 -->
<g id="edge20" class="edge"><title>Node7&#45;&gt;Node20</title>
<path fill="none" stroke="midnightblue" d="M1049.9,-115.943C991.531,-109.444 891.082,-96.7187 796.544,-76.0858"/>
<polygon fill="midnightblue" stroke="midnightblue" points="797.052,-72.6135 786.532,-73.8655 795.537,-79.4475 797.052,-72.6135"/>
</g>
<!-- Node21 -->
<g id="node21" class="node"><title>Node21</title>
<polygon fill="none" stroke="#bfbfbf" points="804.5,-56.5 804.5,-75.5 845.5,-75.5 845.5,-56.5 804.5,-56.5"/>
<text text-anchor="middle" x="825" y="-63.5" font-family="Helvetica,sans-Serif" font-size="10.00">bitset</text>
</g>
<!-- Node7&#45;&gt;Node21 -->
<g id="edge21" class="edge"><title>Node7&#45;&gt;Node21</title>
<path fill="none" stroke="midnightblue" d="M1049.6,-113.512C1002.2,-105.965 928.46,-93.2754 855.409,-75.8681"/>
<polygon fill="midnightblue" stroke="midnightblue" points="856.118,-72.4388 845.576,-73.495 854.476,-79.2435 856.118,-72.4388"/>
</g>
<!-- Node22 -->
<g id="node22" class="node"><title>Node22</title>
<polygon fill="none" stroke="#bfbfbf" points="864,-56.5 864,-75.5 920,-75.5 920,-56.5 864,-56.5"/>
<text text-anchor="middle" x="892" y="-63.5" font-family="Helvetica,sans-Serif" font-size="10.00">algorithm</text>
</g>
<!-- Node7&#45;&gt;Node22 -->
<g id="edge22" class="edge"><title>Node7&#45;&gt;Node22</title>
<path fill="none" stroke="midnightblue" d="M1066.2,-112.444C1029.26,-102.807 969.301,-87.1653 930.257,-76.98"/>
<polygon fill="midnightblue" stroke="midnightblue" points="930.882,-73.526 920.322,-74.3884 929.115,-80.2994 930.882,-73.526"/>
</g>
<!-- Node23 -->
<g id="node23" class="node"><title>Node23</title>
<polygon fill="none" stroke="#bfbfbf" points="938.5,-56.5 938.5,-75.5 997.5,-75.5 997.5,-56.5 938.5,-56.5"/>
<text text-anchor="middle" x="968" y="-63.5" font-family="Helvetica,sans-Serif" font-size="10.00">functional</text>
</g>
<!-- Node7&#45;&gt;Node23 -->
<g id="edge23" class="edge"><title>Node7&#45;&gt;Node23</title>
<path fill="none" stroke="midnightblue" d="M1078.24,-112.444C1056.68,-103.557 1022.74,-89.5632 998.206,-79.4514"/>
<polygon fill="midnightblue" stroke="midnightblue" points="999.239,-76.0917 988.66,-75.5164 996.572,-82.5634 999.239,-76.0917"/>
</g>
<!-- Node24 -->
<g id="node24" class="node"><title>Node24</title>
<polygon fill="none" stroke="#bfbfbf" points="1016,-56.5 1016,-75.5 1056,-75.5 1056,-56.5 1016,-56.5"/>
<text text-anchor="middle" x="1036" y="-63.5" font-family="Helvetica,sans-Serif" font-size="10.00">limits</text>
</g>
<!-- Node7&#45;&gt;Node24 -->
<g id="edge24" class="edge"><title>Node7&#45;&gt;Node24</title>
<path fill="none" stroke="midnightblue" d="M1088.88,-112.324C1079.47,-104.263 1065.26,-92.0765 1053.93,-82.3695"/>
<polygon fill="midnightblue" stroke="midnightblue" points="1056.18,-79.6844 1046.31,-75.8339 1051.62,-84.9993 1056.18,-79.6844"/>
</g>
<!-- Node25 -->
<g id="node25" class="node"><title>Node25</title>
<polygon fill="none" stroke="#bfbfbf" points="1074,-56.5 1074,-75.5 1124,-75.5 1124,-56.5 1074,-56.5"/>
<text text-anchor="middle" x="1099" y="-63.5" font-family="Helvetica,sans-Serif" font-size="10.00">fstream</text>
</g>
<!-- Node7&#45;&gt;Node25 -->
<g id="edge25" class="edge"><title>Node7&#45;&gt;Node25</title>
<path fill="none" stroke="midnightblue" d="M1099,-112.083C1099,-105.006 1099,-94.8611 1099,-85.9865"/>
<polygon fill="midnightblue" stroke="midnightblue" points="1102.5,-85.751 1099,-75.7511 1095.5,-85.7511 1102.5,-85.751"/>
</g>
<!-- Node26 -->
<g id="node26" class="node"><title>Node26</title>
<polygon fill="none" stroke="#bfbfbf" points="1142.5,-56.5 1142.5,-75.5 1187.5,-75.5 1187.5,-56.5 1142.5,-56.5"/>
<text text-anchor="middle" x="1165" y="-63.5" font-family="Helvetica,sans-Serif" font-size="10.00">iosfwd</text>
</g>
<!-- Node7&#45;&gt;Node26 -->
<g id="edge26" class="edge"><title>Node7&#45;&gt;Node26</title>
<path fill="none" stroke="midnightblue" d="M1109.6,-112.324C1119.46,-104.263 1134.35,-92.0765 1146.22,-82.3695"/>
<polygon fill="midnightblue" stroke="midnightblue" points="1148.68,-84.8752 1154.2,-75.8339 1144.25,-79.4575 1148.68,-84.8752"/>
</g>
<!-- Node27 -->
<g id="node27" class="node"><title>Node27</title>
<polygon fill="none" stroke="#bfbfbf" points="1206,-56.5 1206,-75.5 1258,-75.5 1258,-56.5 1206,-56.5"/>
<text text-anchor="middle" x="1232" y="-63.5" font-family="Helvetica,sans-Serif" font-size="10.00">sstream</text>
</g>
<!-- Node7&#45;&gt;Node27 -->
<g id="edge27" class="edge"><title>Node7&#45;&gt;Node27</title>
<path fill="none" stroke="midnightblue" d="M1120.07,-112.444C1142.06,-103.517 1176.73,-89.4387 1201.66,-79.3168"/>
<polygon fill="midnightblue" stroke="midnightblue" points="1203.08,-82.5213 1211.02,-75.5164 1200.44,-76.0355 1203.08,-82.5213"/>
</g>
<!-- Node28 -->
<g id="node28" class="node"><title>Node28</title>
<polygon fill="none" stroke="#bfbfbf" points="1276,-56.5 1276,-75.5 1344,-75.5 1344,-56.5 1276,-56.5"/>
<text text-anchor="middle" x="1310" y="-63.5" font-family="Helvetica,sans-Serif" font-size="10.00">sys/types.h</text>
</g>
<!-- Node7&#45;&gt;Node28 -->
<g id="edge28" class="edge"><title>Node7&#45;&gt;Node28</title>
<path fill="none" stroke="midnightblue" d="M1132.43,-112.444C1168.86,-103.122 1227.23,-88.1828 1267.03,-77.9972"/>
<polygon fill="midnightblue" stroke="midnightblue" points="1267.9,-81.3866 1276.72,-75.5164 1266.17,-74.6051 1267.9,-81.3866"/>
</g>
<!-- Node29 -->
<g id="node29" class="node"><title>Node29</title>
<polygon fill="none" stroke="#bfbfbf" points="1362,-56.5 1362,-75.5 1422,-75.5 1422,-56.5 1362,-56.5"/>
<text text-anchor="middle" x="1392" y="-63.5" font-family="Helvetica,sans-Serif" font-size="10.00">sys/stat.h</text>
</g>
<!-- Node7&#45;&gt;Node29 -->
<g id="edge29" class="edge"><title>Node7&#45;&gt;Node29</title>
<path fill="none" stroke="midnightblue" d="M1148.31,-113.036C1197.49,-104.921 1275.41,-91.5944 1351.98,-76.1269"/>
<polygon fill="midnightblue" stroke="midnightblue" points="1352.7,-79.5536 1361.8,-74.1308 1351.3,-72.694 1352.7,-79.5536"/>
</g>
<!-- Node30 -->
<g id="node30" class="node"><title>Node30</title>
<polygon fill="none" stroke="#bfbfbf" points="1440.5,-56.5 1440.5,-75.5 1491.5,-75.5 1491.5,-56.5 1440.5,-56.5"/>
<text text-anchor="middle" x="1466" y="-63.5" font-family="Helvetica,sans-Serif" font-size="10.00">unistd.h</text>
</g>
<!-- Node7&#45;&gt;Node30 -->
<g id="edge30" class="edge"><title>Node7&#45;&gt;Node30</title>
<path fill="none" stroke="midnightblue" d="M1148.23,-116.147C1211.35,-109.524 1324.29,-96.3194 1430.54,-75.8704"/>
<polygon fill="midnightblue" stroke="midnightblue" points="1431.32,-79.2835 1440.46,-73.9341 1429.98,-72.413 1431.32,-79.2835"/>
</g>
<!-- Node31 -->
<g id="node31" class="node"><title>Node31</title>
<polygon fill="none" stroke="#bfbfbf" points="1510,-56.5 1510,-75.5 1556,-75.5 1556,-56.5 1510,-56.5"/>
<text text-anchor="middle" x="1533" y="-63.5" font-family="Helvetica,sans-Serif" font-size="10.00">dlfcn.h</text>
</g>
<!-- Node7&#45;&gt;Node31 -->
<g id="edge31" class="edge"><title>Node7&#45;&gt;Node31</title>
<path fill="none" stroke="midnightblue" d="M1148.13,-117.942C1222.25,-112.791 1367.13,-100.633 1499.74,-75.7355"/>
<polygon fill="midnightblue" stroke="midnightblue" points="1500.5,-79.153 1509.67,-73.8422 1499.19,-72.2769 1500.5,-79.153"/>
</g>
<!-- Node32 -->
<g id="node32" class="node"><title>Node32</title>
<polygon fill="none" stroke="#bfbfbf" points="1574,-56.5 1574,-75.5 1652,-75.5 1652,-56.5 1574,-56.5"/>
<text text-anchor="middle" x="1613" y="-63.5" font-family="Helvetica,sans-Serif" font-size="10.00">ext/hash_map</text>
</g>
<!-- Node7&#45;&gt;Node32 -->
<g id="edge32" class="edge"><title>Node7&#45;&gt;Node32</title>
<path fill="none" stroke="midnightblue" d="M1148.15,-117.701C1231.48,-111.791 1406,-98.0522 1563.41,-76.1103"/>
<polygon fill="midnightblue" stroke="midnightblue" points="1564.34,-79.5141 1573.75,-74.6532 1563.36,-72.5826 1564.34,-79.5141"/>
</g>
<!-- Node33 -->
<g id="node33" class="node"><title>Node33</title>
<polygon fill="none" stroke="#bfbfbf" points="1670.5,-56.5 1670.5,-75.5 1743.5,-75.5 1743.5,-56.5 1670.5,-56.5"/>
<text text-anchor="middle" x="1707" y="-63.5" font-family="Helvetica,sans-Serif" font-size="10.00">ext/hash_set</text>
</g>
<!-- Node7&#45;&gt;Node33 -->
<g id="edge33" class="edge"><title>Node7&#45;&gt;Node33</title>
<path fill="none" stroke="midnightblue" d="M1148.06,-118.944C1244.3,-114.505 1464.69,-102.342 1660.23,-75.9384"/>
<polygon fill="midnightblue" stroke="midnightblue" points="1660.97,-79.3696 1670.4,-74.5482 1660.02,-72.434 1660.97,-79.3696"/>
</g>
<!-- Node34 -->
<g id="node34" class="node"><title>Node34</title>
<polygon fill="none" stroke="#bfbfbf" points="1761.5,-56.5 1761.5,-75.5 1832.5,-75.5 1832.5,-56.5 1761.5,-56.5"/>
<text text-anchor="middle" x="1797" y="-63.5" font-family="Helvetica,sans-Serif" font-size="10.00">sys/param.h</text>
</g>
<!-- Node7&#45;&gt;Node34 -->
<g id="edge34" class="edge"><title>Node7&#45;&gt;Node34</title>
<path fill="none" stroke="midnightblue" d="M1148.37,-119.764C1256.06,-116.601 1520.24,-106.307 1751.27,-75.9121"/>
<polygon fill="midnightblue" stroke="midnightblue" points="1751.76,-79.3787 1761.21,-74.5899 1750.83,-72.4399 1751.76,-79.3787"/>
</g>
<!-- Node35 -->
<g id="node35" class="node"><title>Node35</title>
<polygon fill="none" stroke="#bfbfbf" points="1851,-56.5 1851,-75.5 2017,-75.5 2017,-56.5 1851,-56.5"/>
<text text-anchor="middle" x="1934" y="-63.5" font-family="Helvetica,sans-Serif" font-size="10.00">CoreFoundation/CoreFoundation.h</text>
</g>
<!-- Node7&#45;&gt;Node35 -->
<g id="edge35" class="edge"><title>Node7&#45;&gt;Node35</title>
<path fill="none" stroke="midnightblue" d="M1148.1,-118.633C1265.55,-112.84 1572.23,-96.9361 1840.53,-76.0049"/>
<polygon fill="midnightblue" stroke="midnightblue" points="1841.16,-79.466 1850.86,-75.195 1840.62,-72.4874 1841.16,-79.466"/>
</g>
<!-- Node36 -->
<g id="node36" class="node"><title>Node36</title>
<polygon fill="none" stroke="#bfbfbf" points="2035,-56.5 2035,-75.5 2159,-75.5 2159,-56.5 2035,-56.5"/>
<text text-anchor="middle" x="2097" y="-63.5" font-family="Helvetica,sans-Serif" font-size="10.00">emscripten/emscripten.h</text>
</g>
<!-- Node7&#45;&gt;Node36 -->
<g id="edge36" class="edge"><title>Node7&#45;&gt;Node36</title>
<path fill="none" stroke="midnightblue" d="M1148.33,-119.952C1285.54,-116.751 1683.46,-105.513 2024.61,-76.0528"/>
<polygon fill="midnightblue" stroke="midnightblue" points="2025.03,-79.5298 2034.69,-75.1759 2024.43,-72.5562 2025.03,-79.5298"/>
</g>
<!-- Node38 -->
<g id="node38" class="node"><title>Node38</title>
<g id="a_node38"><a xlink:href="_ogre_memory_allocated_object_8h.html" target="_top" xlink:title="OgreMemoryAllocatedObject.h">
<polygon fill="none" stroke="black" points="2406,-56.5 2406,-75.5 2556,-75.5 2556,-56.5 2406,-56.5"/>
<text text-anchor="middle" x="2481" y="-63.5" font-family="Helvetica,sans-Serif" font-size="10.00">OgreMemoryAllocatedObject.h</text>
</a>
</g>
</g>
<!-- Node37&#45;&gt;Node38 -->
<g id="edge38" class="edge"><title>Node37&#45;&gt;Node38</title>
<path fill="none" stroke="midnightblue" d="M2598.82,-112.444C2575.57,-103.478 2538.85,-89.314 2512.58,-79.1827"/>
<polygon fill="midnightblue" stroke="midnightblue" points="2513.67,-75.8497 2503.08,-75.5164 2511.15,-82.3807 2513.67,-75.8497"/>
</g>
<!-- Node39 -->
<g id="node39" class="node"><title>Node39</title>
<g id="a_node39"><a xlink:href="_ogre_header_prefix_8h.html" target="_top" xlink:title="OgreHeaderPrefix.h">
<polygon fill="none" stroke="black" points="2943.5,-0.5 2943.5,-19.5 3046.5,-19.5 3046.5,-0.5 2943.5,-0.5"/>
<text text-anchor="middle" x="2995" y="-7.5" font-family="Helvetica,sans-Serif" font-size="10.00">OgreHeaderPrefix.h</text>
</a>
</g>
</g>
<!-- Node37&#45;&gt;Node39 -->
<g id="edge42" class="edge"><title>Node37&#45;&gt;Node39</title>
<path fill="none" stroke="midnightblue" d="M2695.26,-114.994C2805.73,-105.698 3001.58,-87.6831 3012,-76 3023.72,-62.8584 3015.71,-42.6176 3007.16,-28.2173"/>
<polygon fill="midnightblue" stroke="midnightblue" points="3010.04,-26.2243 3001.67,-19.731 3004.16,-30.0278 3010.04,-26.2243"/>
</g>
<!-- Node40 -->
<g id="node40" class="node"><title>Node40</title>
<g id="a_node40"><a xlink:href="_ogre_header_suffix_8h.html" target="_top" xlink:title="OgreHeaderSuffix.h">
<polygon fill="none" stroke="black" points="2480.5,-0.5 2480.5,-19.5 2583.5,-19.5 2583.5,-0.5 2480.5,-0.5"/>
<text text-anchor="middle" x="2532" y="-7.5" font-family="Helvetica,sans-Serif" font-size="10.00">OgreHeaderSuffix.h</text>
</a>
</g>
</g>
<!-- Node37&#45;&gt;Node40 -->
<g id="edge50" class="edge"><title>Node37&#45;&gt;Node40</title>
<path fill="none" stroke="midnightblue" d="M2614.02,-112.368C2599.26,-94.135 2564.71,-51.4257 2545.49,-27.6752"/>
<polygon fill="midnightblue" stroke="midnightblue" points="2547.96,-25.164 2538.95,-19.5914 2542.52,-29.567 2547.96,-25.164"/>
</g>
<!-- Node41 -->
<g id="node41" class="node"><title>Node41</title>
<g id="a_node41"><a xlink:href="_ogre_memory_s_t_l_allocator_8h.html" target="_top" xlink:title="OgreMemorySTLAllocator.h">
<polygon fill="none" stroke="black" points="2761.5,-56.5 2761.5,-75.5 2898.5,-75.5 2898.5,-56.5 2761.5,-56.5"/>
<text text-anchor="middle" x="2830" y="-63.5" font-family="Helvetica,sans-Serif" font-size="10.00">OgreMemorySTLAllocator.h</text>
</a>
</g>
</g>
<!-- Node37&#45;&gt;Node41 -->
<g id="edge43" class="edge"><title>Node37&#45;&gt;Node41</title>
<path fill="none" stroke="midnightblue" d="M2654.12,-112.444C2690.12,-103.142 2747.77,-88.246 2787.19,-78.062"/>
<polygon fill="midnightblue" stroke="midnightblue" points="2788.23,-81.4068 2797.04,-75.5164 2786.48,-74.6294 2788.23,-81.4068"/>
</g>
<!-- Node42 -->
<g id="node42" class="node"><title>Node42</title>
<g id="a_node42"><a xlink:href="_ogre_memory_ned_pooling_8h.html" target="_top" xlink:title="OgreMemoryNedPooling.h">
<polygon fill="none" stroke="black" points="2612.5,-56.5 2612.5,-75.5 2743.5,-75.5 2743.5,-56.5 2612.5,-56.5"/>
<text text-anchor="middle" x="2678" y="-63.5" font-family="Helvetica,sans-Serif" font-size="10.00">OgreMemoryNedPooling.h</text>
</a>
</g>
</g>
<!-- Node37&#45;&gt;Node42 -->
<g id="edge47" class="edge"><title>Node37&#45;&gt;Node42</title>
<path fill="none" stroke="midnightblue" d="M2630.16,-112.324C2638.5,-104.42 2651.03,-92.5482 2661.18,-82.9377"/>
<polygon fill="midnightblue" stroke="midnightblue" points="2663.82,-85.2522 2668.68,-75.8339 2659.01,-80.1705 2663.82,-85.2522"/>
</g>
<!-- Node38&#45;&gt;Node3 -->
<g id="edge39" class="edge"><title>Node38&#45;&gt;Node3</title>
<path fill="none" stroke="midnightblue" d="M2483.27,-75.5914C2487.96,-93.3881 2498.83,-134.625 2505.17,-158.674"/>
<polygon fill="midnightblue" stroke="midnightblue" points="2501.79,-159.591 2507.72,-168.368 2508.56,-157.807 2501.79,-159.591"/>
</g>
<!-- Node38&#45;&gt;Node39 -->
<g id="edge40" class="edge"><title>Node38&#45;&gt;Node39</title>
<path fill="none" stroke="midnightblue" d="M2556.02,-57.119C2658.04,-46.4004 2838.65,-27.4254 2933.27,-17.4851"/>
<polygon fill="midnightblue" stroke="midnightblue" points="2933.68,-20.9611 2943.26,-16.4354 2932.95,-13.9995 2933.68,-20.9611"/>
</g>
<!-- Node38&#45;&gt;Node40 -->
<g id="edge41" class="edge"><title>Node38&#45;&gt;Node40</title>
<path fill="none" stroke="midnightblue" d="M2489.42,-56.083C2496.85,-48.2195 2507.85,-36.5688 2516.81,-27.0813"/>
<polygon fill="midnightblue" stroke="midnightblue" points="2519.41,-29.4244 2523.74,-19.7511 2514.32,-24.618 2519.41,-29.4244"/>
</g>
<!-- Node41&#45;&gt;Node3 -->
<g id="edge44" class="edge"><title>Node41&#45;&gt;Node3</title>
<path fill="none" stroke="midnightblue" d="M2814.47,-75.6283C2785.97,-91.363 2726.18,-123.851 2704,-132 2660.95,-147.816 2610.43,-159.324 2571.74,-166.741"/>
<polygon fill="midnightblue" stroke="midnightblue" points="2570.84,-163.348 2561.66,-168.632 2572.13,-170.228 2570.84,-163.348"/>
</g>
<!-- Node41&#45;&gt;Node39 -->
<g id="edge45" class="edge"><title>Node41&#45;&gt;Node39</title>
<path fill="none" stroke="midnightblue" d="M2856.14,-56.4435C2884.02,-47.3196 2928.35,-32.8133 2959.4,-22.6509"/>
<polygon fill="midnightblue" stroke="midnightblue" points="2960.56,-25.9533 2968.98,-19.5164 2958.38,-19.3005 2960.56,-25.9533"/>
</g>
<!-- Node41&#45;&gt;Node40 -->
<g id="edge46" class="edge"><title>Node41&#45;&gt;Node40</title>
<path fill="none" stroke="midnightblue" d="M2782.78,-56.4435C2730.25,-46.9246 2645.39,-31.5472 2589.15,-21.3563"/>
<polygon fill="midnightblue" stroke="midnightblue" points="2589.46,-17.8556 2579,-19.5164 2588.21,-24.7435 2589.46,-17.8556"/>
</g>
<!-- Node42&#45;&gt;Node39 -->
<g id="edge48" class="edge"><title>Node42&#45;&gt;Node39</title>
<path fill="none" stroke="midnightblue" d="M2728.23,-56.4435C2784.34,-46.8851 2875.13,-31.4195 2934.95,-21.2298"/>
<polygon fill="midnightblue" stroke="midnightblue" points="2935.74,-24.6461 2945.01,-19.5164 2934.56,-17.7455 2935.74,-24.6461"/>
</g>
<!-- Node42&#45;&gt;Node40 -->
<g id="edge49" class="edge"><title>Node42&#45;&gt;Node40</title>
<path fill="none" stroke="midnightblue" d="M2654.87,-56.4435C2630.52,-47.4381 2591.99,-33.1891 2564.58,-23.049"/>
<polygon fill="midnightblue" stroke="midnightblue" points="2565.62,-19.7028 2555.03,-19.5164 2563.19,-26.2681 2565.62,-19.7028"/>
</g>
<!-- Node43&#45;&gt;Node3 -->
<g id="edge52" class="edge"><title>Node43&#45;&gt;Node3</title>
<path fill="none" stroke="midnightblue" d="M2601.58,-280.361C2619.47,-267.892 2647.07,-244.137 2633,-224 2618.92,-203.86 2594.81,-192.705 2571.65,-186.538"/>
<polygon fill="midnightblue" stroke="midnightblue" points="2572.35,-183.107 2561.81,-184.188 2570.73,-189.916 2572.35,-183.107"/>
</g>
<!-- Node43&#45;&gt;Node39 -->
<g id="edge63" class="edge"><title>Node43&#45;&gt;Node39</title>
<path fill="none" stroke="midnightblue" d="M2637.92,-280.456C2774.64,-256.889 3145,-191.86 3145,-179 3145,-179 3145,-179 3145,-121 3145,-67.7094 3082.67,-37.4147 3038.37,-22.6126"/>
<polygon fill="midnightblue" stroke="midnightblue" points="3039.25,-19.2206 3028.66,-19.5167 3037.13,-25.8897 3039.25,-19.2206"/>
</g>
<!-- Node43&#45;&gt;Node40 -->
<g id="edge64" class="edge"><title>Node43&#45;&gt;Node40</title>
<path fill="none" stroke="midnightblue" d="M2538.33,-288.23C2179.66,-282.51 0,-245.034 0,-179 0,-179 0,-179 0,-121 0,-87.0792 10.5393,-72.8133 40,-56 94.4093,-24.9485 2090.72,-13.2469 2470.1,-11.3013"/>
<polygon fill="midnightblue" stroke="midnightblue" points="2470.34,-14.8002 2480.33,-11.2492 2470.31,-7.80025 2470.34,-14.8002"/>
</g>
<!-- Node44 -->
<g id="node44" class="node"><title>Node44</title>
<g id="a_node44"><a xlink:href="_ogre_log_8h.html" target="_top" xlink:title="OgreLog.h">
<polygon fill="none" stroke="black" points="2710,-224.5 2710,-243.5 2772,-243.5 2772,-224.5 2710,-224.5"/>
<text text-anchor="middle" x="2741" y="-231.5" font-family="Helvetica,sans-Serif" font-size="10.00">OgreLog.h</text>
</a>
</g>
</g>
<!-- Node43&#45;&gt;Node44 -->
<g id="edge53" class="edge"><title>Node43&#45;&gt;Node44</title>
<path fill="none" stroke="midnightblue" d="M2612.24,-280.444C2637.87,-271.399 2678.49,-257.064 2707.24,-246.916"/>
<polygon fill="midnightblue" stroke="midnightblue" points="2708.61,-250.145 2716.87,-243.516 2706.28,-243.544 2708.61,-250.145"/>
</g>
<!-- Node47 -->
<g id="node47" class="node"><title>Node47</title>
<g id="a_node47"><a xlink:href="_ogre_singleton_8h.html" target="_top" xlink:title="OgreSingleton.h">
<polygon fill="none" stroke="black" points="2538,-224.5 2538,-243.5 2624,-243.5 2624,-224.5 2538,-224.5"/>
<text text-anchor="middle" x="2581" y="-231.5" font-family="Helvetica,sans-Serif" font-size="10.00">OgreSingleton.h</text>
</a>
</g>
</g>
<!-- Node43&#45;&gt;Node47 -->
<g id="edge61" class="edge"><title>Node43&#45;&gt;Node47</title>
<path fill="none" stroke="midnightblue" d="M2586.84,-280.083C2585.92,-272.927 2584.58,-262.635 2583.42,-253.691"/>
<polygon fill="midnightblue" stroke="midnightblue" points="2586.89,-253.218 2582.13,-243.751 2579.95,-254.118 2586.89,-253.218"/>
</g>
<!-- Node44&#45;&gt;Node3 -->
<g id="edge54" class="edge"><title>Node44&#45;&gt;Node3</title>
<path fill="none" stroke="midnightblue" d="M2709.85,-225.717C2670.46,-216.51 2602.31,-200.578 2556.69,-189.914"/>
<polygon fill="midnightblue" stroke="midnightblue" points="2557.28,-186.458 2546.75,-187.59 2555.69,-193.275 2557.28,-186.458"/>
</g>
<!-- Node44&#45;&gt;Node39 -->
<g id="edge59" class="edge"><title>Node44&#45;&gt;Node39</title>
<path fill="none" stroke="midnightblue" d="M2772.25,-230.216C2831.35,-224.503 2956.93,-210.106 2994,-188 3054.77,-151.763 3119.93,-116.356 3083,-56 3073.49,-40.4604 3056.74,-30.0704 3040.38,-23.2314"/>
<polygon fill="midnightblue" stroke="midnightblue" points="3041.44,-19.8913 3030.85,-19.6029 3038.95,-26.4329 3041.44,-19.8913"/>
</g>
<!-- Node44&#45;&gt;Node40 -->
<g id="edge60" class="edge"><title>Node44&#45;&gt;Node40</title>
<path fill="none" stroke="midnightblue" d="M2718.82,-224.493C2645.75,-196.246 2416.08,-105.682 2397,-76 2376.01,-43.3494 2425.35,-26.678 2470.17,-18.4508"/>
<polygon fill="midnightblue" stroke="midnightblue" points="2470.97,-21.8658 2480.23,-16.7258 2469.78,-14.9665 2470.97,-21.8658"/>
</g>
<!-- Node45 -->
<g id="node45" class="node"><title>Node45</title>
<g id="a_node45"><a xlink:href="_ogre_common_8h.html" target="_top" xlink:title="OgreCommon.h">
<polygon fill="none" stroke="black" points="2917,-56.5 2917,-75.5 3003,-75.5 3003,-56.5 2917,-56.5"/>
<text text-anchor="middle" x="2960" y="-63.5" font-family="Helvetica,sans-Serif" font-size="10.00">OgreCommon.h</text>
</a>
</g>
</g>
<!-- Node44&#45;&gt;Node45 -->
<g id="edge55" class="edge"><title>Node44&#45;&gt;Node45</title>
<path fill="none" stroke="midnightblue" d="M2750.75,-224.318C2765.16,-211.594 2793.12,-187.299 2818,-168 2859.67,-135.684 2910.42,-100.554 2938.57,-81.4216"/>
<polygon fill="midnightblue" stroke="midnightblue" points="2940.89,-84.0791 2947.21,-75.5737 2936.97,-78.2831 2940.89,-84.0791"/>
</g>
<!-- Node46 -->
<g id="node46" class="node"><title>Node46</title>
<g id="a_node46"><a xlink:href="_ogre_thread_headers_8h.html" target="_top" xlink:title="Threading/OgreThreadHeaders.h">
<polygon fill="none" stroke="red" points="2827,-168.5 2827,-187.5 2985,-187.5 2985,-168.5 2827,-168.5"/>
<text text-anchor="middle" x="2906" y="-175.5" font-family="Helvetica,sans-Serif" font-size="10.00">Threading/OgreThreadHeaders.h</text>
</a>
</g>
</g>
<!-- Node44&#45;&gt;Node46 -->
<g id="edge58" class="edge"><title>Node44&#45;&gt;Node46</title>
<path fill="none" stroke="midnightblue" d="M2767.14,-224.444C2795.02,-215.32 2839.35,-200.813 2870.4,-190.651"/>
<polygon fill="midnightblue" stroke="midnightblue" points="2871.56,-193.953 2879.98,-187.516 2869.38,-187.3 2871.56,-193.953"/>
</g>
<!-- Node45&#45;&gt;Node39 -->
<g id="edge56" class="edge"><title>Node45&#45;&gt;Node39</title>
<path fill="none" stroke="midnightblue" d="M2965.78,-56.083C2970.67,-48.5341 2977.83,-37.4948 2983.83,-28.2298"/>
<polygon fill="midnightblue" stroke="midnightblue" points="2986.83,-30.0463 2989.33,-19.7511 2980.95,-26.239 2986.83,-30.0463"/>
</g>
<!-- Node45&#45;&gt;Node40 -->
<g id="edge57" class="edge"><title>Node45&#45;&gt;Node40</title>
<path fill="none" stroke="midnightblue" d="M2916.9,-57.3614C2913.89,-56.8832 2910.9,-56.4243 2908,-56 2797.57,-39.846 2668.25,-25.3276 2593.66,-17.3795"/>
<polygon fill="midnightblue" stroke="midnightblue" points="2593.82,-13.8768 2583.5,-16.3021 2593.08,-20.8377 2593.82,-13.8768"/>
</g>
<!-- Node47&#45;&gt;Node3 -->
<g id="edge62" class="edge"><title>Node47&#45;&gt;Node3</title>
<path fill="none" stroke="midnightblue" d="M2569.59,-224.324C2558.89,-216.185 2542.66,-203.839 2529.84,-194.087"/>
<polygon fill="midnightblue" stroke="midnightblue" points="2531.69,-191.102 2521.61,-187.834 2527.46,-196.673 2531.69,-191.102"/>
</g>
<!-- Node48&#45;&gt;Node3 -->
<g id="edge66" class="edge"><title>Node48&#45;&gt;Node3</title>
<path fill="none" stroke="midnightblue" d="M2457.96,-224.324C2467.13,-216.341 2480.94,-204.313 2492.03,-194.653"/>
<polygon fill="midnightblue" stroke="midnightblue" points="2494.62,-197.041 2499.86,-187.834 2490.02,-191.762 2494.62,-197.041"/>
</g>
<!-- Node48&#45;&gt;Node39 -->
<g id="edge67" class="edge"><title>Node48&#45;&gt;Node39</title>
<path fill="none" stroke="midnightblue" d="M2482.3,-226.226C2601.68,-202.313 2993.65,-120.89 3028,-76 3039.7,-60.7094 3025.84,-40.6357 3012.67,-26.8646"/>
<polygon fill="midnightblue" stroke="midnightblue" points="3014.79,-24.0465 3005.19,-19.5685 3009.9,-29.057 3014.79,-24.0465"/>
</g>
<!-- Node48&#45;&gt;Node40 -->
<g id="edge68" class="edge"><title>Node48&#45;&gt;Node40</title>
<path fill="none" stroke="midnightblue" d="M2413.68,-232.889C2127.25,-231.799 142.357,-221.039 57,-132 33.6249,-107.617 33.3336,-80.1006 57,-56 100.594,-11.6063 2091.74,-10.708 2470.23,-10.939"/>
<polygon fill="midnightblue" stroke="midnightblue" points="2470.44,-14.439 2480.44,-10.9457 2470.44,-7.43899 2470.44,-14.439"/>
</g>
</g>
</svg>
