<?xml version="1.0" encoding="UTF-8" standalone="no"?>
<!DOCTYPE svg PUBLIC "-//W3C//DTD SVG 1.1//EN"
 "http://www.w3.org/Graphics/SVG/1.1/DTD/svg11.dtd">
<!-- Generated by graphviz version 2.38.0 (20140413.2041)
 -->
<!-- Title: OgreDepthBuffer.h Pages: 1 -->
<svg width="856pt" height="84pt"
 viewBox="0.00 0.00 855.50 84.00" xmlns="http://www.w3.org/2000/svg" xmlns:xlink="http://www.w3.org/1999/xlink">
<g id="graph0" class="graph" transform="scale(1 1) rotate(0) translate(4 80)">
<title>OgreDepthBuffer.h</title>
<!-- Node1 -->
<g id="node1" class="node"><title>Node1</title>
<polygon fill="#bfbfbf" stroke="black" points="367.5,-56.5 367.5,-75.5 465.5,-75.5 465.5,-56.5 367.5,-56.5"/>
<text text-anchor="middle" x="416.5" y="-63.5" font-family="Helvetica,sans-Serif" font-size="10.00">OgreDepthBuffer.h</text>
</g>
<!-- Node2 -->
<g id="node2" class="node"><title>Node2</title>
<g id="a_node2"><a xlink:href="_ogre_d3_d11_depth_buffer_8h.html" target="_top" xlink:title="OgreD3D11DepthBuffer.h">
<polygon fill="none" stroke="black" points="0,-0.5 0,-19.5 129,-19.5 129,-0.5 0,-0.5"/>
<text text-anchor="middle" x="64.5" y="-7.5" font-family="Helvetica,sans-Serif" font-size="10.00">OgreD3D11DepthBuffer.h</text>
</a>
</g>
</g>
<!-- Node1&#45;&gt;Node2 -->
<g id="edge1" class="edge"><title>Node1&#45;&gt;Node2</title>
<path fill="none" stroke="midnightblue" d="M356.917,-55.8594C290.73,-45.7057 184.712,-29.4417 120.154,-19.5378"/>
<polygon fill="midnightblue" stroke="midnightblue" points="356.77,-59.3778 367.185,-57.4347 357.832,-52.4587 356.77,-59.3778"/>
</g>
<!-- Node3 -->
<g id="node3" class="node"><title>Node3</title>
<g id="a_node3"><a xlink:href="_ogre_d3_d9_depth_buffer_8h.html" target="_top" xlink:title="OgreD3D9DepthBuffer.h">
<polygon fill="none" stroke="black" points="147.5,-0.5 147.5,-19.5 271.5,-19.5 271.5,-0.5 147.5,-0.5"/>
<text text-anchor="middle" x="209.5" y="-7.5" font-family="Helvetica,sans-Serif" font-size="10.00">OgreD3D9DepthBuffer.h</text>
</a>
</g>
</g>
<!-- Node1&#45;&gt;Node3 -->
<g id="edge2" class="edge"><title>Node1&#45;&gt;Node3</title>
<path fill="none" stroke="midnightblue" d="M373.678,-53.8291C334.594,-43.6333 277.665,-28.7823 242.146,-19.5164"/>
<polygon fill="midnightblue" stroke="midnightblue" points="373.141,-57.3059 383.7,-56.4435 374.908,-50.5326 373.141,-57.3059"/>
</g>
<!-- Node4 -->
<g id="node4" class="node"><title>Node4</title>
<g id="a_node4"><a xlink:href="_ogre_g_l_depth_buffer_8h.html" target="_top" xlink:title="OgreGLDepthBuffer.h">
<polygon fill="none" stroke="black" points="290,-0.5 290,-19.5 401,-19.5 401,-0.5 290,-0.5"/>
<text text-anchor="middle" x="345.5" y="-7.5" font-family="Helvetica,sans-Serif" font-size="10.00">OgreGLDepthBuffer.h</text>
</a>
</g>
</g>
<!-- Node1&#45;&gt;Node4 -->
<g id="edge3" class="edge"><title>Node1&#45;&gt;Node4</title>
<path fill="none" stroke="midnightblue" d="M396.91,-50.1008C384.132,-40.3824 367.887,-28.0269 357.115,-19.8339"/>
<polygon fill="midnightblue" stroke="midnightblue" points="395.014,-53.0561 405.093,-56.324 399.252,-47.4844 395.014,-53.0561"/>
</g>
<!-- Node5 -->
<g id="node5" class="node"><title>Node5</title>
<g id="a_node5"><a xlink:href="_ogre_g_l3_plus_depth_buffer_8h.html" target="_top" xlink:title="OgreGL3PlusDepthBuffer.h">
<polygon fill="none" stroke="black" points="419.5,-0.5 419.5,-19.5 555.5,-19.5 555.5,-0.5 419.5,-0.5"/>
<text text-anchor="middle" x="487.5" y="-7.5" font-family="Helvetica,sans-Serif" font-size="10.00">OgreGL3PlusDepthBuffer.h</text>
</a>
</g>
</g>
<!-- Node1&#45;&gt;Node5 -->
<g id="edge4" class="edge"><title>Node1&#45;&gt;Node5</title>
<path fill="none" stroke="midnightblue" d="M436.09,-50.1008C448.868,-40.3824 465.113,-28.0269 475.885,-19.8339"/>
<polygon fill="midnightblue" stroke="midnightblue" points="433.748,-47.4844 427.907,-56.324 437.986,-53.0561 433.748,-47.4844"/>
</g>
<!-- Node6 -->
<g id="node6" class="node"><title>Node6</title>
<g id="a_node6"><a xlink:href="_ogre_g_l_e_s_depth_buffer_8h.html" target="_top" xlink:title="OgreGLESDepthBuffer.h">
<polygon fill="none" stroke="black" points="574,-0.5 574,-19.5 699,-19.5 699,-0.5 574,-0.5"/>
<text text-anchor="middle" x="636.5" y="-7.5" font-family="Helvetica,sans-Serif" font-size="10.00">OgreGLESDepthBuffer.h</text>
</a>
</g>
</g>
<!-- Node1&#45;&gt;Node6 -->
<g id="edge5" class="edge"><title>Node1&#45;&gt;Node6</title>
<path fill="none" stroke="midnightblue" d="M461.218,-54.0237C502.776,-43.8232 563.813,-28.8414 601.803,-19.5164"/>
<polygon fill="midnightblue" stroke="midnightblue" points="460.237,-50.6606 451.36,-56.4435 461.906,-57.4588 460.237,-50.6606"/>
</g>
<!-- Node7 -->
<g id="node7" class="node"><title>Node7</title>
<g id="a_node7"><a xlink:href="_ogre_g_l_e_s2_depth_buffer_8h.html" target="_top" xlink:title="OgreGLES2DepthBuffer.h">
<polygon fill="none" stroke="black" points="717.5,-0.5 717.5,-19.5 847.5,-19.5 847.5,-0.5 717.5,-0.5"/>
<text text-anchor="middle" x="782.5" y="-7.5" font-family="Helvetica,sans-Serif" font-size="10.00">OgreGLES2DepthBuffer.h</text>
</a>
</g>
</g>
<!-- Node1&#45;&gt;Node7 -->
<g id="edge6" class="edge"><title>Node1&#45;&gt;Node7</title>
<path fill="none" stroke="midnightblue" d="M476.073,-56.2105C544.694,-46.0862 656.68,-29.5636 724.59,-19.5441"/>
<polygon fill="midnightblue" stroke="midnightblue" points="475.242,-52.7951 465.86,-57.7173 476.264,-59.7201 475.242,-52.7951"/>
</g>
</g>
</svg>
