<?xml version="1.0" encoding="UTF-8" standalone="no"?>
<!DOCTYPE svg PUBLIC "-//W3C//DTD SVG 1.1//EN"
 "http://www.w3.org/Graphics/SVG/1.1/DTD/svg11.dtd">
<!-- Generated by graphviz version 2.38.0 (20140413.2041)
 -->
<!-- Title: OgreD3D11TextureManager.h Pages: 1 -->
<svg width="2012pt" height="476pt"
 viewBox="0.00 0.00 2011.50 476.00" xmlns="http://www.w3.org/2000/svg" xmlns:xlink="http://www.w3.org/1999/xlink">
<g id="graph0" class="graph" transform="scale(1 1) rotate(0) translate(4 472)">
<title>OgreD3D11TextureManager.h</title>
<!-- Node1 -->
<g id="node1" class="node"><title>Node1</title>
<polygon fill="#bfbfbf" stroke="black" points="794,-448.5 794,-467.5 941,-467.5 941,-448.5 794,-448.5"/>
<text text-anchor="middle" x="867.5" y="-455.5" font-family="Helvetica,sans-Serif" font-size="10.00">OgreD3D11TextureManager.h</text>
</g>
<!-- Node2 -->
<g id="node2" class="node"><title>Node2</title>
<g id="a_node2"><a xlink:href="_ogre_d3_d11_prerequisites_8h.html" target="_top" xlink:title="OgreD3D11Prerequisites.h">
<polygon fill="none" stroke="black" points="567.5,-224.5 567.5,-243.5 701.5,-243.5 701.5,-224.5 567.5,-224.5"/>
<text text-anchor="middle" x="634.5" y="-231.5" font-family="Helvetica,sans-Serif" font-size="10.00">OgreD3D11Prerequisites.h</text>
</a>
</g>
</g>
<!-- Node1&#45;&gt;Node2 -->
<g id="edge1" class="edge"><title>Node1&#45;&gt;Node2</title>
<path fill="none" stroke="midnightblue" d="M858.366,-448.297C823.204,-414.796 696.297,-293.88 650.84,-250.569"/>
<polygon fill="midnightblue" stroke="midnightblue" points="653.225,-248.007 643.571,-243.643 648.396,-253.075 653.225,-248.007"/>
</g>
<!-- Node39 -->
<g id="node39" class="node"><title>Node39</title>
<g id="a_node39"><a xlink:href="_ogre_texture_manager_8h.html" target="_top" xlink:title="OgreTextureManager.h">
<polygon fill="none" stroke="black" points="951.5,-392.5 951.5,-411.5 1067.5,-411.5 1067.5,-392.5 951.5,-392.5"/>
<text text-anchor="middle" x="1009.5" y="-399.5" font-family="Helvetica,sans-Serif" font-size="10.00">OgreTextureManager.h</text>
</a>
</g>
</g>
<!-- Node1&#45;&gt;Node39 -->
<g id="edge40" class="edge"><title>Node1&#45;&gt;Node39</title>
<path fill="none" stroke="midnightblue" d="M890,-448.444C913.577,-439.478 950.822,-425.314 977.464,-415.183"/>
<polygon fill="midnightblue" stroke="midnightblue" points="979.002,-418.342 987.105,-411.516 976.514,-411.8 979.002,-418.342"/>
</g>
<!-- Node3 -->
<g id="node3" class="node"><title>Node3</title>
<g id="a_node3"><a xlink:href="_ogre_prerequisites_8h.html" target="_top" xlink:title="OgrePrerequisites.h">
<polygon fill="none" stroke="black" points="989,-112.5 989,-131.5 1092,-131.5 1092,-112.5 989,-112.5"/>
<text text-anchor="middle" x="1040.5" y="-119.5" font-family="Helvetica,sans-Serif" font-size="10.00">OgrePrerequisites.h</text>
</a>
</g>
</g>
<!-- Node2&#45;&gt;Node3 -->
<g id="edge2" class="edge"><title>Node2&#45;&gt;Node3</title>
<path fill="none" stroke="midnightblue" d="M672.047,-224.431C705.239,-216.418 754.732,-203.396 796.5,-188 816.276,-180.71 819.545,-174.786 839.5,-168 885.224,-152.451 938.645,-140.784 978.917,-133.23"/>
<polygon fill="midnightblue" stroke="midnightblue" points="979.659,-136.652 988.859,-131.398 978.391,-129.768 979.659,-136.652"/>
</g>
<!-- Node33 -->
<g id="node33" class="node"><title>Node33</title>
<g id="a_node33"><a xlink:href="_ogre_min_g_w_support_8h.html" target="_top" xlink:title="WIN32/OgreMinGWSupport.h">
<polygon fill="none" stroke="black" points="561.5,-168.5 561.5,-187.5 707.5,-187.5 707.5,-168.5 561.5,-168.5"/>
<text text-anchor="middle" x="634.5" y="-175.5" font-family="Helvetica,sans-Serif" font-size="10.00">WIN32/OgreMinGWSupport.h</text>
</a>
</g>
</g>
<!-- Node2&#45;&gt;Node33 -->
<g id="edge33" class="edge"><title>Node2&#45;&gt;Node33</title>
<path fill="none" stroke="midnightblue" d="M634.5,-224.083C634.5,-217.006 634.5,-206.861 634.5,-197.986"/>
<polygon fill="midnightblue" stroke="midnightblue" points="638,-197.751 634.5,-187.751 631,-197.751 638,-197.751"/>
</g>
<!-- Node34 -->
<g id="node34" class="node"><title>Node34</title>
<g id="a_node34"><a xlink:href="_ogre_com_ptr_8h.html" target="_top" xlink:title="WIN32/OgreComPtr.h">
<polygon fill="none" stroke="black" points="330,-168.5 330,-187.5 443,-187.5 443,-168.5 330,-168.5"/>
<text text-anchor="middle" x="386.5" y="-175.5" font-family="Helvetica,sans-Serif" font-size="10.00">WIN32/OgreComPtr.h</text>
</a>
</g>
</g>
<!-- Node2&#45;&gt;Node34 -->
<g id="edge34" class="edge"><title>Node2&#45;&gt;Node34</title>
<path fill="none" stroke="midnightblue" d="M595.204,-224.444C551.941,-215.023 482.327,-199.866 435.527,-189.675"/>
<polygon fill="midnightblue" stroke="midnightblue" points="436.128,-186.224 425.612,-187.516 434.639,-193.064 436.128,-186.224"/>
</g>
<!-- Node36 -->
<g id="node36" class="node"><title>Node36</title>
<polygon fill="none" stroke="#bfbfbf" points="725.5,-168.5 725.5,-187.5 787.5,-187.5 787.5,-168.5 725.5,-168.5"/>
<text text-anchor="middle" x="756.5" y="-175.5" font-family="Helvetica,sans-Serif" font-size="10.00">d3d11_1.h</text>
</g>
<!-- Node2&#45;&gt;Node36 -->
<g id="edge37" class="edge"><title>Node2&#45;&gt;Node36</title>
<path fill="none" stroke="midnightblue" d="M653.831,-224.444C673.82,-215.596 705.243,-201.687 728.064,-191.586"/>
<polygon fill="midnightblue" stroke="midnightblue" points="729.532,-194.764 737.259,-187.516 726.698,-188.363 729.532,-194.764"/>
</g>
<!-- Node37 -->
<g id="node37" class="node"><title>Node37</title>
<polygon fill="none" stroke="#bfbfbf" points="231.5,-168.5 231.5,-187.5 311.5,-187.5 311.5,-168.5 231.5,-168.5"/>
<text text-anchor="middle" x="271.5" y="-175.5" font-family="Helvetica,sans-Serif" font-size="10.00">d3d11shader.h</text>
</g>
<!-- Node2&#45;&gt;Node37 -->
<g id="edge38" class="edge"><title>Node2&#45;&gt;Node37</title>
<path fill="none" stroke="midnightblue" d="M569.739,-224.476C508.405,-216.23 413.471,-203.025 321.616,-188.131"/>
<polygon fill="midnightblue" stroke="midnightblue" points="322.022,-184.651 311.589,-186.496 320.896,-191.559 322.022,-184.651"/>
</g>
<!-- Node38 -->
<g id="node38" class="node"><title>Node38</title>
<polygon fill="none" stroke="#bfbfbf" points="461.5,-168.5 461.5,-187.5 543.5,-187.5 543.5,-168.5 461.5,-168.5"/>
<text text-anchor="middle" x="502.5" y="-175.5" font-family="Helvetica,sans-Serif" font-size="10.00">D3Dcompiler.h</text>
</g>
<!-- Node2&#45;&gt;Node38 -->
<g id="edge39" class="edge"><title>Node2&#45;&gt;Node38</title>
<path fill="none" stroke="midnightblue" d="M613.584,-224.444C591.764,-215.517 557.35,-201.439 532.608,-191.317"/>
<polygon fill="midnightblue" stroke="midnightblue" points="533.899,-188.063 523.318,-187.516 531.248,-194.542 533.899,-188.063"/>
</g>
<!-- Node4 -->
<g id="node4" class="node"><title>Node4</title>
<g id="a_node4"><a xlink:href="_ogre_platform_8h.html" target="_top" xlink:title="OgrePlatform.h">
<polygon fill="none" stroke="black" points="1120,-56.5 1120,-75.5 1203,-75.5 1203,-56.5 1120,-56.5"/>
<text text-anchor="middle" x="1161.5" y="-63.5" font-family="Helvetica,sans-Serif" font-size="10.00">OgrePlatform.h</text>
</a>
</g>
</g>
<!-- Node3&#45;&gt;Node4 -->
<g id="edge3" class="edge"><title>Node3&#45;&gt;Node4</title>
<path fill="none" stroke="midnightblue" d="M1059.67,-112.444C1079.41,-103.636 1110.39,-89.8116 1132.99,-79.722"/>
<polygon fill="midnightblue" stroke="midnightblue" points="1134.71,-82.788 1142.42,-75.5164 1131.86,-76.3957 1134.71,-82.788"/>
</g>
<!-- Node6 -->
<g id="node6" class="node"><title>Node6</title>
<polygon fill="none" stroke="#bfbfbf" points="0,-0.5 0,-19.5 41,-19.5 41,-0.5 0,-0.5"/>
<text text-anchor="middle" x="20.5" y="-7.5" font-family="Helvetica,sans-Serif" font-size="10.00">string</text>
</g>
<!-- Node3&#45;&gt;Node6 -->
<g id="edge5" class="edge"><title>Node3&#45;&gt;Node6</title>
<path fill="none" stroke="midnightblue" d="M988.898,-119.362C842.439,-113.948 411.945,-92.723 51.1292,-19.9947"/>
<polygon fill="midnightblue" stroke="midnightblue" points="51.7765,-16.5548 41.2797,-17.993 50.3823,-23.4146 51.7765,-16.5548"/>
</g>
<!-- Node7 -->
<g id="node7" class="node"><title>Node7</title>
<g id="a_node7"><a xlink:href="_ogre_std_headers_8h.html" target="_top" xlink:title="OgreStdHeaders.h">
<polygon fill="none" stroke="red" points="755.5,-56.5 755.5,-75.5 853.5,-75.5 853.5,-56.5 755.5,-56.5"/>
<text text-anchor="middle" x="804.5" y="-63.5" font-family="Helvetica,sans-Serif" font-size="10.00">OgreStdHeaders.h</text>
</a>
</g>
</g>
<!-- Node3&#45;&gt;Node7 -->
<g id="edge6" class="edge"><title>Node3&#45;&gt;Node7</title>
<path fill="none" stroke="midnightblue" d="M1003.11,-112.444C962.108,-103.063 896.246,-87.9926 851.716,-77.8036"/>
<polygon fill="midnightblue" stroke="midnightblue" points="852.249,-74.3352 841.72,-75.5164 850.687,-81.1588 852.249,-74.3352"/>
</g>
<!-- Node30 -->
<g id="node30" class="node"><title>Node30</title>
<g id="a_node30"><a xlink:href="_ogre_memory_allocator_config_8h.html" target="_top" xlink:title="This file configures Ogre&#39;s memory allocators. ">
<polygon fill="none" stroke="red" points="1418.5,-56.5 1418.5,-75.5 1566.5,-75.5 1566.5,-56.5 1418.5,-56.5"/>
<text text-anchor="middle" x="1492.5" y="-63.5" font-family="Helvetica,sans-Serif" font-size="10.00">OgreMemoryAllocatorConfig.h</text>
</a>
</g>
</g>
<!-- Node3&#45;&gt;Node30 -->
<g id="edge30" class="edge"><title>Node3&#45;&gt;Node30</title>
<path fill="none" stroke="midnightblue" d="M1092.35,-114.806C1170.35,-105.486 1318.59,-87.7769 1411.1,-76.7249"/>
<polygon fill="midnightblue" stroke="midnightblue" points="1411.75,-80.1725 1421.26,-75.5108 1410.92,-73.2219 1411.75,-80.1725"/>
</g>
<!-- Node5 -->
<g id="node5" class="node"><title>Node5</title>
<g id="a_node5"><a xlink:href="_ogre_config_8h.html" target="_top" xlink:title="OgreConfig.h">
<polygon fill="none" stroke="red" points="1473.5,-0.5 1473.5,-19.5 1547.5,-19.5 1547.5,-0.5 1473.5,-0.5"/>
<text text-anchor="middle" x="1510.5" y="-7.5" font-family="Helvetica,sans-Serif" font-size="10.00">OgreConfig.h</text>
</a>
</g>
</g>
<!-- Node4&#45;&gt;Node5 -->
<g id="edge4" class="edge"><title>Node4&#45;&gt;Node5</title>
<path fill="none" stroke="midnightblue" d="M1203.26,-59.4146C1259.89,-51.7032 1364.45,-36.9882 1463.5,-20.1092"/>
<polygon fill="midnightblue" stroke="midnightblue" points="1464.11,-23.5558 1473.37,-18.416 1462.92,-16.6565 1464.11,-23.5558"/>
</g>
<!-- Node7&#45;&gt;Node6 -->
<g id="edge16" class="edge"><title>Node7&#45;&gt;Node6</title>
<path fill="none" stroke="midnightblue" d="M755.349,-63.6193C613.57,-59.3971 204.717,-45.4768 51.4151,-19.8835"/>
<polygon fill="midnightblue" stroke="midnightblue" points="51.7135,-16.3824 41.2589,-18.1008 50.5032,-23.277 51.7135,-16.3824"/>
</g>
<!-- Node8 -->
<g id="node8" class="node"><title>Node8</title>
<polygon fill="none" stroke="#bfbfbf" points="817,-0.5 817,-19.5 866,-19.5 866,-0.5 817,-0.5"/>
<text text-anchor="middle" x="841.5" y="-7.5" font-family="Helvetica,sans-Serif" font-size="10.00">cassert</text>
</g>
<!-- Node7&#45;&gt;Node8 -->
<g id="edge7" class="edge"><title>Node7&#45;&gt;Node8</title>
<path fill="none" stroke="midnightblue" d="M810.61,-56.083C815.782,-48.5341 823.346,-37.4948 829.694,-28.2298"/>
<polygon fill="midnightblue" stroke="midnightblue" points="832.739,-29.9787 835.504,-19.7511 826.964,-26.0221 832.739,-29.9787"/>
</g>
<!-- Node9 -->
<g id="node9" class="node"><title>Node9</title>
<polygon fill="none" stroke="#bfbfbf" points="884,-0.5 884,-19.5 927,-19.5 927,-0.5 884,-0.5"/>
<text text-anchor="middle" x="905.5" y="-7.5" font-family="Helvetica,sans-Serif" font-size="10.00">cstdio</text>
</g>
<!-- Node7&#45;&gt;Node9 -->
<g id="edge8" class="edge"><title>Node7&#45;&gt;Node9</title>
<path fill="none" stroke="midnightblue" d="M820.727,-56.324C836.851,-47.7034 861.8,-34.3643 880.464,-24.3855"/>
<polygon fill="midnightblue" stroke="midnightblue" points="882.144,-27.456 889.313,-19.6545 878.844,-21.283 882.144,-27.456"/>
</g>
<!-- Node10 -->
<g id="node10" class="node"><title>Node10</title>
<polygon fill="none" stroke="#bfbfbf" points="945,-0.5 945,-19.5 990,-19.5 990,-0.5 945,-0.5"/>
<text text-anchor="middle" x="967.5" y="-7.5" font-family="Helvetica,sans-Serif" font-size="10.00">cstdlib</text>
</g>
<!-- Node7&#45;&gt;Node10 -->
<g id="edge9" class="edge"><title>Node7&#45;&gt;Node10</title>
<path fill="none" stroke="midnightblue" d="M830.328,-56.4435C858.717,-47.0385 904.37,-31.9142 935.129,-21.7242"/>
<polygon fill="midnightblue" stroke="midnightblue" points="936.551,-24.9403 944.943,-18.473 934.349,-18.2955 936.551,-24.9403"/>
</g>
<!-- Node11 -->
<g id="node11" class="node"><title>Node11</title>
<polygon fill="none" stroke="#bfbfbf" points="1414,-0.5 1414,-19.5 1455,-19.5 1455,-0.5 1414,-0.5"/>
<text text-anchor="middle" x="1434.5" y="-7.5" font-family="Helvetica,sans-Serif" font-size="10.00">ctime</text>
</g>
<!-- Node7&#45;&gt;Node11 -->
<g id="edge10" class="edge"><title>Node7&#45;&gt;Node11</title>
<path fill="none" stroke="midnightblue" d="M853.678,-65.0616C955.274,-64.3847 1195.59,-58.6242 1403.84,-19.9294"/>
<polygon fill="midnightblue" stroke="midnightblue" points="1404.56,-23.3563 1413.73,-18.0617 1403.26,-16.4779 1404.56,-23.3563"/>
</g>
<!-- Node12 -->
<g id="node12" class="node"><title>Node12</title>
<polygon fill="none" stroke="#bfbfbf" points="1008.5,-0.5 1008.5,-19.5 1054.5,-19.5 1054.5,-0.5 1008.5,-0.5"/>
<text text-anchor="middle" x="1031.5" y="-7.5" font-family="Helvetica,sans-Serif" font-size="10.00">cstring</text>
</g>
<!-- Node7&#45;&gt;Node12 -->
<g id="edge11" class="edge"><title>Node7&#45;&gt;Node12</title>
<path fill="none" stroke="midnightblue" d="M843.254,-56.4698C882.489,-47.7258 944.861,-33.5303 998.5,-20 998.601,-19.9746 998.702,-19.9491 998.803,-19.9235"/>
<polygon fill="midnightblue" stroke="midnightblue" points="999.658,-23.3177 1008.45,-17.4071 997.891,-16.5443 999.658,-23.3177"/>
</g>
<!-- Node13 -->
<g id="node13" class="node"><title>Node13</title>
<polygon fill="none" stroke="#bfbfbf" points="1073,-0.5 1073,-19.5 1122,-19.5 1122,-0.5 1073,-0.5"/>
<text text-anchor="middle" x="1097.5" y="-7.5" font-family="Helvetica,sans-Serif" font-size="10.00">cstdarg</text>
</g>
<!-- Node7&#45;&gt;Node13 -->
<g id="edge12" class="edge"><title>Node7&#45;&gt;Node13</title>
<path fill="none" stroke="midnightblue" d="M853.918,-57.72C904.075,-50.0392 984.147,-36.9785 1062.62,-20.0321"/>
<polygon fill="midnightblue" stroke="midnightblue" points="1063.65,-23.3888 1072.68,-17.8365 1062.16,-16.5499 1063.65,-23.3888"/>
</g>
<!-- Node14 -->
<g id="node14" class="node"><title>Node14</title>
<polygon fill="none" stroke="#bfbfbf" points="1140.5,-0.5 1140.5,-19.5 1184.5,-19.5 1184.5,-0.5 1140.5,-0.5"/>
<text text-anchor="middle" x="1162.5" y="-7.5" font-family="Helvetica,sans-Serif" font-size="10.00">cmath</text>
</g>
<!-- Node7&#45;&gt;Node14 -->
<g id="edge13" class="edge"><title>Node7&#45;&gt;Node14</title>
<path fill="none" stroke="midnightblue" d="M853.738,-60.3275C915.88,-53.9616 1026.16,-41.1091 1130.17,-19.7787"/>
<polygon fill="midnightblue" stroke="midnightblue" points="1131.14,-23.1524 1140.22,-17.6879 1129.71,-16.2992 1131.14,-23.1524"/>
</g>
<!-- Node15 -->
<g id="node15" class="node"><title>Node15</title>
<polygon fill="none" stroke="#bfbfbf" points="1202.5,-0.5 1202.5,-19.5 1246.5,-19.5 1246.5,-0.5 1202.5,-0.5"/>
<text text-anchor="middle" x="1224.5" y="-7.5" font-family="Helvetica,sans-Serif" font-size="10.00">vector</text>
</g>
<!-- Node7&#45;&gt;Node15 -->
<g id="edge14" class="edge"><title>Node7&#45;&gt;Node15</title>
<path fill="none" stroke="midnightblue" d="M853.733,-61.957C926.077,-56.905 1065.4,-44.9697 1192.36,-19.9244"/>
<polygon fill="midnightblue" stroke="midnightblue" points="1193.14,-23.3378 1202.26,-17.9401 1191.77,-16.4744 1193.14,-23.3378"/>
</g>
<!-- Node16 -->
<g id="node16" class="node"><title>Node16</title>
<polygon fill="none" stroke="#bfbfbf" points="1265,-0.5 1265,-19.5 1300,-19.5 1300,-0.5 1265,-0.5"/>
<text text-anchor="middle" x="1282.5" y="-7.5" font-family="Helvetica,sans-Serif" font-size="10.00">map</text>
</g>
<!-- Node7&#45;&gt;Node16 -->
<g id="edge15" class="edge"><title>Node7&#45;&gt;Node16</title>
<path fill="none" stroke="midnightblue" d="M853.769,-63.6588C935.491,-60.6589 1104.16,-51.1796 1255.03,-19.591"/>
<polygon fill="midnightblue" stroke="midnightblue" points="1255.89,-22.9864 1264.94,-17.4782 1254.43,-16.1402 1255.89,-22.9864"/>
</g>
<!-- Node17 -->
<g id="node17" class="node"><title>Node17</title>
<polygon fill="none" stroke="#bfbfbf" points="1318.5,-0.5 1318.5,-19.5 1348.5,-19.5 1348.5,-0.5 1318.5,-0.5"/>
<text text-anchor="middle" x="1333.5" y="-7.5" font-family="Helvetica,sans-Serif" font-size="10.00">set</text>
</g>
<!-- Node7&#45;&gt;Node17 -->
<g id="edge17" class="edge"><title>Node7&#45;&gt;Node17</title>
<path fill="none" stroke="midnightblue" d="M853.575,-64.9909C942.886,-64.0349 1137.75,-57.6158 1308.54,-19.5958"/>
<polygon fill="midnightblue" stroke="midnightblue" points="1309.48,-22.9715 1318.45,-17.3456 1307.93,-16.145 1309.48,-22.9715"/>
</g>
<!-- Node18 -->
<g id="node18" class="node"><title>Node18</title>
<polygon fill="none" stroke="#bfbfbf" points="1367,-0.5 1367,-19.5 1396,-19.5 1396,-0.5 1367,-0.5"/>
<text text-anchor="middle" x="1381.5" y="-7.5" font-family="Helvetica,sans-Serif" font-size="10.00">list</text>
</g>
<!-- Node7&#45;&gt;Node18 -->
<g id="edge18" class="edge"><title>Node7&#45;&gt;Node18</title>
<path fill="none" stroke="midnightblue" d="M853.631,-65.5352C949.349,-65.6052 1167.28,-60.9917 1357.1,-19.3851"/>
<polygon fill="midnightblue" stroke="midnightblue" points="1357.98,-22.7755 1366.97,-17.1812 1356.45,-15.9436 1357.98,-22.7755"/>
</g>
<!-- Node19 -->
<g id="node19" class="node"><title>Node19</title>
<polygon fill="none" stroke="#bfbfbf" points="59,-0.5 59,-19.5 102,-19.5 102,-0.5 59,-0.5"/>
<text text-anchor="middle" x="80.5" y="-7.5" font-family="Helvetica,sans-Serif" font-size="10.00">deque</text>
</g>
<!-- Node7&#45;&gt;Node19 -->
<g id="edge19" class="edge"><title>Node7&#45;&gt;Node19</title>
<path fill="none" stroke="midnightblue" d="M755.238,-65.6149C642.522,-66.2074 357.287,-63.0824 112.472,-19.9838"/>
<polygon fill="midnightblue" stroke="midnightblue" points="112.776,-16.4826 102.316,-18.1685 111.544,-23.3734 112.776,-16.4826"/>
</g>
<!-- Node20 -->
<g id="node20" class="node"><title>Node20</title>
<polygon fill="none" stroke="#bfbfbf" points="120,-0.5 120,-19.5 163,-19.5 163,-0.5 120,-0.5"/>
<text text-anchor="middle" x="141.5" y="-7.5" font-family="Helvetica,sans-Serif" font-size="10.00">queue</text>
</g>
<!-- Node7&#45;&gt;Node20 -->
<g id="edge20" class="edge"><title>Node7&#45;&gt;Node20</title>
<path fill="none" stroke="midnightblue" d="M755.195,-65.1728C649.673,-64.7537 394.229,-59.526 173.472,-19.9992"/>
<polygon fill="midnightblue" stroke="midnightblue" points="173.784,-16.4985 163.319,-18.1523 172.531,-23.3855 173.784,-16.4985"/>
</g>
<!-- Node21 -->
<g id="node21" class="node"><title>Node21</title>
<polygon fill="none" stroke="#bfbfbf" points="181,-0.5 181,-19.5 222,-19.5 222,-0.5 181,-0.5"/>
<text text-anchor="middle" x="201.5" y="-7.5" font-family="Helvetica,sans-Serif" font-size="10.00">bitset</text>
</g>
<!-- Node7&#45;&gt;Node21 -->
<g id="edge21" class="edge"><title>Node7&#45;&gt;Node21</title>
<path fill="none" stroke="midnightblue" d="M755.365,-64.6522C657.363,-63.2027 430.699,-56.0649 232.051,-19.652"/>
<polygon fill="midnightblue" stroke="midnightblue" points="232.486,-16.1731 222.015,-17.7828 231.205,-23.0548 232.486,-16.1731"/>
</g>
<!-- Node22 -->
<g id="node22" class="node"><title>Node22</title>
<polygon fill="none" stroke="#bfbfbf" points="240.5,-0.5 240.5,-19.5 296.5,-19.5 296.5,-0.5 240.5,-0.5"/>
<text text-anchor="middle" x="268.5" y="-7.5" font-family="Helvetica,sans-Serif" font-size="10.00">algorithm</text>
</g>
<!-- Node7&#45;&gt;Node22 -->
<g id="edge22" class="edge"><title>Node7&#45;&gt;Node22</title>
<path fill="none" stroke="midnightblue" d="M755.321,-62.9917C667.182,-58.8654 476.418,-47.5408 306.56,-19.9409"/>
<polygon fill="midnightblue" stroke="midnightblue" points="307.129,-16.4875 296.693,-18.3151 305.991,-23.3944 307.129,-16.4875"/>
</g>
<!-- Node23 -->
<g id="node23" class="node"><title>Node23</title>
<polygon fill="none" stroke="#bfbfbf" points="315,-0.5 315,-19.5 374,-19.5 374,-0.5 315,-0.5"/>
<text text-anchor="middle" x="344.5" y="-7.5" font-family="Helvetica,sans-Serif" font-size="10.00">functional</text>
</g>
<!-- Node7&#45;&gt;Node23 -->
<g id="edge23" class="edge"><title>Node7&#45;&gt;Node23</title>
<path fill="none" stroke="midnightblue" d="M755.3,-61.6709C678.295,-56.0381 524.487,-43.0906 384.305,-19.9353"/>
<polygon fill="midnightblue" stroke="midnightblue" points="384.677,-16.449 374.237,-18.2504 383.522,-23.353 384.677,-16.449"/>
</g>
<!-- Node24 -->
<g id="node24" class="node"><title>Node24</title>
<polygon fill="none" stroke="#bfbfbf" points="392.5,-0.5 392.5,-19.5 432.5,-19.5 432.5,-0.5 392.5,-0.5"/>
<text text-anchor="middle" x="412.5" y="-7.5" font-family="Helvetica,sans-Serif" font-size="10.00">limits</text>
</g>
<!-- Node7&#45;&gt;Node24 -->
<g id="edge24" class="edge"><title>Node7&#45;&gt;Node24</title>
<path fill="none" stroke="midnightblue" d="M755.305,-61.6863C686.997,-56.4745 559.526,-44.5418 442.503,-19.8695"/>
<polygon fill="midnightblue" stroke="midnightblue" points="443.171,-16.4333 432.66,-17.7583 441.703,-23.2777 443.171,-16.4333"/>
</g>
<!-- Node25 -->
<g id="node25" class="node"><title>Node25</title>
<polygon fill="none" stroke="#bfbfbf" points="450.5,-0.5 450.5,-19.5 500.5,-19.5 500.5,-0.5 450.5,-0.5"/>
<text text-anchor="middle" x="475.5" y="-7.5" font-family="Helvetica,sans-Serif" font-size="10.00">fstream</text>
</g>
<!-- Node7&#45;&gt;Node25 -->
<g id="edge25" class="edge"><title>Node7&#45;&gt;Node25</title>
<path fill="none" stroke="midnightblue" d="M755.407,-59.1512C698.692,-52.0304 602.416,-38.8263 510.686,-20.0608"/>
<polygon fill="midnightblue" stroke="midnightblue" points="511.182,-16.5892 500.679,-17.9874 509.761,-23.4436 511.182,-16.5892"/>
</g>
<!-- Node26 -->
<g id="node26" class="node"><title>Node26</title>
<polygon fill="none" stroke="#bfbfbf" points="519,-0.5 519,-19.5 564,-19.5 564,-0.5 519,-0.5"/>
<text text-anchor="middle" x="541.5" y="-7.5" font-family="Helvetica,sans-Serif" font-size="10.00">iosfwd</text>
</g>
<!-- Node7&#45;&gt;Node26 -->
<g id="edge26" class="edge"><title>Node7&#45;&gt;Node26</title>
<path fill="none" stroke="midnightblue" d="M755.132,-56.5895C710.389,-48.6962 642.45,-36.0383 574.23,-20.0109"/>
<polygon fill="midnightblue" stroke="midnightblue" points="574.704,-16.5262 564.166,-17.6219 573.087,-23.3369 574.704,-16.5262"/>
</g>
<!-- Node27 -->
<g id="node27" class="node"><title>Node27</title>
<polygon fill="none" stroke="#bfbfbf" points="582.5,-0.5 582.5,-19.5 634.5,-19.5 634.5,-0.5 582.5,-0.5"/>
<text text-anchor="middle" x="608.5" y="-7.5" font-family="Helvetica,sans-Serif" font-size="10.00">sstream</text>
</g>
<!-- Node7&#45;&gt;Node27 -->
<g id="edge27" class="edge"><title>Node7&#45;&gt;Node27</title>
<path fill="none" stroke="midnightblue" d="M773.443,-56.4435C738.417,-46.7934 681.535,-31.122 644.57,-20.9377"/>
<polygon fill="midnightblue" stroke="midnightblue" points="645.278,-17.5022 634.707,-18.2203 643.418,-24.2508 645.278,-17.5022"/>
</g>
<!-- Node28 -->
<g id="node28" class="node"><title>Node28</title>
<polygon fill="none" stroke="#bfbfbf" points="652.5,-0.5 652.5,-19.5 720.5,-19.5 720.5,-0.5 652.5,-0.5"/>
<text text-anchor="middle" x="686.5" y="-7.5" font-family="Helvetica,sans-Serif" font-size="10.00">sys/types.h</text>
</g>
<!-- Node7&#45;&gt;Node28 -->
<g id="edge28" class="edge"><title>Node7&#45;&gt;Node28</title>
<path fill="none" stroke="midnightblue" d="M785.803,-56.4435C766.556,-47.6356 736.348,-33.8116 714.3,-23.722"/>
<polygon fill="midnightblue" stroke="midnightblue" points="715.66,-20.4951 705.11,-19.5164 712.747,-26.8603 715.66,-20.4951"/>
</g>
<!-- Node29 -->
<g id="node29" class="node"><title>Node29</title>
<polygon fill="none" stroke="#bfbfbf" points="738.5,-0.5 738.5,-19.5 798.5,-19.5 798.5,-0.5 738.5,-0.5"/>
<text text-anchor="middle" x="768.5" y="-7.5" font-family="Helvetica,sans-Serif" font-size="10.00">sys/stat.h</text>
</g>
<!-- Node7&#45;&gt;Node29 -->
<g id="edge29" class="edge"><title>Node7&#45;&gt;Node29</title>
<path fill="none" stroke="midnightblue" d="M798.555,-56.083C793.523,-48.5341 786.163,-37.4948 779.987,-28.2298"/>
<polygon fill="midnightblue" stroke="midnightblue" points="782.793,-26.1301 774.334,-19.7511 776.969,-30.0131 782.793,-26.1301"/>
</g>
<!-- Node31 -->
<g id="node31" class="node"><title>Node31</title>
<g id="a_node31"><a xlink:href="_ogre_header_prefix_8h.html" target="_top" xlink:title="OgreHeaderPrefix.h">
<polygon fill="none" stroke="black" points="1838,-0.5 1838,-19.5 1941,-19.5 1941,-0.5 1838,-0.5"/>
<text text-anchor="middle" x="1889.5" y="-7.5" font-family="Helvetica,sans-Serif" font-size="10.00">OgreHeaderPrefix.h</text>
</a>
</g>
</g>
<!-- Node30&#45;&gt;Node31 -->
<g id="edge31" class="edge"><title>Node30&#45;&gt;Node31</title>
<path fill="none" stroke="midnightblue" d="M1555.41,-56.4435C1630.06,-46.2893 1753.72,-29.4685 1827.83,-19.3885"/>
<polygon fill="midnightblue" stroke="midnightblue" points="1828.51,-22.8282 1837.95,-18.0123 1827.57,-15.8921 1828.51,-22.8282"/>
</g>
<!-- Node32 -->
<g id="node32" class="node"><title>Node32</title>
<g id="a_node32"><a xlink:href="_ogre_header_suffix_8h.html" target="_top" xlink:title="OgreHeaderSuffix.h">
<polygon fill="none" stroke="black" points="1648,-0.5 1648,-19.5 1751,-19.5 1751,-0.5 1648,-0.5"/>
<text text-anchor="middle" x="1699.5" y="-7.5" font-family="Helvetica,sans-Serif" font-size="10.00">OgreHeaderSuffix.h</text>
</a>
</g>
</g>
<!-- Node30&#45;&gt;Node32 -->
<g id="edge32" class="edge"><title>Node30&#45;&gt;Node32</title>
<path fill="none" stroke="midnightblue" d="M1525.3,-56.4435C1560.88,-47.1616 1617.81,-32.3093 1656.85,-22.127"/>
<polygon fill="midnightblue" stroke="midnightblue" points="1658.06,-25.4274 1666.85,-19.5164 1656.29,-18.6541 1658.06,-25.4274"/>
</g>
<!-- Node34&#45;&gt;Node3 -->
<g id="edge35" class="edge"><title>Node34&#45;&gt;Node3</title>
<path fill="none" stroke="midnightblue" d="M443.356,-169.03C446.447,-168.664 449.51,-168.318 452.5,-168 644.081,-147.625 871.727,-132.889 978.899,-126.511"/>
<polygon fill="midnightblue" stroke="midnightblue" points="979.113,-130.005 988.889,-125.92 978.7,-123.017 979.113,-130.005"/>
</g>
<!-- Node35 -->
<g id="node35" class="node"><title>Node35</title>
<polygon fill="none" stroke="#bfbfbf" points="357,-112.5 357,-131.5 416,-131.5 416,-112.5 357,-112.5"/>
<text text-anchor="middle" x="386.5" y="-119.5" font-family="Helvetica,sans-Serif" font-size="10.00">winerror.h</text>
</g>
<!-- Node34&#45;&gt;Node35 -->
<g id="edge36" class="edge"><title>Node34&#45;&gt;Node35</title>
<path fill="none" stroke="midnightblue" d="M386.5,-168.083C386.5,-161.006 386.5,-150.861 386.5,-141.986"/>
<polygon fill="midnightblue" stroke="midnightblue" points="390,-141.751 386.5,-131.751 383,-141.751 390,-141.751"/>
</g>
<!-- Node39&#45;&gt;Node3 -->
<g id="edge41" class="edge"><title>Node39&#45;&gt;Node3</title>
<path fill="none" stroke="midnightblue" d="M972.925,-392.462C926.816,-379.274 853.5,-349.159 853.5,-291 853.5,-291 853.5,-291 853.5,-233 853.5,-173.607 924.449,-145.647 978.943,-132.931"/>
<polygon fill="midnightblue" stroke="midnightblue" points="979.897,-136.304 988.906,-130.729 978.387,-129.469 979.897,-136.304"/>
</g>
<!-- Node40 -->
<g id="node40" class="node"><title>Node40</title>
<g id="a_node40"><a xlink:href="_ogre_resource_manager_8h.html" target="_top" xlink:title="OgreResourceManager.h">
<polygon fill="none" stroke="black" points="1653,-336.5 1653,-355.5 1778,-355.5 1778,-336.5 1653,-336.5"/>
<text text-anchor="middle" x="1715.5" y="-343.5" font-family="Helvetica,sans-Serif" font-size="10.00">OgreResourceManager.h</text>
</a>
</g>
</g>
<!-- Node39&#45;&gt;Node40 -->
<g id="edge42" class="edge"><title>Node39&#45;&gt;Node40</title>
<path fill="none" stroke="midnightblue" d="M1067.57,-396.558C1195.65,-386.762 1502.1,-363.322 1642.72,-352.566"/>
<polygon fill="midnightblue" stroke="midnightblue" points="1643.26,-356.036 1652.96,-351.783 1642.73,-349.056 1643.26,-356.036"/>
</g>
<!-- Node43 -->
<g id="node43" class="node"><title>Node43</title>
<g id="a_node43"><a xlink:href="_ogre_singleton_8h.html" target="_top" xlink:title="OgreSingleton.h">
<polygon fill="none" stroke="black" points="1141.5,-168.5 1141.5,-187.5 1227.5,-187.5 1227.5,-168.5 1141.5,-168.5"/>
<text text-anchor="middle" x="1184.5" y="-175.5" font-family="Helvetica,sans-Serif" font-size="10.00">OgreSingleton.h</text>
</a>
</g>
</g>
<!-- Node39&#45;&gt;Node43 -->
<g id="edge81" class="edge"><title>Node39&#45;&gt;Node43</title>
<path fill="none" stroke="midnightblue" d="M1016.36,-392.297C1042.49,-359.148 1136.09,-240.414 1171.13,-195.961"/>
<polygon fill="midnightblue" stroke="midnightblue" points="1174.05,-197.904 1177.5,-187.884 1168.56,-193.57 1174.05,-197.904"/>
</g>
<!-- Node48 -->
<g id="node48" class="node"><title>Node48</title>
<g id="a_node48"><a xlink:href="_ogre_texture_8h.html" target="_top" xlink:title="OgreTexture.h">
<polygon fill="none" stroke="black" points="1306,-224.5 1306,-243.5 1385,-243.5 1385,-224.5 1306,-224.5"/>
<text text-anchor="middle" x="1345.5" y="-231.5" font-family="Helvetica,sans-Serif" font-size="10.00">OgreTexture.h</text>
</a>
</g>
</g>
<!-- Node39&#45;&gt;Node48 -->
<g id="edge70" class="edge"><title>Node39&#45;&gt;Node48</title>
<path fill="none" stroke="midnightblue" d="M1027.09,-392.309C1082.32,-365.024 1252.5,-280.947 1318.73,-248.224"/>
<polygon fill="midnightblue" stroke="midnightblue" points="1320.67,-251.173 1328.08,-243.605 1317.57,-244.897 1320.67,-251.173"/>
</g>
<!-- Node40&#45;&gt;Node3 -->
<g id="edge43" class="edge"><title>Node40&#45;&gt;Node3</title>
<path fill="none" stroke="midnightblue" d="M1652.71,-341.253C1538.23,-333.034 1288.99,-308.694 1089.5,-244 1036.94,-226.954 1007.47,-235.056 978.5,-188 966.054,-167.78 990.341,-148.62 1012.07,-136.412"/>
<polygon fill="midnightblue" stroke="midnightblue" points="1013.91,-139.396 1021.11,-131.622 1010.64,-133.21 1013.91,-139.396"/>
</g>
<!-- Node40&#45;&gt;Node31 -->
<g id="edge68" class="edge"><title>Node40&#45;&gt;Node31</title>
<path fill="none" stroke="midnightblue" d="M1765.67,-336.489C1848.18,-321.052 2003.5,-285.312 2003.5,-235 2003.5,-235 2003.5,-235 2003.5,-121 2003.5,-74.1149 1952.95,-40.8944 1919.17,-23.9302"/>
<polygon fill="midnightblue" stroke="midnightblue" points="1920.67,-20.7687 1910.14,-19.5787 1917.63,-27.0742 1920.67,-20.7687"/>
</g>
<!-- Node40&#45;&gt;Node32 -->
<g id="edge69" class="edge"><title>Node40&#45;&gt;Node32</title>
<path fill="none" stroke="midnightblue" d="M1746.29,-336.434C1766.84,-329.424 1793.31,-317.733 1811.5,-300 1874.2,-238.865 1913.91,-188.057 1870.5,-112 1843.11,-64.003 1782.98,-36.5154 1741.85,-22.6704"/>
<polygon fill="midnightblue" stroke="midnightblue" points="1742.68,-19.2619 1732.09,-19.5202 1740.53,-25.9233 1742.68,-19.2619"/>
</g>
<!-- Node41 -->
<g id="node41" class="node"><title>Node41</title>
<g id="a_node41"><a xlink:href="_ogre_resource_8h.html" target="_top" xlink:title="OgreResource.h">
<polygon fill="none" stroke="red" points="1621.5,-168.5 1621.5,-187.5 1709.5,-187.5 1709.5,-168.5 1621.5,-168.5"/>
<text text-anchor="middle" x="1665.5" y="-175.5" font-family="Helvetica,sans-Serif" font-size="10.00">OgreResource.h</text>
</a>
</g>
</g>
<!-- Node40&#45;&gt;Node41 -->
<g id="edge44" class="edge"><title>Node40&#45;&gt;Node41</title>
<path fill="none" stroke="midnightblue" d="M1734.8,-336.48C1748.93,-329.081 1767.06,-316.887 1775.5,-300 1779.48,-292.05 1778.83,-288.243 1775.5,-280 1759.44,-240.213 1718.18,-209.66 1691.01,-193.028"/>
<polygon fill="midnightblue" stroke="midnightblue" points="1692.44,-189.808 1682.05,-187.734 1688.88,-195.835 1692.44,-189.808"/>
</g>
<!-- Node42 -->
<g id="node42" class="node"><title>Node42</title>
<g id="a_node42"><a xlink:href="_ogre_resource_group_manager_8h.html" target="_top" xlink:title="OgreResourceGroupManager.h">
<polygon fill="none" stroke="red" points="1560.5,-224.5 1560.5,-243.5 1712.5,-243.5 1712.5,-224.5 1560.5,-224.5"/>
<text text-anchor="middle" x="1636.5" y="-231.5" font-family="Helvetica,sans-Serif" font-size="10.00">OgreResourceGroupManager.h</text>
</a>
</g>
</g>
<!-- Node40&#45;&gt;Node42 -->
<g id="edge48" class="edge"><title>Node40&#45;&gt;Node42</title>
<path fill="none" stroke="midnightblue" d="M1699.21,-336.397C1685.91,-328.576 1667.55,-315.851 1656.5,-300 1646.9,-286.229 1641.79,-267.703 1639.15,-253.953"/>
<polygon fill="midnightblue" stroke="midnightblue" points="1642.55,-253.033 1637.47,-243.735 1635.64,-254.171 1642.55,-253.033"/>
</g>
<!-- Node44 -->
<g id="node44" class="node"><title>Node44</title>
<g id="a_node44"><a xlink:href="_ogre_common_8h.html" target="_top" xlink:title="OgreCommon.h">
<polygon fill="none" stroke="black" points="1775.5,-112.5 1775.5,-131.5 1861.5,-131.5 1861.5,-112.5 1775.5,-112.5"/>
<text text-anchor="middle" x="1818.5" y="-119.5" font-family="Helvetica,sans-Serif" font-size="10.00">OgreCommon.h</text>
</a>
</g>
</g>
<!-- Node40&#45;&gt;Node44 -->
<g id="edge58" class="edge"><title>Node40&#45;&gt;Node44</title>
<path fill="none" stroke="midnightblue" d="M1738.51,-336.348C1755.12,-329.01 1776.94,-316.956 1790.5,-300 1828.56,-252.423 1833.5,-228.631 1827.5,-168 1826.63,-159.17 1824.81,-149.505 1823.03,-141.404"/>
<polygon fill="midnightblue" stroke="midnightblue" points="1826.42,-140.494 1820.73,-131.551 1819.6,-142.085 1826.42,-140.494"/>
</g>
<!-- Node45 -->
<g id="node45" class="node"><title>Node45</title>
<g id="a_node45"><a xlink:href="_ogre_string_vector_8h.html" target="_top" xlink:title="OgreStringVector.h">
<polygon fill="none" stroke="red" points="881.5,-224.5 881.5,-243.5 981.5,-243.5 981.5,-224.5 881.5,-224.5"/>
<text text-anchor="middle" x="931.5" y="-231.5" font-family="Helvetica,sans-Serif" font-size="10.00">OgreStringVector.h</text>
</a>
</g>
</g>
<!-- Node40&#45;&gt;Node45 -->
<g id="edge59" class="edge"><title>Node40&#45;&gt;Node45</title>
<path fill="none" stroke="midnightblue" d="M1652.74,-344.821C1506.62,-343.768 1147.46,-337.339 1033.5,-300 1000.97,-289.341 968.504,-265.896 949.215,-250.274"/>
<polygon fill="midnightblue" stroke="midnightblue" points="951.255,-247.419 941.326,-243.72 946.782,-252.803 951.255,-247.419"/>
</g>
<!-- Node47 -->
<g id="node47" class="node"><title>Node47</title>
<g id="a_node47"><a xlink:href="_ogre_script_loader_8h.html" target="_top" xlink:title="OgreScriptLoader.h">
<polygon fill="none" stroke="red" points="1665,-280.5 1665,-299.5 1766,-299.5 1766,-280.5 1665,-280.5"/>
<text text-anchor="middle" x="1715.5" y="-287.5" font-family="Helvetica,sans-Serif" font-size="10.00">OgreScriptLoader.h</text>
</a>
</g>
</g>
<!-- Node40&#45;&gt;Node47 -->
<g id="edge63" class="edge"><title>Node40&#45;&gt;Node47</title>
<path fill="none" stroke="midnightblue" d="M1715.5,-336.083C1715.5,-329.006 1715.5,-318.861 1715.5,-309.986"/>
<polygon fill="midnightblue" stroke="midnightblue" points="1719,-309.751 1715.5,-299.751 1712,-309.751 1719,-309.751"/>
</g>
<!-- Node41&#45;&gt;Node3 -->
<g id="edge45" class="edge"><title>Node41&#45;&gt;Node3</title>
<path fill="none" stroke="midnightblue" d="M1621.05,-173.16C1511.47,-163.691 1228.13,-139.211 1102.29,-128.339"/>
<polygon fill="midnightblue" stroke="midnightblue" points="1102.32,-124.828 1092.06,-127.455 1101.72,-131.802 1102.32,-124.828"/>
</g>
<!-- Node41&#45;&gt;Node31 -->
<g id="edge46" class="edge"><title>Node41&#45;&gt;Node31</title>
<path fill="none" stroke="midnightblue" d="M1677.23,-168.309C1713.52,-141.416 1824.25,-59.3518 1869.71,-25.6665"/>
<polygon fill="midnightblue" stroke="midnightblue" points="1871.94,-28.3712 1877.89,-19.6051 1867.77,-22.7471 1871.94,-28.3712"/>
</g>
<!-- Node41&#45;&gt;Node32 -->
<g id="edge47" class="edge"><title>Node41&#45;&gt;Node32</title>
<path fill="none" stroke="midnightblue" d="M1662.62,-168.102C1658.95,-155.519 1653.54,-131.847 1657.5,-112 1663.64,-81.2344 1679.35,-48.1155 1689.72,-28.4928"/>
<polygon fill="midnightblue" stroke="midnightblue" points="1692.88,-30.0041 1694.57,-19.5456 1686.73,-26.6647 1692.88,-30.0041"/>
</g>
<!-- Node42&#45;&gt;Node3 -->
<g id="edge49" class="edge"><title>Node42&#45;&gt;Node3</title>
<path fill="none" stroke="midnightblue" d="M1599.11,-224.455C1560.56,-215.584 1498.74,-201.184 1445.5,-188 1411.18,-179.501 1403.19,-174.859 1368.5,-168 1276.57,-149.822 1168.71,-136.546 1102.49,-129.302"/>
<polygon fill="midnightblue" stroke="midnightblue" points="1102.54,-125.788 1092.23,-128.191 1101.79,-132.747 1102.54,-125.788"/>
</g>
<!-- Node42&#45;&gt;Node11 -->
<g id="edge55" class="edge"><title>Node42&#45;&gt;Node11</title>
<path fill="none" stroke="midnightblue" d="M1623.38,-224.414C1575.91,-193.283 1415.56,-87.5646 1409.5,-76 1401.29,-60.3391 1410.62,-41.3578 1420.13,-27.9613"/>
<polygon fill="midnightblue" stroke="midnightblue" points="1423.18,-29.74 1426.53,-19.6884 1417.64,-25.4576 1423.18,-29.74"/>
</g>
<!-- Node42&#45;&gt;Node31 -->
<g id="edge56" class="edge"><title>Node42&#45;&gt;Node31</title>
<path fill="none" stroke="midnightblue" d="M1700.76,-224.493C1756.01,-213.438 1832.58,-188.352 1870.5,-132 1891.4,-100.942 1892.54,-55.3817 1891.21,-29.9501"/>
<polygon fill="midnightblue" stroke="midnightblue" points="1894.69,-29.5331 1890.49,-19.8062 1887.71,-30.0291 1894.69,-29.5331"/>
</g>
<!-- Node42&#45;&gt;Node32 -->
<g id="edge57" class="edge"><title>Node42&#45;&gt;Node32</title>
<path fill="none" stroke="midnightblue" d="M1668.31,-224.385C1686.45,-217.661 1707.66,-206.306 1718.5,-188 1734.15,-161.558 1714.03,-69.4096 1704.26,-29.5775"/>
<polygon fill="midnightblue" stroke="midnightblue" points="1707.59,-28.4752 1701.77,-19.6258 1700.8,-30.1767 1707.59,-28.4752"/>
</g>
<!-- Node42&#45;&gt;Node43 -->
<g id="edge50" class="edge"><title>Node42&#45;&gt;Node43</title>
<path fill="none" stroke="midnightblue" d="M1560.39,-225.795C1481.99,-218.064 1356.04,-204.789 1237.57,-188.08"/>
<polygon fill="midnightblue" stroke="midnightblue" points="1237.99,-184.604 1227.6,-186.662 1237.01,-191.535 1237.99,-184.604"/>
</g>
<!-- Node42&#45;&gt;Node44 -->
<g id="edge52" class="edge"><title>Node42&#45;&gt;Node44</title>
<path fill="none" stroke="midnightblue" d="M1667.87,-224.442C1691.93,-217.021 1725.35,-204.818 1751.5,-188 1772.46,-174.514 1792.42,-153.769 1805.02,-139.356"/>
<polygon fill="midnightblue" stroke="midnightblue" points="1807.71,-141.587 1811.53,-131.704 1802.39,-137.049 1807.71,-141.587"/>
</g>
<!-- Node43&#45;&gt;Node3 -->
<g id="edge51" class="edge"><title>Node43&#45;&gt;Node3</title>
<path fill="none" stroke="midnightblue" d="M1161.68,-168.444C1137.67,-159.438 1099.67,-145.189 1072.63,-135.049"/>
<polygon fill="midnightblue" stroke="midnightblue" points="1073.8,-131.751 1063.21,-131.516 1071.34,-138.305 1073.8,-131.751"/>
</g>
<!-- Node44&#45;&gt;Node31 -->
<g id="edge53" class="edge"><title>Node44&#45;&gt;Node31</title>
<path fill="none" stroke="midnightblue" d="M1824.07,-112.368C1835.74,-94.2957 1862.92,-52.1764 1878.33,-28.3074"/>
<polygon fill="midnightblue" stroke="midnightblue" points="1881.47,-29.8913 1883.95,-19.5914 1875.59,-26.0952 1881.47,-29.8913"/>
</g>
<!-- Node44&#45;&gt;Node32 -->
<g id="edge54" class="edge"><title>Node44&#45;&gt;Node32</title>
<path fill="none" stroke="midnightblue" d="M1809.98,-112.426C1797.39,-99.8371 1773.01,-75.7088 1751.5,-56 1740.5,-45.9174 1727.84,-34.9522 1717.77,-26.3703"/>
<polygon fill="midnightblue" stroke="midnightblue" points="1719.9,-23.5897 1710.01,-19.7937 1715.38,-28.9296 1719.9,-23.5897"/>
</g>
<!-- Node45&#45;&gt;Node3 -->
<g id="edge60" class="edge"><title>Node45&#45;&gt;Node3</title>
<path fill="none" stroke="midnightblue" d="M925.213,-224.184C916.556,-210.857 903.338,-185.305 915.5,-168 930.071,-147.268 955.157,-136.043 979.049,-129.983"/>
<polygon fill="midnightblue" stroke="midnightblue" points="979.851,-133.39 988.826,-127.761 978.299,-126.564 979.851,-133.39"/>
</g>
<!-- Node46 -->
<g id="node46" class="node"><title>Node46</title>
<g id="a_node46"><a xlink:href="_ogre_shared_ptr_8h.html" target="_top" xlink:title="OgreSharedPtr.h">
<polygon fill="none" stroke="red" points="996,-168.5 996,-187.5 1085,-187.5 1085,-168.5 996,-168.5"/>
<text text-anchor="middle" x="1040.5" y="-175.5" font-family="Helvetica,sans-Serif" font-size="10.00">OgreSharedPtr.h</text>
</a>
</g>
</g>
<!-- Node45&#45;&gt;Node46 -->
<g id="edge61" class="edge"><title>Node45&#45;&gt;Node46</title>
<path fill="none" stroke="midnightblue" d="M949.013,-224.324C966.572,-215.625 993.831,-202.12 1014.03,-192.113"/>
<polygon fill="midnightblue" stroke="midnightblue" points="1015.62,-195.23 1023.03,-187.655 1012.52,-188.958 1015.62,-195.23"/>
</g>
<!-- Node46&#45;&gt;Node3 -->
<g id="edge62" class="edge"><title>Node46&#45;&gt;Node3</title>
<path fill="none" stroke="midnightblue" d="M1040.5,-168.083C1040.5,-161.006 1040.5,-150.861 1040.5,-141.986"/>
<polygon fill="midnightblue" stroke="midnightblue" points="1044,-141.751 1040.5,-131.751 1037,-141.751 1044,-141.751"/>
</g>
<!-- Node47&#45;&gt;Node3 -->
<g id="edge64" class="edge"><title>Node47&#45;&gt;Node3</title>
<path fill="none" stroke="midnightblue" d="M1664.96,-285.863C1506.95,-275.538 1030.19,-240.261 986.5,-188 971.828,-170.45 995.062,-150.165 1015.47,-136.987"/>
<polygon fill="midnightblue" stroke="midnightblue" points="1017.51,-139.842 1024.21,-131.636 1013.86,-133.872 1017.51,-139.842"/>
</g>
<!-- Node47&#45;&gt;Node31 -->
<g id="edge66" class="edge"><title>Node47&#45;&gt;Node31</title>
<path fill="none" stroke="midnightblue" d="M1730.32,-280.387C1764.52,-259.657 1849.16,-203.373 1889.5,-132 1906.44,-102.027 1910.01,-89.9848 1904.5,-56 1903.03,-46.9568 1900.01,-37.275 1897.06,-29.2176"/>
<polygon fill="midnightblue" stroke="midnightblue" points="1900.26,-27.7907 1893.36,-19.7514 1893.74,-30.3393 1900.26,-27.7907"/>
</g>
<!-- Node47&#45;&gt;Node32 -->
<g id="edge67" class="edge"><title>Node47&#45;&gt;Node32</title>
<path fill="none" stroke="midnightblue" d="M1717.67,-280.43C1721.94,-263.111 1731.27,-222.642 1734.5,-188 1735.33,-179.15 1734.58,-176.889 1734.5,-168 1734.28,-143.108 1735.92,-136.775 1733.5,-112 1731.04,-86.8369 1731.77,-79.891 1723.5,-56 1720.2,-46.4828 1715.1,-36.5387 1710.44,-28.4261"/>
<polygon fill="midnightblue" stroke="midnightblue" points="1713.29,-26.3624 1705.14,-19.5907 1707.29,-29.9657 1713.29,-26.3624"/>
</g>
<!-- Node47&#45;&gt;Node45 -->
<g id="edge65" class="edge"><title>Node47&#45;&gt;Node45</title>
<path fill="none" stroke="midnightblue" d="M1664.96,-285.519C1526.48,-275.981 1141.32,-249.452 991.862,-239.158"/>
<polygon fill="midnightblue" stroke="midnightblue" points="991.732,-235.64 981.515,-238.445 991.251,-242.624 991.732,-235.64"/>
</g>
<!-- Node48&#45;&gt;Node3 -->
<g id="edge71" class="edge"><title>Node48&#45;&gt;Node3</title>
<path fill="none" stroke="midnightblue" d="M1305.96,-229.488C1262.05,-224.503 1189.83,-213.028 1132.5,-188 1103.85,-175.492 1075.11,-153.263 1057.56,-138.328"/>
<polygon fill="midnightblue" stroke="midnightblue" points="1059.74,-135.582 1049.9,-131.657 1055.14,-140.862 1059.74,-135.582"/>
</g>
<!-- Node48&#45;&gt;Node31 -->
<g id="edge78" class="edge"><title>Node48&#45;&gt;Node31</title>
<path fill="none" stroke="midnightblue" d="M1385.05,-226.472C1424.23,-219.361 1485.58,-206.476 1536.5,-188 1553.57,-181.805 1784.31,-64.5561 1863.24,-24.3763"/>
<polygon fill="midnightblue" stroke="midnightblue" points="1865.18,-27.315 1872.51,-19.6585 1862.01,-21.0771 1865.18,-27.315"/>
</g>
<!-- Node48&#45;&gt;Node32 -->
<g id="edge80" class="edge"><title>Node48&#45;&gt;Node32</title>
<path fill="none" stroke="midnightblue" d="M1350.54,-224.246C1355.54,-215.329 1363.2,-201.001 1368.5,-188 1391.68,-131.108 1362.98,-96.1265 1409.5,-56 1426.52,-41.3191 1557.85,-25.4972 1637.83,-17.082"/>
<polygon fill="midnightblue" stroke="midnightblue" points="1638.21,-20.5611 1647.8,-16.0436 1637.49,-13.5988 1638.21,-20.5611"/>
</g>
<!-- Node48&#45;&gt;Node41 -->
<g id="edge74" class="edge"><title>Node48&#45;&gt;Node41</title>
<path fill="none" stroke="midnightblue" d="M1385.06,-226.324C1442.04,-216.708 1547.4,-198.929 1611.5,-188.112"/>
<polygon fill="midnightblue" stroke="midnightblue" points="1612.14,-191.554 1621.42,-186.438 1610.98,-184.651 1612.14,-191.554"/>
</g>
<!-- Node48&#45;&gt;Node46 -->
<g id="edge79" class="edge"><title>Node48&#45;&gt;Node46</title>
<path fill="none" stroke="midnightblue" d="M1305.94,-225.996C1252.23,-216.487 1156,-199.449 1095.34,-188.71"/>
<polygon fill="midnightblue" stroke="midnightblue" points="1095.65,-185.209 1085.19,-186.912 1094.43,-192.102 1095.65,-185.209"/>
</g>
<!-- Node49 -->
<g id="node49" class="node"><title>Node49</title>
<g id="a_node49"><a xlink:href="_ogre_hardware_buffer_8h.html" target="_top" xlink:title="OgreHardwareBuffer.h">
<polygon fill="none" stroke="red" points="1245.5,-168.5 1245.5,-187.5 1359.5,-187.5 1359.5,-168.5 1245.5,-168.5"/>
<text text-anchor="middle" x="1302.5" y="-175.5" font-family="Helvetica,sans-Serif" font-size="10.00">OgreHardwareBuffer.h</text>
</a>
</g>
</g>
<!-- Node48&#45;&gt;Node49 -->
<g id="edge72" class="edge"><title>Node48&#45;&gt;Node49</title>
<path fill="none" stroke="midnightblue" d="M1338.4,-224.083C1332.26,-216.377 1323.23,-205.033 1315.76,-195.653"/>
<polygon fill="midnightblue" stroke="midnightblue" points="1318.44,-193.394 1309.47,-187.751 1312.96,-197.754 1318.44,-193.394"/>
</g>
<!-- Node50 -->
<g id="node50" class="node"><title>Node50</title>
<g id="a_node50"><a xlink:href="_ogre_image_8h.html" target="_top" xlink:title="OgreImage.h">
<polygon fill="none" stroke="red" points="1454,-168.5 1454,-187.5 1527,-187.5 1527,-168.5 1454,-168.5"/>
<text text-anchor="middle" x="1490.5" y="-175.5" font-family="Helvetica,sans-Serif" font-size="10.00">OgreImage.h</text>
</a>
</g>
</g>
<!-- Node48&#45;&gt;Node50 -->
<g id="edge75" class="edge"><title>Node48&#45;&gt;Node50</title>
<path fill="none" stroke="midnightblue" d="M1368.48,-224.444C1392.66,-215.438 1430.92,-201.189 1458.15,-191.049"/>
<polygon fill="midnightblue" stroke="midnightblue" points="1459.48,-194.286 1467.63,-187.516 1457.04,-187.727 1459.48,-194.286"/>
</g>
<!-- Node49&#45;&gt;Node3 -->
<g id="edge73" class="edge"><title>Node49&#45;&gt;Node3</title>
<path fill="none" stroke="midnightblue" d="M1260.99,-168.444C1215.09,-158.984 1141.12,-143.738 1091.67,-133.547"/>
<polygon fill="midnightblue" stroke="midnightblue" points="1092.32,-130.107 1081.82,-131.516 1090.91,-136.963 1092.32,-130.107"/>
</g>
<!-- Node50&#45;&gt;Node3 -->
<g id="edge76" class="edge"><title>Node50&#45;&gt;Node3</title>
<path fill="none" stroke="midnightblue" d="M1453.77,-170.237C1448.98,-169.437 1444.13,-168.669 1439.5,-168 1320.65,-150.828 1181.08,-136.39 1102.49,-128.782"/>
<polygon fill="midnightblue" stroke="midnightblue" points="1102.57,-125.274 1092.28,-127.799 1101.9,-132.242 1102.57,-125.274"/>
</g>
<!-- Node50&#45;&gt;Node44 -->
<g id="edge77" class="edge"><title>Node50&#45;&gt;Node44</title>
<path fill="none" stroke="midnightblue" d="M1527.17,-170.963C1585.21,-161.408 1698.49,-142.758 1765.41,-131.741"/>
<polygon fill="midnightblue" stroke="midnightblue" points="1766.04,-135.185 1775.33,-130.107 1764.9,-128.278 1766.04,-135.185"/>
</g>
</g>
</svg>
