<?xml version="1.0" encoding="UTF-8" standalone="no"?>
<!DOCTYPE svg PUBLIC "-//W3C//DTD SVG 1.1//EN"
 "http://www.w3.org/Graphics/SVG/1.1/DTD/svg11.dtd">
<!-- Generated by graphviz version 2.38.0 (20140413.2041)
 -->
<!-- Title: OgreGLSLESProgramCommon.h Pages: 1 -->
<svg width="489pt" height="162pt"
 viewBox="0.00 0.00 489.00 162.00" xmlns="http://www.w3.org/2000/svg" xmlns:xlink="http://www.w3.org/1999/xlink">
<g id="graph0" class="graph" transform="scale(1 1) rotate(0) translate(4 158)">
<title>OgreGLSLESProgramCommon.h</title>
<!-- Node1 -->
<g id="node1" class="node"><title>Node1</title>
<polygon fill="#bfbfbf" stroke="black" points="152,-134.5 152,-153.5 313,-153.5 313,-134.5 152,-134.5"/>
<text text-anchor="middle" x="232.5" y="-141.5" font-family="Helvetica,sans-Serif" font-size="10.00">OgreGLSLESProgramCommon.h</text>
</g>
<!-- Node2 -->
<g id="node2" class="node"><title>Node2</title>
<g id="a_node2"><a xlink:href="_ogre_g_l_s_l_e_s_link_program_8h.html" target="_top" xlink:title="OgreGLSLESLinkProgram.h">
<polygon fill="none" stroke="black" points="0,-73 0,-92 139,-92 139,-73 0,-73"/>
<text text-anchor="middle" x="69.5" y="-80" font-family="Helvetica,sans-Serif" font-size="10.00">OgreGLSLESLinkProgram.h</text>
</a>
</g>
</g>
<!-- Node1&#45;&gt;Node2 -->
<g id="edge1" class="edge"><title>Node1&#45;&gt;Node2</title>
<path fill="none" stroke="midnightblue" d="M199.442,-130.933C167.761,-119.368 120.751,-102.208 92.8106,-92.0091"/>
<polygon fill="midnightblue" stroke="midnightblue" points="198.552,-134.334 209.146,-134.475 200.953,-127.758 198.552,-134.334"/>
</g>
<!-- Node4 -->
<g id="node4" class="node"><title>Node4</title>
<g id="a_node4"><a xlink:href="_ogre_g_l_s_l_e_s_program_manager_common_8h.html" target="_top" xlink:title="OgreGLSLESProgramManager\lCommon.h">
<polygon fill="none" stroke="black" points="157.5,-67.5 157.5,-97.5 307.5,-97.5 307.5,-67.5 157.5,-67.5"/>
<text text-anchor="start" x="165.5" y="-85.5" font-family="Helvetica,sans-Serif" font-size="10.00">OgreGLSLESProgramManager</text>
<text text-anchor="middle" x="232.5" y="-74.5" font-family="Helvetica,sans-Serif" font-size="10.00">Common.h</text>
</a>
</g>
</g>
<!-- Node1&#45;&gt;Node4 -->
<g id="edge3" class="edge"><title>Node1&#45;&gt;Node4</title>
<path fill="none" stroke="midnightblue" d="M232.5,-124.235C232.5,-115.586 232.5,-105.497 232.5,-97.523"/>
<polygon fill="midnightblue" stroke="midnightblue" points="229,-124.475 232.5,-134.475 236,-124.475 229,-124.475"/>
</g>
<!-- Node6 -->
<g id="node6" class="node"><title>Node6</title>
<g id="a_node6"><a xlink:href="_ogre_g_l_s_l_e_s_program_pipeline_8h.html" target="_top" xlink:title="OgreGLSLESProgramPipeline.h">
<polygon fill="none" stroke="black" points="326,-73 326,-92 481,-92 481,-73 326,-73"/>
<text text-anchor="middle" x="403.5" y="-80" font-family="Helvetica,sans-Serif" font-size="10.00">OgreGLSLESProgramPipeline.h</text>
</a>
</g>
</g>
<!-- Node1&#45;&gt;Node6 -->
<g id="edge6" class="edge"><title>Node1&#45;&gt;Node6</title>
<path fill="none" stroke="midnightblue" d="M266.75,-131.083C299.989,-119.517 349.607,-102.252 379.045,-92.0091"/>
<polygon fill="midnightblue" stroke="midnightblue" points="265.295,-127.883 257,-134.475 267.595,-134.494 265.295,-127.883"/>
</g>
<!-- Node3 -->
<g id="node3" class="node"><title>Node3</title>
<g id="a_node3"><a xlink:href="_ogre_g_l_s_l_e_s_link_program_manager_8h.html" target="_top" xlink:title="OgreGLSLESLinkProgramManager.h">
<polygon fill="none" stroke="black" points="19.5,-6 19.5,-25 195.5,-25 195.5,-6 19.5,-6"/>
<text text-anchor="middle" x="107.5" y="-13" font-family="Helvetica,sans-Serif" font-size="10.00">OgreGLSLESLinkProgramManager.h</text>
</a>
</g>
</g>
<!-- Node2&#45;&gt;Node3 -->
<g id="edge2" class="edge"><title>Node2&#45;&gt;Node3</title>
<path fill="none" stroke="midnightblue" d="M79.7105,-64.0347C87.0678,-51.4499 96.6804,-35.0072 102.456,-25.1273"/>
<polygon fill="midnightblue" stroke="midnightblue" points="76.6503,-62.3344 74.6248,-72.7338 82.6934,-65.8673 76.6503,-62.3344"/>
</g>
<!-- Node4&#45;&gt;Node3 -->
<g id="edge4" class="edge"><title>Node4&#45;&gt;Node3</title>
<path fill="none" stroke="midnightblue" d="M196.227,-62.638C172.313,-50.2028 142.142,-34.5137 123.86,-25.007"/>
<polygon fill="midnightblue" stroke="midnightblue" points="194.89,-65.8877 205.377,-67.396 198.119,-59.6771 194.89,-65.8877"/>
</g>
<!-- Node5 -->
<g id="node5" class="node"><title>Node5</title>
<g id="a_node5"><a xlink:href="_ogre_g_l_s_l_e_s_program_pipeline_manager_8h.html" target="_top" xlink:title="OgreGLSLESProgramPipeline\lManager.h">
<polygon fill="none" stroke="black" points="291,-0.5 291,-30.5 438,-30.5 438,-0.5 291,-0.5"/>
<text text-anchor="start" x="299" y="-18.5" font-family="Helvetica,sans-Serif" font-size="10.00">OgreGLSLESProgramPipeline</text>
<text text-anchor="middle" x="364.5" y="-7.5" font-family="Helvetica,sans-Serif" font-size="10.00">Manager.h</text>
</a>
</g>
</g>
<!-- Node4&#45;&gt;Node5 -->
<g id="edge5" class="edge"><title>Node4&#45;&gt;Node5</title>
<path fill="none" stroke="midnightblue" d="M270.367,-62.8533C291.238,-52.5761 316.726,-40.0252 335.914,-30.5765"/>
<polygon fill="midnightblue" stroke="midnightblue" points="268.567,-59.8383 261.142,-67.396 271.66,-66.1182 268.567,-59.8383"/>
</g>
<!-- Node6&#45;&gt;Node5 -->
<g id="edge7" class="edge"><title>Node6&#45;&gt;Node5</title>
<path fill="none" stroke="midnightblue" d="M393.021,-64.0347C386.733,-53.5556 378.841,-40.4016 372.953,-30.589"/>
<polygon fill="midnightblue" stroke="midnightblue" points="390.094,-65.9596 398.24,-72.7338 396.097,-62.3581 390.094,-65.9596"/>
</g>
</g>
</svg>
