<?xml version="1.0" encoding="UTF-8" standalone="no"?>
<!DOCTYPE svg PUBLIC "-//W3C//DTD SVG 1.1//EN"
 "http://www.w3.org/Graphics/SVG/1.1/DTD/svg11.dtd">
<!-- Generated by graphviz version 2.38.0 (20140413.2041)
 -->
<!-- Title: OgreGLNativeSupport.h Pages: 1 -->
<svg width="3080pt" height="476pt"
 viewBox="0.00 0.00 3079.56 476.00" xmlns="http://www.w3.org/2000/svg" xmlns:xlink="http://www.w3.org/1999/xlink">
<g id="graph0" class="graph" transform="scale(1 1) rotate(0) translate(4 472)">
<title>OgreGLNativeSupport.h</title>
<!-- Node1 -->
<g id="node1" class="node"><title>Node1</title>
<polygon fill="#bfbfbf" stroke="black" points="2294.5,-448.5 2294.5,-467.5 2415.5,-467.5 2415.5,-448.5 2294.5,-448.5"/>
<text text-anchor="middle" x="2355" y="-455.5" font-family="Helvetica,sans-Serif" font-size="10.00">OgreGLNativeSupport.h</text>
</g>
<!-- Node2 -->
<g id="node2" class="node"><title>Node2</title>
<g id="a_node2"><a xlink:href="_ogre_g_l_support_prerequisites_8h.html" target="_top" xlink:title="OgreGLSupportPrerequisites.h">
<polygon fill="none" stroke="black" points="2280.5,-336.5 2280.5,-355.5 2429.5,-355.5 2429.5,-336.5 2280.5,-336.5"/>
<text text-anchor="middle" x="2355" y="-343.5" font-family="Helvetica,sans-Serif" font-size="10.00">OgreGLSupportPrerequisites.h</text>
</a>
</g>
</g>
<!-- Node1&#45;&gt;Node2 -->
<g id="edge1" class="edge"><title>Node1&#45;&gt;Node2</title>
<path fill="none" stroke="midnightblue" d="M2355,-448.368C2355,-430.617 2355,-389.666 2355,-365.597"/>
<polygon fill="midnightblue" stroke="midnightblue" points="2358.5,-365.591 2355,-355.591 2351.5,-365.591 2358.5,-365.591"/>
</g>
<!-- Node43 -->
<g id="node43" class="node"><title>Node43</title>
<g id="a_node43"><a xlink:href="_ogre_config_option_map_8h.html" target="_top" xlink:title="OgreConfigOptionMap.h">
<polygon fill="none" stroke="black" points="2151,-392.5 2151,-411.5 2273,-411.5 2273,-392.5 2151,-392.5"/>
<text text-anchor="middle" x="2212" y="-399.5" font-family="Helvetica,sans-Serif" font-size="10.00">OgreConfigOptionMap.h</text>
</a>
</g>
</g>
<!-- Node1&#45;&gt;Node43 -->
<g id="edge51" class="edge"><title>Node1&#45;&gt;Node43</title>
<path fill="none" stroke="midnightblue" d="M2332.34,-448.444C2308.6,-439.478 2271.09,-425.314 2244.26,-415.183"/>
<polygon fill="midnightblue" stroke="midnightblue" points="2245.14,-411.775 2234.55,-411.516 2242.67,-418.324 2245.14,-411.775"/>
</g>
<!-- Node48 -->
<g id="node48" class="node"><title>Node48</title>
<g id="a_node48"><a xlink:href="_ogre_pixel_format_8h.html" target="_top" xlink:title="OgrePixelFormat.h">
<polygon fill="none" stroke="black" points="2428,-224.5 2428,-243.5 2526,-243.5 2526,-224.5 2428,-224.5"/>
<text text-anchor="middle" x="2477" y="-231.5" font-family="Helvetica,sans-Serif" font-size="10.00">OgrePixelFormat.h</text>
</a>
</g>
</g>
<!-- Node1&#45;&gt;Node48 -->
<g id="edge63" class="edge"><title>Node1&#45;&gt;Node48</title>
<path fill="none" stroke="midnightblue" d="M2364.05,-448.39C2380.87,-431.935 2417.11,-394.245 2438,-356 2456.45,-322.22 2467.86,-278.316 2473.26,-253.754"/>
<polygon fill="midnightblue" stroke="midnightblue" points="2476.75,-254.163 2475.38,-243.657 2469.9,-252.725 2476.75,-254.163"/>
</g>
<!-- Node3 -->
<g id="node3" class="node"><title>Node3</title>
<g id="a_node3"><a xlink:href="_ogre_prerequisites_8h.html" target="_top" xlink:title="OgrePrerequisites.h">
<polygon fill="none" stroke="black" points="2180.5,-168.5 2180.5,-187.5 2283.5,-187.5 2283.5,-168.5 2180.5,-168.5"/>
<text text-anchor="middle" x="2232" y="-175.5" font-family="Helvetica,sans-Serif" font-size="10.00">OgrePrerequisites.h</text>
</a>
</g>
</g>
<!-- Node2&#45;&gt;Node3 -->
<g id="edge2" class="edge"><title>Node2&#45;&gt;Node3</title>
<path fill="none" stroke="midnightblue" d="M2349.16,-336.342C2335.54,-316.272 2300.47,-265.144 2269,-224 2261.7,-214.461 2253.21,-204.088 2246.21,-195.709"/>
<polygon fill="midnightblue" stroke="midnightblue" points="2248.68,-193.208 2239.56,-187.816 2243.33,-197.718 2248.68,-193.208"/>
</g>
<!-- Node4 -->
<g id="node4" class="node"><title>Node4</title>
<g id="a_node4"><a xlink:href="_ogre_platform_8h.html" target="_top" xlink:title="OgrePlatform.h">
<polygon fill="none" stroke="black" points="2199.5,-112.5 2199.5,-131.5 2282.5,-131.5 2282.5,-112.5 2199.5,-112.5"/>
<text text-anchor="middle" x="2241" y="-119.5" font-family="Helvetica,sans-Serif" font-size="10.00">OgrePlatform.h</text>
</a>
</g>
</g>
<!-- Node3&#45;&gt;Node4 -->
<g id="edge3" class="edge"><title>Node3&#45;&gt;Node4</title>
<path fill="none" stroke="midnightblue" d="M2233.49,-168.083C2234.68,-160.927 2236.39,-150.635 2237.88,-141.691"/>
<polygon fill="midnightblue" stroke="midnightblue" points="2241.35,-142.19 2239.54,-131.751 2234.45,-141.04 2241.35,-142.19"/>
</g>
<!-- Node6 -->
<g id="node6" class="node"><title>Node6</title>
<polygon fill="none" stroke="#bfbfbf" points="2150.5,-56.5 2150.5,-75.5 2191.5,-75.5 2191.5,-56.5 2150.5,-56.5"/>
<text text-anchor="middle" x="2171" y="-63.5" font-family="Helvetica,sans-Serif" font-size="10.00">string</text>
</g>
<!-- Node3&#45;&gt;Node6 -->
<g id="edge5" class="edge"><title>Node3&#45;&gt;Node6</title>
<path fill="none" stroke="midnightblue" d="M2221.56,-168.397C2212.04,-160.028 2198.25,-146.487 2190,-132 2181.82,-117.633 2176.89,-99.4364 2174.11,-85.9527"/>
<polygon fill="midnightblue" stroke="midnightblue" points="2177.52,-85.1201 2172.26,-75.9225 2170.64,-86.392 2177.52,-85.1201"/>
</g>
<!-- Node7 -->
<g id="node7" class="node"><title>Node7</title>
<g id="a_node7"><a xlink:href="_ogre_std_headers_8h.html" target="_top" xlink:title="OgreStdHeaders.h">
<polygon fill="none" stroke="black" points="958,-112.5 958,-131.5 1056,-131.5 1056,-112.5 958,-112.5"/>
<text text-anchor="middle" x="1007" y="-119.5" font-family="Helvetica,sans-Serif" font-size="10.00">OgreStdHeaders.h</text>
</a>
</g>
</g>
<!-- Node3&#45;&gt;Node7 -->
<g id="edge6" class="edge"><title>Node3&#45;&gt;Node7</title>
<path fill="none" stroke="midnightblue" d="M2180.15,-174.714C1982.43,-165.998 1276.44,-134.877 1066.38,-125.617"/>
<polygon fill="midnightblue" stroke="midnightblue" points="1066.31,-122.111 1056.17,-125.167 1066,-129.104 1066.31,-122.111"/>
</g>
<!-- Node37 -->
<g id="node37" class="node"><title>Node37</title>
<g id="a_node37"><a xlink:href="_ogre_memory_allocator_config_8h.html" target="_top" xlink:title="This file configures Ogre&#39;s memory allocators. ">
<polygon fill="none" stroke="black" points="2508,-112.5 2508,-131.5 2656,-131.5 2656,-112.5 2508,-112.5"/>
<text text-anchor="middle" x="2582" y="-119.5" font-family="Helvetica,sans-Serif" font-size="10.00">OgreMemoryAllocatorConfig.h</text>
</a>
</g>
</g>
<!-- Node3&#45;&gt;Node37 -->
<g id="edge37" class="edge"><title>Node3&#45;&gt;Node37</title>
<path fill="none" stroke="midnightblue" d="M2283.64,-169.032C2345.5,-159.488 2449.19,-143.49 2516.59,-133.091"/>
<polygon fill="midnightblue" stroke="midnightblue" points="2517.32,-136.52 2526.67,-131.536 2516.26,-129.602 2517.32,-136.52"/>
</g>
<!-- Node5 -->
<g id="node5" class="node"><title>Node5</title>
<g id="a_node5"><a xlink:href="_ogre_config_8h.html" target="_top" xlink:title="OgreConfig.h">
<polygon fill="none" stroke="red" points="2210,-56.5 2210,-75.5 2284,-75.5 2284,-56.5 2210,-56.5"/>
<text text-anchor="middle" x="2247" y="-63.5" font-family="Helvetica,sans-Serif" font-size="10.00">OgreConfig.h</text>
</a>
</g>
</g>
<!-- Node4&#45;&gt;Node5 -->
<g id="edge4" class="edge"><title>Node4&#45;&gt;Node5</title>
<path fill="none" stroke="midnightblue" d="M2241.99,-112.083C2242.79,-104.927 2243.93,-94.6353 2244.92,-85.6911"/>
<polygon fill="midnightblue" stroke="midnightblue" points="2248.4,-86.0765 2246.03,-75.7511 2241.44,-85.3034 2248.4,-86.0765"/>
</g>
<!-- Node7&#45;&gt;Node6 -->
<g id="edge16" class="edge"><title>Node7&#45;&gt;Node6</title>
<path fill="none" stroke="midnightblue" d="M1056.25,-120.692C1242.94,-119.275 1907.72,-111.879 2140.1,-75.6141"/>
<polygon fill="midnightblue" stroke="midnightblue" points="2140.87,-79.0358 2150.18,-73.9775 2139.75,-72.1264 2140.87,-79.0358"/>
</g>
<!-- Node8 -->
<g id="node8" class="node"><title>Node8</title>
<polygon fill="none" stroke="#bfbfbf" points="141.5,-56.5 141.5,-75.5 190.5,-75.5 190.5,-56.5 141.5,-56.5"/>
<text text-anchor="middle" x="166" y="-63.5" font-family="Helvetica,sans-Serif" font-size="10.00">cassert</text>
</g>
<!-- Node7&#45;&gt;Node8 -->
<g id="edge7" class="edge"><title>Node7&#45;&gt;Node8</title>
<path fill="none" stroke="midnightblue" d="M957.97,-119.624C809.461,-115.245 365.168,-100.555 200.7,-75.9101"/>
<polygon fill="midnightblue" stroke="midnightblue" points="201.165,-72.4402 190.743,-74.349 200.08,-79.3557 201.165,-72.4402"/>
</g>
<!-- Node9 -->
<g id="node9" class="node"><title>Node9</title>
<polygon fill="none" stroke="#bfbfbf" points="208.5,-56.5 208.5,-75.5 251.5,-75.5 251.5,-56.5 208.5,-56.5"/>
<text text-anchor="middle" x="230" y="-63.5" font-family="Helvetica,sans-Serif" font-size="10.00">cstdio</text>
</g>
<!-- Node7&#45;&gt;Node9 -->
<g id="edge8" class="edge"><title>Node7&#45;&gt;Node9</title>
<path fill="none" stroke="midnightblue" d="M957.869,-119.524C817.148,-115.065 413.484,-100.615 261.86,-75.9003"/>
<polygon fill="midnightblue" stroke="midnightblue" points="262.261,-72.4181 251.814,-74.1804 261.08,-79.3177 262.261,-72.4181"/>
</g>
<!-- Node10 -->
<g id="node10" class="node"><title>Node10</title>
<polygon fill="none" stroke="#bfbfbf" points="269.5,-56.5 269.5,-75.5 314.5,-75.5 314.5,-56.5 269.5,-56.5"/>
<text text-anchor="middle" x="292" y="-63.5" font-family="Helvetica,sans-Serif" font-size="10.00">cstdlib</text>
</g>
<!-- Node7&#45;&gt;Node10 -->
<g id="edge9" class="edge"><title>Node7&#45;&gt;Node10</title>
<path fill="none" stroke="midnightblue" d="M957.629,-121.401C846.012,-121.526 565.801,-117.452 324.562,-75.9103"/>
<polygon fill="midnightblue" stroke="midnightblue" points="325.007,-72.435 314.553,-74.1611 323.801,-79.3305 325.007,-72.435"/>
</g>
<!-- Node11 -->
<g id="node11" class="node"><title>Node11</title>
<polygon fill="none" stroke="#bfbfbf" points="332.5,-56.5 332.5,-75.5 373.5,-75.5 373.5,-56.5 332.5,-56.5"/>
<text text-anchor="middle" x="353" y="-63.5" font-family="Helvetica,sans-Serif" font-size="10.00">ctime</text>
</g>
<!-- Node7&#45;&gt;Node11 -->
<g id="edge10" class="edge"><title>Node7&#45;&gt;Node11</title>
<path fill="none" stroke="midnightblue" d="M957.995,-121.102C853.726,-120.539 602.28,-115.037 383.572,-75.6411"/>
<polygon fill="midnightblue" stroke="midnightblue" points="383.978,-72.1574 373.511,-73.8005 382.718,-79.0431 383.978,-72.1574"/>
</g>
<!-- Node12 -->
<g id="node12" class="node"><title>Node12</title>
<polygon fill="none" stroke="#bfbfbf" points="392,-56.5 392,-75.5 438,-75.5 438,-56.5 392,-56.5"/>
<text text-anchor="middle" x="415" y="-63.5" font-family="Helvetica,sans-Serif" font-size="10.00">cstring</text>
</g>
<!-- Node7&#45;&gt;Node12 -->
<g id="edge11" class="edge"><title>Node7&#45;&gt;Node12</title>
<path fill="none" stroke="midnightblue" d="M957.902,-120.246C861.651,-118.079 641.432,-109.728 448.343,-75.9037"/>
<polygon fill="midnightblue" stroke="midnightblue" points="448.756,-72.4222 438.297,-74.1162 447.529,-79.3139 448.756,-72.4222"/>
</g>
<!-- Node13 -->
<g id="node13" class="node"><title>Node13</title>
<polygon fill="none" stroke="#bfbfbf" points="456.5,-56.5 456.5,-75.5 505.5,-75.5 505.5,-56.5 456.5,-56.5"/>
<text text-anchor="middle" x="481" y="-63.5" font-family="Helvetica,sans-Serif" font-size="10.00">cstdarg</text>
</g>
<!-- Node7&#45;&gt;Node13 -->
<g id="edge12" class="edge"><title>Node7&#45;&gt;Node13</title>
<path fill="none" stroke="midnightblue" d="M957.756,-119.227C870.5,-115.492 682.991,-104.801 515.745,-75.8251"/>
<polygon fill="midnightblue" stroke="midnightblue" points="516.231,-72.3569 505.775,-74.0716 515.018,-79.251 516.231,-72.3569"/>
</g>
<!-- Node14 -->
<g id="node14" class="node"><title>Node14</title>
<polygon fill="none" stroke="#bfbfbf" points="524,-56.5 524,-75.5 568,-75.5 568,-56.5 524,-56.5"/>
<text text-anchor="middle" x="546" y="-63.5" font-family="Helvetica,sans-Serif" font-size="10.00">cmath</text>
</g>
<!-- Node7&#45;&gt;Node14 -->
<g id="edge13" class="edge"><title>Node7&#45;&gt;Node14</title>
<path fill="none" stroke="midnightblue" d="M957.892,-118.713C879.474,-114.439 721.105,-103.267 578.475,-75.9636"/>
<polygon fill="midnightblue" stroke="midnightblue" points="578.719,-72.4454 568.234,-73.9698 577.381,-79.3164 578.719,-72.4454"/>
</g>
<!-- Node15 -->
<g id="node15" class="node"><title>Node15</title>
<polygon fill="none" stroke="#bfbfbf" points="586,-56.5 586,-75.5 630,-75.5 630,-56.5 586,-56.5"/>
<text text-anchor="middle" x="608" y="-63.5" font-family="Helvetica,sans-Serif" font-size="10.00">vector</text>
</g>
<!-- Node7&#45;&gt;Node15 -->
<g id="edge14" class="edge"><title>Node7&#45;&gt;Node15</title>
<path fill="none" stroke="midnightblue" d="M957.783,-117.513C888.755,-112.067 759.2,-99.8221 640.249,-75.9623"/>
<polygon fill="midnightblue" stroke="midnightblue" points="640.742,-72.4908 630.244,-73.9224 639.343,-79.3497 640.742,-72.4908"/>
</g>
<!-- Node16 -->
<g id="node16" class="node"><title>Node16</title>
<polygon fill="none" stroke="#bfbfbf" points="648.5,-56.5 648.5,-75.5 683.5,-75.5 683.5,-56.5 648.5,-56.5"/>
<text text-anchor="middle" x="666" y="-63.5" font-family="Helvetica,sans-Serif" font-size="10.00">map</text>
</g>
<!-- Node7&#45;&gt;Node16 -->
<g id="edge15" class="edge"><title>Node7&#45;&gt;Node16</title>
<path fill="none" stroke="midnightblue" d="M957.811,-116.707C897.566,-110.842 792.373,-98.6348 693.448,-75.6942"/>
<polygon fill="midnightblue" stroke="midnightblue" points="694.125,-72.2578 683.588,-73.3666 692.516,-79.0706 694.125,-72.2578"/>
</g>
<!-- Node17 -->
<g id="node17" class="node"><title>Node17</title>
<polygon fill="none" stroke="#bfbfbf" points="702,-56.5 702,-75.5 732,-75.5 732,-56.5 702,-56.5"/>
<text text-anchor="middle" x="717" y="-63.5" font-family="Helvetica,sans-Serif" font-size="10.00">set</text>
</g>
<!-- Node7&#45;&gt;Node17 -->
<g id="edge17" class="edge"><title>Node7&#45;&gt;Node17</title>
<path fill="none" stroke="midnightblue" d="M957.858,-115.545C906.116,-109.168 822.264,-97.0393 741.876,-75.7949"/>
<polygon fill="midnightblue" stroke="midnightblue" points="742.659,-72.3809 732.092,-73.1587 740.837,-79.1399 742.659,-72.3809"/>
</g>
<!-- Node18 -->
<g id="node18" class="node"><title>Node18</title>
<polygon fill="none" stroke="#bfbfbf" points="750.5,-56.5 750.5,-75.5 779.5,-75.5 779.5,-56.5 750.5,-56.5"/>
<text text-anchor="middle" x="765" y="-63.5" font-family="Helvetica,sans-Serif" font-size="10.00">list</text>
</g>
<!-- Node7&#45;&gt;Node18 -->
<g id="edge18" class="edge"><title>Node7&#45;&gt;Node18</title>
<path fill="none" stroke="midnightblue" d="M957.702,-113.342C915.199,-106.189 852.124,-94.2584 789.936,-76.2259"/>
<polygon fill="midnightblue" stroke="midnightblue" points="790.548,-72.7572 779.966,-73.2792 788.564,-79.4701 790.548,-72.7572"/>
</g>
<!-- Node19 -->
<g id="node19" class="node"><title>Node19</title>
<polygon fill="none" stroke="#bfbfbf" points="797.5,-56.5 797.5,-75.5 840.5,-75.5 840.5,-56.5 797.5,-56.5"/>
<text text-anchor="middle" x="819" y="-63.5" font-family="Helvetica,sans-Serif" font-size="10.00">deque</text>
</g>
<!-- Node7&#45;&gt;Node19 -->
<g id="edge19" class="edge"><title>Node7&#45;&gt;Node19</title>
<path fill="none" stroke="midnightblue" d="M976.674,-112.499C946.829,-104.103 899.708,-90.7669 850.487,-76.4092"/>
<polygon fill="midnightblue" stroke="midnightblue" points="851.2,-72.9711 840.619,-73.5251 849.236,-79.69 851.2,-72.9711"/>
</g>
<!-- Node20 -->
<g id="node20" class="node"><title>Node20</title>
<polygon fill="none" stroke="#bfbfbf" points="858.5,-56.5 858.5,-75.5 901.5,-75.5 901.5,-56.5 858.5,-56.5"/>
<text text-anchor="middle" x="880" y="-63.5" font-family="Helvetica,sans-Serif" font-size="10.00">queue</text>
</g>
<!-- Node7&#45;&gt;Node20 -->
<g id="edge20" class="edge"><title>Node7&#45;&gt;Node20</title>
<path fill="none" stroke="midnightblue" d="M986.876,-112.444C965.976,-103.557 933.065,-89.5632 909.284,-79.4514"/>
<polygon fill="midnightblue" stroke="midnightblue" points="910.602,-76.2085 900.029,-75.5164 907.862,-82.6504 910.602,-76.2085"/>
</g>
<!-- Node21 -->
<g id="node21" class="node"><title>Node21</title>
<polygon fill="none" stroke="#bfbfbf" points="919.5,-56.5 919.5,-75.5 960.5,-75.5 960.5,-56.5 919.5,-56.5"/>
<text text-anchor="middle" x="940" y="-63.5" font-family="Helvetica,sans-Serif" font-size="10.00">bitset</text>
</g>
<!-- Node7&#45;&gt;Node21 -->
<g id="edge21" class="edge"><title>Node7&#45;&gt;Node21</title>
<path fill="none" stroke="midnightblue" d="M996.235,-112.324C986.234,-104.263 971.113,-92.0765 959.07,-82.3695"/>
<polygon fill="midnightblue" stroke="midnightblue" points="960.943,-79.3841 950.961,-75.8339 956.55,-84.8343 960.943,-79.3841"/>
</g>
<!-- Node22 -->
<g id="node22" class="node"><title>Node22</title>
<polygon fill="none" stroke="#bfbfbf" points="979,-56.5 979,-75.5 1035,-75.5 1035,-56.5 979,-56.5"/>
<text text-anchor="middle" x="1007" y="-63.5" font-family="Helvetica,sans-Serif" font-size="10.00">algorithm</text>
</g>
<!-- Node7&#45;&gt;Node22 -->
<g id="edge22" class="edge"><title>Node7&#45;&gt;Node22</title>
<path fill="none" stroke="midnightblue" d="M1007,-112.083C1007,-105.006 1007,-94.8611 1007,-85.9865"/>
<polygon fill="midnightblue" stroke="midnightblue" points="1010.5,-85.751 1007,-75.7511 1003.5,-85.7511 1010.5,-85.751"/>
</g>
<!-- Node23 -->
<g id="node23" class="node"><title>Node23</title>
<polygon fill="none" stroke="#bfbfbf" points="1053.5,-56.5 1053.5,-75.5 1112.5,-75.5 1112.5,-56.5 1053.5,-56.5"/>
<text text-anchor="middle" x="1083" y="-63.5" font-family="Helvetica,sans-Serif" font-size="10.00">functional</text>
</g>
<!-- Node7&#45;&gt;Node23 -->
<g id="edge23" class="edge"><title>Node7&#45;&gt;Node23</title>
<path fill="none" stroke="midnightblue" d="M1019.21,-112.324C1030.78,-104.107 1048.38,-91.6017 1062.16,-81.8069"/>
<polygon fill="midnightblue" stroke="midnightblue" points="1064.44,-84.4791 1070.57,-75.8339 1060.39,-78.7729 1064.44,-84.4791"/>
</g>
<!-- Node24 -->
<g id="node24" class="node"><title>Node24</title>
<polygon fill="none" stroke="#bfbfbf" points="1131,-56.5 1131,-75.5 1171,-75.5 1171,-56.5 1131,-56.5"/>
<text text-anchor="middle" x="1151" y="-63.5" font-family="Helvetica,sans-Serif" font-size="10.00">limits</text>
</g>
<!-- Node7&#45;&gt;Node24 -->
<g id="edge24" class="edge"><title>Node7&#45;&gt;Node24</title>
<path fill="none" stroke="midnightblue" d="M1029.82,-112.444C1054.54,-103.173 1094.08,-88.3464 1121.23,-78.1652"/>
<polygon fill="midnightblue" stroke="midnightblue" points="1122.48,-81.4318 1130.62,-74.6433 1120.03,-74.8775 1122.48,-81.4318"/>
</g>
<!-- Node25 -->
<g id="node25" class="node"><title>Node25</title>
<polygon fill="none" stroke="#bfbfbf" points="1189,-56.5 1189,-75.5 1239,-75.5 1239,-56.5 1189,-56.5"/>
<text text-anchor="middle" x="1214" y="-63.5" font-family="Helvetica,sans-Serif" font-size="10.00">fstream</text>
</g>
<!-- Node7&#45;&gt;Node25 -->
<g id="edge25" class="edge"><title>Node7&#45;&gt;Node25</title>
<path fill="none" stroke="midnightblue" d="M1039.85,-112.499C1072.69,-103.993 1124.88,-90.4451 1178.99,-76.2576"/>
<polygon fill="midnightblue" stroke="midnightblue" points="1179.97,-79.6195 1188.75,-73.6961 1178.19,-72.8486 1179.97,-79.6195"/>
</g>
<!-- Node26 -->
<g id="node26" class="node"><title>Node26</title>
<polygon fill="none" stroke="#bfbfbf" points="1257.5,-56.5 1257.5,-75.5 1302.5,-75.5 1302.5,-56.5 1257.5,-56.5"/>
<text text-anchor="middle" x="1280" y="-63.5" font-family="Helvetica,sans-Serif" font-size="10.00">iosfwd</text>
</g>
<!-- Node7&#45;&gt;Node26 -->
<g id="edge26" class="edge"><title>Node7&#45;&gt;Node26</title>
<path fill="none" stroke="midnightblue" d="M1056.2,-113.142C1102.89,-105.385 1175.23,-92.6015 1247.19,-76.0103"/>
<polygon fill="midnightblue" stroke="midnightblue" points="1248.4,-79.3235 1257.34,-73.644 1246.81,-72.5063 1248.4,-79.3235"/>
</g>
<!-- Node27 -->
<g id="node27" class="node"><title>Node27</title>
<polygon fill="none" stroke="#bfbfbf" points="1321,-56.5 1321,-75.5 1373,-75.5 1373,-56.5 1321,-56.5"/>
<text text-anchor="middle" x="1347" y="-63.5" font-family="Helvetica,sans-Serif" font-size="10.00">sstream</text>
</g>
<!-- Node7&#45;&gt;Node27 -->
<g id="edge27" class="edge"><title>Node7&#45;&gt;Node27</title>
<path fill="none" stroke="midnightblue" d="M1056.22,-115.222C1114.55,-108.039 1214.84,-94.6404 1310.85,-75.8416"/>
<polygon fill="midnightblue" stroke="midnightblue" points="1311.59,-79.2621 1320.72,-73.8857 1310.23,-72.3955 1311.59,-79.2621"/>
</g>
<!-- Node28 -->
<g id="node28" class="node"><title>Node28</title>
<polygon fill="none" stroke="#bfbfbf" points="1391,-56.5 1391,-75.5 1459,-75.5 1459,-56.5 1391,-56.5"/>
<text text-anchor="middle" x="1425" y="-63.5" font-family="Helvetica,sans-Serif" font-size="10.00">sys/types.h</text>
</g>
<!-- Node7&#45;&gt;Node28 -->
<g id="edge28" class="edge"><title>Node7&#45;&gt;Node28</title>
<path fill="none" stroke="midnightblue" d="M1056.03,-116.488C1125.94,-109.753 1258.47,-95.8698 1380.86,-76.0637"/>
<polygon fill="midnightblue" stroke="midnightblue" points="1381.48,-79.5096 1390.78,-74.4415 1380.35,-72.6013 1381.48,-79.5096"/>
</g>
<!-- Node29 -->
<g id="node29" class="node"><title>Node29</title>
<polygon fill="none" stroke="#bfbfbf" points="1477,-56.5 1477,-75.5 1537,-75.5 1537,-56.5 1477,-56.5"/>
<text text-anchor="middle" x="1507" y="-63.5" font-family="Helvetica,sans-Serif" font-size="10.00">sys/stat.h</text>
</g>
<!-- Node7&#45;&gt;Node29 -->
<g id="edge29" class="edge"><title>Node7&#45;&gt;Node29</title>
<path fill="none" stroke="midnightblue" d="M1056.06,-118.304C1138.78,-113.303 1311.38,-100.907 1466.64,-76.0228"/>
<polygon fill="midnightblue" stroke="midnightblue" points="1467.53,-79.424 1476.84,-74.3656 1466.41,-72.5145 1467.53,-79.424"/>
</g>
<!-- Node30 -->
<g id="node30" class="node"><title>Node30</title>
<polygon fill="none" stroke="#bfbfbf" points="1555.5,-56.5 1555.5,-75.5 1606.5,-75.5 1606.5,-56.5 1555.5,-56.5"/>
<text text-anchor="middle" x="1581" y="-63.5" font-family="Helvetica,sans-Serif" font-size="10.00">unistd.h</text>
</g>
<!-- Node7&#45;&gt;Node30 -->
<g id="edge30" class="edge"><title>Node7&#45;&gt;Node30</title>
<path fill="none" stroke="midnightblue" d="M1056.03,-119.667C1149.46,-116.53 1359.52,-106.609 1545.53,-75.7641"/>
<polygon fill="midnightblue" stroke="midnightblue" points="1546.21,-79.199 1555.49,-74.0882 1545.05,-72.296 1546.21,-79.199"/>
</g>
<!-- Node31 -->
<g id="node31" class="node"><title>Node31</title>
<polygon fill="none" stroke="#bfbfbf" points="1625,-56.5 1625,-75.5 1671,-75.5 1671,-56.5 1625,-56.5"/>
<text text-anchor="middle" x="1648" y="-63.5" font-family="Helvetica,sans-Serif" font-size="10.00">dlfcn.h</text>
</g>
<!-- Node7&#45;&gt;Node31 -->
<g id="edge31" class="edge"><title>Node7&#45;&gt;Node31</title>
<path fill="none" stroke="midnightblue" d="M1056.25,-120.555C1158.61,-118.94 1401.74,-111.527 1614.58,-75.6823"/>
<polygon fill="midnightblue" stroke="midnightblue" points="1615.42,-79.0889 1624.69,-73.9538 1614.24,-72.1889 1615.42,-79.0889"/>
</g>
<!-- Node32 -->
<g id="node32" class="node"><title>Node32</title>
<polygon fill="none" stroke="#bfbfbf" points="1689,-56.5 1689,-75.5 1767,-75.5 1767,-56.5 1689,-56.5"/>
<text text-anchor="middle" x="1728" y="-63.5" font-family="Helvetica,sans-Serif" font-size="10.00">ext/hash_map</text>
</g>
<!-- Node7&#45;&gt;Node32 -->
<g id="edge32" class="edge"><title>Node7&#45;&gt;Node32</title>
<path fill="none" stroke="midnightblue" d="M1056.17,-119.709C1166.01,-116.395 1439.76,-105.752 1678.5,-76.0404"/>
<polygon fill="midnightblue" stroke="midnightblue" points="1679.28,-79.4698 1688.77,-74.7483 1678.41,-72.5246 1679.28,-79.4698"/>
</g>
<!-- Node33 -->
<g id="node33" class="node"><title>Node33</title>
<polygon fill="none" stroke="#bfbfbf" points="1785.5,-56.5 1785.5,-75.5 1858.5,-75.5 1858.5,-56.5 1785.5,-56.5"/>
<text text-anchor="middle" x="1822" y="-63.5" font-family="Helvetica,sans-Serif" font-size="10.00">ext/hash_set</text>
</g>
<!-- Node7&#45;&gt;Node33 -->
<g id="edge33" class="edge"><title>Node7&#45;&gt;Node33</title>
<path fill="none" stroke="midnightblue" d="M1056.24,-120.415C1177.03,-118.488 1497.71,-110.398 1775.15,-75.9104"/>
<polygon fill="midnightblue" stroke="midnightblue" points="1775.93,-79.34 1785.41,-74.6197 1775.06,-72.3947 1775.93,-79.34"/>
</g>
<!-- Node34 -->
<g id="node34" class="node"><title>Node34</title>
<polygon fill="none" stroke="#bfbfbf" points="1876.5,-56.5 1876.5,-75.5 1947.5,-75.5 1947.5,-56.5 1876.5,-56.5"/>
<text text-anchor="middle" x="1912" y="-63.5" font-family="Helvetica,sans-Serif" font-size="10.00">sys/param.h</text>
</g>
<!-- Node7&#45;&gt;Node34 -->
<g id="edge34" class="edge"><title>Node7&#45;&gt;Node34</title>
<path fill="none" stroke="midnightblue" d="M1056.19,-120.918C1186.64,-120.168 1552.32,-114.61 1866.02,-75.9161"/>
<polygon fill="midnightblue" stroke="midnightblue" points="1866.73,-79.3547 1876.22,-74.6439 1865.86,-72.4086 1866.73,-79.3547"/>
</g>
<!-- Node35 -->
<g id="node35" class="node"><title>Node35</title>
<polygon fill="none" stroke="#bfbfbf" points="1966,-56.5 1966,-75.5 2132,-75.5 2132,-56.5 1966,-56.5"/>
<text text-anchor="middle" x="2049" y="-63.5" font-family="Helvetica,sans-Serif" font-size="10.00">CoreFoundation/CoreFoundation.h</text>
</g>
<!-- Node7&#45;&gt;Node35 -->
<g id="edge35" class="edge"><title>Node7&#45;&gt;Node35</title>
<path fill="none" stroke="midnightblue" d="M1056.2,-119.52C1195.39,-115.149 1604.07,-101.061 1955.74,-75.9758"/>
<polygon fill="midnightblue" stroke="midnightblue" points="1956.14,-79.4561 1965.86,-75.2494 1955.64,-72.4741 1956.14,-79.4561"/>
</g>
<!-- Node36 -->
<g id="node36" class="node"><title>Node36</title>
<polygon fill="none" stroke="#bfbfbf" points="0,-56.5 0,-75.5 124,-75.5 124,-56.5 0,-56.5"/>
<text text-anchor="middle" x="62" y="-63.5" font-family="Helvetica,sans-Serif" font-size="10.00">emscripten/emscripten.h</text>
</g>
<!-- Node7&#45;&gt;Node36 -->
<g id="edge36" class="edge"><title>Node7&#45;&gt;Node36</title>
<path fill="none" stroke="midnightblue" d="M957.569,-119.783C825.581,-116.249 453.709,-104.44 134.563,-76.1727"/>
<polygon fill="midnightblue" stroke="midnightblue" points="134.457,-72.6494 124.185,-75.246 133.835,-79.6217 134.457,-72.6494"/>
</g>
<!-- Node38 -->
<g id="node38" class="node"><title>Node38</title>
<g id="a_node38"><a xlink:href="_ogre_memory_allocated_object_8h.html" target="_top" xlink:title="OgreMemoryAllocatedObject.h">
<polygon fill="none" stroke="black" points="2722,-56.5 2722,-75.5 2872,-75.5 2872,-56.5 2722,-56.5"/>
<text text-anchor="middle" x="2797" y="-63.5" font-family="Helvetica,sans-Serif" font-size="10.00">OgreMemoryAllocatedObject.h</text>
</a>
</g>
</g>
<!-- Node37&#45;&gt;Node38 -->
<g id="edge38" class="edge"><title>Node37&#45;&gt;Node38</title>
<path fill="none" stroke="midnightblue" d="M2616.07,-112.444C2653.18,-103.122 2712.66,-88.1828 2753.21,-77.9972"/>
<polygon fill="midnightblue" stroke="midnightblue" points="2754.25,-81.347 2763.09,-75.5164 2752.54,-74.5579 2754.25,-81.347"/>
</g>
<!-- Node39 -->
<g id="node39" class="node"><title>Node39</title>
<g id="a_node39"><a xlink:href="_ogre_header_prefix_8h.html" target="_top" xlink:title="OgreHeaderPrefix.h">
<polygon fill="none" stroke="black" points="2492.5,-0.5 2492.5,-19.5 2595.5,-19.5 2595.5,-0.5 2492.5,-0.5"/>
<text text-anchor="middle" x="2544" y="-7.5" font-family="Helvetica,sans-Serif" font-size="10.00">OgreHeaderPrefix.h</text>
</a>
</g>
</g>
<!-- Node37&#45;&gt;Node39 -->
<g id="edge42" class="edge"><title>Node37&#45;&gt;Node39</title>
<path fill="none" stroke="midnightblue" d="M2578.06,-112.489C2573.99,-103.525 2567.61,-88.9427 2563,-76 2557.46,-60.424 2552.27,-42.3467 2548.72,-29.2161"/>
<polygon fill="midnightblue" stroke="midnightblue" points="2552.1,-28.2851 2546.15,-19.5133 2545.33,-30.076 2552.1,-28.2851"/>
</g>
<!-- Node40 -->
<g id="node40" class="node"><title>Node40</title>
<g id="a_node40"><a xlink:href="_ogre_header_suffix_8h.html" target="_top" xlink:title="OgreHeaderSuffix.h">
<polygon fill="none" stroke="black" points="2881.5,-0.5 2881.5,-19.5 2984.5,-19.5 2984.5,-0.5 2881.5,-0.5"/>
<text text-anchor="middle" x="2933" y="-7.5" font-family="Helvetica,sans-Serif" font-size="10.00">OgreHeaderSuffix.h</text>
</a>
</g>
</g>
<!-- Node37&#45;&gt;Node40 -->
<g id="edge50" class="edge"><title>Node37&#45;&gt;Node40</title>
<path fill="none" stroke="midnightblue" d="M2656.38,-117.965C2766.82,-112.685 2963.53,-100.005 2985,-76 3000.11,-59.1117 2977.2,-38.5269 2957.18,-25.1093"/>
<polygon fill="midnightblue" stroke="midnightblue" points="2958.93,-22.0741 2948.61,-19.6587 2955.17,-27.9799 2958.93,-22.0741"/>
</g>
<!-- Node41 -->
<g id="node41" class="node"><title>Node41</title>
<g id="a_node41"><a xlink:href="_ogre_memory_s_t_l_allocator_8h.html" target="_top" xlink:title="OgreMemorySTLAllocator.h">
<polygon fill="none" stroke="black" points="2378.5,-56.5 2378.5,-75.5 2515.5,-75.5 2515.5,-56.5 2378.5,-56.5"/>
<text text-anchor="middle" x="2447" y="-63.5" font-family="Helvetica,sans-Serif" font-size="10.00">OgreMemorySTLAllocator.h</text>
</a>
</g>
</g>
<!-- Node37&#45;&gt;Node41 -->
<g id="edge43" class="edge"><title>Node37&#45;&gt;Node41</title>
<path fill="none" stroke="midnightblue" d="M2560.61,-112.444C2538.29,-103.517 2503.1,-89.4387 2477.79,-79.3168"/>
<polygon fill="midnightblue" stroke="midnightblue" points="2478.88,-75.9807 2468.29,-75.5164 2476.28,-82.4801 2478.88,-75.9807"/>
</g>
<!-- Node42 -->
<g id="node42" class="node"><title>Node42</title>
<g id="a_node42"><a xlink:href="_ogre_memory_ned_pooling_8h.html" target="_top" xlink:title="OgreMemoryNedPooling.h">
<polygon fill="none" stroke="black" points="2572.5,-56.5 2572.5,-75.5 2703.5,-75.5 2703.5,-56.5 2572.5,-56.5"/>
<text text-anchor="middle" x="2638" y="-63.5" font-family="Helvetica,sans-Serif" font-size="10.00">OgreMemoryNedPooling.h</text>
</a>
</g>
</g>
<!-- Node37&#45;&gt;Node42 -->
<g id="edge47" class="edge"><title>Node37&#45;&gt;Node42</title>
<path fill="none" stroke="midnightblue" d="M2591,-112.324C2599.19,-104.42 2611.51,-92.5482 2621.47,-82.9377"/>
<polygon fill="midnightblue" stroke="midnightblue" points="2624.07,-85.2947 2628.84,-75.8339 2619.21,-80.2558 2624.07,-85.2947"/>
</g>
<!-- Node38&#45;&gt;Node3 -->
<g id="edge39" class="edge"><title>Node38&#45;&gt;Node3</title>
<path fill="none" stroke="midnightblue" d="M2783.78,-75.5075C2760.7,-89.8808 2711.15,-118.703 2665,-132 2536.59,-169.002 2379.01,-176.358 2293.8,-177.368"/>
<polygon fill="midnightblue" stroke="midnightblue" points="2293.74,-173.868 2283.78,-177.461 2293.81,-180.868 2293.74,-173.868"/>
</g>
<!-- Node38&#45;&gt;Node39 -->
<g id="edge40" class="edge"><title>Node38&#45;&gt;Node39</title>
<path fill="none" stroke="midnightblue" d="M2756.91,-56.4435C2712.68,-47.0036 2641.46,-31.802 2593.72,-21.6111"/>
<polygon fill="midnightblue" stroke="midnightblue" points="2594.41,-18.181 2583.9,-19.5164 2592.95,-25.0268 2594.41,-18.181"/>
</g>
<!-- Node38&#45;&gt;Node40 -->
<g id="edge41" class="edge"><title>Node38&#45;&gt;Node40</title>
<path fill="none" stroke="midnightblue" d="M2818.55,-56.4435C2841.03,-47.5171 2876.49,-33.4387 2901.98,-23.3168"/>
<polygon fill="midnightblue" stroke="midnightblue" points="2903.55,-26.4598 2911.55,-19.5164 2900.97,-19.9539 2903.55,-26.4598"/>
</g>
<!-- Node41&#45;&gt;Node3 -->
<g id="edge44" class="edge"><title>Node41&#45;&gt;Node3</title>
<path fill="none" stroke="midnightblue" d="M2430.21,-75.5914C2392.84,-94.7108 2302.59,-140.884 2257.93,-163.735"/>
<polygon fill="midnightblue" stroke="midnightblue" points="2256.18,-160.698 2248.87,-168.368 2259.37,-166.93 2256.18,-160.698"/>
</g>
<!-- Node41&#45;&gt;Node39 -->
<g id="edge45" class="edge"><title>Node41&#45;&gt;Node39</title>
<path fill="none" stroke="midnightblue" d="M2462.58,-56.324C2478,-47.7428 2501.81,-34.486 2519.71,-24.5224"/>
<polygon fill="midnightblue" stroke="midnightblue" points="2521.42,-27.5767 2528.45,-19.6545 2518.01,-21.4606 2521.42,-27.5767"/>
</g>
<!-- Node41&#45;&gt;Node40 -->
<g id="edge46" class="edge"><title>Node41&#45;&gt;Node40</title>
<path fill="none" stroke="midnightblue" d="M2515.6,-57.3776C2610.46,-46.838 2780.25,-27.9723 2871.3,-17.8553"/>
<polygon fill="midnightblue" stroke="midnightblue" points="2871.92,-21.3085 2881.47,-16.7255 2871.14,-14.3513 2871.92,-21.3085"/>
</g>
<!-- Node42&#45;&gt;Node39 -->
<g id="edge48" class="edge"><title>Node42&#45;&gt;Node39</title>
<path fill="none" stroke="midnightblue" d="M2622.9,-56.324C2608.1,-47.8215 2585.31,-34.7288 2568.02,-24.7975"/>
<polygon fill="midnightblue" stroke="midnightblue" points="2569.48,-21.6009 2559.07,-19.6545 2565.99,-27.6707 2569.48,-21.6009"/>
</g>
<!-- Node42&#45;&gt;Node40 -->
<g id="edge49" class="edge"><title>Node42&#45;&gt;Node40</title>
<path fill="none" stroke="midnightblue" d="M2684.74,-56.4435C2736.75,-46.9246 2820.75,-31.5472 2876.42,-21.3563"/>
<polygon fill="midnightblue" stroke="midnightblue" points="2877.27,-24.7599 2886.48,-19.5164 2876.01,-17.8743 2877.27,-24.7599"/>
</g>
<!-- Node43&#45;&gt;Node3 -->
<g id="edge52" class="edge"><title>Node43&#45;&gt;Node3</title>
<path fill="none" stroke="midnightblue" d="M2195.56,-392.5C2182.17,-384.742 2163.76,-372.052 2153,-356 2119.56,-306.104 2090.68,-273.978 2124,-224 2134.79,-207.811 2152.63,-197.437 2170.73,-190.793"/>
<polygon fill="midnightblue" stroke="midnightblue" points="2172.08,-194.031 2180.47,-187.56 2169.88,-187.387 2172.08,-194.031"/>
</g>
<!-- Node44 -->
<g id="node44" class="node"><title>Node44</title>
<g id="a_node44"><a xlink:href="_ogre_string_vector_8h.html" target="_top" xlink:title="OgreStringVector.h">
<polygon fill="none" stroke="black" points="2162,-336.5 2162,-355.5 2262,-355.5 2262,-336.5 2162,-336.5"/>
<text text-anchor="middle" x="2212" y="-343.5" font-family="Helvetica,sans-Serif" font-size="10.00">OgreStringVector.h</text>
</a>
</g>
</g>
<!-- Node43&#45;&gt;Node44 -->
<g id="edge53" class="edge"><title>Node43&#45;&gt;Node44</title>
<path fill="none" stroke="midnightblue" d="M2212,-392.083C2212,-385.006 2212,-374.861 2212,-365.986"/>
<polygon fill="midnightblue" stroke="midnightblue" points="2215.5,-365.751 2212,-355.751 2208.5,-365.751 2215.5,-365.751"/>
</g>
<!-- Node44&#45;&gt;Node3 -->
<g id="edge54" class="edge"><title>Node44&#45;&gt;Node3</title>
<path fill="none" stroke="midnightblue" d="M2220.26,-336.496C2228,-327.993 2239.22,-314.173 2245,-300 2257.83,-268.552 2260.36,-257.158 2253,-224 2250.88,-214.426 2246.49,-204.476 2242.28,-196.374"/>
<polygon fill="midnightblue" stroke="midnightblue" points="2245.3,-194.601 2237.38,-187.557 2239.18,-197.999 2245.3,-194.601"/>
</g>
<!-- Node45 -->
<g id="node45" class="node"><title>Node45</title>
<g id="a_node45"><a xlink:href="_ogre_shared_ptr_8h.html" target="_top" xlink:title="OgreSharedPtr.h">
<polygon fill="none" stroke="black" points="2147.5,-280.5 2147.5,-299.5 2236.5,-299.5 2236.5,-280.5 2147.5,-280.5"/>
<text text-anchor="middle" x="2192" y="-287.5" font-family="Helvetica,sans-Serif" font-size="10.00">OgreSharedPtr.h</text>
</a>
</g>
</g>
<!-- Node44&#45;&gt;Node45 -->
<g id="edge55" class="edge"><title>Node44&#45;&gt;Node45</title>
<path fill="none" stroke="midnightblue" d="M2208.7,-336.083C2206.02,-328.849 2202.15,-318.409 2198.81,-309.397"/>
<polygon fill="midnightblue" stroke="midnightblue" points="2202,-307.913 2195.24,-299.751 2195.43,-310.344 2202,-307.913"/>
</g>
<!-- Node47 -->
<g id="node47" class="node"><title>Node47</title>
<g id="a_node47"><a xlink:href="_ogre_string_8h.html" target="_top" xlink:title="OgreString.h">
<polygon fill="none" stroke="black" points="2338.5,-224.5 2338.5,-243.5 2409.5,-243.5 2409.5,-224.5 2338.5,-224.5"/>
<text text-anchor="middle" x="2374" y="-231.5" font-family="Helvetica,sans-Serif" font-size="10.00">OgreString.h</text>
</a>
</g>
</g>
<!-- Node44&#45;&gt;Node47 -->
<g id="edge59" class="edge"><title>Node44&#45;&gt;Node47</title>
<path fill="none" stroke="midnightblue" d="M2226.99,-336.419C2242.11,-327.636 2266.03,-313.41 2286,-300 2310.31,-283.681 2337.24,-263.45 2354.83,-249.934"/>
<polygon fill="midnightblue" stroke="midnightblue" points="2357.34,-252.418 2363.12,-243.534 2353.06,-246.879 2357.34,-252.418"/>
</g>
<!-- Node45&#45;&gt;Node3 -->
<g id="edge56" class="edge"><title>Node45&#45;&gt;Node3</title>
<path fill="none" stroke="midnightblue" d="M2173.11,-280.418C2150.17,-268.749 2116.25,-246.715 2131,-224 2141.41,-207.97 2159,-197.602 2176.61,-190.916"/>
<polygon fill="midnightblue" stroke="midnightblue" points="2178.03,-194.129 2186.35,-187.569 2175.75,-187.509 2178.03,-194.129"/>
</g>
<!-- Node46 -->
<g id="node46" class="node"><title>Node46</title>
<g id="a_node46"><a xlink:href="_ogre_atomic_scalar_8h.html" target="_top" xlink:title="OgreAtomicScalar.h">
<polygon fill="none" stroke="red" points="2140,-224.5 2140,-243.5 2244,-243.5 2244,-224.5 2140,-224.5"/>
<text text-anchor="middle" x="2192" y="-231.5" font-family="Helvetica,sans-Serif" font-size="10.00">OgreAtomicScalar.h</text>
</a>
</g>
</g>
<!-- Node45&#45;&gt;Node46 -->
<g id="edge57" class="edge"><title>Node45&#45;&gt;Node46</title>
<path fill="none" stroke="midnightblue" d="M2192,-280.083C2192,-273.006 2192,-262.861 2192,-253.986"/>
<polygon fill="midnightblue" stroke="midnightblue" points="2195.5,-253.751 2192,-243.751 2188.5,-253.751 2195.5,-253.751"/>
</g>
<!-- Node46&#45;&gt;Node3 -->
<g id="edge58" class="edge"><title>Node46&#45;&gt;Node3</title>
<path fill="none" stroke="midnightblue" d="M2198.61,-224.083C2204.26,-216.455 2212.54,-205.264 2219.45,-195.941"/>
<polygon fill="midnightblue" stroke="midnightblue" points="2222.38,-197.87 2225.52,-187.751 2216.75,-193.703 2222.38,-197.87"/>
</g>
<!-- Node47&#45;&gt;Node3 -->
<g id="edge60" class="edge"><title>Node47&#45;&gt;Node3</title>
<path fill="none" stroke="midnightblue" d="M2351.5,-224.444C2327.92,-215.478 2290.68,-201.314 2264.04,-191.183"/>
<polygon fill="midnightblue" stroke="midnightblue" points="2264.99,-187.8 2254.4,-187.516 2262.5,-194.342 2264.99,-187.8"/>
</g>
<!-- Node47&#45;&gt;Node39 -->
<g id="edge61" class="edge"><title>Node47&#45;&gt;Node39</title>
<path fill="none" stroke="midnightblue" d="M2369.4,-224.461C2355.14,-196.714 2315.06,-107.895 2356,-56 2371.62,-36.1977 2433.71,-24.1358 2482.31,-17.5514"/>
<polygon fill="midnightblue" stroke="midnightblue" points="2483,-20.9923 2492.46,-16.2287 2482.09,-14.051 2483,-20.9923"/>
</g>
<!-- Node47&#45;&gt;Node40 -->
<g id="edge62" class="edge"><title>Node47&#45;&gt;Node40</title>
<path fill="none" stroke="midnightblue" d="M2409.65,-225.339C2539.73,-197.229 2982.16,-100.133 3001,-76 3016.59,-56.022 2988.3,-36.381 2963.59,-24.0088"/>
<polygon fill="midnightblue" stroke="midnightblue" points="2964.93,-20.7704 2954.4,-19.6374 2961.92,-27.0922 2964.93,-20.7704"/>
</g>
<!-- Node48&#45;&gt;Node3 -->
<g id="edge64" class="edge"><title>Node48&#45;&gt;Node3</title>
<path fill="none" stroke="midnightblue" d="M2438.18,-224.444C2395.44,-215.023 2326.67,-199.866 2280.43,-189.675"/>
<polygon fill="midnightblue" stroke="midnightblue" points="2281.16,-186.251 2270.64,-187.516 2279.65,-193.087 2281.16,-186.251"/>
</g>
<!-- Node48&#45;&gt;Node39 -->
<g id="edge68" class="edge"><title>Node48&#45;&gt;Node39</title>
<path fill="none" stroke="midnightblue" d="M2464.38,-224.456C2426.99,-198.116 2322.24,-116.309 2369,-56 2383.03,-37.9075 2437.95,-25.8175 2482.57,-18.7668"/>
<polygon fill="midnightblue" stroke="midnightblue" points="2483.14,-22.2208 2492.5,-17.2532 2482.08,-15.3008 2483.14,-22.2208"/>
</g>
<!-- Node48&#45;&gt;Node40 -->
<g id="edge69" class="edge"><title>Node48&#45;&gt;Node40</title>
<path fill="none" stroke="midnightblue" d="M2526.43,-232.165C2653.86,-228.865 2988.29,-212.547 3056,-132 3077.74,-106.145 3075.35,-83.6852 3056,-56 3041.92,-35.8603 3017.81,-24.705 2994.65,-18.5377"/>
<polygon fill="midnightblue" stroke="midnightblue" points="2995.35,-15.1071 2984.81,-16.1884 2993.73,-21.9156 2995.35,-15.1071"/>
</g>
<!-- Node49 -->
<g id="node49" class="node"><title>Node49</title>
<g id="a_node49"><a xlink:href="_ogre_common_8h.html" target="_top" xlink:title="OgreCommon.h">
<polygon fill="none" stroke="black" points="2890,-56.5 2890,-75.5 2976,-75.5 2976,-56.5 2890,-56.5"/>
<text text-anchor="middle" x="2933" y="-63.5" font-family="Helvetica,sans-Serif" font-size="10.00">OgreCommon.h</text>
</a>
</g>
</g>
<!-- Node48&#45;&gt;Node49 -->
<g id="edge65" class="edge"><title>Node48&#45;&gt;Node49</title>
<path fill="none" stroke="midnightblue" d="M2500.56,-224.425C2576.16,-196.904 2812.8,-110.757 2900.17,-78.9526"/>
<polygon fill="midnightblue" stroke="midnightblue" points="2901.39,-82.2337 2909.58,-75.5241 2898.99,-75.656 2901.39,-82.2337"/>
</g>
<!-- Node49&#45;&gt;Node39 -->
<g id="edge66" class="edge"><title>Node49&#45;&gt;Node39</title>
<path fill="none" stroke="midnightblue" d="M2889.89,-57.4068C2886.88,-56.9178 2883.9,-56.4441 2881,-56 2785.13,-41.3084 2673.49,-26.9375 2605.83,-18.5283"/>
<polygon fill="midnightblue" stroke="midnightblue" points="2606.11,-15.0374 2595.76,-17.2811 2605.25,-21.9843 2606.11,-15.0374"/>
</g>
<!-- Node49&#45;&gt;Node40 -->
<g id="edge67" class="edge"><title>Node49&#45;&gt;Node40</title>
<path fill="none" stroke="midnightblue" d="M2933,-56.083C2933,-49.0059 2933,-38.8611 2933,-29.9865"/>
<polygon fill="midnightblue" stroke="midnightblue" points="2936.5,-29.751 2933,-19.7511 2929.5,-29.7511 2936.5,-29.751"/>
</g>
</g>
</svg>
