<?xml version="1.0" encoding="UTF-8" standalone="no"?>
<!DOCTYPE svg PUBLIC "-//W3C//DTD SVG 1.1//EN"
 "http://www.w3.org/Graphics/SVG/1.1/DTD/svg11.dtd">
<!-- Generated by graphviz version 2.38.0 (20140413.2041)
 -->
<!-- Title: OgreMemoryAllocatedObject.h Pages: 1 -->
<svg width="2686pt" height="252pt"
 viewBox="0.00 0.00 2685.64 252.00" xmlns="http://www.w3.org/2000/svg" xmlns:xlink="http://www.w3.org/1999/xlink">
<g id="graph0" class="graph" transform="scale(1 1) rotate(0) translate(4 248)">
<title>OgreMemoryAllocatedObject.h</title>
<!-- Node1 -->
<g id="node1" class="node"><title>Node1</title>
<polygon fill="#bfbfbf" stroke="black" points="1816.14,-224.5 1816.14,-243.5 1966.14,-243.5 1966.14,-224.5 1816.14,-224.5"/>
<text text-anchor="middle" x="1891.14" y="-231.5" font-family="Helvetica,sans-Serif" font-size="10.00">OgreMemoryAllocatedObject.h</text>
</g>
<!-- Node2 -->
<g id="node2" class="node"><title>Node2</title>
<g id="a_node2"><a xlink:href="_ogre_prerequisites_8h.html" target="_top" xlink:title="OgrePrerequisites.h">
<polygon fill="none" stroke="black" points="1559.64,-168.5 1559.64,-187.5 1662.64,-187.5 1662.64,-168.5 1559.64,-168.5"/>
<text text-anchor="middle" x="1611.14" y="-175.5" font-family="Helvetica,sans-Serif" font-size="10.00">OgrePrerequisites.h</text>
</a>
</g>
</g>
<!-- Node1&#45;&gt;Node2 -->
<g id="edge1" class="edge"><title>Node1&#45;&gt;Node2</title>
<path fill="none" stroke="midnightblue" d="M1846.77,-224.444C1797.51,-214.944 1718.01,-199.611 1665.16,-189.42"/>
<polygon fill="midnightblue" stroke="midnightblue" points="1665.78,-185.974 1655.3,-187.516 1664.45,-192.847 1665.78,-185.974"/>
</g>
<!-- Node38 -->
<g id="node38" class="node"><title>Node38</title>
<g id="a_node38"><a xlink:href="_ogre_header_prefix_8h.html" target="_top" xlink:title="OgreHeaderPrefix.h">
<polygon fill="none" stroke="black" points="2574.64,-0.5 2574.64,-19.5 2677.64,-19.5 2677.64,-0.5 2574.64,-0.5"/>
<text text-anchor="middle" x="2626.14" y="-7.5" font-family="Helvetica,sans-Serif" font-size="10.00">OgreHeaderPrefix.h</text>
</a>
</g>
</g>
<!-- Node1&#45;&gt;Node38 -->
<g id="edge48" class="edge"><title>Node1&#45;&gt;Node38</title>
<path fill="none" stroke="midnightblue" d="M1946.17,-224.491C2003.96,-215.529 2097.46,-200.948 2178.14,-188 2399.56,-152.46 2542.06,-260.093 2670.14,-76 2682,-58.9487 2664.13,-39.1583 2647.74,-25.9359"/>
<polygon fill="midnightblue" stroke="midnightblue" points="2649.55,-22.9164 2639.46,-19.6695 2645.32,-28.4968 2649.55,-22.9164"/>
</g>
<!-- Node40 -->
<g id="node40" class="node"><title>Node40</title>
<g id="a_node40"><a xlink:href="_ogre_header_suffix_8h.html" target="_top" xlink:title="OgreHeaderSuffix.h">
<polygon fill="none" stroke="black" points="2384.64,-0.5 2384.64,-19.5 2487.64,-19.5 2487.64,-0.5 2384.64,-0.5"/>
<text text-anchor="middle" x="2436.14" y="-7.5" font-family="Helvetica,sans-Serif" font-size="10.00">OgreHeaderSuffix.h</text>
</a>
</g>
</g>
<!-- Node1&#45;&gt;Node40 -->
<g id="edge49" class="edge"><title>Node1&#45;&gt;Node40</title>
<path fill="none" stroke="midnightblue" d="M1816.09,-231.765C1450.41,-225.097 -122.04,-188.611 8.13593,-56 50.8489,-12.4881 2000.06,-10.8704 2374.35,-10.9613"/>
<polygon fill="midnightblue" stroke="midnightblue" points="2374.44,-14.4613 2384.44,-10.9643 2374.45,-7.46127 2374.44,-14.4613"/>
</g>
<!-- Node3 -->
<g id="node3" class="node"><title>Node3</title>
<g id="a_node3"><a xlink:href="_ogre_platform_8h.html" target="_top" xlink:title="OgrePlatform.h">
<polygon fill="none" stroke="black" points="303.636,-112.5 303.636,-131.5 386.636,-131.5 386.636,-112.5 303.636,-112.5"/>
<text text-anchor="middle" x="345.136" y="-119.5" font-family="Helvetica,sans-Serif" font-size="10.00">OgrePlatform.h</text>
</a>
</g>
</g>
<!-- Node2&#45;&gt;Node3 -->
<g id="edge2" class="edge"><title>Node2&#45;&gt;Node3</title>
<path fill="none" stroke="midnightblue" d="M1559.54,-174.799C1355.02,-166.076 602.41,-133.974 397.145,-125.218"/>
<polygon fill="midnightblue" stroke="midnightblue" points="397.08,-121.713 386.94,-124.783 396.782,-128.706 397.08,-121.713"/>
</g>
<!-- Node6 -->
<g id="node6" class="node"><title>Node6</title>
<polygon fill="none" stroke="#bfbfbf" points="109.636,-56.5 109.636,-75.5 150.636,-75.5 150.636,-56.5 109.636,-56.5"/>
<text text-anchor="middle" x="130.136" y="-63.5" font-family="Helvetica,sans-Serif" font-size="10.00">string</text>
</g>
<!-- Node2&#45;&gt;Node6 -->
<g id="edge5" class="edge"><title>Node2&#45;&gt;Node6</title>
<path fill="none" stroke="midnightblue" d="M1559.59,-174.948C1337.11,-165.86 457.498,-127.472 160.537,-75.5808"/>
<polygon fill="midnightblue" stroke="midnightblue" points="161.107,-72.1271 150.646,-73.8075 159.871,-79.0173 161.107,-72.1271"/>
</g>
<!-- Node7 -->
<g id="node7" class="node"><title>Node7</title>
<g id="a_node7"><a xlink:href="_ogre_std_headers_8h.html" target="_top" xlink:title="OgreStdHeaders.h">
<polygon fill="none" stroke="black" points="1298.14,-112.5 1298.14,-131.5 1396.14,-131.5 1396.14,-112.5 1298.14,-112.5"/>
<text text-anchor="middle" x="1347.14" y="-119.5" font-family="Helvetica,sans-Serif" font-size="10.00">OgreStdHeaders.h</text>
</a>
</g>
</g>
<!-- Node2&#45;&gt;Node7 -->
<g id="edge6" class="edge"><title>Node2&#45;&gt;Node7</title>
<path fill="none" stroke="midnightblue" d="M1569.3,-168.444C1523.06,-158.984 1448.52,-143.738 1398.7,-133.547"/>
<polygon fill="midnightblue" stroke="midnightblue" points="1399.27,-130.091 1388.77,-131.516 1397.87,-136.949 1399.27,-130.091"/>
</g>
<!-- Node37 -->
<g id="node37" class="node"><title>Node37</title>
<g id="a_node37"><a xlink:href="_ogre_memory_allocator_config_8h.html" target="_top" xlink:title="This file configures Ogre&#39;s memory allocators. ">
<polygon fill="none" stroke="black" points="2362.14,-112.5 2362.14,-131.5 2510.14,-131.5 2510.14,-112.5 2362.14,-112.5"/>
<text text-anchor="middle" x="2436.14" y="-119.5" font-family="Helvetica,sans-Serif" font-size="10.00">OgreMemoryAllocatorConfig.h</text>
</a>
</g>
</g>
<!-- Node2&#45;&gt;Node37 -->
<g id="edge37" class="edge"><title>Node2&#45;&gt;Node37</title>
<path fill="none" stroke="midnightblue" d="M1662.74,-173.622C1801.11,-164.565 2181.37,-139.676 2351.7,-128.527"/>
<polygon fill="midnightblue" stroke="midnightblue" points="2352.12,-132.007 2361.87,-127.861 2351.66,-125.022 2352.12,-132.007"/>
</g>
<!-- Node4 -->
<g id="node4" class="node"><title>Node4</title>
<g id="a_node4"><a xlink:href="_ogre_config_8h.html" target="_top" xlink:title="OgreConfig.h">
<polygon fill="none" stroke="black" points="17.1359,-56.5 17.1359,-75.5 91.1359,-75.5 91.1359,-56.5 17.1359,-56.5"/>
<text text-anchor="middle" x="54.1359" y="-63.5" font-family="Helvetica,sans-Serif" font-size="10.00">OgreConfig.h</text>
</a>
</g>
</g>
<!-- Node3&#45;&gt;Node4 -->
<g id="edge3" class="edge"><title>Node3&#45;&gt;Node4</title>
<path fill="none" stroke="midnightblue" d="M303.493,-113.503C256.724,-105.049 178.285,-90.77 101.171,-76.18"/>
<polygon fill="midnightblue" stroke="midnightblue" points="101.763,-72.73 91.2859,-74.3067 100.459,-79.6076 101.763,-72.73"/>
</g>
<!-- Node5 -->
<g id="node5" class="node"><title>Node5</title>
<polygon fill="none" stroke="#bfbfbf" points="2.13593,-0.5 2.13593,-19.5 106.136,-19.5 106.136,-0.5 2.13593,-0.5"/>
<text text-anchor="middle" x="54.1359" y="-7.5" font-family="Helvetica,sans-Serif" font-size="10.00">OgreBuildSettings.h</text>
</g>
<!-- Node4&#45;&gt;Node5 -->
<g id="edge4" class="edge"><title>Node4&#45;&gt;Node5</title>
<path fill="none" stroke="midnightblue" d="M54.1359,-56.083C54.1359,-49.0059 54.1359,-38.8611 54.1359,-29.9865"/>
<polygon fill="midnightblue" stroke="midnightblue" points="57.636,-29.751 54.1359,-19.7511 50.636,-29.7511 57.636,-29.751"/>
</g>
<!-- Node7&#45;&gt;Node6 -->
<g id="edge16" class="edge"><title>Node7&#45;&gt;Node6</title>
<path fill="none" stroke="midnightblue" d="M1298.08,-119.488C1089.08,-113.002 278.641,-87.4015 161.178,-75.2863"/>
<polygon fill="midnightblue" stroke="midnightblue" points="161.32,-71.7762 150.957,-73.9824 160.434,-78.7199 161.32,-71.7762"/>
</g>
<!-- Node8 -->
<g id="node8" class="node"><title>Node8</title>
<polygon fill="none" stroke="#bfbfbf" points="771.636,-56.5 771.636,-75.5 820.636,-75.5 820.636,-56.5 771.636,-56.5"/>
<text text-anchor="middle" x="796.136" y="-63.5" font-family="Helvetica,sans-Serif" font-size="10.00">cassert</text>
</g>
<!-- Node7&#45;&gt;Node8 -->
<g id="edge7" class="edge"><title>Node7&#45;&gt;Node8</title>
<path fill="none" stroke="midnightblue" d="M1297.83,-119.661C1207,-116.557 1007.14,-106.757 830.865,-76.0299"/>
<polygon fill="midnightblue" stroke="midnightblue" points="831.351,-72.5616 820.893,-74.2646 830.13,-79.4544 831.351,-72.5616"/>
</g>
<!-- Node9 -->
<g id="node9" class="node"><title>Node9</title>
<polygon fill="none" stroke="#bfbfbf" points="838.636,-56.5 838.636,-75.5 881.636,-75.5 881.636,-56.5 838.636,-56.5"/>
<text text-anchor="middle" x="860.136" y="-63.5" font-family="Helvetica,sans-Serif" font-size="10.00">cstdio</text>
</g>
<!-- Node7&#45;&gt;Node9 -->
<g id="edge8" class="edge"><title>Node7&#45;&gt;Node9</title>
<path fill="none" stroke="midnightblue" d="M1297.99,-119.274C1215.58,-115.704 1044.35,-105.392 891.67,-75.9605"/>
<polygon fill="midnightblue" stroke="midnightblue" points="892.127,-72.4837 881.641,-73.9941 890.78,-79.3529 892.127,-72.4837"/>
</g>
<!-- Node10 -->
<g id="node10" class="node"><title>Node10</title>
<polygon fill="none" stroke="#bfbfbf" points="899.636,-56.5 899.636,-75.5 944.636,-75.5 944.636,-56.5 899.636,-56.5"/>
<text text-anchor="middle" x="922.136" y="-63.5" font-family="Helvetica,sans-Serif" font-size="10.00">cstdlib</text>
</g>
<!-- Node7&#45;&gt;Node10 -->
<g id="edge9" class="edge"><title>Node7&#45;&gt;Node10</title>
<path fill="none" stroke="midnightblue" d="M1297.89,-118.055C1224.8,-113.099 1083.24,-101.253 954.729,-76.0313"/>
<polygon fill="midnightblue" stroke="midnightblue" points="955.205,-72.5573 944.713,-74.0327 953.835,-79.4219 955.205,-72.5573"/>
</g>
<!-- Node11 -->
<g id="node11" class="node"><title>Node11</title>
<polygon fill="none" stroke="#bfbfbf" points="962.636,-56.5 962.636,-75.5 1003.64,-75.5 1003.64,-56.5 962.636,-56.5"/>
<text text-anchor="middle" x="983.136" y="-63.5" font-family="Helvetica,sans-Serif" font-size="10.00">ctime</text>
</g>
<!-- Node7&#45;&gt;Node11 -->
<g id="edge10" class="edge"><title>Node7&#45;&gt;Node11</title>
<path fill="none" stroke="midnightblue" d="M1298.04,-116.827C1234.53,-110.891 1120.4,-98.4004 1013.66,-75.7772"/>
<polygon fill="midnightblue" stroke="midnightblue" points="1014.19,-72.3131 1003.68,-73.6286 1012.72,-79.1561 1014.19,-72.3131"/>
</g>
<!-- Node12 -->
<g id="node12" class="node"><title>Node12</title>
<polygon fill="none" stroke="#bfbfbf" points="1022.14,-56.5 1022.14,-75.5 1068.14,-75.5 1068.14,-56.5 1022.14,-56.5"/>
<text text-anchor="middle" x="1045.14" y="-63.5" font-family="Helvetica,sans-Serif" font-size="10.00">cstring</text>
</g>
<!-- Node7&#45;&gt;Node12 -->
<g id="edge11" class="edge"><title>Node7&#45;&gt;Node12</title>
<path fill="none" stroke="midnightblue" d="M1298.05,-114.461C1245.83,-107.138 1160.64,-94.1506 1078.48,-76.1081"/>
<polygon fill="midnightblue" stroke="midnightblue" points="1079,-72.6381 1068.48,-73.8828 1077.48,-79.471 1079,-72.6381"/>
</g>
<!-- Node13 -->
<g id="node13" class="node"><title>Node13</title>
<polygon fill="none" stroke="#bfbfbf" points="1086.64,-56.5 1086.64,-75.5 1135.64,-75.5 1135.64,-56.5 1086.64,-56.5"/>
<text text-anchor="middle" x="1111.14" y="-63.5" font-family="Helvetica,sans-Serif" font-size="10.00">cstdarg</text>
</g>
<!-- Node7&#45;&gt;Node13 -->
<g id="edge12" class="edge"><title>Node7&#45;&gt;Node13</title>
<path fill="none" stroke="midnightblue" d="M1306.4,-112.421C1267.6,-104.139 1207.32,-90.9865 1145.86,-76.1033"/>
<polygon fill="midnightblue" stroke="midnightblue" points="1146.53,-72.6649 1135.99,-73.7003 1144.88,-79.4662 1146.53,-72.6649"/>
</g>
<!-- Node14 -->
<g id="node14" class="node"><title>Node14</title>
<polygon fill="none" stroke="#bfbfbf" points="1154.14,-56.5 1154.14,-75.5 1198.14,-75.5 1198.14,-56.5 1154.14,-56.5"/>
<text text-anchor="middle" x="1176.14" y="-63.5" font-family="Helvetica,sans-Serif" font-size="10.00">cmath</text>
</g>
<!-- Node7&#45;&gt;Node14 -->
<g id="edge13" class="edge"><title>Node7&#45;&gt;Node14</title>
<path fill="none" stroke="midnightblue" d="M1320.04,-112.444C1289.62,-102.837 1240.3,-87.2622 1208.04,-77.0749"/>
<polygon fill="midnightblue" stroke="midnightblue" points="1208.8,-73.6448 1198.21,-73.971 1206.69,-80.3199 1208.8,-73.6448"/>
</g>
<!-- Node15 -->
<g id="node15" class="node"><title>Node15</title>
<polygon fill="none" stroke="#bfbfbf" points="1216.14,-56.5 1216.14,-75.5 1260.14,-75.5 1260.14,-56.5 1216.14,-56.5"/>
<text text-anchor="middle" x="1238.14" y="-63.5" font-family="Helvetica,sans-Serif" font-size="10.00">vector</text>
</g>
<!-- Node7&#45;&gt;Node15 -->
<g id="edge14" class="edge"><title>Node7&#45;&gt;Node15</title>
<path fill="none" stroke="midnightblue" d="M1329.62,-112.324C1312.06,-103.625 1284.8,-90.1202 1264.6,-80.113"/>
<polygon fill="midnightblue" stroke="midnightblue" points="1266.12,-76.9575 1255.61,-75.6545 1263.01,-83.23 1266.12,-76.9575"/>
</g>
<!-- Node16 -->
<g id="node16" class="node"><title>Node16</title>
<polygon fill="none" stroke="#bfbfbf" points="1278.64,-56.5 1278.64,-75.5 1313.64,-75.5 1313.64,-56.5 1278.64,-56.5"/>
<text text-anchor="middle" x="1296.14" y="-63.5" font-family="Helvetica,sans-Serif" font-size="10.00">map</text>
</g>
<!-- Node7&#45;&gt;Node16 -->
<g id="edge15" class="edge"><title>Node7&#45;&gt;Node16</title>
<path fill="none" stroke="midnightblue" d="M1338.71,-112.083C1331.29,-104.22 1320.28,-92.5688 1311.32,-83.0813"/>
<polygon fill="midnightblue" stroke="midnightblue" points="1313.81,-80.618 1304.4,-75.7511 1308.72,-85.4244 1313.81,-80.618"/>
</g>
<!-- Node17 -->
<g id="node17" class="node"><title>Node17</title>
<polygon fill="none" stroke="#bfbfbf" points="1332.14,-56.5 1332.14,-75.5 1362.14,-75.5 1362.14,-56.5 1332.14,-56.5"/>
<text text-anchor="middle" x="1347.14" y="-63.5" font-family="Helvetica,sans-Serif" font-size="10.00">set</text>
</g>
<!-- Node7&#45;&gt;Node17 -->
<g id="edge17" class="edge"><title>Node7&#45;&gt;Node17</title>
<path fill="none" stroke="midnightblue" d="M1347.14,-112.083C1347.14,-105.006 1347.14,-94.8611 1347.14,-85.9865"/>
<polygon fill="midnightblue" stroke="midnightblue" points="1350.64,-85.751 1347.14,-75.7511 1343.64,-85.7511 1350.64,-85.751"/>
</g>
<!-- Node18 -->
<g id="node18" class="node"><title>Node18</title>
<polygon fill="none" stroke="#bfbfbf" points="1380.64,-56.5 1380.64,-75.5 1409.64,-75.5 1409.64,-56.5 1380.64,-56.5"/>
<text text-anchor="middle" x="1395.14" y="-63.5" font-family="Helvetica,sans-Serif" font-size="10.00">list</text>
</g>
<!-- Node7&#45;&gt;Node18 -->
<g id="edge18" class="edge"><title>Node7&#45;&gt;Node18</title>
<path fill="none" stroke="midnightblue" d="M1355.06,-112.083C1361.98,-104.298 1372.2,-92.8015 1380.59,-83.3665"/>
<polygon fill="midnightblue" stroke="midnightblue" points="1383.33,-85.5505 1387.36,-75.7511 1378.1,-80.8999 1383.33,-85.5505"/>
</g>
<!-- Node19 -->
<g id="node19" class="node"><title>Node19</title>
<polygon fill="none" stroke="#bfbfbf" points="1427.64,-56.5 1427.64,-75.5 1470.64,-75.5 1470.64,-56.5 1427.64,-56.5"/>
<text text-anchor="middle" x="1449.14" y="-63.5" font-family="Helvetica,sans-Serif" font-size="10.00">deque</text>
</g>
<!-- Node7&#45;&gt;Node19 -->
<g id="edge19" class="edge"><title>Node7&#45;&gt;Node19</title>
<path fill="none" stroke="midnightblue" d="M1363.52,-112.324C1379.81,-103.703 1405,-90.3643 1423.85,-80.3855"/>
<polygon fill="midnightblue" stroke="midnightblue" points="1425.59,-83.4267 1432.79,-75.6545 1422.31,-77.2402 1425.59,-83.4267"/>
</g>
<!-- Node20 -->
<g id="node20" class="node"><title>Node20</title>
<polygon fill="none" stroke="#bfbfbf" points="1488.64,-56.5 1488.64,-75.5 1531.64,-75.5 1531.64,-56.5 1488.64,-56.5"/>
<text text-anchor="middle" x="1510.14" y="-63.5" font-family="Helvetica,sans-Serif" font-size="10.00">queue</text>
</g>
<!-- Node7&#45;&gt;Node20 -->
<g id="edge20" class="edge"><title>Node7&#45;&gt;Node20</title>
<path fill="none" stroke="midnightblue" d="M1372.96,-112.444C1401.68,-102.932 1448.05,-87.5697 1478.81,-77.3787"/>
<polygon fill="midnightblue" stroke="midnightblue" points="1480.2,-80.6041 1488.59,-74.1368 1478,-73.9593 1480.2,-80.6041"/>
</g>
<!-- Node21 -->
<g id="node21" class="node"><title>Node21</title>
<polygon fill="none" stroke="#bfbfbf" points="1549.64,-56.5 1549.64,-75.5 1590.64,-75.5 1590.64,-56.5 1549.64,-56.5"/>
<text text-anchor="middle" x="1570.14" y="-63.5" font-family="Helvetica,sans-Serif" font-size="10.00">bitset</text>
</g>
<!-- Node7&#45;&gt;Node21 -->
<g id="edge21" class="edge"><title>Node7&#45;&gt;Node21</title>
<path fill="none" stroke="midnightblue" d="M1386.87,-112.497C1423.95,-104.391 1481.02,-91.485 1539.71,-75.9802"/>
<polygon fill="midnightblue" stroke="midnightblue" points="1540.76,-79.3223 1549.53,-73.3669 1538.96,-72.558 1540.76,-79.3223"/>
</g>
<!-- Node22 -->
<g id="node22" class="node"><title>Node22</title>
<polygon fill="none" stroke="#bfbfbf" points="1609.14,-56.5 1609.14,-75.5 1665.14,-75.5 1665.14,-56.5 1609.14,-56.5"/>
<text text-anchor="middle" x="1637.14" y="-63.5" font-family="Helvetica,sans-Serif" font-size="10.00">algorithm</text>
</g>
<!-- Node7&#45;&gt;Node22 -->
<g id="edge22" class="edge"><title>Node7&#45;&gt;Node22</title>
<path fill="none" stroke="midnightblue" d="M1396.55,-113.015C1447.47,-104.59 1529.08,-90.5399 1599.14,-76 1599.24,-75.9793 1599.34,-75.9586 1599.44,-75.9378"/>
<polygon fill="midnightblue" stroke="midnightblue" points="1599.93,-79.4123 1608.95,-73.8598 1598.44,-72.5734 1599.93,-79.4123"/>
</g>
<!-- Node23 -->
<g id="node23" class="node"><title>Node23</title>
<polygon fill="none" stroke="#bfbfbf" points="1683.64,-56.5 1683.64,-75.5 1742.64,-75.5 1742.64,-56.5 1683.64,-56.5"/>
<text text-anchor="middle" x="1713.14" y="-63.5" font-family="Helvetica,sans-Serif" font-size="10.00">functional</text>
</g>
<!-- Node7&#45;&gt;Node23 -->
<g id="edge23" class="edge"><title>Node7&#45;&gt;Node23</title>
<path fill="none" stroke="midnightblue" d="M1396.38,-115.624C1458.57,-108.525 1569.03,-94.8865 1673.31,-76.0006"/>
<polygon fill="midnightblue" stroke="midnightblue" points="1674.18,-79.4006 1683.38,-74.1566 1672.92,-72.5151 1674.18,-79.4006"/>
</g>
<!-- Node24 -->
<g id="node24" class="node"><title>Node24</title>
<polygon fill="none" stroke="#bfbfbf" points="1761.14,-56.5 1761.14,-75.5 1801.14,-75.5 1801.14,-56.5 1761.14,-56.5"/>
<text text-anchor="middle" x="1781.14" y="-63.5" font-family="Helvetica,sans-Serif" font-size="10.00">limits</text>
</g>
<!-- Node7&#45;&gt;Node24 -->
<g id="edge24" class="edge"><title>Node7&#45;&gt;Node24</title>
<path fill="none" stroke="midnightblue" d="M1396.4,-118.386C1472.94,-113.682 1624.77,-101.773 1751.14,-76 1751.24,-75.9796 1751.34,-75.9591 1751.44,-75.9383"/>
<polygon fill="midnightblue" stroke="midnightblue" points="1752.06,-79.3905 1760.93,-73.602 1750.38,-72.5933 1752.06,-79.3905"/>
</g>
<!-- Node25 -->
<g id="node25" class="node"><title>Node25</title>
<polygon fill="none" stroke="#bfbfbf" points="1819.14,-56.5 1819.14,-75.5 1869.14,-75.5 1869.14,-56.5 1819.14,-56.5"/>
<text text-anchor="middle" x="1844.14" y="-63.5" font-family="Helvetica,sans-Serif" font-size="10.00">fstream</text>
</g>
<!-- Node7&#45;&gt;Node25 -->
<g id="edge25" class="edge"><title>Node7&#45;&gt;Node25</title>
<path fill="none" stroke="midnightblue" d="M1396.15,-118.847C1479.23,-114.63 1653.02,-103.356 1808.76,-75.9699"/>
<polygon fill="midnightblue" stroke="midnightblue" points="1809.76,-79.3465 1818.99,-74.1426 1808.53,-72.4555 1809.76,-79.3465"/>
</g>
<!-- Node26 -->
<g id="node26" class="node"><title>Node26</title>
<polygon fill="none" stroke="#bfbfbf" points="1887.64,-56.5 1887.64,-75.5 1932.64,-75.5 1932.64,-56.5 1887.64,-56.5"/>
<text text-anchor="middle" x="1910.14" y="-63.5" font-family="Helvetica,sans-Serif" font-size="10.00">iosfwd</text>
</g>
<!-- Node7&#45;&gt;Node26 -->
<g id="edge26" class="edge"><title>Node7&#45;&gt;Node26</title>
<path fill="none" stroke="midnightblue" d="M1396.23,-119.942C1488.7,-117.28 1695.04,-108.151 1877.49,-75.7418"/>
<polygon fill="midnightblue" stroke="midnightblue" points="1878.31,-79.1493 1887.53,-73.9291 1877.07,-72.2606 1878.31,-79.1493"/>
</g>
<!-- Node27 -->
<g id="node27" class="node"><title>Node27</title>
<polygon fill="none" stroke="#bfbfbf" points="1951.14,-56.5 1951.14,-75.5 2003.14,-75.5 2003.14,-56.5 1951.14,-56.5"/>
<text text-anchor="middle" x="1977.14" y="-63.5" font-family="Helvetica,sans-Serif" font-size="10.00">sstream</text>
</g>
<!-- Node7&#45;&gt;Node27 -->
<g id="edge27" class="edge"><title>Node7&#45;&gt;Node27</title>
<path fill="none" stroke="midnightblue" d="M1396.36,-120.084C1496.88,-117.608 1733,-108.689 1940.71,-75.7435"/>
<polygon fill="midnightblue" stroke="midnightblue" points="1941.58,-79.1495 1950.9,-74.1054 1940.47,-72.2384 1941.58,-79.1495"/>
</g>
<!-- Node28 -->
<g id="node28" class="node"><title>Node28</title>
<polygon fill="none" stroke="#bfbfbf" points="2021.14,-56.5 2021.14,-75.5 2089.14,-75.5 2089.14,-56.5 2021.14,-56.5"/>
<text text-anchor="middle" x="2055.14" y="-63.5" font-family="Helvetica,sans-Serif" font-size="10.00">sys/types.h</text>
</g>
<!-- Node7&#45;&gt;Node28 -->
<g id="edge28" class="edge"><title>Node7&#45;&gt;Node28</title>
<path fill="none" stroke="midnightblue" d="M1396.18,-120.007C1505.08,-117.303 1775.36,-107.828 2010.82,-75.9891"/>
<polygon fill="midnightblue" stroke="midnightblue" points="2011.51,-79.4272 2020.94,-74.6032 2010.56,-72.4919 2011.51,-79.4272"/>
</g>
<!-- Node29 -->
<g id="node29" class="node"><title>Node29</title>
<polygon fill="none" stroke="#bfbfbf" points="2107.14,-56.5 2107.14,-75.5 2167.14,-75.5 2167.14,-56.5 2107.14,-56.5"/>
<text text-anchor="middle" x="2137.14" y="-63.5" font-family="Helvetica,sans-Serif" font-size="10.00">sys/stat.h</text>
</g>
<!-- Node7&#45;&gt;Node29 -->
<g id="edge29" class="edge"><title>Node7&#45;&gt;Node29</title>
<path fill="none" stroke="midnightblue" d="M1396.19,-120.885C1514.99,-120.003 1827.62,-114.066 2097.03,-75.9083"/>
<polygon fill="midnightblue" stroke="midnightblue" points="2097.59,-79.3631 2107,-74.4789 2096.6,-72.434 2097.59,-79.3631"/>
</g>
<!-- Node30 -->
<g id="node30" class="node"><title>Node30</title>
<polygon fill="none" stroke="#bfbfbf" points="2185.64,-56.5 2185.64,-75.5 2236.64,-75.5 2236.64,-56.5 2185.64,-56.5"/>
<text text-anchor="middle" x="2211.14" y="-63.5" font-family="Helvetica,sans-Serif" font-size="10.00">unistd.h</text>
</g>
<!-- Node7&#45;&gt;Node30 -->
<g id="edge30" class="edge"><title>Node7&#45;&gt;Node30</title>
<path fill="none" stroke="midnightblue" d="M1396.54,-121.702C1524.13,-122.794 1875.04,-121.221 2175.06,-75.8246"/>
<polygon fill="midnightblue" stroke="midnightblue" points="2175.91,-79.2355 2185.26,-74.2607 2174.85,-72.3163 2175.91,-79.2355"/>
</g>
<!-- Node31 -->
<g id="node31" class="node"><title>Node31</title>
<polygon fill="none" stroke="#bfbfbf" points="2255.14,-56.5 2255.14,-75.5 2301.14,-75.5 2301.14,-56.5 2255.14,-56.5"/>
<text text-anchor="middle" x="2278.14" y="-63.5" font-family="Helvetica,sans-Serif" font-size="10.00">dlfcn.h</text>
</g>
<!-- Node7&#45;&gt;Node31 -->
<g id="edge31" class="edge"><title>Node7&#45;&gt;Node31</title>
<path fill="none" stroke="midnightblue" d="M1396.39,-119.934C1556.25,-116.259 2060.34,-102.922 2244.73,-75.5894"/>
<polygon fill="midnightblue" stroke="midnightblue" points="2245.49,-79.013 2254.84,-74.0242 2244.42,-72.0954 2245.49,-79.013"/>
</g>
<!-- Node32 -->
<g id="node32" class="node"><title>Node32</title>
<polygon fill="none" stroke="#bfbfbf" points="169.136,-56.5 169.136,-75.5 247.136,-75.5 247.136,-56.5 169.136,-56.5"/>
<text text-anchor="middle" x="208.136" y="-63.5" font-family="Helvetica,sans-Serif" font-size="10.00">ext/hash_map</text>
</g>
<!-- Node7&#45;&gt;Node32 -->
<g id="edge32" class="edge"><title>Node7&#45;&gt;Node32</title>
<path fill="none" stroke="midnightblue" d="M1298.04,-119.393C1104.57,-113.003 398.916,-89.1577 257.579,-75.8852"/>
<polygon fill="midnightblue" stroke="midnightblue" points="257.665,-72.3757 247.359,-74.8307 256.947,-79.3387 257.665,-72.3757"/>
</g>
<!-- Node33 -->
<g id="node33" class="node"><title>Node33</title>
<polygon fill="none" stroke="#bfbfbf" points="265.636,-56.5 265.636,-75.5 338.636,-75.5 338.636,-56.5 265.636,-56.5"/>
<text text-anchor="middle" x="302.136" y="-63.5" font-family="Helvetica,sans-Serif" font-size="10.00">ext/hash_set</text>
</g>
<!-- Node7&#45;&gt;Node33 -->
<g id="edge33" class="edge"><title>Node7&#45;&gt;Node33</title>
<path fill="none" stroke="midnightblue" d="M1297.92,-119.78C1126.26,-115.372 553.86,-99.3515 348.958,-76.0153"/>
<polygon fill="midnightblue" stroke="midnightblue" points="349.241,-72.5243 338.899,-74.8271 348.419,-79.476 349.241,-72.5243"/>
</g>
<!-- Node34 -->
<g id="node34" class="node"><title>Node34</title>
<polygon fill="none" stroke="#bfbfbf" points="356.636,-56.5 356.636,-75.5 427.636,-75.5 427.636,-56.5 356.636,-56.5"/>
<text text-anchor="middle" x="392.136" y="-63.5" font-family="Helvetica,sans-Serif" font-size="10.00">sys/param.h</text>
</g>
<!-- Node7&#45;&gt;Node34 -->
<g id="edge34" class="edge"><title>Node7&#45;&gt;Node34</title>
<path fill="none" stroke="midnightblue" d="M1297.86,-119.526C1136.63,-114.556 624.931,-97.5718 437.909,-75.8566"/>
<polygon fill="midnightblue" stroke="midnightblue" points="438.266,-72.3745 427.919,-74.6532 437.429,-79.3242 438.266,-72.3745"/>
</g>
<!-- Node35 -->
<g id="node35" class="node"><title>Node35</title>
<polygon fill="none" stroke="#bfbfbf" points="446.136,-56.5 446.136,-75.5 612.136,-75.5 612.136,-56.5 446.136,-56.5"/>
<text text-anchor="middle" x="529.136" y="-63.5" font-family="Helvetica,sans-Serif" font-size="10.00">CoreFoundation/CoreFoundation.h</text>
</g>
<!-- Node7&#45;&gt;Node35 -->
<g id="edge35" class="edge"><title>Node7&#45;&gt;Node35</title>
<path fill="none" stroke="midnightblue" d="M1297.8,-118.549C1181.92,-112.663 883.133,-96.7235 622.407,-76.0752"/>
<polygon fill="midnightblue" stroke="midnightblue" points="622.615,-72.5808 612.369,-75.2764 622.06,-79.5587 622.615,-72.5808"/>
</g>
<!-- Node36 -->
<g id="node36" class="node"><title>Node36</title>
<polygon fill="none" stroke="#bfbfbf" points="630.136,-56.5 630.136,-75.5 754.136,-75.5 754.136,-56.5 630.136,-56.5"/>
<text text-anchor="middle" x="692.136" y="-63.5" font-family="Helvetica,sans-Serif" font-size="10.00">emscripten/emscripten.h</text>
</g>
<!-- Node7&#45;&gt;Node36 -->
<g id="edge36" class="edge"><title>Node7&#45;&gt;Node36</title>
<path fill="none" stroke="midnightblue" d="M1297.75,-118.056C1198.56,-111.958 967.828,-96.8384 764.306,-76.1831"/>
<polygon fill="midnightblue" stroke="midnightblue" points="764.633,-72.6984 754.329,-75.1638 763.922,-79.6622 764.633,-72.6984"/>
</g>
<!-- Node37&#45;&gt;Node1 -->
<g id="edge38" class="edge"><title>Node37&#45;&gt;Node1</title>
<path fill="none" stroke="midnightblue" d="M2393.85,-131.535C2295.39,-151.407 2051.03,-200.728 1943.42,-222.446"/>
<polygon fill="midnightblue" stroke="midnightblue" points="1942.56,-219.051 1933.45,-224.46 1943.94,-225.912 1942.56,-219.051"/>
</g>
<!-- Node37&#45;&gt;Node38 -->
<g id="edge39" class="edge"><title>Node37&#45;&gt;Node38</title>
<path fill="none" stroke="midnightblue" d="M2510.15,-115.569C2566.03,-109.747 2636.07,-98.1714 2654.14,-76 2665.94,-61.5068 2653.83,-41.2827 2642.05,-27.2584"/>
<polygon fill="midnightblue" stroke="midnightblue" points="2644.64,-24.8965 2635.34,-19.8077 2639.43,-29.5808 2644.64,-24.8965"/>
</g>
<!-- Node39 -->
<g id="node39" class="node"><title>Node39</title>
<g id="a_node39"><a xlink:href="_ogre_memory_s_t_l_allocator_8h.html" target="_top" xlink:title="OgreMemorySTLAllocator.h">
<polygon fill="none" stroke="black" points="2319.64,-56.5 2319.64,-75.5 2456.64,-75.5 2456.64,-56.5 2319.64,-56.5"/>
<text text-anchor="middle" x="2388.14" y="-63.5" font-family="Helvetica,sans-Serif" font-size="10.00">OgreMemorySTLAllocator.h</text>
</a>
</g>
</g>
<!-- Node37&#45;&gt;Node39 -->
<g id="edge40" class="edge"><title>Node37&#45;&gt;Node39</title>
<path fill="none" stroke="midnightblue" d="M2428.21,-112.083C2421.29,-104.298 2411.07,-92.8015 2402.68,-83.3665"/>
<polygon fill="midnightblue" stroke="midnightblue" points="2405.17,-80.8999 2395.91,-75.7511 2399.94,-85.5505 2405.17,-80.8999"/>
</g>
<!-- Node37&#45;&gt;Node40 -->
<g id="edge47" class="edge"><title>Node37&#45;&gt;Node40</title>
<path fill="none" stroke="midnightblue" d="M2444.3,-112.451C2454.9,-100.283 2471.35,-77.1004 2465.14,-56 2462.12,-45.7645 2455.98,-35.6599 2450.12,-27.627"/>
<polygon fill="midnightblue" stroke="midnightblue" points="2452.72,-25.2694 2443.81,-19.5413 2447.2,-29.5773 2452.72,-25.2694"/>
</g>
<!-- Node41 -->
<g id="node41" class="node"><title>Node41</title>
<g id="a_node41"><a xlink:href="_ogre_memory_ned_pooling_8h.html" target="_top" xlink:title="OgreMemoryNedPooling.h">
<polygon fill="none" stroke="black" points="2513.64,-56.5 2513.64,-75.5 2644.64,-75.5 2644.64,-56.5 2513.64,-56.5"/>
<text text-anchor="middle" x="2579.14" y="-63.5" font-family="Helvetica,sans-Serif" font-size="10.00">OgreMemoryNedPooling.h</text>
</a>
</g>
</g>
<!-- Node37&#45;&gt;Node41 -->
<g id="edge44" class="edge"><title>Node37&#45;&gt;Node41</title>
<path fill="none" stroke="midnightblue" d="M2458.79,-112.444C2482.54,-103.478 2520.05,-89.314 2546.87,-79.1827"/>
<polygon fill="midnightblue" stroke="midnightblue" points="2548.46,-82.3235 2556.58,-75.5164 2545.99,-75.7749 2548.46,-82.3235"/>
</g>
<!-- Node39&#45;&gt;Node2 -->
<g id="edge41" class="edge"><title>Node39&#45;&gt;Node2</title>
<path fill="none" stroke="midnightblue" d="M2327.89,-75.5286C2183.48,-95.9738 1818.73,-147.611 1672.84,-168.265"/>
<polygon fill="midnightblue" stroke="midnightblue" points="1672.13,-164.83 1662.72,-169.697 1673.11,-171.761 1672.13,-164.83"/>
</g>
<!-- Node39&#45;&gt;Node38 -->
<g id="edge42" class="edge"><title>Node39&#45;&gt;Node38</title>
<path fill="none" stroke="midnightblue" d="M2425.85,-56.4435C2467.28,-47.0431 2533.89,-31.9291 2578.8,-21.7393"/>
<polygon fill="midnightblue" stroke="midnightblue" points="2579.62,-25.1424 2588.6,-19.5164 2578.07,-18.3159 2579.62,-25.1424"/>
</g>
<!-- Node39&#45;&gt;Node40 -->
<g id="edge43" class="edge"><title>Node39&#45;&gt;Node40</title>
<path fill="none" stroke="midnightblue" d="M2396.06,-56.083C2402.98,-48.2982 2413.2,-36.8015 2421.59,-27.3665"/>
<polygon fill="midnightblue" stroke="midnightblue" points="2424.33,-29.5505 2428.36,-19.7511 2419.1,-24.8999 2424.33,-29.5505"/>
</g>
<!-- Node41&#45;&gt;Node38 -->
<g id="edge45" class="edge"><title>Node41&#45;&gt;Node38</title>
<path fill="none" stroke="midnightblue" d="M2586.9,-56.083C2593.67,-48.2982 2603.68,-36.8015 2611.89,-27.3665"/>
<polygon fill="midnightblue" stroke="midnightblue" points="2614.59,-29.592 2618.52,-19.7511 2609.31,-24.9963 2614.59,-29.592"/>
</g>
<!-- Node41&#45;&gt;Node40 -->
<g id="edge46" class="edge"><title>Node41&#45;&gt;Node40</title>
<path fill="none" stroke="midnightblue" d="M2556.48,-56.4435C2532.73,-47.4776 2495.23,-33.314 2468.4,-23.1827"/>
<polygon fill="midnightblue" stroke="midnightblue" points="2469.28,-19.7749 2458.69,-19.5164 2466.81,-26.3235 2469.28,-19.7749"/>
</g>
</g>
</svg>
