<?xml version="1.0" encoding="UTF-8" standalone="no"?>
<!DOCTYPE svg PUBLIC "-//W3C//DTD SVG 1.1//EN"
 "http://www.w3.org/Graphics/SVG/1.1/DTD/svg11.dtd">
<!-- Generated by graphviz version 2.38.0 (20140413.2041)
 -->
<!-- Title: OgreD3D11HardwarePixelBuffer.h Pages: 1 -->
<svg width="2273pt" height="420pt"
 viewBox="0.00 0.00 2272.50 420.00" xmlns="http://www.w3.org/2000/svg" xmlns:xlink="http://www.w3.org/1999/xlink">
<g id="graph0" class="graph" transform="scale(1 1) rotate(0) translate(4 416)">
<title>OgreD3D11HardwarePixelBuffer.h</title>
<!-- Node1 -->
<g id="node1" class="node"><title>Node1</title>
<polygon fill="#bfbfbf" stroke="black" points="1539,-392.5 1539,-411.5 1706,-411.5 1706,-392.5 1539,-392.5"/>
<text text-anchor="middle" x="1622.5" y="-399.5" font-family="Helvetica,sans-Serif" font-size="10.00">OgreD3D11HardwarePixelBuffer.h</text>
</g>
<!-- Node2 -->
<g id="node2" class="node"><title>Node2</title>
<g id="a_node2"><a xlink:href="_ogre_d3_d11_prerequisites_8h.html" target="_top" xlink:title="OgreD3D11Prerequisites.h">
<polygon fill="none" stroke="black" points="1328.5,-280.5 1328.5,-299.5 1462.5,-299.5 1462.5,-280.5 1328.5,-280.5"/>
<text text-anchor="middle" x="1395.5" y="-287.5" font-family="Helvetica,sans-Serif" font-size="10.00">OgreD3D11Prerequisites.h</text>
</a>
</g>
</g>
<!-- Node1&#45;&gt;Node2 -->
<g id="edge1" class="edge"><title>Node1&#45;&gt;Node2</title>
<path fill="none" stroke="midnightblue" d="M1604.69,-392.368C1565.07,-373.171 1469.46,-326.842 1422.48,-304.074"/>
<polygon fill="midnightblue" stroke="midnightblue" points="1423.75,-300.803 1413.23,-299.591 1420.7,-307.102 1423.75,-300.803"/>
</g>
<!-- Node42 -->
<g id="node42" class="node"><title>Node42</title>
<g id="a_node42"><a xlink:href="_ogre_hardware_pixel_buffer_8h.html" target="_top" xlink:title="OgreHardwarePixelBuffer.h">
<polygon fill="none" stroke="black" points="1855.5,-336.5 1855.5,-355.5 1991.5,-355.5 1991.5,-336.5 1855.5,-336.5"/>
<text text-anchor="middle" x="1923.5" y="-343.5" font-family="Helvetica,sans-Serif" font-size="10.00">OgreHardwarePixelBuffer.h</text>
</a>
</g>
</g>
<!-- Node1&#45;&gt;Node42 -->
<g id="edge43" class="edge"><title>Node1&#45;&gt;Node42</title>
<path fill="none" stroke="midnightblue" d="M1670.19,-392.444C1723.36,-382.905 1809.32,-367.483 1866.13,-357.293"/>
<polygon fill="midnightblue" stroke="midnightblue" points="1866.8,-360.727 1876.03,-355.516 1865.57,-353.837 1866.8,-360.727"/>
</g>
<!-- Node50 -->
<g id="node50" class="node"><title>Node50</title>
<g id="a_node50"><a xlink:href="_ogre_d3_d11_driver_8h.html" target="_top" xlink:title="OgreD3D11Driver.h">
<polygon fill="none" stroke="black" points="1571,-336.5 1571,-355.5 1674,-355.5 1674,-336.5 1571,-336.5"/>
<text text-anchor="middle" x="1622.5" y="-343.5" font-family="Helvetica,sans-Serif" font-size="10.00">OgreD3D11Driver.h</text>
</a>
</g>
</g>
<!-- Node1&#45;&gt;Node50 -->
<g id="edge68" class="edge"><title>Node1&#45;&gt;Node50</title>
<path fill="none" stroke="midnightblue" d="M1622.5,-392.083C1622.5,-385.006 1622.5,-374.861 1622.5,-365.986"/>
<polygon fill="midnightblue" stroke="midnightblue" points="1626,-365.751 1622.5,-355.751 1619,-365.751 1626,-365.751"/>
</g>
<!-- Node3 -->
<g id="node3" class="node"><title>Node3</title>
<g id="a_node3"><a xlink:href="_ogre_prerequisites_8h.html" target="_top" xlink:title="OgrePrerequisites.h">
<polygon fill="none" stroke="black" points="1678,-112.5 1678,-131.5 1781,-131.5 1781,-112.5 1678,-112.5"/>
<text text-anchor="middle" x="1729.5" y="-119.5" font-family="Helvetica,sans-Serif" font-size="10.00">OgrePrerequisites.h</text>
</a>
</g>
</g>
<!-- Node2&#45;&gt;Node3 -->
<g id="edge2" class="edge"><title>Node2&#45;&gt;Node3</title>
<path fill="none" stroke="midnightblue" d="M1385.62,-280.468C1371.83,-267.511 1349.93,-242.435 1363.5,-224 1399.51,-175.087 1573.34,-144.257 1667.9,-130.822"/>
<polygon fill="midnightblue" stroke="midnightblue" points="1668.49,-134.273 1677.91,-129.423 1667.53,-127.341 1668.49,-134.273"/>
</g>
<!-- Node36 -->
<g id="node36" class="node"><title>Node36</title>
<g id="a_node36"><a xlink:href="_ogre_min_g_w_support_8h.html" target="_top" xlink:title="WIN32/OgreMinGWSupport.h">
<polygon fill="none" stroke="black" points="1372.5,-224.5 1372.5,-243.5 1518.5,-243.5 1518.5,-224.5 1372.5,-224.5"/>
<text text-anchor="middle" x="1445.5" y="-231.5" font-family="Helvetica,sans-Serif" font-size="10.00">WIN32/OgreMinGWSupport.h</text>
</a>
</g>
</g>
<!-- Node2&#45;&gt;Node36 -->
<g id="edge36" class="edge"><title>Node2&#45;&gt;Node36</title>
<path fill="none" stroke="midnightblue" d="M1403.76,-280.083C1410.96,-272.298 1421.61,-260.801 1430.35,-251.367"/>
<polygon fill="midnightblue" stroke="midnightblue" points="1433.17,-253.467 1437.4,-243.751 1428.03,-248.711 1433.17,-253.467"/>
</g>
<!-- Node37 -->
<g id="node37" class="node"><title>Node37</title>
<g id="a_node37"><a xlink:href="_ogre_com_ptr_8h.html" target="_top" xlink:title="WIN32/OgreComPtr.h">
<polygon fill="none" stroke="black" points="1537,-224.5 1537,-243.5 1650,-243.5 1650,-224.5 1537,-224.5"/>
<text text-anchor="middle" x="1593.5" y="-231.5" font-family="Helvetica,sans-Serif" font-size="10.00">WIN32/OgreComPtr.h</text>
</a>
</g>
</g>
<!-- Node2&#45;&gt;Node37 -->
<g id="edge37" class="edge"><title>Node2&#45;&gt;Node37</title>
<path fill="none" stroke="midnightblue" d="M1426.87,-280.444C1460.76,-271.201 1514.9,-256.436 1552.22,-246.257"/>
<polygon fill="midnightblue" stroke="midnightblue" points="1553.55,-249.524 1562.27,-243.516 1551.7,-242.771 1553.55,-249.524"/>
</g>
<!-- Node39 -->
<g id="node39" class="node"><title>Node39</title>
<polygon fill="none" stroke="#bfbfbf" points="1056.5,-224.5 1056.5,-243.5 1118.5,-243.5 1118.5,-224.5 1056.5,-224.5"/>
<text text-anchor="middle" x="1087.5" y="-231.5" font-family="Helvetica,sans-Serif" font-size="10.00">d3d11_1.h</text>
</g>
<!-- Node2&#45;&gt;Node39 -->
<g id="edge40" class="edge"><title>Node2&#45;&gt;Node39</title>
<path fill="none" stroke="midnightblue" d="M1339.39,-280.498C1287.28,-272.394 1207.31,-259.431 1128.95,-244.204"/>
<polygon fill="midnightblue" stroke="midnightblue" points="1129.39,-240.725 1118.91,-242.238 1128.05,-247.594 1129.39,-240.725"/>
</g>
<!-- Node40 -->
<g id="node40" class="node"><title>Node40</title>
<polygon fill="none" stroke="#bfbfbf" points="1136.5,-224.5 1136.5,-243.5 1216.5,-243.5 1216.5,-224.5 1136.5,-224.5"/>
<text text-anchor="middle" x="1176.5" y="-231.5" font-family="Helvetica,sans-Serif" font-size="10.00">d3d11shader.h</text>
</g>
<!-- Node2&#45;&gt;Node40 -->
<g id="edge41" class="edge"><title>Node2&#45;&gt;Node40</title>
<path fill="none" stroke="midnightblue" d="M1360.8,-280.444C1322.92,-271.102 1262.15,-256.119 1220.84,-245.933"/>
<polygon fill="midnightblue" stroke="midnightblue" points="1221.59,-242.512 1211.04,-243.516 1219.91,-249.309 1221.59,-242.512"/>
</g>
<!-- Node41 -->
<g id="node41" class="node"><title>Node41</title>
<polygon fill="none" stroke="#bfbfbf" points="1234.5,-224.5 1234.5,-243.5 1316.5,-243.5 1316.5,-224.5 1234.5,-224.5"/>
<text text-anchor="middle" x="1275.5" y="-231.5" font-family="Helvetica,sans-Serif" font-size="10.00">D3Dcompiler.h</text>
</g>
<!-- Node2&#45;&gt;Node41 -->
<g id="edge42" class="edge"><title>Node2&#45;&gt;Node41</title>
<path fill="none" stroke="midnightblue" d="M1376.49,-280.444C1356.91,-271.636 1326.19,-257.812 1303.77,-247.722"/>
<polygon fill="midnightblue" stroke="midnightblue" points="1304.98,-244.428 1294.43,-243.516 1302.11,-250.812 1304.98,-244.428"/>
</g>
<!-- Node4 -->
<g id="node4" class="node"><title>Node4</title>
<g id="a_node4"><a xlink:href="_ogre_platform_8h.html" target="_top" xlink:title="OgrePlatform.h">
<polygon fill="none" stroke="black" points="1693,-56.5 1693,-75.5 1776,-75.5 1776,-56.5 1693,-56.5"/>
<text text-anchor="middle" x="1734.5" y="-63.5" font-family="Helvetica,sans-Serif" font-size="10.00">OgrePlatform.h</text>
</a>
</g>
</g>
<!-- Node3&#45;&gt;Node4 -->
<g id="edge3" class="edge"><title>Node3&#45;&gt;Node4</title>
<path fill="none" stroke="midnightblue" d="M1730.33,-112.083C1730.98,-105.006 1731.92,-94.8611 1732.74,-85.9865"/>
<polygon fill="midnightblue" stroke="midnightblue" points="1736.25,-86.0312 1733.69,-75.7511 1729.28,-85.3858 1736.25,-86.0312"/>
</g>
<!-- Node6 -->
<g id="node6" class="node"><title>Node6</title>
<polygon fill="none" stroke="#bfbfbf" points="1644,-0.5 1644,-19.5 1685,-19.5 1685,-0.5 1644,-0.5"/>
<text text-anchor="middle" x="1664.5" y="-7.5" font-family="Helvetica,sans-Serif" font-size="10.00">string</text>
</g>
<!-- Node3&#45;&gt;Node6 -->
<g id="edge5" class="edge"><title>Node3&#45;&gt;Node6</title>
<path fill="none" stroke="midnightblue" d="M1717.94,-112.203C1707.78,-103.9 1693.28,-90.5766 1684.5,-76 1675.84,-61.6178 1670.63,-43.16 1667.71,-29.5907"/>
<polygon fill="midnightblue" stroke="midnightblue" points="1671.1,-28.6942 1665.77,-19.539 1664.23,-30.0213 1671.1,-28.6942"/>
</g>
<!-- Node7 -->
<g id="node7" class="node"><title>Node7</title>
<g id="a_node7"><a xlink:href="_ogre_std_headers_8h.html" target="_top" xlink:title="OgreStdHeaders.h">
<polygon fill="none" stroke="red" points="848.5,-56.5 848.5,-75.5 946.5,-75.5 946.5,-56.5 848.5,-56.5"/>
<text text-anchor="middle" x="897.5" y="-63.5" font-family="Helvetica,sans-Serif" font-size="10.00">OgreStdHeaders.h</text>
</a>
</g>
</g>
<!-- Node3&#45;&gt;Node7 -->
<g id="edge6" class="edge"><title>Node3&#45;&gt;Node7</title>
<path fill="none" stroke="midnightblue" d="M1677.77,-117.642C1531.06,-108.12 1112.85,-80.9774 957.002,-70.8619"/>
<polygon fill="midnightblue" stroke="midnightblue" points="956.887,-67.3471 946.681,-70.192 956.433,-74.3324 956.887,-67.3471"/>
</g>
<!-- Node33 -->
<g id="node33" class="node"><title>Node33</title>
<g id="a_node33"><a xlink:href="_ogre_memory_allocator_config_8h.html" target="_top" xlink:title="This file configures Ogre&#39;s memory allocators. ">
<polygon fill="none" stroke="red" points="1832.5,-56.5 1832.5,-75.5 1980.5,-75.5 1980.5,-56.5 1832.5,-56.5"/>
<text text-anchor="middle" x="1906.5" y="-63.5" font-family="Helvetica,sans-Serif" font-size="10.00">OgreMemoryAllocatorConfig.h</text>
</a>
</g>
</g>
<!-- Node3&#45;&gt;Node33 -->
<g id="edge33" class="edge"><title>Node3&#45;&gt;Node33</title>
<path fill="none" stroke="midnightblue" d="M1757.55,-112.444C1787.58,-103.28 1835.41,-88.6876 1868.74,-78.5192"/>
<polygon fill="midnightblue" stroke="midnightblue" points="1870.04,-81.7822 1878.59,-75.5164 1868,-75.0869 1870.04,-81.7822"/>
</g>
<!-- Node5 -->
<g id="node5" class="node"><title>Node5</title>
<g id="a_node5"><a xlink:href="_ogre_config_8h.html" target="_top" xlink:title="OgreConfig.h">
<polygon fill="none" stroke="red" points="1703.5,-0.5 1703.5,-19.5 1777.5,-19.5 1777.5,-0.5 1703.5,-0.5"/>
<text text-anchor="middle" x="1740.5" y="-7.5" font-family="Helvetica,sans-Serif" font-size="10.00">OgreConfig.h</text>
</a>
</g>
</g>
<!-- Node4&#45;&gt;Node5 -->
<g id="edge4" class="edge"><title>Node4&#45;&gt;Node5</title>
<path fill="none" stroke="midnightblue" d="M1735.49,-56.083C1736.29,-48.9272 1737.43,-38.6353 1738.42,-29.6911"/>
<polygon fill="midnightblue" stroke="midnightblue" points="1741.9,-30.0765 1739.53,-19.7511 1734.94,-29.3034 1741.9,-30.0765"/>
</g>
<!-- Node7&#45;&gt;Node6 -->
<g id="edge16" class="edge"><title>Node7&#45;&gt;Node6</title>
<path fill="none" stroke="midnightblue" d="M946.735,-63.474C1086.27,-58.9198 1483.36,-44.315 1634.01,-19.5541"/>
<polygon fill="midnightblue" stroke="midnightblue" points="1634.73,-22.9802 1643.99,-17.8312 1633.54,-16.0821 1634.73,-22.9802"/>
</g>
<!-- Node8 -->
<g id="node8" class="node"><title>Node8</title>
<polygon fill="none" stroke="#bfbfbf" points="1035,-0.5 1035,-19.5 1084,-19.5 1084,-0.5 1035,-0.5"/>
<text text-anchor="middle" x="1059.5" y="-7.5" font-family="Helvetica,sans-Serif" font-size="10.00">cassert</text>
</g>
<!-- Node7&#45;&gt;Node8 -->
<g id="edge7" class="edge"><title>Node7&#45;&gt;Node8</title>
<path fill="none" stroke="midnightblue" d="M923.169,-56.4435C950.663,-47.2789 994.448,-32.6839 1024.95,-22.5153"/>
<polygon fill="midnightblue" stroke="midnightblue" points="1026.37,-25.7335 1034.75,-19.2508 1024.15,-19.0927 1026.37,-25.7335"/>
</g>
<!-- Node9 -->
<g id="node9" class="node"><title>Node9</title>
<polygon fill="none" stroke="#bfbfbf" points="1102,-0.5 1102,-19.5 1145,-19.5 1145,-0.5 1102,-0.5"/>
<text text-anchor="middle" x="1123.5" y="-7.5" font-family="Helvetica,sans-Serif" font-size="10.00">cstdio</text>
</g>
<!-- Node7&#45;&gt;Node9 -->
<g id="edge8" class="edge"><title>Node7&#45;&gt;Node9</title>
<path fill="none" stroke="midnightblue" d="M937.62,-56.4271C975.071,-48.2719 1032.73,-35.3296 1091.96,-20.0261"/>
<polygon fill="midnightblue" stroke="midnightblue" points="1093.07,-23.3544 1101.86,-17.4487 1091.3,-16.5801 1093.07,-23.3544"/>
</g>
<!-- Node10 -->
<g id="node10" class="node"><title>Node10</title>
<polygon fill="none" stroke="#bfbfbf" points="1163,-0.5 1163,-19.5 1208,-19.5 1208,-0.5 1163,-0.5"/>
<text text-anchor="middle" x="1185.5" y="-7.5" font-family="Helvetica,sans-Serif" font-size="10.00">cstdlib</text>
</g>
<!-- Node7&#45;&gt;Node10 -->
<g id="edge9" class="edge"><title>Node7&#45;&gt;Node10</title>
<path fill="none" stroke="midnightblue" d="M946.87,-57.8247C996.518,-50.2731 1075.42,-37.3592 1152.91,-19.9345"/>
<polygon fill="midnightblue" stroke="midnightblue" points="1153.87,-23.3059 1162.85,-17.6741 1152.32,-16.4804 1153.87,-23.3059"/>
</g>
<!-- Node11 -->
<g id="node11" class="node"><title>Node11</title>
<polygon fill="none" stroke="#bfbfbf" points="1226,-0.5 1226,-19.5 1267,-19.5 1267,-0.5 1226,-0.5"/>
<text text-anchor="middle" x="1246.5" y="-7.5" font-family="Helvetica,sans-Serif" font-size="10.00">ctime</text>
</g>
<!-- Node7&#45;&gt;Node11 -->
<g id="edge10" class="edge"><title>Node7&#45;&gt;Node11</title>
<path fill="none" stroke="midnightblue" d="M946.548,-60.4102C1007.56,-54.1863 1115,-41.5414 1216.18,-19.749"/>
<polygon fill="midnightblue" stroke="midnightblue" points="1216.93,-23.168 1225.95,-17.6115 1215.43,-16.3298 1216.93,-23.168"/>
</g>
<!-- Node12 -->
<g id="node12" class="node"><title>Node12</title>
<polygon fill="none" stroke="#bfbfbf" points="1285.5,-0.5 1285.5,-19.5 1331.5,-19.5 1331.5,-0.5 1285.5,-0.5"/>
<text text-anchor="middle" x="1308.5" y="-7.5" font-family="Helvetica,sans-Serif" font-size="10.00">cstring</text>
</g>
<!-- Node7&#45;&gt;Node12 -->
<g id="edge11" class="edge"><title>Node7&#45;&gt;Node12</title>
<path fill="none" stroke="midnightblue" d="M946.791,-61.4701C1017.38,-55.902 1151.43,-43.4243 1275.14,-19.769"/>
<polygon fill="midnightblue" stroke="midnightblue" points="1276.02,-23.1642 1285.16,-17.8224 1274.68,-16.2925 1276.02,-23.1642"/>
</g>
<!-- Node13 -->
<g id="node13" class="node"><title>Node13</title>
<polygon fill="none" stroke="#bfbfbf" points="1350,-0.5 1350,-19.5 1399,-19.5 1399,-0.5 1350,-0.5"/>
<text text-anchor="middle" x="1374.5" y="-7.5" font-family="Helvetica,sans-Serif" font-size="10.00">cstdarg</text>
</g>
<!-- Node7&#45;&gt;Node13 -->
<g id="edge12" class="edge"><title>Node7&#45;&gt;Node13</title>
<path fill="none" stroke="midnightblue" d="M946.691,-62.5393C1026.98,-57.9706 1191.25,-46.3165 1339.53,-19.8876"/>
<polygon fill="midnightblue" stroke="midnightblue" points="1340.5,-23.2676 1349.72,-18.0424 1339.26,-16.3796 1340.5,-23.2676"/>
</g>
<!-- Node14 -->
<g id="node14" class="node"><title>Node14</title>
<polygon fill="none" stroke="#bfbfbf" points="1417.5,-0.5 1417.5,-19.5 1461.5,-19.5 1461.5,-0.5 1417.5,-0.5"/>
<text text-anchor="middle" x="1439.5" y="-7.5" font-family="Helvetica,sans-Serif" font-size="10.00">cmath</text>
</g>
<!-- Node7&#45;&gt;Node14 -->
<g id="edge13" class="edge"><title>Node7&#45;&gt;Node14</title>
<path fill="none" stroke="midnightblue" d="M946.783,-63.6956C1036.58,-60.6598 1232.83,-50.984 1407.37,-19.6322"/>
<polygon fill="midnightblue" stroke="midnightblue" points="1408.04,-23.0686 1417.24,-17.8307 1406.78,-16.1822 1408.04,-23.0686"/>
</g>
<!-- Node15 -->
<g id="node15" class="node"><title>Node15</title>
<polygon fill="none" stroke="#bfbfbf" points="1479.5,-0.5 1479.5,-19.5 1523.5,-19.5 1523.5,-0.5 1479.5,-0.5"/>
<text text-anchor="middle" x="1501.5" y="-7.5" font-family="Helvetica,sans-Serif" font-size="10.00">vector</text>
</g>
<!-- Node7&#45;&gt;Node15 -->
<g id="edge14" class="edge"><title>Node7&#45;&gt;Node15</title>
<path fill="none" stroke="midnightblue" d="M946.608,-64.5082C1044.56,-62.8023 1271.15,-55.2269 1469.27,-19.8557"/>
<polygon fill="midnightblue" stroke="midnightblue" points="1470.06,-23.2688 1479.28,-18.0404 1468.81,-16.3812 1470.06,-23.2688"/>
</g>
<!-- Node16 -->
<g id="node16" class="node"><title>Node16</title>
<polygon fill="none" stroke="#bfbfbf" points="1542,-0.5 1542,-19.5 1577,-19.5 1577,-0.5 1542,-0.5"/>
<text text-anchor="middle" x="1559.5" y="-7.5" font-family="Helvetica,sans-Serif" font-size="10.00">map</text>
</g>
<!-- Node7&#45;&gt;Node16 -->
<g id="edge15" class="edge"><title>Node7&#45;&gt;Node16</title>
<path fill="none" stroke="midnightblue" d="M946.65,-65.6835C1052.49,-66.2632 1309.65,-62.8791 1532.06,-19.5139"/>
<polygon fill="midnightblue" stroke="midnightblue" points="1532.82,-22.9301 1541.95,-17.5532 1531.46,-16.0636 1532.82,-22.9301"/>
</g>
<!-- Node17 -->
<g id="node17" class="node"><title>Node17</title>
<polygon fill="none" stroke="#bfbfbf" points="1595.5,-0.5 1595.5,-19.5 1625.5,-19.5 1625.5,-0.5 1595.5,-0.5"/>
<text text-anchor="middle" x="1610.5" y="-7.5" font-family="Helvetica,sans-Serif" font-size="10.00">set</text>
</g>
<!-- Node7&#45;&gt;Node17 -->
<g id="edge17" class="edge"><title>Node7&#45;&gt;Node17</title>
<path fill="none" stroke="midnightblue" d="M946.661,-63.5716C1082.88,-59.3296 1463.19,-45.4862 1585.5,-20 1585.6,-19.9788 1585.7,-19.9573 1585.81,-19.9355"/>
<polygon fill="midnightblue" stroke="midnightblue" points="1586.7,-23.3198 1595.36,-17.2147 1584.78,-16.5875 1586.7,-23.3198"/>
</g>
<!-- Node18 -->
<g id="node18" class="node"><title>Node18</title>
<polygon fill="none" stroke="#bfbfbf" points="0,-0.5 0,-19.5 29,-19.5 29,-0.5 0,-0.5"/>
<text text-anchor="middle" x="14.5" y="-7.5" font-family="Helvetica,sans-Serif" font-size="10.00">list</text>
</g>
<!-- Node7&#45;&gt;Node18 -->
<g id="edge18" class="edge"><title>Node7&#45;&gt;Node18</title>
<path fill="none" stroke="midnightblue" d="M848.278,-64.4898C692.866,-62.5616 213.115,-54.1 39.3922,-19.7031"/>
<polygon fill="midnightblue" stroke="midnightblue" points="39.8834,-16.2303 29.3796,-17.6165 38.4552,-23.0831 39.8834,-16.2303"/>
</g>
<!-- Node19 -->
<g id="node19" class="node"><title>Node19</title>
<polygon fill="none" stroke="#bfbfbf" points="47,-0.5 47,-19.5 90,-19.5 90,-0.5 47,-0.5"/>
<text text-anchor="middle" x="68.5" y="-7.5" font-family="Helvetica,sans-Serif" font-size="10.00">deque</text>
</g>
<!-- Node7&#45;&gt;Node19 -->
<g id="edge19" class="edge"><title>Node7&#45;&gt;Node19</title>
<path fill="none" stroke="midnightblue" d="M848.459,-63.7484C701.145,-59.7555 263.18,-46.1239 100.615,-19.9338"/>
<polygon fill="midnightblue" stroke="midnightblue" points="100.756,-16.4079 90.3119,-18.1905 99.5879,-23.3098 100.756,-16.4079"/>
</g>
<!-- Node20 -->
<g id="node20" class="node"><title>Node20</title>
<polygon fill="none" stroke="#bfbfbf" points="108,-0.5 108,-19.5 151,-19.5 151,-0.5 108,-0.5"/>
<text text-anchor="middle" x="129.5" y="-7.5" font-family="Helvetica,sans-Serif" font-size="10.00">queue</text>
</g>
<!-- Node7&#45;&gt;Node20 -->
<g id="edge20" class="edge"><title>Node7&#45;&gt;Node20</title>
<path fill="none" stroke="midnightblue" d="M848.453,-63.4848C708.963,-58.9469 310.938,-44.355 161.234,-19.8811"/>
<polygon fill="midnightblue" stroke="midnightblue" points="161.762,-16.4207 151.314,-18.1785 160.578,-23.3198 161.762,-16.4207"/>
</g>
<!-- Node21 -->
<g id="node21" class="node"><title>Node21</title>
<polygon fill="none" stroke="#bfbfbf" points="169,-0.5 169,-19.5 210,-19.5 210,-0.5 169,-0.5"/>
<text text-anchor="middle" x="189.5" y="-7.5" font-family="Helvetica,sans-Serif" font-size="10.00">bitset</text>
</g>
<!-- Node7&#45;&gt;Node21 -->
<g id="edge21" class="edge"><title>Node7&#45;&gt;Node21</title>
<path fill="none" stroke="midnightblue" d="M848.115,-65.5067C737.139,-65.8353 459.685,-62.1319 219.955,-19.6072"/>
<polygon fill="midnightblue" stroke="midnightblue" points="220.47,-16.1438 210.008,-17.8164 219.23,-23.0331 220.47,-16.1438"/>
</g>
<!-- Node22 -->
<g id="node22" class="node"><title>Node22</title>
<polygon fill="none" stroke="#bfbfbf" points="228.5,-0.5 228.5,-19.5 284.5,-19.5 284.5,-0.5 228.5,-0.5"/>
<text text-anchor="middle" x="256.5" y="-7.5" font-family="Helvetica,sans-Serif" font-size="10.00">algorithm</text>
</g>
<!-- Node7&#45;&gt;Node22 -->
<g id="edge22" class="edge"><title>Node7&#45;&gt;Node22</title>
<path fill="none" stroke="midnightblue" d="M848.254,-64.0658C746.479,-61.5455 505.542,-52.5309 294.702,-19.9314"/>
<polygon fill="midnightblue" stroke="midnightblue" points="295.107,-16.4522 284.685,-18.3611 294.023,-23.3677 295.107,-16.4522"/>
</g>
<!-- Node23 -->
<g id="node23" class="node"><title>Node23</title>
<polygon fill="none" stroke="#bfbfbf" points="303,-0.5 303,-19.5 362,-19.5 362,-0.5 303,-0.5"/>
<text text-anchor="middle" x="332.5" y="-7.5" font-family="Helvetica,sans-Serif" font-size="10.00">functional</text>
</g>
<!-- Node7&#45;&gt;Node23 -->
<g id="edge23" class="edge"><title>Node7&#45;&gt;Node23</title>
<path fill="none" stroke="midnightblue" d="M848.272,-63.1135C756.525,-59.0933 553.085,-47.8065 372.187,-19.8747"/>
<polygon fill="midnightblue" stroke="midnightblue" points="372.647,-16.4041 362.226,-18.316 371.565,-23.32 372.647,-16.4041"/>
</g>
<!-- Node24 -->
<g id="node24" class="node"><title>Node24</title>
<polygon fill="none" stroke="#bfbfbf" points="380.5,-0.5 380.5,-19.5 420.5,-19.5 420.5,-0.5 380.5,-0.5"/>
<text text-anchor="middle" x="400.5" y="-7.5" font-family="Helvetica,sans-Serif" font-size="10.00">limits</text>
</g>
<!-- Node7&#45;&gt;Node24 -->
<g id="edge24" class="edge"><title>Node7&#45;&gt;Node24</title>
<path fill="none" stroke="midnightblue" d="M848.168,-63.5763C764.064,-60.4289 587.575,-50.6952 430.485,-19.7996"/>
<polygon fill="midnightblue" stroke="midnightblue" points="431.137,-16.3607 420.645,-17.8311 429.764,-23.2247 431.137,-16.3607"/>
</g>
<!-- Node25 -->
<g id="node25" class="node"><title>Node25</title>
<polygon fill="none" stroke="#bfbfbf" points="438.5,-0.5 438.5,-19.5 488.5,-19.5 488.5,-0.5 438.5,-0.5"/>
<text text-anchor="middle" x="463.5" y="-7.5" font-family="Helvetica,sans-Serif" font-size="10.00">fstream</text>
</g>
<!-- Node7&#45;&gt;Node25 -->
<g id="edge25" class="edge"><title>Node7&#45;&gt;Node25</title>
<path fill="none" stroke="midnightblue" d="M848.202,-61.7932C774.205,-56.4674 629.943,-44.101 498.5,-19.9359"/>
<polygon fill="midnightblue" stroke="midnightblue" points="499.13,-16.493 488.657,-18.0994 497.846,-23.3743 499.13,-16.493"/>
</g>
<!-- Node26 -->
<g id="node26" class="node"><title>Node26</title>
<polygon fill="none" stroke="#bfbfbf" points="507,-0.5 507,-19.5 552,-19.5 552,-0.5 507,-0.5"/>
<text text-anchor="middle" x="529.5" y="-7.5" font-family="Helvetica,sans-Serif" font-size="10.00">iosfwd</text>
</g>
<!-- Node7&#45;&gt;Node26 -->
<g id="edge26" class="edge"><title>Node7&#45;&gt;Node26</title>
<path fill="none" stroke="midnightblue" d="M848.449,-60.6191C784.676,-54.4413 669.737,-41.6643 562.179,-19.859"/>
<polygon fill="midnightblue" stroke="midnightblue" points="562.629,-16.3783 552.129,-17.7903 561.218,-23.2346 562.629,-16.3783"/>
</g>
<!-- Node27 -->
<g id="node27" class="node"><title>Node27</title>
<polygon fill="none" stroke="#bfbfbf" points="570.5,-0.5 570.5,-19.5 622.5,-19.5 622.5,-0.5 570.5,-0.5"/>
<text text-anchor="middle" x="596.5" y="-7.5" font-family="Helvetica,sans-Serif" font-size="10.00">sstream</text>
</g>
<!-- Node7&#45;&gt;Node27 -->
<g id="edge27" class="edge"><title>Node7&#45;&gt;Node27</title>
<path fill="none" stroke="midnightblue" d="M848.239,-57.9353C796.759,-50.2689 713.456,-37.0675 632.656,-20.1071"/>
<polygon fill="midnightblue" stroke="midnightblue" points="633.326,-16.6713 622.817,-18.0202 631.873,-23.519 633.326,-16.6713"/>
</g>
<!-- Node28 -->
<g id="node28" class="node"><title>Node28</title>
<polygon fill="none" stroke="#bfbfbf" points="640.5,-0.5 640.5,-19.5 708.5,-19.5 708.5,-0.5 640.5,-0.5"/>
<text text-anchor="middle" x="674.5" y="-7.5" font-family="Helvetica,sans-Serif" font-size="10.00">sys/types.h</text>
</g>
<!-- Node7&#45;&gt;Node28 -->
<g id="edge28" class="edge"><title>Node7&#45;&gt;Node28</title>
<path fill="none" stroke="midnightblue" d="M862.165,-56.4435C823.249,-47.0199 760.622,-31.8546 718.539,-21.664"/>
<polygon fill="midnightblue" stroke="midnightblue" points="719.116,-18.2027 708.573,-19.2508 717.468,-25.0061 719.116,-18.2027"/>
</g>
<!-- Node29 -->
<g id="node29" class="node"><title>Node29</title>
<polygon fill="none" stroke="#bfbfbf" points="726.5,-0.5 726.5,-19.5 786.5,-19.5 786.5,-0.5 726.5,-0.5"/>
<text text-anchor="middle" x="756.5" y="-7.5" font-family="Helvetica,sans-Serif" font-size="10.00">sys/stat.h</text>
</g>
<!-- Node7&#45;&gt;Node29 -->
<g id="edge29" class="edge"><title>Node7&#45;&gt;Node29</title>
<path fill="none" stroke="midnightblue" d="M875.158,-56.4435C851.747,-47.4776 814.764,-33.314 788.31,-23.1827"/>
<polygon fill="midnightblue" stroke="midnightblue" points="789.328,-19.8245 778.737,-19.5164 786.824,-26.3615 789.328,-19.8245"/>
</g>
<!-- Node30 -->
<g id="node30" class="node"><title>Node30</title>
<polygon fill="none" stroke="#bfbfbf" points="805,-0.5 805,-19.5 856,-19.5 856,-0.5 805,-0.5"/>
<text text-anchor="middle" x="830.5" y="-7.5" font-family="Helvetica,sans-Serif" font-size="10.00">unistd.h</text>
</g>
<!-- Node7&#45;&gt;Node30 -->
<g id="edge30" class="edge"><title>Node7&#45;&gt;Node30</title>
<path fill="none" stroke="midnightblue" d="M886.735,-56.324C876.734,-48.2631 861.613,-36.0765 849.57,-26.3695"/>
<polygon fill="midnightblue" stroke="midnightblue" points="851.443,-23.3841 841.461,-19.8339 847.05,-28.8343 851.443,-23.3841"/>
</g>
<!-- Node31 -->
<g id="node31" class="node"><title>Node31</title>
<polygon fill="none" stroke="#bfbfbf" points="874.5,-0.5 874.5,-19.5 920.5,-19.5 920.5,-0.5 874.5,-0.5"/>
<text text-anchor="middle" x="897.5" y="-7.5" font-family="Helvetica,sans-Serif" font-size="10.00">dlfcn.h</text>
</g>
<!-- Node7&#45;&gt;Node31 -->
<g id="edge31" class="edge"><title>Node7&#45;&gt;Node31</title>
<path fill="none" stroke="midnightblue" d="M897.5,-56.083C897.5,-49.0059 897.5,-38.8611 897.5,-29.9865"/>
<polygon fill="midnightblue" stroke="midnightblue" points="901,-29.751 897.5,-19.7511 894,-29.7511 901,-29.751"/>
</g>
<!-- Node32 -->
<g id="node32" class="node"><title>Node32</title>
<polygon fill="none" stroke="#bfbfbf" points="938.5,-0.5 938.5,-19.5 1016.5,-19.5 1016.5,-0.5 938.5,-0.5"/>
<text text-anchor="middle" x="977.5" y="-7.5" font-family="Helvetica,sans-Serif" font-size="10.00">ext/hash_map</text>
</g>
<!-- Node7&#45;&gt;Node32 -->
<g id="edge32" class="edge"><title>Node7&#45;&gt;Node32</title>
<path fill="none" stroke="midnightblue" d="M910.353,-56.324C922.716,-47.979 941.63,-35.2122 956.237,-25.3524"/>
<polygon fill="midnightblue" stroke="midnightblue" points="958.348,-28.1503 964.679,-19.6545 954.432,-22.3483 958.348,-28.1503"/>
</g>
<!-- Node34 -->
<g id="node34" class="node"><title>Node34</title>
<g id="a_node34"><a xlink:href="_ogre_header_prefix_8h.html" target="_top" xlink:title="OgreHeaderPrefix.h">
<polygon fill="none" stroke="black" points="1957,-0.5 1957,-19.5 2060,-19.5 2060,-0.5 1957,-0.5"/>
<text text-anchor="middle" x="2008.5" y="-7.5" font-family="Helvetica,sans-Serif" font-size="10.00">OgreHeaderPrefix.h</text>
</a>
</g>
</g>
<!-- Node33&#45;&gt;Node34 -->
<g id="edge34" class="edge"><title>Node33&#45;&gt;Node34</title>
<path fill="none" stroke="midnightblue" d="M1922.89,-56.324C1939.17,-47.7034 1964.37,-34.3643 1983.22,-24.3855"/>
<polygon fill="midnightblue" stroke="midnightblue" points="1984.95,-27.4267 1992.15,-19.6545 1981.68,-21.2402 1984.95,-27.4267"/>
</g>
<!-- Node35 -->
<g id="node35" class="node"><title>Node35</title>
<g id="a_node35"><a xlink:href="_ogre_header_suffix_8h.html" target="_top" xlink:title="OgreHeaderSuffix.h">
<polygon fill="none" stroke="black" points="2109,-0.5 2109,-19.5 2212,-19.5 2212,-0.5 2109,-0.5"/>
<text text-anchor="middle" x="2160.5" y="-7.5" font-family="Helvetica,sans-Serif" font-size="10.00">OgreHeaderSuffix.h</text>
</a>
</g>
</g>
<!-- Node33&#45;&gt;Node35 -->
<g id="edge35" class="edge"><title>Node33&#45;&gt;Node35</title>
<path fill="none" stroke="midnightblue" d="M1946.75,-56.4435C1991.15,-47.0036 2062.65,-31.802 2110.59,-21.6111"/>
<polygon fill="midnightblue" stroke="midnightblue" points="2111.39,-25.0195 2120.44,-19.5164 2109.93,-18.1725 2111.39,-25.0195"/>
</g>
<!-- Node37&#45;&gt;Node3 -->
<g id="edge38" class="edge"><title>Node37&#45;&gt;Node3</title>
<path fill="none" stroke="midnightblue" d="M1602.34,-224.176C1615.44,-211.274 1640.99,-186.761 1664.5,-168 1678.23,-157.048 1694.47,-145.803 1707.28,-137.293"/>
<polygon fill="midnightblue" stroke="midnightblue" points="1709.48,-140.036 1715.92,-131.624 1705.64,-134.184 1709.48,-140.036"/>
</g>
<!-- Node38 -->
<g id="node38" class="node"><title>Node38</title>
<polygon fill="none" stroke="#bfbfbf" points="1553,-168.5 1553,-187.5 1612,-187.5 1612,-168.5 1553,-168.5"/>
<text text-anchor="middle" x="1582.5" y="-175.5" font-family="Helvetica,sans-Serif" font-size="10.00">winerror.h</text>
</g>
<!-- Node37&#45;&gt;Node38 -->
<g id="edge39" class="edge"><title>Node37&#45;&gt;Node38</title>
<path fill="none" stroke="midnightblue" d="M1591.68,-224.083C1590.23,-216.927 1588.13,-206.635 1586.31,-197.691"/>
<polygon fill="midnightblue" stroke="midnightblue" points="1589.71,-196.851 1584.28,-187.751 1582.85,-198.248 1589.71,-196.851"/>
</g>
<!-- Node42&#45;&gt;Node3 -->
<g id="edge44" class="edge"><title>Node42&#45;&gt;Node3</title>
<path fill="none" stroke="midnightblue" d="M1916.24,-336.446C1899.37,-316.596 1856.17,-265.898 1819.5,-224 1793.11,-193.844 1761.92,-159.019 1744.05,-139.145"/>
<polygon fill="midnightblue" stroke="midnightblue" points="1746.55,-136.692 1737.26,-131.6 1741.35,-141.375 1746.55,-136.692"/>
</g>
<!-- Node42&#45;&gt;Node34 -->
<g id="edge66" class="edge"><title>Node42&#45;&gt;Node34</title>
<path fill="none" stroke="midnightblue" d="M1937.16,-336.242C1961.18,-319.641 2008.5,-281.097 2008.5,-235 2008.5,-235 2008.5,-235 2008.5,-121 2008.5,-88.948 2008.5,-51.6426 2008.5,-29.7489"/>
<polygon fill="midnightblue" stroke="midnightblue" points="2012,-29.5577 2008.5,-19.5578 2005,-29.5578 2012,-29.5577"/>
</g>
<!-- Node42&#45;&gt;Node35 -->
<g id="edge67" class="edge"><title>Node42&#45;&gt;Node35</title>
<path fill="none" stroke="midnightblue" d="M1991.69,-337.041C2091.2,-323.497 2264.5,-291.762 2264.5,-235 2264.5,-235 2264.5,-235 2264.5,-121 2264.5,-76.2232 2218.44,-42.3249 2187.62,-24.658"/>
<polygon fill="midnightblue" stroke="midnightblue" points="2189.06,-21.457 2178.62,-19.7022 2185.69,-27.5898 2189.06,-21.457"/>
</g>
<!-- Node43 -->
<g id="node43" class="node"><title>Node43</title>
<g id="a_node43"><a xlink:href="_ogre_hardware_buffer_8h.html" target="_top" xlink:title="OgreHardwareBuffer.h">
<polygon fill="none" stroke="black" points="1866.5,-224.5 1866.5,-243.5 1980.5,-243.5 1980.5,-224.5 1866.5,-224.5"/>
<text text-anchor="middle" x="1923.5" y="-231.5" font-family="Helvetica,sans-Serif" font-size="10.00">OgreHardwareBuffer.h</text>
</a>
</g>
</g>
<!-- Node42&#45;&gt;Node43 -->
<g id="edge45" class="edge"><title>Node42&#45;&gt;Node43</title>
<path fill="none" stroke="midnightblue" d="M1923.5,-336.368C1923.5,-318.617 1923.5,-277.666 1923.5,-253.597"/>
<polygon fill="midnightblue" stroke="midnightblue" points="1927,-253.591 1923.5,-243.591 1920,-253.591 1927,-253.591"/>
</g>
<!-- Node45 -->
<g id="node45" class="node"><title>Node45</title>
<g id="a_node45"><a xlink:href="_ogre_image_8h.html" target="_top" xlink:title="OgreImage.h">
<polygon fill="none" stroke="black" points="2043,-224.5 2043,-243.5 2116,-243.5 2116,-224.5 2043,-224.5"/>
<text text-anchor="middle" x="2079.5" y="-231.5" font-family="Helvetica,sans-Serif" font-size="10.00">OgreImage.h</text>
</a>
</g>
</g>
<!-- Node42&#45;&gt;Node45 -->
<g id="edge51" class="edge"><title>Node42&#45;&gt;Node45</title>
<path fill="none" stroke="midnightblue" d="M1949.94,-336.472C1970.88,-328.928 2000.22,-316.546 2022.5,-300 2040.69,-286.494 2057.24,-266.318 2067.77,-252.033"/>
<polygon fill="midnightblue" stroke="midnightblue" points="2070.81,-253.798 2073.77,-243.625 2065.11,-249.73 2070.81,-253.798"/>
</g>
<!-- Node48 -->
<g id="node48" class="node"><title>Node48</title>
<g id="a_node48"><a xlink:href="_ogre_shared_ptr_8h.html" target="_top" xlink:title="OgreSharedPtr.h">
<polygon fill="none" stroke="black" points="1674,-280.5 1674,-299.5 1763,-299.5 1763,-280.5 1674,-280.5"/>
<text text-anchor="middle" x="1718.5" y="-287.5" font-family="Helvetica,sans-Serif" font-size="10.00">OgreSharedPtr.h</text>
</a>
</g>
</g>
<!-- Node42&#45;&gt;Node48 -->
<g id="edge61" class="edge"><title>Node42&#45;&gt;Node48</title>
<path fill="none" stroke="midnightblue" d="M1891.02,-336.444C1855.78,-327.162 1799.4,-312.309 1760.74,-302.127"/>
<polygon fill="midnightblue" stroke="midnightblue" points="1761.39,-298.679 1750.83,-299.516 1759.61,-305.448 1761.39,-298.679"/>
</g>
<!-- Node43&#45;&gt;Node3 -->
<g id="edge46" class="edge"><title>Node43&#45;&gt;Node3</title>
<path fill="none" stroke="midnightblue" d="M1907.93,-224.442C1891.6,-215.439 1865.19,-200.826 1842.5,-188 1811.5,-170.477 1775.93,-149.943 1753.11,-136.717"/>
<polygon fill="midnightblue" stroke="midnightblue" points="1754.85,-133.683 1744.45,-131.693 1751.34,-139.738 1754.85,-133.683"/>
</g>
<!-- Node44 -->
<g id="node44" class="node"><title>Node44</title>
<g id="a_node44"><a xlink:href="_ogre_exception_8h.html" target="_top" xlink:title="OgreException.h">
<polygon fill="none" stroke="red" points="1885,-168.5 1885,-187.5 1974,-187.5 1974,-168.5 1885,-168.5"/>
<text text-anchor="middle" x="1929.5" y="-175.5" font-family="Helvetica,sans-Serif" font-size="10.00">OgreException.h</text>
</a>
</g>
</g>
<!-- Node43&#45;&gt;Node44 -->
<g id="edge47" class="edge"><title>Node43&#45;&gt;Node44</title>
<path fill="none" stroke="midnightblue" d="M1924.49,-224.083C1925.29,-216.927 1926.43,-206.635 1927.42,-197.691"/>
<polygon fill="midnightblue" stroke="midnightblue" points="1930.9,-198.076 1928.53,-187.751 1923.94,-197.303 1930.9,-198.076"/>
</g>
<!-- Node44&#45;&gt;Node3 -->
<g id="edge48" class="edge"><title>Node44&#45;&gt;Node3</title>
<path fill="none" stroke="midnightblue" d="M1897.81,-168.444C1863.43,-159.162 1808.42,-144.309 1770.71,-134.127"/>
<polygon fill="midnightblue" stroke="midnightblue" points="1771.61,-130.744 1761.04,-131.516 1769.78,-137.502 1771.61,-130.744"/>
</g>
<!-- Node44&#45;&gt;Node34 -->
<g id="edge49" class="edge"><title>Node44&#45;&gt;Node34</title>
<path fill="none" stroke="midnightblue" d="M1911.55,-168.467C1873.1,-149.066 1788.99,-99.9158 1823.5,-56 1838.75,-36.5896 1899.19,-24.5099 1946.89,-17.8147"/>
<polygon fill="midnightblue" stroke="midnightblue" points="1947.42,-21.2758 1956.86,-16.467 1946.48,-14.339 1947.42,-21.2758"/>
</g>
<!-- Node44&#45;&gt;Node35 -->
<g id="edge50" class="edge"><title>Node44&#45;&gt;Node35</title>
<path fill="none" stroke="midnightblue" d="M1941.59,-168.309C1979.1,-141.36 2093.69,-59.0096 2140.38,-25.4566"/>
<polygon fill="midnightblue" stroke="midnightblue" points="2142.45,-28.283 2148.53,-19.6051 2138.36,-22.5986 2142.45,-28.283"/>
</g>
<!-- Node45&#45;&gt;Node3 -->
<g id="edge52" class="edge"><title>Node45&#45;&gt;Node3</title>
<path fill="none" stroke="midnightblue" d="M2042.73,-227.871C2001.42,-221.421 1932.76,-208.622 1876.5,-188 1858.58,-181.432 1855.78,-176.095 1838.5,-168 1812.94,-156.027 1783.29,-143.897 1761.37,-135.253"/>
<polygon fill="midnightblue" stroke="midnightblue" points="1762.48,-131.927 1751.89,-131.539 1759.93,-138.445 1762.48,-131.927"/>
</g>
<!-- Node46 -->
<g id="node46" class="node"><title>Node46</title>
<g id="a_node46"><a xlink:href="_ogre_common_8h.html" target="_top" xlink:title="OgreCommon.h">
<polygon fill="none" stroke="black" points="2150.5,-112.5 2150.5,-131.5 2236.5,-131.5 2236.5,-112.5 2150.5,-112.5"/>
<text text-anchor="middle" x="2193.5" y="-119.5" font-family="Helvetica,sans-Serif" font-size="10.00">OgreCommon.h</text>
</a>
</g>
</g>
<!-- Node45&#45;&gt;Node46 -->
<g id="edge53" class="edge"><title>Node45&#45;&gt;Node46</title>
<path fill="none" stroke="midnightblue" d="M2094.16,-224.475C2107.78,-216.162 2128.2,-202.658 2143.5,-188 2158.7,-173.436 2173.03,-154.009 2182.41,-140.197"/>
<polygon fill="midnightblue" stroke="midnightblue" points="2185.46,-141.929 2188.07,-131.66 2179.63,-138.061 2185.46,-141.929"/>
</g>
<!-- Node47 -->
<g id="node47" class="node"><title>Node47</title>
<g id="a_node47"><a xlink:href="_ogre_pixel_format_8h.html" target="_top" xlink:title="OgrePixelFormat.h">
<polygon fill="none" stroke="black" points="2036.5,-168.5 2036.5,-187.5 2134.5,-187.5 2134.5,-168.5 2036.5,-168.5"/>
<text text-anchor="middle" x="2085.5" y="-175.5" font-family="Helvetica,sans-Serif" font-size="10.00">OgrePixelFormat.h</text>
</a>
</g>
</g>
<!-- Node45&#45;&gt;Node47 -->
<g id="edge56" class="edge"><title>Node45&#45;&gt;Node47</title>
<path fill="none" stroke="midnightblue" d="M2080.49,-224.083C2081.29,-216.927 2082.43,-206.635 2083.42,-197.691"/>
<polygon fill="midnightblue" stroke="midnightblue" points="2086.9,-198.076 2084.53,-187.751 2079.94,-197.303 2086.9,-198.076"/>
</g>
<!-- Node46&#45;&gt;Node34 -->
<g id="edge54" class="edge"><title>Node46&#45;&gt;Node34</title>
<path fill="none" stroke="midnightblue" d="M2178.98,-112.368C2147.1,-93.4121 2070.73,-48.0006 2031.95,-24.9424"/>
<polygon fill="midnightblue" stroke="midnightblue" points="2033.33,-21.6938 2022.95,-19.5914 2029.76,-27.7106 2033.33,-21.6938"/>
</g>
<!-- Node46&#45;&gt;Node35 -->
<g id="edge55" class="edge"><title>Node46&#45;&gt;Node35</title>
<path fill="none" stroke="midnightblue" d="M2190.97,-112.154C2187.37,-99.634 2180.54,-76.0355 2174.5,-56 2171.84,-47.1767 2168.81,-37.4058 2166.25,-29.2295"/>
<polygon fill="midnightblue" stroke="midnightblue" points="2169.56,-28.1042 2163.23,-19.6133 2162.89,-30.2026 2169.56,-28.1042"/>
</g>
<!-- Node47&#45;&gt;Node3 -->
<g id="edge57" class="edge"><title>Node47&#45;&gt;Node3</title>
<path fill="none" stroke="midnightblue" d="M2036.37,-169.548C1972.38,-159.841 1860.49,-142.869 1790.95,-132.32"/>
<polygon fill="midnightblue" stroke="midnightblue" points="1791.42,-128.852 1781,-130.812 1790.37,-135.773 1791.42,-128.852"/>
</g>
<!-- Node47&#45;&gt;Node34 -->
<g id="edge59" class="edge"><title>Node47&#45;&gt;Node34</title>
<path fill="none" stroke="midnightblue" d="M2081.36,-168.075C2069.13,-141.719 2033.03,-63.878 2016.69,-28.6608"/>
<polygon fill="midnightblue" stroke="midnightblue" points="2019.86,-27.1669 2012.47,-19.5681 2013.51,-30.1125 2019.86,-27.1669"/>
</g>
<!-- Node47&#45;&gt;Node35 -->
<g id="edge60" class="edge"><title>Node47&#45;&gt;Node35</title>
<path fill="none" stroke="midnightblue" d="M2090.35,-168.245C2099.84,-150.926 2121.29,-110.94 2136.5,-76 2143.25,-60.4901 2149.83,-42.4062 2154.38,-29.2563"/>
<polygon fill="midnightblue" stroke="midnightblue" points="2157.78,-30.1302 2157.7,-19.5357 2151.16,-27.8731 2157.78,-30.1302"/>
</g>
<!-- Node47&#45;&gt;Node46 -->
<g id="edge58" class="edge"><title>Node47&#45;&gt;Node46</title>
<path fill="none" stroke="midnightblue" d="M2102.85,-168.324C2120.17,-159.664 2147.02,-146.242 2167,-136.249"/>
<polygon fill="midnightblue" stroke="midnightblue" points="2168.81,-139.257 2176.19,-131.655 2165.68,-132.996 2168.81,-139.257"/>
</g>
<!-- Node48&#45;&gt;Node3 -->
<g id="edge62" class="edge"><title>Node48&#45;&gt;Node3</title>
<path fill="none" stroke="midnightblue" d="M1713.12,-280.443C1707.94,-271.678 1700.49,-257.467 1697.5,-244 1689.3,-207.042 1707.08,-164.348 1719.28,-140.841"/>
<polygon fill="midnightblue" stroke="midnightblue" points="1722.52,-142.204 1724.22,-131.746 1716.37,-138.859 1722.52,-142.204"/>
</g>
<!-- Node49 -->
<g id="node49" class="node"><title>Node49</title>
<g id="a_node49"><a xlink:href="_ogre_atomic_scalar_8h.html" target="_top" xlink:title="OgreAtomicScalar.h">
<polygon fill="none" stroke="red" points="1706.5,-224.5 1706.5,-243.5 1810.5,-243.5 1810.5,-224.5 1706.5,-224.5"/>
<text text-anchor="middle" x="1758.5" y="-231.5" font-family="Helvetica,sans-Serif" font-size="10.00">OgreAtomicScalar.h</text>
</a>
</g>
</g>
<!-- Node48&#45;&gt;Node49 -->
<g id="edge63" class="edge"><title>Node48&#45;&gt;Node49</title>
<path fill="none" stroke="midnightblue" d="M1725.11,-280.083C1730.76,-272.455 1739.04,-261.264 1745.95,-251.941"/>
<polygon fill="midnightblue" stroke="midnightblue" points="1748.88,-253.87 1752.02,-243.751 1743.25,-249.703 1748.88,-253.87"/>
</g>
<!-- Node49&#45;&gt;Node3 -->
<g id="edge64" class="edge"><title>Node49&#45;&gt;Node3</title>
<path fill="none" stroke="midnightblue" d="M1756.22,-224.368C1751.52,-206.537 1740.65,-165.295 1734.32,-141.272"/>
<polygon fill="midnightblue" stroke="midnightblue" points="1737.7,-140.369 1731.77,-131.591 1730.93,-142.153 1737.7,-140.369"/>
</g>
<!-- Node49&#45;&gt;Node44 -->
<g id="edge65" class="edge"><title>Node49&#45;&gt;Node44</title>
<path fill="none" stroke="midnightblue" d="M1785.6,-224.444C1814.49,-215.32 1860.42,-200.813 1892.61,-190.651"/>
<polygon fill="midnightblue" stroke="midnightblue" points="1894.05,-193.865 1902.53,-187.516 1891.94,-187.19 1894.05,-193.865"/>
</g>
<!-- Node50&#45;&gt;Node2 -->
<g id="edge69" class="edge"><title>Node50&#45;&gt;Node2</title>
<path fill="none" stroke="midnightblue" d="M1586.53,-336.444C1547.18,-327.083 1484.01,-312.056 1441.19,-301.868"/>
<polygon fill="midnightblue" stroke="midnightblue" points="1441.84,-298.426 1431.3,-299.516 1440.22,-305.236 1441.84,-298.426"/>
</g>
<!-- Node50&#45;&gt;Node48 -->
<g id="edge70" class="edge"><title>Node50&#45;&gt;Node48</title>
<path fill="none" stroke="midnightblue" d="M1637.92,-336.324C1653.04,-327.822 1676.32,-314.729 1693.97,-304.797"/>
<polygon fill="midnightblue" stroke="midnightblue" points="1696.11,-307.608 1703.11,-299.655 1692.68,-301.507 1696.11,-307.608"/>
</g>
</g>
</svg>
