<?xml version="1.0" encoding="UTF-8" standalone="no"?>
<!DOCTYPE svg PUBLIC "-//W3C//DTD SVG 1.1//EN"
 "http://www.w3.org/Graphics/SVG/1.1/DTD/svg11.dtd">
<!-- Generated by graphviz version 2.38.0 (20140413.2041)
 -->
<!-- Title: OgreGLES2FrameBufferObject.h Pages: 1 -->
<svg width="366pt" height="84pt"
 viewBox="0.00 0.00 366.00 84.00" xmlns="http://www.w3.org/2000/svg" xmlns:xlink="http://www.w3.org/1999/xlink">
<g id="graph0" class="graph" transform="scale(1 1) rotate(0) translate(4 80)">
<title>OgreGLES2FrameBufferObject.h</title>
<!-- Node1 -->
<g id="node1" class="node"><title>Node1</title>
<polygon fill="#bfbfbf" stroke="black" points="103,-56.5 103,-75.5 263,-75.5 263,-56.5 103,-56.5"/>
<text text-anchor="middle" x="183" y="-63.5" font-family="Helvetica,sans-Serif" font-size="10.00">OgreGLES2FrameBufferObject.h</text>
</g>
<!-- Node2 -->
<g id="node2" class="node"><title>Node2</title>
<g id="a_node2"><a xlink:href="_ogre_g_l_e_s2_f_b_o_multi_render_target_8h.html" target="_top" xlink:title="OgreGLES2FBOMultiRenderTarget.h">
<polygon fill="none" stroke="black" points="0,-0.5 0,-19.5 178,-19.5 178,-0.5 0,-0.5"/>
<text text-anchor="middle" x="89" y="-7.5" font-family="Helvetica,sans-Serif" font-size="10.00">OgreGLES2FBOMultiRenderTarget.h</text>
</a>
</g>
</g>
<!-- Node1&#45;&gt;Node2 -->
<g id="edge1" class="edge"><title>Node1&#45;&gt;Node2</title>
<path fill="none" stroke="midnightblue" d="M158.938,-51.1774C141.641,-41.2407 118.852,-28.1492 104.065,-19.6545"/>
<polygon fill="midnightblue" stroke="midnightblue" points="157.483,-54.3775 167.897,-56.324 160.97,-48.3078 157.483,-54.3775"/>
</g>
<!-- Node3 -->
<g id="node3" class="node"><title>Node3</title>
<g id="a_node3"><a xlink:href="_ogre_g_l_e_s2_f_b_o_render_texture_8h.html" target="_top" xlink:title="OgreGLES2FBORenderTexture.h">
<polygon fill="none" stroke="black" points="196,-0.5 196,-19.5 358,-19.5 358,-0.5 196,-0.5"/>
<text text-anchor="middle" x="277" y="-7.5" font-family="Helvetica,sans-Serif" font-size="10.00">OgreGLES2FBORenderTexture.h</text>
</a>
</g>
</g>
<!-- Node1&#45;&gt;Node3 -->
<g id="edge2" class="edge"><title>Node1&#45;&gt;Node3</title>
<path fill="none" stroke="midnightblue" d="M207.062,-51.1774C224.359,-41.2407 247.148,-28.1492 261.935,-19.6545"/>
<polygon fill="midnightblue" stroke="midnightblue" points="205.03,-48.3078 198.103,-56.324 208.517,-54.3775 205.03,-48.3078"/>
</g>
</g>
</svg>
