<?xml version="1.0" encoding="UTF-8" standalone="no"?>
<!DOCTYPE svg PUBLIC "-//W3C//DTD SVG 1.1//EN"
 "http://www.w3.org/Graphics/SVG/1.1/DTD/svg11.dtd">
<!-- Generated by graphviz version 2.38.0 (20140413.2041)
 -->
<!-- Title: OgrePagedWorld.h Pages: 1 -->
<svg width="3229pt" height="364pt"
 viewBox="0.00 0.00 3228.91 364.00" xmlns="http://www.w3.org/2000/svg" xmlns:xlink="http://www.w3.org/1999/xlink">
<g id="graph0" class="graph" transform="scale(1 1) rotate(0) translate(4 360)">
<title>OgrePagedWorld.h</title>
<!-- Node1 -->
<g id="node1" class="node"><title>Node1</title>
<polygon fill="#bfbfbf" stroke="black" points="3044.5,-336.5 3044.5,-355.5 3143.5,-355.5 3143.5,-336.5 3044.5,-336.5"/>
<text text-anchor="middle" x="3094" y="-343.5" font-family="Helvetica,sans-Serif" font-size="10.00">OgrePagedWorld.h</text>
</g>
<!-- Node2 -->
<g id="node2" class="node"><title>Node2</title>
<g id="a_node2"><a xlink:href="_ogre_paging_prerequisites_8h.html" target="_top" xlink:title="OgrePagingPrerequisites.h">
<polygon fill="none" stroke="black" points="3027.5,-280.5 3027.5,-299.5 3160.5,-299.5 3160.5,-280.5 3027.5,-280.5"/>
<text text-anchor="middle" x="3094" y="-287.5" font-family="Helvetica,sans-Serif" font-size="10.00">OgrePagingPrerequisites.h</text>
</a>
</g>
</g>
<!-- Node1&#45;&gt;Node2 -->
<g id="edge1" class="edge"><title>Node1&#45;&gt;Node2</title>
<path fill="none" stroke="midnightblue" d="M3094,-336.083C3094,-329.006 3094,-318.861 3094,-309.986"/>
<polygon fill="midnightblue" stroke="midnightblue" points="3097.5,-309.751 3094,-299.751 3090.5,-309.751 3097.5,-309.751"/>
</g>
<!-- Node43 -->
<g id="node43" class="node"><title>Node43</title>
<g id="a_node43"><a xlink:href="_ogre_common_8h.html" target="_top" xlink:title="OgreCommon.h">
<polygon fill="none" stroke="black" points="3104,-56.5 3104,-75.5 3190,-75.5 3190,-56.5 3104,-56.5"/>
<text text-anchor="middle" x="3147" y="-63.5" font-family="Helvetica,sans-Serif" font-size="10.00">OgreCommon.h</text>
</a>
</g>
</g>
<!-- Node1&#45;&gt;Node43 -->
<g id="edge51" class="edge"><title>Node1&#45;&gt;Node43</title>
<path fill="none" stroke="midnightblue" d="M3122.02,-336.397C3139.17,-329.515 3159.75,-317.984 3170,-300 3210.37,-229.181 3173.38,-126.332 3155.45,-85.0953"/>
<polygon fill="midnightblue" stroke="midnightblue" points="3158.56,-83.4748 3151.27,-75.7888 3152.18,-86.3447 3158.56,-83.4748"/>
</g>
<!-- Node44 -->
<g id="node44" class="node"><title>Node44</title>
<g id="a_node44"><a xlink:href="_ogre_name_generator_8h.html" target="_top" xlink:title="OgreNameGenerator.h">
<polygon fill="none" stroke="black" points="750.5,-280.5 750.5,-299.5 865.5,-299.5 865.5,-280.5 750.5,-280.5"/>
<text text-anchor="middle" x="808" y="-287.5" font-family="Helvetica,sans-Serif" font-size="10.00">OgreNameGenerator.h</text>
</a>
</g>
</g>
<!-- Node1&#45;&gt;Node44 -->
<g id="edge54" class="edge"><title>Node1&#45;&gt;Node44</title>
<path fill="none" stroke="midnightblue" d="M3044.4,-343.828C2748.52,-336.839 1217.83,-300.681 875.824,-292.602"/>
<polygon fill="midnightblue" stroke="midnightblue" points="875.66,-289.097 865.58,-292.36 875.494,-296.095 875.66,-289.097"/>
</g>
<!-- Node3 -->
<g id="node3" class="node"><title>Node3</title>
<g id="a_node3"><a xlink:href="_ogre_prerequisites_8h.html" target="_top" xlink:title="OgrePrerequisites.h">
<polygon fill="none" stroke="black" points="2489.5,-168.5 2489.5,-187.5 2592.5,-187.5 2592.5,-168.5 2489.5,-168.5"/>
<text text-anchor="middle" x="2541" y="-175.5" font-family="Helvetica,sans-Serif" font-size="10.00">OgrePrerequisites.h</text>
</a>
</g>
</g>
<!-- Node2&#45;&gt;Node3 -->
<g id="edge2" class="edge"><title>Node2&#45;&gt;Node3</title>
<path fill="none" stroke="midnightblue" d="M3051.07,-280.46C2951.13,-260.582 2703.19,-211.261 2594.03,-189.548"/>
<polygon fill="midnightblue" stroke="midnightblue" points="2594.4,-186.053 2583.91,-187.535 2593.03,-192.918 2594.4,-186.053"/>
</g>
<!-- Node4 -->
<g id="node4" class="node"><title>Node4</title>
<g id="a_node4"><a xlink:href="_ogre_platform_8h.html" target="_top" xlink:title="OgrePlatform.h">
<polygon fill="none" stroke="black" points="2478.5,-112.5 2478.5,-131.5 2561.5,-131.5 2561.5,-112.5 2478.5,-112.5"/>
<text text-anchor="middle" x="2520" y="-119.5" font-family="Helvetica,sans-Serif" font-size="10.00">OgrePlatform.h</text>
</a>
</g>
</g>
<!-- Node3&#45;&gt;Node4 -->
<g id="edge3" class="edge"><title>Node3&#45;&gt;Node4</title>
<path fill="none" stroke="midnightblue" d="M2537.53,-168.083C2534.69,-160.77 2530.57,-150.181 2527.04,-141.103"/>
<polygon fill="midnightblue" stroke="midnightblue" points="2530.29,-139.803 2523.4,-131.751 2523.77,-142.34 2530.29,-139.803"/>
</g>
<!-- Node6 -->
<g id="node6" class="node"><title>Node6</title>
<polygon fill="none" stroke="#bfbfbf" points="322.5,-56.5 322.5,-75.5 363.5,-75.5 363.5,-56.5 322.5,-56.5"/>
<text text-anchor="middle" x="343" y="-63.5" font-family="Helvetica,sans-Serif" font-size="10.00">string</text>
</g>
<!-- Node3&#45;&gt;Node6 -->
<g id="edge5" class="edge"><title>Node3&#45;&gt;Node6</title>
<path fill="none" stroke="midnightblue" d="M2489.49,-175.986C2308.87,-172.285 1687.45,-158.323 1175,-132 821.469,-113.84 726.262,-139.687 373.489,-75.6301"/>
<polygon fill="midnightblue" stroke="midnightblue" points="373.976,-72.1614 363.51,-73.8069 372.718,-79.0474 373.976,-72.1614"/>
</g>
<!-- Node7 -->
<g id="node7" class="node"><title>Node7</title>
<g id="a_node7"><a xlink:href="_ogre_std_headers_8h.html" target="_top" xlink:title="OgreStdHeaders.h">
<polygon fill="none" stroke="black" points="1184,-112.5 1184,-131.5 1282,-131.5 1282,-112.5 1184,-112.5"/>
<text text-anchor="middle" x="1233" y="-119.5" font-family="Helvetica,sans-Serif" font-size="10.00">OgreStdHeaders.h</text>
</a>
</g>
</g>
<!-- Node3&#45;&gt;Node7 -->
<g id="edge6" class="edge"><title>Node3&#45;&gt;Node7</title>
<path fill="none" stroke="midnightblue" d="M2489.32,-174.867C2282.15,-166.314 1512.37,-134.534 1292.18,-125.443"/>
<polygon fill="midnightblue" stroke="midnightblue" points="1292.25,-121.943 1282.12,-125.028 1291.96,-128.937 1292.25,-121.943"/>
</g>
<!-- Node37 -->
<g id="node37" class="node"><title>Node37</title>
<g id="a_node37"><a xlink:href="_ogre_memory_allocator_config_8h.html" target="_top" xlink:title="This file configures Ogre&#39;s memory allocators. ">
<polygon fill="none" stroke="black" points="2703,-112.5 2703,-131.5 2851,-131.5 2851,-112.5 2703,-112.5"/>
<text text-anchor="middle" x="2777" y="-119.5" font-family="Helvetica,sans-Serif" font-size="10.00">OgreMemoryAllocatorConfig.h</text>
</a>
</g>
</g>
<!-- Node3&#45;&gt;Node37 -->
<g id="edge37" class="edge"><title>Node3&#45;&gt;Node37</title>
<path fill="none" stroke="midnightblue" d="M2578.39,-168.444C2619.39,-159.063 2685.25,-143.993 2729.78,-133.804"/>
<polygon fill="midnightblue" stroke="midnightblue" points="2730.81,-137.159 2739.78,-131.516 2729.25,-130.335 2730.81,-137.159"/>
</g>
<!-- Node5 -->
<g id="node5" class="node"><title>Node5</title>
<g id="a_node5"><a xlink:href="_ogre_config_8h.html" target="_top" xlink:title="OgreConfig.h">
<polygon fill="none" stroke="red" points="2462,-56.5 2462,-75.5 2536,-75.5 2536,-56.5 2462,-56.5"/>
<text text-anchor="middle" x="2499" y="-63.5" font-family="Helvetica,sans-Serif" font-size="10.00">OgreConfig.h</text>
</a>
</g>
</g>
<!-- Node4&#45;&gt;Node5 -->
<g id="edge4" class="edge"><title>Node4&#45;&gt;Node5</title>
<path fill="none" stroke="midnightblue" d="M2516.53,-112.083C2513.69,-104.77 2509.57,-94.1814 2506.04,-85.1034"/>
<polygon fill="midnightblue" stroke="midnightblue" points="2509.29,-83.8025 2502.4,-75.7511 2502.77,-86.3397 2509.29,-83.8025"/>
</g>
<!-- Node7&#45;&gt;Node6 -->
<g id="edge16" class="edge"><title>Node7&#45;&gt;Node6</title>
<path fill="none" stroke="midnightblue" d="M1183.88,-119.973C1028.69,-116.491 549.351,-103.853 373.401,-75.5231"/>
<polygon fill="midnightblue" stroke="midnightblue" points="373.944,-72.0654 363.501,-73.8554 372.781,-78.9681 373.944,-72.0654"/>
</g>
<!-- Node8 -->
<g id="node8" class="node"><title>Node8</title>
<polygon fill="none" stroke="#bfbfbf" points="2017.5,-56.5 2017.5,-75.5 2066.5,-75.5 2066.5,-56.5 2017.5,-56.5"/>
<text text-anchor="middle" x="2042" y="-63.5" font-family="Helvetica,sans-Serif" font-size="10.00">cassert</text>
</g>
<!-- Node7&#45;&gt;Node8 -->
<g id="edge7" class="edge"><title>Node7&#45;&gt;Node8</title>
<path fill="none" stroke="midnightblue" d="M1282.42,-121.683C1404.35,-122.612 1729.25,-120.48 2006.98,-76.0108"/>
<polygon fill="midnightblue" stroke="midnightblue" points="2007.95,-79.4002 2017.26,-74.3427 2006.82,-72.4906 2007.95,-79.4002"/>
</g>
<!-- Node9 -->
<g id="node9" class="node"><title>Node9</title>
<polygon fill="none" stroke="#bfbfbf" points="2084.5,-56.5 2084.5,-75.5 2127.5,-75.5 2127.5,-56.5 2084.5,-56.5"/>
<text text-anchor="middle" x="2106" y="-63.5" font-family="Helvetica,sans-Serif" font-size="10.00">cstdio</text>
</g>
<!-- Node7&#45;&gt;Node9 -->
<g id="edge8" class="edge"><title>Node7&#45;&gt;Node9</title>
<path fill="none" stroke="midnightblue" d="M1282.24,-119.91C1435.44,-116.282 1903.11,-103.357 2074.32,-75.8589"/>
<polygon fill="midnightblue" stroke="midnightblue" points="2074.91,-79.3084 2084.19,-74.1981 2073.75,-72.4053 2074.91,-79.3084"/>
</g>
<!-- Node10 -->
<g id="node10" class="node"><title>Node10</title>
<polygon fill="none" stroke="#bfbfbf" points="2145.5,-56.5 2145.5,-75.5 2190.5,-75.5 2190.5,-56.5 2145.5,-56.5"/>
<text text-anchor="middle" x="2168" y="-63.5" font-family="Helvetica,sans-Serif" font-size="10.00">cstdlib</text>
</g>
<!-- Node7&#45;&gt;Node10 -->
<g id="edge9" class="edge"><title>Node7&#45;&gt;Node10</title>
<path fill="none" stroke="midnightblue" d="M1282.03,-120.063C1442.37,-116.766 1950.95,-104.423 2135.35,-75.8424"/>
<polygon fill="midnightblue" stroke="midnightblue" points="2136.14,-79.2593 2145.45,-74.2039 2135.02,-72.3495 2136.14,-79.2593"/>
</g>
<!-- Node11 -->
<g id="node11" class="node"><title>Node11</title>
<polygon fill="none" stroke="#bfbfbf" points="2208.5,-56.5 2208.5,-75.5 2249.5,-75.5 2249.5,-56.5 2208.5,-56.5"/>
<text text-anchor="middle" x="2229" y="-63.5" font-family="Helvetica,sans-Serif" font-size="10.00">ctime</text>
</g>
<!-- Node7&#45;&gt;Node11 -->
<g id="edge10" class="edge"><title>Node7&#45;&gt;Node11</title>
<path fill="none" stroke="midnightblue" d="M1282.16,-120.362C1450.17,-117.93 2001.52,-107.799 2198.31,-75.8221"/>
<polygon fill="midnightblue" stroke="midnightblue" points="2198.97,-79.2591 2208.25,-74.1343 2197.8,-72.3579 2198.97,-79.2591"/>
</g>
<!-- Node12 -->
<g id="node12" class="node"><title>Node12</title>
<polygon fill="none" stroke="#bfbfbf" points="2268,-56.5 2268,-75.5 2314,-75.5 2314,-56.5 2268,-56.5"/>
<text text-anchor="middle" x="2291" y="-63.5" font-family="Helvetica,sans-Serif" font-size="10.00">cstring</text>
</g>
<!-- Node7&#45;&gt;Node12 -->
<g id="edge11" class="edge"><title>Node7&#45;&gt;Node12</title>
<path fill="none" stroke="midnightblue" d="M1282.03,-120.345C1456.56,-117.784 2047.85,-107.088 2257.72,-75.7719"/>
<polygon fill="midnightblue" stroke="midnightblue" points="2258.38,-79.2118 2267.72,-74.2166 2257.3,-72.2949 2258.38,-79.2118"/>
</g>
<!-- Node13 -->
<g id="node13" class="node"><title>Node13</title>
<polygon fill="none" stroke="#bfbfbf" points="2332.5,-56.5 2332.5,-75.5 2381.5,-75.5 2381.5,-56.5 2332.5,-56.5"/>
<text text-anchor="middle" x="2357" y="-63.5" font-family="Helvetica,sans-Serif" font-size="10.00">cstdarg</text>
</g>
<!-- Node7&#45;&gt;Node13 -->
<g id="edge12" class="edge"><title>Node7&#45;&gt;Node13</title>
<path fill="none" stroke="midnightblue" d="M1282.19,-120.39C1463.98,-117.917 2098.45,-107.306 2322.22,-75.6904"/>
<polygon fill="midnightblue" stroke="midnightblue" points="2322.86,-79.1342 2332.25,-74.2178 2321.85,-72.2086 2322.86,-79.1342"/>
</g>
<!-- Node14 -->
<g id="node14" class="node"><title>Node14</title>
<polygon fill="none" stroke="#bfbfbf" points="2400,-56.5 2400,-75.5 2444,-75.5 2444,-56.5 2400,-56.5"/>
<text text-anchor="middle" x="2422" y="-63.5" font-family="Helvetica,sans-Serif" font-size="10.00">cmath</text>
</g>
<!-- Node7&#45;&gt;Node14 -->
<g id="edge13" class="edge"><title>Node7&#45;&gt;Node14</title>
<path fill="none" stroke="midnightblue" d="M1282.3,-120.681C1471.63,-119.214 2152.87,-111.631 2389.86,-75.7138"/>
<polygon fill="midnightblue" stroke="midnightblue" points="2390.46,-79.1624 2399.8,-74.1486 2389.37,-72.2477 2390.46,-79.1624"/>
</g>
<!-- Node15 -->
<g id="node15" class="node"><title>Node15</title>
<polygon fill="none" stroke="#bfbfbf" points="382,-56.5 382,-75.5 426,-75.5 426,-56.5 382,-56.5"/>
<text text-anchor="middle" x="404" y="-63.5" font-family="Helvetica,sans-Serif" font-size="10.00">vector</text>
</g>
<!-- Node7&#45;&gt;Node15 -->
<g id="edge14" class="edge"><title>Node7&#45;&gt;Node15</title>
<path fill="none" stroke="midnightblue" d="M1183.76,-119.682C1036.4,-115.513 599.478,-101.455 436.541,-75.8069"/>
<polygon fill="midnightblue" stroke="midnightblue" points="436.647,-72.2771 426.21,-74.1007 435.506,-79.1835 436.647,-72.2771"/>
</g>
<!-- Node16 -->
<g id="node16" class="node"><title>Node16</title>
<polygon fill="none" stroke="#bfbfbf" points="444.5,-56.5 444.5,-75.5 479.5,-75.5 479.5,-56.5 444.5,-56.5"/>
<text text-anchor="middle" x="462" y="-63.5" font-family="Helvetica,sans-Serif" font-size="10.00">map</text>
</g>
<!-- Node7&#45;&gt;Node16 -->
<g id="edge15" class="edge"><title>Node7&#45;&gt;Node16</title>
<path fill="none" stroke="midnightblue" d="M1183.78,-119.699C1043.29,-115.728 641.403,-102.495 489.603,-75.4653"/>
<polygon fill="midnightblue" stroke="midnightblue" points="490.016,-71.9817 479.542,-73.5803 488.726,-78.862 490.016,-71.9817"/>
</g>
<!-- Node17 -->
<g id="node17" class="node"><title>Node17</title>
<polygon fill="none" stroke="#bfbfbf" points="498,-56.5 498,-75.5 528,-75.5 528,-56.5 498,-56.5"/>
<text text-anchor="middle" x="513" y="-63.5" font-family="Helvetica,sans-Serif" font-size="10.00">set</text>
</g>
<!-- Node7&#45;&gt;Node17 -->
<g id="edge17" class="edge"><title>Node7&#45;&gt;Node17</title>
<path fill="none" stroke="midnightblue" d="M1183.74,-119.695C1049.68,-115.851 679.391,-103.221 538.196,-75.5124"/>
<polygon fill="midnightblue" stroke="midnightblue" points="538.536,-72.0085 528.033,-73.4038 537.113,-78.8625 538.536,-72.0085"/>
</g>
<!-- Node18 -->
<g id="node18" class="node"><title>Node18</title>
<polygon fill="none" stroke="#bfbfbf" points="546.5,-56.5 546.5,-75.5 575.5,-75.5 575.5,-56.5 546.5,-56.5"/>
<text text-anchor="middle" x="561" y="-63.5" font-family="Helvetica,sans-Serif" font-size="10.00">list</text>
</g>
<!-- Node7&#45;&gt;Node18 -->
<g id="edge18" class="edge"><title>Node7&#45;&gt;Node18</title>
<path fill="none" stroke="midnightblue" d="M1183.78,-119.518C1056.3,-115.381 716.736,-102.378 586.039,-75.7699"/>
<polygon fill="midnightblue" stroke="midnightblue" points="586.402,-72.2677 575.888,-73.5781 584.924,-79.11 586.402,-72.2677"/>
</g>
<!-- Node19 -->
<g id="node19" class="node"><title>Node19</title>
<polygon fill="none" stroke="#bfbfbf" points="593.5,-56.5 593.5,-75.5 636.5,-75.5 636.5,-56.5 593.5,-56.5"/>
<text text-anchor="middle" x="615" y="-63.5" font-family="Helvetica,sans-Serif" font-size="10.00">deque</text>
</g>
<!-- Node7&#45;&gt;Node19 -->
<g id="edge19" class="edge"><title>Node7&#45;&gt;Node19</title>
<path fill="none" stroke="midnightblue" d="M1183.75,-120.791C1083.79,-119.6 849.978,-112.919 646.779,-75.9777"/>
<polygon fill="midnightblue" stroke="midnightblue" points="647.291,-72.513 636.821,-74.1382 646.019,-79.3966 647.291,-72.513"/>
</g>
<!-- Node20 -->
<g id="node20" class="node"><title>Node20</title>
<polygon fill="none" stroke="#bfbfbf" points="654.5,-56.5 654.5,-75.5 697.5,-75.5 697.5,-56.5 654.5,-56.5"/>
<text text-anchor="middle" x="676" y="-63.5" font-family="Helvetica,sans-Serif" font-size="10.00">queue</text>
</g>
<!-- Node7&#45;&gt;Node20 -->
<g id="edge20" class="edge"><title>Node7&#45;&gt;Node20</title>
<path fill="none" stroke="midnightblue" d="M1183.86,-120.176C1091.82,-117.903 887.207,-109.407 707.707,-75.9856"/>
<polygon fill="midnightblue" stroke="midnightblue" points="708.302,-72.5361 697.826,-74.1154 707,-79.414 708.302,-72.5361"/>
</g>
<!-- Node21 -->
<g id="node21" class="node"><title>Node21</title>
<polygon fill="none" stroke="#bfbfbf" points="715.5,-56.5 715.5,-75.5 756.5,-75.5 756.5,-56.5 715.5,-56.5"/>
<text text-anchor="middle" x="736" y="-63.5" font-family="Helvetica,sans-Serif" font-size="10.00">bitset</text>
</g>
<!-- Node7&#45;&gt;Node21 -->
<g id="edge21" class="edge"><title>Node7&#45;&gt;Node21</title>
<path fill="none" stroke="midnightblue" d="M1183.8,-119.417C1099.92,-116.031 923.876,-105.949 766.39,-75.6626"/>
<polygon fill="midnightblue" stroke="midnightblue" points="767.01,-72.2175 756.524,-73.7336 765.667,-79.0875 767.01,-72.2175"/>
</g>
<!-- Node22 -->
<g id="node22" class="node"><title>Node22</title>
<polygon fill="none" stroke="#bfbfbf" points="775,-56.5 775,-75.5 831,-75.5 831,-56.5 775,-56.5"/>
<text text-anchor="middle" x="803" y="-63.5" font-family="Helvetica,sans-Serif" font-size="10.00">algorithm</text>
</g>
<!-- Node7&#45;&gt;Node22 -->
<g id="edge22" class="edge"><title>Node7&#45;&gt;Node22</title>
<path fill="none" stroke="midnightblue" d="M1183.7,-117.34C1110.87,-111.496 970.094,-98.5421 841.249,-76.0236"/>
<polygon fill="midnightblue" stroke="midnightblue" points="841.662,-72.5423 831.205,-74.2441 840.441,-79.435 841.662,-72.5423"/>
</g>
<!-- Node23 -->
<g id="node23" class="node"><title>Node23</title>
<polygon fill="none" stroke="#bfbfbf" points="849.5,-56.5 849.5,-75.5 908.5,-75.5 908.5,-56.5 849.5,-56.5"/>
<text text-anchor="middle" x="879" y="-63.5" font-family="Helvetica,sans-Serif" font-size="10.00">functional</text>
</g>
<!-- Node7&#45;&gt;Node23 -->
<g id="edge23" class="edge"><title>Node7&#45;&gt;Node23</title>
<path fill="none" stroke="midnightblue" d="M1183.95,-115.303C1123.82,-108.028 1018.6,-94.3599 918.715,-75.9913"/>
<polygon fill="midnightblue" stroke="midnightblue" points="919.227,-72.5267 908.756,-74.1407 917.948,-79.4088 919.227,-72.5267"/>
</g>
<!-- Node24 -->
<g id="node24" class="node"><title>Node24</title>
<polygon fill="none" stroke="#bfbfbf" points="927,-56.5 927,-75.5 967,-75.5 967,-56.5 927,-56.5"/>
<text text-anchor="middle" x="947" y="-63.5" font-family="Helvetica,sans-Serif" font-size="10.00">limits</text>
</g>
<!-- Node7&#45;&gt;Node24 -->
<g id="edge24" class="edge"><title>Node7&#45;&gt;Node24</title>
<path fill="none" stroke="midnightblue" d="M1183.83,-114.296C1133.95,-107.072 1054.41,-94.3865 977.095,-76.0151"/>
<polygon fill="midnightblue" stroke="midnightblue" points="977.732,-72.5684 967.19,-73.6266 976.091,-79.3733 977.732,-72.5684"/>
</g>
<!-- Node25 -->
<g id="node25" class="node"><title>Node25</title>
<polygon fill="none" stroke="#bfbfbf" points="985,-56.5 985,-75.5 1035,-75.5 1035,-56.5 985,-56.5"/>
<text text-anchor="middle" x="1010" y="-63.5" font-family="Helvetica,sans-Serif" font-size="10.00">fstream</text>
</g>
<!-- Node7&#45;&gt;Node25 -->
<g id="edge25" class="edge"><title>Node7&#45;&gt;Node25</title>
<path fill="none" stroke="midnightblue" d="M1196.56,-112.469C1158.66,-103.55 1097.6,-89.0582 1045,-76 1044.9,-75.9754 1044.8,-75.9508 1044.7,-75.9262"/>
<polygon fill="midnightblue" stroke="midnightblue" points="1045.77,-72.5868 1035.22,-73.5395 1044.07,-79.375 1045.77,-72.5868"/>
</g>
<!-- Node26 -->
<g id="node26" class="node"><title>Node26</title>
<polygon fill="none" stroke="#bfbfbf" points="1053.5,-56.5 1053.5,-75.5 1098.5,-75.5 1098.5,-56.5 1053.5,-56.5"/>
<text text-anchor="middle" x="1076" y="-63.5" font-family="Helvetica,sans-Serif" font-size="10.00">iosfwd</text>
</g>
<!-- Node7&#45;&gt;Node26 -->
<g id="edge26" class="edge"><title>Node7&#45;&gt;Node26</title>
<path fill="none" stroke="midnightblue" d="M1208.12,-112.444C1181.09,-103.145 1137.8,-88.2572 1108.2,-78.0735"/>
<polygon fill="midnightblue" stroke="midnightblue" points="1109.32,-74.7579 1098.72,-74.8151 1107.04,-81.3774 1109.32,-74.7579"/>
</g>
<!-- Node27 -->
<g id="node27" class="node"><title>Node27</title>
<polygon fill="none" stroke="#bfbfbf" points="252,-56.5 252,-75.5 304,-75.5 304,-56.5 252,-56.5"/>
<text text-anchor="middle" x="278" y="-63.5" font-family="Helvetica,sans-Serif" font-size="10.00">sstream</text>
</g>
<!-- Node7&#45;&gt;Node27 -->
<g id="edge27" class="edge"><title>Node7&#45;&gt;Node27</title>
<path fill="none" stroke="midnightblue" d="M1184,-119.915C1021.82,-116.12 502.592,-102.309 314.308,-75.8345"/>
<polygon fill="midnightblue" stroke="midnightblue" points="314.657,-72.3485 304.255,-74.3604 313.642,-79.2744 314.657,-72.3485"/>
</g>
<!-- Node28 -->
<g id="node28" class="node"><title>Node28</title>
<polygon fill="none" stroke="#bfbfbf" points="1117,-56.5 1117,-75.5 1185,-75.5 1185,-56.5 1117,-56.5"/>
<text text-anchor="middle" x="1151" y="-63.5" font-family="Helvetica,sans-Serif" font-size="10.00">sys/types.h</text>
</g>
<!-- Node7&#45;&gt;Node28 -->
<g id="edge28" class="edge"><title>Node7&#45;&gt;Node28</title>
<path fill="none" stroke="midnightblue" d="M1219.83,-112.324C1207.15,-103.979 1187.77,-91.2122 1172.79,-81.3524"/>
<polygon fill="midnightblue" stroke="midnightblue" points="1174.42,-78.2313 1164.14,-75.6545 1170.57,-84.0776 1174.42,-78.2313"/>
</g>
<!-- Node29 -->
<g id="node29" class="node"><title>Node29</title>
<polygon fill="none" stroke="#bfbfbf" points="1203,-56.5 1203,-75.5 1263,-75.5 1263,-56.5 1203,-56.5"/>
<text text-anchor="middle" x="1233" y="-63.5" font-family="Helvetica,sans-Serif" font-size="10.00">sys/stat.h</text>
</g>
<!-- Node7&#45;&gt;Node29 -->
<g id="edge29" class="edge"><title>Node7&#45;&gt;Node29</title>
<path fill="none" stroke="midnightblue" d="M1233,-112.083C1233,-105.006 1233,-94.8611 1233,-85.9865"/>
<polygon fill="midnightblue" stroke="midnightblue" points="1236.5,-85.751 1233,-75.7511 1229.5,-85.7511 1236.5,-85.751"/>
</g>
<!-- Node30 -->
<g id="node30" class="node"><title>Node30</title>
<polygon fill="none" stroke="#bfbfbf" points="1281.5,-56.5 1281.5,-75.5 1332.5,-75.5 1332.5,-56.5 1281.5,-56.5"/>
<text text-anchor="middle" x="1307" y="-63.5" font-family="Helvetica,sans-Serif" font-size="10.00">unistd.h</text>
</g>
<!-- Node7&#45;&gt;Node30 -->
<g id="edge30" class="edge"><title>Node7&#45;&gt;Node30</title>
<path fill="none" stroke="midnightblue" d="M1244.89,-112.324C1256.15,-104.107 1273.29,-91.6017 1286.71,-81.8069"/>
<polygon fill="midnightblue" stroke="midnightblue" points="1288.88,-84.5559 1294.89,-75.8339 1284.75,-78.9014 1288.88,-84.5559"/>
</g>
<!-- Node31 -->
<g id="node31" class="node"><title>Node31</title>
<polygon fill="none" stroke="#bfbfbf" points="1351,-56.5 1351,-75.5 1397,-75.5 1397,-56.5 1351,-56.5"/>
<text text-anchor="middle" x="1374" y="-63.5" font-family="Helvetica,sans-Serif" font-size="10.00">dlfcn.h</text>
</g>
<!-- Node7&#45;&gt;Node31 -->
<g id="edge31" class="edge"><title>Node7&#45;&gt;Node31</title>
<path fill="none" stroke="midnightblue" d="M1255.34,-112.444C1278.75,-103.478 1315.74,-89.314 1342.19,-79.1827"/>
<polygon fill="midnightblue" stroke="midnightblue" points="1343.68,-82.3615 1351.76,-75.5164 1341.17,-75.8245 1343.68,-82.3615"/>
</g>
<!-- Node32 -->
<g id="node32" class="node"><title>Node32</title>
<polygon fill="none" stroke="#bfbfbf" points="1415,-56.5 1415,-75.5 1493,-75.5 1493,-56.5 1415,-56.5"/>
<text text-anchor="middle" x="1454" y="-63.5" font-family="Helvetica,sans-Serif" font-size="10.00">ext/hash_map</text>
</g>
<!-- Node7&#45;&gt;Node32 -->
<g id="edge32" class="edge"><title>Node7&#45;&gt;Node32</title>
<path fill="none" stroke="midnightblue" d="M1268.02,-112.444C1306.25,-103.102 1367.57,-88.1194 1409.26,-77.9326"/>
<polygon fill="midnightblue" stroke="midnightblue" points="1410.26,-81.2901 1419.15,-75.5164 1408.6,-74.4901 1410.26,-81.2901"/>
</g>
<!-- Node33 -->
<g id="node33" class="node"><title>Node33</title>
<polygon fill="none" stroke="#bfbfbf" points="1511.5,-56.5 1511.5,-75.5 1584.5,-75.5 1584.5,-56.5 1511.5,-56.5"/>
<text text-anchor="middle" x="1548" y="-63.5" font-family="Helvetica,sans-Serif" font-size="10.00">ext/hash_set</text>
</g>
<!-- Node7&#45;&gt;Node33 -->
<g id="edge33" class="edge"><title>Node7&#45;&gt;Node33</title>
<path fill="none" stroke="midnightblue" d="M1282.16,-113.192C1334.03,-104.86 1418.44,-91.0379 1501.27,-76.0911"/>
<polygon fill="midnightblue" stroke="midnightblue" points="1502.14,-79.4897 1511.36,-74.263 1500.9,-72.6018 1502.14,-79.4897"/>
</g>
<!-- Node34 -->
<g id="node34" class="node"><title>Node34</title>
<polygon fill="none" stroke="#bfbfbf" points="1602.5,-56.5 1602.5,-75.5 1673.5,-75.5 1673.5,-56.5 1602.5,-56.5"/>
<text text-anchor="middle" x="1638" y="-63.5" font-family="Helvetica,sans-Serif" font-size="10.00">sys/param.h</text>
</g>
<!-- Node7&#45;&gt;Node34 -->
<g id="edge34" class="edge"><title>Node7&#45;&gt;Node34</title>
<path fill="none" stroke="midnightblue" d="M1282.22,-116.091C1349.9,-109.07 1475.68,-95.0544 1591.89,-76.2522"/>
<polygon fill="midnightblue" stroke="midnightblue" points="1592.72,-79.6631 1602.02,-74.596 1591.59,-72.7547 1592.72,-79.6631"/>
</g>
<!-- Node35 -->
<g id="node35" class="node"><title>Node35</title>
<polygon fill="none" stroke="#bfbfbf" points="1692,-56.5 1692,-75.5 1858,-75.5 1858,-56.5 1692,-56.5"/>
<text text-anchor="middle" x="1775" y="-63.5" font-family="Helvetica,sans-Serif" font-size="10.00">CoreFoundation/CoreFoundation.h</text>
</g>
<!-- Node7&#45;&gt;Node35 -->
<g id="edge35" class="edge"><title>Node7&#45;&gt;Node35</title>
<path fill="none" stroke="midnightblue" d="M1282.05,-116.113C1372.23,-107.128 1565.7,-87.8528 1681.64,-76.3018"/>
<polygon fill="midnightblue" stroke="midnightblue" points="1682.31,-79.7518 1691.92,-75.2776 1681.62,-72.7863 1682.31,-79.7518"/>
</g>
<!-- Node36 -->
<g id="node36" class="node"><title>Node36</title>
<polygon fill="none" stroke="#bfbfbf" points="1876,-56.5 1876,-75.5 2000,-75.5 2000,-56.5 1876,-56.5"/>
<text text-anchor="middle" x="1938" y="-63.5" font-family="Helvetica,sans-Serif" font-size="10.00">emscripten/emscripten.h</text>
</g>
<!-- Node7&#45;&gt;Node36 -->
<g id="edge36" class="edge"><title>Node7&#45;&gt;Node36</title>
<path fill="none" stroke="midnightblue" d="M1282.4,-118.425C1387.65,-112.737 1641.98,-97.9228 1865.73,-76.0759"/>
<polygon fill="midnightblue" stroke="midnightblue" points="1866.07,-79.5586 1875.68,-75.0969 1865.39,-72.5922 1866.07,-79.5586"/>
</g>
<!-- Node38 -->
<g id="node38" class="node"><title>Node38</title>
<g id="a_node38"><a xlink:href="_ogre_memory_allocated_object_8h.html" target="_top" xlink:title="OgreMemoryAllocatedObject.h">
<polygon fill="none" stroke="black" points="2592,-56.5 2592,-75.5 2742,-75.5 2742,-56.5 2592,-56.5"/>
<text text-anchor="middle" x="2667" y="-63.5" font-family="Helvetica,sans-Serif" font-size="10.00">OgreMemoryAllocatedObject.h</text>
</a>
</g>
</g>
<!-- Node37&#45;&gt;Node38 -->
<g id="edge38" class="edge"><title>Node37&#45;&gt;Node38</title>
<path fill="none" stroke="midnightblue" d="M2759.33,-112.324C2741.61,-103.625 2714.1,-90.1202 2693.71,-80.113"/>
<polygon fill="midnightblue" stroke="midnightblue" points="2695.15,-76.9195 2684.63,-75.6545 2692.06,-83.2031 2695.15,-76.9195"/>
</g>
<!-- Node39 -->
<g id="node39" class="node"><title>Node39</title>
<g id="a_node39"><a xlink:href="_ogre_header_prefix_8h.html" target="_top" xlink:title="OgreHeaderPrefix.h">
<polygon fill="none" stroke="black" points="2615.5,-0.5 2615.5,-19.5 2718.5,-19.5 2718.5,-0.5 2615.5,-0.5"/>
<text text-anchor="middle" x="2667" y="-7.5" font-family="Helvetica,sans-Serif" font-size="10.00">OgreHeaderPrefix.h</text>
</a>
</g>
</g>
<!-- Node37&#45;&gt;Node39 -->
<g id="edge42" class="edge"><title>Node37&#45;&gt;Node39</title>
<path fill="none" stroke="midnightblue" d="M2702.87,-113.327C2654.66,-106.631 2598.06,-94.9487 2583,-76 2565.3,-53.7237 2599.45,-34.6869 2629.38,-23.0773"/>
<polygon fill="midnightblue" stroke="midnightblue" points="2630.71,-26.3185 2638.88,-19.5742 2628.29,-19.751 2630.71,-26.3185"/>
</g>
<!-- Node40 -->
<g id="node40" class="node"><title>Node40</title>
<g id="a_node40"><a xlink:href="_ogre_header_suffix_8h.html" target="_top" xlink:title="OgreHeaderSuffix.h">
<polygon fill="none" stroke="black" points="2965.5,-0.5 2965.5,-19.5 3068.5,-19.5 3068.5,-0.5 2965.5,-0.5"/>
<text text-anchor="middle" x="3017" y="-7.5" font-family="Helvetica,sans-Serif" font-size="10.00">OgreHeaderSuffix.h</text>
</a>
</g>
</g>
<!-- Node37&#45;&gt;Node40 -->
<g id="edge50" class="edge"><title>Node37&#45;&gt;Node40</title>
<path fill="none" stroke="midnightblue" d="M2804.6,-112.415C2830.08,-104.159 2868.73,-90.7797 2901,-76 2919.01,-67.7531 2965,-41.3561 2993.36,-24.8472"/>
<polygon fill="midnightblue" stroke="midnightblue" points="2995.37,-27.7302 3002.24,-19.6681 2991.84,-21.6838 2995.37,-27.7302"/>
</g>
<!-- Node41 -->
<g id="node41" class="node"><title>Node41</title>
<g id="a_node41"><a xlink:href="_ogre_memory_s_t_l_allocator_8h.html" target="_top" xlink:title="OgreMemorySTLAllocator.h">
<polygon fill="none" stroke="black" points="2948.5,-56.5 2948.5,-75.5 3085.5,-75.5 3085.5,-56.5 2948.5,-56.5"/>
<text text-anchor="middle" x="3017" y="-63.5" font-family="Helvetica,sans-Serif" font-size="10.00">OgreMemorySTLAllocator.h</text>
</a>
</g>
</g>
<!-- Node37&#45;&gt;Node41 -->
<g id="edge43" class="edge"><title>Node37&#45;&gt;Node41</title>
<path fill="none" stroke="midnightblue" d="M2815.03,-112.444C2856.81,-103.043 2923.98,-87.9291 2969.27,-77.7393"/>
<polygon fill="midnightblue" stroke="midnightblue" points="2970.16,-81.1263 2979.15,-75.5164 2968.62,-74.297 2970.16,-81.1263"/>
</g>
<!-- Node42 -->
<g id="node42" class="node"><title>Node42</title>
<g id="a_node42"><a xlink:href="_ogre_memory_ned_pooling_8h.html" target="_top" xlink:title="OgreMemoryNedPooling.h">
<polygon fill="none" stroke="black" points="2760.5,-56.5 2760.5,-75.5 2891.5,-75.5 2891.5,-56.5 2760.5,-56.5"/>
<text text-anchor="middle" x="2826" y="-63.5" font-family="Helvetica,sans-Serif" font-size="10.00">OgreMemoryNedPooling.h</text>
</a>
</g>
</g>
<!-- Node37&#45;&gt;Node42 -->
<g id="edge47" class="edge"><title>Node37&#45;&gt;Node42</title>
<path fill="none" stroke="midnightblue" d="M2785.09,-112.083C2792.16,-104.298 2802.59,-92.8015 2811.15,-83.3665"/>
<polygon fill="midnightblue" stroke="midnightblue" points="2813.93,-85.5087 2818.06,-75.7511 2808.75,-80.8047 2813.93,-85.5087"/>
</g>
<!-- Node38&#45;&gt;Node3 -->
<g id="edge39" class="edge"><title>Node38&#45;&gt;Node3</title>
<path fill="none" stroke="midnightblue" d="M2657.16,-75.5914C2635.95,-94.1096 2585.66,-138.007 2558.74,-161.512"/>
<polygon fill="midnightblue" stroke="midnightblue" points="2556.12,-159.155 2550.89,-168.368 2560.72,-164.428 2556.12,-159.155"/>
</g>
<!-- Node38&#45;&gt;Node39 -->
<g id="edge40" class="edge"><title>Node38&#45;&gt;Node39</title>
<path fill="none" stroke="midnightblue" d="M2667,-56.083C2667,-49.0059 2667,-38.8611 2667,-29.9865"/>
<polygon fill="midnightblue" stroke="midnightblue" points="2670.5,-29.751 2667,-19.7511 2663.5,-29.7511 2670.5,-29.751"/>
</g>
<!-- Node38&#45;&gt;Node40 -->
<g id="edge41" class="edge"><title>Node38&#45;&gt;Node40</title>
<path fill="none" stroke="midnightblue" d="M2722.46,-56.4435C2785.76,-46.6763 2889.05,-30.7408 2954.98,-20.5694"/>
<polygon fill="midnightblue" stroke="midnightblue" points="2955.87,-23.9723 2965.22,-18.9883 2954.81,-17.0541 2955.87,-23.9723"/>
</g>
<!-- Node41&#45;&gt;Node3 -->
<g id="edge44" class="edge"><title>Node41&#45;&gt;Node3</title>
<path fill="none" stroke="midnightblue" d="M3000.08,-75.6826C2971.83,-89.789 2912.94,-117.558 2860,-132 2772.42,-155.894 2667.65,-167.579 2602.71,-172.931"/>
<polygon fill="midnightblue" stroke="midnightblue" points="2602.32,-169.451 2592.63,-173.737 2602.88,-176.428 2602.32,-169.451"/>
</g>
<!-- Node41&#45;&gt;Node39 -->
<g id="edge45" class="edge"><title>Node41&#45;&gt;Node39</title>
<path fill="none" stroke="midnightblue" d="M2961.54,-56.4435C2898.24,-46.6763 2794.95,-30.7408 2729.02,-20.5694"/>
<polygon fill="midnightblue" stroke="midnightblue" points="2729.19,-17.0541 2718.78,-18.9883 2728.13,-23.9723 2729.19,-17.0541"/>
</g>
<!-- Node41&#45;&gt;Node40 -->
<g id="edge46" class="edge"><title>Node41&#45;&gt;Node40</title>
<path fill="none" stroke="midnightblue" d="M3017,-56.083C3017,-49.0059 3017,-38.8611 3017,-29.9865"/>
<polygon fill="midnightblue" stroke="midnightblue" points="3020.5,-29.751 3017,-19.7511 3013.5,-29.7511 3020.5,-29.751"/>
</g>
<!-- Node42&#45;&gt;Node39 -->
<g id="edge48" class="edge"><title>Node42&#45;&gt;Node39</title>
<path fill="none" stroke="midnightblue" d="M2800.81,-56.4435C2774.06,-47.3591 2731.6,-32.9388 2701.69,-22.7831"/>
<polygon fill="midnightblue" stroke="midnightblue" points="2702.67,-19.4182 2692.08,-19.5164 2700.42,-26.0464 2702.67,-19.4182"/>
</g>
<!-- Node42&#45;&gt;Node40 -->
<g id="edge49" class="edge"><title>Node42&#45;&gt;Node40</title>
<path fill="none" stroke="midnightblue" d="M2856.26,-56.4435C2888.96,-47.2011 2941.18,-32.4356 2977.18,-22.2572"/>
<polygon fill="midnightblue" stroke="midnightblue" points="2978.21,-25.6051 2986.88,-19.5164 2976.3,-18.8691 2978.21,-25.6051"/>
</g>
<!-- Node43&#45;&gt;Node39 -->
<g id="edge52" class="edge"><title>Node43&#45;&gt;Node39</title>
<path fill="none" stroke="midnightblue" d="M3103.9,-57.3135C3100.89,-56.8468 3097.9,-56.4035 3095,-56 2964.99,-37.9356 2811.87,-23.4731 2728.57,-16.1756"/>
<polygon fill="midnightblue" stroke="midnightblue" points="2728.79,-12.6811 2718.52,-15.3001 2728.18,-19.6547 2728.79,-12.6811"/>
</g>
<!-- Node43&#45;&gt;Node40 -->
<g id="edge53" class="edge"><title>Node43&#45;&gt;Node40</title>
<path fill="none" stroke="midnightblue" d="M3126.4,-56.4435C3105.01,-47.5566 3071.32,-33.5632 3046.98,-23.4514"/>
<polygon fill="midnightblue" stroke="midnightblue" points="3048.08,-20.1203 3037.5,-19.5164 3045.39,-26.5848 3048.08,-20.1203"/>
</g>
<!-- Node44&#45;&gt;Node27 -->
<g id="edge59" class="edge"><title>Node44&#45;&gt;Node27</title>
<path fill="none" stroke="midnightblue" d="M787.548,-280.433C706.061,-246.301 404.283,-119.896 307.84,-79.4989"/>
<polygon fill="midnightblue" stroke="midnightblue" points="308.967,-76.1764 298.391,-75.5411 306.262,-82.6329 308.967,-76.1764"/>
</g>
<!-- Node44&#45;&gt;Node39 -->
<g id="edge60" class="edge"><title>Node44&#45;&gt;Node39</title>
<path fill="none" stroke="midnightblue" d="M750.321,-284.841C596.124,-272.957 186,-235.99 186,-179 186,-179 186,-179 186,-121 186,-87.0792 196.543,-72.8188 226,-56 279.233,-25.6062 2230.57,-13.392 2605.16,-11.3249"/>
<polygon fill="midnightblue" stroke="midnightblue" points="2605.29,-14.8243 2615.27,-11.2695 2605.25,-7.82443 2605.29,-14.8243"/>
</g>
<!-- Node44&#45;&gt;Node40 -->
<g id="edge64" class="edge"><title>Node44&#45;&gt;Node40</title>
<path fill="none" stroke="midnightblue" d="M865.694,-289.258C1220.23,-290.168 3092.72,-285.035 3217,-76 3221.54,-68.3595 3222.55,-62.9411 3217,-56 3199.91,-34.6354 3131.21,-22.7017 3079.05,-16.5771"/>
<polygon fill="midnightblue" stroke="midnightblue" points="3079.19,-13.0706 3068.86,-15.4285 3078.41,-20.0266 3079.19,-13.0706"/>
</g>
<!-- Node45 -->
<g id="node45" class="node"><title>Node45</title>
<g id="a_node45"><a xlink:href="_ogre_string_8h.html" target="_top" xlink:title="OgreString.h">
<polygon fill="none" stroke="black" points="1343.5,-224.5 1343.5,-243.5 1414.5,-243.5 1414.5,-224.5 1343.5,-224.5"/>
<text text-anchor="middle" x="1379" y="-231.5" font-family="Helvetica,sans-Serif" font-size="10.00">OgreString.h</text>
</a>
</g>
</g>
<!-- Node44&#45;&gt;Node45 -->
<g id="edge55" class="edge"><title>Node44&#45;&gt;Node45</title>
<path fill="none" stroke="midnightblue" d="M865.628,-283.55C979.241,-272.806 1230.04,-249.087 1333.26,-239.326"/>
<polygon fill="midnightblue" stroke="midnightblue" points="1333.73,-242.797 1343.36,-238.371 1333.07,-235.828 1333.73,-242.797"/>
</g>
<!-- Node46 -->
<g id="node46" class="node"><title>Node46</title>
<g id="a_node46"><a xlink:href="_ogre_thread_headers_8h.html" target="_top" xlink:title="Threading/OgreThreadHeaders.h">
<polygon fill="none" stroke="black" points="0,-224.5 0,-243.5 158,-243.5 158,-224.5 0,-224.5"/>
<text text-anchor="middle" x="79" y="-231.5" font-family="Helvetica,sans-Serif" font-size="10.00">Threading/OgreThreadHeaders.h</text>
</a>
</g>
</g>
<!-- Node44&#45;&gt;Node46 -->
<g id="edge61" class="edge"><title>Node44&#45;&gt;Node46</title>
<path fill="none" stroke="midnightblue" d="M750.085,-285.405C638.269,-278.352 384.892,-261.83 172,-244 170.727,-243.893 169.444,-243.785 168.154,-243.675"/>
<polygon fill="midnightblue" stroke="midnightblue" points="168.402,-240.183 158.135,-242.799 167.792,-247.156 168.402,-240.183"/>
</g>
<!-- Node45&#45;&gt;Node3 -->
<g id="edge56" class="edge"><title>Node45&#45;&gt;Node3</title>
<path fill="none" stroke="midnightblue" d="M1414.73,-231.34C1579.61,-223.677 2267.93,-191.69 2479.12,-181.876"/>
<polygon fill="midnightblue" stroke="midnightblue" points="2479.57,-185.358 2489.4,-181.398 2479.25,-178.366 2479.57,-185.358"/>
</g>
<!-- Node45&#45;&gt;Node39 -->
<g id="edge57" class="edge"><title>Node45&#45;&gt;Node39</title>
<path fill="none" stroke="midnightblue" d="M1343.32,-232.97C1134.13,-232.225 81.6783,-220.344 243,-56 285.642,-12.5591 2231.64,-10.884 2605.31,-10.9633"/>
<polygon fill="midnightblue" stroke="midnightblue" points="2605.39,-14.4632 2615.39,-10.966 2605.39,-7.46323 2605.39,-14.4632"/>
</g>
<!-- Node45&#45;&gt;Node40 -->
<g id="edge58" class="edge"><title>Node45&#45;&gt;Node40</title>
<path fill="none" stroke="midnightblue" d="M1414.78,-232.883C1659.54,-231.71 3080.65,-218.751 3199,-76 3235.08,-32.481 3144.83,-18.0906 3078.91,-13.3375"/>
<polygon fill="midnightblue" stroke="midnightblue" points="3078.78,-9.82085 3068.57,-12.6545 3078.31,-16.8056 3078.78,-9.82085"/>
</g>
<!-- Node47 -->
<g id="node47" class="node"><title>Node47</title>
<g id="a_node47"><a xlink:href="_ogre_thread_defines_8h.html" target="_top" xlink:title="OgreThreadDefines.h">
<polygon fill="none" stroke="black" points="24,-168.5 24,-187.5 134,-187.5 134,-168.5 24,-168.5"/>
<text text-anchor="middle" x="79" y="-175.5" font-family="Helvetica,sans-Serif" font-size="10.00">OgreThreadDefines.h</text>
</a>
</g>
</g>
<!-- Node46&#45;&gt;Node47 -->
<g id="edge62" class="edge"><title>Node46&#45;&gt;Node47</title>
<path fill="none" stroke="midnightblue" d="M79,-224.083C79,-217.006 79,-206.861 79,-197.986"/>
<polygon fill="midnightblue" stroke="midnightblue" points="82.5001,-197.751 79,-187.751 75.5001,-197.751 82.5001,-197.751"/>
</g>
<!-- Node48 -->
<g id="node48" class="node"><title>Node48</title>
<g id="a_node48"><a xlink:href="_ogre_thread_defines_none_8h.html" target="_top" xlink:title="OgreThreadDefinesNone.h">
<polygon fill="none" stroke="black" points="12.5,-112.5 12.5,-131.5 145.5,-131.5 145.5,-112.5 12.5,-112.5"/>
<text text-anchor="middle" x="79" y="-119.5" font-family="Helvetica,sans-Serif" font-size="10.00">OgreThreadDefinesNone.h</text>
</a>
</g>
</g>
<!-- Node47&#45;&gt;Node48 -->
<g id="edge63" class="edge"><title>Node47&#45;&gt;Node48</title>
<path fill="none" stroke="midnightblue" d="M79,-168.083C79,-161.006 79,-150.861 79,-141.986"/>
<polygon fill="midnightblue" stroke="midnightblue" points="82.5001,-141.751 79,-131.751 75.5001,-141.751 82.5001,-141.751"/>
</g>
</g>
</svg>
