<?xml version="1.0" encoding="UTF-8" standalone="no"?>
<!DOCTYPE svg PUBLIC "-//W3C//DTD SVG 1.1//EN"
 "http://www.w3.org/Graphics/SVG/1.1/DTD/svg11.dtd">
<!-- Generated by graphviz version 2.38.0 (20140413.2041)
 -->
<!-- Title: OgreGL3PlusPrerequisites.h Pages: 1 -->
<svg width="3084pt" height="341pt"
 viewBox="0.00 0.00 3084.00 341.00" xmlns="http://www.w3.org/2000/svg" xmlns:xlink="http://www.w3.org/1999/xlink">
<g id="graph0" class="graph" transform="scale(1 1) rotate(0) translate(4 337)">
<title>OgreGL3PlusPrerequisites.h</title>
<!-- Node1 -->
<g id="node1" class="node"><title>Node1</title>
<polygon fill="#bfbfbf" stroke="black" points="1215,-313.5 1215,-332.5 1355,-332.5 1355,-313.5 1215,-313.5"/>
<text text-anchor="middle" x="1285" y="-320.5" font-family="Helvetica,sans-Serif" font-size="10.00">OgreGL3PlusPrerequisites.h</text>
</g>
<!-- Node2 -->
<g id="node2" class="node"><title>Node2</title>
<g id="a_node2"><a xlink:href="_plus_2include_2_g_l_s_l_2_ogre_g_l_s_l_ext_support_8h.html" target="_top" xlink:title="OgreGLSLExtSupport.h">
<polygon fill="none" stroke="black" points="52.5,-190.5 52.5,-209.5 171.5,-209.5 171.5,-190.5 52.5,-190.5"/>
<text text-anchor="middle" x="112" y="-197.5" font-family="Helvetica,sans-Serif" font-size="10.00">OgreGLSLExtSupport.h</text>
</a>
</g>
</g>
<!-- Node1&#45;&gt;Node2 -->
<g id="edge1" class="edge"><title>Node1&#45;&gt;Node2</title>
<path fill="none" stroke="midnightblue" d="M1204.39,-322.124C966.458,-322.013 278.085,-318.104 186,-277 153.376,-262.438 127.701,-226.301 117.178,-209.652"/>
<polygon fill="midnightblue" stroke="midnightblue" points="1204.69,-325.624 1214.69,-322.126 1204.7,-318.624 1204.69,-325.624"/>
</g>
<!-- Node3 -->
<g id="node3" class="node"><title>Node3</title>
<g id="a_node3"><a xlink:href="_ogre_g_l_s_l_monolithic_program_manager_8h.html" target="_top" xlink:title="OgreGLSLMonolithicProgram\lManager.h">
<polygon fill="none" stroke="black" points="201.5,-67.5 201.5,-97.5 344.5,-97.5 344.5,-67.5 201.5,-67.5"/>
<text text-anchor="start" x="209.5" y="-85.5" font-family="Helvetica,sans-Serif" font-size="10.00">OgreGLSLMonolithicProgram</text>
<text text-anchor="middle" x="273" y="-74.5" font-family="Helvetica,sans-Serif" font-size="10.00">Manager.h</text>
</a>
</g>
</g>
<!-- Node1&#45;&gt;Node3 -->
<g id="edge14" class="edge"><title>Node1&#45;&gt;Node3</title>
<path fill="none" stroke="midnightblue" d="M1204.41,-321.208C968.898,-318.533 296.073,-308.184 261,-277 213.041,-234.359 223.117,-195.632 241,-134 244.876,-120.643 253.462,-107.432 260.765,-97.875"/>
<polygon fill="midnightblue" stroke="midnightblue" points="1204.59,-324.71 1214.62,-321.322 1204.66,-317.71 1204.59,-324.71"/>
</g>
<!-- Node4 -->
<g id="node4" class="node"><title>Node4</title>
<g id="a_node4"><a xlink:href="_ogre_g_l_s_l_program_manager_8h.html" target="_top" xlink:title="OgreGLSLProgramManager.h">
<polygon fill="none" stroke="black" points="502.5,-134.5 502.5,-153.5 647.5,-153.5 647.5,-134.5 502.5,-134.5"/>
<text text-anchor="middle" x="575" y="-141.5" font-family="Helvetica,sans-Serif" font-size="10.00">OgreGLSLProgramManager.h</text>
</a>
</g>
</g>
<!-- Node1&#45;&gt;Node4 -->
<g id="edge15" class="edge"><title>Node1&#45;&gt;Node4</title>
<path fill="none" stroke="midnightblue" d="M1204.5,-321.335C974.049,-319.039 326.242,-309.694 295,-277 226.776,-205.605 400.746,-168.694 504.379,-153.547"/>
<polygon fill="midnightblue" stroke="midnightblue" points="1204.79,-324.838 1214.83,-321.436 1204.86,-317.838 1204.79,-324.838"/>
</g>
<!-- Node5 -->
<g id="node5" class="node"><title>Node5</title>
<g id="a_node5"><a xlink:href="_ogre_g_l_s_l_separable_program_manager_8h.html" target="_top" xlink:title="OgreGLSLSeparableProgram\lManager.h">
<polygon fill="none" stroke="black" points="865.5,-67.5 865.5,-97.5 1008.5,-97.5 1008.5,-67.5 865.5,-67.5"/>
<text text-anchor="start" x="873.5" y="-85.5" font-family="Helvetica,sans-Serif" font-size="10.00">OgreGLSLSeparableProgram</text>
<text text-anchor="middle" x="937" y="-74.5" font-family="Helvetica,sans-Serif" font-size="10.00">Manager.h</text>
</a>
</g>
</g>
<!-- Node1&#45;&gt;Node5 -->
<g id="edge20" class="edge"><title>Node1&#45;&gt;Node5</title>
<path fill="none" stroke="midnightblue" d="M1273.42,-304.736C1249.71,-269.444 1197.66,-192.156 1195,-190 1136.03,-142.124 1052.55,-112.949 996.678,-97.5228"/>
<polygon fill="midnightblue" stroke="midnightblue" points="1270.56,-306.756 1279.04,-313.108 1276.37,-302.855 1270.56,-306.756"/>
</g>
<!-- Node7 -->
<g id="node7" class="node"><title>Node7</title>
<g id="a_node7"><a xlink:href="_ogre_g_l_s_l_monolithic_program_8h.html" target="_top" xlink:title="OgreGLSLMonolithicProgram.h">
<polygon fill="none" stroke="black" points="250,-134.5 250,-153.5 402,-153.5 402,-134.5 250,-134.5"/>
<text text-anchor="middle" x="326" y="-141.5" font-family="Helvetica,sans-Serif" font-size="10.00">OgreGLSLMonolithicProgram.h</text>
</a>
</g>
</g>
<!-- Node1&#45;&gt;Node7 -->
<g id="edge7" class="edge"><title>Node1&#45;&gt;Node7</title>
<path fill="none" stroke="midnightblue" d="M1204.54,-321.408C971.064,-319.299 307.926,-310.382 276,-277 240.939,-240.34 295.269,-176.662 317.352,-153.628"/>
<polygon fill="midnightblue" stroke="midnightblue" points="1204.63,-324.909 1214.66,-321.498 1204.69,-317.909 1204.63,-324.909"/>
</g>
<!-- Node8 -->
<g id="node8" class="node"><title>Node8</title>
<g id="a_node8"><a xlink:href="_plus_2include_2_g_l_s_l_2_ogre_g_l_s_l_program_8h.html" target="_top" xlink:title="OgreGLSLProgram.h">
<polygon fill="none" stroke="black" points="581.5,-190.5 581.5,-209.5 688.5,-209.5 688.5,-190.5 581.5,-190.5"/>
<text text-anchor="middle" x="635" y="-197.5" font-family="Helvetica,sans-Serif" font-size="10.00">OgreGLSLProgram.h</text>
</a>
</g>
</g>
<!-- Node1&#45;&gt;Node8 -->
<g id="edge9" class="edge"><title>Node1&#45;&gt;Node8</title>
<path fill="none" stroke="midnightblue" d="M1204.72,-319.16C1097.26,-314.425 913.007,-302.764 851,-277 830.872,-268.637 832.472,-255.792 813,-246 773.702,-226.237 725.047,-214.705 688.543,-208.272"/>
<polygon fill="midnightblue" stroke="midnightblue" points="1204.73,-322.664 1214.87,-319.597 1205.03,-315.67 1204.73,-322.664"/>
</g>
<!-- Node9 -->
<g id="node9" class="node"><title>Node9</title>
<g id="a_node9"><a xlink:href="_ogre_g_l_s_l_separable_program_8h.html" target="_top" xlink:title="OgreGLSLSeparableProgram.h">
<polygon fill="none" stroke="black" points="861.5,-134.5 861.5,-153.5 1012.5,-153.5 1012.5,-134.5 861.5,-134.5"/>
<text text-anchor="middle" x="937" y="-141.5" font-family="Helvetica,sans-Serif" font-size="10.00">OgreGLSLSeparableProgram.h</text>
</a>
</g>
</g>
<!-- Node1&#45;&gt;Node9 -->
<g id="edge19" class="edge"><title>Node1&#45;&gt;Node9</title>
<path fill="none" stroke="midnightblue" d="M1260.72,-308.088C1248.16,-300.09 1233.16,-289.216 1222,-277 1191.77,-243.913 1207.6,-215.87 1171,-190 1145.87,-172.241 1070.94,-159.927 1012.57,-152.726"/>
<polygon fill="midnightblue" stroke="midnightblue" points="1258.99,-311.134 1269.35,-313.381 1262.66,-305.168 1258.99,-311.134"/>
</g>
<!-- Node10 -->
<g id="node10" class="node"><title>Node10</title>
<g id="a_node10"><a xlink:href="_ogre_g_l_s_l_shader_8h.html" target="_top" xlink:title="OgreGLSLShader.h">
<polygon fill="none" stroke="black" points="1030.5,-252 1030.5,-271 1131.5,-271 1131.5,-252 1030.5,-252"/>
<text text-anchor="middle" x="1081" y="-259" font-family="Helvetica,sans-Serif" font-size="10.00">OgreGLSLShader.h</text>
</a>
</g>
</g>
<!-- Node1&#45;&gt;Node10 -->
<g id="edge16" class="edge"><title>Node1&#45;&gt;Node10</title>
<path fill="none" stroke="midnightblue" d="M1245.92,-310.602C1206.28,-299.04 1145.82,-281.407 1110.17,-271.009"/>
<polygon fill="midnightblue" stroke="midnightblue" points="1245.19,-314.035 1255.77,-313.475 1247.15,-307.315 1245.19,-314.035"/>
</g>
<!-- Node11 -->
<g id="node11" class="node"><title>Node11</title>
<g id="a_node11"><a xlink:href="_ogre_g_l3_plus_render_system_8h.html" target="_top" xlink:title="OgreGL3PlusRenderSystem.h">
<polygon fill="none" stroke="black" points="1013.5,-190.5 1013.5,-209.5 1162.5,-209.5 1162.5,-190.5 1013.5,-190.5"/>
<text text-anchor="middle" x="1088" y="-197.5" font-family="Helvetica,sans-Serif" font-size="10.00">OgreGL3PlusRenderSystem.h</text>
</a>
</g>
</g>
<!-- Node1&#45;&gt;Node11 -->
<g id="edge48" class="edge"><title>Node1&#45;&gt;Node11</title>
<path fill="none" stroke="midnightblue" d="M1251.89,-309.696C1231.65,-301.587 1205.59,-290.072 1184,-277 1149.63,-256.193 1113.68,-224.684 1097.22,-209.617"/>
<polygon fill="midnightblue" stroke="midnightblue" points="1250.72,-312.999 1261.31,-313.395 1253.28,-306.483 1250.72,-312.999"/>
</g>
<!-- Node12 -->
<g id="node12" class="node"><title>Node12</title>
<g id="a_node12"><a xlink:href="_ogre_g_l_s_l_shader_manager_8h.html" target="_top" xlink:title="OgreGLSLShaderManager.h">
<polygon fill="none" stroke="black" points="1264.5,-252 1264.5,-271 1403.5,-271 1403.5,-252 1264.5,-252"/>
<text text-anchor="middle" x="1334" y="-259" font-family="Helvetica,sans-Serif" font-size="10.00">OgreGLSLShaderManager.h</text>
</a>
</g>
</g>
<!-- Node1&#45;&gt;Node12 -->
<g id="edge21" class="edge"><title>Node1&#45;&gt;Node12</title>
<path fill="none" stroke="midnightblue" d="M1298.45,-305.669C1307.69,-294.452 1319.57,-280.016 1326.99,-271.009"/>
<polygon fill="midnightblue" stroke="midnightblue" points="1295.68,-303.531 1292.02,-313.475 1301.08,-307.981 1295.68,-303.531"/>
</g>
<!-- Node13 -->
<g id="node13" class="node"><title>Node13</title>
<g id="a_node13"><a xlink:href="_ogre_g_l3_plus_default_hardware_buffer_manager_8h.html" target="_top" xlink:title="OgreGL3PlusDefaultHardware\lBufferManager.h">
<polygon fill="none" stroke="black" points="1421.5,-246.5 1421.5,-276.5 1570.5,-276.5 1570.5,-246.5 1421.5,-246.5"/>
<text text-anchor="start" x="1429.5" y="-264.5" font-family="Helvetica,sans-Serif" font-size="10.00">OgreGL3PlusDefaultHardware</text>
<text text-anchor="middle" x="1496" y="-253.5" font-family="Helvetica,sans-Serif" font-size="10.00">BufferManager.h</text>
</a>
</g>
</g>
<!-- Node1&#45;&gt;Node13 -->
<g id="edge22" class="edge"><title>Node1&#45;&gt;Node13</title>
<path fill="none" stroke="midnightblue" d="M1324.95,-310.734C1359.39,-301.023 1409.26,-286.961 1446.27,-276.523"/>
<polygon fill="midnightblue" stroke="midnightblue" points="1323.91,-307.392 1315.23,-313.475 1325.81,-314.13 1323.91,-307.392"/>
</g>
<!-- Node14 -->
<g id="node14" class="node"><title>Node14</title>
<g id="a_node14"><a xlink:href="_ogre_g_l3_plus_depth_buffer_8h.html" target="_top" xlink:title="OgreGL3PlusDepthBuffer.h">
<polygon fill="none" stroke="black" points="1589,-252 1589,-271 1725,-271 1725,-252 1589,-252"/>
<text text-anchor="middle" x="1657" y="-259" font-family="Helvetica,sans-Serif" font-size="10.00">OgreGL3PlusDepthBuffer.h</text>
</a>
</g>
</g>
<!-- Node1&#45;&gt;Node14 -->
<g id="edge23" class="edge"><title>Node1&#45;&gt;Node14</title>
<path fill="none" stroke="midnightblue" d="M1354.55,-311.993C1414.19,-303.26 1502.36,-289.986 1579,-277 1589.86,-275.159 1601.56,-273.053 1612.5,-271.027"/>
<polygon fill="midnightblue" stroke="midnightblue" points="1353.89,-308.553 1344.5,-313.462 1354.9,-315.48 1353.89,-308.553"/>
</g>
<!-- Node15 -->
<g id="node15" class="node"><title>Node15</title>
<g id="a_node15"><a xlink:href="_ogre_g_l3_plus_texture_8h.html" target="_top" xlink:title="OgreGL3PlusTexture.h">
<polygon fill="none" stroke="black" points="1695,-190.5 1695,-209.5 1811,-209.5 1811,-190.5 1695,-190.5"/>
<text text-anchor="middle" x="1753" y="-197.5" font-family="Helvetica,sans-Serif" font-size="10.00">OgreGL3PlusTexture.h</text>
</a>
</g>
</g>
<!-- Node1&#45;&gt;Node15 -->
<g id="edge24" class="edge"><title>Node1&#45;&gt;Node15</title>
<path fill="none" stroke="midnightblue" d="M1365.44,-318.902C1487.11,-313.481 1706.76,-300.547 1734,-277 1753.75,-259.922 1754.56,-225.711 1753.74,-209.673"/>
<polygon fill="midnightblue" stroke="midnightblue" points="1365.25,-315.406 1355.41,-319.341 1365.56,-322.4 1365.25,-315.406"/>
</g>
<!-- Node20 -->
<g id="node20" class="node"><title>Node20</title>
<g id="a_node20"><a xlink:href="_ogre_g_l3_plus_texture_manager_8h.html" target="_top" xlink:title="OgreGL3PlusTextureManager.h">
<polygon fill="none" stroke="black" points="1816,-134.5 1816,-153.5 1970,-153.5 1970,-134.5 1816,-134.5"/>
<text text-anchor="middle" x="1893" y="-141.5" font-family="Helvetica,sans-Serif" font-size="10.00">OgreGL3PlusTextureManager.h</text>
</a>
</g>
</g>
<!-- Node1&#45;&gt;Node20 -->
<g id="edge50" class="edge"><title>Node1&#45;&gt;Node20</title>
<path fill="none" stroke="midnightblue" d="M1365.36,-322.145C1525.21,-321.59 1870.85,-315.857 1907,-277 1939.49,-242.073 1910.28,-177.325 1897.91,-153.818"/>
<polygon fill="midnightblue" stroke="midnightblue" points="1365.1,-318.645 1355.11,-322.174 1365.12,-325.645 1365.1,-318.645"/>
</g>
<!-- Node21 -->
<g id="node21" class="node"><title>Node21</title>
<g id="a_node21"><a xlink:href="_ogre_g_l3_plus_support_8h.html" target="_top" xlink:title="OgreGL3PlusSupport.h">
<polygon fill="none" stroke="black" points="1781.5,-252 1781.5,-271 1898.5,-271 1898.5,-252 1781.5,-252"/>
<text text-anchor="middle" x="1840" y="-259" font-family="Helvetica,sans-Serif" font-size="10.00">OgreGL3PlusSupport.h</text>
</a>
</g>
</g>
<!-- Node1&#45;&gt;Node21 -->
<g id="edge31" class="edge"><title>Node1&#45;&gt;Node21</title>
<path fill="none" stroke="midnightblue" d="M1365.32,-317.042C1461.24,-310.535 1626.37,-297.475 1767,-277 1778,-275.399 1789.84,-273.237 1800.73,-271.072"/>
<polygon fill="midnightblue" stroke="midnightblue" points="1364.86,-313.565 1355.11,-317.727 1365.32,-320.549 1364.86,-313.565"/>
</g>
<!-- Node22 -->
<g id="node22" class="node"><title>Node22</title>
<g id="a_node22"><a xlink:href="_ogre_g_l3_plus_hardware_buffer_manager_8h.html" target="_top" xlink:title="OgreGL3PlusHardwareBuffer\lManager.h">
<polygon fill="none" stroke="black" points="1955.5,-246.5 1955.5,-276.5 2098.5,-276.5 2098.5,-246.5 1955.5,-246.5"/>
<text text-anchor="start" x="1963.5" y="-264.5" font-family="Helvetica,sans-Serif" font-size="10.00">OgreGL3PlusHardwareBuffer</text>
<text text-anchor="middle" x="2027" y="-253.5" font-family="Helvetica,sans-Serif" font-size="10.00">Manager.h</text>
</a>
</g>
</g>
<!-- Node1&#45;&gt;Node22 -->
<g id="edge34" class="edge"><title>Node1&#45;&gt;Node22</title>
<path fill="none" stroke="midnightblue" d="M1365.27,-319.044C1489.15,-313.908 1734.25,-301.46 1941,-277 1945.66,-276.449 1950.45,-275.818 1955.28,-275.136"/>
<polygon fill="midnightblue" stroke="midnightblue" points="1364.96,-315.554 1355.11,-319.46 1365.25,-322.548 1364.96,-315.554"/>
</g>
<!-- Node23 -->
<g id="node23" class="node"><title>Node23</title>
<g id="a_node23"><a xlink:href="_ogre_g_l3_plus_hardware_counter_buffer_8h.html" target="_top" xlink:title="OgreGL3PlusHardwareCounter\lBuffer.h">
<polygon fill="none" stroke="black" points="860,-246.5 860,-276.5 1012,-276.5 1012,-246.5 860,-246.5"/>
<text text-anchor="start" x="868" y="-264.5" font-family="Helvetica,sans-Serif" font-size="10.00">OgreGL3PlusHardwareCounter</text>
<text text-anchor="middle" x="936" y="-253.5" font-family="Helvetica,sans-Serif" font-size="10.00">Buffer.h</text>
</a>
</g>
</g>
<!-- Node1&#45;&gt;Node23 -->
<g id="edge35" class="edge"><title>Node1&#45;&gt;Node23</title>
<path fill="none" stroke="midnightblue" d="M1224.88,-311.754C1171.37,-302.635 1090.97,-288.931 1021,-277 1018.2,-276.522 1015.34,-276.035 1012.46,-275.543"/>
<polygon fill="midnightblue" stroke="midnightblue" points="1224.43,-315.229 1234.88,-313.459 1225.61,-308.328 1224.43,-315.229"/>
</g>
<!-- Node24 -->
<g id="node24" class="node"><title>Node24</title>
<g id="a_node24"><a xlink:href="_ogre_g_l3_plus_hardware_index_buffer_8h.html" target="_top" xlink:title="OgreGL3PlusHardwareIndex\lBuffer.h">
<polygon fill="none" stroke="black" points="2116.5,-246.5 2116.5,-276.5 2257.5,-276.5 2257.5,-246.5 2116.5,-246.5"/>
<text text-anchor="start" x="2124.5" y="-264.5" font-family="Helvetica,sans-Serif" font-size="10.00">OgreGL3PlusHardwareIndex</text>
<text text-anchor="middle" x="2187" y="-253.5" font-family="Helvetica,sans-Serif" font-size="10.00">Buffer.h</text>
</a>
</g>
</g>
<!-- Node1&#45;&gt;Node24 -->
<g id="edge37" class="edge"><title>Node1&#45;&gt;Node24</title>
<path fill="none" stroke="midnightblue" d="M1365.39,-320.919C1512.86,-318.199 1836.35,-308.811 2107,-277 2110.08,-276.638 2113.23,-276.23 2116.4,-275.789"/>
<polygon fill="midnightblue" stroke="midnightblue" points="1365.01,-317.425 1355.08,-321.103 1365.14,-324.424 1365.01,-317.425"/>
</g>
<!-- Node25 -->
<g id="node25" class="node"><title>Node25</title>
<g id="a_node25"><a xlink:href="_ogre_g_l3_plus_hardware_occlusion_query_8h.html" target="_top" xlink:title="OgreGL3PlusHardwareOcclusion\lQuery.h">
<polygon fill="none" stroke="black" points="2275.5,-246.5 2275.5,-276.5 2436.5,-276.5 2436.5,-246.5 2275.5,-246.5"/>
<text text-anchor="start" x="2283.5" y="-264.5" font-family="Helvetica,sans-Serif" font-size="10.00">OgreGL3PlusHardwareOcclusion</text>
<text text-anchor="middle" x="2356" y="-253.5" font-family="Helvetica,sans-Serif" font-size="10.00">Query.h</text>
</a>
</g>
</g>
<!-- Node1&#45;&gt;Node25 -->
<g id="edge38" class="edge"><title>Node1&#45;&gt;Node25</title>
<path fill="none" stroke="midnightblue" d="M1365.31,-321.408C1533.07,-319.493 1932.73,-311.377 2266,-277 2268.99,-276.691 2272.03,-276.349 2275.1,-275.979"/>
<polygon fill="midnightblue" stroke="midnightblue" points="1365.05,-317.911 1355.08,-321.521 1365.12,-324.911 1365.05,-317.911"/>
</g>
<!-- Node26 -->
<g id="node26" class="node"><title>Node26</title>
<g id="a_node26"><a xlink:href="_ogre_g_l3_plus_hardware_pixel_buffer_8h.html" target="_top" xlink:title="OgreGL3PlusHardwarePixel\lBuffer.h">
<polygon fill="none" stroke="black" points="2454.5,-246.5 2454.5,-276.5 2593.5,-276.5 2593.5,-246.5 2454.5,-246.5"/>
<text text-anchor="start" x="2462.5" y="-264.5" font-family="Helvetica,sans-Serif" font-size="10.00">OgreGL3PlusHardwarePixel</text>
<text text-anchor="middle" x="2524" y="-253.5" font-family="Helvetica,sans-Serif" font-size="10.00">Buffer.h</text>
</a>
</g>
</g>
<!-- Node1&#45;&gt;Node26 -->
<g id="edge39" class="edge"><title>Node1&#45;&gt;Node26</title>
<path fill="none" stroke="midnightblue" d="M1365.45,-320.376C1592.48,-315.554 2235.26,-300.197 2445,-277 2448.05,-276.663 2451.16,-276.276 2454.29,-275.852"/>
<polygon fill="midnightblue" stroke="midnightblue" points="1365.2,-316.88 1355.28,-320.591 1365.35,-323.879 1365.2,-316.88"/>
</g>
<!-- Node28 -->
<g id="node28" class="node"><title>Node28</title>
<g id="a_node28"><a xlink:href="_ogre_g_l3_plus_hardware_shader_storage_buffer_8h.html" target="_top" xlink:title="OgreGL3PlusHardwareShader\lStorageBuffer.h">
<polygon fill="none" stroke="black" points="474,-246.5 474,-276.5 622,-276.5 622,-246.5 474,-246.5"/>
<text text-anchor="start" x="482" y="-264.5" font-family="Helvetica,sans-Serif" font-size="10.00">OgreGL3PlusHardwareShader</text>
<text text-anchor="middle" x="548" y="-253.5" font-family="Helvetica,sans-Serif" font-size="10.00">StorageBuffer.h</text>
</a>
</g>
</g>
<!-- Node1&#45;&gt;Node28 -->
<g id="edge41" class="edge"><title>Node1&#45;&gt;Node28</title>
<path fill="none" stroke="midnightblue" d="M1204.46,-319.163C1080.78,-314.196 836.771,-301.984 631,-277 628.096,-276.647 625.139,-276.261 622.155,-275.849"/>
<polygon fill="midnightblue" stroke="midnightblue" points="1204.47,-322.666 1214.6,-319.564 1204.75,-315.671 1204.47,-322.666"/>
</g>
<!-- Node29 -->
<g id="node29" class="node"><title>Node29</title>
<g id="a_node29"><a xlink:href="_ogre_g_l3_plus_hardware_uniform_buffer_8h.html" target="_top" xlink:title="OgreGL3PlusHardwareUniform\lBuffer.h">
<polygon fill="none" stroke="black" points="304,-246.5 304,-276.5 456,-276.5 456,-246.5 304,-246.5"/>
<text text-anchor="start" x="312" y="-264.5" font-family="Helvetica,sans-Serif" font-size="10.00">OgreGL3PlusHardwareUniform</text>
<text text-anchor="middle" x="380" y="-253.5" font-family="Helvetica,sans-Serif" font-size="10.00">Buffer.h</text>
</a>
</g>
</g>
<!-- Node1&#45;&gt;Node29 -->
<g id="edge43" class="edge"><title>Node1&#45;&gt;Node29</title>
<path fill="none" stroke="midnightblue" d="M1204.56,-320.628C1057.36,-317.443 734.981,-307.336 465,-277 462.173,-276.682 459.298,-276.332 456.397,-275.956"/>
<polygon fill="midnightblue" stroke="midnightblue" points="1204.78,-324.134 1214.85,-320.846 1204.92,-317.135 1204.78,-324.134"/>
</g>
<!-- Node30 -->
<g id="node30" class="node"><title>Node30</title>
<g id="a_node30"><a xlink:href="_ogre_g_l3_plus_hardware_vertex_buffer_8h.html" target="_top" xlink:title="OgreGL3PlusHardwareVertex\lBuffer.h">
<polygon fill="none" stroke="black" points="2612,-246.5 2612,-276.5 2758,-276.5 2758,-246.5 2612,-246.5"/>
<text text-anchor="start" x="2620" y="-264.5" font-family="Helvetica,sans-Serif" font-size="10.00">OgreGL3PlusHardwareVertex</text>
<text text-anchor="middle" x="2685" y="-253.5" font-family="Helvetica,sans-Serif" font-size="10.00">Buffer.h</text>
</a>
</g>
</g>
<!-- Node1&#45;&gt;Node30 -->
<g id="edge46" class="edge"><title>Node1&#45;&gt;Node30</title>
<path fill="none" stroke="midnightblue" d="M1365.46,-320.74C1613,-316.629 2361.13,-302.387 2603,-277 2605.88,-276.698 2608.8,-276.355 2611.75,-275.979"/>
<polygon fill="midnightblue" stroke="midnightblue" points="1365.04,-317.246 1355.1,-320.911 1365.16,-324.245 1365.04,-317.246"/>
</g>
<!-- Node31 -->
<g id="node31" class="node"><title>Node31</title>
<g id="a_node31"><a xlink:href="_ogre_g_l3_plus_pixel_format_8h.html" target="_top" xlink:title="OgreGL3PlusPixelFormat.h">
<polygon fill="none" stroke="black" points="2776,-252 2776,-271 2912,-271 2912,-252 2776,-252"/>
<text text-anchor="middle" x="2844" y="-259" font-family="Helvetica,sans-Serif" font-size="10.00">OgreGL3PlusPixelFormat.h</text>
</a>
</g>
</g>
<!-- Node1&#45;&gt;Node31 -->
<g id="edge47" class="edge"><title>Node1&#45;&gt;Node31</title>
<path fill="none" stroke="midnightblue" d="M1365.29,-321.212C1632.7,-318.327 2491.76,-306.909 2767,-277 2779.44,-275.648 2792.89,-273.395 2805,-271.063"/>
<polygon fill="midnightblue" stroke="midnightblue" points="1365.23,-317.712 1355.27,-321.319 1365.31,-324.712 1365.23,-317.712"/>
</g>
<!-- Node32 -->
<g id="node32" class="node"><title>Node32</title>
<g id="a_node32"><a xlink:href="_ogre_g_l3_plus_render_to_vertex_buffer_8h.html" target="_top" xlink:title="OgreGL3PlusRenderToVertex\lBuffer.h">
<polygon fill="none" stroke="black" points="2930,-246.5 2930,-276.5 3076,-276.5 3076,-246.5 2930,-246.5"/>
<text text-anchor="start" x="2938" y="-264.5" font-family="Helvetica,sans-Serif" font-size="10.00">OgreGL3PlusRenderToVertex</text>
<text text-anchor="middle" x="3003" y="-253.5" font-family="Helvetica,sans-Serif" font-size="10.00">Buffer.h</text>
</a>
</g>
</g>
<!-- Node1&#45;&gt;Node32 -->
<g id="edge49" class="edge"><title>Node1&#45;&gt;Node32</title>
<path fill="none" stroke="midnightblue" d="M1365.72,-321.357C1651.45,-318.835 2614.2,-308.173 2921,-277 2923.88,-276.708 2926.8,-276.373 2929.76,-276.003"/>
<polygon fill="midnightblue" stroke="midnightblue" points="1365.41,-317.86 1355.44,-321.447 1365.47,-324.859 1365.41,-317.86"/>
</g>
<!-- Node33 -->
<g id="node33" class="node"><title>Node33</title>
<g id="a_node33"><a xlink:href="_ogre_g_l3_plus_vertex_array_object_8h.html" target="_top" xlink:title="OgreGL3PlusVertexArrayObject.h">
<polygon fill="none" stroke="black" points="640,-252 640,-271 804,-271 804,-252 640,-252"/>
<text text-anchor="middle" x="722" y="-259" font-family="Helvetica,sans-Serif" font-size="10.00">OgreGL3PlusVertexArrayObject.h</text>
</a>
</g>
</g>
<!-- Node1&#45;&gt;Node33 -->
<g id="edge51" class="edge"><title>Node1&#45;&gt;Node33</title>
<path fill="none" stroke="midnightblue" d="M1204.65,-315.581C1111.49,-307.832 953.379,-293.734 818,-277 804.032,-275.273 788.962,-273.131 774.996,-271.027"/>
<polygon fill="midnightblue" stroke="midnightblue" points="1204.6,-319.089 1214.85,-316.426 1205.17,-312.112 1204.6,-319.089"/>
</g>
<!-- Node2&#45;&gt;Node3 -->
<g id="edge2" class="edge"><title>Node2&#45;&gt;Node3</title>
<path fill="none" stroke="midnightblue" d="M128.227,-183.084C142.725,-169.28 164.877,-149.186 186,-134 205.001,-120.339 227.947,-107.143 245.502,-97.6682"/>
<polygon fill="midnightblue" stroke="midnightblue" points="125.409,-180.939 120.641,-190.4 130.268,-185.977 125.409,-180.939"/>
</g>
<!-- Node2&#45;&gt;Node4 -->
<g id="edge3" class="edge"><title>Node2&#45;&gt;Node4</title>
<path fill="none" stroke="midnightblue" d="M181.549,-190.888C267.912,-180.816 414.534,-163.715 502.323,-153.476"/>
<polygon fill="midnightblue" stroke="midnightblue" points="181.108,-187.416 171.581,-192.051 181.919,-194.369 181.108,-187.416"/>
</g>
<!-- Node6 -->
<g id="node6" class="node"><title>Node6</title>
<g id="a_node6"><a xlink:href="_ogre_g_l_s_l_shader_factory_8h.html" target="_top" xlink:title="OgreGLSLShaderFactory.h">
<polygon fill="none" stroke="black" points="0,-134.5 0,-153.5 134,-153.5 134,-134.5 0,-134.5"/>
<text text-anchor="middle" x="67" y="-141.5" font-family="Helvetica,sans-Serif" font-size="10.00">OgreGLSLShaderFactory.h</text>
</a>
</g>
</g>
<!-- Node2&#45;&gt;Node6 -->
<g id="edge6" class="edge"><title>Node2&#45;&gt;Node6</title>
<path fill="none" stroke="midnightblue" d="M97.9533,-182.144C90.1131,-172.736 80.6705,-161.405 74.2926,-153.751"/>
<polygon fill="midnightblue" stroke="midnightblue" points="95.4785,-184.641 104.569,-190.083 100.856,-180.16 95.4785,-184.641"/>
</g>
<!-- Node4&#45;&gt;Node3 -->
<g id="edge4" class="edge"><title>Node4&#45;&gt;Node3</title>
<path fill="none" stroke="midnightblue" d="M521.892,-132.537C472.527,-122.811 398.632,-108.252 344.175,-97.523"/>
<polygon fill="midnightblue" stroke="midnightblue" points="521.243,-135.976 531.731,-134.475 522.596,-129.108 521.243,-135.976"/>
</g>
<!-- Node4&#45;&gt;Node5 -->
<g id="edge5" class="edge"><title>Node4&#45;&gt;Node5</title>
<path fill="none" stroke="midnightblue" d="M637.11,-132.791C700.456,-122.38 798.641,-106.241 865.264,-95.2908"/>
<polygon fill="midnightblue" stroke="midnightblue" points="636.166,-129.399 626.866,-134.475 637.301,-136.307 636.166,-129.399"/>
</g>
<!-- Node7&#45;&gt;Node3 -->
<g id="edge8" class="edge"><title>Node7&#45;&gt;Node3</title>
<path fill="none" stroke="midnightblue" d="M311.579,-126.811C303.418,-117.649 293.312,-106.303 285.491,-97.523"/>
<polygon fill="midnightblue" stroke="midnightblue" points="309.141,-129.336 318.406,-134.475 314.368,-124.68 309.141,-129.336"/>
</g>
<!-- Node8&#45;&gt;Node4 -->
<g id="edge11" class="edge"><title>Node8&#45;&gt;Node4</title>
<path fill="none" stroke="midnightblue" d="M617.819,-183.537C607.121,-173.909 593.744,-161.869 584.815,-153.834"/>
<polygon fill="midnightblue" stroke="midnightblue" points="615.586,-186.236 625.36,-190.324 620.268,-181.033 615.586,-186.236"/>
</g>
<!-- Node8&#45;&gt;Node7 -->
<g id="edge10" class="edge"><title>Node8&#45;&gt;Node7</title>
<path fill="none" stroke="midnightblue" d="M575.856,-188.664C517.461,-178.459 429.221,-163.039 374.733,-153.516"/>
<polygon fill="midnightblue" stroke="midnightblue" points="575.585,-192.17 586.038,-190.444 576.79,-185.274 575.585,-192.17"/>
</g>
<!-- Node8&#45;&gt;Node9 -->
<g id="edge12" class="edge"><title>Node8&#45;&gt;Node9</title>
<path fill="none" stroke="midnightblue" d="M692.804,-188.664C749.877,-178.459 836.118,-163.039 889.371,-153.516"/>
<polygon fill="midnightblue" stroke="midnightblue" points="692.081,-185.238 682.853,-190.444 693.313,-192.129 692.081,-185.238"/>
</g>
<!-- Node9&#45;&gt;Node5 -->
<g id="edge13" class="edge"><title>Node9&#45;&gt;Node5</title>
<path fill="none" stroke="midnightblue" d="M937,-124.235C937,-115.586 937,-105.497 937,-97.523"/>
<polygon fill="midnightblue" stroke="midnightblue" points="933.5,-124.475 937,-134.475 940.5,-124.475 933.5,-124.475"/>
</g>
<!-- Node10&#45;&gt;Node4 -->
<g id="edge17" class="edge"><title>Node10&#45;&gt;Node4</title>
<path fill="none" stroke="midnightblue" d="M1036.3,-249.623C1031.15,-248.39 1025.96,-247.161 1021,-246 870.454,-210.765 690.848,-170.688 613.522,-153.527"/>
<polygon fill="midnightblue" stroke="midnightblue" points="1035.58,-253.049 1046.12,-251.981 1037.21,-246.242 1035.58,-253.049"/>
</g>
<!-- Node10&#45;&gt;Node11 -->
<g id="edge18" class="edge"><title>Node10&#45;&gt;Node11</title>
<path fill="none" stroke="midnightblue" d="M1083.2,-241.817C1084.47,-230.996 1086.01,-217.898 1087,-209.509"/>
<polygon fill="midnightblue" stroke="midnightblue" points="1079.7,-241.635 1082,-251.975 1086.65,-242.453 1079.7,-241.635"/>
</g>
<!-- Node16 -->
<g id="node16" class="node"><title>Node16</title>
<g id="a_node16"><a xlink:href="_ogre_g_l3_plus_render_texture_8h.html" target="_top" xlink:title="OgreGL3PlusRenderTexture.h">
<polygon fill="none" stroke="black" points="1650,-134.5 1650,-153.5 1798,-153.5 1798,-134.5 1650,-134.5"/>
<text text-anchor="middle" x="1724" y="-141.5" font-family="Helvetica,sans-Serif" font-size="10.00">OgreGL3PlusRenderTexture.h</text>
</a>
</g>
</g>
<!-- Node15&#45;&gt;Node16 -->
<g id="edge25" class="edge"><title>Node15&#45;&gt;Node16</title>
<path fill="none" stroke="midnightblue" d="M1743.32,-180.983C1738.4,-171.817 1732.64,-161.092 1728.7,-153.751"/>
<polygon fill="midnightblue" stroke="midnightblue" points="1740.4,-182.929 1748.21,-190.083 1746.56,-179.617 1740.4,-182.929"/>
</g>
<!-- Node15&#45;&gt;Node20 -->
<g id="edge30" class="edge"><title>Node15&#45;&gt;Node20</title>
<path fill="none" stroke="midnightblue" d="M1784.7,-186.772C1811,-176.629 1847.72,-162.467 1870.92,-153.516"/>
<polygon fill="midnightblue" stroke="midnightblue" points="1783.25,-183.579 1775.18,-190.444 1785.77,-190.11 1783.25,-183.579"/>
</g>
<!-- Node17 -->
<g id="node17" class="node"><title>Node17</title>
<g id="a_node17"><a xlink:href="_ogre_g_l3_plus_frame_buffer_object_8h.html" target="_top" xlink:title="OgreGL3PlusFrameBufferObject.h">
<polygon fill="none" stroke="black" points="1585,-73 1585,-92 1751,-92 1751,-73 1585,-73"/>
<text text-anchor="middle" x="1668" y="-80" font-family="Helvetica,sans-Serif" font-size="10.00">OgreGL3PlusFrameBufferObject.h</text>
</a>
</g>
</g>
<!-- Node16&#45;&gt;Node17 -->
<g id="edge26" class="edge"><title>Node16&#45;&gt;Node17</title>
<path fill="none" stroke="midnightblue" d="M1708.94,-126.997C1698.34,-115.736 1684.57,-101.104 1676.01,-92.0091"/>
<polygon fill="midnightblue" stroke="midnightblue" points="1706.57,-129.592 1715.98,-134.475 1711.67,-124.794 1706.57,-129.592"/>
</g>
<!-- Node19 -->
<g id="node19" class="node"><title>Node19</title>
<g id="a_node19"><a xlink:href="_ogre_g_l3_plus_f_b_o_render_texture_8h.html" target="_top" xlink:title="OgreGL3PlusFBORenderTexture.h">
<polygon fill="none" stroke="black" points="1695,-6 1695,-25 1863,-25 1863,-6 1695,-6"/>
<text text-anchor="middle" x="1779" y="-13" font-family="Helvetica,sans-Serif" font-size="10.00">OgreGL3PlusFBORenderTexture.h</text>
</a>
</g>
</g>
<!-- Node16&#45;&gt;Node19 -->
<g id="edge29" class="edge"><title>Node16&#45;&gt;Node19</title>
<path fill="none" stroke="midnightblue" d="M1740.02,-126.667C1747.1,-118.621 1754.94,-108.421 1760,-98 1772.05,-73.1663 1776.68,-40.3015 1778.27,-25.0062"/>
<polygon fill="midnightblue" stroke="midnightblue" points="1737.28,-124.471 1733.07,-134.193 1742.42,-129.22 1737.28,-124.471"/>
</g>
<!-- Node18 -->
<g id="node18" class="node"><title>Node18</title>
<g id="a_node18"><a xlink:href="_ogre_g_l3_plus_f_b_o_multi_render_target_8h.html" target="_top" xlink:title="OgreGL3PlusFBOMultiRender\lTarget.h">
<polygon fill="none" stroke="black" points="1529,-0.5 1529,-30.5 1677,-30.5 1677,-0.5 1529,-0.5"/>
<text text-anchor="start" x="1537" y="-18.5" font-family="Helvetica,sans-Serif" font-size="10.00">OgreGL3PlusFBOMultiRender</text>
<text text-anchor="middle" x="1603" y="-7.5" font-family="Helvetica,sans-Serif" font-size="10.00">Target.h</text>
</a>
</g>
</g>
<!-- Node17&#45;&gt;Node18 -->
<g id="edge27" class="edge"><title>Node17&#45;&gt;Node18</title>
<path fill="none" stroke="midnightblue" d="M1652.12,-65.617C1641.41,-54.9065 1627.4,-40.9022 1617.09,-30.589"/>
<polygon fill="midnightblue" stroke="midnightblue" points="1649.69,-68.1376 1659.23,-72.7338 1654.64,-63.1878 1649.69,-68.1376"/>
</g>
<!-- Node17&#45;&gt;Node19 -->
<g id="edge28" class="edge"><title>Node17&#45;&gt;Node19</title>
<path fill="none" stroke="midnightblue" d="M1691.71,-67.6151C1713.7,-54.737 1745.74,-35.9758 1764.27,-25.1273"/>
<polygon fill="midnightblue" stroke="midnightblue" points="1689.83,-64.6603 1682.97,-72.7338 1693.37,-70.7008 1689.83,-64.6603"/>
</g>
<!-- Node21&#45;&gt;Node15 -->
<g id="edge32" class="edge"><title>Node21&#45;&gt;Node15</title>
<path fill="none" stroke="midnightblue" d="M1818.96,-246.113C1802.23,-234.669 1779.39,-219.046 1765.44,-209.509"/>
<polygon fill="midnightblue" stroke="midnightblue" points="1817.3,-249.219 1827.54,-251.975 1821.26,-243.441 1817.3,-249.219"/>
</g>
<!-- Node21&#45;&gt;Node20 -->
<g id="edge33" class="edge"><title>Node21&#45;&gt;Node20</title>
<path fill="none" stroke="midnightblue" d="M1848.18,-242.679C1859.71,-217.557 1880.29,-172.687 1888.97,-153.782"/>
<polygon fill="midnightblue" stroke="midnightblue" points="1844.97,-241.27 1843.98,-251.819 1851.34,-244.19 1844.97,-241.27"/>
</g>
<!-- Node23&#45;&gt;Node8 -->
<g id="edge36" class="edge"><title>Node23&#45;&gt;Node8</title>
<path fill="none" stroke="midnightblue" d="M854.981,-244.485C798.012,-233.223 724.025,-218.598 678.032,-209.506"/>
<polygon fill="midnightblue" stroke="midnightblue" points="854.559,-247.969 865.048,-246.475 855.917,-241.102 854.559,-247.969"/>
</g>
<!-- Node27 -->
<g id="node27" class="node"><title>Node27</title>
<g id="a_node27"><a xlink:href="_ogre_g_l3_plus_texture_buffer_8h.html" target="_top" xlink:title="OgreGL3PlusTextureBuffer.h">
<polygon fill="none" stroke="black" points="2452.5,-190.5 2452.5,-209.5 2595.5,-209.5 2595.5,-190.5 2452.5,-190.5"/>
<text text-anchor="middle" x="2524" y="-197.5" font-family="Helvetica,sans-Serif" font-size="10.00">OgreGL3PlusTextureBuffer.h</text>
</a>
</g>
</g>
<!-- Node26&#45;&gt;Node27 -->
<g id="edge40" class="edge"><title>Node26&#45;&gt;Node27</title>
<path fill="none" stroke="midnightblue" d="M2524,-236.289C2524,-226.857 2524,-216.655 2524,-209.658"/>
<polygon fill="midnightblue" stroke="midnightblue" points="2520.5,-236.399 2524,-246.399 2527.5,-236.399 2520.5,-236.399"/>
</g>
<!-- Node28&#45;&gt;Node8 -->
<g id="edge42" class="edge"><title>Node28&#45;&gt;Node8</title>
<path fill="none" stroke="midnightblue" d="M577.269,-240.483C592.595,-230.001 610.57,-217.708 622.341,-209.658"/>
<polygon fill="midnightblue" stroke="midnightblue" points="574.896,-237.865 568.618,-246.399 578.848,-243.643 574.896,-237.865"/>
</g>
<!-- Node29&#45;&gt;Node7 -->
<g id="edge44" class="edge"><title>Node29&#45;&gt;Node7</title>
<path fill="none" stroke="midnightblue" d="M369.127,-237.244C357.076,-211.467 338.258,-171.219 330.053,-153.669"/>
<polygon fill="midnightblue" stroke="midnightblue" points="365.973,-238.761 373.379,-246.337 372.314,-235.796 365.973,-238.761"/>
</g>
<!-- Node29&#45;&gt;Node8 -->
<g id="edge45" class="edge"><title>Node29&#45;&gt;Node8</title>
<path fill="none" stroke="midnightblue" d="M450.141,-244.134C498.196,-232.921 559.983,-218.504 598.544,-209.506"/>
<polygon fill="midnightblue" stroke="midnightblue" points="449.052,-240.794 440.109,-246.475 450.642,-247.611 449.052,-240.794"/>
</g>
<!-- Node33&#45;&gt;Node8 -->
<g id="edge52" class="edge"><title>Node33&#45;&gt;Node8</title>
<path fill="none" stroke="midnightblue" d="M700.963,-246.113C684.23,-234.669 661.387,-219.046 647.442,-209.509"/>
<polygon fill="midnightblue" stroke="midnightblue" points="699.305,-249.219 709.535,-251.975 703.257,-243.441 699.305,-249.219"/>
</g>
</g>
</svg>
