<?xml version="1.0" encoding="UTF-8" standalone="no"?>
<!DOCTYPE svg PUBLIC "-//W3C//DTD SVG 1.1//EN"
 "http://www.w3.org/Graphics/SVG/1.1/DTD/svg11.dtd">
<!-- Generated by graphviz version 2.38.0 (20140413.2041)
 -->
<!-- Title: OgreShadowCameraSetup.h Pages: 1 -->
<svg width="2877pt" height="252pt"
 viewBox="0.00 0.00 2876.61 252.00" xmlns="http://www.w3.org/2000/svg" xmlns:xlink="http://www.w3.org/1999/xlink">
<g id="graph0" class="graph" transform="scale(1 1) rotate(0) translate(4 248)">
<title>OgreShadowCameraSetup.h</title>
<!-- Node1 -->
<g id="node1" class="node"><title>Node1</title>
<polygon fill="#bfbfbf" stroke="black" points="2286.62,-224.5 2286.62,-243.5 2427.62,-243.5 2427.62,-224.5 2286.62,-224.5"/>
<text text-anchor="middle" x="2357.12" y="-231.5" font-family="Helvetica,sans-Serif" font-size="10.00">OgreShadowCameraSetup.h</text>
</g>
<!-- Node2 -->
<g id="node2" class="node"><title>Node2</title>
<g id="a_node2"><a xlink:href="_ogre_prerequisites_8h.html" target="_top" xlink:title="OgrePrerequisites.h">
<polygon fill="none" stroke="black" points="2305.62,-168.5 2305.62,-187.5 2408.62,-187.5 2408.62,-168.5 2305.62,-168.5"/>
<text text-anchor="middle" x="2357.12" y="-175.5" font-family="Helvetica,sans-Serif" font-size="10.00">OgrePrerequisites.h</text>
</a>
</g>
</g>
<!-- Node1&#45;&gt;Node2 -->
<g id="edge1" class="edge"><title>Node1&#45;&gt;Node2</title>
<path fill="none" stroke="midnightblue" d="M2357.12,-224.083C2357.12,-217.006 2357.12,-206.861 2357.12,-197.986"/>
<polygon fill="midnightblue" stroke="midnightblue" points="2360.62,-197.751 2357.12,-187.751 2353.62,-197.751 2360.62,-197.751"/>
</g>
<!-- Node39 -->
<g id="node39" class="node"><title>Node39</title>
<g id="a_node39"><a xlink:href="_ogre_header_prefix_8h.html" target="_top" xlink:title="OgreHeaderPrefix.h">
<polygon fill="none" stroke="black" points="2634.62,-0.5 2634.62,-19.5 2737.62,-19.5 2737.62,-0.5 2634.62,-0.5"/>
<text text-anchor="middle" x="2686.12" y="-7.5" font-family="Helvetica,sans-Serif" font-size="10.00">OgreHeaderPrefix.h</text>
</a>
</g>
</g>
<!-- Node1&#45;&gt;Node39 -->
<g id="edge51" class="edge"><title>Node1&#45;&gt;Node39</title>
<path fill="none" stroke="midnightblue" d="M2410.23,-224.496C2528.35,-204.391 2806.66,-149.999 2861.12,-76 2892.96,-32.7274 2810.18,-18.2413 2747.88,-13.4054"/>
<polygon fill="midnightblue" stroke="midnightblue" points="2747.91,-9.89884 2737.68,-12.6842 2747.41,-16.8814 2747.91,-9.89884"/>
</g>
<!-- Node40 -->
<g id="node40" class="node"><title>Node40</title>
<g id="a_node40"><a xlink:href="_ogre_header_suffix_8h.html" target="_top" xlink:title="OgreHeaderSuffix.h">
<polygon fill="none" stroke="black" points="2446.62,-0.5 2446.62,-19.5 2549.62,-19.5 2549.62,-0.5 2446.62,-0.5"/>
<text text-anchor="middle" x="2498.12" y="-7.5" font-family="Helvetica,sans-Serif" font-size="10.00">OgreHeaderSuffix.h</text>
</a>
</g>
</g>
<!-- Node1&#45;&gt;Node40 -->
<g id="edge52" class="edge"><title>Node1&#45;&gt;Node40</title>
<path fill="none" stroke="midnightblue" d="M2286.32,-233.082C1877.76,-232.954 -154.784,-223.909 10.116,-56 53.9526,-11.3633 2056.61,-10.6637 2436.33,-10.9329"/>
<polygon fill="midnightblue" stroke="midnightblue" points="2436.57,-14.433 2446.57,-10.9407 2436.57,-7.43298 2436.57,-14.433"/>
</g>
<!-- Node3 -->
<g id="node3" class="node"><title>Node3</title>
<g id="a_node3"><a xlink:href="_ogre_platform_8h.html" target="_top" xlink:title="OgrePlatform.h">
<polygon fill="none" stroke="black" points="642.616,-112.5 642.616,-131.5 725.616,-131.5 725.616,-112.5 642.616,-112.5"/>
<text text-anchor="middle" x="684.116" y="-119.5" font-family="Helvetica,sans-Serif" font-size="10.00">OgrePlatform.h</text>
</a>
</g>
</g>
<!-- Node2&#45;&gt;Node3 -->
<g id="edge2" class="edge"><title>Node2&#45;&gt;Node3</title>
<path fill="none" stroke="midnightblue" d="M2305.21,-175.325C2056.19,-167.287 985.672,-132.733 736.216,-124.682"/>
<polygon fill="midnightblue" stroke="midnightblue" points="736.088,-121.176 725.98,-124.351 735.862,-128.172 736.088,-121.176"/>
</g>
<!-- Node6 -->
<g id="node6" class="node"><title>Node6</title>
<polygon fill="none" stroke="#bfbfbf" points="2261.62,-56.5 2261.62,-75.5 2302.62,-75.5 2302.62,-56.5 2261.62,-56.5"/>
<text text-anchor="middle" x="2282.12" y="-63.5" font-family="Helvetica,sans-Serif" font-size="10.00">string</text>
</g>
<!-- Node2&#45;&gt;Node6 -->
<g id="edge5" class="edge"><title>Node2&#45;&gt;Node6</title>
<path fill="none" stroke="midnightblue" d="M2351.23,-168.368C2338.85,-150.215 2309.94,-107.802 2293.7,-83.9902"/>
<polygon fill="midnightblue" stroke="midnightblue" points="2296.5,-81.882 2287.97,-75.5914 2290.72,-85.8254 2296.5,-81.882"/>
</g>
<!-- Node7 -->
<g id="node7" class="node"><title>Node7</title>
<g id="a_node7"><a xlink:href="_ogre_std_headers_8h.html" target="_top" xlink:title="OgreStdHeaders.h">
<polygon fill="none" stroke="black" points="1367.12,-112.5 1367.12,-131.5 1465.12,-131.5 1465.12,-112.5 1367.12,-112.5"/>
<text text-anchor="middle" x="1416.12" y="-119.5" font-family="Helvetica,sans-Serif" font-size="10.00">OgreStdHeaders.h</text>
</a>
</g>
</g>
<!-- Node2&#45;&gt;Node7 -->
<g id="edge6" class="edge"><title>Node2&#45;&gt;Node7</title>
<path fill="none" stroke="midnightblue" d="M2305.52,-174.039C2143.81,-164.76 1647.46,-136.276 1475.5,-126.408"/>
<polygon fill="midnightblue" stroke="midnightblue" points="1475.56,-122.905 1465.37,-125.827 1475.16,-129.894 1475.56,-122.905"/>
</g>
<!-- Node37 -->
<g id="node37" class="node"><title>Node37</title>
<g id="a_node37"><a xlink:href="_ogre_memory_allocator_config_8h.html" target="_top" xlink:title="This file configures Ogre&#39;s memory allocators. ">
<polygon fill="none" stroke="black" points="2470.12,-112.5 2470.12,-131.5 2618.12,-131.5 2618.12,-112.5 2470.12,-112.5"/>
<text text-anchor="middle" x="2544.12" y="-119.5" font-family="Helvetica,sans-Serif" font-size="10.00">OgreMemoryAllocatorConfig.h</text>
</a>
</g>
</g>
<!-- Node2&#45;&gt;Node37 -->
<g id="edge37" class="edge"><title>Node2&#45;&gt;Node37</title>
<path fill="none" stroke="midnightblue" d="M2386.75,-168.444C2418.62,-159.241 2469.45,-144.562 2504.68,-134.388"/>
<polygon fill="midnightblue" stroke="midnightblue" points="2505.99,-137.653 2514.62,-131.516 2504.05,-130.928 2505.99,-137.653"/>
</g>
<!-- Node4 -->
<g id="node4" class="node"><title>Node4</title>
<g id="a_node4"><a xlink:href="_ogre_config_8h.html" target="_top" xlink:title="OgreConfig.h">
<polygon fill="none" stroke="black" points="19.116,-56.5 19.116,-75.5 93.116,-75.5 93.116,-56.5 19.116,-56.5"/>
<text text-anchor="middle" x="56.116" y="-63.5" font-family="Helvetica,sans-Serif" font-size="10.00">OgreConfig.h</text>
</a>
</g>
</g>
<!-- Node3&#45;&gt;Node4 -->
<g id="edge3" class="edge"><title>Node3&#45;&gt;Node4</title>
<path fill="none" stroke="midnightblue" d="M642.303,-119.433C547.963,-115.541 311.247,-103.773 103.399,-76.0179"/>
<polygon fill="midnightblue" stroke="midnightblue" points="103.59,-72.512 93.2115,-74.6413 102.653,-79.4489 103.59,-72.512"/>
</g>
<!-- Node5 -->
<g id="node5" class="node"><title>Node5</title>
<polygon fill="none" stroke="#bfbfbf" points="4.11599,-0.5 4.11599,-19.5 108.116,-19.5 108.116,-0.5 4.11599,-0.5"/>
<text text-anchor="middle" x="56.116" y="-7.5" font-family="Helvetica,sans-Serif" font-size="10.00">OgreBuildSettings.h</text>
</g>
<!-- Node4&#45;&gt;Node5 -->
<g id="edge4" class="edge"><title>Node4&#45;&gt;Node5</title>
<path fill="none" stroke="midnightblue" d="M56.116,-56.083C56.116,-49.0059 56.116,-38.8611 56.116,-29.9865"/>
<polygon fill="midnightblue" stroke="midnightblue" points="59.6161,-29.751 56.116,-19.7511 52.6161,-29.7511 59.6161,-29.751"/>
</g>
<!-- Node7&#45;&gt;Node6 -->
<g id="edge16" class="edge"><title>Node7&#45;&gt;Node6</title>
<path fill="none" stroke="midnightblue" d="M1465.22,-119.888C1617.43,-116.205 2080.77,-103.158 2251.75,-75.5203"/>
<polygon fill="midnightblue" stroke="midnightblue" points="2252.34,-78.9705 2261.61,-73.8513 2251.17,-72.0686 2252.34,-78.9705"/>
</g>
<!-- Node8 -->
<g id="node8" class="node"><title>Node8</title>
<polygon fill="none" stroke="#bfbfbf" points="1011.62,-56.5 1011.62,-75.5 1060.62,-75.5 1060.62,-56.5 1011.62,-56.5"/>
<text text-anchor="middle" x="1036.12" y="-63.5" font-family="Helvetica,sans-Serif" font-size="10.00">cassert</text>
</g>
<!-- Node7&#45;&gt;Node8 -->
<g id="edge7" class="edge"><title>Node7&#45;&gt;Node8</title>
<path fill="none" stroke="midnightblue" d="M1366.92,-116.766C1301.34,-110.649 1181.53,-97.8297 1070.89,-76.1383"/>
<polygon fill="midnightblue" stroke="midnightblue" points="1071.39,-72.6692 1060.9,-74.15 1070.02,-79.5346 1071.39,-72.6692"/>
</g>
<!-- Node9 -->
<g id="node9" class="node"><title>Node9</title>
<polygon fill="none" stroke="#bfbfbf" points="1078.62,-56.5 1078.62,-75.5 1121.62,-75.5 1121.62,-56.5 1078.62,-56.5"/>
<text text-anchor="middle" x="1100.12" y="-63.5" font-family="Helvetica,sans-Serif" font-size="10.00">cstdio</text>
</g>
<!-- Node7&#45;&gt;Node9 -->
<g id="edge8" class="edge"><title>Node7&#45;&gt;Node9</title>
<path fill="none" stroke="midnightblue" d="M1366.9,-115.314C1311.67,-108.478 1219.31,-95.6779 1131.51,-76.0749"/>
<polygon fill="midnightblue" stroke="midnightblue" points="1132.18,-72.6388 1121.65,-73.8416 1130.63,-79.4656 1132.18,-72.6388"/>
</g>
<!-- Node10 -->
<g id="node10" class="node"><title>Node10</title>
<polygon fill="none" stroke="#bfbfbf" points="1139.62,-56.5 1139.62,-75.5 1184.62,-75.5 1184.62,-56.5 1139.62,-56.5"/>
<text text-anchor="middle" x="1162.12" y="-63.5" font-family="Helvetica,sans-Serif" font-size="10.00">cstdlib</text>
</g>
<!-- Node7&#45;&gt;Node10 -->
<g id="edge9" class="edge"><title>Node7&#45;&gt;Node10</title>
<path fill="none" stroke="midnightblue" d="M1368.01,-112.492C1324.88,-104.597 1259.7,-92.0013 1194.74,-76.2555"/>
<polygon fill="midnightblue" stroke="midnightblue" points="1195.29,-72.7859 1184.74,-73.8058 1193.62,-79.5849 1195.29,-72.7859"/>
</g>
<!-- Node11 -->
<g id="node11" class="node"><title>Node11</title>
<polygon fill="none" stroke="#bfbfbf" points="1202.62,-56.5 1202.62,-75.5 1243.62,-75.5 1243.62,-56.5 1202.62,-56.5"/>
<text text-anchor="middle" x="1223.12" y="-63.5" font-family="Helvetica,sans-Serif" font-size="10.00">ctime</text>
</g>
<!-- Node7&#45;&gt;Node11 -->
<g id="edge10" class="edge"><title>Node7&#45;&gt;Node11</title>
<path fill="none" stroke="midnightblue" d="M1384.51,-112.495C1353.55,-104.118 1304.81,-90.7984 1253.39,-76.0305"/>
<polygon fill="midnightblue" stroke="midnightblue" points="1254.33,-72.6613 1243.76,-73.257 1252.4,-79.3879 1254.33,-72.6613"/>
</g>
<!-- Node12 -->
<g id="node12" class="node"><title>Node12</title>
<polygon fill="none" stroke="#bfbfbf" points="1262.12,-56.5 1262.12,-75.5 1308.12,-75.5 1308.12,-56.5 1262.12,-56.5"/>
<text text-anchor="middle" x="1285.12" y="-63.5" font-family="Helvetica,sans-Serif" font-size="10.00">cstring</text>
</g>
<!-- Node7&#45;&gt;Node12 -->
<g id="edge11" class="edge"><title>Node7&#45;&gt;Node12</title>
<path fill="none" stroke="midnightblue" d="M1395.36,-112.444C1373.8,-103.557 1339.85,-89.5632 1315.32,-79.4514"/>
<polygon fill="midnightblue" stroke="midnightblue" points="1316.36,-76.0917 1305.78,-75.5164 1313.69,-82.5634 1316.36,-76.0917"/>
</g>
<!-- Node13 -->
<g id="node13" class="node"><title>Node13</title>
<polygon fill="none" stroke="#bfbfbf" points="1326.62,-56.5 1326.62,-75.5 1375.62,-75.5 1375.62,-56.5 1326.62,-56.5"/>
<text text-anchor="middle" x="1351.12" y="-63.5" font-family="Helvetica,sans-Serif" font-size="10.00">cstdarg</text>
</g>
<!-- Node7&#45;&gt;Node13 -->
<g id="edge12" class="edge"><title>Node7&#45;&gt;Node13</title>
<path fill="none" stroke="midnightblue" d="M1405.67,-112.324C1395.97,-104.263 1381.3,-92.0765 1369.62,-82.3695"/>
<polygon fill="midnightblue" stroke="midnightblue" points="1371.68,-79.532 1361.75,-75.8339 1367.2,-84.9163 1371.68,-79.532"/>
</g>
<!-- Node14 -->
<g id="node14" class="node"><title>Node14</title>
<polygon fill="none" stroke="#bfbfbf" points="1394.12,-56.5 1394.12,-75.5 1438.12,-75.5 1438.12,-56.5 1394.12,-56.5"/>
<text text-anchor="middle" x="1416.12" y="-63.5" font-family="Helvetica,sans-Serif" font-size="10.00">cmath</text>
</g>
<!-- Node7&#45;&gt;Node14 -->
<g id="edge13" class="edge"><title>Node7&#45;&gt;Node14</title>
<path fill="none" stroke="midnightblue" d="M1416.12,-112.083C1416.12,-105.006 1416.12,-94.8611 1416.12,-85.9865"/>
<polygon fill="midnightblue" stroke="midnightblue" points="1419.62,-85.751 1416.12,-75.7511 1412.62,-85.7511 1419.62,-85.751"/>
</g>
<!-- Node15 -->
<g id="node15" class="node"><title>Node15</title>
<polygon fill="none" stroke="#bfbfbf" points="1456.12,-56.5 1456.12,-75.5 1500.12,-75.5 1500.12,-56.5 1456.12,-56.5"/>
<text text-anchor="middle" x="1478.12" y="-63.5" font-family="Helvetica,sans-Serif" font-size="10.00">vector</text>
</g>
<!-- Node7&#45;&gt;Node15 -->
<g id="edge14" class="edge"><title>Node7&#45;&gt;Node15</title>
<path fill="none" stroke="midnightblue" d="M1426.08,-112.324C1435.24,-104.341 1449.05,-92.3128 1460.14,-82.6529"/>
<polygon fill="midnightblue" stroke="midnightblue" points="1462.73,-85.041 1467.97,-75.8339 1458.13,-79.7624 1462.73,-85.041"/>
</g>
<!-- Node16 -->
<g id="node16" class="node"><title>Node16</title>
<polygon fill="none" stroke="#bfbfbf" points="1518.62,-56.5 1518.62,-75.5 1553.62,-75.5 1553.62,-56.5 1518.62,-56.5"/>
<text text-anchor="middle" x="1536.12" y="-63.5" font-family="Helvetica,sans-Serif" font-size="10.00">map</text>
</g>
<!-- Node7&#45;&gt;Node16 -->
<g id="edge15" class="edge"><title>Node7&#45;&gt;Node16</title>
<path fill="none" stroke="midnightblue" d="M1435.13,-112.444C1455.05,-103.48 1486.51,-89.3221 1509.02,-79.1914"/>
<polygon fill="midnightblue" stroke="midnightblue" points="1510.68,-82.2837 1518.36,-74.9883 1507.81,-75.9003 1510.68,-82.2837"/>
</g>
<!-- Node17 -->
<g id="node17" class="node"><title>Node17</title>
<polygon fill="none" stroke="#bfbfbf" points="1572.12,-56.5 1572.12,-75.5 1602.12,-75.5 1602.12,-56.5 1572.12,-56.5"/>
<text text-anchor="middle" x="1587.12" y="-63.5" font-family="Helvetica,sans-Serif" font-size="10.00">set</text>
</g>
<!-- Node7&#45;&gt;Node17 -->
<g id="edge17" class="edge"><title>Node7&#45;&gt;Node17</title>
<path fill="none" stroke="midnightblue" d="M1445.33,-112.432C1474.89,-103.659 1521.86,-89.441 1562.12,-76 1562.22,-75.9662 1562.32,-75.9323 1562.42,-75.8983"/>
<polygon fill="midnightblue" stroke="midnightblue" points="1563.79,-79.1283 1572.08,-72.5394 1561.49,-72.5163 1563.79,-79.1283"/>
</g>
<!-- Node18 -->
<g id="node18" class="node"><title>Node18</title>
<polygon fill="none" stroke="#bfbfbf" points="1620.62,-56.5 1620.62,-75.5 1649.62,-75.5 1649.62,-56.5 1620.62,-56.5"/>
<text text-anchor="middle" x="1635.12" y="-63.5" font-family="Helvetica,sans-Serif" font-size="10.00">list</text>
</g>
<!-- Node7&#45;&gt;Node18 -->
<g id="edge18" class="edge"><title>Node7&#45;&gt;Node18</title>
<path fill="none" stroke="midnightblue" d="M1460.7,-112.459C1498.33,-104.859 1553.75,-92.7577 1610.62,-75.8198"/>
<polygon fill="midnightblue" stroke="midnightblue" points="1611.94,-79.0765 1620.5,-72.8315 1609.91,-72.3762 1611.94,-79.0765"/>
</g>
<!-- Node19 -->
<g id="node19" class="node"><title>Node19</title>
<polygon fill="none" stroke="#bfbfbf" points="1667.62,-56.5 1667.62,-75.5 1710.62,-75.5 1710.62,-56.5 1667.62,-56.5"/>
<text text-anchor="middle" x="1689.12" y="-63.5" font-family="Helvetica,sans-Serif" font-size="10.00">deque</text>
</g>
<!-- Node7&#45;&gt;Node19 -->
<g id="edge19" class="edge"><title>Node7&#45;&gt;Node19</title>
<path fill="none" stroke="midnightblue" d="M1465.55,-113.277C1512.55,-105.603 1585.41,-92.857 1657.77,-75.8806"/>
<polygon fill="midnightblue" stroke="midnightblue" points="1658.59,-79.2835 1667.51,-73.5684 1656.97,-72.4728 1658.59,-79.2835"/>
</g>
<!-- Node20 -->
<g id="node20" class="node"><title>Node20</title>
<polygon fill="none" stroke="#bfbfbf" points="1728.62,-56.5 1728.62,-75.5 1771.62,-75.5 1771.62,-56.5 1728.62,-56.5"/>
<text text-anchor="middle" x="1750.12" y="-63.5" font-family="Helvetica,sans-Serif" font-size="10.00">queue</text>
</g>
<!-- Node7&#45;&gt;Node20 -->
<g id="edge20" class="edge"><title>Node7&#45;&gt;Node20</title>
<path fill="none" stroke="midnightblue" d="M1465.29,-115.768C1523.54,-109.111 1623.61,-96.2363 1718.75,-75.8026"/>
<polygon fill="midnightblue" stroke="midnightblue" points="1719.51,-79.2196 1728.53,-73.6705 1718.02,-72.3802 1719.51,-79.2196"/>
</g>
<!-- Node21 -->
<g id="node21" class="node"><title>Node21</title>
<polygon fill="none" stroke="#bfbfbf" points="1789.62,-56.5 1789.62,-75.5 1830.62,-75.5 1830.62,-56.5 1789.62,-56.5"/>
<text text-anchor="middle" x="1810.12" y="-63.5" font-family="Helvetica,sans-Serif" font-size="10.00">bitset</text>
</g>
<!-- Node7&#45;&gt;Node21 -->
<g id="edge21" class="edge"><title>Node7&#45;&gt;Node21</title>
<path fill="none" stroke="midnightblue" d="M1465.12,-117.577C1533.51,-112.223 1661.49,-100.105 1779.64,-75.7427"/>
<polygon fill="midnightblue" stroke="midnightblue" points="1780.51,-79.1364 1789.58,-73.6589 1779.07,-72.2853 1780.51,-79.1364"/>
</g>
<!-- Node22 -->
<g id="node22" class="node"><title>Node22</title>
<polygon fill="none" stroke="#bfbfbf" points="1849.12,-56.5 1849.12,-75.5 1905.12,-75.5 1905.12,-56.5 1849.12,-56.5"/>
<text text-anchor="middle" x="1877.12" y="-63.5" font-family="Helvetica,sans-Serif" font-size="10.00">algorithm</text>
</g>
<!-- Node7&#45;&gt;Node22 -->
<g id="edge22" class="edge"><title>Node7&#45;&gt;Node22</title>
<path fill="none" stroke="midnightblue" d="M1465.24,-117.802C1544.38,-112.196 1704.81,-98.9543 1839.12,-76 1839.22,-75.9829 1839.32,-75.9656 1839.42,-75.9483"/>
<polygon fill="midnightblue" stroke="midnightblue" points="1839.83,-79.4336 1848.98,-74.0837 1838.49,-72.5631 1839.83,-79.4336"/>
</g>
<!-- Node23 -->
<g id="node23" class="node"><title>Node23</title>
<polygon fill="none" stroke="#bfbfbf" points="1923.62,-56.5 1923.62,-75.5 1982.62,-75.5 1982.62,-56.5 1923.62,-56.5"/>
<text text-anchor="middle" x="1953.12" y="-63.5" font-family="Helvetica,sans-Serif" font-size="10.00">functional</text>
</g>
<!-- Node7&#45;&gt;Node23 -->
<g id="edge23" class="edge"><title>Node7&#45;&gt;Node23</title>
<path fill="none" stroke="midnightblue" d="M1465.17,-118.795C1553.08,-114.358 1743.39,-102.556 1913.5,-75.8721"/>
<polygon fill="midnightblue" stroke="midnightblue" points="1914.06,-79.3276 1923.39,-74.3012 1912.96,-72.4144 1914.06,-79.3276"/>
</g>
<!-- Node24 -->
<g id="node24" class="node"><title>Node24</title>
<polygon fill="none" stroke="#bfbfbf" points="2001.12,-56.5 2001.12,-75.5 2041.12,-75.5 2041.12,-56.5 2001.12,-56.5"/>
<text text-anchor="middle" x="2021.12" y="-63.5" font-family="Helvetica,sans-Serif" font-size="10.00">limits</text>
</g>
<!-- Node7&#45;&gt;Node24 -->
<g id="edge24" class="edge"><title>Node7&#45;&gt;Node24</title>
<path fill="none" stroke="midnightblue" d="M1465.42,-120.669C1565.43,-119.225 1798.94,-111.92 1991.12,-76 1991.22,-75.9813 1991.32,-75.9623 1991.42,-75.9432"/>
<polygon fill="midnightblue" stroke="midnightblue" points="1992,-79.4017 2000.93,-73.6945 1990.39,-72.5896 1992,-79.4017"/>
</g>
<!-- Node25 -->
<g id="node25" class="node"><title>Node25</title>
<polygon fill="none" stroke="#bfbfbf" points="2059.12,-56.5 2059.12,-75.5 2109.12,-75.5 2109.12,-56.5 2059.12,-56.5"/>
<text text-anchor="middle" x="2084.12" y="-63.5" font-family="Helvetica,sans-Serif" font-size="10.00">fstream</text>
</g>
<!-- Node7&#45;&gt;Node25 -->
<g id="edge25" class="edge"><title>Node7&#45;&gt;Node25</title>
<path fill="none" stroke="midnightblue" d="M1465.41,-120.643C1570.96,-119.202 1826.68,-112.104 2049.08,-75.8532"/>
<polygon fill="midnightblue" stroke="midnightblue" points="2049.68,-79.3015 2058.98,-74.2171 2048.54,-72.3952 2049.68,-79.3015"/>
</g>
<!-- Node26 -->
<g id="node26" class="node"><title>Node26</title>
<polygon fill="none" stroke="#bfbfbf" points="2127.62,-56.5 2127.62,-75.5 2172.62,-75.5 2172.62,-56.5 2127.62,-56.5"/>
<text text-anchor="middle" x="2150.12" y="-63.5" font-family="Helvetica,sans-Serif" font-size="10.00">iosfwd</text>
</g>
<!-- Node7&#45;&gt;Node26 -->
<g id="edge26" class="edge"><title>Node7&#45;&gt;Node26</title>
<path fill="none" stroke="midnightblue" d="M1465.46,-121.381C1579.13,-121.5 1868.09,-117.469 2117.55,-75.683"/>
<polygon fill="midnightblue" stroke="midnightblue" points="2118.25,-79.1137 2127.52,-73.988 2117.08,-72.2126 2118.25,-79.1137"/>
</g>
<!-- Node27 -->
<g id="node27" class="node"><title>Node27</title>
<polygon fill="none" stroke="#bfbfbf" points="2191.12,-56.5 2191.12,-75.5 2243.12,-75.5 2243.12,-56.5 2191.12,-56.5"/>
<text text-anchor="middle" x="2217.12" y="-63.5" font-family="Helvetica,sans-Serif" font-size="10.00">sstream</text>
</g>
<!-- Node7&#45;&gt;Node27 -->
<g id="edge27" class="edge"><title>Node7&#45;&gt;Node27</title>
<path fill="none" stroke="midnightblue" d="M1465.22,-121.266C1585.66,-121.246 1905.23,-117.112 2180.69,-75.7096"/>
<polygon fill="midnightblue" stroke="midnightblue" points="2181.53,-79.1232 2190.88,-74.1575 2180.47,-72.203 2181.53,-79.1232"/>
</g>
<!-- Node28 -->
<g id="node28" class="node"><title>Node28</title>
<polygon fill="none" stroke="#bfbfbf" points="111.116,-56.5 111.116,-75.5 179.116,-75.5 179.116,-56.5 111.116,-56.5"/>
<text text-anchor="middle" x="145.116" y="-63.5" font-family="Helvetica,sans-Serif" font-size="10.00">sys/types.h</text>
</g>
<!-- Node7&#45;&gt;Node28 -->
<g id="edge28" class="edge"><title>Node7&#45;&gt;Node28</title>
<path fill="none" stroke="midnightblue" d="M1366.99,-120.313C1170.84,-117.402 442.542,-104.93 189.54,-75.916"/>
<polygon fill="midnightblue" stroke="midnightblue" points="189.639,-72.4032 179.296,-74.6999 188.814,-79.3544 189.639,-72.4032"/>
</g>
<!-- Node29 -->
<g id="node29" class="node"><title>Node29</title>
<polygon fill="none" stroke="#bfbfbf" points="197.116,-56.5 197.116,-75.5 257.116,-75.5 257.116,-56.5 197.116,-56.5"/>
<text text-anchor="middle" x="227.116" y="-63.5" font-family="Helvetica,sans-Serif" font-size="10.00">sys/stat.h</text>
</g>
<!-- Node7&#45;&gt;Node29 -->
<g id="edge29" class="edge"><title>Node7&#45;&gt;Node29</title>
<path fill="none" stroke="midnightblue" d="M1366.89,-120.304C1178.7,-117.456 504.006,-105.477 267.501,-75.8737"/>
<polygon fill="midnightblue" stroke="midnightblue" points="267.615,-72.3591 257.247,-74.5417 266.713,-79.3008 267.615,-72.3591"/>
</g>
<!-- Node30 -->
<g id="node30" class="node"><title>Node30</title>
<polygon fill="none" stroke="#bfbfbf" points="275.616,-56.5 275.616,-75.5 326.616,-75.5 326.616,-56.5 275.616,-56.5"/>
<text text-anchor="middle" x="301.116" y="-63.5" font-family="Helvetica,sans-Serif" font-size="10.00">unistd.h</text>
</g>
<!-- Node7&#45;&gt;Node30 -->
<g id="edge30" class="edge"><title>Node7&#45;&gt;Node30</title>
<path fill="none" stroke="midnightblue" d="M1367.07,-120.324C1186.55,-117.628 558.577,-106.345 336.915,-75.7235"/>
<polygon fill="midnightblue" stroke="midnightblue" points="337.382,-72.2546 326.986,-74.2978 336.387,-79.1836 337.382,-72.2546"/>
</g>
<!-- Node31 -->
<g id="node31" class="node"><title>Node31</title>
<polygon fill="none" stroke="#bfbfbf" points="345.116,-56.5 345.116,-75.5 391.116,-75.5 391.116,-56.5 345.116,-56.5"/>
<text text-anchor="middle" x="368.116" y="-63.5" font-family="Helvetica,sans-Serif" font-size="10.00">dlfcn.h</text>
</g>
<!-- Node7&#45;&gt;Node31 -->
<g id="edge31" class="edge"><title>Node7&#45;&gt;Node31</title>
<path fill="none" stroke="midnightblue" d="M1366.95,-120.318C1193.37,-117.682 608.951,-106.801 401.292,-75.7569"/>
<polygon fill="midnightblue" stroke="midnightblue" points="401.816,-72.2964 391.396,-74.2154 400.738,-79.213 401.816,-72.2964"/>
</g>
<!-- Node32 -->
<g id="node32" class="node"><title>Node32</title>
<polygon fill="none" stroke="#bfbfbf" points="409.116,-56.5 409.116,-75.5 487.116,-75.5 487.116,-56.5 409.116,-56.5"/>
<text text-anchor="middle" x="448.116" y="-63.5" font-family="Helvetica,sans-Serif" font-size="10.00">ext/hash_map</text>
</g>
<!-- Node7&#45;&gt;Node32 -->
<g id="edge32" class="edge"><title>Node7&#45;&gt;Node32</title>
<path fill="none" stroke="midnightblue" d="M1367.05,-120.951C1230.61,-120.313 835.078,-115.062 497.318,-75.9724"/>
<polygon fill="midnightblue" stroke="midnightblue" points="497.681,-72.4911 487.342,-74.806 496.868,-79.4437 497.681,-72.4911"/>
</g>
<!-- Node33 -->
<g id="node33" class="node"><title>Node33</title>
<polygon fill="none" stroke="#bfbfbf" points="505.616,-56.5 505.616,-75.5 578.616,-75.5 578.616,-56.5 505.616,-56.5"/>
<text text-anchor="middle" x="542.116" y="-63.5" font-family="Helvetica,sans-Serif" font-size="10.00">ext/hash_set</text>
</g>
<!-- Node7&#45;&gt;Node33 -->
<g id="edge33" class="edge"><title>Node7&#45;&gt;Node33</title>
<path fill="none" stroke="midnightblue" d="M1366.84,-120.781C1239.56,-119.689 889.316,-113.357 589.093,-76.0812"/>
<polygon fill="midnightblue" stroke="midnightblue" points="589.241,-72.5724 578.883,-74.7991 588.369,-79.5179 589.241,-72.5724"/>
</g>
<!-- Node34 -->
<g id="node34" class="node"><title>Node34</title>
<polygon fill="none" stroke="#bfbfbf" points="596.616,-56.5 596.616,-75.5 667.616,-75.5 667.616,-56.5 596.616,-56.5"/>
<text text-anchor="middle" x="632.116" y="-63.5" font-family="Helvetica,sans-Serif" font-size="10.00">sys/param.h</text>
</g>
<!-- Node7&#45;&gt;Node34 -->
<g id="edge34" class="edge"><title>Node7&#45;&gt;Node34</title>
<path fill="none" stroke="midnightblue" d="M1367.04,-120.324C1249.68,-118.212 943.461,-109.771 678.119,-75.9339"/>
<polygon fill="midnightblue" stroke="midnightblue" points="678.27,-72.4244 667.904,-74.616 677.374,-79.3669 678.27,-72.4244"/>
</g>
<!-- Node35 -->
<g id="node35" class="node"><title>Node35</title>
<polygon fill="none" stroke="#bfbfbf" points="686.116,-56.5 686.116,-75.5 852.116,-75.5 852.116,-56.5 686.116,-56.5"/>
<text text-anchor="middle" x="769.116" y="-63.5" font-family="Helvetica,sans-Serif" font-size="10.00">CoreFoundation/CoreFoundation.h</text>
</g>
<!-- Node7&#45;&gt;Node35 -->
<g id="edge35" class="edge"><title>Node7&#45;&gt;Node35</title>
<path fill="none" stroke="midnightblue" d="M1367.09,-117.3C1271.97,-110.062 1055.48,-93.2942 862.404,-76.1025"/>
<polygon fill="midnightblue" stroke="midnightblue" points="862.627,-72.6086 852.355,-75.2054 862.004,-79.5809 862.627,-72.6086"/>
</g>
<!-- Node36 -->
<g id="node36" class="node"><title>Node36</title>
<polygon fill="none" stroke="#bfbfbf" points="870.116,-56.5 870.116,-75.5 994.116,-75.5 994.116,-56.5 870.116,-56.5"/>
<text text-anchor="middle" x="932.116" y="-63.5" font-family="Helvetica,sans-Serif" font-size="10.00">emscripten/emscripten.h</text>
</g>
<!-- Node7&#45;&gt;Node36 -->
<g id="edge36" class="edge"><title>Node7&#45;&gt;Node36</title>
<path fill="none" stroke="midnightblue" d="M1367.01,-115.977C1291.34,-108.168 1141.41,-92.4208 1004.57,-76.2748"/>
<polygon fill="midnightblue" stroke="midnightblue" points="1004.66,-72.7617 994.321,-75.062 1003.84,-79.7131 1004.66,-72.7617"/>
</g>
<!-- Node38 -->
<g id="node38" class="node"><title>Node38</title>
<g id="a_node38"><a xlink:href="_ogre_memory_allocated_object_8h.html" target="_top" xlink:title="OgreMemoryAllocatedObject.h">
<polygon fill="none" stroke="black" points="2320.12,-56.5 2320.12,-75.5 2470.12,-75.5 2470.12,-56.5 2320.12,-56.5"/>
<text text-anchor="middle" x="2395.12" y="-63.5" font-family="Helvetica,sans-Serif" font-size="10.00">OgreMemoryAllocatedObject.h</text>
</a>
</g>
</g>
<!-- Node37&#45;&gt;Node38 -->
<g id="edge38" class="edge"><title>Node37&#45;&gt;Node38</title>
<path fill="none" stroke="midnightblue" d="M2520.51,-112.444C2495.66,-103.438 2456.34,-89.1891 2428.36,-79.049"/>
<polygon fill="midnightblue" stroke="midnightblue" points="2429.21,-75.6332 2418.62,-75.5164 2426.82,-82.2144 2429.21,-75.6332"/>
</g>
<!-- Node37&#45;&gt;Node39 -->
<g id="edge42" class="edge"><title>Node37&#45;&gt;Node39</title>
<path fill="none" stroke="midnightblue" d="M2598.69,-112.461C2622.61,-106.113 2649.25,-95.0933 2667.12,-76 2678.78,-63.5363 2683.32,-44.3029 2685.07,-29.9874"/>
<polygon fill="midnightblue" stroke="midnightblue" points="2688.58,-30.0497 2685.96,-19.7843 2681.61,-29.4438 2688.58,-30.0497"/>
</g>
<!-- Node37&#45;&gt;Node40 -->
<g id="edge50" class="edge"><title>Node37&#45;&gt;Node40</title>
<path fill="none" stroke="midnightblue" d="M2538.04,-112.396C2532.04,-103.595 2522.96,-89.3552 2517.12,-76 2510.49,-60.8529 2505.41,-42.7333 2502.18,-29.4774"/>
<polygon fill="midnightblue" stroke="midnightblue" points="2505.57,-28.6107 2499.9,-19.6585 2498.75,-30.1904 2505.57,-28.6107"/>
</g>
<!-- Node41 -->
<g id="node41" class="node"><title>Node41</title>
<g id="a_node41"><a xlink:href="_ogre_memory_s_t_l_allocator_8h.html" target="_top" xlink:title="OgreMemorySTLAllocator.h">
<polygon fill="none" stroke="black" points="2714.62,-56.5 2714.62,-75.5 2851.62,-75.5 2851.62,-56.5 2714.62,-56.5"/>
<text text-anchor="middle" x="2783.12" y="-63.5" font-family="Helvetica,sans-Serif" font-size="10.00">OgreMemorySTLAllocator.h</text>
</a>
</g>
</g>
<!-- Node37&#45;&gt;Node41 -->
<g id="edge43" class="edge"><title>Node37&#45;&gt;Node41</title>
<path fill="none" stroke="midnightblue" d="M2581.99,-112.444C2623.59,-103.043 2690.49,-87.9291 2735.58,-77.7393"/>
<polygon fill="midnightblue" stroke="midnightblue" points="2736.44,-81.1343 2745.42,-75.5164 2734.9,-74.3064 2736.44,-81.1343"/>
</g>
<!-- Node42 -->
<g id="node42" class="node"><title>Node42</title>
<g id="a_node42"><a xlink:href="_ogre_memory_ned_pooling_8h.html" target="_top" xlink:title="OgreMemoryNedPooling.h">
<polygon fill="none" stroke="black" points="2526.62,-56.5 2526.62,-75.5 2657.62,-75.5 2657.62,-56.5 2526.62,-56.5"/>
<text text-anchor="middle" x="2592.12" y="-63.5" font-family="Helvetica,sans-Serif" font-size="10.00">OgreMemoryNedPooling.h</text>
</a>
</g>
</g>
<!-- Node37&#45;&gt;Node42 -->
<g id="edge47" class="edge"><title>Node37&#45;&gt;Node42</title>
<path fill="none" stroke="midnightblue" d="M2552.04,-112.083C2558.96,-104.298 2569.18,-92.8015 2577.57,-83.3665"/>
<polygon fill="midnightblue" stroke="midnightblue" points="2580.31,-85.5505 2584.34,-75.7511 2575.08,-80.8999 2580.31,-85.5505"/>
</g>
<!-- Node38&#45;&gt;Node2 -->
<g id="edge39" class="edge"><title>Node38&#45;&gt;Node2</title>
<path fill="none" stroke="midnightblue" d="M2392.15,-75.5914C2386,-93.3881 2371.75,-134.625 2363.45,-158.674"/>
<polygon fill="midnightblue" stroke="midnightblue" points="2360.05,-157.774 2360.1,-168.368 2366.67,-160.059 2360.05,-157.774"/>
</g>
<!-- Node38&#45;&gt;Node39 -->
<g id="edge40" class="edge"><title>Node38&#45;&gt;Node39</title>
<path fill="none" stroke="midnightblue" d="M2441.23,-56.4435C2492.52,-46.9246 2575.39,-31.5472 2630.31,-21.3563"/>
<polygon fill="midnightblue" stroke="midnightblue" points="2631.03,-24.7823 2640.22,-19.5164 2629.75,-17.8998 2631.03,-24.7823"/>
</g>
<!-- Node38&#45;&gt;Node40 -->
<g id="edge41" class="edge"><title>Node38&#45;&gt;Node40</title>
<path fill="none" stroke="midnightblue" d="M2411.66,-56.324C2428.11,-47.7034 2453.55,-34.3643 2472.58,-24.3855"/>
<polygon fill="midnightblue" stroke="midnightblue" points="2474.38,-27.3977 2481.61,-19.6545 2471.13,-21.198 2474.38,-27.3977"/>
</g>
<!-- Node41&#45;&gt;Node2 -->
<g id="edge44" class="edge"><title>Node41&#45;&gt;Node2</title>
<path fill="none" stroke="midnightblue" d="M2766.27,-75.5395C2738.15,-89.4401 2679.56,-116.92 2627.12,-132 2557.03,-152.15 2473.96,-164.312 2418.65,-170.822"/>
<polygon fill="midnightblue" stroke="midnightblue" points="2418.19,-167.352 2408.65,-171.973 2418.99,-174.306 2418.19,-167.352"/>
</g>
<!-- Node41&#45;&gt;Node39 -->
<g id="edge45" class="edge"><title>Node41&#45;&gt;Node39</title>
<path fill="none" stroke="midnightblue" d="M2767.53,-56.324C2752.12,-47.7428 2728.3,-34.486 2710.41,-24.5224"/>
<polygon fill="midnightblue" stroke="midnightblue" points="2712.1,-21.4606 2701.66,-19.6545 2708.7,-27.5767 2712.1,-21.4606"/>
</g>
<!-- Node41&#45;&gt;Node40 -->
<g id="edge46" class="edge"><title>Node41&#45;&gt;Node40</title>
<path fill="none" stroke="midnightblue" d="M2737.96,-56.4435C2687.82,-46.9444 2606.9,-31.611 2553.11,-21.4198"/>
<polygon fill="midnightblue" stroke="midnightblue" points="2553.54,-17.9393 2543.06,-19.5164 2552.24,-24.8169 2553.54,-17.9393"/>
</g>
<!-- Node42&#45;&gt;Node39 -->
<g id="edge48" class="edge"><title>Node42&#45;&gt;Node39</title>
<path fill="none" stroke="midnightblue" d="M2607.22,-56.324C2622.02,-47.8215 2644.81,-34.7288 2662.1,-24.7975"/>
<polygon fill="midnightblue" stroke="midnightblue" points="2664.12,-27.6707 2671.05,-19.6545 2660.64,-21.6009 2664.12,-27.6707"/>
</g>
<!-- Node42&#45;&gt;Node40 -->
<g id="edge49" class="edge"><title>Node42&#45;&gt;Node40</title>
<path fill="none" stroke="midnightblue" d="M2577.01,-56.324C2562.21,-47.8215 2539.42,-34.7288 2522.13,-24.7975"/>
<polygon fill="midnightblue" stroke="midnightblue" points="2523.6,-21.6009 2513.18,-19.6545 2520.11,-27.6707 2523.6,-21.6009"/>
</g>
</g>
</svg>
