<?xml version="1.0" encoding="UTF-8" standalone="no"?>
<!DOCTYPE svg PUBLIC "-//W3C//DTD SVG 1.1//EN"
 "http://www.w3.org/Graphics/SVG/1.1/DTD/svg11.dtd">
<!-- Generated by graphviz version 2.38.0 (20140413.2041)
 -->
<!-- Title: OgreNode.h Pages: 1 -->
<svg width="971pt" height="364pt"
 viewBox="0.00 0.00 971.00 364.00" xmlns="http://www.w3.org/2000/svg" xmlns:xlink="http://www.w3.org/1999/xlink">
<g id="graph0" class="graph" transform="scale(1 1) rotate(0) translate(4 360)">
<title>OgreNode.h</title>
<!-- Node1 -->
<g id="node1" class="node"><title>Node1</title>
<polygon fill="#bfbfbf" stroke="black" points="384,-336.5 384,-355.5 453,-355.5 453,-336.5 384,-336.5"/>
<text text-anchor="middle" x="418.5" y="-343.5" font-family="Helvetica,sans-Serif" font-size="10.00">OgreNode.h</text>
</g>
<!-- Node2 -->
<g id="node2" class="node"><title>Node2</title>
<g id="a_node2"><a xlink:href="_ogre_bone_8h.html" target="_top" xlink:title="OgreBone.h">
<polygon fill="none" stroke="black" points="542.5,-280.5 542.5,-299.5 610.5,-299.5 610.5,-280.5 542.5,-280.5"/>
<text text-anchor="middle" x="576.5" y="-287.5" font-family="Helvetica,sans-Serif" font-size="10.00">OgreBone.h</text>
</a>
</g>
</g>
<!-- Node1&#45;&gt;Node2 -->
<g id="edge1" class="edge"><title>Node1&#45;&gt;Node2</title>
<path fill="none" stroke="midnightblue" d="M453.108,-333.172C482.859,-323.004 525.047,-308.585 551.582,-299.516"/>
<polygon fill="midnightblue" stroke="midnightblue" points="451.866,-329.898 443.536,-336.444 454.13,-336.521 451.866,-329.898"/>
</g>
<!-- Node15 -->
<g id="node15" class="node"><title>Node15</title>
<g id="a_node15"><a xlink:href="_ogre_instanced_entity_8h.html" target="_top" xlink:title="OgreInstancedEntity.h">
<polygon fill="none" stroke="black" points="181.5,-280.5 181.5,-299.5 295.5,-299.5 295.5,-280.5 181.5,-280.5"/>
<text text-anchor="middle" x="238.5" y="-287.5" font-family="Helvetica,sans-Serif" font-size="10.00">OgreInstancedEntity.h</text>
</a>
</g>
</g>
<!-- Node1&#45;&gt;Node15 -->
<g id="edge22" class="edge"><title>Node1&#45;&gt;Node15</title>
<path fill="none" stroke="midnightblue" d="M380.392,-333.568C346.437,-323.381 297.511,-308.703 266.888,-299.516"/>
<polygon fill="midnightblue" stroke="midnightblue" points="379.394,-336.922 389.978,-336.444 381.406,-330.218 379.394,-336.922"/>
</g>
<!-- Node16 -->
<g id="node16" class="node"><title>Node16</title>
<g id="a_node16"><a xlink:href="_ogre_ribbon_trail_8h.html" target="_top" xlink:title="OgreRibbonTrail.h">
<polygon fill="none" stroke="black" points="314,-280.5 314,-299.5 409,-299.5 409,-280.5 314,-280.5"/>
<text text-anchor="middle" x="361.5" y="-287.5" font-family="Helvetica,sans-Serif" font-size="10.00">OgreRibbonTrail.h</text>
</a>
</g>
</g>
<!-- Node1&#45;&gt;Node16 -->
<g id="edge24" class="edge"><title>Node1&#45;&gt;Node16</title>
<path fill="none" stroke="midnightblue" d="M401.879,-329.253C391.766,-319.673 379.223,-307.791 370.825,-299.834"/>
<polygon fill="midnightblue" stroke="midnightblue" points="399.675,-331.987 409.342,-336.324 404.49,-326.906 399.675,-331.987"/>
</g>
<!-- Node17 -->
<g id="node17" class="node"><title>Node17</title>
<g id="a_node17"><a xlink:href="_ogre_scene_node_8h.html" target="_top" xlink:title="OgreSceneNode.h">
<polygon fill="none" stroke="black" points="427,-280.5 427,-299.5 524,-299.5 524,-280.5 427,-280.5"/>
<text text-anchor="middle" x="475.5" y="-287.5" font-family="Helvetica,sans-Serif" font-size="10.00">OgreSceneNode.h</text>
</a>
</g>
</g>
<!-- Node1&#45;&gt;Node17 -->
<g id="edge26" class="edge"><title>Node1&#45;&gt;Node17</title>
<path fill="none" stroke="midnightblue" d="M435.121,-329.253C445.234,-319.673 457.777,-307.791 466.175,-299.834"/>
<polygon fill="midnightblue" stroke="midnightblue" points="432.51,-326.906 427.658,-336.324 437.325,-331.987 432.51,-326.906"/>
</g>
<!-- Node3 -->
<g id="node3" class="node"><title>Node3</title>
<g id="a_node3"><a xlink:href="_ogre_8h.html" target="_top" xlink:title="Ogre.h">
<polygon fill="none" stroke="black" points="347.5,-224.5 347.5,-243.5 393.5,-243.5 393.5,-224.5 347.5,-224.5"/>
<text text-anchor="middle" x="370.5" y="-231.5" font-family="Helvetica,sans-Serif" font-size="10.00">Ogre.h</text>
</a>
</g>
</g>
<!-- Node2&#45;&gt;Node3 -->
<g id="edge2" class="edge"><title>Node2&#45;&gt;Node3</title>
<path fill="none" stroke="midnightblue" d="M534.073,-277.878C491.565,-266.735 427.705,-249.995 393.719,-241.086"/>
<polygon fill="midnightblue" stroke="midnightblue" points="533.298,-281.293 543.859,-280.444 535.073,-274.522 533.298,-281.293"/>
</g>
<!-- Node14 -->
<g id="node14" class="node"><title>Node14</title>
<g id="a_node14"><a xlink:href="_ogre_tag_point_8h.html" target="_top" xlink:title="OgreTagPoint.h">
<polygon fill="none" stroke="black" points="538,-224.5 538,-243.5 623,-243.5 623,-224.5 538,-224.5"/>
<text text-anchor="middle" x="580.5" y="-231.5" font-family="Helvetica,sans-Serif" font-size="10.00">OgreTagPoint.h</text>
</a>
</g>
</g>
<!-- Node2&#45;&gt;Node14 -->
<g id="edge21" class="edge"><title>Node2&#45;&gt;Node14</title>
<path fill="none" stroke="midnightblue" d="M577.9,-270.101C578.564,-261.136 579.325,-250.858 579.852,-243.751"/>
<polygon fill="midnightblue" stroke="midnightblue" points="574.409,-269.852 577.161,-280.083 581.39,-270.369 574.409,-269.852"/>
</g>
<!-- Node4 -->
<g id="node4" class="node"><title>Node4</title>
<g id="a_node4"><a xlink:href="_ogre_hlms_datablock_8h.html" target="_top" xlink:title="OgreHlmsDatablock.h">
<polygon fill="none" stroke="black" points="93,-112.5 93,-131.5 206,-131.5 206,-112.5 93,-112.5"/>
<text text-anchor="middle" x="149.5" y="-119.5" font-family="Helvetica,sans-Serif" font-size="10.00">OgreHlmsDatablock.h</text>
</a>
</g>
</g>
<!-- Node3&#45;&gt;Node4 -->
<g id="edge3" class="edge"><title>Node3&#45;&gt;Node4</title>
<path fill="none" stroke="midnightblue" d="M336.925,-232.689C270.514,-231.285 126.137,-224.058 95.5,-188 78.4961,-167.987 111.672,-144.182 133.168,-131.672"/>
<polygon fill="midnightblue" stroke="midnightblue" points="337.198,-236.194 347.259,-232.873 337.323,-229.195 337.198,-236.194"/>
</g>
<!-- Node5 -->
<g id="node5" class="node"><title>Node5</title>
<g id="a_node5"><a xlink:href="_ogre_hlms_material_base_8h.html" target="_top" xlink:title="OgreHlmsMaterialBase.h">
<polygon fill="none" stroke="black" points="57.5,-56.5 57.5,-75.5 183.5,-75.5 183.5,-56.5 57.5,-56.5"/>
<text text-anchor="middle" x="120.5" y="-63.5" font-family="Helvetica,sans-Serif" font-size="10.00">OgreHlmsMaterialBase.h</text>
</a>
</g>
</g>
<!-- Node3&#45;&gt;Node5 -->
<g id="edge15" class="edge"><title>Node3&#45;&gt;Node5</title>
<path fill="none" stroke="midnightblue" d="M337.085,-232.675C269.577,-231.257 120.536,-224.02 87.5,-188 64.6375,-163.072 72.0902,-143.842 83.5,-112 88.7541,-97.337 101.076,-84.0309 110.062,-75.7555"/>
<polygon fill="midnightblue" stroke="midnightblue" points="337.129,-236.176 347.19,-232.856 337.254,-229.177 337.129,-236.176"/>
</g>
<!-- Node6 -->
<g id="node6" class="node"><title>Node6</title>
<g id="a_node6"><a xlink:href="_ogre_hlms_pbs_material_8h.html" target="_top" xlink:title="OgreHlmsPbsMaterial.h">
<polygon fill="none" stroke="black" points="0,-0.5 0,-19.5 121,-19.5 121,-0.5 0,-0.5"/>
<text text-anchor="middle" x="60.5" y="-7.5" font-family="Helvetica,sans-Serif" font-size="10.00">OgreHlmsPbsMaterial.h</text>
</a>
</g>
</g>
<!-- Node3&#45;&gt;Node6 -->
<g id="edge16" class="edge"><title>Node3&#45;&gt;Node6</title>
<path fill="none" stroke="midnightblue" d="M337.053,-232.62C267.202,-231.111 109.182,-223.73 71.5,-188 23.4655,-142.453 48.3552,-48.5661 57.5598,-19.6611"/>
<polygon fill="midnightblue" stroke="midnightblue" points="337.021,-236.12 347.085,-232.809 337.153,-229.121 337.021,-236.12"/>
</g>
<!-- Node7 -->
<g id="node7" class="node"><title>Node7</title>
<g id="a_node7"><a xlink:href="_ogre_hlms_property_map_8h.html" target="_top" xlink:title="OgreHlmsPropertyMap.h">
<polygon fill="none" stroke="black" points="263,-168.5 263,-187.5 388,-187.5 388,-168.5 263,-168.5"/>
<text text-anchor="middle" x="325.5" y="-175.5" font-family="Helvetica,sans-Serif" font-size="10.00">OgreHlmsPropertyMap.h</text>
</a>
</g>
</g>
<!-- Node3&#45;&gt;Node7 -->
<g id="edge6" class="edge"><title>Node3&#45;&gt;Node7</title>
<path fill="none" stroke="midnightblue" d="M356.453,-216.144C348.613,-206.736 339.171,-195.405 332.793,-187.751"/>
<polygon fill="midnightblue" stroke="midnightblue" points="353.979,-218.641 363.069,-224.083 359.356,-214.16 353.979,-218.641"/>
</g>
<!-- Node8 -->
<g id="node8" class="node"><title>Node8</title>
<g id="a_node8"><a xlink:href="_ogre_hlms_shader_generator_8h.html" target="_top" xlink:title="OgreHlmsShaderGenerator.h">
<polygon fill="none" stroke="black" points="345,-112.5 345,-131.5 488,-131.5 488,-112.5 345,-112.5"/>
<text text-anchor="middle" x="416.5" y="-119.5" font-family="Helvetica,sans-Serif" font-size="10.00">OgreHlmsShaderGenerator.h</text>
</a>
</g>
</g>
<!-- Node3&#45;&gt;Node8 -->
<g id="edge19" class="edge"><title>Node3&#45;&gt;Node8</title>
<path fill="none" stroke="midnightblue" d="M381.699,-215.74C386.684,-207.558 392.352,-197.511 396.5,-188 404.995,-168.519 411.432,-144.298 414.505,-131.634"/>
<polygon fill="midnightblue" stroke="midnightblue" points="378.649,-214.015 376.292,-224.344 384.576,-217.74 378.649,-214.015"/>
</g>
<!-- Node9 -->
<g id="node9" class="node"><title>Node9</title>
<g id="a_node9"><a xlink:href="_ogre_hlms_shader_template_8h.html" target="_top" xlink:title="OgreHlmsShaderTemplate.h">
<polygon fill="none" stroke="black" points="104.5,-168.5 104.5,-187.5 244.5,-187.5 244.5,-168.5 104.5,-168.5"/>
<text text-anchor="middle" x="174.5" y="-175.5" font-family="Helvetica,sans-Serif" font-size="10.00">OgreHlmsShaderTemplate.h</text>
</a>
</g>
</g>
<!-- Node3&#45;&gt;Node9 -->
<g id="edge10" class="edge"><title>Node3&#45;&gt;Node9</title>
<path fill="none" stroke="midnightblue" d="M337.481,-223.903C300.626,-213.749 241.451,-197.446 205.455,-187.529"/>
<polygon fill="midnightblue" stroke="midnightblue" points="336.676,-227.312 347.247,-226.593 338.535,-220.563 336.676,-227.312"/>
</g>
<!-- Node10 -->
<g id="node10" class="node"><title>Node10</title>
<g id="a_node10"><a xlink:href="_ogre_hlms_manager_8h.html" target="_top" xlink:title="OgreHlmsManager.h">
<polygon fill="none" stroke="black" points="607,-112.5 607,-131.5 714,-131.5 714,-112.5 607,-112.5"/>
<text text-anchor="middle" x="660.5" y="-119.5" font-family="Helvetica,sans-Serif" font-size="10.00">OgreHlmsManager.h</text>
</a>
</g>
</g>
<!-- Node3&#45;&gt;Node10 -->
<g id="edge12" class="edge"><title>Node3&#45;&gt;Node10</title>
<path fill="none" stroke="midnightblue" d="M403.828,-225.623C406.423,-225.068 409.003,-224.521 411.5,-224 492.218,-207.159 520.467,-226.279 593.5,-188 620.199,-174.006 643.47,-146.034 654.2,-131.783"/>
<polygon fill="midnightblue" stroke="midnightblue" points="402.93,-222.237 393.898,-227.776 404.413,-229.078 402.93,-222.237"/>
</g>
<!-- Node11 -->
<g id="node11" class="node"><title>Node11</title>
<g id="a_node11"><a xlink:href="_ogre_hlms_shader_manager_8h.html" target="_top" xlink:title="OgreHlmsShaderManager.h">
<polygon fill="none" stroke="black" points="641,-168.5 641,-187.5 778,-187.5 778,-168.5 641,-168.5"/>
<text text-anchor="middle" x="709.5" y="-175.5" font-family="Helvetica,sans-Serif" font-size="10.00">OgreHlmsShaderManager.h</text>
</a>
</g>
</g>
<!-- Node3&#45;&gt;Node11 -->
<g id="edge13" class="edge"><title>Node3&#45;&gt;Node11</title>
<path fill="none" stroke="midnightblue" d="M403.803,-225.496C406.403,-224.97 408.992,-224.464 411.5,-224 491.503,-209.195 584.266,-195.773 644.769,-187.516"/>
<polygon fill="midnightblue" stroke="midnightblue" points="402.925,-222.104 393.862,-227.592 404.369,-228.954 402.925,-222.104"/>
</g>
<!-- Node12 -->
<g id="node12" class="node"><title>Node12</title>
<g id="a_node12"><a xlink:href="_ogre_hlms_shader_common_8h.html" target="_top" xlink:title="OgreHlmsShaderCommon.h">
<polygon fill="none" stroke="black" points="444.5,-168.5 444.5,-187.5 584.5,-187.5 584.5,-168.5 444.5,-168.5"/>
<text text-anchor="middle" x="514.5" y="-175.5" font-family="Helvetica,sans-Serif" font-size="10.00">OgreHlmsShaderCommon.h</text>
</a>
</g>
</g>
<!-- Node3&#45;&gt;Node12 -->
<g id="edge17" class="edge"><title>Node3&#45;&gt;Node12</title>
<path fill="none" stroke="midnightblue" d="M402.751,-220.906C429.824,-210.754 467.817,-196.506 491.79,-187.516"/>
<polygon fill="midnightblue" stroke="midnightblue" points="401.452,-217.655 393.317,-224.444 403.909,-224.209 401.452,-217.655"/>
</g>
<!-- Node13 -->
<g id="node13" class="node"><title>Node13</title>
<g id="a_node13"><a xlink:href="_ogre_hlms_shader_pieces_manager_8h.html" target="_top" xlink:title="OgreHlmsShaderPiecesManager.h">
<polygon fill="none" stroke="black" points="796,-168.5 796,-187.5 963,-187.5 963,-168.5 796,-168.5"/>
<text text-anchor="middle" x="879.5" y="-175.5" font-family="Helvetica,sans-Serif" font-size="10.00">OgreHlmsShaderPiecesManager.h</text>
</a>
</g>
</g>
<!-- Node3&#45;&gt;Node13 -->
<g id="edge20" class="edge"><title>Node3&#45;&gt;Node13</title>
<path fill="none" stroke="midnightblue" d="M403.777,-225.344C406.383,-224.852 408.98,-224.396 411.5,-224 576.902,-198.004 619.839,-204.064 786.5,-188 789.568,-187.704 792.693,-187.403 795.849,-187.098"/>
<polygon fill="midnightblue" stroke="midnightblue" points="402.925,-221.946 393.824,-227.371 404.322,-228.805 402.925,-221.946"/>
</g>
<!-- Node4&#45;&gt;Node5 -->
<g id="edge4" class="edge"><title>Node4&#45;&gt;Node5</title>
<path fill="none" stroke="midnightblue" d="M139.824,-102.983C134.902,-93.8168 129.142,-83.0922 125.2,-75.7511"/>
<polygon fill="midnightblue" stroke="midnightblue" points="136.896,-104.929 144.711,-112.083 143.063,-101.617 136.896,-104.929"/>
</g>
<!-- Node5&#45;&gt;Node6 -->
<g id="edge5" class="edge"><title>Node5&#45;&gt;Node6</title>
<path fill="none" stroke="midnightblue" d="M103.319,-49.5372C92.6208,-39.9087 79.2437,-27.8694 70.3154,-19.8339"/>
<polygon fill="midnightblue" stroke="midnightblue" points="101.086,-52.2358 110.86,-56.324 105.768,-47.0327 101.086,-52.2358"/>
</g>
<!-- Node7&#45;&gt;Node4 -->
<g id="edge7" class="edge"><title>Node7&#45;&gt;Node4</title>
<path fill="none" stroke="midnightblue" d="M287.811,-165.436C254.628,-155.255 207.072,-140.664 177.257,-131.516"/>
<polygon fill="midnightblue" stroke="midnightblue" points="287.025,-168.856 297.612,-168.444 289.079,-162.164 287.025,-168.856"/>
</g>
<!-- Node7&#45;&gt;Node5 -->
<g id="edge8" class="edge"><title>Node7&#45;&gt;Node5</title>
<path fill="none" stroke="midnightblue" d="M303.013,-163.088C280.808,-149.528 245.738,-128.586 214.5,-112 188.932,-98.424 158.605,-84.2399 139.456,-75.5109"/>
<polygon fill="midnightblue" stroke="midnightblue" points="301.339,-166.167 311.693,-168.413 305,-160.2 301.339,-166.167"/>
</g>
<!-- Node7&#45;&gt;Node8 -->
<g id="edge9" class="edge"><title>Node7&#45;&gt;Node8</title>
<path fill="none" stroke="midnightblue" d="M348.794,-163.177C365.539,-153.241 387.6,-140.149 401.916,-131.655"/>
<polygon fill="midnightblue" stroke="midnightblue" points="346.934,-160.211 340.121,-168.324 350.507,-166.231 346.934,-160.211"/>
</g>
<!-- Node9&#45;&gt;Node4 -->
<g id="edge11" class="edge"><title>Node9&#45;&gt;Node4</title>
<path fill="none" stroke="midnightblue" d="M166.159,-158.983C161.915,-149.817 156.95,-139.092 153.551,-131.751"/>
<polygon fill="midnightblue" stroke="midnightblue" points="162.994,-160.479 170.372,-168.083 169.347,-157.538 162.994,-160.479"/>
</g>
<!-- Node11&#45;&gt;Node10 -->
<g id="edge14" class="edge"><title>Node11&#45;&gt;Node10</title>
<path fill="none" stroke="midnightblue" d="M694.466,-160.431C685.878,-150.967 675.457,-139.483 668.441,-131.751"/>
<polygon fill="midnightblue" stroke="midnightblue" points="692.097,-163.029 701.409,-168.083 697.281,-158.325 692.097,-163.029"/>
</g>
<!-- Node12&#45;&gt;Node8 -->
<g id="edge18" class="edge"><title>Node12&#45;&gt;Node8</title>
<path fill="none" stroke="midnightblue" d="M489.914,-163.453C471.822,-153.483 447.765,-140.228 432.206,-131.655"/>
<polygon fill="midnightblue" stroke="midnightblue" points="488.307,-166.563 498.755,-168.324 491.685,-160.432 488.307,-166.563"/>
</g>
<!-- Node15&#45;&gt;Node3 -->
<g id="edge23" class="edge"><title>Node15&#45;&gt;Node3</title>
<path fill="none" stroke="midnightblue" d="M268.719,-276.638C293.49,-266.504 327.9,-252.427 349.682,-243.516"/>
<polygon fill="midnightblue" stroke="midnightblue" points="267.346,-273.418 259.416,-280.444 269.997,-279.897 267.346,-273.418"/>
</g>
<!-- Node16&#45;&gt;Node3 -->
<g id="edge25" class="edge"><title>Node16&#45;&gt;Node3</title>
<path fill="none" stroke="midnightblue" d="M364.65,-270.101C366.144,-261.136 367.857,-250.858 369.041,-243.751"/>
<polygon fill="midnightblue" stroke="midnightblue" points="361.178,-269.644 362.986,-280.083 368.083,-270.794 361.178,-269.644"/>
</g>
<!-- Node17&#45;&gt;Node3 -->
<g id="edge27" class="edge"><title>Node17&#45;&gt;Node3</title>
<path fill="none" stroke="midnightblue" d="M449.69,-275.726C430.247,-265.727 404.152,-252.307 387.328,-243.655"/>
<polygon fill="midnightblue" stroke="midnightblue" points="448.136,-278.863 458.63,-280.324 451.338,-272.638 448.136,-278.863"/>
</g>
<!-- Node18 -->
<g id="node18" class="node"><title>Node18</title>
<g id="a_node18"><a xlink:href="_ogre_camera_man_8h.html" target="_top" xlink:title="OgreCameraMan.h">
<polygon fill="none" stroke="black" points="421,-224.5 421,-243.5 520,-243.5 520,-224.5 421,-224.5"/>
<text text-anchor="middle" x="470.5" y="-231.5" font-family="Helvetica,sans-Serif" font-size="10.00">OgreCameraMan.h</text>
</a>
</g>
</g>
<!-- Node17&#45;&gt;Node18 -->
<g id="edge28" class="edge"><title>Node17&#45;&gt;Node18</title>
<path fill="none" stroke="midnightblue" d="M473.75,-270.101C472.92,-261.136 471.968,-250.858 471.31,-243.751"/>
<polygon fill="midnightblue" stroke="midnightblue" points="470.267,-270.448 474.674,-280.083 477.237,-269.803 470.267,-270.448"/>
</g>
</g>
</svg>
