<?xml version="1.0" encoding="UTF-8" standalone="no"?>
<!DOCTYPE svg PUBLIC "-//W3C//DTD SVG 1.1//EN"
 "http://www.w3.org/Graphics/SVG/1.1/DTD/svg11.dtd">
<!-- Generated by graphviz version 2.38.0 (20140413.2041)
 -->
<!-- Title: OgreHardwarePixelBuffer.h Pages: 1 -->
<svg width="3233pt" height="476pt"
 viewBox="0.00 0.00 3233.00 476.00" xmlns="http://www.w3.org/2000/svg" xmlns:xlink="http://www.w3.org/1999/xlink">
<g id="graph0" class="graph" transform="scale(1 1) rotate(0) translate(4 472)">
<title>OgreHardwarePixelBuffer.h</title>
<!-- Node1 -->
<g id="node1" class="node"><title>Node1</title>
<polygon fill="#bfbfbf" stroke="black" points="2348,-448.5 2348,-467.5 2484,-467.5 2484,-448.5 2348,-448.5"/>
<text text-anchor="middle" x="2416" y="-455.5" font-family="Helvetica,sans-Serif" font-size="10.00">OgreHardwarePixelBuffer.h</text>
</g>
<!-- Node2 -->
<g id="node2" class="node"><title>Node2</title>
<g id="a_node2"><a xlink:href="_ogre_prerequisites_8h.html" target="_top" xlink:title="OgrePrerequisites.h">
<polygon fill="none" stroke="black" points="2382.5,-168.5 2382.5,-187.5 2485.5,-187.5 2485.5,-168.5 2382.5,-168.5"/>
<text text-anchor="middle" x="2434" y="-175.5" font-family="Helvetica,sans-Serif" font-size="10.00">OgrePrerequisites.h</text>
</a>
</g>
</g>
<!-- Node1&#45;&gt;Node2 -->
<g id="edge1" class="edge"><title>Node1&#45;&gt;Node2</title>
<path fill="none" stroke="midnightblue" d="M2372.74,-448.389C2322.96,-435.668 2248,-406.615 2248,-347 2248,-347 2248,-347 2248,-289 2248,-230.019 2318.15,-201.995 2372.29,-189.15"/>
<polygon fill="midnightblue" stroke="midnightblue" points="2373.2,-192.532 2382.19,-186.924 2371.66,-185.702 2373.2,-192.532"/>
</g>
<!-- Node38 -->
<g id="node38" class="node"><title>Node38</title>
<g id="a_node38"><a xlink:href="_ogre_header_prefix_8h.html" target="_top" xlink:title="OgreHeaderPrefix.h">
<polygon fill="none" stroke="black" points="2401.5,-0.5 2401.5,-19.5 2504.5,-19.5 2504.5,-0.5 2401.5,-0.5"/>
<text text-anchor="middle" x="2453" y="-7.5" font-family="Helvetica,sans-Serif" font-size="10.00">OgreHeaderPrefix.h</text>
</a>
</g>
</g>
<!-- Node1&#45;&gt;Node38 -->
<g id="edge76" class="edge"><title>Node1&#45;&gt;Node38</title>
<path fill="none" stroke="midnightblue" d="M2347.91,-455.725C1955.47,-448.162 0,-407.44 0,-347 0,-347 0,-347 0,-121 0,-80.7686 26.1017,-72.0338 63,-56 172.8,-8.2872 2026.95,-10.0288 2391.19,-10.835"/>
<polygon fill="midnightblue" stroke="midnightblue" points="2391.27,-14.3351 2401.28,-10.8579 2391.28,-7.3351 2391.27,-14.3351"/>
</g>
<!-- Node39 -->
<g id="node39" class="node"><title>Node39</title>
<g id="a_node39"><a xlink:href="_ogre_header_suffix_8h.html" target="_top" xlink:title="OgreHeaderSuffix.h">
<polygon fill="none" stroke="black" points="2988.5,-0.5 2988.5,-19.5 3091.5,-19.5 3091.5,-0.5 2988.5,-0.5"/>
<text text-anchor="middle" x="3040" y="-7.5" font-family="Helvetica,sans-Serif" font-size="10.00">OgreHeaderSuffix.h</text>
</a>
</g>
</g>
<!-- Node1&#45;&gt;Node39 -->
<g id="edge77" class="edge"><title>Node1&#45;&gt;Node39</title>
<path fill="none" stroke="midnightblue" d="M2484.28,-454.855C2679.32,-447.826 3225,-421.504 3225,-347 3225,-347 3225,-347 3225,-121 3225,-62.2539 3155.23,-34.1764 3101.38,-21.2547"/>
<polygon fill="midnightblue" stroke="midnightblue" points="3102.06,-17.8197 3091.53,-19.0143 3100.51,-24.6453 3102.06,-17.8197"/>
</g>
<!-- Node42 -->
<g id="node42" class="node"><title>Node42</title>
<g id="a_node42"><a xlink:href="_ogre_hardware_buffer_8h.html" target="_top" xlink:title="OgreHardwareBuffer.h">
<polygon fill="none" stroke="black" points="2436,-336.5 2436,-355.5 2550,-355.5 2550,-336.5 2436,-336.5"/>
<text text-anchor="middle" x="2493" y="-343.5" font-family="Helvetica,sans-Serif" font-size="10.00">OgreHardwareBuffer.h</text>
</a>
</g>
</g>
<!-- Node1&#45;&gt;Node42 -->
<g id="edge50" class="edge"><title>Node1&#45;&gt;Node42</title>
<path fill="none" stroke="midnightblue" d="M2422.04,-448.368C2434.75,-430.215 2464.44,-387.802 2481.11,-363.99"/>
<polygon fill="midnightblue" stroke="midnightblue" points="2484.12,-365.791 2486.99,-355.591 2478.38,-361.777 2484.12,-365.791"/>
</g>
<!-- Node46 -->
<g id="node46" class="node"><title>Node46</title>
<g id="a_node46"><a xlink:href="_ogre_image_8h.html" target="_top" xlink:title="OgreImage.h">
<polygon fill="none" stroke="black" points="3004.5,-280.5 3004.5,-299.5 3077.5,-299.5 3077.5,-280.5 3004.5,-280.5"/>
<text text-anchor="middle" x="3041" y="-287.5" font-family="Helvetica,sans-Serif" font-size="10.00">OgreImage.h</text>
</a>
</g>
</g>
<!-- Node1&#45;&gt;Node46 -->
<g id="edge61" class="edge"><title>Node1&#45;&gt;Node46</title>
<path fill="none" stroke="midnightblue" d="M2448.29,-448.425C2552.85,-420.653 2882.19,-333.179 2999.23,-302.095"/>
<polygon fill="midnightblue" stroke="midnightblue" points="3000.14,-305.474 3008.91,-299.524 2998.34,-298.708 3000.14,-305.474"/>
</g>
<!-- Node49 -->
<g id="node49" class="node"><title>Node49</title>
<g id="a_node49"><a xlink:href="_ogre_shared_ptr_8h.html" target="_top" xlink:title="OgreSharedPtr.h">
<polygon fill="none" stroke="black" points="2321.5,-392.5 2321.5,-411.5 2410.5,-411.5 2410.5,-392.5 2321.5,-392.5"/>
<text text-anchor="middle" x="2366" y="-399.5" font-family="Helvetica,sans-Serif" font-size="10.00">OgreSharedPtr.h</text>
</a>
</g>
</g>
<!-- Node1&#45;&gt;Node49 -->
<g id="edge71" class="edge"><title>Node1&#45;&gt;Node49</title>
<path fill="none" stroke="midnightblue" d="M2407.74,-448.083C2400.54,-440.298 2389.89,-428.801 2381.15,-419.367"/>
<polygon fill="midnightblue" stroke="midnightblue" points="2383.47,-416.711 2374.1,-411.751 2378.33,-421.467 2383.47,-416.711"/>
</g>
<!-- Node3 -->
<g id="node3" class="node"><title>Node3</title>
<g id="a_node3"><a xlink:href="_ogre_platform_8h.html" target="_top" xlink:title="OgrePlatform.h">
<polygon fill="none" stroke="black" points="2303.5,-112.5 2303.5,-131.5 2386.5,-131.5 2386.5,-112.5 2303.5,-112.5"/>
<text text-anchor="middle" x="2345" y="-119.5" font-family="Helvetica,sans-Serif" font-size="10.00">OgrePlatform.h</text>
</a>
</g>
</g>
<!-- Node2&#45;&gt;Node3 -->
<g id="edge2" class="edge"><title>Node2&#45;&gt;Node3</title>
<path fill="none" stroke="midnightblue" d="M2419.7,-168.324C2405.82,-159.9 2384.51,-146.971 2368.2,-137.074"/>
<polygon fill="midnightblue" stroke="midnightblue" points="2369.63,-133.85 2359.26,-131.655 2366,-139.834 2369.63,-133.85"/>
</g>
<!-- Node5 -->
<g id="node5" class="node"><title>Node5</title>
<polygon fill="none" stroke="#bfbfbf" points="104.5,-56.5 104.5,-75.5 145.5,-75.5 145.5,-56.5 104.5,-56.5"/>
<text text-anchor="middle" x="125" y="-63.5" font-family="Helvetica,sans-Serif" font-size="10.00">string</text>
</g>
<!-- Node2&#45;&gt;Node5 -->
<g id="edge4" class="edge"><title>Node2&#45;&gt;Node5</title>
<path fill="none" stroke="midnightblue" d="M2382.1,-176.56C2087.61,-173.783 623.528,-156.186 155.612,-75.8489"/>
<polygon fill="midnightblue" stroke="midnightblue" points="156.21,-72.4003 145.755,-74.1207 155.001,-79.2951 156.21,-72.4003"/>
</g>
<!-- Node6 -->
<g id="node6" class="node"><title>Node6</title>
<g id="a_node6"><a xlink:href="_ogre_std_headers_8h.html" target="_top" xlink:title="OgreStdHeaders.h">
<polygon fill="none" stroke="black" points="1244,-112.5 1244,-131.5 1342,-131.5 1342,-112.5 1244,-112.5"/>
<text text-anchor="middle" x="1293" y="-119.5" font-family="Helvetica,sans-Serif" font-size="10.00">OgreStdHeaders.h</text>
</a>
</g>
</g>
<!-- Node2&#45;&gt;Node6 -->
<g id="edge5" class="edge"><title>Node2&#45;&gt;Node6</title>
<path fill="none" stroke="midnightblue" d="M2382.38,-174.557C2195.08,-165.692 1551.75,-135.246 1352.39,-125.811"/>
<polygon fill="midnightblue" stroke="midnightblue" points="1352.27,-122.301 1342.12,-125.325 1351.94,-129.293 1352.27,-122.301"/>
</g>
<!-- Node36 -->
<g id="node36" class="node"><title>Node36</title>
<g id="a_node36"><a xlink:href="_ogre_memory_allocator_config_8h.html" target="_top" xlink:title="This file configures Ogre&#39;s memory allocators. ">
<polygon fill="none" stroke="black" points="2621,-112.5 2621,-131.5 2769,-131.5 2769,-112.5 2621,-112.5"/>
<text text-anchor="middle" x="2695" y="-119.5" font-family="Helvetica,sans-Serif" font-size="10.00">OgreMemoryAllocatorConfig.h</text>
</a>
</g>
</g>
<!-- Node2&#45;&gt;Node36 -->
<g id="edge36" class="edge"><title>Node2&#45;&gt;Node36</title>
<path fill="none" stroke="midnightblue" d="M2475.36,-168.444C2521.08,-158.984 2594.76,-143.738 2644.02,-133.547"/>
<polygon fill="midnightblue" stroke="midnightblue" points="2644.75,-136.97 2653.84,-131.516 2643.34,-130.115 2644.75,-136.97"/>
</g>
<!-- Node4 -->
<g id="node4" class="node"><title>Node4</title>
<g id="a_node4"><a xlink:href="_ogre_config_8h.html" target="_top" xlink:title="OgreConfig.h">
<polygon fill="none" stroke="red" points="2313,-56.5 2313,-75.5 2387,-75.5 2387,-56.5 2313,-56.5"/>
<text text-anchor="middle" x="2350" y="-63.5" font-family="Helvetica,sans-Serif" font-size="10.00">OgreConfig.h</text>
</a>
</g>
</g>
<!-- Node3&#45;&gt;Node4 -->
<g id="edge3" class="edge"><title>Node3&#45;&gt;Node4</title>
<path fill="none" stroke="midnightblue" d="M2345.83,-112.083C2346.48,-105.006 2347.42,-94.8611 2348.24,-85.9865"/>
<polygon fill="midnightblue" stroke="midnightblue" points="2351.75,-86.0312 2349.19,-75.7511 2344.78,-85.3858 2351.75,-86.0312"/>
</g>
<!-- Node6&#45;&gt;Node5 -->
<g id="edge15" class="edge"><title>Node6&#45;&gt;Node5</title>
<path fill="none" stroke="midnightblue" d="M1243.84,-120.764C1056.74,-119.606 388.279,-113.027 155.825,-75.8316"/>
<polygon fill="midnightblue" stroke="midnightblue" points="156.189,-72.3441 145.75,-74.1523 155.038,-79.2488 156.189,-72.3441"/>
</g>
<!-- Node7 -->
<g id="node7" class="node"><title>Node7</title>
<polygon fill="none" stroke="#bfbfbf" points="669.5,-56.5 669.5,-75.5 718.5,-75.5 718.5,-56.5 669.5,-56.5"/>
<text text-anchor="middle" x="694" y="-63.5" font-family="Helvetica,sans-Serif" font-size="10.00">cassert</text>
</g>
<!-- Node6&#45;&gt;Node7 -->
<g id="edge6" class="edge"><title>Node6&#45;&gt;Node7</title>
<path fill="none" stroke="midnightblue" d="M1243.78,-120.173C1146.69,-117.876 923.68,-109.299 728.609,-75.9925"/>
<polygon fill="midnightblue" stroke="midnightblue" points="729.205,-72.5437 718.754,-74.2845 728.009,-79.4409 729.205,-72.5437"/>
</g>
<!-- Node8 -->
<g id="node8" class="node"><title>Node8</title>
<polygon fill="none" stroke="#bfbfbf" points="736.5,-56.5 736.5,-75.5 779.5,-75.5 779.5,-56.5 736.5,-56.5"/>
<text text-anchor="middle" x="758" y="-63.5" font-family="Helvetica,sans-Serif" font-size="10.00">cstdio</text>
</g>
<!-- Node6&#45;&gt;Node8 -->
<g id="edge7" class="edge"><title>Node6&#45;&gt;Node8</title>
<path fill="none" stroke="midnightblue" d="M1243.79,-119.916C1154.68,-117.239 960.662,-108.134 789.754,-76.0032"/>
<polygon fill="midnightblue" stroke="midnightblue" points="790.307,-72.5456 779.828,-74.1058 788.993,-79.4212 790.307,-72.5456"/>
</g>
<!-- Node9 -->
<g id="node9" class="node"><title>Node9</title>
<polygon fill="none" stroke="#bfbfbf" points="797.5,-56.5 797.5,-75.5 842.5,-75.5 842.5,-56.5 797.5,-56.5"/>
<text text-anchor="middle" x="820" y="-63.5" font-family="Helvetica,sans-Serif" font-size="10.00">cstdlib</text>
</g>
<!-- Node6&#45;&gt;Node9 -->
<g id="edge8" class="edge"><title>Node6&#45;&gt;Node9</title>
<path fill="none" stroke="midnightblue" d="M1243.85,-118.904C1163.64,-114.851 999.602,-103.921 852.671,-76.0159"/>
<polygon fill="midnightblue" stroke="midnightblue" points="853.053,-72.5252 842.571,-74.0654 851.726,-79.3982 853.053,-72.5252"/>
</g>
<!-- Node10 -->
<g id="node10" class="node"><title>Node10</title>
<polygon fill="none" stroke="#bfbfbf" points="860.5,-56.5 860.5,-75.5 901.5,-75.5 901.5,-56.5 860.5,-56.5"/>
<text text-anchor="middle" x="881" y="-63.5" font-family="Helvetica,sans-Serif" font-size="10.00">ctime</text>
</g>
<!-- Node6&#45;&gt;Node10 -->
<g id="edge9" class="edge"><title>Node6&#45;&gt;Node10</title>
<path fill="none" stroke="midnightblue" d="M1243.72,-117.949C1172.45,-112.935 1036.44,-101.107 911.648,-75.7636"/>
<polygon fill="midnightblue" stroke="midnightblue" points="912.037,-72.2701 901.536,-73.6748 910.621,-79.1254 912.037,-72.2701"/>
</g>
<!-- Node11 -->
<g id="node11" class="node"><title>Node11</title>
<polygon fill="none" stroke="#bfbfbf" points="920,-56.5 920,-75.5 966,-75.5 966,-56.5 920,-56.5"/>
<text text-anchor="middle" x="943" y="-63.5" font-family="Helvetica,sans-Serif" font-size="10.00">cstring</text>
</g>
<!-- Node6&#45;&gt;Node11 -->
<g id="edge10" class="edge"><title>Node6&#45;&gt;Node11</title>
<path fill="none" stroke="midnightblue" d="M1243.89,-116.11C1183.13,-109.606 1076.42,-96.6985 976.306,-76.0397"/>
<polygon fill="midnightblue" stroke="midnightblue" points="976.835,-72.5744 966.329,-73.9501 975.4,-79.4258 976.835,-72.5744"/>
</g>
<!-- Node12 -->
<g id="node12" class="node"><title>Node12</title>
<polygon fill="none" stroke="#bfbfbf" points="984.5,-56.5 984.5,-75.5 1033.5,-75.5 1033.5,-56.5 984.5,-56.5"/>
<text text-anchor="middle" x="1009" y="-63.5" font-family="Helvetica,sans-Serif" font-size="10.00">cstdarg</text>
</g>
<!-- Node6&#45;&gt;Node12 -->
<g id="edge11" class="edge"><title>Node6&#45;&gt;Node12</title>
<path fill="none" stroke="midnightblue" d="M1243.9,-113.365C1195.5,-105.568 1119.22,-92.5641 1043.95,-76.0626"/>
<polygon fill="midnightblue" stroke="midnightblue" points="1044.35,-72.5645 1033.83,-73.819 1042.83,-79.3989 1044.35,-72.5645"/>
</g>
<!-- Node13 -->
<g id="node13" class="node"><title>Node13</title>
<polygon fill="none" stroke="#bfbfbf" points="1052,-56.5 1052,-75.5 1096,-75.5 1096,-56.5 1052,-56.5"/>
<text text-anchor="middle" x="1074" y="-63.5" font-family="Helvetica,sans-Serif" font-size="10.00">cmath</text>
</g>
<!-- Node6&#45;&gt;Node13 -->
<g id="edge12" class="edge"><title>Node6&#45;&gt;Node13</title>
<path fill="none" stroke="midnightblue" d="M1255.06,-112.477C1219.07,-104.269 1163.27,-91.2224 1106.23,-76.2362"/>
<polygon fill="midnightblue" stroke="midnightblue" points="1106.88,-72.7887 1096.32,-73.6164 1105.09,-79.5561 1106.88,-72.7887"/>
</g>
<!-- Node14 -->
<g id="node14" class="node"><title>Node14</title>
<polygon fill="none" stroke="#bfbfbf" points="1114,-56.5 1114,-75.5 1158,-75.5 1158,-56.5 1114,-56.5"/>
<text text-anchor="middle" x="1136" y="-63.5" font-family="Helvetica,sans-Serif" font-size="10.00">vector</text>
</g>
<!-- Node6&#45;&gt;Node14 -->
<g id="edge13" class="edge"><title>Node6&#45;&gt;Node14</title>
<path fill="none" stroke="midnightblue" d="M1268.12,-112.444C1240.93,-103.092 1197.31,-88.0859 1167.69,-77.8984"/>
<polygon fill="midnightblue" stroke="midnightblue" points="1168.82,-74.5862 1158.22,-74.6433 1166.54,-81.2056 1168.82,-74.5862"/>
</g>
<!-- Node15 -->
<g id="node15" class="node"><title>Node15</title>
<polygon fill="none" stroke="#bfbfbf" points="1176.5,-56.5 1176.5,-75.5 1211.5,-75.5 1211.5,-56.5 1176.5,-56.5"/>
<text text-anchor="middle" x="1194" y="-63.5" font-family="Helvetica,sans-Serif" font-size="10.00">map</text>
</g>
<!-- Node6&#45;&gt;Node15 -->
<g id="edge14" class="edge"><title>Node6&#45;&gt;Node15</title>
<path fill="none" stroke="midnightblue" d="M1277.09,-112.324C1261.36,-103.743 1237.06,-90.486 1218.79,-80.5224"/>
<polygon fill="midnightblue" stroke="midnightblue" points="1220.32,-77.3704 1209.87,-75.6545 1216.97,-83.5157 1220.32,-77.3704"/>
</g>
<!-- Node16 -->
<g id="node16" class="node"><title>Node16</title>
<polygon fill="none" stroke="#bfbfbf" points="1230,-56.5 1230,-75.5 1260,-75.5 1260,-56.5 1230,-56.5"/>
<text text-anchor="middle" x="1245" y="-63.5" font-family="Helvetica,sans-Serif" font-size="10.00">set</text>
</g>
<!-- Node6&#45;&gt;Node16 -->
<g id="edge16" class="edge"><title>Node6&#45;&gt;Node16</title>
<path fill="none" stroke="midnightblue" d="M1285.07,-112.083C1278.15,-104.298 1267.93,-92.8015 1259.55,-83.3665"/>
<polygon fill="midnightblue" stroke="midnightblue" points="1262.04,-80.8999 1252.78,-75.7511 1256.81,-85.5505 1262.04,-80.8999"/>
</g>
<!-- Node17 -->
<g id="node17" class="node"><title>Node17</title>
<polygon fill="none" stroke="#bfbfbf" points="1278.5,-56.5 1278.5,-75.5 1307.5,-75.5 1307.5,-56.5 1278.5,-56.5"/>
<text text-anchor="middle" x="1293" y="-63.5" font-family="Helvetica,sans-Serif" font-size="10.00">list</text>
</g>
<!-- Node6&#45;&gt;Node17 -->
<g id="edge17" class="edge"><title>Node6&#45;&gt;Node17</title>
<path fill="none" stroke="midnightblue" d="M1293,-112.083C1293,-105.006 1293,-94.8611 1293,-85.9865"/>
<polygon fill="midnightblue" stroke="midnightblue" points="1296.5,-85.751 1293,-75.7511 1289.5,-85.7511 1296.5,-85.751"/>
</g>
<!-- Node18 -->
<g id="node18" class="node"><title>Node18</title>
<polygon fill="none" stroke="#bfbfbf" points="1325.5,-56.5 1325.5,-75.5 1368.5,-75.5 1368.5,-56.5 1325.5,-56.5"/>
<text text-anchor="middle" x="1347" y="-63.5" font-family="Helvetica,sans-Serif" font-size="10.00">deque</text>
</g>
<!-- Node6&#45;&gt;Node18 -->
<g id="edge18" class="edge"><title>Node6&#45;&gt;Node18</title>
<path fill="none" stroke="midnightblue" d="M1301.92,-112.083C1309.78,-104.22 1321.43,-92.5688 1330.92,-83.0813"/>
<polygon fill="midnightblue" stroke="midnightblue" points="1333.65,-85.2971 1338.25,-75.7511 1328.7,-80.3473 1333.65,-85.2971"/>
</g>
<!-- Node19 -->
<g id="node19" class="node"><title>Node19</title>
<polygon fill="none" stroke="#bfbfbf" points="1386.5,-56.5 1386.5,-75.5 1429.5,-75.5 1429.5,-56.5 1386.5,-56.5"/>
<text text-anchor="middle" x="1408" y="-63.5" font-family="Helvetica,sans-Serif" font-size="10.00">queue</text>
</g>
<!-- Node6&#45;&gt;Node19 -->
<g id="edge19" class="edge"><title>Node6&#45;&gt;Node19</title>
<path fill="none" stroke="midnightblue" d="M1311.22,-112.444C1329.9,-103.675 1359.16,-89.9355 1380.62,-79.8579"/>
<polygon fill="midnightblue" stroke="midnightblue" points="1382.3,-82.935 1389.86,-75.5164 1379.32,-76.5988 1382.3,-82.935"/>
</g>
<!-- Node20 -->
<g id="node20" class="node"><title>Node20</title>
<polygon fill="none" stroke="#bfbfbf" points="1447.5,-56.5 1447.5,-75.5 1488.5,-75.5 1488.5,-56.5 1447.5,-56.5"/>
<text text-anchor="middle" x="1468" y="-63.5" font-family="Helvetica,sans-Serif" font-size="10.00">bitset</text>
</g>
<!-- Node6&#45;&gt;Node20 -->
<g id="edge20" class="edge"><title>Node6&#45;&gt;Node20</title>
<path fill="none" stroke="midnightblue" d="M1320.73,-112.444C1352.61,-102.606 1404.77,-86.5122 1437.69,-76.3518"/>
<polygon fill="midnightblue" stroke="midnightblue" points="1438.73,-79.6956 1447.25,-73.4026 1436.66,-73.0068 1438.73,-79.6956"/>
</g>
<!-- Node21 -->
<g id="node21" class="node"><title>Node21</title>
<polygon fill="none" stroke="#bfbfbf" points="1507,-56.5 1507,-75.5 1563,-75.5 1563,-56.5 1507,-56.5"/>
<text text-anchor="middle" x="1535" y="-63.5" font-family="Helvetica,sans-Serif" font-size="10.00">algorithm</text>
</g>
<!-- Node6&#45;&gt;Node21 -->
<g id="edge21" class="edge"><title>Node6&#45;&gt;Node21</title>
<path fill="none" stroke="midnightblue" d="M1332.53,-112.47C1373.66,-103.55 1439.9,-89.0585 1497,-76 1497.1,-75.9773 1497.2,-75.9546 1497.3,-75.9319"/>
<polygon fill="midnightblue" stroke="midnightblue" points="1497.84,-79.3996 1506.79,-73.7326 1496.26,-72.5802 1497.84,-79.3996"/>
</g>
<!-- Node22 -->
<g id="node22" class="node"><title>Node22</title>
<polygon fill="none" stroke="#bfbfbf" points="1581.5,-56.5 1581.5,-75.5 1640.5,-75.5 1640.5,-56.5 1581.5,-56.5"/>
<text text-anchor="middle" x="1611" y="-63.5" font-family="Helvetica,sans-Serif" font-size="10.00">functional</text>
</g>
<!-- Node6&#45;&gt;Node22 -->
<g id="edge22" class="edge"><title>Node6&#45;&gt;Node22</title>
<path fill="none" stroke="midnightblue" d="M1342.06,-114.101C1395.85,-106.311 1484.91,-92.7509 1571.26,-76.032"/>
<polygon fill="midnightblue" stroke="midnightblue" points="1572.09,-79.437 1581.23,-74.0851 1570.75,-72.5668 1572.09,-79.437"/>
</g>
<!-- Node23 -->
<g id="node23" class="node"><title>Node23</title>
<polygon fill="none" stroke="#bfbfbf" points="1659,-56.5 1659,-75.5 1699,-75.5 1699,-56.5 1659,-56.5"/>
<text text-anchor="middle" x="1679" y="-63.5" font-family="Helvetica,sans-Serif" font-size="10.00">limits</text>
</g>
<!-- Node6&#45;&gt;Node23 -->
<g id="edge23" class="edge"><title>Node6&#45;&gt;Node23</title>
<path fill="none" stroke="midnightblue" d="M1342.09,-117.385C1411.14,-111.713 1540.67,-98.9316 1649,-76 1649.1,-75.9789 1649.2,-75.9576 1649.3,-75.9361"/>
<polygon fill="midnightblue" stroke="midnightblue" points="1649.93,-79.3853 1658.78,-73.5604 1648.23,-72.5951 1649.93,-79.3853"/>
</g>
<!-- Node24 -->
<g id="node24" class="node"><title>Node24</title>
<polygon fill="none" stroke="#bfbfbf" points="1717,-56.5 1717,-75.5 1767,-75.5 1767,-56.5 1717,-56.5"/>
<text text-anchor="middle" x="1742" y="-63.5" font-family="Helvetica,sans-Serif" font-size="10.00">fstream</text>
</g>
<!-- Node6&#45;&gt;Node24 -->
<g id="edge24" class="edge"><title>Node6&#45;&gt;Node24</title>
<path fill="none" stroke="midnightblue" d="M1342.22,-118.073C1418.46,-113.013 1569.76,-100.872 1706.99,-75.9289"/>
<polygon fill="midnightblue" stroke="midnightblue" points="1707.65,-79.3671 1716.84,-74.1109 1706.38,-72.4833 1707.65,-79.3671"/>
</g>
<!-- Node25 -->
<g id="node25" class="node"><title>Node25</title>
<polygon fill="none" stroke="#bfbfbf" points="1785.5,-56.5 1785.5,-75.5 1830.5,-75.5 1830.5,-56.5 1785.5,-56.5"/>
<text text-anchor="middle" x="1808" y="-63.5" font-family="Helvetica,sans-Serif" font-size="10.00">iosfwd</text>
</g>
<!-- Node6&#45;&gt;Node25 -->
<g id="edge25" class="edge"><title>Node6&#45;&gt;Node25</title>
<path fill="none" stroke="midnightblue" d="M1342.08,-119.364C1428.02,-115.863 1611.37,-105.561 1775.13,-75.8002"/>
<polygon fill="midnightblue" stroke="midnightblue" points="1776.2,-79.1634 1785.39,-73.9052 1774.92,-72.2799 1776.2,-79.1634"/>
</g>
<!-- Node26 -->
<g id="node26" class="node"><title>Node26</title>
<polygon fill="none" stroke="#bfbfbf" points="1849,-56.5 1849,-75.5 1901,-75.5 1901,-56.5 1849,-56.5"/>
<text text-anchor="middle" x="1875" y="-63.5" font-family="Helvetica,sans-Serif" font-size="10.00">sstream</text>
</g>
<!-- Node6&#45;&gt;Node26 -->
<g id="edge26" class="edge"><title>Node6&#45;&gt;Node26</title>
<path fill="none" stroke="midnightblue" d="M1342.27,-119.623C1436.7,-116.404 1649.75,-106.339 1838.64,-75.7469"/>
<polygon fill="midnightblue" stroke="midnightblue" points="1839.46,-79.16 1848.76,-74.085 1838.32,-72.2526 1839.46,-79.16"/>
</g>
<!-- Node27 -->
<g id="node27" class="node"><title>Node27</title>
<polygon fill="none" stroke="#bfbfbf" points="1919,-56.5 1919,-75.5 1987,-75.5 1987,-56.5 1919,-56.5"/>
<text text-anchor="middle" x="1953" y="-63.5" font-family="Helvetica,sans-Serif" font-size="10.00">sys/types.h</text>
</g>
<!-- Node6&#45;&gt;Node27 -->
<g id="edge27" class="edge"><title>Node6&#45;&gt;Node27</title>
<path fill="none" stroke="midnightblue" d="M1342.03,-119.647C1445.18,-116.321 1692.31,-105.832 1908.84,-75.9772"/>
<polygon fill="midnightblue" stroke="midnightblue" points="1909.38,-79.4356 1918.8,-74.5868 1908.42,-72.5028 1909.38,-79.4356"/>
</g>
<!-- Node28 -->
<g id="node28" class="node"><title>Node28</title>
<polygon fill="none" stroke="#bfbfbf" points="2005,-56.5 2005,-75.5 2065,-75.5 2065,-56.5 2005,-56.5"/>
<text text-anchor="middle" x="2035" y="-63.5" font-family="Helvetica,sans-Serif" font-size="10.00">sys/stat.h</text>
</g>
<!-- Node6&#45;&gt;Node28 -->
<g id="edge28" class="edge"><title>Node6&#45;&gt;Node28</title>
<path fill="none" stroke="midnightblue" d="M1342.29,-120.598C1455.86,-119.08 1744.72,-111.846 1994.85,-75.9217"/>
<polygon fill="midnightblue" stroke="midnightblue" points="1995.47,-79.3696 2004.86,-74.4665 1994.46,-72.4425 1995.47,-79.3696"/>
</g>
<!-- Node29 -->
<g id="node29" class="node"><title>Node29</title>
<polygon fill="none" stroke="#bfbfbf" points="2083.5,-56.5 2083.5,-75.5 2134.5,-75.5 2134.5,-56.5 2083.5,-56.5"/>
<text text-anchor="middle" x="2109" y="-63.5" font-family="Helvetica,sans-Serif" font-size="10.00">unistd.h</text>
</g>
<!-- Node6&#45;&gt;Node29 -->
<g id="edge29" class="edge"><title>Node6&#45;&gt;Node29</title>
<path fill="none" stroke="midnightblue" d="M1342.24,-121.464C1464.58,-121.913 1792.11,-118.796 2073.15,-75.7974"/>
<polygon fill="midnightblue" stroke="midnightblue" points="2073.78,-79.2414 2083.12,-74.2509 2072.7,-72.324 2073.78,-79.2414"/>
</g>
<!-- Node30 -->
<g id="node30" class="node"><title>Node30</title>
<polygon fill="none" stroke="#bfbfbf" points="2153,-56.5 2153,-75.5 2199,-75.5 2199,-56.5 2153,-56.5"/>
<text text-anchor="middle" x="2176" y="-63.5" font-family="Helvetica,sans-Serif" font-size="10.00">dlfcn.h</text>
</g>
<!-- Node6&#45;&gt;Node30 -->
<g id="edge30" class="edge"><title>Node6&#45;&gt;Node30</title>
<path fill="none" stroke="midnightblue" d="M1342.07,-119.778C1495.88,-115.736 1968.13,-101.66 2142.63,-75.5882"/>
<polygon fill="midnightblue" stroke="midnightblue" points="2143.36,-79.0169 2152.7,-74.0158 2142.28,-72.1007 2143.36,-79.0169"/>
</g>
<!-- Node31 -->
<g id="node31" class="node"><title>Node31</title>
<polygon fill="none" stroke="#bfbfbf" points="2217,-56.5 2217,-75.5 2295,-75.5 2295,-56.5 2217,-56.5"/>
<text text-anchor="middle" x="2256" y="-63.5" font-family="Helvetica,sans-Serif" font-size="10.00">ext/hash_map</text>
</g>
<!-- Node6&#45;&gt;Node31 -->
<g id="edge31" class="edge"><title>Node6&#45;&gt;Node31</title>
<path fill="none" stroke="midnightblue" d="M1342.29,-120.931C1478.38,-120.239 1870.9,-114.856 2206.37,-76.0229"/>
<polygon fill="midnightblue" stroke="midnightblue" points="2207.25,-79.4436 2216.77,-74.8052 2206.43,-72.4911 2207.25,-79.4436"/>
</g>
<!-- Node32 -->
<g id="node32" class="node"><title>Node32</title>
<polygon fill="none" stroke="#bfbfbf" points="163.5,-56.5 163.5,-75.5 236.5,-75.5 236.5,-56.5 163.5,-56.5"/>
<text text-anchor="middle" x="200" y="-63.5" font-family="Helvetica,sans-Serif" font-size="10.00">ext/hash_set</text>
</g>
<!-- Node6&#45;&gt;Node32 -->
<g id="edge32" class="edge"><title>Node6&#45;&gt;Node32</title>
<path fill="none" stroke="midnightblue" d="M1243.94,-121.576C1095.1,-122.756 635.56,-122.205 246.798,-76.0373"/>
<polygon fill="midnightblue" stroke="midnightblue" points="247.108,-72.5495 236.762,-74.8334 246.274,-79.4996 247.108,-72.5495"/>
</g>
<!-- Node33 -->
<g id="node33" class="node"><title>Node33</title>
<polygon fill="none" stroke="#bfbfbf" points="254.5,-56.5 254.5,-75.5 325.5,-75.5 325.5,-56.5 254.5,-56.5"/>
<text text-anchor="middle" x="290" y="-63.5" font-family="Helvetica,sans-Serif" font-size="10.00">sys/param.h</text>
</g>
<!-- Node6&#45;&gt;Node33 -->
<g id="edge33" class="edge"><title>Node6&#45;&gt;Node33</title>
<path fill="none" stroke="midnightblue" d="M1243.93,-121.293C1103.71,-121.577 689.218,-118.567 335.953,-75.9027"/>
<polygon fill="midnightblue" stroke="midnightblue" points="336.133,-72.3988 325.783,-74.6613 335.285,-79.3472 336.133,-72.3988"/>
</g>
<!-- Node34 -->
<g id="node34" class="node"><title>Node34</title>
<polygon fill="none" stroke="#bfbfbf" points="344,-56.5 344,-75.5 510,-75.5 510,-56.5 344,-56.5"/>
<text text-anchor="middle" x="427" y="-63.5" font-family="Helvetica,sans-Serif" font-size="10.00">CoreFoundation/CoreFoundation.h</text>
</g>
<!-- Node6&#45;&gt;Node34 -->
<g id="edge34" class="edge"><title>Node6&#45;&gt;Node34</title>
<path fill="none" stroke="midnightblue" d="M1243.6,-118.805C1122.4,-113.274 800.411,-97.7003 520.586,-76.0944"/>
<polygon fill="midnightblue" stroke="midnightblue" points="520.473,-72.5752 510.232,-75.2907 519.931,-79.5542 520.473,-72.5752"/>
</g>
<!-- Node35 -->
<g id="node35" class="node"><title>Node35</title>
<polygon fill="none" stroke="#bfbfbf" points="528,-56.5 528,-75.5 652,-75.5 652,-56.5 528,-56.5"/>
<text text-anchor="middle" x="590" y="-63.5" font-family="Helvetica,sans-Serif" font-size="10.00">emscripten/emscripten.h</text>
</g>
<!-- Node6&#45;&gt;Node35 -->
<g id="edge35" class="edge"><title>Node6&#45;&gt;Node35</title>
<path fill="none" stroke="midnightblue" d="M1243.67,-118.451C1138.64,-112.817 884.9,-98.1064 662.427,-76.1979"/>
<polygon fill="midnightblue" stroke="midnightblue" points="662.488,-72.6869 652.192,-75.1826 661.797,-79.6527 662.488,-72.6869"/>
</g>
<!-- Node37 -->
<g id="node37" class="node"><title>Node37</title>
<g id="a_node37"><a xlink:href="_ogre_memory_allocated_object_8h.html" target="_top" xlink:title="OgreMemoryAllocatedObject.h">
<polygon fill="none" stroke="black" points="2481,-56.5 2481,-75.5 2631,-75.5 2631,-56.5 2481,-56.5"/>
<text text-anchor="middle" x="2556" y="-63.5" font-family="Helvetica,sans-Serif" font-size="10.00">OgreMemoryAllocatedObject.h</text>
</a>
</g>
</g>
<!-- Node36&#45;&gt;Node37 -->
<g id="edge37" class="edge"><title>Node36&#45;&gt;Node37</title>
<path fill="none" stroke="midnightblue" d="M2672.98,-112.444C2649.9,-103.478 2613.44,-89.314 2587.36,-79.1827"/>
<polygon fill="midnightblue" stroke="midnightblue" points="2588.51,-75.8753 2577.92,-75.5164 2585.98,-82.4002 2588.51,-75.8753"/>
</g>
<!-- Node36&#45;&gt;Node38 -->
<g id="edge41" class="edge"><title>Node36&#45;&gt;Node38</title>
<path fill="none" stroke="midnightblue" d="M2690.16,-112.314C2681.83,-98.2025 2663.41,-70.4264 2640,-56 2602.16,-32.6795 2553.12,-21.4443 2514.75,-16.0316"/>
<polygon fill="midnightblue" stroke="midnightblue" points="2515.11,-12.5484 2504.73,-14.7155 2514.19,-19.4887 2515.11,-12.5484"/>
</g>
<!-- Node36&#45;&gt;Node39 -->
<g id="edge49" class="edge"><title>Node36&#45;&gt;Node39</title>
<path fill="none" stroke="midnightblue" d="M2769.12,-115.183C2841.95,-108.451 2947.2,-95.6969 2983,-76 3003.26,-64.8568 3019.77,-43.5914 3029.72,-28.4186"/>
<polygon fill="midnightblue" stroke="midnightblue" points="3032.7,-30.2398 3035.03,-19.9038 3026.77,-26.5324 3032.7,-30.2398"/>
</g>
<!-- Node40 -->
<g id="node40" class="node"><title>Node40</title>
<g id="a_node40"><a xlink:href="_ogre_memory_s_t_l_allocator_8h.html" target="_top" xlink:title="OgreMemorySTLAllocator.h">
<polygon fill="none" stroke="black" points="2836.5,-56.5 2836.5,-75.5 2973.5,-75.5 2973.5,-56.5 2836.5,-56.5"/>
<text text-anchor="middle" x="2905" y="-63.5" font-family="Helvetica,sans-Serif" font-size="10.00">OgreMemorySTLAllocator.h</text>
</a>
</g>
</g>
<!-- Node36&#45;&gt;Node40 -->
<g id="edge42" class="edge"><title>Node36&#45;&gt;Node40</title>
<path fill="none" stroke="midnightblue" d="M2728.28,-112.444C2764.45,-103.142 2822.38,-88.246 2861.98,-78.062"/>
<polygon fill="midnightblue" stroke="midnightblue" points="2863.07,-81.3966 2871.88,-75.5164 2861.32,-74.6172 2863.07,-81.3966"/>
</g>
<!-- Node41 -->
<g id="node41" class="node"><title>Node41</title>
<g id="a_node41"><a xlink:href="_ogre_memory_ned_pooling_8h.html" target="_top" xlink:title="OgreMemoryNedPooling.h">
<polygon fill="none" stroke="black" points="2687.5,-56.5 2687.5,-75.5 2818.5,-75.5 2818.5,-56.5 2687.5,-56.5"/>
<text text-anchor="middle" x="2753" y="-63.5" font-family="Helvetica,sans-Serif" font-size="10.00">OgreMemoryNedPooling.h</text>
</a>
</g>
</g>
<!-- Node36&#45;&gt;Node41 -->
<g id="edge46" class="edge"><title>Node36&#45;&gt;Node41</title>
<path fill="none" stroke="midnightblue" d="M2704.32,-112.324C2712.89,-104.341 2725.81,-92.3128 2736.19,-82.6529"/>
<polygon fill="midnightblue" stroke="midnightblue" points="2738.58,-85.2098 2743.51,-75.8339 2733.81,-80.0865 2738.58,-85.2098"/>
</g>
<!-- Node37&#45;&gt;Node2 -->
<g id="edge38" class="edge"><title>Node37&#45;&gt;Node2</title>
<path fill="none" stroke="midnightblue" d="M2546.47,-75.5914C2525.93,-94.1096 2477.25,-138.007 2451.18,-161.512"/>
<polygon fill="midnightblue" stroke="midnightblue" points="2448.66,-159.073 2443.57,-168.368 2453.34,-164.271 2448.66,-159.073"/>
</g>
<!-- Node37&#45;&gt;Node38 -->
<g id="edge39" class="edge"><title>Node37&#45;&gt;Node38</title>
<path fill="none" stroke="midnightblue" d="M2539.45,-56.324C2523.01,-47.7034 2497.57,-34.3643 2478.53,-24.3855"/>
<polygon fill="midnightblue" stroke="midnightblue" points="2479.99,-21.198 2469.51,-19.6545 2476.74,-27.3977 2479.99,-21.198"/>
</g>
<!-- Node37&#45;&gt;Node39 -->
<g id="edge40" class="edge"><title>Node37&#45;&gt;Node39</title>
<path fill="none" stroke="midnightblue" d="M2631.09,-56.6217C2726.49,-45.9785 2889.35,-27.8083 2978.02,-17.9152"/>
<polygon fill="midnightblue" stroke="midnightblue" points="2978.64,-21.3673 2988.19,-16.78 2977.87,-14.4105 2978.64,-21.3673"/>
</g>
<!-- Node40&#45;&gt;Node2 -->
<g id="edge43" class="edge"><title>Node40&#45;&gt;Node2</title>
<path fill="none" stroke="midnightblue" d="M2891.93,-75.6225C2869.61,-89.9012 2822.23,-118.243 2778,-132 2682.4,-161.735 2565.92,-171.828 2495.98,-175.25"/>
<polygon fill="midnightblue" stroke="midnightblue" points="2495.42,-171.772 2485.59,-175.726 2495.74,-178.765 2495.42,-171.772"/>
</g>
<!-- Node40&#45;&gt;Node38 -->
<g id="edge44" class="edge"><title>Node40&#45;&gt;Node38</title>
<path fill="none" stroke="midnightblue" d="M2836.35,-56.7986C2748.87,-46.3473 2598.94,-28.4358 2514.85,-18.3893"/>
<polygon fill="midnightblue" stroke="midnightblue" points="2515.03,-14.8854 2504.68,-17.1743 2514.2,-21.836 2515.03,-14.8854"/>
</g>
<!-- Node40&#45;&gt;Node39 -->
<g id="edge45" class="edge"><title>Node40&#45;&gt;Node39</title>
<path fill="none" stroke="midnightblue" d="M2926.39,-56.4435C2948.71,-47.5171 2983.9,-33.4387 3009.21,-23.3168"/>
<polygon fill="midnightblue" stroke="midnightblue" points="3010.72,-26.4801 3018.71,-19.5164 3008.12,-19.9807 3010.72,-26.4801"/>
</g>
<!-- Node41&#45;&gt;Node38 -->
<g id="edge47" class="edge"><title>Node41&#45;&gt;Node38</title>
<path fill="none" stroke="midnightblue" d="M2705.46,-56.4435C2652.47,-46.9049 2566.8,-31.4834 2510.18,-21.293"/>
<polygon fill="midnightblue" stroke="midnightblue" points="2510.78,-17.8434 2500.31,-19.5164 2509.54,-24.7327 2510.78,-17.8434"/>
</g>
<!-- Node41&#45;&gt;Node39 -->
<g id="edge48" class="edge"><title>Node41&#45;&gt;Node39</title>
<path fill="none" stroke="midnightblue" d="M2798.48,-56.4435C2848.96,-46.9444 2930.46,-31.611 2984.62,-21.4198"/>
<polygon fill="midnightblue" stroke="midnightblue" points="2985.56,-24.8052 2994.74,-19.5164 2984.26,-17.9259 2985.56,-24.8052"/>
</g>
<!-- Node42&#45;&gt;Node2 -->
<g id="edge51" class="edge"><title>Node42&#45;&gt;Node2</title>
<path fill="none" stroke="midnightblue" d="M2508.84,-336.426C2543.19,-316.739 2618.95,-266.704 2587,-224 2575.69,-208.89 2533.05,-197.112 2495.64,-189.402"/>
<polygon fill="midnightblue" stroke="midnightblue" points="2496.26,-185.956 2485.76,-187.433 2494.89,-192.821 2496.26,-185.956"/>
</g>
<!-- Node43 -->
<g id="node43" class="node"><title>Node43</title>
<g id="a_node43"><a xlink:href="_ogre_exception_8h.html" target="_top" xlink:title="OgreException.h">
<polygon fill="none" stroke="black" points="2421.5,-280.5 2421.5,-299.5 2510.5,-299.5 2510.5,-280.5 2421.5,-280.5"/>
<text text-anchor="middle" x="2466" y="-287.5" font-family="Helvetica,sans-Serif" font-size="10.00">OgreException.h</text>
</a>
</g>
</g>
<!-- Node42&#45;&gt;Node43 -->
<g id="edge52" class="edge"><title>Node42&#45;&gt;Node43</title>
<path fill="none" stroke="midnightblue" d="M2488.54,-336.083C2484.85,-328.691 2479.48,-317.953 2474.91,-308.811"/>
<polygon fill="midnightblue" stroke="midnightblue" points="2477.98,-307.13 2470.38,-299.751 2471.72,-310.261 2477.98,-307.13"/>
</g>
<!-- Node43&#45;&gt;Node2 -->
<g id="edge53" class="edge"><title>Node43&#45;&gt;Node2</title>
<path fill="none" stroke="midnightblue" d="M2452.94,-280.436C2442.09,-272.471 2427.43,-259.515 2421,-244 2414.74,-228.899 2419.43,-210.546 2424.85,-197.199"/>
<polygon fill="midnightblue" stroke="midnightblue" points="2428.2,-198.277 2429.15,-187.725 2421.83,-195.383 2428.2,-198.277"/>
</g>
<!-- Node43&#45;&gt;Node38 -->
<g id="edge59" class="edge"><title>Node43&#45;&gt;Node38</title>
<path fill="none" stroke="midnightblue" d="M2421.22,-286.069C2236.58,-273.986 1516.3,-226.84 924,-188 544.887,-163.14 330.701,-409.309 71,-132 64.924,-125.512 70.6831,-120.883 71,-112 71.8895,-87.0636 56.9,-73.1758 75,-56 118.261,-14.9478 2021.17,-11.3422 2391.07,-11.0292"/>
<polygon fill="midnightblue" stroke="midnightblue" points="2391.31,-14.5291 2401.31,-11.0211 2391.31,-7.52913 2391.31,-14.5291"/>
</g>
<!-- Node43&#45;&gt;Node39 -->
<g id="edge60" class="edge"><title>Node43&#45;&gt;Node39</title>
<path fill="none" stroke="midnightblue" d="M2492.33,-280.471C2561.06,-258.017 2751.34,-194.67 2906,-132 2961.67,-109.442 2992.38,-123.613 3029,-76 3039.13,-62.828 3041.31,-43.6897 3041.3,-29.5893"/>
<polygon fill="midnightblue" stroke="midnightblue" points="3044.79,-29.4354 3040.93,-19.5713 3037.8,-29.6936 3044.79,-29.4354"/>
</g>
<!-- Node44 -->
<g id="node44" class="node"><title>Node44</title>
<g id="a_node44"><a xlink:href="_ogre_string_8h.html" target="_top" xlink:title="OgreString.h">
<polygon fill="none" stroke="black" points="2430.5,-224.5 2430.5,-243.5 2501.5,-243.5 2501.5,-224.5 2430.5,-224.5"/>
<text text-anchor="middle" x="2466" y="-231.5" font-family="Helvetica,sans-Serif" font-size="10.00">OgreString.h</text>
</a>
</g>
</g>
<!-- Node43&#45;&gt;Node44 -->
<g id="edge54" class="edge"><title>Node43&#45;&gt;Node44</title>
<path fill="none" stroke="midnightblue" d="M2466,-280.083C2466,-273.006 2466,-262.861 2466,-253.986"/>
<polygon fill="midnightblue" stroke="midnightblue" points="2469.5,-253.751 2466,-243.751 2462.5,-253.751 2469.5,-253.751"/>
</g>
<!-- Node45 -->
<g id="node45" class="node"><title>Node45</title>
<polygon fill="none" stroke="#bfbfbf" points="2519.5,-224.5 2519.5,-243.5 2578.5,-243.5 2578.5,-224.5 2519.5,-224.5"/>
<text text-anchor="middle" x="2549" y="-231.5" font-family="Helvetica,sans-Serif" font-size="10.00">exception</text>
</g>
<!-- Node43&#45;&gt;Node45 -->
<g id="edge58" class="edge"><title>Node43&#45;&gt;Node45</title>
<path fill="none" stroke="midnightblue" d="M2479.34,-280.324C2492.16,-271.979 2511.78,-259.212 2526.94,-249.352"/>
<polygon fill="midnightblue" stroke="midnightblue" points="2529.22,-252.042 2535.7,-243.655 2525.41,-246.174 2529.22,-252.042"/>
</g>
<!-- Node44&#45;&gt;Node2 -->
<g id="edge55" class="edge"><title>Node44&#45;&gt;Node2</title>
<path fill="none" stroke="midnightblue" d="M2460.72,-224.083C2456.29,-216.613 2449.84,-205.724 2444.38,-196.52"/>
<polygon fill="midnightblue" stroke="midnightblue" points="2447.29,-194.57 2439.19,-187.751 2441.27,-198.138 2447.29,-194.57"/>
</g>
<!-- Node44&#45;&gt;Node38 -->
<g id="edge56" class="edge"><title>Node44&#45;&gt;Node38</title>
<path fill="none" stroke="midnightblue" d="M2430.42,-230.299C2404.75,-228.398 2369.24,-225.87 2338,-224 1510.92,-174.495 1300.62,-212.783 476,-132 304.153,-115.165 -25.9253,-179.255 95,-56 136.405,-13.7977 2023.5,-11.1176 2391.25,-10.9963"/>
<polygon fill="midnightblue" stroke="midnightblue" points="2391.44,-14.4964 2401.43,-10.9935 2391.43,-7.49638 2391.44,-14.4964"/>
</g>
<!-- Node44&#45;&gt;Node39 -->
<g id="edge57" class="edge"><title>Node44&#45;&gt;Node39</title>
<path fill="none" stroke="midnightblue" d="M2501.74,-224.431C2616.09,-196.77 2967.86,-109.707 3008,-76 3022.28,-64.0103 3030.75,-44.1151 3035.35,-29.4877"/>
<polygon fill="midnightblue" stroke="midnightblue" points="3038.81,-30.1214 3038.15,-19.5472 3032.07,-28.2248 3038.81,-30.1214"/>
</g>
<!-- Node46&#45;&gt;Node2 -->
<g id="edge62" class="edge"><title>Node46&#45;&gt;Node2</title>
<path fill="none" stroke="midnightblue" d="M3004.4,-282.367C2902.43,-263.888 2614.56,-211.722 2491.24,-189.373"/>
<polygon fill="midnightblue" stroke="midnightblue" points="2491.7,-185.899 2481.24,-187.56 2490.45,-192.787 2491.7,-185.899"/>
</g>
<!-- Node47 -->
<g id="node47" class="node"><title>Node47</title>
<g id="a_node47"><a xlink:href="_ogre_common_8h.html" target="_top" xlink:title="OgreCommon.h">
<polygon fill="none" stroke="black" points="3111,-168.5 3111,-187.5 3197,-187.5 3197,-168.5 3111,-168.5"/>
<text text-anchor="middle" x="3154" y="-175.5" font-family="Helvetica,sans-Serif" font-size="10.00">OgreCommon.h</text>
</a>
</g>
</g>
<!-- Node46&#45;&gt;Node47 -->
<g id="edge63" class="edge"><title>Node46&#45;&gt;Node47</title>
<path fill="none" stroke="midnightblue" d="M3077.69,-280.413C3098.27,-273.769 3122.78,-262.487 3138,-244 3148.73,-230.975 3152.43,-211.817 3153.63,-197.672"/>
<polygon fill="midnightblue" stroke="midnightblue" points="3157.13,-197.78 3154.14,-187.615 3150.14,-197.425 3157.13,-197.78"/>
</g>
<!-- Node48 -->
<g id="node48" class="node"><title>Node48</title>
<g id="a_node48"><a xlink:href="_ogre_pixel_format_8h.html" target="_top" xlink:title="OgrePixelFormat.h">
<polygon fill="none" stroke="black" points="3031,-224.5 3031,-243.5 3129,-243.5 3129,-224.5 3031,-224.5"/>
<text text-anchor="middle" x="3080" y="-231.5" font-family="Helvetica,sans-Serif" font-size="10.00">OgrePixelFormat.h</text>
</a>
</g>
</g>
<!-- Node46&#45;&gt;Node48 -->
<g id="edge66" class="edge"><title>Node46&#45;&gt;Node48</title>
<path fill="none" stroke="midnightblue" d="M3047.44,-280.083C3052.95,-272.455 3061.03,-261.264 3067.76,-251.941"/>
<polygon fill="midnightblue" stroke="midnightblue" points="3070.66,-253.907 3073.68,-243.751 3064.99,-249.809 3070.66,-253.907"/>
</g>
<!-- Node47&#45;&gt;Node38 -->
<g id="edge64" class="edge"><title>Node47&#45;&gt;Node38</title>
<path fill="none" stroke="midnightblue" d="M3110.81,-177.73C3018.11,-178.361 2793.73,-174.871 2612,-132 2546.77,-116.613 2517.06,-125.609 2472,-76 2460.52,-63.364 2455.95,-44.1537 2454.15,-29.8906"/>
<polygon fill="midnightblue" stroke="midnightblue" points="2457.61,-29.3695 2453.21,-19.7325 2450.64,-30.0113 2457.61,-29.3695"/>
</g>
<!-- Node47&#45;&gt;Node39 -->
<g id="edge65" class="edge"><title>Node47&#45;&gt;Node39</title>
<path fill="none" stroke="midnightblue" d="M3154.71,-168.351C3156,-146.95 3156.49,-90.741 3130,-56 3118.2,-40.5285 3099.64,-30.0016 3082.42,-23.0453"/>
<polygon fill="midnightblue" stroke="midnightblue" points="3083.64,-19.765 3073.05,-19.5393 3081.19,-26.3212 3083.64,-19.765"/>
</g>
<!-- Node48&#45;&gt;Node2 -->
<g id="edge67" class="edge"><title>Node48&#45;&gt;Node2</title>
<path fill="none" stroke="midnightblue" d="M3030.86,-225.666C3026.18,-225.062 3021.5,-224.495 3017,-224 2827.55,-203.178 2602.41,-188.694 2495.82,-182.45"/>
<polygon fill="midnightblue" stroke="midnightblue" points="2495.76,-178.941 2485.58,-181.854 2495.36,-185.929 2495.76,-178.941"/>
</g>
<!-- Node48&#45;&gt;Node38 -->
<g id="edge69" class="edge"><title>Node48&#45;&gt;Node38</title>
<path fill="none" stroke="midnightblue" d="M3030.79,-233.322C2929.21,-232.085 2691.26,-219.254 2517,-132 2484.38,-115.668 2472.56,-108.992 2457,-76 2450.22,-61.6197 2449.68,-43.4244 2450.57,-29.9447"/>
<polygon fill="midnightblue" stroke="midnightblue" points="2454.06,-30.2112 2451.55,-19.918 2447.1,-29.5299 2454.06,-30.2112"/>
</g>
<!-- Node48&#45;&gt;Node39 -->
<g id="edge70" class="edge"><title>Node48&#45;&gt;Node39</title>
<path fill="none" stroke="midnightblue" d="M3083.35,-224.374C3093.1,-197.799 3119.14,-115.386 3092,-56 3086.22,-43.3602 3074.95,-32.911 3064.37,-25.2737"/>
<polygon fill="midnightblue" stroke="midnightblue" points="3066.04,-22.1817 3055.78,-19.5333 3062.15,-28.0009 3066.04,-22.1817"/>
</g>
<!-- Node48&#45;&gt;Node47 -->
<g id="edge68" class="edge"><title>Node48&#45;&gt;Node47</title>
<path fill="none" stroke="midnightblue" d="M3091.89,-224.324C3103.15,-216.107 3120.29,-203.602 3133.71,-193.807"/>
<polygon fill="midnightblue" stroke="midnightblue" points="3135.88,-196.556 3141.89,-187.834 3131.75,-190.901 3135.88,-196.556"/>
</g>
<!-- Node49&#45;&gt;Node2 -->
<g id="edge72" class="edge"><title>Node49&#45;&gt;Node2</title>
<path fill="none" stroke="midnightblue" d="M2346.09,-392.41C2331.78,-385.04 2313.54,-372.916 2305,-356 2300.99,-348.065 2302,-344.368 2305,-336 2327.07,-274.374 2384.92,-219.601 2415.09,-194.123"/>
<polygon fill="midnightblue" stroke="midnightblue" points="2417.33,-196.805 2422.81,-187.732 2412.87,-191.412 2417.33,-196.805"/>
</g>
<!-- Node50 -->
<g id="node50" class="node"><title>Node50</title>
<g id="a_node50"><a xlink:href="_ogre_atomic_scalar_8h.html" target="_top" xlink:title="OgreAtomicScalar.h">
<polygon fill="none" stroke="red" points="2314,-336.5 2314,-355.5 2418,-355.5 2418,-336.5 2314,-336.5"/>
<text text-anchor="middle" x="2366" y="-343.5" font-family="Helvetica,sans-Serif" font-size="10.00">OgreAtomicScalar.h</text>
</a>
</g>
</g>
<!-- Node49&#45;&gt;Node50 -->
<g id="edge73" class="edge"><title>Node49&#45;&gt;Node50</title>
<path fill="none" stroke="midnightblue" d="M2366,-392.083C2366,-385.006 2366,-374.861 2366,-365.986"/>
<polygon fill="midnightblue" stroke="midnightblue" points="2369.5,-365.751 2366,-355.751 2362.5,-365.751 2369.5,-365.751"/>
</g>
<!-- Node50&#45;&gt;Node2 -->
<g id="edge74" class="edge"><title>Node50&#45;&gt;Node2</title>
<path fill="none" stroke="midnightblue" d="M2369.4,-336.474C2377.31,-316.681 2397.59,-266.097 2415,-224 2418.69,-215.074 2422.86,-205.182 2426.35,-196.951"/>
<polygon fill="midnightblue" stroke="midnightblue" points="2429.63,-198.183 2430.32,-187.611 2423.19,-195.445 2429.63,-198.183"/>
</g>
<!-- Node50&#45;&gt;Node43 -->
<g id="edge75" class="edge"><title>Node50&#45;&gt;Node43</title>
<path fill="none" stroke="midnightblue" d="M2382.07,-336.324C2397.96,-327.743 2422.51,-314.486 2440.96,-304.522"/>
<polygon fill="midnightblue" stroke="midnightblue" points="2442.84,-307.486 2449.97,-299.655 2439.51,-301.326 2442.84,-307.486"/>
</g>
</g>
</svg>
