<?xml version="1.0" encoding="UTF-8" standalone="no"?>
<!DOCTYPE svg PUBLIC "-//W3C//DTD SVG 1.1//EN"
 "http://www.w3.org/Graphics/SVG/1.1/DTD/svg11.dtd">
<!-- Generated by graphviz version 2.38.0 (20140413.2041)
 -->
<!-- Title: OgreGLES2HardwareVertexBuffer.h Pages: 1 -->
<svg width="2685pt" height="420pt"
 viewBox="0.00 0.00 2685.00 420.00" xmlns="http://www.w3.org/2000/svg" xmlns:xlink="http://www.w3.org/1999/xlink">
<g id="graph0" class="graph" transform="scale(1 1) rotate(0) translate(4 416)">
<title>OgreGLES2HardwareVertexBuffer.h</title>
<!-- Node1 -->
<g id="node1" class="node"><title>Node1</title>
<polygon fill="#bfbfbf" stroke="black" points="330,-392.5 330,-411.5 504,-411.5 504,-392.5 330,-392.5"/>
<text text-anchor="middle" x="417" y="-399.5" font-family="Helvetica,sans-Serif" font-size="10.00">OgreGLES2HardwareVertexBuffer.h</text>
</g>
<!-- Node2 -->
<g id="node2" class="node"><title>Node2</title>
<g id="a_node2"><a xlink:href="_ogre_g_l_e_s2_prerequisites_8h.html" target="_top" xlink:title="OgreGLES2Prerequisites.h">
<polygon fill="none" stroke="black" points="243,-280.5 243,-299.5 377,-299.5 377,-280.5 243,-280.5"/>
<text text-anchor="middle" x="310" y="-287.5" font-family="Helvetica,sans-Serif" font-size="10.00">OgreGLES2Prerequisites.h</text>
</a>
</g>
</g>
<!-- Node1&#45;&gt;Node2 -->
<g id="edge1" class="edge"><title>Node1&#45;&gt;Node2</title>
<path fill="none" stroke="midnightblue" d="M416.609,-392.423C415.573,-378.954 411.791,-352.667 398,-336 385.564,-320.97 366.818,-310.414 349.819,-303.324"/>
<polygon fill="midnightblue" stroke="midnightblue" points="350.663,-299.897 340.074,-299.541 348.13,-306.422 350.663,-299.897"/>
</g>
<!-- Node44 -->
<g id="node44" class="node"><title>Node44</title>
<g id="a_node44"><a xlink:href="_ogre_hardware_vertex_buffer_8h.html" target="_top" xlink:title="OgreHardwareVertexBuffer.h">
<polygon fill="none" stroke="black" points="480.5,-336.5 480.5,-355.5 623.5,-355.5 623.5,-336.5 480.5,-336.5"/>
<text text-anchor="middle" x="552" y="-343.5" font-family="Helvetica,sans-Serif" font-size="10.00">OgreHardwareVertexBuffer.h</text>
</a>
</g>
</g>
<!-- Node1&#45;&gt;Node44 -->
<g id="edge54" class="edge"><title>Node1&#45;&gt;Node44</title>
<path fill="none" stroke="midnightblue" d="M438.391,-392.444C460.707,-383.517 495.903,-369.439 521.208,-359.317"/>
<polygon fill="midnightblue" stroke="midnightblue" points="522.724,-362.48 530.709,-355.516 520.124,-355.981 522.724,-362.48"/>
</g>
<!-- Node50 -->
<g id="node50" class="node"><title>Node50</title>
<g id="a_node50"><a xlink:href="_ogre_g_l_e_s2_managed_resource_8h.html" target="_top" xlink:title="OgreGLES2ManagedResource.h">
<polygon fill="none" stroke="black" points="230.5,-336.5 230.5,-355.5 389.5,-355.5 389.5,-336.5 230.5,-336.5"/>
<text text-anchor="middle" x="310" y="-343.5" font-family="Helvetica,sans-Serif" font-size="10.00">OgreGLES2ManagedResource.h</text>
</a>
</g>
</g>
<!-- Node1&#45;&gt;Node50 -->
<g id="edge71" class="edge"><title>Node1&#45;&gt;Node50</title>
<path fill="none" stroke="midnightblue" d="M399.809,-392.324C382.649,-383.664 356.054,-370.242 336.253,-360.249"/>
<polygon fill="midnightblue" stroke="midnightblue" points="337.653,-357.035 327.149,-355.655 334.499,-363.285 337.653,-357.035"/>
</g>
<!-- Node3 -->
<g id="node3" class="node"><title>Node3</title>
<g id="a_node3"><a xlink:href="_ogre_prerequisites_8h.html" target="_top" xlink:title="OgrePrerequisites.h">
<polygon fill="none" stroke="black" points="561.5,-112.5 561.5,-131.5 664.5,-131.5 664.5,-112.5 561.5,-112.5"/>
<text text-anchor="middle" x="613" y="-119.5" font-family="Helvetica,sans-Serif" font-size="10.00">OgrePrerequisites.h</text>
</a>
</g>
</g>
<!-- Node2&#45;&gt;Node3 -->
<g id="edge2" class="edge"><title>Node2&#45;&gt;Node3</title>
<path fill="none" stroke="midnightblue" d="M333.072,-280.497C398.529,-256.365 580.78,-189.115 582,-188 595.529,-175.63 603.73,-156.107 608.268,-141.683"/>
<polygon fill="midnightblue" stroke="midnightblue" points="611.696,-142.424 611.052,-131.849 604.96,-140.518 611.696,-142.424"/>
</g>
<!-- Node39 -->
<g id="node39" class="node"><title>Node39</title>
<g id="a_node39"><a xlink:href="_ogre_log_manager_8h.html" target="_top" xlink:title="OgreLogManager.h">
<polygon fill="none" stroke="black" points="260.5,-224.5 260.5,-243.5 359.5,-243.5 359.5,-224.5 260.5,-224.5"/>
<text text-anchor="middle" x="310" y="-231.5" font-family="Helvetica,sans-Serif" font-size="10.00">OgreLogManager.h</text>
</a>
</g>
</g>
<!-- Node2&#45;&gt;Node39 -->
<g id="edge39" class="edge"><title>Node2&#45;&gt;Node39</title>
<path fill="none" stroke="midnightblue" d="M310,-280.083C310,-273.006 310,-262.861 310,-253.986"/>
<polygon fill="midnightblue" stroke="midnightblue" points="313.5,-253.751 310,-243.751 306.5,-253.751 313.5,-253.751"/>
</g>
<!-- Node42 -->
<g id="node42" class="node"><title>Node42</title>
<g id="a_node42"><a xlink:href="_ogre_math_8h.html" target="_top" xlink:title="OgreMath.h">
<polygon fill="none" stroke="black" points="95,-168.5 95,-187.5 163,-187.5 163,-168.5 95,-168.5"/>
<text text-anchor="middle" x="129" y="-175.5" font-family="Helvetica,sans-Serif" font-size="10.00">OgreMath.h</text>
</a>
</g>
</g>
<!-- Node2&#45;&gt;Node42 -->
<g id="edge49" class="edge"><title>Node2&#45;&gt;Node42</title>
<path fill="none" stroke="midnightblue" d="M298,-280.398C279.917,-267.567 244.45,-242.899 213,-224 194.152,-212.674 172.232,-200.978 155.511,-192.35"/>
<polygon fill="midnightblue" stroke="midnightblue" points="156.826,-189.091 146.329,-187.65 153.636,-195.322 156.826,-189.091"/>
</g>
<!-- Node43 -->
<g id="node43" class="node"><title>Node43</title>
<polygon fill="none" stroke="#bfbfbf" points="114,-224.5 114,-243.5 204,-243.5 204,-224.5 114,-224.5"/>
<text text-anchor="middle" x="159" y="-231.5" font-family="Helvetica,sans-Serif" font-size="10.00">GLES2/gles2w.h</text>
</g>
<!-- Node2&#45;&gt;Node43 -->
<g id="edge53" class="edge"><title>Node2&#45;&gt;Node43</title>
<path fill="none" stroke="midnightblue" d="M286.074,-280.444C260.781,-271.399 220.698,-257.064 192.32,-246.916"/>
<polygon fill="midnightblue" stroke="midnightblue" points="193.409,-243.588 182.814,-243.516 191.052,-250.179 193.409,-243.588"/>
</g>
<!-- Node4 -->
<g id="node4" class="node"><title>Node4</title>
<g id="a_node4"><a xlink:href="_ogre_platform_8h.html" target="_top" xlink:title="OgrePlatform.h">
<polygon fill="none" stroke="black" points="536.5,-56.5 536.5,-75.5 619.5,-75.5 619.5,-56.5 536.5,-56.5"/>
<text text-anchor="middle" x="578" y="-63.5" font-family="Helvetica,sans-Serif" font-size="10.00">OgrePlatform.h</text>
</a>
</g>
</g>
<!-- Node3&#45;&gt;Node4 -->
<g id="edge3" class="edge"><title>Node3&#45;&gt;Node4</title>
<path fill="none" stroke="midnightblue" d="M607.22,-112.083C602.328,-104.534 595.173,-93.4948 589.167,-84.2298"/>
<polygon fill="midnightblue" stroke="midnightblue" points="592.048,-82.239 583.672,-75.7511 586.174,-86.0463 592.048,-82.239"/>
</g>
<!-- Node6 -->
<g id="node6" class="node"><title>Node6</title>
<polygon fill="none" stroke="#bfbfbf" points="627.5,-0.5 627.5,-19.5 668.5,-19.5 668.5,-0.5 627.5,-0.5"/>
<text text-anchor="middle" x="648" y="-7.5" font-family="Helvetica,sans-Serif" font-size="10.00">string</text>
</g>
<!-- Node3&#45;&gt;Node6 -->
<g id="edge5" class="edge"><title>Node3&#45;&gt;Node6</title>
<path fill="none" stroke="midnightblue" d="M615.935,-112.393C619.003,-103.35 623.929,-88.7044 628,-76 633.011,-60.3644 638.479,-42.5355 642.43,-29.5099"/>
<polygon fill="midnightblue" stroke="midnightblue" points="645.806,-30.4367 645.348,-19.8518 639.105,-28.4122 645.806,-30.4367"/>
</g>
<!-- Node7 -->
<g id="node7" class="node"><title>Node7</title>
<g id="a_node7"><a xlink:href="_ogre_std_headers_8h.html" target="_top" xlink:title="OgreStdHeaders.h">
<polygon fill="none" stroke="red" points="1501,-56.5 1501,-75.5 1599,-75.5 1599,-56.5 1501,-56.5"/>
<text text-anchor="middle" x="1550" y="-63.5" font-family="Helvetica,sans-Serif" font-size="10.00">OgreStdHeaders.h</text>
</a>
</g>
</g>
<!-- Node3&#45;&gt;Node7 -->
<g id="edge6" class="edge"><title>Node3&#45;&gt;Node7</title>
<path fill="none" stroke="midnightblue" d="M664.712,-118.02C826.005,-108.724 1319.31,-80.295 1490.63,-70.4214"/>
<polygon fill="midnightblue" stroke="midnightblue" points="1490.94,-73.9095 1500.72,-69.8398 1490.54,-66.921 1490.94,-73.9095"/>
</g>
<!-- Node36 -->
<g id="node36" class="node"><title>Node36</title>
<g id="a_node36"><a xlink:href="_ogre_memory_allocator_config_8h.html" target="_top" xlink:title="This file configures Ogre&#39;s memory allocators. ">
<polygon fill="none" stroke="red" points="256,-56.5 256,-75.5 404,-75.5 404,-56.5 256,-56.5"/>
<text text-anchor="middle" x="330" y="-63.5" font-family="Helvetica,sans-Serif" font-size="10.00">OgreMemoryAllocatorConfig.h</text>
</a>
</g>
</g>
<!-- Node3&#45;&gt;Node36 -->
<g id="edge36" class="edge"><title>Node3&#45;&gt;Node36</title>
<path fill="none" stroke="midnightblue" d="M568.158,-112.444C518.375,-102.944 438.017,-87.611 384.608,-77.4198"/>
<polygon fill="midnightblue" stroke="midnightblue" points="385.111,-73.9528 374.632,-75.5164 383.799,-80.8288 385.111,-73.9528"/>
</g>
<!-- Node5 -->
<g id="node5" class="node"><title>Node5</title>
<g id="a_node5"><a xlink:href="_ogre_config_8h.html" target="_top" xlink:title="OgreConfig.h">
<polygon fill="none" stroke="red" points="535,-0.5 535,-19.5 609,-19.5 609,-0.5 535,-0.5"/>
<text text-anchor="middle" x="572" y="-7.5" font-family="Helvetica,sans-Serif" font-size="10.00">OgreConfig.h</text>
</a>
</g>
</g>
<!-- Node4&#45;&gt;Node5 -->
<g id="edge4" class="edge"><title>Node4&#45;&gt;Node5</title>
<path fill="none" stroke="midnightblue" d="M577.009,-56.083C576.214,-48.9272 575.071,-38.6353 574.077,-29.6911"/>
<polygon fill="midnightblue" stroke="midnightblue" points="577.555,-29.3034 572.972,-19.7511 570.598,-30.0765 577.555,-29.3034"/>
</g>
<!-- Node7&#45;&gt;Node6 -->
<g id="edge16" class="edge"><title>Node7&#45;&gt;Node6</title>
<path fill="none" stroke="midnightblue" d="M1500.97,-64.0795C1344.31,-60.8912 856.227,-48.982 678.736,-19.8382"/>
<polygon fill="midnightblue" stroke="midnightblue" points="679.204,-16.3674 668.755,-18.1214 678.017,-23.266 679.204,-16.3674"/>
</g>
<!-- Node8 -->
<g id="node8" class="node"><title>Node8</title>
<polygon fill="none" stroke="#bfbfbf" points="2086.5,-0.5 2086.5,-19.5 2135.5,-19.5 2135.5,-0.5 2086.5,-0.5"/>
<text text-anchor="middle" x="2111" y="-7.5" font-family="Helvetica,sans-Serif" font-size="10.00">cassert</text>
</g>
<!-- Node7&#45;&gt;Node8 -->
<g id="edge7" class="edge"><title>Node7&#45;&gt;Node8</title>
<path fill="none" stroke="midnightblue" d="M1599.04,-63.6509C1690.93,-60.5091 1895.28,-50.6162 2076.26,-19.8109"/>
<polygon fill="midnightblue" stroke="midnightblue" points="2076.97,-23.2407 2086.23,-18.0892 2075.78,-16.3429 2076.97,-23.2407"/>
</g>
<!-- Node9 -->
<g id="node9" class="node"><title>Node9</title>
<polygon fill="none" stroke="#bfbfbf" points="2153.5,-0.5 2153.5,-19.5 2196.5,-19.5 2196.5,-0.5 2153.5,-0.5"/>
<text text-anchor="middle" x="2175" y="-7.5" font-family="Helvetica,sans-Serif" font-size="10.00">cstdio</text>
</g>
<!-- Node7&#45;&gt;Node9 -->
<g id="edge8" class="edge"><title>Node7&#45;&gt;Node9</title>
<path fill="none" stroke="midnightblue" d="M1599.05,-64.856C1699.75,-63.794 1937.05,-57.3511 2143.08,-20.0006"/>
<polygon fill="midnightblue" stroke="midnightblue" points="2143.98,-23.3944 2153.18,-18.1406 2142.71,-16.5103 2143.98,-23.3944"/>
</g>
<!-- Node10 -->
<g id="node10" class="node"><title>Node10</title>
<polygon fill="none" stroke="#bfbfbf" points="2214.5,-0.5 2214.5,-19.5 2259.5,-19.5 2259.5,-0.5 2214.5,-0.5"/>
<text text-anchor="middle" x="2237" y="-7.5" font-family="Helvetica,sans-Serif" font-size="10.00">cstdlib</text>
</g>
<!-- Node7&#45;&gt;Node10 -->
<g id="edge9" class="edge"><title>Node7&#45;&gt;Node10</title>
<path fill="none" stroke="midnightblue" d="M1599.4,-65.2019C1707.75,-64.8748 1974.35,-59.8641 2204.55,-19.8975"/>
<polygon fill="midnightblue" stroke="midnightblue" points="2205.2,-23.336 2214.45,-18.1536 2203.99,-16.4422 2205.2,-23.336"/>
</g>
<!-- Node11 -->
<g id="node11" class="node"><title>Node11</title>
<polygon fill="none" stroke="#bfbfbf" points="2277.5,-0.5 2277.5,-19.5 2318.5,-19.5 2318.5,-0.5 2277.5,-0.5"/>
<text text-anchor="middle" x="2298" y="-7.5" font-family="Helvetica,sans-Serif" font-size="10.00">ctime</text>
</g>
<!-- Node7&#45;&gt;Node11 -->
<g id="edge10" class="edge"><title>Node7&#45;&gt;Node11</title>
<path fill="none" stroke="midnightblue" d="M1599.04,-63.4538C1735.95,-58.9011 2121.28,-44.4189 2267.16,-19.8775"/>
<polygon fill="midnightblue" stroke="midnightblue" points="2268,-23.2823 2277.24,-18.0931 2266.78,-16.3894 2268,-23.2823"/>
</g>
<!-- Node12 -->
<g id="node12" class="node"><title>Node12</title>
<polygon fill="none" stroke="#bfbfbf" points="2337,-0.5 2337,-19.5 2383,-19.5 2383,-0.5 2337,-0.5"/>
<text text-anchor="middle" x="2360" y="-7.5" font-family="Helvetica,sans-Serif" font-size="10.00">cstring</text>
</g>
<!-- Node7&#45;&gt;Node12 -->
<g id="edge11" class="edge"><title>Node7&#45;&gt;Node12</title>
<path fill="none" stroke="midnightblue" d="M1599.04,-63.5525C1743.7,-59.0675 2167.96,-44.3181 2326.65,-19.8067"/>
<polygon fill="midnightblue" stroke="midnightblue" points="2327.4,-23.2309 2336.71,-18.1781 2326.28,-16.3208 2327.4,-23.2309"/>
</g>
<!-- Node13 -->
<g id="node13" class="node"><title>Node13</title>
<polygon fill="none" stroke="#bfbfbf" points="2401.5,-0.5 2401.5,-19.5 2450.5,-19.5 2450.5,-0.5 2401.5,-0.5"/>
<text text-anchor="middle" x="2426" y="-7.5" font-family="Helvetica,sans-Serif" font-size="10.00">cstdarg</text>
</g>
<!-- Node7&#45;&gt;Node13 -->
<g id="edge12" class="edge"><title>Node7&#45;&gt;Node13</title>
<path fill="none" stroke="midnightblue" d="M1599.15,-63.6996C1752.06,-59.4493 2218.91,-44.8768 2391.3,-19.6995"/>
<polygon fill="midnightblue" stroke="midnightblue" points="2391.89,-23.1502 2401.24,-18.1822 2390.83,-16.2302 2391.89,-23.1502"/>
</g>
<!-- Node14 -->
<g id="node14" class="node"><title>Node14</title>
<polygon fill="none" stroke="#bfbfbf" points="2469,-0.5 2469,-19.5 2513,-19.5 2513,-0.5 2469,-0.5"/>
<text text-anchor="middle" x="2491" y="-7.5" font-family="Helvetica,sans-Serif" font-size="10.00">cmath</text>
</g>
<!-- Node7&#45;&gt;Node14 -->
<g id="edge13" class="edge"><title>Node7&#45;&gt;Node14</title>
<path fill="none" stroke="midnightblue" d="M1599.07,-64.0804C1760.23,-60.8285 2273.11,-48.5811 2458.88,-19.729"/>
<polygon fill="midnightblue" stroke="midnightblue" points="2459.48,-23.1764 2468.79,-18.1196 2458.36,-16.2668 2459.48,-23.1764"/>
</g>
<!-- Node15 -->
<g id="node15" class="node"><title>Node15</title>
<polygon fill="none" stroke="#bfbfbf" points="2531,-0.5 2531,-19.5 2575,-19.5 2575,-0.5 2531,-0.5"/>
<text text-anchor="middle" x="2553" y="-7.5" font-family="Helvetica,sans-Serif" font-size="10.00">vector</text>
</g>
<!-- Node7&#45;&gt;Node15 -->
<g id="edge14" class="edge"><title>Node7&#45;&gt;Node15</title>
<path fill="none" stroke="midnightblue" d="M1599.1,-64.2592C1767.55,-61.4823 2322.09,-50.3372 2520.76,-19.7418"/>
<polygon fill="midnightblue" stroke="midnightblue" points="2521.48,-23.1713 2530.79,-18.1282 2520.37,-16.2601 2521.48,-23.1713"/>
</g>
<!-- Node16 -->
<g id="node16" class="node"><title>Node16</title>
<polygon fill="none" stroke="#bfbfbf" points="2593.5,-0.5 2593.5,-19.5 2628.5,-19.5 2628.5,-0.5 2593.5,-0.5"/>
<text text-anchor="middle" x="2611" y="-7.5" font-family="Helvetica,sans-Serif" font-size="10.00">map</text>
</g>
<!-- Node7&#45;&gt;Node16 -->
<g id="edge15" class="edge"><title>Node7&#45;&gt;Node16</title>
<path fill="none" stroke="midnightblue" d="M1599.16,-64.6684C1774.84,-63.2069 2371.84,-55.793 2583.39,-19.4344"/>
<polygon fill="midnightblue" stroke="midnightblue" points="2584.24,-22.8368 2593.47,-17.6246 2583.01,-15.947 2584.24,-22.8368"/>
</g>
<!-- Node17 -->
<g id="node17" class="node"><title>Node17</title>
<polygon fill="none" stroke="#bfbfbf" points="2647,-0.5 2647,-19.5 2677,-19.5 2677,-0.5 2647,-0.5"/>
<text text-anchor="middle" x="2662" y="-7.5" font-family="Helvetica,sans-Serif" font-size="10.00">set</text>
</g>
<!-- Node7&#45;&gt;Node17 -->
<g id="edge17" class="edge"><title>Node7&#45;&gt;Node17</title>
<path fill="none" stroke="midnightblue" d="M1599.21,-65.0293C1781.08,-64.8225 2415.62,-61.2254 2637.06,-19.4144"/>
<polygon fill="midnightblue" stroke="midnightblue" points="2637.84,-22.828 2646.98,-17.4594 2636.49,-15.9603 2637.84,-22.828"/>
</g>
<!-- Node18 -->
<g id="node18" class="node"><title>Node18</title>
<polygon fill="none" stroke="#bfbfbf" points="686.5,-0.5 686.5,-19.5 715.5,-19.5 715.5,-0.5 686.5,-0.5"/>
<text text-anchor="middle" x="701" y="-7.5" font-family="Helvetica,sans-Serif" font-size="10.00">list</text>
</g>
<!-- Node7&#45;&gt;Node18 -->
<g id="edge18" class="edge"><title>Node7&#45;&gt;Node18</title>
<path fill="none" stroke="midnightblue" d="M1500.84,-64.3673C1349.75,-62.1082 892.826,-52.8482 725.974,-19.7237"/>
<polygon fill="midnightblue" stroke="midnightblue" points="726.386,-16.2341 715.881,-17.6116 724.952,-23.0857 726.386,-16.2341"/>
</g>
<!-- Node19 -->
<g id="node19" class="node"><title>Node19</title>
<polygon fill="none" stroke="#bfbfbf" points="733.5,-0.5 733.5,-19.5 776.5,-19.5 776.5,-0.5 733.5,-0.5"/>
<text text-anchor="middle" x="755" y="-7.5" font-family="Helvetica,sans-Serif" font-size="10.00">deque</text>
</g>
<!-- Node7&#45;&gt;Node19 -->
<g id="edge19" class="edge"><title>Node7&#45;&gt;Node19</title>
<path fill="none" stroke="midnightblue" d="M1500.99,-63.6076C1358.1,-59.3175 942.692,-45.152 787.119,-19.9395"/>
<polygon fill="midnightblue" stroke="midnightblue" points="787.259,-16.413 776.813,-18.184 786.083,-23.3136 787.259,-16.413"/>
</g>
<!-- Node20 -->
<g id="node20" class="node"><title>Node20</title>
<polygon fill="none" stroke="#bfbfbf" points="794.5,-0.5 794.5,-19.5 837.5,-19.5 837.5,-0.5 794.5,-0.5"/>
<text text-anchor="middle" x="816" y="-7.5" font-family="Helvetica,sans-Serif" font-size="10.00">queue</text>
</g>
<!-- Node7&#45;&gt;Node20 -->
<g id="edge20" class="edge"><title>Node7&#45;&gt;Node20</title>
<path fill="none" stroke="midnightblue" d="M1500.89,-65.6793C1387.1,-66.4372 1096.69,-63.6833 847.769,-19.9458"/>
<polygon fill="midnightblue" stroke="midnightblue" points="848.275,-16.4808 837.815,-18.1708 847.046,-23.3721 848.275,-16.4808"/>
</g>
<!-- Node21 -->
<g id="node21" class="node"><title>Node21</title>
<polygon fill="none" stroke="#bfbfbf" points="855.5,-0.5 855.5,-19.5 896.5,-19.5 896.5,-0.5 855.5,-0.5"/>
<text text-anchor="middle" x="876" y="-7.5" font-family="Helvetica,sans-Serif" font-size="10.00">bitset</text>
</g>
<!-- Node7&#45;&gt;Node21 -->
<g id="edge21" class="edge"><title>Node7&#45;&gt;Node21</title>
<path fill="none" stroke="midnightblue" d="M1500.66,-65.2584C1393.77,-65.0237 1132.92,-60.159 906.581,-19.6377"/>
<polygon fill="midnightblue" stroke="midnightblue" points="906.975,-16.152 896.51,-17.8067 905.723,-23.0391 906.975,-16.152"/>
</g>
<!-- Node22 -->
<g id="node22" class="node"><title>Node22</title>
<polygon fill="none" stroke="#bfbfbf" points="915,-0.5 915,-19.5 971,-19.5 971,-0.5 915,-0.5"/>
<text text-anchor="middle" x="943" y="-7.5" font-family="Helvetica,sans-Serif" font-size="10.00">algorithm</text>
</g>
<!-- Node7&#45;&gt;Node22 -->
<g id="edge22" class="edge"><title>Node7&#45;&gt;Node22</title>
<path fill="none" stroke="midnightblue" d="M1500.99,-63.6579C1402.12,-60.3934 1171.89,-49.9723 981,-20 980.9,-19.9842 980.799,-19.9683 980.698,-19.9523"/>
<polygon fill="midnightblue" stroke="midnightblue" points="981.598,-16.5598 971.126,-18.1697 980.316,-23.4415 981.598,-16.5598"/>
</g>
<!-- Node23 -->
<g id="node23" class="node"><title>Node23</title>
<polygon fill="none" stroke="#bfbfbf" points="989.5,-0.5 989.5,-19.5 1048.5,-19.5 1048.5,-0.5 989.5,-0.5"/>
<text text-anchor="middle" x="1019" y="-7.5" font-family="Helvetica,sans-Serif" font-size="10.00">functional</text>
</g>
<!-- Node7&#45;&gt;Node23 -->
<g id="edge23" class="edge"><title>Node7&#45;&gt;Node23</title>
<path fill="none" stroke="midnightblue" d="M1500.84,-62.7145C1413.72,-58.1832 1226.42,-46.2808 1058.73,-19.8921"/>
<polygon fill="midnightblue" stroke="midnightblue" points="1059.16,-16.4165 1048.73,-18.2978 1058.05,-23.3291 1059.16,-16.4165"/>
</g>
<!-- Node24 -->
<g id="node24" class="node"><title>Node24</title>
<polygon fill="none" stroke="#bfbfbf" points="1067,-0.5 1067,-19.5 1107,-19.5 1107,-0.5 1067,-0.5"/>
<text text-anchor="middle" x="1087" y="-7.5" font-family="Helvetica,sans-Serif" font-size="10.00">limits</text>
</g>
<!-- Node7&#45;&gt;Node24 -->
<g id="edge24" class="edge"><title>Node7&#45;&gt;Node24</title>
<path fill="none" stroke="midnightblue" d="M1500.7,-63.0593C1421.51,-59.2518 1261.07,-48.697 1117.05,-19.8303"/>
<polygon fill="midnightblue" stroke="midnightblue" points="1117.65,-16.3801 1107.15,-17.8113 1116.25,-23.2389 1117.65,-16.3801"/>
</g>
<!-- Node25 -->
<g id="node25" class="node"><title>Node25</title>
<polygon fill="none" stroke="#bfbfbf" points="1125,-0.5 1125,-19.5 1175,-19.5 1175,-0.5 1125,-0.5"/>
<text text-anchor="middle" x="1150" y="-7.5" font-family="Helvetica,sans-Serif" font-size="10.00">fstream</text>
</g>
<!-- Node7&#45;&gt;Node25 -->
<g id="edge25" class="edge"><title>Node7&#45;&gt;Node25</title>
<path fill="none" stroke="midnightblue" d="M1500.98,-60.9818C1430.63,-54.7568 1297.13,-41.2379 1185,-20 1184.9,-19.981 1184.8,-19.9619 1184.7,-19.9427"/>
<polygon fill="midnightblue" stroke="midnightblue" points="1185.66,-16.5699 1175.15,-17.8803 1184.18,-23.4122 1185.66,-16.5699"/>
</g>
<!-- Node26 -->
<g id="node26" class="node"><title>Node26</title>
<polygon fill="none" stroke="#bfbfbf" points="1193.5,-0.5 1193.5,-19.5 1238.5,-19.5 1238.5,-0.5 1193.5,-0.5"/>
<text text-anchor="middle" x="1216" y="-7.5" font-family="Helvetica,sans-Serif" font-size="10.00">iosfwd</text>
</g>
<!-- Node7&#45;&gt;Node26 -->
<g id="edge26" class="edge"><title>Node7&#45;&gt;Node26</title>
<path fill="none" stroke="midnightblue" d="M1500.75,-59.599C1442.74,-52.8078 1343.33,-39.8314 1248.67,-19.8914"/>
<polygon fill="midnightblue" stroke="midnightblue" points="1249.15,-16.415 1238.64,-17.7482 1247.69,-23.2605 1249.15,-16.415"/>
</g>
<!-- Node27 -->
<g id="node27" class="node"><title>Node27</title>
<polygon fill="none" stroke="#bfbfbf" points="1257,-0.5 1257,-19.5 1309,-19.5 1309,-0.5 1257,-0.5"/>
<text text-anchor="middle" x="1283" y="-7.5" font-family="Helvetica,sans-Serif" font-size="10.00">sstream</text>
</g>
<!-- Node7&#45;&gt;Node27 -->
<g id="edge27" class="edge"><title>Node7&#45;&gt;Node27</title>
<path fill="none" stroke="midnightblue" d="M1501.39,-56.4496C1456.53,-48.3622 1387.85,-35.4836 1319.42,-20.2208"/>
<polygon fill="midnightblue" stroke="midnightblue" points="1319.86,-16.7308 1309.33,-17.9519 1318.32,-23.5603 1319.86,-16.7308"/>
</g>
<!-- Node28 -->
<g id="node28" class="node"><title>Node28</title>
<polygon fill="none" stroke="#bfbfbf" points="1327,-0.5 1327,-19.5 1395,-19.5 1395,-0.5 1327,-0.5"/>
<text text-anchor="middle" x="1361" y="-7.5" font-family="Helvetica,sans-Serif" font-size="10.00">sys/types.h</text>
</g>
<!-- Node7&#45;&gt;Node28 -->
<g id="edge28" class="edge"><title>Node7&#45;&gt;Node28</title>
<path fill="none" stroke="midnightblue" d="M1520.05,-56.4435C1487.84,-47.2406 1436.47,-32.5617 1400.86,-22.3879"/>
<polygon fill="midnightblue" stroke="midnightblue" points="1401.38,-18.8984 1390.81,-19.5164 1399.46,-25.629 1401.38,-18.8984"/>
</g>
<!-- Node29 -->
<g id="node29" class="node"><title>Node29</title>
<polygon fill="none" stroke="#bfbfbf" points="1413,-0.5 1413,-19.5 1473,-19.5 1473,-0.5 1413,-0.5"/>
<text text-anchor="middle" x="1443" y="-7.5" font-family="Helvetica,sans-Serif" font-size="10.00">sys/stat.h</text>
</g>
<!-- Node7&#45;&gt;Node29 -->
<g id="edge29" class="edge"><title>Node7&#45;&gt;Node29</title>
<path fill="none" stroke="midnightblue" d="M1532.81,-56.324C1515.65,-47.6641 1489.05,-34.2424 1469.25,-24.249"/>
<polygon fill="midnightblue" stroke="midnightblue" points="1470.65,-21.0354 1460.15,-19.6545 1467.5,-27.2847 1470.65,-21.0354"/>
</g>
<!-- Node30 -->
<g id="node30" class="node"><title>Node30</title>
<polygon fill="none" stroke="#bfbfbf" points="1491.5,-0.5 1491.5,-19.5 1542.5,-19.5 1542.5,-0.5 1491.5,-0.5"/>
<text text-anchor="middle" x="1517" y="-7.5" font-family="Helvetica,sans-Serif" font-size="10.00">unistd.h</text>
</g>
<!-- Node7&#45;&gt;Node30 -->
<g id="edge30" class="edge"><title>Node7&#45;&gt;Node30</title>
<path fill="none" stroke="midnightblue" d="M1544.55,-56.083C1539.99,-48.6127 1533.33,-37.7244 1527.71,-28.5199"/>
<polygon fill="midnightblue" stroke="midnightblue" points="1530.55,-26.4588 1522.35,-19.7511 1524.58,-30.109 1530.55,-26.4588"/>
</g>
<!-- Node31 -->
<g id="node31" class="node"><title>Node31</title>
<polygon fill="none" stroke="#bfbfbf" points="1561,-0.5 1561,-19.5 1607,-19.5 1607,-0.5 1561,-0.5"/>
<text text-anchor="middle" x="1584" y="-7.5" font-family="Helvetica,sans-Serif" font-size="10.00">dlfcn.h</text>
</g>
<!-- Node7&#45;&gt;Node31 -->
<g id="edge31" class="edge"><title>Node7&#45;&gt;Node31</title>
<path fill="none" stroke="midnightblue" d="M1555.61,-56.083C1560.37,-48.5341 1567.32,-37.4948 1573.15,-28.2298"/>
<polygon fill="midnightblue" stroke="midnightblue" points="1576.12,-30.0783 1578.49,-19.7511 1570.2,-26.3486 1576.12,-30.0783"/>
</g>
<!-- Node32 -->
<g id="node32" class="node"><title>Node32</title>
<polygon fill="none" stroke="#bfbfbf" points="1625,-0.5 1625,-19.5 1703,-19.5 1703,-0.5 1625,-0.5"/>
<text text-anchor="middle" x="1664" y="-7.5" font-family="Helvetica,sans-Serif" font-size="10.00">ext/hash_map</text>
</g>
<!-- Node7&#45;&gt;Node32 -->
<g id="edge32" class="edge"><title>Node7&#45;&gt;Node32</title>
<path fill="none" stroke="midnightblue" d="M1568.06,-56.4435C1586.57,-47.6751 1615.58,-33.9355 1636.86,-23.8579"/>
<polygon fill="midnightblue" stroke="midnightblue" points="1638.48,-26.9604 1646.02,-19.5164 1635.49,-20.6343 1638.48,-26.9604"/>
</g>
<!-- Node33 -->
<g id="node33" class="node"><title>Node33</title>
<polygon fill="none" stroke="#bfbfbf" points="1721.5,-0.5 1721.5,-19.5 1794.5,-19.5 1794.5,-0.5 1721.5,-0.5"/>
<text text-anchor="middle" x="1758" y="-7.5" font-family="Helvetica,sans-Serif" font-size="10.00">ext/hash_set</text>
</g>
<!-- Node7&#45;&gt;Node33 -->
<g id="edge33" class="edge"><title>Node7&#45;&gt;Node33</title>
<path fill="none" stroke="midnightblue" d="M1582.96,-56.4435C1618.79,-47.1419 1676.16,-32.246 1715.39,-22.062"/>
<polygon fill="midnightblue" stroke="midnightblue" points="1716.4,-25.4171 1725.2,-19.5164 1714.64,-18.6417 1716.4,-25.4171"/>
</g>
<!-- Node34 -->
<g id="node34" class="node"><title>Node34</title>
<polygon fill="none" stroke="#bfbfbf" points="1812.5,-0.5 1812.5,-19.5 1883.5,-19.5 1883.5,-0.5 1812.5,-0.5"/>
<text text-anchor="middle" x="1848" y="-7.5" font-family="Helvetica,sans-Serif" font-size="10.00">sys/param.h</text>
</g>
<!-- Node7&#45;&gt;Node34 -->
<g id="edge34" class="edge"><title>Node7&#45;&gt;Node34</title>
<path fill="none" stroke="midnightblue" d="M1599.24,-56.6732C1648.26,-48.2941 1725.92,-34.7805 1802.21,-20.3056"/>
<polygon fill="midnightblue" stroke="midnightblue" points="1803.31,-23.6599 1812.47,-18.3504 1802,-16.7835 1803.31,-23.6599"/>
</g>
<!-- Node35 -->
<g id="node35" class="node"><title>Node35</title>
<polygon fill="none" stroke="#bfbfbf" points="1902,-0.5 1902,-19.5 2068,-19.5 2068,-0.5 1902,-0.5"/>
<text text-anchor="middle" x="1985" y="-7.5" font-family="Helvetica,sans-Serif" font-size="10.00">CoreFoundation/CoreFoundation.h</text>
</g>
<!-- Node7&#45;&gt;Node35 -->
<g id="edge35" class="edge"><title>Node7&#45;&gt;Node35</title>
<path fill="none" stroke="midnightblue" d="M1599.05,-58.9105C1673.83,-49.628 1817.05,-31.8495 1906.43,-20.7539"/>
<polygon fill="midnightblue" stroke="midnightblue" points="1907.02,-24.207 1916.51,-19.5017 1906.16,-17.2603 1907.02,-24.207"/>
</g>
<!-- Node37 -->
<g id="node37" class="node"><title>Node37</title>
<g id="a_node37"><a xlink:href="_ogre_header_prefix_8h.html" target="_top" xlink:title="OgreHeaderPrefix.h">
<polygon fill="none" stroke="black" points="62.5,-0.5 62.5,-19.5 165.5,-19.5 165.5,-0.5 62.5,-0.5"/>
<text text-anchor="middle" x="114" y="-7.5" font-family="Helvetica,sans-Serif" font-size="10.00">OgreHeaderPrefix.h</text>
</a>
</g>
</g>
<!-- Node36&#45;&gt;Node37 -->
<g id="edge37" class="edge"><title>Node36&#45;&gt;Node37</title>
<path fill="none" stroke="midnightblue" d="M295.774,-56.4435C258.488,-47.1221 198.731,-32.1828 157.989,-21.9972"/>
<polygon fill="midnightblue" stroke="midnightblue" points="158.616,-18.5464 148.066,-19.5164 156.918,-25.3374 158.616,-18.5464"/>
</g>
<!-- Node38 -->
<g id="node38" class="node"><title>Node38</title>
<g id="a_node38"><a xlink:href="_ogre_header_suffix_8h.html" target="_top" xlink:title="OgreHeaderSuffix.h">
<polygon fill="none" stroke="black" points="329.5,-0.5 329.5,-19.5 432.5,-19.5 432.5,-0.5 329.5,-0.5"/>
<text text-anchor="middle" x="381" y="-7.5" font-family="Helvetica,sans-Serif" font-size="10.00">OgreHeaderSuffix.h</text>
</a>
</g>
</g>
<!-- Node36&#45;&gt;Node38 -->
<g id="edge38" class="edge"><title>Node36&#45;&gt;Node38</title>
<path fill="none" stroke="midnightblue" d="M338.422,-56.083C345.848,-48.2195 356.852,-36.5688 365.812,-27.0813"/>
<polygon fill="midnightblue" stroke="midnightblue" points="368.413,-29.4244 372.735,-19.7511 363.324,-24.618 368.413,-29.4244"/>
</g>
<!-- Node39&#45;&gt;Node3 -->
<g id="edge40" class="edge"><title>Node39&#45;&gt;Node3</title>
<path fill="none" stroke="midnightblue" d="M359.655,-233.153C411.53,-231.279 493.735,-222.426 555,-188 575.309,-176.588 592.176,-155.377 602.391,-140.291"/>
<polygon fill="midnightblue" stroke="midnightblue" points="605.371,-142.129 607.863,-131.831 599.493,-138.327 605.371,-142.129"/>
</g>
<!-- Node39&#45;&gt;Node37 -->
<g id="edge47" class="edge"><title>Node39&#45;&gt;Node37</title>
<path fill="none" stroke="midnightblue" d="M260.486,-226.406C197.922,-217.57 97.0121,-201.444 86,-188 47.6026,-141.122 83.8416,-63.1169 103.372,-28.4862"/>
<polygon fill="midnightblue" stroke="midnightblue" points="106.558,-29.9706 108.58,-19.5703 100.514,-26.4402 106.558,-29.9706"/>
</g>
<!-- Node39&#45;&gt;Node38 -->
<g id="edge48" class="edge"><title>Node39&#45;&gt;Node38</title>
<path fill="none" stroke="midnightblue" d="M306.907,-224.105C302.937,-211.117 297.51,-186.496 306,-168 332.163,-111.001 386.837,-132.999 413,-76 420.735,-59.1494 408.952,-40.1532 397.564,-27.0692"/>
<polygon fill="midnightblue" stroke="midnightblue" points="400.099,-24.6549 390.703,-19.7586 394.995,-29.4454 400.099,-24.6549"/>
</g>
<!-- Node40 -->
<g id="node40" class="node"><title>Node40</title>
<g id="a_node40"><a xlink:href="_ogre_log_8h.html" target="_top" xlink:title="OgreLog.h">
<polygon fill="none" stroke="red" points="197,-168.5 197,-187.5 259,-187.5 259,-168.5 197,-168.5"/>
<text text-anchor="middle" x="228" y="-175.5" font-family="Helvetica,sans-Serif" font-size="10.00">OgreLog.h</text>
</a>
</g>
</g>
<!-- Node39&#45;&gt;Node40 -->
<g id="edge41" class="edge"><title>Node39&#45;&gt;Node40</title>
<path fill="none" stroke="midnightblue" d="M296.825,-224.324C284.153,-215.979 264.767,-203.212 249.794,-193.352"/>
<polygon fill="midnightblue" stroke="midnightblue" points="251.419,-190.231 241.142,-187.655 247.569,-196.078 251.419,-190.231"/>
</g>
<!-- Node41 -->
<g id="node41" class="node"><title>Node41</title>
<g id="a_node41"><a xlink:href="_ogre_singleton_8h.html" target="_top" xlink:title="OgreSingleton.h">
<polygon fill="none" stroke="black" points="315,-168.5 315,-187.5 401,-187.5 401,-168.5 315,-168.5"/>
<text text-anchor="middle" x="358" y="-175.5" font-family="Helvetica,sans-Serif" font-size="10.00">OgreSingleton.h</text>
</a>
</g>
</g>
<!-- Node39&#45;&gt;Node41 -->
<g id="edge45" class="edge"><title>Node39&#45;&gt;Node41</title>
<path fill="none" stroke="midnightblue" d="M317.926,-224.083C324.846,-216.298 335.065,-204.801 343.452,-195.367"/>
<polygon fill="midnightblue" stroke="midnightblue" points="346.194,-197.55 350.221,-187.751 340.962,-192.9 346.194,-197.55"/>
</g>
<!-- Node40&#45;&gt;Node3 -->
<g id="edge42" class="edge"><title>Node40&#45;&gt;Node3</title>
<path fill="none" stroke="midnightblue" d="M259.18,-172.627C322.677,-163.721 468.011,-143.336 551.315,-131.652"/>
<polygon fill="midnightblue" stroke="midnightblue" points="551.988,-135.092 561.405,-130.237 551.015,-128.16 551.988,-135.092"/>
</g>
<!-- Node40&#45;&gt;Node37 -->
<g id="edge43" class="edge"><title>Node40&#45;&gt;Node37</title>
<path fill="none" stroke="midnightblue" d="M221.871,-168.075C203.693,-141.606 149.854,-63.2089 125.819,-28.2097"/>
<polygon fill="midnightblue" stroke="midnightblue" points="128.43,-25.8301 119.884,-19.5681 122.66,-29.7928 128.43,-25.8301"/>
</g>
<!-- Node40&#45;&gt;Node38 -->
<g id="edge44" class="edge"><title>Node40&#45;&gt;Node38</title>
<path fill="none" stroke="midnightblue" d="M226.613,-168.472C223.61,-146.861 218.875,-89.3049 247,-56 264.971,-34.7194 293.347,-23.4631 319.369,-17.5255"/>
<polygon fill="midnightblue" stroke="midnightblue" points="320.112,-20.9461 329.2,-15.5005 318.7,-14.09 320.112,-20.9461"/>
</g>
<!-- Node41&#45;&gt;Node3 -->
<g id="edge46" class="edge"><title>Node41&#45;&gt;Node3</title>
<path fill="none" stroke="midnightblue" d="M398.406,-168.444C442.983,-159.004 514.768,-143.802 562.892,-133.611"/>
<polygon fill="midnightblue" stroke="midnightblue" points="563.726,-137.012 572.784,-131.516 562.275,-130.164 563.726,-137.012"/>
</g>
<!-- Node42&#45;&gt;Node3 -->
<g id="edge50" class="edge"><title>Node42&#45;&gt;Node3</title>
<path fill="none" stroke="midnightblue" d="M163.281,-171.499C171.376,-170.275 179.985,-169.035 188,-168 316.918,-151.351 468.427,-136.415 551.231,-128.644"/>
<polygon fill="midnightblue" stroke="midnightblue" points="551.596,-132.125 561.227,-127.709 550.944,-125.156 551.596,-132.125"/>
</g>
<!-- Node42&#45;&gt;Node37 -->
<g id="edge51" class="edge"><title>Node42&#45;&gt;Node37</title>
<path fill="none" stroke="midnightblue" d="M121.327,-168.459C114.221,-159.927 104.146,-146.088 100,-132 90.4633,-99.5965 94.9253,-89.3944 100,-56 101.368,-47.001 104.19,-37.3251 106.945,-29.2601"/>
<polygon fill="midnightblue" stroke="midnightblue" points="110.265,-30.3722 110.4,-19.7782 103.688,-27.9759 110.265,-30.3722"/>
</g>
<!-- Node42&#45;&gt;Node38 -->
<g id="edge52" class="edge"><title>Node42&#45;&gt;Node38</title>
<path fill="none" stroke="midnightblue" d="M133.926,-168.187C146.832,-145.907 183.916,-86.9104 231,-56 257.43,-38.6486 290.801,-27.7755 319.352,-21.0755"/>
<polygon fill="midnightblue" stroke="midnightblue" points="320.23,-24.4657 329.231,-18.8759 318.709,-17.633 320.23,-24.4657"/>
</g>
<!-- Node44&#45;&gt;Node3 -->
<g id="edge55" class="edge"><title>Node44&#45;&gt;Node3</title>
<path fill="none" stroke="midnightblue" d="M623.731,-341.863C659.799,-336.894 702.081,-325.48 732,-300 752.615,-282.443 750.555,-270.525 756,-244 763.593,-207.007 747.132,-192.031 718,-168 699.725,-152.925 675.643,-142.12 655.152,-134.883"/>
<polygon fill="midnightblue" stroke="midnightblue" points="656.017,-131.482 645.423,-131.614 653.788,-138.117 656.017,-131.482"/>
</g>
<!-- Node44&#45;&gt;Node37 -->
<g id="edge69" class="edge"><title>Node44&#45;&gt;Node37</title>
<path fill="none" stroke="midnightblue" d="M480.402,-338.126C331.044,-322.82 0,-283.431 0,-235 0,-235 0,-235 0,-121 0,-74.1149 50.5515,-40.8944 84.3292,-23.9302"/>
<polygon fill="midnightblue" stroke="midnightblue" points="85.8676,-27.0742 93.3555,-19.5787 82.8277,-20.7687 85.8676,-27.0742"/>
</g>
<!-- Node44&#45;&gt;Node38 -->
<g id="edge70" class="edge"><title>Node44&#45;&gt;Node38</title>
<path fill="none" stroke="midnightblue" d="M544.103,-336.247C524.198,-313.632 471.862,-250.633 448,-188 426.898,-132.612 456.386,-108.565 429,-56 422.795,-44.0905 412.167,-33.6293 402.486,-25.7978"/>
<polygon fill="midnightblue" stroke="midnightblue" points="404.437,-22.8849 394.357,-19.6222 400.202,-28.4587 404.437,-22.8849"/>
</g>
<!-- Node45 -->
<g id="node45" class="node"><title>Node45</title>
<g id="a_node45"><a xlink:href="_ogre_hardware_buffer_8h.html" target="_top" xlink:title="OgreHardwareBuffer.h">
<polygon fill="none" stroke="black" points="495,-224.5 495,-243.5 609,-243.5 609,-224.5 495,-224.5"/>
<text text-anchor="middle" x="552" y="-231.5" font-family="Helvetica,sans-Serif" font-size="10.00">OgreHardwareBuffer.h</text>
</a>
</g>
</g>
<!-- Node44&#45;&gt;Node45 -->
<g id="edge56" class="edge"><title>Node44&#45;&gt;Node45</title>
<path fill="none" stroke="midnightblue" d="M552,-336.368C552,-318.617 552,-277.666 552,-253.597"/>
<polygon fill="midnightblue" stroke="midnightblue" points="555.5,-253.591 552,-243.591 548.5,-253.591 555.5,-253.591"/>
</g>
<!-- Node47 -->
<g id="node47" class="node"><title>Node47</title>
<g id="a_node47"><a xlink:href="_ogre_shared_ptr_8h.html" target="_top" xlink:title="OgreSharedPtr.h">
<polygon fill="none" stroke="black" points="634.5,-280.5 634.5,-299.5 723.5,-299.5 723.5,-280.5 634.5,-280.5"/>
<text text-anchor="middle" x="679" y="-287.5" font-family="Helvetica,sans-Serif" font-size="10.00">OgreSharedPtr.h</text>
</a>
</g>
</g>
<!-- Node44&#45;&gt;Node47 -->
<g id="edge62" class="edge"><title>Node44&#45;&gt;Node47</title>
<path fill="none" stroke="midnightblue" d="M572.124,-336.444C593.024,-327.557 625.935,-313.563 649.716,-303.451"/>
<polygon fill="midnightblue" stroke="midnightblue" points="651.138,-306.65 658.971,-299.516 648.398,-300.208 651.138,-306.65"/>
</g>
<!-- Node49 -->
<g id="node49" class="node"><title>Node49</title>
<g id="a_node49"><a xlink:href="_ogre_colour_value_8h.html" target="_top" xlink:title="OgreColourValue.h">
<polygon fill="none" stroke="black" points="825.5,-280.5 825.5,-299.5 924.5,-299.5 924.5,-280.5 825.5,-280.5"/>
<text text-anchor="middle" x="875" y="-287.5" font-family="Helvetica,sans-Serif" font-size="10.00">OgreColourValue.h</text>
</a>
</g>
</g>
<!-- Node44&#45;&gt;Node49 -->
<g id="edge67" class="edge"><title>Node44&#45;&gt;Node49</title>
<path fill="none" stroke="midnightblue" d="M603.18,-336.444C660.774,-326.815 754.223,-311.192 815.15,-301.006"/>
<polygon fill="midnightblue" stroke="midnightblue" points="816.099,-304.396 825.385,-299.295 814.944,-297.492 816.099,-304.396"/>
</g>
<!-- Node45&#45;&gt;Node3 -->
<g id="edge57" class="edge"><title>Node45&#45;&gt;Node3</title>
<path fill="none" stroke="midnightblue" d="M579.282,-224.453C596.294,-217.548 616.825,-205.971 627,-188 635.329,-173.289 629.547,-154.136 623.072,-140.439"/>
<polygon fill="midnightblue" stroke="midnightblue" points="626.168,-138.806 618.428,-131.571 619.967,-142.053 626.168,-138.806"/>
</g>
<!-- Node46 -->
<g id="node46" class="node"><title>Node46</title>
<g id="a_node46"><a xlink:href="_ogre_exception_8h.html" target="_top" xlink:title="OgreException.h">
<polygon fill="none" stroke="red" points="457.5,-168.5 457.5,-187.5 546.5,-187.5 546.5,-168.5 457.5,-168.5"/>
<text text-anchor="middle" x="502" y="-175.5" font-family="Helvetica,sans-Serif" font-size="10.00">OgreException.h</text>
</a>
</g>
</g>
<!-- Node45&#45;&gt;Node46 -->
<g id="edge58" class="edge"><title>Node45&#45;&gt;Node46</title>
<path fill="none" stroke="midnightblue" d="M543.744,-224.083C536.535,-216.298 525.89,-204.801 517.154,-195.367"/>
<polygon fill="midnightblue" stroke="midnightblue" points="519.465,-192.711 510.103,-187.751 514.329,-197.467 519.465,-192.711"/>
</g>
<!-- Node46&#45;&gt;Node3 -->
<g id="edge59" class="edge"><title>Node46&#45;&gt;Node3</title>
<path fill="none" stroke="midnightblue" d="M519.834,-168.324C537.716,-159.625 565.475,-146.12 586.046,-136.113"/>
<polygon fill="midnightblue" stroke="midnightblue" points="587.749,-139.177 595.21,-131.655 584.687,-132.882 587.749,-139.177"/>
</g>
<!-- Node46&#45;&gt;Node37 -->
<g id="edge60" class="edge"><title>Node46&#45;&gt;Node37</title>
<path fill="none" stroke="midnightblue" d="M478.545,-168.405C433.313,-151.678 331.068,-113.125 247,-76 209.101,-59.2636 166.195,-37.8311 139.615,-24.2531"/>
<polygon fill="midnightblue" stroke="midnightblue" points="141.096,-21.0792 130.601,-19.6293 137.901,-27.3076 141.096,-21.0792"/>
</g>
<!-- Node46&#45;&gt;Node38 -->
<g id="edge61" class="edge"><title>Node46&#45;&gt;Node38</title>
<path fill="none" stroke="midnightblue" d="M503.333,-168.309C506.128,-146.813 510.333,-90.4046 484,-56 471.678,-39.9012 452.394,-29.4577 433.827,-22.7309"/>
<polygon fill="midnightblue" stroke="midnightblue" points="434.818,-19.372 424.225,-19.5417 432.612,-26.0152 434.818,-19.372"/>
</g>
<!-- Node47&#45;&gt;Node3 -->
<g id="edge63" class="edge"><title>Node47&#45;&gt;Node3</title>
<path fill="none" stroke="midnightblue" d="M698.128,-280.341C720.053,-269.075 751.565,-247.974 740,-224 719.701,-181.92 672.403,-151.974 641.607,-136.1"/>
<polygon fill="midnightblue" stroke="midnightblue" points="643.139,-132.953 632.627,-131.627 640.018,-139.219 643.139,-132.953"/>
</g>
<!-- Node48 -->
<g id="node48" class="node"><title>Node48</title>
<g id="a_node48"><a xlink:href="_ogre_atomic_scalar_8h.html" target="_top" xlink:title="OgreAtomicScalar.h">
<polygon fill="none" stroke="red" points="627,-224.5 627,-243.5 731,-243.5 731,-224.5 627,-224.5"/>
<text text-anchor="middle" x="679" y="-231.5" font-family="Helvetica,sans-Serif" font-size="10.00">OgreAtomicScalar.h</text>
</a>
</g>
</g>
<!-- Node47&#45;&gt;Node48 -->
<g id="edge64" class="edge"><title>Node47&#45;&gt;Node48</title>
<path fill="none" stroke="midnightblue" d="M679,-280.083C679,-273.006 679,-262.861 679,-253.986"/>
<polygon fill="midnightblue" stroke="midnightblue" points="682.5,-253.751 679,-243.751 675.5,-253.751 682.5,-253.751"/>
</g>
<!-- Node48&#45;&gt;Node3 -->
<g id="edge65" class="edge"><title>Node48&#45;&gt;Node3</title>
<path fill="none" stroke="midnightblue" d="M674.758,-224.42C668.447,-211.823 656.031,-187.685 644,-168 638.187,-158.489 631.18,-148.228 625.299,-139.91"/>
<polygon fill="midnightblue" stroke="midnightblue" points="628.139,-137.865 619.469,-131.774 622.448,-141.942 628.139,-137.865"/>
</g>
<!-- Node48&#45;&gt;Node46 -->
<g id="edge66" class="edge"><title>Node48&#45;&gt;Node46</title>
<path fill="none" stroke="midnightblue" d="M650.954,-224.444C620.918,-215.28 573.087,-200.688 539.757,-190.519"/>
<polygon fill="midnightblue" stroke="midnightblue" points="540.501,-187.087 529.915,-187.516 538.458,-193.782 540.501,-187.087"/>
</g>
<!-- Node49&#45;&gt;Node3 -->
<g id="edge68" class="edge"><title>Node49&#45;&gt;Node3</title>
<path fill="none" stroke="midnightblue" d="M873.076,-280.363C867.62,-257.982 849.857,-197.778 811,-168 772.097,-138.187 717.048,-127.484 674.865,-123.927"/>
<polygon fill="midnightblue" stroke="midnightblue" points="674.938,-120.423 664.71,-123.186 674.429,-127.405 674.938,-120.423"/>
</g>
<!-- Node50&#45;&gt;Node2 -->
<g id="edge72" class="edge"><title>Node50&#45;&gt;Node2</title>
<path fill="none" stroke="midnightblue" d="M310,-336.083C310,-329.006 310,-318.861 310,-309.986"/>
<polygon fill="midnightblue" stroke="midnightblue" points="313.5,-309.751 310,-299.751 306.5,-309.751 313.5,-309.751"/>
</g>
</g>
</svg>
