<?xml version="1.0" encoding="UTF-8" standalone="no"?>
<!DOCTYPE svg PUBLIC "-//W3C//DTD SVG 1.1//EN"
 "http://www.w3.org/Graphics/SVG/1.1/DTD/svg11.dtd">
<!-- Generated by graphviz version 2.38.0 (20140413.2041)
 -->
<!-- Title: OgreGLRenderTexture.h Pages: 1 -->
<svg width="422pt" height="140pt"
 viewBox="0.00 0.00 422.00 140.00" xmlns="http://www.w3.org/2000/svg" xmlns:xlink="http://www.w3.org/1999/xlink">
<g id="graph0" class="graph" transform="scale(1 1) rotate(0) translate(4 136)">
<title>OgreGLRenderTexture.h</title>
<!-- Node1 -->
<g id="node1" class="node"><title>Node1</title>
<polygon fill="#bfbfbf" stroke="black" points="187,-112.5 187,-131.5 310,-131.5 310,-112.5 187,-112.5"/>
<text text-anchor="middle" x="248.5" y="-119.5" font-family="Helvetica,sans-Serif" font-size="10.00">OgreGLRenderTexture.h</text>
</g>
<!-- Node2 -->
<g id="node2" class="node"><title>Node2</title>
<g id="a_node2"><a xlink:href="_ogre_g_l_frame_buffer_object_8h.html" target="_top" xlink:title="OgreGLFrameBufferObject.h">
<polygon fill="none" stroke="black" points="79,-56.5 79,-75.5 220,-75.5 220,-56.5 79,-56.5"/>
<text text-anchor="middle" x="149.5" y="-63.5" font-family="Helvetica,sans-Serif" font-size="10.00">OgreGLFrameBufferObject.h</text>
</a>
</g>
</g>
<!-- Node1&#45;&gt;Node2 -->
<g id="edge1" class="edge"><title>Node1&#45;&gt;Node2</title>
<path fill="none" stroke="midnightblue" d="M223.663,-107.453C205.386,-97.4835 181.084,-84.2279 165.367,-75.6545"/>
<polygon fill="midnightblue" stroke="midnightblue" points="222.139,-110.608 232.594,-112.324 225.491,-104.463 222.139,-110.608"/>
</g>
<!-- Node4 -->
<g id="node4" class="node"><title>Node4</title>
<g id="a_node4"><a xlink:href="_ogre_g_l_f_b_o_render_texture_8h.html" target="_top" xlink:title="OgreGLFBORenderTexture.h">
<polygon fill="none" stroke="black" points="177,-0.5 177,-19.5 320,-19.5 320,-0.5 177,-0.5"/>
<text text-anchor="middle" x="248.5" y="-7.5" font-family="Helvetica,sans-Serif" font-size="10.00">OgreGLFBORenderTexture.h</text>
</a>
</g>
</g>
<!-- Node1&#45;&gt;Node4 -->
<g id="edge4" class="edge"><title>Node1&#45;&gt;Node4</title>
<path fill="none" stroke="midnightblue" d="M248.5,-102.348C248.5,-78.2538 248.5,-37.3079 248.5,-19.5914"/>
<polygon fill="midnightblue" stroke="midnightblue" points="245,-102.368 248.5,-112.368 252,-102.369 245,-102.368"/>
</g>
<!-- Node5 -->
<g id="node5" class="node"><title>Node5</title>
<g id="a_node5"><a xlink:href="_ogre_g_l_p_b_render_texture_8h.html" target="_top" xlink:title="OgreGLPBRenderTexture.h">
<polygon fill="none" stroke="black" points="277,-56.5 277,-75.5 414,-75.5 414,-56.5 277,-56.5"/>
<text text-anchor="middle" x="345.5" y="-63.5" font-family="Helvetica,sans-Serif" font-size="10.00">OgreGLPBRenderTexture.h</text>
</a>
</g>
</g>
<!-- Node1&#45;&gt;Node5 -->
<g id="edge5" class="edge"><title>Node1&#45;&gt;Node5</title>
<path fill="none" stroke="midnightblue" d="M272.835,-107.453C290.743,-97.4835 314.554,-84.2279 329.954,-75.6545"/>
<polygon fill="midnightblue" stroke="midnightblue" points="271.12,-104.402 264.085,-112.324 274.525,-110.518 271.12,-104.402"/>
</g>
<!-- Node3 -->
<g id="node3" class="node"><title>Node3</title>
<g id="a_node3"><a xlink:href="_ogre_g_l_f_b_o_multi_render_target_8h.html" target="_top" xlink:title="OgreGLFBOMultiRenderTarget.h">
<polygon fill="none" stroke="black" points="0,-0.5 0,-19.5 159,-19.5 159,-0.5 0,-0.5"/>
<text text-anchor="middle" x="79.5" y="-7.5" font-family="Helvetica,sans-Serif" font-size="10.00">OgreGLFBOMultiRenderTarget.h</text>
</a>
</g>
</g>
<!-- Node2&#45;&gt;Node3 -->
<g id="edge2" class="edge"><title>Node2&#45;&gt;Node3</title>
<path fill="none" stroke="midnightblue" d="M130.186,-50.1008C117.588,-40.3824 101.572,-28.0269 90.9513,-19.8339"/>
<polygon fill="midnightblue" stroke="midnightblue" points="128.198,-52.9871 138.253,-56.324 132.473,-47.4446 128.198,-52.9871"/>
</g>
<!-- Node2&#45;&gt;Node4 -->
<g id="edge3" class="edge"><title>Node2&#45;&gt;Node4</title>
<path fill="none" stroke="midnightblue" d="M174.337,-51.4526C192.614,-41.4835 216.916,-28.2279 232.633,-19.6545"/>
<polygon fill="midnightblue" stroke="midnightblue" points="172.509,-48.4628 165.406,-56.324 175.861,-54.608 172.509,-48.4628"/>
</g>
</g>
</svg>
