<?xml version="1.0" encoding="UTF-8" standalone="no"?>
<!DOCTYPE svg PUBLIC "-//W3C//DTD SVG 1.1//EN"
 "http://www.w3.org/Graphics/SVG/1.1/DTD/svg11.dtd">
<!-- Generated by graphviz version 2.38.0 (20140413.2041)
 -->
<!-- Title: OgreResource.h Pages: 1 -->
<svg width="3320pt" height="420pt"
 viewBox="0.00 0.00 3320.00 420.00" xmlns="http://www.w3.org/2000/svg" xmlns:xlink="http://www.w3.org/1999/xlink">
<g id="graph0" class="graph" transform="scale(1 1) rotate(0) translate(4 416)">
<title>OgreResource.h</title>
<!-- Node1 -->
<g id="node1" class="node"><title>Node1</title>
<polygon fill="#bfbfbf" stroke="black" points="2988,-392.5 2988,-411.5 3076,-411.5 3076,-392.5 2988,-392.5"/>
<text text-anchor="middle" x="3032" y="-399.5" font-family="Helvetica,sans-Serif" font-size="10.00">OgreResource.h</text>
</g>
<!-- Node2 -->
<g id="node2" class="node"><title>Node2</title>
<g id="a_node2"><a xlink:href="_ogre_prerequisites_8h.html" target="_top" xlink:title="OgrePrerequisites.h">
<polygon fill="none" stroke="black" points="2664.5,-168.5 2664.5,-187.5 2767.5,-187.5 2767.5,-168.5 2664.5,-168.5"/>
<text text-anchor="middle" x="2716" y="-175.5" font-family="Helvetica,sans-Serif" font-size="10.00">OgrePrerequisites.h</text>
</a>
</g>
</g>
<!-- Node1&#45;&gt;Node2 -->
<g id="edge1" class="edge"><title>Node1&#45;&gt;Node2</title>
<path fill="none" stroke="midnightblue" d="M3029.88,-392.438C3024.45,-371.7 3008.59,-317.713 2982,-280 2960.61,-249.651 2953.01,-241.01 2920,-224 2875.47,-201.054 2819.62,-189.769 2777.61,-184.241"/>
<polygon fill="midnightblue" stroke="midnightblue" points="2777.87,-180.747 2767.52,-182.988 2777.01,-187.694 2777.87,-180.747"/>
</g>
<!-- Node38 -->
<g id="node38" class="node"><title>Node38</title>
<g id="a_node38"><a xlink:href="_ogre_header_prefix_8h.html" target="_top" xlink:title="OgreHeaderPrefix.h">
<polygon fill="none" stroke="black" points="2985.5,-0.5 2985.5,-19.5 3088.5,-19.5 3088.5,-0.5 2985.5,-0.5"/>
<text text-anchor="middle" x="3037" y="-7.5" font-family="Helvetica,sans-Serif" font-size="10.00">OgreHeaderPrefix.h</text>
</a>
</g>
</g>
<!-- Node1&#45;&gt;Node38 -->
<g id="edge73" class="edge"><title>Node1&#45;&gt;Node38</title>
<path fill="none" stroke="midnightblue" d="M3076.06,-393.154C3154.91,-377.848 3312,-341.073 3312,-291 3312,-291 3312,-291 3312,-121 3312,-74.2771 3173.42,-38.4577 3093.01,-21.6062"/>
<polygon fill="midnightblue" stroke="midnightblue" points="3093.53,-18.1394 3083.03,-19.5487 3092.12,-24.9953 3093.53,-18.1394"/>
</g>
<!-- Node39 -->
<g id="node39" class="node"><title>Node39</title>
<g id="a_node39"><a xlink:href="_ogre_header_suffix_8h.html" target="_top" xlink:title="OgreHeaderSuffix.h">
<polygon fill="none" stroke="black" points="2467.5,-0.5 2467.5,-19.5 2570.5,-19.5 2570.5,-0.5 2467.5,-0.5"/>
<text text-anchor="middle" x="2519" y="-7.5" font-family="Helvetica,sans-Serif" font-size="10.00">OgreHeaderSuffix.h</text>
</a>
</g>
</g>
<!-- Node1&#45;&gt;Node39 -->
<g id="edge75" class="edge"><title>Node1&#45;&gt;Node39</title>
<path fill="none" stroke="midnightblue" d="M2987.97,-400.596C2615.11,-397.035 0,-369.27 0,-291 0,-291 0,-291 0,-121 0,-84.0042 18.8031,-72.3296 52,-56 107.62,-28.6405 2080.37,-13.9623 2457.16,-11.4052"/>
<polygon fill="midnightblue" stroke="midnightblue" points="2457.35,-14.9042 2467.32,-11.3366 2457.3,-7.90432 2457.35,-14.9042"/>
</g>
<!-- Node42 -->
<g id="node42" class="node"><title>Node42</title>
<g id="a_node42"><a xlink:href="_ogre_atomic_scalar_8h.html" target="_top" xlink:title="OgreAtomicScalar.h">
<polygon fill="none" stroke="black" points="2856,-336.5 2856,-355.5 2960,-355.5 2960,-336.5 2856,-336.5"/>
<text text-anchor="middle" x="2908" y="-343.5" font-family="Helvetica,sans-Serif" font-size="10.00">OgreAtomicScalar.h</text>
</a>
</g>
</g>
<!-- Node1&#45;&gt;Node42 -->
<g id="edge50" class="edge"><title>Node1&#45;&gt;Node42</title>
<path fill="none" stroke="midnightblue" d="M3012.35,-392.444C2992.04,-383.596 2960.1,-369.687 2936.9,-359.586"/>
<polygon fill="midnightblue" stroke="midnightblue" points="2938.12,-356.3 2927.56,-355.516 2935.33,-362.718 2938.12,-356.3"/>
</g>
<!-- Node47 -->
<g id="node47" class="node"><title>Node47</title>
<g id="a_node47"><a xlink:href="_ogre_thread_headers_8h.html" target="_top" xlink:title="Threading/OgreThreadHeaders.h">
<polygon fill="none" stroke="black" points="3126,-168.5 3126,-187.5 3284,-187.5 3284,-168.5 3126,-168.5"/>
<text text-anchor="middle" x="3205" y="-175.5" font-family="Helvetica,sans-Serif" font-size="10.00">Threading/OgreThreadHeaders.h</text>
</a>
</g>
</g>
<!-- Node1&#45;&gt;Node47 -->
<g id="edge74" class="edge"><title>Node1&#45;&gt;Node47</title>
<path fill="none" stroke="midnightblue" d="M3041.55,-392.197C3065.82,-369.464 3130.93,-306.213 3173,-244 3183.01,-229.201 3191.76,-210.816 3197.57,-197.378"/>
<polygon fill="midnightblue" stroke="midnightblue" points="3200.94,-198.402 3201.57,-187.826 3194.48,-195.7 3200.94,-198.402"/>
</g>
<!-- Node49 -->
<g id="node49" class="node"><title>Node49</title>
<g id="a_node49"><a xlink:href="_ogre_string_interface_8h.html" target="_top" xlink:title="OgreStringInterface.h">
<polygon fill="none" stroke="black" points="3030,-224.5 3030,-243.5 3140,-243.5 3140,-224.5 3030,-224.5"/>
<text text-anchor="middle" x="3085" y="-231.5" font-family="Helvetica,sans-Serif" font-size="10.00">OgreStringInterface.h</text>
</a>
</g>
</g>
<!-- Node1&#45;&gt;Node49 -->
<g id="edge65" class="edge"><title>Node1&#45;&gt;Node49</title>
<path fill="none" stroke="midnightblue" d="M3034.85,-392.075C3043.23,-365.832 3067.9,-288.545 3079.22,-253.117"/>
<polygon fill="midnightblue" stroke="midnightblue" points="3082.56,-254.159 3082.26,-243.568 3075.89,-252.03 3082.56,-254.159"/>
</g>
<!-- Node3 -->
<g id="node3" class="node"><title>Node3</title>
<g id="a_node3"><a xlink:href="_ogre_platform_8h.html" target="_top" xlink:title="OgrePlatform.h">
<polygon fill="none" stroke="black" points="368.5,-112.5 368.5,-131.5 451.5,-131.5 451.5,-112.5 368.5,-112.5"/>
<text text-anchor="middle" x="410" y="-119.5" font-family="Helvetica,sans-Serif" font-size="10.00">OgrePlatform.h</text>
</a>
</g>
</g>
<!-- Node2&#45;&gt;Node3 -->
<g id="edge2" class="edge"><title>Node2&#45;&gt;Node3</title>
<path fill="none" stroke="midnightblue" d="M2664.22,-175.931C2436.25,-171.201 1499.27,-151.533 730,-132 635.398,-129.598 525.076,-126.41 461.796,-124.544"/>
<polygon fill="midnightblue" stroke="midnightblue" points="461.775,-121.042 451.676,-124.245 461.568,-128.039 461.775,-121.042"/>
</g>
<!-- Node5 -->
<g id="node5" class="node"><title>Node5</title>
<polygon fill="none" stroke="#bfbfbf" points="196.5,-56.5 196.5,-75.5 237.5,-75.5 237.5,-56.5 196.5,-56.5"/>
<text text-anchor="middle" x="217" y="-63.5" font-family="Helvetica,sans-Serif" font-size="10.00">string</text>
</g>
<!-- Node2&#45;&gt;Node5 -->
<g id="edge4" class="edge"><title>Node2&#45;&gt;Node5</title>
<path fill="none" stroke="midnightblue" d="M2664.19,-175.778C2478.23,-171.303 1827.01,-154.873 1290,-132 829.154,-112.371 705.197,-157.268 247.932,-75.937"/>
<polygon fill="midnightblue" stroke="midnightblue" points="248.216,-72.4323 237.756,-74.116 246.983,-79.3228 248.216,-72.4323"/>
</g>
<!-- Node6 -->
<g id="node6" class="node"><title>Node6</title>
<g id="a_node6"><a xlink:href="_ogre_std_headers_8h.html" target="_top" xlink:title="OgreStdHeaders.h">
<polygon fill="none" stroke="black" points="1299,-112.5 1299,-131.5 1397,-131.5 1397,-112.5 1299,-112.5"/>
<text text-anchor="middle" x="1348" y="-119.5" font-family="Helvetica,sans-Serif" font-size="10.00">OgreStdHeaders.h</text>
</a>
</g>
</g>
<!-- Node2&#45;&gt;Node6 -->
<g id="edge5" class="edge"><title>Node2&#45;&gt;Node6</title>
<path fill="none" stroke="midnightblue" d="M2664.46,-174.965C2450.74,-166.529 1634.8,-134.321 1407.24,-125.338"/>
<polygon fill="midnightblue" stroke="midnightblue" points="1407.3,-121.838 1397.17,-124.941 1407.02,-128.833 1407.3,-121.838"/>
</g>
<!-- Node36 -->
<g id="node36" class="node"><title>Node36</title>
<g id="a_node36"><a xlink:href="_ogre_memory_allocator_config_8h.html" target="_top" xlink:title="This file configures Ogre&#39;s memory allocators. ">
<polygon fill="none" stroke="black" points="2642,-112.5 2642,-131.5 2790,-131.5 2790,-112.5 2642,-112.5"/>
<text text-anchor="middle" x="2716" y="-119.5" font-family="Helvetica,sans-Serif" font-size="10.00">OgreMemoryAllocatorConfig.h</text>
</a>
</g>
</g>
<!-- Node2&#45;&gt;Node36 -->
<g id="edge36" class="edge"><title>Node2&#45;&gt;Node36</title>
<path fill="none" stroke="midnightblue" d="M2716,-168.083C2716,-161.006 2716,-150.861 2716,-141.986"/>
<polygon fill="midnightblue" stroke="midnightblue" points="2719.5,-141.751 2716,-131.751 2712.5,-141.751 2719.5,-141.751"/>
</g>
<!-- Node4 -->
<g id="node4" class="node"><title>Node4</title>
<g id="a_node4"><a xlink:href="_ogre_config_8h.html" target="_top" xlink:title="OgreConfig.h">
<polygon fill="none" stroke="red" points="104,-56.5 104,-75.5 178,-75.5 178,-56.5 104,-56.5"/>
<text text-anchor="middle" x="141" y="-63.5" font-family="Helvetica,sans-Serif" font-size="10.00">OgreConfig.h</text>
</a>
</g>
</g>
<!-- Node3&#45;&gt;Node4 -->
<g id="edge3" class="edge"><title>Node3&#45;&gt;Node4</title>
<path fill="none" stroke="midnightblue" d="M368.264,-112.622C319.528,-102.838 239.111,-86.6952 188.159,-76.4668"/>
<polygon fill="midnightblue" stroke="midnightblue" points="188.561,-72.9778 178.067,-74.4411 187.183,-79.8408 188.561,-72.9778"/>
</g>
<!-- Node6&#45;&gt;Node5 -->
<g id="edge15" class="edge"><title>Node6&#45;&gt;Node5</title>
<path fill="none" stroke="midnightblue" d="M1298.86,-120.688C1115.77,-119.268 472.612,-111.9 247.816,-75.8323"/>
<polygon fill="midnightblue" stroke="midnightblue" points="248.191,-72.3465 237.75,-74.1489 247.036,-79.2506 248.191,-72.3465"/>
</g>
<!-- Node7 -->
<g id="node7" class="node"><title>Node7</title>
<polygon fill="none" stroke="#bfbfbf" points="670.5,-56.5 670.5,-75.5 719.5,-75.5 719.5,-56.5 670.5,-56.5"/>
<text text-anchor="middle" x="695" y="-63.5" font-family="Helvetica,sans-Serif" font-size="10.00">cassert</text>
</g>
<!-- Node6&#45;&gt;Node7 -->
<g id="edge6" class="edge"><title>Node6&#45;&gt;Node7</title>
<path fill="none" stroke="midnightblue" d="M1298.98,-120.658C1195.28,-119.242 946.058,-112.188 729.703,-75.9929"/>
<polygon fill="midnightblue" stroke="midnightblue" points="730.196,-72.5266 719.751,-74.3032 729.024,-79.4278 730.196,-72.5266"/>
</g>
<!-- Node8 -->
<g id="node8" class="node"><title>Node8</title>
<polygon fill="none" stroke="#bfbfbf" points="737.5,-56.5 737.5,-75.5 780.5,-75.5 780.5,-56.5 737.5,-56.5"/>
<text text-anchor="middle" x="759" y="-63.5" font-family="Helvetica,sans-Serif" font-size="10.00">cstdio</text>
</g>
<!-- Node6&#45;&gt;Node8 -->
<g id="edge7" class="edge"><title>Node6&#45;&gt;Node8</title>
<path fill="none" stroke="midnightblue" d="M1298.94,-120.516C1202.77,-118.822 982.795,-111.265 790.811,-75.993"/>
<polygon fill="midnightblue" stroke="midnightblue" points="791.296,-72.5231 780.823,-74.128 790.011,-79.4042 791.296,-72.5231"/>
</g>
<!-- Node9 -->
<g id="node9" class="node"><title>Node9</title>
<polygon fill="none" stroke="#bfbfbf" points="798.5,-56.5 798.5,-75.5 843.5,-75.5 843.5,-56.5 798.5,-56.5"/>
<text text-anchor="middle" x="821" y="-63.5" font-family="Helvetica,sans-Serif" font-size="10.00">cstdlib</text>
</g>
<!-- Node6&#45;&gt;Node9 -->
<g id="edge8" class="edge"><title>Node6&#45;&gt;Node9</title>
<path fill="none" stroke="midnightblue" d="M1298.99,-119.668C1211.23,-116.61 1021.46,-106.932 853.572,-75.9705"/>
<polygon fill="midnightblue" stroke="midnightblue" points="854.039,-72.4973 843.565,-74.0948 852.749,-79.3774 854.039,-72.4973"/>
</g>
<!-- Node10 -->
<g id="node10" class="node"><title>Node10</title>
<polygon fill="none" stroke="#bfbfbf" points="861.5,-56.5 861.5,-75.5 902.5,-75.5 902.5,-56.5 861.5,-56.5"/>
<text text-anchor="middle" x="882" y="-63.5" font-family="Helvetica,sans-Serif" font-size="10.00">ctime</text>
</g>
<!-- Node6&#45;&gt;Node10 -->
<g id="edge9" class="edge"><title>Node6&#45;&gt;Node10</title>
<path fill="none" stroke="midnightblue" d="M1298.84,-118.949C1219.44,-114.978 1058.07,-104.187 912.533,-75.7061"/>
<polygon fill="midnightblue" stroke="midnightblue" points="913.019,-72.2341 902.528,-73.7148 911.652,-79.0994 913.019,-72.2341"/>
</g>
<!-- Node11 -->
<g id="node11" class="node"><title>Node11</title>
<polygon fill="none" stroke="#bfbfbf" points="921,-56.5 921,-75.5 967,-75.5 967,-56.5 921,-56.5"/>
<text text-anchor="middle" x="944" y="-63.5" font-family="Helvetica,sans-Serif" font-size="10.00">cstring</text>
</g>
<!-- Node6&#45;&gt;Node11 -->
<g id="edge10" class="edge"><title>Node6&#45;&gt;Node11</title>
<path fill="none" stroke="midnightblue" d="M1298.87,-117.478C1229.28,-111.958 1097.94,-99.588 977.452,-76.0198"/>
<polygon fill="midnightblue" stroke="midnightblue" points="977.809,-72.5222 967.318,-74.0055 976.444,-79.3879 977.809,-72.5222"/>
</g>
<!-- Node12 -->
<g id="node12" class="node"><title>Node12</title>
<polygon fill="none" stroke="#bfbfbf" points="985.5,-56.5 985.5,-75.5 1034.5,-75.5 1034.5,-56.5 985.5,-56.5"/>
<text text-anchor="middle" x="1010" y="-63.5" font-family="Helvetica,sans-Serif" font-size="10.00">cstdarg</text>
</g>
<!-- Node6&#45;&gt;Node12 -->
<g id="edge11" class="edge"><title>Node6&#45;&gt;Node12</title>
<path fill="none" stroke="midnightblue" d="M1298.74,-115.427C1240.37,-108.443 1140.04,-95.2417 1044.62,-75.9215"/>
<polygon fill="midnightblue" stroke="midnightblue" points="1045.31,-72.4896 1034.81,-73.9092 1043.9,-79.3469 1045.31,-72.4896"/>
</g>
<!-- Node13 -->
<g id="node13" class="node"><title>Node13</title>
<polygon fill="none" stroke="#bfbfbf" points="1053,-56.5 1053,-75.5 1097,-75.5 1097,-56.5 1053,-56.5"/>
<text text-anchor="middle" x="1075" y="-63.5" font-family="Helvetica,sans-Serif" font-size="10.00">cmath</text>
</g>
<!-- Node6&#45;&gt;Node13 -->
<g id="edge12" class="edge"><title>Node6&#45;&gt;Node13</title>
<path fill="none" stroke="midnightblue" d="M1298.57,-113.277C1251.66,-105.619 1179,-92.909 1107.38,-76.146"/>
<polygon fill="midnightblue" stroke="midnightblue" points="1107.82,-72.6537 1097.28,-73.7539 1106.2,-79.4651 1107.82,-72.6537"/>
</g>
<!-- Node14 -->
<g id="node14" class="node"><title>Node14</title>
<polygon fill="none" stroke="#bfbfbf" points="1115,-56.5 1115,-75.5 1159,-75.5 1159,-56.5 1115,-56.5"/>
<text text-anchor="middle" x="1137" y="-63.5" font-family="Helvetica,sans-Serif" font-size="10.00">vector</text>
</g>
<!-- Node6&#45;&gt;Node14 -->
<g id="edge13" class="edge"><title>Node6&#45;&gt;Node14</title>
<path fill="none" stroke="midnightblue" d="M1312.04,-112.431C1277.69,-104.153 1224.24,-91.0304 1169.24,-76.2659"/>
<polygon fill="midnightblue" stroke="midnightblue" points="1169.89,-72.8153 1159.32,-73.5894 1168.07,-79.5736 1169.89,-72.8153"/>
</g>
<!-- Node15 -->
<g id="node15" class="node"><title>Node15</title>
<polygon fill="none" stroke="#bfbfbf" points="1177.5,-56.5 1177.5,-75.5 1212.5,-75.5 1212.5,-56.5 1177.5,-56.5"/>
<text text-anchor="middle" x="1195" y="-63.5" font-family="Helvetica,sans-Serif" font-size="10.00">map</text>
</g>
<!-- Node6&#45;&gt;Node15 -->
<g id="edge14" class="edge"><title>Node6&#45;&gt;Node15</title>
<path fill="none" stroke="midnightblue" d="M1323.76,-112.444C1296.17,-102.707 1251.22,-86.8408 1222.39,-76.6654"/>
<polygon fill="midnightblue" stroke="midnightblue" points="1223.51,-73.3508 1212.92,-73.323 1221.18,-79.9517 1223.51,-73.3508"/>
</g>
<!-- Node16 -->
<g id="node16" class="node"><title>Node16</title>
<polygon fill="none" stroke="#bfbfbf" points="1231,-56.5 1231,-75.5 1261,-75.5 1261,-56.5 1231,-56.5"/>
<text text-anchor="middle" x="1246" y="-63.5" font-family="Helvetica,sans-Serif" font-size="10.00">set</text>
</g>
<!-- Node6&#45;&gt;Node16 -->
<g id="edge16" class="edge"><title>Node6&#45;&gt;Node16</title>
<path fill="none" stroke="midnightblue" d="M1331.61,-112.324C1314.94,-103.499 1288.93,-89.7302 1269.96,-79.6827"/>
<polygon fill="midnightblue" stroke="midnightblue" points="1271.49,-76.5363 1261.02,-74.9507 1268.22,-82.7228 1271.49,-76.5363"/>
</g>
<!-- Node17 -->
<g id="node17" class="node"><title>Node17</title>
<polygon fill="none" stroke="#bfbfbf" points="1279.5,-56.5 1279.5,-75.5 1308.5,-75.5 1308.5,-56.5 1279.5,-56.5"/>
<text text-anchor="middle" x="1294" y="-63.5" font-family="Helvetica,sans-Serif" font-size="10.00">list</text>
</g>
<!-- Node6&#45;&gt;Node17 -->
<g id="edge17" class="edge"><title>Node6&#45;&gt;Node17</title>
<path fill="none" stroke="midnightblue" d="M1339.08,-112.083C1331.22,-104.22 1319.57,-92.5688 1310.08,-83.0813"/>
<polygon fill="midnightblue" stroke="midnightblue" points="1312.3,-80.3473 1302.75,-75.7511 1307.35,-85.2971 1312.3,-80.3473"/>
</g>
<!-- Node18 -->
<g id="node18" class="node"><title>Node18</title>
<polygon fill="none" stroke="#bfbfbf" points="1326.5,-56.5 1326.5,-75.5 1369.5,-75.5 1369.5,-56.5 1326.5,-56.5"/>
<text text-anchor="middle" x="1348" y="-63.5" font-family="Helvetica,sans-Serif" font-size="10.00">deque</text>
</g>
<!-- Node6&#45;&gt;Node18 -->
<g id="edge18" class="edge"><title>Node6&#45;&gt;Node18</title>
<path fill="none" stroke="midnightblue" d="M1348,-112.083C1348,-105.006 1348,-94.8611 1348,-85.9865"/>
<polygon fill="midnightblue" stroke="midnightblue" points="1351.5,-85.751 1348,-75.7511 1344.5,-85.7511 1351.5,-85.751"/>
</g>
<!-- Node19 -->
<g id="node19" class="node"><title>Node19</title>
<polygon fill="none" stroke="#bfbfbf" points="1387.5,-56.5 1387.5,-75.5 1430.5,-75.5 1430.5,-56.5 1387.5,-56.5"/>
<text text-anchor="middle" x="1409" y="-63.5" font-family="Helvetica,sans-Serif" font-size="10.00">queue</text>
</g>
<!-- Node6&#45;&gt;Node19 -->
<g id="edge19" class="edge"><title>Node6&#45;&gt;Node19</title>
<path fill="none" stroke="midnightblue" d="M1357.8,-112.324C1366.82,-104.341 1380.41,-92.3128 1391.32,-82.6529"/>
<polygon fill="midnightblue" stroke="midnightblue" points="1393.85,-85.083 1399.02,-75.8339 1389.21,-79.8416 1393.85,-85.083"/>
</g>
<!-- Node20 -->
<g id="node20" class="node"><title>Node20</title>
<polygon fill="none" stroke="#bfbfbf" points="1448.5,-56.5 1448.5,-75.5 1489.5,-75.5 1489.5,-56.5 1448.5,-56.5"/>
<text text-anchor="middle" x="1469" y="-63.5" font-family="Helvetica,sans-Serif" font-size="10.00">bitset</text>
</g>
<!-- Node6&#45;&gt;Node20 -->
<g id="edge20" class="edge"><title>Node6&#45;&gt;Node20</title>
<path fill="none" stroke="midnightblue" d="M1367.17,-112.444C1386.91,-103.636 1417.89,-89.8116 1440.49,-79.722"/>
<polygon fill="midnightblue" stroke="midnightblue" points="1442.21,-82.788 1449.92,-75.5164 1439.36,-76.3957 1442.21,-82.788"/>
</g>
<!-- Node21 -->
<g id="node21" class="node"><title>Node21</title>
<polygon fill="none" stroke="#bfbfbf" points="1508,-56.5 1508,-75.5 1564,-75.5 1564,-56.5 1508,-56.5"/>
<text text-anchor="middle" x="1536" y="-63.5" font-family="Helvetica,sans-Serif" font-size="10.00">algorithm</text>
</g>
<!-- Node6&#45;&gt;Node21 -->
<g id="edge21" class="edge"><title>Node6&#45;&gt;Node21</title>
<path fill="none" stroke="midnightblue" d="M1377.79,-112.444C1410.3,-103.105 1462.44,-88.1287 1497.91,-77.9421"/>
<polygon fill="midnightblue" stroke="midnightblue" points="1499.24,-81.2002 1507.89,-75.0755 1497.31,-74.4723 1499.24,-81.2002"/>
</g>
<!-- Node22 -->
<g id="node22" class="node"><title>Node22</title>
<polygon fill="none" stroke="#bfbfbf" points="1582.5,-56.5 1582.5,-75.5 1641.5,-75.5 1641.5,-56.5 1582.5,-56.5"/>
<text text-anchor="middle" x="1612" y="-63.5" font-family="Helvetica,sans-Serif" font-size="10.00">functional</text>
</g>
<!-- Node6&#45;&gt;Node22 -->
<g id="edge22" class="edge"><title>Node6&#45;&gt;Node22</title>
<path fill="none" stroke="midnightblue" d="M1392.9,-112.422C1436.25,-104.053 1503.97,-90.739 1572.15,-76.1335"/>
<polygon fill="midnightblue" stroke="midnightblue" points="1573.17,-79.4943 1582.21,-73.9696 1571.7,-72.6508 1573.17,-79.4943"/>
</g>
<!-- Node23 -->
<g id="node23" class="node"><title>Node23</title>
<polygon fill="none" stroke="#bfbfbf" points="1660,-56.5 1660,-75.5 1700,-75.5 1700,-56.5 1660,-56.5"/>
<text text-anchor="middle" x="1680" y="-63.5" font-family="Helvetica,sans-Serif" font-size="10.00">limits</text>
</g>
<!-- Node6&#45;&gt;Node23 -->
<g id="edge23" class="edge"><title>Node6&#45;&gt;Node23</title>
<path fill="none" stroke="midnightblue" d="M1397.04,-115.885C1457.12,-109.117 1561.79,-95.6963 1650,-76 1650.1,-75.9778 1650.2,-75.9554 1650.3,-75.9329"/>
<polygon fill="midnightblue" stroke="midnightblue" points="1650.96,-79.3776 1659.77,-73.4983 1649.21,-72.5979 1650.96,-79.3776"/>
</g>
<!-- Node24 -->
<g id="node24" class="node"><title>Node24</title>
<polygon fill="none" stroke="#bfbfbf" points="1718,-56.5 1718,-75.5 1768,-75.5 1768,-56.5 1718,-56.5"/>
<text text-anchor="middle" x="1743" y="-63.5" font-family="Helvetica,sans-Serif" font-size="10.00">fstream</text>
</g>
<!-- Node6&#45;&gt;Node24 -->
<g id="edge24" class="edge"><title>Node6&#45;&gt;Node24</title>
<path fill="none" stroke="midnightblue" d="M1397.09,-116.995C1464.87,-111 1591.07,-98.1694 1707.67,-76.0253"/>
<polygon fill="midnightblue" stroke="midnightblue" points="1708.68,-79.3947 1717.84,-74.0652 1707.35,-72.5212 1708.68,-79.3947"/>
</g>
<!-- Node25 -->
<g id="node25" class="node"><title>Node25</title>
<polygon fill="none" stroke="#bfbfbf" points="1786.5,-56.5 1786.5,-75.5 1831.5,-75.5 1831.5,-56.5 1786.5,-56.5"/>
<text text-anchor="middle" x="1809" y="-63.5" font-family="Helvetica,sans-Serif" font-size="10.00">iosfwd</text>
</g>
<!-- Node6&#45;&gt;Node25 -->
<g id="edge25" class="edge"><title>Node6&#45;&gt;Node25</title>
<path fill="none" stroke="midnightblue" d="M1397.29,-118.553C1475.69,-114.067 1633.63,-102.606 1776.56,-75.7478"/>
<polygon fill="midnightblue" stroke="midnightblue" points="1777.22,-79.185 1786.39,-73.872 1775.91,-72.3091 1777.22,-79.185"/>
</g>
<!-- Node26 -->
<g id="node26" class="node"><title>Node26</title>
<polygon fill="none" stroke="#bfbfbf" points="1850,-56.5 1850,-75.5 1902,-75.5 1902,-56.5 1850,-56.5"/>
<text text-anchor="middle" x="1876" y="-63.5" font-family="Helvetica,sans-Serif" font-size="10.00">sstream</text>
</g>
<!-- Node6&#45;&gt;Node26 -->
<g id="edge26" class="edge"><title>Node6&#45;&gt;Node26</title>
<path fill="none" stroke="midnightblue" d="M1397.21,-119.006C1484.4,-114.928 1671.82,-103.715 1839.74,-75.7486"/>
<polygon fill="midnightblue" stroke="midnightblue" points="1840.48,-79.1743 1849.75,-74.0573 1839.31,-72.2721 1840.48,-79.1743"/>
</g>
<!-- Node27 -->
<g id="node27" class="node"><title>Node27</title>
<polygon fill="none" stroke="#bfbfbf" points="1920,-56.5 1920,-75.5 1988,-75.5 1988,-56.5 1920,-56.5"/>
<text text-anchor="middle" x="1954" y="-63.5" font-family="Helvetica,sans-Serif" font-size="10.00">sys/types.h</text>
</g>
<!-- Node6&#45;&gt;Node27 -->
<g id="edge27" class="edge"><title>Node6&#45;&gt;Node27</title>
<path fill="none" stroke="midnightblue" d="M1397.18,-119.164C1493.64,-115.109 1714.51,-103.59 1909.65,-76.0179"/>
<polygon fill="midnightblue" stroke="midnightblue" points="1910.4,-79.4462 1919.8,-74.5651 1909.41,-72.5168 1910.4,-79.4462"/>
</g>
<!-- Node28 -->
<g id="node28" class="node"><title>Node28</title>
<polygon fill="none" stroke="#bfbfbf" points="2006,-56.5 2006,-75.5 2066,-75.5 2066,-56.5 2006,-56.5"/>
<text text-anchor="middle" x="2036" y="-63.5" font-family="Helvetica,sans-Serif" font-size="10.00">sys/stat.h</text>
</g>
<!-- Node6&#45;&gt;Node28 -->
<g id="edge28" class="edge"><title>Node6&#45;&gt;Node28</title>
<path fill="none" stroke="midnightblue" d="M1397.13,-120.23C1504.25,-117.985 1766.86,-109.402 1995.67,-75.9586"/>
<polygon fill="midnightblue" stroke="midnightblue" points="1996.48,-79.3779 2005.86,-74.4505 1995.45,-72.4535 1996.48,-79.3779"/>
</g>
<!-- Node29 -->
<g id="node29" class="node"><title>Node29</title>
<polygon fill="none" stroke="#bfbfbf" points="2084.5,-56.5 2084.5,-75.5 2135.5,-75.5 2135.5,-56.5 2084.5,-56.5"/>
<text text-anchor="middle" x="2110" y="-63.5" font-family="Helvetica,sans-Serif" font-size="10.00">unistd.h</text>
</g>
<!-- Node6&#45;&gt;Node29 -->
<g id="edge29" class="edge"><title>Node6&#45;&gt;Node29</title>
<path fill="none" stroke="midnightblue" d="M1397.28,-121.162C1513.66,-120.858 1814.61,-116.052 2074.13,-75.8084"/>
<polygon fill="midnightblue" stroke="midnightblue" points="2074.79,-79.2485 2084.12,-74.2383 2073.7,-72.3334 2074.79,-79.2485"/>
</g>
<!-- Node30 -->
<g id="node30" class="node"><title>Node30</title>
<polygon fill="none" stroke="#bfbfbf" points="2154,-56.5 2154,-75.5 2200,-75.5 2200,-56.5 2154,-56.5"/>
<text text-anchor="middle" x="2177" y="-63.5" font-family="Helvetica,sans-Serif" font-size="10.00">dlfcn.h</text>
</g>
<!-- Node6&#45;&gt;Node30 -->
<g id="edge30" class="edge"><title>Node6&#45;&gt;Node30</title>
<path fill="none" stroke="midnightblue" d="M1397.1,-119.574C1544.19,-115.094 1980.61,-100.227 2143.81,-75.5671"/>
<polygon fill="midnightblue" stroke="midnightblue" points="2144.37,-79.0229 2153.7,-74.0053 2143.27,-72.1087 2144.37,-79.0229"/>
</g>
<!-- Node31 -->
<g id="node31" class="node"><title>Node31</title>
<polygon fill="none" stroke="#bfbfbf" points="2218,-56.5 2218,-75.5 2296,-75.5 2296,-56.5 2218,-56.5"/>
<text text-anchor="middle" x="2257" y="-63.5" font-family="Helvetica,sans-Serif" font-size="10.00">ext/hash_map</text>
</g>
<!-- Node6&#45;&gt;Node31 -->
<g id="edge31" class="edge"><title>Node6&#45;&gt;Node31</title>
<path fill="none" stroke="midnightblue" d="M1397.22,-120.716C1527.76,-119.475 1893.73,-112.818 2207.57,-76.0052"/>
<polygon fill="midnightblue" stroke="midnightblue" points="2208.25,-79.4484 2217.77,-74.7952 2207.43,-72.4971 2208.25,-79.4484"/>
</g>
<!-- Node32 -->
<g id="node32" class="node"><title>Node32</title>
<polygon fill="none" stroke="#bfbfbf" points="2314.5,-56.5 2314.5,-75.5 2387.5,-75.5 2387.5,-56.5 2314.5,-56.5"/>
<text text-anchor="middle" x="2351" y="-63.5" font-family="Helvetica,sans-Serif" font-size="10.00">ext/hash_set</text>
</g>
<!-- Node6&#45;&gt;Node32 -->
<g id="edge32" class="edge"><title>Node6&#45;&gt;Node32</title>
<path fill="none" stroke="midnightblue" d="M1397.01,-121.218C1537.06,-121.303 1951.06,-117.817 2304.25,-75.8781"/>
<polygon fill="midnightblue" stroke="midnightblue" points="2304.91,-79.3245 2314.42,-74.658 2304.07,-72.3744 2304.91,-79.3245"/>
</g>
<!-- Node33 -->
<g id="node33" class="node"><title>Node33</title>
<polygon fill="none" stroke="#bfbfbf" points="255.5,-56.5 255.5,-75.5 326.5,-75.5 326.5,-56.5 255.5,-56.5"/>
<text text-anchor="middle" x="291" y="-63.5" font-family="Helvetica,sans-Serif" font-size="10.00">sys/param.h</text>
</g>
<!-- Node6&#45;&gt;Node33 -->
<g id="edge33" class="edge"><title>Node6&#45;&gt;Node33</title>
<path fill="none" stroke="midnightblue" d="M1298.81,-121.47C1153.22,-122.295 711.787,-120.735 336.742,-75.8731"/>
<polygon fill="midnightblue" stroke="midnightblue" points="337.129,-72.3945 326.782,-74.6695 336.289,-79.344 337.129,-72.3945"/>
</g>
<!-- Node34 -->
<g id="node34" class="node"><title>Node34</title>
<polygon fill="none" stroke="#bfbfbf" points="345,-56.5 345,-75.5 511,-75.5 511,-56.5 345,-56.5"/>
<text text-anchor="middle" x="428" y="-63.5" font-family="Helvetica,sans-Serif" font-size="10.00">CoreFoundation/CoreFoundation.h</text>
</g>
<!-- Node6&#45;&gt;Node34 -->
<g id="edge34" class="edge"><title>Node6&#45;&gt;Node34</title>
<path fill="none" stroke="midnightblue" d="M1298.96,-119.075C1172.23,-113.944 823.304,-98.8068 521.496,-76.082"/>
<polygon fill="midnightblue" stroke="midnightblue" points="521.466,-72.5699 511.231,-75.3048 520.938,-79.5499 521.466,-72.5699"/>
</g>
<!-- Node35 -->
<g id="node35" class="node"><title>Node35</title>
<polygon fill="none" stroke="#bfbfbf" points="529,-56.5 529,-75.5 653,-75.5 653,-56.5 529,-56.5"/>
<text text-anchor="middle" x="591" y="-63.5" font-family="Helvetica,sans-Serif" font-size="10.00">emscripten/emscripten.h</text>
</g>
<!-- Node6&#45;&gt;Node35 -->
<g id="edge35" class="edge"><title>Node6&#45;&gt;Node35</title>
<path fill="none" stroke="midnightblue" d="M1298.77,-118.832C1187.38,-113.701 907.329,-99.5185 663.315,-76.1765"/>
<polygon fill="midnightblue" stroke="midnightblue" points="663.479,-72.6762 653.19,-75.2006 662.808,-79.6439 663.479,-72.6762"/>
</g>
<!-- Node37 -->
<g id="node37" class="node"><title>Node37</title>
<g id="a_node37"><a xlink:href="_ogre_memory_allocated_object_8h.html" target="_top" xlink:title="OgreMemoryAllocatedObject.h">
<polygon fill="none" stroke="black" points="2444,-56.5 2444,-75.5 2594,-75.5 2594,-56.5 2444,-56.5"/>
<text text-anchor="middle" x="2519" y="-63.5" font-family="Helvetica,sans-Serif" font-size="10.00">OgreMemoryAllocatedObject.h</text>
</a>
</g>
</g>
<!-- Node36&#45;&gt;Node37 -->
<g id="edge37" class="edge"><title>Node36&#45;&gt;Node37</title>
<path fill="none" stroke="midnightblue" d="M2684.78,-112.444C2651.07,-103.201 2597.2,-88.4356 2560.07,-78.2572"/>
<polygon fill="midnightblue" stroke="midnightblue" points="2560.64,-74.7846 2550.07,-75.5164 2558.79,-81.5356 2560.64,-74.7846"/>
</g>
<!-- Node36&#45;&gt;Node38 -->
<g id="edge41" class="edge"><title>Node36&#45;&gt;Node38</title>
<path fill="none" stroke="midnightblue" d="M2729.85,-112.308C2755.3,-96.4659 2808.72,-63.8067 2829,-56 2876.46,-37.7264 2933.02,-26.0938 2975.17,-19.2438"/>
<polygon fill="midnightblue" stroke="midnightblue" points="2975.96,-22.6628 2985.29,-17.6458 2974.87,-15.7485 2975.96,-22.6628"/>
</g>
<!-- Node36&#45;&gt;Node39 -->
<g id="edge49" class="edge"><title>Node36&#45;&gt;Node39</title>
<path fill="none" stroke="midnightblue" d="M2701.45,-112.444C2680.01,-99.8777 2638.62,-75.7771 2603,-56 2583.53,-45.1904 2561.32,-33.3091 2544.63,-24.4706"/>
<polygon fill="midnightblue" stroke="midnightblue" points="2545.97,-21.2249 2535.5,-19.6494 2542.71,-27.4146 2545.97,-21.2249"/>
</g>
<!-- Node40 -->
<g id="node40" class="node"><title>Node40</title>
<g id="a_node40"><a xlink:href="_ogre_memory_s_t_l_allocator_8h.html" target="_top" xlink:title="OgreMemorySTLAllocator.h">
<polygon fill="none" stroke="black" points="2838.5,-56.5 2838.5,-75.5 2975.5,-75.5 2975.5,-56.5 2838.5,-56.5"/>
<text text-anchor="middle" x="2907" y="-63.5" font-family="Helvetica,sans-Serif" font-size="10.00">OgreMemorySTLAllocator.h</text>
</a>
</g>
</g>
<!-- Node36&#45;&gt;Node40 -->
<g id="edge42" class="edge"><title>Node36&#45;&gt;Node40</title>
<path fill="none" stroke="midnightblue" d="M2746.26,-112.444C2778.96,-103.201 2831.18,-88.4356 2867.18,-78.2572"/>
<polygon fill="midnightblue" stroke="midnightblue" points="2868.21,-81.6051 2876.88,-75.5164 2866.3,-74.8691 2868.21,-81.6051"/>
</g>
<!-- Node41 -->
<g id="node41" class="node"><title>Node41</title>
<g id="a_node41"><a xlink:href="_ogre_memory_ned_pooling_8h.html" target="_top" xlink:title="OgreMemoryNedPooling.h">
<polygon fill="none" stroke="black" points="2650.5,-56.5 2650.5,-75.5 2781.5,-75.5 2781.5,-56.5 2650.5,-56.5"/>
<text text-anchor="middle" x="2716" y="-63.5" font-family="Helvetica,sans-Serif" font-size="10.00">OgreMemoryNedPooling.h</text>
</a>
</g>
</g>
<!-- Node36&#45;&gt;Node41 -->
<g id="edge46" class="edge"><title>Node36&#45;&gt;Node41</title>
<path fill="none" stroke="midnightblue" d="M2716,-112.083C2716,-105.006 2716,-94.8611 2716,-85.9865"/>
<polygon fill="midnightblue" stroke="midnightblue" points="2719.5,-85.751 2716,-75.7511 2712.5,-85.7511 2719.5,-85.751"/>
</g>
<!-- Node37&#45;&gt;Node2 -->
<g id="edge38" class="edge"><title>Node37&#45;&gt;Node2</title>
<path fill="none" stroke="midnightblue" d="M2533.7,-75.5152C2555.36,-88.0314 2597.16,-112.07 2633,-132 2652.4,-142.788 2674.5,-154.755 2691.02,-163.635"/>
<polygon fill="midnightblue" stroke="midnightblue" points="2689.57,-166.829 2700.03,-168.474 2692.88,-160.661 2689.57,-166.829"/>
</g>
<!-- Node37&#45;&gt;Node38 -->
<g id="edge39" class="edge"><title>Node37&#45;&gt;Node38</title>
<path fill="none" stroke="midnightblue" d="M2594.04,-57.1768C2696.98,-46.4459 2880.04,-27.3625 2975.4,-17.4219"/>
<polygon fill="midnightblue" stroke="midnightblue" points="2975.88,-20.8906 2985.46,-16.3725 2975.15,-13.9283 2975.88,-20.8906"/>
</g>
<!-- Node37&#45;&gt;Node39 -->
<g id="edge40" class="edge"><title>Node37&#45;&gt;Node39</title>
<path fill="none" stroke="midnightblue" d="M2519,-56.083C2519,-49.0059 2519,-38.8611 2519,-29.9865"/>
<polygon fill="midnightblue" stroke="midnightblue" points="2522.5,-29.751 2519,-19.7511 2515.5,-29.7511 2522.5,-29.751"/>
</g>
<!-- Node40&#45;&gt;Node2 -->
<g id="edge43" class="edge"><title>Node40&#45;&gt;Node2</title>
<path fill="none" stroke="midnightblue" d="M2893.14,-75.6161C2872.7,-88.258 2833.2,-112.451 2799,-132 2779.85,-142.948 2757.89,-154.822 2741.38,-163.623"/>
<polygon fill="midnightblue" stroke="midnightblue" points="2739.53,-160.638 2732.34,-168.419 2742.82,-166.821 2739.53,-160.638"/>
</g>
<!-- Node40&#45;&gt;Node38 -->
<g id="edge44" class="edge"><title>Node40&#45;&gt;Node38</title>
<path fill="none" stroke="midnightblue" d="M2927.6,-56.4435C2948.99,-47.5566 2982.68,-33.5632 3007.02,-23.4514"/>
<polygon fill="midnightblue" stroke="midnightblue" points="3008.61,-26.5848 3016.5,-19.5164 3005.92,-20.1203 3008.61,-26.5848"/>
</g>
<!-- Node40&#45;&gt;Node39 -->
<g id="edge45" class="edge"><title>Node40&#45;&gt;Node39</title>
<path fill="none" stroke="midnightblue" d="M2845.52,-56.4435C2772.97,-46.3461 2653.05,-29.6565 2580.49,-19.5583"/>
<polygon fill="midnightblue" stroke="midnightblue" points="2580.97,-16.0905 2570.58,-18.1785 2580,-23.0237 2580.97,-16.0905"/>
</g>
<!-- Node41&#45;&gt;Node38 -->
<g id="edge47" class="edge"><title>Node41&#45;&gt;Node38</title>
<path fill="none" stroke="midnightblue" d="M2766.86,-56.4435C2823.68,-46.8851 2915.62,-31.4195 2976.19,-21.2298"/>
<polygon fill="midnightblue" stroke="midnightblue" points="2977.09,-24.6269 2986.37,-19.5164 2975.93,-17.7239 2977.09,-24.6269"/>
</g>
<!-- Node41&#45;&gt;Node39 -->
<g id="edge48" class="edge"><title>Node41&#45;&gt;Node39</title>
<path fill="none" stroke="midnightblue" d="M2684.78,-56.4435C2651.07,-47.2011 2597.2,-32.4356 2560.07,-22.2572"/>
<polygon fill="midnightblue" stroke="midnightblue" points="2560.64,-18.7846 2550.07,-19.5164 2558.79,-25.5356 2560.64,-18.7846"/>
</g>
<!-- Node42&#45;&gt;Node2 -->
<g id="edge51" class="edge"><title>Node42&#45;&gt;Node2</title>
<path fill="none" stroke="midnightblue" d="M2855.74,-338.872C2808.09,-332.13 2742.67,-319.577 2726,-300 2701.6,-271.343 2706.37,-223.789 2711.49,-197.645"/>
<polygon fill="midnightblue" stroke="midnightblue" points="2714.98,-198.093 2713.7,-187.576 2708.14,-196.597 2714.98,-198.093"/>
</g>
<!-- Node43 -->
<g id="node43" class="node"><title>Node43</title>
<g id="a_node43"><a xlink:href="_ogre_exception_8h.html" target="_top" xlink:title="OgreException.h">
<polygon fill="none" stroke="black" points="2735.5,-280.5 2735.5,-299.5 2824.5,-299.5 2824.5,-280.5 2735.5,-280.5"/>
<text text-anchor="middle" x="2780" y="-287.5" font-family="Helvetica,sans-Serif" font-size="10.00">OgreException.h</text>
</a>
</g>
</g>
<!-- Node42&#45;&gt;Node43 -->
<g id="edge52" class="edge"><title>Node42&#45;&gt;Node43</title>
<path fill="none" stroke="midnightblue" d="M2887.72,-336.444C2866.65,-327.557 2833.48,-313.563 2809.51,-303.451"/>
<polygon fill="midnightblue" stroke="midnightblue" points="2810.76,-300.179 2800.19,-299.516 2808.04,-306.628 2810.76,-300.179"/>
</g>
<!-- Node46 -->
<g id="node46" class="node"><title>Node46</title>
<g id="a_node46"><a xlink:href="_ogre_platform_information_8h.html" target="_top" xlink:title="OgrePlatformInformation.h">
<polygon fill="none" stroke="black" points="2842.5,-280.5 2842.5,-299.5 2973.5,-299.5 2973.5,-280.5 2842.5,-280.5"/>
<text text-anchor="middle" x="2908" y="-287.5" font-family="Helvetica,sans-Serif" font-size="10.00">OgrePlatformInformation.h</text>
</a>
</g>
</g>
<!-- Node42&#45;&gt;Node46 -->
<g id="edge61" class="edge"><title>Node42&#45;&gt;Node46</title>
<path fill="none" stroke="midnightblue" d="M2908,-336.083C2908,-329.006 2908,-318.861 2908,-309.986"/>
<polygon fill="midnightblue" stroke="midnightblue" points="2911.5,-309.751 2908,-299.751 2904.5,-309.751 2911.5,-309.751"/>
</g>
<!-- Node42&#45;&gt;Node47 -->
<g id="edge63" class="edge"><title>Node42&#45;&gt;Node47</title>
<path fill="none" stroke="midnightblue" d="M2940.83,-336.499C2989.6,-322.766 3082.57,-292.26 3149,-244 3167.19,-230.786 3183.4,-210.559 3193.64,-196.181"/>
<polygon fill="midnightblue" stroke="midnightblue" points="3196.68,-197.933 3199.46,-187.71 3190.91,-193.965 3196.68,-197.933"/>
</g>
<!-- Node43&#45;&gt;Node2 -->
<g id="edge53" class="edge"><title>Node43&#45;&gt;Node2</title>
<path fill="none" stroke="midnightblue" d="M2768.39,-280.233C2758.2,-271.949 2743.67,-258.638 2735,-244 2726.48,-229.618 2721.56,-211.16 2718.87,-197.591"/>
<polygon fill="midnightblue" stroke="midnightblue" points="2722.29,-196.784 2717.11,-187.539 2715.39,-197.994 2722.29,-196.784"/>
</g>
<!-- Node43&#45;&gt;Node38 -->
<g id="edge59" class="edge"><title>Node43&#45;&gt;Node38</title>
<path fill="none" stroke="midnightblue" d="M2813.41,-280.43C2885.39,-259.821 3052.74,-199.763 3104,-76 3107.4,-67.7877 3108.18,-63.8443 3104,-56 3096.45,-41.8339 3082.24,-31.3348 3068.84,-24.0576"/>
<polygon fill="midnightblue" stroke="midnightblue" points="3070.3,-20.8724 3059.79,-19.5289 3067.17,-27.1329 3070.3,-20.8724"/>
</g>
<!-- Node43&#45;&gt;Node39 -->
<g id="edge60" class="edge"><title>Node43&#45;&gt;Node39</title>
<path fill="none" stroke="midnightblue" d="M2735.26,-288.416C2380.66,-283.645 38,-249.459 38,-179 38,-179 38,-179 38,-121 38,-84.8221 54.7723,-72.4383 87,-56 141.405,-28.2499 2084.44,-13.9001 2457.43,-11.3981"/>
<polygon fill="midnightblue" stroke="midnightblue" points="2457.52,-14.8977 2467.49,-11.331 2457.47,-7.89788 2457.52,-14.8977"/>
</g>
<!-- Node44 -->
<g id="node44" class="node"><title>Node44</title>
<g id="a_node44"><a xlink:href="_ogre_string_8h.html" target="_top" xlink:title="OgreString.h">
<polygon fill="none" stroke="black" points="2744.5,-224.5 2744.5,-243.5 2815.5,-243.5 2815.5,-224.5 2744.5,-224.5"/>
<text text-anchor="middle" x="2780" y="-231.5" font-family="Helvetica,sans-Serif" font-size="10.00">OgreString.h</text>
</a>
</g>
</g>
<!-- Node43&#45;&gt;Node44 -->
<g id="edge54" class="edge"><title>Node43&#45;&gt;Node44</title>
<path fill="none" stroke="midnightblue" d="M2780,-280.083C2780,-273.006 2780,-262.861 2780,-253.986"/>
<polygon fill="midnightblue" stroke="midnightblue" points="2783.5,-253.751 2780,-243.751 2776.5,-253.751 2783.5,-253.751"/>
</g>
<!-- Node45 -->
<g id="node45" class="node"><title>Node45</title>
<polygon fill="none" stroke="#bfbfbf" points="2833.5,-224.5 2833.5,-243.5 2892.5,-243.5 2892.5,-224.5 2833.5,-224.5"/>
<text text-anchor="middle" x="2863" y="-231.5" font-family="Helvetica,sans-Serif" font-size="10.00">exception</text>
</g>
<!-- Node43&#45;&gt;Node45 -->
<g id="edge58" class="edge"><title>Node43&#45;&gt;Node45</title>
<path fill="none" stroke="midnightblue" d="M2793.34,-280.324C2806.16,-271.979 2825.78,-259.212 2840.94,-249.352"/>
<polygon fill="midnightblue" stroke="midnightblue" points="2843.22,-252.042 2849.7,-243.655 2839.41,-246.174 2843.22,-252.042"/>
</g>
<!-- Node44&#45;&gt;Node2 -->
<g id="edge55" class="edge"><title>Node44&#45;&gt;Node2</title>
<path fill="none" stroke="midnightblue" d="M2769.72,-224.324C2760.16,-216.263 2745.72,-204.077 2734.22,-194.369"/>
<polygon fill="midnightblue" stroke="midnightblue" points="2736.37,-191.608 2726.47,-187.834 2731.86,-196.958 2736.37,-191.608"/>
</g>
<!-- Node44&#45;&gt;Node38 -->
<g id="edge56" class="edge"><title>Node44&#45;&gt;Node38</title>
<path fill="none" stroke="midnightblue" d="M2804.1,-224.487C2870.97,-200.323 3056.11,-129.596 3089,-76 3100.55,-57.1786 3079.79,-37.6682 3061.17,-24.9967"/>
<polygon fill="midnightblue" stroke="midnightblue" points="3062.93,-21.9685 3052.62,-19.5208 3059.15,-27.8626 3062.93,-21.9685"/>
</g>
<!-- Node44&#45;&gt;Node39 -->
<g id="edge57" class="edge"><title>Node44&#45;&gt;Node39</title>
<path fill="none" stroke="midnightblue" d="M2744.12,-232.328C2481.29,-227.284 849.679,-193.835 359,-132 239.997,-117.003 170.503,-169.198 95,-76 89.4046,-69.0932 88.7732,-62.3435 95,-56 137.642,-12.5591 2083.64,-10.884 2457.31,-10.9633"/>
<polygon fill="midnightblue" stroke="midnightblue" points="2457.39,-14.4632 2467.39,-10.966 2457.39,-7.46323 2457.39,-14.4632"/>
</g>
<!-- Node46&#45;&gt;Node2 -->
<g id="edge62" class="edge"><title>Node46&#45;&gt;Node2</title>
<path fill="none" stroke="midnightblue" d="M2909.92,-280.194C2912.36,-266.413 2914.77,-239.704 2901,-224 2884.81,-205.532 2825.08,-193.342 2777.82,-186.364"/>
<polygon fill="midnightblue" stroke="midnightblue" points="2778.03,-182.859 2767.64,-184.912 2777.04,-189.789 2778.03,-182.859"/>
</g>
<!-- Node48 -->
<g id="node48" class="node"><title>Node48</title>
<g id="a_node48"><a xlink:href="_ogre_thread_defines_8h.html" target="_top" xlink:title="OgreThreadDefines.h">
<polygon fill="none" stroke="red" points="3150,-112.5 3150,-131.5 3260,-131.5 3260,-112.5 3150,-112.5"/>
<text text-anchor="middle" x="3205" y="-119.5" font-family="Helvetica,sans-Serif" font-size="10.00">OgreThreadDefines.h</text>
</a>
</g>
</g>
<!-- Node47&#45;&gt;Node48 -->
<g id="edge64" class="edge"><title>Node47&#45;&gt;Node48</title>
<path fill="none" stroke="midnightblue" d="M3205,-168.083C3205,-161.006 3205,-150.861 3205,-141.986"/>
<polygon fill="midnightblue" stroke="midnightblue" points="3208.5,-141.751 3205,-131.751 3201.5,-141.751 3208.5,-141.751"/>
</g>
<!-- Node49&#45;&gt;Node2 -->
<g id="edge66" class="edge"><title>Node49&#45;&gt;Node2</title>
<path fill="none" stroke="midnightblue" d="M3029.76,-224.916C2962.21,-215.03 2848.21,-198.347 2777.8,-188.044"/>
<polygon fill="midnightblue" stroke="midnightblue" points="2778.14,-184.557 2767.74,-186.572 2777.13,-191.483 2778.14,-184.557"/>
</g>
<!-- Node49&#45;&gt;Node38 -->
<g id="edge71" class="edge"><title>Node49&#45;&gt;Node38</title>
<path fill="none" stroke="midnightblue" d="M3088.79,-224.419C3097.61,-204.511 3120.36,-153.7 3141,-112 3149.02,-95.7852 3155.65,-93.561 3160,-76 3162.14,-67.3719 3165.09,-63.2856 3160,-56 3145.92,-35.8603 3121.81,-24.705 3098.65,-18.5377"/>
<polygon fill="midnightblue" stroke="midnightblue" points="3099.35,-15.1071 3088.81,-16.1884 3097.73,-21.9156 3099.35,-15.1071"/>
</g>
<!-- Node49&#45;&gt;Node39 -->
<g id="edge72" class="edge"><title>Node49&#45;&gt;Node39</title>
<path fill="none" stroke="midnightblue" d="M3043.25,-224.429C2902.61,-195.364 2453.89,-100.97 2435,-76 2417.89,-53.3743 2451.68,-34.4674 2481.38,-22.9813"/>
<polygon fill="midnightblue" stroke="midnightblue" points="2482.62,-26.2516 2490.8,-19.5175 2480.21,-19.6811 2482.62,-26.2516"/>
</g>
<!-- Node49&#45;&gt;Node47 -->
<g id="edge70" class="edge"><title>Node49&#45;&gt;Node47</title>
<path fill="none" stroke="midnightblue" d="M3104.01,-224.444C3123.59,-215.636 3154.31,-201.812 3176.73,-191.722"/>
<polygon fill="midnightblue" stroke="midnightblue" points="3178.39,-194.812 3186.07,-187.516 3175.52,-188.428 3178.39,-194.812"/>
</g>
<!-- Node50 -->
<g id="node50" class="node"><title>Node50</title>
<g id="a_node50"><a xlink:href="_ogre_common_8h.html" target="_top" xlink:title="OgreCommon.h">
<polygon fill="none" stroke="black" points="2994,-56.5 2994,-75.5 3080,-75.5 3080,-56.5 2994,-56.5"/>
<text text-anchor="middle" x="3037" y="-63.5" font-family="Helvetica,sans-Serif" font-size="10.00">OgreCommon.h</text>
</a>
</g>
</g>
<!-- Node49&#45;&gt;Node50 -->
<g id="edge67" class="edge"><title>Node49&#45;&gt;Node50</title>
<path fill="none" stroke="midnightblue" d="M3082.42,-224.075C3074.86,-197.945 3052.68,-121.211 3042.37,-85.577"/>
<polygon fill="midnightblue" stroke="midnightblue" points="3045.62,-84.2023 3039.48,-75.5681 3038.89,-86.1468 3045.62,-84.2023"/>
</g>
<!-- Node50&#45;&gt;Node38 -->
<g id="edge68" class="edge"><title>Node50&#45;&gt;Node38</title>
<path fill="none" stroke="midnightblue" d="M3037,-56.083C3037,-49.0059 3037,-38.8611 3037,-29.9865"/>
<polygon fill="midnightblue" stroke="midnightblue" points="3040.5,-29.751 3037,-19.7511 3033.5,-29.7511 3040.5,-29.751"/>
</g>
<!-- Node50&#45;&gt;Node39 -->
<g id="edge69" class="edge"><title>Node50&#45;&gt;Node39</title>
<path fill="none" stroke="midnightblue" d="M2993.94,-57.4224C2990.58,-56.9124 2987.24,-56.431 2984,-56 2840.16,-36.8518 2670.25,-22.4884 2580.97,-15.5747"/>
<polygon fill="midnightblue" stroke="midnightblue" points="2580.99,-12.0659 2570.75,-14.7886 2580.45,-19.0453 2580.99,-12.0659"/>
</g>
</g>
</svg>
