<?xml version="1.0" encoding="UTF-8" standalone="no"?>
<!DOCTYPE svg PUBLIC "-//W3C//DTD SVG 1.1//EN"
 "http://www.w3.org/Graphics/SVG/1.1/DTD/svg11.dtd">
<!-- Generated by graphviz version 2.38.0 (20140413.2041)
 -->
<!-- Title: OgreShaderProgramSet.h Pages: 1 -->
<svg width="2438pt" height="420pt"
 viewBox="0.00 0.00 2438.00 420.00" xmlns="http://www.w3.org/2000/svg" xmlns:xlink="http://www.w3.org/1999/xlink">
<g id="graph0" class="graph" transform="scale(1 1) rotate(0) translate(4 416)">
<title>OgreShaderProgramSet.h</title>
<!-- Node1 -->
<g id="node1" class="node"><title>Node1</title>
<polygon fill="#bfbfbf" stroke="black" points="400,-392.5 400,-411.5 528,-411.5 528,-392.5 400,-392.5"/>
<text text-anchor="middle" x="464" y="-399.5" font-family="Helvetica,sans-Serif" font-size="10.00">OgreShaderProgramSet.h</text>
</g>
<!-- Node2 -->
<g id="node2" class="node"><title>Node2</title>
<g id="a_node2"><a xlink:href="_ogre_shader_prerequisites_8h.html" target="_top" xlink:title="OgreShaderPrerequisites.h">
<polygon fill="none" stroke="black" points="232,-168.5 232,-187.5 366,-187.5 366,-168.5 232,-168.5"/>
<text text-anchor="middle" x="299" y="-175.5" font-family="Helvetica,sans-Serif" font-size="10.00">OgreShaderPrerequisites.h</text>
</a>
</g>
</g>
<!-- Node1&#45;&gt;Node2 -->
<g id="edge1" class="edge"><title>Node1&#45;&gt;Node2</title>
<path fill="none" stroke="midnightblue" d="M457.188,-392.223C438.821,-368.514 386.837,-301.114 345,-244 333.298,-228.026 320.291,-209.579 311.102,-196.427"/>
<polygon fill="midnightblue" stroke="midnightblue" points="313.747,-194.101 305.159,-187.897 308.004,-198.103 313.747,-194.101"/>
</g>
<!-- Node38 -->
<g id="node38" class="node"><title>Node38</title>
<g id="a_node38"><a xlink:href="_ogre_gpu_program_8h.html" target="_top" xlink:title="OgreGpuProgram.h">
<polygon fill="none" stroke="black" points="839.5,-336.5 839.5,-355.5 940.5,-355.5 940.5,-336.5 839.5,-336.5"/>
<text text-anchor="middle" x="890" y="-343.5" font-family="Helvetica,sans-Serif" font-size="10.00">OgreGpuProgram.h</text>
</a>
</g>
</g>
<!-- Node1&#45;&gt;Node38 -->
<g id="edge40" class="edge"><title>Node1&#45;&gt;Node38</title>
<path fill="none" stroke="midnightblue" d="M528.238,-392.857C609.654,-382.537 748.988,-364.875 828.888,-354.747"/>
<polygon fill="midnightblue" stroke="midnightblue" points="829.799,-358.159 839.28,-353.429 828.919,-351.215 829.799,-358.159"/>
</g>
<!-- Node3 -->
<g id="node3" class="node"><title>Node3</title>
<g id="a_node3"><a xlink:href="_ogre_prerequisites_8h.html" target="_top" xlink:title="OgrePrerequisites.h">
<polygon fill="none" stroke="black" points="882.5,-112.5 882.5,-131.5 985.5,-131.5 985.5,-112.5 882.5,-112.5"/>
<text text-anchor="middle" x="934" y="-119.5" font-family="Helvetica,sans-Serif" font-size="10.00">OgrePrerequisites.h</text>
</a>
</g>
</g>
<!-- Node2&#45;&gt;Node3 -->
<g id="edge2" class="edge"><title>Node2&#45;&gt;Node3</title>
<path fill="none" stroke="midnightblue" d="M366.055,-171.298C489.812,-160.773 752.382,-138.445 872.136,-128.261"/>
<polygon fill="midnightblue" stroke="midnightblue" points="872.569,-131.737 882.236,-127.402 871.976,-124.762 872.569,-131.737"/>
</g>
<!-- Node37 -->
<g id="node37" class="node"><title>Node37</title>
<g id="a_node37"><a xlink:href="_ogre_common_8h.html" target="_top" xlink:title="OgreCommon.h">
<polygon fill="none" stroke="black" points="185,-112.5 185,-131.5 271,-131.5 271,-112.5 185,-112.5"/>
<text text-anchor="middle" x="228" y="-119.5" font-family="Helvetica,sans-Serif" font-size="10.00">OgreCommon.h</text>
</a>
</g>
</g>
<!-- Node2&#45;&gt;Node37 -->
<g id="edge37" class="edge"><title>Node2&#45;&gt;Node37</title>
<path fill="none" stroke="midnightblue" d="M287.593,-168.324C276.891,-160.185 260.659,-147.839 247.837,-138.087"/>
<polygon fill="midnightblue" stroke="midnightblue" points="249.693,-135.102 239.615,-131.834 245.456,-140.673 249.693,-135.102"/>
</g>
<!-- Node4 -->
<g id="node4" class="node"><title>Node4</title>
<g id="a_node4"><a xlink:href="_ogre_platform_8h.html" target="_top" xlink:title="OgrePlatform.h">
<polygon fill="none" stroke="black" points="2169.5,-56.5 2169.5,-75.5 2252.5,-75.5 2252.5,-56.5 2169.5,-56.5"/>
<text text-anchor="middle" x="2211" y="-63.5" font-family="Helvetica,sans-Serif" font-size="10.00">OgrePlatform.h</text>
</a>
</g>
</g>
<!-- Node3&#45;&gt;Node4 -->
<g id="edge3" class="edge"><title>Node3&#45;&gt;Node4</title>
<path fill="none" stroke="midnightblue" d="M985.642,-118.816C1191.57,-110.108 1952.92,-77.9135 2159.17,-69.1915"/>
<polygon fill="midnightblue" stroke="midnightblue" points="2159.58,-72.6776 2169.42,-68.7581 2159.29,-65.6838 2159.58,-72.6776"/>
</g>
<!-- Node6 -->
<g id="node6" class="node"><title>Node6</title>
<polygon fill="none" stroke="#bfbfbf" points="2296.5,-0.5 2296.5,-19.5 2337.5,-19.5 2337.5,-0.5 2296.5,-0.5"/>
<text text-anchor="middle" x="2317" y="-7.5" font-family="Helvetica,sans-Serif" font-size="10.00">string</text>
</g>
<!-- Node3&#45;&gt;Node6 -->
<g id="edge5" class="edge"><title>Node3&#45;&gt;Node6</title>
<path fill="none" stroke="midnightblue" d="M985.504,-121.155C1164.82,-120.856 1777.97,-112.795 2286.38,-19.6588"/>
<polygon fill="midnightblue" stroke="midnightblue" points="2287.29,-23.0504 2296.49,-17.7935 2286.02,-16.1667 2287.29,-23.0504"/>
</g>
<!-- Node7 -->
<g id="node7" class="node"><title>Node7</title>
<g id="a_node7"><a xlink:href="_ogre_std_headers_8h.html" target="_top" xlink:title="OgreStdHeaders.h">
<polygon fill="none" stroke="red" points="1376,-56.5 1376,-75.5 1474,-75.5 1474,-56.5 1376,-56.5"/>
<text text-anchor="middle" x="1425" y="-63.5" font-family="Helvetica,sans-Serif" font-size="10.00">OgreStdHeaders.h</text>
</a>
</g>
</g>
<!-- Node3&#45;&gt;Node7 -->
<g id="edge6" class="edge"><title>Node3&#45;&gt;Node7</title>
<path fill="none" stroke="midnightblue" d="M985.618,-115.323C1077.43,-105.225 1268.59,-84.2021 1365.67,-73.5252"/>
<polygon fill="midnightblue" stroke="midnightblue" points="1366.34,-76.9726 1375.9,-72.4003 1365.57,-70.0146 1366.34,-76.9726"/>
</g>
<!-- Node34 -->
<g id="node34" class="node"><title>Node34</title>
<g id="a_node34"><a xlink:href="_ogre_memory_allocator_config_8h.html" target="_top" xlink:title="This file configures Ogre&#39;s memory allocators. ">
<polygon fill="none" stroke="red" points="316,-56.5 316,-75.5 464,-75.5 464,-56.5 316,-56.5"/>
<text text-anchor="middle" x="390" y="-63.5" font-family="Helvetica,sans-Serif" font-size="10.00">OgreMemoryAllocatorConfig.h</text>
</a>
</g>
</g>
<!-- Node3&#45;&gt;Node34 -->
<g id="edge34" class="edge"><title>Node3&#45;&gt;Node34</title>
<path fill="none" stroke="midnightblue" d="M882.331,-115.871C788.234,-106.531 588.137,-86.668 474.13,-75.3512"/>
<polygon fill="midnightblue" stroke="midnightblue" points="474.345,-71.8554 464.048,-74.3504 473.654,-78.8211 474.345,-71.8554"/>
</g>
<!-- Node5 -->
<g id="node5" class="node"><title>Node5</title>
<g id="a_node5"><a xlink:href="_ogre_config_8h.html" target="_top" xlink:title="OgreConfig.h">
<polygon fill="none" stroke="red" points="2356,-0.5 2356,-19.5 2430,-19.5 2430,-0.5 2356,-0.5"/>
<text text-anchor="middle" x="2393" y="-7.5" font-family="Helvetica,sans-Serif" font-size="10.00">OgreConfig.h</text>
</a>
</g>
</g>
<!-- Node4&#45;&gt;Node5 -->
<g id="edge4" class="edge"><title>Node4&#45;&gt;Node5</title>
<path fill="none" stroke="midnightblue" d="M2239.84,-56.4435C2270.86,-47.2406 2320.33,-32.5617 2354.62,-22.3879"/>
<polygon fill="midnightblue" stroke="midnightblue" points="2355.71,-25.7164 2364.3,-19.5164 2353.71,-19.0055 2355.71,-25.7164"/>
</g>
<!-- Node7&#45;&gt;Node6 -->
<g id="edge16" class="edge"><title>Node7&#45;&gt;Node6</title>
<path fill="none" stroke="midnightblue" d="M1474.24,-63.9773C1629.78,-60.508 2110.24,-47.906 2286.58,-19.5264"/>
<polygon fill="midnightblue" stroke="midnightblue" points="2287.22,-22.9678 2296.5,-17.8558 2286.06,-16.065 2287.22,-22.9678"/>
</g>
<!-- Node8 -->
<g id="node8" class="node"><title>Node8</title>
<polygon fill="none" stroke="#bfbfbf" points="1687.5,-0.5 1687.5,-19.5 1736.5,-19.5 1736.5,-0.5 1687.5,-0.5"/>
<text text-anchor="middle" x="1712" y="-7.5" font-family="Helvetica,sans-Serif" font-size="10.00">cassert</text>
</g>
<!-- Node7&#45;&gt;Node8 -->
<g id="edge7" class="edge"><title>Node7&#45;&gt;Node8</title>
<path fill="none" stroke="midnightblue" d="M1474.43,-57.6067C1523.6,-49.9476 1601.39,-37.0122 1677.02,-20.2988"/>
<polygon fill="midnightblue" stroke="midnightblue" points="1678.2,-23.6224 1687.19,-18.0249 1676.67,-16.791 1678.2,-23.6224"/>
</g>
<!-- Node9 -->
<g id="node9" class="node"><title>Node9</title>
<polygon fill="none" stroke="#bfbfbf" points="1754.5,-0.5 1754.5,-19.5 1797.5,-19.5 1797.5,-0.5 1754.5,-0.5"/>
<text text-anchor="middle" x="1776" y="-7.5" font-family="Helvetica,sans-Serif" font-size="10.00">cstdio</text>
</g>
<!-- Node7&#45;&gt;Node9 -->
<g id="edge8" class="edge"><title>Node7&#45;&gt;Node9</title>
<path fill="none" stroke="midnightblue" d="M1474.08,-60.4651C1535.37,-54.2855 1643.5,-41.6819 1744.42,-20.0743"/>
<polygon fill="midnightblue" stroke="midnightblue" points="1745.45,-23.4325 1754.47,-17.8857 1743.96,-16.5926 1745.45,-23.4325"/>
</g>
<!-- Node10 -->
<g id="node10" class="node"><title>Node10</title>
<polygon fill="none" stroke="#bfbfbf" points="1815.5,-0.5 1815.5,-19.5 1860.5,-19.5 1860.5,-0.5 1815.5,-0.5"/>
<text text-anchor="middle" x="1838" y="-7.5" font-family="Helvetica,sans-Serif" font-size="10.00">cstdlib</text>
</g>
<!-- Node7&#45;&gt;Node10 -->
<g id="edge9" class="edge"><title>Node7&#45;&gt;Node10</title>
<path fill="none" stroke="midnightblue" d="M1474.25,-61.8122C1545.48,-56.6297 1681.45,-44.5926 1805.38,-20.0452"/>
<polygon fill="midnightblue" stroke="midnightblue" points="1806.31,-23.4286 1815.42,-18.0232 1804.93,-16.5664 1806.31,-23.4286"/>
</g>
<!-- Node11 -->
<g id="node11" class="node"><title>Node11</title>
<polygon fill="none" stroke="#bfbfbf" points="1878.5,-0.5 1878.5,-19.5 1919.5,-19.5 1919.5,-0.5 1878.5,-0.5"/>
<text text-anchor="middle" x="1899" y="-7.5" font-family="Helvetica,sans-Serif" font-size="10.00">ctime</text>
</g>
<!-- Node7&#45;&gt;Node11 -->
<g id="edge10" class="edge"><title>Node7&#45;&gt;Node11</title>
<path fill="none" stroke="midnightblue" d="M1474.21,-63.2391C1554.92,-59.6528 1720.44,-49.368 1868.07,-20.0465"/>
<polygon fill="midnightblue" stroke="midnightblue" points="1869.11,-23.4073 1878.22,-17.995 1867.73,-16.5462 1869.11,-23.4073"/>
</g>
<!-- Node12 -->
<g id="node12" class="node"><title>Node12</title>
<polygon fill="none" stroke="#bfbfbf" points="1938,-0.5 1938,-19.5 1984,-19.5 1984,-0.5 1938,-0.5"/>
<text text-anchor="middle" x="1961" y="-7.5" font-family="Helvetica,sans-Serif" font-size="10.00">cstring</text>
</g>
<!-- Node7&#45;&gt;Node12 -->
<g id="edge11" class="edge"><title>Node7&#45;&gt;Node12</title>
<path fill="none" stroke="midnightblue" d="M1474.06,-63.6311C1562.92,-60.4995 1756.42,-50.6883 1927.75,-19.9081"/>
<polygon fill="midnightblue" stroke="midnightblue" points="1928.49,-23.3305 1937.7,-18.0917 1927.23,-16.4442 1928.49,-23.3305"/>
</g>
<!-- Node13 -->
<g id="node13" class="node"><title>Node13</title>
<polygon fill="none" stroke="#bfbfbf" points="2002.5,-0.5 2002.5,-19.5 2051.5,-19.5 2051.5,-0.5 2002.5,-0.5"/>
<text text-anchor="middle" x="2027" y="-7.5" font-family="Helvetica,sans-Serif" font-size="10.00">cstdarg</text>
</g>
<!-- Node7&#45;&gt;Node13 -->
<g id="edge12" class="edge"><title>Node7&#45;&gt;Node13</title>
<path fill="none" stroke="midnightblue" d="M1474.37,-64.0665C1571.77,-61.5822 1795.5,-52.6886 1992.29,-19.7937"/>
<polygon fill="midnightblue" stroke="midnightblue" points="1992.96,-23.2304 2002.23,-18.1071 1991.79,-16.3289 1992.96,-23.2304"/>
</g>
<!-- Node14 -->
<g id="node14" class="node"><title>Node14</title>
<polygon fill="none" stroke="#bfbfbf" points="2070,-0.5 2070,-19.5 2114,-19.5 2114,-0.5 2070,-0.5"/>
<text text-anchor="middle" x="2092" y="-7.5" font-family="Helvetica,sans-Serif" font-size="10.00">cmath</text>
</g>
<!-- Node7&#45;&gt;Node14 -->
<g id="edge13" class="edge"><title>Node7&#45;&gt;Node14</title>
<path fill="none" stroke="midnightblue" d="M1474.11,-65.0514C1579.88,-64.4054 1837.01,-58.7698 2059.87,-19.8208"/>
<polygon fill="midnightblue" stroke="midnightblue" points="2060.55,-23.2547 2069.78,-18.0615 2059.33,-16.3624 2060.55,-23.2547"/>
</g>
<!-- Node15 -->
<g id="node15" class="node"><title>Node15</title>
<polygon fill="none" stroke="#bfbfbf" points="2132,-0.5 2132,-19.5 2176,-19.5 2176,-0.5 2132,-0.5"/>
<text text-anchor="middle" x="2154" y="-7.5" font-family="Helvetica,sans-Serif" font-size="10.00">vector</text>
</g>
<!-- Node7&#45;&gt;Node15 -->
<g id="edge14" class="edge"><title>Node7&#45;&gt;Node15</title>
<path fill="none" stroke="midnightblue" d="M1474.09,-65.4935C1587.16,-65.8474 1874.57,-62.2763 2121.9,-19.8019"/>
<polygon fill="midnightblue" stroke="midnightblue" points="2122.54,-23.2433 2131.79,-18.0786 2121.33,-16.3472 2122.54,-23.2433"/>
</g>
<!-- Node16 -->
<g id="node16" class="node"><title>Node16</title>
<polygon fill="none" stroke="#bfbfbf" points="2194.5,-0.5 2194.5,-19.5 2229.5,-19.5 2229.5,-0.5 2194.5,-0.5"/>
<text text-anchor="middle" x="2212" y="-7.5" font-family="Helvetica,sans-Serif" font-size="10.00">map</text>
</g>
<!-- Node7&#45;&gt;Node16 -->
<g id="edge15" class="edge"><title>Node7&#45;&gt;Node16</title>
<path fill="none" stroke="midnightblue" d="M1474.24,-63.7713C1616.79,-59.9538 2028.91,-47.0117 2184.17,-19.5029"/>
<polygon fill="midnightblue" stroke="midnightblue" points="2185.27,-22.8582 2194.46,-17.5836 2183.99,-15.9769 2185.27,-22.8582"/>
</g>
<!-- Node17 -->
<g id="node17" class="node"><title>Node17</title>
<polygon fill="none" stroke="#bfbfbf" points="2248,-0.5 2248,-19.5 2278,-19.5 2278,-0.5 2248,-0.5"/>
<text text-anchor="middle" x="2263" y="-7.5" font-family="Helvetica,sans-Serif" font-size="10.00">set</text>
</g>
<!-- Node7&#45;&gt;Node17 -->
<g id="edge17" class="edge"><title>Node7&#45;&gt;Node17</title>
<path fill="none" stroke="midnightblue" d="M1474.23,-64.2303C1623.89,-61.59 2072.73,-51.3743 2237.97,-19.4594"/>
<polygon fill="midnightblue" stroke="midnightblue" points="2238.87,-22.8484 2247.97,-17.4261 2237.47,-15.9887 2238.87,-22.8484"/>
</g>
<!-- Node18 -->
<g id="node18" class="node"><title>Node18</title>
<polygon fill="none" stroke="#bfbfbf" points="561.5,-0.5 561.5,-19.5 590.5,-19.5 590.5,-0.5 561.5,-0.5"/>
<text text-anchor="middle" x="576" y="-7.5" font-family="Helvetica,sans-Serif" font-size="10.00">list</text>
</g>
<!-- Node7&#45;&gt;Node18 -->
<g id="edge18" class="edge"><title>Node7&#45;&gt;Node18</title>
<path fill="none" stroke="midnightblue" d="M1375.81,-61.0063C1354.37,-59.3369 1328.95,-57.4521 1306,-56 995.372,-36.348 908.451,-85.1147 600.974,-19.7883"/>
<polygon fill="midnightblue" stroke="midnightblue" points="601.391,-16.2981 590.879,-17.6196 599.921,-23.142 601.391,-16.2981"/>
</g>
<!-- Node19 -->
<g id="node19" class="node"><title>Node19</title>
<polygon fill="none" stroke="#bfbfbf" points="608.5,-0.5 608.5,-19.5 651.5,-19.5 651.5,-0.5 608.5,-0.5"/>
<text text-anchor="middle" x="630" y="-7.5" font-family="Helvetica,sans-Serif" font-size="10.00">deque</text>
</g>
<!-- Node7&#45;&gt;Node19 -->
<g id="edge19" class="edge"><title>Node7&#45;&gt;Node19</title>
<path fill="none" stroke="midnightblue" d="M1375.8,-61.0593C1354.37,-59.3993 1328.95,-57.5071 1306,-56 1022.42,-37.3769 945.042,-68.9044 661.969,-19.9671"/>
<polygon fill="midnightblue" stroke="midnightblue" points="662.265,-16.4658 651.812,-18.1921 661.06,-23.3613 662.265,-16.4658"/>
</g>
<!-- Node20 -->
<g id="node20" class="node"><title>Node20</title>
<polygon fill="none" stroke="#bfbfbf" points="669.5,-0.5 669.5,-19.5 712.5,-19.5 712.5,-0.5 669.5,-0.5"/>
<text text-anchor="middle" x="691" y="-7.5" font-family="Helvetica,sans-Serif" font-size="10.00">queue</text>
</g>
<!-- Node7&#45;&gt;Node20 -->
<g id="edge20" class="edge"><title>Node7&#45;&gt;Node20</title>
<path fill="none" stroke="midnightblue" d="M1375.8,-61.1232C1354.36,-59.4745 1328.94,-57.5735 1306,-56 1049.42,-38.4033 979.221,-65.0357 722.799,-19.952"/>
<polygon fill="midnightblue" stroke="midnightblue" points="723.273,-16.4813 712.814,-18.177 722.047,-23.3733 723.273,-16.4813"/>
</g>
<!-- Node21 -->
<g id="node21" class="node"><title>Node21</title>
<polygon fill="none" stroke="#bfbfbf" points="730.5,-0.5 730.5,-19.5 771.5,-19.5 771.5,-0.5 730.5,-0.5"/>
<text text-anchor="middle" x="751" y="-7.5" font-family="Helvetica,sans-Serif" font-size="10.00">bitset</text>
</g>
<!-- Node7&#45;&gt;Node21 -->
<g id="edge21" class="edge"><title>Node7&#45;&gt;Node21</title>
<path fill="none" stroke="midnightblue" d="M1375.79,-61.2005C1354.36,-59.5655 1328.94,-57.6538 1306,-56 1076.03,-39.419 1012.88,-61.2281 781.582,-19.6418"/>
<polygon fill="midnightblue" stroke="midnightblue" points="781.974,-16.156 771.509,-17.8103 780.722,-23.043 781.974,-16.156"/>
</g>
<!-- Node22 -->
<g id="node22" class="node"><title>Node22</title>
<polygon fill="none" stroke="#bfbfbf" points="790,-0.5 790,-19.5 846,-19.5 846,-0.5 790,-0.5"/>
<text text-anchor="middle" x="818" y="-7.5" font-family="Helvetica,sans-Serif" font-size="10.00">algorithm</text>
</g>
<!-- Node7&#45;&gt;Node22 -->
<g id="edge22" class="edge"><title>Node7&#45;&gt;Node22</title>
<path fill="none" stroke="midnightblue" d="M1375.71,-61.2138C1249.45,-51.5023 920.311,-26.1015 856.139,-19.5257"/>
<polygon fill="midnightblue" stroke="midnightblue" points="856.529,-16.0476 846.187,-18.348 855.707,-22.9991 856.529,-16.0476"/>
</g>
<!-- Node23 -->
<g id="node23" class="node"><title>Node23</title>
<polygon fill="none" stroke="#bfbfbf" points="864.5,-0.5 864.5,-19.5 923.5,-19.5 923.5,-0.5 864.5,-0.5"/>
<text text-anchor="middle" x="894" y="-7.5" font-family="Helvetica,sans-Serif" font-size="10.00">functional</text>
</g>
<!-- Node7&#45;&gt;Node23 -->
<g id="edge23" class="edge"><title>Node7&#45;&gt;Node23</title>
<path fill="none" stroke="midnightblue" d="M1375.62,-61.3409C1272.12,-53.5351 1034.37,-34.865 933.871,-19.8748"/>
<polygon fill="midnightblue" stroke="midnightblue" points="934.148,-16.3759 923.729,-18.2978 933.072,-23.2928 934.148,-16.3759"/>
</g>
<!-- Node24 -->
<g id="node24" class="node"><title>Node24</title>
<polygon fill="none" stroke="#bfbfbf" points="942,-0.5 942,-19.5 982,-19.5 982,-0.5 942,-0.5"/>
<text text-anchor="middle" x="962" y="-7.5" font-family="Helvetica,sans-Serif" font-size="10.00">limits</text>
</g>
<!-- Node7&#45;&gt;Node24 -->
<g id="edge24" class="edge"><title>Node7&#45;&gt;Node24</title>
<path fill="none" stroke="midnightblue" d="M1375.89,-61.1386C1282.11,-53.5693 1079.73,-36.2512 992.015,-19.765"/>
<polygon fill="midnightblue" stroke="midnightblue" points="992.638,-16.3205 982.149,-17.8113 991.278,-23.1871 992.638,-16.3205"/>
</g>
<!-- Node25 -->
<g id="node25" class="node"><title>Node25</title>
<polygon fill="none" stroke="#bfbfbf" points="1000,-0.5 1000,-19.5 1050,-19.5 1050,-0.5 1000,-0.5"/>
<text text-anchor="middle" x="1025" y="-7.5" font-family="Helvetica,sans-Serif" font-size="10.00">fstream</text>
</g>
<!-- Node7&#45;&gt;Node25 -->
<g id="edge25" class="edge"><title>Node7&#45;&gt;Node25</title>
<path fill="none" stroke="midnightblue" d="M1375.83,-61.1011C1307.18,-55.1866 1178.64,-42.3989 1060.13,-19.9834"/>
<polygon fill="midnightblue" stroke="midnightblue" points="1060.64,-16.5177 1050.16,-18.07 1059.32,-23.3922 1060.64,-16.5177"/>
</g>
<!-- Node26 -->
<g id="node26" class="node"><title>Node26</title>
<polygon fill="none" stroke="#bfbfbf" points="1068.5,-0.5 1068.5,-19.5 1113.5,-19.5 1113.5,-0.5 1068.5,-0.5"/>
<text text-anchor="middle" x="1091" y="-7.5" font-family="Helvetica,sans-Serif" font-size="10.00">iosfwd</text>
</g>
<!-- Node7&#45;&gt;Node26 -->
<g id="edge26" class="edge"><title>Node7&#45;&gt;Node26</title>
<path fill="none" stroke="midnightblue" d="M1375.75,-59.599C1317.74,-52.8078 1218.33,-39.8314 1123.67,-19.8914"/>
<polygon fill="midnightblue" stroke="midnightblue" points="1124.15,-16.415 1113.64,-17.7482 1122.69,-23.2605 1124.15,-16.415"/>
</g>
<!-- Node27 -->
<g id="node27" class="node"><title>Node27</title>
<polygon fill="none" stroke="#bfbfbf" points="1132,-0.5 1132,-19.5 1184,-19.5 1184,-0.5 1132,-0.5"/>
<text text-anchor="middle" x="1158" y="-7.5" font-family="Helvetica,sans-Serif" font-size="10.00">sstream</text>
</g>
<!-- Node7&#45;&gt;Node27 -->
<g id="edge27" class="edge"><title>Node7&#45;&gt;Node27</title>
<path fill="none" stroke="midnightblue" d="M1376.39,-56.4496C1331.53,-48.3622 1262.85,-35.4836 1194.42,-20.2208"/>
<polygon fill="midnightblue" stroke="midnightblue" points="1194.86,-16.7308 1184.33,-17.9519 1193.32,-23.5603 1194.86,-16.7308"/>
</g>
<!-- Node28 -->
<g id="node28" class="node"><title>Node28</title>
<polygon fill="none" stroke="#bfbfbf" points="1202,-0.5 1202,-19.5 1270,-19.5 1270,-0.5 1202,-0.5"/>
<text text-anchor="middle" x="1236" y="-7.5" font-family="Helvetica,sans-Serif" font-size="10.00">sys/types.h</text>
</g>
<!-- Node7&#45;&gt;Node28 -->
<g id="edge28" class="edge"><title>Node7&#45;&gt;Node28</title>
<path fill="none" stroke="midnightblue" d="M1395.05,-56.4435C1362.84,-47.2406 1311.47,-32.5617 1275.86,-22.3879"/>
<polygon fill="midnightblue" stroke="midnightblue" points="1276.38,-18.8984 1265.81,-19.5164 1274.46,-25.629 1276.38,-18.8984"/>
</g>
<!-- Node29 -->
<g id="node29" class="node"><title>Node29</title>
<polygon fill="none" stroke="#bfbfbf" points="1288,-0.5 1288,-19.5 1348,-19.5 1348,-0.5 1288,-0.5"/>
<text text-anchor="middle" x="1318" y="-7.5" font-family="Helvetica,sans-Serif" font-size="10.00">sys/stat.h</text>
</g>
<!-- Node7&#45;&gt;Node29 -->
<g id="edge29" class="edge"><title>Node7&#45;&gt;Node29</title>
<path fill="none" stroke="midnightblue" d="M1407.81,-56.324C1390.65,-47.6641 1364.05,-34.2424 1344.25,-24.249"/>
<polygon fill="midnightblue" stroke="midnightblue" points="1345.65,-21.0354 1335.15,-19.6545 1342.5,-27.2847 1345.65,-21.0354"/>
</g>
<!-- Node30 -->
<g id="node30" class="node"><title>Node30</title>
<polygon fill="none" stroke="#bfbfbf" points="1366.5,-0.5 1366.5,-19.5 1417.5,-19.5 1417.5,-0.5 1366.5,-0.5"/>
<text text-anchor="middle" x="1392" y="-7.5" font-family="Helvetica,sans-Serif" font-size="10.00">unistd.h</text>
</g>
<!-- Node7&#45;&gt;Node30 -->
<g id="edge30" class="edge"><title>Node7&#45;&gt;Node30</title>
<path fill="none" stroke="midnightblue" d="M1419.55,-56.083C1414.99,-48.6127 1408.33,-37.7244 1402.71,-28.5199"/>
<polygon fill="midnightblue" stroke="midnightblue" points="1405.55,-26.4588 1397.35,-19.7511 1399.58,-30.109 1405.55,-26.4588"/>
</g>
<!-- Node31 -->
<g id="node31" class="node"><title>Node31</title>
<polygon fill="none" stroke="#bfbfbf" points="1436,-0.5 1436,-19.5 1482,-19.5 1482,-0.5 1436,-0.5"/>
<text text-anchor="middle" x="1459" y="-7.5" font-family="Helvetica,sans-Serif" font-size="10.00">dlfcn.h</text>
</g>
<!-- Node7&#45;&gt;Node31 -->
<g id="edge31" class="edge"><title>Node7&#45;&gt;Node31</title>
<path fill="none" stroke="midnightblue" d="M1430.61,-56.083C1435.37,-48.5341 1442.32,-37.4948 1448.15,-28.2298"/>
<polygon fill="midnightblue" stroke="midnightblue" points="1451.12,-30.0783 1453.49,-19.7511 1445.2,-26.3486 1451.12,-30.0783"/>
</g>
<!-- Node32 -->
<g id="node32" class="node"><title>Node32</title>
<polygon fill="none" stroke="#bfbfbf" points="1500,-0.5 1500,-19.5 1578,-19.5 1578,-0.5 1500,-0.5"/>
<text text-anchor="middle" x="1539" y="-7.5" font-family="Helvetica,sans-Serif" font-size="10.00">ext/hash_map</text>
</g>
<!-- Node7&#45;&gt;Node32 -->
<g id="edge32" class="edge"><title>Node7&#45;&gt;Node32</title>
<path fill="none" stroke="midnightblue" d="M1443.06,-56.4435C1461.57,-47.6751 1490.58,-33.9355 1511.86,-23.8579"/>
<polygon fill="midnightblue" stroke="midnightblue" points="1513.48,-26.9604 1521.02,-19.5164 1510.49,-20.6343 1513.48,-26.9604"/>
</g>
<!-- Node33 -->
<g id="node33" class="node"><title>Node33</title>
<polygon fill="none" stroke="#bfbfbf" points="1596.5,-0.5 1596.5,-19.5 1669.5,-19.5 1669.5,-0.5 1596.5,-0.5"/>
<text text-anchor="middle" x="1633" y="-7.5" font-family="Helvetica,sans-Serif" font-size="10.00">ext/hash_set</text>
</g>
<!-- Node7&#45;&gt;Node33 -->
<g id="edge33" class="edge"><title>Node7&#45;&gt;Node33</title>
<path fill="none" stroke="midnightblue" d="M1457.96,-56.4435C1493.79,-47.1419 1551.16,-32.246 1590.39,-22.062"/>
<polygon fill="midnightblue" stroke="midnightblue" points="1591.4,-25.4171 1600.2,-19.5164 1589.64,-18.6417 1591.4,-25.4171"/>
</g>
<!-- Node35 -->
<g id="node35" class="node"><title>Node35</title>
<g id="a_node35"><a xlink:href="_ogre_header_prefix_8h.html" target="_top" xlink:title="OgreHeaderPrefix.h">
<polygon fill="none" stroke="black" points="103.5,-0.5 103.5,-19.5 206.5,-19.5 206.5,-0.5 103.5,-0.5"/>
<text text-anchor="middle" x="155" y="-7.5" font-family="Helvetica,sans-Serif" font-size="10.00">OgreHeaderPrefix.h</text>
</a>
</g>
</g>
<!-- Node34&#45;&gt;Node35 -->
<g id="edge35" class="edge"><title>Node34&#45;&gt;Node35</title>
<path fill="none" stroke="midnightblue" d="M352.764,-56.4435C311.94,-47.0629 246.357,-31.9926 202.016,-21.8036"/>
<polygon fill="midnightblue" stroke="midnightblue" points="202.592,-18.3449 192.062,-19.5164 201.024,-25.1671 202.592,-18.3449"/>
</g>
<!-- Node36 -->
<g id="node36" class="node"><title>Node36</title>
<g id="a_node36"><a xlink:href="_ogre_header_suffix_8h.html" target="_top" xlink:title="OgreHeaderSuffix.h">
<polygon fill="none" stroke="black" points="440.5,-0.5 440.5,-19.5 543.5,-19.5 543.5,-0.5 440.5,-0.5"/>
<text text-anchor="middle" x="492" y="-7.5" font-family="Helvetica,sans-Serif" font-size="10.00">OgreHeaderSuffix.h</text>
</a>
</g>
</g>
<!-- Node34&#45;&gt;Node36 -->
<g id="edge36" class="edge"><title>Node34&#45;&gt;Node36</title>
<path fill="none" stroke="midnightblue" d="M406.388,-56.324C422.671,-47.7034 447.867,-34.3643 466.716,-24.3855"/>
<polygon fill="midnightblue" stroke="midnightblue" points="468.452,-27.4267 475.653,-19.6545 465.177,-21.2402 468.452,-27.4267"/>
</g>
<!-- Node37&#45;&gt;Node35 -->
<g id="edge38" class="edge"><title>Node37&#45;&gt;Node35</title>
<path fill="none" stroke="midnightblue" d="M222.24,-112.379C216.193,-103.326 206.415,-88.6712 198,-76 187.278,-59.8555 175.093,-41.4287 166.439,-28.3276"/>
<polygon fill="midnightblue" stroke="midnightblue" points="169.264,-26.2538 160.832,-19.838 163.422,-30.1113 169.264,-26.2538"/>
</g>
<!-- Node37&#45;&gt;Node36 -->
<g id="edge39" class="edge"><title>Node37&#45;&gt;Node36</title>
<path fill="none" stroke="midnightblue" d="M235.862,-112.391C249.137,-98.3909 277.451,-70.7709 307,-56 345.647,-36.6817 393.058,-25.3593 430.208,-18.9038"/>
<polygon fill="midnightblue" stroke="midnightblue" points="431.108,-22.3023 440.399,-17.2095 429.96,-15.3971 431.108,-22.3023"/>
</g>
<!-- Node38&#45;&gt;Node3 -->
<g id="edge41" class="edge"><title>Node38&#45;&gt;Node3</title>
<path fill="none" stroke="midnightblue" d="M940.734,-343.214C1028.84,-336.903 1203.73,-309.058 1235,-188 1237.22,-179.394 1240.8,-174.734 1235,-168 1204.8,-132.947 1075.04,-124.794 996.084,-123.141"/>
<polygon fill="midnightblue" stroke="midnightblue" points="995.831,-119.636 985.77,-122.956 995.705,-126.635 995.831,-119.636"/>
</g>
<!-- Node38&#45;&gt;Node35 -->
<g id="edge74" class="edge"><title>Node38&#45;&gt;Node35</title>
<path fill="none" stroke="midnightblue" d="M839.277,-344.106C650.583,-340.118 0,-320.191 0,-235 0,-235 0,-235 0,-121 0,-67.0481 63.227,-37.1417 108.917,-22.5738"/>
<polygon fill="midnightblue" stroke="midnightblue" points="110.11,-25.8693 118.659,-19.6114 108.074,-19.1721 110.11,-25.8693"/>
</g>
<!-- Node38&#45;&gt;Node36 -->
<g id="edge82" class="edge"><title>Node38&#45;&gt;Node36</title>
<path fill="none" stroke="midnightblue" d="M940.507,-341.807C1048.48,-333.596 1292,-307.086 1292,-235 1292,-235 1292,-235 1292,-121 1292,-40.6087 674.62,-32.2319 553.808,-19.9985"/>
<polygon fill="midnightblue" stroke="midnightblue" points="554.047,-16.5024 543.704,-18.8 553.222,-23.4536 554.047,-16.5024"/>
</g>
<!-- Node39 -->
<g id="node39" class="node"><title>Node39</title>
<g id="a_node39"><a xlink:href="_ogre_resource_8h.html" target="_top" xlink:title="OgreResource.h">
<polygon fill="none" stroke="black" points="354,-224.5 354,-243.5 442,-243.5 442,-224.5 354,-224.5"/>
<text text-anchor="middle" x="398" y="-231.5" font-family="Helvetica,sans-Serif" font-size="10.00">OgreResource.h</text>
</a>
</g>
</g>
<!-- Node38&#45;&gt;Node39 -->
<g id="edge42" class="edge"><title>Node38&#45;&gt;Node39</title>
<path fill="none" stroke="midnightblue" d="M851.803,-336.46C763.162,-316.642 543.628,-267.559 446.062,-245.745"/>
<polygon fill="midnightblue" stroke="midnightblue" points="446.695,-242.301 436.173,-243.535 445.168,-249.132 446.695,-242.301"/>
</g>
<!-- Node43 -->
<g id="node43" class="node"><title>Node43</title>
<g id="a_node43"><a xlink:href="_ogre_gpu_program_params_8h.html" target="_top" xlink:title="OgreGpuProgramParams.h">
<polygon fill="none" stroke="black" points="737,-280.5 737,-299.5 871,-299.5 871,-280.5 737,-280.5"/>
<text text-anchor="middle" x="804" y="-287.5" font-family="Helvetica,sans-Serif" font-size="10.00">OgreGpuProgramParams.h</text>
</a>
</g>
</g>
<!-- Node38&#45;&gt;Node43 -->
<g id="edge56" class="edge"><title>Node38&#45;&gt;Node43</title>
<path fill="none" stroke="midnightblue" d="M876.183,-336.324C862.767,-327.9 842.176,-314.971 826.414,-305.074"/>
<polygon fill="midnightblue" stroke="midnightblue" points="828.113,-302.008 817.783,-299.655 824.391,-307.936 828.113,-302.008"/>
</g>
<!-- Node44 -->
<g id="node44" class="node"><title>Node44</title>
<g id="a_node44"><a xlink:href="_ogre_shared_ptr_8h.html" target="_top" xlink:title="OgreSharedPtr.h">
<polygon fill="none" stroke="black" points="1007.5,-224.5 1007.5,-243.5 1096.5,-243.5 1096.5,-224.5 1007.5,-224.5"/>
<text text-anchor="middle" x="1052" y="-231.5" font-family="Helvetica,sans-Serif" font-size="10.00">OgreSharedPtr.h</text>
</a>
</g>
</g>
<!-- Node38&#45;&gt;Node44 -->
<g id="edge81" class="edge"><title>Node38&#45;&gt;Node44</title>
<path fill="none" stroke="midnightblue" d="M902.712,-336.368C930.511,-317.492 996.942,-272.385 1031.03,-249.237"/>
<polygon fill="midnightblue" stroke="midnightblue" points="1033.04,-252.105 1039.35,-243.591 1029.11,-246.313 1033.04,-252.105"/>
</g>
<!-- Node48 -->
<g id="node48" class="node"><title>Node48</title>
<g id="a_node48"><a xlink:href="_ogre_vector3_8h.html" target="_top" xlink:title="OgreVector3.h">
<polygon fill="none" stroke="black" points="1115,-224.5 1115,-243.5 1195,-243.5 1195,-224.5 1115,-224.5"/>
<text text-anchor="middle" x="1155" y="-231.5" font-family="Helvetica,sans-Serif" font-size="10.00">OgreVector3.h</text>
</a>
</g>
</g>
<!-- Node38&#45;&gt;Node48 -->
<g id="edge75" class="edge"><title>Node38&#45;&gt;Node48</title>
<path fill="none" stroke="midnightblue" d="M910.794,-336.368C957.429,-317.01 1070.53,-270.065 1124.87,-247.507"/>
<polygon fill="midnightblue" stroke="midnightblue" points="1126.41,-250.658 1134.3,-243.591 1123.72,-244.193 1126.41,-250.658"/>
</g>
<!-- Node39&#45;&gt;Node3 -->
<g id="edge43" class="edge"><title>Node39&#45;&gt;Node3</title>
<path fill="none" stroke="midnightblue" d="M442.188,-232.682C516.61,-231.119 671.067,-223.437 796,-188 838.433,-175.964 884.062,-152.078 910.769,-136.854"/>
<polygon fill="midnightblue" stroke="midnightblue" points="912.812,-139.716 919.712,-131.675 909.304,-133.658 912.812,-139.716"/>
</g>
<!-- Node39&#45;&gt;Node35 -->
<g id="edge53" class="edge"><title>Node39&#45;&gt;Node35</title>
<path fill="none" stroke="midnightblue" d="M353.947,-233.193C278.125,-232.482 127.909,-226.158 95,-188 53.3892,-139.753 110.912,-61.3847 139.972,-27.4882"/>
<polygon fill="midnightblue" stroke="midnightblue" points="142.693,-29.6943 146.67,-19.874 137.437,-25.0711 142.693,-29.6943"/>
</g>
<!-- Node39&#45;&gt;Node36 -->
<g id="edge55" class="edge"><title>Node39&#45;&gt;Node36</title>
<path fill="none" stroke="midnightblue" d="M396.422,-224.345C393.027,-202.929 387.283,-146.689 413,-112 436.462,-80.353 472.533,-109.033 494,-76 502.835,-62.405 501.128,-43.6079 497.927,-29.7235"/>
<polygon fill="midnightblue" stroke="midnightblue" points="501.234,-28.5512 495.211,-19.8348 494.484,-30.4047 501.234,-28.5512"/>
</g>
<!-- Node40 -->
<g id="node40" class="node"><title>Node40</title>
<g id="a_node40"><a xlink:href="_ogre_atomic_scalar_8h.html" target="_top" xlink:title="OgreAtomicScalar.h">
<polygon fill="none" stroke="red" points="498,-168.5 498,-187.5 602,-187.5 602,-168.5 498,-168.5"/>
<text text-anchor="middle" x="550" y="-175.5" font-family="Helvetica,sans-Serif" font-size="10.00">OgreAtomicScalar.h</text>
</a>
</g>
</g>
<!-- Node39&#45;&gt;Node40 -->
<g id="edge44" class="edge"><title>Node39&#45;&gt;Node40</title>
<path fill="none" stroke="midnightblue" d="M422.085,-224.444C447.545,-215.399 487.894,-201.064 516.459,-190.916"/>
<polygon fill="midnightblue" stroke="midnightblue" points="517.777,-194.162 526.028,-187.516 515.433,-187.566 517.777,-194.162"/>
</g>
<!-- Node41 -->
<g id="node41" class="node"><title>Node41</title>
<g id="a_node41"><a xlink:href="_ogre_thread_headers_8h.html" target="_top" xlink:title="Threading/OgreThreadHeaders.h">
<polygon fill="none" stroke="red" points="422,-112.5 422,-131.5 580,-131.5 580,-112.5 422,-112.5"/>
<text text-anchor="middle" x="501" y="-119.5" font-family="Helvetica,sans-Serif" font-size="10.00">Threading/OgreThreadHeaders.h</text>
</a>
</g>
</g>
<!-- Node39&#45;&gt;Node41 -->
<g id="edge54" class="edge"><title>Node39&#45;&gt;Node41</title>
<path fill="none" stroke="midnightblue" d="M405.357,-224.448C416.226,-211.885 437.305,-187.789 456,-168 465.294,-158.162 475.998,-147.435 484.633,-138.923"/>
<polygon fill="midnightblue" stroke="midnightblue" points="487.191,-141.316 491.883,-131.817 482.292,-136.317 487.191,-141.316"/>
</g>
<!-- Node42 -->
<g id="node42" class="node"><title>Node42</title>
<g id="a_node42"><a xlink:href="_ogre_string_interface_8h.html" target="_top" xlink:title="OgreStringInterface.h">
<polygon fill="none" stroke="black" points="104,-168.5 104,-187.5 214,-187.5 214,-168.5 104,-168.5"/>
<text text-anchor="middle" x="159" y="-175.5" font-family="Helvetica,sans-Serif" font-size="10.00">OgreStringInterface.h</text>
</a>
</g>
</g>
<!-- Node39&#45;&gt;Node42 -->
<g id="edge47" class="edge"><title>Node39&#45;&gt;Node42</title>
<path fill="none" stroke="midnightblue" d="M360.13,-224.444C318.524,-215.043 251.631,-199.929 206.531,-189.739"/>
<polygon fill="midnightblue" stroke="midnightblue" points="207.219,-186.306 196.693,-187.516 205.676,-193.134 207.219,-186.306"/>
</g>
<!-- Node40&#45;&gt;Node3 -->
<g id="edge45" class="edge"><title>Node40&#45;&gt;Node3</title>
<path fill="none" stroke="midnightblue" d="M602.239,-169.264C605.203,-168.834 608.139,-168.41 611,-168 701.836,-154.972 807.124,-140.402 872.153,-131.466"/>
<polygon fill="midnightblue" stroke="midnightblue" points="872.805,-134.909 882.236,-130.081 871.853,-127.974 872.805,-134.909"/>
</g>
<!-- Node40&#45;&gt;Node41 -->
<g id="edge46" class="edge"><title>Node40&#45;&gt;Node41</title>
<path fill="none" stroke="midnightblue" d="M541.909,-168.083C534.845,-160.298 524.412,-148.801 515.851,-139.367"/>
<polygon fill="midnightblue" stroke="midnightblue" points="518.253,-136.805 508.941,-131.751 513.069,-141.509 518.253,-136.805"/>
</g>
<!-- Node42&#45;&gt;Node3 -->
<g id="edge48" class="edge"><title>Node42&#45;&gt;Node3</title>
<path fill="none" stroke="midnightblue" d="M214.125,-168.975C217.125,-168.624 220.098,-168.295 223,-168 462.368,-143.631 748.502,-130.313 872.111,-125.322"/>
<polygon fill="midnightblue" stroke="midnightblue" points="872.294,-128.818 882.146,-124.921 872.014,-121.824 872.294,-128.818"/>
</g>
<!-- Node42&#45;&gt;Node35 -->
<g id="edge51" class="edge"><title>Node42&#45;&gt;Node35</title>
<path fill="none" stroke="midnightblue" d="M158.785,-168.075C158.155,-141.945 156.306,-65.2106 155.448,-29.577"/>
<polygon fill="midnightblue" stroke="midnightblue" points="158.946,-29.4809 155.206,-19.5681 151.948,-29.6496 158.946,-29.4809"/>
</g>
<!-- Node42&#45;&gt;Node36 -->
<g id="edge52" class="edge"><title>Node42&#45;&gt;Node36</title>
<path fill="none" stroke="midnightblue" d="M187.972,-168.483C263.743,-146.1 462.664,-86.6169 473,-76 484.907,-63.7692 489.42,-44.5045 491.095,-30.1183"/>
<polygon fill="midnightblue" stroke="midnightblue" points="494.607,-30.102 491.918,-19.8543 487.63,-29.5427 494.607,-30.102"/>
</g>
<!-- Node42&#45;&gt;Node37 -->
<g id="edge49" class="edge"><title>Node42&#45;&gt;Node37</title>
<path fill="none" stroke="midnightblue" d="M170.086,-168.324C180.486,-160.185 196.261,-147.839 208.722,-138.087"/>
<polygon fill="midnightblue" stroke="midnightblue" points="210.994,-140.753 216.712,-131.834 206.68,-135.241 210.994,-140.753"/>
</g>
<!-- Node42&#45;&gt;Node41 -->
<g id="edge50" class="edge"><title>Node42&#45;&gt;Node41</title>
<path fill="none" stroke="midnightblue" d="M213.191,-168.444C273.978,-158.846 372.487,-143.292 437.01,-133.104"/>
<polygon fill="midnightblue" stroke="midnightblue" points="437.731,-136.533 447.063,-131.516 436.639,-129.619 437.731,-136.533"/>
</g>
<!-- Node43&#45;&gt;Node3 -->
<g id="edge57" class="edge"><title>Node43&#45;&gt;Node3</title>
<path fill="none" stroke="midnightblue" d="M810.989,-280.075C831.807,-253.493 893.639,-174.538 920.872,-139.763"/>
<polygon fill="midnightblue" stroke="midnightblue" points="923.88,-141.599 927.29,-131.568 918.369,-137.283 923.88,-141.599"/>
</g>
<!-- Node43&#45;&gt;Node35 -->
<g id="edge72" class="edge"><title>Node43&#45;&gt;Node35</title>
<path fill="none" stroke="midnightblue" d="M736.838,-284.666C565.559,-272.921 122.986,-237.975 81,-188 42.8319,-142.569 66.2731,-104.113 101,-56 109.481,-44.2494 121.714,-33.7175 132.392,-25.802"/>
<polygon fill="midnightblue" stroke="midnightblue" points="134.736,-28.4309 140.88,-19.7991 130.694,-22.7158 134.736,-28.4309"/>
</g>
<!-- Node43&#45;&gt;Node36 -->
<g id="edge73" class="edge"><title>Node43&#45;&gt;Node36</title>
<path fill="none" stroke="midnightblue" d="M805.705,-280.434C809.378,-259.688 816.159,-205.684 796,-168 747.964,-78.2069 627.932,-38.2693 553.874,-21.6822"/>
<polygon fill="midnightblue" stroke="midnightblue" points="554.255,-18.1839 543.742,-19.4939 552.778,-25.0261 554.255,-18.1839"/>
</g>
<!-- Node43&#45;&gt;Node41 -->
<g id="edge71" class="edge"><title>Node43&#45;&gt;Node41</title>
<path fill="none" stroke="midnightblue" d="M736.75,-288.96C662.351,-284.855 545.524,-265.482 489,-188 479.095,-174.423 484.451,-155.107 490.847,-141.062"/>
<polygon fill="midnightblue" stroke="midnightblue" points="494.08,-142.425 495.486,-131.924 487.839,-139.257 494.08,-142.425"/>
</g>
<!-- Node43&#45;&gt;Node44 -->
<g id="edge58" class="edge"><title>Node43&#45;&gt;Node44</title>
<path fill="none" stroke="midnightblue" d="M843.296,-280.444C886.559,-271.023 956.173,-255.866 1002.97,-245.675"/>
<polygon fill="midnightblue" stroke="midnightblue" points="1003.86,-249.064 1012.89,-243.516 1002.37,-242.224 1003.86,-249.064"/>
</g>
<!-- Node45 -->
<g id="node45" class="node"><title>Node45</title>
<g id="a_node45"><a xlink:href="_ogre_iterator_wrappers_8h.html" target="_top" xlink:title="OgreIteratorWrappers.h">
<polygon fill="none" stroke="red" points="870.5,-224.5 870.5,-243.5 989.5,-243.5 989.5,-224.5 870.5,-224.5"/>
<text text-anchor="middle" x="930" y="-231.5" font-family="Helvetica,sans-Serif" font-size="10.00">OgreIteratorWrappers.h</text>
</a>
</g>
</g>
<!-- Node43&#45;&gt;Node45 -->
<g id="edge61" class="edge"><title>Node43&#45;&gt;Node45</title>
<path fill="none" stroke="midnightblue" d="M823.965,-280.444C844.609,-271.596 877.063,-257.687 900.632,-247.586"/>
<polygon fill="midnightblue" stroke="midnightblue" points="902.316,-250.673 910.128,-243.516 899.558,-244.239 902.316,-250.673"/>
</g>
<!-- Node46 -->
<g id="node46" class="node"><title>Node46</title>
<g id="a_node46"><a xlink:href="_ogre_serializer_8h.html" target="_top" xlink:title="OgreSerializer.h">
<polygon fill="none" stroke="black" points="620,-168.5 620,-187.5 706,-187.5 706,-168.5 620,-168.5"/>
<text text-anchor="middle" x="663" y="-175.5" font-family="Helvetica,sans-Serif" font-size="10.00">OgreSerializer.h</text>
</a>
</g>
</g>
<!-- Node43&#45;&gt;Node46 -->
<g id="edge63" class="edge"><title>Node43&#45;&gt;Node46</title>
<path fill="none" stroke="midnightblue" d="M792.936,-280.368C768.946,-261.653 711.902,-217.151 682.012,-193.832"/>
<polygon fill="midnightblue" stroke="midnightblue" points="684.05,-190.983 674.013,-187.591 679.744,-196.502 684.05,-190.983"/>
</g>
<!-- Node47 -->
<g id="node47" class="node"><title>Node47</title>
<g id="a_node47"><a xlink:href="_ogre_any_8h.html" target="_top" xlink:title="OgreAny.h">
<polygon fill="none" stroke="red" points="724.5,-168.5 724.5,-187.5 787.5,-187.5 787.5,-168.5 724.5,-168.5"/>
<text text-anchor="middle" x="756" y="-175.5" font-family="Helvetica,sans-Serif" font-size="10.00">OgreAny.h</text>
</a>
</g>
</g>
<!-- Node43&#45;&gt;Node47 -->
<g id="edge67" class="edge"><title>Node43&#45;&gt;Node47</title>
<path fill="none" stroke="midnightblue" d="M800.234,-280.368C792.417,-262.456 774.294,-220.923 763.832,-196.948"/>
<polygon fill="midnightblue" stroke="midnightblue" points="766.956,-195.357 759.749,-187.591 760.541,-198.157 766.956,-195.357"/>
</g>
<!-- Node44&#45;&gt;Node3 -->
<g id="edge59" class="edge"><title>Node44&#45;&gt;Node3</title>
<path fill="none" stroke="midnightblue" d="M1039.02,-224.383C1026.46,-215.796 1007.15,-201.916 992,-188 975.552,-172.895 958.783,-153.59 947.534,-139.956"/>
<polygon fill="midnightblue" stroke="midnightblue" points="950.022,-137.468 940.999,-131.916 944.591,-141.883 950.022,-137.468"/>
</g>
<!-- Node44&#45;&gt;Node40 -->
<g id="edge60" class="edge"><title>Node44&#45;&gt;Node40</title>
<path fill="none" stroke="midnightblue" d="M1007.25,-225.285C1004.12,-224.825 1001.02,-224.391 998,-224 829.954,-202.209 784.237,-208.365 612.372,-188.103"/>
<polygon fill="midnightblue" stroke="midnightblue" points="612.563,-184.601 602.219,-186.893 611.734,-191.552 612.563,-184.601"/>
</g>
<!-- Node45&#45;&gt;Node3 -->
<g id="edge62" class="edge"><title>Node45&#45;&gt;Node3</title>
<path fill="none" stroke="midnightblue" d="M930.314,-224.368C930.959,-206.617 932.448,-165.666 933.324,-141.597"/>
<polygon fill="midnightblue" stroke="midnightblue" points="936.822,-141.712 933.688,-131.591 929.826,-141.458 936.822,-141.712"/>
</g>
<!-- Node46&#45;&gt;Node3 -->
<g id="edge64" class="edge"><title>Node46&#45;&gt;Node3</title>
<path fill="none" stroke="midnightblue" d="M705.941,-168.444C753.513,-158.964 830.244,-143.675 881.389,-133.483"/>
<polygon fill="midnightblue" stroke="midnightblue" points="882.137,-136.903 891.26,-131.516 880.769,-130.038 882.137,-136.903"/>
</g>
<!-- Node46&#45;&gt;Node35 -->
<g id="edge65" class="edge"><title>Node46&#45;&gt;Node35</title>
<path fill="none" stroke="midnightblue" d="M656.331,-168.436C644.522,-153.976 618.389,-125.028 589,-112 460.179,-54.8939 408.329,-118.565 274,-76 237.117,-64.3127 198.543,-40.8404 175.652,-25.5327"/>
<polygon fill="midnightblue" stroke="midnightblue" points="177.363,-22.4633 167.129,-19.7226 173.42,-28.2473 177.363,-22.4633"/>
</g>
<!-- Node46&#45;&gt;Node36 -->
<g id="edge66" class="edge"><title>Node46&#45;&gt;Node36</title>
<path fill="none" stroke="midnightblue" d="M658.792,-168.356C652.152,-155.253 638.311,-129.989 622,-112 589.229,-75.8572 542.359,-43.007 514.765,-25.1287"/>
<polygon fill="midnightblue" stroke="midnightblue" points="516.506,-22.0877 506.194,-19.6565 512.739,-27.9878 516.506,-22.0877"/>
</g>
<!-- Node47&#45;&gt;Node3 -->
<g id="edge68" class="edge"><title>Node47&#45;&gt;Node3</title>
<path fill="none" stroke="midnightblue" d="M784.205,-168.444C814.41,-159.28 862.511,-144.688 896.029,-134.519"/>
<polygon fill="midnightblue" stroke="midnightblue" points="897.374,-137.769 905.927,-131.516 895.342,-131.07 897.374,-137.769"/>
</g>
<!-- Node47&#45;&gt;Node35 -->
<g id="edge69" class="edge"><title>Node47&#45;&gt;Node35</title>
<path fill="none" stroke="midnightblue" d="M741.822,-168.333C717.613,-153.99 666.327,-125.555 619,-112 484.809,-73.5668 441.164,-114.528 307,-76 287.128,-70.2933 283.909,-64.3619 265,-56 238.817,-44.4213 208.703,-32.1747 186.61,-23.3855"/>
<polygon fill="midnightblue" stroke="midnightblue" points="187.653,-20.0341 177.067,-19.6054 185.075,-26.5421 187.653,-20.0341"/>
</g>
<!-- Node47&#45;&gt;Node36 -->
<g id="edge70" class="edge"><title>Node47&#45;&gt;Node36</title>
<path fill="none" stroke="midnightblue" d="M750.062,-168.479C740.396,-155.089 720.104,-128.907 698,-112 643.553,-70.3554 569.215,-39.0583 526.335,-23.0163"/>
<polygon fill="midnightblue" stroke="midnightblue" points="527.505,-19.7175 516.912,-19.5476 525.087,-26.2866 527.505,-19.7175"/>
</g>
<!-- Node48&#45;&gt;Node3 -->
<g id="edge76" class="edge"><title>Node48&#45;&gt;Node3</title>
<path fill="none" stroke="midnightblue" d="M1122.7,-224.464C1095.97,-216.765 1057.42,-204.175 1026,-188 998.505,-173.847 969.876,-152.379 952.004,-138.032"/>
<polygon fill="midnightblue" stroke="midnightblue" points="954.108,-135.232 944.146,-131.625 949.684,-140.657 954.108,-135.232"/>
</g>
<!-- Node49 -->
<g id="node49" class="node"><title>Node49</title>
<g id="a_node49"><a xlink:href="_ogre_quaternion_8h.html" target="_top" xlink:title="OgreQuaternion.h">
<polygon fill="none" stroke="red" points="1034.5,-168.5 1034.5,-187.5 1127.5,-187.5 1127.5,-168.5 1034.5,-168.5"/>
<text text-anchor="middle" x="1081" y="-175.5" font-family="Helvetica,sans-Serif" font-size="10.00">OgreQuaternion.h</text>
</a>
</g>
</g>
<!-- Node48&#45;&gt;Node49 -->
<g id="edge77" class="edge"><title>Node48&#45;&gt;Node49</title>
<path fill="none" stroke="midnightblue" d="M1143.11,-224.324C1131.85,-216.107 1114.71,-203.602 1101.29,-193.807"/>
<polygon fill="midnightblue" stroke="midnightblue" points="1103.25,-190.901 1093.11,-187.834 1099.12,-196.556 1103.25,-190.901"/>
</g>
<!-- Node50 -->
<g id="node50" class="node"><title>Node50</title>
<g id="a_node50"><a xlink:href="_ogre_vector2_8h.html" target="_top" xlink:title="OgreVector2.h">
<polygon fill="none" stroke="red" points="1146,-168.5 1146,-187.5 1226,-187.5 1226,-168.5 1146,-168.5"/>
<text text-anchor="middle" x="1186" y="-175.5" font-family="Helvetica,sans-Serif" font-size="10.00">OgreVector2.h</text>
</a>
</g>
</g>
<!-- Node48&#45;&gt;Node50 -->
<g id="edge79" class="edge"><title>Node48&#45;&gt;Node50</title>
<path fill="none" stroke="midnightblue" d="M1160.12,-224.083C1164.41,-216.613 1170.66,-205.724 1175.94,-196.52"/>
<polygon fill="midnightblue" stroke="midnightblue" points="1179.03,-198.166 1180.98,-187.751 1172.96,-194.681 1179.03,-198.166"/>
</g>
<!-- Node49&#45;&gt;Node3 -->
<g id="edge78" class="edge"><title>Node49&#45;&gt;Node3</title>
<path fill="none" stroke="midnightblue" d="M1057.71,-168.444C1033.19,-159.438 994.404,-145.189 966.8,-135.049"/>
<polygon fill="midnightblue" stroke="midnightblue" points="967.777,-131.679 957.184,-131.516 965.363,-138.25 967.777,-131.679"/>
</g>
<!-- Node50&#45;&gt;Node3 -->
<g id="edge80" class="edge"><title>Node50&#45;&gt;Node3</title>
<path fill="none" stroke="midnightblue" d="M1146.07,-168.444C1102.11,-159.023 1031.37,-143.866 983.817,-133.675"/>
<polygon fill="midnightblue" stroke="midnightblue" points="984.255,-130.189 973.743,-131.516 982.788,-137.034 984.255,-130.189"/>
</g>
</g>
</svg>
