<?xml version="1.0" encoding="UTF-8" standalone="no"?>
<!DOCTYPE svg PUBLIC "-//W3C//DTD SVG 1.1//EN"
 "http://www.w3.org/Graphics/SVG/1.1/DTD/svg11.dtd">
<!-- Generated by graphviz version 2.38.0 (20140413.2041)
 -->
<!-- Title: OgreAny.h Pages: 1 -->
<svg width="3129pt" height="364pt"
 viewBox="0.00 0.00 3128.73 364.00" xmlns="http://www.w3.org/2000/svg" xmlns:xlink="http://www.w3.org/1999/xlink">
<g id="graph0" class="graph" transform="scale(1 1) rotate(0) translate(4 360)">
<title>OgreAny.h</title>
<!-- Node1 -->
<g id="node1" class="node"><title>Node1</title>
<polygon fill="#bfbfbf" stroke="black" points="2343.73,-336.5 2343.73,-355.5 2406.73,-355.5 2406.73,-336.5 2343.73,-336.5"/>
<text text-anchor="middle" x="2375.23" y="-343.5" font-family="Helvetica,sans-Serif" font-size="10.00">OgreAny.h</text>
</g>
<!-- Node2 -->
<g id="node2" class="node"><title>Node2</title>
<g id="a_node2"><a xlink:href="_ogre_prerequisites_8h.html" target="_top" xlink:title="OgrePrerequisites.h">
<polygon fill="none" stroke="black" points="2246.73,-168.5 2246.73,-187.5 2349.73,-187.5 2349.73,-168.5 2246.73,-168.5"/>
<text text-anchor="middle" x="2298.23" y="-175.5" font-family="Helvetica,sans-Serif" font-size="10.00">OgrePrerequisites.h</text>
</a>
</g>
</g>
<!-- Node1&#45;&gt;Node2 -->
<g id="edge1" class="edge"><title>Node1&#45;&gt;Node2</title>
<path fill="none" stroke="midnightblue" d="M2359.9,-336.358C2347.46,-328.514 2330.51,-315.776 2321.23,-300 2302.22,-267.705 2298.46,-222.923 2297.98,-197.884"/>
<polygon fill="midnightblue" stroke="midnightblue" points="2301.48,-197.591 2297.95,-187.601 2294.48,-197.611 2301.48,-197.591"/>
</g>
<!-- Node39 -->
<g id="node39" class="node"><title>Node39</title>
<g id="a_node39"><a xlink:href="_ogre_header_prefix_8h.html" target="_top" xlink:title="OgreHeaderPrefix.h">
<polygon fill="none" stroke="black" points="2875.73,-0.5 2875.73,-19.5 2978.73,-19.5 2978.73,-0.5 2875.73,-0.5"/>
<text text-anchor="middle" x="2927.23" y="-7.5" font-family="Helvetica,sans-Serif" font-size="10.00">OgreHeaderPrefix.h</text>
</a>
</g>
</g>
<!-- Node1&#45;&gt;Node39 -->
<g id="edge61" class="edge"><title>Node1&#45;&gt;Node39</title>
<path fill="none" stroke="midnightblue" d="M2406.9,-343.164C2539.26,-335.077 3041.23,-300.115 3041.23,-235 3041.23,-235 3041.23,-235 3041.23,-121 3041.23,-74.1149 2990.68,-40.8944 2956.9,-23.9302"/>
<polygon fill="midnightblue" stroke="midnightblue" points="2958.4,-20.7687 2947.87,-19.5787 2955.36,-27.0742 2958.4,-20.7687"/>
</g>
<!-- Node40 -->
<g id="node40" class="node"><title>Node40</title>
<g id="a_node40"><a xlink:href="_ogre_header_suffix_8h.html" target="_top" xlink:title="OgreHeaderSuffix.h">
<polygon fill="none" stroke="black" points="2364.73,-0.5 2364.73,-19.5 2467.73,-19.5 2467.73,-0.5 2364.73,-0.5"/>
<text text-anchor="middle" x="2416.23" y="-7.5" font-family="Helvetica,sans-Serif" font-size="10.00">OgreHeaderSuffix.h</text>
</a>
</g>
</g>
<!-- Node1&#45;&gt;Node40 -->
<g id="edge62" class="edge"><title>Node1&#45;&gt;Node40</title>
<path fill="none" stroke="midnightblue" d="M2343.46,-344.39C2061.75,-338.884 1.22825,-296.502 1.22825,-235 1.22825,-235 1.22825,-235 1.22825,-121 1.22825,-90.9022 -3.68475,-74.2769 20.2283,-56 67.9951,-19.4914 1983.91,-12.2226 2354.52,-11.1572"/>
<polygon fill="midnightblue" stroke="midnightblue" points="2354.53,-14.6572 2364.52,-11.1288 2354.51,-7.65726 2354.53,-14.6572"/>
</g>
<!-- Node43 -->
<g id="node43" class="node"><title>Node43</title>
<g id="a_node43"><a xlink:href="_ogre_exception_8h.html" target="_top" xlink:title="OgreException.h">
<polygon fill="none" stroke="black" points="2330.73,-280.5 2330.73,-299.5 2419.73,-299.5 2419.73,-280.5 2330.73,-280.5"/>
<text text-anchor="middle" x="2375.23" y="-287.5" font-family="Helvetica,sans-Serif" font-size="10.00">OgreException.h</text>
</a>
</g>
</g>
<!-- Node1&#45;&gt;Node43 -->
<g id="edge51" class="edge"><title>Node1&#45;&gt;Node43</title>
<path fill="none" stroke="midnightblue" d="M2375.23,-336.083C2375.23,-329.006 2375.23,-318.861 2375.23,-309.986"/>
<polygon fill="midnightblue" stroke="midnightblue" points="2378.73,-309.751 2375.23,-299.751 2371.73,-309.751 2378.73,-309.751"/>
</g>
<!-- Node46 -->
<g id="node46" class="node"><title>Node46</title>
<polygon fill="none" stroke="#bfbfbf" points="3069.73,-280.5 3069.73,-299.5 3120.73,-299.5 3120.73,-280.5 3069.73,-280.5"/>
<text text-anchor="middle" x="3095.23" y="-287.5" font-family="Helvetica,sans-Serif" font-size="10.00">typeinfo</text>
</g>
<!-- Node1&#45;&gt;Node46 -->
<g id="edge60" class="edge"><title>Node1&#45;&gt;Node46</title>
<path fill="none" stroke="midnightblue" d="M2406.93,-344.647C2504.27,-343.191 2807.28,-335.877 3055.23,-300 3056.68,-299.79 3058.16,-299.555 3059.65,-299.301"/>
<polygon fill="midnightblue" stroke="midnightblue" points="3060.36,-302.729 3069.52,-297.402 3059.04,-295.855 3060.36,-302.729"/>
</g>
<!-- Node3 -->
<g id="node3" class="node"><title>Node3</title>
<g id="a_node3"><a xlink:href="_ogre_platform_8h.html" target="_top" xlink:title="OgrePlatform.h">
<polygon fill="none" stroke="black" points="371.728,-112.5 371.728,-131.5 454.728,-131.5 454.728,-112.5 371.728,-112.5"/>
<text text-anchor="middle" x="413.228" y="-119.5" font-family="Helvetica,sans-Serif" font-size="10.00">OgrePlatform.h</text>
</a>
</g>
</g>
<!-- Node2&#45;&gt;Node3 -->
<g id="edge2" class="edge"><title>Node2&#45;&gt;Node3</title>
<path fill="none" stroke="midnightblue" d="M2246.34,-175.514C1976.43,-167.781 735.046,-132.219 465.124,-124.487"/>
<polygon fill="midnightblue" stroke="midnightblue" points="464.926,-120.98 454.83,-124.192 464.726,-127.977 464.926,-120.98"/>
</g>
<!-- Node6 -->
<g id="node6" class="node"><title>Node6</title>
<polygon fill="none" stroke="#bfbfbf" points="159.728,-56.5 159.728,-75.5 200.728,-75.5 200.728,-56.5 159.728,-56.5"/>
<text text-anchor="middle" x="180.228" y="-63.5" font-family="Helvetica,sans-Serif" font-size="10.00">string</text>
</g>
<!-- Node2&#45;&gt;Node6 -->
<g id="edge5" class="edge"><title>Node2&#45;&gt;Node6</title>
<path fill="none" stroke="midnightblue" d="M2246.47,-175.388C2083.48,-170.227 1566.23,-153.199 1138.23,-132 934.89,-121.928 428.827,-113.411 211.134,-75.907"/>
<polygon fill="midnightblue" stroke="midnightblue" points="211.446,-72.4077 200.988,-74.099 210.218,-79.2991 211.446,-72.4077"/>
</g>
<!-- Node7 -->
<g id="node7" class="node"><title>Node7</title>
<g id="a_node7"><a xlink:href="_ogre_std_headers_8h.html" target="_top" xlink:title="OgreStdHeaders.h">
<polygon fill="none" stroke="black" points="1147.23,-112.5 1147.23,-131.5 1245.23,-131.5 1245.23,-112.5 1147.23,-112.5"/>
<text text-anchor="middle" x="1196.23" y="-119.5" font-family="Helvetica,sans-Serif" font-size="10.00">OgreStdHeaders.h</text>
</a>
</g>
</g>
<!-- Node2&#45;&gt;Node7 -->
<g id="edge6" class="edge"><title>Node2&#45;&gt;Node7</title>
<path fill="none" stroke="midnightblue" d="M2246.55,-174.468C2063.87,-165.516 1449.06,-135.389 1255.26,-125.893"/>
<polygon fill="midnightblue" stroke="midnightblue" points="1255.43,-122.397 1245.27,-125.403 1255.08,-129.388 1255.43,-122.397"/>
</g>
<!-- Node37 -->
<g id="node37" class="node"><title>Node37</title>
<g id="a_node37"><a xlink:href="_ogre_memory_allocator_config_8h.html" target="_top" xlink:title="This file configures Ogre&#39;s memory allocators. ">
<polygon fill="none" stroke="black" points="2497.23,-112.5 2497.23,-131.5 2645.23,-131.5 2645.23,-112.5 2497.23,-112.5"/>
<text text-anchor="middle" x="2571.23" y="-119.5" font-family="Helvetica,sans-Serif" font-size="10.00">OgreMemoryAllocatorConfig.h</text>
</a>
</g>
</g>
<!-- Node2&#45;&gt;Node37 -->
<g id="edge37" class="edge"><title>Node2&#45;&gt;Node37</title>
<path fill="none" stroke="midnightblue" d="M2341.49,-168.444C2389.41,-158.964 2466.71,-143.675 2518.23,-133.483"/>
<polygon fill="midnightblue" stroke="midnightblue" points="2519.04,-136.89 2528.17,-131.516 2517.68,-130.023 2519.04,-136.89"/>
</g>
<!-- Node4 -->
<g id="node4" class="node"><title>Node4</title>
<g id="a_node4"><a xlink:href="_ogre_config_8h.html" target="_top" xlink:title="OgreConfig.h">
<polygon fill="none" stroke="black" points="29.2283,-56.5 29.2283,-75.5 103.228,-75.5 103.228,-56.5 29.2283,-56.5"/>
<text text-anchor="middle" x="66.2283" y="-63.5" font-family="Helvetica,sans-Serif" font-size="10.00">OgreConfig.h</text>
</a>
</g>
</g>
<!-- Node3&#45;&gt;Node4 -->
<g id="edge3" class="edge"><title>Node3&#45;&gt;Node4</title>
<path fill="none" stroke="midnightblue" d="M371.717,-114.54C306.781,-104.435 181.563,-84.9484 113.34,-74.3315"/>
<polygon fill="midnightblue" stroke="midnightblue" points="113.719,-70.8485 103.3,-72.7691 112.643,-77.7652 113.719,-70.8485"/>
</g>
<!-- Node5 -->
<g id="node5" class="node"><title>Node5</title>
<polygon fill="none" stroke="#bfbfbf" points="14.2283,-0.5 14.2283,-19.5 118.228,-19.5 118.228,-0.5 14.2283,-0.5"/>
<text text-anchor="middle" x="66.2283" y="-7.5" font-family="Helvetica,sans-Serif" font-size="10.00">OgreBuildSettings.h</text>
</g>
<!-- Node4&#45;&gt;Node5 -->
<g id="edge4" class="edge"><title>Node4&#45;&gt;Node5</title>
<path fill="none" stroke="midnightblue" d="M66.2283,-56.083C66.2283,-49.0059 66.2283,-38.8611 66.2283,-29.9865"/>
<polygon fill="midnightblue" stroke="midnightblue" points="69.7283,-29.751 66.2283,-19.7511 62.7283,-29.7511 69.7283,-29.751"/>
</g>
<!-- Node7&#45;&gt;Node6 -->
<g id="edge16" class="edge"><title>Node7&#45;&gt;Node6</title>
<path fill="none" stroke="midnightblue" d="M1146.91,-119.101C961.712,-111.928 313.489,-86.4168 211.2,-75.4871"/>
<polygon fill="midnightblue" stroke="midnightblue" points="211.353,-71.977 200.981,-74.1367 210.436,-78.9167 211.353,-71.977"/>
</g>
<!-- Node8 -->
<g id="node8" class="node"><title>Node8</title>
<polygon fill="none" stroke="#bfbfbf" points="1759.73,-56.5 1759.73,-75.5 1808.73,-75.5 1808.73,-56.5 1759.73,-56.5"/>
<text text-anchor="middle" x="1784.23" y="-63.5" font-family="Helvetica,sans-Serif" font-size="10.00">cassert</text>
</g>
<!-- Node7&#45;&gt;Node8 -->
<g id="edge7" class="edge"><title>Node7&#45;&gt;Node8</title>
<path fill="none" stroke="midnightblue" d="M1245.24,-120.069C1340.79,-117.598 1558.65,-108.741 1749.54,-76.0093"/>
<polygon fill="midnightblue" stroke="midnightblue" points="1750.22,-79.4437 1759.47,-74.2803 1749.02,-72.5474 1750.22,-79.4437"/>
</g>
<!-- Node9 -->
<g id="node9" class="node"><title>Node9</title>
<polygon fill="none" stroke="#bfbfbf" points="1826.73,-56.5 1826.73,-75.5 1869.73,-75.5 1869.73,-56.5 1826.73,-56.5"/>
<text text-anchor="middle" x="1848.23" y="-63.5" font-family="Helvetica,sans-Serif" font-size="10.00">cstdio</text>
</g>
<!-- Node7&#45;&gt;Node9 -->
<g id="edge8" class="edge"><title>Node7&#45;&gt;Node9</title>
<path fill="none" stroke="midnightblue" d="M1245.37,-120.931C1349.33,-120.036 1599.11,-113.921 1816.68,-75.6687"/>
<polygon fill="midnightblue" stroke="midnightblue" points="1817.46,-79.0851 1826.69,-73.8821 1816.23,-72.194 1817.46,-79.0851"/>
</g>
<!-- Node10 -->
<g id="node10" class="node"><title>Node10</title>
<polygon fill="none" stroke="#bfbfbf" points="1887.73,-56.5 1887.73,-75.5 1932.73,-75.5 1932.73,-56.5 1887.73,-56.5"/>
<text text-anchor="middle" x="1910.23" y="-63.5" font-family="Helvetica,sans-Serif" font-size="10.00">cstdlib</text>
</g>
<!-- Node7&#45;&gt;Node10 -->
<g id="edge9" class="edge"><title>Node7&#45;&gt;Node10</title>
<path fill="none" stroke="midnightblue" d="M1245.43,-121.248C1356.67,-121.061 1635.97,-116.388 1877.61,-75.6956"/>
<polygon fill="midnightblue" stroke="midnightblue" points="1878.37,-79.1168 1887.64,-73.9826 1877.19,-72.2168 1878.37,-79.1168"/>
</g>
<!-- Node11 -->
<g id="node11" class="node"><title>Node11</title>
<polygon fill="none" stroke="#bfbfbf" points="1950.73,-56.5 1950.73,-75.5 1991.73,-75.5 1991.73,-56.5 1950.73,-56.5"/>
<text text-anchor="middle" x="1971.23" y="-63.5" font-family="Helvetica,sans-Serif" font-size="10.00">ctime</text>
</g>
<!-- Node7&#45;&gt;Node11 -->
<g id="edge10" class="edge"><title>Node7&#45;&gt;Node11</title>
<path fill="none" stroke="midnightblue" d="M1245.48,-119.511C1386.06,-115.029 1788.25,-100.549 1940.62,-75.5714"/>
<polygon fill="midnightblue" stroke="midnightblue" points="1941.46,-78.9784 1950.72,-73.833 1940.27,-72.0799 1941.46,-78.9784"/>
</g>
<!-- Node12 -->
<g id="node12" class="node"><title>Node12</title>
<polygon fill="none" stroke="#bfbfbf" points="2010.23,-56.5 2010.23,-75.5 2056.23,-75.5 2056.23,-56.5 2010.23,-56.5"/>
<text text-anchor="middle" x="2033.23" y="-63.5" font-family="Helvetica,sans-Serif" font-size="10.00">cstring</text>
</g>
<!-- Node7&#45;&gt;Node12 -->
<g id="edge11" class="edge"><title>Node7&#45;&gt;Node12</title>
<path fill="none" stroke="midnightblue" d="M1245.28,-119.607C1393.32,-115.195 1834.99,-100.446 1999.93,-75.582"/>
<polygon fill="midnightblue" stroke="midnightblue" points="2000.59,-79.0215 2009.93,-74.0069 1999.5,-72.1069 2000.59,-79.0215"/>
</g>
<!-- Node13 -->
<g id="node13" class="node"><title>Node13</title>
<polygon fill="none" stroke="#bfbfbf" points="2074.73,-56.5 2074.73,-75.5 2123.73,-75.5 2123.73,-56.5 2074.73,-56.5"/>
<text text-anchor="middle" x="2099.23" y="-63.5" font-family="Helvetica,sans-Serif" font-size="10.00">cstdarg</text>
</g>
<!-- Node7&#45;&gt;Node13 -->
<g id="edge12" class="edge"><title>Node7&#45;&gt;Node13</title>
<path fill="none" stroke="midnightblue" d="M1245.27,-119.797C1401.38,-115.76 1886.39,-101.579 2064.45,-75.707"/>
<polygon fill="midnightblue" stroke="midnightblue" points="2065.11,-79.1475 2074.47,-74.1871 2064.06,-72.2267 2065.11,-79.1475"/>
</g>
<!-- Node14 -->
<g id="node14" class="node"><title>Node14</title>
<polygon fill="none" stroke="#bfbfbf" points="2142.23,-56.5 2142.23,-75.5 2186.23,-75.5 2186.23,-56.5 2142.23,-56.5"/>
<text text-anchor="middle" x="2164.23" y="-63.5" font-family="Helvetica,sans-Serif" font-size="10.00">cmath</text>
</g>
<!-- Node7&#45;&gt;Node14 -->
<g id="edge13" class="edge"><title>Node7&#45;&gt;Node14</title>
<path fill="none" stroke="midnightblue" d="M1245.23,-120.106C1409.38,-116.887 1939.8,-104.61 2132,-75.5246"/>
<polygon fill="midnightblue" stroke="midnightblue" points="2132.66,-78.9644 2141.99,-73.9472 2131.57,-72.0501 2132.66,-78.9644"/>
</g>
<!-- Node15 -->
<g id="node15" class="node"><title>Node15</title>
<polygon fill="none" stroke="#bfbfbf" points="2204.23,-56.5 2204.23,-75.5 2248.23,-75.5 2248.23,-56.5 2204.23,-56.5"/>
<text text-anchor="middle" x="2226.23" y="-63.5" font-family="Helvetica,sans-Serif" font-size="10.00">vector</text>
</g>
<!-- Node7&#45;&gt;Node15 -->
<g id="edge14" class="edge"><title>Node7&#45;&gt;Node15</title>
<path fill="none" stroke="midnightblue" d="M1245.48,-120.328C1417.22,-117.748 1989.82,-107.094 2194,-75.7375"/>
<polygon fill="midnightblue" stroke="midnightblue" points="2194.7,-79.1698 2204.02,-74.1316 2193.6,-72.2579 2194.7,-79.1698"/>
</g>
<!-- Node16 -->
<g id="node16" class="node"><title>Node16</title>
<polygon fill="none" stroke="#bfbfbf" points="2266.73,-56.5 2266.73,-75.5 2301.73,-75.5 2301.73,-56.5 2266.73,-56.5"/>
<text text-anchor="middle" x="2284.23" y="-63.5" font-family="Helvetica,sans-Serif" font-size="10.00">map</text>
</g>
<!-- Node7&#45;&gt;Node16 -->
<g id="edge15" class="edge"><title>Node7&#45;&gt;Node16</title>
<path fill="none" stroke="midnightblue" d="M1245.42,-120.732C1424.15,-119.479 2039.6,-112.667 2256.66,-75.4241"/>
<polygon fill="midnightblue" stroke="midnightblue" points="2257.47,-78.8356 2266.7,-73.6275 2256.23,-71.9453 2257.47,-78.8356"/>
</g>
<!-- Node17 -->
<g id="node17" class="node"><title>Node17</title>
<polygon fill="none" stroke="#bfbfbf" points="2320.23,-56.5 2320.23,-75.5 2350.23,-75.5 2350.23,-56.5 2320.23,-56.5"/>
<text text-anchor="middle" x="2335.23" y="-63.5" font-family="Helvetica,sans-Serif" font-size="10.00">set</text>
</g>
<!-- Node7&#45;&gt;Node17 -->
<g id="edge17" class="edge"><title>Node7&#45;&gt;Node17</title>
<path fill="none" stroke="midnightblue" d="M1245.31,-121C1432.56,-120.695 2101.86,-116.715 2310.23,-76 2310.33,-75.9801 2310.43,-75.9598 2310.53,-75.9393"/>
<polygon fill="midnightblue" stroke="midnightblue" points="2311.4,-79.3301 2320.1,-73.2776 2309.53,-72.5863 2311.4,-79.3301"/>
</g>
<!-- Node18 -->
<g id="node18" class="node"><title>Node18</title>
<polygon fill="none" stroke="#bfbfbf" points="218.728,-56.5 218.728,-75.5 247.728,-75.5 247.728,-56.5 218.728,-56.5"/>
<text text-anchor="middle" x="233.228" y="-63.5" font-family="Helvetica,sans-Serif" font-size="10.00">list</text>
</g>
<!-- Node7&#45;&gt;Node18 -->
<g id="edge18" class="edge"><title>Node7&#45;&gt;Node18</title>
<path fill="none" stroke="midnightblue" d="M1147.02,-119.088C967.836,-112.068 355.89,-87.5955 258.085,-75.2179"/>
<polygon fill="midnightblue" stroke="midnightblue" points="258.532,-71.7451 248.106,-73.6265 257.43,-78.6578 258.532,-71.7451"/>
</g>
<!-- Node19 -->
<g id="node19" class="node"><title>Node19</title>
<polygon fill="none" stroke="#bfbfbf" points="265.728,-56.5 265.728,-75.5 308.728,-75.5 308.728,-56.5 265.728,-56.5"/>
<text text-anchor="middle" x="287.228" y="-63.5" font-family="Helvetica,sans-Serif" font-size="10.00">deque</text>
</g>
<!-- Node7&#45;&gt;Node19 -->
<g id="edge19" class="edge"><title>Node7&#45;&gt;Node19</title>
<path fill="none" stroke="midnightblue" d="M1146.93,-119.169C979.279,-112.849 435.541,-91.5652 319.208,-75.7634"/>
<polygon fill="midnightblue" stroke="midnightblue" points="319.453,-72.2601 309.038,-74.2038 318.392,-79.1792 319.453,-72.2601"/>
</g>
<!-- Node20 -->
<g id="node20" class="node"><title>Node20</title>
<polygon fill="none" stroke="#bfbfbf" points="326.728,-56.5 326.728,-75.5 369.728,-75.5 369.728,-56.5 326.728,-56.5"/>
<text text-anchor="middle" x="348.228" y="-63.5" font-family="Helvetica,sans-Serif" font-size="10.00">queue</text>
</g>
<!-- Node7&#45;&gt;Node20 -->
<g id="edge20" class="edge"><title>Node7&#45;&gt;Node20</title>
<path fill="none" stroke="midnightblue" d="M1146.95,-118.969C987.409,-112.302 489.381,-90.7499 380.144,-75.7598"/>
<polygon fill="midnightblue" stroke="midnightblue" points="380.458,-72.2667 370.04,-74.1939 379.386,-79.1841 380.458,-72.2667"/>
</g>
<!-- Node21 -->
<g id="node21" class="node"><title>Node21</title>
<polygon fill="none" stroke="#bfbfbf" points="387.728,-56.5 387.728,-75.5 428.728,-75.5 428.728,-56.5 387.728,-56.5"/>
<text text-anchor="middle" x="408.228" y="-63.5" font-family="Helvetica,sans-Serif" font-size="10.00">bitset</text>
</g>
<!-- Node7&#45;&gt;Node21 -->
<g id="edge21" class="edge"><title>Node7&#45;&gt;Node21</title>
<path fill="none" stroke="midnightblue" d="M1147.15,-119.575C1005.08,-115.219 594.276,-100.942 439.024,-75.6003"/>
<polygon fill="midnightblue" stroke="midnightblue" points="439.181,-72.0762 428.733,-73.8359 437.998,-78.9755 439.181,-72.0762"/>
</g>
<!-- Node22 -->
<g id="node22" class="node"><title>Node22</title>
<polygon fill="none" stroke="#bfbfbf" points="447.228,-56.5 447.228,-75.5 503.228,-75.5 503.228,-56.5 447.228,-56.5"/>
<text text-anchor="middle" x="475.228" y="-63.5" font-family="Helvetica,sans-Serif" font-size="10.00">algorithm</text>
</g>
<!-- Node7&#45;&gt;Node22 -->
<g id="edge22" class="edge"><title>Node7&#45;&gt;Node22</title>
<path fill="none" stroke="midnightblue" d="M1146.99,-118.869C1014.77,-112.976 653.104,-95.6769 513.469,-75.8777"/>
<polygon fill="midnightblue" stroke="midnightblue" points="513.815,-72.3909 503.41,-74.3867 512.788,-79.3152 513.815,-72.3909"/>
</g>
<!-- Node23 -->
<g id="node23" class="node"><title>Node23</title>
<polygon fill="none" stroke="#bfbfbf" points="521.728,-56.5 521.728,-75.5 580.728,-75.5 580.728,-56.5 521.728,-56.5"/>
<text text-anchor="middle" x="551.228" y="-63.5" font-family="Helvetica,sans-Serif" font-size="10.00">functional</text>
</g>
<!-- Node7&#45;&gt;Node23 -->
<g id="edge23" class="edge"><title>Node7&#45;&gt;Node23</title>
<path fill="none" stroke="midnightblue" d="M1146.85,-119.884C1044.79,-117.028 803.157,-107.42 591.027,-75.8699"/>
<polygon fill="midnightblue" stroke="midnightblue" points="591.359,-72.3804 580.949,-74.3509 590.315,-79.3023 591.359,-72.3804"/>
</g>
<!-- Node24 -->
<g id="node24" class="node"><title>Node24</title>
<polygon fill="none" stroke="#bfbfbf" points="599.228,-56.5 599.228,-75.5 639.228,-75.5 639.228,-56.5 599.228,-56.5"/>
<text text-anchor="middle" x="619.228" y="-63.5" font-family="Helvetica,sans-Serif" font-size="10.00">limits</text>
</g>
<!-- Node7&#45;&gt;Node24 -->
<g id="edge24" class="edge"><title>Node7&#45;&gt;Node24</title>
<path fill="none" stroke="midnightblue" d="M1146.99,-120.554C1052.12,-118.919 837.52,-111.458 649.435,-75.8087"/>
<polygon fill="midnightblue" stroke="midnightblue" points="649.847,-72.3238 639.366,-73.868 648.522,-79.1973 649.847,-72.3238"/>
</g>
<!-- Node25 -->
<g id="node25" class="node"><title>Node25</title>
<polygon fill="none" stroke="#bfbfbf" points="657.228,-56.5 657.228,-75.5 707.228,-75.5 707.228,-56.5 657.228,-56.5"/>
<text text-anchor="middle" x="682.228" y="-63.5" font-family="Helvetica,sans-Serif" font-size="10.00">fstream</text>
</g>
<!-- Node7&#45;&gt;Node25 -->
<g id="edge25" class="edge"><title>Node7&#45;&gt;Node25</title>
<path fill="none" stroke="midnightblue" d="M1147.15,-119.078C1061.66,-115.148 879.834,-104.215 717.543,-75.9506"/>
<polygon fill="midnightblue" stroke="midnightblue" points="717.833,-72.4476 707.376,-74.1524 716.613,-79.3406 717.833,-72.4476"/>
</g>
<!-- Node26 -->
<g id="node26" class="node"><title>Node26</title>
<polygon fill="none" stroke="#bfbfbf" points="725.728,-56.5 725.728,-75.5 770.728,-75.5 770.728,-56.5 725.728,-56.5"/>
<text text-anchor="middle" x="748.228" y="-63.5" font-family="Helvetica,sans-Serif" font-size="10.00">iosfwd</text>
</g>
<!-- Node7&#45;&gt;Node26 -->
<g id="edge26" class="edge"><title>Node7&#45;&gt;Node26</title>
<path fill="none" stroke="midnightblue" d="M1147.16,-118.344C1070.79,-113.631 918.802,-101.935 780.756,-75.7716"/>
<polygon fill="midnightblue" stroke="midnightblue" points="781.324,-72.3167 770.842,-73.8627 780,-79.1904 781.324,-72.3167"/>
</g>
<!-- Node27 -->
<g id="node27" class="node"><title>Node27</title>
<polygon fill="none" stroke="#bfbfbf" points="789.228,-56.5 789.228,-75.5 841.228,-75.5 841.228,-56.5 789.228,-56.5"/>
<text text-anchor="middle" x="815.228" y="-63.5" font-family="Helvetica,sans-Serif" font-size="10.00">sstream</text>
</g>
<!-- Node7&#45;&gt;Node27 -->
<g id="edge27" class="edge"><title>Node7&#45;&gt;Node27</title>
<path fill="none" stroke="midnightblue" d="M1147.22,-116.534C1081.87,-110.157 962.466,-97.0433 851.542,-76.0516"/>
<polygon fill="midnightblue" stroke="midnightblue" points="852.004,-72.5765 841.523,-74.1294 850.685,-79.4511 852.004,-72.5765"/>
</g>
<!-- Node28 -->
<g id="node28" class="node"><title>Node28</title>
<polygon fill="none" stroke="#bfbfbf" points="859.228,-56.5 859.228,-75.5 927.228,-75.5 927.228,-56.5 859.228,-56.5"/>
<text text-anchor="middle" x="893.228" y="-63.5" font-family="Helvetica,sans-Serif" font-size="10.00">sys/types.h</text>
</g>
<!-- Node7&#45;&gt;Node28 -->
<g id="edge28" class="edge"><title>Node7&#45;&gt;Node28</title>
<path fill="none" stroke="midnightblue" d="M1146.77,-112.969C1096.55,-104.694 1016.27,-91.1437 937.562,-76.2045"/>
<polygon fill="midnightblue" stroke="midnightblue" points="937.953,-72.716 927.474,-74.2803 936.641,-79.592 937.953,-72.716"/>
</g>
<!-- Node29 -->
<g id="node29" class="node"><title>Node29</title>
<polygon fill="none" stroke="#bfbfbf" points="945.228,-56.5 945.228,-75.5 1005.23,-75.5 1005.23,-56.5 945.228,-56.5"/>
<text text-anchor="middle" x="975.228" y="-63.5" font-family="Helvetica,sans-Serif" font-size="10.00">sys/stat.h</text>
</g>
<!-- Node7&#45;&gt;Node29 -->
<g id="edge29" class="edge"><title>Node7&#45;&gt;Node29</title>
<path fill="none" stroke="midnightblue" d="M1161.21,-112.444C1121.52,-102.745 1056.94,-86.9654 1015.28,-76.7857"/>
<polygon fill="midnightblue" stroke="midnightblue" points="1016.01,-73.3621 1005.47,-74.3884 1014.35,-80.1621 1016.01,-73.3621"/>
</g>
<!-- Node30 -->
<g id="node30" class="node"><title>Node30</title>
<polygon fill="none" stroke="#bfbfbf" points="1023.73,-56.5 1023.73,-75.5 1074.73,-75.5 1074.73,-56.5 1023.73,-56.5"/>
<text text-anchor="middle" x="1049.23" y="-63.5" font-family="Helvetica,sans-Serif" font-size="10.00">unistd.h</text>
</g>
<!-- Node7&#45;&gt;Node30 -->
<g id="edge30" class="edge"><title>Node7&#45;&gt;Node30</title>
<path fill="none" stroke="midnightblue" d="M1172.94,-112.444C1148.42,-103.438 1109.63,-89.1891 1082.03,-79.049"/>
<polygon fill="midnightblue" stroke="midnightblue" points="1083.01,-75.6793 1072.41,-75.5164 1080.59,-82.25 1083.01,-75.6793"/>
</g>
<!-- Node31 -->
<g id="node31" class="node"><title>Node31</title>
<polygon fill="none" stroke="#bfbfbf" points="1093.23,-56.5 1093.23,-75.5 1139.23,-75.5 1139.23,-56.5 1093.23,-56.5"/>
<text text-anchor="middle" x="1116.23" y="-63.5" font-family="Helvetica,sans-Serif" font-size="10.00">dlfcn.h</text>
</g>
<!-- Node7&#45;&gt;Node31 -->
<g id="edge31" class="edge"><title>Node7&#45;&gt;Node31</title>
<path fill="none" stroke="midnightblue" d="M1183.37,-112.324C1171.01,-103.979 1152.1,-91.2122 1137.49,-81.3524"/>
<polygon fill="midnightblue" stroke="midnightblue" points="1139.3,-78.3483 1129.05,-75.6545 1135.38,-84.1503 1139.3,-78.3483"/>
</g>
<!-- Node32 -->
<g id="node32" class="node"><title>Node32</title>
<polygon fill="none" stroke="#bfbfbf" points="1157.23,-56.5 1157.23,-75.5 1235.23,-75.5 1235.23,-56.5 1157.23,-56.5"/>
<text text-anchor="middle" x="1196.23" y="-63.5" font-family="Helvetica,sans-Serif" font-size="10.00">ext/hash_map</text>
</g>
<!-- Node7&#45;&gt;Node32 -->
<g id="edge32" class="edge"><title>Node7&#45;&gt;Node32</title>
<path fill="none" stroke="midnightblue" d="M1196.23,-112.083C1196.23,-105.006 1196.23,-94.8611 1196.23,-85.9865"/>
<polygon fill="midnightblue" stroke="midnightblue" points="1199.73,-85.751 1196.23,-75.7511 1192.73,-85.7511 1199.73,-85.751"/>
</g>
<!-- Node33 -->
<g id="node33" class="node"><title>Node33</title>
<polygon fill="none" stroke="#bfbfbf" points="1253.73,-56.5 1253.73,-75.5 1326.73,-75.5 1326.73,-56.5 1253.73,-56.5"/>
<text text-anchor="middle" x="1290.23" y="-63.5" font-family="Helvetica,sans-Serif" font-size="10.00">ext/hash_set</text>
</g>
<!-- Node7&#45;&gt;Node33 -->
<g id="edge33" class="edge"><title>Node7&#45;&gt;Node33</title>
<path fill="none" stroke="midnightblue" d="M1211.33,-112.324C1226.13,-103.822 1248.92,-90.7288 1266.21,-80.7975"/>
<polygon fill="midnightblue" stroke="midnightblue" points="1268.24,-83.6707 1275.16,-75.6545 1264.75,-77.6009 1268.24,-83.6707"/>
</g>
<!-- Node34 -->
<g id="node34" class="node"><title>Node34</title>
<polygon fill="none" stroke="#bfbfbf" points="1344.73,-56.5 1344.73,-75.5 1415.73,-75.5 1415.73,-56.5 1344.73,-56.5"/>
<text text-anchor="middle" x="1380.23" y="-63.5" font-family="Helvetica,sans-Serif" font-size="10.00">sys/param.h</text>
</g>
<!-- Node7&#45;&gt;Node34 -->
<g id="edge34" class="edge"><title>Node7&#45;&gt;Node34</title>
<path fill="none" stroke="midnightblue" d="M1225.38,-112.444C1256.74,-103.241 1306.76,-88.5617 1341.42,-78.3879"/>
<polygon fill="midnightblue" stroke="midnightblue" points="1342.6,-81.6909 1351.21,-75.5164 1340.63,-74.9742 1342.6,-81.6909"/>
</g>
<!-- Node35 -->
<g id="node35" class="node"><title>Node35</title>
<polygon fill="none" stroke="#bfbfbf" points="1434.23,-56.5 1434.23,-75.5 1600.23,-75.5 1600.23,-56.5 1434.23,-56.5"/>
<text text-anchor="middle" x="1517.23" y="-63.5" font-family="Helvetica,sans-Serif" font-size="10.00">CoreFoundation/CoreFoundation.h</text>
</g>
<!-- Node7&#45;&gt;Node35 -->
<g id="edge35" class="edge"><title>Node7&#45;&gt;Node35</title>
<path fill="none" stroke="midnightblue" d="M1245.33,-112.74C1302.06,-103.196 1395.43,-87.489 1456.63,-77.1939"/>
<polygon fill="midnightblue" stroke="midnightblue" points="1457.26,-80.6373 1466.54,-75.5268 1456.1,-73.7343 1457.26,-80.6373"/>
</g>
<!-- Node36 -->
<g id="node36" class="node"><title>Node36</title>
<polygon fill="none" stroke="#bfbfbf" points="1618.23,-56.5 1618.23,-75.5 1742.23,-75.5 1742.23,-56.5 1618.23,-56.5"/>
<text text-anchor="middle" x="1680.23" y="-63.5" font-family="Helvetica,sans-Serif" font-size="10.00">emscripten/emscripten.h</text>
</g>
<!-- Node7&#45;&gt;Node36 -->
<g id="edge36" class="edge"><title>Node7&#45;&gt;Node36</title>
<path fill="none" stroke="midnightblue" d="M1245.53,-115.911C1321.11,-108.047 1470.45,-92.2642 1607.62,-76.1724"/>
<polygon fill="midnightblue" stroke="midnightblue" points="1608.38,-79.6082 1617.9,-74.9639 1607.56,-72.6562 1608.38,-79.6082"/>
</g>
<!-- Node38 -->
<g id="node38" class="node"><title>Node38</title>
<g id="a_node38"><a xlink:href="_ogre_memory_allocated_object_8h.html" target="_top" xlink:title="OgreMemoryAllocatedObject.h">
<polygon fill="none" stroke="black" points="2444.23,-56.5 2444.23,-75.5 2594.23,-75.5 2594.23,-56.5 2444.23,-56.5"/>
<text text-anchor="middle" x="2519.23" y="-63.5" font-family="Helvetica,sans-Serif" font-size="10.00">OgreMemoryAllocatedObject.h</text>
</a>
</g>
</g>
<!-- Node37&#45;&gt;Node38 -->
<g id="edge38" class="edge"><title>Node37&#45;&gt;Node38</title>
<path fill="none" stroke="midnightblue" d="M2562.64,-112.083C2555.07,-104.22 2543.85,-92.5688 2534.71,-83.0813"/>
<polygon fill="midnightblue" stroke="midnightblue" points="2537.11,-80.5266 2527.66,-75.7511 2532.07,-85.3821 2537.11,-80.5266"/>
</g>
<!-- Node37&#45;&gt;Node39 -->
<g id="edge42" class="edge"><title>Node37&#45;&gt;Node39</title>
<path fill="none" stroke="midnightblue" d="M2645.35,-120.286C2732.44,-117.913 2869.94,-108.88 2908.23,-76 2921.45,-64.6467 2925.73,-44.6509 2926.99,-29.8262"/>
<polygon fill="midnightblue" stroke="midnightblue" points="2930.49,-29.8794 2927.46,-19.7263 2923.5,-29.5512 2930.49,-29.8794"/>
</g>
<!-- Node37&#45;&gt;Node40 -->
<g id="edge50" class="edge"><title>Node37&#45;&gt;Node40</title>
<path fill="none" stroke="midnightblue" d="M2505.43,-112.469C2480.5,-106.147 2453.71,-95.1446 2435.23,-76 2423.37,-63.7197 2418.85,-44.4616 2417.16,-30.0905"/>
<polygon fill="midnightblue" stroke="midnightblue" points="2420.63,-29.5219 2416.33,-19.8394 2413.65,-30.0908 2420.63,-29.5219"/>
</g>
<!-- Node41 -->
<g id="node41" class="node"><title>Node41</title>
<g id="a_node41"><a xlink:href="_ogre_memory_s_t_l_allocator_8h.html" target="_top" xlink:title="OgreMemorySTLAllocator.h">
<polygon fill="none" stroke="black" points="2761.73,-56.5 2761.73,-75.5 2898.73,-75.5 2898.73,-56.5 2761.73,-56.5"/>
<text text-anchor="middle" x="2830.23" y="-63.5" font-family="Helvetica,sans-Serif" font-size="10.00">OgreMemorySTLAllocator.h</text>
</a>
</g>
</g>
<!-- Node37&#45;&gt;Node41 -->
<g id="edge43" class="edge"><title>Node37&#45;&gt;Node41</title>
<path fill="none" stroke="midnightblue" d="M2612.27,-112.444C2657.54,-103.004 2730.46,-87.802 2779.33,-77.6111"/>
<polygon fill="midnightblue" stroke="midnightblue" points="2780.31,-80.9839 2789.38,-75.5164 2778.88,-74.1312 2780.31,-80.9839"/>
</g>
<!-- Node42 -->
<g id="node42" class="node"><title>Node42</title>
<g id="a_node42"><a xlink:href="_ogre_memory_ned_pooling_8h.html" target="_top" xlink:title="OgreMemoryNedPooling.h">
<polygon fill="none" stroke="black" points="2612.73,-56.5 2612.73,-75.5 2743.73,-75.5 2743.73,-56.5 2612.73,-56.5"/>
<text text-anchor="middle" x="2678.23" y="-63.5" font-family="Helvetica,sans-Serif" font-size="10.00">OgreMemoryNedPooling.h</text>
</a>
</g>
</g>
<!-- Node37&#45;&gt;Node42 -->
<g id="edge47" class="edge"><title>Node37&#45;&gt;Node42</title>
<path fill="none" stroke="midnightblue" d="M2588.42,-112.324C2605.58,-103.664 2632.17,-90.2424 2651.98,-80.249"/>
<polygon fill="midnightblue" stroke="midnightblue" points="2653.73,-83.2847 2661.08,-75.6545 2650.58,-77.0354 2653.73,-83.2847"/>
</g>
<!-- Node38&#45;&gt;Node2 -->
<g id="edge39" class="edge"><title>Node38&#45;&gt;Node2</title>
<path fill="none" stroke="midnightblue" d="M2501.97,-75.5914C2463.47,-94.7509 2370.4,-141.078 2324.59,-163.878"/>
<polygon fill="midnightblue" stroke="midnightblue" points="2322.96,-160.779 2315.57,-168.368 2326.08,-167.046 2322.96,-160.779"/>
</g>
<!-- Node38&#45;&gt;Node39 -->
<g id="edge40" class="edge"><title>Node38&#45;&gt;Node39</title>
<path fill="none" stroke="midnightblue" d="M2583.88,-56.4435C2661.03,-46.2325 2789.11,-29.2801 2865.12,-19.22"/>
<polygon fill="midnightblue" stroke="midnightblue" points="2866.04,-22.6295 2875.49,-17.8476 2865.12,-15.69 2866.04,-22.6295"/>
</g>
<!-- Node38&#45;&gt;Node40 -->
<g id="edge41" class="edge"><title>Node38&#45;&gt;Node40</title>
<path fill="none" stroke="midnightblue" d="M2502.68,-56.324C2486.24,-47.7034 2460.79,-34.3643 2441.76,-24.3855"/>
<polygon fill="midnightblue" stroke="midnightblue" points="2443.22,-21.198 2432.74,-19.6545 2439.97,-27.3977 2443.22,-21.198"/>
</g>
<!-- Node41&#45;&gt;Node2 -->
<g id="edge44" class="edge"><title>Node41&#45;&gt;Node2</title>
<path fill="none" stroke="midnightblue" d="M2811.4,-75.5813C2779.68,-89.6695 2713.24,-117.574 2654.23,-132 2552.86,-156.781 2431.72,-168.399 2360.09,-173.47"/>
<polygon fill="midnightblue" stroke="midnightblue" points="2359.63,-169.993 2349.89,-174.171 2360.11,-176.977 2359.63,-169.993"/>
</g>
<!-- Node41&#45;&gt;Node39 -->
<g id="edge45" class="edge"><title>Node41&#45;&gt;Node39</title>
<path fill="none" stroke="midnightblue" d="M2845.81,-56.324C2861.23,-47.7428 2885.04,-34.486 2902.94,-24.5224"/>
<polygon fill="midnightblue" stroke="midnightblue" points="2904.65,-27.5767 2911.68,-19.6545 2901.24,-21.4606 2904.65,-27.5767"/>
</g>
<!-- Node41&#45;&gt;Node40 -->
<g id="edge46" class="edge"><title>Node41&#45;&gt;Node40</title>
<path fill="none" stroke="midnightblue" d="M2764.63,-56.4435C2685.86,-46.1689 2554.76,-29.0687 2477.81,-19.0329"/>
<polygon fill="midnightblue" stroke="midnightblue" points="2478.16,-15.5479 2467.79,-17.7251 2477.25,-22.4891 2478.16,-15.5479"/>
</g>
<!-- Node42&#45;&gt;Node39 -->
<g id="edge48" class="edge"><title>Node42&#45;&gt;Node39</title>
<path fill="none" stroke="midnightblue" d="M2717.68,-56.4435C2761.12,-47.0234 2831.01,-31.8656 2878,-21.6752"/>
<polygon fill="midnightblue" stroke="midnightblue" points="2878.93,-25.0564 2887.96,-19.5164 2877.44,-18.2154 2878.93,-25.0564"/>
</g>
<!-- Node42&#45;&gt;Node40 -->
<g id="edge49" class="edge"><title>Node42&#45;&gt;Node40</title>
<path fill="none" stroke="midnightblue" d="M2636.71,-56.4435C2590.82,-46.9839 2516.85,-31.7384 2467.4,-21.5472"/>
<polygon fill="midnightblue" stroke="midnightblue" points="2468.05,-18.1072 2457.55,-19.5164 2466.64,-24.9631 2468.05,-18.1072"/>
</g>
<!-- Node43&#45;&gt;Node2 -->
<g id="edge52" class="edge"><title>Node43&#45;&gt;Node2</title>
<path fill="none" stroke="midnightblue" d="M2366.95,-280.435C2358.69,-271.664 2345.86,-257.448 2336.23,-244 2325.31,-228.757 2314.7,-210.189 2307.48,-196.808"/>
<polygon fill="midnightblue" stroke="midnightblue" points="2310.44,-194.925 2302.66,-187.727 2304.25,-198.202 2310.44,-194.925"/>
</g>
<!-- Node43&#45;&gt;Node39 -->
<g id="edge58" class="edge"><title>Node43&#45;&gt;Node39</title>
<path fill="none" stroke="midnightblue" d="M2419.89,-285.908C2563.36,-275.385 3003.23,-238.287 3003.23,-179 3003.23,-179 3003.23,-179 3003.23,-121 3003.23,-81.2757 2969.26,-45.5045 2946.75,-26.1536"/>
<polygon fill="midnightblue" stroke="midnightblue" points="2948.71,-23.2364 2938.77,-19.5672 2944.25,-28.6337 2948.71,-23.2364"/>
</g>
<!-- Node43&#45;&gt;Node40 -->
<g id="edge59" class="edge"><title>Node43&#45;&gt;Node40</title>
<path fill="none" stroke="midnightblue" d="M2330.66,-289.221C2015.14,-290.502 131.228,-293.364 131.228,-179 131.228,-179 131.228,-179 131.228,-121 131.228,-90.9022 126.325,-74.2898 150.228,-56 195.243,-21.5567 1995.89,-12.6577 2354.49,-11.2256"/>
<polygon fill="midnightblue" stroke="midnightblue" points="2354.69,-14.7249 2364.68,-11.1854 2354.66,-7.725 2354.69,-14.7249"/>
</g>
<!-- Node44 -->
<g id="node44" class="node"><title>Node44</title>
<g id="a_node44"><a xlink:href="_ogre_string_8h.html" target="_top" xlink:title="OgreString.h">
<polygon fill="none" stroke="black" points="2422.73,-224.5 2422.73,-243.5 2493.73,-243.5 2493.73,-224.5 2422.73,-224.5"/>
<text text-anchor="middle" x="2458.23" y="-231.5" font-family="Helvetica,sans-Serif" font-size="10.00">OgreString.h</text>
</a>
</g>
</g>
<!-- Node43&#45;&gt;Node44 -->
<g id="edge53" class="edge"><title>Node43&#45;&gt;Node44</title>
<path fill="none" stroke="midnightblue" d="M2388.56,-280.324C2401.39,-271.979 2421.01,-259.212 2436.17,-249.352"/>
<polygon fill="midnightblue" stroke="midnightblue" points="2438.45,-252.042 2444.93,-243.655 2434.64,-246.174 2438.45,-252.042"/>
</g>
<!-- Node45 -->
<g id="node45" class="node"><title>Node45</title>
<polygon fill="none" stroke="#bfbfbf" points="2345.73,-224.5 2345.73,-243.5 2404.73,-243.5 2404.73,-224.5 2345.73,-224.5"/>
<text text-anchor="middle" x="2375.23" y="-231.5" font-family="Helvetica,sans-Serif" font-size="10.00">exception</text>
</g>
<!-- Node43&#45;&gt;Node45 -->
<g id="edge57" class="edge"><title>Node43&#45;&gt;Node45</title>
<path fill="none" stroke="midnightblue" d="M2375.23,-280.083C2375.23,-273.006 2375.23,-262.861 2375.23,-253.986"/>
<polygon fill="midnightblue" stroke="midnightblue" points="2378.73,-253.751 2375.23,-243.751 2371.73,-253.751 2378.73,-253.751"/>
</g>
<!-- Node44&#45;&gt;Node2 -->
<g id="edge54" class="edge"><title>Node44&#45;&gt;Node2</title>
<path fill="none" stroke="midnightblue" d="M2432.88,-224.444C2405.96,-215.359 2363.23,-200.939 2333.14,-190.783"/>
<polygon fill="midnightblue" stroke="midnightblue" points="2334.06,-187.398 2323.46,-187.516 2331.82,-194.031 2334.06,-187.398"/>
</g>
<!-- Node44&#45;&gt;Node39 -->
<g id="edge55" class="edge"><title>Node44&#45;&gt;Node39</title>
<path fill="none" stroke="midnightblue" d="M2493.82,-233.829C2584.6,-233.765 2824.9,-219.453 2928.23,-76 2937.81,-62.704 2936.2,-43.5823 2933.01,-29.5195"/>
<polygon fill="midnightblue" stroke="midnightblue" points="2936.3,-28.2681 2930.3,-19.534 2929.54,-30.1016 2936.3,-28.2681"/>
</g>
<!-- Node44&#45;&gt;Node40 -->
<g id="edge56" class="edge"><title>Node44&#45;&gt;Node40</title>
<path fill="none" stroke="midnightblue" d="M2455.53,-224.255C2448.38,-200.625 2428.87,-133.404 2420.23,-76 2417.91,-60.6083 2416.93,-42.9728 2416.52,-29.9582"/>
<polygon fill="midnightblue" stroke="midnightblue" points="2420.01,-29.7989 2416.28,-19.8833 2413.02,-29.9622 2420.01,-29.7989"/>
</g>
</g>
</svg>
