<?xml version="1.0" encoding="UTF-8" standalone="no"?>
<!DOCTYPE svg PUBLIC "-//W3C//DTD SVG 1.1//EN"
 "http://www.w3.org/Graphics/SVG/1.1/DTD/svg11.dtd">
<!-- Generated by graphviz version 2.38.0 (20140413.2041)
 -->
<!-- Title: OgreMaterialSerializer.h Pages: 1 -->
<svg width="1141pt" height="319pt"
 viewBox="0.00 0.00 1141.00 319.00" xmlns="http://www.w3.org/2000/svg" xmlns:xlink="http://www.w3.org/1999/xlink">
<g id="graph0" class="graph" transform="scale(1 1) rotate(0) translate(4 315)">
<title>OgreMaterialSerializer.h</title>
<!-- Node1 -->
<g id="node1" class="node"><title>Node1</title>
<polygon fill="#bfbfbf" stroke="black" points="541,-291.5 541,-310.5 662,-310.5 662,-291.5 541,-291.5"/>
<text text-anchor="middle" x="601.5" y="-298.5" font-family="Helvetica,sans-Serif" font-size="10.00">OgreMaterialSerializer.h</text>
</g>
<!-- Node2 -->
<g id="node2" class="node"><title>Node2</title>
<g id="a_node2"><a xlink:href="_ogre_8h.html" target="_top" xlink:title="Ogre.h">
<polygon fill="none" stroke="black" points="394.5,-230 394.5,-249 440.5,-249 440.5,-230 394.5,-230"/>
<text text-anchor="middle" x="417.5" y="-237" font-family="Helvetica,sans-Serif" font-size="10.00">Ogre.h</text>
</a>
</g>
</g>
<!-- Node1&#45;&gt;Node2 -->
<g id="edge1" class="edge"><title>Node1&#45;&gt;Node2</title>
<path fill="none" stroke="midnightblue" d="M565.252,-288.279C528.259,-276.316 471.958,-258.11 440.616,-247.975"/>
<polygon fill="midnightblue" stroke="midnightblue" points="564.545,-291.728 575.137,-291.475 566.699,-285.068 564.545,-291.728"/>
</g>
<!-- Node13 -->
<g id="node13" class="node"><title>Node13</title>
<g id="a_node13"><a xlink:href="_ogre_shader_material_serializer_listener_8h.html" target="_top" xlink:title="OgreShaderMaterialSerializer\lListener.h">
<polygon fill="none" stroke="black" points="715,-224.5 715,-254.5 858,-254.5 858,-224.5 715,-224.5"/>
<text text-anchor="start" x="723" y="-242.5" font-family="Helvetica,sans-Serif" font-size="10.00">OgreShaderMaterialSerializer</text>
<text text-anchor="middle" x="786.5" y="-231.5" font-family="Helvetica,sans-Serif" font-size="10.00">Listener.h</text>
</a>
</g>
</g>
<!-- Node1&#45;&gt;Node13 -->
<g id="edge20" class="edge"><title>Node1&#45;&gt;Node13</title>
<path fill="none" stroke="midnightblue" d="M637.701,-288.357C667.845,-278.662 710.864,-264.826 742.899,-254.523"/>
<polygon fill="midnightblue" stroke="midnightblue" points="636.454,-285.081 628.006,-291.475 638.597,-291.745 636.454,-285.081"/>
</g>
<!-- Node3 -->
<g id="node3" class="node"><title>Node3</title>
<g id="a_node3"><a xlink:href="_ogre_hlms_datablock_8h.html" target="_top" xlink:title="OgreHlmsDatablock.h">
<polygon fill="none" stroke="black" points="93,-112.5 93,-131.5 206,-131.5 206,-112.5 93,-112.5"/>
<text text-anchor="middle" x="149.5" y="-119.5" font-family="Helvetica,sans-Serif" font-size="10.00">OgreHlmsDatablock.h</text>
</a>
</g>
</g>
<!-- Node2&#45;&gt;Node3 -->
<g id="edge2" class="edge"><title>Node2&#45;&gt;Node3</title>
<path fill="none" stroke="midnightblue" d="M384.11,-238.471C309.573,-237.624 133.277,-231.015 96.5,-188 79.4682,-168.079 112.59,-144.037 133.757,-131.518"/>
<polygon fill="midnightblue" stroke="midnightblue" points="384.311,-241.973 394.341,-238.558 384.371,-234.973 384.311,-241.973"/>
</g>
<!-- Node4 -->
<g id="node4" class="node"><title>Node4</title>
<g id="a_node4"><a xlink:href="_ogre_hlms_material_base_8h.html" target="_top" xlink:title="OgreHlmsMaterialBase.h">
<polygon fill="none" stroke="black" points="57.5,-56.5 57.5,-75.5 183.5,-75.5 183.5,-56.5 57.5,-56.5"/>
<text text-anchor="middle" x="120.5" y="-63.5" font-family="Helvetica,sans-Serif" font-size="10.00">OgreHlmsMaterialBase.h</text>
</a>
</g>
</g>
<!-- Node2&#45;&gt;Node4 -->
<g id="edge14" class="edge"><title>Node2&#45;&gt;Node4</title>
<path fill="none" stroke="midnightblue" d="M384.095,-238.374C308.594,-237.334 128.268,-230.367 88.5,-188 65.3328,-163.319 72.0813,-143.867 83.5,-112 88.7541,-97.337 101.076,-84.0309 110.062,-75.7555"/>
<polygon fill="midnightblue" stroke="midnightblue" points="384.406,-241.877 394.444,-238.488 384.483,-234.878 384.406,-241.877"/>
</g>
<!-- Node5 -->
<g id="node5" class="node"><title>Node5</title>
<g id="a_node5"><a xlink:href="_ogre_hlms_pbs_material_8h.html" target="_top" xlink:title="OgreHlmsPbsMaterial.h">
<polygon fill="none" stroke="black" points="0,-0.5 0,-19.5 121,-19.5 121,-0.5 0,-0.5"/>
<text text-anchor="middle" x="60.5" y="-7.5" font-family="Helvetica,sans-Serif" font-size="10.00">OgreHlmsPbsMaterial.h</text>
</a>
</g>
</g>
<!-- Node2&#45;&gt;Node5 -->
<g id="edge15" class="edge"><title>Node2&#45;&gt;Node5</title>
<path fill="none" stroke="midnightblue" d="M383.88,-238.285C306.13,-237.071 117.13,-229.788 72.5,-188 24.1621,-142.74 48.5527,-48.658 57.6052,-19.6832"/>
<polygon fill="midnightblue" stroke="midnightblue" points="384.041,-241.787 394.086,-238.419 384.133,-234.788 384.041,-241.787"/>
</g>
<!-- Node6 -->
<g id="node6" class="node"><title>Node6</title>
<g id="a_node6"><a xlink:href="_ogre_hlms_property_map_8h.html" target="_top" xlink:title="OgreHlmsPropertyMap.h">
<polygon fill="none" stroke="black" points="264,-168.5 264,-187.5 389,-187.5 389,-168.5 264,-168.5"/>
<text text-anchor="middle" x="326.5" y="-175.5" font-family="Helvetica,sans-Serif" font-size="10.00">OgreHlmsPropertyMap.h</text>
</a>
</g>
</g>
<!-- Node2&#45;&gt;Node6 -->
<g id="edge5" class="edge"><title>Node2&#45;&gt;Node6</title>
<path fill="none" stroke="midnightblue" d="M395.98,-224.43C378.437,-212.959 354.235,-197.134 339.514,-187.509"/>
<polygon fill="midnightblue" stroke="midnightblue" points="394.177,-227.432 404.462,-229.975 398.008,-221.573 394.177,-227.432"/>
</g>
<!-- Node7 -->
<g id="node7" class="node"><title>Node7</title>
<g id="a_node7"><a xlink:href="_ogre_hlms_shader_generator_8h.html" target="_top" xlink:title="OgreHlmsShaderGenerator.h">
<polygon fill="none" stroke="black" points="346,-112.5 346,-131.5 489,-131.5 489,-112.5 346,-112.5"/>
<text text-anchor="middle" x="417.5" y="-119.5" font-family="Helvetica,sans-Serif" font-size="10.00">OgreHlmsShaderGenerator.h</text>
</a>
</g>
</g>
<!-- Node2&#45;&gt;Node7 -->
<g id="edge18" class="edge"><title>Node2&#45;&gt;Node7</title>
<path fill="none" stroke="midnightblue" d="M417.5,-219.664C417.5,-194.365 417.5,-150.435 417.5,-131.782"/>
<polygon fill="midnightblue" stroke="midnightblue" points="414,-219.819 417.5,-229.819 421,-219.819 414,-219.819"/>
</g>
<!-- Node8 -->
<g id="node8" class="node"><title>Node8</title>
<g id="a_node8"><a xlink:href="_ogre_hlms_shader_template_8h.html" target="_top" xlink:title="OgreHlmsShaderTemplate.h">
<polygon fill="none" stroke="black" points="105.5,-168.5 105.5,-187.5 245.5,-187.5 245.5,-168.5 105.5,-168.5"/>
<text text-anchor="middle" x="175.5" y="-175.5" font-family="Helvetica,sans-Serif" font-size="10.00">OgreHlmsShaderTemplate.h</text>
</a>
</g>
</g>
<!-- Node2&#45;&gt;Node8 -->
<g id="edge9" class="edge"><title>Node2&#45;&gt;Node8</title>
<path fill="none" stroke="midnightblue" d="M384.311,-230.34C338.615,-219.105 256.713,-198.968 210.223,-187.537"/>
<polygon fill="midnightblue" stroke="midnightblue" points="383.75,-233.806 394.296,-232.795 385.421,-227.008 383.75,-233.806"/>
</g>
<!-- Node9 -->
<g id="node9" class="node"><title>Node9</title>
<g id="a_node9"><a xlink:href="_ogre_hlms_manager_8h.html" target="_top" xlink:title="OgreHlmsManager.h">
<polygon fill="none" stroke="black" points="608,-112.5 608,-131.5 715,-131.5 715,-112.5 608,-112.5"/>
<text text-anchor="middle" x="661.5" y="-119.5" font-family="Helvetica,sans-Serif" font-size="10.00">OgreHlmsManager.h</text>
</a>
</g>
</g>
<!-- Node2&#45;&gt;Node9 -->
<g id="edge11" class="edge"><title>Node2&#45;&gt;Node9</title>
<path fill="none" stroke="midnightblue" d="M450.955,-233.968C488.042,-227.842 548.671,-214.489 594.5,-188 620.598,-172.915 644.141,-145.438 655.065,-131.538"/>
<polygon fill="midnightblue" stroke="midnightblue" points="450.034,-230.569 440.697,-235.576 451.118,-237.485 450.034,-230.569"/>
</g>
<!-- Node10 -->
<g id="node10" class="node"><title>Node10</title>
<g id="a_node10"><a xlink:href="_ogre_hlms_shader_manager_8h.html" target="_top" xlink:title="OgreHlmsShaderManager.h">
<polygon fill="none" stroke="black" points="642,-168.5 642,-187.5 779,-187.5 779,-168.5 642,-168.5"/>
<text text-anchor="middle" x="710.5" y="-175.5" font-family="Helvetica,sans-Serif" font-size="10.00">OgreHlmsShaderManager.h</text>
</a>
</g>
</g>
<!-- Node2&#45;&gt;Node10 -->
<g id="edge12" class="edge"><title>Node2&#45;&gt;Node10</title>
<path fill="none" stroke="midnightblue" d="M451.009,-231.695C504.725,-220.787 610.006,-199.408 668.607,-187.507"/>
<polygon fill="midnightblue" stroke="midnightblue" points="450.086,-228.311 440.982,-233.731 451.479,-235.171 450.086,-228.311"/>
</g>
<!-- Node11 -->
<g id="node11" class="node"><title>Node11</title>
<g id="a_node11"><a xlink:href="_ogre_hlms_shader_common_8h.html" target="_top" xlink:title="OgreHlmsShaderCommon.h">
<polygon fill="none" stroke="black" points="445.5,-168.5 445.5,-187.5 585.5,-187.5 585.5,-168.5 445.5,-168.5"/>
<text text-anchor="middle" x="515.5" y="-175.5" font-family="Helvetica,sans-Serif" font-size="10.00">OgreHlmsShaderCommon.h</text>
</a>
</g>
</g>
<!-- Node2&#45;&gt;Node11 -->
<g id="edge16" class="edge"><title>Node2&#45;&gt;Node11</title>
<path fill="none" stroke="midnightblue" d="M440.157,-224.744C459.089,-213.25 485.486,-197.223 501.485,-187.509"/>
<polygon fill="midnightblue" stroke="midnightblue" points="438.272,-221.794 431.541,-229.975 441.905,-227.777 438.272,-221.794"/>
</g>
<!-- Node12 -->
<g id="node12" class="node"><title>Node12</title>
<g id="a_node12"><a xlink:href="_ogre_hlms_shader_pieces_manager_8h.html" target="_top" xlink:title="OgreHlmsShaderPiecesManager.h">
<polygon fill="none" stroke="black" points="797,-168.5 797,-187.5 964,-187.5 964,-168.5 797,-168.5"/>
<text text-anchor="middle" x="880.5" y="-175.5" font-family="Helvetica,sans-Serif" font-size="10.00">OgreHlmsShaderPiecesManager.h</text>
</a>
</g>
</g>
<!-- Node2&#45;&gt;Node12 -->
<g id="edge19" class="edge"><title>Node2&#45;&gt;Node12</title>
<path fill="none" stroke="midnightblue" d="M450.726,-234.23C526.615,-224.478 713.853,-200.416 814.301,-187.507"/>
<polygon fill="midnightblue" stroke="midnightblue" points="450.25,-230.762 440.778,-235.509 451.142,-237.705 450.25,-230.762"/>
</g>
<!-- Node3&#45;&gt;Node4 -->
<g id="edge3" class="edge"><title>Node3&#45;&gt;Node4</title>
<path fill="none" stroke="midnightblue" d="M139.824,-102.983C134.902,-93.8168 129.142,-83.0922 125.2,-75.7511"/>
<polygon fill="midnightblue" stroke="midnightblue" points="136.896,-104.929 144.711,-112.083 143.063,-101.617 136.896,-104.929"/>
</g>
<!-- Node4&#45;&gt;Node5 -->
<g id="edge4" class="edge"><title>Node4&#45;&gt;Node5</title>
<path fill="none" stroke="midnightblue" d="M103.319,-49.5372C92.6208,-39.9087 79.2437,-27.8694 70.3154,-19.8339"/>
<polygon fill="midnightblue" stroke="midnightblue" points="101.086,-52.2358 110.86,-56.324 105.768,-47.0327 101.086,-52.2358"/>
</g>
<!-- Node6&#45;&gt;Node3 -->
<g id="edge6" class="edge"><title>Node6&#45;&gt;Node3</title>
<path fill="none" stroke="midnightblue" d="M288.597,-165.436C255.225,-155.255 207.399,-140.664 177.415,-131.516"/>
<polygon fill="midnightblue" stroke="midnightblue" points="287.868,-168.873 298.454,-168.444 289.91,-162.178 287.868,-168.873"/>
</g>
<!-- Node6&#45;&gt;Node4 -->
<g id="edge7" class="edge"><title>Node6&#45;&gt;Node4</title>
<path fill="none" stroke="midnightblue" d="M303.793,-163.11C281.375,-149.566 245.98,-128.636 214.5,-112 188.905,-98.4739 158.585,-84.2773 139.444,-75.532"/>
<polygon fill="midnightblue" stroke="midnightblue" points="302.192,-166.232 312.557,-168.428 305.824,-160.248 302.192,-166.232"/>
</g>
<!-- Node6&#45;&gt;Node7 -->
<g id="edge8" class="edge"><title>Node6&#45;&gt;Node7</title>
<path fill="none" stroke="midnightblue" d="M349.794,-163.177C366.539,-153.241 388.6,-140.149 402.916,-131.655"/>
<polygon fill="midnightblue" stroke="midnightblue" points="347.934,-160.211 341.121,-168.324 351.507,-166.231 347.934,-160.211"/>
</g>
<!-- Node8&#45;&gt;Node3 -->
<g id="edge10" class="edge"><title>Node8&#45;&gt;Node3</title>
<path fill="none" stroke="midnightblue" d="M166.825,-158.983C162.412,-149.817 157.248,-139.092 153.713,-131.751"/>
<polygon fill="midnightblue" stroke="midnightblue" points="163.715,-160.591 171.207,-168.083 170.022,-157.555 163.715,-160.591"/>
</g>
<!-- Node10&#45;&gt;Node9 -->
<g id="edge13" class="edge"><title>Node10&#45;&gt;Node9</title>
<path fill="none" stroke="midnightblue" d="M695.466,-160.431C686.878,-150.967 676.457,-139.483 669.441,-131.751"/>
<polygon fill="midnightblue" stroke="midnightblue" points="693.097,-163.029 702.409,-168.083 698.281,-158.325 693.097,-163.029"/>
</g>
<!-- Node11&#45;&gt;Node7 -->
<g id="edge17" class="edge"><title>Node11&#45;&gt;Node7</title>
<path fill="none" stroke="midnightblue" d="M490.914,-163.453C472.822,-153.483 448.765,-140.228 433.206,-131.655"/>
<polygon fill="midnightblue" stroke="midnightblue" points="489.307,-166.563 499.755,-168.324 492.685,-160.432 489.307,-166.563"/>
</g>
<!-- Node14 -->
<g id="node14" class="node"><title>Node14</title>
<g id="a_node14"><a xlink:href="_ogre_r_t_shader_system_8h.html" target="_top" xlink:title="OgreRTShaderSystem.h">
<polygon fill="none" stroke="black" points="981.5,-168.5 981.5,-187.5 1105.5,-187.5 1105.5,-168.5 981.5,-168.5"/>
<text text-anchor="middle" x="1043.5" y="-175.5" font-family="Helvetica,sans-Serif" font-size="10.00">OgreRTShaderSystem.h</text>
</a>
</g>
</g>
<!-- Node13&#45;&gt;Node14 -->
<g id="edge21" class="edge"><title>Node13&#45;&gt;Node14</title>
<path fill="none" stroke="midnightblue" d="M856.887,-222.204C905.362,-210.981 967.813,-196.523 1006.76,-187.506"/>
<polygon fill="midnightblue" stroke="midnightblue" points="856.033,-218.809 847.08,-224.475 857.612,-225.629 856.033,-218.809"/>
</g>
<!-- Node15 -->
<g id="node15" class="node"><title>Node15</title>
<g id="a_node15"><a xlink:href="_ogre_s_g_technique_resolver_listener_8h.html" target="_top" xlink:title="OgreSGTechniqueResolverListener.h">
<polygon fill="none" stroke="black" points="954,-112.5 954,-131.5 1133,-131.5 1133,-112.5 954,-112.5"/>
<text text-anchor="middle" x="1043.5" y="-119.5" font-family="Helvetica,sans-Serif" font-size="10.00">OgreSGTechniqueResolverListener.h</text>
</a>
</g>
</g>
<!-- Node14&#45;&gt;Node15 -->
<g id="edge22" class="edge"><title>Node14&#45;&gt;Node15</title>
<path fill="none" stroke="midnightblue" d="M1043.5,-157.805C1043.5,-148.91 1043.5,-138.78 1043.5,-131.751"/>
<polygon fill="midnightblue" stroke="midnightblue" points="1040,-158.083 1043.5,-168.083 1047,-158.083 1040,-158.083"/>
</g>
</g>
</svg>
