<?xml version="1.0" encoding="UTF-8" standalone="no"?>
<!DOCTYPE svg PUBLIC "-//W3C//DTD SVG 1.1//EN"
 "http://www.w3.org/Graphics/SVG/1.1/DTD/svg11.dtd">
<!-- Generated by graphviz version 2.38.0 (20140413.2041)
 -->
<!-- Title: OgreGLESHardwareBufferManager.h Pages: 1 -->
<svg width="2657pt" height="364pt"
 viewBox="0.00 0.00 2657.10 364.00" xmlns="http://www.w3.org/2000/svg" xmlns:xlink="http://www.w3.org/1999/xlink">
<g id="graph0" class="graph" transform="scale(1 1) rotate(0) translate(4 360)">
<title>OgreGLESHardwareBufferManager.h</title>
<!-- Node1 -->
<g id="node1" class="node"><title>Node1</title>
<polygon fill="#bfbfbf" stroke="black" points="442.105,-336.5 442.105,-355.5 620.105,-355.5 620.105,-336.5 442.105,-336.5"/>
<text text-anchor="middle" x="531.105" y="-343.5" font-family="Helvetica,sans-Serif" font-size="10.00">OgreGLESHardwareBufferManager.h</text>
</g>
<!-- Node2 -->
<g id="node2" class="node"><title>Node2</title>
<g id="a_node2"><a xlink:href="_ogre_g_l_e_s_prerequisites_8h.html" target="_top" xlink:title="OgreGLESPrerequisites.h">
<polygon fill="none" stroke="black" points="466.605,-280.5 466.605,-299.5 595.605,-299.5 595.605,-280.5 466.605,-280.5"/>
<text text-anchor="middle" x="531.105" y="-287.5" font-family="Helvetica,sans-Serif" font-size="10.00">OgreGLESPrerequisites.h</text>
</a>
</g>
</g>
<!-- Node1&#45;&gt;Node2 -->
<g id="edge1" class="edge"><title>Node1&#45;&gt;Node2</title>
<path fill="none" stroke="midnightblue" d="M531.105,-336.083C531.105,-329.006 531.105,-318.861 531.105,-309.986"/>
<polygon fill="midnightblue" stroke="midnightblue" points="534.605,-309.751 531.105,-299.751 527.605,-309.751 534.605,-309.751"/>
</g>
<!-- Node38 -->
<g id="node38" class="node"><title>Node38</title>
<g id="a_node38"><a xlink:href="_ogre_thread_headers_8h.html" target="_top" xlink:title="Threading/OgreThreadHeaders.h">
<polygon fill="none" stroke="red" points="146.105,-112.5 146.105,-131.5 304.105,-131.5 304.105,-112.5 146.105,-112.5"/>
<text text-anchor="middle" x="225.105" y="-119.5" font-family="Helvetica,sans-Serif" font-size="10.00">Threading/OgreThreadHeaders.h</text>
</a>
</g>
</g>
<!-- Node1&#45;&gt;Node38 -->
<g id="edge85" class="edge"><title>Node1&#45;&gt;Node38</title>
<path fill="none" stroke="midnightblue" d="M441.977,-340.918C308.018,-332.704 64.7073,-309.015 11.1049,-244 -37.2586,-185.339 85.2961,-149.729 164.327,-133.493"/>
<polygon fill="midnightblue" stroke="midnightblue" points="165.092,-136.909 174.212,-131.515 163.719,-130.045 165.092,-136.909"/>
</g>
<!-- Node43 -->
<g id="node43" class="node"><title>Node43</title>
<g id="a_node43"><a xlink:href="_ogre_hardware_buffer_manager_8h.html" target="_top" xlink:title="OgreHardwareBufferManager.h">
<polygon fill="none" stroke="black" points="771.105,-280.5 771.105,-299.5 923.105,-299.5 923.105,-280.5 771.105,-280.5"/>
<text text-anchor="middle" x="847.105" y="-287.5" font-family="Helvetica,sans-Serif" font-size="10.00">OgreHardwareBufferManager.h</text>
</a>
</g>
</g>
<!-- Node1&#45;&gt;Node43 -->
<g id="edge53" class="edge"><title>Node1&#45;&gt;Node43</title>
<path fill="none" stroke="midnightblue" d="M581.176,-336.444C637.11,-326.885 727.613,-311.419 787.242,-301.23"/>
<polygon fill="midnightblue" stroke="midnightblue" points="788,-304.651 797.268,-299.516 786.821,-297.751 788,-304.651"/>
</g>
<!-- Node3 -->
<g id="node3" class="node"><title>Node3</title>
<g id="a_node3"><a xlink:href="_ogre_prerequisites_8h.html" target="_top" xlink:title="OgrePrerequisites.h">
<polygon fill="none" stroke="black" points="1046.6,-112.5 1046.6,-131.5 1149.6,-131.5 1149.6,-112.5 1046.6,-112.5"/>
<text text-anchor="middle" x="1098.1" y="-119.5" font-family="Helvetica,sans-Serif" font-size="10.00">OgrePrerequisites.h</text>
</a>
</g>
</g>
<!-- Node2&#45;&gt;Node3 -->
<g id="edge2" class="edge"><title>Node2&#45;&gt;Node3</title>
<path fill="none" stroke="midnightblue" d="M560.395,-280.425C654.969,-252.737 952.235,-165.706 1059.24,-134.378"/>
<polygon fill="midnightblue" stroke="midnightblue" points="1060.38,-137.693 1068.99,-131.524 1058.41,-130.975 1060.38,-137.693"/>
</g>
<!-- Node36 -->
<g id="node36" class="node"><title>Node36</title>
<g id="a_node36"><a xlink:href="_ogre_log_manager_8h.html" target="_top" xlink:title="OgreLogManager.h">
<polygon fill="none" stroke="black" points="481.605,-224.5 481.605,-243.5 580.605,-243.5 580.605,-224.5 481.605,-224.5"/>
<text text-anchor="middle" x="531.105" y="-231.5" font-family="Helvetica,sans-Serif" font-size="10.00">OgreLogManager.h</text>
</a>
</g>
</g>
<!-- Node2&#45;&gt;Node36 -->
<g id="edge36" class="edge"><title>Node2&#45;&gt;Node36</title>
<path fill="none" stroke="midnightblue" d="M531.105,-280.083C531.105,-273.006 531.105,-262.861 531.105,-253.986"/>
<polygon fill="midnightblue" stroke="midnightblue" points="534.605,-253.751 531.105,-243.751 527.605,-253.751 534.605,-253.751"/>
</g>
<!-- Node40 -->
<g id="node40" class="node"><title>Node40</title>
<g id="a_node40"><a xlink:href="_ogre_math_8h.html" target="_top" xlink:title="OgreMath.h">
<polygon fill="none" stroke="black" points="597.105,-168.5 597.105,-187.5 665.105,-187.5 665.105,-168.5 597.105,-168.5"/>
<text text-anchor="middle" x="631.105" y="-175.5" font-family="Helvetica,sans-Serif" font-size="10.00">OgreMath.h</text>
</a>
</g>
</g>
<!-- Node2&#45;&gt;Node40 -->
<g id="edge47" class="edge"><title>Node2&#45;&gt;Node40</title>
<path fill="none" stroke="midnightblue" d="M544.589,-280.472C557.067,-272.156 575.665,-258.651 589.105,-244 602.406,-229.5 614.234,-210.317 621.922,-196.555"/>
<polygon fill="midnightblue" stroke="midnightblue" points="625.067,-198.097 626.749,-187.637 618.911,-194.765 625.067,-198.097"/>
</g>
<!-- Node41 -->
<g id="node41" class="node"><title>Node41</title>
<polygon fill="none" stroke="#bfbfbf" points="20.6049,-224.5 20.6049,-243.5 127.605,-243.5 127.605,-224.5 20.6049,-224.5"/>
<text text-anchor="middle" x="74.1049" y="-231.5" font-family="Helvetica,sans-Serif" font-size="10.00">OpenGLES/ES1/gl.h</text>
</g>
<!-- Node2&#45;&gt;Node41 -->
<g id="edge51" class="edge"><title>Node2&#45;&gt;Node41</title>
<path fill="none" stroke="midnightblue" d="M466.544,-282.191C390.506,-274.044 260.122,-259.679 137.64,-244.036"/>
<polygon fill="midnightblue" stroke="midnightblue" points="138.071,-240.563 127.707,-242.762 137.181,-247.506 138.071,-240.563"/>
</g>
<!-- Node42 -->
<g id="node42" class="node"><title>Node42</title>
<polygon fill="none" stroke="#bfbfbf" points="146.105,-224.5 146.105,-243.5 266.105,-243.5 266.105,-224.5 146.105,-224.5"/>
<text text-anchor="middle" x="206.105" y="-231.5" font-family="Helvetica,sans-Serif" font-size="10.00">OpenGLES/ES1/glext.h</text>
</g>
<!-- Node2&#45;&gt;Node42 -->
<g id="edge52" class="edge"><title>Node2&#45;&gt;Node42</title>
<path fill="none" stroke="midnightblue" d="M479.608,-280.444C421.961,-270.865 328.615,-255.356 267.293,-245.167"/>
<polygon fill="midnightblue" stroke="midnightblue" points="267.8,-241.703 257.361,-243.516 266.652,-248.608 267.8,-241.703"/>
</g>
<!-- Node4 -->
<g id="node4" class="node"><title>Node4</title>
<g id="a_node4"><a xlink:href="_ogre_platform_8h.html" target="_top" xlink:title="OgrePlatform.h">
<polygon fill="none" stroke="black" points="2379.6,-56.5 2379.6,-75.5 2462.6,-75.5 2462.6,-56.5 2379.6,-56.5"/>
<text text-anchor="middle" x="2421.1" y="-63.5" font-family="Helvetica,sans-Serif" font-size="10.00">OgrePlatform.h</text>
</a>
</g>
</g>
<!-- Node3&#45;&gt;Node4 -->
<g id="edge3" class="edge"><title>Node3&#45;&gt;Node4</title>
<path fill="none" stroke="midnightblue" d="M1149.97,-118.883C1361.5,-110.249 2157.81,-77.7466 2369.28,-69.1154"/>
<polygon fill="midnightblue" stroke="midnightblue" points="2369.63,-72.6039 2379.48,-68.6989 2369.35,-65.6097 2369.63,-72.6039"/>
</g>
<!-- Node6 -->
<g id="node6" class="node"><title>Node6</title>
<polygon fill="none" stroke="#bfbfbf" points="2515.6,-0.5 2515.6,-19.5 2556.6,-19.5 2556.6,-0.5 2515.6,-0.5"/>
<text text-anchor="middle" x="2536.1" y="-7.5" font-family="Helvetica,sans-Serif" font-size="10.00">string</text>
</g>
<!-- Node3&#45;&gt;Node6 -->
<g id="edge5" class="edge"><title>Node3&#45;&gt;Node6</title>
<path fill="none" stroke="midnightblue" d="M1149.62,-117.623C1261,-110.292 1532.6,-92.2714 1760.1,-76 2088.35,-52.5241 2177.36,-79.9943 2505.32,-19.6949"/>
<polygon fill="midnightblue" stroke="midnightblue" points="2506.4,-23.0553 2515.59,-17.7923 2505.12,-16.1724 2506.4,-23.0553"/>
</g>
<!-- Node7 -->
<g id="node7" class="node"><title>Node7</title>
<g id="a_node7"><a xlink:href="_ogre_std_headers_8h.html" target="_top" xlink:title="OgreStdHeaders.h">
<polygon fill="none" stroke="red" points="1653.1,-56.5 1653.1,-75.5 1751.1,-75.5 1751.1,-56.5 1653.1,-56.5"/>
<text text-anchor="middle" x="1702.1" y="-63.5" font-family="Helvetica,sans-Serif" font-size="10.00">OgreStdHeaders.h</text>
</a>
</g>
</g>
<!-- Node3&#45;&gt;Node7 -->
<g id="edge6" class="edge"><title>Node3&#45;&gt;Node7</title>
<path fill="none" stroke="midnightblue" d="M1149.86,-116.373C1261.49,-106.392 1524.34,-82.8931 1642.61,-72.3194"/>
<polygon fill="midnightblue" stroke="midnightblue" points="1643.26,-75.7747 1652.91,-71.398 1642.64,-68.8025 1643.26,-75.7747"/>
</g>
<!-- Node33 -->
<g id="node33" class="node"><title>Node33</title>
<g id="a_node33"><a xlink:href="_ogre_memory_allocator_config_8h.html" target="_top" xlink:title="This file configures Ogre&#39;s memory allocators. ">
<polygon fill="none" stroke="red" points="626.105,-56.5 626.105,-75.5 774.105,-75.5 774.105,-56.5 626.105,-56.5"/>
<text text-anchor="middle" x="700.105" y="-63.5" font-family="Helvetica,sans-Serif" font-size="10.00">OgreMemoryAllocatorConfig.h</text>
</a>
</g>
</g>
<!-- Node3&#45;&gt;Node33 -->
<g id="edge33" class="edge"><title>Node3&#45;&gt;Node33</title>
<path fill="none" stroke="midnightblue" d="M1046.48,-113.996C976.834,-104.546 852.393,-87.6622 773.165,-76.9127"/>
<polygon fill="midnightblue" stroke="midnightblue" points="773.156,-73.3795 762.776,-75.5032 772.215,-80.3159 773.156,-73.3795"/>
</g>
<!-- Node5 -->
<g id="node5" class="node"><title>Node5</title>
<g id="a_node5"><a xlink:href="_ogre_config_8h.html" target="_top" xlink:title="OgreConfig.h">
<polygon fill="none" stroke="red" points="2575.1,-0.5 2575.1,-19.5 2649.1,-19.5 2649.1,-0.5 2575.1,-0.5"/>
<text text-anchor="middle" x="2612.1" y="-7.5" font-family="Helvetica,sans-Serif" font-size="10.00">OgreConfig.h</text>
</a>
</g>
</g>
<!-- Node4&#45;&gt;Node5 -->
<g id="edge4" class="edge"><title>Node4&#45;&gt;Node5</title>
<path fill="none" stroke="midnightblue" d="M2451.37,-56.4435C2484.06,-47.2011 2536.29,-32.4356 2572.29,-22.2572"/>
<polygon fill="midnightblue" stroke="midnightblue" points="2573.31,-25.6051 2581.98,-19.5164 2571.41,-18.8691 2573.31,-25.6051"/>
</g>
<!-- Node7&#45;&gt;Node6 -->
<g id="edge16" class="edge"><title>Node7&#45;&gt;Node6</title>
<path fill="none" stroke="midnightblue" d="M1751.39,-62.9184C1909.12,-56.1653 2397.1,-34.5423 2505.55,-19.4249"/>
<polygon fill="midnightblue" stroke="midnightblue" points="2506.27,-22.8547 2515.6,-17.8453 2505.18,-15.9395 2506.27,-22.8547"/>
</g>
<!-- Node8 -->
<g id="node8" class="node"><title>Node8</title>
<polygon fill="none" stroke="#bfbfbf" points="1906.6,-0.5 1906.6,-19.5 1955.6,-19.5 1955.6,-0.5 1906.6,-0.5"/>
<text text-anchor="middle" x="1931.1" y="-7.5" font-family="Helvetica,sans-Serif" font-size="10.00">cassert</text>
</g>
<!-- Node7&#45;&gt;Node8 -->
<g id="edge7" class="edge"><title>Node7&#45;&gt;Node8</title>
<path fill="none" stroke="midnightblue" d="M1740.67,-56.4821C1777.99,-48.154 1836.41,-34.8973 1896.24,-20.1539"/>
<polygon fill="midnightblue" stroke="midnightblue" points="1897.38,-23.4782 1906.25,-17.6784 1895.7,-16.6832 1897.38,-23.4782"/>
</g>
<!-- Node9 -->
<g id="node9" class="node"><title>Node9</title>
<polygon fill="none" stroke="#bfbfbf" points="1973.6,-0.5 1973.6,-19.5 2016.6,-19.5 2016.6,-0.5 1973.6,-0.5"/>
<text text-anchor="middle" x="1995.1" y="-7.5" font-family="Helvetica,sans-Serif" font-size="10.00">cstdio</text>
</g>
<!-- Node7&#45;&gt;Node9 -->
<g id="edge8" class="edge"><title>Node7&#45;&gt;Node9</title>
<path fill="none" stroke="midnightblue" d="M1751.42,-58.3965C1802.36,-51.1671 1884.3,-38.4026 1963.43,-20.1751"/>
<polygon fill="midnightblue" stroke="midnightblue" points="1964.62,-23.4907 1973.56,-17.8064 1963.03,-16.6744 1964.62,-23.4907"/>
</g>
<!-- Node10 -->
<g id="node10" class="node"><title>Node10</title>
<polygon fill="none" stroke="#bfbfbf" points="2034.6,-0.5 2034.6,-19.5 2079.6,-19.5 2079.6,-0.5 2034.6,-0.5"/>
<text text-anchor="middle" x="2057.1" y="-7.5" font-family="Helvetica,sans-Serif" font-size="10.00">cstdlib</text>
</g>
<!-- Node7&#45;&gt;Node10 -->
<g id="edge9" class="edge"><title>Node7&#45;&gt;Node10</title>
<path fill="none" stroke="midnightblue" d="M1751.34,-60.3996C1813.18,-54.1278 1922.63,-41.3949 2024.66,-20.0596"/>
<polygon fill="midnightblue" stroke="midnightblue" points="2025.46,-23.4691 2034.51,-17.968 2024.01,-16.6218 2025.46,-23.4691"/>
</g>
<!-- Node11 -->
<g id="node11" class="node"><title>Node11</title>
<polygon fill="none" stroke="#bfbfbf" points="2097.6,-0.5 2097.6,-19.5 2138.6,-19.5 2138.6,-0.5 2097.6,-0.5"/>
<text text-anchor="middle" x="2118.1" y="-7.5" font-family="Helvetica,sans-Serif" font-size="10.00">ctime</text>
</g>
<!-- Node7&#45;&gt;Node11 -->
<g id="edge10" class="edge"><title>Node7&#45;&gt;Node11</title>
<path fill="none" stroke="midnightblue" d="M1751.14,-62.2165C1823.19,-57.489 1961.89,-45.9628 2087.53,-20.0143"/>
<polygon fill="midnightblue" stroke="midnightblue" points="2088.25,-23.4384 2097.32,-17.9567 2086.81,-16.588 2088.25,-23.4384"/>
</g>
<!-- Node12 -->
<g id="node12" class="node"><title>Node12</title>
<polygon fill="none" stroke="#bfbfbf" points="2157.1,-0.5 2157.1,-19.5 2203.1,-19.5 2203.1,-0.5 2157.1,-0.5"/>
<text text-anchor="middle" x="2180.1" y="-7.5" font-family="Helvetica,sans-Serif" font-size="10.00">cstring</text>
</g>
<!-- Node7&#45;&gt;Node12 -->
<g id="edge11" class="edge"><title>Node7&#45;&gt;Node12</title>
<path fill="none" stroke="midnightblue" d="M1751.34,-62.8286C1832.11,-58.6581 1997.84,-47.5493 2146.57,-19.9862"/>
<polygon fill="midnightblue" stroke="midnightblue" points="2147.62,-23.351 2156.8,-18.06 2146.32,-16.472 2147.62,-23.351"/>
</g>
<!-- Node13 -->
<g id="node13" class="node"><title>Node13</title>
<polygon fill="none" stroke="#bfbfbf" points="2221.6,-0.5 2221.6,-19.5 2270.6,-19.5 2270.6,-0.5 2221.6,-0.5"/>
<text text-anchor="middle" x="2246.1" y="-7.5" font-family="Helvetica,sans-Serif" font-size="10.00">cstdarg</text>
</g>
<!-- Node7&#45;&gt;Node13 -->
<g id="edge12" class="edge"><title>Node7&#45;&gt;Node13</title>
<path fill="none" stroke="midnightblue" d="M1751.34,-63.4484C1841.07,-60.0157 2037.21,-49.7194 2211.47,-19.7991"/>
<polygon fill="midnightblue" stroke="midnightblue" points="2212.08,-23.2458 2221.33,-18.081 2210.88,-16.3497 2212.08,-23.2458"/>
</g>
<!-- Node14 -->
<g id="node14" class="node"><title>Node14</title>
<polygon fill="none" stroke="#bfbfbf" points="2289.1,-0.5 2289.1,-19.5 2333.1,-19.5 2333.1,-0.5 2289.1,-0.5"/>
<text text-anchor="middle" x="2311.1" y="-7.5" font-family="Helvetica,sans-Serif" font-size="10.00">cmath</text>
</g>
<!-- Node7&#45;&gt;Node14 -->
<g id="edge13" class="edge"><title>Node7&#45;&gt;Node14</title>
<path fill="none" stroke="midnightblue" d="M1751.46,-62.4608C1868.5,-56.2353 2161.27,-39.4175 2278.74,-19.8237"/>
<polygon fill="midnightblue" stroke="midnightblue" points="2279.64,-23.2188 2288.88,-18.0423 2278.43,-16.3242 2279.64,-23.2188"/>
</g>
<!-- Node15 -->
<g id="node15" class="node"><title>Node15</title>
<polygon fill="none" stroke="#bfbfbf" points="2351.1,-0.5 2351.1,-19.5 2395.1,-19.5 2395.1,-0.5 2351.1,-0.5"/>
<text text-anchor="middle" x="2373.1" y="-7.5" font-family="Helvetica,sans-Serif" font-size="10.00">vector</text>
</g>
<!-- Node7&#45;&gt;Node15 -->
<g id="edge14" class="edge"><title>Node7&#45;&gt;Node15</title>
<path fill="none" stroke="midnightblue" d="M1751.47,-62.8876C1877.63,-57.2767 2210.56,-41.0882 2340.76,-19.8031"/>
<polygon fill="midnightblue" stroke="midnightblue" points="2341.63,-23.2065 2350.89,-18.0627 2340.44,-16.3077 2341.63,-23.2065"/>
</g>
<!-- Node16 -->
<g id="node16" class="node"><title>Node16</title>
<polygon fill="none" stroke="#bfbfbf" points="2413.6,-0.5 2413.6,-19.5 2448.6,-19.5 2448.6,-0.5 2413.6,-0.5"/>
<text text-anchor="middle" x="2431.1" y="-7.5" font-family="Helvetica,sans-Serif" font-size="10.00">map</text>
</g>
<!-- Node7&#45;&gt;Node16 -->
<g id="edge15" class="edge"><title>Node7&#45;&gt;Node16</title>
<path fill="none" stroke="midnightblue" d="M1751.24,-63.4964C1886.05,-59.1159 2260.59,-45.1678 2403.67,-19.4434"/>
<polygon fill="midnightblue" stroke="midnightblue" points="2404.39,-22.8692 2413.56,-17.5708 2403.08,-15.9913 2404.39,-22.8692"/>
</g>
<!-- Node17 -->
<g id="node17" class="node"><title>Node17</title>
<polygon fill="none" stroke="#bfbfbf" points="2467.1,-0.5 2467.1,-19.5 2497.1,-19.5 2497.1,-0.5 2467.1,-0.5"/>
<text text-anchor="middle" x="2482.1" y="-7.5" font-family="Helvetica,sans-Serif" font-size="10.00">set</text>
</g>
<!-- Node7&#45;&gt;Node17 -->
<g id="edge17" class="edge"><title>Node7&#45;&gt;Node17</title>
<path fill="none" stroke="midnightblue" d="M1751.19,-62.9311C1902.14,-56.4546 2354.96,-36.1369 2457.1,-19.2945"/>
<polygon fill="midnightblue" stroke="midnightblue" points="2457.9,-22.7065 2467.07,-17.416 2456.6,-15.8274 2457.9,-22.7065"/>
</g>
<!-- Node18 -->
<g id="node18" class="node"><title>Node18</title>
<polygon fill="none" stroke="#bfbfbf" points="871.605,-0.5 871.605,-19.5 900.605,-19.5 900.605,-0.5 871.605,-0.5"/>
<text text-anchor="middle" x="886.105" y="-7.5" font-family="Helvetica,sans-Serif" font-size="10.00">list</text>
</g>
<!-- Node7&#45;&gt;Node18 -->
<g id="edge18" class="edge"><title>Node7&#45;&gt;Node18</title>
<path fill="none" stroke="midnightblue" d="M1652.84,-62.0699C1622.85,-60.2944 1583.77,-57.9946 1549.1,-56 1268.01,-39.827 1189.3,-79.7133 910.972,-19.7819"/>
<polygon fill="midnightblue" stroke="midnightblue" points="911.502,-16.3153 900.986,-17.6076 910.013,-23.1551 911.502,-16.3153"/>
</g>
<!-- Node19 -->
<g id="node19" class="node"><title>Node19</title>
<polygon fill="none" stroke="#bfbfbf" points="918.605,-0.5 918.605,-19.5 961.605,-19.5 961.605,-0.5 918.605,-0.5"/>
<text text-anchor="middle" x="940.105" y="-7.5" font-family="Helvetica,sans-Serif" font-size="10.00">deque</text>
</g>
<!-- Node7&#45;&gt;Node19 -->
<g id="edge19" class="edge"><title>Node7&#45;&gt;Node19</title>
<path fill="none" stroke="midnightblue" d="M1653.01,-62.0566C1501.42,-52.9601 1046.87,-25.6144 971.999,-19.2288"/>
<polygon fill="midnightblue" stroke="midnightblue" points="972.228,-15.7338 961.919,-18.1772 971.502,-22.696 972.228,-15.7338"/>
</g>
<!-- Node20 -->
<g id="node20" class="node"><title>Node20</title>
<polygon fill="none" stroke="#bfbfbf" points="979.605,-0.5 979.605,-19.5 1022.6,-19.5 1022.6,-0.5 979.605,-0.5"/>
<text text-anchor="middle" x="1001.1" y="-7.5" font-family="Helvetica,sans-Serif" font-size="10.00">queue</text>
</g>
<!-- Node7&#45;&gt;Node20 -->
<g id="edge20" class="edge"><title>Node7&#45;&gt;Node20</title>
<path fill="none" stroke="midnightblue" d="M1652.95,-62.0064C1511.77,-53.3713 1110.7,-28.5623 1033.25,-19.5989"/>
<polygon fill="midnightblue" stroke="midnightblue" points="1033.31,-16.0739 1022.92,-18.1627 1032.34,-23.0071 1033.31,-16.0739"/>
</g>
<!-- Node21 -->
<g id="node21" class="node"><title>Node21</title>
<polygon fill="none" stroke="#bfbfbf" points="1040.6,-0.5 1040.6,-19.5 1081.6,-19.5 1081.6,-0.5 1040.6,-0.5"/>
<text text-anchor="middle" x="1061.1" y="-7.5" font-family="Helvetica,sans-Serif" font-size="10.00">bitset</text>
</g>
<!-- Node7&#45;&gt;Node21 -->
<g id="edge21" class="edge"><title>Node7&#45;&gt;Node21</title>
<path fill="none" stroke="midnightblue" d="M1652.92,-61.9964C1523.34,-53.9992 1177.21,-32.0706 1091.54,-19.4393"/>
<polygon fill="midnightblue" stroke="midnightblue" points="1092.05,-15.9772 1081.62,-17.7963 1090.91,-22.8832 1092.05,-15.9772"/>
</g>
<!-- Node22 -->
<g id="node22" class="node"><title>Node22</title>
<polygon fill="none" stroke="#bfbfbf" points="1100.1,-0.5 1100.1,-19.5 1156.1,-19.5 1156.1,-0.5 1100.1,-0.5"/>
<text text-anchor="middle" x="1128.1" y="-7.5" font-family="Helvetica,sans-Serif" font-size="10.00">algorithm</text>
</g>
<!-- Node7&#45;&gt;Node22 -->
<g id="edge22" class="edge"><title>Node7&#45;&gt;Node22</title>
<path fill="none" stroke="midnightblue" d="M1652.95,-61.8612C1542.37,-54.6452 1275.74,-36.3493 1166.38,-19.9177"/>
<polygon fill="midnightblue" stroke="midnightblue" points="1166.72,-16.4283 1156.29,-18.3338 1165.63,-23.3435 1166.72,-16.4283"/>
</g>
<!-- Node23 -->
<g id="node23" class="node"><title>Node23</title>
<polygon fill="none" stroke="#bfbfbf" points="1174.6,-0.5 1174.6,-19.5 1233.6,-19.5 1233.6,-0.5 1174.6,-0.5"/>
<text text-anchor="middle" x="1204.1" y="-7.5" font-family="Helvetica,sans-Serif" font-size="10.00">functional</text>
</g>
<!-- Node7&#45;&gt;Node23 -->
<g id="edge23" class="edge"><title>Node7&#45;&gt;Node23</title>
<path fill="none" stroke="midnightblue" d="M1652.93,-62.2681C1570.43,-57.2301 1398.84,-44.8031 1244.01,-19.9337"/>
<polygon fill="midnightblue" stroke="midnightblue" points="1244.27,-16.4299 1233.84,-18.2776 1243.14,-23.339 1244.27,-16.4299"/>
</g>
<!-- Node24 -->
<g id="node24" class="node"><title>Node24</title>
<polygon fill="none" stroke="#bfbfbf" points="1252.1,-0.5 1252.1,-19.5 1292.1,-19.5 1292.1,-0.5 1252.1,-0.5"/>
<text text-anchor="middle" x="1272.1" y="-7.5" font-family="Helvetica,sans-Serif" font-size="10.00">limits</text>
</g>
<!-- Node7&#45;&gt;Node24 -->
<g id="edge24" class="edge"><title>Node7&#45;&gt;Node24</title>
<path fill="none" stroke="midnightblue" d="M1652.87,-62.4792C1578.61,-58.0219 1433.55,-46.7612 1302.1,-19.8397"/>
<polygon fill="midnightblue" stroke="midnightblue" points="1302.76,-16.4025 1292.26,-17.789 1301.33,-23.2554 1302.76,-16.4025"/>
</g>
<!-- Node25 -->
<g id="node25" class="node"><title>Node25</title>
<polygon fill="none" stroke="#bfbfbf" points="1310.1,-0.5 1310.1,-19.5 1360.1,-19.5 1360.1,-0.5 1310.1,-0.5"/>
<text text-anchor="middle" x="1335.1" y="-7.5" font-family="Helvetica,sans-Serif" font-size="10.00">fstream</text>
</g>
<!-- Node7&#45;&gt;Node25 -->
<g id="edge25" class="edge"><title>Node7&#45;&gt;Node25</title>
<path fill="none" stroke="midnightblue" d="M1652.98,-60.2947C1589.71,-53.8081 1476.22,-40.7312 1370.18,-19.9999"/>
<polygon fill="midnightblue" stroke="midnightblue" points="1370.76,-16.5472 1360.27,-18.0359 1369.4,-23.4136 1370.76,-16.5472"/>
</g>
<!-- Node26 -->
<g id="node26" class="node"><title>Node26</title>
<polygon fill="none" stroke="#bfbfbf" points="1378.6,-0.5 1378.6,-19.5 1423.6,-19.5 1423.6,-0.5 1378.6,-0.5"/>
<text text-anchor="middle" x="1401.1" y="-7.5" font-family="Helvetica,sans-Serif" font-size="10.00">iosfwd</text>
</g>
<!-- Node7&#45;&gt;Node26 -->
<g id="edge26" class="edge"><title>Node7&#45;&gt;Node26</title>
<path fill="none" stroke="midnightblue" d="M1652.71,-58.3766C1600.58,-51.0209 1515.88,-38.0325 1433.52,-19.8782"/>
<polygon fill="midnightblue" stroke="midnightblue" points="1434.28,-16.4602 1423.75,-17.6975 1432.75,-23.2921 1434.28,-16.4602"/>
</g>
<!-- Node27 -->
<g id="node27" class="node"><title>Node27</title>
<polygon fill="none" stroke="#bfbfbf" points="1442.1,-0.5 1442.1,-19.5 1494.1,-19.5 1494.1,-0.5 1442.1,-0.5"/>
<text text-anchor="middle" x="1468.1" y="-7.5" font-family="Helvetica,sans-Serif" font-size="10.00">sstream</text>
</g>
<!-- Node7&#45;&gt;Node27 -->
<g id="edge27" class="edge"><title>Node7&#45;&gt;Node27</title>
<path fill="none" stroke="midnightblue" d="M1662.76,-56.4587C1624.6,-48.0959 1564.82,-34.7881 1504.19,-20.2139"/>
<polygon fill="midnightblue" stroke="midnightblue" points="1505,-16.8082 1494.46,-17.8645 1503.36,-23.6129 1505,-16.8082"/>
</g>
<!-- Node28 -->
<g id="node28" class="node"><title>Node28</title>
<polygon fill="none" stroke="#bfbfbf" points="1512.1,-0.5 1512.1,-19.5 1580.1,-19.5 1580.1,-0.5 1512.1,-0.5"/>
<text text-anchor="middle" x="1546.1" y="-7.5" font-family="Helvetica,sans-Serif" font-size="10.00">sys/types.h</text>
</g>
<!-- Node7&#45;&gt;Node28 -->
<g id="edge28" class="edge"><title>Node7&#45;&gt;Node28</title>
<path fill="none" stroke="midnightblue" d="M1677.39,-56.4435C1651.26,-47.3986 1609.85,-33.064 1580.53,-22.9158"/>
<polygon fill="midnightblue" stroke="midnightblue" points="1581.3,-19.4801 1570.71,-19.5164 1579.01,-26.0951 1581.3,-19.4801"/>
</g>
<!-- Node29 -->
<g id="node29" class="node"><title>Node29</title>
<polygon fill="none" stroke="#bfbfbf" points="1598.1,-0.5 1598.1,-19.5 1658.1,-19.5 1658.1,-0.5 1598.1,-0.5"/>
<text text-anchor="middle" x="1628.1" y="-7.5" font-family="Helvetica,sans-Serif" font-size="10.00">sys/stat.h</text>
</g>
<!-- Node7&#45;&gt;Node29 -->
<g id="edge29" class="edge"><title>Node7&#45;&gt;Node29</title>
<path fill="none" stroke="midnightblue" d="M1690.22,-56.324C1678.95,-48.1066 1661.82,-35.6017 1648.4,-25.8069"/>
<polygon fill="midnightblue" stroke="midnightblue" points="1650.35,-22.9014 1640.21,-19.8339 1646.23,-28.5559 1650.35,-22.9014"/>
</g>
<!-- Node30 -->
<g id="node30" class="node"><title>Node30</title>
<polygon fill="none" stroke="#bfbfbf" points="1676.6,-0.5 1676.6,-19.5 1727.6,-19.5 1727.6,-0.5 1676.6,-0.5"/>
<text text-anchor="middle" x="1702.1" y="-7.5" font-family="Helvetica,sans-Serif" font-size="10.00">unistd.h</text>
</g>
<!-- Node7&#45;&gt;Node30 -->
<g id="edge30" class="edge"><title>Node7&#45;&gt;Node30</title>
<path fill="none" stroke="midnightblue" d="M1702.1,-56.083C1702.1,-49.0059 1702.1,-38.8611 1702.1,-29.9865"/>
<polygon fill="midnightblue" stroke="midnightblue" points="1705.6,-29.751 1702.1,-19.7511 1698.6,-29.7511 1705.6,-29.751"/>
</g>
<!-- Node31 -->
<g id="node31" class="node"><title>Node31</title>
<polygon fill="none" stroke="#bfbfbf" points="1746.1,-0.5 1746.1,-19.5 1792.1,-19.5 1792.1,-0.5 1746.1,-0.5"/>
<text text-anchor="middle" x="1769.1" y="-7.5" font-family="Helvetica,sans-Serif" font-size="10.00">dlfcn.h</text>
</g>
<!-- Node7&#45;&gt;Node31 -->
<g id="edge31" class="edge"><title>Node7&#45;&gt;Node31</title>
<path fill="none" stroke="midnightblue" d="M1712.87,-56.324C1722.87,-48.2631 1737.99,-36.0765 1750.04,-26.3695"/>
<polygon fill="midnightblue" stroke="midnightblue" points="1752.55,-28.8343 1758.14,-19.8339 1748.16,-23.3841 1752.55,-28.8343"/>
</g>
<!-- Node32 -->
<g id="node32" class="node"><title>Node32</title>
<polygon fill="none" stroke="#bfbfbf" points="1810.1,-0.5 1810.1,-19.5 1888.1,-19.5 1888.1,-0.5 1810.1,-0.5"/>
<text text-anchor="middle" x="1849.1" y="-7.5" font-family="Helvetica,sans-Serif" font-size="10.00">ext/hash_map</text>
</g>
<!-- Node7&#45;&gt;Node32 -->
<g id="edge32" class="edge"><title>Node7&#45;&gt;Node32</title>
<path fill="none" stroke="midnightblue" d="M1725.4,-56.4435C1749.91,-47.4381 1788.7,-33.1891 1816.3,-23.049"/>
<polygon fill="midnightblue" stroke="midnightblue" points="1817.74,-26.25 1825.92,-19.5164 1815.33,-19.6793 1817.74,-26.25"/>
</g>
<!-- Node34 -->
<g id="node34" class="node"><title>Node34</title>
<g id="a_node34"><a xlink:href="_ogre_header_prefix_8h.html" target="_top" xlink:title="OgreHeaderPrefix.h">
<polygon fill="none" stroke="black" points="413.605,-0.5 413.605,-19.5 516.605,-19.5 516.605,-0.5 413.605,-0.5"/>
<text text-anchor="middle" x="465.105" y="-7.5" font-family="Helvetica,sans-Serif" font-size="10.00">OgreHeaderPrefix.h</text>
</a>
</g>
</g>
<!-- Node33&#45;&gt;Node34 -->
<g id="edge34" class="edge"><title>Node33&#45;&gt;Node34</title>
<path fill="none" stroke="midnightblue" d="M662.868,-56.4435C622.045,-47.0629 556.462,-31.9926 512.121,-21.8036"/>
<polygon fill="midnightblue" stroke="midnightblue" points="512.697,-18.3449 502.167,-19.5164 511.129,-25.1671 512.697,-18.3449"/>
</g>
<!-- Node35 -->
<g id="node35" class="node"><title>Node35</title>
<g id="a_node35"><a xlink:href="_ogre_header_suffix_8h.html" target="_top" xlink:title="OgreHeaderSuffix.h">
<polygon fill="none" stroke="black" points="750.605,-0.5 750.605,-19.5 853.605,-19.5 853.605,-0.5 750.605,-0.5"/>
<text text-anchor="middle" x="802.105" y="-7.5" font-family="Helvetica,sans-Serif" font-size="10.00">OgreHeaderSuffix.h</text>
</a>
</g>
</g>
<!-- Node33&#45;&gt;Node35 -->
<g id="edge35" class="edge"><title>Node33&#45;&gt;Node35</title>
<path fill="none" stroke="midnightblue" d="M716.493,-56.324C732.776,-47.7034 757.972,-34.3643 776.821,-24.3855"/>
<polygon fill="midnightblue" stroke="midnightblue" points="778.557,-27.4267 785.758,-19.6545 775.282,-21.2402 778.557,-27.4267"/>
</g>
<!-- Node36&#45;&gt;Node3 -->
<g id="edge37" class="edge"><title>Node36&#45;&gt;Node3</title>
<path fill="none" stroke="midnightblue" d="M557.95,-224.445C607.748,-208.674 712.759,-175.904 750.105,-168 849.231,-147.021 966.444,-134.308 1036.4,-127.974"/>
<polygon fill="midnightblue" stroke="midnightblue" points="1036.72,-131.46 1046.37,-127.086 1036.1,-124.487 1036.72,-131.46"/>
</g>
<!-- Node36&#45;&gt;Node34 -->
<g id="edge45" class="edge"><title>Node36&#45;&gt;Node34</title>
<path fill="none" stroke="midnightblue" d="M481.497,-231.443C449.516,-227.544 410.11,-216.692 389.105,-188 350.496,-135.264 415.132,-59.8887 447.875,-27.1768"/>
<polygon fill="midnightblue" stroke="midnightblue" points="450.708,-29.3035 455.43,-19.8192 445.824,-24.2886 450.708,-29.3035"/>
</g>
<!-- Node36&#45;&gt;Node35 -->
<g id="edge46" class="edge"><title>Node36&#45;&gt;Node35</title>
<path fill="none" stroke="midnightblue" d="M536.861,-224.412C546.253,-210.929 566.051,-184.622 588.105,-168 664.632,-110.323 720.846,-148.848 783.105,-76 794.195,-63.0237 798.817,-43.8591 800.741,-29.6992"/>
<polygon fill="midnightblue" stroke="midnightblue" points="804.235,-29.9359 801.777,-19.6301 797.271,-29.2193 804.235,-29.9359"/>
</g>
<!-- Node37 -->
<g id="node37" class="node"><title>Node37</title>
<g id="a_node37"><a xlink:href="_ogre_log_8h.html" target="_top" xlink:title="OgreLog.h">
<polygon fill="none" stroke="red" points="398.105,-168.5 398.105,-187.5 460.105,-187.5 460.105,-168.5 398.105,-168.5"/>
<text text-anchor="middle" x="429.105" y="-175.5" font-family="Helvetica,sans-Serif" font-size="10.00">OgreLog.h</text>
</a>
</g>
</g>
<!-- Node36&#45;&gt;Node37 -->
<g id="edge38" class="edge"><title>Node36&#45;&gt;Node37</title>
<path fill="none" stroke="midnightblue" d="M514.717,-224.324C498.434,-215.703 473.237,-202.364 454.389,-192.386"/>
<polygon fill="midnightblue" stroke="midnightblue" points="455.928,-189.24 445.452,-187.655 452.653,-195.427 455.928,-189.24"/>
</g>
<!-- Node39 -->
<g id="node39" class="node"><title>Node39</title>
<g id="a_node39"><a xlink:href="_ogre_singleton_8h.html" target="_top" xlink:title="OgreSingleton.h">
<polygon fill="none" stroke="black" points="759.105,-168.5 759.105,-187.5 845.105,-187.5 845.105,-168.5 759.105,-168.5"/>
<text text-anchor="middle" x="802.105" y="-175.5" font-family="Helvetica,sans-Serif" font-size="10.00">OgreSingleton.h</text>
</a>
</g>
</g>
<!-- Node36&#45;&gt;Node39 -->
<g id="edge43" class="edge"><title>Node36&#45;&gt;Node39</title>
<path fill="none" stroke="midnightblue" d="M574.046,-224.444C621.618,-214.964 698.348,-199.675 749.493,-189.483"/>
<polygon fill="midnightblue" stroke="midnightblue" points="750.242,-192.903 759.365,-187.516 748.874,-186.038 750.242,-192.903"/>
</g>
<!-- Node37&#45;&gt;Node3 -->
<g id="edge39" class="edge"><title>Node37&#45;&gt;Node3</title>
<path fill="none" stroke="midnightblue" d="M460.475,-174.468C564.181,-166.097 897.27,-139.211 1036.27,-127.991"/>
<polygon fill="midnightblue" stroke="midnightblue" points="1036.65,-131.472 1046.33,-127.179 1036.09,-124.495 1036.65,-131.472"/>
</g>
<!-- Node37&#45;&gt;Node34 -->
<g id="edge41" class="edge"><title>Node37&#45;&gt;Node34</title>
<path fill="none" stroke="midnightblue" d="M427.62,-168.482C424.455,-148.285 418.4,-96.1736 432.105,-56 435.727,-45.3838 442.822,-35.1657 449.509,-27.1571"/>
<polygon fill="midnightblue" stroke="midnightblue" points="452.126,-29.4813 456.166,-19.6871 446.9,-24.824 452.126,-29.4813"/>
</g>
<!-- Node37&#45;&gt;Node35 -->
<g id="edge42" class="edge"><title>Node37&#45;&gt;Node35</title>
<path fill="none" stroke="midnightblue" d="M439.809,-168.242C467.414,-146.09 543.979,-87.3699 617.105,-56 656.534,-39.0855 703.538,-27.7549 740.3,-20.6941"/>
<polygon fill="midnightblue" stroke="midnightblue" points="741.193,-24.088 750.382,-18.8147 739.91,-17.2065 741.193,-24.088"/>
</g>
<!-- Node37&#45;&gt;Node38 -->
<g id="edge40" class="edge"><title>Node37&#45;&gt;Node38</title>
<path fill="none" stroke="midnightblue" d="M397.677,-168.681C362.691,-159.42 305.98,-144.408 267.185,-134.139"/>
<polygon fill="midnightblue" stroke="midnightblue" points="267.805,-130.682 257.242,-131.507 266.013,-137.449 267.805,-130.682"/>
</g>
<!-- Node39&#45;&gt;Node3 -->
<g id="edge44" class="edge"><title>Node39&#45;&gt;Node3</title>
<path fill="none" stroke="midnightblue" d="M845.146,-169.148C896.877,-159.711 983.855,-143.843 1041.12,-133.396"/>
<polygon fill="midnightblue" stroke="midnightblue" points="1041.89,-136.814 1051.1,-131.576 1040.63,-129.927 1041.89,-136.814"/>
</g>
<!-- Node40&#45;&gt;Node3 -->
<g id="edge48" class="edge"><title>Node40&#45;&gt;Node3</title>
<path fill="none" stroke="midnightblue" d="M665.445,-173.029C743.769,-163.972 936.53,-141.683 1036.2,-130.159"/>
<polygon fill="midnightblue" stroke="midnightblue" points="1036.89,-133.602 1046.42,-128.977 1036.08,-126.648 1036.89,-133.602"/>
</g>
<!-- Node40&#45;&gt;Node34 -->
<g id="edge49" class="edge"><title>Node40&#45;&gt;Node34</title>
<path fill="none" stroke="midnightblue" d="M622.18,-168.075C595.371,-141.267 515.295,-61.1902 480.99,-26.8851"/>
<polygon fill="midnightblue" stroke="midnightblue" points="483.219,-24.1643 473.673,-19.5681 478.269,-29.1141 483.219,-24.1643"/>
</g>
<!-- Node40&#45;&gt;Node35 -->
<g id="edge50" class="edge"><title>Node40&#45;&gt;Node35</title>
<path fill="none" stroke="midnightblue" d="M665.187,-169.637C709.089,-158.115 783.607,-131.178 816.105,-76 824.684,-61.433 818.866,-42.2599 812.315,-28.5184"/>
<polygon fill="midnightblue" stroke="midnightblue" points="815.377,-26.8223 807.611,-19.6159 809.188,-30.0927 815.377,-26.8223"/>
</g>
<!-- Node43&#45;&gt;Node3 -->
<g id="edge54" class="edge"><title>Node43&#45;&gt;Node3</title>
<path fill="none" stroke="midnightblue" d="M923.329,-289.129C1080.68,-288.596 1429.85,-282.983 1466.1,-244 1479.73,-229.346 1479.97,-190.662 1456.1,-168 1414.72,-128.698 1250.85,-122.547 1159.85,-122.266"/>
<polygon fill="midnightblue" stroke="midnightblue" points="1159.67,-118.766 1149.66,-122.258 1159.66,-125.766 1159.67,-118.766"/>
</g>
<!-- Node43&#45;&gt;Node34 -->
<g id="edge83" class="edge"><title>Node43&#45;&gt;Node34</title>
<path fill="none" stroke="midnightblue" d="M770.838,-288.368C627.478,-285.104 332.105,-267.627 332.105,-179 332.105,-179 332.105,-179 332.105,-121 332.105,-70.7254 389.234,-39.1005 428.608,-23.2746"/>
<polygon fill="midnightblue" stroke="midnightblue" points="430.113,-26.4459 438.19,-19.5897 427.6,-19.9123 430.113,-26.4459"/>
</g>
<!-- Node43&#45;&gt;Node35 -->
<g id="edge84" class="edge"><title>Node43&#45;&gt;Node35</title>
<path fill="none" stroke="midnightblue" d="M833.821,-280.382C811.483,-264.996 767.169,-230.401 750.105,-188 746.786,-179.754 746.703,-176.212 750.105,-168 758.764,-147.095 770.817,-148.682 786.105,-132 808.058,-108.045 821.99,-106.533 833.105,-76 839.35,-58.8458 828.386,-40.114 817.812,-27.185"/>
<polygon fill="midnightblue" stroke="midnightblue" points="820.352,-24.7734 811.105,-19.6016 815.108,-29.411 820.352,-24.7734"/>
</g>
<!-- Node43&#45;&gt;Node38 -->
<g id="edge82" class="edge"><title>Node43&#45;&gt;Node38</title>
<path fill="none" stroke="midnightblue" d="M770.926,-285.912C633.993,-279.864 356.852,-265.177 318.105,-244 275.431,-220.677 246.141,-168.595 232.981,-140.984"/>
<polygon fill="midnightblue" stroke="midnightblue" points="236.08,-139.345 228.733,-131.711 229.716,-142.26 236.08,-139.345"/>
</g>
<!-- Node43&#45;&gt;Node39 -->
<g id="edge55" class="edge"><title>Node43&#45;&gt;Node39</title>
<path fill="none" stroke="midnightblue" d="M838.967,-280.443C831.322,-271.901 820.174,-258.053 814.105,-244 807.771,-229.333 804.777,-211.395 803.364,-198.082"/>
<polygon fill="midnightblue" stroke="midnightblue" points="806.822,-197.437 802.485,-187.771 799.847,-198.032 806.822,-197.437"/>
</g>
<!-- Node44 -->
<g id="node44" class="node"><title>Node44</title>
<g id="a_node44"><a xlink:href="_ogre_hardware_counter_buffer_8h.html" target="_top" xlink:title="OgreHardwareCounterBuffer.h">
<polygon fill="none" stroke="black" points="990.605,-224.5 990.605,-243.5 1139.6,-243.5 1139.6,-224.5 990.605,-224.5"/>
<text text-anchor="middle" x="1065.1" y="-231.5" font-family="Helvetica,sans-Serif" font-size="10.00">OgreHardwareCounterBuffer.h</text>
</a>
</g>
</g>
<!-- Node43&#45;&gt;Node44 -->
<g id="edge56" class="edge"><title>Node43&#45;&gt;Node44</title>
<path fill="none" stroke="midnightblue" d="M881.648,-280.444C919.358,-271.102 979.845,-256.119 1020.97,-245.933"/>
<polygon fill="midnightblue" stroke="midnightblue" points="1021.86,-249.318 1030.72,-243.516 1020.18,-242.524 1021.86,-249.318"/>
</g>
<!-- Node47 -->
<g id="node47" class="node"><title>Node47</title>
<g id="a_node47"><a xlink:href="_ogre_hardware_index_buffer_8h.html" target="_top" xlink:title="OgreHardwareIndexBuffer.h">
<polygon fill="none" stroke="black" points="1158.1,-224.5 1158.1,-243.5 1296.1,-243.5 1296.1,-224.5 1158.1,-224.5"/>
<text text-anchor="middle" x="1227.1" y="-231.5" font-family="Helvetica,sans-Serif" font-size="10.00">OgreHardwareIndexBuffer.h</text>
</a>
</g>
</g>
<!-- Node43&#45;&gt;Node47 -->
<g id="edge64" class="edge"><title>Node43&#45;&gt;Node47</title>
<path fill="none" stroke="midnightblue" d="M907.317,-280.444C975.136,-270.806 1085.21,-255.163 1156.89,-244.978"/>
<polygon fill="midnightblue" stroke="midnightblue" points="1157.77,-248.389 1167.17,-243.516 1156.78,-241.458 1157.77,-248.389"/>
</g>
<!-- Node48 -->
<g id="node48" class="node"><title>Node48</title>
<g id="a_node48"><a xlink:href="_ogre_hardware_uniform_buffer_8h.html" target="_top" xlink:title="OgreHardwareUniformBuffer.h">
<polygon fill="none" stroke="black" points="823.605,-224.5 823.605,-243.5 972.605,-243.5 972.605,-224.5 823.605,-224.5"/>
<text text-anchor="middle" x="898.105" y="-231.5" font-family="Helvetica,sans-Serif" font-size="10.00">OgreHardwareUniformBuffer.h</text>
</a>
</g>
</g>
<!-- Node43&#45;&gt;Node48 -->
<g id="edge68" class="edge"><title>Node43&#45;&gt;Node48</title>
<path fill="none" stroke="midnightblue" d="M855.527,-280.083C862.953,-272.22 873.957,-260.569 882.917,-251.081"/>
<polygon fill="midnightblue" stroke="midnightblue" points="885.518,-253.424 889.84,-243.751 880.429,-248.618 885.518,-253.424"/>
</g>
<!-- Node49 -->
<g id="node49" class="node"><title>Node49</title>
<g id="a_node49"><a xlink:href="_ogre_hardware_vertex_buffer_8h.html" target="_top" xlink:title="OgreHardwareVertexBuffer.h">
<polygon fill="none" stroke="black" points="1314.6,-224.5 1314.6,-243.5 1457.6,-243.5 1457.6,-224.5 1314.6,-224.5"/>
<text text-anchor="middle" x="1386.1" y="-231.5" font-family="Helvetica,sans-Serif" font-size="10.00">OgreHardwareVertexBuffer.h</text>
</a>
</g>
</g>
<!-- Node43&#45;&gt;Node49 -->
<g id="edge74" class="edge"><title>Node43&#45;&gt;Node49</title>
<path fill="none" stroke="midnightblue" d="M923.311,-281.811C1012.1,-273.369 1163.51,-258.762 1304.43,-244.058"/>
<polygon fill="midnightblue" stroke="midnightblue" points="1304.97,-247.521 1314.56,-243 1304.25,-240.559 1304.97,-247.521"/>
</g>
<!-- Node44&#45;&gt;Node3 -->
<g id="edge57" class="edge"><title>Node44&#45;&gt;Node3</title>
<path fill="none" stroke="midnightblue" d="M1058.26,-224.326C1049.11,-211.613 1035.05,-187.331 1044.1,-168 1050.15,-155.094 1061.92,-144.599 1072.93,-137"/>
<polygon fill="midnightblue" stroke="midnightblue" points="1074.93,-139.872 1081.47,-131.536 1071.16,-133.975 1074.93,-139.872"/>
</g>
<!-- Node44&#45;&gt;Node34 -->
<g id="edge62" class="edge"><title>Node44&#45;&gt;Node34</title>
<path fill="none" stroke="midnightblue" d="M990.456,-224.942C987.297,-224.62 984.17,-224.305 981.105,-224 893.836,-215.328 664.299,-231.424 588.105,-188 524.19,-151.574 485.903,-66.7106 471.576,-29.286"/>
<polygon fill="midnightblue" stroke="midnightblue" points="474.778,-27.852 468.032,-19.6822 468.211,-30.2755 474.778,-27.852"/>
</g>
<!-- Node44&#45;&gt;Node35 -->
<g id="edge63" class="edge"><title>Node44&#45;&gt;Node35</title>
<path fill="none" stroke="midnightblue" d="M1059.75,-224.378C1041.94,-196.378 981.888,-106.87 911.105,-56 890.489,-41.1837 864.269,-30.1624 842.712,-22.7361"/>
<polygon fill="midnightblue" stroke="midnightblue" points="843.766,-19.3982 833.173,-19.5762 841.565,-26.0431 843.766,-19.3982"/>
</g>
<!-- Node45 -->
<g id="node45" class="node"><title>Node45</title>
<g id="a_node45"><a xlink:href="_ogre_hardware_buffer_8h.html" target="_top" xlink:title="OgreHardwareBuffer.h">
<polygon fill="none" stroke="red" points="1161.1,-168.5 1161.1,-187.5 1275.1,-187.5 1275.1,-168.5 1161.1,-168.5"/>
<text text-anchor="middle" x="1218.1" y="-175.5" font-family="Helvetica,sans-Serif" font-size="10.00">OgreHardwareBuffer.h</text>
</a>
</g>
</g>
<!-- Node44&#45;&gt;Node45 -->
<g id="edge58" class="edge"><title>Node44&#45;&gt;Node45</title>
<path fill="none" stroke="midnightblue" d="M1089.35,-224.444C1114.98,-215.399 1155.59,-201.064 1184.34,-190.916"/>
<polygon fill="midnightblue" stroke="midnightblue" points="1185.71,-194.145 1193.98,-187.516 1183.38,-187.544 1185.71,-194.145"/>
</g>
<!-- Node46 -->
<g id="node46" class="node"><title>Node46</title>
<g id="a_node46"><a xlink:href="_ogre_shared_ptr_8h.html" target="_top" xlink:title="OgreSharedPtr.h">
<polygon fill="none" stroke="red" points="1053.6,-168.5 1053.6,-187.5 1142.6,-187.5 1142.6,-168.5 1053.6,-168.5"/>
<text text-anchor="middle" x="1098.1" y="-175.5" font-family="Helvetica,sans-Serif" font-size="10.00">OgreSharedPtr.h</text>
</a>
</g>
</g>
<!-- Node44&#45;&gt;Node46 -->
<g id="edge60" class="edge"><title>Node44&#45;&gt;Node46</title>
<path fill="none" stroke="midnightblue" d="M1070.55,-224.083C1075.12,-216.613 1081.77,-205.724 1087.4,-196.52"/>
<polygon fill="midnightblue" stroke="midnightblue" points="1090.53,-198.109 1092.76,-187.751 1084.56,-194.459 1090.53,-198.109"/>
</g>
<!-- Node45&#45;&gt;Node3 -->
<g id="edge59" class="edge"><title>Node45&#45;&gt;Node3</title>
<path fill="none" stroke="midnightblue" d="M1199.09,-168.444C1179.52,-159.636 1148.8,-145.812 1126.38,-135.722"/>
<polygon fill="midnightblue" stroke="midnightblue" points="1127.59,-132.428 1117.03,-131.516 1124.71,-138.812 1127.59,-132.428"/>
</g>
<!-- Node46&#45;&gt;Node3 -->
<g id="edge61" class="edge"><title>Node46&#45;&gt;Node3</title>
<path fill="none" stroke="midnightblue" d="M1098.1,-168.083C1098.1,-161.006 1098.1,-150.861 1098.1,-141.986"/>
<polygon fill="midnightblue" stroke="midnightblue" points="1101.6,-141.751 1098.1,-131.751 1094.6,-141.751 1101.6,-141.751"/>
</g>
<!-- Node47&#45;&gt;Node3 -->
<g id="edge65" class="edge"><title>Node47&#45;&gt;Node3</title>
<path fill="none" stroke="midnightblue" d="M1244.36,-224.422C1266.62,-212.219 1300.63,-188.995 1284.1,-168 1268.76,-148.5 1208,-136.435 1160.04,-129.768"/>
<polygon fill="midnightblue" stroke="midnightblue" points="1160.4,-126.285 1150.02,-128.427 1159.47,-133.223 1160.4,-126.285"/>
</g>
<!-- Node47&#45;&gt;Node45 -->
<g id="edge66" class="edge"><title>Node47&#45;&gt;Node45</title>
<path fill="none" stroke="midnightblue" d="M1225.62,-224.083C1224.43,-216.927 1222.71,-206.635 1221.22,-197.691"/>
<polygon fill="midnightblue" stroke="midnightblue" points="1224.66,-197.04 1219.56,-187.751 1217.76,-198.19 1224.66,-197.04"/>
</g>
<!-- Node47&#45;&gt;Node46 -->
<g id="edge67" class="edge"><title>Node47&#45;&gt;Node46</title>
<path fill="none" stroke="midnightblue" d="M1206.66,-224.444C1185.43,-215.557 1152.01,-201.563 1127.85,-191.451"/>
<polygon fill="midnightblue" stroke="midnightblue" points="1129.03,-188.149 1118.45,-187.516 1126.32,-194.606 1129.03,-188.149"/>
</g>
<!-- Node48&#45;&gt;Node3 -->
<g id="edge69" class="edge"><title>Node48&#45;&gt;Node3</title>
<path fill="none" stroke="midnightblue" d="M913.799,-224.368C948.484,-205.292 1031.88,-159.422 1073.55,-136.505"/>
<polygon fill="midnightblue" stroke="midnightblue" points="1075.41,-139.477 1082.48,-131.591 1072.04,-133.344 1075.41,-139.477"/>
</g>
<!-- Node48&#45;&gt;Node34 -->
<g id="edge72" class="edge"><title>Node48&#45;&gt;Node34</title>
<path fill="none" stroke="midnightblue" d="M823.434,-229.669C736.661,-224.687 599.67,-213.055 555.105,-188 500.633,-157.376 491.445,-134.733 470.105,-76 464.724,-61.1904 463.717,-43.2651 463.918,-29.9927"/>
<polygon fill="midnightblue" stroke="midnightblue" points="467.426,-29.8532 464.326,-19.7221 460.432,-29.5752 467.426,-29.8532"/>
</g>
<!-- Node48&#45;&gt;Node35 -->
<g id="edge73" class="edge"><title>Node48&#45;&gt;Node35</title>
<path fill="none" stroke="midnightblue" d="M900.648,-224.361C908.14,-197.049 927.474,-111.118 892.105,-56 882.089,-40.3912 864.902,-29.9894 848.214,-23.1602"/>
<polygon fill="midnightblue" stroke="midnightblue" points="849.097,-19.7542 838.505,-19.5398 846.652,-26.3131 849.097,-19.7542"/>
</g>
<!-- Node48&#45;&gt;Node45 -->
<g id="edge70" class="edge"><title>Node48&#45;&gt;Node45</title>
<path fill="none" stroke="midnightblue" d="M948.81,-224.444C1005.45,-214.885 1097.1,-199.419 1157.48,-189.23"/>
<polygon fill="midnightblue" stroke="midnightblue" points="1158.36,-192.632 1167.64,-187.516 1157.19,-185.729 1158.36,-192.632"/>
</g>
<!-- Node48&#45;&gt;Node46 -->
<g id="edge71" class="edge"><title>Node48&#45;&gt;Node46</title>
<path fill="none" stroke="midnightblue" d="M929.795,-224.444C964.173,-215.162 1019.18,-200.309 1056.89,-190.127"/>
<polygon fill="midnightblue" stroke="midnightblue" points="1057.82,-193.502 1066.56,-187.516 1056,-186.744 1057.82,-193.502"/>
</g>
<!-- Node49&#45;&gt;Node3 -->
<g id="edge75" class="edge"><title>Node49&#45;&gt;Node3</title>
<path fill="none" stroke="midnightblue" d="M1401.91,-224.426C1423.16,-211.836 1456.38,-187.708 1439.1,-168 1421.01,-147.361 1253.02,-133.157 1159.77,-126.79"/>
<polygon fill="midnightblue" stroke="midnightblue" points="1159.82,-123.285 1149.61,-126.107 1159.36,-130.27 1159.82,-123.285"/>
</g>
<!-- Node49&#45;&gt;Node34 -->
<g id="edge80" class="edge"><title>Node49&#45;&gt;Node34</title>
<path fill="none" stroke="midnightblue" d="M1408.26,-224.304C1435.12,-212.509 1474.64,-190.337 1456.1,-168 1434.59,-142.07 1191.53,-116.237 1158.1,-112 919.042,-81.6935 851.442,-132.173 617.105,-76 569.963,-64.6997 518.86,-40.0151 489.544,-24.5271"/>
<polygon fill="midnightblue" stroke="midnightblue" points="490.941,-21.3047 480.475,-19.6598 487.631,-27.4726 490.941,-21.3047"/>
</g>
<!-- Node49&#45;&gt;Node35 -->
<g id="edge81" class="edge"><title>Node49&#45;&gt;Node35</title>
<path fill="none" stroke="midnightblue" d="M1442.29,-224.468C1484.81,-215.456 1532.52,-198.244 1511.1,-168 1467.81,-106.853 1424.51,-131.27 1352.1,-112 1260.28,-87.5613 987.314,-41.4444 863.906,-21.0898"/>
<polygon fill="midnightblue" stroke="midnightblue" points="864.296,-17.607 853.86,-19.4353 863.159,-24.5139 864.296,-17.607"/>
</g>
<!-- Node49&#45;&gt;Node45 -->
<g id="edge76" class="edge"><title>Node49&#45;&gt;Node45</title>
<path fill="none" stroke="midnightblue" d="M1359.48,-224.444C1331.1,-215.32 1285.97,-200.813 1254.35,-190.651"/>
<polygon fill="midnightblue" stroke="midnightblue" points="1255.19,-187.244 1244.6,-187.516 1253.05,-193.909 1255.19,-187.244"/>
</g>
<!-- Node49&#45;&gt;Node46 -->
<g id="edge77" class="edge"><title>Node49&#45;&gt;Node46</title>
<path fill="none" stroke="midnightblue" d="M1340.47,-224.444C1289.66,-214.916 1207.55,-199.521 1153.2,-189.33"/>
<polygon fill="midnightblue" stroke="midnightblue" points="1153.53,-185.83 1143.05,-187.428 1152.24,-192.711 1153.53,-185.83"/>
</g>
<!-- Node50 -->
<g id="node50" class="node"><title>Node50</title>
<g id="a_node50"><a xlink:href="_ogre_colour_value_8h.html" target="_top" xlink:title="OgreColourValue.h">
<polygon fill="none" stroke="black" points="1331.6,-168.5 1331.6,-187.5 1430.6,-187.5 1430.6,-168.5 1331.6,-168.5"/>
<text text-anchor="middle" x="1381.1" y="-175.5" font-family="Helvetica,sans-Serif" font-size="10.00">OgreColourValue.h</text>
</a>
</g>
</g>
<!-- Node49&#45;&gt;Node50 -->
<g id="edge78" class="edge"><title>Node49&#45;&gt;Node50</title>
<path fill="none" stroke="midnightblue" d="M1385.28,-224.083C1384.62,-217.006 1383.68,-206.861 1382.86,-197.986"/>
<polygon fill="midnightblue" stroke="midnightblue" points="1386.32,-197.386 1381.92,-187.751 1379.35,-198.031 1386.32,-197.386"/>
</g>
<!-- Node50&#45;&gt;Node3 -->
<g id="edge79" class="edge"><title>Node50&#45;&gt;Node3</title>
<path fill="none" stroke="midnightblue" d="M1336.26,-168.444C1286.48,-158.944 1206.12,-143.611 1152.71,-133.42"/>
<polygon fill="midnightblue" stroke="midnightblue" points="1153.22,-129.953 1142.74,-131.516 1151.9,-136.829 1153.22,-129.953"/>
</g>
</g>
</svg>
