<?xml version="1.0" encoding="UTF-8" standalone="no"?>
<!DOCTYPE svg PUBLIC "-//W3C//DTD SVG 1.1//EN"
 "http://www.w3.org/Graphics/SVG/1.1/DTD/svg11.dtd">
<!-- Generated by graphviz version 2.38.0 (20140413.2041)
 -->
<!-- Title: OgreGLHardwareIndexBuffer.h Pages: 1 -->
<svg width="2674pt" height="476pt"
 viewBox="0.00 0.00 2674.15 476.00" xmlns="http://www.w3.org/2000/svg" xmlns:xlink="http://www.w3.org/1999/xlink">
<g id="graph0" class="graph" transform="scale(1 1) rotate(0) translate(4 472)">
<title>OgreGLHardwareIndexBuffer.h</title>
<!-- Node1 -->
<g id="node1" class="node"><title>Node1</title>
<polygon fill="#bfbfbf" stroke="black" points="366.15,-448.5 366.15,-467.5 517.15,-467.5 517.15,-448.5 366.15,-448.5"/>
<text text-anchor="middle" x="441.65" y="-455.5" font-family="Helvetica,sans-Serif" font-size="10.00">OgreGLHardwareIndexBuffer.h</text>
</g>
<!-- Node2 -->
<g id="node2" class="node"><title>Node2</title>
<g id="a_node2"><a xlink:href="_ogre_g_l_prerequisites_8h.html" target="_top" xlink:title="OgreGLPrerequisites.h">
<polygon fill="none" stroke="black" points="494.65,-392.5 494.65,-411.5 610.65,-411.5 610.65,-392.5 494.65,-392.5"/>
<text text-anchor="middle" x="552.65" y="-399.5" font-family="Helvetica,sans-Serif" font-size="10.00">OgreGLPrerequisites.h</text>
</a>
</g>
</g>
<!-- Node1&#45;&gt;Node2 -->
<g id="edge1" class="edge"><title>Node1&#45;&gt;Node2</title>
<path fill="none" stroke="midnightblue" d="M459.484,-448.324C477.366,-439.625 505.125,-426.12 525.695,-416.113"/>
<polygon fill="midnightblue" stroke="midnightblue" points="527.399,-419.177 534.86,-411.655 524.336,-412.882 527.399,-419.177"/>
</g>
<!-- Node46 -->
<g id="node46" class="node"><title>Node46</title>
<g id="a_node46"><a xlink:href="_ogre_hardware_index_buffer_8h.html" target="_top" xlink:title="OgreHardwareIndexBuffer.h">
<polygon fill="none" stroke="black" points="225.65,-392.5 225.65,-411.5 363.65,-411.5 363.65,-392.5 225.65,-392.5"/>
<text text-anchor="middle" x="294.65" y="-399.5" font-family="Helvetica,sans-Serif" font-size="10.00">OgreHardwareIndexBuffer.h</text>
</a>
</g>
</g>
<!-- Node1&#45;&gt;Node46 -->
<g id="edge50" class="edge"><title>Node1&#45;&gt;Node46</title>
<path fill="none" stroke="midnightblue" d="M418.357,-448.444C393.842,-439.438 355.053,-425.189 327.45,-415.049"/>
<polygon fill="midnightblue" stroke="midnightblue" points="328.427,-411.679 317.833,-411.516 326.013,-418.25 328.427,-411.679"/>
</g>
<!-- Node3 -->
<g id="node3" class="node"><title>Node3</title>
<g id="a_node3"><a xlink:href="_ogre_prerequisites_8h.html" target="_top" xlink:title="OgrePrerequisites.h">
<polygon fill="none" stroke="black" points="242.15,-168.5 242.15,-187.5 345.15,-187.5 345.15,-168.5 242.15,-168.5"/>
<text text-anchor="middle" x="293.65" y="-175.5" font-family="Helvetica,sans-Serif" font-size="10.00">OgrePrerequisites.h</text>
</a>
</g>
</g>
<!-- Node2&#45;&gt;Node3 -->
<g id="edge2" class="edge"><title>Node2&#45;&gt;Node3</title>
<path fill="none" stroke="midnightblue" d="M563.445,-392.478C577.95,-379.954 600.605,-355.906 588.65,-336 536.263,-248.776 417.207,-207.378 347.412,-189.954"/>
<polygon fill="midnightblue" stroke="midnightblue" points="348.028,-186.502 337.486,-187.554 346.383,-193.306 348.028,-186.502"/>
</g>
<!-- Node41 -->
<g id="node41" class="node"><title>Node41</title>
<polygon fill="none" stroke="#bfbfbf" points="636.15,-336.5 636.15,-355.5 699.15,-355.5 699.15,-336.5 636.15,-336.5"/>
<text text-anchor="middle" x="667.65" y="-343.5" font-family="Helvetica,sans-Serif" font-size="10.00">windows.h</text>
</g>
<!-- Node2&#45;&gt;Node41 -->
<g id="edge45" class="edge"><title>Node2&#45;&gt;Node41</title>
<path fill="none" stroke="midnightblue" d="M570.872,-392.444C589.545,-383.675 618.806,-369.935 640.267,-359.858"/>
<polygon fill="midnightblue" stroke="midnightblue" points="641.949,-362.935 649.513,-355.516 638.973,-356.599 641.949,-362.935"/>
</g>
<!-- Node42 -->
<g id="node42" class="node"><title>Node42</title>
<polygon fill="none" stroke="#bfbfbf" points="717.15,-336.5 717.15,-355.5 770.15,-355.5 770.15,-336.5 717.15,-336.5"/>
<text text-anchor="middle" x="743.65" y="-343.5" font-family="Helvetica,sans-Serif" font-size="10.00">wingdi.h</text>
</g>
<!-- Node2&#45;&gt;Node42 -->
<g id="edge46" class="edge"><title>Node2&#45;&gt;Node42</title>
<path fill="none" stroke="midnightblue" d="M582.914,-392.444C616.663,-382.902 671.231,-367.474 707.275,-357.284"/>
<polygon fill="midnightblue" stroke="midnightblue" points="708.246,-360.647 716.917,-354.558 706.342,-353.911 708.246,-360.647"/>
</g>
<!-- Node43 -->
<g id="node43" class="node"><title>Node43</title>
<polygon fill="none" stroke="#bfbfbf" points="360.15,-336.5 360.15,-355.5 421.15,-355.5 421.15,-336.5 360.15,-336.5"/>
<text text-anchor="middle" x="390.65" y="-343.5" font-family="Helvetica,sans-Serif" font-size="10.00">GL/glew.h</text>
</g>
<!-- Node2&#45;&gt;Node43 -->
<g id="edge47" class="edge"><title>Node2&#45;&gt;Node43</title>
<path fill="none" stroke="midnightblue" d="M526.98,-392.444C499.727,-383.359 456.466,-368.939 425.999,-358.783"/>
<polygon fill="midnightblue" stroke="midnightblue" points="426.793,-355.358 416.199,-355.516 424.579,-361.999 426.793,-355.358"/>
</g>
<!-- Node44 -->
<g id="node44" class="node"><title>Node44</title>
<polygon fill="none" stroke="#bfbfbf" points="439.65,-336.5 439.65,-355.5 507.65,-355.5 507.65,-336.5 439.65,-336.5"/>
<text text-anchor="middle" x="473.65" y="-343.5" font-family="Helvetica,sans-Serif" font-size="10.00">GL/wglew.h</text>
</g>
<!-- Node2&#45;&gt;Node44 -->
<g id="edge48" class="edge"><title>Node2&#45;&gt;Node44</title>
<path fill="none" stroke="midnightblue" d="M539.957,-392.324C527.749,-383.979 509.071,-371.212 494.647,-361.352"/>
<polygon fill="midnightblue" stroke="midnightblue" points="496.542,-358.408 486.311,-355.655 492.591,-364.187 496.542,-358.408"/>
</g>
<!-- Node45 -->
<g id="node45" class="node"><title>Node45</title>
<polygon fill="none" stroke="#bfbfbf" points="526.15,-336.5 526.15,-355.5 579.15,-355.5 579.15,-336.5 526.15,-336.5"/>
<text text-anchor="middle" x="552.65" y="-343.5" font-family="Helvetica,sans-Serif" font-size="10.00">GL/glu.h</text>
</g>
<!-- Node2&#45;&gt;Node45 -->
<g id="edge49" class="edge"><title>Node2&#45;&gt;Node45</title>
<path fill="none" stroke="midnightblue" d="M552.65,-392.083C552.65,-385.006 552.65,-374.861 552.65,-365.986"/>
<polygon fill="midnightblue" stroke="midnightblue" points="556.15,-365.751 552.65,-355.751 549.15,-365.751 556.15,-365.751"/>
</g>
<!-- Node4 -->
<g id="node4" class="node"><title>Node4</title>
<g id="a_node4"><a xlink:href="_ogre_platform_8h.html" target="_top" xlink:title="OgrePlatform.h">
<polygon fill="none" stroke="black" points="350.15,-112.5 350.15,-131.5 433.15,-131.5 433.15,-112.5 350.15,-112.5"/>
<text text-anchor="middle" x="391.65" y="-119.5" font-family="Helvetica,sans-Serif" font-size="10.00">OgrePlatform.h</text>
</a>
</g>
</g>
<!-- Node3&#45;&gt;Node4 -->
<g id="edge3" class="edge"><title>Node3&#45;&gt;Node4</title>
<path fill="none" stroke="midnightblue" d="M309.395,-168.324C324.968,-159.743 349.027,-146.486 367.109,-136.522"/>
<polygon fill="midnightblue" stroke="midnightblue" points="368.874,-139.546 375.943,-131.655 365.496,-133.415 368.874,-139.546"/>
</g>
<!-- Node6 -->
<g id="node6" class="node"><title>Node6</title>
<polygon fill="none" stroke="#bfbfbf" points="475.15,-56.5 475.15,-75.5 516.15,-75.5 516.15,-56.5 475.15,-56.5"/>
<text text-anchor="middle" x="495.65" y="-63.5" font-family="Helvetica,sans-Serif" font-size="10.00">string</text>
</g>
<!-- Node3&#45;&gt;Node6 -->
<g id="edge5" class="edge"><title>Node3&#45;&gt;Node6</title>
<path fill="none" stroke="midnightblue" d="M345.477,-168.917C375.438,-162.447 412.793,-151.17 441.65,-132 460.295,-119.614 475.897,-98.9023 485.46,-84.1895"/>
<polygon fill="midnightblue" stroke="midnightblue" points="488.533,-85.875 490.844,-75.5351 482.59,-82.1776 488.533,-85.875"/>
</g>
<!-- Node7 -->
<g id="node7" class="node"><title>Node7</title>
<g id="a_node7"><a xlink:href="_ogre_std_headers_8h.html" target="_top" xlink:title="OgreStdHeaders.h">
<polygon fill="none" stroke="black" points="1670.65,-112.5 1670.65,-131.5 1768.65,-131.5 1768.65,-112.5 1670.65,-112.5"/>
<text text-anchor="middle" x="1719.65" y="-119.5" font-family="Helvetica,sans-Serif" font-size="10.00">OgreStdHeaders.h</text>
</a>
</g>
</g>
<!-- Node3&#45;&gt;Node7 -->
<g id="edge6" class="edge"><title>Node3&#45;&gt;Node7</title>
<path fill="none" stroke="midnightblue" d="M345.244,-175.046C565.417,-166.709 1425.75,-134.129 1660.31,-125.247"/>
<polygon fill="midnightblue" stroke="midnightblue" points="1660.49,-128.743 1670.35,-124.867 1660.22,-121.748 1660.49,-128.743"/>
</g>
<!-- Node37 -->
<g id="node37" class="node"><title>Node37</title>
<g id="a_node37"><a xlink:href="_ogre_memory_allocator_config_8h.html" target="_top" xlink:title="This file configures Ogre&#39;s memory allocators. ">
<polygon fill="none" stroke="red" points="117.65,-112.5 117.65,-131.5 265.65,-131.5 265.65,-112.5 117.65,-112.5"/>
<text text-anchor="middle" x="191.65" y="-119.5" font-family="Helvetica,sans-Serif" font-size="10.00">OgreMemoryAllocatorConfig.h</text>
</a>
</g>
</g>
<!-- Node3&#45;&gt;Node37 -->
<g id="edge37" class="edge"><title>Node3&#45;&gt;Node37</title>
<path fill="none" stroke="midnightblue" d="M277.262,-168.324C260.978,-159.703 235.782,-146.364 216.933,-136.386"/>
<polygon fill="midnightblue" stroke="midnightblue" points="218.473,-133.24 207.997,-131.655 215.197,-139.427 218.473,-133.24"/>
</g>
<!-- Node5 -->
<g id="node5" class="node"><title>Node5</title>
<g id="a_node5"><a xlink:href="_ogre_config_8h.html" target="_top" xlink:title="OgreConfig.h">
<polygon fill="none" stroke="red" points="382.65,-56.5 382.65,-75.5 456.65,-75.5 456.65,-56.5 382.65,-56.5"/>
<text text-anchor="middle" x="419.65" y="-63.5" font-family="Helvetica,sans-Serif" font-size="10.00">OgreConfig.h</text>
</a>
</g>
</g>
<!-- Node4&#45;&gt;Node5 -->
<g id="edge4" class="edge"><title>Node4&#45;&gt;Node5</title>
<path fill="none" stroke="midnightblue" d="M396.273,-112.083C400.106,-104.691 405.674,-93.9533 410.414,-84.8111"/>
<polygon fill="midnightblue" stroke="midnightblue" points="413.616,-86.2398 415.112,-75.7511 407.402,-83.0175 413.616,-86.2398"/>
</g>
<!-- Node7&#45;&gt;Node6 -->
<g id="edge16" class="edge"><title>Node7&#45;&gt;Node6</title>
<path fill="none" stroke="midnightblue" d="M1670.48,-120.807C1477.53,-119.797 771.073,-113.659 526.377,-75.5847"/>
<polygon fill="midnightblue" stroke="midnightblue" points="526.901,-72.1241 516.471,-73.983 525.784,-79.0343 526.901,-72.1241"/>
</g>
<!-- Node8 -->
<g id="node8" class="node"><title>Node8</title>
<polygon fill="none" stroke="#bfbfbf" points="1695.15,-56.5 1695.15,-75.5 1744.15,-75.5 1744.15,-56.5 1695.15,-56.5"/>
<text text-anchor="middle" x="1719.65" y="-63.5" font-family="Helvetica,sans-Serif" font-size="10.00">cassert</text>
</g>
<!-- Node7&#45;&gt;Node8 -->
<g id="edge7" class="edge"><title>Node7&#45;&gt;Node8</title>
<path fill="none" stroke="midnightblue" d="M1719.65,-112.083C1719.65,-105.006 1719.65,-94.8611 1719.65,-85.9865"/>
<polygon fill="midnightblue" stroke="midnightblue" points="1723.15,-85.751 1719.65,-75.7511 1716.15,-85.7511 1723.15,-85.751"/>
</g>
<!-- Node9 -->
<g id="node9" class="node"><title>Node9</title>
<polygon fill="none" stroke="#bfbfbf" points="1762.15,-56.5 1762.15,-75.5 1805.15,-75.5 1805.15,-56.5 1762.15,-56.5"/>
<text text-anchor="middle" x="1783.65" y="-63.5" font-family="Helvetica,sans-Serif" font-size="10.00">cstdio</text>
</g>
<!-- Node7&#45;&gt;Node9 -->
<g id="edge8" class="edge"><title>Node7&#45;&gt;Node9</title>
<path fill="none" stroke="midnightblue" d="M1729.93,-112.324C1739.49,-104.263 1753.93,-92.0765 1765.43,-82.3695"/>
<polygon fill="midnightblue" stroke="midnightblue" points="1767.79,-84.9577 1773.18,-75.8339 1763.28,-79.6076 1767.79,-84.9577"/>
</g>
<!-- Node10 -->
<g id="node10" class="node"><title>Node10</title>
<polygon fill="none" stroke="#bfbfbf" points="1823.15,-56.5 1823.15,-75.5 1868.15,-75.5 1868.15,-56.5 1823.15,-56.5"/>
<text text-anchor="middle" x="1845.65" y="-63.5" font-family="Helvetica,sans-Serif" font-size="10.00">cstdlib</text>
</g>
<!-- Node7&#45;&gt;Node10 -->
<g id="edge9" class="edge"><title>Node7&#45;&gt;Node10</title>
<path fill="none" stroke="midnightblue" d="M1739.61,-112.444C1760.26,-103.596 1792.71,-89.6875 1816.28,-79.5865"/>
<polygon fill="midnightblue" stroke="midnightblue" points="1817.97,-82.6727 1825.78,-75.5164 1815.21,-76.2387 1817.97,-82.6727"/>
</g>
<!-- Node11 -->
<g id="node11" class="node"><title>Node11</title>
<polygon fill="none" stroke="#bfbfbf" points="1886.15,-56.5 1886.15,-75.5 1927.15,-75.5 1927.15,-56.5 1886.15,-56.5"/>
<text text-anchor="middle" x="1906.65" y="-63.5" font-family="Helvetica,sans-Serif" font-size="10.00">ctime</text>
</g>
<!-- Node7&#45;&gt;Node11 -->
<g id="edge10" class="edge"><title>Node7&#45;&gt;Node11</title>
<path fill="none" stroke="midnightblue" d="M1750.59,-112.418C1780.5,-104.074 1827.32,-90.8764 1876.26,-76.3691"/>
<polygon fill="midnightblue" stroke="midnightblue" points="1877.49,-79.6565 1886.07,-73.4512 1875.49,-72.9469 1877.49,-79.6565"/>
</g>
<!-- Node12 -->
<g id="node12" class="node"><title>Node12</title>
<polygon fill="none" stroke="#bfbfbf" points="1945.65,-56.5 1945.65,-75.5 1991.65,-75.5 1991.65,-56.5 1945.65,-56.5"/>
<text text-anchor="middle" x="1968.65" y="-63.5" font-family="Helvetica,sans-Serif" font-size="10.00">cstring</text>
</g>
<!-- Node7&#45;&gt;Node12 -->
<g id="edge11" class="edge"><title>Node7&#45;&gt;Node12</title>
<path fill="none" stroke="midnightblue" d="M1765.58,-112.44C1807.49,-104.412 1871.35,-91.6424 1935.71,-76.0974"/>
<polygon fill="midnightblue" stroke="midnightblue" points="1936.74,-79.4498 1945.63,-73.6817 1935.08,-72.6488 1936.74,-79.4498"/>
</g>
<!-- Node13 -->
<g id="node13" class="node"><title>Node13</title>
<polygon fill="none" stroke="#bfbfbf" points="2010.15,-56.5 2010.15,-75.5 2059.15,-75.5 2059.15,-56.5 2010.15,-56.5"/>
<text text-anchor="middle" x="2034.65" y="-63.5" font-family="Helvetica,sans-Serif" font-size="10.00">cstdarg</text>
</g>
<!-- Node7&#45;&gt;Node13 -->
<g id="edge12" class="edge"><title>Node7&#45;&gt;Node13</title>
<path fill="none" stroke="midnightblue" d="M1768.66,-114.666C1822.86,-107.324 1912.94,-94.1273 1999.81,-75.9934"/>
<polygon fill="midnightblue" stroke="midnightblue" points="2000.78,-79.3665 2009.84,-73.8749 1999.33,-72.5177 2000.78,-79.3665"/>
</g>
<!-- Node14 -->
<g id="node14" class="node"><title>Node14</title>
<polygon fill="none" stroke="#bfbfbf" points="2077.65,-56.5 2077.65,-75.5 2121.65,-75.5 2121.65,-56.5 2077.65,-56.5"/>
<text text-anchor="middle" x="2099.65" y="-63.5" font-family="Helvetica,sans-Serif" font-size="10.00">cmath</text>
</g>
<!-- Node7&#45;&gt;Node14 -->
<g id="edge13" class="edge"><title>Node7&#45;&gt;Node14</title>
<path fill="none" stroke="midnightblue" d="M1768.89,-117.064C1834.84,-111.262 1955.6,-98.7821 2067.31,-75.996"/>
<polygon fill="midnightblue" stroke="midnightblue" points="2068.32,-79.3617 2077.4,-73.9046 2066.9,-72.5074 2068.32,-79.3617"/>
</g>
<!-- Node15 -->
<g id="node15" class="node"><title>Node15</title>
<polygon fill="none" stroke="#bfbfbf" points="2139.65,-56.5 2139.65,-75.5 2183.65,-75.5 2183.65,-56.5 2139.65,-56.5"/>
<text text-anchor="middle" x="2161.65" y="-63.5" font-family="Helvetica,sans-Serif" font-size="10.00">vector</text>
</g>
<!-- Node7&#45;&gt;Node15 -->
<g id="edge14" class="edge"><title>Node7&#45;&gt;Node15</title>
<path fill="none" stroke="midnightblue" d="M1768.78,-118.383C1844.41,-113.752 1993.92,-102.208 2129.28,-75.9555"/>
<polygon fill="midnightblue" stroke="midnightblue" points="2130.28,-79.3257 2139.41,-73.9567 2128.92,-72.458 2130.28,-79.3257"/>
</g>
<!-- Node16 -->
<g id="node16" class="node"><title>Node16</title>
<polygon fill="none" stroke="#bfbfbf" points="2202.15,-56.5 2202.15,-75.5 2237.15,-75.5 2237.15,-56.5 2202.15,-56.5"/>
<text text-anchor="middle" x="2219.65" y="-63.5" font-family="Helvetica,sans-Serif" font-size="10.00">map</text>
</g>
<!-- Node7&#45;&gt;Node16 -->
<g id="edge15" class="edge"><title>Node7&#45;&gt;Node16</title>
<path fill="none" stroke="midnightblue" d="M1768.89,-119.981C1853.71,-117.433 2032.78,-108.572 2192.11,-75.5935"/>
<polygon fill="midnightblue" stroke="midnightblue" points="2193.03,-78.9771 2202.09,-73.4902 2191.58,-72.1276 2193.03,-78.9771"/>
</g>
<!-- Node17 -->
<g id="node17" class="node"><title>Node17</title>
<polygon fill="none" stroke="#bfbfbf" points="2255.65,-56.5 2255.65,-75.5 2285.65,-75.5 2285.65,-56.5 2255.65,-56.5"/>
<text text-anchor="middle" x="2270.65" y="-63.5" font-family="Helvetica,sans-Serif" font-size="10.00">set</text>
</g>
<!-- Node7&#45;&gt;Node17 -->
<g id="edge17" class="edge"><title>Node7&#45;&gt;Node17</title>
<path fill="none" stroke="midnightblue" d="M1769.01,-121.251C1861.43,-120.76 2066.63,-115.125 2245.75,-75.5723"/>
<polygon fill="midnightblue" stroke="midnightblue" points="2246.62,-78.9639 2255.61,-73.3545 2245.08,-72.1345 2246.62,-78.9639"/>
</g>
<!-- Node18 -->
<g id="node18" class="node"><title>Node18</title>
<polygon fill="none" stroke="#bfbfbf" points="2304.15,-56.5 2304.15,-75.5 2333.15,-75.5 2333.15,-56.5 2304.15,-56.5"/>
<text text-anchor="middle" x="2318.65" y="-63.5" font-family="Helvetica,sans-Serif" font-size="10.00">list</text>
</g>
<!-- Node7&#45;&gt;Node18 -->
<g id="edge18" class="edge"><title>Node7&#45;&gt;Node18</title>
<path fill="none" stroke="midnightblue" d="M1768.79,-121.756C1867.32,-122.285 2095.79,-118.549 2294.11,-75.4074"/>
<polygon fill="midnightblue" stroke="midnightblue" points="2295.12,-78.7685 2304.12,-73.1887 2293.6,-71.9341 2295.12,-78.7685"/>
</g>
<!-- Node19 -->
<g id="node19" class="node"><title>Node19</title>
<polygon fill="none" stroke="#bfbfbf" points="2351.15,-56.5 2351.15,-75.5 2394.15,-75.5 2394.15,-56.5 2351.15,-56.5"/>
<text text-anchor="middle" x="2372.65" y="-63.5" font-family="Helvetica,sans-Serif" font-size="10.00">deque</text>
</g>
<!-- Node7&#45;&gt;Node19 -->
<g id="edge19" class="edge"><title>Node7&#45;&gt;Node19</title>
<path fill="none" stroke="midnightblue" d="M1768.98,-121.092C1873.32,-120.503 2124,-114.94 2340.86,-75.9699"/>
<polygon fill="midnightblue" stroke="midnightblue" points="2341.62,-79.3882 2350.83,-74.1493 2340.36,-72.5019 2341.62,-79.3882"/>
</g>
<!-- Node20 -->
<g id="node20" class="node"><title>Node20</title>
<polygon fill="none" stroke="#bfbfbf" points="2412.15,-56.5 2412.15,-75.5 2455.15,-75.5 2455.15,-56.5 2412.15,-56.5"/>
<text text-anchor="middle" x="2433.65" y="-63.5" font-family="Helvetica,sans-Serif" font-size="10.00">queue</text>
</g>
<!-- Node7&#45;&gt;Node20 -->
<g id="edge20" class="edge"><title>Node7&#45;&gt;Node20</title>
<path fill="none" stroke="midnightblue" d="M1769.05,-121.548C1880.72,-121.975 2161.03,-118.481 2401.84,-75.9569"/>
<polygon fill="midnightblue" stroke="midnightblue" points="2402.61,-79.3757 2411.83,-74.166 2401.37,-72.4855 2402.61,-79.3757"/>
</g>
<!-- Node21 -->
<g id="node21" class="node"><title>Node21</title>
<polygon fill="none" stroke="#bfbfbf" points="2473.15,-56.5 2473.15,-75.5 2514.15,-75.5 2514.15,-56.5 2473.15,-56.5"/>
<text text-anchor="middle" x="2493.65" y="-63.5" font-family="Helvetica,sans-Serif" font-size="10.00">bitset</text>
</g>
<!-- Node7&#45;&gt;Node21 -->
<g id="edge21" class="edge"><title>Node7&#45;&gt;Node21</title>
<path fill="none" stroke="midnightblue" d="M1768.66,-119.578C1909.03,-115.268 2311.69,-101.181 2462.87,-75.8618"/>
<polygon fill="midnightblue" stroke="midnightblue" points="2463.65,-79.2793 2472.89,-74.0987 2462.44,-72.3853 2463.65,-79.2793"/>
</g>
<!-- Node22 -->
<g id="node22" class="node"><title>Node22</title>
<polygon fill="none" stroke="#bfbfbf" points="2532.65,-56.5 2532.65,-75.5 2588.65,-75.5 2588.65,-56.5 2532.65,-56.5"/>
<text text-anchor="middle" x="2560.65" y="-63.5" font-family="Helvetica,sans-Serif" font-size="10.00">algorithm</text>
</g>
<!-- Node7&#45;&gt;Node22 -->
<g id="edge22" class="edge"><title>Node7&#45;&gt;Node22</title>
<path fill="none" stroke="midnightblue" d="M1768.91,-121.361C1893.65,-121.608 2232.1,-118.134 2522.17,-75.9333"/>
<polygon fill="midnightblue" stroke="midnightblue" points="2523.09,-79.3363 2532.47,-74.4157 2522.07,-72.4111 2523.09,-79.3363"/>
</g>
<!-- Node23 -->
<g id="node23" class="node"><title>Node23</title>
<polygon fill="none" stroke="#bfbfbf" points="2607.15,-56.5 2607.15,-75.5 2666.15,-75.5 2666.15,-56.5 2607.15,-56.5"/>
<text text-anchor="middle" x="2636.65" y="-63.5" font-family="Helvetica,sans-Serif" font-size="10.00">functional</text>
</g>
<!-- Node7&#45;&gt;Node23 -->
<g id="edge23" class="edge"><title>Node7&#45;&gt;Node23</title>
<path fill="none" stroke="midnightblue" d="M1768.96,-121.494C1901.52,-122.179 2276.58,-119.877 2597,-75.8055"/>
<polygon fill="midnightblue" stroke="midnightblue" points="2597.52,-79.2671 2606.94,-74.4222 2596.55,-72.3339 2597.52,-79.2671"/>
</g>
<!-- Node24 -->
<g id="node24" class="node"><title>Node24</title>
<polygon fill="none" stroke="#bfbfbf" points="534.65,-56.5 534.65,-75.5 574.65,-75.5 574.65,-56.5 534.65,-56.5"/>
<text text-anchor="middle" x="554.65" y="-63.5" font-family="Helvetica,sans-Serif" font-size="10.00">limits</text>
</g>
<!-- Node7&#45;&gt;Node24 -->
<g id="edge24" class="edge"><title>Node7&#45;&gt;Node24</title>
<path fill="none" stroke="midnightblue" d="M1670.62,-120.759C1484.01,-119.582 817.311,-112.944 584.843,-75.6636"/>
<polygon fill="midnightblue" stroke="midnightblue" points="585.206,-72.1758 574.766,-73.9806 584.053,-79.0802 585.206,-72.1758"/>
</g>
<!-- Node25 -->
<g id="node25" class="node"><title>Node25</title>
<polygon fill="none" stroke="#bfbfbf" points="592.65,-56.5 592.65,-75.5 642.65,-75.5 642.65,-56.5 592.65,-56.5"/>
<text text-anchor="middle" x="617.65" y="-63.5" font-family="Helvetica,sans-Serif" font-size="10.00">fstream</text>
</g>
<!-- Node7&#45;&gt;Node25 -->
<g id="edge25" class="edge"><title>Node7&#45;&gt;Node25</title>
<path fill="none" stroke="midnightblue" d="M1670.57,-120.295C1488.65,-117.469 853.025,-105.653 652.65,-76 652.549,-75.9851 652.448,-75.97 652.347,-75.9547"/>
<polygon fill="midnightblue" stroke="midnightblue" points="653.234,-72.5609 642.756,-74.127 651.924,-79.4372 653.234,-72.5609"/>
</g>
<!-- Node26 -->
<g id="node26" class="node"><title>Node26</title>
<polygon fill="none" stroke="#bfbfbf" points="661.15,-56.5 661.15,-75.5 706.15,-75.5 706.15,-56.5 661.15,-56.5"/>
<text text-anchor="middle" x="683.65" y="-63.5" font-family="Helvetica,sans-Serif" font-size="10.00">iosfwd</text>
</g>
<!-- Node7&#45;&gt;Node26 -->
<g id="edge26" class="edge"><title>Node7&#45;&gt;Node26</title>
<path fill="none" stroke="midnightblue" d="M1670.46,-120.288C1498.26,-117.566 922.335,-106.475 716.344,-75.6227"/>
<polygon fill="midnightblue" stroke="midnightblue" points="716.652,-72.1284 706.232,-74.0432 715.572,-79.0445 716.652,-72.1284"/>
</g>
<!-- Node27 -->
<g id="node27" class="node"><title>Node27</title>
<polygon fill="none" stroke="#bfbfbf" points="724.65,-56.5 724.65,-75.5 776.65,-75.5 776.65,-56.5 724.65,-56.5"/>
<text text-anchor="middle" x="750.65" y="-63.5" font-family="Helvetica,sans-Serif" font-size="10.00">sstream</text>
</g>
<!-- Node7&#45;&gt;Node27 -->
<g id="edge27" class="edge"><title>Node7&#45;&gt;Node27</title>
<path fill="none" stroke="midnightblue" d="M1670.49,-119.952C1506.43,-116.253 977.843,-102.646 786.83,-75.8154"/>
<polygon fill="midnightblue" stroke="midnightblue" points="787.306,-72.348 776.905,-74.3625 786.292,-79.2741 787.306,-72.348"/>
</g>
<!-- Node28 -->
<g id="node28" class="node"><title>Node28</title>
<polygon fill="none" stroke="#bfbfbf" points="794.65,-56.5 794.65,-75.5 862.65,-75.5 862.65,-56.5 794.65,-56.5"/>
<text text-anchor="middle" x="828.65" y="-63.5" font-family="Helvetica,sans-Serif" font-size="10.00">sys/types.h</text>
</g>
<!-- Node7&#45;&gt;Node28 -->
<g id="edge28" class="edge"><title>Node7&#45;&gt;Node28</title>
<path fill="none" stroke="midnightblue" d="M1670.18,-121.017C1540.68,-120.497 1181.01,-115.429 872.856,-75.9471"/>
<polygon fill="midnightblue" stroke="midnightblue" points="873.203,-72.4629 862.836,-74.6487 872.304,-79.4048 873.203,-72.4629"/>
</g>
<!-- Node29 -->
<g id="node29" class="node"><title>Node29</title>
<polygon fill="none" stroke="#bfbfbf" points="880.65,-56.5 880.65,-75.5 940.65,-75.5 940.65,-56.5 880.65,-56.5"/>
<text text-anchor="middle" x="910.65" y="-63.5" font-family="Helvetica,sans-Serif" font-size="10.00">sys/stat.h</text>
</g>
<!-- Node7&#45;&gt;Node29 -->
<g id="edge29" class="edge"><title>Node7&#45;&gt;Node29</title>
<path fill="none" stroke="midnightblue" d="M1670.34,-120.889C1547.92,-120.014 1220.47,-113.992 950.65,-76 950.548,-75.9857 950.447,-75.9713 950.345,-75.9568"/>
<polygon fill="midnightblue" stroke="midnightblue" points="951.14,-72.5419 940.694,-74.3111 949.963,-79.4423 951.14,-72.5419"/>
</g>
<!-- Node30 -->
<g id="node30" class="node"><title>Node30</title>
<polygon fill="none" stroke="#bfbfbf" points="959.15,-56.5 959.15,-75.5 1010.15,-75.5 1010.15,-56.5 959.15,-56.5"/>
<text text-anchor="middle" x="984.65" y="-63.5" font-family="Helvetica,sans-Serif" font-size="10.00">unistd.h</text>
</g>
<!-- Node7&#45;&gt;Node30 -->
<g id="edge30" class="edge"><title>Node7&#45;&gt;Node30</title>
<path fill="none" stroke="midnightblue" d="M1670.5,-120.995C1557.29,-120.308 1269.4,-114.699 1020.48,-75.8079"/>
<polygon fill="midnightblue" stroke="midnightblue" points="1020.95,-72.3387 1010.53,-74.2313 1019.86,-79.2526 1020.95,-72.3387"/>
</g>
<!-- Node31 -->
<g id="node31" class="node"><title>Node31</title>
<polygon fill="none" stroke="#bfbfbf" points="1028.65,-56.5 1028.65,-75.5 1074.65,-75.5 1074.65,-56.5 1028.65,-56.5"/>
<text text-anchor="middle" x="1051.65" y="-63.5" font-family="Helvetica,sans-Serif" font-size="10.00">dlfcn.h</text>
</g>
<!-- Node7&#45;&gt;Node31 -->
<g id="edge31" class="edge"><title>Node7&#45;&gt;Node31</title>
<path fill="none" stroke="midnightblue" d="M1670.57,-120.914C1564.85,-120.002 1307.79,-113.877 1084.86,-75.8593"/>
<polygon fill="midnightblue" stroke="midnightblue" points="1085.39,-72.3993 1074.94,-74.1425 1084.2,-79.2967 1085.39,-72.3993"/>
</g>
<!-- Node32 -->
<g id="node32" class="node"><title>Node32</title>
<polygon fill="none" stroke="#bfbfbf" points="1092.65,-56.5 1092.65,-75.5 1170.65,-75.5 1170.65,-56.5 1092.65,-56.5"/>
<text text-anchor="middle" x="1131.65" y="-63.5" font-family="Helvetica,sans-Serif" font-size="10.00">ext/hash_map</text>
</g>
<!-- Node7&#45;&gt;Node32 -->
<g id="edge32" class="edge"><title>Node7&#45;&gt;Node32</title>
<path fill="none" stroke="midnightblue" d="M1670.43,-118.515C1577.09,-113.449 1367.82,-100.407 1180.92,-75.8894"/>
<polygon fill="midnightblue" stroke="midnightblue" points="1181.28,-72.407 1170.91,-74.5623 1180.36,-79.3463 1181.28,-72.407"/>
</g>
<!-- Node33 -->
<g id="node33" class="node"><title>Node33</title>
<polygon fill="none" stroke="#bfbfbf" points="1189.15,-56.5 1189.15,-75.5 1262.15,-75.5 1262.15,-56.5 1189.15,-56.5"/>
<text text-anchor="middle" x="1225.65" y="-63.5" font-family="Helvetica,sans-Serif" font-size="10.00">ext/hash_set</text>
</g>
<!-- Node7&#45;&gt;Node33 -->
<g id="edge33" class="edge"><title>Node7&#45;&gt;Node33</title>
<path fill="none" stroke="midnightblue" d="M1670.41,-117.562C1589.5,-111.582 1423.21,-97.9086 1272.18,-75.9399"/>
<polygon fill="midnightblue" stroke="midnightblue" points="1272.66,-72.4726 1262.26,-74.4809 1271.64,-79.3982 1272.66,-72.4726"/>
</g>
<!-- Node34 -->
<g id="node34" class="node"><title>Node34</title>
<polygon fill="none" stroke="#bfbfbf" points="1280.15,-56.5 1280.15,-75.5 1351.15,-75.5 1351.15,-56.5 1280.15,-56.5"/>
<text text-anchor="middle" x="1315.65" y="-63.5" font-family="Helvetica,sans-Serif" font-size="10.00">sys/param.h</text>
</g>
<!-- Node7&#45;&gt;Node34 -->
<g id="edge34" class="edge"><title>Node7&#45;&gt;Node34</title>
<path fill="none" stroke="midnightblue" d="M1670.42,-115.975C1603.06,-108.847 1478.19,-94.7323 1361.64,-76.0527"/>
<polygon fill="midnightblue" stroke="midnightblue" points="1361.9,-72.5498 1351.47,-74.4078 1360.78,-79.4599 1361.9,-72.5498"/>
</g>
<!-- Node35 -->
<g id="node35" class="node"><title>Node35</title>
<polygon fill="none" stroke="#bfbfbf" points="1369.65,-56.5 1369.65,-75.5 1535.65,-75.5 1535.65,-56.5 1369.65,-56.5"/>
<text text-anchor="middle" x="1452.65" y="-63.5" font-family="Helvetica,sans-Serif" font-size="10.00">CoreFoundation/CoreFoundation.h</text>
</g>
<!-- Node7&#45;&gt;Node35 -->
<g id="edge35" class="edge"><title>Node7&#45;&gt;Node35</title>
<path fill="none" stroke="midnightblue" d="M1677.34,-112.444C1630.57,-102.984 1555.19,-87.7384 1504.8,-77.5472"/>
<polygon fill="midnightblue" stroke="midnightblue" points="1505.25,-74.0683 1494.76,-75.5164 1503.87,-80.9294 1505.25,-74.0683"/>
</g>
<!-- Node36 -->
<g id="node36" class="node"><title>Node36</title>
<polygon fill="none" stroke="#bfbfbf" points="1553.65,-56.5 1553.65,-75.5 1677.65,-75.5 1677.65,-56.5 1553.65,-56.5"/>
<text text-anchor="middle" x="1615.65" y="-63.5" font-family="Helvetica,sans-Serif" font-size="10.00">emscripten/emscripten.h</text>
</g>
<!-- Node7&#45;&gt;Node36 -->
<g id="edge36" class="edge"><title>Node7&#45;&gt;Node36</title>
<path fill="none" stroke="midnightblue" d="M1702.94,-112.324C1686.34,-103.703 1660.65,-90.3643 1641.43,-80.3855"/>
<polygon fill="midnightblue" stroke="midnightblue" points="1642.81,-77.1565 1632.32,-75.6545 1639.58,-83.3689 1642.81,-77.1565"/>
</g>
<!-- Node38 -->
<g id="node38" class="node"><title>Node38</title>
<g id="a_node38"><a xlink:href="_ogre_memory_allocated_object_8h.html" target="_top" xlink:title="OgreMemoryAllocatedObject.h">
<polygon fill="none" stroke="red" points="214.65,-56.5 214.65,-75.5 364.65,-75.5 364.65,-56.5 214.65,-56.5"/>
<text text-anchor="middle" x="289.65" y="-63.5" font-family="Helvetica,sans-Serif" font-size="10.00">OgreMemoryAllocatedObject.h</text>
</a>
</g>
</g>
<!-- Node37&#45;&gt;Node38 -->
<g id="edge38" class="edge"><title>Node37&#45;&gt;Node38</title>
<path fill="none" stroke="midnightblue" d="M207.395,-112.324C222.968,-103.743 247.027,-90.486 265.109,-80.5224"/>
<polygon fill="midnightblue" stroke="midnightblue" points="266.874,-83.546 273.943,-75.6545 263.496,-77.4152 266.874,-83.546"/>
</g>
<!-- Node39 -->
<g id="node39" class="node"><title>Node39</title>
<g id="a_node39"><a xlink:href="_ogre_header_prefix_8h.html" target="_top" xlink:title="OgreHeaderPrefix.h">
<polygon fill="none" stroke="black" points="86.1497,-0.5 86.1497,-19.5 189.15,-19.5 189.15,-0.5 86.1497,-0.5"/>
<text text-anchor="middle" x="137.65" y="-7.5" font-family="Helvetica,sans-Serif" font-size="10.00">OgreHeaderPrefix.h</text>
</a>
</g>
</g>
<!-- Node37&#45;&gt;Node39 -->
<g id="edge41" class="edge"><title>Node37&#45;&gt;Node39</title>
<path fill="none" stroke="midnightblue" d="M188.953,-112.346C184.859,-99.6568 176.502,-75.4051 166.65,-56 161.758,-46.3661 155.329,-36.2023 149.768,-27.9766"/>
<polygon fill="midnightblue" stroke="midnightblue" points="152.562,-25.8644 143.985,-19.6444 146.811,-29.8554 152.562,-25.8644"/>
</g>
<!-- Node40 -->
<g id="node40" class="node"><title>Node40</title>
<g id="a_node40"><a xlink:href="_ogre_memory_s_t_l_allocator_8h.html" target="_top" xlink:title="OgreMemorySTLAllocator.h">
<polygon fill="none" stroke="red" points="21.1497,-56.5 21.1497,-75.5 158.15,-75.5 158.15,-56.5 21.1497,-56.5"/>
<text text-anchor="middle" x="89.6497" y="-63.5" font-family="Helvetica,sans-Serif" font-size="10.00">OgreMemorySTLAllocator.h</text>
</a>
</g>
</g>
<!-- Node37&#45;&gt;Node40 -->
<g id="edge42" class="edge"><title>Node37&#45;&gt;Node40</title>
<path fill="none" stroke="midnightblue" d="M175.262,-112.324C158.978,-103.703 133.782,-90.3643 114.933,-80.3855"/>
<polygon fill="midnightblue" stroke="midnightblue" points="116.473,-77.2402 105.997,-75.6545 113.197,-83.4267 116.473,-77.2402"/>
</g>
<!-- Node38&#45;&gt;Node3 -->
<g id="edge39" class="edge"><title>Node38&#45;&gt;Node3</title>
<path fill="none" stroke="midnightblue" d="M289.962,-75.5914C290.606,-93.3079 292.095,-134.254 292.971,-158.348"/>
<polygon fill="midnightblue" stroke="midnightblue" points="289.475,-158.502 293.336,-168.368 296.47,-158.248 289.475,-158.502"/>
</g>
<!-- Node38&#45;&gt;Node39 -->
<g id="edge40" class="edge"><title>Node38&#45;&gt;Node39</title>
<path fill="none" stroke="midnightblue" d="M265.565,-56.4435C240.105,-47.3986 199.756,-33.064 171.191,-22.9158"/>
<polygon fill="midnightblue" stroke="midnightblue" points="172.217,-19.5661 161.622,-19.5164 169.873,-26.1622 172.217,-19.5661"/>
</g>
<!-- Node40&#45;&gt;Node3 -->
<g id="edge43" class="edge"><title>Node40&#45;&gt;Node3</title>
<path fill="none" stroke="midnightblue" d="M89.5877,-75.5339C89.9721,-89.4264 92.8369,-116.895 108.65,-132 126.297,-148.857 185.139,-161.24 231.78,-168.701"/>
<polygon fill="midnightblue" stroke="midnightblue" points="231.409,-172.185 241.828,-170.264 232.485,-165.269 231.409,-172.185"/>
</g>
<!-- Node40&#45;&gt;Node39 -->
<g id="edge44" class="edge"><title>Node40&#45;&gt;Node39</title>
<path fill="none" stroke="midnightblue" d="M97.5759,-56.083C104.496,-48.2982 114.715,-36.8015 123.102,-27.3665"/>
<polygon fill="midnightblue" stroke="midnightblue" points="125.843,-29.5505 129.871,-19.7511 120.611,-24.8999 125.843,-29.5505"/>
</g>
<!-- Node46&#45;&gt;Node3 -->
<g id="edge51" class="edge"><title>Node46&#45;&gt;Node3</title>
<path fill="none" stroke="midnightblue" d="M299.016,-392.307C303.209,-383.437 309.25,-369.145 311.65,-356 322.122,-298.649 307.367,-229.65 298.892,-197.355"/>
<polygon fill="midnightblue" stroke="midnightblue" points="302.222,-196.264 296.208,-187.542 295.47,-198.111 302.222,-196.264"/>
</g>
<!-- Node47 -->
<g id="node47" class="node"><title>Node47</title>
<g id="a_node47"><a xlink:href="_ogre_hardware_buffer_8h.html" target="_top" xlink:title="OgreHardwareBuffer.h">
<polygon fill="none" stroke="black" points="29.6497,-280.5 29.6497,-299.5 143.65,-299.5 143.65,-280.5 29.6497,-280.5"/>
<text text-anchor="middle" x="86.6497" y="-287.5" font-family="Helvetica,sans-Serif" font-size="10.00">OgreHardwareBuffer.h</text>
</a>
</g>
</g>
<!-- Node46&#45;&gt;Node47 -->
<g id="edge52" class="edge"><title>Node46&#45;&gt;Node47</title>
<path fill="none" stroke="midnightblue" d="M276.954,-392.411C258.728,-383.504 229.55,-369.077 204.65,-356 171.891,-338.796 134.556,-318.032 110.812,-304.678"/>
<polygon fill="midnightblue" stroke="midnightblue" points="112.25,-301.471 101.819,-299.609 108.812,-307.569 112.25,-301.471"/>
</g>
<!-- Node49 -->
<g id="node49" class="node"><title>Node49</title>
<g id="a_node49"><a xlink:href="_ogre_shared_ptr_8h.html" target="_top" xlink:title="OgreSharedPtr.h">
<polygon fill="none" stroke="black" points="214.15,-336.5 214.15,-355.5 303.15,-355.5 303.15,-336.5 214.15,-336.5"/>
<text text-anchor="middle" x="258.65" y="-343.5" font-family="Helvetica,sans-Serif" font-size="10.00">OgreSharedPtr.h</text>
</a>
</g>
</g>
<!-- Node46&#45;&gt;Node49 -->
<g id="edge57" class="edge"><title>Node46&#45;&gt;Node49</title>
<path fill="none" stroke="midnightblue" d="M288.705,-392.083C283.672,-384.534 276.313,-373.495 270.136,-364.23"/>
<polygon fill="midnightblue" stroke="midnightblue" points="272.943,-362.13 264.484,-355.751 267.119,-366.013 272.943,-362.13"/>
</g>
<!-- Node47&#45;&gt;Node3 -->
<g id="edge53" class="edge"><title>Node47&#45;&gt;Node3</title>
<path fill="none" stroke="midnightblue" d="M102.893,-280.368C138.867,-261.251 225.473,-215.229 268.507,-192.361"/>
<polygon fill="midnightblue" stroke="midnightblue" points="270.294,-195.375 277.482,-187.591 267.009,-189.193 270.294,-195.375"/>
</g>
<!-- Node48 -->
<g id="node48" class="node"><title>Node48</title>
<g id="a_node48"><a xlink:href="_ogre_exception_8h.html" target="_top" xlink:title="OgreException.h">
<polygon fill="none" stroke="red" points="49.1497,-224.5 49.1497,-243.5 138.15,-243.5 138.15,-224.5 49.1497,-224.5"/>
<text text-anchor="middle" x="93.6497" y="-231.5" font-family="Helvetica,sans-Serif" font-size="10.00">OgreException.h</text>
</a>
</g>
</g>
<!-- Node47&#45;&gt;Node48 -->
<g id="edge54" class="edge"><title>Node47&#45;&gt;Node48</title>
<path fill="none" stroke="midnightblue" d="M87.8056,-280.083C88.7332,-272.927 90.0673,-262.635 91.2268,-253.691"/>
<polygon fill="midnightblue" stroke="midnightblue" points="94.7006,-254.118 92.5153,-243.751 87.7587,-253.218 94.7006,-254.118"/>
</g>
<!-- Node48&#45;&gt;Node3 -->
<g id="edge55" class="edge"><title>Node48&#45;&gt;Node3</title>
<path fill="none" stroke="midnightblue" d="M125.34,-224.444C159.718,-215.162 214.727,-200.309 252.439,-190.127"/>
<polygon fill="midnightblue" stroke="midnightblue" points="253.365,-193.502 262.107,-187.516 251.541,-186.744 253.365,-193.502"/>
</g>
<!-- Node48&#45;&gt;Node39 -->
<g id="edge56" class="edge"><title>Node48&#45;&gt;Node39</title>
<path fill="none" stroke="midnightblue" d="M83.55,-224.312C53.6675,-197.559 -29.709,-114.688 11.6497,-56 26.4089,-35.0567 51.8412,-23.8069 76.0093,-17.7854"/>
<polygon fill="midnightblue" stroke="midnightblue" points="76.8961,-21.1737 85.8955,-15.5825 75.3736,-14.3412 76.8961,-21.1737"/>
</g>
<!-- Node49&#45;&gt;Node3 -->
<g id="edge58" class="edge"><title>Node49&#45;&gt;Node3</title>
<path fill="none" stroke="midnightblue" d="M262.335,-336.186C265.951,-327.222 271.384,-312.858 274.65,-300 283.69,-264.399 289.181,-221.752 291.796,-197.776"/>
<polygon fill="midnightblue" stroke="midnightblue" points="295.299,-197.927 292.852,-187.619 288.337,-197.203 295.299,-197.927"/>
</g>
<!-- Node50 -->
<g id="node50" class="node"><title>Node50</title>
<g id="a_node50"><a xlink:href="_ogre_atomic_scalar_8h.html" target="_top" xlink:title="OgreAtomicScalar.h">
<polygon fill="none" stroke="red" points="161.65,-280.5 161.65,-299.5 265.65,-299.5 265.65,-280.5 161.65,-280.5"/>
<text text-anchor="middle" x="213.65" y="-287.5" font-family="Helvetica,sans-Serif" font-size="10.00">OgreAtomicScalar.h</text>
</a>
</g>
</g>
<!-- Node49&#45;&gt;Node50 -->
<g id="edge59" class="edge"><title>Node49&#45;&gt;Node50</title>
<path fill="none" stroke="midnightblue" d="M251.219,-336.083C244.797,-328.377 235.344,-317.033 227.527,-307.653"/>
<polygon fill="midnightblue" stroke="midnightblue" points="230.033,-305.193 220.942,-299.751 224.655,-309.674 230.033,-305.193"/>
</g>
<!-- Node50&#45;&gt;Node3 -->
<g id="edge60" class="edge"><title>Node50&#45;&gt;Node3</title>
<path fill="none" stroke="midnightblue" d="M219.927,-280.368C233.129,-262.215 263.976,-219.802 281.293,-195.99"/>
<polygon fill="midnightblue" stroke="midnightblue" points="284.35,-197.737 287.401,-187.591 278.689,-193.62 284.35,-197.737"/>
</g>
<!-- Node50&#45;&gt;Node48 -->
<g id="edge61" class="edge"><title>Node50&#45;&gt;Node48</title>
<path fill="none" stroke="midnightblue" d="M194.635,-280.444C175.062,-271.636 144.342,-257.812 121.921,-247.722"/>
<polygon fill="midnightblue" stroke="midnightblue" points="123.131,-244.428 112.575,-243.516 120.258,-250.812 123.131,-244.428"/>
</g>
</g>
</svg>
