<?xml version="1.0" encoding="UTF-8" standalone="no"?>
<!DOCTYPE svg PUBLIC "-//W3C//DTD SVG 1.1//EN"
 "http://www.w3.org/Graphics/SVG/1.1/DTD/svg11.dtd">
<!-- Generated by graphviz version 2.38.0 (20140413.2041)
 -->
<!-- Title: OgreD3D11RenderWindow.h Pages: 1 -->
<svg width="426pt" height="140pt"
 viewBox="0.00 0.00 425.50 140.00" xmlns="http://www.w3.org/2000/svg" xmlns:xlink="http://www.w3.org/1999/xlink">
<g id="graph0" class="graph" transform="scale(1 1) rotate(0) translate(4 136)">
<title>OgreD3D11RenderWindow.h</title>
<!-- Node1 -->
<g id="node1" class="node"><title>Node1</title>
<polygon fill="#bfbfbf" stroke="black" points="180.5,-112.5 180.5,-131.5 323.5,-131.5 323.5,-112.5 180.5,-112.5"/>
<text text-anchor="middle" x="252" y="-119.5" font-family="Helvetica,sans-Serif" font-size="10.00">OgreD3D11RenderWindow.h</text>
</g>
<!-- Node2 -->
<g id="node2" class="node"><title>Node2</title>
<g id="a_node2"><a xlink:href="_ogre_d3_d11_stereo_driver_impl_8h.html" target="_top" xlink:title="OgreD3D11StereoDriverImpl.h">
<polygon fill="none" stroke="black" points="91,-56.5 91,-75.5 241,-75.5 241,-56.5 91,-56.5"/>
<text text-anchor="middle" x="166" y="-63.5" font-family="Helvetica,sans-Serif" font-size="10.00">OgreD3D11StereoDriverImpl.h</text>
</a>
</g>
</g>
<!-- Node1&#45;&gt;Node2 -->
<g id="edge1" class="edge"><title>Node1&#45;&gt;Node2</title>
<path fill="none" stroke="midnightblue" d="M229.545,-106.901C213.776,-96.9986 193.186,-84.0705 179.783,-75.6545"/>
<polygon fill="midnightblue" stroke="midnightblue" points="227.852,-109.97 238.183,-112.324 231.575,-104.042 227.852,-109.97"/>
</g>
<!-- Node5 -->
<g id="node5" class="node"><title>Node5</title>
<g id="a_node5"><a xlink:href="_ogre_d3_d11_stereo_driver_bridge_8h.html" target="_top" xlink:title="OgreD3D11StereoDriverBridge.h">
<polygon fill="none" stroke="black" points="258.5,-56.5 258.5,-75.5 417.5,-75.5 417.5,-56.5 258.5,-56.5"/>
<text text-anchor="middle" x="338" y="-63.5" font-family="Helvetica,sans-Serif" font-size="10.00">OgreD3D11StereoDriverBridge.h</text>
</a>
</g>
</g>
<!-- Node1&#45;&gt;Node5 -->
<g id="edge4" class="edge"><title>Node1&#45;&gt;Node5</title>
<path fill="none" stroke="midnightblue" d="M274.455,-106.901C290.224,-96.9986 310.814,-84.0705 324.217,-75.6545"/>
<polygon fill="midnightblue" stroke="midnightblue" points="272.425,-104.042 265.817,-112.324 276.148,-109.97 272.425,-104.042"/>
</g>
<!-- Node3 -->
<g id="node3" class="node"><title>Node3</title>
<g id="a_node3"><a xlink:href="_ogre_d3_d11_stereo_driver_a_m_d_8h.html" target="_top" xlink:title="OgreD3D11StereoDriverAMD.h">
<polygon fill="none" stroke="black" points="0,-0.5 0,-19.5 154,-19.5 154,-0.5 0,-0.5"/>
<text text-anchor="middle" x="77" y="-7.5" font-family="Helvetica,sans-Serif" font-size="10.00">OgreD3D11StereoDriverAMD.h</text>
</a>
</g>
</g>
<!-- Node2&#45;&gt;Node3 -->
<g id="edge2" class="edge"><title>Node2&#45;&gt;Node3</title>
<path fill="none" stroke="midnightblue" d="M142.762,-50.9005C126.442,-40.9986 105.135,-28.0705 91.2639,-19.6545"/>
<polygon fill="midnightblue" stroke="midnightblue" points="141.336,-54.1289 151.701,-56.324 144.967,-48.1444 141.336,-54.1289"/>
</g>
<!-- Node4 -->
<g id="node4" class="node"><title>Node4</title>
<g id="a_node4"><a xlink:href="_ogre_d3_d11_stereo_driver_n_v_i_d_i_a_8h.html" target="_top" xlink:title="OgreD3D11StereoDriverNVIDIA.h">
<polygon fill="none" stroke="black" points="172,-0.5 172,-19.5 338,-19.5 338,-0.5 172,-0.5"/>
<text text-anchor="middle" x="255" y="-7.5" font-family="Helvetica,sans-Serif" font-size="10.00">OgreD3D11StereoDriverNVIDIA.h</text>
</a>
</g>
</g>
<!-- Node2&#45;&gt;Node4 -->
<g id="edge3" class="edge"><title>Node2&#45;&gt;Node4</title>
<path fill="none" stroke="midnightblue" d="M189.238,-50.9005C205.558,-40.9986 226.865,-28.0705 240.736,-19.6545"/>
<polygon fill="midnightblue" stroke="midnightblue" points="187.033,-48.1444 180.299,-56.324 190.664,-54.1289 187.033,-48.1444"/>
</g>
</g>
</svg>
