<?xml version="1.0" encoding="UTF-8" standalone="no"?>
<!DOCTYPE svg PUBLIC "-//W3C//DTD SVG 1.1//EN"
 "http://www.w3.org/Graphics/SVG/1.1/DTD/svg11.dtd">
<!-- Generated by graphviz version 2.38.0 (20140413.2041)
 -->
<!-- Title: OgreStaticPluginLoader.h Pages: 1 -->
<svg width="3127pt" height="420pt"
 viewBox="0.00 0.00 3127.23 420.00" xmlns="http://www.w3.org/2000/svg" xmlns:xlink="http://www.w3.org/1999/xlink">
<g id="graph0" class="graph" transform="scale(1 1) rotate(0) translate(4 416)">
<title>OgreStaticPluginLoader.h</title>
<!-- Node1 -->
<g id="node1" class="node"><title>Node1</title>
<polygon fill="#bfbfbf" stroke="black" points="939,-392.5 939,-411.5 1067,-411.5 1067,-392.5 939,-392.5"/>
<text text-anchor="middle" x="1003" y="-399.5" font-family="Helvetica,sans-Serif" font-size="10.00">OgreStaticPluginLoader.h</text>
</g>
<!-- Node2 -->
<g id="node2" class="node"><title>Node2</title>
<g id="a_node2"><a xlink:href="_ogre_prerequisites_8h.html" target="_top" xlink:title="OgrePrerequisites.h">
<polygon fill="none" stroke="black" points="806.5,-168.5 806.5,-187.5 909.5,-187.5 909.5,-168.5 806.5,-168.5"/>
<text text-anchor="middle" x="858" y="-175.5" font-family="Helvetica,sans-Serif" font-size="10.00">OgrePrerequisites.h</text>
</a>
</g>
</g>
<!-- Node1&#45;&gt;Node2 -->
<g id="edge1" class="edge"><title>Node1&#45;&gt;Node2</title>
<path fill="none" stroke="midnightblue" d="M1019.54,-392.41C1054.14,-373.282 1128.63,-325.285 1100,-280 1061.44,-219.017 977.874,-194.831 919.806,-185.254"/>
<polygon fill="midnightblue" stroke="midnightblue" points="920.055,-181.751 909.637,-183.683 918.985,-188.669 920.055,-181.751"/>
</g>
<!-- Node42 -->
<g id="node42" class="node"><title>Node42</title>
<g id="a_node42"><a xlink:href="_ogre_root_8h.html" target="_top" xlink:title="OgreRoot.h">
<polygon fill="none" stroke="black" points="969.5,-336.5 969.5,-355.5 1036.5,-355.5 1036.5,-336.5 969.5,-336.5"/>
<text text-anchor="middle" x="1003" y="-343.5" font-family="Helvetica,sans-Serif" font-size="10.00">OgreRoot.h</text>
</a>
</g>
</g>
<!-- Node1&#45;&gt;Node42 -->
<g id="edge50" class="edge"><title>Node1&#45;&gt;Node42</title>
<path fill="none" stroke="midnightblue" d="M1003,-392.083C1003,-385.006 1003,-374.861 1003,-365.986"/>
<polygon fill="midnightblue" stroke="midnightblue" points="1006.5,-365.751 1003,-355.751 999.5,-365.751 1006.5,-365.751"/>
</g>
<!-- Node48 -->
<g id="node48" class="node"><title>Node48</title>
<g id="a_node48"><a xlink:href="_ogre_config_file_8h.html" target="_top" xlink:title="OgreConfigFile.h">
<polygon fill="none" stroke="black" points="395,-280.5 395,-299.5 485,-299.5 485,-280.5 395,-280.5"/>
<text text-anchor="middle" x="440" y="-287.5" font-family="Helvetica,sans-Serif" font-size="10.00">OgreConfigFile.h</text>
</a>
</g>
</g>
<!-- Node1&#45;&gt;Node48 -->
<g id="edge66" class="edge"><title>Node1&#45;&gt;Node48</title>
<path fill="none" stroke="midnightblue" d="M959.291,-392.46C857.448,-372.562 604.609,-323.162 493.65,-301.482"/>
<polygon fill="midnightblue" stroke="midnightblue" points="494.167,-298.017 483.681,-299.535 492.825,-304.887 494.167,-298.017"/>
</g>
<!-- Node3 -->
<g id="node3" class="node"><title>Node3</title>
<g id="a_node3"><a xlink:href="_ogre_platform_8h.html" target="_top" xlink:title="OgrePlatform.h">
<polygon fill="none" stroke="black" points="811.5,-112.5 811.5,-131.5 894.5,-131.5 894.5,-112.5 811.5,-112.5"/>
<text text-anchor="middle" x="853" y="-119.5" font-family="Helvetica,sans-Serif" font-size="10.00">OgrePlatform.h</text>
</a>
</g>
</g>
<!-- Node2&#45;&gt;Node3 -->
<g id="edge2" class="edge"><title>Node2&#45;&gt;Node3</title>
<path fill="none" stroke="midnightblue" d="M857.174,-168.083C856.519,-161.006 855.58,-150.861 854.758,-141.986"/>
<polygon fill="midnightblue" stroke="midnightblue" points="858.217,-141.386 853.81,-131.751 851.247,-142.031 858.217,-141.386"/>
</g>
<!-- Node5 -->
<g id="node5" class="node"><title>Node5</title>
<polygon fill="none" stroke="#bfbfbf" points="3048.5,-56.5 3048.5,-75.5 3089.5,-75.5 3089.5,-56.5 3048.5,-56.5"/>
<text text-anchor="middle" x="3069" y="-63.5" font-family="Helvetica,sans-Serif" font-size="10.00">string</text>
</g>
<!-- Node2&#45;&gt;Node5 -->
<g id="edge4" class="edge"><title>Node2&#45;&gt;Node5</title>
<path fill="none" stroke="midnightblue" d="M909.577,-174.867C1060.99,-168.583 1517.38,-149.482 1896,-132 2400.72,-108.696 2535.96,-161.447 3038.13,-75.6777"/>
<polygon fill="midnightblue" stroke="midnightblue" points="3038.91,-79.0947 3048.17,-73.952 3037.73,-72.1958 3038.91,-79.0947"/>
</g>
<!-- Node6 -->
<g id="node6" class="node"><title>Node6</title>
<g id="a_node6"><a xlink:href="_ogre_std_headers_8h.html" target="_top" xlink:title="OgreStdHeaders.h">
<polygon fill="none" stroke="black" points="1789,-112.5 1789,-131.5 1887,-131.5 1887,-112.5 1789,-112.5"/>
<text text-anchor="middle" x="1838" y="-119.5" font-family="Helvetica,sans-Serif" font-size="10.00">OgreStdHeaders.h</text>
</a>
</g>
</g>
<!-- Node2&#45;&gt;Node6 -->
<g id="edge5" class="edge"><title>Node2&#45;&gt;Node6</title>
<path fill="none" stroke="midnightblue" d="M909.653,-174.154C1076.57,-164.956 1600.93,-136.063 1778.52,-126.278"/>
<polygon fill="midnightblue" stroke="midnightblue" points="1778.92,-129.761 1788.71,-125.716 1778.54,-122.771 1778.92,-129.761"/>
</g>
<!-- Node36 -->
<g id="node36" class="node"><title>Node36</title>
<g id="a_node36"><a xlink:href="_ogre_memory_allocator_config_8h.html" target="_top" xlink:title="This file configures Ogre&#39;s memory allocators. ">
<polygon fill="none" stroke="black" points="396,-112.5 396,-131.5 544,-131.5 544,-112.5 396,-112.5"/>
<text text-anchor="middle" x="470" y="-119.5" font-family="Helvetica,sans-Serif" font-size="10.00">OgreMemoryAllocatorConfig.h</text>
</a>
</g>
</g>
<!-- Node2&#45;&gt;Node36 -->
<g id="edge36" class="edge"><title>Node2&#45;&gt;Node36</title>
<path fill="none" stroke="midnightblue" d="M806.477,-169.829C738.414,-160.357 618.207,-143.627 541.413,-132.939"/>
<polygon fill="midnightblue" stroke="midnightblue" points="541.728,-129.449 531.341,-131.537 540.763,-136.382 541.728,-129.449"/>
</g>
<!-- Node4 -->
<g id="node4" class="node"><title>Node4</title>
<g id="a_node4"><a xlink:href="_ogre_config_8h.html" target="_top" xlink:title="OgreConfig.h">
<polygon fill="none" stroke="red" points="806,-56.5 806,-75.5 880,-75.5 880,-56.5 806,-56.5"/>
<text text-anchor="middle" x="843" y="-63.5" font-family="Helvetica,sans-Serif" font-size="10.00">OgreConfig.h</text>
</a>
</g>
</g>
<!-- Node3&#45;&gt;Node4 -->
<g id="edge3" class="edge"><title>Node3&#45;&gt;Node4</title>
<path fill="none" stroke="midnightblue" d="M851.349,-112.083C850.024,-104.927 848.118,-94.6353 846.461,-85.6911"/>
<polygon fill="midnightblue" stroke="midnightblue" points="849.883,-84.9466 844.621,-75.7511 843,-86.2212 849.883,-84.9466"/>
</g>
<!-- Node6&#45;&gt;Node5 -->
<g id="edge15" class="edge"><title>Node6&#45;&gt;Node5</title>
<path fill="none" stroke="midnightblue" d="M1887.12,-120.82C2080.72,-119.857 2791.99,-113.87 3038.21,-75.594"/>
<polygon fill="midnightblue" stroke="midnightblue" points="3038.87,-79.0337 3048.18,-73.9836 3037.75,-72.1233 3038.87,-79.0337"/>
</g>
<!-- Node7 -->
<g id="node7" class="node"><title>Node7</title>
<polygon fill="none" stroke="#bfbfbf" points="1039.5,-56.5 1039.5,-75.5 1088.5,-75.5 1088.5,-56.5 1039.5,-56.5"/>
<text text-anchor="middle" x="1064" y="-63.5" font-family="Helvetica,sans-Serif" font-size="10.00">cassert</text>
</g>
<!-- Node6&#45;&gt;Node7 -->
<g id="edge6" class="edge"><title>Node6&#45;&gt;Node7</title>
<path fill="none" stroke="midnightblue" d="M1788.71,-121.357C1670.86,-121.494 1363.57,-117.612 1098.95,-75.7928"/>
<polygon fill="midnightblue" stroke="midnightblue" points="1099.19,-72.2869 1088.76,-74.1607 1098.08,-79.1988 1099.19,-72.2869"/>
</g>
<!-- Node8 -->
<g id="node8" class="node"><title>Node8</title>
<polygon fill="none" stroke="#bfbfbf" points="1106.5,-56.5 1106.5,-75.5 1149.5,-75.5 1149.5,-56.5 1106.5,-56.5"/>
<text text-anchor="middle" x="1128" y="-63.5" font-family="Helvetica,sans-Serif" font-size="10.00">cstdio</text>
</g>
<!-- Node6&#45;&gt;Node8 -->
<g id="edge7" class="edge"><title>Node6&#45;&gt;Node8</title>
<path fill="none" stroke="midnightblue" d="M1788.99,-121.366C1678.19,-121.42 1400.02,-117.211 1159.52,-75.6494"/>
<polygon fill="midnightblue" stroke="midnightblue" points="1159.99,-72.1794 1149.54,-73.8995 1158.78,-79.0742 1159.99,-72.1794"/>
</g>
<!-- Node9 -->
<g id="node9" class="node"><title>Node9</title>
<polygon fill="none" stroke="#bfbfbf" points="1167.5,-56.5 1167.5,-75.5 1212.5,-75.5 1212.5,-56.5 1167.5,-56.5"/>
<text text-anchor="middle" x="1190" y="-63.5" font-family="Helvetica,sans-Serif" font-size="10.00">cstdlib</text>
</g>
<!-- Node6&#45;&gt;Node9 -->
<g id="edge8" class="edge"><title>Node6&#45;&gt;Node9</title>
<path fill="none" stroke="midnightblue" d="M1788.88,-120.753C1685.56,-119.516 1438.23,-112.777 1222.52,-75.6939"/>
<polygon fill="midnightblue" stroke="midnightblue" points="1223.05,-72.2335 1212.6,-73.9624 1221.85,-79.1293 1223.05,-72.2335"/>
</g>
<!-- Node10 -->
<g id="node10" class="node"><title>Node10</title>
<polygon fill="none" stroke="#bfbfbf" points="1230.5,-56.5 1230.5,-75.5 1271.5,-75.5 1271.5,-56.5 1230.5,-56.5"/>
<text text-anchor="middle" x="1251" y="-63.5" font-family="Helvetica,sans-Serif" font-size="10.00">ctime</text>
</g>
<!-- Node6&#45;&gt;Node10 -->
<g id="edge9" class="edge"><title>Node6&#45;&gt;Node10</title>
<path fill="none" stroke="midnightblue" d="M1788.74,-120.493C1692.71,-118.755 1473.85,-111.125 1281.52,-75.6522"/>
<polygon fill="midnightblue" stroke="midnightblue" points="1281.99,-72.1787 1271.52,-73.7765 1280.7,-79.0589 1281.99,-72.1787"/>
</g>
<!-- Node11 -->
<g id="node11" class="node"><title>Node11</title>
<polygon fill="none" stroke="#bfbfbf" points="1290,-56.5 1290,-75.5 1336,-75.5 1336,-56.5 1290,-56.5"/>
<text text-anchor="middle" x="1313" y="-63.5" font-family="Helvetica,sans-Serif" font-size="10.00">cstring</text>
</g>
<!-- Node6&#45;&gt;Node11 -->
<g id="edge10" class="edge"><title>Node6&#45;&gt;Node11</title>
<path fill="none" stroke="midnightblue" d="M1788.73,-119.346C1701.45,-115.798 1513.89,-105.39 1346.31,-75.7001"/>
<polygon fill="midnightblue" stroke="midnightblue" points="1346.78,-72.2289 1336.32,-73.9027 1345.54,-79.1183 1346.78,-72.2289"/>
</g>
<!-- Node12 -->
<g id="node12" class="node"><title>Node12</title>
<polygon fill="none" stroke="#bfbfbf" points="1354.5,-56.5 1354.5,-75.5 1403.5,-75.5 1403.5,-56.5 1354.5,-56.5"/>
<text text-anchor="middle" x="1379" y="-63.5" font-family="Helvetica,sans-Serif" font-size="10.00">cstdarg</text>
</g>
<!-- Node6&#45;&gt;Node12 -->
<g id="edge11" class="edge"><title>Node6&#45;&gt;Node12</title>
<path fill="none" stroke="midnightblue" d="M1788.89,-118.253C1711.25,-113.375 1555.34,-101.407 1413.94,-75.8906"/>
<polygon fill="midnightblue" stroke="midnightblue" points="1414.25,-72.3897 1403.78,-74.0299 1412.99,-79.275 1414.25,-72.3897"/>
</g>
<!-- Node13 -->
<g id="node13" class="node"><title>Node13</title>
<polygon fill="none" stroke="#bfbfbf" points="1422,-56.5 1422,-75.5 1466,-75.5 1466,-56.5 1422,-56.5"/>
<text text-anchor="middle" x="1444" y="-63.5" font-family="Helvetica,sans-Serif" font-size="10.00">cmath</text>
</g>
<!-- Node6&#45;&gt;Node13 -->
<g id="edge12" class="edge"><title>Node6&#45;&gt;Node13</title>
<path fill="none" stroke="midnightblue" d="M1788.86,-117.406C1720.62,-111.867 1593.24,-99.5452 1476.1,-75.9359"/>
<polygon fill="midnightblue" stroke="midnightblue" points="1476.74,-72.4956 1466.24,-73.9179 1475.34,-79.3532 1476.74,-72.4956"/>
</g>
<!-- Node14 -->
<g id="node14" class="node"><title>Node14</title>
<polygon fill="none" stroke="#bfbfbf" points="1484,-56.5 1484,-75.5 1528,-75.5 1528,-56.5 1484,-56.5"/>
<text text-anchor="middle" x="1506" y="-63.5" font-family="Helvetica,sans-Serif" font-size="10.00">vector</text>
</g>
<!-- Node6&#45;&gt;Node14 -->
<g id="edge13" class="edge"><title>Node6&#45;&gt;Node14</title>
<path fill="none" stroke="midnightblue" d="M1788.82,-115.541C1731.15,-108.715 1632.57,-95.7249 1538.28,-75.7959"/>
<polygon fill="midnightblue" stroke="midnightblue" points="1538.8,-72.3279 1528.29,-73.654 1537.33,-79.1724 1538.8,-72.3279"/>
</g>
<!-- Node15 -->
<g id="node15" class="node"><title>Node15</title>
<polygon fill="none" stroke="#bfbfbf" points="1546.5,-56.5 1546.5,-75.5 1581.5,-75.5 1581.5,-56.5 1546.5,-56.5"/>
<text text-anchor="middle" x="1564" y="-63.5" font-family="Helvetica,sans-Serif" font-size="10.00">map</text>
</g>
<!-- Node6&#45;&gt;Node15 -->
<g id="edge14" class="edge"><title>Node6&#45;&gt;Node15</title>
<path fill="none" stroke="midnightblue" d="M1788.82,-114.139C1740.8,-106.973 1665.58,-94.5047 1591.57,-75.8225"/>
<polygon fill="midnightblue" stroke="midnightblue" points="1592.17,-72.3626 1581.61,-73.2685 1590.43,-79.1431 1592.17,-72.3626"/>
</g>
<!-- Node16 -->
<g id="node16" class="node"><title>Node16</title>
<polygon fill="none" stroke="#bfbfbf" points="1600,-56.5 1600,-75.5 1630,-75.5 1630,-56.5 1600,-56.5"/>
<text text-anchor="middle" x="1615" y="-63.5" font-family="Helvetica,sans-Serif" font-size="10.00">set</text>
</g>
<!-- Node6&#45;&gt;Node16 -->
<g id="edge16" class="edge"><title>Node6&#45;&gt;Node16</title>
<path fill="none" stroke="midnightblue" d="M1793.17,-112.439C1752.78,-104.342 1691.94,-91.1886 1640,-76 1639.9,-75.9709 1639.8,-75.9415 1639.7,-75.9121"/>
<polygon fill="midnightblue" stroke="midnightblue" points="1640.83,-72.5996 1630.24,-72.8199 1638.66,-79.2533 1640.83,-72.5996"/>
</g>
<!-- Node17 -->
<g id="node17" class="node"><title>Node17</title>
<polygon fill="none" stroke="#bfbfbf" points="1648.5,-56.5 1648.5,-75.5 1677.5,-75.5 1677.5,-56.5 1648.5,-56.5"/>
<text text-anchor="middle" x="1663" y="-63.5" font-family="Helvetica,sans-Serif" font-size="10.00">list</text>
</g>
<!-- Node6&#45;&gt;Node17 -->
<g id="edge17" class="edge"><title>Node6&#45;&gt;Node17</title>
<path fill="none" stroke="midnightblue" d="M1807.15,-112.482C1778.47,-104.414 1734.38,-91.6379 1687.41,-75.9632"/>
<polygon fill="midnightblue" stroke="midnightblue" points="1688.26,-72.5565 1677.67,-72.6829 1686.03,-79.1906 1688.26,-72.5565"/>
</g>
<!-- Node18 -->
<g id="node18" class="node"><title>Node18</title>
<polygon fill="none" stroke="#bfbfbf" points="1695.5,-56.5 1695.5,-75.5 1738.5,-75.5 1738.5,-56.5 1695.5,-56.5"/>
<text text-anchor="middle" x="1717" y="-63.5" font-family="Helvetica,sans-Serif" font-size="10.00">deque</text>
</g>
<!-- Node6&#45;&gt;Node18 -->
<g id="edge18" class="edge"><title>Node6&#45;&gt;Node18</title>
<path fill="none" stroke="midnightblue" d="M1818.83,-112.444C1799.09,-103.636 1768.11,-89.8116 1745.51,-79.722"/>
<polygon fill="midnightblue" stroke="midnightblue" points="1746.64,-76.3957 1736.08,-75.5164 1743.79,-82.788 1746.64,-76.3957"/>
</g>
<!-- Node19 -->
<g id="node19" class="node"><title>Node19</title>
<polygon fill="none" stroke="#bfbfbf" points="1756.5,-56.5 1756.5,-75.5 1799.5,-75.5 1799.5,-56.5 1756.5,-56.5"/>
<text text-anchor="middle" x="1778" y="-63.5" font-family="Helvetica,sans-Serif" font-size="10.00">queue</text>
</g>
<!-- Node6&#45;&gt;Node19 -->
<g id="edge19" class="edge"><title>Node6&#45;&gt;Node19</title>
<path fill="none" stroke="midnightblue" d="M1828.36,-112.324C1819.49,-104.341 1806.13,-92.3128 1795.39,-82.6529"/>
<polygon fill="midnightblue" stroke="midnightblue" points="1797.59,-79.922 1787.82,-75.8339 1792.91,-85.1251 1797.59,-79.922"/>
</g>
<!-- Node20 -->
<g id="node20" class="node"><title>Node20</title>
<polygon fill="none" stroke="#bfbfbf" points="1817.5,-56.5 1817.5,-75.5 1858.5,-75.5 1858.5,-56.5 1817.5,-56.5"/>
<text text-anchor="middle" x="1838" y="-63.5" font-family="Helvetica,sans-Serif" font-size="10.00">bitset</text>
</g>
<!-- Node6&#45;&gt;Node20 -->
<g id="edge20" class="edge"><title>Node6&#45;&gt;Node20</title>
<path fill="none" stroke="midnightblue" d="M1838,-112.083C1838,-105.006 1838,-94.8611 1838,-85.9865"/>
<polygon fill="midnightblue" stroke="midnightblue" points="1841.5,-85.751 1838,-75.7511 1834.5,-85.7511 1841.5,-85.751"/>
</g>
<!-- Node21 -->
<g id="node21" class="node"><title>Node21</title>
<polygon fill="none" stroke="#bfbfbf" points="1877,-56.5 1877,-75.5 1933,-75.5 1933,-56.5 1877,-56.5"/>
<text text-anchor="middle" x="1905" y="-63.5" font-family="Helvetica,sans-Serif" font-size="10.00">algorithm</text>
</g>
<!-- Node6&#45;&gt;Node21 -->
<g id="edge21" class="edge"><title>Node6&#45;&gt;Node21</title>
<path fill="none" stroke="midnightblue" d="M1848.76,-112.324C1858.77,-104.263 1873.89,-92.0765 1885.93,-82.3695"/>
<polygon fill="midnightblue" stroke="midnightblue" points="1888.45,-84.8343 1894.04,-75.8339 1884.06,-79.3841 1888.45,-84.8343"/>
</g>
<!-- Node22 -->
<g id="node22" class="node"><title>Node22</title>
<polygon fill="none" stroke="#bfbfbf" points="1951.5,-56.5 1951.5,-75.5 2010.5,-75.5 2010.5,-56.5 1951.5,-56.5"/>
<text text-anchor="middle" x="1981" y="-63.5" font-family="Helvetica,sans-Serif" font-size="10.00">functional</text>
</g>
<!-- Node6&#45;&gt;Node22 -->
<g id="edge22" class="edge"><title>Node6&#45;&gt;Node22</title>
<path fill="none" stroke="midnightblue" d="M1860.66,-112.444C1884.4,-103.478 1921.91,-89.314 1948.74,-79.1827"/>
<polygon fill="midnightblue" stroke="midnightblue" points="1950.33,-82.3235 1958.45,-75.5164 1947.86,-75.7749 1950.33,-82.3235"/>
</g>
<!-- Node23 -->
<g id="node23" class="node"><title>Node23</title>
<polygon fill="none" stroke="#bfbfbf" points="2029,-56.5 2029,-75.5 2069,-75.5 2069,-56.5 2029,-56.5"/>
<text text-anchor="middle" x="2049" y="-63.5" font-family="Helvetica,sans-Serif" font-size="10.00">limits</text>
</g>
<!-- Node6&#45;&gt;Node23 -->
<g id="edge23" class="edge"><title>Node6&#45;&gt;Node23</title>
<path fill="none" stroke="midnightblue" d="M1875.11,-112.495C1909.92,-104.37 1963.63,-91.4548 2018.81,-76.2155"/>
<polygon fill="midnightblue" stroke="midnightblue" points="2020.07,-79.499 2028.76,-73.446 2018.19,-72.7552 2020.07,-79.499"/>
</g>
<!-- Node24 -->
<g id="node24" class="node"><title>Node24</title>
<polygon fill="none" stroke="#bfbfbf" points="2087,-56.5 2087,-75.5 2137,-75.5 2137,-56.5 2087,-56.5"/>
<text text-anchor="middle" x="2112" y="-63.5" font-family="Helvetica,sans-Serif" font-size="10.00">fstream</text>
</g>
<!-- Node6&#45;&gt;Node24 -->
<g id="edge24" class="edge"><title>Node6&#45;&gt;Node24</title>
<path fill="none" stroke="midnightblue" d="M1887.4,-112.829C1933.89,-104.895 2005.65,-92.0205 2076.77,-76.1501"/>
<polygon fill="midnightblue" stroke="midnightblue" points="2077.81,-79.5031 2086.8,-73.891 2076.28,-72.6743 2077.81,-79.5031"/>
</g>
<!-- Node25 -->
<g id="node25" class="node"><title>Node25</title>
<polygon fill="none" stroke="#bfbfbf" points="2155.5,-56.5 2155.5,-75.5 2200.5,-75.5 2200.5,-56.5 2155.5,-56.5"/>
<text text-anchor="middle" x="2178" y="-63.5" font-family="Helvetica,sans-Serif" font-size="10.00">iosfwd</text>
</g>
<!-- Node6&#45;&gt;Node25 -->
<g id="edge25" class="edge"><title>Node6&#45;&gt;Node25</title>
<path fill="none" stroke="midnightblue" d="M1887.16,-115.801C1946.21,-109.117 2048.41,-96.1551 2145.39,-75.872"/>
<polygon fill="midnightblue" stroke="midnightblue" points="2146.31,-79.2557 2155.36,-73.7563 2144.86,-72.4081 2146.31,-79.2557"/>
</g>
<!-- Node26 -->
<g id="node26" class="node"><title>Node26</title>
<polygon fill="none" stroke="#bfbfbf" points="2219,-56.5 2219,-75.5 2271,-75.5 2271,-56.5 2219,-56.5"/>
<text text-anchor="middle" x="2245" y="-63.5" font-family="Helvetica,sans-Serif" font-size="10.00">sstream</text>
</g>
<!-- Node6&#45;&gt;Node26 -->
<g id="edge26" class="edge"><title>Node6&#45;&gt;Node26</title>
<path fill="none" stroke="midnightblue" d="M1887.06,-117.133C1956.57,-111.199 2087.81,-98.328 2208.55,-76.0557"/>
<polygon fill="midnightblue" stroke="midnightblue" points="2209.52,-79.4349 2218.71,-74.155 2208.24,-72.5544 2209.52,-79.4349"/>
</g>
<!-- Node27 -->
<g id="node27" class="node"><title>Node27</title>
<polygon fill="none" stroke="#bfbfbf" points="2289,-56.5 2289,-75.5 2357,-75.5 2357,-56.5 2289,-56.5"/>
<text text-anchor="middle" x="2323" y="-63.5" font-family="Helvetica,sans-Serif" font-size="10.00">sys/types.h</text>
</g>
<!-- Node6&#45;&gt;Node27 -->
<g id="edge27" class="edge"><title>Node6&#45;&gt;Node27</title>
<path fill="none" stroke="midnightblue" d="M1887.27,-117.679C1967.3,-111.914 2130.68,-98.6069 2278.62,-76.0659"/>
<polygon fill="midnightblue" stroke="midnightblue" points="2279.44,-79.4805 2288.79,-74.4975 2278.38,-72.5623 2279.44,-79.4805"/>
</g>
<!-- Node28 -->
<g id="node28" class="node"><title>Node28</title>
<polygon fill="none" stroke="#bfbfbf" points="2375,-56.5 2375,-75.5 2435,-75.5 2435,-56.5 2375,-56.5"/>
<text text-anchor="middle" x="2405" y="-63.5" font-family="Helvetica,sans-Serif" font-size="10.00">sys/stat.h</text>
</g>
<!-- Node6&#45;&gt;Node28 -->
<g id="edge28" class="edge"><title>Node6&#45;&gt;Node28</title>
<path fill="none" stroke="midnightblue" d="M1887.05,-119.143C1978.97,-115.16 2183.49,-103.916 2364.86,-75.9627"/>
<polygon fill="midnightblue" stroke="midnightblue" points="2365.51,-79.4041 2374.85,-74.4027 2364.43,-72.488 2365.51,-79.4041"/>
</g>
<!-- Node29 -->
<g id="node29" class="node"><title>Node29</title>
<polygon fill="none" stroke="#bfbfbf" points="2453.5,-56.5 2453.5,-75.5 2504.5,-75.5 2504.5,-56.5 2453.5,-56.5"/>
<text text-anchor="middle" x="2479" y="-63.5" font-family="Helvetica,sans-Serif" font-size="10.00">unistd.h</text>
</g>
<!-- Node6&#45;&gt;Node29 -->
<g id="edge29" class="edge"><title>Node6&#45;&gt;Node29</title>
<path fill="none" stroke="midnightblue" d="M1887.05,-120.302C1988.99,-118.218 2231.2,-109.971 2443.41,-75.7644"/>
<polygon fill="midnightblue" stroke="midnightblue" points="2444.19,-79.1837 2453.5,-74.1158 2443.06,-72.2754 2444.19,-79.1837"/>
</g>
<!-- Node30 -->
<g id="node30" class="node"><title>Node30</title>
<polygon fill="none" stroke="#bfbfbf" points="2523,-56.5 2523,-75.5 2569,-75.5 2569,-56.5 2523,-56.5"/>
<text text-anchor="middle" x="2546" y="-63.5" font-family="Helvetica,sans-Serif" font-size="10.00">dlfcn.h</text>
</g>
<!-- Node6&#45;&gt;Node30 -->
<g id="edge30" class="edge"><title>Node6&#45;&gt;Node30</title>
<path fill="none" stroke="midnightblue" d="M1887.19,-121.207C1997.74,-120.927 2274.18,-116.058 2512.81,-75.8467"/>
<polygon fill="midnightblue" stroke="midnightblue" points="2513.44,-79.2892 2522.71,-74.1541 2512.26,-72.3893 2513.44,-79.2892"/>
</g>
<!-- Node31 -->
<g id="node31" class="node"><title>Node31</title>
<polygon fill="none" stroke="#bfbfbf" points="2587,-56.5 2587,-75.5 2665,-75.5 2665,-56.5 2587,-56.5"/>
<text text-anchor="middle" x="2626" y="-63.5" font-family="Helvetica,sans-Serif" font-size="10.00">ext/hash_map</text>
</g>
<!-- Node6&#45;&gt;Node31 -->
<g id="edge31" class="edge"><title>Node6&#45;&gt;Node31</title>
<path fill="none" stroke="midnightblue" d="M1887.12,-120.126C2004.58,-117.583 2311.1,-108.269 2576.55,-76.023"/>
<polygon fill="midnightblue" stroke="midnightblue" points="2577.27,-79.4609 2586.77,-74.7677 2576.42,-72.5131 2577.27,-79.4609"/>
</g>
<!-- Node32 -->
<g id="node32" class="node"><title>Node32</title>
<polygon fill="none" stroke="#bfbfbf" points="2683.5,-56.5 2683.5,-75.5 2756.5,-75.5 2756.5,-56.5 2683.5,-56.5"/>
<text text-anchor="middle" x="2720" y="-63.5" font-family="Helvetica,sans-Serif" font-size="10.00">ext/hash_set</text>
</g>
<!-- Node6&#45;&gt;Node32 -->
<g id="edge32" class="edge"><title>Node6&#45;&gt;Node32</title>
<path fill="none" stroke="midnightblue" d="M1887.21,-120.742C2015.15,-119.559 2368.8,-113.031 2673.07,-75.912"/>
<polygon fill="midnightblue" stroke="midnightblue" points="2673.92,-79.3335 2683.42,-74.6353 2673.06,-72.3862 2673.92,-79.3335"/>
</g>
<!-- Node33 -->
<g id="node33" class="node"><title>Node33</title>
<polygon fill="none" stroke="#bfbfbf" points="2774.5,-56.5 2774.5,-75.5 2845.5,-75.5 2845.5,-56.5 2774.5,-56.5"/>
<text text-anchor="middle" x="2810" y="-63.5" font-family="Helvetica,sans-Serif" font-size="10.00">sys/param.h</text>
</g>
<!-- Node6&#45;&gt;Node33 -->
<g id="edge33" class="edge"><title>Node6&#45;&gt;Node33</title>
<path fill="none" stroke="midnightblue" d="M1887.03,-121.261C2024.27,-121.43 2424.01,-118.082 2764.01,-76.0738"/>
<polygon fill="midnightblue" stroke="midnightblue" points="2764.57,-79.5321 2774.06,-74.8196 2763.7,-72.586 2764.57,-79.5321"/>
</g>
<!-- Node34 -->
<g id="node34" class="node"><title>Node34</title>
<polygon fill="none" stroke="#bfbfbf" points="2864,-56.5 2864,-75.5 3030,-75.5 3030,-56.5 2864,-56.5"/>
<text text-anchor="middle" x="2947" y="-63.5" font-family="Helvetica,sans-Serif" font-size="10.00">CoreFoundation/CoreFoundation.h</text>
</g>
<!-- Node6&#45;&gt;Node34 -->
<g id="edge34" class="edge"><title>Node6&#45;&gt;Node34</title>
<path fill="none" stroke="midnightblue" d="M1887.01,-119.758C2032.58,-115.872 2475.37,-102.625 2853.72,-76.0524"/>
<polygon fill="midnightblue" stroke="midnightblue" points="2854.04,-79.5386 2863.77,-75.3424 2853.55,-72.556 2854.04,-79.5386"/>
</g>
<!-- Node35 -->
<g id="node35" class="node"><title>Node35</title>
<polygon fill="none" stroke="#bfbfbf" points="898,-56.5 898,-75.5 1022,-75.5 1022,-56.5 898,-56.5"/>
<text text-anchor="middle" x="960" y="-63.5" font-family="Helvetica,sans-Serif" font-size="10.00">emscripten/emscripten.h</text>
</g>
<!-- Node6&#45;&gt;Node35 -->
<g id="edge35" class="edge"><title>Node6&#45;&gt;Node35</title>
<path fill="none" stroke="midnightblue" d="M1788.78,-119.463C1664.05,-115.307 1325.2,-102.405 1032.27,-76.0536"/>
<polygon fill="midnightblue" stroke="midnightblue" points="1032.59,-72.5676 1022.31,-75.1505 1031.95,-79.539 1032.59,-72.5676"/>
</g>
<!-- Node37 -->
<g id="node37" class="node"><title>Node37</title>
<g id="a_node37"><a xlink:href="_ogre_memory_allocated_object_8h.html" target="_top" xlink:title="OgreMemoryAllocatedObject.h">
<polygon fill="none" stroke="black" points="180,-56.5 180,-75.5 330,-75.5 330,-56.5 180,-56.5"/>
<text text-anchor="middle" x="255" y="-63.5" font-family="Helvetica,sans-Serif" font-size="10.00">OgreMemoryAllocatedObject.h</text>
</a>
</g>
</g>
<!-- Node36&#45;&gt;Node37 -->
<g id="edge37" class="edge"><title>Node36&#45;&gt;Node37</title>
<path fill="none" stroke="midnightblue" d="M435.933,-112.444C398.82,-103.122 339.339,-88.1828 298.785,-77.9972"/>
<polygon fill="midnightblue" stroke="midnightblue" points="299.459,-74.5579 288.908,-75.5164 297.754,-81.347 299.459,-74.5579"/>
</g>
<!-- Node38 -->
<g id="node38" class="node"><title>Node38</title>
<g id="a_node38"><a xlink:href="_ogre_header_prefix_8h.html" target="_top" xlink:title="OgreHeaderPrefix.h">
<polygon fill="none" stroke="black" points="81.5,-0.5 81.5,-19.5 184.5,-19.5 184.5,-0.5 81.5,-0.5"/>
<text text-anchor="middle" x="133" y="-7.5" font-family="Helvetica,sans-Serif" font-size="10.00">OgreHeaderPrefix.h</text>
</a>
</g>
</g>
<!-- Node36&#45;&gt;Node38 -->
<g id="edge41" class="edge"><title>Node36&#45;&gt;Node38</title>
<path fill="none" stroke="midnightblue" d="M395.714,-117.098C319.322,-111.824 206.634,-100.148 171,-76 154.804,-65.0246 144.557,-44.6644 138.839,-29.6448"/>
<polygon fill="midnightblue" stroke="midnightblue" points="142.032,-28.1691 135.455,-19.8626 135.416,-30.4574 142.032,-28.1691"/>
</g>
<!-- Node39 -->
<g id="node39" class="node"><title>Node39</title>
<g id="a_node39"><a xlink:href="_ogre_header_suffix_8h.html" target="_top" xlink:title="OgreHeaderSuffix.h">
<polygon fill="none" stroke="black" points="601.5,-0.5 601.5,-19.5 704.5,-19.5 704.5,-0.5 601.5,-0.5"/>
<text text-anchor="middle" x="653" y="-7.5" font-family="Helvetica,sans-Serif" font-size="10.00">OgreHeaderSuffix.h</text>
</a>
</g>
</g>
<!-- Node36&#45;&gt;Node39 -->
<g id="edge49" class="edge"><title>Node36&#45;&gt;Node39</title>
<path fill="none" stroke="midnightblue" d="M475.57,-112.151C484.706,-98.3114 504.16,-71.524 527,-56 550.132,-40.2779 579.379,-29.3902 603.871,-22.2675"/>
<polygon fill="midnightblue" stroke="midnightblue" points="604.998,-25.5867 613.695,-19.535 603.122,-18.8427 604.998,-25.5867"/>
</g>
<!-- Node40 -->
<g id="node40" class="node"><title>Node40</title>
<g id="a_node40"><a xlink:href="_ogre_memory_s_t_l_allocator_8h.html" target="_top" xlink:title="OgreMemorySTLAllocator.h">
<polygon fill="none" stroke="black" points="536.5,-56.5 536.5,-75.5 673.5,-75.5 673.5,-56.5 536.5,-56.5"/>
<text text-anchor="middle" x="605" y="-63.5" font-family="Helvetica,sans-Serif" font-size="10.00">OgreMemorySTLAllocator.h</text>
</a>
</g>
</g>
<!-- Node36&#45;&gt;Node40 -->
<g id="edge42" class="edge"><title>Node36&#45;&gt;Node40</title>
<path fill="none" stroke="midnightblue" d="M491.391,-112.444C513.707,-103.517 548.903,-89.4387 574.208,-79.3168"/>
<polygon fill="midnightblue" stroke="midnightblue" points="575.724,-82.4801 583.709,-75.5164 573.124,-75.9807 575.724,-82.4801"/>
</g>
<!-- Node41 -->
<g id="node41" class="node"><title>Node41</title>
<g id="a_node41"><a xlink:href="_ogre_memory_ned_pooling_8h.html" target="_top" xlink:title="OgreMemoryNedPooling.h">
<polygon fill="none" stroke="black" points="348.5,-56.5 348.5,-75.5 479.5,-75.5 479.5,-56.5 348.5,-56.5"/>
<text text-anchor="middle" x="414" y="-63.5" font-family="Helvetica,sans-Serif" font-size="10.00">OgreMemoryNedPooling.h</text>
</a>
</g>
</g>
<!-- Node36&#45;&gt;Node41 -->
<g id="edge46" class="edge"><title>Node36&#45;&gt;Node41</title>
<path fill="none" stroke="midnightblue" d="M461.003,-112.324C452.806,-104.42 440.494,-92.5482 430.528,-82.9377"/>
<polygon fill="midnightblue" stroke="midnightblue" points="432.789,-80.2558 423.161,-75.8339 427.93,-85.2947 432.789,-80.2558"/>
</g>
<!-- Node37&#45;&gt;Node2 -->
<g id="edge38" class="edge"><title>Node37&#45;&gt;Node2</title>
<path fill="none" stroke="midnightblue" d="M268.213,-75.548C291.267,-89.9826 340.799,-118.894 387,-132 462.312,-153.364 686.571,-167.86 796.236,-173.873"/>
<polygon fill="midnightblue" stroke="midnightblue" points="796.307,-177.382 806.482,-174.428 796.686,-170.392 796.307,-177.382"/>
</g>
<!-- Node37&#45;&gt;Node38 -->
<g id="edge39" class="edge"><title>Node37&#45;&gt;Node38</title>
<path fill="none" stroke="midnightblue" d="M235.669,-56.4435C215.68,-47.5961 184.257,-33.6875 161.436,-23.5865"/>
<polygon fill="midnightblue" stroke="midnightblue" points="162.802,-20.3635 152.241,-19.5164 159.968,-26.7645 162.802,-20.3635"/>
</g>
<!-- Node37&#45;&gt;Node39 -->
<g id="edge40" class="edge"><title>Node37&#45;&gt;Node39</title>
<path fill="none" stroke="midnightblue" d="M318.064,-56.4435C392.905,-46.2893 516.88,-29.4685 591.174,-19.3885"/>
<polygon fill="midnightblue" stroke="midnightblue" points="591.878,-22.8251 601.317,-18.0123 590.937,-15.8886 591.878,-22.8251"/>
</g>
<!-- Node40&#45;&gt;Node2 -->
<g id="edge43" class="edge"><title>Node40&#45;&gt;Node2</title>
<path fill="none" stroke="midnightblue" d="M624.76,-75.5914C669.104,-94.8712 776.719,-141.66 828.801,-164.305"/>
<polygon fill="midnightblue" stroke="midnightblue" points="827.581,-167.591 838.148,-168.368 830.372,-161.171 827.581,-167.591"/>
</g>
<!-- Node40&#45;&gt;Node38 -->
<g id="edge44" class="edge"><title>Node40&#45;&gt;Node38</title>
<path fill="none" stroke="midnightblue" d="M536.367,-57.1479C444.508,-46.6386 282.949,-28.1552 194.74,-18.0635"/>
<polygon fill="midnightblue" stroke="midnightblue" points="194.949,-14.5647 184.616,-16.9052 194.153,-21.5193 194.949,-14.5647"/>
</g>
<!-- Node40&#45;&gt;Node39 -->
<g id="edge45" class="edge"><title>Node40&#45;&gt;Node39</title>
<path fill="none" stroke="midnightblue" d="M612.926,-56.083C619.846,-48.2982 630.065,-36.8015 638.452,-27.3665"/>
<polygon fill="midnightblue" stroke="midnightblue" points="641.194,-29.5505 645.221,-19.7511 635.962,-24.8999 641.194,-29.5505"/>
</g>
<!-- Node41&#45;&gt;Node38 -->
<g id="edge47" class="edge"><title>Node41&#45;&gt;Node38</title>
<path fill="none" stroke="midnightblue" d="M369.475,-56.4435C320.044,-46.9444 240.254,-31.611 187.222,-21.4198"/>
<polygon fill="midnightblue" stroke="midnightblue" points="187.798,-17.9666 177.317,-19.5164 186.477,-24.8408 187.798,-17.9666"/>
</g>
<!-- Node41&#45;&gt;Node39 -->
<g id="edge48" class="edge"><title>Node41&#45;&gt;Node39</title>
<path fill="none" stroke="midnightblue" d="M451.87,-56.4435C493.476,-47.0431 560.369,-31.9291 605.469,-21.7393"/>
<polygon fill="midnightblue" stroke="midnightblue" points="606.324,-25.1343 615.307,-19.5164 604.781,-18.3064 606.324,-25.1343"/>
</g>
<!-- Node42&#45;&gt;Node2 -->
<g id="edge51" class="edge"><title>Node42&#45;&gt;Node2</title>
<path fill="none" stroke="midnightblue" d="M1002.46,-336.387C1000.63,-314.576 992.874,-256.589 961,-224 945.709,-208.366 924.067,-197.796 904.565,-190.853"/>
<polygon fill="midnightblue" stroke="midnightblue" points="905.499,-187.475 894.905,-187.637 903.288,-194.117 905.499,-187.475"/>
</g>
<!-- Node43 -->
<g id="node43" class="node"><title>Node43</title>
<g id="a_node43"><a xlink:href="_ogre_scene_manager_enumerator_8h.html" target="_top" xlink:title="OgreSceneManagerEnumerator.h">
<polygon fill="none" stroke="black" points="813.5,-280.5 813.5,-299.5 974.5,-299.5 974.5,-280.5 813.5,-280.5"/>
<text text-anchor="middle" x="894" y="-287.5" font-family="Helvetica,sans-Serif" font-size="10.00">OgreSceneManagerEnumerator.h</text>
</a>
</g>
</g>
<!-- Node42&#45;&gt;Node43 -->
<g id="edge52" class="edge"><title>Node42&#45;&gt;Node43</title>
<path fill="none" stroke="midnightblue" d="M985.487,-336.324C967.928,-327.625 940.669,-314.12 920.469,-304.113"/>
<polygon fill="midnightblue" stroke="midnightblue" points="921.984,-300.958 911.469,-299.655 918.876,-307.23 921.984,-300.958"/>
</g>
<!-- Node47 -->
<g id="node47" class="node"><title>Node47</title>
<polygon fill="none" stroke="#bfbfbf" points="1031.5,-280.5 1031.5,-299.5 1090.5,-299.5 1090.5,-280.5 1031.5,-280.5"/>
<text text-anchor="middle" x="1061" y="-287.5" font-family="Helvetica,sans-Serif" font-size="10.00">exception</text>
</g>
<!-- Node42&#45;&gt;Node47 -->
<g id="edge65" class="edge"><title>Node42&#45;&gt;Node47</title>
<path fill="none" stroke="midnightblue" d="M1012.32,-336.324C1020.89,-328.341 1033.81,-316.313 1044.19,-306.653"/>
<polygon fill="midnightblue" stroke="midnightblue" points="1046.58,-309.21 1051.51,-299.834 1041.81,-304.086 1046.58,-309.21"/>
</g>
<!-- Node43&#45;&gt;Node2 -->
<g id="edge53" class="edge"><title>Node43&#45;&gt;Node2</title>
<path fill="none" stroke="midnightblue" d="M909.613,-280.484C929.381,-268.54 959.349,-245.82 946,-224 936.493,-208.46 919.737,-198.07 903.379,-191.231"/>
<polygon fill="midnightblue" stroke="midnightblue" points="904.443,-187.891 893.852,-187.603 901.952,-194.433 904.443,-187.891"/>
</g>
<!-- Node43&#45;&gt;Node38 -->
<g id="edge63" class="edge"><title>Node43&#45;&gt;Node38</title>
<path fill="none" stroke="midnightblue" d="M813.2,-287.035C739.675,-283.334 628.914,-272.93 537,-244 518.795,-238.27 517.327,-229.327 499,-224 451.685,-210.247 90.3977,-224.228 57,-188 12.3026,-139.514 81.5572,-60.7042 115.734,-27.0543"/>
<polygon fill="midnightblue" stroke="midnightblue" points="118.421,-29.3262 123.201,-19.8709 113.568,-24.2817 118.421,-29.3262"/>
</g>
<!-- Node43&#45;&gt;Node39 -->
<g id="edge64" class="edge"><title>Node43&#45;&gt;Node39</title>
<path fill="none" stroke="midnightblue" d="M974.839,-283.093C990.798,-282.002 1007.42,-280.919 1023,-280 1139.32,-273.139 3118,-295.524 3118,-179 3118,-179 3118,-179 3118,-121 3118,-90.9022 3122.92,-74.2723 3099,-56 3050.18,-18.6992 1090.15,-12.0626 714.786,-11.133"/>
<polygon fill="midnightblue" stroke="midnightblue" points="714.669,-7.63279 704.661,-11.1084 714.652,-14.6328 714.669,-7.63279"/>
</g>
<!-- Node44 -->
<g id="node44" class="node"><title>Node44</title>
<g id="a_node44"><a xlink:href="_ogre_scene_manager_8h.html" target="_top" xlink:title="OgreSceneManager.h">
<polygon fill="none" stroke="red" points="546.5,-224.5 546.5,-243.5 657.5,-243.5 657.5,-224.5 546.5,-224.5"/>
<text text-anchor="middle" x="602" y="-231.5" font-family="Helvetica,sans-Serif" font-size="10.00">OgreSceneManager.h</text>
</a>
</g>
</g>
<!-- Node43&#45;&gt;Node44 -->
<g id="edge54" class="edge"><title>Node43&#45;&gt;Node44</title>
<path fill="none" stroke="midnightblue" d="M847.732,-280.444C796.259,-270.925 713.107,-255.547 658.001,-245.356"/>
<polygon fill="midnightblue" stroke="midnightblue" points="658.522,-241.893 648.052,-243.516 657.249,-248.777 658.522,-241.893"/>
</g>
<!-- Node46 -->
<g id="node46" class="node"><title>Node46</title>
<g id="a_node46"><a xlink:href="_ogre_singleton_8h.html" target="_top" xlink:title="OgreSingleton.h">
<polygon fill="none" stroke="black" points="851,-224.5 851,-243.5 937,-243.5 937,-224.5 851,-224.5"/>
<text text-anchor="middle" x="894" y="-231.5" font-family="Helvetica,sans-Serif" font-size="10.00">OgreSingleton.h</text>
</a>
</g>
</g>
<!-- Node43&#45;&gt;Node46 -->
<g id="edge61" class="edge"><title>Node43&#45;&gt;Node46</title>
<path fill="none" stroke="midnightblue" d="M894,-280.083C894,-273.006 894,-262.861 894,-253.986"/>
<polygon fill="midnightblue" stroke="midnightblue" points="897.5,-253.751 894,-243.751 890.5,-253.751 897.5,-253.751"/>
</g>
<!-- Node44&#45;&gt;Node2 -->
<g id="edge55" class="edge"><title>Node44&#45;&gt;Node2</title>
<path fill="none" stroke="midnightblue" d="M642.564,-224.444C687.316,-215.004 759.383,-199.802 807.695,-189.611"/>
<polygon fill="midnightblue" stroke="midnightblue" points="808.564,-193.005 817.626,-187.516 807.119,-186.156 808.564,-193.005"/>
</g>
<!-- Node44&#45;&gt;Node38 -->
<g id="edge59" class="edge"><title>Node44&#45;&gt;Node38</title>
<path fill="none" stroke="midnightblue" d="M562.798,-224.46C463.639,-202.102 206.621,-139.199 149,-76 137.632,-63.5314 134.012,-44.2986 133.008,-29.9846"/>
<polygon fill="midnightblue" stroke="midnightblue" points="136.499,-29.6598 132.666,-19.7828 129.503,-29.8946 136.499,-29.6598"/>
</g>
<!-- Node44&#45;&gt;Node39 -->
<g id="edge60" class="edge"><title>Node44&#45;&gt;Node39</title>
<path fill="none" stroke="midnightblue" d="M628.312,-224.427C664.275,-211.117 727.351,-181.703 754,-132 769.961,-102.231 772.393,-84.3309 754,-56 743.593,-39.9696 726.004,-29.6017 708.393,-22.9164"/>
<polygon fill="midnightblue" stroke="midnightblue" points="709.248,-19.5092 698.653,-19.5687 706.972,-26.1291 709.248,-19.5092"/>
</g>
<!-- Node45 -->
<g id="node45" class="node"><title>Node45</title>
<g id="a_node45"><a xlink:href="_ogre_common_8h.html" target="_top" xlink:title="OgreCommon.h">
<polygon fill="none" stroke="black" points="66,-168.5 66,-187.5 152,-187.5 152,-168.5 66,-168.5"/>
<text text-anchor="middle" x="109" y="-175.5" font-family="Helvetica,sans-Serif" font-size="10.00">OgreCommon.h</text>
</a>
</g>
</g>
<!-- Node44&#45;&gt;Node45 -->
<g id="edge56" class="edge"><title>Node44&#45;&gt;Node45</title>
<path fill="none" stroke="midnightblue" d="M546.234,-225.678C541.422,-225.092 536.626,-224.525 532,-224 369.59,-205.576 328.129,-208.755 166,-188 164.742,-187.839 163.47,-187.672 162.187,-187.5"/>
<polygon fill="midnightblue" stroke="midnightblue" points="162.612,-184.025 152.222,-186.097 161.636,-190.957 162.612,-184.025"/>
</g>
<!-- Node45&#45;&gt;Node38 -->
<g id="edge57" class="edge"><title>Node45&#45;&gt;Node38</title>
<path fill="none" stroke="midnightblue" d="M106.108,-168.217C99.8879,-147.883 86.8269,-96.2392 100,-56 103.49,-45.3397 110.573,-35.1174 117.286,-27.1175"/>
<polygon fill="midnightblue" stroke="midnightblue" points="119.904,-29.4395 123.98,-19.66 114.695,-24.7633 119.904,-29.4395"/>
</g>
<!-- Node45&#45;&gt;Node39 -->
<g id="edge58" class="edge"><title>Node45&#45;&gt;Node39</title>
<path fill="none" stroke="midnightblue" d="M152.013,-177.005C232.207,-176.06 409.438,-169.467 553,-132 613.477,-116.217 647.715,-128.26 682,-76 692.104,-60.599 680.609,-41.0953 669.243,-27.4884"/>
<polygon fill="midnightblue" stroke="midnightblue" points="671.67,-24.954 662.376,-19.8676 666.47,-29.6397 671.67,-24.954"/>
</g>
<!-- Node46&#45;&gt;Node2 -->
<g id="edge62" class="edge"><title>Node46&#45;&gt;Node2</title>
<path fill="none" stroke="midnightblue" d="M888.055,-224.083C883.023,-216.534 875.663,-205.495 869.487,-196.23"/>
<polygon fill="midnightblue" stroke="midnightblue" points="872.293,-194.13 863.834,-187.751 866.469,-198.013 872.293,-194.13"/>
</g>
<!-- Node48&#45;&gt;Node2 -->
<g id="edge67" class="edge"><title>Node48&#45;&gt;Node2</title>
<path fill="none" stroke="midnightblue" d="M485.01,-287.477C569.688,-283.957 749.033,-273.199 803,-244 823.051,-233.152 838.904,-211.785 848.34,-196.51"/>
<polygon fill="midnightblue" stroke="midnightblue" points="851.568,-197.922 853.594,-187.523 845.525,-194.389 851.568,-197.922"/>
</g>
<!-- Node48&#45;&gt;Node38 -->
<g id="edge73" class="edge"><title>Node48&#45;&gt;Node38</title>
<path fill="none" stroke="midnightblue" d="M394.98,-287.272C282.839,-281.748 0,-259.807 0,-179 0,-179 0,-179 0,-121 0,-90.2048 2.6402,-78.1834 24,-56 39.4371,-39.9676 61.4193,-29.4368 81.6041,-22.6261"/>
<polygon fill="midnightblue" stroke="midnightblue" points="82.8385,-25.9071 91.332,-19.5738 80.7428,-19.2282 82.8385,-25.9071"/>
</g>
<!-- Node48&#45;&gt;Node39 -->
<g id="edge74" class="edge"><title>Node48&#45;&gt;Node39</title>
<path fill="none" stroke="midnightblue" d="M421.905,-280.428C399.478,-268.598 365.946,-246.2 381,-224 468.267,-95.3109 623.892,-212.691 698,-76 707.86,-57.8134 690.51,-38.5098 674.573,-25.709"/>
<polygon fill="midnightblue" stroke="midnightblue" points="676.614,-22.8647 666.519,-19.6481 672.405,-28.4578 676.614,-22.8647"/>
</g>
<!-- Node48&#45;&gt;Node45 -->
<g id="edge68" class="edge"><title>Node48&#45;&gt;Node45</title>
<path fill="none" stroke="midnightblue" d="M414.302,-280.46C355.644,-260.966 211.788,-213.159 144.625,-190.839"/>
<polygon fill="midnightblue" stroke="midnightblue" points="145.503,-187.443 134.909,-187.61 143.295,-194.086 145.503,-187.443"/>
</g>
<!-- Node49 -->
<g id="node49" class="node"><title>Node49</title>
<g id="a_node49"><a xlink:href="_ogre_string_vector_8h.html" target="_top" xlink:title="OgreStringVector.h">
<polygon fill="none" stroke="red" points="390,-224.5 390,-243.5 490,-243.5 490,-224.5 390,-224.5"/>
<text text-anchor="middle" x="440" y="-231.5" font-family="Helvetica,sans-Serif" font-size="10.00">OgreStringVector.h</text>
</a>
</g>
</g>
<!-- Node48&#45;&gt;Node49 -->
<g id="edge69" class="edge"><title>Node48&#45;&gt;Node49</title>
<path fill="none" stroke="midnightblue" d="M440,-280.083C440,-273.006 440,-262.861 440,-253.986"/>
<polygon fill="midnightblue" stroke="midnightblue" points="443.5,-253.751 440,-243.751 436.5,-253.751 443.5,-253.751"/>
</g>
<!-- Node50 -->
<g id="node50" class="node"><title>Node50</title>
<g id="a_node50"><a xlink:href="_ogre_iterator_wrappers_8h.html" target="_top" xlink:title="OgreIteratorWrappers.h">
<polygon fill="none" stroke="red" points="675.5,-224.5 675.5,-243.5 794.5,-243.5 794.5,-224.5 675.5,-224.5"/>
<text text-anchor="middle" x="735" y="-231.5" font-family="Helvetica,sans-Serif" font-size="10.00">OgreIteratorWrappers.h</text>
</a>
</g>
</g>
<!-- Node48&#45;&gt;Node50 -->
<g id="edge71" class="edge"><title>Node48&#45;&gt;Node50</title>
<path fill="none" stroke="midnightblue" d="M485.125,-280.74C536.939,-271.255 622.009,-255.683 678.264,-245.386"/>
<polygon fill="midnightblue" stroke="midnightblue" points="679.212,-248.77 688.419,-243.527 677.952,-241.885 679.212,-248.77"/>
</g>
<!-- Node49&#45;&gt;Node2 -->
<g id="edge70" class="edge"><title>Node49&#45;&gt;Node2</title>
<path fill="none" stroke="midnightblue" d="M490.005,-226.54C566.662,-216.637 713.058,-197.725 796.233,-186.979"/>
<polygon fill="midnightblue" stroke="midnightblue" points="796.832,-190.431 806.301,-185.679 795.935,-183.489 796.832,-190.431"/>
</g>
<!-- Node50&#45;&gt;Node2 -->
<g id="edge72" class="edge"><title>Node50&#45;&gt;Node2</title>
<path fill="none" stroke="midnightblue" d="M754.49,-224.444C774.642,-215.596 806.323,-201.687 829.331,-191.586"/>
<polygon fill="midnightblue" stroke="midnightblue" points="830.852,-194.741 838.601,-187.516 828.038,-188.332 830.852,-194.741"/>
</g>
</g>
</svg>
