<?xml version="1.0" encoding="UTF-8" standalone="no"?>
<!DOCTYPE svg PUBLIC "-//W3C//DTD SVG 1.1//EN"
 "http://www.w3.org/Graphics/SVG/1.1/DTD/svg11.dtd">
<!-- Generated by graphviz version 2.38.0 (20140413.2041)
 -->
<!-- Title: OgreHardwarePixelBuffer.h Pages: 1 -->
<svg width="2832pt" height="330pt"
 viewBox="0.00 0.00 2831.50 330.00" xmlns="http://www.w3.org/2000/svg" xmlns:xlink="http://www.w3.org/1999/xlink">
<g id="graph0" class="graph" transform="scale(1 1) rotate(0) translate(4 326)">
<title>OgreHardwarePixelBuffer.h</title>
<!-- Node1 -->
<g id="node1" class="node"><title>Node1</title>
<polygon fill="#bfbfbf" stroke="black" points="1731.5,-302.5 1731.5,-321.5 1867.5,-321.5 1867.5,-302.5 1731.5,-302.5"/>
<text text-anchor="middle" x="1799.5" y="-309.5" font-family="Helvetica,sans-Serif" font-size="10.00">OgreHardwarePixelBuffer.h</text>
</g>
<!-- Node2 -->
<g id="node2" class="node"><title>Node2</title>
<g id="a_node2"><a xlink:href="_ogre_8h.html" target="_top" xlink:title="Ogre.h">
<polygon fill="none" stroke="black" points="387.5,-241 387.5,-260 433.5,-260 433.5,-241 387.5,-241"/>
<text text-anchor="middle" x="410.5" y="-248" font-family="Helvetica,sans-Serif" font-size="10.00">Ogre.h</text>
</a>
</g>
</g>
<!-- Node1&#45;&gt;Node2 -->
<g id="edge1" class="edge"><title>Node1&#45;&gt;Node2</title>
<path fill="none" stroke="midnightblue" d="M1721.09,-307.641C1453.97,-296.199 587.536,-259.084 433.899,-252.502"/>
<polygon fill="midnightblue" stroke="midnightblue" points="1720.95,-311.138 1731.09,-308.07 1721.25,-304.145 1720.95,-311.138"/>
</g>
<!-- Node13 -->
<g id="node13" class="node"><title>Node13</title>
<g id="a_node13"><a xlink:href="_ogre_d3_d11_hardware_pixel_buffer_8h.html" target="_top" xlink:title="OgreD3D11HardwarePixelBuffer.h">
<polygon fill="none" stroke="black" points="997,-241 997,-260 1164,-260 1164,-241 997,-241"/>
<text text-anchor="middle" x="1080.5" y="-248" font-family="Helvetica,sans-Serif" font-size="10.00">OgreD3D11HardwarePixelBuffer.h</text>
</a>
</g>
</g>
<!-- Node1&#45;&gt;Node13 -->
<g id="edge20" class="edge"><title>Node1&#45;&gt;Node13</title>
<path fill="none" stroke="midnightblue" d="M1721.03,-307.505C1602.11,-301.727 1369.25,-288.524 1172.5,-266 1158.52,-264.4 1143.42,-262.213 1129.57,-260.022"/>
<polygon fill="midnightblue" stroke="midnightblue" points="1720.97,-311.007 1731.13,-307.992 1721.31,-304.015 1720.97,-311.007"/>
</g>
<!-- Node14 -->
<g id="node14" class="node"><title>Node14</title>
<g id="a_node14"><a xlink:href="_ogre_d3_d9_hardware_pixel_buffer_8h.html" target="_top" xlink:title="OgreD3D9HardwarePixelBuffer.h">
<polygon fill="none" stroke="black" points="1182,-241 1182,-260 1343,-260 1343,-241 1182,-241"/>
<text text-anchor="middle" x="1262.5" y="-248" font-family="Helvetica,sans-Serif" font-size="10.00">OgreD3D9HardwarePixelBuffer.h</text>
</a>
</g>
</g>
<!-- Node1&#45;&gt;Node14 -->
<g id="edge21" class="edge"><title>Node1&#45;&gt;Node14</title>
<path fill="none" stroke="midnightblue" d="M1721.54,-302.362C1619.35,-291.039 1441.19,-271.299 1339.49,-260.03"/>
<polygon fill="midnightblue" stroke="midnightblue" points="1721.16,-305.842 1731.49,-303.464 1721.93,-298.884 1721.16,-305.842"/>
</g>
<!-- Node17 -->
<g id="node17" class="node"><title>Node17</title>
<g id="a_node17"><a xlink:href="_ogre_g_l_texture_8h.html" target="_top" xlink:title="OgreGLTexture.h">
<polygon fill="none" stroke="black" points="1427.5,-241 1427.5,-260 1519.5,-260 1519.5,-241 1427.5,-241"/>
<text text-anchor="middle" x="1473.5" y="-248" font-family="Helvetica,sans-Serif" font-size="10.00">OgreGLTexture.h</text>
</a>
</g>
</g>
<!-- Node1&#45;&gt;Node17 -->
<g id="edge24" class="edge"><title>Node1&#45;&gt;Node17</title>
<path fill="none" stroke="midnightblue" d="M1742.58,-300.611C1679.26,-289.054 1578.17,-270.604 1519.59,-259.913"/>
<polygon fill="midnightblue" stroke="midnightblue" points="1742.33,-304.123 1752.79,-302.475 1743.58,-297.236 1742.33,-304.123"/>
</g>
<!-- Node24 -->
<g id="node24" class="node"><title>Node24</title>
<g id="a_node24"><a xlink:href="_ogre_g_l_hardware_pixel_buffer_8h.html" target="_top" xlink:title="OgreGLHardwarePixelBuffer.h">
<polygon fill="none" stroke="black" points="1575,-241 1575,-260 1724,-260 1724,-241 1575,-241"/>
<text text-anchor="middle" x="1649.5" y="-248" font-family="Helvetica,sans-Serif" font-size="10.00">OgreGLHardwarePixelBuffer.h</text>
</a>
</g>
</g>
<!-- Node1&#45;&gt;Node24 -->
<g id="edge32" class="edge"><title>Node1&#45;&gt;Node24</title>
<path fill="none" stroke="midnightblue" d="M1768.7,-298.782C1739.55,-287.22 1696.55,-270.164 1670.95,-260.009"/>
<polygon fill="midnightblue" stroke="midnightblue" points="1767.42,-302.041 1778.01,-302.475 1770,-295.534 1767.42,-302.041"/>
</g>
<!-- Node25 -->
<g id="node25" class="node"><title>Node25</title>
<g id="a_node25"><a xlink:href="_ogre_g_l3_plus_texture_8h.html" target="_top" xlink:title="OgreGL3PlusTexture.h">
<polygon fill="none" stroke="black" points="1741.5,-241 1741.5,-260 1857.5,-260 1857.5,-241 1741.5,-241"/>
<text text-anchor="middle" x="1799.5" y="-248" font-family="Helvetica,sans-Serif" font-size="10.00">OgreGL3PlusTexture.h</text>
</a>
</g>
</g>
<!-- Node1&#45;&gt;Node25 -->
<g id="edge33" class="edge"><title>Node1&#45;&gt;Node25</title>
<path fill="none" stroke="midnightblue" d="M1799.5,-292.317C1799.5,-281.496 1799.5,-268.398 1799.5,-260.009"/>
<polygon fill="midnightblue" stroke="midnightblue" points="1796,-292.475 1799.5,-302.475 1803,-292.475 1796,-292.475"/>
</g>
<!-- Node31 -->
<g id="node31" class="node"><title>Node31</title>
<g id="a_node31"><a xlink:href="_ogre_g_l3_plus_hardware_pixel_buffer_8h.html" target="_top" xlink:title="OgreGL3PlusHardwarePixel\lBuffer.h">
<polygon fill="none" stroke="black" points="1877,-235.5 1877,-265.5 2016,-265.5 2016,-235.5 1877,-235.5"/>
<text text-anchor="start" x="1885" y="-253.5" font-family="Helvetica,sans-Serif" font-size="10.00">OgreGL3PlusHardwarePixel</text>
<text text-anchor="middle" x="1946.5" y="-242.5" font-family="Helvetica,sans-Serif" font-size="10.00">Buffer.h</text>
</a>
</g>
</g>
<!-- Node1&#45;&gt;Node31 -->
<g id="edge40" class="edge"><title>Node1&#45;&gt;Node31</title>
<path fill="none" stroke="midnightblue" d="M1829.84,-298.719C1853.7,-289.062 1886.95,-275.602 1911.86,-265.523"/>
<polygon fill="midnightblue" stroke="midnightblue" points="1828.52,-295.479 1820.56,-302.475 1831.14,-301.967 1828.52,-295.479"/>
</g>
<!-- Node33 -->
<g id="node33" class="node"><title>Node33</title>
<g id="a_node33"><a xlink:href="_ogre_g_l_e_s_hardware_pixel_buffer_8h.html" target="_top" xlink:title="OgreGLESHardwarePixelBuffer.h">
<polygon fill="none" stroke="black" points="2034.5,-241 2034.5,-260 2196.5,-260 2196.5,-241 2034.5,-241"/>
<text text-anchor="middle" x="2115.5" y="-248" font-family="Helvetica,sans-Serif" font-size="10.00">OgreGLESHardwarePixelBuffer.h</text>
</a>
</g>
</g>
<!-- Node1&#45;&gt;Node33 -->
<g id="edge42" class="edge"><title>Node1&#45;&gt;Node33</title>
<path fill="none" stroke="midnightblue" d="M1854.64,-300.617C1915.84,-289.094 2013.45,-270.716 2070.31,-260.009"/>
<polygon fill="midnightblue" stroke="midnightblue" points="1853.95,-297.185 1844.78,-302.475 1855.25,-304.064 1853.95,-297.185"/>
</g>
<!-- Node35 -->
<g id="node35" class="node"><title>Node35</title>
<g id="a_node35"><a xlink:href="_ogre_g_l_e_s_texture_8h.html" target="_top" xlink:title="OgreGLESTexture.h">
<polygon fill="none" stroke="black" points="2215,-241 2215,-260 2320,-260 2320,-241 2215,-241"/>
<text text-anchor="middle" x="2267.5" y="-248" font-family="Helvetica,sans-Serif" font-size="10.00">OgreGLESTexture.h</text>
</a>
</g>
</g>
<!-- Node1&#45;&gt;Node35 -->
<g id="edge44" class="edge"><title>Node1&#45;&gt;Node35</title>
<path fill="none" stroke="midnightblue" d="M1877.73,-305.118C1959.77,-298.299 2092.28,-285.443 2205.5,-266 2214.87,-264.391 2224.94,-262.227 2234.19,-260.062"/>
<polygon fill="midnightblue" stroke="midnightblue" points="1877.41,-301.632 1867.73,-305.94 1877.99,-308.609 1877.41,-301.632"/>
</g>
<!-- Node42 -->
<g id="node42" class="node"><title>Node42</title>
<g id="a_node42"><a xlink:href="_ogre_g_l_e_s2_texture_8h.html" target="_top" xlink:title="OgreGLES2Texture.h">
<polygon fill="none" stroke="black" points="2434.5,-241 2434.5,-260 2544.5,-260 2544.5,-241 2434.5,-241"/>
<text text-anchor="middle" x="2489.5" y="-248" font-family="Helvetica,sans-Serif" font-size="10.00">OgreGLES2Texture.h</text>
</a>
</g>
</g>
<!-- Node1&#45;&gt;Node42 -->
<g id="edge52" class="edge"><title>Node1&#45;&gt;Node42</title>
<path fill="none" stroke="midnightblue" d="M1877.59,-304.479C1980.82,-295.831 2168.33,-280.025 2328.5,-266 2363.73,-262.915 2403.28,-259.355 2434.37,-256.534"/>
<polygon fill="midnightblue" stroke="midnightblue" points="1877.24,-300.996 1867.57,-305.318 1877.82,-307.971 1877.24,-300.996"/>
</g>
<!-- Node48 -->
<g id="node48" class="node"><title>Node48</title>
<g id="a_node48"><a xlink:href="_ogre_g_l_e_s2_hardware_pixel_buffer_8h.html" target="_top" xlink:title="OgreGLES2HardwarePixelBuffer.h">
<polygon fill="none" stroke="black" points="2563,-241 2563,-260 2730,-260 2730,-241 2563,-241"/>
<text text-anchor="middle" x="2646.5" y="-248" font-family="Helvetica,sans-Serif" font-size="10.00">OgreGLES2HardwarePixelBuffer.h</text>
</a>
</g>
</g>
<!-- Node1&#45;&gt;Node48 -->
<g id="edge59" class="edge"><title>Node1&#45;&gt;Node48</title>
<path fill="none" stroke="midnightblue" d="M1877.52,-308.788C2014.61,-304.357 2307.53,-292.455 2553.5,-266 2567.8,-264.462 2583.25,-262.268 2597.38,-260.051"/>
<polygon fill="midnightblue" stroke="midnightblue" points="1877.41,-305.29 1867.52,-309.107 1877.63,-312.286 1877.41,-305.29"/>
</g>
<!-- Node3 -->
<g id="node3" class="node"><title>Node3</title>
<g id="a_node3"><a xlink:href="_ogre_hlms_datablock_8h.html" target="_top" xlink:title="OgreHlmsDatablock.h">
<polygon fill="none" stroke="black" points="91,-123.5 91,-142.5 204,-142.5 204,-123.5 91,-123.5"/>
<text text-anchor="middle" x="147.5" y="-130.5" font-family="Helvetica,sans-Serif" font-size="10.00">OgreHlmsDatablock.h</text>
</a>
</g>
</g>
<!-- Node2&#45;&gt;Node3 -->
<g id="edge2" class="edge"><title>Node2&#45;&gt;Node3</title>
<path fill="none" stroke="midnightblue" d="M377.11,-249.471C302.573,-248.624 126.277,-242.015 89.5,-199 71.9074,-178.423 107.274,-154.843 130.14,-142.519"/>
<polygon fill="midnightblue" stroke="midnightblue" points="377.311,-252.973 387.341,-249.558 377.371,-245.973 377.311,-252.973"/>
</g>
<!-- Node4 -->
<g id="node4" class="node"><title>Node4</title>
<g id="a_node4"><a xlink:href="_ogre_hlms_material_base_8h.html" target="_top" xlink:title="OgreHlmsMaterialBase.h">
<polygon fill="none" stroke="black" points="63.5,-62 63.5,-81 189.5,-81 189.5,-62 63.5,-62"/>
<text text-anchor="middle" x="126.5" y="-69" font-family="Helvetica,sans-Serif" font-size="10.00">OgreHlmsMaterialBase.h</text>
</a>
</g>
</g>
<!-- Node2&#45;&gt;Node4 -->
<g id="edge14" class="edge"><title>Node2&#45;&gt;Node4</title>
<path fill="none" stroke="midnightblue" d="M376.829,-249.612C300.768,-249.075 119.343,-243.095 81.5,-199 59.5019,-173.368 69.4767,-154.565 81.5,-123 88.188,-105.442 104.094,-90.1046 115.083,-81.0711"/>
<polygon fill="midnightblue" stroke="midnightblue" points="377.242,-253.114 387.257,-249.656 377.272,-246.114 377.242,-253.114"/>
</g>
<!-- Node5 -->
<g id="node5" class="node"><title>Node5</title>
<g id="a_node5"><a xlink:href="_ogre_hlms_pbs_material_8h.html" target="_top" xlink:title="OgreHlmsPbsMaterial.h">
<polygon fill="none" stroke="black" points="0,-0.5 0,-19.5 121,-19.5 121,-0.5 0,-0.5"/>
<text text-anchor="middle" x="60.5" y="-7.5" font-family="Helvetica,sans-Serif" font-size="10.00">OgreHlmsPbsMaterial.h</text>
</a>
</g>
</g>
<!-- Node2&#45;&gt;Node5 -->
<g id="edge15" class="edge"><title>Node2&#45;&gt;Node5</title>
<path fill="none" stroke="midnightblue" d="M377.231,-249.577C299.406,-249.009 108.86,-243.046 66.5,-199 17.6062,-148.16 46.9492,-49.2726 57.3126,-19.6116"/>
<polygon fill="midnightblue" stroke="midnightblue" points="377.421,-253.078 387.438,-249.624 377.454,-246.078 377.421,-253.078"/>
</g>
<!-- Node6 -->
<g id="node6" class="node"><title>Node6</title>
<g id="a_node6"><a xlink:href="_ogre_hlms_property_map_8h.html" target="_top" xlink:title="OgreHlmsPropertyMap.h">
<polygon fill="none" stroke="black" points="257,-179.5 257,-198.5 382,-198.5 382,-179.5 257,-179.5"/>
<text text-anchor="middle" x="319.5" y="-186.5" font-family="Helvetica,sans-Serif" font-size="10.00">OgreHlmsPropertyMap.h</text>
</a>
</g>
</g>
<!-- Node2&#45;&gt;Node6 -->
<g id="edge5" class="edge"><title>Node2&#45;&gt;Node6</title>
<path fill="none" stroke="midnightblue" d="M388.98,-235.43C371.437,-223.959 347.235,-208.134 332.514,-198.509"/>
<polygon fill="midnightblue" stroke="midnightblue" points="387.177,-238.432 397.462,-240.975 391.008,-232.573 387.177,-238.432"/>
</g>
<!-- Node7 -->
<g id="node7" class="node"><title>Node7</title>
<g id="a_node7"><a xlink:href="_ogre_hlms_shader_generator_8h.html" target="_top" xlink:title="OgreHlmsShaderGenerator.h">
<polygon fill="none" stroke="black" points="339,-123.5 339,-142.5 482,-142.5 482,-123.5 339,-123.5"/>
<text text-anchor="middle" x="410.5" y="-130.5" font-family="Helvetica,sans-Serif" font-size="10.00">OgreHlmsShaderGenerator.h</text>
</a>
</g>
</g>
<!-- Node2&#45;&gt;Node7 -->
<g id="edge18" class="edge"><title>Node2&#45;&gt;Node7</title>
<path fill="none" stroke="midnightblue" d="M410.5,-230.664C410.5,-205.365 410.5,-161.435 410.5,-142.782"/>
<polygon fill="midnightblue" stroke="midnightblue" points="407,-230.819 410.5,-240.819 414,-230.819 407,-230.819"/>
</g>
<!-- Node8 -->
<g id="node8" class="node"><title>Node8</title>
<g id="a_node8"><a xlink:href="_ogre_hlms_shader_template_8h.html" target="_top" xlink:title="OgreHlmsShaderTemplate.h">
<polygon fill="none" stroke="black" points="98.5,-179.5 98.5,-198.5 238.5,-198.5 238.5,-179.5 98.5,-179.5"/>
<text text-anchor="middle" x="168.5" y="-186.5" font-family="Helvetica,sans-Serif" font-size="10.00">OgreHlmsShaderTemplate.h</text>
</a>
</g>
</g>
<!-- Node2&#45;&gt;Node8 -->
<g id="edge9" class="edge"><title>Node2&#45;&gt;Node8</title>
<path fill="none" stroke="midnightblue" d="M377.311,-241.34C331.615,-230.105 249.713,-209.968 203.223,-198.537"/>
<polygon fill="midnightblue" stroke="midnightblue" points="376.75,-244.806 387.296,-243.795 378.421,-238.008 376.75,-244.806"/>
</g>
<!-- Node9 -->
<g id="node9" class="node"><title>Node9</title>
<g id="a_node9"><a xlink:href="_ogre_hlms_manager_8h.html" target="_top" xlink:title="OgreHlmsManager.h">
<polygon fill="none" stroke="black" points="601,-123.5 601,-142.5 708,-142.5 708,-123.5 601,-123.5"/>
<text text-anchor="middle" x="654.5" y="-130.5" font-family="Helvetica,sans-Serif" font-size="10.00">OgreHlmsManager.h</text>
</a>
</g>
</g>
<!-- Node2&#45;&gt;Node9 -->
<g id="edge11" class="edge"><title>Node2&#45;&gt;Node9</title>
<path fill="none" stroke="midnightblue" d="M443.955,-244.968C481.042,-238.842 541.671,-225.489 587.5,-199 613.598,-183.915 637.141,-156.438 648.065,-142.538"/>
<polygon fill="midnightblue" stroke="midnightblue" points="443.034,-241.569 433.697,-246.576 444.118,-248.485 443.034,-241.569"/>
</g>
<!-- Node10 -->
<g id="node10" class="node"><title>Node10</title>
<g id="a_node10"><a xlink:href="_ogre_hlms_shader_manager_8h.html" target="_top" xlink:title="OgreHlmsShaderManager.h">
<polygon fill="none" stroke="black" points="635,-179.5 635,-198.5 772,-198.5 772,-179.5 635,-179.5"/>
<text text-anchor="middle" x="703.5" y="-186.5" font-family="Helvetica,sans-Serif" font-size="10.00">OgreHlmsShaderManager.h</text>
</a>
</g>
</g>
<!-- Node2&#45;&gt;Node10 -->
<g id="edge12" class="edge"><title>Node2&#45;&gt;Node10</title>
<path fill="none" stroke="midnightblue" d="M444.009,-242.695C497.725,-231.787 603.006,-210.408 661.607,-198.507"/>
<polygon fill="midnightblue" stroke="midnightblue" points="443.086,-239.311 433.982,-244.731 444.479,-246.171 443.086,-239.311"/>
</g>
<!-- Node11 -->
<g id="node11" class="node"><title>Node11</title>
<g id="a_node11"><a xlink:href="_ogre_hlms_shader_common_8h.html" target="_top" xlink:title="OgreHlmsShaderCommon.h">
<polygon fill="none" stroke="black" points="438.5,-179.5 438.5,-198.5 578.5,-198.5 578.5,-179.5 438.5,-179.5"/>
<text text-anchor="middle" x="508.5" y="-186.5" font-family="Helvetica,sans-Serif" font-size="10.00">OgreHlmsShaderCommon.h</text>
</a>
</g>
</g>
<!-- Node2&#45;&gt;Node11 -->
<g id="edge16" class="edge"><title>Node2&#45;&gt;Node11</title>
<path fill="none" stroke="midnightblue" d="M433.157,-235.744C452.089,-224.25 478.486,-208.223 494.485,-198.509"/>
<polygon fill="midnightblue" stroke="midnightblue" points="431.272,-232.794 424.541,-240.975 434.905,-238.777 431.272,-232.794"/>
</g>
<!-- Node12 -->
<g id="node12" class="node"><title>Node12</title>
<g id="a_node12"><a xlink:href="_ogre_hlms_shader_pieces_manager_8h.html" target="_top" xlink:title="OgreHlmsShaderPiecesManager.h">
<polygon fill="none" stroke="black" points="790,-179.5 790,-198.5 957,-198.5 957,-179.5 790,-179.5"/>
<text text-anchor="middle" x="873.5" y="-186.5" font-family="Helvetica,sans-Serif" font-size="10.00">OgreHlmsShaderPiecesManager.h</text>
</a>
</g>
</g>
<!-- Node2&#45;&gt;Node12 -->
<g id="edge19" class="edge"><title>Node2&#45;&gt;Node12</title>
<path fill="none" stroke="midnightblue" d="M443.726,-245.23C519.615,-235.478 706.853,-211.416 807.301,-198.507"/>
<polygon fill="midnightblue" stroke="midnightblue" points="443.25,-241.762 433.778,-246.509 444.142,-248.705 443.25,-241.762"/>
</g>
<!-- Node3&#45;&gt;Node4 -->
<g id="edge3" class="edge"><title>Node3&#45;&gt;Node4</title>
<path fill="none" stroke="midnightblue" d="M141.146,-113.997C137.282,-103.05 132.526,-89.5746 129.503,-81.0091"/>
<polygon fill="midnightblue" stroke="midnightblue" points="137.862,-115.21 144.491,-123.475 144.463,-112.88 137.862,-115.21"/>
</g>
<!-- Node4&#45;&gt;Node5 -->
<g id="edge4" class="edge"><title>Node4&#45;&gt;Node5</title>
<path fill="none" stroke="midnightblue" d="M109.473,-55.1496C96.8897,-43.8058 80.2235,-28.7811 69.9386,-19.5091"/>
<polygon fill="midnightblue" stroke="midnightblue" points="107.273,-57.8788 117.044,-61.9751 111.96,-52.6796 107.273,-57.8788"/>
</g>
<!-- Node6&#45;&gt;Node3 -->
<g id="edge6" class="edge"><title>Node6&#45;&gt;Node3</title>
<path fill="none" stroke="midnightblue" d="M282.668,-176.436C250.238,-166.255 203.763,-151.664 174.626,-142.516"/>
<polygon fill="midnightblue" stroke="midnightblue" points="281.657,-179.787 292.246,-179.444 283.754,-173.109 281.657,-179.787"/>
</g>
<!-- Node6&#45;&gt;Node4 -->
<g id="edge7" class="edge"><title>Node6&#45;&gt;Node4</title>
<path fill="none" stroke="midnightblue" d="M296.569,-173.934C274.943,-160.701 241.596,-140.379 212.5,-123 187.527,-108.084 158.294,-90.9967 141.147,-81.0117"/>
<polygon fill="midnightblue" stroke="midnightblue" points="294.992,-177.073 305.348,-179.311 298.648,-171.103 294.992,-177.073"/>
</g>
<!-- Node6&#45;&gt;Node7 -->
<g id="edge8" class="edge"><title>Node6&#45;&gt;Node7</title>
<path fill="none" stroke="midnightblue" d="M342.794,-174.177C359.539,-164.241 381.6,-151.149 395.916,-142.655"/>
<polygon fill="midnightblue" stroke="midnightblue" points="340.934,-171.211 334.121,-179.324 344.507,-177.231 340.934,-171.211"/>
</g>
<!-- Node8&#45;&gt;Node3 -->
<g id="edge10" class="edge"><title>Node8&#45;&gt;Node3</title>
<path fill="none" stroke="midnightblue" d="M161.379,-169.69C157.84,-160.589 153.728,-150.014 150.903,-142.751"/>
<polygon fill="midnightblue" stroke="midnightblue" points="158.146,-171.032 165.032,-179.083 164.67,-168.494 158.146,-171.032"/>
</g>
<!-- Node10&#45;&gt;Node9 -->
<g id="edge13" class="edge"><title>Node10&#45;&gt;Node9</title>
<path fill="none" stroke="midnightblue" d="M688.466,-171.431C679.878,-161.967 669.457,-150.483 662.441,-142.751"/>
<polygon fill="midnightblue" stroke="midnightblue" points="686.097,-174.029 695.409,-179.083 691.281,-169.325 686.097,-174.029"/>
</g>
<!-- Node11&#45;&gt;Node7 -->
<g id="edge17" class="edge"><title>Node11&#45;&gt;Node7</title>
<path fill="none" stroke="midnightblue" d="M483.914,-174.453C465.822,-164.483 441.765,-151.228 426.206,-142.655"/>
<polygon fill="midnightblue" stroke="midnightblue" points="482.307,-177.563 492.755,-179.324 485.685,-171.432 482.307,-177.563"/>
</g>
<!-- Node15 -->
<g id="node15" class="node"><title>Node15</title>
<g id="a_node15"><a xlink:href="_ogre_d3_d9_multi_render_target_8h.html" target="_top" xlink:title="OgreD3D9MultiRenderTarget.h">
<polygon fill="none" stroke="black" points="975.5,-179.5 975.5,-198.5 1127.5,-198.5 1127.5,-179.5 975.5,-179.5"/>
<text text-anchor="middle" x="1051.5" y="-186.5" font-family="Helvetica,sans-Serif" font-size="10.00">OgreD3D9MultiRenderTarget.h</text>
</a>
</g>
</g>
<!-- Node14&#45;&gt;Node15 -->
<g id="edge22" class="edge"><title>Node14&#45;&gt;Node15</title>
<path fill="none" stroke="midnightblue" d="M1222.6,-238.249C1181.61,-226.689 1118.7,-208.951 1081.68,-198.509"/>
<polygon fill="midnightblue" stroke="midnightblue" points="1221.69,-241.63 1232.27,-240.975 1223.59,-234.892 1221.69,-241.63"/>
</g>
<!-- Node16 -->
<g id="node16" class="node"><title>Node16</title>
<g id="a_node16"><a xlink:href="_ogre_d3_d9_texture_8h.html" target="_top" xlink:title="OgreD3D9Texture.h">
<polygon fill="none" stroke="black" points="1145.5,-179.5 1145.5,-198.5 1249.5,-198.5 1249.5,-179.5 1145.5,-179.5"/>
<text text-anchor="middle" x="1197.5" y="-186.5" font-family="Helvetica,sans-Serif" font-size="10.00">OgreD3D9Texture.h</text>
</a>
</g>
</g>
<!-- Node14&#45;&gt;Node16 -->
<g id="edge23" class="edge"><title>Node14&#45;&gt;Node16</title>
<path fill="none" stroke="midnightblue" d="M1245.73,-234.15C1233.34,-222.806 1216.92,-207.781 1206.8,-198.509"/>
<polygon fill="midnightblue" stroke="midnightblue" points="1243.45,-236.805 1253.19,-240.975 1248.17,-231.641 1243.45,-236.805"/>
</g>
<!-- Node18 -->
<g id="node18" class="node"><title>Node18</title>
<g id="a_node18"><a xlink:href="_ogre_g_l_render_texture_8h.html" target="_top" xlink:title="OgreGLRenderTexture.h">
<polygon fill="none" stroke="black" points="1268,-179.5 1268,-198.5 1391,-198.5 1391,-179.5 1268,-179.5"/>
<text text-anchor="middle" x="1329.5" y="-186.5" font-family="Helvetica,sans-Serif" font-size="10.00">OgreGLRenderTexture.h</text>
</a>
</g>
</g>
<!-- Node17&#45;&gt;Node18 -->
<g id="edge25" class="edge"><title>Node17&#45;&gt;Node18</title>
<path fill="none" stroke="midnightblue" d="M1443.57,-237.131C1415.59,-225.572 1374.56,-208.62 1350.09,-198.509"/>
<polygon fill="midnightblue" stroke="midnightblue" points="1442.29,-240.391 1452.87,-240.975 1444.96,-233.922 1442.29,-240.391"/>
</g>
<!-- Node23 -->
<g id="node23" class="node"><title>Node23</title>
<g id="a_node23"><a xlink:href="_ogre_g_l_texture_manager_8h.html" target="_top" xlink:title="OgreGLTextureManager.h">
<polygon fill="none" stroke="black" points="1409,-179.5 1409,-198.5 1538,-198.5 1538,-179.5 1409,-179.5"/>
<text text-anchor="middle" x="1473.5" y="-186.5" font-family="Helvetica,sans-Serif" font-size="10.00">OgreGLTextureManager.h</text>
</a>
</g>
</g>
<!-- Node17&#45;&gt;Node23 -->
<g id="edge31" class="edge"><title>Node17&#45;&gt;Node23</title>
<path fill="none" stroke="midnightblue" d="M1473.5,-230.817C1473.5,-219.996 1473.5,-206.898 1473.5,-198.509"/>
<polygon fill="midnightblue" stroke="midnightblue" points="1470,-230.975 1473.5,-240.975 1477,-230.975 1470,-230.975"/>
</g>
<!-- Node19 -->
<g id="node19" class="node"><title>Node19</title>
<g id="a_node19"><a xlink:href="_ogre_g_l_frame_buffer_object_8h.html" target="_top" xlink:title="OgreGLFrameBufferObject.h">
<polygon fill="none" stroke="black" points="1160,-123.5 1160,-142.5 1301,-142.5 1301,-123.5 1160,-123.5"/>
<text text-anchor="middle" x="1230.5" y="-130.5" font-family="Helvetica,sans-Serif" font-size="10.00">OgreGLFrameBufferObject.h</text>
</a>
</g>
</g>
<!-- Node18&#45;&gt;Node19 -->
<g id="edge26" class="edge"><title>Node18&#45;&gt;Node19</title>
<path fill="none" stroke="midnightblue" d="M1304.66,-174.453C1286.39,-164.483 1262.08,-151.228 1246.37,-142.655"/>
<polygon fill="midnightblue" stroke="midnightblue" points="1303.14,-177.608 1313.59,-179.324 1306.49,-171.463 1303.14,-177.608"/>
</g>
<!-- Node21 -->
<g id="node21" class="node"><title>Node21</title>
<g id="a_node21"><a xlink:href="_ogre_g_l_f_b_o_render_texture_8h.html" target="_top" xlink:title="OgreGLFBORenderTexture.h">
<polygon fill="none" stroke="black" points="1258,-62 1258,-81 1401,-81 1401,-62 1258,-62"/>
<text text-anchor="middle" x="1329.5" y="-69" font-family="Helvetica,sans-Serif" font-size="10.00">OgreGLFBORenderTexture.h</text>
</a>
</g>
</g>
<!-- Node18&#45;&gt;Node21 -->
<g id="edge29" class="edge"><title>Node18&#45;&gt;Node21</title>
<path fill="none" stroke="midnightblue" d="M1329.5,-169.164C1329.5,-143.865 1329.5,-99.9353 1329.5,-81.282"/>
<polygon fill="midnightblue" stroke="midnightblue" points="1326,-169.319 1329.5,-179.319 1333,-169.319 1326,-169.319"/>
</g>
<!-- Node22 -->
<g id="node22" class="node"><title>Node22</title>
<g id="a_node22"><a xlink:href="_ogre_g_l_p_b_render_texture_8h.html" target="_top" xlink:title="OgreGLPBRenderTexture.h">
<polygon fill="none" stroke="black" points="1358,-123.5 1358,-142.5 1495,-142.5 1495,-123.5 1358,-123.5"/>
<text text-anchor="middle" x="1426.5" y="-130.5" font-family="Helvetica,sans-Serif" font-size="10.00">OgreGLPBRenderTexture.h</text>
</a>
</g>
</g>
<!-- Node18&#45;&gt;Node22 -->
<g id="edge30" class="edge"><title>Node18&#45;&gt;Node22</title>
<path fill="none" stroke="midnightblue" d="M1353.84,-174.453C1371.74,-164.483 1395.55,-151.228 1410.95,-142.655"/>
<polygon fill="midnightblue" stroke="midnightblue" points="1352.12,-171.402 1345.08,-179.324 1355.52,-177.518 1352.12,-171.402"/>
</g>
<!-- Node20 -->
<g id="node20" class="node"><title>Node20</title>
<g id="a_node20"><a xlink:href="_ogre_g_l_f_b_o_multi_render_target_8h.html" target="_top" xlink:title="OgreGLFBOMultiRenderTarget.h">
<polygon fill="none" stroke="black" points="1081,-62 1081,-81 1240,-81 1240,-62 1081,-62"/>
<text text-anchor="middle" x="1160.5" y="-69" font-family="Helvetica,sans-Serif" font-size="10.00">OgreGLFBOMultiRenderTarget.h</text>
</a>
</g>
</g>
<!-- Node19&#45;&gt;Node20 -->
<g id="edge27" class="edge"><title>Node19&#45;&gt;Node20</title>
<path fill="none" stroke="midnightblue" d="M1212.82,-116.973C1199.43,-105.593 1181.52,-90.3694 1170.51,-81.0091"/>
<polygon fill="midnightblue" stroke="midnightblue" points="1210.58,-119.665 1220.47,-123.475 1215.12,-114.332 1210.58,-119.665"/>
</g>
<!-- Node19&#45;&gt;Node21 -->
<g id="edge28" class="edge"><title>Node19&#45;&gt;Node21</title>
<path fill="none" stroke="midnightblue" d="M1253.39,-118.244C1272.51,-106.75 1299.18,-90.7226 1315.34,-81.0091"/>
<polygon fill="midnightblue" stroke="midnightblue" points="1251.45,-115.324 1244.68,-123.475 1255.06,-121.324 1251.45,-115.324"/>
</g>
<!-- Node26 -->
<g id="node26" class="node"><title>Node26</title>
<g id="a_node26"><a xlink:href="_ogre_g_l3_plus_render_texture_8h.html" target="_top" xlink:title="OgreGL3PlusRenderTexture.h">
<polygon fill="none" stroke="black" points="1556.5,-179.5 1556.5,-198.5 1704.5,-198.5 1704.5,-179.5 1556.5,-179.5"/>
<text text-anchor="middle" x="1630.5" y="-186.5" font-family="Helvetica,sans-Serif" font-size="10.00">OgreGL3PlusRenderTexture.h</text>
</a>
</g>
</g>
<!-- Node25&#45;&gt;Node26 -->
<g id="edge34" class="edge"><title>Node25&#45;&gt;Node26</title>
<path fill="none" stroke="midnightblue" d="M1765.65,-237.583C1732.8,-226.017 1683.76,-208.752 1654.67,-198.509"/>
<polygon fill="midnightblue" stroke="midnightblue" points="1764.69,-240.956 1775.29,-240.975 1767.02,-234.353 1764.69,-240.956"/>
</g>
<!-- Node30 -->
<g id="node30" class="node"><title>Node30</title>
<g id="a_node30"><a xlink:href="_ogre_g_l3_plus_texture_manager_8h.html" target="_top" xlink:title="OgreGL3PlusTextureManager.h">
<polygon fill="none" stroke="black" points="1722.5,-179.5 1722.5,-198.5 1876.5,-198.5 1876.5,-179.5 1722.5,-179.5"/>
<text text-anchor="middle" x="1799.5" y="-186.5" font-family="Helvetica,sans-Serif" font-size="10.00">OgreGL3PlusTextureManager.h</text>
</a>
</g>
</g>
<!-- Node25&#45;&gt;Node30 -->
<g id="edge39" class="edge"><title>Node25&#45;&gt;Node30</title>
<path fill="none" stroke="midnightblue" d="M1799.5,-230.817C1799.5,-219.996 1799.5,-206.898 1799.5,-198.509"/>
<polygon fill="midnightblue" stroke="midnightblue" points="1796,-230.975 1799.5,-240.975 1803,-230.975 1796,-230.975"/>
</g>
<!-- Node27 -->
<g id="node27" class="node"><title>Node27</title>
<g id="a_node27"><a xlink:href="_ogre_g_l3_plus_frame_buffer_object_8h.html" target="_top" xlink:title="OgreGL3PlusFrameBufferObject.h">
<polygon fill="none" stroke="black" points="1530.5,-123.5 1530.5,-142.5 1696.5,-142.5 1696.5,-123.5 1530.5,-123.5"/>
<text text-anchor="middle" x="1613.5" y="-130.5" font-family="Helvetica,sans-Serif" font-size="10.00">OgreGL3PlusFrameBufferObject.h</text>
</a>
</g>
</g>
<!-- Node26&#45;&gt;Node27 -->
<g id="edge35" class="edge"><title>Node26&#45;&gt;Node27</title>
<path fill="none" stroke="midnightblue" d="M1624.64,-169.396C1621.8,-160.362 1618.52,-149.936 1616.25,-142.751"/>
<polygon fill="midnightblue" stroke="midnightblue" points="1621.35,-170.596 1627.69,-179.083 1628.03,-168.493 1621.35,-170.596"/>
</g>
<!-- Node29 -->
<g id="node29" class="node"><title>Node29</title>
<g id="a_node29"><a xlink:href="_ogre_g_l3_plus_f_b_o_render_texture_8h.html" target="_top" xlink:title="OgreGL3PlusFBORenderTexture.h">
<polygon fill="none" stroke="black" points="1640.5,-62 1640.5,-81 1808.5,-81 1808.5,-62 1640.5,-62"/>
<text text-anchor="middle" x="1724.5" y="-69" font-family="Helvetica,sans-Serif" font-size="10.00">OgreGL3PlusFBORenderTexture.h</text>
</a>
</g>
</g>
<!-- Node26&#45;&gt;Node29 -->
<g id="edge38" class="edge"><title>Node26&#45;&gt;Node29</title>
<path fill="none" stroke="midnightblue" d="M1663.55,-175.049C1678.35,-167.702 1694.84,-157.115 1705.5,-143 1719.71,-124.185 1723.3,-95.4939 1724.2,-81.2104"/>
<polygon fill="midnightblue" stroke="midnightblue" points="1661.74,-172.03 1654.14,-179.413 1664.69,-178.38 1661.74,-172.03"/>
</g>
<!-- Node28 -->
<g id="node28" class="node"><title>Node28</title>
<g id="a_node28"><a xlink:href="_ogre_g_l3_plus_f_b_o_multi_render_target_8h.html" target="_top" xlink:title="OgreGL3PlusFBOMultiRender\lTarget.h">
<polygon fill="none" stroke="black" points="1474.5,-56.5 1474.5,-86.5 1622.5,-86.5 1622.5,-56.5 1474.5,-56.5"/>
<text text-anchor="start" x="1482.5" y="-74.5" font-family="Helvetica,sans-Serif" font-size="10.00">OgreGL3PlusFBOMultiRender</text>
<text text-anchor="middle" x="1548.5" y="-63.5" font-family="Helvetica,sans-Serif" font-size="10.00">Target.h</text>
</a>
</g>
</g>
<!-- Node27&#45;&gt;Node28 -->
<g id="edge36" class="edge"><title>Node27&#45;&gt;Node28</title>
<path fill="none" stroke="midnightblue" d="M1596.73,-116.646C1586.57,-107.346 1573.7,-95.572 1563.82,-86.523"/>
<polygon fill="midnightblue" stroke="midnightblue" points="1594.45,-119.305 1604.19,-123.475 1599.17,-114.141 1594.45,-119.305"/>
</g>
<!-- Node27&#45;&gt;Node29 -->
<g id="edge37" class="edge"><title>Node27&#45;&gt;Node29</title>
<path fill="none" stroke="midnightblue" d="M1638.29,-118.712C1659.79,-107.188 1690.26,-90.855 1708.63,-81.0091"/>
<polygon fill="midnightblue" stroke="midnightblue" points="1636.56,-115.666 1629.4,-123.475 1639.87,-121.835 1636.56,-115.666"/>
</g>
<!-- Node32 -->
<g id="node32" class="node"><title>Node32</title>
<g id="a_node32"><a xlink:href="_ogre_g_l3_plus_texture_buffer_8h.html" target="_top" xlink:title="OgreGL3PlusTextureBuffer.h">
<polygon fill="none" stroke="black" points="1895,-179.5 1895,-198.5 2038,-198.5 2038,-179.5 1895,-179.5"/>
<text text-anchor="middle" x="1966.5" y="-186.5" font-family="Helvetica,sans-Serif" font-size="10.00">OgreGL3PlusTextureBuffer.h</text>
</a>
</g>
</g>
<!-- Node31&#45;&gt;Node32 -->
<g id="edge41" class="edge"><title>Node31&#45;&gt;Node32</title>
<path fill="none" stroke="midnightblue" d="M1954.43,-225.897C1957.66,-216.297 1961.19,-205.805 1963.59,-198.658"/>
<polygon fill="midnightblue" stroke="midnightblue" points="1951.11,-224.805 1951.24,-235.399 1957.74,-227.036 1951.11,-224.805"/>
</g>
<!-- Node34 -->
<g id="node34" class="node"><title>Node34</title>
<g id="a_node34"><a xlink:href="_ogre_g_l_e_s_depth_buffer_8h.html" target="_top" xlink:title="OgreGLESDepthBuffer.h">
<polygon fill="none" stroke="black" points="2056,-179.5 2056,-198.5 2181,-198.5 2181,-179.5 2056,-179.5"/>
<text text-anchor="middle" x="2118.5" y="-186.5" font-family="Helvetica,sans-Serif" font-size="10.00">OgreGLESDepthBuffer.h</text>
</a>
</g>
</g>
<!-- Node33&#45;&gt;Node34 -->
<g id="edge43" class="edge"><title>Node33&#45;&gt;Node34</title>
<path fill="none" stroke="midnightblue" d="M2116.44,-230.817C2116.99,-219.996 2117.65,-206.898 2118.07,-198.509"/>
<polygon fill="midnightblue" stroke="midnightblue" points="2112.94,-230.812 2115.93,-240.975 2119.93,-231.164 2112.94,-230.812"/>
</g>
<!-- Node36 -->
<g id="node36" class="node"><title>Node36</title>
<g id="a_node36"><a xlink:href="_ogre_g_l_e_s_render_texture_8h.html" target="_top" xlink:title="OgreGLESRenderTexture.h">
<polygon fill="none" stroke="black" points="2199,-179.5 2199,-198.5 2336,-198.5 2336,-179.5 2199,-179.5"/>
<text text-anchor="middle" x="2267.5" y="-186.5" font-family="Helvetica,sans-Serif" font-size="10.00">OgreGLESRenderTexture.h</text>
</a>
</g>
</g>
<!-- Node35&#45;&gt;Node36 -->
<g id="edge45" class="edge"><title>Node35&#45;&gt;Node36</title>
<path fill="none" stroke="midnightblue" d="M2267.5,-230.817C2267.5,-219.996 2267.5,-206.898 2267.5,-198.509"/>
<polygon fill="midnightblue" stroke="midnightblue" points="2264,-230.975 2267.5,-240.975 2271,-230.975 2264,-230.975"/>
</g>
<!-- Node41 -->
<g id="node41" class="node"><title>Node41</title>
<g id="a_node41"><a xlink:href="_ogre_g_l_e_s_texture_manager_8h.html" target="_top" xlink:title="OgreGLESTextureManager.h">
<polygon fill="none" stroke="black" points="2354,-179.5 2354,-198.5 2497,-198.5 2497,-179.5 2354,-179.5"/>
<text text-anchor="middle" x="2425.5" y="-186.5" font-family="Helvetica,sans-Serif" font-size="10.00">OgreGLESTextureManager.h</text>
</a>
</g>
</g>
<!-- Node35&#45;&gt;Node41 -->
<g id="edge51" class="edge"><title>Node35&#45;&gt;Node41</title>
<path fill="none" stroke="midnightblue" d="M2299.54,-237.433C2330.25,-225.868 2375.82,-208.708 2402.9,-198.509"/>
<polygon fill="midnightblue" stroke="midnightblue" points="2298.26,-234.175 2290.14,-240.975 2300.73,-240.726 2298.26,-234.175"/>
</g>
<!-- Node37 -->
<g id="node37" class="node"><title>Node37</title>
<g id="a_node37"><a xlink:href="_ogre_g_l_e_s_frame_buffer_object_8h.html" target="_top" xlink:title="OgreGLESFrameBufferObject.h">
<polygon fill="none" stroke="black" points="2084,-123.5 2084,-142.5 2239,-142.5 2239,-123.5 2084,-123.5"/>
<text text-anchor="middle" x="2161.5" y="-130.5" font-family="Helvetica,sans-Serif" font-size="10.00">OgreGLESFrameBufferObject.h</text>
</a>
</g>
</g>
<!-- Node36&#45;&gt;Node37 -->
<g id="edge46" class="edge"><title>Node36&#45;&gt;Node37</title>
<path fill="none" stroke="midnightblue" d="M2241.44,-174.726C2221.82,-164.727 2195.47,-151.307 2178.49,-142.655"/>
<polygon fill="midnightblue" stroke="midnightblue" points="2239.97,-177.903 2250.47,-179.324 2243.15,-171.666 2239.97,-177.903"/>
</g>
<!-- Node39 -->
<g id="node39" class="node"><title>Node39</title>
<g id="a_node39"><a xlink:href="_ogre_g_l_e_s_f_b_o_render_texture_8h.html" target="_top" xlink:title="OgreGLESFBORenderTexture.h">
<polygon fill="none" stroke="black" points="2189,-62 2189,-81 2346,-81 2346,-62 2189,-62"/>
<text text-anchor="middle" x="2267.5" y="-69" font-family="Helvetica,sans-Serif" font-size="10.00">OgreGLESFBORenderTexture.h</text>
</a>
</g>
</g>
<!-- Node36&#45;&gt;Node39 -->
<g id="edge49" class="edge"><title>Node36&#45;&gt;Node39</title>
<path fill="none" stroke="midnightblue" d="M2267.5,-169.164C2267.5,-143.865 2267.5,-99.9353 2267.5,-81.282"/>
<polygon fill="midnightblue" stroke="midnightblue" points="2264,-169.319 2267.5,-179.319 2271,-169.319 2264,-169.319"/>
</g>
<!-- Node40 -->
<g id="node40" class="node"><title>Node40</title>
<g id="a_node40"><a xlink:href="_ogre_g_l_e_s_p_b_render_texture_8h.html" target="_top" xlink:title="OgreGLESPBRenderTexture.h">
<polygon fill="none" stroke="black" points="2295.5,-123.5 2295.5,-142.5 2445.5,-142.5 2445.5,-123.5 2295.5,-123.5"/>
<text text-anchor="middle" x="2370.5" y="-130.5" font-family="Helvetica,sans-Serif" font-size="10.00">OgreGLESPBRenderTexture.h</text>
</a>
</g>
</g>
<!-- Node36&#45;&gt;Node40 -->
<g id="edge50" class="edge"><title>Node36&#45;&gt;Node40</title>
<path fill="none" stroke="midnightblue" d="M2293.08,-174.59C2312.12,-164.605 2337.56,-151.267 2353.99,-142.655"/>
<polygon fill="midnightblue" stroke="midnightblue" points="2291.28,-171.581 2284.05,-179.324 2294.53,-177.78 2291.28,-171.581"/>
</g>
<!-- Node38 -->
<g id="node38" class="node"><title>Node38</title>
<g id="a_node38"><a xlink:href="_ogre_g_l_e_s_f_b_o_multi_render_target_8h.html" target="_top" xlink:title="OgreGLESFBOMultiRenderTarget.h">
<polygon fill="none" stroke="black" points="1998,-62 1998,-81 2171,-81 2171,-62 1998,-62"/>
<text text-anchor="middle" x="2084.5" y="-69" font-family="Helvetica,sans-Serif" font-size="10.00">OgreGLESFBOMultiRenderTarget.h</text>
</a>
</g>
</g>
<!-- Node37&#45;&gt;Node38 -->
<g id="edge47" class="edge"><title>Node37&#45;&gt;Node38</title>
<path fill="none" stroke="midnightblue" d="M2142.47,-117.294C2127.7,-105.88 2107.74,-90.4577 2095.51,-81.0091"/>
<polygon fill="midnightblue" stroke="midnightblue" points="2140.41,-120.13 2150.47,-123.475 2144.69,-114.591 2140.41,-120.13"/>
</g>
<!-- Node37&#45;&gt;Node39 -->
<g id="edge48" class="edge"><title>Node37&#45;&gt;Node39</title>
<path fill="none" stroke="midnightblue" d="M2185.45,-118.556C2205.96,-107.042 2234.88,-90.8109 2252.34,-81.0091"/>
<polygon fill="midnightblue" stroke="midnightblue" points="2183.69,-115.528 2176.69,-123.475 2187.12,-121.632 2183.69,-115.528"/>
</g>
<!-- Node43 -->
<g id="node43" class="node"><title>Node43</title>
<g id="a_node43"><a xlink:href="_ogre_g_l_e_s2_render_texture_8h.html" target="_top" xlink:title="OgreGLES2RenderTexture.h">
<polygon fill="none" stroke="black" points="2515.5,-179.5 2515.5,-198.5 2657.5,-198.5 2657.5,-179.5 2515.5,-179.5"/>
<text text-anchor="middle" x="2586.5" y="-186.5" font-family="Helvetica,sans-Serif" font-size="10.00">OgreGLES2RenderTexture.h</text>
</a>
</g>
</g>
<!-- Node42&#45;&gt;Node43 -->
<g id="edge53" class="edge"><title>Node42&#45;&gt;Node43</title>
<path fill="none" stroke="midnightblue" d="M2511.93,-235.744C2530.66,-224.25 2556.79,-208.223 2572.63,-198.509"/>
<polygon fill="midnightblue" stroke="midnightblue" points="2510.09,-232.763 2503.4,-240.975 2513.75,-238.73 2510.09,-232.763"/>
</g>
<!-- Node47 -->
<g id="node47" class="node"><title>Node47</title>
<g id="a_node47"><a xlink:href="_ogre_g_l_e_s2_texture_manager_8h.html" target="_top" xlink:title="OgreGLES2TextureManager.h">
<polygon fill="none" stroke="black" points="2675.5,-179.5 2675.5,-198.5 2823.5,-198.5 2823.5,-179.5 2675.5,-179.5"/>
<text text-anchor="middle" x="2749.5" y="-186.5" font-family="Helvetica,sans-Serif" font-size="10.00">OgreGLES2TextureManager.h</text>
</a>
</g>
</g>
<!-- Node42&#45;&gt;Node47 -->
<g id="edge58" class="edge"><title>Node42&#45;&gt;Node47</title>
<path fill="none" stroke="midnightblue" d="M2536.75,-238.686C2587.2,-227.141 2666.11,-209.084 2712.32,-198.509"/>
<polygon fill="midnightblue" stroke="midnightblue" points="2535.72,-235.332 2526.75,-240.975 2537.28,-242.156 2535.72,-235.332"/>
</g>
<!-- Node44 -->
<g id="node44" class="node"><title>Node44</title>
<g id="a_node44"><a xlink:href="_ogre_g_l_e_s2_frame_buffer_object_8h.html" target="_top" xlink:title="OgreGLES2FrameBufferObject.h">
<polygon fill="none" stroke="black" points="2484.5,-123.5 2484.5,-142.5 2644.5,-142.5 2644.5,-123.5 2484.5,-123.5"/>
<text text-anchor="middle" x="2564.5" y="-130.5" font-family="Helvetica,sans-Serif" font-size="10.00">OgreGLES2FrameBufferObject.h</text>
</a>
</g>
</g>
<!-- Node43&#45;&gt;Node44 -->
<g id="edge54" class="edge"><title>Node43&#45;&gt;Node44</title>
<path fill="none" stroke="midnightblue" d="M2579.04,-169.69C2575.33,-160.589 2571.02,-150.014 2568.07,-142.751"/>
<polygon fill="midnightblue" stroke="midnightblue" points="2575.85,-171.143 2582.87,-179.083 2582.34,-168.502 2575.85,-171.143"/>
</g>
<!-- Node46 -->
<g id="node46" class="node"><title>Node46</title>
<g id="a_node46"><a xlink:href="_ogre_g_l_e_s2_f_b_o_render_texture_8h.html" target="_top" xlink:title="OgreGLES2FBORenderTexture.h">
<polygon fill="none" stroke="black" points="2591.5,-62 2591.5,-81 2753.5,-81 2753.5,-62 2591.5,-62"/>
<text text-anchor="middle" x="2672.5" y="-69" font-family="Helvetica,sans-Serif" font-size="10.00">OgreGLES2FBORenderTexture.h</text>
</a>
</g>
</g>
<!-- Node43&#45;&gt;Node46 -->
<g id="edge57" class="edge"><title>Node43&#45;&gt;Node46</title>
<path fill="none" stroke="midnightblue" d="M2615.32,-174.708C2628.73,-167.168 2643.82,-156.516 2653.5,-143 2667.22,-123.828 2671.04,-95.299 2672.09,-81.1305"/>
<polygon fill="midnightblue" stroke="midnightblue" points="2613.59,-171.661 2606.38,-179.429 2616.86,-177.85 2613.59,-171.661"/>
</g>
<!-- Node45 -->
<g id="node45" class="node"><title>Node45</title>
<g id="a_node45"><a xlink:href="_ogre_g_l_e_s2_f_b_o_multi_render_target_8h.html" target="_top" xlink:title="OgreGLES2FBOMultiRenderTarget.h">
<polygon fill="none" stroke="black" points="2395.5,-62 2395.5,-81 2573.5,-81 2573.5,-62 2395.5,-62"/>
<text text-anchor="middle" x="2484.5" y="-69" font-family="Helvetica,sans-Serif" font-size="10.00">OgreGLES2FBOMultiRenderTarget.h</text>
</a>
</g>
</g>
<!-- Node44&#45;&gt;Node45 -->
<g id="edge55" class="edge"><title>Node44&#45;&gt;Node45</title>
<path fill="none" stroke="midnightblue" d="M2544.73,-117.294C2529.38,-105.88 2508.64,-90.4577 2495.94,-81.0091"/>
<polygon fill="midnightblue" stroke="midnightblue" points="2542.93,-120.316 2553.04,-123.475 2547.1,-114.699 2542.93,-120.316"/>
</g>
<!-- Node44&#45;&gt;Node46 -->
<g id="edge56" class="edge"><title>Node44&#45;&gt;Node46</title>
<path fill="none" stroke="midnightblue" d="M2588.9,-118.556C2609.8,-107.042 2639.26,-90.8109 2657.05,-81.0091"/>
<polygon fill="midnightblue" stroke="midnightblue" points="2587.04,-115.584 2579.97,-123.475 2590.42,-121.715 2587.04,-115.584"/>
</g>
</g>
</svg>
