<?xml version="1.0" encoding="UTF-8" standalone="no"?>
<!DOCTYPE svg PUBLIC "-//W3C//DTD SVG 1.1//EN"
 "http://www.w3.org/Graphics/SVG/1.1/DTD/svg11.dtd">
<!-- Generated by graphviz version 2.38.0 (20140413.2041)
 -->
<!-- Title: OgreD3D9StereoDriverImpl.h Pages: 1 -->
<svg width="336pt" height="84pt"
 viewBox="0.00 0.00 336.00 84.00" xmlns="http://www.w3.org/2000/svg" xmlns:xlink="http://www.w3.org/1999/xlink">
<g id="graph0" class="graph" transform="scale(1 1) rotate(0) translate(4 80)">
<title>OgreD3D9StereoDriverImpl.h</title>
<!-- Node1 -->
<g id="node1" class="node"><title>Node1</title>
<polygon fill="#bfbfbf" stroke="black" points="88,-56.5 88,-75.5 233,-75.5 233,-56.5 88,-56.5"/>
<text text-anchor="middle" x="160.5" y="-63.5" font-family="Helvetica,sans-Serif" font-size="10.00">OgreD3D9StereoDriverImpl.h</text>
</g>
<!-- Node2 -->
<g id="node2" class="node"><title>Node2</title>
<g id="a_node2"><a xlink:href="_ogre_d3_d9_stereo_driver_a_m_d_8h.html" target="_top" xlink:title="OgreD3D9StereoDriverAMD.h">
<polygon fill="none" stroke="black" points="0,-0.5 0,-19.5 149,-19.5 149,-0.5 0,-0.5"/>
<text text-anchor="middle" x="74.5" y="-7.5" font-family="Helvetica,sans-Serif" font-size="10.00">OgreD3D9StereoDriverAMD.h</text>
</a>
</g>
</g>
<!-- Node1&#45;&gt;Node2 -->
<g id="edge1" class="edge"><title>Node1&#45;&gt;Node2</title>
<path fill="none" stroke="midnightblue" d="M138.045,-50.9005C122.276,-40.9986 101.686,-28.0705 88.2831,-19.6545"/>
<polygon fill="midnightblue" stroke="midnightblue" points="136.352,-53.9704 146.683,-56.324 140.075,-48.0421 136.352,-53.9704"/>
</g>
<!-- Node3 -->
<g id="node3" class="node"><title>Node3</title>
<g id="a_node3"><a xlink:href="_ogre_d3_d9_stereo_driver_n_v_i_d_i_a_8h.html" target="_top" xlink:title="OgreD3D9StereoDriverNVIDIA.h">
<polygon fill="none" stroke="black" points="167,-0.5 167,-19.5 328,-19.5 328,-0.5 167,-0.5"/>
<text text-anchor="middle" x="247.5" y="-7.5" font-family="Helvetica,sans-Serif" font-size="10.00">OgreD3D9StereoDriverNVIDIA.h</text>
</a>
</g>
</g>
<!-- Node1&#45;&gt;Node3 -->
<g id="edge2" class="edge"><title>Node1&#45;&gt;Node3</title>
<path fill="none" stroke="midnightblue" d="M183.216,-50.9005C199.169,-40.9986 219.997,-28.0705 233.557,-19.6545"/>
<polygon fill="midnightblue" stroke="midnightblue" points="181.129,-48.0765 174.478,-56.324 184.82,-54.024 181.129,-48.0765"/>
</g>
</g>
</svg>
