<?xml version="1.0" encoding="UTF-8" standalone="no"?>
<!DOCTYPE svg PUBLIC "-//W3C//DTD SVG 1.1//EN"
 "http://www.w3.org/Graphics/SVG/1.1/DTD/svg11.dtd">
<!-- Generated by graphviz version 2.38.0 (20140413.2041)
 -->
<!-- Title: OgreIdString.h Pages: 1 -->
<svg width="551pt" height="84pt"
 viewBox="0.00 0.00 550.50 84.00" xmlns="http://www.w3.org/2000/svg" xmlns:xlink="http://www.w3.org/1999/xlink">
<g id="graph0" class="graph" transform="scale(1 1) rotate(0) translate(4 80)">
<title>OgreIdString.h</title>
<!-- Node1 -->
<g id="node1" class="node"><title>Node1</title>
<polygon fill="#bfbfbf" stroke="black" points="282.5,-56.5 282.5,-75.5 362.5,-75.5 362.5,-56.5 282.5,-56.5"/>
<text text-anchor="middle" x="322.5" y="-63.5" font-family="Helvetica,sans-Serif" font-size="10.00">OgreIdString.h</text>
</g>
<!-- Node2 -->
<g id="node2" class="node"><title>Node2</title>
<polygon fill="none" stroke="#bfbfbf" points="0,-0.5 0,-19.5 113,-19.5 113,-0.5 0,-0.5"/>
<text text-anchor="middle" x="56.5" y="-7.5" font-family="Helvetica,sans-Serif" font-size="10.00">Hash/MurmurHash3.h</text>
</g>
<!-- Node1&#45;&gt;Node2 -->
<g id="edge1" class="edge"><title>Node1&#45;&gt;Node2</title>
<path fill="none" stroke="midnightblue" d="M282.389,-56.8572C235.991,-47.438 159.468,-31.9033 108.529,-21.5622"/>
<polygon fill="midnightblue" stroke="midnightblue" points="109.195,-18.1261 98.6984,-19.5666 107.802,-24.9862 109.195,-18.1261"/>
</g>
<!-- Node3 -->
<g id="node3" class="node"><title>Node3</title>
<polygon fill="none" stroke="#bfbfbf" points="131,-0.5 131,-19.5 214,-19.5 214,-0.5 131,-0.5"/>
<text text-anchor="middle" x="172.5" y="-7.5" font-family="Helvetica,sans-Serif" font-size="10.00">OgrePlatform.h</text>
</g>
<!-- Node1&#45;&gt;Node3 -->
<g id="edge2" class="edge"><title>Node1&#45;&gt;Node3</title>
<path fill="none" stroke="midnightblue" d="M298.732,-56.4435C273.607,-47.3986 233.789,-33.064 205.6,-22.9158"/>
<polygon fill="midnightblue" stroke="midnightblue" points="206.751,-19.6106 196.157,-19.5164 204.38,-26.1968 206.751,-19.6106"/>
</g>
<!-- Node4 -->
<g id="node4" class="node"><title>Node4</title>
<polygon fill="none" stroke="#bfbfbf" points="232,-0.5 232,-19.5 281,-19.5 281,-0.5 232,-0.5"/>
<text text-anchor="middle" x="256.5" y="-7.5" font-family="Helvetica,sans-Serif" font-size="10.00">stdint.h</text>
</g>
<!-- Node1&#45;&gt;Node4 -->
<g id="edge3" class="edge"><title>Node1&#45;&gt;Node4</title>
<path fill="none" stroke="midnightblue" d="M311.896,-56.324C302.044,-48.2631 287.149,-36.0765 275.285,-26.3695"/>
<polygon fill="midnightblue" stroke="midnightblue" points="277.253,-23.4575 267.297,-19.8339 272.82,-28.8752 277.253,-23.4575"/>
</g>
<!-- Node5 -->
<g id="node5" class="node"><title>Node5</title>
<polygon fill="none" stroke="#bfbfbf" points="299.5,-0.5 299.5,-19.5 345.5,-19.5 345.5,-0.5 299.5,-0.5"/>
<text text-anchor="middle" x="322.5" y="-7.5" font-family="Helvetica,sans-Serif" font-size="10.00">stdio.h</text>
</g>
<!-- Node1&#45;&gt;Node5 -->
<g id="edge4" class="edge"><title>Node1&#45;&gt;Node5</title>
<path fill="none" stroke="midnightblue" d="M322.5,-56.083C322.5,-49.0059 322.5,-38.8611 322.5,-29.9865"/>
<polygon fill="midnightblue" stroke="midnightblue" points="326,-29.751 322.5,-19.7511 319,-29.7511 326,-29.751"/>
</g>
<!-- Node6 -->
<g id="node6" class="node"><title>Node6</title>
<polygon fill="none" stroke="#bfbfbf" points="364,-0.5 364,-19.5 413,-19.5 413,-0.5 364,-0.5"/>
<text text-anchor="middle" x="388.5" y="-7.5" font-family="Helvetica,sans-Serif" font-size="10.00">string.h</text>
</g>
<!-- Node1&#45;&gt;Node6 -->
<g id="edge5" class="edge"><title>Node1&#45;&gt;Node6</title>
<path fill="none" stroke="midnightblue" d="M333.104,-56.324C342.956,-48.2631 357.851,-36.0765 369.715,-26.3695"/>
<polygon fill="midnightblue" stroke="midnightblue" points="372.18,-28.8752 377.703,-19.8339 367.747,-23.4575 372.18,-28.8752"/>
</g>
<!-- Node7 -->
<g id="node7" class="node"><title>Node7</title>
<polygon fill="none" stroke="#bfbfbf" points="431,-0.5 431,-19.5 472,-19.5 472,-0.5 431,-0.5"/>
<text text-anchor="middle" x="451.5" y="-7.5" font-family="Helvetica,sans-Serif" font-size="10.00">string</text>
</g>
<!-- Node1&#45;&gt;Node7 -->
<g id="edge6" class="edge"><title>Node1&#45;&gt;Node7</title>
<path fill="none" stroke="midnightblue" d="M342.94,-56.4435C364.17,-47.5566 397.599,-33.5632 421.755,-23.4514"/>
<polygon fill="midnightblue" stroke="midnightblue" points="423.282,-26.6064 431.155,-19.5164 420.579,-20.1493 423.282,-26.6064"/>
</g>
<!-- Node8 -->
<g id="node8" class="node"><title>Node8</title>
<polygon fill="none" stroke="#bfbfbf" points="490.5,-0.5 490.5,-19.5 542.5,-19.5 542.5,-0.5 490.5,-0.5"/>
<text text-anchor="middle" x="516.5" y="-7.5" font-family="Helvetica,sans-Serif" font-size="10.00">assert.h</text>
</g>
<!-- Node1&#45;&gt;Node8 -->
<g id="edge7" class="edge"><title>Node1&#45;&gt;Node8</title>
<path fill="none" stroke="midnightblue" d="M353.24,-56.4435C387.811,-46.8205 443.893,-31.2102 480.488,-21.0239"/>
<polygon fill="midnightblue" stroke="midnightblue" points="481.564,-24.3576 490.259,-18.3042 479.687,-17.614 481.564,-24.3576"/>
</g>
</g>
</svg>
