<?xml version="1.0" encoding="UTF-8" standalone="no"?>
<!DOCTYPE svg PUBLIC "-//W3C//DTD SVG 1.1//EN"
 "http://www.w3.org/Graphics/SVG/1.1/DTD/svg11.dtd">
<!-- Generated by graphviz version 2.38.0 (20140413.2041)
 -->
<!-- Title: OgreResourceGroupManager.h Pages: 1 -->
<svg width="2809pt" height="364pt"
 viewBox="0.00 0.00 2808.50 364.00" xmlns="http://www.w3.org/2000/svg" xmlns:xlink="http://www.w3.org/1999/xlink">
<g id="graph0" class="graph" transform="scale(1 1) rotate(0) translate(4 360)">
<title>OgreResourceGroupManager.h</title>
<!-- Node1 -->
<g id="node1" class="node"><title>Node1</title>
<polygon fill="#bfbfbf" stroke="black" points="1933.5,-336.5 1933.5,-355.5 2085.5,-355.5 2085.5,-336.5 1933.5,-336.5"/>
<text text-anchor="middle" x="2009.5" y="-343.5" font-family="Helvetica,sans-Serif" font-size="10.00">OgreResourceGroupManager.h</text>
</g>
<!-- Node2 -->
<g id="node2" class="node"><title>Node2</title>
<g id="a_node2"><a xlink:href="_ogre_prerequisites_8h.html" target="_top" xlink:title="OgrePrerequisites.h">
<polygon fill="none" stroke="black" points="1658,-112.5 1658,-131.5 1761,-131.5 1761,-112.5 1658,-112.5"/>
<text text-anchor="middle" x="1709.5" y="-119.5" font-family="Helvetica,sans-Serif" font-size="10.00">OgrePrerequisites.h</text>
</a>
</g>
</g>
<!-- Node1&#45;&gt;Node2 -->
<g id="edge1" class="edge"><title>Node1&#45;&gt;Node2</title>
<path fill="none" stroke="midnightblue" d="M1933.43,-340.606C1810.94,-331.727 1578.78,-306.846 1530.5,-244 1489.04,-190.031 1596.26,-151.783 1662.24,-134.08"/>
<polygon fill="midnightblue" stroke="midnightblue" points="1663.26,-137.432 1672.05,-131.517 1661.49,-130.659 1663.26,-137.432"/>
</g>
<!-- Node10 -->
<g id="node10" class="node"><title>Node10</title>
<polygon fill="none" stroke="#bfbfbf" points="0,-0.5 0,-19.5 41,-19.5 41,-0.5 0,-0.5"/>
<text text-anchor="middle" x="20.5" y="-7.5" font-family="Helvetica,sans-Serif" font-size="10.00">ctime</text>
</g>
<!-- Node1&#45;&gt;Node10 -->
<g id="edge73" class="edge"><title>Node1&#45;&gt;Node10</title>
<path fill="none" stroke="midnightblue" d="M1933.28,-342.994C1642.55,-334.847 619.5,-301.457 619.5,-235 619.5,-235 619.5,-235 619.5,-121 619.5,4.41112 196.006,-47.1461 51.0198,-19.6344"/>
<polygon fill="midnightblue" stroke="midnightblue" points="51.5818,-16.1757 41.0718,-17.5134 50.1221,-23.0218 51.5818,-16.1757"/>
</g>
<!-- Node37 -->
<g id="node37" class="node"><title>Node37</title>
<g id="a_node37"><a xlink:href="_ogre_header_prefix_8h.html" target="_top" xlink:title="OgreHeaderPrefix.h">
<polygon fill="none" stroke="black" points="2423,-0.5 2423,-19.5 2526,-19.5 2526,-0.5 2423,-0.5"/>
<text text-anchor="middle" x="2474.5" y="-7.5" font-family="Helvetica,sans-Serif" font-size="10.00">OgreHeaderPrefix.h</text>
</a>
</g>
</g>
<!-- Node1&#45;&gt;Node37 -->
<g id="edge74" class="edge"><title>Node1&#45;&gt;Node37</title>
<path fill="none" stroke="midnightblue" d="M2085.67,-345.191C2178.39,-343.697 2338.98,-335.518 2471.5,-300 2538.93,-281.927 2614.5,-304.813 2614.5,-235 2614.5,-235 2614.5,-235 2614.5,-121 2614.5,-69.3473 2554.85,-38.2582 2513.42,-22.8952"/>
<polygon fill="midnightblue" stroke="midnightblue" points="2514.44,-19.5443 2503.85,-19.501 2512.1,-26.1418 2514.44,-19.5443"/>
</g>
<!-- Node38 -->
<g id="node38" class="node"><title>Node38</title>
<g id="a_node38"><a xlink:href="_ogre_header_suffix_8h.html" target="_top" xlink:title="OgreHeaderSuffix.h">
<polygon fill="none" stroke="black" points="2302,-0.5 2302,-19.5 2405,-19.5 2405,-0.5 2302,-0.5"/>
<text text-anchor="middle" x="2353.5" y="-7.5" font-family="Helvetica,sans-Serif" font-size="10.00">OgreHeaderSuffix.h</text>
</a>
</g>
</g>
<!-- Node1&#45;&gt;Node38 -->
<g id="edge75" class="edge"><title>Node1&#45;&gt;Node38</title>
<path fill="none" stroke="midnightblue" d="M2024.86,-336.31C2051.27,-320.093 2102.5,-282.515 2102.5,-235 2102.5,-235 2102.5,-235 2102.5,-121 2102.5,-90.9022 2099.25,-76.2723 2121.5,-56 2127.87,-50.1926 2225.93,-32.6053 2292.5,-21.2149"/>
<polygon fill="midnightblue" stroke="midnightblue" points="2293.22,-24.6432 2302.49,-19.5122 2292.05,-17.7428 2293.22,-24.6432"/>
</g>
<!-- Node39 -->
<g id="node39" class="node"><title>Node39</title>
<g id="a_node39"><a xlink:href="_ogre_singleton_8h.html" target="_top" xlink:title="OgreSingleton.h">
<polygon fill="none" stroke="black" points="1539.5,-224.5 1539.5,-243.5 1625.5,-243.5 1625.5,-224.5 1539.5,-224.5"/>
<text text-anchor="middle" x="1582.5" y="-231.5" font-family="Helvetica,sans-Serif" font-size="10.00">OgreSingleton.h</text>
</a>
</g>
</g>
<!-- Node1&#45;&gt;Node39 -->
<g id="edge39" class="edge"><title>Node1&#45;&gt;Node39</title>
<path fill="none" stroke="midnightblue" d="M1970.15,-336.482C1930.68,-327.804 1868.19,-313.709 1814.5,-300 1746.11,-282.539 1667.08,-259.857 1621.15,-246.422"/>
<polygon fill="midnightblue" stroke="midnightblue" points="1621.9,-242.994 1611.32,-243.539 1619.93,-249.711 1621.9,-242.994"/>
</g>
<!-- Node40 -->
<g id="node40" class="node"><title>Node40</title>
<g id="a_node40"><a xlink:href="_ogre_data_stream_8h.html" target="_top" xlink:title="OgreDataStream.h">
<polygon fill="none" stroke="black" points="1654.5,-224.5 1654.5,-243.5 1752.5,-243.5 1752.5,-224.5 1654.5,-224.5"/>
<text text-anchor="middle" x="1703.5" y="-231.5" font-family="Helvetica,sans-Serif" font-size="10.00">OgreDataStream.h</text>
</a>
</g>
</g>
<!-- Node1&#45;&gt;Node40 -->
<g id="edge41" class="edge"><title>Node1&#45;&gt;Node40</title>
<path fill="none" stroke="midnightblue" d="M1980.96,-336.499C1952.34,-327.834 1907.11,-313.749 1868.5,-300 1820.79,-283.011 1766.27,-261.02 1733.39,-247.468"/>
<polygon fill="midnightblue" stroke="midnightblue" points="1734.49,-244.135 1723.91,-243.548 1731.82,-250.604 1734.49,-244.135"/>
</g>
<!-- Node43 -->
<g id="node43" class="node"><title>Node43</title>
<g id="a_node43"><a xlink:href="_ogre_archive_8h.html" target="_top" xlink:title="OgreArchive.h">
<polygon fill="none" stroke="black" points="1878,-280.5 1878,-299.5 1957,-299.5 1957,-280.5 1878,-280.5"/>
<text text-anchor="middle" x="1917.5" y="-287.5" font-family="Helvetica,sans-Serif" font-size="10.00">OgreArchive.h</text>
</a>
</g>
</g>
<!-- Node1&#45;&gt;Node43 -->
<g id="edge48" class="edge"><title>Node1&#45;&gt;Node43</title>
<path fill="none" stroke="midnightblue" d="M1994.72,-336.324C1980.23,-327.822 1957.93,-314.729 1941.01,-304.797"/>
<polygon fill="midnightblue" stroke="midnightblue" points="1942.64,-301.698 1932.24,-299.655 1939.1,-307.735 1942.64,-301.698"/>
</g>
<!-- Node46 -->
<g id="node46" class="node"><title>Node46</title>
<g id="a_node46"><a xlink:href="_ogre_iterator_wrappers_8h.html" target="_top" xlink:title="OgreIteratorWrappers.h">
<polygon fill="none" stroke="black" points="2209,-168.5 2209,-187.5 2328,-187.5 2328,-168.5 2209,-168.5"/>
<text text-anchor="middle" x="2268.5" y="-175.5" font-family="Helvetica,sans-Serif" font-size="10.00">OgreIteratorWrappers.h</text>
</a>
</g>
</g>
<!-- Node1&#45;&gt;Node46 -->
<g id="edge61" class="edge"><title>Node1&#45;&gt;Node46</title>
<path fill="none" stroke="midnightblue" d="M2035.08,-336.489C2057.37,-328.558 2090.15,-315.623 2116.5,-300 2170.14,-268.196 2225.58,-219.223 2252.24,-194.465"/>
<polygon fill="midnightblue" stroke="midnightblue" points="2254.66,-196.998 2259.56,-187.605 2249.87,-191.891 2254.66,-196.998"/>
</g>
<!-- Node49 -->
<g id="node49" class="node"><title>Node49</title>
<g id="a_node49"><a xlink:href="_ogre_common_8h.html" target="_top" xlink:title="OgreCommon.h">
<polygon fill="none" stroke="black" points="2462.5,-56.5 2462.5,-75.5 2548.5,-75.5 2548.5,-56.5 2462.5,-56.5"/>
<text text-anchor="middle" x="2505.5" y="-63.5" font-family="Helvetica,sans-Serif" font-size="10.00">OgreCommon.h</text>
</a>
</g>
</g>
<!-- Node1&#45;&gt;Node49 -->
<g id="edge69" class="edge"><title>Node1&#45;&gt;Node49</title>
<path fill="none" stroke="midnightblue" d="M2085.59,-343.906C2225.74,-339.817 2510.5,-320.934 2510.5,-235 2510.5,-235 2510.5,-235 2510.5,-177 2510.5,-144.915 2508.35,-107.62 2506.87,-85.7371"/>
<polygon fill="midnightblue" stroke="midnightblue" points="2510.35,-85.2813 2506.15,-75.5518 2503.36,-85.7729 2510.35,-85.2813"/>
</g>
<!-- Node50 -->
<g id="node50" class="node"><title>Node50</title>
<g id="a_node50"><a xlink:href="_ogre_thread_headers_8h.html" target="_top" xlink:title="Threading/OgreThreadHeaders.h">
<polygon fill="none" stroke="red" points="2642.5,-280.5 2642.5,-299.5 2800.5,-299.5 2800.5,-280.5 2642.5,-280.5"/>
<text text-anchor="middle" x="2721.5" y="-287.5" font-family="Helvetica,sans-Serif" font-size="10.00">Threading/OgreThreadHeaders.h</text>
</a>
</g>
</g>
<!-- Node1&#45;&gt;Node50 -->
<g id="edge72" class="edge"><title>Node1&#45;&gt;Node50</title>
<path fill="none" stroke="midnightblue" d="M2085.78,-340.044C2202.67,-332.315 2433.1,-316.555 2628.5,-300 2629.77,-299.892 2631.06,-299.782 2632.35,-299.671"/>
<polygon fill="midnightblue" stroke="midnightblue" points="2632.71,-303.153 2642.36,-298.788 2632.1,-296.18 2632.71,-303.153"/>
</g>
<!-- Node3 -->
<g id="node3" class="node"><title>Node3</title>
<g id="a_node3"><a xlink:href="_ogre_platform_8h.html" target="_top" xlink:title="OgrePlatform.h">
<polygon fill="none" stroke="black" points="1285,-56.5 1285,-75.5 1368,-75.5 1368,-56.5 1285,-56.5"/>
<text text-anchor="middle" x="1326.5" y="-63.5" font-family="Helvetica,sans-Serif" font-size="10.00">OgrePlatform.h</text>
</a>
</g>
</g>
<!-- Node2&#45;&gt;Node3 -->
<g id="edge2" class="edge"><title>Node2&#45;&gt;Node3</title>
<path fill="none" stroke="midnightblue" d="M1657.91,-114.267C1593.43,-105.766 1479.7,-90.4976 1382.5,-76 1381.04,-75.7821 1379.56,-75.5589 1378.06,-75.3316"/>
<polygon fill="midnightblue" stroke="midnightblue" points="1378.49,-71.8565 1368.07,-73.7886 1377.42,-78.7744 1378.49,-71.8565"/>
</g>
<!-- Node5 -->
<g id="node5" class="node"><title>Node5</title>
<polygon fill="none" stroke="#bfbfbf" points="152,-0.5 152,-19.5 193,-19.5 193,-0.5 152,-0.5"/>
<text text-anchor="middle" x="172.5" y="-7.5" font-family="Helvetica,sans-Serif" font-size="10.00">string</text>
</g>
<!-- Node2&#45;&gt;Node5 -->
<g id="edge4" class="edge"><title>Node2&#45;&gt;Node5</title>
<path fill="none" stroke="midnightblue" d="M1657.89,-118.129C1598.26,-113.67 1497.79,-102.621 1415.5,-76 1396.97,-70.0044 1395.36,-60.8616 1376.5,-56 1126.62,8.40119 475.311,-61.363 203.16,-19.7686"/>
<polygon fill="midnightblue" stroke="midnightblue" points="203.675,-16.3065 193.246,-18.1751 202.564,-23.2178 203.675,-16.3065"/>
</g>
<!-- Node6 -->
<g id="node6" class="node"><title>Node6</title>
<g id="a_node6"><a xlink:href="_ogre_std_headers_8h.html" target="_top" xlink:title="OgreStdHeaders.h">
<polygon fill="none" stroke="black" points="1424.5,-56.5 1424.5,-75.5 1522.5,-75.5 1522.5,-56.5 1424.5,-56.5"/>
<text text-anchor="middle" x="1473.5" y="-63.5" font-family="Helvetica,sans-Serif" font-size="10.00">OgreStdHeaders.h</text>
</a>
</g>
</g>
<!-- Node2&#45;&gt;Node6 -->
<g id="edge5" class="edge"><title>Node2&#45;&gt;Node6</title>
<path fill="none" stroke="midnightblue" d="M1672.11,-112.444C1631.11,-103.063 1565.25,-87.9926 1520.72,-77.8036"/>
<polygon fill="midnightblue" stroke="midnightblue" points="1521.25,-74.3352 1510.72,-75.5164 1519.69,-81.1588 1521.25,-74.3352"/>
</g>
<!-- Node36 -->
<g id="node36" class="node"><title>Node36</title>
<g id="a_node36"><a xlink:href="_ogre_memory_allocator_config_8h.html" target="_top" xlink:title="This file configures Ogre&#39;s memory allocators. ">
<polygon fill="none" stroke="red" points="1888.5,-56.5 1888.5,-75.5 2036.5,-75.5 2036.5,-56.5 1888.5,-56.5"/>
<text text-anchor="middle" x="1962.5" y="-63.5" font-family="Helvetica,sans-Serif" font-size="10.00">OgreMemoryAllocatorConfig.h</text>
</a>
</g>
</g>
<!-- Node2&#45;&gt;Node36 -->
<g id="edge36" class="edge"><title>Node2&#45;&gt;Node36</title>
<path fill="none" stroke="midnightblue" d="M1749.59,-112.444C1793.82,-103.004 1865.04,-87.802 1912.78,-77.6111"/>
<polygon fill="midnightblue" stroke="midnightblue" points="1913.55,-81.0268 1922.6,-75.5164 1912.09,-74.181 1913.55,-81.0268"/>
</g>
<!-- Node4 -->
<g id="node4" class="node"><title>Node4</title>
<g id="a_node4"><a xlink:href="_ogre_config_8h.html" target="_top" xlink:title="OgreConfig.h">
<polygon fill="none" stroke="red" points="59.5,-0.5 59.5,-19.5 133.5,-19.5 133.5,-0.5 59.5,-0.5"/>
<text text-anchor="middle" x="96.5" y="-7.5" font-family="Helvetica,sans-Serif" font-size="10.00">OgreConfig.h</text>
</a>
</g>
</g>
<!-- Node3&#45;&gt;Node4 -->
<g id="edge3" class="edge"><title>Node3&#45;&gt;Node4</title>
<path fill="none" stroke="midnightblue" d="M1284.99,-57.7244C1280.11,-57.0498 1275.2,-56.4513 1270.5,-56 774.494,-8.42293 642.648,-75.4441 143.561,-19.9089"/>
<polygon fill="midnightblue" stroke="midnightblue" points="143.906,-16.4256 133.577,-18.7871 143.124,-23.3819 143.906,-16.4256"/>
</g>
<!-- Node6&#45;&gt;Node5 -->
<g id="edge15" class="edge"><title>Node6&#45;&gt;Node5</title>
<path fill="none" stroke="midnightblue" d="M1424.38,-57.4403C1419.7,-56.8831 1415.01,-56.3883 1410.5,-56 1145.97,-33.2391 483.065,-63.4843 203.435,-19.8298"/>
<polygon fill="midnightblue" stroke="midnightblue" points="203.677,-16.3234 193.246,-18.1773 202.556,-23.2331 203.677,-16.3234"/>
</g>
<!-- Node7 -->
<g id="node7" class="node"><title>Node7</title>
<polygon fill="none" stroke="#bfbfbf" points="1449,-0.5 1449,-19.5 1498,-19.5 1498,-0.5 1449,-0.5"/>
<text text-anchor="middle" x="1473.5" y="-7.5" font-family="Helvetica,sans-Serif" font-size="10.00">cassert</text>
</g>
<!-- Node6&#45;&gt;Node7 -->
<g id="edge6" class="edge"><title>Node6&#45;&gt;Node7</title>
<path fill="none" stroke="midnightblue" d="M1473.5,-56.083C1473.5,-49.0059 1473.5,-38.8611 1473.5,-29.9865"/>
<polygon fill="midnightblue" stroke="midnightblue" points="1477,-29.751 1473.5,-19.7511 1470,-29.7511 1477,-29.751"/>
</g>
<!-- Node8 -->
<g id="node8" class="node"><title>Node8</title>
<polygon fill="none" stroke="#bfbfbf" points="1516,-0.5 1516,-19.5 1559,-19.5 1559,-0.5 1516,-0.5"/>
<text text-anchor="middle" x="1537.5" y="-7.5" font-family="Helvetica,sans-Serif" font-size="10.00">cstdio</text>
</g>
<!-- Node6&#45;&gt;Node8 -->
<g id="edge7" class="edge"><title>Node6&#45;&gt;Node8</title>
<path fill="none" stroke="midnightblue" d="M1483.78,-56.324C1493.34,-48.2631 1507.78,-36.0765 1519.28,-26.3695"/>
<polygon fill="midnightblue" stroke="midnightblue" points="1521.64,-28.9577 1527.03,-19.8339 1517.13,-23.6076 1521.64,-28.9577"/>
</g>
<!-- Node9 -->
<g id="node9" class="node"><title>Node9</title>
<polygon fill="none" stroke="#bfbfbf" points="1577,-0.5 1577,-19.5 1622,-19.5 1622,-0.5 1577,-0.5"/>
<text text-anchor="middle" x="1599.5" y="-7.5" font-family="Helvetica,sans-Serif" font-size="10.00">cstdlib</text>
</g>
<!-- Node6&#45;&gt;Node9 -->
<g id="edge8" class="edge"><title>Node6&#45;&gt;Node9</title>
<path fill="none" stroke="midnightblue" d="M1493.47,-56.4435C1514.11,-47.5961 1546.56,-33.6875 1570.13,-23.5865"/>
<polygon fill="midnightblue" stroke="midnightblue" points="1571.82,-26.6727 1579.63,-19.5164 1569.06,-20.2387 1571.82,-26.6727"/>
</g>
<!-- Node6&#45;&gt;Node10 -->
<g id="edge9" class="edge"><title>Node6&#45;&gt;Node10</title>
<path fill="none" stroke="midnightblue" d="M1424.2,-59.7971C1408.93,-58.3544 1392.03,-56.9304 1376.5,-56 1085.56,-38.5719 358.124,-66.1275 51.5968,-19.6253"/>
<polygon fill="midnightblue" stroke="midnightblue" points="51.738,-16.1047 41.3163,-18.012 50.6527,-23.0201 51.738,-16.1047"/>
</g>
<!-- Node11 -->
<g id="node11" class="node"><title>Node11</title>
<polygon fill="none" stroke="#bfbfbf" points="1640.5,-0.5 1640.5,-19.5 1686.5,-19.5 1686.5,-0.5 1640.5,-0.5"/>
<text text-anchor="middle" x="1663.5" y="-7.5" font-family="Helvetica,sans-Serif" font-size="10.00">cstring</text>
</g>
<!-- Node6&#45;&gt;Node11 -->
<g id="edge10" class="edge"><title>Node6&#45;&gt;Node11</title>
<path fill="none" stroke="midnightblue" d="M1503.61,-56.4435C1538.18,-46.6181 1594.71,-30.5506 1630.47,-20.3882"/>
<polygon fill="midnightblue" stroke="midnightblue" points="1631.75,-23.6636 1640.41,-17.5631 1629.83,-16.9303 1631.75,-23.6636"/>
</g>
<!-- Node12 -->
<g id="node12" class="node"><title>Node12</title>
<polygon fill="none" stroke="#bfbfbf" points="1705,-0.5 1705,-19.5 1754,-19.5 1754,-0.5 1705,-0.5"/>
<text text-anchor="middle" x="1729.5" y="-7.5" font-family="Helvetica,sans-Serif" font-size="10.00">cstdarg</text>
</g>
<!-- Node6&#45;&gt;Node12 -->
<g id="edge11" class="edge"><title>Node6&#45;&gt;Node12</title>
<path fill="none" stroke="midnightblue" d="M1519.59,-56.4764C1562.5,-48.3573 1628.45,-35.4127 1694.86,-20.0409"/>
<polygon fill="midnightblue" stroke="midnightblue" points="1695.72,-23.4355 1704.66,-17.7556 1694.13,-16.6184 1695.72,-23.4355"/>
</g>
<!-- Node13 -->
<g id="node13" class="node"><title>Node13</title>
<polygon fill="none" stroke="#bfbfbf" points="1772.5,-0.5 1772.5,-19.5 1816.5,-19.5 1816.5,-0.5 1772.5,-0.5"/>
<text text-anchor="middle" x="1794.5" y="-7.5" font-family="Helvetica,sans-Serif" font-size="10.00">cmath</text>
</g>
<!-- Node6&#45;&gt;Node13 -->
<g id="edge12" class="edge"><title>Node6&#45;&gt;Node13</title>
<path fill="none" stroke="midnightblue" d="M1522.66,-59.1677C1578.41,-52.1499 1672.14,-39.1273 1762.36,-19.7782"/>
<polygon fill="midnightblue" stroke="midnightblue" points="1763.18,-23.1822 1772.21,-17.6379 1761.69,-16.3419 1763.18,-23.1822"/>
</g>
<!-- Node14 -->
<g id="node14" class="node"><title>Node14</title>
<polygon fill="none" stroke="#bfbfbf" points="1834.5,-0.5 1834.5,-19.5 1878.5,-19.5 1878.5,-0.5 1834.5,-0.5"/>
<text text-anchor="middle" x="1856.5" y="-7.5" font-family="Helvetica,sans-Serif" font-size="10.00">vector</text>
</g>
<!-- Node6&#45;&gt;Node14 -->
<g id="edge13" class="edge"><title>Node6&#45;&gt;Node14</title>
<path fill="none" stroke="midnightblue" d="M1522.58,-61.1512C1589.04,-55.407 1711.4,-42.9461 1824.4,-19.9456"/>
<polygon fill="midnightblue" stroke="midnightblue" points="1825.17,-23.3603 1834.25,-17.9075 1823.75,-16.5054 1825.17,-23.3603"/>
</g>
<!-- Node15 -->
<g id="node15" class="node"><title>Node15</title>
<polygon fill="none" stroke="#bfbfbf" points="1897,-0.5 1897,-19.5 1932,-19.5 1932,-0.5 1897,-0.5"/>
<text text-anchor="middle" x="1914.5" y="-7.5" font-family="Helvetica,sans-Serif" font-size="10.00">map</text>
</g>
<!-- Node6&#45;&gt;Node15 -->
<g id="edge14" class="edge"><title>Node6&#45;&gt;Node15</title>
<path fill="none" stroke="midnightblue" d="M1522.8,-63.0432C1599.12,-59.2734 1750.41,-48.8484 1887.12,-19.5942"/>
<polygon fill="midnightblue" stroke="midnightblue" points="1887.91,-23.004 1896.93,-17.4552 1886.42,-16.1645 1887.91,-23.004"/>
</g>
<!-- Node16 -->
<g id="node16" class="node"><title>Node16</title>
<polygon fill="none" stroke="#bfbfbf" points="1950.5,-0.5 1950.5,-19.5 1980.5,-19.5 1980.5,-0.5 1950.5,-0.5"/>
<text text-anchor="middle" x="1965.5" y="-7.5" font-family="Helvetica,sans-Serif" font-size="10.00">set</text>
</g>
<!-- Node6&#45;&gt;Node16 -->
<g id="edge16" class="edge"><title>Node6&#45;&gt;Node16</title>
<path fill="none" stroke="midnightblue" d="M1522.53,-64.2779C1608.3,-62.1313 1790.69,-53.6276 1940.5,-20 1940.6,-19.9773 1940.7,-19.9542 1940.8,-19.9309"/>
<polygon fill="midnightblue" stroke="midnightblue" points="1941.73,-23.307 1950.34,-17.1373 1939.76,-16.5892 1941.73,-23.307"/>
</g>
<!-- Node17 -->
<g id="node17" class="node"><title>Node17</title>
<polygon fill="none" stroke="#bfbfbf" points="1999,-0.5 1999,-19.5 2028,-19.5 2028,-0.5 1999,-0.5"/>
<text text-anchor="middle" x="2013.5" y="-7.5" font-family="Helvetica,sans-Serif" font-size="10.00">list</text>
</g>
<!-- Node6&#45;&gt;Node17 -->
<g id="edge17" class="edge"><title>Node6&#45;&gt;Node17</title>
<path fill="none" stroke="midnightblue" d="M1522.55,-65.1243C1613.34,-64.4076 1813.51,-58.3924 1989.04,-19.4134"/>
<polygon fill="midnightblue" stroke="midnightblue" points="1989.99,-22.7877 1998.97,-17.1671 1988.44,-15.9602 1989.99,-22.7877"/>
</g>
<!-- Node18 -->
<g id="node18" class="node"><title>Node18</title>
<polygon fill="none" stroke="#bfbfbf" points="2046,-0.5 2046,-19.5 2089,-19.5 2089,-0.5 2046,-0.5"/>
<text text-anchor="middle" x="2067.5" y="-7.5" font-family="Helvetica,sans-Serif" font-size="10.00">deque</text>
</g>
<!-- Node6&#45;&gt;Node18 -->
<g id="edge18" class="edge"><title>Node6&#45;&gt;Node18</title>
<path fill="none" stroke="midnightblue" d="M1522.51,-64.4132C1619.16,-62.5379 1841.13,-54.6724 2036.1,-19.6577"/>
<polygon fill="midnightblue" stroke="midnightblue" points="2036.74,-23.0987 2045.95,-17.8611 2035.49,-16.2123 2036.74,-23.0987"/>
</g>
<!-- Node19 -->
<g id="node19" class="node"><title>Node19</title>
<polygon fill="none" stroke="#bfbfbf" points="2107,-0.5 2107,-19.5 2150,-19.5 2150,-0.5 2107,-0.5"/>
<text text-anchor="middle" x="2128.5" y="-7.5" font-family="Helvetica,sans-Serif" font-size="10.00">queue</text>
</g>
<!-- Node6&#45;&gt;Node19 -->
<g id="edge19" class="edge"><title>Node6&#45;&gt;Node19</title>
<path fill="none" stroke="midnightblue" d="M1522.88,-64.9538C1627.34,-64.1012 1878.33,-58.0633 2096.9,-19.676"/>
<polygon fill="midnightblue" stroke="midnightblue" points="2097.73,-23.0844 2106.96,-17.8831 2096.5,-16.1931 2097.73,-23.0844"/>
</g>
<!-- Node20 -->
<g id="node20" class="node"><title>Node20</title>
<polygon fill="none" stroke="#bfbfbf" points="2168,-0.5 2168,-19.5 2209,-19.5 2209,-0.5 2168,-0.5"/>
<text text-anchor="middle" x="2188.5" y="-7.5" font-family="Helvetica,sans-Serif" font-size="10.00">bitset</text>
</g>
<!-- Node6&#45;&gt;Node20 -->
<g id="edge20" class="edge"><title>Node6&#45;&gt;Node20</title>
<path fill="none" stroke="midnightblue" d="M1522.87,-63.206C1655.43,-58.1639 2017.94,-42.8371 2157.91,-19.5793"/>
<polygon fill="midnightblue" stroke="midnightblue" points="2158.74,-22.9866 2167.99,-17.8183 2157.54,-16.091 2158.74,-22.9866"/>
</g>
<!-- Node21 -->
<g id="node21" class="node"><title>Node21</title>
<polygon fill="none" stroke="#bfbfbf" points="2227.5,-0.5 2227.5,-19.5 2283.5,-19.5 2283.5,-0.5 2227.5,-0.5"/>
<text text-anchor="middle" x="2255.5" y="-7.5" font-family="Helvetica,sans-Serif" font-size="10.00">algorithm</text>
</g>
<!-- Node6&#45;&gt;Node21 -->
<g id="edge21" class="edge"><title>Node6&#45;&gt;Node21</title>
<path fill="none" stroke="midnightblue" d="M1522.63,-63.1347C1666.08,-57.5128 2082.68,-39.8911 2217.5,-20 2217.6,-19.9852 2217.7,-19.9702 2217.8,-19.9551"/>
<polygon fill="midnightblue" stroke="midnightblue" points="2218.16,-23.4467 2227.38,-18.2287 2216.92,-16.5576 2218.16,-23.4467"/>
</g>
<!-- Node22 -->
<g id="node22" class="node"><title>Node22</title>
<polygon fill="none" stroke="#bfbfbf" points="211,-0.5 211,-19.5 270,-19.5 270,-0.5 211,-0.5"/>
<text text-anchor="middle" x="240.5" y="-7.5" font-family="Helvetica,sans-Serif" font-size="10.00">functional</text>
</g>
<!-- Node6&#45;&gt;Node22 -->
<g id="edge22" class="edge"><title>Node6&#45;&gt;Node22</title>
<path fill="none" stroke="midnightblue" d="M1424.38,-57.4501C1419.7,-56.8909 1415.01,-56.393 1410.5,-56 912.777,-12.6596 779.969,-83.9008 280.199,-19.7771"/>
<polygon fill="midnightblue" stroke="midnightblue" points="280.569,-16.2958 270.202,-18.4827 279.67,-23.2378 280.569,-16.2958"/>
</g>
<!-- Node23 -->
<g id="node23" class="node"><title>Node23</title>
<polygon fill="none" stroke="#bfbfbf" points="288.5,-0.5 288.5,-19.5 328.5,-19.5 328.5,-0.5 288.5,-0.5"/>
<text text-anchor="middle" x="308.5" y="-7.5" font-family="Helvetica,sans-Serif" font-size="10.00">limits</text>
</g>
<!-- Node6&#45;&gt;Node23 -->
<g id="edge23" class="edge"><title>Node6&#45;&gt;Node23</title>
<path fill="none" stroke="midnightblue" d="M1424.38,-57.4583C1419.7,-56.8974 1415.01,-56.3968 1410.5,-56 938.543,-14.4945 809.819,-98.2228 338.744,-19.7012"/>
<polygon fill="midnightblue" stroke="midnightblue" points="339.056,-16.2047 328.614,-17.9967 337.895,-23.1077 339.056,-16.2047"/>
</g>
<!-- Node24 -->
<g id="node24" class="node"><title>Node24</title>
<polygon fill="none" stroke="#bfbfbf" points="346.5,-0.5 346.5,-19.5 396.5,-19.5 396.5,-0.5 346.5,-0.5"/>
<text text-anchor="middle" x="371.5" y="-7.5" font-family="Helvetica,sans-Serif" font-size="10.00">fstream</text>
</g>
<!-- Node6&#45;&gt;Node24 -->
<g id="edge24" class="edge"><title>Node6&#45;&gt;Node24</title>
<path fill="none" stroke="midnightblue" d="M1424.38,-57.4692C1419.69,-56.906 1415.01,-56.402 1410.5,-56 968.679,-16.64 849.414,-84.5511 406.803,-19.8217"/>
<polygon fill="midnightblue" stroke="midnightblue" points="407.025,-16.3165 396.621,-18.3176 406.002,-23.2414 407.025,-16.3165"/>
</g>
<!-- Node25 -->
<g id="node25" class="node"><title>Node25</title>
<polygon fill="none" stroke="#bfbfbf" points="415,-0.5 415,-19.5 460,-19.5 460,-0.5 415,-0.5"/>
<text text-anchor="middle" x="437.5" y="-7.5" font-family="Helvetica,sans-Serif" font-size="10.00">iosfwd</text>
</g>
<!-- Node6&#45;&gt;Node25 -->
<g id="edge25" class="edge"><title>Node6&#45;&gt;Node25</title>
<path fill="none" stroke="midnightblue" d="M1424.38,-57.4808C1419.69,-56.9152 1415.01,-56.4074 1410.5,-56 997.027,-18.6583 884.737,-84.041 470.239,-19.6566"/>
<polygon fill="midnightblue" stroke="midnightblue" points="470.501,-16.155 460.079,-18.062 469.415,-23.0703 470.501,-16.155"/>
</g>
<!-- Node26 -->
<g id="node26" class="node"><title>Node26</title>
<polygon fill="none" stroke="#bfbfbf" points="478.5,-0.5 478.5,-19.5 530.5,-19.5 530.5,-0.5 478.5,-0.5"/>
<text text-anchor="middle" x="504.5" y="-7.5" font-family="Helvetica,sans-Serif" font-size="10.00">sstream</text>
</g>
<!-- Node6&#45;&gt;Node26 -->
<g id="edge26" class="edge"><title>Node6&#45;&gt;Node26</title>
<path fill="none" stroke="midnightblue" d="M1424.38,-57.4954C1419.69,-56.9269 1415.01,-56.4144 1410.5,-56 1027.98,-20.8618 924.553,-75.6067 540.739,-19.8486"/>
<polygon fill="midnightblue" stroke="midnightblue" points="541.155,-16.3722 530.752,-18.3822 540.138,-23.2979 541.155,-16.3722"/>
</g>
<!-- Node27 -->
<g id="node27" class="node"><title>Node27</title>
<polygon fill="none" stroke="#bfbfbf" points="548.5,-0.5 548.5,-19.5 616.5,-19.5 616.5,-0.5 548.5,-0.5"/>
<text text-anchor="middle" x="582.5" y="-7.5" font-family="Helvetica,sans-Serif" font-size="10.00">sys/types.h</text>
</g>
<!-- Node6&#45;&gt;Node27 -->
<g id="edge27" class="edge"><title>Node6&#45;&gt;Node27</title>
<path fill="none" stroke="midnightblue" d="M1424.37,-57.517C1419.69,-56.944 1415.01,-56.4246 1410.5,-56 1066.09,-23.5778 973.736,-63.1487 626.761,-19.9403"/>
<polygon fill="midnightblue" stroke="midnightblue" points="627.043,-16.4482 616.684,-18.6711 626.168,-23.3933 627.043,-16.4482"/>
</g>
<!-- Node28 -->
<g id="node28" class="node"><title>Node28</title>
<polygon fill="none" stroke="#bfbfbf" points="634.5,-0.5 634.5,-19.5 694.5,-19.5 694.5,-0.5 634.5,-0.5"/>
<text text-anchor="middle" x="664.5" y="-7.5" font-family="Helvetica,sans-Serif" font-size="10.00">sys/stat.h</text>
</g>
<!-- Node6&#45;&gt;Node28 -->
<g id="edge28" class="edge"><title>Node6&#45;&gt;Node28</title>
<path fill="none" stroke="midnightblue" d="M1424.37,-57.5411C1419.69,-56.9631 1415.01,-56.4359 1410.5,-56 1100.7,-26.0463 1016.9,-62.7373 704.881,-19.9289"/>
<polygon fill="midnightblue" stroke="midnightblue" points="705.022,-16.4149 694.636,-18.506 704.059,-23.3484 705.022,-16.4149"/>
</g>
<!-- Node29 -->
<g id="node29" class="node"><title>Node29</title>
<polygon fill="none" stroke="#bfbfbf" points="713,-0.5 713,-19.5 764,-19.5 764,-0.5 713,-0.5"/>
<text text-anchor="middle" x="738.5" y="-7.5" font-family="Helvetica,sans-Serif" font-size="10.00">unistd.h</text>
</g>
<!-- Node6&#45;&gt;Node29 -->
<g id="edge29" class="edge"><title>Node6&#45;&gt;Node29</title>
<path fill="none" stroke="midnightblue" d="M1424.37,-57.5677C1419.69,-56.9842 1415.01,-56.4485 1410.5,-56 1131.64,-28.2525 1055.48,-62.6911 774.46,-19.8123"/>
<polygon fill="midnightblue" stroke="midnightblue" points="774.794,-16.3224 764.376,-18.2541 773.725,-23.2403 774.794,-16.3224"/>
</g>
<!-- Node30 -->
<g id="node30" class="node"><title>Node30</title>
<polygon fill="none" stroke="#bfbfbf" points="782.5,-0.5 782.5,-19.5 828.5,-19.5 828.5,-0.5 782.5,-0.5"/>
<text text-anchor="middle" x="805.5" y="-7.5" font-family="Helvetica,sans-Serif" font-size="10.00">dlfcn.h</text>
</g>
<!-- Node6&#45;&gt;Node30 -->
<g id="edge30" class="edge"><title>Node6&#45;&gt;Node30</title>
<path fill="none" stroke="midnightblue" d="M1424.37,-57.5977C1419.68,-57.008 1415.01,-56.4627 1410.5,-56 1160.01,-30.28 1090.87,-61.9259 838.983,-19.8889"/>
<polygon fill="midnightblue" stroke="midnightblue" points="839.232,-16.3815 828.789,-18.1643 838.065,-23.2834 839.232,-16.3815"/>
</g>
<!-- Node31 -->
<g id="node31" class="node"><title>Node31</title>
<polygon fill="none" stroke="#bfbfbf" points="846.5,-0.5 846.5,-19.5 924.5,-19.5 924.5,-0.5 846.5,-0.5"/>
<text text-anchor="middle" x="885.5" y="-7.5" font-family="Helvetica,sans-Serif" font-size="10.00">ext/hash_map</text>
</g>
<!-- Node6&#45;&gt;Node31 -->
<g id="edge31" class="edge"><title>Node6&#45;&gt;Node31</title>
<path fill="none" stroke="midnightblue" d="M1424.36,-57.6577C1419.68,-57.0556 1415,-56.491 1410.5,-56 1202.45,-33.314 1146.05,-47.1825 934.909,-20.0443"/>
<polygon fill="midnightblue" stroke="midnightblue" points="935.105,-16.5403 924.737,-18.7207 934.201,-23.4817 935.105,-16.5403"/>
</g>
<!-- Node32 -->
<g id="node32" class="node"><title>Node32</title>
<polygon fill="none" stroke="#bfbfbf" points="943,-0.5 943,-19.5 1016,-19.5 1016,-0.5 943,-0.5"/>
<text text-anchor="middle" x="979.5" y="-7.5" font-family="Helvetica,sans-Serif" font-size="10.00">ext/hash_set</text>
</g>
<!-- Node6&#45;&gt;Node32 -->
<g id="edge32" class="edge"><title>Node6&#45;&gt;Node32</title>
<path fill="none" stroke="midnightblue" d="M1424.35,-57.7418C1419.67,-57.1224 1415,-56.5308 1410.5,-56 1242.65,-36.195 1196.72,-44.5927 1026.35,-20.1432"/>
<polygon fill="midnightblue" stroke="midnightblue" points="1026.68,-16.6551 1016.28,-18.6817 1025.68,-23.5824 1026.68,-16.6551"/>
</g>
<!-- Node33 -->
<g id="node33" class="node"><title>Node33</title>
<polygon fill="none" stroke="#bfbfbf" points="1034,-0.5 1034,-19.5 1105,-19.5 1105,-0.5 1034,-0.5"/>
<text text-anchor="middle" x="1069.5" y="-7.5" font-family="Helvetica,sans-Serif" font-size="10.00">sys/param.h</text>
</g>
<!-- Node6&#45;&gt;Node33 -->
<g id="edge33" class="edge"><title>Node6&#45;&gt;Node33</title>
<path fill="none" stroke="midnightblue" d="M1424.33,-57.8751C1419.66,-57.2282 1414.99,-56.5938 1410.5,-56 1282.33,-39.0522 1247.06,-40.9059 1115.39,-20.0304"/>
<polygon fill="midnightblue" stroke="midnightblue" points="1115.74,-16.5432 1105.32,-18.4198 1114.64,-23.4554 1115.74,-16.5432"/>
</g>
<!-- Node34 -->
<g id="node34" class="node"><title>Node34</title>
<polygon fill="none" stroke="#bfbfbf" points="1123.5,-0.5 1123.5,-19.5 1289.5,-19.5 1289.5,-0.5 1123.5,-0.5"/>
<text text-anchor="middle" x="1206.5" y="-7.5" font-family="Helvetica,sans-Serif" font-size="10.00">CoreFoundation/CoreFoundation.h</text>
</g>
<!-- Node6&#45;&gt;Node34 -->
<g id="edge34" class="edge"><title>Node6&#45;&gt;Node34</title>
<path fill="none" stroke="midnightblue" d="M1431.19,-56.4435C1384.42,-46.9839 1309.04,-31.7384 1258.65,-21.5472"/>
<polygon fill="midnightblue" stroke="midnightblue" points="1259.1,-18.0683 1248.61,-19.5164 1257.72,-24.9294 1259.1,-18.0683"/>
</g>
<!-- Node35 -->
<g id="node35" class="node"><title>Node35</title>
<polygon fill="none" stroke="#bfbfbf" points="1307.5,-0.5 1307.5,-19.5 1431.5,-19.5 1431.5,-0.5 1307.5,-0.5"/>
<text text-anchor="middle" x="1369.5" y="-7.5" font-family="Helvetica,sans-Serif" font-size="10.00">emscripten/emscripten.h</text>
</g>
<!-- Node6&#45;&gt;Node35 -->
<g id="edge35" class="edge"><title>Node6&#45;&gt;Node35</title>
<path fill="none" stroke="midnightblue" d="M1456.79,-56.324C1440.19,-47.7034 1414.5,-34.3643 1395.28,-24.3855"/>
<polygon fill="midnightblue" stroke="midnightblue" points="1396.66,-21.1565 1386.17,-19.6545 1393.43,-27.3689 1396.66,-21.1565"/>
</g>
<!-- Node36&#45;&gt;Node37 -->
<g id="edge37" class="edge"><title>Node36&#45;&gt;Node37</title>
<path fill="none" stroke="midnightblue" d="M2036.84,-58.6622C2124.24,-50.9675 2273.91,-37.0319 2412.95,-20.0122"/>
<polygon fill="midnightblue" stroke="midnightblue" points="2413.44,-23.4779 2422.94,-18.7815 2412.59,-16.5304 2413.44,-23.4779"/>
</g>
<!-- Node36&#45;&gt;Node38 -->
<g id="edge38" class="edge"><title>Node36&#45;&gt;Node38</title>
<path fill="none" stroke="midnightblue" d="M2026.41,-56.4963C2090.7,-47.8938 2192.97,-34.0789 2291.76,-20.092"/>
<polygon fill="midnightblue" stroke="midnightblue" points="2292.51,-23.5202 2301.92,-18.6506 2291.53,-16.5895 2292.51,-23.5202"/>
</g>
<!-- Node39&#45;&gt;Node2 -->
<g id="edge40" class="edge"><title>Node39&#45;&gt;Node2</title>
<path fill="none" stroke="midnightblue" d="M1580.81,-224.383C1578.68,-210.862 1576.7,-184.503 1589.5,-168 1603.69,-149.704 1626.17,-138.846 1647.86,-132.403"/>
<polygon fill="midnightblue" stroke="midnightblue" points="1648.99,-135.724 1657.74,-129.743 1647.17,-128.965 1648.99,-135.724"/>
</g>
<!-- Node40&#45;&gt;Node2 -->
<g id="edge42" class="edge"><title>Node40&#45;&gt;Node2</title>
<path fill="none" stroke="midnightblue" d="M1700.88,-224.147C1697.51,-211.618 1692.46,-188.009 1695.5,-168 1696.87,-159.001 1699.69,-149.325 1702.45,-141.26"/>
<polygon fill="midnightblue" stroke="midnightblue" points="1705.77,-142.372 1705.9,-131.778 1699.19,-139.976 1705.77,-142.372"/>
</g>
<!-- Node40&#45;&gt;Node37 -->
<g id="edge46" class="edge"><title>Node40&#45;&gt;Node37</title>
<path fill="none" stroke="midnightblue" d="M1752.51,-225.073C1755.55,-224.682 1758.56,-224.319 1761.5,-224 1888.78,-210.17 2223.27,-247.75 2336.5,-188 2404.54,-152.096 2449.71,-66.2916 2466.82,-28.9133"/>
<polygon fill="midnightblue" stroke="midnightblue" points="2470.04,-30.2963 2470.9,-19.7365 2463.64,-27.4545 2470.04,-30.2963"/>
</g>
<!-- Node40&#45;&gt;Node38 -->
<g id="edge47" class="edge"><title>Node40&#45;&gt;Node38</title>
<path fill="none" stroke="midnightblue" d="M1739.42,-224.438C1760.42,-217.734 1785.95,-206.381 1802.5,-188 1843.88,-142.041 1797.83,-94.149 1846.5,-56 1883.8,-26.7675 2210.29,-25.6712 2291.77,-19.7611"/>
<polygon fill="midnightblue" stroke="midnightblue" points="2292.3,-23.2276 2301.95,-18.8502 2291.67,-16.2554 2292.3,-23.2276"/>
</g>
<!-- Node41 -->
<g id="node41" class="node"><title>Node41</title>
<g id="a_node41"><a xlink:href="_ogre_shared_ptr_8h.html" target="_top" xlink:title="OgreSharedPtr.h">
<polygon fill="none" stroke="red" points="1705,-168.5 1705,-187.5 1794,-187.5 1794,-168.5 1705,-168.5"/>
<text text-anchor="middle" x="1749.5" y="-175.5" font-family="Helvetica,sans-Serif" font-size="10.00">OgreSharedPtr.h</text>
</a>
</g>
</g>
<!-- Node40&#45;&gt;Node41 -->
<g id="edge43" class="edge"><title>Node40&#45;&gt;Node41</title>
<path fill="none" stroke="midnightblue" d="M1711.1,-224.083C1717.73,-216.298 1727.52,-204.801 1735.56,-195.367"/>
<polygon fill="midnightblue" stroke="midnightblue" points="1738.23,-197.633 1742.05,-187.751 1732.9,-193.094 1738.23,-197.633"/>
</g>
<!-- Node42 -->
<g id="node42" class="node"><title>Node42</title>
<polygon fill="none" stroke="#bfbfbf" points="1599,-168.5 1599,-187.5 1648,-187.5 1648,-168.5 1599,-168.5"/>
<text text-anchor="middle" x="1623.5" y="-175.5" font-family="Helvetica,sans-Serif" font-size="10.00">istream</text>
</g>
<!-- Node40&#45;&gt;Node42 -->
<g id="edge45" class="edge"><title>Node40&#45;&gt;Node42</title>
<path fill="none" stroke="midnightblue" d="M1690.65,-224.324C1678.28,-215.979 1659.37,-203.212 1644.76,-193.352"/>
<polygon fill="midnightblue" stroke="midnightblue" points="1646.57,-190.348 1636.32,-187.655 1642.65,-196.15 1646.57,-190.348"/>
</g>
<!-- Node41&#45;&gt;Node2 -->
<g id="edge44" class="edge"><title>Node41&#45;&gt;Node2</title>
<path fill="none" stroke="midnightblue" d="M1742.89,-168.083C1737.24,-160.455 1728.96,-149.264 1722.05,-139.941"/>
<polygon fill="midnightblue" stroke="midnightblue" points="1724.75,-137.703 1715.98,-131.751 1719.12,-141.87 1724.75,-137.703"/>
</g>
<!-- Node43&#45;&gt;Node2 -->
<g id="edge49" class="edge"><title>Node43&#45;&gt;Node2</title>
<path fill="none" stroke="midnightblue" d="M1913.26,-280.124C1906.87,-267.157 1893.96,-242.564 1879.5,-224 1857.68,-195.98 1852.25,-187.396 1822.5,-168 1800.16,-153.433 1772.35,-142.286 1749.92,-134.73"/>
<polygon fill="midnightblue" stroke="midnightblue" points="1750.94,-131.381 1740.34,-131.612 1748.77,-138.037 1750.94,-131.381"/>
</g>
<!-- Node43&#45;&gt;Node10 -->
<g id="edge58" class="edge"><title>Node43&#45;&gt;Node10</title>
<path fill="none" stroke="midnightblue" d="M1877.78,-285.582C1807.49,-279.266 1656.68,-264.516 1530.5,-244 1128.45,-178.631 1037.17,-110.473 633.5,-56 379.493,-21.7232 307.88,-64.4866 51.0078,-19.6044"/>
<polygon fill="midnightblue" stroke="midnightblue" points="51.4639,-16.1308 41.0061,-17.8292 50.2405,-23.023 51.4639,-16.1308"/>
</g>
<!-- Node43&#45;&gt;Node37 -->
<g id="edge59" class="edge"><title>Node43&#45;&gt;Node37</title>
<path fill="none" stroke="midnightblue" d="M1957.25,-284.143C2036.79,-273.54 2220.27,-244.61 2364.5,-188 2456.82,-151.766 2508.01,-161.943 2557.5,-76 2571.14,-52.3063 2540.6,-34.1313 2512.8,-23.1023"/>
<polygon fill="midnightblue" stroke="midnightblue" points="2513.74,-19.7204 2503.15,-19.502 2511.3,-26.2784 2513.74,-19.7204"/>
</g>
<!-- Node43&#45;&gt;Node38 -->
<g id="edge60" class="edge"><title>Node43&#45;&gt;Node38</title>
<path fill="none" stroke="midnightblue" d="M1915.28,-280.325C1905.08,-240.103 1863.92,-72.9951 1879.5,-56 1909.11,-23.7019 2214.65,-25.1287 2291.92,-19.7195"/>
<polygon fill="midnightblue" stroke="midnightblue" points="2292.29,-23.2 2301.94,-18.8269 2291.67,-16.2276 2292.29,-23.2"/>
</g>
<!-- Node43&#45;&gt;Node40 -->
<g id="edge50" class="edge"><title>Node43&#45;&gt;Node40</title>
<path fill="none" stroke="midnightblue" d="M1883.59,-280.444C1846.65,-271.122 1787.45,-256.183 1747.08,-245.997"/>
<polygon fill="midnightblue" stroke="midnightblue" points="1747.8,-242.57 1737.25,-243.516 1746.09,-249.357 1747.8,-242.57"/>
</g>
<!-- Node44 -->
<g id="node44" class="node"><title>Node44</title>
<g id="a_node44"><a xlink:href="_ogre_string_vector_8h.html" target="_top" xlink:title="OgreStringVector.h">
<polygon fill="none" stroke="red" points="1770.5,-224.5 1770.5,-243.5 1870.5,-243.5 1870.5,-224.5 1770.5,-224.5"/>
<text text-anchor="middle" x="1820.5" y="-231.5" font-family="Helvetica,sans-Serif" font-size="10.00">OgreStringVector.h</text>
</a>
</g>
</g>
<!-- Node43&#45;&gt;Node44 -->
<g id="edge51" class="edge"><title>Node43&#45;&gt;Node44</title>
<path fill="none" stroke="midnightblue" d="M1901.92,-280.324C1886.5,-271.743 1862.69,-258.486 1844.79,-248.522"/>
<polygon fill="midnightblue" stroke="midnightblue" points="1846.49,-245.461 1836.05,-243.655 1843.08,-251.577 1846.49,-245.461"/>
</g>
<!-- Node45 -->
<g id="node45" class="node"><title>Node45</title>
<g id="a_node45"><a xlink:href="_ogre_exception_8h.html" target="_top" xlink:title="OgreException.h">
<polygon fill="none" stroke="red" points="1975,-168.5 1975,-187.5 2064,-187.5 2064,-168.5 1975,-168.5"/>
<text text-anchor="middle" x="2019.5" y="-175.5" font-family="Helvetica,sans-Serif" font-size="10.00">OgreException.h</text>
</a>
</g>
</g>
<!-- Node43&#45;&gt;Node45 -->
<g id="edge54" class="edge"><title>Node43&#45;&gt;Node45</title>
<path fill="none" stroke="midnightblue" d="M1925.5,-280.368C1942.56,-261.974 1982.71,-218.671 2004.62,-195.052"/>
<polygon fill="midnightblue" stroke="midnightblue" points="2007.3,-197.304 2011.53,-187.591 2002.17,-192.544 2007.3,-197.304"/>
</g>
<!-- Node44&#45;&gt;Node2 -->
<g id="edge52" class="edge"><title>Node44&#45;&gt;Node2</title>
<path fill="none" stroke="midnightblue" d="M1820.3,-224.394C1819.56,-210.886 1816.3,-184.546 1802.5,-168 1789.7,-152.658 1770.44,-142.148 1752.76,-135.17"/>
<polygon fill="midnightblue" stroke="midnightblue" points="1753.74,-131.803 1743.15,-131.648 1751.33,-138.375 1753.74,-131.803"/>
</g>
<!-- Node44&#45;&gt;Node41 -->
<g id="edge53" class="edge"><title>Node44&#45;&gt;Node41</title>
<path fill="none" stroke="midnightblue" d="M1809.09,-224.324C1798.39,-216.185 1782.16,-203.839 1769.34,-194.087"/>
<polygon fill="midnightblue" stroke="midnightblue" points="1771.19,-191.102 1761.11,-187.834 1766.96,-196.673 1771.19,-191.102"/>
</g>
<!-- Node45&#45;&gt;Node2 -->
<g id="edge55" class="edge"><title>Node45&#45;&gt;Node2</title>
<path fill="none" stroke="midnightblue" d="M1974.75,-169.206C1920.39,-159.735 1828.5,-143.729 1768.42,-133.263"/>
<polygon fill="midnightblue" stroke="midnightblue" points="1768.78,-129.773 1758.32,-131.505 1767.57,-136.669 1768.78,-129.773"/>
</g>
<!-- Node45&#45;&gt;Node37 -->
<g id="edge56" class="edge"><title>Node45&#45;&gt;Node37</title>
<path fill="none" stroke="midnightblue" d="M2040.59,-168.397C2081.72,-151.501 2175.37,-112.448 2252.5,-76 2270.11,-67.6775 2273.25,-62.8163 2291.5,-56 2332.4,-40.7218 2380.39,-29.1437 2416.96,-21.5599"/>
<polygon fill="midnightblue" stroke="midnightblue" points="2417.86,-24.9496 2426.96,-19.527 2416.46,-18.09 2417.86,-24.9496"/>
</g>
<!-- Node45&#45;&gt;Node38 -->
<g id="edge57" class="edge"><title>Node45&#45;&gt;Node38</title>
<path fill="none" stroke="midnightblue" d="M2021.7,-168.223C2027.88,-145.504 2047.68,-84.5532 2088.5,-56 2096.81,-50.1844 2216.17,-31.497 2291.83,-20.1143"/>
<polygon fill="midnightblue" stroke="midnightblue" points="2292.38,-23.5721 2301.75,-18.6271 2291.34,-16.6495 2292.38,-23.5721"/>
</g>
<!-- Node46&#45;&gt;Node2 -->
<g id="edge62" class="edge"><title>Node46&#45;&gt;Node2</title>
<path fill="none" stroke="midnightblue" d="M2208.94,-171.247C2102.25,-160.94 1879.57,-139.429 1771.28,-128.968"/>
<polygon fill="midnightblue" stroke="midnightblue" points="1771.46,-125.469 1761.17,-127.991 1770.79,-132.437 1771.46,-125.469"/>
</g>
<!-- Node47 -->
<g id="node47" class="node"><title>Node47</title>
<g id="a_node47"><a xlink:href="_ogre_iterator_wrapper_8h.html" target="_top" xlink:title="OgreIteratorWrapper.h">
<polygon fill="none" stroke="black" points="2131,-56.5 2131,-75.5 2244,-75.5 2244,-56.5 2131,-56.5"/>
<text text-anchor="middle" x="2187.5" y="-63.5" font-family="Helvetica,sans-Serif" font-size="10.00">OgreIteratorWrapper.h</text>
</a>
</g>
</g>
<!-- Node46&#45;&gt;Node47 -->
<g id="edge63" class="edge"><title>Node46&#45;&gt;Node47</title>
<path fill="none" stroke="midnightblue" d="M2262.14,-168.368C2248.72,-150.135 2217.27,-107.426 2199.78,-83.6752"/>
<polygon fill="midnightblue" stroke="midnightblue" points="2202.57,-81.5685 2193.83,-75.5914 2196.94,-85.7192 2202.57,-81.5685"/>
</g>
<!-- Node48 -->
<g id="node48" class="node"><title>Node48</title>
<g id="a_node48"><a xlink:href="_ogre_iterator_range_8h.html" target="_top" xlink:title="OgreIteratorRange.h">
<polygon fill="none" stroke="black" points="2301,-56.5 2301,-75.5 2406,-75.5 2406,-56.5 2301,-56.5"/>
<text text-anchor="middle" x="2353.5" y="-63.5" font-family="Helvetica,sans-Serif" font-size="10.00">OgreIteratorRange.h</text>
</a>
</g>
</g>
<!-- Node46&#45;&gt;Node48 -->
<g id="edge66" class="edge"><title>Node46&#45;&gt;Node48</title>
<path fill="none" stroke="midnightblue" d="M2275.17,-168.368C2289.26,-150.135 2322.26,-107.426 2340.61,-83.6752"/>
<polygon fill="midnightblue" stroke="midnightblue" points="2343.52,-85.6444 2346.86,-75.5914 2337.98,-81.3642 2343.52,-85.6444"/>
</g>
<!-- Node47&#45;&gt;Node37 -->
<g id="edge64" class="edge"><title>Node47&#45;&gt;Node37</title>
<path fill="none" stroke="midnightblue" d="M2232.98,-56.4435C2283.46,-46.9444 2364.96,-31.611 2419.12,-21.4198"/>
<polygon fill="midnightblue" stroke="midnightblue" points="2420.06,-24.8052 2429.24,-19.5164 2418.76,-17.9259 2420.06,-24.8052"/>
</g>
<!-- Node47&#45;&gt;Node38 -->
<g id="edge65" class="edge"><title>Node47&#45;&gt;Node38</title>
<path fill="none" stroke="midnightblue" d="M2213.8,-56.4435C2241.85,-47.3196 2286.44,-32.8133 2317.68,-22.6509"/>
<polygon fill="midnightblue" stroke="midnightblue" points="2318.89,-25.9383 2327.32,-19.5164 2316.73,-19.2816 2318.89,-25.9383"/>
</g>
<!-- Node48&#45;&gt;Node37 -->
<g id="edge67" class="edge"><title>Node48&#45;&gt;Node37</title>
<path fill="none" stroke="midnightblue" d="M2372.67,-56.4435C2392.41,-47.6356 2423.39,-33.8116 2445.99,-23.722"/>
<polygon fill="midnightblue" stroke="midnightblue" points="2447.71,-26.788 2455.42,-19.5164 2444.86,-20.3957 2447.71,-26.788"/>
</g>
<!-- Node48&#45;&gt;Node38 -->
<g id="edge68" class="edge"><title>Node48&#45;&gt;Node38</title>
<path fill="none" stroke="midnightblue" d="M2353.5,-56.083C2353.5,-49.0059 2353.5,-38.8611 2353.5,-29.9865"/>
<polygon fill="midnightblue" stroke="midnightblue" points="2357,-29.751 2353.5,-19.7511 2350,-29.7511 2357,-29.751"/>
</g>
<!-- Node49&#45;&gt;Node37 -->
<g id="edge70" class="edge"><title>Node49&#45;&gt;Node37</title>
<path fill="none" stroke="midnightblue" d="M2500.38,-56.083C2496.09,-48.6127 2489.84,-37.7244 2484.56,-28.5199"/>
<polygon fill="midnightblue" stroke="midnightblue" points="2487.54,-26.6811 2479.52,-19.7511 2481.47,-30.1662 2487.54,-26.6811"/>
</g>
<!-- Node49&#45;&gt;Node38 -->
<g id="edge71" class="edge"><title>Node49&#45;&gt;Node38</title>
<path fill="none" stroke="midnightblue" d="M2481.42,-56.4435C2455.96,-47.3986 2415.61,-33.064 2387.04,-22.9158"/>
<polygon fill="midnightblue" stroke="midnightblue" points="2388.07,-19.5661 2377.47,-19.5164 2385.72,-26.1622 2388.07,-19.5661"/>
</g>
</g>
</svg>
