<?xml version="1.0" encoding="UTF-8" standalone="no"?>
<!DOCTYPE svg PUBLIC "-//W3C//DTD SVG 1.1//EN"
 "http://www.w3.org/Graphics/SVG/1.1/DTD/svg11.dtd">
<!-- Generated by graphviz version 2.38.0 (20140413.2041)
 -->
<!-- Title: OgreCustomCompositionPass.h Pages: 1 -->
<svg width="3353pt" height="420pt"
 viewBox="0.00 0.00 3353.00 420.00" xmlns="http://www.w3.org/2000/svg" xmlns:xlink="http://www.w3.org/1999/xlink">
<g id="graph0" class="graph" transform="scale(1 1) rotate(0) translate(4 416)">
<title>OgreCustomCompositionPass.h</title>
<!-- Node1 -->
<g id="node1" class="node"><title>Node1</title>
<polygon fill="#bfbfbf" stroke="black" points="1112,-392.5 1112,-411.5 1270,-411.5 1270,-392.5 1112,-392.5"/>
<text text-anchor="middle" x="1191" y="-399.5" font-family="Helvetica,sans-Serif" font-size="10.00">OgreCustomCompositionPass.h</text>
</g>
<!-- Node2 -->
<g id="node2" class="node"><title>Node2</title>
<g id="a_node2"><a xlink:href="_ogre_prerequisites_8h.html" target="_top" xlink:title="OgrePrerequisites.h">
<polygon fill="none" stroke="black" points="957.5,-168.5 957.5,-187.5 1060.5,-187.5 1060.5,-168.5 957.5,-168.5"/>
<text text-anchor="middle" x="1009" y="-175.5" font-family="Helvetica,sans-Serif" font-size="10.00">OgrePrerequisites.h</text>
</a>
</g>
</g>
<!-- Node1&#45;&gt;Node2 -->
<g id="edge1" class="edge"><title>Node1&#45;&gt;Node2</title>
<path fill="none" stroke="midnightblue" d="M1197.89,-392.319C1204.27,-383.684 1213.31,-369.77 1217,-356 1228.33,-313.737 1235.54,-264.095 1198,-224 1180.73,-205.554 1118.92,-193.284 1070.64,-186.281"/>
<polygon fill="midnightblue" stroke="midnightblue" points="1070.95,-182.79 1060.56,-184.866 1069.97,-189.722 1070.95,-182.79"/>
</g>
<!-- Node42 -->
<g id="node42" class="node"><title>Node42</title>
<g id="a_node42"><a xlink:href="_ogre_composition_pass_8h.html" target="_top" xlink:title="OgreCompositionPass.h">
<polygon fill="none" stroke="black" points="1084.5,-336.5 1084.5,-355.5 1207.5,-355.5 1207.5,-336.5 1084.5,-336.5"/>
<text text-anchor="middle" x="1146" y="-343.5" font-family="Helvetica,sans-Serif" font-size="10.00">OgreCompositionPass.h</text>
</a>
</g>
</g>
<!-- Node1&#45;&gt;Node42 -->
<g id="edge50" class="edge"><title>Node1&#45;&gt;Node42</title>
<path fill="none" stroke="midnightblue" d="M1183.57,-392.083C1177.15,-384.377 1167.69,-373.033 1159.88,-363.653"/>
<polygon fill="midnightblue" stroke="midnightblue" points="1162.38,-361.193 1153.29,-355.751 1157.01,-365.674 1162.38,-361.193"/>
</g>
<!-- Node3 -->
<g id="node3" class="node"><title>Node3</title>
<g id="a_node3"><a xlink:href="_ogre_platform_8h.html" target="_top" xlink:title="OgrePlatform.h">
<polygon fill="none" stroke="black" points="957.5,-112.5 957.5,-131.5 1040.5,-131.5 1040.5,-112.5 957.5,-112.5"/>
<text text-anchor="middle" x="999" y="-119.5" font-family="Helvetica,sans-Serif" font-size="10.00">OgrePlatform.h</text>
</a>
</g>
</g>
<!-- Node2&#45;&gt;Node3 -->
<g id="edge2" class="edge"><title>Node2&#45;&gt;Node3</title>
<path fill="none" stroke="midnightblue" d="M1007.35,-168.083C1006.02,-160.927 1004.12,-150.635 1002.46,-141.691"/>
<polygon fill="midnightblue" stroke="midnightblue" points="1005.88,-140.947 1000.62,-131.751 999,-142.221 1005.88,-140.947"/>
</g>
<!-- Node5 -->
<g id="node5" class="node"><title>Node5</title>
<polygon fill="none" stroke="#bfbfbf" points="1049.5,-56.5 1049.5,-75.5 1090.5,-75.5 1090.5,-56.5 1049.5,-56.5"/>
<text text-anchor="middle" x="1070" y="-63.5" font-family="Helvetica,sans-Serif" font-size="10.00">string</text>
</g>
<!-- Node2&#45;&gt;Node5 -->
<g id="edge4" class="edge"><title>Node2&#45;&gt;Node5</title>
<path fill="none" stroke="midnightblue" d="M1018.84,-168.244C1027.82,-159.768 1040.9,-146.154 1049,-132 1057.28,-117.524 1062.8,-99.3381 1066.09,-85.8863"/>
<polygon fill="midnightblue" stroke="midnightblue" points="1069.56,-86.4106 1068.35,-75.8856 1062.73,-84.8709 1069.56,-86.4106"/>
</g>
<!-- Node6 -->
<g id="node6" class="node"><title>Node6</title>
<g id="a_node6"><a xlink:href="_ogre_std_headers_8h.html" target="_top" xlink:title="OgreStdHeaders.h">
<polygon fill="none" stroke="black" points="1899,-112.5 1899,-131.5 1997,-131.5 1997,-112.5 1899,-112.5"/>
<text text-anchor="middle" x="1948" y="-119.5" font-family="Helvetica,sans-Serif" font-size="10.00">OgreStdHeaders.h</text>
</a>
</g>
</g>
<!-- Node2&#45;&gt;Node6 -->
<g id="edge5" class="edge"><title>Node2&#45;&gt;Node6</title>
<path fill="none" stroke="midnightblue" d="M1060.82,-174.02C1222.55,-164.719 1717.39,-136.262 1888.81,-126.404"/>
<polygon fill="midnightblue" stroke="midnightblue" points="1889.12,-129.892 1898.9,-125.824 1888.72,-122.904 1889.12,-129.892"/>
</g>
<!-- Node36 -->
<g id="node36" class="node"><title>Node36</title>
<g id="a_node36"><a xlink:href="_ogre_memory_allocator_config_8h.html" target="_top" xlink:title="This file configures Ogre&#39;s memory allocators. ">
<polygon fill="none" stroke="black" points="488,-112.5 488,-131.5 636,-131.5 636,-112.5 488,-112.5"/>
<text text-anchor="middle" x="562" y="-119.5" font-family="Helvetica,sans-Serif" font-size="10.00">OgreMemoryAllocatorConfig.h</text>
</a>
</g>
</g>
<!-- Node2&#45;&gt;Node36 -->
<g id="edge36" class="edge"><title>Node2&#45;&gt;Node36</title>
<path fill="none" stroke="midnightblue" d="M957.287,-170.753C880.091,-161.427 734.044,-143.784 642.716,-132.751"/>
<polygon fill="midnightblue" stroke="midnightblue" points="643.03,-129.264 632.682,-131.539 642.19,-136.213 643.03,-129.264"/>
</g>
<!-- Node4 -->
<g id="node4" class="node"><title>Node4</title>
<g id="a_node4"><a xlink:href="_ogre_config_8h.html" target="_top" xlink:title="OgreConfig.h">
<polygon fill="none" stroke="red" points="957,-56.5 957,-75.5 1031,-75.5 1031,-56.5 957,-56.5"/>
<text text-anchor="middle" x="994" y="-63.5" font-family="Helvetica,sans-Serif" font-size="10.00">OgreConfig.h</text>
</a>
</g>
</g>
<!-- Node3&#45;&gt;Node4 -->
<g id="edge3" class="edge"><title>Node3&#45;&gt;Node4</title>
<path fill="none" stroke="midnightblue" d="M998.174,-112.083C997.519,-105.006 996.58,-94.8611 995.758,-85.9865"/>
<polygon fill="midnightblue" stroke="midnightblue" points="999.217,-85.3858 994.81,-75.7511 992.247,-86.0312 999.217,-85.3858"/>
</g>
<!-- Node6&#45;&gt;Node5 -->
<g id="edge15" class="edge"><title>Node6&#45;&gt;Node5</title>
<path fill="none" stroke="midnightblue" d="M1898.74,-119.928C1744.93,-116.342 1274.03,-103.504 1100.51,-75.5424"/>
<polygon fill="midnightblue" stroke="midnightblue" points="1100.94,-72.066 1090.5,-73.8534 1099.78,-78.9684 1100.94,-72.066"/>
</g>
<!-- Node7 -->
<g id="node7" class="node"><title>Node7</title>
<polygon fill="none" stroke="#bfbfbf" points="2814.5,-56.5 2814.5,-75.5 2863.5,-75.5 2863.5,-56.5 2814.5,-56.5"/>
<text text-anchor="middle" x="2839" y="-63.5" font-family="Helvetica,sans-Serif" font-size="10.00">cassert</text>
</g>
<!-- Node6&#45;&gt;Node7 -->
<g id="edge6" class="edge"><title>Node6&#45;&gt;Node7</title>
<path fill="none" stroke="midnightblue" d="M1997.26,-119.801C2152.22,-115.817 2629.37,-101.867 2804.18,-75.9225"/>
<polygon fill="midnightblue" stroke="midnightblue" points="2804.91,-79.3501 2814.26,-74.3578 2803.84,-72.433 2804.91,-79.3501"/>
</g>
<!-- Node8 -->
<g id="node8" class="node"><title>Node8</title>
<polygon fill="none" stroke="#bfbfbf" points="2881.5,-56.5 2881.5,-75.5 2924.5,-75.5 2924.5,-56.5 2881.5,-56.5"/>
<text text-anchor="middle" x="2903" y="-63.5" font-family="Helvetica,sans-Serif" font-size="10.00">cstdio</text>
</g>
<!-- Node6&#45;&gt;Node8 -->
<g id="edge7" class="edge"><title>Node6&#45;&gt;Node8</title>
<path fill="none" stroke="midnightblue" d="M1997.02,-120.184C2159.88,-117.231 2682.79,-105.757 2871.14,-75.8784"/>
<polygon fill="midnightblue" stroke="midnightblue" points="2871.9,-79.3003 2881.19,-74.2104 2870.75,-72.3947 2871.9,-79.3003"/>
</g>
<!-- Node9 -->
<g id="node9" class="node"><title>Node9</title>
<polygon fill="none" stroke="#bfbfbf" points="2942.5,-56.5 2942.5,-75.5 2987.5,-75.5 2987.5,-56.5 2942.5,-56.5"/>
<text text-anchor="middle" x="2965" y="-63.5" font-family="Helvetica,sans-Serif" font-size="10.00">cstdlib</text>
</g>
<!-- Node6&#45;&gt;Node9 -->
<g id="edge8" class="edge"><title>Node6&#45;&gt;Node9</title>
<path fill="none" stroke="midnightblue" d="M1997.21,-120.295C2167.36,-117.62 2730.96,-106.734 2932.29,-75.8444"/>
<polygon fill="midnightblue" stroke="midnightblue" points="2933.14,-79.2532 2942.46,-74.215 2932.03,-72.3414 2933.14,-79.2532"/>
</g>
<!-- Node10 -->
<g id="node10" class="node"><title>Node10</title>
<polygon fill="none" stroke="#bfbfbf" points="3005.5,-56.5 3005.5,-75.5 3046.5,-75.5 3046.5,-56.5 3005.5,-56.5"/>
<text text-anchor="middle" x="3026" y="-63.5" font-family="Helvetica,sans-Serif" font-size="10.00">ctime</text>
</g>
<!-- Node6&#45;&gt;Node10 -->
<g id="edge9" class="edge"><title>Node6&#45;&gt;Node10</title>
<path fill="none" stroke="midnightblue" d="M1997.23,-120.57C2174.66,-118.761 2781.74,-110.277 2995.38,-75.8048"/>
<polygon fill="midnightblue" stroke="midnightblue" points="2995.97,-79.2546 3005.25,-74.1436 2994.81,-72.3516 2995.97,-79.2546"/>
</g>
<!-- Node11 -->
<g id="node11" class="node"><title>Node11</title>
<polygon fill="none" stroke="#bfbfbf" points="3065,-56.5 3065,-75.5 3111,-75.5 3111,-56.5 3065,-56.5"/>
<text text-anchor="middle" x="3088" y="-63.5" font-family="Helvetica,sans-Serif" font-size="10.00">cstring</text>
</g>
<!-- Node6&#45;&gt;Node11 -->
<g id="edge10" class="edge"><title>Node6&#45;&gt;Node11</title>
<path fill="none" stroke="midnightblue" d="M1997.06,-120.529C2180.62,-118.535 2827.56,-109.362 3054.56,-75.7908"/>
<polygon fill="midnightblue" stroke="midnightblue" points="3055.37,-79.2068 3064.72,-74.2256 3054.31,-72.2883 3055.37,-79.2068"/>
</g>
<!-- Node12 -->
<g id="node12" class="node"><title>Node12</title>
<polygon fill="none" stroke="#bfbfbf" points="3129.5,-56.5 3129.5,-75.5 3178.5,-75.5 3178.5,-56.5 3129.5,-56.5"/>
<text text-anchor="middle" x="3154" y="-63.5" font-family="Helvetica,sans-Serif" font-size="10.00">cstdarg</text>
</g>
<!-- Node6&#45;&gt;Node12 -->
<g id="edge11" class="edge"><title>Node6&#45;&gt;Node12</title>
<path fill="none" stroke="midnightblue" d="M1997.21,-120.554C2187.8,-118.608 2878.29,-109.458 3119.15,-75.6963"/>
<polygon fill="midnightblue" stroke="midnightblue" points="3119.86,-79.1305 3129.25,-74.2262 3118.85,-72.2035 3119.86,-79.1305"/>
</g>
<!-- Node13 -->
<g id="node13" class="node"><title>Node13</title>
<polygon fill="none" stroke="#bfbfbf" points="3197,-56.5 3197,-75.5 3241,-75.5 3241,-56.5 3197,-56.5"/>
<text text-anchor="middle" x="3219" y="-63.5" font-family="Helvetica,sans-Serif" font-size="10.00">cmath</text>
</g>
<!-- Node6&#45;&gt;Node13 -->
<g id="edge12" class="edge"><title>Node6&#45;&gt;Node13</title>
<path fill="none" stroke="midnightblue" d="M1997.34,-120.829C2195.27,-119.895 2932.91,-113.988 3186.88,-75.7072"/>
<polygon fill="midnightblue" stroke="midnightblue" points="3187.46,-79.1593 3196.8,-74.1556 3186.38,-72.2435 3187.46,-79.1593"/>
</g>
<!-- Node14 -->
<g id="node14" class="node"><title>Node14</title>
<polygon fill="none" stroke="#bfbfbf" points="1109,-56.5 1109,-75.5 1153,-75.5 1153,-56.5 1109,-56.5"/>
<text text-anchor="middle" x="1131" y="-63.5" font-family="Helvetica,sans-Serif" font-size="10.00">vector</text>
</g>
<!-- Node6&#45;&gt;Node14 -->
<g id="edge13" class="edge"><title>Node6&#45;&gt;Node14</title>
<path fill="none" stroke="midnightblue" d="M1898.98,-119.64C1753.32,-115.374 1323.8,-101.124 1163.38,-75.7835"/>
<polygon fill="midnightblue" stroke="midnightblue" points="1163.65,-72.28 1153.21,-74.0983 1162.5,-79.1859 1163.65,-72.28"/>
</g>
<!-- Node15 -->
<g id="node15" class="node"><title>Node15</title>
<polygon fill="none" stroke="#bfbfbf" points="1171.5,-56.5 1171.5,-75.5 1206.5,-75.5 1206.5,-56.5 1171.5,-56.5"/>
<text text-anchor="middle" x="1189" y="-63.5" font-family="Helvetica,sans-Serif" font-size="10.00">map</text>
</g>
<!-- Node6&#45;&gt;Node15 -->
<g id="edge14" class="edge"><title>Node6&#45;&gt;Node15</title>
<path fill="none" stroke="midnightblue" d="M1898.81,-119.644C1759.9,-115.556 1365.65,-102.108 1216.43,-75.4371"/>
<polygon fill="midnightblue" stroke="midnightblue" points="1217.02,-71.9855 1206.54,-73.5777 1215.72,-78.865 1217.02,-71.9855"/>
</g>
<!-- Node16 -->
<g id="node16" class="node"><title>Node16</title>
<polygon fill="none" stroke="#bfbfbf" points="1225,-56.5 1225,-75.5 1255,-75.5 1255,-56.5 1225,-56.5"/>
<text text-anchor="middle" x="1240" y="-63.5" font-family="Helvetica,sans-Serif" font-size="10.00">set</text>
</g>
<!-- Node6&#45;&gt;Node16 -->
<g id="edge16" class="edge"><title>Node6&#45;&gt;Node16</title>
<path fill="none" stroke="midnightblue" d="M1898.71,-119.54C1763.06,-115.239 1386.27,-101.3 1265,-76 1264.9,-75.9788 1264.8,-75.9573 1264.69,-75.9354"/>
<polygon fill="midnightblue" stroke="midnightblue" points="1265.72,-72.5875 1255.14,-73.2135 1263.8,-79.3196 1265.72,-72.5875"/>
</g>
<!-- Node17 -->
<g id="node17" class="node"><title>Node17</title>
<polygon fill="none" stroke="#bfbfbf" points="1273.5,-56.5 1273.5,-75.5 1302.5,-75.5 1302.5,-56.5 1273.5,-56.5"/>
<text text-anchor="middle" x="1288" y="-63.5" font-family="Helvetica,sans-Serif" font-size="10.00">list</text>
</g>
<!-- Node6&#45;&gt;Node17 -->
<g id="edge17" class="edge"><title>Node6&#45;&gt;Node17</title>
<path fill="none" stroke="midnightblue" d="M1898.85,-119.351C1773.25,-114.853 1441.9,-101.13 1312.58,-75.3295"/>
<polygon fill="midnightblue" stroke="midnightblue" points="1313.03,-71.8481 1302.52,-73.2068 1311.58,-78.6971 1313.03,-71.8481"/>
</g>
<!-- Node18 -->
<g id="node18" class="node"><title>Node18</title>
<polygon fill="none" stroke="#bfbfbf" points="1320.5,-56.5 1320.5,-75.5 1363.5,-75.5 1363.5,-56.5 1320.5,-56.5"/>
<text text-anchor="middle" x="1342" y="-63.5" font-family="Helvetica,sans-Serif" font-size="10.00">deque</text>
</g>
<!-- Node6&#45;&gt;Node18 -->
<g id="edge18" class="edge"><title>Node6&#45;&gt;Node18</title>
<path fill="none" stroke="midnightblue" d="M1898.72,-120.524C1800.42,-118.847 1573.05,-111.32 1373.62,-75.6942"/>
<polygon fill="midnightblue" stroke="midnightblue" points="1374.01,-72.2077 1363.55,-73.8658 1372.76,-79.0952 1374.01,-72.2077"/>
</g>
<!-- Node19 -->
<g id="node19" class="node"><title>Node19</title>
<polygon fill="none" stroke="#bfbfbf" points="1381.5,-56.5 1381.5,-75.5 1424.5,-75.5 1424.5,-56.5 1381.5,-56.5"/>
<text text-anchor="middle" x="1403" y="-63.5" font-family="Helvetica,sans-Serif" font-size="10.00">queue</text>
</g>
<!-- Node6&#45;&gt;Node19 -->
<g id="edge19" class="edge"><title>Node6&#45;&gt;Node19</title>
<path fill="none" stroke="midnightblue" d="M1898.67,-119.877C1808.3,-117.128 1610.15,-107.896 1434.49,-75.691"/>
<polygon fill="midnightblue" stroke="midnightblue" points="1435.02,-72.2304 1424.55,-73.8397 1433.74,-79.112 1435.02,-72.2304"/>
</g>
<!-- Node20 -->
<g id="node20" class="node"><title>Node20</title>
<polygon fill="none" stroke="#bfbfbf" points="1442.5,-56.5 1442.5,-75.5 1483.5,-75.5 1483.5,-56.5 1442.5,-56.5"/>
<text text-anchor="middle" x="1463" y="-63.5" font-family="Helvetica,sans-Serif" font-size="10.00">bitset</text>
</g>
<!-- Node6&#45;&gt;Node20 -->
<g id="edge20" class="edge"><title>Node6&#45;&gt;Node20</title>
<path fill="none" stroke="midnightblue" d="M1898.73,-119.239C1816.56,-115.625 1646.34,-105.262 1493.56,-75.7016"/>
<polygon fill="midnightblue" stroke="midnightblue" points="1494.01,-72.2233 1483.53,-73.7266 1492.66,-79.0916 1494.01,-72.2233"/>
</g>
<!-- Node21 -->
<g id="node21" class="node"><title>Node21</title>
<polygon fill="none" stroke="#bfbfbf" points="1502,-56.5 1502,-75.5 1558,-75.5 1558,-56.5 1502,-56.5"/>
<text text-anchor="middle" x="1530" y="-63.5" font-family="Helvetica,sans-Serif" font-size="10.00">algorithm</text>
</g>
<!-- Node6&#45;&gt;Node21 -->
<g id="edge21" class="edge"><title>Node6&#45;&gt;Node21</title>
<path fill="none" stroke="midnightblue" d="M1898.85,-116.995C1826.17,-110.662 1685.91,-96.874 1568,-76 1567.9,-75.9823 1567.8,-75.9644 1567.7,-75.9465"/>
<polygon fill="midnightblue" stroke="midnightblue" points="1568.64,-72.5647 1558.15,-74.0459 1567.27,-79.4301 1568.64,-72.5647"/>
</g>
<!-- Node22 -->
<g id="node22" class="node"><title>Node22</title>
<polygon fill="none" stroke="#bfbfbf" points="1576.5,-56.5 1576.5,-75.5 1635.5,-75.5 1635.5,-56.5 1576.5,-56.5"/>
<text text-anchor="middle" x="1606" y="-63.5" font-family="Helvetica,sans-Serif" font-size="10.00">functional</text>
</g>
<!-- Node6&#45;&gt;Node22 -->
<g id="edge22" class="edge"><title>Node6&#45;&gt;Node22</title>
<path fill="none" stroke="midnightblue" d="M1898.99,-114.939C1840.97,-107.492 1741.2,-93.8418 1645.86,-76.0302"/>
<polygon fill="midnightblue" stroke="midnightblue" points="1646.23,-72.5387 1635.76,-74.1236 1644.94,-79.4173 1646.23,-72.5387"/>
</g>
<!-- Node23 -->
<g id="node23" class="node"><title>Node23</title>
<polygon fill="none" stroke="#bfbfbf" points="1654,-56.5 1654,-75.5 1694,-75.5 1694,-56.5 1654,-56.5"/>
<text text-anchor="middle" x="1674" y="-63.5" font-family="Helvetica,sans-Serif" font-size="10.00">limits</text>
</g>
<!-- Node6&#45;&gt;Node23 -->
<g id="edge23" class="edge"><title>Node6&#45;&gt;Node23</title>
<path fill="none" stroke="midnightblue" d="M1898.83,-113.737C1851.23,-106.312 1776.92,-93.6788 1704,-76.0145"/>
<polygon fill="midnightblue" stroke="midnightblue" points="1704.74,-72.5914 1694.2,-73.6048 1703.07,-79.3893 1704.74,-72.5914"/>
</g>
<!-- Node24 -->
<g id="node24" class="node"><title>Node24</title>
<polygon fill="none" stroke="#bfbfbf" points="1712,-56.5 1712,-75.5 1762,-75.5 1762,-56.5 1712,-56.5"/>
<text text-anchor="middle" x="1737" y="-63.5" font-family="Helvetica,sans-Serif" font-size="10.00">fstream</text>
</g>
<!-- Node6&#45;&gt;Node24 -->
<g id="edge24" class="edge"><title>Node6&#45;&gt;Node24</title>
<path fill="none" stroke="midnightblue" d="M1914.58,-112.471C1879.18,-103.43 1821.64,-88.7293 1772,-76 1771.9,-75.9747 1771.8,-75.9493 1771.7,-75.9239"/>
<polygon fill="midnightblue" stroke="midnightblue" points="1772.79,-72.5895 1762.23,-73.4931 1771.05,-79.3697 1772.79,-72.5895"/>
</g>
<!-- Node25 -->
<g id="node25" class="node"><title>Node25</title>
<polygon fill="none" stroke="#bfbfbf" points="1780.5,-56.5 1780.5,-75.5 1825.5,-75.5 1825.5,-56.5 1780.5,-56.5"/>
<text text-anchor="middle" x="1803" y="-63.5" font-family="Helvetica,sans-Serif" font-size="10.00">iosfwd</text>
</g>
<!-- Node6&#45;&gt;Node25 -->
<g id="edge25" class="edge"><title>Node6&#45;&gt;Node25</title>
<path fill="none" stroke="midnightblue" d="M1925.02,-112.444C1900.84,-103.438 1862.58,-89.1891 1835.35,-79.049"/>
<polygon fill="midnightblue" stroke="midnightblue" points="1836.46,-75.7265 1825.87,-75.5164 1834.02,-82.2864 1836.46,-75.7265"/>
</g>
<!-- Node26 -->
<g id="node26" class="node"><title>Node26</title>
<polygon fill="none" stroke="#bfbfbf" points="1844,-56.5 1844,-75.5 1896,-75.5 1896,-56.5 1844,-56.5"/>
<text text-anchor="middle" x="1870" y="-63.5" font-family="Helvetica,sans-Serif" font-size="10.00">sstream</text>
</g>
<!-- Node6&#45;&gt;Node26 -->
<g id="edge26" class="edge"><title>Node6&#45;&gt;Node26</title>
<path fill="none" stroke="midnightblue" d="M1935.47,-112.324C1923.41,-103.979 1904.97,-91.2122 1890.73,-81.3524"/>
<polygon fill="midnightblue" stroke="midnightblue" points="1892.72,-78.469 1882.5,-75.6545 1888.73,-84.2243 1892.72,-78.469"/>
</g>
<!-- Node27 -->
<g id="node27" class="node"><title>Node27</title>
<polygon fill="none" stroke="#bfbfbf" points="1914,-56.5 1914,-75.5 1982,-75.5 1982,-56.5 1914,-56.5"/>
<text text-anchor="middle" x="1948" y="-63.5" font-family="Helvetica,sans-Serif" font-size="10.00">sys/types.h</text>
</g>
<!-- Node6&#45;&gt;Node27 -->
<g id="edge27" class="edge"><title>Node6&#45;&gt;Node27</title>
<path fill="none" stroke="midnightblue" d="M1948,-112.083C1948,-105.006 1948,-94.8611 1948,-85.9865"/>
<polygon fill="midnightblue" stroke="midnightblue" points="1951.5,-85.751 1948,-75.7511 1944.5,-85.7511 1951.5,-85.751"/>
</g>
<!-- Node28 -->
<g id="node28" class="node"><title>Node28</title>
<polygon fill="none" stroke="#bfbfbf" points="2000,-56.5 2000,-75.5 2060,-75.5 2060,-56.5 2000,-56.5"/>
<text text-anchor="middle" x="2030" y="-63.5" font-family="Helvetica,sans-Serif" font-size="10.00">sys/stat.h</text>
</g>
<!-- Node6&#45;&gt;Node28 -->
<g id="edge28" class="edge"><title>Node6&#45;&gt;Node28</title>
<path fill="none" stroke="midnightblue" d="M1961.17,-112.324C1973.85,-103.979 1993.23,-91.2122 2008.21,-81.3524"/>
<polygon fill="midnightblue" stroke="midnightblue" points="2010.43,-84.0776 2016.86,-75.6545 2006.58,-78.2313 2010.43,-84.0776"/>
</g>
<!-- Node29 -->
<g id="node29" class="node"><title>Node29</title>
<polygon fill="none" stroke="#bfbfbf" points="2078.5,-56.5 2078.5,-75.5 2129.5,-75.5 2129.5,-56.5 2078.5,-56.5"/>
<text text-anchor="middle" x="2104" y="-63.5" font-family="Helvetica,sans-Serif" font-size="10.00">unistd.h</text>
</g>
<!-- Node6&#45;&gt;Node29 -->
<g id="edge29" class="edge"><title>Node6&#45;&gt;Node29</title>
<path fill="none" stroke="midnightblue" d="M1972.72,-112.444C1998.85,-103.399 2040.26,-89.064 2069.58,-78.9158"/>
<polygon fill="midnightblue" stroke="midnightblue" points="2071.09,-82.0951 2079.4,-75.5164 2068.8,-75.4801 2071.09,-82.0951"/>
</g>
<!-- Node30 -->
<g id="node30" class="node"><title>Node30</title>
<polygon fill="none" stroke="#bfbfbf" points="2148,-56.5 2148,-75.5 2194,-75.5 2194,-56.5 2148,-56.5"/>
<text text-anchor="middle" x="2171" y="-63.5" font-family="Helvetica,sans-Serif" font-size="10.00">dlfcn.h</text>
</g>
<!-- Node6&#45;&gt;Node30 -->
<g id="edge30" class="edge"><title>Node6&#45;&gt;Node30</title>
<path fill="none" stroke="midnightblue" d="M1986.53,-112.431C2023.15,-104.173 2080,-91.0641 2138.23,-76.1195"/>
<polygon fill="midnightblue" stroke="midnightblue" points="2139.15,-79.4952 2147.96,-73.6071 2137.4,-72.7173 2139.15,-79.4952"/>
</g>
<!-- Node31 -->
<g id="node31" class="node"><title>Node31</title>
<polygon fill="none" stroke="#bfbfbf" points="2212,-56.5 2212,-75.5 2290,-75.5 2290,-56.5 2212,-56.5"/>
<text text-anchor="middle" x="2251" y="-63.5" font-family="Helvetica,sans-Serif" font-size="10.00">ext/hash_map</text>
</g>
<!-- Node6&#45;&gt;Node31 -->
<g id="edge31" class="edge"><title>Node6&#45;&gt;Node31</title>
<path fill="none" stroke="midnightblue" d="M1997.39,-112.445C2046.67,-103.873 2124.83,-90.1793 2202.07,-76.1544"/>
<polygon fill="midnightblue" stroke="midnightblue" points="2202.76,-79.5863 2211.97,-74.3535 2201.51,-72.6993 2202.76,-79.5863"/>
</g>
<!-- Node32 -->
<g id="node32" class="node"><title>Node32</title>
<polygon fill="none" stroke="#bfbfbf" points="2308.5,-56.5 2308.5,-75.5 2381.5,-75.5 2381.5,-56.5 2308.5,-56.5"/>
<text text-anchor="middle" x="2345" y="-63.5" font-family="Helvetica,sans-Serif" font-size="10.00">ext/hash_set</text>
</g>
<!-- Node6&#45;&gt;Node32 -->
<g id="edge32" class="edge"><title>Node6&#45;&gt;Node32</title>
<path fill="none" stroke="midnightblue" d="M1997.27,-115.717C2063.38,-108.4 2184.69,-94.1739 2298.45,-75.9898"/>
<polygon fill="midnightblue" stroke="midnightblue" points="2299.06,-79.4366 2308.38,-74.3898 2297.95,-72.5257 2299.06,-79.4366"/>
</g>
<!-- Node33 -->
<g id="node33" class="node"><title>Node33</title>
<polygon fill="none" stroke="#bfbfbf" points="2399.5,-56.5 2399.5,-75.5 2470.5,-75.5 2470.5,-56.5 2399.5,-56.5"/>
<text text-anchor="middle" x="2435" y="-63.5" font-family="Helvetica,sans-Serif" font-size="10.00">sys/param.h</text>
</g>
<!-- Node6&#45;&gt;Node33 -->
<g id="edge33" class="edge"><title>Node6&#45;&gt;Node33</title>
<path fill="none" stroke="midnightblue" d="M1997.04,-117.638C2077.11,-111.794 2241.09,-98.3513 2388.87,-76.2038"/>
<polygon fill="midnightblue" stroke="midnightblue" points="2389.67,-79.6229 2399.03,-74.6633 2388.62,-72.702 2389.67,-79.6229"/>
</g>
<!-- Node34 -->
<g id="node34" class="node"><title>Node34</title>
<polygon fill="none" stroke="#bfbfbf" points="2489,-56.5 2489,-75.5 2655,-75.5 2655,-56.5 2489,-56.5"/>
<text text-anchor="middle" x="2572" y="-63.5" font-family="Helvetica,sans-Serif" font-size="10.00">CoreFoundation/CoreFoundation.h</text>
</g>
<!-- Node6&#45;&gt;Node34 -->
<g id="edge34" class="edge"><title>Node6&#45;&gt;Node34</title>
<path fill="none" stroke="midnightblue" d="M1997.16,-117.059C2089.34,-109.621 2294.71,-92.8271 2478.63,-76.1148"/>
<polygon fill="midnightblue" stroke="midnightblue" points="2479.12,-79.5849 2488.76,-75.1925 2478.48,-72.6138 2479.12,-79.5849"/>
</g>
<!-- Node35 -->
<g id="node35" class="node"><title>Node35</title>
<polygon fill="none" stroke="#bfbfbf" points="2673,-56.5 2673,-75.5 2797,-75.5 2797,-56.5 2673,-56.5"/>
<text text-anchor="middle" x="2735" y="-63.5" font-family="Helvetica,sans-Serif" font-size="10.00">emscripten/emscripten.h</text>
</g>
<!-- Node6&#45;&gt;Node35 -->
<g id="edge35" class="edge"><title>Node6&#45;&gt;Node35</title>
<path fill="none" stroke="midnightblue" d="M1997.13,-118.986C2111.75,-114.056 2405.95,-100.068 2662.43,-76.0918"/>
<polygon fill="midnightblue" stroke="midnightblue" points="2663.06,-79.5479 2672.69,-75.1255 2662.4,-72.5788 2663.06,-79.5479"/>
</g>
<!-- Node37 -->
<g id="node37" class="node"><title>Node37</title>
<g id="a_node37"><a xlink:href="_ogre_memory_allocated_object_8h.html" target="_top" xlink:title="OgreMemoryAllocatedObject.h">
<polygon fill="none" stroke="black" points="637,-56.5 637,-75.5 787,-75.5 787,-56.5 637,-56.5"/>
<text text-anchor="middle" x="712" y="-63.5" font-family="Helvetica,sans-Serif" font-size="10.00">OgreMemoryAllocatedObject.h</text>
</a>
</g>
</g>
<!-- Node36&#45;&gt;Node37 -->
<g id="edge37" class="edge"><title>Node36&#45;&gt;Node37</title>
<path fill="none" stroke="midnightblue" d="M585.768,-112.444C610.893,-103.399 650.711,-89.064 678.9,-78.9158"/>
<polygon fill="midnightblue" stroke="midnightblue" points="680.12,-82.1968 688.343,-75.5164 677.749,-75.6106 680.12,-82.1968"/>
</g>
<!-- Node38 -->
<g id="node38" class="node"><title>Node38</title>
<g id="a_node38"><a xlink:href="_ogre_header_prefix_8h.html" target="_top" xlink:title="OgreHeaderPrefix.h">
<polygon fill="none" stroke="black" points="801.5,-0.5 801.5,-19.5 904.5,-19.5 904.5,-0.5 801.5,-0.5"/>
<text text-anchor="middle" x="853" y="-7.5" font-family="Helvetica,sans-Serif" font-size="10.00">OgreHeaderPrefix.h</text>
</a>
</g>
</g>
<!-- Node36&#45;&gt;Node38 -->
<g id="edge41" class="edge"><title>Node36&#45;&gt;Node38</title>
<path fill="none" stroke="midnightblue" d="M568.178,-112.221C578.707,-97.9769 601.573,-70.0139 628,-56 678.822,-29.0501 743.9,-18.1856 790.981,-13.8347"/>
<polygon fill="midnightblue" stroke="midnightblue" points="791.374,-17.314 801.041,-12.9784 790.78,-10.3392 791.374,-17.314"/>
</g>
<!-- Node39 -->
<g id="node39" class="node"><title>Node39</title>
<g id="a_node39"><a xlink:href="_ogre_header_suffix_8h.html" target="_top" xlink:title="OgreHeaderSuffix.h">
<polygon fill="none" stroke="black" points="138.5,-0.5 138.5,-19.5 241.5,-19.5 241.5,-0.5 138.5,-0.5"/>
<text text-anchor="middle" x="190" y="-7.5" font-family="Helvetica,sans-Serif" font-size="10.00">OgreHeaderSuffix.h</text>
</a>
</g>
</g>
<!-- Node36&#45;&gt;Node39 -->
<g id="edge49" class="edge"><title>Node36&#45;&gt;Node39</title>
<path fill="none" stroke="midnightblue" d="M487.924,-117.756C430.746,-113.191 350.591,-102.24 285,-76 255.182,-64.0715 225.364,-41.5048 207.296,-26.3568"/>
<polygon fill="midnightblue" stroke="midnightblue" points="209.289,-23.4547 199.422,-19.5956 204.729,-28.7655 209.289,-23.4547"/>
</g>
<!-- Node40 -->
<g id="node40" class="node"><title>Node40</title>
<g id="a_node40"><a xlink:href="_ogre_memory_s_t_l_allocator_8h.html" target="_top" xlink:title="OgreMemorySTLAllocator.h">
<polygon fill="none" stroke="black" points="294.5,-56.5 294.5,-75.5 431.5,-75.5 431.5,-56.5 294.5,-56.5"/>
<text text-anchor="middle" x="363" y="-63.5" font-family="Helvetica,sans-Serif" font-size="10.00">OgreMemorySTLAllocator.h</text>
</a>
</g>
</g>
<!-- Node36&#45;&gt;Node40 -->
<g id="edge42" class="edge"><title>Node36&#45;&gt;Node40</title>
<path fill="none" stroke="midnightblue" d="M530.468,-112.444C496.408,-103.201 441.994,-88.4356 404.485,-78.2572"/>
<polygon fill="midnightblue" stroke="midnightblue" points="404.952,-74.7575 394.385,-75.5164 403.119,-81.5132 404.952,-74.7575"/>
</g>
<!-- Node41 -->
<g id="node41" class="node"><title>Node41</title>
<g id="a_node41"><a xlink:href="_ogre_memory_ned_pooling_8h.html" target="_top" xlink:title="OgreMemoryNedPooling.h">
<polygon fill="none" stroke="black" points="449.5,-56.5 449.5,-75.5 580.5,-75.5 580.5,-56.5 449.5,-56.5"/>
<text text-anchor="middle" x="515" y="-63.5" font-family="Helvetica,sans-Serif" font-size="10.00">OgreMemoryNedPooling.h</text>
</a>
</g>
</g>
<!-- Node36&#45;&gt;Node41 -->
<g id="edge46" class="edge"><title>Node36&#45;&gt;Node41</title>
<path fill="none" stroke="midnightblue" d="M554.239,-112.083C547.463,-104.298 537.457,-92.8015 529.245,-83.3665"/>
<polygon fill="midnightblue" stroke="midnightblue" points="531.822,-80.9963 522.617,-75.7511 526.542,-85.592 531.822,-80.9963"/>
</g>
<!-- Node37&#45;&gt;Node2 -->
<g id="edge38" class="edge"><title>Node37&#45;&gt;Node2</title>
<path fill="none" stroke="midnightblue" d="M735.197,-75.5914C787.685,-95.0315 915.689,-142.44 976.235,-164.865"/>
<polygon fill="midnightblue" stroke="midnightblue" points="975.102,-168.177 985.695,-168.368 977.533,-161.613 975.102,-168.177"/>
</g>
<!-- Node37&#45;&gt;Node38 -->
<g id="edge39" class="edge"><title>Node37&#45;&gt;Node38</title>
<path fill="none" stroke="midnightblue" d="M734.342,-56.4435C757.753,-47.4776 794.736,-33.314 821.19,-23.1827"/>
<polygon fill="midnightblue" stroke="midnightblue" points="822.676,-26.3615 830.763,-19.5164 820.172,-19.8245 822.676,-26.3615"/>
</g>
<!-- Node37&#45;&gt;Node39 -->
<g id="edge40" class="edge"><title>Node37&#45;&gt;Node39</title>
<path fill="none" stroke="midnightblue" d="M636.932,-57.2344C533.222,-46.5057 348.044,-27.3494 251.845,-17.3978"/>
<polygon fill="midnightblue" stroke="midnightblue" points="251.999,-13.8951 241.692,-16.3474 251.279,-20.8579 251.999,-13.8951"/>
</g>
<!-- Node40&#45;&gt;Node2 -->
<g id="edge43" class="edge"><title>Node40&#45;&gt;Node2</title>
<path fill="none" stroke="midnightblue" d="M374.423,-75.6273C394.399,-90.1816 437.509,-119.269 479,-132 564.889,-158.355 826.402,-170.644 946.945,-175.023"/>
<polygon fill="midnightblue" stroke="midnightblue" points="946.999,-178.527 957.118,-175.386 947.249,-171.532 946.999,-178.527"/>
</g>
<!-- Node40&#45;&gt;Node38 -->
<g id="edge44" class="edge"><title>Node40&#45;&gt;Node38</title>
<path fill="none" stroke="midnightblue" d="M431.844,-56.9263C434.598,-56.6118 437.325,-56.302 440,-56 564.746,-41.9138 710.779,-26.1799 791.486,-17.5506"/>
<polygon fill="midnightblue" stroke="midnightblue" points="791.905,-21.0259 801.477,-16.483 791.161,-14.0655 791.905,-21.0259"/>
</g>
<!-- Node40&#45;&gt;Node39 -->
<g id="edge45" class="edge"><title>Node40&#45;&gt;Node39</title>
<path fill="none" stroke="midnightblue" d="M335.588,-56.4435C306.231,-47.2801 259.481,-32.6876 226.904,-22.5192"/>
<polygon fill="midnightblue" stroke="midnightblue" points="227.873,-19.1551 217.284,-19.5164 225.787,-25.8371 227.873,-19.1551"/>
</g>
<!-- Node41&#45;&gt;Node38 -->
<g id="edge47" class="edge"><title>Node41&#45;&gt;Node38</title>
<path fill="none" stroke="midnightblue" d="M568.557,-56.4435C629.163,-46.7609 727.711,-31.0166 791.438,-20.8353"/>
<polygon fill="midnightblue" stroke="midnightblue" points="792.034,-24.2847 801.356,-19.2508 790.929,-17.3723 792.034,-24.2847"/>
</g>
<!-- Node41&#45;&gt;Node39 -->
<g id="edge48" class="edge"><title>Node41&#45;&gt;Node39</title>
<path fill="none" stroke="midnightblue" d="M463.503,-56.4435C405.856,-46.8654 312.51,-31.3556 251.188,-21.1667"/>
<polygon fill="midnightblue" stroke="midnightblue" points="251.695,-17.7029 241.256,-19.5164 250.547,-24.6082 251.695,-17.7029"/>
</g>
<!-- Node42&#45;&gt;Node2 -->
<g id="edge51" class="edge"><title>Node42&#45;&gt;Node2</title>
<path fill="none" stroke="midnightblue" d="M1152.89,-336.408C1169.05,-315.136 1206.09,-259.199 1179,-224 1165.64,-206.642 1113.84,-194.604 1070.9,-187.377"/>
<polygon fill="midnightblue" stroke="midnightblue" points="1071.2,-183.879 1060.76,-185.731 1070.07,-190.789 1071.2,-183.879"/>
</g>
<!-- Node42&#45;&gt;Node38 -->
<g id="edge52" class="edge"><title>Node42&#45;&gt;Node38</title>
<path fill="none" stroke="midnightblue" d="M1207.69,-345.223C1564.2,-346.117 3345,-345.076 3345,-235 3345,-235 3345,-235 3345,-121 3345,-84.2802 3326.87,-72.3665 3294,-56 3239.13,-28.6782 1289.12,-13.9825 914.79,-11.41"/>
<polygon fill="midnightblue" stroke="midnightblue" points="914.715,-7.9095 904.691,-11.3409 914.667,-14.9093 914.715,-7.9095"/>
</g>
<!-- Node42&#45;&gt;Node39 -->
<g id="edge81" class="edge"><title>Node42&#45;&gt;Node39</title>
<path fill="none" stroke="midnightblue" d="M1084.39,-345.608C846.35,-347.156 0,-344.93 0,-235 0,-235 0,-235 0,-121 0,-60.5031 73.0362,-32.7383 128.544,-20.3729"/>
<polygon fill="midnightblue" stroke="midnightblue" points="129.27,-23.7967 138.333,-18.3084 127.826,-16.9474 129.27,-23.7967"/>
</g>
<!-- Node43 -->
<g id="node43" class="node"><title>Node43</title>
<g id="a_node43"><a xlink:href="_ogre_render_system_8h.html" target="_top" xlink:title="OgreRenderSystem.h">
<polygon fill="none" stroke="black" points="720.5,-280.5 720.5,-299.5 831.5,-299.5 831.5,-280.5 720.5,-280.5"/>
<text text-anchor="middle" x="776" y="-287.5" font-family="Helvetica,sans-Serif" font-size="10.00">OgreRenderSystem.h</text>
</a>
</g>
</g>
<!-- Node42&#45;&gt;Node43 -->
<g id="edge53" class="edge"><title>Node42&#45;&gt;Node43</title>
<path fill="none" stroke="midnightblue" d="M1087.37,-336.444C1020.46,-326.679 911.313,-310.748 841.618,-300.577"/>
<polygon fill="midnightblue" stroke="midnightblue" points="842.032,-297.1 831.631,-299.119 841.021,-304.027 842.032,-297.1"/>
</g>
<!-- Node43&#45;&gt;Node2 -->
<g id="edge54" class="edge"><title>Node43&#45;&gt;Node2</title>
<path fill="none" stroke="midnightblue" d="M784.907,-280.143C799.301,-266.292 829.096,-239.489 859,-224 889.234,-208.34 925.784,-197.232 955.236,-189.971"/>
<polygon fill="midnightblue" stroke="midnightblue" points="956.42,-193.287 965.335,-187.562 954.796,-186.478 956.42,-193.287"/>
</g>
<!-- Node43&#45;&gt;Node38 -->
<g id="edge79" class="edge"><title>Node43&#45;&gt;Node38</title>
<path fill="none" stroke="midnightblue" d="M831.515,-288.083C1202.48,-281.776 3307,-243.17 3307,-179 3307,-179 3307,-179 3307,-121 3307,-87.3101 3297.16,-72.8714 3268,-56 3215.53,-25.6455 1286.88,-13.4095 914.778,-11.3288"/>
<polygon fill="midnightblue" stroke="midnightblue" points="914.756,-7.82876 904.737,-11.273 914.717,-14.8287 914.756,-7.82876"/>
</g>
<!-- Node43&#45;&gt;Node39 -->
<g id="edge80" class="edge"><title>Node43&#45;&gt;Node39</title>
<path fill="none" stroke="midnightblue" d="M720.228,-286.556C548.3,-278.288 38,-247.94 38,-179 38,-179 38,-179 38,-121 38,-67.4368 100.712,-37.2997 145.573,-22.5935"/>
<polygon fill="midnightblue" stroke="midnightblue" points="146.63,-25.9301 155.128,-19.6023 144.539,-19.2497 146.63,-25.9301"/>
</g>
<!-- Node44 -->
<g id="node44" class="node"><title>Node44</title>
<g id="a_node44"><a xlink:href="_ogre_texture_unit_state_8h.html" target="_top" xlink:title="OgreTextureUnitState.h">
<polygon fill="none" stroke="red" points="483,-224.5 483,-243.5 603,-243.5 603,-224.5 483,-224.5"/>
<text text-anchor="middle" x="543" y="-231.5" font-family="Helvetica,sans-Serif" font-size="10.00">OgreTextureUnitState.h</text>
</a>
</g>
</g>
<!-- Node43&#45;&gt;Node44 -->
<g id="edge55" class="edge"><title>Node43&#45;&gt;Node44</title>
<path fill="none" stroke="midnightblue" d="M739.08,-280.444C698.605,-271.063 633.579,-255.993 589.616,-245.804"/>
<polygon fill="midnightblue" stroke="midnightblue" points="590.279,-242.365 579.747,-243.516 588.698,-249.184 590.279,-242.365"/>
</g>
<!-- Node45 -->
<g id="node45" class="node"><title>Node45</title>
<g id="a_node45"><a xlink:href="_ogre_common_8h.html" target="_top" xlink:title="OgreCommon.h">
<polygon fill="none" stroke="black" points="250,-168.5 250,-187.5 336,-187.5 336,-168.5 250,-168.5"/>
<text text-anchor="middle" x="293" y="-175.5" font-family="Helvetica,sans-Serif" font-size="10.00">OgreCommon.h</text>
</a>
</g>
</g>
<!-- Node43&#45;&gt;Node45 -->
<g id="edge62" class="edge"><title>Node43&#45;&gt;Node45</title>
<path fill="none" stroke="midnightblue" d="M720.092,-287.051C603.55,-282.496 342.858,-269.549 312,-244 298.577,-232.887 294.329,-212.853 293.13,-197.954"/>
<polygon fill="midnightblue" stroke="midnightblue" points="296.62,-197.639 292.707,-187.794 289.626,-197.931 296.62,-197.639"/>
</g>
<!-- Node46 -->
<g id="node46" class="node"><title>Node46</title>
<g id="a_node46"><a xlink:href="_ogre_render_system_capabilities_8h.html" target="_top" xlink:title="OgreRenderSystemCapabilities.h">
<polygon fill="none" stroke="red" points="1008,-224.5 1008,-243.5 1170,-243.5 1170,-224.5 1008,-224.5"/>
<text text-anchor="middle" x="1089" y="-231.5" font-family="Helvetica,sans-Serif" font-size="10.00">OgreRenderSystemCapabilities.h</text>
</a>
</g>
</g>
<!-- Node43&#45;&gt;Node46 -->
<g id="edge63" class="edge"><title>Node43&#45;&gt;Node46</title>
<path fill="none" stroke="midnightblue" d="M825.596,-280.444C880.999,-270.885 970.643,-255.419 1029.71,-245.23"/>
<polygon fill="midnightblue" stroke="midnightblue" points="1030.38,-248.666 1039.64,-243.516 1029.19,-241.768 1030.38,-248.666"/>
</g>
<!-- Node47 -->
<g id="node47" class="node"><title>Node47</title>
<g id="a_node47"><a xlink:href="_ogre_config_option_map_8h.html" target="_top" xlink:title="OgreConfigOptionMap.h">
<polygon fill="none" stroke="red" points="868,-224.5 868,-243.5 990,-243.5 990,-224.5 868,-224.5"/>
<text text-anchor="middle" x="929" y="-231.5" font-family="Helvetica,sans-Serif" font-size="10.00">OgreConfigOptionMap.h</text>
</a>
</g>
</g>
<!-- Node43&#45;&gt;Node47 -->
<g id="edge67" class="edge"><title>Node43&#45;&gt;Node47</title>
<path fill="none" stroke="midnightblue" d="M800.243,-280.444C825.871,-271.399 866.485,-257.064 895.238,-246.916"/>
<polygon fill="midnightblue" stroke="midnightblue" points="896.605,-250.145 904.87,-243.516 894.275,-243.544 896.605,-250.145"/>
</g>
<!-- Node48 -->
<g id="node48" class="node"><title>Node48</title>
<g id="a_node48"><a xlink:href="_ogre_gpu_program_8h.html" target="_top" xlink:title="OgreGpuProgram.h">
<polygon fill="none" stroke="red" points="621.5,-224.5 621.5,-243.5 722.5,-243.5 722.5,-224.5 621.5,-224.5"/>
<text text-anchor="middle" x="672" y="-231.5" font-family="Helvetica,sans-Serif" font-size="10.00">OgreGpuProgram.h</text>
</a>
</g>
</g>
<!-- Node43&#45;&gt;Node48 -->
<g id="edge69" class="edge"><title>Node43&#45;&gt;Node48</title>
<path fill="none" stroke="midnightblue" d="M759.291,-280.324C742.688,-271.703 716.998,-258.364 697.78,-248.386"/>
<polygon fill="midnightblue" stroke="midnightblue" points="699.156,-245.156 688.668,-243.655 695.93,-251.369 699.156,-245.156"/>
</g>
<!-- Node49 -->
<g id="node49" class="node"><title>Node49</title>
<g id="a_node49"><a xlink:href="_ogre_plane_8h.html" target="_top" xlink:title="OgrePlane.h">
<polygon fill="none" stroke="red" points="740.5,-224.5 740.5,-243.5 811.5,-243.5 811.5,-224.5 740.5,-224.5"/>
<text text-anchor="middle" x="776" y="-231.5" font-family="Helvetica,sans-Serif" font-size="10.00">OgrePlane.h</text>
</a>
</g>
</g>
<!-- Node43&#45;&gt;Node49 -->
<g id="edge73" class="edge"><title>Node43&#45;&gt;Node49</title>
<path fill="none" stroke="midnightblue" d="M776,-280.083C776,-273.006 776,-262.861 776,-253.986"/>
<polygon fill="midnightblue" stroke="midnightblue" points="779.5,-253.751 776,-243.751 772.5,-253.751 779.5,-253.751"/>
</g>
<!-- Node50 -->
<g id="node50" class="node"><title>Node50</title>
<g id="a_node50"><a xlink:href="_ogre_hardware_vertex_buffer_8h.html" target="_top" xlink:title="OgreHardwareVertexBuffer.h">
<polygon fill="none" stroke="red" points="321.5,-224.5 321.5,-243.5 464.5,-243.5 464.5,-224.5 321.5,-224.5"/>
<text text-anchor="middle" x="393" y="-231.5" font-family="Helvetica,sans-Serif" font-size="10.00">OgreHardwareVertexBuffer.h</text>
</a>
</g>
</g>
<!-- Node43&#45;&gt;Node50 -->
<g id="edge75" class="edge"><title>Node43&#45;&gt;Node50</title>
<path fill="none" stroke="midnightblue" d="M720.309,-281.148C652.442,-271.579 537.692,-255.4 463.667,-244.964"/>
<polygon fill="midnightblue" stroke="midnightblue" points="463.892,-241.461 453.502,-243.53 462.915,-248.392 463.892,-241.461"/>
</g>
<!-- Node44&#45;&gt;Node2 -->
<g id="edge56" class="edge"><title>Node44&#45;&gt;Node2</title>
<path fill="none" stroke="midnightblue" d="M603.203,-225.087C606.177,-224.715 609.122,-224.351 612,-224 730.449,-209.563 868.975,-194.209 947.109,-185.689"/>
<polygon fill="midnightblue" stroke="midnightblue" points="947.699,-189.146 957.261,-184.584 946.941,-182.187 947.699,-189.146"/>
</g>
<!-- Node44&#45;&gt;Node38 -->
<g id="edge60" class="edge"><title>Node44&#45;&gt;Node38</title>
<path fill="none" stroke="midnightblue" d="M594.475,-224.495C677.363,-209.633 834.44,-176.255 867,-132 889.47,-101.459 873.597,-54.3446 862.069,-28.8531"/>
<polygon fill="midnightblue" stroke="midnightblue" points="865.137,-27.1568 857.663,-19.648 858.823,-30.1791 865.137,-27.1568"/>
</g>
<!-- Node44&#45;&gt;Node39 -->
<g id="edge61" class="edge"><title>Node44&#45;&gt;Node39</title>
<path fill="none" stroke="midnightblue" d="M482.837,-225.006C397.853,-213.573 251.72,-193.341 241,-188 188.46,-161.823 177.68,-134.319 171,-76 169.988,-67.1689 169.236,-64.7121 171,-56 172.893,-46.6493 176.792,-36.8267 180.567,-28.7526"/>
<polygon fill="midnightblue" stroke="midnightblue" points="183.788,-30.1381 185.124,-19.6279 177.525,-27.0106 183.788,-30.1381"/>
</g>
<!-- Node44&#45;&gt;Node45 -->
<g id="edge57" class="edge"><title>Node44&#45;&gt;Node45</title>
<path fill="none" stroke="midnightblue" d="M503.387,-224.444C459.775,-215.023 389.6,-199.866 342.422,-189.675"/>
<polygon fill="midnightblue" stroke="midnightblue" points="342.941,-186.207 332.428,-187.516 341.464,-193.049 342.941,-186.207"/>
</g>
<!-- Node45&#45;&gt;Node38 -->
<g id="edge58" class="edge"><title>Node45&#45;&gt;Node38</title>
<path fill="none" stroke="midnightblue" d="M336.236,-170.01C340.879,-169.308 345.535,-168.625 350,-168 550.443,-139.954 629.3,-190.783 796,-76 814.659,-63.1522 831.13,-42.8587 841.507,-28.3658"/>
<polygon fill="midnightblue" stroke="midnightblue" points="844.608,-30.0342 847.408,-19.816 838.847,-26.0581 844.608,-30.0342"/>
</g>
<!-- Node45&#45;&gt;Node39 -->
<g id="edge59" class="edge"><title>Node45&#45;&gt;Node39</title>
<path fill="none" stroke="midnightblue" d="M267.235,-168.415C248.436,-161.111 223.319,-149.07 206,-132 180.137,-106.508 170.544,-91.902 176,-56 177.368,-47.001 180.19,-37.3251 182.945,-29.2601"/>
<polygon fill="midnightblue" stroke="midnightblue" points="186.265,-30.3722 186.4,-19.7782 179.688,-27.9759 186.265,-30.3722"/>
</g>
<!-- Node46&#45;&gt;Node2 -->
<g id="edge64" class="edge"><title>Node46&#45;&gt;Node2</title>
<path fill="none" stroke="midnightblue" d="M1076.15,-224.324C1063.78,-215.979 1044.87,-203.212 1030.26,-193.352"/>
<polygon fill="midnightblue" stroke="midnightblue" points="1032.07,-190.348 1021.82,-187.655 1028.15,-196.15 1032.07,-190.348"/>
</g>
<!-- Node46&#45;&gt;Node38 -->
<g id="edge65" class="edge"><title>Node46&#45;&gt;Node38</title>
<path fill="none" stroke="midnightblue" d="M1170.31,-232.579C1580.77,-229.76 3399.8,-208.634 3250,-56 3207.86,-13.0614 1285.57,-10.9784 914.595,-10.9766"/>
<polygon fill="midnightblue" stroke="midnightblue" points="914.584,-7.47649 904.585,-10.9771 914.585,-14.4765 914.584,-7.47649"/>
</g>
<!-- Node46&#45;&gt;Node39 -->
<g id="edge66" class="edge"><title>Node46&#45;&gt;Node39</title>
<path fill="none" stroke="midnightblue" d="M1008.81,-224.494C883.888,-210.4 635.704,-179.015 429,-132 345.648,-113.041 316.409,-122.988 245,-76 226.158,-63.6019 210.239,-42.8929 200.451,-28.1838"/>
<polygon fill="midnightblue" stroke="midnightblue" points="203.263,-26.0828 194.936,-19.5319 197.36,-29.8457 203.263,-26.0828"/>
</g>
<!-- Node47&#45;&gt;Node2 -->
<g id="edge68" class="edge"><title>Node47&#45;&gt;Node2</title>
<path fill="none" stroke="midnightblue" d="M941.853,-224.324C954.216,-215.979 973.13,-203.212 987.737,-193.352"/>
<polygon fill="midnightblue" stroke="midnightblue" points="989.848,-196.15 996.179,-187.655 985.932,-190.348 989.848,-196.15"/>
</g>
<!-- Node48&#45;&gt;Node2 -->
<g id="edge70" class="edge"><title>Node48&#45;&gt;Node2</title>
<path fill="none" stroke="midnightblue" d="M722.817,-224.857C782.945,-215.222 883.006,-199.189 947.464,-188.86"/>
<polygon fill="midnightblue" stroke="midnightblue" points="948.172,-192.292 957.492,-187.253 947.064,-185.38 948.172,-192.292"/>
</g>
<!-- Node48&#45;&gt;Node38 -->
<g id="edge71" class="edge"><title>Node48&#45;&gt;Node38</title>
<path fill="none" stroke="midnightblue" d="M722.648,-224.89C789.417,-213.957 899.181,-195.05 905,-188 942.344,-142.754 929.388,-109.357 905,-56 899.223,-43.3602 887.948,-32.911 877.369,-25.2737"/>
<polygon fill="midnightblue" stroke="midnightblue" points="879.042,-22.1817 868.783,-19.5333 875.151,-28.0009 879.042,-22.1817"/>
</g>
<!-- Node48&#45;&gt;Node39 -->
<g id="edge72" class="edge"><title>Node48&#45;&gt;Node39</title>
<path fill="none" stroke="midnightblue" d="M621.42,-225.291C560.405,-215.723 461.591,-199.291 426,-188 369.516,-170.081 357.214,-160.022 305,-132 263.156,-109.543 244.097,-112.734 214,-76 203.051,-62.6372 196.834,-43.8118 193.485,-29.8577"/>
<polygon fill="midnightblue" stroke="midnightblue" points="196.874,-28.9668 191.379,-19.9086 190.026,-30.4167 196.874,-28.9668"/>
</g>
<!-- Node49&#45;&gt;Node2 -->
<g id="edge74" class="edge"><title>Node49&#45;&gt;Node2</title>
<path fill="none" stroke="midnightblue" d="M811.641,-224.74C851.971,-215.393 917.81,-200.134 962.238,-189.837"/>
<polygon fill="midnightblue" stroke="midnightblue" points="963.257,-193.194 972.209,-187.527 961.676,-186.375 963.257,-193.194"/>
</g>
<!-- Node50&#45;&gt;Node2 -->
<g id="edge76" class="edge"><title>Node50&#45;&gt;Node2</title>
<path fill="none" stroke="midnightblue" d="M464.543,-224.946C467.738,-224.619 470.902,-224.302 474,-224 645.133,-207.298 847.432,-191.301 947.12,-183.664"/>
<polygon fill="midnightblue" stroke="midnightblue" points="947.608,-187.137 957.312,-182.886 947.075,-180.158 947.608,-187.137"/>
</g>
<!-- Node50&#45;&gt;Node38 -->
<g id="edge77" class="edge"><title>Node50&#45;&gt;Node38</title>
<path fill="none" stroke="midnightblue" d="M432.684,-224.476C496.731,-209.974 626.109,-177.579 729,-132 773.114,-112.458 789.577,-111.73 822,-76 834.185,-62.572 842.513,-43.4967 847.444,-29.4825"/>
<polygon fill="midnightblue" stroke="midnightblue" points="850.786,-30.5221 850.56,-19.9297 844.131,-28.3515 850.786,-30.5221"/>
</g>
<!-- Node50&#45;&gt;Node39 -->
<g id="edge78" class="edge"><title>Node50&#45;&gt;Node39</title>
<path fill="none" stroke="midnightblue" d="M321.183,-232.279C243.798,-229.797 127.943,-220.563 100,-188 61.7946,-143.479 69.1571,-105.905 100,-56 109.673,-40.348 126.622,-29.958 143.222,-23.1496"/>
<polygon fill="midnightblue" stroke="midnightblue" points="144.751,-26.3151 152.898,-19.5421 142.305,-19.7561 144.751,-26.3151"/>
</g>
</g>
</svg>
