<?xml version="1.0" encoding="UTF-8" standalone="no"?>
<!DOCTYPE svg PUBLIC "-//W3C//DTD SVG 1.1//EN"
 "http://www.w3.org/Graphics/SVG/1.1/DTD/svg11.dtd">
<!-- Generated by graphviz version 2.38.0 (20140413.2041)
 -->
<!-- Title: OgreShaderMaterialSerializerListener.h Pages: 1 -->
<svg width="3055pt" height="823pt"
 viewBox="0.00 0.00 3054.50 823.00" xmlns="http://www.w3.org/2000/svg" xmlns:xlink="http://www.w3.org/1999/xlink">
<g id="graph0" class="graph" transform="scale(1 1) rotate(0) translate(4 819)">
<title>OgreShaderMaterialSerializerListener.h</title>
<!-- Node1 -->
<g id="node1" class="node"><title>Node1</title>
<polygon fill="#bfbfbf" stroke="black" points="2202,-784.5 2202,-814.5 2345,-814.5 2345,-784.5 2202,-784.5"/>
<text text-anchor="start" x="2210" y="-802.5" font-family="Helvetica,sans-Serif" font-size="10.00">OgreShaderMaterialSerializer</text>
<text text-anchor="middle" x="2273.5" y="-791.5" font-family="Helvetica,sans-Serif" font-size="10.00">Listener.h</text>
</g>
<!-- Node2 -->
<g id="node2" class="node"><title>Node2</title>
<g id="a_node2"><a xlink:href="_ogre_shader_prerequisites_8h.html" target="_top" xlink:title="OgreShaderPrerequisites.h">
<polygon fill="none" stroke="black" points="2718.5,-504.5 2718.5,-523.5 2852.5,-523.5 2852.5,-504.5 2718.5,-504.5"/>
<text text-anchor="middle" x="2785.5" y="-511.5" font-family="Helvetica,sans-Serif" font-size="10.00">OgreShaderPrerequisites.h</text>
</a>
</g>
</g>
<!-- Node1&#45;&gt;Node2 -->
<g id="edge1" class="edge"><title>Node1&#45;&gt;Node2</title>
<path fill="none" stroke="midnightblue" d="M2324.8,-784.436C2370.93,-768.298 2431.5,-736.856 2431.5,-683 2431.5,-683 2431.5,-683 2431.5,-625 2431.5,-593.766 2635.07,-546.647 2733.46,-525.696"/>
<polygon fill="midnightblue" stroke="midnightblue" points="2734.44,-529.067 2743.5,-523.572 2732.99,-522.218 2734.44,-529.067"/>
</g>
<!-- Node14 -->
<g id="node14" class="node"><title>Node14</title>
<g id="a_node14"><a xlink:href="_ogre_material_serializer_8h.html" target="_top" xlink:title="OgreMaterialSerializer.h">
<polygon fill="none" stroke="black" points="205,-448.5 205,-467.5 326,-467.5 326,-448.5 205,-448.5"/>
<text text-anchor="middle" x="265.5" y="-455.5" font-family="Helvetica,sans-Serif" font-size="10.00">OgreMaterialSerializer.h</text>
</a>
</g>
</g>
<!-- Node1&#45;&gt;Node14 -->
<g id="edge16" class="edge"><title>Node1&#45;&gt;Node14</title>
<path fill="none" stroke="midnightblue" d="M2201.79,-798.147C1846.46,-795.939 291.5,-780.696 291.5,-683 291.5,-683 291.5,-683 291.5,-569 291.5,-535.929 280.232,-498.729 272.532,-477.168"/>
<polygon fill="midnightblue" stroke="midnightblue" points="275.769,-475.831 269.006,-467.675 269.207,-478.268 275.769,-475.831"/>
</g>
<!-- Node29 -->
<g id="node29" class="node"><title>Node29</title>
<g id="a_node29"><a xlink:href="_ogre_shader_generator_8h.html" target="_top" xlink:title="OgreShaderGenerator.h">
<polygon fill="none" stroke="black" points="2214,-728.5 2214,-747.5 2333,-747.5 2333,-728.5 2214,-728.5"/>
<text text-anchor="middle" x="2273.5" y="-735.5" font-family="Helvetica,sans-Serif" font-size="10.00">OgreShaderGenerator.h</text>
</a>
</g>
</g>
<!-- Node1&#45;&gt;Node29 -->
<g id="edge66" class="edge"><title>Node1&#45;&gt;Node29</title>
<path fill="none" stroke="midnightblue" d="M2273.5,-784.399C2273.5,-776.466 2273.5,-766.458 2273.5,-757.858"/>
<polygon fill="midnightblue" stroke="midnightblue" points="2277,-757.658 2273.5,-747.658 2270,-757.658 2277,-757.658"/>
</g>
<!-- Node3 -->
<g id="node3" class="node"><title>Node3</title>
<g id="a_node3"><a xlink:href="_ogre_prerequisites_8h.html" target="_top" xlink:title="OgrePrerequisites.h">
<polygon fill="none" stroke="black" points="1367,-112.5 1367,-131.5 1470,-131.5 1470,-112.5 1367,-112.5"/>
<text text-anchor="middle" x="1418.5" y="-119.5" font-family="Helvetica,sans-Serif" font-size="10.00">OgrePrerequisites.h</text>
</a>
</g>
</g>
<!-- Node2&#45;&gt;Node3 -->
<g id="edge2" class="edge"><title>Node2&#45;&gt;Node3</title>
<path fill="none" stroke="midnightblue" d="M2796.28,-504.264C2816.15,-487.113 2856.5,-446.869 2856.5,-403 2856.5,-403 2856.5,-403 2856.5,-289 2856.5,-258.775 2859.37,-243.766 2836.5,-224 2796.86,-189.738 2655.11,-197.042 2603.5,-188 2558,-180.027 2547.38,-173.419 2501.5,-168 2114.8,-122.324 1645.69,-121.086 1480.02,-122.291"/>
<polygon fill="midnightblue" stroke="midnightblue" points="1479.99,-118.791 1470.02,-122.37 1480.05,-125.791 1479.99,-118.791"/>
</g>
<!-- Node13 -->
<g id="node13" class="node"><title>Node13</title>
<g id="a_node13"><a xlink:href="_ogre_common_8h.html" target="_top" xlink:title="OgreCommon.h">
<polygon fill="none" stroke="black" points="2351.5,-168.5 2351.5,-187.5 2437.5,-187.5 2437.5,-168.5 2351.5,-168.5"/>
<text text-anchor="middle" x="2394.5" y="-175.5" font-family="Helvetica,sans-Serif" font-size="10.00">OgreCommon.h</text>
</a>
</g>
</g>
<!-- Node2&#45;&gt;Node13 -->
<g id="edge13" class="edge"><title>Node2&#45;&gt;Node13</title>
<path fill="none" stroke="midnightblue" d="M2775.44,-504.408C2722.94,-459.561 2480.18,-252.192 2412.22,-194.14"/>
<polygon fill="midnightblue" stroke="midnightblue" points="2414.37,-191.369 2404.49,-187.535 2409.82,-196.691 2414.37,-191.369"/>
</g>
<!-- Node4 -->
<g id="node4" class="node"><title>Node4</title>
<g id="a_node4"><a xlink:href="_ogre_platform_8h.html" target="_top" xlink:title="OgrePlatform.h">
<polygon fill="none" stroke="black" points="956,-56.5 956,-75.5 1039,-75.5 1039,-56.5 956,-56.5"/>
<text text-anchor="middle" x="997.5" y="-63.5" font-family="Helvetica,sans-Serif" font-size="10.00">OgrePlatform.h</text>
</a>
</g>
</g>
<!-- Node3&#45;&gt;Node4 -->
<g id="edge3" class="edge"><title>Node3&#45;&gt;Node4</title>
<path fill="none" stroke="midnightblue" d="M1366.88,-114.379C1285.92,-103.994 1129.99,-83.9938 1049.06,-73.6139"/>
<polygon fill="midnightblue" stroke="midnightblue" points="1049.47,-70.1371 1039.1,-72.3364 1048.58,-77.0802 1049.47,-70.1371"/>
</g>
<!-- Node6 -->
<g id="node6" class="node"><title>Node6</title>
<polygon fill="none" stroke="#bfbfbf" points="273,-0.5 273,-19.5 314,-19.5 314,-0.5 273,-0.5"/>
<text text-anchor="middle" x="293.5" y="-7.5" font-family="Helvetica,sans-Serif" font-size="10.00">string</text>
</g>
<!-- Node3&#45;&gt;Node6 -->
<g id="edge5" class="edge"><title>Node3&#45;&gt;Node6</title>
<path fill="none" stroke="midnightblue" d="M1366.81,-116.143C1279.97,-107.967 1099.3,-90.8883 946.5,-76 706.813,-52.645 417.739,-23.5424 324.253,-14.107"/>
<polygon fill="midnightblue" stroke="midnightblue" points="324.384,-10.6026 314.083,-13.0803 323.681,-17.5672 324.384,-10.6026"/>
</g>
<!-- Node7 -->
<g id="node7" class="node"><title>Node7</title>
<g id="a_node7"><a xlink:href="_ogre_std_headers_8h.html" target="_top" xlink:title="OgreStdHeaders.h">
<polygon fill="none" stroke="red" points="7.5,-56.5 7.5,-75.5 105.5,-75.5 105.5,-56.5 7.5,-56.5"/>
<text text-anchor="middle" x="56.5" y="-63.5" font-family="Helvetica,sans-Serif" font-size="10.00">OgreStdHeaders.h</text>
</a>
</g>
</g>
<!-- Node3&#45;&gt;Node7 -->
<g id="edge6" class="edge"><title>Node3&#45;&gt;Node7</title>
<path fill="none" stroke="midnightblue" d="M1366.77,-118.949C1153.46,-110.492 342.658,-78.3455 115.799,-69.3511"/>
<polygon fill="midnightblue" stroke="midnightblue" points="115.888,-65.8519 105.757,-68.9529 115.61,-72.8464 115.888,-65.8519"/>
</g>
<!-- Node10 -->
<g id="node10" class="node"><title>Node10</title>
<g id="a_node10"><a xlink:href="_ogre_memory_allocator_config_8h.html" target="_top" xlink:title="This file configures Ogre&#39;s memory allocators. ">
<polygon fill="none" stroke="red" points="1817.5,-56.5 1817.5,-75.5 1965.5,-75.5 1965.5,-56.5 1817.5,-56.5"/>
<text text-anchor="middle" x="1891.5" y="-63.5" font-family="Helvetica,sans-Serif" font-size="10.00">OgreMemoryAllocatorConfig.h</text>
</a>
</g>
</g>
<!-- Node3&#45;&gt;Node10 -->
<g id="edge10" class="edge"><title>Node3&#45;&gt;Node10</title>
<path fill="none" stroke="midnightblue" d="M1470.02,-115.118C1551.07,-105.865 1709.2,-87.8127 1807.04,-76.642"/>
<polygon fill="midnightblue" stroke="midnightblue" points="1807.66,-80.0944 1817.2,-75.4826 1806.87,-73.1396 1807.66,-80.0944"/>
</g>
<!-- Node5 -->
<g id="node5" class="node"><title>Node5</title>
<g id="a_node5"><a xlink:href="_ogre_config_8h.html" target="_top" xlink:title="OgreConfig.h">
<polygon fill="none" stroke="red" points="960.5,-0.5 960.5,-19.5 1034.5,-19.5 1034.5,-0.5 960.5,-0.5"/>
<text text-anchor="middle" x="997.5" y="-7.5" font-family="Helvetica,sans-Serif" font-size="10.00">OgreConfig.h</text>
</a>
</g>
</g>
<!-- Node4&#45;&gt;Node5 -->
<g id="edge4" class="edge"><title>Node4&#45;&gt;Node5</title>
<path fill="none" stroke="midnightblue" d="M997.5,-56.083C997.5,-49.0059 997.5,-38.8611 997.5,-29.9865"/>
<polygon fill="midnightblue" stroke="midnightblue" points="1001,-29.751 997.5,-19.7511 994,-29.7511 1001,-29.751"/>
</g>
<!-- Node7&#45;&gt;Node6 -->
<g id="edge9" class="edge"><title>Node7&#45;&gt;Node6</title>
<path fill="none" stroke="midnightblue" d="M94.0534,-56.4435C140.839,-45.7836 219.87,-27.7765 263.066,-17.9343"/>
<polygon fill="midnightblue" stroke="midnightblue" points="264.01,-21.3091 272.982,-15.6749 262.455,-14.484 264.01,-21.3091"/>
</g>
<!-- Node8 -->
<g id="node8" class="node"><title>Node8</title>
<polygon fill="none" stroke="#bfbfbf" points="0,-0.5 0,-19.5 49,-19.5 49,-0.5 0,-0.5"/>
<text text-anchor="middle" x="24.5" y="-7.5" font-family="Helvetica,sans-Serif" font-size="10.00">cassert</text>
</g>
<!-- Node7&#45;&gt;Node8 -->
<g id="edge7" class="edge"><title>Node7&#45;&gt;Node8</title>
<path fill="none" stroke="midnightblue" d="M51.2159,-56.083C46.789,-48.6127 40.3367,-37.7244 34.8821,-28.5199"/>
<polygon fill="midnightblue" stroke="midnightblue" points="37.7949,-26.5697 29.6858,-19.7511 31.7729,-30.1383 37.7949,-26.5697"/>
</g>
<!-- Node9 -->
<g id="node9" class="node"><title>Node9</title>
<polygon fill="none" stroke="#bfbfbf" points="67,-0.5 67,-19.5 110,-19.5 110,-0.5 67,-0.5"/>
<text text-anchor="middle" x="88.5" y="-7.5" font-family="Helvetica,sans-Serif" font-size="10.00">cstdio</text>
</g>
<!-- Node7&#45;&gt;Node9 -->
<g id="edge8" class="edge"><title>Node7&#45;&gt;Node9</title>
<path fill="none" stroke="midnightblue" d="M61.7841,-56.083C66.211,-48.6127 72.6633,-37.7244 78.1179,-28.5199"/>
<polygon fill="midnightblue" stroke="midnightblue" points="81.2271,-30.1383 83.3142,-19.7511 75.2051,-26.5697 81.2271,-30.1383"/>
</g>
<!-- Node11 -->
<g id="node11" class="node"><title>Node11</title>
<g id="a_node11"><a xlink:href="_ogre_header_prefix_8h.html" target="_top" xlink:title="OgreHeaderPrefix.h">
<polygon fill="none" stroke="black" points="1891,-0.5 1891,-19.5 1994,-19.5 1994,-0.5 1891,-0.5"/>
<text text-anchor="middle" x="1942.5" y="-7.5" font-family="Helvetica,sans-Serif" font-size="10.00">OgreHeaderPrefix.h</text>
</a>
</g>
</g>
<!-- Node10&#45;&gt;Node11 -->
<g id="edge11" class="edge"><title>Node10&#45;&gt;Node11</title>
<path fill="none" stroke="midnightblue" d="M1899.92,-56.083C1907.35,-48.2195 1918.35,-36.5688 1927.31,-27.0813"/>
<polygon fill="midnightblue" stroke="midnightblue" points="1929.91,-29.4244 1934.24,-19.7511 1924.82,-24.618 1929.91,-29.4244"/>
</g>
<!-- Node12 -->
<g id="node12" class="node"><title>Node12</title>
<g id="a_node12"><a xlink:href="_ogre_header_suffix_8h.html" target="_top" xlink:title="OgreHeaderSuffix.h">
<polygon fill="none" stroke="black" points="2360,-0.5 2360,-19.5 2463,-19.5 2463,-0.5 2360,-0.5"/>
<text text-anchor="middle" x="2411.5" y="-7.5" font-family="Helvetica,sans-Serif" font-size="10.00">OgreHeaderSuffix.h</text>
</a>
</g>
</g>
<!-- Node10&#45;&gt;Node12 -->
<g id="edge12" class="edge"><title>Node10&#45;&gt;Node12</title>
<path fill="none" stroke="midnightblue" d="M1965.73,-57.2918C2068.88,-46.5796 2253.7,-27.3865 2349.75,-17.4128"/>
<polygon fill="midnightblue" stroke="midnightblue" points="2350.3,-20.8744 2359.88,-16.3601 2349.58,-13.9119 2350.3,-20.8744"/>
</g>
<!-- Node13&#45;&gt;Node11 -->
<g id="edge14" class="edge"><title>Node13&#45;&gt;Node11</title>
<path fill="none" stroke="midnightblue" d="M2372.24,-168.463C2319.92,-148.438 2184.97,-97.0385 2071.5,-56 2039.8,-44.5338 2003.53,-31.9284 1977.54,-22.9833"/>
<polygon fill="midnightblue" stroke="midnightblue" points="1978.37,-19.5654 1967.77,-19.6258 1976.09,-26.1855 1978.37,-19.5654"/>
</g>
<!-- Node13&#45;&gt;Node12 -->
<g id="edge15" class="edge"><title>Node13&#45;&gt;Node12</title>
<path fill="none" stroke="midnightblue" d="M2437.6,-171.231C2490,-161.654 2576.28,-137.045 2615.5,-76 2620.3,-68.5215 2621.07,-62.9294 2615.5,-56 2597.89,-34.0871 2526.81,-22.2123 2473.47,-16.2534"/>
<polygon fill="midnightblue" stroke="midnightblue" points="2473.72,-12.7595 2463.4,-15.1739 2472.97,-19.7196 2473.72,-12.7595"/>
</g>
<!-- Node14&#45;&gt;Node3 -->
<g id="edge17" class="edge"><title>Node14&#45;&gt;Node3</title>
<path fill="none" stroke="midnightblue" d="M263.072,-448.24C258.159,-429.711 247.5,-385.122 247.5,-347 247.5,-347 247.5,-347 247.5,-233 247.5,-183.298 291.495,-184.15 338.5,-168 434.65,-134.965 1141.89,-125.613 1356.76,-123.52"/>
<polygon fill="midnightblue" stroke="midnightblue" points="1356.95,-127.019 1366.91,-123.423 1356.88,-120.019 1356.95,-127.019"/>
</g>
<!-- Node14&#45;&gt;Node11 -->
<g id="edge64" class="edge"><title>Node14&#45;&gt;Node11</title>
<path fill="none" stroke="midnightblue" d="M224.739,-448.492C202.292,-441.921 175.433,-430.685 157.5,-412 136.176,-389.782 133.5,-377.795 133.5,-347 133.5,-347 133.5,-347 133.5,-121 133.5,-41.3539 222.43,-71.7678 300.5,-56 457.207,-24.3499 1599.25,-13.6197 1880.19,-11.4445"/>
<polygon fill="midnightblue" stroke="midnightblue" points="1880.63,-14.9414 1890.6,-11.3648 1880.57,-7.94161 1880.63,-14.9414"/>
</g>
<!-- Node14&#45;&gt;Node12 -->
<g id="edge65" class="edge"><title>Node14&#45;&gt;Node12</title>
<path fill="none" stroke="midnightblue" d="M249.978,-448.353C223.279,-432.203 171.5,-394.729 171.5,-347 171.5,-347 171.5,-347 171.5,-289 171.5,-85.8504 592.872,-57.7079 602.5,-56 624.483,-52.1002 2035,-19.6169 2349.7,-12.4118"/>
<polygon fill="midnightblue" stroke="midnightblue" points="2350.08,-15.9042 2360,-12.1762 2349.92,-8.90601 2350.08,-15.9042"/>
</g>
<!-- Node15 -->
<g id="node15" class="node"><title>Node15</title>
<g id="a_node15"><a xlink:href="_ogre_texture_unit_state_8h.html" target="_top" xlink:title="OgreTextureUnitState.h">
<polygon fill="none" stroke="black" points="1499.5,-392.5 1499.5,-411.5 1619.5,-411.5 1619.5,-392.5 1499.5,-392.5"/>
<text text-anchor="middle" x="1559.5" y="-399.5" font-family="Helvetica,sans-Serif" font-size="10.00">OgreTextureUnitState.h</text>
</a>
</g>
</g>
<!-- Node14&#45;&gt;Node15 -->
<g id="edge18" class="edge"><title>Node14&#45;&gt;Node15</title>
<path fill="none" stroke="midnightblue" d="M326.177,-454.468C540.364,-445.53 1260.41,-415.482 1489.13,-405.936"/>
<polygon fill="midnightblue" stroke="midnightblue" points="1489.48,-409.425 1499.33,-405.511 1489.19,-402.431 1489.48,-409.425"/>
</g>
<!-- Node25 -->
<g id="node25" class="node"><title>Node25</title>
<g id="a_node25"><a xlink:href="_ogre_gpu_program_8h.html" target="_top" xlink:title="OgreGpuProgram.h">
<polygon fill="none" stroke="black" points="581,-280.5 581,-299.5 682,-299.5 682,-280.5 581,-280.5"/>
<text text-anchor="middle" x="631.5" y="-287.5" font-family="Helvetica,sans-Serif" font-size="10.00">OgreGpuProgram.h</text>
</a>
</g>
</g>
<!-- Node14&#45;&gt;Node25 -->
<g id="edge45" class="edge"><title>Node14&#45;&gt;Node25</title>
<path fill="none" stroke="midnightblue" d="M284.407,-448.425C344.523,-421.159 531.515,-336.348 603.167,-303.851"/>
<polygon fill="midnightblue" stroke="midnightblue" points="604.825,-306.942 612.486,-299.624 601.934,-300.567 604.825,-306.942"/>
</g>
<!-- Node27 -->
<g id="node27" class="node"><title>Node27</title>
<g id="a_node27"><a xlink:href="_ogre_string_vector_8h.html" target="_top" xlink:title="OgreStringVector.h">
<polygon fill="none" stroke="black" points="465.5,-224.5 465.5,-243.5 565.5,-243.5 565.5,-224.5 465.5,-224.5"/>
<text text-anchor="middle" x="515.5" y="-231.5" font-family="Helvetica,sans-Serif" font-size="10.00">OgreStringVector.h</text>
</a>
</g>
</g>
<!-- Node14&#45;&gt;Node27 -->
<g id="edge57" class="edge"><title>Node14&#45;&gt;Node27</title>
<path fill="none" stroke="midnightblue" d="M264.447,-448.102C261.571,-419.257 256.725,-327.454 304.5,-280 315.271,-269.302 397.021,-254.106 455.531,-244.4"/>
<polygon fill="midnightblue" stroke="midnightblue" points="456.134,-247.848 465.434,-242.773 454.999,-240.941 456.134,-247.848"/>
</g>
<!-- Node15&#45;&gt;Node3 -->
<g id="edge19" class="edge"><title>Node15&#45;&gt;Node3</title>
<path fill="none" stroke="midnightblue" d="M1559.98,-392.316C1560.4,-379.589 1560.13,-355.291 1553.5,-336 1537.71,-290.064 1519.79,-285.474 1494.5,-244 1474.18,-210.675 1471.61,-200.829 1450.5,-168 1444.41,-158.526 1437.17,-148.269 1431.11,-139.943"/>
<polygon fill="midnightblue" stroke="midnightblue" points="1433.87,-137.78 1425.13,-131.796 1428.23,-141.926 1433.87,-137.78"/>
</g>
<!-- Node15&#45;&gt;Node11 -->
<g id="edge43" class="edge"><title>Node15&#45;&gt;Node11</title>
<path fill="none" stroke="midnightblue" d="M1567.48,-392.409C1593.8,-364.502 1681.27,-275.247 1769.5,-224 1809.62,-200.695 1840.94,-226.049 1867.5,-188 1872.59,-180.711 1870,-176.53 1867.5,-168 1853.84,-121.386 1822.16,-122.614 1808.5,-76 1806,-67.47 1803.31,-63.2169 1808.5,-56 1825.08,-32.9441 1854.05,-21.5371 1880.82,-15.9588"/>
<polygon fill="midnightblue" stroke="midnightblue" points="1881.74,-19.348 1890.94,-14.0942 1880.47,-12.4638 1881.74,-19.348"/>
</g>
<!-- Node15&#45;&gt;Node12 -->
<g id="edge44" class="edge"><title>Node15&#45;&gt;Node12</title>
<path fill="none" stroke="midnightblue" d="M1580.4,-392.422C1648.96,-364.555 1873.72,-275.41 2066.5,-224 2150.39,-201.628 2181.27,-227.664 2258.5,-188 2322.53,-155.113 2331.56,-133.021 2375.5,-76 2386.79,-61.343 2396.73,-42.7047 2403.29,-29.1479"/>
<polygon fill="midnightblue" stroke="midnightblue" points="2406.54,-30.4621 2407.61,-19.9216 2400.2,-27.4928 2406.54,-30.4621"/>
</g>
<!-- Node15&#45;&gt;Node13 -->
<g id="edge20" class="edge"><title>Node15&#45;&gt;Node13</title>
<path fill="none" stroke="midnightblue" d="M1603.91,-392.424C1647.68,-383.813 1716.39,-369.867 1775.5,-356 1905.64,-325.47 1936.53,-311.225 2066.5,-280 2139.06,-262.568 2159.14,-265.819 2230.5,-244 2279.34,-229.068 2334.14,-206.01 2366.41,-191.748"/>
<polygon fill="midnightblue" stroke="midnightblue" points="2367.96,-194.889 2375.67,-187.623 2365.11,-188.495 2367.96,-194.889"/>
</g>
<!-- Node16 -->
<g id="node16" class="node"><title>Node16</title>
<g id="a_node16"><a xlink:href="_ogre_blend_mode_8h.html" target="_top" xlink:title="OgreBlendMode.h">
<polygon fill="none" stroke="black" points="1450,-336.5 1450,-355.5 1545,-355.5 1545,-336.5 1450,-336.5"/>
<text text-anchor="middle" x="1497.5" y="-343.5" font-family="Helvetica,sans-Serif" font-size="10.00">OgreBlendMode.h</text>
</a>
</g>
</g>
<!-- Node15&#45;&gt;Node16 -->
<g id="edge21" class="edge"><title>Node15&#45;&gt;Node16</title>
<path fill="none" stroke="midnightblue" d="M1549.54,-392.324C1540.37,-384.341 1526.56,-372.313 1515.47,-362.653"/>
<polygon fill="midnightblue" stroke="midnightblue" points="1517.48,-359.762 1507.64,-355.834 1512.88,-365.041 1517.48,-359.762"/>
</g>
<!-- Node18 -->
<g id="node18" class="node"><title>Node18</title>
<g id="a_node18"><a xlink:href="_ogre_matrix4_8h.html" target="_top" xlink:title="OgreMatrix4.h">
<polygon fill="none" stroke="red" points="1087.5,-336.5 1087.5,-355.5 1165.5,-355.5 1165.5,-336.5 1087.5,-336.5"/>
<text text-anchor="middle" x="1126.5" y="-343.5" font-family="Helvetica,sans-Serif" font-size="10.00">OgreMatrix4.h</text>
</a>
</g>
</g>
<!-- Node15&#45;&gt;Node18 -->
<g id="edge25" class="edge"><title>Node15&#45;&gt;Node18</title>
<path fill="none" stroke="midnightblue" d="M1499.29,-393.492C1413.01,-382.73 1255.79,-363.124 1175.92,-353.163"/>
<polygon fill="midnightblue" stroke="midnightblue" points="1176,-349.646 1165.64,-351.881 1175.13,-356.592 1176,-349.646"/>
</g>
<!-- Node22 -->
<g id="node22" class="node"><title>Node22</title>
<g id="a_node22"><a xlink:href="_ogre_texture_8h.html" target="_top" xlink:title="OgreTexture.h">
<polygon fill="none" stroke="red" points="1504,-224.5 1504,-243.5 1583,-243.5 1583,-224.5 1504,-224.5"/>
<text text-anchor="middle" x="1543.5" y="-231.5" font-family="Helvetica,sans-Serif" font-size="10.00">OgreTexture.h</text>
</a>
</g>
</g>
<!-- Node15&#45;&gt;Node22 -->
<g id="edge33" class="edge"><title>Node15&#45;&gt;Node22</title>
<path fill="none" stroke="midnightblue" d="M1566.91,-392.411C1573.78,-383.844 1583.51,-369.979 1587.5,-356 1589.94,-347.453 1588.81,-344.793 1587.5,-336 1583.68,-310.271 1581.05,-303.776 1570.5,-280 1566.25,-270.423 1560.37,-260.369 1555.18,-252.2"/>
<polygon fill="midnightblue" stroke="midnightblue" points="1557.96,-250.056 1549.55,-243.617 1552.11,-253.897 1557.96,-250.056"/>
</g>
<!-- Node16&#45;&gt;Node3 -->
<g id="edge22" class="edge"><title>Node16&#45;&gt;Node3</title>
<path fill="none" stroke="midnightblue" d="M1496.13,-336.363C1493.95,-323.696 1489.15,-299.471 1481.5,-280 1474.81,-262.963 1469.03,-260.681 1461.5,-244 1445.5,-208.586 1431.36,-165.302 1423.95,-141.283"/>
<polygon fill="midnightblue" stroke="midnightblue" points="1427.3,-140.253 1421.05,-131.7 1420.6,-142.286 1427.3,-140.253"/>
</g>
<!-- Node17 -->
<g id="node17" class="node"><title>Node17</title>
<g id="a_node17"><a xlink:href="_ogre_colour_value_8h.html" target="_top" xlink:title="OgreColourValue.h">
<polygon fill="none" stroke="black" points="1374,-280.5 1374,-299.5 1473,-299.5 1473,-280.5 1374,-280.5"/>
<text text-anchor="middle" x="1423.5" y="-287.5" font-family="Helvetica,sans-Serif" font-size="10.00">OgreColourValue.h</text>
</a>
</g>
</g>
<!-- Node16&#45;&gt;Node17 -->
<g id="edge23" class="edge"><title>Node16&#45;&gt;Node17</title>
<path fill="none" stroke="midnightblue" d="M1485.61,-336.324C1474.35,-328.107 1457.21,-315.602 1443.79,-305.807"/>
<polygon fill="midnightblue" stroke="midnightblue" points="1445.75,-302.901 1435.61,-299.834 1441.62,-308.556 1445.75,-302.901"/>
</g>
<!-- Node17&#45;&gt;Node3 -->
<g id="edge24" class="edge"><title>Node17&#45;&gt;Node3</title>
<path fill="none" stroke="midnightblue" d="M1423.23,-280.075C1422.44,-253.945 1420.13,-177.211 1419.06,-141.577"/>
<polygon fill="midnightblue" stroke="midnightblue" points="1422.56,-141.458 1418.76,-131.568 1415.56,-141.669 1422.56,-141.458"/>
</g>
<!-- Node18&#45;&gt;Node3 -->
<g id="edge26" class="edge"><title>Node18&#45;&gt;Node3</title>
<path fill="none" stroke="midnightblue" d="M1124.58,-336.316C1120.45,-315.308 1112.71,-260.765 1134.5,-224 1179.29,-148.424 1287.47,-128.536 1356.64,-123.799"/>
<polygon fill="midnightblue" stroke="midnightblue" points="1357.2,-127.272 1366.97,-123.184 1356.78,-120.284 1357.2,-127.272"/>
</g>
<!-- Node19 -->
<g id="node19" class="node"><title>Node19</title>
<g id="a_node19"><a xlink:href="_ogre_plane_8h.html" target="_top" xlink:title="OgrePlane.h">
<polygon fill="none" stroke="black" points="1016,-280.5 1016,-299.5 1087,-299.5 1087,-280.5 1016,-280.5"/>
<text text-anchor="middle" x="1051.5" y="-287.5" font-family="Helvetica,sans-Serif" font-size="10.00">OgrePlane.h</text>
</a>
</g>
</g>
<!-- Node18&#45;&gt;Node19 -->
<g id="edge27" class="edge"><title>Node18&#45;&gt;Node19</title>
<path fill="none" stroke="midnightblue" d="M1114.45,-336.324C1103.04,-328.107 1085.67,-315.602 1072.07,-305.807"/>
<polygon fill="midnightblue" stroke="midnightblue" points="1073.93,-302.837 1063.77,-299.834 1069.84,-308.517 1073.93,-302.837"/>
</g>
<!-- Node19&#45;&gt;Node3 -->
<g id="edge28" class="edge"><title>Node19&#45;&gt;Node3</title>
<path fill="none" stroke="midnightblue" d="M1054.21,-280.497C1061.9,-257.906 1086.12,-196.194 1129.5,-168 1148.19,-155.851 1277.24,-139.194 1356.44,-129.931"/>
<polygon fill="midnightblue" stroke="midnightblue" points="1357.26,-133.359 1366.79,-128.729 1356.45,-126.406 1357.26,-133.359"/>
</g>
<!-- Node20 -->
<g id="node20" class="node"><title>Node20</title>
<g id="a_node20"><a xlink:href="_ogre_vector3_8h.html" target="_top" xlink:title="OgreVector3.h">
<polygon fill="none" stroke="red" points="907.5,-224.5 907.5,-243.5 987.5,-243.5 987.5,-224.5 907.5,-224.5"/>
<text text-anchor="middle" x="947.5" y="-231.5" font-family="Helvetica,sans-Serif" font-size="10.00">OgreVector3.h</text>
</a>
</g>
</g>
<!-- Node19&#45;&gt;Node20 -->
<g id="edge29" class="edge"><title>Node19&#45;&gt;Node20</title>
<path fill="none" stroke="midnightblue" d="M1034.79,-280.324C1018.19,-271.703 992.498,-258.364 973.28,-248.386"/>
<polygon fill="midnightblue" stroke="midnightblue" points="974.656,-245.156 964.168,-243.655 971.43,-251.369 974.656,-245.156"/>
</g>
<!-- Node20&#45;&gt;Node3 -->
<g id="edge30" class="edge"><title>Node20&#45;&gt;Node3</title>
<path fill="none" stroke="midnightblue" d="M942.014,-224.162C934.205,-210.336 922.318,-183.568 936.5,-168 938.254,-166.074 1226.73,-140.111 1356.5,-128.521"/>
<polygon fill="midnightblue" stroke="midnightblue" points="1357.04,-131.987 1366.68,-127.611 1356.41,-125.014 1357.04,-131.987"/>
</g>
<!-- Node21 -->
<g id="node21" class="node"><title>Node21</title>
<g id="a_node21"><a xlink:href="_ogre_quaternion_8h.html" target="_top" xlink:title="OgreQuaternion.h">
<polygon fill="none" stroke="red" points="946,-168.5 946,-187.5 1039,-187.5 1039,-168.5 946,-168.5"/>
<text text-anchor="middle" x="992.5" y="-175.5" font-family="Helvetica,sans-Serif" font-size="10.00">OgreQuaternion.h</text>
</a>
</g>
</g>
<!-- Node20&#45;&gt;Node21 -->
<g id="edge31" class="edge"><title>Node20&#45;&gt;Node21</title>
<path fill="none" stroke="midnightblue" d="M954.931,-224.083C961.353,-216.377 970.806,-205.033 978.622,-195.653"/>
<polygon fill="midnightblue" stroke="midnightblue" points="981.494,-197.674 985.207,-187.751 976.117,-193.193 981.494,-197.674"/>
</g>
<!-- Node21&#45;&gt;Node3 -->
<g id="edge32" class="edge"><title>Node21&#45;&gt;Node3</title>
<path fill="none" stroke="midnightblue" d="M1039.11,-170.006C1043.97,-169.313 1048.83,-168.632 1053.5,-168 1159.79,-153.609 1283.75,-138.728 1356.43,-130.196"/>
<polygon fill="midnightblue" stroke="midnightblue" points="1357.24,-133.625 1366.77,-128.985 1356.43,-126.672 1357.24,-133.625"/>
</g>
<!-- Node22&#45;&gt;Node3 -->
<g id="edge34" class="edge"><title>Node22&#45;&gt;Node3</title>
<path fill="none" stroke="midnightblue" d="M1537.6,-224.266C1528.39,-211.046 1509.55,-185.631 1489.5,-168 1475.56,-155.747 1457.96,-144.565 1443.76,-136.412"/>
<polygon fill="midnightblue" stroke="midnightblue" points="1445.44,-133.339 1435,-131.512 1442.02,-139.448 1445.44,-133.339"/>
</g>
<!-- Node22&#45;&gt;Node11 -->
<g id="edge39" class="edge"><title>Node22&#45;&gt;Node11</title>
<path fill="none" stroke="midnightblue" d="M1583.21,-230.024C1662.07,-223.712 1832.3,-207.912 1849.5,-188 1893.46,-137.1 1734.59,-109.387 1775.5,-56 1788.52,-39.0091 1838.83,-26.9863 1880.86,-19.6677"/>
<polygon fill="midnightblue" stroke="midnightblue" points="1881.51,-23.1085 1890.79,-17.9981 1880.35,-16.2055 1881.51,-23.1085"/>
</g>
<!-- Node22&#45;&gt;Node12 -->
<g id="edge42" class="edge"><title>Node22&#45;&gt;Node12</title>
<path fill="none" stroke="midnightblue" d="M1583.25,-231.14C1724.86,-224.414 2197.9,-201.07 2227.5,-188 2307.9,-152.496 2374.14,-65.8067 2399.92,-28.5211"/>
<polygon fill="midnightblue" stroke="midnightblue" points="2403.13,-30.0223 2405.84,-19.7807 2397.33,-26.095 2403.13,-30.0223"/>
</g>
<!-- Node23 -->
<g id="node23" class="node"><title>Node23</title>
<g id="a_node23"><a xlink:href="_ogre_resource_8h.html" target="_top" xlink:title="OgreResource.h">
<polygon fill="none" stroke="red" points="687.5,-168.5 687.5,-187.5 775.5,-187.5 775.5,-168.5 687.5,-168.5"/>
<text text-anchor="middle" x="731.5" y="-175.5" font-family="Helvetica,sans-Serif" font-size="10.00">OgreResource.h</text>
</a>
</g>
</g>
<!-- Node22&#45;&gt;Node23 -->
<g id="edge35" class="edge"><title>Node22&#45;&gt;Node23</title>
<path fill="none" stroke="midnightblue" d="M1503.79,-230.359C1370.41,-221.489 938.367,-192.757 785.615,-182.599"/>
<polygon fill="midnightblue" stroke="midnightblue" points="785.745,-179.1 775.535,-181.928 785.281,-186.084 785.745,-179.1"/>
</g>
<!-- Node24 -->
<g id="node24" class="node"><title>Node24</title>
<g id="a_node24"><a xlink:href="_ogre_shared_ptr_8h.html" target="_top" xlink:title="OgreSharedPtr.h">
<polygon fill="none" stroke="red" points="466,-168.5 466,-187.5 555,-187.5 555,-168.5 466,-168.5"/>
<text text-anchor="middle" x="510.5" y="-175.5" font-family="Helvetica,sans-Serif" font-size="10.00">OgreSharedPtr.h</text>
</a>
</g>
</g>
<!-- Node22&#45;&gt;Node24 -->
<g id="edge40" class="edge"><title>Node22&#45;&gt;Node24</title>
<path fill="none" stroke="midnightblue" d="M1503.84,-230.959C1381.14,-224.638 996.855,-204.808 678.5,-188 640.732,-186.006 598.189,-183.727 565.365,-181.961"/>
<polygon fill="midnightblue" stroke="midnightblue" points="565.241,-178.449 555.067,-181.406 564.865,-185.439 565.241,-178.449"/>
</g>
<!-- Node23&#45;&gt;Node3 -->
<g id="edge36" class="edge"><title>Node23&#45;&gt;Node3</title>
<path fill="none" stroke="midnightblue" d="M775.781,-169.73C780.407,-169.09 785.044,-168.498 789.5,-168 1021.94,-142.045 1081.32,-150.083 1314.5,-132 1328.24,-130.934 1342.99,-129.708 1356.95,-128.51"/>
<polygon fill="midnightblue" stroke="midnightblue" points="1357.28,-131.994 1366.94,-127.645 1356.67,-125.02 1357.28,-131.994"/>
</g>
<!-- Node23&#45;&gt;Node11 -->
<g id="edge37" class="edge"><title>Node23&#45;&gt;Node11</title>
<path fill="none" stroke="midnightblue" d="M762.419,-168.426C819.474,-152.319 944.858,-115.574 1047.5,-76 1067.54,-68.2724 1070.63,-61.1004 1091.5,-56 1241.25,-19.3979 1711.09,-12.5672 1880.68,-11.2925"/>
<polygon fill="midnightblue" stroke="midnightblue" points="1880.95,-14.7907 1890.93,-11.2195 1880.9,-7.79086 1880.95,-14.7907"/>
</g>
<!-- Node23&#45;&gt;Node12 -->
<g id="edge38" class="edge"><title>Node23&#45;&gt;Node12</title>
<path fill="none" stroke="midnightblue" d="M775.662,-169.344C778.987,-168.858 782.294,-168.403 785.5,-168 972.265,-144.508 1020.78,-155.88 1207.5,-132 1259.83,-125.308 1272.08,-117.913 1324.5,-112 1612.01,-79.5717 1686.66,-105.315 1974.5,-76 2111.3,-62.0679 2270.81,-35.7728 2354.13,-21.2622"/>
<polygon fill="midnightblue" stroke="midnightblue" points="2354.9,-24.6801 2364.15,-19.5098 2353.7,-17.7847 2354.9,-24.6801"/>
</g>
<!-- Node24&#45;&gt;Node3 -->
<g id="edge41" class="edge"><title>Node24&#45;&gt;Node3</title>
<path fill="none" stroke="midnightblue" d="M555.218,-174.341C704.322,-165.473 1184.75,-136.902 1356.63,-126.68"/>
<polygon fill="midnightblue" stroke="midnightblue" points="1357,-130.164 1366.77,-126.076 1356.58,-123.176 1357,-130.164"/>
</g>
<!-- Node25&#45;&gt;Node3 -->
<g id="edge46" class="edge"><title>Node25&#45;&gt;Node3</title>
<path fill="none" stroke="midnightblue" d="M645.714,-280.418C660.633,-271.397 684.756,-256.768 705.5,-244 732.702,-227.257 797.135,-177.91 827.5,-168 930.663,-134.332 1206.33,-140.678 1314.5,-132 1328.24,-130.898 1342.99,-129.656 1356.94,-128.456"/>
<polygon fill="midnightblue" stroke="midnightblue" points="1357.27,-131.94 1366.93,-127.591 1356.67,-124.966 1357.27,-131.94"/>
</g>
<!-- Node25&#45;&gt;Node11 -->
<g id="edge53" class="edge"><title>Node25&#45;&gt;Node11</title>
<path fill="none" stroke="midnightblue" d="M625.764,-280.434C612.343,-259.221 581.908,-203.408 607.5,-168 700.451,-39.3982 790.448,-84.739 946.5,-56 1127.04,-22.751 1692.19,-13.7064 1880.64,-11.5826"/>
<polygon fill="midnightblue" stroke="midnightblue" points="1880.96,-15.0794 1890.92,-11.4694 1880.89,-8.07981 1880.96,-15.0794"/>
</g>
<!-- Node25&#45;&gt;Node12 -->
<g id="edge56" class="edge"><title>Node25&#45;&gt;Node12</title>
<path fill="none" stroke="midnightblue" d="M629.35,-280.462C624.338,-258.318 614.532,-198.638 645.5,-168 650.655,-162.9 1721.76,-57.315 1737.5,-56 1962.91,-37.1694 2231.26,-21.1693 2349.89,-14.4239"/>
<polygon fill="midnightblue" stroke="midnightblue" points="2350.09,-17.9182 2359.88,-13.8578 2349.69,-10.9294 2350.09,-17.9182"/>
</g>
<!-- Node25&#45;&gt;Node20 -->
<g id="edge54" class="edge"><title>Node25&#45;&gt;Node20</title>
<path fill="none" stroke="midnightblue" d="M681.571,-280.444C740.509,-270.372 837.828,-253.741 896.966,-243.636"/>
<polygon fill="midnightblue" stroke="midnightblue" points="897.921,-247.023 907.189,-241.889 896.742,-240.123 897.921,-247.023"/>
</g>
<!-- Node25&#45;&gt;Node23 -->
<g id="edge47" class="edge"><title>Node25&#45;&gt;Node23</title>
<path fill="none" stroke="midnightblue" d="M642.894,-280.352C653.882,-271.741 670.687,-257.844 683.5,-244 697.436,-228.943 711.115,-209.876 720.282,-196.294"/>
<polygon fill="midnightblue" stroke="midnightblue" points="723.248,-198.154 725.855,-187.885 717.414,-194.287 723.248,-198.154"/>
</g>
<!-- Node25&#45;&gt;Node24 -->
<g id="edge55" class="edge"><title>Node25&#45;&gt;Node24</title>
<path fill="none" stroke="midnightblue" d="M625.059,-280.422C615.058,-267.406 594.822,-242.254 574.5,-224 561.734,-212.533 545.981,-201.424 533.299,-193.113"/>
<polygon fill="midnightblue" stroke="midnightblue" points="535,-190.046 524.693,-187.591 531.219,-195.937 535,-190.046"/>
</g>
<!-- Node26 -->
<g id="node26" class="node"><title>Node26</title>
<g id="a_node26"><a xlink:href="_ogre_gpu_program_params_8h.html" target="_top" xlink:title="OgreGpuProgramParams.h">
<polygon fill="none" stroke="red" points="313.5,-224.5 313.5,-243.5 447.5,-243.5 447.5,-224.5 313.5,-224.5"/>
<text text-anchor="middle" x="380.5" y="-231.5" font-family="Helvetica,sans-Serif" font-size="10.00">OgreGpuProgramParams.h</text>
</a>
</g>
</g>
<!-- Node25&#45;&gt;Node26 -->
<g id="edge48" class="edge"><title>Node25&#45;&gt;Node26</title>
<path fill="none" stroke="midnightblue" d="M591.728,-280.444C547.942,-271.023 477.486,-255.866 430.12,-245.675"/>
<polygon fill="midnightblue" stroke="midnightblue" points="430.598,-242.198 420.086,-243.516 429.126,-249.041 430.598,-242.198"/>
</g>
<!-- Node26&#45;&gt;Node3 -->
<g id="edge49" class="edge"><title>Node26&#45;&gt;Node3</title>
<path fill="none" stroke="midnightblue" d="M386.251,-224.238C396.511,-209.481 419.536,-180.097 447.5,-168 530.566,-132.067 1156.25,-124.757 1356.83,-123.331"/>
<polygon fill="midnightblue" stroke="midnightblue" points="1356.92,-126.831 1366.9,-123.262 1356.87,-119.831 1356.92,-126.831"/>
</g>
<!-- Node26&#45;&gt;Node11 -->
<g id="edge51" class="edge"><title>Node26&#45;&gt;Node11</title>
<path fill="none" stroke="midnightblue" d="M371.48,-224.34C363.428,-215.932 352.202,-202.363 347.5,-188 329.247,-132.245 306.606,-98.0645 347.5,-56 374.696,-28.026 1589.84,-14.4328 1880.52,-11.578"/>
<polygon fill="midnightblue" stroke="midnightblue" points="1880.9,-15.0746 1890.87,-11.4771 1880.83,-8.07489 1880.9,-15.0746"/>
</g>
<!-- Node26&#45;&gt;Node12 -->
<g id="edge52" class="edge"><title>Node26&#45;&gt;Node12</title>
<path fill="none" stroke="midnightblue" d="M382.5,-224.286C386.225,-210.134 395.617,-182.301 414.5,-168 607.122,-22.1213 706.584,-84.7102 946.5,-56 1017.05,-47.5577 2079.9,-19.5864 2349.63,-12.5947"/>
<polygon fill="midnightblue" stroke="midnightblue" points="2349.73,-16.0933 2359.64,-12.3355 2349.55,-9.09568 2349.73,-16.0933"/>
</g>
<!-- Node26&#45;&gt;Node24 -->
<g id="edge50" class="edge"><title>Node26&#45;&gt;Node24</title>
<path fill="none" stroke="midnightblue" d="M401.099,-224.444C422.493,-215.557 456.181,-201.563 480.524,-191.451"/>
<polygon fill="midnightblue" stroke="midnightblue" points="482.105,-194.585 489.997,-187.516 479.42,-188.12 482.105,-194.585"/>
</g>
<!-- Node27&#45;&gt;Node3 -->
<g id="edge58" class="edge"><title>Node27&#45;&gt;Node3</title>
<path fill="none" stroke="midnightblue" d="M497.98,-224.462C474.424,-211.918 437.561,-187.846 456.5,-168 487.61,-135.401 1148.71,-125.793 1356.54,-123.573"/>
<polygon fill="midnightblue" stroke="midnightblue" points="1356.71,-127.071 1366.67,-123.466 1356.64,-120.071 1356.71,-127.071"/>
</g>
<!-- Node27&#45;&gt;Node24 -->
<g id="edge59" class="edge"><title>Node27&#45;&gt;Node24</title>
<path fill="none" stroke="midnightblue" d="M514.674,-224.083C514.019,-217.006 513.08,-206.861 512.258,-197.986"/>
<polygon fill="midnightblue" stroke="midnightblue" points="515.717,-197.386 511.31,-187.751 508.747,-198.031 515.717,-197.386"/>
</g>
<!-- Node28 -->
<g id="node28" class="node"><title>Node28</title>
<g id="a_node28"><a xlink:href="_ogre_string_8h.html" target="_top" xlink:title="OgreString.h">
<polygon fill="none" stroke="black" points="1770,-168.5 1770,-187.5 1841,-187.5 1841,-168.5 1770,-168.5"/>
<text text-anchor="middle" x="1805.5" y="-175.5" font-family="Helvetica,sans-Serif" font-size="10.00">OgreString.h</text>
</a>
</g>
</g>
<!-- Node27&#45;&gt;Node28 -->
<g id="edge60" class="edge"><title>Node27&#45;&gt;Node28</title>
<path fill="none" stroke="midnightblue" d="M565.674,-230.9C772.933,-222.224 1560.8,-189.243 1759.69,-180.918"/>
<polygon fill="midnightblue" stroke="midnightblue" points="1759.95,-184.41 1769.79,-180.495 1759.65,-177.416 1759.95,-184.41"/>
</g>
<!-- Node28&#45;&gt;Node3 -->
<g id="edge61" class="edge"><title>Node28&#45;&gt;Node3</title>
<path fill="none" stroke="midnightblue" d="M1769.75,-170.363C1764.97,-169.533 1760.12,-168.724 1755.5,-168 1659.68,-152.987 1548.03,-138.707 1480.34,-130.404"/>
<polygon fill="midnightblue" stroke="midnightblue" points="1480.63,-126.913 1470.28,-129.174 1479.78,-133.861 1480.63,-126.913"/>
</g>
<!-- Node28&#45;&gt;Node11 -->
<g id="edge62" class="edge"><title>Node28&#45;&gt;Node11</title>
<path fill="none" stroke="midnightblue" d="M1787.66,-168.475C1748.99,-148.888 1663.69,-99.0486 1699.5,-56 1722.13,-28.7995 1816.46,-17.9692 1880.71,-13.706"/>
<polygon fill="midnightblue" stroke="midnightblue" points="1880.99,-17.1956 1890.75,-13.0766 1880.55,-10.2093 1880.99,-17.1956"/>
</g>
<!-- Node28&#45;&gt;Node12 -->
<g id="edge63" class="edge"><title>Node28&#45;&gt;Node12</title>
<path fill="none" stroke="midnightblue" d="M1841,-170.204C1915.08,-155.687 2091.2,-119.412 2235.5,-76 2287.59,-60.3271 2346.63,-37.4387 2381.37,-23.4202"/>
<polygon fill="midnightblue" stroke="midnightblue" points="2382.97,-26.5481 2390.92,-19.5436 2380.34,-20.0622 2382.97,-26.5481"/>
</g>
<!-- Node29&#45;&gt;Node2 -->
<g id="edge67" class="edge"><title>Node29&#45;&gt;Node2</title>
<path fill="none" stroke="midnightblue" d="M2277.46,-728.417C2291.58,-698.94 2342.6,-601.38 2417.5,-560 2423.82,-556.509 2602.12,-535.798 2708.18,-523.726"/>
<polygon fill="midnightblue" stroke="midnightblue" points="2708.67,-527.193 2718.21,-522.586 2707.88,-520.238 2708.67,-527.193"/>
</g>
<!-- Node30 -->
<g id="node30" class="node"><title>Node30</title>
<g id="a_node30"><a xlink:href="_ogre_singleton_8h.html" target="_top" xlink:title="OgreSingleton.h">
<polygon fill="none" stroke="black" points="1247.5,-168.5 1247.5,-187.5 1333.5,-187.5 1333.5,-168.5 1247.5,-168.5"/>
<text text-anchor="middle" x="1290.5" y="-175.5" font-family="Helvetica,sans-Serif" font-size="10.00">OgreSingleton.h</text>
</a>
</g>
</g>
<!-- Node29&#45;&gt;Node30 -->
<g id="edge68" class="edge"><title>Node29&#45;&gt;Node30</title>
<path fill="none" stroke="midnightblue" d="M2213.87,-735.082C1960.16,-726.539 983.5,-689.585 983.5,-627 983.5,-627 983.5,-627 983.5,-457 983.5,-360.973 1095.18,-410.125 1174.5,-356 1237.5,-313.015 1272.72,-313.326 1304.5,-244 1311.4,-228.948 1306.17,-210.358 1300.24,-196.919"/>
<polygon fill="midnightblue" stroke="midnightblue" points="1303.31,-195.224 1295.76,-187.791 1297.03,-198.31 1303.31,-195.224"/>
</g>
<!-- Node31 -->
<g id="node31" class="node"><title>Node31</title>
<g id="a_node31"><a xlink:href="_ogre_file_system_layer_8h.html" target="_top" xlink:title="OgreFileSystemLayer.h">
<polygon fill="none" stroke="black" points="314,-280.5 314,-299.5 433,-299.5 433,-280.5 314,-280.5"/>
<text text-anchor="middle" x="373.5" y="-287.5" font-family="Helvetica,sans-Serif" font-size="10.00">OgreFileSystemLayer.h</text>
</a>
</g>
</g>
<!-- Node29&#45;&gt;Node31 -->
<g id="edge70" class="edge"><title>Node29&#45;&gt;Node31</title>
<path fill="none" stroke="midnightblue" d="M2213.96,-736.775C1890.06,-735.17 354.5,-722.524 354.5,-627 354.5,-627 354.5,-627 354.5,-401 354.5,-368.489 362.659,-331.35 368.284,-309.61"/>
<polygon fill="midnightblue" stroke="midnightblue" points="371.718,-310.317 370.938,-299.751 364.959,-308.498 371.718,-310.317"/>
</g>
<!-- Node32 -->
<g id="node32" class="node"><title>Node32</title>
<g id="a_node32"><a xlink:href="_ogre_render_object_listener_8h.html" target="_top" xlink:title="OgreRenderObjectListener.h">
<polygon fill="none" stroke="black" points="812.5,-504.5 812.5,-523.5 952.5,-523.5 952.5,-504.5 812.5,-504.5"/>
<text text-anchor="middle" x="882.5" y="-511.5" font-family="Helvetica,sans-Serif" font-size="10.00">OgreRenderObjectListener.h</text>
</a>
</g>
</g>
<!-- Node29&#45;&gt;Node32 -->
<g id="edge73" class="edge"><title>Node29&#45;&gt;Node32</title>
<path fill="none" stroke="midnightblue" d="M2213.82,-736.639C1965.21,-734.92 1022.31,-726.164 969.5,-692 913.224,-655.593 892.143,-571.373 885.337,-533.748"/>
<polygon fill="midnightblue" stroke="midnightblue" points="888.754,-532.961 883.66,-523.671 881.849,-534.11 888.754,-532.961"/>
</g>
<!-- Node35 -->
<g id="node35" class="node"><title>Node35</title>
<g id="a_node35"><a xlink:href="_ogre_scene_manager_8h.html" target="_top" xlink:title="OgreSceneManager.h">
<polygon fill="none" stroke="black" points="2063,-560.5 2063,-579.5 2174,-579.5 2174,-560.5 2063,-560.5"/>
<text text-anchor="middle" x="2118.5" y="-567.5" font-family="Helvetica,sans-Serif" font-size="10.00">OgreSceneManager.h</text>
</a>
</g>
</g>
<!-- Node29&#45;&gt;Node35 -->
<g id="edge89" class="edge"><title>Node29&#45;&gt;Node35</title>
<path fill="none" stroke="midnightblue" d="M2265.17,-728.075C2240.13,-701.267 2165.36,-621.19 2133.33,-586.885"/>
<polygon fill="midnightblue" stroke="midnightblue" points="2135.88,-584.489 2126.5,-579.568 2130.77,-589.266 2135.88,-584.489"/>
</g>
<!-- Node47 -->
<g id="node47" class="node"><title>Node47</title>
<g id="a_node47"><a xlink:href="_ogre_shader_render_state_8h.html" target="_top" xlink:title="OgreShaderRenderState.h">
<polygon fill="none" stroke="black" points="2529,-672.5 2529,-691.5 2660,-691.5 2660,-672.5 2529,-672.5"/>
<text text-anchor="middle" x="2594.5" y="-679.5" font-family="Helvetica,sans-Serif" font-size="10.00">OgreShaderRenderState.h</text>
</a>
</g>
</g>
<!-- Node29&#45;&gt;Node47 -->
<g id="edge145" class="edge"><title>Node29&#45;&gt;Node47</title>
<path fill="none" stroke="midnightblue" d="M2324.36,-728.444C2381.18,-718.885 2473.12,-703.419 2533.69,-693.23"/>
<polygon fill="midnightblue" stroke="midnightblue" points="2534.59,-696.627 2543.87,-691.516 2533.43,-689.724 2534.59,-696.627"/>
</g>
<!-- Node49 -->
<g id="node49" class="node"><title>Node49</title>
<g id="a_node49"><a xlink:href="_ogre_shader_script_translator_8h.html" target="_top" xlink:title="OgreShaderScriptTranslator.h">
<polygon fill="none" stroke="red" points="2725.5,-560.5 2725.5,-579.5 2871.5,-579.5 2871.5,-560.5 2725.5,-560.5"/>
<text text-anchor="middle" x="2798.5" y="-567.5" font-family="Helvetica,sans-Serif" font-size="10.00">OgreShaderScriptTranslator.h</text>
</a>
</g>
</g>
<!-- Node29&#45;&gt;Node49 -->
<g id="edge157" class="edge"><title>Node29&#45;&gt;Node49</title>
<path fill="none" stroke="midnightblue" d="M2333.02,-736.705C2411.49,-734.862 2553.1,-726.479 2668.5,-692 2721.44,-676.181 2744.16,-678.476 2779.5,-636 2790.42,-622.878 2795.06,-603.733 2797.04,-589.618"/>
<polygon fill="midnightblue" stroke="midnightblue" points="2800.53,-589.904 2798.12,-579.586 2793.57,-589.154 2800.53,-589.904"/>
</g>
<!-- Node50 -->
<g id="node50" class="node"><title>Node50</title>
<g id="a_node50"><a xlink:href="_ogre_script_translator_8h.html" target="_top" xlink:title="OgreScriptTranslator.h">
<polygon fill="none" stroke="red" points="2881,-504.5 2881,-523.5 2996,-523.5 2996,-504.5 2881,-504.5"/>
<text text-anchor="middle" x="2938.5" y="-511.5" font-family="Helvetica,sans-Serif" font-size="10.00">OgreScriptTranslator.h</text>
</a>
</g>
</g>
<!-- Node29&#45;&gt;Node50 -->
<g id="edge156" class="edge"><title>Node29&#45;&gt;Node50</title>
<path fill="none" stroke="midnightblue" d="M2333.29,-734.535C2437.43,-729.646 2647.54,-716.969 2716.5,-692 2799.49,-661.951 2814.35,-638.437 2880.5,-580 2897.42,-565.051 2914.33,-545.431 2925.49,-531.672"/>
<polygon fill="midnightblue" stroke="midnightblue" points="2928.44,-533.588 2931.93,-523.585 2922.96,-529.225 2928.44,-533.588"/>
</g>
<!-- Node30&#45;&gt;Node3 -->
<g id="edge69" class="edge"><title>Node30&#45;&gt;Node3</title>
<path fill="none" stroke="midnightblue" d="M1310.78,-168.444C1331.85,-159.557 1365.02,-145.563 1388.99,-135.451"/>
<polygon fill="midnightblue" stroke="midnightblue" points="1390.46,-138.628 1398.31,-131.516 1387.74,-132.179 1390.46,-138.628"/>
</g>
<!-- Node31&#45;&gt;Node3 -->
<g id="edge71" class="edge"><title>Node31&#45;&gt;Node3</title>
<path fill="none" stroke="midnightblue" d="M351.31,-280.393C325.939,-269.179 289.706,-248.133 304.5,-224 333.172,-177.229 361.454,-181.989 414.5,-168 505.188,-144.084 1151.78,-128.598 1356.5,-124.252"/>
<polygon fill="midnightblue" stroke="midnightblue" points="1356.85,-127.746 1366.77,-124.036 1356.7,-120.747 1356.85,-127.746"/>
</g>
<!-- Node31&#45;&gt;Node27 -->
<g id="edge72" class="edge"><title>Node31&#45;&gt;Node27</title>
<path fill="none" stroke="midnightblue" d="M396,-280.444C419.577,-271.478 456.822,-257.314 483.464,-247.183"/>
<polygon fill="midnightblue" stroke="midnightblue" points="485.002,-250.342 493.105,-243.516 482.514,-243.8 485.002,-250.342"/>
</g>
<!-- Node32&#45;&gt;Node3 -->
<g id="edge74" class="edge"><title>Node32&#45;&gt;Node3</title>
<path fill="none" stroke="midnightblue" d="M882.108,-504.444C881.295,-485.943 879.5,-440.827 879.5,-403 879.5,-403 879.5,-403 879.5,-233 879.5,-197.35 895.527,-185.651 926.5,-168 944.934,-157.495 1228.86,-136.341 1356.81,-127.279"/>
<polygon fill="midnightblue" stroke="midnightblue" points="1357.12,-130.766 1366.85,-126.57 1356.63,-123.783 1357.12,-130.766"/>
</g>
<!-- Node33 -->
<g id="node33" class="node"><title>Node33</title>
<g id="a_node33"><a xlink:href="_ogre_renderable_8h.html" target="_top" xlink:title="OgreRenderable.h">
<polygon fill="none" stroke="red" points="756,-392.5 756,-411.5 851,-411.5 851,-392.5 756,-392.5"/>
<text text-anchor="middle" x="803.5" y="-399.5" font-family="Helvetica,sans-Serif" font-size="10.00">OgreRenderable.h</text>
</a>
</g>
</g>
<!-- Node32&#45;&gt;Node33 -->
<g id="edge75" class="edge"><title>Node32&#45;&gt;Node33</title>
<path fill="none" stroke="midnightblue" d="M876.301,-504.368C863.264,-486.215 832.803,-443.802 815.702,-419.99"/>
<polygon fill="midnightblue" stroke="midnightblue" points="818.346,-417.672 809.67,-411.591 812.661,-421.755 818.346,-417.672"/>
</g>
<!-- Node34 -->
<g id="node34" class="node"><title>Node34</title>
<g id="a_node34"><a xlink:href="_ogre_pass_8h.html" target="_top" xlink:title="OgrePass.h">
<polygon fill="none" stroke="red" points="1457.5,-448.5 1457.5,-467.5 1525.5,-467.5 1525.5,-448.5 1457.5,-448.5"/>
<text text-anchor="middle" x="1491.5" y="-455.5" font-family="Helvetica,sans-Serif" font-size="10.00">OgrePass.h</text>
</a>
</g>
</g>
<!-- Node32&#45;&gt;Node34 -->
<g id="edge84" class="edge"><title>Node32&#45;&gt;Node34</title>
<path fill="none" stroke="midnightblue" d="M952.657,-506.779C1079.2,-495.558 1342.24,-472.235 1447.03,-462.944"/>
<polygon fill="midnightblue" stroke="midnightblue" points="1447.6,-466.407 1457.25,-462.037 1446.98,-459.434 1447.6,-466.407"/>
</g>
<!-- Node33&#45;&gt;Node3 -->
<g id="edge76" class="edge"><title>Node33&#45;&gt;Node3</title>
<path fill="none" stroke="midnightblue" d="M808.784,-392.231C819.225,-374.043 841.5,-330.601 841.5,-291 841.5,-291 841.5,-291 841.5,-233 841.5,-202.205 840.968,-186.616 865.5,-168 875.185,-160.651 1213.72,-136.893 1356.24,-127.189"/>
<polygon fill="midnightblue" stroke="midnightblue" points="1356.83,-130.657 1366.57,-126.487 1356.35,-123.673 1356.83,-130.657"/>
</g>
<!-- Node33&#45;&gt;Node11 -->
<g id="edge82" class="edge"><title>Node33&#45;&gt;Node11</title>
<path fill="none" stroke="midnightblue" d="M755.872,-397.534C644.3,-388.473 370.468,-360.475 304.5,-300 224.144,-226.335 237.164,-113.945 329.5,-56 362.938,-35.0164 1588.62,-16.0892 1880.55,-11.8724"/>
<polygon fill="midnightblue" stroke="midnightblue" points="1880.99,-15.3665 1890.94,-11.7228 1880.89,-8.3672 1880.99,-15.3665"/>
</g>
<!-- Node33&#45;&gt;Node12 -->
<g id="edge83" class="edge"><title>Node33&#45;&gt;Node12</title>
<path fill="none" stroke="midnightblue" d="M796.08,-392.264C764.432,-354.527 643.907,-205.724 678.5,-168 709.782,-133.887 1047.61,-138.005 1093.5,-132 1144.51,-125.326 1156.47,-118.512 1207.5,-112 1405.65,-86.7138 1456.85,-96.9521 1655.5,-76 1723.7,-68.8068 1740.28,-62.9989 1808.5,-56 2005.78,-35.7609 2240.25,-20.8879 2349.6,-14.4822"/>
<polygon fill="midnightblue" stroke="midnightblue" points="2350.01,-17.9645 2359.79,-13.8888 2349.6,-10.9763 2350.01,-17.9645"/>
</g>
<!-- Node33&#45;&gt;Node13 -->
<g id="edge77" class="edge"><title>Node33&#45;&gt;Node13</title>
<path fill="none" stroke="midnightblue" d="M813.603,-392.388C841.802,-368.962 924.669,-304.221 1006.5,-280 1208.22,-220.291 1743.3,-266.227 1952.5,-244 2003.65,-238.565 2015.68,-231.942 2066.5,-224 2163.26,-208.88 2276.52,-193.953 2341.45,-185.66"/>
<polygon fill="midnightblue" stroke="midnightblue" points="2341.97,-189.122 2351.44,-184.386 2341.08,-182.178 2341.97,-189.122"/>
</g>
<!-- Node33&#45;&gt;Node18 -->
<g id="edge80" class="edge"><title>Node33&#45;&gt;Node18</title>
<path fill="none" stroke="midnightblue" d="M851.16,-393.032C911.709,-382.909 1015.69,-365.525 1077.07,-355.263"/>
<polygon fill="midnightblue" stroke="midnightblue" points="1078,-358.658 1087.28,-353.557 1076.84,-351.753 1078,-358.658"/>
</g>
<!-- Node33&#45;&gt;Node19 -->
<g id="edge81" class="edge"><title>Node33&#45;&gt;Node19</title>
<path fill="none" stroke="midnightblue" d="M847.292,-392.49C879.371,-385.286 923.423,-373.337 959.5,-356 987.524,-342.533 1016.22,-320.724 1033.95,-306.128"/>
<polygon fill="midnightblue" stroke="midnightblue" points="1036.31,-308.718 1041.72,-299.61 1031.81,-303.355 1036.31,-308.718"/>
</g>
<!-- Node33&#45;&gt;Node25 -->
<g id="edge78" class="edge"><title>Node33&#45;&gt;Node25</title>
<path fill="none" stroke="midnightblue" d="M775.197,-392.46C752.718,-384.91 721.087,-372.525 696.5,-356 676.317,-342.435 657.132,-321.99 644.908,-307.661"/>
<polygon fill="midnightblue" stroke="midnightblue" points="647.331,-305.101 638.249,-299.646 641.947,-309.574 647.331,-305.101"/>
</g>
<!-- Node33&#45;&gt;Node26 -->
<g id="edge79" class="edge"><title>Node33&#45;&gt;Node26</title>
<path fill="none" stroke="midnightblue" d="M776.091,-392.438C748.863,-383.783 706.015,-369.755 669.5,-356 572.664,-319.523 460.155,-270.44 408.743,-247.63"/>
<polygon fill="midnightblue" stroke="midnightblue" points="410.144,-244.423 399.585,-243.558 407.3,-250.819 410.144,-244.423"/>
</g>
<!-- Node34&#45;&gt;Node3 -->
<g id="edge85" class="edge"><title>Node34&#45;&gt;Node3</title>
<path fill="none" stroke="midnightblue" d="M1480.41,-448.247C1453.99,-426.571 1387.76,-367.259 1364.5,-300 1344.42,-241.941 1384.47,-171.862 1406.02,-140.113"/>
<polygon fill="midnightblue" stroke="midnightblue" points="1409.15,-141.743 1412.03,-131.546 1403.42,-137.724 1409.15,-141.743"/>
</g>
<!-- Node34&#45;&gt;Node13 -->
<g id="edge87" class="edge"><title>Node34&#45;&gt;Node13</title>
<path fill="none" stroke="midnightblue" d="M1525.7,-453.632C1580.18,-447.829 1689.79,-434.369 1780.5,-412 2004.84,-356.681 2060.52,-335.954 2272.5,-244 2308.07,-228.57 2347.33,-206.729 2371.46,-192.713"/>
<polygon fill="midnightblue" stroke="midnightblue" points="2373.37,-195.653 2380.23,-187.578 2369.83,-189.613 2373.37,-195.653"/>
</g>
<!-- Node34&#45;&gt;Node15 -->
<g id="edge88" class="edge"><title>Node34&#45;&gt;Node15</title>
<path fill="none" stroke="midnightblue" d="M1502.43,-448.324C1512.67,-440.185 1528.22,-427.839 1540.5,-418.087"/>
<polygon fill="midnightblue" stroke="midnightblue" points="1542.72,-420.794 1548.38,-411.834 1538.37,-415.312 1542.72,-420.794"/>
</g>
<!-- Node34&#45;&gt;Node17 -->
<g id="edge86" class="edge"><title>Node34&#45;&gt;Node17</title>
<path fill="none" stroke="midnightblue" d="M1486.35,-448.369C1476.32,-431.267 1453.99,-391.642 1440.5,-356 1434.75,-340.812 1430.23,-322.92 1427.3,-309.756"/>
<polygon fill="midnightblue" stroke="midnightblue" points="1430.64,-308.648 1425.14,-299.593 1423.79,-310.101 1430.64,-308.648"/>
</g>
<!-- Node35&#45;&gt;Node3 -->
<g id="edge90" class="edge"><title>Node35&#45;&gt;Node3</title>
<path fill="none" stroke="midnightblue" d="M2062.55,-568.793C2013.38,-566.23 1941.59,-556.504 1888.5,-524 1857.18,-504.827 1837.5,-495.72 1837.5,-459 1837.5,-459 1837.5,-459 1837.5,-401 1837.5,-326.187 1659.89,-204.349 1594.5,-168 1559.38,-148.474 1515.61,-137.238 1480.51,-130.876"/>
<polygon fill="midnightblue" stroke="midnightblue" points="1480.84,-127.38 1470.39,-129.131 1479.65,-134.278 1480.84,-127.38"/>
</g>
<!-- Node35&#45;&gt;Node11 -->
<g id="edge139" class="edge"><title>Node35&#45;&gt;Node11</title>
<path fill="none" stroke="midnightblue" d="M2174.47,-566.223C2223.12,-561.967 2294.38,-551.203 2350.5,-524 2384.81,-507.367 2397.72,-501.735 2415.5,-468 2477.99,-349.412 2524.83,-276.777 2446.5,-168 2418.82,-129.564 2107.19,-50.8258 1988.25,-21.9388"/>
<polygon fill="midnightblue" stroke="midnightblue" points="1988.9,-18.4941 1978.36,-19.5422 1987.25,-25.2975 1988.9,-18.4941"/>
</g>
<!-- Node35&#45;&gt;Node12 -->
<g id="edge144" class="edge"><title>Node35&#45;&gt;Node12</title>
<path fill="none" stroke="midnightblue" d="M2174.44,-566.005C2296.27,-559.188 2577.85,-541.729 2617.5,-524 2794.96,-444.659 2859.86,-378.71 2897.5,-188 2904.1,-154.576 2906.68,-140.158 2887.5,-112 2860.77,-72.75 2841.36,-71.5683 2796.5,-56 2687.13,-18.0486 2550.9,-10.7823 2473.3,-10.0987"/>
<polygon fill="midnightblue" stroke="midnightblue" points="2473.22,-6.5984 2463.21,-10.0443 2473.19,-13.5983 2473.22,-6.5984"/>
</g>
<!-- Node35&#45;&gt;Node13 -->
<g id="edge94" class="edge"><title>Node35&#45;&gt;Node13</title>
<path fill="none" stroke="midnightblue" d="M2167.15,-560.452C2248.06,-544.839 2401.5,-508.682 2401.5,-459 2401.5,-459 2401.5,-459 2401.5,-289 2401.5,-256.883 2398.49,-219.598 2396.42,-197.726"/>
<polygon fill="midnightblue" stroke="midnightblue" points="2399.88,-197.154 2395.42,-187.546 2392.91,-197.841 2399.88,-197.154"/>
</g>
<!-- Node35&#45;&gt;Node17 -->
<g id="edge93" class="edge"><title>Node35&#45;&gt;Node17</title>
<path fill="none" stroke="midnightblue" d="M2062.79,-567.661C1873.92,-562.391 1269.5,-539.259 1269.5,-459 1269.5,-459 1269.5,-459 1269.5,-401 1269.5,-347.126 1332.68,-317.138 1378.1,-302.54"/>
<polygon fill="midnightblue" stroke="midnightblue" points="1379.25,-305.849 1387.78,-299.571 1377.2,-299.157 1379.25,-305.849"/>
</g>
<!-- Node35&#45;&gt;Node19 -->
<g id="edge91" class="edge"><title>Node35&#45;&gt;Node19</title>
<path fill="none" stroke="midnightblue" d="M2062.68,-569.119C1844.27,-568.858 1059.5,-560.837 1059.5,-459 1059.5,-459 1059.5,-459 1059.5,-401 1059.5,-368.863 1056.06,-331.584 1053.69,-309.719"/>
<polygon fill="midnightblue" stroke="midnightblue" points="1057.14,-309.087 1052.55,-299.542 1050.19,-309.872 1057.14,-309.087"/>
</g>
<!-- Node35&#45;&gt;Node21 -->
<g id="edge92" class="edge"><title>Node35&#45;&gt;Node21</title>
<path fill="none" stroke="midnightblue" d="M2062.68,-568.413C1866.55,-566.082 1216.18,-555.997 1128.5,-524 1022.01,-485.139 1028.97,-411.116 1006.5,-300 1002.63,-280.878 997.068,-226.465 994.261,-197.566"/>
<polygon fill="midnightblue" stroke="midnightblue" points="997.739,-197.167 993.3,-187.548 990.771,-197.836 997.739,-197.167"/>
</g>
<!-- Node36 -->
<g id="node36" class="node"><title>Node36</title>
<g id="a_node36"><a xlink:href="_ogre_scene_query_8h.html" target="_top" xlink:title="OgreSceneQuery.h">
<polygon fill="none" stroke="red" points="2645.5,-168.5 2645.5,-187.5 2745.5,-187.5 2745.5,-168.5 2645.5,-168.5"/>
<text text-anchor="middle" x="2695.5" y="-175.5" font-family="Helvetica,sans-Serif" font-size="10.00">OgreSceneQuery.h</text>
</a>
</g>
</g>
<!-- Node35&#45;&gt;Node36 -->
<g id="edge95" class="edge"><title>Node35&#45;&gt;Node36</title>
<path fill="none" stroke="midnightblue" d="M2174.02,-566.876C2264.01,-562.679 2437.12,-551.25 2491.5,-524 2527.19,-506.114 2553.5,-498.923 2553.5,-459 2553.5,-459 2553.5,-459 2553.5,-289 2553.5,-258.902 2551.94,-245.976 2572.5,-224 2589.01,-206.356 2613.01,-195.606 2635.44,-189.067"/>
<polygon fill="midnightblue" stroke="midnightblue" points="2636.51,-192.403 2645.26,-186.432 2634.69,-185.642 2636.51,-192.403"/>
</g>
<!-- Node37 -->
<g id="node37" class="node"><title>Node37</title>
<g id="a_node37"><a xlink:href="_ogre_auto_param_data_source_8h.html" target="_top" xlink:title="OgreAutoParamDataSource.h">
<polygon fill="none" stroke="red" points="2075.5,-224.5 2075.5,-243.5 2221.5,-243.5 2221.5,-224.5 2075.5,-224.5"/>
<text text-anchor="middle" x="2148.5" y="-231.5" font-family="Helvetica,sans-Serif" font-size="10.00">OgreAutoParamDataSource.h</text>
</a>
</g>
</g>
<!-- Node35&#45;&gt;Node37 -->
<g id="edge99" class="edge"><title>Node35&#45;&gt;Node37</title>
<path fill="none" stroke="midnightblue" d="M2123.78,-560.231C2134.23,-542.043 2156.5,-498.601 2156.5,-459 2156.5,-459 2156.5,-459 2156.5,-345 2156.5,-312.863 2153.06,-275.584 2150.69,-253.719"/>
<polygon fill="midnightblue" stroke="midnightblue" points="2154.14,-253.087 2149.55,-243.542 2147.19,-253.872 2154.14,-253.087"/>
</g>
<!-- Node38 -->
<g id="node38" class="node"><title>Node38</title>
<g id="a_node38"><a xlink:href="_ogre_animation_state_8h.html" target="_top" xlink:title="OgreAnimationState.h">
<polygon fill="none" stroke="red" points="2715,-224.5 2715,-243.5 2828,-243.5 2828,-224.5 2715,-224.5"/>
<text text-anchor="middle" x="2771.5" y="-231.5" font-family="Helvetica,sans-Serif" font-size="10.00">OgreAnimationState.h</text>
</a>
</g>
</g>
<!-- Node35&#45;&gt;Node38 -->
<g id="edge102" class="edge"><title>Node35&#45;&gt;Node38</title>
<path fill="none" stroke="midnightblue" d="M2174.42,-566.435C2291.77,-560.658 2555.79,-545.434 2590.5,-524 2696.31,-458.665 2750.34,-305.97 2766.33,-253.269"/>
<polygon fill="midnightblue" stroke="midnightblue" points="2769.71,-254.19 2769.17,-243.608 2762.99,-252.216 2769.71,-254.19"/>
</g>
<!-- Node39 -->
<g id="node39" class="node"><title>Node39</title>
<g id="a_node39"><a xlink:href="_ogre_render_queue_8h.html" target="_top" xlink:title="OgreRenderQueue.h">
<polygon fill="none" stroke="red" points="1935.5,-168.5 1935.5,-187.5 2041.5,-187.5 2041.5,-168.5 1935.5,-168.5"/>
<text text-anchor="middle" x="1988.5" y="-175.5" font-family="Helvetica,sans-Serif" font-size="10.00">OgreRenderQueue.h</text>
</a>
</g>
</g>
<!-- Node35&#45;&gt;Node39 -->
<g id="edge107" class="edge"><title>Node35&#45;&gt;Node39</title>
<path fill="none" stroke="midnightblue" d="M2062.75,-567.411C1991.01,-562.053 1875.5,-540.735 1875.5,-459 1875.5,-459 1875.5,-459 1875.5,-401 1875.5,-370.205 1866.23,-363.046 1851.5,-336 1823.54,-284.652 1745.83,-269.54 1782.5,-224 1791.58,-212.719 1868.15,-198.19 1925.3,-188.738"/>
<polygon fill="midnightblue" stroke="midnightblue" points="1926.07,-192.161 1935.37,-187.093 1924.94,-185.252 1926.07,-192.161"/>
</g>
<!-- Node40 -->
<g id="node40" class="node"><title>Node40</title>
<g id="a_node40"><a xlink:href="_ogre_render_queue_sorting_grouping_8h.html" target="_top" xlink:title="OgreRenderQueueSortingGrouping.h">
<polygon fill="none" stroke="red" points="1559.5,-504.5 1559.5,-523.5 1735.5,-523.5 1735.5,-504.5 1559.5,-504.5"/>
<text text-anchor="middle" x="1647.5" y="-511.5" font-family="Helvetica,sans-Serif" font-size="10.00">OgreRenderQueueSortingGrouping.h</text>
</a>
</g>
</g>
<!-- Node35&#45;&gt;Node40 -->
<g id="edge111" class="edge"><title>Node35&#45;&gt;Node40</title>
<path fill="none" stroke="midnightblue" d="M2062.62,-562.593C1980.8,-553.213 1827.77,-535.668 1732.11,-524.7"/>
<polygon fill="midnightblue" stroke="midnightblue" points="1732.22,-521.19 1721.89,-523.529 1731.42,-528.145 1732.22,-521.19"/>
</g>
<!-- Node41 -->
<g id="node41" class="node"><title>Node41</title>
<g id="a_node41"><a xlink:href="_ogre_resource_group_manager_8h.html" target="_top" xlink:title="OgreResourceGroupManager.h">
<polygon fill="none" stroke="red" points="1791.5,-224.5 1791.5,-243.5 1943.5,-243.5 1943.5,-224.5 1791.5,-224.5"/>
<text text-anchor="middle" x="1867.5" y="-231.5" font-family="Helvetica,sans-Serif" font-size="10.00">OgreResourceGroupManager.h</text>
</a>
</g>
</g>
<!-- Node35&#45;&gt;Node41 -->
<g id="edge114" class="edge"><title>Node35&#45;&gt;Node41</title>
<path fill="none" stroke="midnightblue" d="M2113.22,-560.231C2102.77,-542.043 2080.5,-498.601 2080.5,-459 2080.5,-459 2080.5,-459 2080.5,-401 2080.5,-315.065 1971.3,-267.088 1909.28,-246.768"/>
<polygon fill="midnightblue" stroke="midnightblue" points="1909.98,-243.318 1899.39,-243.63 1907.86,-249.99 1909.98,-243.318"/>
</g>
<!-- Node42 -->
<g id="node42" class="node"><title>Node42</title>
<g id="a_node42"><a xlink:href="_ogre_shadow_texture_manager_8h.html" target="_top" xlink:title="OgreShadowTextureManager.h">
<polygon fill="none" stroke="red" points="1143.5,-224.5 1143.5,-243.5 1295.5,-243.5 1295.5,-224.5 1143.5,-224.5"/>
<text text-anchor="middle" x="1219.5" y="-231.5" font-family="Helvetica,sans-Serif" font-size="10.00">OgreShadowTextureManager.h</text>
</a>
</g>
</g>
<!-- Node35&#45;&gt;Node42 -->
<g id="edge120" class="edge"><title>Node35&#45;&gt;Node42</title>
<path fill="none" stroke="midnightblue" d="M2062.86,-568.776C1910.29,-567.676 1487.82,-561.257 1354.5,-524 1294.95,-507.359 1231.5,-520.831 1231.5,-459 1231.5,-459 1231.5,-459 1231.5,-345 1231.5,-312.758 1226.34,-275.512 1222.79,-253.681"/>
<polygon fill="midnightblue" stroke="midnightblue" points="1226.19,-252.798 1221.07,-243.523 1219.29,-253.967 1226.19,-252.798"/>
</g>
<!-- Node43 -->
<g id="node43" class="node"><title>Node43</title>
<g id="a_node43"><a xlink:href="_ogre_instance_manager_8h.html" target="_top" xlink:title="OgreInstanceManager.h">
<polygon fill="none" stroke="red" points="2098,-168.5 2098,-187.5 2219,-187.5 2219,-168.5 2098,-168.5"/>
<text text-anchor="middle" x="2158.5" y="-175.5" font-family="Helvetica,sans-Serif" font-size="10.00">OgreInstanceManager.h</text>
</a>
</g>
</g>
<!-- Node35&#45;&gt;Node43 -->
<g id="edge125" class="edge"><title>Node35&#45;&gt;Node43</title>
<path fill="none" stroke="midnightblue" d="M2118.5,-560.442C2118.5,-541.936 2118.5,-496.812 2118.5,-459 2118.5,-459 2118.5,-459 2118.5,-345 2118.5,-286.466 2035.51,-273.657 2066.5,-224 2076.26,-208.364 2093.2,-198.013 2109.9,-191.23"/>
<polygon fill="midnightblue" stroke="midnightblue" points="2111.48,-194.378 2119.65,-187.636 2109.06,-187.81 2111.48,-194.378"/>
</g>
<!-- Node44 -->
<g id="node44" class="node"><title>Node44</title>
<g id="a_node44"><a xlink:href="_ogre_render_system_8h.html" target="_top" xlink:title="OgreRenderSystem.h">
<polygon fill="none" stroke="red" points="2194,-448.5 2194,-467.5 2305,-467.5 2305,-448.5 2194,-448.5"/>
<text text-anchor="middle" x="2249.5" y="-455.5" font-family="Helvetica,sans-Serif" font-size="10.00">OgreRenderSystem.h</text>
</a>
</g>
</g>
<!-- Node35&#45;&gt;Node44 -->
<g id="edge129" class="edge"><title>Node35&#45;&gt;Node44</title>
<path fill="none" stroke="midnightblue" d="M2128.78,-560.368C2150.97,-541.733 2203.61,-497.532 2231.48,-474.134"/>
<polygon fill="midnightblue" stroke="midnightblue" points="2233.86,-476.702 2239.27,-467.591 2229.36,-471.342 2233.86,-476.702"/>
</g>
<!-- Node45 -->
<g id="node45" class="node"><title>Node45</title>
<g id="a_node45"><a xlink:href="_ogre_lod_listener_8h.html" target="_top" xlink:title="OgreLodListener.h">
<polygon fill="none" stroke="black" points="1675.5,-392.5 1675.5,-411.5 1771.5,-411.5 1771.5,-392.5 1675.5,-392.5"/>
<text text-anchor="middle" x="1723.5" y="-399.5" font-family="Helvetica,sans-Serif" font-size="10.00">OgreLodListener.h</text>
</a>
</g>
</g>
<!-- Node35&#45;&gt;Node45 -->
<g id="edge137" class="edge"><title>Node35&#45;&gt;Node45</title>
<path fill="none" stroke="midnightblue" d="M2062.95,-565.249C1989.14,-559.468 1863.39,-546.613 1823.5,-524 1779.98,-499.329 1747.46,-447.832 1732.54,-420.66"/>
<polygon fill="midnightblue" stroke="midnightblue" points="1735.48,-418.733 1727.69,-411.544 1729.3,-422.017 1735.48,-418.733"/>
</g>
<!-- Node46 -->
<g id="node46" class="node"><title>Node46</title>
<g id="a_node46"><a xlink:href="_ogre_name_generator_8h.html" target="_top" xlink:title="OgreNameGenerator.h">
<polygon fill="none" stroke="red" points="2582,-224.5 2582,-243.5 2697,-243.5 2697,-224.5 2582,-224.5"/>
<text text-anchor="middle" x="2639.5" y="-231.5" font-family="Helvetica,sans-Serif" font-size="10.00">OgreNameGenerator.h</text>
</a>
</g>
</g>
<!-- Node35&#45;&gt;Node46 -->
<g id="edge140" class="edge"><title>Node35&#45;&gt;Node46</title>
<path fill="none" stroke="midnightblue" d="M2174.19,-566.693C2287.55,-561.531 2536.98,-547.61 2567.5,-524 2591.86,-505.156 2591.5,-489.795 2591.5,-459 2591.5,-459 2591.5,-459 2591.5,-345 2591.5,-309.585 2612.66,-272.707 2626.88,-251.92"/>
<polygon fill="midnightblue" stroke="midnightblue" points="2629.88,-253.742 2632.83,-243.565 2624.18,-249.684 2629.88,-253.742"/>
</g>
<!-- Node36&#45;&gt;Node3 -->
<g id="edge96" class="edge"><title>Node36&#45;&gt;Node3</title>
<path fill="none" stroke="midnightblue" d="M2645.25,-169.437C2640.61,-168.888 2635.97,-168.396 2631.5,-168 2191.58,-129.011 1659,-123.7 1480.3,-123.056"/>
<polygon fill="midnightblue" stroke="midnightblue" points="1480.06,-119.556 1470.05,-123.023 1480.04,-126.556 1480.06,-119.556"/>
</g>
<!-- Node36&#45;&gt;Node11 -->
<g id="edge97" class="edge"><title>Node36&#45;&gt;Node11</title>
<path fill="none" stroke="midnightblue" d="M2670.61,-168.493C2605.9,-146.681 2426.77,-88.2178 2273.5,-56 2180.71,-36.495 2071.42,-23.5488 2004.57,-16.7398"/>
<polygon fill="midnightblue" stroke="midnightblue" points="2004.51,-13.2166 1994.21,-15.6996 2003.81,-20.1815 2004.51,-13.2166"/>
</g>
<!-- Node36&#45;&gt;Node12 -->
<g id="edge98" class="edge"><title>Node36&#45;&gt;Node12</title>
<path fill="none" stroke="midnightblue" d="M2693.61,-168.315C2688.25,-145.817 2670.68,-85.354 2631.5,-56 2606.94,-37.5971 2529.37,-24.8089 2473.29,-17.6902"/>
<polygon fill="midnightblue" stroke="midnightblue" points="2473.44,-14.1822 2463.08,-16.4269 2472.58,-21.1291 2473.44,-14.1822"/>
</g>
<!-- Node37&#45;&gt;Node3 -->
<g id="edge100" class="edge"><title>Node37&#45;&gt;Node3</title>
<path fill="none" stroke="midnightblue" d="M2075.49,-231.547C1990.63,-228.408 1846.95,-218.583 1727.5,-188 1705.11,-182.268 1701.69,-174.448 1679.5,-168 1612.71,-148.596 1533.74,-136.412 1480.29,-129.69"/>
<polygon fill="midnightblue" stroke="midnightblue" points="1480.63,-126.207 1470.28,-128.458 1479.78,-133.154 1480.63,-126.207"/>
</g>
<!-- Node37&#45;&gt;Node13 -->
<g id="edge101" class="edge"><title>Node37&#45;&gt;Node13</title>
<path fill="none" stroke="midnightblue" d="M2187.48,-224.444C2230.39,-215.023 2299.45,-199.866 2345.87,-189.675"/>
<polygon fill="midnightblue" stroke="midnightblue" points="2346.69,-193.079 2355.7,-187.516 2345.19,-186.242 2346.69,-193.079"/>
</g>
<!-- Node38&#45;&gt;Node3 -->
<g id="edge103" class="edge"><title>Node38&#45;&gt;Node3</title>
<path fill="none" stroke="midnightblue" d="M2720.38,-224.487C2670.89,-216.03 2593.82,-202.29 2527.5,-188 2491.25,-180.189 2483.2,-173.281 2446.5,-168 2258.33,-140.924 1672.49,-127.765 1480.28,-124.097"/>
<polygon fill="midnightblue" stroke="midnightblue" points="1480.14,-120.594 1470.07,-123.905 1480,-127.593 1480.14,-120.594"/>
</g>
<!-- Node38&#45;&gt;Node11 -->
<g id="edge105" class="edge"><title>Node38&#45;&gt;Node11</title>
<path fill="none" stroke="midnightblue" d="M2773.86,-224.42C2776.95,-211.401 2780.93,-186.245 2771.5,-168 2751.74,-129.768 2732.02,-129.051 2692.5,-112 2568.68,-58.5717 2161.17,-25.885 2004.57,-15.0307"/>
<polygon fill="midnightblue" stroke="midnightblue" points="2004.39,-11.5105 1994.18,-14.3171 2003.91,-18.4941 2004.39,-11.5105"/>
</g>
<!-- Node38&#45;&gt;Node12 -->
<g id="edge106" class="edge"><title>Node38&#45;&gt;Node12</title>
<path fill="none" stroke="midnightblue" d="M2810.35,-224.364C2829.88,-217.847 2851.83,-206.704 2863.5,-188 2882.44,-157.653 2833.93,-119.302 2825.5,-112 2782.53,-74.777 2764.79,-72.8689 2710.5,-56 2630.77,-31.2253 2534.7,-19.8651 2473.36,-14.8139"/>
<polygon fill="midnightblue" stroke="midnightblue" points="2473.32,-11.2998 2463.08,-13.9992 2472.77,-18.278 2473.32,-11.2998"/>
</g>
<!-- Node38&#45;&gt;Node13 -->
<g id="edge104" class="edge"><title>Node38&#45;&gt;Node13</title>
<path fill="none" stroke="midnightblue" d="M2714.65,-224.857C2642.31,-214.495 2518.29,-196.73 2447.72,-186.623"/>
<polygon fill="midnightblue" stroke="midnightblue" points="2448.1,-183.142 2437.71,-185.189 2447.11,-190.072 2448.1,-183.142"/>
</g>
<!-- Node39&#45;&gt;Node3 -->
<g id="edge108" class="edge"><title>Node39&#45;&gt;Node3</title>
<path fill="none" stroke="midnightblue" d="M1935.39,-171.968C1829.53,-161.939 1592.76,-139.509 1480.21,-128.846"/>
<polygon fill="midnightblue" stroke="midnightblue" points="1480.32,-125.341 1470.04,-127.882 1479.66,-132.31 1480.32,-125.341"/>
</g>
<!-- Node39&#45;&gt;Node11 -->
<g id="edge109" class="edge"><title>Node39&#45;&gt;Node11</title>
<path fill="none" stroke="midnightblue" d="M1988.94,-168.443C1989.68,-148.16 1989.81,-95.8776 1974.5,-56 1970.51,-45.6162 1963.57,-35.4007 1957.16,-27.3342"/>
<polygon fill="midnightblue" stroke="midnightblue" points="1959.7,-24.9206 1950.59,-19.5184 1954.35,-29.4251 1959.7,-24.9206"/>
</g>
<!-- Node39&#45;&gt;Node12 -->
<g id="edge110" class="edge"><title>Node39&#45;&gt;Node12</title>
<path fill="none" stroke="midnightblue" d="M2027.56,-168.447C2089.61,-154.063 2213.68,-122.02 2311.5,-76 2341.4,-61.9356 2372.87,-40.1516 2392.35,-25.7351"/>
<polygon fill="midnightblue" stroke="midnightblue" points="2394.51,-28.4892 2400.4,-19.6839 2390.3,-22.8929 2394.51,-28.4892"/>
</g>
<!-- Node40&#45;&gt;Node3 -->
<g id="edge112" class="edge"><title>Node40&#45;&gt;Node3</title>
<path fill="none" stroke="midnightblue" d="M1648.09,-504.327C1650.17,-467.166 1654.05,-318.963 1591.5,-224 1560.48,-176.91 1499.36,-148.955 1458.71,-134.786"/>
<polygon fill="midnightblue" stroke="midnightblue" points="1459.7,-131.425 1449.1,-131.559 1457.47,-138.061 1459.7,-131.425"/>
</g>
<!-- Node40&#45;&gt;Node34 -->
<g id="edge113" class="edge"><title>Node40&#45;&gt;Node34</title>
<path fill="none" stroke="midnightblue" d="M1622.78,-504.444C1596.65,-495.399 1555.24,-481.064 1525.92,-470.916"/>
<polygon fill="midnightblue" stroke="midnightblue" points="1526.7,-467.48 1516.1,-467.516 1524.41,-474.095 1526.7,-467.48"/>
</g>
<!-- Node41&#45;&gt;Node3 -->
<g id="edge115" class="edge"><title>Node41&#45;&gt;Node3</title>
<path fill="none" stroke="midnightblue" d="M1826.72,-224.485C1790.32,-216.463 1735.77,-203.397 1689.5,-188 1667.57,-180.704 1663.6,-174.763 1641.5,-168 1587.95,-151.615 1525.32,-139.576 1480.09,-132.096"/>
<polygon fill="midnightblue" stroke="midnightblue" points="1480.57,-128.628 1470.14,-130.477 1479.44,-135.537 1480.57,-128.628"/>
</g>
<!-- Node41&#45;&gt;Node11 -->
<g id="edge118" class="edge"><title>Node41&#45;&gt;Node11</title>
<path fill="none" stroke="midnightblue" d="M1939.42,-224.456C1984.48,-217.455 2036.57,-205.767 2050.5,-188 2094.45,-131.927 2005.89,-56.7589 1963.44,-25.5384"/>
<polygon fill="midnightblue" stroke="midnightblue" points="1965.31,-22.5695 1955.15,-19.5661 1961.22,-28.25 1965.31,-22.5695"/>
</g>
<!-- Node41&#45;&gt;Node12 -->
<g id="edge119" class="edge"><title>Node41&#45;&gt;Node12</title>
<path fill="none" stroke="midnightblue" d="M1943.75,-226.747C2040.9,-218.355 2203.19,-202.787 2261.5,-188 2326.06,-171.629 2502.23,-131.198 2539.5,-76 2559.9,-45.7865 2515.2,-28.8789 2473.13,-19.9357"/>
<polygon fill="midnightblue" stroke="midnightblue" points="2473.59,-16.4585 2463.1,-17.9356 2472.22,-23.3234 2473.59,-16.4585"/>
</g>
<!-- Node41&#45;&gt;Node13 -->
<g id="edge117" class="edge"><title>Node41&#45;&gt;Node13</title>
<path fill="none" stroke="midnightblue" d="M1943.77,-227.14C2036.88,-219.654 2199.05,-205.541 2337.5,-188 2338.76,-187.841 2340.03,-187.675 2341.31,-187.504"/>
<polygon fill="midnightblue" stroke="midnightblue" points="2341.86,-190.962 2351.28,-186.109 2340.89,-184.029 2341.86,-190.962"/>
</g>
<!-- Node41&#45;&gt;Node30 -->
<g id="edge116" class="edge"><title>Node41&#45;&gt;Node30</title>
<path fill="none" stroke="midnightblue" d="M1791.47,-225.885C1672.84,-214.782 1446.63,-193.612 1343.78,-183.986"/>
<polygon fill="midnightblue" stroke="midnightblue" points="1343.91,-180.483 1333.63,-183.036 1343.26,-187.453 1343.91,-180.483"/>
</g>
<!-- Node42&#45;&gt;Node3 -->
<g id="edge121" class="edge"><title>Node42&#45;&gt;Node3</title>
<path fill="none" stroke="midnightblue" d="M1219.45,-224.477C1219.85,-210.601 1222.74,-183.155 1238.5,-168 1255.45,-151.708 1311.58,-139.365 1356.71,-131.765"/>
<polygon fill="midnightblue" stroke="midnightblue" points="1357.44,-135.193 1366.74,-130.122 1356.31,-128.285 1357.44,-135.193"/>
</g>
<!-- Node42&#45;&gt;Node11 -->
<g id="edge123" class="edge"><title>Node42&#45;&gt;Node11</title>
<path fill="none" stroke="midnightblue" d="M1203.83,-224.43C1183.61,-212.236 1152.68,-189.024 1167.5,-168 1249.92,-51.0947 1711.69,-20.4834 1880.6,-13.1407"/>
<polygon fill="midnightblue" stroke="midnightblue" points="1880.97,-16.628 1890.82,-12.7095 1880.68,-9.63427 1880.97,-16.628"/>
</g>
<!-- Node42&#45;&gt;Node12 -->
<g id="edge124" class="edge"><title>Node42&#45;&gt;Node12</title>
<path fill="none" stroke="midnightblue" d="M1217.15,-224.065C1214.16,-210.583 1210.69,-184.83 1222.5,-168 1241.16,-141.413 1325.82,-119.15 1357.5,-112 1665.28,-42.5377 1753.19,-113.294 2066.5,-76 2174.36,-63.1608 2299.24,-36.6967 2365.18,-21.8"/>
<polygon fill="midnightblue" stroke="midnightblue" points="2366.26,-25.1419 2375.24,-19.5124 2364.71,-18.3161 2366.26,-25.1419"/>
</g>
<!-- Node42&#45;&gt;Node30 -->
<g id="edge122" class="edge"><title>Node42&#45;&gt;Node30</title>
<path fill="none" stroke="midnightblue" d="M1230.91,-224.324C1241.61,-216.185 1257.84,-203.839 1270.66,-194.087"/>
<polygon fill="midnightblue" stroke="midnightblue" points="1273.04,-196.673 1278.89,-187.834 1268.81,-191.102 1273.04,-196.673"/>
</g>
<!-- Node43&#45;&gt;Node3 -->
<g id="edge126" class="edge"><title>Node43&#45;&gt;Node3</title>
<path fill="none" stroke="midnightblue" d="M2097.96,-171.826C2082.49,-170.539 2065.88,-169.189 2050.5,-168 1841.52,-151.853 1593.49,-134.812 1480.33,-127.154"/>
<polygon fill="midnightblue" stroke="midnightblue" points="1480.34,-123.647 1470.13,-126.464 1479.87,-130.631 1480.34,-123.647"/>
</g>
<!-- Node43&#45;&gt;Node11 -->
<g id="edge127" class="edge"><title>Node43&#45;&gt;Node11</title>
<path fill="none" stroke="midnightblue" d="M2152.33,-168.243C2136.7,-146.594 2093.37,-89.8657 2045.5,-56 2025.38,-41.7621 2000.03,-30.6181 1979.52,-22.9816"/>
<polygon fill="midnightblue" stroke="midnightblue" points="1980.48,-19.6064 1969.88,-19.5164 1978.11,-26.1935 1980.48,-19.6064"/>
</g>
<!-- Node43&#45;&gt;Node12 -->
<g id="edge128" class="edge"><title>Node43&#45;&gt;Node12</title>
<path fill="none" stroke="midnightblue" d="M2179.87,-168.414C2216.62,-153.074 2293.26,-118.549 2349.5,-76 2368.24,-61.818 2386.41,-41.8048 2398.18,-27.7424"/>
<polygon fill="midnightblue" stroke="midnightblue" points="2401,-29.8164 2404.63,-19.8609 2395.59,-25.3832 2401,-29.8164"/>
</g>
<!-- Node44&#45;&gt;Node3 -->
<g id="edge130" class="edge"><title>Node44&#45;&gt;Node3</title>
<path fill="none" stroke="midnightblue" d="M2249.5,-448.442C2249.5,-429.936 2249.5,-384.812 2249.5,-347 2249.5,-347 2249.5,-347 2249.5,-289 2249.5,-258.902 2253.88,-242.959 2230.5,-224 2149.14,-158.017 1861.84,-214.514 1760.5,-188 1740.11,-182.665 1737.68,-174.075 1717.5,-168 1637.67,-143.972 1541.82,-132.438 1480.54,-127.143"/>
<polygon fill="midnightblue" stroke="midnightblue" points="1480.52,-123.63 1470.27,-126.286 1479.94,-130.605 1480.52,-123.63"/>
</g>
<!-- Node44&#45;&gt;Node11 -->
<g id="edge135" class="edge"><title>Node44&#45;&gt;Node11</title>
<path fill="none" stroke="midnightblue" d="M2266.65,-448.398C2329.19,-415.783 2538.36,-295.145 2479.5,-168 2463.34,-133.09 2447.66,-129.684 2413.5,-112 2356.44,-82.4662 2335.68,-92.1752 2273.5,-76 2239.7,-67.2063 2231.62,-63.4858 2197.5,-56 2131.84,-41.5929 2055.88,-28.6633 2004.06,-20.4005"/>
<polygon fill="midnightblue" stroke="midnightblue" points="2004.45,-16.919 1994.03,-18.8111 2003.36,-23.8328 2004.45,-16.919"/>
</g>
<!-- Node44&#45;&gt;Node12 -->
<g id="edge136" class="edge"><title>Node44&#45;&gt;Node12</title>
<path fill="none" stroke="midnightblue" d="M2305.15,-456.696C2444.08,-452.424 2800.7,-418.72 2880.5,-188 2906.91,-111.641 2831.9,-82.2857 2755.5,-56 2660.5,-23.3163 2543.26,-14.1195 2473.09,-11.6785"/>
<polygon fill="midnightblue" stroke="midnightblue" points="2473.19,-8.1801 2463.09,-11.3654 2472.97,-15.1767 2473.19,-8.1801"/>
</g>
<!-- Node44&#45;&gt;Node13 -->
<g id="edge132" class="edge"><title>Node44&#45;&gt;Node13</title>
<path fill="none" stroke="midnightblue" d="M2254,-448.375C2274.3,-409.459 2357.57,-249.807 2385.4,-196.454"/>
<polygon fill="midnightblue" stroke="midnightblue" points="2388.53,-198.009 2390.05,-187.524 2382.33,-194.772 2388.53,-198.009"/>
</g>
<!-- Node44&#45;&gt;Node15 -->
<g id="edge131" class="edge"><title>Node44&#45;&gt;Node15</title>
<path fill="none" stroke="midnightblue" d="M2193.62,-452.815C2089.78,-445.01 1860.02,-427.607 1666.5,-412 1654.67,-411.046 1642.1,-410.01 1629.9,-408.991"/>
<polygon fill="midnightblue" stroke="midnightblue" points="1630.02,-405.489 1619.76,-408.142 1629.43,-412.464 1630.02,-405.489"/>
</g>
<!-- Node44&#45;&gt;Node19 -->
<g id="edge134" class="edge"><title>Node44&#45;&gt;Node19</title>
<path fill="none" stroke="midnightblue" d="M2193.82,-457.673C2067.71,-458.333 1750.96,-455.125 1490.5,-412 1336.3,-386.469 1158.45,-328.207 1085.44,-302.995"/>
<polygon fill="midnightblue" stroke="midnightblue" points="1086.44,-299.638 1075.85,-299.664 1084.15,-306.251 1086.44,-299.638"/>
</g>
<!-- Node44&#45;&gt;Node25 -->
<g id="edge133" class="edge"><title>Node44&#45;&gt;Node25</title>
<path fill="none" stroke="midnightblue" d="M2194.01,-448.475C2106.34,-435.195 1930.35,-409.298 1780.5,-392 1365.51,-344.094 863.868,-307.195 692.375,-295.176"/>
<polygon fill="midnightblue" stroke="midnightblue" points="692.501,-291.677 682.282,-294.471 692.013,-298.66 692.501,-291.677"/>
</g>
<!-- Node45&#45;&gt;Node3 -->
<g id="edge138" class="edge"><title>Node45&#45;&gt;Node3</title>
<path fill="none" stroke="midnightblue" d="M1720.69,-392.156C1708.82,-356.422 1659.02,-222.044 1565.5,-168 1537.59,-151.873 1503.3,-140.948 1474.86,-133.905"/>
<polygon fill="midnightblue" stroke="midnightblue" points="1475.61,-130.484 1465.07,-131.574 1473.99,-137.294 1475.61,-130.484"/>
</g>
<!-- Node46&#45;&gt;Node11 -->
<g id="edge142" class="edge"><title>Node46&#45;&gt;Node11</title>
<path fill="none" stroke="midnightblue" d="M2686.49,-224.426C2727.32,-214.849 2776.69,-196.793 2754.5,-168 2694.88,-90.637 2425.47,-74.1305 2329.5,-56 2215.64,-34.4902 2080.87,-21.6172 2004.16,-15.454"/>
<polygon fill="midnightblue" stroke="midnightblue" points="2004.43,-11.9646 1994.18,-14.6643 2003.88,-18.9428 2004.43,-11.9646"/>
</g>
<!-- Node46&#45;&gt;Node12 -->
<g id="edge143" class="edge"><title>Node46&#45;&gt;Node12</title>
<path fill="none" stroke="midnightblue" d="M2688.82,-224.489C2727.08,-216.766 2775.55,-204.128 2787.5,-188 2792.79,-180.859 2790.36,-176.417 2787.5,-168 2745.52,-44.4007 2568.7,-17.4125 2473.24,-11.9771"/>
<polygon fill="midnightblue" stroke="midnightblue" points="2473.31,-8.47595 2463.14,-11.4652 2472.95,-15.467 2473.31,-8.47595"/>
</g>
<!-- Node46&#45;&gt;Node28 -->
<g id="edge141" class="edge"><title>Node46&#45;&gt;Node28</title>
<path fill="none" stroke="midnightblue" d="M2581.72,-229.574C2460.35,-222.328 2169.96,-204.736 1926.5,-188 1901.62,-186.29 1873.88,-184.237 1851.24,-182.524"/>
<polygon fill="midnightblue" stroke="midnightblue" points="1851.47,-179.031 1841.23,-181.763 1850.94,-186.011 1851.47,-179.031"/>
</g>
<!-- Node47&#45;&gt;Node2 -->
<g id="edge146" class="edge"><title>Node47&#45;&gt;Node2</title>
<path fill="none" stroke="midnightblue" d="M2594.94,-672.124C2596.02,-658.719 2599.74,-633.066 2612.5,-616 2646.68,-570.299 2708.12,-541.688 2747.83,-527.035"/>
<polygon fill="midnightblue" stroke="midnightblue" points="2749.19,-530.267 2757.43,-523.609 2746.84,-523.675 2749.19,-530.267"/>
</g>
<!-- Node48 -->
<g id="node48" class="node"><title>Node48</title>
<g id="a_node48"><a xlink:href="_ogre_shader_sub_render_state_8h.html" target="_top" xlink:title="OgreShaderSubRenderState.h">
<polygon fill="none" stroke="black" points="2622,-616.5 2622,-635.5 2771,-635.5 2771,-616.5 2622,-616.5"/>
<text text-anchor="middle" x="2696.5" y="-623.5" font-family="Helvetica,sans-Serif" font-size="10.00">OgreShaderSubRenderState.h</text>
</a>
</g>
</g>
<!-- Node47&#45;&gt;Node48 -->
<g id="edge147" class="edge"><title>Node47&#45;&gt;Node48</title>
<path fill="none" stroke="midnightblue" d="M2610.89,-672.324C2627.17,-663.703 2652.37,-650.364 2671.22,-640.386"/>
<polygon fill="midnightblue" stroke="midnightblue" points="2672.95,-643.427 2680.15,-635.655 2669.68,-637.24 2672.95,-643.427"/>
</g>
<!-- Node48&#45;&gt;Node2 -->
<g id="edge148" class="edge"><title>Node48&#45;&gt;Node2</title>
<path fill="none" stroke="midnightblue" d="M2697.31,-616.148C2698.92,-602.775 2703.57,-577.162 2716.5,-560 2726.71,-546.45 2742.27,-535.795 2756.04,-528.262"/>
<polygon fill="midnightblue" stroke="midnightblue" points="2757.9,-531.238 2765.19,-523.548 2754.7,-525.015 2757.9,-531.238"/>
</g>
<!-- Node48&#45;&gt;Node49 -->
<g id="edge149" class="edge"><title>Node48&#45;&gt;Node49</title>
<path fill="none" stroke="midnightblue" d="M2712.89,-616.324C2729.17,-607.703 2754.37,-594.364 2773.22,-584.386"/>
<polygon fill="midnightblue" stroke="midnightblue" points="2774.95,-587.427 2782.15,-579.655 2771.68,-581.24 2774.95,-587.427"/>
</g>
<!-- Node49&#45;&gt;Node2 -->
<g id="edge150" class="edge"><title>Node49&#45;&gt;Node2</title>
<path fill="none" stroke="midnightblue" d="M2796.35,-560.083C2794.63,-552.927 2792.15,-542.635 2790,-533.691"/>
<polygon fill="midnightblue" stroke="midnightblue" points="2793.35,-532.654 2787.61,-523.751 2786.54,-534.293 2793.35,-532.654"/>
</g>
<!-- Node49&#45;&gt;Node50 -->
<g id="edge151" class="edge"><title>Node49&#45;&gt;Node50</title>
<path fill="none" stroke="midnightblue" d="M2820.68,-560.444C2843.93,-551.478 2880.65,-537.314 2906.92,-527.183"/>
<polygon fill="midnightblue" stroke="midnightblue" points="2908.35,-530.381 2916.42,-523.516 2905.83,-523.85 2908.35,-530.381"/>
</g>
<!-- Node50&#45;&gt;Node3 -->
<g id="edge152" class="edge"><title>Node50&#45;&gt;Node3</title>
<path fill="none" stroke="midnightblue" d="M2942.82,-504.408C2951.55,-486.2 2970.5,-442.181 2970.5,-403 2970.5,-403 2970.5,-403 2970.5,-289 2970.5,-192.386 2693.19,-200.648 2636.5,-188 2604.92,-180.954 2598.45,-173.115 2566.5,-168 2354.54,-134.068 1687.46,-125.384 1480.42,-123.478"/>
<polygon fill="midnightblue" stroke="midnightblue" points="1480.36,-119.978 1470.33,-123.388 1480.3,-126.978 1480.36,-119.978"/>
</g>
<!-- Node50&#45;&gt;Node11 -->
<g id="edge154" class="edge"><title>Node50&#45;&gt;Node11</title>
<path fill="none" stroke="midnightblue" d="M2948.83,-504.496C2968.3,-487.442 3008.5,-446.914 3008.5,-403 3008.5,-403 3008.5,-403 3008.5,-289 3008.5,-219.96 2837.01,-153.491 2730.5,-112 2634.88,-74.7495 2607.77,-72.582 2506.5,-56 2325.44,-26.3536 2108.35,-16.0129 2004.19,-12.5884"/>
<polygon fill="midnightblue" stroke="midnightblue" points="2004.27,-9.08931 1994.17,-12.2688 2004.05,-16.0858 2004.27,-9.08931"/>
</g>
<!-- Node50&#45;&gt;Node12 -->
<g id="edge155" class="edge"><title>Node50&#45;&gt;Node12</title>
<path fill="none" stroke="midnightblue" d="M2965.24,-504.415C2983.59,-497.289 3007.29,-485.469 3022.5,-468 3042.72,-444.774 3046.5,-433.795 3046.5,-403 3046.5,-403 3046.5,-403 3046.5,-121 3046.5,-78.8691 3016.01,-73.0811 2977.5,-56 2888.67,-16.6027 2600.95,-11.1982 2473.38,-10.7952"/>
<polygon fill="midnightblue" stroke="midnightblue" points="2473.38,-7.29525 2463.37,-10.7728 2473.37,-14.2952 2473.38,-7.29525"/>
</g>
<!-- Node50&#45;&gt;Node44 -->
<g id="edge153" class="edge"><title>Node50&#45;&gt;Node44</title>
<path fill="none" stroke="midnightblue" d="M2880.93,-505.997C2874.38,-505.282 2867.8,-504.599 2861.5,-504 2663.01,-485.111 2427.64,-469.789 2315.41,-462.914"/>
<polygon fill="midnightblue" stroke="midnightblue" points="2315.45,-459.411 2305.26,-462.295 2315.03,-466.398 2315.45,-459.411"/>
</g>
</g>
</svg>
