<?xml version="1.0" encoding="UTF-8" standalone="no"?>
<!DOCTYPE svg PUBLIC "-//W3C//DTD SVG 1.1//EN"
 "http://www.w3.org/Graphics/SVG/1.1/DTD/svg11.dtd">
<!-- Generated by graphviz version 2.38.0 (20140413.2041)
 -->
<!-- Title: OgreOverlayElementCommands.h Pages: 1 -->
<svg width="396pt" height="308pt"
 viewBox="0.00 0.00 396.00 308.00" xmlns="http://www.w3.org/2000/svg" xmlns:xlink="http://www.w3.org/1999/xlink">
<g id="graph0" class="graph" transform="scale(1 1) rotate(0) translate(4 304)">
<title>OgreOverlayElementCommands.h</title>
<!-- Node1 -->
<g id="node1" class="node"><title>Node1</title>
<polygon fill="#bfbfbf" stroke="black" points="200.5,-280.5 200.5,-299.5 366.5,-299.5 366.5,-280.5 200.5,-280.5"/>
<text text-anchor="middle" x="283.5" y="-287.5" font-family="Helvetica,sans-Serif" font-size="10.00">OgreOverlayElementCommands.h</text>
</g>
<!-- Node2 -->
<g id="node2" class="node"><title>Node2</title>
<g id="a_node2"><a xlink:href="_ogre_overlay_element_8h.html" target="_top" xlink:title="OgreOverlayElement.h">
<polygon fill="none" stroke="black" points="225.5,-224.5 225.5,-243.5 341.5,-243.5 341.5,-224.5 225.5,-224.5"/>
<text text-anchor="middle" x="283.5" y="-231.5" font-family="Helvetica,sans-Serif" font-size="10.00">OgreOverlayElement.h</text>
</a>
</g>
</g>
<!-- Node1&#45;&gt;Node2 -->
<g id="edge1" class="edge"><title>Node1&#45;&gt;Node2</title>
<path fill="none" stroke="midnightblue" d="M283.5,-269.805C283.5,-260.91 283.5,-250.78 283.5,-243.751"/>
<polygon fill="midnightblue" stroke="midnightblue" points="280,-270.083 283.5,-280.083 287,-270.083 280,-270.083"/>
</g>
<!-- Node3 -->
<g id="node3" class="node"><title>Node3</title>
<g id="a_node3"><a xlink:href="_ogre_overlay_container_8h.html" target="_top" xlink:title="OgreOverlayContainer.h">
<polygon fill="none" stroke="black" points="222.5,-168.5 222.5,-187.5 344.5,-187.5 344.5,-168.5 222.5,-168.5"/>
<text text-anchor="middle" x="283.5" y="-175.5" font-family="Helvetica,sans-Serif" font-size="10.00">OgreOverlayContainer.h</text>
</a>
</g>
</g>
<!-- Node2&#45;&gt;Node3 -->
<g id="edge2" class="edge"><title>Node2&#45;&gt;Node3</title>
<path fill="none" stroke="midnightblue" d="M283.5,-213.805C283.5,-204.91 283.5,-194.78 283.5,-187.751"/>
<polygon fill="midnightblue" stroke="midnightblue" points="280,-214.083 283.5,-224.083 287,-214.083 280,-214.083"/>
</g>
<!-- Node7 -->
<g id="node7" class="node"><title>Node7</title>
<g id="a_node7"><a xlink:href="_ogre_overlay_element_factory_8h.html" target="_top" xlink:title="OgreOverlayElementFactory.h">
<polygon fill="none" stroke="black" points="239,-0.5 239,-19.5 388,-19.5 388,-0.5 239,-0.5"/>
<text text-anchor="middle" x="313.5" y="-7.5" font-family="Helvetica,sans-Serif" font-size="10.00">OgreOverlayElementFactory.h</text>
</a>
</g>
</g>
<!-- Node2&#45;&gt;Node7 -->
<g id="edge8" class="edge"><title>Node2&#45;&gt;Node7</title>
<path fill="none" stroke="midnightblue" d="M315.4,-219.808C329.255,-212.464 344.374,-201.948 353.5,-188 367.302,-166.906 359.822,-157.066 362.5,-132 366.091,-98.3872 379.553,-86.7448 365.5,-56 358.105,-39.821 341.703,-27.2312 329.283,-19.5333"/>
<polygon fill="midnightblue" stroke="midnightblue" points="313.523,-216.831 306.098,-224.389 316.616,-223.111 313.523,-216.831"/>
</g>
<!-- Node8 -->
<g id="node8" class="node"><title>Node8</title>
<g id="a_node8"><a xlink:href="_ogre_text_area_overlay_element_8h.html" target="_top" xlink:title="OgreTextAreaOverlayElement.h">
<polygon fill="none" stroke="black" points="0,-56.5 0,-75.5 155,-75.5 155,-56.5 0,-56.5"/>
<text text-anchor="middle" x="77.5" y="-63.5" font-family="Helvetica,sans-Serif" font-size="10.00">OgreTextAreaOverlayElement.h</text>
</a>
</g>
</g>
<!-- Node2&#45;&gt;Node8 -->
<g id="edge9" class="edge"><title>Node2&#45;&gt;Node8</title>
<path fill="none" stroke="midnightblue" d="M259.931,-219.12C246.055,-210.639 228.367,-199.284 213.5,-188 162.649,-149.405 107.371,-96.3809 86.3131,-75.7285"/>
<polygon fill="midnightblue" stroke="midnightblue" points="258.476,-222.329 268.847,-224.496 262.091,-216.335 258.476,-222.329"/>
</g>
<!-- Node4 -->
<g id="node4" class="node"><title>Node4</title>
<g id="a_node4"><a xlink:href="_ogre_panel_overlay_element_8h.html" target="_top" xlink:title="OgrePanelOverlayElement.h">
<polygon fill="none" stroke="black" points="213.5,-112.5 213.5,-131.5 353.5,-131.5 353.5,-112.5 213.5,-112.5"/>
<text text-anchor="middle" x="283.5" y="-119.5" font-family="Helvetica,sans-Serif" font-size="10.00">OgrePanelOverlayElement.h</text>
</a>
</g>
</g>
<!-- Node3&#45;&gt;Node4 -->
<g id="edge3" class="edge"><title>Node3&#45;&gt;Node4</title>
<path fill="none" stroke="midnightblue" d="M283.5,-157.805C283.5,-148.91 283.5,-138.78 283.5,-131.751"/>
<polygon fill="midnightblue" stroke="midnightblue" points="280,-158.083 283.5,-168.083 287,-158.083 280,-158.083"/>
</g>
<!-- Node5 -->
<g id="node5" class="node"><title>Node5</title>
<g id="a_node5"><a xlink:href="_ogre_border_panel_overlay_element_8h.html" target="_top" xlink:title="OgreBorderPanelOverlayElement.h">
<polygon fill="none" stroke="black" points="173,-56.5 173,-75.5 342,-75.5 342,-56.5 173,-56.5"/>
<text text-anchor="middle" x="257.5" y="-63.5" font-family="Helvetica,sans-Serif" font-size="10.00">OgreBorderPanelOverlayElement.h</text>
</a>
</g>
</g>
<!-- Node4&#45;&gt;Node5 -->
<g id="edge4" class="edge"><title>Node4&#45;&gt;Node5</title>
<path fill="none" stroke="midnightblue" d="M274.825,-102.983C270.412,-93.8168 265.248,-83.0922 261.713,-75.7511"/>
<polygon fill="midnightblue" stroke="midnightblue" points="271.715,-104.591 279.207,-112.083 278.022,-101.555 271.715,-104.591"/>
</g>
<!-- Node4&#45;&gt;Node7 -->
<g id="edge7" class="edge"><title>Node4&#45;&gt;Node7</title>
<path fill="none" stroke="midnightblue" d="M315.342,-107.942C328.739,-100.665 342.95,-90.1661 350.5,-76 361.371,-55.603 339.237,-32.1457 324.739,-19.745"/>
<polygon fill="midnightblue" stroke="midnightblue" points="313.666,-104.867 306.288,-112.471 316.798,-111.128 313.666,-104.867"/>
</g>
<!-- Node6 -->
<g id="node6" class="node"><title>Node6</title>
<g id="a_node6"><a xlink:href="_ogre_trays_8h.html" target="_top" xlink:title="OgreTrays.h">
<polygon fill="none" stroke="black" points="124,-0.5 124,-19.5 195,-19.5 195,-0.5 124,-0.5"/>
<text text-anchor="middle" x="159.5" y="-7.5" font-family="Helvetica,sans-Serif" font-size="10.00">OgreTrays.h</text>
</a>
</g>
</g>
<!-- Node5&#45;&gt;Node6 -->
<g id="edge5" class="edge"><title>Node5&#45;&gt;Node6</title>
<path fill="none" stroke="midnightblue" d="M232.914,-51.4526C214.822,-41.4835 190.765,-28.2279 175.206,-19.6545"/>
<polygon fill="midnightblue" stroke="midnightblue" points="231.307,-54.5633 241.755,-56.324 234.685,-48.4324 231.307,-54.5633"/>
</g>
<!-- Node5&#45;&gt;Node7 -->
<g id="edge6" class="edge"><title>Node5&#45;&gt;Node7</title>
<path fill="none" stroke="midnightblue" d="M273.83,-49.2533C283.765,-39.6731 296.088,-27.7906 304.339,-19.8339"/>
<polygon fill="midnightblue" stroke="midnightblue" points="271.266,-46.8631 266.497,-56.324 276.125,-51.902 271.266,-46.8631"/>
</g>
<!-- Node8&#45;&gt;Node6 -->
<g id="edge10" class="edge"><title>Node8&#45;&gt;Node6</title>
<path fill="none" stroke="midnightblue" d="M99.3331,-50.6221C114.313,-40.7574 133.697,-27.9919 146.358,-19.6545"/>
<polygon fill="midnightblue" stroke="midnightblue" points="97.1015,-47.9009 90.6747,-56.324 100.951,-53.7471 97.1015,-47.9009"/>
</g>
<!-- Node8&#45;&gt;Node7 -->
<g id="edge11" class="edge"><title>Node8&#45;&gt;Node7</title>
<path fill="none" stroke="midnightblue" d="M124.906,-54.1529C169.497,-43.95 235.354,-28.8809 276.28,-19.5164"/>
<polygon fill="midnightblue" stroke="midnightblue" points="123.862,-50.8011 114.895,-56.4435 125.424,-57.6248 123.862,-50.8011"/>
</g>
</g>
</svg>
