<?xml version="1.0" encoding="UTF-8" standalone="no"?>
<!DOCTYPE svg PUBLIC "-//W3C//DTD SVG 1.1//EN"
 "http://www.w3.org/Graphics/SVG/1.1/DTD/svg11.dtd">
<!-- Generated by graphviz version 2.38.0 (20140413.2041)
 -->
<!-- Title: OgreGL3PlusHardwareIndexBuffer.h Pages: 1 -->
<svg width="2534pt" height="431pt"
 viewBox="0.00 0.00 2533.50 431.00" xmlns="http://www.w3.org/2000/svg" xmlns:xlink="http://www.w3.org/1999/xlink">
<g id="graph0" class="graph" transform="scale(1 1) rotate(0) translate(4 427)">
<title>OgreGL3PlusHardwareIndexBuffer.h</title>
<!-- Node1 -->
<g id="node1" class="node"><title>Node1</title>
<polygon fill="#bfbfbf" stroke="black" points="484,-392.5 484,-422.5 625,-422.5 625,-392.5 484,-392.5"/>
<text text-anchor="start" x="492" y="-410.5" font-family="Helvetica,sans-Serif" font-size="10.00">OgreGL3PlusHardwareIndex</text>
<text text-anchor="middle" x="554.5" y="-399.5" font-family="Helvetica,sans-Serif" font-size="10.00">Buffer.h</text>
</g>
<!-- Node2 -->
<g id="node2" class="node"><title>Node2</title>
<g id="a_node2"><a xlink:href="_ogre_g_l3_plus_prerequisites_8h.html" target="_top" xlink:title="OgreGL3PlusPrerequisites.h">
<polygon fill="none" stroke="black" points="295.5,-280.5 295.5,-299.5 435.5,-299.5 435.5,-280.5 295.5,-280.5"/>
<text text-anchor="middle" x="365.5" y="-287.5" font-family="Helvetica,sans-Serif" font-size="10.00">OgreGL3PlusPrerequisites.h</text>
</a>
</g>
</g>
<!-- Node1&#45;&gt;Node2 -->
<g id="edge1" class="edge"><title>Node1&#45;&gt;Node2</title>
<path fill="none" stroke="midnightblue" d="M531.325,-392.337C494.95,-370.108 424.867,-327.28 388.562,-305.093"/>
<polygon fill="midnightblue" stroke="midnightblue" points="390.044,-301.898 379.686,-299.669 386.394,-307.87 390.044,-301.898"/>
</g>
<!-- Node46 -->
<g id="node46" class="node"><title>Node46</title>
<g id="a_node46"><a xlink:href="_ogre_hardware_index_buffer_8h.html" target="_top" xlink:title="OgreHardwareIndexBuffer.h">
<polygon fill="none" stroke="black" points="551.5,-336.5 551.5,-355.5 689.5,-355.5 689.5,-336.5 551.5,-336.5"/>
<text text-anchor="middle" x="620.5" y="-343.5" font-family="Helvetica,sans-Serif" font-size="10.00">OgreHardwareIndexBuffer.h</text>
</a>
</g>
</g>
<!-- Node1&#45;&gt;Node46 -->
<g id="edge53" class="edge"><title>Node1&#45;&gt;Node46</title>
<path fill="none" stroke="midnightblue" d="M570.141,-392.399C580.127,-383.397 593.078,-371.721 603.345,-362.465"/>
<polygon fill="midnightblue" stroke="midnightblue" points="605.813,-364.953 610.896,-355.658 601.125,-359.754 605.813,-364.953"/>
</g>
<!-- Node3 -->
<g id="node3" class="node"><title>Node3</title>
<g id="a_node3"><a xlink:href="_ogre_prerequisites_8h.html" target="_top" xlink:title="OgrePrerequisites.h">
<polygon fill="none" stroke="black" points="492,-112.5 492,-131.5 595,-131.5 595,-112.5 492,-112.5"/>
<text text-anchor="middle" x="543.5" y="-119.5" font-family="Helvetica,sans-Serif" font-size="10.00">OgrePrerequisites.h</text>
</a>
</g>
</g>
<!-- Node2&#45;&gt;Node3 -->
<g id="edge2" class="edge"><title>Node2&#45;&gt;Node3</title>
<path fill="none" stroke="midnightblue" d="M382.41,-280.491C397.862,-272.286 420.913,-258.941 438.5,-244 476.655,-211.585 513.066,-164.931 531.321,-140.089"/>
<polygon fill="midnightblue" stroke="midnightblue" points="534.359,-141.861 537.395,-131.711 528.692,-137.753 534.359,-141.861"/>
</g>
<!-- Node40 -->
<g id="node40" class="node"><title>Node40</title>
<g id="a_node40"><a xlink:href="_ogre_log_manager_8h.html" target="_top" xlink:title="OgreLogManager.h">
<polygon fill="none" stroke="black" points="100,-224.5 100,-243.5 199,-243.5 199,-224.5 100,-224.5"/>
<text text-anchor="middle" x="149.5" y="-231.5" font-family="Helvetica,sans-Serif" font-size="10.00">OgreLogManager.h</text>
</a>
</g>
</g>
<!-- Node2&#45;&gt;Node40 -->
<g id="edge40" class="edge"><title>Node2&#45;&gt;Node40</title>
<path fill="none" stroke="midnightblue" d="M331.274,-280.444C293.988,-271.122 234.231,-256.183 193.489,-245.997"/>
<polygon fill="midnightblue" stroke="midnightblue" points="194.116,-242.546 183.566,-243.516 192.418,-249.337 194.116,-242.546"/>
</g>
<!-- Node43 -->
<g id="node43" class="node"><title>Node43</title>
<polygon fill="none" stroke="#bfbfbf" points="296,-224.5 296,-243.5 359,-243.5 359,-224.5 296,-224.5"/>
<text text-anchor="middle" x="327.5" y="-231.5" font-family="Helvetica,sans-Serif" font-size="10.00">windows.h</text>
</g>
<!-- Node2&#45;&gt;Node43 -->
<g id="edge50" class="edge"><title>Node2&#45;&gt;Node43</title>
<path fill="none" stroke="midnightblue" d="M359.225,-280.083C353.858,-272.455 345.982,-261.264 339.421,-251.941"/>
<polygon fill="midnightblue" stroke="midnightblue" points="342.275,-249.915 333.658,-243.751 336.551,-253.943 342.275,-249.915"/>
</g>
<!-- Node44 -->
<g id="node44" class="node"><title>Node44</title>
<polygon fill="none" stroke="#bfbfbf" points="377,-224.5 377,-243.5 430,-243.5 430,-224.5 377,-224.5"/>
<text text-anchor="middle" x="403.5" y="-231.5" font-family="Helvetica,sans-Serif" font-size="10.00">wingdi.h</text>
</g>
<!-- Node2&#45;&gt;Node44 -->
<g id="edge51" class="edge"><title>Node2&#45;&gt;Node44</title>
<path fill="none" stroke="midnightblue" d="M371.775,-280.083C377.142,-272.455 385.018,-261.264 391.579,-251.941"/>
<polygon fill="midnightblue" stroke="midnightblue" points="394.449,-253.943 397.342,-243.751 388.725,-249.915 394.449,-253.943"/>
</g>
<!-- Node45 -->
<g id="node45" class="node"><title>Node45</title>
<polygon fill="none" stroke="#bfbfbf" points="217,-224.5 217,-243.5 278,-243.5 278,-224.5 217,-224.5"/>
<text text-anchor="middle" x="247.5" y="-231.5" font-family="Helvetica,sans-Serif" font-size="10.00">GL/gl3w.h</text>
</g>
<!-- Node2&#45;&gt;Node45 -->
<g id="edge52" class="edge"><title>Node2&#45;&gt;Node45</title>
<path fill="none" stroke="midnightblue" d="M346.803,-280.444C327.556,-271.636 297.348,-257.812 275.3,-247.722"/>
<polygon fill="midnightblue" stroke="midnightblue" points="276.66,-244.495 266.11,-243.516 273.747,-250.86 276.66,-244.495"/>
</g>
<!-- Node4 -->
<g id="node4" class="node"><title>Node4</title>
<g id="a_node4"><a xlink:href="_ogre_platform_8h.html" target="_top" xlink:title="OgrePlatform.h">
<polygon fill="none" stroke="black" points="2165,-56.5 2165,-75.5 2248,-75.5 2248,-56.5 2165,-56.5"/>
<text text-anchor="middle" x="2206.5" y="-63.5" font-family="Helvetica,sans-Serif" font-size="10.00">OgrePlatform.h</text>
</a>
</g>
</g>
<!-- Node3&#45;&gt;Node4 -->
<g id="edge3" class="edge"><title>Node3&#45;&gt;Node4</title>
<path fill="none" stroke="midnightblue" d="M595.094,-119.325C842.63,-111.287 1906.75,-76.7334 2154.71,-68.6817"/>
<polygon fill="midnightblue" stroke="midnightblue" points="2155,-72.1741 2164.89,-68.3513 2154.78,-65.1777 2155,-72.1741"/>
</g>
<!-- Node6 -->
<g id="node6" class="node"><title>Node6</title>
<polygon fill="none" stroke="#bfbfbf" points="2392,-0.5 2392,-19.5 2433,-19.5 2433,-0.5 2392,-0.5"/>
<text text-anchor="middle" x="2412.5" y="-7.5" font-family="Helvetica,sans-Serif" font-size="10.00">string</text>
</g>
<!-- Node3&#45;&gt;Node6 -->
<g id="edge5" class="edge"><title>Node3&#45;&gt;Node6</title>
<path fill="none" stroke="midnightblue" d="M595.188,-119.813C853.267,-113.635 2004.52,-83.0738 2382.14,-19.5459"/>
<polygon fill="midnightblue" stroke="midnightblue" points="2382.74,-22.9942 2392,-17.8482 2381.55,-16.0957 2382.74,-22.9942"/>
</g>
<!-- Node7 -->
<g id="node7" class="node"><title>Node7</title>
<g id="a_node7"><a xlink:href="_ogre_std_headers_8h.html" target="_top" xlink:title="OgreStdHeaders.h">
<polygon fill="none" stroke="black" points="1170.5,-56.5 1170.5,-75.5 1268.5,-75.5 1268.5,-56.5 1170.5,-56.5"/>
<text text-anchor="middle" x="1219.5" y="-63.5" font-family="Helvetica,sans-Serif" font-size="10.00">OgreStdHeaders.h</text>
</a>
</g>
</g>
<!-- Node3&#45;&gt;Node7 -->
<g id="edge6" class="edge"><title>Node3&#45;&gt;Node7</title>
<path fill="none" stroke="midnightblue" d="M595.143,-116.875C718.35,-107.033 1028.97,-82.2198 1159.87,-71.7634"/>
<polygon fill="midnightblue" stroke="midnightblue" points="1160.41,-75.2313 1170.1,-70.9461 1159.85,-68.2535 1160.41,-75.2313"/>
</g>
<!-- Node37 -->
<g id="node37" class="node"><title>Node37</title>
<g id="a_node37"><a xlink:href="_ogre_memory_allocator_config_8h.html" target="_top" xlink:title="This file configures Ogre&#39;s memory allocators. ">
<polygon fill="none" stroke="red" points="155.5,-56.5 155.5,-75.5 303.5,-75.5 303.5,-56.5 155.5,-56.5"/>
<text text-anchor="middle" x="229.5" y="-63.5" font-family="Helvetica,sans-Serif" font-size="10.00">OgreMemoryAllocatorConfig.h</text>
</a>
</g>
</g>
<!-- Node3&#45;&gt;Node37 -->
<g id="edge37" class="edge"><title>Node3&#45;&gt;Node37</title>
<path fill="none" stroke="midnightblue" d="M493.746,-112.444C438.165,-102.885 348.236,-87.4195 288.984,-77.2298"/>
<polygon fill="midnightblue" stroke="midnightblue" points="289.47,-73.762 279.021,-75.5164 288.284,-80.6607 289.47,-73.762"/>
</g>
<!-- Node5 -->
<g id="node5" class="node"><title>Node5</title>
<g id="a_node5"><a xlink:href="_ogre_config_8h.html" target="_top" xlink:title="OgreConfig.h">
<polygon fill="none" stroke="red" points="2451.5,-0.5 2451.5,-19.5 2525.5,-19.5 2525.5,-0.5 2451.5,-0.5"/>
<text text-anchor="middle" x="2488.5" y="-7.5" font-family="Helvetica,sans-Serif" font-size="10.00">OgreConfig.h</text>
</a>
</g>
</g>
<!-- Node4&#45;&gt;Node5 -->
<g id="edge4" class="edge"><title>Node4&#45;&gt;Node5</title>
<path fill="none" stroke="midnightblue" d="M2248.29,-57.0943C2293.44,-48.5386 2367.78,-34.4116 2441.43,-20.1994"/>
<polygon fill="midnightblue" stroke="midnightblue" points="2442.19,-23.6178 2451.35,-18.2851 2440.86,-16.7447 2442.19,-23.6178"/>
</g>
<!-- Node7&#45;&gt;Node6 -->
<g id="edge16" class="edge"><title>Node7&#45;&gt;Node6</title>
<path fill="none" stroke="midnightblue" d="M1268.69,-64.7494C1458.41,-63.5309 2143.35,-56.7392 2381.69,-19.5995"/>
<polygon fill="midnightblue" stroke="midnightblue" points="2382.37,-23.0351 2391.68,-17.9802 2381.25,-16.1252 2382.37,-23.0351"/>
</g>
<!-- Node8 -->
<g id="node8" class="node"><title>Node8</title>
<polygon fill="none" stroke="#bfbfbf" points="1783,-0.5 1783,-19.5 1832,-19.5 1832,-0.5 1783,-0.5"/>
<text text-anchor="middle" x="1807.5" y="-7.5" font-family="Helvetica,sans-Serif" font-size="10.00">cassert</text>
</g>
<!-- Node7&#45;&gt;Node8 -->
<g id="edge7" class="edge"><title>Node7&#45;&gt;Node8</title>
<path fill="none" stroke="midnightblue" d="M1268.51,-64.0693C1364.06,-61.5978 1581.93,-52.7413 1772.81,-20.0093"/>
<polygon fill="midnightblue" stroke="midnightblue" points="1773.49,-23.4437 1782.75,-18.2803 1772.29,-16.5474 1773.49,-23.4437"/>
</g>
<!-- Node9 -->
<g id="node9" class="node"><title>Node9</title>
<polygon fill="none" stroke="#bfbfbf" points="1850,-0.5 1850,-19.5 1893,-19.5 1893,-0.5 1850,-0.5"/>
<text text-anchor="middle" x="1871.5" y="-7.5" font-family="Helvetica,sans-Serif" font-size="10.00">cstdio</text>
</g>
<!-- Node7&#45;&gt;Node9 -->
<g id="edge8" class="edge"><title>Node7&#45;&gt;Node9</title>
<path fill="none" stroke="midnightblue" d="M1268.75,-65.0845C1372.93,-64.4802 1623.2,-58.8907 1839.72,-19.9674"/>
<polygon fill="midnightblue" stroke="midnightblue" points="1840.47,-23.3884 1849.68,-18.149 1839.21,-16.5023 1840.47,-23.3884"/>
</g>
<!-- Node10 -->
<g id="node10" class="node"><title>Node10</title>
<polygon fill="none" stroke="#bfbfbf" points="1911,-0.5 1911,-19.5 1956,-19.5 1956,-0.5 1911,-0.5"/>
<text text-anchor="middle" x="1933.5" y="-7.5" font-family="Helvetica,sans-Serif" font-size="10.00">cstdlib</text>
</g>
<!-- Node7&#45;&gt;Node10 -->
<g id="edge9" class="edge"><title>Node7&#45;&gt;Node10</title>
<path fill="none" stroke="midnightblue" d="M1268.8,-65.3938C1380.25,-65.5045 1660.05,-61.4036 1900.95,-19.9081"/>
<polygon fill="midnightblue" stroke="midnightblue" points="1901.7,-23.3307 1910.95,-18.1609 1900.49,-16.4353 1901.7,-23.3307"/>
</g>
<!-- Node11 -->
<g id="node11" class="node"><title>Node11</title>
<polygon fill="none" stroke="#bfbfbf" points="1974,-0.5 1974,-19.5 2015,-19.5 2015,-0.5 1974,-0.5"/>
<text text-anchor="middle" x="1994.5" y="-7.5" font-family="Helvetica,sans-Serif" font-size="10.00">ctime</text>
</g>
<!-- Node7&#45;&gt;Node11 -->
<g id="edge10" class="edge"><title>Node7&#45;&gt;Node11</title>
<path fill="none" stroke="midnightblue" d="M1268.58,-63.5808C1409.14,-59.2776 1812.33,-45.2079 1963.71,-19.8638"/>
<polygon fill="midnightblue" stroke="midnightblue" points="1964.5,-23.2791 1973.74,-18.0989 1963.29,-16.385 1964.5,-23.2791"/>
</g>
<!-- Node12 -->
<g id="node12" class="node"><title>Node12</title>
<polygon fill="none" stroke="#bfbfbf" points="2033.5,-0.5 2033.5,-19.5 2079.5,-19.5 2079.5,-0.5 2033.5,-0.5"/>
<text text-anchor="middle" x="2056.5" y="-7.5" font-family="Helvetica,sans-Serif" font-size="10.00">cstring</text>
</g>
<!-- Node7&#45;&gt;Node12 -->
<g id="edge11" class="edge"><title>Node7&#45;&gt;Node12</title>
<path fill="none" stroke="midnightblue" d="M1268.62,-63.6597C1416.87,-59.3976 1859.15,-45.0348 2023.28,-19.7838"/>
<polygon fill="midnightblue" stroke="midnightblue" points="2023.9,-23.2288 2033.21,-18.1834 2022.79,-16.3179 2023.9,-23.2288"/>
</g>
<!-- Node13 -->
<g id="node13" class="node"><title>Node13</title>
<polygon fill="none" stroke="#bfbfbf" points="2098,-0.5 2098,-19.5 2147,-19.5 2147,-0.5 2098,-0.5"/>
<text text-anchor="middle" x="2122.5" y="-7.5" font-family="Helvetica,sans-Serif" font-size="10.00">cstdarg</text>
</g>
<!-- Node7&#45;&gt;Node13 -->
<g id="edge12" class="edge"><title>Node7&#45;&gt;Node13</title>
<path fill="none" stroke="midnightblue" d="M1268.54,-63.7965C1424.65,-59.7598 1909.66,-45.579 2087.73,-19.707"/>
<polygon fill="midnightblue" stroke="midnightblue" points="2088.38,-23.1475 2097.74,-18.1871 2087.33,-16.2267 2088.38,-23.1475"/>
</g>
<!-- Node14 -->
<g id="node14" class="node"><title>Node14</title>
<polygon fill="none" stroke="#bfbfbf" points="2165.5,-0.5 2165.5,-19.5 2209.5,-19.5 2209.5,-0.5 2165.5,-0.5"/>
<text text-anchor="middle" x="2187.5" y="-7.5" font-family="Helvetica,sans-Serif" font-size="10.00">cmath</text>
</g>
<!-- Node7&#45;&gt;Node14 -->
<g id="edge13" class="edge"><title>Node7&#45;&gt;Node14</title>
<path fill="none" stroke="midnightblue" d="M1268.56,-64.1615C1432.91,-61.1195 1963.99,-49.3449 2155.35,-19.7303"/>
<polygon fill="midnightblue" stroke="midnightblue" points="2155.98,-23.1743 2165.29,-18.1235 2154.86,-16.2639 2155.98,-23.1743"/>
</g>
<!-- Node15 -->
<g id="node15" class="node"><title>Node15</title>
<polygon fill="none" stroke="#bfbfbf" points="2227.5,-0.5 2227.5,-19.5 2271.5,-19.5 2271.5,-0.5 2227.5,-0.5"/>
<text text-anchor="middle" x="2249.5" y="-7.5" font-family="Helvetica,sans-Serif" font-size="10.00">vector</text>
</g>
<!-- Node7&#45;&gt;Node15 -->
<g id="edge14" class="edge"><title>Node7&#45;&gt;Node15</title>
<path fill="none" stroke="midnightblue" d="M1268.75,-64.3281C1440.49,-61.748 2013.1,-51.0942 2217.27,-19.7375"/>
<polygon fill="midnightblue" stroke="midnightblue" points="2217.97,-23.1698 2227.29,-18.1316 2216.87,-16.2579 2217.97,-23.1698"/>
</g>
<!-- Node16 -->
<g id="node16" class="node"><title>Node16</title>
<polygon fill="none" stroke="#bfbfbf" points="2290,-0.5 2290,-19.5 2325,-19.5 2325,-0.5 2290,-0.5"/>
<text text-anchor="middle" x="2307.5" y="-7.5" font-family="Helvetica,sans-Serif" font-size="10.00">map</text>
</g>
<!-- Node7&#45;&gt;Node16 -->
<g id="edge15" class="edge"><title>Node7&#45;&gt;Node16</title>
<path fill="none" stroke="midnightblue" d="M1268.69,-64.7316C1447.43,-63.4785 2062.87,-56.667 2279.94,-19.4241"/>
<polygon fill="midnightblue" stroke="midnightblue" points="2280.74,-22.8356 2289.97,-17.6275 2279.51,-15.9453 2280.74,-22.8356"/>
</g>
<!-- Node17 -->
<g id="node17" class="node"><title>Node17</title>
<polygon fill="none" stroke="#bfbfbf" points="2343.5,-0.5 2343.5,-19.5 2373.5,-19.5 2373.5,-0.5 2343.5,-0.5"/>
<text text-anchor="middle" x="2358.5" y="-7.5" font-family="Helvetica,sans-Serif" font-size="10.00">set</text>
</g>
<!-- Node7&#45;&gt;Node17 -->
<g id="edge17" class="edge"><title>Node7&#45;&gt;Node17</title>
<path fill="none" stroke="midnightblue" d="M1268.72,-63.9348C1465.45,-59.5549 2191.12,-42.1919 2333.55,-19.2649"/>
<polygon fill="midnightblue" stroke="midnightblue" points="2334.27,-22.693 2343.48,-17.4618 2333.01,-15.8057 2334.27,-22.693"/>
</g>
<!-- Node18 -->
<g id="node18" class="node"><title>Node18</title>
<polygon fill="none" stroke="#bfbfbf" points="242,-0.5 242,-19.5 271,-19.5 271,-0.5 242,-0.5"/>
<text text-anchor="middle" x="256.5" y="-7.5" font-family="Helvetica,sans-Serif" font-size="10.00">list</text>
</g>
<!-- Node7&#45;&gt;Node18 -->
<g id="edge18" class="edge"><title>Node7&#45;&gt;Node18</title>
<path fill="none" stroke="midnightblue" d="M1170.46,-64.7467C1005.57,-63.574 471.298,-57.088 281.244,-19.6652"/>
<polygon fill="midnightblue" stroke="midnightblue" points="281.879,-16.2224 271.377,-17.6265 280.462,-23.0776 281.879,-16.2224"/>
</g>
<!-- Node19 -->
<g id="node19" class="node"><title>Node19</title>
<polygon fill="none" stroke="#bfbfbf" points="289,-0.5 289,-19.5 332,-19.5 332,-0.5 289,-0.5"/>
<text text-anchor="middle" x="310.5" y="-7.5" font-family="Helvetica,sans-Serif" font-size="10.00">deque</text>
</g>
<!-- Node7&#45;&gt;Node19 -->
<g id="edge19" class="edge"><title>Node7&#45;&gt;Node19</title>
<path fill="none" stroke="midnightblue" d="M1170.42,-64.0382C1013.02,-60.7148 521.205,-48.4173 342.366,-19.884"/>
<polygon fill="midnightblue" stroke="midnightblue" points="342.75,-16.3996 332.31,-18.2038 341.596,-23.3039 342.75,-16.3996"/>
</g>
<!-- Node20 -->
<g id="node20" class="node"><title>Node20</title>
<polygon fill="none" stroke="#bfbfbf" points="350,-0.5 350,-19.5 393,-19.5 393,-0.5 350,-0.5"/>
<text text-anchor="middle" x="371.5" y="-7.5" font-family="Helvetica,sans-Serif" font-size="10.00">queue</text>
</g>
<!-- Node7&#45;&gt;Node20 -->
<g id="edge20" class="edge"><title>Node7&#45;&gt;Node20</title>
<path fill="none" stroke="midnightblue" d="M1170.38,-63.8204C1020.5,-59.9862 569.631,-46.6524 403.375,-19.8924"/>
<polygon fill="midnightblue" stroke="midnightblue" points="403.754,-16.4071 393.311,-18.1939 402.589,-23.3095 403.754,-16.4071"/>
</g>
<!-- Node21 -->
<g id="node21" class="node"><title>Node21</title>
<polygon fill="none" stroke="#bfbfbf" points="411,-0.5 411,-19.5 452,-19.5 452,-0.5 411,-0.5"/>
<text text-anchor="middle" x="431.5" y="-7.5" font-family="Helvetica,sans-Serif" font-size="10.00">bitset</text>
</g>
<!-- Node7&#45;&gt;Node21 -->
<g id="edge21" class="edge"><title>Node7&#45;&gt;Node21</title>
<path fill="none" stroke="midnightblue" d="M1170.42,-63.5748C1028.35,-59.219 617.547,-44.9422 462.295,-19.6003"/>
<polygon fill="midnightblue" stroke="midnightblue" points="462.453,-16.0762 452.005,-17.8359 461.27,-22.9755 462.453,-16.0762"/>
</g>
<!-- Node22 -->
<g id="node22" class="node"><title>Node22</title>
<polygon fill="none" stroke="#bfbfbf" points="470.5,-0.5 470.5,-19.5 526.5,-19.5 526.5,-0.5 470.5,-0.5"/>
<text text-anchor="middle" x="498.5" y="-7.5" font-family="Helvetica,sans-Serif" font-size="10.00">algorithm</text>
</g>
<!-- Node7&#45;&gt;Node22 -->
<g id="edge22" class="edge"><title>Node7&#45;&gt;Node22</title>
<path fill="none" stroke="midnightblue" d="M1170.25,-64.6713C1058.88,-63.3031 779.139,-56.3585 536.739,-19.9191"/>
<polygon fill="midnightblue" stroke="midnightblue" points="537.094,-16.4329 526.681,-18.3867 536.04,-23.3531 537.094,-16.4329"/>
</g>
<!-- Node23 -->
<g id="node23" class="node"><title>Node23</title>
<polygon fill="none" stroke="#bfbfbf" points="545,-0.5 545,-19.5 604,-19.5 604,-0.5 545,-0.5"/>
<text text-anchor="middle" x="574.5" y="-7.5" font-family="Helvetica,sans-Serif" font-size="10.00">functional</text>
</g>
<!-- Node7&#45;&gt;Node23 -->
<g id="edge23" class="edge"><title>Node7&#45;&gt;Node23</title>
<path fill="none" stroke="midnightblue" d="M1170.12,-63.8841C1068.07,-61.0276 826.428,-51.4196 614.299,-19.8699"/>
<polygon fill="midnightblue" stroke="midnightblue" points="614.63,-16.3804 604.22,-18.3509 613.587,-23.3023 614.63,-16.3804"/>
</g>
<!-- Node24 -->
<g id="node24" class="node"><title>Node24</title>
<polygon fill="none" stroke="#bfbfbf" points="622.5,-0.5 622.5,-19.5 662.5,-19.5 662.5,-0.5 622.5,-0.5"/>
<text text-anchor="middle" x="642.5" y="-7.5" font-family="Helvetica,sans-Serif" font-size="10.00">limits</text>
</g>
<!-- Node7&#45;&gt;Node24 -->
<g id="edge24" class="edge"><title>Node7&#45;&gt;Node24</title>
<path fill="none" stroke="midnightblue" d="M1170.26,-64.5537C1075.4,-62.9186 860.792,-55.4578 672.707,-19.8087"/>
<polygon fill="midnightblue" stroke="midnightblue" points="673.119,-16.3238 662.637,-17.868 671.794,-23.1973 673.119,-16.3238"/>
</g>
<!-- Node25 -->
<g id="node25" class="node"><title>Node25</title>
<polygon fill="none" stroke="#bfbfbf" points="680.5,-0.5 680.5,-19.5 730.5,-19.5 730.5,-0.5 680.5,-0.5"/>
<text text-anchor="middle" x="705.5" y="-7.5" font-family="Helvetica,sans-Serif" font-size="10.00">fstream</text>
</g>
<!-- Node7&#45;&gt;Node25 -->
<g id="edge25" class="edge"><title>Node7&#45;&gt;Node25</title>
<path fill="none" stroke="midnightblue" d="M1170.2,-62.9402C1082.99,-58.7258 896.016,-47.1247 740.5,-20 740.4,-19.9825 740.299,-19.9648 740.198,-19.947"/>
<polygon fill="midnightblue" stroke="midnightblue" points="741.133,-16.5664 730.632,-17.9689 739.716,-23.4214 741.133,-16.5664"/>
</g>
<!-- Node26 -->
<g id="node26" class="node"><title>Node26</title>
<polygon fill="none" stroke="#bfbfbf" points="749,-0.5 749,-19.5 794,-19.5 794,-0.5 749,-0.5"/>
<text text-anchor="middle" x="771.5" y="-7.5" font-family="Helvetica,sans-Serif" font-size="10.00">iosfwd</text>
</g>
<!-- Node7&#45;&gt;Node26 -->
<g id="edge26" class="edge"><title>Node7&#45;&gt;Node26</title>
<path fill="none" stroke="midnightblue" d="M1170.43,-62.3439C1094.06,-57.6307 942.073,-45.9352 804.028,-19.7716"/>
<polygon fill="midnightblue" stroke="midnightblue" points="804.595,-16.3167 794.114,-17.8627 803.272,-23.1904 804.595,-16.3167"/>
</g>
<!-- Node27 -->
<g id="node27" class="node"><title>Node27</title>
<polygon fill="none" stroke="#bfbfbf" points="812.5,-0.5 812.5,-19.5 864.5,-19.5 864.5,-0.5 812.5,-0.5"/>
<text text-anchor="middle" x="838.5" y="-7.5" font-family="Helvetica,sans-Serif" font-size="10.00">sstream</text>
</g>
<!-- Node7&#45;&gt;Node27 -->
<g id="edge27" class="edge"><title>Node7&#45;&gt;Node27</title>
<path fill="none" stroke="midnightblue" d="M1170.49,-60.5335C1105.15,-54.1574 985.738,-41.0433 874.814,-20.0516"/>
<polygon fill="midnightblue" stroke="midnightblue" points="875.276,-16.5765 864.795,-18.1294 873.956,-23.4511 875.276,-16.5765"/>
</g>
<!-- Node28 -->
<g id="node28" class="node"><title>Node28</title>
<polygon fill="none" stroke="#bfbfbf" points="882.5,-0.5 882.5,-19.5 950.5,-19.5 950.5,-0.5 882.5,-0.5"/>
<text text-anchor="middle" x="916.5" y="-7.5" font-family="Helvetica,sans-Serif" font-size="10.00">sys/types.h</text>
</g>
<!-- Node7&#45;&gt;Node28 -->
<g id="edge28" class="edge"><title>Node7&#45;&gt;Node28</title>
<path fill="none" stroke="midnightblue" d="M1170.05,-56.969C1119.82,-48.6939 1039.54,-35.1437 960.834,-20.2045"/>
<polygon fill="midnightblue" stroke="midnightblue" points="961.225,-16.716 950.746,-18.2803 959.913,-23.592 961.225,-16.716"/>
</g>
<!-- Node29 -->
<g id="node29" class="node"><title>Node29</title>
<polygon fill="none" stroke="#bfbfbf" points="968.5,-0.5 968.5,-19.5 1028.5,-19.5 1028.5,-0.5 968.5,-0.5"/>
<text text-anchor="middle" x="998.5" y="-7.5" font-family="Helvetica,sans-Serif" font-size="10.00">sys/stat.h</text>
</g>
<!-- Node7&#45;&gt;Node29 -->
<g id="edge29" class="edge"><title>Node7&#45;&gt;Node29</title>
<path fill="none" stroke="midnightblue" d="M1184.48,-56.4435C1144.79,-46.7452 1080.21,-30.9654 1038.55,-20.7857"/>
<polygon fill="midnightblue" stroke="midnightblue" points="1039.28,-17.3621 1028.74,-18.3884 1037.62,-24.1621 1039.28,-17.3621"/>
</g>
<!-- Node30 -->
<g id="node30" class="node"><title>Node30</title>
<polygon fill="none" stroke="#bfbfbf" points="1047,-0.5 1047,-19.5 1098,-19.5 1098,-0.5 1047,-0.5"/>
<text text-anchor="middle" x="1072.5" y="-7.5" font-family="Helvetica,sans-Serif" font-size="10.00">unistd.h</text>
</g>
<!-- Node7&#45;&gt;Node30 -->
<g id="edge30" class="edge"><title>Node7&#45;&gt;Node30</title>
<path fill="none" stroke="midnightblue" d="M1196.21,-56.4435C1171.69,-47.4381 1132.9,-33.1891 1105.3,-23.049"/>
<polygon fill="midnightblue" stroke="midnightblue" points="1106.28,-19.6793 1095.68,-19.5164 1103.86,-26.25 1106.28,-19.6793"/>
</g>
<!-- Node31 -->
<g id="node31" class="node"><title>Node31</title>
<polygon fill="none" stroke="#bfbfbf" points="1116.5,-0.5 1116.5,-19.5 1162.5,-19.5 1162.5,-0.5 1116.5,-0.5"/>
<text text-anchor="middle" x="1139.5" y="-7.5" font-family="Helvetica,sans-Serif" font-size="10.00">dlfcn.h</text>
</g>
<!-- Node7&#45;&gt;Node31 -->
<g id="edge31" class="edge"><title>Node7&#45;&gt;Node31</title>
<path fill="none" stroke="midnightblue" d="M1206.65,-56.324C1194.28,-47.979 1175.37,-35.2122 1160.76,-25.3524"/>
<polygon fill="midnightblue" stroke="midnightblue" points="1162.57,-22.3483 1152.32,-19.6545 1158.65,-28.1503 1162.57,-22.3483"/>
</g>
<!-- Node32 -->
<g id="node32" class="node"><title>Node32</title>
<polygon fill="none" stroke="#bfbfbf" points="1180.5,-0.5 1180.5,-19.5 1258.5,-19.5 1258.5,-0.5 1180.5,-0.5"/>
<text text-anchor="middle" x="1219.5" y="-7.5" font-family="Helvetica,sans-Serif" font-size="10.00">ext/hash_map</text>
</g>
<!-- Node7&#45;&gt;Node32 -->
<g id="edge32" class="edge"><title>Node7&#45;&gt;Node32</title>
<path fill="none" stroke="midnightblue" d="M1219.5,-56.083C1219.5,-49.0059 1219.5,-38.8611 1219.5,-29.9865"/>
<polygon fill="midnightblue" stroke="midnightblue" points="1223,-29.751 1219.5,-19.7511 1216,-29.7511 1223,-29.751"/>
</g>
<!-- Node33 -->
<g id="node33" class="node"><title>Node33</title>
<polygon fill="none" stroke="#bfbfbf" points="1277,-0.5 1277,-19.5 1350,-19.5 1350,-0.5 1277,-0.5"/>
<text text-anchor="middle" x="1313.5" y="-7.5" font-family="Helvetica,sans-Serif" font-size="10.00">ext/hash_set</text>
</g>
<!-- Node7&#45;&gt;Node33 -->
<g id="edge33" class="edge"><title>Node7&#45;&gt;Node33</title>
<path fill="none" stroke="midnightblue" d="M1234.6,-56.324C1249.4,-47.8215 1272.19,-34.7288 1289.48,-24.7975"/>
<polygon fill="midnightblue" stroke="midnightblue" points="1291.51,-27.6707 1298.43,-19.6545 1288.02,-21.6009 1291.51,-27.6707"/>
</g>
<!-- Node34 -->
<g id="node34" class="node"><title>Node34</title>
<polygon fill="none" stroke="#bfbfbf" points="1368,-0.5 1368,-19.5 1439,-19.5 1439,-0.5 1368,-0.5"/>
<text text-anchor="middle" x="1403.5" y="-7.5" font-family="Helvetica,sans-Serif" font-size="10.00">sys/param.h</text>
</g>
<!-- Node7&#45;&gt;Node34 -->
<g id="edge34" class="edge"><title>Node7&#45;&gt;Node34</title>
<path fill="none" stroke="midnightblue" d="M1248.66,-56.4435C1280.01,-47.2406 1330.03,-32.5617 1364.7,-22.3879"/>
<polygon fill="midnightblue" stroke="midnightblue" points="1365.87,-25.6909 1374.48,-19.5164 1363.9,-18.9742 1365.87,-25.6909"/>
</g>
<!-- Node35 -->
<g id="node35" class="node"><title>Node35</title>
<polygon fill="none" stroke="#bfbfbf" points="1457.5,-0.5 1457.5,-19.5 1623.5,-19.5 1623.5,-0.5 1457.5,-0.5"/>
<text text-anchor="middle" x="1540.5" y="-7.5" font-family="Helvetica,sans-Serif" font-size="10.00">CoreFoundation/CoreFoundation.h</text>
</g>
<!-- Node7&#45;&gt;Node35 -->
<g id="edge35" class="edge"><title>Node7&#45;&gt;Node35</title>
<path fill="none" stroke="midnightblue" d="M1268.6,-56.7398C1325.33,-47.1962 1418.7,-31.489 1479.9,-21.1939"/>
<polygon fill="midnightblue" stroke="midnightblue" points="1480.53,-24.6373 1489.81,-19.5268 1479.37,-17.7343 1480.53,-24.6373"/>
</g>
<!-- Node36 -->
<g id="node36" class="node"><title>Node36</title>
<polygon fill="none" stroke="#bfbfbf" points="1641.5,-0.5 1641.5,-19.5 1765.5,-19.5 1765.5,-0.5 1641.5,-0.5"/>
<text text-anchor="middle" x="1703.5" y="-7.5" font-family="Helvetica,sans-Serif" font-size="10.00">emscripten/emscripten.h</text>
</g>
<!-- Node7&#45;&gt;Node36 -->
<g id="edge36" class="edge"><title>Node7&#45;&gt;Node36</title>
<path fill="none" stroke="midnightblue" d="M1268.8,-59.911C1344.38,-52.0469 1493.72,-36.2642 1630.9,-20.1724"/>
<polygon fill="midnightblue" stroke="midnightblue" points="1631.65,-23.6082 1641.17,-18.9639 1630.83,-16.6562 1631.65,-23.6082"/>
</g>
<!-- Node38 -->
<g id="node38" class="node"><title>Node38</title>
<g id="a_node38"><a xlink:href="_ogre_header_prefix_8h.html" target="_top" xlink:title="OgreHeaderPrefix.h">
<polygon fill="none" stroke="black" points="121,-0.5 121,-19.5 224,-19.5 224,-0.5 121,-0.5"/>
<text text-anchor="middle" x="172.5" y="-7.5" font-family="Helvetica,sans-Serif" font-size="10.00">OgreHeaderPrefix.h</text>
</a>
</g>
</g>
<!-- Node37&#45;&gt;Node38 -->
<g id="edge38" class="edge"><title>Node37&#45;&gt;Node38</title>
<path fill="none" stroke="midnightblue" d="M220.342,-56.324C211.999,-48.4196 199.468,-36.5482 189.323,-26.9377"/>
<polygon fill="midnightblue" stroke="midnightblue" points="191.491,-24.1705 181.825,-19.8339 186.677,-29.2522 191.491,-24.1705"/>
</g>
<!-- Node39 -->
<g id="node39" class="node"><title>Node39</title>
<g id="a_node39"><a xlink:href="_ogre_header_suffix_8h.html" target="_top" xlink:title="OgreHeaderSuffix.h">
<polygon fill="none" stroke="black" points="0,-0.5 0,-19.5 103,-19.5 103,-0.5 0,-0.5"/>
<text text-anchor="middle" x="51.5" y="-7.5" font-family="Helvetica,sans-Serif" font-size="10.00">OgreHeaderSuffix.h</text>
</a>
</g>
</g>
<!-- Node37&#45;&gt;Node39 -->
<g id="edge39" class="edge"><title>Node37&#45;&gt;Node39</title>
<path fill="none" stroke="midnightblue" d="M201.295,-56.4435C171.09,-47.2801 122.989,-32.6876 89.4707,-22.5192"/>
<polygon fill="midnightblue" stroke="midnightblue" points="90.1581,-19.0703 79.5727,-19.5164 88.1259,-25.7688 90.1581,-19.0703"/>
</g>
<!-- Node40&#45;&gt;Node3 -->
<g id="edge41" class="edge"><title>Node40&#45;&gt;Node3</title>
<path fill="none" stroke="midnightblue" d="M199.162,-225.211C274.75,-213.294 411.06,-191.538 421.5,-188 441.292,-181.293 490.615,-153.63 520.131,-136.627"/>
<polygon fill="midnightblue" stroke="midnightblue" points="522.053,-139.559 528.956,-131.522 518.547,-133.5 522.053,-139.559"/>
</g>
<!-- Node40&#45;&gt;Node38 -->
<g id="edge48" class="edge"><title>Node40&#45;&gt;Node38</title>
<path fill="none" stroke="midnightblue" d="M157.014,-224.341C168.136,-211.646 189.794,-187.386 209.5,-168 253.256,-124.955 287.423,-132.024 312.5,-76 316.132,-67.8868 317.736,-63.183 312.5,-56 302.131,-41.7763 262.316,-29.8198 227.783,-21.8147"/>
<polygon fill="midnightblue" stroke="midnightblue" points="228.268,-18.3366 217.745,-19.5612 226.735,-25.1666 228.268,-18.3366"/>
</g>
<!-- Node40&#45;&gt;Node39 -->
<g id="edge49" class="edge"><title>Node40&#45;&gt;Node39</title>
<path fill="none" stroke="midnightblue" d="M131.114,-224.409C116.966,-216.83 98.0958,-204.431 87.5,-188 55.1195,-137.786 50.997,-64.2695 51.006,-29.9533"/>
<polygon fill="midnightblue" stroke="midnightblue" points="54.5109,-29.5975 51.142,-19.5526 47.5115,-29.5059 54.5109,-29.5975"/>
</g>
<!-- Node41 -->
<g id="node41" class="node"><title>Node41</title>
<g id="a_node41"><a xlink:href="_ogre_log_8h.html" target="_top" xlink:title="OgreLog.h">
<polygon fill="none" stroke="red" points="96.5,-168.5 96.5,-187.5 158.5,-187.5 158.5,-168.5 96.5,-168.5"/>
<text text-anchor="middle" x="127.5" y="-175.5" font-family="Helvetica,sans-Serif" font-size="10.00">OgreLog.h</text>
</a>
</g>
</g>
<!-- Node40&#45;&gt;Node41 -->
<g id="edge42" class="edge"><title>Node40&#45;&gt;Node41</title>
<path fill="none" stroke="midnightblue" d="M145.867,-224.083C142.888,-216.77 138.574,-206.181 134.875,-197.103"/>
<polygon fill="midnightblue" stroke="midnightblue" points="138.08,-195.691 131.065,-187.751 131.597,-198.333 138.08,-195.691"/>
</g>
<!-- Node42 -->
<g id="node42" class="node"><title>Node42</title>
<g id="a_node42"><a xlink:href="_ogre_singleton_8h.html" target="_top" xlink:title="OgreSingleton.h">
<polygon fill="none" stroke="black" points="218.5,-168.5 218.5,-187.5 304.5,-187.5 304.5,-168.5 218.5,-168.5"/>
<text text-anchor="middle" x="261.5" y="-175.5" font-family="Helvetica,sans-Serif" font-size="10.00">OgreSingleton.h</text>
</a>
</g>
</g>
<!-- Node40&#45;&gt;Node42 -->
<g id="edge46" class="edge"><title>Node40&#45;&gt;Node42</title>
<path fill="none" stroke="midnightblue" d="M167.495,-224.324C185.538,-215.625 213.547,-202.12 234.303,-192.113"/>
<polygon fill="midnightblue" stroke="midnightblue" points="236.062,-195.15 243.55,-187.655 233.022,-188.845 236.062,-195.15"/>
</g>
<!-- Node41&#45;&gt;Node3 -->
<g id="edge43" class="edge"><title>Node41&#45;&gt;Node3</title>
<path fill="none" stroke="midnightblue" d="M158.768,-172.941C227.27,-164.049 391.651,-142.711 481.791,-131.01"/>
<polygon fill="midnightblue" stroke="midnightblue" points="482.406,-134.46 491.872,-129.702 481.505,-127.518 482.406,-134.46"/>
</g>
<!-- Node41&#45;&gt;Node38 -->
<g id="edge44" class="edge"><title>Node41&#45;&gt;Node38</title>
<path fill="none" stroke="midnightblue" d="M127.781,-168.225C128.665,-147.908 132.253,-96.2969 146.5,-56 149.915,-46.3395 155.417,-36.3946 160.482,-28.3186"/>
<polygon fill="midnightblue" stroke="midnightblue" points="163.498,-30.1022 166.076,-19.8257 157.652,-26.2518 163.498,-30.1022"/>
</g>
<!-- Node41&#45;&gt;Node39 -->
<g id="edge45" class="edge"><title>Node41&#45;&gt;Node39</title>
<path fill="none" stroke="midnightblue" d="M122.539,-168.259C112.828,-150.965 90.9118,-111.02 75.5,-76 68.686,-60.5167 62.1161,-42.4302 57.5783,-29.2726"/>
<polygon fill="midnightblue" stroke="midnightblue" points="60.8066,-27.8935 54.2837,-19.5447 54.1765,-30.139 60.8066,-27.8935"/>
</g>
<!-- Node42&#45;&gt;Node3 -->
<g id="edge47" class="edge"><title>Node42&#45;&gt;Node3</title>
<path fill="none" stroke="midnightblue" d="M304.637,-168.74C354.064,-159.275 435.151,-143.748 488.929,-133.45"/>
<polygon fill="midnightblue" stroke="midnightblue" points="489.808,-136.845 498.971,-131.527 488.491,-129.97 489.808,-136.845"/>
</g>
<!-- Node46&#45;&gt;Node3 -->
<g id="edge54" class="edge"><title>Node46&#45;&gt;Node3</title>
<path fill="none" stroke="midnightblue" d="M658.113,-336.469C679.98,-329.793 706.658,-318.46 724.5,-300 748.938,-274.715 758.529,-257.043 746.5,-224 725.86,-167.302 657.16,-142.291 605.351,-131.348"/>
<polygon fill="midnightblue" stroke="midnightblue" points="605.724,-127.854 595.234,-129.342 604.362,-134.721 605.724,-127.854"/>
</g>
<!-- Node47 -->
<g id="node47" class="node"><title>Node47</title>
<g id="a_node47"><a xlink:href="_ogre_hardware_buffer_8h.html" target="_top" xlink:title="OgreHardwareBuffer.h">
<polygon fill="none" stroke="black" points="486.5,-224.5 486.5,-243.5 600.5,-243.5 600.5,-224.5 486.5,-224.5"/>
<text text-anchor="middle" x="543.5" y="-231.5" font-family="Helvetica,sans-Serif" font-size="10.00">OgreHardwareBuffer.h</text>
</a>
</g>
</g>
<!-- Node46&#45;&gt;Node47 -->
<g id="edge55" class="edge"><title>Node46&#45;&gt;Node47</title>
<path fill="none" stroke="midnightblue" d="M614.458,-336.368C601.751,-318.215 572.061,-275.802 555.393,-251.99"/>
<polygon fill="midnightblue" stroke="midnightblue" points="558.116,-249.777 549.514,-243.591 552.381,-253.791 558.116,-249.777"/>
</g>
<!-- Node49 -->
<g id="node49" class="node"><title>Node49</title>
<g id="a_node49"><a xlink:href="_ogre_shared_ptr_8h.html" target="_top" xlink:title="OgreSharedPtr.h">
<polygon fill="none" stroke="black" points="626,-280.5 626,-299.5 715,-299.5 715,-280.5 626,-280.5"/>
<text text-anchor="middle" x="670.5" y="-287.5" font-family="Helvetica,sans-Serif" font-size="10.00">OgreSharedPtr.h</text>
</a>
</g>
</g>
<!-- Node46&#45;&gt;Node49 -->
<g id="edge61" class="edge"><title>Node46&#45;&gt;Node49</title>
<path fill="none" stroke="midnightblue" d="M628.756,-336.083C635.965,-328.298 646.61,-316.801 655.346,-307.367"/>
<polygon fill="midnightblue" stroke="midnightblue" points="658.171,-309.467 662.397,-299.751 653.035,-304.711 658.171,-309.467"/>
</g>
<!-- Node47&#45;&gt;Node3 -->
<g id="edge56" class="edge"><title>Node47&#45;&gt;Node3</title>
<path fill="none" stroke="midnightblue" d="M543.5,-224.368C543.5,-206.617 543.5,-165.666 543.5,-141.597"/>
<polygon fill="midnightblue" stroke="midnightblue" points="547,-141.591 543.5,-131.591 540,-141.591 547,-141.591"/>
</g>
<!-- Node48 -->
<g id="node48" class="node"><title>Node48</title>
<g id="a_node48"><a xlink:href="_ogre_exception_8h.html" target="_top" xlink:title="OgreException.h">
<polygon fill="none" stroke="red" points="324,-168.5 324,-187.5 413,-187.5 413,-168.5 324,-168.5"/>
<text text-anchor="middle" x="368.5" y="-175.5" font-family="Helvetica,sans-Serif" font-size="10.00">OgreException.h</text>
</a>
</g>
</g>
<!-- Node47&#45;&gt;Node48 -->
<g id="edge57" class="edge"><title>Node47&#45;&gt;Node48</title>
<path fill="none" stroke="midnightblue" d="M515.771,-224.444C486.074,-215.28 438.784,-200.688 405.831,-190.519"/>
<polygon fill="midnightblue" stroke="midnightblue" points="406.687,-187.121 396.1,-187.516 404.623,-193.809 406.687,-187.121"/>
</g>
<!-- Node48&#45;&gt;Node3 -->
<g id="edge58" class="edge"><title>Node48&#45;&gt;Node3</title>
<path fill="none" stroke="midnightblue" d="M396.229,-168.444C425.926,-159.28 473.216,-144.688 506.169,-134.519"/>
<polygon fill="midnightblue" stroke="midnightblue" points="507.377,-137.809 515.9,-131.516 505.313,-131.121 507.377,-137.809"/>
</g>
<!-- Node48&#45;&gt;Node38 -->
<g id="edge59" class="edge"><title>Node48&#45;&gt;Node38</title>
<path fill="none" stroke="midnightblue" d="M369.691,-168.318C372.181,-146.346 375.447,-88.0116 345.5,-56 337.088,-47.0077 272.613,-31.8692 224.822,-21.6616"/>
<polygon fill="midnightblue" stroke="midnightblue" points="225.411,-18.2089 214.903,-19.5622 223.962,-25.0572 225.411,-18.2089"/>
</g>
<!-- Node48&#45;&gt;Node39 -->
<g id="edge60" class="edge"><title>Node48&#45;&gt;Node39</title>
<path fill="none" stroke="midnightblue" d="M346.456,-168.456C305.85,-152.397 216.944,-115.729 146.5,-76 119.151,-60.5759 89.5882,-39.6006 70.8306,-25.698"/>
<polygon fill="midnightblue" stroke="midnightblue" points="72.8865,-22.8651 62.7833,-19.675 68.692,-28.4692 72.8865,-22.8651"/>
</g>
<!-- Node49&#45;&gt;Node3 -->
<g id="edge62" class="edge"><title>Node49&#45;&gt;Node3</title>
<path fill="none" stroke="midnightblue" d="M689.52,-280.379C712.172,-268.834 745.319,-247.111 731.5,-224 701.714,-174.185 637.985,-147.516 593.007,-134.32"/>
<polygon fill="midnightblue" stroke="midnightblue" points="593.72,-130.885 583.147,-131.553 591.829,-137.625 593.72,-130.885"/>
</g>
<!-- Node50 -->
<g id="node50" class="node"><title>Node50</title>
<g id="a_node50"><a xlink:href="_ogre_atomic_scalar_8h.html" target="_top" xlink:title="OgreAtomicScalar.h">
<polygon fill="none" stroke="red" points="618.5,-224.5 618.5,-243.5 722.5,-243.5 722.5,-224.5 618.5,-224.5"/>
<text text-anchor="middle" x="670.5" y="-231.5" font-family="Helvetica,sans-Serif" font-size="10.00">OgreAtomicScalar.h</text>
</a>
</g>
</g>
<!-- Node49&#45;&gt;Node50 -->
<g id="edge63" class="edge"><title>Node49&#45;&gt;Node50</title>
<path fill="none" stroke="midnightblue" d="M670.5,-280.083C670.5,-273.006 670.5,-262.861 670.5,-253.986"/>
<polygon fill="midnightblue" stroke="midnightblue" points="674,-253.751 670.5,-243.751 667,-253.751 674,-253.751"/>
</g>
<!-- Node50&#45;&gt;Node3 -->
<g id="edge64" class="edge"><title>Node50&#45;&gt;Node3</title>
<path fill="none" stroke="midnightblue" d="M660.535,-224.368C639.112,-205.814 588.427,-161.913 561.323,-138.438"/>
<polygon fill="midnightblue" stroke="midnightblue" points="563.27,-135.493 553.419,-131.591 558.687,-140.784 563.27,-135.493"/>
</g>
<!-- Node50&#45;&gt;Node48 -->
<g id="edge65" class="edge"><title>Node50&#45;&gt;Node48</title>
<path fill="none" stroke="midnightblue" d="M622.647,-224.444C568.36,-214.737 480.001,-198.937 423.075,-188.758"/>
<polygon fill="midnightblue" stroke="midnightblue" points="423.635,-185.303 413.175,-186.988 422.403,-192.194 423.635,-185.303"/>
</g>
</g>
</svg>
