<?xml version="1.0" encoding="UTF-8" standalone="no"?>
<!DOCTYPE svg PUBLIC "-//W3C//DTD SVG 1.1//EN"
 "http://www.w3.org/Graphics/SVG/1.1/DTD/svg11.dtd">
<!-- Generated by graphviz version 2.38.0 (20140413.2041)
 -->
<!-- Title: OgreNameGenerator.h Pages: 1 -->
<svg width="1366pt" height="319pt"
 viewBox="0.00 0.00 1365.50 319.00" xmlns="http://www.w3.org/2000/svg" xmlns:xlink="http://www.w3.org/1999/xlink">
<g id="graph0" class="graph" transform="scale(1 1) rotate(0) translate(4 315)">
<title>OgreNameGenerator.h</title>
<!-- Node1 -->
<g id="node1" class="node"><title>Node1</title>
<polygon fill="#bfbfbf" stroke="black" points="915,-291.5 915,-310.5 1030,-310.5 1030,-291.5 915,-291.5"/>
<text text-anchor="middle" x="972.5" y="-298.5" font-family="Helvetica,sans-Serif" font-size="10.00">OgreNameGenerator.h</text>
</g>
<!-- Node2 -->
<g id="node2" class="node"><title>Node2</title>
<g id="a_node2"><a xlink:href="_ogre_scene_manager_8h.html" target="_top" xlink:title="OgreSceneManager.h">
<polygon fill="none" stroke="black" points="791,-235.5 791,-254.5 902,-254.5 902,-235.5 791,-235.5"/>
<text text-anchor="middle" x="846.5" y="-242.5" font-family="Helvetica,sans-Serif" font-size="10.00">OgreSceneManager.h</text>
</a>
</g>
</g>
<!-- Node1&#45;&gt;Node2 -->
<g id="edge1" class="edge"><title>Node1&#45;&gt;Node2</title>
<path fill="none" stroke="midnightblue" d="M943.34,-287.503C919.719,-277.38 887.072,-263.388 866.372,-254.516"/>
<polygon fill="midnightblue" stroke="midnightblue" points="941.965,-290.721 952.535,-291.444 944.722,-284.287 941.965,-290.721"/>
</g>
<!-- Node21 -->
<g id="node21" class="node"><title>Node21</title>
<g id="a_node21"><a xlink:href="_ogre_paged_world_8h.html" target="_top" xlink:title="OgrePagedWorld.h">
<polygon fill="none" stroke="black" points="1044,-235.5 1044,-254.5 1143,-254.5 1143,-235.5 1044,-235.5"/>
<text text-anchor="middle" x="1093.5" y="-242.5" font-family="Helvetica,sans-Serif" font-size="10.00">OgrePagedWorld.h</text>
</a>
</g>
</g>
<!-- Node1&#45;&gt;Node21 -->
<g id="edge23" class="edge"><title>Node1&#45;&gt;Node21</title>
<path fill="none" stroke="midnightblue" d="M1000.81,-287.368C1023.47,-277.255 1054.63,-263.349 1074.42,-254.516"/>
<polygon fill="midnightblue" stroke="midnightblue" points="999.378,-284.172 991.673,-291.444 1002.23,-290.564 999.378,-284.172"/>
</g>
<!-- Node23 -->
<g id="node23" class="node"><title>Node23</title>
<g id="a_node23"><a xlink:href="_ogre_page_manager_8h.html" target="_top" xlink:title="OgrePageManager.h">
<polygon fill="none" stroke="black" points="919.5,-235.5 919.5,-254.5 1025.5,-254.5 1025.5,-235.5 919.5,-235.5"/>
<text text-anchor="middle" x="972.5" y="-242.5" font-family="Helvetica,sans-Serif" font-size="10.00">OgrePageManager.h</text>
</a>
</g>
</g>
<!-- Node1&#45;&gt;Node23 -->
<g id="edge25" class="edge"><title>Node1&#45;&gt;Node23</title>
<path fill="none" stroke="midnightblue" d="M972.5,-280.805C972.5,-271.91 972.5,-261.78 972.5,-254.751"/>
<polygon fill="midnightblue" stroke="midnightblue" points="969,-281.083 972.5,-291.083 976,-281.083 969,-281.083"/>
</g>
<!-- Node3 -->
<g id="node3" class="node"><title>Node3</title>
<g id="a_node3"><a xlink:href="_ogre_scene_manager_enumerator_8h.html" target="_top" xlink:title="OgreSceneManagerEnumerator.h">
<polygon fill="none" stroke="black" points="775,-179.5 775,-198.5 936,-198.5 936,-179.5 775,-179.5"/>
<text text-anchor="middle" x="855.5" y="-186.5" font-family="Helvetica,sans-Serif" font-size="10.00">OgreSceneManagerEnumerator.h</text>
</a>
</g>
</g>
<!-- Node2&#45;&gt;Node3 -->
<g id="edge2" class="edge"><title>Node2&#45;&gt;Node3</title>
<path fill="none" stroke="midnightblue" d="M849.65,-225.101C851.144,-216.136 852.857,-205.858 854.041,-198.751"/>
<polygon fill="midnightblue" stroke="midnightblue" points="846.178,-224.644 847.986,-235.083 853.083,-225.794 846.178,-224.644"/>
</g>
<!-- Node6 -->
<g id="node6" class="node"><title>Node6</title>
<g id="a_node6"><a xlink:href="_ogre_8h.html" target="_top" xlink:title="Ogre.h">
<polygon fill="none" stroke="red" points="1311.5,-56.5 1311.5,-75.5 1357.5,-75.5 1357.5,-56.5 1311.5,-56.5"/>
<text text-anchor="middle" x="1334.5" y="-63.5" font-family="Helvetica,sans-Serif" font-size="10.00">Ogre.h</text>
</a>
</g>
</g>
<!-- Node2&#45;&gt;Node6 -->
<g id="edge13" class="edge"><title>Node2&#45;&gt;Node6</title>
<path fill="none" stroke="midnightblue" d="M876.553,-231.623C909.324,-218.236 963.396,-196.466 1010.5,-179 1122.39,-137.513 1257.76,-92.3098 1311.19,-74.66"/>
<polygon fill="midnightblue" stroke="midnightblue" points="875.025,-228.466 867.097,-235.495 877.678,-234.944 875.025,-228.466"/>
</g>
<!-- Node13 -->
<g id="node13" class="node"><title>Node13</title>
<g id="a_node13"><a xlink:href="_ogre_shader_generator_8h.html" target="_top" xlink:title="OgreShaderGenerator.h">
<polygon fill="none" stroke="black" points="210,-179.5 210,-198.5 329,-198.5 329,-179.5 210,-179.5"/>
<text text-anchor="middle" x="269.5" y="-186.5" font-family="Helvetica,sans-Serif" font-size="10.00">OgreShaderGenerator.h</text>
</a>
</g>
</g>
<!-- Node2&#45;&gt;Node13 -->
<g id="edge14" class="edge"><title>Node2&#45;&gt;Node13</title>
<path fill="none" stroke="midnightblue" d="M780.669,-237.839C667.586,-227.256 438.122,-205.781 329.319,-195.598"/>
<polygon fill="midnightblue" stroke="midnightblue" points="780.63,-241.351 790.913,-238.798 781.283,-234.381 780.63,-241.351"/>
</g>
<!-- Node18 -->
<g id="node18" class="node"><title>Node18</title>
<g id="a_node18"><a xlink:href="_ogre_terrain_8h.html" target="_top" xlink:title="OgreTerrain.h">
<polygon fill="none" stroke="black" points="603.5,-179.5 603.5,-198.5 679.5,-198.5 679.5,-179.5 603.5,-179.5"/>
<text text-anchor="middle" x="641.5" y="-186.5" font-family="Helvetica,sans-Serif" font-size="10.00">OgreTerrain.h</text>
</a>
</g>
</g>
<!-- Node2&#45;&gt;Node18 -->
<g id="edge20" class="edge"><title>Node2&#45;&gt;Node18</title>
<path fill="none" stroke="midnightblue" d="M804.092,-232.829C765.386,-222.633 709.007,-207.782 673.831,-198.516"/>
<polygon fill="midnightblue" stroke="midnightblue" points="803.455,-236.281 814.017,-235.444 805.239,-229.512 803.455,-236.281"/>
</g>
<!-- Node4 -->
<g id="node4" class="node"><title>Node4</title>
<g id="a_node4"><a xlink:href="_ogre_root_8h.html" target="_top" xlink:title="OgreRoot.h">
<polygon fill="none" stroke="black" points="822,-118 822,-137 889,-137 889,-118 822,-118"/>
<text text-anchor="middle" x="855.5" y="-125" font-family="Helvetica,sans-Serif" font-size="10.00">OgreRoot.h</text>
</a>
</g>
</g>
<!-- Node3&#45;&gt;Node4 -->
<g id="edge3" class="edge"><title>Node3&#45;&gt;Node4</title>
<path fill="none" stroke="midnightblue" d="M855.5,-169.317C855.5,-158.496 855.5,-145.398 855.5,-137.009"/>
<polygon fill="midnightblue" stroke="midnightblue" points="852,-169.475 855.5,-179.475 859,-169.475 852,-169.475"/>
</g>
<!-- Node3&#45;&gt;Node6 -->
<g id="edge12" class="edge"><title>Node3&#45;&gt;Node6</title>
<path fill="none" stroke="midnightblue" d="M872.543,-172.579C893.465,-154.645 930.826,-125.747 968.5,-112 1108.34,-60.9718 1155.23,-103.671 1301.5,-76 1304.65,-75.4039 1307.94,-74.6589 1311.17,-73.8542"/>
<polygon fill="midnightblue" stroke="midnightblue" points="870.089,-170.076 864.874,-179.299 874.702,-175.341 870.089,-170.076"/>
</g>
<!-- Node5 -->
<g id="node5" class="node"><title>Node5</title>
<g id="a_node5"><a xlink:href="gtk_2_ogre_config_dialog_imp_8h.html" target="_top" xlink:title="OgreConfigDialogImp.h">
<polygon fill="none" stroke="black" points="1174,-56.5 1174,-75.5 1293,-75.5 1293,-56.5 1174,-56.5"/>
<text text-anchor="middle" x="1233.5" y="-63.5" font-family="Helvetica,sans-Serif" font-size="10.00">OgreConfigDialogImp.h</text>
</a>
</g>
</g>
<!-- Node4&#45;&gt;Node5 -->
<g id="edge4" class="edge"><title>Node4&#45;&gt;Node5</title>
<path fill="none" stroke="midnightblue" d="M899.277,-115.755C905.38,-114.405 911.584,-113.111 917.5,-112 965.359,-103.014 1096.44,-85.1571 1173.92,-74.8446"/>
<polygon fill="midnightblue" stroke="midnightblue" points="898.146,-112.422 889.172,-118.055 899.7,-119.248 898.146,-112.422"/>
</g>
<!-- Node4&#45;&gt;Node6 -->
<g id="edge5" class="edge"><title>Node4&#45;&gt;Node6</title>
<path fill="none" stroke="midnightblue" d="M898.122,-115.729C904.586,-114.329 911.199,-113.027 917.5,-112 1086.68,-84.4182 1132.85,-106.665 1301.5,-76 1304.66,-75.4263 1307.95,-74.6942 1311.18,-73.896"/>
<polygon fill="midnightblue" stroke="midnightblue" points="897.135,-112.364 888.154,-117.985 898.68,-119.191 897.135,-112.364"/>
</g>
<!-- Node7 -->
<g id="node7" class="node"><title>Node7</title>
<g id="a_node7"><a xlink:href="_o_s_x_2_ogre_config_dialog_imp_8h.html" target="_top" xlink:title="OgreConfigDialogImp.h">
<polygon fill="none" stroke="black" points="350,-56.5 350,-75.5 469,-75.5 469,-56.5 350,-56.5"/>
<text text-anchor="middle" x="409.5" y="-63.5" font-family="Helvetica,sans-Serif" font-size="10.00">OgreConfigDialogImp.h</text>
</a>
</g>
</g>
<!-- Node4&#45;&gt;Node7 -->
<g id="edge6" class="edge"><title>Node4&#45;&gt;Node7</title>
<path fill="none" stroke="midnightblue" d="M811.708,-120.658C731.271,-109.927 559.925,-87.0679 469.017,-74.9401"/>
<polygon fill="midnightblue" stroke="midnightblue" points="811.602,-124.175 821.978,-122.028 812.528,-117.236 811.602,-124.175"/>
</g>
<!-- Node8 -->
<g id="node8" class="node"><title>Node8</title>
<g id="a_node8"><a xlink:href="_ogre_static_plugin_loader_8h.html" target="_top" xlink:title="OgreStaticPluginLoader.h">
<polygon fill="none" stroke="black" points="487.5,-56.5 487.5,-75.5 615.5,-75.5 615.5,-56.5 487.5,-56.5"/>
<text text-anchor="middle" x="551.5" y="-63.5" font-family="Helvetica,sans-Serif" font-size="10.00">OgreStaticPluginLoader.h</text>
</a>
</g>
</g>
<!-- Node4&#45;&gt;Node8 -->
<g id="edge7" class="edge"><title>Node4&#45;&gt;Node8</title>
<path fill="none" stroke="midnightblue" d="M811.893,-117.965C754.146,-106.663 652.891,-86.8446 595.132,-75.5397"/>
<polygon fill="midnightblue" stroke="midnightblue" points="811.319,-121.419 821.805,-119.905 812.664,-114.549 811.319,-121.419"/>
</g>
<!-- Node9 -->
<g id="node9" class="node"><title>Node9</title>
<g id="a_node9"><a xlink:href="_ogre_trays_8h.html" target="_top" xlink:title="OgreTrays.h">
<polygon fill="none" stroke="black" points="634,-56.5 634,-75.5 705,-75.5 705,-56.5 634,-56.5"/>
<text text-anchor="middle" x="669.5" y="-63.5" font-family="Helvetica,sans-Serif" font-size="10.00">OgreTrays.h</text>
</a>
</g>
</g>
<!-- Node4&#45;&gt;Node9 -->
<g id="edge8" class="edge"><title>Node4&#45;&gt;Node9</title>
<path fill="none" stroke="midnightblue" d="M819.177,-114.881C783.023,-103.315 728.397,-85.8407 696.1,-75.5091"/>
<polygon fill="midnightblue" stroke="midnightblue" points="818.26,-118.262 828.851,-117.975 820.393,-111.595 818.26,-118.262"/>
</g>
<!-- Node10 -->
<g id="node10" class="node"><title>Node10</title>
<g id="a_node10"><a xlink:href="_ogre_d3_d11_mappings_8h.html" target="_top" xlink:title="OgreD3D11Mappings.h">
<polygon fill="none" stroke="red" points="723,-56.5 723,-75.5 842,-75.5 842,-56.5 723,-56.5"/>
<text text-anchor="middle" x="782.5" y="-63.5" font-family="Helvetica,sans-Serif" font-size="10.00">OgreD3D11Mappings.h</text>
</a>
</g>
</g>
<!-- Node4&#45;&gt;Node10 -->
<g id="edge9" class="edge"><title>Node4&#45;&gt;Node10</title>
<path fill="none" stroke="midnightblue" d="M837.063,-111.473C823.101,-100.093 804.424,-84.8694 792.94,-75.5091"/>
<polygon fill="midnightblue" stroke="midnightblue" points="835.078,-114.37 845.041,-117.975 839.501,-108.944 835.078,-114.37"/>
</g>
<!-- Node11 -->
<g id="node11" class="node"><title>Node11</title>
<g id="a_node11"><a xlink:href="_ogre_e_a_g_l_view_controller_8h.html" target="_top" xlink:title="OgreEAGLViewController.h">
<polygon fill="none" stroke="black" points="860.5,-56.5 860.5,-75.5 996.5,-75.5 996.5,-56.5 860.5,-56.5"/>
<text text-anchor="middle" x="928.5" y="-63.5" font-family="Helvetica,sans-Serif" font-size="10.00">OgreEAGLViewController.h</text>
</a>
</g>
</g>
<!-- Node4&#45;&gt;Node11 -->
<g id="edge10" class="edge"><title>Node4&#45;&gt;Node11</title>
<path fill="none" stroke="midnightblue" d="M873.937,-111.473C887.899,-100.093 906.576,-84.8694 918.06,-75.5091"/>
<polygon fill="midnightblue" stroke="midnightblue" points="871.499,-108.944 865.959,-117.975 875.922,-114.37 871.499,-108.944"/>
</g>
<!-- Node12 -->
<g id="node12" class="node"><title>Node12</title>
<g id="a_node12"><a xlink:href="_ogre_e_a_g_l2_view_controller_8h.html" target="_top" xlink:title="OgreEAGL2ViewController.h">
<polygon fill="none" stroke="black" points="1015,-56.5 1015,-75.5 1156,-75.5 1156,-56.5 1015,-56.5"/>
<text text-anchor="middle" x="1085.5" y="-63.5" font-family="Helvetica,sans-Serif" font-size="10.00">OgreEAGL2ViewController.h</text>
</a>
</g>
</g>
<!-- Node4&#45;&gt;Node12 -->
<g id="edge11" class="edge"><title>Node4&#45;&gt;Node12</title>
<path fill="none" stroke="midnightblue" d="M898.143,-115.468C942.804,-103.915 1011.99,-86.0173 1052.61,-75.5091"/>
<polygon fill="midnightblue" stroke="midnightblue" points="897.258,-112.082 888.453,-117.975 899.011,-118.859 897.258,-112.082"/>
</g>
<!-- Node14 -->
<g id="node14" class="node"><title>Node14</title>
<g id="a_node14"><a xlink:href="_ogre_r_t_shader_system_8h.html" target="_top" xlink:title="OgreRTShaderSystem.h">
<polygon fill="none" stroke="black" points="27.5,-56.5 27.5,-75.5 151.5,-75.5 151.5,-56.5 27.5,-56.5"/>
<text text-anchor="middle" x="89.5" y="-63.5" font-family="Helvetica,sans-Serif" font-size="10.00">OgreRTShaderSystem.h</text>
</a>
</g>
</g>
<!-- Node13&#45;&gt;Node14 -->
<g id="edge15" class="edge"><title>Node13&#45;&gt;Node14</title>
<path fill="none" stroke="midnightblue" d="M199.471,-184.114C167.752,-178.802 132.148,-167.309 108.5,-143 90.3864,-124.38 88.7252,-91.2387 89.0494,-75.6095"/>
<polygon fill="midnightblue" stroke="midnightblue" points="199.205,-187.613 209.612,-185.63 200.24,-180.69 199.205,-187.613"/>
</g>
<!-- Node16 -->
<g id="node16" class="node"><title>Node16</title>
<g id="a_node16"><a xlink:href="_ogre_shader_material_serializer_listener_8h.html" target="_top" xlink:title="OgreShaderMaterialSerializer\lListener.h">
<polygon fill="none" stroke="black" points="278,-112.5 278,-142.5 421,-142.5 421,-112.5 278,-112.5"/>
<text text-anchor="start" x="286" y="-130.5" font-family="Helvetica,sans-Serif" font-size="10.00">OgreShaderMaterialSerializer</text>
<text text-anchor="middle" x="349.5" y="-119.5" font-family="Helvetica,sans-Serif" font-size="10.00">Listener.h</text>
</a>
</g>
</g>
<!-- Node13&#45;&gt;Node16 -->
<g id="edge17" class="edge"><title>Node13&#45;&gt;Node16</title>
<path fill="none" stroke="midnightblue" d="M289.039,-173.468C301.705,-164.047 318.117,-151.841 330.646,-142.523"/>
<polygon fill="midnightblue" stroke="midnightblue" points="286.897,-170.699 280.962,-179.475 291.075,-176.316 286.897,-170.699"/>
</g>
<!-- Node17 -->
<g id="node17" class="node"><title>Node17</title>
<g id="a_node17"><a xlink:href="_ogre_shader_f_f_p_render_state_builder_8h.html" target="_top" xlink:title="OgreShaderFFPRenderState\lBuilder.h">
<polygon fill="none" stroke="black" points="117.5,-112.5 117.5,-142.5 259.5,-142.5 259.5,-112.5 117.5,-112.5"/>
<text text-anchor="start" x="125.5" y="-130.5" font-family="Helvetica,sans-Serif" font-size="10.00">OgreShaderFFPRenderState</text>
<text text-anchor="middle" x="188.5" y="-119.5" font-family="Helvetica,sans-Serif" font-size="10.00">Builder.h</text>
</a>
</g>
</g>
<!-- Node13&#45;&gt;Node17 -->
<g id="edge19" class="edge"><title>Node13&#45;&gt;Node17</title>
<path fill="none" stroke="midnightblue" d="M249.717,-173.468C236.892,-164.047 220.275,-151.841 207.59,-142.523"/>
<polygon fill="midnightblue" stroke="midnightblue" points="247.763,-176.376 257.895,-179.475 251.907,-170.734 247.763,-176.376"/>
</g>
<!-- Node15 -->
<g id="node15" class="node"><title>Node15</title>
<g id="a_node15"><a xlink:href="_ogre_s_g_technique_resolver_listener_8h.html" target="_top" xlink:title="OgreSGTechniqueResolverListener.h">
<polygon fill="none" stroke="black" points="0,-0.5 0,-19.5 179,-19.5 179,-0.5 0,-0.5"/>
<text text-anchor="middle" x="89.5" y="-7.5" font-family="Helvetica,sans-Serif" font-size="10.00">OgreSGTechniqueResolverListener.h</text>
</a>
</g>
</g>
<!-- Node14&#45;&gt;Node15 -->
<g id="edge16" class="edge"><title>Node14&#45;&gt;Node15</title>
<path fill="none" stroke="midnightblue" d="M89.5,-45.8045C89.5,-36.9102 89.5,-26.7798 89.5,-19.7511"/>
<polygon fill="midnightblue" stroke="midnightblue" points="86.0001,-46.083 89.5,-56.083 93.0001,-46.083 86.0001,-46.083"/>
</g>
<!-- Node16&#45;&gt;Node14 -->
<g id="edge18" class="edge"><title>Node16&#45;&gt;Node14</title>
<path fill="none" stroke="midnightblue" d="M278.291,-110.204C229.251,-98.9814 166.07,-84.5228 126.671,-75.5064"/>
<polygon fill="midnightblue" stroke="midnightblue" points="277.684,-113.656 288.213,-112.475 279.246,-106.832 277.684,-113.656"/>
</g>
<!-- Node19 -->
<g id="node19" class="node"><title>Node19</title>
<g id="a_node19"><a xlink:href="_ogre_terrain_group_8h.html" target="_top" xlink:title="OgreTerrainGroup.h">
<polygon fill="none" stroke="black" points="478.5,-118 478.5,-137 580.5,-137 580.5,-118 478.5,-118"/>
<text text-anchor="middle" x="529.5" y="-125" font-family="Helvetica,sans-Serif" font-size="10.00">OgreTerrainGroup.h</text>
</a>
</g>
</g>
<!-- Node18&#45;&gt;Node19 -->
<g id="edge21" class="edge"><title>Node18&#45;&gt;Node19</title>
<path fill="none" stroke="midnightblue" d="M616.487,-174.712C594.795,-163.188 564.051,-146.855 545.517,-137.009"/>
<polygon fill="midnightblue" stroke="midnightblue" points="614.98,-177.874 625.453,-179.475 618.264,-171.693 614.98,-177.874"/>
</g>
<!-- Node20 -->
<g id="node20" class="node"><title>Node20</title>
<g id="a_node20"><a xlink:href="_ogre_terrain_paged_world_section_8h.html" target="_top" xlink:title="OgreTerrainPagedWorldSection.h">
<polygon fill="none" stroke="black" points="169.5,-56.5 169.5,-75.5 331.5,-75.5 331.5,-56.5 169.5,-56.5"/>
<text text-anchor="middle" x="250.5" y="-63.5" font-family="Helvetica,sans-Serif" font-size="10.00">OgreTerrainPagedWorldSection.h</text>
</a>
</g>
</g>
<!-- Node19&#45;&gt;Node20 -->
<g id="edge22" class="edge"><title>Node19&#45;&gt;Node20</title>
<path fill="none" stroke="midnightblue" d="M479.47,-115.83C425.363,-104.292 340.191,-86.1277 290.4,-75.5091"/>
<polygon fill="midnightblue" stroke="midnightblue" points="479.016,-119.312 489.526,-117.975 480.476,-112.466 479.016,-119.312"/>
</g>
<!-- Node22 -->
<g id="node22" class="node"><title>Node22</title>
<g id="a_node22"><a xlink:href="_ogre_paging_8h.html" target="_top" xlink:title="OgrePaging.h">
<polygon fill="none" stroke="black" points="1019.5,-179.5 1019.5,-198.5 1095.5,-198.5 1095.5,-179.5 1019.5,-179.5"/>
<text text-anchor="middle" x="1057.5" y="-186.5" font-family="Helvetica,sans-Serif" font-size="10.00">OgrePaging.h</text>
</a>
</g>
</g>
<!-- Node21&#45;&gt;Node22 -->
<g id="edge24" class="edge"><title>Node21&#45;&gt;Node22</title>
<path fill="none" stroke="midnightblue" d="M1081.88,-226.566C1075.68,-217.275 1068.33,-206.248 1063.33,-198.751"/>
<polygon fill="midnightblue" stroke="midnightblue" points="1079.1,-228.704 1087.56,-235.083 1084.92,-224.821 1079.1,-228.704"/>
</g>
<!-- Node23&#45;&gt;Node22 -->
<g id="edge26" class="edge"><title>Node23&#45;&gt;Node22</title>
<path fill="none" stroke="midnightblue" d="M994.694,-229.901C1010.28,-219.999 1030.63,-207.071 1043.88,-198.655"/>
<polygon fill="midnightblue" stroke="midnightblue" points="992.721,-227.007 986.157,-235.324 996.474,-232.916 992.721,-227.007"/>
</g>
</g>
</svg>
