<?xml version="1.0" encoding="UTF-8" standalone="no"?>
<!DOCTYPE svg PUBLIC "-//W3C//DTD SVG 1.1//EN"
 "http://www.w3.org/Graphics/SVG/1.1/DTD/svg11.dtd">
<!-- Generated by graphviz version 2.38.0 (20140413.2041)
 -->
<!-- Title: OgreNaClGLContext.h Pages: 1 -->
<svg width="2778pt" height="589pt"
 viewBox="0.00 0.00 2778.00 588.92" xmlns="http://www.w3.org/2000/svg" xmlns:xlink="http://www.w3.org/1999/xlink">
<g id="graph0" class="graph" transform="scale(1 1) rotate(0) translate(4 584.917)">
<title>OgreNaClGLContext.h</title>
<!-- Node1 -->
<g id="node1" class="node"><title>Node1</title>
<polygon fill="#bfbfbf" stroke="black" points="2276,-560.5 2276,-579.5 2392,-579.5 2392,-560.5 2276,-560.5"/>
<text text-anchor="middle" x="2334" y="-567.5" font-family="Helvetica,sans-Serif" font-size="10.00">OgreNaClGLContext.h</text>
</g>
<!-- Node1&#45;&gt;Node1 -->
<g id="edge66" class="edge"><title>Node1&#45;&gt;Node1</title>
<path fill="none" stroke="midnightblue" d="M2366.41,-579.525C2388.44,-582.308 2410,-579.133 2410,-570 2410,-562.294 2394.65,-558.83 2376.62,-559.607"/>
<polygon fill="midnightblue" stroke="midnightblue" points="2376.08,-556.14 2366.41,-560.475 2376.67,-563.115 2376.08,-556.14"/>
</g>
<!-- Node2 -->
<g id="node2" class="node"><title>Node2</title>
<g id="a_node2"><a xlink:href="_ogre_g_l_e_s2_prerequisites_8h.html" target="_top" xlink:title="OgreGLES2Prerequisites.h">
<polygon fill="none" stroke="black" points="2241,-336.5 2241,-355.5 2375,-355.5 2375,-336.5 2241,-336.5"/>
<text text-anchor="middle" x="2308" y="-343.5" font-family="Helvetica,sans-Serif" font-size="10.00">OgreGLES2Prerequisites.h</text>
</a>
</g>
</g>
<!-- Node1&#45;&gt;Node2 -->
<g id="edge1" class="edge"><title>Node1&#45;&gt;Node2</title>
<path fill="none" stroke="midnightblue" d="M2332.98,-560.297C2329.16,-527.633 2315.6,-411.866 2310.22,-365.957"/>
<polygon fill="midnightblue" stroke="midnightblue" points="2313.68,-365.409 2309.04,-355.884 2306.73,-366.223 2313.68,-365.409"/>
</g>
<!-- Node46 -->
<g id="node46" class="node"><title>Node46</title>
<g id="a_node46"><a xlink:href="_ogre_g_l_context_8h.html" target="_top" xlink:title="OgreGLContext.h">
<polygon fill="none" stroke="black" points="2375.5,-448.5 2375.5,-467.5 2468.5,-467.5 2468.5,-448.5 2375.5,-448.5"/>
<text text-anchor="middle" x="2422" y="-455.5" font-family="Helvetica,sans-Serif" font-size="10.00">OgreGLContext.h</text>
</a>
</g>
</g>
<!-- Node1&#45;&gt;Node46 -->
<g id="edge59" class="edge"><title>Node1&#45;&gt;Node46</title>
<path fill="none" stroke="midnightblue" d="M2340.91,-560.368C2355.49,-542.135 2389.66,-499.426 2408.66,-475.675"/>
<polygon fill="midnightblue" stroke="midnightblue" points="2411.61,-477.587 2415.13,-467.591 2406.15,-473.214 2411.61,-477.587"/>
</g>
<!-- Node48 -->
<g id="node48" class="node"><title>Node48</title>
<g id="a_node48"><a xlink:href="_ogre_na_cl_window_8h.html" target="_top" xlink:title="OgreNaClWindow.h">
<polygon fill="none" stroke="black" points="2199,-504.5 2199,-523.5 2303,-523.5 2303,-504.5 2199,-504.5"/>
<text text-anchor="middle" x="2251" y="-511.5" font-family="Helvetica,sans-Serif" font-size="10.00">OgreNaClWindow.h</text>
</a>
</g>
</g>
<!-- Node1&#45;&gt;Node48 -->
<g id="edge62" class="edge"><title>Node1&#45;&gt;Node48</title>
<path fill="none" stroke="midnightblue" d="M2320.66,-560.324C2307.84,-551.979 2288.22,-539.212 2273.06,-529.352"/>
<polygon fill="midnightblue" stroke="midnightblue" points="2274.59,-526.174 2264.3,-523.655 2270.78,-532.042 2274.59,-526.174"/>
</g>
<!-- Node3 -->
<g id="node3" class="node"><title>Node3</title>
<g id="a_node3"><a xlink:href="_ogre_prerequisites_8h.html" target="_top" xlink:title="OgrePrerequisites.h">
<polygon fill="none" stroke="black" points="2273.5,-168.5 2273.5,-187.5 2376.5,-187.5 2376.5,-168.5 2273.5,-168.5"/>
<text text-anchor="middle" x="2325" y="-175.5" font-family="Helvetica,sans-Serif" font-size="10.00">OgrePrerequisites.h</text>
</a>
</g>
</g>
<!-- Node2&#45;&gt;Node3 -->
<g id="edge2" class="edge"><title>Node2&#45;&gt;Node3</title>
<path fill="none" stroke="midnightblue" d="M2316.69,-336.268C2324.46,-327.808 2335.32,-314.205 2340,-300 2350.56,-267.913 2346.74,-257.289 2341,-224 2339.43,-214.91 2336.21,-205.222 2333.06,-197.173"/>
<polygon fill="midnightblue" stroke="midnightblue" points="2336.19,-195.602 2329.11,-187.723 2329.74,-198.299 2336.19,-195.602"/>
</g>
<!-- Node41 -->
<g id="node41" class="node"><title>Node41</title>
<g id="a_node41"><a xlink:href="_ogre_log_manager_8h.html" target="_top" xlink:title="OgreLogManager.h">
<polygon fill="none" stroke="black" points="2232.5,-280.5 2232.5,-299.5 2331.5,-299.5 2331.5,-280.5 2232.5,-280.5"/>
<text text-anchor="middle" x="2282" y="-287.5" font-family="Helvetica,sans-Serif" font-size="10.00">OgreLogManager.h</text>
</a>
</g>
</g>
<!-- Node2&#45;&gt;Node41 -->
<g id="edge44" class="edge"><title>Node2&#45;&gt;Node41</title>
<path fill="none" stroke="midnightblue" d="M2303.71,-336.083C2300.15,-328.691 2294.98,-317.953 2290.58,-308.811"/>
<polygon fill="midnightblue" stroke="midnightblue" points="2293.71,-307.243 2286.21,-299.751 2287.4,-310.279 2293.71,-307.243"/>
</g>
<!-- Node44 -->
<g id="node44" class="node"><title>Node44</title>
<g id="a_node44"><a xlink:href="_ogre_math_8h.html" target="_top" xlink:title="OgreMath.h">
<polygon fill="none" stroke="black" points="2702,-224.5 2702,-243.5 2770,-243.5 2770,-224.5 2702,-224.5"/>
<text text-anchor="middle" x="2736" y="-231.5" font-family="Helvetica,sans-Serif" font-size="10.00">OgreMath.h</text>
</a>
</g>
</g>
<!-- Node2&#45;&gt;Node44 -->
<g id="edge54" class="edge"><title>Node2&#45;&gt;Node44</title>
<path fill="none" stroke="midnightblue" d="M2341.23,-336.46C2417.95,-316.742 2607.39,-268.055 2692.89,-246.078"/>
<polygon fill="midnightblue" stroke="midnightblue" points="2693.98,-249.414 2702.79,-243.535 2692.24,-242.634 2693.98,-249.414"/>
</g>
<!-- Node45 -->
<g id="node45" class="node"><title>Node45</title>
<polygon fill="none" stroke="#bfbfbf" points="2124,-280.5 2124,-299.5 2214,-299.5 2214,-280.5 2124,-280.5"/>
<text text-anchor="middle" x="2169" y="-287.5" font-family="Helvetica,sans-Serif" font-size="10.00">GLES2/gles2w.h</text>
</g>
<!-- Node2&#45;&gt;Node45 -->
<g id="edge58" class="edge"><title>Node2&#45;&gt;Node45</title>
<path fill="none" stroke="midnightblue" d="M2285.98,-336.444C2262.9,-327.478 2226.44,-313.314 2200.36,-303.183"/>
<polygon fill="midnightblue" stroke="midnightblue" points="2201.51,-299.875 2190.92,-299.516 2198.98,-306.4 2201.51,-299.875"/>
</g>
<!-- Node4 -->
<g id="node4" class="node"><title>Node4</title>
<g id="a_node4"><a xlink:href="_ogre_platform_8h.html" target="_top" xlink:title="OgrePlatform.h">
<polygon fill="none" stroke="black" points="2534.5,-112.5 2534.5,-131.5 2617.5,-131.5 2617.5,-112.5 2534.5,-112.5"/>
<text text-anchor="middle" x="2576" y="-119.5" font-family="Helvetica,sans-Serif" font-size="10.00">OgrePlatform.h</text>
</a>
</g>
</g>
<!-- Node3&#45;&gt;Node4 -->
<g id="edge3" class="edge"><title>Node3&#45;&gt;Node4</title>
<path fill="none" stroke="midnightblue" d="M2364.77,-168.444C2408.56,-159.023 2479.01,-143.866 2526.38,-133.675"/>
<polygon fill="midnightblue" stroke="midnightblue" points="2527.37,-137.041 2536.41,-131.516 2525.9,-130.198 2527.37,-137.041"/>
</g>
<!-- Node6 -->
<g id="node6" class="node"><title>Node6</title>
<polygon fill="none" stroke="#bfbfbf" points="104.5,-56.5 104.5,-75.5 145.5,-75.5 145.5,-56.5 104.5,-56.5"/>
<text text-anchor="middle" x="125" y="-63.5" font-family="Helvetica,sans-Serif" font-size="10.00">string</text>
</g>
<!-- Node3&#45;&gt;Node6 -->
<g id="edge5" class="edge"><title>Node3&#45;&gt;Node6</title>
<path fill="none" stroke="midnightblue" d="M2273.32,-175.938C2093.49,-172.102 1478.37,-157.812 971,-132 610.79,-113.675 513.525,-142.309 155.616,-75.9173"/>
<polygon fill="midnightblue" stroke="midnightblue" points="156.236,-72.4725 145.763,-74.0779 154.951,-79.3537 156.236,-72.4725"/>
</g>
<!-- Node7 -->
<g id="node7" class="node"><title>Node7</title>
<g id="a_node7"><a xlink:href="_ogre_std_headers_8h.html" target="_top" xlink:title="OgreStdHeaders.h">
<polygon fill="none" stroke="black" points="980,-112.5 980,-131.5 1078,-131.5 1078,-112.5 980,-112.5"/>
<text text-anchor="middle" x="1029" y="-119.5" font-family="Helvetica,sans-Serif" font-size="10.00">OgreStdHeaders.h</text>
</a>
</g>
</g>
<!-- Node3&#45;&gt;Node7 -->
<g id="edge6" class="edge"><title>Node3&#45;&gt;Node7</title>
<path fill="none" stroke="midnightblue" d="M2273.4,-174.85C2067.75,-166.281 1307.23,-134.593 1088.31,-125.471"/>
<polygon fill="midnightblue" stroke="midnightblue" points="1088.44,-121.974 1078.3,-125.054 1088.15,-128.968 1088.44,-121.974"/>
</g>
<!-- Node37 -->
<g id="node37" class="node"><title>Node37</title>
<g id="a_node37"><a xlink:href="_ogre_memory_allocator_config_8h.html" target="_top" xlink:title="This file configures Ogre&#39;s memory allocators. ">
<polygon fill="none" stroke="red" points="2353,-112.5 2353,-131.5 2501,-131.5 2501,-112.5 2353,-112.5"/>
<text text-anchor="middle" x="2427" y="-119.5" font-family="Helvetica,sans-Serif" font-size="10.00">OgreMemoryAllocatorConfig.h</text>
</a>
</g>
</g>
<!-- Node3&#45;&gt;Node37 -->
<g id="edge37" class="edge"><title>Node3&#45;&gt;Node37</title>
<path fill="none" stroke="midnightblue" d="M2341.39,-168.324C2357.67,-159.703 2382.87,-146.364 2401.72,-136.386"/>
<polygon fill="midnightblue" stroke="midnightblue" points="2403.45,-139.427 2410.65,-131.655 2400.18,-133.24 2403.45,-139.427"/>
</g>
<!-- Node5 -->
<g id="node5" class="node"><title>Node5</title>
<g id="a_node5"><a xlink:href="_ogre_config_8h.html" target="_top" xlink:title="OgreConfig.h">
<polygon fill="none" stroke="red" points="2558,-56.5 2558,-75.5 2632,-75.5 2632,-56.5 2558,-56.5"/>
<text text-anchor="middle" x="2595" y="-63.5" font-family="Helvetica,sans-Serif" font-size="10.00">OgreConfig.h</text>
</a>
</g>
</g>
<!-- Node4&#45;&gt;Node5 -->
<g id="edge4" class="edge"><title>Node4&#45;&gt;Node5</title>
<path fill="none" stroke="midnightblue" d="M2579.14,-112.083C2581.68,-104.849 2585.36,-94.4087 2588.53,-85.3968"/>
<polygon fill="midnightblue" stroke="midnightblue" points="2591.9,-86.3459 2591.92,-75.7511 2585.3,-84.0225 2591.9,-86.3459"/>
</g>
<!-- Node7&#45;&gt;Node6 -->
<g id="edge16" class="edge"><title>Node7&#45;&gt;Node6</title>
<path fill="none" stroke="midnightblue" d="M979.855,-120.084C822.836,-116.909 333.639,-105.036 155.758,-75.8416"/>
<polygon fill="midnightblue" stroke="midnightblue" points="156.204,-72.367 145.755,-74.1217 155.017,-79.2657 156.204,-72.367"/>
</g>
<!-- Node8 -->
<g id="node8" class="node"><title>Node8</title>
<polygon fill="none" stroke="#bfbfbf" points="163.5,-56.5 163.5,-75.5 212.5,-75.5 212.5,-56.5 163.5,-56.5"/>
<text text-anchor="middle" x="188" y="-63.5" font-family="Helvetica,sans-Serif" font-size="10.00">cassert</text>
</g>
<!-- Node7&#45;&gt;Node8 -->
<g id="edge7" class="edge"><title>Node7&#45;&gt;Node8</title>
<path fill="none" stroke="midnightblue" d="M979.97,-119.624C831.461,-115.245 387.168,-100.555 222.7,-75.9101"/>
<polygon fill="midnightblue" stroke="midnightblue" points="223.165,-72.4402 212.743,-74.349 222.08,-79.3557 223.165,-72.4402"/>
</g>
<!-- Node9 -->
<g id="node9" class="node"><title>Node9</title>
<polygon fill="none" stroke="#bfbfbf" points="230.5,-56.5 230.5,-75.5 273.5,-75.5 273.5,-56.5 230.5,-56.5"/>
<text text-anchor="middle" x="252" y="-63.5" font-family="Helvetica,sans-Serif" font-size="10.00">cstdio</text>
</g>
<!-- Node7&#45;&gt;Node9 -->
<g id="edge8" class="edge"><title>Node7&#45;&gt;Node9</title>
<path fill="none" stroke="midnightblue" d="M979.869,-119.524C839.148,-115.065 435.484,-100.615 283.86,-75.9003"/>
<polygon fill="midnightblue" stroke="midnightblue" points="284.261,-72.4181 273.814,-74.1804 283.08,-79.3177 284.261,-72.4181"/>
</g>
<!-- Node10 -->
<g id="node10" class="node"><title>Node10</title>
<polygon fill="none" stroke="#bfbfbf" points="291.5,-56.5 291.5,-75.5 336.5,-75.5 336.5,-56.5 291.5,-56.5"/>
<text text-anchor="middle" x="314" y="-63.5" font-family="Helvetica,sans-Serif" font-size="10.00">cstdlib</text>
</g>
<!-- Node7&#45;&gt;Node10 -->
<g id="edge9" class="edge"><title>Node7&#45;&gt;Node10</title>
<path fill="none" stroke="midnightblue" d="M979.629,-121.401C868.012,-121.526 587.801,-117.452 346.562,-75.9103"/>
<polygon fill="midnightblue" stroke="midnightblue" points="347.007,-72.435 336.553,-74.1611 345.801,-79.3305 347.007,-72.435"/>
</g>
<!-- Node11 -->
<g id="node11" class="node"><title>Node11</title>
<polygon fill="none" stroke="#bfbfbf" points="354.5,-56.5 354.5,-75.5 395.5,-75.5 395.5,-56.5 354.5,-56.5"/>
<text text-anchor="middle" x="375" y="-63.5" font-family="Helvetica,sans-Serif" font-size="10.00">ctime</text>
</g>
<!-- Node7&#45;&gt;Node11 -->
<g id="edge10" class="edge"><title>Node7&#45;&gt;Node11</title>
<path fill="none" stroke="midnightblue" d="M979.995,-121.102C875.726,-120.539 624.28,-115.037 405.572,-75.6411"/>
<polygon fill="midnightblue" stroke="midnightblue" points="405.978,-72.1574 395.511,-73.8005 404.718,-79.0431 405.978,-72.1574"/>
</g>
<!-- Node12 -->
<g id="node12" class="node"><title>Node12</title>
<polygon fill="none" stroke="#bfbfbf" points="414,-56.5 414,-75.5 460,-75.5 460,-56.5 414,-56.5"/>
<text text-anchor="middle" x="437" y="-63.5" font-family="Helvetica,sans-Serif" font-size="10.00">cstring</text>
</g>
<!-- Node7&#45;&gt;Node12 -->
<g id="edge11" class="edge"><title>Node7&#45;&gt;Node12</title>
<path fill="none" stroke="midnightblue" d="M979.902,-120.246C883.651,-118.079 663.432,-109.728 470.343,-75.9037"/>
<polygon fill="midnightblue" stroke="midnightblue" points="470.756,-72.4222 460.297,-74.1162 469.529,-79.3139 470.756,-72.4222"/>
</g>
<!-- Node13 -->
<g id="node13" class="node"><title>Node13</title>
<polygon fill="none" stroke="#bfbfbf" points="478.5,-56.5 478.5,-75.5 527.5,-75.5 527.5,-56.5 478.5,-56.5"/>
<text text-anchor="middle" x="503" y="-63.5" font-family="Helvetica,sans-Serif" font-size="10.00">cstdarg</text>
</g>
<!-- Node7&#45;&gt;Node13 -->
<g id="edge12" class="edge"><title>Node7&#45;&gt;Node13</title>
<path fill="none" stroke="midnightblue" d="M979.756,-119.227C892.5,-115.492 704.991,-104.801 537.745,-75.8251"/>
<polygon fill="midnightblue" stroke="midnightblue" points="538.231,-72.3569 527.775,-74.0716 537.018,-79.251 538.231,-72.3569"/>
</g>
<!-- Node14 -->
<g id="node14" class="node"><title>Node14</title>
<polygon fill="none" stroke="#bfbfbf" points="546,-56.5 546,-75.5 590,-75.5 590,-56.5 546,-56.5"/>
<text text-anchor="middle" x="568" y="-63.5" font-family="Helvetica,sans-Serif" font-size="10.00">cmath</text>
</g>
<!-- Node7&#45;&gt;Node14 -->
<g id="edge13" class="edge"><title>Node7&#45;&gt;Node14</title>
<path fill="none" stroke="midnightblue" d="M979.892,-118.713C901.474,-114.439 743.105,-103.267 600.475,-75.9636"/>
<polygon fill="midnightblue" stroke="midnightblue" points="600.719,-72.4454 590.234,-73.9698 599.381,-79.3164 600.719,-72.4454"/>
</g>
<!-- Node15 -->
<g id="node15" class="node"><title>Node15</title>
<polygon fill="none" stroke="#bfbfbf" points="608,-56.5 608,-75.5 652,-75.5 652,-56.5 608,-56.5"/>
<text text-anchor="middle" x="630" y="-63.5" font-family="Helvetica,sans-Serif" font-size="10.00">vector</text>
</g>
<!-- Node7&#45;&gt;Node15 -->
<g id="edge14" class="edge"><title>Node7&#45;&gt;Node15</title>
<path fill="none" stroke="midnightblue" d="M979.783,-117.513C910.755,-112.067 781.2,-99.8221 662.249,-75.9623"/>
<polygon fill="midnightblue" stroke="midnightblue" points="662.742,-72.4908 652.244,-73.9224 661.343,-79.3497 662.742,-72.4908"/>
</g>
<!-- Node16 -->
<g id="node16" class="node"><title>Node16</title>
<polygon fill="none" stroke="#bfbfbf" points="670.5,-56.5 670.5,-75.5 705.5,-75.5 705.5,-56.5 670.5,-56.5"/>
<text text-anchor="middle" x="688" y="-63.5" font-family="Helvetica,sans-Serif" font-size="10.00">map</text>
</g>
<!-- Node7&#45;&gt;Node16 -->
<g id="edge15" class="edge"><title>Node7&#45;&gt;Node16</title>
<path fill="none" stroke="midnightblue" d="M979.811,-116.707C919.566,-110.842 814.373,-98.6348 715.448,-75.6942"/>
<polygon fill="midnightblue" stroke="midnightblue" points="716.125,-72.2578 705.588,-73.3666 714.516,-79.0706 716.125,-72.2578"/>
</g>
<!-- Node17 -->
<g id="node17" class="node"><title>Node17</title>
<polygon fill="none" stroke="#bfbfbf" points="724,-56.5 724,-75.5 754,-75.5 754,-56.5 724,-56.5"/>
<text text-anchor="middle" x="739" y="-63.5" font-family="Helvetica,sans-Serif" font-size="10.00">set</text>
</g>
<!-- Node7&#45;&gt;Node17 -->
<g id="edge17" class="edge"><title>Node7&#45;&gt;Node17</title>
<path fill="none" stroke="midnightblue" d="M979.858,-115.545C928.116,-109.168 844.264,-97.0393 763.876,-75.7949"/>
<polygon fill="midnightblue" stroke="midnightblue" points="764.659,-72.3809 754.092,-73.1587 762.837,-79.1399 764.659,-72.3809"/>
</g>
<!-- Node18 -->
<g id="node18" class="node"><title>Node18</title>
<polygon fill="none" stroke="#bfbfbf" points="772.5,-56.5 772.5,-75.5 801.5,-75.5 801.5,-56.5 772.5,-56.5"/>
<text text-anchor="middle" x="787" y="-63.5" font-family="Helvetica,sans-Serif" font-size="10.00">list</text>
</g>
<!-- Node7&#45;&gt;Node18 -->
<g id="edge18" class="edge"><title>Node7&#45;&gt;Node18</title>
<path fill="none" stroke="midnightblue" d="M979.702,-113.342C937.199,-106.189 874.124,-94.2584 811.936,-76.2259"/>
<polygon fill="midnightblue" stroke="midnightblue" points="812.548,-72.7572 801.966,-73.2792 810.564,-79.4701 812.548,-72.7572"/>
</g>
<!-- Node19 -->
<g id="node19" class="node"><title>Node19</title>
<polygon fill="none" stroke="#bfbfbf" points="819.5,-56.5 819.5,-75.5 862.5,-75.5 862.5,-56.5 819.5,-56.5"/>
<text text-anchor="middle" x="841" y="-63.5" font-family="Helvetica,sans-Serif" font-size="10.00">deque</text>
</g>
<!-- Node7&#45;&gt;Node19 -->
<g id="edge19" class="edge"><title>Node7&#45;&gt;Node19</title>
<path fill="none" stroke="midnightblue" d="M998.674,-112.499C968.829,-104.103 921.708,-90.7669 872.487,-76.4092"/>
<polygon fill="midnightblue" stroke="midnightblue" points="873.2,-72.9711 862.619,-73.5251 871.236,-79.69 873.2,-72.9711"/>
</g>
<!-- Node20 -->
<g id="node20" class="node"><title>Node20</title>
<polygon fill="none" stroke="#bfbfbf" points="880.5,-56.5 880.5,-75.5 923.5,-75.5 923.5,-56.5 880.5,-56.5"/>
<text text-anchor="middle" x="902" y="-63.5" font-family="Helvetica,sans-Serif" font-size="10.00">queue</text>
</g>
<!-- Node7&#45;&gt;Node20 -->
<g id="edge20" class="edge"><title>Node7&#45;&gt;Node20</title>
<path fill="none" stroke="midnightblue" d="M1008.88,-112.444C987.976,-103.557 955.065,-89.5632 931.284,-79.4514"/>
<polygon fill="midnightblue" stroke="midnightblue" points="932.602,-76.2085 922.029,-75.5164 929.862,-82.6504 932.602,-76.2085"/>
</g>
<!-- Node21 -->
<g id="node21" class="node"><title>Node21</title>
<polygon fill="none" stroke="#bfbfbf" points="941.5,-56.5 941.5,-75.5 982.5,-75.5 982.5,-56.5 941.5,-56.5"/>
<text text-anchor="middle" x="962" y="-63.5" font-family="Helvetica,sans-Serif" font-size="10.00">bitset</text>
</g>
<!-- Node7&#45;&gt;Node21 -->
<g id="edge21" class="edge"><title>Node7&#45;&gt;Node21</title>
<path fill="none" stroke="midnightblue" d="M1018.24,-112.324C1008.23,-104.263 993.113,-92.0765 981.07,-82.3695"/>
<polygon fill="midnightblue" stroke="midnightblue" points="982.943,-79.3841 972.961,-75.8339 978.55,-84.8343 982.943,-79.3841"/>
</g>
<!-- Node22 -->
<g id="node22" class="node"><title>Node22</title>
<polygon fill="none" stroke="#bfbfbf" points="1001,-56.5 1001,-75.5 1057,-75.5 1057,-56.5 1001,-56.5"/>
<text text-anchor="middle" x="1029" y="-63.5" font-family="Helvetica,sans-Serif" font-size="10.00">algorithm</text>
</g>
<!-- Node7&#45;&gt;Node22 -->
<g id="edge22" class="edge"><title>Node7&#45;&gt;Node22</title>
<path fill="none" stroke="midnightblue" d="M1029,-112.083C1029,-105.006 1029,-94.8611 1029,-85.9865"/>
<polygon fill="midnightblue" stroke="midnightblue" points="1032.5,-85.751 1029,-75.7511 1025.5,-85.7511 1032.5,-85.751"/>
</g>
<!-- Node23 -->
<g id="node23" class="node"><title>Node23</title>
<polygon fill="none" stroke="#bfbfbf" points="1075.5,-56.5 1075.5,-75.5 1134.5,-75.5 1134.5,-56.5 1075.5,-56.5"/>
<text text-anchor="middle" x="1105" y="-63.5" font-family="Helvetica,sans-Serif" font-size="10.00">functional</text>
</g>
<!-- Node7&#45;&gt;Node23 -->
<g id="edge23" class="edge"><title>Node7&#45;&gt;Node23</title>
<path fill="none" stroke="midnightblue" d="M1041.21,-112.324C1052.78,-104.107 1070.38,-91.6017 1084.16,-81.8069"/>
<polygon fill="midnightblue" stroke="midnightblue" points="1086.44,-84.4791 1092.57,-75.8339 1082.39,-78.7729 1086.44,-84.4791"/>
</g>
<!-- Node24 -->
<g id="node24" class="node"><title>Node24</title>
<polygon fill="none" stroke="#bfbfbf" points="1153,-56.5 1153,-75.5 1193,-75.5 1193,-56.5 1153,-56.5"/>
<text text-anchor="middle" x="1173" y="-63.5" font-family="Helvetica,sans-Serif" font-size="10.00">limits</text>
</g>
<!-- Node7&#45;&gt;Node24 -->
<g id="edge24" class="edge"><title>Node7&#45;&gt;Node24</title>
<path fill="none" stroke="midnightblue" d="M1051.82,-112.444C1076.54,-103.173 1116.08,-88.3464 1143.23,-78.1652"/>
<polygon fill="midnightblue" stroke="midnightblue" points="1144.48,-81.4318 1152.62,-74.6433 1142.03,-74.8775 1144.48,-81.4318"/>
</g>
<!-- Node25 -->
<g id="node25" class="node"><title>Node25</title>
<polygon fill="none" stroke="#bfbfbf" points="1211,-56.5 1211,-75.5 1261,-75.5 1261,-56.5 1211,-56.5"/>
<text text-anchor="middle" x="1236" y="-63.5" font-family="Helvetica,sans-Serif" font-size="10.00">fstream</text>
</g>
<!-- Node7&#45;&gt;Node25 -->
<g id="edge25" class="edge"><title>Node7&#45;&gt;Node25</title>
<path fill="none" stroke="midnightblue" d="M1061.85,-112.499C1094.69,-103.993 1146.88,-90.4451 1200.99,-76.2576"/>
<polygon fill="midnightblue" stroke="midnightblue" points="1201.97,-79.6195 1210.75,-73.6961 1200.19,-72.8486 1201.97,-79.6195"/>
</g>
<!-- Node26 -->
<g id="node26" class="node"><title>Node26</title>
<polygon fill="none" stroke="#bfbfbf" points="1279.5,-56.5 1279.5,-75.5 1324.5,-75.5 1324.5,-56.5 1279.5,-56.5"/>
<text text-anchor="middle" x="1302" y="-63.5" font-family="Helvetica,sans-Serif" font-size="10.00">iosfwd</text>
</g>
<!-- Node7&#45;&gt;Node26 -->
<g id="edge26" class="edge"><title>Node7&#45;&gt;Node26</title>
<path fill="none" stroke="midnightblue" d="M1078.2,-113.142C1124.89,-105.385 1197.23,-92.6015 1269.19,-76.0103"/>
<polygon fill="midnightblue" stroke="midnightblue" points="1270.4,-79.3235 1279.34,-73.644 1268.81,-72.5063 1270.4,-79.3235"/>
</g>
<!-- Node27 -->
<g id="node27" class="node"><title>Node27</title>
<polygon fill="none" stroke="#bfbfbf" points="1343,-56.5 1343,-75.5 1395,-75.5 1395,-56.5 1343,-56.5"/>
<text text-anchor="middle" x="1369" y="-63.5" font-family="Helvetica,sans-Serif" font-size="10.00">sstream</text>
</g>
<!-- Node7&#45;&gt;Node27 -->
<g id="edge27" class="edge"><title>Node7&#45;&gt;Node27</title>
<path fill="none" stroke="midnightblue" d="M1078.22,-115.222C1136.55,-108.039 1236.84,-94.6404 1332.85,-75.8416"/>
<polygon fill="midnightblue" stroke="midnightblue" points="1333.59,-79.2621 1342.72,-73.8857 1332.23,-72.3955 1333.59,-79.2621"/>
</g>
<!-- Node28 -->
<g id="node28" class="node"><title>Node28</title>
<polygon fill="none" stroke="#bfbfbf" points="1413,-56.5 1413,-75.5 1481,-75.5 1481,-56.5 1413,-56.5"/>
<text text-anchor="middle" x="1447" y="-63.5" font-family="Helvetica,sans-Serif" font-size="10.00">sys/types.h</text>
</g>
<!-- Node7&#45;&gt;Node28 -->
<g id="edge28" class="edge"><title>Node7&#45;&gt;Node28</title>
<path fill="none" stroke="midnightblue" d="M1078.03,-116.488C1147.94,-109.753 1280.47,-95.8698 1402.86,-76.0637"/>
<polygon fill="midnightblue" stroke="midnightblue" points="1403.48,-79.5096 1412.78,-74.4415 1402.35,-72.6013 1403.48,-79.5096"/>
</g>
<!-- Node29 -->
<g id="node29" class="node"><title>Node29</title>
<polygon fill="none" stroke="#bfbfbf" points="1499,-56.5 1499,-75.5 1559,-75.5 1559,-56.5 1499,-56.5"/>
<text text-anchor="middle" x="1529" y="-63.5" font-family="Helvetica,sans-Serif" font-size="10.00">sys/stat.h</text>
</g>
<!-- Node7&#45;&gt;Node29 -->
<g id="edge29" class="edge"><title>Node7&#45;&gt;Node29</title>
<path fill="none" stroke="midnightblue" d="M1078.06,-118.304C1160.78,-113.303 1333.38,-100.907 1488.64,-76.0228"/>
<polygon fill="midnightblue" stroke="midnightblue" points="1489.53,-79.424 1498.84,-74.3656 1488.41,-72.5145 1489.53,-79.424"/>
</g>
<!-- Node30 -->
<g id="node30" class="node"><title>Node30</title>
<polygon fill="none" stroke="#bfbfbf" points="1577.5,-56.5 1577.5,-75.5 1628.5,-75.5 1628.5,-56.5 1577.5,-56.5"/>
<text text-anchor="middle" x="1603" y="-63.5" font-family="Helvetica,sans-Serif" font-size="10.00">unistd.h</text>
</g>
<!-- Node7&#45;&gt;Node30 -->
<g id="edge30" class="edge"><title>Node7&#45;&gt;Node30</title>
<path fill="none" stroke="midnightblue" d="M1078.03,-119.667C1171.46,-116.53 1381.52,-106.609 1567.53,-75.7641"/>
<polygon fill="midnightblue" stroke="midnightblue" points="1568.21,-79.199 1577.49,-74.0882 1567.05,-72.296 1568.21,-79.199"/>
</g>
<!-- Node31 -->
<g id="node31" class="node"><title>Node31</title>
<polygon fill="none" stroke="#bfbfbf" points="1647,-56.5 1647,-75.5 1693,-75.5 1693,-56.5 1647,-56.5"/>
<text text-anchor="middle" x="1670" y="-63.5" font-family="Helvetica,sans-Serif" font-size="10.00">dlfcn.h</text>
</g>
<!-- Node7&#45;&gt;Node31 -->
<g id="edge31" class="edge"><title>Node7&#45;&gt;Node31</title>
<path fill="none" stroke="midnightblue" d="M1078.25,-120.555C1180.61,-118.94 1423.74,-111.527 1636.58,-75.6823"/>
<polygon fill="midnightblue" stroke="midnightblue" points="1637.42,-79.0889 1646.69,-73.9538 1636.24,-72.1889 1637.42,-79.0889"/>
</g>
<!-- Node32 -->
<g id="node32" class="node"><title>Node32</title>
<polygon fill="none" stroke="#bfbfbf" points="1711,-56.5 1711,-75.5 1789,-75.5 1789,-56.5 1711,-56.5"/>
<text text-anchor="middle" x="1750" y="-63.5" font-family="Helvetica,sans-Serif" font-size="10.00">ext/hash_map</text>
</g>
<!-- Node7&#45;&gt;Node32 -->
<g id="edge32" class="edge"><title>Node7&#45;&gt;Node32</title>
<path fill="none" stroke="midnightblue" d="M1078.17,-119.709C1188.01,-116.395 1461.76,-105.752 1700.5,-76.0404"/>
<polygon fill="midnightblue" stroke="midnightblue" points="1701.28,-79.4698 1710.77,-74.7483 1700.41,-72.5246 1701.28,-79.4698"/>
</g>
<!-- Node33 -->
<g id="node33" class="node"><title>Node33</title>
<polygon fill="none" stroke="#bfbfbf" points="1807.5,-56.5 1807.5,-75.5 1880.5,-75.5 1880.5,-56.5 1807.5,-56.5"/>
<text text-anchor="middle" x="1844" y="-63.5" font-family="Helvetica,sans-Serif" font-size="10.00">ext/hash_set</text>
</g>
<!-- Node7&#45;&gt;Node33 -->
<g id="edge33" class="edge"><title>Node7&#45;&gt;Node33</title>
<path fill="none" stroke="midnightblue" d="M1078.24,-120.415C1199.03,-118.488 1519.71,-110.398 1797.15,-75.9104"/>
<polygon fill="midnightblue" stroke="midnightblue" points="1797.93,-79.34 1807.41,-74.6197 1797.06,-72.3947 1797.93,-79.34"/>
</g>
<!-- Node34 -->
<g id="node34" class="node"><title>Node34</title>
<polygon fill="none" stroke="#bfbfbf" points="1898.5,-56.5 1898.5,-75.5 1969.5,-75.5 1969.5,-56.5 1898.5,-56.5"/>
<text text-anchor="middle" x="1934" y="-63.5" font-family="Helvetica,sans-Serif" font-size="10.00">sys/param.h</text>
</g>
<!-- Node7&#45;&gt;Node34 -->
<g id="edge34" class="edge"><title>Node7&#45;&gt;Node34</title>
<path fill="none" stroke="midnightblue" d="M1078.19,-120.918C1208.64,-120.168 1574.32,-114.61 1888.02,-75.9161"/>
<polygon fill="midnightblue" stroke="midnightblue" points="1888.73,-79.3547 1898.22,-74.6439 1887.86,-72.4086 1888.73,-79.3547"/>
</g>
<!-- Node35 -->
<g id="node35" class="node"><title>Node35</title>
<polygon fill="none" stroke="#bfbfbf" points="1988,-56.5 1988,-75.5 2154,-75.5 2154,-56.5 1988,-56.5"/>
<text text-anchor="middle" x="2071" y="-63.5" font-family="Helvetica,sans-Serif" font-size="10.00">CoreFoundation/CoreFoundation.h</text>
</g>
<!-- Node7&#45;&gt;Node35 -->
<g id="edge35" class="edge"><title>Node7&#45;&gt;Node35</title>
<path fill="none" stroke="midnightblue" d="M1078.2,-119.52C1217.39,-115.149 1626.07,-101.061 1977.74,-75.9758"/>
<polygon fill="midnightblue" stroke="midnightblue" points="1978.14,-79.4561 1987.86,-75.2494 1977.64,-72.4741 1978.14,-79.4561"/>
</g>
<!-- Node36 -->
<g id="node36" class="node"><title>Node36</title>
<polygon fill="none" stroke="#bfbfbf" points="2172,-56.5 2172,-75.5 2296,-75.5 2296,-56.5 2172,-56.5"/>
<text text-anchor="middle" x="2234" y="-63.5" font-family="Helvetica,sans-Serif" font-size="10.00">emscripten/emscripten.h</text>
</g>
<!-- Node7&#45;&gt;Node36 -->
<g id="edge36" class="edge"><title>Node7&#45;&gt;Node36</title>
<path fill="none" stroke="midnightblue" d="M1078,-120.567C1234.44,-118.865 1736.11,-110.927 2161.66,-76.0364"/>
<polygon fill="midnightblue" stroke="midnightblue" points="2162.02,-79.5187 2171.69,-75.2072 2161.44,-72.5425 2162.02,-79.5187"/>
</g>
<!-- Node38 -->
<g id="node38" class="node"><title>Node38</title>
<g id="a_node38"><a xlink:href="_ogre_memory_allocated_object_8h.html" target="_top" xlink:title="OgreMemoryAllocatedObject.h">
<polygon fill="none" stroke="black" points="2352,-56.5 2352,-75.5 2502,-75.5 2502,-56.5 2352,-56.5"/>
<text text-anchor="middle" x="2427" y="-63.5" font-family="Helvetica,sans-Serif" font-size="10.00">OgreMemoryAllocatedObject.h</text>
</a>
</g>
</g>
<!-- Node37&#45;&gt;Node38 -->
<g id="edge38" class="edge"><title>Node37&#45;&gt;Node38</title>
<path fill="none" stroke="midnightblue" d="M2427,-112.083C2427,-105.006 2427,-94.8611 2427,-85.9865"/>
<polygon fill="midnightblue" stroke="midnightblue" points="2430.5,-85.751 2427,-75.7511 2423.5,-85.7511 2430.5,-85.751"/>
</g>
<!-- Node39 -->
<g id="node39" class="node"><title>Node39</title>
<g id="a_node39"><a xlink:href="_ogre_header_prefix_8h.html" target="_top" xlink:title="OgreHeaderPrefix.h">
<polygon fill="none" stroke="black" points="2272.5,-0.5 2272.5,-19.5 2375.5,-19.5 2375.5,-0.5 2272.5,-0.5"/>
<text text-anchor="middle" x="2324" y="-7.5" font-family="Helvetica,sans-Serif" font-size="10.00">OgreHeaderPrefix.h</text>
</a>
</g>
</g>
<!-- Node37&#45;&gt;Node39 -->
<g id="edge42" class="edge"><title>Node37&#45;&gt;Node39</title>
<path fill="none" stroke="midnightblue" d="M2399.08,-112.431C2380.67,-105.42 2357.39,-93.7285 2343,-76 2332.24,-62.7452 2327.58,-43.6181 2325.55,-29.5427"/>
<polygon fill="midnightblue" stroke="midnightblue" points="2329.02,-29.0929 2324.43,-19.5464 2322.07,-29.8748 2329.02,-29.0929"/>
</g>
<!-- Node40 -->
<g id="node40" class="node"><title>Node40</title>
<g id="a_node40"><a xlink:href="_ogre_header_suffix_8h.html" target="_top" xlink:title="OgreHeaderSuffix.h">
<polygon fill="none" stroke="black" points="2478.5,-0.5 2478.5,-19.5 2581.5,-19.5 2581.5,-0.5 2478.5,-0.5"/>
<text text-anchor="middle" x="2530" y="-7.5" font-family="Helvetica,sans-Serif" font-size="10.00">OgreHeaderSuffix.h</text>
</a>
</g>
</g>
<!-- Node37&#45;&gt;Node40 -->
<g id="edge43" class="edge"><title>Node37&#45;&gt;Node40</title>
<path fill="none" stroke="midnightblue" d="M2454.92,-112.431C2473.33,-105.42 2496.61,-93.7285 2511,-76 2521.76,-62.7452 2526.42,-43.6181 2528.45,-29.5427"/>
<polygon fill="midnightblue" stroke="midnightblue" points="2531.93,-29.8748 2529.57,-19.5464 2524.98,-29.0929 2531.93,-29.8748"/>
</g>
<!-- Node38&#45;&gt;Node3 -->
<g id="edge39" class="edge"><title>Node38&#45;&gt;Node3</title>
<path fill="none" stroke="midnightblue" d="M2399.41,-75.6504C2381.22,-82.6983 2358.21,-94.3997 2344,-112 2333.28,-125.282 2328.61,-144.405 2326.57,-158.472"/>
<polygon fill="midnightblue" stroke="midnightblue" points="2323.09,-158.131 2325.44,-168.462 2330.04,-158.92 2323.09,-158.131"/>
</g>
<!-- Node38&#45;&gt;Node39 -->
<g id="edge40" class="edge"><title>Node38&#45;&gt;Node39</title>
<path fill="none" stroke="midnightblue" d="M2410.45,-56.324C2394.01,-47.7034 2368.57,-34.3643 2349.53,-24.3855"/>
<polygon fill="midnightblue" stroke="midnightblue" points="2350.99,-21.198 2340.51,-19.6545 2347.74,-27.3977 2350.99,-21.198"/>
</g>
<!-- Node38&#45;&gt;Node40 -->
<g id="edge41" class="edge"><title>Node38&#45;&gt;Node40</title>
<path fill="none" stroke="midnightblue" d="M2443.55,-56.324C2459.99,-47.7034 2485.43,-34.3643 2504.47,-24.3855"/>
<polygon fill="midnightblue" stroke="midnightblue" points="2506.26,-27.3977 2513.49,-19.6545 2503.01,-21.198 2506.26,-27.3977"/>
</g>
<!-- Node41&#45;&gt;Node3 -->
<g id="edge45" class="edge"><title>Node41&#45;&gt;Node3</title>
<path fill="none" stroke="midnightblue" d="M2268.46,-280.378C2250.99,-268.124 2224.25,-244.84 2237,-224 2246.51,-208.46 2263.26,-198.07 2279.62,-191.231"/>
<polygon fill="midnightblue" stroke="midnightblue" points="2281.05,-194.433 2289.15,-187.603 2278.56,-187.891 2281.05,-194.433"/>
</g>
<!-- Node41&#45;&gt;Node39 -->
<g id="edge52" class="edge"><title>Node41&#45;&gt;Node39</title>
<path fill="none" stroke="midnightblue" d="M2232.48,-281.007C2229.28,-280.626 2226.1,-280.284 2223,-280 1723.52,-234.099 1596.13,-265.333 1095,-244 973.229,-238.816 0,-300.881 0,-179 0,-179 0,-179 0,-121 0,-86.6051 11.9556,-72.7435 42,-56 91.8737,-28.2059 1902.57,-13.9774 2262.25,-11.422"/>
<polygon fill="midnightblue" stroke="midnightblue" points="2262.49,-14.9205 2272.47,-11.3498 2262.44,-7.92071 2262.49,-14.9205"/>
</g>
<!-- Node41&#45;&gt;Node40 -->
<g id="edge53" class="edge"><title>Node41&#45;&gt;Node40</title>
<path fill="none" stroke="midnightblue" d="M2331.79,-282.172C2425.12,-266.163 2621.13,-216.311 2667,-76 2678.85,-39.7461 2633.41,-23.7085 2591.72,-16.6165"/>
<polygon fill="midnightblue" stroke="midnightblue" points="2592.22,-13.1518 2581.8,-15.0775 2591.15,-20.0691 2592.22,-13.1518"/>
</g>
<!-- Node42 -->
<g id="node42" class="node"><title>Node42</title>
<g id="a_node42"><a xlink:href="_ogre_log_8h.html" target="_top" xlink:title="OgreLog.h">
<polygon fill="none" stroke="red" points="1104,-224.5 1104,-243.5 1166,-243.5 1166,-224.5 1104,-224.5"/>
<text text-anchor="middle" x="1135" y="-231.5" font-family="Helvetica,sans-Serif" font-size="10.00">OgreLog.h</text>
</a>
</g>
</g>
<!-- Node41&#45;&gt;Node42 -->
<g id="edge46" class="edge"><title>Node41&#45;&gt;Node42</title>
<path fill="none" stroke="midnightblue" d="M2232.47,-281.041C2229.27,-280.652 2226.09,-280.299 2223,-280 1816.37,-240.697 1321,-235.683 1176.43,-235.074"/>
<polygon fill="midnightblue" stroke="midnightblue" points="1176.26,-231.574 1166.24,-235.037 1176.23,-238.574 1176.26,-231.574"/>
</g>
<!-- Node43 -->
<g id="node43" class="node"><title>Node43</title>
<g id="a_node43"><a xlink:href="_ogre_singleton_8h.html" target="_top" xlink:title="OgreSingleton.h">
<polygon fill="none" stroke="black" points="2246,-224.5 2246,-243.5 2332,-243.5 2332,-224.5 2246,-224.5"/>
<text text-anchor="middle" x="2289" y="-231.5" font-family="Helvetica,sans-Serif" font-size="10.00">OgreSingleton.h</text>
</a>
</g>
</g>
<!-- Node41&#45;&gt;Node43 -->
<g id="edge50" class="edge"><title>Node41&#45;&gt;Node43</title>
<path fill="none" stroke="midnightblue" d="M2283.16,-280.083C2284.08,-272.927 2285.42,-262.635 2286.58,-253.691"/>
<polygon fill="midnightblue" stroke="midnightblue" points="2290.05,-254.118 2287.87,-243.751 2283.11,-253.218 2290.05,-254.118"/>
</g>
<!-- Node42&#45;&gt;Node3 -->
<g id="edge47" class="edge"><title>Node42&#45;&gt;Node3</title>
<path fill="none" stroke="midnightblue" d="M1166.22,-231.583C1325.24,-224.367 2046.15,-191.654 2263.07,-181.81"/>
<polygon fill="midnightblue" stroke="midnightblue" points="2263.48,-185.295 2273.31,-181.345 2263.17,-178.302 2263.48,-185.295"/>
</g>
<!-- Node42&#45;&gt;Node39 -->
<g id="edge48" class="edge"><title>Node42&#45;&gt;Node39</title>
<path fill="none" stroke="midnightblue" d="M1103.8,-232.893C931.11,-232.152 99.0003,-226.585 62,-188 21.3948,-145.656 20.931,-97.8941 62,-56 101.608,-15.5959 1903.34,-11.4691 2262.21,-11.0479"/>
<polygon fill="midnightblue" stroke="midnightblue" points="2262.41,-14.5477 2272.41,-11.0364 2262.4,-7.54774 2262.41,-14.5477"/>
</g>
<!-- Node42&#45;&gt;Node40 -->
<g id="edge49" class="edge"><title>Node42&#45;&gt;Node40</title>
<path fill="none" stroke="midnightblue" d="M1103.86,-232.593C915.949,-229.635 -53.6418,-206.998 95,-56 139.611,-10.6821 2320.46,-22.4569 2384,-20 2411.67,-18.9302 2442.25,-17.1393 2468.25,-15.4354"/>
<polygon fill="midnightblue" stroke="midnightblue" points="2468.59,-18.9201 2478.34,-14.7634 2468.13,-11.9356 2468.59,-18.9201"/>
</g>
<!-- Node43&#45;&gt;Node3 -->
<g id="edge51" class="edge"><title>Node43&#45;&gt;Node3</title>
<path fill="none" stroke="midnightblue" d="M2294.94,-224.083C2299.98,-216.534 2307.34,-205.495 2313.51,-196.23"/>
<polygon fill="midnightblue" stroke="midnightblue" points="2316.53,-198.013 2319.17,-187.751 2310.71,-194.13 2316.53,-198.013"/>
</g>
<!-- Node44&#45;&gt;Node3 -->
<g id="edge55" class="edge"><title>Node44&#45;&gt;Node3</title>
<path fill="none" stroke="midnightblue" d="M2701.67,-228.489C2632.26,-219.37 2474.42,-198.632 2386.7,-187.106"/>
<polygon fill="midnightblue" stroke="midnightblue" points="2386.99,-183.614 2376.61,-185.781 2386.07,-190.554 2386.99,-183.614"/>
</g>
<!-- Node44&#45;&gt;Node39 -->
<g id="edge56" class="edge"><title>Node44&#45;&gt;Node39</title>
<path fill="none" stroke="midnightblue" d="M2734.2,-224.138C2727.7,-194.596 2702.48,-98.9309 2641,-56 2620.5,-41.6835 2472.21,-25.261 2385.9,-16.7658"/>
<polygon fill="midnightblue" stroke="midnightblue" points="2385.98,-13.2577 2375.69,-15.7697 2385.3,-20.2246 2385.98,-13.2577"/>
</g>
<!-- Node44&#45;&gt;Node40 -->
<g id="edge57" class="edge"><title>Node44&#45;&gt;Node40</title>
<path fill="none" stroke="midnightblue" d="M2737.85,-224.258C2743.32,-195.889 2756.33,-105.381 2712,-56 2695.95,-38.1178 2637.86,-25.8928 2591.57,-18.7484"/>
<polygon fill="midnightblue" stroke="midnightblue" points="2592,-15.2739 2581.59,-17.2576 2590.96,-22.197 2592,-15.2739"/>
</g>
<!-- Node47 -->
<g id="node47" class="node"><title>Node47</title>
<g id="a_node47"><a xlink:href="_ogre_g_l_support_prerequisites_8h.html" target="_top" xlink:title="OgreGLSupportPrerequisites.h">
<polygon fill="none" stroke="black" points="2361.5,-392.5 2361.5,-411.5 2510.5,-411.5 2510.5,-392.5 2361.5,-392.5"/>
<text text-anchor="middle" x="2436" y="-399.5" font-family="Helvetica,sans-Serif" font-size="10.00">OgreGLSupportPrerequisites.h</text>
</a>
</g>
</g>
<!-- Node46&#45;&gt;Node47 -->
<g id="edge60" class="edge"><title>Node46&#45;&gt;Node47</title>
<path fill="none" stroke="midnightblue" d="M2424.31,-448.083C2426.17,-440.927 2428.84,-430.635 2431.15,-421.691"/>
<polygon fill="midnightblue" stroke="midnightblue" points="2434.61,-422.309 2433.73,-411.751 2427.83,-420.553 2434.61,-422.309"/>
</g>
<!-- Node47&#45;&gt;Node3 -->
<g id="edge61" class="edge"><title>Node47&#45;&gt;Node3</title>
<path fill="none" stroke="midnightblue" d="M2432.8,-392.231C2423.05,-365.918 2392.22,-285.655 2357,-224 2351.41,-214.219 2344.21,-203.937 2338.06,-195.674"/>
<polygon fill="midnightblue" stroke="midnightblue" points="2340.76,-193.448 2331.92,-187.619 2335.2,-197.693 2340.76,-193.448"/>
</g>
<!-- Node49 -->
<g id="node49" class="node"><title>Node49</title>
<g id="a_node49"><a xlink:href="_ogre_na_cl_g_l_support_8h.html" target="_top" xlink:title="OgreNaClGLSupport.h">
<polygon fill="none" stroke="black" points="2190.5,-448.5 2190.5,-467.5 2305.5,-467.5 2305.5,-448.5 2190.5,-448.5"/>
<text text-anchor="middle" x="2248" y="-455.5" font-family="Helvetica,sans-Serif" font-size="10.00">OgreNaClGLSupport.h</text>
</a>
</g>
</g>
<!-- Node48&#45;&gt;Node49 -->
<g id="edge63" class="edge"><title>Node48&#45;&gt;Node49</title>
<path fill="none" stroke="midnightblue" d="M2250.5,-504.083C2250.11,-497.006 2249.55,-486.861 2249.05,-477.986"/>
<polygon fill="midnightblue" stroke="midnightblue" points="2252.54,-477.542 2248.49,-467.751 2245.55,-477.93 2252.54,-477.542"/>
</g>
<!-- Node50 -->
<g id="node50" class="node"><title>Node50</title>
<g id="a_node50"><a xlink:href="_ogre_g_l_e_s2_support_8h.html" target="_top" xlink:title="OgreGLES2Support.h">
<polygon fill="none" stroke="red" points="2193.5,-392.5 2193.5,-411.5 2304.5,-411.5 2304.5,-392.5 2193.5,-392.5"/>
<text text-anchor="middle" x="2249" y="-399.5" font-family="Helvetica,sans-Serif" font-size="10.00">OgreGLES2Support.h</text>
</a>
</g>
</g>
<!-- Node49&#45;&gt;Node50 -->
<g id="edge64" class="edge"><title>Node49&#45;&gt;Node50</title>
<path fill="none" stroke="midnightblue" d="M2248.17,-448.083C2248.3,-441.006 2248.48,-430.861 2248.65,-421.986"/>
<polygon fill="midnightblue" stroke="midnightblue" points="2252.15,-421.814 2248.84,-411.751 2245.15,-421.685 2252.15,-421.814"/>
</g>
<!-- Node50&#45;&gt;Node2 -->
<g id="edge65" class="edge"><title>Node50&#45;&gt;Node2</title>
<path fill="none" stroke="midnightblue" d="M2258.48,-392.324C2267.2,-384.341 2280.34,-372.313 2290.9,-362.653"/>
<polygon fill="midnightblue" stroke="midnightblue" points="2293.33,-365.167 2298.35,-355.834 2288.61,-360.004 2293.33,-365.167"/>
</g>
</g>
</svg>
