<?xml version="1.0" encoding="UTF-8" standalone="no"?>
<!DOCTYPE svg PUBLIC "-//W3C//DTD SVG 1.1//EN"
 "http://www.w3.org/Graphics/SVG/1.1/DTD/svg11.dtd">
<!-- Generated by graphviz version 2.38.0 (20140413.2041)
 -->
<!-- Title: OgreShaderFunctionAtom.h Pages: 1 -->
<svg width="927pt" height="140pt"
 viewBox="0.00 0.00 927.00 140.00" xmlns="http://www.w3.org/2000/svg" xmlns:xlink="http://www.w3.org/1999/xlink">
<g id="graph0" class="graph" transform="scale(1 1) rotate(0) translate(4 136)">
<title>OgreShaderFunctionAtom.h</title>
<!-- Node1 -->
<g id="node1" class="node"><title>Node1</title>
<polygon fill="#bfbfbf" stroke="black" points="558,-112.5 558,-131.5 695,-131.5 695,-112.5 558,-112.5"/>
<text text-anchor="middle" x="626.5" y="-119.5" font-family="Helvetica,sans-Serif" font-size="10.00">OgreShaderFunctionAtom.h</text>
</g>
<!-- Node2 -->
<g id="node2" class="node"><title>Node2</title>
<g id="a_node2"><a xlink:href="_ogre_shader_program_processor_8h.html" target="_top" xlink:title="OgreShaderProgramProcessor.h">
<polygon fill="none" stroke="black" points="417.5,-56.5 417.5,-75.5 575.5,-75.5 575.5,-56.5 417.5,-56.5"/>
<text text-anchor="middle" x="496.5" y="-63.5" font-family="Helvetica,sans-Serif" font-size="10.00">OgreShaderProgramProcessor.h</text>
</a>
</g>
</g>
<!-- Node1&#45;&gt;Node2 -->
<g id="edge1" class="edge"><title>Node1&#45;&gt;Node2</title>
<path fill="none" stroke="midnightblue" d="M596.415,-108.503C572.043,-98.3795 538.36,-84.388 517.003,-75.5164"/>
<polygon fill="midnightblue" stroke="midnightblue" points="595.323,-111.84 605.901,-112.444 598.009,-105.375 595.323,-111.84"/>
</g>
<!-- Node7 -->
<g id="node7" class="node"><title>Node7</title>
<g id="a_node7"><a xlink:href="_ogre_shader_function_8h.html" target="_top" xlink:title="OgreShaderFunction.h">
<polygon fill="none" stroke="black" points="699.5,-56.5 699.5,-75.5 813.5,-75.5 813.5,-56.5 699.5,-56.5"/>
<text text-anchor="middle" x="756.5" y="-63.5" font-family="Helvetica,sans-Serif" font-size="10.00">OgreShaderFunction.h</text>
</a>
</g>
</g>
<!-- Node1&#45;&gt;Node7 -->
<g id="edge6" class="edge"><title>Node1&#45;&gt;Node7</title>
<path fill="none" stroke="midnightblue" d="M656.585,-108.503C680.957,-98.3795 714.64,-84.388 735.997,-75.5164"/>
<polygon fill="midnightblue" stroke="midnightblue" points="654.991,-105.375 647.099,-112.444 657.677,-111.84 654.991,-105.375"/>
</g>
<!-- Node3 -->
<g id="node3" class="node"><title>Node3</title>
<g id="a_node3"><a xlink:href="_ogre_shader_c_g_program_processor_8h.html" target="_top" xlink:title="OgreShaderCGProgramProcessor.h">
<polygon fill="none" stroke="black" points="0,-0.5 0,-19.5 173,-19.5 173,-0.5 0,-0.5"/>
<text text-anchor="middle" x="86.5" y="-7.5" font-family="Helvetica,sans-Serif" font-size="10.00">OgreShaderCGProgramProcessor.h</text>
</a>
</g>
</g>
<!-- Node2&#45;&gt;Node3 -->
<g id="edge2" class="edge"><title>Node2&#45;&gt;Node3</title>
<path fill="none" stroke="midnightblue" d="M421.368,-55.1046C343.945,-44.9074 224.507,-29.1766 151.162,-19.5164"/>
<polygon fill="midnightblue" stroke="midnightblue" points="421.163,-58.6077 431.534,-56.4435 422.077,-51.6676 421.163,-58.6077"/>
</g>
<!-- Node4 -->
<g id="node4" class="node"><title>Node4</title>
<g id="a_node4"><a xlink:href="_ogre_shader_g_l_s_l_e_s_program_processor_8h.html" target="_top" xlink:title="OgreShaderGLSLESProgramProcessor.h">
<polygon fill="none" stroke="black" points="191.5,-0.5 191.5,-19.5 387.5,-19.5 387.5,-0.5 191.5,-0.5"/>
<text text-anchor="middle" x="289.5" y="-7.5" font-family="Helvetica,sans-Serif" font-size="10.00">OgreShaderGLSLESProgramProcessor.h</text>
</a>
</g>
</g>
<!-- Node2&#45;&gt;Node4 -->
<g id="edge3" class="edge"><title>Node2&#45;&gt;Node4</title>
<path fill="none" stroke="midnightblue" d="M453.678,-53.8291C414.594,-43.6333 357.665,-28.7823 322.146,-19.5164"/>
<polygon fill="midnightblue" stroke="midnightblue" points="453.141,-57.3059 463.7,-56.4435 454.908,-50.5326 453.141,-57.3059"/>
</g>
<!-- Node5 -->
<g id="node5" class="node"><title>Node5</title>
<g id="a_node5"><a xlink:href="_ogre_shader_g_l_s_l_program_processor_8h.html" target="_top" xlink:title="OgreShaderGLSLProgramProcessor.h">
<polygon fill="none" stroke="black" points="405.5,-0.5 405.5,-19.5 587.5,-19.5 587.5,-0.5 405.5,-0.5"/>
<text text-anchor="middle" x="496.5" y="-7.5" font-family="Helvetica,sans-Serif" font-size="10.00">OgreShaderGLSLProgramProcessor.h</text>
</a>
</g>
</g>
<!-- Node2&#45;&gt;Node5 -->
<g id="edge4" class="edge"><title>Node2&#45;&gt;Node5</title>
<path fill="none" stroke="midnightblue" d="M496.5,-45.8045C496.5,-36.9102 496.5,-26.7798 496.5,-19.7511"/>
<polygon fill="midnightblue" stroke="midnightblue" points="493,-46.083 496.5,-56.083 500,-46.083 493,-46.083"/>
</g>
<!-- Node6 -->
<g id="node6" class="node"><title>Node6</title>
<g id="a_node6"><a xlink:href="_ogre_shader_h_l_s_l_program_processor_8h.html" target="_top" xlink:title="OgreShaderHLSLProgramProcessor.h">
<polygon fill="none" stroke="black" points="605.5,-0.5 605.5,-19.5 787.5,-19.5 787.5,-0.5 605.5,-0.5"/>
<text text-anchor="middle" x="696.5" y="-7.5" font-family="Helvetica,sans-Serif" font-size="10.00">OgreShaderHLSLProgramProcessor.h</text>
</a>
</g>
</g>
<!-- Node2&#45;&gt;Node6 -->
<g id="edge5" class="edge"><title>Node2&#45;&gt;Node6</title>
<path fill="none" stroke="midnightblue" d="M537.874,-53.8291C575.636,-43.6333 630.64,-28.7823 664.958,-19.5164"/>
<polygon fill="midnightblue" stroke="midnightblue" points="536.933,-50.4578 528.191,-56.4435 538.757,-57.2158 536.933,-50.4578"/>
</g>
<!-- Node8 -->
<g id="node8" class="node"><title>Node8</title>
<g id="a_node8"><a xlink:href="_ogre_shader_program_8h.html" target="_top" xlink:title="OgreShaderProgram.h">
<polygon fill="none" stroke="black" points="806,-0.5 806,-19.5 919,-19.5 919,-0.5 806,-0.5"/>
<text text-anchor="middle" x="862.5" y="-7.5" font-family="Helvetica,sans-Serif" font-size="10.00">OgreShaderProgram.h</text>
</a>
</g>
</g>
<!-- Node7&#45;&gt;Node8 -->
<g id="edge7" class="edge"><title>Node7&#45;&gt;Node8</title>
<path fill="none" stroke="midnightblue" d="M782.556,-51.7261C802.184,-41.7271 828.528,-28.3065 845.512,-19.6545"/>
<polygon fill="midnightblue" stroke="midnightblue" points="780.852,-48.666 773.531,-56.324 784.03,-54.9033 780.852,-48.666"/>
</g>
</g>
</svg>
