<?xml version="1.0" encoding="UTF-8" standalone="no"?>
<!DOCTYPE svg PUBLIC "-//W3C//DTD SVG 1.1//EN"
 "http://www.w3.org/Graphics/SVG/1.1/DTD/svg11.dtd">
<!-- Generated by graphviz version 2.38.0 (20140413.2041)
 -->
<!-- Title: OgreGLESHardwareVertexBuffer.h Pages: 1 -->
<svg width="2276pt" height="476pt"
 viewBox="0.00 0.00 2275.50 476.00" xmlns="http://www.w3.org/2000/svg" xmlns:xlink="http://www.w3.org/1999/xlink">
<g id="graph0" class="graph" transform="scale(1 1) rotate(0) translate(4 472)">
<title>OgreGLESHardwareVertexBuffer.h</title>
<!-- Node1 -->
<g id="node1" class="node"><title>Node1</title>
<polygon fill="#bfbfbf" stroke="black" points="363.5,-448.5 363.5,-467.5 532.5,-467.5 532.5,-448.5 363.5,-448.5"/>
<text text-anchor="middle" x="448" y="-455.5" font-family="Helvetica,sans-Serif" font-size="10.00">OgreGLESHardwareVertexBuffer.h</text>
</g>
<!-- Node2 -->
<g id="node2" class="node"><title>Node2</title>
<g id="a_node2"><a xlink:href="_ogre_g_l_e_s_prerequisites_8h.html" target="_top" xlink:title="OgreGLESPrerequisites.h">
<polygon fill="none" stroke="black" points="278.5,-280.5 278.5,-299.5 407.5,-299.5 407.5,-280.5 278.5,-280.5"/>
<text text-anchor="middle" x="343" y="-287.5" font-family="Helvetica,sans-Serif" font-size="10.00">OgreGLESPrerequisites.h</text>
</a>
</g>
</g>
<!-- Node1&#45;&gt;Node2 -->
<g id="edge1" class="edge"><title>Node1&#45;&gt;Node2</title>
<path fill="none" stroke="midnightblue" d="M416.565,-448.43C397.765,-441.646 375.063,-430.211 362,-412 340.074,-381.432 339.378,-335.33 341.041,-309.76"/>
<polygon fill="midnightblue" stroke="midnightblue" points="344.547,-309.846 341.904,-299.586 337.572,-309.255 344.547,-309.846"/>
</g>
<!-- Node43 -->
<g id="node43" class="node"><title>Node43</title>
<g id="a_node43"><a xlink:href="_ogre_hardware_vertex_buffer_8h.html" target="_top" xlink:title="OgreHardwareVertexBuffer.h">
<polygon fill="none" stroke="black" points="511.5,-336.5 511.5,-355.5 654.5,-355.5 654.5,-336.5 511.5,-336.5"/>
<text text-anchor="middle" x="583" y="-343.5" font-family="Helvetica,sans-Serif" font-size="10.00">OgreHardwareVertexBuffer.h</text>
</a>
</g>
</g>
<!-- Node1&#45;&gt;Node43 -->
<g id="edge53" class="edge"><title>Node1&#45;&gt;Node43</title>
<path fill="none" stroke="midnightblue" d="M470.478,-448.499C488.86,-440.821 514.852,-428.241 534,-412 550.112,-398.334 564.116,-378.462 572.98,-364.293"/>
<polygon fill="midnightblue" stroke="midnightblue" points="576.091,-365.912 578.258,-355.541 570.097,-362.297 576.091,-365.912"/>
</g>
<!-- Node49 -->
<g id="node49" class="node"><title>Node49</title>
<g id="a_node49"><a xlink:href="_ogre_g_l_e_s_managed_resource_8h.html" target="_top" xlink:title="OgreGLESManagedResource.h">
<polygon fill="none" stroke="black" points="371,-392.5 371,-411.5 525,-411.5 525,-392.5 371,-392.5"/>
<text text-anchor="middle" x="448" y="-399.5" font-family="Helvetica,sans-Serif" font-size="10.00">OgreGLESManagedResource.h</text>
</a>
</g>
</g>
<!-- Node1&#45;&gt;Node49 -->
<g id="edge70" class="edge"><title>Node1&#45;&gt;Node49</title>
<path fill="none" stroke="midnightblue" d="M448,-448.083C448,-441.006 448,-430.861 448,-421.986"/>
<polygon fill="midnightblue" stroke="midnightblue" points="451.5,-421.751 448,-411.751 444.5,-421.751 451.5,-421.751"/>
</g>
<!-- Node3 -->
<g id="node3" class="node"><title>Node3</title>
<g id="a_node3"><a xlink:href="_ogre_prerequisites_8h.html" target="_top" xlink:title="OgrePrerequisites.h">
<polygon fill="none" stroke="black" points="592.5,-112.5 592.5,-131.5 695.5,-131.5 695.5,-112.5 592.5,-112.5"/>
<text text-anchor="middle" x="644" y="-119.5" font-family="Helvetica,sans-Serif" font-size="10.00">OgrePrerequisites.h</text>
</a>
</g>
</g>
<!-- Node2&#45;&gt;Node3 -->
<g id="edge2" class="edge"><title>Node2&#45;&gt;Node3</title>
<path fill="none" stroke="midnightblue" d="M365.991,-280.416C431.205,-256.064 612.697,-188.277 613,-188 626.514,-175.614 634.717,-156.093 639.26,-141.674"/>
<polygon fill="midnightblue" stroke="midnightblue" points="642.686,-142.42 642.047,-131.844 635.952,-140.51 642.686,-142.42"/>
</g>
<!-- Node37 -->
<g id="node37" class="node"><title>Node37</title>
<g id="a_node37"><a xlink:href="_ogre_log_manager_8h.html" target="_top" xlink:title="OgreLogManager.h">
<polygon fill="none" stroke="black" points="292.5,-224.5 292.5,-243.5 391.5,-243.5 391.5,-224.5 292.5,-224.5"/>
<text text-anchor="middle" x="342" y="-231.5" font-family="Helvetica,sans-Serif" font-size="10.00">OgreLogManager.h</text>
</a>
</g>
</g>
<!-- Node2&#45;&gt;Node37 -->
<g id="edge37" class="edge"><title>Node2&#45;&gt;Node37</title>
<path fill="none" stroke="midnightblue" d="M342.835,-280.083C342.704,-273.006 342.516,-262.861 342.352,-253.986"/>
<polygon fill="midnightblue" stroke="midnightblue" points="345.847,-253.685 342.162,-243.751 338.848,-253.814 345.847,-253.685"/>
</g>
<!-- Node40 -->
<g id="node40" class="node"><title>Node40</title>
<g id="a_node40"><a xlink:href="_ogre_math_8h.html" target="_top" xlink:title="OgreMath.h">
<polygon fill="none" stroke="black" points="260,-168.5 260,-187.5 328,-187.5 328,-168.5 260,-168.5"/>
<text text-anchor="middle" x="294" y="-175.5" font-family="Helvetica,sans-Serif" font-size="10.00">OgreMath.h</text>
</a>
</g>
</g>
<!-- Node2&#45;&gt;Node40 -->
<g id="edge47" class="edge"><title>Node2&#45;&gt;Node40</title>
<path fill="none" stroke="midnightblue" d="M360.492,-280.378C382.171,-268.49 414.579,-246.028 400,-224 392.114,-212.084 359.985,-199.445 333.146,-190.606"/>
<polygon fill="midnightblue" stroke="midnightblue" points="334.143,-187.25 323.551,-187.529 332.005,-193.916 334.143,-187.25"/>
</g>
<!-- Node41 -->
<g id="node41" class="node"><title>Node41</title>
<polygon fill="none" stroke="#bfbfbf" points="28.5,-224.5 28.5,-243.5 135.5,-243.5 135.5,-224.5 28.5,-224.5"/>
<text text-anchor="middle" x="82" y="-231.5" font-family="Helvetica,sans-Serif" font-size="10.00">OpenGLES/ES1/gl.h</text>
</g>
<!-- Node2&#45;&gt;Node41 -->
<g id="edge51" class="edge"><title>Node2&#45;&gt;Node41</title>
<path fill="none" stroke="midnightblue" d="M301.644,-280.444C255.922,-270.984 182.236,-255.738 132.978,-245.547"/>
<polygon fill="midnightblue" stroke="midnightblue" points="133.664,-242.115 123.163,-243.516 132.246,-248.97 133.664,-242.115"/>
</g>
<!-- Node42 -->
<g id="node42" class="node"><title>Node42</title>
<polygon fill="none" stroke="#bfbfbf" points="154,-224.5 154,-243.5 274,-243.5 274,-224.5 154,-224.5"/>
<text text-anchor="middle" x="214" y="-231.5" font-family="Helvetica,sans-Serif" font-size="10.00">OpenGLES/ES1/glext.h</text>
</g>
<!-- Node2&#45;&gt;Node42 -->
<g id="edge52" class="edge"><title>Node2&#45;&gt;Node42</title>
<path fill="none" stroke="midnightblue" d="M322.56,-280.444C301.33,-271.557 267.901,-257.563 243.745,-247.451"/>
<polygon fill="midnightblue" stroke="midnightblue" points="244.921,-244.149 234.345,-243.516 242.218,-250.606 244.921,-244.149"/>
</g>
<!-- Node4 -->
<g id="node4" class="node"><title>Node4</title>
<g id="a_node4"><a xlink:href="_ogre_platform_8h.html" target="_top" xlink:title="OgrePlatform.h">
<polygon fill="none" stroke="black" points="575.5,-56.5 575.5,-75.5 658.5,-75.5 658.5,-56.5 575.5,-56.5"/>
<text text-anchor="middle" x="617" y="-63.5" font-family="Helvetica,sans-Serif" font-size="10.00">OgrePlatform.h</text>
</a>
</g>
</g>
<!-- Node3&#45;&gt;Node4 -->
<g id="edge3" class="edge"><title>Node3&#45;&gt;Node4</title>
<path fill="none" stroke="midnightblue" d="M639.541,-112.083C635.846,-104.691 630.477,-93.9533 625.906,-84.8111"/>
<polygon fill="midnightblue" stroke="midnightblue" points="628.978,-83.1301 621.376,-75.7511 622.717,-86.2606 628.978,-83.1301"/>
</g>
<!-- Node6 -->
<g id="node6" class="node"><title>Node6</title>
<polygon fill="none" stroke="#bfbfbf" points="2226.5,-0.5 2226.5,-19.5 2267.5,-19.5 2267.5,-0.5 2226.5,-0.5"/>
<text text-anchor="middle" x="2247" y="-7.5" font-family="Helvetica,sans-Serif" font-size="10.00">string</text>
</g>
<!-- Node3&#45;&gt;Node6 -->
<g id="edge5" class="edge"><title>Node3&#45;&gt;Node6</title>
<path fill="none" stroke="midnightblue" d="M695.504,-119.336C929.499,-111.526 1894.52,-76.5774 2216,-19.9417"/>
<polygon fill="midnightblue" stroke="midnightblue" points="2217.02,-23.3131 2226.24,-18.0891 2215.78,-16.4249 2217.02,-23.3131"/>
</g>
<!-- Node7 -->
<g id="node7" class="node"><title>Node7</title>
<g id="a_node7"><a xlink:href="_ogre_std_headers_8h.html" target="_top" xlink:title="OgreStdHeaders.h">
<polygon fill="none" stroke="red" points="1232,-56.5 1232,-75.5 1330,-75.5 1330,-56.5 1232,-56.5"/>
<text text-anchor="middle" x="1281" y="-63.5" font-family="Helvetica,sans-Serif" font-size="10.00">OgreStdHeaders.h</text>
</a>
</g>
</g>
<!-- Node3&#45;&gt;Node7 -->
<g id="edge6" class="edge"><title>Node3&#45;&gt;Node7</title>
<path fill="none" stroke="midnightblue" d="M695.589,-116.627C812.553,-106.711 1097.34,-82.5691 1221.49,-72.0444"/>
<polygon fill="midnightblue" stroke="midnightblue" points="1221.91,-75.522 1231.58,-71.1897 1221.32,-68.547 1221.91,-75.522"/>
</g>
<!-- Node34 -->
<g id="node34" class="node"><title>Node34</title>
<g id="a_node34"><a xlink:href="_ogre_memory_allocator_config_8h.html" target="_top" xlink:title="This file configures Ogre&#39;s memory allocators. ">
<polygon fill="none" stroke="red" points="256,-56.5 256,-75.5 404,-75.5 404,-56.5 256,-56.5"/>
<text text-anchor="middle" x="330" y="-63.5" font-family="Helvetica,sans-Serif" font-size="10.00">OgreMemoryAllocatorConfig.h</text>
</a>
</g>
</g>
<!-- Node3&#45;&gt;Node34 -->
<g id="edge34" class="edge"><title>Node3&#45;&gt;Node34</title>
<path fill="none" stroke="midnightblue" d="M594.246,-112.444C538.665,-102.885 448.736,-87.4195 389.484,-77.2298"/>
<polygon fill="midnightblue" stroke="midnightblue" points="389.97,-73.762 379.521,-75.5164 388.784,-80.6607 389.97,-73.762"/>
</g>
<!-- Node5 -->
<g id="node5" class="node"><title>Node5</title>
<g id="a_node5"><a xlink:href="_ogre_config_8h.html" target="_top" xlink:title="OgreConfig.h">
<polygon fill="none" stroke="red" points="400,-0.5 400,-19.5 474,-19.5 474,-0.5 400,-0.5"/>
<text text-anchor="middle" x="437" y="-7.5" font-family="Helvetica,sans-Serif" font-size="10.00">OgreConfig.h</text>
</a>
</g>
</g>
<!-- Node4&#45;&gt;Node5 -->
<g id="edge4" class="edge"><title>Node4&#45;&gt;Node5</title>
<path fill="none" stroke="midnightblue" d="M588.478,-56.4435C557.934,-47.2801 509.292,-32.6876 475.397,-22.5192"/>
<polygon fill="midnightblue" stroke="midnightblue" points="475.972,-19.0376 465.388,-19.5164 473.961,-25.7424 475.972,-19.0376"/>
</g>
<!-- Node7&#45;&gt;Node6 -->
<g id="edge16" class="edge"><title>Node7&#45;&gt;Node6</title>
<path fill="none" stroke="midnightblue" d="M1330.08,-64.2788C1494.5,-61.6115 2025.75,-50.8977 2216.35,-19.8183"/>
<polygon fill="midnightblue" stroke="midnightblue" points="2216.98,-23.2615 2226.25,-18.1304 2215.8,-16.3611 2216.98,-23.2615"/>
</g>
<!-- Node8 -->
<g id="node8" class="node"><title>Node8</title>
<polygon fill="none" stroke="#bfbfbf" points="1844.5,-0.5 1844.5,-19.5 1893.5,-19.5 1893.5,-0.5 1844.5,-0.5"/>
<text text-anchor="middle" x="1869" y="-7.5" font-family="Helvetica,sans-Serif" font-size="10.00">cassert</text>
</g>
<!-- Node7&#45;&gt;Node8 -->
<g id="edge7" class="edge"><title>Node7&#45;&gt;Node8</title>
<path fill="none" stroke="midnightblue" d="M1330.01,-64.0693C1425.56,-61.5978 1643.43,-52.7413 1834.31,-20.0093"/>
<polygon fill="midnightblue" stroke="midnightblue" points="1834.99,-23.4437 1844.25,-18.2803 1833.79,-16.5474 1834.99,-23.4437"/>
</g>
<!-- Node9 -->
<g id="node9" class="node"><title>Node9</title>
<polygon fill="none" stroke="#bfbfbf" points="1911.5,-0.5 1911.5,-19.5 1954.5,-19.5 1954.5,-0.5 1911.5,-0.5"/>
<text text-anchor="middle" x="1933" y="-7.5" font-family="Helvetica,sans-Serif" font-size="10.00">cstdio</text>
</g>
<!-- Node7&#45;&gt;Node9 -->
<g id="edge8" class="edge"><title>Node7&#45;&gt;Node9</title>
<path fill="none" stroke="midnightblue" d="M1330.25,-65.0845C1434.43,-64.4802 1684.7,-58.8907 1901.22,-19.9674"/>
<polygon fill="midnightblue" stroke="midnightblue" points="1901.97,-23.3884 1911.18,-18.149 1900.71,-16.5023 1901.97,-23.3884"/>
</g>
<!-- Node10 -->
<g id="node10" class="node"><title>Node10</title>
<polygon fill="none" stroke="#bfbfbf" points="1972.5,-0.5 1972.5,-19.5 2017.5,-19.5 2017.5,-0.5 1972.5,-0.5"/>
<text text-anchor="middle" x="1995" y="-7.5" font-family="Helvetica,sans-Serif" font-size="10.00">cstdlib</text>
</g>
<!-- Node7&#45;&gt;Node10 -->
<g id="edge9" class="edge"><title>Node7&#45;&gt;Node10</title>
<path fill="none" stroke="midnightblue" d="M1330.3,-65.3938C1441.75,-65.5045 1721.55,-61.4036 1962.45,-19.9081"/>
<polygon fill="midnightblue" stroke="midnightblue" points="1963.2,-23.3307 1972.45,-18.1609 1961.99,-16.4353 1963.2,-23.3307"/>
</g>
<!-- Node11 -->
<g id="node11" class="node"><title>Node11</title>
<polygon fill="none" stroke="#bfbfbf" points="2035.5,-0.5 2035.5,-19.5 2076.5,-19.5 2076.5,-0.5 2035.5,-0.5"/>
<text text-anchor="middle" x="2056" y="-7.5" font-family="Helvetica,sans-Serif" font-size="10.00">ctime</text>
</g>
<!-- Node7&#45;&gt;Node11 -->
<g id="edge10" class="edge"><title>Node7&#45;&gt;Node11</title>
<path fill="none" stroke="midnightblue" d="M1330.08,-63.5808C1470.64,-59.2776 1873.83,-45.2079 2025.21,-19.8638"/>
<polygon fill="midnightblue" stroke="midnightblue" points="2026,-23.2791 2035.24,-18.0989 2024.79,-16.385 2026,-23.2791"/>
</g>
<!-- Node12 -->
<g id="node12" class="node"><title>Node12</title>
<polygon fill="none" stroke="#bfbfbf" points="2095,-0.5 2095,-19.5 2141,-19.5 2141,-0.5 2095,-0.5"/>
<text text-anchor="middle" x="2118" y="-7.5" font-family="Helvetica,sans-Serif" font-size="10.00">cstring</text>
</g>
<!-- Node7&#45;&gt;Node12 -->
<g id="edge11" class="edge"><title>Node7&#45;&gt;Node12</title>
<path fill="none" stroke="midnightblue" d="M1330.12,-63.6597C1478.37,-59.3976 1920.65,-45.0348 2084.78,-19.7838"/>
<polygon fill="midnightblue" stroke="midnightblue" points="2085.4,-23.2288 2094.71,-18.1834 2084.29,-16.3179 2085.4,-23.2288"/>
</g>
<!-- Node13 -->
<g id="node13" class="node"><title>Node13</title>
<polygon fill="none" stroke="#bfbfbf" points="2159.5,-0.5 2159.5,-19.5 2208.5,-19.5 2208.5,-0.5 2159.5,-0.5"/>
<text text-anchor="middle" x="2184" y="-7.5" font-family="Helvetica,sans-Serif" font-size="10.00">cstdarg</text>
</g>
<!-- Node7&#45;&gt;Node13 -->
<g id="edge12" class="edge"><title>Node7&#45;&gt;Node13</title>
<path fill="none" stroke="midnightblue" d="M1330.04,-63.7965C1486.15,-59.7598 1971.16,-45.579 2149.23,-19.707"/>
<polygon fill="midnightblue" stroke="midnightblue" points="2149.88,-23.1475 2159.24,-18.1871 2148.83,-16.2267 2149.88,-23.1475"/>
</g>
<!-- Node14 -->
<g id="node14" class="node"><title>Node14</title>
<polygon fill="none" stroke="#bfbfbf" points="492,-0.5 492,-19.5 536,-19.5 536,-0.5 492,-0.5"/>
<text text-anchor="middle" x="514" y="-7.5" font-family="Helvetica,sans-Serif" font-size="10.00">cmath</text>
</g>
<!-- Node7&#45;&gt;Node14 -->
<g id="edge13" class="edge"><title>Node7&#45;&gt;Node14</title>
<path fill="none" stroke="midnightblue" d="M1231.91,-65.7288C1114.55,-66.6748 808.63,-64.433 546.31,-19.8294"/>
<polygon fill="midnightblue" stroke="midnightblue" points="546.662,-16.3386 536.213,-18.0877 545.472,-23.2367 546.662,-16.3386"/>
</g>
<!-- Node15 -->
<g id="node15" class="node"><title>Node15</title>
<polygon fill="none" stroke="#bfbfbf" points="554,-0.5 554,-19.5 598,-19.5 598,-0.5 554,-0.5"/>
<text text-anchor="middle" x="576" y="-7.5" font-family="Helvetica,sans-Serif" font-size="10.00">vector</text>
</g>
<!-- Node7&#45;&gt;Node15 -->
<g id="edge14" class="edge"><title>Node7&#45;&gt;Node15</title>
<path fill="none" stroke="midnightblue" d="M1231.93,-65.3317C1121.66,-65.3043 845.946,-60.9203 608.084,-19.8035"/>
<polygon fill="midnightblue" stroke="midnightblue" points="608.67,-16.3528 598.215,-18.0724 607.46,-23.2475 608.67,-16.3528"/>
</g>
<!-- Node16 -->
<g id="node16" class="node"><title>Node16</title>
<polygon fill="none" stroke="#bfbfbf" points="616.5,-0.5 616.5,-19.5 651.5,-19.5 651.5,-0.5 616.5,-0.5"/>
<text text-anchor="middle" x="634" y="-7.5" font-family="Helvetica,sans-Serif" font-size="10.00">map</text>
</g>
<!-- Node7&#45;&gt;Node16 -->
<g id="edge15" class="edge"><title>Node7&#45;&gt;Node16</title>
<path fill="none" stroke="midnightblue" d="M1231.81,-65.5621C1127.79,-65.8657 877.996,-61.9153 661.506,-19.5304"/>
<polygon fill="midnightblue" stroke="midnightblue" points="662.039,-16.0679 651.548,-17.5487 660.673,-22.9333 662.039,-16.0679"/>
</g>
<!-- Node17 -->
<g id="node17" class="node"><title>Node17</title>
<polygon fill="none" stroke="#bfbfbf" points="670,-0.5 670,-19.5 700,-19.5 700,-0.5 670,-0.5"/>
<text text-anchor="middle" x="685" y="-7.5" font-family="Helvetica,sans-Serif" font-size="10.00">set</text>
</g>
<!-- Node7&#45;&gt;Node17 -->
<g id="edge17" class="edge"><title>Node7&#45;&gt;Node17</title>
<path fill="none" stroke="midnightblue" d="M1231.73,-65.7273C1133.5,-66.1907 906.562,-62.318 709.97,-19.5689"/>
<polygon fill="midnightblue" stroke="midnightblue" points="710.56,-16.1149 700.04,-17.3704 709.047,-22.9494 710.56,-16.1149"/>
</g>
<!-- Node18 -->
<g id="node18" class="node"><title>Node18</title>
<polygon fill="none" stroke="#bfbfbf" points="718.5,-0.5 718.5,-19.5 747.5,-19.5 747.5,-0.5 718.5,-0.5"/>
<text text-anchor="middle" x="733" y="-7.5" font-family="Helvetica,sans-Serif" font-size="10.00">list</text>
</g>
<!-- Node7&#45;&gt;Node18 -->
<g id="edge18" class="edge"><title>Node7&#45;&gt;Node18</title>
<path fill="none" stroke="midnightblue" d="M1231.77,-65.4539C1139.62,-65.2997 935.058,-60.2065 757.66,-19.8073"/>
<polygon fill="midnightblue" stroke="midnightblue" points="758.429,-16.3929 747.896,-17.5414 756.846,-23.2117 758.429,-16.3929"/>
</g>
<!-- Node19 -->
<g id="node19" class="node"><title>Node19</title>
<polygon fill="none" stroke="#bfbfbf" points="765.5,-0.5 765.5,-19.5 808.5,-19.5 808.5,-0.5 765.5,-0.5"/>
<text text-anchor="middle" x="787" y="-7.5" font-family="Helvetica,sans-Serif" font-size="10.00">deque</text>
</g>
<!-- Node7&#45;&gt;Node19 -->
<g id="edge19" class="edge"><title>Node7&#45;&gt;Node19</title>
<path fill="none" stroke="midnightblue" d="M1231.78,-63.3727C1148.38,-59.9331 974,-49.792 818.704,-19.9896"/>
<polygon fill="midnightblue" stroke="midnightblue" points="818.989,-16.4793 808.504,-17.998 817.648,-23.3495 818.989,-16.4793"/>
</g>
<!-- Node20 -->
<g id="node20" class="node"><title>Node20</title>
<polygon fill="none" stroke="#bfbfbf" points="826.5,-0.5 826.5,-19.5 869.5,-19.5 869.5,-0.5 826.5,-0.5"/>
<text text-anchor="middle" x="848" y="-7.5" font-family="Helvetica,sans-Serif" font-size="10.00">queue</text>
</g>
<!-- Node7&#45;&gt;Node20 -->
<g id="edge20" class="edge"><title>Node7&#45;&gt;Node20</title>
<path fill="none" stroke="midnightblue" d="M1231.86,-62.3748C1157.37,-57.7705 1011.41,-46.3057 879.395,-19.9653"/>
<polygon fill="midnightblue" stroke="midnightblue" points="880.008,-16.5184 869.512,-17.9597 878.616,-23.3786 880.008,-16.5184"/>
</g>
<!-- Node21 -->
<g id="node21" class="node"><title>Node21</title>
<polygon fill="none" stroke="#bfbfbf" points="887.5,-0.5 887.5,-19.5 928.5,-19.5 928.5,-0.5 887.5,-0.5"/>
<text text-anchor="middle" x="908" y="-7.5" font-family="Helvetica,sans-Serif" font-size="10.00">bitset</text>
</g>
<!-- Node7&#45;&gt;Node21 -->
<g id="edge21" class="edge"><title>Node7&#45;&gt;Node21</title>
<path fill="none" stroke="midnightblue" d="M1231.73,-61.0474C1166.68,-55.2772 1048.54,-42.8874 938.485,-19.7616"/>
<polygon fill="midnightblue" stroke="midnightblue" points="939.054,-16.3044 928.544,-17.6383 937.592,-23.15 939.054,-16.3044"/>
</g>
<!-- Node22 -->
<g id="node22" class="node"><title>Node22</title>
<polygon fill="none" stroke="#bfbfbf" points="947,-0.5 947,-19.5 1003,-19.5 1003,-0.5 947,-0.5"/>
<text text-anchor="middle" x="975" y="-7.5" font-family="Helvetica,sans-Serif" font-size="10.00">algorithm</text>
</g>
<!-- Node7&#45;&gt;Node22 -->
<g id="edge22" class="edge"><title>Node7&#45;&gt;Node22</title>
<path fill="none" stroke="midnightblue" d="M1231.71,-57.8576C1179.73,-50.0779 1095.23,-36.735 1013.22,-20.1327"/>
<polygon fill="midnightblue" stroke="midnightblue" points="1013.73,-16.6651 1003.23,-18.0921 1012.33,-23.5234 1013.73,-16.6651"/>
</g>
<!-- Node23 -->
<g id="node23" class="node"><title>Node23</title>
<polygon fill="none" stroke="#bfbfbf" points="1021.5,-0.5 1021.5,-19.5 1080.5,-19.5 1080.5,-0.5 1021.5,-0.5"/>
<text text-anchor="middle" x="1051" y="-7.5" font-family="Helvetica,sans-Serif" font-size="10.00">functional</text>
</g>
<!-- Node7&#45;&gt;Node23 -->
<g id="edge23" class="edge"><title>Node7&#45;&gt;Node23</title>
<path fill="none" stroke="midnightblue" d="M1244.56,-56.4435C1202.57,-46.587 1133.84,-30.4491 1090.58,-20.2922"/>
<polygon fill="midnightblue" stroke="midnightblue" points="1091.23,-16.8494 1080.69,-17.971 1089.63,-23.6641 1091.23,-16.8494"/>
</g>
<!-- Node24 -->
<g id="node24" class="node"><title>Node24</title>
<polygon fill="none" stroke="#bfbfbf" points="1099,-0.5 1099,-19.5 1139,-19.5 1139,-0.5 1099,-0.5"/>
<text text-anchor="middle" x="1119" y="-7.5" font-family="Helvetica,sans-Serif" font-size="10.00">limits</text>
</g>
<!-- Node7&#45;&gt;Node24 -->
<g id="edge24" class="edge"><title>Node7&#45;&gt;Node24</title>
<path fill="none" stroke="midnightblue" d="M1255.33,-56.4435C1226.47,-46.8247 1179.67,-31.2238 1149.11,-21.0372"/>
<polygon fill="midnightblue" stroke="midnightblue" points="1150.01,-17.6486 1139.42,-17.8067 1147.8,-24.2894 1150.01,-17.6486"/>
</g>
<!-- Node25 -->
<g id="node25" class="node"><title>Node25</title>
<polygon fill="none" stroke="#bfbfbf" points="1157,-0.5 1157,-19.5 1207,-19.5 1207,-0.5 1157,-0.5"/>
<text text-anchor="middle" x="1182" y="-7.5" font-family="Helvetica,sans-Serif" font-size="10.00">fstream</text>
</g>
<!-- Node7&#45;&gt;Node25 -->
<g id="edge25" class="edge"><title>Node7&#45;&gt;Node25</title>
<path fill="none" stroke="midnightblue" d="M1265.09,-56.324C1249.36,-47.7428 1225.06,-34.486 1206.79,-24.5224"/>
<polygon fill="midnightblue" stroke="midnightblue" points="1208.32,-21.3704 1197.87,-19.6545 1204.97,-27.5157 1208.32,-21.3704"/>
</g>
<!-- Node26 -->
<g id="node26" class="node"><title>Node26</title>
<polygon fill="none" stroke="#bfbfbf" points="1225.5,-0.5 1225.5,-19.5 1270.5,-19.5 1270.5,-0.5 1225.5,-0.5"/>
<text text-anchor="middle" x="1248" y="-7.5" font-family="Helvetica,sans-Serif" font-size="10.00">iosfwd</text>
</g>
<!-- Node7&#45;&gt;Node26 -->
<g id="edge26" class="edge"><title>Node7&#45;&gt;Node26</title>
<path fill="none" stroke="midnightblue" d="M1275.55,-56.083C1270.99,-48.6127 1264.33,-37.7244 1258.71,-28.5199"/>
<polygon fill="midnightblue" stroke="midnightblue" points="1261.55,-26.4588 1253.35,-19.7511 1255.58,-30.109 1261.55,-26.4588"/>
</g>
<!-- Node27 -->
<g id="node27" class="node"><title>Node27</title>
<polygon fill="none" stroke="#bfbfbf" points="1289,-0.5 1289,-19.5 1341,-19.5 1341,-0.5 1289,-0.5"/>
<text text-anchor="middle" x="1315" y="-7.5" font-family="Helvetica,sans-Serif" font-size="10.00">sstream</text>
</g>
<!-- Node7&#45;&gt;Node27 -->
<g id="edge27" class="edge"><title>Node7&#45;&gt;Node27</title>
<path fill="none" stroke="midnightblue" d="M1286.61,-56.083C1291.37,-48.5341 1298.32,-37.4948 1304.15,-28.2298"/>
<polygon fill="midnightblue" stroke="midnightblue" points="1307.12,-30.0783 1309.49,-19.7511 1301.2,-26.3486 1307.12,-30.0783"/>
</g>
<!-- Node28 -->
<g id="node28" class="node"><title>Node28</title>
<polygon fill="none" stroke="#bfbfbf" points="1359,-0.5 1359,-19.5 1427,-19.5 1427,-0.5 1359,-0.5"/>
<text text-anchor="middle" x="1393" y="-7.5" font-family="Helvetica,sans-Serif" font-size="10.00">sys/types.h</text>
</g>
<!-- Node7&#45;&gt;Node28 -->
<g id="edge28" class="edge"><title>Node7&#45;&gt;Node28</title>
<path fill="none" stroke="midnightblue" d="M1298.99,-56.324C1317.04,-47.6247 1345.05,-34.1202 1365.8,-24.113"/>
<polygon fill="midnightblue" stroke="midnightblue" points="1367.56,-27.1502 1375.05,-19.6545 1364.52,-20.8449 1367.56,-27.1502"/>
</g>
<!-- Node29 -->
<g id="node29" class="node"><title>Node29</title>
<polygon fill="none" stroke="#bfbfbf" points="1445,-0.5 1445,-19.5 1505,-19.5 1505,-0.5 1445,-0.5"/>
<text text-anchor="middle" x="1475" y="-7.5" font-family="Helvetica,sans-Serif" font-size="10.00">sys/stat.h</text>
</g>
<!-- Node7&#45;&gt;Node29 -->
<g id="edge29" class="edge"><title>Node7&#45;&gt;Node29</title>
<path fill="none" stroke="midnightblue" d="M1311.74,-56.4435C1345.04,-47.1739 1398.3,-32.3487 1434.88,-22.1675"/>
<polygon fill="midnightblue" stroke="midnightblue" points="1436.03,-25.481 1444.72,-19.4275 1434.15,-18.7374 1436.03,-25.481"/>
</g>
<!-- Node30 -->
<g id="node30" class="node"><title>Node30</title>
<polygon fill="none" stroke="#bfbfbf" points="1523.5,-0.5 1523.5,-19.5 1574.5,-19.5 1574.5,-0.5 1523.5,-0.5"/>
<text text-anchor="middle" x="1549" y="-7.5" font-family="Helvetica,sans-Serif" font-size="10.00">unistd.h</text>
</g>
<!-- Node7&#45;&gt;Node30 -->
<g id="edge30" class="edge"><title>Node7&#45;&gt;Node30</title>
<path fill="none" stroke="midnightblue" d="M1329.82,-56.4646C1374.97,-48.371 1444.13,-35.4637 1513.62,-19.9701"/>
<polygon fill="midnightblue" stroke="midnightblue" points="1514.44,-23.3741 1523.43,-17.7669 1512.91,-16.5444 1514.44,-23.3741"/>
</g>
<!-- Node31 -->
<g id="node31" class="node"><title>Node31</title>
<polygon fill="none" stroke="#bfbfbf" points="1593,-0.5 1593,-19.5 1639,-19.5 1639,-0.5 1593,-0.5"/>
<text text-anchor="middle" x="1616" y="-7.5" font-family="Helvetica,sans-Serif" font-size="10.00">dlfcn.h</text>
</g>
<!-- Node7&#45;&gt;Node31 -->
<g id="edge31" class="edge"><title>Node7&#45;&gt;Node31</title>
<path fill="none" stroke="midnightblue" d="M1330.15,-59.6433C1388.31,-52.8739 1488.21,-39.8991 1582.66,-20.063"/>
<polygon fill="midnightblue" stroke="midnightblue" points="1583.62,-23.4384 1592.67,-17.9312 1582.16,-16.5921 1583.62,-23.4384"/>
</g>
<!-- Node32 -->
<g id="node32" class="node"><title>Node32</title>
<polygon fill="none" stroke="#bfbfbf" points="1657,-0.5 1657,-19.5 1735,-19.5 1735,-0.5 1657,-0.5"/>
<text text-anchor="middle" x="1696" y="-7.5" font-family="Helvetica,sans-Serif" font-size="10.00">ext/hash_map</text>
</g>
<!-- Node7&#45;&gt;Node32 -->
<g id="edge32" class="edge"><title>Node7&#45;&gt;Node32</title>
<path fill="none" stroke="midnightblue" d="M1330.11,-59.9782C1398.71,-52.7431 1527.33,-38.3776 1646.7,-20.1194"/>
<polygon fill="midnightblue" stroke="midnightblue" points="1647.39,-23.5538 1656.74,-18.5704 1646.33,-16.6356 1647.39,-23.5538"/>
</g>
<!-- Node33 -->
<g id="node33" class="node"><title>Node33</title>
<polygon fill="none" stroke="#bfbfbf" points="1753.5,-0.5 1753.5,-19.5 1826.5,-19.5 1826.5,-0.5 1753.5,-0.5"/>
<text text-anchor="middle" x="1790" y="-7.5" font-family="Helvetica,sans-Serif" font-size="10.00">ext/hash_set</text>
</g>
<!-- Node7&#45;&gt;Node33 -->
<g id="edge33" class="edge"><title>Node7&#45;&gt;Node33</title>
<path fill="none" stroke="midnightblue" d="M1330.19,-61.7834C1413.14,-56.0169 1586.32,-42.5133 1743.09,-19.9883"/>
<polygon fill="midnightblue" stroke="midnightblue" points="1744,-23.3931 1753.4,-18.4916 1743,-16.4658 1744,-23.3931"/>
</g>
<!-- Node35 -->
<g id="node35" class="node"><title>Node35</title>
<g id="a_node35"><a xlink:href="_ogre_header_prefix_8h.html" target="_top" xlink:title="OgreHeaderPrefix.h">
<polygon fill="none" stroke="black" points="278.5,-0.5 278.5,-19.5 381.5,-19.5 381.5,-0.5 278.5,-0.5"/>
<text text-anchor="middle" x="330" y="-7.5" font-family="Helvetica,sans-Serif" font-size="10.00">OgreHeaderPrefix.h</text>
</a>
</g>
</g>
<!-- Node34&#45;&gt;Node35 -->
<g id="edge35" class="edge"><title>Node34&#45;&gt;Node35</title>
<path fill="none" stroke="midnightblue" d="M330,-56.083C330,-49.0059 330,-38.8611 330,-29.9865"/>
<polygon fill="midnightblue" stroke="midnightblue" points="333.5,-29.751 330,-19.7511 326.5,-29.7511 333.5,-29.751"/>
</g>
<!-- Node36 -->
<g id="node36" class="node"><title>Node36</title>
<g id="a_node36"><a xlink:href="_ogre_header_suffix_8h.html" target="_top" xlink:title="OgreHeaderSuffix.h">
<polygon fill="none" stroke="black" points="43.5,-0.5 43.5,-19.5 146.5,-19.5 146.5,-0.5 43.5,-0.5"/>
<text text-anchor="middle" x="95" y="-7.5" font-family="Helvetica,sans-Serif" font-size="10.00">OgreHeaderSuffix.h</text>
</a>
</g>
</g>
<!-- Node34&#45;&gt;Node36 -->
<g id="edge36" class="edge"><title>Node34&#45;&gt;Node36</title>
<path fill="none" stroke="midnightblue" d="M292.764,-56.4435C251.94,-47.0629 186.357,-31.9926 142.016,-21.8036"/>
<polygon fill="midnightblue" stroke="midnightblue" points="142.592,-18.3449 132.062,-19.5164 141.024,-25.1671 142.592,-18.3449"/>
</g>
<!-- Node37&#45;&gt;Node3 -->
<g id="edge38" class="edge"><title>Node37&#45;&gt;Node3</title>
<path fill="none" stroke="midnightblue" d="M391.932,-233.09C443.623,-231.141 525.177,-222.207 586,-188 606.305,-176.581 623.173,-155.371 633.389,-140.287"/>
<polygon fill="midnightblue" stroke="midnightblue" points="636.368,-142.126 638.862,-131.829 630.491,-138.324 636.368,-142.126"/>
</g>
<!-- Node37&#45;&gt;Node35 -->
<g id="edge45" class="edge"><title>Node37&#45;&gt;Node35</title>
<path fill="none" stroke="midnightblue" d="M298.919,-224.5C250.905,-214.593 178.919,-198.272 171,-188 139.07,-146.58 113.977,-166.23 232,-56 248.079,-40.9828 270.047,-30.2702 289.109,-23.0747"/>
<polygon fill="midnightblue" stroke="midnightblue" points="290.524,-26.286 298.765,-19.6283 288.171,-19.6932 290.524,-26.286"/>
</g>
<!-- Node37&#45;&gt;Node36 -->
<g id="edge46" class="edge"><title>Node37&#45;&gt;Node36</title>
<path fill="none" stroke="midnightblue" d="M296.605,-224.488C243.305,-214.174 160.644,-197.056 149,-188 104.751,-153.586 104.266,-130.464 91,-76 87.2751,-60.7069 88.7846,-42.824 90.9368,-29.6908"/>
<polygon fill="midnightblue" stroke="midnightblue" points="94.4341,-30.0368 92.8783,-19.5568 87.5592,-28.7196 94.4341,-30.0368"/>
</g>
<!-- Node38 -->
<g id="node38" class="node"><title>Node38</title>
<g id="a_node38"><a xlink:href="_ogre_log_8h.html" target="_top" xlink:title="OgreLog.h">
<polygon fill="none" stroke="red" points="180,-168.5 180,-187.5 242,-187.5 242,-168.5 180,-168.5"/>
<text text-anchor="middle" x="211" y="-175.5" font-family="Helvetica,sans-Serif" font-size="10.00">OgreLog.h</text>
</a>
</g>
</g>
<!-- Node37&#45;&gt;Node38 -->
<g id="edge39" class="edge"><title>Node37&#45;&gt;Node38</title>
<path fill="none" stroke="midnightblue" d="M321.243,-224.444C299.684,-215.557 265.737,-201.563 241.206,-191.451"/>
<polygon fill="midnightblue" stroke="midnightblue" points="242.239,-188.092 231.66,-187.516 239.572,-194.563 242.239,-188.092"/>
</g>
<!-- Node39 -->
<g id="node39" class="node"><title>Node39</title>
<g id="a_node39"><a xlink:href="_ogre_singleton_8h.html" target="_top" xlink:title="OgreSingleton.h">
<polygon fill="none" stroke="black" points="346,-168.5 346,-187.5 432,-187.5 432,-168.5 346,-168.5"/>
<text text-anchor="middle" x="389" y="-175.5" font-family="Helvetica,sans-Serif" font-size="10.00">OgreSingleton.h</text>
</a>
</g>
</g>
<!-- Node37&#45;&gt;Node39 -->
<g id="edge43" class="edge"><title>Node37&#45;&gt;Node39</title>
<path fill="none" stroke="midnightblue" d="M349.761,-224.083C356.537,-216.298 366.543,-204.801 374.755,-195.367"/>
<polygon fill="midnightblue" stroke="midnightblue" points="377.458,-197.592 381.383,-187.751 372.178,-192.996 377.458,-197.592"/>
</g>
<!-- Node38&#45;&gt;Node3 -->
<g id="edge40" class="edge"><title>Node38&#45;&gt;Node3</title>
<path fill="none" stroke="midnightblue" d="M242.38,-169.605C245.286,-169.022 248.193,-168.475 251,-168 367.321,-148.313 504.496,-134.784 582.159,-128.014"/>
<polygon fill="midnightblue" stroke="midnightblue" points="582.59,-131.49 592.252,-127.143 581.988,-124.516 582.59,-131.49"/>
</g>
<!-- Node38&#45;&gt;Node35 -->
<g id="edge41" class="edge"><title>Node38&#45;&gt;Node35</title>
<path fill="none" stroke="midnightblue" d="M211.366,-168.349C212.696,-146.942 218.831,-90.7212 247,-56 258.999,-41.2094 277.205,-30.5747 293.511,-23.3703"/>
<polygon fill="midnightblue" stroke="midnightblue" points="294.926,-26.573 302.831,-19.5194 292.253,-20.1035 294.926,-26.573"/>
</g>
<!-- Node38&#45;&gt;Node36 -->
<g id="edge42" class="edge"><title>Node38&#45;&gt;Node36</title>
<path fill="none" stroke="midnightblue" d="M195.819,-168.483C170.762,-153.488 121.396,-119.772 100,-76 92.9328,-61.5419 92.1737,-43.0925 92.8955,-29.5457"/>
<polygon fill="midnightblue" stroke="midnightblue" points="96.3886,-29.7742 93.7443,-19.5147 89.4135,-29.184 96.3886,-29.7742"/>
</g>
<!-- Node39&#45;&gt;Node3 -->
<g id="edge44" class="edge"><title>Node39&#45;&gt;Node3</title>
<path fill="none" stroke="midnightblue" d="M429.406,-168.444C473.983,-159.004 545.768,-143.802 593.892,-133.611"/>
<polygon fill="midnightblue" stroke="midnightblue" points="594.726,-137.012 603.784,-131.516 593.275,-130.164 594.726,-137.012"/>
</g>
<!-- Node40&#45;&gt;Node3 -->
<g id="edge48" class="edge"><title>Node40&#45;&gt;Node3</title>
<path fill="none" stroke="midnightblue" d="M328.231,-169.64C331.193,-169.062 334.146,-168.507 337,-168 421.654,-152.951 520.09,-139.174 582.213,-130.934"/>
<polygon fill="midnightblue" stroke="midnightblue" points="582.786,-134.389 592.242,-129.61 581.87,-127.449 582.786,-134.389"/>
</g>
<!-- Node40&#45;&gt;Node35 -->
<g id="edge49" class="edge"><title>Node40&#45;&gt;Node35</title>
<path fill="none" stroke="midnightblue" d="M311.974,-168.264C339.743,-153.629 392.056,-121.248 413,-76 424.264,-51.6658 395.451,-33.8953 368.743,-23.1458"/>
<polygon fill="midnightblue" stroke="midnightblue" points="369.669,-19.7545 359.077,-19.504 367.201,-26.305 369.669,-19.7545"/>
</g>
<!-- Node40&#45;&gt;Node36 -->
<g id="edge50" class="edge"><title>Node40&#45;&gt;Node36</title>
<path fill="none" stroke="midnightblue" d="M283.581,-168.309C251.477,-141.528 153.783,-60.0347 113.09,-26.09"/>
<polygon fill="midnightblue" stroke="midnightblue" points="115.237,-23.3231 105.316,-19.6051 110.753,-28.6985 115.237,-23.3231"/>
</g>
<!-- Node43&#45;&gt;Node3 -->
<g id="edge54" class="edge"><title>Node43&#45;&gt;Node3</title>
<path fill="none" stroke="midnightblue" d="M654.518,-342.803C723.83,-338.987 821.921,-328.549 846,-300 883.625,-255.391 923.675,-285.694 774,-168 753.126,-151.586 725.863,-140.942 701.698,-134.151"/>
<polygon fill="midnightblue" stroke="midnightblue" points="702.473,-130.736 691.911,-131.559 700.681,-137.503 702.473,-130.736"/>
</g>
<!-- Node43&#45;&gt;Node35 -->
<g id="edge68" class="edge"><title>Node43&#45;&gt;Node35</title>
<path fill="none" stroke="midnightblue" d="M576.163,-336.232C558.341,-313.075 509.717,-247.939 479,-188 450.389,-132.17 471.906,-101.768 429,-56 414.486,-40.5174 393.631,-29.9553 374.801,-22.9777"/>
<polygon fill="midnightblue" stroke="midnightblue" points="375.778,-19.6123 365.184,-19.6485 373.489,-26.2272 375.778,-19.6123"/>
</g>
<!-- Node43&#45;&gt;Node36 -->
<g id="edge69" class="edge"><title>Node43&#45;&gt;Node36</title>
<path fill="none" stroke="midnightblue" d="M512.284,-336.467C448.476,-328.388 352.147,-315.247 269,-300 157.003,-279.463 126.67,-281.044 19,-244 10.1644,-240.96 0,-244.344 0,-235 0,-235 0,-235 0,-121 0,-77.7385 42.6084,-43.0862 70.7548,-24.9149"/>
<polygon fill="midnightblue" stroke="midnightblue" points="72.6613,-27.851 79.3127,-19.6042 68.9703,-21.9032 72.6613,-27.851"/>
</g>
<!-- Node44 -->
<g id="node44" class="node"><title>Node44</title>
<g id="a_node44"><a xlink:href="_ogre_hardware_buffer_8h.html" target="_top" xlink:title="OgreHardwareBuffer.h">
<polygon fill="none" stroke="black" points="526,-224.5 526,-243.5 640,-243.5 640,-224.5 526,-224.5"/>
<text text-anchor="middle" x="583" y="-231.5" font-family="Helvetica,sans-Serif" font-size="10.00">OgreHardwareBuffer.h</text>
</a>
</g>
</g>
<!-- Node43&#45;&gt;Node44 -->
<g id="edge55" class="edge"><title>Node43&#45;&gt;Node44</title>
<path fill="none" stroke="midnightblue" d="M583,-336.368C583,-318.617 583,-277.666 583,-253.597"/>
<polygon fill="midnightblue" stroke="midnightblue" points="586.5,-253.591 583,-243.591 579.5,-253.591 586.5,-253.591"/>
</g>
<!-- Node46 -->
<g id="node46" class="node"><title>Node46</title>
<g id="a_node46"><a xlink:href="_ogre_shared_ptr_8h.html" target="_top" xlink:title="OgreSharedPtr.h">
<polygon fill="none" stroke="black" points="631.5,-280.5 631.5,-299.5 720.5,-299.5 720.5,-280.5 631.5,-280.5"/>
<text text-anchor="middle" x="676" y="-287.5" font-family="Helvetica,sans-Serif" font-size="10.00">OgreSharedPtr.h</text>
</a>
</g>
</g>
<!-- Node43&#45;&gt;Node46 -->
<g id="edge61" class="edge"><title>Node43&#45;&gt;Node46</title>
<path fill="none" stroke="midnightblue" d="M597.942,-336.324C612.585,-327.822 635.134,-314.729 652.238,-304.797"/>
<polygon fill="midnightblue" stroke="midnightblue" points="654.205,-307.703 661.095,-299.655 650.69,-301.649 654.205,-307.703"/>
</g>
<!-- Node48 -->
<g id="node48" class="node"><title>Node48</title>
<g id="a_node48"><a xlink:href="_ogre_colour_value_8h.html" target="_top" xlink:title="OgreColourValue.h">
<polygon fill="none" stroke="black" points="738.5,-280.5 738.5,-299.5 837.5,-299.5 837.5,-280.5 738.5,-280.5"/>
<text text-anchor="middle" x="788" y="-287.5" font-family="Helvetica,sans-Serif" font-size="10.00">OgreColourValue.h</text>
</a>
</g>
</g>
<!-- Node43&#45;&gt;Node48 -->
<g id="edge66" class="edge"><title>Node43&#45;&gt;Node48</title>
<path fill="none" stroke="midnightblue" d="M615.483,-336.444C650.72,-327.162 707.104,-312.309 745.759,-302.127"/>
<polygon fill="midnightblue" stroke="midnightblue" points="746.891,-305.448 755.669,-299.516 745.107,-298.679 746.891,-305.448"/>
</g>
<!-- Node44&#45;&gt;Node3 -->
<g id="edge56" class="edge"><title>Node44&#45;&gt;Node3</title>
<path fill="none" stroke="midnightblue" d="M610.282,-224.453C627.294,-217.548 647.825,-205.971 658,-188 666.329,-173.289 660.547,-154.136 654.072,-140.439"/>
<polygon fill="midnightblue" stroke="midnightblue" points="657.168,-138.806 649.428,-131.571 650.967,-142.053 657.168,-138.806"/>
</g>
<!-- Node45 -->
<g id="node45" class="node"><title>Node45</title>
<g id="a_node45"><a xlink:href="_ogre_exception_8h.html" target="_top" xlink:title="OgreException.h">
<polygon fill="none" stroke="red" points="488.5,-168.5 488.5,-187.5 577.5,-187.5 577.5,-168.5 488.5,-168.5"/>
<text text-anchor="middle" x="533" y="-175.5" font-family="Helvetica,sans-Serif" font-size="10.00">OgreException.h</text>
</a>
</g>
</g>
<!-- Node44&#45;&gt;Node45 -->
<g id="edge57" class="edge"><title>Node44&#45;&gt;Node45</title>
<path fill="none" stroke="midnightblue" d="M574.744,-224.083C567.535,-216.298 556.89,-204.801 548.154,-195.367"/>
<polygon fill="midnightblue" stroke="midnightblue" points="550.465,-192.711 541.103,-187.751 545.329,-197.467 550.465,-192.711"/>
</g>
<!-- Node45&#45;&gt;Node3 -->
<g id="edge58" class="edge"><title>Node45&#45;&gt;Node3</title>
<path fill="none" stroke="midnightblue" d="M550.834,-168.324C568.716,-159.625 596.475,-146.12 617.046,-136.113"/>
<polygon fill="midnightblue" stroke="midnightblue" points="618.749,-139.177 626.21,-131.655 615.687,-132.882 618.749,-139.177"/>
</g>
<!-- Node45&#45;&gt;Node35 -->
<g id="edge59" class="edge"><title>Node45&#45;&gt;Node35</title>
<path fill="none" stroke="midnightblue" d="M532.044,-168.217C529.152,-146.007 518.462,-87.1618 484,-56 469.207,-42.6235 422.775,-30.1311 384.73,-21.7195"/>
<polygon fill="midnightblue" stroke="midnightblue" points="385.274,-18.2563 374.761,-19.5645 383.795,-25.0983 385.274,-18.2563"/>
</g>
<!-- Node45&#45;&gt;Node36 -->
<g id="edge60" class="edge"><title>Node45&#45;&gt;Node36</title>
<path fill="none" stroke="midnightblue" d="M507.158,-168.498C456.752,-151.778 341.932,-113.016 247,-76 203.328,-58.9713 153.512,-37.2141 123.168,-23.6929"/>
<polygon fill="midnightblue" stroke="midnightblue" points="124.59,-20.4949 114.032,-19.6087 121.733,-26.8854 124.59,-20.4949"/>
</g>
<!-- Node46&#45;&gt;Node3 -->
<g id="edge62" class="edge"><title>Node46&#45;&gt;Node3</title>
<path fill="none" stroke="midnightblue" d="M712.223,-280.493C744.563,-270.876 784.849,-252.709 771,-224 750.701,-181.92 703.403,-151.974 672.607,-136.1"/>
<polygon fill="midnightblue" stroke="midnightblue" points="674.139,-132.953 663.627,-131.627 671.018,-139.219 674.139,-132.953"/>
</g>
<!-- Node47 -->
<g id="node47" class="node"><title>Node47</title>
<g id="a_node47"><a xlink:href="_ogre_atomic_scalar_8h.html" target="_top" xlink:title="OgreAtomicScalar.h">
<polygon fill="none" stroke="red" points="658,-224.5 658,-243.5 762,-243.5 762,-224.5 658,-224.5"/>
<text text-anchor="middle" x="710" y="-231.5" font-family="Helvetica,sans-Serif" font-size="10.00">OgreAtomicScalar.h</text>
</a>
</g>
</g>
<!-- Node46&#45;&gt;Node47 -->
<g id="edge63" class="edge"><title>Node46&#45;&gt;Node47</title>
<path fill="none" stroke="midnightblue" d="M681.614,-280.083C686.367,-272.534 693.318,-261.495 699.152,-252.23"/>
<polygon fill="midnightblue" stroke="midnightblue" points="702.124,-254.078 704.49,-243.751 696.2,-250.349 702.124,-254.078"/>
</g>
<!-- Node47&#45;&gt;Node3 -->
<g id="edge64" class="edge"><title>Node47&#45;&gt;Node3</title>
<path fill="none" stroke="midnightblue" d="M705.758,-224.42C699.447,-211.823 687.031,-187.685 675,-168 669.187,-158.489 662.18,-148.228 656.299,-139.91"/>
<polygon fill="midnightblue" stroke="midnightblue" points="659.139,-137.865 650.469,-131.774 653.448,-141.942 659.139,-137.865"/>
</g>
<!-- Node47&#45;&gt;Node45 -->
<g id="edge65" class="edge"><title>Node47&#45;&gt;Node45</title>
<path fill="none" stroke="midnightblue" d="M681.954,-224.444C651.918,-215.28 604.087,-200.688 570.757,-190.519"/>
<polygon fill="midnightblue" stroke="midnightblue" points="571.501,-187.087 560.915,-187.516 569.458,-193.782 571.501,-187.087"/>
</g>
<!-- Node48&#45;&gt;Node3 -->
<g id="edge67" class="edge"><title>Node48&#45;&gt;Node3</title>
<path fill="none" stroke="midnightblue" d="M789.405,-280.337C791.126,-267.637 793.116,-243.372 787,-224 777.945,-195.317 772.202,-187.14 749,-168 730.725,-152.925 706.643,-142.12 686.152,-134.883"/>
<polygon fill="midnightblue" stroke="midnightblue" points="687.017,-131.482 676.423,-131.614 684.788,-138.117 687.017,-131.482"/>
</g>
<!-- Node50 -->
<g id="node50" class="node"><title>Node50</title>
<g id="a_node50"><a xlink:href="_ogre_android_resource_8h.html" target="_top" xlink:title="OgreAndroidResource.h">
<polygon fill="none" stroke="black" points="371.5,-336.5 371.5,-355.5 492.5,-355.5 492.5,-336.5 371.5,-336.5"/>
<text text-anchor="middle" x="432" y="-343.5" font-family="Helvetica,sans-Serif" font-size="10.00">OgreAndroidResource.h</text>
</a>
</g>
</g>
<!-- Node49&#45;&gt;Node50 -->
<g id="edge71" class="edge"><title>Node49&#45;&gt;Node50</title>
<path fill="none" stroke="midnightblue" d="M445.358,-392.083C443.214,-384.849 440.121,-374.409 437.451,-365.397"/>
<polygon fill="midnightblue" stroke="midnightblue" points="440.79,-364.345 434.593,-355.751 434.078,-366.333 440.79,-364.345"/>
</g>
<!-- Node50&#45;&gt;Node2 -->
<g id="edge72" class="edge"><title>Node50&#45;&gt;Node2</title>
<path fill="none" stroke="midnightblue" d="M417.701,-336.324C403.817,-327.9 382.508,-314.971 366.196,-305.074"/>
<polygon fill="midnightblue" stroke="midnightblue" points="367.629,-301.85 357.264,-299.655 363.998,-307.834 367.629,-301.85"/>
</g>
</g>
</svg>
