<?xml version="1.0" encoding="UTF-8" standalone="no"?>
<!DOCTYPE svg PUBLIC "-//W3C//DTD SVG 1.1//EN"
 "http://www.w3.org/Graphics/SVG/1.1/DTD/svg11.dtd">
<!-- Generated by graphviz version 2.38.0 (20140413.2041)
 -->
<!-- Title: OgreMaterial.h Pages: 1 -->
<svg width="3094pt" height="364pt"
 viewBox="0.00 0.00 3094.23 364.00" xmlns="http://www.w3.org/2000/svg" xmlns:xlink="http://www.w3.org/1999/xlink">
<g id="graph0" class="graph" transform="scale(1 1) rotate(0) translate(4 360)">
<title>OgreMaterial.h</title>
<!-- Node1 -->
<g id="node1" class="node"><title>Node1</title>
<polygon fill="#bfbfbf" stroke="black" points="696,-336.5 696,-355.5 776,-355.5 776,-336.5 696,-336.5"/>
<text text-anchor="middle" x="736" y="-343.5" font-family="Helvetica,sans-Serif" font-size="10.00">OgreMaterial.h</text>
</g>
<!-- Node2 -->
<g id="node2" class="node"><title>Node2</title>
<g id="a_node2"><a xlink:href="_ogre_prerequisites_8h.html" target="_top" xlink:title="OgrePrerequisites.h">
<polygon fill="none" stroke="black" points="757.5,-168.5 757.5,-187.5 860.5,-187.5 860.5,-168.5 757.5,-168.5"/>
<text text-anchor="middle" x="809" y="-175.5" font-family="Helvetica,sans-Serif" font-size="10.00">OgrePrerequisites.h</text>
</a>
</g>
</g>
<!-- Node1&#45;&gt;Node2 -->
<g id="edge1" class="edge"><title>Node1&#45;&gt;Node2</title>
<path fill="none" stroke="midnightblue" d="M750.276,-336.43C762.343,-328.46 779.188,-315.503 789,-300 809.046,-268.329 810.98,-222.998 810.232,-197.77"/>
<polygon fill="midnightblue" stroke="midnightblue" points="813.725,-197.538 809.756,-187.715 806.733,-197.87 813.725,-197.538"/>
</g>
<!-- Node38 -->
<g id="node38" class="node"><title>Node38</title>
<g id="a_node38"><a xlink:href="_ogre_header_prefix_8h.html" target="_top" xlink:title="OgreHeaderPrefix.h">
<polygon fill="none" stroke="black" points="121.5,-0.5 121.5,-19.5 224.5,-19.5 224.5,-0.5 121.5,-0.5"/>
<text text-anchor="middle" x="173" y="-7.5" font-family="Helvetica,sans-Serif" font-size="10.00">OgreHeaderPrefix.h</text>
</a>
</g>
</g>
<!-- Node1&#45;&gt;Node38 -->
<g id="edge73" class="edge"><title>Node1&#45;&gt;Node38</title>
<path fill="none" stroke="midnightblue" d="M695.907,-343.277C542.32,-336.154 0,-305.978 0,-235 0,-235 0,-235 0,-121 0,-64.4421 66.6574,-35.715 117.22,-22.0599"/>
<polygon fill="midnightblue" stroke="midnightblue" points="118.277,-25.4021 127.093,-19.5261 116.537,-18.6218 118.277,-25.4021"/>
</g>
<!-- Node39 -->
<g id="node39" class="node"><title>Node39</title>
<g id="a_node39"><a xlink:href="_ogre_header_suffix_8h.html" target="_top" xlink:title="OgreHeaderSuffix.h">
<polygon fill="none" stroke="black" points="450.5,-0.5 450.5,-19.5 553.5,-19.5 553.5,-0.5 450.5,-0.5"/>
<text text-anchor="middle" x="502" y="-7.5" font-family="Helvetica,sans-Serif" font-size="10.00">OgreHeaderSuffix.h</text>
</a>
</g>
</g>
<!-- Node1&#45;&gt;Node39 -->
<g id="edge77" class="edge"><title>Node1&#45;&gt;Node39</title>
<path fill="none" stroke="midnightblue" d="M776.277,-344.203C1086.58,-337.938 3085,-295.25 3085,-235 3085,-235 3085,-235 3085,-121 3085,-90.9022 3089.92,-74.2622 3066,-56 3014.67,-16.8183 949.311,-11.6945 563.668,-11.079"/>
<polygon fill="midnightblue" stroke="midnightblue" points="563.548,-7.57891 553.543,-11.0633 563.537,-14.5789 563.548,-7.57891"/>
</g>
<!-- Node40 -->
<g id="node40" class="node"><title>Node40</title>
<g id="a_node40"><a xlink:href="_ogre_resource_8h.html" target="_top" xlink:title="OgreResource.h">
<polygon fill="none" stroke="black" points="567,-280.5 567,-299.5 655,-299.5 655,-280.5 567,-280.5"/>
<text text-anchor="middle" x="611" y="-287.5" font-family="Helvetica,sans-Serif" font-size="10.00">OgreResource.h</text>
</a>
</g>
</g>
<!-- Node1&#45;&gt;Node40 -->
<g id="edge43" class="edge"><title>Node1&#45;&gt;Node40</title>
<path fill="none" stroke="midnightblue" d="M716.193,-336.444C695.713,-327.596 663.517,-313.687 640.135,-303.586"/>
<polygon fill="midnightblue" stroke="midnightblue" points="641.282,-300.269 630.714,-299.516 638.506,-306.695 641.282,-300.269"/>
</g>
<!-- Node44 -->
<g id="node44" class="node"><title>Node44</title>
<g id="a_node44"><a xlink:href="_ogre_common_8h.html" target="_top" xlink:title="OgreCommon.h">
<polygon fill="none" stroke="black" points="350,-168.5 350,-187.5 436,-187.5 436,-168.5 350,-168.5"/>
<text text-anchor="middle" x="393" y="-175.5" font-family="Helvetica,sans-Serif" font-size="10.00">OgreCommon.h</text>
</a>
</g>
</g>
<!-- Node1&#45;&gt;Node44 -->
<g id="edge67" class="edge"><title>Node1&#45;&gt;Node44</title>
<path fill="none" stroke="midnightblue" d="M695.879,-342.543C631.039,-336.499 502.747,-315.658 426,-244 412.437,-231.336 403.585,-211.856 398.497,-197.521"/>
<polygon fill="midnightblue" stroke="midnightblue" points="401.744,-196.189 395.324,-187.761 395.087,-198.354 401.744,-196.189"/>
</g>
<!-- Node45 -->
<g id="node45" class="node"><title>Node45</title>
<g id="a_node45"><a xlink:href="_ogre_iterator_wrappers_8h.html" target="_top" xlink:title="OgreIteratorWrappers.h">
<polygon fill="none" stroke="black" points="259.5,-224.5 259.5,-243.5 378.5,-243.5 378.5,-224.5 259.5,-224.5"/>
<text text-anchor="middle" x="319" y="-231.5" font-family="Helvetica,sans-Serif" font-size="10.00">OgreIteratorWrappers.h</text>
</a>
</g>
</g>
<!-- Node1&#45;&gt;Node45 -->
<g id="edge59" class="edge"><title>Node1&#45;&gt;Node45</title>
<path fill="none" stroke="midnightblue" d="M695.941,-342.671C617.431,-337.631 446.334,-324.176 393,-300 368.295,-288.801 345.795,-266.525 332.252,-251.198"/>
<polygon fill="midnightblue" stroke="midnightblue" points="334.846,-248.847 325.692,-243.513 329.522,-253.391 334.846,-248.847"/>
</g>
<!-- Node48 -->
<g id="node48" class="node"><title>Node48</title>
<g id="a_node48"><a xlink:href="_ogre_colour_value_8h.html" target="_top" xlink:title="OgreColourValue.h">
<polygon fill="none" stroke="black" points="913.5,-224.5 913.5,-243.5 1012.5,-243.5 1012.5,-224.5 913.5,-224.5"/>
<text text-anchor="middle" x="963" y="-231.5" font-family="Helvetica,sans-Serif" font-size="10.00">OgreColourValue.h</text>
</a>
</g>
</g>
<!-- Node1&#45;&gt;Node48 -->
<g id="edge68" class="edge"><title>Node1&#45;&gt;Node48</title>
<path fill="none" stroke="midnightblue" d="M776.143,-342.798C834.313,-338.685 937.653,-327.601 961,-300 971.691,-287.361 970.791,-267.877 968.071,-253.535"/>
<polygon fill="midnightblue" stroke="midnightblue" points="971.474,-252.715 965.798,-243.769 964.656,-254.302 971.474,-252.715"/>
</g>
<!-- Node49 -->
<g id="node49" class="node"><title>Node49</title>
<g id="a_node49"><a xlink:href="_ogre_blend_mode_8h.html" target="_top" xlink:title="OgreBlendMode.h">
<polygon fill="none" stroke="black" points="857.5,-280.5 857.5,-299.5 952.5,-299.5 952.5,-280.5 857.5,-280.5"/>
<text text-anchor="middle" x="905" y="-287.5" font-family="Helvetica,sans-Serif" font-size="10.00">OgreBlendMode.h</text>
</a>
</g>
</g>
<!-- Node1&#45;&gt;Node49 -->
<g id="edge70" class="edge"><title>Node1&#45;&gt;Node49</title>
<path fill="none" stroke="midnightblue" d="M762.779,-336.444C791.333,-327.32 836.733,-312.813 868.537,-302.651"/>
<polygon fill="midnightblue" stroke="midnightblue" points="869.886,-305.894 878.347,-299.516 867.756,-299.226 869.886,-305.894"/>
</g>
<!-- Node50 -->
<g id="node50" class="node"><title>Node50</title>
<g id="a_node50"><a xlink:href="_ogre_shared_ptr_8h.html" target="_top" xlink:title="OgreSharedPtr.h">
<polygon fill="none" stroke="black" points="691.5,-280.5 691.5,-299.5 780.5,-299.5 780.5,-280.5 691.5,-280.5"/>
<text text-anchor="middle" x="736" y="-287.5" font-family="Helvetica,sans-Serif" font-size="10.00">OgreSharedPtr.h</text>
</a>
</g>
</g>
<!-- Node1&#45;&gt;Node50 -->
<g id="edge74" class="edge"><title>Node1&#45;&gt;Node50</title>
<path fill="none" stroke="midnightblue" d="M736,-336.083C736,-329.006 736,-318.861 736,-309.986"/>
<polygon fill="midnightblue" stroke="midnightblue" points="739.5,-309.751 736,-299.751 732.5,-309.751 739.5,-309.751"/>
</g>
<!-- Node3 -->
<g id="node3" class="node"><title>Node3</title>
<g id="a_node3"><a xlink:href="_ogre_platform_8h.html" target="_top" xlink:title="OgrePlatform.h">
<polygon fill="none" stroke="black" points="768.5,-112.5 768.5,-131.5 851.5,-131.5 851.5,-112.5 768.5,-112.5"/>
<text text-anchor="middle" x="810" y="-119.5" font-family="Helvetica,sans-Serif" font-size="10.00">OgrePlatform.h</text>
</a>
</g>
</g>
<!-- Node2&#45;&gt;Node3 -->
<g id="edge2" class="edge"><title>Node2&#45;&gt;Node3</title>
<path fill="none" stroke="midnightblue" d="M809.165,-168.083C809.296,-161.006 809.484,-150.861 809.648,-141.986"/>
<polygon fill="midnightblue" stroke="midnightblue" points="813.152,-141.814 809.838,-131.751 806.153,-141.685 813.152,-141.814"/>
</g>
<!-- Node5 -->
<g id="node5" class="node"><title>Node5</title>
<polygon fill="none" stroke="#bfbfbf" points="866.5,-56.5 866.5,-75.5 907.5,-75.5 907.5,-56.5 866.5,-56.5"/>
<text text-anchor="middle" x="887" y="-63.5" font-family="Helvetica,sans-Serif" font-size="10.00">string</text>
</g>
<!-- Node2&#45;&gt;Node5 -->
<g id="edge4" class="edge"><title>Node2&#45;&gt;Node5</title>
<path fill="none" stroke="midnightblue" d="M821.8,-168.306C833.116,-160.072 849.423,-146.792 860,-132 870.207,-117.725 877.459,-99.0112 881.859,-85.3305"/>
<polygon fill="midnightblue" stroke="midnightblue" points="885.252,-86.2032 884.779,-75.6189 878.548,-84.1879 885.252,-86.2032"/>
</g>
<!-- Node6 -->
<g id="node6" class="node"><title>Node6</title>
<g id="a_node6"><a xlink:href="_ogre_std_headers_8h.html" target="_top" xlink:title="OgreStdHeaders.h">
<polygon fill="none" stroke="black" points="2035,-112.5 2035,-131.5 2133,-131.5 2133,-112.5 2035,-112.5"/>
<text text-anchor="middle" x="2084" y="-119.5" font-family="Helvetica,sans-Serif" font-size="10.00">OgreStdHeaders.h</text>
</a>
</g>
</g>
<!-- Node2&#45;&gt;Node6 -->
<g id="edge5" class="edge"><title>Node2&#45;&gt;Node6</title>
<path fill="none" stroke="midnightblue" d="M860.561,-174.816C1063.74,-166.211 1808.42,-134.672 2024.72,-125.511"/>
<polygon fill="midnightblue" stroke="midnightblue" points="2025.07,-128.999 2034.92,-125.079 2024.78,-122.005 2025.07,-128.999"/>
</g>
<!-- Node36 -->
<g id="node36" class="node"><title>Node36</title>
<g id="a_node36"><a xlink:href="_ogre_memory_allocator_config_8h.html" target="_top" xlink:title="This file configures Ogre&#39;s memory allocators. ">
<polygon fill="none" stroke="red" points="498,-112.5 498,-131.5 646,-131.5 646,-112.5 498,-112.5"/>
<text text-anchor="middle" x="572" y="-119.5" font-family="Helvetica,sans-Serif" font-size="10.00">OgreMemoryAllocatorConfig.h</text>
</a>
</g>
</g>
<!-- Node2&#45;&gt;Node36 -->
<g id="edge36" class="edge"><title>Node2&#45;&gt;Node36</title>
<path fill="none" stroke="midnightblue" d="M771.447,-168.444C730.189,-159.043 663.856,-143.929 619.134,-133.739"/>
<polygon fill="midnightblue" stroke="midnightblue" points="619.905,-130.326 609.378,-131.516 618.35,-137.151 619.905,-130.326"/>
</g>
<!-- Node4 -->
<g id="node4" class="node"><title>Node4</title>
<g id="a_node4"><a xlink:href="_ogre_config_8h.html" target="_top" xlink:title="OgreConfig.h">
<polygon fill="none" stroke="red" points="774,-56.5 774,-75.5 848,-75.5 848,-56.5 774,-56.5"/>
<text text-anchor="middle" x="811" y="-63.5" font-family="Helvetica,sans-Serif" font-size="10.00">OgreConfig.h</text>
</a>
</g>
</g>
<!-- Node3&#45;&gt;Node4 -->
<g id="edge3" class="edge"><title>Node3&#45;&gt;Node4</title>
<path fill="none" stroke="midnightblue" d="M810.165,-112.083C810.296,-105.006 810.484,-94.8611 810.648,-85.9865"/>
<polygon fill="midnightblue" stroke="midnightblue" points="814.152,-85.8142 810.838,-75.7511 807.153,-85.6845 814.152,-85.8142"/>
</g>
<!-- Node6&#45;&gt;Node5 -->
<g id="edge15" class="edge"><title>Node6&#45;&gt;Node5</title>
<path fill="none" stroke="midnightblue" d="M2034.91,-120.821C1844.81,-119.865 1156.15,-113.917 917.741,-75.8166"/>
<polygon fill="midnightblue" stroke="midnightblue" points="918.188,-72.3429 907.749,-74.1548 917.04,-79.2481 918.188,-72.3429"/>
</g>
<!-- Node7 -->
<g id="node7" class="node"><title>Node7</title>
<polygon fill="none" stroke="#bfbfbf" points="2163.5,-56.5 2163.5,-75.5 2212.5,-75.5 2212.5,-56.5 2163.5,-56.5"/>
<text text-anchor="middle" x="2188" y="-63.5" font-family="Helvetica,sans-Serif" font-size="10.00">cassert</text>
</g>
<!-- Node6&#45;&gt;Node7 -->
<g id="edge6" class="edge"><title>Node6&#45;&gt;Node7</title>
<path fill="none" stroke="midnightblue" d="M2100.71,-112.324C2117.31,-103.703 2143,-90.3643 2162.22,-80.3855"/>
<polygon fill="midnightblue" stroke="midnightblue" points="2164.07,-83.3689 2171.33,-75.6545 2160.84,-77.1565 2164.07,-83.3689"/>
</g>
<!-- Node8 -->
<g id="node8" class="node"><title>Node8</title>
<polygon fill="none" stroke="#bfbfbf" points="2230.5,-56.5 2230.5,-75.5 2273.5,-75.5 2273.5,-56.5 2230.5,-56.5"/>
<text text-anchor="middle" x="2252" y="-63.5" font-family="Helvetica,sans-Serif" font-size="10.00">cstdio</text>
</g>
<!-- Node6&#45;&gt;Node8 -->
<g id="edge7" class="edge"><title>Node6&#45;&gt;Node8</title>
<path fill="none" stroke="midnightblue" d="M2110.62,-112.444C2140.51,-102.837 2188.96,-87.2622 2220.66,-77.0749"/>
<polygon fill="midnightblue" stroke="midnightblue" points="2221.86,-80.3632 2230.31,-73.971 2219.72,-73.699 2221.86,-80.3632"/>
</g>
<!-- Node9 -->
<g id="node9" class="node"><title>Node9</title>
<polygon fill="none" stroke="#bfbfbf" points="2291.5,-56.5 2291.5,-75.5 2336.5,-75.5 2336.5,-56.5 2291.5,-56.5"/>
<text text-anchor="middle" x="2314" y="-63.5" font-family="Helvetica,sans-Serif" font-size="10.00">cstdlib</text>
</g>
<!-- Node6&#45;&gt;Node9 -->
<g id="edge8" class="edge"><title>Node6&#45;&gt;Node9</title>
<path fill="none" stroke="midnightblue" d="M2124.95,-112.493C2163.18,-104.384 2222.02,-91.4763 2281.43,-76.2997"/>
<polygon fill="midnightblue" stroke="midnightblue" points="2282.55,-79.6275 2291.36,-73.7444 2280.8,-72.8486 2282.55,-79.6275"/>
</g>
<!-- Node10 -->
<g id="node10" class="node"><title>Node10</title>
<polygon fill="none" stroke="#bfbfbf" points="2354.5,-56.5 2354.5,-75.5 2395.5,-75.5 2395.5,-56.5 2354.5,-56.5"/>
<text text-anchor="middle" x="2375" y="-63.5" font-family="Helvetica,sans-Serif" font-size="10.00">ctime</text>
</g>
<!-- Node6&#45;&gt;Node10 -->
<g id="edge9" class="edge"><title>Node6&#45;&gt;Node10</title>
<path fill="none" stroke="midnightblue" d="M2133.16,-114.517C2183.93,-107.385 2265.58,-94.7023 2344.4,-76.1408"/>
<polygon fill="midnightblue" stroke="midnightblue" points="2345.59,-79.4566 2354.5,-73.7269 2343.96,-72.6486 2345.59,-79.4566"/>
</g>
<!-- Node11 -->
<g id="node11" class="node"><title>Node11</title>
<polygon fill="none" stroke="#bfbfbf" points="2414,-56.5 2414,-75.5 2460,-75.5 2460,-56.5 2414,-56.5"/>
<text text-anchor="middle" x="2437" y="-63.5" font-family="Helvetica,sans-Serif" font-size="10.00">cstring</text>
</g>
<!-- Node6&#45;&gt;Node11 -->
<g id="edge10" class="edge"><title>Node6&#45;&gt;Node11</title>
<path fill="none" stroke="midnightblue" d="M2133.03,-116.207C2194.26,-109.762 2302.33,-96.8765 2403.58,-76.0596"/>
<polygon fill="midnightblue" stroke="midnightblue" points="2404.6,-79.4231 2413.67,-73.9536 2403.17,-72.5707 2404.6,-79.4231"/>
</g>
<!-- Node12 -->
<g id="node12" class="node"><title>Node12</title>
<polygon fill="none" stroke="#bfbfbf" points="2478.5,-56.5 2478.5,-75.5 2527.5,-75.5 2527.5,-56.5 2478.5,-56.5"/>
<text text-anchor="middle" x="2503" y="-63.5" font-family="Helvetica,sans-Serif" font-size="10.00">cstdarg</text>
</g>
<!-- Node6&#45;&gt;Node12 -->
<g id="edge11" class="edge"><title>Node6&#45;&gt;Node12</title>
<path fill="none" stroke="midnightblue" d="M2133.26,-117.5C2204.95,-111.913 2342.3,-99.3407 2468.38,-75.856"/>
<polygon fill="midnightblue" stroke="midnightblue" points="2469.03,-79.2945 2478.21,-73.9983 2467.74,-72.4162 2469.03,-79.2945"/>
</g>
<!-- Node13 -->
<g id="node13" class="node"><title>Node13</title>
<polygon fill="none" stroke="#bfbfbf" points="2546,-56.5 2546,-75.5 2590,-75.5 2590,-56.5 2546,-56.5"/>
<text text-anchor="middle" x="2568" y="-63.5" font-family="Helvetica,sans-Serif" font-size="10.00">cmath</text>
</g>
<!-- Node6&#45;&gt;Node13 -->
<g id="edge12" class="edge"><title>Node6&#45;&gt;Node13</title>
<path fill="none" stroke="midnightblue" d="M2133.03,-119.079C2214.8,-115.233 2384.21,-104.536 2535.81,-75.8966"/>
<polygon fill="midnightblue" stroke="midnightblue" points="2536.61,-79.3074 2545.77,-73.9841 2535.29,-72.433 2536.61,-79.3074"/>
</g>
<!-- Node14 -->
<g id="node14" class="node"><title>Node14</title>
<polygon fill="none" stroke="#bfbfbf" points="2608,-56.5 2608,-75.5 2652,-75.5 2652,-56.5 2608,-56.5"/>
<text text-anchor="middle" x="2630" y="-63.5" font-family="Helvetica,sans-Serif" font-size="10.00">vector</text>
</g>
<!-- Node6&#45;&gt;Node14 -->
<g id="edge13" class="edge"><title>Node6&#45;&gt;Node14</title>
<path fill="none" stroke="midnightblue" d="M2133.07,-119.897C2223.45,-117.176 2422.28,-107.982 2597.84,-75.8628"/>
<polygon fill="midnightblue" stroke="midnightblue" points="2598.58,-79.2854 2607.77,-74.0164 2597.3,-72.4033 2598.58,-79.2854"/>
</g>
<!-- Node15 -->
<g id="node15" class="node"><title>Node15</title>
<polygon fill="none" stroke="#bfbfbf" points="2670.5,-56.5 2670.5,-75.5 2705.5,-75.5 2705.5,-56.5 2670.5,-56.5"/>
<text text-anchor="middle" x="2688" y="-63.5" font-family="Helvetica,sans-Serif" font-size="10.00">map</text>
</g>
<!-- Node6&#45;&gt;Node15 -->
<g id="edge14" class="edge"><title>Node6&#45;&gt;Node15</title>
<path fill="none" stroke="midnightblue" d="M2133.19,-121.18C2231.83,-120.679 2460.71,-115.173 2660.36,-75.5697"/>
<polygon fill="midnightblue" stroke="midnightblue" points="2661.34,-78.9434 2670.45,-73.5347 2659.95,-72.0817 2661.34,-78.9434"/>
</g>
<!-- Node16 -->
<g id="node16" class="node"><title>Node16</title>
<polygon fill="none" stroke="#bfbfbf" points="2724,-56.5 2724,-75.5 2754,-75.5 2754,-56.5 2724,-56.5"/>
<text text-anchor="middle" x="2739" y="-63.5" font-family="Helvetica,sans-Serif" font-size="10.00">set</text>
</g>
<!-- Node6&#45;&gt;Node16 -->
<g id="edge16" class="edge"><title>Node6&#45;&gt;Node16</title>
<path fill="none" stroke="midnightblue" d="M2133.23,-119.317C2258.2,-114.759 2586.29,-100.946 2714.03,-75.4823"/>
<polygon fill="midnightblue" stroke="midnightblue" points="2714.9,-78.8766 2723.96,-73.3879 2713.46,-72.0273 2714.9,-78.8766"/>
</g>
<!-- Node17 -->
<g id="node17" class="node"><title>Node17</title>
<polygon fill="none" stroke="#bfbfbf" points="2772.5,-56.5 2772.5,-75.5 2801.5,-75.5 2801.5,-56.5 2772.5,-56.5"/>
<text text-anchor="middle" x="2787" y="-63.5" font-family="Helvetica,sans-Serif" font-size="10.00">list</text>
</g>
<!-- Node6&#45;&gt;Node17 -->
<g id="edge17" class="edge"><title>Node6&#45;&gt;Node17</title>
<path fill="none" stroke="midnightblue" d="M2133.02,-119.61C2264.63,-115.589 2624.46,-102.627 2762.54,-75.2965"/>
<polygon fill="midnightblue" stroke="midnightblue" points="2763.41,-78.6901 2772.48,-73.2176 2761.98,-71.8383 2763.41,-78.6901"/>
</g>
<!-- Node18 -->
<g id="node18" class="node"><title>Node18</title>
<polygon fill="none" stroke="#bfbfbf" points="2819.5,-56.5 2819.5,-75.5 2862.5,-75.5 2862.5,-56.5 2819.5,-56.5"/>
<text text-anchor="middle" x="2841" y="-63.5" font-family="Helvetica,sans-Serif" font-size="10.00">deque</text>
</g>
<!-- Node6&#45;&gt;Node18 -->
<g id="edge18" class="edge"><title>Node6&#45;&gt;Node18</title>
<path fill="none" stroke="midnightblue" d="M2133.07,-119.432C2271.02,-114.796 2661.33,-100.059 2808.98,-75.9296"/>
<polygon fill="midnightblue" stroke="midnightblue" points="2809.92,-79.3191 2819.19,-74.1761 2808.74,-72.4202 2809.92,-79.3191"/>
</g>
<!-- Node19 -->
<g id="node19" class="node"><title>Node19</title>
<polygon fill="none" stroke="#bfbfbf" points="2880.5,-56.5 2880.5,-75.5 2923.5,-75.5 2923.5,-56.5 2880.5,-56.5"/>
<text text-anchor="middle" x="2902" y="-63.5" font-family="Helvetica,sans-Serif" font-size="10.00">queue</text>
</g>
<!-- Node6&#45;&gt;Node19 -->
<g id="edge19" class="edge"><title>Node6&#45;&gt;Node19</title>
<path fill="none" stroke="midnightblue" d="M2133.16,-119.701C2279.22,-115.607 2709.9,-101.793 2870.04,-75.9108"/>
<polygon fill="midnightblue" stroke="midnightblue" points="2870.91,-79.3121 2880.19,-74.1885 2869.74,-72.4107 2870.91,-79.3121"/>
</g>
<!-- Node20 -->
<g id="node20" class="node"><title>Node20</title>
<polygon fill="none" stroke="#bfbfbf" points="2941.5,-56.5 2941.5,-75.5 2982.5,-75.5 2982.5,-56.5 2941.5,-56.5"/>
<text text-anchor="middle" x="2962" y="-63.5" font-family="Helvetica,sans-Serif" font-size="10.00">bitset</text>
</g>
<!-- Node6&#45;&gt;Node20 -->
<g id="edge20" class="edge"><title>Node6&#45;&gt;Node20</title>
<path fill="none" stroke="midnightblue" d="M2133.05,-119.996C2286.79,-116.605 2758.78,-104.262 2931.3,-75.8356"/>
<polygon fill="midnightblue" stroke="midnightblue" points="2931.99,-79.2684 2941.24,-74.1177 2930.79,-72.3705 2931.99,-79.2684"/>
</g>
<!-- Node21 -->
<g id="node21" class="node"><title>Node21</title>
<polygon fill="none" stroke="#bfbfbf" points="3001,-56.5 3001,-75.5 3057,-75.5 3057,-56.5 3001,-56.5"/>
<text text-anchor="middle" x="3029" y="-63.5" font-family="Helvetica,sans-Serif" font-size="10.00">algorithm</text>
</g>
<!-- Node6&#45;&gt;Node21 -->
<g id="edge21" class="edge"><title>Node6&#45;&gt;Node21</title>
<path fill="none" stroke="midnightblue" d="M2133.2,-119.789C2294.2,-115.637 2805.07,-100.918 2990.9,-75.8299"/>
<polygon fill="midnightblue" stroke="midnightblue" points="2991.41,-79.2931 3000.83,-74.4346 2990.44,-72.3613 2991.41,-79.2931"/>
</g>
<!-- Node22 -->
<g id="node22" class="node"><title>Node22</title>
<polygon fill="none" stroke="#bfbfbf" points="925.5,-56.5 925.5,-75.5 984.5,-75.5 984.5,-56.5 925.5,-56.5"/>
<text text-anchor="middle" x="955" y="-63.5" font-family="Helvetica,sans-Serif" font-size="10.00">functional</text>
</g>
<!-- Node6&#45;&gt;Node22 -->
<g id="edge22" class="edge"><title>Node6&#45;&gt;Node22</title>
<path fill="none" stroke="midnightblue" d="M2034.84,-120.183C1853.15,-116.977 1219.01,-104.096 994.752,-75.7702"/>
<polygon fill="midnightblue" stroke="midnightblue" points="995.076,-72.2828 984.706,-74.4532 994.166,-79.2234 995.076,-72.2828"/>
</g>
<!-- Node23 -->
<g id="node23" class="node"><title>Node23</title>
<polygon fill="none" stroke="#bfbfbf" points="1003,-56.5 1003,-75.5 1043,-75.5 1043,-56.5 1003,-56.5"/>
<text text-anchor="middle" x="1023" y="-63.5" font-family="Helvetica,sans-Serif" font-size="10.00">limits</text>
</g>
<!-- Node6&#45;&gt;Node23 -->
<g id="edge23" class="edge"><title>Node6&#45;&gt;Node23</title>
<path fill="none" stroke="midnightblue" d="M2034.96,-120.531C1859.7,-118.6 1264.1,-109.776 1053.17,-75.6662"/>
<polygon fill="midnightblue" stroke="midnightblue" points="1053.56,-72.1831 1043.12,-73.9699 1052.4,-79.0855 1053.56,-72.1831"/>
</g>
<!-- Node24 -->
<g id="node24" class="node"><title>Node24</title>
<polygon fill="none" stroke="#bfbfbf" points="1061,-56.5 1061,-75.5 1111,-75.5 1111,-56.5 1061,-56.5"/>
<text text-anchor="middle" x="1086" y="-63.5" font-family="Helvetica,sans-Serif" font-size="10.00">fstream</text>
</g>
<!-- Node6&#45;&gt;Node24 -->
<g id="edge24" class="edge"><title>Node6&#45;&gt;Node24</title>
<path fill="none" stroke="midnightblue" d="M2034.8,-120.034C1864.39,-116.479 1300.06,-102.915 1121,-76 1120.9,-75.9848 1120.8,-75.9695 1120.7,-75.954"/>
<polygon fill="midnightblue" stroke="midnightblue" points="1121.59,-72.5614 1111.11,-74.113 1120.27,-79.4358 1121.59,-72.5614"/>
</g>
<!-- Node25 -->
<g id="node25" class="node"><title>Node25</title>
<polygon fill="none" stroke="#bfbfbf" points="1129.5,-56.5 1129.5,-75.5 1174.5,-75.5 1174.5,-56.5 1129.5,-56.5"/>
<text text-anchor="middle" x="1152" y="-63.5" font-family="Helvetica,sans-Serif" font-size="10.00">iosfwd</text>
</g>
<!-- Node6&#45;&gt;Node25 -->
<g id="edge25" class="edge"><title>Node6&#45;&gt;Node25</title>
<path fill="none" stroke="midnightblue" d="M2034.91,-119.995C1874.99,-116.498 1369.22,-103.626 1184.7,-75.6323"/>
<polygon fill="midnightblue" stroke="midnightblue" points="1185.01,-72.1376 1174.58,-74.0283 1183.91,-79.0512 1185.01,-72.1376"/>
</g>
<!-- Node26 -->
<g id="node26" class="node"><title>Node26</title>
<polygon fill="none" stroke="#bfbfbf" points="1193,-56.5 1193,-75.5 1245,-75.5 1245,-56.5 1193,-56.5"/>
<text text-anchor="middle" x="1219" y="-63.5" font-family="Helvetica,sans-Serif" font-size="10.00">sstream</text>
</g>
<!-- Node6&#45;&gt;Node26 -->
<g id="edge26" class="edge"><title>Node6&#45;&gt;Node26</title>
<path fill="none" stroke="midnightblue" d="M2034.54,-121.707C1906.79,-122.811 1555.46,-121.265 1255.46,-75.9077"/>
<polygon fill="midnightblue" stroke="midnightblue" points="1255.67,-72.3995 1245.26,-74.3451 1254.61,-79.3188 1255.67,-72.3995"/>
</g>
<!-- Node27 -->
<g id="node27" class="node"><title>Node27</title>
<polygon fill="none" stroke="#bfbfbf" points="1263,-56.5 1263,-75.5 1331,-75.5 1331,-56.5 1263,-56.5"/>
<text text-anchor="middle" x="1297" y="-63.5" font-family="Helvetica,sans-Serif" font-size="10.00">sys/types.h</text>
</g>
<!-- Node6&#45;&gt;Node27 -->
<g id="edge27" class="edge"><title>Node6&#45;&gt;Node27</title>
<path fill="none" stroke="midnightblue" d="M2034.57,-120.497C1916.37,-118.762 1608,-111.085 1341.45,-75.9929"/>
<polygon fill="midnightblue" stroke="midnightblue" points="1341.56,-72.4772 1331.19,-74.6256 1340.64,-79.4159 1341.56,-72.4772"/>
</g>
<!-- Node28 -->
<g id="node28" class="node"><title>Node28</title>
<polygon fill="none" stroke="#bfbfbf" points="1349,-56.5 1349,-75.5 1409,-75.5 1409,-56.5 1349,-56.5"/>
<text text-anchor="middle" x="1379" y="-63.5" font-family="Helvetica,sans-Serif" font-size="10.00">sys/stat.h</text>
</g>
<!-- Node6&#45;&gt;Node28 -->
<g id="edge28" class="edge"><title>Node6&#45;&gt;Node28</title>
<path fill="none" stroke="midnightblue" d="M2034.92,-120.256C1924.39,-118.018 1647.73,-109.27 1419,-76 1418.9,-75.9853 1418.8,-75.9704 1418.7,-75.9555"/>
<polygon fill="midnightblue" stroke="midnightblue" points="1419.5,-72.5427 1409.05,-74.2812 1418.3,-79.4396 1419.5,-72.5427"/>
</g>
<!-- Node29 -->
<g id="node29" class="node"><title>Node29</title>
<polygon fill="none" stroke="#bfbfbf" points="1427.5,-56.5 1427.5,-75.5 1478.5,-75.5 1478.5,-56.5 1427.5,-56.5"/>
<text text-anchor="middle" x="1453" y="-63.5" font-family="Helvetica,sans-Serif" font-size="10.00">unistd.h</text>
</g>
<!-- Node6&#45;&gt;Node29 -->
<g id="edge29" class="edge"><title>Node6&#45;&gt;Node29</title>
<path fill="none" stroke="midnightblue" d="M2034.98,-120.217C1934.27,-117.979 1696.76,-109.466 1488.4,-75.7374"/>
<polygon fill="midnightblue" stroke="midnightblue" points="1488.94,-72.2786 1478.5,-74.1121 1487.8,-79.1861 1488.94,-72.2786"/>
</g>
<!-- Node30 -->
<g id="node30" class="node"><title>Node30</title>
<polygon fill="none" stroke="#bfbfbf" points="1497,-56.5 1497,-75.5 1543,-75.5 1543,-56.5 1497,-56.5"/>
<text text-anchor="middle" x="1520" y="-63.5" font-family="Helvetica,sans-Serif" font-size="10.00">dlfcn.h</text>
</g>
<!-- Node6&#45;&gt;Node30 -->
<g id="edge30" class="edge"><title>Node6&#45;&gt;Node30</title>
<path fill="none" stroke="midnightblue" d="M2034.82,-119.951C1942.17,-117.302 1735.44,-108.196 1553.33,-75.9103"/>
<polygon fill="midnightblue" stroke="midnightblue" points="1553.76,-72.4325 1543.3,-74.1046 1552.52,-79.3217 1553.76,-72.4325"/>
</g>
<!-- Node31 -->
<g id="node31" class="node"><title>Node31</title>
<polygon fill="none" stroke="#bfbfbf" points="1561,-56.5 1561,-75.5 1639,-75.5 1639,-56.5 1561,-56.5"/>
<text text-anchor="middle" x="1600" y="-63.5" font-family="Helvetica,sans-Serif" font-size="10.00">ext/hash_map</text>
</g>
<!-- Node6&#45;&gt;Node31 -->
<g id="edge31" class="edge"><title>Node6&#45;&gt;Node31</title>
<path fill="none" stroke="midnightblue" d="M2034.92,-117.188C1954.19,-110.634 1788.41,-95.9829 1649,-76 1648.9,-75.9854 1648.8,-75.9708 1648.69,-75.9561"/>
<polygon fill="midnightblue" stroke="midnightblue" points="1649.42,-72.5273 1639,-74.4495 1648.35,-79.4442 1649.42,-72.5273"/>
</g>
<!-- Node32 -->
<g id="node32" class="node"><title>Node32</title>
<polygon fill="none" stroke="#bfbfbf" points="1657.5,-56.5 1657.5,-75.5 1730.5,-75.5 1730.5,-56.5 1657.5,-56.5"/>
<text text-anchor="middle" x="1694" y="-63.5" font-family="Helvetica,sans-Serif" font-size="10.00">ext/hash_set</text>
</g>
<!-- Node6&#45;&gt;Node32 -->
<g id="edge32" class="edge"><title>Node6&#45;&gt;Node32</title>
<path fill="none" stroke="midnightblue" d="M2034.87,-115.561C1969.94,-108.156 1851.8,-93.9259 1740.66,-76.0132"/>
<polygon fill="midnightblue" stroke="midnightblue" points="1741.05,-72.5306 1730.62,-74.3813 1739.93,-79.44 1741.05,-72.5306"/>
</g>
<!-- Node33 -->
<g id="node33" class="node"><title>Node33</title>
<polygon fill="none" stroke="#bfbfbf" points="1748.5,-56.5 1748.5,-75.5 1819.5,-75.5 1819.5,-56.5 1748.5,-56.5"/>
<text text-anchor="middle" x="1784" y="-63.5" font-family="Helvetica,sans-Serif" font-size="10.00">sys/param.h</text>
</g>
<!-- Node6&#45;&gt;Node33 -->
<g id="edge33" class="edge"><title>Node6&#45;&gt;Node33</title>
<path fill="none" stroke="midnightblue" d="M2034.58,-112.621C1985.27,-104.184 1907.09,-90.6001 1829.76,-76.1096"/>
<polygon fill="midnightblue" stroke="midnightblue" points="1830.32,-72.6536 1819.85,-74.2457 1829.03,-79.5331 1830.32,-72.6536"/>
</g>
<!-- Node34 -->
<g id="node34" class="node"><title>Node34</title>
<polygon fill="none" stroke="#bfbfbf" points="1838,-56.5 1838,-75.5 2004,-75.5 2004,-56.5 1838,-56.5"/>
<text text-anchor="middle" x="1921" y="-63.5" font-family="Helvetica,sans-Serif" font-size="10.00">CoreFoundation/CoreFoundation.h</text>
</g>
<!-- Node6&#45;&gt;Node34 -->
<g id="edge34" class="edge"><title>Node6&#45;&gt;Node34</title>
<path fill="none" stroke="midnightblue" d="M2058.17,-112.444C2030.75,-103.359 1987.22,-88.9388 1956.57,-78.7831"/>
<polygon fill="midnightblue" stroke="midnightblue" points="1957.3,-75.3389 1946.71,-75.5164 1955.1,-81.9837 1957.3,-75.3389"/>
</g>
<!-- Node35 -->
<g id="node35" class="node"><title>Node35</title>
<polygon fill="none" stroke="#bfbfbf" points="2022,-56.5 2022,-75.5 2146,-75.5 2146,-56.5 2022,-56.5"/>
<text text-anchor="middle" x="2084" y="-63.5" font-family="Helvetica,sans-Serif" font-size="10.00">emscripten/emscripten.h</text>
</g>
<!-- Node6&#45;&gt;Node35 -->
<g id="edge35" class="edge"><title>Node6&#45;&gt;Node35</title>
<path fill="none" stroke="midnightblue" d="M2084,-112.083C2084,-105.006 2084,-94.8611 2084,-85.9865"/>
<polygon fill="midnightblue" stroke="midnightblue" points="2087.5,-85.751 2084,-75.7511 2080.5,-85.7511 2087.5,-85.751"/>
</g>
<!-- Node37 -->
<g id="node37" class="node"><title>Node37</title>
<g id="a_node37"><a xlink:href="_ogre_memory_allocated_object_8h.html" target="_top" xlink:title="OgreMemoryAllocatedObject.h">
<polygon fill="none" stroke="black" points="568,-56.5 568,-75.5 718,-75.5 718,-56.5 568,-56.5"/>
<text text-anchor="middle" x="643" y="-63.5" font-family="Helvetica,sans-Serif" font-size="10.00">OgreMemoryAllocatedObject.h</text>
</a>
</g>
</g>
<!-- Node36&#45;&gt;Node37 -->
<g id="edge37" class="edge"><title>Node36&#45;&gt;Node37</title>
<path fill="none" stroke="midnightblue" d="M583.407,-112.324C594.109,-104.185 610.341,-91.8395 623.163,-82.0874"/>
<polygon fill="midnightblue" stroke="midnightblue" points="625.544,-84.6734 631.385,-75.8339 621.307,-79.1018 625.544,-84.6734"/>
</g>
<!-- Node36&#45;&gt;Node38 -->
<g id="edge41" class="edge"><title>Node36&#45;&gt;Node38</title>
<path fill="none" stroke="midnightblue" d="M553.467,-112.451C523.196,-98.7832 460.996,-71.9335 406,-56 348.857,-39.4445 282.043,-27.2479 234.651,-19.7604"/>
<polygon fill="midnightblue" stroke="midnightblue" points="234.963,-16.2669 224.544,-18.1884 233.887,-23.1837 234.963,-16.2669"/>
</g>
<!-- Node36&#45;&gt;Node39 -->
<g id="edge42" class="edge"><title>Node36&#45;&gt;Node39</title>
<path fill="none" stroke="midnightblue" d="M566.507,-112.368C555.006,-94.2957 528.203,-52.1764 513.014,-28.3074"/>
<polygon fill="midnightblue" stroke="midnightblue" points="515.789,-26.149 507.467,-19.5914 509.883,-29.9071 515.789,-26.149"/>
</g>
<!-- Node37&#45;&gt;Node2 -->
<g id="edge38" class="edge"><title>Node37&#45;&gt;Node2</title>
<path fill="none" stroke="midnightblue" d="M655.965,-75.5914C684.395,-94.4303 752.461,-139.535 787.441,-162.714"/>
<polygon fill="midnightblue" stroke="midnightblue" points="785.705,-165.762 795.974,-168.368 789.572,-159.927 785.705,-165.762"/>
</g>
<!-- Node37&#45;&gt;Node38 -->
<g id="edge39" class="edge"><title>Node37&#45;&gt;Node38</title>
<path fill="none" stroke="midnightblue" d="M568.786,-56.4733C476.566,-45.8778 320.879,-27.9904 234.822,-18.103"/>
<polygon fill="midnightblue" stroke="midnightblue" points="235.016,-14.6023 224.682,-16.9379 234.217,-21.5566 235.016,-14.6023"/>
</g>
<!-- Node37&#45;&gt;Node39 -->
<g id="edge40" class="edge"><title>Node37&#45;&gt;Node39</title>
<path fill="none" stroke="midnightblue" d="M620.658,-56.4435C597.247,-47.4776 560.264,-33.314 533.81,-23.1827"/>
<polygon fill="midnightblue" stroke="midnightblue" points="534.828,-19.8245 524.237,-19.5164 532.324,-26.3615 534.828,-19.8245"/>
</g>
<!-- Node40&#45;&gt;Node2 -->
<g id="edge44" class="edge"><title>Node40&#45;&gt;Node2</title>
<path fill="none" stroke="midnightblue" d="M655.308,-281.301C684.521,-274.736 722.66,-263.219 752,-244 770.951,-231.587 787.37,-211.215 797.654,-196.585"/>
<polygon fill="midnightblue" stroke="midnightblue" points="800.796,-198.188 803.492,-187.942 794.995,-194.27 800.796,-198.188"/>
</g>
<!-- Node40&#45;&gt;Node38 -->
<g id="edge56" class="edge"><title>Node40&#45;&gt;Node38</title>
<path fill="none" stroke="midnightblue" d="M566.989,-285.212C432.814,-273.081 38,-232.813 38,-179 38,-179 38,-179 38,-121 38,-70.3073 95.9148,-38.8301 135.878,-23.144"/>
<polygon fill="midnightblue" stroke="midnightblue" points="137.225,-26.3772 145.355,-19.5841 134.763,-19.8243 137.225,-26.3772"/>
</g>
<!-- Node40&#45;&gt;Node39 -->
<g id="edge58" class="edge"><title>Node40&#45;&gt;Node39</title>
<path fill="none" stroke="midnightblue" d="M612.358,-280.132C614.609,-267.176 619.898,-242.596 630,-224 640.079,-205.446 648.702,-205.164 661,-188 699.202,-134.682 768.584,-106.725 727,-56 706.677,-31.2097 622.981,-19.8041 563.626,-14.7518"/>
<polygon fill="midnightblue" stroke="midnightblue" points="563.836,-11.2575 553.586,-13.9374 563.27,-18.2346 563.836,-11.2575"/>
</g>
<!-- Node41 -->
<g id="node41" class="node"><title>Node41</title>
<g id="a_node41"><a xlink:href="_ogre_atomic_scalar_8h.html" target="_top" xlink:title="OgreAtomicScalar.h">
<polygon fill="none" stroke="red" points="639,-224.5 639,-243.5 743,-243.5 743,-224.5 639,-224.5"/>
<text text-anchor="middle" x="691" y="-231.5" font-family="Helvetica,sans-Serif" font-size="10.00">OgreAtomicScalar.h</text>
</a>
</g>
</g>
<!-- Node40&#45;&gt;Node41 -->
<g id="edge45" class="edge"><title>Node40&#45;&gt;Node41</title>
<path fill="none" stroke="midnightblue" d="M623.853,-280.324C636.216,-271.979 655.13,-259.212 669.737,-249.352"/>
<polygon fill="midnightblue" stroke="midnightblue" points="671.848,-252.15 678.179,-243.655 667.932,-246.348 671.848,-252.15"/>
</g>
<!-- Node42 -->
<g id="node42" class="node"><title>Node42</title>
<g id="a_node42"><a xlink:href="_ogre_thread_headers_8h.html" target="_top" xlink:title="Threading/OgreThreadHeaders.h">
<polygon fill="none" stroke="red" points="494,-168.5 494,-187.5 652,-187.5 652,-168.5 494,-168.5"/>
<text text-anchor="middle" x="573" y="-175.5" font-family="Helvetica,sans-Serif" font-size="10.00">Threading/OgreThreadHeaders.h</text>
</a>
</g>
</g>
<!-- Node40&#45;&gt;Node42 -->
<g id="edge57" class="edge"><title>Node40&#45;&gt;Node42</title>
<path fill="none" stroke="midnightblue" d="M608.018,-280.368C601.858,-262.537 587.611,-221.295 579.312,-197.272"/>
<polygon fill="midnightblue" stroke="midnightblue" points="582.541,-195.9 575.968,-187.591 575.925,-198.186 582.541,-195.9"/>
</g>
<!-- Node43 -->
<g id="node43" class="node"><title>Node43</title>
<g id="a_node43"><a xlink:href="_ogre_string_interface_8h.html" target="_top" xlink:title="OgreStringInterface.h">
<polygon fill="none" stroke="black" points="435,-224.5 435,-243.5 545,-243.5 545,-224.5 435,-224.5"/>
<text text-anchor="middle" x="490" y="-231.5" font-family="Helvetica,sans-Serif" font-size="10.00">OgreStringInterface.h</text>
</a>
</g>
</g>
<!-- Node40&#45;&gt;Node43 -->
<g id="edge48" class="edge"><title>Node40&#45;&gt;Node43</title>
<path fill="none" stroke="midnightblue" d="M591.827,-280.444C572.091,-271.636 541.115,-257.812 518.507,-247.722"/>
<polygon fill="midnightblue" stroke="midnightblue" points="519.641,-244.396 509.083,-243.516 516.789,-250.788 519.641,-244.396"/>
</g>
<!-- Node41&#45;&gt;Node2 -->
<g id="edge46" class="edge"><title>Node41&#45;&gt;Node2</title>
<path fill="none" stroke="midnightblue" d="M709.697,-224.444C728.944,-215.636 759.152,-201.812 781.2,-191.722"/>
<polygon fill="midnightblue" stroke="midnightblue" points="782.753,-194.86 790.39,-187.516 779.84,-188.495 782.753,-194.86"/>
</g>
<!-- Node41&#45;&gt;Node42 -->
<g id="edge47" class="edge"><title>Node41&#45;&gt;Node42</title>
<path fill="none" stroke="midnightblue" d="M672.303,-224.444C653.056,-215.636 622.848,-201.812 600.8,-191.722"/>
<polygon fill="midnightblue" stroke="midnightblue" points="602.16,-188.495 591.61,-187.516 599.247,-194.86 602.16,-188.495"/>
</g>
<!-- Node43&#45;&gt;Node2 -->
<g id="edge49" class="edge"><title>Node43&#45;&gt;Node2</title>
<path fill="none" stroke="midnightblue" d="M540.546,-224.444C597.012,-214.885 688.374,-199.419 748.569,-189.23"/>
<polygon fill="midnightblue" stroke="midnightblue" points="749.414,-192.636 758.69,-187.516 748.246,-185.735 749.414,-192.636"/>
</g>
<!-- Node43&#45;&gt;Node38 -->
<g id="edge54" class="edge"><title>Node43&#45;&gt;Node38</title>
<path fill="none" stroke="midnightblue" d="M434.731,-226.235C368.732,-215.775 257.773,-190.398 182,-132 152.088,-108.947 133.338,-92.2283 144,-56 147.012,-45.7645 153.155,-35.6599 159.014,-27.627"/>
<polygon fill="midnightblue" stroke="midnightblue" points="161.932,-29.5773 165.327,-19.5413 156.414,-25.2694 161.932,-29.5773"/>
</g>
<!-- Node43&#45;&gt;Node39 -->
<g id="edge55" class="edge"><title>Node43&#45;&gt;Node39</title>
<path fill="none" stroke="midnightblue" d="M488.758,-224.397C487.519,-215.358 485.704,-200.715 485,-188 481.807,-130.351 492.354,-62.4615 498.268,-30.0658"/>
<polygon fill="midnightblue" stroke="midnightblue" points="501.786,-30.297 500.203,-19.8211 494.908,-28.9975 501.786,-30.297"/>
</g>
<!-- Node43&#45;&gt;Node42 -->
<g id="edge53" class="edge"><title>Node43&#45;&gt;Node42</title>
<path fill="none" stroke="midnightblue" d="M503.335,-224.324C516.162,-215.979 535.785,-203.212 550.94,-193.352"/>
<polygon fill="midnightblue" stroke="midnightblue" points="553.224,-196.042 559.698,-187.655 549.407,-190.174 553.224,-196.042"/>
</g>
<!-- Node43&#45;&gt;Node44 -->
<g id="edge50" class="edge"><title>Node43&#45;&gt;Node44</title>
<path fill="none" stroke="midnightblue" d="M474.415,-224.324C459.001,-215.743 435.188,-202.486 417.29,-192.522"/>
<polygon fill="midnightblue" stroke="midnightblue" points="418.986,-189.461 408.546,-187.655 415.581,-195.577 418.986,-189.461"/>
</g>
<!-- Node44&#45;&gt;Node38 -->
<g id="edge51" class="edge"><title>Node44&#45;&gt;Node38</title>
<path fill="none" stroke="midnightblue" d="M349.577,-172.985C292.996,-165.158 196.095,-142.291 152,-76 142.288,-61.3987 150.803,-41.9777 159.728,-28.177"/>
<polygon fill="midnightblue" stroke="midnightblue" points="162.842,-29.8357 165.754,-19.6489 157.125,-25.7962 162.842,-29.8357"/>
</g>
<!-- Node44&#45;&gt;Node39 -->
<g id="edge52" class="edge"><title>Node44&#45;&gt;Node39</title>
<path fill="none" stroke="midnightblue" d="M395.655,-168.418C402.364,-147.637 421.516,-93.5595 450,-56 458.68,-44.555 470.686,-33.9284 480.976,-25.8788"/>
<polygon fill="midnightblue" stroke="midnightblue" points="483.218,-28.5715 489.104,-19.7619 479.009,-22.9782 483.218,-28.5715"/>
</g>
<!-- Node45&#45;&gt;Node2 -->
<g id="edge60" class="edge"><title>Node45&#45;&gt;Node2</title>
<path fill="none" stroke="midnightblue" d="M378.594,-226.433C472.106,-216.127 652.4,-196.258 747.235,-185.807"/>
<polygon fill="midnightblue" stroke="midnightblue" points="747.697,-189.277 757.253,-184.703 746.93,-182.319 747.697,-189.277"/>
</g>
<!-- Node46 -->
<g id="node46" class="node"><title>Node46</title>
<g id="a_node46"><a xlink:href="_ogre_iterator_wrapper_8h.html" target="_top" xlink:title="OgreIteratorWrapper.h">
<polygon fill="none" stroke="black" points="284.5,-56.5 284.5,-75.5 397.5,-75.5 397.5,-56.5 284.5,-56.5"/>
<text text-anchor="middle" x="341" y="-63.5" font-family="Helvetica,sans-Serif" font-size="10.00">OgreIteratorWrapper.h</text>
</a>
</g>
</g>
<!-- Node45&#45;&gt;Node46 -->
<g id="edge61" class="edge"><title>Node45&#45;&gt;Node46</title>
<path fill="none" stroke="midnightblue" d="M320.183,-224.075C323.646,-197.945 333.815,-121.211 338.538,-85.577"/>
<polygon fill="midnightblue" stroke="midnightblue" points="342.02,-85.9413 339.864,-75.5681 335.081,-85.0216 342.02,-85.9413"/>
</g>
<!-- Node47 -->
<g id="node47" class="node"><title>Node47</title>
<g id="a_node47"><a xlink:href="_ogre_iterator_range_8h.html" target="_top" xlink:title="OgreIteratorRange.h">
<polygon fill="none" stroke="black" points="161.5,-56.5 161.5,-75.5 266.5,-75.5 266.5,-56.5 161.5,-56.5"/>
<text text-anchor="middle" x="214" y="-63.5" font-family="Helvetica,sans-Serif" font-size="10.00">OgreIteratorRange.h</text>
</a>
</g>
</g>
<!-- Node45&#45;&gt;Node47 -->
<g id="edge64" class="edge"><title>Node45&#45;&gt;Node47</title>
<path fill="none" stroke="midnightblue" d="M313.355,-224.075C296.612,-197.606 247.024,-119.209 224.886,-84.2097"/>
<polygon fill="midnightblue" stroke="midnightblue" points="227.723,-82.1484 219.42,-75.5681 221.807,-85.8904 227.723,-82.1484"/>
</g>
<!-- Node46&#45;&gt;Node38 -->
<g id="edge62" class="edge"><title>Node46&#45;&gt;Node38</title>
<path fill="none" stroke="midnightblue" d="M314.38,-56.4435C285.994,-47.3196 240.863,-32.8133 209.247,-22.6509"/>
<polygon fill="midnightblue" stroke="midnightblue" points="210.087,-19.2445 199.496,-19.5164 207.945,-25.9087 210.087,-19.2445"/>
</g>
<!-- Node46&#45;&gt;Node39 -->
<g id="edge63" class="edge"><title>Node46&#45;&gt;Node39</title>
<path fill="none" stroke="midnightblue" d="M366.511,-56.4435C393.596,-47.3591 436.59,-32.9388 466.869,-22.7831"/>
<polygon fill="midnightblue" stroke="midnightblue" points="468.24,-26.0148 476.608,-19.5164 466.014,-19.3781 468.24,-26.0148"/>
</g>
<!-- Node47&#45;&gt;Node38 -->
<g id="edge65" class="edge"><title>Node47&#45;&gt;Node38</title>
<path fill="none" stroke="midnightblue" d="M207.23,-56.083C201.438,-48.4554 192.942,-37.2645 185.862,-27.9408"/>
<polygon fill="midnightblue" stroke="midnightblue" points="188.479,-25.5991 179.644,-19.7511 182.904,-29.8321 188.479,-25.5991"/>
</g>
<!-- Node47&#45;&gt;Node39 -->
<g id="edge66" class="edge"><title>Node47&#45;&gt;Node39</title>
<path fill="none" stroke="midnightblue" d="M259.634,-56.4435C310.297,-46.9444 392.075,-31.611 446.428,-21.4198"/>
<polygon fill="midnightblue" stroke="midnightblue" points="447.395,-24.7994 456.579,-19.5164 446.105,-17.9193 447.395,-24.7994"/>
</g>
<!-- Node48&#45;&gt;Node2 -->
<g id="edge69" class="edge"><title>Node48&#45;&gt;Node2</title>
<path fill="none" stroke="midnightblue" d="M938.598,-224.444C912.803,-215.399 871.923,-201.064 842.982,-190.916"/>
<polygon fill="midnightblue" stroke="midnightblue" points="843.882,-187.523 833.288,-187.516 841.566,-194.128 843.882,-187.523"/>
</g>
<!-- Node49&#45;&gt;Node2 -->
<g id="edge71" class="edge"><title>Node49&#45;&gt;Node2</title>
<path fill="none" stroke="midnightblue" d="M900.224,-280.495C892.761,-267.573 877.47,-242.543 861,-224 851.214,-212.982 838.775,-202.127 828.517,-193.839"/>
<polygon fill="midnightblue" stroke="midnightblue" points="830.54,-190.977 820.52,-187.534 826.206,-196.474 830.54,-190.977"/>
</g>
<!-- Node49&#45;&gt;Node48 -->
<g id="edge72" class="edge"><title>Node49&#45;&gt;Node48</title>
<path fill="none" stroke="midnightblue" d="M914.319,-280.324C922.893,-272.341 935.812,-260.313 946.188,-250.653"/>
<polygon fill="midnightblue" stroke="midnightblue" points="948.578,-253.21 953.512,-243.834 943.808,-248.086 948.578,-253.21"/>
</g>
<!-- Node50&#45;&gt;Node2 -->
<g id="edge75" class="edge"><title>Node50&#45;&gt;Node2</title>
<path fill="none" stroke="midnightblue" d="M748.419,-280.296C759.373,-272.056 775.092,-258.772 785,-244 794.528,-229.795 800.875,-211.318 804.636,-197.696"/>
<polygon fill="midnightblue" stroke="midnightblue" points="808.132,-198.15 807.2,-187.596 801.347,-196.427 808.132,-198.15"/>
</g>
<!-- Node50&#45;&gt;Node41 -->
<g id="edge76" class="edge"><title>Node50&#45;&gt;Node41</title>
<path fill="none" stroke="midnightblue" d="M728.569,-280.083C722.147,-272.377 712.694,-261.033 704.878,-251.653"/>
<polygon fill="midnightblue" stroke="midnightblue" points="707.383,-249.193 698.293,-243.751 702.006,-253.674 707.383,-249.193"/>
</g>
</g>
</svg>
