<?xml version="1.0" encoding="UTF-8" standalone="no"?>
<!DOCTYPE svg PUBLIC "-//W3C//DTD SVG 1.1//EN"
 "http://www.w3.org/Graphics/SVG/1.1/DTD/svg11.dtd">
<!-- Generated by graphviz version 2.38.0 (20140413.2041)
 -->
<!-- Title: OgreGLDefaultHardwareBufferManager.h Pages: 1 -->
<svg width="2836pt" height="487pt"
 viewBox="0.00 0.00 2836.00 487.00" xmlns="http://www.w3.org/2000/svg" xmlns:xlink="http://www.w3.org/1999/xlink">
<g id="graph0" class="graph" transform="scale(1 1) rotate(0) translate(4 483)">
<title>OgreGLDefaultHardwareBufferManager.h</title>
<!-- Node1 -->
<g id="node1" class="node"><title>Node1</title>
<polygon fill="#bfbfbf" stroke="black" points="1868.5,-448.5 1868.5,-478.5 2018.5,-478.5 2018.5,-448.5 1868.5,-448.5"/>
<text text-anchor="start" x="1876.5" y="-466.5" font-family="Helvetica,sans-Serif" font-size="10.00">OgreGLDefaultHardwareBuffer</text>
<text text-anchor="middle" x="1943.5" y="-455.5" font-family="Helvetica,sans-Serif" font-size="10.00">Manager.h</text>
</g>
<!-- Node2 -->
<g id="node2" class="node"><title>Node2</title>
<g id="a_node2"><a xlink:href="_ogre_g_l_prerequisites_8h.html" target="_top" xlink:title="OgreGLPrerequisites.h">
<polygon fill="none" stroke="black" points="2512.5,-392.5 2512.5,-411.5 2628.5,-411.5 2628.5,-392.5 2512.5,-392.5"/>
<text text-anchor="middle" x="2570.5" y="-399.5" font-family="Helvetica,sans-Serif" font-size="10.00">OgreGLPrerequisites.h</text>
</a>
</g>
</g>
<!-- Node1&#45;&gt;Node2 -->
<g id="edge1" class="edge"><title>Node1&#45;&gt;Node2</title>
<path fill="none" stroke="midnightblue" d="M2018.51,-455.382C2141.37,-443.723 2383.67,-420.73 2502.09,-409.491"/>
<polygon fill="midnightblue" stroke="midnightblue" points="2502.5,-412.968 2512.13,-408.539 2501.84,-406 2502.5,-412.968"/>
</g>
<!-- Node39 -->
<g id="node39" class="node"><title>Node39</title>
<g id="a_node39"><a xlink:href="_ogre_hardware_buffer_manager_8h.html" target="_top" xlink:title="OgreHardwareBufferManager.h">
<polygon fill="none" stroke="black" points="1867.5,-392.5 1867.5,-411.5 2019.5,-411.5 2019.5,-392.5 1867.5,-392.5"/>
<text text-anchor="middle" x="1943.5" y="-399.5" font-family="Helvetica,sans-Serif" font-size="10.00">OgreHardwareBufferManager.h</text>
</a>
</g>
</g>
<!-- Node1&#45;&gt;Node39 -->
<g id="edge39" class="edge"><title>Node1&#45;&gt;Node39</title>
<path fill="none" stroke="midnightblue" d="M1943.5,-448.399C1943.5,-440.466 1943.5,-430.458 1943.5,-421.858"/>
<polygon fill="midnightblue" stroke="midnightblue" points="1947,-421.658 1943.5,-411.658 1940,-421.658 1947,-421.658"/>
</g>
<!-- Node42 -->
<g id="node42" class="node"><title>Node42</title>
<g id="a_node42"><a xlink:href="_ogre_hardware_buffer_8h.html" target="_top" xlink:title="OgreHardwareBuffer.h">
<polygon fill="none" stroke="black" points="1893.5,-280.5 1893.5,-299.5 2007.5,-299.5 2007.5,-280.5 1893.5,-280.5"/>
<text text-anchor="middle" x="1950.5" y="-287.5" font-family="Helvetica,sans-Serif" font-size="10.00">OgreHardwareBuffer.h</text>
</a>
</g>
</g>
<!-- Node1&#45;&gt;Node42 -->
<g id="edge82" class="edge"><title>Node1&#45;&gt;Node42</title>
<path fill="none" stroke="midnightblue" d="M1984.9,-448.401C2001.53,-440.463 2018.99,-428.709 2028.5,-412 2045.21,-382.643 2045.39,-365.25 2028.5,-336 2019.82,-320.977 2004.01,-310.523 1988.88,-303.499"/>
<polygon fill="midnightblue" stroke="midnightblue" points="1990.19,-300.253 1979.62,-299.559 1987.45,-306.694 1990.19,-300.253"/>
</g>
<!-- Node47 -->
<g id="node47" class="node"><title>Node47</title>
<g id="a_node47"><a xlink:href="_ogre_hardware_index_buffer_8h.html" target="_top" xlink:title="OgreHardwareIndexBuffer.h">
<polygon fill="none" stroke="black" points="1714.5,-336.5 1714.5,-355.5 1852.5,-355.5 1852.5,-336.5 1714.5,-336.5"/>
<text text-anchor="middle" x="1783.5" y="-343.5" font-family="Helvetica,sans-Serif" font-size="10.00">OgreHardwareIndexBuffer.h</text>
</a>
</g>
</g>
<!-- Node1&#45;&gt;Node47 -->
<g id="edge81" class="edge"><title>Node1&#45;&gt;Node47</title>
<path fill="none" stroke="midnightblue" d="M1917.08,-448.407C1899.9,-438.862 1877.29,-425.56 1858.5,-412 1837.04,-396.517 1814.34,-376.22 1799.61,-362.456"/>
<polygon fill="midnightblue" stroke="midnightblue" points="1801.98,-359.877 1792.3,-355.554 1797.17,-364.965 1801.98,-359.877"/>
</g>
<!-- Node49 -->
<g id="node49" class="node"><title>Node49</title>
<g id="a_node49"><a xlink:href="_ogre_hardware_vertex_buffer_8h.html" target="_top" xlink:title="OgreHardwareVertexBuffer.h">
<polygon fill="none" stroke="black" points="1469,-336.5 1469,-355.5 1612,-355.5 1612,-336.5 1469,-336.5"/>
<text text-anchor="middle" x="1540.5" y="-343.5" font-family="Helvetica,sans-Serif" font-size="10.00">OgreHardwareVertexBuffer.h</text>
</a>
</g>
</g>
<!-- Node1&#45;&gt;Node49 -->
<g id="edge80" class="edge"><title>Node1&#45;&gt;Node49</title>
<path fill="none" stroke="midnightblue" d="M1894.49,-448.453C1813.75,-425.313 1654.35,-379.63 1580.19,-358.375"/>
<polygon fill="midnightblue" stroke="midnightblue" points="1580.88,-354.933 1570.31,-355.542 1578.95,-361.662 1580.88,-354.933"/>
</g>
<!-- Node3 -->
<g id="node3" class="node"><title>Node3</title>
<g id="a_node3"><a xlink:href="_ogre_prerequisites_8h.html" target="_top" xlink:title="OgrePrerequisites.h">
<polygon fill="none" stroke="black" points="1687,-112.5 1687,-131.5 1790,-131.5 1790,-112.5 1687,-112.5"/>
<text text-anchor="middle" x="1738.5" y="-119.5" font-family="Helvetica,sans-Serif" font-size="10.00">OgrePrerequisites.h</text>
</a>
</g>
</g>
<!-- Node2&#45;&gt;Node3 -->
<g id="edge2" class="edge"><title>Node2&#45;&gt;Node3</title>
<path fill="none" stroke="midnightblue" d="M2539.23,-392.47C2513.85,-384.851 2477.63,-372.369 2448.5,-356 2331.29,-290.131 2336.22,-218.211 2211.5,-168 2138.41,-138.575 1911.01,-128.007 1800.3,-124.538"/>
<polygon fill="midnightblue" stroke="midnightblue" points="1800.38,-121.039 1790.28,-124.234 1800.17,-128.036 1800.38,-121.039"/>
</g>
<!-- Node34 -->
<g id="node34" class="node"><title>Node34</title>
<polygon fill="none" stroke="#bfbfbf" points="2615,-336.5 2615,-355.5 2678,-355.5 2678,-336.5 2615,-336.5"/>
<text text-anchor="middle" x="2646.5" y="-343.5" font-family="Helvetica,sans-Serif" font-size="10.00">windows.h</text>
</g>
<!-- Node2&#45;&gt;Node34 -->
<g id="edge34" class="edge"><title>Node2&#45;&gt;Node34</title>
<path fill="none" stroke="midnightblue" d="M2582.71,-392.324C2594.28,-384.107 2611.88,-371.602 2625.66,-361.807"/>
<polygon fill="midnightblue" stroke="midnightblue" points="2627.94,-364.479 2634.07,-355.834 2623.89,-358.773 2627.94,-364.479"/>
</g>
<!-- Node35 -->
<g id="node35" class="node"><title>Node35</title>
<polygon fill="none" stroke="#bfbfbf" points="2696,-336.5 2696,-355.5 2749,-355.5 2749,-336.5 2696,-336.5"/>
<text text-anchor="middle" x="2722.5" y="-343.5" font-family="Helvetica,sans-Serif" font-size="10.00">wingdi.h</text>
</g>
<!-- Node2&#45;&gt;Node35 -->
<g id="edge35" class="edge"><title>Node2&#45;&gt;Node35</title>
<path fill="none" stroke="midnightblue" d="M2594.58,-392.444C2620.04,-383.399 2660.39,-369.064 2688.96,-358.916"/>
<polygon fill="midnightblue" stroke="midnightblue" points="2690.28,-362.162 2698.53,-355.516 2687.93,-355.566 2690.28,-362.162"/>
</g>
<!-- Node36 -->
<g id="node36" class="node"><title>Node36</title>
<polygon fill="none" stroke="#bfbfbf" points="2767,-336.5 2767,-355.5 2828,-355.5 2828,-336.5 2767,-336.5"/>
<text text-anchor="middle" x="2797.5" y="-343.5" font-family="Helvetica,sans-Serif" font-size="10.00">GL/glew.h</text>
</g>
<!-- Node2&#45;&gt;Node36 -->
<g id="edge36" class="edge"><title>Node2&#45;&gt;Node36</title>
<path fill="none" stroke="midnightblue" d="M2606.47,-392.444C2647.44,-382.697 2714.23,-366.809 2757,-356.635"/>
<polygon fill="midnightblue" stroke="midnightblue" points="2757.88,-360.024 2766.8,-354.304 2756.26,-353.214 2757.88,-360.024"/>
</g>
<!-- Node37 -->
<g id="node37" class="node"><title>Node37</title>
<polygon fill="none" stroke="#bfbfbf" points="2457.5,-336.5 2457.5,-355.5 2525.5,-355.5 2525.5,-336.5 2457.5,-336.5"/>
<text text-anchor="middle" x="2491.5" y="-343.5" font-family="Helvetica,sans-Serif" font-size="10.00">GL/wglew.h</text>
</g>
<!-- Node2&#45;&gt;Node37 -->
<g id="edge37" class="edge"><title>Node2&#45;&gt;Node37</title>
<path fill="none" stroke="midnightblue" d="M2557.81,-392.324C2545.6,-383.979 2526.92,-371.212 2512.5,-361.352"/>
<polygon fill="midnightblue" stroke="midnightblue" points="2514.39,-358.408 2504.16,-355.655 2510.44,-364.187 2514.39,-358.408"/>
</g>
<!-- Node38 -->
<g id="node38" class="node"><title>Node38</title>
<polygon fill="none" stroke="#bfbfbf" points="2544,-336.5 2544,-355.5 2597,-355.5 2597,-336.5 2544,-336.5"/>
<text text-anchor="middle" x="2570.5" y="-343.5" font-family="Helvetica,sans-Serif" font-size="10.00">GL/glu.h</text>
</g>
<!-- Node2&#45;&gt;Node38 -->
<g id="edge38" class="edge"><title>Node2&#45;&gt;Node38</title>
<path fill="none" stroke="midnightblue" d="M2570.5,-392.083C2570.5,-385.006 2570.5,-374.861 2570.5,-365.986"/>
<polygon fill="midnightblue" stroke="midnightblue" points="2574,-365.751 2570.5,-355.751 2567,-365.751 2574,-365.751"/>
</g>
<!-- Node4 -->
<g id="node4" class="node"><title>Node4</title>
<g id="a_node4"><a xlink:href="_ogre_platform_8h.html" target="_top" xlink:title="OgrePlatform.h">
<polygon fill="none" stroke="black" points="1532,-56.5 1532,-75.5 1615,-75.5 1615,-56.5 1532,-56.5"/>
<text text-anchor="middle" x="1573.5" y="-63.5" font-family="Helvetica,sans-Serif" font-size="10.00">OgrePlatform.h</text>
</a>
</g>
</g>
<!-- Node3&#45;&gt;Node4 -->
<g id="edge3" class="edge"><title>Node3&#45;&gt;Node4</title>
<path fill="none" stroke="midnightblue" d="M1712.36,-112.444C1684.48,-103.32 1640.15,-88.8133 1609.1,-78.6509"/>
<polygon fill="midnightblue" stroke="midnightblue" points="1610.12,-75.3005 1599.52,-75.5164 1607.94,-81.9533 1610.12,-75.3005"/>
</g>
<!-- Node6 -->
<g id="node6" class="node"><title>Node6</title>
<polygon fill="none" stroke="#bfbfbf" points="1483,-0.5 1483,-19.5 1524,-19.5 1524,-0.5 1483,-0.5"/>
<text text-anchor="middle" x="1503.5" y="-7.5" font-family="Helvetica,sans-Serif" font-size="10.00">string</text>
</g>
<!-- Node3&#45;&gt;Node6 -->
<g id="edge5" class="edge"><title>Node3&#45;&gt;Node6</title>
<path fill="none" stroke="midnightblue" d="M1686.85,-116.335C1630.75,-110.242 1545.99,-97.706 1522.5,-76 1509.83,-64.29 1505.44,-44.6428 1504,-30.008"/>
<polygon fill="midnightblue" stroke="midnightblue" points="1507.47,-29.3671 1503.38,-19.5932 1500.48,-29.7839 1507.47,-29.3671"/>
</g>
<!-- Node7 -->
<g id="node7" class="node"><title>Node7</title>
<g id="a_node7"><a xlink:href="_ogre_std_headers_8h.html" target="_top" xlink:title="OgreStdHeaders.h">
<polygon fill="none" stroke="red" points="688.5,-56.5 688.5,-75.5 786.5,-75.5 786.5,-56.5 688.5,-56.5"/>
<text text-anchor="middle" x="737.5" y="-63.5" font-family="Helvetica,sans-Serif" font-size="10.00">OgreStdHeaders.h</text>
</a>
</g>
</g>
<!-- Node3&#45;&gt;Node7 -->
<g id="edge6" class="edge"><title>Node3&#45;&gt;Node7</title>
<path fill="none" stroke="midnightblue" d="M1686.79,-118.21C1516.94,-109.048 976.753,-79.9068 796.609,-70.1887"/>
<polygon fill="midnightblue" stroke="midnightblue" points="796.704,-66.6888 786.53,-69.645 796.327,-73.6787 796.704,-66.6888"/>
</g>
<!-- Node31 -->
<g id="node31" class="node"><title>Node31</title>
<g id="a_node31"><a xlink:href="_ogre_memory_allocator_config_8h.html" target="_top" xlink:title="This file configures Ogre&#39;s memory allocators. ">
<polygon fill="none" stroke="red" points="2130.5,-56.5 2130.5,-75.5 2278.5,-75.5 2278.5,-56.5 2130.5,-56.5"/>
<text text-anchor="middle" x="2204.5" y="-63.5" font-family="Helvetica,sans-Serif" font-size="10.00">OgreMemoryAllocatorConfig.h</text>
</a>
</g>
</g>
<!-- Node3&#45;&gt;Node31 -->
<g id="edge31" class="edge"><title>Node3&#45;&gt;Node31</title>
<path fill="none" stroke="midnightblue" d="M1790.15,-115.015C1870.14,-105.745 2024.76,-87.8284 2120.83,-76.6953"/>
<polygon fill="midnightblue" stroke="midnightblue" points="2121.28,-80.1674 2130.81,-75.5395 2120.47,-73.2139 2121.28,-80.1674"/>
</g>
<!-- Node5 -->
<g id="node5" class="node"><title>Node5</title>
<g id="a_node5"><a xlink:href="_ogre_config_8h.html" target="_top" xlink:title="OgreConfig.h">
<polygon fill="none" stroke="red" points="1542.5,-0.5 1542.5,-19.5 1616.5,-19.5 1616.5,-0.5 1542.5,-0.5"/>
<text text-anchor="middle" x="1579.5" y="-7.5" font-family="Helvetica,sans-Serif" font-size="10.00">OgreConfig.h</text>
</a>
</g>
</g>
<!-- Node4&#45;&gt;Node5 -->
<g id="edge4" class="edge"><title>Node4&#45;&gt;Node5</title>
<path fill="none" stroke="midnightblue" d="M1574.49,-56.083C1575.29,-48.9272 1576.43,-38.6353 1577.42,-29.6911"/>
<polygon fill="midnightblue" stroke="midnightblue" points="1580.9,-30.0765 1578.53,-19.7511 1573.94,-29.3034 1580.9,-30.0765"/>
</g>
<!-- Node7&#45;&gt;Node6 -->
<g id="edge16" class="edge"><title>Node7&#45;&gt;Node6</title>
<path fill="none" stroke="midnightblue" d="M786.668,-63.4714C926.01,-58.9105 1322.57,-44.2893 1473.02,-19.5521"/>
<polygon fill="midnightblue" stroke="midnightblue" points="1473.74,-22.9805 1482.99,-17.8309 1472.54,-16.0824 1473.74,-22.9805"/>
</g>
<!-- Node8 -->
<g id="node8" class="node"><title>Node8</title>
<polygon fill="none" stroke="#bfbfbf" points="1355,-0.5 1355,-19.5 1404,-19.5 1404,-0.5 1355,-0.5"/>
<text text-anchor="middle" x="1379.5" y="-7.5" font-family="Helvetica,sans-Serif" font-size="10.00">cassert</text>
</g>
<!-- Node7&#45;&gt;Node8 -->
<g id="edge7" class="edge"><title>Node7&#45;&gt;Node8</title>
<path fill="none" stroke="midnightblue" d="M786.73,-64.432C889.046,-62.5894 1132.11,-54.7709 1344.64,-19.8078"/>
<polygon fill="midnightblue" stroke="midnightblue" points="1345.45,-23.2212 1354.73,-18.1223 1344.29,-16.3167 1345.45,-23.2212"/>
</g>
<!-- Node9 -->
<g id="node9" class="node"><title>Node9</title>
<polygon fill="none" stroke="#bfbfbf" points="1422,-0.5 1422,-19.5 1465,-19.5 1465,-0.5 1422,-0.5"/>
<text text-anchor="middle" x="1443.5" y="-7.5" font-family="Helvetica,sans-Serif" font-size="10.00">cstdio</text>
</g>
<!-- Node7&#45;&gt;Node9 -->
<g id="edge8" class="edge"><title>Node7&#45;&gt;Node9</title>
<path fill="none" stroke="midnightblue" d="M786.64,-65.3386C897.072,-65.3254 1173.2,-60.9684 1412.05,-19.6385"/>
<polygon fill="midnightblue" stroke="midnightblue" points="1412.72,-23.0751 1421.96,-17.8984 1411.51,-16.1806 1412.72,-23.0751"/>
</g>
<!-- Node10 -->
<g id="node10" class="node"><title>Node10</title>
<polygon fill="none" stroke="#bfbfbf" points="0,-0.5 0,-19.5 45,-19.5 45,-0.5 0,-0.5"/>
<text text-anchor="middle" x="22.5" y="-7.5" font-family="Helvetica,sans-Serif" font-size="10.00">cstdlib</text>
</g>
<!-- Node7&#45;&gt;Node10 -->
<g id="edge9" class="edge"><title>Node7&#45;&gt;Node10</title>
<path fill="none" stroke="midnightblue" d="M688.129,-65.4007C576.512,-65.5255 296.301,-61.4518 55.062,-19.9103"/>
<polygon fill="midnightblue" stroke="midnightblue" points="55.5066,-16.435 45.0533,-18.1611 54.3015,-23.3305 55.5066,-16.435"/>
</g>
<!-- Node11 -->
<g id="node11" class="node"><title>Node11</title>
<polygon fill="none" stroke="#bfbfbf" points="63,-0.5 63,-19.5 104,-19.5 104,-0.5 63,-0.5"/>
<text text-anchor="middle" x="83.5" y="-7.5" font-family="Helvetica,sans-Serif" font-size="10.00">ctime</text>
</g>
<!-- Node7&#45;&gt;Node11 -->
<g id="edge10" class="edge"><title>Node7&#45;&gt;Node11</title>
<path fill="none" stroke="midnightblue" d="M688.495,-65.1021C584.226,-64.5392 332.78,-59.0365 114.072,-19.6411"/>
<polygon fill="midnightblue" stroke="midnightblue" points="114.478,-16.1574 104.011,-17.8005 113.218,-23.0431 114.478,-16.1574"/>
</g>
<!-- Node12 -->
<g id="node12" class="node"><title>Node12</title>
<polygon fill="none" stroke="#bfbfbf" points="122.5,-0.5 122.5,-19.5 168.5,-19.5 168.5,-0.5 122.5,-0.5"/>
<text text-anchor="middle" x="145.5" y="-7.5" font-family="Helvetica,sans-Serif" font-size="10.00">cstring</text>
</g>
<!-- Node7&#45;&gt;Node12 -->
<g id="edge11" class="edge"><title>Node7&#45;&gt;Node12</title>
<path fill="none" stroke="midnightblue" d="M688.402,-64.2456C592.151,-62.0786 371.932,-53.7282 178.843,-19.9037"/>
<polygon fill="midnightblue" stroke="midnightblue" points="179.256,-16.4222 168.797,-18.1162 178.029,-23.3139 179.256,-16.4222"/>
</g>
<!-- Node13 -->
<g id="node13" class="node"><title>Node13</title>
<polygon fill="none" stroke="#bfbfbf" points="187,-0.5 187,-19.5 236,-19.5 236,-0.5 187,-0.5"/>
<text text-anchor="middle" x="211.5" y="-7.5" font-family="Helvetica,sans-Serif" font-size="10.00">cstdarg</text>
</g>
<!-- Node7&#45;&gt;Node13 -->
<g id="edge12" class="edge"><title>Node7&#45;&gt;Node13</title>
<path fill="none" stroke="midnightblue" d="M688.256,-63.2267C601,-59.492 413.491,-48.8014 246.245,-19.8251"/>
<polygon fill="midnightblue" stroke="midnightblue" points="246.731,-16.3569 236.275,-18.0716 245.518,-23.251 246.731,-16.3569"/>
</g>
<!-- Node14 -->
<g id="node14" class="node"><title>Node14</title>
<polygon fill="none" stroke="#bfbfbf" points="254.5,-0.5 254.5,-19.5 298.5,-19.5 298.5,-0.5 254.5,-0.5"/>
<text text-anchor="middle" x="276.5" y="-7.5" font-family="Helvetica,sans-Serif" font-size="10.00">cmath</text>
</g>
<!-- Node7&#45;&gt;Node14 -->
<g id="edge13" class="edge"><title>Node7&#45;&gt;Node14</title>
<path fill="none" stroke="midnightblue" d="M688.392,-62.7127C609.974,-58.4393 451.605,-47.2669 308.975,-19.9636"/>
<polygon fill="midnightblue" stroke="midnightblue" points="309.219,-16.4454 298.734,-17.9698 307.881,-23.3164 309.219,-16.4454"/>
</g>
<!-- Node15 -->
<g id="node15" class="node"><title>Node15</title>
<polygon fill="none" stroke="#bfbfbf" points="316.5,-0.5 316.5,-19.5 360.5,-19.5 360.5,-0.5 316.5,-0.5"/>
<text text-anchor="middle" x="338.5" y="-7.5" font-family="Helvetica,sans-Serif" font-size="10.00">vector</text>
</g>
<!-- Node7&#45;&gt;Node15 -->
<g id="edge14" class="edge"><title>Node7&#45;&gt;Node15</title>
<path fill="none" stroke="midnightblue" d="M688.283,-61.5129C619.255,-56.067 489.7,-43.8221 370.749,-19.9623"/>
<polygon fill="midnightblue" stroke="midnightblue" points="371.242,-16.4908 360.744,-17.9224 369.843,-23.3497 371.242,-16.4908"/>
</g>
<!-- Node16 -->
<g id="node16" class="node"><title>Node16</title>
<polygon fill="none" stroke="#bfbfbf" points="379,-0.5 379,-19.5 414,-19.5 414,-0.5 379,-0.5"/>
<text text-anchor="middle" x="396.5" y="-7.5" font-family="Helvetica,sans-Serif" font-size="10.00">map</text>
</g>
<!-- Node7&#45;&gt;Node16 -->
<g id="edge15" class="edge"><title>Node7&#45;&gt;Node16</title>
<path fill="none" stroke="midnightblue" d="M688.311,-60.707C628.066,-54.8415 522.873,-42.6348 423.948,-19.6942"/>
<polygon fill="midnightblue" stroke="midnightblue" points="424.625,-16.2578 414.088,-17.3666 423.016,-23.0706 424.625,-16.2578"/>
</g>
<!-- Node17 -->
<g id="node17" class="node"><title>Node17</title>
<polygon fill="none" stroke="#bfbfbf" points="432.5,-0.5 432.5,-19.5 462.5,-19.5 462.5,-0.5 432.5,-0.5"/>
<text text-anchor="middle" x="447.5" y="-7.5" font-family="Helvetica,sans-Serif" font-size="10.00">set</text>
</g>
<!-- Node7&#45;&gt;Node17 -->
<g id="edge17" class="edge"><title>Node7&#45;&gt;Node17</title>
<path fill="none" stroke="midnightblue" d="M688.358,-59.5449C636.616,-53.1681 552.764,-41.0393 472.376,-19.7949"/>
<polygon fill="midnightblue" stroke="midnightblue" points="473.159,-16.3809 462.592,-17.1587 471.337,-23.1399 473.159,-16.3809"/>
</g>
<!-- Node18 -->
<g id="node18" class="node"><title>Node18</title>
<polygon fill="none" stroke="#bfbfbf" points="481,-0.5 481,-19.5 510,-19.5 510,-0.5 481,-0.5"/>
<text text-anchor="middle" x="495.5" y="-7.5" font-family="Helvetica,sans-Serif" font-size="10.00">list</text>
</g>
<!-- Node7&#45;&gt;Node18 -->
<g id="edge18" class="edge"><title>Node7&#45;&gt;Node18</title>
<path fill="none" stroke="midnightblue" d="M688.202,-57.3424C645.699,-50.1887 582.624,-38.2584 520.436,-20.2259"/>
<polygon fill="midnightblue" stroke="midnightblue" points="521.048,-16.7572 510.466,-17.2792 519.064,-23.4701 521.048,-16.7572"/>
</g>
<!-- Node19 -->
<g id="node19" class="node"><title>Node19</title>
<polygon fill="none" stroke="#bfbfbf" points="528,-0.5 528,-19.5 571,-19.5 571,-0.5 528,-0.5"/>
<text text-anchor="middle" x="549.5" y="-7.5" font-family="Helvetica,sans-Serif" font-size="10.00">deque</text>
</g>
<!-- Node7&#45;&gt;Node19 -->
<g id="edge19" class="edge"><title>Node7&#45;&gt;Node19</title>
<path fill="none" stroke="midnightblue" d="M707.174,-56.4988C677.329,-48.1026 630.208,-34.7669 580.987,-20.4092"/>
<polygon fill="midnightblue" stroke="midnightblue" points="581.7,-16.9711 571.119,-17.5251 579.736,-23.69 581.7,-16.9711"/>
</g>
<!-- Node20 -->
<g id="node20" class="node"><title>Node20</title>
<polygon fill="none" stroke="#bfbfbf" points="589,-0.5 589,-19.5 632,-19.5 632,-0.5 589,-0.5"/>
<text text-anchor="middle" x="610.5" y="-7.5" font-family="Helvetica,sans-Serif" font-size="10.00">queue</text>
</g>
<!-- Node7&#45;&gt;Node20 -->
<g id="edge20" class="edge"><title>Node7&#45;&gt;Node20</title>
<path fill="none" stroke="midnightblue" d="M717.376,-56.4435C696.476,-47.5566 663.565,-33.5632 639.784,-23.4514"/>
<polygon fill="midnightblue" stroke="midnightblue" points="641.102,-20.2085 630.529,-19.5164 638.362,-26.6504 641.102,-20.2085"/>
</g>
<!-- Node21 -->
<g id="node21" class="node"><title>Node21</title>
<polygon fill="none" stroke="#bfbfbf" points="650,-0.5 650,-19.5 691,-19.5 691,-0.5 650,-0.5"/>
<text text-anchor="middle" x="670.5" y="-7.5" font-family="Helvetica,sans-Serif" font-size="10.00">bitset</text>
</g>
<!-- Node7&#45;&gt;Node21 -->
<g id="edge21" class="edge"><title>Node7&#45;&gt;Node21</title>
<path fill="none" stroke="midnightblue" d="M726.735,-56.324C716.734,-48.2631 701.613,-36.0765 689.57,-26.3695"/>
<polygon fill="midnightblue" stroke="midnightblue" points="691.443,-23.3841 681.461,-19.8339 687.05,-28.8343 691.443,-23.3841"/>
</g>
<!-- Node22 -->
<g id="node22" class="node"><title>Node22</title>
<polygon fill="none" stroke="#bfbfbf" points="709.5,-0.5 709.5,-19.5 765.5,-19.5 765.5,-0.5 709.5,-0.5"/>
<text text-anchor="middle" x="737.5" y="-7.5" font-family="Helvetica,sans-Serif" font-size="10.00">algorithm</text>
</g>
<!-- Node7&#45;&gt;Node22 -->
<g id="edge22" class="edge"><title>Node7&#45;&gt;Node22</title>
<path fill="none" stroke="midnightblue" d="M737.5,-56.083C737.5,-49.0059 737.5,-38.8611 737.5,-29.9865"/>
<polygon fill="midnightblue" stroke="midnightblue" points="741,-29.751 737.5,-19.7511 734,-29.7511 741,-29.751"/>
</g>
<!-- Node23 -->
<g id="node23" class="node"><title>Node23</title>
<polygon fill="none" stroke="#bfbfbf" points="784,-0.5 784,-19.5 843,-19.5 843,-0.5 784,-0.5"/>
<text text-anchor="middle" x="813.5" y="-7.5" font-family="Helvetica,sans-Serif" font-size="10.00">functional</text>
</g>
<!-- Node7&#45;&gt;Node23 -->
<g id="edge23" class="edge"><title>Node7&#45;&gt;Node23</title>
<path fill="none" stroke="midnightblue" d="M749.711,-56.324C761.276,-48.1066 778.875,-35.6017 792.661,-25.8069"/>
<polygon fill="midnightblue" stroke="midnightblue" points="794.943,-28.4791 801.067,-19.8339 790.888,-22.7729 794.943,-28.4791"/>
</g>
<!-- Node24 -->
<g id="node24" class="node"><title>Node24</title>
<polygon fill="none" stroke="#bfbfbf" points="861.5,-0.5 861.5,-19.5 901.5,-19.5 901.5,-0.5 861.5,-0.5"/>
<text text-anchor="middle" x="881.5" y="-7.5" font-family="Helvetica,sans-Serif" font-size="10.00">limits</text>
</g>
<!-- Node7&#45;&gt;Node24 -->
<g id="edge24" class="edge"><title>Node7&#45;&gt;Node24</title>
<path fill="none" stroke="midnightblue" d="M760.317,-56.4435C785.038,-47.1732 824.576,-32.3464 851.726,-22.1652"/>
<polygon fill="midnightblue" stroke="midnightblue" points="852.983,-25.4318 861.118,-18.6433 850.526,-18.8775 852.983,-25.4318"/>
</g>
<!-- Node25 -->
<g id="node25" class="node"><title>Node25</title>
<polygon fill="none" stroke="#bfbfbf" points="919.5,-0.5 919.5,-19.5 969.5,-19.5 969.5,-0.5 919.5,-0.5"/>
<text text-anchor="middle" x="944.5" y="-7.5" font-family="Helvetica,sans-Serif" font-size="10.00">fstream</text>
</g>
<!-- Node7&#45;&gt;Node25 -->
<g id="edge25" class="edge"><title>Node7&#45;&gt;Node25</title>
<path fill="none" stroke="midnightblue" d="M770.354,-56.4988C803.19,-47.9925 855.384,-34.4451 909.49,-20.2576"/>
<polygon fill="midnightblue" stroke="midnightblue" points="910.468,-23.6195 919.252,-17.6961 908.691,-16.8486 910.468,-23.6195"/>
</g>
<!-- Node26 -->
<g id="node26" class="node"><title>Node26</title>
<polygon fill="none" stroke="#bfbfbf" points="988,-0.5 988,-19.5 1033,-19.5 1033,-0.5 988,-0.5"/>
<text text-anchor="middle" x="1010.5" y="-7.5" font-family="Helvetica,sans-Serif" font-size="10.00">iosfwd</text>
</g>
<!-- Node7&#45;&gt;Node26 -->
<g id="edge26" class="edge"><title>Node7&#45;&gt;Node26</title>
<path fill="none" stroke="midnightblue" d="M786.695,-57.1417C833.394,-49.385 905.735,-36.6015 977.691,-20.0103"/>
<polygon fill="midnightblue" stroke="midnightblue" points="978.895,-23.3235 987.839,-17.644 977.306,-16.5063 978.895,-23.3235"/>
</g>
<!-- Node27 -->
<g id="node27" class="node"><title>Node27</title>
<polygon fill="none" stroke="#bfbfbf" points="1051.5,-0.5 1051.5,-19.5 1103.5,-19.5 1103.5,-0.5 1051.5,-0.5"/>
<text text-anchor="middle" x="1077.5" y="-7.5" font-family="Helvetica,sans-Serif" font-size="10.00">sstream</text>
</g>
<!-- Node7&#45;&gt;Node27 -->
<g id="edge27" class="edge"><title>Node7&#45;&gt;Node27</title>
<path fill="none" stroke="midnightblue" d="M786.721,-59.2216C845.05,-52.0392 945.337,-38.6404 1041.35,-19.8416"/>
<polygon fill="midnightblue" stroke="midnightblue" points="1042.09,-23.2621 1051.22,-17.8857 1040.73,-16.3955 1042.09,-23.2621"/>
</g>
<!-- Node28 -->
<g id="node28" class="node"><title>Node28</title>
<polygon fill="none" stroke="#bfbfbf" points="1121.5,-0.5 1121.5,-19.5 1189.5,-19.5 1189.5,-0.5 1121.5,-0.5"/>
<text text-anchor="middle" x="1155.5" y="-7.5" font-family="Helvetica,sans-Serif" font-size="10.00">sys/types.h</text>
</g>
<!-- Node7&#45;&gt;Node28 -->
<g id="edge28" class="edge"><title>Node7&#45;&gt;Node28</title>
<path fill="none" stroke="midnightblue" d="M786.533,-60.4883C856.444,-53.7534 988.972,-39.8698 1111.36,-20.0637"/>
<polygon fill="midnightblue" stroke="midnightblue" points="1111.98,-23.5096 1121.28,-18.4415 1110.85,-16.6013 1111.98,-23.5096"/>
</g>
<!-- Node29 -->
<g id="node29" class="node"><title>Node29</title>
<polygon fill="none" stroke="#bfbfbf" points="1207.5,-0.5 1207.5,-19.5 1267.5,-19.5 1267.5,-0.5 1207.5,-0.5"/>
<text text-anchor="middle" x="1237.5" y="-7.5" font-family="Helvetica,sans-Serif" font-size="10.00">sys/stat.h</text>
</g>
<!-- Node7&#45;&gt;Node29 -->
<g id="edge29" class="edge"><title>Node7&#45;&gt;Node29</title>
<path fill="none" stroke="midnightblue" d="M786.556,-62.3043C869.276,-57.3027 1041.88,-44.9075 1197.14,-20.0228"/>
<polygon fill="midnightblue" stroke="midnightblue" points="1198.03,-23.424 1207.34,-18.3656 1196.91,-16.5145 1198.03,-23.424"/>
</g>
<!-- Node30 -->
<g id="node30" class="node"><title>Node30</title>
<polygon fill="none" stroke="#bfbfbf" points="1286,-0.5 1286,-19.5 1337,-19.5 1337,-0.5 1286,-0.5"/>
<text text-anchor="middle" x="1311.5" y="-7.5" font-family="Helvetica,sans-Serif" font-size="10.00">unistd.h</text>
</g>
<!-- Node7&#45;&gt;Node30 -->
<g id="edge30" class="edge"><title>Node7&#45;&gt;Node30</title>
<path fill="none" stroke="midnightblue" d="M786.526,-63.6672C879.964,-60.53 1090.02,-50.6094 1276.03,-19.7641"/>
<polygon fill="midnightblue" stroke="midnightblue" points="1276.71,-23.199 1285.99,-18.0882 1275.55,-16.296 1276.71,-23.199"/>
</g>
<!-- Node32 -->
<g id="node32" class="node"><title>Node32</title>
<g id="a_node32"><a xlink:href="_ogre_header_prefix_8h.html" target="_top" xlink:title="OgreHeaderPrefix.h">
<polygon fill="none" stroke="black" points="1994,-0.5 1994,-19.5 2097,-19.5 2097,-0.5 1994,-0.5"/>
<text text-anchor="middle" x="2045.5" y="-7.5" font-family="Helvetica,sans-Serif" font-size="10.00">OgreHeaderPrefix.h</text>
</a>
</g>
</g>
<!-- Node31&#45;&gt;Node32 -->
<g id="edge32" class="edge"><title>Node31&#45;&gt;Node32</title>
<path fill="none" stroke="midnightblue" d="M2179.31,-56.4435C2152.56,-47.3591 2110.1,-32.9388 2080.19,-22.7831"/>
<polygon fill="midnightblue" stroke="midnightblue" points="2081.17,-19.4182 2070.58,-19.5164 2078.92,-26.0464 2081.17,-19.4182"/>
</g>
<!-- Node33 -->
<g id="node33" class="node"><title>Node33</title>
<g id="a_node33"><a xlink:href="_ogre_header_suffix_8h.html" target="_top" xlink:title="OgreHeaderSuffix.h">
<polygon fill="none" stroke="black" points="2293,-0.5 2293,-19.5 2396,-19.5 2396,-0.5 2293,-0.5"/>
<text text-anchor="middle" x="2344.5" y="-7.5" font-family="Helvetica,sans-Serif" font-size="10.00">OgreHeaderSuffix.h</text>
</a>
</g>
</g>
<!-- Node31&#45;&gt;Node33 -->
<g id="edge33" class="edge"><title>Node31&#45;&gt;Node33</title>
<path fill="none" stroke="midnightblue" d="M2226.68,-56.4435C2249.93,-47.4776 2286.65,-33.314 2312.92,-23.1827"/>
<polygon fill="midnightblue" stroke="midnightblue" points="2314.35,-26.3807 2322.42,-19.5164 2311.83,-19.8497 2314.35,-26.3807"/>
</g>
<!-- Node39&#45;&gt;Node3 -->
<g id="edge40" class="edge"><title>Node39&#45;&gt;Node3</title>
<path fill="none" stroke="midnightblue" d="M1867.26,-394.719C1807.15,-388.315 1729.58,-376.366 1705.5,-356 1681.99,-336.115 1681.5,-321.795 1681.5,-291 1681.5,-291 1681.5,-291 1681.5,-233 1681.5,-196.3 1706.82,-159.657 1723.71,-139.297"/>
<polygon fill="midnightblue" stroke="midnightblue" points="1726.45,-141.475 1730.33,-131.616 1721.15,-136.904 1726.45,-141.475"/>
</g>
<!-- Node39&#45;&gt;Node32 -->
<g id="edge78" class="edge"><title>Node39&#45;&gt;Node32</title>
<path fill="none" stroke="midnightblue" d="M2019.78,-397.765C2098.93,-393.05 2216.16,-381.836 2252.5,-356 2324.76,-304.628 2344.5,-267.659 2344.5,-179 2344.5,-179 2344.5,-179 2344.5,-121 2344.5,-82.5768 2320.89,-75.0038 2287.5,-56 2232.08,-24.4611 2159.04,-14.4004 2107.76,-11.4947"/>
<polygon fill="midnightblue" stroke="midnightblue" points="2107.64,-7.98481 2097.48,-10.9913 2107.3,-14.9764 2107.64,-7.98481"/>
</g>
<!-- Node39&#45;&gt;Node33 -->
<g id="edge79" class="edge"><title>Node39&#45;&gt;Node33</title>
<path fill="none" stroke="midnightblue" d="M2019.57,-400.759C2089.52,-398.258 2195.03,-388.648 2280.5,-356 2369.86,-321.865 2458.5,-330.659 2458.5,-235 2458.5,-235 2458.5,-235 2458.5,-121 2458.5,-74.1149 2407.95,-40.8944 2374.17,-23.9302"/>
<polygon fill="midnightblue" stroke="midnightblue" points="2375.67,-20.7687 2365.14,-19.5787 2372.63,-27.0742 2375.67,-20.7687"/>
</g>
<!-- Node40 -->
<g id="node40" class="node"><title>Node40</title>
<g id="a_node40"><a xlink:href="_ogre_singleton_8h.html" target="_top" xlink:title="OgreSingleton.h">
<polygon fill="none" stroke="black" points="1567.5,-280.5 1567.5,-299.5 1653.5,-299.5 1653.5,-280.5 1567.5,-280.5"/>
<text text-anchor="middle" x="1610.5" y="-287.5" font-family="Helvetica,sans-Serif" font-size="10.00">OgreSingleton.h</text>
</a>
</g>
</g>
<!-- Node39&#45;&gt;Node40 -->
<g id="edge41" class="edge"><title>Node39&#45;&gt;Node40</title>
<path fill="none" stroke="midnightblue" d="M1867.21,-394.374C1797.7,-387.299 1700.94,-374.539 1667.5,-356 1647.28,-344.79 1630.76,-323.538 1620.8,-308.387"/>
<polygon fill="midnightblue" stroke="midnightblue" points="1623.75,-306.503 1615.48,-299.886 1617.82,-310.218 1623.75,-306.503"/>
</g>
<!-- Node41 -->
<g id="node41" class="node"><title>Node41</title>
<g id="a_node41"><a xlink:href="_ogre_hardware_counter_buffer_8h.html" target="_top" xlink:title="OgreHardwareCounterBuffer.h">
<polygon fill="none" stroke="black" points="1871,-336.5 1871,-355.5 2020,-355.5 2020,-336.5 1871,-336.5"/>
<text text-anchor="middle" x="1945.5" y="-343.5" font-family="Helvetica,sans-Serif" font-size="10.00">OgreHardwareCounterBuffer.h</text>
</a>
</g>
</g>
<!-- Node39&#45;&gt;Node41 -->
<g id="edge43" class="edge"><title>Node39&#45;&gt;Node41</title>
<path fill="none" stroke="midnightblue" d="M1943.83,-392.083C1944.09,-385.006 1944.47,-374.861 1944.8,-365.986"/>
<polygon fill="midnightblue" stroke="midnightblue" points="1948.3,-365.874 1945.18,-355.751 1941.31,-365.615 1948.3,-365.874"/>
</g>
<!-- Node46 -->
<g id="node46" class="node"><title>Node46</title>
<g id="a_node46"><a xlink:href="_ogre_thread_headers_8h.html" target="_top" xlink:title="Threading/OgreThreadHeaders.h">
<polygon fill="none" stroke="red" points="2044.5,-168.5 2044.5,-187.5 2202.5,-187.5 2202.5,-168.5 2044.5,-168.5"/>
<text text-anchor="middle" x="2123.5" y="-175.5" font-family="Helvetica,sans-Serif" font-size="10.00">Threading/OgreThreadHeaders.h</text>
</a>
</g>
</g>
<!-- Node39&#45;&gt;Node46 -->
<g id="edge77" class="edge"><title>Node39&#45;&gt;Node46</title>
<path fill="none" stroke="midnightblue" d="M2019.55,-399.944C2095.78,-397.082 2205.58,-387.434 2232.5,-356 2279.17,-301.505 2187.62,-224.906 2144.38,-193.398"/>
<polygon fill="midnightblue" stroke="midnightblue" points="2146.36,-190.514 2136.19,-187.549 2142.3,-196.21 2146.36,-190.514"/>
</g>
<!-- Node39&#45;&gt;Node47 -->
<g id="edge59" class="edge"><title>Node39&#45;&gt;Node47</title>
<path fill="none" stroke="midnightblue" d="M1918.15,-392.444C1891.23,-383.359 1848.5,-368.939 1818.41,-358.783"/>
<polygon fill="midnightblue" stroke="midnightblue" points="1819.33,-355.398 1808.73,-355.516 1817.09,-362.031 1819.33,-355.398"/>
</g>
<!-- Node48 -->
<g id="node48" class="node"><title>Node48</title>
<g id="a_node48"><a xlink:href="_ogre_hardware_uniform_buffer_8h.html" target="_top" xlink:title="OgreHardwareUniformBuffer.h">
<polygon fill="none" stroke="black" points="2075,-336.5 2075,-355.5 2224,-355.5 2224,-336.5 2075,-336.5"/>
<text text-anchor="middle" x="2149.5" y="-343.5" font-family="Helvetica,sans-Serif" font-size="10.00">OgreHardwareUniformBuffer.h</text>
</a>
</g>
</g>
<!-- Node39&#45;&gt;Node48 -->
<g id="edge63" class="edge"><title>Node39&#45;&gt;Node48</title>
<path fill="none" stroke="midnightblue" d="M1976.14,-392.444C2011.55,-383.162 2068.21,-368.309 2107.05,-358.127"/>
<polygon fill="midnightblue" stroke="midnightblue" points="2108.23,-361.438 2117.01,-355.516 2106.45,-354.667 2108.23,-361.438"/>
</g>
<!-- Node39&#45;&gt;Node49 -->
<g id="edge69" class="edge"><title>Node39&#45;&gt;Node49</title>
<path fill="none" stroke="midnightblue" d="M1879.64,-392.444C1807.43,-382.767 1690.02,-367.035 1614.03,-356.853"/>
<polygon fill="midnightblue" stroke="midnightblue" points="1614.43,-353.376 1604.06,-355.516 1613.5,-360.314 1614.43,-353.376"/>
</g>
<!-- Node40&#45;&gt;Node3 -->
<g id="edge42" class="edge"><title>Node40&#45;&gt;Node3</title>
<path fill="none" stroke="midnightblue" d="M1612.72,-280.447C1618.57,-259.265 1636.16,-203.518 1667.5,-168 1679.22,-154.716 1695.8,-143.911 1709.98,-136.221"/>
<polygon fill="midnightblue" stroke="midnightblue" points="1711.6,-139.322 1718.88,-131.623 1708.39,-133.102 1711.6,-139.322"/>
</g>
<!-- Node41&#45;&gt;Node3 -->
<g id="edge44" class="edge"><title>Node41&#45;&gt;Node3</title>
<path fill="none" stroke="midnightblue" d="M1931.7,-336.199C1918.84,-327.691 1899.46,-314.055 1884.5,-300 1828.48,-247.38 1773.96,-173.528 1750.51,-140.344"/>
<polygon fill="midnightblue" stroke="midnightblue" points="1753.1,-137.948 1744.5,-131.765 1747.37,-141.964 1753.1,-137.948"/>
</g>
<!-- Node41&#45;&gt;Node32 -->
<g id="edge57" class="edge"><title>Node41&#45;&gt;Node32</title>
<path fill="none" stroke="midnightblue" d="M1980.3,-336.453C2040.21,-319.644 2161.25,-276.014 2211.5,-188 2215.91,-180.281 2215.96,-175.688 2211.5,-168 2201.16,-150.18 2061.52,-93.4102 2050.5,-76 2041.89,-62.4014 2041.31,-43.8567 2042.48,-30.0553"/>
<polygon fill="midnightblue" stroke="midnightblue" points="2046,-30.144 2043.75,-19.7905 2039.05,-29.2862 2046,-30.144"/>
</g>
<!-- Node41&#45;&gt;Node33 -->
<g id="edge58" class="edge"><title>Node41&#45;&gt;Node33</title>
<path fill="none" stroke="midnightblue" d="M1995.11,-336.479C2029,-329.489 2074.34,-317.803 2111.5,-300 2245.15,-235.972 2301.38,-212.748 2358.5,-76 2364.88,-60.7215 2359.72,-42.1581 2353.94,-28.7874"/>
<polygon fill="midnightblue" stroke="midnightblue" points="2357.07,-27.216 2349.59,-19.7154 2350.76,-30.2452 2357.07,-27.216"/>
</g>
<!-- Node41&#45;&gt;Node42 -->
<g id="edge45" class="edge"><title>Node41&#45;&gt;Node42</title>
<path fill="none" stroke="midnightblue" d="M1946.33,-336.083C1946.98,-329.006 1947.92,-318.861 1948.74,-309.986"/>
<polygon fill="midnightblue" stroke="midnightblue" points="1952.25,-310.031 1949.69,-299.751 1945.28,-309.386 1952.25,-310.031"/>
</g>
<!-- Node44 -->
<g id="node44" class="node"><title>Node44</title>
<g id="a_node44"><a xlink:href="_ogre_shared_ptr_8h.html" target="_top" xlink:title="OgreSharedPtr.h">
<polygon fill="none" stroke="black" points="1748,-280.5 1748,-299.5 1837,-299.5 1837,-280.5 1748,-280.5"/>
<text text-anchor="middle" x="1792.5" y="-287.5" font-family="Helvetica,sans-Serif" font-size="10.00">OgreSharedPtr.h</text>
</a>
</g>
</g>
<!-- Node41&#45;&gt;Node44 -->
<g id="edge51" class="edge"><title>Node41&#45;&gt;Node44</title>
<path fill="none" stroke="midnightblue" d="M1921.26,-336.444C1895.63,-327.399 1855.01,-313.064 1826.26,-302.916"/>
<polygon fill="midnightblue" stroke="midnightblue" points="1827.22,-299.544 1816.63,-299.516 1824.89,-306.145 1827.22,-299.544"/>
</g>
<!-- Node42&#45;&gt;Node3 -->
<g id="edge46" class="edge"><title>Node42&#45;&gt;Node3</title>
<path fill="none" stroke="midnightblue" d="M1923.32,-280.425C1903.41,-273.126 1876.63,-261.087 1857.5,-244 1827.71,-217.386 1837.73,-196.272 1809.5,-168 1796.73,-155.208 1779.69,-144.259 1765.51,-136.366"/>
<polygon fill="midnightblue" stroke="midnightblue" points="1767.14,-133.27 1756.68,-131.631 1763.84,-139.439 1767.14,-133.27"/>
</g>
<!-- Node43 -->
<g id="node43" class="node"><title>Node43</title>
<g id="a_node43"><a xlink:href="_ogre_exception_8h.html" target="_top" xlink:title="OgreException.h">
<polygon fill="none" stroke="red" points="1938,-168.5 1938,-187.5 2027,-187.5 2027,-168.5 1938,-168.5"/>
<text text-anchor="middle" x="1982.5" y="-175.5" font-family="Helvetica,sans-Serif" font-size="10.00">OgreException.h</text>
</a>
</g>
</g>
<!-- Node42&#45;&gt;Node43 -->
<g id="edge47" class="edge"><title>Node42&#45;&gt;Node43</title>
<path fill="none" stroke="midnightblue" d="M1970.72,-280.495C1985.27,-273.168 2003.8,-261.063 2012.5,-244 2020.84,-227.651 2009.58,-208.537 1998.55,-195.287"/>
<polygon fill="midnightblue" stroke="midnightblue" points="2000.84,-192.602 1991.55,-187.515 1995.64,-197.287 2000.84,-192.602"/>
</g>
<!-- Node43&#45;&gt;Node3 -->
<g id="edge48" class="edge"><title>Node43&#45;&gt;Node3</title>
<path fill="none" stroke="midnightblue" d="M1943.84,-168.444C1901.36,-159.043 1833.07,-143.929 1787.03,-133.739"/>
<polygon fill="midnightblue" stroke="midnightblue" points="1787.5,-130.26 1776.98,-131.516 1785.99,-137.095 1787.5,-130.26"/>
</g>
<!-- Node43&#45;&gt;Node32 -->
<g id="edge49" class="edge"><title>Node43&#45;&gt;Node32</title>
<path fill="none" stroke="midnightblue" d="M1983.47,-168.405C1986,-148.041 1993.96,-95.5939 2012.5,-56 2017.27,-45.8195 2024.49,-35.623 2030.97,-27.5165"/>
<polygon fill="midnightblue" stroke="midnightblue" points="2033.82,-29.5582 2037.55,-19.6401 2028.45,-25.07 2033.82,-29.5582"/>
</g>
<!-- Node43&#45;&gt;Node33 -->
<g id="edge50" class="edge"><title>Node43&#45;&gt;Node33</title>
<path fill="none" stroke="midnightblue" d="M2015.29,-168.494C2084.19,-150.243 2241.47,-106.508 2287.5,-76 2306.38,-63.4841 2322.81,-43.1311 2333.12,-28.5334"/>
<polygon fill="midnightblue" stroke="midnightblue" points="2336.25,-30.1516 2338.97,-19.912 2330.46,-26.2201 2336.25,-30.1516"/>
</g>
<!-- Node44&#45;&gt;Node3 -->
<g id="edge52" class="edge"><title>Node44&#45;&gt;Node3</title>
<path fill="none" stroke="midnightblue" d="M1789.6,-280.075C1781.06,-253.832 1755.92,-176.545 1744.39,-141.117"/>
<polygon fill="midnightblue" stroke="midnightblue" points="1747.71,-139.995 1741.29,-131.568 1741.05,-142.16 1747.71,-139.995"/>
</g>
<!-- Node45 -->
<g id="node45" class="node"><title>Node45</title>
<g id="a_node45"><a xlink:href="_ogre_atomic_scalar_8h.html" target="_top" xlink:title="OgreAtomicScalar.h">
<polygon fill="none" stroke="red" points="1899.5,-224.5 1899.5,-243.5 2003.5,-243.5 2003.5,-224.5 1899.5,-224.5"/>
<text text-anchor="middle" x="1951.5" y="-231.5" font-family="Helvetica,sans-Serif" font-size="10.00">OgreAtomicScalar.h</text>
</a>
</g>
</g>
<!-- Node44&#45;&gt;Node45 -->
<g id="edge53" class="edge"><title>Node44&#45;&gt;Node45</title>
<path fill="none" stroke="midnightblue" d="M1817.69,-280.444C1844.44,-271.359 1886.9,-256.939 1916.81,-246.783"/>
<polygon fill="midnightblue" stroke="midnightblue" points="1918.08,-250.046 1926.42,-243.516 1915.83,-243.418 1918.08,-250.046"/>
</g>
<!-- Node45&#45;&gt;Node3 -->
<g id="edge54" class="edge"><title>Node45&#45;&gt;Node3</title>
<path fill="none" stroke="midnightblue" d="M1944.81,-224.062C1933.89,-210.1 1910.92,-183.148 1885.5,-168 1858.12,-151.684 1824.3,-140.798 1796,-133.826"/>
<polygon fill="midnightblue" stroke="midnightblue" points="1796.78,-130.414 1786.24,-131.521 1795.17,-137.226 1796.78,-130.414"/>
</g>
<!-- Node45&#45;&gt;Node43 -->
<g id="edge55" class="edge"><title>Node45&#45;&gt;Node43</title>
<path fill="none" stroke="midnightblue" d="M1956.62,-224.083C1960.91,-216.613 1967.16,-205.724 1972.44,-196.52"/>
<polygon fill="midnightblue" stroke="midnightblue" points="1975.53,-198.166 1977.48,-187.751 1969.46,-194.681 1975.53,-198.166"/>
</g>
<!-- Node45&#45;&gt;Node46 -->
<g id="edge56" class="edge"><title>Node45&#45;&gt;Node46</title>
<path fill="none" stroke="midnightblue" d="M1978.75,-224.444C2007.94,-215.28 2054.42,-200.688 2086.81,-190.519"/>
<polygon fill="midnightblue" stroke="midnightblue" points="2087.88,-193.851 2096.37,-187.516 2085.78,-187.173 2087.88,-193.851"/>
</g>
<!-- Node47&#45;&gt;Node3 -->
<g id="edge60" class="edge"><title>Node47&#45;&gt;Node3</title>
<path fill="none" stroke="midnightblue" d="M1770.44,-336.436C1759.59,-328.471 1744.93,-315.515 1738.5,-300 1716.2,-246.161 1726.94,-174.957 1734,-141.661"/>
<polygon fill="midnightblue" stroke="midnightblue" points="1737.5,-142.081 1736.29,-131.555 1730.67,-140.536 1737.5,-142.081"/>
</g>
<!-- Node47&#45;&gt;Node42 -->
<g id="edge61" class="edge"><title>Node47&#45;&gt;Node42</title>
<path fill="none" stroke="midnightblue" d="M1809.96,-336.444C1838.18,-327.32 1883.04,-312.813 1914.47,-302.651"/>
<polygon fill="midnightblue" stroke="midnightblue" points="1915.72,-305.923 1924.16,-299.516 1913.57,-299.263 1915.72,-305.923"/>
</g>
<!-- Node47&#45;&gt;Node44 -->
<g id="edge62" class="edge"><title>Node47&#45;&gt;Node44</title>
<path fill="none" stroke="midnightblue" d="M1784.99,-336.083C1786.18,-328.927 1787.89,-318.635 1789.38,-309.691"/>
<polygon fill="midnightblue" stroke="midnightblue" points="1792.85,-310.19 1791.04,-299.751 1785.95,-309.04 1792.85,-310.19"/>
</g>
<!-- Node48&#45;&gt;Node3 -->
<g id="edge64" class="edge"><title>Node48&#45;&gt;Node3</title>
<path fill="none" stroke="midnightblue" d="M2134.33,-336.488C2110.04,-323.11 2060.65,-296.943 2016.5,-280 1962.13,-259.133 1938.75,-276.62 1890.5,-244 1855.07,-220.05 1864.73,-194.91 1831.5,-168 1814.13,-153.935 1791.64,-142.901 1773.12,-135.279"/>
<polygon fill="midnightblue" stroke="midnightblue" points="1774.16,-131.928 1763.58,-131.503 1771.59,-138.437 1774.16,-131.928"/>
</g>
<!-- Node48&#45;&gt;Node32 -->
<g id="edge67" class="edge"><title>Node48&#45;&gt;Node32</title>
<path fill="none" stroke="midnightblue" d="M2158.62,-336.487C2184.88,-310.89 2257.01,-232.419 2227.5,-168 2226.94,-166.775 2108.7,-65.2353 2063.13,-26.1236"/>
<polygon fill="midnightblue" stroke="midnightblue" points="2065.38,-23.4412 2055.51,-19.5853 2060.82,-28.7535 2065.38,-23.4412"/>
</g>
<!-- Node48&#45;&gt;Node33 -->
<g id="edge68" class="edge"><title>Node48&#45;&gt;Node33</title>
<path fill="none" stroke="midnightblue" d="M2181.16,-336.393C2237.39,-319.147 2352.85,-274.393 2396.5,-188 2422.96,-135.639 2420.89,-109.357 2396.5,-56 2390.72,-43.3602 2379.45,-32.911 2368.87,-25.2737"/>
<polygon fill="midnightblue" stroke="midnightblue" points="2370.54,-22.1817 2360.28,-19.5333 2366.65,-28.0009 2370.54,-22.1817"/>
</g>
<!-- Node48&#45;&gt;Node42 -->
<g id="edge65" class="edge"><title>Node48&#45;&gt;Node42</title>
<path fill="none" stroke="midnightblue" d="M2117.97,-336.444C2083.91,-327.201 2029.49,-312.436 1991.98,-302.257"/>
<polygon fill="midnightblue" stroke="midnightblue" points="1992.45,-298.758 1981.88,-299.516 1990.62,-305.513 1992.45,-298.758"/>
</g>
<!-- Node48&#45;&gt;Node44 -->
<g id="edge66" class="edge"><title>Node48&#45;&gt;Node44</title>
<path fill="none" stroke="midnightblue" d="M2092.93,-336.444C2025.65,-326.267 1914.11,-309.394 1847.52,-299.322"/>
<polygon fill="midnightblue" stroke="midnightblue" points="1847.64,-295.801 1837.23,-297.766 1846.59,-302.722 1847.64,-295.801"/>
</g>
<!-- Node49&#45;&gt;Node3 -->
<g id="edge70" class="edge"><title>Node49&#45;&gt;Node3</title>
<path fill="none" stroke="midnightblue" d="M1533.67,-336.222C1518.41,-315.462 1484.55,-262.221 1506.5,-224 1540.92,-164.078 1620.64,-139.662 1676.99,-129.742"/>
<polygon fill="midnightblue" stroke="midnightblue" points="1677.58,-133.192 1686.87,-128.107 1676.43,-126.286 1677.58,-133.192"/>
</g>
<!-- Node49&#45;&gt;Node32 -->
<g id="edge75" class="edge"><title>Node49&#45;&gt;Node32</title>
<path fill="none" stroke="midnightblue" d="M1491.73,-336.495C1470.71,-330.151 1448.11,-319.124 1435.5,-300 1403.2,-251.023 1402.49,-216.5 1435.5,-168 1497.55,-76.8273 1840.5,-31.8611 1983.19,-16.8879"/>
<polygon fill="midnightblue" stroke="midnightblue" points="1983.93,-20.33 1993.52,-15.8199 1983.21,-13.3671 1983.93,-20.33"/>
</g>
<!-- Node49&#45;&gt;Node33 -->
<g id="edge76" class="edge"><title>Node49&#45;&gt;Node33</title>
<path fill="none" stroke="midnightblue" d="M1529.49,-336.326C1519.96,-328.105 1506.75,-314.833 1500.5,-300 1477.01,-244.277 1486.44,-205.973 1533.5,-168 1649.72,-74.2236 2113.59,-29.1193 2282.54,-15.559"/>
<polygon fill="midnightblue" stroke="midnightblue" points="2283.07,-19.0284 2292.76,-14.7486 2282.52,-12.0503 2283.07,-19.0284"/>
</g>
<!-- Node49&#45;&gt;Node42 -->
<g id="edge71" class="edge"><title>Node49&#45;&gt;Node42</title>
<path fill="none" stroke="midnightblue" d="M1605.47,-336.444C1681.42,-326.439 1806.51,-309.964 1883.38,-299.84"/>
<polygon fill="midnightblue" stroke="midnightblue" points="1883.98,-303.291 1893.44,-298.515 1883.07,-296.351 1883.98,-303.291"/>
</g>
<!-- Node49&#45;&gt;Node44 -->
<g id="edge72" class="edge"><title>Node49&#45;&gt;Node44</title>
<path fill="none" stroke="midnightblue" d="M1580.43,-336.444C1624.39,-327.023 1695.13,-311.866 1742.68,-301.675"/>
<polygon fill="midnightblue" stroke="midnightblue" points="1743.71,-305.034 1752.76,-299.516 1742.25,-298.189 1743.71,-305.034"/>
</g>
<!-- Node50 -->
<g id="node50" class="node"><title>Node50</title>
<g id="a_node50"><a xlink:href="_ogre_colour_value_8h.html" target="_top" xlink:title="OgreColourValue.h">
<polygon fill="none" stroke="black" points="1516,-224.5 1516,-243.5 1615,-243.5 1615,-224.5 1516,-224.5"/>
<text text-anchor="middle" x="1565.5" y="-231.5" font-family="Helvetica,sans-Serif" font-size="10.00">OgreColourValue.h</text>
</a>
</g>
</g>
<!-- Node49&#45;&gt;Node50 -->
<g id="edge73" class="edge"><title>Node49&#45;&gt;Node50</title>
<path fill="none" stroke="midnightblue" d="M1542.46,-336.368C1546.5,-318.617 1555.8,-277.666 1561.27,-253.597"/>
<polygon fill="midnightblue" stroke="midnightblue" points="1564.74,-254.118 1563.55,-243.591 1557.92,-252.567 1564.74,-254.118"/>
</g>
<!-- Node50&#45;&gt;Node3 -->
<g id="edge74" class="edge"><title>Node50&#45;&gt;Node3</title>
<path fill="none" stroke="midnightblue" d="M1572.1,-224.328C1582.84,-210.73 1605.32,-184.269 1629.5,-168 1651,-153.528 1677.9,-142.364 1699.59,-134.776"/>
<polygon fill="midnightblue" stroke="midnightblue" points="1700.8,-138.061 1709.16,-131.542 1698.56,-131.43 1700.8,-138.061"/>
</g>
</g>
</svg>
