<?xml version="1.0" encoding="UTF-8" standalone="no"?>
<!DOCTYPE svg PUBLIC "-//W3C//DTD SVG 1.1//EN"
 "http://www.w3.org/Graphics/SVG/1.1/DTD/svg11.dtd">
<!-- Generated by graphviz version 2.38.0 (20140413.2041)
 -->
<!-- Title: OgreHardwareCounterBuffer.h Pages: 1 -->
<svg width="3074pt" height="476pt"
 viewBox="0.00 0.00 3074.00 476.00" xmlns="http://www.w3.org/2000/svg" xmlns:xlink="http://www.w3.org/1999/xlink">
<g id="graph0" class="graph" transform="scale(1 1) rotate(0) translate(4 472)">
<title>OgreHardwareCounterBuffer.h</title>
<!-- Node1 -->
<g id="node1" class="node"><title>Node1</title>
<polygon fill="#bfbfbf" stroke="black" points="2121.5,-448.5 2121.5,-467.5 2270.5,-467.5 2270.5,-448.5 2121.5,-448.5"/>
<text text-anchor="middle" x="2196" y="-455.5" font-family="Helvetica,sans-Serif" font-size="10.00">OgreHardwareCounterBuffer.h</text>
</g>
<!-- Node2 -->
<g id="node2" class="node"><title>Node2</title>
<g id="a_node2"><a xlink:href="_ogre_prerequisites_8h.html" target="_top" xlink:title="OgrePrerequisites.h">
<polygon fill="none" stroke="black" points="2219.5,-168.5 2219.5,-187.5 2322.5,-187.5 2322.5,-168.5 2219.5,-168.5"/>
<text text-anchor="middle" x="2271" y="-175.5" font-family="Helvetica,sans-Serif" font-size="10.00">OgrePrerequisites.h</text>
</a>
</g>
</g>
<!-- Node1&#45;&gt;Node2 -->
<g id="edge1" class="edge"><title>Node1&#45;&gt;Node2</title>
<path fill="none" stroke="midnightblue" d="M2180.31,-448.396C2153.33,-432.314 2101,-394.943 2101,-347 2101,-347 2101,-347 2101,-289 2101,-232.809 2167.28,-203.903 2217.06,-190.116"/>
<polygon fill="midnightblue" stroke="midnightblue" points="2218,-193.49 2226.78,-187.557 2216.22,-186.721 2218,-193.49"/>
</g>
<!-- Node39 -->
<g id="node39" class="node"><title>Node39</title>
<g id="a_node39"><a xlink:href="_ogre_header_prefix_8h.html" target="_top" xlink:title="OgreHeaderPrefix.h">
<polygon fill="none" stroke="black" points="2900.5,-0.5 2900.5,-19.5 3003.5,-19.5 3003.5,-0.5 2900.5,-0.5"/>
<text text-anchor="middle" x="2952" y="-7.5" font-family="Helvetica,sans-Serif" font-size="10.00">OgreHeaderPrefix.h</text>
</a>
</g>
</g>
<!-- Node1&#45;&gt;Node39 -->
<g id="edge70" class="edge"><title>Node1&#45;&gt;Node39</title>
<path fill="none" stroke="midnightblue" d="M2270.55,-455.353C2481.26,-449.717 3066,-426.881 3066,-347 3066,-347 3066,-347 3066,-121 3066,-74.1149 3015.45,-40.8944 2981.67,-23.9302"/>
<polygon fill="midnightblue" stroke="midnightblue" points="2983.17,-20.7687 2972.64,-19.5787 2980.13,-27.0742 2983.17,-20.7687"/>
</g>
<!-- Node40 -->
<g id="node40" class="node"><title>Node40</title>
<g id="a_node40"><a xlink:href="_ogre_header_suffix_8h.html" target="_top" xlink:title="OgreHeaderSuffix.h">
<polygon fill="none" stroke="black" points="2389.5,-0.5 2389.5,-19.5 2492.5,-19.5 2492.5,-0.5 2389.5,-0.5"/>
<text text-anchor="middle" x="2441" y="-7.5" font-family="Helvetica,sans-Serif" font-size="10.00">OgreHeaderSuffix.h</text>
</a>
</g>
</g>
<!-- Node1&#45;&gt;Node40 -->
<g id="edge71" class="edge"><title>Node1&#45;&gt;Node40</title>
<path fill="none" stroke="midnightblue" d="M2121.39,-457.033C1749.86,-456.718 117,-449.503 117,-347 117,-347 117,-347 117,-121 117,-90.9022 112.094,-74.2858 136,-56 181.843,-20.935 2017.29,-12.5234 2379.35,-11.204"/>
<polygon fill="midnightblue" stroke="midnightblue" points="2379.39,-14.704 2389.38,-11.1679 2379.36,-7.704 2379.39,-14.704"/>
</g>
<!-- Node43 -->
<g id="node43" class="node"><title>Node43</title>
<g id="a_node43"><a xlink:href="_ogre_hardware_buffer_8h.html" target="_top" xlink:title="OgreHardwareBuffer.h">
<polygon fill="none" stroke="black" points="2406,-336.5 2406,-355.5 2520,-355.5 2520,-336.5 2406,-336.5"/>
<text text-anchor="middle" x="2463" y="-343.5" font-family="Helvetica,sans-Serif" font-size="10.00">OgreHardwareBuffer.h</text>
</a>
</g>
</g>
<!-- Node1&#45;&gt;Node43 -->
<g id="edge51" class="edge"><title>Node1&#45;&gt;Node43</title>
<path fill="none" stroke="midnightblue" d="M2216.95,-448.368C2263.94,-429.01 2377.89,-382.065 2432.64,-359.507"/>
<polygon fill="midnightblue" stroke="midnightblue" points="2434.23,-362.637 2442.15,-355.591 2431.57,-356.165 2434.23,-362.637"/>
</g>
<!-- Node47 -->
<g id="node47" class="node"><title>Node47</title>
<g id="a_node47"><a xlink:href="_ogre_shared_ptr_8h.html" target="_top" xlink:title="OgreSharedPtr.h">
<polygon fill="none" stroke="black" points="2151.5,-392.5 2151.5,-411.5 2240.5,-411.5 2240.5,-392.5 2151.5,-392.5"/>
<text text-anchor="middle" x="2196" y="-399.5" font-family="Helvetica,sans-Serif" font-size="10.00">OgreSharedPtr.h</text>
</a>
</g>
</g>
<!-- Node1&#45;&gt;Node47 -->
<g id="edge62" class="edge"><title>Node1&#45;&gt;Node47</title>
<path fill="none" stroke="midnightblue" d="M2196,-448.083C2196,-441.006 2196,-430.861 2196,-421.986"/>
<polygon fill="midnightblue" stroke="midnightblue" points="2199.5,-421.751 2196,-411.751 2192.5,-421.751 2199.5,-421.751"/>
</g>
<!-- Node3 -->
<g id="node3" class="node"><title>Node3</title>
<g id="a_node3"><a xlink:href="_ogre_platform_8h.html" target="_top" xlink:title="OgrePlatform.h">
<polygon fill="none" stroke="black" points="376.5,-112.5 376.5,-131.5 459.5,-131.5 459.5,-112.5 376.5,-112.5"/>
<text text-anchor="middle" x="418" y="-119.5" font-family="Helvetica,sans-Serif" font-size="10.00">OgrePlatform.h</text>
</a>
</g>
</g>
<!-- Node2&#45;&gt;Node3 -->
<g id="edge2" class="edge"><title>Node2&#45;&gt;Node3</title>
<path fill="none" stroke="midnightblue" d="M2219.02,-175.485C1951.95,-167.702 736.341,-132.277 469.771,-124.509"/>
<polygon fill="midnightblue" stroke="midnightblue" points="469.698,-121.005 459.6,-124.212 469.494,-128.002 469.698,-121.005"/>
</g>
<!-- Node6 -->
<g id="node6" class="node"><title>Node6</title>
<polygon fill="none" stroke="#bfbfbf" points="145.5,-56.5 145.5,-75.5 186.5,-75.5 186.5,-56.5 145.5,-56.5"/>
<text text-anchor="middle" x="166" y="-63.5" font-family="Helvetica,sans-Serif" font-size="10.00">string</text>
</g>
<!-- Node2&#45;&gt;Node6 -->
<g id="edge5" class="edge"><title>Node2&#45;&gt;Node6</title>
<path fill="none" stroke="midnightblue" d="M2219.25,-176.298C1941.22,-172.257 622.011,-149.553 196.638,-75.861"/>
<polygon fill="midnightblue" stroke="midnightblue" points="197.214,-72.4086 186.757,-74.1107 195.993,-79.3013 197.214,-72.4086"/>
</g>
<!-- Node7 -->
<g id="node7" class="node"><title>Node7</title>
<g id="a_node7"><a xlink:href="_ogre_std_headers_8h.html" target="_top" xlink:title="OgreStdHeaders.h">
<polygon fill="none" stroke="black" points="1209,-112.5 1209,-131.5 1307,-131.5 1307,-112.5 1209,-112.5"/>
<text text-anchor="middle" x="1258" y="-119.5" font-family="Helvetica,sans-Serif" font-size="10.00">OgreStdHeaders.h</text>
</a>
</g>
</g>
<!-- Node2&#45;&gt;Node7 -->
<g id="edge6" class="edge"><title>Node2&#45;&gt;Node7</title>
<path fill="none" stroke="midnightblue" d="M2219.37,-174.248C2048.12,-165.119 1499.36,-135.866 1317.31,-126.162"/>
<polygon fill="midnightblue" stroke="midnightblue" points="1317.3,-122.656 1307.13,-125.619 1316.93,-129.647 1317.3,-122.656"/>
</g>
<!-- Node37 -->
<g id="node37" class="node"><title>Node37</title>
<g id="a_node37"><a xlink:href="_ogre_memory_allocator_config_8h.html" target="_top" xlink:title="This file configures Ogre&#39;s memory allocators. ">
<polygon fill="none" stroke="black" points="2540,-112.5 2540,-131.5 2688,-131.5 2688,-112.5 2540,-112.5"/>
<text text-anchor="middle" x="2614" y="-119.5" font-family="Helvetica,sans-Serif" font-size="10.00">OgreMemoryAllocatorConfig.h</text>
</a>
</g>
</g>
<!-- Node2&#45;&gt;Node37 -->
<g id="edge37" class="edge"><title>Node2&#45;&gt;Node37</title>
<path fill="none" stroke="midnightblue" d="M2322.72,-168.857C2383.39,-159.306 2483.99,-143.468 2549.65,-133.131"/>
<polygon fill="midnightblue" stroke="midnightblue" points="2550.54,-136.534 2559.87,-131.522 2549.45,-129.619 2550.54,-136.534"/>
</g>
<!-- Node4 -->
<g id="node4" class="node"><title>Node4</title>
<g id="a_node4"><a xlink:href="_ogre_config_8h.html" target="_top" xlink:title="OgreConfig.h">
<polygon fill="none" stroke="black" points="15,-56.5 15,-75.5 89,-75.5 89,-56.5 15,-56.5"/>
<text text-anchor="middle" x="52" y="-63.5" font-family="Helvetica,sans-Serif" font-size="10.00">OgreConfig.h</text>
</a>
</g>
</g>
<!-- Node3&#45;&gt;Node4 -->
<g id="edge3" class="edge"><title>Node3&#45;&gt;Node4</title>
<path fill="none" stroke="midnightblue" d="M376.371,-114.858C307.798,-104.741 171.509,-84.6324 99.3573,-73.9871"/>
<polygon fill="midnightblue" stroke="midnightblue" points="99.5969,-70.4847 89.1931,-72.4875 98.5751,-77.4097 99.5969,-70.4847"/>
</g>
<!-- Node5 -->
<g id="node5" class="node"><title>Node5</title>
<polygon fill="none" stroke="#bfbfbf" points="0,-0.5 0,-19.5 104,-19.5 104,-0.5 0,-0.5"/>
<text text-anchor="middle" x="52" y="-7.5" font-family="Helvetica,sans-Serif" font-size="10.00">OgreBuildSettings.h</text>
</g>
<!-- Node4&#45;&gt;Node5 -->
<g id="edge4" class="edge"><title>Node4&#45;&gt;Node5</title>
<path fill="none" stroke="midnightblue" d="M52,-56.083C52,-49.0059 52,-38.8611 52,-29.9865"/>
<polygon fill="midnightblue" stroke="midnightblue" points="55.5001,-29.751 52,-19.7511 48.5001,-29.7511 55.5001,-29.751"/>
</g>
<!-- Node7&#45;&gt;Node6 -->
<g id="edge16" class="edge"><title>Node7&#45;&gt;Node6</title>
<path fill="none" stroke="midnightblue" d="M1208.72,-119.269C1014.01,-112.384 304.022,-86.8504 196.768,-75.4616"/>
<polygon fill="midnightblue" stroke="midnightblue" points="197.122,-71.9781 186.751,-74.145 196.21,-78.9184 197.122,-71.9781"/>
</g>
<!-- Node8 -->
<g id="node8" class="node"><title>Node8</title>
<polygon fill="none" stroke="#bfbfbf" points="1637.5,-56.5 1637.5,-75.5 1686.5,-75.5 1686.5,-56.5 1637.5,-56.5"/>
<text text-anchor="middle" x="1662" y="-63.5" font-family="Helvetica,sans-Serif" font-size="10.00">cassert</text>
</g>
<!-- Node7&#45;&gt;Node8 -->
<g id="edge7" class="edge"><title>Node7&#45;&gt;Node8</title>
<path fill="none" stroke="midnightblue" d="M1307.27,-117.321C1376.72,-111.63 1507.47,-99.073 1627.16,-76.1319"/>
<polygon fill="midnightblue" stroke="midnightblue" points="1628.08,-79.5187 1637.23,-74.1724 1626.74,-72.6476 1628.08,-79.5187"/>
</g>
<!-- Node9 -->
<g id="node9" class="node"><title>Node9</title>
<polygon fill="none" stroke="#bfbfbf" points="1704.5,-56.5 1704.5,-75.5 1747.5,-75.5 1747.5,-56.5 1704.5,-56.5"/>
<text text-anchor="middle" x="1726" y="-63.5" font-family="Helvetica,sans-Serif" font-size="10.00">cstdio</text>
</g>
<!-- Node7&#45;&gt;Node9 -->
<g id="edge8" class="edge"><title>Node7&#45;&gt;Node9</title>
<path fill="none" stroke="midnightblue" d="M1307.25,-118.819C1386.79,-114.668 1548.48,-103.626 1694.41,-75.7452"/>
<polygon fill="midnightblue" stroke="midnightblue" points="1695.29,-79.139 1704.44,-73.7966 1693.96,-72.2674 1695.29,-79.139"/>
</g>
<!-- Node10 -->
<g id="node10" class="node"><title>Node10</title>
<polygon fill="none" stroke="#bfbfbf" points="1765.5,-56.5 1765.5,-75.5 1810.5,-75.5 1810.5,-56.5 1765.5,-56.5"/>
<text text-anchor="middle" x="1788" y="-63.5" font-family="Helvetica,sans-Serif" font-size="10.00">cstdlib</text>
</g>
<!-- Node7&#45;&gt;Node10 -->
<g id="edge9" class="edge"><title>Node7&#45;&gt;Node10</title>
<path fill="none" stroke="midnightblue" d="M1307.18,-119.553C1395.3,-116.31 1585.92,-106.345 1755.54,-75.7202"/>
<polygon fill="midnightblue" stroke="midnightblue" points="1756.19,-79.1596 1765.4,-73.9132 1754.93,-72.2744 1756.19,-79.1596"/>
</g>
<!-- Node11 -->
<g id="node11" class="node"><title>Node11</title>
<polygon fill="none" stroke="#bfbfbf" points="1828.5,-56.5 1828.5,-75.5 1869.5,-75.5 1869.5,-56.5 1828.5,-56.5"/>
<text text-anchor="middle" x="1849" y="-63.5" font-family="Helvetica,sans-Serif" font-size="10.00">ctime</text>
</g>
<!-- Node7&#45;&gt;Node11 -->
<g id="edge10" class="edge"><title>Node7&#45;&gt;Node11</title>
<path fill="none" stroke="midnightblue" d="M1307.24,-120.533C1403.75,-118.868 1624.51,-111.361 1818.4,-75.6657"/>
<polygon fill="midnightblue" stroke="midnightblue" points="1819.3,-79.0577 1828.48,-73.7781 1818.01,-72.1771 1819.3,-79.0577"/>
</g>
<!-- Node12 -->
<g id="node12" class="node"><title>Node12</title>
<polygon fill="none" stroke="#bfbfbf" points="1888,-56.5 1888,-75.5 1934,-75.5 1934,-56.5 1888,-56.5"/>
<text text-anchor="middle" x="1911" y="-63.5" font-family="Helvetica,sans-Serif" font-size="10.00">cstring</text>
</g>
<!-- Node7&#45;&gt;Node12 -->
<g id="edge11" class="edge"><title>Node7&#45;&gt;Node12</title>
<path fill="none" stroke="midnightblue" d="M1307.02,-120.658C1410.72,-119.242 1659.94,-112.188 1877.67,-75.6631"/>
<polygon fill="midnightblue" stroke="midnightblue" points="1878.42,-79.0867 1887.69,-73.958 1877.24,-72.1859 1878.42,-79.0867"/>
</g>
<!-- Node13 -->
<g id="node13" class="node"><title>Node13</title>
<polygon fill="none" stroke="#bfbfbf" points="1952.5,-56.5 1952.5,-75.5 2001.5,-75.5 2001.5,-56.5 1952.5,-56.5"/>
<text text-anchor="middle" x="1977" y="-63.5" font-family="Helvetica,sans-Serif" font-size="10.00">cstdarg</text>
</g>
<!-- Node7&#45;&gt;Node13 -->
<g id="edge12" class="edge"><title>Node7&#45;&gt;Node13</title>
<path fill="none" stroke="midnightblue" d="M1307.38,-121.013C1419.02,-120.343 1699.38,-114.742 1942.16,-75.7857"/>
<polygon fill="midnightblue" stroke="midnightblue" points="1942.93,-79.2072 1952.24,-74.1465 1941.8,-72.2981 1942.93,-79.2072"/>
</g>
<!-- Node14 -->
<g id="node14" class="node"><title>Node14</title>
<polygon fill="none" stroke="#bfbfbf" points="2020,-56.5 2020,-75.5 2064,-75.5 2064,-56.5 2020,-56.5"/>
<text text-anchor="middle" x="2042" y="-63.5" font-family="Helvetica,sans-Serif" font-size="10.00">cmath</text>
</g>
<!-- Node7&#45;&gt;Node14 -->
<g id="edge13" class="edge"><title>Node7&#45;&gt;Node14</title>
<path fill="none" stroke="midnightblue" d="M1307.24,-121.683C1426.48,-122.561 1740.09,-120.237 2009.78,-75.5877"/>
<polygon fill="midnightblue" stroke="midnightblue" points="2010.48,-79.0201 2019.76,-73.913 2009.32,-72.1166 2010.48,-79.0201"/>
</g>
<!-- Node15 -->
<g id="node15" class="node"><title>Node15</title>
<polygon fill="none" stroke="#bfbfbf" points="2082,-56.5 2082,-75.5 2126,-75.5 2126,-56.5 2082,-56.5"/>
<text text-anchor="middle" x="2104" y="-63.5" font-family="Helvetica,sans-Serif" font-size="10.00">vector</text>
</g>
<!-- Node7&#45;&gt;Node15 -->
<g id="edge14" class="edge"><title>Node7&#45;&gt;Node15</title>
<path fill="none" stroke="midnightblue" d="M1307.2,-119.75C1456.78,-115.723 1905.48,-101.916 2071.72,-75.7628"/>
<polygon fill="midnightblue" stroke="midnightblue" points="2072.49,-79.1836 2081.79,-74.1039 2071.35,-72.2768 2072.49,-79.1836"/>
</g>
<!-- Node16 -->
<g id="node16" class="node"><title>Node16</title>
<polygon fill="none" stroke="#bfbfbf" points="2144.5,-56.5 2144.5,-75.5 2179.5,-75.5 2179.5,-56.5 2144.5,-56.5"/>
<text text-anchor="middle" x="2162" y="-63.5" font-family="Helvetica,sans-Serif" font-size="10.00">map</text>
</g>
<!-- Node7&#45;&gt;Node16 -->
<g id="edge15" class="edge"><title>Node7&#45;&gt;Node16</title>
<path fill="none" stroke="midnightblue" d="M1307,-120.226C1464.15,-117.476 1955.14,-106.739 2134.38,-75.4498"/>
<polygon fill="midnightblue" stroke="midnightblue" points="2135.26,-78.8478 2144.46,-73.6042 2134,-71.9622 2135.26,-78.8478"/>
</g>
<!-- Node17 -->
<g id="node17" class="node"><title>Node17</title>
<polygon fill="none" stroke="#bfbfbf" points="2198,-56.5 2198,-75.5 2228,-75.5 2228,-56.5 2198,-56.5"/>
<text text-anchor="middle" x="2213" y="-63.5" font-family="Helvetica,sans-Serif" font-size="10.00">set</text>
</g>
<!-- Node7&#45;&gt;Node17 -->
<g id="edge17" class="edge"><title>Node7&#45;&gt;Node17</title>
<path fill="none" stroke="midnightblue" d="M1307.06,-120.543C1473.68,-118.692 2016.99,-110.122 2188,-76 2188.1,-75.9797 2188.2,-75.959 2188.31,-75.9381"/>
<polygon fill="midnightblue" stroke="midnightblue" points="2189.18,-79.3268 2197.87,-73.2575 2187.29,-72.5867 2189.18,-79.3268"/>
</g>
<!-- Node18 -->
<g id="node18" class="node"><title>Node18</title>
<polygon fill="none" stroke="#bfbfbf" points="2246.5,-56.5 2246.5,-75.5 2275.5,-75.5 2275.5,-56.5 2246.5,-56.5"/>
<text text-anchor="middle" x="2261" y="-63.5" font-family="Helvetica,sans-Serif" font-size="10.00">list</text>
</g>
<!-- Node7&#45;&gt;Node18 -->
<g id="edge18" class="edge"><title>Node7&#45;&gt;Node18</title>
<path fill="none" stroke="midnightblue" d="M1307.25,-120.764C1476.85,-119.642 2036.78,-113.281 2236.41,-75.2779"/>
<polygon fill="midnightblue" stroke="midnightblue" points="2237.37,-78.6554 2246.49,-73.2668 2236,-71.7906 2237.37,-78.6554"/>
</g>
<!-- Node19 -->
<g id="node19" class="node"><title>Node19</title>
<polygon fill="none" stroke="#bfbfbf" points="2293.5,-56.5 2293.5,-75.5 2336.5,-75.5 2336.5,-56.5 2293.5,-56.5"/>
<text text-anchor="middle" x="2315" y="-63.5" font-family="Helvetica,sans-Serif" font-size="10.00">deque</text>
</g>
<!-- Node7&#45;&gt;Node19 -->
<g id="edge19" class="edge"><title>Node7&#45;&gt;Node19</title>
<path fill="none" stroke="midnightblue" d="M1307.04,-120.399C1481.6,-118.021 2072.98,-107.873 2283.44,-75.5679"/>
<polygon fill="midnightblue" stroke="midnightblue" points="2284.15,-78.999 2293.47,-73.9628 2283.04,-72.087 2284.15,-78.999"/>
</g>
<!-- Node20 -->
<g id="node20" class="node"><title>Node20</title>
<polygon fill="none" stroke="#bfbfbf" points="204.5,-56.5 204.5,-75.5 247.5,-75.5 247.5,-56.5 204.5,-56.5"/>
<text text-anchor="middle" x="226" y="-63.5" font-family="Helvetica,sans-Serif" font-size="10.00">queue</text>
</g>
<!-- Node7&#45;&gt;Node20 -->
<g id="edge20" class="edge"><title>Node7&#45;&gt;Node20</title>
<path fill="none" stroke="midnightblue" d="M1208.77,-119.502C1025.61,-113.833 387.825,-93.2174 257.853,-75.7399"/>
<polygon fill="midnightblue" stroke="midnightblue" points="258.218,-72.2553 247.807,-74.2201 257.171,-79.1766 258.218,-72.2553"/>
</g>
<!-- Node21 -->
<g id="node21" class="node"><title>Node21</title>
<polygon fill="none" stroke="#bfbfbf" points="265.5,-56.5 265.5,-75.5 306.5,-75.5 306.5,-56.5 265.5,-56.5"/>
<text text-anchor="middle" x="286" y="-63.5" font-family="Helvetica,sans-Serif" font-size="10.00">bitset</text>
</g>
<!-- Node7&#45;&gt;Node21 -->
<g id="edge21" class="edge"><title>Node7&#45;&gt;Node21</title>
<path fill="none" stroke="midnightblue" d="M1208.96,-119.358C1033.36,-113.385 440.33,-92.3772 316.711,-75.4741"/>
<polygon fill="midnightblue" stroke="midnightblue" points="317.241,-72.0145 306.826,-73.9553 316.178,-78.9333 317.241,-72.0145"/>
</g>
<!-- Node22 -->
<g id="node22" class="node"><title>Node22</title>
<polygon fill="none" stroke="#bfbfbf" points="325,-56.5 325,-75.5 381,-75.5 381,-56.5 325,-56.5"/>
<text text-anchor="middle" x="353" y="-63.5" font-family="Helvetica,sans-Serif" font-size="10.00">algorithm</text>
</g>
<!-- Node7&#45;&gt;Node22 -->
<g id="edge22" class="edge"><title>Node7&#45;&gt;Node22</title>
<path fill="none" stroke="midnightblue" d="M1208.76,-119.658C1052.59,-115.216 568.762,-99.9717 391.167,-75.8431"/>
<polygon fill="midnightblue" stroke="midnightblue" points="391.567,-72.3649 381.175,-74.4279 390.585,-79.2957 391.567,-72.3649"/>
</g>
<!-- Node23 -->
<g id="node23" class="node"><title>Node23</title>
<polygon fill="none" stroke="#bfbfbf" points="399.5,-56.5 399.5,-75.5 458.5,-75.5 458.5,-56.5 399.5,-56.5"/>
<text text-anchor="middle" x="429" y="-63.5" font-family="Helvetica,sans-Serif" font-size="10.00">functional</text>
</g>
<!-- Node7&#45;&gt;Node23 -->
<g id="edge23" class="edge"><title>Node7&#45;&gt;Node23</title>
<path fill="none" stroke="midnightblue" d="M1208.79,-119.293C1062.54,-114.052 631.232,-97.3266 469.003,-75.8274"/>
<polygon fill="midnightblue" stroke="midnightblue" points="469.098,-72.3073 458.713,-74.4045 468.139,-79.2413 469.098,-72.3073"/>
</g>
<!-- Node24 -->
<g id="node24" class="node"><title>Node24</title>
<polygon fill="none" stroke="#bfbfbf" points="477,-56.5 477,-75.5 517,-75.5 517,-56.5 477,-56.5"/>
<text text-anchor="middle" x="497" y="-63.5" font-family="Helvetica,sans-Serif" font-size="10.00">limits</text>
</g>
<!-- Node7&#45;&gt;Node24 -->
<g id="edge24" class="edge"><title>Node7&#45;&gt;Node24</title>
<path fill="none" stroke="midnightblue" d="M1208.84,-119.513C1069.99,-115.075 675.903,-100.778 526.997,-75.6703"/>
<polygon fill="midnightblue" stroke="midnightblue" points="527.584,-72.22 517.127,-73.9225 526.363,-79.1127 527.584,-72.22"/>
</g>
<!-- Node25 -->
<g id="node25" class="node"><title>Node25</title>
<polygon fill="none" stroke="#bfbfbf" points="535,-56.5 535,-75.5 585,-75.5 585,-56.5 535,-56.5"/>
<text text-anchor="middle" x="560" y="-63.5" font-family="Helvetica,sans-Serif" font-size="10.00">fstream</text>
</g>
<!-- Node7&#45;&gt;Node25 -->
<g id="edge25" class="edge"><title>Node7&#45;&gt;Node25</title>
<path fill="none" stroke="midnightblue" d="M1208.75,-118.885C1079.3,-113.137 730.735,-96.383 595.28,-75.8394"/>
<polygon fill="midnightblue" stroke="midnightblue" points="595.56,-72.3401 585.135,-74.2262 594.461,-79.2533 595.56,-72.3401"/>
</g>
<!-- Node26 -->
<g id="node26" class="node"><title>Node26</title>
<polygon fill="none" stroke="#bfbfbf" points="603.5,-56.5 603.5,-75.5 648.5,-75.5 648.5,-56.5 603.5,-56.5"/>
<text text-anchor="middle" x="626" y="-63.5" font-family="Helvetica,sans-Serif" font-size="10.00">iosfwd</text>
</g>
<!-- Node7&#45;&gt;Node26 -->
<g id="edge26" class="edge"><title>Node7&#45;&gt;Node26</title>
<path fill="none" stroke="midnightblue" d="M1208.98,-120.619C1107.7,-119.122 868.045,-111.915 658.549,-75.7033"/>
<polygon fill="midnightblue" stroke="midnightblue" points="659.051,-72.238 648.597,-73.9569 657.841,-79.1326 659.051,-72.238"/>
</g>
<!-- Node27 -->
<g id="node27" class="node"><title>Node27</title>
<polygon fill="none" stroke="#bfbfbf" points="667,-56.5 667,-75.5 719,-75.5 719,-56.5 667,-56.5"/>
<text text-anchor="middle" x="693" y="-63.5" font-family="Helvetica,sans-Serif" font-size="10.00">sstream</text>
</g>
<!-- Node7&#45;&gt;Node27 -->
<g id="edge27" class="edge"><title>Node7&#45;&gt;Node27</title>
<path fill="none" stroke="midnightblue" d="M1208.7,-119.56C1116.32,-116.268 910.855,-106.134 729.27,-75.9441"/>
<polygon fill="midnightblue" stroke="midnightblue" points="729.715,-72.4699 719.272,-74.2573 728.55,-79.3723 729.715,-72.4699"/>
</g>
<!-- Node28 -->
<g id="node28" class="node"><title>Node28</title>
<polygon fill="none" stroke="#bfbfbf" points="737,-56.5 737,-75.5 805,-75.5 805,-56.5 737,-56.5"/>
<text text-anchor="middle" x="771" y="-63.5" font-family="Helvetica,sans-Serif" font-size="10.00">sys/types.h</text>
</g>
<!-- Node7&#45;&gt;Node28 -->
<g id="edge28" class="edge"><title>Node7&#45;&gt;Node28</title>
<path fill="none" stroke="midnightblue" d="M1208.84,-117.718C1128.57,-111.987 964.201,-98.7017 815.437,-76.0735"/>
<polygon fill="midnightblue" stroke="midnightblue" points="815.624,-72.5612 805.208,-74.4989 814.559,-79.4797 815.624,-72.5612"/>
</g>
<!-- Node29 -->
<g id="node29" class="node"><title>Node29</title>
<polygon fill="none" stroke="#bfbfbf" points="823,-56.5 823,-75.5 883,-75.5 883,-56.5 823,-56.5"/>
<text text-anchor="middle" x="853" y="-63.5" font-family="Helvetica,sans-Serif" font-size="10.00">sys/stat.h</text>
</g>
<!-- Node7&#45;&gt;Node29 -->
<g id="edge29" class="edge"><title>Node7&#45;&gt;Node29</title>
<path fill="none" stroke="midnightblue" d="M1208.92,-116.61C1140.38,-110.117 1011.96,-96.6389 893.165,-76.0439"/>
<polygon fill="midnightblue" stroke="midnightblue" points="893.624,-72.5712 883.17,-74.2901 892.415,-79.4658 893.624,-72.5712"/>
</g>
<!-- Node30 -->
<g id="node30" class="node"><title>Node30</title>
<polygon fill="none" stroke="#bfbfbf" points="901.5,-56.5 901.5,-75.5 952.5,-75.5 952.5,-56.5 901.5,-56.5"/>
<text text-anchor="middle" x="927" y="-63.5" font-family="Helvetica,sans-Serif" font-size="10.00">unistd.h</text>
</g>
<!-- Node7&#45;&gt;Node30 -->
<g id="edge30" class="edge"><title>Node7&#45;&gt;Node30</title>
<path fill="none" stroke="midnightblue" d="M1208.76,-115.059C1151.82,-107.845 1055.09,-94.5379 962.372,-75.8861"/>
<polygon fill="midnightblue" stroke="midnightblue" points="963.042,-72.4508 952.545,-73.8858 961.646,-79.3101 963.042,-72.4508"/>
</g>
<!-- Node31 -->
<g id="node31" class="node"><title>Node31</title>
<polygon fill="none" stroke="#bfbfbf" points="971,-56.5 971,-75.5 1017,-75.5 1017,-56.5 971,-56.5"/>
<text text-anchor="middle" x="994" y="-63.5" font-family="Helvetica,sans-Serif" font-size="10.00">dlfcn.h</text>
</g>
<!-- Node7&#45;&gt;Node31 -->
<g id="edge31" class="edge"><title>Node7&#45;&gt;Node31</title>
<path fill="none" stroke="midnightblue" d="M1208.87,-112.685C1163.94,-104.81 1095.47,-92.1248 1027.1,-76.1051"/>
<polygon fill="midnightblue" stroke="midnightblue" points="1027.55,-72.6157 1017.01,-73.7175 1025.94,-79.4274 1027.55,-72.6157"/>
</g>
<!-- Node32 -->
<g id="node32" class="node"><title>Node32</title>
<polygon fill="none" stroke="#bfbfbf" points="1035,-56.5 1035,-75.5 1113,-75.5 1113,-56.5 1035,-56.5"/>
<text text-anchor="middle" x="1074" y="-63.5" font-family="Helvetica,sans-Serif" font-size="10.00">ext/hash_map</text>
</g>
<!-- Node7&#45;&gt;Node32 -->
<g id="edge32" class="edge"><title>Node7&#45;&gt;Node32</title>
<path fill="none" stroke="midnightblue" d="M1228.84,-112.444C1197.49,-103.241 1147.47,-88.5617 1112.8,-78.3879"/>
<polygon fill="midnightblue" stroke="midnightblue" points="1113.6,-74.9742 1103.02,-75.5164 1111.63,-81.6909 1113.6,-74.9742"/>
</g>
<!-- Node33 -->
<g id="node33" class="node"><title>Node33</title>
<polygon fill="none" stroke="#bfbfbf" points="1131.5,-56.5 1131.5,-75.5 1204.5,-75.5 1204.5,-56.5 1131.5,-56.5"/>
<text text-anchor="middle" x="1168" y="-63.5" font-family="Helvetica,sans-Serif" font-size="10.00">ext/hash_set</text>
</g>
<!-- Node7&#45;&gt;Node33 -->
<g id="edge33" class="edge"><title>Node7&#45;&gt;Node33</title>
<path fill="none" stroke="midnightblue" d="M1243.54,-112.324C1229.5,-103.9 1207.95,-90.9709 1191.46,-81.0741"/>
<polygon fill="midnightblue" stroke="midnightblue" points="1192.8,-77.7983 1182.42,-75.6545 1189.2,-83.8007 1192.8,-77.7983"/>
</g>
<!-- Node34 -->
<g id="node34" class="node"><title>Node34</title>
<polygon fill="none" stroke="#bfbfbf" points="1222.5,-56.5 1222.5,-75.5 1293.5,-75.5 1293.5,-56.5 1222.5,-56.5"/>
<text text-anchor="middle" x="1258" y="-63.5" font-family="Helvetica,sans-Serif" font-size="10.00">sys/param.h</text>
</g>
<!-- Node7&#45;&gt;Node34 -->
<g id="edge34" class="edge"><title>Node7&#45;&gt;Node34</title>
<path fill="none" stroke="midnightblue" d="M1258,-112.083C1258,-105.006 1258,-94.8611 1258,-85.9865"/>
<polygon fill="midnightblue" stroke="midnightblue" points="1261.5,-85.751 1258,-75.7511 1254.5,-85.7511 1261.5,-85.751"/>
</g>
<!-- Node35 -->
<g id="node35" class="node"><title>Node35</title>
<polygon fill="none" stroke="#bfbfbf" points="1312,-56.5 1312,-75.5 1478,-75.5 1478,-56.5 1312,-56.5"/>
<text text-anchor="middle" x="1395" y="-63.5" font-family="Helvetica,sans-Serif" font-size="10.00">CoreFoundation/CoreFoundation.h</text>
</g>
<!-- Node7&#45;&gt;Node35 -->
<g id="edge35" class="edge"><title>Node7&#45;&gt;Node35</title>
<path fill="none" stroke="midnightblue" d="M1279.71,-112.444C1302.35,-103.517 1338.07,-89.4387 1363.75,-79.3168"/>
<polygon fill="midnightblue" stroke="midnightblue" points="1365.37,-82.4397 1373.39,-75.5164 1362.81,-75.9273 1365.37,-82.4397"/>
</g>
<!-- Node36 -->
<g id="node36" class="node"><title>Node36</title>
<polygon fill="none" stroke="#bfbfbf" points="1496,-56.5 1496,-75.5 1620,-75.5 1620,-56.5 1496,-56.5"/>
<text text-anchor="middle" x="1558" y="-63.5" font-family="Helvetica,sans-Serif" font-size="10.00">emscripten/emscripten.h</text>
</g>
<!-- Node7&#45;&gt;Node36 -->
<g id="edge36" class="edge"><title>Node7&#45;&gt;Node36</title>
<path fill="none" stroke="midnightblue" d="M1305.54,-112.444C1358.53,-102.905 1444.2,-87.4834 1500.82,-77.293"/>
<polygon fill="midnightblue" stroke="midnightblue" points="1501.46,-80.7327 1510.69,-75.5164 1500.22,-73.8434 1501.46,-80.7327"/>
</g>
<!-- Node38 -->
<g id="node38" class="node"><title>Node38</title>
<g id="a_node38"><a xlink:href="_ogre_memory_allocated_object_8h.html" target="_top" xlink:title="OgreMemoryAllocatedObject.h">
<polygon fill="none" stroke="black" points="2774,-56.5 2774,-75.5 2924,-75.5 2924,-56.5 2774,-56.5"/>
<text text-anchor="middle" x="2849" y="-63.5" font-family="Helvetica,sans-Serif" font-size="10.00">OgreMemoryAllocatedObject.h</text>
</a>
</g>
</g>
<!-- Node37&#45;&gt;Node38 -->
<g id="edge38" class="edge"><title>Node37&#45;&gt;Node38</title>
<path fill="none" stroke="midnightblue" d="M2651.24,-112.444C2692.06,-103.063 2757.64,-87.9926 2801.98,-77.8036"/>
<polygon fill="midnightblue" stroke="midnightblue" points="2802.98,-81.1671 2811.94,-75.5164 2801.41,-74.3449 2802.98,-81.1671"/>
</g>
<!-- Node37&#45;&gt;Node39 -->
<g id="edge42" class="edge"><title>Node37&#45;&gt;Node39</title>
<path fill="none" stroke="midnightblue" d="M2688.21,-119.615C2770.82,-116.543 2897.42,-106.786 2933,-76 2946.18,-64.5979 2950.47,-44.6099 2951.74,-29.8002"/>
<polygon fill="midnightblue" stroke="midnightblue" points="2955.24,-29.869 2952.22,-19.7125 2948.25,-29.5331 2955.24,-29.869"/>
</g>
<!-- Node37&#45;&gt;Node40 -->
<g id="edge50" class="edge"><title>Node37&#45;&gt;Node40</title>
<path fill="none" stroke="midnightblue" d="M2539.64,-114.429C2511.44,-108.392 2481.08,-97.0736 2460,-76 2447.93,-63.9305 2443.44,-44.6442 2441.81,-30.209"/>
<polygon fill="midnightblue" stroke="midnightblue" points="2445.28,-29.6102 2441.03,-19.9028 2438.3,-30.1385 2445.28,-29.6102"/>
</g>
<!-- Node41 -->
<g id="node41" class="node"><title>Node41</title>
<g id="a_node41"><a xlink:href="_ogre_memory_s_t_l_allocator_8h.html" target="_top" xlink:title="OgreMemorySTLAllocator.h">
<polygon fill="none" stroke="black" points="2469.5,-56.5 2469.5,-75.5 2606.5,-75.5 2606.5,-56.5 2469.5,-56.5"/>
<text text-anchor="middle" x="2538" y="-63.5" font-family="Helvetica,sans-Serif" font-size="10.00">OgreMemorySTLAllocator.h</text>
</a>
</g>
</g>
<!-- Node37&#45;&gt;Node41 -->
<g id="edge43" class="edge"><title>Node37&#45;&gt;Node41</title>
<path fill="none" stroke="midnightblue" d="M2601.79,-112.324C2590.22,-104.107 2572.62,-91.6017 2558.84,-81.8069"/>
<polygon fill="midnightblue" stroke="midnightblue" points="2560.61,-78.7729 2550.43,-75.8339 2556.56,-84.4791 2560.61,-78.7729"/>
</g>
<!-- Node42 -->
<g id="node42" class="node"><title>Node42</title>
<g id="a_node42"><a xlink:href="_ogre_memory_ned_pooling_8h.html" target="_top" xlink:title="OgreMemoryNedPooling.h">
<polygon fill="none" stroke="black" points="2624.5,-56.5 2624.5,-75.5 2755.5,-75.5 2755.5,-56.5 2624.5,-56.5"/>
<text text-anchor="middle" x="2690" y="-63.5" font-family="Helvetica,sans-Serif" font-size="10.00">OgreMemoryNedPooling.h</text>
</a>
</g>
</g>
<!-- Node37&#45;&gt;Node42 -->
<g id="edge47" class="edge"><title>Node37&#45;&gt;Node42</title>
<path fill="none" stroke="midnightblue" d="M2626.21,-112.324C2637.78,-104.107 2655.38,-91.6017 2669.16,-81.8069"/>
<polygon fill="midnightblue" stroke="midnightblue" points="2671.44,-84.4791 2677.57,-75.8339 2667.39,-78.7729 2671.44,-84.4791"/>
</g>
<!-- Node38&#45;&gt;Node2 -->
<g id="edge39" class="edge"><title>Node38&#45;&gt;Node2</title>
<path fill="none" stroke="midnightblue" d="M2833.15,-75.6739C2806.1,-90.0284 2748.94,-118.479 2697,-132 2570.39,-164.959 2416.63,-173.87 2332.82,-176.22"/>
<polygon fill="midnightblue" stroke="midnightblue" points="2332.61,-172.724 2322.7,-176.481 2332.79,-179.722 2332.61,-172.724"/>
</g>
<!-- Node38&#45;&gt;Node39 -->
<g id="edge40" class="edge"><title>Node38&#45;&gt;Node39</title>
<path fill="none" stroke="midnightblue" d="M2865.55,-56.324C2881.99,-47.7034 2907.43,-34.3643 2926.47,-24.3855"/>
<polygon fill="midnightblue" stroke="midnightblue" points="2928.26,-27.3977 2935.49,-19.6545 2925.01,-21.198 2928.26,-27.3977"/>
</g>
<!-- Node38&#45;&gt;Node40 -->
<g id="edge41" class="edge"><title>Node38&#45;&gt;Node40</title>
<path fill="none" stroke="midnightblue" d="M2784.35,-56.4435C2707.2,-46.2325 2579.12,-29.2801 2503.11,-19.22"/>
<polygon fill="midnightblue" stroke="midnightblue" points="2503.11,-15.69 2492.74,-17.8476 2502.19,-22.6295 2503.11,-15.69"/>
</g>
<!-- Node41&#45;&gt;Node2 -->
<g id="edge44" class="edge"><title>Node41&#45;&gt;Node2</title>
<path fill="none" stroke="midnightblue" d="M2517.15,-75.5914C2470.25,-94.9113 2356.31,-141.855 2301.47,-164.446"/>
<polygon fill="midnightblue" stroke="midnightblue" points="2299.86,-161.323 2291.95,-168.368 2302.53,-167.795 2299.86,-161.323"/>
</g>
<!-- Node41&#45;&gt;Node39 -->
<g id="edge45" class="edge"><title>Node41&#45;&gt;Node39</title>
<path fill="none" stroke="midnightblue" d="M2603.6,-56.4435C2682.37,-46.1689 2813.47,-29.0687 2890.41,-19.0329"/>
<polygon fill="midnightblue" stroke="midnightblue" points="2890.98,-22.4891 2900.44,-17.7251 2890.07,-15.5479 2890.98,-22.4891"/>
</g>
<!-- Node41&#45;&gt;Node40 -->
<g id="edge46" class="edge"><title>Node41&#45;&gt;Node40</title>
<path fill="none" stroke="midnightblue" d="M2522.42,-56.324C2507,-47.7428 2483.19,-34.486 2465.29,-24.5224"/>
<polygon fill="midnightblue" stroke="midnightblue" points="2466.99,-21.4606 2456.55,-19.6545 2463.58,-27.5767 2466.99,-21.4606"/>
</g>
<!-- Node42&#45;&gt;Node39 -->
<g id="edge48" class="edge"><title>Node42&#45;&gt;Node39</title>
<path fill="none" stroke="midnightblue" d="M2731.51,-56.4435C2777.41,-46.9839 2851.38,-31.7384 2900.83,-21.5472"/>
<polygon fill="midnightblue" stroke="midnightblue" points="2901.59,-24.9631 2910.68,-19.5164 2900.18,-18.1072 2901.59,-24.9631"/>
</g>
<!-- Node42&#45;&gt;Node40 -->
<g id="edge49" class="edge"><title>Node42&#45;&gt;Node40</title>
<path fill="none" stroke="midnightblue" d="M2650.55,-56.4435C2607.11,-47.0234 2537.21,-31.8656 2490.22,-21.6752"/>
<polygon fill="midnightblue" stroke="midnightblue" points="2490.78,-18.2154 2480.27,-19.5164 2489.3,-25.0564 2490.78,-18.2154"/>
</g>
<!-- Node43&#45;&gt;Node2 -->
<g id="edge52" class="edge"><title>Node43&#45;&gt;Node2</title>
<path fill="none" stroke="midnightblue" d="M2479.33,-336.387C2491.96,-328.72 2508.5,-316.213 2516,-300 2531.78,-265.906 2510.01,-245.212 2479,-224 2435.86,-194.485 2376.87,-183.849 2332.73,-180.24"/>
<polygon fill="midnightblue" stroke="midnightblue" points="2332.93,-176.745 2322.7,-179.519 2332.43,-183.727 2332.93,-176.745"/>
</g>
<!-- Node44 -->
<g id="node44" class="node"><title>Node44</title>
<g id="a_node44"><a xlink:href="_ogre_exception_8h.html" target="_top" xlink:title="OgreException.h">
<polygon fill="none" stroke="black" points="2418.5,-280.5 2418.5,-299.5 2507.5,-299.5 2507.5,-280.5 2418.5,-280.5"/>
<text text-anchor="middle" x="2463" y="-287.5" font-family="Helvetica,sans-Serif" font-size="10.00">OgreException.h</text>
</a>
</g>
</g>
<!-- Node43&#45;&gt;Node44 -->
<g id="edge53" class="edge"><title>Node43&#45;&gt;Node44</title>
<path fill="none" stroke="midnightblue" d="M2463,-336.083C2463,-329.006 2463,-318.861 2463,-309.986"/>
<polygon fill="midnightblue" stroke="midnightblue" points="2466.5,-309.751 2463,-299.751 2459.5,-309.751 2466.5,-309.751"/>
</g>
<!-- Node44&#45;&gt;Node2 -->
<g id="edge54" class="edge"><title>Node44&#45;&gt;Node2</title>
<path fill="none" stroke="midnightblue" d="M2465.73,-280.287C2469.42,-266.632 2474.13,-240.094 2461,-224 2444.86,-204.221 2381.94,-192.139 2332.87,-185.543"/>
<polygon fill="midnightblue" stroke="midnightblue" points="2333.31,-182.071 2322.95,-184.257 2332.41,-189.013 2333.31,-182.071"/>
</g>
<!-- Node44&#45;&gt;Node39 -->
<g id="edge60" class="edge"><title>Node44&#45;&gt;Node39</title>
<path fill="none" stroke="midnightblue" d="M2507.81,-289.76C2641.44,-290.836 3028,-284.803 3028,-179 3028,-179 3028,-179 3028,-121 3028,-81.2757 2994.04,-45.5045 2971.52,-26.1536"/>
<polygon fill="midnightblue" stroke="midnightblue" points="2973.48,-23.2364 2963.54,-19.5672 2969.02,-28.6337 2973.48,-23.2364"/>
</g>
<!-- Node44&#45;&gt;Node40 -->
<g id="edge61" class="edge"><title>Node44&#45;&gt;Node40</title>
<path fill="none" stroke="midnightblue" d="M2437.85,-280.488C2420.36,-273.34 2397.8,-261.463 2384,-244 2365.34,-220.384 2365,-209.098 2365,-179 2365,-179 2365,-179 2365,-121 2365,-81.2757 2398.96,-45.5045 2421.48,-26.1536"/>
<polygon fill="midnightblue" stroke="midnightblue" points="2423.98,-28.6337 2429.46,-19.5672 2419.52,-23.2364 2423.98,-28.6337"/>
</g>
<!-- Node45 -->
<g id="node45" class="node"><title>Node45</title>
<g id="a_node45"><a xlink:href="_ogre_string_8h.html" target="_top" xlink:title="OgreString.h">
<polygon fill="none" stroke="black" points="2564.5,-224.5 2564.5,-243.5 2635.5,-243.5 2635.5,-224.5 2564.5,-224.5"/>
<text text-anchor="middle" x="2600" y="-231.5" font-family="Helvetica,sans-Serif" font-size="10.00">OgreString.h</text>
</a>
</g>
</g>
<!-- Node44&#45;&gt;Node45 -->
<g id="edge55" class="edge"><title>Node44&#45;&gt;Node45</title>
<path fill="none" stroke="midnightblue" d="M2484.71,-280.444C2507.35,-271.517 2543.07,-257.439 2568.75,-247.317"/>
<polygon fill="midnightblue" stroke="midnightblue" points="2570.37,-250.44 2578.39,-243.516 2567.81,-243.927 2570.37,-250.44"/>
</g>
<!-- Node46 -->
<g id="node46" class="node"><title>Node46</title>
<polygon fill="none" stroke="#bfbfbf" points="2393.5,-224.5 2393.5,-243.5 2452.5,-243.5 2452.5,-224.5 2393.5,-224.5"/>
<text text-anchor="middle" x="2423" y="-231.5" font-family="Helvetica,sans-Serif" font-size="10.00">exception</text>
</g>
<!-- Node44&#45;&gt;Node46 -->
<g id="edge59" class="edge"><title>Node44&#45;&gt;Node46</title>
<path fill="none" stroke="midnightblue" d="M2456.39,-280.083C2450.74,-272.455 2442.46,-261.264 2435.55,-251.941"/>
<polygon fill="midnightblue" stroke="midnightblue" points="2438.25,-249.703 2429.48,-243.751 2432.62,-253.87 2438.25,-249.703"/>
</g>
<!-- Node45&#45;&gt;Node2 -->
<g id="edge56" class="edge"><title>Node45&#45;&gt;Node2</title>
<path fill="none" stroke="midnightblue" d="M2564.23,-226.481C2559.45,-225.633 2554.61,-224.786 2550,-224 2475.44,-211.278 2389.51,-197.561 2332.94,-188.659"/>
<polygon fill="midnightblue" stroke="midnightblue" points="2333.15,-185.149 2322.72,-187.055 2332.06,-192.064 2333.15,-185.149"/>
</g>
<!-- Node45&#45;&gt;Node39 -->
<g id="edge57" class="edge"><title>Node45&#45;&gt;Node39</title>
<path fill="none" stroke="midnightblue" d="M2635.57,-229.554C2709.91,-220.213 2880.83,-187.083 2953,-76 2961.83,-62.4087 2960.44,-43.6112 2957.51,-29.7256"/>
<polygon fill="midnightblue" stroke="midnightblue" points="2960.86,-28.6692 2955.01,-19.836 2954.07,-30.3895 2960.86,-28.6692"/>
</g>
<!-- Node45&#45;&gt;Node40 -->
<g id="edge58" class="edge"><title>Node45&#45;&gt;Node40</title>
<path fill="none" stroke="midnightblue" d="M2586.27,-224.475C2554.31,-203.728 2475.24,-147.055 2444,-76 2437.61,-61.4571 2437.33,-43.2778 2438.38,-29.8456"/>
<polygon fill="midnightblue" stroke="midnightblue" points="2441.87,-30.1837 2439.47,-19.863 2434.91,-29.4242 2441.87,-30.1837"/>
</g>
<!-- Node47&#45;&gt;Node2 -->
<g id="edge63" class="edge"><title>Node47&#45;&gt;Node2</title>
<path fill="none" stroke="midnightblue" d="M2185.29,-392.305C2176.06,-384.069 2163.41,-370.789 2158,-356 2143.2,-315.545 2140.08,-282.628 2186,-224 2197.71,-209.056 2215.78,-198.51 2232.25,-191.403"/>
<polygon fill="midnightblue" stroke="midnightblue" points="2233.73,-194.581 2241.71,-187.609 2231.13,-188.084 2233.73,-194.581"/>
</g>
<!-- Node48 -->
<g id="node48" class="node"><title>Node48</title>
<g id="a_node48"><a xlink:href="_ogre_atomic_scalar_8h.html" target="_top" xlink:title="OgreAtomicScalar.h">
<polygon fill="none" stroke="black" points="2167,-336.5 2167,-355.5 2271,-355.5 2271,-336.5 2167,-336.5"/>
<text text-anchor="middle" x="2219" y="-343.5" font-family="Helvetica,sans-Serif" font-size="10.00">OgreAtomicScalar.h</text>
</a>
</g>
</g>
<!-- Node47&#45;&gt;Node48 -->
<g id="edge64" class="edge"><title>Node47&#45;&gt;Node48</title>
<path fill="none" stroke="midnightblue" d="M2199.8,-392.083C2202.91,-384.77 2207.42,-374.181 2211.29,-365.103"/>
<polygon fill="midnightblue" stroke="midnightblue" points="2214.57,-366.323 2215.27,-355.751 2208.13,-363.58 2214.57,-366.323"/>
</g>
<!-- Node48&#45;&gt;Node2 -->
<g id="edge65" class="edge"><title>Node48&#45;&gt;Node2</title>
<path fill="none" stroke="midnightblue" d="M2213.7,-336.446C2201.61,-315.725 2174.61,-261.773 2196,-224 2204.35,-209.258 2219.66,-198.819 2234.29,-191.732"/>
<polygon fill="midnightblue" stroke="midnightblue" points="2236,-194.803 2243.72,-187.547 2233.16,-188.404 2236,-194.803"/>
</g>
<!-- Node48&#45;&gt;Node44 -->
<g id="edge66" class="edge"><title>Node48&#45;&gt;Node44</title>
<path fill="none" stroke="midnightblue" d="M2257.66,-336.444C2300.14,-327.043 2368.43,-311.929 2414.47,-301.739"/>
<polygon fill="midnightblue" stroke="midnightblue" points="2415.51,-305.095 2424.52,-299.516 2414,-298.26 2415.51,-305.095"/>
</g>
<!-- Node49 -->
<g id="node49" class="node"><title>Node49</title>
<g id="a_node49"><a xlink:href="_ogre_platform_information_8h.html" target="_top" xlink:title="OgrePlatformInformation.h">
<polygon fill="none" stroke="black" points="2205.5,-224.5 2205.5,-243.5 2336.5,-243.5 2336.5,-224.5 2205.5,-224.5"/>
<text text-anchor="middle" x="2271" y="-231.5" font-family="Helvetica,sans-Serif" font-size="10.00">OgrePlatformInformation.h</text>
</a>
</g>
</g>
<!-- Node48&#45;&gt;Node49 -->
<g id="edge67" class="edge"><title>Node48&#45;&gt;Node49</title>
<path fill="none" stroke="midnightblue" d="M2219.75,-336.16C2221.12,-323.24 2224.79,-298.703 2234,-280 2239.23,-269.383 2247.4,-259.071 2254.74,-251.003"/>
<polygon fill="midnightblue" stroke="midnightblue" points="2257.29,-253.405 2261.66,-243.755 2252.23,-248.571 2257.29,-253.405"/>
</g>
<!-- Node50 -->
<g id="node50" class="node"><title>Node50</title>
<g id="a_node50"><a xlink:href="_ogre_thread_headers_8h.html" target="_top" xlink:title="Threading/OgreThreadHeaders.h">
<polygon fill="none" stroke="red" points="2243,-280.5 2243,-299.5 2401,-299.5 2401,-280.5 2243,-280.5"/>
<text text-anchor="middle" x="2322" y="-287.5" font-family="Helvetica,sans-Serif" font-size="10.00">Threading/OgreThreadHeaders.h</text>
</a>
</g>
</g>
<!-- Node48&#45;&gt;Node50 -->
<g id="edge69" class="edge"><title>Node48&#45;&gt;Node50</title>
<path fill="none" stroke="midnightblue" d="M2235.55,-336.324C2251.99,-327.703 2277.43,-314.364 2296.47,-304.386"/>
<polygon fill="midnightblue" stroke="midnightblue" points="2298.26,-307.398 2305.49,-299.655 2295.01,-301.198 2298.26,-307.398"/>
</g>
<!-- Node49&#45;&gt;Node2 -->
<g id="edge68" class="edge"><title>Node49&#45;&gt;Node2</title>
<path fill="none" stroke="midnightblue" d="M2271,-224.083C2271,-217.006 2271,-206.861 2271,-197.986"/>
<polygon fill="midnightblue" stroke="midnightblue" points="2274.5,-197.751 2271,-187.751 2267.5,-197.751 2274.5,-197.751"/>
</g>
</g>
</svg>
