<?xml version="1.0" encoding="UTF-8" standalone="no"?>
<!DOCTYPE svg PUBLIC "-//W3C//DTD SVG 1.1//EN"
 "http://www.w3.org/Graphics/SVG/1.1/DTD/svg11.dtd">
<!-- Generated by graphviz version 2.38.0 (20140413.2041)
 -->
<!-- Title: OgreRenderOperation.h Pages: 1 -->
<svg width="3124pt" height="532pt"
 viewBox="0.00 0.00 3124.00 532.00" xmlns="http://www.w3.org/2000/svg" xmlns:xlink="http://www.w3.org/1999/xlink">
<g id="graph0" class="graph" transform="scale(1 1) rotate(0) translate(4 528)">
<title>OgreRenderOperation.h</title>
<!-- Node1 -->
<g id="node1" class="node"><title>Node1</title>
<polygon fill="#bfbfbf" stroke="black" points="2824.5,-504.5 2824.5,-523.5 2943.5,-523.5 2943.5,-504.5 2824.5,-504.5"/>
<text text-anchor="middle" x="2884" y="-511.5" font-family="Helvetica,sans-Serif" font-size="10.00">OgreRenderOperation.h</text>
</g>
<!-- Node2 -->
<g id="node2" class="node"><title>Node2</title>
<g id="a_node2"><a xlink:href="_ogre_prerequisites_8h.html" target="_top" xlink:title="OgrePrerequisites.h">
<polygon fill="none" stroke="black" points="2583.5,-168.5 2583.5,-187.5 2686.5,-187.5 2686.5,-168.5 2583.5,-168.5"/>
<text text-anchor="middle" x="2635" y="-175.5" font-family="Helvetica,sans-Serif" font-size="10.00">OgrePrerequisites.h</text>
</a>
</g>
</g>
<!-- Node1&#45;&gt;Node2 -->
<g id="edge1" class="edge"><title>Node1&#45;&gt;Node2</title>
<path fill="none" stroke="midnightblue" d="M2920.58,-504.462C2966.68,-491.274 3040,-461.159 3040,-403 3040,-403 3040,-403 3040,-289 3040,-218.787 2810.44,-191.947 2696.98,-182.97"/>
<polygon fill="midnightblue" stroke="midnightblue" points="2696.94,-179.456 2686.7,-182.18 2696.41,-186.436 2696.94,-179.456"/>
</g>
<!-- Node39 -->
<g id="node39" class="node"><title>Node39</title>
<g id="a_node39"><a xlink:href="_ogre_header_prefix_8h.html" target="_top" xlink:title="OgreHeaderPrefix.h">
<polygon fill="none" stroke="black" points="1185.5,-0.5 1185.5,-19.5 1288.5,-19.5 1288.5,-0.5 1185.5,-0.5"/>
<text text-anchor="middle" x="1237" y="-7.5" font-family="Helvetica,sans-Serif" font-size="10.00">OgreHeaderPrefix.h</text>
</a>
</g>
</g>
<!-- Node1&#45;&gt;Node39 -->
<g id="edge76" class="edge"><title>Node1&#45;&gt;Node39</title>
<path fill="none" stroke="midnightblue" d="M2824.43,-512.334C2412.19,-507.534 0,-476.319 0,-403 0,-403 0,-403 0,-121 0,-83.4425 20.3098,-72.5994 54,-56 104.611,-31.0636 938.971,-15.7947 1175.15,-11.9577"/>
<polygon fill="midnightblue" stroke="midnightblue" points="1175.34,-15.4552 1185.29,-11.7942 1175.23,-8.45611 1175.34,-15.4552"/>
</g>
<!-- Node40 -->
<g id="node40" class="node"><title>Node40</title>
<g id="a_node40"><a xlink:href="_ogre_header_suffix_8h.html" target="_top" xlink:title="OgreHeaderSuffix.h">
<polygon fill="none" stroke="black" points="2797.5,-0.5 2797.5,-19.5 2900.5,-19.5 2900.5,-0.5 2797.5,-0.5"/>
<text text-anchor="middle" x="2849" y="-7.5" font-family="Helvetica,sans-Serif" font-size="10.00">OgreHeaderSuffix.h</text>
</a>
</g>
</g>
<!-- Node1&#45;&gt;Node40 -->
<g id="edge77" class="edge"><title>Node1&#45;&gt;Node40</title>
<path fill="none" stroke="midnightblue" d="M2943.75,-509.882C3012.49,-502.698 3116,-479.225 3116,-403 3116,-403 3116,-403 3116,-121 3116,-87.9763 3106.71,-75.4211 3080,-56 3053.53,-36.7496 2969.7,-23.9681 2910.68,-17.099"/>
<polygon fill="midnightblue" stroke="midnightblue" points="2911.04,-13.6168 2900.7,-15.9661 2910.25,-20.5721 2911.04,-13.6168"/>
</g>
<!-- Node43 -->
<g id="node43" class="node"><title>Node43</title>
<g id="a_node43"><a xlink:href="_ogre_vertex_index_data_8h.html" target="_top" xlink:title="OgreVertexIndexData.h">
<polygon fill="none" stroke="black" points="2655.5,-448.5 2655.5,-467.5 2774.5,-467.5 2774.5,-448.5 2655.5,-448.5"/>
<text text-anchor="middle" x="2715" y="-455.5" font-family="Helvetica,sans-Serif" font-size="10.00">OgreVertexIndexData.h</text>
</a>
</g>
</g>
<!-- Node1&#45;&gt;Node43 -->
<g id="edge51" class="edge"><title>Node1&#45;&gt;Node43</title>
<path fill="none" stroke="midnightblue" d="M2857.22,-504.444C2828.67,-495.32 2783.27,-480.813 2751.46,-470.651"/>
<polygon fill="midnightblue" stroke="midnightblue" points="2752.24,-467.226 2741.65,-467.516 2750.11,-473.894 2752.24,-467.226"/>
</g>
<!-- Node3 -->
<g id="node3" class="node"><title>Node3</title>
<g id="a_node3"><a xlink:href="_ogre_platform_8h.html" target="_top" xlink:title="OgrePlatform.h">
<polygon fill="none" stroke="black" points="2966.5,-112.5 2966.5,-131.5 3049.5,-131.5 3049.5,-112.5 2966.5,-112.5"/>
<text text-anchor="middle" x="3008" y="-119.5" font-family="Helvetica,sans-Serif" font-size="10.00">OgrePlatform.h</text>
</a>
</g>
</g>
<!-- Node2&#45;&gt;Node3 -->
<g id="edge2" class="edge"><title>Node2&#45;&gt;Node3</title>
<path fill="none" stroke="midnightblue" d="M2686.86,-169.492C2758.03,-159.189 2885.2,-140.778 2956.29,-130.487"/>
<polygon fill="midnightblue" stroke="midnightblue" points="2956.96,-133.926 2966.35,-129.029 2955.96,-126.998 2956.96,-133.926"/>
</g>
<!-- Node6 -->
<g id="node6" class="node"><title>Node6</title>
<polygon fill="none" stroke="#bfbfbf" points="2291.5,-56.5 2291.5,-75.5 2332.5,-75.5 2332.5,-56.5 2291.5,-56.5"/>
<text text-anchor="middle" x="2312" y="-63.5" font-family="Helvetica,sans-Serif" font-size="10.00">string</text>
</g>
<!-- Node2&#45;&gt;Node6 -->
<g id="edge5" class="edge"><title>Node2&#45;&gt;Node6</title>
<path fill="none" stroke="midnightblue" d="M2609.92,-168.46C2551.37,-148.521 2405.84,-98.957 2342.39,-77.3479"/>
<polygon fill="midnightblue" stroke="midnightblue" points="2343.17,-73.9195 2332.58,-74.0088 2340.92,-80.5458 2343.17,-73.9195"/>
</g>
<!-- Node7 -->
<g id="node7" class="node"><title>Node7</title>
<g id="a_node7"><a xlink:href="_ogre_std_headers_8h.html" target="_top" xlink:title="OgreStdHeaders.h">
<polygon fill="none" stroke="black" points="1048,-112.5 1048,-131.5 1146,-131.5 1146,-112.5 1048,-112.5"/>
<text text-anchor="middle" x="1097" y="-119.5" font-family="Helvetica,sans-Serif" font-size="10.00">OgreStdHeaders.h</text>
</a>
</g>
</g>
<!-- Node2&#45;&gt;Node7 -->
<g id="edge6" class="edge"><title>Node2&#45;&gt;Node7</title>
<path fill="none" stroke="midnightblue" d="M2583.39,-175.188C2351.25,-167.037 1404.46,-133.795 1156.61,-125.093"/>
<polygon fill="midnightblue" stroke="midnightblue" points="1156.49,-121.587 1146.37,-124.733 1156.24,-128.582 1156.49,-121.587"/>
</g>
<!-- Node37 -->
<g id="node37" class="node"><title>Node37</title>
<g id="a_node37"><a xlink:href="_ogre_memory_allocator_config_8h.html" target="_top" xlink:title="This file configures Ogre&#39;s memory allocators. ">
<polygon fill="none" stroke="black" points="2549,-112.5 2549,-131.5 2697,-131.5 2697,-112.5 2549,-112.5"/>
<text text-anchor="middle" x="2623" y="-119.5" font-family="Helvetica,sans-Serif" font-size="10.00">OgreMemoryAllocatorConfig.h</text>
</a>
</g>
</g>
<!-- Node2&#45;&gt;Node37 -->
<g id="edge37" class="edge"><title>Node2&#45;&gt;Node37</title>
<path fill="none" stroke="midnightblue" d="M2633.02,-168.083C2631.43,-160.927 2629.14,-150.635 2627.15,-141.691"/>
<polygon fill="midnightblue" stroke="midnightblue" points="2630.53,-140.754 2624.94,-131.751 2623.7,-142.272 2630.53,-140.754"/>
</g>
<!-- Node4 -->
<g id="node4" class="node"><title>Node4</title>
<g id="a_node4"><a xlink:href="_ogre_config_8h.html" target="_top" xlink:title="OgreConfig.h">
<polygon fill="none" stroke="black" points="2976,-56.5 2976,-75.5 3050,-75.5 3050,-56.5 2976,-56.5"/>
<text text-anchor="middle" x="3013" y="-63.5" font-family="Helvetica,sans-Serif" font-size="10.00">OgreConfig.h</text>
</a>
</g>
</g>
<!-- Node3&#45;&gt;Node4 -->
<g id="edge3" class="edge"><title>Node3&#45;&gt;Node4</title>
<path fill="none" stroke="midnightblue" d="M3008.83,-112.083C3009.48,-105.006 3010.42,-94.8611 3011.24,-85.9865"/>
<polygon fill="midnightblue" stroke="midnightblue" points="3014.75,-86.0312 3012.19,-75.7511 3007.78,-85.3858 3014.75,-86.0312"/>
</g>
<!-- Node5 -->
<g id="node5" class="node"><title>Node5</title>
<polygon fill="none" stroke="#bfbfbf" points="2961,-0.5 2961,-19.5 3065,-19.5 3065,-0.5 2961,-0.5"/>
<text text-anchor="middle" x="3013" y="-7.5" font-family="Helvetica,sans-Serif" font-size="10.00">OgreBuildSettings.h</text>
</g>
<!-- Node4&#45;&gt;Node5 -->
<g id="edge4" class="edge"><title>Node4&#45;&gt;Node5</title>
<path fill="none" stroke="midnightblue" d="M3013,-56.083C3013,-49.0059 3013,-38.8611 3013,-29.9865"/>
<polygon fill="midnightblue" stroke="midnightblue" points="3016.5,-29.751 3013,-19.7511 3009.5,-29.7511 3016.5,-29.751"/>
</g>
<!-- Node7&#45;&gt;Node6 -->
<g id="edge16" class="edge"><title>Node7&#45;&gt;Node6</title>
<path fill="none" stroke="midnightblue" d="M1146.13,-120.791C1338.01,-119.722 2037.88,-113.399 2280.99,-75.6293"/>
<polygon fill="midnightblue" stroke="midnightblue" points="2281.87,-79.0331 2291.18,-73.9822 2280.75,-72.1228 2281.87,-79.0331"/>
</g>
<!-- Node8 -->
<g id="node8" class="node"><title>Node8</title>
<polygon fill="none" stroke="#bfbfbf" points="2041.5,-56.5 2041.5,-75.5 2090.5,-75.5 2090.5,-56.5 2041.5,-56.5"/>
<text text-anchor="middle" x="2066" y="-63.5" font-family="Helvetica,sans-Serif" font-size="10.00">cassert</text>
</g>
<!-- Node7&#45;&gt;Node8 -->
<g id="edge7" class="edge"><title>Node7&#45;&gt;Node8</title>
<path fill="none" stroke="midnightblue" d="M1146.28,-120.049C1310.74,-116.659 1840.59,-103.924 2031.35,-75.8892"/>
<polygon fill="midnightblue" stroke="midnightblue" points="2031.91,-79.345 2041.26,-74.3696 2030.85,-72.4258 2031.91,-79.345"/>
</g>
<!-- Node9 -->
<g id="node9" class="node"><title>Node9</title>
<polygon fill="none" stroke="#bfbfbf" points="2108.5,-56.5 2108.5,-75.5 2151.5,-75.5 2151.5,-56.5 2108.5,-56.5"/>
<text text-anchor="middle" x="2130" y="-63.5" font-family="Helvetica,sans-Serif" font-size="10.00">cstdio</text>
</g>
<!-- Node7&#45;&gt;Node9 -->
<g id="edge8" class="edge"><title>Node7&#45;&gt;Node9</title>
<path fill="none" stroke="midnightblue" d="M1146.1,-120.338C1317.98,-117.784 1892.85,-107.189 2098.38,-75.5788"/>
<polygon fill="midnightblue" stroke="midnightblue" points="2099.15,-79 2108.47,-73.9598 2098.04,-72.0884 2099.15,-79"/>
</g>
<!-- Node10 -->
<g id="node10" class="node"><title>Node10</title>
<polygon fill="none" stroke="#bfbfbf" points="2169.5,-56.5 2169.5,-75.5 2214.5,-75.5 2214.5,-56.5 2169.5,-56.5"/>
<text text-anchor="middle" x="2192" y="-63.5" font-family="Helvetica,sans-Serif" font-size="10.00">cstdlib</text>
</g>
<!-- Node7&#45;&gt;Node10 -->
<g id="edge9" class="edge"><title>Node7&#45;&gt;Node10</title>
<path fill="none" stroke="midnightblue" d="M1146.23,-120.429C1325.12,-118.123 1941.17,-108.101 2159.33,-75.6144"/>
<polygon fill="midnightblue" stroke="midnightblue" points="2160.07,-79.0416 2169.42,-74.0503 2159,-72.1243 2160.07,-79.0416"/>
</g>
<!-- Node11 -->
<g id="node11" class="node"><title>Node11</title>
<polygon fill="none" stroke="#bfbfbf" points="2232.5,-56.5 2232.5,-75.5 2273.5,-75.5 2273.5,-56.5 2232.5,-56.5"/>
<text text-anchor="middle" x="2253" y="-63.5" font-family="Helvetica,sans-Serif" font-size="10.00">ctime</text>
</g>
<!-- Node7&#45;&gt;Node11 -->
<g id="edge10" class="edge"><title>Node7&#45;&gt;Node11</title>
<path fill="none" stroke="midnightblue" d="M1146.23,-120.676C1332.04,-119.204 1991.51,-111.642 2222.18,-75.603"/>
<polygon fill="midnightblue" stroke="midnightblue" points="2222.87,-79.0366 2232.18,-73.9767 2221.75,-72.1274 2222.87,-79.0366"/>
</g>
<!-- Node12 -->
<g id="node12" class="node"><title>Node12</title>
<polygon fill="none" stroke="#bfbfbf" points="142,-56.5 142,-75.5 188,-75.5 188,-56.5 142,-56.5"/>
<text text-anchor="middle" x="165" y="-63.5" font-family="Helvetica,sans-Serif" font-size="10.00">cstring</text>
</g>
<!-- Node7&#45;&gt;Node12 -->
<g id="edge11" class="edge"><title>Node7&#45;&gt;Node12</title>
<path fill="none" stroke="midnightblue" d="M1047.91,-119.995C887.991,-116.498 382.222,-103.626 198.361,-75.7943"/>
<polygon fill="midnightblue" stroke="midnightblue" points="198.707,-72.3056 188.283,-74.1997 197.613,-79.2196 198.707,-72.3056"/>
</g>
<!-- Node13 -->
<g id="node13" class="node"><title>Node13</title>
<polygon fill="none" stroke="#bfbfbf" points="206.5,-56.5 206.5,-75.5 255.5,-75.5 255.5,-56.5 206.5,-56.5"/>
<text text-anchor="middle" x="231" y="-63.5" font-family="Helvetica,sans-Serif" font-size="10.00">cstdarg</text>
</g>
<!-- Node7&#45;&gt;Node13 -->
<g id="edge12" class="edge"><title>Node7&#45;&gt;Node13</title>
<path fill="none" stroke="midnightblue" d="M1047.89,-119.664C896.308,-115.338 436.28,-100.63 265.835,-75.7198"/>
<polygon fill="midnightblue" stroke="midnightblue" points="266.171,-72.2305 255.757,-74.1803 265.114,-79.1503 266.171,-72.2305"/>
</g>
<!-- Node14 -->
<g id="node14" class="node"><title>Node14</title>
<polygon fill="none" stroke="#bfbfbf" points="274,-56.5 274,-75.5 318,-75.5 318,-56.5 274,-56.5"/>
<text text-anchor="middle" x="296" y="-63.5" font-family="Helvetica,sans-Serif" font-size="10.00">cmath</text>
</g>
<!-- Node7&#45;&gt;Node14 -->
<g id="edge13" class="edge"><title>Node7&#45;&gt;Node14</title>
<path fill="none" stroke="midnightblue" d="M1047.94,-119.571C904.244,-115.164 485.094,-100.664 328.163,-75.7511"/>
<polygon fill="midnightblue" stroke="midnightblue" points="328.65,-72.2841 318.211,-74.0951 327.501,-79.1892 328.65,-72.2841"/>
</g>
<!-- Node15 -->
<g id="node15" class="node"><title>Node15</title>
<polygon fill="none" stroke="#bfbfbf" points="336,-56.5 336,-75.5 380,-75.5 380,-56.5 336,-56.5"/>
<text text-anchor="middle" x="358" y="-63.5" font-family="Helvetica,sans-Serif" font-size="10.00">vector</text>
</g>
<!-- Node7&#45;&gt;Node15 -->
<g id="edge14" class="edge"><title>Node7&#45;&gt;Node15</title>
<path fill="none" stroke="midnightblue" d="M1047.64,-121.559C933.255,-122.064 641.304,-118.812 390.253,-75.8253"/>
<polygon fill="midnightblue" stroke="midnightblue" points="390.665,-72.3446 380.214,-74.0811 389.467,-79.2413 390.665,-72.3446"/>
</g>
<!-- Node16 -->
<g id="node16" class="node"><title>Node16</title>
<polygon fill="none" stroke="#bfbfbf" points="398.5,-56.5 398.5,-75.5 433.5,-75.5 433.5,-56.5 398.5,-56.5"/>
<text text-anchor="middle" x="416" y="-63.5" font-family="Helvetica,sans-Serif" font-size="10.00">map</text>
</g>
<!-- Node7&#45;&gt;Node16 -->
<g id="edge15" class="edge"><title>Node7&#45;&gt;Node16</title>
<path fill="none" stroke="midnightblue" d="M1047.63,-121.832C939.366,-122.75 673.14,-120.068 443.422,-75.5048"/>
<polygon fill="midnightblue" stroke="midnightblue" points="444.034,-72.0583 433.546,-73.5586 442.681,-78.9262 444.034,-72.0583"/>
</g>
<!-- Node17 -->
<g id="node17" class="node"><title>Node17</title>
<polygon fill="none" stroke="#bfbfbf" points="452,-56.5 452,-75.5 482,-75.5 482,-56.5 452,-56.5"/>
<text text-anchor="middle" x="467" y="-63.5" font-family="Helvetica,sans-Serif" font-size="10.00">set</text>
</g>
<!-- Node7&#45;&gt;Node17 -->
<g id="edge17" class="edge"><title>Node7&#45;&gt;Node17</title>
<path fill="none" stroke="midnightblue" d="M1047.92,-119.155C926.673,-114.318 614.569,-100.087 491.924,-75.4808"/>
<polygon fill="midnightblue" stroke="midnightblue" points="492.547,-72.0351 482.038,-73.3809 491.092,-78.8823 492.547,-72.0351"/>
</g>
<!-- Node18 -->
<g id="node18" class="node"><title>Node18</title>
<polygon fill="none" stroke="#bfbfbf" points="500.5,-56.5 500.5,-75.5 529.5,-75.5 529.5,-56.5 500.5,-56.5"/>
<text text-anchor="middle" x="515" y="-63.5" font-family="Helvetica,sans-Serif" font-size="10.00">list</text>
</g>
<!-- Node7&#45;&gt;Node18 -->
<g id="edge18" class="edge"><title>Node7&#45;&gt;Node18</title>
<path fill="none" stroke="midnightblue" d="M1047.67,-121.825C951.019,-122.412 730.241,-118.687 539.799,-75.8245"/>
<polygon fill="midnightblue" stroke="midnightblue" points="540.423,-72.3768 529.894,-73.5531 538.858,-79.1997 540.423,-72.3768"/>
</g>
<!-- Node19 -->
<g id="node19" class="node"><title>Node19</title>
<polygon fill="none" stroke="#bfbfbf" points="547.5,-56.5 547.5,-75.5 590.5,-75.5 590.5,-56.5 547.5,-56.5"/>
<text text-anchor="middle" x="569" y="-63.5" font-family="Helvetica,sans-Serif" font-size="10.00">deque</text>
</g>
<!-- Node7&#45;&gt;Node19 -->
<g id="edge19" class="edge"><title>Node7&#45;&gt;Node19</title>
<path fill="none" stroke="midnightblue" d="M1047.77,-119.829C959.611,-117.022 769.008,-107.733 600.541,-75.9421"/>
<polygon fill="midnightblue" stroke="midnightblue" points="600.981,-72.4628 590.501,-74.0154 599.662,-79.3373 600.981,-72.4628"/>
</g>
<!-- Node20 -->
<g id="node20" class="node"><title>Node20</title>
<polygon fill="none" stroke="#bfbfbf" points="608.5,-56.5 608.5,-75.5 651.5,-75.5 651.5,-56.5 608.5,-56.5"/>
<text text-anchor="middle" x="630" y="-63.5" font-family="Helvetica,sans-Serif" font-size="10.00">queue</text>
</g>
<!-- Node7&#45;&gt;Node20 -->
<g id="edge20" class="edge"><title>Node7&#45;&gt;Node20</title>
<path fill="none" stroke="midnightblue" d="M1047.72,-118.959C968.146,-115.003 806.405,-104.232 661.47,-75.9591"/>
<polygon fill="midnightblue" stroke="midnightblue" points="661.997,-72.4956 651.507,-73.9823 660.635,-79.3617 661.997,-72.4956"/>
</g>
<!-- Node21 -->
<g id="node21" class="node"><title>Node21</title>
<polygon fill="none" stroke="#bfbfbf" points="669.5,-56.5 669.5,-75.5 710.5,-75.5 710.5,-56.5 669.5,-56.5"/>
<text text-anchor="middle" x="690" y="-63.5" font-family="Helvetica,sans-Serif" font-size="10.00">bitset</text>
</g>
<!-- Node7&#45;&gt;Node21 -->
<g id="edge21" class="edge"><title>Node7&#45;&gt;Node21</title>
<path fill="none" stroke="midnightblue" d="M1047.76,-117.847C977.263,-112.735 843.455,-100.818 720.501,-75.7373"/>
<polygon fill="midnightblue" stroke="midnightblue" points="721.039,-72.2746 710.537,-73.6705 719.617,-79.1287 721.039,-72.2746"/>
</g>
<!-- Node22 -->
<g id="node22" class="node"><title>Node22</title>
<polygon fill="none" stroke="#bfbfbf" points="729,-56.5 729,-75.5 785,-75.5 785,-56.5 729,-56.5"/>
<text text-anchor="middle" x="757" y="-63.5" font-family="Helvetica,sans-Serif" font-size="10.00">algorithm</text>
</g>
<!-- Node7&#45;&gt;Node22 -->
<g id="edge22" class="edge"><title>Node7&#45;&gt;Node22</title>
<path fill="none" stroke="midnightblue" d="M1047.96,-115.115C989.901,-107.837 890.106,-94.3556 795.271,-76.1017"/>
<polygon fill="midnightblue" stroke="midnightblue" points="795.708,-72.6211 785.223,-74.1458 794.37,-79.4921 795.708,-72.6211"/>
</g>
<!-- Node23 -->
<g id="node23" class="node"><title>Node23</title>
<polygon fill="none" stroke="#bfbfbf" points="803.5,-56.5 803.5,-75.5 862.5,-75.5 862.5,-56.5 803.5,-56.5"/>
<text text-anchor="middle" x="833" y="-63.5" font-family="Helvetica,sans-Serif" font-size="10.00">functional</text>
</g>
<!-- Node7&#45;&gt;Node23 -->
<g id="edge23" class="edge"><title>Node7&#45;&gt;Node23</title>
<path fill="none" stroke="midnightblue" d="M1052.1,-112.422C1008.75,-104.053 941.03,-90.739 872.85,-76.1335"/>
<polygon fill="midnightblue" stroke="midnightblue" points="873.303,-72.6508 862.79,-73.9696 871.831,-79.4943 873.303,-72.6508"/>
</g>
<!-- Node24 -->
<g id="node24" class="node"><title>Node24</title>
<polygon fill="none" stroke="#bfbfbf" points="881,-56.5 881,-75.5 921,-75.5 921,-56.5 881,-56.5"/>
<text text-anchor="middle" x="901" y="-63.5" font-family="Helvetica,sans-Serif" font-size="10.00">limits</text>
</g>
<!-- Node7&#45;&gt;Node24 -->
<g id="edge24" class="edge"><title>Node7&#45;&gt;Node24</title>
<path fill="none" stroke="midnightblue" d="M1063.94,-112.486C1032.16,-104.211 982.535,-91.069 930.911,-76.1896"/>
<polygon fill="midnightblue" stroke="midnightblue" points="931.831,-72.8123 921.252,-73.3919 929.884,-79.536 931.831,-72.8123"/>
</g>
<!-- Node25 -->
<g id="node25" class="node"><title>Node25</title>
<polygon fill="none" stroke="#bfbfbf" points="939,-56.5 939,-75.5 989,-75.5 989,-56.5 939,-56.5"/>
<text text-anchor="middle" x="964" y="-63.5" font-family="Helvetica,sans-Serif" font-size="10.00">fstream</text>
</g>
<!-- Node7&#45;&gt;Node25 -->
<g id="edge25" class="edge"><title>Node7&#45;&gt;Node25</title>
<path fill="none" stroke="midnightblue" d="M1075.93,-112.444C1053.94,-103.517 1019.27,-89.4387 994.336,-79.3168"/>
<polygon fill="midnightblue" stroke="midnightblue" points="995.558,-76.0355 984.976,-75.5164 992.924,-82.5213 995.558,-76.0355"/>
</g>
<!-- Node26 -->
<g id="node26" class="node"><title>Node26</title>
<polygon fill="none" stroke="#bfbfbf" points="1007.5,-56.5 1007.5,-75.5 1052.5,-75.5 1052.5,-56.5 1007.5,-56.5"/>
<text text-anchor="middle" x="1030" y="-63.5" font-family="Helvetica,sans-Serif" font-size="10.00">iosfwd</text>
</g>
<!-- Node7&#45;&gt;Node26 -->
<g id="edge26" class="edge"><title>Node7&#45;&gt;Node26</title>
<path fill="none" stroke="midnightblue" d="M1086.24,-112.324C1076.23,-104.263 1061.11,-92.0765 1049.07,-82.3695"/>
<polygon fill="midnightblue" stroke="midnightblue" points="1050.94,-79.3841 1040.96,-75.8339 1046.55,-84.8343 1050.94,-79.3841"/>
</g>
<!-- Node27 -->
<g id="node27" class="node"><title>Node27</title>
<polygon fill="none" stroke="#bfbfbf" points="1071,-56.5 1071,-75.5 1123,-75.5 1123,-56.5 1071,-56.5"/>
<text text-anchor="middle" x="1097" y="-63.5" font-family="Helvetica,sans-Serif" font-size="10.00">sstream</text>
</g>
<!-- Node7&#45;&gt;Node27 -->
<g id="edge27" class="edge"><title>Node7&#45;&gt;Node27</title>
<path fill="none" stroke="midnightblue" d="M1097,-112.083C1097,-105.006 1097,-94.8611 1097,-85.9865"/>
<polygon fill="midnightblue" stroke="midnightblue" points="1100.5,-85.751 1097,-75.7511 1093.5,-85.7511 1100.5,-85.751"/>
</g>
<!-- Node28 -->
<g id="node28" class="node"><title>Node28</title>
<polygon fill="none" stroke="#bfbfbf" points="1141,-56.5 1141,-75.5 1209,-75.5 1209,-56.5 1141,-56.5"/>
<text text-anchor="middle" x="1175" y="-63.5" font-family="Helvetica,sans-Serif" font-size="10.00">sys/types.h</text>
</g>
<!-- Node7&#45;&gt;Node28 -->
<g id="edge28" class="edge"><title>Node7&#45;&gt;Node28</title>
<path fill="none" stroke="midnightblue" d="M1109.53,-112.324C1121.59,-103.979 1140.03,-91.2122 1154.27,-81.3524"/>
<polygon fill="midnightblue" stroke="midnightblue" points="1156.27,-84.2243 1162.5,-75.6545 1152.28,-78.469 1156.27,-84.2243"/>
</g>
<!-- Node29 -->
<g id="node29" class="node"><title>Node29</title>
<polygon fill="none" stroke="#bfbfbf" points="1227,-56.5 1227,-75.5 1287,-75.5 1287,-56.5 1227,-56.5"/>
<text text-anchor="middle" x="1257" y="-63.5" font-family="Helvetica,sans-Serif" font-size="10.00">sys/stat.h</text>
</g>
<!-- Node7&#45;&gt;Node29 -->
<g id="edge29" class="edge"><title>Node7&#45;&gt;Node29</title>
<path fill="none" stroke="midnightblue" d="M1122.35,-112.444C1149.27,-103.359 1192,-88.9388 1222.09,-78.7831"/>
<polygon fill="midnightblue" stroke="midnightblue" points="1223.41,-82.0305 1231.77,-75.5164 1221.17,-75.3981 1223.41,-82.0305"/>
</g>
<!-- Node30 -->
<g id="node30" class="node"><title>Node30</title>
<polygon fill="none" stroke="#bfbfbf" points="1305.5,-56.5 1305.5,-75.5 1356.5,-75.5 1356.5,-56.5 1305.5,-56.5"/>
<text text-anchor="middle" x="1331" y="-63.5" font-family="Helvetica,sans-Serif" font-size="10.00">unistd.h</text>
</g>
<!-- Node7&#45;&gt;Node30 -->
<g id="edge30" class="edge"><title>Node7&#45;&gt;Node30</title>
<path fill="none" stroke="midnightblue" d="M1136.35,-112.459C1174.51,-104.096 1234.28,-90.7881 1295.56,-76.0502"/>
<polygon fill="midnightblue" stroke="midnightblue" points="1296.51,-79.4225 1305.41,-73.6731 1294.87,-72.618 1296.51,-79.4225"/>
</g>
<!-- Node31 -->
<g id="node31" class="node"><title>Node31</title>
<polygon fill="none" stroke="#bfbfbf" points="1375,-56.5 1375,-75.5 1421,-75.5 1421,-56.5 1375,-56.5"/>
<text text-anchor="middle" x="1398" y="-63.5" font-family="Helvetica,sans-Serif" font-size="10.00">dlfcn.h</text>
</g>
<!-- Node7&#45;&gt;Node31 -->
<g id="edge31" class="edge"><title>Node7&#45;&gt;Node31</title>
<path fill="none" stroke="midnightblue" d="M1146.19,-114.247C1200.16,-106.488 1289.2,-92.6568 1365,-76 1365.1,-75.9777 1365.2,-75.9553 1365.3,-75.9327"/>
<polygon fill="midnightblue" stroke="midnightblue" points="1366.1,-79.3422 1374.99,-73.5895 1364.45,-72.5384 1366.1,-79.3422"/>
</g>
<!-- Node32 -->
<g id="node32" class="node"><title>Node32</title>
<polygon fill="none" stroke="#bfbfbf" points="1439,-56.5 1439,-75.5 1517,-75.5 1517,-56.5 1439,-56.5"/>
<text text-anchor="middle" x="1478" y="-63.5" font-family="Helvetica,sans-Serif" font-size="10.00">ext/hash_map</text>
</g>
<!-- Node7&#45;&gt;Node32 -->
<g id="edge32" class="edge"><title>Node7&#45;&gt;Node32</title>
<path fill="none" stroke="midnightblue" d="M1146.2,-115.148C1209.32,-107.464 1322.39,-93.105 1429.03,-76.0869"/>
<polygon fill="midnightblue" stroke="midnightblue" points="1429.68,-79.5276 1439,-74.4854 1428.57,-72.6162 1429.68,-79.5276"/>
</g>
<!-- Node33 -->
<g id="node33" class="node"><title>Node33</title>
<polygon fill="none" stroke="#bfbfbf" points="1535.5,-56.5 1535.5,-75.5 1608.5,-75.5 1608.5,-56.5 1535.5,-56.5"/>
<text text-anchor="middle" x="1572" y="-63.5" font-family="Helvetica,sans-Serif" font-size="10.00">ext/hash_set</text>
</g>
<!-- Node7&#45;&gt;Node33 -->
<g id="edge33" class="edge"><title>Node7&#45;&gt;Node33</title>
<path fill="none" stroke="midnightblue" d="M1146.08,-117.277C1224.09,-111.047 1381.39,-97.2159 1525.07,-76.0061"/>
<polygon fill="midnightblue" stroke="midnightblue" points="1526.02,-79.4038 1535.39,-74.4662 1524.99,-72.4804 1526.02,-79.4038"/>
</g>
<!-- Node34 -->
<g id="node34" class="node"><title>Node34</title>
<polygon fill="none" stroke="#bfbfbf" points="1626.5,-56.5 1626.5,-75.5 1697.5,-75.5 1697.5,-56.5 1626.5,-56.5"/>
<text text-anchor="middle" x="1662" y="-63.5" font-family="Helvetica,sans-Serif" font-size="10.00">sys/param.h</text>
</g>
<!-- Node7&#45;&gt;Node34 -->
<g id="edge34" class="edge"><title>Node7&#45;&gt;Node34</title>
<path fill="none" stroke="midnightblue" d="M1146.32,-118.561C1237.2,-113.67 1437.38,-101.046 1616.09,-75.9685"/>
<polygon fill="midnightblue" stroke="midnightblue" points="1616.79,-79.4038 1626.2,-74.5328 1615.81,-72.4733 1616.79,-79.4038"/>
</g>
<!-- Node35 -->
<g id="node35" class="node"><title>Node35</title>
<polygon fill="none" stroke="#bfbfbf" points="1716,-56.5 1716,-75.5 1882,-75.5 1882,-56.5 1716,-56.5"/>
<text text-anchor="middle" x="1799" y="-63.5" font-family="Helvetica,sans-Serif" font-size="10.00">CoreFoundation/CoreFoundation.h</text>
</g>
<!-- Node7&#45;&gt;Node35 -->
<g id="edge35" class="edge"><title>Node7&#45;&gt;Node35</title>
<path fill="none" stroke="midnightblue" d="M1146.37,-117.734C1248.45,-110.897 1490.45,-94.2633 1705.63,-76.011"/>
<polygon fill="midnightblue" stroke="midnightblue" points="1706.19,-79.4762 1715.86,-75.1406 1705.59,-72.5014 1706.19,-79.4762"/>
</g>
<!-- Node36 -->
<g id="node36" class="node"><title>Node36</title>
<polygon fill="none" stroke="#bfbfbf" points="1900,-56.5 1900,-75.5 2024,-75.5 2024,-56.5 1900,-56.5"/>
<text text-anchor="middle" x="1962" y="-63.5" font-family="Helvetica,sans-Serif" font-size="10.00">emscripten/emscripten.h</text>
</g>
<!-- Node7&#45;&gt;Node36 -->
<g id="edge36" class="edge"><title>Node7&#45;&gt;Node36</title>
<path fill="none" stroke="midnightblue" d="M1146.33,-119.396C1269.74,-115.13 1601.92,-102.068 1889.48,-76.0773"/>
<polygon fill="midnightblue" stroke="midnightblue" points="1890.05,-79.54 1899.69,-75.1472 1889.41,-72.5689 1890.05,-79.54"/>
</g>
<!-- Node38 -->
<g id="node38" class="node"><title>Node38</title>
<g id="a_node38"><a xlink:href="_ogre_memory_allocated_object_8h.html" target="_top" xlink:title="OgreMemoryAllocatedObject.h">
<polygon fill="none" stroke="black" points="2732,-56.5 2732,-75.5 2882,-75.5 2882,-56.5 2732,-56.5"/>
<text text-anchor="middle" x="2807" y="-63.5" font-family="Helvetica,sans-Serif" font-size="10.00">OgreMemoryAllocatedObject.h</text>
</a>
</g>
</g>
<!-- Node37&#45;&gt;Node38 -->
<g id="edge38" class="edge"><title>Node37&#45;&gt;Node38</title>
<path fill="none" stroke="midnightblue" d="M2652.16,-112.444C2683.51,-103.241 2733.53,-88.5617 2768.2,-78.3879"/>
<polygon fill="midnightblue" stroke="midnightblue" points="2769.37,-81.6909 2777.98,-75.5164 2767.4,-74.9742 2769.37,-81.6909"/>
</g>
<!-- Node37&#45;&gt;Node39 -->
<g id="edge42" class="edge"><title>Node37&#45;&gt;Node39</title>
<path fill="none" stroke="midnightblue" d="M2548.74,-112.941C2499.88,-106.263 2435.03,-94.755 2380,-76 2361.56,-69.7158 2359.84,-60.9569 2341,-56 2240.33,-29.5104 1516.62,-15.5891 1298.84,-11.9677"/>
<polygon fill="midnightblue" stroke="midnightblue" points="1298.61,-8.46348 1288.55,-11.798 1298.5,-15.4625 1298.61,-8.46348"/>
</g>
<!-- Node37&#45;&gt;Node40 -->
<g id="edge50" class="edge"><title>Node37&#45;&gt;Node40</title>
<path fill="none" stroke="midnightblue" d="M2634.18,-112.479C2652.13,-99.0876 2688.86,-72.904 2723,-56 2750.84,-42.2163 2783.98,-30.5523 2809.29,-22.5555"/>
<polygon fill="midnightblue" stroke="midnightblue" points="2810.41,-25.8734 2818.92,-19.5684 2808.33,-19.1876 2810.41,-25.8734"/>
</g>
<!-- Node41 -->
<g id="node41" class="node"><title>Node41</title>
<g id="a_node41"><a xlink:href="_ogre_memory_s_t_l_allocator_8h.html" target="_top" xlink:title="OgreMemorySTLAllocator.h">
<polygon fill="none" stroke="black" points="2389.5,-56.5 2389.5,-75.5 2526.5,-75.5 2526.5,-56.5 2389.5,-56.5"/>
<text text-anchor="middle" x="2458" y="-63.5" font-family="Helvetica,sans-Serif" font-size="10.00">OgreMemorySTLAllocator.h</text>
</a>
</g>
</g>
<!-- Node37&#45;&gt;Node41 -->
<g id="edge43" class="edge"><title>Node37&#45;&gt;Node41</title>
<path fill="none" stroke="midnightblue" d="M2596.86,-112.444C2568.98,-103.32 2524.65,-88.8133 2493.6,-78.6509"/>
<polygon fill="midnightblue" stroke="midnightblue" points="2494.62,-75.3005 2484.02,-75.5164 2492.44,-81.9533 2494.62,-75.3005"/>
</g>
<!-- Node42 -->
<g id="node42" class="node"><title>Node42</title>
<g id="a_node42"><a xlink:href="_ogre_memory_ned_pooling_8h.html" target="_top" xlink:title="OgreMemoryNedPooling.h">
<polygon fill="none" stroke="black" points="2544.5,-56.5 2544.5,-75.5 2675.5,-75.5 2675.5,-56.5 2544.5,-56.5"/>
<text text-anchor="middle" x="2610" y="-63.5" font-family="Helvetica,sans-Serif" font-size="10.00">OgreMemoryNedPooling.h</text>
</a>
</g>
</g>
<!-- Node37&#45;&gt;Node42 -->
<g id="edge47" class="edge"><title>Node37&#45;&gt;Node42</title>
<path fill="none" stroke="midnightblue" d="M2620.85,-112.083C2619.13,-104.927 2616.65,-94.6353 2614.5,-85.6911"/>
<polygon fill="midnightblue" stroke="midnightblue" points="2617.85,-84.6541 2612.11,-75.7511 2611.04,-86.2925 2617.85,-84.6541"/>
</g>
<!-- Node38&#45;&gt;Node2 -->
<g id="edge39" class="edge"><title>Node38&#45;&gt;Node2</title>
<path fill="none" stroke="midnightblue" d="M2793.62,-75.6512C2774.3,-88.1352 2737.46,-111.909 2706,-132 2689.66,-142.439 2671.15,-154.166 2657.13,-163.031"/>
<polygon fill="midnightblue" stroke="midnightblue" points="2655.21,-160.1 2648.63,-168.401 2658.95,-166.018 2655.21,-160.1"/>
</g>
<!-- Node38&#45;&gt;Node39 -->
<g id="edge40" class="edge"><title>Node38&#45;&gt;Node39</title>
<path fill="none" stroke="midnightblue" d="M2731.9,-59.0019C2716.09,-57.88 2699.5,-56.8078 2684,-56 2147.72,-28.0536 1498.67,-15.4101 1298.64,-11.9923"/>
<polygon fill="midnightblue" stroke="midnightblue" points="1298.68,-8.49246 1288.62,-11.8223 1298.56,-15.4915 1298.68,-8.49246"/>
</g>
<!-- Node38&#45;&gt;Node40 -->
<g id="edge41" class="edge"><title>Node38&#45;&gt;Node40</title>
<path fill="none" stroke="midnightblue" d="M2813.94,-56.083C2819.93,-48.3768 2828.75,-37.0333 2836.05,-27.6531"/>
<polygon fill="midnightblue" stroke="midnightblue" points="2838.82,-29.7934 2842.19,-19.7511 2833.29,-25.4958 2838.82,-29.7934"/>
</g>
<!-- Node41&#45;&gt;Node2 -->
<g id="edge44" class="edge"><title>Node41&#45;&gt;Node2</title>
<path fill="none" stroke="midnightblue" d="M2467.56,-75.7772C2482.32,-89.0534 2511.92,-114.541 2540,-132 2560.46,-144.72 2585.07,-156.286 2604.12,-164.507"/>
<polygon fill="midnightblue" stroke="midnightblue" points="2602.95,-167.812 2613.52,-168.489 2605.68,-161.366 2602.95,-167.812"/>
</g>
<!-- Node41&#45;&gt;Node39 -->
<g id="edge45" class="edge"><title>Node41&#45;&gt;Node39</title>
<path fill="none" stroke="midnightblue" d="M2389.19,-57.1719C2384.39,-56.7388 2379.63,-56.3418 2375,-56 1964.85,-25.6895 1469.93,-14.9265 1298.76,-11.956"/>
<polygon fill="midnightblue" stroke="midnightblue" points="1298.74,-8.45519 1288.68,-11.7836 1298.62,-15.4542 1298.74,-8.45519"/>
</g>
<!-- Node41&#45;&gt;Node40 -->
<g id="edge46" class="edge"><title>Node41&#45;&gt;Node40</title>
<path fill="none" stroke="midnightblue" d="M2519.96,-56.4435C2593.17,-46.3319 2714.25,-29.6095 2787.34,-19.5157"/>
<polygon fill="midnightblue" stroke="midnightblue" points="2787.9,-22.9721 2797.32,-18.1368 2786.94,-16.0379 2787.9,-22.9721"/>
</g>
<!-- Node42&#45;&gt;Node39 -->
<g id="edge48" class="edge"><title>Node42&#45;&gt;Node39</title>
<path fill="none" stroke="midnightblue" d="M2544.18,-56.7818C2541.08,-56.4952 2538.01,-56.2321 2535,-56 2060.34,-19.359 1485.73,-12.5478 1298.89,-11.2858"/>
<polygon fill="midnightblue" stroke="midnightblue" points="1298.74,-7.78479 1288.72,-11.22 1298.69,-14.7846 1298.74,-7.78479"/>
</g>
<!-- Node42&#45;&gt;Node40 -->
<g id="edge49" class="edge"><title>Node42&#45;&gt;Node40</title>
<path fill="none" stroke="midnightblue" d="M2647.87,-56.4435C2689.48,-47.0431 2756.37,-31.9291 2801.47,-21.7393"/>
<polygon fill="midnightblue" stroke="midnightblue" points="2802.32,-25.1343 2811.31,-19.5164 2800.78,-18.3064 2802.32,-25.1343"/>
</g>
<!-- Node43&#45;&gt;Node2 -->
<g id="edge52" class="edge"><title>Node43&#45;&gt;Node2</title>
<path fill="none" stroke="midnightblue" d="M2655.48,-456.085C2267.47,-449.929 114,-412.8 114,-347 114,-347 114,-347 114,-289 114,-225.44 2186.86,-186.703 2573.35,-180.033"/>
<polygon fill="midnightblue" stroke="midnightblue" points="2573.56,-183.53 2583.5,-179.858 2573.44,-176.531 2573.56,-183.53"/>
</g>
<!-- Node43&#45;&gt;Node39 -->
<g id="edge74" class="edge"><title>Node43&#45;&gt;Node39</title>
<path fill="none" stroke="midnightblue" d="M2655.41,-456.791C2346.7,-455.556 926.773,-447.984 488,-412 286.601,-395.483 38,-549.076 38,-347 38,-347 38,-347 38,-121 38,-84.0042 56.9761,-72.6768 90,-56 138.699,-31.4072 943.548,-15.958 1175.13,-12.0067"/>
<polygon fill="midnightblue" stroke="midnightblue" points="1175.45,-15.5018 1185.39,-11.8327 1175.33,-8.50279 1175.45,-15.5018"/>
</g>
<!-- Node43&#45;&gt;Node40 -->
<g id="edge75" class="edge"><title>Node43&#45;&gt;Node40</title>
<path fill="none" stroke="midnightblue" d="M2758.56,-448.494C2791.05,-441.231 2836.02,-429.206 2873,-412 2998.06,-353.811 3078,-316.931 3078,-179 3078,-179 3078,-179 3078,-121 3078,-90.9022 3081.05,-76.4883 3059,-56 3037.77,-36.2685 2964.86,-23.9056 2910.89,-17.2391"/>
<polygon fill="midnightblue" stroke="midnightblue" points="2911.05,-13.7337 2900.7,-16.0207 2910.22,-20.6842 2911.05,-13.7337"/>
</g>
<!-- Node44 -->
<g id="node44" class="node"><title>Node44</title>
<g id="a_node44"><a xlink:href="_ogre_hardware_vertex_buffer_8h.html" target="_top" xlink:title="OgreHardwareVertexBuffer.h">
<polygon fill="none" stroke="black" points="2564.5,-392.5 2564.5,-411.5 2707.5,-411.5 2707.5,-392.5 2564.5,-392.5"/>
<text text-anchor="middle" x="2636" y="-399.5" font-family="Helvetica,sans-Serif" font-size="10.00">OgreHardwareVertexBuffer.h</text>
</a>
</g>
</g>
<!-- Node43&#45;&gt;Node44 -->
<g id="edge53" class="edge"><title>Node43&#45;&gt;Node44</title>
<path fill="none" stroke="midnightblue" d="M2702.31,-448.324C2690.1,-439.979 2671.42,-427.212 2657,-417.352"/>
<polygon fill="midnightblue" stroke="midnightblue" points="2658.89,-414.408 2648.66,-411.655 2654.94,-420.187 2658.89,-414.408"/>
</g>
<!-- Node50 -->
<g id="node50" class="node"><title>Node50</title>
<g id="a_node50"><a xlink:href="_ogre_hardware_index_buffer_8h.html" target="_top" xlink:title="OgreHardwareIndexBuffer.h">
<polygon fill="none" stroke="black" points="2726,-392.5 2726,-411.5 2864,-411.5 2864,-392.5 2726,-392.5"/>
<text text-anchor="middle" x="2795" y="-399.5" font-family="Helvetica,sans-Serif" font-size="10.00">OgreHardwareIndexBuffer.h</text>
</a>
</g>
</g>
<!-- Node43&#45;&gt;Node50 -->
<g id="edge70" class="edge"><title>Node43&#45;&gt;Node50</title>
<path fill="none" stroke="midnightblue" d="M2727.85,-448.324C2740.22,-439.979 2759.13,-427.212 2773.74,-417.352"/>
<polygon fill="midnightblue" stroke="midnightblue" points="2775.85,-420.15 2782.18,-411.655 2771.93,-414.348 2775.85,-420.15"/>
</g>
<!-- Node44&#45;&gt;Node2 -->
<g id="edge54" class="edge"><title>Node44&#45;&gt;Node2</title>
<path fill="none" stroke="midnightblue" d="M2632,-392.33C2624.34,-375.159 2607.8,-335.421 2602,-300 2595.87,-262.564 2613.37,-220.042 2625.17,-196.694"/>
<polygon fill="midnightblue" stroke="midnightblue" points="2628.36,-198.144 2629.94,-187.668 2622.18,-194.873 2628.36,-198.144"/>
</g>
<!-- Node44&#45;&gt;Node39 -->
<g id="edge68" class="edge"><title>Node44&#45;&gt;Node39</title>
<path fill="none" stroke="midnightblue" d="M2564.18,-398.634C2149.15,-384.499 76,-307.466 76,-179 76,-179 76,-179 76,-121 76,-84.8221 92.9546,-72.7909 125,-56 171.721,-31.5196 948.016,-16.0576 1175.08,-12.0431"/>
<polygon fill="midnightblue" stroke="midnightblue" points="1175.22,-15.5413 1185.16,-11.8661 1175.1,-8.5424 1175.22,-15.5413"/>
</g>
<!-- Node44&#45;&gt;Node40 -->
<g id="edge69" class="edge"><title>Node44&#45;&gt;Node40</title>
<path fill="none" stroke="midnightblue" d="M2707.76,-392.907C2760.58,-385.658 2826.74,-373.461 2848,-356 2953.02,-269.762 2966.78,-178.034 2907,-56 2900.48,-42.6839 2887.9,-32.177 2876.13,-24.6761"/>
<polygon fill="midnightblue" stroke="midnightblue" points="2877.78,-21.5891 2867.39,-19.5294 2874.23,-27.6205 2877.78,-21.5891"/>
</g>
<!-- Node45 -->
<g id="node45" class="node"><title>Node45</title>
<g id="a_node45"><a xlink:href="_ogre_hardware_buffer_8h.html" target="_top" xlink:title="OgreHardwareBuffer.h">
<polygon fill="none" stroke="black" points="2611,-280.5 2611,-299.5 2725,-299.5 2725,-280.5 2611,-280.5"/>
<text text-anchor="middle" x="2668" y="-287.5" font-family="Helvetica,sans-Serif" font-size="10.00">OgreHardwareBuffer.h</text>
</a>
</g>
</g>
<!-- Node44&#45;&gt;Node45 -->
<g id="edge55" class="edge"><title>Node44&#45;&gt;Node45</title>
<path fill="none" stroke="midnightblue" d="M2638.51,-392.368C2643.7,-374.537 2655.7,-333.295 2662.68,-309.272"/>
<polygon fill="midnightblue" stroke="midnightblue" points="2666.07,-310.171 2665.5,-299.591 2659.35,-308.216 2666.07,-310.171"/>
</g>
<!-- Node47 -->
<g id="node47" class="node"><title>Node47</title>
<g id="a_node47"><a xlink:href="_ogre_shared_ptr_8h.html" target="_top" xlink:title="OgreSharedPtr.h">
<polygon fill="none" stroke="black" points="2750.5,-336.5 2750.5,-355.5 2839.5,-355.5 2839.5,-336.5 2750.5,-336.5"/>
<text text-anchor="middle" x="2795" y="-343.5" font-family="Helvetica,sans-Serif" font-size="10.00">OgreSharedPtr.h</text>
</a>
</g>
</g>
<!-- Node44&#45;&gt;Node47 -->
<g id="edge61" class="edge"><title>Node44&#45;&gt;Node47</title>
<path fill="none" stroke="midnightblue" d="M2661.19,-392.444C2687.94,-383.359 2730.4,-368.939 2760.31,-358.783"/>
<polygon fill="midnightblue" stroke="midnightblue" points="2761.58,-362.046 2769.92,-355.516 2759.33,-355.418 2761.58,-362.046"/>
</g>
<!-- Node49 -->
<g id="node49" class="node"><title>Node49</title>
<g id="a_node49"><a xlink:href="_ogre_colour_value_8h.html" target="_top" xlink:title="OgreColourValue.h">
<polygon fill="none" stroke="black" points="2455.5,-224.5 2455.5,-243.5 2554.5,-243.5 2554.5,-224.5 2455.5,-224.5"/>
<text text-anchor="middle" x="2505" y="-231.5" font-family="Helvetica,sans-Serif" font-size="10.00">OgreColourValue.h</text>
</a>
</g>
</g>
<!-- Node44&#45;&gt;Node49 -->
<g id="edge66" class="edge"><title>Node44&#45;&gt;Node49</title>
<path fill="none" stroke="midnightblue" d="M2618.58,-392.435C2603.92,-384.556 2583.16,-371.725 2569,-356 2540.76,-324.628 2520.9,-278.538 2511.38,-253.258"/>
<polygon fill="midnightblue" stroke="midnightblue" points="2514.65,-252.003 2507.94,-243.801 2508.07,-254.395 2514.65,-252.003"/>
</g>
<!-- Node45&#45;&gt;Node2 -->
<g id="edge56" class="edge"><title>Node45&#45;&gt;Node2</title>
<path fill="none" stroke="midnightblue" d="M2665.27,-280.387C2662.42,-271.339 2657.83,-256.69 2654,-244 2649.28,-228.347 2644.08,-210.52 2640.32,-197.499"/>
<polygon fill="midnightblue" stroke="midnightblue" points="2643.67,-196.485 2637.53,-187.846 2636.94,-198.424 2643.67,-196.485"/>
</g>
<!-- Node46 -->
<g id="node46" class="node"><title>Node46</title>
<g id="a_node46"><a xlink:href="_ogre_exception_8h.html" target="_top" xlink:title="OgreException.h">
<polygon fill="none" stroke="red" points="2663.5,-224.5 2663.5,-243.5 2752.5,-243.5 2752.5,-224.5 2663.5,-224.5"/>
<text text-anchor="middle" x="2708" y="-231.5" font-family="Helvetica,sans-Serif" font-size="10.00">OgreException.h</text>
</a>
</g>
</g>
<!-- Node45&#45;&gt;Node46 -->
<g id="edge57" class="edge"><title>Node45&#45;&gt;Node46</title>
<path fill="none" stroke="midnightblue" d="M2674.61,-280.083C2680.26,-272.455 2688.54,-261.264 2695.45,-251.941"/>
<polygon fill="midnightblue" stroke="midnightblue" points="2698.38,-253.87 2701.52,-243.751 2692.75,-249.703 2698.38,-253.87"/>
</g>
<!-- Node46&#45;&gt;Node2 -->
<g id="edge58" class="edge"><title>Node46&#45;&gt;Node2</title>
<path fill="none" stroke="midnightblue" d="M2696.27,-224.324C2685.16,-216.107 2668.26,-203.602 2655.02,-193.807"/>
<polygon fill="midnightblue" stroke="midnightblue" points="2657.06,-190.967 2646.94,-187.834 2652.9,-196.595 2657.06,-190.967"/>
</g>
<!-- Node46&#45;&gt;Node39 -->
<g id="edge59" class="edge"><title>Node46&#45;&gt;Node39</title>
<path fill="none" stroke="midnightblue" d="M2663.26,-230.203C2634.6,-228.417 2596.61,-226.057 2563,-224 2293.01,-207.471 318.279,-273.084 133,-76 126.912,-69.5236 126.844,-62.4121 133,-56 169.288,-18.2032 948,-12.1446 1175.26,-11.1808"/>
<polygon fill="midnightblue" stroke="midnightblue" points="1175.36,-14.6805 1185.34,-11.1398 1175.33,-7.68056 1175.36,-14.6805"/>
</g>
<!-- Node46&#45;&gt;Node40 -->
<g id="edge60" class="edge"><title>Node46&#45;&gt;Node40</title>
<path fill="none" stroke="midnightblue" d="M2726,-224.373C2764.93,-204.575 2856.21,-151.69 2891,-76 2899.38,-57.7687 2883.69,-38.6876 2869.16,-25.9528"/>
<polygon fill="midnightblue" stroke="midnightblue" points="2871.32,-23.2008 2861.37,-19.5765 2866.89,-28.6182 2871.32,-23.2008"/>
</g>
<!-- Node47&#45;&gt;Node2 -->
<g id="edge62" class="edge"><title>Node47&#45;&gt;Node2</title>
<path fill="none" stroke="midnightblue" d="M2814.2,-336.309C2836.19,-325.008 2867.77,-303.872 2856,-280 2826.93,-221.055 2751.38,-196.448 2696.7,-186.216"/>
<polygon fill="midnightblue" stroke="midnightblue" points="2697.21,-182.75 2686.75,-184.467 2695.99,-189.645 2697.21,-182.75"/>
</g>
<!-- Node48 -->
<g id="node48" class="node"><title>Node48</title>
<g id="a_node48"><a xlink:href="_ogre_atomic_scalar_8h.html" target="_top" xlink:title="OgreAtomicScalar.h">
<polygon fill="none" stroke="red" points="2743,-280.5 2743,-299.5 2847,-299.5 2847,-280.5 2743,-280.5"/>
<text text-anchor="middle" x="2795" y="-287.5" font-family="Helvetica,sans-Serif" font-size="10.00">OgreAtomicScalar.h</text>
</a>
</g>
</g>
<!-- Node47&#45;&gt;Node48 -->
<g id="edge63" class="edge"><title>Node47&#45;&gt;Node48</title>
<path fill="none" stroke="midnightblue" d="M2795,-336.083C2795,-329.006 2795,-318.861 2795,-309.986"/>
<polygon fill="midnightblue" stroke="midnightblue" points="2798.5,-309.751 2795,-299.751 2791.5,-309.751 2798.5,-309.751"/>
</g>
<!-- Node48&#45;&gt;Node2 -->
<g id="edge64" class="edge"><title>Node48&#45;&gt;Node2</title>
<path fill="none" stroke="midnightblue" d="M2792.64,-280.117C2788.51,-266.23 2778.68,-239.38 2761,-224 2742.06,-207.526 2716.66,-196.941 2693.63,-190.21"/>
<polygon fill="midnightblue" stroke="midnightblue" points="2694.5,-186.819 2683.93,-187.555 2692.65,-193.57 2694.5,-186.819"/>
</g>
<!-- Node48&#45;&gt;Node46 -->
<g id="edge65" class="edge"><title>Node48&#45;&gt;Node46</title>
<path fill="none" stroke="midnightblue" d="M2781.02,-280.324C2767.45,-271.9 2746.62,-258.971 2730.68,-249.074"/>
<polygon fill="midnightblue" stroke="midnightblue" points="2732.29,-245.954 2721.94,-243.655 2728.59,-251.902 2732.29,-245.954"/>
</g>
<!-- Node49&#45;&gt;Node2 -->
<g id="edge67" class="edge"><title>Node49&#45;&gt;Node2</title>
<path fill="none" stroke="midnightblue" d="M2525.6,-224.444C2546.99,-215.557 2580.68,-201.563 2605.02,-191.451"/>
<polygon fill="midnightblue" stroke="midnightblue" points="2606.61,-194.585 2614.5,-187.516 2603.92,-188.12 2606.61,-194.585"/>
</g>
<!-- Node50&#45;&gt;Node2 -->
<g id="edge71" class="edge"><title>Node50&#45;&gt;Node2</title>
<path fill="none" stroke="midnightblue" d="M2864.01,-395.456C2908.27,-388.405 2954.88,-372.387 2940,-336 2913.59,-271.421 2890.87,-258.097 2830,-224 2789.01,-201.039 2736.91,-189.779 2696.88,-184.265"/>
<polygon fill="midnightblue" stroke="midnightblue" points="2697.08,-180.762 2686.72,-182.952 2696.19,-187.705 2697.08,-180.762"/>
</g>
<!-- Node50&#45;&gt;Node45 -->
<g id="edge72" class="edge"><title>Node50&#45;&gt;Node45</title>
<path fill="none" stroke="midnightblue" d="M2784.56,-392.473C2773.62,-383.496 2755.98,-368.903 2741,-356 2721.65,-339.335 2699.83,-319.804 2685.13,-306.534"/>
<polygon fill="midnightblue" stroke="midnightblue" points="2687.13,-303.625 2677.36,-299.514 2682.43,-308.817 2687.13,-303.625"/>
</g>
<!-- Node50&#45;&gt;Node47 -->
<g id="edge73" class="edge"><title>Node50&#45;&gt;Node47</title>
<path fill="none" stroke="midnightblue" d="M2795,-392.083C2795,-385.006 2795,-374.861 2795,-365.986"/>
<polygon fill="midnightblue" stroke="midnightblue" points="2798.5,-365.751 2795,-355.751 2791.5,-365.751 2798.5,-365.751"/>
</g>
</g>
</svg>
