<?xml version="1.0" encoding="UTF-8" standalone="no"?>
<!DOCTYPE svg PUBLIC "-//W3C//DTD SVG 1.1//EN"
 "http://www.w3.org/Graphics/SVG/1.1/DTD/svg11.dtd">
<!-- Generated by graphviz version 2.38.0 (20140413.2041)
 -->
<!-- Title: OgrePlaneBoundedVolume.h Pages: 1 -->
<svg width="2997pt" height="476pt"
 viewBox="0.00 0.00 2997.00 476.00" xmlns="http://www.w3.org/2000/svg" xmlns:xlink="http://www.w3.org/1999/xlink">
<g id="graph0" class="graph" transform="scale(1 1) rotate(0) translate(4 472)">
<title>OgrePlaneBoundedVolume.h</title>
<!-- Node1 -->
<g id="node1" class="node"><title>Node1</title>
<polygon fill="#bfbfbf" stroke="black" points="2236,-448.5 2236,-467.5 2378,-467.5 2378,-448.5 2236,-448.5"/>
<text text-anchor="middle" x="2307" y="-455.5" font-family="Helvetica,sans-Serif" font-size="10.00">OgrePlaneBoundedVolume.h</text>
</g>
<!-- Node2 -->
<g id="node2" class="node"><title>Node2</title>
<g id="a_node2"><a xlink:href="_ogre_prerequisites_8h.html" target="_top" xlink:title="OgrePrerequisites.h">
<polygon fill="none" stroke="black" points="2232.5,-168.5 2232.5,-187.5 2335.5,-187.5 2335.5,-168.5 2232.5,-168.5"/>
<text text-anchor="middle" x="2284" y="-175.5" font-family="Helvetica,sans-Serif" font-size="10.00">OgrePrerequisites.h</text>
</a>
</g>
</g>
<!-- Node1&#45;&gt;Node2 -->
<g id="edge1" class="edge"><title>Node1&#45;&gt;Node2</title>
<path fill="none" stroke="midnightblue" d="M2327.83,-448.473C2360.97,-433.358 2422,-398.527 2422,-347 2422,-347 2422,-347 2422,-289 2422,-237.66 2362.87,-206.401 2322.03,-190.931"/>
<polygon fill="midnightblue" stroke="midnightblue" points="2323.19,-187.63 2312.59,-187.513 2320.8,-194.211 2323.19,-187.63"/>
</g>
<!-- Node39 -->
<g id="node39" class="node"><title>Node39</title>
<g id="a_node39"><a xlink:href="_ogre_header_prefix_8h.html" target="_top" xlink:title="OgreHeaderPrefix.h">
<polygon fill="none" stroke="black" points="2812.5,-0.5 2812.5,-19.5 2915.5,-19.5 2915.5,-0.5 2812.5,-0.5"/>
<text text-anchor="middle" x="2864" y="-7.5" font-family="Helvetica,sans-Serif" font-size="10.00">OgreHeaderPrefix.h</text>
</a>
</g>
</g>
<!-- Node1&#45;&gt;Node39 -->
<g id="edge73" class="edge"><title>Node1&#45;&gt;Node39</title>
<path fill="none" stroke="midnightblue" d="M2378.06,-452.921C2552.73,-441.946 2989,-408.391 2989,-347 2989,-347 2989,-347 2989,-121 2989,-72.1731 2934.58,-39.8917 2897.56,-23.5781"/>
<polygon fill="midnightblue" stroke="midnightblue" points="2898.68,-20.2502 2888.1,-19.5868 2895.95,-26.6995 2898.68,-20.2502"/>
</g>
<!-- Node40 -->
<g id="node40" class="node"><title>Node40</title>
<g id="a_node40"><a xlink:href="_ogre_header_suffix_8h.html" target="_top" xlink:title="OgreHeaderSuffix.h">
<polygon fill="none" stroke="black" points="2401.5,-0.5 2401.5,-19.5 2504.5,-19.5 2504.5,-0.5 2401.5,-0.5"/>
<text text-anchor="middle" x="2453" y="-7.5" font-family="Helvetica,sans-Serif" font-size="10.00">OgreHeaderSuffix.h</text>
</a>
</g>
</g>
<!-- Node1&#45;&gt;Node40 -->
<g id="edge74" class="edge"><title>Node1&#45;&gt;Node40</title>
<path fill="none" stroke="midnightblue" d="M2236,-457.23C1859.86,-457.995 117,-455.674 117,-347 117,-347 117,-347 117,-121 117,-90.9022 112.093,-74.2845 136,-56 182.096,-20.7454 2028.07,-12.4833 2391.32,-11.1977"/>
<polygon fill="midnightblue" stroke="midnightblue" points="2391.39,-14.6975 2401.38,-11.1625 2391.37,-7.69758 2391.39,-14.6975"/>
</g>
<!-- Node43 -->
<g id="node43" class="node"><title>Node43</title>
<g id="a_node43"><a xlink:href="_ogre_axis_aligned_box_8h.html" target="_top" xlink:title="OgreAxisAlignedBox.h">
<polygon fill="none" stroke="black" points="2249.5,-392.5 2249.5,-411.5 2364.5,-411.5 2364.5,-392.5 2249.5,-392.5"/>
<text text-anchor="middle" x="2307" y="-399.5" font-family="Helvetica,sans-Serif" font-size="10.00">OgreAxisAlignedBox.h</text>
</a>
</g>
</g>
<!-- Node1&#45;&gt;Node43 -->
<g id="edge51" class="edge"><title>Node1&#45;&gt;Node43</title>
<path fill="none" stroke="midnightblue" d="M2307,-448.083C2307,-441.006 2307,-430.861 2307,-421.986"/>
<polygon fill="midnightblue" stroke="midnightblue" points="2310.5,-421.751 2307,-411.751 2303.5,-421.751 2310.5,-421.751"/>
</g>
<!-- Node48 -->
<g id="node48" class="node"><title>Node48</title>
<g id="a_node48"><a xlink:href="_ogre_plane_8h.html" target="_top" xlink:title="OgrePlane.h">
<polygon fill="none" stroke="black" points="1957.5,-280.5 1957.5,-299.5 2028.5,-299.5 2028.5,-280.5 1957.5,-280.5"/>
<text text-anchor="middle" x="1993" y="-287.5" font-family="Helvetica,sans-Serif" font-size="10.00">OgrePlane.h</text>
</a>
</g>
</g>
<!-- Node1&#45;&gt;Node48 -->
<g id="edge72" class="edge"><title>Node1&#45;&gt;Node48</title>
<path fill="none" stroke="midnightblue" d="M2287.9,-448.38C2268.6,-439.566 2237.99,-425.317 2212,-412 2139.71,-374.952 2056.17,-327.462 2016.39,-304.556"/>
<polygon fill="midnightblue" stroke="midnightblue" points="2018.11,-301.505 2007.7,-299.539 2014.61,-307.568 2018.11,-301.505"/>
</g>
<!-- Node49 -->
<g id="node49" class="node"><title>Node49</title>
<g id="a_node49"><a xlink:href="_ogre_sphere_8h.html" target="_top" xlink:title="OgreSphere.h">
<polygon fill="none" stroke="black" points="2046.5,-280.5 2046.5,-299.5 2123.5,-299.5 2123.5,-280.5 2046.5,-280.5"/>
<text text-anchor="middle" x="2085" y="-287.5" font-family="Helvetica,sans-Serif" font-size="10.00">OgreSphere.h</text>
</a>
</g>
</g>
<!-- Node1&#45;&gt;Node49 -->
<g id="edge65" class="edge"><title>Node1&#45;&gt;Node49</title>
<path fill="none" stroke="midnightblue" d="M2293.71,-448.478C2280.06,-439.624 2258.27,-425.238 2240,-412 2189.65,-375.508 2132.48,-329.685 2103.68,-306.286"/>
<polygon fill="midnightblue" stroke="midnightblue" points="2105.66,-303.383 2095.7,-299.78 2101.24,-308.81 2105.66,-303.383"/>
</g>
<!-- Node50 -->
<g id="node50" class="node"><title>Node50</title>
<g id="a_node50"><a xlink:href="_ogre_math_8h.html" target="_top" xlink:title="OgreMath.h">
<polygon fill="none" stroke="black" points="2450,-224.5 2450,-243.5 2518,-243.5 2518,-224.5 2450,-224.5"/>
<text text-anchor="middle" x="2484" y="-231.5" font-family="Helvetica,sans-Serif" font-size="10.00">OgreMath.h</text>
</a>
</g>
</g>
<!-- Node1&#45;&gt;Node50 -->
<g id="edge68" class="edge"><title>Node1&#45;&gt;Node50</title>
<path fill="none" stroke="midnightblue" d="M2367.33,-448.5C2391.66,-442.184 2418.13,-431.178 2436,-412 2477.73,-367.209 2483.85,-289.859 2484.31,-254.121"/>
<polygon fill="midnightblue" stroke="midnightblue" points="2487.81,-253.698 2484.3,-243.704 2480.81,-253.709 2487.81,-253.698"/>
</g>
<!-- Node3 -->
<g id="node3" class="node"><title>Node3</title>
<g id="a_node3"><a xlink:href="_ogre_platform_8h.html" target="_top" xlink:title="OgrePlatform.h">
<polygon fill="none" stroke="black" points="725.5,-112.5 725.5,-131.5 808.5,-131.5 808.5,-112.5 725.5,-112.5"/>
<text text-anchor="middle" x="767" y="-119.5" font-family="Helvetica,sans-Serif" font-size="10.00">OgrePlatform.h</text>
</a>
</g>
</g>
<!-- Node2&#45;&gt;Node3 -->
<g id="edge2" class="edge"><title>Node2&#45;&gt;Node3</title>
<path fill="none" stroke="midnightblue" d="M2232.22,-175.157C1999.52,-166.874 1051.77,-133.137 818.878,-124.847"/>
<polygon fill="midnightblue" stroke="midnightblue" points="818.769,-121.341 808.651,-124.483 818.52,-128.336 818.769,-121.341"/>
</g>
<!-- Node6 -->
<g id="node6" class="node"><title>Node6</title>
<polygon fill="none" stroke="#bfbfbf" points="2294.5,-56.5 2294.5,-75.5 2335.5,-75.5 2335.5,-56.5 2294.5,-56.5"/>
<text text-anchor="middle" x="2315" y="-63.5" font-family="Helvetica,sans-Serif" font-size="10.00">string</text>
</g>
<!-- Node2&#45;&gt;Node6 -->
<g id="edge5" class="edge"><title>Node2&#45;&gt;Node6</title>
<path fill="none" stroke="midnightblue" d="M2286.43,-168.368C2291.46,-150.537 2303.08,-109.295 2309.85,-85.2717"/>
<polygon fill="midnightblue" stroke="midnightblue" points="2313.23,-86.1659 2312.58,-75.5914 2306.5,-84.2671 2313.23,-86.1659"/>
</g>
<!-- Node7 -->
<g id="node7" class="node"><title>Node7</title>
<g id="a_node7"><a xlink:href="_ogre_std_headers_8h.html" target="_top" xlink:title="OgreStdHeaders.h">
<polygon fill="none" stroke="black" points="1407,-112.5 1407,-131.5 1505,-131.5 1505,-112.5 1407,-112.5"/>
<text text-anchor="middle" x="1456" y="-119.5" font-family="Helvetica,sans-Serif" font-size="10.00">OgreStdHeaders.h</text>
</a>
</g>
</g>
<!-- Node2&#45;&gt;Node7 -->
<g id="edge6" class="edge"><title>Node2&#45;&gt;Node7</title>
<path fill="none" stroke="midnightblue" d="M2232.2,-173.622C2085.98,-164.086 1670.59,-136.995 1515.43,-126.876"/>
<polygon fill="midnightblue" stroke="midnightblue" points="1515.36,-123.364 1505.15,-126.205 1514.9,-130.349 1515.36,-123.364"/>
</g>
<!-- Node37 -->
<g id="node37" class="node"><title>Node37</title>
<g id="a_node37"><a xlink:href="_ogre_memory_allocator_config_8h.html" target="_top" xlink:title="This file configures Ogre&#39;s memory allocators. ">
<polygon fill="none" stroke="black" points="2482,-112.5 2482,-131.5 2630,-131.5 2630,-112.5 2482,-112.5"/>
<text text-anchor="middle" x="2556" y="-119.5" font-family="Helvetica,sans-Serif" font-size="10.00">OgreMemoryAllocatorConfig.h</text>
</a>
</g>
</g>
<!-- Node2&#45;&gt;Node37 -->
<g id="edge37" class="edge"><title>Node2&#45;&gt;Node37</title>
<path fill="none" stroke="midnightblue" d="M2327.1,-168.444C2374.85,-158.964 2451.86,-143.675 2503.19,-133.483"/>
<polygon fill="midnightblue" stroke="midnightblue" points="2503.98,-136.897 2513.1,-131.516 2502.61,-130.031 2503.98,-136.897"/>
</g>
<!-- Node4 -->
<g id="node4" class="node"><title>Node4</title>
<g id="a_node4"><a xlink:href="_ogre_config_8h.html" target="_top" xlink:title="OgreConfig.h">
<polygon fill="none" stroke="black" points="15,-56.5 15,-75.5 89,-75.5 89,-56.5 15,-56.5"/>
<text text-anchor="middle" x="52" y="-63.5" font-family="Helvetica,sans-Serif" font-size="10.00">OgreConfig.h</text>
</a>
</g>
</g>
<!-- Node3&#45;&gt;Node4 -->
<g id="edge3" class="edge"><title>Node3&#45;&gt;Node4</title>
<path fill="none" stroke="midnightblue" d="M725.242,-118.537C624.065,-112.457 357.793,-95.7841 136,-76 124.136,-74.9417 111.346,-73.6492 99.4113,-72.3775"/>
<polygon fill="midnightblue" stroke="midnightblue" points="99.5066,-68.8675 89.1882,-71.2717 98.7538,-75.8269 99.5066,-68.8675"/>
</g>
<!-- Node5 -->
<g id="node5" class="node"><title>Node5</title>
<polygon fill="none" stroke="#bfbfbf" points="0,-0.5 0,-19.5 104,-19.5 104,-0.5 0,-0.5"/>
<text text-anchor="middle" x="52" y="-7.5" font-family="Helvetica,sans-Serif" font-size="10.00">OgreBuildSettings.h</text>
</g>
<!-- Node4&#45;&gt;Node5 -->
<g id="edge4" class="edge"><title>Node4&#45;&gt;Node5</title>
<path fill="none" stroke="midnightblue" d="M52,-56.083C52,-49.0059 52,-38.8611 52,-29.9865"/>
<polygon fill="midnightblue" stroke="midnightblue" points="55.5001,-29.751 52,-19.7511 48.5001,-29.7511 55.5001,-29.751"/>
</g>
<!-- Node7&#45;&gt;Node6 -->
<g id="edge16" class="edge"><title>Node7&#45;&gt;Node6</title>
<path fill="none" stroke="midnightblue" d="M1505.24,-119.859C1656.65,-116.114 2114.85,-102.957 2284.47,-75.5477"/>
<polygon fill="midnightblue" stroke="midnightblue" points="2285.22,-78.97 2294.5,-73.85 2284.05,-72.0682 2285.22,-78.97"/>
</g>
<!-- Node8 -->
<g id="node8" class="node"><title>Node8</title>
<polygon fill="none" stroke="#bfbfbf" points="1305.5,-56.5 1305.5,-75.5 1354.5,-75.5 1354.5,-56.5 1305.5,-56.5"/>
<text text-anchor="middle" x="1330" y="-63.5" font-family="Helvetica,sans-Serif" font-size="10.00">cassert</text>
</g>
<!-- Node7&#45;&gt;Node8 -->
<g id="edge7" class="edge"><title>Node7&#45;&gt;Node8</title>
<path fill="none" stroke="midnightblue" d="M1436.03,-112.444C1415.39,-103.596 1382.94,-89.6875 1359.37,-79.5865"/>
<polygon fill="midnightblue" stroke="midnightblue" points="1360.44,-76.2387 1349.87,-75.5164 1357.68,-82.6727 1360.44,-76.2387"/>
</g>
<!-- Node9 -->
<g id="node9" class="node"><title>Node9</title>
<polygon fill="none" stroke="#bfbfbf" points="1372.5,-56.5 1372.5,-75.5 1415.5,-75.5 1415.5,-56.5 1372.5,-56.5"/>
<text text-anchor="middle" x="1394" y="-63.5" font-family="Helvetica,sans-Serif" font-size="10.00">cstdio</text>
</g>
<!-- Node7&#45;&gt;Node9 -->
<g id="edge8" class="edge"><title>Node7&#45;&gt;Node9</title>
<path fill="none" stroke="midnightblue" d="M1446.04,-112.324C1436.87,-104.341 1423.06,-92.3128 1411.97,-82.6529"/>
<polygon fill="midnightblue" stroke="midnightblue" points="1413.98,-79.7624 1404.14,-75.8339 1409.38,-85.041 1413.98,-79.7624"/>
</g>
<!-- Node10 -->
<g id="node10" class="node"><title>Node10</title>
<polygon fill="none" stroke="#bfbfbf" points="1433.5,-56.5 1433.5,-75.5 1478.5,-75.5 1478.5,-56.5 1433.5,-56.5"/>
<text text-anchor="middle" x="1456" y="-63.5" font-family="Helvetica,sans-Serif" font-size="10.00">cstdlib</text>
</g>
<!-- Node7&#45;&gt;Node10 -->
<g id="edge9" class="edge"><title>Node7&#45;&gt;Node10</title>
<path fill="none" stroke="midnightblue" d="M1456,-112.083C1456,-105.006 1456,-94.8611 1456,-85.9865"/>
<polygon fill="midnightblue" stroke="midnightblue" points="1459.5,-85.751 1456,-75.7511 1452.5,-85.7511 1459.5,-85.751"/>
</g>
<!-- Node11 -->
<g id="node11" class="node"><title>Node11</title>
<polygon fill="none" stroke="#bfbfbf" points="1496.5,-56.5 1496.5,-75.5 1537.5,-75.5 1537.5,-56.5 1496.5,-56.5"/>
<text text-anchor="middle" x="1517" y="-63.5" font-family="Helvetica,sans-Serif" font-size="10.00">ctime</text>
</g>
<!-- Node7&#45;&gt;Node11 -->
<g id="edge10" class="edge"><title>Node7&#45;&gt;Node11</title>
<path fill="none" stroke="midnightblue" d="M1465.8,-112.324C1474.82,-104.341 1488.41,-92.3128 1499.32,-82.6529"/>
<polygon fill="midnightblue" stroke="midnightblue" points="1501.85,-85.083 1507.02,-75.8339 1497.21,-79.8416 1501.85,-85.083"/>
</g>
<!-- Node12 -->
<g id="node12" class="node"><title>Node12</title>
<polygon fill="none" stroke="#bfbfbf" points="1556,-56.5 1556,-75.5 1602,-75.5 1602,-56.5 1556,-56.5"/>
<text text-anchor="middle" x="1579" y="-63.5" font-family="Helvetica,sans-Serif" font-size="10.00">cstring</text>
</g>
<!-- Node7&#45;&gt;Node12 -->
<g id="edge11" class="edge"><title>Node7&#45;&gt;Node12</title>
<path fill="none" stroke="midnightblue" d="M1475.49,-112.444C1495.64,-103.596 1527.32,-89.6875 1550.33,-79.5865"/>
<polygon fill="midnightblue" stroke="midnightblue" points="1551.85,-82.7411 1559.6,-75.5164 1549.04,-76.3316 1551.85,-82.7411"/>
</g>
<!-- Node13 -->
<g id="node13" class="node"><title>Node13</title>
<polygon fill="none" stroke="#bfbfbf" points="1620.5,-56.5 1620.5,-75.5 1669.5,-75.5 1669.5,-56.5 1620.5,-56.5"/>
<text text-anchor="middle" x="1645" y="-63.5" font-family="Helvetica,sans-Serif" font-size="10.00">cstdarg</text>
</g>
<!-- Node7&#45;&gt;Node13 -->
<g id="edge12" class="edge"><title>Node7&#45;&gt;Node13</title>
<path fill="none" stroke="midnightblue" d="M1485.95,-112.444C1519.77,-102.78 1574.72,-87.0801 1610.36,-76.8969"/>
<polygon fill="midnightblue" stroke="midnightblue" points="1611.66,-80.1663 1620.31,-74.0537 1609.74,-73.4357 1611.66,-80.1663"/>
</g>
<!-- Node14 -->
<g id="node14" class="node"><title>Node14</title>
<polygon fill="none" stroke="#bfbfbf" points="1688,-56.5 1688,-75.5 1732,-75.5 1732,-56.5 1688,-56.5"/>
<text text-anchor="middle" x="1710" y="-63.5" font-family="Helvetica,sans-Serif" font-size="10.00">cmath</text>
</g>
<!-- Node7&#45;&gt;Node14 -->
<g id="edge13" class="edge"><title>Node7&#45;&gt;Node14</title>
<path fill="none" stroke="midnightblue" d="M1503.43,-112.441C1546.42,-104.447 1611.7,-91.7181 1677.9,-75.8676"/>
<polygon fill="midnightblue" stroke="midnightblue" points="1678.78,-79.2574 1687.68,-73.5066 1677.13,-72.4532 1678.78,-79.2574"/>
</g>
<!-- Node15 -->
<g id="node15" class="node"><title>Node15</title>
<polygon fill="none" stroke="#bfbfbf" points="1750,-56.5 1750,-75.5 1794,-75.5 1794,-56.5 1750,-56.5"/>
<text text-anchor="middle" x="1772" y="-63.5" font-family="Helvetica,sans-Serif" font-size="10.00">vector</text>
</g>
<!-- Node7&#45;&gt;Node15 -->
<g id="edge14" class="edge"><title>Node7&#45;&gt;Node15</title>
<path fill="none" stroke="midnightblue" d="M1505.02,-115.169C1560.02,-108.203 1652.04,-95.2804 1739.88,-76.0204"/>
<polygon fill="midnightblue" stroke="midnightblue" points="1740.73,-79.4153 1749.74,-73.8276 1739.21,-72.5823 1740.73,-79.4153"/>
</g>
<!-- Node16 -->
<g id="node16" class="node"><title>Node16</title>
<polygon fill="none" stroke="#bfbfbf" points="1812.5,-56.5 1812.5,-75.5 1847.5,-75.5 1847.5,-56.5 1812.5,-56.5"/>
<text text-anchor="middle" x="1830" y="-63.5" font-family="Helvetica,sans-Serif" font-size="10.00">map</text>
</g>
<!-- Node7&#45;&gt;Node16 -->
<g id="edge15" class="edge"><title>Node7&#45;&gt;Node16</title>
<path fill="none" stroke="midnightblue" d="M1505.09,-117.63C1570.81,-112.462 1691.04,-100.708 1802.37,-75.7019"/>
<polygon fill="midnightblue" stroke="midnightblue" points="1803.45,-79.0437 1812.42,-73.4013 1801.89,-72.2201 1803.45,-79.0437"/>
</g>
<!-- Node17 -->
<g id="node17" class="node"><title>Node17</title>
<polygon fill="none" stroke="#bfbfbf" points="1866,-56.5 1866,-75.5 1896,-75.5 1896,-56.5 1866,-56.5"/>
<text text-anchor="middle" x="1881" y="-63.5" font-family="Helvetica,sans-Serif" font-size="10.00">set</text>
</g>
<!-- Node7&#45;&gt;Node17 -->
<g id="edge17" class="edge"><title>Node7&#45;&gt;Node17</title>
<path fill="none" stroke="midnightblue" d="M1505.27,-119.155C1581.39,-115.479 1731.79,-104.925 1856,-76 1856.1,-75.9765 1856.2,-75.9526 1856.3,-75.9285"/>
<polygon fill="midnightblue" stroke="midnightblue" points="1857.24,-79.3003 1865.83,-73.0973 1855.25,-72.5902 1857.24,-79.3003"/>
</g>
<!-- Node18 -->
<g id="node18" class="node"><title>Node18</title>
<polygon fill="none" stroke="#bfbfbf" points="1914.5,-56.5 1914.5,-75.5 1943.5,-75.5 1943.5,-56.5 1914.5,-56.5"/>
<text text-anchor="middle" x="1929" y="-63.5" font-family="Helvetica,sans-Serif" font-size="10.00">list</text>
</g>
<!-- Node7&#45;&gt;Node18 -->
<g id="edge18" class="edge"><title>Node7&#45;&gt;Node18</title>
<path fill="none" stroke="midnightblue" d="M1505.18,-120.213C1586.73,-118.012 1754.91,-109.672 1904.63,-75.4291"/>
<polygon fill="midnightblue" stroke="midnightblue" points="1905.52,-78.8155 1914.46,-73.1359 1903.93,-71.9984 1905.52,-78.8155"/>
</g>
<!-- Node19 -->
<g id="node19" class="node"><title>Node19</title>
<polygon fill="none" stroke="#bfbfbf" points="1961.5,-56.5 1961.5,-75.5 2004.5,-75.5 2004.5,-56.5 1961.5,-56.5"/>
<text text-anchor="middle" x="1983" y="-63.5" font-family="Helvetica,sans-Serif" font-size="10.00">deque</text>
</g>
<!-- Node7&#45;&gt;Node19 -->
<g id="edge19" class="edge"><title>Node7&#45;&gt;Node19</title>
<path fill="none" stroke="midnightblue" d="M1505.01,-119.668C1592.77,-116.61 1782.54,-106.932 1951.38,-75.7218"/>
<polygon fill="midnightblue" stroke="midnightblue" points="1952.27,-79.1172 1961.45,-73.8308 1950.97,-72.2376 1952.27,-79.1172"/>
</g>
<!-- Node20 -->
<g id="node20" class="node"><title>Node20</title>
<polygon fill="none" stroke="#bfbfbf" points="2022.5,-56.5 2022.5,-75.5 2065.5,-75.5 2065.5,-56.5 2022.5,-56.5"/>
<text text-anchor="middle" x="2044" y="-63.5" font-family="Helvetica,sans-Serif" font-size="10.00">queue</text>
</g>
<!-- Node7&#45;&gt;Node20 -->
<g id="edge20" class="edge"><title>Node7&#45;&gt;Node20</title>
<path fill="none" stroke="midnightblue" d="M1505.24,-120.349C1601.21,-118.362 1820,-110.314 2012.44,-75.689"/>
<polygon fill="midnightblue" stroke="midnightblue" points="2013.25,-79.0998 2022.45,-73.8587 2011.99,-72.2139 2013.25,-79.0998"/>
</g>
<!-- Node21 -->
<g id="node21" class="node"><title>Node21</title>
<polygon fill="none" stroke="#bfbfbf" points="2083.5,-56.5 2083.5,-75.5 2124.5,-75.5 2124.5,-56.5 2083.5,-56.5"/>
<text text-anchor="middle" x="2104" y="-63.5" font-family="Helvetica,sans-Serif" font-size="10.00">bitset</text>
</g>
<!-- Node7&#45;&gt;Node21 -->
<g id="edge21" class="edge"><title>Node7&#45;&gt;Node21</title>
<path fill="none" stroke="midnightblue" d="M1505.33,-121.051C1609.08,-120.376 1857.38,-114.647 2073.54,-75.6217"/>
<polygon fill="midnightblue" stroke="midnightblue" points="2074.28,-79.0447 2083.49,-73.7986 2073.02,-72.1595 2074.28,-79.0447"/>
</g>
<!-- Node22 -->
<g id="node22" class="node"><title>Node22</title>
<polygon fill="none" stroke="#bfbfbf" points="2143,-56.5 2143,-75.5 2199,-75.5 2199,-56.5 2143,-56.5"/>
<text text-anchor="middle" x="2171" y="-63.5" font-family="Helvetica,sans-Serif" font-size="10.00">algorithm</text>
</g>
<!-- Node7&#45;&gt;Node22 -->
<g id="edge22" class="edge"><title>Node7&#45;&gt;Node22</title>
<path fill="none" stroke="midnightblue" d="M1505.15,-120.525C1617.17,-118.833 1899.75,-111.125 2133,-76 2133.1,-75.9849 2133.2,-75.9696 2133.3,-75.9542"/>
<polygon fill="midnightblue" stroke="midnightblue" points="2133.67,-79.445 2142.88,-74.2097 2132.41,-72.5583 2133.67,-79.445"/>
</g>
<!-- Node23 -->
<g id="node23" class="node"><title>Node23</title>
<polygon fill="none" stroke="#bfbfbf" points="2217.5,-56.5 2217.5,-75.5 2276.5,-75.5 2276.5,-56.5 2217.5,-56.5"/>
<text text-anchor="middle" x="2247" y="-63.5" font-family="Helvetica,sans-Serif" font-size="10.00">functional</text>
</g>
<!-- Node7&#45;&gt;Node23 -->
<g id="edge23" class="edge"><title>Node7&#45;&gt;Node23</title>
<path fill="none" stroke="midnightblue" d="M1505.12,-120.891C1624.08,-120.02 1937.13,-114.106 2207.29,-75.8295"/>
<polygon fill="midnightblue" stroke="midnightblue" points="2207.88,-79.2802 2217.29,-74.3956 2206.89,-72.3511 2207.88,-79.2802"/>
</g>
<!-- Node24 -->
<g id="node24" class="node"><title>Node24</title>
<polygon fill="none" stroke="#bfbfbf" points="145,-56.5 145,-75.5 185,-75.5 185,-56.5 145,-56.5"/>
<text text-anchor="middle" x="165" y="-63.5" font-family="Helvetica,sans-Serif" font-size="10.00">limits</text>
</g>
<!-- Node7&#45;&gt;Node24 -->
<g id="edge24" class="edge"><title>Node7&#45;&gt;Node24</title>
<path fill="none" stroke="midnightblue" d="M1406.72,-120.015C1193.64,-115.656 355.494,-97.4232 195.448,-75.5706"/>
<polygon fill="midnightblue" stroke="midnightblue" points="195.529,-72.0423 185.115,-73.9911 194.471,-78.9619 195.529,-72.0423"/>
</g>
<!-- Node25 -->
<g id="node25" class="node"><title>Node25</title>
<polygon fill="none" stroke="#bfbfbf" points="203,-56.5 203,-75.5 253,-75.5 253,-56.5 203,-56.5"/>
<text text-anchor="middle" x="228" y="-63.5" font-family="Helvetica,sans-Serif" font-size="10.00">fstream</text>
</g>
<!-- Node7&#45;&gt;Node25 -->
<g id="edge25" class="edge"><title>Node7&#45;&gt;Node25</title>
<path fill="none" stroke="midnightblue" d="M1406.87,-120.596C1214.04,-118.787 507.994,-110.037 263.039,-75.7527"/>
<polygon fill="midnightblue" stroke="midnightblue" points="263.521,-72.286 253.121,-74.3122 262.514,-79.2133 263.521,-72.286"/>
</g>
<!-- Node26 -->
<g id="node26" class="node"><title>Node26</title>
<polygon fill="none" stroke="#bfbfbf" points="271.5,-56.5 271.5,-75.5 316.5,-75.5 316.5,-56.5 271.5,-56.5"/>
<text text-anchor="middle" x="294" y="-63.5" font-family="Helvetica,sans-Serif" font-size="10.00">iosfwd</text>
</g>
<!-- Node7&#45;&gt;Node26 -->
<g id="edge26" class="edge"><title>Node7&#45;&gt;Node26</title>
<path fill="none" stroke="midnightblue" d="M1406.94,-120.574C1220.97,-118.727 558.745,-109.969 326.643,-75.6071"/>
<polygon fill="midnightblue" stroke="midnightblue" points="326.996,-72.1202 316.58,-74.0575 325.931,-79.0387 326.996,-72.1202"/>
</g>
<!-- Node27 -->
<g id="node27" class="node"><title>Node27</title>
<polygon fill="none" stroke="#bfbfbf" points="335,-56.5 335,-75.5 387,-75.5 387,-56.5 335,-56.5"/>
<text text-anchor="middle" x="361" y="-63.5" font-family="Helvetica,sans-Serif" font-size="10.00">sstream</text>
</g>
<!-- Node7&#45;&gt;Node27 -->
<g id="edge27" class="edge"><title>Node7&#45;&gt;Node27</title>
<path fill="none" stroke="midnightblue" d="M1406.93,-120.279C1228.62,-117.452 614.55,-105.84 397.295,-75.8223"/>
<polygon fill="midnightblue" stroke="midnightblue" points="397.649,-72.3373 387.253,-74.379 396.653,-79.2661 397.649,-72.3373"/>
</g>
<!-- Node28 -->
<g id="node28" class="node"><title>Node28</title>
<polygon fill="none" stroke="#bfbfbf" points="405,-56.5 405,-75.5 473,-75.5 473,-56.5 405,-56.5"/>
<text text-anchor="middle" x="439" y="-63.5" font-family="Helvetica,sans-Serif" font-size="10.00">sys/types.h</text>
</g>
<!-- Node7&#45;&gt;Node28 -->
<g id="edge28" class="edge"><title>Node7&#45;&gt;Node28</title>
<path fill="none" stroke="midnightblue" d="M1406.86,-121.5C1264.97,-122.356 842.383,-120.763 483.256,-75.9407"/>
<polygon fill="midnightblue" stroke="midnightblue" points="483.543,-72.4493 473.184,-74.6701 482.667,-79.3942 483.543,-72.4493"/>
</g>
<!-- Node29 -->
<g id="node29" class="node"><title>Node29</title>
<polygon fill="none" stroke="#bfbfbf" points="491,-56.5 491,-75.5 551,-75.5 551,-56.5 491,-56.5"/>
<text text-anchor="middle" x="521" y="-63.5" font-family="Helvetica,sans-Serif" font-size="10.00">sys/stat.h</text>
</g>
<!-- Node7&#45;&gt;Node29 -->
<g id="edge29" class="edge"><title>Node7&#45;&gt;Node29</title>
<path fill="none" stroke="midnightblue" d="M1406.66,-121.567C1272.28,-122.464 888.456,-120.705 561.286,-75.9142"/>
<polygon fill="midnightblue" stroke="midnightblue" points="561.521,-72.4135 551.136,-74.5081 560.561,-79.3473 561.521,-72.4135"/>
</g>
<!-- Node30 -->
<g id="node30" class="node"><title>Node30</title>
<polygon fill="none" stroke="#bfbfbf" points="569.5,-56.5 569.5,-75.5 620.5,-75.5 620.5,-56.5 569.5,-56.5"/>
<text text-anchor="middle" x="595" y="-63.5" font-family="Helvetica,sans-Serif" font-size="10.00">unistd.h</text>
</g>
<!-- Node7&#45;&gt;Node30 -->
<g id="edge30" class="edge"><title>Node7&#45;&gt;Node30</title>
<path fill="none" stroke="midnightblue" d="M1406.77,-121.686C1279.65,-122.742 930.005,-121.088 631.042,-75.8195"/>
<polygon fill="midnightblue" stroke="midnightblue" points="631.291,-72.3168 620.875,-74.2601 630.229,-79.2358 631.291,-72.3168"/>
</g>
<!-- Node31 -->
<g id="node31" class="node"><title>Node31</title>
<polygon fill="none" stroke="#bfbfbf" points="639,-56.5 639,-75.5 685,-75.5 685,-56.5 639,-56.5"/>
<text text-anchor="middle" x="662" y="-63.5" font-family="Helvetica,sans-Serif" font-size="10.00">dlfcn.h</text>
</g>
<!-- Node7&#45;&gt;Node31 -->
<g id="edge31" class="edge"><title>Node7&#45;&gt;Node31</title>
<path fill="none" stroke="midnightblue" d="M1406.56,-121.74C1286.08,-122.763 967.845,-120.765 695.367,-75.8593"/>
<polygon fill="midnightblue" stroke="midnightblue" points="695.727,-72.371 685.287,-74.1747 694.573,-79.2752 695.727,-72.371"/>
</g>
<!-- Node32 -->
<g id="node32" class="node"><title>Node32</title>
<polygon fill="none" stroke="#bfbfbf" points="703,-56.5 703,-75.5 781,-75.5 781,-56.5 703,-56.5"/>
<text text-anchor="middle" x="742" y="-63.5" font-family="Helvetica,sans-Serif" font-size="10.00">ext/hash_map</text>
</g>
<!-- Node7&#45;&gt;Node32 -->
<g id="edge32" class="edge"><title>Node7&#45;&gt;Node32</title>
<path fill="none" stroke="midnightblue" d="M1406.93,-119.664C1297.96,-116.271 1027.45,-105.495 791.383,-76.0274"/>
<polygon fill="midnightblue" stroke="midnightblue" points="791.593,-72.5261 781.233,-74.746 790.716,-79.471 791.593,-72.5261"/>
</g>
<!-- Node33 -->
<g id="node33" class="node"><title>Node33</title>
<polygon fill="none" stroke="#bfbfbf" points="799.5,-56.5 799.5,-75.5 872.5,-75.5 872.5,-56.5 799.5,-56.5"/>
<text text-anchor="middle" x="836" y="-63.5" font-family="Helvetica,sans-Serif" font-size="10.00">ext/hash_set</text>
</g>
<!-- Node7&#45;&gt;Node33 -->
<g id="edge33" class="edge"><title>Node7&#45;&gt;Node33</title>
<path fill="none" stroke="midnightblue" d="M1406.94,-119.136C1309.04,-114.988 1082.35,-103.244 882.855,-76.114"/>
<polygon fill="midnightblue" stroke="midnightblue" points="883.16,-72.623 872.776,-74.7267 882.206,-79.5576 883.16,-72.623"/>
</g>
<!-- Node34 -->
<g id="node34" class="node"><title>Node34</title>
<polygon fill="none" stroke="#bfbfbf" points="890.5,-56.5 890.5,-75.5 961.5,-75.5 961.5,-56.5 890.5,-56.5"/>
<text text-anchor="middle" x="926" y="-63.5" font-family="Helvetica,sans-Serif" font-size="10.00">sys/param.h</text>
</g>
<!-- Node7&#45;&gt;Node34 -->
<g id="edge34" class="edge"><title>Node7&#45;&gt;Node34</title>
<path fill="none" stroke="midnightblue" d="M1406.92,-118.154C1320.93,-112.796 1137.3,-99.6995 972.15,-76.0142"/>
<polygon fill="midnightblue" stroke="midnightblue" points="972.202,-72.4851 961.803,-74.5126 971.196,-79.4125 972.202,-72.4851"/>
</g>
<!-- Node35 -->
<g id="node35" class="node"><title>Node35</title>
<polygon fill="none" stroke="#bfbfbf" points="980,-56.5 980,-75.5 1146,-75.5 1146,-56.5 980,-56.5"/>
<text text-anchor="middle" x="1063" y="-63.5" font-family="Helvetica,sans-Serif" font-size="10.00">CoreFoundation/CoreFoundation.h</text>
</g>
<!-- Node7&#45;&gt;Node35 -->
<g id="edge35" class="edge"><title>Node7&#45;&gt;Node35</title>
<path fill="none" stroke="midnightblue" d="M1406.62,-114.216C1338.26,-104.822 1214.31,-87.7902 1135.45,-76.9548"/>
<polygon fill="midnightblue" stroke="midnightblue" points="1135.49,-73.428 1125.11,-75.5341 1134.54,-80.3628 1135.49,-73.428"/>
</g>
<!-- Node36 -->
<g id="node36" class="node"><title>Node36</title>
<polygon fill="none" stroke="#bfbfbf" points="1164,-56.5 1164,-75.5 1288,-75.5 1288,-56.5 1164,-56.5"/>
<text text-anchor="middle" x="1226" y="-63.5" font-family="Helvetica,sans-Serif" font-size="10.00">emscripten/emscripten.h</text>
</g>
<!-- Node7&#45;&gt;Node36 -->
<g id="edge36" class="edge"><title>Node7&#45;&gt;Node36</title>
<path fill="none" stroke="midnightblue" d="M1419.56,-112.444C1379.6,-103.063 1315.41,-87.9926 1272.02,-77.8036"/>
<polygon fill="midnightblue" stroke="midnightblue" points="1272.81,-74.3948 1262.27,-75.5164 1271.21,-81.2095 1272.81,-74.3948"/>
</g>
<!-- Node38 -->
<g id="node38" class="node"><title>Node38</title>
<g id="a_node38"><a xlink:href="_ogre_memory_allocated_object_8h.html" target="_top" xlink:title="OgreMemoryAllocatedObject.h">
<polygon fill="none" stroke="black" points="2430,-56.5 2430,-75.5 2580,-75.5 2580,-56.5 2430,-56.5"/>
<text text-anchor="middle" x="2505" y="-63.5" font-family="Helvetica,sans-Serif" font-size="10.00">OgreMemoryAllocatedObject.h</text>
</a>
</g>
</g>
<!-- Node37&#45;&gt;Node38 -->
<g id="edge38" class="edge"><title>Node37&#45;&gt;Node38</title>
<path fill="none" stroke="midnightblue" d="M2547.58,-112.083C2540.15,-104.22 2529.15,-92.5688 2520.19,-83.0813"/>
<polygon fill="midnightblue" stroke="midnightblue" points="2522.68,-80.618 2513.26,-75.7511 2517.59,-85.4244 2522.68,-80.618"/>
</g>
<!-- Node37&#45;&gt;Node39 -->
<g id="edge42" class="edge"><title>Node37&#45;&gt;Node39</title>
<path fill="none" stroke="midnightblue" d="M2630.17,-116.246C2724.39,-109.438 2876.89,-95.5402 2894,-76 2906.46,-61.7743 2893.51,-41.4998 2880.96,-27.3905"/>
<polygon fill="midnightblue" stroke="midnightblue" points="2883.24,-24.7114 2873.81,-19.8879 2878.17,-29.5412 2883.24,-24.7114"/>
</g>
<!-- Node37&#45;&gt;Node40 -->
<g id="edge50" class="edge"><title>Node37&#45;&gt;Node40</title>
<path fill="none" stroke="midnightblue" d="M2481.74,-113.276C2458.49,-106.953 2435.23,-95.7413 2421,-76 2409.93,-60.6463 2422.93,-40.8858 2435.53,-27.2031"/>
<polygon fill="midnightblue" stroke="midnightblue" points="2438.18,-29.5026 2442.71,-19.9285 2433.2,-24.5835 2438.18,-29.5026"/>
</g>
<!-- Node41 -->
<g id="node41" class="node"><title>Node41</title>
<g id="a_node41"><a xlink:href="_ogre_memory_s_t_l_allocator_8h.html" target="_top" xlink:title="OgreMemorySTLAllocator.h">
<polygon fill="none" stroke="black" points="2747.5,-56.5 2747.5,-75.5 2884.5,-75.5 2884.5,-56.5 2747.5,-56.5"/>
<text text-anchor="middle" x="2816" y="-63.5" font-family="Helvetica,sans-Serif" font-size="10.00">OgreMemorySTLAllocator.h</text>
</a>
</g>
</g>
<!-- Node37&#45;&gt;Node41 -->
<g id="edge43" class="edge"><title>Node37&#45;&gt;Node41</title>
<path fill="none" stroke="midnightblue" d="M2597.2,-112.444C2642.65,-103.004 2715.84,-87.802 2764.91,-77.6111"/>
<polygon fill="midnightblue" stroke="midnightblue" points="2765.92,-80.9769 2774.99,-75.5164 2764.49,-74.1232 2765.92,-80.9769"/>
</g>
<!-- Node42 -->
<g id="node42" class="node"><title>Node42</title>
<g id="a_node42"><a xlink:href="_ogre_memory_ned_pooling_8h.html" target="_top" xlink:title="OgreMemoryNedPooling.h">
<polygon fill="none" stroke="black" points="2598.5,-56.5 2598.5,-75.5 2729.5,-75.5 2729.5,-56.5 2598.5,-56.5"/>
<text text-anchor="middle" x="2664" y="-63.5" font-family="Helvetica,sans-Serif" font-size="10.00">OgreMemoryNedPooling.h</text>
</a>
</g>
</g>
<!-- Node37&#45;&gt;Node42 -->
<g id="edge47" class="edge"><title>Node37&#45;&gt;Node42</title>
<path fill="none" stroke="midnightblue" d="M2573.35,-112.324C2590.67,-103.664 2617.52,-90.2424 2637.5,-80.249"/>
<polygon fill="midnightblue" stroke="midnightblue" points="2639.31,-83.2572 2646.69,-75.6545 2636.18,-76.9962 2639.31,-83.2572"/>
</g>
<!-- Node38&#45;&gt;Node2 -->
<g id="edge39" class="edge"><title>Node38&#45;&gt;Node2</title>
<path fill="none" stroke="midnightblue" d="M2487.74,-75.5914C2449.25,-94.7509 2356.17,-141.078 2310.36,-163.878"/>
<polygon fill="midnightblue" stroke="midnightblue" points="2308.73,-160.779 2301.34,-168.368 2311.85,-167.046 2308.73,-160.779"/>
</g>
<!-- Node38&#45;&gt;Node39 -->
<g id="edge40" class="edge"><title>Node38&#45;&gt;Node39</title>
<path fill="none" stroke="midnightblue" d="M2561.88,-56.4435C2627.42,-46.5854 2734.73,-30.4439 2802.26,-20.2872"/>
<polygon fill="midnightblue" stroke="midnightblue" points="2802.96,-23.7206 2812.33,-18.772 2801.92,-16.7985 2802.96,-23.7206"/>
</g>
<!-- Node38&#45;&gt;Node40 -->
<g id="edge41" class="edge"><title>Node38&#45;&gt;Node40</title>
<path fill="none" stroke="midnightblue" d="M2496.41,-56.083C2488.84,-48.2195 2477.62,-36.5688 2468.49,-27.0813"/>
<polygon fill="midnightblue" stroke="midnightblue" points="2470.88,-24.5266 2461.43,-19.7511 2465.84,-29.3821 2470.88,-24.5266"/>
</g>
<!-- Node41&#45;&gt;Node2 -->
<g id="edge44" class="edge"><title>Node41&#45;&gt;Node2</title>
<path fill="none" stroke="midnightblue" d="M2797.06,-75.5751C2765.15,-89.6542 2698.32,-117.546 2639,-132 2537.89,-156.637 2417.1,-168.3 2345.68,-173.418"/>
<polygon fill="midnightblue" stroke="midnightblue" points="2345.24,-169.94 2335.51,-174.127 2345.73,-176.923 2345.24,-169.94"/>
</g>
<!-- Node41&#45;&gt;Node39 -->
<g id="edge45" class="edge"><title>Node41&#45;&gt;Node39</title>
<path fill="none" stroke="midnightblue" d="M2823.93,-56.083C2830.85,-48.2982 2841.07,-36.8015 2849.45,-27.3665"/>
<polygon fill="midnightblue" stroke="midnightblue" points="2852.19,-29.5505 2856.22,-19.7511 2846.96,-24.8999 2852.19,-29.5505"/>
</g>
<!-- Node41&#45;&gt;Node40 -->
<g id="edge46" class="edge"><title>Node41&#45;&gt;Node40</title>
<path fill="none" stroke="midnightblue" d="M2758.48,-56.4435C2692.02,-46.5572 2583.08,-30.3512 2514.84,-20.1999"/>
<polygon fill="midnightblue" stroke="midnightblue" points="2515.07,-16.6957 2504.67,-18.6861 2514.04,-23.6195 2515.07,-16.6957"/>
</g>
<!-- Node42&#45;&gt;Node39 -->
<g id="edge48" class="edge"><title>Node42&#45;&gt;Node39</title>
<path fill="none" stroke="midnightblue" d="M2695.69,-56.4435C2730.07,-47.1616 2785.08,-32.3093 2822.79,-22.127"/>
<polygon fill="midnightblue" stroke="midnightblue" points="2823.72,-25.5022 2832.46,-19.5164 2821.89,-18.7442 2823.72,-25.5022"/>
</g>
<!-- Node42&#45;&gt;Node40 -->
<g id="edge49" class="edge"><title>Node42&#45;&gt;Node40</title>
<path fill="none" stroke="midnightblue" d="M2630.57,-56.4435C2594.14,-47.1221 2535.77,-32.1828 2495.97,-21.9972"/>
<polygon fill="midnightblue" stroke="midnightblue" points="2496.83,-18.6051 2486.28,-19.5164 2495.1,-25.3866 2496.83,-18.6051"/>
</g>
<!-- Node43&#45;&gt;Node2 -->
<g id="edge52" class="edge"><title>Node43&#45;&gt;Node2</title>
<path fill="none" stroke="midnightblue" d="M2311.31,-392.17C2315.61,-383.192 2322.23,-368.819 2327,-356 2339.08,-323.564 2346.45,-314.525 2344,-280 2342.22,-254.922 2348.05,-246.068 2336,-224 2329.3,-211.72 2317.83,-201.253 2307.37,-193.512"/>
<polygon fill="midnightblue" stroke="midnightblue" points="2309.16,-190.493 2298.95,-187.671 2305.17,-196.246 2309.16,-190.493"/>
</g>
<!-- Node44 -->
<g id="node44" class="node"><title>Node44</title>
<g id="a_node44"><a xlink:href="_ogre_matrix4_8h.html" target="_top" xlink:title="OgreMatrix4.h">
<polygon fill="none" stroke="black" points="2240,-336.5 2240,-355.5 2318,-355.5 2318,-336.5 2240,-336.5"/>
<text text-anchor="middle" x="2279" y="-343.5" font-family="Helvetica,sans-Serif" font-size="10.00">OgreMatrix4.h</text>
</a>
</g>
</g>
<!-- Node43&#45;&gt;Node44 -->
<g id="edge53" class="edge"><title>Node43&#45;&gt;Node44</title>
<path fill="none" stroke="midnightblue" d="M2302.38,-392.083C2298.54,-384.691 2292.98,-373.953 2288.24,-364.811"/>
<polygon fill="midnightblue" stroke="midnightblue" points="2291.25,-363.018 2283.54,-355.751 2285.03,-366.24 2291.25,-363.018"/>
</g>
<!-- Node44&#45;&gt;Node2 -->
<g id="edge54" class="edge"><title>Node44&#45;&gt;Node2</title>
<path fill="none" stroke="midnightblue" d="M2293.37,-336.33C2304.88,-328.469 2320.19,-315.722 2327,-300 2342.8,-263.54 2315.75,-219.198 2297.87,-195.621"/>
<polygon fill="midnightblue" stroke="midnightblue" points="2300.52,-193.331 2291.57,-187.662 2295.03,-197.675 2300.52,-193.331"/>
</g>
<!-- Node45 -->
<g id="node45" class="node"><title>Node45</title>
<g id="a_node45"><a xlink:href="_ogre_matrix3_8h.html" target="_top" xlink:title="OgreMatrix3.h">
<polygon fill="none" stroke="black" points="2240,-280.5 2240,-299.5 2318,-299.5 2318,-280.5 2240,-280.5"/>
<text text-anchor="middle" x="2279" y="-287.5" font-family="Helvetica,sans-Serif" font-size="10.00">OgreMatrix3.h</text>
</a>
</g>
</g>
<!-- Node44&#45;&gt;Node45 -->
<g id="edge55" class="edge"><title>Node44&#45;&gt;Node45</title>
<path fill="none" stroke="midnightblue" d="M2279,-336.083C2279,-329.006 2279,-318.861 2279,-309.986"/>
<polygon fill="midnightblue" stroke="midnightblue" points="2282.5,-309.751 2279,-299.751 2275.5,-309.751 2282.5,-309.751"/>
</g>
<!-- Node47 -->
<g id="node47" class="node"><title>Node47</title>
<g id="a_node47"><a xlink:href="_ogre_vector4_8h.html" target="_top" xlink:title="OgreVector4.h">
<polygon fill="none" stroke="black" points="2142,-280.5 2142,-299.5 2222,-299.5 2222,-280.5 2142,-280.5"/>
<text text-anchor="middle" x="2182" y="-287.5" font-family="Helvetica,sans-Serif" font-size="10.00">OgreVector4.h</text>
</a>
</g>
</g>
<!-- Node44&#45;&gt;Node47 -->
<g id="edge59" class="edge"><title>Node44&#45;&gt;Node47</title>
<path fill="none" stroke="midnightblue" d="M2263.42,-336.324C2248,-327.743 2224.19,-314.486 2206.29,-304.522"/>
<polygon fill="midnightblue" stroke="midnightblue" points="2207.99,-301.461 2197.55,-299.655 2204.58,-307.577 2207.99,-301.461"/>
</g>
<!-- Node44&#45;&gt;Node48 -->
<g id="edge62" class="edge"><title>Node44&#45;&gt;Node48</title>
<path fill="none" stroke="midnightblue" d="M2239.98,-337.966C2194.08,-329.643 2115.31,-315.207 2038.39,-300.247"/>
<polygon fill="midnightblue" stroke="midnightblue" points="2039.02,-296.803 2028.53,-298.324 2037.68,-303.674 2039.02,-296.803"/>
</g>
<!-- Node45&#45;&gt;Node2 -->
<g id="edge56" class="edge"><title>Node45&#45;&gt;Node2</title>
<path fill="none" stroke="midnightblue" d="M2279.39,-280.368C2280.2,-262.617 2282.06,-221.666 2283.15,-197.597"/>
<polygon fill="midnightblue" stroke="midnightblue" points="2286.65,-197.74 2283.61,-187.591 2279.66,-197.422 2286.65,-197.74"/>
</g>
<!-- Node46 -->
<g id="node46" class="node"><title>Node46</title>
<g id="a_node46"><a xlink:href="_ogre_vector3_8h.html" target="_top" xlink:title="OgreVector3.h">
<polygon fill="none" stroke="red" points="2138,-224.5 2138,-243.5 2218,-243.5 2218,-224.5 2138,-224.5"/>
<text text-anchor="middle" x="2178" y="-231.5" font-family="Helvetica,sans-Serif" font-size="10.00">OgreVector3.h</text>
</a>
</g>
</g>
<!-- Node45&#45;&gt;Node46 -->
<g id="edge57" class="edge"><title>Node45&#45;&gt;Node46</title>
<path fill="none" stroke="midnightblue" d="M2262.77,-280.324C2246.65,-271.703 2221.7,-258.364 2203.04,-248.386"/>
<polygon fill="midnightblue" stroke="midnightblue" points="2204.66,-245.283 2194.19,-243.655 2201.36,-251.456 2204.66,-245.283"/>
</g>
<!-- Node46&#45;&gt;Node2 -->
<g id="edge58" class="edge"><title>Node46&#45;&gt;Node2</title>
<path fill="none" stroke="midnightblue" d="M2195.03,-224.324C2212.03,-215.664 2238.38,-202.242 2257.99,-192.249"/>
<polygon fill="midnightblue" stroke="midnightblue" points="2259.69,-195.312 2267.01,-187.655 2256.51,-189.075 2259.69,-195.312"/>
</g>
<!-- Node47&#45;&gt;Node2 -->
<g id="edge60" class="edge"><title>Node47&#45;&gt;Node2</title>
<path fill="none" stroke="midnightblue" d="M2191.14,-280.205C2200.36,-271.255 2214.92,-256.902 2227,-244 2242.15,-227.825 2258.79,-208.685 2270.15,-195.381"/>
<polygon fill="midnightblue" stroke="midnightblue" points="2272.98,-197.457 2276.79,-187.571 2267.65,-192.922 2272.98,-197.457"/>
</g>
<!-- Node47&#45;&gt;Node46 -->
<g id="edge61" class="edge"><title>Node47&#45;&gt;Node46</title>
<path fill="none" stroke="midnightblue" d="M2181.34,-280.083C2180.82,-273.006 2180.06,-262.861 2179.41,-253.986"/>
<polygon fill="midnightblue" stroke="midnightblue" points="2182.88,-253.465 2178.65,-243.751 2175.9,-253.982 2182.88,-253.465"/>
</g>
<!-- Node48&#45;&gt;Node2 -->
<g id="edge63" class="edge"><title>Node48&#45;&gt;Node2</title>
<path fill="none" stroke="midnightblue" d="M2005.3,-280.401C2025.46,-266.663 2067.19,-239.717 2106,-224 2144.45,-208.427 2189.81,-197.057 2225.12,-189.642"/>
<polygon fill="midnightblue" stroke="midnightblue" points="2226.17,-192.999 2235.27,-187.562 2224.77,-186.142 2226.17,-192.999"/>
</g>
<!-- Node48&#45;&gt;Node46 -->
<g id="edge64" class="edge"><title>Node48&#45;&gt;Node46</title>
<path fill="none" stroke="midnightblue" d="M2022.31,-280.444C2053.84,-271.241 2104.13,-256.562 2138.99,-246.388"/>
<polygon fill="midnightblue" stroke="midnightblue" points="2140.2,-249.678 2148.82,-243.516 2138.24,-242.959 2140.2,-249.678"/>
</g>
<!-- Node49&#45;&gt;Node2 -->
<g id="edge66" class="edge"><title>Node49&#45;&gt;Node2</title>
<path fill="none" stroke="midnightblue" d="M2088.47,-280.424C2094.57,-266.47 2108.51,-238.915 2129,-224 2156.17,-204.223 2191.91,-193.1 2222.22,-186.863"/>
<polygon fill="midnightblue" stroke="midnightblue" points="2223.11,-190.256 2232.27,-184.93 2221.79,-183.382 2223.11,-190.256"/>
</g>
<!-- Node49&#45;&gt;Node46 -->
<g id="edge67" class="edge"><title>Node49&#45;&gt;Node46</title>
<path fill="none" stroke="midnightblue" d="M2099.94,-280.324C2114.59,-271.822 2137.13,-258.729 2154.24,-248.797"/>
<polygon fill="midnightblue" stroke="midnightblue" points="2156.2,-251.703 2163.1,-243.655 2152.69,-245.649 2156.2,-251.703"/>
</g>
<!-- Node50&#45;&gt;Node2 -->
<g id="edge69" class="edge"><title>Node50&#45;&gt;Node2</title>
<path fill="none" stroke="midnightblue" d="M2452.31,-224.444C2417.93,-215.162 2362.92,-200.309 2325.21,-190.127"/>
<polygon fill="midnightblue" stroke="midnightblue" points="2326.11,-186.744 2315.54,-187.516 2324.28,-193.502 2326.11,-186.744"/>
</g>
<!-- Node50&#45;&gt;Node39 -->
<g id="edge70" class="edge"><title>Node50&#45;&gt;Node39</title>
<path fill="none" stroke="midnightblue" d="M2518.21,-232.525C2602.13,-229.281 2818.04,-207.901 2910,-76 2922.16,-58.5551 2903.1,-38.6056 2885.95,-25.4603"/>
<polygon fill="midnightblue" stroke="midnightblue" points="2887.98,-22.6117 2877.82,-19.5946 2883.88,-28.2866 2887.98,-22.6117"/>
</g>
<!-- Node50&#45;&gt;Node40 -->
<g id="edge71" class="edge"><title>Node50&#45;&gt;Node40</title>
<path fill="none" stroke="midnightblue" d="M2478.42,-224.266C2464.05,-201.192 2425.99,-136.24 2413,-76 2411.13,-67.3108 2409.84,-64.3086 2413,-56 2417.34,-44.5976 2426.03,-34.2394 2434.21,-26.343"/>
<polygon fill="midnightblue" stroke="midnightblue" points="2436.64,-28.8633 2441.73,-19.5728 2431.96,-23.6595 2436.64,-28.8633"/>
</g>
</g>
</svg>
