<?xml version="1.0" encoding="UTF-8" standalone="no"?>
<!DOCTYPE svg PUBLIC "-//W3C//DTD SVG 1.1//EN"
 "http://www.w3.org/Graphics/SVG/1.1/DTD/svg11.dtd">
<!-- Generated by graphviz version 2.38.0 (20140413.2041)
 -->
<!-- Title: OgreGLES2HardwareIndexBuffer.h Pages: 1 -->
<svg width="2534pt" height="420pt"
 viewBox="0.00 0.00 2533.50 420.00" xmlns="http://www.w3.org/2000/svg" xmlns:xlink="http://www.w3.org/1999/xlink">
<g id="graph0" class="graph" transform="scale(1 1) rotate(0) translate(4 416)">
<title>OgreGLES2HardwareIndexBuffer.h</title>
<!-- Node1 -->
<g id="node1" class="node"><title>Node1</title>
<polygon fill="#bfbfbf" stroke="black" points="302.5,-392.5 302.5,-411.5 472.5,-411.5 472.5,-392.5 302.5,-392.5"/>
<text text-anchor="middle" x="387.5" y="-399.5" font-family="Helvetica,sans-Serif" font-size="10.00">OgreGLES2HardwareIndexBuffer.h</text>
</g>
<!-- Node2 -->
<g id="node2" class="node"><title>Node2</title>
<g id="a_node2"><a xlink:href="_ogre_g_l_e_s2_prerequisites_8h.html" target="_top" xlink:title="OgreGLES2Prerequisites.h">
<polygon fill="none" stroke="black" points="213.5,-280.5 213.5,-299.5 347.5,-299.5 347.5,-280.5 213.5,-280.5"/>
<text text-anchor="middle" x="280.5" y="-287.5" font-family="Helvetica,sans-Serif" font-size="10.00">OgreGLES2Prerequisites.h</text>
</a>
</g>
</g>
<!-- Node1&#45;&gt;Node2 -->
<g id="edge1" class="edge"><title>Node1&#45;&gt;Node2</title>
<path fill="none" stroke="midnightblue" d="M387.109,-392.423C386.073,-378.954 382.291,-352.667 368.5,-336 356.064,-320.97 337.318,-310.414 320.319,-303.324"/>
<polygon fill="midnightblue" stroke="midnightblue" points="321.163,-299.897 310.574,-299.541 318.63,-306.422 321.163,-299.897"/>
</g>
<!-- Node45 -->
<g id="node45" class="node"><title>Node45</title>
<g id="a_node45"><a xlink:href="_ogre_hardware_index_buffer_8h.html" target="_top" xlink:title="OgreHardwareIndexBuffer.h">
<polygon fill="none" stroke="black" points="435.5,-336.5 435.5,-355.5 573.5,-355.5 573.5,-336.5 435.5,-336.5"/>
<text text-anchor="middle" x="504.5" y="-343.5" font-family="Helvetica,sans-Serif" font-size="10.00">OgreHardwareIndexBuffer.h</text>
</a>
</g>
</g>
<!-- Node1&#45;&gt;Node45 -->
<g id="edge55" class="edge"><title>Node1&#45;&gt;Node45</title>
<path fill="none" stroke="midnightblue" d="M406.039,-392.444C425.123,-383.636 455.075,-369.812 476.936,-359.722"/>
<polygon fill="midnightblue" stroke="midnightblue" points="478.435,-362.885 486.048,-355.516 475.501,-356.529 478.435,-362.885"/>
</g>
<!-- Node50 -->
<g id="node50" class="node"><title>Node50</title>
<g id="a_node50"><a xlink:href="_ogre_g_l_e_s2_managed_resource_8h.html" target="_top" xlink:title="OgreGLES2ManagedResource.h">
<polygon fill="none" stroke="black" points="201,-336.5 201,-355.5 360,-355.5 360,-336.5 201,-336.5"/>
<text text-anchor="middle" x="280.5" y="-343.5" font-family="Helvetica,sans-Serif" font-size="10.00">OgreGLES2ManagedResource.h</text>
</a>
</g>
</g>
<!-- Node1&#45;&gt;Node50 -->
<g id="edge68" class="edge"><title>Node1&#45;&gt;Node50</title>
<path fill="none" stroke="midnightblue" d="M370.309,-392.324C353.149,-383.664 326.554,-370.242 306.753,-360.249"/>
<polygon fill="midnightblue" stroke="midnightblue" points="308.153,-357.035 297.649,-355.655 304.999,-363.285 308.153,-357.035"/>
</g>
<!-- Node3 -->
<g id="node3" class="node"><title>Node3</title>
<g id="a_node3"><a xlink:href="_ogre_prerequisites_8h.html" target="_top" xlink:title="OgrePrerequisites.h">
<polygon fill="none" stroke="black" points="398,-112.5 398,-131.5 501,-131.5 501,-112.5 398,-112.5"/>
<text text-anchor="middle" x="449.5" y="-119.5" font-family="Helvetica,sans-Serif" font-size="10.00">OgrePrerequisites.h</text>
</a>
</g>
</g>
<!-- Node2&#45;&gt;Node3 -->
<g id="edge2" class="edge"><title>Node2&#45;&gt;Node3</title>
<path fill="none" stroke="midnightblue" d="M291.455,-280.263C302.506,-271.358 319.967,-257.04 334.5,-244 361.17,-220.07 367.777,-213.937 392.5,-188 407.791,-171.958 424.405,-152.798 435.73,-139.453"/>
<polygon fill="midnightblue" stroke="midnightblue" points="438.569,-141.515 442.34,-131.614 433.218,-137.002 438.569,-141.515"/>
</g>
<!-- Node40 -->
<g id="node40" class="node"><title>Node40</title>
<g id="a_node40"><a xlink:href="_ogre_log_manager_8h.html" target="_top" xlink:title="OgreLogManager.h">
<polygon fill="none" stroke="black" points="118,-224.5 118,-243.5 217,-243.5 217,-224.5 118,-224.5"/>
<text text-anchor="middle" x="167.5" y="-231.5" font-family="Helvetica,sans-Serif" font-size="10.00">OgreLogManager.h</text>
</a>
</g>
</g>
<!-- Node2&#45;&gt;Node40 -->
<g id="edge40" class="edge"><title>Node2&#45;&gt;Node40</title>
<path fill="none" stroke="midnightblue" d="M262.595,-280.444C244.246,-271.675 215.495,-257.935 194.406,-247.858"/>
<polygon fill="midnightblue" stroke="midnightblue" points="195.853,-244.67 185.321,-243.516 192.835,-250.986 195.853,-244.67"/>
</g>
<!-- Node43 -->
<g id="node43" class="node"><title>Node43</title>
<g id="a_node43"><a xlink:href="_ogre_math_8h.html" target="_top" xlink:title="OgreMath.h">
<polygon fill="none" stroke="black" points="55.5,-168.5 55.5,-187.5 123.5,-187.5 123.5,-168.5 55.5,-168.5"/>
<text text-anchor="middle" x="89.5" y="-175.5" font-family="Helvetica,sans-Serif" font-size="10.00">OgreMath.h</text>
</a>
</g>
</g>
<!-- Node2&#45;&gt;Node43 -->
<g id="edge50" class="edge"><title>Node2&#45;&gt;Node43</title>
<path fill="none" stroke="midnightblue" d="M213.212,-286.834C177.824,-282.25 136.168,-270.891 108.5,-244 96.1262,-231.974 91.6954,-212.373 90.1671,-197.835"/>
<polygon fill="midnightblue" stroke="midnightblue" points="93.6352,-197.244 89.4674,-187.503 86.6512,-197.717 93.6352,-197.244"/>
</g>
<!-- Node44 -->
<g id="node44" class="node"><title>Node44</title>
<polygon fill="none" stroke="#bfbfbf" points="235.5,-224.5 235.5,-243.5 325.5,-243.5 325.5,-224.5 235.5,-224.5"/>
<text text-anchor="middle" x="280.5" y="-231.5" font-family="Helvetica,sans-Serif" font-size="10.00">GLES2/gles2w.h</text>
</g>
<!-- Node2&#45;&gt;Node44 -->
<g id="edge54" class="edge"><title>Node2&#45;&gt;Node44</title>
<path fill="none" stroke="midnightblue" d="M280.5,-280.083C280.5,-273.006 280.5,-262.861 280.5,-253.986"/>
<polygon fill="midnightblue" stroke="midnightblue" points="284,-253.751 280.5,-243.751 277,-253.751 284,-253.751"/>
</g>
<!-- Node4 -->
<g id="node4" class="node"><title>Node4</title>
<g id="a_node4"><a xlink:href="_ogre_platform_8h.html" target="_top" xlink:title="OgrePlatform.h">
<polygon fill="none" stroke="black" points="2233,-56.5 2233,-75.5 2316,-75.5 2316,-56.5 2233,-56.5"/>
<text text-anchor="middle" x="2274.5" y="-63.5" font-family="Helvetica,sans-Serif" font-size="10.00">OgrePlatform.h</text>
</a>
</g>
</g>
<!-- Node3&#45;&gt;Node4 -->
<g id="edge3" class="edge"><title>Node3&#45;&gt;Node4</title>
<path fill="none" stroke="midnightblue" d="M501.181,-119.587C697.258,-114.208 1413.99,-94.3861 2004.5,-76 2080.47,-73.6346 2168.45,-70.6574 2222.8,-68.7909"/>
<polygon fill="midnightblue" stroke="midnightblue" points="2223,-72.2861 2232.87,-68.4443 2222.76,-65.2902 2223,-72.2861"/>
</g>
<!-- Node6 -->
<g id="node6" class="node"><title>Node6</title>
<polygon fill="none" stroke="#bfbfbf" points="2392,-0.5 2392,-19.5 2433,-19.5 2433,-0.5 2392,-0.5"/>
<text text-anchor="middle" x="2412.5" y="-7.5" font-family="Helvetica,sans-Serif" font-size="10.00">string</text>
</g>
<!-- Node3&#45;&gt;Node6 -->
<g id="edge5" class="edge"><title>Node3&#45;&gt;Node6</title>
<path fill="none" stroke="midnightblue" d="M501.067,-119.37C658.351,-114.296 1145.84,-97.8048 1549.5,-76 1917.11,-56.1423 2016.48,-87.391 2381.68,-19.9505"/>
<polygon fill="midnightblue" stroke="midnightblue" points="2382.55,-23.3503 2391.74,-18.0815 2381.27,-16.4682 2382.55,-23.3503"/>
</g>
<!-- Node7 -->
<g id="node7" class="node"><title>Node7</title>
<g id="a_node7"><a xlink:href="_ogre_std_headers_8h.html" target="_top" xlink:title="OgreStdHeaders.h">
<polygon fill="none" stroke="black" points="1442.5,-56.5 1442.5,-75.5 1540.5,-75.5 1540.5,-56.5 1442.5,-56.5"/>
<text text-anchor="middle" x="1491.5" y="-63.5" font-family="Helvetica,sans-Serif" font-size="10.00">OgreStdHeaders.h</text>
</a>
</g>
</g>
<!-- Node3&#45;&gt;Node7 -->
<g id="edge6" class="edge"><title>Node3&#45;&gt;Node7</title>
<path fill="none" stroke="midnightblue" d="M501.173,-118.322C676.19,-109.252 1246.04,-79.7208 1432.12,-70.0771"/>
<polygon fill="midnightblue" stroke="midnightblue" points="1432.46,-73.5647 1442.26,-69.5517 1432.09,-66.574 1432.46,-73.5647"/>
</g>
<!-- Node37 -->
<g id="node37" class="node"><title>Node37</title>
<g id="a_node37"><a xlink:href="_ogre_memory_allocator_config_8h.html" target="_top" xlink:title="This file configures Ogre&#39;s memory allocators. ">
<polygon fill="none" stroke="red" points="409.5,-56.5 409.5,-75.5 557.5,-75.5 557.5,-56.5 409.5,-56.5"/>
<text text-anchor="middle" x="483.5" y="-63.5" font-family="Helvetica,sans-Serif" font-size="10.00">OgreMemoryAllocatorConfig.h</text>
</a>
</g>
</g>
<!-- Node3&#45;&gt;Node37 -->
<g id="edge37" class="edge"><title>Node3&#45;&gt;Node37</title>
<path fill="none" stroke="midnightblue" d="M455.114,-112.083C459.867,-104.534 466.818,-93.4948 472.652,-84.2298"/>
<polygon fill="midnightblue" stroke="midnightblue" points="475.624,-86.0783 477.99,-75.7511 469.7,-82.3486 475.624,-86.0783"/>
</g>
<!-- Node5 -->
<g id="node5" class="node"><title>Node5</title>
<g id="a_node5"><a xlink:href="_ogre_config_8h.html" target="_top" xlink:title="OgreConfig.h">
<polygon fill="none" stroke="red" points="2451.5,-0.5 2451.5,-19.5 2525.5,-19.5 2525.5,-0.5 2451.5,-0.5"/>
<text text-anchor="middle" x="2488.5" y="-7.5" font-family="Helvetica,sans-Serif" font-size="10.00">OgreConfig.h</text>
</a>
</g>
</g>
<!-- Node4&#45;&gt;Node5 -->
<g id="edge4" class="edge"><title>Node4&#45;&gt;Node5</title>
<path fill="none" stroke="midnightblue" d="M2308.41,-56.4435C2345.35,-47.1221 2404.55,-32.1828 2444.92,-21.9972"/>
<polygon fill="midnightblue" stroke="midnightblue" points="2445.91,-25.3568 2454.75,-19.5164 2444.2,-18.5695 2445.91,-25.3568"/>
</g>
<!-- Node7&#45;&gt;Node6 -->
<g id="edge16" class="edge"><title>Node7&#45;&gt;Node6</title>
<path fill="none" stroke="midnightblue" d="M1540.75,-64.1378C1699.96,-61.1007 2200.52,-49.5369 2381.81,-19.8287"/>
<polygon fill="midnightblue" stroke="midnightblue" points="2382.48,-23.2648 2391.75,-18.1242 2381.3,-16.3656 2382.48,-23.2648"/>
</g>
<!-- Node8 -->
<g id="node8" class="node"><title>Node8</title>
<polygon fill="none" stroke="#bfbfbf" points="1403,-0.5 1403,-19.5 1452,-19.5 1452,-0.5 1403,-0.5"/>
<text text-anchor="middle" x="1427.5" y="-7.5" font-family="Helvetica,sans-Serif" font-size="10.00">cassert</text>
</g>
<!-- Node7&#45;&gt;Node8 -->
<g id="edge7" class="edge"><title>Node7&#45;&gt;Node8</title>
<path fill="none" stroke="midnightblue" d="M1481.22,-56.324C1471.66,-48.2631 1457.22,-36.0765 1445.72,-26.3695"/>
<polygon fill="midnightblue" stroke="midnightblue" points="1447.87,-23.6076 1437.97,-19.8339 1443.36,-28.9577 1447.87,-23.6076"/>
</g>
<!-- Node9 -->
<g id="node9" class="node"><title>Node9</title>
<polygon fill="none" stroke="#bfbfbf" points="1470,-0.5 1470,-19.5 1513,-19.5 1513,-0.5 1470,-0.5"/>
<text text-anchor="middle" x="1491.5" y="-7.5" font-family="Helvetica,sans-Serif" font-size="10.00">cstdio</text>
</g>
<!-- Node7&#45;&gt;Node9 -->
<g id="edge8" class="edge"><title>Node7&#45;&gt;Node9</title>
<path fill="none" stroke="midnightblue" d="M1491.5,-56.083C1491.5,-49.0059 1491.5,-38.8611 1491.5,-29.9865"/>
<polygon fill="midnightblue" stroke="midnightblue" points="1495,-29.751 1491.5,-19.7511 1488,-29.7511 1495,-29.751"/>
</g>
<!-- Node10 -->
<g id="node10" class="node"><title>Node10</title>
<polygon fill="none" stroke="#bfbfbf" points="1531,-0.5 1531,-19.5 1576,-19.5 1576,-0.5 1531,-0.5"/>
<text text-anchor="middle" x="1553.5" y="-7.5" font-family="Helvetica,sans-Serif" font-size="10.00">cstdlib</text>
</g>
<!-- Node7&#45;&gt;Node10 -->
<g id="edge9" class="edge"><title>Node7&#45;&gt;Node10</title>
<path fill="none" stroke="midnightblue" d="M1501.46,-56.324C1510.63,-48.3414 1524.44,-36.3128 1535.53,-26.6529"/>
<polygon fill="midnightblue" stroke="midnightblue" points="1538.12,-29.041 1543.36,-19.8339 1533.52,-23.7624 1538.12,-29.041"/>
</g>
<!-- Node11 -->
<g id="node11" class="node"><title>Node11</title>
<polygon fill="none" stroke="#bfbfbf" points="1594,-0.5 1594,-19.5 1635,-19.5 1635,-0.5 1594,-0.5"/>
<text text-anchor="middle" x="1614.5" y="-7.5" font-family="Helvetica,sans-Serif" font-size="10.00">ctime</text>
</g>
<!-- Node7&#45;&gt;Node11 -->
<g id="edge10" class="edge"><title>Node7&#45;&gt;Node11</title>
<path fill="none" stroke="midnightblue" d="M1510.99,-56.4435C1531.14,-47.5961 1562.82,-33.6875 1585.83,-23.5865"/>
<polygon fill="midnightblue" stroke="midnightblue" points="1587.35,-26.7411 1595.1,-19.5164 1584.54,-20.3316 1587.35,-26.7411"/>
</g>
<!-- Node12 -->
<g id="node12" class="node"><title>Node12</title>
<polygon fill="none" stroke="#bfbfbf" points="1653.5,-0.5 1653.5,-19.5 1699.5,-19.5 1699.5,-0.5 1653.5,-0.5"/>
<text text-anchor="middle" x="1676.5" y="-7.5" font-family="Helvetica,sans-Serif" font-size="10.00">cstring</text>
</g>
<!-- Node7&#45;&gt;Node12 -->
<g id="edge11" class="edge"><title>Node7&#45;&gt;Node12</title>
<path fill="none" stroke="midnightblue" d="M1520.81,-56.4435C1554.29,-46.6722 1608.92,-30.7275 1643.76,-20.5567"/>
<polygon fill="midnightblue" stroke="midnightblue" points="1644.84,-23.8869 1653.46,-17.7251 1642.88,-17.1673 1644.84,-23.8869"/>
</g>
<!-- Node13 -->
<g id="node13" class="node"><title>Node13</title>
<polygon fill="none" stroke="#bfbfbf" points="1718,-0.5 1718,-19.5 1767,-19.5 1767,-0.5 1718,-0.5"/>
<text text-anchor="middle" x="1742.5" y="-7.5" font-family="Helvetica,sans-Serif" font-size="10.00">cstdarg</text>
</g>
<!-- Node7&#45;&gt;Node13 -->
<g id="edge12" class="edge"><title>Node7&#45;&gt;Node13</title>
<path fill="none" stroke="midnightblue" d="M1536.12,-56.4817C1577.96,-48.3318 1642.46,-35.3452 1707.62,-20.1069"/>
<polygon fill="midnightblue" stroke="midnightblue" points="1708.73,-23.4424 1717.66,-17.7427 1707.12,-16.6288 1708.73,-23.4424"/>
</g>
<!-- Node14 -->
<g id="node14" class="node"><title>Node14</title>
<polygon fill="none" stroke="#bfbfbf" points="1785.5,-0.5 1785.5,-19.5 1829.5,-19.5 1829.5,-0.5 1785.5,-0.5"/>
<text text-anchor="middle" x="1807.5" y="-7.5" font-family="Helvetica,sans-Serif" font-size="10.00">cmath</text>
</g>
<!-- Node7&#45;&gt;Node14 -->
<g id="edge13" class="edge"><title>Node7&#45;&gt;Node14</title>
<path fill="none" stroke="midnightblue" d="M1540.52,-59.1693C1595.52,-52.2026 1687.54,-39.2804 1775.38,-20.0204"/>
<polygon fill="midnightblue" stroke="midnightblue" points="1776.23,-23.4153 1785.24,-17.8276 1774.71,-16.5823 1776.23,-23.4153"/>
</g>
<!-- Node15 -->
<g id="node15" class="node"><title>Node15</title>
<polygon fill="none" stroke="#bfbfbf" points="1847.5,-0.5 1847.5,-19.5 1891.5,-19.5 1891.5,-0.5 1847.5,-0.5"/>
<text text-anchor="middle" x="1869.5" y="-7.5" font-family="Helvetica,sans-Serif" font-size="10.00">vector</text>
</g>
<!-- Node7&#45;&gt;Node15 -->
<g id="edge14" class="edge"><title>Node7&#45;&gt;Node15</title>
<path fill="none" stroke="midnightblue" d="M1540.74,-61.0139C1606.39,-55.1725 1726.26,-42.667 1837.23,-19.9843"/>
<polygon fill="midnightblue" stroke="midnightblue" points="1838.17,-23.3633 1847.25,-17.9026 1836.75,-16.5096 1838.17,-23.3633"/>
</g>
<!-- Node16 -->
<g id="node16" class="node"><title>Node16</title>
<polygon fill="none" stroke="#bfbfbf" points="1910,-0.5 1910,-19.5 1945,-19.5 1945,-0.5 1910,-0.5"/>
<text text-anchor="middle" x="1927.5" y="-7.5" font-family="Helvetica,sans-Serif" font-size="10.00">map</text>
</g>
<!-- Node7&#45;&gt;Node16 -->
<g id="edge15" class="edge"><title>Node7&#45;&gt;Node16</title>
<path fill="none" stroke="midnightblue" d="M1540.52,-62.9663C1615.94,-59.1063 1764.95,-48.5827 1899.83,-19.6581"/>
<polygon fill="midnightblue" stroke="midnightblue" points="1900.91,-23.0056 1909.93,-17.4518 1899.41,-16.1669 1900.91,-23.0056"/>
</g>
<!-- Node17 -->
<g id="node17" class="node"><title>Node17</title>
<polygon fill="none" stroke="#bfbfbf" points="1963.5,-0.5 1963.5,-19.5 1993.5,-19.5 1993.5,-0.5 1963.5,-0.5"/>
<text text-anchor="middle" x="1978.5" y="-7.5" font-family="Helvetica,sans-Serif" font-size="10.00">set</text>
</g>
<!-- Node7&#45;&gt;Node17 -->
<g id="edge17" class="edge"><title>Node7&#45;&gt;Node17</title>
<path fill="none" stroke="midnightblue" d="M1540.5,-64.428C1623.91,-62.5499 1798.68,-54.6867 1953.3,-19.6724"/>
<polygon fill="midnightblue" stroke="midnightblue" points="1954.49,-22.9877 1963.45,-17.3265 1952.92,-16.1674 1954.49,-22.9877"/>
</g>
<!-- Node18 -->
<g id="node18" class="node"><title>Node18</title>
<polygon fill="none" stroke="#bfbfbf" points="2012,-0.5 2012,-19.5 2041,-19.5 2041,-0.5 2012,-0.5"/>
<text text-anchor="middle" x="2026.5" y="-7.5" font-family="Helvetica,sans-Serif" font-size="10.00">list</text>
</g>
<!-- Node7&#45;&gt;Node18 -->
<g id="edge18" class="edge"><title>Node7&#45;&gt;Node18</title>
<path fill="none" stroke="midnightblue" d="M1540.8,-65.0622C1631.05,-64.2282 1828.68,-58.0053 2002.16,-19.3901"/>
<polygon fill="midnightblue" stroke="midnightblue" points="2002.99,-22.7899 2011.97,-17.1651 2001.44,-15.9632 2002.99,-22.7899"/>
</g>
<!-- Node19 -->
<g id="node19" class="node"><title>Node19</title>
<polygon fill="none" stroke="#bfbfbf" points="2059,-0.5 2059,-19.5 2102,-19.5 2102,-0.5 2059,-0.5"/>
<text text-anchor="middle" x="2080.5" y="-7.5" font-family="Helvetica,sans-Serif" font-size="10.00">deque</text>
</g>
<!-- Node7&#45;&gt;Node19 -->
<g id="edge19" class="edge"><title>Node7&#45;&gt;Node19</title>
<path fill="none" stroke="midnightblue" d="M1540.56,-64.5164C1636.73,-62.8219 1856.71,-55.2646 2048.69,-19.993"/>
<polygon fill="midnightblue" stroke="midnightblue" points="2049.49,-23.4042 2058.68,-18.128 2048.2,-16.5231 2049.49,-23.4042"/>
</g>
<!-- Node20 -->
<g id="node20" class="node"><title>Node20</title>
<polygon fill="none" stroke="#bfbfbf" points="2120,-0.5 2120,-19.5 2163,-19.5 2163,-0.5 2120,-0.5"/>
<text text-anchor="middle" x="2141.5" y="-7.5" font-family="Helvetica,sans-Serif" font-size="10.00">queue</text>
</g>
<!-- Node7&#45;&gt;Node20 -->
<g id="edge20" class="edge"><title>Node7&#45;&gt;Node20</title>
<path fill="none" stroke="midnightblue" d="M1540.59,-65.069C1644.43,-64.4354 1893.9,-58.7928 2109.75,-19.9625"/>
<polygon fill="midnightblue" stroke="midnightblue" points="2110.47,-23.389 2119.68,-18.1484 2109.21,-16.503 2110.47,-23.389"/>
</g>
<!-- Node21 -->
<g id="node21" class="node"><title>Node21</title>
<polygon fill="none" stroke="#bfbfbf" points="2181,-0.5 2181,-19.5 2222,-19.5 2222,-0.5 2181,-0.5"/>
<text text-anchor="middle" x="2201.5" y="-7.5" font-family="Helvetica,sans-Serif" font-size="10.00">bitset</text>
</g>
<!-- Node7&#45;&gt;Node21 -->
<g id="edge21" class="edge"><title>Node7&#45;&gt;Node21</title>
<path fill="none" stroke="midnightblue" d="M1540.71,-65.6827C1651.95,-66.3847 1931.15,-63.4208 2170.8,-19.9167"/>
<polygon fill="midnightblue" stroke="midnightblue" points="2171.54,-23.339 2180.74,-18.0842 2170.27,-16.4549 2171.54,-23.339"/>
</g>
<!-- Node22 -->
<g id="node22" class="node"><title>Node22</title>
<polygon fill="none" stroke="#bfbfbf" points="2240.5,-0.5 2240.5,-19.5 2296.5,-19.5 2296.5,-0.5 2240.5,-0.5"/>
<text text-anchor="middle" x="2268.5" y="-7.5" font-family="Helvetica,sans-Serif" font-size="10.00">algorithm</text>
</g>
<!-- Node7&#45;&gt;Node22 -->
<g id="edge22" class="edge"><title>Node7&#45;&gt;Node22</title>
<path fill="none" stroke="midnightblue" d="M1540.74,-65.0199C1658.47,-64.4223 1965.53,-59.0516 2230.14,-19.9275"/>
<polygon fill="midnightblue" stroke="midnightblue" points="2230.95,-23.3445 2240.32,-18.4014 2229.91,-16.4218 2230.95,-23.3445"/>
</g>
<!-- Node23 -->
<g id="node23" class="node"><title>Node23</title>
<polygon fill="none" stroke="#bfbfbf" points="2315,-0.5 2315,-19.5 2374,-19.5 2374,-0.5 2315,-0.5"/>
<text text-anchor="middle" x="2344.5" y="-7.5" font-family="Helvetica,sans-Serif" font-size="10.00">functional</text>
</g>
<!-- Node7&#45;&gt;Node23 -->
<g id="edge23" class="edge"><title>Node7&#45;&gt;Node23</title>
<path fill="none" stroke="midnightblue" d="M1540.88,-65.2094C1666.78,-65.1157 2010.06,-60.9244 2304.77,-19.8245"/>
<polygon fill="midnightblue" stroke="midnightblue" points="2305.38,-23.2731 2314.79,-18.4097 2304.4,-16.3419 2305.38,-23.2731"/>
</g>
<!-- Node24 -->
<g id="node24" class="node"><title>Node24</title>
<polygon fill="none" stroke="#bfbfbf" points="242.5,-0.5 242.5,-19.5 282.5,-19.5 282.5,-0.5 242.5,-0.5"/>
<text text-anchor="middle" x="262.5" y="-7.5" font-family="Helvetica,sans-Serif" font-size="10.00">limits</text>
</g>
<!-- Node7&#45;&gt;Node24 -->
<g id="edge24" class="edge"><title>Node7&#45;&gt;Node24</title>
<path fill="none" stroke="midnightblue" d="M1442.41,-64.8794C1248.93,-64.142 538.128,-58.8956 292.557,-19.6383"/>
<polygon fill="midnightblue" stroke="midnightblue" points="293.054,-16.1731 282.616,-17.9862 291.907,-23.0784 293.054,-16.1731"/>
</g>
<!-- Node25 -->
<g id="node25" class="node"><title>Node25</title>
<polygon fill="none" stroke="#bfbfbf" points="300.5,-0.5 300.5,-19.5 350.5,-19.5 350.5,-0.5 300.5,-0.5"/>
<text text-anchor="middle" x="325.5" y="-7.5" font-family="Helvetica,sans-Serif" font-size="10.00">fstream</text>
</g>
<!-- Node7&#45;&gt;Node25 -->
<g id="edge25" class="edge"><title>Node7&#45;&gt;Node25</title>
<path fill="none" stroke="midnightblue" d="M1442.37,-64.4778C1256.13,-62.2799 592.906,-52.4112 360.69,-19.7769"/>
<polygon fill="midnightblue" stroke="midnightblue" points="361.023,-16.2885 350.622,-18.3063 360.011,-23.215 361.023,-16.2885"/>
</g>
<!-- Node26 -->
<g id="node26" class="node"><title>Node26</title>
<polygon fill="none" stroke="#bfbfbf" points="369,-0.5 369,-19.5 414,-19.5 414,-0.5 369,-0.5"/>
<text text-anchor="middle" x="391.5" y="-7.5" font-family="Helvetica,sans-Serif" font-size="10.00">iosfwd</text>
</g>
<!-- Node7&#45;&gt;Node26 -->
<g id="edge26" class="edge"><title>Node7&#45;&gt;Node26</title>
<path fill="none" stroke="midnightblue" d="M1442.35,-64.4415C1263.03,-62.1721 643.496,-52.2458 424.217,-19.6216"/>
<polygon fill="midnightblue" stroke="midnightblue" points="424.499,-16.1237 414.081,-18.0509 423.427,-23.0411 424.499,-16.1237"/>
</g>
<!-- Node27 -->
<g id="node27" class="node"><title>Node27</title>
<polygon fill="none" stroke="#bfbfbf" points="432.5,-0.5 432.5,-19.5 484.5,-19.5 484.5,-0.5 432.5,-0.5"/>
<text text-anchor="middle" x="458.5" y="-7.5" font-family="Helvetica,sans-Serif" font-size="10.00">sstream</text>
</g>
<!-- Node7&#45;&gt;Node27 -->
<g id="edge27" class="edge"><title>Node7&#45;&gt;Node27</title>
<path fill="none" stroke="midnightblue" d="M1442.33,-64.1277C1270.86,-60.8794 699.139,-48.2638 494.786,-19.8252"/>
<polygon fill="midnightblue" stroke="midnightblue" points="495.152,-16.3419 484.754,-18.3714 494.148,-23.2695 495.152,-16.3419"/>
</g>
<!-- Node28 -->
<g id="node28" class="node"><title>Node28</title>
<polygon fill="none" stroke="#bfbfbf" points="502.5,-0.5 502.5,-19.5 570.5,-19.5 570.5,-0.5 502.5,-0.5"/>
<text text-anchor="middle" x="536.5" y="-7.5" font-family="Helvetica,sans-Serif" font-size="10.00">sys/types.h</text>
</g>
<!-- Node7&#45;&gt;Node28 -->
<g id="edge28" class="edge"><title>Node7&#45;&gt;Node28</title>
<path fill="none" stroke="midnightblue" d="M1442.32,-65.2793C1306.57,-65.4743 915.077,-62.1494 581.048,-19.9834"/>
<polygon fill="midnightblue" stroke="midnightblue" points="581.048,-16.455 570.685,-18.6603 580.161,-23.3986 581.048,-16.455"/>
</g>
<!-- Node29 -->
<g id="node29" class="node"><title>Node29</title>
<polygon fill="none" stroke="#bfbfbf" points="588.5,-0.5 588.5,-19.5 648.5,-19.5 648.5,-0.5 588.5,-0.5"/>
<text text-anchor="middle" x="618.5" y="-7.5" font-family="Helvetica,sans-Serif" font-size="10.00">sys/stat.h</text>
</g>
<!-- Node7&#45;&gt;Node29 -->
<g id="edge29" class="edge"><title>Node7&#45;&gt;Node29</title>
<path fill="none" stroke="midnightblue" d="M1442.33,-65.3028C1314.52,-65.4594 961.32,-61.8683 658.921,-19.9404"/>
<polygon fill="midnightblue" stroke="midnightblue" points="659.027,-16.421 648.637,-18.4969 658.053,-23.353 659.027,-16.421"/>
</g>
<!-- Node30 -->
<g id="node30" class="node"><title>Node30</title>
<polygon fill="none" stroke="#bfbfbf" points="667,-0.5 667,-19.5 718,-19.5 718,-0.5 667,-0.5"/>
<text text-anchor="middle" x="692.5" y="-7.5" font-family="Helvetica,sans-Serif" font-size="10.00">unistd.h</text>
</g>
<!-- Node7&#45;&gt;Node30 -->
<g id="edge30" class="edge"><title>Node7&#45;&gt;Node30</title>
<path fill="none" stroke="midnightblue" d="M1442.44,-65.3733C1322.13,-65.5916 1002.88,-61.9542 728.528,-19.8266"/>
<polygon fill="midnightblue" stroke="midnightblue" points="728.797,-16.3264 718.377,-18.2471 727.72,-23.2432 728.797,-16.3264"/>
</g>
<!-- Node31 -->
<g id="node31" class="node"><title>Node31</title>
<polygon fill="none" stroke="#bfbfbf" points="736.5,-0.5 736.5,-19.5 782.5,-19.5 782.5,-0.5 736.5,-0.5"/>
<text text-anchor="middle" x="759.5" y="-7.5" font-family="Helvetica,sans-Serif" font-size="10.00">dlfcn.h</text>
</g>
<!-- Node7&#45;&gt;Node31 -->
<g id="edge31" class="edge"><title>Node7&#45;&gt;Node31</title>
<path fill="none" stroke="midnightblue" d="M1442.29,-65.368C1328.95,-65.4597 1040.81,-61.3755 792.711,-19.845"/>
<polygon fill="midnightblue" stroke="midnightblue" points="793.234,-16.3838 782.789,-18.1603 792.062,-23.285 793.234,-16.3838"/>
</g>
<!-- Node32 -->
<g id="node32" class="node"><title>Node32</title>
<polygon fill="none" stroke="#bfbfbf" points="800.5,-0.5 800.5,-19.5 878.5,-19.5 878.5,-0.5 800.5,-0.5"/>
<text text-anchor="middle" x="839.5" y="-7.5" font-family="Helvetica,sans-Serif" font-size="10.00">ext/hash_map</text>
</g>
<!-- Node7&#45;&gt;Node32 -->
<g id="edge32" class="edge"><title>Node7&#45;&gt;Node32</title>
<path fill="none" stroke="midnightblue" d="M1442.47,-63.1235C1341.11,-58.8591 1101.01,-46.7657 888.838,-19.8843"/>
<polygon fill="midnightblue" stroke="midnightblue" points="889.12,-16.3919 878.757,-18.593 888.231,-23.3351 889.12,-16.3919"/>
</g>
<!-- Node33 -->
<g id="node33" class="node"><title>Node33</title>
<polygon fill="none" stroke="#bfbfbf" points="897,-0.5 897,-19.5 970,-19.5 970,-0.5 897,-0.5"/>
<text text-anchor="middle" x="933.5" y="-7.5" font-family="Helvetica,sans-Serif" font-size="10.00">ext/hash_set</text>
</g>
<!-- Node7&#45;&gt;Node33 -->
<g id="edge33" class="edge"><title>Node7&#45;&gt;Node33</title>
<path fill="none" stroke="midnightblue" d="M1442.24,-62.4044C1352.43,-57.2956 1155.94,-44.379 980.052,-19.9218"/>
<polygon fill="midnightblue" stroke="midnightblue" points="980.489,-16.4489 970.099,-18.5223 979.515,-23.3807 980.489,-16.4489"/>
</g>
<!-- Node34 -->
<g id="node34" class="node"><title>Node34</title>
<polygon fill="none" stroke="#bfbfbf" points="988,-0.5 988,-19.5 1059,-19.5 1059,-0.5 988,-0.5"/>
<text text-anchor="middle" x="1023.5" y="-7.5" font-family="Helvetica,sans-Serif" font-size="10.00">sys/param.h</text>
</g>
<!-- Node7&#45;&gt;Node34 -->
<g id="edge34" class="edge"><title>Node7&#45;&gt;Node34</title>
<path fill="none" stroke="midnightblue" d="M1442.46,-61.2483C1365.3,-55.0242 1210.66,-41.2549 1069.45,-20.0112"/>
<polygon fill="midnightblue" stroke="midnightblue" points="1069.72,-16.5121 1059.31,-18.4687 1068.67,-23.4325 1069.72,-16.5121"/>
</g>
<!-- Node35 -->
<g id="node35" class="node"><title>Node35</title>
<polygon fill="none" stroke="#bfbfbf" points="1077.5,-0.5 1077.5,-19.5 1243.5,-19.5 1243.5,-0.5 1077.5,-0.5"/>
<text text-anchor="middle" x="1160.5" y="-7.5" font-family="Helvetica,sans-Serif" font-size="10.00">CoreFoundation/CoreFoundation.h</text>
</g>
<!-- Node7&#45;&gt;Node35 -->
<g id="edge35" class="edge"><title>Node7&#45;&gt;Node35</title>
<path fill="none" stroke="midnightblue" d="M1442.3,-56.974C1383.84,-47.4361 1286.22,-31.5109 1222.61,-21.1324"/>
<polygon fill="midnightblue" stroke="midnightblue" points="1223.13,-17.6721 1212.7,-19.5162 1222.01,-24.5807 1223.13,-17.6721"/>
</g>
<!-- Node36 -->
<g id="node36" class="node"><title>Node36</title>
<polygon fill="none" stroke="#bfbfbf" points="1261.5,-0.5 1261.5,-19.5 1385.5,-19.5 1385.5,-0.5 1261.5,-0.5"/>
<text text-anchor="middle" x="1323.5" y="-7.5" font-family="Helvetica,sans-Serif" font-size="10.00">emscripten/emscripten.h</text>
</g>
<!-- Node7&#45;&gt;Node36 -->
<g id="edge36" class="edge"><title>Node7&#45;&gt;Node36</title>
<path fill="none" stroke="midnightblue" d="M1464.88,-56.4435C1436.49,-47.3196 1391.36,-32.8133 1359.75,-22.6509"/>
<polygon fill="midnightblue" stroke="midnightblue" points="1360.59,-19.2445 1350,-19.5164 1358.44,-25.9087 1360.59,-19.2445"/>
</g>
<!-- Node38 -->
<g id="node38" class="node"><title>Node38</title>
<g id="a_node38"><a xlink:href="_ogre_header_prefix_8h.html" target="_top" xlink:title="OgreHeaderPrefix.h">
<polygon fill="none" stroke="black" points="121,-0.5 121,-19.5 224,-19.5 224,-0.5 121,-0.5"/>
<text text-anchor="middle" x="172.5" y="-7.5" font-family="Helvetica,sans-Serif" font-size="10.00">OgreHeaderPrefix.h</text>
</a>
</g>
</g>
<!-- Node37&#45;&gt;Node38 -->
<g id="edge38" class="edge"><title>Node37&#45;&gt;Node38</title>
<path fill="none" stroke="midnightblue" d="M434.221,-56.4435C379.172,-46.8851 290.101,-31.4195 231.416,-21.2298"/>
<polygon fill="midnightblue" stroke="midnightblue" points="232,-17.7788 221.548,-19.5164 230.802,-24.6757 232,-17.7788"/>
</g>
<!-- Node39 -->
<g id="node39" class="node"><title>Node39</title>
<g id="a_node39"><a xlink:href="_ogre_header_suffix_8h.html" target="_top" xlink:title="OgreHeaderSuffix.h">
<polygon fill="none" stroke="black" points="0,-0.5 0,-19.5 103,-19.5 103,-0.5 0,-0.5"/>
<text text-anchor="middle" x="51.5" y="-7.5" font-family="Helvetica,sans-Serif" font-size="10.00">OgreHeaderSuffix.h</text>
</a>
</g>
</g>
<!-- Node37&#45;&gt;Node39 -->
<g id="edge39" class="edge"><title>Node37&#45;&gt;Node39</title>
<path fill="none" stroke="midnightblue" d="M409.311,-56.656C336.446,-48.3171 221.841,-34.8193 113.34,-20.2205"/>
<polygon fill="midnightblue" stroke="midnightblue" points="113.576,-16.7207 103.197,-18.8502 112.639,-23.6577 113.576,-16.7207"/>
</g>
<!-- Node40&#45;&gt;Node3 -->
<g id="edge41" class="edge"><title>Node40&#45;&gt;Node3</title>
<path fill="none" stroke="midnightblue" d="M183.431,-224.322C215.032,-207.125 283.08,-170.182 288.5,-168 324.697,-153.427 367.282,-141.749 399.56,-133.945"/>
<polygon fill="midnightblue" stroke="midnightblue" points="400.735,-137.263 409.657,-131.548 399.119,-130.452 400.735,-137.263"/>
</g>
<!-- Node40&#45;&gt;Node38 -->
<g id="edge48" class="edge"><title>Node40&#45;&gt;Node38</title>
<path fill="none" stroke="midnightblue" d="M167.696,-224.297C168.432,-191.633 171.039,-75.8661 172.073,-29.9573"/>
<polygon fill="midnightblue" stroke="midnightblue" points="175.574,-29.9601 172.3,-19.8837 168.576,-29.8024 175.574,-29.9601"/>
</g>
<!-- Node40&#45;&gt;Node39 -->
<g id="edge49" class="edge"><title>Node40&#45;&gt;Node39</title>
<path fill="none" stroke="midnightblue" d="M117.742,-227.847C91.9464,-222.363 62.5529,-211.097 46.5,-188 12.7796,-139.483 32.5106,-64.0476 44.4398,-29.461"/>
<polygon fill="midnightblue" stroke="midnightblue" points="47.8416,-30.347 47.9612,-19.7528 41.2611,-27.96 47.8416,-30.347"/>
</g>
<!-- Node41 -->
<g id="node41" class="node"><title>Node41</title>
<g id="a_node41"><a xlink:href="_ogre_log_8h.html" target="_top" xlink:title="OgreLog.h">
<polygon fill="none" stroke="red" points="179.5,-168.5 179.5,-187.5 241.5,-187.5 241.5,-168.5 179.5,-168.5"/>
<text text-anchor="middle" x="210.5" y="-175.5" font-family="Helvetica,sans-Serif" font-size="10.00">OgreLog.h</text>
</a>
</g>
</g>
<!-- Node40&#45;&gt;Node41 -->
<g id="edge42" class="edge"><title>Node40&#45;&gt;Node41</title>
<path fill="none" stroke="midnightblue" d="M174.601,-224.083C180.737,-216.377 189.77,-205.033 197.239,-195.653"/>
<polygon fill="midnightblue" stroke="midnightblue" points="200.04,-197.754 203.532,-187.751 194.564,-193.394 200.04,-197.754"/>
</g>
<!-- Node42 -->
<g id="node42" class="node"><title>Node42</title>
<g id="a_node42"><a xlink:href="_ogre_singleton_8h.html" target="_top" xlink:title="OgreSingleton.h">
<polygon fill="none" stroke="black" points="297.5,-168.5 297.5,-187.5 383.5,-187.5 383.5,-168.5 297.5,-168.5"/>
<text text-anchor="middle" x="340.5" y="-175.5" font-family="Helvetica,sans-Serif" font-size="10.00">OgreSingleton.h</text>
</a>
</g>
</g>
<!-- Node40&#45;&gt;Node42 -->
<g id="edge46" class="edge"><title>Node40&#45;&gt;Node42</title>
<path fill="none" stroke="midnightblue" d="M194.912,-224.444C224.269,-215.28 271.019,-200.688 303.596,-190.519"/>
<polygon fill="midnightblue" stroke="midnightblue" points="304.713,-193.837 313.216,-187.516 302.627,-187.155 304.713,-193.837"/>
</g>
<!-- Node41&#45;&gt;Node3 -->
<g id="edge43" class="edge"><title>Node41&#45;&gt;Node3</title>
<path fill="none" stroke="midnightblue" d="M241.745,-169.94C282.499,-160.732 354.196,-144.533 401.776,-133.783"/>
<polygon fill="midnightblue" stroke="midnightblue" points="402.56,-137.194 411.543,-131.576 401.018,-130.366 402.56,-137.194"/>
</g>
<!-- Node41&#45;&gt;Node38 -->
<g id="edge44" class="edge"><title>Node41&#45;&gt;Node38</title>
<path fill="none" stroke="midnightblue" d="M210.078,-168.086C209.361,-155.484 207.564,-131.79 203.5,-112 197.429,-82.4384 186.357,-49.1559 179.22,-29.1461"/>
<polygon fill="midnightblue" stroke="midnightblue" points="182.421,-27.7067 175.716,-19.503 175.841,-30.0971 182.421,-27.7067"/>
</g>
<!-- Node41&#45;&gt;Node39 -->
<g id="edge45" class="edge"><title>Node41&#45;&gt;Node39</title>
<path fill="none" stroke="midnightblue" d="M201.951,-168.075C176.273,-141.267 99.5738,-61.1902 66.7153,-26.8851"/>
<polygon fill="midnightblue" stroke="midnightblue" points="69.1516,-24.3688 59.7068,-19.5681 64.0964,-29.2108 69.1516,-24.3688"/>
</g>
<!-- Node42&#45;&gt;Node3 -->
<g id="edge47" class="edge"><title>Node42&#45;&gt;Node3</title>
<path fill="none" stroke="midnightblue" d="M358.013,-168.324C375.572,-159.625 402.831,-146.12 423.031,-136.113"/>
<polygon fill="midnightblue" stroke="midnightblue" points="424.624,-139.23 432.031,-131.655 421.516,-132.958 424.624,-139.23"/>
</g>
<!-- Node43&#45;&gt;Node3 -->
<g id="edge51" class="edge"><title>Node43&#45;&gt;Node3</title>
<path fill="none" stroke="midnightblue" d="M123.692,-171.871C184.33,-162.776 311.483,-143.703 387.775,-132.259"/>
<polygon fill="midnightblue" stroke="midnightblue" points="388.363,-135.71 397.733,-130.765 387.324,-128.787 388.363,-135.71"/>
</g>
<!-- Node43&#45;&gt;Node38 -->
<g id="edge52" class="edge"><title>Node43&#45;&gt;Node38</title>
<path fill="none" stroke="midnightblue" d="M93.9624,-168.075C107.14,-141.719 146.061,-63.878 163.67,-28.6608"/>
<polygon fill="midnightblue" stroke="midnightblue" points="166.874,-30.0777 168.216,-19.5681 160.613,-26.9471 166.874,-30.0777"/>
</g>
<!-- Node43&#45;&gt;Node39 -->
<g id="edge53" class="edge"><title>Node43&#45;&gt;Node39</title>
<path fill="none" stroke="midnightblue" d="M87.457,-168.075C81.4754,-141.945 63.9097,-65.2106 55.7526,-29.577"/>
<polygon fill="midnightblue" stroke="midnightblue" points="59.1046,-28.5349 53.4614,-19.5681 52.2811,-30.097 59.1046,-28.5349"/>
</g>
<!-- Node45&#45;&gt;Node3 -->
<g id="edge56" class="edge"><title>Node45&#45;&gt;Node3</title>
<path fill="none" stroke="midnightblue" d="M505.943,-336.311C508.977,-316.175 514.919,-264.918 504.5,-224 496.329,-191.908 475.659,-159.005 462.116,-139.812"/>
<polygon fill="midnightblue" stroke="midnightblue" points="464.831,-137.594 456.126,-131.555 459.165,-141.705 464.831,-137.594"/>
</g>
<!-- Node46 -->
<g id="node46" class="node"><title>Node46</title>
<g id="a_node46"><a xlink:href="_ogre_hardware_buffer_8h.html" target="_top" xlink:title="OgreHardwareBuffer.h">
<polygon fill="none" stroke="black" points="381.5,-224.5 381.5,-243.5 495.5,-243.5 495.5,-224.5 381.5,-224.5"/>
<text text-anchor="middle" x="438.5" y="-231.5" font-family="Helvetica,sans-Serif" font-size="10.00">OgreHardwareBuffer.h</text>
</a>
</g>
</g>
<!-- Node45&#45;&gt;Node46 -->
<g id="edge57" class="edge"><title>Node45&#45;&gt;Node46</title>
<path fill="none" stroke="midnightblue" d="M499.321,-336.368C488.477,-318.296 463.206,-276.176 448.884,-252.307"/>
<polygon fill="midnightblue" stroke="midnightblue" points="451.801,-250.366 443.655,-243.591 445.799,-253.967 451.801,-250.366"/>
</g>
<!-- Node48 -->
<g id="node48" class="node"><title>Node48</title>
<g id="a_node48"><a xlink:href="_ogre_shared_ptr_8h.html" target="_top" xlink:title="OgreSharedPtr.h">
<polygon fill="none" stroke="black" points="552,-280.5 552,-299.5 641,-299.5 641,-280.5 552,-280.5"/>
<text text-anchor="middle" x="596.5" y="-287.5" font-family="Helvetica,sans-Serif" font-size="10.00">OgreSharedPtr.h</text>
</a>
</g>
</g>
<!-- Node45&#45;&gt;Node48 -->
<g id="edge63" class="edge"><title>Node45&#45;&gt;Node48</title>
<path fill="none" stroke="midnightblue" d="M519.281,-336.324C533.767,-327.822 556.073,-314.729 572.993,-304.797"/>
<polygon fill="midnightblue" stroke="midnightblue" points="574.903,-307.735 581.755,-299.655 571.359,-301.698 574.903,-307.735"/>
</g>
<!-- Node46&#45;&gt;Node3 -->
<g id="edge58" class="edge"><title>Node46&#45;&gt;Node3</title>
<path fill="none" stroke="midnightblue" d="M439.363,-224.368C441.138,-206.617 445.233,-165.666 447.64,-141.597"/>
<polygon fill="midnightblue" stroke="midnightblue" points="451.128,-141.89 448.641,-131.591 444.163,-141.193 451.128,-141.89"/>
</g>
<!-- Node47 -->
<g id="node47" class="node"><title>Node47</title>
<g id="a_node47"><a xlink:href="_ogre_exception_8h.html" target="_top" xlink:title="OgreException.h">
<polygon fill="none" stroke="red" points="628,-168.5 628,-187.5 717,-187.5 717,-168.5 628,-168.5"/>
<text text-anchor="middle" x="672.5" y="-175.5" font-family="Helvetica,sans-Serif" font-size="10.00">OgreException.h</text>
</a>
</g>
</g>
<!-- Node46&#45;&gt;Node47 -->
<g id="edge59" class="edge"><title>Node46&#45;&gt;Node47</title>
<path fill="none" stroke="midnightblue" d="M475.578,-224.444C516.228,-215.063 581.532,-199.993 625.684,-189.804"/>
<polygon fill="midnightblue" stroke="midnightblue" points="626.639,-193.175 635.595,-187.516 625.065,-186.355 626.639,-193.175"/>
</g>
<!-- Node47&#45;&gt;Node3 -->
<g id="edge60" class="edge"><title>Node47&#45;&gt;Node3</title>
<path fill="none" stroke="midnightblue" d="M637.165,-168.444C598.589,-159.102 536.715,-144.119 494.647,-133.933"/>
<polygon fill="midnightblue" stroke="midnightblue" points="495.213,-130.468 484.67,-131.516 493.565,-137.272 495.213,-130.468"/>
</g>
<!-- Node47&#45;&gt;Node38 -->
<g id="edge61" class="edge"><title>Node47&#45;&gt;Node38</title>
<path fill="none" stroke="midnightblue" d="M667.973,-168.329C655.44,-145.323 617.79,-82.6718 566.5,-56 502.979,-22.9678 321.858,-28.9027 234.044,-19.8951"/>
<polygon fill="midnightblue" stroke="midnightblue" points="234.399,-16.413 224.065,-18.7516 233.602,-23.3674 234.399,-16.413"/>
</g>
<!-- Node47&#45;&gt;Node39 -->
<g id="edge62" class="edge"><title>Node47&#45;&gt;Node39</title>
<path fill="none" stroke="midnightblue" d="M653.787,-168.376C623.846,-154.845 563.082,-128.472 509.5,-112 370.109,-69.1485 201.59,-36.8214 112.923,-21.2661"/>
<polygon fill="midnightblue" stroke="midnightblue" points="113.486,-17.8116 103.033,-19.5428 112.284,-24.7076 113.486,-17.8116"/>
</g>
<!-- Node48&#45;&gt;Node3 -->
<g id="edge64" class="edge"><title>Node48&#45;&gt;Node3</title>
<path fill="none" stroke="midnightblue" d="M593.134,-280.38C583.378,-255.717 554.686,-185.516 537.5,-168 523.203,-153.428 503.189,-142.682 485.86,-135.352"/>
<polygon fill="midnightblue" stroke="midnightblue" points="487.146,-132.097 476.562,-131.629 484.544,-138.595 487.146,-132.097"/>
</g>
<!-- Node49 -->
<g id="node49" class="node"><title>Node49</title>
<g id="a_node49"><a xlink:href="_ogre_atomic_scalar_8h.html" target="_top" xlink:title="OgreAtomicScalar.h">
<polygon fill="none" stroke="red" points="589.5,-224.5 589.5,-243.5 693.5,-243.5 693.5,-224.5 589.5,-224.5"/>
<text text-anchor="middle" x="641.5" y="-231.5" font-family="Helvetica,sans-Serif" font-size="10.00">OgreAtomicScalar.h</text>
</a>
</g>
</g>
<!-- Node48&#45;&gt;Node49 -->
<g id="edge65" class="edge"><title>Node48&#45;&gt;Node49</title>
<path fill="none" stroke="midnightblue" d="M603.931,-280.083C610.353,-272.377 619.806,-261.033 627.622,-251.653"/>
<polygon fill="midnightblue" stroke="midnightblue" points="630.494,-253.674 634.207,-243.751 625.117,-249.193 630.494,-253.674"/>
</g>
<!-- Node49&#45;&gt;Node3 -->
<g id="edge66" class="edge"><title>Node49&#45;&gt;Node3</title>
<path fill="none" stroke="midnightblue" d="M634.723,-224.2C623.695,-210.426 600.565,-183.728 575.5,-168 551.117,-152.7 520.814,-141.668 496.037,-134.357"/>
<polygon fill="midnightblue" stroke="midnightblue" points="496.716,-130.911 486.14,-131.545 494.803,-137.645 496.716,-130.911"/>
</g>
<!-- Node49&#45;&gt;Node47 -->
<g id="edge67" class="edge"><title>Node49&#45;&gt;Node47</title>
<path fill="none" stroke="midnightblue" d="M646.619,-224.083C650.908,-216.613 657.158,-205.724 662.442,-196.52"/>
<polygon fill="midnightblue" stroke="midnightblue" points="665.533,-198.166 667.476,-187.751 659.462,-194.681 665.533,-198.166"/>
</g>
<!-- Node50&#45;&gt;Node2 -->
<g id="edge69" class="edge"><title>Node50&#45;&gt;Node2</title>
<path fill="none" stroke="midnightblue" d="M280.5,-336.083C280.5,-329.006 280.5,-318.861 280.5,-309.986"/>
<polygon fill="midnightblue" stroke="midnightblue" points="284,-309.751 280.5,-299.751 277,-309.751 284,-309.751"/>
</g>
</g>
</svg>
