<?xml version="1.0" encoding="UTF-8" standalone="no"?>
<!DOCTYPE svg PUBLIC "-//W3C//DTD SVG 1.1//EN"
 "http://www.w3.org/Graphics/SVG/1.1/DTD/svg11.dtd">
<!-- Generated by graphviz version 2.38.0 (20140413.2041)
 -->
<!-- Title: OgreLodOutputProviderBuffer.h Pages: 1 -->
<svg width="2841pt" height="420pt"
 viewBox="0.00 0.00 2841.00 420.00" xmlns="http://www.w3.org/2000/svg" xmlns:xlink="http://www.w3.org/1999/xlink">
<g id="graph0" class="graph" transform="scale(1 1) rotate(0) translate(4 416)">
<title>OgreLodOutputProviderBuffer.h</title>
<!-- Node1 -->
<g id="node1" class="node"><title>Node1</title>
<polygon fill="#bfbfbf" stroke="black" points="1409.5,-392.5 1409.5,-411.5 1562.5,-411.5 1562.5,-392.5 1409.5,-392.5"/>
<text text-anchor="middle" x="1486" y="-399.5" font-family="Helvetica,sans-Serif" font-size="10.00">OgreLodOutputProviderBuffer.h</text>
</g>
<!-- Node2 -->
<g id="node2" class="node"><title>Node2</title>
<g id="a_node2"><a xlink:href="_ogre_lod_prerequisites_8h.html" target="_top" xlink:title="OgreLodPrerequisites.h">
<polygon fill="none" stroke="black" points="1429.5,-224.5 1429.5,-243.5 1548.5,-243.5 1548.5,-224.5 1429.5,-224.5"/>
<text text-anchor="middle" x="1489" y="-231.5" font-family="Helvetica,sans-Serif" font-size="10.00">OgreLodPrerequisites.h</text>
</a>
</g>
</g>
<!-- Node1&#45;&gt;Node2 -->
<g id="edge1" class="edge"><title>Node1&#45;&gt;Node2</title>
<path fill="none" stroke="midnightblue" d="M1511.5,-392.472C1527.99,-385.478 1548.14,-373.792 1558,-356 1579.25,-317.664 1535.82,-272.958 1508.65,-250.119"/>
<polygon fill="midnightblue" stroke="midnightblue" points="1510.79,-247.354 1500.83,-243.764 1506.38,-252.787 1510.79,-247.354"/>
</g>
<!-- Node43 -->
<g id="node43" class="node"><title>Node43</title>
<g id="a_node43"><a xlink:href="_ogre_lod_output_provider_8h.html" target="_top" xlink:title="OgreLodOutputProvider.h">
<polygon fill="none" stroke="black" points="1422.5,-336.5 1422.5,-355.5 1549.5,-355.5 1549.5,-336.5 1422.5,-336.5"/>
<text text-anchor="middle" x="1486" y="-343.5" font-family="Helvetica,sans-Serif" font-size="10.00">OgreLodOutputProvider.h</text>
</a>
</g>
</g>
<!-- Node1&#45;&gt;Node43 -->
<g id="edge51" class="edge"><title>Node1&#45;&gt;Node43</title>
<path fill="none" stroke="midnightblue" d="M1486,-392.083C1486,-385.006 1486,-374.861 1486,-365.986"/>
<polygon fill="midnightblue" stroke="midnightblue" points="1489.5,-365.751 1486,-355.751 1482.5,-365.751 1489.5,-365.751"/>
</g>
<!-- Node48 -->
<g id="node48" class="node"><title>Node48</title>
<g id="a_node48"><a xlink:href="_ogre_lod_buffer_8h.html" target="_top" xlink:title="OgreLodBuffer.h">
<polygon fill="none" stroke="black" points="1316,-336.5 1316,-355.5 1404,-355.5 1404,-336.5 1316,-336.5"/>
<text text-anchor="middle" x="1360" y="-343.5" font-family="Helvetica,sans-Serif" font-size="10.00">OgreLodBuffer.h</text>
</a>
</g>
</g>
<!-- Node1&#45;&gt;Node48 -->
<g id="edge60" class="edge"><title>Node1&#45;&gt;Node48</title>
<path fill="none" stroke="midnightblue" d="M1466.03,-392.444C1445.39,-383.596 1412.94,-369.687 1389.37,-359.586"/>
<polygon fill="midnightblue" stroke="midnightblue" points="1390.44,-356.239 1379.87,-355.516 1387.68,-362.673 1390.44,-356.239"/>
</g>
<!-- Node3 -->
<g id="node3" class="node"><title>Node3</title>
<g id="a_node3"><a xlink:href="_ogre_prerequisites_8h.html" target="_top" xlink:title="OgrePrerequisites.h">
<polygon fill="none" stroke="black" points="1372.5,-168.5 1372.5,-187.5 1475.5,-187.5 1475.5,-168.5 1372.5,-168.5"/>
<text text-anchor="middle" x="1424" y="-175.5" font-family="Helvetica,sans-Serif" font-size="10.00">OgrePrerequisites.h</text>
</a>
</g>
</g>
<!-- Node2&#45;&gt;Node3 -->
<g id="edge2" class="edge"><title>Node2&#45;&gt;Node3</title>
<path fill="none" stroke="midnightblue" d="M1478.56,-224.324C1468.85,-216.263 1454.18,-204.077 1442.5,-194.369"/>
<polygon fill="midnightblue" stroke="midnightblue" points="1444.56,-191.532 1434.63,-187.834 1440.09,-196.916 1444.56,-191.532"/>
</g>
<!-- Node4 -->
<g id="node4" class="node"><title>Node4</title>
<g id="a_node4"><a xlink:href="_ogre_platform_8h.html" target="_top" xlink:title="OgrePlatform.h">
<polygon fill="none" stroke="black" points="213.5,-112.5 213.5,-131.5 296.5,-131.5 296.5,-112.5 213.5,-112.5"/>
<text text-anchor="middle" x="255" y="-119.5" font-family="Helvetica,sans-Serif" font-size="10.00">OgrePlatform.h</text>
</a>
</g>
</g>
<!-- Node3&#45;&gt;Node4 -->
<g id="edge3" class="edge"><title>Node3&#45;&gt;Node4</title>
<path fill="none" stroke="midnightblue" d="M1372.26,-174.61C1178.97,-165.681 500.378,-134.335 306.867,-125.396"/>
<polygon fill="midnightblue" stroke="midnightblue" points="306.836,-121.891 296.685,-124.926 306.512,-128.883 306.836,-121.891"/>
</g>
<!-- Node6 -->
<g id="node6" class="node"><title>Node6</title>
<polygon fill="none" stroke="#bfbfbf" points="92.5,-56.5 92.5,-75.5 133.5,-75.5 133.5,-56.5 92.5,-56.5"/>
<text text-anchor="middle" x="113" y="-63.5" font-family="Helvetica,sans-Serif" font-size="10.00">string</text>
</g>
<!-- Node3&#45;&gt;Node6 -->
<g id="edge5" class="edge"><title>Node3&#45;&gt;Node6</title>
<path fill="none" stroke="midnightblue" d="M1372.23,-176.849C1198.74,-175.519 622.397,-164.413 143.392,-75.6263"/>
<polygon fill="midnightblue" stroke="midnightblue" points="143.987,-72.1771 133.515,-73.7819 142.702,-79.0582 143.987,-72.1771"/>
</g>
<!-- Node7 -->
<g id="node7" class="node"><title>Node7</title>
<g id="a_node7"><a xlink:href="_ogre_std_headers_8h.html" target="_top" xlink:title="OgreStdHeaders.h">
<polygon fill="none" stroke="black" points="1004,-112.5 1004,-131.5 1102,-131.5 1102,-112.5 1004,-112.5"/>
<text text-anchor="middle" x="1053" y="-119.5" font-family="Helvetica,sans-Serif" font-size="10.00">OgreStdHeaders.h</text>
</a>
</g>
</g>
<!-- Node3&#45;&gt;Node7 -->
<g id="edge6" class="edge"><title>Node3&#45;&gt;Node7</title>
<path fill="none" stroke="midnightblue" d="M1372.41,-169.492C1304.19,-159.562 1184.23,-142.1 1112.33,-131.635"/>
<polygon fill="midnightblue" stroke="midnightblue" points="1112.48,-128.121 1102.08,-130.144 1111.47,-135.048 1112.48,-128.121"/>
</g>
<!-- Node37 -->
<g id="node37" class="node"><title>Node37</title>
<g id="a_node37"><a xlink:href="_ogre_memory_allocator_config_8h.html" target="_top" xlink:title="This file configures Ogre&#39;s memory allocators. ">
<polygon fill="none" stroke="black" points="2440,-112.5 2440,-131.5 2588,-131.5 2588,-112.5 2440,-112.5"/>
<text text-anchor="middle" x="2514" y="-119.5" font-family="Helvetica,sans-Serif" font-size="10.00">OgreMemoryAllocatorConfig.h</text>
</a>
</g>
</g>
<!-- Node3&#45;&gt;Node37 -->
<g id="edge37" class="edge"><title>Node3&#45;&gt;Node37</title>
<path fill="none" stroke="midnightblue" d="M1475.84,-174.432C1649.84,-165.812 2214.14,-137.855 2429.46,-127.188"/>
<polygon fill="midnightblue" stroke="midnightblue" points="2429.94,-130.669 2439.75,-126.678 2429.59,-123.677 2429.94,-130.669"/>
</g>
<!-- Node5 -->
<g id="node5" class="node"><title>Node5</title>
<g id="a_node5"><a xlink:href="_ogre_config_8h.html" target="_top" xlink:title="OgreConfig.h">
<polygon fill="none" stroke="red" points="0,-56.5 0,-75.5 74,-75.5 74,-56.5 0,-56.5"/>
<text text-anchor="middle" x="37" y="-63.5" font-family="Helvetica,sans-Serif" font-size="10.00">OgreConfig.h</text>
</a>
</g>
</g>
<!-- Node4&#45;&gt;Node5 -->
<g id="edge4" class="edge"><title>Node4&#45;&gt;Node5</title>
<path fill="none" stroke="midnightblue" d="M220.457,-112.444C182.747,-103.102 122.26,-88.1194 81.1351,-77.9326"/>
<polygon fill="midnightblue" stroke="midnightblue" points="81.9293,-74.5236 71.3811,-75.5164 80.2462,-81.3182 81.9293,-74.5236"/>
</g>
<!-- Node7&#45;&gt;Node6 -->
<g id="edge16" class="edge"><title>Node7&#45;&gt;Node6</title>
<path fill="none" stroke="midnightblue" d="M1003.81,-119.265C832.101,-113.114 263.735,-91.9415 143.431,-75.3986"/>
<polygon fill="midnightblue" stroke="midnightblue" points="143.917,-71.9323 133.5,-73.8634 142.848,-78.8501 143.917,-71.9323"/>
</g>
<!-- Node8 -->
<g id="node8" class="node"><title>Node8</title>
<polygon fill="none" stroke="#bfbfbf" points="1919.5,-56.5 1919.5,-75.5 1968.5,-75.5 1968.5,-56.5 1919.5,-56.5"/>
<text text-anchor="middle" x="1944" y="-63.5" font-family="Helvetica,sans-Serif" font-size="10.00">cassert</text>
</g>
<!-- Node7&#45;&gt;Node8 -->
<g id="edge7" class="edge"><title>Node7&#45;&gt;Node8</title>
<path fill="none" stroke="midnightblue" d="M1102.26,-119.801C1257.22,-115.817 1734.37,-101.867 1909.18,-75.9225"/>
<polygon fill="midnightblue" stroke="midnightblue" points="1909.91,-79.3501 1919.26,-74.3578 1908.84,-72.433 1909.91,-79.3501"/>
</g>
<!-- Node9 -->
<g id="node9" class="node"><title>Node9</title>
<polygon fill="none" stroke="#bfbfbf" points="1986.5,-56.5 1986.5,-75.5 2029.5,-75.5 2029.5,-56.5 1986.5,-56.5"/>
<text text-anchor="middle" x="2008" y="-63.5" font-family="Helvetica,sans-Serif" font-size="10.00">cstdio</text>
</g>
<!-- Node7&#45;&gt;Node9 -->
<g id="edge8" class="edge"><title>Node7&#45;&gt;Node9</title>
<path fill="none" stroke="midnightblue" d="M1102.25,-120.12C1265.23,-116.972 1786.99,-104.973 1976.36,-75.5887"/>
<polygon fill="midnightblue" stroke="midnightblue" points="1977.16,-79.0048 1986.47,-73.9491 1976.04,-72.0951 1977.16,-79.0048"/>
</g>
<!-- Node10 -->
<g id="node10" class="node"><title>Node10</title>
<polygon fill="none" stroke="#bfbfbf" points="2047.5,-56.5 2047.5,-75.5 2092.5,-75.5 2092.5,-56.5 2047.5,-56.5"/>
<text text-anchor="middle" x="2070" y="-63.5" font-family="Helvetica,sans-Serif" font-size="10.00">cstdlib</text>
</g>
<!-- Node7&#45;&gt;Node10 -->
<g id="edge9" class="edge"><title>Node7&#45;&gt;Node10</title>
<path fill="none" stroke="midnightblue" d="M1102.15,-120.239C1272.19,-117.379 1835.6,-105.946 2037.5,-75.5941"/>
<polygon fill="midnightblue" stroke="midnightblue" points="2038.08,-79.0468 2047.42,-74.0407 2037,-72.1312 2038.08,-79.0468"/>
</g>
<!-- Node11 -->
<g id="node11" class="node"><title>Node11</title>
<polygon fill="none" stroke="#bfbfbf" points="2110.5,-56.5 2110.5,-75.5 2151.5,-75.5 2151.5,-56.5 2110.5,-56.5"/>
<text text-anchor="middle" x="2131" y="-63.5" font-family="Helvetica,sans-Serif" font-size="10.00">ctime</text>
</g>
<!-- Node7&#45;&gt;Node11 -->
<g id="edge10" class="edge"><title>Node7&#45;&gt;Node11</title>
<path fill="none" stroke="midnightblue" d="M1102.17,-120.507C1279.4,-118.481 1885.79,-109.343 2100.26,-75.5943"/>
<polygon fill="midnightblue" stroke="midnightblue" points="2100.87,-79.0409 2110.18,-73.9686 2099.74,-72.1332 2100.87,-79.0409"/>
</g>
<!-- Node12 -->
<g id="node12" class="node"><title>Node12</title>
<polygon fill="none" stroke="#bfbfbf" points="2170,-56.5 2170,-75.5 2216,-75.5 2216,-56.5 2170,-56.5"/>
<text text-anchor="middle" x="2193" y="-63.5" font-family="Helvetica,sans-Serif" font-size="10.00">cstring</text>
</g>
<!-- Node7&#45;&gt;Node12 -->
<g id="edge11" class="edge"><title>Node7&#45;&gt;Node12</title>
<path fill="none" stroke="midnightblue" d="M1102.01,-120.477C1285.37,-118.294 1931.64,-108.529 2159.5,-75.5875"/>
<polygon fill="midnightblue" stroke="midnightblue" points="2160.34,-79.0009 2169.7,-74.0521 2159.3,-72.0787 2160.34,-79.0009"/>
</g>
<!-- Node13 -->
<g id="node13" class="node"><title>Node13</title>
<polygon fill="none" stroke="#bfbfbf" points="2234.5,-56.5 2234.5,-75.5 2283.5,-75.5 2283.5,-56.5 2234.5,-56.5"/>
<text text-anchor="middle" x="2259" y="-63.5" font-family="Helvetica,sans-Serif" font-size="10.00">cstdarg</text>
</g>
<!-- Node7&#45;&gt;Node13 -->
<g id="edge12" class="edge"><title>Node7&#45;&gt;Node13</title>
<path fill="none" stroke="midnightblue" d="M1102.21,-120.554C1292.8,-118.608 1983.29,-109.458 2224.15,-75.6963"/>
<polygon fill="midnightblue" stroke="midnightblue" points="2224.86,-79.1305 2234.25,-74.2262 2223.85,-72.2035 2224.86,-79.1305"/>
</g>
<!-- Node14 -->
<g id="node14" class="node"><title>Node14</title>
<polygon fill="none" stroke="#bfbfbf" points="152,-56.5 152,-75.5 196,-75.5 196,-56.5 152,-56.5"/>
<text text-anchor="middle" x="174" y="-63.5" font-family="Helvetica,sans-Serif" font-size="10.00">cmath</text>
</g>
<!-- Node7&#45;&gt;Node14 -->
<g id="edge13" class="edge"><title>Node7&#45;&gt;Node14</title>
<path fill="none" stroke="midnightblue" d="M1003.99,-119.057C840.749,-112.496 319.832,-90.8246 206.421,-75.6494"/>
<polygon fill="midnightblue" stroke="midnightblue" points="206.619,-72.1398 196.209,-74.1097 205.575,-79.0615 206.619,-72.1398"/>
</g>
<!-- Node15 -->
<g id="node15" class="node"><title>Node15</title>
<polygon fill="none" stroke="#bfbfbf" points="214,-56.5 214,-75.5 258,-75.5 258,-56.5 214,-56.5"/>
<text text-anchor="middle" x="236" y="-63.5" font-family="Helvetica,sans-Serif" font-size="10.00">vector</text>
</g>
<!-- Node7&#45;&gt;Node15 -->
<g id="edge14" class="edge"><title>Node7&#45;&gt;Node15</title>
<path fill="none" stroke="midnightblue" d="M1003.98,-119.64C858.316,-115.374 428.795,-101.124 268.382,-75.7835"/>
<polygon fill="midnightblue" stroke="midnightblue" points="268.648,-72.28 258.211,-74.0983 267.504,-79.1859 268.648,-72.28"/>
</g>
<!-- Node16 -->
<g id="node16" class="node"><title>Node16</title>
<polygon fill="none" stroke="#bfbfbf" points="276.5,-56.5 276.5,-75.5 311.5,-75.5 311.5,-56.5 276.5,-56.5"/>
<text text-anchor="middle" x="294" y="-63.5" font-family="Helvetica,sans-Serif" font-size="10.00">map</text>
</g>
<!-- Node7&#45;&gt;Node16 -->
<g id="edge15" class="edge"><title>Node7&#45;&gt;Node16</title>
<path fill="none" stroke="midnightblue" d="M1003.81,-119.644C864.902,-115.556 470.652,-102.108 321.434,-75.4371"/>
<polygon fill="midnightblue" stroke="midnightblue" points="322.017,-71.9855 311.543,-73.5777 320.724,-78.865 322.017,-71.9855"/>
</g>
<!-- Node17 -->
<g id="node17" class="node"><title>Node17</title>
<polygon fill="none" stroke="#bfbfbf" points="330,-56.5 330,-75.5 360,-75.5 360,-56.5 330,-56.5"/>
<text text-anchor="middle" x="345" y="-63.5" font-family="Helvetica,sans-Serif" font-size="10.00">set</text>
</g>
<!-- Node7&#45;&gt;Node17 -->
<g id="edge17" class="edge"><title>Node7&#45;&gt;Node17</title>
<path fill="none" stroke="midnightblue" d="M1003.62,-119.626C871.045,-115.648 508.567,-102.783 370.008,-75.4782"/>
<polygon fill="midnightblue" stroke="midnightblue" points="370.537,-72.0133 360.034,-73.401 369.11,-78.8663 370.537,-72.0133"/>
</g>
<!-- Node18 -->
<g id="node18" class="node"><title>Node18</title>
<polygon fill="none" stroke="#bfbfbf" points="378.5,-56.5 378.5,-75.5 407.5,-75.5 407.5,-56.5 378.5,-56.5"/>
<text text-anchor="middle" x="393" y="-63.5" font-family="Helvetica,sans-Serif" font-size="10.00">list</text>
</g>
<!-- Node7&#45;&gt;Node18 -->
<g id="edge18" class="edge"><title>Node7&#45;&gt;Node18</title>
<path fill="none" stroke="midnightblue" d="M1003.76,-119.443C877.906,-115.166 545.933,-101.931 417.839,-75.7323"/>
<polygon fill="midnightblue" stroke="midnightblue" points="418.403,-72.2734 407.889,-73.5752 416.92,-79.1145 418.403,-72.2734"/>
</g>
<!-- Node19 -->
<g id="node19" class="node"><title>Node19</title>
<polygon fill="none" stroke="#bfbfbf" points="425.5,-56.5 425.5,-75.5 468.5,-75.5 468.5,-56.5 425.5,-56.5"/>
<text text-anchor="middle" x="447" y="-63.5" font-family="Helvetica,sans-Serif" font-size="10.00">deque</text>
</g>
<!-- Node7&#45;&gt;Node19 -->
<g id="edge19" class="edge"><title>Node7&#45;&gt;Node19</title>
<path fill="none" stroke="midnightblue" d="M1003.99,-120.683C905.689,-119.29 677.501,-112.255 478.857,-75.9956"/>
<polygon fill="midnightblue" stroke="midnightblue" points="479.293,-72.5169 468.822,-74.1341 478.016,-79.3994 479.293,-72.5169"/>
</g>
<!-- Node20 -->
<g id="node20" class="node"><title>Node20</title>
<polygon fill="none" stroke="#bfbfbf" points="486.5,-56.5 486.5,-75.5 529.5,-75.5 529.5,-56.5 486.5,-56.5"/>
<text text-anchor="middle" x="508" y="-63.5" font-family="Helvetica,sans-Serif" font-size="10.00">queue</text>
</g>
<!-- Node7&#45;&gt;Node20 -->
<g id="edge20" class="edge"><title>Node7&#45;&gt;Node20</title>
<path fill="none" stroke="midnightblue" d="M1003.9,-120.039C913.484,-117.549 714.581,-108.721 539.718,-75.9923"/>
<polygon fill="midnightblue" stroke="midnightblue" points="540.305,-72.5412 529.827,-74.1103 538.996,-79.4179 540.305,-72.5412"/>
</g>
<!-- Node21 -->
<g id="node21" class="node"><title>Node21</title>
<polygon fill="none" stroke="#bfbfbf" points="547.5,-56.5 547.5,-75.5 588.5,-75.5 588.5,-56.5 547.5,-56.5"/>
<text text-anchor="middle" x="568" y="-63.5" font-family="Helvetica,sans-Serif" font-size="10.00">bitset</text>
</g>
<!-- Node7&#45;&gt;Node21 -->
<g id="edge21" class="edge"><title>Node7&#45;&gt;Node21</title>
<path fill="none" stroke="midnightblue" d="M1003.73,-119.239C921.555,-115.625 751.336,-105.262 598.562,-75.7016"/>
<polygon fill="midnightblue" stroke="midnightblue" points="599.013,-72.2233 588.525,-73.7266 597.661,-79.0916 599.013,-72.2233"/>
</g>
<!-- Node22 -->
<g id="node22" class="node"><title>Node22</title>
<polygon fill="none" stroke="#bfbfbf" points="607,-56.5 607,-75.5 663,-75.5 663,-56.5 607,-56.5"/>
<text text-anchor="middle" x="635" y="-63.5" font-family="Helvetica,sans-Serif" font-size="10.00">algorithm</text>
</g>
<!-- Node7&#45;&gt;Node22 -->
<g id="edge22" class="edge"><title>Node7&#45;&gt;Node22</title>
<path fill="none" stroke="midnightblue" d="M1003.7,-117.098C932.732,-111.059 797.528,-97.9812 673.276,-76.0361"/>
<polygon fill="midnightblue" stroke="midnightblue" points="673.667,-72.5506 663.207,-74.2336 672.434,-79.441 673.667,-72.5506"/>
</g>
<!-- Node23 -->
<g id="node23" class="node"><title>Node23</title>
<polygon fill="none" stroke="#bfbfbf" points="681.5,-56.5 681.5,-75.5 740.5,-75.5 740.5,-56.5 681.5,-56.5"/>
<text text-anchor="middle" x="711" y="-63.5" font-family="Helvetica,sans-Serif" font-size="10.00">functional</text>
</g>
<!-- Node7&#45;&gt;Node23 -->
<g id="edge23" class="edge"><title>Node7&#45;&gt;Node23</title>
<path fill="none" stroke="midnightblue" d="M1003.99,-114.939C945.967,-107.492 846.204,-93.8418 750.863,-76.0302"/>
<polygon fill="midnightblue" stroke="midnightblue" points="751.235,-72.5387 740.759,-74.1236 749.937,-79.4173 751.235,-72.5387"/>
</g>
<!-- Node24 -->
<g id="node24" class="node"><title>Node24</title>
<polygon fill="none" stroke="#bfbfbf" points="759,-56.5 759,-75.5 799,-75.5 799,-56.5 759,-56.5"/>
<text text-anchor="middle" x="779" y="-63.5" font-family="Helvetica,sans-Serif" font-size="10.00">limits</text>
</g>
<!-- Node7&#45;&gt;Node24 -->
<g id="edge24" class="edge"><title>Node7&#45;&gt;Node24</title>
<path fill="none" stroke="midnightblue" d="M1003.83,-113.737C956.232,-106.312 881.917,-93.6788 809.005,-76.0145"/>
<polygon fill="midnightblue" stroke="midnightblue" points="809.741,-72.5914 799.195,-73.6048 808.072,-79.3893 809.741,-72.5914"/>
</g>
<!-- Node25 -->
<g id="node25" class="node"><title>Node25</title>
<polygon fill="none" stroke="#bfbfbf" points="817,-56.5 817,-75.5 867,-75.5 867,-56.5 817,-56.5"/>
<text text-anchor="middle" x="842" y="-63.5" font-family="Helvetica,sans-Serif" font-size="10.00">fstream</text>
</g>
<!-- Node7&#45;&gt;Node25 -->
<g id="edge25" class="edge"><title>Node7&#45;&gt;Node25</title>
<path fill="none" stroke="midnightblue" d="M1019.04,-112.472C985.411,-104.002 932.181,-90.5354 877.168,-76.2859"/>
<polygon fill="midnightblue" stroke="midnightblue" points="877.802,-72.8345 867.244,-73.7116 876.045,-79.6103 877.802,-72.8345"/>
</g>
<!-- Node26 -->
<g id="node26" class="node"><title>Node26</title>
<polygon fill="none" stroke="#bfbfbf" points="885.5,-56.5 885.5,-75.5 930.5,-75.5 930.5,-56.5 885.5,-56.5"/>
<text text-anchor="middle" x="908" y="-63.5" font-family="Helvetica,sans-Serif" font-size="10.00">iosfwd</text>
</g>
<!-- Node7&#45;&gt;Node26 -->
<g id="edge26" class="edge"><title>Node7&#45;&gt;Node26</title>
<path fill="none" stroke="midnightblue" d="M1030.02,-112.444C1005.84,-103.438 967.582,-89.1891 940.354,-79.049"/>
<polygon fill="midnightblue" stroke="midnightblue" points="941.461,-75.7265 930.868,-75.5164 939.018,-82.2864 941.461,-75.7265"/>
</g>
<!-- Node27 -->
<g id="node27" class="node"><title>Node27</title>
<polygon fill="none" stroke="#bfbfbf" points="949,-56.5 949,-75.5 1001,-75.5 1001,-56.5 949,-56.5"/>
<text text-anchor="middle" x="975" y="-63.5" font-family="Helvetica,sans-Serif" font-size="10.00">sstream</text>
</g>
<!-- Node7&#45;&gt;Node27 -->
<g id="edge27" class="edge"><title>Node7&#45;&gt;Node27</title>
<path fill="none" stroke="midnightblue" d="M1040.47,-112.324C1028.41,-103.979 1009.97,-91.2122 995.731,-81.3524"/>
<polygon fill="midnightblue" stroke="midnightblue" points="997.715,-78.469 987.501,-75.6545 993.731,-84.2243 997.715,-78.469"/>
</g>
<!-- Node28 -->
<g id="node28" class="node"><title>Node28</title>
<polygon fill="none" stroke="#bfbfbf" points="1019,-56.5 1019,-75.5 1087,-75.5 1087,-56.5 1019,-56.5"/>
<text text-anchor="middle" x="1053" y="-63.5" font-family="Helvetica,sans-Serif" font-size="10.00">sys/types.h</text>
</g>
<!-- Node7&#45;&gt;Node28 -->
<g id="edge28" class="edge"><title>Node7&#45;&gt;Node28</title>
<path fill="none" stroke="midnightblue" d="M1053,-112.083C1053,-105.006 1053,-94.8611 1053,-85.9865"/>
<polygon fill="midnightblue" stroke="midnightblue" points="1056.5,-85.751 1053,-75.7511 1049.5,-85.7511 1056.5,-85.751"/>
</g>
<!-- Node29 -->
<g id="node29" class="node"><title>Node29</title>
<polygon fill="none" stroke="#bfbfbf" points="1105,-56.5 1105,-75.5 1165,-75.5 1165,-56.5 1105,-56.5"/>
<text text-anchor="middle" x="1135" y="-63.5" font-family="Helvetica,sans-Serif" font-size="10.00">sys/stat.h</text>
</g>
<!-- Node7&#45;&gt;Node29 -->
<g id="edge29" class="edge"><title>Node7&#45;&gt;Node29</title>
<path fill="none" stroke="midnightblue" d="M1066.17,-112.324C1078.85,-103.979 1098.23,-91.2122 1113.21,-81.3524"/>
<polygon fill="midnightblue" stroke="midnightblue" points="1115.43,-84.0776 1121.86,-75.6545 1111.58,-78.2313 1115.43,-84.0776"/>
</g>
<!-- Node30 -->
<g id="node30" class="node"><title>Node30</title>
<polygon fill="none" stroke="#bfbfbf" points="1183.5,-56.5 1183.5,-75.5 1234.5,-75.5 1234.5,-56.5 1183.5,-56.5"/>
<text text-anchor="middle" x="1209" y="-63.5" font-family="Helvetica,sans-Serif" font-size="10.00">unistd.h</text>
</g>
<!-- Node7&#45;&gt;Node30 -->
<g id="edge30" class="edge"><title>Node7&#45;&gt;Node30</title>
<path fill="none" stroke="midnightblue" d="M1077.72,-112.444C1103.85,-103.399 1145.26,-89.064 1174.58,-78.9158"/>
<polygon fill="midnightblue" stroke="midnightblue" points="1176.09,-82.0951 1184.4,-75.5164 1173.8,-75.4801 1176.09,-82.0951"/>
</g>
<!-- Node31 -->
<g id="node31" class="node"><title>Node31</title>
<polygon fill="none" stroke="#bfbfbf" points="1253,-56.5 1253,-75.5 1299,-75.5 1299,-56.5 1253,-56.5"/>
<text text-anchor="middle" x="1276" y="-63.5" font-family="Helvetica,sans-Serif" font-size="10.00">dlfcn.h</text>
</g>
<!-- Node7&#45;&gt;Node31 -->
<g id="edge31" class="edge"><title>Node7&#45;&gt;Node31</title>
<path fill="none" stroke="midnightblue" d="M1090.58,-112.492C1128.98,-103.708 1190.28,-89.4292 1243,-76 1243.1,-75.9743 1243.2,-75.9486 1243.3,-75.9228"/>
<polygon fill="midnightblue" stroke="midnightblue" points="1244.16,-79.3158 1252.95,-73.3934 1242.39,-72.5448 1244.16,-79.3158"/>
</g>
<!-- Node32 -->
<g id="node32" class="node"><title>Node32</title>
<polygon fill="none" stroke="#bfbfbf" points="1317,-56.5 1317,-75.5 1395,-75.5 1395,-56.5 1317,-56.5"/>
<text text-anchor="middle" x="1356" y="-63.5" font-family="Helvetica,sans-Serif" font-size="10.00">ext/hash_map</text>
</g>
<!-- Node7&#45;&gt;Node32 -->
<g id="edge32" class="edge"><title>Node7&#45;&gt;Node32</title>
<path fill="none" stroke="midnightblue" d="M1102.39,-112.445C1151.67,-103.873 1229.83,-90.1793 1307.07,-76.1544"/>
<polygon fill="midnightblue" stroke="midnightblue" points="1307.76,-79.5863 1316.97,-74.3535 1306.51,-72.6993 1307.76,-79.5863"/>
</g>
<!-- Node33 -->
<g id="node33" class="node"><title>Node33</title>
<polygon fill="none" stroke="#bfbfbf" points="1413.5,-56.5 1413.5,-75.5 1486.5,-75.5 1486.5,-56.5 1413.5,-56.5"/>
<text text-anchor="middle" x="1450" y="-63.5" font-family="Helvetica,sans-Serif" font-size="10.00">ext/hash_set</text>
</g>
<!-- Node7&#45;&gt;Node33 -->
<g id="edge33" class="edge"><title>Node7&#45;&gt;Node33</title>
<path fill="none" stroke="midnightblue" d="M1102.27,-115.717C1168.38,-108.4 1289.69,-94.1739 1403.45,-75.9898"/>
<polygon fill="midnightblue" stroke="midnightblue" points="1404.06,-79.4366 1413.38,-74.3898 1402.95,-72.5257 1404.06,-79.4366"/>
</g>
<!-- Node34 -->
<g id="node34" class="node"><title>Node34</title>
<polygon fill="none" stroke="#bfbfbf" points="1504.5,-56.5 1504.5,-75.5 1575.5,-75.5 1575.5,-56.5 1504.5,-56.5"/>
<text text-anchor="middle" x="1540" y="-63.5" font-family="Helvetica,sans-Serif" font-size="10.00">sys/param.h</text>
</g>
<!-- Node7&#45;&gt;Node34 -->
<g id="edge34" class="edge"><title>Node7&#45;&gt;Node34</title>
<path fill="none" stroke="midnightblue" d="M1102.25,-117.537C1182.25,-111.573 1345.58,-97.9866 1493.99,-76.0115"/>
<polygon fill="midnightblue" stroke="midnightblue" points="1494.82,-79.4258 1504.19,-74.4834 1493.79,-72.503 1494.82,-79.4258"/>
</g>
<!-- Node35 -->
<g id="node35" class="node"><title>Node35</title>
<polygon fill="none" stroke="#bfbfbf" points="1594,-56.5 1594,-75.5 1760,-75.5 1760,-56.5 1594,-56.5"/>
<text text-anchor="middle" x="1677" y="-63.5" font-family="Helvetica,sans-Serif" font-size="10.00">CoreFoundation/CoreFoundation.h</text>
</g>
<!-- Node7&#45;&gt;Node35 -->
<g id="edge35" class="edge"><title>Node7&#45;&gt;Node35</title>
<path fill="none" stroke="midnightblue" d="M1102.07,-117.039C1194.07,-109.568 1399.05,-92.7205 1583.68,-76.0179"/>
<polygon fill="midnightblue" stroke="midnightblue" points="1584.21,-79.4846 1593.85,-75.0962 1583.58,-72.5132 1584.21,-79.4846"/>
</g>
<!-- Node36 -->
<g id="node36" class="node"><title>Node36</title>
<polygon fill="none" stroke="#bfbfbf" points="1778,-56.5 1778,-75.5 1902,-75.5 1902,-56.5 1778,-56.5"/>
<text text-anchor="middle" x="1840" y="-63.5" font-family="Helvetica,sans-Serif" font-size="10.00">emscripten/emscripten.h</text>
</g>
<!-- Node7&#45;&gt;Node36 -->
<g id="edge36" class="edge"><title>Node7&#45;&gt;Node36</title>
<path fill="none" stroke="midnightblue" d="M1102.13,-118.986C1216.75,-114.056 1510.95,-100.068 1767.43,-76.0918"/>
<polygon fill="midnightblue" stroke="midnightblue" points="1768.06,-79.5479 1777.69,-75.1255 1767.4,-72.5788 1768.06,-79.5479"/>
</g>
<!-- Node38 -->
<g id="node38" class="node"><title>Node38</title>
<g id="a_node38"><a xlink:href="_ogre_memory_allocated_object_8h.html" target="_top" xlink:title="OgreMemoryAllocatedObject.h">
<polygon fill="none" stroke="black" points="2683,-56.5 2683,-75.5 2833,-75.5 2833,-56.5 2683,-56.5"/>
<text text-anchor="middle" x="2758" y="-63.5" font-family="Helvetica,sans-Serif" font-size="10.00">OgreMemoryAllocatedObject.h</text>
</a>
</g>
</g>
<!-- Node37&#45;&gt;Node38 -->
<g id="edge38" class="edge"><title>Node37&#45;&gt;Node38</title>
<path fill="none" stroke="midnightblue" d="M2552.66,-112.444C2595.14,-103.043 2663.43,-87.9291 2709.47,-77.7393"/>
<polygon fill="midnightblue" stroke="midnightblue" points="2710.51,-81.0946 2719.52,-75.5164 2709,-74.26 2710.51,-81.0946"/>
</g>
<!-- Node39 -->
<g id="node39" class="node"><title>Node39</title>
<g id="a_node39"><a xlink:href="_ogre_header_prefix_8h.html" target="_top" xlink:title="OgreHeaderPrefix.h">
<polygon fill="none" stroke="black" points="2586.5,-0.5 2586.5,-19.5 2689.5,-19.5 2689.5,-0.5 2586.5,-0.5"/>
<text text-anchor="middle" x="2638" y="-7.5" font-family="Helvetica,sans-Serif" font-size="10.00">OgreHeaderPrefix.h</text>
</a>
</g>
</g>
<!-- Node37&#45;&gt;Node39 -->
<g id="edge42" class="edge"><title>Node37&#45;&gt;Node39</title>
<path fill="none" stroke="midnightblue" d="M2575.84,-112.432C2598.06,-106.1 2621.06,-95.1001 2635,-76 2644.67,-62.7514 2644.34,-43.6234 2642.24,-29.5462"/>
<polygon fill="midnightblue" stroke="midnightblue" points="2645.64,-28.716 2640.33,-19.5482 2638.76,-30.0267 2645.64,-28.716"/>
</g>
<!-- Node40 -->
<g id="node40" class="node"><title>Node40</title>
<g id="a_node40"><a xlink:href="_ogre_header_suffix_8h.html" target="_top" xlink:title="OgreHeaderSuffix.h">
<polygon fill="none" stroke="black" points="2432.5,-0.5 2432.5,-19.5 2535.5,-19.5 2535.5,-0.5 2432.5,-0.5"/>
<text text-anchor="middle" x="2484" y="-7.5" font-family="Helvetica,sans-Serif" font-size="10.00">OgreHeaderSuffix.h</text>
</a>
</g>
</g>
<!-- Node37&#45;&gt;Node40 -->
<g id="edge50" class="edge"><title>Node37&#45;&gt;Node40</title>
<path fill="none" stroke="midnightblue" d="M2506.68,-112.383C2499.89,-103.796 2490.21,-89.9157 2486,-76 2481.45,-60.9551 2481.26,-43.0504 2482.03,-29.8458"/>
<polygon fill="midnightblue" stroke="midnightblue" points="2485.54,-29.8952 2482.87,-19.6416 2478.56,-29.3206 2485.54,-29.8952"/>
</g>
<!-- Node41 -->
<g id="node41" class="node"><title>Node41</title>
<g id="a_node41"><a xlink:href="_ogre_memory_s_t_l_allocator_8h.html" target="_top" xlink:title="OgreMemorySTLAllocator.h">
<polygon fill="none" stroke="black" points="2301.5,-56.5 2301.5,-75.5 2438.5,-75.5 2438.5,-56.5 2301.5,-56.5"/>
<text text-anchor="middle" x="2370" y="-63.5" font-family="Helvetica,sans-Serif" font-size="10.00">OgreMemorySTLAllocator.h</text>
</a>
</g>
</g>
<!-- Node37&#45;&gt;Node41 -->
<g id="edge43" class="edge"><title>Node37&#45;&gt;Node41</title>
<path fill="none" stroke="midnightblue" d="M2491.18,-112.444C2467.17,-103.438 2429.17,-89.1891 2402.13,-79.049"/>
<polygon fill="midnightblue" stroke="midnightblue" points="2403.3,-75.7506 2392.71,-75.5164 2400.84,-82.3049 2403.3,-75.7506"/>
</g>
<!-- Node42 -->
<g id="node42" class="node"><title>Node42</title>
<g id="a_node42"><a xlink:href="_ogre_memory_ned_pooling_8h.html" target="_top" xlink:title="OgreMemoryNedPooling.h">
<polygon fill="none" stroke="black" points="2495.5,-56.5 2495.5,-75.5 2626.5,-75.5 2626.5,-56.5 2495.5,-56.5"/>
<text text-anchor="middle" x="2561" y="-63.5" font-family="Helvetica,sans-Serif" font-size="10.00">OgreMemoryNedPooling.h</text>
</a>
</g>
</g>
<!-- Node37&#45;&gt;Node42 -->
<g id="edge47" class="edge"><title>Node37&#45;&gt;Node42</title>
<path fill="none" stroke="midnightblue" d="M2521.76,-112.083C2528.54,-104.298 2538.54,-92.8015 2546.76,-83.3665"/>
<polygon fill="midnightblue" stroke="midnightblue" points="2549.46,-85.592 2553.38,-75.7511 2544.18,-80.9963 2549.46,-85.592"/>
</g>
<!-- Node38&#45;&gt;Node3 -->
<g id="edge39" class="edge"><title>Node38&#45;&gt;Node3</title>
<path fill="none" stroke="midnightblue" d="M2742.14,-75.5741C2713.91,-90.3247 2652.71,-120.066 2597,-132 2569.62,-137.866 1724.11,-166.847 1485.91,-174.913"/>
<polygon fill="midnightblue" stroke="midnightblue" points="1485.57,-171.422 1475.69,-175.259 1485.8,-178.418 1485.57,-171.422"/>
</g>
<!-- Node38&#45;&gt;Node39 -->
<g id="edge40" class="edge"><title>Node38&#45;&gt;Node39</title>
<path fill="none" stroke="midnightblue" d="M2738.99,-56.4435C2719.41,-47.6356 2688.69,-33.8116 2666.27,-23.722"/>
<polygon fill="midnightblue" stroke="midnightblue" points="2667.48,-20.4284 2656.93,-19.5164 2664.61,-26.8119 2667.48,-20.4284"/>
</g>
<!-- Node38&#45;&gt;Node40 -->
<g id="edge41" class="edge"><title>Node38&#45;&gt;Node40</title>
<path fill="none" stroke="midnightblue" d="M2714.58,-56.4435C2666.48,-46.9641 2588.91,-31.6747 2537.19,-21.4835"/>
<polygon fill="midnightblue" stroke="midnightblue" points="2537.7,-18.0162 2527.21,-19.5164 2536.35,-24.8841 2537.7,-18.0162"/>
</g>
<!-- Node41&#45;&gt;Node3 -->
<g id="edge44" class="edge"><title>Node41&#45;&gt;Node3</title>
<path fill="none" stroke="midnightblue" d="M2301.45,-74.9707C2124.49,-95.5476 1654.39,-150.211 1485.5,-169.849"/>
<polygon fill="midnightblue" stroke="midnightblue" points="1485.06,-166.376 1475.53,-171.008 1485.87,-173.329 1485.06,-166.376"/>
</g>
<!-- Node41&#45;&gt;Node39 -->
<g id="edge45" class="edge"><title>Node41&#45;&gt;Node39</title>
<path fill="none" stroke="midnightblue" d="M2412.47,-56.4435C2459.41,-46.9839 2535.08,-31.7384 2585.65,-21.5472"/>
<polygon fill="midnightblue" stroke="midnightblue" points="2586.62,-24.9228 2595.73,-19.5164 2585.24,-18.0607 2586.62,-24.9228"/>
</g>
<!-- Node41&#45;&gt;Node40 -->
<g id="edge46" class="edge"><title>Node41&#45;&gt;Node40</title>
<path fill="none" stroke="midnightblue" d="M2388.06,-56.4435C2406.57,-47.6751 2435.58,-33.9355 2456.86,-23.8579"/>
<polygon fill="midnightblue" stroke="midnightblue" points="2458.48,-26.9604 2466.02,-19.5164 2455.49,-20.6343 2458.48,-26.9604"/>
</g>
<!-- Node42&#45;&gt;Node39 -->
<g id="edge48" class="edge"><title>Node42&#45;&gt;Node39</title>
<path fill="none" stroke="midnightblue" d="M2573.37,-56.324C2585.16,-48.0577 2603.13,-35.4527 2617.14,-25.6322"/>
<polygon fill="midnightblue" stroke="midnightblue" points="2619.48,-28.2619 2625.66,-19.6545 2615.46,-22.5307 2619.48,-28.2619"/>
</g>
<!-- Node42&#45;&gt;Node40 -->
<g id="edge49" class="edge"><title>Node42&#45;&gt;Node40</title>
<path fill="none" stroke="midnightblue" d="M2548.63,-56.324C2536.84,-48.0577 2518.87,-35.4527 2504.86,-25.6322"/>
<polygon fill="midnightblue" stroke="midnightblue" points="2506.54,-22.5307 2496.34,-19.6545 2502.52,-28.2619 2506.54,-22.5307"/>
</g>
<!-- Node43&#45;&gt;Node2 -->
<g id="edge52" class="edge"><title>Node43&#45;&gt;Node2</title>
<path fill="none" stroke="midnightblue" d="M1486.24,-336.368C1486.72,-318.617 1487.84,-277.666 1488.49,-253.597"/>
<polygon fill="midnightblue" stroke="midnightblue" points="1491.99,-253.683 1488.77,-243.591 1484.99,-253.492 1491.99,-253.683"/>
</g>
<!-- Node44 -->
<g id="node44" class="node"><title>Node44</title>
<g id="a_node44"><a xlink:href="_ogre_lod_data_8h.html" target="_top" xlink:title="OgreLodData.h">
<polygon fill="none" stroke="black" points="1606.5,-280.5 1606.5,-299.5 1689.5,-299.5 1689.5,-280.5 1606.5,-280.5"/>
<text text-anchor="middle" x="1648" y="-287.5" font-family="Helvetica,sans-Serif" font-size="10.00">OgreLodData.h</text>
</a>
</g>
</g>
<!-- Node43&#45;&gt;Node44 -->
<g id="edge53" class="edge"><title>Node43&#45;&gt;Node44</title>
<path fill="none" stroke="midnightblue" d="M1511.67,-336.444C1538.92,-327.359 1582.18,-312.939 1612.65,-302.783"/>
<polygon fill="midnightblue" stroke="midnightblue" points="1614.07,-305.999 1622.45,-299.516 1611.86,-299.358 1614.07,-305.999"/>
</g>
<!-- Node44&#45;&gt;Node2 -->
<g id="edge54" class="edge"><title>Node44&#45;&gt;Node2</title>
<path fill="none" stroke="midnightblue" d="M1622.81,-280.444C1596.06,-271.359 1553.6,-256.939 1523.69,-246.783"/>
<polygon fill="midnightblue" stroke="midnightblue" points="1524.67,-243.418 1514.08,-243.516 1522.42,-250.046 1524.67,-243.418"/>
</g>
<!-- Node45 -->
<g id="node45" class="node"><title>Node45</title>
<g id="a_node45"><a xlink:href="_ogre_vector_set_8h.html" target="_top" xlink:title="OgreVectorSet.h">
<polygon fill="none" stroke="red" points="1715.5,-168.5 1715.5,-187.5 1804.5,-187.5 1804.5,-168.5 1715.5,-168.5"/>
<text text-anchor="middle" x="1760" y="-175.5" font-family="Helvetica,sans-Serif" font-size="10.00">OgreVectorSet.h</text>
</a>
</g>
</g>
<!-- Node44&#45;&gt;Node45 -->
<g id="edge55" class="edge"><title>Node44&#45;&gt;Node45</title>
<path fill="none" stroke="midnightblue" d="M1689.69,-287.289C1720.72,-283.563 1761.15,-272.99 1782,-244 1792.38,-229.559 1783.17,-209.855 1773.69,-195.937"/>
<polygon fill="midnightblue" stroke="midnightblue" points="1776.39,-193.696 1767.63,-187.741 1770.76,-197.861 1776.39,-193.696"/>
</g>
<!-- Node46 -->
<g id="node46" class="node"><title>Node46</title>
<g id="a_node46"><a xlink:href="_ogre_vector_set_impl_8h.html" target="_top" xlink:title="OgreVectorSetImpl.h">
<polygon fill="none" stroke="red" points="1665,-224.5 1665,-243.5 1773,-243.5 1773,-224.5 1665,-224.5"/>
<text text-anchor="middle" x="1719" y="-231.5" font-family="Helvetica,sans-Serif" font-size="10.00">OgreVectorSetImpl.h</text>
</a>
</g>
</g>
<!-- Node44&#45;&gt;Node46 -->
<g id="edge56" class="edge"><title>Node44&#45;&gt;Node46</title>
<path fill="none" stroke="midnightblue" d="M1659.41,-280.324C1670.11,-272.185 1686.34,-259.839 1699.16,-250.087"/>
<polygon fill="midnightblue" stroke="midnightblue" points="1701.54,-252.673 1707.39,-243.834 1697.31,-247.102 1701.54,-252.673"/>
</g>
<!-- Node47 -->
<g id="node47" class="node"><title>Node47</title>
<g id="a_node47"><a xlink:href="_ogre_vector3_8h.html" target="_top" xlink:title="OgreVector3.h">
<polygon fill="none" stroke="red" points="1567,-224.5 1567,-243.5 1647,-243.5 1647,-224.5 1567,-224.5"/>
<text text-anchor="middle" x="1607" y="-231.5" font-family="Helvetica,sans-Serif" font-size="10.00">OgreVector3.h</text>
</a>
</g>
</g>
<!-- Node44&#45;&gt;Node47 -->
<g id="edge58" class="edge"><title>Node44&#45;&gt;Node47</title>
<path fill="none" stroke="midnightblue" d="M1641.23,-280.083C1635.44,-272.455 1626.94,-261.264 1619.86,-251.941"/>
<polygon fill="midnightblue" stroke="midnightblue" points="1622.48,-249.599 1613.64,-243.751 1616.9,-253.832 1622.48,-249.599"/>
</g>
<!-- Node46&#45;&gt;Node45 -->
<g id="edge57" class="edge"><title>Node46&#45;&gt;Node45</title>
<path fill="none" stroke="midnightblue" d="M1725.77,-224.083C1731.56,-216.455 1740.06,-205.264 1747.14,-195.941"/>
<polygon fill="midnightblue" stroke="midnightblue" points="1750.1,-197.832 1753.36,-187.751 1744.52,-193.599 1750.1,-197.832"/>
</g>
<!-- Node47&#45;&gt;Node3 -->
<g id="edge59" class="edge"><title>Node47&#45;&gt;Node3</title>
<path fill="none" stroke="midnightblue" d="M1578,-224.444C1546.82,-215.241 1497.07,-200.562 1462.59,-190.388"/>
<polygon fill="midnightblue" stroke="midnightblue" points="1463.44,-186.99 1452.86,-187.516 1461.46,-193.704 1463.44,-186.99"/>
</g>
<!-- Node48&#45;&gt;Node2 -->
<g id="edge61" class="edge"><title>Node48&#45;&gt;Node2</title>
<path fill="none" stroke="midnightblue" d="M1370.12,-336.368C1391.98,-317.733 1443.81,-273.532 1471.25,-250.134"/>
<polygon fill="midnightblue" stroke="midnightblue" points="1473.59,-252.743 1478.92,-243.591 1469.04,-247.417 1473.59,-252.743"/>
</g>
<!-- Node49 -->
<g id="node49" class="node"><title>Node49</title>
<g id="a_node49"><a xlink:href="_ogre_shared_ptr_8h.html" target="_top" xlink:title="OgreSharedPtr.h">
<polygon fill="none" stroke="black" points="1314.5,-280.5 1314.5,-299.5 1403.5,-299.5 1403.5,-280.5 1314.5,-280.5"/>
<text text-anchor="middle" x="1359" y="-287.5" font-family="Helvetica,sans-Serif" font-size="10.00">OgreSharedPtr.h</text>
</a>
</g>
</g>
<!-- Node48&#45;&gt;Node49 -->
<g id="edge62" class="edge"><title>Node48&#45;&gt;Node49</title>
<path fill="none" stroke="midnightblue" d="M1359.83,-336.083C1359.7,-329.006 1359.52,-318.861 1359.35,-309.986"/>
<polygon fill="midnightblue" stroke="midnightblue" points="1362.85,-309.685 1359.16,-299.751 1355.85,-309.814 1362.85,-309.685"/>
</g>
<!-- Node49&#45;&gt;Node3 -->
<g id="edge63" class="edge"><title>Node49&#45;&gt;Node3</title>
<path fill="none" stroke="midnightblue" d="M1340.26,-280.447C1317.03,-268.638 1282.31,-246.264 1298,-224 1312.76,-203.057 1338.19,-191.807 1362.36,-185.785"/>
<polygon fill="midnightblue" stroke="midnightblue" points="1363.25,-189.174 1372.25,-183.583 1361.72,-182.341 1363.25,-189.174"/>
</g>
<!-- Node50 -->
<g id="node50" class="node"><title>Node50</title>
<g id="a_node50"><a xlink:href="_ogre_atomic_scalar_8h.html" target="_top" xlink:title="OgreAtomicScalar.h">
<polygon fill="none" stroke="red" points="1307,-224.5 1307,-243.5 1411,-243.5 1411,-224.5 1307,-224.5"/>
<text text-anchor="middle" x="1359" y="-231.5" font-family="Helvetica,sans-Serif" font-size="10.00">OgreAtomicScalar.h</text>
</a>
</g>
</g>
<!-- Node49&#45;&gt;Node50 -->
<g id="edge64" class="edge"><title>Node49&#45;&gt;Node50</title>
<path fill="none" stroke="midnightblue" d="M1359,-280.083C1359,-273.006 1359,-262.861 1359,-253.986"/>
<polygon fill="midnightblue" stroke="midnightblue" points="1362.5,-253.751 1359,-243.751 1355.5,-253.751 1362.5,-253.751"/>
</g>
<!-- Node50&#45;&gt;Node3 -->
<g id="edge65" class="edge"><title>Node50&#45;&gt;Node3</title>
<path fill="none" stroke="midnightblue" d="M1369.44,-224.324C1379.15,-216.263 1393.82,-204.077 1405.5,-194.369"/>
<polygon fill="midnightblue" stroke="midnightblue" points="1407.91,-196.916 1413.37,-187.834 1403.44,-191.532 1407.91,-196.916"/>
</g>
</g>
</svg>
