<?xml version="1.0" encoding="UTF-8" standalone="no"?>
<!DOCTYPE svg PUBLIC "-//W3C//DTD SVG 1.1//EN"
 "http://www.w3.org/Graphics/SVG/1.1/DTD/svg11.dtd">
<!-- Generated by graphviz version 2.38.0 (20140413.2041)
 -->
<!-- Title: OgreString.h Pages: 1 -->
<svg width="2876pt" height="252pt"
 viewBox="0.00 0.00 2876.16 252.00" xmlns="http://www.w3.org/2000/svg" xmlns:xlink="http://www.w3.org/1999/xlink">
<g id="graph0" class="graph" transform="scale(1 1) rotate(0) translate(4 248)">
<title>OgreString.h</title>
<!-- Node1 -->
<g id="node1" class="node"><title>Node1</title>
<polygon fill="#bfbfbf" stroke="black" points="2321.16,-224.5 2321.16,-243.5 2392.16,-243.5 2392.16,-224.5 2321.16,-224.5"/>
<text text-anchor="middle" x="2356.66" y="-231.5" font-family="Helvetica,sans-Serif" font-size="10.00">OgreString.h</text>
</g>
<!-- Node2 -->
<g id="node2" class="node"><title>Node2</title>
<g id="a_node2"><a xlink:href="_ogre_prerequisites_8h.html" target="_top" xlink:title="OgrePrerequisites.h">
<polygon fill="none" stroke="black" points="2305.16,-168.5 2305.16,-187.5 2408.16,-187.5 2408.16,-168.5 2305.16,-168.5"/>
<text text-anchor="middle" x="2356.66" y="-175.5" font-family="Helvetica,sans-Serif" font-size="10.00">OgrePrerequisites.h</text>
</a>
</g>
</g>
<!-- Node1&#45;&gt;Node2 -->
<g id="edge1" class="edge"><title>Node1&#45;&gt;Node2</title>
<path fill="none" stroke="midnightblue" d="M2356.66,-224.083C2356.66,-217.006 2356.66,-206.861 2356.66,-197.986"/>
<polygon fill="midnightblue" stroke="midnightblue" points="2360.16,-197.751 2356.66,-187.751 2353.16,-197.751 2360.16,-197.751"/>
</g>
<!-- Node39 -->
<g id="node39" class="node"><title>Node39</title>
<g id="a_node39"><a xlink:href="_ogre_header_prefix_8h.html" target="_top" xlink:title="OgreHeaderPrefix.h">
<polygon fill="none" stroke="black" points="2634.16,-0.5 2634.16,-19.5 2737.16,-19.5 2737.16,-0.5 2634.16,-0.5"/>
<text text-anchor="middle" x="2685.66" y="-7.5" font-family="Helvetica,sans-Serif" font-size="10.00">OgreHeaderPrefix.h</text>
</a>
</g>
</g>
<!-- Node1&#45;&gt;Node39 -->
<g id="edge51" class="edge"><title>Node1&#45;&gt;Node39</title>
<path fill="none" stroke="midnightblue" d="M2392.22,-227.432C2497.41,-210.167 2803.29,-153.967 2860.66,-76 2892.51,-32.7274 2809.73,-18.2413 2747.43,-13.4054"/>
<polygon fill="midnightblue" stroke="midnightblue" points="2747.46,-9.89884 2737.23,-12.6842 2746.96,-16.8814 2747.46,-9.89884"/>
</g>
<!-- Node40 -->
<g id="node40" class="node"><title>Node40</title>
<g id="a_node40"><a xlink:href="_ogre_header_suffix_8h.html" target="_top" xlink:title="OgreHeaderSuffix.h">
<polygon fill="none" stroke="black" points="2446.16,-0.5 2446.16,-19.5 2549.16,-19.5 2549.16,-0.5 2446.16,-0.5"/>
<text text-anchor="middle" x="2497.66" y="-7.5" font-family="Helvetica,sans-Serif" font-size="10.00">OgreHeaderSuffix.h</text>
</a>
</g>
</g>
<!-- Node1&#45;&gt;Node40 -->
<g id="edge52" class="edge"><title>Node1&#45;&gt;Node40</title>
<path fill="none" stroke="midnightblue" d="M2320.96,-233.071C2014.26,-233.378 -160.693,-229.467 9.66435,-56 53.501,-11.3633 2056.16,-10.6637 2435.88,-10.9329"/>
<polygon fill="midnightblue" stroke="midnightblue" points="2436.11,-14.433 2446.12,-10.9407 2436.12,-7.43298 2436.11,-14.433"/>
</g>
<!-- Node3 -->
<g id="node3" class="node"><title>Node3</title>
<g id="a_node3"><a xlink:href="_ogre_platform_8h.html" target="_top" xlink:title="OgrePlatform.h">
<polygon fill="none" stroke="black" points="642.164,-112.5 642.164,-131.5 725.164,-131.5 725.164,-112.5 642.164,-112.5"/>
<text text-anchor="middle" x="683.664" y="-119.5" font-family="Helvetica,sans-Serif" font-size="10.00">OgrePlatform.h</text>
</a>
</g>
</g>
<!-- Node2&#45;&gt;Node3 -->
<g id="edge2" class="edge"><title>Node2&#45;&gt;Node3</title>
<path fill="none" stroke="midnightblue" d="M2304.76,-175.325C2055.74,-167.287 985.221,-132.733 735.765,-124.682"/>
<polygon fill="midnightblue" stroke="midnightblue" points="735.636,-121.176 725.529,-124.351 735.41,-128.172 735.636,-121.176"/>
</g>
<!-- Node6 -->
<g id="node6" class="node"><title>Node6</title>
<polygon fill="none" stroke="#bfbfbf" points="2261.16,-56.5 2261.16,-75.5 2302.16,-75.5 2302.16,-56.5 2261.16,-56.5"/>
<text text-anchor="middle" x="2281.66" y="-63.5" font-family="Helvetica,sans-Serif" font-size="10.00">string</text>
</g>
<!-- Node2&#45;&gt;Node6 -->
<g id="edge5" class="edge"><title>Node2&#45;&gt;Node6</title>
<path fill="none" stroke="midnightblue" d="M2350.78,-168.368C2338.4,-150.215 2309.48,-107.802 2293.25,-83.9902"/>
<polygon fill="midnightblue" stroke="midnightblue" points="2296.05,-81.882 2287.52,-75.5914 2290.26,-85.8254 2296.05,-81.882"/>
</g>
<!-- Node7 -->
<g id="node7" class="node"><title>Node7</title>
<g id="a_node7"><a xlink:href="_ogre_std_headers_8h.html" target="_top" xlink:title="OgreStdHeaders.h">
<polygon fill="none" stroke="black" points="1366.66,-112.5 1366.66,-131.5 1464.66,-131.5 1464.66,-112.5 1366.66,-112.5"/>
<text text-anchor="middle" x="1415.66" y="-119.5" font-family="Helvetica,sans-Serif" font-size="10.00">OgreStdHeaders.h</text>
</a>
</g>
</g>
<!-- Node2&#45;&gt;Node7 -->
<g id="edge6" class="edge"><title>Node2&#45;&gt;Node7</title>
<path fill="none" stroke="midnightblue" d="M2305.07,-174.039C2143.36,-164.76 1647.01,-136.276 1475.05,-126.408"/>
<polygon fill="midnightblue" stroke="midnightblue" points="1475.11,-122.905 1464.92,-125.827 1474.7,-129.894 1475.11,-122.905"/>
</g>
<!-- Node37 -->
<g id="node37" class="node"><title>Node37</title>
<g id="a_node37"><a xlink:href="_ogre_memory_allocator_config_8h.html" target="_top" xlink:title="This file configures Ogre&#39;s memory allocators. ">
<polygon fill="none" stroke="black" points="2469.66,-112.5 2469.66,-131.5 2617.66,-131.5 2617.66,-112.5 2469.66,-112.5"/>
<text text-anchor="middle" x="2543.66" y="-119.5" font-family="Helvetica,sans-Serif" font-size="10.00">OgreMemoryAllocatorConfig.h</text>
</a>
</g>
</g>
<!-- Node2&#45;&gt;Node37 -->
<g id="edge37" class="edge"><title>Node2&#45;&gt;Node37</title>
<path fill="none" stroke="midnightblue" d="M2386.3,-168.444C2418.16,-159.241 2469,-144.562 2504.23,-134.388"/>
<polygon fill="midnightblue" stroke="midnightblue" points="2505.54,-137.653 2514.17,-131.516 2503.59,-130.928 2505.54,-137.653"/>
</g>
<!-- Node4 -->
<g id="node4" class="node"><title>Node4</title>
<g id="a_node4"><a xlink:href="_ogre_config_8h.html" target="_top" xlink:title="OgreConfig.h">
<polygon fill="none" stroke="black" points="18.6643,-56.5 18.6643,-75.5 92.6643,-75.5 92.6643,-56.5 18.6643,-56.5"/>
<text text-anchor="middle" x="55.6643" y="-63.5" font-family="Helvetica,sans-Serif" font-size="10.00">OgreConfig.h</text>
</a>
</g>
</g>
<!-- Node3&#45;&gt;Node4 -->
<g id="edge3" class="edge"><title>Node3&#45;&gt;Node4</title>
<path fill="none" stroke="midnightblue" d="M641.851,-119.433C547.512,-115.541 310.795,-103.773 102.948,-76.0179"/>
<polygon fill="midnightblue" stroke="midnightblue" points="103.138,-72.512 92.7599,-74.6413 102.201,-79.4489 103.138,-72.512"/>
</g>
<!-- Node5 -->
<g id="node5" class="node"><title>Node5</title>
<polygon fill="none" stroke="#bfbfbf" points="3.66435,-0.5 3.66435,-19.5 107.664,-19.5 107.664,-0.5 3.66435,-0.5"/>
<text text-anchor="middle" x="55.6643" y="-7.5" font-family="Helvetica,sans-Serif" font-size="10.00">OgreBuildSettings.h</text>
</g>
<!-- Node4&#45;&gt;Node5 -->
<g id="edge4" class="edge"><title>Node4&#45;&gt;Node5</title>
<path fill="none" stroke="midnightblue" d="M55.6643,-56.083C55.6643,-49.0059 55.6643,-38.8611 55.6643,-29.9865"/>
<polygon fill="midnightblue" stroke="midnightblue" points="59.1644,-29.751 55.6643,-19.7511 52.1644,-29.7511 59.1644,-29.751"/>
</g>
<!-- Node7&#45;&gt;Node6 -->
<g id="edge16" class="edge"><title>Node7&#45;&gt;Node6</title>
<path fill="none" stroke="midnightblue" d="M1464.77,-119.888C1616.98,-116.205 2080.32,-103.158 2251.3,-75.5203"/>
<polygon fill="midnightblue" stroke="midnightblue" points="2251.89,-78.9705 2261.16,-73.8513 2250.72,-72.0686 2251.89,-78.9705"/>
</g>
<!-- Node8 -->
<g id="node8" class="node"><title>Node8</title>
<polygon fill="none" stroke="#bfbfbf" points="1011.16,-56.5 1011.16,-75.5 1060.16,-75.5 1060.16,-56.5 1011.16,-56.5"/>
<text text-anchor="middle" x="1035.66" y="-63.5" font-family="Helvetica,sans-Serif" font-size="10.00">cassert</text>
</g>
<!-- Node7&#45;&gt;Node8 -->
<g id="edge7" class="edge"><title>Node7&#45;&gt;Node8</title>
<path fill="none" stroke="midnightblue" d="M1366.47,-116.766C1300.89,-110.649 1181.08,-97.8297 1070.43,-76.1383"/>
<polygon fill="midnightblue" stroke="midnightblue" points="1070.93,-72.6692 1060.44,-74.15 1069.57,-79.5346 1070.93,-72.6692"/>
</g>
<!-- Node9 -->
<g id="node9" class="node"><title>Node9</title>
<polygon fill="none" stroke="#bfbfbf" points="1078.16,-56.5 1078.16,-75.5 1121.16,-75.5 1121.16,-56.5 1078.16,-56.5"/>
<text text-anchor="middle" x="1099.66" y="-63.5" font-family="Helvetica,sans-Serif" font-size="10.00">cstdio</text>
</g>
<!-- Node7&#45;&gt;Node9 -->
<g id="edge8" class="edge"><title>Node7&#45;&gt;Node9</title>
<path fill="none" stroke="midnightblue" d="M1366.45,-115.314C1311.22,-108.478 1218.86,-95.6779 1131.05,-76.0749"/>
<polygon fill="midnightblue" stroke="midnightblue" points="1131.73,-72.6388 1121.2,-73.8416 1130.18,-79.4656 1131.73,-72.6388"/>
</g>
<!-- Node10 -->
<g id="node10" class="node"><title>Node10</title>
<polygon fill="none" stroke="#bfbfbf" points="1139.16,-56.5 1139.16,-75.5 1184.16,-75.5 1184.16,-56.5 1139.16,-56.5"/>
<text text-anchor="middle" x="1161.66" y="-63.5" font-family="Helvetica,sans-Serif" font-size="10.00">cstdlib</text>
</g>
<!-- Node7&#45;&gt;Node10 -->
<g id="edge9" class="edge"><title>Node7&#45;&gt;Node10</title>
<path fill="none" stroke="midnightblue" d="M1367.56,-112.492C1324.43,-104.597 1259.25,-92.0013 1194.29,-76.2555"/>
<polygon fill="midnightblue" stroke="midnightblue" points="1194.84,-72.7859 1184.29,-73.8058 1193.17,-79.5849 1194.84,-72.7859"/>
</g>
<!-- Node11 -->
<g id="node11" class="node"><title>Node11</title>
<polygon fill="none" stroke="#bfbfbf" points="1202.16,-56.5 1202.16,-75.5 1243.16,-75.5 1243.16,-56.5 1202.16,-56.5"/>
<text text-anchor="middle" x="1222.66" y="-63.5" font-family="Helvetica,sans-Serif" font-size="10.00">ctime</text>
</g>
<!-- Node7&#45;&gt;Node11 -->
<g id="edge10" class="edge"><title>Node7&#45;&gt;Node11</title>
<path fill="none" stroke="midnightblue" d="M1384.05,-112.495C1353.1,-104.118 1304.36,-90.7984 1252.93,-76.0305"/>
<polygon fill="midnightblue" stroke="midnightblue" points="1253.88,-72.6613 1243.3,-73.257 1251.94,-79.3879 1253.88,-72.6613"/>
</g>
<!-- Node12 -->
<g id="node12" class="node"><title>Node12</title>
<polygon fill="none" stroke="#bfbfbf" points="1261.66,-56.5 1261.66,-75.5 1307.66,-75.5 1307.66,-56.5 1261.66,-56.5"/>
<text text-anchor="middle" x="1284.66" y="-63.5" font-family="Helvetica,sans-Serif" font-size="10.00">cstring</text>
</g>
<!-- Node7&#45;&gt;Node12 -->
<g id="edge11" class="edge"><title>Node7&#45;&gt;Node12</title>
<path fill="none" stroke="midnightblue" d="M1394.91,-112.444C1373.35,-103.557 1339.4,-89.5632 1314.87,-79.4514"/>
<polygon fill="midnightblue" stroke="midnightblue" points="1315.9,-76.0917 1305.32,-75.5164 1313.24,-82.5634 1315.9,-76.0917"/>
</g>
<!-- Node13 -->
<g id="node13" class="node"><title>Node13</title>
<polygon fill="none" stroke="#bfbfbf" points="1326.16,-56.5 1326.16,-75.5 1375.16,-75.5 1375.16,-56.5 1326.16,-56.5"/>
<text text-anchor="middle" x="1350.66" y="-63.5" font-family="Helvetica,sans-Serif" font-size="10.00">cstdarg</text>
</g>
<!-- Node7&#45;&gt;Node13 -->
<g id="edge12" class="edge"><title>Node7&#45;&gt;Node13</title>
<path fill="none" stroke="midnightblue" d="M1405.22,-112.324C1395.52,-104.263 1380.85,-92.0765 1369.16,-82.3695"/>
<polygon fill="midnightblue" stroke="midnightblue" points="1371.23,-79.532 1361.3,-75.8339 1366.75,-84.9163 1371.23,-79.532"/>
</g>
<!-- Node14 -->
<g id="node14" class="node"><title>Node14</title>
<polygon fill="none" stroke="#bfbfbf" points="1393.66,-56.5 1393.66,-75.5 1437.66,-75.5 1437.66,-56.5 1393.66,-56.5"/>
<text text-anchor="middle" x="1415.66" y="-63.5" font-family="Helvetica,sans-Serif" font-size="10.00">cmath</text>
</g>
<!-- Node7&#45;&gt;Node14 -->
<g id="edge13" class="edge"><title>Node7&#45;&gt;Node14</title>
<path fill="none" stroke="midnightblue" d="M1415.66,-112.083C1415.66,-105.006 1415.66,-94.8611 1415.66,-85.9865"/>
<polygon fill="midnightblue" stroke="midnightblue" points="1419.16,-85.751 1415.66,-75.7511 1412.16,-85.7511 1419.16,-85.751"/>
</g>
<!-- Node15 -->
<g id="node15" class="node"><title>Node15</title>
<polygon fill="none" stroke="#bfbfbf" points="1455.66,-56.5 1455.66,-75.5 1499.66,-75.5 1499.66,-56.5 1455.66,-56.5"/>
<text text-anchor="middle" x="1477.66" y="-63.5" font-family="Helvetica,sans-Serif" font-size="10.00">vector</text>
</g>
<!-- Node7&#45;&gt;Node15 -->
<g id="edge14" class="edge"><title>Node7&#45;&gt;Node15</title>
<path fill="none" stroke="midnightblue" d="M1425.63,-112.324C1434.79,-104.341 1448.6,-92.3128 1459.69,-82.6529"/>
<polygon fill="midnightblue" stroke="midnightblue" points="1462.28,-85.041 1467.52,-75.8339 1457.68,-79.7624 1462.28,-85.041"/>
</g>
<!-- Node16 -->
<g id="node16" class="node"><title>Node16</title>
<polygon fill="none" stroke="#bfbfbf" points="1518.16,-56.5 1518.16,-75.5 1553.16,-75.5 1553.16,-56.5 1518.16,-56.5"/>
<text text-anchor="middle" x="1535.66" y="-63.5" font-family="Helvetica,sans-Serif" font-size="10.00">map</text>
</g>
<!-- Node7&#45;&gt;Node16 -->
<g id="edge15" class="edge"><title>Node7&#45;&gt;Node16</title>
<path fill="none" stroke="midnightblue" d="M1434.68,-112.444C1454.6,-103.48 1486.06,-89.3221 1508.57,-79.1914"/>
<polygon fill="midnightblue" stroke="midnightblue" points="1510.23,-82.2837 1517.91,-74.9883 1507.36,-75.9003 1510.23,-82.2837"/>
</g>
<!-- Node17 -->
<g id="node17" class="node"><title>Node17</title>
<polygon fill="none" stroke="#bfbfbf" points="1571.66,-56.5 1571.66,-75.5 1601.66,-75.5 1601.66,-56.5 1571.66,-56.5"/>
<text text-anchor="middle" x="1586.66" y="-63.5" font-family="Helvetica,sans-Serif" font-size="10.00">set</text>
</g>
<!-- Node7&#45;&gt;Node17 -->
<g id="edge17" class="edge"><title>Node7&#45;&gt;Node17</title>
<path fill="none" stroke="midnightblue" d="M1444.88,-112.432C1474.44,-103.659 1521.41,-89.441 1561.66,-76 1561.77,-75.9662 1561.87,-75.9323 1561.97,-75.8983"/>
<polygon fill="midnightblue" stroke="midnightblue" points="1563.34,-79.1283 1571.63,-72.5394 1561.04,-72.5163 1563.34,-79.1283"/>
</g>
<!-- Node18 -->
<g id="node18" class="node"><title>Node18</title>
<polygon fill="none" stroke="#bfbfbf" points="1620.16,-56.5 1620.16,-75.5 1649.16,-75.5 1649.16,-56.5 1620.16,-56.5"/>
<text text-anchor="middle" x="1634.66" y="-63.5" font-family="Helvetica,sans-Serif" font-size="10.00">list</text>
</g>
<!-- Node7&#45;&gt;Node18 -->
<g id="edge18" class="edge"><title>Node7&#45;&gt;Node18</title>
<path fill="none" stroke="midnightblue" d="M1460.25,-112.459C1497.88,-104.859 1553.3,-92.7577 1610.16,-75.8198"/>
<polygon fill="midnightblue" stroke="midnightblue" points="1611.49,-79.0765 1620.05,-72.8315 1609.46,-72.3762 1611.49,-79.0765"/>
</g>
<!-- Node19 -->
<g id="node19" class="node"><title>Node19</title>
<polygon fill="none" stroke="#bfbfbf" points="1667.16,-56.5 1667.16,-75.5 1710.16,-75.5 1710.16,-56.5 1667.16,-56.5"/>
<text text-anchor="middle" x="1688.66" y="-63.5" font-family="Helvetica,sans-Serif" font-size="10.00">deque</text>
</g>
<!-- Node7&#45;&gt;Node19 -->
<g id="edge19" class="edge"><title>Node7&#45;&gt;Node19</title>
<path fill="none" stroke="midnightblue" d="M1465.09,-113.277C1512.1,-105.603 1584.96,-92.857 1657.32,-75.8806"/>
<polygon fill="midnightblue" stroke="midnightblue" points="1658.14,-79.2835 1667.06,-73.5684 1656.52,-72.4728 1658.14,-79.2835"/>
</g>
<!-- Node20 -->
<g id="node20" class="node"><title>Node20</title>
<polygon fill="none" stroke="#bfbfbf" points="1728.16,-56.5 1728.16,-75.5 1771.16,-75.5 1771.16,-56.5 1728.16,-56.5"/>
<text text-anchor="middle" x="1749.66" y="-63.5" font-family="Helvetica,sans-Serif" font-size="10.00">queue</text>
</g>
<!-- Node7&#45;&gt;Node20 -->
<g id="edge20" class="edge"><title>Node7&#45;&gt;Node20</title>
<path fill="none" stroke="midnightblue" d="M1464.84,-115.768C1523.09,-109.111 1623.16,-96.2363 1718.3,-75.8026"/>
<polygon fill="midnightblue" stroke="midnightblue" points="1719.05,-79.2196 1728.08,-73.6705 1717.56,-72.3802 1719.05,-79.2196"/>
</g>
<!-- Node21 -->
<g id="node21" class="node"><title>Node21</title>
<polygon fill="none" stroke="#bfbfbf" points="1789.16,-56.5 1789.16,-75.5 1830.16,-75.5 1830.16,-56.5 1789.16,-56.5"/>
<text text-anchor="middle" x="1809.66" y="-63.5" font-family="Helvetica,sans-Serif" font-size="10.00">bitset</text>
</g>
<!-- Node7&#45;&gt;Node21 -->
<g id="edge21" class="edge"><title>Node7&#45;&gt;Node21</title>
<path fill="none" stroke="midnightblue" d="M1464.67,-117.577C1533.05,-112.223 1661.04,-100.105 1779.19,-75.7427"/>
<polygon fill="midnightblue" stroke="midnightblue" points="1780.06,-79.1364 1789.13,-73.6589 1778.62,-72.2853 1780.06,-79.1364"/>
</g>
<!-- Node22 -->
<g id="node22" class="node"><title>Node22</title>
<polygon fill="none" stroke="#bfbfbf" points="1848.66,-56.5 1848.66,-75.5 1904.66,-75.5 1904.66,-56.5 1848.66,-56.5"/>
<text text-anchor="middle" x="1876.66" y="-63.5" font-family="Helvetica,sans-Serif" font-size="10.00">algorithm</text>
</g>
<!-- Node7&#45;&gt;Node22 -->
<g id="edge22" class="edge"><title>Node7&#45;&gt;Node22</title>
<path fill="none" stroke="midnightblue" d="M1464.79,-117.802C1543.93,-112.196 1704.36,-98.9543 1838.66,-76 1838.76,-75.9829 1838.86,-75.9656 1838.97,-75.9483"/>
<polygon fill="midnightblue" stroke="midnightblue" points="1839.38,-79.4336 1848.52,-74.0837 1838.04,-72.5631 1839.38,-79.4336"/>
</g>
<!-- Node23 -->
<g id="node23" class="node"><title>Node23</title>
<polygon fill="none" stroke="#bfbfbf" points="1923.16,-56.5 1923.16,-75.5 1982.16,-75.5 1982.16,-56.5 1923.16,-56.5"/>
<text text-anchor="middle" x="1952.66" y="-63.5" font-family="Helvetica,sans-Serif" font-size="10.00">functional</text>
</g>
<!-- Node7&#45;&gt;Node23 -->
<g id="edge23" class="edge"><title>Node7&#45;&gt;Node23</title>
<path fill="none" stroke="midnightblue" d="M1464.71,-118.795C1552.63,-114.358 1742.93,-102.556 1913.05,-75.8721"/>
<polygon fill="midnightblue" stroke="midnightblue" points="1913.61,-79.3276 1922.94,-74.3012 1912.51,-72.4144 1913.61,-79.3276"/>
</g>
<!-- Node24 -->
<g id="node24" class="node"><title>Node24</title>
<polygon fill="none" stroke="#bfbfbf" points="2000.66,-56.5 2000.66,-75.5 2040.66,-75.5 2040.66,-56.5 2000.66,-56.5"/>
<text text-anchor="middle" x="2020.66" y="-63.5" font-family="Helvetica,sans-Serif" font-size="10.00">limits</text>
</g>
<!-- Node7&#45;&gt;Node24 -->
<g id="edge24" class="edge"><title>Node7&#45;&gt;Node24</title>
<path fill="none" stroke="midnightblue" d="M1464.97,-120.669C1564.97,-119.225 1798.49,-111.92 1990.66,-76 1990.76,-75.9813 1990.86,-75.9623 1990.97,-75.9432"/>
<polygon fill="midnightblue" stroke="midnightblue" points="1991.55,-79.4017 2000.48,-73.6945 1989.94,-72.5896 1991.55,-79.4017"/>
</g>
<!-- Node25 -->
<g id="node25" class="node"><title>Node25</title>
<polygon fill="none" stroke="#bfbfbf" points="2058.66,-56.5 2058.66,-75.5 2108.66,-75.5 2108.66,-56.5 2058.66,-56.5"/>
<text text-anchor="middle" x="2083.66" y="-63.5" font-family="Helvetica,sans-Serif" font-size="10.00">fstream</text>
</g>
<!-- Node7&#45;&gt;Node25 -->
<g id="edge25" class="edge"><title>Node7&#45;&gt;Node25</title>
<path fill="none" stroke="midnightblue" d="M1464.95,-120.643C1570.51,-119.202 1826.23,-112.104 2048.63,-75.8532"/>
<polygon fill="midnightblue" stroke="midnightblue" points="2049.23,-79.3015 2058.53,-74.2171 2048.09,-72.3952 2049.23,-79.3015"/>
</g>
<!-- Node26 -->
<g id="node26" class="node"><title>Node26</title>
<polygon fill="none" stroke="#bfbfbf" points="2127.16,-56.5 2127.16,-75.5 2172.16,-75.5 2172.16,-56.5 2127.16,-56.5"/>
<text text-anchor="middle" x="2149.66" y="-63.5" font-family="Helvetica,sans-Serif" font-size="10.00">iosfwd</text>
</g>
<!-- Node7&#45;&gt;Node26 -->
<g id="edge26" class="edge"><title>Node7&#45;&gt;Node26</title>
<path fill="none" stroke="midnightblue" d="M1465.01,-121.381C1578.68,-121.5 1867.64,-117.469 2117.1,-75.683"/>
<polygon fill="midnightblue" stroke="midnightblue" points="2117.8,-79.1137 2127.07,-73.988 2116.63,-72.2126 2117.8,-79.1137"/>
</g>
<!-- Node27 -->
<g id="node27" class="node"><title>Node27</title>
<polygon fill="none" stroke="#bfbfbf" points="2190.66,-56.5 2190.66,-75.5 2242.66,-75.5 2242.66,-56.5 2190.66,-56.5"/>
<text text-anchor="middle" x="2216.66" y="-63.5" font-family="Helvetica,sans-Serif" font-size="10.00">sstream</text>
</g>
<!-- Node7&#45;&gt;Node27 -->
<g id="edge27" class="edge"><title>Node7&#45;&gt;Node27</title>
<path fill="none" stroke="midnightblue" d="M1464.77,-121.266C1585.2,-121.246 1904.78,-117.112 2180.24,-75.7096"/>
<polygon fill="midnightblue" stroke="midnightblue" points="2181.07,-79.1232 2190.43,-74.1575 2180.02,-72.203 2181.07,-79.1232"/>
</g>
<!-- Node28 -->
<g id="node28" class="node"><title>Node28</title>
<polygon fill="none" stroke="#bfbfbf" points="110.664,-56.5 110.664,-75.5 178.664,-75.5 178.664,-56.5 110.664,-56.5"/>
<text text-anchor="middle" x="144.664" y="-63.5" font-family="Helvetica,sans-Serif" font-size="10.00">sys/types.h</text>
</g>
<!-- Node7&#45;&gt;Node28 -->
<g id="edge28" class="edge"><title>Node7&#45;&gt;Node28</title>
<path fill="none" stroke="midnightblue" d="M1366.54,-120.313C1170.38,-117.402 442.09,-104.93 189.089,-75.916"/>
<polygon fill="midnightblue" stroke="midnightblue" points="189.188,-72.4032 178.845,-74.6999 188.362,-79.3544 189.188,-72.4032"/>
</g>
<!-- Node29 -->
<g id="node29" class="node"><title>Node29</title>
<polygon fill="none" stroke="#bfbfbf" points="196.664,-56.5 196.664,-75.5 256.664,-75.5 256.664,-56.5 196.664,-56.5"/>
<text text-anchor="middle" x="226.664" y="-63.5" font-family="Helvetica,sans-Serif" font-size="10.00">sys/stat.h</text>
</g>
<!-- Node7&#45;&gt;Node29 -->
<g id="edge29" class="edge"><title>Node7&#45;&gt;Node29</title>
<path fill="none" stroke="midnightblue" d="M1366.43,-120.304C1178.25,-117.456 503.555,-105.477 267.05,-75.8737"/>
<polygon fill="midnightblue" stroke="midnightblue" points="267.163,-72.3591 256.795,-74.5417 266.261,-79.3008 267.163,-72.3591"/>
</g>
<!-- Node30 -->
<g id="node30" class="node"><title>Node30</title>
<polygon fill="none" stroke="#bfbfbf" points="275.164,-56.5 275.164,-75.5 326.164,-75.5 326.164,-56.5 275.164,-56.5"/>
<text text-anchor="middle" x="300.664" y="-63.5" font-family="Helvetica,sans-Serif" font-size="10.00">unistd.h</text>
</g>
<!-- Node7&#45;&gt;Node30 -->
<g id="edge30" class="edge"><title>Node7&#45;&gt;Node30</title>
<path fill="none" stroke="midnightblue" d="M1366.62,-120.324C1186.1,-117.628 558.126,-106.345 336.463,-75.7235"/>
<polygon fill="midnightblue" stroke="midnightblue" points="336.93,-72.2546 326.534,-74.2978 335.935,-79.1836 336.93,-72.2546"/>
</g>
<!-- Node31 -->
<g id="node31" class="node"><title>Node31</title>
<polygon fill="none" stroke="#bfbfbf" points="344.664,-56.5 344.664,-75.5 390.664,-75.5 390.664,-56.5 344.664,-56.5"/>
<text text-anchor="middle" x="367.664" y="-63.5" font-family="Helvetica,sans-Serif" font-size="10.00">dlfcn.h</text>
</g>
<!-- Node7&#45;&gt;Node31 -->
<g id="edge31" class="edge"><title>Node7&#45;&gt;Node31</title>
<path fill="none" stroke="midnightblue" d="M1366.5,-120.318C1192.92,-117.682 608.499,-106.801 400.841,-75.7569"/>
<polygon fill="midnightblue" stroke="midnightblue" points="401.364,-72.2964 390.945,-74.2154 400.287,-79.213 401.364,-72.2964"/>
</g>
<!-- Node32 -->
<g id="node32" class="node"><title>Node32</title>
<polygon fill="none" stroke="#bfbfbf" points="408.664,-56.5 408.664,-75.5 486.664,-75.5 486.664,-56.5 408.664,-56.5"/>
<text text-anchor="middle" x="447.664" y="-63.5" font-family="Helvetica,sans-Serif" font-size="10.00">ext/hash_map</text>
</g>
<!-- Node7&#45;&gt;Node32 -->
<g id="edge32" class="edge"><title>Node7&#45;&gt;Node32</title>
<path fill="none" stroke="midnightblue" d="M1366.6,-120.951C1230.16,-120.313 834.626,-115.062 496.866,-75.9724"/>
<polygon fill="midnightblue" stroke="midnightblue" points="497.229,-72.4911 486.89,-74.806 496.416,-79.4437 497.229,-72.4911"/>
</g>
<!-- Node33 -->
<g id="node33" class="node"><title>Node33</title>
<polygon fill="none" stroke="#bfbfbf" points="505.164,-56.5 505.164,-75.5 578.164,-75.5 578.164,-56.5 505.164,-56.5"/>
<text text-anchor="middle" x="541.664" y="-63.5" font-family="Helvetica,sans-Serif" font-size="10.00">ext/hash_set</text>
</g>
<!-- Node7&#45;&gt;Node33 -->
<g id="edge33" class="edge"><title>Node7&#45;&gt;Node33</title>
<path fill="none" stroke="midnightblue" d="M1366.39,-120.781C1239.11,-119.689 888.864,-113.357 588.641,-76.0812"/>
<polygon fill="midnightblue" stroke="midnightblue" points="588.789,-72.5724 578.431,-74.7991 587.917,-79.5179 588.789,-72.5724"/>
</g>
<!-- Node34 -->
<g id="node34" class="node"><title>Node34</title>
<polygon fill="none" stroke="#bfbfbf" points="596.164,-56.5 596.164,-75.5 667.164,-75.5 667.164,-56.5 596.164,-56.5"/>
<text text-anchor="middle" x="631.664" y="-63.5" font-family="Helvetica,sans-Serif" font-size="10.00">sys/param.h</text>
</g>
<!-- Node7&#45;&gt;Node34 -->
<g id="edge34" class="edge"><title>Node7&#45;&gt;Node34</title>
<path fill="none" stroke="midnightblue" d="M1366.59,-120.324C1249.23,-118.212 943.009,-109.771 677.668,-75.9339"/>
<polygon fill="midnightblue" stroke="midnightblue" points="677.818,-72.4244 667.453,-74.616 676.923,-79.3669 677.818,-72.4244"/>
</g>
<!-- Node35 -->
<g id="node35" class="node"><title>Node35</title>
<polygon fill="none" stroke="#bfbfbf" points="685.664,-56.5 685.664,-75.5 851.664,-75.5 851.664,-56.5 685.664,-56.5"/>
<text text-anchor="middle" x="768.664" y="-63.5" font-family="Helvetica,sans-Serif" font-size="10.00">CoreFoundation/CoreFoundation.h</text>
</g>
<!-- Node7&#45;&gt;Node35 -->
<g id="edge35" class="edge"><title>Node7&#45;&gt;Node35</title>
<path fill="none" stroke="midnightblue" d="M1366.64,-117.3C1271.52,-110.062 1055.02,-93.2942 861.952,-76.1025"/>
<polygon fill="midnightblue" stroke="midnightblue" points="862.175,-72.6086 851.903,-75.2054 861.552,-79.5809 862.175,-72.6086"/>
</g>
<!-- Node36 -->
<g id="node36" class="node"><title>Node36</title>
<polygon fill="none" stroke="#bfbfbf" points="869.664,-56.5 869.664,-75.5 993.664,-75.5 993.664,-56.5 869.664,-56.5"/>
<text text-anchor="middle" x="931.664" y="-63.5" font-family="Helvetica,sans-Serif" font-size="10.00">emscripten/emscripten.h</text>
</g>
<!-- Node7&#45;&gt;Node36 -->
<g id="edge36" class="edge"><title>Node7&#45;&gt;Node36</title>
<path fill="none" stroke="midnightblue" d="M1366.56,-115.977C1290.89,-108.168 1140.96,-92.4208 1004.12,-76.2748"/>
<polygon fill="midnightblue" stroke="midnightblue" points="1004.21,-72.7617 993.869,-75.062 1003.39,-79.7131 1004.21,-72.7617"/>
</g>
<!-- Node38 -->
<g id="node38" class="node"><title>Node38</title>
<g id="a_node38"><a xlink:href="_ogre_memory_allocated_object_8h.html" target="_top" xlink:title="OgreMemoryAllocatedObject.h">
<polygon fill="none" stroke="black" points="2319.66,-56.5 2319.66,-75.5 2469.66,-75.5 2469.66,-56.5 2319.66,-56.5"/>
<text text-anchor="middle" x="2394.66" y="-63.5" font-family="Helvetica,sans-Serif" font-size="10.00">OgreMemoryAllocatedObject.h</text>
</a>
</g>
</g>
<!-- Node37&#45;&gt;Node38 -->
<g id="edge38" class="edge"><title>Node37&#45;&gt;Node38</title>
<path fill="none" stroke="midnightblue" d="M2520.05,-112.444C2495.21,-103.438 2455.89,-89.1891 2427.91,-79.049"/>
<polygon fill="midnightblue" stroke="midnightblue" points="2428.76,-75.6332 2418.16,-75.5164 2426.37,-82.2144 2428.76,-75.6332"/>
</g>
<!-- Node37&#45;&gt;Node39 -->
<g id="edge42" class="edge"><title>Node37&#45;&gt;Node39</title>
<path fill="none" stroke="midnightblue" d="M2598.24,-112.461C2622.16,-106.113 2648.8,-95.0933 2666.66,-76 2678.33,-63.5363 2682.87,-44.3029 2684.62,-29.9874"/>
<polygon fill="midnightblue" stroke="midnightblue" points="2688.13,-30.0497 2685.51,-19.7843 2681.16,-29.4438 2688.13,-30.0497"/>
</g>
<!-- Node37&#45;&gt;Node40 -->
<g id="edge50" class="edge"><title>Node37&#45;&gt;Node40</title>
<path fill="none" stroke="midnightblue" d="M2537.59,-112.396C2531.59,-103.595 2522.51,-89.3552 2516.66,-76 2510.04,-60.8529 2504.96,-42.7333 2501.73,-29.4774"/>
<polygon fill="midnightblue" stroke="midnightblue" points="2505.12,-28.6107 2499.45,-19.6585 2498.3,-30.1904 2505.12,-28.6107"/>
</g>
<!-- Node41 -->
<g id="node41" class="node"><title>Node41</title>
<g id="a_node41"><a xlink:href="_ogre_memory_s_t_l_allocator_8h.html" target="_top" xlink:title="OgreMemorySTLAllocator.h">
<polygon fill="none" stroke="black" points="2714.16,-56.5 2714.16,-75.5 2851.16,-75.5 2851.16,-56.5 2714.16,-56.5"/>
<text text-anchor="middle" x="2782.66" y="-63.5" font-family="Helvetica,sans-Serif" font-size="10.00">OgreMemorySTLAllocator.h</text>
</a>
</g>
</g>
<!-- Node37&#45;&gt;Node41 -->
<g id="edge43" class="edge"><title>Node37&#45;&gt;Node41</title>
<path fill="none" stroke="midnightblue" d="M2581.53,-112.444C2623.14,-103.043 2690.03,-87.9291 2735.13,-77.7393"/>
<polygon fill="midnightblue" stroke="midnightblue" points="2735.99,-81.1343 2744.97,-75.5164 2734.45,-74.3064 2735.99,-81.1343"/>
</g>
<!-- Node42 -->
<g id="node42" class="node"><title>Node42</title>
<g id="a_node42"><a xlink:href="_ogre_memory_ned_pooling_8h.html" target="_top" xlink:title="OgreMemoryNedPooling.h">
<polygon fill="none" stroke="black" points="2526.16,-56.5 2526.16,-75.5 2657.16,-75.5 2657.16,-56.5 2526.16,-56.5"/>
<text text-anchor="middle" x="2591.66" y="-63.5" font-family="Helvetica,sans-Serif" font-size="10.00">OgreMemoryNedPooling.h</text>
</a>
</g>
</g>
<!-- Node37&#45;&gt;Node42 -->
<g id="edge47" class="edge"><title>Node37&#45;&gt;Node42</title>
<path fill="none" stroke="midnightblue" d="M2551.59,-112.083C2558.51,-104.298 2568.73,-92.8015 2577.12,-83.3665"/>
<polygon fill="midnightblue" stroke="midnightblue" points="2579.86,-85.5505 2583.89,-75.7511 2574.63,-80.8999 2579.86,-85.5505"/>
</g>
<!-- Node38&#45;&gt;Node2 -->
<g id="edge39" class="edge"><title>Node38&#45;&gt;Node2</title>
<path fill="none" stroke="midnightblue" d="M2391.7,-75.5914C2385.55,-93.3881 2371.3,-134.625 2363,-158.674"/>
<polygon fill="midnightblue" stroke="midnightblue" points="2359.6,-157.774 2359.65,-168.368 2366.22,-160.059 2359.6,-157.774"/>
</g>
<!-- Node38&#45;&gt;Node39 -->
<g id="edge40" class="edge"><title>Node38&#45;&gt;Node39</title>
<path fill="none" stroke="midnightblue" d="M2440.77,-56.4435C2492.07,-46.9246 2574.94,-31.5472 2629.86,-21.3563"/>
<polygon fill="midnightblue" stroke="midnightblue" points="2630.58,-24.7823 2639.77,-19.5164 2629.3,-17.8998 2630.58,-24.7823"/>
</g>
<!-- Node38&#45;&gt;Node40 -->
<g id="edge41" class="edge"><title>Node38&#45;&gt;Node40</title>
<path fill="none" stroke="midnightblue" d="M2411.21,-56.324C2427.66,-47.7034 2453.1,-34.3643 2472.13,-24.3855"/>
<polygon fill="midnightblue" stroke="midnightblue" points="2473.93,-27.3977 2481.16,-19.6545 2470.67,-21.198 2473.93,-27.3977"/>
</g>
<!-- Node41&#45;&gt;Node2 -->
<g id="edge44" class="edge"><title>Node41&#45;&gt;Node2</title>
<path fill="none" stroke="midnightblue" d="M2765.82,-75.5395C2737.7,-89.4401 2679.11,-116.92 2626.66,-132 2556.58,-152.15 2473.51,-164.312 2418.19,-170.822"/>
<polygon fill="midnightblue" stroke="midnightblue" points="2417.73,-167.352 2408.2,-171.973 2418.53,-174.306 2417.73,-167.352"/>
</g>
<!-- Node41&#45;&gt;Node39 -->
<g id="edge45" class="edge"><title>Node41&#45;&gt;Node39</title>
<path fill="none" stroke="midnightblue" d="M2767.08,-56.324C2751.67,-47.7428 2727.85,-34.486 2709.95,-24.5224"/>
<polygon fill="midnightblue" stroke="midnightblue" points="2711.65,-21.4606 2701.21,-19.6545 2708.25,-27.5767 2711.65,-21.4606"/>
</g>
<!-- Node41&#45;&gt;Node40 -->
<g id="edge46" class="edge"><title>Node41&#45;&gt;Node40</title>
<path fill="none" stroke="midnightblue" d="M2737.51,-56.4435C2687.37,-46.9444 2606.44,-31.611 2552.66,-21.4198"/>
<polygon fill="midnightblue" stroke="midnightblue" points="2553.09,-17.9393 2542.61,-19.5164 2551.79,-24.8169 2553.09,-17.9393"/>
</g>
<!-- Node42&#45;&gt;Node39 -->
<g id="edge48" class="edge"><title>Node42&#45;&gt;Node39</title>
<path fill="none" stroke="midnightblue" d="M2606.77,-56.324C2621.57,-47.8215 2644.36,-34.7288 2661.65,-24.7975"/>
<polygon fill="midnightblue" stroke="midnightblue" points="2663.67,-27.6707 2670.6,-19.6545 2660.18,-21.6009 2663.67,-27.6707"/>
</g>
<!-- Node42&#45;&gt;Node40 -->
<g id="edge49" class="edge"><title>Node42&#45;&gt;Node40</title>
<path fill="none" stroke="midnightblue" d="M2576.56,-56.324C2561.76,-47.8215 2538.97,-34.7288 2521.68,-24.7975"/>
<polygon fill="midnightblue" stroke="midnightblue" points="2523.14,-21.6009 2512.73,-19.6545 2519.66,-27.6707 2523.14,-21.6009"/>
</g>
</g>
</svg>
