<?xml version="1.0" encoding="UTF-8" standalone="no"?>
<!DOCTYPE svg PUBLIC "-//W3C//DTD SVG 1.1//EN"
 "http://www.w3.org/Graphics/SVG/1.1/DTD/svg11.dtd">
<!-- Generated by graphviz version 2.38.0 (20140413.2041)
 -->
<!-- Title: OgreGLSLESPreprocessor.h Pages: 1 -->
<svg width="150pt" height="84pt"
 viewBox="0.00 0.00 150.00 84.00" xmlns="http://www.w3.org/2000/svg" xmlns:xlink="http://www.w3.org/1999/xlink">
<g id="graph0" class="graph" transform="scale(1 1) rotate(0) translate(4 80)">
<title>OgreGLSLESPreprocessor.h</title>
<!-- Node1 -->
<g id="node1" class="node"><title>Node1</title>
<polygon fill="#bfbfbf" stroke="black" points="0,-56.5 0,-75.5 142,-75.5 142,-56.5 0,-56.5"/>
<text text-anchor="middle" x="71" y="-63.5" font-family="Helvetica,sans-Serif" font-size="10.00">OgreGLSLESPreprocessor.h</text>
</g>
<!-- Node2 -->
<g id="node2" class="node"><title>Node2</title>
<polygon fill="none" stroke="#bfbfbf" points="13.5,-0.5 13.5,-19.5 62.5,-19.5 62.5,-0.5 13.5,-0.5"/>
<text text-anchor="middle" x="38" y="-7.5" font-family="Helvetica,sans-Serif" font-size="10.00">string.h</text>
</g>
<!-- Node1&#45;&gt;Node2 -->
<g id="edge1" class="edge"><title>Node1&#45;&gt;Node2</title>
<path fill="none" stroke="midnightblue" d="M65.5507,-56.083C60.9855,-48.6127 54.3316,-37.7244 48.7066,-28.5199"/>
<polygon fill="midnightblue" stroke="midnightblue" points="51.5489,-26.4588 43.3479,-19.7511 45.5759,-30.109 51.5489,-26.4588"/>
</g>
<!-- Node3 -->
<g id="node3" class="node"><title>Node3</title>
<polygon fill="none" stroke="#bfbfbf" points="81,-0.5 81,-19.5 129,-19.5 129,-0.5 81,-0.5"/>
<text text-anchor="middle" x="105" y="-7.5" font-family="Helvetica,sans-Serif" font-size="10.00">stdlib.h</text>
</g>
<!-- Node1&#45;&gt;Node3 -->
<g id="edge2" class="edge"><title>Node1&#45;&gt;Node3</title>
<path fill="none" stroke="midnightblue" d="M76.6144,-56.083C81.3674,-48.5341 88.3181,-37.4948 94.1516,-28.2298"/>
<polygon fill="midnightblue" stroke="midnightblue" points="97.1237,-30.0783 99.4901,-19.7511 91.2001,-26.3486 97.1237,-30.0783"/>
</g>
</g>
</svg>
