<?xml version="1.0" encoding="UTF-8" standalone="no"?>
<!DOCTYPE svg PUBLIC "-//W3C//DTD SVG 1.1//EN"
 "http://www.w3.org/Graphics/SVG/1.1/DTD/svg11.dtd">
<!-- Generated by graphviz version 2.38.0 (20140413.2041)
 -->
<!-- Title: OgreD3D11StereoDriverNVIDIA.h Pages: 1 -->
<svg width="2050pt" height="476pt"
 viewBox="0.00 0.00 2049.50 476.00" xmlns="http://www.w3.org/2000/svg" xmlns:xlink="http://www.w3.org/1999/xlink">
<g id="graph0" class="graph" transform="scale(1 1) rotate(0) translate(4 472)">
<title>OgreD3D11StereoDriverNVIDIA.h</title>
<!-- Node1 -->
<g id="node1" class="node"><title>Node1</title>
<polygon fill="#bfbfbf" stroke="black" points="1262,-448.5 1262,-467.5 1428,-467.5 1428,-448.5 1262,-448.5"/>
<text text-anchor="middle" x="1345" y="-455.5" font-family="Helvetica,sans-Serif" font-size="10.00">OgreD3D11StereoDriverNVIDIA.h</text>
</g>
<!-- Node2 -->
<g id="node2" class="node"><title>Node2</title>
<g id="a_node2"><a xlink:href="_ogre_d3_d11_prerequisites_8h.html" target="_top" xlink:title="OgreD3D11Prerequisites.h">
<polygon fill="none" stroke="black" points="1310,-224.5 1310,-243.5 1444,-243.5 1444,-224.5 1310,-224.5"/>
<text text-anchor="middle" x="1377" y="-231.5" font-family="Helvetica,sans-Serif" font-size="10.00">OgreD3D11Prerequisites.h</text>
</a>
</g>
</g>
<!-- Node1&#45;&gt;Node2 -->
<g id="edge1" class="edge"><title>Node1&#45;&gt;Node2</title>
<path fill="none" stroke="midnightblue" d="M1324.82,-448.432C1285.51,-430.414 1204.74,-386.103 1231,-336 1254.48,-291.211 1307.83,-262.346 1343.13,-247.391"/>
<polygon fill="midnightblue" stroke="midnightblue" points="1344.62,-250.559 1352.56,-243.54 1341.98,-244.078 1344.62,-250.559"/>
</g>
<!-- Node42 -->
<g id="node42" class="node"><title>Node42</title>
<g id="a_node42"><a xlink:href="_ogre_d3_d11_stereo_driver_impl_8h.html" target="_top" xlink:title="OgreD3D11StereoDriverImpl.h">
<polygon fill="none" stroke="black" points="1322,-392.5 1322,-411.5 1472,-411.5 1472,-392.5 1322,-392.5"/>
<text text-anchor="middle" x="1397" y="-399.5" font-family="Helvetica,sans-Serif" font-size="10.00">OgreD3D11StereoDriverImpl.h</text>
</a>
</g>
</g>
<!-- Node1&#45;&gt;Node42 -->
<g id="edge43" class="edge"><title>Node1&#45;&gt;Node42</title>
<path fill="none" stroke="midnightblue" d="M1353.59,-448.083C1361.16,-440.22 1372.38,-428.569 1381.51,-419.081"/>
<polygon fill="midnightblue" stroke="midnightblue" points="1384.16,-421.382 1388.57,-411.751 1379.12,-416.527 1384.16,-421.382"/>
</g>
<!-- Node49 -->
<g id="node49" class="node"><title>Node49</title>
<g id="a_node49"><a xlink:href="_ogre_d3_d11_device_8h.html" target="_top" xlink:title="OgreD3D11Device.h">
<polygon fill="none" stroke="black" points="1240.5,-336.5 1240.5,-355.5 1347.5,-355.5 1347.5,-336.5 1240.5,-336.5"/>
<text text-anchor="middle" x="1294" y="-343.5" font-family="Helvetica,sans-Serif" font-size="10.00">OgreD3D11Device.h</text>
</a>
</g>
</g>
<!-- Node1&#45;&gt;Node49 -->
<g id="edge56" class="edge"><title>Node1&#45;&gt;Node49</title>
<path fill="none" stroke="midnightblue" d="M1337.43,-448.258C1330.25,-439.577 1319.61,-425.63 1313,-412 1305.79,-397.122 1300.77,-378.976 1297.71,-365.641"/>
<polygon fill="midnightblue" stroke="midnightblue" points="1301.1,-364.796 1295.59,-355.749 1294.26,-366.26 1301.1,-364.796"/>
</g>
<!-- Node50 -->
<g id="node50" class="node"><title>Node50</title>
<polygon fill="none" stroke="#bfbfbf" points="1490,-392.5 1490,-411.5 1538,-411.5 1538,-392.5 1490,-392.5"/>
<text text-anchor="middle" x="1514" y="-399.5" font-family="Helvetica,sans-Serif" font-size="10.00">nvapi.h</text>
</g>
<!-- Node1&#45;&gt;Node50 -->
<g id="edge58" class="edge"><title>Node1&#45;&gt;Node50</title>
<path fill="none" stroke="midnightblue" d="M1371.78,-448.444C1401.09,-439.078 1448.15,-424.042 1480.03,-413.853"/>
<polygon fill="midnightblue" stroke="midnightblue" points="1481.35,-417.107 1489.81,-410.729 1479.22,-410.439 1481.35,-417.107"/>
</g>
<!-- Node3 -->
<g id="node3" class="node"><title>Node3</title>
<g id="a_node3"><a xlink:href="_ogre_prerequisites_8h.html" target="_top" xlink:title="OgrePrerequisites.h">
<polygon fill="none" stroke="black" points="1638.5,-112.5 1638.5,-131.5 1741.5,-131.5 1741.5,-112.5 1638.5,-112.5"/>
<text text-anchor="middle" x="1690" y="-119.5" font-family="Helvetica,sans-Serif" font-size="10.00">OgrePrerequisites.h</text>
</a>
</g>
</g>
<!-- Node2&#45;&gt;Node3 -->
<g id="edge2" class="edge"><title>Node2&#45;&gt;Node3</title>
<path fill="none" stroke="midnightblue" d="M1444.07,-230.916C1520.21,-227.178 1638.12,-216.785 1671,-188 1684.11,-176.521 1688.41,-156.545 1689.7,-141.759"/>
<polygon fill="midnightblue" stroke="midnightblue" points="1693.2,-141.853 1690.21,-131.691 1686.21,-141.504 1693.2,-141.853"/>
</g>
<!-- Node36 -->
<g id="node36" class="node"><title>Node36</title>
<g id="a_node36"><a xlink:href="_ogre_min_g_w_support_8h.html" target="_top" xlink:title="WIN32/OgreMinGWSupport.h">
<polygon fill="none" stroke="black" points="1436,-168.5 1436,-187.5 1582,-187.5 1582,-168.5 1436,-168.5"/>
<text text-anchor="middle" x="1509" y="-175.5" font-family="Helvetica,sans-Serif" font-size="10.00">WIN32/OgreMinGWSupport.h</text>
</a>
</g>
</g>
<!-- Node2&#45;&gt;Node36 -->
<g id="edge36" class="edge"><title>Node2&#45;&gt;Node36</title>
<path fill="none" stroke="midnightblue" d="M1397.92,-224.444C1419.74,-215.517 1454.15,-201.439 1478.89,-191.317"/>
<polygon fill="midnightblue" stroke="midnightblue" points="1480.25,-194.542 1488.18,-187.516 1477.6,-188.063 1480.25,-194.542"/>
</g>
<!-- Node37 -->
<g id="node37" class="node"><title>Node37</title>
<g id="a_node37"><a xlink:href="_ogre_com_ptr_8h.html" target="_top" xlink:title="WIN32/OgreComPtr.h">
<polygon fill="none" stroke="black" points="1106.5,-168.5 1106.5,-187.5 1219.5,-187.5 1219.5,-168.5 1106.5,-168.5"/>
<text text-anchor="middle" x="1163" y="-175.5" font-family="Helvetica,sans-Serif" font-size="10.00">WIN32/OgreComPtr.h</text>
</a>
</g>
</g>
<!-- Node2&#45;&gt;Node37 -->
<g id="edge37" class="edge"><title>Node2&#45;&gt;Node37</title>
<path fill="none" stroke="midnightblue" d="M1343.09,-224.444C1306.15,-215.122 1246.95,-200.183 1206.58,-189.997"/>
<polygon fill="midnightblue" stroke="midnightblue" points="1207.3,-186.57 1196.75,-187.516 1205.59,-193.357 1207.3,-186.57"/>
</g>
<!-- Node39 -->
<g id="node39" class="node"><title>Node39</title>
<polygon fill="none" stroke="#bfbfbf" points="1600,-168.5 1600,-187.5 1662,-187.5 1662,-168.5 1600,-168.5"/>
<text text-anchor="middle" x="1631" y="-175.5" font-family="Helvetica,sans-Serif" font-size="10.00">d3d11_1.h</text>
</g>
<!-- Node2&#45;&gt;Node39 -->
<g id="edge40" class="edge"><title>Node2&#45;&gt;Node39</title>
<path fill="none" stroke="midnightblue" d="M1418.46,-224.461C1459.49,-215.971 1524.37,-202.441 1589.53,-188.299"/>
<polygon fill="midnightblue" stroke="midnightblue" points="1590.54,-191.661 1599.57,-186.116 1589.05,-184.821 1590.54,-191.661"/>
</g>
<!-- Node40 -->
<g id="node40" class="node"><title>Node40</title>
<polygon fill="none" stroke="#bfbfbf" points="1238,-168.5 1238,-187.5 1318,-187.5 1318,-168.5 1238,-168.5"/>
<text text-anchor="middle" x="1278" y="-175.5" font-family="Helvetica,sans-Serif" font-size="10.00">d3d11shader.h</text>
</g>
<!-- Node2&#45;&gt;Node40 -->
<g id="edge41" class="edge"><title>Node2&#45;&gt;Node40</title>
<path fill="none" stroke="midnightblue" d="M1361.09,-224.324C1345.36,-215.743 1321.06,-202.486 1302.79,-192.522"/>
<polygon fill="midnightblue" stroke="midnightblue" points="1304.32,-189.37 1293.87,-187.655 1300.97,-195.516 1304.32,-189.37"/>
</g>
<!-- Node41 -->
<g id="node41" class="node"><title>Node41</title>
<polygon fill="none" stroke="#bfbfbf" points="1336,-168.5 1336,-187.5 1418,-187.5 1418,-168.5 1336,-168.5"/>
<text text-anchor="middle" x="1377" y="-175.5" font-family="Helvetica,sans-Serif" font-size="10.00">D3Dcompiler.h</text>
</g>
<!-- Node2&#45;&gt;Node41 -->
<g id="edge42" class="edge"><title>Node2&#45;&gt;Node41</title>
<path fill="none" stroke="midnightblue" d="M1377,-224.083C1377,-217.006 1377,-206.861 1377,-197.986"/>
<polygon fill="midnightblue" stroke="midnightblue" points="1380.5,-197.751 1377,-187.751 1373.5,-197.751 1380.5,-197.751"/>
</g>
<!-- Node4 -->
<g id="node4" class="node"><title>Node4</title>
<g id="a_node4"><a xlink:href="_ogre_platform_8h.html" target="_top" xlink:title="OgrePlatform.h">
<polygon fill="none" stroke="black" points="1958.5,-56.5 1958.5,-75.5 2041.5,-75.5 2041.5,-56.5 1958.5,-56.5"/>
<text text-anchor="middle" x="2000" y="-63.5" font-family="Helvetica,sans-Serif" font-size="10.00">OgrePlatform.h</text>
</a>
</g>
</g>
<!-- Node3&#45;&gt;Node4 -->
<g id="edge3" class="edge"><title>Node3&#45;&gt;Node4</title>
<path fill="none" stroke="midnightblue" d="M1739.18,-112.496C1789.14,-103.846 1869.06,-89.9869 1948.12,-76.1511"/>
<polygon fill="midnightblue" stroke="midnightblue" points="1949.01,-79.5486 1958.25,-74.3764 1947.8,-72.6534 1949.01,-79.5486"/>
</g>
<!-- Node6 -->
<g id="node6" class="node"><title>Node6</title>
<polygon fill="none" stroke="#bfbfbf" points="1643.5,-0.5 1643.5,-19.5 1684.5,-19.5 1684.5,-0.5 1643.5,-0.5"/>
<text text-anchor="middle" x="1664" y="-7.5" font-family="Helvetica,sans-Serif" font-size="10.00">string</text>
</g>
<!-- Node3&#45;&gt;Node6 -->
<g id="edge5" class="edge"><title>Node3&#45;&gt;Node6</title>
<path fill="none" stroke="midnightblue" d="M1687.86,-112.381C1685.62,-103.329 1682.01,-88.676 1679,-76 1675.31,-60.4876 1671.25,-42.8612 1668.29,-29.8809"/>
<polygon fill="midnightblue" stroke="midnightblue" points="1671.64,-28.8126 1666,-19.8398 1664.81,-30.3675 1671.64,-28.8126"/>
</g>
<!-- Node7 -->
<g id="node7" class="node"><title>Node7</title>
<g id="a_node7"><a xlink:href="_ogre_std_headers_8h.html" target="_top" xlink:title="OgreStdHeaders.h">
<polygon fill="none" stroke="red" points="773,-56.5 773,-75.5 871,-75.5 871,-56.5 773,-56.5"/>
<text text-anchor="middle" x="822" y="-63.5" font-family="Helvetica,sans-Serif" font-size="10.00">OgreStdHeaders.h</text>
</a>
</g>
</g>
<!-- Node3&#45;&gt;Node7 -->
<g id="edge6" class="edge"><title>Node3&#45;&gt;Node7</title>
<path fill="none" stroke="midnightblue" d="M1638.3,-117.784C1486.52,-108.341 1042.76,-80.7339 881.472,-70.6999"/>
<polygon fill="midnightblue" stroke="midnightblue" points="881.461,-67.1925 871.263,-70.0647 881.026,-74.179 881.461,-67.1925"/>
</g>
<!-- Node33 -->
<g id="node33" class="node"><title>Node33</title>
<g id="a_node33"><a xlink:href="_ogre_memory_allocator_config_8h.html" target="_top" xlink:title="This file configures Ogre&#39;s memory allocators. ">
<polygon fill="none" stroke="red" points="1688,-56.5 1688,-75.5 1836,-75.5 1836,-56.5 1688,-56.5"/>
<text text-anchor="middle" x="1762" y="-63.5" font-family="Helvetica,sans-Serif" font-size="10.00">OgreMemoryAllocatorConfig.h</text>
</a>
</g>
</g>
<!-- Node3&#45;&gt;Node33 -->
<g id="edge33" class="edge"><title>Node3&#45;&gt;Node33</title>
<path fill="none" stroke="midnightblue" d="M1701.57,-112.324C1712.42,-104.185 1728.88,-91.8395 1741.88,-82.0874"/>
<polygon fill="midnightblue" stroke="midnightblue" points="1744.32,-84.6339 1750.22,-75.8339 1740.12,-79.0339 1744.32,-84.6339"/>
</g>
<!-- Node5 -->
<g id="node5" class="node"><title>Node5</title>
<g id="a_node5"><a xlink:href="_ogre_config_8h.html" target="_top" xlink:title="OgreConfig.h">
<polygon fill="none" stroke="red" points="1963,-0.5 1963,-19.5 2037,-19.5 2037,-0.5 1963,-0.5"/>
<text text-anchor="middle" x="2000" y="-7.5" font-family="Helvetica,sans-Serif" font-size="10.00">OgreConfig.h</text>
</a>
</g>
</g>
<!-- Node4&#45;&gt;Node5 -->
<g id="edge4" class="edge"><title>Node4&#45;&gt;Node5</title>
<path fill="none" stroke="midnightblue" d="M2000,-56.083C2000,-49.0059 2000,-38.8611 2000,-29.9865"/>
<polygon fill="midnightblue" stroke="midnightblue" points="2003.5,-29.751 2000,-19.7511 1996.5,-29.7511 2003.5,-29.751"/>
</g>
<!-- Node7&#45;&gt;Node6 -->
<g id="edge16" class="edge"><title>Node7&#45;&gt;Node6</title>
<path fill="none" stroke="midnightblue" d="M871.031,-63.7997C1020.08,-59.9167 1467.21,-46.4807 1633.43,-19.5558"/>
<polygon fill="midnightblue" stroke="midnightblue" points="1634.22,-22.9714 1643.5,-17.8468 1633.05,-16.0701 1634.22,-22.9714"/>
</g>
<!-- Node8 -->
<g id="node8" class="node"><title>Node8</title>
<polygon fill="none" stroke="#bfbfbf" points="1393.5,-0.5 1393.5,-19.5 1442.5,-19.5 1442.5,-0.5 1393.5,-0.5"/>
<text text-anchor="middle" x="1418" y="-7.5" font-family="Helvetica,sans-Serif" font-size="10.00">cassert</text>
</g>
<!-- Node7&#45;&gt;Node8 -->
<g id="edge7" class="edge"><title>Node7&#45;&gt;Node8</title>
<path fill="none" stroke="midnightblue" d="M871.229,-64.0116C967.748,-61.4362 1188.62,-52.4005 1383.11,-19.8252"/>
<polygon fill="midnightblue" stroke="midnightblue" points="1383.96,-23.2314 1393.23,-18.1047 1382.79,-16.3304 1383.96,-23.2314"/>
</g>
<!-- Node9 -->
<g id="node9" class="node"><title>Node9</title>
<polygon fill="none" stroke="#bfbfbf" points="1460.5,-0.5 1460.5,-19.5 1503.5,-19.5 1503.5,-0.5 1460.5,-0.5"/>
<text text-anchor="middle" x="1482" y="-7.5" font-family="Helvetica,sans-Serif" font-size="10.00">cstdio</text>
</g>
<!-- Node7&#45;&gt;Node9 -->
<g id="edge8" class="edge"><title>Node7&#45;&gt;Node9</title>
<path fill="none" stroke="midnightblue" d="M871.371,-64.9943C976.424,-64.225 1229.79,-58.3477 1450.31,-19.6904"/>
<polygon fill="midnightblue" stroke="midnightblue" points="1451.23,-23.0832 1460.46,-17.8847 1450,-16.1915 1451.23,-23.0832"/>
</g>
<!-- Node10 -->
<g id="node10" class="node"><title>Node10</title>
<polygon fill="none" stroke="#bfbfbf" points="1521.5,-0.5 1521.5,-19.5 1566.5,-19.5 1566.5,-0.5 1521.5,-0.5"/>
<text text-anchor="middle" x="1544" y="-7.5" font-family="Helvetica,sans-Serif" font-size="10.00">cstdlib</text>
</g>
<!-- Node7&#45;&gt;Node10 -->
<g id="edge9" class="edge"><title>Node7&#45;&gt;Node10</title>
<path fill="none" stroke="midnightblue" d="M871.353,-65.3021C983.608,-65.2356 1266.59,-60.8112 1511.26,-19.715"/>
<polygon fill="midnightblue" stroke="midnightblue" points="1512.14,-23.1152 1521.41,-17.9848 1510.96,-16.2147 1512.14,-23.1152"/>
</g>
<!-- Node11 -->
<g id="node11" class="node"><title>Node11</title>
<polygon fill="none" stroke="#bfbfbf" points="1584.5,-0.5 1584.5,-19.5 1625.5,-19.5 1625.5,-0.5 1584.5,-0.5"/>
<text text-anchor="middle" x="1605" y="-7.5" font-family="Helvetica,sans-Serif" font-size="10.00">ctime</text>
</g>
<!-- Node7&#45;&gt;Node11 -->
<g id="edge10" class="edge"><title>Node7&#45;&gt;Node11</title>
<path fill="none" stroke="midnightblue" d="M871.011,-63.5546C1012.38,-59.1557 1420.08,-44.7987 1574.27,-19.5897"/>
<polygon fill="midnightblue" stroke="midnightblue" points="1575.23,-22.9766 1584.49,-17.8348 1574.05,-16.0775 1575.23,-22.9766"/>
</g>
<!-- Node12 -->
<g id="node12" class="node"><title>Node12</title>
<polygon fill="none" stroke="#bfbfbf" points="0,-0.5 0,-19.5 46,-19.5 46,-0.5 0,-0.5"/>
<text text-anchor="middle" x="23" y="-7.5" font-family="Helvetica,sans-Serif" font-size="10.00">cstring</text>
</g>
<!-- Node7&#45;&gt;Node12 -->
<g id="edge11" class="edge"><title>Node7&#45;&gt;Node12</title>
<path fill="none" stroke="midnightblue" d="M772.685,-65.7667C651.763,-66.8658 330.985,-65.0569 56.4434,-19.8709"/>
<polygon fill="midnightblue" stroke="midnightblue" points="56.7265,-16.3699 46.2868,-18.1758 55.5741,-23.2744 56.7265,-16.3699"/>
</g>
<!-- Node13 -->
<g id="node13" class="node"><title>Node13</title>
<polygon fill="none" stroke="#bfbfbf" points="64.5,-0.5 64.5,-19.5 113.5,-19.5 113.5,-0.5 64.5,-0.5"/>
<text text-anchor="middle" x="89" y="-7.5" font-family="Helvetica,sans-Serif" font-size="10.00">cstdarg</text>
</g>
<!-- Node7&#45;&gt;Node13 -->
<g id="edge12" class="edge"><title>Node7&#45;&gt;Node13</title>
<path fill="none" stroke="midnightblue" d="M772.905,-65.1064C659.813,-64.6518 372.259,-59.4982 123.703,-19.7615"/>
<polygon fill="midnightblue" stroke="midnightblue" points="124.193,-16.2954 113.762,-18.1503 123.073,-23.2053 124.193,-16.2954"/>
</g>
<!-- Node14 -->
<g id="node14" class="node"><title>Node14</title>
<polygon fill="none" stroke="#bfbfbf" points="132,-0.5 132,-19.5 176,-19.5 176,-0.5 132,-0.5"/>
<text text-anchor="middle" x="154" y="-7.5" font-family="Helvetica,sans-Serif" font-size="10.00">cmath</text>
</g>
<!-- Node7&#45;&gt;Node14 -->
<g id="edge13" class="edge"><title>Node7&#45;&gt;Node14</title>
<path fill="none" stroke="midnightblue" d="M772.817,-65.0587C666.881,-64.4269 409.339,-58.8175 186.148,-19.8232"/>
<polygon fill="midnightblue" stroke="midnightblue" points="186.675,-16.3621 176.217,-18.0618 185.452,-23.2545 186.675,-16.3621"/>
</g>
<!-- Node15 -->
<g id="node15" class="node"><title>Node15</title>
<polygon fill="none" stroke="#bfbfbf" points="194,-0.5 194,-19.5 238,-19.5 238,-0.5 194,-0.5"/>
<text text-anchor="middle" x="216" y="-7.5" font-family="Helvetica,sans-Serif" font-size="10.00">vector</text>
</g>
<!-- Node7&#45;&gt;Node15 -->
<g id="edge14" class="edge"><title>Node7&#45;&gt;Node15</title>
<path fill="none" stroke="midnightblue" d="M772.721,-64.5242C674.424,-62.847 447.051,-55.3205 248.263,-19.861"/>
<polygon fill="midnightblue" stroke="midnightblue" points="248.685,-16.3804 238.221,-18.0412 247.437,-23.2683 248.685,-16.3804"/>
</g>
<!-- Node16 -->
<g id="node16" class="node"><title>Node16</title>
<polygon fill="none" stroke="#bfbfbf" points="256.5,-0.5 256.5,-19.5 291.5,-19.5 291.5,-0.5 256.5,-0.5"/>
<text text-anchor="middle" x="274" y="-7.5" font-family="Helvetica,sans-Serif" font-size="10.00">map</text>
</g>
<!-- Node7&#45;&gt;Node16 -->
<g id="edge15" class="edge"><title>Node7&#45;&gt;Node16</title>
<path fill="none" stroke="midnightblue" d="M772.963,-64.5949C681.634,-63.0145 479.402,-55.6258 301.358,-19.5343"/>
<polygon fill="midnightblue" stroke="midnightblue" points="302.056,-16.1049 291.556,-17.5129 300.642,-22.9606 302.056,-16.1049"/>
</g>
<!-- Node17 -->
<g id="node17" class="node"><title>Node17</title>
<polygon fill="none" stroke="#bfbfbf" points="310,-0.5 310,-19.5 340,-19.5 340,-0.5 310,-0.5"/>
<text text-anchor="middle" x="325" y="-7.5" font-family="Helvetica,sans-Serif" font-size="10.00">set</text>
</g>
<!-- Node7&#45;&gt;Node17 -->
<g id="edge17" class="edge"><title>Node7&#45;&gt;Node17</title>
<path fill="none" stroke="midnightblue" d="M772.978,-64.5705C688.106,-62.9132 508.474,-55.3765 349.976,-19.615"/>
<polygon fill="midnightblue" stroke="midnightblue" points="350.579,-16.1624 340.049,-17.3314 349.01,-22.9842 350.579,-16.1624"/>
</g>
<!-- Node18 -->
<g id="node18" class="node"><title>Node18</title>
<polygon fill="none" stroke="#bfbfbf" points="358.5,-0.5 358.5,-19.5 387.5,-19.5 387.5,-0.5 358.5,-0.5"/>
<text text-anchor="middle" x="373" y="-7.5" font-family="Helvetica,sans-Serif" font-size="10.00">list</text>
</g>
<!-- Node7&#45;&gt;Node18 -->
<g id="edge18" class="edge"><title>Node7&#45;&gt;Node18</title>
<path fill="none" stroke="midnightblue" d="M772.718,-64.0553C694.493,-61.6336 537.262,-53.0037 397.908,-19.9214"/>
<polygon fill="midnightblue" stroke="midnightblue" points="398.45,-16.4514 387.907,-17.4969 396.801,-23.2544 398.45,-16.4514"/>
</g>
<!-- Node19 -->
<g id="node19" class="node"><title>Node19</title>
<polygon fill="none" stroke="#bfbfbf" points="405.5,-0.5 405.5,-19.5 448.5,-19.5 448.5,-0.5 405.5,-0.5"/>
<text text-anchor="middle" x="427" y="-7.5" font-family="Helvetica,sans-Serif" font-size="10.00">deque</text>
</g>
<!-- Node7&#45;&gt;Node19 -->
<g id="edge19" class="edge"><title>Node7&#45;&gt;Node19</title>
<path fill="none" stroke="midnightblue" d="M772.861,-61.5897C704.287,-56.2499 575.953,-44.1489 458.404,-19.9952"/>
<polygon fill="midnightblue" stroke="midnightblue" points="459.022,-16.5488 448.518,-17.9294 457.591,-23.4008 459.022,-16.5488"/>
</g>
<!-- Node20 -->
<g id="node20" class="node"><title>Node20</title>
<polygon fill="none" stroke="#bfbfbf" points="466.5,-0.5 466.5,-19.5 509.5,-19.5 509.5,-0.5 466.5,-0.5"/>
<text text-anchor="middle" x="488" y="-7.5" font-family="Helvetica,sans-Serif" font-size="10.00">queue</text>
</g>
<!-- Node7&#45;&gt;Node20 -->
<g id="edge20" class="edge"><title>Node7&#45;&gt;Node20</title>
<path fill="none" stroke="midnightblue" d="M772.899,-59.9434C714.531,-53.4435 614.082,-40.7187 519.544,-20.0858"/>
<polygon fill="midnightblue" stroke="midnightblue" points="520.052,-16.6135 509.532,-17.8655 518.537,-23.4475 520.052,-16.6135"/>
</g>
<!-- Node21 -->
<g id="node21" class="node"><title>Node21</title>
<polygon fill="none" stroke="#bfbfbf" points="527.5,-0.5 527.5,-19.5 568.5,-19.5 568.5,-0.5 527.5,-0.5"/>
<text text-anchor="middle" x="548" y="-7.5" font-family="Helvetica,sans-Serif" font-size="10.00">bitset</text>
</g>
<!-- Node7&#45;&gt;Node21 -->
<g id="edge21" class="edge"><title>Node7&#45;&gt;Node21</title>
<path fill="none" stroke="midnightblue" d="M772.596,-57.512C725.196,-49.9645 651.46,-37.2754 578.409,-19.8681"/>
<polygon fill="midnightblue" stroke="midnightblue" points="579.118,-16.4388 568.576,-17.495 577.476,-23.2435 579.118,-16.4388"/>
</g>
<!-- Node22 -->
<g id="node22" class="node"><title>Node22</title>
<polygon fill="none" stroke="#bfbfbf" points="587,-0.5 587,-19.5 643,-19.5 643,-0.5 587,-0.5"/>
<text text-anchor="middle" x="615" y="-7.5" font-family="Helvetica,sans-Serif" font-size="10.00">algorithm</text>
</g>
<!-- Node7&#45;&gt;Node22 -->
<g id="edge22" class="edge"><title>Node7&#45;&gt;Node22</title>
<path fill="none" stroke="midnightblue" d="M789.2,-56.4435C752.259,-46.8067 692.301,-31.1653 653.257,-20.98"/>
<polygon fill="midnightblue" stroke="midnightblue" points="653.882,-17.526 643.322,-18.3884 652.115,-24.2994 653.882,-17.526"/>
</g>
<!-- Node23 -->
<g id="node23" class="node"><title>Node23</title>
<polygon fill="none" stroke="#bfbfbf" points="661.5,-0.5 661.5,-19.5 720.5,-19.5 720.5,-0.5 661.5,-0.5"/>
<text text-anchor="middle" x="691" y="-7.5" font-family="Helvetica,sans-Serif" font-size="10.00">functional</text>
</g>
<!-- Node7&#45;&gt;Node23 -->
<g id="edge23" class="edge"><title>Node7&#45;&gt;Node23</title>
<path fill="none" stroke="midnightblue" d="M801.243,-56.4435C779.684,-47.5566 745.737,-33.5632 721.206,-23.4514"/>
<polygon fill="midnightblue" stroke="midnightblue" points="722.239,-20.0917 711.66,-19.5164 719.572,-26.5634 722.239,-20.0917"/>
</g>
<!-- Node24 -->
<g id="node24" class="node"><title>Node24</title>
<polygon fill="none" stroke="#bfbfbf" points="739,-0.5 739,-19.5 779,-19.5 779,-0.5 739,-0.5"/>
<text text-anchor="middle" x="759" y="-7.5" font-family="Helvetica,sans-Serif" font-size="10.00">limits</text>
</g>
<!-- Node7&#45;&gt;Node24 -->
<g id="edge24" class="edge"><title>Node7&#45;&gt;Node24</title>
<path fill="none" stroke="midnightblue" d="M811.878,-56.324C802.474,-48.2631 788.256,-36.0765 776.931,-26.3695"/>
<polygon fill="midnightblue" stroke="midnightblue" points="779.177,-23.6844 769.306,-19.8339 774.621,-28.9993 779.177,-23.6844"/>
</g>
<!-- Node25 -->
<g id="node25" class="node"><title>Node25</title>
<polygon fill="none" stroke="#bfbfbf" points="797,-0.5 797,-19.5 847,-19.5 847,-0.5 797,-0.5"/>
<text text-anchor="middle" x="822" y="-7.5" font-family="Helvetica,sans-Serif" font-size="10.00">fstream</text>
</g>
<!-- Node7&#45;&gt;Node25 -->
<g id="edge25" class="edge"><title>Node7&#45;&gt;Node25</title>
<path fill="none" stroke="midnightblue" d="M822,-56.083C822,-49.0059 822,-38.8611 822,-29.9865"/>
<polygon fill="midnightblue" stroke="midnightblue" points="825.5,-29.751 822,-19.7511 818.5,-29.7511 825.5,-29.751"/>
</g>
<!-- Node26 -->
<g id="node26" class="node"><title>Node26</title>
<polygon fill="none" stroke="#bfbfbf" points="865.5,-0.5 865.5,-19.5 910.5,-19.5 910.5,-0.5 865.5,-0.5"/>
<text text-anchor="middle" x="888" y="-7.5" font-family="Helvetica,sans-Serif" font-size="10.00">iosfwd</text>
</g>
<!-- Node7&#45;&gt;Node26 -->
<g id="edge26" class="edge"><title>Node7&#45;&gt;Node26</title>
<path fill="none" stroke="midnightblue" d="M832.604,-56.324C842.456,-48.2631 857.351,-36.0765 869.215,-26.3695"/>
<polygon fill="midnightblue" stroke="midnightblue" points="871.68,-28.8752 877.203,-19.8339 867.247,-23.4575 871.68,-28.8752"/>
</g>
<!-- Node27 -->
<g id="node27" class="node"><title>Node27</title>
<polygon fill="none" stroke="#bfbfbf" points="929,-0.5 929,-19.5 981,-19.5 981,-0.5 929,-0.5"/>
<text text-anchor="middle" x="955" y="-7.5" font-family="Helvetica,sans-Serif" font-size="10.00">sstream</text>
</g>
<!-- Node7&#45;&gt;Node27 -->
<g id="edge27" class="edge"><title>Node7&#45;&gt;Node27</title>
<path fill="none" stroke="midnightblue" d="M843.074,-56.4435C865.06,-47.5171 899.734,-33.4387 924.664,-23.3168"/>
<polygon fill="midnightblue" stroke="midnightblue" points="926.076,-26.5213 934.024,-19.5164 923.442,-20.0355 926.076,-26.5213"/>
</g>
<!-- Node28 -->
<g id="node28" class="node"><title>Node28</title>
<polygon fill="none" stroke="#bfbfbf" points="999,-0.5 999,-19.5 1067,-19.5 1067,-0.5 999,-0.5"/>
<text text-anchor="middle" x="1033" y="-7.5" font-family="Helvetica,sans-Serif" font-size="10.00">sys/types.h</text>
</g>
<!-- Node7&#45;&gt;Node28 -->
<g id="edge28" class="edge"><title>Node7&#45;&gt;Node28</title>
<path fill="none" stroke="midnightblue" d="M855.434,-56.4435C891.856,-47.1221 950.23,-32.1828 990.029,-21.9972"/>
<polygon fill="midnightblue" stroke="midnightblue" points="990.903,-25.3866 999.723,-19.5164 989.167,-18.6051 990.903,-25.3866"/>
</g>
<!-- Node29 -->
<g id="node29" class="node"><title>Node29</title>
<polygon fill="none" stroke="#bfbfbf" points="1085,-0.5 1085,-19.5 1145,-19.5 1145,-0.5 1085,-0.5"/>
<text text-anchor="middle" x="1115" y="-7.5" font-family="Helvetica,sans-Serif" font-size="10.00">sys/stat.h</text>
</g>
<!-- Node7&#45;&gt;Node29 -->
<g id="edge29" class="edge"><title>Node7&#45;&gt;Node29</title>
<path fill="none" stroke="midnightblue" d="M871.31,-57.0364C920.488,-48.9208 998.413,-35.5944 1074.98,-20.1269"/>
<polygon fill="midnightblue" stroke="midnightblue" points="1075.7,-23.5536 1084.8,-18.1308 1074.3,-16.694 1075.7,-23.5536"/>
</g>
<!-- Node30 -->
<g id="node30" class="node"><title>Node30</title>
<polygon fill="none" stroke="#bfbfbf" points="1163.5,-0.5 1163.5,-19.5 1214.5,-19.5 1214.5,-0.5 1163.5,-0.5"/>
<text text-anchor="middle" x="1189" y="-7.5" font-family="Helvetica,sans-Serif" font-size="10.00">unistd.h</text>
</g>
<!-- Node7&#45;&gt;Node30 -->
<g id="edge30" class="edge"><title>Node7&#45;&gt;Node30</title>
<path fill="none" stroke="midnightblue" d="M871.235,-60.147C934.347,-53.524 1047.29,-40.3194 1153.54,-19.8704"/>
<polygon fill="midnightblue" stroke="midnightblue" points="1154.32,-23.2835 1163.46,-17.9341 1152.98,-16.413 1154.32,-23.2835"/>
</g>
<!-- Node31 -->
<g id="node31" class="node"><title>Node31</title>
<polygon fill="none" stroke="#bfbfbf" points="1233,-0.5 1233,-19.5 1279,-19.5 1279,-0.5 1233,-0.5"/>
<text text-anchor="middle" x="1256" y="-7.5" font-family="Helvetica,sans-Serif" font-size="10.00">dlfcn.h</text>
</g>
<!-- Node7&#45;&gt;Node31 -->
<g id="edge31" class="edge"><title>Node7&#45;&gt;Node31</title>
<path fill="none" stroke="midnightblue" d="M871.131,-61.9419C945.245,-56.7914 1090.13,-44.6333 1222.74,-19.7355"/>
<polygon fill="midnightblue" stroke="midnightblue" points="1223.5,-23.153 1232.67,-17.8422 1222.19,-16.2769 1223.5,-23.153"/>
</g>
<!-- Node32 -->
<g id="node32" class="node"><title>Node32</title>
<polygon fill="none" stroke="#bfbfbf" points="1297,-0.5 1297,-19.5 1375,-19.5 1375,-0.5 1297,-0.5"/>
<text text-anchor="middle" x="1336" y="-7.5" font-family="Helvetica,sans-Serif" font-size="10.00">ext/hash_map</text>
</g>
<!-- Node7&#45;&gt;Node32 -->
<g id="edge32" class="edge"><title>Node7&#45;&gt;Node32</title>
<path fill="none" stroke="midnightblue" d="M871.147,-61.7009C954.479,-55.7913 1129,-42.0522 1286.41,-20.1103"/>
<polygon fill="midnightblue" stroke="midnightblue" points="1287.34,-23.5141 1296.75,-18.6532 1286.36,-16.5826 1287.34,-23.5141"/>
</g>
<!-- Node34 -->
<g id="node34" class="node"><title>Node34</title>
<g id="a_node34"><a xlink:href="_ogre_header_prefix_8h.html" target="_top" xlink:title="OgreHeaderPrefix.h">
<polygon fill="none" stroke="black" points="1713.5,-0.5 1713.5,-19.5 1816.5,-19.5 1816.5,-0.5 1713.5,-0.5"/>
<text text-anchor="middle" x="1765" y="-7.5" font-family="Helvetica,sans-Serif" font-size="10.00">OgreHeaderPrefix.h</text>
</a>
</g>
</g>
<!-- Node33&#45;&gt;Node34 -->
<g id="edge34" class="edge"><title>Node33&#45;&gt;Node34</title>
<path fill="none" stroke="midnightblue" d="M1762.5,-56.083C1762.89,-49.0059 1763.45,-38.8611 1763.95,-29.9865"/>
<polygon fill="midnightblue" stroke="midnightblue" points="1767.45,-29.9299 1764.51,-19.7511 1760.46,-29.5415 1767.45,-29.9299"/>
</g>
<!-- Node35 -->
<g id="node35" class="node"><title>Node35</title>
<g id="a_node35"><a xlink:href="_ogre_header_suffix_8h.html" target="_top" xlink:title="OgreHeaderSuffix.h">
<polygon fill="none" stroke="black" points="1839.5,-0.5 1839.5,-19.5 1942.5,-19.5 1942.5,-0.5 1839.5,-0.5"/>
<text text-anchor="middle" x="1891" y="-7.5" font-family="Helvetica,sans-Serif" font-size="10.00">OgreHeaderSuffix.h</text>
</a>
</g>
</g>
<!-- Node33&#45;&gt;Node35 -->
<g id="edge35" class="edge"><title>Node33&#45;&gt;Node35</title>
<path fill="none" stroke="midnightblue" d="M1782.44,-56.4435C1803.67,-47.5566 1837.1,-33.5632 1861.25,-23.4514"/>
<polygon fill="midnightblue" stroke="midnightblue" points="1862.78,-26.6064 1870.66,-19.5164 1860.08,-20.1493 1862.78,-26.6064"/>
</g>
<!-- Node37&#45;&gt;Node3 -->
<g id="edge38" class="edge"><title>Node37&#45;&gt;Node3</title>
<path fill="none" stroke="midnightblue" d="M1219.51,-169.15C1222.72,-168.749 1225.9,-168.363 1229,-168 1371.71,-151.311 1539.78,-135.997 1628.29,-128.269"/>
<polygon fill="midnightblue" stroke="midnightblue" points="1628.77,-131.741 1638.42,-127.387 1628.16,-124.767 1628.77,-131.741"/>
</g>
<!-- Node38 -->
<g id="node38" class="node"><title>Node38</title>
<polygon fill="none" stroke="#bfbfbf" points="1133.5,-112.5 1133.5,-131.5 1192.5,-131.5 1192.5,-112.5 1133.5,-112.5"/>
<text text-anchor="middle" x="1163" y="-119.5" font-family="Helvetica,sans-Serif" font-size="10.00">winerror.h</text>
</g>
<!-- Node37&#45;&gt;Node38 -->
<g id="edge39" class="edge"><title>Node37&#45;&gt;Node38</title>
<path fill="none" stroke="midnightblue" d="M1163,-168.083C1163,-161.006 1163,-150.861 1163,-141.986"/>
<polygon fill="midnightblue" stroke="midnightblue" points="1166.5,-141.751 1163,-131.751 1159.5,-141.751 1166.5,-141.751"/>
</g>
<!-- Node42&#45;&gt;Node2 -->
<g id="edge44" class="edge"><title>Node42&#45;&gt;Node2</title>
<path fill="none" stroke="midnightblue" d="M1395.67,-392.37C1393.01,-374.944 1386.96,-334.292 1383,-300 1381.21,-284.501 1379.61,-266.874 1378.51,-253.889"/>
<polygon fill="midnightblue" stroke="midnightblue" points="1382,-253.524 1377.69,-243.845 1375.02,-254.098 1382,-253.524"/>
</g>
<!-- Node43 -->
<g id="node43" class="node"><title>Node43</title>
<g id="a_node43"><a xlink:href="_ogre_common_8h.html" target="_top" xlink:title="OgreCommon.h">
<polygon fill="none" stroke="black" points="1854,-56.5 1854,-75.5 1940,-75.5 1940,-56.5 1854,-56.5"/>
<text text-anchor="middle" x="1897" y="-63.5" font-family="Helvetica,sans-Serif" font-size="10.00">OgreCommon.h</text>
</a>
</g>
</g>
<!-- Node42&#45;&gt;Node43 -->
<g id="edge45" class="edge"><title>Node42&#45;&gt;Node43</title>
<path fill="none" stroke="midnightblue" d="M1469.7,-392.488C1608.38,-375.262 1897,-334.219 1897,-291 1897,-291 1897,-291 1897,-177 1897,-144.948 1897,-107.643 1897,-85.7489"/>
<polygon fill="midnightblue" stroke="midnightblue" points="1900.5,-85.5577 1897,-75.5578 1893.5,-85.5578 1900.5,-85.5577"/>
</g>
<!-- Node44 -->
<g id="node44" class="node"><title>Node44</title>
<g id="a_node44"><a xlink:href="_ogre_d3_d11_render_window_8h.html" target="_top" xlink:title="OgreD3D11RenderWindow.h">
<polygon fill="none" stroke="black" points="1522.5,-336.5 1522.5,-355.5 1665.5,-355.5 1665.5,-336.5 1522.5,-336.5"/>
<text text-anchor="middle" x="1594" y="-343.5" font-family="Helvetica,sans-Serif" font-size="10.00">OgreD3D11RenderWindow.h</text>
</a>
</g>
</g>
<!-- Node42&#45;&gt;Node44 -->
<g id="edge48" class="edge"><title>Node42&#45;&gt;Node44</title>
<path fill="none" stroke="midnightblue" d="M1428.22,-392.444C1461.93,-383.201 1515.8,-368.436 1552.93,-358.257"/>
<polygon fill="midnightblue" stroke="midnightblue" points="1554.21,-361.536 1562.93,-355.516 1552.36,-354.785 1554.21,-361.536"/>
</g>
<!-- Node43&#45;&gt;Node34 -->
<g id="edge46" class="edge"><title>Node43&#45;&gt;Node34</title>
<path fill="none" stroke="midnightblue" d="M1876.08,-56.4435C1854.26,-47.5171 1819.85,-33.4387 1795.11,-23.3168"/>
<polygon fill="midnightblue" stroke="midnightblue" points="1796.4,-20.0634 1785.82,-19.5164 1793.75,-26.5422 1796.4,-20.0634"/>
</g>
<!-- Node43&#45;&gt;Node35 -->
<g id="edge47" class="edge"><title>Node43&#45;&gt;Node35</title>
<path fill="none" stroke="midnightblue" d="M1896.01,-56.083C1895.21,-48.9272 1894.07,-38.6353 1893.08,-29.6911"/>
<polygon fill="midnightblue" stroke="midnightblue" points="1896.56,-29.3034 1891.97,-19.7511 1889.6,-30.0765 1896.56,-29.3034"/>
</g>
<!-- Node44&#45;&gt;Node2 -->
<g id="edge49" class="edge"><title>Node44&#45;&gt;Node2</title>
<path fill="none" stroke="midnightblue" d="M1590.57,-336.359C1584.55,-322.312 1570.7,-294.626 1550,-280 1522.1,-260.286 1486.2,-249.205 1454.35,-242.979"/>
<polygon fill="midnightblue" stroke="midnightblue" points="1454.63,-239.472 1444.16,-241.123 1453.37,-246.359 1454.63,-239.472"/>
</g>
<!-- Node45 -->
<g id="node45" class="node"><title>Node45</title>
<g id="a_node45"><a xlink:href="_ogre_d3_d11_device_resource_8h.html" target="_top" xlink:title="OgreD3D11DeviceResource.h">
<polygon fill="none" stroke="black" points="1392.5,-280.5 1392.5,-299.5 1541.5,-299.5 1541.5,-280.5 1392.5,-280.5"/>
<text text-anchor="middle" x="1467" y="-287.5" font-family="Helvetica,sans-Serif" font-size="10.00">OgreD3D11DeviceResource.h</text>
</a>
</g>
</g>
<!-- Node44&#45;&gt;Node45 -->
<g id="edge50" class="edge"><title>Node44&#45;&gt;Node45</title>
<path fill="none" stroke="midnightblue" d="M1573.88,-336.444C1552.98,-327.557 1520.07,-313.563 1496.28,-303.451"/>
<polygon fill="midnightblue" stroke="midnightblue" points="1497.6,-300.208 1487.03,-299.516 1494.86,-306.65 1497.6,-300.208"/>
</g>
<!-- Node46 -->
<g id="node46" class="node"><title>Node46</title>
<g id="a_node46"><a xlink:href="_ogre_render_window_8h.html" target="_top" xlink:title="OgreRenderWindow.h">
<polygon fill="none" stroke="red" points="1743.5,-224.5 1743.5,-243.5 1856.5,-243.5 1856.5,-224.5 1743.5,-224.5"/>
<text text-anchor="middle" x="1800" y="-231.5" font-family="Helvetica,sans-Serif" font-size="10.00">OgreRenderWindow.h</text>
</a>
</g>
</g>
<!-- Node44&#45;&gt;Node46 -->
<g id="edge52" class="edge"><title>Node44&#45;&gt;Node46</title>
<path fill="none" stroke="midnightblue" d="M1665.51,-341.804C1730.04,-337.242 1818.11,-326.262 1840,-300 1853.15,-284.226 1835.72,-263.728 1819.91,-250.007"/>
<polygon fill="midnightblue" stroke="midnightblue" points="1821.92,-247.13 1811.97,-243.511 1817.49,-252.55 1821.92,-247.13"/>
</g>
<!-- Node47 -->
<g id="node47" class="node"><title>Node47</title>
<polygon fill="none" stroke="#bfbfbf" points="1597.5,-280.5 1597.5,-299.5 1642.5,-299.5 1642.5,-280.5 1597.5,-280.5"/>
<text text-anchor="middle" x="1620" y="-287.5" font-family="Helvetica,sans-Serif" font-size="10.00">agile.h</text>
</g>
<!-- Node44&#45;&gt;Node47 -->
<g id="edge54" class="edge"><title>Node44&#45;&gt;Node47</title>
<path fill="none" stroke="midnightblue" d="M1598.29,-336.083C1601.85,-328.691 1607.02,-317.953 1611.42,-308.811"/>
<polygon fill="midnightblue" stroke="midnightblue" points="1614.6,-310.279 1615.79,-299.751 1608.29,-307.243 1614.6,-310.279"/>
</g>
<!-- Node48 -->
<g id="node48" class="node"><title>Node48</title>
<polygon fill="none" stroke="#bfbfbf" points="1661,-280.5 1661,-299.5 1831,-299.5 1831,-280.5 1661,-280.5"/>
<text text-anchor="middle" x="1746" y="-287.5" font-family="Helvetica,sans-Serif" font-size="10.00">windows.ui.xaml.media.dxinterop.h</text>
</g>
<!-- Node44&#45;&gt;Node48 -->
<g id="edge55" class="edge"><title>Node44&#45;&gt;Node48</title>
<path fill="none" stroke="midnightblue" d="M1618.08,-336.444C1643.54,-327.399 1683.89,-313.064 1712.46,-302.916"/>
<polygon fill="midnightblue" stroke="midnightblue" points="1713.78,-306.162 1722.03,-299.516 1711.43,-299.566 1713.78,-306.162"/>
</g>
<!-- Node45&#45;&gt;Node2 -->
<g id="edge51" class="edge"><title>Node45&#45;&gt;Node2</title>
<path fill="none" stroke="midnightblue" d="M1452.54,-280.324C1438.5,-271.9 1416.95,-258.971 1400.46,-249.074"/>
<polygon fill="midnightblue" stroke="midnightblue" points="1401.8,-245.798 1391.42,-243.655 1398.2,-251.801 1401.8,-245.798"/>
</g>
<!-- Node46&#45;&gt;Node3 -->
<g id="edge53" class="edge"><title>Node46&#45;&gt;Node3</title>
<path fill="none" stroke="midnightblue" d="M1791.37,-224.368C1772.89,-205.894 1729.29,-162.293 1705.74,-138.744"/>
<polygon fill="midnightblue" stroke="midnightblue" points="1708.14,-136.188 1698.59,-131.591 1703.19,-141.137 1708.14,-136.188"/>
</g>
<!-- Node49&#45;&gt;Node2 -->
<g id="edge57" class="edge"><title>Node49&#45;&gt;Node2</title>
<path fill="none" stroke="midnightblue" d="M1300.51,-336.368C1314.27,-318.135 1346.5,-275.426 1364.42,-251.675"/>
<polygon fill="midnightblue" stroke="midnightblue" points="1367.29,-253.682 1370.52,-243.591 1361.7,-249.466 1367.29,-253.682"/>
</g>
</g>
</svg>
