<?xml version="1.0" encoding="UTF-8" standalone="no"?>
<!DOCTYPE svg PUBLIC "-//W3C//DTD SVG 1.1//EN"
 "http://www.w3.org/Graphics/SVG/1.1/DTD/svg11.dtd">
<!-- Generated by graphviz version 2.38.0 (20140413.2041)
 -->
<!-- Title: OgreGLES2FBOMultiRenderTarget.h Pages: 1 -->
<svg width="851pt" height="308pt"
 viewBox="0.00 0.00 850.60 308.00" xmlns="http://www.w3.org/2000/svg" xmlns:xlink="http://www.w3.org/1999/xlink">
<g id="graph0" class="graph" transform="scale(1 1) rotate(0) translate(4 304)">
<title>OgreGLES2FBOMultiRenderTarget.h</title>
<!-- Node1 -->
<g id="node1" class="node"><title>Node1</title>
<polygon fill="#bfbfbf" stroke="black" points="577.101,-280.5 577.101,-299.5 755.101,-299.5 755.101,-280.5 577.101,-280.5"/>
<text text-anchor="middle" x="666.101" y="-287.5" font-family="Helvetica,sans-Serif" font-size="10.00">OgreGLES2FBOMultiRenderTarget.h</text>
</g>
<!-- Node2 -->
<g id="node2" class="node"><title>Node2</title>
<g id="a_node2"><a xlink:href="_ogre_g_l_e_s2_frame_buffer_object_8h.html" target="_top" xlink:title="OgreGLES2FrameBufferObject.h">
<polygon fill="none" stroke="black" points="586.101,-224.5 586.101,-243.5 746.101,-243.5 746.101,-224.5 586.101,-224.5"/>
<text text-anchor="middle" x="666.101" y="-231.5" font-family="Helvetica,sans-Serif" font-size="10.00">OgreGLES2FrameBufferObject.h</text>
</a>
</g>
</g>
<!-- Node1&#45;&gt;Node2 -->
<g id="edge1" class="edge"><title>Node1&#45;&gt;Node2</title>
<path fill="none" stroke="midnightblue" d="M666.101,-280.083C666.101,-273.006 666.101,-262.861 666.101,-253.986"/>
<polygon fill="midnightblue" stroke="midnightblue" points="669.601,-253.751 666.101,-243.751 662.601,-253.751 669.601,-253.751"/>
</g>
<!-- Node3 -->
<g id="node3" class="node"><title>Node3</title>
<g id="a_node3"><a xlink:href="_ogre_g_l_e_s2_render_texture_8h.html" target="_top" xlink:title="OgreGLES2RenderTexture.h">
<polygon fill="none" stroke="black" points="343.101,-168.5 343.101,-187.5 485.101,-187.5 485.101,-168.5 343.101,-168.5"/>
<text text-anchor="middle" x="414.101" y="-175.5" font-family="Helvetica,sans-Serif" font-size="10.00">OgreGLES2RenderTexture.h</text>
</a>
</g>
</g>
<!-- Node2&#45;&gt;Node3 -->
<g id="edge2" class="edge"><title>Node2&#45;&gt;Node3</title>
<path fill="none" stroke="midnightblue" d="M626.171,-224.444C582.21,-215.023 511.474,-199.866 463.918,-189.675"/>
<polygon fill="midnightblue" stroke="midnightblue" points="464.355,-186.189 453.844,-187.516 462.889,-193.034 464.355,-186.189"/>
</g>
<!-- Node11 -->
<g id="node11" class="node"><title>Node11</title>
<g id="a_node11"><a xlink:href="_ogre_g_l_e_s2_managed_resource_8h.html" target="_top" xlink:title="OgreGLES2ManagedResource.h">
<polygon fill="none" stroke="black" points="625.601,-56.5 625.601,-75.5 784.601,-75.5 784.601,-56.5 625.601,-56.5"/>
<text text-anchor="middle" x="705.101" y="-63.5" font-family="Helvetica,sans-Serif" font-size="10.00">OgreGLES2ManagedResource.h</text>
</a>
</g>
</g>
<!-- Node2&#45;&gt;Node11 -->
<g id="edge15" class="edge"><title>Node2&#45;&gt;Node11</title>
<path fill="none" stroke="midnightblue" d="M666.68,-224.321C668.189,-204.207 673.002,-152.993 685.101,-112 687.823,-102.775 692.015,-92.9679 695.86,-84.8714"/>
<polygon fill="midnightblue" stroke="midnightblue" points="699.099,-86.2174 700.406,-75.7035 692.828,-83.1073 699.099,-86.2174"/>
</g>
<!-- Node12 -->
<g id="node12" class="node"><title>Node12</title>
<g id="a_node12"><a xlink:href="_ogre_g_l_context_8h.html" target="_top" xlink:title="OgreGLContext.h">
<polygon fill="none" stroke="black" points="707.601,-168.5 707.601,-187.5 800.601,-187.5 800.601,-168.5 707.601,-168.5"/>
<text text-anchor="middle" x="754.101" y="-175.5" font-family="Helvetica,sans-Serif" font-size="10.00">OgreGLContext.h</text>
</a>
</g>
</g>
<!-- Node2&#45;&gt;Node12 -->
<g id="edge13" class="edge"><title>Node2&#45;&gt;Node12</title>
<path fill="none" stroke="midnightblue" d="M680.239,-224.324C693.967,-215.9 715.037,-202.971 731.165,-193.074"/>
<polygon fill="midnightblue" stroke="midnightblue" points="733.304,-195.868 739.997,-187.655 729.643,-189.902 733.304,-195.868"/>
</g>
<!-- Node4 -->
<g id="node4" class="node"><title>Node4</title>
<g id="a_node4"><a xlink:href="_ogre_g_l_e_s2_texture_8h.html" target="_top" xlink:title="OgreGLES2Texture.h">
<polygon fill="none" stroke="black" points="283.101,-112.5 283.101,-131.5 393.101,-131.5 393.101,-112.5 283.101,-112.5"/>
<text text-anchor="middle" x="338.101" y="-119.5" font-family="Helvetica,sans-Serif" font-size="10.00">OgreGLES2Texture.h</text>
</a>
</g>
</g>
<!-- Node3&#45;&gt;Node4 -->
<g id="edge3" class="edge"><title>Node3&#45;&gt;Node4</title>
<path fill="none" stroke="midnightblue" d="M401.89,-168.324C390.325,-160.107 372.725,-147.602 358.94,-137.807"/>
<polygon fill="midnightblue" stroke="midnightblue" points="360.713,-134.773 350.534,-131.834 356.658,-140.479 360.713,-134.773"/>
</g>
<!-- Node5 -->
<g id="node5" class="node"><title>Node5</title>
<g id="a_node5"><a xlink:href="_ogre_g_l_e_s2_prerequisites_8h.html" target="_top" xlink:title="OgreGLES2Prerequisites.h">
<polygon fill="none" stroke="red" points="3.10069,-0.5 3.10069,-19.5 137.101,-19.5 137.101,-0.5 3.10069,-0.5"/>
<text text-anchor="middle" x="70.1007" y="-7.5" font-family="Helvetica,sans-Serif" font-size="10.00">OgreGLES2Prerequisites.h</text>
</a>
</g>
</g>
<!-- Node4&#45;&gt;Node5 -->
<g id="edge4" class="edge"><title>Node4&#45;&gt;Node5</title>
<path fill="none" stroke="midnightblue" d="M282.97,-121.913C197.848,-122.009 40.5153,-116.522 5.10069,-76 -11.3821,-57.14 16.7774,-36.9739 41.0356,-24.1921"/>
<polygon fill="midnightblue" stroke="midnightblue" points="42.6728,-27.2866 50.0406,-19.673 39.5331,-21.0302 42.6728,-27.2866"/>
</g>
<!-- Node6 -->
<g id="node6" class="node"><title>Node6</title>
<g id="a_node6"><a xlink:href="_ogre_g_l_e_s2_support_8h.html" target="_top" xlink:title="OgreGLES2Support.h">
<polygon fill="none" stroke="red" points="14.6007,-56.5 14.6007,-75.5 125.601,-75.5 125.601,-56.5 14.6007,-56.5"/>
<text text-anchor="middle" x="70.1007" y="-63.5" font-family="Helvetica,sans-Serif" font-size="10.00">OgreGLES2Support.h</text>
</a>
</g>
</g>
<!-- Node4&#45;&gt;Node6 -->
<g id="edge5" class="edge"><title>Node4&#45;&gt;Node6</title>
<path fill="none" stroke="midnightblue" d="M295.635,-112.444C248.687,-102.984 173.025,-87.7384 122.446,-77.5472"/>
<polygon fill="midnightblue" stroke="midnightblue" points="122.862,-74.0607 112.367,-75.5164 121.479,-80.9228 122.862,-74.0607"/>
</g>
<!-- Node7 -->
<g id="node7" class="node"><title>Node7</title>
<g id="a_node7"><a xlink:href="_ogre_platform_8h.html" target="_top" xlink:title="OgrePlatform.h">
<polygon fill="none" stroke="red" points="143.601,-56.5 143.601,-75.5 226.601,-75.5 226.601,-56.5 143.601,-56.5"/>
<text text-anchor="middle" x="185.101" y="-63.5" font-family="Helvetica,sans-Serif" font-size="10.00">OgrePlatform.h</text>
</a>
</g>
</g>
<!-- Node4&#45;&gt;Node7 -->
<g id="edge7" class="edge"><title>Node4&#45;&gt;Node7</title>
<path fill="none" stroke="midnightblue" d="M313.857,-112.444C288.23,-103.399 247.615,-89.064 218.862,-78.9158"/>
<polygon fill="midnightblue" stroke="midnightblue" points="219.825,-75.5442 209.231,-75.5164 217.496,-82.1452 219.825,-75.5442"/>
</g>
<!-- Node8 -->
<g id="node8" class="node"><title>Node8</title>
<g id="a_node8"><a xlink:href="_ogre_render_texture_8h.html" target="_top" xlink:title="OgreRenderTexture.h">
<polygon fill="none" stroke="red" points="245.101,-56.5 245.101,-75.5 355.101,-75.5 355.101,-56.5 245.101,-56.5"/>
<text text-anchor="middle" x="300.101" y="-63.5" font-family="Helvetica,sans-Serif" font-size="10.00">OgreRenderTexture.h</text>
</a>
</g>
</g>
<!-- Node4&#45;&gt;Node8 -->
<g id="edge8" class="edge"><title>Node4&#45;&gt;Node8</title>
<path fill="none" stroke="midnightblue" d="M331.826,-112.083C326.458,-104.455 318.583,-93.2645 312.022,-83.9408"/>
<polygon fill="midnightblue" stroke="midnightblue" points="314.876,-81.9149 306.259,-75.7511 309.152,-85.9434 314.876,-81.9149"/>
</g>
<!-- Node9 -->
<g id="node9" class="node"><title>Node9</title>
<g id="a_node9"><a xlink:href="_ogre_texture_8h.html" target="_top" xlink:title="OgreTexture.h">
<polygon fill="none" stroke="red" points="373.601,-56.5 373.601,-75.5 452.601,-75.5 452.601,-56.5 373.601,-56.5"/>
<text text-anchor="middle" x="413.101" y="-63.5" font-family="Helvetica,sans-Serif" font-size="10.00">OgreTexture.h</text>
</a>
</g>
</g>
<!-- Node4&#45;&gt;Node9 -->
<g id="edge9" class="edge"><title>Node4&#45;&gt;Node9</title>
<path fill="none" stroke="midnightblue" d="M350.151,-112.324C361.564,-104.107 378.932,-91.6017 392.536,-81.8069"/>
<polygon fill="midnightblue" stroke="midnightblue" points="394.761,-84.5174 400.831,-75.8339 390.671,-78.8366 394.761,-84.5174"/>
</g>
<!-- Node10 -->
<g id="node10" class="node"><title>Node10</title>
<g id="a_node10"><a xlink:href="_ogre_hardware_pixel_buffer_8h.html" target="_top" xlink:title="OgreHardwarePixelBuffer.h">
<polygon fill="none" stroke="red" points="471.101,-56.5 471.101,-75.5 607.101,-75.5 607.101,-56.5 471.101,-56.5"/>
<text text-anchor="middle" x="539.101" y="-63.5" font-family="Helvetica,sans-Serif" font-size="10.00">OgreHardwarePixelBuffer.h</text>
</a>
</g>
</g>
<!-- Node4&#45;&gt;Node10 -->
<g id="edge10" class="edge"><title>Node4&#45;&gt;Node10</title>
<path fill="none" stroke="midnightblue" d="M369.95,-112.444C404.499,-103.162 459.783,-88.3093 497.684,-78.127"/>
<polygon fill="midnightblue" stroke="midnightblue" points="498.651,-81.4912 507.401,-75.5164 496.835,-74.7309 498.651,-81.4912"/>
</g>
<!-- Node4&#45;&gt;Node11 -->
<g id="edge11" class="edge"><title>Node4&#45;&gt;Node11</title>
<path fill="none" stroke="midnightblue" d="M393.442,-112.857C458.619,-103.267 566.883,-87.3372 637.11,-77.0041"/>
<polygon fill="midnightblue" stroke="midnightblue" points="637.801,-80.4401 647.185,-75.5216 636.782,-73.5147 637.801,-80.4401"/>
</g>
<!-- Node6&#45;&gt;Node5 -->
<g id="edge6" class="edge"><title>Node6&#45;&gt;Node5</title>
<path fill="none" stroke="midnightblue" d="M70.1007,-56.083C70.1007,-49.0059 70.1007,-38.8611 70.1007,-29.9865"/>
<polygon fill="midnightblue" stroke="midnightblue" points="73.6008,-29.751 70.1007,-19.7511 66.6008,-29.7511 73.6008,-29.751"/>
</g>
<!-- Node11&#45;&gt;Node5 -->
<g id="edge12" class="edge"><title>Node11&#45;&gt;Node5</title>
<path fill="none" stroke="midnightblue" d="M625.531,-56.8798C622.347,-56.5782 619.194,-56.2838 616.101,-56 449.274,-40.6916 253.544,-25.1462 147.656,-16.9367"/>
<polygon fill="midnightblue" stroke="midnightblue" points="147.621,-13.4236 137.381,-16.1413 147.081,-20.4028 147.621,-13.4236"/>
</g>
<!-- Node13 -->
<g id="node13" class="node"><title>Node13</title>
<g id="a_node13"><a xlink:href="_ogre_g_l_support_prerequisites_8h.html" target="_top" xlink:title="OgreGLSupportPrerequisites.h">
<polygon fill="none" stroke="red" points="693.601,-112.5 693.601,-131.5 842.601,-131.5 842.601,-112.5 693.601,-112.5"/>
<text text-anchor="middle" x="768.101" y="-119.5" font-family="Helvetica,sans-Serif" font-size="10.00">OgreGLSupportPrerequisites.h</text>
</a>
</g>
</g>
<!-- Node12&#45;&gt;Node13 -->
<g id="edge14" class="edge"><title>Node12&#45;&gt;Node13</title>
<path fill="none" stroke="midnightblue" d="M756.413,-168.083C758.268,-160.927 760.936,-150.635 763.255,-141.691"/>
<polygon fill="midnightblue" stroke="midnightblue" points="766.71,-142.309 765.832,-131.751 759.934,-140.553 766.71,-142.309"/>
</g>
</g>
</svg>
