<?xml version="1.0" encoding="UTF-8" standalone="no"?>
<!DOCTYPE svg PUBLIC "-//W3C//DTD SVG 1.1//EN"
 "http://www.w3.org/Graphics/SVG/1.1/DTD/svg11.dtd">
<!-- Generated by graphviz version 2.38.0 (20140413.2041)
 -->
<!-- Title: OgreAnimationTrack.h Pages: 1 -->
<svg width="3343pt" height="420pt"
 viewBox="0.00 0.00 3343.00 420.00" xmlns="http://www.w3.org/2000/svg" xmlns:xlink="http://www.w3.org/1999/xlink">
<g id="graph0" class="graph" transform="scale(1 1) rotate(0) translate(4 416)">
<title>OgreAnimationTrack.h</title>
<!-- Node1 -->
<g id="node1" class="node"><title>Node1</title>
<polygon fill="#bfbfbf" stroke="black" points="3010,-392.5 3010,-411.5 3124,-411.5 3124,-392.5 3010,-392.5"/>
<text text-anchor="middle" x="3067" y="-399.5" font-family="Helvetica,sans-Serif" font-size="10.00">OgreAnimationTrack.h</text>
</g>
<!-- Node2 -->
<g id="node2" class="node"><title>Node2</title>
<g id="a_node2"><a xlink:href="_ogre_prerequisites_8h.html" target="_top" xlink:title="OgrePrerequisites.h">
<polygon fill="none" stroke="black" points="2834.5,-168.5 2834.5,-187.5 2937.5,-187.5 2937.5,-168.5 2834.5,-168.5"/>
<text text-anchor="middle" x="2886" y="-175.5" font-family="Helvetica,sans-Serif" font-size="10.00">OgrePrerequisites.h</text>
</a>
</g>
</g>
<!-- Node1&#45;&gt;Node2 -->
<g id="edge1" class="edge"><title>Node1&#45;&gt;Node2</title>
<path fill="none" stroke="midnightblue" d="M3081.61,-392.487C3124.93,-366.236 3246.44,-284.656 3194,-224 3162.82,-187.932 3028.29,-180.206 2947.7,-178.887"/>
<polygon fill="midnightblue" stroke="midnightblue" points="2947.72,-175.387 2937.67,-178.751 2947.62,-182.386 2947.72,-175.387"/>
</g>
<!-- Node38 -->
<g id="node38" class="node"><title>Node38</title>
<g id="a_node38"><a xlink:href="_ogre_header_prefix_8h.html" target="_top" xlink:title="OgreHeaderPrefix.h">
<polygon fill="none" stroke="black" points="3074.5,-0.5 3074.5,-19.5 3177.5,-19.5 3177.5,-0.5 3074.5,-0.5"/>
<text text-anchor="middle" x="3126" y="-7.5" font-family="Helvetica,sans-Serif" font-size="10.00">OgreHeaderPrefix.h</text>
</a>
</g>
</g>
<!-- Node1&#45;&gt;Node38 -->
<g id="edge50" class="edge"><title>Node1&#45;&gt;Node38</title>
<path fill="none" stroke="midnightblue" d="M3124.16,-401.598C3202.87,-399.086 3335,-381.404 3335,-291 3335,-291 3335,-291 3335,-121 3335,-53.8048 3249.35,-27.5625 3187.72,-17.3772"/>
<polygon fill="midnightblue" stroke="midnightblue" points="3188.08,-13.8921 3177.66,-15.8211 3187.01,-20.8097 3188.08,-13.8921"/>
</g>
<!-- Node39 -->
<g id="node39" class="node"><title>Node39</title>
<g id="a_node39"><a xlink:href="_ogre_header_suffix_8h.html" target="_top" xlink:title="OgreHeaderSuffix.h">
<polygon fill="none" stroke="black" points="135.5,-0.5 135.5,-19.5 238.5,-19.5 238.5,-0.5 135.5,-0.5"/>
<text text-anchor="middle" x="187" y="-7.5" font-family="Helvetica,sans-Serif" font-size="10.00">OgreHeaderSuffix.h</text>
</a>
</g>
</g>
<!-- Node1&#45;&gt;Node39 -->
<g id="edge78" class="edge"><title>Node1&#45;&gt;Node39</title>
<path fill="none" stroke="midnightblue" d="M3009.82,-400.493C2589.96,-396.59 0,-369.339 0,-291 0,-291 0,-291 0,-121 0,-61.6068 70.9489,-33.6465 125.443,-20.9305"/>
<polygon fill="midnightblue" stroke="midnightblue" points="126.397,-24.3043 135.406,-18.7294 124.887,-17.4692 126.397,-24.3043"/>
</g>
<!-- Node42 -->
<g id="node42" class="node"><title>Node42</title>
<g id="a_node42"><a xlink:href="_ogre_simple_spline_8h.html" target="_top" xlink:title="OgreSimpleSpline.h">
<polygon fill="none" stroke="black" points="2973.5,-336.5 2973.5,-355.5 3076.5,-355.5 3076.5,-336.5 2973.5,-336.5"/>
<text text-anchor="middle" x="3025" y="-343.5" font-family="Helvetica,sans-Serif" font-size="10.00">OgreSimpleSpline.h</text>
</a>
</g>
</g>
<!-- Node1&#45;&gt;Node42 -->
<g id="edge51" class="edge"><title>Node1&#45;&gt;Node42</title>
<path fill="none" stroke="midnightblue" d="M3060.06,-392.083C3054.07,-384.377 3045.25,-373.033 3037.95,-363.653"/>
<polygon fill="midnightblue" stroke="midnightblue" points="3040.71,-361.496 3031.81,-355.751 3035.18,-365.793 3040.71,-361.496"/>
</g>
<!-- Node45 -->
<g id="node45" class="node"><title>Node45</title>
<g id="a_node45"><a xlink:href="_ogre_rotational_spline_8h.html" target="_top" xlink:title="OgreRotationalSpline.h">
<polygon fill="none" stroke="black" points="3053.5,-280.5 3053.5,-299.5 3170.5,-299.5 3170.5,-280.5 3053.5,-280.5"/>
<text text-anchor="middle" x="3112" y="-287.5" font-family="Helvetica,sans-Serif" font-size="10.00">OgreRotationalSpline.h</text>
</a>
</g>
</g>
<!-- Node1&#45;&gt;Node45 -->
<g id="edge59" class="edge"><title>Node1&#45;&gt;Node45</title>
<path fill="none" stroke="midnightblue" d="M3070.53,-392.368C3077.86,-374.456 3094.85,-332.923 3104.66,-308.948"/>
<polygon fill="midnightblue" stroke="midnightblue" points="3107.94,-310.172 3108.49,-299.591 3101.46,-307.522 3107.94,-310.172"/>
</g>
<!-- Node47 -->
<g id="node47" class="node"><title>Node47</title>
<g id="a_node47"><a xlink:href="_ogre_pose_8h.html" target="_top" xlink:title="OgrePose.h">
<polygon fill="none" stroke="black" points="2602,-280.5 2602,-299.5 2670,-299.5 2670,-280.5 2602,-280.5"/>
<text text-anchor="middle" x="2636" y="-287.5" font-family="Helvetica,sans-Serif" font-size="10.00">OgrePose.h</text>
</a>
</g>
</g>
<!-- Node1&#45;&gt;Node47 -->
<g id="edge65" class="edge"><title>Node1&#45;&gt;Node47</title>
<path fill="none" stroke="midnightblue" d="M3033.54,-392.46C2956.2,-372.722 2765.13,-323.956 2679.15,-302.012"/>
<polygon fill="midnightblue" stroke="midnightblue" points="2679.99,-298.616 2669.44,-299.535 2678.26,-305.399 2679.99,-298.616"/>
</g>
<!-- Node3 -->
<g id="node3" class="node"><title>Node3</title>
<g id="a_node3"><a xlink:href="_ogre_platform_8h.html" target="_top" xlink:title="OgrePlatform.h">
<polygon fill="none" stroke="black" points="2552.5,-112.5 2552.5,-131.5 2635.5,-131.5 2635.5,-112.5 2552.5,-112.5"/>
<text text-anchor="middle" x="2594" y="-119.5" font-family="Helvetica,sans-Serif" font-size="10.00">OgrePlatform.h</text>
</a>
</g>
</g>
<!-- Node2&#45;&gt;Node3 -->
<g id="edge2" class="edge"><title>Node2&#45;&gt;Node3</title>
<path fill="none" stroke="midnightblue" d="M2839.73,-168.444C2786.9,-158.673 2700.68,-142.729 2645.68,-132.558"/>
<polygon fill="midnightblue" stroke="midnightblue" points="2646.26,-129.106 2635.79,-130.729 2644.99,-135.989 2646.26,-129.106"/>
</g>
<!-- Node5 -->
<g id="node5" class="node"><title>Node5</title>
<polygon fill="none" stroke="#bfbfbf" points="284.5,-56.5 284.5,-75.5 325.5,-75.5 325.5,-56.5 284.5,-56.5"/>
<text text-anchor="middle" x="305" y="-63.5" font-family="Helvetica,sans-Serif" font-size="10.00">string</text>
</g>
<!-- Node2&#45;&gt;Node5 -->
<g id="edge4" class="edge"><title>Node2&#45;&gt;Node5</title>
<path fill="none" stroke="midnightblue" d="M2834.18,-169.398C2829.39,-168.858 2824.61,-168.378 2820,-168 2252.35,-121.455 2108.16,-153.232 1539,-132 1007.08,-112.157 864.862,-165.401 336.008,-75.6955"/>
<polygon fill="midnightblue" stroke="midnightblue" points="336.271,-72.19 325.825,-73.9588 335.094,-79.0903 336.271,-72.19"/>
</g>
<!-- Node6 -->
<g id="node6" class="node"><title>Node6</title>
<g id="a_node6"><a xlink:href="_ogre_std_headers_8h.html" target="_top" xlink:title="OgreStdHeaders.h">
<polygon fill="none" stroke="black" points="1548,-112.5 1548,-131.5 1646,-131.5 1646,-112.5 1548,-112.5"/>
<text text-anchor="middle" x="1597" y="-119.5" font-family="Helvetica,sans-Serif" font-size="10.00">OgreStdHeaders.h</text>
</a>
</g>
</g>
<!-- Node2&#45;&gt;Node6 -->
<g id="edge5" class="edge"><title>Node2&#45;&gt;Node6</title>
<path fill="none" stroke="midnightblue" d="M2834.17,-169.441C2829.39,-168.891 2824.61,-168.398 2820,-168 2373.77,-129.461 1833.17,-123.879 1656.18,-123.109"/>
<polygon fill="midnightblue" stroke="midnightblue" points="1656.05,-119.608 1646.04,-123.068 1656.03,-126.608 1656.05,-119.608"/>
</g>
<!-- Node36 -->
<g id="node36" class="node"><title>Node36</title>
<g id="a_node36"><a xlink:href="_ogre_memory_allocator_config_8h.html" target="_top" xlink:title="This file configures Ogre&#39;s memory allocators. ">
<polygon fill="none" stroke="black" points="2796,-112.5 2796,-131.5 2944,-131.5 2944,-112.5 2796,-112.5"/>
<text text-anchor="middle" x="2870" y="-119.5" font-family="Helvetica,sans-Serif" font-size="10.00">OgreMemoryAllocatorConfig.h</text>
</a>
</g>
</g>
<!-- Node2&#45;&gt;Node36 -->
<g id="edge36" class="edge"><title>Node2&#45;&gt;Node36</title>
<path fill="none" stroke="midnightblue" d="M2883.36,-168.083C2881.21,-160.849 2878.12,-150.409 2875.45,-141.397"/>
<polygon fill="midnightblue" stroke="midnightblue" points="2878.79,-140.345 2872.59,-131.751 2872.08,-142.333 2878.79,-140.345"/>
</g>
<!-- Node4 -->
<g id="node4" class="node"><title>Node4</title>
<g id="a_node4"><a xlink:href="_ogre_config_8h.html" target="_top" xlink:title="OgreConfig.h">
<polygon fill="none" stroke="red" points="2494,-56.5 2494,-75.5 2568,-75.5 2568,-56.5 2494,-56.5"/>
<text text-anchor="middle" x="2531" y="-63.5" font-family="Helvetica,sans-Serif" font-size="10.00">OgreConfig.h</text>
</a>
</g>
</g>
<!-- Node3&#45;&gt;Node4 -->
<g id="edge3" class="edge"><title>Node3&#45;&gt;Node4</title>
<path fill="none" stroke="midnightblue" d="M2583.88,-112.324C2574.47,-104.263 2560.26,-92.0765 2548.93,-82.3695"/>
<polygon fill="midnightblue" stroke="midnightblue" points="2551.18,-79.6844 2541.31,-75.8339 2546.62,-84.9993 2551.18,-79.6844"/>
</g>
<!-- Node6&#45;&gt;Node5 -->
<g id="edge15" class="edge"><title>Node6&#45;&gt;Node5</title>
<path fill="none" stroke="midnightblue" d="M1547.72,-119.988C1334.66,-115.515 496.587,-96.8707 336.18,-75.5296"/>
<polygon fill="midnightblue" stroke="midnightblue" points="336.226,-71.998 325.82,-73.9886 335.196,-78.9219 336.226,-71.998"/>
</g>
<!-- Node7 -->
<g id="node7" class="node"><title>Node7</title>
<polygon fill="none" stroke="#bfbfbf" points="1446.5,-56.5 1446.5,-75.5 1495.5,-75.5 1495.5,-56.5 1446.5,-56.5"/>
<text text-anchor="middle" x="1471" y="-63.5" font-family="Helvetica,sans-Serif" font-size="10.00">cassert</text>
</g>
<!-- Node6&#45;&gt;Node7 -->
<g id="edge6" class="edge"><title>Node6&#45;&gt;Node7</title>
<path fill="none" stroke="midnightblue" d="M1577.03,-112.444C1556.39,-103.596 1523.94,-89.6875 1500.37,-79.5865"/>
<polygon fill="midnightblue" stroke="midnightblue" points="1501.44,-76.2387 1490.87,-75.5164 1498.68,-82.6727 1501.44,-76.2387"/>
</g>
<!-- Node8 -->
<g id="node8" class="node"><title>Node8</title>
<polygon fill="none" stroke="#bfbfbf" points="1513.5,-56.5 1513.5,-75.5 1556.5,-75.5 1556.5,-56.5 1513.5,-56.5"/>
<text text-anchor="middle" x="1535" y="-63.5" font-family="Helvetica,sans-Serif" font-size="10.00">cstdio</text>
</g>
<!-- Node6&#45;&gt;Node8 -->
<g id="edge7" class="edge"><title>Node6&#45;&gt;Node8</title>
<path fill="none" stroke="midnightblue" d="M1587.04,-112.324C1577.87,-104.341 1564.06,-92.3128 1552.97,-82.6529"/>
<polygon fill="midnightblue" stroke="midnightblue" points="1554.98,-79.7624 1545.14,-75.8339 1550.38,-85.041 1554.98,-79.7624"/>
</g>
<!-- Node9 -->
<g id="node9" class="node"><title>Node9</title>
<polygon fill="none" stroke="#bfbfbf" points="1574.5,-56.5 1574.5,-75.5 1619.5,-75.5 1619.5,-56.5 1574.5,-56.5"/>
<text text-anchor="middle" x="1597" y="-63.5" font-family="Helvetica,sans-Serif" font-size="10.00">cstdlib</text>
</g>
<!-- Node6&#45;&gt;Node9 -->
<g id="edge8" class="edge"><title>Node6&#45;&gt;Node9</title>
<path fill="none" stroke="midnightblue" d="M1597,-112.083C1597,-105.006 1597,-94.8611 1597,-85.9865"/>
<polygon fill="midnightblue" stroke="midnightblue" points="1600.5,-85.751 1597,-75.7511 1593.5,-85.7511 1600.5,-85.751"/>
</g>
<!-- Node10 -->
<g id="node10" class="node"><title>Node10</title>
<polygon fill="none" stroke="#bfbfbf" points="1637.5,-56.5 1637.5,-75.5 1678.5,-75.5 1678.5,-56.5 1637.5,-56.5"/>
<text text-anchor="middle" x="1658" y="-63.5" font-family="Helvetica,sans-Serif" font-size="10.00">ctime</text>
</g>
<!-- Node6&#45;&gt;Node10 -->
<g id="edge9" class="edge"><title>Node6&#45;&gt;Node10</title>
<path fill="none" stroke="midnightblue" d="M1606.8,-112.324C1615.82,-104.341 1629.41,-92.3128 1640.32,-82.6529"/>
<polygon fill="midnightblue" stroke="midnightblue" points="1642.85,-85.083 1648.02,-75.8339 1638.21,-79.8416 1642.85,-85.083"/>
</g>
<!-- Node11 -->
<g id="node11" class="node"><title>Node11</title>
<polygon fill="none" stroke="#bfbfbf" points="1697,-56.5 1697,-75.5 1743,-75.5 1743,-56.5 1697,-56.5"/>
<text text-anchor="middle" x="1720" y="-63.5" font-family="Helvetica,sans-Serif" font-size="10.00">cstring</text>
</g>
<!-- Node6&#45;&gt;Node11 -->
<g id="edge10" class="edge"><title>Node6&#45;&gt;Node11</title>
<path fill="none" stroke="midnightblue" d="M1616.49,-112.444C1636.64,-103.596 1668.32,-89.6875 1691.33,-79.5865"/>
<polygon fill="midnightblue" stroke="midnightblue" points="1692.85,-82.7411 1700.6,-75.5164 1690.04,-76.3316 1692.85,-82.7411"/>
</g>
<!-- Node12 -->
<g id="node12" class="node"><title>Node12</title>
<polygon fill="none" stroke="#bfbfbf" points="1761.5,-56.5 1761.5,-75.5 1810.5,-75.5 1810.5,-56.5 1761.5,-56.5"/>
<text text-anchor="middle" x="1786" y="-63.5" font-family="Helvetica,sans-Serif" font-size="10.00">cstdarg</text>
</g>
<!-- Node6&#45;&gt;Node12 -->
<g id="edge11" class="edge"><title>Node6&#45;&gt;Node12</title>
<path fill="none" stroke="midnightblue" d="M1626.95,-112.444C1660.77,-102.78 1715.72,-87.0801 1751.36,-76.8969"/>
<polygon fill="midnightblue" stroke="midnightblue" points="1752.66,-80.1663 1761.31,-74.0537 1750.74,-73.4357 1752.66,-80.1663"/>
</g>
<!-- Node13 -->
<g id="node13" class="node"><title>Node13</title>
<polygon fill="none" stroke="#bfbfbf" points="1829,-56.5 1829,-75.5 1873,-75.5 1873,-56.5 1829,-56.5"/>
<text text-anchor="middle" x="1851" y="-63.5" font-family="Helvetica,sans-Serif" font-size="10.00">cmath</text>
</g>
<!-- Node6&#45;&gt;Node13 -->
<g id="edge12" class="edge"><title>Node6&#45;&gt;Node13</title>
<path fill="none" stroke="midnightblue" d="M1644.43,-112.441C1687.42,-104.447 1752.7,-91.7181 1818.9,-75.8676"/>
<polygon fill="midnightblue" stroke="midnightblue" points="1819.78,-79.2574 1828.68,-73.5066 1818.13,-72.4532 1819.78,-79.2574"/>
</g>
<!-- Node14 -->
<g id="node14" class="node"><title>Node14</title>
<polygon fill="none" stroke="#bfbfbf" points="1891,-56.5 1891,-75.5 1935,-75.5 1935,-56.5 1891,-56.5"/>
<text text-anchor="middle" x="1913" y="-63.5" font-family="Helvetica,sans-Serif" font-size="10.00">vector</text>
</g>
<!-- Node6&#45;&gt;Node14 -->
<g id="edge13" class="edge"><title>Node6&#45;&gt;Node14</title>
<path fill="none" stroke="midnightblue" d="M1646.02,-115.169C1701.02,-108.203 1793.04,-95.2804 1880.88,-76.0204"/>
<polygon fill="midnightblue" stroke="midnightblue" points="1881.73,-79.4153 1890.74,-73.8276 1880.21,-72.5823 1881.73,-79.4153"/>
</g>
<!-- Node15 -->
<g id="node15" class="node"><title>Node15</title>
<polygon fill="none" stroke="#bfbfbf" points="1953.5,-56.5 1953.5,-75.5 1988.5,-75.5 1988.5,-56.5 1953.5,-56.5"/>
<text text-anchor="middle" x="1971" y="-63.5" font-family="Helvetica,sans-Serif" font-size="10.00">map</text>
</g>
<!-- Node6&#45;&gt;Node15 -->
<g id="edge14" class="edge"><title>Node6&#45;&gt;Node15</title>
<path fill="none" stroke="midnightblue" d="M1646.09,-117.63C1711.81,-112.462 1832.04,-100.708 1943.37,-75.7019"/>
<polygon fill="midnightblue" stroke="midnightblue" points="1944.45,-79.0437 1953.42,-73.4013 1942.89,-72.2201 1944.45,-79.0437"/>
</g>
<!-- Node16 -->
<g id="node16" class="node"><title>Node16</title>
<polygon fill="none" stroke="#bfbfbf" points="2007,-56.5 2007,-75.5 2037,-75.5 2037,-56.5 2007,-56.5"/>
<text text-anchor="middle" x="2022" y="-63.5" font-family="Helvetica,sans-Serif" font-size="10.00">set</text>
</g>
<!-- Node6&#45;&gt;Node16 -->
<g id="edge16" class="edge"><title>Node6&#45;&gt;Node16</title>
<path fill="none" stroke="midnightblue" d="M1646.27,-119.155C1722.39,-115.479 1872.79,-104.925 1997,-76 1997.1,-75.9765 1997.2,-75.9526 1997.3,-75.9285"/>
<polygon fill="midnightblue" stroke="midnightblue" points="1998.24,-79.3003 2006.83,-73.0973 1996.25,-72.5902 1998.24,-79.3003"/>
</g>
<!-- Node17 -->
<g id="node17" class="node"><title>Node17</title>
<polygon fill="none" stroke="#bfbfbf" points="2055.5,-56.5 2055.5,-75.5 2084.5,-75.5 2084.5,-56.5 2055.5,-56.5"/>
<text text-anchor="middle" x="2070" y="-63.5" font-family="Helvetica,sans-Serif" font-size="10.00">list</text>
</g>
<!-- Node6&#45;&gt;Node17 -->
<g id="edge17" class="edge"><title>Node6&#45;&gt;Node17</title>
<path fill="none" stroke="midnightblue" d="M1646.18,-120.213C1727.73,-118.012 1895.91,-109.672 2045.63,-75.4291"/>
<polygon fill="midnightblue" stroke="midnightblue" points="2046.52,-78.8155 2055.46,-73.1359 2044.93,-71.9984 2046.52,-78.8155"/>
</g>
<!-- Node18 -->
<g id="node18" class="node"><title>Node18</title>
<polygon fill="none" stroke="#bfbfbf" points="2102.5,-56.5 2102.5,-75.5 2145.5,-75.5 2145.5,-56.5 2102.5,-56.5"/>
<text text-anchor="middle" x="2124" y="-63.5" font-family="Helvetica,sans-Serif" font-size="10.00">deque</text>
</g>
<!-- Node6&#45;&gt;Node18 -->
<g id="edge18" class="edge"><title>Node6&#45;&gt;Node18</title>
<path fill="none" stroke="midnightblue" d="M1646.01,-119.668C1733.77,-116.61 1923.54,-106.932 2092.38,-75.7218"/>
<polygon fill="midnightblue" stroke="midnightblue" points="2093.27,-79.1172 2102.45,-73.8308 2091.97,-72.2376 2093.27,-79.1172"/>
</g>
<!-- Node19 -->
<g id="node19" class="node"><title>Node19</title>
<polygon fill="none" stroke="#bfbfbf" points="2163.5,-56.5 2163.5,-75.5 2206.5,-75.5 2206.5,-56.5 2163.5,-56.5"/>
<text text-anchor="middle" x="2185" y="-63.5" font-family="Helvetica,sans-Serif" font-size="10.00">queue</text>
</g>
<!-- Node6&#45;&gt;Node19 -->
<g id="edge19" class="edge"><title>Node6&#45;&gt;Node19</title>
<path fill="none" stroke="midnightblue" d="M1646.24,-120.349C1742.21,-118.362 1961,-110.314 2153.44,-75.689"/>
<polygon fill="midnightblue" stroke="midnightblue" points="2154.25,-79.0998 2163.45,-73.8587 2152.99,-72.2139 2154.25,-79.0998"/>
</g>
<!-- Node20 -->
<g id="node20" class="node"><title>Node20</title>
<polygon fill="none" stroke="#bfbfbf" points="2224.5,-56.5 2224.5,-75.5 2265.5,-75.5 2265.5,-56.5 2224.5,-56.5"/>
<text text-anchor="middle" x="2245" y="-63.5" font-family="Helvetica,sans-Serif" font-size="10.00">bitset</text>
</g>
<!-- Node6&#45;&gt;Node20 -->
<g id="edge20" class="edge"><title>Node6&#45;&gt;Node20</title>
<path fill="none" stroke="midnightblue" d="M1646.33,-121.051C1750.08,-120.376 1998.38,-114.647 2214.54,-75.6217"/>
<polygon fill="midnightblue" stroke="midnightblue" points="2215.28,-79.0447 2224.49,-73.7986 2214.02,-72.1595 2215.28,-79.0447"/>
</g>
<!-- Node21 -->
<g id="node21" class="node"><title>Node21</title>
<polygon fill="none" stroke="#bfbfbf" points="2284,-56.5 2284,-75.5 2340,-75.5 2340,-56.5 2284,-56.5"/>
<text text-anchor="middle" x="2312" y="-63.5" font-family="Helvetica,sans-Serif" font-size="10.00">algorithm</text>
</g>
<!-- Node6&#45;&gt;Node21 -->
<g id="edge21" class="edge"><title>Node6&#45;&gt;Node21</title>
<path fill="none" stroke="midnightblue" d="M1646.15,-120.525C1758.17,-118.833 2040.75,-111.125 2274,-76 2274.1,-75.9849 2274.2,-75.9696 2274.3,-75.9542"/>
<polygon fill="midnightblue" stroke="midnightblue" points="2274.67,-79.445 2283.88,-74.2097 2273.41,-72.5583 2274.67,-79.445"/>
</g>
<!-- Node22 -->
<g id="node22" class="node"><title>Node22</title>
<polygon fill="none" stroke="#bfbfbf" points="2358.5,-56.5 2358.5,-75.5 2417.5,-75.5 2417.5,-56.5 2358.5,-56.5"/>
<text text-anchor="middle" x="2388" y="-63.5" font-family="Helvetica,sans-Serif" font-size="10.00">functional</text>
</g>
<!-- Node6&#45;&gt;Node22 -->
<g id="edge22" class="edge"><title>Node6&#45;&gt;Node22</title>
<path fill="none" stroke="midnightblue" d="M1646.12,-120.891C1765.08,-120.02 2078.13,-114.106 2348.29,-75.8295"/>
<polygon fill="midnightblue" stroke="midnightblue" points="2348.88,-79.2802 2358.29,-74.3956 2347.89,-72.3511 2348.88,-79.2802"/>
</g>
<!-- Node23 -->
<g id="node23" class="node"><title>Node23</title>
<polygon fill="none" stroke="#bfbfbf" points="2436,-56.5 2436,-75.5 2476,-75.5 2476,-56.5 2436,-56.5"/>
<text text-anchor="middle" x="2456" y="-63.5" font-family="Helvetica,sans-Serif" font-size="10.00">limits</text>
</g>
<!-- Node6&#45;&gt;Node23 -->
<g id="edge23" class="edge"><title>Node6&#45;&gt;Node23</title>
<path fill="none" stroke="midnightblue" d="M1646.24,-119.859C1800.75,-116.037 2274.69,-102.416 2426,-76 2426.1,-75.9825 2426.2,-75.9647 2426.3,-75.9467"/>
<polygon fill="midnightblue" stroke="midnightblue" points="2426.86,-79.4098 2435.82,-73.7618 2425.29,-72.5871 2426.86,-79.4098"/>
</g>
<!-- Node24 -->
<g id="node24" class="node"><title>Node24</title>
<polygon fill="none" stroke="#bfbfbf" points="344,-56.5 344,-75.5 394,-75.5 394,-56.5 344,-56.5"/>
<text text-anchor="middle" x="369" y="-63.5" font-family="Helvetica,sans-Serif" font-size="10.00">fstream</text>
</g>
<!-- Node6&#45;&gt;Node24 -->
<g id="edge24" class="edge"><title>Node6&#45;&gt;Node24</title>
<path fill="none" stroke="midnightblue" d="M1547.87,-120.596C1355.04,-118.787 648.994,-110.037 404.039,-75.7527"/>
<polygon fill="midnightblue" stroke="midnightblue" points="404.521,-72.286 394.121,-74.3122 403.514,-79.2133 404.521,-72.286"/>
</g>
<!-- Node25 -->
<g id="node25" class="node"><title>Node25</title>
<polygon fill="none" stroke="#bfbfbf" points="412.5,-56.5 412.5,-75.5 457.5,-75.5 457.5,-56.5 412.5,-56.5"/>
<text text-anchor="middle" x="435" y="-63.5" font-family="Helvetica,sans-Serif" font-size="10.00">iosfwd</text>
</g>
<!-- Node6&#45;&gt;Node25 -->
<g id="edge25" class="edge"><title>Node6&#45;&gt;Node25</title>
<path fill="none" stroke="midnightblue" d="M1547.94,-120.574C1361.97,-118.727 699.745,-109.969 467.643,-75.6071"/>
<polygon fill="midnightblue" stroke="midnightblue" points="467.996,-72.1202 457.58,-74.0575 466.931,-79.0387 467.996,-72.1202"/>
</g>
<!-- Node26 -->
<g id="node26" class="node"><title>Node26</title>
<polygon fill="none" stroke="#bfbfbf" points="476,-56.5 476,-75.5 528,-75.5 528,-56.5 476,-56.5"/>
<text text-anchor="middle" x="502" y="-63.5" font-family="Helvetica,sans-Serif" font-size="10.00">sstream</text>
</g>
<!-- Node6&#45;&gt;Node26 -->
<g id="edge26" class="edge"><title>Node6&#45;&gt;Node26</title>
<path fill="none" stroke="midnightblue" d="M1547.93,-120.279C1369.62,-117.452 755.55,-105.84 538.295,-75.8223"/>
<polygon fill="midnightblue" stroke="midnightblue" points="538.649,-72.3373 528.253,-74.379 537.653,-79.2661 538.649,-72.3373"/>
</g>
<!-- Node27 -->
<g id="node27" class="node"><title>Node27</title>
<polygon fill="none" stroke="#bfbfbf" points="546,-56.5 546,-75.5 614,-75.5 614,-56.5 546,-56.5"/>
<text text-anchor="middle" x="580" y="-63.5" font-family="Helvetica,sans-Serif" font-size="10.00">sys/types.h</text>
</g>
<!-- Node6&#45;&gt;Node27 -->
<g id="edge27" class="edge"><title>Node6&#45;&gt;Node27</title>
<path fill="none" stroke="midnightblue" d="M1547.86,-121.5C1405.97,-122.356 983.383,-120.763 624.256,-75.9407"/>
<polygon fill="midnightblue" stroke="midnightblue" points="624.543,-72.4493 614.184,-74.6701 623.667,-79.3942 624.543,-72.4493"/>
</g>
<!-- Node28 -->
<g id="node28" class="node"><title>Node28</title>
<polygon fill="none" stroke="#bfbfbf" points="632,-56.5 632,-75.5 692,-75.5 692,-56.5 632,-56.5"/>
<text text-anchor="middle" x="662" y="-63.5" font-family="Helvetica,sans-Serif" font-size="10.00">sys/stat.h</text>
</g>
<!-- Node6&#45;&gt;Node28 -->
<g id="edge28" class="edge"><title>Node6&#45;&gt;Node28</title>
<path fill="none" stroke="midnightblue" d="M1547.66,-121.567C1413.28,-122.464 1029.46,-120.705 702.286,-75.9142"/>
<polygon fill="midnightblue" stroke="midnightblue" points="702.521,-72.4135 692.136,-74.5081 701.561,-79.3473 702.521,-72.4135"/>
</g>
<!-- Node29 -->
<g id="node29" class="node"><title>Node29</title>
<polygon fill="none" stroke="#bfbfbf" points="710.5,-56.5 710.5,-75.5 761.5,-75.5 761.5,-56.5 710.5,-56.5"/>
<text text-anchor="middle" x="736" y="-63.5" font-family="Helvetica,sans-Serif" font-size="10.00">unistd.h</text>
</g>
<!-- Node6&#45;&gt;Node29 -->
<g id="edge29" class="edge"><title>Node6&#45;&gt;Node29</title>
<path fill="none" stroke="midnightblue" d="M1547.77,-121.686C1420.65,-122.742 1071.01,-121.088 772.042,-75.8195"/>
<polygon fill="midnightblue" stroke="midnightblue" points="772.291,-72.3168 761.875,-74.2601 771.229,-79.2358 772.291,-72.3168"/>
</g>
<!-- Node30 -->
<g id="node30" class="node"><title>Node30</title>
<polygon fill="none" stroke="#bfbfbf" points="780,-56.5 780,-75.5 826,-75.5 826,-56.5 780,-56.5"/>
<text text-anchor="middle" x="803" y="-63.5" font-family="Helvetica,sans-Serif" font-size="10.00">dlfcn.h</text>
</g>
<!-- Node6&#45;&gt;Node30 -->
<g id="edge30" class="edge"><title>Node6&#45;&gt;Node30</title>
<path fill="none" stroke="midnightblue" d="M1547.56,-121.74C1427.08,-122.763 1108.85,-120.765 836.367,-75.8593"/>
<polygon fill="midnightblue" stroke="midnightblue" points="836.727,-72.371 826.287,-74.1747 835.573,-79.2752 836.727,-72.371"/>
</g>
<!-- Node31 -->
<g id="node31" class="node"><title>Node31</title>
<polygon fill="none" stroke="#bfbfbf" points="844,-56.5 844,-75.5 922,-75.5 922,-56.5 844,-56.5"/>
<text text-anchor="middle" x="883" y="-63.5" font-family="Helvetica,sans-Serif" font-size="10.00">ext/hash_map</text>
</g>
<!-- Node6&#45;&gt;Node31 -->
<g id="edge31" class="edge"><title>Node6&#45;&gt;Node31</title>
<path fill="none" stroke="midnightblue" d="M1547.93,-119.664C1438.96,-116.271 1168.45,-105.495 932.383,-76.0274"/>
<polygon fill="midnightblue" stroke="midnightblue" points="932.593,-72.5261 922.233,-74.746 931.716,-79.471 932.593,-72.5261"/>
</g>
<!-- Node32 -->
<g id="node32" class="node"><title>Node32</title>
<polygon fill="none" stroke="#bfbfbf" points="940.5,-56.5 940.5,-75.5 1013.5,-75.5 1013.5,-56.5 940.5,-56.5"/>
<text text-anchor="middle" x="977" y="-63.5" font-family="Helvetica,sans-Serif" font-size="10.00">ext/hash_set</text>
</g>
<!-- Node6&#45;&gt;Node32 -->
<g id="edge32" class="edge"><title>Node6&#45;&gt;Node32</title>
<path fill="none" stroke="midnightblue" d="M1547.94,-119.136C1450.04,-114.988 1223.35,-103.244 1023.86,-76.114"/>
<polygon fill="midnightblue" stroke="midnightblue" points="1024.16,-72.623 1013.78,-74.7267 1023.21,-79.5576 1024.16,-72.623"/>
</g>
<!-- Node33 -->
<g id="node33" class="node"><title>Node33</title>
<polygon fill="none" stroke="#bfbfbf" points="1031.5,-56.5 1031.5,-75.5 1102.5,-75.5 1102.5,-56.5 1031.5,-56.5"/>
<text text-anchor="middle" x="1067" y="-63.5" font-family="Helvetica,sans-Serif" font-size="10.00">sys/param.h</text>
</g>
<!-- Node6&#45;&gt;Node33 -->
<g id="edge33" class="edge"><title>Node6&#45;&gt;Node33</title>
<path fill="none" stroke="midnightblue" d="M1547.92,-118.154C1461.93,-112.796 1278.3,-99.6995 1113.15,-76.0142"/>
<polygon fill="midnightblue" stroke="midnightblue" points="1113.2,-72.4851 1102.8,-74.5126 1112.2,-79.4125 1113.2,-72.4851"/>
</g>
<!-- Node34 -->
<g id="node34" class="node"><title>Node34</title>
<polygon fill="none" stroke="#bfbfbf" points="1121,-56.5 1121,-75.5 1287,-75.5 1287,-56.5 1121,-56.5"/>
<text text-anchor="middle" x="1204" y="-63.5" font-family="Helvetica,sans-Serif" font-size="10.00">CoreFoundation/CoreFoundation.h</text>
</g>
<!-- Node6&#45;&gt;Node34 -->
<g id="edge34" class="edge"><title>Node6&#45;&gt;Node34</title>
<path fill="none" stroke="midnightblue" d="M1547.62,-114.216C1479.26,-104.822 1355.31,-87.7902 1276.45,-76.9548"/>
<polygon fill="midnightblue" stroke="midnightblue" points="1276.49,-73.428 1266.11,-75.5341 1275.54,-80.3628 1276.49,-73.428"/>
</g>
<!-- Node35 -->
<g id="node35" class="node"><title>Node35</title>
<polygon fill="none" stroke="#bfbfbf" points="1305,-56.5 1305,-75.5 1429,-75.5 1429,-56.5 1305,-56.5"/>
<text text-anchor="middle" x="1367" y="-63.5" font-family="Helvetica,sans-Serif" font-size="10.00">emscripten/emscripten.h</text>
</g>
<!-- Node6&#45;&gt;Node35 -->
<g id="edge35" class="edge"><title>Node6&#45;&gt;Node35</title>
<path fill="none" stroke="midnightblue" d="M1560.56,-112.444C1520.6,-103.063 1456.41,-87.9926 1413.02,-77.8036"/>
<polygon fill="midnightblue" stroke="midnightblue" points="1413.81,-74.3948 1403.27,-75.5164 1412.21,-81.2095 1413.81,-74.3948"/>
</g>
<!-- Node37 -->
<g id="node37" class="node"><title>Node37</title>
<g id="a_node37"><a xlink:href="_ogre_memory_allocated_object_8h.html" target="_top" xlink:title="OgreMemoryAllocatedObject.h">
<polygon fill="none" stroke="black" points="2624,-56.5 2624,-75.5 2774,-75.5 2774,-56.5 2624,-56.5"/>
<text text-anchor="middle" x="2699" y="-63.5" font-family="Helvetica,sans-Serif" font-size="10.00">OgreMemoryAllocatedObject.h</text>
</a>
</g>
</g>
<!-- Node36&#45;&gt;Node37 -->
<g id="edge37" class="edge"><title>Node36&#45;&gt;Node37</title>
<path fill="none" stroke="midnightblue" d="M2842.9,-112.444C2814.01,-103.32 2768.08,-88.8133 2735.89,-78.6509"/>
<polygon fill="midnightblue" stroke="midnightblue" points="2736.56,-75.1903 2725.97,-75.5164 2734.45,-81.8654 2736.56,-75.1903"/>
</g>
<!-- Node36&#45;&gt;Node38 -->
<g id="edge41" class="edge"><title>Node36&#45;&gt;Node38</title>
<path fill="none" stroke="midnightblue" d="M2941.16,-112.493C2995.12,-104.906 3063.82,-92.4555 3087,-76 3103.06,-64.5966 3113.67,-44.3089 3119.72,-29.4233"/>
<polygon fill="midnightblue" stroke="midnightblue" points="3123.11,-30.3361 3123.32,-19.7434 3116.55,-27.892 3123.11,-30.3361"/>
</g>
<!-- Node36&#45;&gt;Node39 -->
<g id="edge49" class="edge"><title>Node36&#45;&gt;Node39</title>
<path fill="none" stroke="midnightblue" d="M2795.94,-114.066C2744.22,-107.752 2674.12,-96.2234 2615,-76 2596.94,-69.8232 2595.48,-60.7523 2577,-56 2461.05,-26.1894 611.84,-13.5559 248.634,-11.3562"/>
<polygon fill="midnightblue" stroke="midnightblue" points="248.595,-7.85597 238.574,-11.2956 248.553,-14.8558 248.595,-7.85597"/>
</g>
<!-- Node40 -->
<g id="node40" class="node"><title>Node40</title>
<g id="a_node40"><a xlink:href="_ogre_memory_s_t_l_allocator_8h.html" target="_top" xlink:title="OgreMemorySTLAllocator.h">
<polygon fill="none" stroke="black" points="2941.5,-56.5 2941.5,-75.5 3078.5,-75.5 3078.5,-56.5 2941.5,-56.5"/>
<text text-anchor="middle" x="3010" y="-63.5" font-family="Helvetica,sans-Serif" font-size="10.00">OgreMemorySTLAllocator.h</text>
</a>
</g>
</g>
<!-- Node36&#45;&gt;Node40 -->
<g id="edge42" class="edge"><title>Node36&#45;&gt;Node40</title>
<path fill="none" stroke="midnightblue" d="M2892.18,-112.444C2915.43,-103.478 2952.15,-89.314 2978.42,-79.1827"/>
<polygon fill="midnightblue" stroke="midnightblue" points="2979.85,-82.3807 2987.92,-75.5164 2977.33,-75.8497 2979.85,-82.3807"/>
</g>
<!-- Node41 -->
<g id="node41" class="node"><title>Node41</title>
<g id="a_node41"><a xlink:href="_ogre_memory_ned_pooling_8h.html" target="_top" xlink:title="OgreMemoryNedPooling.h">
<polygon fill="none" stroke="black" points="2792.5,-56.5 2792.5,-75.5 2923.5,-75.5 2923.5,-56.5 2792.5,-56.5"/>
<text text-anchor="middle" x="2858" y="-63.5" font-family="Helvetica,sans-Serif" font-size="10.00">OgreMemoryNedPooling.h</text>
</a>
</g>
</g>
<!-- Node36&#45;&gt;Node41 -->
<g id="edge46" class="edge"><title>Node36&#45;&gt;Node41</title>
<path fill="none" stroke="midnightblue" d="M2868.02,-112.083C2866.43,-104.927 2864.14,-94.6353 2862.15,-85.6911"/>
<polygon fill="midnightblue" stroke="midnightblue" points="2865.53,-84.7537 2859.94,-75.7511 2858.7,-86.2722 2865.53,-84.7537"/>
</g>
<!-- Node37&#45;&gt;Node2 -->
<g id="edge38" class="edge"><title>Node37&#45;&gt;Node2</title>
<path fill="none" stroke="midnightblue" d="M2709.08,-75.5452C2724.94,-88.7396 2757.04,-114.386 2787,-132 2808.58,-144.686 2834.37,-156.303 2854.21,-164.555"/>
<polygon fill="midnightblue" stroke="midnightblue" points="2853.13,-167.894 2863.71,-168.438 2855.78,-161.415 2853.13,-167.894"/>
</g>
<!-- Node37&#45;&gt;Node38 -->
<g id="edge39" class="edge"><title>Node37&#45;&gt;Node38</title>
<path fill="none" stroke="midnightblue" d="M2766.66,-56.4435C2848.47,-46.0978 2985,-28.8316 3064.12,-18.8254"/>
<polygon fill="midnightblue" stroke="midnightblue" points="3064.94,-22.2499 3074.42,-17.5228 3064.06,-15.3052 3064.94,-22.2499"/>
</g>
<!-- Node37&#45;&gt;Node39 -->
<g id="edge40" class="edge"><title>Node37&#45;&gt;Node39</title>
<path fill="none" stroke="midnightblue" d="M2623.77,-56.9539C2619.12,-56.5918 2614.5,-56.2686 2610,-56 2130.65,-27.3605 579.627,-14.0162 249.252,-11.4615"/>
<polygon fill="midnightblue" stroke="midnightblue" points="248.951,-7.95914 238.924,-11.3821 248.897,-14.9589 248.951,-7.95914"/>
</g>
<!-- Node40&#45;&gt;Node2 -->
<g id="edge43" class="edge"><title>Node40&#45;&gt;Node2</title>
<path fill="none" stroke="midnightblue" d="M3003.61,-75.6326C2993.67,-88.7199 2973.52,-113.964 2953,-132 2939.66,-143.726 2923.11,-154.872 2909.79,-163.138"/>
<polygon fill="midnightblue" stroke="midnightblue" points="2907.9,-160.191 2901.17,-168.372 2911.53,-166.174 2907.9,-160.191"/>
</g>
<!-- Node40&#45;&gt;Node38 -->
<g id="edge44" class="edge"><title>Node40&#45;&gt;Node38</title>
<path fill="none" stroke="midnightblue" d="M3028.38,-56.4435C3047.22,-47.6751 3076.73,-33.9355 3098.38,-23.8579"/>
<polygon fill="midnightblue" stroke="midnightblue" points="3100.12,-26.9098 3107.71,-19.5164 3097.16,-20.5637 3100.12,-26.9098"/>
</g>
<!-- Node40&#45;&gt;Node39 -->
<g id="edge45" class="edge"><title>Node40&#45;&gt;Node39</title>
<path fill="none" stroke="midnightblue" d="M2941.13,-56.681C2938.05,-56.426 2934.99,-56.1967 2932,-56 2384.81,-20.0338 603.53,-12.3671 248.777,-11.1841"/>
<polygon fill="midnightblue" stroke="midnightblue" points="248.712,-7.68401 238.7,-11.151 248.689,-14.684 248.712,-7.68401"/>
</g>
<!-- Node41&#45;&gt;Node38 -->
<g id="edge47" class="edge"><title>Node41&#45;&gt;Node38</title>
<path fill="none" stroke="midnightblue" d="M2900.47,-56.4435C2947.41,-46.9839 3023.08,-31.7384 3073.65,-21.5472"/>
<polygon fill="midnightblue" stroke="midnightblue" points="3074.62,-24.9228 3083.73,-19.5164 3073.24,-18.0607 3074.62,-24.9228"/>
</g>
<!-- Node41&#45;&gt;Node39 -->
<g id="edge48" class="edge"><title>Node41&#45;&gt;Node39</title>
<path fill="none" stroke="midnightblue" d="M2792.19,-56.7171C2789.08,-56.4478 2786.01,-56.2061 2783,-56 2267.38,-20.6866 592.549,-12.5306 248.948,-11.2139"/>
<polygon fill="midnightblue" stroke="midnightblue" points="248.713,-7.71304 238.7,-11.1751 248.686,-14.713 248.713,-7.71304"/>
</g>
<!-- Node42&#45;&gt;Node2 -->
<g id="edge52" class="edge"><title>Node42&#45;&gt;Node2</title>
<path fill="none" stroke="midnightblue" d="M3022.16,-336.177C3017.79,-323.277 3008.7,-298.766 2997,-280 2979.65,-252.186 2973.18,-246.133 2949,-224 2936.47,-212.535 2920.97,-201.426 2908.47,-193.115"/>
<polygon fill="midnightblue" stroke="midnightblue" points="2910.28,-190.117 2899.99,-187.592 2906.46,-195.982 2910.28,-190.117"/>
</g>
<!-- Node42&#45;&gt;Node38 -->
<g id="edge57" class="edge"><title>Node42&#45;&gt;Node38</title>
<path fill="none" stroke="midnightblue" d="M3076.64,-342.866C3145.55,-336.934 3259,-315.016 3259,-235 3259,-235 3259,-235 3259,-121 3259,-70.7254 3201.87,-39.1005 3162.5,-23.2746"/>
<polygon fill="midnightblue" stroke="midnightblue" points="3163.5,-19.9123 3152.91,-19.5897 3160.99,-26.4459 3163.5,-19.9123"/>
</g>
<!-- Node42&#45;&gt;Node39 -->
<g id="edge58" class="edge"><title>Node42&#45;&gt;Node39</title>
<path fill="none" stroke="midnightblue" d="M2973.47,-344.495C2577.86,-340.459 38,-311.562 38,-235 38,-235 38,-235 38,-121 38,-67.9401 99.9123,-37.5788 143.919,-22.7"/>
<polygon fill="midnightblue" stroke="midnightblue" points="145.121,-25.99 153.561,-19.5867 142.97,-19.3285 145.121,-25.99"/>
</g>
<!-- Node43 -->
<g id="node43" class="node"><title>Node43</title>
<g id="a_node43"><a xlink:href="_ogre_matrix4_8h.html" target="_top" xlink:title="OgreMatrix4.h">
<polygon fill="none" stroke="red" points="2910,-280.5 2910,-299.5 2988,-299.5 2988,-280.5 2910,-280.5"/>
<text text-anchor="middle" x="2949" y="-287.5" font-family="Helvetica,sans-Serif" font-size="10.00">OgreMatrix4.h</text>
</a>
</g>
</g>
<!-- Node42&#45;&gt;Node43 -->
<g id="edge53" class="edge"><title>Node42&#45;&gt;Node43</title>
<path fill="none" stroke="midnightblue" d="M3012.79,-336.324C3001.22,-328.107 2983.62,-315.602 2969.84,-305.807"/>
<polygon fill="midnightblue" stroke="midnightblue" points="2971.61,-302.773 2961.43,-299.834 2967.56,-308.479 2971.61,-302.773"/>
</g>
<!-- Node43&#45;&gt;Node2 -->
<g id="edge54" class="edge"><title>Node43&#45;&gt;Node2</title>
<path fill="none" stroke="midnightblue" d="M2947.86,-280.476C2945.85,-267.531 2940.8,-242.47 2930,-224 2923.5,-212.88 2913.65,-202.457 2904.92,-194.448"/>
<polygon fill="midnightblue" stroke="midnightblue" points="2907.17,-191.771 2897.34,-187.821 2902.57,-197.04 2907.17,-191.771"/>
</g>
<!-- Node44 -->
<g id="node44" class="node"><title>Node44</title>
<g id="a_node44"><a xlink:href="_ogre_matrix3_8h.html" target="_top" xlink:title="OgreMatrix3.h">
<polygon fill="none" stroke="red" points="2843,-224.5 2843,-243.5 2921,-243.5 2921,-224.5 2843,-224.5"/>
<text text-anchor="middle" x="2882" y="-231.5" font-family="Helvetica,sans-Serif" font-size="10.00">OgreMatrix3.h</text>
</a>
</g>
</g>
<!-- Node43&#45;&gt;Node44 -->
<g id="edge55" class="edge"><title>Node43&#45;&gt;Node44</title>
<path fill="none" stroke="midnightblue" d="M2938.24,-280.324C2928.23,-272.263 2913.11,-260.077 2901.07,-250.369"/>
<polygon fill="midnightblue" stroke="midnightblue" points="2902.94,-247.384 2892.96,-243.834 2898.55,-252.834 2902.94,-247.384"/>
</g>
<!-- Node44&#45;&gt;Node2 -->
<g id="edge56" class="edge"><title>Node44&#45;&gt;Node2</title>
<path fill="none" stroke="midnightblue" d="M2882.66,-224.083C2883.18,-217.006 2883.94,-206.861 2884.59,-197.986"/>
<polygon fill="midnightblue" stroke="midnightblue" points="2888.1,-197.982 2885.35,-187.751 2881.12,-197.465 2888.1,-197.982"/>
</g>
<!-- Node45&#45;&gt;Node2 -->
<g id="edge60" class="edge"><title>Node45&#45;&gt;Node2</title>
<path fill="none" stroke="midnightblue" d="M3104.4,-280.064C3092.07,-266.104 3066.3,-239.155 3039,-224 3009.75,-207.761 2974.02,-196.826 2944.45,-189.806"/>
<polygon fill="midnightblue" stroke="midnightblue" points="2945.2,-186.388 2934.68,-187.573 2943.64,-193.213 2945.2,-186.388"/>
</g>
<!-- Node45&#45;&gt;Node38 -->
<g id="edge63" class="edge"><title>Node45&#45;&gt;Node38</title>
<path fill="none" stroke="midnightblue" d="M3137.14,-280.387C3155.05,-273.132 3178.6,-261.163 3194,-244 3214.89,-220.716 3221,-210.282 3221,-179 3221,-179 3221,-179 3221,-121 3221,-90.2048 3216.36,-79.9494 3197,-56 3186.01,-42.4072 3169.77,-31.6837 3155.59,-24.1197"/>
<polygon fill="midnightblue" stroke="midnightblue" points="3157.15,-20.987 3146.64,-19.607 3153.99,-27.2365 3157.15,-20.987"/>
</g>
<!-- Node45&#45;&gt;Node39 -->
<g id="edge64" class="edge"><title>Node45&#45;&gt;Node39</title>
<path fill="none" stroke="midnightblue" d="M3053.39,-284.381C2996.36,-278.758 2907.74,-267.009 2834,-244 2814.26,-237.842 2812.07,-228.98 2792,-224 2320.54,-106.995 1092.02,-173.132 608,-132 559.223,-127.855 203.34,-112.749 171,-76 159.522,-62.9571 166.906,-42.9805 175.037,-28.6166"/>
<polygon fill="midnightblue" stroke="midnightblue" points="178.258,-30.0644 180.563,-19.7233 172.312,-26.3702 178.258,-30.0644"/>
</g>
<!-- Node46 -->
<g id="node46" class="node"><title>Node46</title>
<g id="a_node46"><a xlink:href="_ogre_quaternion_8h.html" target="_top" xlink:title="OgreQuaternion.h">
<polygon fill="none" stroke="red" points="3091.5,-224.5 3091.5,-243.5 3184.5,-243.5 3184.5,-224.5 3091.5,-224.5"/>
<text text-anchor="middle" x="3138" y="-231.5" font-family="Helvetica,sans-Serif" font-size="10.00">OgreQuaternion.h</text>
</a>
</g>
</g>
<!-- Node45&#45;&gt;Node46 -->
<g id="edge61" class="edge"><title>Node45&#45;&gt;Node46</title>
<path fill="none" stroke="midnightblue" d="M3116.29,-280.083C3119.85,-272.691 3125.02,-261.953 3129.42,-252.811"/>
<polygon fill="midnightblue" stroke="midnightblue" points="3132.6,-254.279 3133.79,-243.751 3126.29,-251.243 3132.6,-254.279"/>
</g>
<!-- Node46&#45;&gt;Node2 -->
<g id="edge62" class="edge"><title>Node46&#45;&gt;Node2</title>
<path fill="none" stroke="midnightblue" d="M3098.07,-224.444C3054.11,-215.023 2983.37,-199.866 2935.82,-189.675"/>
<polygon fill="midnightblue" stroke="midnightblue" points="2936.25,-186.189 2925.74,-187.516 2934.79,-193.034 2936.25,-186.189"/>
</g>
<!-- Node47&#45;&gt;Node2 -->
<g id="edge66" class="edge"><title>Node47&#45;&gt;Node2</title>
<path fill="none" stroke="midnightblue" d="M2635.86,-280.383C2636.13,-266.372 2638.84,-238.736 2655,-224 2679.29,-201.845 2764.34,-189.761 2824.15,-183.842"/>
<polygon fill="midnightblue" stroke="midnightblue" points="2824.64,-187.311 2834.26,-182.876 2823.97,-180.343 2824.64,-187.311"/>
</g>
<!-- Node47&#45;&gt;Node38 -->
<g id="edge76" class="edge"><title>Node47&#45;&gt;Node38</title>
<path fill="none" stroke="midnightblue" d="M2670.31,-289.658C2726.98,-289.484 2842.56,-283.732 2930,-244 3035.38,-196.116 3080.24,-180.976 3129,-76 3135.69,-61.5923 3134.13,-43.3997 3131.36,-29.928"/>
<polygon fill="midnightblue" stroke="midnightblue" points="3134.68,-28.7881 3128.9,-19.9087 3127.88,-30.4544 3134.68,-28.7881"/>
</g>
<!-- Node47&#45;&gt;Node39 -->
<g id="edge77" class="edge"><title>Node47&#45;&gt;Node39</title>
<path fill="none" stroke="midnightblue" d="M2601.75,-288.458C2297.96,-283.541 76,-245.311 76,-179 76,-179 76,-179 76,-121 76,-74.8239 125.063,-41.4259 157.952,-24.2256"/>
<polygon fill="midnightblue" stroke="midnightblue" points="159.786,-27.221 167.155,-19.6087 156.648,-20.9641 159.786,-27.221"/>
</g>
<!-- Node48 -->
<g id="node48" class="node"><title>Node48</title>
<g id="a_node48"><a xlink:href="_ogre_common_8h.html" target="_top" xlink:title="OgreCommon.h">
<polygon fill="none" stroke="black" points="180,-56.5 180,-75.5 266,-75.5 266,-56.5 180,-56.5"/>
<text text-anchor="middle" x="223" y="-63.5" font-family="Helvetica,sans-Serif" font-size="10.00">OgreCommon.h</text>
</a>
</g>
</g>
<!-- Node47&#45;&gt;Node48 -->
<g id="edge67" class="edge"><title>Node47&#45;&gt;Node48</title>
<path fill="none" stroke="midnightblue" d="M2601.81,-287.499C2406.58,-278.692 1413.31,-230.685 608,-132 488.636,-117.373 349.817,-91.8032 275.831,-77.4818"/>
<polygon fill="midnightblue" stroke="midnightblue" points="276.314,-74.0103 265.83,-75.5379 274.978,-80.8817 276.314,-74.0103"/>
</g>
<!-- Node49 -->
<g id="node49" class="node"><title>Node49</title>
<g id="a_node49"><a xlink:href="_ogre_hardware_vertex_buffer_8h.html" target="_top" xlink:title="OgreHardwareVertexBuffer.h">
<polygon fill="none" stroke="red" points="2464.5,-224.5 2464.5,-243.5 2607.5,-243.5 2607.5,-224.5 2464.5,-224.5"/>
<text text-anchor="middle" x="2536" y="-231.5" font-family="Helvetica,sans-Serif" font-size="10.00">OgreHardwareVertexBuffer.h</text>
</a>
</g>
</g>
<!-- Node47&#45;&gt;Node49 -->
<g id="edge70" class="edge"><title>Node47&#45;&gt;Node49</title>
<path fill="none" stroke="midnightblue" d="M2619.93,-280.324C2604.04,-271.743 2579.49,-258.486 2561.04,-248.522"/>
<polygon fill="midnightblue" stroke="midnightblue" points="2562.49,-245.326 2552.03,-243.655 2559.16,-251.486 2562.49,-245.326"/>
</g>
<!-- Node50 -->
<g id="node50" class="node"><title>Node50</title>
<g id="a_node50"><a xlink:href="_ogre_iterator_wrappers_8h.html" target="_top" xlink:title="OgreIteratorWrappers.h">
<polygon fill="none" stroke="red" points="2664.5,-224.5 2664.5,-243.5 2783.5,-243.5 2783.5,-224.5 2664.5,-224.5"/>
<text text-anchor="middle" x="2724" y="-231.5" font-family="Helvetica,sans-Serif" font-size="10.00">OgreIteratorWrappers.h</text>
</a>
</g>
</g>
<!-- Node47&#45;&gt;Node50 -->
<g id="edge74" class="edge"><title>Node47&#45;&gt;Node50</title>
<path fill="none" stroke="midnightblue" d="M2650.14,-280.324C2663.87,-271.9 2684.94,-258.971 2701.06,-249.074"/>
<polygon fill="midnightblue" stroke="midnightblue" points="2703.2,-251.868 2709.9,-243.655 2699.54,-245.902 2703.2,-251.868"/>
</g>
<!-- Node48&#45;&gt;Node38 -->
<g id="edge68" class="edge"><title>Node48&#45;&gt;Node38</title>
<path fill="none" stroke="midnightblue" d="M266.061,-57.016C269.079,-56.6201 272.081,-56.274 275,-56 561.101,-29.148 2673.66,-13.9859 3064.05,-11.3984"/>
<polygon fill="midnightblue" stroke="midnightblue" points="3064.32,-14.8968 3074.3,-11.3308 3064.28,-7.89694 3064.32,-14.8968"/>
</g>
<!-- Node48&#45;&gt;Node39 -->
<g id="edge69" class="edge"><title>Node48&#45;&gt;Node39</title>
<path fill="none" stroke="midnightblue" d="M217.055,-56.083C212.023,-48.5341 204.663,-37.4948 198.487,-28.2298"/>
<polygon fill="midnightblue" stroke="midnightblue" points="201.293,-26.1301 192.834,-19.7511 195.469,-30.0131 201.293,-26.1301"/>
</g>
<!-- Node49&#45;&gt;Node2 -->
<g id="edge71" class="edge"><title>Node49&#45;&gt;Node2</title>
<path fill="none" stroke="midnightblue" d="M2591.46,-224.444C2654.76,-214.676 2758.05,-198.741 2823.98,-188.569"/>
<polygon fill="midnightblue" stroke="midnightblue" points="2824.87,-191.972 2834.22,-186.988 2823.81,-185.054 2824.87,-191.972"/>
</g>
<!-- Node49&#45;&gt;Node38 -->
<g id="edge72" class="edge"><title>Node49&#45;&gt;Node38</title>
<path fill="none" stroke="midnightblue" d="M2577.52,-224.458C2652.94,-208.606 2817.21,-172.541 2953,-132 3023.99,-110.807 3060.33,-130.969 3110,-76 3121.31,-63.4804 3124.94,-44.2545 3125.96,-29.956"/>
<polygon fill="midnightblue" stroke="midnightblue" points="3129.46,-29.8839 3126.32,-19.7675 3122.47,-29.6388 3129.46,-29.8839"/>
</g>
<!-- Node49&#45;&gt;Node39 -->
<g id="edge73" class="edge"><title>Node49&#45;&gt;Node39</title>
<path fill="none" stroke="midnightblue" d="M2464.23,-232.216C2132.29,-228.211 743.914,-207.193 317,-132 234.906,-117.541 187.365,-143.169 138,-76 125.126,-58.4831 145.416,-38.5481 163.663,-25.4259"/>
<polygon fill="midnightblue" stroke="midnightblue" points="165.987,-28.079 172.302,-19.5718 162.06,-22.2841 165.987,-28.079"/>
</g>
<!-- Node50&#45;&gt;Node2 -->
<g id="edge75" class="edge"><title>Node50&#45;&gt;Node2</title>
<path fill="none" stroke="midnightblue" d="M2749.67,-224.444C2776.92,-215.359 2820.18,-200.939 2850.65,-190.783"/>
<polygon fill="midnightblue" stroke="midnightblue" points="2852.07,-193.999 2860.45,-187.516 2849.86,-187.358 2852.07,-193.999"/>
</g>
</g>
</svg>
