<?xml version="1.0" encoding="UTF-8" standalone="no"?>
<!DOCTYPE svg PUBLIC "-//W3C//DTD SVG 1.1//EN"
 "http://www.w3.org/Graphics/SVG/1.1/DTD/svg11.dtd">
<!-- Generated by graphviz version 2.38.0 (20140413.2041)
 -->
<!-- Title: OgreShaderSubRenderState.h Pages: 1 -->
<svg width="2805pt" height="476pt"
 viewBox="0.00 0.00 2805.00 476.00" xmlns="http://www.w3.org/2000/svg" xmlns:xlink="http://www.w3.org/1999/xlink">
<g id="graph0" class="graph" transform="scale(1 1) rotate(0) translate(4 472)">
<title>OgreShaderSubRenderState.h</title>
<!-- Node1 -->
<g id="node1" class="node"><title>Node1</title>
<polygon fill="#bfbfbf" stroke="black" points="453.5,-448.5 453.5,-467.5 602.5,-467.5 602.5,-448.5 453.5,-448.5"/>
<text text-anchor="middle" x="528" y="-455.5" font-family="Helvetica,sans-Serif" font-size="10.00">OgreShaderSubRenderState.h</text>
</g>
<!-- Node2 -->
<g id="node2" class="node"><title>Node2</title>
<g id="a_node2"><a xlink:href="_ogre_shader_prerequisites_8h.html" target="_top" xlink:title="OgreShaderPrerequisites.h">
<polygon fill="none" stroke="black" points="511,-336.5 511,-355.5 645,-355.5 645,-336.5 511,-336.5"/>
<text text-anchor="middle" x="578" y="-343.5" font-family="Helvetica,sans-Serif" font-size="10.00">OgreShaderPrerequisites.h</text>
</a>
</g>
</g>
<!-- Node1&#45;&gt;Node2 -->
<g id="edge1" class="edge"><title>Node1&#45;&gt;Node2</title>
<path fill="none" stroke="midnightblue" d="M535.617,-448.278C542.828,-439.613 553.492,-425.677 560,-412 567.075,-397.131 571.809,-378.984 574.639,-365.647"/>
<polygon fill="midnightblue" stroke="midnightblue" points="578.089,-366.239 576.577,-355.753 571.22,-364.893 578.089,-366.239"/>
</g>
<!-- Node41 -->
<g id="node41" class="node"><title>Node41</title>
<g id="a_node41"><a xlink:href="_ogre_shader_script_translator_8h.html" target="_top" xlink:title="OgreShaderScriptTranslator.h">
<polygon fill="none" stroke="black" points="405,-392.5 405,-411.5 551,-411.5 551,-392.5 405,-392.5"/>
<text text-anchor="middle" x="478" y="-399.5" font-family="Helvetica,sans-Serif" font-size="10.00">OgreShaderScriptTranslator.h</text>
</a>
</g>
</g>
<!-- Node1&#45;&gt;Node41 -->
<g id="edge43" class="edge"><title>Node1&#45;&gt;Node41</title>
<path fill="none" stroke="midnightblue" d="M519.744,-448.083C512.535,-440.298 501.89,-428.801 493.154,-419.367"/>
<polygon fill="midnightblue" stroke="midnightblue" points="495.465,-416.711 486.103,-411.751 490.329,-421.467 495.465,-416.711"/>
</g>
<!-- Node3 -->
<g id="node3" class="node"><title>Node3</title>
<g id="a_node3"><a xlink:href="_ogre_prerequisites_8h.html" target="_top" xlink:title="OgrePrerequisites.h">
<polygon fill="none" stroke="black" points="703.5,-112.5 703.5,-131.5 806.5,-131.5 806.5,-112.5 703.5,-112.5"/>
<text text-anchor="middle" x="755" y="-119.5" font-family="Helvetica,sans-Serif" font-size="10.00">OgrePrerequisites.h</text>
</a>
</g>
</g>
<!-- Node2&#45;&gt;Node3 -->
<g id="edge2" class="edge"><title>Node2&#45;&gt;Node3</title>
<path fill="none" stroke="midnightblue" d="M645.286,-343.135C764.316,-339.136 1001.9,-327.739 1027,-300 1066.36,-256.497 1064.95,-212.741 1027,-168 1000.63,-136.905 888.886,-127.267 817.085,-124.299"/>
<polygon fill="midnightblue" stroke="midnightblue" points="816.922,-120.79 806.797,-123.908 816.656,-127.785 816.922,-120.79"/>
</g>
<!-- Node40 -->
<g id="node40" class="node"><title>Node40</title>
<g id="a_node40"><a xlink:href="_ogre_common_8h.html" target="_top" xlink:title="OgreCommon.h">
<polygon fill="none" stroke="black" points="180,-112.5 180,-131.5 266,-131.5 266,-112.5 180,-112.5"/>
<text text-anchor="middle" x="223" y="-119.5" font-family="Helvetica,sans-Serif" font-size="10.00">OgreCommon.h</text>
</a>
</g>
</g>
<!-- Node2&#45;&gt;Node40 -->
<g id="edge40" class="edge"><title>Node2&#45;&gt;Node40</title>
<path fill="none" stroke="midnightblue" d="M510.64,-338.943C426.269,-330.767 290.565,-315.436 273,-300 226.467,-259.106 221.747,-178.542 222.19,-141.919"/>
<polygon fill="midnightblue" stroke="midnightblue" points="225.695,-141.77 222.468,-131.679 218.698,-141.58 225.695,-141.77"/>
</g>
<!-- Node4 -->
<g id="node4" class="node"><title>Node4</title>
<g id="a_node4"><a xlink:href="_ogre_platform_8h.html" target="_top" xlink:title="OgrePlatform.h">
<polygon fill="none" stroke="black" points="2144.5,-56.5 2144.5,-75.5 2227.5,-75.5 2227.5,-56.5 2144.5,-56.5"/>
<text text-anchor="middle" x="2186" y="-63.5" font-family="Helvetica,sans-Serif" font-size="10.00">OgrePlatform.h</text>
</a>
</g>
</g>
<!-- Node3&#45;&gt;Node4 -->
<g id="edge3" class="edge"><title>Node3&#45;&gt;Node4</title>
<path fill="none" stroke="midnightblue" d="M806.775,-119.046C1030.21,-110.615 1910.64,-77.3908 2134.18,-68.9556"/>
<polygon fill="midnightblue" stroke="midnightblue" points="2134.46,-72.4476 2144.32,-68.5729 2134.19,-65.4525 2134.46,-72.4476"/>
</g>
<!-- Node6 -->
<g id="node6" class="node"><title>Node6</title>
<polygon fill="none" stroke="#bfbfbf" points="513.5,-0.5 513.5,-19.5 554.5,-19.5 554.5,-0.5 513.5,-0.5"/>
<text text-anchor="middle" x="534" y="-7.5" font-family="Helvetica,sans-Serif" font-size="10.00">string</text>
</g>
<!-- Node3&#45;&gt;Node6 -->
<g id="edge5" class="edge"><title>Node3&#45;&gt;Node6</title>
<path fill="none" stroke="midnightblue" d="M746.315,-112.198C732.279,-98.4213 703.216,-71.7194 674,-56 669.023,-53.3223 603.942,-32.8166 564.29,-20.4287"/>
<polygon fill="midnightblue" stroke="midnightblue" points="565.158,-17.0333 554.57,-17.3954 563.073,-23.7155 565.158,-17.0333"/>
</g>
<!-- Node7 -->
<g id="node7" class="node"><title>Node7</title>
<g id="a_node7"><a xlink:href="_ogre_std_headers_8h.html" target="_top" xlink:title="OgreStdHeaders.h">
<polygon fill="none" stroke="black" points="1454,-56.5 1454,-75.5 1552,-75.5 1552,-56.5 1454,-56.5"/>
<text text-anchor="middle" x="1503" y="-63.5" font-family="Helvetica,sans-Serif" font-size="10.00">OgreStdHeaders.h</text>
</a>
</g>
</g>
<!-- Node3&#45;&gt;Node7 -->
<g id="edge6" class="edge"><title>Node3&#45;&gt;Node7</title>
<path fill="none" stroke="midnightblue" d="M806.708,-117.267C941.077,-107.567 1300.71,-81.6035 1443.44,-71.2999"/>
<polygon fill="midnightblue" stroke="midnightblue" points="1444.02,-74.7674 1453.74,-70.5563 1443.51,-67.7855 1444.02,-74.7674"/>
</g>
<!-- Node37 -->
<g id="node37" class="node"><title>Node37</title>
<g id="a_node37"><a xlink:href="_ogre_memory_allocator_config_8h.html" target="_top" xlink:title="This file configures Ogre&#39;s memory allocators. ">
<polygon fill="none" stroke="red" points="370,-56.5 370,-75.5 518,-75.5 518,-56.5 370,-56.5"/>
<text text-anchor="middle" x="444" y="-63.5" font-family="Helvetica,sans-Serif" font-size="10.00">OgreMemoryAllocatorConfig.h</text>
</a>
</g>
</g>
<!-- Node3&#45;&gt;Node37 -->
<g id="edge37" class="edge"><title>Node3&#45;&gt;Node37</title>
<path fill="none" stroke="midnightblue" d="M705.721,-112.444C650.672,-102.885 561.601,-87.4195 502.916,-77.2298"/>
<polygon fill="midnightblue" stroke="midnightblue" points="503.5,-73.7788 493.048,-75.5164 502.302,-80.6757 503.5,-73.7788"/>
</g>
<!-- Node5 -->
<g id="node5" class="node"><title>Node5</title>
<g id="a_node5"><a xlink:href="_ogre_config_8h.html" target="_top" xlink:title="OgreConfig.h">
<polygon fill="none" stroke="red" points="2723,-0.5 2723,-19.5 2797,-19.5 2797,-0.5 2723,-0.5"/>
<text text-anchor="middle" x="2760" y="-7.5" font-family="Helvetica,sans-Serif" font-size="10.00">OgreConfig.h</text>
</a>
</g>
</g>
<!-- Node4&#45;&gt;Node5 -->
<g id="edge4" class="edge"><title>Node4&#45;&gt;Node5</title>
<path fill="none" stroke="midnightblue" d="M2227.59,-62.9892C2315.38,-58.4137 2526.24,-45.6857 2712.91,-20.0069"/>
<polygon fill="midnightblue" stroke="midnightblue" points="2713.48,-23.461 2722.9,-18.6161 2712.51,-16.5278 2713.48,-23.461"/>
</g>
<!-- Node7&#45;&gt;Node6 -->
<g id="edge16" class="edge"><title>Node7&#45;&gt;Node6</title>
<path fill="none" stroke="midnightblue" d="M1453.76,-64.285C1288.82,-61.6375 755.865,-50.9799 564.683,-19.823"/>
<polygon fill="midnightblue" stroke="midnightblue" points="565.199,-16.3606 554.754,-18.1308 564.023,-23.2611 565.199,-16.3606"/>
</g>
<!-- Node8 -->
<g id="node8" class="node"><title>Node8</title>
<polygon fill="none" stroke="#bfbfbf" points="2066.5,-0.5 2066.5,-19.5 2115.5,-19.5 2115.5,-0.5 2066.5,-0.5"/>
<text text-anchor="middle" x="2091" y="-7.5" font-family="Helvetica,sans-Serif" font-size="10.00">cassert</text>
</g>
<!-- Node7&#45;&gt;Node8 -->
<g id="edge7" class="edge"><title>Node7&#45;&gt;Node8</title>
<path fill="none" stroke="midnightblue" d="M1552.01,-64.0693C1647.56,-61.5978 1865.43,-52.7413 2056.31,-20.0093"/>
<polygon fill="midnightblue" stroke="midnightblue" points="2056.99,-23.4437 2066.25,-18.2803 2055.79,-16.5474 2056.99,-23.4437"/>
</g>
<!-- Node9 -->
<g id="node9" class="node"><title>Node9</title>
<polygon fill="none" stroke="#bfbfbf" points="2133.5,-0.5 2133.5,-19.5 2176.5,-19.5 2176.5,-0.5 2133.5,-0.5"/>
<text text-anchor="middle" x="2155" y="-7.5" font-family="Helvetica,sans-Serif" font-size="10.00">cstdio</text>
</g>
<!-- Node7&#45;&gt;Node9 -->
<g id="edge8" class="edge"><title>Node7&#45;&gt;Node9</title>
<path fill="none" stroke="midnightblue" d="M1552.25,-65.0845C1656.43,-64.4802 1906.7,-58.8907 2123.22,-19.9674"/>
<polygon fill="midnightblue" stroke="midnightblue" points="2123.97,-23.3884 2133.18,-18.149 2122.71,-16.5023 2123.97,-23.3884"/>
</g>
<!-- Node10 -->
<g id="node10" class="node"><title>Node10</title>
<polygon fill="none" stroke="#bfbfbf" points="2194.5,-0.5 2194.5,-19.5 2239.5,-19.5 2239.5,-0.5 2194.5,-0.5"/>
<text text-anchor="middle" x="2217" y="-7.5" font-family="Helvetica,sans-Serif" font-size="10.00">cstdlib</text>
</g>
<!-- Node7&#45;&gt;Node10 -->
<g id="edge9" class="edge"><title>Node7&#45;&gt;Node10</title>
<path fill="none" stroke="midnightblue" d="M1552.3,-65.3938C1663.75,-65.5045 1943.55,-61.4036 2184.45,-19.9081"/>
<polygon fill="midnightblue" stroke="midnightblue" points="2185.2,-23.3307 2194.45,-18.1609 2183.99,-16.4353 2185.2,-23.3307"/>
</g>
<!-- Node11 -->
<g id="node11" class="node"><title>Node11</title>
<polygon fill="none" stroke="#bfbfbf" points="2257.5,-0.5 2257.5,-19.5 2298.5,-19.5 2298.5,-0.5 2257.5,-0.5"/>
<text text-anchor="middle" x="2278" y="-7.5" font-family="Helvetica,sans-Serif" font-size="10.00">ctime</text>
</g>
<!-- Node7&#45;&gt;Node11 -->
<g id="edge10" class="edge"><title>Node7&#45;&gt;Node11</title>
<path fill="none" stroke="midnightblue" d="M1552.08,-63.5808C1692.64,-59.2776 2095.83,-45.2079 2247.21,-19.8638"/>
<polygon fill="midnightblue" stroke="midnightblue" points="2248,-23.2791 2257.24,-18.0989 2246.79,-16.385 2248,-23.2791"/>
</g>
<!-- Node12 -->
<g id="node12" class="node"><title>Node12</title>
<polygon fill="none" stroke="#bfbfbf" points="2317,-0.5 2317,-19.5 2363,-19.5 2363,-0.5 2317,-0.5"/>
<text text-anchor="middle" x="2340" y="-7.5" font-family="Helvetica,sans-Serif" font-size="10.00">cstring</text>
</g>
<!-- Node7&#45;&gt;Node12 -->
<g id="edge11" class="edge"><title>Node7&#45;&gt;Node12</title>
<path fill="none" stroke="midnightblue" d="M1552.12,-63.6597C1700.37,-59.3976 2142.65,-45.0348 2306.78,-19.7838"/>
<polygon fill="midnightblue" stroke="midnightblue" points="2307.4,-23.2288 2316.71,-18.1834 2306.29,-16.3179 2307.4,-23.2288"/>
</g>
<!-- Node13 -->
<g id="node13" class="node"><title>Node13</title>
<polygon fill="none" stroke="#bfbfbf" points="2381.5,-0.5 2381.5,-19.5 2430.5,-19.5 2430.5,-0.5 2381.5,-0.5"/>
<text text-anchor="middle" x="2406" y="-7.5" font-family="Helvetica,sans-Serif" font-size="10.00">cstdarg</text>
</g>
<!-- Node7&#45;&gt;Node13 -->
<g id="edge12" class="edge"><title>Node7&#45;&gt;Node13</title>
<path fill="none" stroke="midnightblue" d="M1552.04,-63.7965C1708.15,-59.7598 2193.16,-45.579 2371.23,-19.707"/>
<polygon fill="midnightblue" stroke="midnightblue" points="2371.88,-23.1475 2381.24,-18.1871 2370.83,-16.2267 2371.88,-23.1475"/>
</g>
<!-- Node14 -->
<g id="node14" class="node"><title>Node14</title>
<polygon fill="none" stroke="#bfbfbf" points="2449,-0.5 2449,-19.5 2493,-19.5 2493,-0.5 2449,-0.5"/>
<text text-anchor="middle" x="2471" y="-7.5" font-family="Helvetica,sans-Serif" font-size="10.00">cmath</text>
</g>
<!-- Node7&#45;&gt;Node14 -->
<g id="edge13" class="edge"><title>Node7&#45;&gt;Node14</title>
<path fill="none" stroke="midnightblue" d="M1552.06,-64.1615C1716.41,-61.1195 2247.49,-49.3449 2438.85,-19.7303"/>
<polygon fill="midnightblue" stroke="midnightblue" points="2439.48,-23.1743 2448.79,-18.1235 2438.36,-16.2639 2439.48,-23.1743"/>
</g>
<!-- Node15 -->
<g id="node15" class="node"><title>Node15</title>
<polygon fill="none" stroke="#bfbfbf" points="2511,-0.5 2511,-19.5 2555,-19.5 2555,-0.5 2511,-0.5"/>
<text text-anchor="middle" x="2533" y="-7.5" font-family="Helvetica,sans-Serif" font-size="10.00">vector</text>
</g>
<!-- Node7&#45;&gt;Node15 -->
<g id="edge14" class="edge"><title>Node7&#45;&gt;Node15</title>
<path fill="none" stroke="midnightblue" d="M1552.25,-64.3281C1723.99,-61.748 2296.6,-51.0942 2500.77,-19.7375"/>
<polygon fill="midnightblue" stroke="midnightblue" points="2501.47,-23.1698 2510.79,-18.1316 2500.37,-16.2579 2501.47,-23.1698"/>
</g>
<!-- Node16 -->
<g id="node16" class="node"><title>Node16</title>
<polygon fill="none" stroke="#bfbfbf" points="2573.5,-0.5 2573.5,-19.5 2608.5,-19.5 2608.5,-0.5 2573.5,-0.5"/>
<text text-anchor="middle" x="2591" y="-7.5" font-family="Helvetica,sans-Serif" font-size="10.00">map</text>
</g>
<!-- Node7&#45;&gt;Node16 -->
<g id="edge15" class="edge"><title>Node7&#45;&gt;Node16</title>
<path fill="none" stroke="midnightblue" d="M1552.19,-64.7316C1730.93,-63.4785 2346.37,-56.667 2563.44,-19.4241"/>
<polygon fill="midnightblue" stroke="midnightblue" points="2564.24,-22.8356 2573.47,-17.6275 2563.01,-15.9453 2564.24,-22.8356"/>
</g>
<!-- Node17 -->
<g id="node17" class="node"><title>Node17</title>
<polygon fill="none" stroke="#bfbfbf" points="2627,-0.5 2627,-19.5 2657,-19.5 2657,-0.5 2627,-0.5"/>
<text text-anchor="middle" x="2642" y="-7.5" font-family="Helvetica,sans-Serif" font-size="10.00">set</text>
</g>
<!-- Node7&#45;&gt;Node17 -->
<g id="edge17" class="edge"><title>Node7&#45;&gt;Node17</title>
<path fill="none" stroke="midnightblue" d="M1552.22,-63.9348C1748.95,-59.5549 2474.62,-42.1919 2617.05,-19.2649"/>
<polygon fill="midnightblue" stroke="midnightblue" points="2617.77,-22.693 2626.98,-17.4618 2616.51,-15.8057 2617.77,-22.693"/>
</g>
<!-- Node18 -->
<g id="node18" class="node"><title>Node18</title>
<polygon fill="none" stroke="#bfbfbf" points="2675.5,-0.5 2675.5,-19.5 2704.5,-19.5 2704.5,-0.5 2675.5,-0.5"/>
<text text-anchor="middle" x="2690" y="-7.5" font-family="Helvetica,sans-Serif" font-size="10.00">list</text>
</g>
<!-- Node7&#45;&gt;Node18 -->
<g id="edge18" class="edge"><title>Node7&#45;&gt;Node18</title>
<path fill="none" stroke="midnightblue" d="M1552.22,-64.0227C1754.46,-59.8843 2517.34,-43.0281 2665.54,-19.0944"/>
<polygon fill="midnightblue" stroke="midnightblue" points="2666.28,-22.5173 2675.5,-17.2844 2665.03,-15.6303 2666.28,-22.5173"/>
</g>
<!-- Node19 -->
<g id="node19" class="node"><title>Node19</title>
<polygon fill="none" stroke="#bfbfbf" points="572.5,-0.5 572.5,-19.5 615.5,-19.5 615.5,-0.5 572.5,-0.5"/>
<text text-anchor="middle" x="594" y="-7.5" font-family="Helvetica,sans-Serif" font-size="10.00">deque</text>
</g>
<!-- Node7&#45;&gt;Node19 -->
<g id="edge19" class="edge"><title>Node7&#45;&gt;Node19</title>
<path fill="none" stroke="midnightblue" d="M1453.92,-64.0382C1296.52,-60.7148 804.705,-48.4173 625.866,-19.884"/>
<polygon fill="midnightblue" stroke="midnightblue" points="626.25,-16.3996 615.81,-18.2038 625.096,-23.3039 626.25,-16.3996"/>
</g>
<!-- Node20 -->
<g id="node20" class="node"><title>Node20</title>
<polygon fill="none" stroke="#bfbfbf" points="633.5,-0.5 633.5,-19.5 676.5,-19.5 676.5,-0.5 633.5,-0.5"/>
<text text-anchor="middle" x="655" y="-7.5" font-family="Helvetica,sans-Serif" font-size="10.00">queue</text>
</g>
<!-- Node7&#45;&gt;Node20 -->
<g id="edge20" class="edge"><title>Node7&#45;&gt;Node20</title>
<path fill="none" stroke="midnightblue" d="M1453.88,-63.8204C1304,-59.9862 853.131,-46.6524 686.875,-19.8924"/>
<polygon fill="midnightblue" stroke="midnightblue" points="687.254,-16.4071 676.811,-18.1939 686.089,-23.3095 687.254,-16.4071"/>
</g>
<!-- Node21 -->
<g id="node21" class="node"><title>Node21</title>
<polygon fill="none" stroke="#bfbfbf" points="694.5,-0.5 694.5,-19.5 735.5,-19.5 735.5,-0.5 694.5,-0.5"/>
<text text-anchor="middle" x="715" y="-7.5" font-family="Helvetica,sans-Serif" font-size="10.00">bitset</text>
</g>
<!-- Node7&#45;&gt;Node21 -->
<g id="edge21" class="edge"><title>Node7&#45;&gt;Node21</title>
<path fill="none" stroke="midnightblue" d="M1453.92,-63.5748C1311.85,-59.219 901.047,-44.9422 745.795,-19.6003"/>
<polygon fill="midnightblue" stroke="midnightblue" points="745.953,-16.0762 735.505,-17.8359 744.77,-22.9755 745.953,-16.0762"/>
</g>
<!-- Node22 -->
<g id="node22" class="node"><title>Node22</title>
<polygon fill="none" stroke="#bfbfbf" points="754,-0.5 754,-19.5 810,-19.5 810,-0.5 754,-0.5"/>
<text text-anchor="middle" x="782" y="-7.5" font-family="Helvetica,sans-Serif" font-size="10.00">algorithm</text>
</g>
<!-- Node7&#45;&gt;Node22 -->
<g id="edge22" class="edge"><title>Node7&#45;&gt;Node22</title>
<path fill="none" stroke="midnightblue" d="M1453.75,-64.6713C1342.38,-63.3031 1062.64,-56.3585 820.239,-19.9191"/>
<polygon fill="midnightblue" stroke="midnightblue" points="820.594,-16.4329 810.181,-18.3867 819.54,-23.3531 820.594,-16.4329"/>
</g>
<!-- Node23 -->
<g id="node23" class="node"><title>Node23</title>
<polygon fill="none" stroke="#bfbfbf" points="828.5,-0.5 828.5,-19.5 887.5,-19.5 887.5,-0.5 828.5,-0.5"/>
<text text-anchor="middle" x="858" y="-7.5" font-family="Helvetica,sans-Serif" font-size="10.00">functional</text>
</g>
<!-- Node7&#45;&gt;Node23 -->
<g id="edge23" class="edge"><title>Node7&#45;&gt;Node23</title>
<path fill="none" stroke="midnightblue" d="M1453.62,-63.8841C1351.57,-61.0276 1109.93,-51.4196 897.799,-19.8699"/>
<polygon fill="midnightblue" stroke="midnightblue" points="898.13,-16.3804 887.72,-18.3509 897.087,-23.3023 898.13,-16.3804"/>
</g>
<!-- Node24 -->
<g id="node24" class="node"><title>Node24</title>
<polygon fill="none" stroke="#bfbfbf" points="906,-0.5 906,-19.5 946,-19.5 946,-0.5 906,-0.5"/>
<text text-anchor="middle" x="926" y="-7.5" font-family="Helvetica,sans-Serif" font-size="10.00">limits</text>
</g>
<!-- Node7&#45;&gt;Node24 -->
<g id="edge24" class="edge"><title>Node7&#45;&gt;Node24</title>
<path fill="none" stroke="midnightblue" d="M1453.76,-64.5537C1358.9,-62.9186 1144.29,-55.4578 956.207,-19.8087"/>
<polygon fill="midnightblue" stroke="midnightblue" points="956.619,-16.3238 946.137,-17.868 955.294,-23.1973 956.619,-16.3238"/>
</g>
<!-- Node25 -->
<g id="node25" class="node"><title>Node25</title>
<polygon fill="none" stroke="#bfbfbf" points="964,-0.5 964,-19.5 1014,-19.5 1014,-0.5 964,-0.5"/>
<text text-anchor="middle" x="989" y="-7.5" font-family="Helvetica,sans-Serif" font-size="10.00">fstream</text>
</g>
<!-- Node7&#45;&gt;Node25 -->
<g id="edge25" class="edge"><title>Node7&#45;&gt;Node25</title>
<path fill="none" stroke="midnightblue" d="M1453.7,-62.9402C1366.49,-58.7258 1179.52,-47.1247 1024,-20 1023.9,-19.9825 1023.8,-19.9648 1023.7,-19.947"/>
<polygon fill="midnightblue" stroke="midnightblue" points="1024.63,-16.5664 1014.13,-17.9689 1023.22,-23.4214 1024.63,-16.5664"/>
</g>
<!-- Node26 -->
<g id="node26" class="node"><title>Node26</title>
<polygon fill="none" stroke="#bfbfbf" points="1032.5,-0.5 1032.5,-19.5 1077.5,-19.5 1077.5,-0.5 1032.5,-0.5"/>
<text text-anchor="middle" x="1055" y="-7.5" font-family="Helvetica,sans-Serif" font-size="10.00">iosfwd</text>
</g>
<!-- Node7&#45;&gt;Node26 -->
<g id="edge26" class="edge"><title>Node7&#45;&gt;Node26</title>
<path fill="none" stroke="midnightblue" d="M1453.93,-62.3439C1377.56,-57.6307 1225.57,-45.9352 1087.53,-19.7716"/>
<polygon fill="midnightblue" stroke="midnightblue" points="1088.1,-16.3167 1077.61,-17.8627 1086.77,-23.1904 1088.1,-16.3167"/>
</g>
<!-- Node27 -->
<g id="node27" class="node"><title>Node27</title>
<polygon fill="none" stroke="#bfbfbf" points="1096,-0.5 1096,-19.5 1148,-19.5 1148,-0.5 1096,-0.5"/>
<text text-anchor="middle" x="1122" y="-7.5" font-family="Helvetica,sans-Serif" font-size="10.00">sstream</text>
</g>
<!-- Node7&#45;&gt;Node27 -->
<g id="edge27" class="edge"><title>Node7&#45;&gt;Node27</title>
<path fill="none" stroke="midnightblue" d="M1453.99,-60.5335C1388.65,-54.1574 1269.24,-41.0433 1158.31,-20.0516"/>
<polygon fill="midnightblue" stroke="midnightblue" points="1158.78,-16.5765 1148.3,-18.1294 1157.46,-23.4511 1158.78,-16.5765"/>
</g>
<!-- Node28 -->
<g id="node28" class="node"><title>Node28</title>
<polygon fill="none" stroke="#bfbfbf" points="1166,-0.5 1166,-19.5 1234,-19.5 1234,-0.5 1166,-0.5"/>
<text text-anchor="middle" x="1200" y="-7.5" font-family="Helvetica,sans-Serif" font-size="10.00">sys/types.h</text>
</g>
<!-- Node7&#45;&gt;Node28 -->
<g id="edge28" class="edge"><title>Node7&#45;&gt;Node28</title>
<path fill="none" stroke="midnightblue" d="M1453.55,-56.969C1403.32,-48.6939 1323.04,-35.1437 1244.33,-20.2045"/>
<polygon fill="midnightblue" stroke="midnightblue" points="1244.72,-16.716 1234.25,-18.2803 1243.41,-23.592 1244.72,-16.716"/>
</g>
<!-- Node29 -->
<g id="node29" class="node"><title>Node29</title>
<polygon fill="none" stroke="#bfbfbf" points="1252,-0.5 1252,-19.5 1312,-19.5 1312,-0.5 1252,-0.5"/>
<text text-anchor="middle" x="1282" y="-7.5" font-family="Helvetica,sans-Serif" font-size="10.00">sys/stat.h</text>
</g>
<!-- Node7&#45;&gt;Node29 -->
<g id="edge29" class="edge"><title>Node7&#45;&gt;Node29</title>
<path fill="none" stroke="midnightblue" d="M1467.98,-56.4435C1428.29,-46.7452 1363.71,-30.9654 1322.05,-20.7857"/>
<polygon fill="midnightblue" stroke="midnightblue" points="1322.78,-17.3621 1312.24,-18.3884 1321.12,-24.1621 1322.78,-17.3621"/>
</g>
<!-- Node30 -->
<g id="node30" class="node"><title>Node30</title>
<polygon fill="none" stroke="#bfbfbf" points="1330.5,-0.5 1330.5,-19.5 1381.5,-19.5 1381.5,-0.5 1330.5,-0.5"/>
<text text-anchor="middle" x="1356" y="-7.5" font-family="Helvetica,sans-Serif" font-size="10.00">unistd.h</text>
</g>
<!-- Node7&#45;&gt;Node30 -->
<g id="edge30" class="edge"><title>Node7&#45;&gt;Node30</title>
<path fill="none" stroke="midnightblue" d="M1479.71,-56.4435C1455.19,-47.4381 1416.4,-33.1891 1388.8,-23.049"/>
<polygon fill="midnightblue" stroke="midnightblue" points="1389.78,-19.6793 1379.18,-19.5164 1387.36,-26.25 1389.78,-19.6793"/>
</g>
<!-- Node31 -->
<g id="node31" class="node"><title>Node31</title>
<polygon fill="none" stroke="#bfbfbf" points="1400,-0.5 1400,-19.5 1446,-19.5 1446,-0.5 1400,-0.5"/>
<text text-anchor="middle" x="1423" y="-7.5" font-family="Helvetica,sans-Serif" font-size="10.00">dlfcn.h</text>
</g>
<!-- Node7&#45;&gt;Node31 -->
<g id="edge31" class="edge"><title>Node7&#45;&gt;Node31</title>
<path fill="none" stroke="midnightblue" d="M1490.15,-56.324C1477.78,-47.979 1458.87,-35.2122 1444.26,-25.3524"/>
<polygon fill="midnightblue" stroke="midnightblue" points="1446.07,-22.3483 1435.82,-19.6545 1442.15,-28.1503 1446.07,-22.3483"/>
</g>
<!-- Node32 -->
<g id="node32" class="node"><title>Node32</title>
<polygon fill="none" stroke="#bfbfbf" points="1464,-0.5 1464,-19.5 1542,-19.5 1542,-0.5 1464,-0.5"/>
<text text-anchor="middle" x="1503" y="-7.5" font-family="Helvetica,sans-Serif" font-size="10.00">ext/hash_map</text>
</g>
<!-- Node7&#45;&gt;Node32 -->
<g id="edge32" class="edge"><title>Node7&#45;&gt;Node32</title>
<path fill="none" stroke="midnightblue" d="M1503,-56.083C1503,-49.0059 1503,-38.8611 1503,-29.9865"/>
<polygon fill="midnightblue" stroke="midnightblue" points="1506.5,-29.751 1503,-19.7511 1499.5,-29.7511 1506.5,-29.751"/>
</g>
<!-- Node33 -->
<g id="node33" class="node"><title>Node33</title>
<polygon fill="none" stroke="#bfbfbf" points="1560.5,-0.5 1560.5,-19.5 1633.5,-19.5 1633.5,-0.5 1560.5,-0.5"/>
<text text-anchor="middle" x="1597" y="-7.5" font-family="Helvetica,sans-Serif" font-size="10.00">ext/hash_set</text>
</g>
<!-- Node7&#45;&gt;Node33 -->
<g id="edge33" class="edge"><title>Node7&#45;&gt;Node33</title>
<path fill="none" stroke="midnightblue" d="M1518.1,-56.324C1532.9,-47.8215 1555.69,-34.7288 1572.98,-24.7975"/>
<polygon fill="midnightblue" stroke="midnightblue" points="1575.01,-27.6707 1581.93,-19.6545 1571.52,-21.6009 1575.01,-27.6707"/>
</g>
<!-- Node34 -->
<g id="node34" class="node"><title>Node34</title>
<polygon fill="none" stroke="#bfbfbf" points="1651.5,-0.5 1651.5,-19.5 1722.5,-19.5 1722.5,-0.5 1651.5,-0.5"/>
<text text-anchor="middle" x="1687" y="-7.5" font-family="Helvetica,sans-Serif" font-size="10.00">sys/param.h</text>
</g>
<!-- Node7&#45;&gt;Node34 -->
<g id="edge34" class="edge"><title>Node7&#45;&gt;Node34</title>
<path fill="none" stroke="midnightblue" d="M1532.16,-56.4435C1563.51,-47.2406 1613.53,-32.5617 1648.2,-22.3879"/>
<polygon fill="midnightblue" stroke="midnightblue" points="1649.37,-25.6909 1657.98,-19.5164 1647.4,-18.9742 1649.37,-25.6909"/>
</g>
<!-- Node35 -->
<g id="node35" class="node"><title>Node35</title>
<polygon fill="none" stroke="#bfbfbf" points="1741,-0.5 1741,-19.5 1907,-19.5 1907,-0.5 1741,-0.5"/>
<text text-anchor="middle" x="1824" y="-7.5" font-family="Helvetica,sans-Serif" font-size="10.00">CoreFoundation/CoreFoundation.h</text>
</g>
<!-- Node7&#45;&gt;Node35 -->
<g id="edge35" class="edge"><title>Node7&#45;&gt;Node35</title>
<path fill="none" stroke="midnightblue" d="M1552.1,-56.7398C1608.83,-47.1962 1702.2,-31.489 1763.4,-21.1939"/>
<polygon fill="midnightblue" stroke="midnightblue" points="1764.03,-24.6373 1773.31,-19.5268 1762.87,-17.7343 1764.03,-24.6373"/>
</g>
<!-- Node36 -->
<g id="node36" class="node"><title>Node36</title>
<polygon fill="none" stroke="#bfbfbf" points="1925,-0.5 1925,-19.5 2049,-19.5 2049,-0.5 1925,-0.5"/>
<text text-anchor="middle" x="1987" y="-7.5" font-family="Helvetica,sans-Serif" font-size="10.00">emscripten/emscripten.h</text>
</g>
<!-- Node7&#45;&gt;Node36 -->
<g id="edge36" class="edge"><title>Node7&#45;&gt;Node36</title>
<path fill="none" stroke="midnightblue" d="M1552.3,-59.911C1627.88,-52.0469 1777.22,-36.2642 1914.4,-20.1724"/>
<polygon fill="midnightblue" stroke="midnightblue" points="1915.15,-23.6082 1924.67,-18.9639 1914.33,-16.6562 1915.15,-23.6082"/>
</g>
<!-- Node38 -->
<g id="node38" class="node"><title>Node38</title>
<g id="a_node38"><a xlink:href="_ogre_header_prefix_8h.html" target="_top" xlink:title="OgreHeaderPrefix.h">
<polygon fill="none" stroke="black" points="392.5,-0.5 392.5,-19.5 495.5,-19.5 495.5,-0.5 392.5,-0.5"/>
<text text-anchor="middle" x="444" y="-7.5" font-family="Helvetica,sans-Serif" font-size="10.00">OgreHeaderPrefix.h</text>
</a>
</g>
</g>
<!-- Node37&#45;&gt;Node38 -->
<g id="edge38" class="edge"><title>Node37&#45;&gt;Node38</title>
<path fill="none" stroke="midnightblue" d="M444,-56.083C444,-49.0059 444,-38.8611 444,-29.9865"/>
<polygon fill="midnightblue" stroke="midnightblue" points="447.5,-29.751 444,-19.7511 440.5,-29.7511 447.5,-29.751"/>
</g>
<!-- Node39 -->
<g id="node39" class="node"><title>Node39</title>
<g id="a_node39"><a xlink:href="_ogre_header_suffix_8h.html" target="_top" xlink:title="OgreHeaderSuffix.h">
<polygon fill="none" stroke="black" points="81.5,-0.5 81.5,-19.5 184.5,-19.5 184.5,-0.5 81.5,-0.5"/>
<text text-anchor="middle" x="133" y="-7.5" font-family="Helvetica,sans-Serif" font-size="10.00">OgreHeaderSuffix.h</text>
</a>
</g>
</g>
<!-- Node37&#45;&gt;Node39 -->
<g id="edge39" class="edge"><title>Node37&#45;&gt;Node39</title>
<path fill="none" stroke="midnightblue" d="M394.721,-56.4435C339.672,-46.8851 250.601,-31.4195 191.916,-21.2298"/>
<polygon fill="midnightblue" stroke="midnightblue" points="192.5,-17.7788 182.048,-19.5164 191.302,-24.6757 192.5,-17.7788"/>
</g>
<!-- Node40&#45;&gt;Node38 -->
<g id="edge41" class="edge"><title>Node40&#45;&gt;Node38</title>
<path fill="none" stroke="midnightblue" d="M229.446,-112.48C240.385,-98.6079 263.95,-71.1677 290,-56 318.315,-39.5134 353.124,-28.6767 382.48,-21.7786"/>
<polygon fill="midnightblue" stroke="midnightblue" points="383.628,-25.108 392.617,-19.5001 382.093,-18.2784 383.628,-25.108"/>
</g>
<!-- Node40&#45;&gt;Node39 -->
<g id="edge42" class="edge"><title>Node40&#45;&gt;Node39</title>
<path fill="none" stroke="midnightblue" d="M215.938,-112.368C200.954,-94.0547 165.767,-51.0489 146.387,-27.3624"/>
<polygon fill="midnightblue" stroke="midnightblue" points="149.071,-25.1147 140.029,-19.5914 143.653,-29.5474 149.071,-25.1147"/>
</g>
<!-- Node41&#45;&gt;Node2 -->
<g id="edge44" class="edge"><title>Node41&#45;&gt;Node2</title>
<path fill="none" stroke="midnightblue" d="M494.067,-392.324C509.958,-383.743 534.507,-370.486 552.958,-360.522"/>
<polygon fill="midnightblue" stroke="midnightblue" points="554.837,-363.486 561.973,-355.655 551.511,-357.326 554.837,-363.486"/>
</g>
<!-- Node42 -->
<g id="node42" class="node"><title>Node42</title>
<g id="a_node42"><a xlink:href="_ogre_script_translator_8h.html" target="_top" xlink:title="OgreScriptTranslator.h">
<polygon fill="none" stroke="black" points="299.5,-336.5 299.5,-355.5 414.5,-355.5 414.5,-336.5 299.5,-336.5"/>
<text text-anchor="middle" x="357" y="-343.5" font-family="Helvetica,sans-Serif" font-size="10.00">OgreScriptTranslator.h</text>
</a>
</g>
</g>
<!-- Node41&#45;&gt;Node42 -->
<g id="edge45" class="edge"><title>Node41&#45;&gt;Node42</title>
<path fill="none" stroke="midnightblue" d="M458.827,-392.444C439.091,-383.636 408.115,-369.812 385.507,-359.722"/>
<polygon fill="midnightblue" stroke="midnightblue" points="386.641,-356.396 376.083,-355.516 383.789,-362.788 386.641,-356.396"/>
</g>
<!-- Node43 -->
<g id="node43" class="node"><title>Node43</title>
<g id="a_node43"><a xlink:href="_ogre_script_compiler_8h.html" target="_top" xlink:title="OgreScriptCompiler.h">
<polygon fill="none" stroke="black" points="444,-280.5 444,-299.5 554,-299.5 554,-280.5 444,-280.5"/>
<text text-anchor="middle" x="499" y="-287.5" font-family="Helvetica,sans-Serif" font-size="10.00">OgreScriptCompiler.h</text>
</a>
</g>
</g>
<!-- Node41&#45;&gt;Node43 -->
<g id="edge76" class="edge"><title>Node41&#45;&gt;Node43</title>
<path fill="none" stroke="midnightblue" d="M479.648,-392.368C483.037,-374.617 490.855,-333.666 495.45,-309.597"/>
<polygon fill="midnightblue" stroke="midnightblue" points="498.922,-310.07 497.36,-299.591 492.047,-308.758 498.922,-310.07"/>
</g>
<!-- Node42&#45;&gt;Node3 -->
<g id="edge46" class="edge"><title>Node42&#45;&gt;Node3</title>
<path fill="none" stroke="midnightblue" d="M414.756,-340.087C564.533,-326.764 956.439,-287.985 994,-244 1049.11,-179.466 904.238,-145.455 816.468,-131.241"/>
<polygon fill="midnightblue" stroke="midnightblue" points="817.012,-127.784 806.589,-129.685 815.923,-134.699 817.012,-127.784"/>
</g>
<!-- Node42&#45;&gt;Node38 -->
<g id="edge74" class="edge"><title>Node42&#45;&gt;Node38</title>
<path fill="none" stroke="midnightblue" d="M299.351,-338.725C238.717,-328.553 152,-302.25 152,-235 152,-235 152,-235 152,-177 152,-104.916 193.627,-84.1198 260,-56 299.165,-39.4073 345.723,-28.0942 382.206,-20.9613"/>
<polygon fill="midnightblue" stroke="midnightblue" points="383.044,-24.3649 392.215,-19.0594 381.737,-17.4879 383.044,-24.3649"/>
</g>
<!-- Node42&#45;&gt;Node39 -->
<g id="edge75" class="edge"><title>Node42&#45;&gt;Node39</title>
<path fill="none" stroke="midnightblue" d="M299.245,-339.26C198.206,-327.604 0,-296.855 0,-235 0,-235 0,-235 0,-121 0,-70.7254 57.1293,-39.1005 96.5033,-23.2746"/>
<polygon fill="midnightblue" stroke="midnightblue" points="98.0081,-26.4459 106.085,-19.5897 95.4955,-19.9123 98.0081,-26.4459"/>
</g>
<!-- Node42&#45;&gt;Node43 -->
<g id="edge47" class="edge"><title>Node42&#45;&gt;Node43</title>
<path fill="none" stroke="midnightblue" d="M379.5,-336.444C403.077,-327.478 440.322,-313.314 466.964,-303.183"/>
<polygon fill="midnightblue" stroke="midnightblue" points="468.502,-306.342 476.605,-299.516 466.014,-299.8 468.502,-306.342"/>
</g>
<!-- Node50 -->
<g id="node50" class="node"><title>Node50</title>
<g id="a_node50"><a xlink:href="_ogre_render_system_8h.html" target="_top" xlink:title="OgreRenderSystem.h">
<polygon fill="none" stroke="red" points="282.5,-280.5 282.5,-299.5 393.5,-299.5 393.5,-280.5 282.5,-280.5"/>
<text text-anchor="middle" x="338" y="-287.5" font-family="Helvetica,sans-Serif" font-size="10.00">OgreRenderSystem.h</text>
</a>
</g>
</g>
<!-- Node42&#45;&gt;Node50 -->
<g id="edge68" class="edge"><title>Node42&#45;&gt;Node50</title>
<path fill="none" stroke="midnightblue" d="M353.863,-336.083C351.317,-328.849 347.644,-318.409 344.473,-309.397"/>
<polygon fill="midnightblue" stroke="midnightblue" points="347.7,-308.023 341.079,-299.751 341.097,-310.346 347.7,-308.023"/>
</g>
<!-- Node43&#45;&gt;Node38 -->
<g id="edge66" class="edge"><title>Node43&#45;&gt;Node38</title>
<path fill="none" stroke="midnightblue" d="M506.918,-280.396C521.447,-263.951 551.893,-226.278 563,-188 573.036,-153.413 614.384,-132.261 561,-56 552.142,-43.3457 517.133,-30.8887 487.698,-22.3012"/>
<polygon fill="midnightblue" stroke="midnightblue" points="488.551,-18.9051 477.976,-19.5425 486.64,-25.6393 488.551,-18.9051"/>
</g>
<!-- Node43&#45;&gt;Node39 -->
<g id="edge67" class="edge"><title>Node43&#45;&gt;Node39</title>
<path fill="none" stroke="midnightblue" d="M446.546,-280.45C369.74,-265.052 227.712,-225.131 153,-132 129.324,-102.487 128.88,-55.6433 130.824,-29.7502"/>
<polygon fill="midnightblue" stroke="midnightblue" points="134.312,-30.0423 131.776,-19.7554 127.343,-29.3784 134.312,-30.0423"/>
</g>
<!-- Node44 -->
<g id="node44" class="node"><title>Node44</title>
<g id="a_node44"><a xlink:href="_ogre_shared_ptr_8h.html" target="_top" xlink:title="OgreSharedPtr.h">
<polygon fill="none" stroke="red" points="726.5,-168.5 726.5,-187.5 815.5,-187.5 815.5,-168.5 726.5,-168.5"/>
<text text-anchor="middle" x="771" y="-175.5" font-family="Helvetica,sans-Serif" font-size="10.00">OgreSharedPtr.h</text>
</a>
</g>
</g>
<!-- Node43&#45;&gt;Node44 -->
<g id="edge48" class="edge"><title>Node43&#45;&gt;Node44</title>
<path fill="none" stroke="midnightblue" d="M554.169,-285.915C648.525,-280.069 832.657,-265.966 852,-244 870.655,-222.815 836.2,-203.232 806.617,-191.214"/>
<polygon fill="midnightblue" stroke="midnightblue" points="807.845,-187.937 797.256,-187.586 805.315,-194.464 807.845,-187.937"/>
</g>
<!-- Node45 -->
<g id="node45" class="node"><title>Node45</title>
<g id="a_node45"><a xlink:href="_ogre_singleton_8h.html" target="_top" xlink:title="OgreSingleton.h">
<polygon fill="none" stroke="black" points="899,-224.5 899,-243.5 985,-243.5 985,-224.5 899,-224.5"/>
<text text-anchor="middle" x="942" y="-231.5" font-family="Helvetica,sans-Serif" font-size="10.00">OgreSingleton.h</text>
</a>
</g>
</g>
<!-- Node43&#45;&gt;Node45 -->
<g id="edge50" class="edge"><title>Node43&#45;&gt;Node45</title>
<path fill="none" stroke="midnightblue" d="M554.061,-283.291C629.029,-275.356 767.359,-260.138 885,-244 886.256,-243.828 887.527,-243.65 888.809,-243.469"/>
<polygon fill="midnightblue" stroke="midnightblue" points="889.378,-246.923 898.767,-242.015 888.366,-239.997 889.378,-246.923"/>
</g>
<!-- Node46 -->
<g id="node46" class="node"><title>Node46</title>
<g id="a_node46"><a xlink:href="_ogre_script_loader_8h.html" target="_top" xlink:title="OgreScriptLoader.h">
<polygon fill="none" stroke="red" points="372.5,-168.5 372.5,-187.5 473.5,-187.5 473.5,-168.5 372.5,-168.5"/>
<text text-anchor="middle" x="423" y="-175.5" font-family="Helvetica,sans-Serif" font-size="10.00">OgreScriptLoader.h</text>
</a>
</g>
</g>
<!-- Node43&#45;&gt;Node46 -->
<g id="edge52" class="edge"><title>Node43&#45;&gt;Node46</title>
<path fill="none" stroke="midnightblue" d="M493.036,-280.368C480.494,-262.215 451.19,-219.802 434.739,-195.99"/>
<polygon fill="midnightblue" stroke="midnightblue" points="437.5,-193.829 428.936,-187.591 431.741,-197.808 437.5,-193.829"/>
</g>
<!-- Node47 -->
<g id="node47" class="node"><title>Node47</title>
<g id="a_node47"><a xlink:href="_ogre_gpu_program_8h.html" target="_top" xlink:title="OgreGpuProgram.h">
<polygon fill="none" stroke="red" points="565.5,-224.5 565.5,-243.5 666.5,-243.5 666.5,-224.5 565.5,-224.5"/>
<text text-anchor="middle" x="616" y="-231.5" font-family="Helvetica,sans-Serif" font-size="10.00">OgreGpuProgram.h</text>
</a>
</g>
</g>
<!-- Node43&#45;&gt;Node47 -->
<g id="edge56" class="edge"><title>Node43&#45;&gt;Node47</title>
<path fill="none" stroke="midnightblue" d="M517.539,-280.444C536.623,-271.636 566.575,-257.812 588.436,-247.722"/>
<polygon fill="midnightblue" stroke="midnightblue" points="589.935,-250.885 597.548,-243.516 587.001,-244.529 589.935,-250.885"/>
</g>
<!-- Node48 -->
<g id="node48" class="node"><title>Node48</title>
<g id="a_node48"><a xlink:href="_ogre_any_8h.html" target="_top" xlink:title="OgreAny.h">
<polygon fill="none" stroke="red" points="491.5,-168.5 491.5,-187.5 554.5,-187.5 554.5,-168.5 491.5,-168.5"/>
<text text-anchor="middle" x="523" y="-175.5" font-family="Helvetica,sans-Serif" font-size="10.00">OgreAny.h</text>
</a>
</g>
</g>
<!-- Node43&#45;&gt;Node48 -->
<g id="edge61" class="edge"><title>Node43&#45;&gt;Node48</title>
<path fill="none" stroke="midnightblue" d="M500.883,-280.368C504.756,-262.617 513.691,-221.666 518.942,-197.597"/>
<polygon fill="midnightblue" stroke="midnightblue" points="522.413,-198.108 521.126,-187.591 515.574,-196.615 522.413,-198.108"/>
</g>
<!-- Node49 -->
<g id="node49" class="node"><title>Node49</title>
<g id="a_node49"><a xlink:href="_ogre_thread_headers_8h.html" target="_top" xlink:title="Threading/OgreThreadHeaders.h">
<polygon fill="none" stroke="red" points="685,-224.5 685,-243.5 843,-243.5 843,-224.5 685,-224.5"/>
<text text-anchor="middle" x="764" y="-231.5" font-family="Helvetica,sans-Serif" font-size="10.00">Threading/OgreThreadHeaders.h</text>
</a>
</g>
</g>
<!-- Node43&#45;&gt;Node49 -->
<g id="edge65" class="edge"><title>Node43&#45;&gt;Node49</title>
<path fill="none" stroke="midnightblue" d="M540.99,-280.444C587.412,-270.984 662.228,-255.738 712.24,-245.547"/>
<polygon fill="midnightblue" stroke="midnightblue" points="713.107,-248.943 722.206,-243.516 711.709,-242.084 713.107,-248.943"/>
</g>
<!-- Node44&#45;&gt;Node3 -->
<g id="edge49" class="edge"><title>Node44&#45;&gt;Node3</title>
<path fill="none" stroke="midnightblue" d="M768.358,-168.083C766.214,-160.849 763.121,-150.409 760.451,-141.397"/>
<polygon fill="midnightblue" stroke="midnightblue" points="763.79,-140.345 757.593,-131.751 757.078,-142.333 763.79,-140.345"/>
</g>
<!-- Node45&#45;&gt;Node3 -->
<g id="edge51" class="edge"><title>Node45&#45;&gt;Node3</title>
<path fill="none" stroke="midnightblue" d="M927.326,-224.368C895.101,-205.412 817.901,-160.001 778.702,-136.942"/>
<polygon fill="midnightblue" stroke="midnightblue" points="779.999,-133.645 769.605,-131.591 776.45,-139.678 779.999,-133.645"/>
</g>
<!-- Node46&#45;&gt;Node3 -->
<g id="edge53" class="edge"><title>Node46&#45;&gt;Node3</title>
<path fill="none" stroke="midnightblue" d="M473.785,-168.74C532.718,-159.154 629.881,-143.351 693.16,-133.058"/>
<polygon fill="midnightblue" stroke="midnightblue" points="694.092,-136.453 703.401,-131.393 692.969,-129.544 694.092,-136.453"/>
</g>
<!-- Node46&#45;&gt;Node38 -->
<g id="edge54" class="edge"><title>Node46&#45;&gt;Node38</title>
<path fill="none" stroke="midnightblue" d="M437.598,-168.391C461.627,-153.26 508.671,-119.35 527,-76 537.379,-51.4523 509.096,-33.8 482.775,-23.1411"/>
<polygon fill="midnightblue" stroke="midnightblue" points="483.834,-19.7994 473.242,-19.5307 481.355,-26.3457 483.834,-19.7994"/>
</g>
<!-- Node46&#45;&gt;Node39 -->
<g id="edge55" class="edge"><title>Node46&#45;&gt;Node39</title>
<path fill="none" stroke="midnightblue" d="M407.817,-168.309C360.346,-141.136 214.473,-57.6362 156.811,-24.6297"/>
<polygon fill="midnightblue" stroke="midnightblue" points="158.451,-21.5354 148.033,-19.6051 154.973,-27.6106 158.451,-21.5354"/>
</g>
<!-- Node47&#45;&gt;Node3 -->
<g id="edge57" class="edge"><title>Node47&#45;&gt;Node3</title>
<path fill="none" stroke="midnightblue" d="M627.161,-224.427C638.871,-215.413 657.792,-200.79 674,-188 695.378,-171.131 719.724,-151.543 736.095,-138.315"/>
<polygon fill="midnightblue" stroke="midnightblue" points="738.727,-140.688 744.301,-131.678 734.325,-135.245 738.727,-140.688"/>
</g>
<!-- Node47&#45;&gt;Node38 -->
<g id="edge58" class="edge"><title>Node47&#45;&gt;Node38</title>
<path fill="none" stroke="midnightblue" d="M620.758,-224.458C635.514,-196.703 677.111,-107.861 636,-56 627.683,-45.5085 557.849,-31.0378 504.779,-21.3674"/>
<polygon fill="midnightblue" stroke="midnightblue" points="505.21,-17.8887 494.747,-19.5598 503.968,-24.7778 505.21,-17.8887"/>
</g>
<!-- Node47&#45;&gt;Node39 -->
<g id="edge60" class="edge"><title>Node47&#45;&gt;Node39</title>
<path fill="none" stroke="midnightblue" d="M565.265,-228.123C460.805,-217.059 226.811,-186.679 171,-132 142.913,-104.483 135.521,-56.4789 133.618,-29.9585"/>
<polygon fill="midnightblue" stroke="midnightblue" points="137.101,-29.5364 133.085,-19.7323 130.11,-29.9011 137.101,-29.5364"/>
</g>
<!-- Node47&#45;&gt;Node44 -->
<g id="edge59" class="edge"><title>Node47&#45;&gt;Node44</title>
<path fill="none" stroke="midnightblue" d="M640.56,-224.444C666.523,-215.399 707.668,-201.064 736.797,-190.916"/>
<polygon fill="midnightblue" stroke="midnightblue" points="738.263,-194.112 746.555,-187.516 735.96,-187.501 738.263,-194.112"/>
</g>
<!-- Node48&#45;&gt;Node3 -->
<g id="edge62" class="edge"><title>Node48&#45;&gt;Node3</title>
<path fill="none" stroke="midnightblue" d="M554.772,-169.605C594.461,-160.367 662.69,-144.486 708.32,-133.865"/>
<polygon fill="midnightblue" stroke="midnightblue" points="709.317,-137.227 718.263,-131.551 707.73,-130.409 709.317,-137.227"/>
</g>
<!-- Node48&#45;&gt;Node38 -->
<g id="edge63" class="edge"><title>Node48&#45;&gt;Node38</title>
<path fill="none" stroke="midnightblue" d="M528.226,-168.261C540.113,-147.132 566.4,-92.3405 543,-56 532.694,-39.9949 515.149,-29.6167 497.666,-22.9158"/>
<polygon fill="midnightblue" stroke="midnightblue" points="498.6,-19.5353 488.006,-19.559 496.303,-26.1475 498.6,-19.5353"/>
</g>
<!-- Node48&#45;&gt;Node39 -->
<g id="edge64" class="edge"><title>Node48&#45;&gt;Node39</title>
<path fill="none" stroke="midnightblue" d="M503.201,-168.42C457.223,-148.513 339.627,-97.7053 241,-56 214.717,-44.8861 184.757,-32.4186 163.07,-23.4299"/>
<polygon fill="midnightblue" stroke="midnightblue" points="164.31,-20.1549 153.731,-19.5622 161.631,-26.6222 164.31,-20.1549"/>
</g>
<!-- Node50&#45;&gt;Node3 -->
<g id="edge69" class="edge"><title>Node50&#45;&gt;Node3</title>
<path fill="none" stroke="midnightblue" d="M359.542,-280.425C428.314,-253.047 642.828,-167.654 723.714,-135.454"/>
<polygon fill="midnightblue" stroke="midnightblue" points="725.341,-138.574 733.337,-131.624 722.752,-132.07 725.341,-138.574"/>
</g>
<!-- Node50&#45;&gt;Node38 -->
<g id="edge72" class="edge"><title>Node50&#45;&gt;Node38</title>
<path fill="none" stroke="midnightblue" d="M336.216,-280.453C329.933,-247.952 311.755,-130.158 361,-56 370.987,-40.9605 387.744,-30.5324 403.597,-23.5316"/>
<polygon fill="midnightblue" stroke="midnightblue" points="405.33,-26.6058 413.282,-19.6049 402.7,-20.1186 405.33,-26.6058"/>
</g>
<!-- Node50&#45;&gt;Node39 -->
<g id="edge73" class="edge"><title>Node50&#45;&gt;Node39</title>
<path fill="none" stroke="midnightblue" d="M283.324,-280.457C196.794,-265.375 38,-230.66 38,-179 38,-179 38,-179 38,-121 38,-90.2048 42.641,-79.9494 62,-56 72.9874,-42.4072 89.234,-31.6837 103.414,-24.1197"/>
<polygon fill="midnightblue" stroke="midnightblue" points="105.007,-27.2365 112.358,-19.607 101.853,-20.987 105.007,-27.2365"/>
</g>
<!-- Node50&#45;&gt;Node40 -->
<g id="edge70" class="edge"><title>Node50&#45;&gt;Node40</title>
<path fill="none" stroke="midnightblue" d="M327.679,-280.409C317.78,-271.84 302.785,-257.974 292,-244 265.884,-210.164 242.939,-165.371 231.235,-140.88"/>
<polygon fill="midnightblue" stroke="midnightblue" points="234.351,-139.281 226.931,-131.718 228.015,-142.258 234.351,-139.281"/>
</g>
<!-- Node50&#45;&gt;Node47 -->
<g id="edge71" class="edge"><title>Node50&#45;&gt;Node47</title>
<path fill="none" stroke="midnightblue" d="M382.05,-280.444C430.851,-270.964 509.563,-255.675 562.03,-245.483"/>
<polygon fill="midnightblue" stroke="midnightblue" points="563.007,-248.859 572.156,-243.516 561.672,-241.988 563.007,-248.859"/>
</g>
</g>
</svg>
