<?xml version="1.0" encoding="UTF-8" standalone="no"?>
<!DOCTYPE svg PUBLIC "-//W3C//DTD SVG 1.1//EN"
 "http://www.w3.org/Graphics/SVG/1.1/DTD/svg11.dtd">
<!-- Generated by graphviz version 2.38.0 (20140413.2041)
 -->
<!-- Title: OgreRenderSystemCapabilitiesSerializer.h Pages: 1 -->
<svg width="3154pt" height="487pt"
 viewBox="0.00 0.00 3154.00 487.00" xmlns="http://www.w3.org/2000/svg" xmlns:xlink="http://www.w3.org/1999/xlink">
<g id="graph0" class="graph" transform="scale(1 1) rotate(0) translate(4 483)">
<title>OgreRenderSystemCapabilitiesSerializer.h</title>
<!-- Node1 -->
<g id="node1" class="node"><title>Node1</title>
<polygon fill="#bfbfbf" stroke="black" points="1109,-448.5 1109,-478.5 1263,-478.5 1263,-448.5 1109,-448.5"/>
<text text-anchor="start" x="1117" y="-466.5" font-family="Helvetica,sans-Serif" font-size="10.00">OgreRenderSystemCapabilities</text>
<text text-anchor="middle" x="1186" y="-455.5" font-family="Helvetica,sans-Serif" font-size="10.00">Serializer.h</text>
</g>
<!-- Node2 -->
<g id="node2" class="node"><title>Node2</title>
<g id="a_node2"><a xlink:href="_ogre_prerequisites_8h.html" target="_top" xlink:title="OgrePrerequisites.h">
<polygon fill="none" stroke="black" points="2246.5,-168.5 2246.5,-187.5 2349.5,-187.5 2349.5,-168.5 2246.5,-168.5"/>
<text text-anchor="middle" x="2298" y="-175.5" font-family="Helvetica,sans-Serif" font-size="10.00">OgrePrerequisites.h</text>
</a>
</g>
</g>
<!-- Node1&#45;&gt;Node2 -->
<g id="edge1" class="edge"><title>Node1&#45;&gt;Node2</title>
<path fill="none" stroke="midnightblue" d="M1108.83,-462.572C857.105,-461.799 76,-451.019 76,-347 76,-347 76,-347 76,-289 76,-177.727 1877.02,-177.653 2236.14,-178.744"/>
<polygon fill="midnightblue" stroke="midnightblue" points="2236.33,-182.245 2246.35,-178.777 2236.36,-175.245 2236.33,-182.245"/>
</g>
<!-- Node38 -->
<g id="node38" class="node"><title>Node38</title>
<g id="a_node38"><a xlink:href="_ogre_header_prefix_8h.html" target="_top" xlink:title="OgreHeaderPrefix.h">
<polygon fill="none" stroke="black" points="2882.5,-0.5 2882.5,-19.5 2985.5,-19.5 2985.5,-0.5 2882.5,-0.5"/>
<text text-anchor="middle" x="2934" y="-7.5" font-family="Helvetica,sans-Serif" font-size="10.00">OgreHeaderPrefix.h</text>
</a>
</g>
</g>
<!-- Node1&#45;&gt;Node38 -->
<g id="edge74" class="edge"><title>Node1&#45;&gt;Node38</title>
<path fill="none" stroke="midnightblue" d="M1263.14,-462.062C1626.05,-459.503 3146,-443.056 3146,-347 3146,-347 3146,-347 3146,-121 3146,-52.7537 3058.37,-26.7932 2995.79,-16.955"/>
<polygon fill="midnightblue" stroke="midnightblue" points="2995.99,-13.4473 2985.59,-15.4573 2994.98,-20.3731 2995.99,-13.4473"/>
</g>
<!-- Node39 -->
<g id="node39" class="node"><title>Node39</title>
<g id="a_node39"><a xlink:href="_ogre_header_suffix_8h.html" target="_top" xlink:title="OgreHeaderSuffix.h">
<polygon fill="none" stroke="black" points="2415.5,-0.5 2415.5,-19.5 2518.5,-19.5 2518.5,-0.5 2415.5,-0.5"/>
<text text-anchor="middle" x="2467" y="-7.5" font-family="Helvetica,sans-Serif" font-size="10.00">OgreHeaderSuffix.h</text>
</a>
</g>
</g>
<!-- Node1&#45;&gt;Node39 -->
<g id="edge75" class="edge"><title>Node1&#45;&gt;Node39</title>
<path fill="none" stroke="midnightblue" d="M1108.64,-463.102C845.308,-464.143 0,-458.778 0,-347 0,-347 0,-347 0,-121 0,-87.7586 8.41898,-72.9739 37,-56 89.4678,-24.8401 2032.43,-13.2447 2405.43,-11.3036"/>
<polygon fill="midnightblue" stroke="midnightblue" points="2405.51,-14.8034 2415.49,-11.2516 2405.47,-7.80345 2405.51,-14.8034"/>
</g>
<!-- Node42 -->
<g id="node42" class="node"><title>Node42</title>
<g id="a_node42"><a xlink:href="_ogre_render_system_capabilities_8h.html" target="_top" xlink:title="OgreRenderSystemCapabilities.h">
<polygon fill="none" stroke="black" points="2215,-392.5 2215,-411.5 2377,-411.5 2377,-392.5 2215,-392.5"/>
<text text-anchor="middle" x="2296" y="-399.5" font-family="Helvetica,sans-Serif" font-size="10.00">OgreRenderSystemCapabilities.h</text>
</a>
</g>
</g>
<!-- Node1&#45;&gt;Node42 -->
<g id="edge50" class="edge"><title>Node1&#45;&gt;Node42</title>
<path fill="none" stroke="midnightblue" d="M1263.17,-458.363C1461.98,-447.706 1991.01,-419.348 2204.63,-407.898"/>
<polygon fill="midnightblue" stroke="midnightblue" points="2205.07,-411.379 2214.87,-407.349 2204.7,-404.389 2205.07,-411.379"/>
</g>
<!-- Node3 -->
<g id="node3" class="node"><title>Node3</title>
<g id="a_node3"><a xlink:href="_ogre_platform_8h.html" target="_top" xlink:title="OgrePlatform.h">
<polygon fill="none" stroke="black" points="2266.5,-112.5 2266.5,-131.5 2349.5,-131.5 2349.5,-112.5 2266.5,-112.5"/>
<text text-anchor="middle" x="2308" y="-119.5" font-family="Helvetica,sans-Serif" font-size="10.00">OgrePlatform.h</text>
</a>
</g>
</g>
<!-- Node2&#45;&gt;Node3 -->
<g id="edge2" class="edge"><title>Node2&#45;&gt;Node3</title>
<path fill="none" stroke="midnightblue" d="M2299.65,-168.083C2300.98,-160.927 2302.88,-150.635 2304.54,-141.691"/>
<polygon fill="midnightblue" stroke="midnightblue" points="2308,-142.221 2306.38,-131.751 2301.12,-140.947 2308,-142.221"/>
</g>
<!-- Node5 -->
<g id="node5" class="node"><title>Node5</title>
<polygon fill="none" stroke="#bfbfbf" points="2216.5,-56.5 2216.5,-75.5 2257.5,-75.5 2257.5,-56.5 2216.5,-56.5"/>
<text text-anchor="middle" x="2237" y="-63.5" font-family="Helvetica,sans-Serif" font-size="10.00">string</text>
</g>
<!-- Node2&#45;&gt;Node5 -->
<g id="edge4" class="edge"><title>Node2&#45;&gt;Node5</title>
<path fill="none" stroke="midnightblue" d="M2287.86,-168.32C2278.61,-159.897 2265.17,-146.319 2257,-132 2248.77,-117.581 2243.55,-99.3892 2240.51,-85.9209"/>
<polygon fill="midnightblue" stroke="midnightblue" points="2243.89,-84.9978 2238.46,-75.9048 2237.04,-86.404 2243.89,-84.9978"/>
</g>
<!-- Node6 -->
<g id="node6" class="node"><title>Node6</title>
<g id="a_node6"><a xlink:href="_ogre_std_headers_8h.html" target="_top" xlink:title="OgreStdHeaders.h">
<polygon fill="none" stroke="black" points="1089,-112.5 1089,-131.5 1187,-131.5 1187,-112.5 1089,-112.5"/>
<text text-anchor="middle" x="1138" y="-119.5" font-family="Helvetica,sans-Serif" font-size="10.00">OgreStdHeaders.h</text>
</a>
</g>
</g>
<!-- Node2&#45;&gt;Node6 -->
<g id="edge5" class="edge"><title>Node2&#45;&gt;Node6</title>
<path fill="none" stroke="midnightblue" d="M2246.28,-174.592C2056.46,-165.756 1398.71,-135.136 1197.17,-125.754"/>
<polygon fill="midnightblue" stroke="midnightblue" points="1197.22,-122.253 1187.07,-125.284 1196.9,-129.246 1197.22,-122.253"/>
</g>
<!-- Node36 -->
<g id="node36" class="node"><title>Node36</title>
<g id="a_node36"><a xlink:href="_ogre_memory_allocator_config_8h.html" target="_top" xlink:title="This file configures Ogre&#39;s memory allocators. ">
<polygon fill="none" stroke="black" points="2507,-112.5 2507,-131.5 2655,-131.5 2655,-112.5 2507,-112.5"/>
<text text-anchor="middle" x="2581" y="-119.5" font-family="Helvetica,sans-Serif" font-size="10.00">OgreMemoryAllocatorConfig.h</text>
</a>
</g>
</g>
<!-- Node2&#45;&gt;Node36 -->
<g id="edge36" class="edge"><title>Node2&#45;&gt;Node36</title>
<path fill="none" stroke="midnightblue" d="M2342.84,-168.444C2392.62,-158.944 2472.98,-143.611 2526.39,-133.42"/>
<polygon fill="midnightblue" stroke="midnightblue" points="2527.2,-136.829 2536.37,-131.516 2525.89,-129.953 2527.2,-136.829"/>
</g>
<!-- Node4 -->
<g id="node4" class="node"><title>Node4</title>
<g id="a_node4"><a xlink:href="_ogre_config_8h.html" target="_top" xlink:title="OgreConfig.h">
<polygon fill="none" stroke="red" points="2276,-56.5 2276,-75.5 2350,-75.5 2350,-56.5 2276,-56.5"/>
<text text-anchor="middle" x="2313" y="-63.5" font-family="Helvetica,sans-Serif" font-size="10.00">OgreConfig.h</text>
</a>
</g>
</g>
<!-- Node3&#45;&gt;Node4 -->
<g id="edge3" class="edge"><title>Node3&#45;&gt;Node4</title>
<path fill="none" stroke="midnightblue" d="M2308.83,-112.083C2309.48,-105.006 2310.42,-94.8611 2311.24,-85.9865"/>
<polygon fill="midnightblue" stroke="midnightblue" points="2314.75,-86.0312 2312.19,-75.7511 2307.78,-85.3858 2314.75,-86.0312"/>
</g>
<!-- Node6&#45;&gt;Node5 -->
<g id="edge15" class="edge"><title>Node6&#45;&gt;Node5</title>
<path fill="none" stroke="midnightblue" d="M1187.21,-120.555C1366.77,-118.681 1987.07,-109.964 2206.06,-75.6255"/>
<polygon fill="midnightblue" stroke="midnightblue" points="2206.87,-79.0386 2216.18,-73.9709 2205.74,-72.1303 2206.87,-79.0386"/>
</g>
<!-- Node7 -->
<g id="node7" class="node"><title>Node7</title>
<polygon fill="none" stroke="#bfbfbf" points="1607.5,-56.5 1607.5,-75.5 1656.5,-75.5 1656.5,-56.5 1607.5,-56.5"/>
<text text-anchor="middle" x="1632" y="-63.5" font-family="Helvetica,sans-Serif" font-size="10.00">cassert</text>
</g>
<!-- Node6&#45;&gt;Node7 -->
<g id="edge6" class="edge"><title>Node6&#45;&gt;Node7</title>
<path fill="none" stroke="midnightblue" d="M1187.16,-118.93C1270.04,-114.847 1442.88,-103.783 1597.11,-76.0844"/>
<polygon fill="midnightblue" stroke="midnightblue" points="1598.03,-79.4741 1607.24,-74.2358 1596.77,-72.5878 1598.03,-79.4741"/>
</g>
<!-- Node8 -->
<g id="node8" class="node"><title>Node8</title>
<polygon fill="none" stroke="#bfbfbf" points="1674.5,-56.5 1674.5,-75.5 1717.5,-75.5 1717.5,-56.5 1674.5,-56.5"/>
<text text-anchor="middle" x="1696" y="-63.5" font-family="Helvetica,sans-Serif" font-size="10.00">cstdio</text>
</g>
<!-- Node6&#45;&gt;Node8 -->
<g id="edge7" class="edge"><title>Node6&#45;&gt;Node8</title>
<path fill="none" stroke="midnightblue" d="M1187.11,-120.033C1279.11,-117.524 1483.65,-108.648 1664.49,-75.6895"/>
<polygon fill="midnightblue" stroke="midnightblue" points="1665.26,-79.1081 1674.45,-73.8458 1663.98,-72.2251 1665.26,-79.1081"/>
</g>
<!-- Node9 -->
<g id="node9" class="node"><title>Node9</title>
<polygon fill="none" stroke="#bfbfbf" points="1735.5,-56.5 1735.5,-75.5 1780.5,-75.5 1780.5,-56.5 1735.5,-56.5"/>
<text text-anchor="middle" x="1758" y="-63.5" font-family="Helvetica,sans-Serif" font-size="10.00">cstdlib</text>
</g>
<!-- Node6&#45;&gt;Node9 -->
<g id="edge8" class="edge"><title>Node6&#45;&gt;Node9</title>
<path fill="none" stroke="midnightblue" d="M1187.2,-120.509C1287.07,-118.809 1520.72,-111.242 1725.37,-75.7203"/>
<polygon fill="midnightblue" stroke="midnightblue" points="1726.16,-79.1351 1735.4,-73.9525 1724.95,-72.2413 1726.16,-79.1351"/>
</g>
<!-- Node10 -->
<g id="node10" class="node"><title>Node10</title>
<polygon fill="none" stroke="#bfbfbf" points="1798.5,-56.5 1798.5,-75.5 1839.5,-75.5 1839.5,-56.5 1798.5,-56.5"/>
<text text-anchor="middle" x="1819" y="-63.5" font-family="Helvetica,sans-Serif" font-size="10.00">ctime</text>
</g>
<!-- Node6&#45;&gt;Node10 -->
<g id="edge9" class="edge"><title>Node6&#45;&gt;Node10</title>
<path fill="none" stroke="midnightblue" d="M1187.05,-121.312C1294.63,-121.202 1559.29,-116.598 1788.63,-75.5981"/>
<polygon fill="midnightblue" stroke="midnightblue" points="1789.28,-79.0382 1798.49,-73.8088 1788.03,-72.1507 1789.28,-79.0382"/>
</g>
<!-- Node11 -->
<g id="node11" class="node"><title>Node11</title>
<polygon fill="none" stroke="#bfbfbf" points="1858,-56.5 1858,-75.5 1904,-75.5 1904,-56.5 1858,-56.5"/>
<text text-anchor="middle" x="1881" y="-63.5" font-family="Helvetica,sans-Serif" font-size="10.00">cstring</text>
</g>
<!-- Node6&#45;&gt;Node11 -->
<g id="edge10" class="edge"><title>Node6&#45;&gt;Node11</title>
<path fill="none" stroke="midnightblue" d="M1187.02,-121.301C1301.33,-121.272 1594.33,-116.989 1847.57,-75.6614"/>
<polygon fill="midnightblue" stroke="midnightblue" points="1848.4,-79.0711 1857.69,-73.9851 1847.26,-72.1651 1848.4,-79.0711"/>
</g>
<!-- Node12 -->
<g id="node12" class="node"><title>Node12</title>
<polygon fill="none" stroke="#bfbfbf" points="1922.5,-56.5 1922.5,-75.5 1971.5,-75.5 1971.5,-56.5 1922.5,-56.5"/>
<text text-anchor="middle" x="1947" y="-63.5" font-family="Helvetica,sans-Serif" font-size="10.00">cstdarg</text>
</g>
<!-- Node6&#45;&gt;Node12 -->
<g id="edge11" class="edge"><title>Node6&#45;&gt;Node12</title>
<path fill="none" stroke="midnightblue" d="M1187.33,-121.552C1309.13,-122.185 1633.77,-119.431 1912.35,-75.7403"/>
<polygon fill="midnightblue" stroke="midnightblue" points="1912.91,-79.1948 1922.24,-74.1687 1911.82,-72.2815 1912.91,-79.1948"/>
</g>
<!-- Node13 -->
<g id="node13" class="node"><title>Node13</title>
<polygon fill="none" stroke="#bfbfbf" points="1990,-56.5 1990,-75.5 2034,-75.5 2034,-56.5 1990,-56.5"/>
<text text-anchor="middle" x="2012" y="-63.5" font-family="Helvetica,sans-Serif" font-size="10.00">cmath</text>
</g>
<!-- Node6&#45;&gt;Node13 -->
<g id="edge12" class="edge"><title>Node6&#45;&gt;Node13</title>
<path fill="none" stroke="midnightblue" d="M1187.17,-119.798C1340.12,-115.838 1807.09,-102.034 1979.8,-75.5305"/>
<polygon fill="midnightblue" stroke="midnightblue" points="1980.44,-78.9716 1989.76,-73.9316 1979.33,-72.06 1980.44,-78.9716"/>
</g>
<!-- Node14 -->
<g id="node14" class="node"><title>Node14</title>
<polygon fill="none" stroke="#bfbfbf" points="2052,-56.5 2052,-75.5 2096,-75.5 2096,-56.5 2052,-56.5"/>
<text text-anchor="middle" x="2074" y="-63.5" font-family="Helvetica,sans-Serif" font-size="10.00">vector</text>
</g>
<!-- Node6&#45;&gt;Node14 -->
<g id="edge13" class="edge"><title>Node6&#45;&gt;Node14</title>
<path fill="none" stroke="midnightblue" d="M1187.08,-120.065C1347.6,-116.774 1856.74,-104.449 2041.66,-75.7634"/>
<polygon fill="midnightblue" stroke="midnightblue" points="2042.48,-79.1754 2051.79,-74.1189 2041.36,-72.2657 2042.48,-79.1754"/>
</g>
<!-- Node15 -->
<g id="node15" class="node"><title>Node15</title>
<polygon fill="none" stroke="#bfbfbf" points="2114.5,-56.5 2114.5,-75.5 2149.5,-75.5 2149.5,-56.5 2114.5,-56.5"/>
<text text-anchor="middle" x="2132" y="-63.5" font-family="Helvetica,sans-Serif" font-size="10.00">map</text>
</g>
<!-- Node6&#45;&gt;Node15 -->
<g id="edge14" class="edge"><title>Node6&#45;&gt;Node15</title>
<path fill="none" stroke="midnightblue" d="M1187.19,-120.496C1355.27,-118.498 1906.85,-109.62 2104.48,-75.4235"/>
<polygon fill="midnightblue" stroke="midnightblue" points="2105.25,-78.8417 2114.46,-73.6167 2104,-71.9535 2105.25,-78.8417"/>
</g>
<!-- Node16 -->
<g id="node16" class="node"><title>Node16</title>
<polygon fill="none" stroke="#bfbfbf" points="2168,-56.5 2168,-75.5 2198,-75.5 2198,-56.5 2168,-56.5"/>
<text text-anchor="middle" x="2183" y="-63.5" font-family="Helvetica,sans-Serif" font-size="10.00">set</text>
</g>
<!-- Node6&#45;&gt;Node16 -->
<g id="edge16" class="edge"><title>Node6&#45;&gt;Node16</title>
<path fill="none" stroke="midnightblue" d="M1187.13,-120.787C1364.15,-119.714 1968.77,-113.339 2158,-76 2158.1,-75.9799 2158.2,-75.9595 2158.31,-75.9387"/>
<polygon fill="midnightblue" stroke="midnightblue" points="2159.18,-79.3286 2167.87,-73.2682 2157.3,-72.5865 2159.18,-79.3286"/>
</g>
<!-- Node17 -->
<g id="node17" class="node"><title>Node17</title>
<polygon fill="none" stroke="#bfbfbf" points="66.5,-56.5 66.5,-75.5 95.5,-75.5 95.5,-56.5 66.5,-56.5"/>
<text text-anchor="middle" x="81" y="-63.5" font-family="Helvetica,sans-Serif" font-size="10.00">list</text>
</g>
<!-- Node6&#45;&gt;Node17 -->
<g id="edge17" class="edge"><title>Node6&#45;&gt;Node17</title>
<path fill="none" stroke="midnightblue" d="M1088.77,-120.996C912.878,-120.654 315.204,-116.601 105.845,-75.6769"/>
<polygon fill="midnightblue" stroke="midnightblue" points="106.374,-72.2126 95.8754,-73.6364 104.971,-79.0704 106.374,-72.2126"/>
</g>
<!-- Node18 -->
<g id="node18" class="node"><title>Node18</title>
<polygon fill="none" stroke="#bfbfbf" points="113.5,-56.5 113.5,-75.5 156.5,-75.5 156.5,-56.5 113.5,-56.5"/>
<text text-anchor="middle" x="135" y="-63.5" font-family="Helvetica,sans-Serif" font-size="10.00">deque</text>
</g>
<!-- Node6&#45;&gt;Node18 -->
<g id="edge18" class="edge"><title>Node6&#45;&gt;Node18</title>
<path fill="none" stroke="midnightblue" d="M1088.84,-120.318C920.182,-117.734 364.98,-107.148 166.816,-75.8671"/>
<polygon fill="midnightblue" stroke="midnightblue" points="167.244,-72.3905 156.807,-74.2167 166.105,-79.2972 167.244,-72.3905"/>
</g>
<!-- Node19 -->
<g id="node19" class="node"><title>Node19</title>
<polygon fill="none" stroke="#bfbfbf" points="174.5,-56.5 174.5,-75.5 217.5,-75.5 217.5,-56.5 174.5,-56.5"/>
<text text-anchor="middle" x="196" y="-63.5" font-family="Helvetica,sans-Serif" font-size="10.00">queue</text>
</g>
<!-- Node6&#45;&gt;Node19 -->
<g id="edge19" class="edge"><title>Node6&#45;&gt;Node19</title>
<path fill="none" stroke="midnightblue" d="M1088.81,-120.141C927.267,-117.08 413.18,-105.363 227.708,-75.8554"/>
<polygon fill="midnightblue" stroke="midnightblue" points="228.248,-72.3972 217.809,-74.2086 227.099,-79.3023 228.248,-72.3972"/>
</g>
<!-- Node20 -->
<g id="node20" class="node"><title>Node20</title>
<polygon fill="none" stroke="#bfbfbf" points="235.5,-56.5 235.5,-75.5 276.5,-75.5 276.5,-56.5 235.5,-56.5"/>
<text text-anchor="middle" x="256" y="-63.5" font-family="Helvetica,sans-Serif" font-size="10.00">bitset</text>
</g>
<!-- Node6&#45;&gt;Node20 -->
<g id="edge20" class="edge"><title>Node6&#45;&gt;Node20</title>
<path fill="none" stroke="midnightblue" d="M1088.78,-119.943C934.534,-116.392 460.961,-103.624 286.563,-75.5501"/>
<polygon fill="midnightblue" stroke="midnightblue" points="286.944,-72.0651 276.502,-73.8541 285.781,-78.9677 286.944,-72.0651"/>
</g>
<!-- Node21 -->
<g id="node21" class="node"><title>Node21</title>
<polygon fill="none" stroke="#bfbfbf" points="295,-56.5 295,-75.5 351,-75.5 351,-56.5 295,-56.5"/>
<text text-anchor="middle" x="323" y="-63.5" font-family="Helvetica,sans-Serif" font-size="10.00">algorithm</text>
</g>
<!-- Node6&#45;&gt;Node21 -->
<g id="edge21" class="edge"><title>Node6&#45;&gt;Node21</title>
<path fill="none" stroke="midnightblue" d="M1088.98,-121.229C967.192,-121.143 641.074,-116.903 361.117,-75.8849"/>
<polygon fill="midnightblue" stroke="midnightblue" points="361.583,-72.4158 351.178,-74.4102 360.556,-79.34 361.583,-72.4158"/>
</g>
<!-- Node22 -->
<g id="node22" class="node"><title>Node22</title>
<polygon fill="none" stroke="#bfbfbf" points="369.5,-56.5 369.5,-75.5 428.5,-75.5 428.5,-56.5 369.5,-56.5"/>
<text text-anchor="middle" x="399" y="-63.5" font-family="Helvetica,sans-Serif" font-size="10.00">functional</text>
</g>
<!-- Node6&#45;&gt;Node22 -->
<g id="edge22" class="edge"><title>Node6&#45;&gt;Node22</title>
<path fill="none" stroke="midnightblue" d="M1088.92,-120.581C975.835,-119.03 688.206,-111.729 438.695,-75.8357"/>
<polygon fill="midnightblue" stroke="midnightblue" points="439.116,-72.3602 428.716,-74.3818 438.107,-79.287 439.116,-72.3602"/>
</g>
<!-- Node23 -->
<g id="node23" class="node"><title>Node23</title>
<polygon fill="none" stroke="#bfbfbf" points="447,-56.5 447,-75.5 487,-75.5 487,-56.5 447,-56.5"/>
<text text-anchor="middle" x="467" y="-63.5" font-family="Helvetica,sans-Serif" font-size="10.00">limits</text>
</g>
<!-- Node6&#45;&gt;Node23 -->
<g id="edge23" class="edge"><title>Node6&#45;&gt;Node23</title>
<path fill="none" stroke="midnightblue" d="M1088.78,-121.398C982.168,-121.437 722.028,-117.077 497.137,-75.7667"/>
<polygon fill="midnightblue" stroke="midnightblue" points="497.604,-72.2934 487.131,-73.8997 496.32,-79.1747 497.604,-72.2934"/>
</g>
<!-- Node24 -->
<g id="node24" class="node"><title>Node24</title>
<polygon fill="none" stroke="#bfbfbf" points="505,-56.5 505,-75.5 555,-75.5 555,-56.5 505,-56.5"/>
<text text-anchor="middle" x="530" y="-63.5" font-family="Helvetica,sans-Serif" font-size="10.00">fstream</text>
</g>
<!-- Node6&#45;&gt;Node24 -->
<g id="edge24" class="edge"><title>Node6&#45;&gt;Node24</title>
<path fill="none" stroke="midnightblue" d="M1088.87,-120.13C990.87,-117.751 764.098,-109.028 565.189,-75.8949"/>
<polygon fill="midnightblue" stroke="midnightblue" points="565.583,-72.412 555.14,-74.196 564.417,-79.3141 565.583,-72.412"/>
</g>
<!-- Node25 -->
<g id="node25" class="node"><title>Node25</title>
<polygon fill="none" stroke="#bfbfbf" points="573.5,-56.5 573.5,-75.5 618.5,-75.5 618.5,-56.5 573.5,-56.5"/>
<text text-anchor="middle" x="596" y="-63.5" font-family="Helvetica,sans-Serif" font-size="10.00">iosfwd</text>
</g>
<!-- Node6&#45;&gt;Node25 -->
<g id="edge25" class="edge"><title>Node6&#45;&gt;Node25</title>
<path fill="none" stroke="midnightblue" d="M1088.72,-119.696C998.923,-116.66 802.673,-106.984 628.46,-75.7159"/>
<polygon fill="midnightblue" stroke="midnightblue" points="629.069,-72.2694 618.603,-73.9192 627.814,-79.1559 629.069,-72.2694"/>
</g>
<!-- Node26 -->
<g id="node26" class="node"><title>Node26</title>
<polygon fill="none" stroke="#bfbfbf" points="637,-56.5 637,-75.5 689,-75.5 689,-56.5 637,-56.5"/>
<text text-anchor="middle" x="663" y="-63.5" font-family="Helvetica,sans-Serif" font-size="10.00">sstream</text>
</g>
<!-- Node6&#45;&gt;Node26 -->
<g id="edge26" class="edge"><title>Node6&#45;&gt;Node26</title>
<path fill="none" stroke="midnightblue" d="M1088.83,-118.381C1009,-113.603 846.126,-101.673 699.37,-75.9994"/>
<polygon fill="midnightblue" stroke="midnightblue" points="699.738,-72.5102 689.281,-74.2079 698.515,-79.4024 699.738,-72.5102"/>
</g>
<!-- Node27 -->
<g id="node27" class="node"><title>Node27</title>
<polygon fill="none" stroke="#bfbfbf" points="707,-56.5 707,-75.5 775,-75.5 775,-56.5 707,-56.5"/>
<text text-anchor="middle" x="741" y="-63.5" font-family="Helvetica,sans-Serif" font-size="10.00">sys/types.h</text>
</g>
<!-- Node6&#45;&gt;Node27 -->
<g id="edge27" class="edge"><title>Node6&#45;&gt;Node27</title>
<path fill="none" stroke="midnightblue" d="M1088.86,-116.008C1022.27,-108.967 899.499,-95.0062 785.192,-76.0866"/>
<polygon fill="midnightblue" stroke="midnightblue" points="785.661,-72.6165 775.221,-74.4197 784.507,-79.5207 785.661,-72.6165"/>
</g>
<!-- Node28 -->
<g id="node28" class="node"><title>Node28</title>
<polygon fill="none" stroke="#bfbfbf" points="793,-56.5 793,-75.5 853,-75.5 853,-56.5 793,-56.5"/>
<text text-anchor="middle" x="823" y="-63.5" font-family="Helvetica,sans-Serif" font-size="10.00">sys/stat.h</text>
</g>
<!-- Node6&#45;&gt;Node28 -->
<g id="edge28" class="edge"><title>Node6&#45;&gt;Node28</title>
<path fill="none" stroke="midnightblue" d="M1088.97,-113.992C1035.76,-106.167 948.074,-92.6342 863.252,-76.1444"/>
<polygon fill="midnightblue" stroke="midnightblue" points="863.679,-72.6615 853.192,-74.172 862.332,-79.5307 863.679,-72.6615"/>
</g>
<!-- Node29 -->
<g id="node29" class="node"><title>Node29</title>
<polygon fill="none" stroke="#bfbfbf" points="871.5,-56.5 871.5,-75.5 922.5,-75.5 922.5,-56.5 871.5,-56.5"/>
<text text-anchor="middle" x="897" y="-63.5" font-family="Helvetica,sans-Serif" font-size="10.00">unistd.h</text>
</g>
<!-- Node6&#45;&gt;Node29 -->
<g id="edge29" class="edge"><title>Node6&#45;&gt;Node29</title>
<path fill="none" stroke="midnightblue" d="M1096.86,-112.476C1057.32,-104.181 995.646,-90.9729 932.698,-76.0963"/>
<polygon fill="midnightblue" stroke="midnightblue" points="933.126,-72.6005 922.587,-73.6948 931.508,-79.4111 933.126,-72.6005"/>
</g>
<!-- Node30 -->
<g id="node30" class="node"><title>Node30</title>
<polygon fill="none" stroke="#bfbfbf" points="941,-56.5 941,-75.5 987,-75.5 987,-56.5 941,-56.5"/>
<text text-anchor="middle" x="964" y="-63.5" font-family="Helvetica,sans-Serif" font-size="10.00">dlfcn.h</text>
</g>
<!-- Node6&#45;&gt;Node30 -->
<g id="edge30" class="edge"><title>Node6&#45;&gt;Node30</title>
<path fill="none" stroke="midnightblue" d="M1110.43,-112.444C1079.6,-102.876 1029.7,-87.3894 996.867,-77.2001"/>
<polygon fill="midnightblue" stroke="midnightblue" points="997.854,-73.8416 987.265,-74.2203 995.779,-80.5271 997.854,-73.8416"/>
</g>
<!-- Node31 -->
<g id="node31" class="node"><title>Node31</title>
<polygon fill="none" stroke="#bfbfbf" points="1005,-56.5 1005,-75.5 1083,-75.5 1083,-56.5 1005,-56.5"/>
<text text-anchor="middle" x="1044" y="-63.5" font-family="Helvetica,sans-Serif" font-size="10.00">ext/hash_map</text>
</g>
<!-- Node6&#45;&gt;Node31 -->
<g id="edge31" class="edge"><title>Node6&#45;&gt;Node31</title>
<path fill="none" stroke="midnightblue" d="M1122.9,-112.324C1108.1,-103.822 1085.31,-90.7288 1068.02,-80.7975"/>
<polygon fill="midnightblue" stroke="midnightblue" points="1069.48,-77.6009 1059.07,-75.6545 1065.99,-83.6707 1069.48,-77.6009"/>
</g>
<!-- Node32 -->
<g id="node32" class="node"><title>Node32</title>
<polygon fill="none" stroke="#bfbfbf" points="1101.5,-56.5 1101.5,-75.5 1174.5,-75.5 1174.5,-56.5 1101.5,-56.5"/>
<text text-anchor="middle" x="1138" y="-63.5" font-family="Helvetica,sans-Serif" font-size="10.00">ext/hash_set</text>
</g>
<!-- Node6&#45;&gt;Node32 -->
<g id="edge32" class="edge"><title>Node6&#45;&gt;Node32</title>
<path fill="none" stroke="midnightblue" d="M1138,-112.083C1138,-105.006 1138,-94.8611 1138,-85.9865"/>
<polygon fill="midnightblue" stroke="midnightblue" points="1141.5,-85.751 1138,-75.7511 1134.5,-85.7511 1141.5,-85.751"/>
</g>
<!-- Node33 -->
<g id="node33" class="node"><title>Node33</title>
<polygon fill="none" stroke="#bfbfbf" points="1192.5,-56.5 1192.5,-75.5 1263.5,-75.5 1263.5,-56.5 1192.5,-56.5"/>
<text text-anchor="middle" x="1228" y="-63.5" font-family="Helvetica,sans-Serif" font-size="10.00">sys/param.h</text>
</g>
<!-- Node6&#45;&gt;Node33 -->
<g id="edge33" class="edge"><title>Node6&#45;&gt;Node33</title>
<path fill="none" stroke="midnightblue" d="M1152.46,-112.324C1166.5,-103.9 1188.05,-90.9709 1204.54,-81.0741"/>
<polygon fill="midnightblue" stroke="midnightblue" points="1206.8,-83.8007 1213.58,-75.6545 1203.2,-77.7983 1206.8,-83.8007"/>
</g>
<!-- Node34 -->
<g id="node34" class="node"><title>Node34</title>
<polygon fill="none" stroke="#bfbfbf" points="1282,-56.5 1282,-75.5 1448,-75.5 1448,-56.5 1282,-56.5"/>
<text text-anchor="middle" x="1365" y="-63.5" font-family="Helvetica,sans-Serif" font-size="10.00">CoreFoundation/CoreFoundation.h</text>
</g>
<!-- Node6&#45;&gt;Node34 -->
<g id="edge34" class="edge"><title>Node6&#45;&gt;Node34</title>
<path fill="none" stroke="midnightblue" d="M1173.97,-112.444C1213.32,-103.083 1276.49,-88.0561 1319.31,-77.868"/>
<polygon fill="midnightblue" stroke="midnightblue" points="1320.28,-81.2358 1329.2,-75.5164 1318.66,-74.4258 1320.28,-81.2358"/>
</g>
<!-- Node35 -->
<g id="node35" class="node"><title>Node35</title>
<polygon fill="none" stroke="#bfbfbf" points="1466,-56.5 1466,-75.5 1590,-75.5 1590,-56.5 1466,-56.5"/>
<text text-anchor="middle" x="1528" y="-63.5" font-family="Helvetica,sans-Serif" font-size="10.00">emscripten/emscripten.h</text>
</g>
<!-- Node6&#45;&gt;Node35 -->
<g id="edge35" class="edge"><title>Node6&#45;&gt;Node35</title>
<path fill="none" stroke="midnightblue" d="M1187.39,-114.161C1255.36,-104.75 1378.17,-87.746 1456.26,-76.9326"/>
<polygon fill="midnightblue" stroke="midnightblue" points="1457.08,-80.3533 1466.5,-75.5148 1456.12,-73.4195 1457.08,-80.3533"/>
</g>
<!-- Node37 -->
<g id="node37" class="node"><title>Node37</title>
<g id="a_node37"><a xlink:href="_ogre_memory_allocated_object_8h.html" target="_top" xlink:title="OgreMemoryAllocatedObject.h">
<polygon fill="none" stroke="black" points="2444,-56.5 2444,-75.5 2594,-75.5 2594,-56.5 2444,-56.5"/>
<text text-anchor="middle" x="2519" y="-63.5" font-family="Helvetica,sans-Serif" font-size="10.00">OgreMemoryAllocatedObject.h</text>
</a>
</g>
</g>
<!-- Node36&#45;&gt;Node37 -->
<g id="edge37" class="edge"><title>Node36&#45;&gt;Node37</title>
<path fill="none" stroke="midnightblue" d="M2571.04,-112.324C2561.87,-104.341 2548.06,-92.3128 2536.97,-82.6529"/>
<polygon fill="midnightblue" stroke="midnightblue" points="2538.98,-79.7624 2529.14,-75.8339 2534.38,-85.041 2538.98,-79.7624"/>
</g>
<!-- Node36&#45;&gt;Node38 -->
<g id="edge41" class="edge"><title>Node36&#45;&gt;Node38</title>
<path fill="none" stroke="midnightblue" d="M2623.61,-112.48C2658.7,-104.829 2709.43,-92.2972 2752,-76 2770.19,-69.0361 2772.98,-63.3945 2791,-56 2824.06,-42.4342 2862.8,-30.4748 2891.61,-22.3013"/>
<polygon fill="midnightblue" stroke="midnightblue" points="2892.67,-25.6379 2901.36,-19.5717 2890.79,-18.897 2892.67,-25.6379"/>
</g>
<!-- Node36&#45;&gt;Node39 -->
<g id="edge49" class="edge"><title>Node36&#45;&gt;Node39</title>
<path fill="none" stroke="midnightblue" d="M2506.94,-116.136C2479.86,-110.332 2451.78,-98.7264 2435,-76 2423.63,-60.6041 2437.08,-40.5503 2449.86,-26.8127"/>
<polygon fill="midnightblue" stroke="midnightblue" points="2452.53,-29.0893 2457.12,-19.537 2447.58,-24.1465 2452.53,-29.0893"/>
</g>
<!-- Node40 -->
<g id="node40" class="node"><title>Node40</title>
<g id="a_node40"><a xlink:href="_ogre_memory_s_t_l_allocator_8h.html" target="_top" xlink:title="OgreMemorySTLAllocator.h">
<polygon fill="none" stroke="black" points="2800.5,-56.5 2800.5,-75.5 2937.5,-75.5 2937.5,-56.5 2800.5,-56.5"/>
<text text-anchor="middle" x="2869" y="-63.5" font-family="Helvetica,sans-Serif" font-size="10.00">OgreMemorySTLAllocator.h</text>
</a>
</g>
</g>
<!-- Node36&#45;&gt;Node40 -->
<g id="edge42" class="edge"><title>Node36&#45;&gt;Node40</title>
<path fill="none" stroke="midnightblue" d="M2626.63,-112.444C2677.3,-102.944 2759.07,-87.611 2813.43,-77.4198"/>
<polygon fill="midnightblue" stroke="midnightblue" points="2814.4,-80.7994 2823.58,-75.5164 2813.11,-73.9193 2814.4,-80.7994"/>
</g>
<!-- Node41 -->
<g id="node41" class="node"><title>Node41</title>
<g id="a_node41"><a xlink:href="_ogre_memory_ned_pooling_8h.html" target="_top" xlink:title="OgreMemoryNedPooling.h">
<polygon fill="none" stroke="black" points="2612.5,-56.5 2612.5,-75.5 2743.5,-75.5 2743.5,-56.5 2612.5,-56.5"/>
<text text-anchor="middle" x="2678" y="-63.5" font-family="Helvetica,sans-Serif" font-size="10.00">OgreMemoryNedPooling.h</text>
</a>
</g>
</g>
<!-- Node36&#45;&gt;Node41 -->
<g id="edge46" class="edge"><title>Node36&#45;&gt;Node41</title>
<path fill="none" stroke="midnightblue" d="M2596.58,-112.324C2612,-103.743 2635.81,-90.486 2653.71,-80.5224"/>
<polygon fill="midnightblue" stroke="midnightblue" points="2655.42,-83.5767 2662.45,-75.6545 2652.01,-77.4606 2655.42,-83.5767"/>
</g>
<!-- Node37&#45;&gt;Node2 -->
<g id="edge38" class="edge"><title>Node37&#45;&gt;Node2</title>
<path fill="none" stroke="midnightblue" d="M2501.74,-75.5914C2463.25,-94.7509 2370.17,-141.078 2324.36,-163.878"/>
<polygon fill="midnightblue" stroke="midnightblue" points="2322.73,-160.779 2315.34,-168.368 2325.85,-167.046 2322.73,-160.779"/>
</g>
<!-- Node37&#45;&gt;Node38 -->
<g id="edge39" class="edge"><title>Node37&#45;&gt;Node38</title>
<path fill="none" stroke="midnightblue" d="M2584.76,-56.4435C2663.72,-46.1689 2795.14,-29.0687 2872.27,-19.0329"/>
<polygon fill="midnightblue" stroke="midnightblue" points="2872.85,-22.4862 2882.32,-17.7251 2871.95,-15.5447 2872.85,-22.4862"/>
</g>
<!-- Node37&#45;&gt;Node39 -->
<g id="edge40" class="edge"><title>Node37&#45;&gt;Node39</title>
<path fill="none" stroke="midnightblue" d="M2510.41,-56.083C2502.84,-48.2195 2491.62,-36.5688 2482.49,-27.0813"/>
<polygon fill="midnightblue" stroke="midnightblue" points="2484.88,-24.5266 2475.43,-19.7511 2479.84,-29.3821 2484.88,-24.5266"/>
</g>
<!-- Node40&#45;&gt;Node2 -->
<g id="edge43" class="edge"><title>Node40&#45;&gt;Node2</title>
<path fill="none" stroke="midnightblue" d="M2846.62,-75.6034C2809.32,-89.5959 2731.85,-117.205 2664,-132 2558.41,-155.024 2432.93,-167.251 2359.7,-172.908"/>
<polygon fill="midnightblue" stroke="midnightblue" points="2359.43,-169.419 2349.72,-173.663 2359.96,-176.399 2359.43,-169.419"/>
</g>
<!-- Node40&#45;&gt;Node38 -->
<g id="edge44" class="edge"><title>Node40&#45;&gt;Node38</title>
<path fill="none" stroke="midnightblue" d="M2879.44,-56.324C2889.15,-48.2631 2903.82,-36.0765 2915.5,-26.3695"/>
<polygon fill="midnightblue" stroke="midnightblue" points="2917.91,-28.9163 2923.37,-19.8339 2913.44,-23.532 2917.91,-28.9163"/>
</g>
<!-- Node40&#45;&gt;Node39 -->
<g id="edge45" class="edge"><title>Node40&#45;&gt;Node39</title>
<path fill="none" stroke="midnightblue" d="M2805.3,-56.4435C2729.5,-46.2609 2603.79,-29.3744 2528.82,-19.3041"/>
<polygon fill="midnightblue" stroke="midnightblue" points="2528.97,-15.7923 2518.59,-17.9298 2528.03,-22.73 2528.97,-15.7923"/>
</g>
<!-- Node41&#45;&gt;Node38 -->
<g id="edge47" class="edge"><title>Node41&#45;&gt;Node38</title>
<path fill="none" stroke="midnightblue" d="M2718.56,-56.4435C2763.32,-47.0036 2835.38,-31.802 2883.7,-21.6111"/>
<polygon fill="midnightblue" stroke="midnightblue" points="2884.56,-25.0051 2893.63,-19.5164 2883.12,-18.1558 2884.56,-25.0051"/>
</g>
<!-- Node41&#45;&gt;Node39 -->
<g id="edge48" class="edge"><title>Node41&#45;&gt;Node39</title>
<path fill="none" stroke="midnightblue" d="M2644.57,-56.4435C2608.14,-47.1221 2549.77,-32.1828 2509.97,-21.9972"/>
<polygon fill="midnightblue" stroke="midnightblue" points="2510.83,-18.6051 2500.28,-19.5164 2509.1,-25.3866 2510.83,-18.6051"/>
</g>
<!-- Node42&#45;&gt;Node2 -->
<g id="edge51" class="edge"><title>Node42&#45;&gt;Node2</title>
<path fill="none" stroke="midnightblue" d="M2316.24,-392.388C2371.37,-367.74 2516.6,-294.171 2463,-224 2450.22,-207.269 2400.97,-195.266 2359.57,-187.887"/>
<polygon fill="midnightblue" stroke="midnightblue" points="2359.97,-184.403 2349.52,-186.155 2358.78,-191.301 2359.97,-184.403"/>
</g>
<!-- Node42&#45;&gt;Node38 -->
<g id="edge72" class="edge"><title>Node42&#45;&gt;Node38</title>
<path fill="none" stroke="midnightblue" d="M2377.2,-398.421C2582.85,-390.814 3108,-364.219 3108,-291 3108,-291 3108,-291 3108,-121 3108,-64.3767 3041.35,-35.7077 2990.55,-22.0799"/>
<polygon fill="midnightblue" stroke="midnightblue" points="2991.18,-18.6288 2980.63,-19.5511 2989.45,-25.4121 2991.18,-18.6288"/>
</g>
<!-- Node42&#45;&gt;Node39 -->
<g id="edge73" class="edge"><title>Node42&#45;&gt;Node39</title>
<path fill="none" stroke="midnightblue" d="M2214.97,-397.371C1811.44,-378.778 38,-290.709 38,-179 38,-179 38,-179 38,-121 38,-90.9022 33.086,-74.2756 57,-56 105.061,-19.2709 2033.19,-12.178 2405.23,-11.1504"/>
<polygon fill="midnightblue" stroke="midnightblue" points="2405.28,-14.6504 2415.27,-11.1231 2405.26,-7.65041 2405.28,-14.6504"/>
</g>
<!-- Node43 -->
<g id="node43" class="node"><title>Node43</title>
<g id="a_node43"><a xlink:href="_ogre_string_vector_8h.html" target="_top" xlink:title="OgreStringVector.h">
<polygon fill="none" stroke="black" points="2289,-280.5 2289,-299.5 2389,-299.5 2389,-280.5 2289,-280.5"/>
<text text-anchor="middle" x="2339" y="-287.5" font-family="Helvetica,sans-Serif" font-size="10.00">OgreStringVector.h</text>
</a>
</g>
</g>
<!-- Node42&#45;&gt;Node43 -->
<g id="edge52" class="edge"><title>Node42&#45;&gt;Node43</title>
<path fill="none" stroke="midnightblue" d="M2301.34,-392.296C2306.61,-383.417 2314.65,-369.118 2320,-356 2326.24,-340.691 2331.36,-322.587 2334.7,-309.378"/>
<polygon fill="midnightblue" stroke="midnightblue" points="2338.12,-310.148 2337.08,-299.604 2331.32,-308.493 2338.12,-310.148"/>
</g>
<!-- Node46 -->
<g id="node46" class="node"><title>Node46</title>
<g id="a_node46"><a xlink:href="_ogre_string_converter_8h.html" target="_top" xlink:title="OgreStringConverter.h">
<polygon fill="none" stroke="black" points="2197,-336.5 2197,-355.5 2311,-355.5 2311,-336.5 2197,-336.5"/>
<text text-anchor="middle" x="2254" y="-343.5" font-family="Helvetica,sans-Serif" font-size="10.00">OgreStringConverter.h</text>
</a>
</g>
</g>
<!-- Node42&#45;&gt;Node46 -->
<g id="edge60" class="edge"><title>Node42&#45;&gt;Node46</title>
<path fill="none" stroke="midnightblue" d="M2289.06,-392.083C2283.07,-384.377 2274.25,-373.033 2266.95,-363.653"/>
<polygon fill="midnightblue" stroke="midnightblue" points="2269.71,-361.496 2260.81,-355.751 2264.18,-365.793 2269.71,-361.496"/>
</g>
<!-- Node43&#45;&gt;Node2 -->
<g id="edge53" class="edge"><title>Node43&#45;&gt;Node2</title>
<path fill="none" stroke="midnightblue" d="M2336.21,-280.096C2332.22,-267.506 2324.53,-243.825 2317,-224 2313.57,-214.97 2309.43,-205.066 2305.89,-196.855"/>
<polygon fill="midnightblue" stroke="midnightblue" points="2309.04,-195.315 2301.83,-187.551 2302.62,-198.116 2309.04,-195.315"/>
</g>
<!-- Node44 -->
<g id="node44" class="node"><title>Node44</title>
<g id="a_node44"><a xlink:href="_ogre_shared_ptr_8h.html" target="_top" xlink:title="OgreSharedPtr.h">
<polygon fill="none" stroke="red" points="2365.5,-224.5 2365.5,-243.5 2454.5,-243.5 2454.5,-224.5 2365.5,-224.5"/>
<text text-anchor="middle" x="2410" y="-231.5" font-family="Helvetica,sans-Serif" font-size="10.00">OgreSharedPtr.h</text>
</a>
</g>
</g>
<!-- Node43&#45;&gt;Node44 -->
<g id="edge54" class="edge"><title>Node43&#45;&gt;Node44</title>
<path fill="none" stroke="midnightblue" d="M2350.41,-280.324C2361.11,-272.185 2377.34,-259.839 2390.16,-250.087"/>
<polygon fill="midnightblue" stroke="midnightblue" points="2392.54,-252.673 2398.39,-243.834 2388.31,-247.102 2392.54,-252.673"/>
</g>
<!-- Node45 -->
<g id="node45" class="node"><title>Node45</title>
<g id="a_node45"><a xlink:href="_ogre_string_8h.html" target="_top" xlink:title="OgreString.h">
<polygon fill="none" stroke="black" points="2511.5,-224.5 2511.5,-243.5 2582.5,-243.5 2582.5,-224.5 2511.5,-224.5"/>
<text text-anchor="middle" x="2547" y="-231.5" font-family="Helvetica,sans-Serif" font-size="10.00">OgreString.h</text>
</a>
</g>
</g>
<!-- Node43&#45;&gt;Node45 -->
<g id="edge56" class="edge"><title>Node43&#45;&gt;Node45</title>
<path fill="none" stroke="midnightblue" d="M2371.96,-280.444C2407.79,-271.142 2465.16,-256.246 2504.39,-246.062"/>
<polygon fill="midnightblue" stroke="midnightblue" points="2505.4,-249.417 2514.2,-243.516 2503.64,-242.642 2505.4,-249.417"/>
</g>
<!-- Node44&#45;&gt;Node2 -->
<g id="edge55" class="edge"><title>Node44&#45;&gt;Node2</title>
<path fill="none" stroke="midnightblue" d="M2392.01,-224.324C2373.96,-215.625 2345.95,-202.12 2325.2,-192.113"/>
<polygon fill="midnightblue" stroke="midnightblue" points="2326.48,-188.845 2315.95,-187.655 2323.44,-195.15 2326.48,-188.845"/>
</g>
<!-- Node45&#45;&gt;Node2 -->
<g id="edge57" class="edge"><title>Node45&#45;&gt;Node2</title>
<path fill="none" stroke="midnightblue" d="M2511.32,-225.263C2468.26,-215.924 2395.62,-200.171 2347.24,-189.679"/>
<polygon fill="midnightblue" stroke="midnightblue" points="2347.82,-186.223 2337.31,-187.524 2346.34,-193.064 2347.82,-186.223"/>
</g>
<!-- Node45&#45;&gt;Node38 -->
<g id="edge58" class="edge"><title>Node45&#45;&gt;Node38</title>
<path fill="none" stroke="midnightblue" d="M2582.56,-227.432C2687.74,-210.167 2993.63,-153.967 3051,-76 3070.79,-49.1131 3031.52,-31.933 2993.25,-22.0325"/>
<polygon fill="midnightblue" stroke="midnightblue" points="2993.6,-18.5157 2983.05,-19.5509 2991.94,-25.317 2993.6,-18.5157"/>
</g>
<!-- Node45&#45;&gt;Node39 -->
<g id="edge59" class="edge"><title>Node45&#45;&gt;Node39</title>
<path fill="none" stroke="midnightblue" d="M2536.93,-224.404C2512.31,-202.628 2449.43,-142.293 2427,-76 2424.15,-67.5801 2423.84,-64.3086 2427,-56 2431.34,-44.5976 2440.03,-34.2394 2448.21,-26.343"/>
<polygon fill="midnightblue" stroke="midnightblue" points="2450.64,-28.8633 2455.73,-19.5728 2445.96,-23.6595 2450.64,-28.8633"/>
</g>
<!-- Node46&#45;&gt;Node2 -->
<g id="edge64" class="edge"><title>Node46&#45;&gt;Node2</title>
<path fill="none" stroke="midnightblue" d="M2244.46,-336.341C2223.04,-315.84 2174.92,-263.117 2200,-224 2210.27,-207.976 2227.85,-197.582 2245.3,-190.874"/>
<polygon fill="midnightblue" stroke="midnightblue" points="2246.64,-194.111 2254.93,-187.514 2244.34,-187.502 2246.64,-194.111"/>
</g>
<!-- Node46&#45;&gt;Node43 -->
<g id="edge65" class="edge"><title>Node46&#45;&gt;Node43</title>
<path fill="none" stroke="midnightblue" d="M2267.66,-336.324C2280.92,-327.9 2301.27,-314.971 2316.85,-305.074"/>
<polygon fill="midnightblue" stroke="midnightblue" points="2318.81,-307.971 2325.38,-299.655 2315.06,-302.063 2318.81,-307.971"/>
</g>
<!-- Node47 -->
<g id="node47" class="node"><title>Node47</title>
<g id="a_node47"><a xlink:href="_ogre_common_8h.html" target="_top" xlink:title="OgreCommon.h">
<polygon fill="none" stroke="black" points="2956,-56.5 2956,-75.5 3042,-75.5 3042,-56.5 2956,-56.5"/>
<text text-anchor="middle" x="2999" y="-63.5" font-family="Helvetica,sans-Serif" font-size="10.00">OgreCommon.h</text>
</a>
</g>
</g>
<!-- Node46&#45;&gt;Node47 -->
<g id="edge61" class="edge"><title>Node46&#45;&gt;Node47</title>
<path fill="none" stroke="midnightblue" d="M2311.06,-343.319C2496.45,-337.11 3070,-311.701 3070,-235 3070,-235 3070,-235 3070,-177 3070,-138.101 3038.27,-102.052 3017.23,-82.4257"/>
<polygon fill="midnightblue" stroke="midnightblue" points="3019.56,-79.8128 3009.78,-75.7363 3014.89,-85.0215 3019.56,-79.8128"/>
</g>
<!-- Node48 -->
<g id="node48" class="node"><title>Node48</title>
<g id="a_node48"><a xlink:href="_ogre_colour_value_8h.html" target="_top" xlink:title="OgreColourValue.h">
<polygon fill="none" stroke="black" points="2209.5,-224.5 2209.5,-243.5 2308.5,-243.5 2308.5,-224.5 2209.5,-224.5"/>
<text text-anchor="middle" x="2259" y="-231.5" font-family="Helvetica,sans-Serif" font-size="10.00">OgreColourValue.h</text>
</a>
</g>
</g>
<!-- Node46&#45;&gt;Node48 -->
<g id="edge66" class="edge"><title>Node46&#45;&gt;Node48</title>
<path fill="none" stroke="midnightblue" d="M2254.39,-336.368C2255.2,-318.617 2257.06,-277.666 2258.15,-253.597"/>
<polygon fill="midnightblue" stroke="midnightblue" points="2261.65,-253.74 2258.61,-243.591 2254.66,-253.422 2261.65,-253.74"/>
</g>
<!-- Node49 -->
<g id="node49" class="node"><title>Node49</title>
<g id="a_node49"><a xlink:href="_ogre_matrix4_8h.html" target="_top" xlink:title="OgreMatrix4.h">
<polygon fill="none" stroke="red" points="2007,-280.5 2007,-299.5 2085,-299.5 2085,-280.5 2007,-280.5"/>
<text text-anchor="middle" x="2046" y="-287.5" font-family="Helvetica,sans-Serif" font-size="10.00">OgreMatrix4.h</text>
</a>
</g>
</g>
<!-- Node46&#45;&gt;Node49 -->
<g id="edge68" class="edge"><title>Node46&#45;&gt;Node49</title>
<path fill="none" stroke="midnightblue" d="M2221.04,-336.444C2185.21,-327.142 2127.84,-312.246 2088.61,-302.062"/>
<polygon fill="midnightblue" stroke="midnightblue" points="2089.36,-298.642 2078.8,-299.516 2087.6,-305.417 2089.36,-298.642"/>
</g>
<!-- Node50 -->
<g id="node50" class="node"><title>Node50</title>
<g id="a_node50"><a xlink:href="_ogre_vector2_8h.html" target="_top" xlink:title="OgreVector2.h">
<polygon fill="none" stroke="red" points="2103,-280.5 2103,-299.5 2183,-299.5 2183,-280.5 2103,-280.5"/>
<text text-anchor="middle" x="2143" y="-287.5" font-family="Helvetica,sans-Serif" font-size="10.00">OgreVector2.h</text>
</a>
</g>
</g>
<!-- Node46&#45;&gt;Node50 -->
<g id="edge70" class="edge"><title>Node46&#45;&gt;Node50</title>
<path fill="none" stroke="midnightblue" d="M2236.17,-336.324C2218.28,-327.625 2190.52,-314.12 2169.95,-304.113"/>
<polygon fill="midnightblue" stroke="midnightblue" points="2171.31,-300.882 2160.79,-299.655 2168.25,-307.177 2171.31,-300.882"/>
</g>
<!-- Node47&#45;&gt;Node38 -->
<g id="edge62" class="edge"><title>Node47&#45;&gt;Node38</title>
<path fill="none" stroke="midnightblue" d="M2988.56,-56.324C2978.85,-48.2631 2964.18,-36.0765 2952.5,-26.3695"/>
<polygon fill="midnightblue" stroke="midnightblue" points="2954.56,-23.532 2944.63,-19.8339 2950.09,-28.9163 2954.56,-23.532"/>
</g>
<!-- Node47&#45;&gt;Node39 -->
<g id="edge63" class="edge"><title>Node47&#45;&gt;Node39</title>
<path fill="none" stroke="midnightblue" d="M2955.91,-57.2759C2952.9,-56.8181 2949.91,-56.3871 2947,-56 2797.41,-36.0737 2620.43,-21.8938 2528.85,-15.2502"/>
<polygon fill="midnightblue" stroke="midnightblue" points="2528.87,-11.7429 2518.65,-14.5157 2528.37,-18.7248 2528.87,-11.7429"/>
</g>
<!-- Node48&#45;&gt;Node2 -->
<g id="edge67" class="edge"><title>Node48&#45;&gt;Node2</title>
<path fill="none" stroke="midnightblue" d="M2265.44,-224.083C2270.95,-216.455 2279.03,-205.264 2285.76,-195.941"/>
<polygon fill="midnightblue" stroke="midnightblue" points="2288.66,-197.907 2291.68,-187.751 2282.99,-193.809 2288.66,-197.907"/>
</g>
<!-- Node49&#45;&gt;Node2 -->
<g id="edge69" class="edge"><title>Node49&#45;&gt;Node2</title>
<path fill="none" stroke="midnightblue" d="M2057.72,-280.333C2076.55,-266.742 2115.07,-240.29 2151,-224 2183.18,-209.409 2221.39,-197.874 2250.79,-190.137"/>
<polygon fill="midnightblue" stroke="midnightblue" points="2251.98,-193.444 2260.8,-187.56 2250.24,-186.665 2251.98,-193.444"/>
</g>
<!-- Node50&#45;&gt;Node2 -->
<g id="edge71" class="edge"><title>Node50&#45;&gt;Node2</title>
<path fill="none" stroke="midnightblue" d="M2143.87,-280.139C2145.7,-266.282 2151.17,-239.472 2167,-224 2185.74,-205.681 2212.27,-194.804 2236.55,-188.352"/>
<polygon fill="midnightblue" stroke="midnightblue" points="2237.56,-191.709 2246.44,-185.93 2235.89,-184.911 2237.56,-191.709"/>
</g>
</g>
</svg>
