<?xml version="1.0" encoding="UTF-8" standalone="no"?>
<!DOCTYPE svg PUBLIC "-//W3C//DTD SVG 1.1//EN"
 "http://www.w3.org/Graphics/SVG/1.1/DTD/svg11.dtd">
<!-- Generated by graphviz version 2.38.0 (20140413.2041)
 -->
<!-- Title: OgreAnimable.h Pages: 1 -->
<svg width="3074pt" height="375pt"
 viewBox="0.00 0.00 3073.50 375.00" xmlns="http://www.w3.org/2000/svg" xmlns:xlink="http://www.w3.org/1999/xlink">
<g id="graph0" class="graph" transform="scale(1 1) rotate(0) translate(4 371)">
<title>OgreAnimable.h</title>
<!-- Node1 -->
<g id="node1" class="node"><title>Node1</title>
<polygon fill="#bfbfbf" stroke="black" points="1739.5,-347.5 1739.5,-366.5 1825.5,-366.5 1825.5,-347.5 1739.5,-347.5"/>
<text text-anchor="middle" x="1782.5" y="-354.5" font-family="Helvetica,sans-Serif" font-size="10.00">OgreAnimable.h</text>
</g>
<!-- Node2 -->
<g id="node2" class="node"><title>Node2</title>
<g id="a_node2"><a xlink:href="_ogre_movable_object_8h.html" target="_top" xlink:title="OgreMovableObject.h">
<polygon fill="none" stroke="black" points="1727,-291.5 1727,-310.5 1838,-310.5 1838,-291.5 1727,-291.5"/>
<text text-anchor="middle" x="1782.5" y="-298.5" font-family="Helvetica,sans-Serif" font-size="10.00">OgreMovableObject.h</text>
</a>
</g>
</g>
<!-- Node1&#45;&gt;Node2 -->
<g id="edge1" class="edge"><title>Node1&#45;&gt;Node2</title>
<path fill="none" stroke="midnightblue" d="M1782.5,-336.805C1782.5,-327.91 1782.5,-317.78 1782.5,-310.751"/>
<polygon fill="midnightblue" stroke="midnightblue" points="1779,-337.083 1782.5,-347.083 1786,-337.083 1779,-337.083"/>
</g>
<!-- Node3 -->
<g id="node3" class="node"><title>Node3</title>
<g id="a_node3"><a xlink:href="_ogre_light_8h.html" target="_top" xlink:title="OgreLight.h">
<polygon fill="none" stroke="black" points="880,-235.5 880,-254.5 947,-254.5 947,-235.5 880,-235.5"/>
<text text-anchor="middle" x="913.5" y="-242.5" font-family="Helvetica,sans-Serif" font-size="10.00">OgreLight.h</text>
</a>
</g>
</g>
<!-- Node2&#45;&gt;Node3 -->
<g id="edge2" class="edge"><title>Node2&#45;&gt;Node3</title>
<path fill="none" stroke="midnightblue" d="M1716.8,-295.918C1543.29,-285.135 1077.22,-256.174 947.449,-248.11"/>
<polygon fill="midnightblue" stroke="midnightblue" points="1716.62,-299.413 1726.82,-296.54 1717.05,-292.426 1716.62,-299.413"/>
</g>
<!-- Node16 -->
<g id="node16" class="node"><title>Node16</title>
<g id="a_node16"><a xlink:href="_ogre_billboard_chain_8h.html" target="_top" xlink:title="OgreBillboardChain.h">
<polygon fill="none" stroke="black" points="2542,-118 2542,-137 2651,-137 2651,-118 2542,-118"/>
<text text-anchor="middle" x="2596.5" y="-125" font-family="Helvetica,sans-Serif" font-size="10.00">OgreBillboardChain.h</text>
</a>
</g>
</g>
<!-- Node2&#45;&gt;Node16 -->
<g id="edge20" class="edge"><title>Node2&#45;&gt;Node16</title>
<path fill="none" stroke="midnightblue" d="M1848.21,-299.265C2074.58,-296.026 2811.73,-279.341 2876.5,-199 2882.08,-192.08 2882.2,-185.82 2876.5,-179 2848.35,-145.315 2724.3,-134.062 2651.1,-130.329"/>
<polygon fill="midnightblue" stroke="midnightblue" points="1848.09,-295.766 1838.14,-299.405 1848.19,-302.766 1848.09,-295.766"/>
</g>
<!-- Node18 -->
<g id="node18" class="node"><title>Node18</title>
<g id="a_node18"><a xlink:href="_ogre_billboard_set_8h.html" target="_top" xlink:title="OgreBillboardSet.h">
<polygon fill="none" stroke="black" points="1335.5,-235.5 1335.5,-254.5 1433.5,-254.5 1433.5,-235.5 1335.5,-235.5"/>
<text text-anchor="middle" x="1384.5" y="-242.5" font-family="Helvetica,sans-Serif" font-size="10.00">OgreBillboardSet.h</text>
</a>
</g>
</g>
<!-- Node2&#45;&gt;Node18 -->
<g id="edge24" class="edge"><title>Node2&#45;&gt;Node18</title>
<path fill="none" stroke="midnightblue" d="M1716.83,-291.089C1637.23,-280.289 1504.92,-262.339 1433.62,-252.665"/>
<polygon fill="midnightblue" stroke="midnightblue" points="1716.36,-294.558 1726.74,-292.435 1717.3,-287.622 1716.36,-294.558"/>
</g>
<!-- Node20 -->
<g id="node20" class="node"><title>Node20</title>
<g id="a_node20"><a xlink:href="_ogre_frustum_8h.html" target="_top" xlink:title="OgreFrustum.h">
<polygon fill="none" stroke="black" points="302.5,-179.5 302.5,-198.5 384.5,-198.5 384.5,-179.5 302.5,-179.5"/>
<text text-anchor="middle" x="343.5" y="-186.5" font-family="Helvetica,sans-Serif" font-size="10.00">OgreFrustum.h</text>
</a>
</g>
</g>
<!-- Node2&#45;&gt;Node20 -->
<g id="edge27" class="edge"><title>Node2&#45;&gt;Node20</title>
<path fill="none" stroke="midnightblue" d="M1716.46,-298.404C1566.08,-294.405 1186.69,-282.263 870.5,-255 688.875,-239.34 473.388,-209.088 384.728,-196.132"/>
<polygon fill="midnightblue" stroke="midnightblue" points="1716.8,-301.914 1726.89,-298.678 1716.98,-294.916 1716.8,-301.914"/>
</g>
<!-- Node29 -->
<g id="node29" class="node"><title>Node29</title>
<g id="a_node29"><a xlink:href="_ogre_entity_8h.html" target="_top" xlink:title="OgreEntity.h">
<polygon fill="none" stroke="black" points="2245,-235.5 2245,-254.5 2316,-254.5 2316,-235.5 2245,-235.5"/>
<text text-anchor="middle" x="2280.5" y="-242.5" font-family="Helvetica,sans-Serif" font-size="10.00">OgreEntity.h</text>
</a>
</g>
</g>
<!-- Node2&#45;&gt;Node29 -->
<g id="edge42" class="edge"><title>Node2&#45;&gt;Node29</title>
<path fill="none" stroke="midnightblue" d="M1848.17,-292.88C1954.71,-281.327 2161.66,-258.887 2244.72,-249.879"/>
<polygon fill="midnightblue" stroke="midnightblue" points="1847.74,-289.405 1838.18,-293.963 1848.5,-296.364 1847.74,-289.405"/>
</g>
<!-- Node31 -->
<g id="node31" class="node"><title>Node31</title>
<g id="a_node31"><a xlink:href="_ogre_instance_batch_8h.html" target="_top" xlink:title="OgreInstanceBatch.h">
<polygon fill="none" stroke="black" points="1793,-235.5 1793,-254.5 1902,-254.5 1902,-235.5 1793,-235.5"/>
<text text-anchor="middle" x="1847.5" y="-242.5" font-family="Helvetica,sans-Serif" font-size="10.00">OgreInstanceBatch.h</text>
</a>
</g>
</g>
<!-- Node2&#45;&gt;Node31 -->
<g id="edge45" class="edge"><title>Node2&#45;&gt;Node31</title>
<path fill="none" stroke="midnightblue" d="M1800.77,-284.82C1812.42,-275.145 1827.1,-262.948 1836.87,-254.834"/>
<polygon fill="midnightblue" stroke="midnightblue" points="1798.4,-282.242 1792.94,-291.324 1802.87,-287.626 1798.4,-282.242"/>
</g>
<!-- Node36 -->
<g id="node36" class="node"><title>Node36</title>
<g id="a_node36"><a xlink:href="_ogre_instanced_entity_8h.html" target="_top" xlink:title="OgreInstancedEntity.h">
<polygon fill="none" stroke="black" points="1249.5,-118 1249.5,-137 1363.5,-137 1363.5,-118 1249.5,-118"/>
<text text-anchor="middle" x="1306.5" y="-125" font-family="Helvetica,sans-Serif" font-size="10.00">OgreInstancedEntity.h</text>
</a>
</g>
</g>
<!-- Node2&#45;&gt;Node36 -->
<g id="edge51" class="edge"><title>Node2&#45;&gt;Node36</title>
<path fill="none" stroke="midnightblue" d="M1716.59,-298.537C1607.51,-295.281 1394.69,-285.163 1326.5,-255 1292.54,-239.979 1279.58,-232.933 1264.5,-199 1254.03,-175.434 1279.36,-149.949 1295.1,-137.04"/>
<polygon fill="midnightblue" stroke="midnightblue" points="1716.72,-302.042 1726.82,-298.831 1716.92,-295.044 1716.72,-302.042"/>
</g>
<!-- Node37 -->
<g id="node37" class="node"><title>Node37</title>
<g id="a_node37"><a xlink:href="_ogre_manual_object_8h.html" target="_top" xlink:title="OgreManualObject.h">
<polygon fill="none" stroke="black" points="1570.5,-235.5 1570.5,-254.5 1676.5,-254.5 1676.5,-235.5 1570.5,-235.5"/>
<text text-anchor="middle" x="1623.5" y="-242.5" font-family="Helvetica,sans-Serif" font-size="10.00">OgreManualObject.h</text>
</a>
</g>
</g>
<!-- Node2&#45;&gt;Node37 -->
<g id="edge53" class="edge"><title>Node2&#45;&gt;Node37</title>
<path fill="none" stroke="midnightblue" d="M1747.67,-288.172C1717.73,-278.004 1675.28,-263.585 1648.58,-254.516"/>
<polygon fill="midnightblue" stroke="midnightblue" points="1746.71,-291.542 1757.31,-291.444 1748.96,-284.914 1746.71,-291.542"/>
</g>
<!-- Node39 -->
<g id="node39" class="node"><title>Node39</title>
<g id="a_node39"><a xlink:href="_ogre_movable_plane_8h.html" target="_top" xlink:title="OgreMovablePlane.h">
<polygon fill="none" stroke="black" points="1420,-118 1420,-137 1527,-137 1527,-118 1420,-118"/>
<text text-anchor="middle" x="1473.5" y="-125" font-family="Helvetica,sans-Serif" font-size="10.00">OgreMovablePlane.h</text>
</a>
</g>
</g>
<!-- Node2&#45;&gt;Node39 -->
<g id="edge56" class="edge"><title>Node2&#45;&gt;Node39</title>
<path fill="none" stroke="midnightblue" d="M1716.43,-297.913C1670.22,-293.847 1608.58,-283.013 1561.5,-255 1513.68,-226.547 1485.47,-160.82 1476.58,-137.173"/>
<polygon fill="midnightblue" stroke="midnightblue" points="1716.39,-301.421 1726.64,-298.723 1716.95,-294.443 1716.39,-301.421"/>
</g>
<!-- Node40 -->
<g id="node40" class="node"><title>Node40</title>
<g id="a_node40"><a xlink:href="_ogre_particle_system_8h.html" target="_top" xlink:title="OgreParticleSystem.h">
<polygon fill="none" stroke="black" points="1600,-56.5 1600,-75.5 1713,-75.5 1713,-56.5 1600,-56.5"/>
<text text-anchor="middle" x="1656.5" y="-63.5" font-family="Helvetica,sans-Serif" font-size="10.00">OgreParticleSystem.h</text>
</a>
</g>
</g>
<!-- Node2&#45;&gt;Node40 -->
<g id="edge58" class="edge"><title>Node2&#45;&gt;Node40</title>
<path fill="none" stroke="midnightblue" d="M1773.06,-282.543C1747.92,-236.053 1679.99,-110.438 1661.31,-75.8958"/>
<polygon fill="midnightblue" stroke="midnightblue" points="1770.03,-284.3 1777.87,-291.431 1776.19,-280.97 1770.03,-284.3"/>
</g>
<!-- Node41 -->
<g id="node41" class="node"><title>Node41</title>
<g id="a_node41"><a xlink:href="_ogre_simple_renderable_8h.html" target="_top" xlink:title="OgreSimpleRenderable.h">
<polygon fill="none" stroke="black" points="2427,-235.5 2427,-254.5 2552,-254.5 2552,-235.5 2427,-235.5"/>
<text text-anchor="middle" x="2489.5" y="-242.5" font-family="Helvetica,sans-Serif" font-size="10.00">OgreSimpleRenderable.h</text>
</a>
</g>
</g>
<!-- Node2&#45;&gt;Node41 -->
<g id="edge60" class="edge"><title>Node2&#45;&gt;Node41</title>
<path fill="none" stroke="midnightblue" d="M1848.54,-294.956C1984.45,-284.575 2293.85,-260.944 2426.84,-250.786"/>
<polygon fill="midnightblue" stroke="midnightblue" points="1847.98,-291.489 1838.27,-295.74 1848.51,-298.468 1847.98,-291.489"/>
</g>
<!-- Node42 -->
<g id="node42" class="node"><title>Node42</title>
<g id="a_node42"><a xlink:href="_ogre_instanced_geometry_8h.html" target="_top" xlink:title="OgreInstancedGeometry.h">
<polygon fill="none" stroke="black" points="2736,-179.5 2736,-198.5 2867,-198.5 2867,-179.5 2736,-179.5"/>
<text text-anchor="middle" x="2801.5" y="-186.5" font-family="Helvetica,sans-Serif" font-size="10.00">OgreInstancedGeometry.h</text>
</a>
</g>
</g>
<!-- Node2&#45;&gt;Node42 -->
<g id="edge68" class="edge"><title>Node2&#45;&gt;Node42</title>
<path fill="none" stroke="midnightblue" d="M1848.34,-300.764C1983.14,-301.328 2299.88,-297.514 2561.5,-255 2641.6,-241.983 2733.49,-213.03 2776.65,-198.567"/>
<polygon fill="midnightblue" stroke="midnightblue" points="1848.2,-297.264 1838.18,-300.712 1848.16,-304.264 1848.2,-297.264"/>
</g>
<!-- Node45 -->
<g id="node45" class="node"><title>Node45</title>
<g id="a_node45"><a xlink:href="_ogre_static_geometry_8h.html" target="_top" xlink:title="OgreStaticGeometry.h">
<polygon fill="none" stroke="black" points="2016.5,-235.5 2016.5,-254.5 2130.5,-254.5 2130.5,-235.5 2016.5,-235.5"/>
<text text-anchor="middle" x="2073.5" y="-242.5" font-family="Helvetica,sans-Serif" font-size="10.00">OgreStaticGeometry.h</text>
</a>
</g>
</g>
<!-- Node2&#45;&gt;Node45 -->
<g id="edge66" class="edge"><title>Node2&#45;&gt;Node45</title>
<path fill="none" stroke="midnightblue" d="M1838.54,-289.601C1893.54,-279.395 1976.4,-264.019 2027.61,-254.516"/>
<polygon fill="midnightblue" stroke="midnightblue" points="1837.8,-286.178 1828.61,-291.444 1839.08,-293.06 1837.8,-286.178"/>
</g>
<!-- Node46 -->
<g id="node46" class="node"><title>Node46</title>
<g id="a_node46"><a xlink:href="_ogre_terrain_quad_tree_node_8h.html" target="_top" xlink:title="OgreTerrainQuadTreeNode.h">
<polygon fill="none" stroke="black" points="2923.5,-235.5 2923.5,-254.5 3065.5,-254.5 3065.5,-235.5 2923.5,-235.5"/>
<text text-anchor="middle" x="2994.5" y="-242.5" font-family="Helvetica,sans-Serif" font-size="10.00">OgreTerrainQuadTreeNode.h</text>
</a>
</g>
</g>
<!-- Node2&#45;&gt;Node46 -->
<g id="edge69" class="edge"><title>Node2&#45;&gt;Node46</title>
<path fill="none" stroke="midnightblue" d="M1848.28,-298.881C2021.91,-295.599 2506.9,-284.32 2909.5,-255 2913.94,-254.677 2918.51,-254.305 2923.11,-253.902"/>
<polygon fill="midnightblue" stroke="midnightblue" points="1848.21,-295.381 1838.27,-299.067 1848.34,-302.38 1848.21,-295.381"/>
</g>
<!-- Node4 -->
<g id="node4" class="node"><title>Node4</title>
<g id="a_node4"><a xlink:href="_ogre_auto_param_data_source_8h.html" target="_top" xlink:title="OgreAutoParamDataSource.h">
<polygon fill="none" stroke="black" points="583.5,-118 583.5,-137 729.5,-137 729.5,-118 583.5,-118"/>
<text text-anchor="middle" x="656.5" y="-125" font-family="Helvetica,sans-Serif" font-size="10.00">OgreAutoParamDataSource.h</text>
</a>
</g>
</g>
<!-- Node3&#45;&gt;Node4 -->
<g id="edge3" class="edge"><title>Node3&#45;&gt;Node4</title>
<path fill="none" stroke="midnightblue" d="M869.82,-235.609C837.504,-228.429 792.96,-216.46 756.5,-199 720.482,-181.752 683.435,-151.816 666.295,-137.129"/>
<polygon fill="midnightblue" stroke="midnightblue" points="869.343,-239.086 879.856,-237.772 870.818,-232.243 869.343,-239.086"/>
</g>
<!-- Node6 -->
<g id="node6" class="node"><title>Node6</title>
<g id="a_node6"><a xlink:href="_ogre_8h.html" target="_top" xlink:title="Ogre.h">
<polygon fill="none" stroke="red" points="1393.5,-0.5 1393.5,-19.5 1439.5,-19.5 1439.5,-0.5 1393.5,-0.5"/>
<text text-anchor="middle" x="1416.5" y="-7.5" font-family="Helvetica,sans-Serif" font-size="10.00">Ogre.h</text>
</a>
</g>
</g>
<!-- Node3&#45;&gt;Node6 -->
<g id="edge14" class="edge"><title>Node3&#45;&gt;Node6</title>
<path fill="none" stroke="midnightblue" d="M909.662,-224.939C903.163,-186.537 894.952,-99.7984 942.5,-56 975.977,-25.1628 1302.71,-14.078 1393.31,-11.5835"/>
<polygon fill="midnightblue" stroke="midnightblue" points="906.3,-226.008 911.56,-235.205 913.183,-224.735 906.3,-226.008"/>
</g>
<!-- Node7 -->
<g id="node7" class="node"><title>Node7</title>
<g id="a_node7"><a xlink:href="_ogre_pass_8h.html" target="_top" xlink:title="OgrePass.h">
<polygon fill="none" stroke="black" points="1144.5,-179.5 1144.5,-198.5 1212.5,-198.5 1212.5,-179.5 1144.5,-179.5"/>
<text text-anchor="middle" x="1178.5" y="-186.5" font-family="Helvetica,sans-Serif" font-size="10.00">OgrePass.h</text>
</a>
</g>
</g>
<!-- Node3&#45;&gt;Node7 -->
<g id="edge6" class="edge"><title>Node3&#45;&gt;Node7</title>
<path fill="none" stroke="midnightblue" d="M957.114,-235.131C1001.69,-226.064 1072.93,-211.566 1134.5,-199 1137.71,-198.345 1141.05,-197.663 1144.39,-196.98"/>
<polygon fill="midnightblue" stroke="midnightblue" points="956.301,-231.725 947.199,-237.148 957.696,-238.584 956.301,-231.725"/>
</g>
<!-- Node11 -->
<g id="node11" class="node"><title>Node11</title>
<g id="a_node11"><a xlink:href="_ogre_shadow_volume_extrude_program_8h.html" target="_top" xlink:title="OgreShadowVolumeExtrudeProgram.h">
<polygon fill="none" stroke="black" points="941,-179.5 941,-198.5 1126,-198.5 1126,-179.5 941,-179.5"/>
<text text-anchor="middle" x="1033.5" y="-186.5" font-family="Helvetica,sans-Serif" font-size="10.00">OgreShadowVolumeExtrudeProgram.h</text>
</a>
</g>
</g>
<!-- Node3&#45;&gt;Node11 -->
<g id="edge15" class="edge"><title>Node3&#45;&gt;Node11</title>
<path fill="none" stroke="midnightblue" d="M941.873,-231.232C964.32,-221.131 995.035,-207.309 1014.57,-198.516"/>
<polygon fill="midnightblue" stroke="midnightblue" points="940.197,-228.148 932.514,-235.444 943.07,-234.532 940.197,-228.148"/>
</g>
<!-- Node12 -->
<g id="node12" class="node"><title>Node12</title>
<g id="a_node12"><a xlink:href="_ogre_shader_f_f_p_lighting_8h.html" target="_top" xlink:title="OgreShaderFFPLighting.h">
<polygon fill="none" stroke="black" points="490,-179.5 490,-198.5 619,-198.5 619,-179.5 490,-179.5"/>
<text text-anchor="middle" x="554.5" y="-186.5" font-family="Helvetica,sans-Serif" font-size="10.00">OgreShaderFFPLighting.h</text>
</a>
</g>
</g>
<!-- Node3&#45;&gt;Node12 -->
<g id="edge16" class="edge"><title>Node3&#45;&gt;Node12</title>
<path fill="none" stroke="midnightblue" d="M869.817,-237.429C804.925,-227.668 683.025,-209.332 611.287,-198.542"/>
<polygon fill="midnightblue" stroke="midnightblue" points="869.317,-240.893 879.726,-238.92 870.358,-233.971 869.317,-240.893"/>
</g>
<!-- Node14 -->
<g id="node14" class="node"><title>Node14</title>
<g id="a_node14"><a xlink:href="_ogre_d3_d9_mappings_8h.html" target="_top" xlink:title="OgreD3D9Mappings.h">
<polygon fill="none" stroke="black" points="766,-179.5 766,-198.5 879,-198.5 879,-179.5 766,-179.5"/>
<text text-anchor="middle" x="822.5" y="-186.5" font-family="Helvetica,sans-Serif" font-size="10.00">OgreD3D9Mappings.h</text>
</a>
</g>
</g>
<!-- Node3&#45;&gt;Node14 -->
<g id="edge18" class="edge"><title>Node3&#45;&gt;Node14</title>
<path fill="none" stroke="midnightblue" d="M890.206,-230.177C873.461,-220.241 851.4,-207.149 837.084,-198.655"/>
<polygon fill="midnightblue" stroke="midnightblue" points="888.493,-233.231 898.879,-235.324 892.066,-227.211 888.493,-233.231"/>
</g>
<!-- Node5 -->
<g id="node5" class="node"><title>Node5</title>
<g id="a_node5"><a xlink:href="_ogre_scene_manager_8h.html" target="_top" xlink:title="OgreSceneManager.h">
<polygon fill="none" stroke="red" points="952,-56.5 952,-75.5 1063,-75.5 1063,-56.5 952,-56.5"/>
<text text-anchor="middle" x="1007.5" y="-63.5" font-family="Helvetica,sans-Serif" font-size="10.00">OgreSceneManager.h</text>
</a>
</g>
</g>
<!-- Node4&#45;&gt;Node5 -->
<g id="edge4" class="edge"><title>Node4&#45;&gt;Node5</title>
<path fill="none" stroke="midnightblue" d="M714.078,-116.249C722.274,-114.81 730.599,-113.359 738.5,-112 813.98,-99.0133 901.467,-84.4728 955.656,-75.5265"/>
<polygon fill="midnightblue" stroke="midnightblue" points="713.425,-112.81 704.183,-117.991 714.639,-119.704 713.425,-112.81"/>
</g>
<!-- Node5&#45;&gt;Node6 -->
<g id="edge5" class="edge"><title>Node5&#45;&gt;Node6</title>
<path fill="none" stroke="midnightblue" d="M1073.26,-56.3177C1166.55,-44.0002 1332.74,-22.0583 1393.47,-14.0409"/>
<polygon fill="midnightblue" stroke="midnightblue" points="1072.54,-52.8822 1063.09,-57.6611 1073.46,-59.822 1072.54,-52.8822"/>
</g>
<!-- Node7&#45;&gt;Node6 -->
<g id="edge9" class="edge"><title>Node7&#45;&gt;Node6</title>
<path fill="none" stroke="midnightblue" d="M1166.57,-170.962C1148.61,-144.913 1116.12,-96.0956 1110.5,-76 1108.1,-67.4399 1104.69,-62.7271 1110.5,-56 1147.18,-13.5339 1327.92,-10.4136 1393.05,-10.6993"/>
<polygon fill="midnightblue" stroke="midnightblue" points="1163.88,-173.216 1172.45,-179.434 1169.63,-169.223 1163.88,-173.216"/>
</g>
<!-- Node8 -->
<g id="node8" class="node"><title>Node8</title>
<g id="a_node8"><a xlink:href="_ogre_render_queue_sorting_grouping_8h.html" target="_top" xlink:title="OgreRenderQueueSortingGrouping.h">
<polygon fill="none" stroke="red" points="941.5,-118 941.5,-137 1117.5,-137 1117.5,-118 941.5,-118"/>
<text text-anchor="middle" x="1029.5" y="-125" font-family="Helvetica,sans-Serif" font-size="10.00">OgreRenderQueueSortingGrouping.h</text>
</a>
</g>
</g>
<!-- Node7&#45;&gt;Node8 -->
<g id="edge7" class="edge"><title>Node7&#45;&gt;Node8</title>
<path fill="none" stroke="midnightblue" d="M1147.53,-175.631C1118.58,-164.072 1076.13,-147.12 1050.81,-137.009"/>
<polygon fill="midnightblue" stroke="midnightblue" points="1146.57,-179.017 1157.15,-179.475 1149.16,-172.516 1146.57,-179.017"/>
</g>
<!-- Node9 -->
<g id="node9" class="node"><title>Node9</title>
<g id="a_node9"><a xlink:href="_ogre_render_object_listener_8h.html" target="_top" xlink:title="OgreRenderObjectListener.h">
<polygon fill="none" stroke="red" points="1119.5,-56.5 1119.5,-75.5 1259.5,-75.5 1259.5,-56.5 1119.5,-56.5"/>
<text text-anchor="middle" x="1189.5" y="-63.5" font-family="Helvetica,sans-Serif" font-size="10.00">OgreRenderObjectListener.h</text>
</a>
</g>
</g>
<!-- Node7&#45;&gt;Node9 -->
<g id="edge10" class="edge"><title>Node7&#45;&gt;Node9</title>
<path fill="none" stroke="midnightblue" d="M1180.23,-168.988C1182.65,-142.346 1186.95,-94.995 1188.72,-75.6232"/>
<polygon fill="midnightblue" stroke="midnightblue" points="1176.71,-169.022 1179.29,-179.298 1183.68,-169.656 1176.71,-169.022"/>
</g>
<!-- Node10 -->
<g id="node10" class="node"><title>Node10</title>
<g id="a_node10"><a xlink:href="_ogre_technique_8h.html" target="_top" xlink:title="OgreTechnique.h">
<polygon fill="none" stroke="black" points="1278,-56.5 1278,-75.5 1369,-75.5 1369,-56.5 1278,-56.5"/>
<text text-anchor="middle" x="1323.5" y="-63.5" font-family="Helvetica,sans-Serif" font-size="10.00">OgreTechnique.h</text>
</a>
</g>
</g>
<!-- Node7&#45;&gt;Node10 -->
<g id="edge12" class="edge"><title>Node7&#45;&gt;Node10</title>
<path fill="none" stroke="midnightblue" d="M1189.87,-170.393C1201.22,-153.822 1219.89,-129.068 1240.5,-112 1259.56,-96.2135 1285.01,-83.394 1302.69,-75.5336"/>
<polygon fill="midnightblue" stroke="midnightblue" points="1186.71,-168.821 1184.08,-179.084 1192.54,-172.704 1186.71,-168.821"/>
</g>
<!-- Node8&#45;&gt;Node5 -->
<g id="edge8" class="edge"><title>Node8&#45;&gt;Node5</title>
<path fill="none" stroke="midnightblue" d="M1022.84,-108.497C1018.8,-97.5497 1013.81,-84.0746 1010.65,-75.5091"/>
<polygon fill="midnightblue" stroke="midnightblue" points="1019.6,-109.81 1026.35,-117.975 1026.16,-107.382 1019.6,-109.81"/>
</g>
<!-- Node9&#45;&gt;Node6 -->
<g id="edge11" class="edge"><title>Node9&#45;&gt;Node6</title>
<path fill="none" stroke="midnightblue" d="M1235.29,-54.1077C1283.21,-42.7071 1356.53,-25.2671 1393.49,-16.4736"/>
<polygon fill="midnightblue" stroke="midnightblue" points="1234.39,-50.7242 1225.47,-56.4435 1236.01,-57.5342 1234.39,-50.7242"/>
</g>
<!-- Node10&#45;&gt;Node6 -->
<g id="edge13" class="edge"><title>Node10&#45;&gt;Node6</title>
<path fill="none" stroke="midnightblue" d="M1347.31,-51.1774C1364.42,-41.2407 1386.97,-28.1492 1401.6,-19.6545"/>
<polygon fill="midnightblue" stroke="midnightblue" points="1345.33,-48.2758 1338.44,-56.324 1348.85,-54.3293 1345.33,-48.2758"/>
</g>
<!-- Node13 -->
<g id="node13" class="node"><title>Node13</title>
<g id="a_node13"><a xlink:href="_ogre_r_t_shader_system_8h.html" target="_top" xlink:title="OgreRTShaderSystem.h">
<polygon fill="none" stroke="red" points="441.5,-118 441.5,-137 565.5,-137 565.5,-118 441.5,-118"/>
<text text-anchor="middle" x="503.5" y="-125" font-family="Helvetica,sans-Serif" font-size="10.00">OgreRTShaderSystem.h</text>
</a>
</g>
</g>
<!-- Node12&#45;&gt;Node13 -->
<g id="edge17" class="edge"><title>Node12&#45;&gt;Node13</title>
<path fill="none" stroke="midnightblue" d="M540.502,-171.669C530.887,-160.452 518.514,-146.016 510.794,-137.009"/>
<polygon fill="midnightblue" stroke="midnightblue" points="538.028,-174.16 547.193,-179.475 543.342,-169.605 538.028,-174.16"/>
</g>
<!-- Node15 -->
<g id="node15" class="node"><title>Node15</title>
<g id="a_node15"><a xlink:href="_ogre_d3_d9_render_system_8h.html" target="_top" xlink:title="OgreD3D9RenderSystem.h">
<polygon fill="none" stroke="red" points="748,-118 748,-137 885,-137 885,-118 748,-118"/>
<text text-anchor="middle" x="816.5" y="-125" font-family="Helvetica,sans-Serif" font-size="10.00">OgreD3D9RenderSystem.h</text>
</a>
</g>
</g>
<!-- Node14&#45;&gt;Node15 -->
<g id="edge19" class="edge"><title>Node14&#45;&gt;Node15</title>
<path fill="none" stroke="midnightblue" d="M820.616,-169.317C819.525,-158.496 818.204,-145.398 817.358,-137.009"/>
<polygon fill="midnightblue" stroke="midnightblue" points="817.155,-169.877 821.64,-179.475 824.119,-169.174 817.155,-169.877"/>
</g>
<!-- Node16&#45;&gt;Node6 -->
<g id="edge21" class="edge"><title>Node16&#45;&gt;Node6</title>
<path fill="none" stroke="midnightblue" d="M2597.13,-107.759C2596.56,-91.3231 2592.8,-68.2002 2577.5,-56 2531.37,-19.2158 1599.54,-12.0798 1439.73,-11.1249"/>
<polygon fill="midnightblue" stroke="midnightblue" points="2593.63,-107.849 2597.12,-117.853 2600.63,-107.856 2593.63,-107.849"/>
</g>
<!-- Node17 -->
<g id="node17" class="node"><title>Node17</title>
<g id="a_node17"><a xlink:href="_ogre_ribbon_trail_8h.html" target="_top" xlink:title="OgreRibbonTrail.h">
<polygon fill="none" stroke="black" points="2473,-56.5 2473,-75.5 2568,-75.5 2568,-56.5 2473,-56.5"/>
<text text-anchor="middle" x="2520.5" y="-63.5" font-family="Helvetica,sans-Serif" font-size="10.00">OgreRibbonTrail.h</text>
</a>
</g>
</g>
<!-- Node16&#45;&gt;Node17 -->
<g id="edge22" class="edge"><title>Node16&#45;&gt;Node17</title>
<path fill="none" stroke="midnightblue" d="M2577.72,-111.794C2563.14,-100.38 2543.44,-84.9577 2531.37,-75.5091"/>
<polygon fill="midnightblue" stroke="midnightblue" points="2575.58,-114.566 2585.61,-117.975 2579.89,-109.055 2575.58,-114.566"/>
</g>
<!-- Node17&#45;&gt;Node6 -->
<g id="edge23" class="edge"><title>Node17&#45;&gt;Node6</title>
<path fill="none" stroke="midnightblue" d="M2462.47,-56.3934C2461.13,-56.2545 2459.81,-56.123 2458.5,-56 2051.52,-17.7719 1552.02,-11.9721 1439.66,-11.1352"/>
<polygon fill="midnightblue" stroke="midnightblue" points="2462.5,-59.9196 2472.83,-57.5848 2463.3,-52.9654 2462.5,-59.9196"/>
</g>
<!-- Node18&#45;&gt;Node6 -->
<g id="edge25" class="edge"><title>Node18&#45;&gt;Node6</title>
<path fill="none" stroke="midnightblue" d="M1344.12,-232.018C1314.72,-221.039 1282.48,-202.871 1297.5,-179 1317.19,-147.705 1347.21,-169.974 1372.5,-143 1406.7,-106.521 1414.36,-42.7308 1416.04,-19.6474"/>
<polygon fill="midnightblue" stroke="midnightblue" points="1343.31,-235.444 1353.9,-235.464 1345.63,-228.842 1343.31,-235.444"/>
</g>
<!-- Node19 -->
<g id="node19" class="node"><title>Node19</title>
<g id="a_node19"><a xlink:href="_ogre_billboard_particle_renderer_8h.html" target="_top" xlink:title="OgreBillboardParticleRenderer.h">
<polygon fill="none" stroke="black" points="1306.5,-179.5 1306.5,-198.5 1462.5,-198.5 1462.5,-179.5 1306.5,-179.5"/>
<text text-anchor="middle" x="1384.5" y="-186.5" font-family="Helvetica,sans-Serif" font-size="10.00">OgreBillboardParticleRenderer.h</text>
</a>
</g>
</g>
<!-- Node18&#45;&gt;Node19 -->
<g id="edge26" class="edge"><title>Node18&#45;&gt;Node19</title>
<path fill="none" stroke="midnightblue" d="M1384.5,-224.805C1384.5,-215.91 1384.5,-205.78 1384.5,-198.751"/>
<polygon fill="midnightblue" stroke="midnightblue" points="1381,-225.083 1384.5,-235.083 1388,-225.083 1381,-225.083"/>
</g>
<!-- Node20&#45;&gt;Node6 -->
<g id="edge39" class="edge"><title>Node20&#45;&gt;Node6</title>
<path fill="none" stroke="midnightblue" d="M361.026,-172.579C385.738,-150.903 428.299,-113.841 432.5,-112 613.184,-32.811 1262.1,-14.411 1393.28,-11.4702"/>
<polygon fill="midnightblue" stroke="midnightblue" points="358.615,-170.038 353.412,-179.267 363.235,-175.298 358.615,-170.038"/>
</g>
<!-- Node21 -->
<g id="node21" class="node"><title>Node21</title>
<g id="a_node21"><a xlink:href="_ogre_camera_8h.html" target="_top" xlink:title="OgreCamera.h">
<polygon fill="none" stroke="black" points="233.5,-56.5 233.5,-75.5 313.5,-75.5 313.5,-56.5 233.5,-56.5"/>
<text text-anchor="middle" x="273.5" y="-63.5" font-family="Helvetica,sans-Serif" font-size="10.00">OgreCamera.h</text>
</a>
</g>
</g>
<!-- Node20&#45;&gt;Node21 -->
<g id="edge28" class="edge"><title>Node20&#45;&gt;Node21</title>
<path fill="none" stroke="midnightblue" d="M321.524,-173.396C311.286,-165.529 299.786,-154.981 292.5,-143 279.214,-121.154 275.195,-90.4069 273.997,-75.614"/>
<polygon fill="midnightblue" stroke="midnightblue" points="319.559,-176.296 329.705,-179.347 323.677,-170.634 319.559,-176.296"/>
</g>
<!-- Node25 -->
<g id="node25" class="node"><title>Node25</title>
<g id="a_node25"><a xlink:href="_ogre_viewport_8h.html" target="_top" xlink:title="OgreViewport.h">
<polygon fill="none" stroke="black" points="301.5,-118 301.5,-137 385.5,-137 385.5,-118 301.5,-118"/>
<text text-anchor="middle" x="343.5" y="-125" font-family="Helvetica,sans-Serif" font-size="10.00">OgreViewport.h</text>
</a>
</g>
</g>
<!-- Node20&#45;&gt;Node25 -->
<g id="edge33" class="edge"><title>Node20&#45;&gt;Node25</title>
<path fill="none" stroke="midnightblue" d="M343.5,-169.317C343.5,-158.496 343.5,-145.398 343.5,-137.009"/>
<polygon fill="midnightblue" stroke="midnightblue" points="340,-169.475 343.5,-179.475 347,-169.475 340,-169.475"/>
</g>
<!-- Node28 -->
<g id="node28" class="node"><title>Node28</title>
<g id="a_node28"><a xlink:href="_ogre_overlay_manager_8h.html" target="_top" xlink:title="OgreOverlayManager.h">
<polygon fill="none" stroke="black" points="0,-56.5 0,-75.5 117,-75.5 117,-56.5 0,-56.5"/>
<text text-anchor="middle" x="58.5" y="-63.5" font-family="Helvetica,sans-Serif" font-size="10.00">OgreOverlayManager.h</text>
</a>
</g>
</g>
<!-- Node20&#45;&gt;Node28 -->
<g id="edge40" class="edge"><title>Node20&#45;&gt;Node28</title>
<path fill="none" stroke="midnightblue" d="M314.138,-175.534C256.232,-150.95 128.624,-96.7721 78.9,-75.661"/>
<polygon fill="midnightblue" stroke="midnightblue" points="312.887,-178.805 323.459,-179.492 315.622,-172.362 312.887,-178.805"/>
</g>
<!-- Node21&#45;&gt;Node6 -->
<g id="edge29" class="edge"><title>Node21&#45;&gt;Node6</title>
<path fill="none" stroke="midnightblue" d="M323.798,-56.0317C758.6,-8.16887 1278.41,-9.75205 1393.31,-10.7485"/>
<polygon fill="midnightblue" stroke="midnightblue" points="323.095,-52.5881 313.543,-57.1715 323.869,-59.5453 323.095,-52.5881"/>
</g>
<!-- Node22 -->
<g id="node22" class="node"><title>Node22</title>
<g id="a_node22"><a xlink:href="_ogre_camera_man_8h.html" target="_top" xlink:title="OgreCameraMan.h">
<polygon fill="none" stroke="black" points="345,-0.5 345,-19.5 444,-19.5 444,-0.5 345,-0.5"/>
<text text-anchor="middle" x="394.5" y="-7.5" font-family="Helvetica,sans-Serif" font-size="10.00">OgreCameraMan.h</text>
</a>
</g>
</g>
<!-- Node21&#45;&gt;Node22 -->
<g id="edge30" class="edge"><title>Node21&#45;&gt;Node22</title>
<path fill="none" stroke="midnightblue" d="M301.806,-52.3678C324.465,-42.2553 355.626,-28.3486 375.417,-19.5164"/>
<polygon fill="midnightblue" stroke="midnightblue" points="300.378,-49.1719 292.673,-56.4435 303.231,-55.5643 300.378,-49.1719"/>
</g>
<!-- Node23 -->
<g id="node23" class="node"><title>Node23</title>
<g id="a_node23"><a xlink:href="_ogre_trays_8h.html" target="_top" xlink:title="OgreTrays.h">
<polygon fill="none" stroke="black" points="131,-0.5 131,-19.5 202,-19.5 202,-0.5 131,-0.5"/>
<text text-anchor="middle" x="166.5" y="-7.5" font-family="Helvetica,sans-Serif" font-size="10.00">OgreTrays.h</text>
</a>
</g>
</g>
<!-- Node21&#45;&gt;Node23 -->
<g id="edge31" class="edge"><title>Node21&#45;&gt;Node23</title>
<path fill="none" stroke="midnightblue" d="M247.198,-51.7261C227.385,-41.7271 200.793,-28.3065 183.649,-19.6545"/>
<polygon fill="midnightblue" stroke="midnightblue" points="245.804,-54.9431 256.309,-56.324 248.958,-48.6938 245.804,-54.9431"/>
</g>
<!-- Node24 -->
<g id="node24" class="node"><title>Node24</title>
<g id="a_node24"><a xlink:href="_ogre_page_manager_8h.html" target="_top" xlink:title="OgrePageManager.h">
<polygon fill="none" stroke="red" points="220.5,-0.5 220.5,-19.5 326.5,-19.5 326.5,-0.5 220.5,-0.5"/>
<text text-anchor="middle" x="273.5" y="-7.5" font-family="Helvetica,sans-Serif" font-size="10.00">OgrePageManager.h</text>
</a>
</g>
</g>
<!-- Node21&#45;&gt;Node24 -->
<g id="edge32" class="edge"><title>Node21&#45;&gt;Node24</title>
<path fill="none" stroke="midnightblue" d="M273.5,-45.8045C273.5,-36.9102 273.5,-26.7798 273.5,-19.7511"/>
<polygon fill="midnightblue" stroke="midnightblue" points="270,-46.083 273.5,-56.083 277,-46.083 270,-46.083"/>
</g>
<!-- Node25&#45;&gt;Node6 -->
<g id="edge36" class="edge"><title>Node25&#45;&gt;Node6</title>
<path fill="none" stroke="midnightblue" d="M373.563,-114.074C397.696,-104.02 432.399,-89.3824 462.5,-76 481.76,-67.4374 485.039,-61.0583 505.5,-56 681.131,-12.5817 1269.02,-10.8205 1393.3,-10.9432"/>
<polygon fill="midnightblue" stroke="midnightblue" points="372.121,-110.884 364.23,-117.954 374.808,-117.347 372.121,-110.884"/>
</g>
<!-- Node26 -->
<g id="node26" class="node"><title>Node26</title>
<g id="a_node26"><a xlink:href="_ogre_compositor_chain_8h.html" target="_top" xlink:title="OgreCompositorChain.h">
<polygon fill="none" stroke="black" points="331.5,-56.5 331.5,-75.5 453.5,-75.5 453.5,-56.5 331.5,-56.5"/>
<text text-anchor="middle" x="392.5" y="-63.5" font-family="Helvetica,sans-Serif" font-size="10.00">OgreCompositorChain.h</text>
</a>
</g>
</g>
<!-- Node25&#45;&gt;Node26 -->
<g id="edge34" class="edge"><title>Node25&#45;&gt;Node26</title>
<path fill="none" stroke="midnightblue" d="M356.949,-110.169C366.187,-98.952 378.075,-84.5161 385.493,-75.5091"/>
<polygon fill="midnightblue" stroke="midnightblue" points="354.176,-108.031 350.521,-117.975 359.579,-112.481 354.176,-108.031"/>
</g>
<!-- Node27 -->
<g id="node27" class="node"><title>Node27</title>
<g id="a_node27"><a xlink:href="_ogre_overlay_8h.html" target="_top" xlink:title="OgreOverlay.h">
<polygon fill="none" stroke="black" points="135.5,-56.5 135.5,-75.5 215.5,-75.5 215.5,-56.5 135.5,-56.5"/>
<text text-anchor="middle" x="175.5" y="-63.5" font-family="Helvetica,sans-Serif" font-size="10.00">OgreOverlay.h</text>
</a>
</g>
</g>
<!-- Node25&#45;&gt;Node27 -->
<g id="edge37" class="edge"><title>Node25&#45;&gt;Node27</title>
<path fill="none" stroke="midnightblue" d="M309.851,-114.583C277.195,-103.017 228.448,-85.7524 199.526,-75.5091"/>
<polygon fill="midnightblue" stroke="midnightblue" points="308.835,-117.936 319.43,-117.975 311.172,-111.337 308.835,-117.936"/>
</g>
<!-- Node26&#45;&gt;Node6 -->
<g id="edge35" class="edge"><title>Node26&#45;&gt;Node6</title>
<path fill="none" stroke="midnightblue" d="M464.143,-56.2895C465.269,-56.1895 466.389,-56.0929 467.5,-56 836.097,-25.1854 1287.13,-13.8265 1393.34,-11.4829"/>
<polygon fill="midnightblue" stroke="midnightblue" points="463.48,-52.8368 453.858,-57.2721 464.146,-59.8051 463.48,-52.8368"/>
</g>
<!-- Node27&#45;&gt;Node23 -->
<g id="edge38" class="edge"><title>Node27&#45;&gt;Node23</title>
<path fill="none" stroke="midnightblue" d="M172.35,-46.1005C170.856,-37.1357 169.143,-26.8579 167.959,-19.7511"/>
<polygon fill="midnightblue" stroke="midnightblue" points="168.917,-46.7945 174.014,-56.083 175.822,-45.6436 168.917,-46.7945"/>
</g>
<!-- Node28&#45;&gt;Node23 -->
<g id="edge41" class="edge"><title>Node28&#45;&gt;Node23</title>
<path fill="none" stroke="midnightblue" d="M85.0478,-51.7261C105.046,-41.7271 131.887,-28.3065 149.191,-19.6545"/>
<polygon fill="midnightblue" stroke="midnightblue" points="83.2311,-48.7213 75.8521,-56.324 86.3616,-54.9823 83.2311,-48.7213"/>
</g>
<!-- Node29&#45;&gt;Node6 -->
<g id="edge43" class="edge"><title>Node29&#45;&gt;Node6</title>
<path fill="none" stroke="midnightblue" d="M2280.45,-225.002C2279.32,-196.541 2272.97,-142.887 2242.5,-112 2182.17,-50.8421 2141.99,-71.5498 2057.5,-56 1819.14,-12.1307 1523.71,-10.3113 1439.73,-10.7656"/>
<polygon fill="midnightblue" stroke="midnightblue" points="2276.95,-225.283 2280.67,-235.206 2283.95,-225.134 2276.95,-225.283"/>
</g>
<!-- Node30 -->
<g id="node30" class="node"><title>Node30</title>
<g id="a_node30"><a xlink:href="_ogre_volume_chunk_8h.html" target="_top" xlink:title="OgreVolumeChunk.h">
<polygon fill="none" stroke="black" points="2309,-179.5 2309,-198.5 2416,-198.5 2416,-179.5 2309,-179.5"/>
<text text-anchor="middle" x="2362.5" y="-186.5" font-family="Helvetica,sans-Serif" font-size="10.00">OgreVolumeChunk.h</text>
</a>
</g>
</g>
<!-- Node29&#45;&gt;Node30 -->
<g id="edge44" class="edge"><title>Node29&#45;&gt;Node30</title>
<path fill="none" stroke="midnightblue" d="M2302.33,-229.622C2317.31,-219.757 2336.7,-206.992 2349.36,-198.655"/>
<polygon fill="midnightblue" stroke="midnightblue" points="2300.1,-226.901 2293.67,-235.324 2303.95,-232.747 2300.1,-226.901"/>
</g>
<!-- Node31&#45;&gt;Node6 -->
<g id="edge46" class="edge"><title>Node31&#45;&gt;Node6</title>
<path fill="none" stroke="midnightblue" d="M1817.54,-230.932C1803.17,-223.381 1786.69,-212.653 1775.5,-199 1732.43,-146.459 1774.41,-98.6176 1721.5,-56 1678.05,-20.9959 1503.06,-13.1602 1439.62,-11.4575"/>
<polygon fill="midnightblue" stroke="midnightblue" points="1816.09,-234.119 1826.6,-235.434 1819.2,-227.85 1816.09,-234.119"/>
</g>
<!-- Node32 -->
<g id="node32" class="node"><title>Node32</title>
<g id="a_node32"><a xlink:href="_ogre_instance_batch_h_w_8h.html" target="_top" xlink:title="OgreInstanceBatchHW.h">
<polygon fill="none" stroke="black" points="1784.5,-179.5 1784.5,-198.5 1910.5,-198.5 1910.5,-179.5 1784.5,-179.5"/>
<text text-anchor="middle" x="1847.5" y="-186.5" font-family="Helvetica,sans-Serif" font-size="10.00">OgreInstanceBatchHW.h</text>
</a>
</g>
</g>
<!-- Node31&#45;&gt;Node32 -->
<g id="edge47" class="edge"><title>Node31&#45;&gt;Node32</title>
<path fill="none" stroke="midnightblue" d="M1847.5,-224.805C1847.5,-215.91 1847.5,-205.78 1847.5,-198.751"/>
<polygon fill="midnightblue" stroke="midnightblue" points="1844,-225.083 1847.5,-235.083 1851,-225.083 1844,-225.083"/>
</g>
<!-- Node33 -->
<g id="node33" class="node"><title>Node33</title>
<g id="a_node33"><a xlink:href="_ogre_instance_batch_v_t_f_8h.html" target="_top" xlink:title="OgreInstanceBatchVTF.h">
<polygon fill="none" stroke="black" points="2086.5,-179.5 2086.5,-198.5 2214.5,-198.5 2214.5,-179.5 2086.5,-179.5"/>
<text text-anchor="middle" x="2150.5" y="-186.5" font-family="Helvetica,sans-Serif" font-size="10.00">OgreInstanceBatchVTF.h</text>
</a>
</g>
</g>
<!-- Node31&#45;&gt;Node33 -->
<g id="edge48" class="edge"><title>Node31&#45;&gt;Node33</title>
<path fill="none" stroke="midnightblue" d="M1905.5,-233.664C1962.76,-223.459 2049.28,-208.039 2102.71,-198.516"/>
<polygon fill="midnightblue" stroke="midnightblue" points="1904.74,-230.243 1895.51,-235.444 1905.97,-237.135 1904.74,-230.243"/>
</g>
<!-- Node35 -->
<g id="node35" class="node"><title>Node35</title>
<g id="a_node35"><a xlink:href="_ogre_instance_batch_shader_8h.html" target="_top" xlink:title="OgreInstanceBatchShader.h">
<polygon fill="none" stroke="black" points="1928.5,-179.5 1928.5,-198.5 2068.5,-198.5 2068.5,-179.5 1928.5,-179.5"/>
<text text-anchor="middle" x="1998.5" y="-186.5" font-family="Helvetica,sans-Serif" font-size="10.00">OgreInstanceBatchShader.h</text>
</a>
</g>
</g>
<!-- Node31&#45;&gt;Node35 -->
<g id="edge50" class="edge"><title>Node31&#45;&gt;Node35</title>
<path fill="none" stroke="midnightblue" d="M1880.95,-232.039C1909.36,-221.879 1949.44,-207.546 1974.69,-198.516"/>
<polygon fill="midnightblue" stroke="midnightblue" points="1879.66,-228.781 1871.43,-235.444 1882.02,-235.372 1879.66,-228.781"/>
</g>
<!-- Node34 -->
<g id="node34" class="node"><title>Node34</title>
<g id="a_node34"><a xlink:href="_ogre_instance_batch_h_w___v_t_f_8h.html" target="_top" xlink:title="OgreInstanceBatchHW\l_VTF.h">
<polygon fill="none" stroke="black" points="2091.5,-112.5 2091.5,-142.5 2209.5,-142.5 2209.5,-112.5 2091.5,-112.5"/>
<text text-anchor="start" x="2099.5" y="-130.5" font-family="Helvetica,sans-Serif" font-size="10.00">OgreInstanceBatchHW</text>
<text text-anchor="middle" x="2150.5" y="-119.5" font-family="Helvetica,sans-Serif" font-size="10.00">_VTF.h</text>
</a>
</g>
</g>
<!-- Node33&#45;&gt;Node34 -->
<g id="edge49" class="edge"><title>Node33&#45;&gt;Node34</title>
<path fill="none" stroke="midnightblue" d="M2150.5,-169.235C2150.5,-160.586 2150.5,-150.497 2150.5,-142.523"/>
<polygon fill="midnightblue" stroke="midnightblue" points="2147,-169.475 2150.5,-179.475 2154,-169.475 2147,-169.475"/>
</g>
<!-- Node36&#45;&gt;Node6 -->
<g id="edge52" class="edge"><title>Node36&#45;&gt;Node6</title>
<path fill="none" stroke="midnightblue" d="M1330.9,-112.682C1345.58,-103.561 1363.98,-90.6208 1377.5,-76 1393.76,-58.4177 1406.61,-32.9821 1412.68,-19.7463"/>
<polygon fill="midnightblue" stroke="midnightblue" points="1329.08,-109.692 1322.32,-117.848 1332.69,-115.689 1329.08,-109.692"/>
</g>
<!-- Node37&#45;&gt;Node6 -->
<g id="edge54" class="edge"><title>Node37&#45;&gt;Node6</title>
<path fill="none" stroke="midnightblue" d="M1587.91,-231.11C1573.08,-223.927 1557.11,-213.456 1547.5,-199 1525.89,-166.493 1554.28,-146.216 1535.5,-112 1511.25,-67.8178 1459.42,-34.5207 1432.89,-19.6147"/>
<polygon fill="midnightblue" stroke="midnightblue" points="1586.85,-234.472 1597.41,-235.364 1589.71,-228.083 1586.85,-234.472"/>
</g>
<!-- Node38 -->
<g id="node38" class="node"><title>Node38</title>
<g id="a_node38"><a xlink:href="_ogre_volume_mesh_builder_8h.html" target="_top" xlink:title="OgreVolumeMeshBuilder.h">
<polygon fill="none" stroke="black" points="1557,-179.5 1557,-198.5 1690,-198.5 1690,-179.5 1557,-179.5"/>
<text text-anchor="middle" x="1623.5" y="-186.5" font-family="Helvetica,sans-Serif" font-size="10.00">OgreVolumeMeshBuilder.h</text>
</a>
</g>
</g>
<!-- Node37&#45;&gt;Node38 -->
<g id="edge55" class="edge"><title>Node37&#45;&gt;Node38</title>
<path fill="none" stroke="midnightblue" d="M1623.5,-224.805C1623.5,-215.91 1623.5,-205.78 1623.5,-198.751"/>
<polygon fill="midnightblue" stroke="midnightblue" points="1620,-225.083 1623.5,-235.083 1627,-225.083 1620,-225.083"/>
</g>
<!-- Node39&#45;&gt;Node6 -->
<g id="edge57" class="edge"><title>Node39&#45;&gt;Node6</title>
<path fill="none" stroke="midnightblue" d="M1468.9,-108.096C1464.86,-93.4927 1458.26,-72.8116 1449.5,-56 1442.43,-42.4257 1431.51,-28.4658 1424.2,-19.7669"/>
<polygon fill="midnightblue" stroke="midnightblue" points="1465.55,-109.133 1471.48,-117.913 1472.32,-107.352 1465.55,-109.133"/>
</g>
<!-- Node40&#45;&gt;Node6 -->
<g id="edge59" class="edge"><title>Node40&#45;&gt;Node6</title>
<path fill="none" stroke="midnightblue" d="M1608.62,-54.2263C1557.39,-42.6992 1478.28,-24.8998 1439.51,-16.1772"/>
<polygon fill="midnightblue" stroke="midnightblue" points="1607.95,-57.663 1618.47,-56.4435 1609.48,-50.8337 1607.95,-57.663"/>
</g>
<!-- Node41&#45;&gt;Node6 -->
<g id="edge61" class="edge"><title>Node41&#45;&gt;Node6</title>
<path fill="none" stroke="midnightblue" d="M2476.32,-227.365C2464.3,-213.053 2445.42,-192.619 2425.5,-179 2311.27,-100.911 2274.09,-88.1048 2139.5,-56 2001.88,-23.1722 1547.67,-13.2881 1439.68,-11.3757"/>
<polygon fill="midnightblue" stroke="midnightblue" points="2473.83,-229.845 2482.87,-235.37 2479.25,-225.413 2473.83,-229.845"/>
</g>
<!-- Node41&#45;&gt;Node30 -->
<g id="edge65" class="edge"><title>Node41&#45;&gt;Node30</title>
<path fill="none" stroke="midnightblue" d="M2460.11,-231.503C2436.3,-221.38 2403.39,-207.388 2382.53,-198.516"/>
<polygon fill="midnightblue" stroke="midnightblue" points="2458.8,-234.751 2469.38,-235.444 2461.54,-228.31 2458.8,-234.751"/>
</g>
<!-- Node41&#45;&gt;Node42 -->
<g id="edge62" class="edge"><title>Node41&#45;&gt;Node42</title>
<path fill="none" stroke="midnightblue" d="M2548.85,-233.727C2607.81,-223.523 2697.16,-208.058 2752.29,-198.516"/>
<polygon fill="midnightblue" stroke="midnightblue" points="2548.19,-230.289 2538.94,-235.444 2549.39,-237.187 2548.19,-230.289"/>
</g>
<!-- Node43 -->
<g id="node43" class="node"><title>Node43</title>
<g id="a_node43"><a xlink:href="_ogre_rectangle2_d_8h.html" target="_top" xlink:title="OgreRectangle2D.h">
<polygon fill="none" stroke="black" points="2615,-179.5 2615,-198.5 2718,-198.5 2718,-179.5 2615,-179.5"/>
<text text-anchor="middle" x="2666.5" y="-186.5" font-family="Helvetica,sans-Serif" font-size="10.00">OgreRectangle2D.h</text>
</a>
</g>
</g>
<!-- Node41&#45;&gt;Node43 -->
<g id="edge63" class="edge"><title>Node41&#45;&gt;Node43</title>
<path fill="none" stroke="midnightblue" d="M2527.4,-232.436C2560.78,-222.255 2608.6,-207.664 2638.59,-198.516"/>
<polygon fill="midnightblue" stroke="midnightblue" points="2526.09,-229.178 2517.55,-235.444 2528.13,-235.873 2526.09,-229.178"/>
</g>
<!-- Node44 -->
<g id="node44" class="node"><title>Node44</title>
<g id="a_node44"><a xlink:href="_ogre_wire_bounding_box_8h.html" target="_top" xlink:title="OgreWireBoundingBox.h">
<polygon fill="none" stroke="black" points="2472.5,-179.5 2472.5,-198.5 2596.5,-198.5 2596.5,-179.5 2472.5,-179.5"/>
<text text-anchor="middle" x="2534.5" y="-186.5" font-family="Helvetica,sans-Serif" font-size="10.00">OgreWireBoundingBox.h</text>
</a>
</g>
</g>
<!-- Node41&#45;&gt;Node44 -->
<g id="edge64" class="edge"><title>Node41&#45;&gt;Node44</title>
<path fill="none" stroke="midnightblue" d="M2503.55,-227.144C2511.39,-217.736 2520.83,-206.405 2527.21,-198.751"/>
<polygon fill="midnightblue" stroke="midnightblue" points="2500.64,-225.16 2496.93,-235.083 2506.02,-229.641 2500.64,-225.16"/>
</g>
<!-- Node45&#45;&gt;Node6 -->
<g id="edge67" class="edge"><title>Node45&#45;&gt;Node6</title>
<path fill="none" stroke="midnightblue" d="M2140.81,-241.268C2171.16,-236.251 2204.4,-224.673 2223.5,-199 2235.85,-182.402 2252.66,-147.938 2218.5,-112 2163.15,-53.7653 1565.08,-18.8973 1439.53,-12.1901"/>
<polygon fill="midnightblue" stroke="midnightblue" points="2140.06,-237.841 2130.66,-242.729 2141.05,-244.77 2140.06,-237.841"/>
</g>
</g>
</svg>
