<?xml version="1.0" encoding="UTF-8" standalone="no"?>
<!DOCTYPE svg PUBLIC "-//W3C//DTD SVG 1.1//EN"
 "http://www.w3.org/Graphics/SVG/1.1/DTD/svg11.dtd">
<!-- Generated by graphviz version 2.38.0 (20140413.2041)
 -->
<!-- Title: OgreLodConfig.h Pages: 1 -->
<svg width="3125pt" height="476pt"
 viewBox="0.00 0.00 3125.23 476.00" xmlns="http://www.w3.org/2000/svg" xmlns:xlink="http://www.w3.org/1999/xlink">
<g id="graph0" class="graph" transform="scale(1 1) rotate(0) translate(4 472)">
<title>OgreLodConfig.h</title>
<!-- Node1 -->
<g id="node1" class="node"><title>Node1</title>
<polygon fill="#bfbfbf" stroke="black" points="1634,-448.5 1634,-467.5 1724,-467.5 1724,-448.5 1634,-448.5"/>
<text text-anchor="middle" x="1679" y="-455.5" font-family="Helvetica,sans-Serif" font-size="10.00">OgreLodConfig.h</text>
</g>
<!-- Node2 -->
<g id="node2" class="node"><title>Node2</title>
<g id="a_node2"><a xlink:href="_ogre_lod_prerequisites_8h.html" target="_top" xlink:title="OgreLodPrerequisites.h">
<polygon fill="none" stroke="black" points="2171.5,-392.5 2171.5,-411.5 2290.5,-411.5 2290.5,-392.5 2171.5,-392.5"/>
<text text-anchor="middle" x="2231" y="-399.5" font-family="Helvetica,sans-Serif" font-size="10.00">OgreLodPrerequisites.h</text>
</a>
</g>
</g>
<!-- Node1&#45;&gt;Node2 -->
<g id="edge1" class="edge"><title>Node1&#45;&gt;Node2</title>
<path fill="none" stroke="midnightblue" d="M1724.17,-452.581C1820.4,-443.167 2046.18,-421.08 2161.12,-409.836"/>
<polygon fill="midnightblue" stroke="midnightblue" points="2161.61,-413.305 2171.22,-408.848 2160.92,-406.339 2161.61,-413.305"/>
</g>
<!-- Node43 -->
<g id="node43" class="node"><title>Node43</title>
<g id="a_node43"><a xlink:href="_ogre_distance_lod_strategy_8h.html" target="_top" xlink:title="OgreDistanceLodStrategy.h">
<polygon fill="none" stroke="black" points="1059.5,-392.5 1059.5,-411.5 1196.5,-411.5 1196.5,-392.5 1059.5,-392.5"/>
<text text-anchor="middle" x="1128" y="-399.5" font-family="Helvetica,sans-Serif" font-size="10.00">OgreDistanceLodStrategy.h</text>
</a>
</g>
</g>
<!-- Node1&#45;&gt;Node43 -->
<g id="edge51" class="edge"><title>Node1&#45;&gt;Node43</title>
<path fill="none" stroke="midnightblue" d="M1633.91,-452.581C1540.26,-443.403 1323.67,-422.176 1206.56,-410.699"/>
<polygon fill="midnightblue" stroke="midnightblue" points="1206.87,-407.213 1196.58,-409.721 1206.19,-414.18 1206.87,-407.213"/>
</g>
<!-- Node3 -->
<g id="node3" class="node"><title>Node3</title>
<g id="a_node3"><a xlink:href="_ogre_prerequisites_8h.html" target="_top" xlink:title="OgrePrerequisites.h">
<polygon fill="none" stroke="black" points="805.5,-168.5 805.5,-187.5 908.5,-187.5 908.5,-168.5 805.5,-168.5"/>
<text text-anchor="middle" x="857" y="-175.5" font-family="Helvetica,sans-Serif" font-size="10.00">OgrePrerequisites.h</text>
</a>
</g>
</g>
<!-- Node2&#45;&gt;Node3 -->
<g id="edge2" class="edge"><title>Node2&#45;&gt;Node3</title>
<path fill="none" stroke="midnightblue" d="M2177.98,-392.433C1962.09,-357.552 1149.77,-226.303 918.677,-188.965"/>
<polygon fill="midnightblue" stroke="midnightblue" points="919.19,-185.503 908.76,-187.363 918.073,-192.413 919.19,-185.503"/>
</g>
<!-- Node4 -->
<g id="node4" class="node"><title>Node4</title>
<g id="a_node4"><a xlink:href="_ogre_platform_8h.html" target="_top" xlink:title="OgrePlatform.h">
<polygon fill="none" stroke="black" points="2397.5,-112.5 2397.5,-131.5 2480.5,-131.5 2480.5,-112.5 2397.5,-112.5"/>
<text text-anchor="middle" x="2439" y="-119.5" font-family="Helvetica,sans-Serif" font-size="10.00">OgrePlatform.h</text>
</a>
</g>
</g>
<!-- Node3&#45;&gt;Node4 -->
<g id="edge3" class="edge"><title>Node3&#45;&gt;Node4</title>
<path fill="none" stroke="midnightblue" d="M908.737,-175.234C1148.14,-167.062 2146.94,-132.969 2386.97,-124.776"/>
<polygon fill="midnightblue" stroke="midnightblue" points="2387.29,-128.267 2397.16,-124.428 2387.05,-121.271 2387.29,-128.267"/>
</g>
<!-- Node6 -->
<g id="node6" class="node"><title>Node6</title>
<polygon fill="none" stroke="#bfbfbf" points="805.5,-56.5 805.5,-75.5 846.5,-75.5 846.5,-56.5 805.5,-56.5"/>
<text text-anchor="middle" x="826" y="-63.5" font-family="Helvetica,sans-Serif" font-size="10.00">string</text>
</g>
<!-- Node3&#45;&gt;Node6 -->
<g id="edge5" class="edge"><title>Node3&#45;&gt;Node6</title>
<path fill="none" stroke="midnightblue" d="M854.567,-168.368C849.542,-150.537 837.92,-109.295 831.149,-85.2717"/>
<polygon fill="midnightblue" stroke="midnightblue" points="834.503,-84.2671 828.421,-75.5914 827.765,-86.1659 834.503,-84.2671"/>
</g>
<!-- Node7 -->
<g id="node7" class="node"><title>Node7</title>
<g id="a_node7"><a xlink:href="_ogre_std_headers_8h.html" target="_top" xlink:title="OgreStdHeaders.h">
<polygon fill="none" stroke="black" points="1674,-112.5 1674,-131.5 1772,-131.5 1772,-112.5 1674,-112.5"/>
<text text-anchor="middle" x="1723" y="-119.5" font-family="Helvetica,sans-Serif" font-size="10.00">OgreStdHeaders.h</text>
</a>
</g>
</g>
<!-- Node3&#45;&gt;Node7 -->
<g id="edge6" class="edge"><title>Node3&#45;&gt;Node7</title>
<path fill="none" stroke="midnightblue" d="M908.579,-173.784C1060.01,-164.341 1502.75,-136.734 1663.67,-126.7"/>
<polygon fill="midnightblue" stroke="midnightblue" points="1664.09,-130.18 1673.85,-126.065 1663.65,-123.194 1664.09,-130.18"/>
</g>
<!-- Node37 -->
<g id="node37" class="node"><title>Node37</title>
<g id="a_node37"><a xlink:href="_ogre_memory_allocator_config_8h.html" target="_top" xlink:title="This file configures Ogre&#39;s memory allocators. ">
<polygon fill="none" stroke="black" points="386,-112.5 386,-131.5 534,-131.5 534,-112.5 386,-112.5"/>
<text text-anchor="middle" x="460" y="-119.5" font-family="Helvetica,sans-Serif" font-size="10.00">OgreMemoryAllocatorConfig.h</text>
</a>
</g>
</g>
<!-- Node3&#45;&gt;Node37 -->
<g id="edge37" class="edge"><title>Node3&#45;&gt;Node37</title>
<path fill="none" stroke="midnightblue" d="M805.099,-169.94C735.603,-160.488 611.939,-143.667 533.056,-132.937"/>
<polygon fill="midnightblue" stroke="midnightblue" points="533.091,-129.41 522.711,-131.53 532.148,-136.346 533.091,-129.41"/>
</g>
<!-- Node5 -->
<g id="node5" class="node"><title>Node5</title>
<g id="a_node5"><a xlink:href="_ogre_config_8h.html" target="_top" xlink:title="OgreConfig.h">
<polygon fill="none" stroke="red" points="3014,-56.5 3014,-75.5 3088,-75.5 3088,-56.5 3014,-56.5"/>
<text text-anchor="middle" x="3051" y="-63.5" font-family="Helvetica,sans-Serif" font-size="10.00">OgreConfig.h</text>
</a>
</g>
</g>
<!-- Node4&#45;&gt;Node5 -->
<g id="edge4" class="edge"><title>Node4&#45;&gt;Node5</title>
<path fill="none" stroke="midnightblue" d="M2480.72,-119.311C2573.12,-115.222 2802.15,-103.159 3003.72,-76.0217"/>
<polygon fill="midnightblue" stroke="midnightblue" points="3004.47,-79.4522 3013.9,-74.6344 3003.52,-72.5162 3004.47,-79.4522"/>
</g>
<!-- Node7&#45;&gt;Node6 -->
<g id="edge16" class="edge"><title>Node7&#45;&gt;Node6</title>
<path fill="none" stroke="midnightblue" d="M1673.76,-119.994C1517.61,-116.566 1033.9,-104.053 856.483,-75.5356"/>
<polygon fill="midnightblue" stroke="midnightblue" points="856.943,-72.0639 846.501,-73.8566 855.782,-78.967 856.943,-72.0639"/>
</g>
<!-- Node8 -->
<g id="node8" class="node"><title>Node8</title>
<polygon fill="none" stroke="#bfbfbf" points="2507.5,-56.5 2507.5,-75.5 2556.5,-75.5 2556.5,-56.5 2507.5,-56.5"/>
<text text-anchor="middle" x="2532" y="-63.5" font-family="Helvetica,sans-Serif" font-size="10.00">cassert</text>
</g>
<!-- Node7&#45;&gt;Node8 -->
<g id="edge7" class="edge"><title>Node7&#45;&gt;Node8</title>
<path fill="none" stroke="midnightblue" d="M1772.42,-121.683C1894.35,-122.612 2219.25,-120.48 2496.98,-76.0108"/>
<polygon fill="midnightblue" stroke="midnightblue" points="2497.95,-79.4002 2507.26,-74.3427 2496.82,-72.4906 2497.95,-79.4002"/>
</g>
<!-- Node9 -->
<g id="node9" class="node"><title>Node9</title>
<polygon fill="none" stroke="#bfbfbf" points="2574.5,-56.5 2574.5,-75.5 2617.5,-75.5 2617.5,-56.5 2574.5,-56.5"/>
<text text-anchor="middle" x="2596" y="-63.5" font-family="Helvetica,sans-Serif" font-size="10.00">cstdio</text>
</g>
<!-- Node7&#45;&gt;Node9 -->
<g id="edge8" class="edge"><title>Node7&#45;&gt;Node9</title>
<path fill="none" stroke="midnightblue" d="M1772.24,-119.91C1925.44,-116.282 2393.11,-103.357 2564.32,-75.8589"/>
<polygon fill="midnightblue" stroke="midnightblue" points="2564.91,-79.3084 2574.19,-74.1981 2563.75,-72.4053 2564.91,-79.3084"/>
</g>
<!-- Node10 -->
<g id="node10" class="node"><title>Node10</title>
<polygon fill="none" stroke="#bfbfbf" points="2635.5,-56.5 2635.5,-75.5 2680.5,-75.5 2680.5,-56.5 2635.5,-56.5"/>
<text text-anchor="middle" x="2658" y="-63.5" font-family="Helvetica,sans-Serif" font-size="10.00">cstdlib</text>
</g>
<!-- Node7&#45;&gt;Node10 -->
<g id="edge9" class="edge"><title>Node7&#45;&gt;Node10</title>
<path fill="none" stroke="midnightblue" d="M1772.03,-120.063C1932.37,-116.766 2440.95,-104.423 2625.35,-75.8424"/>
<polygon fill="midnightblue" stroke="midnightblue" points="2626.14,-79.2593 2635.45,-74.2039 2625.02,-72.3495 2626.14,-79.2593"/>
</g>
<!-- Node11 -->
<g id="node11" class="node"><title>Node11</title>
<polygon fill="none" stroke="#bfbfbf" points="2698.5,-56.5 2698.5,-75.5 2739.5,-75.5 2739.5,-56.5 2698.5,-56.5"/>
<text text-anchor="middle" x="2719" y="-63.5" font-family="Helvetica,sans-Serif" font-size="10.00">ctime</text>
</g>
<!-- Node7&#45;&gt;Node11 -->
<g id="edge10" class="edge"><title>Node7&#45;&gt;Node11</title>
<path fill="none" stroke="midnightblue" d="M1772.16,-120.362C1940.17,-117.93 2491.52,-107.799 2688.31,-75.8221"/>
<polygon fill="midnightblue" stroke="midnightblue" points="2688.97,-79.2591 2698.25,-74.1343 2687.8,-72.3579 2688.97,-79.2591"/>
</g>
<!-- Node12 -->
<g id="node12" class="node"><title>Node12</title>
<polygon fill="none" stroke="#bfbfbf" points="2758,-56.5 2758,-75.5 2804,-75.5 2804,-56.5 2758,-56.5"/>
<text text-anchor="middle" x="2781" y="-63.5" font-family="Helvetica,sans-Serif" font-size="10.00">cstring</text>
</g>
<!-- Node7&#45;&gt;Node12 -->
<g id="edge11" class="edge"><title>Node7&#45;&gt;Node12</title>
<path fill="none" stroke="midnightblue" d="M1772.03,-120.345C1946.56,-117.784 2537.85,-107.088 2747.72,-75.7719"/>
<polygon fill="midnightblue" stroke="midnightblue" points="2748.38,-79.2118 2757.72,-74.2166 2747.3,-72.2949 2748.38,-79.2118"/>
</g>
<!-- Node13 -->
<g id="node13" class="node"><title>Node13</title>
<polygon fill="none" stroke="#bfbfbf" points="2822.5,-56.5 2822.5,-75.5 2871.5,-75.5 2871.5,-56.5 2822.5,-56.5"/>
<text text-anchor="middle" x="2847" y="-63.5" font-family="Helvetica,sans-Serif" font-size="10.00">cstdarg</text>
</g>
<!-- Node7&#45;&gt;Node13 -->
<g id="edge12" class="edge"><title>Node7&#45;&gt;Node13</title>
<path fill="none" stroke="midnightblue" d="M1772.19,-120.39C1953.98,-117.917 2588.45,-107.306 2812.22,-75.6904"/>
<polygon fill="midnightblue" stroke="midnightblue" points="2812.86,-79.1342 2822.25,-74.2178 2811.85,-72.2086 2812.86,-79.1342"/>
</g>
<!-- Node14 -->
<g id="node14" class="node"><title>Node14</title>
<polygon fill="none" stroke="#bfbfbf" points="2890,-56.5 2890,-75.5 2934,-75.5 2934,-56.5 2890,-56.5"/>
<text text-anchor="middle" x="2912" y="-63.5" font-family="Helvetica,sans-Serif" font-size="10.00">cmath</text>
</g>
<!-- Node7&#45;&gt;Node14 -->
<g id="edge13" class="edge"><title>Node7&#45;&gt;Node14</title>
<path fill="none" stroke="midnightblue" d="M1772.3,-120.681C1961.63,-119.214 2642.87,-111.631 2879.86,-75.7138"/>
<polygon fill="midnightblue" stroke="midnightblue" points="2880.46,-79.1624 2889.8,-74.1486 2879.37,-72.2477 2880.46,-79.1624"/>
</g>
<!-- Node15 -->
<g id="node15" class="node"><title>Node15</title>
<polygon fill="none" stroke="#bfbfbf" points="2952,-56.5 2952,-75.5 2996,-75.5 2996,-56.5 2952,-56.5"/>
<text text-anchor="middle" x="2974" y="-63.5" font-family="Helvetica,sans-Serif" font-size="10.00">vector</text>
</g>
<!-- Node7&#45;&gt;Node15 -->
<g id="edge14" class="edge"><title>Node7&#45;&gt;Node15</title>
<path fill="none" stroke="midnightblue" d="M1772.21,-120.795C1967.85,-119.736 2691.61,-113.422 2941.68,-75.7391"/>
<polygon fill="midnightblue" stroke="midnightblue" points="2942.46,-79.159 2951.8,-74.154 2941.38,-72.2432 2942.46,-79.159"/>
</g>
<!-- Node16 -->
<g id="node16" class="node"><title>Node16</title>
<polygon fill="none" stroke="#bfbfbf" points="864.5,-56.5 864.5,-75.5 899.5,-75.5 899.5,-56.5 864.5,-56.5"/>
<text text-anchor="middle" x="882" y="-63.5" font-family="Helvetica,sans-Serif" font-size="10.00">map</text>
</g>
<!-- Node7&#45;&gt;Node16 -->
<g id="edge15" class="edge"><title>Node7&#45;&gt;Node16</title>
<path fill="none" stroke="midnightblue" d="M1673.81,-119.996C1524.29,-116.681 1075.8,-104.716 909.602,-75.4546"/>
<polygon fill="midnightblue" stroke="midnightblue" points="910.009,-71.9706 899.539,-73.5939 908.736,-78.8539 910.009,-71.9706"/>
</g>
<!-- Node17 -->
<g id="node17" class="node"><title>Node17</title>
<polygon fill="none" stroke="#bfbfbf" points="918,-56.5 918,-75.5 948,-75.5 948,-56.5 918,-56.5"/>
<text text-anchor="middle" x="933" y="-63.5" font-family="Helvetica,sans-Serif" font-size="10.00">set</text>
</g>
<!-- Node7&#45;&gt;Node17 -->
<g id="edge17" class="edge"><title>Node7&#45;&gt;Node17</title>
<path fill="none" stroke="midnightblue" d="M1673.92,-119.948C1527.56,-116.521 1095.75,-104.232 958,-76 957.898,-75.9792 957.797,-75.958 957.695,-75.9365"/>
<polygon fill="midnightblue" stroke="midnightblue" points="958.712,-72.5872 948.137,-73.2312 956.806,-79.3225 958.712,-72.5872"/>
</g>
<!-- Node18 -->
<g id="node18" class="node"><title>Node18</title>
<polygon fill="none" stroke="#bfbfbf" points="966.5,-56.5 966.5,-75.5 995.5,-75.5 995.5,-56.5 966.5,-56.5"/>
<text text-anchor="middle" x="981" y="-63.5" font-family="Helvetica,sans-Serif" font-size="10.00">list</text>
</g>
<!-- Node7&#45;&gt;Node18 -->
<g id="edge18" class="edge"><title>Node7&#45;&gt;Node18</title>
<path fill="none" stroke="midnightblue" d="M1673.96,-119.813C1537.05,-116.208 1151.8,-104 1005.62,-75.3198"/>
<polygon fill="midnightblue" stroke="midnightblue" points="1006.02,-71.8278 995.517,-73.2263 1004.6,-78.6823 1006.02,-71.8278"/>
</g>
<!-- Node19 -->
<g id="node19" class="node"><title>Node19</title>
<polygon fill="none" stroke="#bfbfbf" points="1013.5,-56.5 1013.5,-75.5 1056.5,-75.5 1056.5,-56.5 1013.5,-56.5"/>
<text text-anchor="middle" x="1035" y="-63.5" font-family="Helvetica,sans-Serif" font-size="10.00">deque</text>
</g>
<!-- Node7&#45;&gt;Node19 -->
<g id="edge19" class="edge"><title>Node7&#45;&gt;Node19</title>
<path fill="none" stroke="midnightblue" d="M1673.94,-121.21C1565.69,-120.909 1298.3,-115.961 1066.51,-75.6522"/>
<polygon fill="midnightblue" stroke="midnightblue" points="1067,-72.1847 1056.54,-73.8933 1065.78,-79.0782 1067,-72.1847"/>
</g>
<!-- Node20 -->
<g id="node20" class="node"><title>Node20</title>
<polygon fill="none" stroke="#bfbfbf" points="1074.5,-56.5 1074.5,-75.5 1117.5,-75.5 1117.5,-56.5 1074.5,-56.5"/>
<text text-anchor="middle" x="1096" y="-63.5" font-family="Helvetica,sans-Serif" font-size="10.00">queue</text>
</g>
<!-- Node7&#45;&gt;Node20 -->
<g id="edge20" class="edge"><title>Node7&#45;&gt;Node20</title>
<path fill="none" stroke="midnightblue" d="M1673.89,-120.719C1573.02,-119.405 1335.23,-112.515 1127.42,-75.6517"/>
<polygon fill="midnightblue" stroke="midnightblue" points="1128.01,-72.2017 1117.54,-73.8735 1126.77,-79.0908 1128.01,-72.2017"/>
</g>
<!-- Node21 -->
<g id="node21" class="node"><title>Node21</title>
<polygon fill="none" stroke="#bfbfbf" points="1135.5,-56.5 1135.5,-75.5 1176.5,-75.5 1176.5,-56.5 1135.5,-56.5"/>
<text text-anchor="middle" x="1156" y="-63.5" font-family="Helvetica,sans-Serif" font-size="10.00">bitset</text>
</g>
<!-- Node7&#45;&gt;Node21 -->
<g id="edge21" class="edge"><title>Node7&#45;&gt;Node21</title>
<path fill="none" stroke="midnightblue" d="M1673.67,-120.282C1580.2,-118.183 1370.92,-109.959 1186.4,-75.6358"/>
<polygon fill="midnightblue" stroke="midnightblue" points="1186.99,-72.1865 1176.52,-73.7682 1185.69,-79.0647 1186.99,-72.1865"/>
</g>
<!-- Node22 -->
<g id="node22" class="node"><title>Node22</title>
<polygon fill="none" stroke="#bfbfbf" points="1195,-56.5 1195,-75.5 1251,-75.5 1251,-56.5 1195,-56.5"/>
<text text-anchor="middle" x="1223" y="-63.5" font-family="Helvetica,sans-Serif" font-size="10.00">algorithm</text>
</g>
<!-- Node7&#45;&gt;Node22 -->
<g id="edge22" class="edge"><title>Node7&#45;&gt;Node22</title>
<path fill="none" stroke="midnightblue" d="M1673.82,-118.404C1589.08,-113.442 1410.25,-100.826 1261,-76 1260.9,-75.9833 1260.8,-75.9665 1260.7,-75.9496"/>
<polygon fill="midnightblue" stroke="midnightblue" points="1261.62,-72.562 1251.14,-74.1119 1260.3,-79.4362 1261.62,-72.562"/>
</g>
<!-- Node23 -->
<g id="node23" class="node"><title>Node23</title>
<polygon fill="none" stroke="#bfbfbf" points="1269.5,-56.5 1269.5,-75.5 1328.5,-75.5 1328.5,-56.5 1269.5,-56.5"/>
<text text-anchor="middle" x="1299" y="-63.5" font-family="Helvetica,sans-Serif" font-size="10.00">functional</text>
</g>
<!-- Node7&#45;&gt;Node23 -->
<g id="edge23" class="edge"><title>Node7&#45;&gt;Node23</title>
<path fill="none" stroke="midnightblue" d="M1673.83,-117.005C1602.25,-110.804 1465.04,-97.4675 1338.6,-75.9206"/>
<polygon fill="midnightblue" stroke="midnightblue" points="1339.19,-72.4708 1328.74,-74.2198 1338,-79.3689 1339.19,-72.4708"/>
</g>
<!-- Node24 -->
<g id="node24" class="node"><title>Node24</title>
<polygon fill="none" stroke="#bfbfbf" points="1347,-56.5 1347,-75.5 1387,-75.5 1387,-56.5 1347,-56.5"/>
<text text-anchor="middle" x="1367" y="-63.5" font-family="Helvetica,sans-Serif" font-size="10.00">limits</text>
</g>
<!-- Node7&#45;&gt;Node24 -->
<g id="edge24" class="edge"><title>Node7&#45;&gt;Node24</title>
<path fill="none" stroke="midnightblue" d="M1673.8,-116.77C1611.43,-110.848 1500.54,-98.4534 1397.15,-75.934"/>
<polygon fill="midnightblue" stroke="midnightblue" points="1397.69,-72.4688 1387.17,-73.7229 1396.17,-79.3031 1397.69,-72.4688"/>
</g>
<!-- Node25 -->
<g id="node25" class="node"><title>Node25</title>
<polygon fill="none" stroke="#bfbfbf" points="1405,-56.5 1405,-75.5 1455,-75.5 1455,-56.5 1405,-56.5"/>
<text text-anchor="middle" x="1430" y="-63.5" font-family="Helvetica,sans-Serif" font-size="10.00">fstream</text>
</g>
<!-- Node7&#45;&gt;Node25 -->
<g id="edge25" class="edge"><title>Node7&#45;&gt;Node25</title>
<path fill="none" stroke="midnightblue" d="M1673.8,-113.603C1621.72,-105.498 1537.23,-91.56 1465,-76 1464.9,-75.9785 1464.8,-75.957 1464.7,-75.9353"/>
<polygon fill="midnightblue" stroke="midnightblue" points="1465.71,-72.5767 1455.18,-73.7279 1464.13,-79.3959 1465.71,-72.5767"/>
</g>
<!-- Node26 -->
<g id="node26" class="node"><title>Node26</title>
<polygon fill="none" stroke="#bfbfbf" points="1473.5,-56.5 1473.5,-75.5 1518.5,-75.5 1518.5,-56.5 1473.5,-56.5"/>
<text text-anchor="middle" x="1496" y="-63.5" font-family="Helvetica,sans-Serif" font-size="10.00">iosfwd</text>
</g>
<!-- Node7&#45;&gt;Node26 -->
<g id="edge26" class="edge"><title>Node7&#45;&gt;Node26</title>
<path fill="none" stroke="midnightblue" d="M1683.65,-112.493C1646.25,-104.281 1588.21,-91.207 1528.65,-76.0712"/>
<polygon fill="midnightblue" stroke="midnightblue" points="1529.25,-72.6112 1518.69,-73.5247 1527.51,-79.393 1529.25,-72.6112"/>
</g>
<!-- Node27 -->
<g id="node27" class="node"><title>Node27</title>
<polygon fill="none" stroke="#bfbfbf" points="1537,-56.5 1537,-75.5 1589,-75.5 1589,-56.5 1537,-56.5"/>
<text text-anchor="middle" x="1563" y="-63.5" font-family="Helvetica,sans-Serif" font-size="10.00">sstream</text>
</g>
<!-- Node7&#45;&gt;Node27 -->
<g id="edge27" class="edge"><title>Node7&#45;&gt;Node27</title>
<path fill="none" stroke="midnightblue" d="M1697.65,-112.444C1670.73,-103.359 1628,-88.9388 1597.91,-78.7831"/>
<polygon fill="midnightblue" stroke="midnightblue" points="1598.83,-75.3981 1588.23,-75.5164 1596.59,-82.0305 1598.83,-75.3981"/>
</g>
<!-- Node28 -->
<g id="node28" class="node"><title>Node28</title>
<polygon fill="none" stroke="#bfbfbf" points="1607,-56.5 1607,-75.5 1675,-75.5 1675,-56.5 1607,-56.5"/>
<text text-anchor="middle" x="1641" y="-63.5" font-family="Helvetica,sans-Serif" font-size="10.00">sys/types.h</text>
</g>
<!-- Node7&#45;&gt;Node28 -->
<g id="edge28" class="edge"><title>Node7&#45;&gt;Node28</title>
<path fill="none" stroke="midnightblue" d="M1709.83,-112.324C1697.15,-103.979 1677.77,-91.2122 1662.79,-81.3524"/>
<polygon fill="midnightblue" stroke="midnightblue" points="1664.42,-78.2313 1654.14,-75.6545 1660.57,-84.0776 1664.42,-78.2313"/>
</g>
<!-- Node29 -->
<g id="node29" class="node"><title>Node29</title>
<polygon fill="none" stroke="#bfbfbf" points="1693,-56.5 1693,-75.5 1753,-75.5 1753,-56.5 1693,-56.5"/>
<text text-anchor="middle" x="1723" y="-63.5" font-family="Helvetica,sans-Serif" font-size="10.00">sys/stat.h</text>
</g>
<!-- Node7&#45;&gt;Node29 -->
<g id="edge29" class="edge"><title>Node7&#45;&gt;Node29</title>
<path fill="none" stroke="midnightblue" d="M1723,-112.083C1723,-105.006 1723,-94.8611 1723,-85.9865"/>
<polygon fill="midnightblue" stroke="midnightblue" points="1726.5,-85.751 1723,-75.7511 1719.5,-85.7511 1726.5,-85.751"/>
</g>
<!-- Node30 -->
<g id="node30" class="node"><title>Node30</title>
<polygon fill="none" stroke="#bfbfbf" points="1771.5,-56.5 1771.5,-75.5 1822.5,-75.5 1822.5,-56.5 1771.5,-56.5"/>
<text text-anchor="middle" x="1797" y="-63.5" font-family="Helvetica,sans-Serif" font-size="10.00">unistd.h</text>
</g>
<!-- Node7&#45;&gt;Node30 -->
<g id="edge30" class="edge"><title>Node7&#45;&gt;Node30</title>
<path fill="none" stroke="midnightblue" d="M1734.89,-112.324C1746.15,-104.107 1763.29,-91.6017 1776.71,-81.8069"/>
<polygon fill="midnightblue" stroke="midnightblue" points="1778.88,-84.5559 1784.89,-75.8339 1774.75,-78.9014 1778.88,-84.5559"/>
</g>
<!-- Node31 -->
<g id="node31" class="node"><title>Node31</title>
<polygon fill="none" stroke="#bfbfbf" points="1841,-56.5 1841,-75.5 1887,-75.5 1887,-56.5 1841,-56.5"/>
<text text-anchor="middle" x="1864" y="-63.5" font-family="Helvetica,sans-Serif" font-size="10.00">dlfcn.h</text>
</g>
<!-- Node7&#45;&gt;Node31 -->
<g id="edge31" class="edge"><title>Node7&#45;&gt;Node31</title>
<path fill="none" stroke="midnightblue" d="M1745.34,-112.444C1768.75,-103.478 1805.74,-89.314 1832.19,-79.1827"/>
<polygon fill="midnightblue" stroke="midnightblue" points="1833.68,-82.3615 1841.76,-75.5164 1831.17,-75.8245 1833.68,-82.3615"/>
</g>
<!-- Node32 -->
<g id="node32" class="node"><title>Node32</title>
<polygon fill="none" stroke="#bfbfbf" points="1905,-56.5 1905,-75.5 1983,-75.5 1983,-56.5 1905,-56.5"/>
<text text-anchor="middle" x="1944" y="-63.5" font-family="Helvetica,sans-Serif" font-size="10.00">ext/hash_map</text>
</g>
<!-- Node7&#45;&gt;Node32 -->
<g id="edge32" class="edge"><title>Node7&#45;&gt;Node32</title>
<path fill="none" stroke="midnightblue" d="M1758.02,-112.444C1796.25,-103.102 1857.57,-88.1194 1899.26,-77.9326"/>
<polygon fill="midnightblue" stroke="midnightblue" points="1900.26,-81.2901 1909.15,-75.5164 1898.6,-74.4901 1900.26,-81.2901"/>
</g>
<!-- Node33 -->
<g id="node33" class="node"><title>Node33</title>
<polygon fill="none" stroke="#bfbfbf" points="2001.5,-56.5 2001.5,-75.5 2074.5,-75.5 2074.5,-56.5 2001.5,-56.5"/>
<text text-anchor="middle" x="2038" y="-63.5" font-family="Helvetica,sans-Serif" font-size="10.00">ext/hash_set</text>
</g>
<!-- Node7&#45;&gt;Node33 -->
<g id="edge33" class="edge"><title>Node7&#45;&gt;Node33</title>
<path fill="none" stroke="midnightblue" d="M1772.16,-113.192C1824.03,-104.86 1908.44,-91.0379 1991.27,-76.0911"/>
<polygon fill="midnightblue" stroke="midnightblue" points="1992.14,-79.4897 2001.36,-74.263 1990.9,-72.6018 1992.14,-79.4897"/>
</g>
<!-- Node34 -->
<g id="node34" class="node"><title>Node34</title>
<polygon fill="none" stroke="#bfbfbf" points="2092.5,-56.5 2092.5,-75.5 2163.5,-75.5 2163.5,-56.5 2092.5,-56.5"/>
<text text-anchor="middle" x="2128" y="-63.5" font-family="Helvetica,sans-Serif" font-size="10.00">sys/param.h</text>
</g>
<!-- Node7&#45;&gt;Node34 -->
<g id="edge34" class="edge"><title>Node7&#45;&gt;Node34</title>
<path fill="none" stroke="midnightblue" d="M1772.22,-116.091C1839.9,-109.07 1965.68,-95.0544 2081.89,-76.2522"/>
<polygon fill="midnightblue" stroke="midnightblue" points="2082.72,-79.6631 2092.02,-74.596 2081.59,-72.7547 2082.72,-79.6631"/>
</g>
<!-- Node35 -->
<g id="node35" class="node"><title>Node35</title>
<polygon fill="none" stroke="#bfbfbf" points="2182,-56.5 2182,-75.5 2348,-75.5 2348,-56.5 2182,-56.5"/>
<text text-anchor="middle" x="2265" y="-63.5" font-family="Helvetica,sans-Serif" font-size="10.00">CoreFoundation/CoreFoundation.h</text>
</g>
<!-- Node7&#45;&gt;Node35 -->
<g id="edge35" class="edge"><title>Node7&#45;&gt;Node35</title>
<path fill="none" stroke="midnightblue" d="M1772.05,-116.113C1862.23,-107.128 2055.7,-87.8528 2171.64,-76.3018"/>
<polygon fill="midnightblue" stroke="midnightblue" points="2172.31,-79.7518 2181.92,-75.2776 2171.62,-72.7863 2172.31,-79.7518"/>
</g>
<!-- Node36 -->
<g id="node36" class="node"><title>Node36</title>
<polygon fill="none" stroke="#bfbfbf" points="2366,-56.5 2366,-75.5 2490,-75.5 2490,-56.5 2366,-56.5"/>
<text text-anchor="middle" x="2428" y="-63.5" font-family="Helvetica,sans-Serif" font-size="10.00">emscripten/emscripten.h</text>
</g>
<!-- Node7&#45;&gt;Node36 -->
<g id="edge36" class="edge"><title>Node7&#45;&gt;Node36</title>
<path fill="none" stroke="midnightblue" d="M1772.4,-118.425C1877.65,-112.737 2131.98,-97.9228 2355.73,-76.0759"/>
<polygon fill="midnightblue" stroke="midnightblue" points="2356.07,-79.5586 2365.68,-75.0969 2355.39,-72.5922 2356.07,-79.5586"/>
</g>
<!-- Node38 -->
<g id="node38" class="node"><title>Node38</title>
<g id="a_node38"><a xlink:href="_ogre_memory_allocated_object_8h.html" target="_top" xlink:title="OgreMemoryAllocatedObject.h">
<polygon fill="none" stroke="black" points="142,-56.5 142,-75.5 292,-75.5 292,-56.5 142,-56.5"/>
<text text-anchor="middle" x="217" y="-63.5" font-family="Helvetica,sans-Serif" font-size="10.00">OgreMemoryAllocatedObject.h</text>
</a>
</g>
</g>
<!-- Node37&#45;&gt;Node38 -->
<g id="edge38" class="edge"><title>Node37&#45;&gt;Node38</title>
<path fill="none" stroke="midnightblue" d="M421.496,-112.444C379.194,-103.043 311.181,-87.9291 265.327,-77.7393"/>
<polygon fill="midnightblue" stroke="midnightblue" points="265.845,-74.2692 255.324,-75.5164 264.327,-81.1025 265.845,-74.2692"/>
</g>
<!-- Node39 -->
<g id="node39" class="node"><title>Node39</title>
<g id="a_node39"><a xlink:href="_ogre_header_prefix_8h.html" target="_top" xlink:title="OgreHeaderPrefix.h">
<polygon fill="none" stroke="black" points="630.5,-0.5 630.5,-19.5 733.5,-19.5 733.5,-0.5 630.5,-0.5"/>
<text text-anchor="middle" x="682" y="-7.5" font-family="Helvetica,sans-Serif" font-size="10.00">OgreHeaderPrefix.h</text>
</a>
</g>
</g>
<!-- Node37&#45;&gt;Node39 -->
<g id="edge42" class="edge"><title>Node37&#45;&gt;Node39</title>
<path fill="none" stroke="midnightblue" d="M534.219,-115.993C569.928,-110.467 611.673,-99.1179 643,-76 658.849,-64.3043 669.496,-44.0661 675.607,-29.272"/>
<polygon fill="midnightblue" stroke="midnightblue" points="678.979,-30.2529 679.265,-19.6619 672.437,-27.7631 678.979,-30.2529"/>
</g>
<!-- Node40 -->
<g id="node40" class="node"><title>Node40</title>
<g id="a_node40"><a xlink:href="_ogre_header_suffix_8h.html" target="_top" xlink:title="OgreHeaderSuffix.h">
<polygon fill="none" stroke="black" points="113.5,-0.5 113.5,-19.5 216.5,-19.5 216.5,-0.5 113.5,-0.5"/>
<text text-anchor="middle" x="165" y="-7.5" font-family="Helvetica,sans-Serif" font-size="10.00">OgreHeaderSuffix.h</text>
</a>
</g>
</g>
<!-- Node37&#45;&gt;Node40 -->
<g id="edge50" class="edge"><title>Node37&#45;&gt;Node40</title>
<path fill="none" stroke="midnightblue" d="M434.122,-112.457C409.357,-104.029 371.126,-90.3567 339,-76 321.576,-68.2132 318.564,-63.4675 301,-56 269.507,-42.6101 232.577,-30.6135 205.154,-22.3808"/>
<polygon fill="midnightblue" stroke="midnightblue" points="206.091,-19.008 195.508,-19.5224 204.102,-25.7195 206.091,-19.008"/>
</g>
<!-- Node41 -->
<g id="node41" class="node"><title>Node41</title>
<g id="a_node41"><a xlink:href="_ogre_memory_s_t_l_allocator_8h.html" target="_top" xlink:title="OgreMemorySTLAllocator.h">
<polygon fill="none" stroke="black" points="497.5,-56.5 497.5,-75.5 634.5,-75.5 634.5,-56.5 497.5,-56.5"/>
<text text-anchor="middle" x="566" y="-63.5" font-family="Helvetica,sans-Serif" font-size="10.00">OgreMemorySTLAllocator.h</text>
</a>
</g>
</g>
<!-- Node37&#45;&gt;Node41 -->
<g id="edge43" class="edge"><title>Node37&#45;&gt;Node41</title>
<path fill="none" stroke="midnightblue" d="M477.031,-112.324C494.03,-103.664 520.376,-90.2424 539.993,-80.249"/>
<polygon fill="midnightblue" stroke="midnightblue" points="541.69,-83.3125 549.012,-75.6545 538.512,-77.0752 541.69,-83.3125"/>
</g>
<!-- Node42 -->
<g id="node42" class="node"><title>Node42</title>
<g id="a_node42"><a xlink:href="_ogre_memory_ned_pooling_8h.html" target="_top" xlink:title="OgreMemoryNedPooling.h">
<polygon fill="none" stroke="black" points="348.5,-56.5 348.5,-75.5 479.5,-75.5 479.5,-56.5 348.5,-56.5"/>
<text text-anchor="middle" x="414" y="-63.5" font-family="Helvetica,sans-Serif" font-size="10.00">OgreMemoryNedPooling.h</text>
</a>
</g>
</g>
<!-- Node37&#45;&gt;Node42 -->
<g id="edge47" class="edge"><title>Node37&#45;&gt;Node42</title>
<path fill="none" stroke="midnightblue" d="M452.404,-112.083C445.773,-104.298 435.979,-92.8015 427.942,-83.3665"/>
<polygon fill="midnightblue" stroke="midnightblue" points="430.604,-81.0939 421.455,-75.7511 425.275,-85.6332 430.604,-81.0939"/>
</g>
<!-- Node38&#45;&gt;Node3 -->
<g id="edge39" class="edge"><title>Node38&#45;&gt;Node3</title>
<path fill="none" stroke="midnightblue" d="M233.735,-75.7199C262.267,-90.1421 322.535,-118.69 377,-132 524.137,-167.957 703.111,-175.565 795.385,-176.936"/>
<polygon fill="midnightblue" stroke="midnightblue" points="795.347,-180.435 805.391,-177.065 795.437,-173.436 795.347,-180.435"/>
</g>
<!-- Node38&#45;&gt;Node39 -->
<g id="edge40" class="edge"><title>Node38&#45;&gt;Node39</title>
<path fill="none" stroke="midnightblue" d="M290.424,-56.4733C381.418,-45.9063 534.864,-28.0868 620.145,-18.1831"/>
<polygon fill="midnightblue" stroke="midnightblue" points="620.669,-21.6459 630.199,-17.0156 619.862,-14.6926 620.669,-21.6459"/>
</g>
<!-- Node38&#45;&gt;Node40 -->
<g id="edge41" class="edge"><title>Node38&#45;&gt;Node40</title>
<path fill="none" stroke="midnightblue" d="M208.413,-56.083C200.841,-48.2195 189.622,-36.5688 180.486,-27.0813"/>
<polygon fill="midnightblue" stroke="midnightblue" points="182.885,-24.5266 173.427,-19.7511 177.842,-29.3821 182.885,-24.5266"/>
</g>
<!-- Node41&#45;&gt;Node3 -->
<g id="edge44" class="edge"><title>Node41&#45;&gt;Node3</title>
<path fill="none" stroke="midnightblue" d="M588.728,-75.5914C640.05,-94.9914 765.057,-142.245 824.529,-164.726"/>
<polygon fill="midnightblue" stroke="midnightblue" points="823.574,-168.106 834.166,-168.368 826.049,-161.559 823.574,-168.106"/>
</g>
<!-- Node41&#45;&gt;Node39 -->
<g id="edge45" class="edge"><title>Node41&#45;&gt;Node39</title>
<path fill="none" stroke="midnightblue" d="M584.381,-56.4435C603.216,-47.6751 632.731,-33.9355 654.379,-23.8579"/>
<polygon fill="midnightblue" stroke="midnightblue" points="656.117,-26.9098 663.705,-19.5164 653.162,-20.5637 656.117,-26.9098"/>
</g>
<!-- Node41&#45;&gt;Node40 -->
<g id="edge46" class="edge"><title>Node41&#45;&gt;Node40</title>
<path fill="none" stroke="midnightblue" d="M502.46,-56.4435C426.95,-46.2751 301.796,-29.4214 226.979,-19.3462"/>
<polygon fill="midnightblue" stroke="midnightblue" points="227.144,-15.837 216.766,-17.971 226.209,-22.7743 227.144,-15.837"/>
</g>
<!-- Node42&#45;&gt;Node39 -->
<g id="edge48" class="edge"><title>Node42&#45;&gt;Node39</title>
<path fill="none" stroke="midnightblue" d="M456.465,-56.4435C503.413,-46.9839 579.076,-31.7384 629.654,-21.5472"/>
<polygon fill="midnightblue" stroke="midnightblue" points="630.622,-24.9228 639.733,-19.5164 629.239,-18.0607 630.622,-24.9228"/>
</g>
<!-- Node42&#45;&gt;Node40 -->
<g id="edge49" class="edge"><title>Node42&#45;&gt;Node40</title>
<path fill="none" stroke="midnightblue" d="M374.545,-56.4435C331.108,-47.0234 261.214,-31.8656 214.224,-21.6752"/>
<polygon fill="midnightblue" stroke="midnightblue" points="214.785,-18.2154 204.27,-19.5164 213.301,-25.0564 214.785,-18.2154"/>
</g>
<!-- Node43&#45;&gt;Node3 -->
<g id="edge52" class="edge"><title>Node43&#45;&gt;Node3</title>
<path fill="none" stroke="midnightblue" d="M1132.37,-392.307C1136.56,-383.437 1142.6,-369.145 1145,-356 1154.33,-304.895 1115.43,-228.781 1110,-224 1082.27,-199.582 984.508,-187.923 918.947,-182.735"/>
<polygon fill="midnightblue" stroke="midnightblue" points="918.954,-179.226 908.717,-181.957 918.423,-186.205 918.954,-179.226"/>
</g>
<!-- Node44 -->
<g id="node44" class="node"><title>Node44</title>
<g id="a_node44"><a xlink:href="_ogre_lod_strategy_8h.html" target="_top" xlink:title="OgreLodStrategy.h">
<polygon fill="none" stroke="black" points="629,-336.5 629,-355.5 727,-355.5 727,-336.5 629,-336.5"/>
<text text-anchor="middle" x="678" y="-343.5" font-family="Helvetica,sans-Serif" font-size="10.00">OgreLodStrategy.h</text>
</a>
</g>
</g>
<!-- Node43&#45;&gt;Node44 -->
<g id="edge53" class="edge"><title>Node43&#45;&gt;Node44</title>
<path fill="none" stroke="midnightblue" d="M1059.16,-392.74C971.124,-382.175 820.138,-364.057 737.073,-354.089"/>
<polygon fill="midnightblue" stroke="midnightblue" points="737.389,-350.602 727.043,-352.885 736.555,-357.552 737.389,-350.602"/>
</g>
<!-- Node50 -->
<g id="node50" class="node"><title>Node50</title>
<g id="a_node50"><a xlink:href="_ogre_singleton_8h.html" target="_top" xlink:title="OgreSingleton.h">
<polygon fill="none" stroke="black" points="1050,-336.5 1050,-355.5 1136,-355.5 1136,-336.5 1050,-336.5"/>
<text text-anchor="middle" x="1093" y="-343.5" font-family="Helvetica,sans-Serif" font-size="10.00">OgreSingleton.h</text>
</a>
</g>
</g>
<!-- Node43&#45;&gt;Node50 -->
<g id="edge74" class="edge"><title>Node43&#45;&gt;Node50</title>
<path fill="none" stroke="midnightblue" d="M1122.22,-392.083C1117.33,-384.534 1110.17,-373.495 1104.17,-364.23"/>
<polygon fill="midnightblue" stroke="midnightblue" points="1107.05,-362.239 1098.67,-355.751 1101.17,-366.046 1107.05,-362.239"/>
</g>
<!-- Node44&#45;&gt;Node3 -->
<g id="edge54" class="edge"><title>Node44&#45;&gt;Node3</title>
<path fill="none" stroke="midnightblue" d="M684.091,-336.272C699.113,-315.167 739.86,-260.426 783,-224 797.513,-211.745 815.723,-200.627 830.446,-192.508"/>
<polygon fill="midnightblue" stroke="midnightblue" points="832.389,-195.438 839.544,-187.624 829.078,-189.27 832.389,-195.438"/>
</g>
<!-- Node44&#45;&gt;Node39 -->
<g id="edge72" class="edge"><title>Node44&#45;&gt;Node39</title>
<path fill="none" stroke="midnightblue" d="M634.853,-336.467C613.414,-330.012 588.957,-318.896 574,-300 552.855,-273.287 556.9,-257.321 564,-224 569.68,-197.342 574.486,-191.071 589,-168 617.546,-122.626 642.961,-123.914 667,-76 674.303,-61.4431 678.109,-43.2653 680.056,-29.8371"/>
<polygon fill="midnightblue" stroke="midnightblue" points="683.536,-30.2123 681.291,-19.8582 676.589,-29.3529 683.536,-30.2123"/>
</g>
<!-- Node44&#45;&gt;Node40 -->
<g id="edge73" class="edge"><title>Node44&#45;&gt;Node40</title>
<path fill="none" stroke="midnightblue" d="M628.967,-342.224C473.227,-332.761 0,-298.76 0,-235 0,-235 0,-235 0,-121 0,-65.4395 65.5712,-36.2152 114.042,-22.2025"/>
<polygon fill="midnightblue" stroke="midnightblue" points="115.077,-25.5478 123.789,-19.5193 113.219,-18.7989 115.077,-25.5478"/>
</g>
<!-- Node45 -->
<g id="node45" class="node"><title>Node45</title>
<g id="a_node45"><a xlink:href="_ogre_mesh_8h.html" target="_top" xlink:title="OgreMesh.h">
<polygon fill="none" stroke="red" points="761,-280.5 761,-299.5 831,-299.5 831,-280.5 761,-280.5"/>
<text text-anchor="middle" x="796" y="-287.5" font-family="Helvetica,sans-Serif" font-size="10.00">OgreMesh.h</text>
</a>
</g>
</g>
<!-- Node44&#45;&gt;Node45 -->
<g id="edge55" class="edge"><title>Node44&#45;&gt;Node45</title>
<path fill="none" stroke="midnightblue" d="M696.697,-336.444C715.944,-327.636 746.152,-313.812 768.2,-303.722"/>
<polygon fill="midnightblue" stroke="midnightblue" points="769.753,-306.86 777.39,-299.516 766.84,-300.495 769.753,-306.86"/>
</g>
<!-- Node49 -->
<g id="node49" class="node"><title>Node49</title>
<g id="a_node49"><a xlink:href="_ogre_material_8h.html" target="_top" xlink:title="OgreMaterial.h">
<polygon fill="none" stroke="red" points="583,-280.5 583,-299.5 663,-299.5 663,-280.5 583,-280.5"/>
<text text-anchor="middle" x="623" y="-287.5" font-family="Helvetica,sans-Serif" font-size="10.00">OgreMaterial.h</text>
</a>
</g>
</g>
<!-- Node44&#45;&gt;Node49 -->
<g id="edge67" class="edge"><title>Node44&#45;&gt;Node49</title>
<path fill="none" stroke="midnightblue" d="M668.918,-336.083C660.829,-328.141 648.805,-316.335 639.09,-306.797"/>
<polygon fill="midnightblue" stroke="midnightblue" points="641.501,-304.26 631.913,-299.751 636.597,-309.254 641.501,-304.26"/>
</g>
<!-- Node45&#45;&gt;Node3 -->
<g id="edge56" class="edge"><title>Node45&#45;&gt;Node3</title>
<path fill="none" stroke="midnightblue" d="M792.575,-280.411C787.963,-267.382 781.375,-242.212 791,-224 798.424,-209.953 812.421,-199.467 825.621,-192.167"/>
<polygon fill="midnightblue" stroke="midnightblue" points="827.223,-195.279 834.541,-187.618 824.043,-189.043 827.223,-195.279"/>
</g>
<!-- Node45&#45;&gt;Node39 -->
<g id="edge65" class="edge"><title>Node45&#45;&gt;Node39</title>
<path fill="none" stroke="midnightblue" d="M831.053,-289.238C1121.3,-290.986 3116,-298.646 3116,-179 3116,-179 3116,-179 3116,-121 3116,-90.9022 3120.91,-74.2751 3097,-56 3048.83,-19.1858 1115.68,-12.1597 743.599,-11.1475"/>
<polygon fill="midnightblue" stroke="midnightblue" points="743.569,-7.64749 733.56,-11.1206 743.55,-14.6475 743.569,-7.64749"/>
</g>
<!-- Node45&#45;&gt;Node40 -->
<g id="edge66" class="edge"><title>Node45&#45;&gt;Node40</title>
<path fill="none" stroke="midnightblue" d="M760.805,-283.198C645.047,-263.635 277.878,-197.643 179,-132 150.195,-112.877 137.941,-108.062 125,-76 117.704,-57.9224 132.005,-39.1547 145.49,-26.4609"/>
<polygon fill="midnightblue" stroke="midnightblue" points="147.948,-28.961 153.166,-19.7401 143.336,-23.6946 147.948,-28.961"/>
</g>
<!-- Node46 -->
<g id="node46" class="node"><title>Node46</title>
<g id="a_node46"><a xlink:href="_ogre_resource_8h.html" target="_top" xlink:title="OgreResource.h">
<polygon fill="none" stroke="red" points="579,-224.5 579,-243.5 667,-243.5 667,-224.5 579,-224.5"/>
<text text-anchor="middle" x="623" y="-231.5" font-family="Helvetica,sans-Serif" font-size="10.00">OgreResource.h</text>
</a>
</g>
</g>
<!-- Node45&#45;&gt;Node46 -->
<g id="edge57" class="edge"><title>Node45&#45;&gt;Node46</title>
<path fill="none" stroke="midnightblue" d="M768.588,-280.444C739.231,-271.28 692.481,-256.688 659.904,-246.519"/>
<polygon fill="midnightblue" stroke="midnightblue" points="660.873,-243.155 650.284,-243.516 658.787,-249.837 660.873,-243.155"/>
</g>
<!-- Node47 -->
<g id="node47" class="node"><title>Node47</title>
<g id="a_node47"><a xlink:href="_ogre_axis_aligned_box_8h.html" target="_top" xlink:title="OgreAxisAlignedBox.h">
<polygon fill="none" stroke="red" points="799.5,-224.5 799.5,-243.5 914.5,-243.5 914.5,-224.5 799.5,-224.5"/>
<text text-anchor="middle" x="857" y="-231.5" font-family="Helvetica,sans-Serif" font-size="10.00">OgreAxisAlignedBox.h</text>
</a>
</g>
</g>
<!-- Node45&#45;&gt;Node47 -->
<g id="edge61" class="edge"><title>Node45&#45;&gt;Node47</title>
<path fill="none" stroke="midnightblue" d="M805.801,-280.324C814.818,-272.341 828.406,-260.313 839.318,-250.653"/>
<polygon fill="midnightblue" stroke="midnightblue" points="841.853,-253.083 847.021,-243.834 837.213,-247.842 841.853,-253.083"/>
</g>
<!-- Node48 -->
<g id="node48" class="node"><title>Node48</title>
<g id="a_node48"><a xlink:href="_ogre_vertex_bone_assignment_8h.html" target="_top" xlink:title="OgreVertexBoneAssignment.h">
<polygon fill="none" stroke="black" points="932.5,-224.5 932.5,-243.5 1081.5,-243.5 1081.5,-224.5 932.5,-224.5"/>
<text text-anchor="middle" x="1007" y="-231.5" font-family="Helvetica,sans-Serif" font-size="10.00">OgreVertexBoneAssignment.h</text>
</a>
</g>
</g>
<!-- Node45&#45;&gt;Node48 -->
<g id="edge63" class="edge"><title>Node45&#45;&gt;Node48</title>
<path fill="none" stroke="midnightblue" d="M829.434,-280.444C865.856,-271.122 924.23,-256.183 964.029,-245.997"/>
<polygon fill="midnightblue" stroke="midnightblue" points="964.903,-249.387 973.723,-243.516 963.167,-242.605 964.903,-249.387"/>
</g>
<!-- Node46&#45;&gt;Node3 -->
<g id="edge58" class="edge"><title>Node46&#45;&gt;Node3</title>
<path fill="none" stroke="midnightblue" d="M660.078,-224.444C700.728,-215.063 766.032,-199.993 810.184,-189.804"/>
<polygon fill="midnightblue" stroke="midnightblue" points="811.139,-193.175 820.095,-187.516 809.565,-186.355 811.139,-193.175"/>
</g>
<!-- Node46&#45;&gt;Node39 -->
<g id="edge59" class="edge"><title>Node46&#45;&gt;Node39</title>
<path fill="none" stroke="midnightblue" d="M643.325,-224.39C673.766,-210.231 730.071,-178.85 753,-132 767.848,-101.661 769.281,-85.595 753,-56 745.113,-41.6632 730.514,-31.2525 716.597,-24.0792"/>
<polygon fill="midnightblue" stroke="midnightblue" points="717.698,-20.7285 707.161,-19.6217 714.708,-27.0578 717.698,-20.7285"/>
</g>
<!-- Node46&#45;&gt;Node40 -->
<g id="edge60" class="edge"><title>Node46&#45;&gt;Node40</title>
<path fill="none" stroke="midnightblue" d="M578.833,-225.596C468.717,-206.147 186.97,-149.966 133,-76 121.72,-60.5413 135.15,-40.4993 147.903,-26.7817"/>
<polygon fill="midnightblue" stroke="midnightblue" points="150.562,-29.0719 155.142,-19.5181 145.604,-24.1306 150.562,-29.0719"/>
</g>
<!-- Node47&#45;&gt;Node3 -->
<g id="edge62" class="edge"><title>Node47&#45;&gt;Node3</title>
<path fill="none" stroke="midnightblue" d="M857,-224.083C857,-217.006 857,-206.861 857,-197.986"/>
<polygon fill="midnightblue" stroke="midnightblue" points="860.5,-197.751 857,-187.751 853.5,-197.751 860.5,-197.751"/>
</g>
<!-- Node48&#45;&gt;Node3 -->
<g id="edge64" class="edge"><title>Node48&#45;&gt;Node3</title>
<path fill="none" stroke="midnightblue" d="M983.232,-224.444C958.107,-215.399 918.289,-201.064 890.1,-190.916"/>
<polygon fill="midnightblue" stroke="midnightblue" points="891.251,-187.611 880.657,-187.516 888.88,-194.197 891.251,-187.611"/>
</g>
<!-- Node49&#45;&gt;Node3 -->
<g id="edge68" class="edge"><title>Node49&#45;&gt;Node3</title>
<path fill="none" stroke="midnightblue" d="M633.616,-280.331C650.695,-266.738 685.736,-240.282 719,-224 748.834,-209.397 784.532,-197.901 812.145,-190.185"/>
<polygon fill="midnightblue" stroke="midnightblue" points="813.201,-193.525 821.926,-187.515 811.357,-186.772 813.201,-193.525"/>
</g>
<!-- Node49&#45;&gt;Node39 -->
<g id="edge70" class="edge"><title>Node49&#45;&gt;Node39</title>
<path fill="none" stroke="midnightblue" d="M606.666,-280.387C594.045,-272.72 577.503,-260.213 570,-244 566.267,-235.933 566.64,-232.23 570,-224 604.804,-138.744 680.196,-161.256 715,-76 721.984,-58.8913 710.265,-40.1531 698.907,-27.2102"/>
<polygon fill="midnightblue" stroke="midnightblue" points="701.12,-24.4574 691.695,-19.617 696.044,-29.2782 701.12,-24.4574"/>
</g>
<!-- Node49&#45;&gt;Node40 -->
<g id="edge71" class="edge"><title>Node49&#45;&gt;Node40</title>
<path fill="none" stroke="midnightblue" d="M582.86,-285.752C474.15,-276.268 177.034,-245.579 100,-188 51.1008,-151.45 28.5718,-107.084 62,-56 72.5032,-39.9494 90.1263,-29.5902 107.853,-22.9182"/>
<polygon fill="midnightblue" stroke="midnightblue" points="109.328,-26.1133 117.667,-19.5781 107.073,-19.4866 109.328,-26.1133"/>
</g>
<!-- Node49&#45;&gt;Node46 -->
<g id="edge69" class="edge"><title>Node49&#45;&gt;Node46</title>
<path fill="none" stroke="midnightblue" d="M623,-280.083C623,-273.006 623,-262.861 623,-253.986"/>
<polygon fill="midnightblue" stroke="midnightblue" points="626.5,-253.751 623,-243.751 619.5,-253.751 626.5,-253.751"/>
</g>
<!-- Node50&#45;&gt;Node3 -->
<g id="edge75" class="edge"><title>Node50&#45;&gt;Node3</title>
<path fill="none" stroke="midnightblue" d="M1096.09,-336.433C1103.32,-314.731 1118.7,-256.979 1091,-224 1069.32,-198.195 980.454,-187.009 918.702,-182.286"/>
<polygon fill="midnightblue" stroke="midnightblue" points="918.884,-178.791 908.657,-181.556 918.377,-185.772 918.884,-178.791"/>
</g>
</g>
</svg>
