<?xml version="1.0" encoding="UTF-8" standalone="no"?>
<!DOCTYPE svg PUBLIC "-//W3C//DTD SVG 1.1//EN"
 "http://www.w3.org/Graphics/SVG/1.1/DTD/svg11.dtd">
<!-- Generated by graphviz version 2.38.0 (20140413.2041)
 -->
<!-- Title: OgreShaderParameter.h Pages: 1 -->
<svg width="1991pt" height="476pt"
 viewBox="0.00 0.00 1991.00 476.00" xmlns="http://www.w3.org/2000/svg" xmlns:xlink="http://www.w3.org/1999/xlink">
<g id="graph0" class="graph" transform="scale(1 1) rotate(0) translate(4 472)">
<title>OgreShaderParameter.h</title>
<!-- Node1 -->
<g id="node1" class="node"><title>Node1</title>
<polygon fill="#bfbfbf" stroke="black" points="1024,-448.5 1024,-467.5 1146,-467.5 1146,-448.5 1024,-448.5"/>
<text text-anchor="middle" x="1085" y="-455.5" font-family="Helvetica,sans-Serif" font-size="10.00">OgreShaderParameter.h</text>
</g>
<!-- Node2 -->
<g id="node2" class="node"><title>Node2</title>
<g id="a_node2"><a xlink:href="_ogre_shader_prerequisites_8h.html" target="_top" xlink:title="OgreShaderPrerequisites.h">
<polygon fill="none" stroke="black" points="1783,-168.5 1783,-187.5 1917,-187.5 1917,-168.5 1783,-168.5"/>
<text text-anchor="middle" x="1850" y="-175.5" font-family="Helvetica,sans-Serif" font-size="10.00">OgreShaderPrerequisites.h</text>
</a>
</g>
</g>
<!-- Node1&#45;&gt;Node2 -->
<g id="edge1" class="edge"><title>Node1&#45;&gt;Node2</title>
<path fill="none" stroke="midnightblue" d="M1146.16,-455.61C1342.63,-450.344 1945,-427.623 1945,-347 1945,-347 1945,-347 1945,-289 1945,-245.739 1902.39,-211.086 1874.25,-192.915"/>
<polygon fill="midnightblue" stroke="midnightblue" points="1876.03,-189.903 1865.69,-187.604 1872.34,-195.851 1876.03,-189.903"/>
</g>
<!-- Node33 -->
<g id="node33" class="node"><title>Node33</title>
<g id="a_node33"><a xlink:href="_ogre_vector2_8h.html" target="_top" xlink:title="OgreVector2.h">
<polygon fill="none" stroke="black" points="832,-224.5 832,-243.5 912,-243.5 912,-224.5 832,-224.5"/>
<text text-anchor="middle" x="872" y="-231.5" font-family="Helvetica,sans-Serif" font-size="10.00">OgreVector2.h</text>
</a>
</g>
</g>
<!-- Node1&#45;&gt;Node33 -->
<g id="edge35" class="edge"><title>Node1&#45;&gt;Node33</title>
<path fill="none" stroke="midnightblue" d="M1078.53,-448.436C1063.06,-428.138 1022.33,-375.825 984,-336 952.927,-303.715 913.346,-269.459 890.519,-250.295"/>
<polygon fill="midnightblue" stroke="midnightblue" points="892.565,-247.443 882.644,-243.725 888.08,-252.818 892.565,-247.443"/>
</g>
<!-- Node35 -->
<g id="node35" class="node"><title>Node35</title>
<g id="a_node35"><a xlink:href="_ogre_matrix4_8h.html" target="_top" xlink:title="OgreMatrix4.h">
<polygon fill="none" stroke="black" points="807,-392.5 807,-411.5 885,-411.5 885,-392.5 807,-392.5"/>
<text text-anchor="middle" x="846" y="-399.5" font-family="Helvetica,sans-Serif" font-size="10.00">OgreMatrix4.h</text>
</a>
</g>
</g>
<!-- Node1&#45;&gt;Node35 -->
<g id="edge41" class="edge"><title>Node1&#45;&gt;Node35</title>
<path fill="none" stroke="midnightblue" d="M1047.13,-448.444C1005.52,-439.043 938.631,-423.929 893.531,-413.739"/>
<polygon fill="midnightblue" stroke="midnightblue" points="894.219,-410.306 883.693,-411.516 892.676,-417.134 894.219,-410.306"/>
</g>
<!-- Node40 -->
<g id="node40" class="node"><title>Node40</title>
<g id="a_node40"><a xlink:href="_ogre_gpu_program_params_8h.html" target="_top" xlink:title="OgreGpuProgramParams.h">
<polygon fill="none" stroke="black" points="1231,-336.5 1231,-355.5 1365,-355.5 1365,-336.5 1231,-336.5"/>
<text text-anchor="middle" x="1298" y="-343.5" font-family="Helvetica,sans-Serif" font-size="10.00">OgreGpuProgramParams.h</text>
</a>
</g>
</g>
<!-- Node1&#45;&gt;Node40 -->
<g id="edge54" class="edge"><title>Node1&#45;&gt;Node40</title>
<path fill="none" stroke="midnightblue" d="M1101.71,-448.368C1138.81,-429.211 1228.22,-383.036 1272.41,-360.217"/>
<polygon fill="midnightblue" stroke="midnightblue" points="1274.08,-363.29 1281.36,-355.591 1270.87,-357.07 1274.08,-363.29"/>
</g>
<!-- Node3 -->
<g id="node3" class="node"><title>Node3</title>
<g id="a_node3"><a xlink:href="_ogre_prerequisites_8h.html" target="_top" xlink:title="OgrePrerequisites.h">
<polygon fill="none" stroke="black" points="935.5,-112.5 935.5,-131.5 1038.5,-131.5 1038.5,-112.5 935.5,-112.5"/>
<text text-anchor="middle" x="987" y="-119.5" font-family="Helvetica,sans-Serif" font-size="10.00">OgrePrerequisites.h</text>
</a>
</g>
</g>
<!-- Node2&#45;&gt;Node3 -->
<g id="edge2" class="edge"><title>Node2&#45;&gt;Node3</title>
<path fill="none" stroke="midnightblue" d="M1782.83,-168.912C1779.51,-168.586 1776.22,-168.28 1773,-168 1503.87,-144.588 1181.79,-130.503 1048.95,-125.299"/>
<polygon fill="midnightblue" stroke="midnightblue" points="1048.7,-121.787 1038.58,-124.896 1048.43,-128.782 1048.7,-121.787"/>
</g>
<!-- Node32 -->
<g id="node32" class="node"><title>Node32</title>
<g id="a_node32"><a xlink:href="_ogre_common_8h.html" target="_top" xlink:title="OgreCommon.h">
<polygon fill="none" stroke="black" points="1831,-56.5 1831,-75.5 1917,-75.5 1917,-56.5 1831,-56.5"/>
<text text-anchor="middle" x="1874" y="-63.5" font-family="Helvetica,sans-Serif" font-size="10.00">OgreCommon.h</text>
</a>
</g>
</g>
<!-- Node2&#45;&gt;Node32 -->
<g id="edge32" class="edge"><title>Node2&#45;&gt;Node32</title>
<path fill="none" stroke="midnightblue" d="M1851.88,-168.368C1855.76,-150.617 1864.69,-109.666 1869.94,-85.5974"/>
<polygon fill="midnightblue" stroke="midnightblue" points="1873.41,-86.1077 1872.13,-75.5914 1866.57,-84.6155 1873.41,-86.1077"/>
</g>
<!-- Node4 -->
<g id="node4" class="node"><title>Node4</title>
<g id="a_node4"><a xlink:href="_ogre_platform_8h.html" target="_top" xlink:title="OgrePlatform.h">
<polygon fill="none" stroke="black" points="145.5,-56.5 145.5,-75.5 228.5,-75.5 228.5,-56.5 145.5,-56.5"/>
<text text-anchor="middle" x="187" y="-63.5" font-family="Helvetica,sans-Serif" font-size="10.00">OgrePlatform.h</text>
</a>
</g>
</g>
<!-- Node3&#45;&gt;Node4 -->
<g id="edge3" class="edge"><title>Node3&#45;&gt;Node4</title>
<path fill="none" stroke="midnightblue" d="M935.433,-117.519C791.148,-107.78 384.427,-80.3263 239.28,-70.5289"/>
<polygon fill="midnightblue" stroke="midnightblue" points="239.096,-67.0086 228.883,-69.8271 238.624,-73.9927 239.096,-67.0086"/>
</g>
<!-- Node6 -->
<g id="node6" class="node"><title>Node6</title>
<polygon fill="none" stroke="#bfbfbf" points="92.5,-0.5 92.5,-19.5 133.5,-19.5 133.5,-0.5 92.5,-0.5"/>
<text text-anchor="middle" x="113" y="-7.5" font-family="Helvetica,sans-Serif" font-size="10.00">string</text>
</g>
<!-- Node3&#45;&gt;Node6 -->
<g id="edge5" class="edge"><title>Node3&#45;&gt;Node6</title>
<path fill="none" stroke="midnightblue" d="M935.12,-117.914C803.65,-109.429 446.947,-82.2592 143.406,-19.7195"/>
<polygon fill="midnightblue" stroke="midnightblue" points="144.04,-16.2765 133.537,-17.6697 142.616,-23.1303 144.04,-16.2765"/>
</g>
<!-- Node7 -->
<g id="node7" class="node"><title>Node7</title>
<g id="a_node7"><a xlink:href="_ogre_std_headers_8h.html" target="_top" xlink:title="OgreStdHeaders.h">
<polygon fill="none" stroke="red" points="731,-56.5 731,-75.5 829,-75.5 829,-56.5 731,-56.5"/>
<text text-anchor="middle" x="780" y="-63.5" font-family="Helvetica,sans-Serif" font-size="10.00">OgreStdHeaders.h</text>
</a>
</g>
</g>
<!-- Node3&#45;&gt;Node7 -->
<g id="edge6" class="edge"><title>Node3&#45;&gt;Node7</title>
<path fill="none" stroke="midnightblue" d="M954.2,-112.444C918.62,-103.162 861.686,-88.3093 822.653,-78.127"/>
<polygon fill="midnightblue" stroke="midnightblue" points="823.206,-74.6541 812.646,-75.5164 821.439,-81.4274 823.206,-74.6541"/>
</g>
<!-- Node29 -->
<g id="node29" class="node"><title>Node29</title>
<g id="a_node29"><a xlink:href="_ogre_memory_allocator_config_8h.html" target="_top" xlink:title="This file configures Ogre&#39;s memory allocators. ">
<polygon fill="none" stroke="red" points="1333,-56.5 1333,-75.5 1481,-75.5 1481,-56.5 1333,-56.5"/>
<text text-anchor="middle" x="1407" y="-63.5" font-family="Helvetica,sans-Serif" font-size="10.00">OgreMemoryAllocatorConfig.h</text>
</a>
</g>
</g>
<!-- Node3&#45;&gt;Node29 -->
<g id="edge29" class="edge"><title>Node3&#45;&gt;Node29</title>
<path fill="none" stroke="midnightblue" d="M1038.5,-114.379C1111.54,-104.988 1245.74,-87.7335 1330.46,-76.8411"/>
<polygon fill="midnightblue" stroke="midnightblue" points="1331.06,-80.292 1340.54,-75.5453 1330.17,-73.3492 1331.06,-80.292"/>
</g>
<!-- Node5 -->
<g id="node5" class="node"><title>Node5</title>
<g id="a_node5"><a xlink:href="_ogre_config_8h.html" target="_top" xlink:title="OgreConfig.h">
<polygon fill="none" stroke="red" points="0,-0.5 0,-19.5 74,-19.5 74,-0.5 0,-0.5"/>
<text text-anchor="middle" x="37" y="-7.5" font-family="Helvetica,sans-Serif" font-size="10.00">OgreConfig.h</text>
</a>
</g>
</g>
<!-- Node4&#45;&gt;Node5 -->
<g id="edge4" class="edge"><title>Node4&#45;&gt;Node5</title>
<path fill="none" stroke="midnightblue" d="M163.232,-56.4435C138.107,-47.3986 98.289,-33.064 70.0996,-22.9158"/>
<polygon fill="midnightblue" stroke="midnightblue" points="71.2512,-19.6106 60.6567,-19.5164 68.8801,-26.1968 71.2512,-19.6106"/>
</g>
<!-- Node7&#45;&gt;Node6 -->
<g id="edge16" class="edge"><title>Node7&#45;&gt;Node6</title>
<path fill="none" stroke="midnightblue" d="M730.79,-65.2046C624.804,-64.8557 367.168,-59.7659 143.464,-19.6185"/>
<polygon fill="midnightblue" stroke="midnightblue" points="143.976,-16.1541 133.511,-17.8046 142.721,-23.0407 143.976,-16.1541"/>
</g>
<!-- Node8 -->
<g id="node8" class="node"><title>Node8</title>
<polygon fill="none" stroke="#bfbfbf" points="1043.5,-0.5 1043.5,-19.5 1092.5,-19.5 1092.5,-0.5 1043.5,-0.5"/>
<text text-anchor="middle" x="1068" y="-7.5" font-family="Helvetica,sans-Serif" font-size="10.00">cassert</text>
</g>
<!-- Node7&#45;&gt;Node8 -->
<g id="edge7" class="edge"><title>Node7&#45;&gt;Node8</title>
<path fill="none" stroke="midnightblue" d="M829.408,-57.4987C878.662,-49.7405 956.648,-36.701 1033.34,-19.991"/>
<polygon fill="midnightblue" stroke="midnightblue" points="1034.16,-23.3949 1043.18,-17.8269 1032.66,-16.5585 1034.16,-23.3949"/>
</g>
<!-- Node9 -->
<g id="node9" class="node"><title>Node9</title>
<polygon fill="none" stroke="#bfbfbf" points="1110.5,-0.5 1110.5,-19.5 1153.5,-19.5 1153.5,-0.5 1110.5,-0.5"/>
<text text-anchor="middle" x="1132" y="-7.5" font-family="Helvetica,sans-Serif" font-size="10.00">cstdio</text>
</g>
<!-- Node7&#45;&gt;Node9 -->
<g id="edge8" class="edge"><title>Node7&#45;&gt;Node9</title>
<path fill="none" stroke="midnightblue" d="M829.033,-58.314C907.522,-47.5875 1056.32,-27.146 1100.32,-19.5972"/>
<polygon fill="midnightblue" stroke="midnightblue" points="1101.24,-22.9857 1110.42,-17.6934 1099.94,-16.107 1101.24,-22.9857"/>
</g>
<!-- Node10 -->
<g id="node10" class="node"><title>Node10</title>
<polygon fill="none" stroke="#bfbfbf" points="1171.5,-0.5 1171.5,-19.5 1216.5,-19.5 1216.5,-0.5 1171.5,-0.5"/>
<text text-anchor="middle" x="1194" y="-7.5" font-family="Helvetica,sans-Serif" font-size="10.00">cstdlib</text>
</g>
<!-- Node7&#45;&gt;Node10 -->
<g id="edge9" class="edge"><title>Node7&#45;&gt;Node10</title>
<path fill="none" stroke="midnightblue" d="M829.019,-58.3019C835.072,-57.5082 841.177,-56.7238 847,-56 983.558,-39.0266 1021.95,-46.7766 1161.18,-19.8453"/>
<polygon fill="midnightblue" stroke="midnightblue" points="1162.24,-23.2038 1171.38,-17.8455 1160.9,-16.3346 1162.24,-23.2038"/>
</g>
<!-- Node11 -->
<g id="node11" class="node"><title>Node11</title>
<polygon fill="none" stroke="#bfbfbf" points="1234.5,-0.5 1234.5,-19.5 1275.5,-19.5 1275.5,-0.5 1234.5,-0.5"/>
<text text-anchor="middle" x="1255" y="-7.5" font-family="Helvetica,sans-Serif" font-size="10.00">ctime</text>
</g>
<!-- Node7&#45;&gt;Node11 -->
<g id="edge10" class="edge"><title>Node7&#45;&gt;Node11</title>
<path fill="none" stroke="midnightblue" d="M829.006,-58.1953C835.062,-57.4199 841.17,-56.6689 847,-56 1011.39,-37.1384 1057.59,-51.8051 1224.36,-19.711"/>
<polygon fill="midnightblue" stroke="midnightblue" points="1225.33,-23.0881 1234.48,-17.7367 1223.99,-16.2178 1225.33,-23.0881"/>
</g>
<!-- Node12 -->
<g id="node12" class="node"><title>Node12</title>
<polygon fill="none" stroke="#bfbfbf" points="1294,-0.5 1294,-19.5 1340,-19.5 1340,-0.5 1294,-0.5"/>
<text text-anchor="middle" x="1317" y="-7.5" font-family="Helvetica,sans-Serif" font-size="10.00">cstring</text>
</g>
<!-- Node7&#45;&gt;Node12 -->
<g id="edge11" class="edge"><title>Node7&#45;&gt;Node12</title>
<path fill="none" stroke="midnightblue" d="M829.361,-58.0773C835.299,-57.3309 841.283,-56.6191 847,-56 1037.53,-35.3689 1090.33,-53.1692 1283.77,-19.6702"/>
<polygon fill="midnightblue" stroke="midnightblue" points="1284.44,-23.1054 1293.68,-17.9293 1283.23,-16.2108 1284.44,-23.1054"/>
</g>
<!-- Node13 -->
<g id="node13" class="node"><title>Node13</title>
<polygon fill="none" stroke="#bfbfbf" points="1358.5,-0.5 1358.5,-19.5 1407.5,-19.5 1407.5,-0.5 1358.5,-0.5"/>
<text text-anchor="middle" x="1383" y="-7.5" font-family="Helvetica,sans-Serif" font-size="10.00">cstdarg</text>
</g>
<!-- Node7&#45;&gt;Node13 -->
<g id="edge12" class="edge"><title>Node7&#45;&gt;Node13</title>
<path fill="none" stroke="midnightblue" d="M829.355,-58.0178C835.294,-57.2819 841.279,-56.5888 847,-56 1066.25,-33.4347 1126.6,-56.0967 1348.24,-19.7877"/>
<polygon fill="midnightblue" stroke="midnightblue" points="1348.94,-23.2193 1358.23,-18.1289 1347.8,-16.3138 1348.94,-23.2193"/>
</g>
<!-- Node14 -->
<g id="node14" class="node"><title>Node14</title>
<polygon fill="none" stroke="#bfbfbf" points="1426,-0.5 1426,-19.5 1470,-19.5 1470,-0.5 1426,-0.5"/>
<text text-anchor="middle" x="1448" y="-7.5" font-family="Helvetica,sans-Serif" font-size="10.00">cmath</text>
</g>
<!-- Node7&#45;&gt;Node14 -->
<g id="edge13" class="edge"><title>Node7&#45;&gt;Node14</title>
<path fill="none" stroke="midnightblue" d="M829.35,-57.9706C835.29,-57.243 841.277,-56.5647 847,-56 1095.85,-31.4451 1164.4,-61.7205 1415.59,-19.629"/>
<polygon fill="midnightblue" stroke="midnightblue" points="1416.48,-23.0276 1425.76,-17.903 1415.31,-16.1263 1416.48,-23.0276"/>
</g>
<!-- Node15 -->
<g id="node15" class="node"><title>Node15</title>
<polygon fill="none" stroke="#bfbfbf" points="152,-0.5 152,-19.5 196,-19.5 196,-0.5 152,-0.5"/>
<text text-anchor="middle" x="174" y="-7.5" font-family="Helvetica,sans-Serif" font-size="10.00">vector</text>
</g>
<!-- Node7&#45;&gt;Node15 -->
<g id="edge14" class="edge"><title>Node7&#45;&gt;Node15</title>
<path fill="none" stroke="midnightblue" d="M730.721,-64.5242C632.424,-62.847 405.051,-55.3205 206.263,-19.861"/>
<polygon fill="midnightblue" stroke="midnightblue" points="206.685,-16.3804 196.221,-18.0412 205.437,-23.2683 206.685,-16.3804"/>
</g>
<!-- Node16 -->
<g id="node16" class="node"><title>Node16</title>
<polygon fill="none" stroke="#bfbfbf" points="214.5,-0.5 214.5,-19.5 249.5,-19.5 249.5,-0.5 214.5,-0.5"/>
<text text-anchor="middle" x="232" y="-7.5" font-family="Helvetica,sans-Serif" font-size="10.00">map</text>
</g>
<!-- Node7&#45;&gt;Node16 -->
<g id="edge15" class="edge"><title>Node7&#45;&gt;Node16</title>
<path fill="none" stroke="midnightblue" d="M730.963,-64.5949C639.634,-63.0145 437.402,-55.6258 259.358,-19.5343"/>
<polygon fill="midnightblue" stroke="midnightblue" points="260.056,-16.1049 249.556,-17.5129 258.642,-22.9606 260.056,-16.1049"/>
</g>
<!-- Node17 -->
<g id="node17" class="node"><title>Node17</title>
<polygon fill="none" stroke="#bfbfbf" points="268,-0.5 268,-19.5 298,-19.5 298,-0.5 268,-0.5"/>
<text text-anchor="middle" x="283" y="-7.5" font-family="Helvetica,sans-Serif" font-size="10.00">set</text>
</g>
<!-- Node7&#45;&gt;Node17 -->
<g id="edge17" class="edge"><title>Node7&#45;&gt;Node17</title>
<path fill="none" stroke="midnightblue" d="M730.978,-64.5705C646.106,-62.9132 466.474,-55.3765 307.976,-19.615"/>
<polygon fill="midnightblue" stroke="midnightblue" points="308.579,-16.1624 298.049,-17.3314 307.01,-22.9842 308.579,-16.1624"/>
</g>
<!-- Node18 -->
<g id="node18" class="node"><title>Node18</title>
<polygon fill="none" stroke="#bfbfbf" points="316.5,-0.5 316.5,-19.5 345.5,-19.5 345.5,-0.5 316.5,-0.5"/>
<text text-anchor="middle" x="331" y="-7.5" font-family="Helvetica,sans-Serif" font-size="10.00">list</text>
</g>
<!-- Node7&#45;&gt;Node18 -->
<g id="edge18" class="edge"><title>Node7&#45;&gt;Node18</title>
<path fill="none" stroke="midnightblue" d="M730.718,-64.0553C652.493,-61.6336 495.262,-53.0037 355.908,-19.9214"/>
<polygon fill="midnightblue" stroke="midnightblue" points="356.45,-16.4514 345.907,-17.4969 354.801,-23.2544 356.45,-16.4514"/>
</g>
<!-- Node19 -->
<g id="node19" class="node"><title>Node19</title>
<polygon fill="none" stroke="#bfbfbf" points="363.5,-0.5 363.5,-19.5 406.5,-19.5 406.5,-0.5 363.5,-0.5"/>
<text text-anchor="middle" x="385" y="-7.5" font-family="Helvetica,sans-Serif" font-size="10.00">deque</text>
</g>
<!-- Node7&#45;&gt;Node19 -->
<g id="edge19" class="edge"><title>Node7&#45;&gt;Node19</title>
<path fill="none" stroke="midnightblue" d="M730.861,-61.5897C662.287,-56.2499 533.953,-44.1489 416.404,-19.9952"/>
<polygon fill="midnightblue" stroke="midnightblue" points="417.022,-16.5488 406.518,-17.9294 415.591,-23.4008 417.022,-16.5488"/>
</g>
<!-- Node20 -->
<g id="node20" class="node"><title>Node20</title>
<polygon fill="none" stroke="#bfbfbf" points="424.5,-0.5 424.5,-19.5 467.5,-19.5 467.5,-0.5 424.5,-0.5"/>
<text text-anchor="middle" x="446" y="-7.5" font-family="Helvetica,sans-Serif" font-size="10.00">queue</text>
</g>
<!-- Node7&#45;&gt;Node20 -->
<g id="edge20" class="edge"><title>Node7&#45;&gt;Node20</title>
<path fill="none" stroke="midnightblue" d="M730.899,-59.9434C672.531,-53.4435 572.082,-40.7187 477.544,-20.0858"/>
<polygon fill="midnightblue" stroke="midnightblue" points="478.052,-16.6135 467.532,-17.8655 476.537,-23.4475 478.052,-16.6135"/>
</g>
<!-- Node21 -->
<g id="node21" class="node"><title>Node21</title>
<polygon fill="none" stroke="#bfbfbf" points="485.5,-0.5 485.5,-19.5 526.5,-19.5 526.5,-0.5 485.5,-0.5"/>
<text text-anchor="middle" x="506" y="-7.5" font-family="Helvetica,sans-Serif" font-size="10.00">bitset</text>
</g>
<!-- Node7&#45;&gt;Node21 -->
<g id="edge21" class="edge"><title>Node7&#45;&gt;Node21</title>
<path fill="none" stroke="midnightblue" d="M730.596,-57.512C683.196,-49.9645 609.46,-37.2754 536.409,-19.8681"/>
<polygon fill="midnightblue" stroke="midnightblue" points="537.118,-16.4388 526.576,-17.495 535.476,-23.2435 537.118,-16.4388"/>
</g>
<!-- Node22 -->
<g id="node22" class="node"><title>Node22</title>
<polygon fill="none" stroke="#bfbfbf" points="545,-0.5 545,-19.5 601,-19.5 601,-0.5 545,-0.5"/>
<text text-anchor="middle" x="573" y="-7.5" font-family="Helvetica,sans-Serif" font-size="10.00">algorithm</text>
</g>
<!-- Node7&#45;&gt;Node22 -->
<g id="edge22" class="edge"><title>Node7&#45;&gt;Node22</title>
<path fill="none" stroke="midnightblue" d="M747.2,-56.4435C710.259,-46.8067 650.301,-31.1653 611.257,-20.98"/>
<polygon fill="midnightblue" stroke="midnightblue" points="611.882,-17.526 601.322,-18.3884 610.115,-24.2994 611.882,-17.526"/>
</g>
<!-- Node23 -->
<g id="node23" class="node"><title>Node23</title>
<polygon fill="none" stroke="#bfbfbf" points="619.5,-0.5 619.5,-19.5 678.5,-19.5 678.5,-0.5 619.5,-0.5"/>
<text text-anchor="middle" x="649" y="-7.5" font-family="Helvetica,sans-Serif" font-size="10.00">functional</text>
</g>
<!-- Node7&#45;&gt;Node23 -->
<g id="edge23" class="edge"><title>Node7&#45;&gt;Node23</title>
<path fill="none" stroke="midnightblue" d="M759.243,-56.4435C737.684,-47.5566 703.737,-33.5632 679.206,-23.4514"/>
<polygon fill="midnightblue" stroke="midnightblue" points="680.239,-20.0917 669.66,-19.5164 677.572,-26.5634 680.239,-20.0917"/>
</g>
<!-- Node24 -->
<g id="node24" class="node"><title>Node24</title>
<polygon fill="none" stroke="#bfbfbf" points="697,-0.5 697,-19.5 737,-19.5 737,-0.5 697,-0.5"/>
<text text-anchor="middle" x="717" y="-7.5" font-family="Helvetica,sans-Serif" font-size="10.00">limits</text>
</g>
<!-- Node7&#45;&gt;Node24 -->
<g id="edge24" class="edge"><title>Node7&#45;&gt;Node24</title>
<path fill="none" stroke="midnightblue" d="M769.878,-56.324C760.474,-48.2631 746.256,-36.0765 734.931,-26.3695"/>
<polygon fill="midnightblue" stroke="midnightblue" points="737.177,-23.6844 727.306,-19.8339 732.621,-28.9993 737.177,-23.6844"/>
</g>
<!-- Node25 -->
<g id="node25" class="node"><title>Node25</title>
<polygon fill="none" stroke="#bfbfbf" points="755,-0.5 755,-19.5 805,-19.5 805,-0.5 755,-0.5"/>
<text text-anchor="middle" x="780" y="-7.5" font-family="Helvetica,sans-Serif" font-size="10.00">fstream</text>
</g>
<!-- Node7&#45;&gt;Node25 -->
<g id="edge25" class="edge"><title>Node7&#45;&gt;Node25</title>
<path fill="none" stroke="midnightblue" d="M780,-56.083C780,-49.0059 780,-38.8611 780,-29.9865"/>
<polygon fill="midnightblue" stroke="midnightblue" points="783.5,-29.751 780,-19.7511 776.5,-29.7511 783.5,-29.751"/>
</g>
<!-- Node26 -->
<g id="node26" class="node"><title>Node26</title>
<polygon fill="none" stroke="#bfbfbf" points="823.5,-0.5 823.5,-19.5 868.5,-19.5 868.5,-0.5 823.5,-0.5"/>
<text text-anchor="middle" x="846" y="-7.5" font-family="Helvetica,sans-Serif" font-size="10.00">iosfwd</text>
</g>
<!-- Node7&#45;&gt;Node26 -->
<g id="edge26" class="edge"><title>Node7&#45;&gt;Node26</title>
<path fill="none" stroke="midnightblue" d="M790.604,-56.324C800.456,-48.2631 815.351,-36.0765 827.215,-26.3695"/>
<polygon fill="midnightblue" stroke="midnightblue" points="829.68,-28.8752 835.203,-19.8339 825.247,-23.4575 829.68,-28.8752"/>
</g>
<!-- Node27 -->
<g id="node27" class="node"><title>Node27</title>
<polygon fill="none" stroke="#bfbfbf" points="887,-0.5 887,-19.5 939,-19.5 939,-0.5 887,-0.5"/>
<text text-anchor="middle" x="913" y="-7.5" font-family="Helvetica,sans-Serif" font-size="10.00">sstream</text>
</g>
<!-- Node7&#45;&gt;Node27 -->
<g id="edge27" class="edge"><title>Node7&#45;&gt;Node27</title>
<path fill="none" stroke="midnightblue" d="M801.074,-56.4435C823.06,-47.5171 857.734,-33.4387 882.664,-23.3168"/>
<polygon fill="midnightblue" stroke="midnightblue" points="884.076,-26.5213 892.024,-19.5164 881.442,-20.0355 884.076,-26.5213"/>
</g>
<!-- Node28 -->
<g id="node28" class="node"><title>Node28</title>
<polygon fill="none" stroke="#bfbfbf" points="957,-0.5 957,-19.5 1025,-19.5 1025,-0.5 957,-0.5"/>
<text text-anchor="middle" x="991" y="-7.5" font-family="Helvetica,sans-Serif" font-size="10.00">sys/types.h</text>
</g>
<!-- Node7&#45;&gt;Node28 -->
<g id="edge28" class="edge"><title>Node7&#45;&gt;Node28</title>
<path fill="none" stroke="midnightblue" d="M813.434,-56.4435C849.856,-47.1221 908.23,-32.1828 948.029,-21.9972"/>
<polygon fill="midnightblue" stroke="midnightblue" points="948.903,-25.3866 957.723,-19.5164 947.167,-18.6051 948.903,-25.3866"/>
</g>
<!-- Node30 -->
<g id="node30" class="node"><title>Node30</title>
<g id="a_node30"><a xlink:href="_ogre_header_prefix_8h.html" target="_top" xlink:title="OgreHeaderPrefix.h">
<polygon fill="none" stroke="black" points="1670.5,-0.5 1670.5,-19.5 1773.5,-19.5 1773.5,-0.5 1670.5,-0.5"/>
<text text-anchor="middle" x="1722" y="-7.5" font-family="Helvetica,sans-Serif" font-size="10.00">OgreHeaderPrefix.h</text>
</a>
</g>
</g>
<!-- Node29&#45;&gt;Node30 -->
<g id="edge30" class="edge"><title>Node29&#45;&gt;Node30</title>
<path fill="none" stroke="midnightblue" d="M1456.91,-56.4435C1512.67,-46.8851 1602.89,-31.4195 1662.33,-21.2298"/>
<polygon fill="midnightblue" stroke="midnightblue" points="1663.06,-24.6558 1672.32,-19.5164 1661.87,-17.7565 1663.06,-24.6558"/>
</g>
<!-- Node31 -->
<g id="node31" class="node"><title>Node31</title>
<g id="a_node31"><a xlink:href="_ogre_header_suffix_8h.html" target="_top" xlink:title="OgreHeaderSuffix.h">
<polygon fill="none" stroke="black" points="1488.5,-0.5 1488.5,-19.5 1591.5,-19.5 1591.5,-0.5 1488.5,-0.5"/>
<text text-anchor="middle" x="1540" y="-7.5" font-family="Helvetica,sans-Serif" font-size="10.00">OgreHeaderSuffix.h</text>
</a>
</g>
</g>
<!-- Node29&#45;&gt;Node31 -->
<g id="edge31" class="edge"><title>Node29&#45;&gt;Node31</title>
<path fill="none" stroke="midnightblue" d="M1428.07,-56.4435C1450.06,-47.5171 1484.73,-33.4387 1509.66,-23.3168"/>
<polygon fill="midnightblue" stroke="midnightblue" points="1511.08,-26.5213 1519.02,-19.5164 1508.44,-20.0355 1511.08,-26.5213"/>
</g>
<!-- Node32&#45;&gt;Node30 -->
<g id="edge33" class="edge"><title>Node32&#45;&gt;Node30</title>
<path fill="none" stroke="midnightblue" d="M1849.92,-56.4435C1824.46,-47.3986 1784.11,-33.064 1755.54,-22.9158"/>
<polygon fill="midnightblue" stroke="midnightblue" points="1756.57,-19.5661 1745.97,-19.5164 1754.22,-26.1622 1756.57,-19.5661"/>
</g>
<!-- Node32&#45;&gt;Node31 -->
<g id="edge34" class="edge"><title>Node32&#45;&gt;Node31</title>
<path fill="none" stroke="midnightblue" d="M1830.68,-57.9958C1772.34,-48.5633 1668.18,-31.7235 1601.67,-20.9713"/>
<polygon fill="midnightblue" stroke="midnightblue" points="1602.17,-17.5064 1591.74,-19.3654 1601.05,-24.4166 1602.17,-17.5064"/>
</g>
<!-- Node33&#45;&gt;Node3 -->
<g id="edge36" class="edge"><title>Node33&#45;&gt;Node3</title>
<path fill="none" stroke="midnightblue" d="M876.765,-224.221C884.271,-210.942 899.874,-185.451 918,-168 930.808,-155.669 947.447,-144.703 961.177,-136.684"/>
<polygon fill="midnightblue" stroke="midnightblue" points="963.15,-139.589 970.134,-131.622 959.706,-133.495 963.15,-139.589"/>
</g>
<!-- Node34 -->
<g id="node34" class="node"><title>Node34</title>
<g id="a_node34"><a xlink:href="_ogre_math_8h.html" target="_top" xlink:title="OgreMath.h">
<polygon fill="none" stroke="black" points="594,-168.5 594,-187.5 662,-187.5 662,-168.5 594,-168.5"/>
<text text-anchor="middle" x="628" y="-175.5" font-family="Helvetica,sans-Serif" font-size="10.00">OgreMath.h</text>
</a>
</g>
</g>
<!-- Node33&#45;&gt;Node34 -->
<g id="edge37" class="edge"><title>Node33&#45;&gt;Node34</title>
<path fill="none" stroke="midnightblue" d="M833.337,-224.444C789.487,-214.739 718.123,-198.945 672.128,-188.766"/>
<polygon fill="midnightblue" stroke="midnightblue" points="672.671,-185.302 662.151,-186.558 671.158,-192.136 672.671,-185.302"/>
</g>
<!-- Node34&#45;&gt;Node3 -->
<g id="edge38" class="edge"><title>Node34&#45;&gt;Node3</title>
<path fill="none" stroke="midnightblue" d="M662.057,-170.433C666.737,-169.584 671.483,-168.75 676,-168 722.677,-160.25 848.886,-142.342 925.417,-131.6"/>
<polygon fill="midnightblue" stroke="midnightblue" points="925.996,-135.053 935.413,-130.198 925.024,-128.121 925.996,-135.053"/>
</g>
<!-- Node34&#45;&gt;Node30 -->
<g id="edge39" class="edge"><title>Node34&#45;&gt;Node30</title>
<path fill="none" stroke="midnightblue" d="M662.078,-170.614C728.243,-158.216 867.687,-132.083 868,-132 894.36,-125.024 899.488,-118.373 926,-112 1099.68,-70.2467 1146.79,-78.4811 1324,-56 1442.84,-40.9243 1581.96,-25.7613 1660.26,-17.455"/>
<polygon fill="midnightblue" stroke="midnightblue" points="1660.85,-20.9117 1670.43,-16.3783 1660.11,-13.9506 1660.85,-20.9117"/>
</g>
<!-- Node34&#45;&gt;Node31 -->
<g id="edge40" class="edge"><title>Node34&#45;&gt;Node31</title>
<path fill="none" stroke="midnightblue" d="M662.26,-168.403C712.719,-155.784 810.021,-131.62 893,-112 1002.12,-86.1987 1028.39,-74.3799 1139,-56 1285.68,-31.6272 1326.51,-38.7652 1478.28,-20.0315"/>
<polygon fill="midnightblue" stroke="midnightblue" points="1478.95,-23.4748 1488.44,-18.7596 1478.08,-16.5291 1478.95,-23.4748"/>
</g>
<!-- Node35&#45;&gt;Node3 -->
<g id="edge42" class="edge"><title>Node35&#45;&gt;Node3</title>
<path fill="none" stroke="midnightblue" d="M806.752,-400.825C772.658,-398.327 725.076,-388.68 701,-356 695.728,-348.843 698.699,-344.586 701,-336 723.316,-252.719 728.868,-219.521 798,-168 818.031,-153.072 878.162,-140.353 925.279,-132.284"/>
<polygon fill="midnightblue" stroke="midnightblue" points="926.136,-135.69 935.42,-130.584 924.978,-128.786 926.136,-135.69"/>
</g>
<!-- Node36 -->
<g id="node36" class="node"><title>Node36</title>
<g id="a_node36"><a xlink:href="_ogre_matrix3_8h.html" target="_top" xlink:title="OgreMatrix3.h">
<polygon fill="none" stroke="black" points="710,-336.5 710,-355.5 788,-355.5 788,-336.5 710,-336.5"/>
<text text-anchor="middle" x="749" y="-343.5" font-family="Helvetica,sans-Serif" font-size="10.00">OgreMatrix3.h</text>
</a>
</g>
</g>
<!-- Node35&#45;&gt;Node36 -->
<g id="edge43" class="edge"><title>Node35&#45;&gt;Node36</title>
<path fill="none" stroke="midnightblue" d="M830.415,-392.324C815.001,-383.743 791.188,-370.486 773.29,-360.522"/>
<polygon fill="midnightblue" stroke="midnightblue" points="774.986,-357.461 764.546,-355.655 771.581,-363.577 774.986,-357.461"/>
</g>
<!-- Node38 -->
<g id="node38" class="node"><title>Node38</title>
<g id="a_node38"><a xlink:href="_ogre_vector4_8h.html" target="_top" xlink:title="OgreVector4.h">
<polygon fill="none" stroke="black" points="806,-336.5 806,-355.5 886,-355.5 886,-336.5 806,-336.5"/>
<text text-anchor="middle" x="846" y="-343.5" font-family="Helvetica,sans-Serif" font-size="10.00">OgreVector4.h</text>
</a>
</g>
</g>
<!-- Node35&#45;&gt;Node38 -->
<g id="edge48" class="edge"><title>Node35&#45;&gt;Node38</title>
<path fill="none" stroke="midnightblue" d="M846,-392.083C846,-385.006 846,-374.861 846,-365.986"/>
<polygon fill="midnightblue" stroke="midnightblue" points="849.5,-365.751 846,-355.751 842.5,-365.751 849.5,-365.751"/>
</g>
<!-- Node39 -->
<g id="node39" class="node"><title>Node39</title>
<g id="a_node39"><a xlink:href="_ogre_plane_8h.html" target="_top" xlink:title="OgrePlane.h">
<polygon fill="none" stroke="black" points="904.5,-336.5 904.5,-355.5 975.5,-355.5 975.5,-336.5 904.5,-336.5"/>
<text text-anchor="middle" x="940" y="-343.5" font-family="Helvetica,sans-Serif" font-size="10.00">OgrePlane.h</text>
</a>
</g>
</g>
<!-- Node35&#45;&gt;Node39 -->
<g id="edge51" class="edge"><title>Node35&#45;&gt;Node39</title>
<path fill="none" stroke="midnightblue" d="M861.103,-392.324C875.903,-383.822 898.694,-370.729 915.982,-360.797"/>
<polygon fill="midnightblue" stroke="midnightblue" points="918.007,-363.671 924.935,-355.655 914.52,-357.601 918.007,-363.671"/>
</g>
<!-- Node36&#45;&gt;Node3 -->
<g id="edge44" class="edge"><title>Node36&#45;&gt;Node3</title>
<path fill="none" stroke="midnightblue" d="M749.549,-336.497C751.938,-307.279 764.106,-210.465 822,-168 839.529,-155.143 890.987,-142.271 931.826,-133.609"/>
<polygon fill="midnightblue" stroke="midnightblue" points="932.61,-137.02 941.686,-131.554 931.182,-130.168 932.61,-137.02"/>
</g>
<!-- Node37 -->
<g id="node37" class="node"><title>Node37</title>
<g id="a_node37"><a xlink:href="_ogre_vector3_8h.html" target="_top" xlink:title="OgreVector3.h">
<polygon fill="none" stroke="red" points="806,-280.5 806,-299.5 886,-299.5 886,-280.5 806,-280.5"/>
<text text-anchor="middle" x="846" y="-287.5" font-family="Helvetica,sans-Serif" font-size="10.00">OgreVector3.h</text>
</a>
</g>
</g>
<!-- Node36&#45;&gt;Node37 -->
<g id="edge45" class="edge"><title>Node36&#45;&gt;Node37</title>
<path fill="none" stroke="midnightblue" d="M764.585,-336.324C779.999,-327.743 803.812,-314.486 821.71,-304.522"/>
<polygon fill="midnightblue" stroke="midnightblue" points="823.419,-307.577 830.454,-299.655 820.014,-301.461 823.419,-307.577"/>
</g>
<!-- Node37&#45;&gt;Node3 -->
<g id="edge46" class="edge"><title>Node37&#45;&gt;Node3</title>
<path fill="none" stroke="midnightblue" d="M838.585,-280.316C828.674,-267.59 813.406,-243.293 823,-224 846.866,-176.01 905.137,-148.521 945.374,-134.673"/>
<polygon fill="midnightblue" stroke="midnightblue" points="946.529,-137.978 954.93,-131.523 944.337,-131.33 946.529,-137.978"/>
</g>
<!-- Node37&#45;&gt;Node33 -->
<g id="edge47" class="edge"><title>Node37&#45;&gt;Node33</title>
<path fill="none" stroke="midnightblue" d="M850.293,-280.083C853.852,-272.691 859.022,-261.953 863.424,-252.811"/>
<polygon fill="midnightblue" stroke="midnightblue" points="866.602,-254.279 867.787,-243.751 860.295,-251.243 866.602,-254.279"/>
</g>
<!-- Node38&#45;&gt;Node3 -->
<g id="edge49" class="edge"><title>Node38&#45;&gt;Node3</title>
<path fill="none" stroke="midnightblue" d="M831.339,-336.402C819.594,-328.585 803.969,-315.862 797,-300 771.702,-242.419 799.19,-207.663 848,-168 870.081,-150.057 899.498,-139.199 925.583,-132.661"/>
<polygon fill="midnightblue" stroke="midnightblue" points="926.458,-136.051 935.395,-130.361 924.86,-129.236 926.458,-136.051"/>
</g>
<!-- Node38&#45;&gt;Node37 -->
<g id="edge50" class="edge"><title>Node38&#45;&gt;Node37</title>
<path fill="none" stroke="midnightblue" d="M846,-336.083C846,-329.006 846,-318.861 846,-309.986"/>
<polygon fill="midnightblue" stroke="midnightblue" points="849.5,-309.751 846,-299.751 842.5,-309.751 849.5,-309.751"/>
</g>
<!-- Node39&#45;&gt;Node3 -->
<g id="edge52" class="edge"><title>Node39&#45;&gt;Node3</title>
<path fill="none" stroke="midnightblue" d="M939.259,-336.191C937.354,-309.769 933.879,-229.229 956,-168 959.74,-157.647 966.458,-147.435 972.687,-139.362"/>
<polygon fill="midnightblue" stroke="midnightblue" points="975.465,-141.493 979.089,-131.537 970.047,-137.061 975.465,-141.493"/>
</g>
<!-- Node39&#45;&gt;Node37 -->
<g id="edge53" class="edge"><title>Node39&#45;&gt;Node37</title>
<path fill="none" stroke="midnightblue" d="M924.897,-336.324C910.097,-327.822 887.306,-314.729 870.018,-304.797"/>
<polygon fill="midnightblue" stroke="midnightblue" points="871.48,-301.601 861.065,-299.655 867.993,-307.671 871.48,-301.601"/>
</g>
<!-- Node40&#45;&gt;Node3 -->
<g id="edge55" class="edge"><title>Node40&#45;&gt;Node3</title>
<path fill="none" stroke="midnightblue" d="M1230.73,-341.526C1189.85,-336.7 1138.17,-325.534 1099,-300 1039.64,-261.306 1005.76,-178.979 992.959,-141.853"/>
<polygon fill="midnightblue" stroke="midnightblue" points="996.124,-140.274 989.658,-131.88 989.478,-142.474 996.124,-140.274"/>
</g>
<!-- Node40&#45;&gt;Node30 -->
<g id="edge84" class="edge"><title>Node40&#45;&gt;Node30</title>
<path fill="none" stroke="midnightblue" d="M1365.24,-342.939C1537.83,-335.833 1983,-305.266 1983,-179 1983,-179 1983,-179 1983,-121 1983,-34.881 1860.84,-15.1114 1783.67,-11.2146"/>
<polygon fill="midnightblue" stroke="midnightblue" points="1783.71,-7.71295 1773.57,-10.7812 1783.41,-14.7065 1783.71,-7.71295"/>
</g>
<!-- Node40&#45;&gt;Node31 -->
<g id="edge85" class="edge"><title>Node40&#45;&gt;Node31</title>
<path fill="none" stroke="midnightblue" d="M1295.69,-336.481C1284.96,-296.786 1240.29,-129.638 1234,-76 1232.96,-67.1717 1228.19,-62.7268 1234,-56 1268.22,-16.3895 1409.74,-26.8139 1478.44,-19.8345"/>
<polygon fill="midnightblue" stroke="midnightblue" points="1478.92,-23.3022 1488.42,-18.613 1478.06,-16.3541 1478.92,-23.3022"/>
</g>
<!-- Node41 -->
<g id="node41" class="node"><title>Node41</title>
<g id="a_node41"><a xlink:href="_ogre_shared_ptr_8h.html" target="_top" xlink:title="OgreSharedPtr.h">
<polygon fill="none" stroke="black" points="1108.5,-280.5 1108.5,-299.5 1197.5,-299.5 1197.5,-280.5 1108.5,-280.5"/>
<text text-anchor="middle" x="1153" y="-287.5" font-family="Helvetica,sans-Serif" font-size="10.00">OgreSharedPtr.h</text>
</a>
</g>
</g>
<!-- Node40&#45;&gt;Node41 -->
<g id="edge56" class="edge"><title>Node40&#45;&gt;Node41</title>
<path fill="none" stroke="midnightblue" d="M1275.02,-336.444C1250.84,-327.438 1212.58,-313.189 1185.35,-303.049"/>
<polygon fill="midnightblue" stroke="midnightblue" points="1186.46,-299.727 1175.87,-299.516 1184.02,-306.286 1186.46,-299.727"/>
</g>
<!-- Node44 -->
<g id="node44" class="node"><title>Node44</title>
<g id="a_node44"><a xlink:href="_ogre_thread_headers_8h.html" target="_top" xlink:title="Threading/OgreThreadHeaders.h">
<polygon fill="none" stroke="red" points="1074,-168.5 1074,-187.5 1232,-187.5 1232,-168.5 1074,-168.5"/>
<text text-anchor="middle" x="1153" y="-175.5" font-family="Helvetica,sans-Serif" font-size="10.00">Threading/OgreThreadHeaders.h</text>
</a>
</g>
</g>
<!-- Node40&#45;&gt;Node44 -->
<g id="edge83" class="edge"><title>Node40&#45;&gt;Node44</title>
<path fill="none" stroke="midnightblue" d="M1293.34,-336.376C1281.8,-315.501 1250.18,-261.232 1214,-224 1202.67,-212.342 1188.08,-201.458 1176,-193.315"/>
<polygon fill="midnightblue" stroke="midnightblue" points="1177.64,-190.204 1167.35,-187.655 1173.8,-196.061 1177.64,-190.204"/>
</g>
<!-- Node45 -->
<g id="node45" class="node"><title>Node45</title>
<g id="a_node45"><a xlink:href="_ogre_iterator_wrappers_8h.html" target="_top" xlink:title="OgreIteratorWrappers.h">
<polygon fill="none" stroke="black" points="1645.5,-168.5 1645.5,-187.5 1764.5,-187.5 1764.5,-168.5 1645.5,-168.5"/>
<text text-anchor="middle" x="1705" y="-175.5" font-family="Helvetica,sans-Serif" font-size="10.00">OgreIteratorWrappers.h</text>
</a>
</g>
</g>
<!-- Node40&#45;&gt;Node45 -->
<g id="edge65" class="edge"><title>Node40&#45;&gt;Node45</title>
<path fill="none" stroke="midnightblue" d="M1319.03,-336.425C1386.15,-309.047 1595.52,-223.654 1674.46,-191.454"/>
<polygon fill="midnightblue" stroke="midnightblue" points="1675.92,-194.641 1683.86,-187.624 1673.28,-188.159 1675.92,-194.641"/>
</g>
<!-- Node48 -->
<g id="node48" class="node"><title>Node48</title>
<g id="a_node48"><a xlink:href="_ogre_serializer_8h.html" target="_top" xlink:title="OgreSerializer.h">
<polygon fill="none" stroke="black" points="1434,-168.5 1434,-187.5 1520,-187.5 1520,-168.5 1434,-168.5"/>
<text text-anchor="middle" x="1477" y="-175.5" font-family="Helvetica,sans-Serif" font-size="10.00">OgreSerializer.h</text>
</a>
</g>
</g>
<!-- Node40&#45;&gt;Node48 -->
<g id="edge73" class="edge"><title>Node40&#45;&gt;Node48</title>
<path fill="none" stroke="midnightblue" d="M1307.62,-336.075C1336.65,-309.153 1423.61,-228.514 1460.34,-194.453"/>
<polygon fill="midnightblue" stroke="midnightblue" points="1462.81,-196.934 1467.76,-187.568 1458.05,-191.802 1462.81,-196.934"/>
</g>
<!-- Node49 -->
<g id="node49" class="node"><title>Node49</title>
<g id="a_node49"><a xlink:href="_ogre_any_8h.html" target="_top" xlink:title="OgreAny.h">
<polygon fill="none" stroke="black" points="1440.5,-224.5 1440.5,-243.5 1503.5,-243.5 1503.5,-224.5 1440.5,-224.5"/>
<text text-anchor="middle" x="1472" y="-231.5" font-family="Helvetica,sans-Serif" font-size="10.00">OgreAny.h</text>
</a>
</g>
</g>
<!-- Node40&#45;&gt;Node49 -->
<g id="edge77" class="edge"><title>Node40&#45;&gt;Node49</title>
<path fill="none" stroke="midnightblue" d="M1312.99,-336.427C1328.42,-327.533 1353.08,-313.116 1374,-300 1400.88,-283.145 1431.23,-262.803 1450.94,-249.417"/>
<polygon fill="midnightblue" stroke="midnightblue" points="1453.15,-252.145 1459.45,-243.623 1449.21,-246.36 1453.15,-252.145"/>
</g>
<!-- Node41&#45;&gt;Node3 -->
<g id="edge57" class="edge"><title>Node41&#45;&gt;Node3</title>
<path fill="none" stroke="midnightblue" d="M1139.98,-280.197C1127.35,-271.471 1107.82,-257.491 1092,-244 1064.98,-220.957 1058.29,-214.813 1035,-188 1021.55,-172.511 1007.8,-153.505 998.484,-140.056"/>
<polygon fill="midnightblue" stroke="midnightblue" points="1001.33,-138.024 992.802,-131.744 995.556,-141.975 1001.33,-138.024"/>
</g>
<!-- Node42 -->
<g id="node42" class="node"><title>Node42</title>
<g id="a_node42"><a xlink:href="_ogre_atomic_scalar_8h.html" target="_top" xlink:title="OgreAtomicScalar.h">
<polygon fill="none" stroke="red" points="1101,-224.5 1101,-243.5 1205,-243.5 1205,-224.5 1101,-224.5"/>
<text text-anchor="middle" x="1153" y="-231.5" font-family="Helvetica,sans-Serif" font-size="10.00">OgreAtomicScalar.h</text>
</a>
</g>
</g>
<!-- Node41&#45;&gt;Node42 -->
<g id="edge58" class="edge"><title>Node41&#45;&gt;Node42</title>
<path fill="none" stroke="midnightblue" d="M1153,-280.083C1153,-273.006 1153,-262.861 1153,-253.986"/>
<polygon fill="midnightblue" stroke="midnightblue" points="1156.5,-253.751 1153,-243.751 1149.5,-253.751 1156.5,-253.751"/>
</g>
<!-- Node42&#45;&gt;Node3 -->
<g id="edge59" class="edge"><title>Node42&#45;&gt;Node3</title>
<path fill="none" stroke="midnightblue" d="M1133.08,-224.359C1114.77,-216.063 1087.19,-202.658 1065,-188 1042.41,-173.082 1018.86,-152.672 1003.62,-138.728"/>
<polygon fill="midnightblue" stroke="midnightblue" points="1005.78,-135.959 996.074,-131.722 1001.02,-141.09 1005.78,-135.959"/>
</g>
<!-- Node43 -->
<g id="node43" class="node"><title>Node43</title>
<g id="a_node43"><a xlink:href="_ogre_exception_8h.html" target="_top" xlink:title="OgreException.h">
<polygon fill="none" stroke="red" points="1326.5,-168.5 1326.5,-187.5 1415.5,-187.5 1415.5,-168.5 1326.5,-168.5"/>
<text text-anchor="middle" x="1371" y="-175.5" font-family="Helvetica,sans-Serif" font-size="10.00">OgreException.h</text>
</a>
</g>
</g>
<!-- Node42&#45;&gt;Node43 -->
<g id="edge60" class="edge"><title>Node42&#45;&gt;Node43</title>
<path fill="none" stroke="midnightblue" d="M1187.54,-224.444C1225.25,-215.102 1285.74,-200.119 1326.86,-189.933"/>
<polygon fill="midnightblue" stroke="midnightblue" points="1327.75,-193.318 1336.62,-187.516 1326.07,-186.524 1327.75,-193.318"/>
</g>
<!-- Node42&#45;&gt;Node44 -->
<g id="edge64" class="edge"><title>Node42&#45;&gt;Node44</title>
<path fill="none" stroke="midnightblue" d="M1153,-224.083C1153,-217.006 1153,-206.861 1153,-197.986"/>
<polygon fill="midnightblue" stroke="midnightblue" points="1156.5,-197.751 1153,-187.751 1149.5,-197.751 1156.5,-197.751"/>
</g>
<!-- Node43&#45;&gt;Node3 -->
<g id="edge61" class="edge"><title>Node43&#45;&gt;Node3</title>
<path fill="none" stroke="midnightblue" d="M1326.2,-170.7C1257.56,-161.048 1126.21,-142.576 1048.64,-131.668"/>
<polygon fill="midnightblue" stroke="midnightblue" points="1048.92,-128.173 1038.53,-130.246 1047.94,-135.105 1048.92,-128.173"/>
</g>
<!-- Node43&#45;&gt;Node30 -->
<g id="edge62" class="edge"><title>Node43&#45;&gt;Node30</title>
<path fill="none" stroke="midnightblue" d="M1396.53,-168.478C1442.57,-152.727 1542.02,-116.905 1621,-76 1650.38,-60.781 1682.15,-39.4524 1702.05,-25.4373"/>
<polygon fill="midnightblue" stroke="midnightblue" points="1704.19,-28.2102 1710.31,-19.5607 1700.13,-22.5067 1704.19,-28.2102"/>
</g>
<!-- Node43&#45;&gt;Node31 -->
<g id="edge63" class="edge"><title>Node43&#45;&gt;Node31</title>
<path fill="none" stroke="midnightblue" d="M1349.35,-168.458C1304.1,-149.423 1206.85,-101.602 1246,-56 1246.95,-54.8959 1392.49,-33.0114 1478.41,-20.1753"/>
<polygon fill="midnightblue" stroke="midnightblue" points="1478.95,-23.6336 1488.33,-18.695 1477.92,-16.7103 1478.95,-23.6336"/>
</g>
<!-- Node45&#45;&gt;Node3 -->
<g id="edge66" class="edge"><title>Node45&#45;&gt;Node3</title>
<path fill="none" stroke="midnightblue" d="M1645.19,-168.973C1642.08,-168.627 1639.01,-168.3 1636,-168 1420.81,-146.526 1164.46,-132.001 1048.9,-126.043"/>
<polygon fill="midnightblue" stroke="midnightblue" points="1048.99,-122.543 1038.83,-125.527 1048.64,-129.534 1048.99,-122.543"/>
</g>
<!-- Node46 -->
<g id="node46" class="node"><title>Node46</title>
<g id="a_node46"><a xlink:href="_ogre_iterator_wrapper_8h.html" target="_top" xlink:title="OgreIteratorWrapper.h">
<polygon fill="none" stroke="black" points="1499.5,-56.5 1499.5,-75.5 1612.5,-75.5 1612.5,-56.5 1499.5,-56.5"/>
<text text-anchor="middle" x="1556" y="-63.5" font-family="Helvetica,sans-Serif" font-size="10.00">OgreIteratorWrapper.h</text>
</a>
</g>
</g>
<!-- Node45&#45;&gt;Node46 -->
<g id="edge67" class="edge"><title>Node45&#45;&gt;Node46</title>
<path fill="none" stroke="midnightblue" d="M1693.31,-168.368C1667.85,-149.573 1607.16,-104.768 1575.69,-81.5334"/>
<polygon fill="midnightblue" stroke="midnightblue" points="1577.76,-78.715 1567.64,-75.5914 1573.6,-84.3466 1577.76,-78.715"/>
</g>
<!-- Node47 -->
<g id="node47" class="node"><title>Node47</title>
<g id="a_node47"><a xlink:href="_ogre_iterator_range_8h.html" target="_top" xlink:title="OgreIteratorRange.h">
<polygon fill="none" stroke="black" points="1669.5,-56.5 1669.5,-75.5 1774.5,-75.5 1774.5,-56.5 1669.5,-56.5"/>
<text text-anchor="middle" x="1722" y="-63.5" font-family="Helvetica,sans-Serif" font-size="10.00">OgreIteratorRange.h</text>
</a>
</g>
</g>
<!-- Node45&#45;&gt;Node47 -->
<g id="edge70" class="edge"><title>Node45&#45;&gt;Node47</title>
<path fill="none" stroke="midnightblue" d="M1706.33,-168.368C1709.08,-150.617 1715.41,-109.666 1719.13,-85.5974"/>
<polygon fill="midnightblue" stroke="midnightblue" points="1722.6,-86.0087 1720.67,-75.5914 1715.69,-84.9395 1722.6,-86.0087"/>
</g>
<!-- Node46&#45;&gt;Node30 -->
<g id="edge68" class="edge"><title>Node46&#45;&gt;Node30</title>
<path fill="none" stroke="midnightblue" d="M1582.3,-56.4435C1610.35,-47.3196 1654.94,-32.8133 1686.18,-22.6509"/>
<polygon fill="midnightblue" stroke="midnightblue" points="1687.39,-25.9383 1695.82,-19.5164 1685.23,-19.2816 1687.39,-25.9383"/>
</g>
<!-- Node46&#45;&gt;Node31 -->
<g id="edge69" class="edge"><title>Node46&#45;&gt;Node31</title>
<path fill="none" stroke="midnightblue" d="M1553.36,-56.083C1551.21,-48.8486 1548.12,-38.4087 1545.45,-29.3968"/>
<polygon fill="midnightblue" stroke="midnightblue" points="1548.79,-28.3447 1542.59,-19.7511 1542.08,-30.3334 1548.79,-28.3447"/>
</g>
<!-- Node47&#45;&gt;Node30 -->
<g id="edge71" class="edge"><title>Node47&#45;&gt;Node30</title>
<path fill="none" stroke="midnightblue" d="M1722,-56.083C1722,-49.0059 1722,-38.8611 1722,-29.9865"/>
<polygon fill="midnightblue" stroke="midnightblue" points="1725.5,-29.751 1722,-19.7511 1718.5,-29.7511 1725.5,-29.751"/>
</g>
<!-- Node47&#45;&gt;Node31 -->
<g id="edge72" class="edge"><title>Node47&#45;&gt;Node31</title>
<path fill="none" stroke="midnightblue" d="M1693.16,-56.4435C1662.14,-47.2406 1612.67,-32.5617 1578.38,-22.3879"/>
<polygon fill="midnightblue" stroke="midnightblue" points="1579.29,-19.0055 1568.7,-19.5164 1577.29,-25.7164 1579.29,-19.0055"/>
</g>
<!-- Node48&#45;&gt;Node3 -->
<g id="edge74" class="edge"><title>Node48&#45;&gt;Node3</title>
<path fill="none" stroke="midnightblue" d="M1433.94,-169.445C1430.58,-168.93 1427.24,-168.441 1424,-168 1290.56,-149.82 1133.3,-135.311 1048.56,-128.057"/>
<polygon fill="midnightblue" stroke="midnightblue" points="1048.86,-124.57 1038.59,-127.209 1048.26,-131.544 1048.86,-124.57"/>
</g>
<!-- Node48&#45;&gt;Node30 -->
<g id="edge75" class="edge"><title>Node48&#45;&gt;Node30</title>
<path fill="none" stroke="midnightblue" d="M1520.11,-169.146C1596.77,-154.208 1751.7,-119.296 1783,-76 1797.03,-56.6003 1771.83,-36.9125 1749.69,-24.368"/>
<polygon fill="midnightblue" stroke="midnightblue" points="1751.29,-21.2544 1740.82,-19.6091 1747.98,-27.4222 1751.29,-21.2544"/>
</g>
<!-- Node48&#45;&gt;Node31 -->
<g id="edge76" class="edge"><title>Node48&#45;&gt;Node31</title>
<path fill="none" stroke="midnightblue" d="M1448.75,-168.48C1393.72,-151.251 1275.57,-110.936 1253,-76 1248.18,-68.5338 1247.22,-62.7547 1253,-56 1254.84,-53.8536 1394.75,-32.6587 1478.52,-20.1374"/>
<polygon fill="midnightblue" stroke="midnightblue" points="1479.08,-23.594 1488.45,-18.6553 1478.04,-16.6708 1479.08,-23.594"/>
</g>
<!-- Node49&#45;&gt;Node3 -->
<g id="edge78" class="edge"><title>Node49&#45;&gt;Node3</title>
<path fill="none" stroke="midnightblue" d="M1442.8,-224.394C1389.86,-208.854 1279.89,-176.893 1241,-168 1175.92,-153.118 1100.51,-140.31 1048.87,-132.206"/>
<polygon fill="midnightblue" stroke="midnightblue" points="1049.29,-128.729 1038.87,-130.649 1048.21,-135.646 1049.29,-128.729"/>
</g>
<!-- Node49&#45;&gt;Node30 -->
<g id="edge81" class="edge"><title>Node49&#45;&gt;Node30</title>
<path fill="none" stroke="midnightblue" d="M1503.73,-232.264C1602.19,-229.654 1897.69,-219.26 1926,-188 1965.38,-144.519 1962.74,-101.734 1926,-56 1908.39,-34.0871 1837.31,-22.2123 1783.97,-16.2534"/>
<polygon fill="midnightblue" stroke="midnightblue" points="1784.22,-12.7595 1773.9,-15.1739 1783.47,-19.7196 1784.22,-12.7595"/>
</g>
<!-- Node49&#45;&gt;Node31 -->
<g id="edge82" class="edge"><title>Node49&#45;&gt;Node31</title>
<path fill="none" stroke="midnightblue" d="M1489.43,-224.421C1511.03,-212.582 1543.35,-190.176 1529,-168 1472.58,-80.8437 1258.5,-136.553 1324,-56 1329.04,-49.8064 1419.12,-32.5945 1481.35,-21.3424"/>
<polygon fill="midnightblue" stroke="midnightblue" points="1482.24,-24.7381 1491.46,-19.5215 1481,-17.8489 1482.24,-24.7381"/>
</g>
<!-- Node49&#45;&gt;Node43 -->
<g id="edge79" class="edge"><title>Node49&#45;&gt;Node43</title>
<path fill="none" stroke="midnightblue" d="M1455.77,-224.324C1439.65,-215.703 1414.7,-202.364 1396.04,-192.386"/>
<polygon fill="midnightblue" stroke="midnightblue" points="1397.66,-189.283 1387.19,-187.655 1394.36,-195.456 1397.66,-189.283"/>
</g>
<!-- Node50 -->
<g id="node50" class="node"><title>Node50</title>
<polygon fill="none" stroke="#bfbfbf" points="1576.5,-168.5 1576.5,-187.5 1627.5,-187.5 1627.5,-168.5 1576.5,-168.5"/>
<text text-anchor="middle" x="1602" y="-175.5" font-family="Helvetica,sans-Serif" font-size="10.00">typeinfo</text>
</g>
<!-- Node49&#45;&gt;Node50 -->
<g id="edge80" class="edge"><title>Node49&#45;&gt;Node50</title>
<path fill="none" stroke="midnightblue" d="M1492.6,-224.444C1513.99,-215.557 1547.68,-201.563 1572.02,-191.451"/>
<polygon fill="midnightblue" stroke="midnightblue" points="1573.61,-194.585 1581.5,-187.516 1570.92,-188.12 1573.61,-194.585"/>
</g>
</g>
</svg>
