<?xml version="1.0" encoding="UTF-8" standalone="no"?>
<!DOCTYPE svg PUBLIC "-//W3C//DTD SVG 1.1//EN"
 "http://www.w3.org/Graphics/SVG/1.1/DTD/svg11.dtd">
<!-- Generated by graphviz version 2.38.0 (20140413.2041)
 -->
<!-- Title: OgreMaterialSerializer.h Pages: 1 -->
<svg width="2734pt" height="364pt"
 viewBox="0.00 0.00 2734.00 364.00" xmlns="http://www.w3.org/2000/svg" xmlns:xlink="http://www.w3.org/1999/xlink">
<g id="graph0" class="graph" transform="scale(1 1) rotate(0) translate(4 360)">
<title>OgreMaterialSerializer.h</title>
<!-- Node1 -->
<g id="node1" class="node"><title>Node1</title>
<polygon fill="#bfbfbf" stroke="black" points="509.5,-336.5 509.5,-355.5 630.5,-355.5 630.5,-336.5 509.5,-336.5"/>
<text text-anchor="middle" x="570" y="-343.5" font-family="Helvetica,sans-Serif" font-size="10.00">OgreMaterialSerializer.h</text>
</g>
<!-- Node2 -->
<g id="node2" class="node"><title>Node2</title>
<g id="a_node2"><a xlink:href="_ogre_prerequisites_8h.html" target="_top" xlink:title="OgrePrerequisites.h">
<polygon fill="none" stroke="black" points="957.5,-112.5 957.5,-131.5 1060.5,-131.5 1060.5,-112.5 957.5,-112.5"/>
<text text-anchor="middle" x="1009" y="-119.5" font-family="Helvetica,sans-Serif" font-size="10.00">OgrePrerequisites.h</text>
</a>
</g>
</g>
<!-- Node1&#45;&gt;Node2 -->
<g id="edge1" class="edge"><title>Node1&#45;&gt;Node2</title>
<path fill="none" stroke="midnightblue" d="M630.54,-339.511C766.241,-326.507 1090.56,-291.33 1189,-244 1222.46,-227.91 1235.92,-221.933 1251,-188 1254.61,-179.877 1256.68,-174.836 1251,-168 1228.47,-140.899 1134.53,-130.04 1070.54,-125.744"/>
<polygon fill="midnightblue" stroke="midnightblue" points="1070.74,-122.25 1060.54,-125.109 1070.3,-129.236 1070.74,-122.25"/>
</g>
<!-- Node37 -->
<g id="node37" class="node"><title>Node37</title>
<g id="a_node37"><a xlink:href="_ogre_header_prefix_8h.html" target="_top" xlink:title="OgreHeaderPrefix.h">
<polygon fill="none" stroke="black" points="166.5,-0.5 166.5,-19.5 269.5,-19.5 269.5,-0.5 166.5,-0.5"/>
<text text-anchor="middle" x="218" y="-7.5" font-family="Helvetica,sans-Serif" font-size="10.00">OgreHeaderPrefix.h</text>
</a>
</g>
</g>
<!-- Node1&#45;&gt;Node37 -->
<g id="edge80" class="edge"><title>Node1&#45;&gt;Node37</title>
<path fill="none" stroke="midnightblue" d="M509.27,-345.951C362.399,-346.624 0,-337.863 0,-235 0,-235 0,-235 0,-121 0,-50.5806 91.7879,-25.2337 156.245,-16.1158"/>
<polygon fill="midnightblue" stroke="midnightblue" points="156.879,-19.5625 166.337,-14.7873 155.966,-12.6224 156.879,-19.5625"/>
</g>
<!-- Node38 -->
<g id="node38" class="node"><title>Node38</title>
<g id="a_node38"><a xlink:href="_ogre_header_suffix_8h.html" target="_top" xlink:title="OgreHeaderSuffix.h">
<polygon fill="none" stroke="black" points="321.5,-0.5 321.5,-19.5 424.5,-19.5 424.5,-0.5 321.5,-0.5"/>
<text text-anchor="middle" x="373" y="-7.5" font-family="Helvetica,sans-Serif" font-size="10.00">OgreHeaderSuffix.h</text>
</a>
</g>
</g>
<!-- Node1&#45;&gt;Node38 -->
<g id="edge81" class="edge"><title>Node1&#45;&gt;Node38</title>
<path fill="none" stroke="midnightblue" d="M509.489,-338.676C408.847,-326.462 218,-295.344 218,-235 218,-235 218,-235 218,-177 218,-102.981 301.349,-48.2547 345.806,-24.3291"/>
<polygon fill="midnightblue" stroke="midnightblue" points="347.677,-27.3006 354.916,-19.5645 344.433,-21.0977 347.677,-27.3006"/>
</g>
<!-- Node39 -->
<g id="node39" class="node"><title>Node39</title>
<g id="a_node39"><a xlink:href="_ogre_texture_unit_state_8h.html" target="_top" xlink:title="OgreTextureUnitState.h">
<polygon fill="none" stroke="black" points="385,-280.5 385,-299.5 505,-299.5 505,-280.5 385,-280.5"/>
<text text-anchor="middle" x="445" y="-287.5" font-family="Helvetica,sans-Serif" font-size="10.00">OgreTextureUnitState.h</text>
</a>
</g>
</g>
<!-- Node1&#45;&gt;Node39 -->
<g id="edge39" class="edge"><title>Node1&#45;&gt;Node39</title>
<path fill="none" stroke="midnightblue" d="M550.193,-336.444C529.713,-327.596 497.517,-313.687 474.135,-303.586"/>
<polygon fill="midnightblue" stroke="midnightblue" points="475.282,-300.269 464.714,-299.516 472.506,-306.695 475.282,-300.269"/>
</g>
<!-- Node46 -->
<g id="node46" class="node"><title>Node46</title>
<g id="a_node46"><a xlink:href="_ogre_gpu_program_8h.html" target="_top" xlink:title="OgreGpuProgram.h">
<polygon fill="none" stroke="black" points="644.5,-280.5 644.5,-299.5 745.5,-299.5 745.5,-280.5 644.5,-280.5"/>
<text text-anchor="middle" x="695" y="-287.5" font-family="Helvetica,sans-Serif" font-size="10.00">OgreGpuProgram.h</text>
</a>
</g>
</g>
<!-- Node1&#45;&gt;Node46 -->
<g id="edge60" class="edge"><title>Node1&#45;&gt;Node46</title>
<path fill="none" stroke="midnightblue" d="M589.807,-336.444C610.287,-327.596 642.483,-313.687 665.865,-303.586"/>
<polygon fill="midnightblue" stroke="midnightblue" points="667.494,-306.695 675.286,-299.516 664.718,-300.269 667.494,-306.695"/>
</g>
<!-- Node49 -->
<g id="node49" class="node"><title>Node49</title>
<g id="a_node49"><a xlink:href="_ogre_string_vector_8h.html" target="_top" xlink:title="OgreStringVector.h">
<polygon fill="none" stroke="black" points="1012,-224.5 1012,-243.5 1112,-243.5 1112,-224.5 1012,-224.5"/>
<text text-anchor="middle" x="1062" y="-231.5" font-family="Helvetica,sans-Serif" font-size="10.00">OgreStringVector.h</text>
</a>
</g>
</g>
<!-- Node1&#45;&gt;Node49 -->
<g id="edge73" class="edge"><title>Node1&#45;&gt;Node49</title>
<path fill="none" stroke="midnightblue" d="M608.197,-336.46C696.838,-316.642 916.372,-267.559 1013.94,-245.745"/>
<polygon fill="midnightblue" stroke="midnightblue" points="1014.83,-249.132 1023.83,-243.535 1013.3,-242.301 1014.83,-249.132"/>
</g>
<!-- Node3 -->
<g id="node3" class="node"><title>Node3</title>
<g id="a_node3"><a xlink:href="_ogre_platform_8h.html" target="_top" xlink:title="OgrePlatform.h">
<polygon fill="none" stroke="black" points="2365.5,-56.5 2365.5,-75.5 2448.5,-75.5 2448.5,-56.5 2365.5,-56.5"/>
<text text-anchor="middle" x="2407" y="-63.5" font-family="Helvetica,sans-Serif" font-size="10.00">OgrePlatform.h</text>
</a>
</g>
</g>
<!-- Node2&#45;&gt;Node3 -->
<g id="edge2" class="edge"><title>Node2&#45;&gt;Node3</title>
<path fill="none" stroke="midnightblue" d="M1060.83,-118.998C1280.71,-110.505 2135.14,-77.5009 2355.12,-69.004"/>
<polygon fill="midnightblue" stroke="midnightblue" points="2355.55,-72.4899 2365.41,-68.6065 2355.28,-65.4951 2355.55,-72.4899"/>
</g>
<!-- Node5 -->
<g id="node5" class="node"><title>Node5</title>
<polygon fill="none" stroke="#bfbfbf" points="2592.5,-0.5 2592.5,-19.5 2633.5,-19.5 2633.5,-0.5 2592.5,-0.5"/>
<text text-anchor="middle" x="2613" y="-7.5" font-family="Helvetica,sans-Serif" font-size="10.00">string</text>
</g>
<!-- Node2&#45;&gt;Node5 -->
<g id="edge4" class="edge"><title>Node2&#45;&gt;Node5</title>
<path fill="none" stroke="midnightblue" d="M1060.89,-119.258C1295.52,-111.138 2259.45,-75.1384 2582.21,-19.6375"/>
<polygon fill="midnightblue" stroke="midnightblue" points="2583.25,-23.007 2592.49,-17.8225 2582.04,-16.1135 2583.25,-23.007"/>
</g>
<!-- Node6 -->
<g id="node6" class="node"><title>Node6</title>
<g id="a_node6"><a xlink:href="_ogre_std_headers_8h.html" target="_top" xlink:title="OgreStdHeaders.h">
<polygon fill="none" stroke="black" points="1371,-56.5 1371,-75.5 1469,-75.5 1469,-56.5 1371,-56.5"/>
<text text-anchor="middle" x="1420" y="-63.5" font-family="Helvetica,sans-Serif" font-size="10.00">OgreStdHeaders.h</text>
</a>
</g>
</g>
<!-- Node2&#45;&gt;Node6 -->
<g id="edge5" class="edge"><title>Node2&#45;&gt;Node6</title>
<path fill="none" stroke="midnightblue" d="M1060.64,-114.216C1137.14,-104.165 1280.2,-85.3683 1360.82,-74.7752"/>
<polygon fill="midnightblue" stroke="midnightblue" points="1361.36,-78.2353 1370.81,-73.4623 1360.44,-71.2949 1361.36,-78.2353"/>
</g>
<!-- Node36 -->
<g id="node36" class="node"><title>Node36</title>
<g id="a_node36"><a xlink:href="_ogre_memory_allocator_config_8h.html" target="_top" xlink:title="This file configures Ogre&#39;s memory allocators. ">
<polygon fill="none" stroke="red" points="512,-56.5 512,-75.5 660,-75.5 660,-56.5 512,-56.5"/>
<text text-anchor="middle" x="586" y="-63.5" font-family="Helvetica,sans-Serif" font-size="10.00">OgreMemoryAllocatorConfig.h</text>
</a>
</g>
</g>
<!-- Node2&#45;&gt;Node36 -->
<g id="edge36" class="edge"><title>Node2&#45;&gt;Node36</title>
<path fill="none" stroke="midnightblue" d="M957.132,-114.379C883.57,-104.988 748.412,-87.7335 663.089,-76.8411"/>
<polygon fill="midnightblue" stroke="midnightblue" points="663.301,-73.3399 652.938,-75.5453 662.414,-80.2835 663.301,-73.3399"/>
</g>
<!-- Node4 -->
<g id="node4" class="node"><title>Node4</title>
<g id="a_node4"><a xlink:href="_ogre_config_8h.html" target="_top" xlink:title="OgreConfig.h">
<polygon fill="none" stroke="red" points="2652,-0.5 2652,-19.5 2726,-19.5 2726,-0.5 2652,-0.5"/>
<text text-anchor="middle" x="2689" y="-7.5" font-family="Helvetica,sans-Serif" font-size="10.00">OgreConfig.h</text>
</a>
</g>
</g>
<!-- Node3&#45;&gt;Node4 -->
<g id="edge3" class="edge"><title>Node3&#45;&gt;Node4</title>
<path fill="none" stroke="midnightblue" d="M2448.79,-57.0943C2493.94,-48.5386 2568.28,-34.4116 2641.93,-20.1994"/>
<polygon fill="midnightblue" stroke="midnightblue" points="2642.69,-23.6178 2651.85,-18.2851 2641.36,-16.7447 2642.69,-23.6178"/>
</g>
<!-- Node6&#45;&gt;Node5 -->
<g id="edge15" class="edge"><title>Node6&#45;&gt;Node5</title>
<path fill="none" stroke="midnightblue" d="M1469.19,-64.7494C1658.91,-63.5309 2343.85,-56.7392 2582.19,-19.5995"/>
<polygon fill="midnightblue" stroke="midnightblue" points="2582.87,-23.0351 2592.18,-17.9802 2581.75,-16.1252 2582.87,-23.0351"/>
</g>
<!-- Node7 -->
<g id="node7" class="node"><title>Node7</title>
<polygon fill="none" stroke="#bfbfbf" points="1983.5,-0.5 1983.5,-19.5 2032.5,-19.5 2032.5,-0.5 1983.5,-0.5"/>
<text text-anchor="middle" x="2008" y="-7.5" font-family="Helvetica,sans-Serif" font-size="10.00">cassert</text>
</g>
<!-- Node6&#45;&gt;Node7 -->
<g id="edge6" class="edge"><title>Node6&#45;&gt;Node7</title>
<path fill="none" stroke="midnightblue" d="M1469.01,-64.0693C1564.56,-61.5978 1782.43,-52.7413 1973.31,-20.0093"/>
<polygon fill="midnightblue" stroke="midnightblue" points="1973.99,-23.4437 1983.25,-18.2803 1972.79,-16.5474 1973.99,-23.4437"/>
</g>
<!-- Node8 -->
<g id="node8" class="node"><title>Node8</title>
<polygon fill="none" stroke="#bfbfbf" points="2050.5,-0.5 2050.5,-19.5 2093.5,-19.5 2093.5,-0.5 2050.5,-0.5"/>
<text text-anchor="middle" x="2072" y="-7.5" font-family="Helvetica,sans-Serif" font-size="10.00">cstdio</text>
</g>
<!-- Node6&#45;&gt;Node8 -->
<g id="edge7" class="edge"><title>Node6&#45;&gt;Node8</title>
<path fill="none" stroke="midnightblue" d="M1469.25,-65.0845C1573.43,-64.4802 1823.7,-58.8907 2040.22,-19.9674"/>
<polygon fill="midnightblue" stroke="midnightblue" points="2040.97,-23.3884 2050.18,-18.149 2039.71,-16.5023 2040.97,-23.3884"/>
</g>
<!-- Node9 -->
<g id="node9" class="node"><title>Node9</title>
<polygon fill="none" stroke="#bfbfbf" points="2111.5,-0.5 2111.5,-19.5 2156.5,-19.5 2156.5,-0.5 2111.5,-0.5"/>
<text text-anchor="middle" x="2134" y="-7.5" font-family="Helvetica,sans-Serif" font-size="10.00">cstdlib</text>
</g>
<!-- Node6&#45;&gt;Node9 -->
<g id="edge8" class="edge"><title>Node6&#45;&gt;Node9</title>
<path fill="none" stroke="midnightblue" d="M1469.3,-65.3938C1580.75,-65.5045 1860.55,-61.4036 2101.45,-19.9081"/>
<polygon fill="midnightblue" stroke="midnightblue" points="2102.2,-23.3307 2111.45,-18.1609 2100.99,-16.4353 2102.2,-23.3307"/>
</g>
<!-- Node10 -->
<g id="node10" class="node"><title>Node10</title>
<polygon fill="none" stroke="#bfbfbf" points="2174.5,-0.5 2174.5,-19.5 2215.5,-19.5 2215.5,-0.5 2174.5,-0.5"/>
<text text-anchor="middle" x="2195" y="-7.5" font-family="Helvetica,sans-Serif" font-size="10.00">ctime</text>
</g>
<!-- Node6&#45;&gt;Node10 -->
<g id="edge9" class="edge"><title>Node6&#45;&gt;Node10</title>
<path fill="none" stroke="midnightblue" d="M1469.08,-63.5808C1609.64,-59.2776 2012.83,-45.2079 2164.21,-19.8638"/>
<polygon fill="midnightblue" stroke="midnightblue" points="2165,-23.2791 2174.24,-18.0989 2163.79,-16.385 2165,-23.2791"/>
</g>
<!-- Node11 -->
<g id="node11" class="node"><title>Node11</title>
<polygon fill="none" stroke="#bfbfbf" points="2234,-0.5 2234,-19.5 2280,-19.5 2280,-0.5 2234,-0.5"/>
<text text-anchor="middle" x="2257" y="-7.5" font-family="Helvetica,sans-Serif" font-size="10.00">cstring</text>
</g>
<!-- Node6&#45;&gt;Node11 -->
<g id="edge10" class="edge"><title>Node6&#45;&gt;Node11</title>
<path fill="none" stroke="midnightblue" d="M1469.12,-63.6597C1617.37,-59.3976 2059.65,-45.0348 2223.78,-19.7838"/>
<polygon fill="midnightblue" stroke="midnightblue" points="2224.4,-23.2288 2233.71,-18.1834 2223.29,-16.3179 2224.4,-23.2288"/>
</g>
<!-- Node12 -->
<g id="node12" class="node"><title>Node12</title>
<polygon fill="none" stroke="#bfbfbf" points="2298.5,-0.5 2298.5,-19.5 2347.5,-19.5 2347.5,-0.5 2298.5,-0.5"/>
<text text-anchor="middle" x="2323" y="-7.5" font-family="Helvetica,sans-Serif" font-size="10.00">cstdarg</text>
</g>
<!-- Node6&#45;&gt;Node12 -->
<g id="edge11" class="edge"><title>Node6&#45;&gt;Node12</title>
<path fill="none" stroke="midnightblue" d="M1469.04,-63.7965C1625.15,-59.7598 2110.16,-45.579 2288.23,-19.707"/>
<polygon fill="midnightblue" stroke="midnightblue" points="2288.88,-23.1475 2298.24,-18.1871 2287.83,-16.2267 2288.88,-23.1475"/>
</g>
<!-- Node13 -->
<g id="node13" class="node"><title>Node13</title>
<polygon fill="none" stroke="#bfbfbf" points="2366,-0.5 2366,-19.5 2410,-19.5 2410,-0.5 2366,-0.5"/>
<text text-anchor="middle" x="2388" y="-7.5" font-family="Helvetica,sans-Serif" font-size="10.00">cmath</text>
</g>
<!-- Node6&#45;&gt;Node13 -->
<g id="edge12" class="edge"><title>Node6&#45;&gt;Node13</title>
<path fill="none" stroke="midnightblue" d="M1469.06,-64.1615C1633.41,-61.1195 2164.49,-49.3449 2355.85,-19.7303"/>
<polygon fill="midnightblue" stroke="midnightblue" points="2356.48,-23.1743 2365.79,-18.1235 2355.36,-16.2639 2356.48,-23.1743"/>
</g>
<!-- Node14 -->
<g id="node14" class="node"><title>Node14</title>
<polygon fill="none" stroke="#bfbfbf" points="2428,-0.5 2428,-19.5 2472,-19.5 2472,-0.5 2428,-0.5"/>
<text text-anchor="middle" x="2450" y="-7.5" font-family="Helvetica,sans-Serif" font-size="10.00">vector</text>
</g>
<!-- Node6&#45;&gt;Node14 -->
<g id="edge13" class="edge"><title>Node6&#45;&gt;Node14</title>
<path fill="none" stroke="midnightblue" d="M1469.25,-64.3281C1640.99,-61.748 2213.6,-51.0942 2417.77,-19.7375"/>
<polygon fill="midnightblue" stroke="midnightblue" points="2418.47,-23.1698 2427.79,-18.1316 2417.37,-16.2579 2418.47,-23.1698"/>
</g>
<!-- Node15 -->
<g id="node15" class="node"><title>Node15</title>
<polygon fill="none" stroke="#bfbfbf" points="2490.5,-0.5 2490.5,-19.5 2525.5,-19.5 2525.5,-0.5 2490.5,-0.5"/>
<text text-anchor="middle" x="2508" y="-7.5" font-family="Helvetica,sans-Serif" font-size="10.00">map</text>
</g>
<!-- Node6&#45;&gt;Node15 -->
<g id="edge14" class="edge"><title>Node6&#45;&gt;Node15</title>
<path fill="none" stroke="midnightblue" d="M1469.19,-64.7316C1647.93,-63.4785 2263.37,-56.667 2480.44,-19.4241"/>
<polygon fill="midnightblue" stroke="midnightblue" points="2481.24,-22.8356 2490.47,-17.6275 2480.01,-15.9453 2481.24,-22.8356"/>
</g>
<!-- Node16 -->
<g id="node16" class="node"><title>Node16</title>
<polygon fill="none" stroke="#bfbfbf" points="2544,-0.5 2544,-19.5 2574,-19.5 2574,-0.5 2544,-0.5"/>
<text text-anchor="middle" x="2559" y="-7.5" font-family="Helvetica,sans-Serif" font-size="10.00">set</text>
</g>
<!-- Node6&#45;&gt;Node16 -->
<g id="edge16" class="edge"><title>Node6&#45;&gt;Node16</title>
<path fill="none" stroke="midnightblue" d="M1469.22,-63.9348C1665.95,-59.5549 2391.62,-42.1919 2534.05,-19.2649"/>
<polygon fill="midnightblue" stroke="midnightblue" points="2534.77,-22.693 2543.98,-17.4618 2533.51,-15.8057 2534.77,-22.693"/>
</g>
<!-- Node17 -->
<g id="node17" class="node"><title>Node17</title>
<polygon fill="none" stroke="#bfbfbf" points="442.5,-0.5 442.5,-19.5 471.5,-19.5 471.5,-0.5 442.5,-0.5"/>
<text text-anchor="middle" x="457" y="-7.5" font-family="Helvetica,sans-Serif" font-size="10.00">list</text>
</g>
<!-- Node6&#45;&gt;Node17 -->
<g id="edge17" class="edge"><title>Node6&#45;&gt;Node17</title>
<path fill="none" stroke="midnightblue" d="M1370.96,-64.7467C1206.07,-63.574 671.798,-57.088 481.744,-19.6652"/>
<polygon fill="midnightblue" stroke="midnightblue" points="482.379,-16.2224 471.877,-17.6265 480.962,-23.0776 482.379,-16.2224"/>
</g>
<!-- Node18 -->
<g id="node18" class="node"><title>Node18</title>
<polygon fill="none" stroke="#bfbfbf" points="489.5,-0.5 489.5,-19.5 532.5,-19.5 532.5,-0.5 489.5,-0.5"/>
<text text-anchor="middle" x="511" y="-7.5" font-family="Helvetica,sans-Serif" font-size="10.00">deque</text>
</g>
<!-- Node6&#45;&gt;Node18 -->
<g id="edge18" class="edge"><title>Node6&#45;&gt;Node18</title>
<path fill="none" stroke="midnightblue" d="M1370.92,-64.0382C1213.52,-60.7148 721.705,-48.4173 542.866,-19.884"/>
<polygon fill="midnightblue" stroke="midnightblue" points="543.25,-16.3996 532.81,-18.2038 542.096,-23.3039 543.25,-16.3996"/>
</g>
<!-- Node19 -->
<g id="node19" class="node"><title>Node19</title>
<polygon fill="none" stroke="#bfbfbf" points="550.5,-0.5 550.5,-19.5 593.5,-19.5 593.5,-0.5 550.5,-0.5"/>
<text text-anchor="middle" x="572" y="-7.5" font-family="Helvetica,sans-Serif" font-size="10.00">queue</text>
</g>
<!-- Node6&#45;&gt;Node19 -->
<g id="edge19" class="edge"><title>Node6&#45;&gt;Node19</title>
<path fill="none" stroke="midnightblue" d="M1370.88,-63.8204C1221,-59.9862 770.131,-46.6524 603.875,-19.8924"/>
<polygon fill="midnightblue" stroke="midnightblue" points="604.254,-16.4071 593.811,-18.1939 603.089,-23.3095 604.254,-16.4071"/>
</g>
<!-- Node20 -->
<g id="node20" class="node"><title>Node20</title>
<polygon fill="none" stroke="#bfbfbf" points="611.5,-0.5 611.5,-19.5 652.5,-19.5 652.5,-0.5 611.5,-0.5"/>
<text text-anchor="middle" x="632" y="-7.5" font-family="Helvetica,sans-Serif" font-size="10.00">bitset</text>
</g>
<!-- Node6&#45;&gt;Node20 -->
<g id="edge20" class="edge"><title>Node6&#45;&gt;Node20</title>
<path fill="none" stroke="midnightblue" d="M1370.92,-63.5748C1228.85,-59.219 818.047,-44.9422 662.795,-19.6003"/>
<polygon fill="midnightblue" stroke="midnightblue" points="662.953,-16.0762 652.505,-17.8359 661.77,-22.9755 662.953,-16.0762"/>
</g>
<!-- Node21 -->
<g id="node21" class="node"><title>Node21</title>
<polygon fill="none" stroke="#bfbfbf" points="671,-0.5 671,-19.5 727,-19.5 727,-0.5 671,-0.5"/>
<text text-anchor="middle" x="699" y="-7.5" font-family="Helvetica,sans-Serif" font-size="10.00">algorithm</text>
</g>
<!-- Node6&#45;&gt;Node21 -->
<g id="edge21" class="edge"><title>Node6&#45;&gt;Node21</title>
<path fill="none" stroke="midnightblue" d="M1370.75,-64.6713C1259.38,-63.3031 979.639,-56.3585 737.239,-19.9191"/>
<polygon fill="midnightblue" stroke="midnightblue" points="737.594,-16.4329 727.181,-18.3867 736.54,-23.3531 737.594,-16.4329"/>
</g>
<!-- Node22 -->
<g id="node22" class="node"><title>Node22</title>
<polygon fill="none" stroke="#bfbfbf" points="745.5,-0.5 745.5,-19.5 804.5,-19.5 804.5,-0.5 745.5,-0.5"/>
<text text-anchor="middle" x="775" y="-7.5" font-family="Helvetica,sans-Serif" font-size="10.00">functional</text>
</g>
<!-- Node6&#45;&gt;Node22 -->
<g id="edge22" class="edge"><title>Node6&#45;&gt;Node22</title>
<path fill="none" stroke="midnightblue" d="M1370.62,-63.8841C1268.57,-61.0276 1026.93,-51.4196 814.799,-19.8699"/>
<polygon fill="midnightblue" stroke="midnightblue" points="815.13,-16.3804 804.72,-18.3509 814.087,-23.3023 815.13,-16.3804"/>
</g>
<!-- Node23 -->
<g id="node23" class="node"><title>Node23</title>
<polygon fill="none" stroke="#bfbfbf" points="823,-0.5 823,-19.5 863,-19.5 863,-0.5 823,-0.5"/>
<text text-anchor="middle" x="843" y="-7.5" font-family="Helvetica,sans-Serif" font-size="10.00">limits</text>
</g>
<!-- Node6&#45;&gt;Node23 -->
<g id="edge23" class="edge"><title>Node6&#45;&gt;Node23</title>
<path fill="none" stroke="midnightblue" d="M1370.76,-64.5537C1275.9,-62.9186 1061.29,-55.4578 873.207,-19.8087"/>
<polygon fill="midnightblue" stroke="midnightblue" points="873.619,-16.3238 863.137,-17.868 872.294,-23.1973 873.619,-16.3238"/>
</g>
<!-- Node24 -->
<g id="node24" class="node"><title>Node24</title>
<polygon fill="none" stroke="#bfbfbf" points="881,-0.5 881,-19.5 931,-19.5 931,-0.5 881,-0.5"/>
<text text-anchor="middle" x="906" y="-7.5" font-family="Helvetica,sans-Serif" font-size="10.00">fstream</text>
</g>
<!-- Node6&#45;&gt;Node24 -->
<g id="edge24" class="edge"><title>Node6&#45;&gt;Node24</title>
<path fill="none" stroke="midnightblue" d="M1370.92,-63.0779C1285.44,-59.1481 1103.61,-48.2149 941.315,-19.9506"/>
<polygon fill="midnightblue" stroke="midnightblue" points="941.604,-16.4476 931.148,-18.1524 940.385,-23.3406 941.604,-16.4476"/>
</g>
<!-- Node25 -->
<g id="node25" class="node"><title>Node25</title>
<polygon fill="none" stroke="#bfbfbf" points="949.5,-0.5 949.5,-19.5 994.5,-19.5 994.5,-0.5 949.5,-0.5"/>
<text text-anchor="middle" x="972" y="-7.5" font-family="Helvetica,sans-Serif" font-size="10.00">iosfwd</text>
</g>
<!-- Node6&#45;&gt;Node25 -->
<g id="edge25" class="edge"><title>Node6&#45;&gt;Node25</title>
<path fill="none" stroke="midnightblue" d="M1370.93,-62.3439C1294.56,-57.6307 1142.57,-45.9352 1004.53,-19.7716"/>
<polygon fill="midnightblue" stroke="midnightblue" points="1005.1,-16.3167 994.614,-17.8627 1003.77,-23.1904 1005.1,-16.3167"/>
</g>
<!-- Node26 -->
<g id="node26" class="node"><title>Node26</title>
<polygon fill="none" stroke="#bfbfbf" points="1013,-0.5 1013,-19.5 1065,-19.5 1065,-0.5 1013,-0.5"/>
<text text-anchor="middle" x="1039" y="-7.5" font-family="Helvetica,sans-Serif" font-size="10.00">sstream</text>
</g>
<!-- Node6&#45;&gt;Node26 -->
<g id="edge26" class="edge"><title>Node6&#45;&gt;Node26</title>
<path fill="none" stroke="midnightblue" d="M1370.99,-60.5335C1305.65,-54.1574 1186.24,-41.0433 1075.31,-20.0516"/>
<polygon fill="midnightblue" stroke="midnightblue" points="1075.78,-16.5765 1065.3,-18.1294 1074.46,-23.4511 1075.78,-16.5765"/>
</g>
<!-- Node27 -->
<g id="node27" class="node"><title>Node27</title>
<polygon fill="none" stroke="#bfbfbf" points="1083,-0.5 1083,-19.5 1151,-19.5 1151,-0.5 1083,-0.5"/>
<text text-anchor="middle" x="1117" y="-7.5" font-family="Helvetica,sans-Serif" font-size="10.00">sys/types.h</text>
</g>
<!-- Node6&#45;&gt;Node27 -->
<g id="edge27" class="edge"><title>Node6&#45;&gt;Node27</title>
<path fill="none" stroke="midnightblue" d="M1370.55,-56.969C1320.32,-48.6939 1240.04,-35.1437 1161.33,-20.2045"/>
<polygon fill="midnightblue" stroke="midnightblue" points="1161.72,-16.716 1151.25,-18.2803 1160.41,-23.592 1161.72,-16.716"/>
</g>
<!-- Node28 -->
<g id="node28" class="node"><title>Node28</title>
<polygon fill="none" stroke="#bfbfbf" points="1169,-0.5 1169,-19.5 1229,-19.5 1229,-0.5 1169,-0.5"/>
<text text-anchor="middle" x="1199" y="-7.5" font-family="Helvetica,sans-Serif" font-size="10.00">sys/stat.h</text>
</g>
<!-- Node6&#45;&gt;Node28 -->
<g id="edge28" class="edge"><title>Node6&#45;&gt;Node28</title>
<path fill="none" stroke="midnightblue" d="M1384.98,-56.4435C1345.29,-46.7452 1280.71,-30.9654 1239.05,-20.7857"/>
<polygon fill="midnightblue" stroke="midnightblue" points="1239.78,-17.3621 1229.24,-18.3884 1238.12,-24.1621 1239.78,-17.3621"/>
</g>
<!-- Node29 -->
<g id="node29" class="node"><title>Node29</title>
<polygon fill="none" stroke="#bfbfbf" points="1247.5,-0.5 1247.5,-19.5 1298.5,-19.5 1298.5,-0.5 1247.5,-0.5"/>
<text text-anchor="middle" x="1273" y="-7.5" font-family="Helvetica,sans-Serif" font-size="10.00">unistd.h</text>
</g>
<!-- Node6&#45;&gt;Node29 -->
<g id="edge29" class="edge"><title>Node6&#45;&gt;Node29</title>
<path fill="none" stroke="midnightblue" d="M1396.71,-56.4435C1372.19,-47.4381 1333.4,-33.1891 1305.8,-23.049"/>
<polygon fill="midnightblue" stroke="midnightblue" points="1306.78,-19.6793 1296.18,-19.5164 1304.36,-26.25 1306.78,-19.6793"/>
</g>
<!-- Node30 -->
<g id="node30" class="node"><title>Node30</title>
<polygon fill="none" stroke="#bfbfbf" points="1317,-0.5 1317,-19.5 1363,-19.5 1363,-0.5 1317,-0.5"/>
<text text-anchor="middle" x="1340" y="-7.5" font-family="Helvetica,sans-Serif" font-size="10.00">dlfcn.h</text>
</g>
<!-- Node6&#45;&gt;Node30 -->
<g id="edge30" class="edge"><title>Node6&#45;&gt;Node30</title>
<path fill="none" stroke="midnightblue" d="M1407.15,-56.324C1394.78,-47.979 1375.87,-35.2122 1361.26,-25.3524"/>
<polygon fill="midnightblue" stroke="midnightblue" points="1363.07,-22.3483 1352.82,-19.6545 1359.15,-28.1503 1363.07,-22.3483"/>
</g>
<!-- Node31 -->
<g id="node31" class="node"><title>Node31</title>
<polygon fill="none" stroke="#bfbfbf" points="1381,-0.5 1381,-19.5 1459,-19.5 1459,-0.5 1381,-0.5"/>
<text text-anchor="middle" x="1420" y="-7.5" font-family="Helvetica,sans-Serif" font-size="10.00">ext/hash_map</text>
</g>
<!-- Node6&#45;&gt;Node31 -->
<g id="edge31" class="edge"><title>Node6&#45;&gt;Node31</title>
<path fill="none" stroke="midnightblue" d="M1420,-56.083C1420,-49.0059 1420,-38.8611 1420,-29.9865"/>
<polygon fill="midnightblue" stroke="midnightblue" points="1423.5,-29.751 1420,-19.7511 1416.5,-29.7511 1423.5,-29.751"/>
</g>
<!-- Node32 -->
<g id="node32" class="node"><title>Node32</title>
<polygon fill="none" stroke="#bfbfbf" points="1477.5,-0.5 1477.5,-19.5 1550.5,-19.5 1550.5,-0.5 1477.5,-0.5"/>
<text text-anchor="middle" x="1514" y="-7.5" font-family="Helvetica,sans-Serif" font-size="10.00">ext/hash_set</text>
</g>
<!-- Node6&#45;&gt;Node32 -->
<g id="edge32" class="edge"><title>Node6&#45;&gt;Node32</title>
<path fill="none" stroke="midnightblue" d="M1435.1,-56.324C1449.9,-47.8215 1472.69,-34.7288 1489.98,-24.7975"/>
<polygon fill="midnightblue" stroke="midnightblue" points="1492.01,-27.6707 1498.93,-19.6545 1488.52,-21.6009 1492.01,-27.6707"/>
</g>
<!-- Node33 -->
<g id="node33" class="node"><title>Node33</title>
<polygon fill="none" stroke="#bfbfbf" points="1568.5,-0.5 1568.5,-19.5 1639.5,-19.5 1639.5,-0.5 1568.5,-0.5"/>
<text text-anchor="middle" x="1604" y="-7.5" font-family="Helvetica,sans-Serif" font-size="10.00">sys/param.h</text>
</g>
<!-- Node6&#45;&gt;Node33 -->
<g id="edge33" class="edge"><title>Node6&#45;&gt;Node33</title>
<path fill="none" stroke="midnightblue" d="M1449.16,-56.4435C1480.51,-47.2406 1530.53,-32.5617 1565.2,-22.3879"/>
<polygon fill="midnightblue" stroke="midnightblue" points="1566.37,-25.6909 1574.98,-19.5164 1564.4,-18.9742 1566.37,-25.6909"/>
</g>
<!-- Node34 -->
<g id="node34" class="node"><title>Node34</title>
<polygon fill="none" stroke="#bfbfbf" points="1658,-0.5 1658,-19.5 1824,-19.5 1824,-0.5 1658,-0.5"/>
<text text-anchor="middle" x="1741" y="-7.5" font-family="Helvetica,sans-Serif" font-size="10.00">CoreFoundation/CoreFoundation.h</text>
</g>
<!-- Node6&#45;&gt;Node34 -->
<g id="edge34" class="edge"><title>Node6&#45;&gt;Node34</title>
<path fill="none" stroke="midnightblue" d="M1469.1,-56.7398C1525.83,-47.1962 1619.2,-31.489 1680.4,-21.1939"/>
<polygon fill="midnightblue" stroke="midnightblue" points="1681.03,-24.6373 1690.31,-19.5268 1679.87,-17.7343 1681.03,-24.6373"/>
</g>
<!-- Node35 -->
<g id="node35" class="node"><title>Node35</title>
<polygon fill="none" stroke="#bfbfbf" points="1842,-0.5 1842,-19.5 1966,-19.5 1966,-0.5 1842,-0.5"/>
<text text-anchor="middle" x="1904" y="-7.5" font-family="Helvetica,sans-Serif" font-size="10.00">emscripten/emscripten.h</text>
</g>
<!-- Node6&#45;&gt;Node35 -->
<g id="edge35" class="edge"><title>Node6&#45;&gt;Node35</title>
<path fill="none" stroke="midnightblue" d="M1469.3,-59.911C1544.88,-52.0469 1694.22,-36.2642 1831.4,-20.1724"/>
<polygon fill="midnightblue" stroke="midnightblue" points="1832.15,-23.6082 1841.67,-18.9639 1831.33,-16.6562 1832.15,-23.6082"/>
</g>
<!-- Node36&#45;&gt;Node37 -->
<g id="edge37" class="edge"><title>Node36&#45;&gt;Node37</title>
<path fill="none" stroke="midnightblue" d="M527.689,-56.4435C460.026,-46.5147 348.926,-30.212 279.807,-20.0696"/>
<polygon fill="midnightblue" stroke="midnightblue" points="279.909,-16.547 269.506,-18.558 278.892,-23.4728 279.909,-16.547"/>
</g>
<!-- Node36&#45;&gt;Node38 -->
<g id="edge38" class="edge"><title>Node36&#45;&gt;Node38</title>
<path fill="none" stroke="midnightblue" d="M552.25,-56.4435C515.482,-47.1221 456.554,-32.1828 416.378,-21.9972"/>
<polygon fill="midnightblue" stroke="midnightblue" points="417.146,-18.5813 406.593,-19.5164 415.426,-25.3666 417.146,-18.5813"/>
</g>
<!-- Node39&#45;&gt;Node2 -->
<g id="edge40" class="edge"><title>Node39&#45;&gt;Node2</title>
<path fill="none" stroke="midnightblue" d="M481.837,-280.443C546.582,-264.961 684.581,-229.98 797,-188 816.745,-180.627 820.185,-175.184 840,-168 879.191,-153.792 924.955,-141.88 958.968,-133.889"/>
<polygon fill="midnightblue" stroke="midnightblue" points="960.174,-137.202 969.127,-131.536 958.595,-130.383 960.174,-137.202"/>
</g>
<!-- Node39&#45;&gt;Node37 -->
<g id="edge58" class="edge"><title>Node39&#45;&gt;Node37</title>
<path fill="none" stroke="midnightblue" d="M384.946,-285.262C271.732,-276.561 38,-249.999 38,-179 38,-179 38,-179 38,-121 38,-90.2048 39.4458,-76.9679 62,-56 87.4277,-32.3607 124.499,-21.0517 156.124,-15.6802"/>
<polygon fill="midnightblue" stroke="midnightblue" points="156.826,-19.1136 166.179,-14.1367 155.764,-12.1946 156.826,-19.1136"/>
</g>
<!-- Node39&#45;&gt;Node38 -->
<g id="edge59" class="edge"><title>Node39&#45;&gt;Node38</title>
<path fill="none" stroke="midnightblue" d="M410.736,-280.44C366.184,-267.016 294,-236.408 294,-179 294,-179 294,-179 294,-121 294,-80.7945 329.248,-45.221 352.656,-26.0304"/>
<polygon fill="midnightblue" stroke="midnightblue" points="354.97,-28.6628 360.656,-19.7232 350.636,-23.1655 354.97,-28.6628"/>
</g>
<!-- Node40 -->
<g id="node40" class="node"><title>Node40</title>
<g id="a_node40"><a xlink:href="_ogre_common_8h.html" target="_top" xlink:title="OgreCommon.h">
<polygon fill="none" stroke="black" points="104,-56.5 104,-75.5 190,-75.5 190,-56.5 104,-56.5"/>
<text text-anchor="middle" x="147" y="-63.5" font-family="Helvetica,sans-Serif" font-size="10.00">OgreCommon.h</text>
</a>
</g>
</g>
<!-- Node39&#45;&gt;Node40 -->
<g id="edge41" class="edge"><title>Node39&#45;&gt;Node40</title>
<path fill="none" stroke="midnightblue" d="M384.908,-282.298C351.731,-276.329 311.078,-265.094 280,-244 217.766,-201.759 172.963,-120.675 155.306,-84.8123"/>
<polygon fill="midnightblue" stroke="midnightblue" points="158.364,-83.0942 150.88,-75.5946 152.053,-86.1242 158.364,-83.0942"/>
</g>
<!-- Node41 -->
<g id="node41" class="node"><title>Node41</title>
<g id="a_node41"><a xlink:href="_ogre_blend_mode_8h.html" target="_top" xlink:title="OgreBlendMode.h">
<polygon fill="none" stroke="red" points="849.5,-168.5 849.5,-187.5 944.5,-187.5 944.5,-168.5 849.5,-168.5"/>
<text text-anchor="middle" x="897" y="-175.5" font-family="Helvetica,sans-Serif" font-size="10.00">OgreBlendMode.h</text>
</a>
</g>
</g>
<!-- Node39&#45;&gt;Node41 -->
<g id="edge44" class="edge"><title>Node39&#45;&gt;Node41</title>
<path fill="none" stroke="midnightblue" d="M505.023,-286.694C571.26,-282.78 680.36,-272.252 770,-244 780.527,-240.682 837.961,-210.474 871.881,-192.429"/>
<polygon fill="midnightblue" stroke="midnightblue" points="873.586,-195.486 880.766,-187.695 870.294,-189.309 873.586,-195.486"/>
</g>
<!-- Node42 -->
<g id="node42" class="node"><title>Node42</title>
<g id="a_node42"><a xlink:href="_ogre_matrix4_8h.html" target="_top" xlink:title="OgreMatrix4.h">
<polygon fill="none" stroke="red" points="455,-224.5 455,-243.5 533,-243.5 533,-224.5 455,-224.5"/>
<text text-anchor="middle" x="494" y="-231.5" font-family="Helvetica,sans-Serif" font-size="10.00">OgreMatrix4.h</text>
</a>
</g>
</g>
<!-- Node39&#45;&gt;Node42 -->
<g id="edge46" class="edge"><title>Node39&#45;&gt;Node42</title>
<path fill="none" stroke="midnightblue" d="M453.091,-280.083C460.155,-272.298 470.588,-260.801 479.149,-251.367"/>
<polygon fill="midnightblue" stroke="midnightblue" points="481.931,-253.509 486.059,-243.751 476.747,-248.805 481.931,-253.509"/>
</g>
<!-- Node43 -->
<g id="node43" class="node"><title>Node43</title>
<g id="a_node43"><a xlink:href="_ogre_texture_8h.html" target="_top" xlink:title="OgreTexture.h">
<polygon fill="none" stroke="red" points="357.5,-224.5 357.5,-243.5 436.5,-243.5 436.5,-224.5 357.5,-224.5"/>
<text text-anchor="middle" x="397" y="-231.5" font-family="Helvetica,sans-Serif" font-size="10.00">OgreTexture.h</text>
</a>
</g>
</g>
<!-- Node39&#45;&gt;Node43 -->
<g id="edge48" class="edge"><title>Node39&#45;&gt;Node43</title>
<path fill="none" stroke="midnightblue" d="M437.074,-280.083C430.154,-272.298 419.935,-260.801 411.548,-251.367"/>
<polygon fill="midnightblue" stroke="midnightblue" points="414.038,-248.9 404.779,-243.751 408.806,-253.55 414.038,-248.9"/>
</g>
<!-- Node40&#45;&gt;Node37 -->
<g id="edge42" class="edge"><title>Node40&#45;&gt;Node37</title>
<path fill="none" stroke="midnightblue" d="M158.407,-56.324C169.109,-48.1849 185.341,-35.8395 198.163,-26.0874"/>
<polygon fill="midnightblue" stroke="midnightblue" points="200.544,-28.6734 206.385,-19.8339 196.307,-23.1018 200.544,-28.6734"/>
</g>
<!-- Node40&#45;&gt;Node38 -->
<g id="edge43" class="edge"><title>Node40&#45;&gt;Node38</title>
<path fill="none" stroke="midnightblue" d="M182.81,-56.4435C221.988,-47.0826 284.877,-32.0561 327.515,-21.868"/>
<polygon fill="midnightblue" stroke="midnightblue" points="328.444,-25.2446 337.357,-19.5164 326.818,-18.4363 328.444,-25.2446"/>
</g>
<!-- Node41&#45;&gt;Node2 -->
<g id="edge45" class="edge"><title>Node41&#45;&gt;Node2</title>
<path fill="none" stroke="midnightblue" d="M914.995,-168.324C933.038,-159.625 961.047,-146.12 981.803,-136.113"/>
<polygon fill="midnightblue" stroke="midnightblue" points="983.562,-139.15 991.05,-131.655 980.522,-132.845 983.562,-139.15"/>
</g>
<!-- Node42&#45;&gt;Node2 -->
<g id="edge47" class="edge"><title>Node42&#45;&gt;Node2</title>
<path fill="none" stroke="midnightblue" d="M533.24,-229.149C585.521,-223.385 680.55,-210.686 759,-188 781.201,-181.58 784.969,-174.984 807,-168 854.045,-153.086 908.76,-141.221 949.37,-133.427"/>
<polygon fill="midnightblue" stroke="midnightblue" points="950.203,-136.832 959.378,-131.534 948.901,-129.954 950.203,-136.832"/>
</g>
<!-- Node43&#45;&gt;Node2 -->
<g id="edge49" class="edge"><title>Node43&#45;&gt;Node2</title>
<path fill="none" stroke="midnightblue" d="M436.55,-225.549C439.743,-225.004 442.924,-224.481 446,-224 569.529,-204.7 606.719,-228.517 725,-188 741.586,-182.319 742.561,-174.092 759,-168 820.834,-145.084 895.728,-133.586 947.328,-127.985"/>
<polygon fill="midnightblue" stroke="midnightblue" points="947.744,-131.461 957.327,-126.942 947.018,-124.499 947.744,-131.461"/>
</g>
<!-- Node43&#45;&gt;Node37 -->
<g id="edge54" class="edge"><title>Node43&#45;&gt;Node37</title>
<path fill="none" stroke="midnightblue" d="M389.983,-224.297C363.199,-191.079 267.118,-71.9179 231.452,-27.6839"/>
<polygon fill="midnightblue" stroke="midnightblue" points="234.165,-25.4715 225.163,-19.8837 228.715,-29.8654 234.165,-25.4715"/>
</g>
<!-- Node43&#45;&gt;Node38 -->
<g id="edge57" class="edge"><title>Node43&#45;&gt;Node38</title>
<path fill="none" stroke="midnightblue" d="M396.059,-224.297C392.528,-191.633 380.013,-75.8661 375.049,-29.9573"/>
<polygon fill="midnightblue" stroke="midnightblue" points="378.515,-29.4496 373.96,-19.8837 371.556,-30.202 378.515,-29.4496"/>
</g>
<!-- Node44 -->
<g id="node44" class="node"><title>Node44</title>
<g id="a_node44"><a xlink:href="_ogre_resource_8h.html" target="_top" xlink:title="OgreResource.h">
<polygon fill="none" stroke="red" points="425,-168.5 425,-187.5 513,-187.5 513,-168.5 425,-168.5"/>
<text text-anchor="middle" x="469" y="-175.5" font-family="Helvetica,sans-Serif" font-size="10.00">OgreResource.h</text>
</a>
</g>
</g>
<!-- Node43&#45;&gt;Node44 -->
<g id="edge50" class="edge"><title>Node43&#45;&gt;Node44</title>
<path fill="none" stroke="midnightblue" d="M408.568,-224.324C419.42,-216.185 435.881,-203.839 448.883,-194.087"/>
<polygon fill="midnightblue" stroke="midnightblue" points="451.321,-196.634 457.221,-187.834 447.121,-191.034 451.321,-196.634"/>
</g>
<!-- Node45 -->
<g id="node45" class="node"><title>Node45</title>
<g id="a_node45"><a xlink:href="_ogre_shared_ptr_8h.html" target="_top" xlink:title="OgreSharedPtr.h">
<polygon fill="none" stroke="red" points="1001.5,-168.5 1001.5,-187.5 1090.5,-187.5 1090.5,-168.5 1001.5,-168.5"/>
<text text-anchor="middle" x="1046" y="-175.5" font-family="Helvetica,sans-Serif" font-size="10.00">OgreSharedPtr.h</text>
</a>
</g>
</g>
<!-- Node43&#45;&gt;Node45 -->
<g id="edge55" class="edge"><title>Node43&#45;&gt;Node45</title>
<path fill="none" stroke="midnightblue" d="M436.522,-225.353C439.722,-224.852 442.911,-224.392 446,-224 670.102,-195.552 727.89,-206.881 953,-188 965.25,-186.973 978.396,-185.765 990.836,-184.573"/>
<polygon fill="midnightblue" stroke="midnightblue" points="991.467,-188.029 1001.08,-183.581 990.792,-181.061 991.467,-188.029"/>
</g>
<!-- Node44&#45;&gt;Node2 -->
<g id="edge51" class="edge"><title>Node44&#45;&gt;Node2</title>
<path fill="none" stroke="midnightblue" d="M513.19,-172.581C609.186,-162.981 836.975,-140.203 947.173,-129.183"/>
<polygon fill="midnightblue" stroke="midnightblue" points="947.54,-132.664 957.142,-128.186 946.843,-125.698 947.54,-132.664"/>
</g>
<!-- Node44&#45;&gt;Node37 -->
<g id="edge52" class="edge"><title>Node44&#45;&gt;Node37</title>
<path fill="none" stroke="midnightblue" d="M455.859,-168.309C415.026,-141.304 290.075,-58.667 239.544,-25.2479"/>
<polygon fill="midnightblue" stroke="midnightblue" points="241.283,-22.2021 231.011,-19.6051 237.422,-28.0408 241.283,-22.2021"/>
</g>
<!-- Node44&#45;&gt;Node38 -->
<g id="edge53" class="edge"><title>Node44&#45;&gt;Node38</title>
<path fill="none" stroke="midnightblue" d="M467.108,-168.446C462.237,-147.727 447.801,-93.778 422,-56 414.241,-44.6396 403.095,-34.109 393.393,-26.0954"/>
<polygon fill="midnightblue" stroke="midnightblue" points="395.375,-23.2008 385.36,-19.7434 391.033,-28.6915 395.375,-23.2008"/>
</g>
<!-- Node45&#45;&gt;Node2 -->
<g id="edge56" class="edge"><title>Node45&#45;&gt;Node2</title>
<path fill="none" stroke="midnightblue" d="M1039.89,-168.083C1034.72,-160.534 1027.15,-149.495 1020.81,-140.23"/>
<polygon fill="midnightblue" stroke="midnightblue" points="1023.54,-138.022 1015,-131.751 1017.76,-141.979 1023.54,-138.022"/>
</g>
<!-- Node46&#45;&gt;Node2 -->
<g id="edge61" class="edge"><title>Node46&#45;&gt;Node2</title>
<path fill="none" stroke="midnightblue" d="M745.656,-286.97C847.936,-282.385 1075.61,-269.578 1149,-244 1192.42,-228.866 1213.98,-228.367 1236,-188 1240.26,-180.197 1241.64,-174.869 1236,-168 1215.42,-142.942 1130.55,-131.593 1070.64,-126.628"/>
<polygon fill="midnightblue" stroke="midnightblue" points="1070.76,-123.126 1060.51,-125.828 1070.2,-130.104 1070.76,-123.126"/>
</g>
<!-- Node46&#45;&gt;Node37 -->
<g id="edge68" class="edge"><title>Node46&#45;&gt;Node37</title>
<path fill="none" stroke="midnightblue" d="M644.227,-285.261C561.406,-278.688 401.135,-263.853 348,-244 221.56,-196.758 158.799,-194.948 95,-76 78.9139,-46.0087 117.801,-29.3405 156.017,-20.415"/>
<polygon fill="midnightblue" stroke="midnightblue" points="157.177,-23.7449 166.207,-18.2037 155.692,-16.9042 157.177,-23.7449"/>
</g>
<!-- Node46&#45;&gt;Node38 -->
<g id="edge72" class="edge"><title>Node46&#45;&gt;Node38</title>
<path fill="none" stroke="midnightblue" d="M686.105,-280.295C670.141,-263.972 637.16,-226.892 625,-188 611.802,-145.786 664.202,-97.1508 669,-76 670.966,-67.3313 674.794,-62.7412 669,-56 668.522,-55.4438 521.404,-33.2766 434.784,-20.2669"/>
<polygon fill="midnightblue" stroke="midnightblue" points="435.201,-16.7904 424.792,-18.7666 434.161,-23.7128 435.201,-16.7904"/>
</g>
<!-- Node46&#45;&gt;Node44 -->
<g id="edge62" class="edge"><title>Node46&#45;&gt;Node44</title>
<path fill="none" stroke="midnightblue" d="M671.89,-280.493C649.381,-271.988 614.362,-258.167 585,-244 551.742,-227.953 514.756,-206.582 491.686,-192.805"/>
<polygon fill="midnightblue" stroke="midnightblue" points="493.363,-189.73 482.989,-187.577 489.756,-195.729 493.363,-189.73"/>
</g>
<!-- Node46&#45;&gt;Node45 -->
<g id="edge71" class="edge"><title>Node46&#45;&gt;Node45</title>
<path fill="none" stroke="midnightblue" d="M745.709,-288.135C801.675,-285.489 893.318,-276.071 965,-244 991.068,-232.337 1015.89,-210.224 1031.02,-195.056"/>
<polygon fill="midnightblue" stroke="midnightblue" points="1033.56,-197.465 1038.01,-187.85 1028.54,-192.592 1033.56,-197.465"/>
</g>
<!-- Node47 -->
<g id="node47" class="node"><title>Node47</title>
<g id="a_node47"><a xlink:href="_ogre_gpu_program_params_8h.html" target="_top" xlink:title="OgreGpuProgramParams.h">
<polygon fill="none" stroke="red" points="822,-224.5 822,-243.5 956,-243.5 956,-224.5 822,-224.5"/>
<text text-anchor="middle" x="889" y="-231.5" font-family="Helvetica,sans-Serif" font-size="10.00">OgreGpuProgramParams.h</text>
</a>
</g>
</g>
<!-- Node46&#45;&gt;Node47 -->
<g id="edge63" class="edge"><title>Node46&#45;&gt;Node47</title>
<path fill="none" stroke="midnightblue" d="M725.74,-280.444C758.944,-271.201 811.991,-256.436 848.557,-246.257"/>
<polygon fill="midnightblue" stroke="midnightblue" points="849.709,-249.57 858.404,-243.516 847.832,-242.826 849.709,-249.57"/>
</g>
<!-- Node48 -->
<g id="node48" class="node"><title>Node48</title>
<g id="a_node48"><a xlink:href="_ogre_vector3_8h.html" target="_top" xlink:title="OgreVector3.h">
<polygon fill="none" stroke="red" points="1147,-168.5 1147,-187.5 1227,-187.5 1227,-168.5 1147,-168.5"/>
<text text-anchor="middle" x="1187" y="-175.5" font-family="Helvetica,sans-Serif" font-size="10.00">OgreVector3.h</text>
</a>
</g>
</g>
<!-- Node46&#45;&gt;Node48 -->
<g id="edge69" class="edge"><title>Node46&#45;&gt;Node48</title>
<path fill="none" stroke="midnightblue" d="M745.623,-287.807C843.677,-284.825 1055.61,-274.904 1121,-244 1143.85,-233.2 1163.52,-211.164 1175.3,-195.758"/>
<polygon fill="midnightblue" stroke="midnightblue" points="1178.2,-197.722 1181.29,-187.588 1172.55,-193.583 1178.2,-197.722"/>
</g>
<!-- Node47&#45;&gt;Node2 -->
<g id="edge64" class="edge"><title>Node47&#45;&gt;Node2</title>
<path fill="none" stroke="midnightblue" d="M903.221,-224.44C916.707,-216.001 937.198,-202.32 953,-188 969.478,-173.067 985.783,-153.444 996.512,-139.681"/>
<polygon fill="midnightblue" stroke="midnightblue" points="999.405,-141.659 1002.7,-131.591 993.846,-137.405 999.405,-141.659"/>
</g>
<!-- Node47&#45;&gt;Node37 -->
<g id="edge66" class="edge"><title>Node47&#45;&gt;Node37</title>
<path fill="none" stroke="midnightblue" d="M821.799,-226.085C767.827,-219.454 690.502,-207.513 625,-188 547.456,-164.9 323.222,-60.5761 245.17,-23.8443"/>
<polygon fill="midnightblue" stroke="midnightblue" points="246.519,-20.6106 235.981,-19.5139 243.535,-26.9428 246.519,-20.6106"/>
</g>
<!-- Node47&#45;&gt;Node38 -->
<g id="edge67" class="edge"><title>Node47&#45;&gt;Node38</title>
<path fill="none" stroke="midnightblue" d="M821.721,-230.496C754.945,-226.428 659.279,-215.785 636,-188 593.876,-137.723 745.195,-105.36 702,-56 664.145,-12.741 508.324,-26.9381 434.912,-19.9956"/>
<polygon fill="midnightblue" stroke="midnightblue" points="435.04,-16.487 424.703,-18.8086 434.232,-23.4402 435.04,-16.487"/>
</g>
<!-- Node47&#45;&gt;Node45 -->
<g id="edge65" class="edge"><title>Node47&#45;&gt;Node45</title>
<path fill="none" stroke="midnightblue" d="M913.877,-224.444C940.289,-215.359 982.215,-200.939 1011.74,-190.783"/>
<polygon fill="midnightblue" stroke="midnightblue" points="1012.92,-194.079 1021.24,-187.516 1010.64,-187.459 1012.92,-194.079"/>
</g>
<!-- Node48&#45;&gt;Node2 -->
<g id="edge70" class="edge"><title>Node48&#45;&gt;Node2</title>
<path fill="none" stroke="midnightblue" d="M1158.8,-168.444C1128.59,-159.28 1080.49,-144.688 1046.97,-134.519"/>
<polygon fill="midnightblue" stroke="midnightblue" points="1047.66,-131.07 1037.07,-131.516 1045.63,-137.769 1047.66,-131.07"/>
</g>
<!-- Node49&#45;&gt;Node2 -->
<g id="edge74" class="edge"><title>Node49&#45;&gt;Node2</title>
<path fill="none" stroke="midnightblue" d="M1073.1,-224.472C1088,-211.94 1111.29,-187.882 1099,-168 1089.33,-152.348 1072.38,-141.958 1055.78,-135.15"/>
<polygon fill="midnightblue" stroke="midnightblue" points="1056.69,-131.756 1046.1,-131.542 1054.25,-138.315 1056.69,-131.756"/>
</g>
<!-- Node49&#45;&gt;Node45 -->
<g id="edge75" class="edge"><title>Node49&#45;&gt;Node45</title>
<path fill="none" stroke="midnightblue" d="M1059.36,-224.083C1057.21,-216.849 1054.12,-206.409 1051.45,-197.397"/>
<polygon fill="midnightblue" stroke="midnightblue" points="1054.79,-196.345 1048.59,-187.751 1048.08,-198.333 1054.79,-196.345"/>
</g>
<!-- Node50 -->
<g id="node50" class="node"><title>Node50</title>
<g id="a_node50"><a xlink:href="_ogre_string_8h.html" target="_top" xlink:title="OgreString.h">
<polygon fill="none" stroke="black" points="645.5,-168.5 645.5,-187.5 716.5,-187.5 716.5,-168.5 645.5,-168.5"/>
<text text-anchor="middle" x="681" y="-175.5" font-family="Helvetica,sans-Serif" font-size="10.00">OgreString.h</text>
</a>
</g>
</g>
<!-- Node49&#45;&gt;Node50 -->
<g id="edge76" class="edge"><title>Node49&#45;&gt;Node50</title>
<path fill="none" stroke="midnightblue" d="M1011.8,-225.885C937.265,-215.321 798.433,-195.644 726.632,-185.468"/>
<polygon fill="midnightblue" stroke="midnightblue" points="726.933,-181.975 716.541,-184.037 725.951,-188.906 726.933,-181.975"/>
</g>
<!-- Node50&#45;&gt;Node2 -->
<g id="edge77" class="edge"><title>Node50&#45;&gt;Node2</title>
<path fill="none" stroke="midnightblue" d="M716.766,-170.483C721.549,-169.635 726.392,-168.788 731,-168 805.292,-155.302 890.917,-141.579 947.286,-132.67"/>
<polygon fill="midnightblue" stroke="midnightblue" points="948.13,-136.081 957.462,-131.064 947.038,-129.166 948.13,-136.081"/>
</g>
<!-- Node50&#45;&gt;Node37 -->
<g id="edge78" class="edge"><title>Node50&#45;&gt;Node37</title>
<path fill="none" stroke="midnightblue" d="M665.719,-168.478C641.752,-155.315 593.646,-129.71 551,-112 451.964,-70.8737 330.17,-38.2217 264.791,-22.0644"/>
<polygon fill="midnightblue" stroke="midnightblue" points="265.341,-18.5956 254.795,-19.6142 263.674,-25.3943 265.341,-18.5956"/>
</g>
<!-- Node50&#45;&gt;Node38 -->
<g id="edge79" class="edge"><title>Node50&#45;&gt;Node38</title>
<path fill="none" stroke="midnightblue" d="M691.236,-168.46C715.408,-147.308 771.689,-91.622 740,-56 696.218,-6.7835 516.69,-27.2203 434.667,-19.9541"/>
<polygon fill="midnightblue" stroke="midnightblue" points="435.017,-16.4717 424.696,-18.8622 434.255,-23.4301 435.017,-16.4717"/>
</g>
</g>
</svg>
