<?xml version="1.0" encoding="UTF-8" standalone="no"?>
<!DOCTYPE svg PUBLIC "-//W3C//DTD SVG 1.1//EN"
 "http://www.w3.org/Graphics/SVG/1.1/DTD/svg11.dtd">
<!-- Generated by graphviz version 2.38.0 (20140413.2041)
 -->
<!-- Title: OgreLodCollapseCostCurvature.h Pages: 1 -->
<svg width="2822pt" height="476pt"
 viewBox="0.00 0.00 2821.92 476.00" xmlns="http://www.w3.org/2000/svg" xmlns:xlink="http://www.w3.org/1999/xlink">
<g id="graph0" class="graph" transform="scale(1 1) rotate(0) translate(4 472)">
<title>OgreLodCollapseCostCurvature.h</title>
<!-- Node1 -->
<g id="node1" class="node"><title>Node1</title>
<polygon fill="#bfbfbf" stroke="black" points="513,-448.5 513,-467.5 677,-467.5 677,-448.5 513,-448.5"/>
<text text-anchor="middle" x="595" y="-455.5" font-family="Helvetica,sans-Serif" font-size="10.00">OgreLodCollapseCostCurvature.h</text>
</g>
<!-- Node2 -->
<g id="node2" class="node"><title>Node2</title>
<g id="a_node2"><a xlink:href="_ogre_lod_prerequisites_8h.html" target="_top" xlink:title="OgreLodPrerequisites.h">
<polygon fill="none" stroke="black" points="462.5,-280.5 462.5,-299.5 581.5,-299.5 581.5,-280.5 462.5,-280.5"/>
<text text-anchor="middle" x="522" y="-287.5" font-family="Helvetica,sans-Serif" font-size="10.00">OgreLodPrerequisites.h</text>
</a>
</g>
</g>
<!-- Node1&#45;&gt;Node2 -->
<g id="edge1" class="edge"><title>Node1&#45;&gt;Node2</title>
<path fill="none" stroke="midnightblue" d="M570.667,-448.363C554.632,-441.268 534.841,-429.505 525,-412 506.873,-379.754 512.258,-334.639 517.39,-309.602"/>
<polygon fill="midnightblue" stroke="midnightblue" points="520.853,-310.156 519.645,-299.63 514.025,-308.612 520.853,-310.156"/>
</g>
<!-- Node42 -->
<g id="node42" class="node"><title>Node42</title>
<g id="a_node42"><a xlink:href="_ogre_lod_collapse_cost_8h.html" target="_top" xlink:title="OgreLodCollapseCost.h">
<polygon fill="none" stroke="black" points="534.5,-392.5 534.5,-411.5 655.5,-411.5 655.5,-392.5 534.5,-392.5"/>
<text text-anchor="middle" x="595" y="-399.5" font-family="Helvetica,sans-Serif" font-size="10.00">OgreLodCollapseCost.h</text>
</a>
</g>
</g>
<!-- Node1&#45;&gt;Node42 -->
<g id="edge47" class="edge"><title>Node1&#45;&gt;Node42</title>
<path fill="none" stroke="midnightblue" d="M595,-448.083C595,-441.006 595,-430.861 595,-421.986"/>
<polygon fill="midnightblue" stroke="midnightblue" points="598.5,-421.751 595,-411.751 591.5,-421.751 598.5,-421.751"/>
</g>
<!-- Node43 -->
<g id="node43" class="node"><title>Node43</title>
<g id="a_node43"><a xlink:href="_ogre_lod_data_8h.html" target="_top" xlink:title="OgreLodData.h">
<polygon fill="none" stroke="black" points="623.5,-336.5 623.5,-355.5 706.5,-355.5 706.5,-336.5 623.5,-336.5"/>
<text text-anchor="middle" x="665" y="-343.5" font-family="Helvetica,sans-Serif" font-size="10.00">OgreLodData.h</text>
</a>
</g>
</g>
<!-- Node1&#45;&gt;Node43 -->
<g id="edge68" class="edge"><title>Node1&#45;&gt;Node43</title>
<path fill="none" stroke="midnightblue" d="M618.705,-448.453C634.599,-441.346 654.328,-429.531 664,-412 671.752,-397.949 671.201,-379.455 669.179,-365.787"/>
<polygon fill="midnightblue" stroke="midnightblue" points="672.562,-364.833 667.285,-355.645 665.681,-366.118 672.562,-364.833"/>
</g>
<!-- Node3 -->
<g id="node3" class="node"><title>Node3</title>
<g id="a_node3"><a xlink:href="_ogre_prerequisites_8h.html" target="_top" xlink:title="OgrePrerequisites.h">
<polygon fill="none" stroke="black" points="521.5,-168.5 521.5,-187.5 624.5,-187.5 624.5,-168.5 521.5,-168.5"/>
<text text-anchor="middle" x="573" y="-175.5" font-family="Helvetica,sans-Serif" font-size="10.00">OgrePrerequisites.h</text>
</a>
</g>
</g>
<!-- Node2&#45;&gt;Node3 -->
<g id="edge2" class="edge"><title>Node2&#45;&gt;Node3</title>
<path fill="none" stroke="midnightblue" d="M520.187,-280.101C517.988,-267.106 515.54,-242.478 524,-224 529.578,-211.816 540.164,-201.434 550.073,-193.722"/>
<polygon fill="midnightblue" stroke="midnightblue" points="552.411,-196.35 558.464,-187.654 548.309,-190.678 552.411,-196.35"/>
</g>
<!-- Node4 -->
<g id="node4" class="node"><title>Node4</title>
<g id="a_node4"><a xlink:href="_ogre_platform_8h.html" target="_top" xlink:title="OgrePlatform.h">
<polygon fill="none" stroke="black" points="48.5,-112.5 48.5,-131.5 131.5,-131.5 131.5,-112.5 48.5,-112.5"/>
<text text-anchor="middle" x="90" y="-119.5" font-family="Helvetica,sans-Serif" font-size="10.00">OgrePlatform.h</text>
</a>
</g>
</g>
<!-- Node3&#45;&gt;Node4 -->
<g id="edge3" class="edge"><title>Node3&#45;&gt;Node4</title>
<path fill="none" stroke="midnightblue" d="M521.311,-171.221C428.422,-160.836 234.325,-139.136 141.543,-128.763"/>
<polygon fill="midnightblue" stroke="midnightblue" points="141.873,-125.278 131.546,-127.645 141.095,-132.234 141.873,-125.278"/>
</g>
<!-- Node6 -->
<g id="node6" class="node"><title>Node6</title>
<polygon fill="none" stroke="#bfbfbf" points="603.5,-56.5 603.5,-75.5 644.5,-75.5 644.5,-56.5 603.5,-56.5"/>
<text text-anchor="middle" x="624" y="-63.5" font-family="Helvetica,sans-Serif" font-size="10.00">string</text>
</g>
<!-- Node3&#45;&gt;Node6 -->
<g id="edge5" class="edge"><title>Node3&#45;&gt;Node6</title>
<path fill="none" stroke="midnightblue" d="M577.002,-168.368C585.307,-150.456 604.563,-108.923 615.679,-84.9482"/>
<polygon fill="midnightblue" stroke="midnightblue" points="618.986,-86.136 620.017,-75.5914 612.635,-83.1916 618.986,-86.136"/>
</g>
<!-- Node7 -->
<g id="node7" class="node"><title>Node7</title>
<g id="a_node7"><a xlink:href="_ogre_std_headers_8h.html" target="_top" xlink:title="OgreStdHeaders.h">
<polygon fill="none" stroke="black" points="1485,-112.5 1485,-131.5 1583,-131.5 1583,-112.5 1485,-112.5"/>
<text text-anchor="middle" x="1534" y="-119.5" font-family="Helvetica,sans-Serif" font-size="10.00">OgreStdHeaders.h</text>
</a>
</g>
</g>
<!-- Node3&#45;&gt;Node7 -->
<g id="edge6" class="edge"><title>Node3&#45;&gt;Node7</title>
<path fill="none" stroke="midnightblue" d="M624.668,-174.097C789.225,-164.85 1300.47,-136.122 1474.95,-126.318"/>
<polygon fill="midnightblue" stroke="midnightblue" points="1475.18,-129.811 1484.97,-125.755 1474.79,-122.822 1475.18,-129.811"/>
</g>
<!-- Node37 -->
<g id="node37" class="node"><title>Node37</title>
<g id="a_node37"><a xlink:href="_ogre_memory_allocator_config_8h.html" target="_top" xlink:title="This file configures Ogre&#39;s memory allocators. ">
<polygon fill="none" stroke="red" points="346,-112.5 346,-131.5 494,-131.5 494,-112.5 346,-112.5"/>
<text text-anchor="middle" x="420" y="-119.5" font-family="Helvetica,sans-Serif" font-size="10.00">OgreMemoryAllocatorConfig.h</text>
</a>
</g>
</g>
<!-- Node3&#45;&gt;Node37 -->
<g id="edge37" class="edge"><title>Node3&#45;&gt;Node37</title>
<path fill="none" stroke="midnightblue" d="M548.757,-168.444C523.129,-159.399 482.515,-145.064 453.762,-134.916"/>
<polygon fill="midnightblue" stroke="midnightblue" points="454.725,-131.544 444.13,-131.516 452.395,-138.145 454.725,-131.544"/>
</g>
<!-- Node5 -->
<g id="node5" class="node"><title>Node5</title>
<g id="a_node5"><a xlink:href="_ogre_config_8h.html" target="_top" xlink:title="OgreConfig.h">
<polygon fill="none" stroke="red" points="0,-56.5 0,-75.5 74,-75.5 74,-56.5 0,-56.5"/>
<text text-anchor="middle" x="37" y="-63.5" font-family="Helvetica,sans-Serif" font-size="10.00">OgreConfig.h</text>
</a>
</g>
</g>
<!-- Node4&#45;&gt;Node5 -->
<g id="edge4" class="edge"><title>Node4&#45;&gt;Node5</title>
<path fill="none" stroke="midnightblue" d="M81.2481,-112.083C73.5303,-104.22 62.0953,-92.5688 52.7835,-83.0813"/>
<polygon fill="midnightblue" stroke="midnightblue" points="55.0916,-80.4363 45.589,-75.7511 50.0958,-85.3396 55.0916,-80.4363"/>
</g>
<!-- Node7&#45;&gt;Node6 -->
<g id="edge16" class="edge"><title>Node7&#45;&gt;Node6</title>
<path fill="none" stroke="midnightblue" d="M1484.87,-120.04C1327.21,-116.722 834.42,-104.431 654.373,-75.5166"/>
<polygon fill="midnightblue" stroke="midnightblue" points="654.942,-72.0633 644.501,-73.8587 653.783,-78.9666 654.942,-72.0633"/>
</g>
<!-- Node8 -->
<g id="node8" class="node"><title>Node8</title>
<polygon fill="none" stroke="#bfbfbf" points="2543.5,-56.5 2543.5,-75.5 2592.5,-75.5 2592.5,-56.5 2543.5,-56.5"/>
<text text-anchor="middle" x="2568" y="-63.5" font-family="Helvetica,sans-Serif" font-size="10.00">cassert</text>
</g>
<!-- Node7&#45;&gt;Node8 -->
<g id="edge7" class="edge"><title>Node7&#45;&gt;Node8</title>
<path fill="none" stroke="midnightblue" d="M1583.03,-120.232C1754.69,-117.322 2328.82,-105.678 2533.23,-75.9017"/>
<polygon fill="midnightblue" stroke="midnightblue" points="2533.9,-79.3399 2543.26,-74.3781 2532.85,-72.4193 2533.9,-79.3399"/>
</g>
<!-- Node9 -->
<g id="node9" class="node"><title>Node9</title>
<polygon fill="none" stroke="#bfbfbf" points="2178.5,-56.5 2178.5,-75.5 2221.5,-75.5 2221.5,-56.5 2178.5,-56.5"/>
<text text-anchor="middle" x="2200" y="-63.5" font-family="Helvetica,sans-Serif" font-size="10.00">cstdio</text>
</g>
<!-- Node7&#45;&gt;Node9 -->
<g id="edge8" class="edge"><title>Node7&#45;&gt;Node9</title>
<path fill="none" stroke="midnightblue" d="M1583.03,-121.044C1688.63,-120.384 1945.37,-114.722 2168.53,-75.6513"/>
<polygon fill="midnightblue" stroke="midnightblue" points="2169.22,-79.0825 2178.46,-73.8866 2168,-72.1904 2169.22,-79.0825"/>
</g>
<!-- Node10 -->
<g id="node10" class="node"><title>Node10</title>
<polygon fill="none" stroke="#bfbfbf" points="2610.5,-56.5 2610.5,-75.5 2655.5,-75.5 2655.5,-56.5 2610.5,-56.5"/>
<text text-anchor="middle" x="2633" y="-63.5" font-family="Helvetica,sans-Serif" font-size="10.00">cstdlib</text>
</g>
<!-- Node7&#45;&gt;Node10 -->
<g id="edge9" class="edge"><title>Node7&#45;&gt;Node10</title>
<path fill="none" stroke="midnightblue" d="M1583.16,-120.495C1762.51,-118.415 2382.14,-109.067 2600.37,-75.8254"/>
<polygon fill="midnightblue" stroke="midnightblue" points="2601.13,-79.2491 2610.46,-74.2244 2600.03,-72.3356 2601.13,-79.2491"/>
</g>
<!-- Node11 -->
<g id="node11" class="node"><title>Node11</title>
<polygon fill="none" stroke="#bfbfbf" points="2239.5,-56.5 2239.5,-75.5 2280.5,-75.5 2280.5,-56.5 2239.5,-56.5"/>
<text text-anchor="middle" x="2260" y="-63.5" font-family="Helvetica,sans-Serif" font-size="10.00">ctime</text>
</g>
<!-- Node7&#45;&gt;Node11 -->
<g id="edge10" class="edge"><title>Node7&#45;&gt;Node11</title>
<path fill="none" stroke="midnightblue" d="M1583.08,-121.789C1696.1,-122.761 1983.32,-120.4 2229.4,-75.8945"/>
<polygon fill="midnightblue" stroke="midnightblue" points="2230.04,-79.3362 2239.24,-74.0881 2228.77,-72.4513 2230.04,-79.3362"/>
</g>
<!-- Node12 -->
<g id="node12" class="node"><title>Node12</title>
<polygon fill="none" stroke="#bfbfbf" points="2674,-56.5 2674,-75.5 2720,-75.5 2720,-56.5 2674,-56.5"/>
<text text-anchor="middle" x="2697" y="-63.5" font-family="Helvetica,sans-Serif" font-size="10.00">cstring</text>
</g>
<!-- Node7&#45;&gt;Node12 -->
<g id="edge11" class="edge"><title>Node7&#45;&gt;Node12</title>
<path fill="none" stroke="midnightblue" d="M1583.1,-120.576C1769.24,-118.734 2432.05,-109.995 2663.68,-75.7712"/>
<polygon fill="midnightblue" stroke="midnightblue" points="2664.37,-79.2064 2673.72,-74.2279 2663.31,-72.2876 2664.37,-79.2064"/>
</g>
<!-- Node13 -->
<g id="node13" class="node"><title>Node13</title>
<polygon fill="none" stroke="#bfbfbf" points="2298.5,-56.5 2298.5,-75.5 2347.5,-75.5 2347.5,-56.5 2298.5,-56.5"/>
<text text-anchor="middle" x="2323" y="-63.5" font-family="Helvetica,sans-Serif" font-size="10.00">cstdarg</text>
</g>
<!-- Node7&#45;&gt;Node13 -->
<g id="edge12" class="edge"><title>Node7&#45;&gt;Node13</title>
<path fill="none" stroke="midnightblue" d="M1583.03,-121.572C1702.51,-122.221 2018.14,-119.451 2288.26,-75.9693"/>
<polygon fill="midnightblue" stroke="midnightblue" points="2288.95,-79.4035 2298.26,-74.3386 2287.82,-72.4949 2288.95,-79.4035"/>
</g>
<!-- Node14 -->
<g id="node14" class="node"><title>Node14</title>
<polygon fill="none" stroke="#bfbfbf" points="2366,-56.5 2366,-75.5 2410,-75.5 2410,-56.5 2366,-56.5"/>
<text text-anchor="middle" x="2388" y="-63.5" font-family="Helvetica,sans-Serif" font-size="10.00">cmath</text>
</g>
<!-- Node7&#45;&gt;Node14 -->
<g id="edge13" class="edge"><title>Node7&#45;&gt;Node14</title>
<path fill="none" stroke="midnightblue" d="M1583.14,-119.782C1733.71,-115.824 2188.07,-102.134 2355.87,-75.7389"/>
<polygon fill="midnightblue" stroke="midnightblue" points="2356.49,-79.1838 2365.79,-74.1053 2355.35,-72.2768 2356.49,-79.1838"/>
</g>
<!-- Node15 -->
<g id="node15" class="node"><title>Node15</title>
<polygon fill="none" stroke="#bfbfbf" points="2428,-56.5 2428,-75.5 2472,-75.5 2472,-56.5 2428,-56.5"/>
<text text-anchor="middle" x="2450" y="-63.5" font-family="Helvetica,sans-Serif" font-size="10.00">vector</text>
</g>
<!-- Node7&#45;&gt;Node15 -->
<g id="edge14" class="edge"><title>Node7&#45;&gt;Node15</title>
<path fill="none" stroke="midnightblue" d="M1583.12,-120C1741.33,-116.549 2237.32,-103.873 2417.89,-75.7287"/>
<polygon fill="midnightblue" stroke="midnightblue" points="2418.49,-79.1785 2427.79,-74.1158 2417.36,-72.2696 2418.49,-79.1785"/>
</g>
<!-- Node16 -->
<g id="node16" class="node"><title>Node16</title>
<polygon fill="none" stroke="#bfbfbf" points="2490.5,-56.5 2490.5,-75.5 2525.5,-75.5 2525.5,-56.5 2490.5,-56.5"/>
<text text-anchor="middle" x="2508" y="-63.5" font-family="Helvetica,sans-Serif" font-size="10.00">map</text>
</g>
<!-- Node7&#45;&gt;Node16 -->
<g id="edge15" class="edge"><title>Node7&#45;&gt;Node16</title>
<path fill="none" stroke="midnightblue" d="M1583.04,-120.441C1748.61,-118.283 2286.78,-108.986 2480.41,-75.4383"/>
<polygon fill="midnightblue" stroke="midnightblue" points="2481.25,-78.8425 2490.46,-73.6142 2480,-71.9548 2481.25,-78.8425"/>
</g>
<!-- Node17 -->
<g id="node17" class="node"><title>Node17</title>
<polygon fill="none" stroke="#bfbfbf" points="663,-56.5 663,-75.5 693,-75.5 693,-56.5 663,-56.5"/>
<text text-anchor="middle" x="678" y="-63.5" font-family="Helvetica,sans-Serif" font-size="10.00">set</text>
</g>
<!-- Node7&#45;&gt;Node17 -->
<g id="edge17" class="edge"><title>Node7&#45;&gt;Node17</title>
<path fill="none" stroke="midnightblue" d="M1484.77,-120.299C1332.85,-117.833 871.926,-108.014 703.009,-75.4531"/>
<polygon fill="midnightblue" stroke="midnightblue" points="703.524,-71.9863 693.028,-73.429 702.133,-78.8467 703.524,-71.9863"/>
</g>
<!-- Node18 -->
<g id="node18" class="node"><title>Node18</title>
<polygon fill="none" stroke="#bfbfbf" points="711.5,-56.5 711.5,-75.5 740.5,-75.5 740.5,-56.5 711.5,-56.5"/>
<text text-anchor="middle" x="726" y="-63.5" font-family="Helvetica,sans-Serif" font-size="10.00">list</text>
</g>
<!-- Node7&#45;&gt;Node18 -->
<g id="edge18" class="edge"><title>Node7&#45;&gt;Node18</title>
<path fill="none" stroke="midnightblue" d="M1484.93,-120.206C1339.14,-117.537 909.373,-107.34 750.921,-75.7191"/>
<polygon fill="midnightblue" stroke="midnightblue" points="751.389,-72.241 740.882,-73.6052 749.946,-79.0908 751.389,-72.241"/>
</g>
<!-- Node19 -->
<g id="node19" class="node"><title>Node19</title>
<polygon fill="none" stroke="#bfbfbf" points="758.5,-56.5 758.5,-75.5 801.5,-75.5 801.5,-56.5 758.5,-56.5"/>
<text text-anchor="middle" x="780" y="-63.5" font-family="Helvetica,sans-Serif" font-size="10.00">deque</text>
</g>
<!-- Node7&#45;&gt;Node19 -->
<g id="edge19" class="edge"><title>Node7&#45;&gt;Node19</title>
<path fill="none" stroke="midnightblue" d="M1484.81,-121.805C1368.68,-122.882 1068.49,-120.842 811.698,-75.9293"/>
<polygon fill="midnightblue" stroke="midnightblue" points="812.272,-72.4765 801.815,-74.1754 811.049,-79.3689 812.272,-72.4765"/>
</g>
<!-- Node20 -->
<g id="node20" class="node"><title>Node20</title>
<polygon fill="none" stroke="#bfbfbf" points="819.5,-56.5 819.5,-75.5 862.5,-75.5 862.5,-56.5 819.5,-56.5"/>
<text text-anchor="middle" x="841" y="-63.5" font-family="Helvetica,sans-Serif" font-size="10.00">queue</text>
</g>
<!-- Node7&#45;&gt;Node20 -->
<g id="edge20" class="edge"><title>Node7&#45;&gt;Node20</title>
<path fill="none" stroke="midnightblue" d="M1484.88,-121.4C1375.86,-121.488 1105.54,-117.291 872.821,-75.9645"/>
<polygon fill="midnightblue" stroke="midnightblue" points="873.28,-72.4907 862.817,-74.1606 872.037,-79.3796 873.28,-72.4907"/>
</g>
<!-- Node21 -->
<g id="node21" class="node"><title>Node21</title>
<polygon fill="none" stroke="#bfbfbf" points="880.5,-56.5 880.5,-75.5 921.5,-75.5 921.5,-56.5 880.5,-56.5"/>
<text text-anchor="middle" x="901" y="-63.5" font-family="Helvetica,sans-Serif" font-size="10.00">bitset</text>
</g>
<!-- Node7&#45;&gt;Node21 -->
<g id="edge21" class="edge"><title>Node7&#45;&gt;Node21</title>
<path fill="none" stroke="midnightblue" d="M1484.97,-121.089C1383.1,-120.47 1141.23,-114.823 931.717,-75.9395"/>
<polygon fill="midnightblue" stroke="midnightblue" points="932.241,-72.4767 921.766,-74.0627 930.944,-79.3554 932.241,-72.4767"/>
</g>
<!-- Node22 -->
<g id="node22" class="node"><title>Node22</title>
<polygon fill="none" stroke="#bfbfbf" points="2738,-56.5 2738,-75.5 2794,-75.5 2794,-56.5 2738,-56.5"/>
<text text-anchor="middle" x="2766" y="-63.5" font-family="Helvetica,sans-Serif" font-size="10.00">algorithm</text>
</g>
<!-- Node7&#45;&gt;Node22 -->
<g id="edge22" class="edge"><title>Node7&#45;&gt;Node22</title>
<path fill="none" stroke="midnightblue" d="M1583.15,-120.466C1776.08,-118.169 2482.48,-107.821 2727.89,-75.8134"/>
<polygon fill="midnightblue" stroke="midnightblue" points="2728.39,-79.2782 2737.83,-74.4698 2727.45,-72.3413 2728.39,-79.2782"/>
</g>
<!-- Node23 -->
<g id="node23" class="node"><title>Node23</title>
<polygon fill="none" stroke="#bfbfbf" points="939.5,-56.5 939.5,-75.5 998.5,-75.5 998.5,-56.5 939.5,-56.5"/>
<text text-anchor="middle" x="969" y="-63.5" font-family="Helvetica,sans-Serif" font-size="10.00">functional</text>
</g>
<!-- Node7&#45;&gt;Node23 -->
<g id="edge23" class="edge"><title>Node7&#45;&gt;Node23</title>
<path fill="none" stroke="midnightblue" d="M1484.77,-119.113C1393.02,-115.093 1189.59,-103.806 1008.69,-75.8747"/>
<polygon fill="midnightblue" stroke="midnightblue" points="1009.15,-72.4041 998.726,-74.316 1008.06,-79.32 1009.15,-72.4041"/>
</g>
<!-- Node24 -->
<g id="node24" class="node"><title>Node24</title>
<polygon fill="none" stroke="#bfbfbf" points="1017,-56.5 1017,-75.5 1057,-75.5 1057,-56.5 1017,-56.5"/>
<text text-anchor="middle" x="1037" y="-63.5" font-family="Helvetica,sans-Serif" font-size="10.00">limits</text>
</g>
<!-- Node7&#45;&gt;Node24 -->
<g id="edge24" class="edge"><title>Node7&#45;&gt;Node24</title>
<path fill="none" stroke="midnightblue" d="M1484.67,-119.576C1400.56,-116.429 1224.08,-106.695 1066.99,-75.7996"/>
<polygon fill="midnightblue" stroke="midnightblue" points="1067.64,-72.3607 1057.14,-73.8311 1066.26,-79.2247 1067.64,-72.3607"/>
</g>
<!-- Node25 -->
<g id="node25" class="node"><title>Node25</title>
<polygon fill="none" stroke="#bfbfbf" points="1075,-56.5 1075,-75.5 1125,-75.5 1125,-56.5 1075,-56.5"/>
<text text-anchor="middle" x="1100" y="-63.5" font-family="Helvetica,sans-Serif" font-size="10.00">fstream</text>
</g>
<!-- Node7&#45;&gt;Node25 -->
<g id="edge25" class="edge"><title>Node7&#45;&gt;Node25</title>
<path fill="none" stroke="midnightblue" d="M1484.85,-117.673C1409.21,-112.056 1259.95,-98.9949 1135,-76 1134.9,-75.9815 1134.8,-75.963 1134.7,-75.9443"/>
<polygon fill="midnightblue" stroke="midnightblue" points="1135.65,-72.5686 1125.14,-73.9119 1134.2,-79.4155 1135.65,-72.5686"/>
</g>
<!-- Node26 -->
<g id="node26" class="node"><title>Node26</title>
<polygon fill="none" stroke="#bfbfbf" points="1143.5,-56.5 1143.5,-75.5 1188.5,-75.5 1188.5,-56.5 1143.5,-56.5"/>
<text text-anchor="middle" x="1166" y="-63.5" font-family="Helvetica,sans-Serif" font-size="10.00">iosfwd</text>
</g>
<!-- Node7&#45;&gt;Node26 -->
<g id="edge26" class="edge"><title>Node7&#45;&gt;Node26</title>
<path fill="none" stroke="midnightblue" d="M1484.95,-116.619C1421.18,-110.441 1306.24,-97.6643 1198.68,-75.859"/>
<polygon fill="midnightblue" stroke="midnightblue" points="1199.13,-72.3783 1188.63,-73.7903 1197.72,-79.2346 1199.13,-72.3783"/>
</g>
<!-- Node27 -->
<g id="node27" class="node"><title>Node27</title>
<polygon fill="none" stroke="#bfbfbf" points="1207,-56.5 1207,-75.5 1259,-75.5 1259,-56.5 1207,-56.5"/>
<text text-anchor="middle" x="1233" y="-63.5" font-family="Helvetica,sans-Serif" font-size="10.00">sstream</text>
</g>
<!-- Node7&#45;&gt;Node27 -->
<g id="edge27" class="edge"><title>Node7&#45;&gt;Node27</title>
<path fill="none" stroke="midnightblue" d="M1484.74,-113.935C1433.26,-106.269 1349.96,-93.0675 1269.16,-76.1071"/>
<polygon fill="midnightblue" stroke="midnightblue" points="1269.83,-72.6713 1259.32,-74.0202 1268.37,-79.519 1269.83,-72.6713"/>
</g>
<!-- Node28 -->
<g id="node28" class="node"><title>Node28</title>
<polygon fill="none" stroke="#bfbfbf" points="1277,-56.5 1277,-75.5 1345,-75.5 1345,-56.5 1277,-56.5"/>
<text text-anchor="middle" x="1311" y="-63.5" font-family="Helvetica,sans-Serif" font-size="10.00">sys/types.h</text>
</g>
<!-- Node7&#45;&gt;Node28 -->
<g id="edge28" class="edge"><title>Node7&#45;&gt;Node28</title>
<path fill="none" stroke="midnightblue" d="M1498.66,-112.444C1459.75,-103.02 1397.12,-87.8546 1355.04,-77.664"/>
<polygon fill="midnightblue" stroke="midnightblue" points="1355.62,-74.2027 1345.07,-75.2508 1353.97,-81.0061 1355.62,-74.2027"/>
</g>
<!-- Node29 -->
<g id="node29" class="node"><title>Node29</title>
<polygon fill="none" stroke="#bfbfbf" points="1363,-56.5 1363,-75.5 1423,-75.5 1423,-56.5 1363,-56.5"/>
<text text-anchor="middle" x="1393" y="-63.5" font-family="Helvetica,sans-Serif" font-size="10.00">sys/stat.h</text>
</g>
<!-- Node7&#45;&gt;Node29 -->
<g id="edge29" class="edge"><title>Node7&#45;&gt;Node29</title>
<path fill="none" stroke="midnightblue" d="M1511.66,-112.444C1488.25,-103.478 1451.26,-89.314 1424.81,-79.1827"/>
<polygon fill="midnightblue" stroke="midnightblue" points="1425.83,-75.8245 1415.24,-75.5164 1423.32,-82.3615 1425.83,-75.8245"/>
</g>
<!-- Node30 -->
<g id="node30" class="node"><title>Node30</title>
<polygon fill="none" stroke="#bfbfbf" points="1441.5,-56.5 1441.5,-75.5 1492.5,-75.5 1492.5,-56.5 1441.5,-56.5"/>
<text text-anchor="middle" x="1467" y="-63.5" font-family="Helvetica,sans-Serif" font-size="10.00">unistd.h</text>
</g>
<!-- Node7&#45;&gt;Node30 -->
<g id="edge30" class="edge"><title>Node7&#45;&gt;Node30</title>
<path fill="none" stroke="midnightblue" d="M1523.24,-112.324C1513.23,-104.263 1498.11,-92.0765 1486.07,-82.3695"/>
<polygon fill="midnightblue" stroke="midnightblue" points="1487.94,-79.3841 1477.96,-75.8339 1483.55,-84.8343 1487.94,-79.3841"/>
</g>
<!-- Node31 -->
<g id="node31" class="node"><title>Node31</title>
<polygon fill="none" stroke="#bfbfbf" points="1511,-56.5 1511,-75.5 1557,-75.5 1557,-56.5 1511,-56.5"/>
<text text-anchor="middle" x="1534" y="-63.5" font-family="Helvetica,sans-Serif" font-size="10.00">dlfcn.h</text>
</g>
<!-- Node7&#45;&gt;Node31 -->
<g id="edge31" class="edge"><title>Node7&#45;&gt;Node31</title>
<path fill="none" stroke="midnightblue" d="M1534,-112.083C1534,-105.006 1534,-94.8611 1534,-85.9865"/>
<polygon fill="midnightblue" stroke="midnightblue" points="1537.5,-85.751 1534,-75.7511 1530.5,-85.7511 1537.5,-85.751"/>
</g>
<!-- Node32 -->
<g id="node32" class="node"><title>Node32</title>
<polygon fill="none" stroke="#bfbfbf" points="1575,-56.5 1575,-75.5 1653,-75.5 1653,-56.5 1575,-56.5"/>
<text text-anchor="middle" x="1614" y="-63.5" font-family="Helvetica,sans-Serif" font-size="10.00">ext/hash_map</text>
</g>
<!-- Node7&#45;&gt;Node32 -->
<g id="edge32" class="edge"><title>Node7&#45;&gt;Node32</title>
<path fill="none" stroke="midnightblue" d="M1546.85,-112.324C1559.22,-103.979 1578.13,-91.2122 1592.74,-81.3524"/>
<polygon fill="midnightblue" stroke="midnightblue" points="1594.85,-84.1503 1601.18,-75.6545 1590.93,-78.3483 1594.85,-84.1503"/>
</g>
<!-- Node33 -->
<g id="node33" class="node"><title>Node33</title>
<polygon fill="none" stroke="#bfbfbf" points="1671.5,-56.5 1671.5,-75.5 1744.5,-75.5 1744.5,-56.5 1671.5,-56.5"/>
<text text-anchor="middle" x="1708" y="-63.5" font-family="Helvetica,sans-Serif" font-size="10.00">ext/hash_set</text>
</g>
<!-- Node7&#45;&gt;Node33 -->
<g id="edge33" class="edge"><title>Node7&#45;&gt;Node33</title>
<path fill="none" stroke="midnightblue" d="M1561.57,-112.444C1591.1,-103.28 1638.12,-88.6876 1670.88,-78.5192"/>
<polygon fill="midnightblue" stroke="midnightblue" points="1672.04,-81.8232 1680.56,-75.5164 1669.97,-75.1378 1672.04,-81.8232"/>
</g>
<!-- Node34 -->
<g id="node34" class="node"><title>Node34</title>
<polygon fill="none" stroke="#bfbfbf" points="1762.5,-56.5 1762.5,-75.5 1833.5,-75.5 1833.5,-56.5 1762.5,-56.5"/>
<text text-anchor="middle" x="1798" y="-63.5" font-family="Helvetica,sans-Serif" font-size="10.00">sys/param.h</text>
</g>
<!-- Node7&#45;&gt;Node34 -->
<g id="edge34" class="edge"><title>Node7&#45;&gt;Node34</title>
<path fill="none" stroke="midnightblue" d="M1575.83,-112.444C1623.98,-102.594 1702.8,-86.4731 1752.46,-76.3148"/>
<polygon fill="midnightblue" stroke="midnightblue" points="1753.19,-79.7372 1762.29,-74.3042 1751.79,-72.8792 1753.19,-79.7372"/>
</g>
<!-- Node35 -->
<g id="node35" class="node"><title>Node35</title>
<polygon fill="none" stroke="#bfbfbf" points="1852,-56.5 1852,-75.5 2018,-75.5 2018,-56.5 1852,-56.5"/>
<text text-anchor="middle" x="1935" y="-63.5" font-family="Helvetica,sans-Serif" font-size="10.00">CoreFoundation/CoreFoundation.h</text>
</g>
<!-- Node7&#45;&gt;Node35 -->
<g id="edge35" class="edge"><title>Node7&#45;&gt;Node35</title>
<path fill="none" stroke="midnightblue" d="M1583.17,-114.379C1652.76,-105.007 1780.51,-87.8036 1861.43,-76.9076"/>
<polygon fill="midnightblue" stroke="midnightblue" points="1862.1,-80.3486 1871.54,-75.5453 1861.17,-73.4113 1862.1,-80.3486"/>
</g>
<!-- Node36 -->
<g id="node36" class="node"><title>Node36</title>
<polygon fill="none" stroke="#bfbfbf" points="2036,-56.5 2036,-75.5 2160,-75.5 2160,-56.5 2036,-56.5"/>
<text text-anchor="middle" x="2098" y="-63.5" font-family="Helvetica,sans-Serif" font-size="10.00">emscripten/emscripten.h</text>
</g>
<!-- Node7&#45;&gt;Node36 -->
<g id="edge36" class="edge"><title>Node7&#45;&gt;Node36</title>
<path fill="none" stroke="midnightblue" d="M1583.04,-117.097C1670,-110.051 1857.17,-94.3224 2025.63,-76.1166"/>
<polygon fill="midnightblue" stroke="midnightblue" points="2026.11,-79.585 2035.68,-75.0257 2025.36,-72.6259 2026.11,-79.585"/>
</g>
<!-- Node38 -->
<g id="node38" class="node"><title>Node38</title>
<g id="a_node38"><a xlink:href="_ogre_memory_allocated_object_8h.html" target="_top" xlink:title="OgreMemoryAllocatedObject.h">
<polygon fill="none" stroke="red" points="92,-56.5 92,-75.5 242,-75.5 242,-56.5 92,-56.5"/>
<text text-anchor="middle" x="167" y="-63.5" font-family="Helvetica,sans-Serif" font-size="10.00">OgreMemoryAllocatedObject.h</text>
</a>
</g>
</g>
<!-- Node37&#45;&gt;Node38 -->
<g id="edge38" class="edge"><title>Node37&#45;&gt;Node38</title>
<path fill="none" stroke="midnightblue" d="M379.911,-112.444C335.684,-103.004 264.461,-87.802 216.715,-77.6111"/>
<polygon fill="midnightblue" stroke="midnightblue" points="217.411,-74.181 206.901,-75.5164 215.95,-81.0268 217.411,-74.181"/>
</g>
<!-- Node39 -->
<g id="node39" class="node"><title>Node39</title>
<g id="a_node39"><a xlink:href="_ogre_header_prefix_8h.html" target="_top" xlink:title="OgreHeaderPrefix.h">
<polygon fill="none" stroke="black" points="368.5,-0.5 368.5,-19.5 471.5,-19.5 471.5,-0.5 368.5,-0.5"/>
<text text-anchor="middle" x="420" y="-7.5" font-family="Helvetica,sans-Serif" font-size="10.00">OgreHeaderPrefix.h</text>
</a>
</g>
</g>
<!-- Node37&#45;&gt;Node39 -->
<g id="edge41" class="edge"><title>Node37&#45;&gt;Node39</title>
<path fill="none" stroke="midnightblue" d="M420,-112.368C420,-94.617 420,-53.6664 420,-29.5974"/>
<polygon fill="midnightblue" stroke="midnightblue" points="423.5,-29.5914 420,-19.5914 416.5,-29.5915 423.5,-29.5914"/>
</g>
<!-- Node40 -->
<g id="node40" class="node"><title>Node40</title>
<g id="a_node40"><a xlink:href="_ogre_memory_s_t_l_allocator_8h.html" target="_top" xlink:title="OgreMemorySTLAllocator.h">
<polygon fill="none" stroke="red" points="448.5,-56.5 448.5,-75.5 585.5,-75.5 585.5,-56.5 448.5,-56.5"/>
<text text-anchor="middle" x="517" y="-63.5" font-family="Helvetica,sans-Serif" font-size="10.00">OgreMemorySTLAllocator.h</text>
</a>
</g>
</g>
<!-- Node37&#45;&gt;Node40 -->
<g id="edge42" class="edge"><title>Node37&#45;&gt;Node40</title>
<path fill="none" stroke="midnightblue" d="M435.585,-112.324C450.999,-103.743 474.812,-90.486 492.71,-80.5224"/>
<polygon fill="midnightblue" stroke="midnightblue" points="494.419,-83.5767 501.454,-75.6545 491.014,-77.4606 494.419,-83.5767"/>
</g>
<!-- Node41 -->
<g id="node41" class="node"><title>Node41</title>
<g id="a_node41"><a xlink:href="_ogre_memory_ned_pooling_8h.html" target="_top" xlink:title="OgreMemoryNedPooling.h">
<polygon fill="none" stroke="red" points="260.5,-56.5 260.5,-75.5 391.5,-75.5 391.5,-56.5 260.5,-56.5"/>
<text text-anchor="middle" x="326" y="-63.5" font-family="Helvetica,sans-Serif" font-size="10.00">OgreMemoryNedPooling.h</text>
</a>
</g>
</g>
<!-- Node37&#45;&gt;Node41 -->
<g id="edge45" class="edge"><title>Node37&#45;&gt;Node41</title>
<path fill="none" stroke="midnightblue" d="M404.897,-112.324C390.097,-103.822 367.306,-90.7288 350.018,-80.7975"/>
<polygon fill="midnightblue" stroke="midnightblue" points="351.48,-77.6009 341.065,-75.6545 347.993,-83.6707 351.48,-77.6009"/>
</g>
<!-- Node38&#45;&gt;Node3 -->
<g id="edge39" class="edge"><title>Node38&#45;&gt;Node3</title>
<path fill="none" stroke="midnightblue" d="M186,-75.5396C217.03,-89.1937 280.77,-116.025 337,-132 395.248,-148.548 463.327,-160.799 511.355,-168.305"/>
<polygon fill="midnightblue" stroke="midnightblue" points="510.873,-171.772 521.289,-169.835 511.938,-164.854 510.873,-171.772"/>
</g>
<!-- Node38&#45;&gt;Node39 -->
<g id="edge40" class="edge"><title>Node38&#45;&gt;Node39</title>
<path fill="none" stroke="midnightblue" d="M207.089,-56.4435C251.316,-47.0036 322.539,-31.802 370.285,-21.6111"/>
<polygon fill="midnightblue" stroke="midnightblue" points="371.05,-25.0268 380.099,-19.5164 369.589,-18.181 371.05,-25.0268"/>
</g>
<!-- Node40&#45;&gt;Node3 -->
<g id="edge43" class="edge"><title>Node40&#45;&gt;Node3</title>
<path fill="none" stroke="midnightblue" d="M521.374,-75.5914C530.516,-93.5484 551.806,-135.37 563.999,-159.32"/>
<polygon fill="midnightblue" stroke="midnightblue" points="560.95,-161.045 568.606,-168.368 567.188,-157.869 560.95,-161.045"/>
</g>
<!-- Node40&#45;&gt;Node39 -->
<g id="edge44" class="edge"><title>Node40&#45;&gt;Node39</title>
<path fill="none" stroke="midnightblue" d="M501.415,-56.324C486.001,-47.7428 462.188,-34.486 444.29,-24.5224"/>
<polygon fill="midnightblue" stroke="midnightblue" points="445.986,-21.4606 435.546,-19.6545 442.581,-27.5767 445.986,-21.4606"/>
</g>
<!-- Node41&#45;&gt;Node39 -->
<g id="edge46" class="edge"><title>Node41&#45;&gt;Node39</title>
<path fill="none" stroke="midnightblue" d="M341.103,-56.324C355.903,-47.8215 378.694,-34.7288 395.982,-24.7975"/>
<polygon fill="midnightblue" stroke="midnightblue" points="398.007,-27.6707 404.935,-19.6545 394.52,-21.6009 398.007,-27.6707"/>
</g>
<!-- Node42&#45;&gt;Node2 -->
<g id="edge48" class="edge"><title>Node42&#45;&gt;Node2</title>
<path fill="none" stroke="midnightblue" d="M589.272,-392.368C577.225,-374.215 549.077,-331.802 533.275,-307.99"/>
<polygon fill="midnightblue" stroke="midnightblue" points="536.147,-305.988 527.702,-299.591 530.315,-309.859 536.147,-305.988"/>
</g>
<!-- Node42&#45;&gt;Node43 -->
<g id="edge49" class="edge"><title>Node42&#45;&gt;Node43</title>
<path fill="none" stroke="midnightblue" d="M606.247,-392.324C616.797,-384.185 632.801,-371.839 645.442,-362.087"/>
<polygon fill="midnightblue" stroke="midnightblue" points="647.769,-364.713 653.549,-355.834 643.493,-359.171 647.769,-364.713"/>
</g>
<!-- Node43&#45;&gt;Node2 -->
<g id="edge50" class="edge"><title>Node43&#45;&gt;Node2</title>
<path fill="none" stroke="midnightblue" d="M642.341,-336.444C618.598,-327.478 581.091,-313.314 554.262,-303.183"/>
<polygon fill="midnightblue" stroke="midnightblue" points="555.144,-299.775 544.553,-299.516 552.671,-306.324 555.144,-299.775"/>
</g>
<!-- Node44 -->
<g id="node44" class="node"><title>Node44</title>
<g id="a_node44"><a xlink:href="_ogre_vector_set_8h.html" target="_top" xlink:title="OgreVectorSet.h">
<polygon fill="none" stroke="black" points="780.5,-224.5 780.5,-243.5 869.5,-243.5 869.5,-224.5 780.5,-224.5"/>
<text text-anchor="middle" x="825" y="-231.5" font-family="Helvetica,sans-Serif" font-size="10.00">OgreVectorSet.h</text>
</a>
</g>
</g>
<!-- Node43&#45;&gt;Node44 -->
<g id="edge51" class="edge"><title>Node43&#45;&gt;Node44</title>
<path fill="none" stroke="midnightblue" d="M677.555,-336.368C704.894,-317.573 770.064,-272.768 803.861,-249.533"/>
<polygon fill="midnightblue" stroke="midnightblue" points="806.246,-252.141 812.503,-243.591 802.28,-246.373 806.246,-252.141"/>
</g>
<!-- Node46 -->
<g id="node46" class="node"><title>Node46</title>
<g id="a_node46"><a xlink:href="_ogre_vector_set_impl_8h.html" target="_top" xlink:title="OgreVectorSetImpl.h">
<polygon fill="none" stroke="black" points="771,-280.5 771,-299.5 879,-299.5 879,-280.5 771,-280.5"/>
<text text-anchor="middle" x="825" y="-287.5" font-family="Helvetica,sans-Serif" font-size="10.00">OgreVectorSetImpl.h</text>
</a>
</g>
</g>
<!-- Node43&#45;&gt;Node46 -->
<g id="edge57" class="edge"><title>Node43&#45;&gt;Node46</title>
<path fill="none" stroke="midnightblue" d="M690.352,-336.444C717.269,-327.359 759.996,-312.939 790.087,-302.783"/>
<polygon fill="midnightblue" stroke="midnightblue" points="791.41,-306.031 799.766,-299.516 789.172,-299.398 791.41,-306.031"/>
</g>
<!-- Node48 -->
<g id="node48" class="node"><title>Node48</title>
<g id="a_node48"><a xlink:href="_ogre_vector3_8h.html" target="_top" xlink:title="OgreVector3.h">
<polygon fill="none" stroke="black" points="609,-280.5 609,-299.5 689,-299.5 689,-280.5 609,-280.5"/>
<text text-anchor="middle" x="649" y="-287.5" font-family="Helvetica,sans-Serif" font-size="10.00">OgreVector3.h</text>
</a>
</g>
</g>
<!-- Node43&#45;&gt;Node48 -->
<g id="edge62" class="edge"><title>Node43&#45;&gt;Node48</title>
<path fill="none" stroke="midnightblue" d="M662.358,-336.083C660.214,-328.849 657.121,-318.409 654.451,-309.397"/>
<polygon fill="midnightblue" stroke="midnightblue" points="657.79,-308.345 651.593,-299.751 651.078,-310.333 657.79,-308.345"/>
</g>
<!-- Node45 -->
<g id="node45" class="node"><title>Node45</title>
<g id="a_node45"><a xlink:href="_ogre_small_vector_8h.html" target="_top" xlink:title="OgreSmallVector.h">
<polygon fill="none" stroke="red" points="2583.5,-112.5 2583.5,-131.5 2682.5,-131.5 2682.5,-112.5 2583.5,-112.5"/>
<text text-anchor="middle" x="2633" y="-119.5" font-family="Helvetica,sans-Serif" font-size="10.00">OgreSmallVector.h</text>
</a>
</g>
</g>
<!-- Node44&#45;&gt;Node45 -->
<g id="edge52" class="edge"><title>Node44&#45;&gt;Node45</title>
<path fill="none" stroke="midnightblue" d="M869.77,-225.039C872.55,-224.656 875.311,-224.305 878,-224 1539.95,-148.982 2349.03,-128.464 2573.05,-124.046"/>
<polygon fill="midnightblue" stroke="midnightblue" points="2573.34,-127.541 2583.27,-123.848 2573.21,-120.542 2573.34,-127.541"/>
</g>
<!-- Node45&#45;&gt;Node8 -->
<g id="edge54" class="edge"><title>Node45&#45;&gt;Node8</title>
<path fill="none" stroke="midnightblue" d="M2622.56,-112.324C2612.85,-104.263 2598.18,-92.0765 2586.5,-82.3695"/>
<polygon fill="midnightblue" stroke="midnightblue" points="2588.56,-79.532 2578.63,-75.8339 2584.09,-84.9163 2588.56,-79.532"/>
</g>
<!-- Node45&#45;&gt;Node10 -->
<g id="edge55" class="edge"><title>Node45&#45;&gt;Node10</title>
<path fill="none" stroke="midnightblue" d="M2633,-112.083C2633,-105.006 2633,-94.8611 2633,-85.9865"/>
<polygon fill="midnightblue" stroke="midnightblue" points="2636.5,-85.751 2633,-75.7511 2629.5,-85.7511 2636.5,-85.751"/>
</g>
<!-- Node45&#45;&gt;Node12 -->
<g id="edge56" class="edge"><title>Node45&#45;&gt;Node12</title>
<path fill="none" stroke="midnightblue" d="M2643.28,-112.324C2652.84,-104.263 2667.28,-92.0765 2678.78,-82.3695"/>
<polygon fill="midnightblue" stroke="midnightblue" points="2681.14,-84.9577 2686.53,-75.8339 2676.63,-79.6076 2681.14,-84.9577"/>
</g>
<!-- Node45&#45;&gt;Node22 -->
<g id="edge53" class="edge"><title>Node45&#45;&gt;Node22</title>
<path fill="none" stroke="midnightblue" d="M2654.07,-112.444C2676.06,-103.517 2710.73,-89.4387 2735.66,-79.3168"/>
<polygon fill="midnightblue" stroke="midnightblue" points="2737.08,-82.5213 2745.02,-75.5164 2734.44,-76.0355 2737.08,-82.5213"/>
</g>
<!-- Node46&#45;&gt;Node44 -->
<g id="edge58" class="edge"><title>Node46&#45;&gt;Node44</title>
<path fill="none" stroke="midnightblue" d="M825,-280.083C825,-273.006 825,-262.861 825,-253.986"/>
<polygon fill="midnightblue" stroke="midnightblue" points="828.5,-253.751 825,-243.751 821.5,-253.751 828.5,-253.751"/>
</g>
<!-- Node47 -->
<g id="node47" class="node"><title>Node47</title>
<g id="a_node47"><a xlink:href="_ogre_exception_8h.html" target="_top" xlink:title="OgreException.h">
<polygon fill="none" stroke="red" points="887.5,-224.5 887.5,-243.5 976.5,-243.5 976.5,-224.5 887.5,-224.5"/>
<text text-anchor="middle" x="932" y="-231.5" font-family="Helvetica,sans-Serif" font-size="10.00">OgreException.h</text>
</a>
</g>
</g>
<!-- Node46&#45;&gt;Node47 -->
<g id="edge59" class="edge"><title>Node46&#45;&gt;Node47</title>
<path fill="none" stroke="midnightblue" d="M842.191,-280.324C859.351,-271.664 885.946,-258.242 905.747,-248.249"/>
<polygon fill="midnightblue" stroke="midnightblue" points="907.501,-251.285 914.851,-243.655 904.347,-245.035 907.501,-251.285"/>
</g>
<!-- Node47&#45;&gt;Node3 -->
<g id="edge60" class="edge"><title>Node47&#45;&gt;Node3</title>
<path fill="none" stroke="midnightblue" d="M887.221,-225.471C884.102,-224.967 881.005,-224.472 878,-224 793.727,-210.762 696.17,-196.565 634.533,-187.735"/>
<polygon fill="midnightblue" stroke="midnightblue" points="634.976,-184.263 624.582,-186.311 633.985,-191.192 634.976,-184.263"/>
</g>
<!-- Node47&#45;&gt;Node39 -->
<g id="edge61" class="edge"><title>Node47&#45;&gt;Node39</title>
<path fill="none" stroke="midnightblue" d="M976.874,-232.893C1217.26,-231.945 2354.29,-222.665 2692,-132 2749.74,-116.497 2844.88,-98.6744 2803,-56 2761.13,-13.3317 852.006,-11.0287 481.806,-10.9836"/>
<polygon fill="midnightblue" stroke="midnightblue" points="481.559,-7.48369 471.559,-10.9829 481.559,-14.4837 481.559,-7.48369"/>
</g>
<!-- Node48&#45;&gt;Node3 -->
<g id="edge63" class="edge"><title>Node48&#45;&gt;Node3</title>
<path fill="none" stroke="midnightblue" d="M646.733,-280.413C643.021,-267.386 634.755,-242.218 622,-224 614.11,-212.73 602.954,-202.206 593.28,-194.173"/>
<polygon fill="midnightblue" stroke="midnightblue" points="595.282,-191.293 585.279,-187.799 590.92,-196.768 595.282,-191.293"/>
</g>
<!-- Node49 -->
<g id="node49" class="node"><title>Node49</title>
<g id="a_node49"><a xlink:href="_ogre_quaternion_8h.html" target="_top" xlink:title="OgreQuaternion.h">
<polygon fill="none" stroke="red" points="669.5,-224.5 669.5,-243.5 762.5,-243.5 762.5,-224.5 669.5,-224.5"/>
<text text-anchor="middle" x="716" y="-231.5" font-family="Helvetica,sans-Serif" font-size="10.00">OgreQuaternion.h</text>
</a>
</g>
</g>
<!-- Node48&#45;&gt;Node49 -->
<g id="edge64" class="edge"><title>Node48&#45;&gt;Node49</title>
<path fill="none" stroke="midnightblue" d="M659.765,-280.324C669.766,-272.263 684.887,-260.077 696.93,-250.369"/>
<polygon fill="midnightblue" stroke="midnightblue" points="699.45,-252.834 705.039,-243.834 695.057,-247.384 699.45,-252.834"/>
</g>
<!-- Node50 -->
<g id="node50" class="node"><title>Node50</title>
<g id="a_node50"><a xlink:href="_ogre_vector2_8h.html" target="_top" xlink:title="OgreVector2.h">
<polygon fill="none" stroke="red" points="533,-224.5 533,-243.5 613,-243.5 613,-224.5 533,-224.5"/>
<text text-anchor="middle" x="573" y="-231.5" font-family="Helvetica,sans-Serif" font-size="10.00">OgreVector2.h</text>
</a>
</g>
</g>
<!-- Node48&#45;&gt;Node50 -->
<g id="edge66" class="edge"><title>Node48&#45;&gt;Node50</title>
<path fill="none" stroke="midnightblue" d="M636.789,-280.324C625.224,-272.107 607.625,-259.602 593.839,-249.807"/>
<polygon fill="midnightblue" stroke="midnightblue" points="595.612,-246.773 585.433,-243.834 591.557,-252.479 595.612,-246.773"/>
</g>
<!-- Node49&#45;&gt;Node3 -->
<g id="edge65" class="edge"><title>Node49&#45;&gt;Node3</title>
<path fill="none" stroke="midnightblue" d="M693.341,-224.444C669.598,-215.478 632.091,-201.314 605.262,-191.183"/>
<polygon fill="midnightblue" stroke="midnightblue" points="606.144,-187.775 595.553,-187.516 603.671,-194.324 606.144,-187.775"/>
</g>
<!-- Node50&#45;&gt;Node3 -->
<g id="edge67" class="edge"><title>Node50&#45;&gt;Node3</title>
<path fill="none" stroke="midnightblue" d="M573,-224.083C573,-217.006 573,-206.861 573,-197.986"/>
<polygon fill="midnightblue" stroke="midnightblue" points="576.5,-197.751 573,-187.751 569.5,-197.751 576.5,-197.751"/>
</g>
</g>
</svg>
