<?xml version="1.0" encoding="UTF-8" standalone="no"?>
<!DOCTYPE svg PUBLIC "-//W3C//DTD SVG 1.1//EN"
 "http://www.w3.org/Graphics/SVG/1.1/DTD/svg11.dtd">
<!-- Generated by graphviz version 2.38.0 (20140413.2041)
 -->
<!-- Title: OgreHighLevelGpuProgram.h Pages: 1 -->
<svg width="1449pt" height="319pt"
 viewBox="0.00 0.00 1449.15 319.00" xmlns="http://www.w3.org/2000/svg" xmlns:xlink="http://www.w3.org/1999/xlink">
<g id="graph0" class="graph" transform="scale(1 1) rotate(0) translate(4 315)">
<title>OgreHighLevelGpuProgram.h</title>
<!-- Node1 -->
<g id="node1" class="node"><title>Node1</title>
<polygon fill="#bfbfbf" stroke="black" points="871.148,-291.5 871.148,-310.5 1015.15,-310.5 1015.15,-291.5 871.148,-291.5"/>
<text text-anchor="middle" x="943.148" y="-298.5" font-family="Helvetica,sans-Serif" font-size="10.00">OgreHighLevelGpuProgram.h</text>
</g>
<!-- Node2 -->
<g id="node2" class="node"><title>Node2</title>
<g id="a_node2"><a xlink:href="_ogre_8h.html" target="_top" xlink:title="Ogre.h">
<polygon fill="none" stroke="black" points="449.148,-235.5 449.148,-254.5 495.148,-254.5 495.148,-235.5 449.148,-235.5"/>
<text text-anchor="middle" x="472.148" y="-242.5" font-family="Helvetica,sans-Serif" font-size="10.00">Ogre.h</text>
</a>
</g>
</g>
<!-- Node1&#45;&gt;Node2 -->
<g id="edge1" class="edge"><title>Node1&#45;&gt;Node2</title>
<path fill="none" stroke="midnightblue" d="M860.68,-293.557C774.654,-286.305 636.014,-273.125 517.148,-255 510.06,-253.919 502.393,-252.486 495.432,-251.082"/>
<polygon fill="midnightblue" stroke="midnightblue" points="860.649,-297.066 870.906,-294.411 861.232,-290.09 860.649,-297.066"/>
</g>
<!-- Node13 -->
<g id="node13" class="node"><title>Node13</title>
<g id="a_node13"><a xlink:href="_ogre_unified_high_level_gpu_program_8h.html" target="_top" xlink:title="OgreUnifiedHighLevelGpuProgram.h">
<polygon fill="none" stroke="black" points="526.648,-235.5 526.648,-254.5 701.648,-254.5 701.648,-235.5 526.648,-235.5"/>
<text text-anchor="middle" x="614.148" y="-242.5" font-family="Helvetica,sans-Serif" font-size="10.00">OgreUnifiedHighLevelGpuProgram.h</text>
</a>
</g>
</g>
<!-- Node1&#45;&gt;Node13 -->
<g id="edge20" class="edge"><title>Node1&#45;&gt;Node13</title>
<path fill="none" stroke="midnightblue" d="M880.947,-289.791C818.78,-279.587 724.29,-264.078 666.035,-254.516"/>
<polygon fill="midnightblue" stroke="midnightblue" points="880.582,-293.278 891.017,-291.444 881.716,-286.37 880.582,-293.278"/>
</g>
<!-- Node14 -->
<g id="node14" class="node"><title>Node14</title>
<g id="a_node14"><a xlink:href="_ogre_d3_d11_h_l_s_l_program_8h.html" target="_top" xlink:title="OgreD3D11HLSLProgram.h">
<polygon fill="none" stroke="black" points="720.148,-235.5 720.148,-254.5 858.148,-254.5 858.148,-235.5 720.148,-235.5"/>
<text text-anchor="middle" x="789.148" y="-242.5" font-family="Helvetica,sans-Serif" font-size="10.00">OgreD3D11HLSLProgram.h</text>
</a>
</g>
</g>
<!-- Node1&#45;&gt;Node14 -->
<g id="edge21" class="edge"><title>Node1&#45;&gt;Node14</title>
<path fill="none" stroke="midnightblue" d="M909.038,-288.039C880.061,-277.879 839.186,-263.546 813.436,-254.516"/>
<polygon fill="midnightblue" stroke="midnightblue" points="908.152,-291.437 918.747,-291.444 910.468,-284.832 908.152,-291.437"/>
</g>
<!-- Node15 -->
<g id="node15" class="node"><title>Node15</title>
<g id="a_node15"><a xlink:href="_ogre_d3_d9_h_l_s_l_program_8h.html" target="_top" xlink:title="OgreD3D9HLSLProgram.h">
<polygon fill="none" stroke="black" points="876.648,-235.5 876.648,-254.5 1009.65,-254.5 1009.65,-235.5 876.648,-235.5"/>
<text text-anchor="middle" x="943.148" y="-242.5" font-family="Helvetica,sans-Serif" font-size="10.00">OgreD3D9HLSLProgram.h</text>
</a>
</g>
</g>
<!-- Node1&#45;&gt;Node15 -->
<g id="edge22" class="edge"><title>Node1&#45;&gt;Node15</title>
<path fill="none" stroke="midnightblue" d="M943.148,-280.805C943.148,-271.91 943.148,-261.78 943.148,-254.751"/>
<polygon fill="midnightblue" stroke="midnightblue" points="939.648,-281.083 943.148,-291.083 946.648,-281.083 939.648,-281.083"/>
</g>
<!-- Node16 -->
<g id="node16" class="node"><title>Node16</title>
<g id="a_node16"><a xlink:href="src_2_g_l_s_l_2include_2_ogre_g_l_s_l_program_8h.html" target="_top" xlink:title="OgreGLSLProgram.h">
<polygon fill="none" stroke="black" points="1027.65,-235.5 1027.65,-254.5 1134.65,-254.5 1134.65,-235.5 1027.65,-235.5"/>
<text text-anchor="middle" x="1081.15" y="-242.5" font-family="Helvetica,sans-Serif" font-size="10.00">OgreGLSLProgram.h</text>
</a>
</g>
</g>
<!-- Node1&#45;&gt;Node16 -->
<g id="edge23" class="edge"><title>Node1&#45;&gt;Node16</title>
<path fill="none" stroke="midnightblue" d="M974.398,-287.772C1000.32,-277.629 1036.51,-263.467 1059.38,-254.516"/>
<polygon fill="midnightblue" stroke="midnightblue" points="973.052,-284.54 965.015,-291.444 975.603,-291.059 973.052,-284.54"/>
</g>
<!-- Node17 -->
<g id="node17" class="node"><title>Node17</title>
<g id="a_node17"><a xlink:href="_ogre_g_l_s_l_shader_8h.html" target="_top" xlink:title="OgreGLSLShader.h">
<polygon fill="none" stroke="black" points="1152.65,-235.5 1152.65,-254.5 1253.65,-254.5 1253.65,-235.5 1152.65,-235.5"/>
<text text-anchor="middle" x="1203.15" y="-242.5" font-family="Helvetica,sans-Serif" font-size="10.00">OgreGLSLShader.h</text>
</a>
</g>
</g>
<!-- Node1&#45;&gt;Node17 -->
<g id="edge24" class="edge"><title>Node1&#45;&gt;Node17</title>
<path fill="none" stroke="midnightblue" d="M994.139,-289.41C1043.28,-279.204 1116.68,-263.96 1162.14,-254.516"/>
<polygon fill="midnightblue" stroke="midnightblue" points="993.425,-285.983 984.346,-291.444 994.849,-292.837 993.425,-285.983"/>
</g>
<!-- Node22 -->
<g id="node22" class="node"><title>Node22</title>
<g id="a_node22"><a xlink:href="_ogre_g_l_s_l_e_s_program_8h.html" target="_top" xlink:title="OgreGLSLESProgram.h">
<polygon fill="none" stroke="black" points="1298.65,-235.5 1298.65,-254.5 1419.65,-254.5 1419.65,-235.5 1298.65,-235.5"/>
<text text-anchor="middle" x="1359.15" y="-242.5" font-family="Helvetica,sans-Serif" font-size="10.00">OgreGLSLESProgram.h</text>
</a>
</g>
</g>
<!-- Node1&#45;&gt;Node22 -->
<g id="edge29" class="edge"><title>Node1&#45;&gt;Node22</title>
<path fill="none" stroke="midnightblue" d="M1019.12,-290.138C1099.48,-279.707 1224.65,-263.459 1298.61,-253.858"/>
<polygon fill="midnightblue" stroke="midnightblue" points="1018.53,-286.685 1009.06,-291.444 1019.43,-293.627 1018.53,-286.685"/>
</g>
<!-- Node3 -->
<g id="node3" class="node"><title>Node3</title>
<g id="a_node3"><a xlink:href="_ogre_hlms_datablock_8h.html" target="_top" xlink:title="OgreHlmsDatablock.h">
<polygon fill="none" stroke="black" points="135.648,-118 135.648,-137 248.648,-137 248.648,-118 135.648,-118"/>
<text text-anchor="middle" x="192.148" y="-125" font-family="Helvetica,sans-Serif" font-size="10.00">OgreHlmsDatablock.h</text>
</a>
</g>
</g>
<!-- Node2&#45;&gt;Node3 -->
<g id="edge2" class="edge"><title>Node2&#45;&gt;Node3</title>
<path fill="none" stroke="midnightblue" d="M438.774,-242.612C376.066,-239.323 243.995,-228.94 211.148,-199 193.536,-182.946 191.545,-152.45 191.73,-137.382"/>
<polygon fill="midnightblue" stroke="midnightblue" points="438.768,-246.116 448.929,-243.115 439.114,-239.125 438.768,-246.116"/>
</g>
<!-- Node4 -->
<g id="node4" class="node"><title>Node4</title>
<g id="a_node4"><a xlink:href="_ogre_hlms_material_base_8h.html" target="_top" xlink:title="OgreHlmsMaterialBase.h">
<polygon fill="none" stroke="black" points="171.148,-56.5 171.148,-75.5 297.148,-75.5 297.148,-56.5 171.148,-56.5"/>
<text text-anchor="middle" x="234.148" y="-63.5" font-family="Helvetica,sans-Serif" font-size="10.00">OgreHlmsMaterialBase.h</text>
</a>
</g>
</g>
<!-- Node2&#45;&gt;Node4 -->
<g id="edge14" class="edge"><title>Node2&#45;&gt;Node4</title>
<path fill="none" stroke="midnightblue" d="M505.547,-236.914C509.447,-236.207 513.379,-235.549 517.148,-235 560.321,-228.713 878.747,-231.233 908.148,-199 922.575,-183.184 941.878,-150.864 902.148,-112 859.486,-70.2681 455.351,-66.5328 297.181,-66.6874"/>
<polygon fill="midnightblue" stroke="midnightblue" points="504.583,-233.535 495.423,-238.858 505.904,-240.409 504.583,-233.535"/>
</g>
<!-- Node5 -->
<g id="node5" class="node"><title>Node5</title>
<g id="a_node5"><a xlink:href="_ogre_hlms_pbs_material_8h.html" target="_top" xlink:title="OgreHlmsPbsMaterial.h">
<polygon fill="none" stroke="black" points="54.6483,-0.5 54.6483,-19.5 175.648,-19.5 175.648,-0.5 54.6483,-0.5"/>
<text text-anchor="middle" x="115.148" y="-7.5" font-family="Helvetica,sans-Serif" font-size="10.00">OgreHlmsPbsMaterial.h</text>
</a>
</g>
</g>
<!-- Node2&#45;&gt;Node5 -->
<g id="edge15" class="edge"><title>Node2&#45;&gt;Node5</title>
<path fill="none" stroke="midnightblue" d="M438.838,-243.244C338.377,-240.625 43.5277,-230.311 15.1483,-199 -38.106,-140.244 68.0883,-47.9629 103.918,-19.5876"/>
<polygon fill="midnightblue" stroke="midnightblue" points="438.938,-246.748 449.023,-243.501 439.114,-239.75 438.938,-246.748"/>
</g>
<!-- Node6 -->
<g id="node6" class="node"><title>Node6</title>
<g id="a_node6"><a xlink:href="_ogre_hlms_property_map_8h.html" target="_top" xlink:title="OgreHlmsPropertyMap.h">
<polygon fill="none" stroke="black" points="220.648,-179.5 220.648,-198.5 345.648,-198.5 345.648,-179.5 220.648,-179.5"/>
<text text-anchor="middle" x="283.148" y="-186.5" font-family="Helvetica,sans-Serif" font-size="10.00">OgreHlmsPropertyMap.h</text>
</a>
</g>
</g>
<!-- Node2&#45;&gt;Node6 -->
<g id="edge5" class="edge"><title>Node2&#45;&gt;Node6</title>
<path fill="none" stroke="midnightblue" d="M439.073,-234.55C403.48,-224.38 347.373,-208.35 313.057,-198.545"/>
<polygon fill="midnightblue" stroke="midnightblue" points="438.396,-237.997 448.973,-237.379 440.319,-231.266 438.396,-237.997"/>
</g>
<!-- Node7 -->
<g id="node7" class="node"><title>Node7</title>
<g id="a_node7"><a xlink:href="_ogre_hlms_shader_generator_8h.html" target="_top" xlink:title="OgreHlmsShaderGenerator.h">
<polygon fill="none" stroke="black" points="305.648,-118 305.648,-137 448.648,-137 448.648,-118 305.648,-118"/>
<text text-anchor="middle" x="377.148" y="-125" font-family="Helvetica,sans-Serif" font-size="10.00">OgreHlmsShaderGenerator.h</text>
</a>
</g>
</g>
<!-- Node2&#45;&gt;Node7 -->
<g id="edge18" class="edge"><title>Node2&#45;&gt;Node7</title>
<path fill="none" stroke="midnightblue" d="M439.653,-232.789C423.366,-225.571 404.702,-214.58 393.148,-199 379.243,-180.249 377.097,-151.529 376.964,-137.225"/>
<polygon fill="midnightblue" stroke="midnightblue" points="438.317,-236.024 448.895,-236.609 440.991,-229.555 438.317,-236.024"/>
</g>
<!-- Node8 -->
<g id="node8" class="node"><title>Node8</title>
<g id="a_node8"><a xlink:href="_ogre_hlms_shader_template_8h.html" target="_top" xlink:title="OgreHlmsShaderTemplate.h">
<polygon fill="none" stroke="black" points="24.1483,-179.5 24.1483,-198.5 164.148,-198.5 164.148,-179.5 24.1483,-179.5"/>
<text text-anchor="middle" x="94.1483" y="-186.5" font-family="Helvetica,sans-Serif" font-size="10.00">OgreHlmsShaderTemplate.h</text>
</a>
</g>
</g>
<!-- Node2&#45;&gt;Node8 -->
<g id="edge9" class="edge"><title>Node2&#45;&gt;Node8</title>
<path fill="none" stroke="midnightblue" d="M439.165,-239.288C375.403,-230.179 234.43,-210.04 153.806,-198.523"/>
<polygon fill="midnightblue" stroke="midnightblue" points="438.677,-242.754 449.072,-240.703 439.667,-235.824 438.677,-242.754"/>
</g>
<!-- Node9 -->
<g id="node9" class="node"><title>Node9</title>
<g id="a_node9"><a xlink:href="_ogre_hlms_manager_8h.html" target="_top" xlink:title="OgreHlmsManager.h">
<polygon fill="none" stroke="black" points="786.648,-118 786.648,-137 893.648,-137 893.648,-118 786.648,-118"/>
<text text-anchor="middle" x="840.148" y="-125" font-family="Helvetica,sans-Serif" font-size="10.00">OgreHlmsManager.h</text>
</a>
</g>
</g>
<!-- Node2&#45;&gt;Node9 -->
<g id="edge11" class="edge"><title>Node2&#45;&gt;Node9</title>
<path fill="none" stroke="midnightblue" d="M505.549,-236.929C509.449,-236.219 513.38,-235.557 517.148,-235 558.448,-228.898 863.078,-229.902 891.148,-199 909.838,-178.425 875.314,-151.006 854.417,-137.211"/>
<polygon fill="midnightblue" stroke="midnightblue" points="504.584,-233.55 495.426,-238.877 505.907,-240.424 504.584,-233.55"/>
</g>
<!-- Node10 -->
<g id="node10" class="node"><title>Node10</title>
<g id="a_node10"><a xlink:href="_ogre_hlms_shader_manager_8h.html" target="_top" xlink:title="OgreHlmsShaderManager.h">
<polygon fill="none" stroke="black" points="745.648,-179.5 745.648,-198.5 882.648,-198.5 882.648,-179.5 745.648,-179.5"/>
<text text-anchor="middle" x="814.148" y="-186.5" font-family="Helvetica,sans-Serif" font-size="10.00">OgreHlmsShaderManager.h</text>
</a>
</g>
</g>
<!-- Node2&#45;&gt;Node10 -->
<g id="edge12" class="edge"><title>Node2&#45;&gt;Node10</title>
<path fill="none" stroke="midnightblue" d="M505.582,-237.132C509.476,-236.386 513.396,-235.659 517.148,-235 598.176,-220.767 692.119,-206.988 752.293,-198.508"/>
<polygon fill="midnightblue" stroke="midnightblue" points="504.602,-233.758 495.465,-239.12 505.952,-240.626 504.602,-233.758"/>
</g>
<!-- Node11 -->
<g id="node11" class="node"><title>Node11</title>
<g id="a_node11"><a xlink:href="_ogre_hlms_shader_common_8h.html" target="_top" xlink:title="OgreHlmsShaderCommon.h">
<polygon fill="none" stroke="black" points="402.148,-179.5 402.148,-198.5 542.148,-198.5 542.148,-179.5 402.148,-179.5"/>
<text text-anchor="middle" x="472.148" y="-186.5" font-family="Helvetica,sans-Serif" font-size="10.00">OgreHlmsShaderCommon.h</text>
</a>
</g>
</g>
<!-- Node2&#45;&gt;Node11 -->
<g id="edge16" class="edge"><title>Node2&#45;&gt;Node11</title>
<path fill="none" stroke="midnightblue" d="M472.148,-224.805C472.148,-215.91 472.148,-205.78 472.148,-198.751"/>
<polygon fill="midnightblue" stroke="midnightblue" points="468.648,-225.083 472.148,-235.083 475.648,-225.083 468.648,-225.083"/>
</g>
<!-- Node12 -->
<g id="node12" class="node"><title>Node12</title>
<g id="a_node12"><a xlink:href="_ogre_hlms_shader_pieces_manager_8h.html" target="_top" xlink:title="OgreHlmsShaderPiecesManager.h">
<polygon fill="none" stroke="black" points="560.648,-179.5 560.648,-198.5 727.648,-198.5 727.648,-179.5 560.648,-179.5"/>
<text text-anchor="middle" x="644.148" y="-186.5" font-family="Helvetica,sans-Serif" font-size="10.00">OgreHlmsShaderPiecesManager.h</text>
</a>
</g>
</g>
<!-- Node2&#45;&gt;Node12 -->
<g id="edge19" class="edge"><title>Node2&#45;&gt;Node12</title>
<path fill="none" stroke="midnightblue" d="M505.251,-233.607C537.673,-223.428 586.496,-208.1 616.787,-198.59"/>
<polygon fill="midnightblue" stroke="midnightblue" points="503.837,-230.383 495.345,-236.717 505.934,-237.061 503.837,-230.383"/>
</g>
<!-- Node3&#45;&gt;Node4 -->
<g id="edge3" class="edge"><title>Node3&#45;&gt;Node4</title>
<path fill="none" stroke="midnightblue" d="M204.145,-109.505C211.992,-98.388 221.909,-84.3395 228.142,-75.5091"/>
<polygon fill="midnightblue" stroke="midnightblue" points="201.073,-107.787 198.166,-117.975 206.792,-111.824 201.073,-107.787"/>
</g>
<!-- Node4&#45;&gt;Node5 -->
<g id="edge4" class="edge"><title>Node4&#45;&gt;Node5</title>
<path fill="none" stroke="midnightblue" d="M206.012,-52.2321C183.752,-42.1312 153.292,-28.3091 133.916,-19.5164"/>
<polygon fill="midnightblue" stroke="midnightblue" points="204.74,-55.4984 215.292,-56.4435 207.632,-49.124 204.74,-55.4984"/>
</g>
<!-- Node6&#45;&gt;Node3 -->
<g id="edge6" class="edge"><title>Node6&#45;&gt;Node3</title>
<path fill="none" stroke="midnightblue" d="M261.629,-173.93C244.085,-162.459 219.883,-146.634 205.162,-137.009"/>
<polygon fill="midnightblue" stroke="midnightblue" points="259.825,-176.932 270.11,-179.475 263.656,-171.073 259.825,-176.932"/>
</g>
<!-- Node6&#45;&gt;Node4 -->
<g id="edge7" class="edge"><title>Node6&#45;&gt;Node4</title>
<path fill="none" stroke="midnightblue" d="M277.635,-169.503C272.804,-153.941 265.297,-131.216 257.148,-112 251.668,-99.0759 244.054,-84.7288 239.114,-75.7859"/>
<polygon fill="midnightblue" stroke="midnightblue" points="274.392,-170.868 280.651,-179.417 281.089,-168.831 274.392,-170.868"/>
</g>
<!-- Node6&#45;&gt;Node7 -->
<g id="edge8" class="edge"><title>Node6&#45;&gt;Node7</title>
<path fill="none" stroke="midnightblue" d="M305.377,-173.93C323.499,-162.459 348.499,-146.634 363.705,-137.009"/>
<polygon fill="midnightblue" stroke="midnightblue" points="303.194,-171.169 296.616,-179.475 306.938,-177.084 303.194,-171.169"/>
</g>
<!-- Node8&#45;&gt;Node3 -->
<g id="edge10" class="edge"><title>Node8&#45;&gt;Node3</title>
<path fill="none" stroke="midnightblue" d="M116.805,-174.244C135.737,-162.75 162.135,-146.723 178.133,-137.009"/>
<polygon fill="midnightblue" stroke="midnightblue" points="114.921,-171.294 108.189,-179.475 118.554,-177.277 114.921,-171.294"/>
</g>
<!-- Node10&#45;&gt;Node9 -->
<g id="edge13" class="edge"><title>Node10&#45;&gt;Node9</title>
<path fill="none" stroke="midnightblue" d="M822.015,-169.997C826.799,-159.05 832.687,-145.575 836.43,-137.009"/>
<polygon fill="midnightblue" stroke="midnightblue" points="818.67,-168.91 817.873,-179.475 825.085,-171.713 818.67,-168.91"/>
</g>
<!-- Node11&#45;&gt;Node7 -->
<g id="edge17" class="edge"><title>Node11&#45;&gt;Node7</title>
<path fill="none" stroke="midnightblue" d="M449.934,-174.087C431.6,-162.604 406.173,-146.678 390.734,-137.009"/>
<polygon fill="midnightblue" stroke="midnightblue" points="448.204,-177.133 458.537,-179.475 451.92,-171.201 448.204,-177.133"/>
</g>
<!-- Node18 -->
<g id="node18" class="node"><title>Node18</title>
<g id="a_node18"><a xlink:href="_ogre_g_l_s_l_program_manager_8h.html" target="_top" xlink:title="OgreGLSLProgramManager.h">
<polygon fill="none" stroke="black" points="1143.65,-179.5 1143.65,-198.5 1288.65,-198.5 1288.65,-179.5 1143.65,-179.5"/>
<text text-anchor="middle" x="1216.15" y="-186.5" font-family="Helvetica,sans-Serif" font-size="10.00">OgreGLSLProgramManager.h</text>
</a>
</g>
</g>
<!-- Node17&#45;&gt;Node18 -->
<g id="edge25" class="edge"><title>Node17&#45;&gt;Node18</title>
<path fill="none" stroke="midnightblue" d="M1207.7,-225.101C1209.86,-216.136 1212.33,-205.858 1214.04,-198.751"/>
<polygon fill="midnightblue" stroke="midnightblue" points="1204.23,-224.542 1205.29,-235.083 1211.04,-226.18 1204.23,-224.542"/>
</g>
<!-- Node21 -->
<g id="node21" class="node"><title>Node21</title>
<g id="a_node21"><a xlink:href="_ogre_g_l3_plus_render_system_8h.html" target="_top" xlink:title="OgreGL3PlusRenderSystem.h">
<polygon fill="none" stroke="black" points="976.648,-179.5 976.648,-198.5 1125.65,-198.5 1125.65,-179.5 976.648,-179.5"/>
<text text-anchor="middle" x="1051.15" y="-186.5" font-family="Helvetica,sans-Serif" font-size="10.00">OgreGL3PlusRenderSystem.h</text>
</a>
</g>
</g>
<!-- Node17&#45;&gt;Node21 -->
<g id="edge28" class="edge"><title>Node17&#45;&gt;Node21</title>
<path fill="none" stroke="midnightblue" d="M1169.48,-232.039C1140.88,-221.879 1100.54,-207.546 1075.12,-198.516"/>
<polygon fill="midnightblue" stroke="midnightblue" points="1168.47,-235.394 1179.06,-235.444 1170.81,-228.798 1168.47,-235.394"/>
</g>
<!-- Node19 -->
<g id="node19" class="node"><title>Node19</title>
<g id="a_node19"><a xlink:href="_ogre_g_l_s_l_monolithic_program_manager_8h.html" target="_top" xlink:title="OgreGLSLMonolithicProgram\lManager.h">
<polygon fill="none" stroke="black" points="1063.65,-112.5 1063.65,-142.5 1206.65,-142.5 1206.65,-112.5 1063.65,-112.5"/>
<text text-anchor="start" x="1071.65" y="-130.5" font-family="Helvetica,sans-Serif" font-size="10.00">OgreGLSLMonolithicProgram</text>
<text text-anchor="middle" x="1135.15" y="-119.5" font-family="Helvetica,sans-Serif" font-size="10.00">Manager.h</text>
</a>
</g>
</g>
<!-- Node18&#45;&gt;Node19 -->
<g id="edge26" class="edge"><title>Node18&#45;&gt;Node19</title>
<path fill="none" stroke="midnightblue" d="M1196.37,-173.468C1183.54,-164.047 1166.92,-151.841 1154.24,-142.523"/>
<polygon fill="midnightblue" stroke="midnightblue" points="1194.41,-176.376 1204.54,-179.475 1198.56,-170.734 1194.41,-176.376"/>
</g>
<!-- Node20 -->
<g id="node20" class="node"><title>Node20</title>
<g id="a_node20"><a xlink:href="_ogre_g_l_s_l_separable_program_manager_8h.html" target="_top" xlink:title="OgreGLSLSeparableProgram\lManager.h">
<polygon fill="none" stroke="black" points="1224.65,-112.5 1224.65,-142.5 1367.65,-142.5 1367.65,-112.5 1224.65,-112.5"/>
<text text-anchor="start" x="1232.65" y="-130.5" font-family="Helvetica,sans-Serif" font-size="10.00">OgreGLSLSeparableProgram</text>
<text text-anchor="middle" x="1296.15" y="-119.5" font-family="Helvetica,sans-Serif" font-size="10.00">Manager.h</text>
</a>
</g>
</g>
<!-- Node18&#45;&gt;Node20 -->
<g id="edge27" class="edge"><title>Node18&#45;&gt;Node20</title>
<path fill="none" stroke="midnightblue" d="M1235.69,-173.468C1248.35,-164.047 1264.77,-151.841 1277.29,-142.523"/>
<polygon fill="midnightblue" stroke="midnightblue" points="1233.55,-170.699 1227.61,-179.475 1237.72,-176.316 1233.55,-170.699"/>
</g>
<!-- Node23 -->
<g id="node23" class="node"><title>Node23</title>
<g id="a_node23"><a xlink:href="_ogre_g_l_s_l_e_s_cg_program_8h.html" target="_top" xlink:title="OgreGLSLESCgProgram.h">
<polygon fill="none" stroke="black" points="1307.15,-179.5 1307.15,-198.5 1441.15,-198.5 1441.15,-179.5 1307.15,-179.5"/>
<text text-anchor="middle" x="1374.15" y="-186.5" font-family="Helvetica,sans-Serif" font-size="10.00">OgreGLSLESCgProgram.h</text>
</a>
</g>
</g>
<!-- Node22&#45;&gt;Node23 -->
<g id="edge30" class="edge"><title>Node22&#45;&gt;Node23</title>
<path fill="none" stroke="midnightblue" d="M1364.32,-225.396C1366.83,-216.362 1369.72,-205.936 1371.72,-198.751"/>
<polygon fill="midnightblue" stroke="midnightblue" points="1360.93,-224.511 1361.63,-235.083 1367.67,-226.385 1360.93,-224.511"/>
</g>
</g>
</svg>
