<?xml version="1.0" encoding="UTF-8" standalone="no"?>
<!DOCTYPE svg PUBLIC "-//W3C//DTD SVG 1.1//EN"
 "http://www.w3.org/Graphics/SVG/1.1/DTD/svg11.dtd">
<!-- Generated by graphviz version 2.38.0 (20140413.2041)
 -->
<!-- Title: OgreCompositorChain.h Pages: 1 -->
<svg width="3457pt" height="364pt"
 viewBox="0.00 0.00 3457.00 364.00" xmlns="http://www.w3.org/2000/svg" xmlns:xlink="http://www.w3.org/1999/xlink">
<g id="graph0" class="graph" transform="scale(1 1) rotate(0) translate(4 360)">
<title>OgreCompositorChain.h</title>
<!-- Node1 -->
<g id="node1" class="node"><title>Node1</title>
<polygon fill="#bfbfbf" stroke="black" points="632,-336.5 632,-355.5 754,-355.5 754,-336.5 632,-336.5"/>
<text text-anchor="middle" x="693" y="-343.5" font-family="Helvetica,sans-Serif" font-size="10.00">OgreCompositorChain.h</text>
</g>
<!-- Node2 -->
<g id="node2" class="node"><title>Node2</title>
<g id="a_node2"><a xlink:href="_ogre_prerequisites_8h.html" target="_top" xlink:title="OgrePrerequisites.h">
<polygon fill="none" stroke="black" points="687.5,-168.5 687.5,-187.5 790.5,-187.5 790.5,-168.5 687.5,-168.5"/>
<text text-anchor="middle" x="739" y="-175.5" font-family="Helvetica,sans-Serif" font-size="10.00">OgrePrerequisites.h</text>
</a>
</g>
</g>
<!-- Node1&#45;&gt;Node2 -->
<g id="edge1" class="edge"><title>Node1&#45;&gt;Node2</title>
<path fill="none" stroke="midnightblue" d="M722.881,-336.387C740.54,-329.587 761.451,-318.15 772,-300 791.599,-266.281 767.617,-220.511 751.445,-196.061"/>
<polygon fill="midnightblue" stroke="midnightblue" points="754.302,-194.039 745.736,-187.804 748.544,-198.02 754.302,-194.039"/>
</g>
<!-- Node38 -->
<g id="node38" class="node"><title>Node38</title>
<g id="a_node38"><a xlink:href="_ogre_header_prefix_8h.html" target="_top" xlink:title="OgreHeaderPrefix.h">
<polygon fill="none" stroke="black" points="284.5,-0.5 284.5,-19.5 387.5,-19.5 387.5,-0.5 284.5,-0.5"/>
<text text-anchor="middle" x="336" y="-7.5" font-family="Helvetica,sans-Serif" font-size="10.00">OgreHeaderPrefix.h</text>
</a>
</g>
</g>
<!-- Node1&#45;&gt;Node38 -->
<g id="edge82" class="edge"><title>Node1&#45;&gt;Node38</title>
<path fill="none" stroke="midnightblue" d="M631.805,-341.692C462.45,-331.728 0,-298.688 0,-235 0,-235 0,-235 0,-121 0,-81.3821 26.0376,-74.6336 61,-56 97.0123,-36.8069 204.987,-23.3677 274.438,-16.434"/>
<polygon fill="midnightblue" stroke="midnightblue" points="274.782,-19.9172 284.393,-15.4582 274.099,-12.9506 274.782,-19.9172"/>
</g>
<!-- Node39 -->
<g id="node39" class="node"><title>Node39</title>
<g id="a_node39"><a xlink:href="_ogre_header_suffix_8h.html" target="_top" xlink:title="OgreHeaderSuffix.h">
<polygon fill="none" stroke="black" points="656.5,-0.5 656.5,-19.5 759.5,-19.5 759.5,-0.5 656.5,-0.5"/>
<text text-anchor="middle" x="708" y="-7.5" font-family="Helvetica,sans-Serif" font-size="10.00">OgreHeaderSuffix.h</text>
</a>
</g>
</g>
<!-- Node1&#45;&gt;Node39 -->
<g id="edge83" class="edge"><title>Node1&#45;&gt;Node39</title>
<path fill="none" stroke="midnightblue" d="M754.207,-344.957C1117.93,-344.565 2987.91,-340.577 3240,-300 3336.04,-284.541 3449,-332.278 3449,-235 3449,-235 3449,-235 3449,-121 3449,-80.1449 3421.61,-71.9513 3384,-56 3321.82,-29.6308 1164.17,-14.0342 769.618,-11.3994"/>
<polygon fill="midnightblue" stroke="midnightblue" points="769.564,-7.89907 759.541,-11.3324 769.517,-14.8989 769.564,-7.89907"/>
</g>
<!-- Node42 -->
<g id="node42" class="node"><title>Node42</title>
<g id="a_node42"><a xlink:href="_ogre_render_target_listener_8h.html" target="_top" xlink:title="OgreRenderTargetListener.h">
<polygon fill="none" stroke="black" points="465,-280.5 465,-299.5 605,-299.5 605,-280.5 465,-280.5"/>
<text text-anchor="middle" x="535" y="-287.5" font-family="Helvetica,sans-Serif" font-size="10.00">OgreRenderTargetListener.h</text>
</a>
</g>
</g>
<!-- Node1&#45;&gt;Node42 -->
<g id="edge50" class="edge"><title>Node1&#45;&gt;Node42</title>
<path fill="none" stroke="midnightblue" d="M667.964,-336.444C641.384,-327.359 599.191,-312.939 569.477,-302.783"/>
<polygon fill="midnightblue" stroke="midnightblue" points="570.513,-299.439 559.918,-299.516 568.249,-306.062 570.513,-299.439"/>
</g>
<!-- Node43 -->
<g id="node43" class="node"><title>Node43</title>
<g id="a_node43"><a xlink:href="_ogre_render_queue_listener_8h.html" target="_top" xlink:title="OgreRenderQueueListener.h">
<polygon fill="none" stroke="black" points="623,-280.5 623,-299.5 763,-299.5 763,-280.5 623,-280.5"/>
<text text-anchor="middle" x="693" y="-287.5" font-family="Helvetica,sans-Serif" font-size="10.00">OgreRenderQueueListener.h</text>
</a>
</g>
</g>
<!-- Node1&#45;&gt;Node43 -->
<g id="edge52" class="edge"><title>Node1&#45;&gt;Node43</title>
<path fill="none" stroke="midnightblue" d="M693,-336.083C693,-329.006 693,-318.861 693,-309.986"/>
<polygon fill="midnightblue" stroke="midnightblue" points="696.5,-309.751 693,-299.751 689.5,-309.751 696.5,-309.751"/>
</g>
<!-- Node45 -->
<g id="node45" class="node"><title>Node45</title>
<g id="a_node45"><a xlink:href="_ogre_compositor_instance_8h.html" target="_top" xlink:title="OgreCompositorInstance.h">
<polygon fill="none" stroke="black" points="309,-280.5 309,-299.5 443,-299.5 443,-280.5 309,-280.5"/>
<text text-anchor="middle" x="376" y="-287.5" font-family="Helvetica,sans-Serif" font-size="10.00">OgreCompositorInstance.h</text>
</a>
</g>
</g>
<!-- Node1&#45;&gt;Node45 -->
<g id="edge58" class="edge"><title>Node1&#45;&gt;Node45</title>
<path fill="none" stroke="midnightblue" d="M642.77,-336.444C586.659,-326.885 495.87,-311.419 436.052,-301.23"/>
<polygon fill="midnightblue" stroke="midnightblue" points="436.44,-297.745 425.995,-299.516 435.265,-304.646 436.44,-297.745"/>
</g>
<!-- Node48 -->
<g id="node48" class="node"><title>Node48</title>
<g id="a_node48"><a xlink:href="_ogre_viewport_8h.html" target="_top" xlink:title="OgreViewport.h">
<polygon fill="none" stroke="black" points="3147,-280.5 3147,-299.5 3231,-299.5 3231,-280.5 3147,-280.5"/>
<text text-anchor="middle" x="3189" y="-287.5" font-family="Helvetica,sans-Serif" font-size="10.00">OgreViewport.h</text>
</a>
</g>
</g>
<!-- Node1&#45;&gt;Node48 -->
<g id="edge71" class="edge"><title>Node1&#45;&gt;Node48</title>
<path fill="none" stroke="midnightblue" d="M754.079,-343.679C1100.4,-336.186 2813.26,-299.129 3136.37,-292.139"/>
<polygon fill="midnightblue" stroke="midnightblue" points="3136.92,-295.628 3146.84,-291.912 3136.77,-288.629 3136.92,-295.628"/>
</g>
<!-- Node3 -->
<g id="node3" class="node"><title>Node3</title>
<g id="a_node3"><a xlink:href="_ogre_platform_8h.html" target="_top" xlink:title="OgrePlatform.h">
<polygon fill="none" stroke="black" points="808.5,-112.5 808.5,-131.5 891.5,-131.5 891.5,-112.5 808.5,-112.5"/>
<text text-anchor="middle" x="850" y="-119.5" font-family="Helvetica,sans-Serif" font-size="10.00">OgrePlatform.h</text>
</a>
</g>
</g>
<!-- Node2&#45;&gt;Node3 -->
<g id="edge2" class="edge"><title>Node2&#45;&gt;Node3</title>
<path fill="none" stroke="midnightblue" d="M756.834,-168.324C774.716,-159.625 802.475,-146.12 823.046,-136.113"/>
<polygon fill="midnightblue" stroke="midnightblue" points="824.749,-139.177 832.21,-131.655 821.687,-132.882 824.749,-139.177"/>
</g>
<!-- Node5 -->
<g id="node5" class="node"><title>Node5</title>
<polygon fill="none" stroke="#bfbfbf" points="936.5,-56.5 936.5,-75.5 977.5,-75.5 977.5,-56.5 936.5,-56.5"/>
<text text-anchor="middle" x="957" y="-63.5" font-family="Helvetica,sans-Serif" font-size="10.00">string</text>
</g>
<!-- Node2&#45;&gt;Node5 -->
<g id="edge4" class="edge"><title>Node2&#45;&gt;Node5</title>
<path fill="none" stroke="midnightblue" d="M790.679,-170.331C823.88,-164.242 866.84,-152.869 900,-132 919.382,-119.802 935.908,-99.0548 946.098,-84.2819"/>
<polygon fill="midnightblue" stroke="midnightblue" points="949.251,-85.859 951.845,-75.5867 943.411,-81.9991 949.251,-85.859"/>
</g>
<!-- Node6 -->
<g id="node6" class="node"><title>Node6</title>
<g id="a_node6"><a xlink:href="_ogre_std_headers_8h.html" target="_top" xlink:title="OgreStdHeaders.h">
<polygon fill="none" stroke="black" points="2087,-112.5 2087,-131.5 2185,-131.5 2185,-112.5 2087,-112.5"/>
<text text-anchor="middle" x="2136" y="-119.5" font-family="Helvetica,sans-Serif" font-size="10.00">OgreStdHeaders.h</text>
</a>
</g>
</g>
<!-- Node2&#45;&gt;Node6 -->
<g id="edge5" class="edge"><title>Node2&#45;&gt;Node6</title>
<path fill="none" stroke="midnightblue" d="M790.795,-174.998C1008.06,-166.6 1845.32,-134.236 2076.55,-125.298"/>
<polygon fill="midnightblue" stroke="midnightblue" points="2076.92,-128.787 2086.77,-124.903 2076.65,-121.792 2076.92,-128.787"/>
</g>
<!-- Node36 -->
<g id="node36" class="node"><title>Node36</title>
<g id="a_node36"><a xlink:href="_ogre_memory_allocator_config_8h.html" target="_top" xlink:title="This file configures Ogre&#39;s memory allocators. ">
<polygon fill="none" stroke="black" points="532,-112.5 532,-131.5 680,-131.5 680,-112.5 532,-112.5"/>
<text text-anchor="middle" x="606" y="-119.5" font-family="Helvetica,sans-Serif" font-size="10.00">OgreMemoryAllocatorConfig.h</text>
</a>
</g>
</g>
<!-- Node2&#45;&gt;Node36 -->
<g id="edge36" class="edge"><title>Node2&#45;&gt;Node36</title>
<path fill="none" stroke="midnightblue" d="M717.926,-168.444C695.94,-159.517 661.266,-145.439 636.336,-135.317"/>
<polygon fill="midnightblue" stroke="midnightblue" points="637.558,-132.035 626.976,-131.516 634.924,-138.521 637.558,-132.035"/>
</g>
<!-- Node4 -->
<g id="node4" class="node"><title>Node4</title>
<g id="a_node4"><a xlink:href="_ogre_config_8h.html" target="_top" xlink:title="OgreConfig.h">
<polygon fill="none" stroke="red" points="844,-56.5 844,-75.5 918,-75.5 918,-56.5 844,-56.5"/>
<text text-anchor="middle" x="881" y="-63.5" font-family="Helvetica,sans-Serif" font-size="10.00">OgreConfig.h</text>
</a>
</g>
</g>
<!-- Node3&#45;&gt;Node4 -->
<g id="edge3" class="edge"><title>Node3&#45;&gt;Node4</title>
<path fill="none" stroke="midnightblue" d="M855.119,-112.083C859.408,-104.613 865.658,-93.7244 870.942,-84.5199"/>
<polygon fill="midnightblue" stroke="midnightblue" points="874.033,-86.1662 875.976,-75.7511 867.962,-82.6811 874.033,-86.1662"/>
</g>
<!-- Node6&#45;&gt;Node5 -->
<g id="edge15" class="edge"><title>Node6&#45;&gt;Node5</title>
<path fill="none" stroke="midnightblue" d="M2086.7,-120.785C1898.24,-119.701 1222.69,-113.356 987.924,-75.8469"/>
<polygon fill="midnightblue" stroke="midnightblue" points="988.189,-72.3428 977.75,-74.1533 987.039,-79.2478 988.189,-72.3428"/>
</g>
<!-- Node7 -->
<g id="node7" class="node"><title>Node7</title>
<polygon fill="none" stroke="#bfbfbf" points="1731.5,-56.5 1731.5,-75.5 1780.5,-75.5 1780.5,-56.5 1731.5,-56.5"/>
<text text-anchor="middle" x="1756" y="-63.5" font-family="Helvetica,sans-Serif" font-size="10.00">cassert</text>
</g>
<!-- Node6&#45;&gt;Node7 -->
<g id="edge6" class="edge"><title>Node6&#45;&gt;Node7</title>
<path fill="none" stroke="midnightblue" d="M2086.97,-116.641C2021.6,-110.385 1902.17,-97.4066 1790.85,-75.9285"/>
<polygon fill="midnightblue" stroke="midnightblue" points="1791.28,-72.4465 1780.8,-73.9605 1789.94,-79.3162 1791.28,-72.4465"/>
</g>
<!-- Node8 -->
<g id="node8" class="node"><title>Node8</title>
<polygon fill="none" stroke="#bfbfbf" points="1798.5,-56.5 1798.5,-75.5 1841.5,-75.5 1841.5,-56.5 1798.5,-56.5"/>
<text text-anchor="middle" x="1820" y="-63.5" font-family="Helvetica,sans-Serif" font-size="10.00">cstdio</text>
</g>
<!-- Node6&#45;&gt;Node8 -->
<g id="edge7" class="edge"><title>Node6&#45;&gt;Node8</title>
<path fill="none" stroke="midnightblue" d="M2086.98,-115.169C2031.98,-108.203 1939.96,-95.2804 1851.52,-75.8566"/>
<polygon fill="midnightblue" stroke="midnightblue" points="1852.11,-72.4029 1841.59,-73.6447 1850.59,-79.2354 1852.11,-72.4029"/>
</g>
<!-- Node9 -->
<g id="node9" class="node"><title>Node9</title>
<polygon fill="none" stroke="#bfbfbf" points="1859.5,-56.5 1859.5,-75.5 1904.5,-75.5 1904.5,-56.5 1859.5,-56.5"/>
<text text-anchor="middle" x="1882" y="-63.5" font-family="Helvetica,sans-Serif" font-size="10.00">cstdlib</text>
</g>
<!-- Node6&#45;&gt;Node9 -->
<g id="edge8" class="edge"><title>Node6&#45;&gt;Node9</title>
<path fill="none" stroke="midnightblue" d="M2088.57,-112.441C2045.58,-104.447 1980.3,-91.7181 1914.4,-75.9489"/>
<polygon fill="midnightblue" stroke="midnightblue" points="1915.21,-72.5457 1904.67,-73.6004 1913.57,-79.3501 1915.21,-72.5457"/>
</g>
<!-- Node10 -->
<g id="node10" class="node"><title>Node10</title>
<polygon fill="none" stroke="#bfbfbf" points="1922.5,-56.5 1922.5,-75.5 1963.5,-75.5 1963.5,-56.5 1922.5,-56.5"/>
<text text-anchor="middle" x="1943" y="-63.5" font-family="Helvetica,sans-Serif" font-size="10.00">ctime</text>
</g>
<!-- Node6&#45;&gt;Node10 -->
<g id="edge9" class="edge"><title>Node6&#45;&gt;Node10</title>
<path fill="none" stroke="midnightblue" d="M2104.39,-112.495C2073.43,-104.118 2024.7,-90.7984 1973.27,-76.0305"/>
<polygon fill="midnightblue" stroke="midnightblue" points="1974.22,-72.6613 1963.64,-73.257 1972.28,-79.3879 1974.22,-72.6613"/>
</g>
<!-- Node11 -->
<g id="node11" class="node"><title>Node11</title>
<polygon fill="none" stroke="#bfbfbf" points="1982,-56.5 1982,-75.5 2028,-75.5 2028,-56.5 1982,-56.5"/>
<text text-anchor="middle" x="2005" y="-63.5" font-family="Helvetica,sans-Serif" font-size="10.00">cstring</text>
</g>
<!-- Node6&#45;&gt;Node11 -->
<g id="edge10" class="edge"><title>Node6&#45;&gt;Node11</title>
<path fill="none" stroke="midnightblue" d="M2115.24,-112.444C2093.68,-103.557 2059.74,-89.5632 2035.21,-79.4514"/>
<polygon fill="midnightblue" stroke="midnightblue" points="2036.24,-76.0917 2025.66,-75.5164 2033.57,-82.5634 2036.24,-76.0917"/>
</g>
<!-- Node12 -->
<g id="node12" class="node"><title>Node12</title>
<polygon fill="none" stroke="#bfbfbf" points="2046.5,-56.5 2046.5,-75.5 2095.5,-75.5 2095.5,-56.5 2046.5,-56.5"/>
<text text-anchor="middle" x="2071" y="-63.5" font-family="Helvetica,sans-Serif" font-size="10.00">cstdarg</text>
</g>
<!-- Node6&#45;&gt;Node12 -->
<g id="edge11" class="edge"><title>Node6&#45;&gt;Node12</title>
<path fill="none" stroke="midnightblue" d="M2125.56,-112.324C2115.85,-104.263 2101.18,-92.0765 2089.5,-82.3695"/>
<polygon fill="midnightblue" stroke="midnightblue" points="2091.56,-79.532 2081.63,-75.8339 2087.09,-84.9163 2091.56,-79.532"/>
</g>
<!-- Node13 -->
<g id="node13" class="node"><title>Node13</title>
<polygon fill="none" stroke="#bfbfbf" points="2114,-56.5 2114,-75.5 2158,-75.5 2158,-56.5 2114,-56.5"/>
<text text-anchor="middle" x="2136" y="-63.5" font-family="Helvetica,sans-Serif" font-size="10.00">cmath</text>
</g>
<!-- Node6&#45;&gt;Node13 -->
<g id="edge12" class="edge"><title>Node6&#45;&gt;Node13</title>
<path fill="none" stroke="midnightblue" d="M2136,-112.083C2136,-105.006 2136,-94.8611 2136,-85.9865"/>
<polygon fill="midnightblue" stroke="midnightblue" points="2139.5,-85.751 2136,-75.7511 2132.5,-85.7511 2139.5,-85.751"/>
</g>
<!-- Node14 -->
<g id="node14" class="node"><title>Node14</title>
<polygon fill="none" stroke="#bfbfbf" points="2176,-56.5 2176,-75.5 2220,-75.5 2220,-56.5 2176,-56.5"/>
<text text-anchor="middle" x="2198" y="-63.5" font-family="Helvetica,sans-Serif" font-size="10.00">vector</text>
</g>
<!-- Node6&#45;&gt;Node14 -->
<g id="edge13" class="edge"><title>Node6&#45;&gt;Node14</title>
<path fill="none" stroke="midnightblue" d="M2145.96,-112.324C2155.13,-104.341 2168.94,-92.3128 2180.03,-82.6529"/>
<polygon fill="midnightblue" stroke="midnightblue" points="2182.62,-85.041 2187.86,-75.8339 2178.02,-79.7624 2182.62,-85.041"/>
</g>
<!-- Node15 -->
<g id="node15" class="node"><title>Node15</title>
<polygon fill="none" stroke="#bfbfbf" points="2238.5,-56.5 2238.5,-75.5 2273.5,-75.5 2273.5,-56.5 2238.5,-56.5"/>
<text text-anchor="middle" x="2256" y="-63.5" font-family="Helvetica,sans-Serif" font-size="10.00">map</text>
</g>
<!-- Node6&#45;&gt;Node15 -->
<g id="edge14" class="edge"><title>Node6&#45;&gt;Node15</title>
<path fill="none" stroke="midnightblue" d="M2155.01,-112.444C2174.93,-103.48 2206.4,-89.3221 2228.91,-79.1914"/>
<polygon fill="midnightblue" stroke="midnightblue" points="2230.57,-82.2837 2238.25,-74.9883 2227.69,-75.9003 2230.57,-82.2837"/>
</g>
<!-- Node16 -->
<g id="node16" class="node"><title>Node16</title>
<polygon fill="none" stroke="#bfbfbf" points="2292,-56.5 2292,-75.5 2322,-75.5 2322,-56.5 2292,-56.5"/>
<text text-anchor="middle" x="2307" y="-63.5" font-family="Helvetica,sans-Serif" font-size="10.00">set</text>
</g>
<!-- Node6&#45;&gt;Node16 -->
<g id="edge16" class="edge"><title>Node6&#45;&gt;Node16</title>
<path fill="none" stroke="midnightblue" d="M2165.74,-112.483C2193.63,-104.364 2236.69,-91.5051 2282.35,-76.0795"/>
<polygon fill="midnightblue" stroke="midnightblue" points="2283.48,-79.392 2291.82,-72.8555 2281.22,-72.7656 2283.48,-79.392"/>
</g>
<!-- Node17 -->
<g id="node17" class="node"><title>Node17</title>
<polygon fill="none" stroke="#bfbfbf" points="2340.5,-56.5 2340.5,-75.5 2369.5,-75.5 2369.5,-56.5 2340.5,-56.5"/>
<text text-anchor="middle" x="2355" y="-63.5" font-family="Helvetica,sans-Serif" font-size="10.00">list</text>
</g>
<!-- Node6&#45;&gt;Node17 -->
<g id="edge17" class="edge"><title>Node6&#45;&gt;Node17</title>
<path fill="none" stroke="midnightblue" d="M2180.58,-112.459C2218.21,-104.859 2273.63,-92.7577 2330.5,-75.8198"/>
<polygon fill="midnightblue" stroke="midnightblue" points="2331.82,-79.0765 2340.38,-72.8315 2329.8,-72.3762 2331.82,-79.0765"/>
</g>
<!-- Node18 -->
<g id="node18" class="node"><title>Node18</title>
<polygon fill="none" stroke="#bfbfbf" points="2387.5,-56.5 2387.5,-75.5 2430.5,-75.5 2430.5,-56.5 2387.5,-56.5"/>
<text text-anchor="middle" x="2409" y="-63.5" font-family="Helvetica,sans-Serif" font-size="10.00">deque</text>
</g>
<!-- Node6&#45;&gt;Node18 -->
<g id="edge18" class="edge"><title>Node6&#45;&gt;Node18</title>
<path fill="none" stroke="midnightblue" d="M2185.2,-113.495C2232.31,-105.951 2305.54,-93.2886 2377.33,-76.2098"/>
<polygon fill="midnightblue" stroke="midnightblue" points="2378.55,-79.5169 2387.45,-73.7706 2376.9,-72.7118 2378.55,-79.5169"/>
</g>
<!-- Node19 -->
<g id="node19" class="node"><title>Node19</title>
<polygon fill="none" stroke="#bfbfbf" points="2448.5,-56.5 2448.5,-75.5 2491.5,-75.5 2491.5,-56.5 2448.5,-56.5"/>
<text text-anchor="middle" x="2470" y="-63.5" font-family="Helvetica,sans-Serif" font-size="10.00">queue</text>
</g>
<!-- Node6&#45;&gt;Node19 -->
<g id="edge19" class="edge"><title>Node6&#45;&gt;Node19</title>
<path fill="none" stroke="midnightblue" d="M2185.1,-115.943C2243.47,-109.444 2343.92,-96.7187 2438.46,-76.0858"/>
<polygon fill="midnightblue" stroke="midnightblue" points="2439.46,-79.4475 2448.47,-73.8655 2437.95,-72.6135 2439.46,-79.4475"/>
</g>
<!-- Node20 -->
<g id="node20" class="node"><title>Node20</title>
<polygon fill="none" stroke="#bfbfbf" points="2509.5,-56.5 2509.5,-75.5 2550.5,-75.5 2550.5,-56.5 2509.5,-56.5"/>
<text text-anchor="middle" x="2530" y="-63.5" font-family="Helvetica,sans-Serif" font-size="10.00">bitset</text>
</g>
<!-- Node6&#45;&gt;Node20 -->
<g id="edge20" class="edge"><title>Node6&#45;&gt;Node20</title>
<path fill="none" stroke="midnightblue" d="M2185.17,-117.734C2253.78,-112.564 2382.16,-100.666 2499.35,-76.0457"/>
<polygon fill="midnightblue" stroke="midnightblue" points="2500.16,-79.4521 2509.21,-73.9391 2498.7,-72.6067 2500.16,-79.4521"/>
</g>
<!-- Node21 -->
<g id="node21" class="node"><title>Node21</title>
<polygon fill="none" stroke="#bfbfbf" points="2569,-56.5 2569,-75.5 2625,-75.5 2625,-56.5 2569,-56.5"/>
<text text-anchor="middle" x="2597" y="-63.5" font-family="Helvetica,sans-Serif" font-size="10.00">algorithm</text>
</g>
<!-- Node6&#45;&gt;Node21 -->
<g id="edge21" class="edge"><title>Node6&#45;&gt;Node21</title>
<path fill="none" stroke="midnightblue" d="M2185.26,-117.906C2262.75,-112.572 2417.95,-100.006 2558.69,-76.0156"/>
<polygon fill="midnightblue" stroke="midnightblue" points="2559.54,-79.4207 2568.8,-74.2685 2558.35,-72.523 2559.54,-79.4207"/>
</g>
<!-- Node22 -->
<g id="node22" class="node"><title>Node22</title>
<polygon fill="none" stroke="#bfbfbf" points="2643.5,-56.5 2643.5,-75.5 2702.5,-75.5 2702.5,-56.5 2643.5,-56.5"/>
<text text-anchor="middle" x="2673" y="-63.5" font-family="Helvetica,sans-Serif" font-size="10.00">functional</text>
</g>
<!-- Node6&#45;&gt;Node22 -->
<g id="edge22" class="edge"><title>Node6&#45;&gt;Node22</title>
<path fill="none" stroke="midnightblue" d="M2185.05,-118.795C2272.96,-114.358 2463.27,-102.556 2633.39,-75.8721"/>
<polygon fill="midnightblue" stroke="midnightblue" points="2633.95,-79.3276 2643.27,-74.3012 2632.85,-72.4144 2633.95,-79.3276"/>
</g>
<!-- Node23 -->
<g id="node23" class="node"><title>Node23</title>
<polygon fill="none" stroke="#bfbfbf" points="2721,-56.5 2721,-75.5 2761,-75.5 2761,-56.5 2721,-56.5"/>
<text text-anchor="middle" x="2741" y="-63.5" font-family="Helvetica,sans-Serif" font-size="10.00">limits</text>
</g>
<!-- Node6&#45;&gt;Node23 -->
<g id="edge23" class="edge"><title>Node6&#45;&gt;Node23</title>
<path fill="none" stroke="midnightblue" d="M2185.04,-120.835C2283.39,-119.717 2511.67,-113.15 2710.81,-75.7968"/>
<polygon fill="midnightblue" stroke="midnightblue" points="2711.7,-79.1897 2720.86,-73.8785 2710.39,-72.3136 2711.7,-79.1897"/>
</g>
<!-- Node24 -->
<g id="node24" class="node"><title>Node24</title>
<polygon fill="none" stroke="#bfbfbf" points="2779,-56.5 2779,-75.5 2829,-75.5 2829,-56.5 2779,-56.5"/>
<text text-anchor="middle" x="2804" y="-63.5" font-family="Helvetica,sans-Serif" font-size="10.00">fstream</text>
</g>
<!-- Node6&#45;&gt;Node24 -->
<g id="edge24" class="edge"><title>Node6&#45;&gt;Node24</title>
<path fill="none" stroke="midnightblue" d="M2185.29,-120.643C2290.85,-119.202 2546.57,-112.104 2768.97,-75.8532"/>
<polygon fill="midnightblue" stroke="midnightblue" points="2769.57,-79.3015 2778.86,-74.2171 2768.43,-72.3952 2769.57,-79.3015"/>
</g>
<!-- Node25 -->
<g id="node25" class="node"><title>Node25</title>
<polygon fill="none" stroke="#bfbfbf" points="2847.5,-56.5 2847.5,-75.5 2892.5,-75.5 2892.5,-56.5 2847.5,-56.5"/>
<text text-anchor="middle" x="2870" y="-63.5" font-family="Helvetica,sans-Serif" font-size="10.00">iosfwd</text>
</g>
<!-- Node6&#45;&gt;Node25 -->
<g id="edge25" class="edge"><title>Node6&#45;&gt;Node25</title>
<path fill="none" stroke="midnightblue" d="M2185.35,-121.381C2299.01,-121.5 2587.98,-117.469 2837.43,-75.683"/>
<polygon fill="midnightblue" stroke="midnightblue" points="2838.14,-79.1137 2847.41,-73.988 2836.96,-72.2126 2838.14,-79.1137"/>
</g>
<!-- Node26 -->
<g id="node26" class="node"><title>Node26</title>
<polygon fill="none" stroke="#bfbfbf" points="2911,-56.5 2911,-75.5 2963,-75.5 2963,-56.5 2911,-56.5"/>
<text text-anchor="middle" x="2937" y="-63.5" font-family="Helvetica,sans-Serif" font-size="10.00">sstream</text>
</g>
<!-- Node6&#45;&gt;Node26 -->
<g id="edge26" class="edge"><title>Node6&#45;&gt;Node26</title>
<path fill="none" stroke="midnightblue" d="M2185.19,-121.384C2305.82,-121.628 2625.89,-118.042 2900.58,-75.9118"/>
<polygon fill="midnightblue" stroke="midnightblue" points="2901.4,-79.3267 2910.74,-74.3321 2900.32,-72.4097 2901.4,-79.3267"/>
</g>
<!-- Node27 -->
<g id="node27" class="node"><title>Node27</title>
<polygon fill="none" stroke="#bfbfbf" points="2981,-56.5 2981,-75.5 3049,-75.5 3049,-56.5 2981,-56.5"/>
<text text-anchor="middle" x="3015" y="-63.5" font-family="Helvetica,sans-Serif" font-size="10.00">sys/types.h</text>
</g>
<!-- Node6&#45;&gt;Node27 -->
<g id="edge27" class="edge"><title>Node6&#45;&gt;Node27</title>
<path fill="none" stroke="midnightblue" d="M2185.24,-120.964C2313.24,-120.314 2667.04,-114.952 2970.49,-75.987"/>
<polygon fill="midnightblue" stroke="midnightblue" points="2971.35,-79.4056 2980.81,-74.6463 2970.45,-72.4639 2971.35,-79.4056"/>
</g>
<!-- Node28 -->
<g id="node28" class="node"><title>Node28</title>
<polygon fill="none" stroke="#bfbfbf" points="3067,-56.5 3067,-75.5 3127,-75.5 3127,-56.5 3067,-56.5"/>
<text text-anchor="middle" x="3097" y="-63.5" font-family="Helvetica,sans-Serif" font-size="10.00">sys/stat.h</text>
</g>
<!-- Node6&#45;&gt;Node28 -->
<g id="edge28" class="edge"><title>Node6&#45;&gt;Node28</title>
<path fill="none" stroke="midnightblue" d="M2185.26,-121.667C2322.23,-122.869 2719.17,-121.913 3056.89,-75.8873"/>
<polygon fill="midnightblue" stroke="midnightblue" points="3057.44,-79.3453 3066.87,-74.5124 3056.48,-72.4108 3057.44,-79.3453"/>
</g>
<!-- Node29 -->
<g id="node29" class="node"><title>Node29</title>
<polygon fill="none" stroke="#bfbfbf" points="995.5,-56.5 995.5,-75.5 1046.5,-75.5 1046.5,-56.5 995.5,-56.5"/>
<text text-anchor="middle" x="1021" y="-63.5" font-family="Helvetica,sans-Serif" font-size="10.00">unistd.h</text>
</g>
<!-- Node6&#45;&gt;Node29 -->
<g id="edge29" class="edge"><title>Node6&#45;&gt;Node29</title>
<path fill="none" stroke="midnightblue" d="M2086.95,-120.324C1906.44,-117.628 1278.46,-106.345 1056.8,-75.7235"/>
<polygon fill="midnightblue" stroke="midnightblue" points="1057.27,-72.2546 1046.87,-74.2978 1056.27,-79.1836 1057.27,-72.2546"/>
</g>
<!-- Node30 -->
<g id="node30" class="node"><title>Node30</title>
<polygon fill="none" stroke="#bfbfbf" points="1065,-56.5 1065,-75.5 1111,-75.5 1111,-56.5 1065,-56.5"/>
<text text-anchor="middle" x="1088" y="-63.5" font-family="Helvetica,sans-Serif" font-size="10.00">dlfcn.h</text>
</g>
<!-- Node6&#45;&gt;Node30 -->
<g id="edge30" class="edge"><title>Node6&#45;&gt;Node30</title>
<path fill="none" stroke="midnightblue" d="M2086.84,-120.318C1913.25,-117.682 1328.83,-106.801 1121.18,-75.7569"/>
<polygon fill="midnightblue" stroke="midnightblue" points="1121.7,-72.2964 1111.28,-74.2154 1120.62,-79.213 1121.7,-72.2964"/>
</g>
<!-- Node31 -->
<g id="node31" class="node"><title>Node31</title>
<polygon fill="none" stroke="#bfbfbf" points="1129,-56.5 1129,-75.5 1207,-75.5 1207,-56.5 1129,-56.5"/>
<text text-anchor="middle" x="1168" y="-63.5" font-family="Helvetica,sans-Serif" font-size="10.00">ext/hash_map</text>
</g>
<!-- Node6&#45;&gt;Node31 -->
<g id="edge31" class="edge"><title>Node6&#45;&gt;Node31</title>
<path fill="none" stroke="midnightblue" d="M2086.93,-120.951C1950.49,-120.313 1554.96,-115.062 1217.2,-75.9724"/>
<polygon fill="midnightblue" stroke="midnightblue" points="1217.56,-72.4911 1207.23,-74.806 1216.75,-79.4437 1217.56,-72.4911"/>
</g>
<!-- Node32 -->
<g id="node32" class="node"><title>Node32</title>
<polygon fill="none" stroke="#bfbfbf" points="1225.5,-56.5 1225.5,-75.5 1298.5,-75.5 1298.5,-56.5 1225.5,-56.5"/>
<text text-anchor="middle" x="1262" y="-63.5" font-family="Helvetica,sans-Serif" font-size="10.00">ext/hash_set</text>
</g>
<!-- Node6&#45;&gt;Node32 -->
<g id="edge32" class="edge"><title>Node6&#45;&gt;Node32</title>
<path fill="none" stroke="midnightblue" d="M2086.72,-120.781C1959.44,-119.689 1609.2,-113.357 1308.98,-76.0812"/>
<polygon fill="midnightblue" stroke="midnightblue" points="1309.12,-72.5724 1298.77,-74.7991 1308.25,-79.5179 1309.12,-72.5724"/>
</g>
<!-- Node33 -->
<g id="node33" class="node"><title>Node33</title>
<polygon fill="none" stroke="#bfbfbf" points="1316.5,-56.5 1316.5,-75.5 1387.5,-75.5 1387.5,-56.5 1316.5,-56.5"/>
<text text-anchor="middle" x="1352" y="-63.5" font-family="Helvetica,sans-Serif" font-size="10.00">sys/param.h</text>
</g>
<!-- Node6&#45;&gt;Node33 -->
<g id="edge33" class="edge"><title>Node6&#45;&gt;Node33</title>
<path fill="none" stroke="midnightblue" d="M2086.92,-120.324C1969.56,-118.212 1663.34,-109.771 1398,-75.9339"/>
<polygon fill="midnightblue" stroke="midnightblue" points="1398.15,-72.4244 1387.79,-74.616 1397.26,-79.3669 1398.15,-72.4244"/>
</g>
<!-- Node34 -->
<g id="node34" class="node"><title>Node34</title>
<polygon fill="none" stroke="#bfbfbf" points="1406,-56.5 1406,-75.5 1572,-75.5 1572,-56.5 1406,-56.5"/>
<text text-anchor="middle" x="1489" y="-63.5" font-family="Helvetica,sans-Serif" font-size="10.00">CoreFoundation/CoreFoundation.h</text>
</g>
<!-- Node6&#45;&gt;Node34 -->
<g id="edge34" class="edge"><title>Node6&#45;&gt;Node34</title>
<path fill="none" stroke="midnightblue" d="M2086.98,-117.3C1991.86,-110.062 1775.36,-93.2942 1582.29,-76.1025"/>
<polygon fill="midnightblue" stroke="midnightblue" points="1582.51,-72.6086 1572.24,-75.2054 1581.89,-79.5809 1582.51,-72.6086"/>
</g>
<!-- Node35 -->
<g id="node35" class="node"><title>Node35</title>
<polygon fill="none" stroke="#bfbfbf" points="1590,-56.5 1590,-75.5 1714,-75.5 1714,-56.5 1590,-56.5"/>
<text text-anchor="middle" x="1652" y="-63.5" font-family="Helvetica,sans-Serif" font-size="10.00">emscripten/emscripten.h</text>
</g>
<!-- Node6&#45;&gt;Node35 -->
<g id="edge35" class="edge"><title>Node6&#45;&gt;Node35</title>
<path fill="none" stroke="midnightblue" d="M2086.7,-115.911C2011.12,-108.047 1861.78,-92.2642 1724.6,-76.1724"/>
<polygon fill="midnightblue" stroke="midnightblue" points="1724.67,-72.6562 1714.33,-74.9639 1723.85,-79.6082 1724.67,-72.6562"/>
</g>
<!-- Node37 -->
<g id="node37" class="node"><title>Node37</title>
<g id="a_node37"><a xlink:href="_ogre_memory_allocated_object_8h.html" target="_top" xlink:title="OgreMemoryAllocatedObject.h">
<polygon fill="none" stroke="black" points="332,-56.5 332,-75.5 482,-75.5 482,-56.5 332,-56.5"/>
<text text-anchor="middle" x="407" y="-63.5" font-family="Helvetica,sans-Serif" font-size="10.00">OgreMemoryAllocatedObject.h</text>
</a>
</g>
</g>
<!-- Node36&#45;&gt;Node37 -->
<g id="edge37" class="edge"><title>Node36&#45;&gt;Node37</title>
<path fill="none" stroke="midnightblue" d="M574.468,-112.444C540.408,-103.201 485.994,-88.4356 448.485,-78.2572"/>
<polygon fill="midnightblue" stroke="midnightblue" points="448.952,-74.7575 438.385,-75.5164 447.119,-81.5132 448.952,-74.7575"/>
</g>
<!-- Node36&#45;&gt;Node38 -->
<g id="edge41" class="edge"><title>Node36&#45;&gt;Node38</title>
<path fill="none" stroke="midnightblue" d="M531.856,-119.722C457.186,-116.68 349.363,-106.886 323,-76 311.83,-62.914 318.14,-42.9446 325.323,-28.5942"/>
<polygon fill="midnightblue" stroke="midnightblue" points="328.459,-30.1562 330.231,-19.7107 322.332,-26.7709 328.459,-30.1562"/>
</g>
<!-- Node36&#45;&gt;Node39 -->
<g id="edge49" class="edge"><title>Node36&#45;&gt;Node39</title>
<path fill="none" stroke="midnightblue" d="M614.004,-112.368C631.06,-93.9744 671.214,-50.6712 693.116,-27.0519"/>
<polygon fill="midnightblue" stroke="midnightblue" points="695.8,-29.3039 700.033,-19.5914 690.668,-24.5443 695.8,-29.3039"/>
</g>
<!-- Node40 -->
<g id="node40" class="node"><title>Node40</title>
<g id="a_node40"><a xlink:href="_ogre_memory_s_t_l_allocator_8h.html" target="_top" xlink:title="OgreMemorySTLAllocator.h">
<polygon fill="none" stroke="black" points="688.5,-56.5 688.5,-75.5 825.5,-75.5 825.5,-56.5 688.5,-56.5"/>
<text text-anchor="middle" x="757" y="-63.5" font-family="Helvetica,sans-Serif" font-size="10.00">OgreMemorySTLAllocator.h</text>
</a>
</g>
</g>
<!-- Node36&#45;&gt;Node40 -->
<g id="edge42" class="edge"><title>Node36&#45;&gt;Node40</title>
<path fill="none" stroke="midnightblue" d="M629.926,-112.444C655.219,-103.399 695.302,-89.064 723.68,-78.9158"/>
<polygon fill="midnightblue" stroke="midnightblue" points="724.948,-82.1794 733.186,-75.5164 722.591,-75.5882 724.948,-82.1794"/>
</g>
<!-- Node41 -->
<g id="node41" class="node"><title>Node41</title>
<g id="a_node41"><a xlink:href="_ogre_memory_ned_pooling_8h.html" target="_top" xlink:title="OgreMemoryNedPooling.h">
<polygon fill="none" stroke="black" points="500.5,-56.5 500.5,-75.5 631.5,-75.5 631.5,-56.5 500.5,-56.5"/>
<text text-anchor="middle" x="566" y="-63.5" font-family="Helvetica,sans-Serif" font-size="10.00">OgreMemoryNedPooling.h</text>
</a>
</g>
</g>
<!-- Node36&#45;&gt;Node41 -->
<g id="edge46" class="edge"><title>Node36&#45;&gt;Node41</title>
<path fill="none" stroke="midnightblue" d="M599.395,-112.083C593.745,-104.455 585.455,-93.2645 578.549,-83.9408"/>
<polygon fill="midnightblue" stroke="midnightblue" points="581.247,-81.7034 572.482,-75.7511 575.622,-85.87 581.247,-81.7034"/>
</g>
<!-- Node37&#45;&gt;Node2 -->
<g id="edge38" class="edge"><title>Node37&#45;&gt;Node2</title>
<path fill="none" stroke="midnightblue" d="M419.256,-75.5465C439.772,-89.4573 482.785,-116.951 523,-132 573.257,-150.807 633.192,-162.506 677.163,-169.244"/>
<polygon fill="midnightblue" stroke="midnightblue" points="676.729,-172.718 687.136,-170.73 677.761,-165.795 676.729,-172.718"/>
</g>
<!-- Node37&#45;&gt;Node38 -->
<g id="edge39" class="edge"><title>Node37&#45;&gt;Node38</title>
<path fill="none" stroke="midnightblue" d="M395.593,-56.324C384.891,-48.1849 368.659,-35.8395 355.837,-26.0874"/>
<polygon fill="midnightblue" stroke="midnightblue" points="357.693,-23.1018 347.615,-19.8339 353.456,-28.6734 357.693,-23.1018"/>
</g>
<!-- Node37&#45;&gt;Node39 -->
<g id="edge40" class="edge"><title>Node37&#45;&gt;Node39</title>
<path fill="none" stroke="midnightblue" d="M454.694,-56.4435C507.864,-46.9049 593.824,-31.4834 650.626,-21.293"/>
<polygon fill="midnightblue" stroke="midnightblue" points="651.304,-24.7273 660.529,-19.5164 650.068,-17.8373 651.304,-24.7273"/>
</g>
<!-- Node40&#45;&gt;Node2 -->
<g id="edge43" class="edge"><title>Node40&#45;&gt;Node2</title>
<path fill="none" stroke="midnightblue" d="M755.594,-75.5914C752.695,-93.3079 745.995,-134.254 742.052,-158.348"/>
<polygon fill="midnightblue" stroke="midnightblue" points="738.573,-157.934 740.412,-168.368 745.481,-159.065 738.573,-157.934"/>
</g>
<!-- Node40&#45;&gt;Node38 -->
<g id="edge44" class="edge"><title>Node40&#45;&gt;Node38</title>
<path fill="none" stroke="midnightblue" d="M690.291,-56.4435C609.966,-46.1405 476.13,-28.974 397.978,-18.9496"/>
<polygon fill="midnightblue" stroke="midnightblue" points="398.162,-15.4446 387.798,-17.6439 397.271,-22.3877 398.162,-15.4446"/>
</g>
<!-- Node40&#45;&gt;Node39 -->
<g id="edge45" class="edge"><title>Node40&#45;&gt;Node39</title>
<path fill="none" stroke="midnightblue" d="M748.909,-56.083C741.845,-48.2982 731.412,-36.8015 722.851,-27.3665"/>
<polygon fill="midnightblue" stroke="midnightblue" points="725.253,-24.8047 715.941,-19.7511 720.069,-29.5087 725.253,-24.8047"/>
</g>
<!-- Node41&#45;&gt;Node38 -->
<g id="edge47" class="edge"><title>Node41&#45;&gt;Node38</title>
<path fill="none" stroke="midnightblue" d="M529.556,-56.4435C489.601,-47.0629 425.413,-31.9926 382.015,-21.8036"/>
<polygon fill="midnightblue" stroke="midnightblue" points="382.809,-18.3948 372.274,-19.5164 381.209,-25.2095 382.809,-18.3948"/>
</g>
<!-- Node41&#45;&gt;Node39 -->
<g id="edge48" class="edge"><title>Node41&#45;&gt;Node39</title>
<path fill="none" stroke="midnightblue" d="M588.5,-56.4435C612.077,-47.4776 649.322,-33.314 675.964,-23.1827"/>
<polygon fill="midnightblue" stroke="midnightblue" points="677.502,-26.3424 685.605,-19.5164 675.014,-19.7995 677.502,-26.3424"/>
</g>
<!-- Node42&#45;&gt;Node2 -->
<g id="edge51" class="edge"><title>Node42&#45;&gt;Node2</title>
<path fill="none" stroke="midnightblue" d="M541.04,-280.062C550.925,-266.101 571.889,-239.15 596,-224 622.006,-207.659 654.422,-196.822 681.813,-189.886"/>
<polygon fill="midnightblue" stroke="midnightblue" points="682.759,-193.258 691.656,-187.504 681.113,-186.454 682.759,-193.258"/>
</g>
<!-- Node43&#45;&gt;Node2 -->
<g id="edge53" class="edge"><title>Node43&#45;&gt;Node2</title>
<path fill="none" stroke="midnightblue" d="M699.078,-280.396C705.071,-271.595 714.157,-257.355 720,-244 726.627,-228.853 731.706,-210.733 734.939,-197.477"/>
<polygon fill="midnightblue" stroke="midnightblue" points="738.366,-198.19 737.213,-187.658 731.547,-196.611 738.366,-198.19"/>
</g>
<!-- Node44 -->
<g id="node44" class="node"><title>Node44</title>
<g id="a_node44"><a xlink:href="_ogre_render_queue_8h.html" target="_top" xlink:title="OgreRenderQueue.h">
<polygon fill="none" stroke="red" points="605,-224.5 605,-243.5 711,-243.5 711,-224.5 605,-224.5"/>
<text text-anchor="middle" x="658" y="-231.5" font-family="Helvetica,sans-Serif" font-size="10.00">OgreRenderQueue.h</text>
</a>
</g>
</g>
<!-- Node43&#45;&gt;Node44 -->
<g id="edge54" class="edge"><title>Node43&#45;&gt;Node44</title>
<path fill="none" stroke="midnightblue" d="M687.22,-280.083C682.328,-272.534 675.173,-261.495 669.167,-252.23"/>
<polygon fill="midnightblue" stroke="midnightblue" points="672.048,-250.239 663.672,-243.751 666.174,-254.046 672.048,-250.239"/>
</g>
<!-- Node44&#45;&gt;Node2 -->
<g id="edge55" class="edge"><title>Node44&#45;&gt;Node2</title>
<path fill="none" stroke="midnightblue" d="M671.014,-224.324C683.532,-215.979 702.682,-203.212 717.471,-193.352"/>
<polygon fill="midnightblue" stroke="midnightblue" points="719.639,-196.114 726.018,-187.655 715.756,-190.289 719.639,-196.114"/>
</g>
<!-- Node44&#45;&gt;Node38 -->
<g id="edge56" class="edge"><title>Node44&#45;&gt;Node38</title>
<path fill="none" stroke="midnightblue" d="M604.76,-226.527C525.251,-213.678 377.907,-176.85 313,-76 303.328,-60.9721 312.76,-41.3652 322.303,-27.6313"/>
<polygon fill="midnightblue" stroke="midnightblue" points="325.162,-29.6526 328.39,-19.5615 319.574,-25.4371 325.162,-29.6526"/>
</g>
<!-- Node44&#45;&gt;Node39 -->
<g id="edge57" class="edge"><title>Node44&#45;&gt;Node39</title>
<path fill="none" stroke="midnightblue" d="M711.167,-231.907C1078.13,-224.112 3223.23,-174.414 3316,-76 3322.1,-69.532 3322.23,-62.3394 3316,-56 3269.92,-9.11872 1160.77,-10.264 769.946,-10.8797"/>
<polygon fill="midnightblue" stroke="midnightblue" points="769.684,-7.37999 759.69,-10.8963 769.695,-14.38 769.684,-7.37999"/>
</g>
<!-- Node45&#45;&gt;Node2 -->
<g id="edge59" class="edge"><title>Node45&#45;&gt;Node2</title>
<path fill="none" stroke="midnightblue" d="M399.478,-280.466C435.495,-267.508 506.66,-242.43 568,-224 610.412,-211.257 659.325,-198.586 693.945,-189.952"/>
<polygon fill="midnightblue" stroke="midnightblue" points="694.896,-193.323 703.759,-187.518 693.211,-186.529 694.896,-193.323"/>
</g>
<!-- Node45&#45;&gt;Node38 -->
<g id="edge69" class="edge"><title>Node45&#45;&gt;Node38</title>
<path fill="none" stroke="midnightblue" d="M308.684,-287.859C226.405,-285.077 93.5858,-275.656 57,-244 34.2394,-224.307 38,-209.098 38,-179 38,-179 38,-179 38,-121 38,-78.8691 69.5294,-75.2604 107,-56 159.373,-29.0798 226.087,-18.2221 273.979,-13.8654"/>
<polygon fill="midnightblue" stroke="midnightblue" points="274.532,-17.3315 284.204,-13.0077 273.947,-10.356 274.532,-17.3315"/>
</g>
<!-- Node45&#45;&gt;Node39 -->
<g id="edge70" class="edge"><title>Node45&#45;&gt;Node39</title>
<path fill="none" stroke="midnightblue" d="M373.586,-280.488C363.899,-246.168 328.122,-117.795 323,-76 321.919,-67.1771 317.091,-62.6402 323,-56 344.08,-32.3129 542.802,-19.1126 646.17,-13.7969"/>
<polygon fill="midnightblue" stroke="midnightblue" points="646.359,-17.292 656.169,-13.292 646.006,-10.3009 646.359,-17.292"/>
</g>
<!-- Node45&#45;&gt;Node44 -->
<g id="edge64" class="edge"><title>Node45&#45;&gt;Node44</title>
<path fill="none" stroke="midnightblue" d="M420.684,-280.444C470.29,-270.944 550.365,-255.611 603.585,-245.42"/>
<polygon fill="midnightblue" stroke="midnightblue" points="604.362,-248.835 613.525,-243.516 603.045,-241.96 604.362,-248.835"/>
</g>
<!-- Node46 -->
<g id="node46" class="node"><title>Node46</title>
<g id="a_node46"><a xlink:href="_ogre_material_manager_8h.html" target="_top" xlink:title="OgreMaterialManager.h">
<polygon fill="none" stroke="red" points="66,-224.5 66,-243.5 184,-243.5 184,-224.5 66,-224.5"/>
<text text-anchor="middle" x="125" y="-231.5" font-family="Helvetica,sans-Serif" font-size="10.00">OgreMaterialManager.h</text>
</a>
</g>
</g>
<!-- Node45&#45;&gt;Node46 -->
<g id="edge60" class="edge"><title>Node45&#45;&gt;Node46</title>
<path fill="none" stroke="midnightblue" d="M336.228,-280.444C292.442,-271.023 221.986,-255.866 174.62,-245.675"/>
<polygon fill="midnightblue" stroke="midnightblue" points="175.098,-242.198 164.586,-243.516 173.626,-249.041 175.098,-242.198"/>
</g>
<!-- Node47 -->
<g id="node47" class="node"><title>Node47</title>
<g id="a_node47"><a xlink:href="_ogre_composition_technique_8h.html" target="_top" xlink:title="OgreCompositionTechnique.h">
<polygon fill="none" stroke="red" points="202,-224.5 202,-243.5 348,-243.5 348,-224.5 202,-224.5"/>
<text text-anchor="middle" x="275" y="-231.5" font-family="Helvetica,sans-Serif" font-size="10.00">OgreCompositionTechnique.h</text>
</a>
</g>
</g>
<!-- Node45&#45;&gt;Node47 -->
<g id="edge65" class="edge"><title>Node45&#45;&gt;Node47</title>
<path fill="none" stroke="midnightblue" d="M359.773,-280.324C343.649,-271.703 318.7,-258.364 300.036,-248.386"/>
<polygon fill="midnightblue" stroke="midnightblue" points="301.656,-245.283 291.187,-243.655 298.356,-251.456 301.656,-245.283"/>
</g>
<!-- Node46&#45;&gt;Node2 -->
<g id="edge61" class="edge"><title>Node46&#45;&gt;Node2</title>
<path fill="none" stroke="midnightblue" d="M184.317,-224.974C187.252,-224.632 190.158,-224.305 193,-224 368.317,-205.185 576.043,-190.022 677.303,-183.088"/>
<polygon fill="midnightblue" stroke="midnightblue" points="677.615,-186.575 687.354,-182.403 677.139,-179.591 677.615,-186.575"/>
</g>
<!-- Node46&#45;&gt;Node38 -->
<g id="edge62" class="edge"><title>Node46&#45;&gt;Node38</title>
<path fill="none" stroke="midnightblue" d="M121.402,-224.305C110.364,-196.078 80.2295,-105.957 123,-56 142.351,-33.3977 218.471,-21.5757 274.21,-15.8232"/>
<polygon fill="midnightblue" stroke="midnightblue" points="274.755,-19.2864 284.362,-14.8185 274.066,-12.3204 274.755,-19.2864"/>
</g>
<!-- Node46&#45;&gt;Node39 -->
<g id="edge63" class="edge"><title>Node46&#45;&gt;Node39</title>
<path fill="none" stroke="midnightblue" d="M129.116,-224.362C143.764,-194.703 196.608,-96.6226 273,-56 336.172,-22.4072 542.109,-13.8869 646.355,-11.7293"/>
<polygon fill="midnightblue" stroke="midnightblue" points="646.492,-15.2274 656.422,-11.5342 646.356,-8.22873 646.492,-15.2274"/>
</g>
<!-- Node47&#45;&gt;Node2 -->
<g id="edge66" class="edge"><title>Node47&#45;&gt;Node2</title>
<path fill="none" stroke="midnightblue" d="M348.01,-224.503C438.75,-213.943 592.012,-196.106 677.205,-186.192"/>
<polygon fill="midnightblue" stroke="midnightblue" points="677.72,-189.655 687.248,-185.023 676.91,-182.702 677.72,-189.655"/>
</g>
<!-- Node47&#45;&gt;Node38 -->
<g id="edge67" class="edge"><title>Node47&#45;&gt;Node38</title>
<path fill="none" stroke="midnightblue" d="M239.111,-224.406C218.132,-217.691 192.597,-206.337 176,-188 135.032,-142.738 99.9144,-103.713 138,-56 154.855,-34.885 222.51,-22.9226 274.089,-16.7223"/>
<polygon fill="midnightblue" stroke="midnightblue" points="274.639,-20.1822 284.171,-15.5581 273.836,-13.2285 274.639,-20.1822"/>
</g>
<!-- Node47&#45;&gt;Node39 -->
<g id="edge68" class="edge"><title>Node47&#45;&gt;Node39</title>
<path fill="none" stroke="midnightblue" d="M272.464,-224.483C264.574,-196.032 243.651,-103.413 290,-56 314.405,-31.0349 535.813,-18.2508 646.121,-13.3848"/>
<polygon fill="midnightblue" stroke="midnightblue" points="646.6,-16.8675 656.439,-12.9385 646.297,-9.87403 646.6,-16.8675"/>
</g>
<!-- Node48&#45;&gt;Node2 -->
<g id="edge72" class="edge"><title>Node48&#45;&gt;Node2</title>
<path fill="none" stroke="midnightblue" d="M3146.99,-287.114C2856.55,-274.074 1148.1,-197.368 800.648,-181.768"/>
<polygon fill="midnightblue" stroke="midnightblue" points="800.676,-178.266 790.529,-181.314 800.362,-185.259 800.676,-178.266"/>
</g>
<!-- Node48&#45;&gt;Node38 -->
<g id="edge80" class="edge"><title>Node48&#45;&gt;Node38</title>
<path fill="none" stroke="midnightblue" d="M3184.41,-280.44C3175.13,-262.29 3155,-218.378 3155,-179 3155,-179 3155,-179 3155,-121 3155,-90.9022 3159.95,-74.2252 3136,-56 3080.97,-14.1297 716.13,-21.5001 647,-20 560.548,-18.124 460.602,-15.0748 397.847,-13.0533"/>
<polygon fill="midnightblue" stroke="midnightblue" points="397.829,-9.55098 387.721,-12.7256 397.602,-16.5473 397.829,-9.55098"/>
</g>
<!-- Node48&#45;&gt;Node39 -->
<g id="edge81" class="edge"><title>Node48&#45;&gt;Node39</title>
<path fill="none" stroke="midnightblue" d="M3231.02,-286.648C3295.38,-280.525 3411,-258.468 3411,-179 3411,-179 3411,-179 3411,-121 3411,-81.6849 3386.88,-72.0742 3351,-56 3290.17,-28.749 1162.05,-13.8925 769.809,-11.3827"/>
<polygon fill="midnightblue" stroke="midnightblue" points="769.809,-7.88272 759.787,-11.3188 769.765,-14.8826 769.809,-7.88272"/>
</g>
<!-- Node49 -->
<g id="node49" class="node"><title>Node49</title>
<g id="a_node49"><a xlink:href="_ogre_common_8h.html" target="_top" xlink:title="OgreCommon.h">
<polygon fill="none" stroke="black" points="3221,-56.5 3221,-75.5 3307,-75.5 3307,-56.5 3221,-56.5"/>
<text text-anchor="middle" x="3264" y="-63.5" font-family="Helvetica,sans-Serif" font-size="10.00">OgreCommon.h</text>
</a>
</g>
</g>
<!-- Node48&#45;&gt;Node49 -->
<g id="edge73" class="edge"><title>Node48&#45;&gt;Node49</title>
<path fill="none" stroke="midnightblue" d="M3224.85,-280.397C3243.88,-273.81 3265.63,-262.589 3277,-244 3307.91,-193.484 3285.08,-119.051 3271.78,-85.0885"/>
<polygon fill="midnightblue" stroke="midnightblue" points="3274.91,-83.4913 3267.88,-75.5653 3268.43,-86.1457 3274.91,-83.4913"/>
</g>
<!-- Node50 -->
<g id="node50" class="node"><title>Node50</title>
<g id="a_node50"><a xlink:href="_ogre_frustum_8h.html" target="_top" xlink:title="OgreFrustum.h">
<polygon fill="none" stroke="red" points="3186,-224.5 3186,-243.5 3268,-243.5 3268,-224.5 3186,-224.5"/>
<text text-anchor="middle" x="3227" y="-231.5" font-family="Helvetica,sans-Serif" font-size="10.00">OgreFrustum.h</text>
</a>
</g>
</g>
<!-- Node48&#45;&gt;Node50 -->
<g id="edge76" class="edge"><title>Node48&#45;&gt;Node50</title>
<path fill="none" stroke="midnightblue" d="M3195.27,-280.083C3200.64,-272.455 3208.52,-261.264 3215.08,-251.941"/>
<polygon fill="midnightblue" stroke="midnightblue" points="3217.95,-253.943 3220.84,-243.751 3212.22,-249.915 3217.95,-253.943"/>
</g>
<!-- Node49&#45;&gt;Node38 -->
<g id="edge74" class="edge"><title>Node49&#45;&gt;Node38</title>
<path fill="none" stroke="midnightblue" d="M3220.82,-57.5196C3216.17,-56.9115 3211.49,-56.3842 3207,-56 2640.12,-7.50983 1215.81,-32.2292 647,-20 560.547,-18.1413 460.602,-15.0878 397.847,-13.0606"/>
<polygon fill="midnightblue" stroke="midnightblue" points="397.829,-9.55828 387.721,-12.732 397.602,-16.5546 397.829,-9.55828"/>
</g>
<!-- Node49&#45;&gt;Node39 -->
<g id="edge75" class="edge"><title>Node49&#45;&gt;Node39</title>
<path fill="none" stroke="midnightblue" d="M3220.82,-57.5376C3216.16,-56.9261 3211.49,-56.3931 3207,-56 2712.31,-12.7018 1104.63,-10.8555 769.545,-10.9503"/>
<polygon fill="midnightblue" stroke="midnightblue" points="769.541,-7.45019 759.542,-10.9538 769.544,-14.4502 769.541,-7.45019"/>
</g>
<!-- Node50&#45;&gt;Node2 -->
<g id="edge77" class="edge"><title>Node50&#45;&gt;Node2</title>
<path fill="none" stroke="midnightblue" d="M3185.89,-232.108C2895.35,-225.802 1152.88,-187.983 800.941,-180.344"/>
<polygon fill="midnightblue" stroke="midnightblue" points="800.769,-176.84 790.695,-180.122 800.617,-183.838 800.769,-176.84"/>
</g>
<!-- Node50&#45;&gt;Node38 -->
<g id="edge78" class="edge"><title>Node50&#45;&gt;Node38</title>
<path fill="none" stroke="midnightblue" d="M3227.32,-224.418C3227.87,-194.942 3225.27,-97.3874 3169,-56 3112.56,-14.4852 717.046,-21.5134 647,-20 560.548,-18.1322 460.602,-15.0809 397.847,-13.0568"/>
<polygon fill="midnightblue" stroke="midnightblue" points="397.829,-9.55443 387.721,-12.7286 397.602,-16.5508 397.829,-9.55443"/>
</g>
<!-- Node50&#45;&gt;Node39 -->
<g id="edge79" class="edge"><title>Node50&#45;&gt;Node39</title>
<path fill="none" stroke="midnightblue" d="M3239.14,-224.483C3276.72,-197.171 3385.48,-110.4 3332,-56 3285.61,-8.80943 1161.37,-10.2125 769.722,-10.8733"/>
<polygon fill="midnightblue" stroke="midnightblue" points="769.709,-7.37324 759.715,-10.8907 769.722,-14.3732 769.709,-7.37324"/>
</g>
</g>
</svg>
