<?xml version="1.0" encoding="UTF-8" standalone="no"?>
<!DOCTYPE svg PUBLIC "-//W3C//DTD SVG 1.1//EN"
 "http://www.w3.org/Graphics/SVG/1.1/DTD/svg11.dtd">
<!-- Generated by graphviz version 2.38.0 (20140413.2041)
 -->
<!-- Title: OgreAny.h Pages: 1 -->
<svg width="4479pt" height="319pt"
 viewBox="0.00 0.00 4478.50 319.00" xmlns="http://www.w3.org/2000/svg" xmlns:xlink="http://www.w3.org/1999/xlink">
<g id="graph0" class="graph" transform="scale(1 1) rotate(0) translate(4 315)">
<title>OgreAny.h</title>
<!-- Node1 -->
<g id="node1" class="node"><title>Node1</title>
<polygon fill="#bfbfbf" stroke="black" points="3018.5,-291.5 3018.5,-310.5 3081.5,-310.5 3081.5,-291.5 3018.5,-291.5"/>
<text text-anchor="middle" x="3050" y="-298.5" font-family="Helvetica,sans-Serif" font-size="10.00">OgreAny.h</text>
</g>
<!-- Node2 -->
<g id="node2" class="node"><title>Node2</title>
<g id="a_node2"><a xlink:href="_ogre_gpu_program_params_8h.html" target="_top" xlink:title="OgreGpuProgramParams.h">
<polygon fill="none" stroke="black" points="1457,-235.5 1457,-254.5 1591,-254.5 1591,-235.5 1457,-235.5"/>
<text text-anchor="middle" x="1524" y="-242.5" font-family="Helvetica,sans-Serif" font-size="10.00">OgreGpuProgramParams.h</text>
</a>
</g>
</g>
<!-- Node1&#45;&gt;Node2 -->
<g id="edge1" class="edge"><title>Node1&#45;&gt;Node2</title>
<path fill="none" stroke="midnightblue" d="M3008.48,-298.531C2798.49,-291.1 1853.22,-257.65 1591.41,-248.385"/>
<polygon fill="midnightblue" stroke="midnightblue" points="3008.36,-302.029 3018.48,-298.885 3008.61,-295.033 3008.36,-302.029"/>
</g>
<!-- Node7 -->
<g id="node7" class="node"><title>Node7</title>
<g id="a_node7"><a xlink:href="_ogre_8h.html" target="_top" xlink:title="Ogre.h">
<polygon fill="none" stroke="red" points="2431,-56.5 2431,-75.5 2477,-75.5 2477,-56.5 2431,-56.5"/>
<text text-anchor="middle" x="2454" y="-63.5" font-family="Helvetica,sans-Serif" font-size="10.00">Ogre.h</text>
</a>
</g>
</g>
<!-- Node1&#45;&gt;Node7 -->
<g id="edge53" class="edge"><title>Node1&#45;&gt;Node7</title>
<path fill="none" stroke="midnightblue" d="M3048.44,-281.151C3043.91,-240.598 3026.75,-145.991 2964,-112 2878.32,-65.591 2565.32,-65.6681 2477.22,-66.6466"/>
<polygon fill="midnightblue" stroke="midnightblue" points="3044.97,-281.654 3049.43,-291.266 3051.94,-280.973 3044.97,-281.654"/>
</g>
<!-- Node15 -->
<g id="node15" class="node"><title>Node15</title>
<g id="a_node15"><a xlink:href="_ogre_script_compiler_8h.html" target="_top" xlink:title="OgreScriptCompiler.h">
<polygon fill="none" stroke="black" points="3116,-112.5 3116,-131.5 3226,-131.5 3226,-112.5 3116,-112.5"/>
<text text-anchor="middle" x="3171" y="-119.5" font-family="Helvetica,sans-Serif" font-size="10.00">OgreScriptCompiler.h</text>
</a>
</g>
</g>
<!-- Node1&#45;&gt;Node15 -->
<g id="edge73" class="edge"><title>Node1&#45;&gt;Node15</title>
<path fill="none" stroke="midnightblue" d="M3091.47,-292.926C3140.31,-282.133 3219.29,-256.399 3255,-199 3262.28,-187.301 3262.08,-179.821 3255,-168 3243.95,-149.547 3222.46,-138.231 3203.99,-131.562"/>
<polygon fill="midnightblue" stroke="midnightblue" points="3090.6,-289.531 3081.53,-295.008 3092.04,-296.383 3090.6,-289.531"/>
</g>
<!-- Node33 -->
<g id="node33" class="node"><title>Node33</title>
<g id="a_node33"><a xlink:href="_ogre_user_object_bindings_8h.html" target="_top" xlink:title="OgreUserObjectBindings.h">
<polygon fill="none" stroke="black" points="2697.5,-235.5 2697.5,-254.5 2830.5,-254.5 2830.5,-235.5 2697.5,-235.5"/>
<text text-anchor="middle" x="2764" y="-242.5" font-family="Helvetica,sans-Serif" font-size="10.00">OgreUserObjectBindings.h</text>
</a>
</g>
</g>
<!-- Node1&#45;&gt;Node33 -->
<g id="edge45" class="edge"><title>Node1&#45;&gt;Node33</title>
<path fill="none" stroke="midnightblue" d="M3008.22,-292.111C2955.14,-282.09 2863.9,-264.861 2809.23,-254.539"/>
<polygon fill="midnightblue" stroke="midnightblue" points="3007.82,-295.599 3018.3,-294.015 3009.12,-288.72 3007.82,-295.599"/>
</g>
<!-- Node36 -->
<g id="node36" class="node"><title>Node36</title>
<g id="a_node36"><a xlink:href="_ogre_key_frame_8h.html" target="_top" xlink:title="OgreKeyFrame.h">
<polygon fill="none" stroke="black" points="2930.5,-235.5 2930.5,-254.5 3021.5,-254.5 3021.5,-235.5 2930.5,-235.5"/>
<text text-anchor="middle" x="2976" y="-242.5" font-family="Helvetica,sans-Serif" font-size="10.00">OgreKeyFrame.h</text>
</a>
</g>
</g>
<!-- Node1&#45;&gt;Node36 -->
<g id="edge54" class="edge"><title>Node1&#45;&gt;Node36</title>
<path fill="none" stroke="midnightblue" d="M3029.97,-285.38C3016.59,-275.62 2999.44,-263.106 2988.11,-254.834"/>
<polygon fill="midnightblue" stroke="midnightblue" points="3027.97,-288.257 3038.11,-291.324 3032.1,-282.602 3027.97,-288.257"/>
</g>
<!-- Node38 -->
<g id="node38" class="node"><title>Node38</title>
<g id="a_node38"><a xlink:href="_ogre_work_queue_8h.html" target="_top" xlink:title="OgreWorkQueue.h">
<polygon fill="none" stroke="black" points="3595,-235.5 3595,-254.5 3693,-254.5 3693,-235.5 3595,-235.5"/>
<text text-anchor="middle" x="3644" y="-242.5" font-family="Helvetica,sans-Serif" font-size="10.00">OgreWorkQueue.h</text>
</a>
</g>
</g>
<!-- Node1&#45;&gt;Node38 -->
<g id="edge57" class="edge"><title>Node1&#45;&gt;Node38</title>
<path fill="none" stroke="midnightblue" d="M3091.55,-296.223C3197.99,-286.547 3480.07,-260.903 3594.61,-250.49"/>
<polygon fill="midnightblue" stroke="midnightblue" points="3091.16,-292.744 3081.52,-297.135 3091.79,-299.715 3091.16,-292.744"/>
</g>
<!-- Node50 -->
<g id="node50" class="node"><title>Node50</title>
<g id="a_node50"><a xlink:href="_ogre_property_8h.html" target="_top" xlink:title="OGRE&#39;s property system allows you to associate values of arbitrary type with names, and have those values exposed via a self&#45;describing interface. ">
<polygon fill="none" stroke="black" points="3711.5,-235.5 3711.5,-254.5 3794.5,-254.5 3794.5,-235.5 3711.5,-235.5"/>
<text text-anchor="middle" x="3753" y="-242.5" font-family="Helvetica,sans-Serif" font-size="10.00">OgreProperty.h</text>
</a>
</g>
</g>
<!-- Node1&#45;&gt;Node50 -->
<g id="edge74" class="edge"><title>Node1&#45;&gt;Node50</title>
<path fill="none" stroke="midnightblue" d="M3091.71,-298.652C3195.31,-294.971 3472.53,-283.087 3702,-255 3705.03,-254.629 3708.16,-254.197 3711.31,-253.728"/>
<polygon fill="midnightblue" stroke="midnightblue" points="3091.54,-295.156 3081.66,-299.002 3091.78,-302.151 3091.54,-295.156"/>
</g>
<!-- Node3 -->
<g id="node3" class="node"><title>Node3</title>
<g id="a_node3"><a xlink:href="_ogre_gpu_program_8h.html" target="_top" xlink:title="OgreGpuProgram.h">
<polygon fill="none" stroke="black" points="1473.5,-174 1473.5,-193 1574.5,-193 1574.5,-174 1473.5,-174"/>
<text text-anchor="middle" x="1524" y="-181" font-family="Helvetica,sans-Serif" font-size="10.00">OgreGpuProgram.h</text>
</a>
</g>
</g>
<!-- Node2&#45;&gt;Node3 -->
<g id="edge2" class="edge"><title>Node2&#45;&gt;Node3</title>
<path fill="none" stroke="midnightblue" d="M1524,-225.317C1524,-214.496 1524,-201.398 1524,-193.009"/>
<polygon fill="midnightblue" stroke="midnightblue" points="1520.5,-225.475 1524,-235.475 1527.5,-225.475 1520.5,-225.475"/>
</g>
<!-- Node4 -->
<g id="node4" class="node"><title>Node4</title>
<g id="a_node4"><a xlink:href="_ogre_renderable_8h.html" target="_top" xlink:title="OgreRenderable.h">
<polygon fill="none" stroke="red" points="2703.5,-112.5 2703.5,-131.5 2798.5,-131.5 2798.5,-112.5 2703.5,-112.5"/>
<text text-anchor="middle" x="2751" y="-119.5" font-family="Helvetica,sans-Serif" font-size="10.00">OgreRenderable.h</text>
</a>
</g>
</g>
<!-- Node2&#45;&gt;Node4 -->
<g id="edge38" class="edge"><title>Node2&#45;&gt;Node4</title>
<path fill="none" stroke="midnightblue" d="M1601.6,-240.077C1723.32,-233.594 1966.45,-219.311 2172,-199 2404.77,-175.999 2462.46,-165.132 2694,-132 2697.07,-131.56 2700.24,-131.095 2703.43,-130.617"/>
<polygon fill="midnightblue" stroke="midnightblue" points="1601.07,-236.6 1591.27,-240.624 1601.45,-243.59 1601.07,-236.6"/>
</g>
<!-- Node18 -->
<g id="node18" class="node"><title>Node18</title>
<g id="a_node18"><a xlink:href="_ogre_shader_program_writer_8h.html" target="_top" xlink:title="OgreShaderProgramWriter.h">
<polygon fill="none" stroke="red" points="0,-112.5 0,-131.5 140,-131.5 140,-112.5 0,-112.5"/>
<text text-anchor="middle" x="70" y="-119.5" font-family="Helvetica,sans-Serif" font-size="10.00">OgreShaderProgramWriter.h</text>
</a>
</g>
</g>
<!-- Node2&#45;&gt;Node18 -->
<g id="edge39" class="edge"><title>Node2&#45;&gt;Node18</title>
<path fill="none" stroke="midnightblue" d="M1446.41,-238.559C1236.93,-223.678 642.442,-180.191 149,-132 146.115,-131.718 143.172,-131.422 140.199,-131.116"/>
<polygon fill="midnightblue" stroke="midnightblue" points="1446.46,-242.071 1456.69,-239.288 1446.96,-235.089 1446.46,-242.071"/>
</g>
<!-- Node30 -->
<g id="node30" class="node"><title>Node30</title>
<g id="a_node30"><a xlink:href="_ogre_shader_parameter_8h.html" target="_top" xlink:title="OgreShaderParameter.h">
<polygon fill="none" stroke="red" points="290,-174 290,-193 412,-193 412,-174 290,-174"/>
<text text-anchor="middle" x="351" y="-181" font-family="Helvetica,sans-Serif" font-size="10.00">OgreShaderParameter.h</text>
</a>
</g>
</g>
<!-- Node2&#45;&gt;Node30 -->
<g id="edge40" class="edge"><title>Node2&#45;&gt;Node30</title>
<path fill="none" stroke="midnightblue" d="M1446.62,-240.075C1228.14,-228.992 609.595,-197.617 412.287,-187.609"/>
<polygon fill="midnightblue" stroke="midnightblue" points="1446.56,-243.576 1456.72,-240.587 1446.91,-236.585 1446.56,-243.576"/>
</g>
<!-- Node31 -->
<g id="node31" class="node"><title>Node31</title>
<g id="a_node31"><a xlink:href="_ogre_shader_function_atom_8h.html" target="_top" xlink:title="OgreShaderFunctionAtom.h">
<polygon fill="none" stroke="red" points="2026.5,-174 2026.5,-193 2163.5,-193 2163.5,-174 2026.5,-174"/>
<text text-anchor="middle" x="2095" y="-181" font-family="Helvetica,sans-Serif" font-size="10.00">OgreShaderFunctionAtom.h</text>
</a>
</g>
</g>
<!-- Node2&#45;&gt;Node31 -->
<g id="edge42" class="edge"><title>Node2&#45;&gt;Node31</title>
<path fill="none" stroke="midnightblue" d="M1601.4,-235.935C1713.5,-224.254 1919.3,-202.809 2026.3,-191.659"/>
<polygon fill="midnightblue" stroke="midnightblue" points="1600.76,-232.482 1591.18,-237 1601.49,-239.444 1600.76,-232.482"/>
</g>
<!-- Node32 -->
<g id="node32" class="node"><title>Node32</title>
<g id="a_node32"><a xlink:href="_ogre_d3_d11_hardware_uniform_buffer_8h.html" target="_top" xlink:title="OgreD3D11HardwareUniform\lBuffer.h">
<polygon fill="none" stroke="black" points="1310.5,-168.5 1310.5,-198.5 1455.5,-198.5 1455.5,-168.5 1310.5,-168.5"/>
<text text-anchor="start" x="1318.5" y="-186.5" font-family="Helvetica,sans-Serif" font-size="10.00">OgreD3D11HardwareUniform</text>
<text text-anchor="middle" x="1383" y="-175.5" font-family="Helvetica,sans-Serif" font-size="10.00">Buffer.h</text>
</a>
</g>
</g>
<!-- Node2&#45;&gt;Node32 -->
<g id="edge44" class="edge"><title>Node2&#45;&gt;Node32</title>
<path fill="none" stroke="midnightblue" d="M1494.28,-231.461C1471.45,-221.823 1439.9,-208.513 1416.23,-198.523"/>
<polygon fill="midnightblue" stroke="midnightblue" points="1493.22,-234.812 1503.8,-235.475 1495.95,-228.363 1493.22,-234.812"/>
</g>
<!-- Node3&#45;&gt;Node4 -->
<g id="edge3" class="edge"><title>Node3&#45;&gt;Node4</title>
<path fill="none" stroke="midnightblue" d="M1584.83,-180.788C1792.92,-174.789 2475.54,-153.891 2694,-132 2697.09,-131.69 2700.27,-131.324 2703.47,-130.918"/>
<polygon fill="midnightblue" stroke="midnightblue" points="1584.59,-177.293 1574.7,-181.079 1584.79,-184.291 1584.59,-177.293"/>
</g>
<!-- Node6 -->
<g id="node6" class="node"><title>Node6</title>
<g id="a_node6"><a xlink:href="_ogre_render_system_8h.html" target="_top" xlink:title="OgreRenderSystem.h">
<polygon fill="none" stroke="red" points="2398.5,-112.5 2398.5,-131.5 2509.5,-131.5 2509.5,-112.5 2398.5,-112.5"/>
<text text-anchor="middle" x="2454" y="-119.5" font-family="Helvetica,sans-Serif" font-size="10.00">OgreRenderSystem.h</text>
</a>
</g>
</g>
<!-- Node3&#45;&gt;Node6 -->
<g id="edge5" class="edge"><title>Node3&#45;&gt;Node6</title>
<path fill="none" stroke="midnightblue" d="M1585.02,-180.601C1726.56,-175.833 2088.13,-161.565 2389,-132 2392.06,-131.699 2395.2,-131.362 2398.37,-130.999"/>
<polygon fill="midnightblue" stroke="midnightblue" points="1584.69,-177.11 1574.81,-180.941 1584.92,-184.106 1584.69,-177.11"/>
</g>
<!-- Node3&#45;&gt;Node7 -->
<g id="edge9" class="edge"><title>Node3&#45;&gt;Node7</title>
<path fill="none" stroke="midnightblue" d="M1584.93,-178.129C1648.05,-172.311 1748.88,-159.378 1832,-132 1850.5,-125.906 1852.25,-117.298 1871,-112 1979.19,-81.4222 2336.61,-70.07 2430.98,-67.5655"/>
<polygon fill="midnightblue" stroke="midnightblue" points="1584.4,-174.662 1574.75,-179.035 1585.03,-181.634 1584.4,-174.662"/>
</g>
<!-- Node10 -->
<g id="node10" class="node"><title>Node10</title>
<g id="a_node10"><a xlink:href="_ogre_gpu_program_manager_8h.html" target="_top" xlink:title="OgreGpuProgramManager.h">
<polygon fill="none" stroke="red" points="1880,-112.5 1880,-131.5 2018,-131.5 2018,-112.5 1880,-112.5"/>
<text text-anchor="middle" x="1949" y="-119.5" font-family="Helvetica,sans-Serif" font-size="10.00">OgreGpuProgramManager.h</text>
</a>
</g>
</g>
<!-- Node3&#45;&gt;Node10 -->
<g id="edge10" class="edge"><title>Node3&#45;&gt;Node10</title>
<path fill="none" stroke="midnightblue" d="M1584.86,-173.979C1665.63,-162.672 1807.41,-142.823 1888.16,-131.517"/>
<polygon fill="midnightblue" stroke="midnightblue" points="1584.26,-170.529 1574.84,-175.382 1585.23,-177.462 1584.26,-170.529"/>
</g>
<!-- Node11 -->
<g id="node11" class="node"><title>Node11</title>
<g id="a_node11"><a xlink:href="_ogre_high_level_gpu_program_8h.html" target="_top" xlink:title="OgreHighLevelGpuProgram.h">
<polygon fill="none" stroke="red" points="2236,-112.5 2236,-131.5 2380,-131.5 2380,-112.5 2236,-112.5"/>
<text text-anchor="middle" x="2308" y="-119.5" font-family="Helvetica,sans-Serif" font-size="10.00">OgreHighLevelGpuProgram.h</text>
</a>
</g>
</g>
<!-- Node3&#45;&gt;Node11 -->
<g id="edge12" class="edge"><title>Node3&#45;&gt;Node11</title>
<path fill="none" stroke="midnightblue" d="M1585.04,-178.918C1707.09,-171.578 1989.9,-153.68 2227,-132 2229.82,-131.742 2232.69,-131.47 2235.59,-131.187"/>
<polygon fill="midnightblue" stroke="midnightblue" points="1584.55,-175.441 1574.78,-179.533 1584.97,-182.428 1584.55,-175.441"/>
</g>
<!-- Node12 -->
<g id="node12" class="node"><title>Node12</title>
<g id="a_node12"><a xlink:href="_ogre_high_level_gpu_program_manager_8h.html" target="_top" xlink:title="OgreHighLevelGpuProgramManager.h">
<polygon fill="none" stroke="red" points="2036,-112.5 2036,-131.5 2218,-131.5 2218,-112.5 2036,-112.5"/>
<text text-anchor="middle" x="2127" y="-119.5" font-family="Helvetica,sans-Serif" font-size="10.00">OgreHighLevelGpuProgramManager.h</text>
</a>
</g>
</g>
<!-- Node3&#45;&gt;Node12 -->
<g id="edge14" class="edge"><title>Node3&#45;&gt;Node12</title>
<path fill="none" stroke="midnightblue" d="M1584.68,-176.512C1692.36,-165.887 1917.14,-143.707 2040.82,-131.503"/>
<polygon fill="midnightblue" stroke="midnightblue" points="1584.24,-173.039 1574.63,-177.504 1584.93,-180.005 1584.24,-173.039"/>
</g>
<!-- Node13 -->
<g id="node13" class="node"><title>Node13</title>
<g id="a_node13"><a xlink:href="_ogre_material_serializer_8h.html" target="_top" xlink:title="OgreMaterialSerializer.h">
<polygon fill="none" stroke="red" points="1702.5,-112.5 1702.5,-131.5 1823.5,-131.5 1823.5,-112.5 1702.5,-112.5"/>
<text text-anchor="middle" x="1763" y="-119.5" font-family="Helvetica,sans-Serif" font-size="10.00">OgreMaterialSerializer.h</text>
</a>
</g>
</g>
<!-- Node3&#45;&gt;Node13 -->
<g id="edge16" class="edge"><title>Node3&#45;&gt;Node13</title>
<path fill="none" stroke="midnightblue" d="M1568.02,-171.541C1614.42,-159.99 1686.52,-142.039 1728.82,-131.509"/>
<polygon fill="midnightblue" stroke="midnightblue" points="1567.1,-168.163 1558.24,-173.975 1568.79,-174.956 1567.1,-168.163"/>
</g>
<!-- Node14 -->
<g id="node14" class="node"><title>Node14</title>
<g id="a_node14"><a xlink:href="_ogre_gpu_program_usage_8h.html" target="_top" xlink:title="OgreGpuProgramUsage.h">
<polygon fill="none" stroke="black" points="158.5,-112.5 158.5,-131.5 287.5,-131.5 287.5,-112.5 158.5,-112.5"/>
<text text-anchor="middle" x="223" y="-119.5" font-family="Helvetica,sans-Serif" font-size="10.00">OgreGpuProgramUsage.h</text>
</a>
</g>
</g>
<!-- Node3&#45;&gt;Node14 -->
<g id="edge18" class="edge"><title>Node3&#45;&gt;Node14</title>
<path fill="none" stroke="midnightblue" d="M1483.88,-171.6C1477.28,-170.155 1470.48,-168.874 1464,-168 949.296,-98.6315 813.829,-171.817 296,-132 293.326,-131.794 290.6,-131.562 287.848,-131.309"/>
<polygon fill="midnightblue" stroke="midnightblue" points="1483.48,-175.1 1494.01,-173.969 1485.07,-168.284 1483.48,-175.1"/>
</g>
<!-- Node3&#45;&gt;Node15 -->
<g id="edge19" class="edge"><title>Node3&#45;&gt;Node15</title>
<path fill="none" stroke="midnightblue" d="M1584.67,-180.308C1845.13,-170.899 2866.59,-133.997 3115.9,-124.991"/>
<polygon fill="midnightblue" stroke="midnightblue" points="1584.51,-176.812 1574.64,-180.67 1584.76,-183.807 1584.51,-176.812"/>
</g>
<!-- Node17 -->
<g id="node17" class="node"><title>Node17</title>
<g id="a_node17"><a xlink:href="_ogre_shader_program_manager_8h.html" target="_top" xlink:title="OgreShaderProgramManager.h">
<polygon fill="none" stroke="red" points="305.5,-112.5 305.5,-131.5 456.5,-131.5 456.5,-112.5 305.5,-112.5"/>
<text text-anchor="middle" x="381" y="-119.5" font-family="Helvetica,sans-Serif" font-size="10.00">OgreShaderProgramManager.h</text>
</a>
</g>
</g>
<!-- Node3&#45;&gt;Node17 -->
<g id="edge23" class="edge"><title>Node3&#45;&gt;Node17</title>
<path fill="none" stroke="midnightblue" d="M1483.67,-171.582C1477.13,-170.153 1470.41,-168.881 1464,-168 1023.85,-107.512 908.157,-163.686 465,-132 462.22,-131.801 459.391,-131.582 456.534,-131.348"/>
<polygon fill="midnightblue" stroke="midnightblue" points="1483.17,-175.06 1493.7,-173.925 1484.76,-168.243 1483.17,-175.06"/>
</g>
<!-- Node3&#45;&gt;Node18 -->
<g id="edge24" class="edge"><title>Node3&#45;&gt;Node18</title>
<path fill="none" stroke="midnightblue" d="M1483.89,-171.58C1477.29,-170.138 1470.48,-168.862 1464,-168 884.442,-90.9064 732.215,-173.128 149,-132 146.108,-131.796 143.159,-131.565 140.182,-131.313"/>
<polygon fill="midnightblue" stroke="midnightblue" points="1483.48,-175.08 1494.02,-173.949 1485.08,-168.264 1483.48,-175.08"/>
</g>
<!-- Node19 -->
<g id="node19" class="node"><title>Node19</title>
<g id="a_node19"><a xlink:href="_ogre_shader_program_processor_8h.html" target="_top" xlink:title="OgreShaderProgramProcessor.h">
<polygon fill="none" stroke="red" points="2527,-112.5 2527,-131.5 2685,-131.5 2685,-112.5 2527,-112.5"/>
<text text-anchor="middle" x="2606" y="-119.5" font-family="Helvetica,sans-Serif" font-size="10.00">OgreShaderProgramProcessor.h</text>
</a>
</g>
</g>
<!-- Node3&#45;&gt;Node19 -->
<g id="edge25" class="edge"><title>Node3&#45;&gt;Node19</title>
<path fill="none" stroke="midnightblue" d="M1584.83,-180.523C1740.44,-175.223 2165.61,-159.228 2519,-132 2521.57,-131.802 2524.19,-131.59 2526.83,-131.368"/>
<polygon fill="midnightblue" stroke="midnightblue" points="1584.41,-177.035 1574.54,-180.871 1584.65,-184.031 1584.41,-177.035"/>
</g>
<!-- Node20 -->
<g id="node20" class="node"><title>Node20</title>
<g id="a_node20"><a xlink:href="_ogre_shader_program_8h.html" target="_top" xlink:title="OgreShaderProgram.h">
<polygon fill="none" stroke="black" points="474.5,-112.5 474.5,-131.5 587.5,-131.5 587.5,-112.5 474.5,-112.5"/>
<text text-anchor="middle" x="531" y="-119.5" font-family="Helvetica,sans-Serif" font-size="10.00">OgreShaderProgram.h</text>
</a>
</g>
</g>
<!-- Node3&#45;&gt;Node20 -->
<g id="edge26" class="edge"><title>Node3&#45;&gt;Node20</title>
<path fill="none" stroke="midnightblue" d="M1483.66,-171.613C1477.13,-170.179 1470.41,-168.898 1464,-168 1081.63,-114.394 980.563,-166.518 596,-132 593.277,-131.756 590.493,-131.478 587.684,-131.175"/>
<polygon fill="midnightblue" stroke="midnightblue" points="1483.16,-175.091 1493.7,-173.957 1484.76,-168.274 1483.16,-175.091"/>
</g>
<!-- Node21 -->
<g id="node21" class="node"><title>Node21</title>
<g id="a_node21"><a xlink:href="_ogre_shader_program_set_8h.html" target="_top" xlink:title="OgreShaderProgramSet.h">
<polygon fill="none" stroke="black" points="769,-112.5 769,-131.5 897,-131.5 897,-112.5 769,-112.5"/>
<text text-anchor="middle" x="833" y="-119.5" font-family="Helvetica,sans-Serif" font-size="10.00">OgreShaderProgramSet.h</text>
</a>
</g>
</g>
<!-- Node3&#45;&gt;Node21 -->
<g id="edge27" class="edge"><title>Node3&#45;&gt;Node21</title>
<path fill="none" stroke="midnightblue" d="M1483.22,-171.647C1476.82,-170.235 1470.26,-168.951 1464,-168 1218.3,-130.672 1153.43,-155.214 906,-132 903.076,-131.726 900.088,-131.428 897.071,-131.113"/>
<polygon fill="midnightblue" stroke="midnightblue" points="1482.53,-175.08 1493.06,-173.944 1484.12,-168.263 1482.53,-175.08"/>
</g>
<!-- Node22 -->
<g id="node22" class="node"><title>Node22</title>
<g id="a_node22"><a xlink:href="_ogre_d3_d9_gpu_program_8h.html" target="_top" xlink:title="OgreD3D9GpuProgram.h">
<polygon fill="none" stroke="black" points="1095,-112.5 1095,-131.5 1221,-131.5 1221,-112.5 1095,-112.5"/>
<text text-anchor="middle" x="1158" y="-119.5" font-family="Helvetica,sans-Serif" font-size="10.00">OgreD3D9GpuProgram.h</text>
</a>
</g>
</g>
<!-- Node3&#45;&gt;Node22 -->
<g id="edge28" class="edge"><title>Node3&#45;&gt;Node22</title>
<path fill="none" stroke="midnightblue" d="M1481.01,-171.61C1475.3,-170.313 1469.52,-169.071 1464,-168 1418.67,-159.208 1296.12,-141.916 1220.57,-131.516"/>
<polygon fill="midnightblue" stroke="midnightblue" points="1480.57,-175.104 1491.11,-173.98 1482.17,-168.289 1480.57,-175.104"/>
</g>
<!-- Node23 -->
<g id="node23" class="node"><title>Node23</title>
<g id="a_node23"><a xlink:href="_ogre_g_l_gpu_program_8h.html" target="_top" xlink:title="OgreGLGpuProgram.h">
<polygon fill="none" stroke="red" points="1239.5,-112.5 1239.5,-131.5 1352.5,-131.5 1352.5,-112.5 1239.5,-112.5"/>
<text text-anchor="middle" x="1296" y="-119.5" font-family="Helvetica,sans-Serif" font-size="10.00">OgreGLGpuProgram.h</text>
</a>
</g>
</g>
<!-- Node3&#45;&gt;Node23 -->
<g id="edge29" class="edge"><title>Node3&#45;&gt;Node23</title>
<path fill="none" stroke="midnightblue" d="M1481.45,-171.396C1437.17,-159.84 1368.79,-141.995 1328.61,-131.509"/>
<polygon fill="midnightblue" stroke="midnightblue" points="1480.77,-174.837 1491.33,-173.975 1482.54,-168.063 1480.77,-174.837"/>
</g>
<!-- Node24 -->
<g id="node24" class="node"><title>Node24</title>
<g id="a_node24"><a xlink:href="_ogre_g_l_s_l_link_program_8h.html" target="_top" xlink:title="OgreGLSLLinkProgram.h">
<polygon fill="none" stroke="red" points="1370.5,-112.5 1370.5,-131.5 1495.5,-131.5 1495.5,-112.5 1370.5,-112.5"/>
<text text-anchor="middle" x="1433" y="-119.5" font-family="Helvetica,sans-Serif" font-size="10.00">OgreGLSLLinkProgram.h</text>
</a>
</g>
</g>
<!-- Node3&#45;&gt;Node24 -->
<g id="edge30" class="edge"><title>Node3&#45;&gt;Node24</title>
<path fill="none" stroke="midnightblue" d="M1502.48,-168.43C1484.94,-156.959 1460.73,-141.134 1446.01,-131.509"/>
<polygon fill="midnightblue" stroke="midnightblue" points="1500.68,-171.432 1510.96,-173.975 1504.51,-165.573 1500.68,-171.432"/>
</g>
<!-- Node25 -->
<g id="node25" class="node"><title>Node25</title>
<g id="a_node25"><a xlink:href="_ogre_g_l_s_l_monolithic_program_8h.html" target="_top" xlink:title="OgreGLSLMonolithicProgram.h">
<polygon fill="none" stroke="red" points="624,-56.5 624,-75.5 776,-75.5 776,-56.5 624,-56.5"/>
<text text-anchor="middle" x="700" y="-63.5" font-family="Helvetica,sans-Serif" font-size="10.00">OgreGLSLMonolithicProgram.h</text>
</a>
</g>
</g>
<!-- Node3&#45;&gt;Node25 -->
<g id="edge31" class="edge"><title>Node3&#45;&gt;Node25</title>
<path fill="none" stroke="midnightblue" d="M1483.44,-171.62C1476.98,-170.198 1470.33,-168.919 1464,-168 1308.97,-145.504 901.846,-198.473 760,-132 733.856,-119.748 713.753,-90.4364 704.917,-75.7288"/>
<polygon fill="midnightblue" stroke="midnightblue" points="1482.85,-175.075 1493.38,-173.939 1484.44,-168.259 1482.85,-175.075"/>
</g>
<!-- Node26 -->
<g id="node26" class="node"><title>Node26</title>
<g id="a_node26"><a xlink:href="_plus_2include_2_g_l_s_l_2_ogre_g_l_s_l_program_8h.html" target="_top" xlink:title="OgreGLSLProgram.h">
<polygon fill="none" stroke="red" points="605.5,-112.5 605.5,-131.5 712.5,-131.5 712.5,-112.5 605.5,-112.5"/>
<text text-anchor="middle" x="659" y="-119.5" font-family="Helvetica,sans-Serif" font-size="10.00">OgreGLSLProgram.h</text>
</a>
</g>
</g>
<!-- Node3&#45;&gt;Node26 -->
<g id="edge32" class="edge"><title>Node3&#45;&gt;Node26</title>
<path fill="none" stroke="midnightblue" d="M1483.44,-171.607C1476.98,-170.187 1470.33,-168.912 1464,-168 1139.4,-121.275 1053.61,-161.54 727,-132 722.375,-131.582 717.58,-131.082 712.776,-130.535"/>
<polygon fill="midnightblue" stroke="midnightblue" points="1482.85,-175.063 1493.38,-173.926 1484.44,-168.246 1482.85,-175.063"/>
</g>
<!-- Node27 -->
<g id="node27" class="node"><title>Node27</title>
<g id="a_node27"><a xlink:href="_ogre_g_l_e_s2_gpu_program_8h.html" target="_top" xlink:title="OgreGLES2GpuProgram.h">
<polygon fill="none" stroke="red" points="1552,-112.5 1552,-131.5 1684,-131.5 1684,-112.5 1552,-112.5"/>
<text text-anchor="middle" x="1618" y="-119.5" font-family="Helvetica,sans-Serif" font-size="10.00">OgreGLES2GpuProgram.h</text>
</a>
</g>
</g>
<!-- Node3&#45;&gt;Node27 -->
<g id="edge34" class="edge"><title>Node3&#45;&gt;Node27</title>
<path fill="none" stroke="midnightblue" d="M1546.23,-168.43C1564.35,-156.959 1589.35,-141.134 1604.56,-131.509"/>
<polygon fill="midnightblue" stroke="midnightblue" points="1544.05,-165.669 1537.47,-173.975 1547.79,-171.584 1544.05,-165.669"/>
</g>
<!-- Node28 -->
<g id="node28" class="node"><title>Node28</title>
<g id="a_node28"><a xlink:href="_ogre_g_l_s_l_e_s_link_program_8h.html" target="_top" xlink:title="OgreGLSLESLinkProgram.h">
<polygon fill="none" stroke="red" points="1190.5,-56.5 1190.5,-75.5 1329.5,-75.5 1329.5,-56.5 1190.5,-56.5"/>
<text text-anchor="middle" x="1260" y="-63.5" font-family="Helvetica,sans-Serif" font-size="10.00">OgreGLSLESLinkProgram.h</text>
</a>
</g>
</g>
<!-- Node3&#45;&gt;Node28 -->
<g id="edge35" class="edge"><title>Node3&#45;&gt;Node28</title>
<path fill="none" stroke="midnightblue" d="M1523.84,-163.264C1522.63,-147.218 1518.23,-124.955 1504,-112 1478.95,-89.2038 1392.61,-77.434 1329.73,-71.7458"/>
<polygon fill="midnightblue" stroke="midnightblue" points="1520.36,-163.776 1524.26,-173.628 1527.36,-163.495 1520.36,-163.776"/>
</g>
<!-- Node29 -->
<g id="node29" class="node"><title>Node29</title>
<g id="a_node29"><a xlink:href="_ogre_g_l_s_l_e_s_program_common_8h.html" target="_top" xlink:title="OgreGLSLESProgramCommon.h">
<polygon fill="none" stroke="red" points="915.5,-112.5 915.5,-131.5 1076.5,-131.5 1076.5,-112.5 915.5,-112.5"/>
<text text-anchor="middle" x="996" y="-119.5" font-family="Helvetica,sans-Serif" font-size="10.00">OgreGLSLESProgramCommon.h</text>
</a>
</g>
</g>
<!-- Node3&#45;&gt;Node29 -->
<g id="edge36" class="edge"><title>Node3&#45;&gt;Node29</title>
<path fill="none" stroke="midnightblue" d="M1482.32,-171.621C1476.2,-170.26 1469.96,-168.998 1464,-168 1297.56,-140.108 1253.96,-148.396 1086,-132 1083.03,-131.71 1080.01,-131.414 1076.95,-131.113"/>
<polygon fill="midnightblue" stroke="midnightblue" points="1481.88,-175.113 1492.41,-173.976 1483.47,-168.296 1481.88,-175.113"/>
</g>
<!-- Node5 -->
<g id="node5" class="node"><title>Node5</title>
<g id="a_node5"><a xlink:href="_ogre_node_8h.html" target="_top" xlink:title="OgreNode.h">
<polygon fill="none" stroke="red" points="2977.5,-56.5 2977.5,-75.5 3046.5,-75.5 3046.5,-56.5 2977.5,-56.5"/>
<text text-anchor="middle" x="3012" y="-63.5" font-family="Helvetica,sans-Serif" font-size="10.00">OgreNode.h</text>
</a>
</g>
</g>
<!-- Node4&#45;&gt;Node5 -->
<g id="edge4" class="edge"><title>Node4&#45;&gt;Node5</title>
<path fill="none" stroke="midnightblue" d="M2802.32,-110.449C2846.5,-101.354 2911.96,-87.8566 2969,-76 2971.69,-75.4412 2974.47,-74.8616 2977.27,-74.2781"/>
<polygon fill="midnightblue" stroke="midnightblue" points="2801.48,-107.047 2792.39,-112.491 2802.89,-113.903 2801.48,-107.047"/>
</g>
<!-- Node6&#45;&gt;Node7 -->
<g id="edge6" class="edge"><title>Node6&#45;&gt;Node7</title>
<path fill="none" stroke="midnightblue" d="M2454,-101.805C2454,-92.9102 2454,-82.7798 2454,-75.7511"/>
<polygon fill="midnightblue" stroke="midnightblue" points="2450.5,-102.083 2454,-112.083 2457.5,-102.083 2450.5,-102.083"/>
</g>
<!-- Node8 -->
<g id="node8" class="node"><title>Node8</title>
<g id="a_node8"><a xlink:href="_ogre_script_translator_8h.html" target="_top" xlink:title="OgreScriptTranslator.h">
<polygon fill="none" stroke="red" points="2844.5,-56.5 2844.5,-75.5 2959.5,-75.5 2959.5,-56.5 2844.5,-56.5"/>
<text text-anchor="middle" x="2902" y="-63.5" font-family="Helvetica,sans-Serif" font-size="10.00">OgreScriptTranslator.h</text>
</a>
</g>
</g>
<!-- Node6&#45;&gt;Node8 -->
<g id="edge7" class="edge"><title>Node6&#45;&gt;Node8</title>
<path fill="none" stroke="midnightblue" d="M2520.02,-111.761C2641.04,-96.2546 2771.27,-81.4624 2844.37,-73.3338"/>
<polygon fill="midnightblue" stroke="midnightblue" points="2519.31,-108.324 2509.84,-113.071 2520.2,-115.267 2519.31,-108.324"/>
</g>
<!-- Node9 -->
<g id="node9" class="node"><title>Node9</title>
<g id="a_node9"><a xlink:href="_ogre_shader_script_translator_8h.html" target="_top" xlink:title="OgreShaderScriptTranslator.h">
<polygon fill="none" stroke="red" points="2920,-0.5 2920,-19.5 3066,-19.5 3066,-0.5 2920,-0.5"/>
<text text-anchor="middle" x="2993" y="-7.5" font-family="Helvetica,sans-Serif" font-size="10.00">OgreShaderScriptTranslator.h</text>
</a>
</g>
</g>
<!-- Node8&#45;&gt;Node9 -->
<g id="edge8" class="edge"><title>Node8&#45;&gt;Node9</title>
<path fill="none" stroke="midnightblue" d="M2925.29,-51.1774C2942.04,-41.2407 2964.1,-28.1492 2978.42,-19.6545"/>
<polygon fill="midnightblue" stroke="midnightblue" points="2923.43,-48.2108 2916.62,-56.324 2927.01,-54.2307 2923.43,-48.2108"/>
</g>
<!-- Node10&#45;&gt;Node7 -->
<g id="edge11" class="edge"><title>Node10&#45;&gt;Node7</title>
<path fill="none" stroke="midnightblue" d="M2028.36,-111.858C2188.67,-94.2115 2367.99,-75.7793 2430.85,-69.3587"/>
<polygon fill="midnightblue" stroke="midnightblue" points="2027.87,-108.391 2018.32,-112.966 2028.64,-115.349 2027.87,-108.391"/>
</g>
<!-- Node11&#45;&gt;Node7 -->
<g id="edge13" class="edge"><title>Node11&#45;&gt;Node7</title>
<path fill="none" stroke="midnightblue" d="M2340.7,-108.906C2368.15,-98.7536 2406.67,-84.5063 2430.97,-75.5164"/>
<polygon fill="midnightblue" stroke="midnightblue" points="2339.3,-105.692 2331.13,-112.444 2341.73,-112.257 2339.3,-105.692"/>
</g>
<!-- Node12&#45;&gt;Node7 -->
<g id="edge15" class="edge"><title>Node12&#45;&gt;Node7</title>
<path fill="none" stroke="midnightblue" d="M2188.87,-110.783C2262.37,-98.6458 2381.27,-79.0111 2430.99,-70.8"/>
<polygon fill="midnightblue" stroke="midnightblue" points="2188.11,-107.361 2178.81,-112.444 2189.25,-114.267 2188.11,-107.361"/>
</g>
<!-- Node13&#45;&gt;Node7 -->
<g id="edge17" class="edge"><title>Node13&#45;&gt;Node7</title>
<path fill="none" stroke="midnightblue" d="M1833.55,-112.439C1835.05,-112.288 1836.53,-112.142 1838,-112 2068.81,-89.7328 2349.23,-72.9747 2430.75,-68.3073"/>
<polygon fill="midnightblue" stroke="midnightblue" points="1833.14,-108.963 1823.56,-113.488 1833.87,-115.925 1833.14,-108.963"/>
</g>
<!-- Node15&#45;&gt;Node8 -->
<g id="edge21" class="edge"><title>Node15&#45;&gt;Node8</title>
<path fill="none" stroke="midnightblue" d="M3118.56,-110.473C3067.72,-100.268 2991.56,-84.9794 2944.42,-75.5164"/>
<polygon fill="midnightblue" stroke="midnightblue" points="3117.88,-113.907 3128.38,-112.444 3119.26,-107.044 3117.88,-113.907"/>
</g>
<!-- Node15&#45;&gt;Node9 -->
<g id="edge22" class="edge"><title>Node15&#45;&gt;Node9</title>
<path fill="none" stroke="midnightblue" d="M3148.36,-107.009C3111,-83.919 3037.52,-38.5104 3006.9,-19.5914"/>
<polygon fill="midnightblue" stroke="midnightblue" points="3146.69,-110.089 3157.03,-112.368 3150.37,-104.134 3146.69,-110.089"/>
</g>
<!-- Node16 -->
<g id="node16" class="node"><title>Node16</title>
<g id="a_node16"><a xlink:href="_ogre_script_parser_8h.html" target="_top" xlink:title="OgreScriptParser.h">
<polygon fill="none" stroke="black" points="3121,-56.5 3121,-75.5 3221,-75.5 3221,-56.5 3121,-56.5"/>
<text text-anchor="middle" x="3171" y="-63.5" font-family="Helvetica,sans-Serif" font-size="10.00">OgreScriptParser.h</text>
</a>
</g>
</g>
<!-- Node15&#45;&gt;Node16 -->
<g id="edge20" class="edge"><title>Node15&#45;&gt;Node16</title>
<path fill="none" stroke="midnightblue" d="M3171,-101.805C3171,-92.9102 3171,-82.7798 3171,-75.7511"/>
<polygon fill="midnightblue" stroke="midnightblue" points="3167.5,-102.083 3171,-112.083 3174.5,-102.083 3167.5,-102.083"/>
</g>
<!-- Node26&#45;&gt;Node25 -->
<g id="edge33" class="edge"><title>Node26&#45;&gt;Node25</title>
<path fill="none" stroke="midnightblue" d="M672.017,-103.855C679.117,-94.5048 687.604,-83.3265 693.356,-75.7511"/>
<polygon fill="midnightblue" stroke="midnightblue" points="669.03,-102.002 665.77,-112.083 674.605,-106.235 669.03,-102.002"/>
</g>
<!-- Node29&#45;&gt;Node28 -->
<g id="edge37" class="edge"><title>Node29&#45;&gt;Node28</title>
<path fill="none" stroke="midnightblue" d="M1047.78,-110.41C1097.67,-100.204 1172.2,-84.9597 1218.36,-75.5164"/>
<polygon fill="midnightblue" stroke="midnightblue" points="1046.93,-107.01 1037.83,-112.444 1048.33,-113.869 1046.93,-107.01"/>
</g>
<!-- Node30&#45;&gt;Node18 -->
<g id="edge41" class="edge"><title>Node30&#45;&gt;Node18</title>
<path fill="none" stroke="midnightblue" d="M300.95,-171.902C246.473,-160.367 160.438,-142.15 110.186,-131.509"/>
<polygon fill="midnightblue" stroke="midnightblue" points="300.231,-175.328 310.74,-173.975 301.682,-168.479 300.231,-175.328"/>
</g>
<!-- Node31&#45;&gt;Node19 -->
<g id="edge43" class="edge"><title>Node31&#45;&gt;Node19</title>
<path fill="none" stroke="midnightblue" d="M2173.78,-173.327C2271.69,-161.926 2437.46,-142.624 2532.73,-131.531"/>
<polygon fill="midnightblue" stroke="midnightblue" points="2173.18,-169.873 2163.65,-174.506 2173.99,-176.826 2173.18,-169.873"/>
</g>
<!-- Node33&#45;&gt;Node4 -->
<g id="edge46" class="edge"><title>Node33&#45;&gt;Node4</title>
<path fill="none" stroke="midnightblue" d="M2726.48,-231.226C2711.77,-224.162 2696.41,-213.753 2688,-199 2681.18,-187.03 2681.7,-180.251 2688,-168 2696.8,-150.909 2715.42,-138.871 2730.15,-131.573"/>
<polygon fill="midnightblue" stroke="midnightblue" points="2725.42,-234.582 2735.98,-235.397 2728.24,-228.173 2725.42,-234.582"/>
</g>
<!-- Node33&#45;&gt;Node5 -->
<g id="edge51" class="edge"><title>Node33&#45;&gt;Node5</title>
<path fill="none" stroke="midnightblue" d="M2779.76,-228.119C2799.33,-208.634 2831.85,-177.066 2846,-168 2881.23,-145.422 2897.12,-153.529 2933,-132 2961.02,-115.186 2989.57,-88.9632 3003.42,-75.5427"/>
<polygon fill="midnightblue" stroke="midnightblue" points="2777.09,-225.846 2772.49,-235.394 2782.04,-230.794 2777.09,-225.846"/>
</g>
<!-- Node34 -->
<g id="node34" class="node"><title>Node34</title>
<g id="a_node34"><a xlink:href="_ogre_pass_8h.html" target="_top" xlink:title="OgrePass.h">
<polygon fill="none" stroke="red" points="2730,-174 2730,-193 2798,-193 2798,-174 2730,-174"/>
<text text-anchor="middle" x="2764" y="-181" font-family="Helvetica,sans-Serif" font-size="10.00">OgrePass.h</text>
</a>
</g>
</g>
<!-- Node33&#45;&gt;Node34 -->
<g id="edge47" class="edge"><title>Node33&#45;&gt;Node34</title>
<path fill="none" stroke="midnightblue" d="M2764,-225.317C2764,-214.496 2764,-201.398 2764,-193.009"/>
<polygon fill="midnightblue" stroke="midnightblue" points="2760.5,-225.475 2764,-235.475 2767.5,-225.475 2760.5,-225.475"/>
</g>
<!-- Node35 -->
<g id="node35" class="node"><title>Node35</title>
<g id="a_node35"><a xlink:href="_ogre_technique_8h.html" target="_top" xlink:title="OgreTechnique.h">
<polygon fill="none" stroke="black" points="2816.5,-112.5 2816.5,-131.5 2907.5,-131.5 2907.5,-112.5 2816.5,-112.5"/>
<text text-anchor="middle" x="2862" y="-119.5" font-family="Helvetica,sans-Serif" font-size="10.00">OgreTechnique.h</text>
</a>
</g>
</g>
<!-- Node33&#45;&gt;Node35 -->
<g id="edge52" class="edge"><title>Node33&#45;&gt;Node35</title>
<path fill="none" stroke="midnightblue" d="M2745.06,-228.854C2727.62,-213.049 2706.5,-187.851 2721,-168 2732.48,-152.283 2779.76,-139.408 2816.44,-131.517"/>
<polygon fill="midnightblue" stroke="midnightblue" points="2742.8,-231.532 2752.67,-235.402 2747.37,-226.226 2742.8,-231.532"/>
</g>
<!-- Node34&#45;&gt;Node7 -->
<g id="edge48" class="edge"><title>Node34&#45;&gt;Node7</title>
<path fill="none" stroke="midnightblue" d="M2800.96,-170.884C2845.67,-156.751 2915.22,-134.456 2917,-132 2922.21,-124.797 2922.97,-118.582 2917,-112 2887.15,-79.1073 2566.67,-69.5153 2477.12,-67.468"/>
<polygon fill="midnightblue" stroke="midnightblue" points="2799.77,-167.591 2791.28,-173.939 2801.87,-174.267 2799.77,-167.591"/>
</g>
<!-- Node34&#45;&gt;Node35 -->
<g id="edge49" class="edge"><title>Node34&#45;&gt;Node35</title>
<path fill="none" stroke="midnightblue" d="M2786.66,-168.744C2805.59,-157.25 2831.99,-141.223 2847.99,-131.509"/>
<polygon fill="midnightblue" stroke="midnightblue" points="2784.77,-165.794 2778.04,-173.975 2788.41,-171.777 2784.77,-165.794"/>
</g>
<!-- Node35&#45;&gt;Node7 -->
<g id="edge50" class="edge"><title>Node35&#45;&gt;Node7</title>
<path fill="none" stroke="midnightblue" d="M2806.21,-111.781C2676.03,-92.843 2532.44,-75.9737 2477.24,-69.6383"/>
<polygon fill="midnightblue" stroke="midnightblue" points="2805.95,-115.28 2816.35,-113.265 2806.97,-108.354 2805.95,-115.28"/>
</g>
<!-- Node36&#45;&gt;Node7 -->
<g id="edge55" class="edge"><title>Node36&#45;&gt;Node7</title>
<path fill="none" stroke="midnightblue" d="M2986.11,-226.074C2993.6,-210.284 3001.22,-186.92 2993,-168 2978.46,-134.545 2966.27,-126.95 2933,-112 2849.96,-74.6851 2561,-68.29 2477.04,-67.2136"/>
<polygon fill="midnightblue" stroke="midnightblue" points="2982.85,-224.744 2981.37,-235.234 2989.07,-227.962 2982.85,-224.744"/>
</g>
<!-- Node37 -->
<g id="node37" class="node"><title>Node37</title>
<g id="a_node37"><a xlink:href="_ogre_mesh_serializer_impl_8h.html" target="_top" xlink:title="OgreMeshSerializerImpl.h">
<polygon fill="none" stroke="red" points="2854.5,-174 2854.5,-193 2983.5,-193 2983.5,-174 2854.5,-174"/>
<text text-anchor="middle" x="2919" y="-181" font-family="Helvetica,sans-Serif" font-size="10.00">OgreMeshSerializerImpl.h</text>
</a>
</g>
</g>
<!-- Node36&#45;&gt;Node37 -->
<g id="edge56" class="edge"><title>Node36&#45;&gt;Node37</title>
<path fill="none" stroke="midnightblue" d="M2960.67,-227.997C2949.88,-216.736 2935.86,-202.104 2927.15,-193.009"/>
<polygon fill="midnightblue" stroke="midnightblue" points="2958.39,-230.675 2967.83,-235.475 2963.44,-225.833 2958.39,-230.675"/>
</g>
<!-- Node39 -->
<g id="node39" class="node"><title>Node39</title>
<g id="a_node39"><a xlink:href="_ogre_resource_background_queue_8h.html" target="_top" xlink:title="OgreResourceBackgroundQueue.h">
<polygon fill="none" stroke="black" points="3078,-174 3078,-193 3246,-193 3246,-174 3078,-174"/>
<text text-anchor="middle" x="3162" y="-181" font-family="Helvetica,sans-Serif" font-size="10.00">OgreResourceBackgroundQueue.h</text>
</a>
</g>
</g>
<!-- Node38&#45;&gt;Node39 -->
<g id="edge58" class="edge"><title>Node38&#45;&gt;Node39</title>
<path fill="none" stroke="midnightblue" d="M3584.69,-236.679C3495.15,-225.625 3325.83,-204.724 3230.92,-193.008"/>
<polygon fill="midnightblue" stroke="midnightblue" points="3584.33,-240.16 3594.68,-237.912 3585.19,-233.213 3584.33,-240.16"/>
</g>
<!-- Node40 -->
<g id="node40" class="node"><title>Node40</title>
<g id="a_node40"><a xlink:href="_ogre_default_work_queue_standard_8h.html" target="_top" xlink:title="OgreDefaultWorkQueueStandard.h">
<polygon fill="none" stroke="red" points="3771,-174 3771,-193 3939,-193 3939,-174 3771,-174"/>
<text text-anchor="middle" x="3855" y="-181" font-family="Helvetica,sans-Serif" font-size="10.00">OgreDefaultWorkQueueStandard.h</text>
</a>
</g>
</g>
<!-- Node38&#45;&gt;Node40 -->
<g id="edge60" class="edge"><title>Node38&#45;&gt;Node40</title>
<path fill="none" stroke="midnightblue" d="M3683.9,-232.749C3724.89,-221.189 3787.8,-203.451 3824.82,-193.009"/>
<polygon fill="midnightblue" stroke="midnightblue" points="3682.91,-229.392 3674.23,-235.475 3684.81,-236.13 3682.91,-229.392"/>
</g>
<!-- Node41 -->
<g id="node41" class="node"><title>Node41</title>
<g id="a_node41"><a xlink:href="_ogre_default_work_queue_t_b_b_8h.html" target="_top" xlink:title="OgreDefaultWorkQueueTBB.h">
<polygon fill="none" stroke="black" points="3956.5,-174 3956.5,-193 4105.5,-193 4105.5,-174 3956.5,-174"/>
<text text-anchor="middle" x="4031" y="-181" font-family="Helvetica,sans-Serif" font-size="10.00">OgreDefaultWorkQueueTBB.h</text>
</a>
</g>
</g>
<!-- Node38&#45;&gt;Node41 -->
<g id="edge61" class="edge"><title>Node38&#45;&gt;Node41</title>
<path fill="none" stroke="midnightblue" d="M3703.45,-234.944C3813.53,-218.558 3842.52,-215.96 3948,-199 3959.55,-197.142 3971.99,-195.03 3983.63,-193.003"/>
<polygon fill="midnightblue" stroke="midnightblue" points="3702.63,-231.528 3693.25,-236.466 3703.66,-238.451 3702.63,-231.528"/>
</g>
<!-- Node42 -->
<g id="node42" class="node"><title>Node42</title>
<g id="a_node42"><a xlink:href="_ogre_lod_work_queue_injector_8h.html" target="_top" xlink:title="OgreLodWorkQueueInjector.h">
<polygon fill="none" stroke="black" points="4161,-174 4161,-193 4307,-193 4307,-174 4161,-174"/>
<text text-anchor="middle" x="4234" y="-181" font-family="Helvetica,sans-Serif" font-size="10.00">OgreLodWorkQueueInjector.h</text>
</a>
</g>
</g>
<!-- Node38&#45;&gt;Node42 -->
<g id="edge62" class="edge"><title>Node38&#45;&gt;Node42</title>
<path fill="none" stroke="midnightblue" d="M3703.37,-235.052C3901.38,-212.422 3953.78,-222.892 4147,-199 4160.07,-197.384 4174.18,-195.217 4187.15,-193.052"/>
<polygon fill="midnightblue" stroke="midnightblue" points="3702.75,-231.6 3693.22,-236.227 3703.56,-238.554 3702.75,-231.6"/>
</g>
<!-- Node43 -->
<g id="node43" class="node"><title>Node43</title>
<g id="a_node43"><a xlink:href="_ogre_lod_work_queue_worker_8h.html" target="_top" xlink:title="OgreLodWorkQueueWorker.h">
<polygon fill="none" stroke="black" points="4325.5,-174 4325.5,-193 4470.5,-193 4470.5,-174 4325.5,-174"/>
<text text-anchor="middle" x="4398" y="-181" font-family="Helvetica,sans-Serif" font-size="10.00">OgreLodWorkQueueWorker.h</text>
</a>
</g>
</g>
<!-- Node38&#45;&gt;Node43 -->
<g id="edge63" class="edge"><title>Node38&#45;&gt;Node43</title>
<path fill="none" stroke="midnightblue" d="M3703.42,-235.079C3976.16,-206.98 4048.26,-230.426 4316,-199 4328.78,-197.5 4342.58,-195.291 4355.16,-193.046"/>
<polygon fill="midnightblue" stroke="midnightblue" points="3702.79,-231.625 3693.21,-236.144 3703.52,-238.587 3702.79,-231.625"/>
</g>
<!-- Node44 -->
<g id="node44" class="node"><title>Node44</title>
<g id="a_node44"><a xlink:href="_ogre_page_8h.html" target="_top" xlink:title="OgrePage.h">
<polygon fill="none" stroke="red" points="3302,-174 3302,-193 3370,-193 3370,-174 3302,-174"/>
<text text-anchor="middle" x="3336" y="-181" font-family="Helvetica,sans-Serif" font-size="10.00">OgrePage.h</text>
</a>
</g>
</g>
<!-- Node38&#45;&gt;Node44 -->
<g id="edge64" class="edge"><title>Node38&#45;&gt;Node44</title>
<path fill="none" stroke="midnightblue" d="M3584.86,-235.867C3531.89,-228.084 3452.26,-215.154 3384,-199 3376.88,-197.316 3369.27,-195.176 3362.25,-193.061"/>
<polygon fill="midnightblue" stroke="midnightblue" points="3584.36,-239.33 3594.76,-237.307 3585.37,-232.403 3584.36,-239.33"/>
</g>
<!-- Node45 -->
<g id="node45" class="node"><title>Node45</title>
<g id="a_node45"><a xlink:href="_ogre_terrain_8h.html" target="_top" xlink:title="OgreTerrain.h">
<polygon fill="none" stroke="black" points="3579,-112.5 3579,-131.5 3655,-131.5 3655,-112.5 3579,-112.5"/>
<text text-anchor="middle" x="3617" y="-119.5" font-family="Helvetica,sans-Serif" font-size="10.00">OgreTerrain.h</text>
</a>
</g>
</g>
<!-- Node38&#45;&gt;Node45 -->
<g id="edge65" class="edge"><title>Node38&#45;&gt;Node45</title>
<path fill="none" stroke="midnightblue" d="M3683.69,-231.576C3699.09,-224.594 3715.14,-214.15 3724,-199 3730.96,-187.107 3731.62,-179.476 3724,-168 3708.78,-145.087 3679.37,-133.815 3655.23,-128.284"/>
<polygon fill="midnightblue" stroke="midnightblue" points="3682.15,-228.427 3674.25,-235.488 3684.83,-234.894 3682.15,-228.427"/>
</g>
<!-- Node46 -->
<g id="node46" class="node"><title>Node46</title>
<g id="a_node46"><a xlink:href="_ogre_terrain_group_8h.html" target="_top" xlink:title="OgreTerrainGroup.h">
<polygon fill="none" stroke="black" points="3566,-56.5 3566,-75.5 3668,-75.5 3668,-56.5 3566,-56.5"/>
<text text-anchor="middle" x="3617" y="-63.5" font-family="Helvetica,sans-Serif" font-size="10.00">OgreTerrainGroup.h</text>
</a>
</g>
</g>
<!-- Node38&#45;&gt;Node46 -->
<g id="edge70" class="edge"><title>Node38&#45;&gt;Node46</title>
<path fill="none" stroke="midnightblue" d="M3584.71,-240.505C3524.97,-235.599 3438.72,-224.253 3418,-199 3366.98,-136.823 3507.57,-93.0779 3578.66,-75.5361"/>
<polygon fill="midnightblue" stroke="midnightblue" points="3584.56,-244.004 3594.8,-241.294 3585.1,-237.025 3584.56,-244.004"/>
</g>
<!-- Node47 -->
<g id="node47" class="node"><title>Node47</title>
<g id="a_node47"><a xlink:href="_ogre_terrain_paged_world_section_8h.html" target="_top" xlink:title="OgreTerrainPagedWorldSection.h">
<polygon fill="none" stroke="black" points="3857,-0.5 3857,-19.5 4019,-19.5 4019,-0.5 3857,-0.5"/>
<text text-anchor="middle" x="3938" y="-7.5" font-family="Helvetica,sans-Serif" font-size="10.00">OgreTerrainPagedWorldSection.h</text>
</a>
</g>
</g>
<!-- Node38&#45;&gt;Node47 -->
<g id="edge71" class="edge"><title>Node38&#45;&gt;Node47</title>
<path fill="none" stroke="midnightblue" d="M3703.27,-235.332C3780.65,-229.77 4085.47,-231.224 4115,-199 4179.21,-128.936 4015.69,-45.9866 3957.58,-19.5427"/>
<polygon fill="midnightblue" stroke="midnightblue" points="3702.86,-231.855 3693.22,-236.25 3703.5,-238.826 3702.86,-231.855"/>
</g>
<!-- Node48 -->
<g id="node48" class="node"><title>Node48</title>
<g id="a_node48"><a xlink:href="_ogre_terrain_lod_manager_8h.html" target="_top" xlink:title="OgreTerrainLodManager.h">
<polygon fill="none" stroke="black" points="3426.5,-174 3426.5,-193 3555.5,-193 3555.5,-174 3426.5,-174"/>
<text text-anchor="middle" x="3491" y="-181" font-family="Helvetica,sans-Serif" font-size="10.00">OgreTerrainLodManager.h</text>
</a>
</g>
</g>
<!-- Node38&#45;&gt;Node48 -->
<g id="edge68" class="edge"><title>Node38&#45;&gt;Node48</title>
<path fill="none" stroke="midnightblue" d="M3612.58,-231.782C3582.85,-220.22 3538.99,-203.164 3512.88,-193.009"/>
<polygon fill="midnightblue" stroke="midnightblue" points="3611.49,-235.113 3622.08,-235.475 3614.03,-228.589 3611.49,-235.113"/>
</g>
<!-- Node49 -->
<g id="node49" class="node"><title>Node49</title>
<g id="a_node49"><a xlink:href="_ogre_volume_chunk_handler_8h.html" target="_top" xlink:title="OgreVolumeChunkHandler.h">
<polygon fill="none" stroke="black" points="3573.5,-174 3573.5,-193 3714.5,-193 3714.5,-174 3573.5,-174"/>
<text text-anchor="middle" x="3644" y="-181" font-family="Helvetica,sans-Serif" font-size="10.00">OgreVolumeChunkHandler.h</text>
</a>
</g>
</g>
<!-- Node38&#45;&gt;Node49 -->
<g id="edge72" class="edge"><title>Node38&#45;&gt;Node49</title>
<path fill="none" stroke="midnightblue" d="M3644,-225.317C3644,-214.496 3644,-201.398 3644,-193.009"/>
<polygon fill="midnightblue" stroke="midnightblue" points="3640.5,-225.475 3644,-235.475 3647.5,-225.475 3640.5,-225.475"/>
</g>
<!-- Node39&#45;&gt;Node7 -->
<g id="edge59" class="edge"><title>Node39&#45;&gt;Node7</title>
<path fill="none" stroke="midnightblue" d="M3146.18,-166.781C3128.06,-149.885 3096.63,-123.859 3064,-112 2953.09,-71.6887 2574.99,-67.4541 2477.23,-67.0383"/>
<polygon fill="midnightblue" stroke="midnightblue" points="3143.89,-169.429 3153.53,-173.818 3148.73,-164.373 3143.89,-169.429"/>
</g>
<!-- Node45&#45;&gt;Node46 -->
<g id="edge66" class="edge"><title>Node45&#45;&gt;Node46</title>
<path fill="none" stroke="midnightblue" d="M3617,-101.805C3617,-92.9102 3617,-82.7798 3617,-75.7511"/>
<polygon fill="midnightblue" stroke="midnightblue" points="3613.5,-102.083 3617,-112.083 3620.5,-102.083 3613.5,-102.083"/>
</g>
<!-- Node46&#45;&gt;Node47 -->
<g id="edge67" class="edge"><title>Node46&#45;&gt;Node47</title>
<path fill="none" stroke="midnightblue" d="M3678.06,-54.7275C3738.72,-44.523 3830.65,-29.0583 3887.37,-19.5164"/>
<polygon fill="midnightblue" stroke="midnightblue" points="3677.14,-51.333 3667.86,-56.4435 3678.31,-58.236 3677.14,-51.333"/>
</g>
<!-- Node48&#45;&gt;Node45 -->
<g id="edge69" class="edge"><title>Node48&#45;&gt;Node45</title>
<path fill="none" stroke="midnightblue" d="M3518.16,-169.674C3542.61,-158.129 3577.85,-141.487 3598.98,-131.509"/>
<polygon fill="midnightblue" stroke="midnightblue" points="3516.6,-166.54 3509.05,-173.975 3519.59,-172.87 3516.6,-166.54"/>
</g>
</g>
</svg>
