<?xml version="1.0" encoding="UTF-8" standalone="no"?>
<!DOCTYPE svg PUBLIC "-//W3C//DTD SVG 1.1//EN"
 "http://www.w3.org/Graphics/SVG/1.1/DTD/svg11.dtd">
<!-- Generated by graphviz version 2.38.0 (20140413.2041)
 -->
<!-- Title: OgreSkeletonInstance.h Pages: 1 -->
<svg width="3276pt" height="476pt"
 viewBox="0.00 0.00 3276.00 476.00" xmlns="http://www.w3.org/2000/svg" xmlns:xlink="http://www.w3.org/1999/xlink">
<g id="graph0" class="graph" transform="scale(1 1) rotate(0) translate(4 472)">
<title>OgreSkeletonInstance.h</title>
<!-- Node1 -->
<g id="node1" class="node"><title>Node1</title>
<polygon fill="#bfbfbf" stroke="black" points="579,-448.5 579,-467.5 701,-467.5 701,-448.5 579,-448.5"/>
<text text-anchor="middle" x="640" y="-455.5" font-family="Helvetica,sans-Serif" font-size="10.00">OgreSkeletonInstance.h</text>
</g>
<!-- Node2 -->
<g id="node2" class="node"><title>Node2</title>
<g id="a_node2"><a xlink:href="_ogre_prerequisites_8h.html" target="_top" xlink:title="OgrePrerequisites.h">
<polygon fill="none" stroke="black" points="704.5,-168.5 704.5,-187.5 807.5,-187.5 807.5,-168.5 704.5,-168.5"/>
<text text-anchor="middle" x="756" y="-175.5" font-family="Helvetica,sans-Serif" font-size="10.00">OgrePrerequisites.h</text>
</a>
</g>
</g>
<!-- Node1&#45;&gt;Node2 -->
<g id="edge1" class="edge"><title>Node1&#45;&gt;Node2</title>
<path fill="none" stroke="midnightblue" d="M628.457,-448.433C607.196,-431.571 564,-391.799 564,-347 564,-347 564,-347 564,-289 564,-227.844 638.244,-200.211 694.396,-188.058"/>
<polygon fill="midnightblue" stroke="midnightblue" points="695.2,-191.466 704.295,-186.032 693.796,-184.608 695.2,-191.466"/>
</g>
<!-- Node38 -->
<g id="node38" class="node"><title>Node38</title>
<g id="a_node38"><a xlink:href="_ogre_header_prefix_8h.html" target="_top" xlink:title="OgreHeaderPrefix.h">
<polygon fill="none" stroke="black" points="2593.5,-0.5 2593.5,-19.5 2696.5,-19.5 2696.5,-0.5 2593.5,-0.5"/>
<text text-anchor="middle" x="2645" y="-7.5" font-family="Helvetica,sans-Serif" font-size="10.00">OgreHeaderPrefix.h</text>
</a>
</g>
</g>
<!-- Node1&#45;&gt;Node38 -->
<g id="edge81" class="edge"><title>Node1&#45;&gt;Node38</title>
<path fill="none" stroke="midnightblue" d="M578.924,-452.886C418.953,-441.298 0,-405.378 0,-347 0,-347 0,-347 0,-121 0,-83.7249 19.4691,-72.2822 53,-56 111.739,-27.4772 2195.19,-13.6811 2583.15,-11.3567"/>
<polygon fill="midnightblue" stroke="midnightblue" points="2583.35,-14.8556 2593.33,-11.296 2583.31,-7.85576 2583.35,-14.8556"/>
</g>
<!-- Node39 -->
<g id="node39" class="node"><title>Node39</title>
<g id="a_node39"><a xlink:href="_ogre_header_suffix_8h.html" target="_top" xlink:title="OgreHeaderSuffix.h">
<polygon fill="none" stroke="black" points="2977.5,-0.5 2977.5,-19.5 3080.5,-19.5 3080.5,-0.5 2977.5,-0.5"/>
<text text-anchor="middle" x="3029" y="-7.5" font-family="Helvetica,sans-Serif" font-size="10.00">OgreHeaderSuffix.h</text>
</a>
</g>
</g>
<!-- Node1&#45;&gt;Node39 -->
<g id="edge82" class="edge"><title>Node1&#45;&gt;Node39</title>
<path fill="none" stroke="midnightblue" d="M701.092,-456.087C1095.67,-449.993 3268,-413.428 3268,-347 3268,-347 3268,-347 3268,-121 3268,-42.9621 3161.55,-20.0925 3090.74,-13.5125"/>
<polygon fill="midnightblue" stroke="midnightblue" points="3090.82,-10.0074 3080.57,-12.6552 3090.24,-16.9827 3090.82,-10.0074"/>
</g>
<!-- Node42 -->
<g id="node42" class="node"><title>Node42</title>
<g id="a_node42"><a xlink:href="_ogre_skeleton_8h.html" target="_top" xlink:title="OgreSkeleton.h">
<polygon fill="none" stroke="black" points="675,-392.5 675,-411.5 759,-411.5 759,-392.5 675,-392.5"/>
<text text-anchor="middle" x="717" y="-399.5" font-family="Helvetica,sans-Serif" font-size="10.00">OgreSkeleton.h</text>
</a>
</g>
</g>
<!-- Node1&#45;&gt;Node42 -->
<g id="edge50" class="edge"><title>Node1&#45;&gt;Node42</title>
<path fill="none" stroke="midnightblue" d="M652.371,-448.324C664.158,-440.058 682.132,-427.453 696.136,-417.632"/>
<polygon fill="midnightblue" stroke="midnightblue" points="698.482,-420.262 704.659,-411.655 694.462,-414.531 698.482,-420.262"/>
</g>
<!-- Node3 -->
<g id="node3" class="node"><title>Node3</title>
<g id="a_node3"><a xlink:href="_ogre_platform_8h.html" target="_top" xlink:title="OgrePlatform.h">
<polygon fill="none" stroke="black" points="218.5,-112.5 218.5,-131.5 301.5,-131.5 301.5,-112.5 218.5,-112.5"/>
<text text-anchor="middle" x="260" y="-119.5" font-family="Helvetica,sans-Serif" font-size="10.00">OgrePlatform.h</text>
</a>
</g>
</g>
<!-- Node2&#45;&gt;Node3 -->
<g id="edge2" class="edge"><title>Node2&#45;&gt;Node3</title>
<path fill="none" stroke="midnightblue" d="M704.323,-171.374C609.043,-161.001 406.744,-138.976 311.555,-128.613"/>
<polygon fill="midnightblue" stroke="midnightblue" points="311.907,-125.131 301.587,-127.528 311.149,-132.089 311.907,-125.131"/>
</g>
<!-- Node5 -->
<g id="node5" class="node"><title>Node5</title>
<polygon fill="none" stroke="#bfbfbf" points="310.5,-56.5 310.5,-75.5 351.5,-75.5 351.5,-56.5 310.5,-56.5"/>
<text text-anchor="middle" x="331" y="-63.5" font-family="Helvetica,sans-Serif" font-size="10.00">string</text>
</g>
<!-- Node2&#45;&gt;Node5 -->
<g id="edge4" class="edge"><title>Node2&#45;&gt;Node5</title>
<path fill="none" stroke="midnightblue" d="M720.731,-168.498C653.142,-152.094 500.515,-114.514 361.601,-76.0775"/>
<polygon fill="midnightblue" stroke="midnightblue" points="362.196,-72.6104 351.624,-73.3088 360.324,-79.3555 362.196,-72.6104"/>
</g>
<!-- Node6 -->
<g id="node6" class="node"><title>Node6</title>
<g id="a_node6"><a xlink:href="_ogre_std_headers_8h.html" target="_top" xlink:title="OgreStdHeaders.h">
<polygon fill="none" stroke="black" points="1503,-112.5 1503,-131.5 1601,-131.5 1601,-112.5 1503,-112.5"/>
<text text-anchor="middle" x="1552" y="-119.5" font-family="Helvetica,sans-Serif" font-size="10.00">OgreStdHeaders.h</text>
</a>
</g>
</g>
<!-- Node2&#45;&gt;Node6 -->
<g id="edge5" class="edge"><title>Node2&#45;&gt;Node6</title>
<path fill="none" stroke="midnightblue" d="M807.614,-173.499C949.002,-163.907 1342,-137.246 1492.4,-127.043"/>
<polygon fill="midnightblue" stroke="midnightblue" points="1493.06,-130.506 1502.8,-126.337 1492.59,-123.522 1493.06,-130.506"/>
</g>
<!-- Node36 -->
<g id="node36" class="node"><title>Node36</title>
<g id="a_node36"><a xlink:href="_ogre_memory_allocator_config_8h.html" target="_top" xlink:title="This file configures Ogre&#39;s memory allocators. ">
<polygon fill="none" stroke="black" points="2659,-112.5 2659,-131.5 2807,-131.5 2807,-112.5 2659,-112.5"/>
<text text-anchor="middle" x="2733" y="-119.5" font-family="Helvetica,sans-Serif" font-size="10.00">OgreMemoryAllocatorConfig.h</text>
</a>
</g>
</g>
<!-- Node2&#45;&gt;Node36 -->
<g id="edge36" class="edge"><title>Node2&#45;&gt;Node36</title>
<path fill="none" stroke="midnightblue" d="M807.611,-175.59C1076.01,-168.259 2312.79,-134.478 2648.64,-125.304"/>
<polygon fill="midnightblue" stroke="midnightblue" points="2648.88,-128.799 2658.79,-125.027 2648.69,-121.802 2648.88,-128.799"/>
</g>
<!-- Node4 -->
<g id="node4" class="node"><title>Node4</title>
<g id="a_node4"><a xlink:href="_ogre_config_8h.html" target="_top" xlink:title="OgreConfig.h">
<polygon fill="none" stroke="red" points="218,-56.5 218,-75.5 292,-75.5 292,-56.5 218,-56.5"/>
<text text-anchor="middle" x="255" y="-63.5" font-family="Helvetica,sans-Serif" font-size="10.00">OgreConfig.h</text>
</a>
</g>
</g>
<!-- Node3&#45;&gt;Node4 -->
<g id="edge3" class="edge"><title>Node3&#45;&gt;Node4</title>
<path fill="none" stroke="midnightblue" d="M259.174,-112.083C258.519,-105.006 257.58,-94.8611 256.758,-85.9865"/>
<polygon fill="midnightblue" stroke="midnightblue" points="260.217,-85.3858 255.81,-75.7511 253.247,-86.0312 260.217,-85.3858"/>
</g>
<!-- Node6&#45;&gt;Node5 -->
<g id="edge15" class="edge"><title>Node6&#45;&gt;Node5</title>
<path fill="none" stroke="midnightblue" d="M1502.96,-120.802C1310.49,-119.774 605.805,-113.577 361.704,-75.5812"/>
<polygon fill="midnightblue" stroke="midnightblue" points="362.252,-72.1244 351.821,-73.9827 361.134,-79.0346 362.252,-72.1244"/>
</g>
<!-- Node7 -->
<g id="node7" class="node"><title>Node7</title>
<polygon fill="none" stroke="#bfbfbf" points="1340.5,-56.5 1340.5,-75.5 1389.5,-75.5 1389.5,-56.5 1340.5,-56.5"/>
<text text-anchor="middle" x="1365" y="-63.5" font-family="Helvetica,sans-Serif" font-size="10.00">cassert</text>
</g>
<!-- Node6&#45;&gt;Node7 -->
<g id="edge6" class="edge"><title>Node6&#45;&gt;Node7</title>
<path fill="none" stroke="midnightblue" d="M1522.37,-112.444C1489,-102.808 1434.84,-87.168 1399.57,-76.9826"/>
<polygon fill="midnightblue" stroke="midnightblue" points="1400.29,-73.5486 1389.71,-74.1368 1398.35,-80.2738 1400.29,-73.5486"/>
</g>
<!-- Node8 -->
<g id="node8" class="node"><title>Node8</title>
<polygon fill="none" stroke="#bfbfbf" points="1407.5,-56.5 1407.5,-75.5 1450.5,-75.5 1450.5,-56.5 1407.5,-56.5"/>
<text text-anchor="middle" x="1429" y="-63.5" font-family="Helvetica,sans-Serif" font-size="10.00">cstdio</text>
</g>
<!-- Node6&#45;&gt;Node8 -->
<g id="edge7" class="edge"><title>Node6&#45;&gt;Node8</title>
<path fill="none" stroke="midnightblue" d="M1532.51,-112.444C1512.36,-103.596 1480.68,-89.6875 1457.67,-79.5865"/>
<polygon fill="midnightblue" stroke="midnightblue" points="1458.96,-76.3316 1448.4,-75.5164 1456.15,-82.7411 1458.96,-76.3316"/>
</g>
<!-- Node9 -->
<g id="node9" class="node"><title>Node9</title>
<polygon fill="none" stroke="#bfbfbf" points="1468.5,-56.5 1468.5,-75.5 1513.5,-75.5 1513.5,-56.5 1468.5,-56.5"/>
<text text-anchor="middle" x="1491" y="-63.5" font-family="Helvetica,sans-Serif" font-size="10.00">cstdlib</text>
</g>
<!-- Node6&#45;&gt;Node9 -->
<g id="edge8" class="edge"><title>Node6&#45;&gt;Node9</title>
<path fill="none" stroke="midnightblue" d="M1542.2,-112.324C1533.18,-104.341 1519.59,-92.3128 1508.68,-82.6529"/>
<polygon fill="midnightblue" stroke="midnightblue" points="1510.79,-79.8416 1500.98,-75.8339 1506.15,-85.083 1510.79,-79.8416"/>
</g>
<!-- Node10 -->
<g id="node10" class="node"><title>Node10</title>
<polygon fill="none" stroke="#bfbfbf" points="1531.5,-56.5 1531.5,-75.5 1572.5,-75.5 1572.5,-56.5 1531.5,-56.5"/>
<text text-anchor="middle" x="1552" y="-63.5" font-family="Helvetica,sans-Serif" font-size="10.00">ctime</text>
</g>
<!-- Node6&#45;&gt;Node10 -->
<g id="edge9" class="edge"><title>Node6&#45;&gt;Node10</title>
<path fill="none" stroke="midnightblue" d="M1552,-112.083C1552,-105.006 1552,-94.8611 1552,-85.9865"/>
<polygon fill="midnightblue" stroke="midnightblue" points="1555.5,-85.751 1552,-75.7511 1548.5,-85.7511 1555.5,-85.751"/>
</g>
<!-- Node11 -->
<g id="node11" class="node"><title>Node11</title>
<polygon fill="none" stroke="#bfbfbf" points="1591,-56.5 1591,-75.5 1637,-75.5 1637,-56.5 1591,-56.5"/>
<text text-anchor="middle" x="1614" y="-63.5" font-family="Helvetica,sans-Serif" font-size="10.00">cstring</text>
</g>
<!-- Node6&#45;&gt;Node11 -->
<g id="edge10" class="edge"><title>Node6&#45;&gt;Node11</title>
<path fill="none" stroke="midnightblue" d="M1561.96,-112.324C1571.13,-104.341 1584.94,-92.3128 1596.03,-82.6529"/>
<polygon fill="midnightblue" stroke="midnightblue" points="1598.62,-85.041 1603.86,-75.8339 1594.02,-79.7624 1598.62,-85.041"/>
</g>
<!-- Node12 -->
<g id="node12" class="node"><title>Node12</title>
<polygon fill="none" stroke="#bfbfbf" points="1655.5,-56.5 1655.5,-75.5 1704.5,-75.5 1704.5,-56.5 1655.5,-56.5"/>
<text text-anchor="middle" x="1680" y="-63.5" font-family="Helvetica,sans-Serif" font-size="10.00">cstdarg</text>
</g>
<!-- Node6&#45;&gt;Node12 -->
<g id="edge11" class="edge"><title>Node6&#45;&gt;Node12</title>
<path fill="none" stroke="midnightblue" d="M1572.28,-112.444C1593.35,-103.557 1626.52,-89.5632 1650.49,-79.4514"/>
<polygon fill="midnightblue" stroke="midnightblue" points="1651.96,-82.6283 1659.81,-75.5164 1649.24,-76.1787 1651.96,-82.6283"/>
</g>
<!-- Node13 -->
<g id="node13" class="node"><title>Node13</title>
<polygon fill="none" stroke="#bfbfbf" points="1723,-56.5 1723,-75.5 1767,-75.5 1767,-56.5 1723,-56.5"/>
<text text-anchor="middle" x="1745" y="-63.5" font-family="Helvetica,sans-Serif" font-size="10.00">cmath</text>
</g>
<!-- Node6&#45;&gt;Node13 -->
<g id="edge12" class="edge"><title>Node6&#45;&gt;Node13</title>
<path fill="none" stroke="midnightblue" d="M1582.57,-112.472C1614.96,-103.432 1667.59,-88.7321 1713,-76 1713.1,-75.9718 1713.2,-75.9435 1713.3,-75.9151"/>
<polygon fill="midnightblue" stroke="midnightblue" points="1714.29,-79.2745 1722.97,-73.2017 1712.39,-72.5351 1714.29,-79.2745"/>
</g>
<!-- Node14 -->
<g id="node14" class="node"><title>Node14</title>
<polygon fill="none" stroke="#bfbfbf" points="1785,-56.5 1785,-75.5 1829,-75.5 1829,-56.5 1785,-56.5"/>
<text text-anchor="middle" x="1807" y="-63.5" font-family="Helvetica,sans-Serif" font-size="10.00">vector</text>
</g>
<!-- Node6&#45;&gt;Node14 -->
<g id="edge13" class="edge"><title>Node6&#45;&gt;Node14</title>
<path fill="none" stroke="midnightblue" d="M1600.76,-112.429C1644.09,-104.539 1709.34,-91.9868 1774.65,-76.1756"/>
<polygon fill="midnightblue" stroke="midnightblue" points="1775.83,-79.4915 1784.71,-73.715 1774.16,-72.692 1775.83,-79.4915"/>
</g>
<!-- Node15 -->
<g id="node15" class="node"><title>Node15</title>
<polygon fill="none" stroke="#bfbfbf" points="1847.5,-56.5 1847.5,-75.5 1882.5,-75.5 1882.5,-56.5 1847.5,-56.5"/>
<text text-anchor="middle" x="1865" y="-63.5" font-family="Helvetica,sans-Serif" font-size="10.00">map</text>
</g>
<!-- Node6&#45;&gt;Node15 -->
<g id="edge14" class="edge"><title>Node6&#45;&gt;Node15</title>
<path fill="none" stroke="midnightblue" d="M1601.07,-115.787C1656.35,-109.359 1748.96,-96.9234 1837.47,-75.7492"/>
<polygon fill="midnightblue" stroke="midnightblue" points="1838.52,-79.0969 1847.4,-73.331 1836.86,-72.2955 1838.52,-79.0969"/>
</g>
<!-- Node16 -->
<g id="node16" class="node"><title>Node16</title>
<polygon fill="none" stroke="#bfbfbf" points="1901,-56.5 1901,-75.5 1931,-75.5 1931,-56.5 1901,-56.5"/>
<text text-anchor="middle" x="1916" y="-63.5" font-family="Helvetica,sans-Serif" font-size="10.00">set</text>
</g>
<!-- Node6&#45;&gt;Node16 -->
<g id="edge16" class="edge"><title>Node6&#45;&gt;Node16</title>
<path fill="none" stroke="midnightblue" d="M1601.16,-117.781C1667.66,-112.681 1789.62,-100.677 1891,-76 1891.1,-75.9755 1891.2,-75.9506 1891.3,-75.9256"/>
<polygon fill="midnightblue" stroke="midnightblue" points="1892.26,-79.292 1900.82,-73.0473 1890.24,-72.5916 1892.26,-79.292"/>
</g>
<!-- Node17 -->
<g id="node17" class="node"><title>Node17</title>
<polygon fill="none" stroke="#bfbfbf" points="1949.5,-56.5 1949.5,-75.5 1978.5,-75.5 1978.5,-56.5 1949.5,-56.5"/>
<text text-anchor="middle" x="1964" y="-63.5" font-family="Helvetica,sans-Serif" font-size="10.00">list</text>
</g>
<!-- Node6&#45;&gt;Node17 -->
<g id="edge17" class="edge"><title>Node6&#45;&gt;Node17</title>
<path fill="none" stroke="midnightblue" d="M1601.06,-119.131C1673.45,-115.541 1813.04,-105.442 1939.59,-75.4807"/>
<polygon fill="midnightblue" stroke="midnightblue" points="1940.56,-78.8486 1949.45,-73.0983 1938.91,-72.0443 1940.56,-78.8486"/>
</g>
<!-- Node18 -->
<g id="node18" class="node"><title>Node18</title>
<polygon fill="none" stroke="#bfbfbf" points="1996.5,-56.5 1996.5,-75.5 2039.5,-75.5 2039.5,-56.5 1996.5,-56.5"/>
<text text-anchor="middle" x="2018" y="-63.5" font-family="Helvetica,sans-Serif" font-size="10.00">deque</text>
</g>
<!-- Node6&#45;&gt;Node18 -->
<g id="edge18" class="edge"><title>Node6&#45;&gt;Node18</title>
<path fill="none" stroke="midnightblue" d="M1601.02,-118.799C1680.2,-114.619 1841.15,-103.538 1986.45,-75.7381"/>
<polygon fill="midnightblue" stroke="midnightblue" points="1987.29,-79.14 1996.44,-73.7953 1985.96,-72.2687 1987.29,-79.14"/>
</g>
<!-- Node19 -->
<g id="node19" class="node"><title>Node19</title>
<polygon fill="none" stroke="#bfbfbf" points="2057.5,-56.5 2057.5,-75.5 2100.5,-75.5 2100.5,-56.5 2057.5,-56.5"/>
<text text-anchor="middle" x="2079" y="-63.5" font-family="Helvetica,sans-Serif" font-size="10.00">queue</text>
</g>
<!-- Node6&#45;&gt;Node19 -->
<g id="edge19" class="edge"><title>Node6&#45;&gt;Node19</title>
<path fill="none" stroke="midnightblue" d="M1601.01,-119.668C1688.77,-116.61 1878.54,-106.932 2047.38,-75.7218"/>
<polygon fill="midnightblue" stroke="midnightblue" points="2048.27,-79.1172 2057.45,-73.8308 2046.97,-72.2376 2048.27,-79.1172"/>
</g>
<!-- Node20 -->
<g id="node20" class="node"><title>Node20</title>
<polygon fill="none" stroke="#bfbfbf" points="2118.5,-56.5 2118.5,-75.5 2159.5,-75.5 2159.5,-56.5 2118.5,-56.5"/>
<text text-anchor="middle" x="2139" y="-63.5" font-family="Helvetica,sans-Serif" font-size="10.00">bitset</text>
</g>
<!-- Node6&#45;&gt;Node20 -->
<g id="edge20" class="edge"><title>Node6&#45;&gt;Node20</title>
<path fill="none" stroke="midnightblue" d="M1601.26,-120.493C1697.29,-118.755 1916.15,-111.125 2108.48,-75.6522"/>
<polygon fill="midnightblue" stroke="midnightblue" points="2109.3,-79.0589 2118.48,-73.7765 2108.01,-72.1787 2109.3,-79.0589"/>
</g>
<!-- Node21 -->
<g id="node21" class="node"><title>Node21</title>
<polygon fill="none" stroke="#bfbfbf" points="2178,-56.5 2178,-75.5 2234,-75.5 2234,-56.5 2178,-56.5"/>
<text text-anchor="middle" x="2206" y="-63.5" font-family="Helvetica,sans-Serif" font-size="10.00">algorithm</text>
</g>
<!-- Node6&#45;&gt;Node21 -->
<g id="edge21" class="edge"><title>Node6&#45;&gt;Node21</title>
<path fill="none" stroke="midnightblue" d="M1601.01,-120.072C1705.7,-117.51 1958.69,-108.221 2168,-76 2168.1,-75.9845 2168.2,-75.9689 2168.3,-75.9532"/>
<polygon fill="midnightblue" stroke="midnightblue" points="2168.68,-79.4432 2177.88,-74.1889 2167.41,-72.5591 2168.68,-79.4432"/>
</g>
<!-- Node22 -->
<g id="node22" class="node"><title>Node22</title>
<polygon fill="none" stroke="#bfbfbf" points="2252.5,-56.5 2252.5,-75.5 2311.5,-75.5 2311.5,-56.5 2252.5,-56.5"/>
<text text-anchor="middle" x="2282" y="-63.5" font-family="Helvetica,sans-Serif" font-size="10.00">functional</text>
</g>
<!-- Node6&#45;&gt;Node22 -->
<g id="edge22" class="edge"><title>Node6&#45;&gt;Node22</title>
<path fill="none" stroke="midnightblue" d="M1601.3,-120.52C1713.46,-118.842 1996.35,-111.301 2242.09,-75.8687"/>
<polygon fill="midnightblue" stroke="midnightblue" points="2242.89,-79.288 2252.28,-74.3792 2241.88,-72.3615 2242.89,-79.288"/>
</g>
<!-- Node23 -->
<g id="node23" class="node"><title>Node23</title>
<polygon fill="none" stroke="#bfbfbf" points="2330,-56.5 2330,-75.5 2370,-75.5 2370,-56.5 2330,-56.5"/>
<text text-anchor="middle" x="2350" y="-63.5" font-family="Helvetica,sans-Serif" font-size="10.00">limits</text>
</g>
<!-- Node6&#45;&gt;Node23 -->
<g id="edge23" class="edge"><title>Node6&#45;&gt;Node23</title>
<path fill="none" stroke="midnightblue" d="M1601.2,-119.615C1747.95,-115.247 2181,-100.576 2320,-76 2320.1,-75.9822 2320.2,-75.9643 2320.3,-75.9461"/>
<polygon fill="midnightblue" stroke="midnightblue" points="2320.86,-79.4084 2329.82,-73.7497 2319.29,-72.5875 2320.86,-79.4084"/>
</g>
<!-- Node24 -->
<g id="node24" class="node"><title>Node24</title>
<polygon fill="none" stroke="#bfbfbf" points="2388,-56.5 2388,-75.5 2438,-75.5 2438,-56.5 2388,-56.5"/>
<text text-anchor="middle" x="2413" y="-63.5" font-family="Helvetica,sans-Serif" font-size="10.00">fstream</text>
</g>
<!-- Node6&#45;&gt;Node24 -->
<g id="edge24" class="edge"><title>Node6&#45;&gt;Node24</title>
<path fill="none" stroke="midnightblue" d="M1601.09,-119.647C1752.04,-115.281 2208.86,-100.5 2377.88,-75.7911"/>
<polygon fill="midnightblue" stroke="midnightblue" points="2378.51,-79.2345 2387.87,-74.2643 2377.46,-72.3148 2378.51,-79.2345"/>
</g>
<!-- Node25 -->
<g id="node25" class="node"><title>Node25</title>
<polygon fill="none" stroke="#bfbfbf" points="2456.5,-56.5 2456.5,-75.5 2501.5,-75.5 2501.5,-56.5 2456.5,-56.5"/>
<text text-anchor="middle" x="2479" y="-63.5" font-family="Helvetica,sans-Serif" font-size="10.00">iosfwd</text>
</g>
<!-- Node6&#45;&gt;Node25 -->
<g id="edge25" class="edge"><title>Node6&#45;&gt;Node25</title>
<path fill="none" stroke="midnightblue" d="M1601.1,-119.979C1760.45,-116.443 2262.92,-103.487 2446.36,-75.6238"/>
<polygon fill="midnightblue" stroke="midnightblue" points="2447.09,-79.0519 2456.42,-74.0275 2445.99,-72.1385 2447.09,-79.0519"/>
</g>
<!-- Node26 -->
<g id="node26" class="node"><title>Node26</title>
<polygon fill="none" stroke="#bfbfbf" points="370,-56.5 370,-75.5 422,-75.5 422,-56.5 370,-56.5"/>
<text text-anchor="middle" x="396" y="-63.5" font-family="Helvetica,sans-Serif" font-size="10.00">sstream</text>
</g>
<!-- Node6&#45;&gt;Node26 -->
<g id="edge26" class="edge"><title>Node6&#45;&gt;Node26</title>
<path fill="none" stroke="midnightblue" d="M1502.71,-120.408C1317.43,-117.969 661.966,-107.378 432.213,-75.8076"/>
<polygon fill="midnightblue" stroke="midnightblue" points="432.646,-72.3339 422.252,-74.3856 431.657,-79.2637 432.646,-72.3339"/>
</g>
<!-- Node27 -->
<g id="node27" class="node"><title>Node27</title>
<polygon fill="none" stroke="#bfbfbf" points="440,-56.5 440,-75.5 508,-75.5 508,-56.5 440,-56.5"/>
<text text-anchor="middle" x="474" y="-63.5" font-family="Helvetica,sans-Serif" font-size="10.00">sys/types.h</text>
</g>
<!-- Node6&#45;&gt;Node27 -->
<g id="edge27" class="edge"><title>Node6&#45;&gt;Node27</title>
<path fill="none" stroke="midnightblue" d="M1502.91,-119.927C1327.46,-115.93 731.054,-100.901 518.322,-75.9142"/>
<polygon fill="midnightblue" stroke="midnightblue" points="518.533,-72.4141 508.183,-74.6786 517.686,-79.3627 518.533,-72.4141"/>
</g>
<!-- Node28 -->
<g id="node28" class="node"><title>Node28</title>
<polygon fill="none" stroke="#bfbfbf" points="526,-56.5 526,-75.5 586,-75.5 586,-56.5 526,-56.5"/>
<text text-anchor="middle" x="556" y="-63.5" font-family="Helvetica,sans-Serif" font-size="10.00">sys/stat.h</text>
</g>
<!-- Node6&#45;&gt;Node28 -->
<g id="edge28" class="edge"><title>Node6&#45;&gt;Node28</title>
<path fill="none" stroke="midnightblue" d="M1502.83,-119.857C1336.19,-115.804 792.73,-101.073 596.339,-75.8802"/>
<polygon fill="midnightblue" stroke="midnightblue" points="596.509,-72.372 586.134,-74.5178 595.583,-79.3104 596.509,-72.372"/>
</g>
<!-- Node29 -->
<g id="node29" class="node"><title>Node29</title>
<polygon fill="none" stroke="#bfbfbf" points="604.5,-56.5 604.5,-75.5 655.5,-75.5 655.5,-56.5 604.5,-56.5"/>
<text text-anchor="middle" x="630" y="-63.5" font-family="Helvetica,sans-Serif" font-size="10.00">unistd.h</text>
</g>
<!-- Node6&#45;&gt;Node29 -->
<g id="edge29" class="edge"><title>Node6&#45;&gt;Node29</title>
<path fill="none" stroke="midnightblue" d="M1502.8,-119.807C1344.33,-115.762 847.486,-101.466 665.834,-75.7423"/>
<polygon fill="midnightblue" stroke="midnightblue" points="666.278,-72.27 655.874,-74.2711 665.255,-79.1949 666.278,-72.27"/>
</g>
<!-- Node30 -->
<g id="node30" class="node"><title>Node30</title>
<polygon fill="none" stroke="#bfbfbf" points="674,-56.5 674,-75.5 720,-75.5 720,-56.5 674,-56.5"/>
<text text-anchor="middle" x="697" y="-63.5" font-family="Helvetica,sans-Serif" font-size="10.00">dlfcn.h</text>
</g>
<!-- Node6&#45;&gt;Node30 -->
<g id="edge30" class="edge"><title>Node6&#45;&gt;Node30</title>
<path fill="none" stroke="midnightblue" d="M1502.87,-119.729C1352.32,-115.615 898.03,-101.521 730.206,-75.779"/>
<polygon fill="midnightblue" stroke="midnightblue" points="730.713,-72.3156 720.285,-74.1868 729.604,-79.2272 730.713,-72.3156"/>
</g>
<!-- Node31 -->
<g id="node31" class="node"><title>Node31</title>
<polygon fill="none" stroke="#bfbfbf" points="738,-56.5 738,-75.5 816,-75.5 816,-56.5 738,-56.5"/>
<text text-anchor="middle" x="777" y="-63.5" font-family="Helvetica,sans-Serif" font-size="10.00">ext/hash_map</text>
</g>
<!-- Node6&#45;&gt;Node31 -->
<g id="edge31" class="edge"><title>Node6&#45;&gt;Node31</title>
<path fill="none" stroke="midnightblue" d="M1502.88,-120.051C1386.84,-117.361 1086.56,-107.775 826.252,-76.001"/>
<polygon fill="midnightblue" stroke="midnightblue" points="826.584,-72.5155 816.231,-74.7642 825.727,-79.4628 826.584,-72.5155"/>
</g>
<!-- Node32 -->
<g id="node32" class="node"><title>Node32</title>
<polygon fill="none" stroke="#bfbfbf" points="834.5,-56.5 834.5,-75.5 907.5,-75.5 907.5,-56.5 834.5,-56.5"/>
<text text-anchor="middle" x="871" y="-63.5" font-family="Helvetica,sans-Serif" font-size="10.00">ext/hash_set</text>
</g>
<!-- Node6&#45;&gt;Node32 -->
<g id="edge32" class="edge"><title>Node6&#45;&gt;Node32</title>
<path fill="none" stroke="midnightblue" d="M1502.71,-119.64C1397.11,-116.267 1141.12,-105.639 917.715,-76.0802"/>
<polygon fill="midnightblue" stroke="midnightblue" points="918.149,-72.6072 907.773,-74.7493 917.22,-79.5454 918.149,-72.6072"/>
</g>
<!-- Node33 -->
<g id="node33" class="node"><title>Node33</title>
<polygon fill="none" stroke="#bfbfbf" points="925.5,-56.5 925.5,-75.5 996.5,-75.5 996.5,-56.5 925.5,-56.5"/>
<text text-anchor="middle" x="961" y="-63.5" font-family="Helvetica,sans-Serif" font-size="10.00">sys/param.h</text>
</g>
<!-- Node6&#45;&gt;Node33 -->
<g id="edge33" class="edge"><title>Node6&#45;&gt;Node33</title>
<path fill="none" stroke="midnightblue" d="M1502.85,-118.849C1408.62,-114.314 1195.9,-102.088 1006.92,-75.9619"/>
<polygon fill="midnightblue" stroke="midnightblue" points="1007.19,-72.4654 996.798,-74.5461 1006.22,-79.3979 1007.19,-72.4654"/>
</g>
<!-- Node34 -->
<g id="node34" class="node"><title>Node34</title>
<polygon fill="none" stroke="#bfbfbf" points="1015,-56.5 1015,-75.5 1181,-75.5 1181,-56.5 1015,-56.5"/>
<text text-anchor="middle" x="1098" y="-63.5" font-family="Helvetica,sans-Serif" font-size="10.00">CoreFoundation/CoreFoundation.h</text>
</g>
<!-- Node6&#45;&gt;Node34 -->
<g id="edge34" class="edge"><title>Node6&#45;&gt;Node34</title>
<path fill="none" stroke="midnightblue" d="M1502.98,-115.17C1425.44,-105.947 1273.65,-87.8928 1179.53,-76.6971"/>
<polygon fill="midnightblue" stroke="midnightblue" points="1179.82,-73.2071 1169.47,-75.5014 1178.99,-80.1581 1179.82,-73.2071"/>
</g>
<!-- Node35 -->
<g id="node35" class="node"><title>Node35</title>
<polygon fill="none" stroke="#bfbfbf" points="1199,-56.5 1199,-75.5 1323,-75.5 1323,-56.5 1199,-56.5"/>
<text text-anchor="middle" x="1261" y="-63.5" font-family="Helvetica,sans-Serif" font-size="10.00">emscripten/emscripten.h</text>
</g>
<!-- Node6&#45;&gt;Node35 -->
<g id="edge35" class="edge"><title>Node6&#45;&gt;Node35</title>
<path fill="none" stroke="midnightblue" d="M1505.89,-112.444C1454.59,-102.925 1371.73,-87.5472 1316.81,-77.3563"/>
<polygon fill="midnightblue" stroke="midnightblue" points="1317.36,-73.8998 1306.89,-75.5164 1316.09,-80.7823 1317.36,-73.8998"/>
</g>
<!-- Node37 -->
<g id="node37" class="node"><title>Node37</title>
<g id="a_node37"><a xlink:href="_ogre_memory_allocated_object_8h.html" target="_top" xlink:title="OgreMemoryAllocatedObject.h">
<polygon fill="none" stroke="black" points="2519,-56.5 2519,-75.5 2669,-75.5 2669,-56.5 2519,-56.5"/>
<text text-anchor="middle" x="2594" y="-63.5" font-family="Helvetica,sans-Serif" font-size="10.00">OgreMemoryAllocatedObject.h</text>
</a>
</g>
</g>
<!-- Node36&#45;&gt;Node37 -->
<g id="edge37" class="edge"><title>Node36&#45;&gt;Node37</title>
<path fill="none" stroke="midnightblue" d="M2710.98,-112.444C2687.9,-103.478 2651.44,-89.314 2625.36,-79.1827"/>
<polygon fill="midnightblue" stroke="midnightblue" points="2626.51,-75.8753 2615.92,-75.5164 2623.98,-82.4002 2626.51,-75.8753"/>
</g>
<!-- Node36&#45;&gt;Node38 -->
<g id="edge41" class="edge"><title>Node36&#45;&gt;Node38</title>
<path fill="none" stroke="midnightblue" d="M2726.09,-112.368C2711.51,-94.135 2677.34,-51.4257 2658.34,-27.6752"/>
<polygon fill="midnightblue" stroke="midnightblue" points="2660.85,-25.2137 2651.87,-19.5914 2655.39,-29.5866 2660.85,-25.2137"/>
</g>
<!-- Node36&#45;&gt;Node39 -->
<g id="edge49" class="edge"><title>Node36&#45;&gt;Node39</title>
<path fill="none" stroke="midnightblue" d="M2807.01,-119.279C2882.4,-115.868 2992.18,-105.771 3021,-76 3032.72,-63.8914 3033.55,-44.0149 3032.17,-29.4245"/>
<polygon fill="midnightblue" stroke="midnightblue" points="3035.64,-28.9541 3030.83,-19.5137 3028.7,-29.8927 3035.64,-28.9541"/>
</g>
<!-- Node40 -->
<g id="node40" class="node"><title>Node40</title>
<g id="a_node40"><a xlink:href="_ogre_memory_s_t_l_allocator_8h.html" target="_top" xlink:title="OgreMemorySTLAllocator.h">
<polygon fill="none" stroke="black" points="2874.5,-56.5 2874.5,-75.5 3011.5,-75.5 3011.5,-56.5 2874.5,-56.5"/>
<text text-anchor="middle" x="2943" y="-63.5" font-family="Helvetica,sans-Serif" font-size="10.00">OgreMemorySTLAllocator.h</text>
</a>
</g>
</g>
<!-- Node36&#45;&gt;Node40 -->
<g id="edge42" class="edge"><title>Node36&#45;&gt;Node40</title>
<path fill="none" stroke="midnightblue" d="M2766.28,-112.444C2802.45,-103.142 2860.38,-88.246 2899.98,-78.062"/>
<polygon fill="midnightblue" stroke="midnightblue" points="2901.07,-81.3966 2909.88,-75.5164 2899.32,-74.6172 2901.07,-81.3966"/>
</g>
<!-- Node41 -->
<g id="node41" class="node"><title>Node41</title>
<g id="a_node41"><a xlink:href="_ogre_memory_ned_pooling_8h.html" target="_top" xlink:title="OgreMemoryNedPooling.h">
<polygon fill="none" stroke="black" points="2725.5,-56.5 2725.5,-75.5 2856.5,-75.5 2856.5,-56.5 2725.5,-56.5"/>
<text text-anchor="middle" x="2791" y="-63.5" font-family="Helvetica,sans-Serif" font-size="10.00">OgreMemoryNedPooling.h</text>
</a>
</g>
</g>
<!-- Node36&#45;&gt;Node41 -->
<g id="edge46" class="edge"><title>Node36&#45;&gt;Node41</title>
<path fill="none" stroke="midnightblue" d="M2742.32,-112.324C2750.89,-104.341 2763.81,-92.3128 2774.19,-82.6529"/>
<polygon fill="midnightblue" stroke="midnightblue" points="2776.58,-85.2098 2781.51,-75.8339 2771.81,-80.0865 2776.58,-85.2098"/>
</g>
<!-- Node37&#45;&gt;Node2 -->
<g id="edge38" class="edge"><title>Node37&#45;&gt;Node2</title>
<path fill="none" stroke="midnightblue" d="M2518.91,-75.213C2515.9,-75.4889 2512.92,-75.7526 2510,-76 1848.48,-131.991 1043.92,-165.783 817.743,-174.649"/>
<polygon fill="midnightblue" stroke="midnightblue" points="817.583,-171.153 807.727,-175.041 817.856,-178.148 817.583,-171.153"/>
</g>
<!-- Node37&#45;&gt;Node38 -->
<g id="edge39" class="edge"><title>Node37&#45;&gt;Node38</title>
<path fill="none" stroke="midnightblue" d="M2602.42,-56.083C2609.85,-48.2195 2620.85,-36.5688 2629.81,-27.0813"/>
<polygon fill="midnightblue" stroke="midnightblue" points="2632.41,-29.4244 2636.74,-19.7511 2627.32,-24.618 2632.41,-29.4244"/>
</g>
<!-- Node37&#45;&gt;Node39 -->
<g id="edge40" class="edge"><title>Node37&#45;&gt;Node39</title>
<path fill="none" stroke="midnightblue" d="M2662.93,-56.4435C2746.78,-46.0339 2887.08,-28.618 2967.45,-18.6408"/>
<polygon fill="midnightblue" stroke="midnightblue" points="2967.93,-22.108 2977.42,-17.4026 2967.07,-15.1613 2967.93,-22.108"/>
</g>
<!-- Node40&#45;&gt;Node2 -->
<g id="edge43" class="edge"><title>Node40&#45;&gt;Node2</title>
<path fill="none" stroke="midnightblue" d="M2930.78,-75.6703C2908.98,-90.5695 2861.39,-120.534 2816,-132 2618.39,-181.92 1140.03,-178.622 817.867,-177.297"/>
<polygon fill="midnightblue" stroke="midnightblue" points="817.799,-173.797 807.784,-177.254 817.77,-180.797 817.799,-173.797"/>
</g>
<!-- Node40&#45;&gt;Node38 -->
<g id="edge44" class="edge"><title>Node40&#45;&gt;Node38</title>
<path fill="none" stroke="midnightblue" d="M2895.78,-56.4435C2843.25,-46.9246 2758.39,-31.5472 2702.15,-21.3563"/>
<polygon fill="midnightblue" stroke="midnightblue" points="2702.46,-17.8556 2692,-19.5164 2701.21,-24.7435 2702.46,-17.8556"/>
</g>
<!-- Node40&#45;&gt;Node39 -->
<g id="edge45" class="edge"><title>Node40&#45;&gt;Node39</title>
<path fill="none" stroke="midnightblue" d="M2956.82,-56.324C2970.23,-47.9002 2990.82,-34.9709 3006.59,-25.0741"/>
<polygon fill="midnightblue" stroke="midnightblue" points="3008.61,-27.9364 3015.22,-19.6545 3004.89,-22.0081 3008.61,-27.9364"/>
</g>
<!-- Node41&#45;&gt;Node38 -->
<g id="edge47" class="edge"><title>Node41&#45;&gt;Node38</title>
<path fill="none" stroke="midnightblue" d="M2767.87,-56.4435C2743.52,-47.4381 2704.99,-33.1891 2677.58,-23.049"/>
<polygon fill="midnightblue" stroke="midnightblue" points="2678.62,-19.7028 2668.03,-19.5164 2676.19,-26.2681 2678.62,-19.7028"/>
</g>
<!-- Node41&#45;&gt;Node39 -->
<g id="edge48" class="edge"><title>Node41&#45;&gt;Node39</title>
<path fill="none" stroke="midnightblue" d="M2828.71,-56.4435C2870.14,-47.0431 2936.76,-31.9291 2981.67,-21.7393"/>
<polygon fill="midnightblue" stroke="midnightblue" points="2982.49,-25.1424 2991.46,-19.5164 2980.94,-18.3159 2982.49,-25.1424"/>
</g>
<!-- Node42&#45;&gt;Node2 -->
<g id="edge51" class="edge"><title>Node42&#45;&gt;Node2</title>
<path fill="none" stroke="midnightblue" d="M759.057,-392.802C779.649,-386.44 802.621,-375.306 815,-356 849.025,-302.935 797.223,-228.262 770.422,-195.5"/>
<polygon fill="midnightblue" stroke="midnightblue" points="773.031,-193.164 763.915,-187.766 767.675,-197.671 773.031,-193.164"/>
</g>
<!-- Node42&#45;&gt;Node38 -->
<g id="edge78" class="edge"><title>Node42&#45;&gt;Node38</title>
<path fill="none" stroke="midnightblue" d="M674.782,-396.511C526.438,-379.588 38,-313.642 38,-179 38,-179 38,-179 38,-121 38,-84.5528 55.4448,-72.3877 88,-56 145.507,-27.0522 2199,-13.6133 2583.36,-11.3488"/>
<polygon fill="midnightblue" stroke="midnightblue" points="2583.47,-14.8483 2593.45,-11.2897 2583.43,-7.84845 2583.47,-14.8483"/>
</g>
<!-- Node42&#45;&gt;Node39 -->
<g id="edge80" class="edge"><title>Node42&#45;&gt;Node39</title>
<path fill="none" stroke="midnightblue" d="M759.041,-400.297C1087.53,-394.673 3230,-355.516 3230,-291 3230,-291 3230,-291 3230,-121 3230,-56.6028 3149.62,-29.6633 3090.52,-18.5591"/>
<polygon fill="midnightblue" stroke="midnightblue" points="3090.96,-15.0815 3080.5,-16.7867 3089.74,-21.9745 3090.96,-15.0815"/>
</g>
<!-- Node43 -->
<g id="node43" class="node"><title>Node43</title>
<g id="a_node43"><a xlink:href="_ogre_resource_8h.html" target="_top" xlink:title="OgreResource.h">
<polygon fill="none" stroke="black" points="322,-280.5 322,-299.5 410,-299.5 410,-280.5 322,-280.5"/>
<text text-anchor="middle" x="366" y="-287.5" font-family="Helvetica,sans-Serif" font-size="10.00">OgreResource.h</text>
</a>
</g>
</g>
<!-- Node42&#45;&gt;Node43 -->
<g id="edge52" class="edge"><title>Node42&#45;&gt;Node43</title>
<path fill="none" stroke="midnightblue" d="M706.851,-392.492C689.452,-378.381 652.284,-350.281 616,-336 551.56,-310.637 472.11,-299.458 420.31,-294.605"/>
<polygon fill="midnightblue" stroke="midnightblue" points="420.603,-291.117 410.331,-293.716 419.982,-298.089 420.603,-291.117"/>
</g>
<!-- Node47 -->
<g id="node47" class="node"><title>Node47</title>
<g id="a_node47"><a xlink:href="_ogre_string_vector_8h.html" target="_top" xlink:title="OgreStringVector.h">
<polygon fill="none" stroke="black" points="706,-336.5 706,-355.5 806,-355.5 806,-336.5 706,-336.5"/>
<text text-anchor="middle" x="756" y="-343.5" font-family="Helvetica,sans-Serif" font-size="10.00">OgreStringVector.h</text>
</a>
</g>
</g>
<!-- Node42&#45;&gt;Node47 -->
<g id="edge65" class="edge"><title>Node42&#45;&gt;Node47</title>
<path fill="none" stroke="midnightblue" d="M723.44,-392.083C728.949,-384.455 737.031,-373.264 743.765,-363.941"/>
<polygon fill="midnightblue" stroke="midnightblue" points="746.662,-365.907 749.68,-355.751 740.987,-361.809 746.662,-365.907"/>
</g>
<!-- Node48 -->
<g id="node48" class="node"><title>Node48</title>
<g id="a_node48"><a xlink:href="_ogre_shared_ptr_8h.html" target="_top" xlink:title="OgreSharedPtr.h">
<polygon fill="none" stroke="black" points="636.5,-280.5 636.5,-299.5 725.5,-299.5 725.5,-280.5 636.5,-280.5"/>
<text text-anchor="middle" x="681" y="-287.5" font-family="Helvetica,sans-Serif" font-size="10.00">OgreSharedPtr.h</text>
</a>
</g>
</g>
<!-- Node42&#45;&gt;Node48 -->
<g id="edge79" class="edge"><title>Node42&#45;&gt;Node48</title>
<path fill="none" stroke="midnightblue" d="M712.541,-392.222C708.135,-383.284 701.43,-368.942 697,-356 691.76,-340.692 687.488,-322.811 684.68,-309.682"/>
<polygon fill="midnightblue" stroke="midnightblue" points="688.04,-308.645 682.602,-299.552 681.183,-310.051 688.04,-308.645"/>
</g>
<!-- Node50 -->
<g id="node50" class="node"><title>Node50</title>
<g id="a_node50"><a xlink:href="_ogre_animation_8h.html" target="_top" xlink:title="OgreAnimation.h">
<polygon fill="none" stroke="red" points="2541.5,-224.5 2541.5,-243.5 2630.5,-243.5 2630.5,-224.5 2541.5,-224.5"/>
<text text-anchor="middle" x="2586" y="-231.5" font-family="Helvetica,sans-Serif" font-size="10.00">OgreAnimation.h</text>
</a>
</g>
</g>
<!-- Node42&#45;&gt;Node50 -->
<g id="edge74" class="edge"><title>Node42&#45;&gt;Node50</title>
<path fill="none" stroke="midnightblue" d="M759.102,-397.261C1004.93,-375.427 2253.42,-264.539 2531.18,-239.869"/>
<polygon fill="midnightblue" stroke="midnightblue" points="2531.76,-243.331 2541.41,-238.96 2531.14,-236.359 2531.76,-243.331"/>
</g>
<!-- Node43&#45;&gt;Node2 -->
<g id="edge53" class="edge"><title>Node43&#45;&gt;Node2</title>
<path fill="none" stroke="midnightblue" d="M396.643,-280.437C425.468,-272.097 469.659,-258.575 507,-244 526.634,-236.336 530.028,-230.734 550,-224 597.428,-208.008 652.956,-196.262 694.403,-188.788"/>
<polygon fill="midnightblue" stroke="midnightblue" points="695.119,-192.216 704.356,-187.027 693.899,-185.323 695.119,-192.216"/>
</g>
<!-- Node43&#45;&gt;Node38 -->
<g id="edge62" class="edge"><title>Node43&#45;&gt;Node38</title>
<path fill="none" stroke="midnightblue" d="M321.955,-281.734C240.829,-267.097 76,-230.963 76,-179 76,-179 76,-179 76,-121 76,-86.3618 88.6368,-72.6697 119,-56 174.722,-25.408 2202.04,-13.315 2583.47,-11.3083"/>
<polygon fill="midnightblue" stroke="midnightblue" points="2583.51,-14.8082 2593.49,-11.2559 2583.47,-7.80835 2583.51,-14.8082"/>
</g>
<!-- Node43&#45;&gt;Node39 -->
<g id="edge64" class="edge"><title>Node43&#45;&gt;Node39</title>
<path fill="none" stroke="midnightblue" d="M367.521,-280.355C370.84,-258.468 376.254,-200.318 347,-168 304.462,-121.007 247.753,-182.16 209,-132 188.349,-105.27 185.288,-80.056 209,-56 233.348,-31.2985 2671.32,-20.733 2706,-20 2796.9,-18.0783 2902.17,-14.9824 2967.18,-12.9694"/>
<polygon fill="midnightblue" stroke="midnightblue" points="2967.37,-16.4652 2977.26,-12.6559 2967.16,-9.46854 2967.37,-16.4652"/>
</g>
<!-- Node44 -->
<g id="node44" class="node"><title>Node44</title>
<g id="a_node44"><a xlink:href="_ogre_atomic_scalar_8h.html" target="_top" xlink:title="OgreAtomicScalar.h">
<polygon fill="none" stroke="red" points="394,-224.5 394,-243.5 498,-243.5 498,-224.5 394,-224.5"/>
<text text-anchor="middle" x="446" y="-231.5" font-family="Helvetica,sans-Serif" font-size="10.00">OgreAtomicScalar.h</text>
</a>
</g>
</g>
<!-- Node43&#45;&gt;Node44 -->
<g id="edge54" class="edge"><title>Node43&#45;&gt;Node44</title>
<path fill="none" stroke="midnightblue" d="M378.853,-280.324C391.216,-271.979 410.13,-259.212 424.737,-249.352"/>
<polygon fill="midnightblue" stroke="midnightblue" points="426.848,-252.15 433.179,-243.655 422.932,-246.348 426.848,-252.15"/>
</g>
<!-- Node45 -->
<g id="node45" class="node"><title>Node45</title>
<g id="a_node45"><a xlink:href="_ogre_thread_headers_8h.html" target="_top" xlink:title="Threading/OgreThreadHeaders.h">
<polygon fill="none" stroke="red" points="180,-168.5 180,-187.5 338,-187.5 338,-168.5 180,-168.5"/>
<text text-anchor="middle" x="259" y="-175.5" font-family="Helvetica,sans-Serif" font-size="10.00">Threading/OgreThreadHeaders.h</text>
</a>
</g>
</g>
<!-- Node43&#45;&gt;Node45 -->
<g id="edge63" class="edge"><title>Node43&#45;&gt;Node45</title>
<path fill="none" stroke="midnightblue" d="M358.93,-280.299C348.449,-267.551 327.98,-243.226 309,-224 298.847,-213.715 286.826,-202.858 277.116,-194.386"/>
<polygon fill="midnightblue" stroke="midnightblue" points="279.14,-191.51 269.282,-187.628 274.568,-196.81 279.14,-191.51"/>
</g>
<!-- Node46 -->
<g id="node46" class="node"><title>Node46</title>
<g id="a_node46"><a xlink:href="_ogre_string_interface_8h.html" target="_top" xlink:title="OgreStringInterface.h">
<polygon fill="none" stroke="red" points="190,-224.5 190,-243.5 300,-243.5 300,-224.5 190,-224.5"/>
<text text-anchor="middle" x="245" y="-231.5" font-family="Helvetica,sans-Serif" font-size="10.00">OgreStringInterface.h</text>
</a>
</g>
</g>
<!-- Node43&#45;&gt;Node46 -->
<g id="edge57" class="edge"><title>Node43&#45;&gt;Node46</title>
<path fill="none" stroke="midnightblue" d="M346.827,-280.444C327.091,-271.636 296.115,-257.812 273.507,-247.722"/>
<polygon fill="midnightblue" stroke="midnightblue" points="274.641,-244.396 264.083,-243.516 271.789,-250.788 274.641,-244.396"/>
</g>
<!-- Node44&#45;&gt;Node2 -->
<g id="edge55" class="edge"><title>Node44&#45;&gt;Node2</title>
<path fill="none" stroke="midnightblue" d="M495.12,-224.444C549.879,-214.905 638.41,-199.483 696.911,-189.293"/>
<polygon fill="midnightblue" stroke="midnightblue" points="697.858,-192.681 707.109,-187.516 696.657,-185.785 697.858,-192.681"/>
</g>
<!-- Node44&#45;&gt;Node45 -->
<g id="edge56" class="edge"><title>Node44&#45;&gt;Node45</title>
<path fill="none" stroke="midnightblue" d="M416.369,-224.444C384.5,-215.241 333.667,-200.562 298.436,-190.388"/>
<polygon fill="midnightblue" stroke="midnightblue" points="299.071,-186.928 288.492,-187.516 297.128,-193.653 299.071,-186.928"/>
</g>
<!-- Node46&#45;&gt;Node2 -->
<g id="edge58" class="edge"><title>Node46&#45;&gt;Node2</title>
<path fill="none" stroke="midnightblue" d="M300.171,-227.17C396.355,-217.006 594.044,-196.115 694.495,-185.5"/>
<polygon fill="midnightblue" stroke="midnightblue" points="694.916,-188.975 704.492,-184.443 694.18,-182.013 694.916,-188.975"/>
</g>
<!-- Node46&#45;&gt;Node38 -->
<g id="edge60" class="edge"><title>Node46&#45;&gt;Node38</title>
<path fill="none" stroke="midnightblue" d="M194.491,-224.487C173.321,-218.153 150.712,-207.136 138,-188 105.539,-139.133 96.8903,-97.8542 138,-56 182.197,-11.0025 2202.2,-10.5992 2583.33,-10.9243"/>
<polygon fill="midnightblue" stroke="midnightblue" points="2583.34,-14.4242 2593.34,-10.9333 2583.35,-7.42418 2583.34,-14.4242"/>
</g>
<!-- Node46&#45;&gt;Node39 -->
<g id="edge61" class="edge"><title>Node46&#45;&gt;Node39</title>
<path fill="none" stroke="midnightblue" d="M218.071,-224.356C201.281,-217.411 181.022,-205.825 171,-188 152.993,-155.976 82.126,-147.064 176,-56 201.224,-31.5309 2670.87,-20.7394 2706,-20 2796.9,-18.0869 2902.17,-14.9887 2967.18,-12.9728"/>
<polygon fill="midnightblue" stroke="midnightblue" points="2967.37,-16.4686 2977.26,-12.6589 2967.16,-9.47199 2967.37,-16.4686"/>
</g>
<!-- Node46&#45;&gt;Node45 -->
<g id="edge59" class="edge"><title>Node46&#45;&gt;Node45</title>
<path fill="none" stroke="midnightblue" d="M247.312,-224.083C249.167,-216.927 251.835,-206.635 254.154,-197.691"/>
<polygon fill="midnightblue" stroke="midnightblue" points="257.609,-198.309 256.731,-187.751 250.834,-196.553 257.609,-198.309"/>
</g>
<!-- Node47&#45;&gt;Node2 -->
<g id="edge66" class="edge"><title>Node47&#45;&gt;Node2</title>
<path fill="none" stroke="midnightblue" d="M756,-336.075C756,-309.945 756,-233.211 756,-197.577"/>
<polygon fill="midnightblue" stroke="midnightblue" points="759.5,-197.568 756,-187.568 752.5,-197.568 759.5,-197.568"/>
</g>
<!-- Node47&#45;&gt;Node48 -->
<g id="edge67" class="edge"><title>Node47&#45;&gt;Node48</title>
<path fill="none" stroke="midnightblue" d="M743.95,-336.324C732.537,-328.107 715.169,-315.602 701.565,-305.807"/>
<polygon fill="midnightblue" stroke="midnightblue" points="703.43,-302.837 693.269,-299.834 699.34,-308.517 703.43,-302.837"/>
</g>
<!-- Node49 -->
<g id="node49" class="node"><title>Node49</title>
<g id="a_node49"><a xlink:href="_ogre_string_8h.html" target="_top" xlink:title="OgreString.h">
<polygon fill="none" stroke="black" points="1392.5,-224.5 1392.5,-243.5 1463.5,-243.5 1463.5,-224.5 1392.5,-224.5"/>
<text text-anchor="middle" x="1428" y="-231.5" font-family="Helvetica,sans-Serif" font-size="10.00">OgreString.h</text>
</a>
</g>
</g>
<!-- Node47&#45;&gt;Node49 -->
<g id="edge70" class="edge"><title>Node47&#45;&gt;Node49</title>
<path fill="none" stroke="midnightblue" d="M806.234,-336.777C932.363,-316.131 1260.95,-262.345 1382.19,-242.499"/>
<polygon fill="midnightblue" stroke="midnightblue" points="1382.95,-245.921 1392.25,-240.851 1381.82,-239.013 1382.95,-245.921"/>
</g>
<!-- Node48&#45;&gt;Node2 -->
<g id="edge68" class="edge"><title>Node48&#45;&gt;Node2</title>
<path fill="none" stroke="midnightblue" d="M686.885,-280.368C699.262,-262.215 728.181,-219.802 744.416,-195.99"/>
<polygon fill="midnightblue" stroke="midnightblue" points="747.401,-197.825 750.142,-187.591 741.617,-193.882 747.401,-197.825"/>
</g>
<!-- Node48&#45;&gt;Node44 -->
<g id="edge69" class="edge"><title>Node48&#45;&gt;Node44</title>
<path fill="none" stroke="midnightblue" d="M643.764,-280.444C602.94,-271.063 537.357,-255.993 493.016,-245.804"/>
<polygon fill="midnightblue" stroke="midnightblue" points="493.592,-242.345 483.062,-243.516 492.024,-249.167 493.592,-242.345"/>
</g>
<!-- Node49&#45;&gt;Node2 -->
<g id="edge71" class="edge"><title>Node49&#45;&gt;Node2</title>
<path fill="none" stroke="midnightblue" d="M1392.34,-230.135C1283.68,-221.403 955.683,-195.046 817.953,-183.978"/>
<polygon fill="midnightblue" stroke="midnightblue" points="818.225,-180.489 807.977,-183.177 817.665,-187.467 818.225,-180.489"/>
</g>
<!-- Node49&#45;&gt;Node38 -->
<g id="edge72" class="edge"><title>Node49&#45;&gt;Node38</title>
<path fill="none" stroke="midnightblue" d="M1463.79,-232.586C1691.07,-229.564 2926.84,-207.14 3021,-76 3058.51,-23.7651 2822.88,-13.3738 2706.82,-11.4019"/>
<polygon fill="midnightblue" stroke="midnightblue" points="2706.7,-7.89972 2696.65,-11.2454 2706.6,-14.8989 2706.7,-7.89972"/>
</g>
<!-- Node49&#45;&gt;Node39 -->
<g id="edge73" class="edge"><title>Node49&#45;&gt;Node39</title>
<path fill="none" stroke="midnightblue" d="M1463.95,-233.233C1607.24,-233.822 2151.3,-232.801 2596,-188 2749.25,-172.561 2792.5,-182.534 2938,-132 2986.49,-115.16 3012.95,-120.226 3039,-76 3047.4,-61.7319 3043.08,-42.7683 3037.74,-29.0089"/>
<polygon fill="midnightblue" stroke="midnightblue" points="3040.87,-27.4306 3033.67,-19.6654 3034.46,-30.2306 3040.87,-27.4306"/>
</g>
<!-- Node50&#45;&gt;Node2 -->
<g id="edge75" class="edge"><title>Node50&#45;&gt;Node2</title>
<path fill="none" stroke="midnightblue" d="M2541.22,-231.679C2294.73,-224.405 1104.07,-189.271 817.928,-180.827"/>
<polygon fill="midnightblue" stroke="midnightblue" points="817.837,-177.323 807.738,-180.527 817.63,-184.32 817.837,-177.323"/>
</g>
<!-- Node50&#45;&gt;Node38 -->
<g id="edge76" class="edge"><title>Node50&#45;&gt;Node38</title>
<path fill="none" stroke="midnightblue" d="M2630.56,-232.051C2742,-229.218 3025.84,-219.001 3054,-188 3093.45,-144.577 3093.15,-99.6932 3054,-56 3031.28,-30.6486 2815.67,-18.1022 2706.99,-13.3464"/>
<polygon fill="midnightblue" stroke="midnightblue" points="2706.96,-9.84188 2696.82,-12.9103 2706.66,-16.8355 2706.96,-9.84188"/>
</g>
<!-- Node50&#45;&gt;Node39 -->
<g id="edge77" class="edge"><title>Node50&#45;&gt;Node39</title>
<path fill="none" stroke="midnightblue" d="M2630.75,-233.197C2736.46,-232.982 2998.53,-228.277 3075,-188 3138.5,-154.556 3210.21,-114.037 3168,-56 3150.25,-31.5954 3118.98,-20.1551 3090.58,-14.9001"/>
<polygon fill="midnightblue" stroke="midnightblue" points="3091.12,-11.4414 3080.69,-13.2881 3089.99,-18.3504 3091.12,-11.4414"/>
</g>
</g>
</svg>
