<?xml version="1.0" encoding="UTF-8" standalone="no"?>
<!DOCTYPE svg PUBLIC "-//W3C//DTD SVG 1.1//EN"
 "http://www.w3.org/Graphics/SVG/1.1/DTD/svg11.dtd">
<!-- Generated by graphviz version 2.38.0 (20140413.2041)
 -->
<!-- Title: OgreInstanceManager.h Pages: 1 -->
<svg width="1408pt" height="319pt"
 viewBox="0.00 0.00 1408.00 319.00" xmlns="http://www.w3.org/2000/svg" xmlns:xlink="http://www.w3.org/1999/xlink">
<g id="graph0" class="graph" transform="scale(1 1) rotate(0) translate(4 315)">
<title>OgreInstanceManager.h</title>
<!-- Node1 -->
<g id="node1" class="node"><title>Node1</title>
<polygon fill="#bfbfbf" stroke="black" points="152.5,-291.5 152.5,-310.5 273.5,-310.5 273.5,-291.5 152.5,-291.5"/>
<text text-anchor="middle" x="213" y="-298.5" font-family="Helvetica,sans-Serif" font-size="10.00">OgreInstanceManager.h</text>
</g>
<!-- Node2 -->
<g id="node2" class="node"><title>Node2</title>
<g id="a_node2"><a xlink:href="_ogre_scene_manager_8h.html" target="_top" xlink:title="OgreSceneManager.h">
<polygon fill="none" stroke="black" points="318.5,-235.5 318.5,-254.5 429.5,-254.5 429.5,-235.5 318.5,-235.5"/>
<text text-anchor="middle" x="374" y="-242.5" font-family="Helvetica,sans-Serif" font-size="10.00">OgreSceneManager.h</text>
</a>
</g>
</g>
<!-- Node1&#45;&gt;Node2 -->
<g id="edge1" class="edge"><title>Node1&#45;&gt;Node2</title>
<path fill="none" stroke="midnightblue" d="M248.265,-288.172C278.581,-278.004 321.57,-263.585 348.608,-254.516"/>
<polygon fill="midnightblue" stroke="midnightblue" points="246.879,-284.945 238.511,-291.444 249.105,-291.582 246.879,-284.945"/>
</g>
<!-- Node6 -->
<g id="node6" class="node"><title>Node6</title>
<g id="a_node6"><a xlink:href="_ogre_8h.html" target="_top" xlink:title="Ogre.h">
<polygon fill="none" stroke="red" points="0,-56.5 0,-75.5 46,-75.5 46,-56.5 0,-56.5"/>
<text text-anchor="middle" x="23" y="-63.5" font-family="Helvetica,sans-Serif" font-size="10.00">Ogre.h</text>
</a>
</g>
</g>
<!-- Node1&#45;&gt;Node6 -->
<g id="edge23" class="edge"><title>Node1&#45;&gt;Node6</title>
<path fill="none" stroke="midnightblue" d="M199.472,-283.411C162.146,-237.637 58.5989,-110.655 30.2541,-75.8958"/>
<polygon fill="midnightblue" stroke="midnightblue" points="196.98,-285.893 206.012,-291.431 202.405,-281.469 196.98,-285.893"/>
</g>
<!-- Node3 -->
<g id="node3" class="node"><title>Node3</title>
<g id="a_node3"><a xlink:href="_ogre_scene_manager_enumerator_8h.html" target="_top" xlink:title="OgreSceneManagerEnumerator.h">
<polygon fill="none" stroke="black" points="293.5,-179.5 293.5,-198.5 454.5,-198.5 454.5,-179.5 293.5,-179.5"/>
<text text-anchor="middle" x="374" y="-186.5" font-family="Helvetica,sans-Serif" font-size="10.00">OgreSceneManagerEnumerator.h</text>
</a>
</g>
</g>
<!-- Node2&#45;&gt;Node3 -->
<g id="edge2" class="edge"><title>Node2&#45;&gt;Node3</title>
<path fill="none" stroke="midnightblue" d="M374,-224.805C374,-215.91 374,-205.78 374,-198.751"/>
<polygon fill="midnightblue" stroke="midnightblue" points="370.5,-225.083 374,-235.083 377.5,-225.083 370.5,-225.083"/>
</g>
<!-- Node2&#45;&gt;Node6 -->
<g id="edge13" class="edge"><title>Node2&#45;&gt;Node6</title>
<path fill="none" stroke="midnightblue" d="M347.476,-230.778C329.543,-221.828 305.333,-209.728 284,-199 191.682,-152.576 81.2092,-96.5481 39.7806,-75.5202"/>
<polygon fill="midnightblue" stroke="midnightblue" points="346.224,-234.065 356.735,-235.397 349.349,-227.801 346.224,-234.065"/>
</g>
<!-- Node13 -->
<g id="node13" class="node"><title>Node13</title>
<g id="a_node13"><a xlink:href="_ogre_shader_generator_8h.html" target="_top" xlink:title="OgreShaderGenerator.h">
<polygon fill="none" stroke="black" points="908.5,-179.5 908.5,-198.5 1027.5,-198.5 1027.5,-179.5 908.5,-179.5"/>
<text text-anchor="middle" x="968" y="-186.5" font-family="Helvetica,sans-Serif" font-size="10.00">OgreShaderGenerator.h</text>
</a>
</g>
</g>
<!-- Node2&#45;&gt;Node13 -->
<g id="edge14" class="edge"><title>Node2&#45;&gt;Node13</title>
<path fill="none" stroke="midnightblue" d="M439.803,-238.018C556.136,-227.442 796.378,-205.602 908.25,-195.432"/>
<polygon fill="midnightblue" stroke="midnightblue" points="439.257,-234.553 429.615,-238.944 439.891,-241.524 439.257,-234.553"/>
</g>
<!-- Node18 -->
<g id="node18" class="node"><title>Node18</title>
<g id="a_node18"><a xlink:href="_ogre_terrain_8h.html" target="_top" xlink:title="OgreTerrain.h">
<polygon fill="none" stroke="black" points="1138,-179.5 1138,-198.5 1214,-198.5 1214,-179.5 1138,-179.5"/>
<text text-anchor="middle" x="1176" y="-186.5" font-family="Helvetica,sans-Serif" font-size="10.00">OgreTerrain.h</text>
</a>
</g>
</g>
<!-- Node2&#45;&gt;Node18 -->
<g id="edge20" class="edge"><title>Node2&#45;&gt;Node18</title>
<path fill="none" stroke="midnightblue" d="M440.008,-239.556C601.162,-228.705 1010.78,-201.125 1137.83,-192.57"/>
<polygon fill="midnightblue" stroke="midnightblue" points="439.501,-236.082 429.758,-240.246 439.971,-243.066 439.501,-236.082"/>
</g>
<!-- Node4 -->
<g id="node4" class="node"><title>Node4</title>
<g id="a_node4"><a xlink:href="_ogre_root_8h.html" target="_top" xlink:title="OgreRoot.h">
<polygon fill="none" stroke="black" points="369.5,-118 369.5,-137 436.5,-137 436.5,-118 369.5,-118"/>
<text text-anchor="middle" x="403" y="-125" font-family="Helvetica,sans-Serif" font-size="10.00">OgreRoot.h</text>
</a>
</g>
</g>
<!-- Node3&#45;&gt;Node4 -->
<g id="edge3" class="edge"><title>Node3&#45;&gt;Node4</title>
<path fill="none" stroke="midnightblue" d="M382.61,-170.335C387.975,-159.328 394.635,-145.663 398.853,-137.009"/>
<polygon fill="midnightblue" stroke="midnightblue" points="379.39,-168.952 378.155,-179.475 385.683,-172.019 379.39,-168.952"/>
</g>
<!-- Node3&#45;&gt;Node6 -->
<g id="edge12" class="edge"><title>Node3&#45;&gt;Node6</title>
<path fill="none" stroke="midnightblue" d="M351.118,-174.377C321.87,-157.502 269.236,-128.916 221,-112 149.761,-87.0167 128.259,-94.228 55,-76 52.0878,-75.2754 49.0384,-74.4738 46.0277,-73.6565"/>
<polygon fill="midnightblue" stroke="midnightblue" points="349.355,-177.401 359.757,-179.415 352.881,-171.354 349.355,-177.401"/>
</g>
<!-- Node5 -->
<g id="node5" class="node"><title>Node5</title>
<g id="a_node5"><a xlink:href="gtk_2_ogre_config_dialog_imp_8h.html" target="_top" xlink:title="OgreConfigDialogImp.h">
<polygon fill="none" stroke="black" points="64.5,-56.5 64.5,-75.5 183.5,-75.5 183.5,-56.5 64.5,-56.5"/>
<text text-anchor="middle" x="124" y="-63.5" font-family="Helvetica,sans-Serif" font-size="10.00">OgreConfigDialogImp.h</text>
</a>
</g>
</g>
<!-- Node4&#45;&gt;Node5 -->
<g id="edge4" class="edge"><title>Node4&#45;&gt;Node5</title>
<path fill="none" stroke="midnightblue" d="M359.479,-117.219C305.986,-105.811 215.947,-86.6088 164.081,-75.5477"/>
<polygon fill="midnightblue" stroke="midnightblue" points="358.836,-120.66 369.346,-119.323 360.296,-113.814 358.836,-120.66"/>
</g>
<!-- Node4&#45;&gt;Node6 -->
<g id="edge5" class="edge"><title>Node4&#45;&gt;Node6</title>
<path fill="none" stroke="midnightblue" d="M359.058,-121.98C292.727,-114.739 163.271,-98.9797 55,-76 52.1773,-75.4009 49.2366,-74.6925 46.3315,-73.9404"/>
<polygon fill="midnightblue" stroke="midnightblue" points="358.831,-125.475 369.148,-123.068 359.581,-118.516 358.831,-125.475"/>
</g>
<!-- Node7 -->
<g id="node7" class="node"><title>Node7</title>
<g id="a_node7"><a xlink:href="_o_s_x_2_ogre_config_dialog_imp_8h.html" target="_top" xlink:title="OgreConfigDialogImp.h">
<polygon fill="none" stroke="black" points="201.5,-56.5 201.5,-75.5 320.5,-75.5 320.5,-56.5 201.5,-56.5"/>
<text text-anchor="middle" x="261" y="-63.5" font-family="Helvetica,sans-Serif" font-size="10.00">OgreConfigDialogImp.h</text>
</a>
</g>
</g>
<!-- Node4&#45;&gt;Node7 -->
<g id="edge6" class="edge"><title>Node4&#45;&gt;Node7</title>
<path fill="none" stroke="midnightblue" d="M373.119,-113.98C345.541,-102.424 305.332,-85.5758 281.307,-75.5091"/>
<polygon fill="midnightblue" stroke="midnightblue" points="372.079,-117.339 382.655,-117.975 374.784,-110.882 372.079,-117.339"/>
</g>
<!-- Node8 -->
<g id="node8" class="node"><title>Node8</title>
<g id="a_node8"><a xlink:href="_ogre_static_plugin_loader_8h.html" target="_top" xlink:title="OgreStaticPluginLoader.h">
<polygon fill="none" stroke="black" points="339,-56.5 339,-75.5 467,-75.5 467,-56.5 339,-56.5"/>
<text text-anchor="middle" x="403" y="-63.5" font-family="Helvetica,sans-Serif" font-size="10.00">OgreStaticPluginLoader.h</text>
</a>
</g>
</g>
<!-- Node4&#45;&gt;Node8 -->
<g id="edge7" class="edge"><title>Node4&#45;&gt;Node8</title>
<path fill="none" stroke="midnightblue" d="M403,-107.817C403,-96.9962 403,-83.898 403,-75.5091"/>
<polygon fill="midnightblue" stroke="midnightblue" points="399.5,-107.975 403,-117.975 406.5,-107.975 399.5,-107.975"/>
</g>
<!-- Node9 -->
<g id="node9" class="node"><title>Node9</title>
<g id="a_node9"><a xlink:href="_ogre_trays_8h.html" target="_top" xlink:title="OgreTrays.h">
<polygon fill="none" stroke="black" points="485.5,-56.5 485.5,-75.5 556.5,-75.5 556.5,-56.5 485.5,-56.5"/>
<text text-anchor="middle" x="521" y="-63.5" font-family="Helvetica,sans-Serif" font-size="10.00">OgreTrays.h</text>
</a>
</g>
</g>
<!-- Node4&#45;&gt;Node9 -->
<g id="edge8" class="edge"><title>Node4&#45;&gt;Node9</title>
<path fill="none" stroke="midnightblue" d="M429.046,-113.367C451.916,-101.835 484.511,-85.3992 504.125,-75.5091"/>
<polygon fill="midnightblue" stroke="midnightblue" points="427.26,-110.347 419.907,-117.975 430.411,-116.598 427.26,-110.347"/>
</g>
<!-- Node10 -->
<g id="node10" class="node"><title>Node10</title>
<g id="a_node10"><a xlink:href="_ogre_d3_d11_mappings_8h.html" target="_top" xlink:title="OgreD3D11Mappings.h">
<polygon fill="none" stroke="red" points="574.5,-56.5 574.5,-75.5 693.5,-75.5 693.5,-56.5 574.5,-56.5"/>
<text text-anchor="middle" x="634" y="-63.5" font-family="Helvetica,sans-Serif" font-size="10.00">OgreD3D11Mappings.h</text>
</a>
</g>
</g>
<!-- Node4&#45;&gt;Node10 -->
<g id="edge9" class="edge"><title>Node4&#45;&gt;Node10</title>
<path fill="none" stroke="midnightblue" d="M445.828,-115.468C490.684,-103.915 560.168,-86.0173 600.965,-75.5091"/>
<polygon fill="midnightblue" stroke="midnightblue" points="444.908,-112.091 436.097,-117.975 446.654,-118.87 444.908,-112.091"/>
</g>
<!-- Node11 -->
<g id="node11" class="node"><title>Node11</title>
<g id="a_node11"><a xlink:href="_ogre_e_a_g_l_view_controller_8h.html" target="_top" xlink:title="OgreEAGLViewController.h">
<polygon fill="none" stroke="black" points="712,-56.5 712,-75.5 848,-75.5 848,-56.5 712,-56.5"/>
<text text-anchor="middle" x="780" y="-63.5" font-family="Helvetica,sans-Serif" font-size="10.00">OgreEAGLViewController.h</text>
</a>
</g>
</g>
<!-- Node4&#45;&gt;Node11 -->
<g id="edge10" class="edge"><title>Node4&#45;&gt;Node11</title>
<path fill="none" stroke="midnightblue" d="M446.935,-119.566C516.286,-108.621 650.948,-87.3677 726.06,-75.5131"/>
<polygon fill="midnightblue" stroke="midnightblue" points="446.12,-116.151 436.788,-121.167 447.211,-123.066 446.12,-116.151"/>
</g>
<!-- Node12 -->
<g id="node12" class="node"><title>Node12</title>
<g id="a_node12"><a xlink:href="_ogre_e_a_g_l2_view_controller_8h.html" target="_top" xlink:title="OgreEAGL2ViewController.h">
<polygon fill="none" stroke="black" points="866.5,-56.5 866.5,-75.5 1007.5,-75.5 1007.5,-56.5 866.5,-56.5"/>
<text text-anchor="middle" x="937" y="-63.5" font-family="Helvetica,sans-Serif" font-size="10.00">OgreEAGL2ViewController.h</text>
</a>
</g>
</g>
<!-- Node4&#45;&gt;Node12 -->
<g id="edge11" class="edge"><title>Node4&#45;&gt;Node12</title>
<path fill="none" stroke="midnightblue" d="M446.921,-121.633C527.97,-112.648 706.522,-92.8334 857,-76 860.056,-75.6582 863.177,-75.3086 866.33,-74.9552"/>
<polygon fill="midnightblue" stroke="midnightblue" points="446.158,-118.196 436.605,-122.777 446.93,-125.153 446.158,-118.196"/>
</g>
<!-- Node14 -->
<g id="node14" class="node"><title>Node14</title>
<g id="a_node14"><a xlink:href="_ogre_r_t_shader_system_8h.html" target="_top" xlink:title="OgreRTShaderSystem.h">
<polygon fill="none" stroke="black" points="1026,-56.5 1026,-75.5 1150,-75.5 1150,-56.5 1026,-56.5"/>
<text text-anchor="middle" x="1088" y="-63.5" font-family="Helvetica,sans-Serif" font-size="10.00">OgreRTShaderSystem.h</text>
</a>
</g>
</g>
<!-- Node13&#45;&gt;Node14 -->
<g id="edge15" class="edge"><title>Node13&#45;&gt;Node14</title>
<path fill="none" stroke="midnightblue" d="M952.467,-171.693C938.908,-155.427 923.365,-130.29 937,-112 949.139,-95.7158 998.005,-83.1818 1036.9,-75.5266"/>
<polygon fill="midnightblue" stroke="midnightblue" points="949.961,-174.143 959.211,-179.308 955.201,-169.502 949.961,-174.143"/>
</g>
<!-- Node16 -->
<g id="node16" class="node"><title>Node16</title>
<g id="a_node16"><a xlink:href="_ogre_shader_material_serializer_listener_8h.html" target="_top" xlink:title="OgreShaderMaterialSerializer\lListener.h">
<polygon fill="none" stroke="black" points="946.5,-112.5 946.5,-142.5 1089.5,-142.5 1089.5,-112.5 946.5,-112.5"/>
<text text-anchor="start" x="954.5" y="-130.5" font-family="Helvetica,sans-Serif" font-size="10.00">OgreShaderMaterialSerializer</text>
<text text-anchor="middle" x="1018" y="-119.5" font-family="Helvetica,sans-Serif" font-size="10.00">Listener.h</text>
</a>
</g>
</g>
<!-- Node13&#45;&gt;Node16 -->
<g id="edge17" class="edge"><title>Node13&#45;&gt;Node16</title>
<path fill="none" stroke="midnightblue" d="M981.604,-171.811C989.304,-162.649 998.838,-151.303 1006.22,-142.523"/>
<polygon fill="midnightblue" stroke="midnightblue" points="978.918,-169.568 975.164,-179.475 984.277,-174.071 978.918,-169.568"/>
</g>
<!-- Node17 -->
<g id="node17" class="node"><title>Node17</title>
<g id="a_node17"><a xlink:href="_ogre_shader_f_f_p_render_state_builder_8h.html" target="_top" xlink:title="OgreShaderFFPRenderState\lBuilder.h">
<polygon fill="none" stroke="black" points="1108,-112.5 1108,-142.5 1250,-142.5 1250,-112.5 1108,-112.5"/>
<text text-anchor="start" x="1116" y="-130.5" font-family="Helvetica,sans-Serif" font-size="10.00">OgreShaderFFPRenderState</text>
<text text-anchor="middle" x="1179" y="-119.5" font-family="Helvetica,sans-Serif" font-size="10.00">Builder.h</text>
</a>
</g>
</g>
<!-- Node13&#45;&gt;Node17 -->
<g id="edge19" class="edge"><title>Node13&#45;&gt;Node17</title>
<path fill="none" stroke="midnightblue" d="M1007.95,-176.734C1042.39,-167.023 1092.26,-152.961 1129.27,-142.523"/>
<polygon fill="midnightblue" stroke="midnightblue" points="1006.91,-173.392 998.231,-179.475 1008.81,-180.13 1006.91,-173.392"/>
</g>
<!-- Node15 -->
<g id="node15" class="node"><title>Node15</title>
<g id="a_node15"><a xlink:href="_ogre_s_g_technique_resolver_listener_8h.html" target="_top" xlink:title="OgreSGTechniqueResolverListener.h">
<polygon fill="none" stroke="black" points="998.5,-0.5 998.5,-19.5 1177.5,-19.5 1177.5,-0.5 998.5,-0.5"/>
<text text-anchor="middle" x="1088" y="-7.5" font-family="Helvetica,sans-Serif" font-size="10.00">OgreSGTechniqueResolverListener.h</text>
</a>
</g>
</g>
<!-- Node14&#45;&gt;Node15 -->
<g id="edge16" class="edge"><title>Node14&#45;&gt;Node15</title>
<path fill="none" stroke="midnightblue" d="M1088,-45.8045C1088,-36.9102 1088,-26.7798 1088,-19.7511"/>
<polygon fill="midnightblue" stroke="midnightblue" points="1084.5,-46.083 1088,-56.083 1091.5,-46.083 1084.5,-46.083"/>
</g>
<!-- Node16&#45;&gt;Node14 -->
<g id="edge18" class="edge"><title>Node16&#45;&gt;Node14</title>
<path fill="none" stroke="midnightblue" d="M1042.24,-105.893C1054.42,-95.5432 1068.52,-83.5577 1077.81,-75.6578"/>
<polygon fill="midnightblue" stroke="midnightblue" points="1039.94,-103.256 1034.59,-112.399 1044.48,-108.59 1039.94,-103.256"/>
</g>
<!-- Node19 -->
<g id="node19" class="node"><title>Node19</title>
<g id="a_node19"><a xlink:href="_ogre_terrain_group_8h.html" target="_top" xlink:title="OgreTerrainGroup.h">
<polygon fill="none" stroke="black" points="1268,-118 1268,-137 1370,-137 1370,-118 1268,-118"/>
<text text-anchor="middle" x="1319" y="-125" font-family="Helvetica,sans-Serif" font-size="10.00">OgreTerrainGroup.h</text>
</a>
</g>
</g>
<!-- Node18&#45;&gt;Node19 -->
<g id="edge21" class="edge"><title>Node18&#45;&gt;Node19</title>
<path fill="none" stroke="midnightblue" d="M1205.73,-175.631C1233.51,-164.072 1274.25,-147.12 1298.55,-137.009"/>
<polygon fill="midnightblue" stroke="midnightblue" points="1204.38,-172.402 1196.49,-179.475 1207.07,-178.865 1204.38,-172.402"/>
</g>
<!-- Node20 -->
<g id="node20" class="node"><title>Node20</title>
<g id="a_node20"><a xlink:href="_ogre_terrain_paged_world_section_8h.html" target="_top" xlink:title="OgreTerrainPagedWorldSection.h">
<polygon fill="none" stroke="black" points="1238,-56.5 1238,-75.5 1400,-75.5 1400,-56.5 1238,-56.5"/>
<text text-anchor="middle" x="1319" y="-63.5" font-family="Helvetica,sans-Serif" font-size="10.00">OgreTerrainPagedWorldSection.h</text>
</a>
</g>
</g>
<!-- Node19&#45;&gt;Node20 -->
<g id="edge22" class="edge"><title>Node19&#45;&gt;Node20</title>
<path fill="none" stroke="midnightblue" d="M1319,-107.817C1319,-96.9962 1319,-83.898 1319,-75.5091"/>
<polygon fill="midnightblue" stroke="midnightblue" points="1315.5,-107.975 1319,-117.975 1322.5,-107.975 1315.5,-107.975"/>
</g>
</g>
</svg>
