<?xml version="1.0" encoding="UTF-8" standalone="no"?>
<!DOCTYPE svg PUBLIC "-//W3C//DTD SVG 1.1//EN"
 "http://www.w3.org/Graphics/SVG/1.1/DTD/svg11.dtd">
<!-- Generated by graphviz version 2.38.0 (20140413.2041)
 -->
<!-- Title: OgreShaderFunctionAtom.h Pages: 1 -->
<svg width="2487pt" height="476pt"
 viewBox="0.00 0.00 2487.00 476.00" xmlns="http://www.w3.org/2000/svg" xmlns:xlink="http://www.w3.org/1999/xlink">
<g id="graph0" class="graph" transform="scale(1 1) rotate(0) translate(4 472)">
<title>OgreShaderFunctionAtom.h</title>
<!-- Node1 -->
<g id="node1" class="node"><title>Node1</title>
<polygon fill="#bfbfbf" stroke="black" points="1164.5,-448.5 1164.5,-467.5 1301.5,-467.5 1301.5,-448.5 1164.5,-448.5"/>
<text text-anchor="middle" x="1233" y="-455.5" font-family="Helvetica,sans-Serif" font-size="10.00">OgreShaderFunctionAtom.h</text>
</g>
<!-- Node2 -->
<g id="node2" class="node"><title>Node2</title>
<g id="a_node2"><a xlink:href="_ogre_shader_prerequisites_8h.html" target="_top" xlink:title="OgreShaderPrerequisites.h">
<polygon fill="none" stroke="black" points="1261,-168.5 1261,-187.5 1395,-187.5 1395,-168.5 1261,-168.5"/>
<text text-anchor="middle" x="1328" y="-175.5" font-family="Helvetica,sans-Serif" font-size="10.00">OgreShaderPrerequisites.h</text>
</a>
</g>
</g>
<!-- Node1&#45;&gt;Node2 -->
<g id="edge1" class="edge"><title>Node1&#45;&gt;Node2</title>
<path fill="none" stroke="midnightblue" d="M1248.38,-448.434C1261.49,-440.467 1280.05,-427.511 1292,-412 1311.09,-387.22 1319,-378.282 1319,-347 1319,-347 1319,-347 1319,-289 1319,-256.841 1322.87,-219.569 1325.53,-197.711"/>
<polygon fill="midnightblue" stroke="midnightblue" points="1329.04,-197.899 1326.82,-187.538 1322.09,-197.018 1329.04,-197.899"/>
</g>
<!-- Node38 -->
<g id="node38" class="node"><title>Node38</title>
<g id="a_node38"><a xlink:href="_ogre_string_vector_8h.html" target="_top" xlink:title="OgreStringVector.h">
<polygon fill="none" stroke="black" points="1183,-392.5 1183,-411.5 1283,-411.5 1283,-392.5 1183,-392.5"/>
<text text-anchor="middle" x="1233" y="-399.5" font-family="Helvetica,sans-Serif" font-size="10.00">OgreStringVector.h</text>
</a>
</g>
</g>
<!-- Node1&#45;&gt;Node38 -->
<g id="edge40" class="edge"><title>Node1&#45;&gt;Node38</title>
<path fill="none" stroke="midnightblue" d="M1233,-448.083C1233,-441.006 1233,-430.861 1233,-421.986"/>
<polygon fill="midnightblue" stroke="midnightblue" points="1236.5,-421.751 1233,-411.751 1229.5,-421.751 1236.5,-421.751"/>
</g>
<!-- Node44 -->
<g id="node44" class="node"><title>Node44</title>
<g id="a_node44"><a xlink:href="_ogre_gpu_program_params_8h.html" target="_top" xlink:title="OgreGpuProgramParams.h">
<polygon fill="none" stroke="black" points="692,-392.5 692,-411.5 826,-411.5 826,-392.5 692,-392.5"/>
<text text-anchor="middle" x="759" y="-399.5" font-family="Helvetica,sans-Serif" font-size="10.00">OgreGpuProgramParams.h</text>
</a>
</g>
</g>
<!-- Node1&#45;&gt;Node44 -->
<g id="edge56" class="edge"><title>Node1&#45;&gt;Node44</title>
<path fill="none" stroke="midnightblue" d="M1164.33,-449.177C1077.16,-439.246 927.186,-422.16 836.152,-411.789"/>
<polygon fill="midnightblue" stroke="midnightblue" points="836.501,-408.307 826.169,-410.652 835.708,-415.262 836.501,-408.307"/>
</g>
<!-- Node3 -->
<g id="node3" class="node"><title>Node3</title>
<g id="a_node3"><a xlink:href="_ogre_prerequisites_8h.html" target="_top" xlink:title="OgrePrerequisites.h">
<polygon fill="none" stroke="black" points="891.5,-112.5 891.5,-131.5 994.5,-131.5 994.5,-112.5 891.5,-112.5"/>
<text text-anchor="middle" x="943" y="-119.5" font-family="Helvetica,sans-Serif" font-size="10.00">OgrePrerequisites.h</text>
</a>
</g>
</g>
<!-- Node2&#45;&gt;Node3 -->
<g id="edge2" class="edge"><title>Node2&#45;&gt;Node3</title>
<path fill="none" stroke="midnightblue" d="M1267,-168.444C1195.35,-158.395 1077.17,-141.818 1005.07,-131.706"/>
<polygon fill="midnightblue" stroke="midnightblue" points="1005.17,-128.185 994.777,-130.262 1004.19,-135.117 1005.17,-128.185"/>
</g>
<!-- Node37 -->
<g id="node37" class="node"><title>Node37</title>
<g id="a_node37"><a xlink:href="_ogre_common_8h.html" target="_top" xlink:title="OgreCommon.h">
<polygon fill="none" stroke="black" points="639,-56.5 639,-75.5 725,-75.5 725,-56.5 639,-56.5"/>
<text text-anchor="middle" x="682" y="-63.5" font-family="Helvetica,sans-Serif" font-size="10.00">OgreCommon.h</text>
</a>
</g>
</g>
<!-- Node2&#45;&gt;Node37 -->
<g id="edge37" class="edge"><title>Node2&#45;&gt;Node37</title>
<path fill="none" stroke="midnightblue" d="M1289.11,-168.462C1228.28,-155.277 1106.81,-129.642 1003,-112 909.193,-96.0579 799.266,-81.5437 735.438,-73.526"/>
<polygon fill="midnightblue" stroke="midnightblue" points="735.574,-70.0159 725.217,-72.2482 734.706,-76.9618 735.574,-70.0159"/>
</g>
<!-- Node4 -->
<g id="node4" class="node"><title>Node4</title>
<g id="a_node4"><a xlink:href="_ogre_platform_8h.html" target="_top" xlink:title="OgrePlatform.h">
<polygon fill="none" stroke="black" points="2199.5,-56.5 2199.5,-75.5 2282.5,-75.5 2282.5,-56.5 2199.5,-56.5"/>
<text text-anchor="middle" x="2241" y="-63.5" font-family="Helvetica,sans-Serif" font-size="10.00">OgrePlatform.h</text>
</a>
</g>
</g>
<!-- Node3&#45;&gt;Node4 -->
<g id="edge3" class="edge"><title>Node3&#45;&gt;Node4</title>
<path fill="none" stroke="midnightblue" d="M994.684,-118.85C1203.11,-110.179 1980.63,-77.8322 2189.22,-69.1541"/>
<polygon fill="midnightblue" stroke="midnightblue" points="2189.45,-72.6478 2199.29,-68.7351 2189.16,-65.6539 2189.45,-72.6478"/>
</g>
<!-- Node6 -->
<g id="node6" class="node"><title>Node6</title>
<polygon fill="none" stroke="#bfbfbf" points="2345.5,-0.5 2345.5,-19.5 2386.5,-19.5 2386.5,-0.5 2345.5,-0.5"/>
<text text-anchor="middle" x="2366" y="-7.5" font-family="Helvetica,sans-Serif" font-size="10.00">string</text>
</g>
<!-- Node3&#45;&gt;Node6 -->
<g id="edge5" class="edge"><title>Node3&#45;&gt;Node6</title>
<path fill="none" stroke="midnightblue" d="M994.743,-121.311C1177.74,-121.558 1811,-115.165 2335.45,-19.641"/>
<polygon fill="midnightblue" stroke="midnightblue" points="2336.28,-23.0467 2345.49,-17.7994 2335.02,-16.1616 2336.28,-23.0467"/>
</g>
<!-- Node7 -->
<g id="node7" class="node"><title>Node7</title>
<g id="a_node7"><a xlink:href="_ogre_std_headers_8h.html" target="_top" xlink:title="OgreStdHeaders.h">
<polygon fill="none" stroke="red" points="1360,-56.5 1360,-75.5 1458,-75.5 1458,-56.5 1360,-56.5"/>
<text text-anchor="middle" x="1409" y="-63.5" font-family="Helvetica,sans-Serif" font-size="10.00">OgreStdHeaders.h</text>
</a>
</g>
</g>
<!-- Node3&#45;&gt;Node7 -->
<g id="edge6" class="edge"><title>Node3&#45;&gt;Node7</title>
<path fill="none" stroke="midnightblue" d="M994.651,-115.015C1081.9,-104.904 1257.95,-84.5042 1349.95,-73.8425"/>
<polygon fill="midnightblue" stroke="midnightblue" points="1350.4,-77.3135 1359.94,-72.6856 1349.6,-70.3601 1350.4,-77.3135"/>
</g>
<!-- Node34 -->
<g id="node34" class="node"><title>Node34</title>
<g id="a_node34"><a xlink:href="_ogre_memory_allocator_config_8h.html" target="_top" xlink:title="This file configures Ogre&#39;s memory allocators. ">
<polygon fill="none" stroke="red" points="397,-56.5 397,-75.5 545,-75.5 545,-56.5 397,-56.5"/>
<text text-anchor="middle" x="471" y="-63.5" font-family="Helvetica,sans-Serif" font-size="10.00">OgreMemoryAllocatorConfig.h</text>
</a>
</g>
</g>
<!-- Node3&#45;&gt;Node34 -->
<g id="edge34" class="edge"><title>Node3&#45;&gt;Node34</title>
<path fill="none" stroke="midnightblue" d="M891.138,-115.067C810.185,-105.805 652.988,-87.8207 555.512,-76.6687"/>
<polygon fill="midnightblue" stroke="midnightblue" points="555.726,-73.1705 545.393,-75.5111 554.93,-80.1251 555.726,-73.1705"/>
</g>
<!-- Node5 -->
<g id="node5" class="node"><title>Node5</title>
<g id="a_node5"><a xlink:href="_ogre_config_8h.html" target="_top" xlink:title="OgreConfig.h">
<polygon fill="none" stroke="red" points="2405,-0.5 2405,-19.5 2479,-19.5 2479,-0.5 2405,-0.5"/>
<text text-anchor="middle" x="2442" y="-7.5" font-family="Helvetica,sans-Serif" font-size="10.00">OgreConfig.h</text>
</a>
</g>
</g>
<!-- Node4&#45;&gt;Node5 -->
<g id="edge4" class="edge"><title>Node4&#45;&gt;Node5</title>
<path fill="none" stroke="midnightblue" d="M2272.85,-56.4435C2307.4,-47.1616 2362.68,-32.3093 2400.58,-22.127"/>
<polygon fill="midnightblue" stroke="midnightblue" points="2401.55,-25.4912 2410.3,-19.5164 2399.73,-18.7309 2401.55,-25.4912"/>
</g>
<!-- Node7&#45;&gt;Node6 -->
<g id="edge16" class="edge"><title>Node7&#45;&gt;Node6</title>
<path fill="none" stroke="midnightblue" d="M1458.13,-64.1879C1621.34,-61.2484 2145.38,-49.8101 2335.05,-19.6377"/>
<polygon fill="midnightblue" stroke="midnightblue" points="2335.88,-23.047 2345.17,-17.9532 2334.74,-16.1419 2335.88,-23.047"/>
</g>
<!-- Node8 -->
<g id="node8" class="node"><title>Node8</title>
<polygon fill="none" stroke="#bfbfbf" points="701.5,-0.5 701.5,-19.5 750.5,-19.5 750.5,-0.5 701.5,-0.5"/>
<text text-anchor="middle" x="726" y="-7.5" font-family="Helvetica,sans-Serif" font-size="10.00">cassert</text>
</g>
<!-- Node7&#45;&gt;Node8 -->
<g id="edge7" class="edge"><title>Node7&#45;&gt;Node8</title>
<path fill="none" stroke="midnightblue" d="M1359.69,-60.1049C1344.71,-58.6905 1328.19,-57.205 1313,-56 1070.39,-36.7493 1004.17,-60.0138 760.964,-20.0235"/>
<polygon fill="midnightblue" stroke="midnightblue" points="761.186,-16.5125 750.747,-18.3238 760.037,-23.4175 761.186,-16.5125"/>
</g>
<!-- Node9 -->
<g id="node9" class="node"><title>Node9</title>
<polygon fill="none" stroke="#bfbfbf" points="768.5,-0.5 768.5,-19.5 811.5,-19.5 811.5,-0.5 768.5,-0.5"/>
<text text-anchor="middle" x="790" y="-7.5" font-family="Helvetica,sans-Serif" font-size="10.00">cstdio</text>
</g>
<!-- Node7&#45;&gt;Node9 -->
<g id="edge8" class="edge"><title>Node7&#45;&gt;Node9</title>
<path fill="none" stroke="midnightblue" d="M1359.69,-60.1806C1344.7,-58.7688 1328.18,-57.2657 1313,-56 1097.38,-38.0221 1037.85,-59.1433 821.889,-19.9954"/>
<polygon fill="midnightblue" stroke="midnightblue" points="822.287,-16.5101 811.82,-18.1473 821.024,-23.3951 822.287,-16.5101"/>
</g>
<!-- Node10 -->
<g id="node10" class="node"><title>Node10</title>
<polygon fill="none" stroke="#bfbfbf" points="829.5,-0.5 829.5,-19.5 874.5,-19.5 874.5,-0.5 829.5,-0.5"/>
<text text-anchor="middle" x="852" y="-7.5" font-family="Helvetica,sans-Serif" font-size="10.00">cstdlib</text>
</g>
<!-- Node7&#45;&gt;Node10 -->
<g id="edge9" class="edge"><title>Node7&#45;&gt;Node10</title>
<path fill="none" stroke="midnightblue" d="M1359.68,-60.2811C1344.69,-58.8728 1328.17,-57.3464 1313,-56 1125.24,-39.339 1073.34,-54.3753 884.536,-19.9541"/>
<polygon fill="midnightblue" stroke="midnightblue" points="885.031,-16.4865 874.562,-18.1134 883.761,-23.3702 885.031,-16.4865"/>
</g>
<!-- Node11 -->
<g id="node11" class="node"><title>Node11</title>
<polygon fill="none" stroke="#bfbfbf" points="892.5,-0.5 892.5,-19.5 933.5,-19.5 933.5,-0.5 892.5,-0.5"/>
<text text-anchor="middle" x="913" y="-7.5" font-family="Helvetica,sans-Serif" font-size="10.00">ctime</text>
</g>
<!-- Node7&#45;&gt;Node11 -->
<g id="edge10" class="edge"><title>Node7&#45;&gt;Node11</title>
<path fill="none" stroke="midnightblue" d="M1359.96,-60.3907C1251.98,-50.2276 999.446,-26.3677 943.553,-19.2255"/>
<polygon fill="midnightblue" stroke="midnightblue" points="943.93,-15.7432 933.524,-17.733 942.9,-22.6669 943.93,-15.7432"/>
</g>
<!-- Node12 -->
<g id="node12" class="node"><title>Node12</title>
<polygon fill="none" stroke="#bfbfbf" points="952,-0.5 952,-19.5 998,-19.5 998,-0.5 952,-0.5"/>
<text text-anchor="middle" x="975" y="-7.5" font-family="Helvetica,sans-Serif" font-size="10.00">cstring</text>
</g>
<!-- Node7&#45;&gt;Node12 -->
<g id="edge11" class="edge"><title>Node7&#45;&gt;Node12</title>
<path fill="none" stroke="midnightblue" d="M1359.81,-59.948C1266.37,-50.2885 1067.84,-29.4479 1008.3,-19.8031"/>
<polygon fill="midnightblue" stroke="midnightblue" points="1008.77,-16.3326 998.313,-18.03 1007.55,-23.2248 1008.77,-16.3326"/>
</g>
<!-- Node13 -->
<g id="node13" class="node"><title>Node13</title>
<polygon fill="none" stroke="#bfbfbf" points="1016.5,-0.5 1016.5,-19.5 1065.5,-19.5 1065.5,-0.5 1016.5,-0.5"/>
<text text-anchor="middle" x="1041" y="-7.5" font-family="Helvetica,sans-Serif" font-size="10.00">cstdarg</text>
</g>
<!-- Node7&#45;&gt;Node13 -->
<g id="edge12" class="edge"><title>Node7&#45;&gt;Node13</title>
<path fill="none" stroke="midnightblue" d="M1359.73,-60.3065C1296.27,-53.8323 1182.44,-40.7691 1075.77,-19.9223"/>
<polygon fill="midnightblue" stroke="midnightblue" points="1076.29,-16.4578 1065.8,-17.9471 1074.93,-23.3243 1076.29,-16.4578"/>
</g>
<!-- Node14 -->
<g id="node14" class="node"><title>Node14</title>
<polygon fill="none" stroke="#bfbfbf" points="1084,-0.5 1084,-19.5 1128,-19.5 1128,-0.5 1084,-0.5"/>
<text text-anchor="middle" x="1106" y="-7.5" font-family="Helvetica,sans-Serif" font-size="10.00">cmath</text>
</g>
<!-- Node7&#45;&gt;Node14 -->
<g id="edge13" class="edge"><title>Node7&#45;&gt;Node14</title>
<path fill="none" stroke="midnightblue" d="M1359.52,-58.6125C1306.83,-51.4103 1220.87,-38.5157 1138.09,-20.0298"/>
<polygon fill="midnightblue" stroke="midnightblue" points="1138.79,-16.6018 1128.27,-17.8077 1137.25,-23.4291 1138.79,-16.6018"/>
</g>
<!-- Node15 -->
<g id="node15" class="node"><title>Node15</title>
<polygon fill="none" stroke="#bfbfbf" points="1146,-0.5 1146,-19.5 1190,-19.5 1190,-0.5 1146,-0.5"/>
<text text-anchor="middle" x="1168" y="-7.5" font-family="Helvetica,sans-Serif" font-size="10.00">vector</text>
</g>
<!-- Node7&#45;&gt;Node15 -->
<g id="edge14" class="edge"><title>Node7&#45;&gt;Node15</title>
<path fill="none" stroke="midnightblue" d="M1364.54,-56.4326C1324.05,-48.4161 1262.42,-35.6789 1200.27,-20.1897"/>
<polygon fill="midnightblue" stroke="midnightblue" points="1200.85,-16.7258 1190.3,-17.6804 1199.14,-23.5143 1200.85,-16.7258"/>
</g>
<!-- Node16 -->
<g id="node16" class="node"><title>Node16</title>
<polygon fill="none" stroke="#bfbfbf" points="1208.5,-0.5 1208.5,-19.5 1243.5,-19.5 1243.5,-0.5 1208.5,-0.5"/>
<text text-anchor="middle" x="1226" y="-7.5" font-family="Helvetica,sans-Serif" font-size="10.00">map</text>
</g>
<!-- Node7&#45;&gt;Node16 -->
<g id="edge15" class="edge"><title>Node7&#45;&gt;Node16</title>
<path fill="none" stroke="midnightblue" d="M1378.11,-56.4903C1348.52,-48.254 1302.42,-35.189 1253.5,-20.0622"/>
<polygon fill="midnightblue" stroke="midnightblue" points="1254.27,-16.6366 1243.69,-17.0102 1252.2,-23.321 1254.27,-16.6366"/>
</g>
<!-- Node17 -->
<g id="node17" class="node"><title>Node17</title>
<polygon fill="none" stroke="#bfbfbf" points="1262,-0.5 1262,-19.5 1292,-19.5 1292,-0.5 1262,-0.5"/>
<text text-anchor="middle" x="1277" y="-7.5" font-family="Helvetica,sans-Serif" font-size="10.00">set</text>
</g>
<!-- Node7&#45;&gt;Node17 -->
<g id="edge17" class="edge"><title>Node7&#45;&gt;Node17</title>
<path fill="none" stroke="midnightblue" d="M1388.08,-56.4435C1364.57,-46.8247 1326.44,-31.2238 1301.54,-21.0372"/>
<polygon fill="midnightblue" stroke="midnightblue" points="1302.65,-17.7119 1292.07,-17.1649 1300,-24.1907 1302.65,-17.7119"/>
</g>
<!-- Node18 -->
<g id="node18" class="node"><title>Node18</title>
<polygon fill="none" stroke="#bfbfbf" points="1310.5,-0.5 1310.5,-19.5 1339.5,-19.5 1339.5,-0.5 1310.5,-0.5"/>
<text text-anchor="middle" x="1325" y="-7.5" font-family="Helvetica,sans-Serif" font-size="10.00">list</text>
</g>
<!-- Node7&#45;&gt;Node18 -->
<g id="edge18" class="edge"><title>Node7&#45;&gt;Node18</title>
<path fill="none" stroke="midnightblue" d="M1395.5,-56.324C1382.4,-47.9002 1362.29,-34.9709 1346.89,-25.0741"/>
<polygon fill="midnightblue" stroke="midnightblue" points="1348.77,-22.118 1338.46,-19.6545 1344.98,-28.0063 1348.77,-22.118"/>
</g>
<!-- Node19 -->
<g id="node19" class="node"><title>Node19</title>
<polygon fill="none" stroke="#bfbfbf" points="1357.5,-0.5 1357.5,-19.5 1400.5,-19.5 1400.5,-0.5 1357.5,-0.5"/>
<text text-anchor="middle" x="1379" y="-7.5" font-family="Helvetica,sans-Serif" font-size="10.00">deque</text>
</g>
<!-- Node7&#45;&gt;Node19 -->
<g id="edge19" class="edge"><title>Node7&#45;&gt;Node19</title>
<path fill="none" stroke="midnightblue" d="M1404.05,-56.083C1399.9,-48.6127 1393.85,-37.7244 1388.73,-28.5199"/>
<polygon fill="midnightblue" stroke="midnightblue" points="1391.78,-26.7929 1383.86,-19.7511 1385.66,-30.1924 1391.78,-26.7929"/>
</g>
<!-- Node20 -->
<g id="node20" class="node"><title>Node20</title>
<polygon fill="none" stroke="#bfbfbf" points="1418.5,-0.5 1418.5,-19.5 1461.5,-19.5 1461.5,-0.5 1418.5,-0.5"/>
<text text-anchor="middle" x="1440" y="-7.5" font-family="Helvetica,sans-Serif" font-size="10.00">queue</text>
</g>
<!-- Node7&#45;&gt;Node20 -->
<g id="edge20" class="edge"><title>Node7&#45;&gt;Node20</title>
<path fill="none" stroke="midnightblue" d="M1414.12,-56.083C1418.41,-48.6127 1424.66,-37.7244 1429.94,-28.5199"/>
<polygon fill="midnightblue" stroke="midnightblue" points="1433.03,-30.1662 1434.98,-19.7511 1426.96,-26.6811 1433.03,-30.1662"/>
</g>
<!-- Node21 -->
<g id="node21" class="node"><title>Node21</title>
<polygon fill="none" stroke="#bfbfbf" points="1479.5,-0.5 1479.5,-19.5 1520.5,-19.5 1520.5,-0.5 1479.5,-0.5"/>
<text text-anchor="middle" x="1500" y="-7.5" font-family="Helvetica,sans-Serif" font-size="10.00">bitset</text>
</g>
<!-- Node7&#45;&gt;Node21 -->
<g id="edge21" class="edge"><title>Node7&#45;&gt;Node21</title>
<path fill="none" stroke="midnightblue" d="M1423.62,-56.324C1437.95,-47.8215 1460.01,-34.7288 1476.75,-24.7975"/>
<polygon fill="midnightblue" stroke="midnightblue" points="1478.6,-27.7677 1485.42,-19.6545 1475.03,-21.7478 1478.6,-27.7677"/>
</g>
<!-- Node22 -->
<g id="node22" class="node"><title>Node22</title>
<polygon fill="none" stroke="#bfbfbf" points="1539,-0.5 1539,-19.5 1595,-19.5 1595,-0.5 1539,-0.5"/>
<text text-anchor="middle" x="1567" y="-7.5" font-family="Helvetica,sans-Serif" font-size="10.00">algorithm</text>
</g>
<!-- Node7&#45;&gt;Node22 -->
<g id="edge22" class="edge"><title>Node7&#45;&gt;Node22</title>
<path fill="none" stroke="midnightblue" d="M1434.04,-56.4435C1460.62,-47.3591 1502.81,-32.9388 1532.52,-22.7831"/>
<polygon fill="midnightblue" stroke="midnightblue" points="1533.75,-26.0625 1542.08,-19.5164 1531.49,-19.4386 1533.75,-26.0625"/>
</g>
<!-- Node23 -->
<g id="node23" class="node"><title>Node23</title>
<polygon fill="none" stroke="#bfbfbf" points="1613.5,-0.5 1613.5,-19.5 1672.5,-19.5 1672.5,-0.5 1613.5,-0.5"/>
<text text-anchor="middle" x="1643" y="-7.5" font-family="Helvetica,sans-Serif" font-size="10.00">functional</text>
</g>
<!-- Node7&#45;&gt;Node23 -->
<g id="edge23" class="edge"><title>Node7&#45;&gt;Node23</title>
<path fill="none" stroke="midnightblue" d="M1446.08,-56.4435C1489,-46.5387 1559.41,-30.2905 1603.38,-20.143"/>
<polygon fill="midnightblue" stroke="midnightblue" points="1604.19,-23.5477 1613.15,-17.8886 1602.62,-16.7269 1604.19,-23.5477"/>
</g>
<!-- Node24 -->
<g id="node24" class="node"><title>Node24</title>
<polygon fill="none" stroke="#bfbfbf" points="1691,-0.5 1691,-19.5 1731,-19.5 1731,-0.5 1691,-0.5"/>
<text text-anchor="middle" x="1711" y="-7.5" font-family="Helvetica,sans-Serif" font-size="10.00">limits</text>
</g>
<!-- Node7&#45;&gt;Node24 -->
<g id="edge24" class="edge"><title>Node7&#45;&gt;Node24</title>
<path fill="none" stroke="midnightblue" d="M1458.22,-58.962C1511.11,-52.0139 1597.72,-39.3052 1680.95,-19.9795"/>
<polygon fill="midnightblue" stroke="midnightblue" points="1681.89,-23.3545 1690.82,-17.6528 1680.28,-16.5413 1681.89,-23.3545"/>
</g>
<!-- Node25 -->
<g id="node25" class="node"><title>Node25</title>
<polygon fill="none" stroke="#bfbfbf" points="1749,-0.5 1749,-19.5 1799,-19.5 1799,-0.5 1749,-0.5"/>
<text text-anchor="middle" x="1774" y="-7.5" font-family="Helvetica,sans-Serif" font-size="10.00">fstream</text>
</g>
<!-- Node7&#45;&gt;Node25 -->
<g id="edge25" class="edge"><title>Node7&#45;&gt;Node25</title>
<path fill="none" stroke="midnightblue" d="M1458.11,-60.2424C1521.05,-53.7206 1633.68,-40.6263 1738.99,-19.9885"/>
<polygon fill="midnightblue" stroke="midnightblue" points="1739.7,-23.4152 1748.83,-18.0336 1738.34,-16.5494 1739.7,-23.4152"/>
</g>
<!-- Node26 -->
<g id="node26" class="node"><title>Node26</title>
<polygon fill="none" stroke="#bfbfbf" points="1817.5,-0.5 1817.5,-19.5 1862.5,-19.5 1862.5,-0.5 1817.5,-0.5"/>
<text text-anchor="middle" x="1840" y="-7.5" font-family="Helvetica,sans-Serif" font-size="10.00">iosfwd</text>
</g>
<!-- Node7&#45;&gt;Node26 -->
<g id="edge26" class="edge"><title>Node7&#45;&gt;Node26</title>
<path fill="none" stroke="midnightblue" d="M1458.22,-62.0222C1532.09,-56.9901 1676.07,-45.002 1807.54,-19.7691"/>
<polygon fill="midnightblue" stroke="midnightblue" points="1808.24,-23.1986 1817.38,-17.8497 1806.9,-16.328 1808.24,-23.1986"/>
</g>
<!-- Node27 -->
<g id="node27" class="node"><title>Node27</title>
<polygon fill="none" stroke="#bfbfbf" points="1881,-0.5 1881,-19.5 1933,-19.5 1933,-0.5 1881,-0.5"/>
<text text-anchor="middle" x="1907" y="-7.5" font-family="Helvetica,sans-Serif" font-size="10.00">sstream</text>
</g>
<!-- Node7&#45;&gt;Node27 -->
<g id="edge27" class="edge"><title>Node7&#45;&gt;Node27</title>
<path fill="none" stroke="midnightblue" d="M1458.34,-62.7167C1541.51,-58.3206 1715.01,-46.8027 1870.51,-20.0094"/>
<polygon fill="midnightblue" stroke="midnightblue" points="1871.47,-23.3933 1880.72,-18.2224 1870.27,-16.498 1871.47,-23.3933"/>
</g>
<!-- Node28 -->
<g id="node28" class="node"><title>Node28</title>
<polygon fill="none" stroke="#bfbfbf" points="1951,-0.5 1951,-19.5 2019,-19.5 2019,-0.5 1951,-0.5"/>
<text text-anchor="middle" x="1985" y="-7.5" font-family="Helvetica,sans-Serif" font-size="10.00">sys/types.h</text>
</g>
<!-- Node7&#45;&gt;Node28 -->
<g id="edge28" class="edge"><title>Node7&#45;&gt;Node28</title>
<path fill="none" stroke="midnightblue" d="M1458.1,-62.8618C1550.62,-58.3971 1757.25,-46.3579 1940.7,-20.0195"/>
<polygon fill="midnightblue" stroke="midnightblue" points="1941.41,-23.4534 1950.8,-18.5512 1940.4,-16.5262 1941.41,-23.4534"/>
</g>
<!-- Node29 -->
<g id="node29" class="node"><title>Node29</title>
<polygon fill="none" stroke="#bfbfbf" points="2037,-0.5 2037,-19.5 2097,-19.5 2097,-0.5 2037,-0.5"/>
<text text-anchor="middle" x="2067" y="-7.5" font-family="Helvetica,sans-Serif" font-size="10.00">sys/stat.h</text>
</g>
<!-- Node7&#45;&gt;Node29 -->
<g id="edge29" class="edge"><title>Node7&#45;&gt;Node29</title>
<path fill="none" stroke="midnightblue" d="M1458.23,-63.9958C1561.82,-61.3282 1809.92,-52.0223 2026.87,-19.936"/>
<polygon fill="midnightblue" stroke="midnightblue" points="2027.48,-23.3838 2036.85,-18.4404 2026.45,-16.461 2027.48,-23.3838"/>
</g>
<!-- Node30 -->
<g id="node30" class="node"><title>Node30</title>
<polygon fill="none" stroke="#bfbfbf" points="2115.5,-0.5 2115.5,-19.5 2166.5,-19.5 2166.5,-0.5 2115.5,-0.5"/>
<text text-anchor="middle" x="2141" y="-7.5" font-family="Helvetica,sans-Serif" font-size="10.00">unistd.h</text>
</g>
<!-- Node7&#45;&gt;Node30 -->
<g id="edge30" class="edge"><title>Node7&#45;&gt;Node30</title>
<path fill="none" stroke="midnightblue" d="M1458.36,-64.9743C1571.39,-64.2377 1857.63,-58.5226 2105.22,-19.8002"/>
<polygon fill="midnightblue" stroke="midnightblue" points="2105.79,-23.2531 2115.12,-18.2305 2104.7,-16.3395 2105.79,-23.2531"/>
</g>
<!-- Node31 -->
<g id="node31" class="node"><title>Node31</title>
<polygon fill="none" stroke="#bfbfbf" points="2185,-0.5 2185,-19.5 2231,-19.5 2231,-0.5 2185,-0.5"/>
<text text-anchor="middle" x="2208" y="-7.5" font-family="Helvetica,sans-Serif" font-size="10.00">dlfcn.h</text>
</g>
<!-- Node7&#45;&gt;Node31 -->
<g id="edge31" class="edge"><title>Node7&#45;&gt;Node31</title>
<path fill="none" stroke="midnightblue" d="M1458.32,-65.7667C1579.24,-66.8658 1900.02,-65.0569 2174.56,-19.8709"/>
<polygon fill="midnightblue" stroke="midnightblue" points="2175.43,-23.2744 2184.71,-18.1758 2174.27,-16.3699 2175.43,-23.2744"/>
</g>
<!-- Node32 -->
<g id="node32" class="node"><title>Node32</title>
<polygon fill="none" stroke="#bfbfbf" points="2249,-0.5 2249,-19.5 2327,-19.5 2327,-0.5 2249,-0.5"/>
<text text-anchor="middle" x="2288" y="-7.5" font-family="Helvetica,sans-Serif" font-size="10.00">ext/hash_map</text>
</g>
<!-- Node7&#45;&gt;Node32 -->
<g id="edge32" class="edge"><title>Node7&#45;&gt;Node32</title>
<path fill="none" stroke="midnightblue" d="M1458.37,-64.5832C1585.9,-63.0242 1936.85,-55.6732 2238.51,-20.0152"/>
<polygon fill="midnightblue" stroke="midnightblue" points="2239.26,-23.4511 2248.77,-18.7891 2238.43,-16.5005 2239.26,-23.4511"/>
</g>
<!-- Node33 -->
<g id="node33" class="node"><title>Node33</title>
<polygon fill="none" stroke="#bfbfbf" points="610.5,-0.5 610.5,-19.5 683.5,-19.5 683.5,-0.5 610.5,-0.5"/>
<text text-anchor="middle" x="647" y="-7.5" font-family="Helvetica,sans-Serif" font-size="10.00">ext/hash_set</text>
</g>
<!-- Node7&#45;&gt;Node33 -->
<g id="edge33" class="edge"><title>Node7&#45;&gt;Node33</title>
<path fill="none" stroke="midnightblue" d="M1359.7,-60.0388C1344.71,-58.6221 1328.19,-57.1519 1313,-56 1040.69,-35.3492 967.981,-54.7104 694.018,-20.0961"/>
<polygon fill="midnightblue" stroke="midnightblue" points="694.131,-16.5822 683.768,-18.7879 693.244,-23.5259 694.131,-16.5822"/>
</g>
<!-- Node35 -->
<g id="node35" class="node"><title>Node35</title>
<g id="a_node35"><a xlink:href="_ogre_header_prefix_8h.html" target="_top" xlink:title="OgreHeaderPrefix.h">
<polygon fill="none" stroke="black" points="232.5,-0.5 232.5,-19.5 335.5,-19.5 335.5,-0.5 232.5,-0.5"/>
<text text-anchor="middle" x="284" y="-7.5" font-family="Helvetica,sans-Serif" font-size="10.00">OgreHeaderPrefix.h</text>
</a>
</g>
</g>
<!-- Node34&#45;&gt;Node35 -->
<g id="edge35" class="edge"><title>Node34&#45;&gt;Node35</title>
<path fill="none" stroke="midnightblue" d="M441.369,-56.4435C409.5,-47.2406 358.667,-32.5617 323.436,-22.3879"/>
<polygon fill="midnightblue" stroke="midnightblue" points="324.071,-18.9282 313.492,-19.5164 322.128,-25.6534 324.071,-18.9282"/>
</g>
<!-- Node36 -->
<g id="node36" class="node"><title>Node36</title>
<g id="a_node36"><a xlink:href="_ogre_header_suffix_8h.html" target="_top" xlink:title="OgreHeaderSuffix.h">
<polygon fill="none" stroke="black" points="489.5,-0.5 489.5,-19.5 592.5,-19.5 592.5,-0.5 489.5,-0.5"/>
<text text-anchor="middle" x="541" y="-7.5" font-family="Helvetica,sans-Serif" font-size="10.00">OgreHeaderSuffix.h</text>
</a>
</g>
</g>
<!-- Node34&#45;&gt;Node36 -->
<g id="edge36" class="edge"><title>Node34&#45;&gt;Node36</title>
<path fill="none" stroke="midnightblue" d="M482.247,-56.324C492.797,-48.1849 508.801,-35.8395 521.442,-26.0874"/>
<polygon fill="midnightblue" stroke="midnightblue" points="523.769,-28.7132 529.549,-19.8339 519.493,-23.1707 523.769,-28.7132"/>
</g>
<!-- Node37&#45;&gt;Node35 -->
<g id="edge38" class="edge"><title>Node37&#45;&gt;Node35</title>
<path fill="none" stroke="midnightblue" d="M638.649,-59.1183C567.839,-49.5108 427.125,-30.419 345.847,-19.3913"/>
<polygon fill="midnightblue" stroke="midnightblue" points="346.135,-15.8983 335.755,-18.022 345.193,-22.8348 346.135,-15.8983"/>
</g>
<!-- Node37&#45;&gt;Node36 -->
<g id="edge39" class="edge"><title>Node37&#45;&gt;Node36</title>
<path fill="none" stroke="midnightblue" d="M659.658,-56.4435C636.247,-47.4776 599.264,-33.314 572.81,-23.1827"/>
<polygon fill="midnightblue" stroke="midnightblue" points="573.828,-19.8245 563.237,-19.5164 571.324,-26.3615 573.828,-19.8245"/>
</g>
<!-- Node38&#45;&gt;Node3 -->
<g id="edge41" class="edge"><title>Node38&#45;&gt;Node3</title>
<path fill="none" stroke="midnightblue" d="M1233,-392.442C1233,-373.936 1233,-328.812 1233,-291 1233,-291 1233,-291 1233,-233 1233,-184.425 1088.96,-149.683 1003.91,-133.402"/>
<polygon fill="midnightblue" stroke="midnightblue" points="1004.32,-129.917 993.846,-131.508 1003.03,-136.796 1004.32,-129.917"/>
</g>
<!-- Node39 -->
<g id="node39" class="node"><title>Node39</title>
<g id="a_node39"><a xlink:href="_ogre_shared_ptr_8h.html" target="_top" xlink:title="OgreSharedPtr.h">
<polygon fill="none" stroke="black" points="1086.5,-336.5 1086.5,-355.5 1175.5,-355.5 1175.5,-336.5 1086.5,-336.5"/>
<text text-anchor="middle" x="1131" y="-343.5" font-family="Helvetica,sans-Serif" font-size="10.00">OgreSharedPtr.h</text>
</a>
</g>
</g>
<!-- Node38&#45;&gt;Node39 -->
<g id="edge42" class="edge"><title>Node38&#45;&gt;Node39</title>
<path fill="none" stroke="midnightblue" d="M1216.61,-392.324C1200.33,-383.703 1175.13,-370.364 1156.28,-360.386"/>
<polygon fill="midnightblue" stroke="midnightblue" points="1157.82,-357.24 1147.35,-355.655 1154.55,-363.427 1157.82,-357.24"/>
</g>
<!-- Node42 -->
<g id="node42" class="node"><title>Node42</title>
<g id="a_node42"><a xlink:href="_ogre_string_8h.html" target="_top" xlink:title="OgreString.h">
<polygon fill="none" stroke="black" points="1413.5,-168.5 1413.5,-187.5 1484.5,-187.5 1484.5,-168.5 1413.5,-168.5"/>
<text text-anchor="middle" x="1449" y="-175.5" font-family="Helvetica,sans-Serif" font-size="10.00">OgreString.h</text>
</a>
</g>
</g>
<!-- Node38&#45;&gt;Node42 -->
<g id="edge55" class="edge"><title>Node38&#45;&gt;Node42</title>
<path fill="none" stroke="midnightblue" d="M1241.47,-392.297C1273.92,-358.94 1390.7,-238.923 1433.3,-195.135"/>
<polygon fill="midnightblue" stroke="midnightblue" points="1435.89,-197.492 1440.36,-187.884 1430.87,-192.61 1435.89,-197.492"/>
</g>
<!-- Node39&#45;&gt;Node3 -->
<g id="edge43" class="edge"><title>Node39&#45;&gt;Node3</title>
<path fill="none" stroke="midnightblue" d="M1139.75,-336.286C1147.56,-327.84 1158.45,-314.246 1163,-300 1165.7,-291.532 1163.71,-288.861 1163,-280 1158.57,-224.523 1153.85,-198.041 1107,-168 1088.4,-156.074 1035.5,-142.713 994.757,-133.67"/>
<polygon fill="midnightblue" stroke="midnightblue" points="995.471,-130.243 984.954,-131.525 993.974,-137.082 995.471,-130.243"/>
</g>
<!-- Node40 -->
<g id="node40" class="node"><title>Node40</title>
<g id="a_node40"><a xlink:href="_ogre_atomic_scalar_8h.html" target="_top" xlink:title="OgreAtomicScalar.h">
<polygon fill="none" stroke="red" points="1050,-280.5 1050,-299.5 1154,-299.5 1154,-280.5 1050,-280.5"/>
<text text-anchor="middle" x="1102" y="-287.5" font-family="Helvetica,sans-Serif" font-size="10.00">OgreAtomicScalar.h</text>
</a>
</g>
</g>
<!-- Node39&#45;&gt;Node40 -->
<g id="edge44" class="edge"><title>Node39&#45;&gt;Node40</title>
<path fill="none" stroke="midnightblue" d="M1126.21,-336.083C1122.24,-328.691 1116.47,-317.953 1111.57,-308.811"/>
<polygon fill="midnightblue" stroke="midnightblue" points="1114.51,-306.905 1106.7,-299.751 1108.35,-310.217 1114.51,-306.905"/>
</g>
<!-- Node40&#45;&gt;Node3 -->
<g id="edge45" class="edge"><title>Node40&#45;&gt;Node3</title>
<path fill="none" stroke="midnightblue" d="M1112.83,-280.461C1127.37,-267.914 1150.07,-243.838 1138,-224 1107.27,-173.472 1042.18,-147.095 995.662,-134.152"/>
<polygon fill="midnightblue" stroke="midnightblue" points="996.305,-130.702 985.742,-131.516 994.507,-137.467 996.305,-130.702"/>
</g>
<!-- Node41 -->
<g id="node41" class="node"><title>Node41</title>
<g id="a_node41"><a xlink:href="_ogre_exception_8h.html" target="_top" xlink:title="OgreException.h">
<polygon fill="none" stroke="red" points="825.5,-224.5 825.5,-243.5 914.5,-243.5 914.5,-224.5 825.5,-224.5"/>
<text text-anchor="middle" x="870" y="-231.5" font-family="Helvetica,sans-Serif" font-size="10.00">OgreException.h</text>
</a>
</g>
</g>
<!-- Node40&#45;&gt;Node41 -->
<g id="edge46" class="edge"><title>Node40&#45;&gt;Node41</title>
<path fill="none" stroke="midnightblue" d="M1065.24,-280.444C1024.94,-271.063 960.191,-255.993 916.415,-245.804"/>
<polygon fill="midnightblue" stroke="midnightblue" points="917.122,-242.375 906.589,-243.516 915.535,-249.192 917.122,-242.375"/>
</g>
<!-- Node43 -->
<g id="node43" class="node"><title>Node43</title>
<g id="a_node43"><a xlink:href="_ogre_thread_headers_8h.html" target="_top" xlink:title="Threading/OgreThreadHeaders.h">
<polygon fill="none" stroke="red" points="971,-224.5 971,-243.5 1129,-243.5 1129,-224.5 971,-224.5"/>
<text text-anchor="middle" x="1050" y="-231.5" font-family="Helvetica,sans-Serif" font-size="10.00">Threading/OgreThreadHeaders.h</text>
</a>
</g>
</g>
<!-- Node40&#45;&gt;Node43 -->
<g id="edge54" class="edge"><title>Node40&#45;&gt;Node43</title>
<path fill="none" stroke="midnightblue" d="M1093.41,-280.083C1085.84,-272.22 1074.62,-260.569 1065.49,-251.081"/>
<polygon fill="midnightblue" stroke="midnightblue" points="1067.88,-248.527 1058.43,-243.751 1062.84,-253.382 1067.88,-248.527"/>
</g>
<!-- Node41&#45;&gt;Node3 -->
<g id="edge47" class="edge"><title>Node41&#45;&gt;Node3</title>
<path fill="none" stroke="midnightblue" d="M875.728,-224.368C887.775,-206.215 915.923,-163.802 931.725,-139.99"/>
<polygon fill="midnightblue" stroke="midnightblue" points="934.685,-141.859 937.298,-131.591 928.853,-137.988 934.685,-141.859"/>
</g>
<!-- Node41&#45;&gt;Node35 -->
<g id="edge52" class="edge"><title>Node41&#45;&gt;Node35</title>
<path fill="none" stroke="midnightblue" d="M825.441,-229.845C800.102,-228.074 767.778,-225.855 739,-224 672.573,-219.719 195.152,-226.709 141,-188 90.4582,-151.871 56.4919,-104.753 95,-56 110.712,-36.1075 173.129,-24.0613 221.989,-17.5053"/>
<polygon fill="midnightblue" stroke="midnightblue" points="222.719,-20.9403 232.188,-16.1888 221.822,-13.9979 222.719,-20.9403"/>
</g>
<!-- Node41&#45;&gt;Node36 -->
<g id="edge53" class="edge"><title>Node41&#45;&gt;Node36</title>
<path fill="none" stroke="midnightblue" d="M869.696,-224.298C868.179,-195.262 859.109,-101.009 805,-56 801.098,-52.7543 679.635,-32.991 602.84,-20.7594"/>
<polygon fill="midnightblue" stroke="midnightblue" points="603.207,-17.2738 592.782,-19.1596 602.108,-24.1869 603.207,-17.2738"/>
</g>
<!-- Node41&#45;&gt;Node42 -->
<g id="edge48" class="edge"><title>Node41&#45;&gt;Node42</title>
<path fill="none" stroke="midnightblue" d="M914.908,-228.459C929.881,-226.985 946.655,-225.375 962,-224 1155.05,-206.697 1207.1,-215.082 1403.15,-187.954"/>
<polygon fill="midnightblue" stroke="midnightblue" points="1403.78,-191.399 1413.2,-186.549 1402.81,-184.467 1403.78,-191.399"/>
</g>
<!-- Node42&#45;&gt;Node3 -->
<g id="edge49" class="edge"><title>Node42&#45;&gt;Node3</title>
<path fill="none" stroke="midnightblue" d="M1413.2,-169.482C1410.09,-168.939 1407,-168.435 1404,-168 1229.54,-142.678 1184.15,-151.914 1009,-132 1007.71,-131.853 1006.4,-131.702 1005.08,-131.546"/>
<polygon fill="midnightblue" stroke="midnightblue" points="1005.2,-128.035 994.853,-130.293 1004.35,-134.983 1005.2,-128.035"/>
</g>
<!-- Node42&#45;&gt;Node35 -->
<g id="edge50" class="edge"><title>Node42&#45;&gt;Node35</title>
<path fill="none" stroke="midnightblue" d="M1413.18,-169.621C1410.08,-169.048 1406.99,-168.499 1404,-168 1285.46,-148.205 1254.98,-148.936 1136,-132 1076.82,-123.576 1062.33,-119.318 1003,-112 837.705,-91.6096 793.953,-105.288 630,-76 595.616,-69.8579 588.151,-63.3233 554,-56 482.918,-40.7575 400.374,-27.6629 345.45,-19.592"/>
<polygon fill="midnightblue" stroke="midnightblue" points="345.925,-16.1244 335.525,-18.1441 344.915,-23.0511 345.925,-16.1244"/>
</g>
<!-- Node42&#45;&gt;Node36 -->
<g id="edge51" class="edge"><title>Node42&#45;&gt;Node36</title>
<path fill="none" stroke="midnightblue" d="M1413.26,-169.22C1319.82,-149.023 1060.47,-93.8596 843,-56 739.011,-37.8962 710.215,-36.1554 602.667,-20.2411"/>
<polygon fill="midnightblue" stroke="midnightblue" points="603.116,-16.7694 592.71,-18.7606 602.086,-23.6933 603.116,-16.7694"/>
</g>
<!-- Node44&#45;&gt;Node3 -->
<g id="edge57" class="edge"><title>Node44&#45;&gt;Node3</title>
<path fill="none" stroke="midnightblue" d="M812.22,-392.462C866.563,-380.354 943,-352.409 943,-291 943,-291 943,-291 943,-233 943,-200.948 943,-163.643 943,-141.749"/>
<polygon fill="midnightblue" stroke="midnightblue" points="946.5,-141.558 943,-131.558 939.5,-141.558 946.5,-141.558"/>
</g>
<!-- Node44&#45;&gt;Node35 -->
<g id="edge78" class="edge"><title>Node44&#45;&gt;Node35</title>
<path fill="none" stroke="midnightblue" d="M691.977,-398.288C506.493,-389.897 0,-360.611 0,-291 0,-291 0,-291 0,-121 0,-80.458 28.3717,-75.3463 64,-56 113.051,-29.3651 176.048,-18.4472 222.05,-13.9971"/>
<polygon fill="midnightblue" stroke="midnightblue" points="222.532,-17.468 232.182,-13.0944 221.911,-10.4957 222.532,-17.468"/>
</g>
<!-- Node44&#45;&gt;Node36 -->
<g id="edge79" class="edge"><title>Node44&#45;&gt;Node36</title>
<path fill="none" stroke="midnightblue" d="M751.761,-392.184C733.597,-369.422 686.379,-306.107 670,-244 647.492,-158.654 788.871,-125.136 734,-56 725.636,-45.4615 655.439,-31.0012 602.094,-21.346"/>
<polygon fill="midnightblue" stroke="midnightblue" points="602.471,-17.858 592.01,-19.5415 601.237,-24.7485 602.471,-17.858"/>
</g>
<!-- Node44&#45;&gt;Node39 -->
<g id="edge58" class="edge"><title>Node44&#45;&gt;Node39</title>
<path fill="none" stroke="midnightblue" d="M817.945,-392.444C888.876,-382.147 1007.03,-364.996 1076.11,-354.969"/>
<polygon fill="midnightblue" stroke="midnightblue" points="1076.95,-358.383 1086.34,-353.483 1075.94,-351.456 1076.95,-358.383"/>
</g>
<!-- Node44&#45;&gt;Node43 -->
<g id="edge77" class="edge"><title>Node44&#45;&gt;Node43</title>
<path fill="none" stroke="midnightblue" d="M826.24,-397.158C866.784,-392.185 917.96,-380.995 957,-356 997.759,-329.904 1027.7,-279.445 1041.51,-252.676"/>
<polygon fill="midnightblue" stroke="midnightblue" points="1044.67,-254.187 1046,-243.676 1038.41,-251.061 1044.67,-254.187"/>
</g>
<!-- Node45 -->
<g id="node45" class="node"><title>Node45</title>
<g id="a_node45"><a xlink:href="_ogre_iterator_wrappers_8h.html" target="_top" xlink:title="OgreIteratorWrappers.h">
<polygon fill="none" stroke="black" points="150.5,-168.5 150.5,-187.5 269.5,-187.5 269.5,-168.5 150.5,-168.5"/>
<text text-anchor="middle" x="210" y="-175.5" font-family="Helvetica,sans-Serif" font-size="10.00">OgreIteratorWrappers.h</text>
</a>
</g>
</g>
<!-- Node44&#45;&gt;Node45 -->
<g id="edge59" class="edge"><title>Node44&#45;&gt;Node45</title>
<path fill="none" stroke="midnightblue" d="M730.19,-392.447C702.087,-383.907 658.25,-370.061 621,-356 474.088,-300.545 302.953,-222.32 237.428,-191.85"/>
<polygon fill="midnightblue" stroke="midnightblue" points="238.732,-188.597 228.189,-187.545 235.775,-194.941 238.732,-188.597"/>
</g>
<!-- Node48 -->
<g id="node48" class="node"><title>Node48</title>
<g id="a_node48"><a xlink:href="_ogre_serializer_8h.html" target="_top" xlink:title="OgreSerializer.h">
<polygon fill="none" stroke="black" points="569,-168.5 569,-187.5 655,-187.5 655,-168.5 569,-168.5"/>
<text text-anchor="middle" x="612" y="-175.5" font-family="Helvetica,sans-Serif" font-size="10.00">OgreSerializer.h</text>
</a>
</g>
</g>
<!-- Node44&#45;&gt;Node48 -->
<g id="edge67" class="edge"><title>Node44&#45;&gt;Node48</title>
<path fill="none" stroke="midnightblue" d="M699.802,-392.471C676.862,-386.152 652.451,-375.151 637,-356 599.534,-309.561 604.243,-233.039 608.91,-197.815"/>
<polygon fill="midnightblue" stroke="midnightblue" points="612.427,-197.961 610.431,-187.556 605.502,-196.935 612.427,-197.961"/>
</g>
<!-- Node49 -->
<g id="node49" class="node"><title>Node49</title>
<g id="a_node49"><a xlink:href="_ogre_any_8h.html" target="_top" xlink:title="OgreAny.h">
<polygon fill="none" stroke="black" points="727.5,-280.5 727.5,-299.5 790.5,-299.5 790.5,-280.5 727.5,-280.5"/>
<text text-anchor="middle" x="759" y="-287.5" font-family="Helvetica,sans-Serif" font-size="10.00">OgreAny.h</text>
</a>
</g>
</g>
<!-- Node44&#45;&gt;Node49 -->
<g id="edge71" class="edge"><title>Node44&#45;&gt;Node49</title>
<path fill="none" stroke="midnightblue" d="M759,-392.368C759,-374.617 759,-333.666 759,-309.597"/>
<polygon fill="midnightblue" stroke="midnightblue" points="762.5,-309.591 759,-299.591 755.5,-309.591 762.5,-309.591"/>
</g>
<!-- Node45&#45;&gt;Node3 -->
<g id="edge60" class="edge"><title>Node45&#45;&gt;Node3</title>
<path fill="none" stroke="midnightblue" d="M269.674,-172.604C406.552,-162.52 741.994,-137.808 881.047,-127.564"/>
<polygon fill="midnightblue" stroke="midnightblue" points="881.396,-131.048 891.112,-126.823 880.882,-124.067 881.396,-131.048"/>
</g>
<!-- Node46 -->
<g id="node46" class="node"><title>Node46</title>
<g id="a_node46"><a xlink:href="_ogre_iterator_wrapper_8h.html" target="_top" xlink:title="OgreIteratorWrapper.h">
<polygon fill="none" stroke="black" points="227.5,-56.5 227.5,-75.5 340.5,-75.5 340.5,-56.5 227.5,-56.5"/>
<text text-anchor="middle" x="284" y="-63.5" font-family="Helvetica,sans-Serif" font-size="10.00">OgreIteratorWrapper.h</text>
</a>
</g>
</g>
<!-- Node45&#45;&gt;Node46 -->
<g id="edge61" class="edge"><title>Node45&#45;&gt;Node46</title>
<path fill="none" stroke="midnightblue" d="M215.807,-168.368C228.019,-150.215 256.552,-107.802 272.57,-83.9902"/>
<polygon fill="midnightblue" stroke="midnightblue" points="275.543,-85.8423 278.22,-75.5914 269.734,-81.935 275.543,-85.8423"/>
</g>
<!-- Node47 -->
<g id="node47" class="node"><title>Node47</title>
<g id="a_node47"><a xlink:href="_ogre_iterator_range_8h.html" target="_top" xlink:title="OgreIteratorRange.h">
<polygon fill="none" stroke="black" points="104.5,-56.5 104.5,-75.5 209.5,-75.5 209.5,-56.5 104.5,-56.5"/>
<text text-anchor="middle" x="157" y="-63.5" font-family="Helvetica,sans-Serif" font-size="10.00">OgreIteratorRange.h</text>
</a>
</g>
</g>
<!-- Node45&#45;&gt;Node47 -->
<g id="edge64" class="edge"><title>Node45&#45;&gt;Node47</title>
<path fill="none" stroke="midnightblue" d="M205.841,-168.368C197.172,-150.376 177.02,-108.55 165.493,-84.6267"/>
<polygon fill="midnightblue" stroke="midnightblue" points="168.633,-83.081 161.14,-75.5914 162.327,-86.1195 168.633,-83.081"/>
</g>
<!-- Node46&#45;&gt;Node35 -->
<g id="edge62" class="edge"><title>Node46&#45;&gt;Node35</title>
<path fill="none" stroke="midnightblue" d="M284,-56.083C284,-49.0059 284,-38.8611 284,-29.9865"/>
<polygon fill="midnightblue" stroke="midnightblue" points="287.5,-29.751 284,-19.7511 280.5,-29.7511 287.5,-29.751"/>
</g>
<!-- Node46&#45;&gt;Node36 -->
<g id="edge63" class="edge"><title>Node46&#45;&gt;Node36</title>
<path fill="none" stroke="midnightblue" d="M324.722,-56.4435C369.649,-47.0036 441.998,-31.802 490.499,-21.6111"/>
<polygon fill="midnightblue" stroke="midnightblue" points="491.402,-24.998 500.468,-19.5164 489.962,-18.1476 491.402,-24.998"/>
</g>
<!-- Node47&#45;&gt;Node35 -->
<g id="edge65" class="edge"><title>Node47&#45;&gt;Node35</title>
<path fill="none" stroke="midnightblue" d="M177.124,-56.4435C198.024,-47.5566 230.935,-33.5632 254.716,-23.4514"/>
<polygon fill="midnightblue" stroke="midnightblue" points="256.138,-26.6504 263.971,-19.5164 253.398,-20.2085 256.138,-26.6504"/>
</g>
<!-- Node47&#45;&gt;Node36 -->
<g id="edge66" class="edge"><title>Node47&#45;&gt;Node36</title>
<path fill="none" stroke="midnightblue" d="M209.569,-57.2165C212.42,-56.8029 215.245,-56.3952 218,-56 308.836,-42.9716 414.124,-28.4024 479.153,-19.4657"/>
<polygon fill="midnightblue" stroke="midnightblue" points="479.805,-22.9091 489.236,-18.0809 478.853,-15.9742 479.805,-22.9091"/>
</g>
<!-- Node48&#45;&gt;Node3 -->
<g id="edge68" class="edge"><title>Node48&#45;&gt;Node3</title>
<path fill="none" stroke="midnightblue" d="M655.272,-169.94C712.909,-160.538 815.23,-143.845 881.042,-133.108"/>
<polygon fill="midnightblue" stroke="midnightblue" points="881.972,-136.503 891.278,-131.438 880.845,-129.594 881.972,-136.503"/>
</g>
<!-- Node48&#45;&gt;Node35 -->
<g id="edge69" class="edge"><title>Node48&#45;&gt;Node35</title>
<path fill="none" stroke="midnightblue" d="M590.542,-168.461C550.113,-152.126 460.226,-114.626 388,-76 358.233,-60.0808 325.449,-38.9499 304.8,-25.1677"/>
<polygon fill="midnightblue" stroke="midnightblue" points="306.731,-22.2486 296.48,-19.5727 302.825,-28.0574 306.731,-22.2486"/>
</g>
<!-- Node48&#45;&gt;Node36 -->
<g id="edge70" class="edge"><title>Node48&#45;&gt;Node36</title>
<path fill="none" stroke="midnightblue" d="M608.183,-168.075C596.958,-141.832 563.902,-64.5453 548.749,-29.1165"/>
<polygon fill="midnightblue" stroke="midnightblue" points="551.815,-27.386 544.665,-19.5681 545.379,-30.1388 551.815,-27.386"/>
</g>
<!-- Node49&#45;&gt;Node3 -->
<g id="edge72" class="edge"><title>Node49&#45;&gt;Node3</title>
<path fill="none" stroke="midnightblue" d="M765.917,-280.143C776.208,-267.202 796.443,-242.639 816,-224 851.207,-190.446 896.688,-156.214 922.573,-137.479"/>
<polygon fill="midnightblue" stroke="midnightblue" points="924.782,-140.201 930.862,-131.525 920.698,-134.516 924.782,-140.201"/>
</g>
<!-- Node49&#45;&gt;Node35 -->
<g id="edge75" class="edge"><title>Node49&#45;&gt;Node35</title>
<path fill="none" stroke="midnightblue" d="M727.454,-287.399C612.584,-281.068 217.937,-254.786 114,-188 63.0332,-155.251 40.8056,-102.194 80,-56 98.186,-34.566 169.143,-22.5901 222.297,-16.477"/>
<polygon fill="midnightblue" stroke="midnightblue" points="222.778,-19.9452 232.333,-15.3671 222.009,-12.9876 222.778,-19.9452"/>
</g>
<!-- Node49&#45;&gt;Node36 -->
<g id="edge76" class="edge"><title>Node49&#45;&gt;Node36</title>
<path fill="none" stroke="midnightblue" d="M762.977,-280.1C777.398,-246.324 823.226,-124.526 767,-56 761.716,-49.5598 667.608,-32.4458 602.515,-21.2768"/>
<polygon fill="midnightblue" stroke="midnightblue" points="602.782,-17.7718 592.336,-19.5378 601.603,-24.6718 602.782,-17.7718"/>
</g>
<!-- Node49&#45;&gt;Node41 -->
<g id="edge73" class="edge"><title>Node49&#45;&gt;Node41</title>
<path fill="none" stroke="midnightblue" d="M776.834,-280.324C794.716,-271.625 822.475,-258.12 843.046,-248.113"/>
<polygon fill="midnightblue" stroke="midnightblue" points="844.749,-251.177 852.21,-243.655 841.687,-244.882 844.749,-251.177"/>
</g>
<!-- Node50 -->
<g id="node50" class="node"><title>Node50</title>
<polygon fill="none" stroke="#bfbfbf" points="679.5,-224.5 679.5,-243.5 730.5,-243.5 730.5,-224.5 679.5,-224.5"/>
<text text-anchor="middle" x="705" y="-231.5" font-family="Helvetica,sans-Serif" font-size="10.00">typeinfo</text>
</g>
<!-- Node49&#45;&gt;Node50 -->
<g id="edge74" class="edge"><title>Node49&#45;&gt;Node50</title>
<path fill="none" stroke="midnightblue" d="M750.083,-280.083C742.22,-272.22 730.569,-260.569 721.081,-251.081"/>
<polygon fill="midnightblue" stroke="midnightblue" points="723.297,-248.347 713.751,-243.751 718.347,-253.297 723.297,-248.347"/>
</g>
</g>
</svg>
