<?xml version="1.0" encoding="UTF-8" standalone="no"?>
<!DOCTYPE svg PUBLIC "-//W3C//DTD SVG 1.1//EN"
 "http://www.w3.org/Graphics/SVG/1.1/DTD/svg11.dtd">
<!-- Generated by graphviz version 2.38.0 (20140413.2041)
 -->
<!-- Title: OgreParticleIterator.h Pages: 1 -->
<svg width="2876pt" height="252pt"
 viewBox="0.00 0.00 2876.14 252.00" xmlns="http://www.w3.org/2000/svg" xmlns:xlink="http://www.w3.org/1999/xlink">
<g id="graph0" class="graph" transform="scale(1 1) rotate(0) translate(4 248)">
<title>OgreParticleIterator.h</title>
<!-- Node1 -->
<g id="node1" class="node"><title>Node1</title>
<polygon fill="#bfbfbf" stroke="black" points="2301.64,-224.5 2301.64,-243.5 2411.64,-243.5 2411.64,-224.5 2301.64,-224.5"/>
<text text-anchor="middle" x="2356.64" y="-231.5" font-family="Helvetica,sans-Serif" font-size="10.00">OgreParticleIterator.h</text>
</g>
<!-- Node2 -->
<g id="node2" class="node"><title>Node2</title>
<g id="a_node2"><a xlink:href="_ogre_prerequisites_8h.html" target="_top" xlink:title="OgrePrerequisites.h">
<polygon fill="none" stroke="black" points="2305.14,-168.5 2305.14,-187.5 2408.14,-187.5 2408.14,-168.5 2305.14,-168.5"/>
<text text-anchor="middle" x="2356.64" y="-175.5" font-family="Helvetica,sans-Serif" font-size="10.00">OgrePrerequisites.h</text>
</a>
</g>
</g>
<!-- Node1&#45;&gt;Node2 -->
<g id="edge1" class="edge"><title>Node1&#45;&gt;Node2</title>
<path fill="none" stroke="midnightblue" d="M2356.64,-224.083C2356.64,-217.006 2356.64,-206.861 2356.64,-197.986"/>
<polygon fill="midnightblue" stroke="midnightblue" points="2360.14,-197.751 2356.64,-187.751 2353.14,-197.751 2360.14,-197.751"/>
</g>
<!-- Node39 -->
<g id="node39" class="node"><title>Node39</title>
<g id="a_node39"><a xlink:href="_ogre_header_prefix_8h.html" target="_top" xlink:title="OgreHeaderPrefix.h">
<polygon fill="none" stroke="black" points="2634.14,-0.5 2634.14,-19.5 2737.14,-19.5 2737.14,-0.5 2634.14,-0.5"/>
<text text-anchor="middle" x="2685.64" y="-7.5" font-family="Helvetica,sans-Serif" font-size="10.00">OgreHeaderPrefix.h</text>
</a>
</g>
</g>
<!-- Node1&#45;&gt;Node39 -->
<g id="edge51" class="edge"><title>Node1&#45;&gt;Node39</title>
<path fill="none" stroke="midnightblue" d="M2409.76,-224.496C2527.88,-204.391 2806.19,-149.999 2860.64,-76 2892.49,-32.7274 2809.71,-18.2413 2747.41,-13.4054"/>
<polygon fill="midnightblue" stroke="midnightblue" points="2747.44,-9.89884 2737.21,-12.6842 2746.94,-16.8814 2747.44,-9.89884"/>
</g>
<!-- Node40 -->
<g id="node40" class="node"><title>Node40</title>
<g id="a_node40"><a xlink:href="_ogre_header_suffix_8h.html" target="_top" xlink:title="OgreHeaderSuffix.h">
<polygon fill="none" stroke="black" points="2446.14,-0.5 2446.14,-19.5 2549.14,-19.5 2549.14,-0.5 2446.14,-0.5"/>
<text text-anchor="middle" x="2497.64" y="-7.5" font-family="Helvetica,sans-Serif" font-size="10.00">OgreHeaderSuffix.h</text>
</a>
</g>
</g>
<!-- Node1&#45;&gt;Node40 -->
<g id="edge52" class="edge"><title>Node1&#45;&gt;Node40</title>
<path fill="none" stroke="midnightblue" d="M2301.57,-233.082C1932.84,-233.17 -157.492,-226.187 9.64448,-56 53.4811,-11.3633 2056.14,-10.6637 2435.86,-10.9329"/>
<polygon fill="midnightblue" stroke="midnightblue" points="2436.09,-14.433 2446.1,-10.9407 2436.1,-7.43298 2436.09,-14.433"/>
</g>
<!-- Node3 -->
<g id="node3" class="node"><title>Node3</title>
<g id="a_node3"><a xlink:href="_ogre_platform_8h.html" target="_top" xlink:title="OgrePlatform.h">
<polygon fill="none" stroke="black" points="642.144,-112.5 642.144,-131.5 725.144,-131.5 725.144,-112.5 642.144,-112.5"/>
<text text-anchor="middle" x="683.644" y="-119.5" font-family="Helvetica,sans-Serif" font-size="10.00">OgrePlatform.h</text>
</a>
</g>
</g>
<!-- Node2&#45;&gt;Node3 -->
<g id="edge2" class="edge"><title>Node2&#45;&gt;Node3</title>
<path fill="none" stroke="midnightblue" d="M2304.74,-175.325C2055.72,-167.287 985.201,-132.733 735.745,-124.682"/>
<polygon fill="midnightblue" stroke="midnightblue" points="735.616,-121.176 725.509,-124.351 735.391,-128.172 735.616,-121.176"/>
</g>
<!-- Node6 -->
<g id="node6" class="node"><title>Node6</title>
<polygon fill="none" stroke="#bfbfbf" points="2261.14,-56.5 2261.14,-75.5 2302.14,-75.5 2302.14,-56.5 2261.14,-56.5"/>
<text text-anchor="middle" x="2281.64" y="-63.5" font-family="Helvetica,sans-Serif" font-size="10.00">string</text>
</g>
<!-- Node2&#45;&gt;Node6 -->
<g id="edge5" class="edge"><title>Node2&#45;&gt;Node6</title>
<path fill="none" stroke="midnightblue" d="M2350.76,-168.368C2338.38,-150.215 2309.46,-107.802 2293.23,-83.9902"/>
<polygon fill="midnightblue" stroke="midnightblue" points="2296.03,-81.882 2287.5,-75.5914 2290.24,-85.8254 2296.03,-81.882"/>
</g>
<!-- Node7 -->
<g id="node7" class="node"><title>Node7</title>
<g id="a_node7"><a xlink:href="_ogre_std_headers_8h.html" target="_top" xlink:title="OgreStdHeaders.h">
<polygon fill="none" stroke="black" points="1366.64,-112.5 1366.64,-131.5 1464.64,-131.5 1464.64,-112.5 1366.64,-112.5"/>
<text text-anchor="middle" x="1415.64" y="-119.5" font-family="Helvetica,sans-Serif" font-size="10.00">OgreStdHeaders.h</text>
</a>
</g>
</g>
<!-- Node2&#45;&gt;Node7 -->
<g id="edge6" class="edge"><title>Node2&#45;&gt;Node7</title>
<path fill="none" stroke="midnightblue" d="M2305.05,-174.039C2143.34,-164.76 1646.99,-136.276 1475.03,-126.408"/>
<polygon fill="midnightblue" stroke="midnightblue" points="1475.09,-122.905 1464.9,-125.827 1474.68,-129.894 1475.09,-122.905"/>
</g>
<!-- Node37 -->
<g id="node37" class="node"><title>Node37</title>
<g id="a_node37"><a xlink:href="_ogre_memory_allocator_config_8h.html" target="_top" xlink:title="This file configures Ogre&#39;s memory allocators. ">
<polygon fill="none" stroke="black" points="2469.64,-112.5 2469.64,-131.5 2617.64,-131.5 2617.64,-112.5 2469.64,-112.5"/>
<text text-anchor="middle" x="2543.64" y="-119.5" font-family="Helvetica,sans-Serif" font-size="10.00">OgreMemoryAllocatorConfig.h</text>
</a>
</g>
</g>
<!-- Node2&#45;&gt;Node37 -->
<g id="edge37" class="edge"><title>Node2&#45;&gt;Node37</title>
<path fill="none" stroke="midnightblue" d="M2386.28,-168.444C2418.14,-159.241 2468.98,-144.562 2504.21,-134.388"/>
<polygon fill="midnightblue" stroke="midnightblue" points="2505.52,-137.653 2514.15,-131.516 2503.57,-130.928 2505.52,-137.653"/>
</g>
<!-- Node4 -->
<g id="node4" class="node"><title>Node4</title>
<g id="a_node4"><a xlink:href="_ogre_config_8h.html" target="_top" xlink:title="OgreConfig.h">
<polygon fill="none" stroke="black" points="18.6445,-56.5 18.6445,-75.5 92.6445,-75.5 92.6445,-56.5 18.6445,-56.5"/>
<text text-anchor="middle" x="55.6445" y="-63.5" font-family="Helvetica,sans-Serif" font-size="10.00">OgreConfig.h</text>
</a>
</g>
</g>
<!-- Node3&#45;&gt;Node4 -->
<g id="edge3" class="edge"><title>Node3&#45;&gt;Node4</title>
<path fill="none" stroke="midnightblue" d="M641.831,-119.433C547.492,-115.541 310.775,-103.773 102.928,-76.0179"/>
<polygon fill="midnightblue" stroke="midnightblue" points="103.119,-72.512 92.74,-74.6413 102.181,-79.4489 103.119,-72.512"/>
</g>
<!-- Node5 -->
<g id="node5" class="node"><title>Node5</title>
<polygon fill="none" stroke="#bfbfbf" points="3.64448,-0.5 3.64448,-19.5 107.644,-19.5 107.644,-0.5 3.64448,-0.5"/>
<text text-anchor="middle" x="55.6445" y="-7.5" font-family="Helvetica,sans-Serif" font-size="10.00">OgreBuildSettings.h</text>
</g>
<!-- Node4&#45;&gt;Node5 -->
<g id="edge4" class="edge"><title>Node4&#45;&gt;Node5</title>
<path fill="none" stroke="midnightblue" d="M55.6445,-56.083C55.6445,-49.0059 55.6445,-38.8611 55.6445,-29.9865"/>
<polygon fill="midnightblue" stroke="midnightblue" points="59.1446,-29.751 55.6445,-19.7511 52.1446,-29.7511 59.1446,-29.751"/>
</g>
<!-- Node7&#45;&gt;Node6 -->
<g id="edge16" class="edge"><title>Node7&#45;&gt;Node6</title>
<path fill="none" stroke="midnightblue" d="M1464.75,-119.888C1616.96,-116.205 2080.3,-103.158 2251.28,-75.5203"/>
<polygon fill="midnightblue" stroke="midnightblue" points="2251.87,-78.9705 2261.14,-73.8513 2250.7,-72.0686 2251.87,-78.9705"/>
</g>
<!-- Node8 -->
<g id="node8" class="node"><title>Node8</title>
<polygon fill="none" stroke="#bfbfbf" points="1011.14,-56.5 1011.14,-75.5 1060.14,-75.5 1060.14,-56.5 1011.14,-56.5"/>
<text text-anchor="middle" x="1035.64" y="-63.5" font-family="Helvetica,sans-Serif" font-size="10.00">cassert</text>
</g>
<!-- Node7&#45;&gt;Node8 -->
<g id="edge7" class="edge"><title>Node7&#45;&gt;Node8</title>
<path fill="none" stroke="midnightblue" d="M1366.45,-116.766C1300.87,-110.649 1181.06,-97.8297 1070.41,-76.1383"/>
<polygon fill="midnightblue" stroke="midnightblue" points="1070.91,-72.6692 1060.42,-74.15 1069.55,-79.5346 1070.91,-72.6692"/>
</g>
<!-- Node9 -->
<g id="node9" class="node"><title>Node9</title>
<polygon fill="none" stroke="#bfbfbf" points="1078.14,-56.5 1078.14,-75.5 1121.14,-75.5 1121.14,-56.5 1078.14,-56.5"/>
<text text-anchor="middle" x="1099.64" y="-63.5" font-family="Helvetica,sans-Serif" font-size="10.00">cstdio</text>
</g>
<!-- Node7&#45;&gt;Node9 -->
<g id="edge8" class="edge"><title>Node7&#45;&gt;Node9</title>
<path fill="none" stroke="midnightblue" d="M1366.43,-115.314C1311.2,-108.478 1218.84,-95.6779 1131.03,-76.0749"/>
<polygon fill="midnightblue" stroke="midnightblue" points="1131.71,-72.6388 1121.18,-73.8416 1130.16,-79.4656 1131.71,-72.6388"/>
</g>
<!-- Node10 -->
<g id="node10" class="node"><title>Node10</title>
<polygon fill="none" stroke="#bfbfbf" points="1139.14,-56.5 1139.14,-75.5 1184.14,-75.5 1184.14,-56.5 1139.14,-56.5"/>
<text text-anchor="middle" x="1161.64" y="-63.5" font-family="Helvetica,sans-Serif" font-size="10.00">cstdlib</text>
</g>
<!-- Node7&#45;&gt;Node10 -->
<g id="edge9" class="edge"><title>Node7&#45;&gt;Node10</title>
<path fill="none" stroke="midnightblue" d="M1367.54,-112.492C1324.41,-104.597 1259.23,-92.0013 1194.27,-76.2555"/>
<polygon fill="midnightblue" stroke="midnightblue" points="1194.82,-72.7859 1184.27,-73.8058 1193.15,-79.5849 1194.82,-72.7859"/>
</g>
<!-- Node11 -->
<g id="node11" class="node"><title>Node11</title>
<polygon fill="none" stroke="#bfbfbf" points="1202.14,-56.5 1202.14,-75.5 1243.14,-75.5 1243.14,-56.5 1202.14,-56.5"/>
<text text-anchor="middle" x="1222.64" y="-63.5" font-family="Helvetica,sans-Serif" font-size="10.00">ctime</text>
</g>
<!-- Node7&#45;&gt;Node11 -->
<g id="edge10" class="edge"><title>Node7&#45;&gt;Node11</title>
<path fill="none" stroke="midnightblue" d="M1384.03,-112.495C1353.08,-104.118 1304.34,-90.7984 1252.91,-76.0305"/>
<polygon fill="midnightblue" stroke="midnightblue" points="1253.86,-72.6613 1243.28,-73.257 1251.92,-79.3879 1253.86,-72.6613"/>
</g>
<!-- Node12 -->
<g id="node12" class="node"><title>Node12</title>
<polygon fill="none" stroke="#bfbfbf" points="1261.64,-56.5 1261.64,-75.5 1307.64,-75.5 1307.64,-56.5 1261.64,-56.5"/>
<text text-anchor="middle" x="1284.64" y="-63.5" font-family="Helvetica,sans-Serif" font-size="10.00">cstring</text>
</g>
<!-- Node7&#45;&gt;Node12 -->
<g id="edge11" class="edge"><title>Node7&#45;&gt;Node12</title>
<path fill="none" stroke="midnightblue" d="M1394.89,-112.444C1373.33,-103.557 1339.38,-89.5632 1314.85,-79.4514"/>
<polygon fill="midnightblue" stroke="midnightblue" points="1315.88,-76.0917 1305.3,-75.5164 1313.22,-82.5634 1315.88,-76.0917"/>
</g>
<!-- Node13 -->
<g id="node13" class="node"><title>Node13</title>
<polygon fill="none" stroke="#bfbfbf" points="1326.14,-56.5 1326.14,-75.5 1375.14,-75.5 1375.14,-56.5 1326.14,-56.5"/>
<text text-anchor="middle" x="1350.64" y="-63.5" font-family="Helvetica,sans-Serif" font-size="10.00">cstdarg</text>
</g>
<!-- Node7&#45;&gt;Node13 -->
<g id="edge12" class="edge"><title>Node7&#45;&gt;Node13</title>
<path fill="none" stroke="midnightblue" d="M1405.2,-112.324C1395.5,-104.263 1380.83,-92.0765 1369.14,-82.3695"/>
<polygon fill="midnightblue" stroke="midnightblue" points="1371.21,-79.532 1361.28,-75.8339 1366.73,-84.9163 1371.21,-79.532"/>
</g>
<!-- Node14 -->
<g id="node14" class="node"><title>Node14</title>
<polygon fill="none" stroke="#bfbfbf" points="1393.64,-56.5 1393.64,-75.5 1437.64,-75.5 1437.64,-56.5 1393.64,-56.5"/>
<text text-anchor="middle" x="1415.64" y="-63.5" font-family="Helvetica,sans-Serif" font-size="10.00">cmath</text>
</g>
<!-- Node7&#45;&gt;Node14 -->
<g id="edge13" class="edge"><title>Node7&#45;&gt;Node14</title>
<path fill="none" stroke="midnightblue" d="M1415.64,-112.083C1415.64,-105.006 1415.64,-94.8611 1415.64,-85.9865"/>
<polygon fill="midnightblue" stroke="midnightblue" points="1419.14,-85.751 1415.64,-75.7511 1412.14,-85.7511 1419.14,-85.751"/>
</g>
<!-- Node15 -->
<g id="node15" class="node"><title>Node15</title>
<polygon fill="none" stroke="#bfbfbf" points="1455.64,-56.5 1455.64,-75.5 1499.64,-75.5 1499.64,-56.5 1455.64,-56.5"/>
<text text-anchor="middle" x="1477.64" y="-63.5" font-family="Helvetica,sans-Serif" font-size="10.00">vector</text>
</g>
<!-- Node7&#45;&gt;Node15 -->
<g id="edge14" class="edge"><title>Node7&#45;&gt;Node15</title>
<path fill="none" stroke="midnightblue" d="M1425.61,-112.324C1434.77,-104.341 1448.58,-92.3128 1459.67,-82.6529"/>
<polygon fill="midnightblue" stroke="midnightblue" points="1462.26,-85.041 1467.5,-75.8339 1457.66,-79.7624 1462.26,-85.041"/>
</g>
<!-- Node16 -->
<g id="node16" class="node"><title>Node16</title>
<polygon fill="none" stroke="#bfbfbf" points="1518.14,-56.5 1518.14,-75.5 1553.14,-75.5 1553.14,-56.5 1518.14,-56.5"/>
<text text-anchor="middle" x="1535.64" y="-63.5" font-family="Helvetica,sans-Serif" font-size="10.00">map</text>
</g>
<!-- Node7&#45;&gt;Node16 -->
<g id="edge15" class="edge"><title>Node7&#45;&gt;Node16</title>
<path fill="none" stroke="midnightblue" d="M1434.66,-112.444C1454.58,-103.48 1486.04,-89.3221 1508.55,-79.1914"/>
<polygon fill="midnightblue" stroke="midnightblue" points="1510.21,-82.2837 1517.89,-74.9883 1507.34,-75.9003 1510.21,-82.2837"/>
</g>
<!-- Node17 -->
<g id="node17" class="node"><title>Node17</title>
<polygon fill="none" stroke="#bfbfbf" points="1571.64,-56.5 1571.64,-75.5 1601.64,-75.5 1601.64,-56.5 1571.64,-56.5"/>
<text text-anchor="middle" x="1586.64" y="-63.5" font-family="Helvetica,sans-Serif" font-size="10.00">set</text>
</g>
<!-- Node7&#45;&gt;Node17 -->
<g id="edge17" class="edge"><title>Node7&#45;&gt;Node17</title>
<path fill="none" stroke="midnightblue" d="M1444.86,-112.432C1474.42,-103.659 1521.39,-89.441 1561.64,-76 1561.75,-75.9662 1561.85,-75.9323 1561.95,-75.8983"/>
<polygon fill="midnightblue" stroke="midnightblue" points="1563.32,-79.1283 1571.61,-72.5394 1561.02,-72.5163 1563.32,-79.1283"/>
</g>
<!-- Node18 -->
<g id="node18" class="node"><title>Node18</title>
<polygon fill="none" stroke="#bfbfbf" points="1620.14,-56.5 1620.14,-75.5 1649.14,-75.5 1649.14,-56.5 1620.14,-56.5"/>
<text text-anchor="middle" x="1634.64" y="-63.5" font-family="Helvetica,sans-Serif" font-size="10.00">list</text>
</g>
<!-- Node7&#45;&gt;Node18 -->
<g id="edge18" class="edge"><title>Node7&#45;&gt;Node18</title>
<path fill="none" stroke="midnightblue" d="M1460.23,-112.459C1497.86,-104.859 1553.28,-92.7577 1610.15,-75.8198"/>
<polygon fill="midnightblue" stroke="midnightblue" points="1611.47,-79.0765 1620.03,-72.8315 1609.44,-72.3762 1611.47,-79.0765"/>
</g>
<!-- Node19 -->
<g id="node19" class="node"><title>Node19</title>
<polygon fill="none" stroke="#bfbfbf" points="1667.14,-56.5 1667.14,-75.5 1710.14,-75.5 1710.14,-56.5 1667.14,-56.5"/>
<text text-anchor="middle" x="1688.64" y="-63.5" font-family="Helvetica,sans-Serif" font-size="10.00">deque</text>
</g>
<!-- Node7&#45;&gt;Node19 -->
<g id="edge19" class="edge"><title>Node7&#45;&gt;Node19</title>
<path fill="none" stroke="midnightblue" d="M1465.07,-113.277C1512.08,-105.603 1584.94,-92.857 1657.3,-75.8806"/>
<polygon fill="midnightblue" stroke="midnightblue" points="1658.12,-79.2835 1667.04,-73.5684 1656.5,-72.4728 1658.12,-79.2835"/>
</g>
<!-- Node20 -->
<g id="node20" class="node"><title>Node20</title>
<polygon fill="none" stroke="#bfbfbf" points="1728.14,-56.5 1728.14,-75.5 1771.14,-75.5 1771.14,-56.5 1728.14,-56.5"/>
<text text-anchor="middle" x="1749.64" y="-63.5" font-family="Helvetica,sans-Serif" font-size="10.00">queue</text>
</g>
<!-- Node7&#45;&gt;Node20 -->
<g id="edge20" class="edge"><title>Node7&#45;&gt;Node20</title>
<path fill="none" stroke="midnightblue" d="M1464.82,-115.768C1523.07,-109.111 1623.14,-96.2363 1718.28,-75.8026"/>
<polygon fill="midnightblue" stroke="midnightblue" points="1719.03,-79.2196 1728.06,-73.6705 1717.54,-72.3802 1719.03,-79.2196"/>
</g>
<!-- Node21 -->
<g id="node21" class="node"><title>Node21</title>
<polygon fill="none" stroke="#bfbfbf" points="1789.14,-56.5 1789.14,-75.5 1830.14,-75.5 1830.14,-56.5 1789.14,-56.5"/>
<text text-anchor="middle" x="1809.64" y="-63.5" font-family="Helvetica,sans-Serif" font-size="10.00">bitset</text>
</g>
<!-- Node7&#45;&gt;Node21 -->
<g id="edge21" class="edge"><title>Node7&#45;&gt;Node21</title>
<path fill="none" stroke="midnightblue" d="M1464.65,-117.577C1533.03,-112.223 1661.02,-100.105 1779.17,-75.7427"/>
<polygon fill="midnightblue" stroke="midnightblue" points="1780.04,-79.1364 1789.11,-73.6589 1778.6,-72.2853 1780.04,-79.1364"/>
</g>
<!-- Node22 -->
<g id="node22" class="node"><title>Node22</title>
<polygon fill="none" stroke="#bfbfbf" points="1848.64,-56.5 1848.64,-75.5 1904.64,-75.5 1904.64,-56.5 1848.64,-56.5"/>
<text text-anchor="middle" x="1876.64" y="-63.5" font-family="Helvetica,sans-Serif" font-size="10.00">algorithm</text>
</g>
<!-- Node7&#45;&gt;Node22 -->
<g id="edge22" class="edge"><title>Node7&#45;&gt;Node22</title>
<path fill="none" stroke="midnightblue" d="M1464.77,-117.802C1543.91,-112.196 1704.34,-98.9543 1838.64,-76 1838.74,-75.9829 1838.85,-75.9656 1838.95,-75.9483"/>
<polygon fill="midnightblue" stroke="midnightblue" points="1839.36,-79.4336 1848.5,-74.0837 1838.02,-72.5631 1839.36,-79.4336"/>
</g>
<!-- Node23 -->
<g id="node23" class="node"><title>Node23</title>
<polygon fill="none" stroke="#bfbfbf" points="1923.14,-56.5 1923.14,-75.5 1982.14,-75.5 1982.14,-56.5 1923.14,-56.5"/>
<text text-anchor="middle" x="1952.64" y="-63.5" font-family="Helvetica,sans-Serif" font-size="10.00">functional</text>
</g>
<!-- Node7&#45;&gt;Node23 -->
<g id="edge23" class="edge"><title>Node7&#45;&gt;Node23</title>
<path fill="none" stroke="midnightblue" d="M1464.69,-118.795C1552.61,-114.358 1742.91,-102.556 1913.03,-75.8721"/>
<polygon fill="midnightblue" stroke="midnightblue" points="1913.59,-79.3276 1922.92,-74.3012 1912.49,-72.4144 1913.59,-79.3276"/>
</g>
<!-- Node24 -->
<g id="node24" class="node"><title>Node24</title>
<polygon fill="none" stroke="#bfbfbf" points="2000.64,-56.5 2000.64,-75.5 2040.64,-75.5 2040.64,-56.5 2000.64,-56.5"/>
<text text-anchor="middle" x="2020.64" y="-63.5" font-family="Helvetica,sans-Serif" font-size="10.00">limits</text>
</g>
<!-- Node7&#45;&gt;Node24 -->
<g id="edge24" class="edge"><title>Node7&#45;&gt;Node24</title>
<path fill="none" stroke="midnightblue" d="M1464.95,-120.669C1564.95,-119.225 1798.47,-111.92 1990.64,-76 1990.74,-75.9813 1990.85,-75.9623 1990.95,-75.9432"/>
<polygon fill="midnightblue" stroke="midnightblue" points="1991.53,-79.4017 2000.46,-73.6945 1989.92,-72.5896 1991.53,-79.4017"/>
</g>
<!-- Node25 -->
<g id="node25" class="node"><title>Node25</title>
<polygon fill="none" stroke="#bfbfbf" points="2058.64,-56.5 2058.64,-75.5 2108.64,-75.5 2108.64,-56.5 2058.64,-56.5"/>
<text text-anchor="middle" x="2083.64" y="-63.5" font-family="Helvetica,sans-Serif" font-size="10.00">fstream</text>
</g>
<!-- Node7&#45;&gt;Node25 -->
<g id="edge25" class="edge"><title>Node7&#45;&gt;Node25</title>
<path fill="none" stroke="midnightblue" d="M1464.93,-120.643C1570.49,-119.202 1826.21,-112.104 2048.61,-75.8532"/>
<polygon fill="midnightblue" stroke="midnightblue" points="2049.21,-79.3015 2058.51,-74.2171 2048.07,-72.3952 2049.21,-79.3015"/>
</g>
<!-- Node26 -->
<g id="node26" class="node"><title>Node26</title>
<polygon fill="none" stroke="#bfbfbf" points="2127.14,-56.5 2127.14,-75.5 2172.14,-75.5 2172.14,-56.5 2127.14,-56.5"/>
<text text-anchor="middle" x="2149.64" y="-63.5" font-family="Helvetica,sans-Serif" font-size="10.00">iosfwd</text>
</g>
<!-- Node7&#45;&gt;Node26 -->
<g id="edge26" class="edge"><title>Node7&#45;&gt;Node26</title>
<path fill="none" stroke="midnightblue" d="M1464.99,-121.381C1578.66,-121.5 1867.62,-117.469 2117.08,-75.683"/>
<polygon fill="midnightblue" stroke="midnightblue" points="2117.78,-79.1137 2127.05,-73.988 2116.61,-72.2126 2117.78,-79.1137"/>
</g>
<!-- Node27 -->
<g id="node27" class="node"><title>Node27</title>
<polygon fill="none" stroke="#bfbfbf" points="2190.64,-56.5 2190.64,-75.5 2242.64,-75.5 2242.64,-56.5 2190.64,-56.5"/>
<text text-anchor="middle" x="2216.64" y="-63.5" font-family="Helvetica,sans-Serif" font-size="10.00">sstream</text>
</g>
<!-- Node7&#45;&gt;Node27 -->
<g id="edge27" class="edge"><title>Node7&#45;&gt;Node27</title>
<path fill="none" stroke="midnightblue" d="M1464.75,-121.266C1585.18,-121.246 1904.76,-117.112 2180.22,-75.7096"/>
<polygon fill="midnightblue" stroke="midnightblue" points="2181.05,-79.1232 2190.41,-74.1575 2180,-72.203 2181.05,-79.1232"/>
</g>
<!-- Node28 -->
<g id="node28" class="node"><title>Node28</title>
<polygon fill="none" stroke="#bfbfbf" points="110.644,-56.5 110.644,-75.5 178.644,-75.5 178.644,-56.5 110.644,-56.5"/>
<text text-anchor="middle" x="144.644" y="-63.5" font-family="Helvetica,sans-Serif" font-size="10.00">sys/types.h</text>
</g>
<!-- Node7&#45;&gt;Node28 -->
<g id="edge28" class="edge"><title>Node7&#45;&gt;Node28</title>
<path fill="none" stroke="midnightblue" d="M1366.52,-120.313C1170.36,-117.402 442.07,-104.93 189.069,-75.916"/>
<polygon fill="midnightblue" stroke="midnightblue" points="189.168,-72.4032 178.825,-74.6999 188.342,-79.3544 189.168,-72.4032"/>
</g>
<!-- Node29 -->
<g id="node29" class="node"><title>Node29</title>
<polygon fill="none" stroke="#bfbfbf" points="196.644,-56.5 196.644,-75.5 256.644,-75.5 256.644,-56.5 196.644,-56.5"/>
<text text-anchor="middle" x="226.644" y="-63.5" font-family="Helvetica,sans-Serif" font-size="10.00">sys/stat.h</text>
</g>
<!-- Node7&#45;&gt;Node29 -->
<g id="edge29" class="edge"><title>Node7&#45;&gt;Node29</title>
<path fill="none" stroke="midnightblue" d="M1366.41,-120.304C1178.23,-117.456 503.535,-105.477 267.03,-75.8737"/>
<polygon fill="midnightblue" stroke="midnightblue" points="267.143,-72.3591 256.775,-74.5417 266.241,-79.3008 267.143,-72.3591"/>
</g>
<!-- Node30 -->
<g id="node30" class="node"><title>Node30</title>
<polygon fill="none" stroke="#bfbfbf" points="275.144,-56.5 275.144,-75.5 326.144,-75.5 326.144,-56.5 275.144,-56.5"/>
<text text-anchor="middle" x="300.644" y="-63.5" font-family="Helvetica,sans-Serif" font-size="10.00">unistd.h</text>
</g>
<!-- Node7&#45;&gt;Node30 -->
<g id="edge30" class="edge"><title>Node7&#45;&gt;Node30</title>
<path fill="none" stroke="midnightblue" d="M1366.6,-120.324C1186.08,-117.628 558.106,-106.345 336.444,-75.7235"/>
<polygon fill="midnightblue" stroke="midnightblue" points="336.91,-72.2546 326.514,-74.2978 335.915,-79.1836 336.91,-72.2546"/>
</g>
<!-- Node31 -->
<g id="node31" class="node"><title>Node31</title>
<polygon fill="none" stroke="#bfbfbf" points="344.644,-56.5 344.644,-75.5 390.644,-75.5 390.644,-56.5 344.644,-56.5"/>
<text text-anchor="middle" x="367.644" y="-63.5" font-family="Helvetica,sans-Serif" font-size="10.00">dlfcn.h</text>
</g>
<!-- Node7&#45;&gt;Node31 -->
<g id="edge31" class="edge"><title>Node7&#45;&gt;Node31</title>
<path fill="none" stroke="midnightblue" d="M1366.48,-120.318C1192.9,-117.682 608.479,-106.801 400.821,-75.7569"/>
<polygon fill="midnightblue" stroke="midnightblue" points="401.344,-72.2964 390.925,-74.2154 400.267,-79.213 401.344,-72.2964"/>
</g>
<!-- Node32 -->
<g id="node32" class="node"><title>Node32</title>
<polygon fill="none" stroke="#bfbfbf" points="408.644,-56.5 408.644,-75.5 486.644,-75.5 486.644,-56.5 408.644,-56.5"/>
<text text-anchor="middle" x="447.644" y="-63.5" font-family="Helvetica,sans-Serif" font-size="10.00">ext/hash_map</text>
</g>
<!-- Node7&#45;&gt;Node32 -->
<g id="edge32" class="edge"><title>Node7&#45;&gt;Node32</title>
<path fill="none" stroke="midnightblue" d="M1366.58,-120.951C1230.14,-120.313 834.606,-115.062 496.846,-75.9724"/>
<polygon fill="midnightblue" stroke="midnightblue" points="497.209,-72.4911 486.87,-74.806 496.396,-79.4437 497.209,-72.4911"/>
</g>
<!-- Node33 -->
<g id="node33" class="node"><title>Node33</title>
<polygon fill="none" stroke="#bfbfbf" points="505.144,-56.5 505.144,-75.5 578.144,-75.5 578.144,-56.5 505.144,-56.5"/>
<text text-anchor="middle" x="541.644" y="-63.5" font-family="Helvetica,sans-Serif" font-size="10.00">ext/hash_set</text>
</g>
<!-- Node7&#45;&gt;Node33 -->
<g id="edge33" class="edge"><title>Node7&#45;&gt;Node33</title>
<path fill="none" stroke="midnightblue" d="M1366.37,-120.781C1239.09,-119.689 888.844,-113.357 588.621,-76.0812"/>
<polygon fill="midnightblue" stroke="midnightblue" points="588.769,-72.5724 578.411,-74.7991 587.897,-79.5179 588.769,-72.5724"/>
</g>
<!-- Node34 -->
<g id="node34" class="node"><title>Node34</title>
<polygon fill="none" stroke="#bfbfbf" points="596.144,-56.5 596.144,-75.5 667.144,-75.5 667.144,-56.5 596.144,-56.5"/>
<text text-anchor="middle" x="631.644" y="-63.5" font-family="Helvetica,sans-Serif" font-size="10.00">sys/param.h</text>
</g>
<!-- Node7&#45;&gt;Node34 -->
<g id="edge34" class="edge"><title>Node7&#45;&gt;Node34</title>
<path fill="none" stroke="midnightblue" d="M1366.57,-120.324C1249.21,-118.212 942.989,-109.771 677.648,-75.9339"/>
<polygon fill="midnightblue" stroke="midnightblue" points="677.798,-72.4244 667.433,-74.616 676.903,-79.3669 677.798,-72.4244"/>
</g>
<!-- Node35 -->
<g id="node35" class="node"><title>Node35</title>
<polygon fill="none" stroke="#bfbfbf" points="685.644,-56.5 685.644,-75.5 851.644,-75.5 851.644,-56.5 685.644,-56.5"/>
<text text-anchor="middle" x="768.644" y="-63.5" font-family="Helvetica,sans-Serif" font-size="10.00">CoreFoundation/CoreFoundation.h</text>
</g>
<!-- Node7&#45;&gt;Node35 -->
<g id="edge35" class="edge"><title>Node7&#45;&gt;Node35</title>
<path fill="none" stroke="midnightblue" d="M1366.62,-117.3C1271.5,-110.062 1055,-93.2942 861.932,-76.1025"/>
<polygon fill="midnightblue" stroke="midnightblue" points="862.155,-72.6086 851.883,-75.2054 861.533,-79.5809 862.155,-72.6086"/>
</g>
<!-- Node36 -->
<g id="node36" class="node"><title>Node36</title>
<polygon fill="none" stroke="#bfbfbf" points="869.644,-56.5 869.644,-75.5 993.644,-75.5 993.644,-56.5 869.644,-56.5"/>
<text text-anchor="middle" x="931.644" y="-63.5" font-family="Helvetica,sans-Serif" font-size="10.00">emscripten/emscripten.h</text>
</g>
<!-- Node7&#45;&gt;Node36 -->
<g id="edge36" class="edge"><title>Node7&#45;&gt;Node36</title>
<path fill="none" stroke="midnightblue" d="M1366.54,-115.977C1290.87,-108.168 1140.94,-92.4208 1004.1,-76.2748"/>
<polygon fill="midnightblue" stroke="midnightblue" points="1004.19,-72.7617 993.849,-75.062 1003.37,-79.7131 1004.19,-72.7617"/>
</g>
<!-- Node38 -->
<g id="node38" class="node"><title>Node38</title>
<g id="a_node38"><a xlink:href="_ogre_memory_allocated_object_8h.html" target="_top" xlink:title="OgreMemoryAllocatedObject.h">
<polygon fill="none" stroke="black" points="2319.64,-56.5 2319.64,-75.5 2469.64,-75.5 2469.64,-56.5 2319.64,-56.5"/>
<text text-anchor="middle" x="2394.64" y="-63.5" font-family="Helvetica,sans-Serif" font-size="10.00">OgreMemoryAllocatedObject.h</text>
</a>
</g>
</g>
<!-- Node37&#45;&gt;Node38 -->
<g id="edge38" class="edge"><title>Node37&#45;&gt;Node38</title>
<path fill="none" stroke="midnightblue" d="M2520.03,-112.444C2495.19,-103.438 2455.87,-89.1891 2427.89,-79.049"/>
<polygon fill="midnightblue" stroke="midnightblue" points="2428.74,-75.6332 2418.14,-75.5164 2426.35,-82.2144 2428.74,-75.6332"/>
</g>
<!-- Node37&#45;&gt;Node39 -->
<g id="edge42" class="edge"><title>Node37&#45;&gt;Node39</title>
<path fill="none" stroke="midnightblue" d="M2598.22,-112.461C2622.14,-106.113 2648.78,-95.0933 2666.64,-76 2678.31,-63.5363 2682.85,-44.3029 2684.6,-29.9874"/>
<polygon fill="midnightblue" stroke="midnightblue" points="2688.11,-30.0497 2685.49,-19.7843 2681.14,-29.4438 2688.11,-30.0497"/>
</g>
<!-- Node37&#45;&gt;Node40 -->
<g id="edge50" class="edge"><title>Node37&#45;&gt;Node40</title>
<path fill="none" stroke="midnightblue" d="M2537.57,-112.396C2531.57,-103.595 2522.49,-89.3552 2516.64,-76 2510.02,-60.8529 2504.94,-42.7333 2501.71,-29.4774"/>
<polygon fill="midnightblue" stroke="midnightblue" points="2505.1,-28.6107 2499.43,-19.6585 2498.28,-30.1904 2505.1,-28.6107"/>
</g>
<!-- Node41 -->
<g id="node41" class="node"><title>Node41</title>
<g id="a_node41"><a xlink:href="_ogre_memory_s_t_l_allocator_8h.html" target="_top" xlink:title="OgreMemorySTLAllocator.h">
<polygon fill="none" stroke="black" points="2714.14,-56.5 2714.14,-75.5 2851.14,-75.5 2851.14,-56.5 2714.14,-56.5"/>
<text text-anchor="middle" x="2782.64" y="-63.5" font-family="Helvetica,sans-Serif" font-size="10.00">OgreMemorySTLAllocator.h</text>
</a>
</g>
</g>
<!-- Node37&#45;&gt;Node41 -->
<g id="edge43" class="edge"><title>Node37&#45;&gt;Node41</title>
<path fill="none" stroke="midnightblue" d="M2581.51,-112.444C2623.12,-103.043 2690.01,-87.9291 2735.11,-77.7393"/>
<polygon fill="midnightblue" stroke="midnightblue" points="2735.97,-81.1343 2744.95,-75.5164 2734.43,-74.3064 2735.97,-81.1343"/>
</g>
<!-- Node42 -->
<g id="node42" class="node"><title>Node42</title>
<g id="a_node42"><a xlink:href="_ogre_memory_ned_pooling_8h.html" target="_top" xlink:title="OgreMemoryNedPooling.h">
<polygon fill="none" stroke="black" points="2526.14,-56.5 2526.14,-75.5 2657.14,-75.5 2657.14,-56.5 2526.14,-56.5"/>
<text text-anchor="middle" x="2591.64" y="-63.5" font-family="Helvetica,sans-Serif" font-size="10.00">OgreMemoryNedPooling.h</text>
</a>
</g>
</g>
<!-- Node37&#45;&gt;Node42 -->
<g id="edge47" class="edge"><title>Node37&#45;&gt;Node42</title>
<path fill="none" stroke="midnightblue" d="M2551.57,-112.083C2558.49,-104.298 2568.71,-92.8015 2577.1,-83.3665"/>
<polygon fill="midnightblue" stroke="midnightblue" points="2579.84,-85.5505 2583.87,-75.7511 2574.61,-80.8999 2579.84,-85.5505"/>
</g>
<!-- Node38&#45;&gt;Node2 -->
<g id="edge39" class="edge"><title>Node38&#45;&gt;Node2</title>
<path fill="none" stroke="midnightblue" d="M2391.68,-75.5914C2385.53,-93.3881 2371.28,-134.625 2362.98,-158.674"/>
<polygon fill="midnightblue" stroke="midnightblue" points="2359.58,-157.774 2359.63,-168.368 2366.2,-160.059 2359.58,-157.774"/>
</g>
<!-- Node38&#45;&gt;Node39 -->
<g id="edge40" class="edge"><title>Node38&#45;&gt;Node39</title>
<path fill="none" stroke="midnightblue" d="M2440.75,-56.4435C2492.05,-46.9246 2574.92,-31.5472 2629.84,-21.3563"/>
<polygon fill="midnightblue" stroke="midnightblue" points="2630.56,-24.7823 2639.75,-19.5164 2629.28,-17.8998 2630.56,-24.7823"/>
</g>
<!-- Node38&#45;&gt;Node40 -->
<g id="edge41" class="edge"><title>Node38&#45;&gt;Node40</title>
<path fill="none" stroke="midnightblue" d="M2411.19,-56.324C2427.64,-47.7034 2453.08,-34.3643 2472.11,-24.3855"/>
<polygon fill="midnightblue" stroke="midnightblue" points="2473.91,-27.3977 2481.14,-19.6545 2470.66,-21.198 2473.91,-27.3977"/>
</g>
<!-- Node41&#45;&gt;Node2 -->
<g id="edge44" class="edge"><title>Node41&#45;&gt;Node2</title>
<path fill="none" stroke="midnightblue" d="M2765.8,-75.5395C2737.68,-89.4401 2679.09,-116.92 2626.64,-132 2556.56,-152.15 2473.49,-164.312 2418.17,-170.822"/>
<polygon fill="midnightblue" stroke="midnightblue" points="2417.71,-167.352 2408.18,-171.973 2418.51,-174.306 2417.71,-167.352"/>
</g>
<!-- Node41&#45;&gt;Node39 -->
<g id="edge45" class="edge"><title>Node41&#45;&gt;Node39</title>
<path fill="none" stroke="midnightblue" d="M2767.06,-56.324C2751.65,-47.7428 2727.83,-34.486 2709.93,-24.5224"/>
<polygon fill="midnightblue" stroke="midnightblue" points="2711.63,-21.4606 2701.19,-19.6545 2708.23,-27.5767 2711.63,-21.4606"/>
</g>
<!-- Node41&#45;&gt;Node40 -->
<g id="edge46" class="edge"><title>Node41&#45;&gt;Node40</title>
<path fill="none" stroke="midnightblue" d="M2737.49,-56.4435C2687.35,-46.9444 2606.42,-31.611 2552.64,-21.4198"/>
<polygon fill="midnightblue" stroke="midnightblue" points="2553.07,-17.9393 2542.59,-19.5164 2551.77,-24.8169 2553.07,-17.9393"/>
</g>
<!-- Node42&#45;&gt;Node39 -->
<g id="edge48" class="edge"><title>Node42&#45;&gt;Node39</title>
<path fill="none" stroke="midnightblue" d="M2606.75,-56.324C2621.55,-47.8215 2644.34,-34.7288 2661.63,-24.7975"/>
<polygon fill="midnightblue" stroke="midnightblue" points="2663.65,-27.6707 2670.58,-19.6545 2660.16,-21.6009 2663.65,-27.6707"/>
</g>
<!-- Node42&#45;&gt;Node40 -->
<g id="edge49" class="edge"><title>Node42&#45;&gt;Node40</title>
<path fill="none" stroke="midnightblue" d="M2576.54,-56.324C2561.74,-47.8215 2538.95,-34.7288 2521.66,-24.7975"/>
<polygon fill="midnightblue" stroke="midnightblue" points="2523.12,-21.6009 2512.71,-19.6545 2519.64,-27.6707 2523.12,-21.6009"/>
</g>
</g>
</svg>
