<?xml version="1.0" encoding="UTF-8" standalone="no"?>
<!DOCTYPE svg PUBLIC "-//W3C//DTD SVG 1.1//EN"
 "http://www.w3.org/Graphics/SVG/1.1/DTD/svg11.dtd">
<!-- Generated by graphviz version 2.38.0 (20140413.2041)
 -->
<!-- Title: OgreGLStateCacheManager.h Pages: 1 -->
<svg width="3096pt" height="308pt"
 viewBox="0.00 0.00 3096.00 308.00" xmlns="http://www.w3.org/2000/svg" xmlns:xlink="http://www.w3.org/1999/xlink">
<g id="graph0" class="graph" transform="scale(1 1) rotate(0) translate(4 304)">
<title>OgreGLStateCacheManager.h</title>
<!-- Node1 -->
<g id="node1" class="node"><title>Node1</title>
<polygon fill="#bfbfbf" stroke="black" points="1801.5,-280.5 1801.5,-299.5 1949.5,-299.5 1949.5,-280.5 1801.5,-280.5"/>
<text text-anchor="middle" x="1875.5" y="-287.5" font-family="Helvetica,sans-Serif" font-size="10.00">OgreGLStateCacheManager.h</text>
</g>
<!-- Node2 -->
<g id="node2" class="node"><title>Node2</title>
<g id="a_node2"><a xlink:href="_ogre_g_l_prerequisites_8h.html" target="_top" xlink:title="OgreGLPrerequisites.h">
<polygon fill="none" stroke="black" points="393.5,-224.5 393.5,-243.5 509.5,-243.5 509.5,-224.5 393.5,-224.5"/>
<text text-anchor="middle" x="451.5" y="-231.5" font-family="Helvetica,sans-Serif" font-size="10.00">OgreGLPrerequisites.h</text>
</a>
</g>
</g>
<!-- Node1&#45;&gt;Node2 -->
<g id="edge1" class="edge"><title>Node1&#45;&gt;Node2</title>
<path fill="none" stroke="midnightblue" d="M1801.44,-286.192C1554.07,-276.811 758.529,-246.643 519.833,-237.591"/>
<polygon fill="midnightblue" stroke="midnightblue" points="519.685,-234.083 509.56,-237.202 519.42,-241.078 519.685,-234.083"/>
</g>
<!-- Node7 -->
<g id="node7" class="node"><title>Node7</title>
<g id="a_node7"><a xlink:href="_ogre_std_headers_8h.html" target="_top" xlink:title="OgreStdHeaders.h">
<polygon fill="none" stroke="black" points="1826.5,-112.5 1826.5,-131.5 1924.5,-131.5 1924.5,-112.5 1826.5,-112.5"/>
<text text-anchor="middle" x="1875.5" y="-119.5" font-family="Helvetica,sans-Serif" font-size="10.00">OgreStdHeaders.h</text>
</a>
</g>
</g>
<!-- Node1&#45;&gt;Node7 -->
<g id="edge56" class="edge"><title>Node1&#45;&gt;Node7</title>
<path fill="none" stroke="midnightblue" d="M1875.5,-280.075C1875.5,-253.945 1875.5,-177.211 1875.5,-141.577"/>
<polygon fill="midnightblue" stroke="midnightblue" points="1879,-141.568 1875.5,-131.568 1872,-141.568 1879,-141.568"/>
</g>
<!-- Node48 -->
<g id="node48" class="node"><title>Node48</title>
<g id="a_node48"><a xlink:href="_ogre_iterator_wrappers_8h.html" target="_top" xlink:title="OgreIteratorWrappers.h">
<polygon fill="none" stroke="black" points="2033,-224.5 2033,-243.5 2152,-243.5 2152,-224.5 2033,-224.5"/>
<text text-anchor="middle" x="2092.5" y="-231.5" font-family="Helvetica,sans-Serif" font-size="10.00">OgreIteratorWrappers.h</text>
</a>
</g>
</g>
<!-- Node1&#45;&gt;Node48 -->
<g id="edge57" class="edge"><title>Node1&#45;&gt;Node48</title>
<path fill="none" stroke="midnightblue" d="M1909.88,-280.444C1947.42,-271.102 2007.63,-256.119 2048.57,-245.933"/>
<polygon fill="midnightblue" stroke="midnightblue" points="2049.42,-249.328 2058.28,-243.516 2047.73,-242.535 2049.42,-249.328"/>
</g>
<!-- Node3 -->
<g id="node3" class="node"><title>Node3</title>
<g id="a_node3"><a xlink:href="_ogre_prerequisites_8h.html" target="_top" xlink:title="OgrePrerequisites.h">
<polygon fill="none" stroke="black" points="572,-168.5 572,-187.5 675,-187.5 675,-168.5 572,-168.5"/>
<text text-anchor="middle" x="623.5" y="-175.5" font-family="Helvetica,sans-Serif" font-size="10.00">OgrePrerequisites.h</text>
</a>
</g>
</g>
<!-- Node2&#45;&gt;Node3 -->
<g id="edge2" class="edge"><title>Node2&#45;&gt;Node3</title>
<path fill="none" stroke="midnightblue" d="M478.754,-224.444C507.941,-215.28 554.421,-200.688 586.809,-190.519"/>
<polygon fill="midnightblue" stroke="midnightblue" points="587.881,-193.851 596.374,-187.516 585.784,-187.173 587.881,-193.851"/>
</g>
<!-- Node43 -->
<g id="node43" class="node"><title>Node43</title>
<polygon fill="none" stroke="#bfbfbf" points="420,-168.5 420,-187.5 483,-187.5 483,-168.5 420,-168.5"/>
<text text-anchor="middle" x="451.5" y="-175.5" font-family="Helvetica,sans-Serif" font-size="10.00">windows.h</text>
</g>
<!-- Node2&#45;&gt;Node43 -->
<g id="edge51" class="edge"><title>Node2&#45;&gt;Node43</title>
<path fill="none" stroke="midnightblue" d="M451.5,-224.083C451.5,-217.006 451.5,-206.861 451.5,-197.986"/>
<polygon fill="midnightblue" stroke="midnightblue" points="455,-197.751 451.5,-187.751 448,-197.751 455,-197.751"/>
</g>
<!-- Node44 -->
<g id="node44" class="node"><title>Node44</title>
<polygon fill="none" stroke="#bfbfbf" points="501,-168.5 501,-187.5 554,-187.5 554,-168.5 501,-168.5"/>
<text text-anchor="middle" x="527.5" y="-175.5" font-family="Helvetica,sans-Serif" font-size="10.00">wingdi.h</text>
</g>
<!-- Node2&#45;&gt;Node44 -->
<g id="edge52" class="edge"><title>Node2&#45;&gt;Node44</title>
<path fill="none" stroke="midnightblue" d="M463.711,-224.324C475.276,-216.107 492.875,-203.602 506.661,-193.807"/>
<polygon fill="midnightblue" stroke="midnightblue" points="508.943,-196.479 515.067,-187.834 504.888,-190.773 508.943,-196.479"/>
</g>
<!-- Node45 -->
<g id="node45" class="node"><title>Node45</title>
<polygon fill="none" stroke="#bfbfbf" points="183,-168.5 183,-187.5 244,-187.5 244,-168.5 183,-168.5"/>
<text text-anchor="middle" x="213.5" y="-175.5" font-family="Helvetica,sans-Serif" font-size="10.00">GL/glew.h</text>
</g>
<!-- Node2&#45;&gt;Node45 -->
<g id="edge53" class="edge"><title>Node2&#45;&gt;Node45</title>
<path fill="none" stroke="midnightblue" d="M413.788,-224.444C370.255,-214.566 298.92,-198.381 254.171,-188.228"/>
<polygon fill="midnightblue" stroke="midnightblue" points="254.751,-184.77 244.224,-185.971 253.202,-191.597 254.751,-184.77"/>
</g>
<!-- Node46 -->
<g id="node46" class="node"><title>Node46</title>
<polygon fill="none" stroke="#bfbfbf" points="262.5,-168.5 262.5,-187.5 330.5,-187.5 330.5,-168.5 262.5,-168.5"/>
<text text-anchor="middle" x="296.5" y="-175.5" font-family="Helvetica,sans-Serif" font-size="10.00">GL/wglew.h</text>
</g>
<!-- Node2&#45;&gt;Node46 -->
<g id="edge54" class="edge"><title>Node2&#45;&gt;Node46</title>
<path fill="none" stroke="midnightblue" d="M426.94,-224.444C400.977,-215.399 359.832,-201.064 330.703,-190.916"/>
<polygon fill="midnightblue" stroke="midnightblue" points="331.54,-187.501 320.945,-187.516 329.237,-194.112 331.54,-187.501"/>
</g>
<!-- Node47 -->
<g id="node47" class="node"><title>Node47</title>
<polygon fill="none" stroke="#bfbfbf" points="349,-168.5 349,-187.5 402,-187.5 402,-168.5 349,-168.5"/>
<text text-anchor="middle" x="375.5" y="-175.5" font-family="Helvetica,sans-Serif" font-size="10.00">GL/glu.h</text>
</g>
<!-- Node2&#45;&gt;Node47 -->
<g id="edge55" class="edge"><title>Node2&#45;&gt;Node47</title>
<path fill="none" stroke="midnightblue" d="M439.289,-224.324C427.724,-216.107 410.125,-203.602 396.339,-193.807"/>
<polygon fill="midnightblue" stroke="midnightblue" points="398.112,-190.773 387.933,-187.834 394.057,-196.479 398.112,-190.773"/>
</g>
<!-- Node4 -->
<g id="node4" class="node"><title>Node4</title>
<g id="a_node4"><a xlink:href="_ogre_platform_8h.html" target="_top" xlink:title="OgrePlatform.h">
<polygon fill="none" stroke="black" points="546,-112.5 546,-131.5 629,-131.5 629,-112.5 546,-112.5"/>
<text text-anchor="middle" x="587.5" y="-119.5" font-family="Helvetica,sans-Serif" font-size="10.00">OgrePlatform.h</text>
</a>
</g>
</g>
<!-- Node3&#45;&gt;Node4 -->
<g id="edge3" class="edge"><title>Node3&#45;&gt;Node4</title>
<path fill="none" stroke="midnightblue" d="M617.555,-168.083C612.523,-160.534 605.163,-149.495 598.987,-140.23"/>
<polygon fill="midnightblue" stroke="midnightblue" points="601.793,-138.13 593.334,-131.751 595.969,-142.013 601.793,-138.13"/>
</g>
<!-- Node6 -->
<g id="node6" class="node"><title>Node6</title>
<polygon fill="none" stroke="#bfbfbf" points="642,-56.5 642,-75.5 683,-75.5 683,-56.5 642,-56.5"/>
<text text-anchor="middle" x="662.5" y="-63.5" font-family="Helvetica,sans-Serif" font-size="10.00">string</text>
</g>
<!-- Node3&#45;&gt;Node6 -->
<g id="edge5" class="edge"><title>Node3&#45;&gt;Node6</title>
<path fill="none" stroke="midnightblue" d="M626.56,-168.368C632.882,-150.537 647.504,-109.295 656.022,-85.2717"/>
<polygon fill="midnightblue" stroke="midnightblue" points="659.411,-86.1862 659.454,-75.5914 652.813,-83.847 659.411,-86.1862"/>
</g>
<!-- Node3&#45;&gt;Node7 -->
<g id="edge6" class="edge"><title>Node3&#45;&gt;Node7</title>
<path fill="none" stroke="midnightblue" d="M675.308,-174.765C876.218,-166.1 1603.26,-134.742 1816.39,-125.549"/>
<polygon fill="midnightblue" stroke="midnightblue" points="1816.61,-129.043 1826.45,-125.116 1816.31,-122.05 1816.61,-129.043"/>
</g>
<!-- Node37 -->
<g id="node37" class="node"><title>Node37</title>
<g id="a_node37"><a xlink:href="_ogre_memory_allocator_config_8h.html" target="_top" xlink:title="This file configures Ogre&#39;s memory allocators. ">
<polygon fill="none" stroke="black" points="232.5,-112.5 232.5,-131.5 380.5,-131.5 380.5,-112.5 232.5,-112.5"/>
<text text-anchor="middle" x="306.5" y="-119.5" font-family="Helvetica,sans-Serif" font-size="10.00">OgreMemoryAllocatorConfig.h</text>
</a>
</g>
</g>
<!-- Node3&#45;&gt;Node37 -->
<g id="edge37" class="edge"><title>Node3&#45;&gt;Node37</title>
<path fill="none" stroke="midnightblue" d="M573.27,-168.444C517.159,-158.885 426.37,-143.419 366.552,-133.23"/>
<polygon fill="midnightblue" stroke="midnightblue" points="366.94,-129.745 356.495,-131.516 365.765,-136.646 366.94,-129.745"/>
</g>
<!-- Node5 -->
<g id="node5" class="node"><title>Node5</title>
<g id="a_node5"><a xlink:href="_ogre_config_8h.html" target="_top" xlink:title="OgreConfig.h">
<polygon fill="none" stroke="red" points="549.5,-56.5 549.5,-75.5 623.5,-75.5 623.5,-56.5 549.5,-56.5"/>
<text text-anchor="middle" x="586.5" y="-63.5" font-family="Helvetica,sans-Serif" font-size="10.00">OgreConfig.h</text>
</a>
</g>
</g>
<!-- Node4&#45;&gt;Node5 -->
<g id="edge4" class="edge"><title>Node4&#45;&gt;Node5</title>
<path fill="none" stroke="midnightblue" d="M587.335,-112.083C587.204,-105.006 587.016,-94.8611 586.852,-85.9865"/>
<polygon fill="midnightblue" stroke="midnightblue" points="590.347,-85.6845 586.662,-75.7511 583.348,-85.8142 590.347,-85.6845"/>
</g>
<!-- Node7&#45;&gt;Node6 -->
<g id="edge16" class="edge"><title>Node7&#45;&gt;Node6</title>
<path fill="none" stroke="midnightblue" d="M1826.46,-120.788C1634.9,-119.707 936.206,-113.345 693.495,-75.6268"/>
<polygon fill="midnightblue" stroke="midnightblue" points="693.752,-72.123 683.321,-73.982 692.634,-79.0332 693.752,-72.123"/>
</g>
<!-- Node8 -->
<g id="node8" class="node"><title>Node8</title>
<polygon fill="none" stroke="#bfbfbf" points="1602,-56.5 1602,-75.5 1651,-75.5 1651,-56.5 1602,-56.5"/>
<text text-anchor="middle" x="1626.5" y="-63.5" font-family="Helvetica,sans-Serif" font-size="10.00">cassert</text>
</g>
<!-- Node7&#45;&gt;Node8 -->
<g id="edge7" class="edge"><title>Node7&#45;&gt;Node8</title>
<path fill="none" stroke="midnightblue" d="M1831.29,-112.452C1789.85,-104.28 1725.94,-91.2775 1661.3,-76.0928"/>
<polygon fill="midnightblue" stroke="midnightblue" points="1661.88,-72.6335 1651.34,-73.7374 1660.27,-79.4455 1661.88,-72.6335"/>
</g>
<!-- Node9 -->
<g id="node9" class="node"><title>Node9</title>
<polygon fill="none" stroke="#bfbfbf" points="1669,-56.5 1669,-75.5 1712,-75.5 1712,-56.5 1669,-56.5"/>
<text text-anchor="middle" x="1690.5" y="-63.5" font-family="Helvetica,sans-Serif" font-size="10.00">cstdio</text>
</g>
<!-- Node7&#45;&gt;Node9 -->
<g id="edge8" class="edge"><title>Node7&#45;&gt;Node9</title>
<path fill="none" stroke="midnightblue" d="M1846.19,-112.444C1812.25,-102.537 1756.57,-86.2846 1721.8,-76.1375"/>
<polygon fill="midnightblue" stroke="midnightblue" points="1722.74,-72.7652 1712.16,-73.323 1720.78,-79.4848 1722.74,-72.7652"/>
</g>
<!-- Node10 -->
<g id="node10" class="node"><title>Node10</title>
<polygon fill="none" stroke="#bfbfbf" points="1730,-56.5 1730,-75.5 1775,-75.5 1775,-56.5 1730,-56.5"/>
<text text-anchor="middle" x="1752.5" y="-63.5" font-family="Helvetica,sans-Serif" font-size="10.00">cstdlib</text>
</g>
<!-- Node7&#45;&gt;Node10 -->
<g id="edge9" class="edge"><title>Node7&#45;&gt;Node10</title>
<path fill="none" stroke="midnightblue" d="M1856.01,-112.444C1835.86,-103.596 1804.18,-89.6875 1781.17,-79.5865"/>
<polygon fill="midnightblue" stroke="midnightblue" points="1782.46,-76.3316 1771.9,-75.5164 1779.65,-82.7411 1782.46,-76.3316"/>
</g>
<!-- Node11 -->
<g id="node11" class="node"><title>Node11</title>
<polygon fill="none" stroke="#bfbfbf" points="1793,-56.5 1793,-75.5 1834,-75.5 1834,-56.5 1793,-56.5"/>
<text text-anchor="middle" x="1813.5" y="-63.5" font-family="Helvetica,sans-Serif" font-size="10.00">ctime</text>
</g>
<!-- Node7&#45;&gt;Node11 -->
<g id="edge10" class="edge"><title>Node7&#45;&gt;Node11</title>
<path fill="none" stroke="midnightblue" d="M1865.54,-112.324C1856.37,-104.341 1842.56,-92.3128 1831.47,-82.6529"/>
<polygon fill="midnightblue" stroke="midnightblue" points="1833.48,-79.7624 1823.64,-75.8339 1828.88,-85.041 1833.48,-79.7624"/>
</g>
<!-- Node12 -->
<g id="node12" class="node"><title>Node12</title>
<polygon fill="none" stroke="#bfbfbf" points="1852.5,-56.5 1852.5,-75.5 1898.5,-75.5 1898.5,-56.5 1852.5,-56.5"/>
<text text-anchor="middle" x="1875.5" y="-63.5" font-family="Helvetica,sans-Serif" font-size="10.00">cstring</text>
</g>
<!-- Node7&#45;&gt;Node12 -->
<g id="edge11" class="edge"><title>Node7&#45;&gt;Node12</title>
<path fill="none" stroke="midnightblue" d="M1875.5,-112.083C1875.5,-105.006 1875.5,-94.8611 1875.5,-85.9865"/>
<polygon fill="midnightblue" stroke="midnightblue" points="1879,-85.751 1875.5,-75.7511 1872,-85.7511 1879,-85.751"/>
</g>
<!-- Node13 -->
<g id="node13" class="node"><title>Node13</title>
<polygon fill="none" stroke="#bfbfbf" points="1917,-56.5 1917,-75.5 1966,-75.5 1966,-56.5 1917,-56.5"/>
<text text-anchor="middle" x="1941.5" y="-63.5" font-family="Helvetica,sans-Serif" font-size="10.00">cstdarg</text>
</g>
<!-- Node7&#45;&gt;Node13 -->
<g id="edge12" class="edge"><title>Node7&#45;&gt;Node13</title>
<path fill="none" stroke="midnightblue" d="M1886.1,-112.324C1895.96,-104.263 1910.85,-92.0765 1922.72,-82.3695"/>
<polygon fill="midnightblue" stroke="midnightblue" points="1925.18,-84.8752 1930.7,-75.8339 1920.75,-79.4575 1925.18,-84.8752"/>
</g>
<!-- Node14 -->
<g id="node14" class="node"><title>Node14</title>
<polygon fill="none" stroke="#bfbfbf" points="1984.5,-56.5 1984.5,-75.5 2028.5,-75.5 2028.5,-56.5 1984.5,-56.5"/>
<text text-anchor="middle" x="2006.5" y="-63.5" font-family="Helvetica,sans-Serif" font-size="10.00">cmath</text>
</g>
<!-- Node7&#45;&gt;Node14 -->
<g id="edge13" class="edge"><title>Node7&#45;&gt;Node14</title>
<path fill="none" stroke="midnightblue" d="M1896.26,-112.444C1917.82,-103.557 1951.76,-89.5632 1976.29,-79.4514"/>
<polygon fill="midnightblue" stroke="midnightblue" points="1977.93,-82.5634 1985.84,-75.5164 1975.26,-76.0917 1977.93,-82.5634"/>
</g>
<!-- Node15 -->
<g id="node15" class="node"><title>Node15</title>
<polygon fill="none" stroke="#bfbfbf" points="2046.5,-56.5 2046.5,-75.5 2090.5,-75.5 2090.5,-56.5 2046.5,-56.5"/>
<text text-anchor="middle" x="2068.5" y="-63.5" font-family="Helvetica,sans-Serif" font-size="10.00">vector</text>
</g>
<!-- Node7&#45;&gt;Node15 -->
<g id="edge14" class="edge"><title>Node7&#45;&gt;Node15</title>
<path fill="none" stroke="midnightblue" d="M1906.59,-112.48C1937.25,-104.052 1985.69,-90.6664 2036.62,-76.227"/>
<polygon fill="midnightblue" stroke="midnightblue" points="2037.83,-79.5219 2046.49,-73.4231 2035.92,-72.7881 2037.83,-79.5219"/>
</g>
<!-- Node16 -->
<g id="node16" class="node"><title>Node16</title>
<polygon fill="none" stroke="#bfbfbf" points="2109,-56.5 2109,-75.5 2144,-75.5 2144,-56.5 2109,-56.5"/>
<text text-anchor="middle" x="2126.5" y="-63.5" font-family="Helvetica,sans-Serif" font-size="10.00">map</text>
</g>
<!-- Node7&#45;&gt;Node16 -->
<g id="edge15" class="edge"><title>Node7&#45;&gt;Node16</title>
<path fill="none" stroke="midnightblue" d="M1924.84,-112.894C1968.36,-105.34 2033.61,-93.0285 2099.2,-75.7995"/>
<polygon fill="midnightblue" stroke="midnightblue" points="2100.11,-79.1781 2108.88,-73.2219 2098.31,-72.414 2100.11,-79.1781"/>
</g>
<!-- Node17 -->
<g id="node17" class="node"><title>Node17</title>
<polygon fill="none" stroke="#bfbfbf" points="2162.5,-56.5 2162.5,-75.5 2192.5,-75.5 2192.5,-56.5 2162.5,-56.5"/>
<text text-anchor="middle" x="2177.5" y="-63.5" font-family="Helvetica,sans-Serif" font-size="10.00">set</text>
</g>
<!-- Node7&#45;&gt;Node17 -->
<g id="edge17" class="edge"><title>Node7&#45;&gt;Node17</title>
<path fill="none" stroke="midnightblue" d="M1924.58,-116.037C1978.53,-109.922 2067.77,-97.8675 2152.62,-75.7748"/>
<polygon fill="midnightblue" stroke="midnightblue" points="2153.65,-79.1248 2162.41,-73.1755 2151.85,-72.3593 2153.65,-79.1248"/>
</g>
<!-- Node18 -->
<g id="node18" class="node"><title>Node18</title>
<polygon fill="none" stroke="#bfbfbf" points="2211,-56.5 2211,-75.5 2240,-75.5 2240,-56.5 2211,-56.5"/>
<text text-anchor="middle" x="2225.5" y="-63.5" font-family="Helvetica,sans-Serif" font-size="10.00">list</text>
</g>
<!-- Node7&#45;&gt;Node18 -->
<g id="edge18" class="edge"><title>Node7&#45;&gt;Node18</title>
<path fill="none" stroke="midnightblue" d="M1924.75,-117.617C1987.15,-112.582 2097.93,-101.144 2200.99,-75.5657"/>
<polygon fill="midnightblue" stroke="midnightblue" points="2202.11,-78.8943 2210.94,-73.046 2200.39,-72.1086 2202.11,-78.8943"/>
</g>
<!-- Node19 -->
<g id="node19" class="node"><title>Node19</title>
<polygon fill="none" stroke="#bfbfbf" points="2258,-56.5 2258,-75.5 2301,-75.5 2301,-56.5 2258,-56.5"/>
<text text-anchor="middle" x="2279.5" y="-63.5" font-family="Helvetica,sans-Serif" font-size="10.00">deque</text>
</g>
<!-- Node7&#45;&gt;Node19 -->
<g id="edge19" class="edge"><title>Node7&#45;&gt;Node19</title>
<path fill="none" stroke="midnightblue" d="M1924.65,-117.789C1994.66,-112.622 2127.2,-100.653 2248.18,-75.9705"/>
<polygon fill="midnightblue" stroke="midnightblue" points="2248.9,-79.3954 2257.98,-73.9371 2247.48,-72.5413 2248.9,-79.3954"/>
</g>
<!-- Node20 -->
<g id="node20" class="node"><title>Node20</title>
<polygon fill="none" stroke="#bfbfbf" points="2319,-56.5 2319,-75.5 2362,-75.5 2362,-56.5 2319,-56.5"/>
<text text-anchor="middle" x="2340.5" y="-63.5" font-family="Helvetica,sans-Serif" font-size="10.00">queue</text>
</g>
<!-- Node7&#45;&gt;Node20 -->
<g id="edge20" class="edge"><title>Node7&#45;&gt;Node20</title>
<path fill="none" stroke="midnightblue" d="M1924.55,-118.938C2003.76,-114.953 2164.76,-104.141 2309.07,-75.9519"/>
<polygon fill="midnightblue" stroke="midnightblue" points="2309.87,-79.3627 2318.99,-73.9811 2308.5,-72.4969 2309.87,-79.3627"/>
</g>
<!-- Node21 -->
<g id="node21" class="node"><title>Node21</title>
<polygon fill="none" stroke="#bfbfbf" points="2380,-56.5 2380,-75.5 2421,-75.5 2421,-56.5 2380,-56.5"/>
<text text-anchor="middle" x="2400.5" y="-63.5" font-family="Helvetica,sans-Serif" font-size="10.00">bitset</text>
</g>
<!-- Node7&#45;&gt;Node21 -->
<g id="edge21" class="edge"><title>Node7&#45;&gt;Node21</title>
<path fill="none" stroke="midnightblue" d="M1924.56,-119.96C2012.41,-117.36 2202.32,-108.389 2369.75,-75.9859"/>
<polygon fill="midnightblue" stroke="midnightblue" points="2370.59,-79.3873 2379.73,-74.0214 2369.24,-72.5192 2370.59,-79.3873"/>
</g>
<!-- Node22 -->
<g id="node22" class="node"><title>Node22</title>
<polygon fill="none" stroke="#bfbfbf" points="2439.5,-56.5 2439.5,-75.5 2495.5,-75.5 2495.5,-56.5 2439.5,-56.5"/>
<text text-anchor="middle" x="2467.5" y="-63.5" font-family="Helvetica,sans-Serif" font-size="10.00">algorithm</text>
</g>
<!-- Node7&#45;&gt;Node22 -->
<g id="edge22" class="edge"><title>Node7&#45;&gt;Node22</title>
<path fill="none" stroke="midnightblue" d="M1924.81,-119.61C2020.43,-116.35 2237.75,-106.189 2429.34,-75.938"/>
<polygon fill="midnightblue" stroke="midnightblue" points="2429.99,-79.3788 2439.31,-74.3418 2428.88,-72.4669 2429.99,-79.3788"/>
</g>
<!-- Node23 -->
<g id="node23" class="node"><title>Node23</title>
<polygon fill="none" stroke="#bfbfbf" points="2514,-56.5 2514,-75.5 2573,-75.5 2573,-56.5 2514,-56.5"/>
<text text-anchor="middle" x="2543.5" y="-63.5" font-family="Helvetica,sans-Serif" font-size="10.00">functional</text>
</g>
<!-- Node7&#45;&gt;Node23 -->
<g id="edge23" class="edge"><title>Node7&#45;&gt;Node23</title>
<path fill="none" stroke="midnightblue" d="M1924.72,-120.076C2029.48,-117.55 2282.33,-108.483 2503.6,-75.8794"/>
<polygon fill="midnightblue" stroke="midnightblue" points="2504.41,-79.2979 2513.78,-74.3593 2503.37,-72.3746 2504.41,-79.2979"/>
</g>
<!-- Node24 -->
<g id="node24" class="node"><title>Node24</title>
<polygon fill="none" stroke="#bfbfbf" points="2591.5,-56.5 2591.5,-75.5 2631.5,-75.5 2631.5,-56.5 2591.5,-56.5"/>
<text text-anchor="middle" x="2611.5" y="-63.5" font-family="Helvetica,sans-Serif" font-size="10.00">limits</text>
</g>
<!-- Node7&#45;&gt;Node24 -->
<g id="edge24" class="edge"><title>Node7&#45;&gt;Node24</title>
<path fill="none" stroke="midnightblue" d="M1924.96,-119.379C2060.67,-114.695 2437.71,-100.031 2581.43,-75.6863"/>
<polygon fill="midnightblue" stroke="midnightblue" points="2582.14,-79.1156 2591.37,-73.9168 2580.91,-72.224 2582.14,-79.1156"/>
</g>
<!-- Node25 -->
<g id="node25" class="node"><title>Node25</title>
<polygon fill="none" stroke="#bfbfbf" points="2649.5,-56.5 2649.5,-75.5 2699.5,-75.5 2699.5,-56.5 2649.5,-56.5"/>
<text text-anchor="middle" x="2674.5" y="-63.5" font-family="Helvetica,sans-Serif" font-size="10.00">fstream</text>
</g>
<!-- Node7&#45;&gt;Node25 -->
<g id="edge25" class="edge"><title>Node7&#45;&gt;Node25</title>
<path fill="none" stroke="midnightblue" d="M1924.64,-121.497C2045.16,-121.993 2364.9,-118.932 2639.22,-75.8667"/>
<polygon fill="midnightblue" stroke="midnightblue" points="2640.04,-79.2799 2649.37,-74.2517 2638.94,-72.3669 2640.04,-79.2799"/>
</g>
<!-- Node26 -->
<g id="node26" class="node"><title>Node26</title>
<polygon fill="none" stroke="#bfbfbf" points="2718,-56.5 2718,-75.5 2763,-75.5 2763,-56.5 2718,-56.5"/>
<text text-anchor="middle" x="2740.5" y="-63.5" font-family="Helvetica,sans-Serif" font-size="10.00">iosfwd</text>
</g>
<!-- Node7&#45;&gt;Node26 -->
<g id="edge26" class="edge"><title>Node7&#45;&gt;Node26</title>
<path fill="none" stroke="midnightblue" d="M1924.68,-119.765C2076.5,-115.732 2537.2,-101.796 2707.82,-75.6354"/>
<polygon fill="midnightblue" stroke="midnightblue" points="2708.59,-79.0568 2717.91,-74.0168 2707.49,-72.1452 2708.59,-79.0568"/>
</g>
<!-- Node27 -->
<g id="node27" class="node"><title>Node27</title>
<polygon fill="none" stroke="#bfbfbf" points="2781.5,-56.5 2781.5,-75.5 2833.5,-75.5 2833.5,-56.5 2781.5,-56.5"/>
<text text-anchor="middle" x="2807.5" y="-63.5" font-family="Helvetica,sans-Serif" font-size="10.00">sstream</text>
</g>
<!-- Node7&#45;&gt;Node27 -->
<g id="edge27" class="edge"><title>Node7&#45;&gt;Node27</title>
<path fill="none" stroke="midnightblue" d="M1924.69,-119.839C2084.32,-115.87 2587.72,-101.723 2771.19,-75.8375"/>
<polygon fill="midnightblue" stroke="midnightblue" points="2771.86,-79.2761 2781.24,-74.3568 2770.84,-72.3507 2771.86,-79.2761"/>
</g>
<!-- Node28 -->
<g id="node28" class="node"><title>Node28</title>
<polygon fill="none" stroke="#bfbfbf" points="701.5,-56.5 701.5,-75.5 769.5,-75.5 769.5,-56.5 701.5,-56.5"/>
<text text-anchor="middle" x="735.5" y="-63.5" font-family="Helvetica,sans-Serif" font-size="10.00">sys/types.h</text>
</g>
<!-- Node7&#45;&gt;Node28 -->
<g id="edge28" class="edge"><title>Node7&#45;&gt;Node28</title>
<path fill="none" stroke="midnightblue" d="M1826.36,-120.065C1643.99,-116.43 1005.36,-102.185 779.787,-75.9064"/>
<polygon fill="midnightblue" stroke="midnightblue" points="780.029,-72.4104 769.682,-74.6862 779.19,-79.3599 780.029,-72.4104"/>
</g>
<!-- Node29 -->
<g id="node29" class="node"><title>Node29</title>
<polygon fill="none" stroke="#bfbfbf" points="787.5,-56.5 787.5,-75.5 847.5,-75.5 847.5,-56.5 787.5,-56.5"/>
<text text-anchor="middle" x="817.5" y="-63.5" font-family="Helvetica,sans-Serif" font-size="10.00">sys/stat.h</text>
</g>
<!-- Node7&#45;&gt;Node29 -->
<g id="edge29" class="edge"><title>Node7&#45;&gt;Node29</title>
<path fill="none" stroke="midnightblue" d="M1826.29,-119.981C1649.69,-116.142 1048.2,-101.464 857.5,-76 857.399,-75.9865 857.297,-75.9728 857.195,-75.959"/>
<polygon fill="midnightblue" stroke="midnightblue" points="857.976,-72.5406 847.538,-74.3578 856.831,-79.4464 857.976,-72.5406"/>
</g>
<!-- Node30 -->
<g id="node30" class="node"><title>Node30</title>
<polygon fill="none" stroke="#bfbfbf" points="866,-56.5 866,-75.5 917,-75.5 917,-56.5 866,-56.5"/>
<text text-anchor="middle" x="891.5" y="-63.5" font-family="Helvetica,sans-Serif" font-size="10.00">unistd.h</text>
</g>
<!-- Node7&#45;&gt;Node30 -->
<g id="edge30" class="edge"><title>Node7&#45;&gt;Node30</title>
<path fill="none" stroke="midnightblue" d="M1826.43,-119.998C1660.76,-116.41 1122.15,-103.036 927.487,-75.7585"/>
<polygon fill="midnightblue" stroke="midnightblue" points="927.773,-72.2632 917.372,-74.2809 926.761,-79.1897 927.773,-72.2632"/>
</g>
<!-- Node31 -->
<g id="node31" class="node"><title>Node31</title>
<polygon fill="none" stroke="#bfbfbf" points="935.5,-56.5 935.5,-75.5 981.5,-75.5 981.5,-56.5 935.5,-56.5"/>
<text text-anchor="middle" x="958.5" y="-63.5" font-family="Helvetica,sans-Serif" font-size="10.00">dlfcn.h</text>
</g>
<!-- Node7&#45;&gt;Node31 -->
<g id="edge31" class="edge"><title>Node7&#45;&gt;Node31</title>
<path fill="none" stroke="midnightblue" d="M1826.39,-119.946C1668.2,-116.331 1172.29,-103.207 991.684,-75.7689"/>
<polygon fill="midnightblue" stroke="midnightblue" points="992.208,-72.3084 981.783,-74.1974 991.111,-79.2218 992.208,-72.3084"/>
</g>
<!-- Node32 -->
<g id="node32" class="node"><title>Node32</title>
<polygon fill="none" stroke="#bfbfbf" points="999.5,-56.5 999.5,-75.5 1077.5,-75.5 1077.5,-56.5 999.5,-56.5"/>
<text text-anchor="middle" x="1038.5" y="-63.5" font-family="Helvetica,sans-Serif" font-size="10.00">ext/hash_map</text>
</g>
<!-- Node7&#45;&gt;Node32 -->
<g id="edge32" class="edge"><title>Node7&#45;&gt;Node32</title>
<path fill="none" stroke="midnightblue" d="M1826.44,-120.32C1703.74,-118.165 1373.59,-109.569 1087.89,-75.8634"/>
<polygon fill="midnightblue" stroke="midnightblue" points="1088.09,-72.3626 1077.75,-74.6538 1087.26,-79.3133 1088.09,-72.3626"/>
</g>
<!-- Node33 -->
<g id="node33" class="node"><title>Node33</title>
<polygon fill="none" stroke="#bfbfbf" points="1096,-56.5 1096,-75.5 1169,-75.5 1169,-56.5 1096,-56.5"/>
<text text-anchor="middle" x="1132.5" y="-63.5" font-family="Helvetica,sans-Serif" font-size="10.00">ext/hash_set</text>
</g>
<!-- Node7&#45;&gt;Node33 -->
<g id="edge33" class="edge"><title>Node7&#45;&gt;Node33</title>
<path fill="none" stroke="midnightblue" d="M1826.28,-119.998C1713.55,-117.234 1427.87,-107.575 1179.04,-75.8817"/>
<polygon fill="midnightblue" stroke="midnightblue" points="1179.45,-72.406 1169.09,-74.5996 1178.56,-79.3486 1179.45,-72.406"/>
</g>
<!-- Node34 -->
<g id="node34" class="node"><title>Node34</title>
<polygon fill="none" stroke="#bfbfbf" points="1187,-56.5 1187,-75.5 1258,-75.5 1258,-56.5 1187,-56.5"/>
<text text-anchor="middle" x="1222.5" y="-63.5" font-family="Helvetica,sans-Serif" font-size="10.00">sys/param.h</text>
</g>
<!-- Node7&#45;&gt;Node34 -->
<g id="edge34" class="edge"><title>Node7&#45;&gt;Node34</title>
<path fill="none" stroke="midnightblue" d="M1826.42,-119.424C1724.39,-115.703 1481.83,-104.551 1268.43,-75.9486"/>
<polygon fill="midnightblue" stroke="midnightblue" points="1268.67,-72.4493 1258.29,-74.5733 1267.73,-79.3857 1268.67,-72.4493"/>
</g>
<!-- Node35 -->
<g id="node35" class="node"><title>Node35</title>
<polygon fill="none" stroke="#bfbfbf" points="1276.5,-56.5 1276.5,-75.5 1442.5,-75.5 1442.5,-56.5 1276.5,-56.5"/>
<text text-anchor="middle" x="1359.5" y="-63.5" font-family="Helvetica,sans-Serif" font-size="10.00">CoreFoundation/CoreFoundation.h</text>
</g>
<!-- Node7&#45;&gt;Node35 -->
<g id="edge35" class="edge"><title>Node7&#45;&gt;Node35</title>
<path fill="none" stroke="midnightblue" d="M1826.49,-115.871C1740.38,-106.859 1560.67,-88.0522 1451.01,-76.5761"/>
<polygon fill="midnightblue" stroke="midnightblue" points="1451.25,-73.0832 1440.94,-75.5233 1450.53,-80.0452 1451.25,-73.0832"/>
</g>
<!-- Node36 -->
<g id="node36" class="node"><title>Node36</title>
<polygon fill="none" stroke="#bfbfbf" points="1460.5,-56.5 1460.5,-75.5 1584.5,-75.5 1584.5,-56.5 1460.5,-56.5"/>
<text text-anchor="middle" x="1522.5" y="-63.5" font-family="Helvetica,sans-Serif" font-size="10.00">emscripten/emscripten.h</text>
</g>
<!-- Node7&#45;&gt;Node36 -->
<g id="edge36" class="edge"><title>Node7&#45;&gt;Node36</title>
<path fill="none" stroke="midnightblue" d="M1826.42,-113.492C1764.3,-103.99 1657.11,-87.5919 1588.05,-77.0267"/>
<polygon fill="midnightblue" stroke="midnightblue" points="1588.56,-73.5643 1578.14,-75.5118 1587.5,-80.4838 1588.56,-73.5643"/>
</g>
<!-- Node38 -->
<g id="node38" class="node"><title>Node38</title>
<g id="a_node38"><a xlink:href="_ogre_memory_allocated_object_8h.html" target="_top" xlink:title="OgreMemoryAllocatedObject.h">
<polygon fill="none" stroke="black" points="381.5,-56.5 381.5,-75.5 531.5,-75.5 531.5,-56.5 381.5,-56.5"/>
<text text-anchor="middle" x="456.5" y="-63.5" font-family="Helvetica,sans-Serif" font-size="10.00">OgreMemoryAllocatedObject.h</text>
</a>
</g>
</g>
<!-- Node37&#45;&gt;Node38 -->
<g id="edge38" class="edge"><title>Node37&#45;&gt;Node38</title>
<path fill="none" stroke="midnightblue" d="M330.268,-112.444C355.393,-103.399 395.211,-89.064 423.4,-78.9158"/>
<polygon fill="midnightblue" stroke="midnightblue" points="424.62,-82.1968 432.843,-75.5164 422.249,-75.6106 424.62,-82.1968"/>
</g>
<!-- Node39 -->
<g id="node39" class="node"><title>Node39</title>
<g id="a_node39"><a xlink:href="_ogre_header_prefix_8h.html" target="_top" xlink:title="OgreHeaderPrefix.h">
<polygon fill="none" stroke="black" points="386,-0.5 386,-19.5 489,-19.5 489,-0.5 386,-0.5"/>
<text text-anchor="middle" x="437.5" y="-7.5" font-family="Helvetica,sans-Serif" font-size="10.00">OgreHeaderPrefix.h</text>
</a>
</g>
</g>
<!-- Node37&#45;&gt;Node39 -->
<g id="edge42" class="edge"><title>Node37&#45;&gt;Node39</title>
<path fill="none" stroke="midnightblue" d="M314.602,-112.097C326.633,-99.0977 350.204,-74.4634 372.5,-56 385.94,-44.87 402.063,-33.6958 414.889,-25.2666"/>
<polygon fill="midnightblue" stroke="midnightblue" points="417.067,-28.0261 423.559,-19.6539 413.263,-22.1497 417.067,-28.0261"/>
</g>
<!-- Node40 -->
<g id="node40" class="node"><title>Node40</title>
<g id="a_node40"><a xlink:href="_ogre_header_suffix_8h.html" target="_top" xlink:title="OgreHeaderSuffix.h">
<polygon fill="none" stroke="black" points="227,-0.5 227,-19.5 330,-19.5 330,-0.5 227,-0.5"/>
<text text-anchor="middle" x="278.5" y="-7.5" font-family="Helvetica,sans-Serif" font-size="10.00">OgreHeaderSuffix.h</text>
</a>
</g>
</g>
<!-- Node37&#45;&gt;Node40 -->
<g id="edge50" class="edge"><title>Node37&#45;&gt;Node40</title>
<path fill="none" stroke="midnightblue" d="M242.104,-112.434C220.143,-106.087 197.796,-95.0762 184.5,-76 167.484,-51.5865 202.672,-33.4683 234.735,-22.6488"/>
<polygon fill="midnightblue" stroke="midnightblue" points="236.06,-25.8998 244.524,-19.5264 233.933,-19.2308 236.06,-25.8998"/>
</g>
<!-- Node41 -->
<g id="node41" class="node"><title>Node41</title>
<g id="a_node41"><a xlink:href="_ogre_memory_s_t_l_allocator_8h.html" target="_top" xlink:title="OgreMemorySTLAllocator.h">
<polygon fill="none" stroke="black" points="0,-56.5 0,-75.5 137,-75.5 137,-56.5 0,-56.5"/>
<text text-anchor="middle" x="68.5" y="-63.5" font-family="Helvetica,sans-Serif" font-size="10.00">OgreMemorySTLAllocator.h</text>
</a>
</g>
</g>
<!-- Node37&#45;&gt;Node41 -->
<g id="edge43" class="edge"><title>Node37&#45;&gt;Node41</title>
<path fill="none" stroke="midnightblue" d="M268.788,-112.444C227.357,-103.043 160.743,-87.9291 115.833,-77.7393"/>
<polygon fill="midnightblue" stroke="midnightblue" points="116.562,-74.3159 106.035,-75.5164 115.013,-81.1424 116.562,-74.3159"/>
</g>
<!-- Node42 -->
<g id="node42" class="node"><title>Node42</title>
<g id="a_node42"><a xlink:href="_ogre_memory_ned_pooling_8h.html" target="_top" xlink:title="OgreMemoryNedPooling.h">
<polygon fill="none" stroke="black" points="194,-56.5 194,-75.5 325,-75.5 325,-56.5 194,-56.5"/>
<text text-anchor="middle" x="259.5" y="-63.5" font-family="Helvetica,sans-Serif" font-size="10.00">OgreMemoryNedPooling.h</text>
</a>
</g>
</g>
<!-- Node37&#45;&gt;Node42 -->
<g id="edge47" class="edge"><title>Node37&#45;&gt;Node42</title>
<path fill="none" stroke="midnightblue" d="M298.739,-112.083C291.963,-104.298 281.957,-92.8015 273.745,-83.3665"/>
<polygon fill="midnightblue" stroke="midnightblue" points="276.322,-80.9963 267.117,-75.7511 271.042,-85.592 276.322,-80.9963"/>
</g>
<!-- Node38&#45;&gt;Node3 -->
<g id="edge39" class="edge"><title>Node38&#45;&gt;Node3</title>
<path fill="none" stroke="midnightblue" d="M466.007,-75.6515C480.682,-88.7634 510.036,-114.039 537.5,-132 555.891,-144.027 577.861,-155.478 594.992,-163.819"/>
<polygon fill="midnightblue" stroke="midnightblue" points="593.925,-167.188 604.455,-168.351 596.948,-160.875 593.925,-167.188"/>
</g>
<!-- Node38&#45;&gt;Node39 -->
<g id="edge40" class="edge"><title>Node38&#45;&gt;Node39</title>
<path fill="none" stroke="midnightblue" d="M453.363,-56.083C450.817,-48.8486 447.144,-38.4087 443.973,-29.3968"/>
<polygon fill="midnightblue" stroke="midnightblue" points="447.2,-28.0225 440.579,-19.7511 440.597,-30.3459 447.2,-28.0225"/>
</g>
<!-- Node38&#45;&gt;Node40 -->
<g id="edge41" class="edge"><title>Node38&#45;&gt;Node40</title>
<path fill="none" stroke="midnightblue" d="M428.295,-56.4435C398.09,-47.2801 349.989,-32.6876 316.471,-22.5192"/>
<polygon fill="midnightblue" stroke="midnightblue" points="317.158,-19.0703 306.573,-19.5164 315.126,-25.7688 317.158,-19.0703"/>
</g>
<!-- Node41&#45;&gt;Node3 -->
<g id="edge44" class="edge"><title>Node41&#45;&gt;Node3</title>
<path fill="none" stroke="midnightblue" d="M84.692,-75.6637C112.303,-90.003 170.647,-118.432 223.5,-132 367.521,-168.972 410.915,-149.603 561.718,-167.844"/>
<polygon fill="midnightblue" stroke="midnightblue" points="561.453,-171.338 571.809,-169.101 562.319,-164.392 561.453,-171.338"/>
</g>
<!-- Node41&#45;&gt;Node39 -->
<g id="edge45" class="edge"><title>Node41&#45;&gt;Node39</title>
<path fill="none" stroke="midnightblue" d="M126.969,-56.4435C194.955,-46.4943 306.676,-30.145 375.951,-20.0072"/>
<polygon fill="midnightblue" stroke="midnightblue" points="376.466,-23.4692 385.854,-18.558 375.452,-16.543 376.466,-23.4692"/>
</g>
<!-- Node41&#45;&gt;Node40 -->
<g id="edge46" class="edge"><title>Node41&#45;&gt;Node40</title>
<path fill="none" stroke="midnightblue" d="M101.775,-56.4435C137.948,-47.1419 195.877,-32.246 235.481,-22.062"/>
<polygon fill="midnightblue" stroke="midnightblue" points="236.567,-25.3966 245.381,-19.5164 234.824,-18.6172 236.567,-25.3966"/>
</g>
<!-- Node42&#45;&gt;Node39 -->
<g id="edge48" class="edge"><title>Node42&#45;&gt;Node39</title>
<path fill="none" stroke="midnightblue" d="M287.705,-56.4435C317.91,-47.2801 366.011,-32.6876 399.529,-22.5192"/>
<polygon fill="midnightblue" stroke="midnightblue" points="400.874,-25.7688 409.427,-19.5164 398.842,-19.0703 400.874,-25.7688"/>
</g>
<!-- Node42&#45;&gt;Node40 -->
<g id="edge49" class="edge"><title>Node42&#45;&gt;Node40</title>
<path fill="none" stroke="midnightblue" d="M262.637,-56.083C265.183,-48.8486 268.856,-38.4087 272.027,-29.3968"/>
<polygon fill="midnightblue" stroke="midnightblue" points="275.403,-30.3459 275.421,-19.7511 268.8,-28.0225 275.403,-30.3459"/>
</g>
<!-- Node48&#45;&gt;Node3 -->
<g id="edge58" class="edge"><title>Node48&#45;&gt;Node3</title>
<path fill="none" stroke="midnightblue" d="M2032.64,-230.799C1795.92,-222.098 926.469,-190.137 685.679,-181.286"/>
<polygon fill="midnightblue" stroke="midnightblue" points="685.483,-177.776 675.361,-180.906 685.226,-184.771 685.483,-177.776"/>
</g>
<!-- Node49 -->
<g id="node49" class="node"><title>Node49</title>
<g id="a_node49"><a xlink:href="_ogre_iterator_wrapper_8h.html" target="_top" xlink:title="OgreIteratorWrapper.h">
<polygon fill="none" stroke="black" points="2975,-56.5 2975,-75.5 3088,-75.5 3088,-56.5 2975,-56.5"/>
<text text-anchor="middle" x="3031.5" y="-63.5" font-family="Helvetica,sans-Serif" font-size="10.00">OgreIteratorWrapper.h</text>
</a>
</g>
</g>
<!-- Node48&#45;&gt;Node49 -->
<g id="edge59" class="edge"><title>Node48&#45;&gt;Node49</title>
<path fill="none" stroke="midnightblue" d="M2146.3,-224.491C2201.77,-215.648 2290.75,-201.271 2367.5,-188 2593.62,-148.9 2862.37,-98.8108 2976.19,-77.4282"/>
<polygon fill="midnightblue" stroke="midnightblue" points="2976.88,-80.8588 2986.07,-75.5717 2975.59,-73.9793 2976.88,-80.8588"/>
</g>
<!-- Node50 -->
<g id="node50" class="node"><title>Node50</title>
<g id="a_node50"><a xlink:href="_ogre_iterator_range_8h.html" target="_top" xlink:title="OgreIteratorRange.h">
<polygon fill="none" stroke="black" points="2852,-56.5 2852,-75.5 2957,-75.5 2957,-56.5 2852,-56.5"/>
<text text-anchor="middle" x="2904.5" y="-63.5" font-family="Helvetica,sans-Serif" font-size="10.00">OgreIteratorRange.h</text>
</a>
</g>
</g>
<!-- Node48&#45;&gt;Node50 -->
<g id="edge62" class="edge"><title>Node48&#45;&gt;Node50</title>
<path fill="none" stroke="midnightblue" d="M2134.16,-224.482C2270.5,-196.611 2703.14,-108.165 2852.89,-77.5505"/>
<polygon fill="midnightblue" stroke="midnightblue" points="2853.66,-80.9653 2862.76,-75.5332 2852.26,-74.1072 2853.66,-80.9653"/>
</g>
<!-- Node49&#45;&gt;Node39 -->
<g id="edge60" class="edge"><title>Node49&#45;&gt;Node39</title>
<path fill="none" stroke="midnightblue" d="M2974.82,-56.7453C2972.01,-56.4637 2969.23,-56.2122 2966.5,-56 2465.2,-16.9762 837.053,-11.76 499.222,-11.0938"/>
<polygon fill="midnightblue" stroke="midnightblue" points="499.146,-7.59379 489.14,-11.0746 499.133,-14.5938 499.146,-7.59379"/>
</g>
<!-- Node49&#45;&gt;Node40 -->
<g id="edge61" class="edge"><title>Node49&#45;&gt;Node40</title>
<path fill="none" stroke="midnightblue" d="M2974.82,-56.7322C2972.01,-56.4541 2969.23,-56.2069 2966.5,-56 1818.58,31.1134 1526.12,-80.6865 376.5,-20 364.703,-19.3773 352.13,-18.4344 340.061,-17.3898"/>
<polygon fill="midnightblue" stroke="midnightblue" points="340.342,-13.901 330.069,-16.4932 339.716,-20.873 340.342,-13.901"/>
</g>
<!-- Node50&#45;&gt;Node39 -->
<g id="edge63" class="edge"><title>Node50&#45;&gt;Node39</title>
<path fill="none" stroke="midnightblue" d="M2851.79,-56.8889C2848.65,-56.5489 2845.54,-56.2477 2842.5,-56 2367.44,-17.2294 827.369,-11.8215 499.315,-11.1049"/>
<polygon fill="midnightblue" stroke="midnightblue" points="499.067,-7.60445 489.06,-11.0832 499.052,-14.6044 499.067,-7.60445"/>
</g>
<!-- Node50&#45;&gt;Node40 -->
<g id="edge64" class="edge"><title>Node50&#45;&gt;Node40</title>
<path fill="none" stroke="midnightblue" d="M2851.79,-56.8741C2848.65,-56.5378 2845.54,-56.2415 2842.5,-56 1749.83,30.914 1471.07,-78.1641 376.5,-20 364.704,-19.3732 352.131,-18.4284 340.061,-17.3832"/>
<polygon fill="midnightblue" stroke="midnightblue" points="340.342,-13.8945 330.069,-16.4864 339.716,-20.8664 340.342,-13.8945"/>
</g>
</g>
</svg>
