<?xml version="1.0" encoding="UTF-8" standalone="no"?>
<!DOCTYPE svg PUBLIC "-//W3C//DTD SVG 1.1//EN"
 "http://www.w3.org/Graphics/SVG/1.1/DTD/svg11.dtd">
<!-- Generated by graphviz version 2.38.0 (20140413.2041)
 -->
<!-- Title: OgreGLNativeSupport.h Pages: 1 -->
<svg width="3473pt" height="252pt"
 viewBox="0.00 0.00 3472.50 252.00" xmlns="http://www.w3.org/2000/svg" xmlns:xlink="http://www.w3.org/1999/xlink">
<g id="graph0" class="graph" transform="scale(1 1) rotate(0) translate(4 248)">
<title>OgreGLNativeSupport.h</title>
<!-- Node1 -->
<g id="node1" class="node"><title>Node1</title>
<polygon fill="#bfbfbf" stroke="black" points="2077,-224.5 2077,-243.5 2198,-243.5 2198,-224.5 2077,-224.5"/>
<text text-anchor="middle" x="2137.5" y="-231.5" font-family="Helvetica,sans-Serif" font-size="10.00">OgreGLNativeSupport.h</text>
</g>
<!-- Node2 -->
<g id="node2" class="node"><title>Node2</title>
<g id="a_node2"><a xlink:href="_ogre_g_l_support_8h.html" target="_top" xlink:title="OgreGLSupport.h">
<polygon fill="none" stroke="black" points="168.5,-168.5 168.5,-187.5 260.5,-187.5 260.5,-168.5 168.5,-168.5"/>
<text text-anchor="middle" x="214.5" y="-175.5" font-family="Helvetica,sans-Serif" font-size="10.00">OgreGLSupport.h</text>
</a>
</g>
</g>
<!-- Node1&#45;&gt;Node2 -->
<g id="edge1" class="edge"><title>Node1&#45;&gt;Node2</title>
<path fill="none" stroke="midnightblue" d="M2066.67,-231.089C1840.54,-224.978 1115.56,-205.295 515.5,-188 425.223,-185.398 319.721,-182.209 260.65,-180.411"/>
<polygon fill="midnightblue" stroke="midnightblue" points="2066.65,-234.59 2076.74,-231.362 2066.84,-227.593 2066.65,-234.59"/>
</g>
<!-- Node8 -->
<g id="node8" class="node"><title>Node8</title>
<g id="a_node8"><a xlink:href="_ogre_g_l3_plus_support_8h.html" target="_top" xlink:title="OgreGL3PlusSupport.h">
<polygon fill="none" stroke="black" points="525,-168.5 525,-187.5 642,-187.5 642,-168.5 525,-168.5"/>
<text text-anchor="middle" x="583.5" y="-175.5" font-family="Helvetica,sans-Serif" font-size="10.00">OgreGL3PlusSupport.h</text>
</a>
</g>
</g>
<!-- Node1&#45;&gt;Node8 -->
<g id="edge8" class="edge"><title>Node1&#45;&gt;Node8</title>
<path fill="none" stroke="midnightblue" d="M2066.37,-230.528C1802.77,-221.368 884.348,-189.454 642.33,-181.044"/>
<polygon fill="midnightblue" stroke="midnightblue" points="2066.47,-234.034 2076.58,-230.883 2066.71,-227.038 2066.47,-234.034"/>
</g>
<!-- Node12 -->
<g id="node12" class="node"><title>Node12</title>
<g id="a_node12"><a xlink:href="_ogre_g_l_e_s2_support_8h.html" target="_top" xlink:title="OgreGLES2Support.h">
<polygon fill="none" stroke="black" points="1173,-168.5 1173,-187.5 1284,-187.5 1284,-168.5 1173,-168.5"/>
<text text-anchor="middle" x="1228.5" y="-175.5" font-family="Helvetica,sans-Serif" font-size="10.00">OgreGLES2Support.h</text>
</a>
</g>
</g>
<!-- Node1&#45;&gt;Node12 -->
<g id="edge13" class="edge"><title>Node1&#45;&gt;Node12</title>
<path fill="none" stroke="midnightblue" d="M2066.68,-228.793C1891.7,-218.398 1441.76,-191.669 1284.09,-182.302"/>
<polygon fill="midnightblue" stroke="midnightblue" points="2066.61,-232.295 2076.8,-229.394 2067.03,-225.307 2066.61,-232.295"/>
</g>
<!-- Node22 -->
<g id="node22" class="node"><title>Node22</title>
<g id="a_node22"><a xlink:href="_g_l_support_2include_2_e_g_l_2_ogre_e_g_l_support_8h.html" target="_top" xlink:title="OgreEGLSupport.h">
<polygon fill="none" stroke="black" points="2026,-168.5 2026,-187.5 2125,-187.5 2125,-168.5 2026,-168.5"/>
<text text-anchor="middle" x="2075.5" y="-175.5" font-family="Helvetica,sans-Serif" font-size="10.00">OgreEGLSupport.h</text>
</a>
</g>
</g>
<!-- Node1&#45;&gt;Node22 -->
<g id="edge24" class="edge"><title>Node1&#45;&gt;Node22</title>
<path fill="none" stroke="midnightblue" d="M2119.75,-217.537C2108.69,-207.909 2094.87,-195.869 2085.64,-187.834"/>
<polygon fill="midnightblue" stroke="midnightblue" points="2117.7,-220.395 2127.54,-224.324 2122.3,-215.117 2117.7,-220.395"/>
</g>
<!-- Node45 -->
<g id="node45" class="node"><title>Node45</title>
<g id="a_node45"><a xlink:href="_ogre_g_l_x_g_l_support_8h.html" target="_top" xlink:title="OgreGLXGLSupport.h">
<polygon fill="none" stroke="black" points="2143.5,-168.5 2143.5,-187.5 2255.5,-187.5 2255.5,-168.5 2143.5,-168.5"/>
<text text-anchor="middle" x="2199.5" y="-175.5" font-family="Helvetica,sans-Serif" font-size="10.00">OgreGLXGLSupport.h</text>
</a>
</g>
</g>
<!-- Node1&#45;&gt;Node45 -->
<g id="edge58" class="edge"><title>Node1&#45;&gt;Node45</title>
<path fill="none" stroke="midnightblue" d="M2155.25,-217.537C2166.31,-207.909 2180.13,-195.869 2189.36,-187.834"/>
<polygon fill="midnightblue" stroke="midnightblue" points="2152.7,-215.117 2147.46,-224.324 2157.3,-220.395 2152.7,-215.117"/>
</g>
<!-- Node48 -->
<g id="node48" class="node"><title>Node48</title>
<g id="a_node48"><a xlink:href="_ogre_g_l_util_8h.html" target="_top" xlink:title="OgreGLUtil.h">
<polygon fill="none" stroke="black" points="2273.5,-168.5 2273.5,-187.5 2347.5,-187.5 2347.5,-168.5 2273.5,-168.5"/>
<text text-anchor="middle" x="2310.5" y="-175.5" font-family="Helvetica,sans-Serif" font-size="10.00">OgreGLUtil.h</text>
</a>
</g>
</g>
<!-- Node1&#45;&gt;Node48 -->
<g id="edge62" class="edge"><title>Node1&#45;&gt;Node48</title>
<path fill="none" stroke="midnightblue" d="M2174.55,-221.436C2207.16,-211.255 2253.91,-196.664 2283.22,-187.516"/>
<polygon fill="midnightblue" stroke="midnightblue" points="2173.42,-218.123 2164.91,-224.444 2175.5,-224.805 2173.42,-218.123"/>
</g>
<!-- Node49 -->
<g id="node49" class="node"><title>Node49</title>
<g id="a_node49"><a xlink:href="_ogre_o_s_x_g_l_support_8h.html" target="_top" xlink:title="OgreOSXGLSupport.h">
<polygon fill="none" stroke="black" points="2366,-168.5 2366,-187.5 2479,-187.5 2479,-168.5 2366,-168.5"/>
<text text-anchor="middle" x="2422.5" y="-175.5" font-family="Helvetica,sans-Serif" font-size="10.00">OgreOSXGLSupport.h</text>
</a>
</g>
</g>
<!-- Node1&#45;&gt;Node49 -->
<g id="edge63" class="edge"><title>Node1&#45;&gt;Node49</title>
<path fill="none" stroke="midnightblue" d="M2192.72,-222.537C2246.58,-212.332 2327.5,-196.999 2377.55,-187.516"/>
<polygon fill="midnightblue" stroke="midnightblue" points="2191.83,-219.143 2182.66,-224.444 2193.14,-226.021 2191.83,-219.143"/>
</g>
<!-- Node50 -->
<g id="node50" class="node"><title>Node50</title>
<g id="a_node50"><a xlink:href="_ogre_win32_g_l_support_8h.html" target="_top" xlink:title="OgreWin32GLSupport.h">
<polygon fill="none" stroke="black" points="2497.5,-168.5 2497.5,-187.5 2617.5,-187.5 2617.5,-168.5 2497.5,-168.5"/>
<text text-anchor="middle" x="2557.5" y="-175.5" font-family="Helvetica,sans-Serif" font-size="10.00">OgreWin32GLSupport.h</text>
</a>
</g>
</g>
<!-- Node1&#45;&gt;Node50 -->
<g id="edge64" class="edge"><title>Node1&#45;&gt;Node50</title>
<path fill="none" stroke="midnightblue" d="M2208.24,-223.905C2289.32,-213.48 2420.83,-196.572 2497.24,-186.748"/>
<polygon fill="midnightblue" stroke="midnightblue" points="2207.6,-220.459 2198.12,-225.206 2208.49,-227.402 2207.6,-220.459"/>
</g>
<!-- Node3 -->
<g id="node3" class="node"><title>Node3</title>
<g id="a_node3"><a xlink:href="_ogre_g_l_a_t_i_f_s_init_8h.html" target="_top" xlink:title="OgreGLATIFSInit.h">
<polygon fill="none" stroke="black" points="12,-112.5 12,-131.5 113,-131.5 113,-112.5 12,-112.5"/>
<text text-anchor="middle" x="62.5" y="-119.5" font-family="Helvetica,sans-Serif" font-size="10.00">OgreGLATIFSInit.h</text>
</a>
</g>
</g>
<!-- Node2&#45;&gt;Node3 -->
<g id="edge2" class="edge"><title>Node2&#45;&gt;Node3</title>
<path fill="none" stroke="midnightblue" d="M180.832,-165.039C152.232,-154.879 111.888,-140.546 86.4722,-131.516"/>
<polygon fill="midnightblue" stroke="midnightblue" points="179.82,-168.394 190.415,-168.444 182.164,-161.798 179.82,-168.394"/>
</g>
<!-- Node4 -->
<g id="node4" class="node"><title>Node4</title>
<g id="a_node4"><a xlink:href="_ogre_g_l_texture_8h.html" target="_top" xlink:title="OgreGLTexture.h">
<polygon fill="none" stroke="black" points="131.5,-112.5 131.5,-131.5 223.5,-131.5 223.5,-112.5 131.5,-112.5"/>
<text text-anchor="middle" x="177.5" y="-119.5" font-family="Helvetica,sans-Serif" font-size="10.00">OgreGLTexture.h</text>
</a>
</g>
</g>
<!-- Node2&#45;&gt;Node4 -->
<g id="edge3" class="edge"><title>Node2&#45;&gt;Node4</title>
<path fill="none" stroke="midnightblue" d="M202.554,-159.566C196.188,-150.275 188.633,-139.248 183.496,-131.751"/>
<polygon fill="midnightblue" stroke="midnightblue" points="199.851,-161.812 208.39,-168.083 205.625,-157.855 199.851,-161.812"/>
</g>
<!-- Node7 -->
<g id="node7" class="node"><title>Node7</title>
<g id="a_node7"><a xlink:href="_ogre_g_l_texture_manager_8h.html" target="_top" xlink:title="OgreGLTextureManager.h">
<polygon fill="none" stroke="black" points="150,-56.5 150,-75.5 279,-75.5 279,-56.5 150,-56.5"/>
<text text-anchor="middle" x="214.5" y="-63.5" font-family="Helvetica,sans-Serif" font-size="10.00">OgreGLTextureManager.h</text>
</a>
</g>
</g>
<!-- Node2&#45;&gt;Node7 -->
<g id="edge7" class="edge"><title>Node2&#45;&gt;Node7</title>
<path fill="none" stroke="midnightblue" d="M223.439,-159.195C227.017,-151.111 230.71,-141.295 232.5,-132 236.442,-111.533 226.2,-88.1032 219.593,-75.7256"/>
<polygon fill="midnightblue" stroke="midnightblue" points="220.227,-157.802 219.121,-168.339 226.556,-160.791 220.227,-157.802"/>
</g>
<!-- Node5 -->
<g id="node5" class="node"><title>Node5</title>
<g id="a_node5"><a xlink:href="_ogre_g_l_render_texture_8h.html" target="_top" xlink:title="OgreGLRenderTexture.h">
<polygon fill="none" stroke="red" points="9,-56.5 9,-75.5 132,-75.5 132,-56.5 9,-56.5"/>
<text text-anchor="middle" x="70.5" y="-63.5" font-family="Helvetica,sans-Serif" font-size="10.00">OgreGLRenderTexture.h</text>
</a>
</g>
</g>
<!-- Node4&#45;&gt;Node5 -->
<g id="edge4" class="edge"><title>Node4&#45;&gt;Node5</title>
<path fill="none" stroke="midnightblue" d="M151.198,-107.726C131.385,-97.7271 104.793,-84.3065 87.6487,-75.6545"/>
<polygon fill="midnightblue" stroke="midnightblue" points="149.804,-110.943 160.309,-112.324 152.958,-104.694 149.804,-110.943"/>
</g>
<!-- Node4&#45;&gt;Node7 -->
<g id="edge6" class="edge"><title>Node4&#45;&gt;Node7</title>
<path fill="none" stroke="midnightblue" d="M189.446,-103.566C195.812,-94.2747 203.367,-83.2484 208.504,-75.7511"/>
<polygon fill="midnightblue" stroke="midnightblue" points="186.375,-101.855 183.61,-112.083 192.149,-105.812 186.375,-101.855"/>
</g>
<!-- Node6 -->
<g id="node6" class="node"><title>Node6</title>
<g id="a_node6"><a xlink:href="_ogre_g_l_frame_buffer_object_8h.html" target="_top" xlink:title="OgreGLFrameBufferObject.h">
<polygon fill="none" stroke="red" points="0,-0.5 0,-19.5 141,-19.5 141,-0.5 0,-0.5"/>
<text text-anchor="middle" x="70.5" y="-7.5" font-family="Helvetica,sans-Serif" font-size="10.00">OgreGLFrameBufferObject.h</text>
</a>
</g>
</g>
<!-- Node5&#45;&gt;Node6 -->
<g id="edge5" class="edge"><title>Node5&#45;&gt;Node6</title>
<path fill="none" stroke="midnightblue" d="M70.5,-45.8045C70.5,-36.9102 70.5,-26.7798 70.5,-19.7511"/>
<polygon fill="midnightblue" stroke="midnightblue" points="67.0001,-46.083 70.5,-56.083 74.0001,-46.083 67.0001,-46.083"/>
</g>
<!-- Node9 -->
<g id="node9" class="node"><title>Node9</title>
<g id="a_node9"><a xlink:href="_ogre_g_l3_plus_texture_8h.html" target="_top" xlink:title="OgreGL3PlusTexture.h">
<polygon fill="none" stroke="black" points="439.5,-112.5 439.5,-131.5 555.5,-131.5 555.5,-112.5 439.5,-112.5"/>
<text text-anchor="middle" x="497.5" y="-119.5" font-family="Helvetica,sans-Serif" font-size="10.00">OgreGL3PlusTexture.h</text>
</a>
</g>
</g>
<!-- Node8&#45;&gt;Node9 -->
<g id="edge9" class="edge"><title>Node8&#45;&gt;Node9</title>
<path fill="none" stroke="midnightblue" d="M561.045,-162.901C545.276,-152.999 524.686,-140.071 511.283,-131.655"/>
<polygon fill="midnightblue" stroke="midnightblue" points="559.352,-165.97 569.683,-168.324 563.075,-160.042 559.352,-165.97"/>
</g>
<!-- Node11 -->
<g id="node11" class="node"><title>Node11</title>
<g id="a_node11"><a xlink:href="_ogre_g_l3_plus_texture_manager_8h.html" target="_top" xlink:title="OgreGL3PlusTextureManager.h">
<polygon fill="none" stroke="black" points="463.5,-56.5 463.5,-75.5 617.5,-75.5 617.5,-56.5 463.5,-56.5"/>
<text text-anchor="middle" x="540.5" y="-63.5" font-family="Helvetica,sans-Serif" font-size="10.00">OgreGL3PlusTextureManager.h</text>
</a>
</g>
</g>
<!-- Node8&#45;&gt;Node11 -->
<g id="edge12" class="edge"><title>Node8&#45;&gt;Node11</title>
<path fill="none" stroke="midnightblue" d="M579.205,-158.622C575.86,-145.413 570.742,-127.309 564.5,-112 559.151,-98.8819 551.113,-84.5833 545.837,-75.7041"/>
<polygon fill="midnightblue" stroke="midnightblue" points="575.818,-159.507 581.583,-168.396 582.62,-157.852 575.818,-159.507"/>
</g>
<!-- Node10 -->
<g id="node10" class="node"><title>Node10</title>
<g id="a_node10"><a xlink:href="_ogre_g_l3_plus_render_texture_8h.html" target="_top" xlink:title="OgreGL3PlusRenderTexture.h">
<polygon fill="none" stroke="red" points="297.5,-56.5 297.5,-75.5 445.5,-75.5 445.5,-56.5 297.5,-56.5"/>
<text text-anchor="middle" x="371.5" y="-63.5" font-family="Helvetica,sans-Serif" font-size="10.00">OgreGL3PlusRenderTexture.h</text>
</a>
</g>
</g>
<!-- Node9&#45;&gt;Node10 -->
<g id="edge10" class="edge"><title>Node9&#45;&gt;Node10</title>
<path fill="none" stroke="midnightblue" d="M468.34,-108.503C444.719,-98.3795 412.072,-84.388 391.372,-75.5164"/>
<polygon fill="midnightblue" stroke="midnightblue" points="466.965,-111.721 477.535,-112.444 469.722,-105.287 466.965,-111.721"/>
</g>
<!-- Node9&#45;&gt;Node11 -->
<g id="edge11" class="edge"><title>Node9&#45;&gt;Node11</title>
<path fill="none" stroke="midnightblue" d="M510.922,-104.144C518.414,-94.7357 527.437,-83.4046 533.532,-75.7511"/>
<polygon fill="midnightblue" stroke="midnightblue" points="508.092,-102.08 504.601,-112.083 513.568,-106.44 508.092,-102.08"/>
</g>
<!-- Node13 -->
<g id="node13" class="node"><title>Node13</title>
<g id="a_node13"><a xlink:href="_ogre_e_a_g_l2_support_8h.html" target="_top" xlink:title="OgreEAGL2Support.h">
<polygon fill="none" stroke="black" points="786,-112.5 786,-131.5 897,-131.5 897,-112.5 786,-112.5"/>
<text text-anchor="middle" x="841.5" y="-119.5" font-family="Helvetica,sans-Serif" font-size="10.00">OgreEAGL2Support.h</text>
</a>
</g>
</g>
<!-- Node12&#45;&gt;Node13 -->
<g id="edge14" class="edge"><title>Node12&#45;&gt;Node13</title>
<path fill="none" stroke="midnightblue" d="M1162.4,-167.777C1087.62,-157.342 967.142,-140.532 897.029,-130.748"/>
<polygon fill="midnightblue" stroke="midnightblue" points="1162.25,-171.29 1172.64,-169.206 1163.22,-164.357 1162.25,-171.29"/>
</g>
<!-- Node16 -->
<g id="node16" class="node"><title>Node16</title>
<g id="a_node16"><a xlink:href="_ogre_na_cl_g_l_support_8h.html" target="_top" xlink:title="OgreNaClGLSupport.h">
<polygon fill="none" stroke="black" points="1010,-112.5 1010,-131.5 1125,-131.5 1125,-112.5 1010,-112.5"/>
<text text-anchor="middle" x="1067.5" y="-119.5" font-family="Helvetica,sans-Serif" font-size="10.00">OgreNaClGLSupport.h</text>
</a>
</g>
</g>
<!-- Node12&#45;&gt;Node16 -->
<g id="edge17" class="edge"><title>Node12&#45;&gt;Node16</title>
<path fill="none" stroke="midnightblue" d="M1193.24,-165.172C1162.92,-155.004 1119.93,-140.585 1092.89,-131.516"/>
<polygon fill="midnightblue" stroke="midnightblue" points="1192.4,-168.582 1202.99,-168.444 1194.62,-161.945 1192.4,-168.582"/>
</g>
<!-- Node19 -->
<g id="node19" class="node"><title>Node19</title>
<g id="a_node19"><a xlink:href="_ogre_g_l_e_s2_texture_8h.html" target="_top" xlink:title="OgreGLES2Texture.h">
<polygon fill="none" stroke="black" points="1173.5,-112.5 1173.5,-131.5 1283.5,-131.5 1283.5,-112.5 1173.5,-112.5"/>
<text text-anchor="middle" x="1228.5" y="-119.5" font-family="Helvetica,sans-Serif" font-size="10.00">OgreGLES2Texture.h</text>
</a>
</g>
</g>
<!-- Node12&#45;&gt;Node19 -->
<g id="edge20" class="edge"><title>Node12&#45;&gt;Node19</title>
<path fill="none" stroke="midnightblue" d="M1228.5,-157.805C1228.5,-148.91 1228.5,-138.78 1228.5,-131.751"/>
<polygon fill="midnightblue" stroke="midnightblue" points="1225,-158.083 1228.5,-168.083 1232,-158.083 1225,-158.083"/>
</g>
<!-- Node21 -->
<g id="node21" class="node"><title>Node21</title>
<g id="a_node21"><a xlink:href="_ogre_g_l_e_s2_texture_manager_8h.html" target="_top" xlink:title="OgreGLES2TextureManager.h">
<polygon fill="none" stroke="black" points="1297.5,-56.5 1297.5,-75.5 1445.5,-75.5 1445.5,-56.5 1297.5,-56.5"/>
<text text-anchor="middle" x="1371.5" y="-63.5" font-family="Helvetica,sans-Serif" font-size="10.00">OgreGLES2TextureManager.h</text>
</a>
</g>
</g>
<!-- Node12&#45;&gt;Node21 -->
<g id="edge23" class="edge"><title>Node12&#45;&gt;Node21</title>
<path fill="none" stroke="midnightblue" d="M1249.9,-162.549C1262.48,-153.913 1278.59,-142.592 1292.5,-132 1317.94,-112.636 1346.66,-88.3675 1361.47,-75.6648"/>
<polygon fill="midnightblue" stroke="midnightblue" points="1247.74,-159.787 1241.45,-168.315 1251.69,-165.57 1247.74,-159.787"/>
</g>
<!-- Node14 -->
<g id="node14" class="node"><title>Node14</title>
<g id="a_node14"><a xlink:href="_ogre_e_a_g_l2_view_controller_8h.html" target="_top" xlink:title="OgreEAGL2ViewController.h">
<polygon fill="none" stroke="black" points="636,-56.5 636,-75.5 777,-75.5 777,-56.5 636,-56.5"/>
<text text-anchor="middle" x="706.5" y="-63.5" font-family="Helvetica,sans-Serif" font-size="10.00">OgreEAGL2ViewController.h</text>
</a>
</g>
</g>
<!-- Node13&#45;&gt;Node14 -->
<g id="edge15" class="edge"><title>Node13&#45;&gt;Node14</title>
<path fill="none" stroke="midnightblue" d="M810.594,-108.638C785.26,-98.504 750.069,-84.4274 727.791,-75.5164"/>
<polygon fill="midnightblue" stroke="midnightblue" points="809.524,-111.979 820.109,-112.444 812.124,-105.48 809.524,-111.979"/>
</g>
<!-- Node15 -->
<g id="node15" class="node"><title>Node15</title>
<g id="a_node15"><a xlink:href="_e_a_g_l_2_ogre_g_l_e_s2_util_8h.html" target="_top" xlink:title="OgreGLES2Util.h">
<polygon fill="none" stroke="black" points="795.5,-56.5 795.5,-75.5 887.5,-75.5 887.5,-56.5 795.5,-56.5"/>
<text text-anchor="middle" x="841.5" y="-63.5" font-family="Helvetica,sans-Serif" font-size="10.00">OgreGLES2Util.h</text>
</a>
</g>
</g>
<!-- Node13&#45;&gt;Node15 -->
<g id="edge16" class="edge"><title>Node13&#45;&gt;Node15</title>
<path fill="none" stroke="midnightblue" d="M841.5,-101.805C841.5,-92.9102 841.5,-82.7798 841.5,-75.7511"/>
<polygon fill="midnightblue" stroke="midnightblue" points="838,-102.083 841.5,-112.083 845,-102.083 838,-102.083"/>
</g>
<!-- Node17 -->
<g id="node17" class="node"><title>Node17</title>
<g id="a_node17"><a xlink:href="_na_cl_2_ogre_g_l_e_s2_util_8h.html" target="_top" xlink:title="OgreGLES2Util.h">
<polygon fill="none" stroke="black" points="905.5,-56.5 905.5,-75.5 997.5,-75.5 997.5,-56.5 905.5,-56.5"/>
<text text-anchor="middle" x="951.5" y="-63.5" font-family="Helvetica,sans-Serif" font-size="10.00">OgreGLES2Util.h</text>
</a>
</g>
</g>
<!-- Node16&#45;&gt;Node17 -->
<g id="edge18" class="edge"><title>Node16&#45;&gt;Node17</title>
<path fill="none" stroke="midnightblue" d="M1039.78,-108.096C1018.11,-98.0073 988.598,-84.2697 969.795,-75.5164"/>
<polygon fill="midnightblue" stroke="midnightblue" points="1038.58,-111.396 1049.12,-112.444 1041.53,-105.05 1038.58,-111.396"/>
</g>
<!-- Node18 -->
<g id="node18" class="node"><title>Node18</title>
<g id="a_node18"><a xlink:href="_ogre_na_cl_window_8h.html" target="_top" xlink:title="OgreNaClWindow.h">
<polygon fill="none" stroke="red" points="1015.5,-56.5 1015.5,-75.5 1119.5,-75.5 1119.5,-56.5 1015.5,-56.5"/>
<text text-anchor="middle" x="1067.5" y="-63.5" font-family="Helvetica,sans-Serif" font-size="10.00">OgreNaClWindow.h</text>
</a>
</g>
</g>
<!-- Node16&#45;&gt;Node18 -->
<g id="edge19" class="edge"><title>Node16&#45;&gt;Node18</title>
<path fill="none" stroke="midnightblue" d="M1067.5,-101.805C1067.5,-92.9102 1067.5,-82.7798 1067.5,-75.7511"/>
<polygon fill="midnightblue" stroke="midnightblue" points="1064,-102.083 1067.5,-112.083 1071,-102.083 1064,-102.083"/>
</g>
<!-- Node20 -->
<g id="node20" class="node"><title>Node20</title>
<g id="a_node20"><a xlink:href="_ogre_g_l_e_s2_render_texture_8h.html" target="_top" xlink:title="OgreGLES2RenderTexture.h">
<polygon fill="none" stroke="red" points="1137.5,-56.5 1137.5,-75.5 1279.5,-75.5 1279.5,-56.5 1137.5,-56.5"/>
<text text-anchor="middle" x="1208.5" y="-63.5" font-family="Helvetica,sans-Serif" font-size="10.00">OgreGLES2RenderTexture.h</text>
</a>
</g>
</g>
<!-- Node19&#45;&gt;Node20 -->
<g id="edge21" class="edge"><title>Node19&#45;&gt;Node20</title>
<path fill="none" stroke="midnightblue" d="M1221.72,-102.69C1218.35,-93.589 1214.43,-83.0141 1211.74,-75.7511"/>
<polygon fill="midnightblue" stroke="midnightblue" points="1218.44,-103.921 1225.2,-112.083 1225.01,-101.49 1218.44,-103.921"/>
</g>
<!-- Node19&#45;&gt;Node21 -->
<g id="edge22" class="edge"><title>Node19&#45;&gt;Node21</title>
<path fill="none" stroke="midnightblue" d="M1260.53,-108.906C1287.41,-98.7536 1325.14,-84.5063 1348.95,-75.5164"/>
<polygon fill="midnightblue" stroke="midnightblue" points="1259.28,-105.636 1251.16,-112.444 1261.75,-112.185 1259.28,-105.636"/>
</g>
<!-- Node23 -->
<g id="node23" class="node"><title>Node23</title>
<g id="a_node23"><a xlink:href="_g_l_e_s_2include_2_e_g_l_2_android_2_ogre_android_e_g_l_support_8h.html" target="_top" xlink:title="OgreAndroidEGLSupport.h">
<polygon fill="none" stroke="black" points="1570.5,-112.5 1570.5,-131.5 1702.5,-131.5 1702.5,-112.5 1570.5,-112.5"/>
<text text-anchor="middle" x="1636.5" y="-119.5" font-family="Helvetica,sans-Serif" font-size="10.00">OgreAndroidEGLSupport.h</text>
</a>
</g>
</g>
<!-- Node22&#45;&gt;Node23 -->
<g id="edge25" class="edge"><title>Node22&#45;&gt;Node23</title>
<path fill="none" stroke="midnightblue" d="M2015.87,-169.665C1934.08,-159.605 1787.61,-141.588 1702.58,-131.128"/>
<polygon fill="midnightblue" stroke="midnightblue" points="2015.64,-173.163 2025.99,-170.91 2016.5,-166.216 2015.64,-173.163"/>
</g>
<!-- Node26 -->
<g id="node26" class="node"><title>Node26</title>
<g id="a_node26"><a xlink:href="_g_l_e_s_2include_2_e_g_l_2_w_i_n32_2_ogre_win32_e_g_l_support_8h.html" target="_top" xlink:title="OgreWin32EGLSupport.h">
<polygon fill="none" stroke="black" points="2510,-112.5 2510,-131.5 2637,-131.5 2637,-112.5 2510,-112.5"/>
<text text-anchor="middle" x="2573.5" y="-119.5" font-family="Helvetica,sans-Serif" font-size="10.00">OgreWin32EGLSupport.h</text>
</a>
</g>
</g>
<!-- Node22&#45;&gt;Node26 -->
<g id="edge28" class="edge"><title>Node22&#45;&gt;Node26</title>
<path fill="none" stroke="midnightblue" d="M2135.1,-167.984C2274.99,-150.335 2426.26,-136.023 2509.77,-128.541"/>
<polygon fill="midnightblue" stroke="midnightblue" points="2134.53,-164.529 2125.05,-169.261 2135.41,-171.473 2134.53,-164.529"/>
</g>
<!-- Node30 -->
<g id="node30" class="node"><title>Node30</title>
<g id="a_node30"><a xlink:href="_g_l_e_s_2include_2_e_g_l_2_x11_2_ogre_x11_e_g_l_support_8h.html" target="_top" xlink:title="OgreX11EGLSupport.h">
<polygon fill="none" stroke="black" points="2930.5,-112.5 2930.5,-131.5 3046.5,-131.5 3046.5,-112.5 2930.5,-112.5"/>
<text text-anchor="middle" x="2988.5" y="-119.5" font-family="Helvetica,sans-Serif" font-size="10.00">OgreX11EGLSupport.h</text>
</a>
</g>
</g>
<!-- Node22&#45;&gt;Node30 -->
<g id="edge32" class="edge"><title>Node22&#45;&gt;Node30</title>
<path fill="none" stroke="midnightblue" d="M2135.44,-168.029C2467.88,-135.221 2554.38,-154.007 2883.5,-132 2898.74,-130.981 2915.21,-129.669 2930.49,-128.364"/>
<polygon fill="midnightblue" stroke="midnightblue" points="2134.63,-164.592 2125.03,-169.065 2135.32,-171.557 2134.63,-164.592"/>
</g>
<!-- Node34 -->
<g id="node34" class="node"><title>Node34</title>
<g id="a_node34"><a xlink:href="_g_l_support_2include_2_e_g_l_2_android_2_ogre_android_e_g_l_support_8h.html" target="_top" xlink:title="OgreAndroidEGLSupport.h">
<polygon fill="none" stroke="black" points="2144.5,-112.5 2144.5,-131.5 2276.5,-131.5 2276.5,-112.5 2144.5,-112.5"/>
<text text-anchor="middle" x="2210.5" y="-119.5" font-family="Helvetica,sans-Serif" font-size="10.00">OgreAndroidEGLSupport.h</text>
</a>
</g>
</g>
<!-- Node22&#45;&gt;Node34 -->
<g id="edge36" class="edge"><title>Node22&#45;&gt;Node34</title>
<path fill="none" stroke="midnightblue" d="M2106.41,-164.638C2131.74,-154.504 2166.93,-140.427 2189.21,-131.516"/>
<polygon fill="midnightblue" stroke="midnightblue" points="2104.88,-161.48 2096.89,-168.444 2107.48,-167.979 2104.88,-161.48"/>
</g>
<!-- Node36 -->
<g id="node36" class="node"><title>Node36</title>
<g id="a_node36"><a xlink:href="_ogre_emscripten_e_g_l_support_8h.html" target="_top" xlink:title="OgreEmscriptenEGLSupport.h">
<polygon fill="none" stroke="black" points="1723,-112.5 1723,-131.5 1872,-131.5 1872,-112.5 1723,-112.5"/>
<text text-anchor="middle" x="1797.5" y="-119.5" font-family="Helvetica,sans-Serif" font-size="10.00">OgreEmscriptenEGLSupport.h</text>
</a>
</g>
</g>
<!-- Node22&#45;&gt;Node36 -->
<g id="edge38" class="edge"><title>Node22&#45;&gt;Node36</title>
<path fill="none" stroke="midnightblue" d="M2021.31,-166.473C1968.77,-156.268 1890.06,-140.979 1841.34,-131.516"/>
<polygon fill="midnightblue" stroke="midnightblue" points="2020.97,-169.972 2031.45,-168.444 2022.3,-163.101 2020.97,-169.972"/>
</g>
<!-- Node38 -->
<g id="node38" class="node"><title>Node38</title>
<g id="a_node38"><a xlink:href="_g_l_support_2include_2_e_g_l_2_ogre_e_g_l_render_texture_8h.html" target="_top" xlink:title="OgreEGLRenderTexture.h">
<polygon fill="none" stroke="black" points="2744.5,-112.5 2744.5,-131.5 2874.5,-131.5 2874.5,-112.5 2744.5,-112.5"/>
<text text-anchor="middle" x="2809.5" y="-119.5" font-family="Helvetica,sans-Serif" font-size="10.00">OgreEGLRenderTexture.h</text>
</a>
</g>
</g>
<!-- Node22&#45;&gt;Node38 -->
<g id="edge40" class="edge"><title>Node22&#45;&gt;Node38</title>
<path fill="none" stroke="midnightblue" d="M2135.09,-168.059C2268.98,-154.178 2602.56,-134.661 2744.31,-126.638"/>
<polygon fill="midnightblue" stroke="midnightblue" points="2134.61,-164.59 2125.03,-169.132 2135.35,-171.551 2134.61,-164.59"/>
</g>
<!-- Node40 -->
<g id="node40" class="node"><title>Node40</title>
<g id="a_node40"><a xlink:href="_g_l_support_2include_2_e_g_l_2_ogre_e_g_l_window_8h.html" target="_top" xlink:title="OgreEGLWindow.h">
<polygon fill="none" stroke="black" points="2025,-112.5 2025,-131.5 2126,-131.5 2126,-112.5 2025,-112.5"/>
<text text-anchor="middle" x="2075.5" y="-119.5" font-family="Helvetica,sans-Serif" font-size="10.00">OgreEGLWindow.h</text>
</a>
</g>
</g>
<!-- Node22&#45;&gt;Node40 -->
<g id="edge44" class="edge"><title>Node22&#45;&gt;Node40</title>
<path fill="none" stroke="midnightblue" d="M2069.03,-158.101C2068.4,-149.136 2068.84,-138.858 2070.37,-131.751"/>
<polygon fill="midnightblue" stroke="midnightblue" points="2065.57,-158.622 2070.33,-168.083 2072.51,-157.713 2065.57,-158.622"/>
</g>
<!-- Node43 -->
<g id="node43" class="node"><title>Node43</title>
<g id="a_node43"><a xlink:href="_g_l_support_2include_2_e_g_l_2_w_i_n32_2_ogre_win32_e_g_l_support_8h.html" target="_top" xlink:title="OgreWin32EGLSupport.h">
<polygon fill="none" stroke="black" points="2295,-112.5 2295,-131.5 2422,-131.5 2422,-112.5 2295,-112.5"/>
<text text-anchor="middle" x="2358.5" y="-119.5" font-family="Helvetica,sans-Serif" font-size="10.00">OgreWin32EGLSupport.h</text>
</a>
</g>
</g>
<!-- Node22&#45;&gt;Node43 -->
<g id="edge53" class="edge"><title>Node22&#45;&gt;Node43</title>
<path fill="none" stroke="midnightblue" d="M2130.33,-166.537C2183.82,-156.332 2264.17,-140.999 2313.87,-131.516"/>
<polygon fill="midnightblue" stroke="midnightblue" points="2129.51,-163.131 2120.34,-168.444 2130.82,-170.007 2129.51,-163.131"/>
</g>
<!-- Node44 -->
<g id="node44" class="node"><title>Node44</title>
<g id="a_node44"><a xlink:href="_g_l_support_2include_2_e_g_l_2_x11_2_ogre_x11_e_g_l_support_8h.html" target="_top" xlink:title="OgreX11EGLSupport.h">
<polygon fill="none" stroke="black" points="1890.5,-112.5 1890.5,-131.5 2006.5,-131.5 2006.5,-112.5 1890.5,-112.5"/>
<text text-anchor="middle" x="1948.5" y="-119.5" font-family="Helvetica,sans-Serif" font-size="10.00">OgreX11EGLSupport.h</text>
</a>
</g>
</g>
<!-- Node22&#45;&gt;Node44 -->
<g id="edge56" class="edge"><title>Node22&#45;&gt;Node44</title>
<path fill="none" stroke="midnightblue" d="M2046.11,-164.503C2022.3,-154.38 1989.39,-140.388 1968.53,-131.516"/>
<polygon fill="midnightblue" stroke="midnightblue" points="2044.8,-167.751 2055.38,-168.444 2047.54,-161.31 2044.8,-167.751"/>
</g>
<!-- Node24 -->
<g id="node24" class="node"><title>Node24</title>
<g id="a_node24"><a xlink:href="_g_l_e_s_2include_2_e_g_l_2_android_2_ogre_android_e_g_l_window_8h.html" target="_top" xlink:title="OgreAndroidEGLWindow.h">
<polygon fill="none" stroke="black" points="1569.5,-56.5 1569.5,-75.5 1703.5,-75.5 1703.5,-56.5 1569.5,-56.5"/>
<text text-anchor="middle" x="1636.5" y="-63.5" font-family="Helvetica,sans-Serif" font-size="10.00">OgreAndroidEGLWindow.h</text>
</a>
</g>
</g>
<!-- Node23&#45;&gt;Node24 -->
<g id="edge26" class="edge"><title>Node23&#45;&gt;Node24</title>
<path fill="none" stroke="midnightblue" d="M1636.5,-101.805C1636.5,-92.9102 1636.5,-82.7798 1636.5,-75.7511"/>
<polygon fill="midnightblue" stroke="midnightblue" points="1633,-102.083 1636.5,-112.083 1640,-102.083 1633,-102.083"/>
</g>
<!-- Node25 -->
<g id="node25" class="node"><title>Node25</title>
<g id="a_node25"><a xlink:href="_e_g_l_2_android_2_ogre_g_l_e_s_util_8h.html" target="_top" xlink:title="OgreGLESUtil.h">
<polygon fill="none" stroke="black" points="1464,-56.5 1464,-75.5 1551,-75.5 1551,-56.5 1464,-56.5"/>
<text text-anchor="middle" x="1507.5" y="-63.5" font-family="Helvetica,sans-Serif" font-size="10.00">OgreGLESUtil.h</text>
</a>
</g>
</g>
<!-- Node23&#45;&gt;Node25 -->
<g id="edge27" class="edge"><title>Node23&#45;&gt;Node25</title>
<path fill="none" stroke="midnightblue" d="M1606.65,-108.503C1582.46,-98.3795 1549.04,-84.388 1527.84,-75.5164"/>
<polygon fill="midnightblue" stroke="midnightblue" points="1605.48,-111.811 1616.06,-112.444 1608.19,-105.354 1605.48,-111.811"/>
</g>
<!-- Node27 -->
<g id="node27" class="node"><title>Node27</title>
<g id="a_node27"><a xlink:href="_e_g_l_2_w_i_n32_2_ogre_g_l_e_s_util_8h.html" target="_top" xlink:title="OgreGLESUtil.h">
<polygon fill="none" stroke="black" points="2606,-56.5 2606,-75.5 2693,-75.5 2693,-56.5 2606,-56.5"/>
<text text-anchor="middle" x="2649.5" y="-63.5" font-family="Helvetica,sans-Serif" font-size="10.00">OgreGLESUtil.h</text>
</a>
</g>
</g>
<!-- Node26&#45;&gt;Node27 -->
<g id="edge29" class="edge"><title>Node26&#45;&gt;Node27</title>
<path fill="none" stroke="midnightblue" d="M2594.08,-106.38C2607.81,-96.6204 2625.43,-84.1057 2637.07,-75.8339"/>
<polygon fill="midnightblue" stroke="midnightblue" points="2591.84,-103.679 2585.71,-112.324 2595.89,-109.385 2591.84,-103.679"/>
</g>
<!-- Node28 -->
<g id="node28" class="node"><title>Node28</title>
<g id="a_node28"><a xlink:href="_g_l_e_s_2include_2_e_g_l_2_w_i_n32_2_ogre_win32_e_g_l_render_texture_8h.html" target="_top" xlink:title="OgreWin32EGLRenderTexture.h">
<polygon fill="none" stroke="black" points="2887.5,-56.5 2887.5,-75.5 3045.5,-75.5 3045.5,-56.5 2887.5,-56.5"/>
<text text-anchor="middle" x="2966.5" y="-63.5" font-family="Helvetica,sans-Serif" font-size="10.00">OgreWin32EGLRenderTexture.h</text>
</a>
</g>
</g>
<!-- Node26&#45;&gt;Node28 -->
<g id="edge30" class="edge"><title>Node26&#45;&gt;Node28</title>
<path fill="none" stroke="midnightblue" d="M2645.97,-111.042C2720.2,-100.843 2834.36,-85.1569 2904.52,-75.5164"/>
<polygon fill="midnightblue" stroke="midnightblue" points="2645.2,-107.615 2635.77,-112.444 2646.16,-114.55 2645.2,-107.615"/>
</g>
<!-- Node29 -->
<g id="node29" class="node"><title>Node29</title>
<g id="a_node29"><a xlink:href="_g_l_e_s_2include_2_e_g_l_2_w_i_n32_2_ogre_win32_e_g_l_window_8h.html" target="_top" xlink:title="OgreWin32EGLWindow.h">
<polygon fill="none" stroke="black" points="2323.5,-56.5 2323.5,-75.5 2451.5,-75.5 2451.5,-56.5 2323.5,-56.5"/>
<text text-anchor="middle" x="2387.5" y="-63.5" font-family="Helvetica,sans-Serif" font-size="10.00">OgreWin32EGLWindow.h</text>
</a>
</g>
</g>
<!-- Node26&#45;&gt;Node29 -->
<g id="edge31" class="edge"><title>Node26&#45;&gt;Node29</title>
<path fill="none" stroke="midnightblue" d="M2534.12,-109.568C2499.03,-99.381 2448.48,-84.7034 2416.83,-75.5164"/>
<polygon fill="midnightblue" stroke="midnightblue" points="2533.45,-113.017 2544.03,-112.444 2535.4,-106.294 2533.45,-113.017"/>
</g>
<!-- Node31 -->
<g id="node31" class="node"><title>Node31</title>
<g id="a_node31"><a xlink:href="_e_g_l_2_x11_2_ogre_g_l_e_s_util_8h.html" target="_top" xlink:title="OgreGLESUtil.h">
<polygon fill="none" stroke="black" points="3229,-56.5 3229,-75.5 3316,-75.5 3316,-56.5 3229,-56.5"/>
<text text-anchor="middle" x="3272.5" y="-63.5" font-family="Helvetica,sans-Serif" font-size="10.00">OgreGLESUtil.h</text>
</a>
</g>
</g>
<!-- Node30&#45;&gt;Node31 -->
<g id="edge33" class="edge"><title>Node30&#45;&gt;Node31</title>
<path fill="none" stroke="midnightblue" d="M3043.59,-110.526C3097.6,-100.256 3178.87,-84.8034 3228.64,-75.339"/>
<polygon fill="midnightblue" stroke="midnightblue" points="3042.67,-107.137 3033.5,-112.444 3043.98,-114.014 3042.67,-107.137"/>
</g>
<!-- Node32 -->
<g id="node32" class="node"><title>Node32</title>
<g id="a_node32"><a xlink:href="_g_l_e_s_2include_2_e_g_l_2_x11_2_ogre_x11_e_g_l_render_texture_8h.html" target="_top" xlink:title="OgreX11EGLRenderTexture.h">
<polygon fill="none" stroke="black" points="3064,-56.5 3064,-75.5 3211,-75.5 3211,-56.5 3064,-56.5"/>
<text text-anchor="middle" x="3137.5" y="-63.5" font-family="Helvetica,sans-Serif" font-size="10.00">OgreX11EGLRenderTexture.h</text>
</a>
</g>
</g>
<!-- Node30&#45;&gt;Node32 -->
<g id="edge34" class="edge"><title>Node30&#45;&gt;Node32</title>
<path fill="none" stroke="midnightblue" d="M3021.87,-108.906C3049.88,-98.7536 3089.2,-84.5063 3114,-75.5164"/>
<polygon fill="midnightblue" stroke="midnightblue" points="3020.32,-105.746 3012.11,-112.444 3022.7,-112.327 3020.32,-105.746"/>
</g>
<!-- Node33 -->
<g id="node33" class="node"><title>Node33</title>
<g id="a_node33"><a xlink:href="_g_l_e_s_2include_2_e_g_l_2_x11_2_ogre_x11_e_g_l_window_8h.html" target="_top" xlink:title="OgreX11EGLWindow.h">
<polygon fill="none" stroke="black" points="2469.5,-56.5 2469.5,-75.5 2587.5,-75.5 2587.5,-56.5 2469.5,-56.5"/>
<text text-anchor="middle" x="2528.5" y="-63.5" font-family="Helvetica,sans-Serif" font-size="10.00">OgreX11EGLWindow.h</text>
</a>
</g>
</g>
<!-- Node30&#45;&gt;Node33 -->
<g id="edge35" class="edge"><title>Node30&#45;&gt;Node33</title>
<path fill="none" stroke="midnightblue" d="M2920.14,-113.515C2841.88,-104.862 2709.87,-90.0091 2596.5,-76 2593.66,-75.6495 2590.76,-75.2856 2587.83,-74.914"/>
<polygon fill="midnightblue" stroke="midnightblue" points="2920.03,-117.023 2930.35,-114.642 2920.79,-110.066 2920.03,-117.023"/>
</g>
<!-- Node35 -->
<g id="node35" class="node"><title>Node35</title>
<g id="a_node35"><a xlink:href="_g_l_support_2include_2_e_g_l_2_android_2_ogre_android_e_g_l_window_8h.html" target="_top" xlink:title="OgreAndroidEGLWindow.h">
<polygon fill="none" stroke="black" points="2025.5,-56.5 2025.5,-75.5 2159.5,-75.5 2159.5,-56.5 2025.5,-56.5"/>
<text text-anchor="middle" x="2092.5" y="-63.5" font-family="Helvetica,sans-Serif" font-size="10.00">OgreAndroidEGLWindow.h</text>
</a>
</g>
</g>
<!-- Node34&#45;&gt;Node35 -->
<g id="edge37" class="edge"><title>Node34&#45;&gt;Node35</title>
<path fill="none" stroke="midnightblue" d="M2182.6,-108.232C2160.53,-98.1312 2130.32,-84.3091 2111.11,-75.5164"/>
<polygon fill="midnightblue" stroke="midnightblue" points="2181.25,-111.465 2191.8,-112.444 2184.17,-105.1 2181.25,-111.465"/>
</g>
<!-- Node37 -->
<g id="node37" class="node"><title>Node37</title>
<g id="a_node37"><a xlink:href="_ogre_emscripten_e_g_l_window_8h.html" target="_top" xlink:title="OgreEmscriptenEGLWindow.h">
<polygon fill="none" stroke="black" points="1721.5,-56.5 1721.5,-75.5 1871.5,-75.5 1871.5,-56.5 1721.5,-56.5"/>
<text text-anchor="middle" x="1796.5" y="-63.5" font-family="Helvetica,sans-Serif" font-size="10.00">OgreEmscriptenEGLWindow.h</text>
</a>
</g>
</g>
<!-- Node36&#45;&gt;Node37 -->
<g id="edge39" class="edge"><title>Node36&#45;&gt;Node37</title>
<path fill="none" stroke="midnightblue" d="M1797.14,-101.805C1796.98,-92.9102 1796.79,-82.7798 1796.66,-75.7511"/>
<polygon fill="midnightblue" stroke="midnightblue" points="1793.65,-102.15 1797.33,-112.083 1800.65,-102.02 1793.65,-102.15"/>
</g>
<!-- Node38&#45;&gt;Node28 -->
<g id="edge41" class="edge"><title>Node38&#45;&gt;Node28</title>
<path fill="none" stroke="midnightblue" d="M2843.89,-109.172C2873.45,-99.0039 2915.37,-84.5852 2941.74,-75.5164"/>
<polygon fill="midnightblue" stroke="midnightblue" points="2842.7,-105.881 2834.38,-112.444 2844.97,-112.501 2842.7,-105.881"/>
</g>
<!-- Node38&#45;&gt;Node32 -->
<g id="edge42" class="edge"><title>Node38&#45;&gt;Node32</title>
<path fill="none" stroke="midnightblue" d="M2871.51,-110.791C2933.49,-100.587 3027.69,-85.078 3085.77,-75.5164"/>
<polygon fill="midnightblue" stroke="midnightblue" points="2870.77,-107.365 2861.47,-112.444 2871.91,-114.272 2870.77,-107.365"/>
</g>
<!-- Node39 -->
<g id="node39" class="node"><title>Node39</title>
<g id="a_node39"><a xlink:href="_g_l_support_2include_2_e_g_l_2_w_i_n32_2_ogre_win32_e_g_l_render_texture_8h.html" target="_top" xlink:title="OgreWin32EGLRenderTexture.h">
<polygon fill="none" stroke="black" points="2711.5,-56.5 2711.5,-75.5 2869.5,-75.5 2869.5,-56.5 2711.5,-56.5"/>
<text text-anchor="middle" x="2790.5" y="-63.5" font-family="Helvetica,sans-Serif" font-size="10.00">OgreWin32EGLRenderTexture.h</text>
</a>
</g>
</g>
<!-- Node38&#45;&gt;Node39 -->
<g id="edge43" class="edge"><title>Node38&#45;&gt;Node39</title>
<path fill="none" stroke="midnightblue" d="M2802.95,-102.396C2799.78,-93.362 2796.11,-82.936 2793.58,-75.7511"/>
<polygon fill="midnightblue" stroke="midnightblue" points="2799.74,-103.812 2806.36,-112.083 2806.35,-101.488 2799.74,-103.812"/>
</g>
<!-- Node40&#45;&gt;Node22 -->
<g id="edge50" class="edge"><title>Node40&#45;&gt;Node22</title>
<path fill="none" stroke="midnightblue" d="M2081.96,-141.691C2082.61,-150.635 2082.18,-160.927 2080.67,-168.083"/>
<polygon fill="midnightblue" stroke="midnightblue" points="2085.42,-141.2 2080.63,-131.751 2078.48,-142.126 2085.42,-141.2"/>
</g>
<!-- Node40&#45;&gt;Node24 -->
<g id="edge45" class="edge"><title>Node40&#45;&gt;Node24</title>
<path fill="none" stroke="midnightblue" d="M2014.72,-112.019C1970.52,-106.605 1800.36,-86.4253 1703.85,-74.9841"/>
<polygon fill="midnightblue" stroke="midnightblue" points="2014.42,-115.508 2024.78,-113.28 2015.29,-108.563 2014.42,-115.508"/>
</g>
<!-- Node40&#45;&gt;Node29 -->
<g id="edge46" class="edge"><title>Node40&#45;&gt;Node29</title>
<path fill="none" stroke="midnightblue" d="M2134.85,-110.727C2193.81,-100.523 2283.16,-85.0583 2338.29,-75.5164"/>
<polygon fill="midnightblue" stroke="midnightblue" points="2134.19,-107.289 2124.94,-112.444 2135.39,-114.187 2134.19,-107.289"/>
</g>
<!-- Node40&#45;&gt;Node33 -->
<g id="edge47" class="edge"><title>Node40&#45;&gt;Node33</title>
<path fill="none" stroke="midnightblue" d="M2136.38,-111.932C2281.31,-93.2228 2319.47,-93.1413 2460.5,-76 2463.34,-75.6552 2466.24,-75.2959 2469.17,-74.9279"/>
<polygon fill="midnightblue" stroke="midnightblue" points="2135.69,-108.493 2126.22,-113.252 2136.59,-115.435 2135.69,-108.493"/>
</g>
<!-- Node40&#45;&gt;Node35 -->
<g id="edge48" class="edge"><title>Node40&#45;&gt;Node35</title>
<path fill="none" stroke="midnightblue" d="M2081.36,-102.396C2084.2,-93.362 2087.48,-82.936 2089.75,-75.7511"/>
<polygon fill="midnightblue" stroke="midnightblue" points="2077.97,-101.493 2078.31,-112.083 2084.65,-103.596 2077.97,-101.493"/>
</g>
<!-- Node40&#45;&gt;Node37 -->
<g id="edge49" class="edge"><title>Node40&#45;&gt;Node37</title>
<path fill="none" stroke="midnightblue" d="M2021.44,-110.537C1968.71,-100.332 1889.5,-84.9992 1840.5,-75.5164"/>
<polygon fill="midnightblue" stroke="midnightblue" points="2020.81,-113.979 2031.29,-112.444 2022.14,-107.107 2020.81,-113.979"/>
</g>
<!-- Node41 -->
<g id="node41" class="node"><title>Node41</title>
<g id="a_node41"><a xlink:href="_g_l_support_2include_2_e_g_l_2_w_i_n32_2_ogre_win32_e_g_l_window_8h.html" target="_top" xlink:title="OgreWin32EGLWindow.h">
<polygon fill="none" stroke="black" points="2177.5,-56.5 2177.5,-75.5 2305.5,-75.5 2305.5,-56.5 2177.5,-56.5"/>
<text text-anchor="middle" x="2241.5" y="-63.5" font-family="Helvetica,sans-Serif" font-size="10.00">OgreWin32EGLWindow.h</text>
</a>
</g>
</g>
<!-- Node40&#45;&gt;Node41 -->
<g id="edge51" class="edge"><title>Node40&#45;&gt;Node41</title>
<path fill="none" stroke="midnightblue" d="M2111.45,-109.304C2142.73,-99.1294 2187.32,-84.6246 2215.32,-75.5164"/>
<polygon fill="midnightblue" stroke="midnightblue" points="2110.23,-106.022 2101.8,-112.444 2112.4,-112.678 2110.23,-106.022"/>
</g>
<!-- Node42 -->
<g id="node42" class="node"><title>Node42</title>
<g id="a_node42"><a xlink:href="_g_l_support_2include_2_e_g_l_2_x11_2_ogre_x11_e_g_l_window_8h.html" target="_top" xlink:title="OgreX11EGLWindow.h">
<polygon fill="none" stroke="black" points="1889.5,-56.5 1889.5,-75.5 2007.5,-75.5 2007.5,-56.5 1889.5,-56.5"/>
<text text-anchor="middle" x="1948.5" y="-63.5" font-family="Helvetica,sans-Serif" font-size="10.00">OgreX11EGLWindow.h</text>
</a>
</g>
</g>
<!-- Node40&#45;&gt;Node42 -->
<g id="edge52" class="edge"><title>Node40&#45;&gt;Node42</title>
<path fill="none" stroke="midnightblue" d="M2046.11,-108.503C2022.3,-98.3795 1989.39,-84.388 1968.53,-75.5164"/>
<polygon fill="midnightblue" stroke="midnightblue" points="2044.8,-111.751 2055.38,-112.444 2047.54,-105.31 2044.8,-111.751"/>
</g>
<!-- Node43&#45;&gt;Node39 -->
<g id="edge54" class="edge"><title>Node43&#45;&gt;Node39</title>
<path fill="none" stroke="midnightblue" d="M2432.4,-111.762C2513.69,-101.602 2643.23,-85.4083 2722.21,-75.536"/>
<polygon fill="midnightblue" stroke="midnightblue" points="2431.73,-108.319 2422.24,-113.032 2432.6,-115.265 2431.73,-108.319"/>
</g>
<!-- Node43&#45;&gt;Node41 -->
<g id="edge55" class="edge"><title>Node43&#45;&gt;Node41</title>
<path fill="none" stroke="midnightblue" d="M2330.84,-108.232C2308.95,-98.1312 2279,-84.3091 2259.95,-75.5164"/>
<polygon fill="midnightblue" stroke="midnightblue" points="2329.41,-111.431 2339.96,-112.444 2332.35,-105.075 2329.41,-111.431"/>
</g>
<!-- Node44&#45;&gt;Node42 -->
<g id="edge57" class="edge"><title>Node44&#45;&gt;Node42</title>
<path fill="none" stroke="midnightblue" d="M1948.5,-101.805C1948.5,-92.9102 1948.5,-82.7798 1948.5,-75.7511"/>
<polygon fill="midnightblue" stroke="midnightblue" points="1945,-102.083 1948.5,-112.083 1952,-102.083 1945,-102.083"/>
</g>
<!-- Node46 -->
<g id="node46" class="node"><title>Node46</title>
<g id="a_node46"><a xlink:href="_ogre_g_l_x_context_8h.html" target="_top" xlink:title="OgreGLXContext.h">
<polygon fill="none" stroke="black" points="3330.5,-112.5 3330.5,-131.5 3430.5,-131.5 3430.5,-112.5 3330.5,-112.5"/>
<text text-anchor="middle" x="3380.5" y="-119.5" font-family="Helvetica,sans-Serif" font-size="10.00">OgreGLXContext.h</text>
</a>
</g>
</g>
<!-- Node45&#45;&gt;Node46 -->
<g id="edge59" class="edge"><title>Node45&#45;&gt;Node46</title>
<path fill="none" stroke="midnightblue" d="M2265.91,-167.963C2664.95,-132.766 2767.83,-148.197 3164.5,-132 3221.31,-129.68 3286.53,-126.954 3330.31,-125.115"/>
<polygon fill="midnightblue" stroke="midnightblue" points="2265.48,-164.487 2255.83,-168.858 2266.1,-171.46 2265.48,-164.487"/>
</g>
<!-- Node47 -->
<g id="node47" class="node"><title>Node47</title>
<g id="a_node47"><a xlink:href="_ogre_g_l_x_render_texture_8h.html" target="_top" xlink:title="OgreGLXRenderTexture.h">
<polygon fill="none" stroke="black" points="3334.5,-56.5 3334.5,-75.5 3464.5,-75.5 3464.5,-56.5 3334.5,-56.5"/>
<text text-anchor="middle" x="3399.5" y="-63.5" font-family="Helvetica,sans-Serif" font-size="10.00">OgreGLXRenderTexture.h</text>
</a>
</g>
</g>
<!-- Node45&#45;&gt;Node47 -->
<g id="edge61" class="edge"><title>Node45&#45;&gt;Node47</title>
<path fill="none" stroke="midnightblue" d="M2266.02,-167.952C2616.7,-136.529 2709.28,-172.384 3055.5,-132 3169,-118.762 3301.32,-89.9123 3363.6,-75.52"/>
<polygon fill="midnightblue" stroke="midnightblue" points="2265.48,-164.486 2255.83,-168.877 2266.11,-171.458 2265.48,-164.486"/>
</g>
<!-- Node46&#45;&gt;Node47 -->
<g id="edge60" class="edge"><title>Node46&#45;&gt;Node47</title>
<path fill="none" stroke="midnightblue" d="M3387.05,-102.396C3390.22,-93.362 3393.89,-82.936 3396.42,-75.7511"/>
<polygon fill="midnightblue" stroke="midnightblue" points="3383.65,-101.488 3383.64,-112.083 3390.26,-103.812 3383.65,-101.488"/>
</g>
</g>
</svg>
