<?xml version="1.0" encoding="UTF-8" standalone="no"?>
<!DOCTYPE svg PUBLIC "-//W3C//DTD SVG 1.1//EN"
 "http://www.w3.org/Graphics/SVG/1.1/DTD/svg11.dtd">
<!-- Generated by graphviz version 2.38.0 (20140413.2041)
 -->
<!-- Title: OgreGL3PlusHardwareCounterBuffer.h Pages: 1 -->
<svg width="493pt" height="218pt"
 viewBox="0.00 0.00 492.50 218.00" xmlns="http://www.w3.org/2000/svg" xmlns:xlink="http://www.w3.org/1999/xlink">
<g id="graph0" class="graph" transform="scale(1 1) rotate(0) translate(4 214)">
<title>OgreGL3PlusHardwareCounterBuffer.h</title>
<!-- Node1 -->
<g id="node1" class="node"><title>Node1</title>
<polygon fill="#bfbfbf" stroke="black" points="167,-179.5 167,-209.5 319,-209.5 319,-179.5 167,-179.5"/>
<text text-anchor="start" x="175" y="-197.5" font-family="Helvetica,sans-Serif" font-size="10.00">OgreGL3PlusHardwareCounter</text>
<text text-anchor="middle" x="243" y="-186.5" font-family="Helvetica,sans-Serif" font-size="10.00">Buffer.h</text>
</g>
<!-- Node2 -->
<g id="node2" class="node"><title>Node2</title>
<g id="a_node2"><a xlink:href="_plus_2include_2_g_l_s_l_2_ogre_g_l_s_l_program_8h.html" target="_top" xlink:title="OgreGLSLProgram.h">
<polygon fill="none" stroke="black" points="189.5,-123.5 189.5,-142.5 296.5,-142.5 296.5,-123.5 189.5,-123.5"/>
<text text-anchor="middle" x="243" y="-130.5" font-family="Helvetica,sans-Serif" font-size="10.00">OgreGLSLProgram.h</text>
</a>
</g>
</g>
<!-- Node1&#45;&gt;Node2 -->
<g id="edge1" class="edge"><title>Node1&#45;&gt;Node2</title>
<path fill="none" stroke="midnightblue" d="M243,-169.289C243,-159.857 243,-149.655 243,-142.658"/>
<polygon fill="midnightblue" stroke="midnightblue" points="239.5,-169.399 243,-179.399 246.5,-169.399 239.5,-169.399"/>
</g>
<!-- Node3 -->
<g id="node3" class="node"><title>Node3</title>
<g id="a_node3"><a xlink:href="_ogre_g_l_s_l_monolithic_program_8h.html" target="_top" xlink:title="OgreGLSLMonolithicProgram.h">
<polygon fill="none" stroke="black" points="0,-67.5 0,-86.5 152,-86.5 152,-67.5 0,-67.5"/>
<text text-anchor="middle" x="76" y="-74.5" font-family="Helvetica,sans-Serif" font-size="10.00">OgreGLSLMonolithicProgram.h</text>
</a>
</g>
</g>
<!-- Node2&#45;&gt;Node3 -->
<g id="edge2" class="edge"><title>Node2&#45;&gt;Node3</title>
<path fill="none" stroke="midnightblue" d="M206.83,-120.304C175.363,-110.129 130.506,-95.6246 102.338,-86.5164"/>
<polygon fill="midnightblue" stroke="midnightblue" points="205.947,-123.697 216.538,-123.444 208.1,-117.037 205.947,-123.697"/>
</g>
<!-- Node5 -->
<g id="node5" class="node"><title>Node5</title>
<g id="a_node5"><a xlink:href="_ogre_g_l_s_l_program_manager_8h.html" target="_top" xlink:title="OgreGLSLProgramManager.h">
<polygon fill="none" stroke="black" points="170.5,-67.5 170.5,-86.5 315.5,-86.5 315.5,-67.5 170.5,-67.5"/>
<text text-anchor="middle" x="243" y="-74.5" font-family="Helvetica,sans-Serif" font-size="10.00">OgreGLSLProgramManager.h</text>
</a>
</g>
</g>
<!-- Node2&#45;&gt;Node5 -->
<g id="edge4" class="edge"><title>Node2&#45;&gt;Node5</title>
<path fill="none" stroke="midnightblue" d="M243,-112.805C243,-103.91 243,-93.7798 243,-86.7511"/>
<polygon fill="midnightblue" stroke="midnightblue" points="239.5,-113.083 243,-123.083 246.5,-113.083 239.5,-113.083"/>
</g>
<!-- Node7 -->
<g id="node7" class="node"><title>Node7</title>
<g id="a_node7"><a xlink:href="_ogre_g_l_s_l_separable_program_8h.html" target="_top" xlink:title="OgreGLSLSeparableProgram.h">
<polygon fill="none" stroke="black" points="333.5,-67.5 333.5,-86.5 484.5,-86.5 484.5,-67.5 333.5,-67.5"/>
<text text-anchor="middle" x="409" y="-74.5" font-family="Helvetica,sans-Serif" font-size="10.00">OgreGLSLSeparableProgram.h</text>
</a>
</g>
</g>
<!-- Node2&#45;&gt;Node7 -->
<g id="edge7" class="edge"><title>Node2&#45;&gt;Node7</title>
<path fill="none" stroke="midnightblue" d="M278.953,-120.304C310.232,-110.129 354.821,-95.6246 382.82,-86.5164"/>
<polygon fill="midnightblue" stroke="midnightblue" points="277.73,-117.022 269.303,-123.444 279.895,-123.678 277.73,-117.022"/>
</g>
<!-- Node4 -->
<g id="node4" class="node"><title>Node4</title>
<g id="a_node4"><a xlink:href="_ogre_g_l_s_l_monolithic_program_manager_8h.html" target="_top" xlink:title="OgreGLSLMonolithicProgram\lManager.h">
<polygon fill="none" stroke="black" points="7.5,-0.5 7.5,-30.5 150.5,-30.5 150.5,-0.5 7.5,-0.5"/>
<text text-anchor="start" x="15.5" y="-18.5" font-family="Helvetica,sans-Serif" font-size="10.00">OgreGLSLMonolithicProgram</text>
<text text-anchor="middle" x="79" y="-7.5" font-family="Helvetica,sans-Serif" font-size="10.00">Manager.h</text>
</a>
</g>
</g>
<!-- Node3&#45;&gt;Node4 -->
<g id="edge3" class="edge"><title>Node3&#45;&gt;Node4</title>
<path fill="none" stroke="midnightblue" d="M76.9461,-57.2349C77.3822,-48.5864 77.8909,-38.4969 78.293,-30.523"/>
<polygon fill="midnightblue" stroke="midnightblue" points="73.4379,-57.3115 76.4298,-67.4751 80.429,-57.6641 73.4379,-57.3115"/>
</g>
<!-- Node5&#45;&gt;Node4 -->
<g id="edge5" class="edge"><title>Node5&#45;&gt;Node4</title>
<path fill="none" stroke="midnightblue" d="M209.857,-63.9755C183.193,-54.3016 145.68,-40.6919 117.652,-30.523"/>
<polygon fill="midnightblue" stroke="midnightblue" points="208.909,-67.3547 219.503,-67.4751 211.296,-60.7744 208.909,-67.3547"/>
</g>
<!-- Node6 -->
<g id="node6" class="node"><title>Node6</title>
<g id="a_node6"><a xlink:href="_ogre_g_l_s_l_separable_program_manager_8h.html" target="_top" xlink:title="OgreGLSLSeparableProgram\lManager.h">
<polygon fill="none" stroke="black" points="254.5,-0.5 254.5,-30.5 397.5,-30.5 397.5,-0.5 254.5,-0.5"/>
<text text-anchor="start" x="262.5" y="-18.5" font-family="Helvetica,sans-Serif" font-size="10.00">OgreGLSLSeparableProgram</text>
<text text-anchor="middle" x="326" y="-7.5" font-family="Helvetica,sans-Serif" font-size="10.00">Manager.h</text>
</a>
</g>
</g>
<!-- Node5&#45;&gt;Node6 -->
<g id="edge6" class="edge"><title>Node5&#45;&gt;Node6</title>
<path fill="none" stroke="midnightblue" d="M263.272,-61.468C276.413,-52.0474 293.441,-39.8408 306.439,-30.523"/>
<polygon fill="midnightblue" stroke="midnightblue" points="260.98,-58.8042 254.892,-67.4751 265.059,-64.4934 260.98,-58.8042"/>
</g>
<!-- Node7&#45;&gt;Node6 -->
<g id="edge8" class="edge"><title>Node7&#45;&gt;Node6</title>
<path fill="none" stroke="midnightblue" d="M388.728,-61.468C375.587,-52.0474 358.559,-39.8408 345.561,-30.523"/>
<polygon fill="midnightblue" stroke="midnightblue" points="386.941,-64.4934 397.108,-67.4751 391.02,-58.8042 386.941,-64.4934"/>
</g>
</g>
</svg>
