<?xml version="1.0" encoding="UTF-8" standalone="no"?>
<!DOCTYPE svg PUBLIC "-//W3C//DTD SVG 1.1//EN"
 "http://www.w3.org/Graphics/SVG/1.1/DTD/svg11.dtd">
<!-- Generated by graphviz version 2.38.0 (20140413.2041)
 -->
<!-- Title: OgreConfigOptionMap.h Pages: 1 -->
<svg width="3238pt" height="364pt"
 viewBox="0.00 0.00 3237.50 364.00" xmlns="http://www.w3.org/2000/svg" xmlns:xlink="http://www.w3.org/1999/xlink">
<g id="graph0" class="graph" transform="scale(1 1) rotate(0) translate(4 360)">
<title>OgreConfigOptionMap.h</title>
<!-- Node1 -->
<g id="node1" class="node"><title>Node1</title>
<polygon fill="#bfbfbf" stroke="black" points="1968,-336.5 1968,-355.5 2090,-355.5 2090,-336.5 1968,-336.5"/>
<text text-anchor="middle" x="2029" y="-343.5" font-family="Helvetica,sans-Serif" font-size="10.00">OgreConfigOptionMap.h</text>
</g>
<!-- Node2 -->
<g id="node2" class="node"><title>Node2</title>
<g id="a_node2"><a xlink:href="_ogre_render_system_8h.html" target="_top" xlink:title="OgreRenderSystem.h">
<polygon fill="none" stroke="black" points="917.5,-280.5 917.5,-299.5 1028.5,-299.5 1028.5,-280.5 917.5,-280.5"/>
<text text-anchor="middle" x="973" y="-287.5" font-family="Helvetica,sans-Serif" font-size="10.00">OgreRenderSystem.h</text>
</a>
</g>
</g>
<!-- Node1&#45;&gt;Node2 -->
<g id="edge1" class="edge"><title>Node1&#45;&gt;Node2</title>
<path fill="none" stroke="midnightblue" d="M1957.66,-341.352C1759.69,-331.228 1206.36,-302.933 1028.69,-293.848"/>
<polygon fill="midnightblue" stroke="midnightblue" points="1957.49,-344.848 1967.66,-341.863 1957.85,-337.857 1957.49,-344.848"/>
</g>
<!-- Node15 -->
<g id="node15" class="node"><title>Node15</title>
<g id="a_node15"><a xlink:href="_o_s_x_2_ogre_config_dialog_imp_8h.html" target="_top" xlink:title="OgreConfigDialogImp.h">
<polygon fill="none" stroke="black" points="71.5,-224.5 71.5,-243.5 190.5,-243.5 190.5,-224.5 71.5,-224.5"/>
<text text-anchor="middle" x="131" y="-231.5" font-family="Helvetica,sans-Serif" font-size="10.00">OgreConfigDialogImp.h</text>
</a>
</g>
</g>
<!-- Node1&#45;&gt;Node15 -->
<g id="edge44" class="edge"><title>Node1&#45;&gt;Node15</title>
<path fill="none" stroke="midnightblue" d="M1957.65,-343.083C1780.12,-338.108 1304.28,-323.508 908,-300 590.693,-281.177 510.977,-278.593 195,-244 193.55,-243.841 192.082,-243.675 190.602,-243.504"/>
<polygon fill="midnightblue" stroke="midnightblue" points="1957.8,-346.589 1967.9,-343.369 1958,-339.591 1957.8,-346.589"/>
</g>
<!-- Node25 -->
<g id="node25" class="node"><title>Node25</title>
<g id="a_node25"><a xlink:href="_ogre_g_l_support_8h.html" target="_top" xlink:title="OgreGLSupport.h">
<polygon fill="none" stroke="black" points="1839,-112.5 1839,-131.5 1931,-131.5 1931,-112.5 1839,-112.5"/>
<text text-anchor="middle" x="1885" y="-119.5" font-family="Helvetica,sans-Serif" font-size="10.00">OgreGLSupport.h</text>
</a>
</g>
</g>
<!-- Node1&#45;&gt;Node25 -->
<g id="edge45" class="edge"><title>Node1&#45;&gt;Node25</title>
<path fill="none" stroke="midnightblue" d="M2010.64,-329.713C1981.17,-303.954 1924.09,-248.728 1899,-188 1891.07,-168.796 1887.37,-144.462 1885.87,-131.707"/>
<polygon fill="midnightblue" stroke="midnightblue" points="2008.63,-332.603 2018.5,-336.457 2013.19,-327.29 2008.63,-332.603"/>
</g>
<!-- Node32 -->
<g id="node32" class="node"><title>Node32</title>
<g id="a_node32"><a xlink:href="_ogre_g_l3_plus_support_8h.html" target="_top" xlink:title="OgreGL3PlusSupport.h">
<polygon fill="none" stroke="black" points="1970.5,-224.5 1970.5,-243.5 2087.5,-243.5 2087.5,-224.5 1970.5,-224.5"/>
<text text-anchor="middle" x="2029" y="-231.5" font-family="Helvetica,sans-Serif" font-size="10.00">OgreGL3PlusSupport.h</text>
</a>
</g>
</g>
<!-- Node1&#45;&gt;Node32 -->
<g id="edge46" class="edge"><title>Node1&#45;&gt;Node32</title>
<path fill="none" stroke="midnightblue" d="M2029,-326.348C2029,-302.254 2029,-261.308 2029,-243.591"/>
<polygon fill="midnightblue" stroke="midnightblue" points="2025.5,-326.368 2029,-336.368 2032.5,-326.369 2025.5,-326.368"/>
</g>
<!-- Node35 -->
<g id="node35" class="node"><title>Node35</title>
<g id="a_node35"><a xlink:href="_ogre_g_l_e_s_support_8h.html" target="_top" xlink:title="OgreGLESSupport.h">
<polygon fill="none" stroke="black" points="2882,-280.5 2882,-299.5 2988,-299.5 2988,-280.5 2882,-280.5"/>
<text text-anchor="middle" x="2935" y="-287.5" font-family="Helvetica,sans-Serif" font-size="10.00">OgreGLESSupport.h</text>
</a>
</g>
</g>
<!-- Node1&#45;&gt;Node35 -->
<g id="edge50" class="edge"><title>Node1&#45;&gt;Node35</title>
<path fill="none" stroke="midnightblue" d="M2100.38,-340.745C2276.24,-330.264 2727.26,-303.382 2881.98,-294.16"/>
<polygon fill="midnightblue" stroke="midnightblue" points="2099.98,-337.263 2090.21,-341.352 2100.4,-344.251 2099.98,-337.263"/>
</g>
<!-- Node40 -->
<g id="node40" class="node"><title>Node40</title>
<g id="a_node40"><a xlink:href="_ogre_g_l_e_s2_support_8h.html" target="_top" xlink:title="OgreGLES2Support.h">
<polygon fill="none" stroke="black" points="2105.5,-224.5 2105.5,-243.5 2216.5,-243.5 2216.5,-224.5 2105.5,-224.5"/>
<text text-anchor="middle" x="2161" y="-231.5" font-family="Helvetica,sans-Serif" font-size="10.00">OgreGLES2Support.h</text>
</a>
</g>
</g>
<!-- Node1&#45;&gt;Node40 -->
<g id="edge56" class="edge"><title>Node1&#45;&gt;Node40</title>
<path fill="none" stroke="midnightblue" d="M2047.22,-329.816C2075.34,-306.387 2128.37,-262.19 2150.69,-243.591"/>
<polygon fill="midnightblue" stroke="midnightblue" points="2044.8,-327.278 2039.36,-336.368 2049.28,-332.655 2044.8,-327.278"/>
</g>
<!-- Node45 -->
<g id="node45" class="node"><title>Node45</title>
<g id="a_node45"><a xlink:href="_ogre_g_l_native_support_8h.html" target="_top" xlink:title="OgreGLNativeSupport.h">
<polygon fill="none" stroke="black" points="2223.5,-280.5 2223.5,-299.5 2344.5,-299.5 2344.5,-280.5 2223.5,-280.5"/>
<text text-anchor="middle" x="2284" y="-287.5" font-family="Helvetica,sans-Serif" font-size="10.00">OgreGLNativeSupport.h</text>
</a>
</g>
</g>
<!-- Node1&#45;&gt;Node45 -->
<g id="edge62" class="edge"><title>Node1&#45;&gt;Node45</title>
<path fill="none" stroke="midnightblue" d="M2079.31,-334.346C2127.5,-324.141 2199.28,-308.94 2243.78,-299.516"/>
<polygon fill="midnightblue" stroke="midnightblue" points="2078.46,-330.948 2069.41,-336.444 2079.91,-337.796 2078.46,-330.948"/>
</g>
<!-- Node3 -->
<g id="node3" class="node"><title>Node3</title>
<g id="a_node3"><a xlink:href="_ogre_scene_manager_8h.html" target="_top" xlink:title="OgreSceneManager.h">
<polygon fill="none" stroke="black" points="554.5,-224.5 554.5,-243.5 665.5,-243.5 665.5,-224.5 554.5,-224.5"/>
<text text-anchor="middle" x="610" y="-231.5" font-family="Helvetica,sans-Serif" font-size="10.00">OgreSceneManager.h</text>
</a>
</g>
</g>
<!-- Node2&#45;&gt;Node3 -->
<g id="edge2" class="edge"><title>Node2&#45;&gt;Node3</title>
<path fill="none" stroke="midnightblue" d="M907.565,-279.266C838.445,-268.983 730.637,-252.946 665.521,-243.259"/>
<polygon fill="midnightblue" stroke="midnightblue" points="907.067,-282.73 917.473,-280.74 908.097,-275.806 907.067,-282.73"/>
</g>
<!-- Node5 -->
<g id="node5" class="node"><title>Node5</title>
<g id="a_node5"><a xlink:href="_ogre_8h.html" target="_top" xlink:title="Ogre.h">
<polygon fill="none" stroke="red" points="672,-112.5 672,-131.5 718,-131.5 718,-112.5 672,-112.5"/>
<text text-anchor="middle" x="695" y="-119.5" font-family="Helvetica,sans-Serif" font-size="10.00">Ogre.h</text>
</a>
</g>
</g>
<!-- Node2&#45;&gt;Node5 -->
<g id="edge15" class="edge"><title>Node2&#45;&gt;Node5</title>
<path fill="none" stroke="midnightblue" d="M914.02,-278.034C887.64,-271.194 857.123,-260.459 833,-244 796.991,-219.431 804.043,-196.433 771,-168 753.217,-152.698 729.543,-139.613 713.372,-131.561"/>
<polygon fill="midnightblue" stroke="midnightblue" points="913.36,-281.476 923.906,-280.468 915.033,-274.679 913.36,-281.476"/>
</g>
<!-- Node9 -->
<g id="node9" class="node"><title>Node9</title>
<g id="a_node9"><a xlink:href="gtk_2_ogre_config_dialog_imp_8h.html" target="_top" xlink:title="OgreConfigDialogImp.h">
<polygon fill="none" stroke="black" points="1348.5,-224.5 1348.5,-243.5 1467.5,-243.5 1467.5,-224.5 1348.5,-224.5"/>
<text text-anchor="middle" x="1408" y="-231.5" font-family="Helvetica,sans-Serif" font-size="10.00">OgreConfigDialogImp.h</text>
</a>
</g>
</g>
<!-- Node2&#45;&gt;Node9 -->
<g id="edge9" class="edge"><title>Node2&#45;&gt;Node9</title>
<path fill="none" stroke="midnightblue" d="M1038.47,-280.872C1122.51,-270.44 1267.11,-252.49 1348.27,-242.415"/>
<polygon fill="midnightblue" stroke="midnightblue" points="1038.03,-277.401 1028.53,-282.106 1038.89,-284.347 1038.03,-277.401"/>
</g>
<!-- Node10 -->
<g id="node10" class="node"><title>Node10</title>
<g id="a_node10"><a xlink:href="_ogre_compositor_manager_8h.html" target="_top" xlink:title="OgreCompositorManager.h">
<polygon fill="none" stroke="black" points="628,-168.5 628,-187.5 762,-187.5 762,-168.5 628,-168.5"/>
<text text-anchor="middle" x="695" y="-175.5" font-family="Helvetica,sans-Serif" font-size="10.00">OgreCompositorManager.h</text>
</a>
</g>
</g>
<!-- Node2&#45;&gt;Node10 -->
<g id="edge10" class="edge"><title>Node2&#45;&gt;Node10</title>
<path fill="none" stroke="midnightblue" d="M914.881,-278.435C880.61,-271.098 836.874,-259.781 800,-244 763.536,-228.394 724.94,-201.399 706.335,-187.625"/>
<polygon fill="midnightblue" stroke="midnightblue" points="914.233,-281.875 924.737,-280.492 915.663,-275.023 914.233,-281.875"/>
</g>
<!-- Node11 -->
<g id="node11" class="node"><title>Node11</title>
<g id="a_node11"><a xlink:href="_ogre_composition_pass_8h.html" target="_top" xlink:title="OgreCompositionPass.h">
<polygon fill="none" stroke="black" points="842.5,-224.5 842.5,-243.5 965.5,-243.5 965.5,-224.5 842.5,-224.5"/>
<text text-anchor="middle" x="904" y="-231.5" font-family="Helvetica,sans-Serif" font-size="10.00">OgreCompositionPass.h</text>
</a>
</g>
</g>
<!-- Node2&#45;&gt;Node11 -->
<g id="edge12" class="edge"><title>Node2&#45;&gt;Node11</title>
<path fill="none" stroke="midnightblue" d="M953.962,-274.101C941.544,-264.382 925.757,-252.027 915.288,-243.834"/>
<polygon fill="midnightblue" stroke="midnightblue" points="951.882,-276.917 961.914,-280.324 956.196,-271.405 951.882,-276.917"/>
</g>
<!-- Node13 -->
<g id="node13" class="node"><title>Node13</title>
<g id="a_node13"><a xlink:href="_ogre_script_translator_8h.html" target="_top" xlink:title="OgreScriptTranslator.h">
<polygon fill="none" stroke="black" points="983.5,-224.5 983.5,-243.5 1098.5,-243.5 1098.5,-224.5 983.5,-224.5"/>
<text text-anchor="middle" x="1041" y="-231.5" font-family="Helvetica,sans-Serif" font-size="10.00">OgreScriptTranslator.h</text>
</a>
</g>
</g>
<!-- Node2&#45;&gt;Node13 -->
<g id="edge16" class="edge"><title>Node2&#45;&gt;Node13</title>
<path fill="none" stroke="midnightblue" d="M991.762,-274.101C1004,-264.382 1019.56,-252.027 1029.88,-243.834"/>
<polygon fill="midnightblue" stroke="midnightblue" points="989.58,-271.364 983.925,-280.324 993.933,-276.846 989.58,-271.364"/>
</g>
<!-- Node2&#45;&gt;Node15 -->
<g id="edge20" class="edge"><title>Node2&#45;&gt;Node15</title>
<path fill="none" stroke="midnightblue" d="M907.487,-286.543C774.75,-281.261 464.617,-267.37 205,-244 200.36,-243.582 195.561,-243.104 190.74,-242.591"/>
<polygon fill="midnightblue" stroke="midnightblue" points="907.365,-290.041 917.495,-286.939 907.641,-283.047 907.365,-290.041"/>
</g>
<!-- Node16 -->
<g id="node16" class="node"><title>Node16</title>
<g id="a_node16"><a xlink:href="_ogre_overlay_system_8h.html" target="_top" xlink:title="OgreOverlaySystem.h">
<polygon fill="none" stroke="black" points="1706.5,-224.5 1706.5,-243.5 1819.5,-243.5 1819.5,-224.5 1706.5,-224.5"/>
<text text-anchor="middle" x="1763" y="-231.5" font-family="Helvetica,sans-Serif" font-size="10.00">OgreOverlaySystem.h</text>
</a>
</g>
</g>
<!-- Node2&#45;&gt;Node16 -->
<g id="edge21" class="edge"><title>Node2&#45;&gt;Node16</title>
<path fill="none" stroke="midnightblue" d="M1038.88,-286.28C1165.57,-280.739 1451.9,-266.708 1692,-244 1696.7,-243.555 1701.57,-243.045 1706.45,-242.497"/>
<polygon fill="midnightblue" stroke="midnightblue" points="1038.41,-282.797 1028.57,-286.727 1038.72,-289.79 1038.41,-282.797"/>
</g>
<!-- Node19 -->
<g id="node19" class="node"><title>Node19</title>
<g id="a_node19"><a xlink:href="_ogre_shader_f_f_p_texturing_8h.html" target="_top" xlink:title="OgreShaderFFPTexturing.h">
<polygon fill="none" stroke="black" points="1200,-112.5 1200,-131.5 1336,-131.5 1336,-112.5 1200,-112.5"/>
<text text-anchor="middle" x="1268" y="-119.5" font-family="Helvetica,sans-Serif" font-size="10.00">OgreShaderFFPTexturing.h</text>
</a>
</g>
</g>
<!-- Node2&#45;&gt;Node19 -->
<g id="edge24" class="edge"><title>Node2&#45;&gt;Node19</title>
<path fill="none" stroke="midnightblue" d="M1039.15,-288.037C1115.15,-285.397 1233.12,-276.079 1262,-244 1290.85,-211.955 1277.34,-153.641 1270.82,-131.678"/>
<polygon fill="midnightblue" stroke="midnightblue" points="1038.6,-284.553 1028.72,-288.367 1038.82,-291.549 1038.6,-284.553"/>
</g>
<!-- Node20 -->
<g id="node20" class="node"><title>Node20</title>
<g id="a_node20"><a xlink:href="_ogre_d3_d11_mappings_8h.html" target="_top" xlink:title="OgreD3D11Mappings.h">
<polygon fill="none" stroke="black" points="247.5,-224.5 247.5,-243.5 366.5,-243.5 366.5,-224.5 247.5,-224.5"/>
<text text-anchor="middle" x="307" y="-231.5" font-family="Helvetica,sans-Serif" font-size="10.00">OgreD3D11Mappings.h</text>
</a>
</g>
</g>
<!-- Node2&#45;&gt;Node20 -->
<g id="edge26" class="edge"><title>Node2&#45;&gt;Node20</title>
<path fill="none" stroke="midnightblue" d="M906.953,-285.253C796.612,-278.719 567.868,-264.004 375,-244 372.276,-243.717 369.492,-243.413 366.682,-243.093"/>
<polygon fill="midnightblue" stroke="midnightblue" points="907.068,-288.766 917.257,-285.86 907.48,-281.778 907.068,-288.766"/>
</g>
<!-- Node21 -->
<g id="node21" class="node"><title>Node21</title>
<g id="a_node21"><a xlink:href="_ogre_d3_d11_render_system_8h.html" target="_top" xlink:title="OgreD3D11RenderSystem.h">
<polygon fill="none" stroke="red" points="0,-168.5 0,-187.5 142,-187.5 142,-168.5 0,-168.5"/>
<text text-anchor="middle" x="71" y="-175.5" font-family="Helvetica,sans-Serif" font-size="10.00">OgreD3D11RenderSystem.h</text>
</a>
</g>
</g>
<!-- Node2&#45;&gt;Node21 -->
<g id="edge29" class="edge"><title>Node2&#45;&gt;Node21</title>
<path fill="none" stroke="midnightblue" d="M906.974,-288.414C750.903,-286.475 362.971,-278.251 238,-244 219.213,-238.851 216.896,-231.693 199,-224 165.24,-209.489 125.094,-195.953 98.8809,-187.592"/>
<polygon fill="midnightblue" stroke="midnightblue" points="907.318,-291.919 917.359,-288.538 907.401,-284.919 907.318,-291.919"/>
</g>
<!-- Node22 -->
<g id="node22" class="node"><title>Node22</title>
<g id="a_node22"><a xlink:href="_ogre_d3_d9_mappings_8h.html" target="_top" xlink:title="OgreD3D9Mappings.h">
<polygon fill="none" stroke="black" points="384.5,-224.5 384.5,-243.5 497.5,-243.5 497.5,-224.5 384.5,-224.5"/>
<text text-anchor="middle" x="441" y="-231.5" font-family="Helvetica,sans-Serif" font-size="10.00">OgreD3D9Mappings.h</text>
</a>
</g>
</g>
<!-- Node2&#45;&gt;Node22 -->
<g id="edge30" class="edge"><title>Node2&#45;&gt;Node22</title>
<path fill="none" stroke="midnightblue" d="M907.236,-283.18C817.74,-275.124 652.623,-259.773 512,-244 507.308,-243.474 502.444,-242.905 497.564,-242.319"/>
<polygon fill="midnightblue" stroke="midnightblue" points="906.967,-286.67 917.241,-284.079 907.594,-279.698 906.967,-286.67"/>
</g>
<!-- Node23 -->
<g id="node23" class="node"><title>Node23</title>
<g id="a_node23"><a xlink:href="_ogre_d3_d9_render_system_8h.html" target="_top" xlink:title="OgreD3D9RenderSystem.h">
<polygon fill="none" stroke="red" points="160.5,-168.5 160.5,-187.5 297.5,-187.5 297.5,-168.5 160.5,-168.5"/>
<text text-anchor="middle" x="229" y="-175.5" font-family="Helvetica,sans-Serif" font-size="10.00">OgreD3D9RenderSystem.h</text>
</a>
</g>
</g>
<!-- Node2&#45;&gt;Node23 -->
<g id="edge32" class="edge"><title>Node2&#45;&gt;Node23</title>
<path fill="none" stroke="midnightblue" d="M907.289,-289.517C822.002,-288.522 669.379,-281.022 545,-244 526.33,-238.443 524.506,-230.08 506,-224 468.161,-211.568 365.667,-196.66 296.539,-187.51"/>
<polygon fill="midnightblue" stroke="midnightblue" points="907.318,-293.018 917.349,-289.608 907.381,-286.018 907.318,-293.018"/>
</g>
<!-- Node24 -->
<g id="node24" class="node"><title>Node24</title>
<g id="a_node24"><a xlink:href="_ogre_g_l_render_system_8h.html" target="_top" xlink:title="OgreGLRenderSystem.h">
<polygon fill="none" stroke="black" points="1497,-168.5 1497,-187.5 1621,-187.5 1621,-168.5 1497,-168.5"/>
<text text-anchor="middle" x="1559" y="-175.5" font-family="Helvetica,sans-Serif" font-size="10.00">OgreGLRenderSystem.h</text>
</a>
</g>
</g>
<!-- Node2&#45;&gt;Node24 -->
<g id="edge33" class="edge"><title>Node2&#45;&gt;Node24</title>
<path fill="none" stroke="midnightblue" d="M1039.15,-289.671C1202.94,-290.642 1617.21,-288.619 1659,-244 1682.92,-218.459 1631.68,-198.312 1594.09,-187.569"/>
<polygon fill="midnightblue" stroke="midnightblue" points="1038.75,-286.169 1028.73,-289.603 1038.7,-293.168 1038.75,-286.169"/>
</g>
<!-- Node29 -->
<g id="node29" class="node"><title>Node29</title>
<g id="a_node29"><a xlink:href="_ogre_g_l_e_s_render_system_8h.html" target="_top" xlink:title="OgreGLESRenderSystem.h">
<polygon fill="none" stroke="red" points="1116.5,-224.5 1116.5,-243.5 1253.5,-243.5 1253.5,-224.5 1116.5,-224.5"/>
<text text-anchor="middle" x="1185" y="-231.5" font-family="Helvetica,sans-Serif" font-size="10.00">OgreGLESRenderSystem.h</text>
</a>
</g>
</g>
<!-- Node2&#45;&gt;Node29 -->
<g id="edge39" class="edge"><title>Node2&#45;&gt;Node29</title>
<path fill="none" stroke="midnightblue" d="M1016.35,-277.959C1056.39,-267.76 1115.03,-252.822 1151.57,-243.516"/>
<polygon fill="midnightblue" stroke="midnightblue" points="1015.42,-274.583 1006.59,-280.444 1017.15,-281.367 1015.42,-274.583"/>
</g>
<!-- Node30 -->
<g id="node30" class="node"><title>Node30</title>
<g id="a_node30"><a xlink:href="_ogre_g_l_e_s2_render_system_8h.html" target="_top" xlink:title="OgreGLES2RenderSystem.h">
<polygon fill="none" stroke="black" points="1327.5,-168.5 1327.5,-187.5 1470.5,-187.5 1470.5,-168.5 1327.5,-168.5"/>
<text text-anchor="middle" x="1399" y="-175.5" font-family="Helvetica,sans-Serif" font-size="10.00">OgreGLES2RenderSystem.h</text>
</a>
</g>
</g>
<!-- Node2&#45;&gt;Node30 -->
<g id="edge40" class="edge"><title>Node2&#45;&gt;Node30</title>
<path fill="none" stroke="midnightblue" d="M1039.08,-287.901C1105.78,-284.941 1210.83,-275.156 1296,-244 1333.13,-230.416 1370.98,-201.994 1388.68,-187.66"/>
<polygon fill="midnightblue" stroke="midnightblue" points="1038.57,-284.419 1028.72,-288.32 1038.85,-291.413 1038.57,-284.419"/>
</g>
<!-- Node31 -->
<g id="node31" class="node"><title>Node31</title>
<g id="a_node31"><a xlink:href="_ogre_g_l_render_system_common_8h.html" target="_top" xlink:title="OgreGLRenderSystemCommon.h">
<polygon fill="none" stroke="red" points="1486,-224.5 1486,-243.5 1650,-243.5 1650,-224.5 1486,-224.5"/>
<text text-anchor="middle" x="1568" y="-231.5" font-family="Helvetica,sans-Serif" font-size="10.00">OgreGLRenderSystemCommon.h</text>
</a>
</g>
</g>
<!-- Node2&#45;&gt;Node31 -->
<g id="edge41" class="edge"><title>Node2&#45;&gt;Node31</title>
<path fill="none" stroke="midnightblue" d="M1038.99,-283.272C1135.14,-274.886 1319.34,-258.67 1476,-244 1479.2,-243.701 1482.45,-243.393 1485.74,-243.081"/>
<polygon fill="midnightblue" stroke="midnightblue" points="1038.5,-279.802 1028.84,-284.157 1039.1,-286.775 1038.5,-279.802"/>
</g>
<!-- Node4 -->
<g id="node4" class="node"><title>Node4</title>
<g id="a_node4"><a xlink:href="_ogre_scene_manager_enumerator_8h.html" target="_top" xlink:title="OgreSceneManagerEnumerator.h">
<polygon fill="none" stroke="red" points="448.5,-168.5 448.5,-187.5 609.5,-187.5 609.5,-168.5 448.5,-168.5"/>
<text text-anchor="middle" x="529" y="-175.5" font-family="Helvetica,sans-Serif" font-size="10.00">OgreSceneManagerEnumerator.h</text>
</a>
</g>
</g>
<!-- Node3&#45;&gt;Node4 -->
<g id="edge3" class="edge"><title>Node3&#45;&gt;Node4</title>
<path fill="none" stroke="midnightblue" d="M588.433,-218.622C573.636,-208.757 554.488,-195.992 541.982,-187.655"/>
<polygon fill="midnightblue" stroke="midnightblue" points="586.724,-221.689 596.986,-224.324 590.607,-215.865 586.724,-221.689"/>
</g>
<!-- Node3&#45;&gt;Node5 -->
<g id="edge5" class="edge"><title>Node3&#45;&gt;Node5</title>
<path fill="none" stroke="midnightblue" d="M544.381,-224.106C501.884,-216.847 452.1,-204.994 439,-188 433.573,-180.96 433.285,-174.808 439,-168 468.668,-132.662 614.297,-125.066 671.689,-123.44"/>
<polygon fill="midnightblue" stroke="midnightblue" points="544.002,-227.59 554.438,-225.763 545.141,-220.684 544.002,-227.59"/>
</g>
<!-- Node6 -->
<g id="node6" class="node"><title>Node6</title>
<g id="a_node6"><a xlink:href="_ogre_shader_generator_8h.html" target="_top" xlink:title="OgreShaderGenerator.h">
<polygon fill="none" stroke="red" points="1034.5,-112.5 1034.5,-131.5 1153.5,-131.5 1153.5,-112.5 1034.5,-112.5"/>
<text text-anchor="middle" x="1094" y="-119.5" font-family="Helvetica,sans-Serif" font-size="10.00">OgreShaderGenerator.h</text>
</a>
</g>
</g>
<!-- Node3&#45;&gt;Node6 -->
<g id="edge6" class="edge"><title>Node3&#45;&gt;Node6</title>
<path fill="none" stroke="midnightblue" d="M655.123,-222.042C709.55,-208.892 803.854,-186.324 885,-168 943.29,-154.837 1010.93,-140.432 1053.1,-131.554"/>
<polygon fill="midnightblue" stroke="midnightblue" points="654.007,-218.711 645.11,-224.463 655.653,-225.514 654.007,-218.711"/>
</g>
<!-- Node8 -->
<g id="node8" class="node"><title>Node8</title>
<g id="a_node8"><a xlink:href="_ogre_terrain_8h.html" target="_top" xlink:title="OgreTerrain.h">
<polygon fill="none" stroke="red" points="316,-168.5 316,-187.5 392,-187.5 392,-168.5 316,-168.5"/>
<text text-anchor="middle" x="354" y="-175.5" font-family="Helvetica,sans-Serif" font-size="10.00">OgreTerrain.h</text>
</a>
</g>
</g>
<!-- Node3&#45;&gt;Node8 -->
<g id="edge8" class="edge"><title>Node3&#45;&gt;Node8</title>
<path fill="none" stroke="midnightblue" d="M559.646,-222.379C510.505,-212.013 436.82,-196.47 392.284,-187.075"/>
<polygon fill="midnightblue" stroke="midnightblue" points="558.929,-225.804 569.436,-224.444 560.374,-218.955 558.929,-225.804"/>
</g>
<!-- Node4&#45;&gt;Node5 -->
<g id="edge4" class="edge"><title>Node4&#45;&gt;Node5</title>
<path fill="none" stroke="midnightblue" d="M564.862,-165.334C597.266,-154.793 644.009,-139.587 671.766,-130.558"/>
<polygon fill="midnightblue" stroke="midnightblue" points="563.73,-162.022 555.303,-168.444 565.895,-168.678 563.73,-162.022"/>
</g>
<!-- Node7 -->
<g id="node7" class="node"><title>Node7</title>
<g id="a_node7"><a xlink:href="_ogre_r_t_shader_system_8h.html" target="_top" xlink:title="OgreRTShaderSystem.h">
<polygon fill="none" stroke="red" points="1119,-56.5 1119,-75.5 1243,-75.5 1243,-56.5 1119,-56.5"/>
<text text-anchor="middle" x="1181" y="-63.5" font-family="Helvetica,sans-Serif" font-size="10.00">OgreRTShaderSystem.h</text>
</a>
</g>
</g>
<!-- Node6&#45;&gt;Node7 -->
<g id="edge7" class="edge"><title>Node6&#45;&gt;Node7</title>
<path fill="none" stroke="midnightblue" d="M1116.72,-106.901C1132.67,-96.9986 1153.5,-84.0705 1167.06,-75.6545"/>
<polygon fill="midnightblue" stroke="midnightblue" points="1114.63,-104.077 1107.98,-112.324 1118.32,-110.024 1114.63,-104.077"/>
</g>
<!-- Node10&#45;&gt;Node5 -->
<g id="edge11" class="edge"><title>Node10&#45;&gt;Node5</title>
<path fill="none" stroke="midnightblue" d="M695,-157.805C695,-148.91 695,-138.78 695,-131.751"/>
<polygon fill="midnightblue" stroke="midnightblue" points="691.5,-158.083 695,-168.083 698.5,-158.083 691.5,-158.083"/>
</g>
<!-- Node11&#45;&gt;Node5 -->
<g id="edge13" class="edge"><title>Node11&#45;&gt;Node5</title>
<path fill="none" stroke="midnightblue" d="M892.055,-216.283C880.729,-201.583 862.44,-180.618 842,-168 802.369,-143.536 748.465,-131.515 718.16,-126.34"/>
<polygon fill="midnightblue" stroke="midnightblue" points="889.388,-218.561 898.165,-224.496 895.004,-214.383 889.388,-218.561"/>
</g>
<!-- Node12 -->
<g id="node12" class="node"><title>Node12</title>
<g id="a_node12"><a xlink:href="_ogre_custom_composition_pass_8h.html" target="_top" xlink:title="OgreCustomCompositionPass.h">
<polygon fill="none" stroke="black" points="894,-168.5 894,-187.5 1052,-187.5 1052,-168.5 894,-168.5"/>
<text text-anchor="middle" x="973" y="-175.5" font-family="Helvetica,sans-Serif" font-size="10.00">OgreCustomCompositionPass.h</text>
</a>
</g>
</g>
<!-- Node11&#45;&gt;Node12 -->
<g id="edge14" class="edge"><title>Node11&#45;&gt;Node12</title>
<path fill="none" stroke="midnightblue" d="M923.038,-218.101C935.456,-208.382 951.243,-196.027 961.712,-187.834"/>
<polygon fill="midnightblue" stroke="midnightblue" points="920.804,-215.405 915.086,-224.324 925.118,-220.917 920.804,-215.405"/>
</g>
<!-- Node13&#45;&gt;Node6 -->
<g id="edge19" class="edge"><title>Node13&#45;&gt;Node6</title>
<path fill="none" stroke="midnightblue" d="M1049.52,-215.32C1061.06,-191.37 1081.21,-149.548 1089.86,-131.591"/>
<polygon fill="midnightblue" stroke="midnightblue" points="1046.35,-213.84 1045.16,-224.368 1052.65,-216.879 1046.35,-213.84"/>
</g>
<!-- Node14 -->
<g id="node14" class="node"><title>Node14</title>
<g id="a_node14"><a xlink:href="_ogre_shader_script_translator_8h.html" target="_top" xlink:title="OgreShaderScriptTranslator.h">
<polygon fill="none" stroke="red" points="1108,-168.5 1108,-187.5 1254,-187.5 1254,-168.5 1108,-168.5"/>
<text text-anchor="middle" x="1181" y="-175.5" font-family="Helvetica,sans-Serif" font-size="10.00">OgreShaderScriptTranslator.h</text>
</a>
</g>
</g>
<!-- Node13&#45;&gt;Node14 -->
<g id="edge17" class="edge"><title>Node13&#45;&gt;Node14</title>
<path fill="none" stroke="midnightblue" d="M1072.7,-220.772C1099,-210.629 1135.72,-196.467 1158.92,-187.516"/>
<polygon fill="midnightblue" stroke="midnightblue" points="1071.25,-217.579 1063.18,-224.444 1073.77,-224.11 1071.25,-217.579"/>
</g>
<!-- Node14&#45;&gt;Node6 -->
<g id="edge18" class="edge"><title>Node14&#45;&gt;Node6</title>
<path fill="none" stroke="midnightblue" d="M1158.28,-162.901C1142.33,-152.999 1121.5,-140.071 1107.94,-131.655"/>
<polygon fill="midnightblue" stroke="midnightblue" points="1156.68,-166.024 1167.02,-168.324 1160.37,-160.077 1156.68,-166.024"/>
</g>
<!-- Node17 -->
<g id="node17" class="node"><title>Node17</title>
<g id="a_node17"><a xlink:href="_ogre_application_context_8h.html" target="_top" xlink:title="OgreApplicationContext.h">
<polygon fill="none" stroke="black" points="1729,-168.5 1729,-187.5 1857,-187.5 1857,-168.5 1729,-168.5"/>
<text text-anchor="middle" x="1793" y="-175.5" font-family="Helvetica,sans-Serif" font-size="10.00">OgreApplicationContext.h</text>
</a>
</g>
</g>
<!-- Node16&#45;&gt;Node17 -->
<g id="edge22" class="edge"><title>Node16&#45;&gt;Node17</title>
<path fill="none" stroke="midnightblue" d="M1772.85,-215.275C1777.97,-206.045 1784.02,-195.17 1788.14,-187.751"/>
<polygon fill="midnightblue" stroke="midnightblue" points="1769.75,-213.642 1767.95,-224.083 1775.87,-217.041 1769.75,-213.642"/>
</g>
<!-- Node18 -->
<g id="node18" class="node"><title>Node18</title>
<g id="a_node18"><a xlink:href="_ogre_trays_8h.html" target="_top" xlink:title="OgreTrays.h">
<polygon fill="none" stroke="black" points="1639.5,-168.5 1639.5,-187.5 1710.5,-187.5 1710.5,-168.5 1639.5,-168.5"/>
<text text-anchor="middle" x="1675" y="-175.5" font-family="Helvetica,sans-Serif" font-size="10.00">OgreTrays.h</text>
</a>
</g>
</g>
<!-- Node16&#45;&gt;Node18 -->
<g id="edge23" class="edge"><title>Node16&#45;&gt;Node18</title>
<path fill="none" stroke="midnightblue" d="M1740.02,-218.901C1723.89,-208.999 1702.82,-196.071 1689.1,-187.655"/>
<polygon fill="midnightblue" stroke="midnightblue" points="1738.51,-222.077 1748.86,-224.324 1742.17,-216.111 1738.51,-222.077"/>
</g>
<!-- Node19&#45;&gt;Node7 -->
<g id="edge25" class="edge"><title>Node19&#45;&gt;Node7</title>
<path fill="none" stroke="midnightblue" d="M1245.28,-106.901C1229.33,-96.9986 1208.5,-84.0705 1194.94,-75.6545"/>
<polygon fill="midnightblue" stroke="midnightblue" points="1243.68,-110.024 1254.02,-112.324 1247.37,-104.077 1243.68,-110.024"/>
</g>
<!-- Node20&#45;&gt;Node21 -->
<g id="edge27" class="edge"><title>Node20&#45;&gt;Node21</title>
<path fill="none" stroke="midnightblue" d="M254.644,-222.281C208.263,-212.077 142.167,-196.92 103.14,-187.516"/>
<polygon fill="midnightblue" stroke="midnightblue" points="253.999,-225.723 264.516,-224.444 255.497,-218.885 253.999,-225.723"/>
</g>
<!-- Node21&#45;&gt;Node20 -->
<g id="edge28" class="edge"><title>Node21&#45;&gt;Node20</title>
<path fill="none" stroke="midnightblue" d="M123.159,-189.675C169.484,-199.866 235.591,-215.023 274.694,-224.444"/>
<polygon fill="midnightblue" stroke="midnightblue" points="123.817,-186.236 113.3,-187.516 122.32,-193.074 123.817,-186.236"/>
</g>
<!-- Node22&#45;&gt;Node23 -->
<g id="edge31" class="edge"><title>Node22&#45;&gt;Node23</title>
<path fill="none" stroke="midnightblue" d="M397.654,-221.959C357.613,-211.76 298.967,-196.822 262.435,-187.516"/>
<polygon fill="midnightblue" stroke="midnightblue" points="396.853,-225.367 407.408,-224.444 398.581,-218.583 396.853,-225.367"/>
</g>
<!-- Node24&#45;&gt;Node25 -->
<g id="edge34" class="edge"><title>Node24&#45;&gt;Node25</title>
<path fill="none" stroke="midnightblue" d="M1620.54,-166.806C1684.06,-156.285 1781.68,-140.114 1838.86,-130.643"/>
<polygon fill="midnightblue" stroke="midnightblue" points="1619.95,-163.356 1610.66,-168.444 1621.09,-170.262 1619.95,-163.356"/>
</g>
<!-- Node26 -->
<g id="node26" class="node"><title>Node26</title>
<g id="a_node26"><a xlink:href="_ogre_g_l_a_t_i_f_s_init_8h.html" target="_top" xlink:title="OgreGLATIFSInit.h">
<polygon fill="none" stroke="black" points="1755.5,-56.5 1755.5,-75.5 1856.5,-75.5 1856.5,-56.5 1755.5,-56.5"/>
<text text-anchor="middle" x="1806" y="-63.5" font-family="Helvetica,sans-Serif" font-size="10.00">OgreGLATIFSInit.h</text>
</a>
</g>
</g>
<!-- Node25&#45;&gt;Node26 -->
<g id="edge35" class="edge"><title>Node25&#45;&gt;Node26</title>
<path fill="none" stroke="midnightblue" d="M1863.97,-106.622C1849.53,-96.7574 1830.86,-83.9919 1818.66,-75.6545"/>
<polygon fill="midnightblue" stroke="midnightblue" points="1862.08,-109.57 1872.31,-112.324 1866.03,-103.791 1862.08,-109.57"/>
</g>
<!-- Node27 -->
<g id="node27" class="node"><title>Node27</title>
<g id="a_node27"><a xlink:href="_ogre_g_l_texture_8h.html" target="_top" xlink:title="OgreGLTexture.h">
<polygon fill="none" stroke="red" points="1913,-56.5 1913,-75.5 2005,-75.5 2005,-56.5 1913,-56.5"/>
<text text-anchor="middle" x="1959" y="-63.5" font-family="Helvetica,sans-Serif" font-size="10.00">OgreGLTexture.h</text>
</a>
</g>
</g>
<!-- Node25&#45;&gt;Node27 -->
<g id="edge36" class="edge"><title>Node25&#45;&gt;Node27</title>
<path fill="none" stroke="midnightblue" d="M1905.03,-106.38C1918.41,-96.6204 1935.56,-84.1057 1946.89,-75.8339"/>
<polygon fill="midnightblue" stroke="midnightblue" points="1902.9,-103.602 1896.89,-112.324 1907.03,-109.257 1902.9,-103.602"/>
</g>
<!-- Node28 -->
<g id="node28" class="node"><title>Node28</title>
<g id="a_node28"><a xlink:href="_ogre_g_l_texture_manager_8h.html" target="_top" xlink:title="OgreGLTextureManager.h">
<polygon fill="none" stroke="black" points="1857.5,-0.5 1857.5,-19.5 1986.5,-19.5 1986.5,-0.5 1857.5,-0.5"/>
<text text-anchor="middle" x="1922" y="-7.5" font-family="Helvetica,sans-Serif" font-size="10.00">OgreGLTextureManager.h</text>
</a>
</g>
</g>
<!-- Node25&#45;&gt;Node28 -->
<g id="edge38" class="edge"><title>Node25&#45;&gt;Node28</title>
<path fill="none" stroke="midnightblue" d="M1889.93,-102.377C1893.52,-89.2989 1898.66,-71.4543 1904,-56 1908.45,-43.1152 1914.48,-28.5174 1918.3,-19.5343"/>
<polygon fill="midnightblue" stroke="midnightblue" points="1886.54,-101.517 1887.31,-112.084 1893.3,-103.339 1886.54,-101.517"/>
</g>
<!-- Node27&#45;&gt;Node28 -->
<g id="edge37" class="edge"><title>Node27&#45;&gt;Node28</title>
<path fill="none" stroke="midnightblue" d="M1947.05,-47.5656C1940.69,-38.2747 1933.13,-27.2484 1928,-19.7511"/>
<polygon fill="midnightblue" stroke="midnightblue" points="1944.35,-49.812 1952.89,-56.083 1950.13,-45.8553 1944.35,-49.812"/>
</g>
<!-- Node31&#45;&gt;Node24 -->
<g id="edge42" class="edge"><title>Node31&#45;&gt;Node24</title>
<path fill="none" stroke="midnightblue" d="M1564.85,-214.101C1563.36,-205.136 1561.64,-194.858 1560.46,-187.751"/>
<polygon fill="midnightblue" stroke="midnightblue" points="1561.42,-214.794 1566.51,-224.083 1568.32,-213.644 1561.42,-214.794"/>
</g>
<!-- Node31&#45;&gt;Node30 -->
<g id="edge43" class="edge"><title>Node31&#45;&gt;Node30</title>
<path fill="none" stroke="midnightblue" d="M1531.4,-221.304C1499.55,-211.129 1454.16,-196.625 1425.65,-187.516"/>
<polygon fill="midnightblue" stroke="midnightblue" points="1530.63,-224.734 1541.22,-224.444 1532.76,-218.066 1530.63,-224.734"/>
</g>
<!-- Node33 -->
<g id="node33" class="node"><title>Node33</title>
<g id="a_node33"><a xlink:href="_ogre_g_l3_plus_texture_8h.html" target="_top" xlink:title="OgreGL3PlusTexture.h">
<polygon fill="none" stroke="red" points="1951,-168.5 1951,-187.5 2067,-187.5 2067,-168.5 1951,-168.5"/>
<text text-anchor="middle" x="2009" y="-175.5" font-family="Helvetica,sans-Serif" font-size="10.00">OgreGL3PlusTexture.h</text>
</a>
</g>
</g>
<!-- Node32&#45;&gt;Node33 -->
<g id="edge47" class="edge"><title>Node32&#45;&gt;Node33</title>
<path fill="none" stroke="midnightblue" d="M2022.22,-214.69C2018.85,-205.589 2014.93,-195.014 2012.24,-187.751"/>
<polygon fill="midnightblue" stroke="midnightblue" points="2018.94,-215.921 2025.7,-224.083 2025.51,-213.49 2018.94,-215.921"/>
</g>
<!-- Node34 -->
<g id="node34" class="node"><title>Node34</title>
<g id="a_node34"><a xlink:href="_ogre_g_l3_plus_texture_manager_8h.html" target="_top" xlink:title="OgreGL3PlusTextureManager.h">
<polygon fill="none" stroke="black" points="1984,-112.5 1984,-131.5 2138,-131.5 2138,-112.5 1984,-112.5"/>
<text text-anchor="middle" x="2061" y="-119.5" font-family="Helvetica,sans-Serif" font-size="10.00">OgreGL3PlusTextureManager.h</text>
</a>
</g>
</g>
<!-- Node32&#45;&gt;Node34 -->
<g id="edge49" class="edge"><title>Node32&#45;&gt;Node34</title>
<path fill="none" stroke="midnightblue" d="M2051.17,-218.161C2060.72,-210.424 2070.85,-200.053 2076,-188 2084.19,-168.828 2073.44,-144.482 2066.35,-131.716"/>
<polygon fill="midnightblue" stroke="midnightblue" points="2048.96,-215.447 2043.08,-224.259 2053.17,-221.038 2048.96,-215.447"/>
</g>
<!-- Node33&#45;&gt;Node34 -->
<g id="edge48" class="edge"><title>Node33&#45;&gt;Node34</title>
<path fill="none" stroke="midnightblue" d="M2024.68,-160.718C2033.84,-151.2 2045.05,-139.561 2052.57,-131.751"/>
<polygon fill="midnightblue" stroke="midnightblue" points="2022,-158.452 2017.59,-168.083 2027.04,-163.308 2022,-158.452"/>
</g>
<!-- Node36 -->
<g id="node36" class="node"><title>Node36</title>
<g id="a_node36"><a xlink:href="_ogre_e_a_g_l_support_8h.html" target="_top" xlink:title="OgreEAGLSupport.h">
<polygon fill="none" stroke="red" points="3006,-224.5 3006,-243.5 3112,-243.5 3112,-224.5 3006,-224.5"/>
<text text-anchor="middle" x="3059" y="-231.5" font-family="Helvetica,sans-Serif" font-size="10.00">OgreEAGLSupport.h</text>
</a>
</g>
</g>
<!-- Node35&#45;&gt;Node36 -->
<g id="edge51" class="edge"><title>Node35&#45;&gt;Node36</title>
<path fill="none" stroke="midnightblue" d="M2964.01,-276.368C2987.23,-266.255 3019.16,-252.349 3039.44,-243.516"/>
<polygon fill="midnightblue" stroke="midnightblue" points="2962.42,-273.242 2954.65,-280.444 2965.21,-279.66 2962.42,-273.242"/>
</g>
<!-- Node37 -->
<g id="node37" class="node"><title>Node37</title>
<g id="a_node37"><a xlink:href="_g_l_e_s_2include_2_e_g_l_2_ogre_e_g_l_support_8h.html" target="_top" xlink:title="OgreEGLSupport.h">
<polygon fill="none" stroke="red" points="3130.5,-224.5 3130.5,-243.5 3229.5,-243.5 3229.5,-224.5 3130.5,-224.5"/>
<text text-anchor="middle" x="3180" y="-231.5" font-family="Helvetica,sans-Serif" font-size="10.00">OgreEGLSupport.h</text>
</a>
</g>
</g>
<!-- Node35&#45;&gt;Node37 -->
<g id="edge52" class="edge"><title>Node35&#45;&gt;Node37</title>
<path fill="none" stroke="midnightblue" d="M2983.63,-278.281C3029.93,-268.077 3098.69,-252.92 3141.36,-243.516"/>
<polygon fill="midnightblue" stroke="midnightblue" points="2982.83,-274.873 2973.82,-280.444 2984.34,-281.709 2982.83,-274.873"/>
</g>
<!-- Node38 -->
<g id="node38" class="node"><title>Node38</title>
<g id="a_node38"><a xlink:href="_ogre_g_l_e_s_texture_8h.html" target="_top" xlink:title="OgreGLESTexture.h">
<polygon fill="none" stroke="red" points="2882.5,-224.5 2882.5,-243.5 2987.5,-243.5 2987.5,-224.5 2882.5,-224.5"/>
<text text-anchor="middle" x="2935" y="-231.5" font-family="Helvetica,sans-Serif" font-size="10.00">OgreGLESTexture.h</text>
</a>
</g>
</g>
<!-- Node35&#45;&gt;Node38 -->
<g id="edge53" class="edge"><title>Node35&#45;&gt;Node38</title>
<path fill="none" stroke="midnightblue" d="M2935,-269.805C2935,-260.91 2935,-250.78 2935,-243.751"/>
<polygon fill="midnightblue" stroke="midnightblue" points="2931.5,-270.083 2935,-280.083 2938.5,-270.083 2931.5,-270.083"/>
</g>
<!-- Node39 -->
<g id="node39" class="node"><title>Node39</title>
<g id="a_node39"><a xlink:href="_ogre_g_l_e_s_texture_manager_8h.html" target="_top" xlink:title="OgreGLESTextureManager.h">
<polygon fill="none" stroke="black" points="2822.5,-168.5 2822.5,-187.5 2965.5,-187.5 2965.5,-168.5 2822.5,-168.5"/>
<text text-anchor="middle" x="2894" y="-175.5" font-family="Helvetica,sans-Serif" font-size="10.00">OgreGLESTextureManager.h</text>
</a>
</g>
</g>
<!-- Node35&#45;&gt;Node39 -->
<g id="edge55" class="edge"><title>Node35&#45;&gt;Node39</title>
<path fill="none" stroke="midnightblue" d="M2905.9,-275.654C2893.37,-268.25 2880,-257.73 2873,-244 2863.3,-224.983 2877.63,-200.573 2886.98,-187.757"/>
<polygon fill="midnightblue" stroke="midnightblue" points="2904.32,-278.78 2914.78,-280.495 2907.67,-272.634 2904.32,-278.78"/>
</g>
<!-- Node38&#45;&gt;Node39 -->
<g id="edge54" class="edge"><title>Node38&#45;&gt;Node39</title>
<path fill="none" stroke="midnightblue" d="M2921.98,-215.855C2914.88,-206.505 2906.4,-195.327 2900.64,-187.751"/>
<polygon fill="midnightblue" stroke="midnightblue" points="2919.39,-218.235 2928.23,-224.083 2924.97,-214.002 2919.39,-218.235"/>
</g>
<!-- Node41 -->
<g id="node41" class="node"><title>Node41</title>
<g id="a_node41"><a xlink:href="_ogre_e_a_g_l2_support_8h.html" target="_top" xlink:title="OgreEAGL2Support.h">
<polygon fill="none" stroke="red" points="2256.5,-168.5 2256.5,-187.5 2367.5,-187.5 2367.5,-168.5 2256.5,-168.5"/>
<text text-anchor="middle" x="2312" y="-175.5" font-family="Helvetica,sans-Serif" font-size="10.00">OgreEAGL2Support.h</text>
</a>
</g>
</g>
<!-- Node40&#45;&gt;Node41 -->
<g id="edge57" class="edge"><title>Node40&#45;&gt;Node41</title>
<path fill="none" stroke="midnightblue" d="M2194.45,-221.039C2222.86,-210.879 2262.94,-196.546 2288.19,-187.516"/>
<polygon fill="midnightblue" stroke="midnightblue" points="2193.16,-217.781 2184.93,-224.444 2195.52,-224.372 2193.16,-217.781"/>
</g>
<!-- Node42 -->
<g id="node42" class="node"><title>Node42</title>
<g id="a_node42"><a xlink:href="_ogre_na_cl_g_l_support_8h.html" target="_top" xlink:title="OgreNaClGLSupport.h">
<polygon fill="none" stroke="red" points="2123.5,-168.5 2123.5,-187.5 2238.5,-187.5 2238.5,-168.5 2123.5,-168.5"/>
<text text-anchor="middle" x="2181" y="-175.5" font-family="Helvetica,sans-Serif" font-size="10.00">OgreNaClGLSupport.h</text>
</a>
</g>
</g>
<!-- Node40&#45;&gt;Node42 -->
<g id="edge58" class="edge"><title>Node40&#45;&gt;Node42</title>
<path fill="none" stroke="midnightblue" d="M2167.78,-214.69C2171.15,-205.589 2175.07,-195.014 2177.76,-187.751"/>
<polygon fill="midnightblue" stroke="midnightblue" points="2164.49,-213.49 2164.3,-224.083 2171.06,-215.921 2164.49,-213.49"/>
</g>
<!-- Node43 -->
<g id="node43" class="node"><title>Node43</title>
<g id="a_node43"><a xlink:href="_ogre_g_l_e_s2_texture_8h.html" target="_top" xlink:title="OgreGLES2Texture.h">
<polygon fill="none" stroke="red" points="2424,-168.5 2424,-187.5 2534,-187.5 2534,-168.5 2424,-168.5"/>
<text text-anchor="middle" x="2479" y="-175.5" font-family="Helvetica,sans-Serif" font-size="10.00">OgreGLES2Texture.h</text>
</a>
</g>
</g>
<!-- Node40&#45;&gt;Node43 -->
<g id="edge59" class="edge"><title>Node40&#45;&gt;Node43</title>
<path fill="none" stroke="midnightblue" d="M2221.49,-222.727C2281.59,-212.523 2372.66,-197.058 2428.85,-187.516"/>
<polygon fill="midnightblue" stroke="midnightblue" points="2220.66,-219.319 2211.39,-224.444 2221.83,-226.22 2220.66,-219.319"/>
</g>
<!-- Node44 -->
<g id="node44" class="node"><title>Node44</title>
<g id="a_node44"><a xlink:href="_ogre_g_l_e_s2_texture_manager_8h.html" target="_top" xlink:title="OgreGLES2TextureManager.h">
<polygon fill="none" stroke="black" points="2363,-112.5 2363,-131.5 2511,-131.5 2511,-112.5 2363,-112.5"/>
<text text-anchor="middle" x="2437" y="-119.5" font-family="Helvetica,sans-Serif" font-size="10.00">OgreGLES2TextureManager.h</text>
</a>
</g>
</g>
<!-- Node40&#45;&gt;Node44 -->
<g id="edge61" class="edge"><title>Node40&#45;&gt;Node44</title>
<path fill="none" stroke="midnightblue" d="M2226.65,-223.696C2280.15,-215.306 2350.82,-202.145 2376,-188 2401.1,-173.904 2421.93,-145.978 2431.44,-131.76"/>
<polygon fill="midnightblue" stroke="midnightblue" points="2225.89,-220.272 2216.54,-225.257 2226.95,-227.19 2225.89,-220.272"/>
</g>
<!-- Node43&#45;&gt;Node44 -->
<g id="edge60" class="edge"><title>Node43&#45;&gt;Node44</title>
<path fill="none" stroke="midnightblue" d="M2465.89,-160.144C2458.57,-150.736 2449.76,-139.405 2443.81,-131.751"/>
<polygon fill="midnightblue" stroke="midnightblue" points="2463.16,-162.338 2472.06,-168.083 2468.69,-158.041 2463.16,-162.338"/>
</g>
<!-- Node45&#45;&gt;Node25 -->
<g id="edge63" class="edge"><title>Node45&#45;&gt;Node25</title>
<path fill="none" stroke="midnightblue" d="M2213.39,-286.059C2131.18,-281.459 2001.5,-270.2 1961,-244 1917.88,-216.108 1894.8,-154.21 1887.55,-131.536"/>
<polygon fill="midnightblue" stroke="midnightblue" points="2213.24,-289.556 2223.41,-286.6 2213.62,-282.566 2213.24,-289.556"/>
</g>
<!-- Node45&#45;&gt;Node32 -->
<g id="edge64" class="edge"><title>Node45&#45;&gt;Node32</title>
<path fill="none" stroke="midnightblue" d="M2233.69,-278.346C2185.5,-268.141 2113.72,-252.94 2069.22,-243.516"/>
<polygon fill="midnightblue" stroke="midnightblue" points="2233.09,-281.796 2243.59,-280.444 2234.54,-274.948 2233.09,-281.796"/>
</g>
<!-- Node45&#45;&gt;Node40 -->
<g id="edge65" class="edge"><title>Node45&#45;&gt;Node40</title>
<path fill="none" stroke="midnightblue" d="M2255.23,-276.368C2232.19,-266.255 2200.52,-252.349 2180.4,-243.516"/>
<polygon fill="midnightblue" stroke="midnightblue" points="2253.95,-279.628 2264.51,-280.444 2256.76,-273.219 2253.95,-279.628"/>
</g>
<!-- Node46 -->
<g id="node46" class="node"><title>Node46</title>
<g id="a_node46"><a xlink:href="_g_l_support_2include_2_e_g_l_2_ogre_e_g_l_support_8h.html" target="_top" xlink:title="OgreEGLSupport.h">
<polygon fill="none" stroke="red" points="2234.5,-224.5 2234.5,-243.5 2333.5,-243.5 2333.5,-224.5 2234.5,-224.5"/>
<text text-anchor="middle" x="2284" y="-231.5" font-family="Helvetica,sans-Serif" font-size="10.00">OgreEGLSupport.h</text>
</a>
</g>
</g>
<!-- Node45&#45;&gt;Node46 -->
<g id="edge66" class="edge"><title>Node45&#45;&gt;Node46</title>
<path fill="none" stroke="midnightblue" d="M2284,-269.805C2284,-260.91 2284,-250.78 2284,-243.751"/>
<polygon fill="midnightblue" stroke="midnightblue" points="2280.5,-270.083 2284,-280.083 2287.5,-270.083 2280.5,-270.083"/>
</g>
<!-- Node47 -->
<g id="node47" class="node"><title>Node47</title>
<g id="a_node47"><a xlink:href="_ogre_g_l_x_g_l_support_8h.html" target="_top" xlink:title="OgreGLXGLSupport.h">
<polygon fill="none" stroke="red" points="2352,-224.5 2352,-243.5 2464,-243.5 2464,-224.5 2352,-224.5"/>
<text text-anchor="middle" x="2408" y="-231.5" font-family="Helvetica,sans-Serif" font-size="10.00">OgreGLXGLSupport.h</text>
</a>
</g>
</g>
<!-- Node45&#45;&gt;Node47 -->
<g id="edge67" class="edge"><title>Node45&#45;&gt;Node47</title>
<path fill="none" stroke="midnightblue" d="M2313.01,-276.368C2336.23,-266.255 2368.16,-252.349 2388.44,-243.516"/>
<polygon fill="midnightblue" stroke="midnightblue" points="2311.42,-273.242 2303.65,-280.444 2314.21,-279.66 2311.42,-273.242"/>
</g>
<!-- Node48 -->
<g id="node48" class="node"><title>Node48</title>
<g id="a_node48"><a xlink:href="_ogre_g_l_util_8h.html" target="_top" xlink:title="OgreGLUtil.h">
<polygon fill="none" stroke="black" points="2482,-224.5 2482,-243.5 2556,-243.5 2556,-224.5 2482,-224.5"/>
<text text-anchor="middle" x="2519" y="-231.5" font-family="Helvetica,sans-Serif" font-size="10.00">OgreGLUtil.h</text>
</a>
</g>
</g>
<!-- Node45&#45;&gt;Node48 -->
<g id="edge68" class="edge"><title>Node45&#45;&gt;Node48</title>
<path fill="none" stroke="midnightblue" d="M2331.21,-278.153C2375.61,-267.95 2441.19,-252.881 2481.94,-243.516"/>
<polygon fill="midnightblue" stroke="midnightblue" points="2330.2,-274.793 2321.24,-280.444 2331.77,-281.615 2330.2,-274.793"/>
</g>
<!-- Node49 -->
<g id="node49" class="node"><title>Node49</title>
<g id="a_node49"><a xlink:href="_ogre_o_s_x_g_l_support_8h.html" target="_top" xlink:title="OgreOSXGLSupport.h">
<polygon fill="none" stroke="black" points="2574.5,-224.5 2574.5,-243.5 2687.5,-243.5 2687.5,-224.5 2574.5,-224.5"/>
<text text-anchor="middle" x="2631" y="-231.5" font-family="Helvetica,sans-Serif" font-size="10.00">OgreOSXGLSupport.h</text>
</a>
</g>
</g>
<!-- Node45&#45;&gt;Node49 -->
<g id="edge69" class="edge"><title>Node45&#45;&gt;Node49</title>
<path fill="none" stroke="midnightblue" d="M2349.2,-278.854C2414.76,-268.651 2514.71,-253.098 2576.27,-243.516"/>
<polygon fill="midnightblue" stroke="midnightblue" points="2348.33,-275.447 2338.98,-280.444 2349.4,-282.364 2348.33,-275.447"/>
</g>
<!-- Node50 -->
<g id="node50" class="node"><title>Node50</title>
<g id="a_node50"><a xlink:href="_ogre_win32_g_l_support_8h.html" target="_top" xlink:title="OgreWin32GLSupport.h">
<polygon fill="none" stroke="black" points="2706,-224.5 2706,-243.5 2826,-243.5 2826,-224.5 2706,-224.5"/>
<text text-anchor="middle" x="2766" y="-231.5" font-family="Helvetica,sans-Serif" font-size="10.00">OgreWin32GLSupport.h</text>
</a>
</g>
</g>
<!-- Node45&#45;&gt;Node50 -->
<g id="edge70" class="edge"><title>Node45&#45;&gt;Node50</title>
<path fill="none" stroke="midnightblue" d="M2354.74,-281.688C2436.85,-273.104 2576.31,-258.229 2696,-244 2699.16,-243.624 2702.41,-243.231 2705.68,-242.83"/>
<polygon fill="midnightblue" stroke="midnightblue" points="2354.36,-278.209 2344.77,-282.728 2355.08,-285.171 2354.36,-278.209"/>
</g>
</g>
</svg>
