<?xml version="1.0" encoding="UTF-8" standalone="no"?>
<!DOCTYPE svg PUBLIC "-//W3C//DTD SVG 1.1//EN"
 "http://www.w3.org/Graphics/SVG/1.1/DTD/svg11.dtd">
<!-- Generated by graphviz version 2.38.0 (20140413.2041)
 -->
<!-- Title: OgreGLESFBORenderTexture.h Pages: 1 -->
<svg width="1314pt" height="588pt"
 viewBox="0.00 0.00 1314.16 588.00" xmlns="http://www.w3.org/2000/svg" xmlns:xlink="http://www.w3.org/1999/xlink">
<g id="graph0" class="graph" transform="scale(1 1) rotate(0) translate(4 584)">
<title>OgreGLESFBORenderTexture.h</title>
<!-- Node1 -->
<g id="node1" class="node"><title>Node1</title>
<polygon fill="#bfbfbf" stroke="black" points="566.5,-560.5 566.5,-579.5 723.5,-579.5 723.5,-560.5 566.5,-560.5"/>
<text text-anchor="middle" x="645" y="-567.5" font-family="Helvetica,sans-Serif" font-size="10.00">OgreGLESFBORenderTexture.h</text>
</g>
<!-- Node2 -->
<g id="node2" class="node"><title>Node2</title>
<g id="a_node2"><a xlink:href="_ogre_g_l_e_s_render_texture_8h.html" target="_top" xlink:title="OgreGLESRenderTexture.h">
<polygon fill="none" stroke="black" points="593.5,-448.5 593.5,-467.5 730.5,-467.5 730.5,-448.5 593.5,-448.5"/>
<text text-anchor="middle" x="662" y="-455.5" font-family="Helvetica,sans-Serif" font-size="10.00">OgreGLESRenderTexture.h</text>
</a>
</g>
</g>
<!-- Node1&#45;&gt;Node2 -->
<g id="edge1" class="edge"><title>Node1&#45;&gt;Node2</title>
<path fill="none" stroke="midnightblue" d="M654.02,-560.34C662.072,-551.932 673.298,-538.363 678,-524 683.135,-508.313 677.648,-490.025 671.743,-476.85"/>
<polygon fill="midnightblue" stroke="midnightblue" points="674.697,-474.928 667.114,-467.528 668.427,-478.041 674.697,-474.928"/>
</g>
<!-- Node25 -->
<g id="node25" class="node"><title>Node25</title>
<g id="a_node25"><a xlink:href="_ogre_g_l_e_s_managed_resource_8h.html" target="_top" xlink:title="OgreGLESManagedResource.h">
<polygon fill="none" stroke="black" points="836,-336.5 836,-355.5 990,-355.5 990,-336.5 836,-336.5"/>
<text text-anchor="middle" x="913" y="-343.5" font-family="Helvetica,sans-Serif" font-size="10.00">OgreGLESManagedResource.h</text>
</a>
</g>
</g>
<!-- Node1&#45;&gt;Node25 -->
<g id="edge64" class="edge"><title>Node1&#45;&gt;Node25</title>
<path fill="none" stroke="midnightblue" d="M655.506,-560.297C696.117,-526.657 843.131,-404.877 894.85,-362.035"/>
<polygon fill="midnightblue" stroke="midnightblue" points="897.098,-364.717 902.567,-355.643 892.633,-359.326 897.098,-364.717"/>
</g>
<!-- Node27 -->
<g id="node27" class="node"><title>Node27</title>
<g id="a_node27"><a xlink:href="_ogre_g_l_e_s_context_8h.html" target="_top" xlink:title="OgreGLESContext.h">
<polygon fill="none" stroke="black" points="432.5,-448.5 432.5,-467.5 539.5,-467.5 539.5,-448.5 432.5,-448.5"/>
<text text-anchor="middle" x="486" y="-455.5" font-family="Helvetica,sans-Serif" font-size="10.00">OgreGLESContext.h</text>
</a>
</g>
</g>
<!-- Node1&#45;&gt;Node27 -->
<g id="edge59" class="edge"><title>Node1&#45;&gt;Node27</title>
<path fill="none" stroke="midnightblue" d="M575.495,-560.456C550.358,-554.122 523.612,-543.114 505,-524 493.092,-511.77 488.579,-492.506 486.904,-478.119"/>
<polygon fill="midnightblue" stroke="midnightblue" points="490.369,-477.543 486.082,-467.855 483.392,-478.102 490.369,-477.543"/>
</g>
<!-- Node28 -->
<g id="node28" class="node"><title>Node28</title>
<g id="a_node28"><a xlink:href="_ogre_g_l_e_s_frame_buffer_object_8h.html" target="_top" xlink:title="OgreGLESFrameBufferObject.h">
<polygon fill="none" stroke="black" points="514.5,-504.5 514.5,-523.5 669.5,-523.5 669.5,-504.5 514.5,-504.5"/>
<text text-anchor="middle" x="592" y="-511.5" font-family="Helvetica,sans-Serif" font-size="10.00">OgreGLESFrameBufferObject.h</text>
</a>
</g>
</g>
<!-- Node1&#45;&gt;Node28 -->
<g id="edge61" class="edge"><title>Node1&#45;&gt;Node28</title>
<path fill="none" stroke="midnightblue" d="M636.248,-560.083C628.53,-552.22 617.095,-540.569 607.783,-531.081"/>
<polygon fill="midnightblue" stroke="midnightblue" points="610.092,-528.436 600.589,-523.751 605.096,-533.34 610.092,-528.436"/>
</g>
<!-- Node3 -->
<g id="node3" class="node"><title>Node3</title>
<g id="a_node3"><a xlink:href="_ogre_g_l_e_s_texture_8h.html" target="_top" xlink:title="OgreGLESTexture.h">
<polygon fill="none" stroke="black" points="562.5,-392.5 562.5,-411.5 667.5,-411.5 667.5,-392.5 562.5,-392.5"/>
<text text-anchor="middle" x="615" y="-399.5" font-family="Helvetica,sans-Serif" font-size="10.00">OgreGLESTexture.h</text>
</a>
</g>
</g>
<!-- Node2&#45;&gt;Node3 -->
<g id="edge2" class="edge"><title>Node2&#45;&gt;Node3</title>
<path fill="none" stroke="midnightblue" d="M654.239,-448.083C647.463,-440.298 637.457,-428.801 629.245,-419.367"/>
<polygon fill="midnightblue" stroke="midnightblue" points="631.822,-416.996 622.617,-411.751 626.542,-421.592 631.822,-416.996"/>
</g>
<!-- Node8 -->
<g id="node8" class="node"><title>Node8</title>
<g id="a_node8"><a xlink:href="_ogre_singleton_8h.html" target="_top" xlink:title="OgreSingleton.h">
<polygon fill="none" stroke="black" points="1207,-112.5 1207,-131.5 1293,-131.5 1293,-112.5 1207,-112.5"/>
<text text-anchor="middle" x="1250" y="-119.5" font-family="Helvetica,sans-Serif" font-size="10.00">OgreSingleton.h</text>
</a>
</g>
</g>
<!-- Node2&#45;&gt;Node8 -->
<g id="edge58" class="edge"><title>Node2&#45;&gt;Node8</title>
<path fill="none" stroke="midnightblue" d="M730.712,-450.906C882.693,-436.502 1234,-397.721 1234,-347 1234,-347 1234,-347 1234,-233 1234,-200.626 1240.87,-163.445 1245.61,-141.659"/>
<polygon fill="midnightblue" stroke="midnightblue" points="1249.05,-142.303 1247.84,-131.777 1242.22,-140.759 1249.05,-142.303"/>
</g>
<!-- Node4 -->
<g id="node4" class="node"><title>Node4</title>
<g id="a_node4"><a xlink:href="_ogre_g_l_e_s_prerequisites_8h.html" target="_top" xlink:title="OgreGLESPrerequisites.h">
<polygon fill="none" stroke="black" points="397.5,-224.5 397.5,-243.5 526.5,-243.5 526.5,-224.5 397.5,-224.5"/>
<text text-anchor="middle" x="462" y="-231.5" font-family="Helvetica,sans-Serif" font-size="10.00">OgreGLESPrerequisites.h</text>
</a>
</g>
</g>
<!-- Node3&#45;&gt;Node4 -->
<g id="edge3" class="edge"><title>Node3&#45;&gt;Node4</title>
<path fill="none" stroke="midnightblue" d="M602.925,-392.287C580.845,-375.951 533.269,-338.851 501,-300 488.805,-285.318 477.911,-266.409 470.757,-252.775"/>
<polygon fill="midnightblue" stroke="midnightblue" points="473.71,-250.861 466.056,-243.535 467.471,-254.035 473.71,-250.861"/>
</g>
<!-- Node6 -->
<g id="node6" class="node"><title>Node6</title>
<g id="a_node6"><a xlink:href="_ogre_platform_8h.html" target="_top" xlink:title="OgrePlatform.h">
<polygon fill="none" stroke="red" points="348.5,-0.5 348.5,-19.5 431.5,-19.5 431.5,-0.5 348.5,-0.5"/>
<text text-anchor="middle" x="390" y="-7.5" font-family="Helvetica,sans-Serif" font-size="10.00">OgrePlatform.h</text>
</a>
</g>
</g>
<!-- Node3&#45;&gt;Node6 -->
<g id="edge28" class="edge"><title>Node3&#45;&gt;Node6</title>
<path fill="none" stroke="midnightblue" d="M562.3,-397.116C413.349,-385.44 0,-347.91 0,-291 0,-291 0,-291 0,-121 0,-51.5555 231.949,-23.7999 338.091,-14.7342"/>
<polygon fill="midnightblue" stroke="midnightblue" points="338.587,-18.2052 348.263,-13.8899 338.008,-11.2292 338.587,-18.2052"/>
</g>
<!-- Node14 -->
<g id="node14" class="node"><title>Node14</title>
<g id="a_node14"><a xlink:href="_ogre_g_l_e_s_support_8h.html" target="_top" xlink:title="OgreGLESSupport.h">
<polygon fill="none" stroke="black" points="510,-280.5 510,-299.5 616,-299.5 616,-280.5 510,-280.5"/>
<text text-anchor="middle" x="563" y="-287.5" font-family="Helvetica,sans-Serif" font-size="10.00">OgreGLESSupport.h</text>
</a>
</g>
</g>
<!-- Node3&#45;&gt;Node14 -->
<g id="edge18" class="edge"><title>Node3&#45;&gt;Node14</title>
<path fill="none" stroke="midnightblue" d="M610.92,-392.368C602.452,-374.456 582.818,-332.923 571.485,-308.948"/>
<polygon fill="midnightblue" stroke="midnightblue" points="574.5,-307.136 567.061,-299.591 568.171,-310.128 574.5,-307.136"/>
</g>
<!-- Node18 -->
<g id="node18" class="node"><title>Node18</title>
<g id="a_node18"><a xlink:href="_ogre_render_texture_8h.html" target="_top" xlink:title="OgreRenderTexture.h">
<polygon fill="none" stroke="black" points="106,-168.5 106,-187.5 216,-187.5 216,-168.5 106,-168.5"/>
<text text-anchor="middle" x="161" y="-175.5" font-family="Helvetica,sans-Serif" font-size="10.00">OgreRenderTexture.h</text>
</a>
</g>
</g>
<!-- Node3&#45;&gt;Node18 -->
<g id="edge29" class="edge"><title>Node3&#45;&gt;Node18</title>
<path fill="none" stroke="midnightblue" d="M597.481,-392.433C528.04,-358.478 271.841,-233.2 187.856,-192.132"/>
<polygon fill="midnightblue" stroke="midnightblue" points="189.233,-188.909 178.712,-187.661 186.158,-195.198 189.233,-188.909"/>
</g>
<!-- Node19 -->
<g id="node19" class="node"><title>Node19</title>
<g id="a_node19"><a xlink:href="_ogre_texture_8h.html" target="_top" xlink:title="OgreTexture.h">
<polygon fill="none" stroke="black" points="667.5,-168.5 667.5,-187.5 746.5,-187.5 746.5,-168.5 667.5,-168.5"/>
<text text-anchor="middle" x="707" y="-175.5" font-family="Helvetica,sans-Serif" font-size="10.00">OgreTexture.h</text>
</a>
</g>
</g>
<!-- Node3&#45;&gt;Node19 -->
<g id="edge34" class="edge"><title>Node3&#45;&gt;Node19</title>
<path fill="none" stroke="midnightblue" d="M618.607,-392.297C632.201,-359.494 680.526,-242.884 699.384,-197.377"/>
<polygon fill="midnightblue" stroke="midnightblue" points="702.723,-198.462 703.318,-187.884 696.257,-195.782 702.723,-198.462"/>
</g>
<!-- Node24 -->
<g id="node24" class="node"><title>Node24</title>
<g id="a_node24"><a xlink:href="_ogre_hardware_pixel_buffer_8h.html" target="_top" xlink:title="OgreHardwarePixelBuffer.h">
<polygon fill="none" stroke="black" points="765,-168.5 765,-187.5 901,-187.5 901,-168.5 765,-168.5"/>
<text text-anchor="middle" x="833" y="-175.5" font-family="Helvetica,sans-Serif" font-size="10.00">OgreHardwarePixelBuffer.h</text>
</a>
</g>
</g>
<!-- Node3&#45;&gt;Node24 -->
<g id="edge48" class="edge"><title>Node3&#45;&gt;Node24</title>
<path fill="none" stroke="midnightblue" d="M652.196,-392.497C697.244,-380.157 771.93,-352.759 811,-300 833.479,-269.645 835.396,-223.461 834.435,-197.821"/>
<polygon fill="midnightblue" stroke="midnightblue" points="837.917,-197.401 833.854,-187.616 830.928,-197.799 837.917,-197.401"/>
</g>
<!-- Node3&#45;&gt;Node25 -->
<g id="edge55" class="edge"><title>Node3&#45;&gt;Node25</title>
<path fill="none" stroke="midnightblue" d="M662.219,-392.444C714.749,-382.925 799.61,-367.547 855.848,-357.356"/>
<polygon fill="midnightblue" stroke="midnightblue" points="856.786,-360.743 866.002,-355.516 855.538,-353.856 856.786,-360.743"/>
</g>
<!-- Node5 -->
<g id="node5" class="node"><title>Node5</title>
<g id="a_node5"><a xlink:href="_ogre_prerequisites_8h.html" target="_top" xlink:title="OgrePrerequisites.h">
<polygon fill="none" stroke="red" points="729.5,-56.5 729.5,-75.5 832.5,-75.5 832.5,-56.5 729.5,-56.5"/>
<text text-anchor="middle" x="781" y="-63.5" font-family="Helvetica,sans-Serif" font-size="10.00">OgrePrerequisites.h</text>
</a>
</g>
</g>
<!-- Node4&#45;&gt;Node5 -->
<g id="edge4" class="edge"><title>Node4&#45;&gt;Node5</title>
<path fill="none" stroke="midnightblue" d="M526.55,-224.919C529.743,-224.591 532.907,-224.283 536,-224 601.074,-218.053 1078.23,-235.599 1123,-188 1207.49,-98.1748 962.687,-74.9709 842.87,-69.0249"/>
<polygon fill="midnightblue" stroke="midnightblue" points="842.876,-65.5215 832.723,-68.5478 842.548,-72.5137 842.876,-65.5215"/>
</g>
<!-- Node7 -->
<g id="node7" class="node"><title>Node7</title>
<g id="a_node7"><a xlink:href="_ogre_log_manager_8h.html" target="_top" xlink:title="OgreLogManager.h">
<polygon fill="none" stroke="red" points="1015.5,-168.5 1015.5,-187.5 1114.5,-187.5 1114.5,-168.5 1015.5,-168.5"/>
<text text-anchor="middle" x="1065" y="-175.5" font-family="Helvetica,sans-Serif" font-size="10.00">OgreLogManager.h</text>
</a>
</g>
</g>
<!-- Node4&#45;&gt;Node7 -->
<g id="edge6" class="edge"><title>Node4&#45;&gt;Node7</title>
<path fill="none" stroke="midnightblue" d="M526.558,-225.009C529.75,-224.658 532.91,-224.319 536,-224 706.017,-206.436 907.294,-190.706 1005.34,-183.369"/>
<polygon fill="midnightblue" stroke="midnightblue" points="1005.64,-186.856 1015.35,-182.621 1005.12,-179.875 1005.64,-186.856"/>
</g>
<!-- Node11 -->
<g id="node11" class="node"><title>Node11</title>
<g id="a_node11"><a xlink:href="_ogre_math_8h.html" target="_top" xlink:title="OgreMath.h">
<polygon fill="none" stroke="black" points="342,-112.5 342,-131.5 410,-131.5 410,-112.5 342,-112.5"/>
<text text-anchor="middle" x="376" y="-119.5" font-family="Helvetica,sans-Serif" font-size="10.00">OgreMath.h</text>
</a>
</g>
</g>
<!-- Node4&#45;&gt;Node11 -->
<g id="edge12" class="edge"><title>Node4&#45;&gt;Node11</title>
<path fill="none" stroke="midnightblue" d="M442.213,-224.358C427.176,-216.823 407.083,-204.508 395,-188 385.126,-174.511 380.359,-155.954 378.072,-142.12"/>
<polygon fill="midnightblue" stroke="midnightblue" points="381.488,-141.265 376.677,-131.826 374.552,-142.205 381.488,-141.265"/>
</g>
<!-- Node12 -->
<g id="node12" class="node"><title>Node12</title>
<polygon fill="none" stroke="#bfbfbf" points="404.5,-168.5 404.5,-187.5 511.5,-187.5 511.5,-168.5 404.5,-168.5"/>
<text text-anchor="middle" x="458" y="-175.5" font-family="Helvetica,sans-Serif" font-size="10.00">OpenGLES/ES1/gl.h</text>
</g>
<!-- Node4&#45;&gt;Node12 -->
<g id="edge16" class="edge"><title>Node4&#45;&gt;Node12</title>
<path fill="none" stroke="midnightblue" d="M461.339,-224.083C460.815,-217.006 460.064,-206.861 459.406,-197.986"/>
<polygon fill="midnightblue" stroke="midnightblue" points="462.877,-197.465 458.648,-187.751 455.897,-197.982 462.877,-197.465"/>
</g>
<!-- Node13 -->
<g id="node13" class="node"><title>Node13</title>
<polygon fill="none" stroke="#bfbfbf" points="530,-168.5 530,-187.5 650,-187.5 650,-168.5 530,-168.5"/>
<text text-anchor="middle" x="590" y="-175.5" font-family="Helvetica,sans-Serif" font-size="10.00">OpenGLES/ES1/glext.h</text>
</g>
<!-- Node4&#45;&gt;Node13 -->
<g id="edge17" class="edge"><title>Node4&#45;&gt;Node13</title>
<path fill="none" stroke="midnightblue" d="M482.282,-224.444C503.347,-215.557 536.517,-201.563 560.486,-191.451"/>
<polygon fill="midnightblue" stroke="midnightblue" points="561.96,-194.628 569.813,-187.516 559.239,-188.179 561.96,-194.628"/>
</g>
<!-- Node5&#45;&gt;Node6 -->
<g id="edge5" class="edge"><title>Node5&#45;&gt;Node6</title>
<path fill="none" stroke="midnightblue" d="M729.482,-57.8849C654.716,-47.5592 516.908,-28.5269 441.918,-18.1703"/>
<polygon fill="midnightblue" stroke="midnightblue" points="442.152,-14.6694 431.767,-16.7683 441.194,-21.6036 442.152,-14.6694"/>
</g>
<!-- Node7&#45;&gt;Node5 -->
<g id="edge7" class="edge"><title>Node7&#45;&gt;Node5</title>
<path fill="none" stroke="midnightblue" d="M1068.04,-168.191C1072.17,-154.405 1077.6,-127.691 1064,-112 1035.91,-79.5991 917.319,-70.4297 842.852,-67.8964"/>
<polygon fill="midnightblue" stroke="midnightblue" points="842.755,-64.3918 832.652,-67.5812 842.539,-71.3884 842.755,-64.3918"/>
</g>
<!-- Node7&#45;&gt;Node8 -->
<g id="edge8" class="edge"><title>Node7&#45;&gt;Node8</title>
<path fill="none" stroke="midnightblue" d="M1094.31,-168.444C1125.84,-159.241 1176.13,-144.562 1210.99,-134.388"/>
<polygon fill="midnightblue" stroke="midnightblue" points="1212.2,-137.678 1220.82,-131.516 1210.24,-130.959 1212.2,-137.678"/>
</g>
<!-- Node9 -->
<g id="node9" class="node"><title>Node9</title>
<g id="a_node9"><a xlink:href="_ogre_header_prefix_8h.html" target="_top" xlink:title="OgreHeaderPrefix.h">
<polygon fill="none" stroke="black" points="181.5,-56.5 181.5,-75.5 284.5,-75.5 284.5,-56.5 181.5,-56.5"/>
<text text-anchor="middle" x="233" y="-63.5" font-family="Helvetica,sans-Serif" font-size="10.00">OgreHeaderPrefix.h</text>
</a>
</g>
</g>
<!-- Node7&#45;&gt;Node9 -->
<g id="edge10" class="edge"><title>Node7&#45;&gt;Node9</title>
<path fill="none" stroke="midnightblue" d="M1015.31,-174.113C851.909,-164.599 341.123,-134.682 333,-132 316.101,-126.421 276.811,-99.0291 252.818,-81.6322"/>
<polygon fill="midnightblue" stroke="midnightblue" points="254.881,-78.8044 244.74,-75.7339 250.753,-84.4577 254.881,-78.8044"/>
</g>
<!-- Node10 -->
<g id="node10" class="node"><title>Node10</title>
<g id="a_node10"><a xlink:href="_ogre_header_suffix_8h.html" target="_top" xlink:title="OgreHeaderSuffix.h">
<polygon fill="none" stroke="black" points="386.5,-56.5 386.5,-75.5 489.5,-75.5 489.5,-56.5 386.5,-56.5"/>
<text text-anchor="middle" x="438" y="-63.5" font-family="Helvetica,sans-Serif" font-size="10.00">OgreHeaderSuffix.h</text>
</a>
</g>
</g>
<!-- Node7&#45;&gt;Node10 -->
<g id="edge11" class="edge"><title>Node7&#45;&gt;Node10</title>
<path fill="none" stroke="midnightblue" d="M1065.18,-168.149C1064.95,-153.801 1062.17,-125.691 1045,-112 1023.9,-95.1752 649.872,-76.544 499.676,-69.7056"/>
<polygon fill="midnightblue" stroke="midnightblue" points="499.833,-66.2092 489.685,-69.253 499.516,-73.202 499.833,-66.2092"/>
</g>
<!-- Node8&#45;&gt;Node5 -->
<g id="edge9" class="edge"><title>Node8&#45;&gt;Node5</title>
<path fill="none" stroke="midnightblue" d="M1206.77,-113.952C1202.13,-113.261 1197.47,-112.596 1193,-112 1069.03,-95.4528 923.474,-80.6307 842.792,-72.8194"/>
<polygon fill="midnightblue" stroke="midnightblue" points="843.093,-69.3322 832.803,-71.856 842.421,-76.2999 843.093,-69.3322"/>
</g>
<!-- Node11&#45;&gt;Node5 -->
<g id="edge13" class="edge"><title>Node11&#45;&gt;Node5</title>
<path fill="none" stroke="midnightblue" d="M410.181,-116.443C478.513,-107.332 632.816,-86.7578 719.294,-75.2275"/>
<polygon fill="midnightblue" stroke="midnightblue" points="719.788,-78.6927 729.238,-73.9017 718.863,-71.7541 719.788,-78.6927"/>
</g>
<!-- Node11&#45;&gt;Node9 -->
<g id="edge14" class="edge"><title>Node11&#45;&gt;Node9</title>
<path fill="none" stroke="midnightblue" d="M353.341,-112.444C329.598,-103.478 292.091,-89.314 265.262,-79.1827"/>
<polygon fill="midnightblue" stroke="midnightblue" points="266.144,-75.7749 255.553,-75.5164 263.671,-82.3235 266.144,-75.7749"/>
</g>
<!-- Node11&#45;&gt;Node10 -->
<g id="edge15" class="edge"><title>Node11&#45;&gt;Node10</title>
<path fill="none" stroke="midnightblue" d="M385.961,-112.324C395.127,-104.341 408.937,-92.3128 420.028,-82.6529"/>
<polygon fill="midnightblue" stroke="midnightblue" points="422.615,-85.041 427.857,-75.8339 418.018,-79.7624 422.615,-85.041"/>
</g>
<!-- Node14&#45;&gt;Node4 -->
<g id="edge19" class="edge"><title>Node14&#45;&gt;Node4</title>
<path fill="none" stroke="midnightblue" d="M546.773,-280.324C530.649,-271.703 505.7,-258.364 487.036,-248.386"/>
<polygon fill="midnightblue" stroke="midnightblue" points="488.656,-245.283 478.187,-243.655 485.356,-251.456 488.656,-245.283"/>
</g>
<!-- Node15 -->
<g id="node15" class="node"><title>Node15</title>
<g id="a_node15"><a xlink:href="_ogre_render_window_8h.html" target="_top" xlink:title="OgreRenderWindow.h">
<polygon fill="none" stroke="black" points="234.5,-168.5 234.5,-187.5 347.5,-187.5 347.5,-168.5 234.5,-168.5"/>
<text text-anchor="middle" x="291" y="-175.5" font-family="Helvetica,sans-Serif" font-size="10.00">OgreRenderWindow.h</text>
</a>
</g>
</g>
<!-- Node14&#45;&gt;Node15 -->
<g id="edge20" class="edge"><title>Node14&#45;&gt;Node15</title>
<path fill="none" stroke="midnightblue" d="M511.303,-280.485C475.623,-273.472 427.653,-261.757 388,-244 358.452,-230.768 328.02,-208.748 309.306,-194.055"/>
<polygon fill="midnightblue" stroke="midnightblue" points="311.342,-191.202 301.347,-187.689 306.97,-196.668 311.342,-191.202"/>
</g>
<!-- Node17 -->
<g id="node17" class="node"><title>Node17</title>
<g id="a_node17"><a xlink:href="_ogre_config_option_map_8h.html" target="_top" xlink:title="OgreConfigOptionMap.h">
<polygon fill="none" stroke="red" points="545,-224.5 545,-243.5 667,-243.5 667,-224.5 545,-224.5"/>
<text text-anchor="middle" x="606" y="-231.5" font-family="Helvetica,sans-Serif" font-size="10.00">OgreConfigOptionMap.h</text>
</a>
</g>
</g>
<!-- Node14&#45;&gt;Node17 -->
<g id="edge26" class="edge"><title>Node14&#45;&gt;Node17</title>
<path fill="none" stroke="midnightblue" d="M570.101,-280.083C576.237,-272.377 585.27,-261.033 592.739,-251.653"/>
<polygon fill="midnightblue" stroke="midnightblue" points="595.54,-253.754 599.032,-243.751 590.064,-249.394 595.54,-253.754"/>
</g>
<!-- Node15&#45;&gt;Node5 -->
<g id="edge21" class="edge"><title>Node15&#45;&gt;Node5</title>
<path fill="none" stroke="midnightblue" d="M347.562,-171.558C430.629,-163.23 581.448,-146.736 634,-132 679.141,-119.342 728.345,-95.3027 756.837,-80.2725"/>
<polygon fill="midnightblue" stroke="midnightblue" points="758.501,-83.3517 765.669,-75.5502 755.2,-77.1786 758.501,-83.3517"/>
</g>
<!-- Node16 -->
<g id="node16" class="node"><title>Node16</title>
<g id="a_node16"><a xlink:href="_ogre_render_target_8h.html" target="_top" xlink:title="OgreRenderTarget.h">
<polygon fill="none" stroke="red" points="180.5,-112.5 180.5,-131.5 285.5,-131.5 285.5,-112.5 180.5,-112.5"/>
<text text-anchor="middle" x="233" y="-119.5" font-family="Helvetica,sans-Serif" font-size="10.00">OgreRenderTarget.h</text>
</a>
</g>
</g>
<!-- Node15&#45;&gt;Node16 -->
<g id="edge22" class="edge"><title>Node15&#45;&gt;Node16</title>
<path fill="none" stroke="midnightblue" d="M281.681,-168.324C273.107,-160.341 260.188,-148.313 249.812,-138.653"/>
<polygon fill="midnightblue" stroke="midnightblue" points="252.192,-136.086 242.488,-131.834 247.422,-141.21 252.192,-136.086"/>
</g>
<!-- Node16&#45;&gt;Node5 -->
<g id="edge23" class="edge"><title>Node16&#45;&gt;Node5</title>
<path fill="none" stroke="midnightblue" d="M285.545,-115.822C387.276,-105.798 610.658,-83.7855 719.27,-73.0829"/>
<polygon fill="midnightblue" stroke="midnightblue" points="719.806,-76.5471 729.415,-72.0832 719.12,-69.5808 719.806,-76.5471"/>
</g>
<!-- Node16&#45;&gt;Node9 -->
<g id="edge24" class="edge"><title>Node16&#45;&gt;Node9</title>
<path fill="none" stroke="midnightblue" d="M233,-112.083C233,-105.006 233,-94.8611 233,-85.9865"/>
<polygon fill="midnightblue" stroke="midnightblue" points="236.5,-85.751 233,-75.7511 229.5,-85.7511 236.5,-85.751"/>
</g>
<!-- Node16&#45;&gt;Node10 -->
<g id="edge25" class="edge"><title>Node16&#45;&gt;Node10</title>
<path fill="none" stroke="midnightblue" d="M265.483,-112.444C300.72,-103.162 357.104,-88.3093 395.759,-78.127"/>
<polygon fill="midnightblue" stroke="midnightblue" points="396.891,-81.4483 405.669,-75.5164 395.107,-74.6792 396.891,-81.4483"/>
</g>
<!-- Node17&#45;&gt;Node5 -->
<g id="edge27" class="edge"><title>Node17&#45;&gt;Node5</title>
<path fill="none" stroke="midnightblue" d="M667.254,-231.372C796.98,-227.424 1095.51,-215.566 1193,-188 1245.41,-173.181 1273.62,-178.486 1302,-132 1306.63,-124.413 1308.01,-118.55 1302,-112 1271.53,-78.7796 974.716,-70.0198 843.195,-67.7619"/>
<polygon fill="midnightblue" stroke="midnightblue" points="842.938,-64.2573 832.882,-67.5924 842.823,-71.2564 842.938,-64.2573"/>
</g>
<!-- Node18&#45;&gt;Node5 -->
<g id="edge30" class="edge"><title>Node18&#45;&gt;Node5</title>
<path fill="none" stroke="midnightblue" d="M216.142,-169.126C219.137,-168.736 222.105,-168.358 225,-168 374.932,-149.479 414.878,-161.708 563,-132 580.854,-128.419 686.125,-96.2627 743.594,-78.5618"/>
<polygon fill="midnightblue" stroke="midnightblue" points="744.874,-81.8297 753.399,-75.539 742.812,-75.1404 744.874,-81.8297"/>
</g>
<!-- Node18&#45;&gt;Node9 -->
<g id="edge32" class="edge"><title>Node18&#45;&gt;Node9</title>
<path fill="none" stroke="midnightblue" d="M124.841,-168.478C88.6873,-158.221 41.2244,-138.95 62,-112 75.5191,-94.4629 128.105,-82.4008 171.433,-75.2121"/>
<polygon fill="midnightblue" stroke="midnightblue" points="172.047,-78.6586 181.367,-73.6207 170.939,-71.7467 172.047,-78.6586"/>
</g>
<!-- Node18&#45;&gt;Node10 -->
<g id="edge33" class="edge"><title>Node18&#45;&gt;Node10</title>
<path fill="none" stroke="midnightblue" d="M159.49,-168.47C157.568,-154.584 156.091,-127.124 171,-112 198.915,-83.6821 306.542,-73.1394 376.333,-69.2455"/>
<polygon fill="midnightblue" stroke="midnightblue" points="376.54,-72.7396 386.342,-68.7179 376.171,-65.7493 376.54,-72.7396"/>
</g>
<!-- Node18&#45;&gt;Node16 -->
<g id="edge31" class="edge"><title>Node18&#45;&gt;Node16</title>
<path fill="none" stroke="midnightblue" d="M172.568,-168.324C183.42,-160.185 199.881,-147.839 212.883,-138.087"/>
<polygon fill="midnightblue" stroke="midnightblue" points="215.321,-140.634 221.221,-131.834 211.121,-135.034 215.321,-140.634"/>
</g>
<!-- Node19&#45;&gt;Node5 -->
<g id="edge35" class="edge"><title>Node19&#45;&gt;Node5</title>
<path fill="none" stroke="midnightblue" d="M705.919,-168.275C704.73,-155.068 704.23,-129.669 715,-112 723.445,-98.1452 737.957,-87.5551 751.226,-80.1395"/>
<polygon fill="midnightblue" stroke="midnightblue" points="752.867,-83.2311 760.124,-75.5116 749.637,-77.0208 752.867,-83.2311"/>
</g>
<!-- Node19&#45;&gt;Node9 -->
<g id="edge44" class="edge"><title>Node19&#45;&gt;Node9</title>
<path fill="none" stroke="midnightblue" d="M667.246,-169.163C664.461,-168.732 661.692,-168.338 659,-168 597.245,-160.251 142.572,-177.402 100,-132 73.3308,-103.558 124.979,-85.9988 171.487,-76.4124"/>
<polygon fill="midnightblue" stroke="midnightblue" points="172.164,-79.8464 181.303,-74.4868 170.816,-72.9773 172.164,-79.8464"/>
</g>
<!-- Node19&#45;&gt;Node10 -->
<g id="edge47" class="edge"><title>Node19&#45;&gt;Node10</title>
<path fill="none" stroke="midnightblue" d="M667.453,-169.556C664.593,-169.026 661.752,-168.503 659,-168 569.295,-151.597 524.87,-192.908 457,-132 444.031,-120.361 439.71,-100.41 438.371,-85.6743"/>
<polygon fill="midnightblue" stroke="midnightblue" points="441.864,-85.4445 437.834,-75.6459 434.874,-85.8187 441.864,-85.4445"/>
</g>
<!-- Node20 -->
<g id="node20" class="node"><title>Node20</title>
<g id="a_node20"><a xlink:href="_ogre_hardware_buffer_8h.html" target="_top" xlink:title="OgreHardwareBuffer.h">
<polygon fill="none" stroke="red" points="724,-112.5 724,-131.5 838,-131.5 838,-112.5 724,-112.5"/>
<text text-anchor="middle" x="781" y="-119.5" font-family="Helvetica,sans-Serif" font-size="10.00">OgreHardwareBuffer.h</text>
</a>
</g>
</g>
<!-- Node19&#45;&gt;Node20 -->
<g id="edge36" class="edge"><title>Node19&#45;&gt;Node20</title>
<path fill="none" stroke="midnightblue" d="M718.889,-168.324C730.15,-160.107 747.287,-147.602 760.709,-137.807"/>
<polygon fill="midnightblue" stroke="midnightblue" points="762.88,-140.556 768.894,-131.834 758.753,-134.901 762.88,-140.556"/>
</g>
<!-- Node21 -->
<g id="node21" class="node"><title>Node21</title>
<g id="a_node21"><a xlink:href="_ogre_resource_8h.html" target="_top" xlink:title="OgreResource.h">
<polygon fill="none" stroke="red" points="466,-112.5 466,-131.5 554,-131.5 554,-112.5 466,-112.5"/>
<text text-anchor="middle" x="510" y="-119.5" font-family="Helvetica,sans-Serif" font-size="10.00">OgreResource.h</text>
</a>
</g>
</g>
<!-- Node19&#45;&gt;Node21 -->
<g id="edge38" class="edge"><title>Node19&#45;&gt;Node21</title>
<path fill="none" stroke="midnightblue" d="M675.785,-168.444C642.067,-159.201 588.2,-144.436 551.068,-134.257"/>
<polygon fill="midnightblue" stroke="midnightblue" points="551.639,-130.785 541.069,-131.516 549.788,-137.536 551.639,-130.785"/>
</g>
<!-- Node22 -->
<g id="node22" class="node"><title>Node22</title>
<g id="a_node22"><a xlink:href="_ogre_image_8h.html" target="_top" xlink:title="OgreImage.h">
<polygon fill="none" stroke="red" points="856.5,-112.5 856.5,-131.5 929.5,-131.5 929.5,-112.5 856.5,-112.5"/>
<text text-anchor="middle" x="893" y="-119.5" font-family="Helvetica,sans-Serif" font-size="10.00">OgreImage.h</text>
</a>
</g>
</g>
<!-- Node19&#45;&gt;Node22 -->
<g id="edge42" class="edge"><title>Node19&#45;&gt;Node22</title>
<path fill="none" stroke="midnightblue" d="M736.472,-168.444C768.171,-159.241 818.732,-144.562 853.775,-134.388"/>
<polygon fill="midnightblue" stroke="midnightblue" points="855.038,-137.666 863.666,-131.516 853.086,-130.943 855.038,-137.666"/>
</g>
<!-- Node23 -->
<g id="node23" class="node"><title>Node23</title>
<g id="a_node23"><a xlink:href="_ogre_shared_ptr_8h.html" target="_top" xlink:title="OgreSharedPtr.h">
<polygon fill="none" stroke="red" points="947.5,-112.5 947.5,-131.5 1036.5,-131.5 1036.5,-112.5 947.5,-112.5"/>
<text text-anchor="middle" x="992" y="-119.5" font-family="Helvetica,sans-Serif" font-size="10.00">OgreSharedPtr.h</text>
</a>
</g>
</g>
<!-- Node19&#45;&gt;Node23 -->
<g id="edge45" class="edge"><title>Node19&#45;&gt;Node23</title>
<path fill="none" stroke="midnightblue" d="M746.628,-169.492C796.16,-160.107 881.198,-143.994 937.011,-133.419"/>
<polygon fill="midnightblue" stroke="midnightblue" points="937.903,-136.812 947.077,-131.512 936.6,-129.935 937.903,-136.812"/>
</g>
<!-- Node20&#45;&gt;Node5 -->
<g id="edge37" class="edge"><title>Node20&#45;&gt;Node5</title>
<path fill="none" stroke="midnightblue" d="M781,-112.083C781,-105.006 781,-94.8611 781,-85.9865"/>
<polygon fill="midnightblue" stroke="midnightblue" points="784.5,-85.751 781,-75.7511 777.5,-85.7511 784.5,-85.751"/>
</g>
<!-- Node21&#45;&gt;Node5 -->
<g id="edge39" class="edge"><title>Node21&#45;&gt;Node5</title>
<path fill="none" stroke="midnightblue" d="M552.941,-112.444C600.513,-102.964 677.244,-87.6747 728.389,-77.4835"/>
<polygon fill="midnightblue" stroke="midnightblue" points="729.137,-80.9032 738.26,-75.5164 727.769,-74.0382 729.137,-80.9032"/>
</g>
<!-- Node21&#45;&gt;Node9 -->
<g id="edge40" class="edge"><title>Node21&#45;&gt;Node9</title>
<path fill="none" stroke="midnightblue" d="M466.109,-112.444C417.483,-102.964 339.054,-87.6747 286.776,-77.4835"/>
<polygon fill="midnightblue" stroke="midnightblue" points="287.171,-73.9946 276.686,-75.5164 285.832,-80.8653 287.171,-73.9946"/>
</g>
<!-- Node21&#45;&gt;Node10 -->
<g id="edge41" class="edge"><title>Node21&#45;&gt;Node10</title>
<path fill="none" stroke="midnightblue" d="M498.432,-112.324C487.58,-104.185 471.119,-91.8395 458.117,-82.0874"/>
<polygon fill="midnightblue" stroke="midnightblue" points="459.879,-79.0339 449.779,-75.8339 455.679,-84.6339 459.879,-79.0339"/>
</g>
<!-- Node22&#45;&gt;Node5 -->
<g id="edge43" class="edge"><title>Node22&#45;&gt;Node5</title>
<path fill="none" stroke="midnightblue" d="M875.005,-112.324C856.962,-103.625 828.953,-90.1202 808.197,-80.113"/>
<polygon fill="midnightblue" stroke="midnightblue" points="809.478,-76.8449 798.95,-75.6545 806.438,-83.1502 809.478,-76.8449"/>
</g>
<!-- Node23&#45;&gt;Node5 -->
<g id="edge46" class="edge"><title>Node23&#45;&gt;Node5</title>
<path fill="none" stroke="midnightblue" d="M958.566,-112.444C922.144,-103.122 863.77,-88.1828 823.971,-77.9972"/>
<polygon fill="midnightblue" stroke="midnightblue" points="824.833,-74.6051 814.277,-75.5164 823.097,-81.3866 824.833,-74.6051"/>
</g>
<!-- Node24&#45;&gt;Node5 -->
<g id="edge49" class="edge"><title>Node24&#45;&gt;Node5</title>
<path fill="none" stroke="midnightblue" d="M901.3,-176.91C978.285,-174.444 1087.52,-162.381 1045,-112 1019.63,-81.944 912.497,-71.9605 842.745,-68.6458"/>
<polygon fill="midnightblue" stroke="midnightblue" points="842.884,-65.1486 832.739,-68.2036 842.575,-72.1418 842.884,-65.1486"/>
</g>
<!-- Node24&#45;&gt;Node9 -->
<g id="edge53" class="edge"><title>Node24&#45;&gt;Node9</title>
<path fill="none" stroke="midnightblue" d="M764.957,-168.933C761.592,-168.602 758.259,-168.288 755,-168 690.241,-162.272 215.534,-179.364 171,-132 154.119,-114.046 181.702,-93.4901 205.289,-80.3856"/>
<polygon fill="midnightblue" stroke="midnightblue" points="207.157,-83.3568 214.357,-75.5844 203.882,-77.1704 207.157,-83.3568"/>
</g>
<!-- Node24&#45;&gt;Node10 -->
<g id="edge54" class="edge"><title>Node24&#45;&gt;Node10</title>
<path fill="none" stroke="midnightblue" d="M802.334,-168.46C731.816,-148.822 558.116,-100.45 478.749,-78.3477"/>
<polygon fill="midnightblue" stroke="midnightblue" points="479.219,-74.8456 468.647,-75.5345 477.341,-81.589 479.219,-74.8456"/>
</g>
<!-- Node24&#45;&gt;Node20 -->
<g id="edge50" class="edge"><title>Node24&#45;&gt;Node20</title>
<path fill="none" stroke="midnightblue" d="M824.413,-168.083C816.841,-160.22 805.622,-148.569 796.486,-139.081"/>
<polygon fill="midnightblue" stroke="midnightblue" points="798.885,-136.527 789.427,-131.751 793.842,-141.382 798.885,-136.527"/>
</g>
<!-- Node24&#45;&gt;Node22 -->
<g id="edge51" class="edge"><title>Node24&#45;&gt;Node22</title>
<path fill="none" stroke="midnightblue" d="M842.64,-168.324C851.51,-160.341 864.875,-148.313 875.608,-138.653"/>
<polygon fill="midnightblue" stroke="midnightblue" points="878.093,-141.125 883.185,-131.834 873.41,-135.922 878.093,-141.125"/>
</g>
<!-- Node24&#45;&gt;Node23 -->
<g id="edge52" class="edge"><title>Node24&#45;&gt;Node23</title>
<path fill="none" stroke="midnightblue" d="M858.194,-168.444C884.943,-159.359 927.403,-144.939 957.305,-134.783"/>
<polygon fill="midnightblue" stroke="midnightblue" points="958.581,-138.046 966.924,-131.516 956.329,-131.418 958.581,-138.046"/>
</g>
<!-- Node26 -->
<g id="node26" class="node"><title>Node26</title>
<g id="a_node26"><a xlink:href="_ogre_android_resource_8h.html" target="_top" xlink:title="OgreAndroidResource.h">
<polygon fill="none" stroke="black" points="681.5,-280.5 681.5,-299.5 802.5,-299.5 802.5,-280.5 681.5,-280.5"/>
<text text-anchor="middle" x="742" y="-287.5" font-family="Helvetica,sans-Serif" font-size="10.00">OgreAndroidResource.h</text>
</a>
</g>
</g>
<!-- Node25&#45;&gt;Node26 -->
<g id="edge56" class="edge"><title>Node25&#45;&gt;Node26</title>
<path fill="none" stroke="midnightblue" d="M885.905,-336.444C857.012,-327.32 811.075,-312.813 778.895,-302.651"/>
<polygon fill="midnightblue" stroke="midnightblue" points="779.559,-299.19 768.969,-299.516 777.451,-305.865 779.559,-299.19"/>
</g>
<!-- Node26&#45;&gt;Node4 -->
<g id="edge57" class="edge"><title>Node26&#45;&gt;Node4</title>
<path fill="none" stroke="midnightblue" d="M697.633,-280.444C648.378,-270.944 568.872,-255.611 516.029,-245.42"/>
<polygon fill="midnightblue" stroke="midnightblue" points="516.641,-241.974 506.159,-243.516 515.316,-248.847 516.641,-241.974"/>
</g>
<!-- Node27&#45;&gt;Node4 -->
<g id="edge60" class="edge"><title>Node27&#45;&gt;Node4</title>
<path fill="none" stroke="midnightblue" d="M485.059,-448.297C481.528,-415.633 469.013,-299.866 464.049,-253.957"/>
<polygon fill="midnightblue" stroke="midnightblue" points="467.515,-253.45 462.96,-243.884 460.556,-254.202 467.515,-253.45"/>
</g>
<!-- Node28&#45;&gt;Node2 -->
<g id="edge62" class="edge"><title>Node28&#45;&gt;Node2</title>
<path fill="none" stroke="midnightblue" d="M603.247,-504.324C613.797,-496.185 629.801,-483.839 642.442,-474.087"/>
<polygon fill="midnightblue" stroke="midnightblue" points="644.769,-476.713 650.549,-467.834 640.493,-471.171 644.769,-476.713"/>
</g>
<!-- Node28&#45;&gt;Node27 -->
<g id="edge63" class="edge"><title>Node28&#45;&gt;Node27</title>
<path fill="none" stroke="midnightblue" d="M574.969,-504.324C557.97,-495.664 531.624,-482.242 512.007,-472.249"/>
<polygon fill="midnightblue" stroke="midnightblue" points="513.488,-469.075 502.988,-467.655 510.31,-475.312 513.488,-469.075"/>
</g>
</g>
</svg>
