<?xml version="1.0" encoding="UTF-8" standalone="no"?>
<!DOCTYPE svg PUBLIC "-//W3C//DTD SVG 1.1//EN"
 "http://www.w3.org/Graphics/SVG/1.1/DTD/svg11.dtd">
<!-- Generated by graphviz version 2.38.0 (20140413.2041)
 -->
<!-- Title: OgreVector3.h Pages: 1 -->
<svg width="2854pt" height="364pt"
 viewBox="0.00 0.00 2854.34 364.00" xmlns="http://www.w3.org/2000/svg" xmlns:xlink="http://www.w3.org/1999/xlink">
<g id="graph0" class="graph" transform="scale(1 1) rotate(0) translate(4 360)">
<title>OgreVector3.h</title>
<!-- Node1 -->
<g id="node1" class="node"><title>Node1</title>
<polygon fill="#bfbfbf" stroke="black" points="2501,-336.5 2501,-355.5 2581,-355.5 2581,-336.5 2501,-336.5"/>
<text text-anchor="middle" x="2541" y="-343.5" font-family="Helvetica,sans-Serif" font-size="10.00">OgreVector3.h</text>
</g>
<!-- Node2 -->
<g id="node2" class="node"><title>Node2</title>
<g id="a_node2"><a xlink:href="_ogre_prerequisites_8h.html" target="_top" xlink:title="OgrePrerequisites.h">
<polygon fill="none" stroke="black" points="2451.5,-168.5 2451.5,-187.5 2554.5,-187.5 2554.5,-168.5 2451.5,-168.5"/>
<text text-anchor="middle" x="2503" y="-175.5" font-family="Helvetica,sans-Serif" font-size="10.00">OgrePrerequisites.h</text>
</a>
</g>
</g>
<!-- Node1&#45;&gt;Node2 -->
<g id="edge1" class="edge"><title>Node1&#45;&gt;Node2</title>
<path fill="none" stroke="midnightblue" d="M2523.5,-336.465C2510.21,-328.917 2492.92,-316.533 2485,-300 2468.78,-266.149 2483.54,-221.362 2494.23,-196.876"/>
<polygon fill="midnightblue" stroke="midnightblue" points="2497.44,-198.262 2498.46,-187.716 2491.09,-195.326 2497.44,-198.262"/>
</g>
<!-- Node43 -->
<g id="node43" class="node"><title>Node43</title>
<g id="a_node43"><a xlink:href="_ogre_quaternion_8h.html" target="_top" xlink:title="OgreQuaternion.h">
<polygon fill="none" stroke="black" points="2494.5,-280.5 2494.5,-299.5 2587.5,-299.5 2587.5,-280.5 2494.5,-280.5"/>
<text text-anchor="middle" x="2541" y="-287.5" font-family="Helvetica,sans-Serif" font-size="10.00">OgreQuaternion.h</text>
</a>
</g>
</g>
<!-- Node1&#45;&gt;Node43 -->
<g id="edge51" class="edge"><title>Node1&#45;&gt;Node43</title>
<path fill="none" stroke="midnightblue" d="M2541,-336.083C2541,-329.006 2541,-318.861 2541,-309.986"/>
<polygon fill="midnightblue" stroke="midnightblue" points="2544.5,-309.751 2541,-299.751 2537.5,-309.751 2544.5,-309.751"/>
</g>
<!-- Node45 -->
<g id="node45" class="node"><title>Node45</title>
<g id="a_node45"><a xlink:href="_ogre_vector2_8h.html" target="_top" xlink:title="OgreVector2.h">
<polygon fill="none" stroke="black" points="2606,-280.5 2606,-299.5 2686,-299.5 2686,-280.5 2606,-280.5"/>
<text text-anchor="middle" x="2646" y="-287.5" font-family="Helvetica,sans-Serif" font-size="10.00">OgreVector2.h</text>
</a>
</g>
</g>
<!-- Node1&#45;&gt;Node45 -->
<g id="edge57" class="edge"><title>Node1&#45;&gt;Node45</title>
<path fill="none" stroke="midnightblue" d="M2557.87,-336.324C2574.71,-327.664 2600.81,-314.242 2620.24,-304.249"/>
<polygon fill="midnightblue" stroke="midnightblue" points="2621.88,-307.341 2629.17,-299.655 2618.68,-301.116 2621.88,-307.341"/>
</g>
<!-- Node3 -->
<g id="node3" class="node"><title>Node3</title>
<g id="a_node3"><a xlink:href="_ogre_platform_8h.html" target="_top" xlink:title="OgrePlatform.h">
<polygon fill="none" stroke="black" points="220.5,-112.5 220.5,-131.5 303.5,-131.5 303.5,-112.5 220.5,-112.5"/>
<text text-anchor="middle" x="262" y="-119.5" font-family="Helvetica,sans-Serif" font-size="10.00">OgrePlatform.h</text>
</a>
</g>
</g>
<!-- Node2&#45;&gt;Node3 -->
<g id="edge2" class="edge"><title>Node2&#45;&gt;Node3</title>
<path fill="none" stroke="midnightblue" d="M2451.5,-176.036C2224.79,-171.746 1292.95,-153.655 528,-132 453.738,-129.898 367.833,-126.886 314.203,-124.937"/>
<polygon fill="midnightblue" stroke="midnightblue" points="314.041,-121.428 303.92,-124.561 313.786,-128.424 314.041,-121.428"/>
</g>
<!-- Node6 -->
<g id="node6" class="node"><title>Node6</title>
<polygon fill="none" stroke="#bfbfbf" points="107.5,-56.5 107.5,-75.5 148.5,-75.5 148.5,-56.5 107.5,-56.5"/>
<text text-anchor="middle" x="128" y="-63.5" font-family="Helvetica,sans-Serif" font-size="10.00">string</text>
</g>
<!-- Node2&#45;&gt;Node6 -->
<g id="edge5" class="edge"><title>Node2&#45;&gt;Node6</title>
<path fill="none" stroke="midnightblue" d="M2451.49,-176.213C2257.65,-173.097 1553.57,-160.381 974,-132 613.756,-114.359 516.525,-142.321 158.616,-75.9174"/>
<polygon fill="midnightblue" stroke="midnightblue" points="159.236,-72.4727 148.763,-74.0779 157.951,-79.3538 159.236,-72.4727"/>
</g>
<!-- Node7 -->
<g id="node7" class="node"><title>Node7</title>
<g id="a_node7"><a xlink:href="_ogre_std_headers_8h.html" target="_top" xlink:title="OgreStdHeaders.h">
<polygon fill="none" stroke="black" points="983,-112.5 983,-131.5 1081,-131.5 1081,-112.5 983,-112.5"/>
<text text-anchor="middle" x="1032" y="-119.5" font-family="Helvetica,sans-Serif" font-size="10.00">OgreStdHeaders.h</text>
</a>
</g>
</g>
<!-- Node2&#45;&gt;Node7 -->
<g id="edge6" class="edge"><title>Node2&#45;&gt;Node7</title>
<path fill="none" stroke="midnightblue" d="M2451.08,-175.094C2225.5,-166.813 1331.13,-133.981 1091.39,-125.18"/>
<polygon fill="midnightblue" stroke="midnightblue" points="1091.26,-121.673 1081.14,-124.804 1091,-128.668 1091.26,-121.673"/>
</g>
<!-- Node37 -->
<g id="node37" class="node"><title>Node37</title>
<g id="a_node37"><a xlink:href="_ogre_memory_allocator_config_8h.html" target="_top" xlink:title="This file configures Ogre&#39;s memory allocators. ">
<polygon fill="none" stroke="black" points="2487,-112.5 2487,-131.5 2635,-131.5 2635,-112.5 2487,-112.5"/>
<text text-anchor="middle" x="2561" y="-119.5" font-family="Helvetica,sans-Serif" font-size="10.00">OgreMemoryAllocatorConfig.h</text>
</a>
</g>
</g>
<!-- Node2&#45;&gt;Node37 -->
<g id="edge37" class="edge"><title>Node2&#45;&gt;Node37</title>
<path fill="none" stroke="midnightblue" d="M2512.32,-168.324C2520.89,-160.341 2533.81,-148.313 2544.19,-138.653"/>
<polygon fill="midnightblue" stroke="midnightblue" points="2546.58,-141.21 2551.51,-131.834 2541.81,-136.086 2546.58,-141.21"/>
</g>
<!-- Node4 -->
<g id="node4" class="node"><title>Node4</title>
<g id="a_node4"><a xlink:href="_ogre_config_8h.html" target="_top" xlink:title="OgreConfig.h">
<polygon fill="none" stroke="black" points="15,-56.5 15,-75.5 89,-75.5 89,-56.5 15,-56.5"/>
<text text-anchor="middle" x="52" y="-63.5" font-family="Helvetica,sans-Serif" font-size="10.00">OgreConfig.h</text>
</a>
</g>
</g>
<!-- Node3&#45;&gt;Node4 -->
<g id="edge3" class="edge"><title>Node3&#45;&gt;Node4</title>
<path fill="none" stroke="midnightblue" d="M228.725,-112.444C192.552,-103.142 134.623,-88.246 95.019,-78.062"/>
<polygon fill="midnightblue" stroke="midnightblue" points="95.676,-74.6172 85.1194,-75.5164 93.9327,-81.3966 95.676,-74.6172"/>
</g>
<!-- Node5 -->
<g id="node5" class="node"><title>Node5</title>
<polygon fill="none" stroke="#bfbfbf" points="0,-0.5 0,-19.5 104,-19.5 104,-0.5 0,-0.5"/>
<text text-anchor="middle" x="52" y="-7.5" font-family="Helvetica,sans-Serif" font-size="10.00">OgreBuildSettings.h</text>
</g>
<!-- Node4&#45;&gt;Node5 -->
<g id="edge4" class="edge"><title>Node4&#45;&gt;Node5</title>
<path fill="none" stroke="midnightblue" d="M52,-56.083C52,-49.0059 52,-38.8611 52,-29.9865"/>
<polygon fill="midnightblue" stroke="midnightblue" points="55.5001,-29.751 52,-19.7511 48.5001,-29.7511 55.5001,-29.751"/>
</g>
<!-- Node7&#45;&gt;Node6 -->
<g id="edge16" class="edge"><title>Node7&#45;&gt;Node6</title>
<path fill="none" stroke="midnightblue" d="M982.855,-120.084C825.836,-116.909 336.639,-105.036 158.758,-75.8416"/>
<polygon fill="midnightblue" stroke="midnightblue" points="159.204,-72.367 148.755,-74.1217 158.017,-79.2657 159.204,-72.367"/>
</g>
<!-- Node8 -->
<g id="node8" class="node"><title>Node8</title>
<polygon fill="none" stroke="#bfbfbf" points="166.5,-56.5 166.5,-75.5 215.5,-75.5 215.5,-56.5 166.5,-56.5"/>
<text text-anchor="middle" x="191" y="-63.5" font-family="Helvetica,sans-Serif" font-size="10.00">cassert</text>
</g>
<!-- Node7&#45;&gt;Node8 -->
<g id="edge7" class="edge"><title>Node7&#45;&gt;Node8</title>
<path fill="none" stroke="midnightblue" d="M982.97,-119.624C834.461,-115.245 390.168,-100.555 225.7,-75.9101"/>
<polygon fill="midnightblue" stroke="midnightblue" points="226.165,-72.4402 215.743,-74.349 225.08,-79.3557 226.165,-72.4402"/>
</g>
<!-- Node9 -->
<g id="node9" class="node"><title>Node9</title>
<polygon fill="none" stroke="#bfbfbf" points="233.5,-56.5 233.5,-75.5 276.5,-75.5 276.5,-56.5 233.5,-56.5"/>
<text text-anchor="middle" x="255" y="-63.5" font-family="Helvetica,sans-Serif" font-size="10.00">cstdio</text>
</g>
<!-- Node7&#45;&gt;Node9 -->
<g id="edge8" class="edge"><title>Node7&#45;&gt;Node9</title>
<path fill="none" stroke="midnightblue" d="M982.869,-119.524C842.148,-115.065 438.484,-100.615 286.86,-75.9003"/>
<polygon fill="midnightblue" stroke="midnightblue" points="287.261,-72.4181 276.814,-74.1804 286.08,-79.3177 287.261,-72.4181"/>
</g>
<!-- Node10 -->
<g id="node10" class="node"><title>Node10</title>
<polygon fill="none" stroke="#bfbfbf" points="294.5,-56.5 294.5,-75.5 339.5,-75.5 339.5,-56.5 294.5,-56.5"/>
<text text-anchor="middle" x="317" y="-63.5" font-family="Helvetica,sans-Serif" font-size="10.00">cstdlib</text>
</g>
<!-- Node7&#45;&gt;Node10 -->
<g id="edge9" class="edge"><title>Node7&#45;&gt;Node10</title>
<path fill="none" stroke="midnightblue" d="M982.629,-121.401C871.012,-121.526 590.801,-117.452 349.562,-75.9103"/>
<polygon fill="midnightblue" stroke="midnightblue" points="350.007,-72.435 339.553,-74.1611 348.801,-79.3305 350.007,-72.435"/>
</g>
<!-- Node11 -->
<g id="node11" class="node"><title>Node11</title>
<polygon fill="none" stroke="#bfbfbf" points="357.5,-56.5 357.5,-75.5 398.5,-75.5 398.5,-56.5 357.5,-56.5"/>
<text text-anchor="middle" x="378" y="-63.5" font-family="Helvetica,sans-Serif" font-size="10.00">ctime</text>
</g>
<!-- Node7&#45;&gt;Node11 -->
<g id="edge10" class="edge"><title>Node7&#45;&gt;Node11</title>
<path fill="none" stroke="midnightblue" d="M982.995,-121.102C878.726,-120.539 627.28,-115.037 408.572,-75.6411"/>
<polygon fill="midnightblue" stroke="midnightblue" points="408.978,-72.1574 398.511,-73.8005 407.718,-79.0431 408.978,-72.1574"/>
</g>
<!-- Node12 -->
<g id="node12" class="node"><title>Node12</title>
<polygon fill="none" stroke="#bfbfbf" points="417,-56.5 417,-75.5 463,-75.5 463,-56.5 417,-56.5"/>
<text text-anchor="middle" x="440" y="-63.5" font-family="Helvetica,sans-Serif" font-size="10.00">cstring</text>
</g>
<!-- Node7&#45;&gt;Node12 -->
<g id="edge11" class="edge"><title>Node7&#45;&gt;Node12</title>
<path fill="none" stroke="midnightblue" d="M982.902,-120.246C886.651,-118.079 666.432,-109.728 473.343,-75.9037"/>
<polygon fill="midnightblue" stroke="midnightblue" points="473.756,-72.4222 463.297,-74.1162 472.529,-79.3139 473.756,-72.4222"/>
</g>
<!-- Node13 -->
<g id="node13" class="node"><title>Node13</title>
<polygon fill="none" stroke="#bfbfbf" points="481.5,-56.5 481.5,-75.5 530.5,-75.5 530.5,-56.5 481.5,-56.5"/>
<text text-anchor="middle" x="506" y="-63.5" font-family="Helvetica,sans-Serif" font-size="10.00">cstdarg</text>
</g>
<!-- Node7&#45;&gt;Node13 -->
<g id="edge12" class="edge"><title>Node7&#45;&gt;Node13</title>
<path fill="none" stroke="midnightblue" d="M982.756,-119.227C895.5,-115.492 707.991,-104.801 540.745,-75.8251"/>
<polygon fill="midnightblue" stroke="midnightblue" points="541.231,-72.3569 530.775,-74.0716 540.018,-79.251 541.231,-72.3569"/>
</g>
<!-- Node14 -->
<g id="node14" class="node"><title>Node14</title>
<polygon fill="none" stroke="#bfbfbf" points="549,-56.5 549,-75.5 593,-75.5 593,-56.5 549,-56.5"/>
<text text-anchor="middle" x="571" y="-63.5" font-family="Helvetica,sans-Serif" font-size="10.00">cmath</text>
</g>
<!-- Node7&#45;&gt;Node14 -->
<g id="edge13" class="edge"><title>Node7&#45;&gt;Node14</title>
<path fill="none" stroke="midnightblue" d="M982.892,-118.713C904.474,-114.439 746.105,-103.267 603.475,-75.9636"/>
<polygon fill="midnightblue" stroke="midnightblue" points="603.719,-72.4454 593.234,-73.9698 602.381,-79.3164 603.719,-72.4454"/>
</g>
<!-- Node15 -->
<g id="node15" class="node"><title>Node15</title>
<polygon fill="none" stroke="#bfbfbf" points="611,-56.5 611,-75.5 655,-75.5 655,-56.5 611,-56.5"/>
<text text-anchor="middle" x="633" y="-63.5" font-family="Helvetica,sans-Serif" font-size="10.00">vector</text>
</g>
<!-- Node7&#45;&gt;Node15 -->
<g id="edge14" class="edge"><title>Node7&#45;&gt;Node15</title>
<path fill="none" stroke="midnightblue" d="M982.783,-117.513C913.755,-112.067 784.2,-99.8221 665.249,-75.9623"/>
<polygon fill="midnightblue" stroke="midnightblue" points="665.742,-72.4908 655.244,-73.9224 664.343,-79.3497 665.742,-72.4908"/>
</g>
<!-- Node16 -->
<g id="node16" class="node"><title>Node16</title>
<polygon fill="none" stroke="#bfbfbf" points="673.5,-56.5 673.5,-75.5 708.5,-75.5 708.5,-56.5 673.5,-56.5"/>
<text text-anchor="middle" x="691" y="-63.5" font-family="Helvetica,sans-Serif" font-size="10.00">map</text>
</g>
<!-- Node7&#45;&gt;Node16 -->
<g id="edge15" class="edge"><title>Node7&#45;&gt;Node16</title>
<path fill="none" stroke="midnightblue" d="M982.811,-116.707C922.566,-110.842 817.373,-98.6348 718.448,-75.6942"/>
<polygon fill="midnightblue" stroke="midnightblue" points="719.125,-72.2578 708.588,-73.3666 717.516,-79.0706 719.125,-72.2578"/>
</g>
<!-- Node17 -->
<g id="node17" class="node"><title>Node17</title>
<polygon fill="none" stroke="#bfbfbf" points="727,-56.5 727,-75.5 757,-75.5 757,-56.5 727,-56.5"/>
<text text-anchor="middle" x="742" y="-63.5" font-family="Helvetica,sans-Serif" font-size="10.00">set</text>
</g>
<!-- Node7&#45;&gt;Node17 -->
<g id="edge17" class="edge"><title>Node7&#45;&gt;Node17</title>
<path fill="none" stroke="midnightblue" d="M982.858,-115.545C931.116,-109.168 847.264,-97.0393 766.876,-75.7949"/>
<polygon fill="midnightblue" stroke="midnightblue" points="767.659,-72.3809 757.092,-73.1587 765.837,-79.1399 767.659,-72.3809"/>
</g>
<!-- Node18 -->
<g id="node18" class="node"><title>Node18</title>
<polygon fill="none" stroke="#bfbfbf" points="775.5,-56.5 775.5,-75.5 804.5,-75.5 804.5,-56.5 775.5,-56.5"/>
<text text-anchor="middle" x="790" y="-63.5" font-family="Helvetica,sans-Serif" font-size="10.00">list</text>
</g>
<!-- Node7&#45;&gt;Node18 -->
<g id="edge18" class="edge"><title>Node7&#45;&gt;Node18</title>
<path fill="none" stroke="midnightblue" d="M982.702,-113.342C940.199,-106.189 877.124,-94.2584 814.936,-76.2259"/>
<polygon fill="midnightblue" stroke="midnightblue" points="815.548,-72.7572 804.966,-73.2792 813.564,-79.4701 815.548,-72.7572"/>
</g>
<!-- Node19 -->
<g id="node19" class="node"><title>Node19</title>
<polygon fill="none" stroke="#bfbfbf" points="822.5,-56.5 822.5,-75.5 865.5,-75.5 865.5,-56.5 822.5,-56.5"/>
<text text-anchor="middle" x="844" y="-63.5" font-family="Helvetica,sans-Serif" font-size="10.00">deque</text>
</g>
<!-- Node7&#45;&gt;Node19 -->
<g id="edge19" class="edge"><title>Node7&#45;&gt;Node19</title>
<path fill="none" stroke="midnightblue" d="M1001.67,-112.499C971.829,-104.103 924.708,-90.7669 875.487,-76.4092"/>
<polygon fill="midnightblue" stroke="midnightblue" points="876.2,-72.9711 865.619,-73.5251 874.236,-79.69 876.2,-72.9711"/>
</g>
<!-- Node20 -->
<g id="node20" class="node"><title>Node20</title>
<polygon fill="none" stroke="#bfbfbf" points="883.5,-56.5 883.5,-75.5 926.5,-75.5 926.5,-56.5 883.5,-56.5"/>
<text text-anchor="middle" x="905" y="-63.5" font-family="Helvetica,sans-Serif" font-size="10.00">queue</text>
</g>
<!-- Node7&#45;&gt;Node20 -->
<g id="edge20" class="edge"><title>Node7&#45;&gt;Node20</title>
<path fill="none" stroke="midnightblue" d="M1011.88,-112.444C990.976,-103.557 958.065,-89.5632 934.284,-79.4514"/>
<polygon fill="midnightblue" stroke="midnightblue" points="935.602,-76.2085 925.029,-75.5164 932.862,-82.6504 935.602,-76.2085"/>
</g>
<!-- Node21 -->
<g id="node21" class="node"><title>Node21</title>
<polygon fill="none" stroke="#bfbfbf" points="944.5,-56.5 944.5,-75.5 985.5,-75.5 985.5,-56.5 944.5,-56.5"/>
<text text-anchor="middle" x="965" y="-63.5" font-family="Helvetica,sans-Serif" font-size="10.00">bitset</text>
</g>
<!-- Node7&#45;&gt;Node21 -->
<g id="edge21" class="edge"><title>Node7&#45;&gt;Node21</title>
<path fill="none" stroke="midnightblue" d="M1021.24,-112.324C1011.23,-104.263 996.113,-92.0765 984.07,-82.3695"/>
<polygon fill="midnightblue" stroke="midnightblue" points="985.943,-79.3841 975.961,-75.8339 981.55,-84.8343 985.943,-79.3841"/>
</g>
<!-- Node22 -->
<g id="node22" class="node"><title>Node22</title>
<polygon fill="none" stroke="#bfbfbf" points="1004,-56.5 1004,-75.5 1060,-75.5 1060,-56.5 1004,-56.5"/>
<text text-anchor="middle" x="1032" y="-63.5" font-family="Helvetica,sans-Serif" font-size="10.00">algorithm</text>
</g>
<!-- Node7&#45;&gt;Node22 -->
<g id="edge22" class="edge"><title>Node7&#45;&gt;Node22</title>
<path fill="none" stroke="midnightblue" d="M1032,-112.083C1032,-105.006 1032,-94.8611 1032,-85.9865"/>
<polygon fill="midnightblue" stroke="midnightblue" points="1035.5,-85.751 1032,-75.7511 1028.5,-85.7511 1035.5,-85.751"/>
</g>
<!-- Node23 -->
<g id="node23" class="node"><title>Node23</title>
<polygon fill="none" stroke="#bfbfbf" points="1078.5,-56.5 1078.5,-75.5 1137.5,-75.5 1137.5,-56.5 1078.5,-56.5"/>
<text text-anchor="middle" x="1108" y="-63.5" font-family="Helvetica,sans-Serif" font-size="10.00">functional</text>
</g>
<!-- Node7&#45;&gt;Node23 -->
<g id="edge23" class="edge"><title>Node7&#45;&gt;Node23</title>
<path fill="none" stroke="midnightblue" d="M1044.21,-112.324C1055.78,-104.107 1073.38,-91.6017 1087.16,-81.8069"/>
<polygon fill="midnightblue" stroke="midnightblue" points="1089.44,-84.4791 1095.57,-75.8339 1085.39,-78.7729 1089.44,-84.4791"/>
</g>
<!-- Node24 -->
<g id="node24" class="node"><title>Node24</title>
<polygon fill="none" stroke="#bfbfbf" points="1156,-56.5 1156,-75.5 1196,-75.5 1196,-56.5 1156,-56.5"/>
<text text-anchor="middle" x="1176" y="-63.5" font-family="Helvetica,sans-Serif" font-size="10.00">limits</text>
</g>
<!-- Node7&#45;&gt;Node24 -->
<g id="edge24" class="edge"><title>Node7&#45;&gt;Node24</title>
<path fill="none" stroke="midnightblue" d="M1054.82,-112.444C1079.54,-103.173 1119.08,-88.3464 1146.23,-78.1652"/>
<polygon fill="midnightblue" stroke="midnightblue" points="1147.48,-81.4318 1155.62,-74.6433 1145.03,-74.8775 1147.48,-81.4318"/>
</g>
<!-- Node25 -->
<g id="node25" class="node"><title>Node25</title>
<polygon fill="none" stroke="#bfbfbf" points="1214,-56.5 1214,-75.5 1264,-75.5 1264,-56.5 1214,-56.5"/>
<text text-anchor="middle" x="1239" y="-63.5" font-family="Helvetica,sans-Serif" font-size="10.00">fstream</text>
</g>
<!-- Node7&#45;&gt;Node25 -->
<g id="edge25" class="edge"><title>Node7&#45;&gt;Node25</title>
<path fill="none" stroke="midnightblue" d="M1064.85,-112.499C1097.69,-103.993 1149.88,-90.4451 1203.99,-76.2576"/>
<polygon fill="midnightblue" stroke="midnightblue" points="1204.97,-79.6195 1213.75,-73.6961 1203.19,-72.8486 1204.97,-79.6195"/>
</g>
<!-- Node26 -->
<g id="node26" class="node"><title>Node26</title>
<polygon fill="none" stroke="#bfbfbf" points="1282.5,-56.5 1282.5,-75.5 1327.5,-75.5 1327.5,-56.5 1282.5,-56.5"/>
<text text-anchor="middle" x="1305" y="-63.5" font-family="Helvetica,sans-Serif" font-size="10.00">iosfwd</text>
</g>
<!-- Node7&#45;&gt;Node26 -->
<g id="edge26" class="edge"><title>Node7&#45;&gt;Node26</title>
<path fill="none" stroke="midnightblue" d="M1081.2,-113.142C1127.89,-105.385 1200.23,-92.6015 1272.19,-76.0103"/>
<polygon fill="midnightblue" stroke="midnightblue" points="1273.4,-79.3235 1282.34,-73.644 1271.81,-72.5063 1273.4,-79.3235"/>
</g>
<!-- Node27 -->
<g id="node27" class="node"><title>Node27</title>
<polygon fill="none" stroke="#bfbfbf" points="1346,-56.5 1346,-75.5 1398,-75.5 1398,-56.5 1346,-56.5"/>
<text text-anchor="middle" x="1372" y="-63.5" font-family="Helvetica,sans-Serif" font-size="10.00">sstream</text>
</g>
<!-- Node7&#45;&gt;Node27 -->
<g id="edge27" class="edge"><title>Node7&#45;&gt;Node27</title>
<path fill="none" stroke="midnightblue" d="M1081.22,-115.222C1139.55,-108.039 1239.84,-94.6404 1335.85,-75.8416"/>
<polygon fill="midnightblue" stroke="midnightblue" points="1336.59,-79.2621 1345.72,-73.8857 1335.23,-72.3955 1336.59,-79.2621"/>
</g>
<!-- Node28 -->
<g id="node28" class="node"><title>Node28</title>
<polygon fill="none" stroke="#bfbfbf" points="1416,-56.5 1416,-75.5 1484,-75.5 1484,-56.5 1416,-56.5"/>
<text text-anchor="middle" x="1450" y="-63.5" font-family="Helvetica,sans-Serif" font-size="10.00">sys/types.h</text>
</g>
<!-- Node7&#45;&gt;Node28 -->
<g id="edge28" class="edge"><title>Node7&#45;&gt;Node28</title>
<path fill="none" stroke="midnightblue" d="M1081.03,-116.488C1150.94,-109.753 1283.47,-95.8698 1405.86,-76.0637"/>
<polygon fill="midnightblue" stroke="midnightblue" points="1406.48,-79.5096 1415.78,-74.4415 1405.35,-72.6013 1406.48,-79.5096"/>
</g>
<!-- Node29 -->
<g id="node29" class="node"><title>Node29</title>
<polygon fill="none" stroke="#bfbfbf" points="1502,-56.5 1502,-75.5 1562,-75.5 1562,-56.5 1502,-56.5"/>
<text text-anchor="middle" x="1532" y="-63.5" font-family="Helvetica,sans-Serif" font-size="10.00">sys/stat.h</text>
</g>
<!-- Node7&#45;&gt;Node29 -->
<g id="edge29" class="edge"><title>Node7&#45;&gt;Node29</title>
<path fill="none" stroke="midnightblue" d="M1081.06,-118.304C1163.78,-113.303 1336.38,-100.907 1491.64,-76.0228"/>
<polygon fill="midnightblue" stroke="midnightblue" points="1492.53,-79.424 1501.84,-74.3656 1491.41,-72.5145 1492.53,-79.424"/>
</g>
<!-- Node30 -->
<g id="node30" class="node"><title>Node30</title>
<polygon fill="none" stroke="#bfbfbf" points="1580.5,-56.5 1580.5,-75.5 1631.5,-75.5 1631.5,-56.5 1580.5,-56.5"/>
<text text-anchor="middle" x="1606" y="-63.5" font-family="Helvetica,sans-Serif" font-size="10.00">unistd.h</text>
</g>
<!-- Node7&#45;&gt;Node30 -->
<g id="edge30" class="edge"><title>Node7&#45;&gt;Node30</title>
<path fill="none" stroke="midnightblue" d="M1081.03,-119.667C1174.46,-116.53 1384.52,-106.609 1570.53,-75.7641"/>
<polygon fill="midnightblue" stroke="midnightblue" points="1571.21,-79.199 1580.49,-74.0882 1570.05,-72.296 1571.21,-79.199"/>
</g>
<!-- Node31 -->
<g id="node31" class="node"><title>Node31</title>
<polygon fill="none" stroke="#bfbfbf" points="1650,-56.5 1650,-75.5 1696,-75.5 1696,-56.5 1650,-56.5"/>
<text text-anchor="middle" x="1673" y="-63.5" font-family="Helvetica,sans-Serif" font-size="10.00">dlfcn.h</text>
</g>
<!-- Node7&#45;&gt;Node31 -->
<g id="edge31" class="edge"><title>Node7&#45;&gt;Node31</title>
<path fill="none" stroke="midnightblue" d="M1081.25,-120.555C1183.61,-118.94 1426.74,-111.527 1639.58,-75.6823"/>
<polygon fill="midnightblue" stroke="midnightblue" points="1640.42,-79.0889 1649.69,-73.9538 1639.24,-72.1889 1640.42,-79.0889"/>
</g>
<!-- Node32 -->
<g id="node32" class="node"><title>Node32</title>
<polygon fill="none" stroke="#bfbfbf" points="1714,-56.5 1714,-75.5 1792,-75.5 1792,-56.5 1714,-56.5"/>
<text text-anchor="middle" x="1753" y="-63.5" font-family="Helvetica,sans-Serif" font-size="10.00">ext/hash_map</text>
</g>
<!-- Node7&#45;&gt;Node32 -->
<g id="edge32" class="edge"><title>Node7&#45;&gt;Node32</title>
<path fill="none" stroke="midnightblue" d="M1081.17,-119.709C1191.01,-116.395 1464.76,-105.752 1703.5,-76.0404"/>
<polygon fill="midnightblue" stroke="midnightblue" points="1704.28,-79.4698 1713.77,-74.7483 1703.41,-72.5246 1704.28,-79.4698"/>
</g>
<!-- Node33 -->
<g id="node33" class="node"><title>Node33</title>
<polygon fill="none" stroke="#bfbfbf" points="1810.5,-56.5 1810.5,-75.5 1883.5,-75.5 1883.5,-56.5 1810.5,-56.5"/>
<text text-anchor="middle" x="1847" y="-63.5" font-family="Helvetica,sans-Serif" font-size="10.00">ext/hash_set</text>
</g>
<!-- Node7&#45;&gt;Node33 -->
<g id="edge33" class="edge"><title>Node7&#45;&gt;Node33</title>
<path fill="none" stroke="midnightblue" d="M1081.24,-120.415C1202.03,-118.488 1522.71,-110.398 1800.15,-75.9104"/>
<polygon fill="midnightblue" stroke="midnightblue" points="1800.93,-79.34 1810.41,-74.6197 1800.06,-72.3947 1800.93,-79.34"/>
</g>
<!-- Node34 -->
<g id="node34" class="node"><title>Node34</title>
<polygon fill="none" stroke="#bfbfbf" points="1901.5,-56.5 1901.5,-75.5 1972.5,-75.5 1972.5,-56.5 1901.5,-56.5"/>
<text text-anchor="middle" x="1937" y="-63.5" font-family="Helvetica,sans-Serif" font-size="10.00">sys/param.h</text>
</g>
<!-- Node7&#45;&gt;Node34 -->
<g id="edge34" class="edge"><title>Node7&#45;&gt;Node34</title>
<path fill="none" stroke="midnightblue" d="M1081.19,-120.918C1211.64,-120.168 1577.32,-114.61 1891.02,-75.9161"/>
<polygon fill="midnightblue" stroke="midnightblue" points="1891.73,-79.3547 1901.22,-74.6439 1890.86,-72.4086 1891.73,-79.3547"/>
</g>
<!-- Node35 -->
<g id="node35" class="node"><title>Node35</title>
<polygon fill="none" stroke="#bfbfbf" points="1991,-56.5 1991,-75.5 2157,-75.5 2157,-56.5 1991,-56.5"/>
<text text-anchor="middle" x="2074" y="-63.5" font-family="Helvetica,sans-Serif" font-size="10.00">CoreFoundation/CoreFoundation.h</text>
</g>
<!-- Node7&#45;&gt;Node35 -->
<g id="edge35" class="edge"><title>Node7&#45;&gt;Node35</title>
<path fill="none" stroke="midnightblue" d="M1081.2,-119.52C1220.39,-115.149 1629.07,-101.061 1980.74,-75.9758"/>
<polygon fill="midnightblue" stroke="midnightblue" points="1981.14,-79.4561 1990.86,-75.2494 1980.64,-72.4741 1981.14,-79.4561"/>
</g>
<!-- Node36 -->
<g id="node36" class="node"><title>Node36</title>
<polygon fill="none" stroke="#bfbfbf" points="2175,-56.5 2175,-75.5 2299,-75.5 2299,-56.5 2175,-56.5"/>
<text text-anchor="middle" x="2237" y="-63.5" font-family="Helvetica,sans-Serif" font-size="10.00">emscripten/emscripten.h</text>
</g>
<!-- Node7&#45;&gt;Node36 -->
<g id="edge36" class="edge"><title>Node7&#45;&gt;Node36</title>
<path fill="none" stroke="midnightblue" d="M1081,-120.567C1237.44,-118.865 1739.11,-110.927 2164.66,-76.0364"/>
<polygon fill="midnightblue" stroke="midnightblue" points="2165.02,-79.5187 2174.69,-75.2072 2164.44,-72.5425 2165.02,-79.5187"/>
</g>
<!-- Node38 -->
<g id="node38" class="node"><title>Node38</title>
<g id="a_node38"><a xlink:href="_ogre_memory_allocated_object_8h.html" target="_top" xlink:title="OgreMemoryAllocatedObject.h">
<polygon fill="none" stroke="black" points="2355,-56.5 2355,-75.5 2505,-75.5 2505,-56.5 2355,-56.5"/>
<text text-anchor="middle" x="2430" y="-63.5" font-family="Helvetica,sans-Serif" font-size="10.00">OgreMemoryAllocatedObject.h</text>
</a>
</g>
</g>
<!-- Node37&#45;&gt;Node38 -->
<g id="edge38" class="edge"><title>Node37&#45;&gt;Node38</title>
<path fill="none" stroke="midnightblue" d="M2540.24,-112.444C2518.68,-103.557 2484.74,-89.5632 2460.21,-79.4514"/>
<polygon fill="midnightblue" stroke="midnightblue" points="2461.24,-76.0917 2450.66,-75.5164 2458.57,-82.5634 2461.24,-76.0917"/>
</g>
<!-- Node39 -->
<g id="node39" class="node"><title>Node39</title>
<g id="a_node39"><a xlink:href="_ogre_header_prefix_8h.html" target="_top" xlink:title="OgreHeaderPrefix.h">
<polygon fill="none" stroke="black" points="2537.5,-0.5 2537.5,-19.5 2640.5,-19.5 2640.5,-0.5 2537.5,-0.5"/>
<text text-anchor="middle" x="2589" y="-7.5" font-family="Helvetica,sans-Serif" font-size="10.00">OgreHeaderPrefix.h</text>
</a>
</g>
</g>
<!-- Node37&#45;&gt;Node39 -->
<g id="edge42" class="edge"><title>Node37&#45;&gt;Node39</title>
<path fill="none" stroke="midnightblue" d="M2486.71,-121.07C2409.16,-118.546 2304.23,-106.215 2346,-56 2368.63,-28.7995 2462.96,-17.9692 2527.21,-13.706"/>
<polygon fill="midnightblue" stroke="midnightblue" points="2527.49,-17.1956 2537.25,-13.0766 2527.05,-10.2093 2527.49,-17.1956"/>
</g>
<!-- Node40 -->
<g id="node40" class="node"><title>Node40</title>
<g id="a_node40"><a xlink:href="_ogre_header_suffix_8h.html" target="_top" xlink:title="OgreHeaderSuffix.h">
<polygon fill="none" stroke="black" points="2689.5,-0.5 2689.5,-19.5 2792.5,-19.5 2792.5,-0.5 2689.5,-0.5"/>
<text text-anchor="middle" x="2741" y="-7.5" font-family="Helvetica,sans-Serif" font-size="10.00">OgreHeaderSuffix.h</text>
</a>
</g>
</g>
<!-- Node37&#45;&gt;Node40 -->
<g id="edge50" class="edge"><title>Node37&#45;&gt;Node40</title>
<path fill="none" stroke="midnightblue" d="M2635.32,-118.353C2703.03,-114.192 2795.89,-103.495 2819,-76 2836.73,-54.907 2803.72,-35.3365 2775.33,-23.2947"/>
<polygon fill="midnightblue" stroke="midnightblue" points="2776.54,-20.0092 2765.96,-19.5083 2773.92,-26.4995 2776.54,-20.0092"/>
</g>
<!-- Node41 -->
<g id="node41" class="node"><title>Node41</title>
<g id="a_node41"><a xlink:href="_ogre_memory_s_t_l_allocator_8h.html" target="_top" xlink:title="OgreMemorySTLAllocator.h">
<polygon fill="none" stroke="black" points="2672.5,-56.5 2672.5,-75.5 2809.5,-75.5 2809.5,-56.5 2672.5,-56.5"/>
<text text-anchor="middle" x="2741" y="-63.5" font-family="Helvetica,sans-Serif" font-size="10.00">OgreMemorySTLAllocator.h</text>
</a>
</g>
</g>
<!-- Node37&#45;&gt;Node41 -->
<g id="edge43" class="edge"><title>Node37&#45;&gt;Node41</title>
<path fill="none" stroke="midnightblue" d="M2589.52,-112.444C2620.07,-103.28 2668.71,-88.6876 2702.6,-78.5192"/>
<polygon fill="midnightblue" stroke="midnightblue" points="2704.04,-81.7424 2712.61,-75.5164 2702.03,-75.0376 2704.04,-81.7424"/>
</g>
<!-- Node42 -->
<g id="node42" class="node"><title>Node42</title>
<g id="a_node42"><a xlink:href="_ogre_memory_ned_pooling_8h.html" target="_top" xlink:title="OgreMemoryNedPooling.h">
<polygon fill="none" stroke="black" points="2523.5,-56.5 2523.5,-75.5 2654.5,-75.5 2654.5,-56.5 2523.5,-56.5"/>
<text text-anchor="middle" x="2589" y="-63.5" font-family="Helvetica,sans-Serif" font-size="10.00">OgreMemoryNedPooling.h</text>
</a>
</g>
</g>
<!-- Node37&#45;&gt;Node42 -->
<g id="edge47" class="edge"><title>Node37&#45;&gt;Node42</title>
<path fill="none" stroke="midnightblue" d="M2565.62,-112.083C2569.46,-104.691 2575.02,-93.9533 2579.76,-84.8111"/>
<polygon fill="midnightblue" stroke="midnightblue" points="2582.97,-86.2398 2584.46,-75.7511 2576.75,-83.0175 2582.97,-86.2398"/>
</g>
<!-- Node38&#45;&gt;Node2 -->
<g id="edge39" class="edge"><title>Node38&#45;&gt;Node2</title>
<path fill="none" stroke="midnightblue" d="M2435.7,-75.5914C2447.72,-93.7088 2475.87,-136.118 2491.69,-159.957"/>
<polygon fill="midnightblue" stroke="midnightblue" points="2488.83,-161.972 2497.27,-168.368 2494.66,-158.101 2488.83,-161.972"/>
</g>
<!-- Node38&#45;&gt;Node39 -->
<g id="edge40" class="edge"><title>Node38&#45;&gt;Node39</title>
<path fill="none" stroke="midnightblue" d="M2455.19,-56.4435C2481.94,-47.3591 2524.4,-32.9388 2554.31,-22.7831"/>
<polygon fill="midnightblue" stroke="midnightblue" points="2555.58,-26.0464 2563.92,-19.5164 2553.33,-19.4182 2555.58,-26.0464"/>
</g>
<!-- Node38&#45;&gt;Node40 -->
<g id="edge41" class="edge"><title>Node38&#45;&gt;Node40</title>
<path fill="none" stroke="midnightblue" d="M2479.28,-56.4435C2534.33,-46.8851 2623.4,-31.4195 2682.08,-21.2298"/>
<polygon fill="midnightblue" stroke="midnightblue" points="2682.7,-24.6757 2691.95,-19.5164 2681.5,-17.7788 2682.7,-24.6757"/>
</g>
<!-- Node41&#45;&gt;Node2 -->
<g id="edge44" class="edge"><title>Node41&#45;&gt;Node2</title>
<path fill="none" stroke="midnightblue" d="M2730.27,-75.6853C2713.01,-89.3013 2677.59,-115.787 2644,-132 2613.6,-146.672 2577.27,-158.136 2549.1,-165.82"/>
<polygon fill="midnightblue" stroke="midnightblue" points="2547.88,-162.523 2539.12,-168.479 2549.68,-169.287 2547.88,-162.523"/>
</g>
<!-- Node41&#45;&gt;Node39 -->
<g id="edge45" class="edge"><title>Node41&#45;&gt;Node39</title>
<path fill="none" stroke="midnightblue" d="M2716.92,-56.4435C2691.46,-47.3986 2651.11,-33.064 2622.54,-22.9158"/>
<polygon fill="midnightblue" stroke="midnightblue" points="2623.57,-19.5661 2612.97,-19.5164 2621.22,-26.1622 2623.57,-19.5661"/>
</g>
<!-- Node41&#45;&gt;Node40 -->
<g id="edge46" class="edge"><title>Node41&#45;&gt;Node40</title>
<path fill="none" stroke="midnightblue" d="M2741,-56.083C2741,-49.0059 2741,-38.8611 2741,-29.9865"/>
<polygon fill="midnightblue" stroke="midnightblue" points="2744.5,-29.751 2741,-19.7511 2737.5,-29.7511 2744.5,-29.751"/>
</g>
<!-- Node42&#45;&gt;Node39 -->
<g id="edge48" class="edge"><title>Node42&#45;&gt;Node39</title>
<path fill="none" stroke="midnightblue" d="M2589,-56.083C2589,-49.0059 2589,-38.8611 2589,-29.9865"/>
<polygon fill="midnightblue" stroke="midnightblue" points="2592.5,-29.751 2589,-19.7511 2585.5,-29.7511 2592.5,-29.751"/>
</g>
<!-- Node42&#45;&gt;Node40 -->
<g id="edge49" class="edge"><title>Node42&#45;&gt;Node40</title>
<path fill="none" stroke="midnightblue" d="M2613.08,-56.4435C2638.54,-47.3986 2678.89,-33.064 2707.46,-22.9158"/>
<polygon fill="midnightblue" stroke="midnightblue" points="2708.78,-26.1622 2717.03,-19.5164 2706.43,-19.5661 2708.78,-26.1622"/>
</g>
<!-- Node43&#45;&gt;Node2 -->
<g id="edge52" class="edge"><title>Node43&#45;&gt;Node2</title>
<path fill="none" stroke="midnightblue" d="M2538.02,-280.368C2531.86,-262.537 2517.61,-221.295 2509.31,-197.272"/>
<polygon fill="midnightblue" stroke="midnightblue" points="2512.54,-195.9 2505.97,-187.591 2505.93,-198.186 2512.54,-195.9"/>
</g>
<!-- Node44 -->
<g id="node44" class="node"><title>Node44</title>
<g id="a_node44"><a xlink:href="_ogre_math_8h.html" target="_top" xlink:title="OgreMath.h">
<polygon fill="none" stroke="black" points="2612,-224.5 2612,-243.5 2680,-243.5 2680,-224.5 2612,-224.5"/>
<text text-anchor="middle" x="2646" y="-231.5" font-family="Helvetica,sans-Serif" font-size="10.00">OgreMath.h</text>
</a>
</g>
</g>
<!-- Node43&#45;&gt;Node44 -->
<g id="edge53" class="edge"><title>Node43&#45;&gt;Node44</title>
<path fill="none" stroke="midnightblue" d="M2557.87,-280.324C2574.71,-271.664 2600.81,-258.242 2620.24,-248.249"/>
<polygon fill="midnightblue" stroke="midnightblue" points="2621.88,-251.341 2629.17,-243.655 2618.68,-245.116 2621.88,-251.341"/>
</g>
<!-- Node44&#45;&gt;Node2 -->
<g id="edge54" class="edge"><title>Node44&#45;&gt;Node2</title>
<path fill="none" stroke="midnightblue" d="M2623.34,-224.444C2599.6,-215.478 2562.09,-201.314 2535.26,-191.183"/>
<polygon fill="midnightblue" stroke="midnightblue" points="2536.14,-187.775 2525.55,-187.516 2533.67,-194.324 2536.14,-187.775"/>
</g>
<!-- Node44&#45;&gt;Node39 -->
<g id="edge55" class="edge"><title>Node44&#45;&gt;Node39</title>
<path fill="none" stroke="midnightblue" d="M2666.71,-224.481C2723.93,-199.786 2876.22,-125.497 2819,-56 2808.29,-42.9926 2715.15,-27.9786 2650.74,-19"/>
<polygon fill="midnightblue" stroke="midnightblue" points="2651.04,-15.5096 2640.66,-17.612 2650.09,-22.4441 2651.04,-15.5096"/>
</g>
<!-- Node44&#45;&gt;Node40 -->
<g id="edge56" class="edge"><title>Node44&#45;&gt;Node40</title>
<path fill="none" stroke="midnightblue" d="M2680.14,-226.822C2725.67,-216.448 2803.78,-190.597 2832,-132 2846.67,-101.544 2853.02,-84.6019 2835,-56 2824.99,-40.1125 2807.65,-29.7108 2790.56,-22.9583"/>
<polygon fill="midnightblue" stroke="midnightblue" points="2791.74,-19.6623 2781.15,-19.5706 2789.37,-26.2491 2791.74,-19.6623"/>
</g>
<!-- Node45&#45;&gt;Node2 -->
<g id="edge58" class="edge"><title>Node45&#45;&gt;Node2</title>
<path fill="none" stroke="midnightblue" d="M2634.78,-280.368C2610.45,-261.653 2552.6,-217.151 2522.28,-193.832"/>
<polygon fill="midnightblue" stroke="midnightblue" points="2524.23,-190.914 2514.17,-187.591 2519.96,-196.463 2524.23,-190.914"/>
</g>
<!-- Node45&#45;&gt;Node44 -->
<g id="edge59" class="edge"><title>Node45&#45;&gt;Node44</title>
<path fill="none" stroke="midnightblue" d="M2646,-280.083C2646,-273.006 2646,-262.861 2646,-253.986"/>
<polygon fill="midnightblue" stroke="midnightblue" points="2649.5,-253.751 2646,-243.751 2642.5,-253.751 2649.5,-253.751"/>
</g>
</g>
</svg>
