<?xml version="1.0" encoding="UTF-8" standalone="no"?>
<!DOCTYPE svg PUBLIC "-//W3C//DTD SVG 1.1//EN"
 "http://www.w3.org/Graphics/SVG/1.1/DTD/svg11.dtd">
<!-- Generated by graphviz version 2.38.0 (20140413.2041)
 -->
<!-- Title: OgreMemorySTLAllocator.h Pages: 1 -->
<svg width="2698pt" height="252pt"
 viewBox="0.00 0.00 2697.65 252.00" xmlns="http://www.w3.org/2000/svg" xmlns:xlink="http://www.w3.org/1999/xlink">
<g id="graph0" class="graph" transform="scale(1 1) rotate(0) translate(4 248)">
<title>OgreMemorySTLAllocator.h</title>
<!-- Node1 -->
<g id="node1" class="node"><title>Node1</title>
<polygon fill="#bfbfbf" stroke="black" points="1826.65,-224.5 1826.65,-243.5 1963.65,-243.5 1963.65,-224.5 1826.65,-224.5"/>
<text text-anchor="middle" x="1895.15" y="-231.5" font-family="Helvetica,sans-Serif" font-size="10.00">OgreMemorySTLAllocator.h</text>
</g>
<!-- Node2 -->
<g id="node2" class="node"><title>Node2</title>
<g id="a_node2"><a xlink:href="_ogre_prerequisites_8h.html" target="_top" xlink:title="OgrePrerequisites.h">
<polygon fill="none" stroke="black" points="1562.65,-168.5 1562.65,-187.5 1665.65,-187.5 1665.65,-168.5 1562.65,-168.5"/>
<text text-anchor="middle" x="1614.15" y="-175.5" font-family="Helvetica,sans-Serif" font-size="10.00">OgrePrerequisites.h</text>
</a>
</g>
</g>
<!-- Node1&#45;&gt;Node2 -->
<g id="edge1" class="edge"><title>Node1&#45;&gt;Node2</title>
<path fill="none" stroke="midnightblue" d="M1850.63,-224.444C1801.2,-214.944 1721.41,-199.611 1668.38,-189.42"/>
<polygon fill="midnightblue" stroke="midnightblue" points="1668.95,-185.967 1658.47,-187.516 1667.63,-192.841 1668.95,-185.967"/>
</g>
<!-- Node39 -->
<g id="node39" class="node"><title>Node39</title>
<g id="a_node39"><a xlink:href="_ogre_header_prefix_8h.html" target="_top" xlink:title="OgreHeaderPrefix.h">
<polygon fill="none" stroke="black" points="2586.65,-0.5 2586.65,-19.5 2689.65,-19.5 2689.65,-0.5 2586.65,-0.5"/>
<text text-anchor="middle" x="2638.15" y="-7.5" font-family="Helvetica,sans-Serif" font-size="10.00">OgreHeaderPrefix.h</text>
</a>
</g>
</g>
<!-- Node1&#45;&gt;Node39 -->
<g id="edge48" class="edge"><title>Node1&#45;&gt;Node39</title>
<path fill="none" stroke="midnightblue" d="M1950.58,-224.487C2008.77,-215.521 2102.92,-200.937 2184.15,-188 2408.19,-152.322 2552,-261.815 2682.15,-76 2694.07,-58.9866 2676.2,-39.1889 2659.78,-25.9545"/>
<polygon fill="midnightblue" stroke="midnightblue" points="2661.58,-22.928 2651.5,-19.6815 2657.36,-28.5086 2661.58,-22.928"/>
</g>
<!-- Node40 -->
<g id="node40" class="node"><title>Node40</title>
<g id="a_node40"><a xlink:href="_ogre_header_suffix_8h.html" target="_top" xlink:title="OgreHeaderSuffix.h">
<polygon fill="none" stroke="black" points="2393.65,-0.5 2393.65,-19.5 2496.65,-19.5 2496.65,-0.5 2393.65,-0.5"/>
<text text-anchor="middle" x="2445.15" y="-7.5" font-family="Helvetica,sans-Serif" font-size="10.00">OgreHeaderSuffix.h</text>
</a>
</g>
</g>
<!-- Node1&#45;&gt;Node40 -->
<g id="edge49" class="edge"><title>Node1&#45;&gt;Node40</title>
<path fill="none" stroke="midnightblue" d="M1826.49,-231.894C1472.7,-225.597 -123.092,-189.693 8.15425,-56 51.0384,-12.3166 2008.51,-10.8389 2383.44,-10.957"/>
<polygon fill="midnightblue" stroke="midnightblue" points="2383.55,-14.4569 2393.55,-10.9607 2383.55,-7.45695 2383.55,-14.4569"/>
</g>
<!-- Node3 -->
<g id="node3" class="node"><title>Node3</title>
<g id="a_node3"><a xlink:href="_ogre_platform_8h.html" target="_top" xlink:title="OgrePlatform.h">
<polygon fill="none" stroke="black" points="303.654,-112.5 303.654,-131.5 386.654,-131.5 386.654,-112.5 303.654,-112.5"/>
<text text-anchor="middle" x="345.154" y="-119.5" font-family="Helvetica,sans-Serif" font-size="10.00">OgrePlatform.h</text>
</a>
</g>
</g>
<!-- Node2&#45;&gt;Node3 -->
<g id="edge2" class="edge"><title>Node2&#45;&gt;Node3</title>
<path fill="none" stroke="midnightblue" d="M1562.44,-174.799C1357.32,-166.071 602.197,-133.938 396.943,-125.204"/>
<polygon fill="midnightblue" stroke="midnightblue" points="396.881,-121.698 386.741,-124.77 396.583,-128.692 396.881,-121.698"/>
</g>
<!-- Node6 -->
<g id="node6" class="node"><title>Node6</title>
<polygon fill="none" stroke="#bfbfbf" points="109.654,-56.5 109.654,-75.5 150.654,-75.5 150.654,-56.5 109.654,-56.5"/>
<text text-anchor="middle" x="130.154" y="-63.5" font-family="Helvetica,sans-Serif" font-size="10.00">string</text>
</g>
<!-- Node2&#45;&gt;Node6 -->
<g id="edge5" class="edge"><title>Node2&#45;&gt;Node6</title>
<path fill="none" stroke="midnightblue" d="M1562.5,-174.952C1339.56,-165.881 458.132,-127.555 160.575,-75.584"/>
<polygon fill="midnightblue" stroke="midnightblue" points="161.125,-72.1267 150.664,-73.8079 159.89,-79.017 161.125,-72.1267"/>
</g>
<!-- Node7 -->
<g id="node7" class="node"><title>Node7</title>
<g id="a_node7"><a xlink:href="_ogre_std_headers_8h.html" target="_top" xlink:title="OgreStdHeaders.h">
<polygon fill="none" stroke="black" points="1298.15,-112.5 1298.15,-131.5 1396.15,-131.5 1396.15,-112.5 1298.15,-112.5"/>
<text text-anchor="middle" x="1347.15" y="-119.5" font-family="Helvetica,sans-Serif" font-size="10.00">OgreStdHeaders.h</text>
</a>
</g>
</g>
<!-- Node2&#45;&gt;Node7 -->
<g id="edge6" class="edge"><title>Node2&#45;&gt;Node7</title>
<path fill="none" stroke="midnightblue" d="M1571.85,-168.444C1525.07,-158.984 1449.69,-143.738 1399.3,-133.547"/>
<polygon fill="midnightblue" stroke="midnightblue" points="1399.76,-130.068 1389.26,-131.516 1398.37,-136.929 1399.76,-130.068"/>
</g>
<!-- Node37 -->
<g id="node37" class="node"><title>Node37</title>
<g id="a_node37"><a xlink:href="_ogre_memory_allocator_config_8h.html" target="_top" xlink:title="This file configures Ogre&#39;s memory allocators. ">
<polygon fill="none" stroke="black" points="2371.15,-112.5 2371.15,-131.5 2519.15,-131.5 2519.15,-112.5 2371.15,-112.5"/>
<text text-anchor="middle" x="2445.15" y="-119.5" font-family="Helvetica,sans-Serif" font-size="10.00">OgreMemoryAllocatorConfig.h</text>
</a>
</g>
</g>
<!-- Node2&#45;&gt;Node37 -->
<g id="edge37" class="edge"><title>Node2&#45;&gt;Node37</title>
<path fill="none" stroke="midnightblue" d="M1665.82,-173.642C1805.15,-164.589 2189.61,-139.606 2360.91,-128.474"/>
<polygon fill="midnightblue" stroke="midnightblue" points="2361.14,-131.967 2370.89,-127.826 2360.68,-124.982 2361.14,-131.967"/>
</g>
<!-- Node4 -->
<g id="node4" class="node"><title>Node4</title>
<g id="a_node4"><a xlink:href="_ogre_config_8h.html" target="_top" xlink:title="OgreConfig.h">
<polygon fill="none" stroke="black" points="17.1543,-56.5 17.1543,-75.5 91.1543,-75.5 91.1543,-56.5 17.1543,-56.5"/>
<text text-anchor="middle" x="54.1543" y="-63.5" font-family="Helvetica,sans-Serif" font-size="10.00">OgreConfig.h</text>
</a>
</g>
</g>
<!-- Node3&#45;&gt;Node4 -->
<g id="edge3" class="edge"><title>Node3&#45;&gt;Node4</title>
<path fill="none" stroke="midnightblue" d="M303.511,-113.503C256.742,-105.049 178.303,-90.77 101.189,-76.18"/>
<polygon fill="midnightblue" stroke="midnightblue" points="101.781,-72.73 91.3042,-74.3067 100.478,-79.6076 101.781,-72.73"/>
</g>
<!-- Node5 -->
<g id="node5" class="node"><title>Node5</title>
<polygon fill="none" stroke="#bfbfbf" points="2.15425,-0.5 2.15425,-19.5 106.154,-19.5 106.154,-0.5 2.15425,-0.5"/>
<text text-anchor="middle" x="54.1543" y="-7.5" font-family="Helvetica,sans-Serif" font-size="10.00">OgreBuildSettings.h</text>
</g>
<!-- Node4&#45;&gt;Node5 -->
<g id="edge4" class="edge"><title>Node4&#45;&gt;Node5</title>
<path fill="none" stroke="midnightblue" d="M54.1543,-56.083C54.1543,-49.0059 54.1543,-38.8611 54.1543,-29.9865"/>
<polygon fill="midnightblue" stroke="midnightblue" points="57.6543,-29.751 54.1543,-19.7511 50.6543,-29.7511 57.6543,-29.751"/>
</g>
<!-- Node7&#45;&gt;Node6 -->
<g id="edge16" class="edge"><title>Node7&#45;&gt;Node6</title>
<path fill="none" stroke="midnightblue" d="M1298.1,-119.488C1089.09,-113.002 278.66,-87.4015 161.196,-75.2863"/>
<polygon fill="midnightblue" stroke="midnightblue" points="161.338,-71.7762 150.975,-73.9824 160.452,-78.7199 161.338,-71.7762"/>
</g>
<!-- Node8 -->
<g id="node8" class="node"><title>Node8</title>
<polygon fill="none" stroke="#bfbfbf" points="771.654,-56.5 771.654,-75.5 820.654,-75.5 820.654,-56.5 771.654,-56.5"/>
<text text-anchor="middle" x="796.154" y="-63.5" font-family="Helvetica,sans-Serif" font-size="10.00">cassert</text>
</g>
<!-- Node7&#45;&gt;Node8 -->
<g id="edge7" class="edge"><title>Node7&#45;&gt;Node8</title>
<path fill="none" stroke="midnightblue" d="M1297.85,-119.661C1207.02,-116.557 1007.15,-106.757 830.883,-76.0299"/>
<polygon fill="midnightblue" stroke="midnightblue" points="831.369,-72.5616 820.912,-74.2646 830.149,-79.4544 831.369,-72.5616"/>
</g>
<!-- Node9 -->
<g id="node9" class="node"><title>Node9</title>
<polygon fill="none" stroke="#bfbfbf" points="838.654,-56.5 838.654,-75.5 881.654,-75.5 881.654,-56.5 838.654,-56.5"/>
<text text-anchor="middle" x="860.154" y="-63.5" font-family="Helvetica,sans-Serif" font-size="10.00">cstdio</text>
</g>
<!-- Node7&#45;&gt;Node9 -->
<g id="edge8" class="edge"><title>Node7&#45;&gt;Node9</title>
<path fill="none" stroke="midnightblue" d="M1298,-119.274C1215.6,-115.704 1044.37,-105.392 891.688,-75.9605"/>
<polygon fill="midnightblue" stroke="midnightblue" points="892.146,-72.4837 881.659,-73.9941 890.799,-79.3529 892.146,-72.4837"/>
</g>
<!-- Node10 -->
<g id="node10" class="node"><title>Node10</title>
<polygon fill="none" stroke="#bfbfbf" points="899.654,-56.5 899.654,-75.5 944.654,-75.5 944.654,-56.5 899.654,-56.5"/>
<text text-anchor="middle" x="922.154" y="-63.5" font-family="Helvetica,sans-Serif" font-size="10.00">cstdlib</text>
</g>
<!-- Node7&#45;&gt;Node10 -->
<g id="edge9" class="edge"><title>Node7&#45;&gt;Node10</title>
<path fill="none" stroke="midnightblue" d="M1297.91,-118.055C1224.82,-113.099 1083.26,-101.253 954.748,-76.0313"/>
<polygon fill="midnightblue" stroke="midnightblue" points="955.223,-72.5573 944.732,-74.0327 953.854,-79.4219 955.223,-72.5573"/>
</g>
<!-- Node11 -->
<g id="node11" class="node"><title>Node11</title>
<polygon fill="none" stroke="#bfbfbf" points="962.654,-56.5 962.654,-75.5 1003.65,-75.5 1003.65,-56.5 962.654,-56.5"/>
<text text-anchor="middle" x="983.154" y="-63.5" font-family="Helvetica,sans-Serif" font-size="10.00">ctime</text>
</g>
<!-- Node7&#45;&gt;Node11 -->
<g id="edge10" class="edge"><title>Node7&#45;&gt;Node11</title>
<path fill="none" stroke="midnightblue" d="M1298.06,-116.827C1234.55,-110.891 1120.42,-98.4004 1013.67,-75.7772"/>
<polygon fill="midnightblue" stroke="midnightblue" points="1014.21,-72.3131 1003.7,-73.6286 1012.74,-79.1561 1014.21,-72.3131"/>
</g>
<!-- Node12 -->
<g id="node12" class="node"><title>Node12</title>
<polygon fill="none" stroke="#bfbfbf" points="1022.15,-56.5 1022.15,-75.5 1068.15,-75.5 1068.15,-56.5 1022.15,-56.5"/>
<text text-anchor="middle" x="1045.15" y="-63.5" font-family="Helvetica,sans-Serif" font-size="10.00">cstring</text>
</g>
<!-- Node7&#45;&gt;Node12 -->
<g id="edge11" class="edge"><title>Node7&#45;&gt;Node12</title>
<path fill="none" stroke="midnightblue" d="M1298.07,-114.461C1245.85,-107.138 1160.66,-94.1506 1078.5,-76.1081"/>
<polygon fill="midnightblue" stroke="midnightblue" points="1079.02,-72.6381 1068.5,-73.8828 1077.5,-79.471 1079.02,-72.6381"/>
</g>
<!-- Node13 -->
<g id="node13" class="node"><title>Node13</title>
<polygon fill="none" stroke="#bfbfbf" points="1086.65,-56.5 1086.65,-75.5 1135.65,-75.5 1135.65,-56.5 1086.65,-56.5"/>
<text text-anchor="middle" x="1111.15" y="-63.5" font-family="Helvetica,sans-Serif" font-size="10.00">cstdarg</text>
</g>
<!-- Node7&#45;&gt;Node13 -->
<g id="edge12" class="edge"><title>Node7&#45;&gt;Node13</title>
<path fill="none" stroke="midnightblue" d="M1306.42,-112.421C1267.62,-104.139 1207.34,-90.9865 1145.88,-76.1033"/>
<polygon fill="midnightblue" stroke="midnightblue" points="1146.55,-72.6649 1136.01,-73.7003 1144.9,-79.4662 1146.55,-72.6649"/>
</g>
<!-- Node14 -->
<g id="node14" class="node"><title>Node14</title>
<polygon fill="none" stroke="#bfbfbf" points="1154.15,-56.5 1154.15,-75.5 1198.15,-75.5 1198.15,-56.5 1154.15,-56.5"/>
<text text-anchor="middle" x="1176.15" y="-63.5" font-family="Helvetica,sans-Serif" font-size="10.00">cmath</text>
</g>
<!-- Node7&#45;&gt;Node14 -->
<g id="edge13" class="edge"><title>Node7&#45;&gt;Node14</title>
<path fill="none" stroke="midnightblue" d="M1320.06,-112.444C1289.64,-102.837 1240.32,-87.2622 1208.06,-77.0749"/>
<polygon fill="midnightblue" stroke="midnightblue" points="1208.82,-73.6448 1198.23,-73.971 1206.71,-80.3199 1208.82,-73.6448"/>
</g>
<!-- Node15 -->
<g id="node15" class="node"><title>Node15</title>
<polygon fill="none" stroke="#bfbfbf" points="1216.15,-56.5 1216.15,-75.5 1260.15,-75.5 1260.15,-56.5 1216.15,-56.5"/>
<text text-anchor="middle" x="1238.15" y="-63.5" font-family="Helvetica,sans-Serif" font-size="10.00">vector</text>
</g>
<!-- Node7&#45;&gt;Node15 -->
<g id="edge14" class="edge"><title>Node7&#45;&gt;Node15</title>
<path fill="none" stroke="midnightblue" d="M1329.64,-112.324C1312.08,-103.625 1284.82,-90.1202 1264.62,-80.113"/>
<polygon fill="midnightblue" stroke="midnightblue" points="1266.14,-76.9575 1255.62,-75.6545 1263.03,-83.23 1266.14,-76.9575"/>
</g>
<!-- Node16 -->
<g id="node16" class="node"><title>Node16</title>
<polygon fill="none" stroke="#bfbfbf" points="1278.65,-56.5 1278.65,-75.5 1313.65,-75.5 1313.65,-56.5 1278.65,-56.5"/>
<text text-anchor="middle" x="1296.15" y="-63.5" font-family="Helvetica,sans-Serif" font-size="10.00">map</text>
</g>
<!-- Node7&#45;&gt;Node16 -->
<g id="edge15" class="edge"><title>Node7&#45;&gt;Node16</title>
<path fill="none" stroke="midnightblue" d="M1338.73,-112.083C1331.31,-104.22 1320.3,-92.5688 1311.34,-83.0813"/>
<polygon fill="midnightblue" stroke="midnightblue" points="1313.83,-80.618 1304.42,-75.7511 1308.74,-85.4244 1313.83,-80.618"/>
</g>
<!-- Node17 -->
<g id="node17" class="node"><title>Node17</title>
<polygon fill="none" stroke="#bfbfbf" points="1332.15,-56.5 1332.15,-75.5 1362.15,-75.5 1362.15,-56.5 1332.15,-56.5"/>
<text text-anchor="middle" x="1347.15" y="-63.5" font-family="Helvetica,sans-Serif" font-size="10.00">set</text>
</g>
<!-- Node7&#45;&gt;Node17 -->
<g id="edge17" class="edge"><title>Node7&#45;&gt;Node17</title>
<path fill="none" stroke="midnightblue" d="M1347.15,-112.083C1347.15,-105.006 1347.15,-94.8611 1347.15,-85.9865"/>
<polygon fill="midnightblue" stroke="midnightblue" points="1350.65,-85.751 1347.15,-75.7511 1343.65,-85.7511 1350.65,-85.751"/>
</g>
<!-- Node18 -->
<g id="node18" class="node"><title>Node18</title>
<polygon fill="none" stroke="#bfbfbf" points="1380.65,-56.5 1380.65,-75.5 1409.65,-75.5 1409.65,-56.5 1380.65,-56.5"/>
<text text-anchor="middle" x="1395.15" y="-63.5" font-family="Helvetica,sans-Serif" font-size="10.00">list</text>
</g>
<!-- Node7&#45;&gt;Node18 -->
<g id="edge18" class="edge"><title>Node7&#45;&gt;Node18</title>
<path fill="none" stroke="midnightblue" d="M1355.08,-112.083C1362,-104.298 1372.22,-92.8015 1380.61,-83.3665"/>
<polygon fill="midnightblue" stroke="midnightblue" points="1383.35,-85.5505 1387.38,-75.7511 1378.12,-80.8999 1383.35,-85.5505"/>
</g>
<!-- Node19 -->
<g id="node19" class="node"><title>Node19</title>
<polygon fill="none" stroke="#bfbfbf" points="1427.65,-56.5 1427.65,-75.5 1470.65,-75.5 1470.65,-56.5 1427.65,-56.5"/>
<text text-anchor="middle" x="1449.15" y="-63.5" font-family="Helvetica,sans-Serif" font-size="10.00">deque</text>
</g>
<!-- Node7&#45;&gt;Node19 -->
<g id="edge19" class="edge"><title>Node7&#45;&gt;Node19</title>
<path fill="none" stroke="midnightblue" d="M1363.54,-112.324C1379.83,-103.703 1405.02,-90.3643 1423.87,-80.3855"/>
<polygon fill="midnightblue" stroke="midnightblue" points="1425.61,-83.4267 1432.81,-75.6545 1422.33,-77.2402 1425.61,-83.4267"/>
</g>
<!-- Node20 -->
<g id="node20" class="node"><title>Node20</title>
<polygon fill="none" stroke="#bfbfbf" points="1488.65,-56.5 1488.65,-75.5 1531.65,-75.5 1531.65,-56.5 1488.65,-56.5"/>
<text text-anchor="middle" x="1510.15" y="-63.5" font-family="Helvetica,sans-Serif" font-size="10.00">queue</text>
</g>
<!-- Node7&#45;&gt;Node20 -->
<g id="edge20" class="edge"><title>Node7&#45;&gt;Node20</title>
<path fill="none" stroke="midnightblue" d="M1372.98,-112.444C1401.69,-102.932 1448.06,-87.5697 1478.83,-77.3787"/>
<polygon fill="midnightblue" stroke="midnightblue" points="1480.22,-80.6041 1488.61,-74.1368 1478.02,-73.9593 1480.22,-80.6041"/>
</g>
<!-- Node21 -->
<g id="node21" class="node"><title>Node21</title>
<polygon fill="none" stroke="#bfbfbf" points="1549.65,-56.5 1549.65,-75.5 1590.65,-75.5 1590.65,-56.5 1549.65,-56.5"/>
<text text-anchor="middle" x="1570.15" y="-63.5" font-family="Helvetica,sans-Serif" font-size="10.00">bitset</text>
</g>
<!-- Node7&#45;&gt;Node21 -->
<g id="edge21" class="edge"><title>Node7&#45;&gt;Node21</title>
<path fill="none" stroke="midnightblue" d="M1386.88,-112.497C1423.97,-104.391 1481.04,-91.485 1539.73,-75.9802"/>
<polygon fill="midnightblue" stroke="midnightblue" points="1540.78,-79.3223 1549.55,-73.3669 1538.98,-72.558 1540.78,-79.3223"/>
</g>
<!-- Node22 -->
<g id="node22" class="node"><title>Node22</title>
<polygon fill="none" stroke="#bfbfbf" points="1609.15,-56.5 1609.15,-75.5 1665.15,-75.5 1665.15,-56.5 1609.15,-56.5"/>
<text text-anchor="middle" x="1637.15" y="-63.5" font-family="Helvetica,sans-Serif" font-size="10.00">algorithm</text>
</g>
<!-- Node7&#45;&gt;Node22 -->
<g id="edge22" class="edge"><title>Node7&#45;&gt;Node22</title>
<path fill="none" stroke="midnightblue" d="M1396.56,-113.015C1447.49,-104.59 1529.1,-90.5399 1599.15,-76 1599.25,-75.9793 1599.35,-75.9586 1599.45,-75.9378"/>
<polygon fill="midnightblue" stroke="midnightblue" points="1599.95,-79.4123 1608.97,-73.8598 1598.46,-72.5734 1599.95,-79.4123"/>
</g>
<!-- Node23 -->
<g id="node23" class="node"><title>Node23</title>
<polygon fill="none" stroke="#bfbfbf" points="1683.65,-56.5 1683.65,-75.5 1742.65,-75.5 1742.65,-56.5 1683.65,-56.5"/>
<text text-anchor="middle" x="1713.15" y="-63.5" font-family="Helvetica,sans-Serif" font-size="10.00">functional</text>
</g>
<!-- Node7&#45;&gt;Node23 -->
<g id="edge23" class="edge"><title>Node7&#45;&gt;Node23</title>
<path fill="none" stroke="midnightblue" d="M1396.4,-115.624C1458.59,-108.525 1569.05,-94.8865 1673.33,-76.0006"/>
<polygon fill="midnightblue" stroke="midnightblue" points="1674.2,-79.4006 1683.4,-74.1566 1672.93,-72.5151 1674.2,-79.4006"/>
</g>
<!-- Node24 -->
<g id="node24" class="node"><title>Node24</title>
<polygon fill="none" stroke="#bfbfbf" points="1761.15,-56.5 1761.15,-75.5 1801.15,-75.5 1801.15,-56.5 1761.15,-56.5"/>
<text text-anchor="middle" x="1781.15" y="-63.5" font-family="Helvetica,sans-Serif" font-size="10.00">limits</text>
</g>
<!-- Node7&#45;&gt;Node24 -->
<g id="edge24" class="edge"><title>Node7&#45;&gt;Node24</title>
<path fill="none" stroke="midnightblue" d="M1396.42,-118.386C1472.96,-113.682 1624.78,-101.773 1751.15,-76 1751.25,-75.9796 1751.35,-75.9591 1751.45,-75.9383"/>
<polygon fill="midnightblue" stroke="midnightblue" points="1752.07,-79.3905 1760.95,-73.602 1750.4,-72.5933 1752.07,-79.3905"/>
</g>
<!-- Node25 -->
<g id="node25" class="node"><title>Node25</title>
<polygon fill="none" stroke="#bfbfbf" points="1819.15,-56.5 1819.15,-75.5 1869.15,-75.5 1869.15,-56.5 1819.15,-56.5"/>
<text text-anchor="middle" x="1844.15" y="-63.5" font-family="Helvetica,sans-Serif" font-size="10.00">fstream</text>
</g>
<!-- Node7&#45;&gt;Node25 -->
<g id="edge25" class="edge"><title>Node7&#45;&gt;Node25</title>
<path fill="none" stroke="midnightblue" d="M1396.17,-118.847C1479.24,-114.63 1653.04,-103.356 1808.77,-75.9699"/>
<polygon fill="midnightblue" stroke="midnightblue" points="1809.78,-79.3465 1819,-74.1426 1808.55,-72.4555 1809.78,-79.3465"/>
</g>
<!-- Node26 -->
<g id="node26" class="node"><title>Node26</title>
<polygon fill="none" stroke="#bfbfbf" points="1887.65,-56.5 1887.65,-75.5 1932.65,-75.5 1932.65,-56.5 1887.65,-56.5"/>
<text text-anchor="middle" x="1910.15" y="-63.5" font-family="Helvetica,sans-Serif" font-size="10.00">iosfwd</text>
</g>
<!-- Node7&#45;&gt;Node26 -->
<g id="edge26" class="edge"><title>Node7&#45;&gt;Node26</title>
<path fill="none" stroke="midnightblue" d="M1396.25,-119.942C1488.72,-117.28 1695.06,-108.151 1877.51,-75.7418"/>
<polygon fill="midnightblue" stroke="midnightblue" points="1878.33,-79.1493 1887.55,-73.9291 1877.09,-72.2606 1878.33,-79.1493"/>
</g>
<!-- Node27 -->
<g id="node27" class="node"><title>Node27</title>
<polygon fill="none" stroke="#bfbfbf" points="1951.15,-56.5 1951.15,-75.5 2003.15,-75.5 2003.15,-56.5 1951.15,-56.5"/>
<text text-anchor="middle" x="1977.15" y="-63.5" font-family="Helvetica,sans-Serif" font-size="10.00">sstream</text>
</g>
<!-- Node7&#45;&gt;Node27 -->
<g id="edge27" class="edge"><title>Node7&#45;&gt;Node27</title>
<path fill="none" stroke="midnightblue" d="M1396.38,-120.084C1496.9,-117.608 1733.02,-108.689 1940.73,-75.7435"/>
<polygon fill="midnightblue" stroke="midnightblue" points="1941.6,-79.1495 1950.91,-74.1054 1940.49,-72.2384 1941.6,-79.1495"/>
</g>
<!-- Node28 -->
<g id="node28" class="node"><title>Node28</title>
<polygon fill="none" stroke="#bfbfbf" points="2021.15,-56.5 2021.15,-75.5 2089.15,-75.5 2089.15,-56.5 2021.15,-56.5"/>
<text text-anchor="middle" x="2055.15" y="-63.5" font-family="Helvetica,sans-Serif" font-size="10.00">sys/types.h</text>
</g>
<!-- Node7&#45;&gt;Node28 -->
<g id="edge28" class="edge"><title>Node7&#45;&gt;Node28</title>
<path fill="none" stroke="midnightblue" d="M1396.2,-120.007C1505.1,-117.303 1775.38,-107.828 2010.84,-75.9891"/>
<polygon fill="midnightblue" stroke="midnightblue" points="2011.53,-79.4272 2020.96,-74.6032 2010.58,-72.4919 2011.53,-79.4272"/>
</g>
<!-- Node29 -->
<g id="node29" class="node"><title>Node29</title>
<polygon fill="none" stroke="#bfbfbf" points="2107.15,-56.5 2107.15,-75.5 2167.15,-75.5 2167.15,-56.5 2107.15,-56.5"/>
<text text-anchor="middle" x="2137.15" y="-63.5" font-family="Helvetica,sans-Serif" font-size="10.00">sys/stat.h</text>
</g>
<!-- Node7&#45;&gt;Node29 -->
<g id="edge29" class="edge"><title>Node7&#45;&gt;Node29</title>
<path fill="none" stroke="midnightblue" d="M1396.2,-120.885C1515.01,-120.003 1827.64,-114.066 2097.05,-75.9083"/>
<polygon fill="midnightblue" stroke="midnightblue" points="2097.61,-79.3631 2107.01,-74.4789 2096.62,-72.434 2097.61,-79.3631"/>
</g>
<!-- Node30 -->
<g id="node30" class="node"><title>Node30</title>
<polygon fill="none" stroke="#bfbfbf" points="2185.65,-56.5 2185.65,-75.5 2236.65,-75.5 2236.65,-56.5 2185.65,-56.5"/>
<text text-anchor="middle" x="2211.15" y="-63.5" font-family="Helvetica,sans-Serif" font-size="10.00">unistd.h</text>
</g>
<!-- Node7&#45;&gt;Node30 -->
<g id="edge30" class="edge"><title>Node7&#45;&gt;Node30</title>
<path fill="none" stroke="midnightblue" d="M1396.56,-121.702C1524.15,-122.794 1875.06,-121.221 2175.08,-75.8246"/>
<polygon fill="midnightblue" stroke="midnightblue" points="2175.92,-79.2355 2185.28,-74.2607 2174.86,-72.3163 2175.92,-79.2355"/>
</g>
<!-- Node31 -->
<g id="node31" class="node"><title>Node31</title>
<polygon fill="none" stroke="#bfbfbf" points="2255.15,-56.5 2255.15,-75.5 2301.15,-75.5 2301.15,-56.5 2255.15,-56.5"/>
<text text-anchor="middle" x="2278.15" y="-63.5" font-family="Helvetica,sans-Serif" font-size="10.00">dlfcn.h</text>
</g>
<!-- Node7&#45;&gt;Node31 -->
<g id="edge31" class="edge"><title>Node7&#45;&gt;Node31</title>
<path fill="none" stroke="midnightblue" d="M1396.41,-119.934C1556.27,-116.259 2060.36,-102.922 2244.74,-75.5894"/>
<polygon fill="midnightblue" stroke="midnightblue" points="2245.51,-79.013 2254.85,-74.0242 2244.44,-72.0954 2245.51,-79.013"/>
</g>
<!-- Node32 -->
<g id="node32" class="node"><title>Node32</title>
<polygon fill="none" stroke="#bfbfbf" points="169.154,-56.5 169.154,-75.5 247.154,-75.5 247.154,-56.5 169.154,-56.5"/>
<text text-anchor="middle" x="208.154" y="-63.5" font-family="Helvetica,sans-Serif" font-size="10.00">ext/hash_map</text>
</g>
<!-- Node7&#45;&gt;Node32 -->
<g id="edge32" class="edge"><title>Node7&#45;&gt;Node32</title>
<path fill="none" stroke="midnightblue" d="M1298.06,-119.393C1104.59,-113.003 398.934,-89.1577 257.597,-75.8852"/>
<polygon fill="midnightblue" stroke="midnightblue" points="257.684,-72.3757 247.377,-74.8307 256.965,-79.3387 257.684,-72.3757"/>
</g>
<!-- Node33 -->
<g id="node33" class="node"><title>Node33</title>
<polygon fill="none" stroke="#bfbfbf" points="265.654,-56.5 265.654,-75.5 338.654,-75.5 338.654,-56.5 265.654,-56.5"/>
<text text-anchor="middle" x="302.154" y="-63.5" font-family="Helvetica,sans-Serif" font-size="10.00">ext/hash_set</text>
</g>
<!-- Node7&#45;&gt;Node33 -->
<g id="edge33" class="edge"><title>Node7&#45;&gt;Node33</title>
<path fill="none" stroke="midnightblue" d="M1297.93,-119.78C1126.28,-115.372 553.879,-99.3515 348.977,-76.0153"/>
<polygon fill="midnightblue" stroke="midnightblue" points="349.259,-72.5243 338.917,-74.8271 348.438,-79.476 349.259,-72.5243"/>
</g>
<!-- Node34 -->
<g id="node34" class="node"><title>Node34</title>
<polygon fill="none" stroke="#bfbfbf" points="356.654,-56.5 356.654,-75.5 427.654,-75.5 427.654,-56.5 356.654,-56.5"/>
<text text-anchor="middle" x="392.154" y="-63.5" font-family="Helvetica,sans-Serif" font-size="10.00">sys/param.h</text>
</g>
<!-- Node7&#45;&gt;Node34 -->
<g id="edge34" class="edge"><title>Node7&#45;&gt;Node34</title>
<path fill="none" stroke="midnightblue" d="M1297.88,-119.526C1136.64,-114.556 624.95,-97.5718 437.927,-75.8566"/>
<polygon fill="midnightblue" stroke="midnightblue" points="438.285,-72.3745 427.938,-74.6532 437.447,-79.3242 438.285,-72.3745"/>
</g>
<!-- Node35 -->
<g id="node35" class="node"><title>Node35</title>
<polygon fill="none" stroke="#bfbfbf" points="446.154,-56.5 446.154,-75.5 612.154,-75.5 612.154,-56.5 446.154,-56.5"/>
<text text-anchor="middle" x="529.154" y="-63.5" font-family="Helvetica,sans-Serif" font-size="10.00">CoreFoundation/CoreFoundation.h</text>
</g>
<!-- Node7&#45;&gt;Node35 -->
<g id="edge35" class="edge"><title>Node7&#45;&gt;Node35</title>
<path fill="none" stroke="midnightblue" d="M1297.82,-118.549C1181.94,-112.663 883.151,-96.7235 622.425,-76.0752"/>
<polygon fill="midnightblue" stroke="midnightblue" points="622.633,-72.5808 612.387,-75.2764 622.078,-79.5587 622.633,-72.5808"/>
</g>
<!-- Node36 -->
<g id="node36" class="node"><title>Node36</title>
<polygon fill="none" stroke="#bfbfbf" points="630.154,-56.5 630.154,-75.5 754.154,-75.5 754.154,-56.5 630.154,-56.5"/>
<text text-anchor="middle" x="692.154" y="-63.5" font-family="Helvetica,sans-Serif" font-size="10.00">emscripten/emscripten.h</text>
</g>
<!-- Node7&#45;&gt;Node36 -->
<g id="edge36" class="edge"><title>Node7&#45;&gt;Node36</title>
<path fill="none" stroke="midnightblue" d="M1297.77,-118.056C1198.58,-111.958 967.847,-96.8384 764.324,-76.1831"/>
<polygon fill="midnightblue" stroke="midnightblue" points="764.652,-72.6984 754.348,-75.1638 763.94,-79.6622 764.652,-72.6984"/>
</g>
<!-- Node37&#45;&gt;Node1 -->
<g id="edge43" class="edge"><title>Node37&#45;&gt;Node1</title>
<path fill="none" stroke="midnightblue" d="M2402.48,-131.535C2303.12,-151.407 2056.51,-200.728 1947.92,-222.446"/>
<polygon fill="midnightblue" stroke="midnightblue" points="1946.97,-219.067 1937.85,-224.46 1948.35,-225.931 1946.97,-219.067"/>
</g>
<!-- Node38 -->
<g id="node38" class="node"><title>Node38</title>
<g id="a_node38"><a xlink:href="_ogre_memory_allocated_object_8h.html" target="_top" xlink:title="OgreMemoryAllocatedObject.h">
<polygon fill="none" stroke="black" points="2319.15,-56.5 2319.15,-75.5 2469.15,-75.5 2469.15,-56.5 2319.15,-56.5"/>
<text text-anchor="middle" x="2394.15" y="-63.5" font-family="Helvetica,sans-Serif" font-size="10.00">OgreMemoryAllocatedObject.h</text>
</a>
</g>
</g>
<!-- Node37&#45;&gt;Node38 -->
<g id="edge38" class="edge"><title>Node37&#45;&gt;Node38</title>
<path fill="none" stroke="midnightblue" d="M2436.73,-112.083C2429.31,-104.22 2418.3,-92.5688 2409.34,-83.0813"/>
<polygon fill="midnightblue" stroke="midnightblue" points="2411.83,-80.618 2402.42,-75.7511 2406.74,-85.4244 2411.83,-80.618"/>
</g>
<!-- Node37&#45;&gt;Node39 -->
<g id="edge42" class="edge"><title>Node37&#45;&gt;Node39</title>
<path fill="none" stroke="midnightblue" d="M2519.32,-115.799C2576.1,-110.09 2647.73,-98.5532 2666.15,-76 2677.98,-61.5227 2665.86,-41.2956 2654.08,-27.2662"/>
<polygon fill="midnightblue" stroke="midnightblue" points="2656.66,-24.9005 2647.37,-19.8124 2651.46,-29.5853 2656.66,-24.9005"/>
</g>
<!-- Node37&#45;&gt;Node40 -->
<g id="edge47" class="edge"><title>Node37&#45;&gt;Node40</title>
<path fill="none" stroke="midnightblue" d="M2454.17,-112.34C2462.23,-103.932 2473.45,-90.3633 2478.15,-76 2483.84,-58.6351 2472.62,-40.1829 2461.75,-27.3928"/>
<polygon fill="midnightblue" stroke="midnightblue" points="2464.18,-24.8689 2454.84,-19.8739 2459.03,-29.6054 2464.18,-24.8689"/>
</g>
<!-- Node41 -->
<g id="node41" class="node"><title>Node41</title>
<g id="a_node41"><a xlink:href="_ogre_memory_ned_pooling_8h.html" target="_top" xlink:title="OgreMemoryNedPooling.h">
<polygon fill="none" stroke="black" points="2525.65,-56.5 2525.65,-75.5 2656.65,-75.5 2656.65,-56.5 2525.65,-56.5"/>
<text text-anchor="middle" x="2591.15" y="-63.5" font-family="Helvetica,sans-Serif" font-size="10.00">OgreMemoryNedPooling.h</text>
</a>
</g>
</g>
<!-- Node37&#45;&gt;Node41 -->
<g id="edge44" class="edge"><title>Node37&#45;&gt;Node41</title>
<path fill="none" stroke="midnightblue" d="M2468.29,-112.444C2492.64,-103.438 2531.16,-89.1891 2558.58,-79.049"/>
<polygon fill="midnightblue" stroke="midnightblue" points="2559.96,-82.2681 2568.13,-75.5164 2557.54,-75.7028 2559.96,-82.2681"/>
</g>
<!-- Node38&#45;&gt;Node2 -->
<g id="edge39" class="edge"><title>Node38&#45;&gt;Node2</title>
<path fill="none" stroke="midnightblue" d="M2333.68,-75.5286C2188.7,-95.9738 1822.55,-147.611 1676.1,-168.265"/>
<polygon fill="midnightblue" stroke="midnightblue" points="1675.35,-164.835 1665.94,-169.697 1676.33,-171.767 1675.35,-164.835"/>
</g>
<!-- Node38&#45;&gt;Node39 -->
<g id="edge40" class="edge"><title>Node38&#45;&gt;Node39</title>
<path fill="none" stroke="midnightblue" d="M2432.82,-56.4435C2475.29,-47.0431 2543.59,-31.9291 2589.63,-21.7393"/>
<polygon fill="midnightblue" stroke="midnightblue" points="2590.67,-25.0946 2599.67,-19.5164 2589.15,-18.26 2590.67,-25.0946"/>
</g>
<!-- Node38&#45;&gt;Node40 -->
<g id="edge41" class="edge"><title>Node38&#45;&gt;Node40</title>
<path fill="none" stroke="midnightblue" d="M2402.58,-56.083C2410,-48.2195 2421.01,-36.5688 2429.97,-27.0813"/>
<polygon fill="midnightblue" stroke="midnightblue" points="2432.57,-29.4244 2436.89,-19.7511 2427.48,-24.618 2432.57,-29.4244"/>
</g>
<!-- Node41&#45;&gt;Node39 -->
<g id="edge45" class="edge"><title>Node41&#45;&gt;Node39</title>
<path fill="none" stroke="midnightblue" d="M2598.92,-56.083C2605.69,-48.2982 2615.7,-36.8015 2623.91,-27.3665"/>
<polygon fill="midnightblue" stroke="midnightblue" points="2626.61,-29.592 2630.54,-19.7511 2621.33,-24.9963 2626.61,-29.592"/>
</g>
<!-- Node41&#45;&gt;Node40 -->
<g id="edge46" class="edge"><title>Node41&#45;&gt;Node40</title>
<path fill="none" stroke="midnightblue" d="M2568.02,-56.4435C2543.67,-47.4381 2505.15,-33.1891 2477.73,-23.049"/>
<polygon fill="midnightblue" stroke="midnightblue" points="2478.77,-19.7028 2468.18,-19.5164 2476.35,-26.2681 2478.77,-19.7028"/>
</g>
</g>
</svg>
