<?xml version="1.0" encoding="UTF-8" standalone="no"?>
<!DOCTYPE svg PUBLIC "-//W3C//DTD SVG 1.1//EN"
 "http://www.w3.org/Graphics/SVG/1.1/DTD/svg11.dtd">
<!-- Generated by graphviz version 2.38.0 (20140413.2041)
 -->
<!-- Title: OgreEAGLSupport.h Pages: 1 -->
<svg width="945pt" height="420pt"
 viewBox="0.00 0.00 944.96 420.00" xmlns="http://www.w3.org/2000/svg" xmlns:xlink="http://www.w3.org/1999/xlink">
<g id="graph0" class="graph" transform="scale(1 1) rotate(0) translate(4 416)">
<title>OgreEAGLSupport.h</title>
<!-- Node1 -->
<g id="node1" class="node"><title>Node1</title>
<polygon fill="#bfbfbf" stroke="black" points="436.464,-392.5 436.464,-411.5 542.464,-411.5 542.464,-392.5 436.464,-392.5"/>
<text text-anchor="middle" x="489.464" y="-399.5" font-family="Helvetica,sans-Serif" font-size="10.00">OgreEAGLSupport.h</text>
</g>
<!-- Node2 -->
<g id="node2" class="node"><title>Node2</title>
<g id="a_node2"><a xlink:href="_ogre_g_l_e_s_support_8h.html" target="_top" xlink:title="OgreGLESSupport.h">
<polygon fill="none" stroke="black" points="436.464,-336.5 436.464,-355.5 542.464,-355.5 542.464,-336.5 436.464,-336.5"/>
<text text-anchor="middle" x="489.464" y="-343.5" font-family="Helvetica,sans-Serif" font-size="10.00">OgreGLESSupport.h</text>
</a>
</g>
</g>
<!-- Node1&#45;&gt;Node2 -->
<g id="edge1" class="edge"><title>Node1&#45;&gt;Node2</title>
<path fill="none" stroke="midnightblue" d="M489.464,-392.083C489.464,-385.006 489.464,-374.861 489.464,-365.986"/>
<polygon fill="midnightblue" stroke="midnightblue" points="492.964,-365.751 489.464,-355.751 485.964,-365.751 492.964,-365.751"/>
</g>
<!-- Node3 -->
<g id="node3" class="node"><title>Node3</title>
<g id="a_node3"><a xlink:href="_ogre_g_l_e_s_prerequisites_8h.html" target="_top" xlink:title="OgreGLESPrerequisites.h">
<polygon fill="none" stroke="black" points="424.964,-280.5 424.964,-299.5 553.964,-299.5 553.964,-280.5 424.964,-280.5"/>
<text text-anchor="middle" x="489.464" y="-287.5" font-family="Helvetica,sans-Serif" font-size="10.00">OgreGLESPrerequisites.h</text>
</a>
</g>
</g>
<!-- Node2&#45;&gt;Node3 -->
<g id="edge2" class="edge"><title>Node2&#45;&gt;Node3</title>
<path fill="none" stroke="midnightblue" d="M489.464,-336.083C489.464,-329.006 489.464,-318.861 489.464,-309.986"/>
<polygon fill="midnightblue" stroke="midnightblue" points="492.964,-309.751 489.464,-299.751 485.964,-309.751 492.964,-309.751"/>
</g>
<!-- Node17 -->
<g id="node17" class="node"><title>Node17</title>
<g id="a_node17"><a xlink:href="_ogre_render_window_8h.html" target="_top" xlink:title="OgreRenderWindow.h">
<polygon fill="none" stroke="black" points="256.964,-280.5 256.964,-299.5 369.964,-299.5 369.964,-280.5 256.964,-280.5"/>
<text text-anchor="middle" x="313.464" y="-287.5" font-family="Helvetica,sans-Serif" font-size="10.00">OgreRenderWindow.h</text>
</a>
</g>
</g>
<!-- Node2&#45;&gt;Node17 -->
<g id="edge27" class="edge"><title>Node2&#45;&gt;Node17</title>
<path fill="none" stroke="midnightblue" d="M461.577,-336.444C431.711,-327.28 384.15,-312.688 351.008,-302.519"/>
<polygon fill="midnightblue" stroke="midnightblue" points="351.808,-299.104 341.222,-299.516 349.755,-305.796 351.808,-299.104"/>
</g>
<!-- Node20 -->
<g id="node20" class="node"><title>Node20</title>
<g id="a_node20"><a xlink:href="_ogre_config_option_map_8h.html" target="_top" xlink:title="OgreConfigOptionMap.h">
<polygon fill="none" stroke="black" points="630.464,-280.5 630.464,-299.5 752.464,-299.5 752.464,-280.5 630.464,-280.5"/>
<text text-anchor="middle" x="691.464" y="-287.5" font-family="Helvetica,sans-Serif" font-size="10.00">OgreConfigOptionMap.h</text>
</a>
</g>
</g>
<!-- Node2&#45;&gt;Node20 -->
<g id="edge37" class="edge"><title>Node2&#45;&gt;Node20</title>
<path fill="none" stroke="midnightblue" d="M521.472,-336.444C556.193,-327.162 611.752,-312.309 649.841,-302.127"/>
<polygon fill="midnightblue" stroke="midnightblue" points="650.85,-305.48 659.607,-299.516 649.042,-298.718 650.85,-305.48"/>
</g>
<!-- Node4 -->
<g id="node4" class="node"><title>Node4</title>
<g id="a_node4"><a xlink:href="_ogre_prerequisites_8h.html" target="_top" xlink:title="OgrePrerequisites.h">
<polygon fill="none" stroke="black" points="539.964,-112.5 539.964,-131.5 642.964,-131.5 642.964,-112.5 539.964,-112.5"/>
<text text-anchor="middle" x="591.464" y="-119.5" font-family="Helvetica,sans-Serif" font-size="10.00">OgrePrerequisites.h</text>
</a>
</g>
</g>
<!-- Node3&#45;&gt;Node4 -->
<g id="edge3" class="edge"><title>Node3&#45;&gt;Node4</title>
<path fill="none" stroke="midnightblue" d="M554.296,-285.511C583.403,-280.31 615.235,-268.796 633.464,-244 640.939,-233.833 642.019,-201.108 628.464,-168 623.981,-157.049 615.867,-146.708 608.378,-138.707"/>
<polygon fill="midnightblue" stroke="midnightblue" points="610.789,-136.169 601.254,-131.551 605.828,-141.107 610.789,-136.169"/>
</g>
<!-- Node11 -->
<g id="node11" class="node"><title>Node11</title>
<g id="a_node11"><a xlink:href="_ogre_log_manager_8h.html" target="_top" xlink:title="OgreLogManager.h">
<polygon fill="none" stroke="black" points="185.964,-224.5 185.964,-243.5 284.964,-243.5 284.964,-224.5 185.964,-224.5"/>
<text text-anchor="middle" x="235.464" y="-231.5" font-family="Helvetica,sans-Serif" font-size="10.00">OgreLogManager.h</text>
</a>
</g>
</g>
<!-- Node3&#45;&gt;Node11 -->
<g id="edge11" class="edge"><title>Node3&#45;&gt;Node11</title>
<path fill="none" stroke="midnightblue" d="M449.217,-280.444C404.815,-271.004 333.311,-255.802 285.376,-245.611"/>
<polygon fill="midnightblue" stroke="midnightblue" points="286.032,-242.173 275.523,-243.516 284.577,-249.02 286.032,-242.173"/>
</g>
<!-- Node14 -->
<g id="node14" class="node"><title>Node14</title>
<g id="a_node14"><a xlink:href="_ogre_math_8h.html" target="_top" xlink:title="OgreMath.h">
<polygon fill="none" stroke="black" points="338.464,-168.5 338.464,-187.5 406.464,-187.5 406.464,-168.5 338.464,-168.5"/>
<text text-anchor="middle" x="372.464" y="-175.5" font-family="Helvetica,sans-Serif" font-size="10.00">OgreMath.h</text>
</a>
</g>
</g>
<!-- Node3&#45;&gt;Node14 -->
<g id="edge21" class="edge"><title>Node3&#45;&gt;Node14</title>
<path fill="none" stroke="midnightblue" d="M489.156,-280.353C488.233,-266.788 484.604,-240.372 470.464,-224 456.501,-207.832 435.514,-197.136 416.54,-190.247"/>
<polygon fill="midnightblue" stroke="midnightblue" points="417.443,-186.858 406.849,-186.983 415.209,-193.492 417.443,-186.858"/>
</g>
<!-- Node15 -->
<g id="node15" class="node"><title>Node15</title>
<polygon fill="none" stroke="#bfbfbf" points="517.964,-224.5 517.964,-243.5 624.964,-243.5 624.964,-224.5 517.964,-224.5"/>
<text text-anchor="middle" x="571.464" y="-231.5" font-family="Helvetica,sans-Serif" font-size="10.00">OpenGLES/ES1/gl.h</text>
</g>
<!-- Node3&#45;&gt;Node15 -->
<g id="edge25" class="edge"><title>Node3&#45;&gt;Node15</title>
<path fill="none" stroke="midnightblue" d="M502.639,-280.324C515.311,-271.979 534.698,-259.212 549.67,-249.352"/>
<polygon fill="midnightblue" stroke="midnightblue" points="551.895,-252.078 558.322,-243.655 548.046,-246.231 551.895,-252.078"/>
</g>
<!-- Node16 -->
<g id="node16" class="node"><title>Node16</title>
<polygon fill="none" stroke="#bfbfbf" points="341.464,-224.5 341.464,-243.5 461.464,-243.5 461.464,-224.5 341.464,-224.5"/>
<text text-anchor="middle" x="401.464" y="-231.5" font-family="Helvetica,sans-Serif" font-size="10.00">OpenGLES/ES1/glext.h</text>
</g>
<!-- Node3&#45;&gt;Node16 -->
<g id="edge26" class="edge"><title>Node3&#45;&gt;Node16</title>
<path fill="none" stroke="midnightblue" d="M475.326,-280.324C461.598,-271.9 440.528,-258.971 424.4,-249.074"/>
<polygon fill="midnightblue" stroke="midnightblue" points="425.922,-245.902 415.568,-243.655 422.261,-251.868 425.922,-245.902"/>
</g>
<!-- Node5 -->
<g id="node5" class="node"><title>Node5</title>
<g id="a_node5"><a xlink:href="_ogre_platform_8h.html" target="_top" xlink:title="OgrePlatform.h">
<polygon fill="none" stroke="red" points="549.964,-56.5 549.964,-75.5 632.964,-75.5 632.964,-56.5 549.964,-56.5"/>
<text text-anchor="middle" x="591.464" y="-63.5" font-family="Helvetica,sans-Serif" font-size="10.00">OgrePlatform.h</text>
</a>
</g>
</g>
<!-- Node4&#45;&gt;Node5 -->
<g id="edge4" class="edge"><title>Node4&#45;&gt;Node5</title>
<path fill="none" stroke="midnightblue" d="M591.464,-112.083C591.464,-105.006 591.464,-94.8611 591.464,-85.9865"/>
<polygon fill="midnightblue" stroke="midnightblue" points="594.964,-85.751 591.464,-75.7511 587.964,-85.7511 594.964,-85.751"/>
</g>
<!-- Node6 -->
<g id="node6" class="node"><title>Node6</title>
<polygon fill="none" stroke="#bfbfbf" points="803.964,-0.5 803.964,-19.5 844.964,-19.5 844.964,-0.5 803.964,-0.5"/>
<text text-anchor="middle" x="824.464" y="-7.5" font-family="Helvetica,sans-Serif" font-size="10.00">string</text>
</g>
<!-- Node4&#45;&gt;Node6 -->
<g id="edge5" class="edge"><title>Node4&#45;&gt;Node6</title>
<path fill="none" stroke="midnightblue" d="M643.04,-119.365C709.437,-116.049 819.287,-106.051 844.464,-76 855.909,-62.3398 846.906,-42.1919 837.588,-27.9553"/>
<polygon fill="midnightblue" stroke="midnightblue" points="840.28,-25.7011 831.631,-19.581 834.576,-29.7585 840.28,-25.7011"/>
</g>
<!-- Node7 -->
<g id="node7" class="node"><title>Node7</title>
<g id="a_node7"><a xlink:href="_ogre_std_headers_8h.html" target="_top" xlink:title="OgreStdHeaders.h">
<polygon fill="none" stroke="red" points="737.464,-56.5 737.464,-75.5 835.464,-75.5 835.464,-56.5 737.464,-56.5"/>
<text text-anchor="middle" x="786.464" y="-63.5" font-family="Helvetica,sans-Serif" font-size="10.00">OgreStdHeaders.h</text>
</a>
</g>
</g>
<!-- Node4&#45;&gt;Node7 -->
<g id="edge6" class="edge"><title>Node4&#45;&gt;Node7</title>
<path fill="none" stroke="midnightblue" d="M622.363,-112.444C655.738,-103.201 709.058,-88.4356 745.813,-78.2572"/>
<polygon fill="midnightblue" stroke="midnightblue" points="747.007,-81.5583 755.71,-75.5164 745.139,-74.8122 747.007,-81.5583"/>
</g>
<!-- Node8 -->
<g id="node8" class="node"><title>Node8</title>
<g id="a_node8"><a xlink:href="_ogre_memory_allocator_config_8h.html" target="_top" xlink:title="This file configures Ogre&#39;s memory allocators. ">
<polygon fill="none" stroke="red" points="335.464,-56.5 335.464,-75.5 483.464,-75.5 483.464,-56.5 335.464,-56.5"/>
<text text-anchor="middle" x="409.464" y="-63.5" font-family="Helvetica,sans-Serif" font-size="10.00">OgreMemoryAllocatorConfig.h</text>
</a>
</g>
</g>
<!-- Node4&#45;&gt;Node8 -->
<g id="edge8" class="edge"><title>Node4&#45;&gt;Node8</title>
<path fill="none" stroke="midnightblue" d="M562.626,-112.444C531.609,-103.241 482.135,-88.5617 447.846,-78.3879"/>
<polygon fill="midnightblue" stroke="midnightblue" points="448.75,-75.0055 438.168,-75.5164 446.759,-81.7164 448.75,-75.0055"/>
</g>
<!-- Node7&#45;&gt;Node6 -->
<g id="edge7" class="edge"><title>Node7&#45;&gt;Node6</title>
<path fill="none" stroke="midnightblue" d="M792.739,-56.083C798.107,-48.4554 805.982,-37.2645 812.543,-27.9408"/>
<polygon fill="midnightblue" stroke="midnightblue" points="815.413,-29.9434 818.306,-19.7511 809.689,-25.9149 815.413,-29.9434"/>
</g>
<!-- Node9 -->
<g id="node9" class="node"><title>Node9</title>
<g id="a_node9"><a xlink:href="_ogre_header_prefix_8h.html" target="_top" xlink:title="OgreHeaderPrefix.h">
<polygon fill="none" stroke="black" points="255.964,-0.5 255.964,-19.5 358.964,-19.5 358.964,-0.5 255.964,-0.5"/>
<text text-anchor="middle" x="307.464" y="-7.5" font-family="Helvetica,sans-Serif" font-size="10.00">OgreHeaderPrefix.h</text>
</a>
</g>
</g>
<!-- Node8&#45;&gt;Node9 -->
<g id="edge9" class="edge"><title>Node8&#45;&gt;Node9</title>
<path fill="none" stroke="midnightblue" d="M393.076,-56.324C376.793,-47.7034 351.597,-34.3643 332.748,-24.3855"/>
<polygon fill="midnightblue" stroke="midnightblue" points="334.287,-21.2402 323.812,-19.6545 331.012,-27.4267 334.287,-21.2402"/>
</g>
<!-- Node10 -->
<g id="node10" class="node"><title>Node10</title>
<g id="a_node10"><a xlink:href="_ogre_header_suffix_8h.html" target="_top" xlink:title="OgreHeaderSuffix.h">
<polygon fill="none" stroke="black" points="102.964,-0.5 102.964,-19.5 205.964,-19.5 205.964,-0.5 102.964,-0.5"/>
<text text-anchor="middle" x="154.464" y="-7.5" font-family="Helvetica,sans-Serif" font-size="10.00">OgreHeaderSuffix.h</text>
</a>
</g>
</g>
<!-- Node8&#45;&gt;Node10 -->
<g id="edge10" class="edge"><title>Node8&#45;&gt;Node10</title>
<path fill="none" stroke="midnightblue" d="M369.059,-56.4435C324.481,-47.0036 252.696,-31.802 204.572,-21.6111"/>
<polygon fill="midnightblue" stroke="midnightblue" points="205.189,-18.1641 194.681,-19.5164 203.739,-25.0123 205.189,-18.1641"/>
</g>
<!-- Node11&#45;&gt;Node4 -->
<g id="edge12" class="edge"><title>Node11&#45;&gt;Node4</title>
<path fill="none" stroke="midnightblue" d="M285.078,-226.018C289.939,-225.335 294.797,-224.654 299.464,-224 356.793,-215.969 510.14,-221.34 557.464,-188 573.047,-177.022 582.03,-156.662 586.805,-141.643"/>
<polygon fill="midnightblue" stroke="midnightblue" points="590.218,-142.437 589.572,-131.862 583.482,-140.532 590.218,-142.437"/>
</g>
<!-- Node11&#45;&gt;Node9 -->
<g id="edge19" class="edge"><title>Node11&#45;&gt;Node9</title>
<path fill="none" stroke="midnightblue" d="M252.299,-224.417C265.39,-216.768 282.744,-204.269 291.464,-188 319.106,-136.428 314.575,-64.1328 310.368,-30.1179"/>
<polygon fill="midnightblue" stroke="midnightblue" points="313.776,-29.2098 308.947,-19.7796 306.842,-30.163 313.776,-29.2098"/>
</g>
<!-- Node11&#45;&gt;Node10 -->
<g id="edge20" class="edge"><title>Node11&#45;&gt;Node10</title>
<path fill="none" stroke="midnightblue" d="M189.741,-224.448C139.777,-214.642 65.6891,-198.563 57.4643,-188 33.4997,-157.223 3.22033,-181.582 93.4643,-56 102.644,-43.2257 116.55,-32.57 128.768,-24.8393"/>
<polygon fill="midnightblue" stroke="midnightblue" points="130.89,-27.6483 137.675,-19.5112 127.297,-21.641 130.89,-27.6483"/>
</g>
<!-- Node12 -->
<g id="node12" class="node"><title>Node12</title>
<g id="a_node12"><a xlink:href="_ogre_log_8h.html" target="_top" xlink:title="OgreLog.h">
<polygon fill="none" stroke="red" points="220.464,-168.5 220.464,-187.5 282.464,-187.5 282.464,-168.5 220.464,-168.5"/>
<text text-anchor="middle" x="251.464" y="-175.5" font-family="Helvetica,sans-Serif" font-size="10.00">OgreLog.h</text>
</a>
</g>
</g>
<!-- Node11&#45;&gt;Node12 -->
<g id="edge13" class="edge"><title>Node11&#45;&gt;Node12</title>
<path fill="none" stroke="midnightblue" d="M238.106,-224.083C240.25,-216.849 243.343,-206.409 246.013,-197.397"/>
<polygon fill="midnightblue" stroke="midnightblue" points="249.386,-198.333 248.871,-187.751 242.675,-196.345 249.386,-198.333"/>
</g>
<!-- Node13 -->
<g id="node13" class="node"><title>Node13</title>
<g id="a_node13"><a xlink:href="_ogre_singleton_8h.html" target="_top" xlink:title="OgreSingleton.h">
<polygon fill="none" stroke="black" points="462.464,-168.5 462.464,-187.5 548.464,-187.5 548.464,-168.5 462.464,-168.5"/>
<text text-anchor="middle" x="505.464" y="-175.5" font-family="Helvetica,sans-Serif" font-size="10.00">OgreSingleton.h</text>
</a>
</g>
</g>
<!-- Node11&#45;&gt;Node13 -->
<g id="edge17" class="edge"><title>Node11&#45;&gt;Node13</title>
<path fill="none" stroke="midnightblue" d="M278.247,-224.444C325.644,-214.964 402.091,-199.675 453.047,-189.483"/>
<polygon fill="midnightblue" stroke="midnightblue" points="453.763,-192.91 462.882,-187.516 452.39,-186.046 453.763,-192.91"/>
</g>
<!-- Node12&#45;&gt;Node4 -->
<g id="edge14" class="edge"><title>Node12&#45;&gt;Node4</title>
<path fill="none" stroke="midnightblue" d="M282.538,-172.065C338.433,-163.187 456.885,-144.374 529.787,-132.796"/>
<polygon fill="midnightblue" stroke="midnightblue" points="530.433,-136.237 539.76,-131.212 529.335,-129.324 530.433,-136.237"/>
</g>
<!-- Node12&#45;&gt;Node9 -->
<g id="edge15" class="edge"><title>Node12&#45;&gt;Node9</title>
<path fill="none" stroke="midnightblue" d="M254.475,-168.075C263.328,-141.832 289.401,-64.5453 301.353,-29.1165"/>
<polygon fill="midnightblue" stroke="midnightblue" points="304.694,-30.1623 304.574,-19.5681 298.061,-27.9247 304.694,-30.1623"/>
</g>
<!-- Node12&#45;&gt;Node10 -->
<g id="edge16" class="edge"><title>Node12&#45;&gt;Node10</title>
<path fill="none" stroke="midnightblue" d="M244.285,-168.189C237.061,-159.227 225.697,-144.866 216.464,-132 199.072,-107.764 193.121,-102.521 179.464,-76 171.68,-60.8839 164.905,-42.7612 160.378,-29.4963"/>
<polygon fill="midnightblue" stroke="midnightblue" points="163.592,-28.0666 157.132,-19.669 156.945,-30.2622 163.592,-28.0666"/>
</g>
<!-- Node13&#45;&gt;Node4 -->
<g id="edge18" class="edge"><title>Node13&#45;&gt;Node4</title>
<path fill="none" stroke="midnightblue" d="M519.282,-168.324C532.697,-159.9 553.288,-146.971 569.05,-137.074"/>
<polygon fill="midnightblue" stroke="midnightblue" points="571.073,-139.936 577.681,-131.655 567.351,-134.008 571.073,-139.936"/>
</g>
<!-- Node14&#45;&gt;Node4 -->
<g id="edge22" class="edge"><title>Node14&#45;&gt;Node4</title>
<path fill="none" stroke="midnightblue" d="M406.683,-168.562C444.47,-159.245 505.437,-144.212 546.923,-133.983"/>
<polygon fill="midnightblue" stroke="midnightblue" points="547.892,-137.349 556.763,-131.556 546.216,-130.552 547.892,-137.349"/>
</g>
<!-- Node14&#45;&gt;Node9 -->
<g id="edge23" class="edge"><title>Node14&#45;&gt;Node9</title>
<path fill="none" stroke="midnightblue" d="M393.399,-168.417C436.618,-149.491 528.753,-102.174 492.464,-56 477.209,-36.5896 416.77,-24.5099 369.07,-17.8147"/>
<polygon fill="midnightblue" stroke="midnightblue" points="369.485,-14.339 359.106,-16.467 368.547,-21.2758 369.485,-14.339"/>
</g>
<!-- Node14&#45;&gt;Node10 -->
<g id="edge24" class="edge"><title>Node14&#45;&gt;Node10</title>
<path fill="none" stroke="midnightblue" d="M361.051,-168.309C325.734,-141.416 217.962,-59.3518 173.725,-25.6665"/>
<polygon fill="midnightblue" stroke="midnightblue" points="175.841,-22.8788 165.765,-19.6051 171.601,-28.448 175.841,-22.8788"/>
</g>
<!-- Node17&#45;&gt;Node4 -->
<g id="edge28" class="edge"><title>Node17&#45;&gt;Node4</title>
<path fill="none" stroke="midnightblue" d="M313.246,-280.295C313.406,-266.156 315.956,-238.342 332.464,-224 416.544,-150.955 500.789,-265.825 580.464,-188 592.6,-176.146 594.37,-156.23 593.71,-141.56"/>
<polygon fill="midnightblue" stroke="midnightblue" points="597.196,-141.253 592.863,-131.585 590.222,-141.846 597.196,-141.253"/>
</g>
<!-- Node18 -->
<g id="node18" class="node"><title>Node18</title>
<g id="a_node18"><a xlink:href="_ogre_render_target_8h.html" target="_top" xlink:title="OgreRenderTarget.h">
<polygon fill="none" stroke="black" points="62.9643,-224.5 62.9643,-243.5 167.964,-243.5 167.964,-224.5 62.9643,-224.5"/>
<text text-anchor="middle" x="115.464" y="-231.5" font-family="Helvetica,sans-Serif" font-size="10.00">OgreRenderTarget.h</text>
</a>
</g>
</g>
<!-- Node17&#45;&gt;Node18 -->
<g id="edge29" class="edge"><title>Node17&#45;&gt;Node18</title>
<path fill="none" stroke="midnightblue" d="M282.091,-280.444C248.202,-271.201 194.061,-256.436 156.741,-246.257"/>
<polygon fill="midnightblue" stroke="midnightblue" points="157.26,-242.771 146.691,-243.516 155.418,-249.524 157.26,-242.771"/>
</g>
<!-- Node18&#45;&gt;Node4 -->
<g id="edge30" class="edge"><title>Node18&#45;&gt;Node4</title>
<path fill="none" stroke="midnightblue" d="M168.119,-225.214C253.388,-212.591 412.536,-188.96 415.464,-188 433.6,-182.057 435.884,-175.429 453.464,-168 485.301,-154.545 522.636,-142.591 550.439,-134.391"/>
<polygon fill="midnightblue" stroke="midnightblue" points="551.599,-137.699 560.223,-131.544 549.644,-130.977 551.599,-137.699"/>
</g>
<!-- Node18&#45;&gt;Node9 -->
<g id="edge35" class="edge"><title>Node18&#45;&gt;Node9</title>
<path fill="none" stroke="midnightblue" d="M128.703,-224.239C141.009,-215.758 159.489,-202.142 173.464,-188 225.738,-135.103 275.337,-61.3921 296.597,-28.2937"/>
<polygon fill="midnightblue" stroke="midnightblue" points="299.625,-30.0543 302.039,-19.7383 293.719,-26.297 299.625,-30.0543"/>
</g>
<!-- Node18&#45;&gt;Node10 -->
<g id="edge36" class="edge"><title>Node18&#45;&gt;Node10</title>
<path fill="none" stroke="midnightblue" d="M77.4961,-224.411C58.0564,-217.883 36.0878,-206.715 24.4643,-188 -6.48848,-138.163 -9.56467,-103.789 24.4643,-56 40.1185,-34.0157 67.2821,-22.6716 92.7444,-16.8579"/>
<polygon fill="midnightblue" stroke="midnightblue" points="93.6601,-20.2435 102.763,-14.8231 92.2668,-13.3835 93.6601,-20.2435"/>
</g>
<!-- Node19 -->
<g id="node19" class="node"><title>Node19</title>
<g id="a_node19"><a xlink:href="_ogre_pixel_format_8h.html" target="_top" xlink:title="OgrePixelFormat.h">
<polygon fill="none" stroke="red" points="66.4643,-168.5 66.4643,-187.5 164.464,-187.5 164.464,-168.5 66.4643,-168.5"/>
<text text-anchor="middle" x="115.464" y="-175.5" font-family="Helvetica,sans-Serif" font-size="10.00">OgrePixelFormat.h</text>
</a>
</g>
</g>
<!-- Node18&#45;&gt;Node19 -->
<g id="edge31" class="edge"><title>Node18&#45;&gt;Node19</title>
<path fill="none" stroke="midnightblue" d="M115.464,-224.083C115.464,-217.006 115.464,-206.861 115.464,-197.986"/>
<polygon fill="midnightblue" stroke="midnightblue" points="118.964,-197.751 115.464,-187.751 111.964,-197.751 118.964,-197.751"/>
</g>
<!-- Node19&#45;&gt;Node4 -->
<g id="edge32" class="edge"><title>Node19&#45;&gt;Node4</title>
<path fill="none" stroke="midnightblue" d="M164.612,-171.424C251.93,-161.519 433.903,-140.875 529.598,-130.018"/>
<polygon fill="midnightblue" stroke="midnightblue" points="530.165,-133.477 539.707,-128.872 529.376,-126.521 530.165,-133.477"/>
</g>
<!-- Node19&#45;&gt;Node9 -->
<g id="edge33" class="edge"><title>Node19&#45;&gt;Node9</title>
<path fill="none" stroke="midnightblue" d="M120.929,-168.343C134.804,-146.923 173.428,-90.6746 217.464,-56 234.719,-42.4131 256.732,-31.3184 274.668,-23.5448"/>
<polygon fill="midnightblue" stroke="midnightblue" points="276.284,-26.6628 284.157,-19.5731 273.581,-20.2056 276.284,-26.6628"/>
</g>
<!-- Node19&#45;&gt;Node10 -->
<g id="edge34" class="edge"><title>Node19&#45;&gt;Node10</title>
<path fill="none" stroke="midnightblue" d="M111.605,-168.301C103.074,-147.712 84.7227,-94.8158 102.464,-56 108.242,-43.3602 119.517,-32.911 130.095,-25.2737"/>
<polygon fill="midnightblue" stroke="midnightblue" points="132.313,-28.0009 138.681,-19.5333 128.422,-22.1817 132.313,-28.0009"/>
</g>
<!-- Node20&#45;&gt;Node4 -->
<g id="edge38" class="edge"><title>Node20&#45;&gt;Node4</title>
<path fill="none" stroke="midnightblue" d="M692.02,-280.465C692.959,-259.323 692.707,-203.659 667.464,-168 657.29,-153.627 640.949,-143.093 626.022,-135.847"/>
<polygon fill="midnightblue" stroke="midnightblue" points="627.051,-132.472 616.496,-131.552 624.174,-138.853 627.051,-132.472"/>
</g>
<!-- Node21 -->
<g id="node21" class="node"><title>Node21</title>
<g id="a_node21"><a xlink:href="_ogre_string_vector_8h.html" target="_top" xlink:title="OgreStringVector.h">
<polygon fill="none" stroke="black" points="753.464,-224.5 753.464,-243.5 853.464,-243.5 853.464,-224.5 753.464,-224.5"/>
<text text-anchor="middle" x="803.464" y="-231.5" font-family="Helvetica,sans-Serif" font-size="10.00">OgreStringVector.h</text>
</a>
</g>
</g>
<!-- Node20&#45;&gt;Node21 -->
<g id="edge39" class="edge"><title>Node20&#45;&gt;Node21</title>
<path fill="none" stroke="midnightblue" d="M709.459,-280.324C727.502,-271.625 755.511,-258.12 776.267,-248.113"/>
<polygon fill="midnightblue" stroke="midnightblue" points="778.027,-251.15 785.514,-243.655 774.986,-244.845 778.027,-251.15"/>
</g>
<!-- Node21&#45;&gt;Node4 -->
<g id="edge40" class="edge"><title>Node21&#45;&gt;Node4</title>
<path fill="none" stroke="midnightblue" d="M809.566,-224.375C818.322,-210.842 831.988,-184.468 818.464,-168 813.155,-161.535 718.631,-144.428 653.251,-133.268"/>
<polygon fill="midnightblue" stroke="midnightblue" points="653.471,-129.755 643.026,-131.53 652.299,-136.656 653.471,-129.755"/>
</g>
<!-- Node22 -->
<g id="node22" class="node"><title>Node22</title>
<g id="a_node22"><a xlink:href="_ogre_shared_ptr_8h.html" target="_top" xlink:title="OgreSharedPtr.h">
<polygon fill="none" stroke="red" points="719.964,-168.5 719.964,-187.5 808.964,-187.5 808.964,-168.5 719.964,-168.5"/>
<text text-anchor="middle" x="764.464" y="-175.5" font-family="Helvetica,sans-Serif" font-size="10.00">OgreSharedPtr.h</text>
</a>
</g>
</g>
<!-- Node21&#45;&gt;Node22 -->
<g id="edge41" class="edge"><title>Node21&#45;&gt;Node22</title>
<path fill="none" stroke="midnightblue" d="M797.024,-224.083C791.515,-216.455 783.433,-205.264 776.699,-195.941"/>
<polygon fill="midnightblue" stroke="midnightblue" points="779.477,-193.809 770.784,-187.751 773.802,-197.907 779.477,-193.809"/>
</g>
<!-- Node23 -->
<g id="node23" class="node"><title>Node23</title>
<g id="a_node23"><a xlink:href="_ogre_string_8h.html" target="_top" xlink:title="OgreString.h">
<polygon fill="none" stroke="black" points="865.964,-168.5 865.964,-187.5 936.964,-187.5 936.964,-168.5 865.964,-168.5"/>
<text text-anchor="middle" x="901.464" y="-175.5" font-family="Helvetica,sans-Serif" font-size="10.00">OgreString.h</text>
</a>
</g>
</g>
<!-- Node21&#45;&gt;Node23 -->
<g id="edge43" class="edge"><title>Node21&#45;&gt;Node23</title>
<path fill="none" stroke="midnightblue" d="M819.21,-224.324C834.783,-215.743 858.842,-202.486 876.924,-192.522"/>
<polygon fill="midnightblue" stroke="midnightblue" points="878.689,-195.546 885.758,-187.655 875.31,-189.415 878.689,-195.546"/>
</g>
<!-- Node22&#45;&gt;Node4 -->
<g id="edge42" class="edge"><title>Node22&#45;&gt;Node4</title>
<path fill="none" stroke="midnightblue" d="M737.052,-168.444C707.695,-159.28 660.945,-144.688 628.368,-134.519"/>
<polygon fill="midnightblue" stroke="midnightblue" points="629.337,-131.155 618.748,-131.516 627.251,-137.837 629.337,-131.155"/>
</g>
<!-- Node23&#45;&gt;Node4 -->
<g id="edge44" class="edge"><title>Node23&#45;&gt;Node4</title>
<path fill="none" stroke="midnightblue" d="M865.961,-170.579C861.091,-169.707 856.155,-168.828 851.464,-168 782.95,-155.905 704.22,-142.323 651.51,-133.275"/>
<polygon fill="midnightblue" stroke="midnightblue" points="651.773,-129.769 641.325,-131.528 650.589,-136.668 651.773,-129.769"/>
</g>
<!-- Node23&#45;&gt;Node9 -->
<g id="edge45" class="edge"><title>Node23&#45;&gt;Node9</title>
<path fill="none" stroke="midnightblue" d="M886.755,-168.318C841.674,-141.774 707.179,-63.065 685.464,-56 578.174,-21.0918 445.877,-12.7299 369.64,-11.0327"/>
<polygon fill="midnightblue" stroke="midnightblue" points="369.328,-7.52618 359.264,-10.8353 369.195,-14.5249 369.328,-7.52618"/>
</g>
<!-- Node23&#45;&gt;Node10 -->
<g id="edge46" class="edge"><title>Node23&#45;&gt;Node10</title>
<path fill="none" stroke="midnightblue" d="M877.134,-168.491C853.426,-159.983 816.518,-146.161 785.464,-132 752.542,-116.987 676.155,-66.2862 641.464,-56 472.454,-5.88626 421.966,-36.5817 246.464,-20 236.638,-19.0716 226.224,-18.0699 216.071,-17.0836"/>
<polygon fill="midnightblue" stroke="midnightblue" points="216.328,-13.5922 206.036,-16.1058 215.649,-20.5592 216.328,-13.5922"/>
</g>
</g>
</svg>
