<?xml version="1.0" encoding="UTF-8" standalone="no"?>
<!DOCTYPE svg PUBLIC "-//W3C//DTD SVG 1.1//EN"
 "http://www.w3.org/Graphics/SVG/1.1/DTD/svg11.dtd">
<!-- Generated by graphviz version 2.38.0 (20140413.2041)
 -->
<!-- Title: OgreLodCollapseCost.h Pages: 1 -->
<svg width="2878pt" height="420pt"
 viewBox="0.00 0.00 2878.32 420.00" xmlns="http://www.w3.org/2000/svg" xmlns:xlink="http://www.w3.org/1999/xlink">
<g id="graph0" class="graph" transform="scale(1 1) rotate(0) translate(4 416)">
<title>OgreLodCollapseCost.h</title>
<!-- Node1 -->
<g id="node1" class="node"><title>Node1</title>
<polygon fill="#bfbfbf" stroke="black" points="536.258,-392.5 536.258,-411.5 657.258,-411.5 657.258,-392.5 536.258,-392.5"/>
<text text-anchor="middle" x="596.758" y="-399.5" font-family="Helvetica,sans-Serif" font-size="10.00">OgreLodCollapseCost.h</text>
</g>
<!-- Node2 -->
<g id="node2" class="node"><title>Node2</title>
<g id="a_node2"><a xlink:href="_ogre_lod_prerequisites_8h.html" target="_top" xlink:title="OgreLodPrerequisites.h">
<polygon fill="none" stroke="black" points="466.258,-280.5 466.258,-299.5 585.258,-299.5 585.258,-280.5 466.258,-280.5"/>
<text text-anchor="middle" x="525.758" y="-287.5" font-family="Helvetica,sans-Serif" font-size="10.00">OgreLodPrerequisites.h</text>
</a>
</g>
</g>
<!-- Node1&#45;&gt;Node2 -->
<g id="edge1" class="edge"><title>Node1&#45;&gt;Node2</title>
<path fill="none" stroke="midnightblue" d="M591.187,-392.368C579.522,-374.296 552.336,-332.176 536.929,-308.307"/>
<polygon fill="midnightblue" stroke="midnightblue" points="539.667,-306.095 531.303,-299.591 533.786,-309.891 539.667,-306.095"/>
</g>
<!-- Node43 -->
<g id="node43" class="node"><title>Node43</title>
<g id="a_node43"><a xlink:href="_ogre_lod_data_8h.html" target="_top" xlink:title="OgreLodData.h">
<polygon fill="none" stroke="black" points="602.258,-336.5 602.258,-355.5 685.258,-355.5 685.258,-336.5 602.258,-336.5"/>
<text text-anchor="middle" x="643.758" y="-343.5" font-family="Helvetica,sans-Serif" font-size="10.00">OgreLodData.h</text>
</a>
</g>
</g>
<!-- Node1&#45;&gt;Node43 -->
<g id="edge51" class="edge"><title>Node1&#45;&gt;Node43</title>
<path fill="none" stroke="midnightblue" d="M604.519,-392.083C611.295,-384.298 621.301,-372.801 629.513,-363.367"/>
<polygon fill="midnightblue" stroke="midnightblue" points="632.216,-365.592 636.141,-355.751 626.936,-360.996 632.216,-365.592"/>
</g>
<!-- Node3 -->
<g id="node3" class="node"><title>Node3</title>
<g id="a_node3"><a xlink:href="_ogre_prerequisites_8h.html" target="_top" xlink:title="OgrePrerequisites.h">
<polygon fill="none" stroke="black" points="522.258,-168.5 522.258,-187.5 625.258,-187.5 625.258,-168.5 522.258,-168.5"/>
<text text-anchor="middle" x="573.758" y="-175.5" font-family="Helvetica,sans-Serif" font-size="10.00">OgrePrerequisites.h</text>
</a>
</g>
</g>
<!-- Node2&#45;&gt;Node3 -->
<g id="edge2" class="edge"><title>Node2&#45;&gt;Node3</title>
<path fill="none" stroke="midnightblue" d="M515.215,-280.456C501.054,-267.905 478.956,-243.823 490.758,-224 499.855,-208.721 516.146,-198.31 531.902,-191.386"/>
<polygon fill="midnightblue" stroke="midnightblue" points="533.591,-194.479 541.573,-187.512 530.989,-187.981 533.591,-194.479"/>
</g>
<!-- Node4 -->
<g id="node4" class="node"><title>Node4</title>
<g id="a_node4"><a xlink:href="_ogre_platform_8h.html" target="_top" xlink:title="OgrePlatform.h">
<polygon fill="none" stroke="black" points="49.258,-112.5 49.258,-131.5 132.258,-131.5 132.258,-112.5 49.258,-112.5"/>
<text text-anchor="middle" x="90.758" y="-119.5" font-family="Helvetica,sans-Serif" font-size="10.00">OgrePlatform.h</text>
</a>
</g>
</g>
<!-- Node3&#45;&gt;Node4 -->
<g id="edge3" class="edge"><title>Node3&#45;&gt;Node4</title>
<path fill="none" stroke="midnightblue" d="M522.069,-171.221C429.18,-160.836 235.083,-139.136 142.301,-128.763"/>
<polygon fill="midnightblue" stroke="midnightblue" points="142.631,-125.278 132.304,-127.645 141.853,-132.234 142.631,-125.278"/>
</g>
<!-- Node6 -->
<g id="node6" class="node"><title>Node6</title>
<polygon fill="none" stroke="#bfbfbf" points="660.258,-56.5 660.258,-75.5 701.258,-75.5 701.258,-56.5 660.258,-56.5"/>
<text text-anchor="middle" x="680.758" y="-63.5" font-family="Helvetica,sans-Serif" font-size="10.00">string</text>
</g>
<!-- Node3&#45;&gt;Node6 -->
<g id="edge5" class="edge"><title>Node3&#45;&gt;Node6</title>
<path fill="none" stroke="midnightblue" d="M582.154,-168.368C600.047,-149.974 642.169,-106.671 665.144,-83.0519"/>
<polygon fill="midnightblue" stroke="midnightblue" points="667.937,-85.2 672.401,-75.5914 662.919,-80.3192 667.937,-85.2"/>
</g>
<!-- Node7 -->
<g id="node7" class="node"><title>Node7</title>
<g id="a_node7"><a xlink:href="_ogre_std_headers_8h.html" target="_top" xlink:title="OgreStdHeaders.h">
<polygon fill="none" stroke="black" points="1516.76,-112.5 1516.76,-131.5 1614.76,-131.5 1614.76,-112.5 1516.76,-112.5"/>
<text text-anchor="middle" x="1565.76" y="-119.5" font-family="Helvetica,sans-Serif" font-size="10.00">OgreStdHeaders.h</text>
</a>
</g>
</g>
<!-- Node3&#45;&gt;Node7 -->
<g id="edge6" class="edge"><title>Node3&#45;&gt;Node7</title>
<path fill="none" stroke="midnightblue" d="M625.349,-174.192C793.884,-165.017 1327.67,-135.961 1506.62,-126.219"/>
<polygon fill="midnightblue" stroke="midnightblue" points="1506.84,-129.712 1516.64,-125.674 1506.46,-122.723 1506.84,-129.712"/>
</g>
<!-- Node37 -->
<g id="node37" class="node"><title>Node37</title>
<g id="a_node37"><a xlink:href="_ogre_memory_allocator_config_8h.html" target="_top" xlink:title="This file configures Ogre&#39;s memory allocators. ">
<polygon fill="none" stroke="black" points="367.758,-112.5 367.758,-131.5 515.758,-131.5 515.758,-112.5 367.758,-112.5"/>
<text text-anchor="middle" x="441.758" y="-119.5" font-family="Helvetica,sans-Serif" font-size="10.00">OgreMemoryAllocatorConfig.h</text>
</a>
</g>
</g>
<!-- Node3&#45;&gt;Node37 -->
<g id="edge37" class="edge"><title>Node3&#45;&gt;Node37</title>
<path fill="none" stroke="midnightblue" d="M552.842,-168.444C531.022,-159.517 496.608,-145.439 471.866,-135.317"/>
<polygon fill="midnightblue" stroke="midnightblue" points="473.157,-132.063 462.576,-131.516 470.506,-138.542 473.157,-132.063"/>
</g>
<!-- Node5 -->
<g id="node5" class="node"><title>Node5</title>
<g id="a_node5"><a xlink:href="_ogre_config_8h.html" target="_top" xlink:title="OgreConfig.h">
<polygon fill="none" stroke="red" points="18.758,-56.5 18.758,-75.5 92.758,-75.5 92.758,-56.5 18.758,-56.5"/>
<text text-anchor="middle" x="55.758" y="-63.5" font-family="Helvetica,sans-Serif" font-size="10.00">OgreConfig.h</text>
</a>
</g>
</g>
<!-- Node4&#45;&gt;Node5 -->
<g id="edge4" class="edge"><title>Node4&#45;&gt;Node5</title>
<path fill="none" stroke="midnightblue" d="M84.9785,-112.083C80.0857,-104.534 72.9306,-93.4948 66.9255,-84.2298"/>
<polygon fill="midnightblue" stroke="midnightblue" points="69.8061,-82.239 61.43,-75.7511 63.932,-86.0463 69.8061,-82.239"/>
</g>
<!-- Node7&#45;&gt;Node6 -->
<g id="edge16" class="edge"><title>Node7&#45;&gt;Node6</title>
<path fill="none" stroke="midnightblue" d="M1516.65,-119.956C1362.15,-116.434 886.447,-103.719 711.36,-75.5561"/>
<polygon fill="midnightblue" stroke="midnightblue" points="711.702,-72.0644 701.26,-73.8546 710.539,-78.9672 711.702,-72.0644"/>
</g>
<!-- Node8 -->
<g id="node8" class="node"><title>Node8</title>
<polygon fill="none" stroke="#bfbfbf" points="2601.26,-56.5 2601.26,-75.5 2650.26,-75.5 2650.26,-56.5 2601.26,-56.5"/>
<text text-anchor="middle" x="2625.76" y="-63.5" font-family="Helvetica,sans-Serif" font-size="10.00">cassert</text>
</g>
<!-- Node7&#45;&gt;Node8 -->
<g id="edge7" class="edge"><title>Node7&#45;&gt;Node8</title>
<path fill="none" stroke="midnightblue" d="M1614.78,-120.246C1789.25,-117.348 2380.38,-105.644 2590.97,-75.6963"/>
<polygon fill="midnightblue" stroke="midnightblue" points="2591.63,-79.1373 2601.01,-74.2102 2590.6,-72.2128 2591.63,-79.1373"/>
</g>
<!-- Node9 -->
<g id="node9" class="node"><title>Node9</title>
<polygon fill="none" stroke="#bfbfbf" points="2351.26,-56.5 2351.26,-75.5 2394.26,-75.5 2394.26,-56.5 2351.26,-56.5"/>
<text text-anchor="middle" x="2372.76" y="-63.5" font-family="Helvetica,sans-Serif" font-size="10.00">cstdio</text>
</g>
<!-- Node7&#45;&gt;Node9 -->
<g id="edge8" class="edge"><title>Node7&#45;&gt;Node9</title>
<path fill="none" stroke="midnightblue" d="M1614.94,-119.593C1759.5,-115.234 2182.33,-100.829 2341.15,-75.6003"/>
<polygon fill="midnightblue" stroke="midnightblue" points="2341.93,-79.018 2351.22,-73.9229 2340.78,-72.113 2341.93,-79.018"/>
</g>
<!-- Node10 -->
<g id="node10" class="node"><title>Node10</title>
<polygon fill="none" stroke="#bfbfbf" points="2668.26,-56.5 2668.26,-75.5 2713.26,-75.5 2713.26,-56.5 2668.26,-56.5"/>
<text text-anchor="middle" x="2690.76" y="-63.5" font-family="Helvetica,sans-Serif" font-size="10.00">cstdlib</text>
</g>
<!-- Node7&#45;&gt;Node10 -->
<g id="edge9" class="edge"><title>Node7&#45;&gt;Node10</title>
<path fill="none" stroke="midnightblue" d="M1614.84,-120.553C1796.96,-118.656 2434.62,-109.812 2658.2,-75.8126"/>
<polygon fill="midnightblue" stroke="midnightblue" points="2658.89,-79.2482 2668.22,-74.2271 2657.79,-72.3343 2658.89,-79.2482"/>
</g>
<!-- Node11 -->
<g id="node11" class="node"><title>Node11</title>
<polygon fill="none" stroke="#bfbfbf" points="2412.26,-56.5 2412.26,-75.5 2453.26,-75.5 2453.26,-56.5 2412.26,-56.5"/>
<text text-anchor="middle" x="2432.76" y="-63.5" font-family="Helvetica,sans-Serif" font-size="10.00">ctime</text>
</g>
<!-- Node7&#45;&gt;Node11 -->
<g id="edge10" class="edge"><title>Node7&#45;&gt;Node11</title>
<path fill="none" stroke="midnightblue" d="M1614.99,-119.953C1767.52,-116.462 2231.66,-103.929 2401.94,-75.8558"/>
<polygon fill="midnightblue" stroke="midnightblue" points="2402.74,-79.2687 2412,-74.1159 2401.55,-72.371 2402.74,-79.2687"/>
</g>
<!-- Node12 -->
<g id="node12" class="node"><title>Node12</title>
<polygon fill="none" stroke="#bfbfbf" points="2731.76,-56.5 2731.76,-75.5 2777.76,-75.5 2777.76,-56.5 2731.76,-56.5"/>
<text text-anchor="middle" x="2754.76" y="-63.5" font-family="Helvetica,sans-Serif" font-size="10.00">cstring</text>
</g>
<!-- Node7&#45;&gt;Node12 -->
<g id="edge11" class="edge"><title>Node7&#45;&gt;Node12</title>
<path fill="none" stroke="midnightblue" d="M1615.01,-120.626C1804.14,-118.952 2484.69,-110.707 2721.55,-75.7531"/>
<polygon fill="midnightblue" stroke="midnightblue" points="2722.13,-79.2059 2731.48,-74.2304 2721.07,-72.2868 2722.13,-79.2059"/>
</g>
<!-- Node13 -->
<g id="node13" class="node"><title>Node13</title>
<polygon fill="none" stroke="#bfbfbf" points="2471.26,-56.5 2471.26,-75.5 2520.26,-75.5 2520.26,-56.5 2471.26,-56.5"/>
<text text-anchor="middle" x="2495.76" y="-63.5" font-family="Helvetica,sans-Serif" font-size="10.00">cstdarg</text>
</g>
<!-- Node7&#45;&gt;Node13 -->
<g id="edge12" class="edge"><title>Node7&#45;&gt;Node13</title>
<path fill="none" stroke="midnightblue" d="M1614.96,-119.932C1774.64,-116.252 2278.17,-102.898 2461,-75.9093"/>
<polygon fill="midnightblue" stroke="midnightblue" points="2461.67,-79.3472 2471.02,-74.364 2460.6,-72.429 2461.67,-79.3472"/>
</g>
<!-- Node14 -->
<g id="node14" class="node"><title>Node14</title>
<polygon fill="none" stroke="#bfbfbf" points="2538.76,-56.5 2538.76,-75.5 2582.76,-75.5 2582.76,-56.5 2538.76,-56.5"/>
<text text-anchor="middle" x="2560.76" y="-63.5" font-family="Helvetica,sans-Serif" font-size="10.00">cmath</text>
</g>
<!-- Node7&#45;&gt;Node14 -->
<g id="edge13" class="edge"><title>Node7&#45;&gt;Node14</title>
<path fill="none" stroke="midnightblue" d="M1615.04,-120.234C1782.82,-117.391 2331.74,-106.096 2528.61,-75.7285"/>
<polygon fill="midnightblue" stroke="midnightblue" points="2529.24,-79.1724 2538.55,-74.1272 2528.12,-72.2614 2529.24,-79.1724"/>
</g>
<!-- Node15 -->
<g id="node15" class="node"><title>Node15</title>
<polygon fill="none" stroke="#bfbfbf" points="719.758,-56.5 719.758,-75.5 763.758,-75.5 763.758,-56.5 719.758,-56.5"/>
<text text-anchor="middle" x="741.758" y="-63.5" font-family="Helvetica,sans-Serif" font-size="10.00">vector</text>
</g>
<!-- Node7&#45;&gt;Node15 -->
<g id="edge14" class="edge"><title>Node7&#45;&gt;Node15</title>
<path fill="none" stroke="midnightblue" d="M1516.57,-119.663C1369.87,-115.452 936.1,-101.315 774.231,-75.797"/>
<polygon fill="midnightblue" stroke="midnightblue" points="774.406,-72.2783 763.969,-74.0997 773.263,-79.1845 774.406,-72.2783"/>
</g>
<!-- Node16 -->
<g id="node16" class="node"><title>Node16</title>
<polygon fill="none" stroke="#bfbfbf" points="782.258,-56.5 782.258,-75.5 817.258,-75.5 817.258,-56.5 782.258,-56.5"/>
<text text-anchor="middle" x="799.758" y="-63.5" font-family="Helvetica,sans-Serif" font-size="10.00">map</text>
</g>
<!-- Node7&#45;&gt;Node16 -->
<g id="edge15" class="edge"><title>Node7&#45;&gt;Node16</title>
<path fill="none" stroke="midnightblue" d="M1516.61,-119.678C1376.84,-115.66 978.038,-102.337 827.292,-75.4538"/>
<polygon fill="midnightblue" stroke="midnightblue" points="827.774,-71.9833 817.3,-73.5792 826.483,-78.8632 827.774,-71.9833"/>
</g>
<!-- Node17 -->
<g id="node17" class="node"><title>Node17</title>
<polygon fill="none" stroke="#bfbfbf" points="835.758,-56.5 835.758,-75.5 865.758,-75.5 865.758,-56.5 835.758,-56.5"/>
<text text-anchor="middle" x="850.758" y="-63.5" font-family="Helvetica,sans-Serif" font-size="10.00">set</text>
</g>
<!-- Node7&#45;&gt;Node17 -->
<g id="edge17" class="edge"><title>Node7&#45;&gt;Node17</title>
<path fill="none" stroke="midnightblue" d="M1516.37,-119.664C1382.85,-115.761 1015.94,-103.033 875.873,-75.4978"/>
<polygon fill="midnightblue" stroke="midnightblue" points="876.294,-72.0105 865.791,-73.4026 874.87,-78.8641 876.294,-72.0105"/>
</g>
<!-- Node18 -->
<g id="node18" class="node"><title>Node18</title>
<polygon fill="none" stroke="#bfbfbf" points="884.258,-56.5 884.258,-75.5 913.258,-75.5 913.258,-56.5 884.258,-56.5"/>
<text text-anchor="middle" x="898.758" y="-63.5" font-family="Helvetica,sans-Serif" font-size="10.00">list</text>
</g>
<!-- Node7&#45;&gt;Node18 -->
<g id="edge18" class="edge"><title>Node7&#45;&gt;Node18</title>
<path fill="none" stroke="midnightblue" d="M1516.45,-119.485C1389.58,-115.286 1053.3,-102.187 923.711,-75.7538"/>
<polygon fill="midnightblue" stroke="midnightblue" points="924.16,-72.2701 913.646,-73.5769 922.68,-79.1119 924.16,-72.2701"/>
</g>
<!-- Node19 -->
<g id="node19" class="node"><title>Node19</title>
<polygon fill="none" stroke="#bfbfbf" points="931.258,-56.5 931.258,-75.5 974.258,-75.5 974.258,-56.5 931.258,-56.5"/>
<text text-anchor="middle" x="952.758" y="-63.5" font-family="Helvetica,sans-Serif" font-size="10.00">deque</text>
</g>
<!-- Node7&#45;&gt;Node19 -->
<g id="edge19" class="edge"><title>Node7&#45;&gt;Node19</title>
<path fill="none" stroke="midnightblue" d="M1516.54,-120.745C1417.21,-119.468 1185.73,-112.632 984.444,-75.9623"/>
<polygon fill="midnightblue" stroke="midnightblue" points="985.05,-72.515 974.58,-74.1365 983.776,-79.3981 985.05,-72.515"/>
</g>
<!-- Node20 -->
<g id="node20" class="node"><title>Node20</title>
<polygon fill="none" stroke="#bfbfbf" points="992.258,-56.5 992.258,-75.5 1035.26,-75.5 1035.26,-56.5 992.258,-56.5"/>
<text text-anchor="middle" x="1013.76" y="-63.5" font-family="Helvetica,sans-Serif" font-size="10.00">queue</text>
</g>
<!-- Node7&#45;&gt;Node20 -->
<g id="edge20" class="edge"><title>Node7&#45;&gt;Node20</title>
<path fill="none" stroke="midnightblue" d="M1516.72,-120.122C1425.42,-117.763 1223.21,-109.136 1045.63,-76.018"/>
<polygon fill="midnightblue" stroke="midnightblue" points="1046.06,-72.5377 1035.58,-74.1133 1044.76,-79.4152 1046.06,-72.5377"/>
</g>
<!-- Node21 -->
<g id="node21" class="node"><title>Node21</title>
<polygon fill="none" stroke="#bfbfbf" points="1053.26,-56.5 1053.26,-75.5 1094.26,-75.5 1094.26,-56.5 1053.26,-56.5"/>
<text text-anchor="middle" x="1073.76" y="-63.5" font-family="Helvetica,sans-Serif" font-size="10.00">bitset</text>
</g>
<!-- Node7&#45;&gt;Node21 -->
<g id="edge21" class="edge"><title>Node7&#45;&gt;Node21</title>
<path fill="none" stroke="midnightblue" d="M1516.61,-119.512C1433.35,-116.278 1259.28,-106.436 1104.69,-76.0372"/>
<polygon fill="midnightblue" stroke="midnightblue" points="1105.03,-72.5357 1094.54,-74.005 1103.65,-79.3996 1105.03,-72.5357"/>
</g>
<!-- Node22 -->
<g id="node22" class="node"><title>Node22</title>
<polygon fill="none" stroke="#bfbfbf" points="2795.76,-56.5 2795.76,-75.5 2851.76,-75.5 2851.76,-56.5 2795.76,-56.5"/>
<text text-anchor="middle" x="2823.76" y="-63.5" font-family="Helvetica,sans-Serif" font-size="10.00">algorithm</text>
</g>
<!-- Node7&#45;&gt;Node22 -->
<g id="edge22" class="edge"><title>Node7&#45;&gt;Node22</title>
<path fill="none" stroke="midnightblue" d="M1614.97,-120.511C1810.6,-118.365 2534.41,-108.456 2785.43,-75.8416"/>
<polygon fill="midnightblue" stroke="midnightblue" points="2786.15,-79.2763 2795.59,-74.4722 2785.21,-72.339 2786.15,-79.2763"/>
</g>
<!-- Node23 -->
<g id="node23" class="node"><title>Node23</title>
<polygon fill="none" stroke="#bfbfbf" points="1112.26,-56.5 1112.26,-75.5 1171.26,-75.5 1171.26,-56.5 1112.26,-56.5"/>
<text text-anchor="middle" x="1141.76" y="-63.5" font-family="Helvetica,sans-Serif" font-size="10.00">functional</text>
</g>
<!-- Node7&#45;&gt;Node23 -->
<g id="edge23" class="edge"><title>Node7&#45;&gt;Node23</title>
<path fill="none" stroke="midnightblue" d="M1516.58,-117.005C1445.01,-110.804 1307.8,-97.4675 1181.36,-75.9206"/>
<polygon fill="midnightblue" stroke="midnightblue" points="1181.95,-72.4708 1171.5,-74.2198 1180.76,-79.3689 1181.95,-72.4708"/>
</g>
<!-- Node24 -->
<g id="node24" class="node"><title>Node24</title>
<polygon fill="none" stroke="#bfbfbf" points="1189.76,-56.5 1189.76,-75.5 1229.76,-75.5 1229.76,-56.5 1189.76,-56.5"/>
<text text-anchor="middle" x="1209.76" y="-63.5" font-family="Helvetica,sans-Serif" font-size="10.00">limits</text>
</g>
<!-- Node7&#45;&gt;Node24 -->
<g id="edge24" class="edge"><title>Node7&#45;&gt;Node24</title>
<path fill="none" stroke="midnightblue" d="M1516.56,-116.77C1454.19,-110.848 1343.3,-98.4534 1239.91,-75.934"/>
<polygon fill="midnightblue" stroke="midnightblue" points="1240.45,-72.4688 1229.93,-73.7229 1238.93,-79.3031 1240.45,-72.4688"/>
</g>
<!-- Node25 -->
<g id="node25" class="node"><title>Node25</title>
<polygon fill="none" stroke="#bfbfbf" points="1247.76,-56.5 1247.76,-75.5 1297.76,-75.5 1297.76,-56.5 1247.76,-56.5"/>
<text text-anchor="middle" x="1272.76" y="-63.5" font-family="Helvetica,sans-Serif" font-size="10.00">fstream</text>
</g>
<!-- Node7&#45;&gt;Node25 -->
<g id="edge25" class="edge"><title>Node7&#45;&gt;Node25</title>
<path fill="none" stroke="midnightblue" d="M1516.55,-113.603C1464.47,-105.498 1379.99,-91.56 1307.76,-76 1307.66,-75.9785 1307.56,-75.957 1307.46,-75.9353"/>
<polygon fill="midnightblue" stroke="midnightblue" points="1308.47,-72.5767 1297.94,-73.7279 1306.89,-79.3959 1308.47,-72.5767"/>
</g>
<!-- Node26 -->
<g id="node26" class="node"><title>Node26</title>
<polygon fill="none" stroke="#bfbfbf" points="1316.26,-56.5 1316.26,-75.5 1361.26,-75.5 1361.26,-56.5 1316.26,-56.5"/>
<text text-anchor="middle" x="1338.76" y="-63.5" font-family="Helvetica,sans-Serif" font-size="10.00">iosfwd</text>
</g>
<!-- Node7&#45;&gt;Node26 -->
<g id="edge26" class="edge"><title>Node7&#45;&gt;Node26</title>
<path fill="none" stroke="midnightblue" d="M1526.41,-112.493C1489.01,-104.281 1430.97,-91.207 1371.41,-76.0712"/>
<polygon fill="midnightblue" stroke="midnightblue" points="1372,-72.6112 1361.45,-73.5247 1370.27,-79.393 1372,-72.6112"/>
</g>
<!-- Node27 -->
<g id="node27" class="node"><title>Node27</title>
<polygon fill="none" stroke="#bfbfbf" points="1379.76,-56.5 1379.76,-75.5 1431.76,-75.5 1431.76,-56.5 1379.76,-56.5"/>
<text text-anchor="middle" x="1405.76" y="-63.5" font-family="Helvetica,sans-Serif" font-size="10.00">sstream</text>
</g>
<!-- Node7&#45;&gt;Node27 -->
<g id="edge27" class="edge"><title>Node7&#45;&gt;Node27</title>
<path fill="none" stroke="midnightblue" d="M1540.41,-112.444C1513.49,-103.359 1470.76,-88.9388 1440.67,-78.7831"/>
<polygon fill="midnightblue" stroke="midnightblue" points="1441.59,-75.3981 1430.99,-75.5164 1439.35,-82.0305 1441.59,-75.3981"/>
</g>
<!-- Node28 -->
<g id="node28" class="node"><title>Node28</title>
<polygon fill="none" stroke="#bfbfbf" points="1449.76,-56.5 1449.76,-75.5 1517.76,-75.5 1517.76,-56.5 1449.76,-56.5"/>
<text text-anchor="middle" x="1483.76" y="-63.5" font-family="Helvetica,sans-Serif" font-size="10.00">sys/types.h</text>
</g>
<!-- Node7&#45;&gt;Node28 -->
<g id="edge28" class="edge"><title>Node7&#45;&gt;Node28</title>
<path fill="none" stroke="midnightblue" d="M1552.58,-112.324C1539.91,-103.979 1520.52,-91.2122 1505.55,-81.3524"/>
<polygon fill="midnightblue" stroke="midnightblue" points="1507.18,-78.2313 1496.9,-75.6545 1503.33,-84.0776 1507.18,-78.2313"/>
</g>
<!-- Node29 -->
<g id="node29" class="node"><title>Node29</title>
<polygon fill="none" stroke="#bfbfbf" points="1535.76,-56.5 1535.76,-75.5 1595.76,-75.5 1595.76,-56.5 1535.76,-56.5"/>
<text text-anchor="middle" x="1565.76" y="-63.5" font-family="Helvetica,sans-Serif" font-size="10.00">sys/stat.h</text>
</g>
<!-- Node7&#45;&gt;Node29 -->
<g id="edge29" class="edge"><title>Node7&#45;&gt;Node29</title>
<path fill="none" stroke="midnightblue" d="M1565.76,-112.083C1565.76,-105.006 1565.76,-94.8611 1565.76,-85.9865"/>
<polygon fill="midnightblue" stroke="midnightblue" points="1569.26,-85.751 1565.76,-75.7511 1562.26,-85.7511 1569.26,-85.751"/>
</g>
<!-- Node30 -->
<g id="node30" class="node"><title>Node30</title>
<polygon fill="none" stroke="#bfbfbf" points="1614.26,-56.5 1614.26,-75.5 1665.26,-75.5 1665.26,-56.5 1614.26,-56.5"/>
<text text-anchor="middle" x="1639.76" y="-63.5" font-family="Helvetica,sans-Serif" font-size="10.00">unistd.h</text>
</g>
<!-- Node7&#45;&gt;Node30 -->
<g id="edge30" class="edge"><title>Node7&#45;&gt;Node30</title>
<path fill="none" stroke="midnightblue" d="M1577.65,-112.324C1588.91,-104.107 1606.04,-91.6017 1619.47,-81.8069"/>
<polygon fill="midnightblue" stroke="midnightblue" points="1621.64,-84.5559 1627.65,-75.8339 1617.51,-78.9014 1621.64,-84.5559"/>
</g>
<!-- Node31 -->
<g id="node31" class="node"><title>Node31</title>
<polygon fill="none" stroke="#bfbfbf" points="1683.76,-56.5 1683.76,-75.5 1729.76,-75.5 1729.76,-56.5 1683.76,-56.5"/>
<text text-anchor="middle" x="1706.76" y="-63.5" font-family="Helvetica,sans-Serif" font-size="10.00">dlfcn.h</text>
</g>
<!-- Node7&#45;&gt;Node31 -->
<g id="edge31" class="edge"><title>Node7&#45;&gt;Node31</title>
<path fill="none" stroke="midnightblue" d="M1588.1,-112.444C1611.51,-103.478 1648.49,-89.314 1674.95,-79.1827"/>
<polygon fill="midnightblue" stroke="midnightblue" points="1676.43,-82.3615 1684.52,-75.5164 1673.93,-75.8245 1676.43,-82.3615"/>
</g>
<!-- Node32 -->
<g id="node32" class="node"><title>Node32</title>
<polygon fill="none" stroke="#bfbfbf" points="1747.76,-56.5 1747.76,-75.5 1825.76,-75.5 1825.76,-56.5 1747.76,-56.5"/>
<text text-anchor="middle" x="1786.76" y="-63.5" font-family="Helvetica,sans-Serif" font-size="10.00">ext/hash_map</text>
</g>
<!-- Node7&#45;&gt;Node32 -->
<g id="edge32" class="edge"><title>Node7&#45;&gt;Node32</title>
<path fill="none" stroke="midnightblue" d="M1600.78,-112.444C1639.01,-103.102 1700.32,-88.1194 1742.02,-77.9326"/>
<polygon fill="midnightblue" stroke="midnightblue" points="1743.02,-81.2901 1751.9,-75.5164 1741.36,-74.4901 1743.02,-81.2901"/>
</g>
<!-- Node33 -->
<g id="node33" class="node"><title>Node33</title>
<polygon fill="none" stroke="#bfbfbf" points="1844.26,-56.5 1844.26,-75.5 1917.26,-75.5 1917.26,-56.5 1844.26,-56.5"/>
<text text-anchor="middle" x="1880.76" y="-63.5" font-family="Helvetica,sans-Serif" font-size="10.00">ext/hash_set</text>
</g>
<!-- Node7&#45;&gt;Node33 -->
<g id="edge33" class="edge"><title>Node7&#45;&gt;Node33</title>
<path fill="none" stroke="midnightblue" d="M1614.91,-113.192C1666.79,-104.86 1751.2,-91.0379 1834.03,-76.0911"/>
<polygon fill="midnightblue" stroke="midnightblue" points="1834.9,-79.4897 1844.12,-74.263 1833.65,-72.6018 1834.9,-79.4897"/>
</g>
<!-- Node34 -->
<g id="node34" class="node"><title>Node34</title>
<polygon fill="none" stroke="#bfbfbf" points="1935.26,-56.5 1935.26,-75.5 2006.26,-75.5 2006.26,-56.5 1935.26,-56.5"/>
<text text-anchor="middle" x="1970.76" y="-63.5" font-family="Helvetica,sans-Serif" font-size="10.00">sys/param.h</text>
</g>
<!-- Node7&#45;&gt;Node34 -->
<g id="edge34" class="edge"><title>Node7&#45;&gt;Node34</title>
<path fill="none" stroke="midnightblue" d="M1614.98,-116.091C1682.66,-109.07 1808.44,-95.0544 1924.65,-76.2522"/>
<polygon fill="midnightblue" stroke="midnightblue" points="1925.48,-79.6631 1934.78,-74.596 1924.35,-72.7547 1925.48,-79.6631"/>
</g>
<!-- Node35 -->
<g id="node35" class="node"><title>Node35</title>
<polygon fill="none" stroke="#bfbfbf" points="2024.76,-56.5 2024.76,-75.5 2190.76,-75.5 2190.76,-56.5 2024.76,-56.5"/>
<text text-anchor="middle" x="2107.76" y="-63.5" font-family="Helvetica,sans-Serif" font-size="10.00">CoreFoundation/CoreFoundation.h</text>
</g>
<!-- Node7&#45;&gt;Node35 -->
<g id="edge35" class="edge"><title>Node7&#45;&gt;Node35</title>
<path fill="none" stroke="midnightblue" d="M1614.81,-116.113C1704.99,-107.128 1898.46,-87.8528 2014.4,-76.3018"/>
<polygon fill="midnightblue" stroke="midnightblue" points="2015.07,-79.7518 2024.68,-75.2776 2014.38,-72.7863 2015.07,-79.7518"/>
</g>
<!-- Node36 -->
<g id="node36" class="node"><title>Node36</title>
<polygon fill="none" stroke="#bfbfbf" points="2208.76,-56.5 2208.76,-75.5 2332.76,-75.5 2332.76,-56.5 2208.76,-56.5"/>
<text text-anchor="middle" x="2270.76" y="-63.5" font-family="Helvetica,sans-Serif" font-size="10.00">emscripten/emscripten.h</text>
</g>
<!-- Node7&#45;&gt;Node36 -->
<g id="edge36" class="edge"><title>Node7&#45;&gt;Node36</title>
<path fill="none" stroke="midnightblue" d="M1615.16,-118.425C1720.41,-112.737 1974.74,-97.9228 2198.48,-76.0759"/>
<polygon fill="midnightblue" stroke="midnightblue" points="2198.83,-79.5586 2208.44,-75.0969 2198.15,-72.5922 2198.83,-79.5586"/>
</g>
<!-- Node38 -->
<g id="node38" class="node"><title>Node38</title>
<g id="a_node38"><a xlink:href="_ogre_memory_allocated_object_8h.html" target="_top" xlink:title="OgreMemoryAllocatedObject.h">
<polygon fill="none" stroke="black" points="110.758,-56.5 110.758,-75.5 260.758,-75.5 260.758,-56.5 110.758,-56.5"/>
<text text-anchor="middle" x="185.758" y="-63.5" font-family="Helvetica,sans-Serif" font-size="10.00">OgreMemoryAllocatedObject.h</text>
</a>
</g>
</g>
<!-- Node37&#45;&gt;Node38 -->
<g id="edge38" class="edge"><title>Node37&#45;&gt;Node38</title>
<path fill="none" stroke="midnightblue" d="M401.194,-112.444C356.442,-103.004 284.375,-87.802 236.063,-77.6111"/>
<polygon fill="midnightblue" stroke="midnightblue" points="236.639,-74.1558 226.132,-75.5164 235.195,-81.0051 236.639,-74.1558"/>
</g>
<!-- Node39 -->
<g id="node39" class="node"><title>Node39</title>
<g id="a_node39"><a xlink:href="_ogre_header_prefix_8h.html" target="_top" xlink:title="OgreHeaderPrefix.h">
<polygon fill="none" stroke="black" points="237.258,-0.5 237.258,-19.5 340.258,-19.5 340.258,-0.5 237.258,-0.5"/>
<text text-anchor="middle" x="288.758" y="-7.5" font-family="Helvetica,sans-Serif" font-size="10.00">OgreHeaderPrefix.h</text>
</a>
</g>
</g>
<!-- Node37&#45;&gt;Node39 -->
<g id="edge42" class="edge"><title>Node37&#45;&gt;Node39</title>
<path fill="none" stroke="midnightblue" d="M377.598,-112.429C352.843,-106.103 326.124,-95.1085 307.758,-76 295.929,-63.6933 291.406,-44.4388 289.707,-30.0757"/>
<polygon fill="midnightblue" stroke="midnightblue" points="293.173,-29.5107 288.864,-19.8315 286.196,-30.0849 293.173,-29.5107"/>
</g>
<!-- Node40 -->
<g id="node40" class="node"><title>Node40</title>
<g id="a_node40"><a xlink:href="_ogre_header_suffix_8h.html" target="_top" xlink:title="OgreHeaderSuffix.h">
<polygon fill="none" stroke="black" points="425.258,-0.5 425.258,-19.5 528.258,-19.5 528.258,-0.5 425.258,-0.5"/>
<text text-anchor="middle" x="476.758" y="-7.5" font-family="Helvetica,sans-Serif" font-size="10.00">OgreHeaderSuffix.h</text>
</a>
</g>
</g>
<!-- Node37&#45;&gt;Node40 -->
<g id="edge50" class="edge"><title>Node37&#45;&gt;Node40</title>
<path fill="none" stroke="midnightblue" d="M444.693,-112.393C447.761,-103.35 452.687,-88.7044 456.758,-76 461.769,-60.3644 467.237,-42.5355 471.188,-29.5099"/>
<polygon fill="midnightblue" stroke="midnightblue" points="474.564,-30.4367 474.106,-19.8518 467.863,-28.4122 474.564,-30.4367"/>
</g>
<!-- Node41 -->
<g id="node41" class="node"><title>Node41</title>
<g id="a_node41"><a xlink:href="_ogre_memory_s_t_l_allocator_8h.html" target="_top" xlink:title="OgreMemorySTLAllocator.h">
<polygon fill="none" stroke="black" points="505.258,-56.5 505.258,-75.5 642.258,-75.5 642.258,-56.5 505.258,-56.5"/>
<text text-anchor="middle" x="573.758" y="-63.5" font-family="Helvetica,sans-Serif" font-size="10.00">OgreMemorySTLAllocator.h</text>
</a>
</g>
</g>
<!-- Node37&#45;&gt;Node41 -->
<g id="edge43" class="edge"><title>Node37&#45;&gt;Node41</title>
<path fill="none" stroke="midnightblue" d="M462.674,-112.444C484.494,-103.517 518.908,-89.4387 543.65,-79.3168"/>
<polygon fill="midnightblue" stroke="midnightblue" points="545.01,-82.5422 552.94,-75.5164 542.359,-76.0634 545.01,-82.5422"/>
</g>
<!-- Node42 -->
<g id="node42" class="node"><title>Node42</title>
<g id="a_node42"><a xlink:href="_ogre_memory_ned_pooling_8h.html" target="_top" xlink:title="OgreMemoryNedPooling.h">
<polygon fill="none" stroke="black" points="317.258,-56.5 317.258,-75.5 448.258,-75.5 448.258,-56.5 317.258,-56.5"/>
<text text-anchor="middle" x="382.758" y="-63.5" font-family="Helvetica,sans-Serif" font-size="10.00">OgreMemoryNedPooling.h</text>
</a>
</g>
</g>
<!-- Node37&#45;&gt;Node42 -->
<g id="edge47" class="edge"><title>Node37&#45;&gt;Node42</title>
<path fill="none" stroke="midnightblue" d="M432.279,-112.324C423.557,-104.341 410.415,-92.3128 399.86,-82.6529"/>
<polygon fill="midnightblue" stroke="midnightblue" points="402.15,-80.0036 392.41,-75.8339 397.424,-85.1674 402.15,-80.0036"/>
</g>
<!-- Node38&#45;&gt;Node3 -->
<g id="edge39" class="edge"><title>Node38&#45;&gt;Node3</title>
<path fill="none" stroke="midnightblue" d="M205.403,-75.5125C237.147,-89.009 301.914,-115.478 358.758,-132 409.611,-146.781 468.558,-158.767 511.854,-166.642"/>
<polygon fill="midnightblue" stroke="midnightblue" points="511.491,-170.132 521.953,-168.456 512.729,-163.243 511.491,-170.132"/>
</g>
<!-- Node38&#45;&gt;Node39 -->
<g id="edge40" class="edge"><title>Node38&#45;&gt;Node39</title>
<path fill="none" stroke="midnightblue" d="M202.307,-56.324C218.75,-47.7034 244.193,-34.3643 263.226,-24.3855"/>
<polygon fill="midnightblue" stroke="midnightblue" points="265.019,-27.3977 272.25,-19.6545 261.769,-21.198 265.019,-27.3977"/>
</g>
<!-- Node38&#45;&gt;Node40 -->
<g id="edge41" class="edge"><title>Node38&#45;&gt;Node40</title>
<path fill="none" stroke="midnightblue" d="M231.868,-56.4435C283.164,-46.9246 366.031,-31.5472 420.949,-21.3563"/>
<polygon fill="midnightblue" stroke="midnightblue" points="421.67,-24.7823 430.864,-19.5164 420.393,-17.8998 421.67,-24.7823"/>
</g>
<!-- Node41&#45;&gt;Node3 -->
<g id="edge44" class="edge"><title>Node41&#45;&gt;Node3</title>
<path fill="none" stroke="midnightblue" d="M573.758,-75.5914C573.758,-93.3079 573.758,-134.254 573.758,-158.348"/>
<polygon fill="midnightblue" stroke="midnightblue" points="570.258,-158.368 573.758,-168.368 577.258,-158.369 570.258,-158.368"/>
</g>
<!-- Node41&#45;&gt;Node39 -->
<g id="edge45" class="edge"><title>Node41&#45;&gt;Node39</title>
<path fill="none" stroke="midnightblue" d="M528.599,-56.4435C478.464,-46.9444 397.538,-31.611 343.752,-21.4198"/>
<polygon fill="midnightblue" stroke="midnightblue" points="344.183,-17.9393 333.706,-19.5164 342.879,-24.8169 344.183,-17.9393"/>
</g>
<!-- Node41&#45;&gt;Node40 -->
<g id="edge46" class="edge"><title>Node41&#45;&gt;Node40</title>
<path fill="none" stroke="midnightblue" d="M558.173,-56.324C542.759,-47.7428 518.946,-34.486 501.048,-24.5224"/>
<polygon fill="midnightblue" stroke="midnightblue" points="502.744,-21.4606 492.304,-19.6545 499.339,-27.5767 502.744,-21.4606"/>
</g>
<!-- Node42&#45;&gt;Node39 -->
<g id="edge48" class="edge"><title>Node42&#45;&gt;Node39</title>
<path fill="none" stroke="midnightblue" d="M367.655,-56.324C352.855,-47.8215 330.064,-34.7288 312.776,-24.7975"/>
<polygon fill="midnightblue" stroke="midnightblue" points="314.238,-21.6009 303.823,-19.6545 310.751,-27.6707 314.238,-21.6009"/>
</g>
<!-- Node42&#45;&gt;Node40 -->
<g id="edge49" class="edge"><title>Node42&#45;&gt;Node40</title>
<path fill="none" stroke="midnightblue" d="M397.861,-56.324C412.661,-47.8215 435.452,-34.7288 452.74,-24.7975"/>
<polygon fill="midnightblue" stroke="midnightblue" points="454.765,-27.6707 461.693,-19.6545 451.278,-21.6009 454.765,-27.6707"/>
</g>
<!-- Node43&#45;&gt;Node2 -->
<g id="edge52" class="edge"><title>Node43&#45;&gt;Node2</title>
<path fill="none" stroke="midnightblue" d="M625.061,-336.444C605.814,-327.636 575.606,-313.812 553.558,-303.722"/>
<polygon fill="midnightblue" stroke="midnightblue" points="554.918,-300.495 544.368,-299.516 552.005,-306.86 554.918,-300.495"/>
</g>
<!-- Node44 -->
<g id="node44" class="node"><title>Node44</title>
<g id="a_node44"><a xlink:href="_ogre_vector_set_8h.html" target="_top" xlink:title="OgreVectorSet.h">
<polygon fill="none" stroke="black" points="854.258,-224.5 854.258,-243.5 943.258,-243.5 943.258,-224.5 854.258,-224.5"/>
<text text-anchor="middle" x="898.758" y="-231.5" font-family="Helvetica,sans-Serif" font-size="10.00">OgreVectorSet.h</text>
</a>
</g>
</g>
<!-- Node43&#45;&gt;Node44 -->
<g id="edge53" class="edge"><title>Node43&#45;&gt;Node44</title>
<path fill="none" stroke="midnightblue" d="M685.359,-345.075C730.667,-343.246 803.505,-334.534 854.758,-300 871.837,-288.492 884.085,-267.919 891.254,-252.995"/>
<polygon fill="midnightblue" stroke="midnightblue" points="894.504,-254.302 895.403,-243.745 888.117,-251.437 894.504,-254.302"/>
</g>
<!-- Node46 -->
<g id="node46" class="node"><title>Node46</title>
<g id="a_node46"><a xlink:href="_ogre_vector_set_impl_8h.html" target="_top" xlink:title="OgreVectorSetImpl.h">
<polygon fill="none" stroke="black" points="737.758,-280.5 737.758,-299.5 845.758,-299.5 845.758,-280.5 737.758,-280.5"/>
<text text-anchor="middle" x="791.758" y="-287.5" font-family="Helvetica,sans-Serif" font-size="10.00">OgreVectorSetImpl.h</text>
</a>
</g>
</g>
<!-- Node43&#45;&gt;Node46 -->
<g id="edge59" class="edge"><title>Node43&#45;&gt;Node46</title>
<path fill="none" stroke="midnightblue" d="M667.209,-336.444C691.891,-327.438 730.943,-313.189 758.735,-303.049"/>
<polygon fill="midnightblue" stroke="midnightblue" points="760.222,-306.232 768.417,-299.516 757.823,-299.656 760.222,-306.232"/>
</g>
<!-- Node48 -->
<g id="node48" class="node"><title>Node48</title>
<g id="a_node48"><a xlink:href="_ogre_vector3_8h.html" target="_top" xlink:title="OgreVector3.h">
<polygon fill="none" stroke="black" points="603.758,-280.5 603.758,-299.5 683.758,-299.5 683.758,-280.5 603.758,-280.5"/>
<text text-anchor="middle" x="643.758" y="-287.5" font-family="Helvetica,sans-Serif" font-size="10.00">OgreVector3.h</text>
</a>
</g>
</g>
<!-- Node43&#45;&gt;Node48 -->
<g id="edge65" class="edge"><title>Node43&#45;&gt;Node48</title>
<path fill="none" stroke="midnightblue" d="M643.758,-336.083C643.758,-329.006 643.758,-318.861 643.758,-309.986"/>
<polygon fill="midnightblue" stroke="midnightblue" points="647.258,-309.751 643.758,-299.751 640.258,-309.751 647.258,-309.751"/>
</g>
<!-- Node45 -->
<g id="node45" class="node"><title>Node45</title>
<g id="a_node45"><a xlink:href="_ogre_small_vector_8h.html" target="_top" xlink:title="OgreSmallVector.h">
<polygon fill="none" stroke="red" points="2705.26,-112.5 2705.26,-131.5 2804.26,-131.5 2804.26,-112.5 2705.26,-112.5"/>
<text text-anchor="middle" x="2754.76" y="-119.5" font-family="Helvetica,sans-Serif" font-size="10.00">OgreSmallVector.h</text>
</a>
</g>
</g>
<!-- Node44&#45;&gt;Node45 -->
<g id="edge54" class="edge"><title>Node44&#45;&gt;Node45</title>
<path fill="none" stroke="midnightblue" d="M943.261,-230.362C1191.98,-215.621 2409.01,-143.492 2694.66,-126.562"/>
<polygon fill="midnightblue" stroke="midnightblue" points="2695.05,-130.045 2704.82,-125.959 2694.63,-123.057 2695.05,-130.045"/>
</g>
<!-- Node45&#45;&gt;Node8 -->
<g id="edge56" class="edge"><title>Node45&#45;&gt;Node8</title>
<path fill="none" stroke="midnightblue" d="M2734.32,-112.444C2713.09,-103.557 2679.66,-89.5632 2655.5,-79.4514"/>
<polygon fill="midnightblue" stroke="midnightblue" points="2656.68,-76.1493 2646.1,-75.5164 2653.98,-82.6064 2656.68,-76.1493"/>
</g>
<!-- Node45&#45;&gt;Node10 -->
<g id="edge57" class="edge"><title>Node45&#45;&gt;Node10</title>
<path fill="none" stroke="midnightblue" d="M2744.48,-112.324C2734.92,-104.263 2720.48,-92.0765 2708.97,-82.3695"/>
<polygon fill="midnightblue" stroke="midnightblue" points="2711.13,-79.6076 2701.23,-75.8339 2706.61,-84.9577 2711.13,-79.6076"/>
</g>
<!-- Node45&#45;&gt;Node12 -->
<g id="edge58" class="edge"><title>Node45&#45;&gt;Node12</title>
<path fill="none" stroke="midnightblue" d="M2754.76,-112.083C2754.76,-105.006 2754.76,-94.8611 2754.76,-85.9865"/>
<polygon fill="midnightblue" stroke="midnightblue" points="2758.26,-85.751 2754.76,-75.7511 2751.26,-85.7511 2758.26,-85.751"/>
</g>
<!-- Node45&#45;&gt;Node22 -->
<g id="edge55" class="edge"><title>Node45&#45;&gt;Node22</title>
<path fill="none" stroke="midnightblue" d="M2765.84,-112.324C2776.24,-104.185 2792.02,-91.8395 2804.48,-82.0874"/>
<polygon fill="midnightblue" stroke="midnightblue" points="2806.75,-84.7533 2812.47,-75.8339 2802.44,-79.2407 2806.75,-84.7533"/>
</g>
<!-- Node46&#45;&gt;Node44 -->
<g id="edge60" class="edge"><title>Node46&#45;&gt;Node44</title>
<path fill="none" stroke="midnightblue" d="M808.949,-280.324C826.109,-271.664 852.704,-258.242 872.505,-248.249"/>
<polygon fill="midnightblue" stroke="midnightblue" points="874.259,-251.285 881.609,-243.655 871.105,-245.035 874.259,-251.285"/>
</g>
<!-- Node47 -->
<g id="node47" class="node"><title>Node47</title>
<g id="a_node47"><a xlink:href="_ogre_exception_8h.html" target="_top" xlink:title="OgreException.h">
<polygon fill="none" stroke="red" points="747.258,-224.5 747.258,-243.5 836.258,-243.5 836.258,-224.5 747.258,-224.5"/>
<text text-anchor="middle" x="791.758" y="-231.5" font-family="Helvetica,sans-Serif" font-size="10.00">OgreException.h</text>
</a>
</g>
</g>
<!-- Node46&#45;&gt;Node47 -->
<g id="edge61" class="edge"><title>Node46&#45;&gt;Node47</title>
<path fill="none" stroke="midnightblue" d="M791.758,-280.083C791.758,-273.006 791.758,-262.861 791.758,-253.986"/>
<polygon fill="midnightblue" stroke="midnightblue" points="795.258,-253.751 791.758,-243.751 788.258,-253.751 795.258,-253.751"/>
</g>
<!-- Node47&#45;&gt;Node3 -->
<g id="edge62" class="edge"><title>Node47&#45;&gt;Node3</title>
<path fill="none" stroke="midnightblue" d="M757.215,-224.444C719.505,-215.102 659.018,-200.119 617.893,-189.933"/>
<polygon fill="midnightblue" stroke="midnightblue" points="618.687,-186.524 608.139,-187.516 617.004,-193.318 618.687,-186.524"/>
</g>
<!-- Node47&#45;&gt;Node39 -->
<g id="edge63" class="edge"><title>Node47&#45;&gt;Node39</title>
<path fill="none" stroke="midnightblue" d="M746.988,-225.418C743.866,-224.926 740.766,-224.449 737.758,-224 583.018,-200.914 168.439,-220.987 39.758,-132 9.88998,-111.345 -13.7869,-83.6469 9.75805,-56 37.1021,-23.8922 153.54,-14.6143 227.081,-11.9834"/>
<polygon fill="midnightblue" stroke="midnightblue" points="227.279,-15.4789 237.159,-11.6546 227.05,-8.48263 227.279,-15.4789"/>
</g>
<!-- Node47&#45;&gt;Node40 -->
<g id="edge64" class="edge"><title>Node47&#45;&gt;Node40</title>
<path fill="none" stroke="midnightblue" d="M836.524,-225.005C839.306,-224.63 842.067,-224.29 844.758,-224 1062.51,-200.512 2617.47,-229.158 2813.76,-132 2849.35,-114.382 2888.57,-84.3465 2860.76,-56 2818.87,-13.314 908.945,-11.0253 538.59,-10.9831"/>
<polygon fill="midnightblue" stroke="midnightblue" points="538.339,-7.48319 528.339,-10.9825 538.338,-14.4832 538.339,-7.48319"/>
</g>
<!-- Node48&#45;&gt;Node3 -->
<g id="edge66" class="edge"><title>Node48&#45;&gt;Node3</title>
<path fill="none" stroke="midnightblue" d="M638.265,-280.368C626.764,-262.296 599.961,-220.176 584.772,-196.307"/>
<polygon fill="midnightblue" stroke="midnightblue" points="587.547,-194.149 579.225,-187.591 581.641,-197.907 587.547,-194.149"/>
</g>
<!-- Node49 -->
<g id="node49" class="node"><title>Node49</title>
<g id="a_node49"><a xlink:href="_ogre_quaternion_8h.html" target="_top" xlink:title="OgreQuaternion.h">
<polygon fill="none" stroke="red" points="636.258,-224.5 636.258,-243.5 729.258,-243.5 729.258,-224.5 636.258,-224.5"/>
<text text-anchor="middle" x="682.758" y="-231.5" font-family="Helvetica,sans-Serif" font-size="10.00">OgreQuaternion.h</text>
</a>
</g>
</g>
<!-- Node48&#45;&gt;Node49 -->
<g id="edge67" class="edge"><title>Node48&#45;&gt;Node49</title>
<path fill="none" stroke="midnightblue" d="M650.198,-280.083C655.707,-272.455 663.789,-261.264 670.523,-251.941"/>
<polygon fill="midnightblue" stroke="midnightblue" points="673.42,-253.907 676.438,-243.751 667.745,-249.809 673.42,-253.907"/>
</g>
<!-- Node50 -->
<g id="node50" class="node"><title>Node50</title>
<g id="a_node50"><a xlink:href="_ogre_vector2_8h.html" target="_top" xlink:title="OgreVector2.h">
<polygon fill="none" stroke="red" points="499.758,-224.5 499.758,-243.5 579.758,-243.5 579.758,-224.5 499.758,-224.5"/>
<text text-anchor="middle" x="539.758" y="-231.5" font-family="Helvetica,sans-Serif" font-size="10.00">OgreVector2.h</text>
</a>
</g>
</g>
<!-- Node48&#45;&gt;Node50 -->
<g id="edge69" class="edge"><title>Node48&#45;&gt;Node50</title>
<path fill="none" stroke="midnightblue" d="M627.049,-280.324C610.446,-271.703 584.756,-258.364 565.538,-248.386"/>
<polygon fill="midnightblue" stroke="midnightblue" points="566.914,-245.156 556.426,-243.655 563.688,-251.369 566.914,-245.156"/>
</g>
<!-- Node49&#45;&gt;Node3 -->
<g id="edge68" class="edge"><title>Node49&#45;&gt;Node3</title>
<path fill="none" stroke="midnightblue" d="M665.245,-224.324C647.686,-215.625 620.427,-202.12 600.227,-192.113"/>
<polygon fill="midnightblue" stroke="midnightblue" points="601.742,-188.958 591.227,-187.655 598.634,-195.23 601.742,-188.958"/>
</g>
<!-- Node50&#45;&gt;Node3 -->
<g id="edge70" class="edge"><title>Node50&#45;&gt;Node3</title>
<path fill="none" stroke="midnightblue" d="M545.372,-224.083C550.125,-216.534 557.076,-205.495 562.91,-196.23"/>
<polygon fill="midnightblue" stroke="midnightblue" points="565.882,-198.078 568.248,-187.751 559.958,-194.349 565.882,-198.078"/>
</g>
</g>
</svg>
