<?xml version="1.0" encoding="UTF-8" standalone="no"?>
<!DOCTYPE svg PUBLIC "-//W3C//DTD SVG 1.1//EN"
 "http://www.w3.org/Graphics/SVG/1.1/DTD/svg11.dtd">
<!-- Generated by graphviz version 2.38.0 (20140413.2041)
 -->
<!-- Title: OgreCodec.h Pages: 1 -->
<svg width="599pt" height="140pt"
 viewBox="0.00 0.00 598.50 140.00" xmlns="http://www.w3.org/2000/svg" xmlns:xlink="http://www.w3.org/1999/xlink">
<g id="graph0" class="graph" transform="scale(1 1) rotate(0) translate(4 136)">
<title>OgreCodec.h</title>
<!-- Node1 -->
<g id="node1" class="node"><title>Node1</title>
<polygon fill="#bfbfbf" stroke="black" points="251,-112.5 251,-131.5 325,-131.5 325,-112.5 251,-112.5"/>
<text text-anchor="middle" x="288" y="-119.5" font-family="Helvetica,sans-Serif" font-size="10.00">OgreCodec.h</text>
</g>
<!-- Node2 -->
<g id="node2" class="node"><title>Node2</title>
<g id="a_node2"><a xlink:href="_ogre_image_codec_8h.html" target="_top" xlink:title="OgreImageCodec.h">
<polygon fill="none" stroke="black" points="237.5,-56.5 237.5,-75.5 338.5,-75.5 338.5,-56.5 237.5,-56.5"/>
<text text-anchor="middle" x="288" y="-63.5" font-family="Helvetica,sans-Serif" font-size="10.00">OgreImageCodec.h</text>
</a>
</g>
</g>
<!-- Node1&#45;&gt;Node2 -->
<g id="edge1" class="edge"><title>Node1&#45;&gt;Node2</title>
<path fill="none" stroke="midnightblue" d="M288,-101.805C288,-92.9102 288,-82.7798 288,-75.7511"/>
<polygon fill="midnightblue" stroke="midnightblue" points="284.5,-102.083 288,-112.083 291.5,-102.083 284.5,-102.083"/>
</g>
<!-- Node3 -->
<g id="node3" class="node"><title>Node3</title>
<g id="a_node3"><a xlink:href="_ogre_d_d_s_codec_8h.html" target="_top" xlink:title="OgreDDSCodec.h">
<polygon fill="none" stroke="black" points="0,-0.5 0,-19.5 96,-19.5 96,-0.5 0,-0.5"/>
<text text-anchor="middle" x="48" y="-7.5" font-family="Helvetica,sans-Serif" font-size="10.00">OgreDDSCodec.h</text>
</a>
</g>
</g>
<!-- Node2&#45;&gt;Node3 -->
<g id="edge2" class="edge"><title>Node2&#45;&gt;Node3</title>
<path fill="none" stroke="midnightblue" d="M240.077,-54.2172C194.726,-44.0134 127.558,-28.9006 85.8508,-19.5164"/>
<polygon fill="midnightblue" stroke="midnightblue" points="239.447,-57.663 249.971,-56.4435 240.984,-50.8337 239.447,-57.663"/>
</g>
<!-- Node4 -->
<g id="node4" class="node"><title>Node4</title>
<g id="a_node4"><a xlink:href="_ogre_e_t_c_codec_8h.html" target="_top" xlink:title="OgreETCCodec.h">
<polygon fill="none" stroke="black" points="114.5,-0.5 114.5,-19.5 209.5,-19.5 209.5,-0.5 114.5,-0.5"/>
<text text-anchor="middle" x="162" y="-7.5" font-family="Helvetica,sans-Serif" font-size="10.00">OgreETCCodec.h</text>
</a>
</g>
</g>
<!-- Node2&#45;&gt;Node4 -->
<g id="edge3" class="edge"><title>Node2&#45;&gt;Node4</title>
<path fill="none" stroke="midnightblue" d="M258.84,-52.503C235.219,-42.3795 202.572,-28.388 181.872,-19.5164"/>
<polygon fill="midnightblue" stroke="midnightblue" points="257.465,-55.7213 268.035,-56.4435 260.222,-49.2873 257.465,-55.7213"/>
</g>
<!-- Node5 -->
<g id="node5" class="node"><title>Node5</title>
<g id="a_node5"><a xlink:href="_ogre_free_image_codec_8h.html" target="_top" xlink:title="OgreFreeImageCodec.h">
<polygon fill="none" stroke="black" points="227.5,-0.5 227.5,-19.5 348.5,-19.5 348.5,-0.5 227.5,-0.5"/>
<text text-anchor="middle" x="288" y="-7.5" font-family="Helvetica,sans-Serif" font-size="10.00">OgreFreeImageCodec.h</text>
</a>
</g>
</g>
<!-- Node2&#45;&gt;Node5 -->
<g id="edge4" class="edge"><title>Node2&#45;&gt;Node5</title>
<path fill="none" stroke="midnightblue" d="M288,-45.8045C288,-36.9102 288,-26.7798 288,-19.7511"/>
<polygon fill="midnightblue" stroke="midnightblue" points="284.5,-46.083 288,-56.083 291.5,-46.083 284.5,-46.083"/>
</g>
<!-- Node6 -->
<g id="node6" class="node"><title>Node6</title>
<g id="a_node6"><a xlink:href="_ogre_p_v_r_t_c_codec_8h.html" target="_top" xlink:title="OgrePVRTCCodec.h">
<polygon fill="none" stroke="black" points="366.5,-0.5 366.5,-19.5 475.5,-19.5 475.5,-0.5 366.5,-0.5"/>
<text text-anchor="middle" x="421" y="-7.5" font-family="Helvetica,sans-Serif" font-size="10.00">OgrePVRTCCodec.h</text>
</a>
</g>
</g>
<!-- Node2&#45;&gt;Node6 -->
<g id="edge5" class="edge"><title>Node2&#45;&gt;Node6</title>
<path fill="none" stroke="midnightblue" d="M318.448,-52.6377C343.407,-42.504 378.077,-28.4274 400.024,-19.5164"/>
<polygon fill="midnightblue" stroke="midnightblue" points="317.023,-49.4387 309.074,-56.4435 319.656,-55.9245 317.023,-49.4387"/>
</g>
<!-- Node7 -->
<g id="node7" class="node"><title>Node7</title>
<g id="a_node7"><a xlink:href="_ogre_s_t_b_i_codec_8h.html" target="_top" xlink:title="OgreSTBICodec.h">
<polygon fill="none" stroke="black" points="493.5,-0.5 493.5,-19.5 590.5,-19.5 590.5,-0.5 493.5,-0.5"/>
<text text-anchor="middle" x="542" y="-7.5" font-family="Helvetica,sans-Serif" font-size="10.00">OgreSTBICodec.h</text>
</a>
</g>
</g>
<!-- Node2&#45;&gt;Node7 -->
<g id="edge6" class="edge"><title>Node2&#45;&gt;Node7</title>
<path fill="none" stroke="midnightblue" d="M338.115,-54.3456C386.117,-44.1405 457.615,-28.94 501.941,-19.5164"/>
<polygon fill="midnightblue" stroke="midnightblue" points="337.301,-50.9405 328.247,-56.4435 338.756,-57.7874 337.301,-50.9405"/>
</g>
</g>
</svg>
