<?xml version="1.0" encoding="UTF-8" standalone="no"?>
<!DOCTYPE svg PUBLIC "-//W3C//DTD SVG 1.1//EN"
 "http://www.w3.org/Graphics/SVG/1.1/DTD/svg11.dtd">
<!-- Generated by graphviz version 2.38.0 (20140413.2041)
 -->
<!-- Title: OgreLodConfigSerializer.h Pages: 1 -->
<svg width="3050pt" height="476pt"
 viewBox="0.00 0.00 3050.00 476.00" xmlns="http://www.w3.org/2000/svg" xmlns:xlink="http://www.w3.org/1999/xlink">
<g id="graph0" class="graph" transform="scale(1 1) rotate(0) translate(4 472)">
<title>OgreLodConfigSerializer.h</title>
<!-- Node1 -->
<g id="node1" class="node"><title>Node1</title>
<polygon fill="#bfbfbf" stroke="black" points="741.5,-448.5 741.5,-467.5 872.5,-467.5 872.5,-448.5 741.5,-448.5"/>
<text text-anchor="middle" x="807" y="-455.5" font-family="Helvetica,sans-Serif" font-size="10.00">OgreLodConfigSerializer.h</text>
</g>
<!-- Node2 -->
<g id="node2" class="node"><title>Node2</title>
<g id="a_node2"><a xlink:href="_ogre_lod_prerequisites_8h.html" target="_top" xlink:title="OgreLodPrerequisites.h">
<polygon fill="none" stroke="black" points="747.5,-280.5 747.5,-299.5 866.5,-299.5 866.5,-280.5 747.5,-280.5"/>
<text text-anchor="middle" x="807" y="-287.5" font-family="Helvetica,sans-Serif" font-size="10.00">OgreLodPrerequisites.h</text>
</a>
</g>
</g>
<!-- Node1&#45;&gt;Node2 -->
<g id="edge1" class="edge"><title>Node1&#45;&gt;Node2</title>
<path fill="none" stroke="midnightblue" d="M807,-448.075C807,-421.945 807,-345.211 807,-309.577"/>
<polygon fill="midnightblue" stroke="midnightblue" points="810.5,-309.568 807,-299.568 803.5,-309.568 810.5,-309.568"/>
</g>
<!-- Node43 -->
<g id="node43" class="node"><title>Node43</title>
<g id="a_node43"><a xlink:href="_ogre_data_stream_8h.html" target="_top" xlink:title="OgreDataStream.h">
<polygon fill="none" stroke="black" points="338,-392.5 338,-411.5 436,-411.5 436,-392.5 338,-392.5"/>
<text text-anchor="middle" x="387" y="-399.5" font-family="Helvetica,sans-Serif" font-size="10.00">OgreDataStream.h</text>
</a>
</g>
</g>
<!-- Node1&#45;&gt;Node43 -->
<g id="edge51" class="edge"><title>Node1&#45;&gt;Node43</title>
<path fill="none" stroke="midnightblue" d="M741.375,-448.562C660.452,-438.158 524.092,-420.626 446.228,-410.615"/>
<polygon fill="midnightblue" stroke="midnightblue" points="446.469,-407.117 436.104,-409.313 445.576,-414.06 446.469,-407.117"/>
</g>
<!-- Node50 -->
<g id="node50" class="node"><title>Node50</title>
<g id="a_node50"><a xlink:href="_ogre_serializer_8h.html" target="_top" xlink:title="OgreSerializer.h">
<polygon fill="none" stroke="black" points="844,-224.5 844,-243.5 930,-243.5 930,-224.5 844,-224.5"/>
<text text-anchor="middle" x="887" y="-231.5" font-family="Helvetica,sans-Serif" font-size="10.00">OgreSerializer.h</text>
</a>
</g>
</g>
<!-- Node1&#45;&gt;Node50 -->
<g id="edge67" class="edge"><title>Node1&#45;&gt;Node50</title>
<path fill="none" stroke="midnightblue" d="M811.551,-448.411C823.682,-425.167 857.085,-358.819 875,-300 879.655,-284.717 882.796,-266.833 884.693,-253.697"/>
<polygon fill="midnightblue" stroke="midnightblue" points="888.192,-253.936 886.046,-243.56 881.253,-253.009 888.192,-253.936"/>
</g>
<!-- Node3 -->
<g id="node3" class="node"><title>Node3</title>
<g id="a_node3"><a xlink:href="_ogre_prerequisites_8h.html" target="_top" xlink:title="OgrePrerequisites.h">
<polygon fill="none" stroke="black" points="586.5,-168.5 586.5,-187.5 689.5,-187.5 689.5,-168.5 586.5,-168.5"/>
<text text-anchor="middle" x="638" y="-175.5" font-family="Helvetica,sans-Serif" font-size="10.00">OgrePrerequisites.h</text>
</a>
</g>
</g>
<!-- Node2&#45;&gt;Node3 -->
<g id="edge2" class="edge"><title>Node2&#45;&gt;Node3</title>
<path fill="none" stroke="midnightblue" d="M800.793,-280.316C790.678,-266.702 769.405,-240.218 746,-224 725.006,-209.453 698.58,-198.34 677.123,-190.797"/>
<polygon fill="midnightblue" stroke="midnightblue" points="678.246,-187.482 667.651,-187.583 675.996,-194.11 678.246,-187.482"/>
</g>
<!-- Node4 -->
<g id="node4" class="node"><title>Node4</title>
<g id="a_node4"><a xlink:href="_ogre_platform_8h.html" target="_top" xlink:title="OgrePlatform.h">
<polygon fill="none" stroke="black" points="2419.5,-112.5 2419.5,-131.5 2502.5,-131.5 2502.5,-112.5 2419.5,-112.5"/>
<text text-anchor="middle" x="2461" y="-119.5" font-family="Helvetica,sans-Serif" font-size="10.00">OgrePlatform.h</text>
</a>
</g>
</g>
<!-- Node3&#45;&gt;Node4 -->
<g id="edge3" class="edge"><title>Node3&#45;&gt;Node4</title>
<path fill="none" stroke="midnightblue" d="M689.622,-175.471C953.076,-167.667 2145.55,-132.344 2409.26,-124.532"/>
<polygon fill="midnightblue" stroke="midnightblue" points="2409.44,-128.029 2419.33,-124.234 2409.23,-121.032 2409.44,-128.029"/>
</g>
<!-- Node6 -->
<g id="node6" class="node"><title>Node6</title>
<polygon fill="none" stroke="#bfbfbf" points="692.5,-56.5 692.5,-75.5 733.5,-75.5 733.5,-56.5 692.5,-56.5"/>
<text text-anchor="middle" x="713" y="-63.5" font-family="Helvetica,sans-Serif" font-size="10.00">string</text>
</g>
<!-- Node3&#45;&gt;Node6 -->
<g id="edge5" class="edge"><title>Node3&#45;&gt;Node6</title>
<path fill="none" stroke="midnightblue" d="M643.885,-168.368C656.262,-150.215 685.181,-107.802 701.416,-83.9902"/>
<polygon fill="midnightblue" stroke="midnightblue" points="704.401,-85.8254 707.142,-75.5914 698.617,-81.882 704.401,-85.8254"/>
</g>
<!-- Node7 -->
<g id="node7" class="node"><title>Node7</title>
<g id="a_node7"><a xlink:href="_ogre_std_headers_8h.html" target="_top" xlink:title="OgreStdHeaders.h">
<polygon fill="none" stroke="black" points="1830,-112.5 1830,-131.5 1928,-131.5 1928,-112.5 1830,-112.5"/>
<text text-anchor="middle" x="1879" y="-119.5" font-family="Helvetica,sans-Serif" font-size="10.00">OgreStdHeaders.h</text>
</a>
</g>
</g>
<!-- Node3&#45;&gt;Node7 -->
<g id="edge6" class="edge"><title>Node3&#45;&gt;Node7</title>
<path fill="none" stroke="midnightblue" d="M689.744,-174.748C889.235,-166.068 1607.81,-134.8 1819.76,-125.578"/>
<polygon fill="midnightblue" stroke="midnightblue" points="1819.92,-129.074 1829.76,-125.143 1819.62,-122.081 1819.92,-129.074"/>
</g>
<!-- Node37 -->
<g id="node37" class="node"><title>Node37</title>
<g id="a_node37"><a xlink:href="_ogre_memory_allocator_config_8h.html" target="_top" xlink:title="This file configures Ogre&#39;s memory allocators. ">
<polygon fill="none" stroke="black" points="337,-112.5 337,-131.5 485,-131.5 485,-112.5 337,-112.5"/>
<text text-anchor="middle" x="411" y="-119.5" font-family="Helvetica,sans-Serif" font-size="10.00">OgreMemoryAllocatorConfig.h</text>
</a>
</g>
</g>
<!-- Node3&#45;&gt;Node37 -->
<g id="edge37" class="edge"><title>Node3&#45;&gt;Node37</title>
<path fill="none" stroke="midnightblue" d="M602.031,-168.444C562.681,-159.083 499.513,-144.056 456.686,-133.868"/>
<polygon fill="midnightblue" stroke="midnightblue" points="457.339,-130.426 446.801,-131.516 455.719,-137.236 457.339,-130.426"/>
</g>
<!-- Node5 -->
<g id="node5" class="node"><title>Node5</title>
<g id="a_node5"><a xlink:href="_ogre_config_8h.html" target="_top" xlink:title="OgreConfig.h">
<polygon fill="none" stroke="red" points="2902,-56.5 2902,-75.5 2976,-75.5 2976,-56.5 2902,-56.5"/>
<text text-anchor="middle" x="2939" y="-63.5" font-family="Helvetica,sans-Serif" font-size="10.00">OgreConfig.h</text>
</a>
</g>
</g>
<!-- Node4&#45;&gt;Node5 -->
<g id="edge4" class="edge"><title>Node4&#45;&gt;Node5</title>
<path fill="none" stroke="midnightblue" d="M2502.56,-117.915C2578.01,-112.044 2742.76,-97.9876 2891.65,-76.0785"/>
<polygon fill="midnightblue" stroke="midnightblue" points="2892.52,-79.489 2901.89,-74.5558 2891.49,-72.5651 2892.52,-79.489"/>
</g>
<!-- Node7&#45;&gt;Node6 -->
<g id="edge16" class="edge"><title>Node7&#45;&gt;Node6</title>
<path fill="none" stroke="midnightblue" d="M1829.98,-120.698C1643.41,-119.299 976.829,-111.953 743.919,-75.6175"/>
<polygon fill="midnightblue" stroke="midnightblue" points="744.254,-72.1261 733.822,-73.9777 743.131,-79.0356 744.254,-72.1261"/>
</g>
<!-- Node8 -->
<g id="node8" class="node"><title>Node8</title>
<polygon fill="none" stroke="#bfbfbf" points="1354.5,-56.5 1354.5,-75.5 1403.5,-75.5 1403.5,-56.5 1354.5,-56.5"/>
<text text-anchor="middle" x="1379" y="-63.5" font-family="Helvetica,sans-Serif" font-size="10.00">cassert</text>
</g>
<!-- Node7&#45;&gt;Node8 -->
<g id="edge7" class="edge"><title>Node7&#45;&gt;Node8</title>
<path fill="none" stroke="midnightblue" d="M1829.66,-118.873C1745.97,-114.691 1570.78,-103.457 1413.62,-75.8148"/>
<polygon fill="midnightblue" stroke="midnightblue" points="1414.24,-72.369 1403.78,-74.0568 1413.01,-79.26 1414.24,-72.369"/>
</g>
<!-- Node9 -->
<g id="node9" class="node"><title>Node9</title>
<polygon fill="none" stroke="#bfbfbf" points="1421.5,-56.5 1421.5,-75.5 1464.5,-75.5 1464.5,-56.5 1421.5,-56.5"/>
<text text-anchor="middle" x="1443" y="-63.5" font-family="Helvetica,sans-Serif" font-size="10.00">cstdio</text>
</g>
<!-- Node7&#45;&gt;Node9 -->
<g id="edge8" class="edge"><title>Node7&#45;&gt;Node9</title>
<path fill="none" stroke="midnightblue" d="M1829.96,-118.279C1755.24,-113.537 1608.37,-101.878 1474.58,-75.7618"/>
<polygon fill="midnightblue" stroke="midnightblue" points="1475.05,-72.2873 1464.56,-73.7739 1473.69,-79.1534 1475.05,-72.2873"/>
</g>
<!-- Node10 -->
<g id="node10" class="node"><title>Node10</title>
<polygon fill="none" stroke="#bfbfbf" points="1482.5,-56.5 1482.5,-75.5 1527.5,-75.5 1527.5,-56.5 1482.5,-56.5"/>
<text text-anchor="middle" x="1505" y="-63.5" font-family="Helvetica,sans-Serif" font-size="10.00">cstdlib</text>
</g>
<!-- Node7&#45;&gt;Node10 -->
<g id="edge9" class="edge"><title>Node7&#45;&gt;Node10</title>
<path fill="none" stroke="midnightblue" d="M1829.93,-116.773C1765.13,-110.701 1647.4,-97.9722 1537.55,-75.8277"/>
<polygon fill="midnightblue" stroke="midnightblue" points="1538.13,-72.3731 1527.63,-73.7969 1536.72,-79.2309 1538.13,-72.3731"/>
</g>
<!-- Node11 -->
<g id="node11" class="node"><title>Node11</title>
<polygon fill="none" stroke="#bfbfbf" points="1545.5,-56.5 1545.5,-75.5 1586.5,-75.5 1586.5,-56.5 1545.5,-56.5"/>
<text text-anchor="middle" x="1566" y="-63.5" font-family="Helvetica,sans-Serif" font-size="10.00">ctime</text>
</g>
<!-- Node7&#45;&gt;Node11 -->
<g id="edge10" class="edge"><title>Node7&#45;&gt;Node11</title>
<path fill="none" stroke="midnightblue" d="M1829.79,-115.206C1775.09,-108.313 1684,-95.4982 1596.4,-75.8066"/>
<polygon fill="midnightblue" stroke="midnightblue" points="1597.09,-72.3748 1586.56,-73.563 1595.53,-79.1995 1597.09,-72.3748"/>
</g>
<!-- Node12 -->
<g id="node12" class="node"><title>Node12</title>
<polygon fill="none" stroke="#bfbfbf" points="1605,-56.5 1605,-75.5 1651,-75.5 1651,-56.5 1605,-56.5"/>
<text text-anchor="middle" x="1628" y="-63.5" font-family="Helvetica,sans-Serif" font-size="10.00">cstring</text>
</g>
<!-- Node7&#45;&gt;Node12 -->
<g id="edge11" class="edge"><title>Node7&#45;&gt;Node12</title>
<path fill="none" stroke="midnightblue" d="M1833.3,-112.433C1789.07,-103.935 1720.19,-90.1668 1661,-76 1660.9,-75.9758 1660.8,-75.9515 1660.7,-75.9272"/>
<polygon fill="midnightblue" stroke="midnightblue" points="1661.58,-72.5418 1651.03,-73.4791 1659.87,-79.3275 1661.58,-72.5418"/>
</g>
<!-- Node13 -->
<g id="node13" class="node"><title>Node13</title>
<polygon fill="none" stroke="#bfbfbf" points="1669.5,-56.5 1669.5,-75.5 1718.5,-75.5 1718.5,-56.5 1669.5,-56.5"/>
<text text-anchor="middle" x="1694" y="-63.5" font-family="Helvetica,sans-Serif" font-size="10.00">cstdarg</text>
</g>
<!-- Node7&#45;&gt;Node13 -->
<g id="edge12" class="edge"><title>Node7&#45;&gt;Node13</title>
<path fill="none" stroke="midnightblue" d="M1849.69,-112.444C1816.77,-102.835 1763.39,-87.2558 1728.49,-77.0686"/>
<polygon fill="midnightblue" stroke="midnightblue" points="1729.32,-73.6626 1718.74,-74.2203 1727.35,-80.3822 1729.32,-73.6626"/>
</g>
<!-- Node14 -->
<g id="node14" class="node"><title>Node14</title>
<polygon fill="none" stroke="#bfbfbf" points="1737,-56.5 1737,-75.5 1781,-75.5 1781,-56.5 1737,-56.5"/>
<text text-anchor="middle" x="1759" y="-63.5" font-family="Helvetica,sans-Serif" font-size="10.00">cmath</text>
</g>
<!-- Node7&#45;&gt;Node14 -->
<g id="edge13" class="edge"><title>Node7&#45;&gt;Node14</title>
<path fill="none" stroke="midnightblue" d="M1859.99,-112.444C1840.41,-103.636 1809.69,-89.8116 1787.27,-79.722"/>
<polygon fill="midnightblue" stroke="midnightblue" points="1788.48,-76.4284 1777.93,-75.5164 1785.61,-82.8119 1788.48,-76.4284"/>
</g>
<!-- Node15 -->
<g id="node15" class="node"><title>Node15</title>
<polygon fill="none" stroke="#bfbfbf" points="1799,-56.5 1799,-75.5 1843,-75.5 1843,-56.5 1799,-56.5"/>
<text text-anchor="middle" x="1821" y="-63.5" font-family="Helvetica,sans-Serif" font-size="10.00">vector</text>
</g>
<!-- Node7&#45;&gt;Node15 -->
<g id="edge14" class="edge"><title>Node7&#45;&gt;Node15</title>
<path fill="none" stroke="midnightblue" d="M1869.68,-112.324C1861.11,-104.341 1848.19,-92.3128 1837.81,-82.6529"/>
<polygon fill="midnightblue" stroke="midnightblue" points="1840.19,-80.0865 1830.49,-75.8339 1835.42,-85.2098 1840.19,-80.0865"/>
</g>
<!-- Node16 -->
<g id="node16" class="node"><title>Node16</title>
<polygon fill="none" stroke="#bfbfbf" points="1861.5,-56.5 1861.5,-75.5 1896.5,-75.5 1896.5,-56.5 1861.5,-56.5"/>
<text text-anchor="middle" x="1879" y="-63.5" font-family="Helvetica,sans-Serif" font-size="10.00">map</text>
</g>
<!-- Node7&#45;&gt;Node16 -->
<g id="edge15" class="edge"><title>Node7&#45;&gt;Node16</title>
<path fill="none" stroke="midnightblue" d="M1879,-112.083C1879,-105.006 1879,-94.8611 1879,-85.9865"/>
<polygon fill="midnightblue" stroke="midnightblue" points="1882.5,-85.751 1879,-75.7511 1875.5,-85.7511 1882.5,-85.751"/>
</g>
<!-- Node17 -->
<g id="node17" class="node"><title>Node17</title>
<polygon fill="none" stroke="#bfbfbf" points="1915,-56.5 1915,-75.5 1945,-75.5 1945,-56.5 1915,-56.5"/>
<text text-anchor="middle" x="1930" y="-63.5" font-family="Helvetica,sans-Serif" font-size="10.00">set</text>
</g>
<!-- Node7&#45;&gt;Node17 -->
<g id="edge17" class="edge"><title>Node7&#45;&gt;Node17</title>
<path fill="none" stroke="midnightblue" d="M1887.42,-112.083C1894.85,-104.22 1905.85,-92.5688 1914.81,-83.0813"/>
<polygon fill="midnightblue" stroke="midnightblue" points="1917.41,-85.4244 1921.74,-75.7511 1912.32,-80.618 1917.41,-85.4244"/>
</g>
<!-- Node18 -->
<g id="node18" class="node"><title>Node18</title>
<polygon fill="none" stroke="#bfbfbf" points="1963.5,-56.5 1963.5,-75.5 1992.5,-75.5 1992.5,-56.5 1963.5,-56.5"/>
<text text-anchor="middle" x="1978" y="-63.5" font-family="Helvetica,sans-Serif" font-size="10.00">list</text>
</g>
<!-- Node7&#45;&gt;Node18 -->
<g id="edge18" class="edge"><title>Node7&#45;&gt;Node18</title>
<path fill="none" stroke="midnightblue" d="M1894.91,-112.324C1911.01,-103.54 1936.1,-89.8558 1954.5,-79.8206"/>
<polygon fill="midnightblue" stroke="midnightblue" points="1956.32,-82.8119 1963.42,-74.9507 1952.97,-76.6666 1956.32,-82.8119"/>
</g>
<!-- Node19 -->
<g id="node19" class="node"><title>Node19</title>
<polygon fill="none" stroke="#bfbfbf" points="2010.5,-56.5 2010.5,-75.5 2053.5,-75.5 2053.5,-56.5 2010.5,-56.5"/>
<text text-anchor="middle" x="2032" y="-63.5" font-family="Helvetica,sans-Serif" font-size="10.00">deque</text>
</g>
<!-- Node7&#45;&gt;Node19 -->
<g id="edge19" class="edge"><title>Node7&#45;&gt;Node19</title>
<path fill="none" stroke="midnightblue" d="M1903.24,-112.444C1929.62,-103.133 1971.89,-88.2163 2000.74,-78.0315"/>
<polygon fill="midnightblue" stroke="midnightblue" points="2002.08,-81.2721 2010.34,-74.6433 1999.75,-74.6711 2002.08,-81.2721"/>
</g>
<!-- Node20 -->
<g id="node20" class="node"><title>Node20</title>
<polygon fill="none" stroke="#bfbfbf" points="2071.5,-56.5 2071.5,-75.5 2114.5,-75.5 2114.5,-56.5 2071.5,-56.5"/>
<text text-anchor="middle" x="2093" y="-63.5" font-family="Helvetica,sans-Serif" font-size="10.00">queue</text>
</g>
<!-- Node7&#45;&gt;Node20 -->
<g id="edge20" class="edge"><title>Node7&#45;&gt;Node20</title>
<path fill="none" stroke="midnightblue" d="M1916.5,-112.427C1951.75,-104.236 2006.18,-91.247 2061.76,-76.2458"/>
<polygon fill="midnightblue" stroke="midnightblue" points="2062.68,-79.6226 2071.41,-73.6226 2060.84,-72.8676 2062.68,-79.6226"/>
</g>
<!-- Node21 -->
<g id="node21" class="node"><title>Node21</title>
<polygon fill="none" stroke="#bfbfbf" points="2132.5,-56.5 2132.5,-75.5 2173.5,-75.5 2173.5,-56.5 2132.5,-56.5"/>
<text text-anchor="middle" x="2153" y="-63.5" font-family="Helvetica,sans-Serif" font-size="10.00">bitset</text>
</g>
<!-- Node7&#45;&gt;Node21 -->
<g id="edge21" class="edge"><title>Node7&#45;&gt;Node21</title>
<path fill="none" stroke="midnightblue" d="M1928.17,-113.737C1975.77,-106.312 2050.08,-93.6788 2122.72,-76.0953"/>
<polygon fill="midnightblue" stroke="midnightblue" points="2123.61,-79.48 2132.49,-73.697 2121.94,-72.6818 2123.61,-79.48"/>
</g>
<!-- Node22 -->
<g id="node22" class="node"><title>Node22</title>
<polygon fill="none" stroke="#bfbfbf" points="2192,-56.5 2192,-75.5 2248,-75.5 2248,-56.5 2192,-56.5"/>
<text text-anchor="middle" x="2220" y="-63.5" font-family="Helvetica,sans-Serif" font-size="10.00">algorithm</text>
</g>
<!-- Node7&#45;&gt;Node22 -->
<g id="edge22" class="edge"><title>Node7&#45;&gt;Node22</title>
<path fill="none" stroke="midnightblue" d="M1928.2,-115.126C1986.45,-107.86 2086.58,-94.3897 2181.7,-76.1063"/>
<polygon fill="midnightblue" stroke="midnightblue" points="2182.63,-79.4912 2191.78,-74.1472 2181.29,-72.6199 2182.63,-79.4912"/>
</g>
<!-- Node23 -->
<g id="node23" class="node"><title>Node23</title>
<polygon fill="none" stroke="#bfbfbf" points="2266.5,-56.5 2266.5,-75.5 2325.5,-75.5 2325.5,-56.5 2266.5,-56.5"/>
<text text-anchor="middle" x="2296" y="-63.5" font-family="Helvetica,sans-Serif" font-size="10.00">functional</text>
</g>
<!-- Node7&#45;&gt;Node23 -->
<g id="edge23" class="edge"><title>Node7&#45;&gt;Node23</title>
<path fill="none" stroke="midnightblue" d="M1928.18,-116.86C1998.63,-110.552 2132.51,-97.166 2256.23,-75.9538"/>
<polygon fill="midnightblue" stroke="midnightblue" points="2257,-79.3719 2266.26,-74.2132 2255.81,-72.4751 2257,-79.3719"/>
</g>
<!-- Node24 -->
<g id="node24" class="node"><title>Node24</title>
<polygon fill="none" stroke="#bfbfbf" points="2344,-56.5 2344,-75.5 2384,-75.5 2384,-56.5 2344,-56.5"/>
<text text-anchor="middle" x="2364" y="-63.5" font-family="Helvetica,sans-Serif" font-size="10.00">limits</text>
</g>
<!-- Node7&#45;&gt;Node24 -->
<g id="edge24" class="edge"><title>Node7&#45;&gt;Node24</title>
<path fill="none" stroke="midnightblue" d="M1928.07,-119.412C2010.34,-116.044 2181.26,-106.024 2333.83,-75.8418"/>
<polygon fill="midnightblue" stroke="midnightblue" points="2334.74,-79.229 2343.85,-73.8244 2333.36,-72.3666 2334.74,-79.229"/>
</g>
<!-- Node25 -->
<g id="node25" class="node"><title>Node25</title>
<polygon fill="none" stroke="#bfbfbf" points="2402,-56.5 2402,-75.5 2452,-75.5 2452,-56.5 2402,-56.5"/>
<text text-anchor="middle" x="2427" y="-63.5" font-family="Helvetica,sans-Serif" font-size="10.00">fstream</text>
</g>
<!-- Node7&#45;&gt;Node25 -->
<g id="edge25" class="edge"><title>Node7&#45;&gt;Node25</title>
<path fill="none" stroke="midnightblue" d="M1928.26,-119.495C2018.52,-116.128 2216.5,-105.925 2391.93,-75.8945"/>
<polygon fill="midnightblue" stroke="midnightblue" points="2392.6,-79.3303 2401.86,-74.17 2391.4,-72.4337 2392.6,-79.3303"/>
</g>
<!-- Node26 -->
<g id="node26" class="node"><title>Node26</title>
<polygon fill="none" stroke="#bfbfbf" points="2470.5,-56.5 2470.5,-75.5 2515.5,-75.5 2515.5,-56.5 2470.5,-56.5"/>
<text text-anchor="middle" x="2493" y="-63.5" font-family="Helvetica,sans-Serif" font-size="10.00">iosfwd</text>
</g>
<!-- Node7&#45;&gt;Node26 -->
<g id="edge26" class="edge"><title>Node7&#45;&gt;Node26</title>
<path fill="none" stroke="midnightblue" d="M1928.08,-120.457C2027.15,-118.659 2258.07,-110.925 2460.48,-75.703"/>
<polygon fill="midnightblue" stroke="midnightblue" points="2461.16,-79.1367 2470.4,-73.9503 2459.95,-72.2435 2461.16,-79.1367"/>
</g>
<!-- Node27 -->
<g id="node27" class="node"><title>Node27</title>
<polygon fill="none" stroke="#bfbfbf" points="2534,-56.5 2534,-75.5 2586,-75.5 2586,-56.5 2534,-56.5"/>
<text text-anchor="middle" x="2560" y="-63.5" font-family="Helvetica,sans-Serif" font-size="10.00">sstream</text>
</g>
<!-- Node7&#45;&gt;Node27 -->
<g id="edge27" class="edge"><title>Node7&#45;&gt;Node27</title>
<path fill="none" stroke="midnightblue" d="M1928.38,-120.617C2035.38,-119.129 2296.63,-111.95 2523.63,-75.9267"/>
<polygon fill="midnightblue" stroke="midnightblue" points="2524.42,-79.3456 2533.74,-74.3009 2523.31,-72.4346 2524.42,-79.3456"/>
</g>
<!-- Node28 -->
<g id="node28" class="node"><title>Node28</title>
<polygon fill="none" stroke="#bfbfbf" points="2604,-56.5 2604,-75.5 2672,-75.5 2672,-56.5 2604,-56.5"/>
<text text-anchor="middle" x="2638" y="-63.5" font-family="Helvetica,sans-Serif" font-size="10.00">sys/types.h</text>
</g>
<!-- Node7&#45;&gt;Node28 -->
<g id="edge28" class="edge"><title>Node7&#45;&gt;Node28</title>
<path fill="none" stroke="midnightblue" d="M1928.29,-120.335C2043.23,-118.262 2338.08,-109.931 2593.59,-75.9922"/>
<polygon fill="midnightblue" stroke="midnightblue" points="2594.36,-79.4196 2603.81,-74.6182 2593.43,-72.482 2594.36,-79.4196"/>
</g>
<!-- Node29 -->
<g id="node29" class="node"><title>Node29</title>
<polygon fill="none" stroke="#bfbfbf" points="2690,-56.5 2690,-75.5 2750,-75.5 2750,-56.5 2690,-56.5"/>
<text text-anchor="middle" x="2720" y="-63.5" font-family="Helvetica,sans-Serif" font-size="10.00">sys/stat.h</text>
</g>
<!-- Node7&#45;&gt;Node29 -->
<g id="edge29" class="edge"><title>Node7&#45;&gt;Node29</title>
<path fill="none" stroke="midnightblue" d="M1928.11,-121.152C2052.47,-120.915 2389.94,-116.404 2679.58,-75.9448"/>
<polygon fill="midnightblue" stroke="midnightblue" points="2680.45,-79.3565 2689.86,-74.4904 2679.47,-72.4255 2680.45,-79.3565"/>
</g>
<!-- Node30 -->
<g id="node30" class="node"><title>Node30</title>
<polygon fill="none" stroke="#bfbfbf" points="2768.5,-56.5 2768.5,-75.5 2819.5,-75.5 2819.5,-56.5 2768.5,-56.5"/>
<text text-anchor="middle" x="2794" y="-63.5" font-family="Helvetica,sans-Serif" font-size="10.00">unistd.h</text>
</g>
<!-- Node7&#45;&gt;Node30 -->
<g id="edge30" class="edge"><title>Node7&#45;&gt;Node30</title>
<path fill="none" stroke="midnightblue" d="M1928.09,-119.786C2085.54,-115.695 2577.58,-101.306 2757.98,-75.7697"/>
<polygon fill="midnightblue" stroke="midnightblue" points="2758.75,-79.1943 2768.13,-74.2699 2757.72,-72.2695 2758.75,-79.1943"/>
</g>
<!-- Node31 -->
<g id="node31" class="node"><title>Node31</title>
<polygon fill="none" stroke="#bfbfbf" points="2838,-56.5 2838,-75.5 2884,-75.5 2884,-56.5 2838,-56.5"/>
<text text-anchor="middle" x="2861" y="-63.5" font-family="Helvetica,sans-Serif" font-size="10.00">dlfcn.h</text>
</g>
<!-- Node7&#45;&gt;Node31 -->
<g id="edge31" class="edge"><title>Node7&#45;&gt;Node31</title>
<path fill="none" stroke="midnightblue" d="M1928.15,-120.143C2094.06,-117.026 2633.45,-104.992 2827.63,-75.791"/>
<polygon fill="midnightblue" stroke="midnightblue" points="2828.38,-79.2159 2837.72,-74.207 2827.3,-72.3007 2828.38,-79.2159"/>
</g>
<!-- Node32 -->
<g id="node32" class="node"><title>Node32</title>
<polygon fill="none" stroke="#bfbfbf" points="752,-56.5 752,-75.5 830,-75.5 830,-56.5 752,-56.5"/>
<text text-anchor="middle" x="791" y="-63.5" font-family="Helvetica,sans-Serif" font-size="10.00">ext/hash_map</text>
</g>
<!-- Node7&#45;&gt;Node32 -->
<g id="edge32" class="edge"><title>Node7&#45;&gt;Node32</title>
<path fill="none" stroke="midnightblue" d="M1829.81,-121.346C1681.61,-121.863 1226.38,-119.606 840.193,-75.9619"/>
<polygon fill="midnightblue" stroke="midnightblue" points="840.556,-72.4807 830.224,-74.8242 839.762,-79.4355 840.556,-72.4807"/>
</g>
<!-- Node33 -->
<g id="node33" class="node"><title>Node33</title>
<polygon fill="none" stroke="#bfbfbf" points="848.5,-56.5 848.5,-75.5 921.5,-75.5 921.5,-56.5 848.5,-56.5"/>
<text text-anchor="middle" x="885" y="-63.5" font-family="Helvetica,sans-Serif" font-size="10.00">ext/hash_set</text>
</g>
<!-- Node7&#45;&gt;Node33 -->
<g id="edge33" class="edge"><title>Node7&#45;&gt;Node33</title>
<path fill="none" stroke="midnightblue" d="M1829.95,-121.186C1690.73,-121.18 1281.18,-117.456 931.645,-75.8664"/>
<polygon fill="midnightblue" stroke="midnightblue" points="931.928,-72.3753 921.582,-74.6565 931.092,-79.3253 931.928,-72.3753"/>
</g>
<!-- Node34 -->
<g id="node34" class="node"><title>Node34</title>
<polygon fill="none" stroke="#bfbfbf" points="939.5,-56.5 939.5,-75.5 1010.5,-75.5 1010.5,-56.5 939.5,-56.5"/>
<text text-anchor="middle" x="975" y="-63.5" font-family="Helvetica,sans-Serif" font-size="10.00">sys/param.h</text>
</g>
<!-- Node7&#45;&gt;Node34 -->
<g id="edge34" class="edge"><title>Node7&#45;&gt;Node34</title>
<path fill="none" stroke="midnightblue" d="M1829.87,-120.914C1699.57,-120.155 1334.31,-114.575 1020.97,-75.9148"/>
<polygon fill="midnightblue" stroke="midnightblue" points="1021.14,-72.4087 1010.78,-74.6437 1020.27,-79.3548 1021.14,-72.4087"/>
</g>
<!-- Node35 -->
<g id="node35" class="node"><title>Node35</title>
<polygon fill="none" stroke="#bfbfbf" points="1029,-56.5 1029,-75.5 1195,-75.5 1195,-56.5 1029,-56.5"/>
<text text-anchor="middle" x="1112" y="-63.5" font-family="Helvetica,sans-Serif" font-size="10.00">CoreFoundation/CoreFoundation.h</text>
</g>
<!-- Node7&#45;&gt;Node35 -->
<g id="edge35" class="edge"><title>Node7&#45;&gt;Node35</title>
<path fill="none" stroke="midnightblue" d="M1829.84,-118.245C1719.93,-111.974 1445.74,-95.7027 1205.22,-76.077"/>
<polygon fill="midnightblue" stroke="midnightblue" points="1205.49,-72.5875 1195.23,-75.2589 1204.92,-79.5641 1205.49,-72.5875"/>
</g>
<!-- Node36 -->
<g id="node36" class="node"><title>Node36</title>
<polygon fill="none" stroke="#bfbfbf" points="1213,-56.5 1213,-75.5 1337,-75.5 1337,-56.5 1213,-56.5"/>
<text text-anchor="middle" x="1275" y="-63.5" font-family="Helvetica,sans-Serif" font-size="10.00">emscripten/emscripten.h</text>
</g>
<!-- Node7&#45;&gt;Node36 -->
<g id="edge36" class="edge"><title>Node7&#45;&gt;Node36</title>
<path fill="none" stroke="midnightblue" d="M1829.7,-117.531C1737.27,-110.876 1531.39,-95.3385 1347.45,-76.1145"/>
<polygon fill="midnightblue" stroke="midnightblue" points="1347.63,-72.6143 1337.32,-75.0497 1346.9,-79.576 1347.63,-72.6143"/>
</g>
<!-- Node38 -->
<g id="node38" class="node"><title>Node38</title>
<g id="a_node38"><a xlink:href="_ogre_memory_allocated_object_8h.html" target="_top" xlink:title="OgreMemoryAllocatedObject.h">
<polygon fill="none" stroke="black" points="486,-56.5 486,-75.5 636,-75.5 636,-56.5 486,-56.5"/>
<text text-anchor="middle" x="561" y="-63.5" font-family="Helvetica,sans-Serif" font-size="10.00">OgreMemoryAllocatedObject.h</text>
</a>
</g>
</g>
<!-- Node37&#45;&gt;Node38 -->
<g id="edge38" class="edge"><title>Node37&#45;&gt;Node38</title>
<path fill="none" stroke="midnightblue" d="M434.768,-112.444C459.893,-103.399 499.711,-89.064 527.9,-78.9158"/>
<polygon fill="midnightblue" stroke="midnightblue" points="529.12,-82.1968 537.343,-75.5164 526.749,-75.6106 529.12,-82.1968"/>
</g>
<!-- Node39 -->
<g id="node39" class="node"><title>Node39</title>
<g id="a_node39"><a xlink:href="_ogre_header_prefix_8h.html" target="_top" xlink:title="OgreHeaderPrefix.h">
<polygon fill="none" stroke="black" points="121.5,-0.5 121.5,-19.5 224.5,-19.5 224.5,-0.5 121.5,-0.5"/>
<text text-anchor="middle" x="173" y="-7.5" font-family="Helvetica,sans-Serif" font-size="10.00">OgreHeaderPrefix.h</text>
</a>
</g>
</g>
<!-- Node37&#45;&gt;Node39 -->
<g id="edge42" class="edge"><title>Node37&#45;&gt;Node39</title>
<path fill="none" stroke="midnightblue" d="M383.853,-112.356C358.798,-104.058 320.776,-90.6526 289,-76 271.013,-67.7059 225.018,-41.3249 196.646,-24.8318"/>
<polygon fill="midnightblue" stroke="midnightblue" points="198.168,-21.6679 187.765,-19.6579 194.644,-27.7162 198.168,-21.6679"/>
</g>
<!-- Node40 -->
<g id="node40" class="node"><title>Node40</title>
<g id="a_node40"><a xlink:href="_ogre_header_suffix_8h.html" target="_top" xlink:title="OgreHeaderSuffix.h">
<polygon fill="none" stroke="black" points="509.5,-0.5 509.5,-19.5 612.5,-19.5 612.5,-0.5 509.5,-0.5"/>
<text text-anchor="middle" x="561" y="-7.5" font-family="Helvetica,sans-Serif" font-size="10.00">OgreHeaderSuffix.h</text>
</a>
</g>
</g>
<!-- Node37&#45;&gt;Node40 -->
<g id="edge50" class="edge"><title>Node37&#45;&gt;Node40</title>
<path fill="none" stroke="midnightblue" d="M418.448,-112.197C430.016,-98.8877 453.432,-73.3571 477,-56 494.149,-43.3702 515.292,-32.0632 532.076,-23.9424"/>
<polygon fill="midnightblue" stroke="midnightblue" points="533.843,-26.9785 541.391,-19.5432 530.854,-20.6488 533.843,-26.9785"/>
</g>
<!-- Node41 -->
<g id="node41" class="node"><title>Node41</title>
<g id="a_node41"><a xlink:href="_ogre_memory_s_t_l_allocator_8h.html" target="_top" xlink:title="OgreMemorySTLAllocator.h">
<polygon fill="none" stroke="black" points="104.5,-56.5 104.5,-75.5 241.5,-75.5 241.5,-56.5 104.5,-56.5"/>
<text text-anchor="middle" x="173" y="-63.5" font-family="Helvetica,sans-Serif" font-size="10.00">OgreMemorySTLAllocator.h</text>
</a>
</g>
</g>
<!-- Node37&#45;&gt;Node41 -->
<g id="edge43" class="edge"><title>Node37&#45;&gt;Node41</title>
<path fill="none" stroke="midnightblue" d="M373.288,-112.444C331.857,-103.043 265.243,-87.9291 220.333,-77.7393"/>
<polygon fill="midnightblue" stroke="midnightblue" points="221.062,-74.3159 210.535,-75.5164 219.513,-81.1424 221.062,-74.3159"/>
</g>
<!-- Node42 -->
<g id="node42" class="node"><title>Node42</title>
<g id="a_node42"><a xlink:href="_ogre_memory_ned_pooling_8h.html" target="_top" xlink:title="OgreMemoryNedPooling.h">
<polygon fill="none" stroke="black" points="298.5,-56.5 298.5,-75.5 429.5,-75.5 429.5,-56.5 298.5,-56.5"/>
<text text-anchor="middle" x="364" y="-63.5" font-family="Helvetica,sans-Serif" font-size="10.00">OgreMemoryNedPooling.h</text>
</a>
</g>
</g>
<!-- Node37&#45;&gt;Node42 -->
<g id="edge47" class="edge"><title>Node37&#45;&gt;Node42</title>
<path fill="none" stroke="midnightblue" d="M403.239,-112.083C396.463,-104.298 386.457,-92.8015 378.245,-83.3665"/>
<polygon fill="midnightblue" stroke="midnightblue" points="380.822,-80.9963 371.617,-75.7511 375.542,-85.592 380.822,-80.9963"/>
</g>
<!-- Node38&#45;&gt;Node3 -->
<g id="edge39" class="edge"><title>Node38&#45;&gt;Node3</title>
<path fill="none" stroke="midnightblue" d="M567.014,-75.5914C579.696,-93.7088 609.383,-136.118 626.07,-159.957"/>
<polygon fill="midnightblue" stroke="midnightblue" points="623.356,-162.183 631.958,-168.368 629.091,-158.169 623.356,-162.183"/>
</g>
<!-- Node38&#45;&gt;Node39 -->
<g id="edge40" class="edge"><title>Node38&#45;&gt;Node39</title>
<path fill="none" stroke="midnightblue" d="M499.52,-56.4435C426.969,-46.3461 307.05,-29.6565 234.493,-19.5583"/>
<polygon fill="midnightblue" stroke="midnightblue" points="234.966,-16.0905 224.579,-18.1785 234.001,-23.0237 234.966,-16.0905"/>
</g>
<!-- Node38&#45;&gt;Node40 -->
<g id="edge41" class="edge"><title>Node38&#45;&gt;Node40</title>
<path fill="none" stroke="midnightblue" d="M561,-56.083C561,-49.0059 561,-38.8611 561,-29.9865"/>
<polygon fill="midnightblue" stroke="midnightblue" points="564.5,-29.751 561,-19.7511 557.5,-29.7511 564.5,-29.751"/>
</g>
<!-- Node41&#45;&gt;Node3 -->
<g id="edge44" class="edge"><title>Node41&#45;&gt;Node3</title>
<path fill="none" stroke="midnightblue" d="M189.698,-75.6675C217.575,-89.7523 275.7,-117.491 328,-132 412.265,-155.377 512.979,-167.141 576.232,-172.658"/>
<polygon fill="midnightblue" stroke="midnightblue" points="576.179,-176.166 586.438,-173.522 576.769,-169.19 576.179,-176.166"/>
</g>
<!-- Node41&#45;&gt;Node39 -->
<g id="edge45" class="edge"><title>Node41&#45;&gt;Node39</title>
<path fill="none" stroke="midnightblue" d="M173,-56.083C173,-49.0059 173,-38.8611 173,-29.9865"/>
<polygon fill="midnightblue" stroke="midnightblue" points="176.5,-29.751 173,-19.7511 169.5,-29.7511 176.5,-29.751"/>
</g>
<!-- Node41&#45;&gt;Node40 -->
<g id="edge46" class="edge"><title>Node41&#45;&gt;Node40</title>
<path fill="none" stroke="midnightblue" d="M234.48,-56.4435C307.031,-46.3461 426.95,-29.6565 499.507,-19.5583"/>
<polygon fill="midnightblue" stroke="midnightblue" points="499.999,-23.0237 509.421,-18.1785 499.034,-16.0905 499.999,-23.0237"/>
</g>
<!-- Node42&#45;&gt;Node39 -->
<g id="edge48" class="edge"><title>Node42&#45;&gt;Node39</title>
<path fill="none" stroke="midnightblue" d="M333.735,-56.4435C301.045,-47.2011 248.818,-32.4356 212.817,-22.2572"/>
<polygon fill="midnightblue" stroke="midnightblue" points="213.698,-18.8691 203.123,-19.5164 211.794,-25.6051 213.698,-18.8691"/>
</g>
<!-- Node42&#45;&gt;Node40 -->
<g id="edge49" class="edge"><title>Node42&#45;&gt;Node40</title>
<path fill="none" stroke="midnightblue" d="M395.215,-56.4435C428.933,-47.2011 482.8,-32.4356 519.932,-22.2572"/>
<polygon fill="midnightblue" stroke="midnightblue" points="521.212,-25.5356 529.931,-19.5164 519.361,-18.7846 521.212,-25.5356"/>
</g>
<!-- Node43&#45;&gt;Node3 -->
<g id="edge52" class="edge"><title>Node43&#45;&gt;Node3</title>
<path fill="none" stroke="midnightblue" d="M383.003,-392.338C370.686,-364.215 336.624,-274.374 379,-224 385.357,-216.443 501.545,-198.53 576.121,-187.722"/>
<polygon fill="midnightblue" stroke="midnightblue" points="576.954,-191.138 586.352,-186.246 575.954,-184.21 576.954,-191.138"/>
</g>
<!-- Node43&#45;&gt;Node39 -->
<g id="edge65" class="edge"><title>Node43&#45;&gt;Node39</title>
<path fill="none" stroke="midnightblue" d="M337.986,-397.405C233.85,-388.418 0,-360.5 0,-291 0,-291 0,-291 0,-121 0,-64.4421 66.6574,-35.715 117.22,-22.0599"/>
<polygon fill="midnightblue" stroke="midnightblue" points="118.277,-25.4021 127.093,-19.5261 116.537,-18.6218 118.277,-25.4021"/>
</g>
<!-- Node43&#45;&gt;Node40 -->
<g id="edge66" class="edge"><title>Node43&#45;&gt;Node40</title>
<path fill="none" stroke="midnightblue" d="M436.212,-400.29C798.766,-394.906 3042,-358.848 3042,-291 3042,-291 3042,-291 3042,-121 3042,-87.3101 3032.16,-72.8684 3003,-56 2949.92,-25.2953 997.643,-13.3322 622.865,-11.3162"/>
<polygon fill="midnightblue" stroke="midnightblue" points="622.773,-7.8158 612.754,-11.2622 622.736,-14.8157 622.773,-7.8158"/>
</g>
<!-- Node44 -->
<g id="node44" class="node"><title>Node44</title>
<g id="a_node44"><a xlink:href="_ogre_shared_ptr_8h.html" target="_top" xlink:title="OgreSharedPtr.h">
<polygon fill="none" stroke="black" points="398.5,-336.5 398.5,-355.5 487.5,-355.5 487.5,-336.5 398.5,-336.5"/>
<text text-anchor="middle" x="443" y="-343.5" font-family="Helvetica,sans-Serif" font-size="10.00">OgreSharedPtr.h</text>
</a>
</g>
</g>
<!-- Node43&#45;&gt;Node44 -->
<g id="edge53" class="edge"><title>Node43&#45;&gt;Node44</title>
<path fill="none" stroke="midnightblue" d="M395.997,-392.324C404.194,-384.42 416.506,-372.548 426.472,-362.938"/>
<polygon fill="midnightblue" stroke="midnightblue" points="429.07,-365.295 433.839,-355.834 424.211,-360.256 429.07,-365.295"/>
</g>
<!-- Node49 -->
<g id="node49" class="node"><title>Node49</title>
<polygon fill="none" stroke="#bfbfbf" points="252.5,-336.5 252.5,-355.5 301.5,-355.5 301.5,-336.5 252.5,-336.5"/>
<text text-anchor="middle" x="277" y="-343.5" font-family="Helvetica,sans-Serif" font-size="10.00">istream</text>
</g>
<!-- Node43&#45;&gt;Node49 -->
<g id="edge64" class="edge"><title>Node43&#45;&gt;Node49</title>
<path fill="none" stroke="midnightblue" d="M369.327,-392.324C351.606,-383.625 324.097,-370.12 303.712,-360.113"/>
<polygon fill="midnightblue" stroke="midnightblue" points="305.149,-356.919 294.63,-355.655 302.064,-363.203 305.149,-356.919"/>
</g>
<!-- Node44&#45;&gt;Node3 -->
<g id="edge54" class="edge"><title>Node44&#45;&gt;Node3</title>
<path fill="none" stroke="midnightblue" d="M487.569,-343.007C549.897,-337.536 661.154,-317.403 712,-244 726.916,-222.467 697.484,-203.43 671.437,-191.612"/>
<polygon fill="midnightblue" stroke="midnightblue" points="672.652,-188.324 662.083,-187.593 669.889,-194.756 672.652,-188.324"/>
</g>
<!-- Node45 -->
<g id="node45" class="node"><title>Node45</title>
<g id="a_node45"><a xlink:href="_ogre_atomic_scalar_8h.html" target="_top" xlink:title="OgreAtomicScalar.h">
<polygon fill="none" stroke="black" points="391,-280.5 391,-299.5 495,-299.5 495,-280.5 391,-280.5"/>
<text text-anchor="middle" x="443" y="-287.5" font-family="Helvetica,sans-Serif" font-size="10.00">OgreAtomicScalar.h</text>
</a>
</g>
</g>
<!-- Node44&#45;&gt;Node45 -->
<g id="edge55" class="edge"><title>Node44&#45;&gt;Node45</title>
<path fill="none" stroke="midnightblue" d="M443,-336.083C443,-329.006 443,-318.861 443,-309.986"/>
<polygon fill="midnightblue" stroke="midnightblue" points="446.5,-309.751 443,-299.751 439.5,-309.751 446.5,-309.751"/>
</g>
<!-- Node45&#45;&gt;Node3 -->
<g id="edge56" class="edge"><title>Node45&#45;&gt;Node3</title>
<path fill="none" stroke="midnightblue" d="M426.205,-280.446C404.087,-268.08 369.891,-244.449 387,-224 393.105,-216.703 504.203,-198.913 576.526,-188.014"/>
<polygon fill="midnightblue" stroke="midnightblue" points="577.089,-191.469 586.459,-186.523 576.051,-184.546 577.089,-191.469"/>
</g>
<!-- Node46 -->
<g id="node46" class="node"><title>Node46</title>
<g id="a_node46"><a xlink:href="_ogre_exception_8h.html" target="_top" xlink:title="OgreException.h">
<polygon fill="none" stroke="red" points="212.5,-224.5 212.5,-243.5 301.5,-243.5 301.5,-224.5 212.5,-224.5"/>
<text text-anchor="middle" x="257" y="-231.5" font-family="Helvetica,sans-Serif" font-size="10.00">OgreException.h</text>
</a>
</g>
</g>
<!-- Node45&#45;&gt;Node46 -->
<g id="edge57" class="edge"><title>Node45&#45;&gt;Node46</title>
<path fill="none" stroke="midnightblue" d="M413.528,-280.444C381.829,-271.241 331.268,-256.562 296.225,-246.388"/>
<polygon fill="midnightblue" stroke="midnightblue" points="296.914,-242.943 286.334,-243.516 294.962,-249.666 296.914,-242.943"/>
</g>
<!-- Node47 -->
<g id="node47" class="node"><title>Node47</title>
<g id="a_node47"><a xlink:href="_ogre_platform_information_8h.html" target="_top" xlink:title="OgrePlatformInformation.h">
<polygon fill="none" stroke="black" points="572.5,-224.5 572.5,-243.5 703.5,-243.5 703.5,-224.5 572.5,-224.5"/>
<text text-anchor="middle" x="638" y="-231.5" font-family="Helvetica,sans-Serif" font-size="10.00">OgrePlatformInformation.h</text>
</a>
</g>
</g>
<!-- Node45&#45;&gt;Node47 -->
<g id="edge61" class="edge"><title>Node45&#45;&gt;Node47</title>
<path fill="none" stroke="midnightblue" d="M473.898,-280.444C507.274,-271.201 560.594,-256.436 597.349,-246.257"/>
<polygon fill="midnightblue" stroke="midnightblue" points="598.543,-249.558 607.246,-243.516 596.675,-242.812 598.543,-249.558"/>
</g>
<!-- Node48 -->
<g id="node48" class="node"><title>Node48</title>
<g id="a_node48"><a xlink:href="_ogre_thread_headers_8h.html" target="_top" xlink:title="Threading/OgreThreadHeaders.h">
<polygon fill="none" stroke="red" points="396,-224.5 396,-243.5 554,-243.5 554,-224.5 396,-224.5"/>
<text text-anchor="middle" x="475" y="-231.5" font-family="Helvetica,sans-Serif" font-size="10.00">Threading/OgreThreadHeaders.h</text>
</a>
</g>
</g>
<!-- Node45&#45;&gt;Node48 -->
<g id="edge63" class="edge"><title>Node45&#45;&gt;Node48</title>
<path fill="none" stroke="midnightblue" d="M448.284,-280.083C452.711,-272.613 459.163,-261.724 464.618,-252.52"/>
<polygon fill="midnightblue" stroke="midnightblue" points="467.727,-254.138 469.814,-243.751 461.705,-250.57 467.727,-254.138"/>
</g>
<!-- Node46&#45;&gt;Node3 -->
<g id="edge58" class="edge"><title>Node46&#45;&gt;Node3</title>
<path fill="none" stroke="midnightblue" d="M301.769,-226.111C306.572,-225.39 311.386,-224.674 316,-224 364.776,-216.872 496.88,-198.524 575.905,-187.583"/>
<polygon fill="midnightblue" stroke="midnightblue" points="576.79,-190.994 586.216,-186.156 575.831,-184.061 576.79,-190.994"/>
</g>
<!-- Node46&#45;&gt;Node39 -->
<g id="edge59" class="edge"><title>Node46&#45;&gt;Node39</title>
<path fill="none" stroke="midnightblue" d="M237.229,-224.428C195.487,-205.091 99.1579,-153.622 62,-76 48.7919,-48.4087 81.4979,-31.7344 114.765,-22.1938"/>
<polygon fill="midnightblue" stroke="midnightblue" points="115.829,-25.5324 124.589,-19.5734 114.025,-18.7689 115.829,-25.5324"/>
</g>
<!-- Node46&#45;&gt;Node40 -->
<g id="edge60" class="edge"><title>Node46&#45;&gt;Node40</title>
<path fill="none" stroke="midnightblue" d="M301.686,-230.283C385.886,-222.472 566.606,-192.291 645,-76 660.604,-52.8532 628.378,-34.3518 599.435,-23.0961"/>
<polygon fill="midnightblue" stroke="midnightblue" points="600.412,-19.7265 589.819,-19.5605 597.996,-26.2965 600.412,-19.7265"/>
</g>
<!-- Node47&#45;&gt;Node3 -->
<g id="edge62" class="edge"><title>Node47&#45;&gt;Node3</title>
<path fill="none" stroke="midnightblue" d="M638,-224.083C638,-217.006 638,-206.861 638,-197.986"/>
<polygon fill="midnightblue" stroke="midnightblue" points="641.5,-197.751 638,-187.751 634.5,-197.751 641.5,-197.751"/>
</g>
<!-- Node50&#45;&gt;Node3 -->
<g id="edge68" class="edge"><title>Node50&#45;&gt;Node3</title>
<path fill="none" stroke="midnightblue" d="M847.545,-224.444C804.108,-215.023 734.214,-199.866 687.224,-189.675"/>
<polygon fill="midnightblue" stroke="midnightblue" points="687.785,-186.215 677.27,-187.516 686.301,-193.056 687.785,-186.215"/>
</g>
<!-- Node50&#45;&gt;Node39 -->
<g id="edge69" class="edge"><title>Node50&#45;&gt;Node39</title>
<path fill="none" stroke="midnightblue" d="M867.301,-224.498C833.41,-210.267 761.575,-181.824 698,-168 565.545,-139.197 178.905,-182.461 95,-76 78.1145,-54.5753 110.147,-35.3005 138.126,-23.4055"/>
<polygon fill="midnightblue" stroke="midnightblue" points="139.803,-26.5029 147.766,-19.5145 137.183,-20.0117 139.803,-26.5029"/>
</g>
<!-- Node50&#45;&gt;Node40 -->
<g id="edge70" class="edge"><title>Node50&#45;&gt;Node40</title>
<path fill="none" stroke="midnightblue" d="M930.074,-232.716C1241.77,-230.295 3135.43,-209.253 2985,-56 2942.36,-12.5591 996.357,-10.884 622.688,-10.9633"/>
<polygon fill="midnightblue" stroke="midnightblue" points="622.606,-7.46323 612.607,-10.966 622.608,-14.4632 622.606,-7.46323"/>
</g>
</g>
</svg>
