<?xml version="1.0" encoding="UTF-8" standalone="no"?>
<!DOCTYPE svg PUBLIC "-//W3C//DTD SVG 1.1//EN"
 "http://www.w3.org/Graphics/SVG/1.1/DTD/svg11.dtd">
<!-- Generated by graphviz version 2.38.0 (20140413.2041)
 -->
<!-- Title: OgreStdHeaders.h Pages: 1 -->
<svg width="2200pt" height="84pt"
 viewBox="0.00 0.00 2199.50 84.00" xmlns="http://www.w3.org/2000/svg" xmlns:xlink="http://www.w3.org/1999/xlink">
<g id="graph0" class="graph" transform="scale(1 1) rotate(0) translate(4 80)">
<title>OgreStdHeaders.h</title>
<!-- Node1 -->
<g id="node1" class="node"><title>Node1</title>
<polygon fill="#bfbfbf" stroke="black" points="841.5,-56.5 841.5,-75.5 939.5,-75.5 939.5,-56.5 841.5,-56.5"/>
<text text-anchor="middle" x="890.5" y="-63.5" font-family="Helvetica,sans-Serif" font-size="10.00">OgreStdHeaders.h</text>
</g>
<!-- Node2 -->
<g id="node2" class="node"><title>Node2</title>
<polygon fill="none" stroke="#bfbfbf" points="0,-0.5 0,-19.5 49,-19.5 49,-0.5 0,-0.5"/>
<text text-anchor="middle" x="24.5" y="-7.5" font-family="Helvetica,sans-Serif" font-size="10.00">cassert</text>
</g>
<!-- Node1&#45;&gt;Node2 -->
<g id="edge1" class="edge"><title>Node1&#45;&gt;Node2</title>
<path fill="none" stroke="midnightblue" d="M841.324,-63.7141C689.537,-59.5335 228.898,-45.2089 59.2688,-19.9172"/>
<polygon fill="midnightblue" stroke="midnightblue" points="59.6624,-16.4364 49.2424,-18.3535 58.5836,-23.3528 59.6624,-16.4364"/>
</g>
<!-- Node3 -->
<g id="node3" class="node"><title>Node3</title>
<polygon fill="none" stroke="#bfbfbf" points="67,-0.5 67,-19.5 110,-19.5 110,-0.5 67,-0.5"/>
<text text-anchor="middle" x="88.5" y="-7.5" font-family="Helvetica,sans-Serif" font-size="10.00">cstdio</text>
</g>
<!-- Node1&#45;&gt;Node3 -->
<g id="edge2" class="edge"><title>Node1&#45;&gt;Node3</title>
<path fill="none" stroke="midnightblue" d="M841.303,-63.6323C697.206,-59.3942 276.9,-45.3195 120.244,-19.8777"/>
<polygon fill="midnightblue" stroke="midnightblue" points="120.759,-16.4149 110.313,-18.1854 119.583,-23.3155 120.759,-16.4149"/>
</g>
<!-- Node4 -->
<g id="node4" class="node"><title>Node4</title>
<polygon fill="none" stroke="#bfbfbf" points="128,-0.5 128,-19.5 173,-19.5 173,-0.5 128,-0.5"/>
<text text-anchor="middle" x="150.5" y="-7.5" font-family="Helvetica,sans-Serif" font-size="10.00">cstdlib</text>
</g>
<!-- Node1&#45;&gt;Node4 -->
<g id="edge3" class="edge"><title>Node1&#45;&gt;Node4</title>
<path fill="none" stroke="midnightblue" d="M841.499,-65.5637C727.261,-66.0926 434.476,-62.9122 183.104,-19.9121"/>
<polygon fill="midnightblue" stroke="midnightblue" points="183.504,-16.4292 173.052,-18.1673 182.306,-23.326 183.504,-16.4292"/>
</g>
<!-- Node5 -->
<g id="node5" class="node"><title>Node5</title>
<polygon fill="none" stroke="#bfbfbf" points="191,-0.5 191,-19.5 232,-19.5 232,-0.5 191,-0.5"/>
<text text-anchor="middle" x="211.5" y="-7.5" font-family="Helvetica,sans-Serif" font-size="10.00">ctime</text>
</g>
<!-- Node1&#45;&gt;Node5 -->
<g id="edge4" class="edge"><title>Node1&#45;&gt;Node5</title>
<path fill="none" stroke="midnightblue" d="M841.189,-65.2965C733.729,-65.1464 470.475,-60.4545 242.168,-19.652"/>
<polygon fill="midnightblue" stroke="midnightblue" points="242.474,-16.1504 232.01,-17.8082 241.224,-23.0379 242.474,-16.1504"/>
</g>
<!-- Node6 -->
<g id="node6" class="node"><title>Node6</title>
<polygon fill="none" stroke="#bfbfbf" points="250.5,-0.5 250.5,-19.5 296.5,-19.5 296.5,-0.5 250.5,-0.5"/>
<text text-anchor="middle" x="273.5" y="-7.5" font-family="Helvetica,sans-Serif" font-size="10.00">cstring</text>
</g>
<!-- Node1&#45;&gt;Node6 -->
<g id="edge5" class="edge"><title>Node1&#45;&gt;Node6</title>
<path fill="none" stroke="midnightblue" d="M841.167,-64.4798C741.588,-62.7242 509.472,-55.0612 306.732,-19.8765"/>
<polygon fill="midnightblue" stroke="midnightblue" points="307.251,-16.4141 296.795,-18.1256 306.036,-23.3079 307.251,-16.4141"/>
</g>
<!-- Node7 -->
<g id="node7" class="node"><title>Node7</title>
<polygon fill="none" stroke="#bfbfbf" points="315,-0.5 315,-19.5 364,-19.5 364,-0.5 315,-0.5"/>
<text text-anchor="middle" x="339.5" y="-7.5" font-family="Helvetica,sans-Serif" font-size="10.00">cstdarg</text>
</g>
<!-- Node1&#45;&gt;Node7 -->
<g id="edge6" class="edge"><title>Node1&#45;&gt;Node7</title>
<path fill="none" stroke="midnightblue" d="M841.31,-63.5323C750.695,-60.2192 551.266,-50.0894 374.286,-19.8227"/>
<polygon fill="midnightblue" stroke="midnightblue" points="374.725,-16.3466 364.273,-18.0844 373.527,-23.2434 374.725,-16.3466"/>
</g>
<!-- Node8 -->
<g id="node8" class="node"><title>Node8</title>
<polygon fill="none" stroke="#bfbfbf" points="382.5,-0.5 382.5,-19.5 426.5,-19.5 426.5,-0.5 382.5,-0.5"/>
<text text-anchor="middle" x="404.5" y="-7.5" font-family="Helvetica,sans-Serif" font-size="10.00">cmath</text>
</g>
<!-- Node1&#45;&gt;Node8 -->
<g id="edge7" class="edge"><title>Node1&#45;&gt;Node8</title>
<path fill="none" stroke="midnightblue" d="M841.257,-63.0983C759.123,-59.2812 588.96,-48.6253 436.731,-19.9034"/>
<polygon fill="midnightblue" stroke="midnightblue" points="437.212,-16.4318 426.731,-17.9853 435.893,-23.3065 437.212,-16.4318"/>
</g>
<!-- Node9 -->
<g id="node9" class="node"><title>Node9</title>
<polygon fill="none" stroke="#bfbfbf" points="444.5,-0.5 444.5,-19.5 488.5,-19.5 488.5,-0.5 444.5,-0.5"/>
<text text-anchor="middle" x="466.5" y="-7.5" font-family="Helvetica,sans-Serif" font-size="10.00">vector</text>
</g>
<!-- Node1&#45;&gt;Node9 -->
<g id="edge8" class="edge"><title>Node1&#45;&gt;Node9</title>
<path fill="none" stroke="midnightblue" d="M841.379,-62.0443C768.474,-57.0739 627.275,-45.2098 498.757,-19.9453"/>
<polygon fill="midnightblue" stroke="midnightblue" points="499.232,-16.471 488.74,-17.9433 497.86,-23.3353 499.232,-16.471"/>
</g>
<!-- Node10 -->
<g id="node10" class="node"><title>Node10</title>
<polygon fill="none" stroke="#bfbfbf" points="507,-0.5 507,-19.5 542,-19.5 542,-0.5 507,-0.5"/>
<text text-anchor="middle" x="524.5" y="-7.5" font-family="Helvetica,sans-Serif" font-size="10.00">map</text>
</g>
<!-- Node1&#45;&gt;Node10 -->
<g id="edge9" class="edge"><title>Node1&#45;&gt;Node10</title>
<path fill="none" stroke="midnightblue" d="M841.235,-61.6119C776.609,-56.4808 659.684,-44.8364 552.291,-20.0393"/>
<polygon fill="midnightblue" stroke="midnightblue" points="552.799,-16.5632 542.263,-17.6782 551.194,-23.3769 552.799,-16.5632"/>
</g>
<!-- Node11 -->
<g id="node11" class="node"><title>Node11</title>
<polygon fill="none" stroke="#bfbfbf" points="560,-0.5 560,-19.5 601,-19.5 601,-0.5 560,-0.5"/>
<text text-anchor="middle" x="580.5" y="-7.5" font-family="Helvetica,sans-Serif" font-size="10.00">string</text>
</g>
<!-- Node1&#45;&gt;Node11 -->
<g id="edge10" class="edge"><title>Node1&#45;&gt;Node11</title>
<path fill="none" stroke="midnightblue" d="M841.311,-59.0959C787.181,-52.1544 697.489,-39.3452 611.04,-19.8431"/>
<polygon fill="midnightblue" stroke="midnightblue" points="611.59,-16.3786 601.061,-17.5584 610.028,-23.2021 611.59,-16.3786"/>
</g>
<!-- Node12 -->
<g id="node12" class="node"><title>Node12</title>
<polygon fill="none" stroke="#bfbfbf" points="619.5,-0.5 619.5,-19.5 649.5,-19.5 649.5,-0.5 619.5,-0.5"/>
<text text-anchor="middle" x="634.5" y="-7.5" font-family="Helvetica,sans-Serif" font-size="10.00">set</text>
</g>
<!-- Node1&#45;&gt;Node12 -->
<g id="edge11" class="edge"><title>Node1&#45;&gt;Node12</title>
<path fill="none" stroke="midnightblue" d="M841.06,-57.8683C795.925,-50.8095 727.298,-38.7054 659.588,-19.922"/>
<polygon fill="midnightblue" stroke="midnightblue" points="660.183,-16.453 649.608,-17.102 658.279,-23.1893 660.183,-16.453"/>
</g>
<!-- Node13 -->
<g id="node13" class="node"><title>Node13</title>
<polygon fill="none" stroke="#bfbfbf" points="668,-0.5 668,-19.5 697,-19.5 697,-0.5 668,-0.5"/>
<text text-anchor="middle" x="682.5" y="-7.5" font-family="Helvetica,sans-Serif" font-size="10.00">list</text>
</g>
<!-- Node1&#45;&gt;Node13 -->
<g id="edge12" class="edge"><title>Node1&#45;&gt;Node13</title>
<path fill="none" stroke="midnightblue" d="M848.546,-56.4811C812.899,-48.8681 760.266,-36.7469 707.074,-20.2235"/>
<polygon fill="midnightblue" stroke="midnightblue" points="708.08,-16.8708 697.49,-17.1996 705.974,-23.5464 708.08,-16.8708"/>
</g>
<!-- Node14 -->
<g id="node14" class="node"><title>Node14</title>
<polygon fill="none" stroke="#bfbfbf" points="715,-0.5 715,-19.5 758,-19.5 758,-0.5 715,-0.5"/>
<text text-anchor="middle" x="736.5" y="-7.5" font-family="Helvetica,sans-Serif" font-size="10.00">deque</text>
</g>
<!-- Node1&#45;&gt;Node14 -->
<g id="edge13" class="edge"><title>Node1&#45;&gt;Node14</title>
<path fill="none" stroke="midnightblue" d="M866.098,-56.4435C839.545,-47.1326 797.006,-32.2163 767.96,-22.0315"/>
<polygon fill="midnightblue" stroke="midnightblue" points="768.892,-18.6495 758.298,-18.6433 766.576,-25.2552 768.892,-18.6495"/>
</g>
<!-- Node15 -->
<g id="node15" class="node"><title>Node15</title>
<polygon fill="none" stroke="#bfbfbf" points="776,-0.5 776,-19.5 819,-19.5 819,-0.5 776,-0.5"/>
<text text-anchor="middle" x="797.5" y="-7.5" font-family="Helvetica,sans-Serif" font-size="10.00">queue</text>
</g>
<!-- Node1&#45;&gt;Node15 -->
<g id="edge14" class="edge"><title>Node1&#45;&gt;Node15</title>
<path fill="none" stroke="midnightblue" d="M875.558,-56.324C860.915,-47.8215 838.366,-34.7288 821.262,-24.7975"/>
<polygon fill="midnightblue" stroke="midnightblue" points="822.81,-21.6491 812.405,-19.6545 819.295,-27.7027 822.81,-21.6491"/>
</g>
<!-- Node16 -->
<g id="node16" class="node"><title>Node16</title>
<polygon fill="none" stroke="#bfbfbf" points="837,-0.5 837,-19.5 878,-19.5 878,-0.5 837,-0.5"/>
<text text-anchor="middle" x="857.5" y="-7.5" font-family="Helvetica,sans-Serif" font-size="10.00">bitset</text>
</g>
<!-- Node1&#45;&gt;Node16 -->
<g id="edge15" class="edge"><title>Node1&#45;&gt;Node16</title>
<path fill="none" stroke="midnightblue" d="M885.051,-56.083C880.486,-48.6127 873.832,-37.7244 868.207,-28.5199"/>
<polygon fill="midnightblue" stroke="midnightblue" points="871.049,-26.4588 862.848,-19.7511 865.076,-30.109 871.049,-26.4588"/>
</g>
<!-- Node17 -->
<g id="node17" class="node"><title>Node17</title>
<polygon fill="none" stroke="#bfbfbf" points="896.5,-0.5 896.5,-19.5 952.5,-19.5 952.5,-0.5 896.5,-0.5"/>
<text text-anchor="middle" x="924.5" y="-7.5" font-family="Helvetica,sans-Serif" font-size="10.00">algorithm</text>
</g>
<!-- Node1&#45;&gt;Node17 -->
<g id="edge16" class="edge"><title>Node1&#45;&gt;Node17</title>
<path fill="none" stroke="midnightblue" d="M896.114,-56.083C900.867,-48.5341 907.818,-37.4948 913.652,-28.2298"/>
<polygon fill="midnightblue" stroke="midnightblue" points="916.624,-30.0783 918.99,-19.7511 910.7,-26.3486 916.624,-30.0783"/>
</g>
<!-- Node18 -->
<g id="node18" class="node"><title>Node18</title>
<polygon fill="none" stroke="#bfbfbf" points="971,-0.5 971,-19.5 1030,-19.5 1030,-0.5 971,-0.5"/>
<text text-anchor="middle" x="1000.5" y="-7.5" font-family="Helvetica,sans-Serif" font-size="10.00">functional</text>
</g>
<!-- Node1&#45;&gt;Node18 -->
<g id="edge17" class="edge"><title>Node1&#45;&gt;Node18</title>
<path fill="none" stroke="midnightblue" d="M908.173,-56.324C925.894,-47.6247 953.403,-34.1202 973.788,-24.113"/>
<polygon fill="midnightblue" stroke="midnightblue" points="975.436,-27.2031 982.87,-19.6545 972.351,-20.9195 975.436,-27.2031"/>
</g>
<!-- Node19 -->
<g id="node19" class="node"><title>Node19</title>
<polygon fill="none" stroke="#bfbfbf" points="1048.5,-0.5 1048.5,-19.5 1088.5,-19.5 1088.5,-0.5 1048.5,-0.5"/>
<text text-anchor="middle" x="1068.5" y="-7.5" font-family="Helvetica,sans-Serif" font-size="10.00">limits</text>
</g>
<!-- Node1&#45;&gt;Node19 -->
<g id="edge18" class="edge"><title>Node1&#45;&gt;Node19</title>
<path fill="none" stroke="midnightblue" d="M919.084,-56.4377C947.159,-48.0124 991.461,-34.6766 1038.47,-20.299"/>
<polygon fill="midnightblue" stroke="midnightblue" points="1039.69,-23.588 1048.22,-17.3139 1037.64,-16.8946 1039.69,-23.588"/>
</g>
<!-- Node20 -->
<g id="node20" class="node"><title>Node20</title>
<polygon fill="none" stroke="#bfbfbf" points="1106.5,-0.5 1106.5,-19.5 1156.5,-19.5 1156.5,-0.5 1106.5,-0.5"/>
<text text-anchor="middle" x="1131.5" y="-7.5" font-family="Helvetica,sans-Serif" font-size="10.00">fstream</text>
</g>
<!-- Node1&#45;&gt;Node20 -->
<g id="edge19" class="edge"><title>Node1&#45;&gt;Node20</title>
<path fill="none" stroke="midnightblue" d="M932.256,-56.4947C972.024,-48.2666 1033.8,-35.1559 1096.25,-20.2219"/>
<polygon fill="midnightblue" stroke="midnightblue" points="1097.38,-23.5518 1106.28,-17.8099 1095.74,-16.746 1097.38,-23.5518"/>
</g>
<!-- Node21 -->
<g id="node21" class="node"><title>Node21</title>
<polygon fill="none" stroke="#bfbfbf" points="1175,-0.5 1175,-19.5 1220,-19.5 1220,-0.5 1175,-0.5"/>
<text text-anchor="middle" x="1197.5" y="-7.5" font-family="Helvetica,sans-Serif" font-size="10.00">iosfwd</text>
</g>
<!-- Node1&#45;&gt;Node21 -->
<g id="edge20" class="edge"><title>Node1&#45;&gt;Node21</title>
<path fill="none" stroke="midnightblue" d="M939.747,-58.6366C992.97,-51.3818 1080.42,-38.3685 1165.08,-19.8707"/>
<polygon fill="midnightblue" stroke="midnightblue" points="1165.85,-23.2859 1174.85,-17.7076 1164.33,-16.4513 1165.85,-23.2859"/>
</g>
<!-- Node22 -->
<g id="node22" class="node"><title>Node22</title>
<polygon fill="none" stroke="#bfbfbf" points="1238.5,-0.5 1238.5,-19.5 1290.5,-19.5 1290.5,-0.5 1238.5,-0.5"/>
<text text-anchor="middle" x="1264.5" y="-7.5" font-family="Helvetica,sans-Serif" font-size="10.00">sstream</text>
</g>
<!-- Node1&#45;&gt;Node22 -->
<g id="edge21" class="edge"><title>Node1&#45;&gt;Node22</title>
<path fill="none" stroke="midnightblue" d="M939.639,-60.3424C1003.85,-53.8452 1119.92,-40.6931 1228.1,-20.0747"/>
<polygon fill="midnightblue" stroke="midnightblue" points="1229.05,-23.4556 1238.2,-18.1219 1227.72,-16.5827 1229.05,-23.4556"/>
</g>
<!-- Node23 -->
<g id="node23" class="node"><title>Node23</title>
<polygon fill="none" stroke="#bfbfbf" points="1308.5,-0.5 1308.5,-19.5 1376.5,-19.5 1376.5,-0.5 1308.5,-0.5"/>
<text text-anchor="middle" x="1342.5" y="-7.5" font-family="Helvetica,sans-Serif" font-size="10.00">sys/types.h</text>
</g>
<!-- Node1&#45;&gt;Node23 -->
<g id="edge22" class="edge"><title>Node1&#45;&gt;Node23</title>
<path fill="none" stroke="midnightblue" d="M939.812,-61.1256C1014.99,-54.8788 1162.95,-41.2498 1298.16,-20.076"/>
<polygon fill="midnightblue" stroke="midnightblue" points="1298.96,-23.4935 1308.29,-18.4722 1297.86,-16.5797 1298.96,-23.4935"/>
</g>
<!-- Node24 -->
<g id="node24" class="node"><title>Node24</title>
<polygon fill="none" stroke="#bfbfbf" points="1394.5,-0.5 1394.5,-19.5 1454.5,-19.5 1454.5,-0.5 1394.5,-0.5"/>
<text text-anchor="middle" x="1424.5" y="-7.5" font-family="Helvetica,sans-Serif" font-size="10.00">sys/stat.h</text>
</g>
<!-- Node1&#45;&gt;Node24 -->
<g id="edge23" class="edge"><title>Node1&#45;&gt;Node24</title>
<path fill="none" stroke="midnightblue" d="M939.605,-62.7548C1027.1,-58.2719 1215.83,-46.4243 1384.3,-19.9832"/>
<polygon fill="midnightblue" stroke="midnightblue" points="1385.02,-23.4133 1394.35,-18.3857 1383.92,-16.5002 1385.02,-23.4133"/>
</g>
<!-- Node25 -->
<g id="node25" class="node"><title>Node25</title>
<polygon fill="none" stroke="#bfbfbf" points="1473,-0.5 1473,-19.5 1524,-19.5 1524,-0.5 1473,-0.5"/>
<text text-anchor="middle" x="1498.5" y="-7.5" font-family="Helvetica,sans-Serif" font-size="10.00">unistd.h</text>
</g>
<!-- Node1&#45;&gt;Node25 -->
<g id="edge24" class="edge"><title>Node1&#45;&gt;Node25</title>
<path fill="none" stroke="midnightblue" d="M939.521,-64.0078C1037.32,-61.4116 1263.64,-52.3165 1462.93,-19.7714"/>
<polygon fill="midnightblue" stroke="midnightblue" points="1463.7,-23.1907 1472.99,-18.103 1462.56,-16.2848 1463.7,-23.1907"/>
</g>
<!-- Node26 -->
<g id="node26" class="node"><title>Node26</title>
<polygon fill="none" stroke="#bfbfbf" points="1542.5,-0.5 1542.5,-19.5 1588.5,-19.5 1588.5,-0.5 1542.5,-0.5"/>
<text text-anchor="middle" x="1565.5" y="-7.5" font-family="Helvetica,sans-Serif" font-size="10.00">dlfcn.h</text>
</g>
<!-- Node1&#45;&gt;Node26 -->
<g id="edge25" class="edge"><title>Node1&#45;&gt;Node26</title>
<path fill="none" stroke="midnightblue" d="M939.713,-64.9669C1046.34,-64.1632 1306.6,-58.2476 1532.17,-19.8775"/>
<polygon fill="midnightblue" stroke="midnightblue" points="1532.95,-23.2951 1542.21,-18.1447 1531.76,-16.3971 1532.95,-23.2951"/>
</g>
<!-- Node27 -->
<g id="node27" class="node"><title>Node27</title>
<polygon fill="none" stroke="#bfbfbf" points="1606.5,-0.5 1606.5,-19.5 1684.5,-19.5 1684.5,-0.5 1606.5,-0.5"/>
<text text-anchor="middle" x="1645.5" y="-7.5" font-family="Helvetica,sans-Serif" font-size="10.00">ext/hash_map</text>
</g>
<!-- Node1&#45;&gt;Node27 -->
<g id="edge26" class="edge"><title>Node1&#45;&gt;Node27</title>
<path fill="none" stroke="midnightblue" d="M939.55,-63.9328C1053.26,-61.017 1343.79,-51.0321 1596.17,-20.0131"/>
<polygon fill="midnightblue" stroke="midnightblue" points="1596.78,-23.4653 1606.27,-18.7586 1595.91,-16.5187 1596.78,-23.4653"/>
</g>
<!-- Node28 -->
<g id="node28" class="node"><title>Node28</title>
<polygon fill="none" stroke="#bfbfbf" points="1703,-0.5 1703,-19.5 1776,-19.5 1776,-0.5 1703,-0.5"/>
<text text-anchor="middle" x="1739.5" y="-7.5" font-family="Helvetica,sans-Serif" font-size="10.00">ext/hash_set</text>
</g>
<!-- Node1&#45;&gt;Node28 -->
<g id="edge27" class="edge"><title>Node1&#45;&gt;Node28</title>
<path fill="none" stroke="midnightblue" d="M939.594,-64.5891C1063.94,-63.0478 1401.45,-55.746 1692.58,-19.9147"/>
<polygon fill="midnightblue" stroke="midnightblue" points="1693.42,-23.3365 1702.91,-18.628 1692.56,-16.3901 1693.42,-23.3365"/>
</g>
<!-- Node29 -->
<g id="node29" class="node"><title>Node29</title>
<polygon fill="none" stroke="#bfbfbf" points="1794,-0.5 1794,-19.5 1865,-19.5 1865,-0.5 1794,-0.5"/>
<text text-anchor="middle" x="1829.5" y="-7.5" font-family="Helvetica,sans-Serif" font-size="10.00">sys/param.h</text>
</g>
<!-- Node1&#45;&gt;Node29 -->
<g id="edge28" class="edge"><title>Node1&#45;&gt;Node29</title>
<path fill="none" stroke="midnightblue" d="M939.724,-65.1355C1073.82,-64.9484 1456.88,-60.7055 1783.43,-20.0885"/>
<polygon fill="midnightblue" stroke="midnightblue" points="1784.07,-23.535 1793.56,-18.8143 1783.2,-16.5897 1784.07,-23.535"/>
</g>
<!-- Node30 -->
<g id="node30" class="node"><title>Node30</title>
<polygon fill="none" stroke="#bfbfbf" points="1883.5,-0.5 1883.5,-19.5 2049.5,-19.5 2049.5,-0.5 1883.5,-0.5"/>
<text text-anchor="middle" x="1966.5" y="-7.5" font-family="Helvetica,sans-Serif" font-size="10.00">CoreFoundation/CoreFoundation.h</text>
</g>
<!-- Node1&#45;&gt;Node30 -->
<g id="edge29" class="edge"><title>Node1&#45;&gt;Node30</title>
<path fill="none" stroke="midnightblue" d="M939.699,-63.6521C1082.29,-59.5533 1508.29,-45.9498 1873.04,-20.0672"/>
<polygon fill="midnightblue" stroke="midnightblue" points="1873.55,-23.5402 1883.27,-19.3369 1873.05,-16.5579 1873.55,-23.5402"/>
</g>
<!-- Node31 -->
<g id="node31" class="node"><title>Node31</title>
<polygon fill="none" stroke="#bfbfbf" points="2067.5,-0.5 2067.5,-19.5 2191.5,-19.5 2191.5,-0.5 2067.5,-0.5"/>
<text text-anchor="middle" x="2129.5" y="-7.5" font-family="Helvetica,sans-Serif" font-size="10.00">emscripten/emscripten.h</text>
</g>
<!-- Node1&#45;&gt;Node31 -->
<g id="edge30" class="edge"><title>Node1&#45;&gt;Node31</title>
<path fill="none" stroke="midnightblue" d="M939.552,-64.6464C1099.08,-63.1706 1617.77,-55.8116 2057.16,-20.0348"/>
<polygon fill="midnightblue" stroke="midnightblue" points="2057.51,-23.5173 2067.19,-19.2113 2056.94,-16.5407 2057.51,-23.5173"/>
</g>
</g>
</svg>
