<?xml version="1.0" encoding="UTF-8" standalone="no"?>
<!DOCTYPE svg PUBLIC "-//W3C//DTD SVG 1.1//EN"
 "http://www.w3.org/Graphics/SVG/1.1/DTD/svg11.dtd">
<!-- Generated by graphviz version 2.38.0 (20140413.2041)
 -->
<!-- Title: OgreOverlayProfileSessionListener.h Pages: 1 -->
<svg width="2898pt" height="375pt"
 viewBox="0.00 0.00 2898.23 375.00" xmlns="http://www.w3.org/2000/svg" xmlns:xlink="http://www.w3.org/1999/xlink">
<g id="graph0" class="graph" transform="scale(1 1) rotate(0) translate(4 371)">
<title>OgreOverlayProfileSessionListener.h</title>
<!-- Node1 -->
<g id="node1" class="node"><title>Node1</title>
<polygon fill="#bfbfbf" stroke="black" points="423,-336.5 423,-366.5 557,-366.5 557,-336.5 423,-336.5"/>
<text text-anchor="start" x="431" y="-354.5" font-family="Helvetica,sans-Serif" font-size="10.00">OgreOverlayProfileSession</text>
<text text-anchor="middle" x="490" y="-343.5" font-family="Helvetica,sans-Serif" font-size="10.00">Listener.h</text>
</g>
<!-- Node2 -->
<g id="node2" class="node"><title>Node2</title>
<g id="a_node2"><a xlink:href="_ogre_overlay_prerequisites_8h.html" target="_top" xlink:title="OgreOverlayPrerequisites.h">
<polygon fill="none" stroke="black" points="365.5,-224.5 365.5,-243.5 502.5,-243.5 502.5,-224.5 365.5,-224.5"/>
<text text-anchor="middle" x="434" y="-231.5" font-family="Helvetica,sans-Serif" font-size="10.00">OgreOverlayPrerequisites.h</text>
</a>
</g>
</g>
<!-- Node1&#45;&gt;Node2 -->
<g id="edge1" class="edge"><title>Node1&#45;&gt;Node2</title>
<path fill="none" stroke="midnightblue" d="M483.133,-336.337C472.952,-315.338 453.857,-275.955 442.707,-252.958"/>
<polygon fill="midnightblue" stroke="midnightblue" points="445.716,-251.141 438.203,-243.669 439.417,-254.195 445.716,-251.141"/>
</g>
<!-- Node43 -->
<g id="node43" class="node"><title>Node43</title>
<g id="a_node43"><a xlink:href="_ogre_profiler_8h.html" target="_top" xlink:title="OgreProfiler.h">
<polygon fill="none" stroke="black" points="492.5,-280.5 492.5,-299.5 569.5,-299.5 569.5,-280.5 492.5,-280.5"/>
<text text-anchor="middle" x="531" y="-287.5" font-family="Helvetica,sans-Serif" font-size="10.00">OgreProfiler.h</text>
</a>
</g>
</g>
<!-- Node1&#45;&gt;Node43 -->
<g id="edge51" class="edge"><title>Node1&#45;&gt;Node43</title>
<path fill="none" stroke="midnightblue" d="M499.716,-336.399C505.551,-327.932 513.016,-317.099 519.19,-308.139"/>
<polygon fill="midnightblue" stroke="midnightblue" points="522.242,-309.878 525.034,-299.658 516.478,-305.906 522.242,-309.878"/>
</g>
<!-- Node3 -->
<g id="node3" class="node"><title>Node3</title>
<g id="a_node3"><a xlink:href="_ogre_prerequisites_8h.html" target="_top" xlink:title="OgrePrerequisites.h">
<polygon fill="none" stroke="black" points="479.5,-168.5 479.5,-187.5 582.5,-187.5 582.5,-168.5 479.5,-168.5"/>
<text text-anchor="middle" x="531" y="-175.5" font-family="Helvetica,sans-Serif" font-size="10.00">OgrePrerequisites.h</text>
</a>
</g>
</g>
<!-- Node2&#45;&gt;Node3 -->
<g id="edge2" class="edge"><title>Node2&#45;&gt;Node3</title>
<path fill="none" stroke="midnightblue" d="M449.585,-224.324C464.999,-215.743 488.812,-202.486 506.71,-192.522"/>
<polygon fill="midnightblue" stroke="midnightblue" points="508.419,-195.577 515.454,-187.655 505.014,-189.461 508.419,-195.577"/>
</g>
<!-- Node4 -->
<g id="node4" class="node"><title>Node4</title>
<g id="a_node4"><a xlink:href="_ogre_platform_8h.html" target="_top" xlink:title="OgrePlatform.h">
<polygon fill="none" stroke="black" points="548.5,-112.5 548.5,-131.5 631.5,-131.5 631.5,-112.5 548.5,-112.5"/>
<text text-anchor="middle" x="590" y="-119.5" font-family="Helvetica,sans-Serif" font-size="10.00">OgrePlatform.h</text>
</a>
</g>
</g>
<!-- Node3&#45;&gt;Node4 -->
<g id="edge3" class="edge"><title>Node3&#45;&gt;Node4</title>
<path fill="none" stroke="midnightblue" d="M540.479,-168.324C549.201,-160.341 562.343,-148.313 572.898,-138.653"/>
<polygon fill="midnightblue" stroke="midnightblue" points="575.334,-141.167 580.348,-131.834 570.608,-136.004 575.334,-141.167"/>
</g>
<!-- Node6 -->
<g id="node6" class="node"><title>Node6</title>
<polygon fill="none" stroke="#bfbfbf" points="669.5,-56.5 669.5,-75.5 710.5,-75.5 710.5,-56.5 669.5,-56.5"/>
<text text-anchor="middle" x="690" y="-63.5" font-family="Helvetica,sans-Serif" font-size="10.00">string</text>
</g>
<!-- Node3&#45;&gt;Node6 -->
<g id="edge5" class="edge"><title>Node3&#45;&gt;Node6</title>
<path fill="none" stroke="midnightblue" d="M563.839,-168.386C586.775,-161.246 617.24,-149.421 640,-132 656.902,-119.063 671.114,-99.0684 680.015,-84.6714"/>
<polygon fill="midnightblue" stroke="midnightblue" points="683.212,-86.142 685.296,-75.7541 677.189,-82.575 683.212,-86.142"/>
</g>
<!-- Node7 -->
<g id="node7" class="node"><title>Node7</title>
<g id="a_node7"><a xlink:href="_ogre_std_headers_8h.html" target="_top" xlink:title="OgreStdHeaders.h">
<polygon fill="none" stroke="black" points="1813,-112.5 1813,-131.5 1911,-131.5 1911,-112.5 1813,-112.5"/>
<text text-anchor="middle" x="1862" y="-119.5" font-family="Helvetica,sans-Serif" font-size="10.00">OgreStdHeaders.h</text>
</a>
</g>
</g>
<!-- Node3&#45;&gt;Node7 -->
<g id="edge6" class="edge"><title>Node3&#45;&gt;Node7</title>
<path fill="none" stroke="midnightblue" d="M582.768,-174.9C792.677,-166.384 1579.78,-134.45 1802.78,-125.403"/>
<polygon fill="midnightblue" stroke="midnightblue" points="1803.12,-128.892 1812.97,-124.989 1802.84,-121.898 1803.12,-128.892"/>
</g>
<!-- Node37 -->
<g id="node37" class="node"><title>Node37</title>
<g id="a_node37"><a xlink:href="_ogre_memory_allocator_config_8h.html" target="_top" xlink:title="This file configures Ogre&#39;s memory allocators. ">
<polygon fill="none" stroke="black" points="254,-112.5 254,-131.5 402,-131.5 402,-112.5 254,-112.5"/>
<text text-anchor="middle" x="328" y="-119.5" font-family="Helvetica,sans-Serif" font-size="10.00">OgreMemoryAllocatorConfig.h</text>
</a>
</g>
</g>
<!-- Node3&#45;&gt;Node37 -->
<g id="edge37" class="edge"><title>Node3&#45;&gt;Node37</title>
<path fill="none" stroke="midnightblue" d="M498.834,-168.444C463.941,-159.162 408.107,-144.309 369.829,-134.127"/>
<polygon fill="midnightblue" stroke="midnightblue" points="370.579,-130.705 360.015,-131.516 368.78,-137.47 370.579,-130.705"/>
</g>
<!-- Node5 -->
<g id="node5" class="node"><title>Node5</title>
<g id="a_node5"><a xlink:href="_ogre_config_8h.html" target="_top" xlink:title="OgreConfig.h">
<polygon fill="none" stroke="red" points="577,-56.5 577,-75.5 651,-75.5 651,-56.5 577,-56.5"/>
<text text-anchor="middle" x="614" y="-63.5" font-family="Helvetica,sans-Serif" font-size="10.00">OgreConfig.h</text>
</a>
</g>
</g>
<!-- Node4&#45;&gt;Node5 -->
<g id="edge4" class="edge"><title>Node4&#45;&gt;Node5</title>
<path fill="none" stroke="midnightblue" d="M593.963,-112.083C597.213,-104.77 601.919,-94.1814 605.954,-85.1034"/>
<polygon fill="midnightblue" stroke="midnightblue" points="609.248,-86.3107 610.111,-75.7511 602.851,-83.4677 609.248,-86.3107"/>
</g>
<!-- Node7&#45;&gt;Node6 -->
<g id="edge16" class="edge"><title>Node7&#45;&gt;Node6</title>
<path fill="none" stroke="midnightblue" d="M1812.73,-120.708C1625.17,-119.345 955.066,-112.116 720.97,-75.6252"/>
<polygon fill="midnightblue" stroke="midnightblue" points="721.253,-72.1254 710.822,-73.9783 720.132,-79.0351 721.253,-72.1254"/>
</g>
<!-- Node8 -->
<g id="node8" class="node"><title>Node8</title>
<polygon fill="none" stroke="#bfbfbf" points="1395.5,-56.5 1395.5,-75.5 1444.5,-75.5 1444.5,-56.5 1395.5,-56.5"/>
<text text-anchor="middle" x="1420" y="-63.5" font-family="Helvetica,sans-Serif" font-size="10.00">cassert</text>
</g>
<!-- Node7&#45;&gt;Node8 -->
<g id="edge7" class="edge"><title>Node7&#45;&gt;Node8</title>
<path fill="none" stroke="midnightblue" d="M1812.98,-117.961C1737.9,-112.79 1589.83,-100.55 1454.89,-75.8918"/>
<polygon fill="midnightblue" stroke="midnightblue" points="1455.26,-72.4001 1444.79,-74.0172 1453.98,-79.2826 1455.26,-72.4001"/>
</g>
<!-- Node9 -->
<g id="node9" class="node"><title>Node9</title>
<polygon fill="none" stroke="#bfbfbf" points="1462.5,-56.5 1462.5,-75.5 1505.5,-75.5 1505.5,-56.5 1462.5,-56.5"/>
<text text-anchor="middle" x="1484" y="-63.5" font-family="Helvetica,sans-Serif" font-size="10.00">cstdio</text>
</g>
<!-- Node7&#45;&gt;Node9 -->
<g id="edge8" class="edge"><title>Node7&#45;&gt;Node9</title>
<path fill="none" stroke="midnightblue" d="M1812.76,-117.014C1747.11,-111.173 1627.24,-98.667 1515.65,-75.8194"/>
<polygon fill="midnightblue" stroke="midnightblue" points="1516.08,-72.3327 1505.57,-73.7224 1514.65,-79.186 1516.08,-72.3327"/>
</g>
<!-- Node10 -->
<g id="node10" class="node"><title>Node10</title>
<polygon fill="none" stroke="#bfbfbf" points="1523.5,-56.5 1523.5,-75.5 1568.5,-75.5 1568.5,-56.5 1523.5,-56.5"/>
<text text-anchor="middle" x="1546" y="-63.5" font-family="Helvetica,sans-Serif" font-size="10.00">cstdlib</text>
</g>
<!-- Node7&#45;&gt;Node10 -->
<g id="edge9" class="edge"><title>Node7&#45;&gt;Node10</title>
<path fill="none" stroke="midnightblue" d="M1812.93,-115C1758.11,-107.902 1666.59,-94.8779 1578.53,-75.8833"/>
<polygon fill="midnightblue" stroke="midnightblue" points="1579.16,-72.4384 1568.64,-73.722 1577.66,-79.2769 1579.16,-72.4384"/>
</g>
<!-- Node11 -->
<g id="node11" class="node"><title>Node11</title>
<polygon fill="none" stroke="#bfbfbf" points="1586.5,-56.5 1586.5,-75.5 1627.5,-75.5 1627.5,-56.5 1586.5,-56.5"/>
<text text-anchor="middle" x="1607" y="-63.5" font-family="Helvetica,sans-Serif" font-size="10.00">ctime</text>
</g>
<!-- Node7&#45;&gt;Node11 -->
<g id="edge10" class="edge"><title>Node7&#45;&gt;Node11</title>
<path fill="none" stroke="midnightblue" d="M1812.99,-112.57C1769.35,-104.758 1703.62,-92.2339 1637.36,-75.8924"/>
<polygon fill="midnightblue" stroke="midnightblue" points="1638.14,-72.4779 1627.59,-73.4537 1636.44,-79.2698 1638.14,-72.4779"/>
</g>
<!-- Node12 -->
<g id="node12" class="node"><title>Node12</title>
<polygon fill="none" stroke="#bfbfbf" points="1646,-56.5 1646,-75.5 1692,-75.5 1692,-56.5 1646,-56.5"/>
<text text-anchor="middle" x="1669" y="-63.5" font-family="Helvetica,sans-Serif" font-size="10.00">cstring</text>
</g>
<!-- Node7&#45;&gt;Node12 -->
<g id="edge11" class="edge"><title>Node7&#45;&gt;Node12</title>
<path fill="none" stroke="midnightblue" d="M1831.42,-112.444C1796.2,-102.591 1738.56,-86.4621 1702.25,-76.3044"/>
<polygon fill="midnightblue" stroke="midnightblue" points="1702.74,-72.8066 1692.17,-73.4826 1700.86,-79.5477 1702.74,-72.8066"/>
</g>
<!-- Node13 -->
<g id="node13" class="node"><title>Node13</title>
<polygon fill="none" stroke="#bfbfbf" points="1710.5,-56.5 1710.5,-75.5 1759.5,-75.5 1759.5,-56.5 1710.5,-56.5"/>
<text text-anchor="middle" x="1735" y="-63.5" font-family="Helvetica,sans-Serif" font-size="10.00">cstdarg</text>
</g>
<!-- Node7&#45;&gt;Node13 -->
<g id="edge12" class="edge"><title>Node7&#45;&gt;Node13</title>
<path fill="none" stroke="midnightblue" d="M1841.88,-112.444C1820.98,-103.557 1788.07,-89.5632 1764.28,-79.4514"/>
<polygon fill="midnightblue" stroke="midnightblue" points="1765.6,-76.2085 1755.03,-75.5164 1762.86,-82.6504 1765.6,-76.2085"/>
</g>
<!-- Node14 -->
<g id="node14" class="node"><title>Node14</title>
<polygon fill="none" stroke="#bfbfbf" points="1778,-56.5 1778,-75.5 1822,-75.5 1822,-56.5 1778,-56.5"/>
<text text-anchor="middle" x="1800" y="-63.5" font-family="Helvetica,sans-Serif" font-size="10.00">cmath</text>
</g>
<!-- Node7&#45;&gt;Node14 -->
<g id="edge13" class="edge"><title>Node7&#45;&gt;Node14</title>
<path fill="none" stroke="midnightblue" d="M1852.04,-112.324C1842.87,-104.341 1829.06,-92.3128 1817.97,-82.6529"/>
<polygon fill="midnightblue" stroke="midnightblue" points="1819.98,-79.7624 1810.14,-75.8339 1815.38,-85.041 1819.98,-79.7624"/>
</g>
<!-- Node15 -->
<g id="node15" class="node"><title>Node15</title>
<polygon fill="none" stroke="#bfbfbf" points="1840,-56.5 1840,-75.5 1884,-75.5 1884,-56.5 1840,-56.5"/>
<text text-anchor="middle" x="1862" y="-63.5" font-family="Helvetica,sans-Serif" font-size="10.00">vector</text>
</g>
<!-- Node7&#45;&gt;Node15 -->
<g id="edge14" class="edge"><title>Node7&#45;&gt;Node15</title>
<path fill="none" stroke="midnightblue" d="M1862,-112.083C1862,-105.006 1862,-94.8611 1862,-85.9865"/>
<polygon fill="midnightblue" stroke="midnightblue" points="1865.5,-85.751 1862,-75.7511 1858.5,-85.7511 1865.5,-85.751"/>
</g>
<!-- Node16 -->
<g id="node16" class="node"><title>Node16</title>
<polygon fill="none" stroke="#bfbfbf" points="1902.5,-56.5 1902.5,-75.5 1937.5,-75.5 1937.5,-56.5 1902.5,-56.5"/>
<text text-anchor="middle" x="1920" y="-63.5" font-family="Helvetica,sans-Serif" font-size="10.00">map</text>
</g>
<!-- Node7&#45;&gt;Node16 -->
<g id="edge15" class="edge"><title>Node7&#45;&gt;Node16</title>
<path fill="none" stroke="midnightblue" d="M1871.32,-112.324C1879.89,-104.341 1892.81,-92.3128 1903.19,-82.6529"/>
<polygon fill="midnightblue" stroke="midnightblue" points="1905.58,-85.2098 1910.51,-75.8339 1900.81,-80.0865 1905.58,-85.2098"/>
</g>
<!-- Node17 -->
<g id="node17" class="node"><title>Node17</title>
<polygon fill="none" stroke="#bfbfbf" points="1956,-56.5 1956,-75.5 1986,-75.5 1986,-56.5 1956,-56.5"/>
<text text-anchor="middle" x="1971" y="-63.5" font-family="Helvetica,sans-Serif" font-size="10.00">set</text>
</g>
<!-- Node7&#45;&gt;Node17 -->
<g id="edge17" class="edge"><title>Node7&#45;&gt;Node17</title>
<path fill="none" stroke="midnightblue" d="M1879.51,-112.324C1897.8,-103.264 1926.61,-88.9933 1947,-78.8881"/>
<polygon fill="midnightblue" stroke="midnightblue" points="1948.58,-82.0131 1955.99,-74.4376 1945.47,-75.7407 1948.58,-82.0131"/>
</g>
<!-- Node18 -->
<g id="node18" class="node"><title>Node18</title>
<polygon fill="none" stroke="#bfbfbf" points="2004.5,-56.5 2004.5,-75.5 2033.5,-75.5 2033.5,-56.5 2004.5,-56.5"/>
<text text-anchor="middle" x="2019" y="-63.5" font-family="Helvetica,sans-Serif" font-size="10.00">list</text>
</g>
<!-- Node7&#45;&gt;Node18 -->
<g id="edge18" class="edge"><title>Node7&#45;&gt;Node18</title>
<path fill="none" stroke="midnightblue" d="M1888.08,-112.454C1913.12,-104.188 1952.22,-91.1238 1994.86,-75.9663"/>
<polygon fill="midnightblue" stroke="midnightblue" points="1996.06,-79.2548 2004.3,-72.597 1993.71,-72.6622 1996.06,-79.2548"/>
</g>
<!-- Node19 -->
<g id="node19" class="node"><title>Node19</title>
<polygon fill="none" stroke="#bfbfbf" points="2051.5,-56.5 2051.5,-75.5 2094.5,-75.5 2094.5,-56.5 2051.5,-56.5"/>
<text text-anchor="middle" x="2073" y="-63.5" font-family="Helvetica,sans-Serif" font-size="10.00">deque</text>
</g>
<!-- Node7&#45;&gt;Node19 -->
<g id="edge19" class="edge"><title>Node7&#45;&gt;Node19</title>
<path fill="none" stroke="midnightblue" d="M1898.53,-112.459C1933.11,-104.255 1986.69,-91.2354 2041.52,-76.3193"/>
<polygon fill="midnightblue" stroke="midnightblue" points="2042.68,-79.6292 2051.41,-73.6127 2040.84,-72.8777 2042.68,-79.6292"/>
</g>
<!-- Node20 -->
<g id="node20" class="node"><title>Node20</title>
<polygon fill="none" stroke="#bfbfbf" points="2112.5,-56.5 2112.5,-75.5 2155.5,-75.5 2155.5,-56.5 2112.5,-56.5"/>
<text text-anchor="middle" x="2134" y="-63.5" font-family="Helvetica,sans-Serif" font-size="10.00">queue</text>
</g>
<!-- Node7&#45;&gt;Node20 -->
<g id="edge20" class="edge"><title>Node7&#45;&gt;Node20</title>
<path fill="none" stroke="midnightblue" d="M1911.46,-113.404C1958.4,-105.837 2031.07,-93.1966 2102.39,-76.1964"/>
<polygon fill="midnightblue" stroke="midnightblue" points="2103.55,-79.5185 2112.45,-73.7687 2101.9,-72.7141 2103.55,-79.5185"/>
</g>
<!-- Node21 -->
<g id="node21" class="node"><title>Node21</title>
<polygon fill="none" stroke="#bfbfbf" points="2173.5,-56.5 2173.5,-75.5 2214.5,-75.5 2214.5,-56.5 2173.5,-56.5"/>
<text text-anchor="middle" x="2194" y="-63.5" font-family="Helvetica,sans-Serif" font-size="10.00">bitset</text>
</g>
<!-- Node7&#45;&gt;Node21 -->
<g id="edge21" class="edge"><title>Node7&#45;&gt;Node21</title>
<path fill="none" stroke="midnightblue" d="M1911.24,-116.04C1969.48,-109.651 2069.47,-97.0565 2163.26,-76.1291"/>
<polygon fill="midnightblue" stroke="midnightblue" points="2164.22,-79.5016 2173.19,-73.8759 2162.67,-72.675 2164.22,-79.5016"/>
</g>
<!-- Node22 -->
<g id="node22" class="node"><title>Node22</title>
<polygon fill="none" stroke="#bfbfbf" points="2233,-56.5 2233,-75.5 2289,-75.5 2289,-56.5 2233,-56.5"/>
<text text-anchor="middle" x="2261" y="-63.5" font-family="Helvetica,sans-Serif" font-size="10.00">algorithm</text>
</g>
<!-- Node7&#45;&gt;Node22 -->
<g id="edge22" class="edge"><title>Node7&#45;&gt;Node22</title>
<path fill="none" stroke="midnightblue" d="M1911.16,-116.697C1979.14,-110.348 2105.79,-97.088 2222.93,-76.0117"/>
<polygon fill="midnightblue" stroke="midnightblue" points="2223.58,-79.4519 2232.79,-74.2157 2222.32,-72.5653 2223.58,-79.4519"/>
</g>
<!-- Node23 -->
<g id="node23" class="node"><title>Node23</title>
<polygon fill="none" stroke="#bfbfbf" points="2307.5,-56.5 2307.5,-75.5 2366.5,-75.5 2366.5,-56.5 2307.5,-56.5"/>
<text text-anchor="middle" x="2337" y="-63.5" font-family="Helvetica,sans-Serif" font-size="10.00">functional</text>
</g>
<!-- Node7&#45;&gt;Node23 -->
<g id="edge23" class="edge"><title>Node7&#45;&gt;Node23</title>
<path fill="none" stroke="midnightblue" d="M1911.31,-117.911C1990.56,-112.508 2151.32,-99.7512 2297.23,-75.9218"/>
<polygon fill="midnightblue" stroke="midnightblue" points="2297.97,-79.3473 2307.27,-74.2617 2296.83,-72.4412 2297.97,-79.3473"/>
</g>
<!-- Node24 -->
<g id="node24" class="node"><title>Node24</title>
<polygon fill="none" stroke="#bfbfbf" points="2385,-56.5 2385,-75.5 2425,-75.5 2425,-56.5 2385,-56.5"/>
<text text-anchor="middle" x="2405" y="-63.5" font-family="Helvetica,sans-Serif" font-size="10.00">limits</text>
</g>
<!-- Node7&#45;&gt;Node24 -->
<g id="edge24" class="edge"><title>Node7&#45;&gt;Node24</title>
<path fill="none" stroke="midnightblue" d="M1911.03,-120.181C2001.32,-117.921 2199.91,-109.457 2374.96,-75.7903"/>
<polygon fill="midnightblue" stroke="midnightblue" points="2375.72,-79.2081 2384.86,-73.8537 2374.37,-72.3383 2375.72,-79.2081"/>
</g>
<!-- Node25 -->
<g id="node25" class="node"><title>Node25</title>
<polygon fill="none" stroke="#bfbfbf" points="2443,-56.5 2443,-75.5 2493,-75.5 2493,-56.5 2443,-56.5"/>
<text text-anchor="middle" x="2468" y="-63.5" font-family="Helvetica,sans-Serif" font-size="10.00">fstream</text>
</g>
<!-- Node7&#45;&gt;Node25 -->
<g id="edge25" class="edge"><title>Node7&#45;&gt;Node25</title>
<path fill="none" stroke="midnightblue" d="M1911.34,-120.106C2009.21,-117.688 2234.86,-108.901 2432.86,-75.8879"/>
<polygon fill="midnightblue" stroke="midnightblue" points="2433.58,-79.3147 2442.86,-74.1952 2432.42,-72.4128 2433.58,-79.3147"/>
</g>
<!-- Node26 -->
<g id="node26" class="node"><title>Node26</title>
<polygon fill="none" stroke="#bfbfbf" points="2511.5,-56.5 2511.5,-75.5 2556.5,-75.5 2556.5,-56.5 2511.5,-56.5"/>
<text text-anchor="middle" x="2534" y="-63.5" font-family="Helvetica,sans-Serif" font-size="10.00">iosfwd</text>
</g>
<!-- Node7&#45;&gt;Node26 -->
<g id="edge26" class="edge"><title>Node7&#45;&gt;Node26</title>
<path fill="none" stroke="midnightblue" d="M1911.39,-120.942C2017.78,-120.085 2276.44,-114.062 2501.4,-75.7026"/>
<polygon fill="midnightblue" stroke="midnightblue" points="2502.15,-79.1244 2511.41,-73.9703 2500.96,-72.2269 2502.15,-79.1244"/>
</g>
<!-- Node27 -->
<g id="node27" class="node"><title>Node27</title>
<polygon fill="none" stroke="#bfbfbf" points="2575,-56.5 2575,-75.5 2627,-75.5 2627,-56.5 2575,-56.5"/>
<text text-anchor="middle" x="2601" y="-63.5" font-family="Helvetica,sans-Serif" font-size="10.00">sstream</text>
</g>
<!-- Node7&#45;&gt;Node27 -->
<g id="edge27" class="edge"><title>Node7&#45;&gt;Node27</title>
<path fill="none" stroke="midnightblue" d="M1911.43,-121.019C2025.29,-120.382 2314.82,-114.871 2564.74,-75.8973"/>
<polygon fill="midnightblue" stroke="midnightblue" points="2565.41,-79.3359 2574.74,-74.3173 2564.31,-72.4218 2565.41,-79.3359"/>
</g>
<!-- Node28 -->
<g id="node28" class="node"><title>Node28</title>
<polygon fill="none" stroke="#bfbfbf" points="2645,-56.5 2645,-75.5 2713,-75.5 2713,-56.5 2645,-56.5"/>
<text text-anchor="middle" x="2679" y="-63.5" font-family="Helvetica,sans-Serif" font-size="10.00">sys/types.h</text>
</g>
<!-- Node7&#45;&gt;Node28 -->
<g id="edge28" class="edge"><title>Node7&#45;&gt;Node28</title>
<path fill="none" stroke="midnightblue" d="M1911.14,-120.664C2032.43,-119.296 2355.79,-112.367 2634.5,-75.9948"/>
<polygon fill="midnightblue" stroke="midnightblue" points="2635.36,-79.4122 2644.81,-74.6329 2634.44,-72.4725 2635.36,-79.4122"/>
</g>
<!-- Node29 -->
<g id="node29" class="node"><title>Node29</title>
<polygon fill="none" stroke="#bfbfbf" points="2731,-56.5 2731,-75.5 2791,-75.5 2791,-56.5 2731,-56.5"/>
<text text-anchor="middle" x="2761" y="-63.5" font-family="Helvetica,sans-Serif" font-size="10.00">sys/stat.h</text>
</g>
<!-- Node7&#45;&gt;Node29 -->
<g id="edge29" class="edge"><title>Node7&#45;&gt;Node29</title>
<path fill="none" stroke="midnightblue" d="M1911.25,-121.418C2041.87,-121.888 2407.92,-119.055 2720.69,-75.9212"/>
<polygon fill="midnightblue" stroke="midnightblue" points="2721.44,-79.3506 2730.86,-74.5018 2720.48,-72.4178 2721.44,-79.3506"/>
</g>
<!-- Node30 -->
<g id="node30" class="node"><title>Node30</title>
<polygon fill="none" stroke="#bfbfbf" points="2809.5,-56.5 2809.5,-75.5 2860.5,-75.5 2860.5,-56.5 2809.5,-56.5"/>
<text text-anchor="middle" x="2835" y="-63.5" font-family="Helvetica,sans-Serif" font-size="10.00">unistd.h</text>
</g>
<!-- Node7&#45;&gt;Node30 -->
<g id="edge30" class="edge"><title>Node7&#45;&gt;Node30</title>
<path fill="none" stroke="midnightblue" d="M1911.08,-119.966C2075.51,-116.298 2606.86,-102.753 2799.14,-75.7421"/>
<polygon fill="midnightblue" stroke="midnightblue" points="2799.74,-79.1911 2809.13,-74.2792 2798.73,-72.2649 2799.74,-79.1911"/>
</g>
<!-- Node31 -->
<g id="node31" class="node"><title>Node31</title>
<polygon fill="none" stroke="#bfbfbf" points="729,-56.5 729,-75.5 775,-75.5 775,-56.5 729,-56.5"/>
<text text-anchor="middle" x="752" y="-63.5" font-family="Helvetica,sans-Serif" font-size="10.00">dlfcn.h</text>
</g>
<!-- Node7&#45;&gt;Node31 -->
<g id="edge31" class="edge"><title>Node7&#45;&gt;Node31</title>
<path fill="none" stroke="midnightblue" d="M1812.71,-120.462C1632.12,-118.258 1006.19,-108.517 785.48,-75.798"/>
<polygon fill="midnightblue" stroke="midnightblue" points="785.696,-72.29 775.279,-74.2225 784.628,-79.208 785.696,-72.29"/>
</g>
<!-- Node32 -->
<g id="node32" class="node"><title>Node32</title>
<polygon fill="none" stroke="#bfbfbf" points="793,-56.5 793,-75.5 871,-75.5 871,-56.5 793,-56.5"/>
<text text-anchor="middle" x="832" y="-63.5" font-family="Helvetica,sans-Serif" font-size="10.00">ext/hash_map</text>
</g>
<!-- Node7&#45;&gt;Node32 -->
<g id="edge32" class="edge"><title>Node7&#45;&gt;Node32</title>
<path fill="none" stroke="midnightblue" d="M1812.82,-121.099C1670.3,-120.887 1244.71,-116.715 881.433,-75.8506"/>
<polygon fill="midnightblue" stroke="midnightblue" points="881.576,-72.3443 871.245,-74.6929 880.785,-79.2995 881.576,-72.3443"/>
</g>
<!-- Node33 -->
<g id="node33" class="node"><title>Node33</title>
<polygon fill="none" stroke="#bfbfbf" points="889.5,-56.5 889.5,-75.5 962.5,-75.5 962.5,-56.5 889.5,-56.5"/>
<text text-anchor="middle" x="926" y="-63.5" font-family="Helvetica,sans-Serif" font-size="10.00">ext/hash_set</text>
</g>
<!-- Node7&#45;&gt;Node33 -->
<g id="edge33" class="edge"><title>Node7&#45;&gt;Node33</title>
<path fill="none" stroke="midnightblue" d="M1812.58,-120.969C1678.84,-120.358 1298.55,-115.134 972.693,-75.8773"/>
<polygon fill="midnightblue" stroke="midnightblue" points="972.933,-72.3807 962.583,-74.6462 972.087,-79.3294 972.933,-72.3807"/>
</g>
<!-- Node34 -->
<g id="node34" class="node"><title>Node34</title>
<polygon fill="none" stroke="#bfbfbf" points="980.5,-56.5 980.5,-75.5 1051.5,-75.5 1051.5,-56.5 980.5,-56.5"/>
<text text-anchor="middle" x="1016" y="-63.5" font-family="Helvetica,sans-Serif" font-size="10.00">sys/param.h</text>
</g>
<!-- Node7&#45;&gt;Node34 -->
<g id="edge34" class="edge"><title>Node7&#45;&gt;Node34</title>
<path fill="none" stroke="midnightblue" d="M1812.56,-120.646C1688.13,-119.238 1351.9,-112.219 1062.08,-75.9345"/>
<polygon fill="midnightblue" stroke="midnightblue" points="1062.15,-72.4156 1051.79,-74.6313 1061.27,-79.3601 1062.15,-72.4156"/>
</g>
<!-- Node35 -->
<g id="node35" class="node"><title>Node35</title>
<polygon fill="none" stroke="#bfbfbf" points="1070,-56.5 1070,-75.5 1236,-75.5 1236,-56.5 1070,-56.5"/>
<text text-anchor="middle" x="1153" y="-63.5" font-family="Helvetica,sans-Serif" font-size="10.00">CoreFoundation/CoreFoundation.h</text>
</g>
<!-- Node7&#45;&gt;Node35 -->
<g id="edge35" class="edge"><title>Node7&#45;&gt;Node35</title>
<path fill="none" stroke="midnightblue" d="M1812.78,-117.825C1709.77,-111.09 1463.68,-94.5309 1246.24,-76.0874"/>
<polygon fill="midnightblue" stroke="midnightblue" points="1246.5,-72.5966 1236.24,-75.2357 1245.9,-79.5714 1246.5,-72.5966"/>
</g>
<!-- Node36 -->
<g id="node36" class="node"><title>Node36</title>
<polygon fill="none" stroke="#bfbfbf" points="1254,-56.5 1254,-75.5 1378,-75.5 1378,-56.5 1254,-56.5"/>
<text text-anchor="middle" x="1316" y="-63.5" font-family="Helvetica,sans-Serif" font-size="10.00">emscripten/emscripten.h</text>
</g>
<!-- Node7&#45;&gt;Node36 -->
<g id="edge36" class="edge"><title>Node7&#45;&gt;Node36</title>
<path fill="none" stroke="midnightblue" d="M1812.71,-116.848C1728.15,-109.611 1549.71,-93.8471 1388.43,-76.129"/>
<polygon fill="midnightblue" stroke="midnightblue" points="1388.65,-72.6318 1378.32,-75.0136 1387.88,-79.5895 1388.65,-72.6318"/>
</g>
<!-- Node38 -->
<g id="node38" class="node"><title>Node38</title>
<g id="a_node38"><a xlink:href="_ogre_memory_allocated_object_8h.html" target="_top" xlink:title="OgreMemoryAllocatedObject.h">
<polygon fill="none" stroke="black" points="371,-56.5 371,-75.5 521,-75.5 521,-56.5 371,-56.5"/>
<text text-anchor="middle" x="446" y="-63.5" font-family="Helvetica,sans-Serif" font-size="10.00">OgreMemoryAllocatedObject.h</text>
</a>
</g>
</g>
<!-- Node37&#45;&gt;Node38 -->
<g id="edge38" class="edge"><title>Node37&#45;&gt;Node38</title>
<path fill="none" stroke="midnightblue" d="M346.697,-112.444C365.944,-103.636 396.152,-89.8116 418.2,-79.722"/>
<polygon fill="midnightblue" stroke="midnightblue" points="419.753,-82.8603 427.39,-75.5164 416.84,-76.4951 419.753,-82.8603"/>
</g>
<!-- Node39 -->
<g id="node39" class="node"><title>Node39</title>
<g id="a_node39"><a xlink:href="_ogre_header_prefix_8h.html" target="_top" xlink:title="OgreHeaderPrefix.h">
<polygon fill="none" stroke="black" points="83.5,-0.5 83.5,-19.5 186.5,-19.5 186.5,-0.5 83.5,-0.5"/>
<text text-anchor="middle" x="135" y="-7.5" font-family="Helvetica,sans-Serif" font-size="10.00">OgreHeaderPrefix.h</text>
</a>
</g>
</g>
<!-- Node37&#45;&gt;Node39 -->
<g id="edge42" class="edge"><title>Node37&#45;&gt;Node39</title>
<path fill="none" stroke="midnightblue" d="M253.995,-119.108C182.611,-115.535 81.8249,-105.287 57,-76 39.1819,-54.9792 72.2116,-35.3928 100.632,-23.3276"/>
<polygon fill="midnightblue" stroke="midnightblue" points="102.056,-26.5274 110.014,-19.5331 99.4312,-20.0381 102.056,-26.5274"/>
</g>
<!-- Node40 -->
<g id="node40" class="node"><title>Node40</title>
<g id="a_node40"><a xlink:href="_ogre_header_suffix_8h.html" target="_top" xlink:title="OgreHeaderSuffix.h">
<polygon fill="none" stroke="black" points="394.5,-0.5 394.5,-19.5 497.5,-19.5 497.5,-0.5 394.5,-0.5"/>
<text text-anchor="middle" x="446" y="-7.5" font-family="Helvetica,sans-Serif" font-size="10.00">OgreHeaderSuffix.h</text>
</a>
</g>
</g>
<!-- Node37&#45;&gt;Node40 -->
<g id="edge50" class="edge"><title>Node37&#45;&gt;Node40</title>
<path fill="none" stroke="midnightblue" d="M402.201,-114.119C452.998,-107.694 513.959,-96.0079 530,-76 547.85,-53.7363 513.424,-34.6371 483.401,-23.0121"/>
<polygon fill="midnightblue" stroke="midnightblue" points="484.473,-19.6773 473.88,-19.5059 482.054,-26.2461 484.473,-19.6773"/>
</g>
<!-- Node41 -->
<g id="node41" class="node"><title>Node41</title>
<g id="a_node41"><a xlink:href="_ogre_memory_s_t_l_allocator_8h.html" target="_top" xlink:title="OgreMemorySTLAllocator.h">
<polygon fill="none" stroke="black" points="66.5,-56.5 66.5,-75.5 203.5,-75.5 203.5,-56.5 66.5,-56.5"/>
<text text-anchor="middle" x="135" y="-63.5" font-family="Helvetica,sans-Serif" font-size="10.00">OgreMemorySTLAllocator.h</text>
</a>
</g>
</g>
<!-- Node37&#45;&gt;Node41 -->
<g id="edge43" class="edge"><title>Node37&#45;&gt;Node41</title>
<path fill="none" stroke="midnightblue" d="M297.419,-112.444C264.385,-103.201 211.612,-88.4356 175.234,-78.2572"/>
<polygon fill="midnightblue" stroke="midnightblue" points="176.012,-74.8404 165.438,-75.5164 174.125,-81.5815 176.012,-74.8404"/>
</g>
<!-- Node42 -->
<g id="node42" class="node"><title>Node42</title>
<g id="a_node42"><a xlink:href="_ogre_memory_ned_pooling_8h.html" target="_top" xlink:title="OgreMemoryNedPooling.h">
<polygon fill="none" stroke="black" points="221.5,-56.5 221.5,-75.5 352.5,-75.5 352.5,-56.5 221.5,-56.5"/>
<text text-anchor="middle" x="287" y="-63.5" font-family="Helvetica,sans-Serif" font-size="10.00">OgreMemoryNedPooling.h</text>
</a>
</g>
</g>
<!-- Node37&#45;&gt;Node42 -->
<g id="edge47" class="edge"><title>Node37&#45;&gt;Node42</title>
<path fill="none" stroke="midnightblue" d="M321.23,-112.083C315.438,-104.455 306.942,-93.2645 299.862,-83.9408"/>
<polygon fill="midnightblue" stroke="midnightblue" points="302.479,-81.5991 293.644,-75.7511 296.904,-85.8321 302.479,-81.5991"/>
</g>
<!-- Node38&#45;&gt;Node3 -->
<g id="edge39" class="edge"><title>Node38&#45;&gt;Node3</title>
<path fill="none" stroke="midnightblue" d="M452.639,-75.5914C466.701,-93.7889 499.7,-136.494 518.074,-160.272"/>
<polygon fill="midnightblue" stroke="midnightblue" points="515.446,-162.596 524.33,-168.368 520.985,-158.316 515.446,-162.596"/>
</g>
<!-- Node38&#45;&gt;Node39 -->
<g id="edge40" class="edge"><title>Node38&#45;&gt;Node39</title>
<path fill="none" stroke="midnightblue" d="M396.721,-56.4435C341.672,-46.8851 252.601,-31.4195 193.916,-21.2298"/>
<polygon fill="midnightblue" stroke="midnightblue" points="194.5,-17.7788 184.048,-19.5164 193.302,-24.6757 194.5,-17.7788"/>
</g>
<!-- Node38&#45;&gt;Node40 -->
<g id="edge41" class="edge"><title>Node38&#45;&gt;Node40</title>
<path fill="none" stroke="midnightblue" d="M446,-56.083C446,-49.0059 446,-38.8611 446,-29.9865"/>
<polygon fill="midnightblue" stroke="midnightblue" points="449.5,-29.751 446,-19.7511 442.5,-29.7511 449.5,-29.751"/>
</g>
<!-- Node41&#45;&gt;Node3 -->
<g id="edge44" class="edge"><title>Node41&#45;&gt;Node3</title>
<path fill="none" stroke="midnightblue" d="M146.158,-75.5643C165.262,-89.7571 205.962,-117.976 245,-132 319.3,-158.692 410.09,-169.57 469.165,-173.992"/>
<polygon fill="midnightblue" stroke="midnightblue" points="469.23,-177.505 479.452,-174.72 469.724,-170.522 469.23,-177.505"/>
</g>
<!-- Node41&#45;&gt;Node39 -->
<g id="edge45" class="edge"><title>Node41&#45;&gt;Node39</title>
<path fill="none" stroke="midnightblue" d="M135,-56.083C135,-49.0059 135,-38.8611 135,-29.9865"/>
<polygon fill="midnightblue" stroke="midnightblue" points="138.5,-29.751 135,-19.7511 131.5,-29.7511 138.5,-29.751"/>
</g>
<!-- Node41&#45;&gt;Node40 -->
<g id="edge46" class="edge"><title>Node41&#45;&gt;Node40</title>
<path fill="none" stroke="midnightblue" d="M184.279,-56.4435C239.328,-46.8851 328.399,-31.4195 387.084,-21.2298"/>
<polygon fill="midnightblue" stroke="midnightblue" points="387.698,-24.6757 396.952,-19.5164 386.5,-17.7788 387.698,-24.6757"/>
</g>
<!-- Node42&#45;&gt;Node39 -->
<g id="edge48" class="edge"><title>Node42&#45;&gt;Node39</title>
<path fill="none" stroke="midnightblue" d="M262.915,-56.4435C237.455,-47.3986 197.106,-33.064 168.541,-22.9158"/>
<polygon fill="midnightblue" stroke="midnightblue" points="169.567,-19.5661 158.972,-19.5164 167.223,-26.1622 169.567,-19.5661"/>
</g>
<!-- Node42&#45;&gt;Node40 -->
<g id="edge49" class="edge"><title>Node42&#45;&gt;Node40</title>
<path fill="none" stroke="midnightblue" d="M312.194,-56.4435C338.943,-47.3591 381.403,-32.9388 411.305,-22.7831"/>
<polygon fill="midnightblue" stroke="midnightblue" points="412.581,-26.0464 420.924,-19.5164 410.329,-19.4182 412.581,-26.0464"/>
</g>
<!-- Node43&#45;&gt;Node3 -->
<g id="edge52" class="edge"><title>Node43&#45;&gt;Node3</title>
<path fill="none" stroke="midnightblue" d="M531,-280.368C531,-262.617 531,-221.666 531,-197.597"/>
<polygon fill="midnightblue" stroke="midnightblue" points="534.5,-197.591 531,-187.591 527.5,-197.591 534.5,-197.591"/>
</g>
<!-- Node43&#45;&gt;Node39 -->
<g id="edge55" class="edge"><title>Node43&#45;&gt;Node39</title>
<path fill="none" stroke="midnightblue" d="M492.384,-289.222C370.192,-288.899 0,-279.617 0,-179 0,-179 0,-179 0,-121 0,-70.3073 57.9148,-38.8301 97.8783,-23.144"/>
<polygon fill="midnightblue" stroke="midnightblue" points="99.2245,-26.3772 107.355,-19.5841 96.7629,-19.8243 99.2245,-26.3772"/>
</g>
<!-- Node43&#45;&gt;Node40 -->
<g id="edge56" class="edge"><title>Node43&#45;&gt;Node40</title>
<path fill="none" stroke="midnightblue" d="M569.96,-288.237C876.545,-282.109 2889,-239.577 2889,-179 2889,-179 2889,-179 2889,-121 2889,-90.9022 2893.91,-74.2743 2870,-56 2821.65,-19.0504 881.295,-12.1336 507.829,-11.1437"/>
<polygon fill="midnightblue" stroke="midnightblue" points="507.761,-7.64362 497.752,-11.1174 507.743,-14.6436 507.761,-7.64362"/>
</g>
<!-- Node44 -->
<g id="node44" class="node"><title>Node44</title>
<g id="a_node44"><a xlink:href="_ogre_singleton_8h.html" target="_top" xlink:title="OgreSingleton.h">
<polygon fill="none" stroke="black" points="559,-224.5 559,-243.5 645,-243.5 645,-224.5 559,-224.5"/>
<text text-anchor="middle" x="602" y="-231.5" font-family="Helvetica,sans-Serif" font-size="10.00">OgreSingleton.h</text>
</a>
</g>
</g>
<!-- Node43&#45;&gt;Node44 -->
<g id="edge53" class="edge"><title>Node43&#45;&gt;Node44</title>
<path fill="none" stroke="midnightblue" d="M542.407,-280.324C553.109,-272.185 569.341,-259.839 582.163,-250.087"/>
<polygon fill="midnightblue" stroke="midnightblue" points="584.544,-252.673 590.385,-243.834 580.307,-247.102 584.544,-252.673"/>
</g>
<!-- Node44&#45;&gt;Node3 -->
<g id="edge54" class="edge"><title>Node44&#45;&gt;Node3</title>
<path fill="none" stroke="midnightblue" d="M590.593,-224.324C579.891,-216.185 563.659,-203.839 550.837,-194.087"/>
<polygon fill="midnightblue" stroke="midnightblue" points="552.693,-191.102 542.615,-187.834 548.456,-196.673 552.693,-191.102"/>
</g>
</g>
</svg>
