<?xml version="1.0" encoding="UTF-8" standalone="no"?>
<!DOCTYPE svg PUBLIC "-//W3C//DTD SVG 1.1//EN"
 "http://www.w3.org/Graphics/SVG/1.1/DTD/svg11.dtd">
<!-- Generated by graphviz version 2.38.0 (20140413.2041)
 -->
<!-- Title: OgreEAGLSupport.h Pages: 1 -->
<svg width="250pt" height="84pt"
 viewBox="0.00 0.00 249.50 84.00" xmlns="http://www.w3.org/2000/svg" xmlns:xlink="http://www.w3.org/1999/xlink">
<g id="graph0" class="graph" transform="scale(1 1) rotate(0) translate(4 80)">
<title>OgreEAGLSupport.h</title>
<!-- Node1 -->
<g id="node1" class="node"><title>Node1</title>
<polygon fill="#bfbfbf" stroke="black" points="80,-56.5 80,-75.5 186,-75.5 186,-56.5 80,-56.5"/>
<text text-anchor="middle" x="133" y="-63.5" font-family="Helvetica,sans-Serif" font-size="10.00">OgreEAGLSupport.h</text>
</g>
<!-- Node2 -->
<g id="node2" class="node"><title>Node2</title>
<g id="a_node2"><a xlink:href="_ogre_e_a_g_l_view_controller_8h.html" target="_top" xlink:title="OgreEAGLViewController.h">
<polygon fill="none" stroke="black" points="0,-0.5 0,-19.5 136,-19.5 136,-0.5 0,-0.5"/>
<text text-anchor="middle" x="68" y="-7.5" font-family="Helvetica,sans-Serif" font-size="10.00">OgreEAGLViewController.h</text>
</a>
</g>
</g>
<!-- Node1&#45;&gt;Node2 -->
<g id="edge1" class="edge"><title>Node1&#45;&gt;Node2</title>
<path fill="none" stroke="midnightblue" d="M114.727,-49.8197C103.082,-40.1452 88.4005,-27.9481 78.6334,-19.8339"/>
<polygon fill="midnightblue" stroke="midnightblue" points="112.628,-52.6259 122.557,-56.324 117.101,-47.2416 112.628,-52.6259"/>
</g>
<!-- Node3 -->
<g id="node3" class="node"><title>Node3</title>
<g id="a_node3"><a xlink:href="_e_a_g_l_2_ogre_g_l_e_s_util_8h.html" target="_top" xlink:title="OgreGLESUtil.h">
<polygon fill="none" stroke="black" points="154.5,-0.5 154.5,-19.5 241.5,-19.5 241.5,-0.5 154.5,-0.5"/>
<text text-anchor="middle" x="198" y="-7.5" font-family="Helvetica,sans-Serif" font-size="10.00">OgreGLESUtil.h</text>
</a>
</g>
</g>
<!-- Node1&#45;&gt;Node3 -->
<g id="edge2" class="edge"><title>Node1&#45;&gt;Node3</title>
<path fill="none" stroke="midnightblue" d="M151.273,-49.8197C162.918,-40.1452 177.599,-27.9481 187.367,-19.8339"/>
<polygon fill="midnightblue" stroke="midnightblue" points="148.899,-47.2416 143.443,-56.324 153.372,-52.6259 148.899,-47.2416"/>
</g>
</g>
</svg>
