<?xml version="1.0" encoding="UTF-8" standalone="no"?>
<!DOCTYPE svg PUBLIC "-//W3C//DTD SVG 1.1//EN"
 "http://www.w3.org/Graphics/SVG/1.1/DTD/svg11.dtd">
<!-- Generated by graphviz version 2.38.0 (20140413.2041)
 -->
<!-- Title: OgreTextureManager.h Pages: 1 -->
<svg width="1377pt" height="308pt"
 viewBox="0.00 0.00 1376.50 308.00" xmlns="http://www.w3.org/2000/svg" xmlns:xlink="http://www.w3.org/1999/xlink">
<g id="graph0" class="graph" transform="scale(1 1) rotate(0) translate(4 304)">
<title>OgreTextureManager.h</title>
<!-- Node1 -->
<g id="node1" class="node"><title>Node1</title>
<polygon fill="#bfbfbf" stroke="black" points="745.5,-280.5 745.5,-299.5 861.5,-299.5 861.5,-280.5 745.5,-280.5"/>
<text text-anchor="middle" x="803.5" y="-287.5" font-family="Helvetica,sans-Serif" font-size="10.00">OgreTextureManager.h</text>
</g>
<!-- Node2 -->
<g id="node2" class="node"><title>Node2</title>
<g id="a_node2"><a xlink:href="_ogre_8h.html" target="_top" xlink:title="Ogre.h">
<polygon fill="none" stroke="black" points="348.5,-224.5 348.5,-243.5 394.5,-243.5 394.5,-224.5 348.5,-224.5"/>
<text text-anchor="middle" x="371.5" y="-231.5" font-family="Helvetica,sans-Serif" font-size="10.00">Ogre.h</text>
</a>
</g>
</g>
<!-- Node1&#45;&gt;Node2 -->
<g id="edge1" class="edge"><title>Node1&#45;&gt;Node2</title>
<path fill="none" stroke="midnightblue" d="M734.984,-284.686C654.913,-278.863 518.692,-266.524 403.5,-244 400.668,-243.446 397.722,-242.766 394.814,-242.028"/>
<polygon fill="midnightblue" stroke="midnightblue" points="735.199,-288.21 745.423,-285.431 735.698,-281.228 735.199,-288.21"/>
</g>
<!-- Node13 -->
<g id="node13" class="node"><title>Node13</title>
<g id="a_node13"><a xlink:href="_ogre_d3_d11_texture_manager_8h.html" target="_top" xlink:title="OgreD3D11TextureManager.h">
<polygon fill="none" stroke="black" points="413,-224.5 413,-243.5 560,-243.5 560,-224.5 413,-224.5"/>
<text text-anchor="middle" x="486.5" y="-231.5" font-family="Helvetica,sans-Serif" font-size="10.00">OgreD3D11TextureManager.h</text>
</a>
</g>
</g>
<!-- Node1&#45;&gt;Node13 -->
<g id="edge20" class="edge"><title>Node1&#45;&gt;Node13</title>
<path fill="none" stroke="midnightblue" d="M743.197,-278.727C683.293,-268.523 592.509,-253.058 536.495,-243.516"/>
<polygon fill="midnightblue" stroke="midnightblue" points="742.825,-282.214 753.27,-280.444 744,-275.314 742.825,-282.214"/>
</g>
<!-- Node14 -->
<g id="node14" class="node"><title>Node14</title>
<g id="a_node14"><a xlink:href="_ogre_d3_d9_texture_manager_8h.html" target="_top" xlink:title="OgreD3D9TextureManager.h">
<polygon fill="none" stroke="black" points="578.5,-224.5 578.5,-243.5 720.5,-243.5 720.5,-224.5 578.5,-224.5"/>
<text text-anchor="middle" x="649.5" y="-231.5" font-family="Helvetica,sans-Serif" font-size="10.00">OgreD3D9TextureManager.h</text>
</a>
</g>
</g>
<!-- Node1&#45;&gt;Node14 -->
<g id="edge21" class="edge"><title>Node1&#45;&gt;Node14</title>
<path fill="none" stroke="midnightblue" d="M769.389,-277.039C740.413,-266.879 699.538,-252.546 673.788,-243.516"/>
<polygon fill="midnightblue" stroke="midnightblue" points="768.503,-280.437 779.098,-280.444 770.82,-273.832 768.503,-280.437"/>
</g>
<!-- Node15 -->
<g id="node15" class="node"><title>Node15</title>
<g id="a_node15"><a xlink:href="_ogre_g_l_texture_manager_8h.html" target="_top" xlink:title="OgreGLTextureManager.h">
<polygon fill="none" stroke="black" points="739,-224.5 739,-243.5 868,-243.5 868,-224.5 739,-224.5"/>
<text text-anchor="middle" x="803.5" y="-231.5" font-family="Helvetica,sans-Serif" font-size="10.00">OgreGLTextureManager.h</text>
</a>
</g>
</g>
<!-- Node1&#45;&gt;Node15 -->
<g id="edge22" class="edge"><title>Node1&#45;&gt;Node15</title>
<path fill="none" stroke="midnightblue" d="M803.5,-269.805C803.5,-260.91 803.5,-250.78 803.5,-243.751"/>
<polygon fill="midnightblue" stroke="midnightblue" points="800,-270.083 803.5,-280.083 807,-270.083 800,-270.083"/>
</g>
<!-- Node16 -->
<g id="node16" class="node"><title>Node16</title>
<g id="a_node16"><a xlink:href="_ogre_g_l3_plus_texture_manager_8h.html" target="_top" xlink:title="OgreGL3PlusTextureManager.h">
<polygon fill="none" stroke="black" points="886.5,-224.5 886.5,-243.5 1040.5,-243.5 1040.5,-224.5 886.5,-224.5"/>
<text text-anchor="middle" x="963.5" y="-231.5" font-family="Helvetica,sans-Serif" font-size="10.00">OgreGL3PlusTextureManager.h</text>
</a>
</g>
</g>
<!-- Node1&#45;&gt;Node16 -->
<g id="edge23" class="edge"><title>Node1&#45;&gt;Node16</title>
<path fill="none" stroke="midnightblue" d="M838.546,-277.172C868.674,-267.004 911.396,-252.585 938.266,-243.516"/>
<polygon fill="midnightblue" stroke="midnightblue" points="837.208,-273.929 828.852,-280.444 839.447,-280.562 837.208,-273.929"/>
</g>
<!-- Node17 -->
<g id="node17" class="node"><title>Node17</title>
<g id="a_node17"><a xlink:href="_ogre_g_l_e_s_texture_manager_8h.html" target="_top" xlink:title="OgreGLESTextureManager.h">
<polygon fill="none" stroke="black" points="1059,-224.5 1059,-243.5 1202,-243.5 1202,-224.5 1059,-224.5"/>
<text text-anchor="middle" x="1130.5" y="-231.5" font-family="Helvetica,sans-Serif" font-size="10.00">OgreGLESTextureManager.h</text>
</a>
</g>
</g>
<!-- Node1&#45;&gt;Node17 -->
<g id="edge24" class="edge"><title>Node1&#45;&gt;Node17</title>
<path fill="none" stroke="midnightblue" d="M865.323,-278.791C927.112,-268.587 1021.03,-253.078 1078.93,-243.516"/>
<polygon fill="midnightblue" stroke="midnightblue" points="864.61,-275.361 855.314,-280.444 865.751,-282.267 864.61,-275.361"/>
</g>
<!-- Node18 -->
<g id="node18" class="node"><title>Node18</title>
<g id="a_node18"><a xlink:href="_ogre_g_l_e_s2_texture_manager_8h.html" target="_top" xlink:title="OgreGLES2TextureManager.h">
<polygon fill="none" stroke="black" points="1220.5,-224.5 1220.5,-243.5 1368.5,-243.5 1368.5,-224.5 1220.5,-224.5"/>
<text text-anchor="middle" x="1294.5" y="-231.5" font-family="Helvetica,sans-Serif" font-size="10.00">OgreGLES2TextureManager.h</text>
</a>
</g>
</g>
<!-- Node1&#45;&gt;Node18 -->
<g id="edge25" class="edge"><title>Node1&#45;&gt;Node18</title>
<path fill="none" stroke="midnightblue" d="M871.757,-281.493C963.432,-271.411 1125.73,-253.562 1220.33,-243.157"/>
<polygon fill="midnightblue" stroke="midnightblue" points="871.31,-278.021 861.752,-282.593 872.075,-284.979 871.31,-278.021"/>
</g>
<!-- Node3 -->
<g id="node3" class="node"><title>Node3</title>
<g id="a_node3"><a xlink:href="_ogre_hlms_datablock_8h.html" target="_top" xlink:title="OgreHlmsDatablock.h">
<polygon fill="none" stroke="black" points="93,-112.5 93,-131.5 206,-131.5 206,-112.5 93,-112.5"/>
<text text-anchor="middle" x="149.5" y="-119.5" font-family="Helvetica,sans-Serif" font-size="10.00">OgreHlmsDatablock.h</text>
</a>
</g>
</g>
<!-- Node2&#45;&gt;Node3 -->
<g id="edge2" class="edge"><title>Node2&#45;&gt;Node3</title>
<path fill="none" stroke="midnightblue" d="M337.925,-232.689C271.514,-231.285 127.137,-224.058 96.5,-188 79.5297,-168.027 112.626,-144.006 133.773,-131.504"/>
<polygon fill="midnightblue" stroke="midnightblue" points="338.198,-236.194 348.259,-232.873 338.323,-229.195 338.198,-236.194"/>
</g>
<!-- Node4 -->
<g id="node4" class="node"><title>Node4</title>
<g id="a_node4"><a xlink:href="_ogre_hlms_material_base_8h.html" target="_top" xlink:title="OgreHlmsMaterialBase.h">
<polygon fill="none" stroke="black" points="57.5,-56.5 57.5,-75.5 183.5,-75.5 183.5,-56.5 57.5,-56.5"/>
<text text-anchor="middle" x="120.5" y="-63.5" font-family="Helvetica,sans-Serif" font-size="10.00">OgreHlmsMaterialBase.h</text>
</a>
</g>
</g>
<!-- Node2&#45;&gt;Node4 -->
<g id="edge14" class="edge"><title>Node2&#45;&gt;Node4</title>
<path fill="none" stroke="midnightblue" d="M338.137,-232.627C270.724,-231.12 121.854,-223.726 88.5,-188 65.3993,-163.257 72.0813,-143.867 83.5,-112 88.7541,-97.337 101.076,-84.0309 110.062,-75.7555"/>
<polygon fill="midnightblue" stroke="midnightblue" points="338.161,-236.128 348.227,-232.822 338.296,-229.129 338.161,-236.128"/>
</g>
<!-- Node5 -->
<g id="node5" class="node"><title>Node5</title>
<g id="a_node5"><a xlink:href="_ogre_hlms_pbs_material_8h.html" target="_top" xlink:title="OgreHlmsPbsMaterial.h">
<polygon fill="none" stroke="black" points="0,-0.5 0,-19.5 121,-19.5 121,-0.5 0,-0.5"/>
<text text-anchor="middle" x="60.5" y="-7.5" font-family="Helvetica,sans-Serif" font-size="10.00">OgreHlmsPbsMaterial.h</text>
</a>
</g>
</g>
<!-- Node2&#45;&gt;Node5 -->
<g id="edge15" class="edge"><title>Node2&#45;&gt;Node5</title>
<path fill="none" stroke="midnightblue" d="M338.077,-232.595C268.271,-231.037 110.334,-223.569 72.5,-188 29.0556,-147.157 40.7523,-115.123 48.5,-56 50.1809,-43.1729 54.4482,-28.8015 57.4123,-19.8268"/>
<polygon fill="midnightblue" stroke="midnightblue" points="338.035,-236.095 348.102,-232.791 338.172,-229.096 338.035,-236.095"/>
</g>
<!-- Node6 -->
<g id="node6" class="node"><title>Node6</title>
<g id="a_node6"><a xlink:href="_ogre_hlms_property_map_8h.html" target="_top" xlink:title="OgreHlmsPropertyMap.h">
<polygon fill="none" stroke="black" points="264,-168.5 264,-187.5 389,-187.5 389,-168.5 264,-168.5"/>
<text text-anchor="middle" x="326.5" y="-175.5" font-family="Helvetica,sans-Serif" font-size="10.00">OgreHlmsPropertyMap.h</text>
</a>
</g>
</g>
<!-- Node2&#45;&gt;Node6 -->
<g id="edge5" class="edge"><title>Node2&#45;&gt;Node6</title>
<path fill="none" stroke="midnightblue" d="M357.453,-216.144C349.613,-206.736 340.171,-195.405 333.793,-187.751"/>
<polygon fill="midnightblue" stroke="midnightblue" points="354.979,-218.641 364.069,-224.083 360.356,-214.16 354.979,-218.641"/>
</g>
<!-- Node7 -->
<g id="node7" class="node"><title>Node7</title>
<g id="a_node7"><a xlink:href="_ogre_hlms_shader_generator_8h.html" target="_top" xlink:title="OgreHlmsShaderGenerator.h">
<polygon fill="none" stroke="black" points="346,-112.5 346,-131.5 489,-131.5 489,-112.5 346,-112.5"/>
<text text-anchor="middle" x="417.5" y="-119.5" font-family="Helvetica,sans-Serif" font-size="10.00">OgreHlmsShaderGenerator.h</text>
</a>
</g>
</g>
<!-- Node2&#45;&gt;Node7 -->
<g id="edge18" class="edge"><title>Node2&#45;&gt;Node7</title>
<path fill="none" stroke="midnightblue" d="M382.699,-215.74C387.684,-207.558 393.352,-197.511 397.5,-188 405.995,-168.519 412.432,-144.298 415.505,-131.634"/>
<polygon fill="midnightblue" stroke="midnightblue" points="379.649,-214.015 377.292,-224.344 385.576,-217.74 379.649,-214.015"/>
</g>
<!-- Node8 -->
<g id="node8" class="node"><title>Node8</title>
<g id="a_node8"><a xlink:href="_ogre_hlms_shader_template_8h.html" target="_top" xlink:title="OgreHlmsShaderTemplate.h">
<polygon fill="none" stroke="black" points="105.5,-168.5 105.5,-187.5 245.5,-187.5 245.5,-168.5 105.5,-168.5"/>
<text text-anchor="middle" x="175.5" y="-175.5" font-family="Helvetica,sans-Serif" font-size="10.00">OgreHlmsShaderTemplate.h</text>
</a>
</g>
</g>
<!-- Node2&#45;&gt;Node8 -->
<g id="edge9" class="edge"><title>Node2&#45;&gt;Node8</title>
<path fill="none" stroke="midnightblue" d="M338.481,-223.903C301.626,-213.749 242.451,-197.446 206.455,-187.529"/>
<polygon fill="midnightblue" stroke="midnightblue" points="337.676,-227.312 348.247,-226.593 339.535,-220.563 337.676,-227.312"/>
</g>
<!-- Node9 -->
<g id="node9" class="node"><title>Node9</title>
<g id="a_node9"><a xlink:href="_ogre_hlms_manager_8h.html" target="_top" xlink:title="OgreHlmsManager.h">
<polygon fill="none" stroke="black" points="608,-112.5 608,-131.5 715,-131.5 715,-112.5 608,-112.5"/>
<text text-anchor="middle" x="661.5" y="-119.5" font-family="Helvetica,sans-Serif" font-size="10.00">OgreHlmsManager.h</text>
</a>
</g>
</g>
<!-- Node2&#45;&gt;Node9 -->
<g id="edge11" class="edge"><title>Node2&#45;&gt;Node9</title>
<path fill="none" stroke="midnightblue" d="M404.36,-224.058C489.848,-205.901 520.58,-226.321 594.5,-188 621.261,-174.126 644.504,-146.1 655.214,-131.81"/>
<polygon fill="midnightblue" stroke="midnightblue" points="403.501,-220.664 394.509,-226.268 405.033,-227.494 403.501,-220.664"/>
</g>
<!-- Node10 -->
<g id="node10" class="node"><title>Node10</title>
<g id="a_node10"><a xlink:href="_ogre_hlms_shader_manager_8h.html" target="_top" xlink:title="OgreHlmsShaderManager.h">
<polygon fill="none" stroke="black" points="642,-168.5 642,-187.5 779,-187.5 779,-168.5 642,-168.5"/>
<text text-anchor="middle" x="710.5" y="-175.5" font-family="Helvetica,sans-Serif" font-size="10.00">OgreHlmsShaderManager.h</text>
</a>
</g>
</g>
<!-- Node2&#45;&gt;Node10 -->
<g id="edge12" class="edge"><title>Node2&#45;&gt;Node10</title>
<path fill="none" stroke="midnightblue" d="M404.848,-223.937C491.615,-205.778 581.572,-193.668 641.768,-186.508"/>
<polygon fill="midnightblue" stroke="midnightblue" points="403.887,-220.563 394.832,-226.064 405.341,-227.41 403.887,-220.563"/>
</g>
<!-- Node11 -->
<g id="node11" class="node"><title>Node11</title>
<g id="a_node11"><a xlink:href="_ogre_hlms_shader_common_8h.html" target="_top" xlink:title="OgreHlmsShaderCommon.h">
<polygon fill="none" stroke="black" points="445.5,-168.5 445.5,-187.5 585.5,-187.5 585.5,-168.5 445.5,-168.5"/>
<text text-anchor="middle" x="515.5" y="-175.5" font-family="Helvetica,sans-Serif" font-size="10.00">OgreHlmsShaderCommon.h</text>
</a>
</g>
</g>
<!-- Node2&#45;&gt;Node11 -->
<g id="edge16" class="edge"><title>Node2&#45;&gt;Node11</title>
<path fill="none" stroke="midnightblue" d="M403.751,-220.906C430.824,-210.754 468.817,-196.506 492.79,-187.516"/>
<polygon fill="midnightblue" stroke="midnightblue" points="402.452,-217.655 394.317,-224.444 404.909,-224.209 402.452,-217.655"/>
</g>
<!-- Node12 -->
<g id="node12" class="node"><title>Node12</title>
<g id="a_node12"><a xlink:href="_ogre_hlms_shader_pieces_manager_8h.html" target="_top" xlink:title="OgreHlmsShaderPiecesManager.h">
<polygon fill="none" stroke="black" points="797,-168.5 797,-187.5 964,-187.5 964,-168.5 797,-168.5"/>
<text text-anchor="middle" x="880.5" y="-175.5" font-family="Helvetica,sans-Serif" font-size="10.00">OgreHlmsShaderPiecesManager.h</text>
</a>
</g>
</g>
<!-- Node2&#45;&gt;Node12 -->
<g id="edge19" class="edge"><title>Node2&#45;&gt;Node12</title>
<path fill="none" stroke="midnightblue" d="M404.811,-224.065C574.224,-193.044 620.681,-204.055 788.5,-188 791.216,-187.74 793.977,-187.475 796.765,-187.207"/>
<polygon fill="midnightblue" stroke="midnightblue" points="403.998,-220.656 394.804,-225.92 405.274,-227.539 403.998,-220.656"/>
</g>
<!-- Node3&#45;&gt;Node4 -->
<g id="edge3" class="edge"><title>Node3&#45;&gt;Node4</title>
<path fill="none" stroke="midnightblue" d="M139.824,-102.983C134.902,-93.8168 129.142,-83.0922 125.2,-75.7511"/>
<polygon fill="midnightblue" stroke="midnightblue" points="136.896,-104.929 144.711,-112.083 143.063,-101.617 136.896,-104.929"/>
</g>
<!-- Node4&#45;&gt;Node5 -->
<g id="edge4" class="edge"><title>Node4&#45;&gt;Node5</title>
<path fill="none" stroke="midnightblue" d="M103.319,-49.5372C92.6208,-39.9087 79.2437,-27.8694 70.3154,-19.8339"/>
<polygon fill="midnightblue" stroke="midnightblue" points="101.086,-52.2358 110.86,-56.324 105.768,-47.0327 101.086,-52.2358"/>
</g>
<!-- Node6&#45;&gt;Node3 -->
<g id="edge6" class="edge"><title>Node6&#45;&gt;Node3</title>
<path fill="none" stroke="midnightblue" d="M288.597,-165.436C255.225,-155.255 207.399,-140.664 177.415,-131.516"/>
<polygon fill="midnightblue" stroke="midnightblue" points="287.868,-168.873 298.454,-168.444 289.91,-162.178 287.868,-168.873"/>
</g>
<!-- Node6&#45;&gt;Node4 -->
<g id="edge7" class="edge"><title>Node6&#45;&gt;Node4</title>
<path fill="none" stroke="midnightblue" d="M303.793,-163.11C281.375,-149.566 245.98,-128.636 214.5,-112 188.905,-98.4739 158.585,-84.2773 139.444,-75.532"/>
<polygon fill="midnightblue" stroke="midnightblue" points="302.192,-166.232 312.557,-168.428 305.824,-160.248 302.192,-166.232"/>
</g>
<!-- Node6&#45;&gt;Node7 -->
<g id="edge8" class="edge"><title>Node6&#45;&gt;Node7</title>
<path fill="none" stroke="midnightblue" d="M349.794,-163.177C366.539,-153.241 388.6,-140.149 402.916,-131.655"/>
<polygon fill="midnightblue" stroke="midnightblue" points="347.934,-160.211 341.121,-168.324 351.507,-166.231 347.934,-160.211"/>
</g>
<!-- Node8&#45;&gt;Node3 -->
<g id="edge10" class="edge"><title>Node8&#45;&gt;Node3</title>
<path fill="none" stroke="midnightblue" d="M166.825,-158.983C162.412,-149.817 157.248,-139.092 153.713,-131.751"/>
<polygon fill="midnightblue" stroke="midnightblue" points="163.715,-160.591 171.207,-168.083 170.022,-157.555 163.715,-160.591"/>
</g>
<!-- Node10&#45;&gt;Node9 -->
<g id="edge13" class="edge"><title>Node10&#45;&gt;Node9</title>
<path fill="none" stroke="midnightblue" d="M695.466,-160.431C686.878,-150.967 676.457,-139.483 669.441,-131.751"/>
<polygon fill="midnightblue" stroke="midnightblue" points="693.097,-163.029 702.409,-168.083 698.281,-158.325 693.097,-163.029"/>
</g>
<!-- Node11&#45;&gt;Node7 -->
<g id="edge17" class="edge"><title>Node11&#45;&gt;Node7</title>
<path fill="none" stroke="midnightblue" d="M490.914,-163.453C472.822,-153.483 448.765,-140.228 433.206,-131.655"/>
<polygon fill="midnightblue" stroke="midnightblue" points="489.307,-166.563 499.755,-168.324 492.685,-160.432 489.307,-166.563"/>
</g>
</g>
</svg>
