<?xml version="1.0" encoding="UTF-8" standalone="no"?>
<!DOCTYPE svg PUBLIC "-//W3C//DTD SVG 1.1//EN"
 "http://www.w3.org/Graphics/SVG/1.1/DTD/svg11.dtd">
<!-- Generated by graphviz version 2.38.0 (20140413.2041)
 -->
<!-- Title: OgreGLATIFSInit.h Pages: 1 -->
<svg width="1994pt" height="476pt"
 viewBox="0.00 0.00 1994.09 476.00" xmlns="http://www.w3.org/2000/svg" xmlns:xlink="http://www.w3.org/1999/xlink">
<g id="graph0" class="graph" transform="scale(1 1) rotate(0) translate(4 472)">
<title>OgreGLATIFSInit.h</title>
<!-- Node1 -->
<g id="node1" class="node"><title>Node1</title>
<polygon fill="#bfbfbf" stroke="black" points="1514.5,-448.5 1514.5,-467.5 1615.5,-467.5 1615.5,-448.5 1514.5,-448.5"/>
<text text-anchor="middle" x="1565" y="-455.5" font-family="Helvetica,sans-Serif" font-size="10.00">OgreGLATIFSInit.h</text>
</g>
<!-- Node2 -->
<g id="node2" class="node"><title>Node2</title>
<g id="a_node2"><a xlink:href="_ogre_g_l_support_8h.html" target="_top" xlink:title="OgreGLSupport.h">
<polygon fill="none" stroke="black" points="1519,-392.5 1519,-411.5 1611,-411.5 1611,-392.5 1519,-392.5"/>
<text text-anchor="middle" x="1565" y="-399.5" font-family="Helvetica,sans-Serif" font-size="10.00">OgreGLSupport.h</text>
</a>
</g>
</g>
<!-- Node1&#45;&gt;Node2 -->
<g id="edge1" class="edge"><title>Node1&#45;&gt;Node2</title>
<path fill="none" stroke="midnightblue" d="M1565,-448.083C1565,-441.006 1565,-430.861 1565,-421.986"/>
<polygon fill="midnightblue" stroke="midnightblue" points="1568.5,-421.751 1565,-411.751 1561.5,-421.751 1568.5,-421.751"/>
</g>
<!-- Node3 -->
<g id="node3" class="node"><title>Node3</title>
<g id="a_node3"><a xlink:href="_ogre_g_l_prerequisites_8h.html" target="_top" xlink:title="OgreGLPrerequisites.h">
<polygon fill="none" stroke="black" points="335,-224.5 335,-243.5 451,-243.5 451,-224.5 335,-224.5"/>
<text text-anchor="middle" x="393" y="-231.5" font-family="Helvetica,sans-Serif" font-size="10.00">OgreGLPrerequisites.h</text>
</a>
</g>
</g>
<!-- Node2&#45;&gt;Node3 -->
<g id="edge2" class="edge"><title>Node2&#45;&gt;Node3</title>
<path fill="none" stroke="midnightblue" d="M1518.77,-401.508C1332.61,-402.85 638.838,-400.862 449,-300 428.714,-289.222 412.547,-267.841 402.897,-252.543"/>
<polygon fill="midnightblue" stroke="midnightblue" points="405.653,-250.331 397.52,-243.541 399.644,-253.921 405.653,-250.331"/>
</g>
<!-- Node16 -->
<g id="node16" class="node"><title>Node16</title>
<g id="a_node16"><a xlink:href="_ogre_g_l_render_system_8h.html" target="_top" xlink:title="OgreGLRenderSystem.h">
<polygon fill="none" stroke="black" points="934,-336.5 934,-355.5 1058,-355.5 1058,-336.5 934,-336.5"/>
<text text-anchor="middle" x="996" y="-343.5" font-family="Helvetica,sans-Serif" font-size="10.00">OgreGLRenderSystem.h</text>
</a>
</g>
</g>
<!-- Node2&#45;&gt;Node16 -->
<g id="edge16" class="edge"><title>Node2&#45;&gt;Node16</title>
<path fill="none" stroke="midnightblue" d="M1518.92,-396.627C1420.07,-387.246 1187.04,-365.131 1068.29,-353.861"/>
<polygon fill="midnightblue" stroke="midnightblue" points="1068.49,-350.364 1058.21,-352.904 1067.83,-357.333 1068.49,-350.364"/>
</g>
<!-- Node21 -->
<g id="node21" class="node"><title>Node21</title>
<g id="a_node21"><a xlink:href="_ogre_config_option_map_8h.html" target="_top" xlink:title="OgreConfigOptionMap.h">
<polygon fill="none" stroke="red" points="1526,-168.5 1526,-187.5 1648,-187.5 1648,-168.5 1526,-168.5"/>
<text text-anchor="middle" x="1587" y="-175.5" font-family="Helvetica,sans-Serif" font-size="10.00">OgreConfigOptionMap.h</text>
</a>
</g>
</g>
<!-- Node2&#45;&gt;Node21 -->
<g id="edge70" class="edge"><title>Node2&#45;&gt;Node21</title>
<path fill="none" stroke="midnightblue" d="M1563.65,-392.371C1559.86,-366.451 1550.39,-287.17 1565,-224 1567.23,-214.363 1571.82,-204.405 1576.24,-196.315"/>
<polygon fill="midnightblue" stroke="midnightblue" points="1579.35,-197.922 1581.36,-187.519 1573.3,-194.397 1579.35,-197.922"/>
</g>
<!-- Node32 -->
<g id="node32" class="node"><title>Node32</title>
<g id="a_node32"><a xlink:href="_ogre_render_window_8h.html" target="_top" xlink:title="OgreRenderWindow.h">
<polygon fill="none" stroke="red" points="1752.5,-224.5 1752.5,-243.5 1865.5,-243.5 1865.5,-224.5 1752.5,-224.5"/>
<text text-anchor="middle" x="1809" y="-231.5" font-family="Helvetica,sans-Serif" font-size="10.00">OgreRenderWindow.h</text>
</a>
</g>
</g>
<!-- Node2&#45;&gt;Node32 -->
<g id="edge69" class="edge"><title>Node2&#45;&gt;Node32</title>
<path fill="none" stroke="midnightblue" d="M1608.18,-392.495C1658.29,-380.428 1740.15,-353.571 1788,-300 1799.47,-287.158 1804.68,-267.976 1807.05,-253.775"/>
<polygon fill="midnightblue" stroke="midnightblue" points="1810.54,-254.046 1808.4,-243.671 1803.61,-253.118 1810.54,-254.046"/>
</g>
<!-- Node33 -->
<g id="node33" class="node"><title>Node33</title>
<g id="a_node33"><a xlink:href="_ogre_g_l_p_buffer_8h.html" target="_top" xlink:title="OgreGLPBuffer.h">
<polygon fill="none" stroke="black" points="1842,-336.5 1842,-355.5 1934,-355.5 1934,-336.5 1842,-336.5"/>
<text text-anchor="middle" x="1888" y="-343.5" font-family="Helvetica,sans-Serif" font-size="10.00">OgreGLPBuffer.h</text>
</a>
</g>
</g>
<!-- Node2&#45;&gt;Node33 -->
<g id="edge71" class="edge"><title>Node2&#45;&gt;Node33</title>
<path fill="none" stroke="midnightblue" d="M1611.28,-393.263C1669.44,-383.539 1769.21,-366.859 1831.73,-356.408"/>
<polygon fill="midnightblue" stroke="midnightblue" points="1832.52,-359.824 1841.81,-354.723 1831.37,-352.919 1832.52,-359.824"/>
</g>
<!-- Node34 -->
<g id="node34" class="node"><title>Node34</title>
<g id="a_node34"><a xlink:href="_ogre_g_l_native_support_8h.html" target="_top" xlink:title="OgreGLNativeSupport.h">
<polygon fill="none" stroke="black" points="1574.5,-224.5 1574.5,-243.5 1695.5,-243.5 1695.5,-224.5 1574.5,-224.5"/>
<text text-anchor="middle" x="1635" y="-231.5" font-family="Helvetica,sans-Serif" font-size="10.00">OgreGLNativeSupport.h</text>
</a>
</g>
</g>
<!-- Node2&#45;&gt;Node34 -->
<g id="edge73" class="edge"><title>Node2&#45;&gt;Node34</title>
<path fill="none" stroke="midnightblue" d="M1567.18,-392.205C1572.4,-371.846 1586.63,-320.152 1606,-280 1610.7,-270.269 1617.11,-260.096 1622.71,-251.89"/>
<polygon fill="midnightblue" stroke="midnightblue" points="1625.66,-253.78 1628.55,-243.588 1619.93,-249.751 1625.66,-253.78"/>
</g>
<!-- Node4 -->
<g id="node4" class="node"><title>Node4</title>
<g id="a_node4"><a xlink:href="_ogre_prerequisites_8h.html" target="_top" xlink:title="OgrePrerequisites.h">
<polygon fill="none" stroke="black" points="1344.5,-112.5 1344.5,-131.5 1447.5,-131.5 1447.5,-112.5 1344.5,-112.5"/>
<text text-anchor="middle" x="1396" y="-119.5" font-family="Helvetica,sans-Serif" font-size="10.00">OgrePrerequisites.h</text>
</a>
</g>
</g>
<!-- Node3&#45;&gt;Node4 -->
<g id="edge3" class="edge"><title>Node3&#45;&gt;Node4</title>
<path fill="none" stroke="midnightblue" d="M451.019,-227.794C466.594,-226.473 483.434,-225.114 499,-224 636.215,-214.18 984.467,-224.87 1117,-188 1135.39,-182.885 1136.97,-174.266 1155,-168 1213.93,-147.516 1284.38,-135.737 1333.84,-129.409"/>
<polygon fill="midnightblue" stroke="midnightblue" points="1334.58,-132.845 1344.07,-128.141 1333.71,-125.899 1334.58,-132.845"/>
</g>
<!-- Node11 -->
<g id="node11" class="node"><title>Node11</title>
<polygon fill="none" stroke="#bfbfbf" points="28.5,-168.5 28.5,-187.5 91.5,-187.5 91.5,-168.5 28.5,-168.5"/>
<text text-anchor="middle" x="60" y="-175.5" font-family="Helvetica,sans-Serif" font-size="10.00">windows.h</text>
</g>
<!-- Node3&#45;&gt;Node11 -->
<g id="edge11" class="edge"><title>Node3&#45;&gt;Node11</title>
<path fill="none" stroke="midnightblue" d="M334.982,-225.291C277.924,-217.439 188.132,-204.36 101.8,-188.247"/>
<polygon fill="midnightblue" stroke="midnightblue" points="102.311,-184.782 91.8357,-186.371 101.015,-191.661 102.311,-184.782"/>
</g>
<!-- Node12 -->
<g id="node12" class="node"><title>Node12</title>
<polygon fill="none" stroke="#bfbfbf" points="109.5,-168.5 109.5,-187.5 162.5,-187.5 162.5,-168.5 109.5,-168.5"/>
<text text-anchor="middle" x="136" y="-175.5" font-family="Helvetica,sans-Serif" font-size="10.00">wingdi.h</text>
</g>
<!-- Node3&#45;&gt;Node12 -->
<g id="edge12" class="edge"><title>Node3&#45;&gt;Node12</title>
<path fill="none" stroke="midnightblue" d="M347.358,-224.464C304.57,-216.301 238.584,-203.305 172.838,-188.342"/>
<polygon fill="midnightblue" stroke="midnightblue" points="173.247,-184.845 162.718,-186.022 171.684,-191.668 173.247,-184.845"/>
</g>
<!-- Node13 -->
<g id="node13" class="node"><title>Node13</title>
<polygon fill="none" stroke="#bfbfbf" points="180.5,-168.5 180.5,-187.5 241.5,-187.5 241.5,-168.5 180.5,-168.5"/>
<text text-anchor="middle" x="211" y="-175.5" font-family="Helvetica,sans-Serif" font-size="10.00">GL/glew.h</text>
</g>
<!-- Node3&#45;&gt;Node13 -->
<g id="edge13" class="edge"><title>Node3&#45;&gt;Node13</title>
<path fill="none" stroke="midnightblue" d="M364.162,-224.444C333.144,-215.241 283.671,-200.562 249.382,-190.388"/>
<polygon fill="midnightblue" stroke="midnightblue" points="250.286,-187.006 239.704,-187.516 248.295,-193.716 250.286,-187.006"/>
</g>
<!-- Node14 -->
<g id="node14" class="node"><title>Node14</title>
<polygon fill="none" stroke="#bfbfbf" points="260,-168.5 260,-187.5 328,-187.5 328,-168.5 260,-168.5"/>
<text text-anchor="middle" x="294" y="-175.5" font-family="Helvetica,sans-Serif" font-size="10.00">GL/wglew.h</text>
</g>
<!-- Node3&#45;&gt;Node14 -->
<g id="edge14" class="edge"><title>Node3&#45;&gt;Node14</title>
<path fill="none" stroke="midnightblue" d="M377.094,-224.324C361.362,-215.743 337.058,-202.486 318.791,-192.522"/>
<polygon fill="midnightblue" stroke="midnightblue" points="320.322,-189.37 309.867,-187.655 316.97,-195.516 320.322,-189.37"/>
</g>
<!-- Node15 -->
<g id="node15" class="node"><title>Node15</title>
<polygon fill="none" stroke="#bfbfbf" points="346.5,-168.5 346.5,-187.5 399.5,-187.5 399.5,-168.5 346.5,-168.5"/>
<text text-anchor="middle" x="373" y="-175.5" font-family="Helvetica,sans-Serif" font-size="10.00">GL/glu.h</text>
</g>
<!-- Node3&#45;&gt;Node15 -->
<g id="edge15" class="edge"><title>Node3&#45;&gt;Node15</title>
<path fill="none" stroke="midnightblue" d="M389.697,-224.083C387.018,-216.849 383.151,-206.409 379.814,-197.397"/>
<polygon fill="midnightblue" stroke="midnightblue" points="382.996,-195.913 376.241,-187.751 376.432,-198.344 382.996,-195.913"/>
</g>
<!-- Node5 -->
<g id="node5" class="node"><title>Node5</title>
<g id="a_node5"><a xlink:href="_ogre_platform_8h.html" target="_top" xlink:title="OgrePlatform.h">
<polygon fill="none" stroke="red" points="456.5,-56.5 456.5,-75.5 539.5,-75.5 539.5,-56.5 456.5,-56.5"/>
<text text-anchor="middle" x="498" y="-63.5" font-family="Helvetica,sans-Serif" font-size="10.00">OgrePlatform.h</text>
</a>
</g>
</g>
<!-- Node4&#45;&gt;Node5 -->
<g id="edge4" class="edge"><title>Node4&#45;&gt;Node5</title>
<path fill="none" stroke="midnightblue" d="M1344.49,-117.903C1186.38,-108.395 709.091,-79.6937 550.135,-70.1351"/>
<polygon fill="midnightblue" stroke="midnightblue" points="549.883,-66.6136 539.69,-69.507 549.462,-73.601 549.883,-66.6136"/>
</g>
<!-- Node6 -->
<g id="node6" class="node"><title>Node6</title>
<polygon fill="none" stroke="#bfbfbf" points="1411.5,-0.5 1411.5,-19.5 1452.5,-19.5 1452.5,-0.5 1411.5,-0.5"/>
<text text-anchor="middle" x="1432" y="-7.5" font-family="Helvetica,sans-Serif" font-size="10.00">string</text>
</g>
<!-- Node4&#45;&gt;Node6 -->
<g id="edge5" class="edge"><title>Node4&#45;&gt;Node6</title>
<path fill="none" stroke="midnightblue" d="M1413.5,-112.465C1426.79,-104.917 1444.08,-92.5333 1452,-76 1459.39,-60.5784 1452.02,-41.7996 1444.22,-28.3995"/>
<polygon fill="midnightblue" stroke="midnightblue" points="1447,-26.2594 1438.67,-19.7176 1441.11,-30.0287 1447,-26.2594"/>
</g>
<!-- Node7 -->
<g id="node7" class="node"><title>Node7</title>
<g id="a_node7"><a xlink:href="_ogre_std_headers_8h.html" target="_top" xlink:title="OgreStdHeaders.h">
<polygon fill="none" stroke="red" points="1345,-56.5 1345,-75.5 1443,-75.5 1443,-56.5 1345,-56.5"/>
<text text-anchor="middle" x="1394" y="-63.5" font-family="Helvetica,sans-Serif" font-size="10.00">OgreStdHeaders.h</text>
</a>
</g>
</g>
<!-- Node4&#45;&gt;Node7 -->
<g id="edge6" class="edge"><title>Node4&#45;&gt;Node7</title>
<path fill="none" stroke="midnightblue" d="M1395.67,-112.083C1395.41,-105.006 1395.03,-94.8611 1394.7,-85.9865"/>
<polygon fill="midnightblue" stroke="midnightblue" points="1398.19,-85.6147 1394.32,-75.7511 1391.2,-85.8738 1398.19,-85.6147"/>
</g>
<!-- Node8 -->
<g id="node8" class="node"><title>Node8</title>
<g id="a_node8"><a xlink:href="_ogre_memory_allocator_config_8h.html" target="_top" xlink:title="This file configures Ogre&#39;s memory allocators. ">
<polygon fill="none" stroke="red" points="1026,-56.5 1026,-75.5 1174,-75.5 1174,-56.5 1026,-56.5"/>
<text text-anchor="middle" x="1100" y="-63.5" font-family="Helvetica,sans-Serif" font-size="10.00">OgreMemoryAllocatorConfig.h</text>
</a>
</g>
</g>
<!-- Node4&#45;&gt;Node8 -->
<g id="edge8" class="edge"><title>Node4&#45;&gt;Node8</title>
<path fill="none" stroke="midnightblue" d="M1349.1,-112.444C1296.92,-102.925 1212.63,-87.5472 1156.77,-77.3563"/>
<polygon fill="midnightblue" stroke="midnightblue" points="1157.15,-73.868 1146.68,-75.5164 1155.89,-80.7544 1157.15,-73.868"/>
</g>
<!-- Node7&#45;&gt;Node6 -->
<g id="edge7" class="edge"><title>Node7&#45;&gt;Node6</title>
<path fill="none" stroke="midnightblue" d="M1400.27,-56.083C1405.64,-48.4554 1413.52,-37.2645 1420.08,-27.9408"/>
<polygon fill="midnightblue" stroke="midnightblue" points="1422.95,-29.9434 1425.84,-19.7511 1417.22,-25.9149 1422.95,-29.9434"/>
</g>
<!-- Node9 -->
<g id="node9" class="node"><title>Node9</title>
<g id="a_node9"><a xlink:href="_ogre_header_prefix_8h.html" target="_top" xlink:title="OgreHeaderPrefix.h">
<polygon fill="none" stroke="black" points="813.5,-0.5 813.5,-19.5 916.5,-19.5 916.5,-0.5 813.5,-0.5"/>
<text text-anchor="middle" x="865" y="-7.5" font-family="Helvetica,sans-Serif" font-size="10.00">OgreHeaderPrefix.h</text>
</a>
</g>
</g>
<!-- Node8&#45;&gt;Node9 -->
<g id="edge9" class="edge"><title>Node8&#45;&gt;Node9</title>
<path fill="none" stroke="midnightblue" d="M1062.76,-56.4435C1021.94,-47.0629 956.357,-31.9926 912.016,-21.8036"/>
<polygon fill="midnightblue" stroke="midnightblue" points="912.592,-18.3449 902.062,-19.5164 911.024,-25.1671 912.592,-18.3449"/>
</g>
<!-- Node10 -->
<g id="node10" class="node"><title>Node10</title>
<g id="a_node10"><a xlink:href="_ogre_header_suffix_8h.html" target="_top" xlink:title="OgreHeaderSuffix.h">
<polygon fill="none" stroke="black" points="1169.5,-0.5 1169.5,-19.5 1272.5,-19.5 1272.5,-0.5 1169.5,-0.5"/>
<text text-anchor="middle" x="1221" y="-7.5" font-family="Helvetica,sans-Serif" font-size="10.00">OgreHeaderSuffix.h</text>
</a>
</g>
</g>
<!-- Node8&#45;&gt;Node10 -->
<g id="edge10" class="edge"><title>Node8&#45;&gt;Node10</title>
<path fill="none" stroke="midnightblue" d="M1119.17,-56.4435C1138.91,-47.6356 1169.89,-33.8116 1192.49,-23.722"/>
<polygon fill="midnightblue" stroke="midnightblue" points="1194.21,-26.788 1201.92,-19.5164 1191.36,-20.3957 1194.21,-26.788"/>
</g>
<!-- Node16&#45;&gt;Node3 -->
<g id="edge17" class="edge"><title>Node16&#45;&gt;Node3</title>
<path fill="none" stroke="midnightblue" d="M933.683,-343.172C817.615,-339.151 572.861,-327.604 493,-300 461.094,-288.972 429.27,-265.628 410.363,-250.128"/>
<polygon fill="midnightblue" stroke="midnightblue" points="412.538,-247.384 402.631,-243.63 408.035,-252.743 412.538,-247.384"/>
</g>
<!-- Node16&#45;&gt;Node5 -->
<g id="edge18" class="edge"><title>Node16&#45;&gt;Node5</title>
<path fill="none" stroke="midnightblue" d="M933.696,-344.69C715.647,-342.793 0,-329.378 0,-235 0,-235 0,-235 0,-177 0,-86.3574 318.546,-70.3418 446.104,-67.5622"/>
<polygon fill="midnightblue" stroke="midnightblue" points="446.469,-71.0557 456.397,-67.3578 446.33,-64.0571 446.469,-71.0557"/>
</g>
<!-- Node17 -->
<g id="node17" class="node"><title>Node17</title>
<g id="a_node17"><a xlink:href="_ogre_render_system_8h.html" target="_top" xlink:title="OgreRenderSystem.h">
<polygon fill="none" stroke="black" points="992.5,-224.5 992.5,-243.5 1103.5,-243.5 1103.5,-224.5 992.5,-224.5"/>
<text text-anchor="middle" x="1048" y="-231.5" font-family="Helvetica,sans-Serif" font-size="10.00">OgreRenderSystem.h</text>
</a>
</g>
</g>
<!-- Node16&#45;&gt;Node17 -->
<g id="edge19" class="edge"><title>Node16&#45;&gt;Node17</title>
<path fill="none" stroke="midnightblue" d="M1003.53,-336.237C1010.68,-327.541 1021.3,-313.583 1028,-300 1035.35,-285.11 1040.66,-266.965 1043.95,-253.634"/>
<polygon fill="midnightblue" stroke="midnightblue" points="1047.39,-254.278 1046.24,-243.746 1040.58,-252.696 1047.39,-254.278"/>
</g>
<!-- Node25 -->
<g id="node25" class="node"><title>Node25</title>
<g id="a_node25"><a xlink:href="_ogre_g_l_hardware_buffer_manager_8h.html" target="_top" xlink:title="OgreGLHardwareBufferManager.h">
<polygon fill="none" stroke="black" points="502,-280.5 502,-299.5 666,-299.5 666,-280.5 502,-280.5"/>
<text text-anchor="middle" x="584" y="-287.5" font-family="Helvetica,sans-Serif" font-size="10.00">OgreGLHardwareBufferManager.h</text>
</a>
</g>
</g>
<!-- Node16&#45;&gt;Node25 -->
<g id="edge47" class="edge"><title>Node16&#45;&gt;Node25</title>
<path fill="none" stroke="midnightblue" d="M933.873,-336.857C860.404,-327.228 738.168,-311.206 659.361,-300.877"/>
<polygon fill="midnightblue" stroke="midnightblue" points="659.387,-297.351 649.017,-299.522 658.477,-304.292 659.387,-297.351"/>
</g>
<!-- Node27 -->
<g id="node27" class="node"><title>Node27</title>
<g id="a_node27"><a xlink:href="_ogre_g_l_gpu_program_manager_8h.html" target="_top" xlink:title="OgreGLGpuProgramManager.h">
<polygon fill="none" stroke="black" points="868.5,-280.5 868.5,-299.5 1019.5,-299.5 1019.5,-280.5 868.5,-280.5"/>
<text text-anchor="middle" x="944" y="-287.5" font-family="Helvetica,sans-Serif" font-size="10.00">OgreGLGpuProgramManager.h</text>
</a>
</g>
</g>
<!-- Node16&#45;&gt;Node27 -->
<g id="edge54" class="edge"><title>Node16&#45;&gt;Node27</title>
<path fill="none" stroke="midnightblue" d="M987.413,-336.083C979.841,-328.22 968.622,-316.569 959.486,-307.081"/>
<polygon fill="midnightblue" stroke="midnightblue" points="961.885,-304.527 952.427,-299.751 956.842,-309.382 961.885,-304.527"/>
</g>
<!-- Node29 -->
<g id="node29" class="node"><title>Node29</title>
<g id="a_node29"><a xlink:href="_ogre_vector4_8h.html" target="_top" xlink:title="OgreVector4.h">
<polygon fill="none" stroke="red" points="1257,-280.5 1257,-299.5 1337,-299.5 1337,-280.5 1257,-280.5"/>
<text text-anchor="middle" x="1297" y="-287.5" font-family="Helvetica,sans-Serif" font-size="10.00">OgreVector4.h</text>
</a>
</g>
</g>
<!-- Node16&#45;&gt;Node29 -->
<g id="edge61" class="edge"><title>Node16&#45;&gt;Node29</title>
<path fill="none" stroke="midnightblue" d="M1043.69,-336.444C1099.09,-326.505 1190.09,-310.179 1246.62,-300.039"/>
<polygon fill="midnightblue" stroke="midnightblue" points="1247.53,-303.431 1256.75,-298.22 1246.29,-296.541 1247.53,-303.431"/>
</g>
<!-- Node30 -->
<g id="node30" class="node"><title>Node30</title>
<g id="a_node30"><a xlink:href="_ogre_g_l_render_system_common_8h.html" target="_top" xlink:title="OgreGLRenderSystemCommon.h">
<polygon fill="none" stroke="black" points="1615,-280.5 1615,-299.5 1779,-299.5 1779,-280.5 1615,-280.5"/>
<text text-anchor="middle" x="1697" y="-287.5" font-family="Helvetica,sans-Serif" font-size="10.00">OgreGLRenderSystemCommon.h</text>
</a>
</g>
</g>
<!-- Node16&#45;&gt;Node30 -->
<g id="edge63" class="edge"><title>Node16&#45;&gt;Node30</title>
<path fill="none" stroke="midnightblue" d="M1058.21,-340.208C1181.98,-330.673 1459.65,-309.284 1604.73,-298.108"/>
<polygon fill="midnightblue" stroke="midnightblue" points="1605.25,-301.579 1614.95,-297.321 1604.71,-294.599 1605.25,-301.579"/>
</g>
<!-- Node17&#45;&gt;Node4 -->
<g id="edge20" class="edge"><title>Node17&#45;&gt;Node4</title>
<path fill="none" stroke="midnightblue" d="M1103.54,-226.886C1201.95,-215.926 1397.1,-193.557 1402,-188 1413.09,-175.409 1409.35,-155.639 1404.22,-141.207"/>
<polygon fill="midnightblue" stroke="midnightblue" points="1407.42,-139.783 1400.43,-131.82 1400.92,-142.403 1407.42,-139.783"/>
</g>
<!-- Node17&#45;&gt;Node9 -->
<g id="edge45" class="edge"><title>Node17&#45;&gt;Node9</title>
<path fill="none" stroke="midnightblue" d="M992.424,-232.388C863.82,-230.396 554.279,-222.075 523,-188 434.371,-91.4495 682.029,-38.9767 802.911,-19.6923"/>
<polygon fill="midnightblue" stroke="midnightblue" points="803.807,-23.0946 813.146,-18.0904 802.725,-16.1788 803.807,-23.0946"/>
</g>
<!-- Node17&#45;&gt;Node10 -->
<g id="edge46" class="edge"><title>Node17&#45;&gt;Node10</title>
<path fill="none" stroke="midnightblue" d="M1020.72,-224.453C1003.71,-217.548 983.175,-205.971 973,-188 959.305,-163.813 988.591,-118.061 996,-112 1061.51,-58.4106 1113.92,-124.9 1183,-76 1198.97,-64.6964 1209.25,-44.3918 1215.04,-29.475"/>
<polygon fill="midnightblue" stroke="midnightblue" points="1218.44,-30.3659 1218.48,-19.7712 1211.84,-28.0283 1218.44,-30.3659"/>
</g>
<!-- Node18 -->
<g id="node18" class="node"><title>Node18</title>
<g id="a_node18"><a xlink:href="_ogre_texture_unit_state_8h.html" target="_top" xlink:title="OgreTextureUnitState.h">
<polygon fill="none" stroke="red" points="988,-168.5 988,-187.5 1108,-187.5 1108,-168.5 988,-168.5"/>
<text text-anchor="middle" x="1048" y="-175.5" font-family="Helvetica,sans-Serif" font-size="10.00">OgreTextureUnitState.h</text>
</a>
</g>
</g>
<!-- Node17&#45;&gt;Node18 -->
<g id="edge21" class="edge"><title>Node17&#45;&gt;Node18</title>
<path fill="none" stroke="midnightblue" d="M1048,-224.083C1048,-217.006 1048,-206.861 1048,-197.986"/>
<polygon fill="midnightblue" stroke="midnightblue" points="1051.5,-197.751 1048,-187.751 1044.5,-197.751 1051.5,-197.751"/>
</g>
<!-- Node19 -->
<g id="node19" class="node"><title>Node19</title>
<g id="a_node19"><a xlink:href="_ogre_common_8h.html" target="_top" xlink:title="OgreCommon.h">
<polygon fill="none" stroke="black" points="1005,-112.5 1005,-131.5 1091,-131.5 1091,-112.5 1005,-112.5"/>
<text text-anchor="middle" x="1048" y="-119.5" font-family="Helvetica,sans-Serif" font-size="10.00">OgreCommon.h</text>
</a>
</g>
</g>
<!-- Node17&#45;&gt;Node19 -->
<g id="edge28" class="edge"><title>Node17&#45;&gt;Node19</title>
<path fill="none" stroke="midnightblue" d="M1024.21,-224.499C1008.28,-217.413 988.537,-205.605 979,-188 967.167,-166.155 993.283,-147.471 1016.71,-135.816"/>
<polygon fill="midnightblue" stroke="midnightblue" points="1018.23,-138.968 1025.8,-131.555 1015.26,-132.63 1018.23,-138.968"/>
</g>
<!-- Node20 -->
<g id="node20" class="node"><title>Node20</title>
<g id="a_node20"><a xlink:href="_ogre_render_system_capabilities_8h.html" target="_top" xlink:title="OgreRenderSystemCapabilities.h">
<polygon fill="none" stroke="red" points="694,-168.5 694,-187.5 856,-187.5 856,-168.5 694,-168.5"/>
<text text-anchor="middle" x="775" y="-175.5" font-family="Helvetica,sans-Serif" font-size="10.00">OgreRenderSystemCapabilities.h</text>
</a>
</g>
</g>
<!-- Node17&#45;&gt;Node20 -->
<g id="edge29" class="edge"><title>Node17&#45;&gt;Node20</title>
<path fill="none" stroke="midnightblue" d="M1004.74,-224.444C956.819,-214.964 879.522,-199.675 828,-189.483"/>
<polygon fill="midnightblue" stroke="midnightblue" points="828.544,-186.023 818.055,-187.516 827.186,-192.89 828.544,-186.023"/>
</g>
<!-- Node17&#45;&gt;Node21 -->
<g id="edge33" class="edge"><title>Node17&#45;&gt;Node21</title>
<path fill="none" stroke="midnightblue" d="M1103.55,-227.373C1114.63,-226.254 1126.18,-225.088 1137,-224 1270.76,-210.549 1426.89,-194.961 1515.64,-186.111"/>
<polygon fill="midnightblue" stroke="midnightblue" points="1516.25,-189.567 1525.86,-185.092 1515.56,-182.602 1516.25,-189.567"/>
</g>
<!-- Node22 -->
<g id="node22" class="node"><title>Node22</title>
<g id="a_node22"><a xlink:href="_ogre_gpu_program_8h.html" target="_top" xlink:title="OgreGpuProgram.h">
<polygon fill="none" stroke="red" points="1164.5,-168.5 1164.5,-187.5 1265.5,-187.5 1265.5,-168.5 1164.5,-168.5"/>
<text text-anchor="middle" x="1215" y="-175.5" font-family="Helvetica,sans-Serif" font-size="10.00">OgreGpuProgram.h</text>
</a>
</g>
</g>
<!-- Node17&#45;&gt;Node22 -->
<g id="edge35" class="edge"><title>Node17&#45;&gt;Node22</title>
<path fill="none" stroke="midnightblue" d="M1074.46,-224.444C1102.68,-215.32 1147.54,-200.813 1178.97,-190.651"/>
<polygon fill="midnightblue" stroke="midnightblue" points="1180.22,-193.923 1188.66,-187.516 1178.07,-187.263 1180.22,-193.923"/>
</g>
<!-- Node23 -->
<g id="node23" class="node"><title>Node23</title>
<g id="a_node23"><a xlink:href="_ogre_plane_8h.html" target="_top" xlink:title="OgrePlane.h">
<polygon fill="none" stroke="red" points="1322.5,-168.5 1322.5,-187.5 1393.5,-187.5 1393.5,-168.5 1322.5,-168.5"/>
<text text-anchor="middle" x="1358" y="-175.5" font-family="Helvetica,sans-Serif" font-size="10.00">OgrePlane.h</text>
</a>
</g>
</g>
<!-- Node17&#45;&gt;Node23 -->
<g id="edge39" class="edge"><title>Node17&#45;&gt;Node23</title>
<path fill="none" stroke="midnightblue" d="M1097.86,-224.472C1150.21,-215.495 1234.92,-200.902 1308,-188 1309.47,-187.741 1310.96,-187.478 1312.46,-187.211"/>
<polygon fill="midnightblue" stroke="midnightblue" points="1313.27,-190.622 1322.5,-185.421 1312.04,-183.731 1313.27,-190.622"/>
</g>
<!-- Node24 -->
<g id="node24" class="node"><title>Node24</title>
<g id="a_node24"><a xlink:href="_ogre_hardware_vertex_buffer_8h.html" target="_top" xlink:title="OgreHardwareVertexBuffer.h">
<polygon fill="none" stroke="red" points="532.5,-168.5 532.5,-187.5 675.5,-187.5 675.5,-168.5 532.5,-168.5"/>
<text text-anchor="middle" x="604" y="-175.5" font-family="Helvetica,sans-Serif" font-size="10.00">OgreHardwareVertexBuffer.h</text>
</a>
</g>
</g>
<!-- Node17&#45;&gt;Node24 -->
<g id="edge41" class="edge"><title>Node17&#45;&gt;Node24</title>
<path fill="none" stroke="midnightblue" d="M992.217,-226.216C914.509,-216.765 773.224,-199.581 684.22,-188.756"/>
<polygon fill="midnightblue" stroke="midnightblue" points="684.518,-185.267 674.169,-187.534 683.673,-192.216 684.518,-185.267"/>
</g>
<!-- Node18&#45;&gt;Node4 -->
<g id="edge22" class="edge"><title>Node18&#45;&gt;Node4</title>
<path fill="none" stroke="midnightblue" d="M1103.14,-168.444C1166,-158.69 1268.49,-142.787 1334.05,-132.614"/>
<polygon fill="midnightblue" stroke="midnightblue" points="1334.89,-136.024 1344.24,-131.032 1333.82,-129.107 1334.89,-136.024"/>
</g>
<!-- Node18&#45;&gt;Node9 -->
<g id="edge26" class="edge"><title>Node18&#45;&gt;Node9</title>
<path fill="none" stroke="midnightblue" d="M1017.43,-168.497C995.774,-161.354 966.96,-149.478 946,-132 911.019,-102.831 885.154,-54.7833 872.902,-28.8801"/>
<polygon fill="midnightblue" stroke="midnightblue" points="875.971,-27.1759 868.624,-19.5418 869.607,-30.091 875.971,-27.1759"/>
</g>
<!-- Node18&#45;&gt;Node10 -->
<g id="edge27" class="edge"><title>Node18&#45;&gt;Node10</title>
<path fill="none" stroke="midnightblue" d="M1087.05,-168.49C1131.79,-156.417 1203.06,-129.555 1235,-76 1243.66,-61.4806 1237.83,-42.3007 1231.25,-28.5445"/>
<polygon fill="midnightblue" stroke="midnightblue" points="1234.31,-26.8282 1226.53,-19.6307 1228.12,-30.1057 1234.31,-26.8282"/>
</g>
<!-- Node18&#45;&gt;Node19 -->
<g id="edge23" class="edge"><title>Node18&#45;&gt;Node19</title>
<path fill="none" stroke="midnightblue" d="M1048,-168.083C1048,-161.006 1048,-150.861 1048,-141.986"/>
<polygon fill="midnightblue" stroke="midnightblue" points="1051.5,-141.751 1048,-131.751 1044.5,-141.751 1051.5,-141.751"/>
</g>
<!-- Node19&#45;&gt;Node9 -->
<g id="edge24" class="edge"><title>Node19&#45;&gt;Node9</title>
<path fill="none" stroke="midnightblue" d="M1033.64,-112.368C1002.1,-93.4121 926.556,-48.0006 888.195,-24.9424"/>
<polygon fill="midnightblue" stroke="midnightblue" points="889.667,-21.7435 879.293,-19.5914 886.061,-27.7431 889.667,-21.7435"/>
</g>
<!-- Node19&#45;&gt;Node10 -->
<g id="edge25" class="edge"><title>Node19&#45;&gt;Node10</title>
<path fill="none" stroke="midnightblue" d="M1091.37,-115.123C1135.68,-108.16 1200.18,-95.0497 1216,-76 1226.5,-63.3572 1226.7,-44.1479 1224.9,-29.8867"/>
<polygon fill="midnightblue" stroke="midnightblue" points="1228.3,-29.0114 1223.19,-19.7304 1221.4,-30.1725 1228.3,-29.0114"/>
</g>
<!-- Node20&#45;&gt;Node4 -->
<g id="edge30" class="edge"><title>Node20&#45;&gt;Node4</title>
<path fill="none" stroke="midnightblue" d="M856.185,-169.94C981.958,-159.004 1221.15,-138.204 1334.05,-128.387"/>
<polygon fill="midnightblue" stroke="midnightblue" points="1334.59,-131.853 1344.25,-127.5 1333.99,-124.879 1334.59,-131.853"/>
</g>
<!-- Node20&#45;&gt;Node9 -->
<g id="edge31" class="edge"><title>Node20&#45;&gt;Node9</title>
<path fill="none" stroke="midnightblue" d="M773.035,-168.221C768.801,-147.001 760.961,-92.025 784,-56 793.618,-40.9609 810.117,-30.5045 825.725,-23.4836"/>
<polygon fill="midnightblue" stroke="midnightblue" points="827.352,-26.5984 835.259,-19.5458 824.68,-20.1286 827.352,-26.5984"/>
</g>
<!-- Node20&#45;&gt;Node10 -->
<g id="edge32" class="edge"><title>Node20&#45;&gt;Node10</title>
<path fill="none" stroke="midnightblue" d="M785.864,-168.294C802.974,-154.884 837.596,-128.953 870,-112 964.847,-62.3787 1087.23,-34.2819 1159.59,-20.8991"/>
<polygon fill="midnightblue" stroke="midnightblue" points="1160.25,-24.3372 1169.46,-19.1077 1159,-17.4497 1160.25,-24.3372"/>
</g>
<!-- Node21&#45;&gt;Node4 -->
<g id="edge34" class="edge"><title>Node21&#45;&gt;Node4</title>
<path fill="none" stroke="midnightblue" d="M1556.74,-168.444C1524.04,-159.201 1471.82,-144.436 1435.82,-134.257"/>
<polygon fill="midnightblue" stroke="midnightblue" points="1436.7,-130.869 1426.12,-131.516 1434.79,-137.605 1436.7,-130.869"/>
</g>
<!-- Node22&#45;&gt;Node4 -->
<g id="edge36" class="edge"><title>Node22&#45;&gt;Node4</title>
<path fill="none" stroke="midnightblue" d="M1243.68,-168.444C1274.53,-159.241 1323.73,-144.562 1357.83,-134.388"/>
<polygon fill="midnightblue" stroke="midnightblue" points="1358.87,-137.729 1367.45,-131.516 1356.87,-131.021 1358.87,-137.729"/>
</g>
<!-- Node22&#45;&gt;Node9 -->
<g id="edge37" class="edge"><title>Node22&#45;&gt;Node9</title>
<path fill="none" stroke="midnightblue" d="M1164.45,-169.831C1109.24,-161.44 1024.83,-146.8 996,-132 969.438,-118.367 908.544,-56.5971 880.126,-26.9598"/>
<polygon fill="midnightblue" stroke="midnightblue" points="882.462,-24.3385 873.027,-19.5194 877.397,-29.1707 882.462,-24.3385"/>
</g>
<!-- Node22&#45;&gt;Node10 -->
<g id="edge38" class="edge"><title>Node22&#45;&gt;Node10</title>
<path fill="none" stroke="midnightblue" d="M1243.37,-168.495C1260.75,-161.653 1281.6,-150.13 1292,-132 1308.81,-102.703 1308.28,-85.595 1292,-56 1284.11,-41.6632 1269.51,-31.2525 1255.6,-24.0792"/>
<polygon fill="midnightblue" stroke="midnightblue" points="1256.7,-20.7285 1246.16,-19.6217 1253.71,-27.0578 1256.7,-20.7285"/>
</g>
<!-- Node23&#45;&gt;Node4 -->
<g id="edge40" class="edge"><title>Node23&#45;&gt;Node4</title>
<path fill="none" stroke="midnightblue" d="M1364.27,-168.083C1369.64,-160.455 1377.52,-149.264 1384.08,-139.941"/>
<polygon fill="midnightblue" stroke="midnightblue" points="1386.95,-141.943 1389.84,-131.751 1381.22,-137.915 1386.95,-141.943"/>
</g>
<!-- Node24&#45;&gt;Node4 -->
<g id="edge42" class="edge"><title>Node24&#45;&gt;Node4</title>
<path fill="none" stroke="midnightblue" d="M675.535,-168.865C678.733,-168.561 681.899,-168.27 685,-168 924.696,-147.11 1210.66,-131.984 1334.17,-125.924"/>
<polygon fill="midnightblue" stroke="midnightblue" points="1334.38,-129.418 1344.19,-125.435 1334.04,-122.427 1334.38,-129.418"/>
</g>
<!-- Node24&#45;&gt;Node9 -->
<g id="edge43" class="edge"><title>Node24&#45;&gt;Node9</title>
<path fill="none" stroke="midnightblue" d="M614.561,-168.392C640.408,-147.551 709.319,-93.3533 772,-56 792.6,-43.7239 817.048,-31.9967 835.707,-23.5933"/>
<polygon fill="midnightblue" stroke="midnightblue" points="837.167,-26.7745 844.886,-19.5166 834.326,-20.3772 837.167,-26.7745"/>
</g>
<!-- Node24&#45;&gt;Node10 -->
<g id="edge44" class="edge"><title>Node24&#45;&gt;Node10</title>
<path fill="none" stroke="midnightblue" d="M624.741,-168.364C677.998,-146.501 824.286,-88.4006 951,-56 1021.54,-37.9631 1104.36,-25.3974 1159.49,-18.2146"/>
<polygon fill="midnightblue" stroke="midnightblue" points="1159.98,-21.6806 1169.45,-16.936 1159.09,-14.7375 1159.98,-21.6806"/>
</g>
<!-- Node25&#45;&gt;Node3 -->
<g id="edge48" class="edge"><title>Node25&#45;&gt;Node3</title>
<path fill="none" stroke="midnightblue" d="M553.735,-280.444C521.045,-271.201 468.818,-256.436 432.817,-246.257"/>
<polygon fill="midnightblue" stroke="midnightblue" points="433.698,-242.869 423.123,-243.516 431.794,-249.605 433.698,-242.869"/>
</g>
<!-- Node26 -->
<g id="node26" class="node"><title>Node26</title>
<g id="a_node26"><a xlink:href="_ogre_hardware_buffer_manager_8h.html" target="_top" xlink:title="OgreHardwareBufferManager.h">
<polygon fill="none" stroke="red" points="508,-224.5 508,-243.5 660,-243.5 660,-224.5 508,-224.5"/>
<text text-anchor="middle" x="584" y="-231.5" font-family="Helvetica,sans-Serif" font-size="10.00">OgreHardwareBufferManager.h</text>
</a>
</g>
</g>
<!-- Node25&#45;&gt;Node26 -->
<g id="edge49" class="edge"><title>Node25&#45;&gt;Node26</title>
<path fill="none" stroke="midnightblue" d="M584,-280.083C584,-273.006 584,-262.861 584,-253.986"/>
<polygon fill="midnightblue" stroke="midnightblue" points="587.5,-253.751 584,-243.751 580.5,-253.751 587.5,-253.751"/>
</g>
<!-- Node26&#45;&gt;Node4 -->
<g id="edge50" class="edge"><title>Node26&#45;&gt;Node4</title>
<path fill="none" stroke="midnightblue" d="M660.111,-232.071C814.737,-229.524 1160.56,-220.292 1274,-188 1276.6,-187.261 1335.9,-155.401 1370.85,-136.567"/>
<polygon fill="midnightblue" stroke="midnightblue" points="1372.86,-139.464 1380,-131.637 1369.54,-133.302 1372.86,-139.464"/>
</g>
<!-- Node26&#45;&gt;Node9 -->
<g id="edge52" class="edge"><title>Node26&#45;&gt;Node9</title>
<path fill="none" stroke="midnightblue" d="M511.489,-224.428C488.915,-218.027 466.235,-206.983 452,-188 416.778,-141.03 407.771,-99.6786 447,-56 470.351,-29.9997 692.716,-17.7162 803.25,-13.1779"/>
<polygon fill="midnightblue" stroke="midnightblue" points="803.414,-16.6742 813.265,-12.7753 803.133,-9.67987 803.414,-16.6742"/>
</g>
<!-- Node26&#45;&gt;Node10 -->
<g id="edge53" class="edge"><title>Node26&#45;&gt;Node10</title>
<path fill="none" stroke="midnightblue" d="M565.134,-224.36C541.767,-212.452 506.896,-189.967 523,-168 620.817,-34.5701 716.473,-91.7866 878,-56 975.047,-34.4992 1089.97,-21.9906 1159.1,-15.8339"/>
<polygon fill="midnightblue" stroke="midnightblue" points="1159.72,-19.2933 1169.37,-14.9356 1159.11,-12.3199 1159.72,-19.2933"/>
</g>
<!-- Node26&#45;&gt;Node24 -->
<g id="edge51" class="edge"><title>Node26&#45;&gt;Node24</title>
<path fill="none" stroke="midnightblue" d="M587.303,-224.083C589.982,-216.849 593.849,-206.409 597.186,-197.397"/>
<polygon fill="midnightblue" stroke="midnightblue" points="600.568,-198.344 600.759,-187.751 594.004,-195.913 600.568,-198.344"/>
</g>
<!-- Node27&#45;&gt;Node3 -->
<g id="edge55" class="edge"><title>Node27&#45;&gt;Node3</title>
<path fill="none" stroke="midnightblue" d="M868.253,-281.577C760.487,-271.015 564.54,-251.812 461.122,-241.676"/>
<polygon fill="midnightblue" stroke="midnightblue" points="461.399,-238.187 451.105,-240.695 460.716,-245.153 461.399,-238.187"/>
</g>
<!-- Node28 -->
<g id="node28" class="node"><title>Node28</title>
<g id="a_node28"><a xlink:href="_ogre_gpu_program_manager_8h.html" target="_top" xlink:title="OgreGpuProgramManager.h">
<polygon fill="none" stroke="red" points="1146,-224.5 1146,-243.5 1284,-243.5 1284,-224.5 1146,-224.5"/>
<text text-anchor="middle" x="1215" y="-231.5" font-family="Helvetica,sans-Serif" font-size="10.00">OgreGpuProgramManager.h</text>
</a>
</g>
</g>
<!-- Node27&#45;&gt;Node28 -->
<g id="edge56" class="edge"><title>Node27&#45;&gt;Node28</title>
<path fill="none" stroke="midnightblue" d="M986.941,-280.444C1034.51,-270.964 1111.24,-255.675 1162.39,-245.483"/>
<polygon fill="midnightblue" stroke="midnightblue" points="1163.14,-248.903 1172.26,-243.516 1161.77,-242.038 1163.14,-248.903"/>
</g>
<!-- Node28&#45;&gt;Node4 -->
<g id="edge57" class="edge"><title>Node28&#45;&gt;Node4</title>
<path fill="none" stroke="midnightblue" d="M1284.05,-228.301C1341.57,-222.778 1417.02,-211.235 1436,-188 1448.92,-172.184 1431.78,-151.85 1416.1,-138.172"/>
<polygon fill="midnightblue" stroke="midnightblue" points="1418.15,-135.325 1408.19,-131.686 1413.7,-140.735 1418.15,-135.325"/>
</g>
<!-- Node28&#45;&gt;Node9 -->
<g id="edge59" class="edge"><title>Node28&#45;&gt;Node9</title>
<path fill="none" stroke="midnightblue" d="M1146.87,-224.478C1087.85,-216.288 1007.59,-202.974 979,-188 921.432,-157.848 912.75,-134.764 885,-76 877.91,-60.9865 872.575,-42.8536 869.205,-29.5588"/>
<polygon fill="midnightblue" stroke="midnightblue" points="872.577,-28.6119 866.842,-19.7037 865.77,-30.2442 872.577,-28.6119"/>
</g>
<!-- Node28&#45;&gt;Node10 -->
<g id="edge60" class="edge"><title>Node28&#45;&gt;Node10</title>
<path fill="none" stroke="midnightblue" d="M1284,-232.55C1426.01,-230.903 1740.46,-223.27 1773,-188 1801.91,-156.662 1833.57,-151.073 1493,-56 1422.15,-36.2212 1338.34,-23.9722 1282.66,-17.3404"/>
<polygon fill="midnightblue" stroke="midnightblue" points="1282.94,-13.8493 1272.6,-16.167 1282.13,-20.8022 1282.94,-13.8493"/>
</g>
<!-- Node28&#45;&gt;Node22 -->
<g id="edge58" class="edge"><title>Node28&#45;&gt;Node22</title>
<path fill="none" stroke="midnightblue" d="M1215,-224.083C1215,-217.006 1215,-206.861 1215,-197.986"/>
<polygon fill="midnightblue" stroke="midnightblue" points="1218.5,-197.751 1215,-187.751 1211.5,-197.751 1218.5,-197.751"/>
</g>
<!-- Node29&#45;&gt;Node4 -->
<g id="edge62" class="edge"><title>Node29&#45;&gt;Node4</title>
<path fill="none" stroke="midnightblue" d="M1324.6,-280.414C1361.59,-267.245 1425.72,-238.168 1453,-188 1463.82,-168.105 1442.08,-149.081 1422.41,-136.813"/>
<polygon fill="midnightblue" stroke="midnightblue" points="1424.04,-133.71 1413.64,-131.673 1420.5,-139.749 1424.04,-133.71"/>
</g>
<!-- Node30&#45;&gt;Node17 -->
<g id="edge66" class="edge"><title>Node30&#45;&gt;Node17</title>
<path fill="none" stroke="midnightblue" d="M1614.87,-282.933C1505.69,-274.745 1306.75,-259.401 1137,-244 1129.39,-243.309 1121.41,-242.552 1113.5,-241.778"/>
<polygon fill="midnightblue" stroke="midnightblue" points="1113.83,-238.294 1103.53,-240.794 1113.14,-245.26 1113.83,-238.294"/>
</g>
<!-- Node31 -->
<g id="node31" class="node"><title>Node31</title>
<g id="a_node31"><a xlink:href="_ogre_g_l_support_prerequisites_8h.html" target="_top" xlink:title="OgreGLSupportPrerequisites.h">
<polygon fill="none" stroke="black" points="1819.5,-168.5 1819.5,-187.5 1968.5,-187.5 1968.5,-168.5 1819.5,-168.5"/>
<text text-anchor="middle" x="1894" y="-175.5" font-family="Helvetica,sans-Serif" font-size="10.00">OgreGLSupportPrerequisites.h</text>
</a>
</g>
</g>
<!-- Node30&#45;&gt;Node31 -->
<g id="edge64" class="edge"><title>Node30&#45;&gt;Node31</title>
<path fill="none" stroke="midnightblue" d="M1700.75,-280.44C1707.29,-266.51 1722.11,-238.988 1743,-224 1766.56,-207.101 1796.49,-196.482 1823.48,-189.839"/>
<polygon fill="midnightblue" stroke="midnightblue" points="1824.33,-193.236 1833.28,-187.567 1822.74,-186.417 1824.33,-193.236"/>
</g>
<!-- Node30&#45;&gt;Node32 -->
<g id="edge67" class="edge"><title>Node30&#45;&gt;Node32</title>
<path fill="none" stroke="midnightblue" d="M1714.99,-280.324C1733.04,-271.625 1761.05,-258.12 1781.8,-248.113"/>
<polygon fill="midnightblue" stroke="midnightblue" points="1783.56,-251.15 1791.05,-243.655 1780.52,-244.845 1783.56,-251.15"/>
</g>
<!-- Node31&#45;&gt;Node4 -->
<g id="edge65" class="edge"><title>Node31&#45;&gt;Node4</title>
<path fill="none" stroke="midnightblue" d="M1819.44,-168.916C1720.98,-158.238 1549.37,-139.63 1457.77,-129.698"/>
<polygon fill="midnightblue" stroke="midnightblue" points="1458.13,-126.216 1447.81,-128.618 1457.37,-133.176 1458.13,-126.216"/>
</g>
<!-- Node32&#45;&gt;Node4 -->
<g id="edge68" class="edge"><title>Node32&#45;&gt;Node4</title>
<path fill="none" stroke="midnightblue" d="M1865.64,-229.104C1927.43,-222.832 2013.06,-206.961 1977,-168 1942.31,-130.514 1600.8,-124.167 1458.13,-123.158"/>
<polygon fill="midnightblue" stroke="midnightblue" points="1457.82,-119.656 1447.8,-123.092 1457.78,-126.656 1457.82,-119.656"/>
</g>
<!-- Node33&#45;&gt;Node31 -->
<g id="edge72" class="edge"><title>Node33&#45;&gt;Node31</title>
<path fill="none" stroke="midnightblue" d="M1888.32,-336.075C1889.27,-309.945 1892.04,-233.211 1893.33,-197.577"/>
<polygon fill="midnightblue" stroke="midnightblue" points="1896.83,-197.688 1893.69,-187.568 1889.83,-197.435 1896.83,-197.688"/>
</g>
<!-- Node34&#45;&gt;Node21 -->
<g id="edge75" class="edge"><title>Node34&#45;&gt;Node21</title>
<path fill="none" stroke="midnightblue" d="M1627.07,-224.083C1620.15,-216.298 1609.93,-204.801 1601.55,-195.367"/>
<polygon fill="midnightblue" stroke="midnightblue" points="1604.04,-192.9 1594.78,-187.751 1598.81,-197.55 1604.04,-192.9"/>
</g>
<!-- Node34&#45;&gt;Node31 -->
<g id="edge74" class="edge"><title>Node34&#45;&gt;Node31</title>
<path fill="none" stroke="midnightblue" d="M1676.04,-224.444C1721.32,-215.004 1794.23,-199.802 1843.11,-189.611"/>
<polygon fill="midnightblue" stroke="midnightblue" points="1844.08,-192.984 1853.15,-187.516 1842.65,-186.131 1844.08,-192.984"/>
</g>
<!-- Node35 -->
<g id="node35" class="node"><title>Node35</title>
<g id="a_node35"><a xlink:href="_ogre_pixel_format_8h.html" target="_top" xlink:title="OgrePixelFormat.h">
<polygon fill="none" stroke="black" points="1666,-168.5 1666,-187.5 1764,-187.5 1764,-168.5 1666,-168.5"/>
<text text-anchor="middle" x="1715" y="-175.5" font-family="Helvetica,sans-Serif" font-size="10.00">OgrePixelFormat.h</text>
</a>
</g>
</g>
<!-- Node34&#45;&gt;Node35 -->
<g id="edge76" class="edge"><title>Node34&#45;&gt;Node35</title>
<path fill="none" stroke="midnightblue" d="M1647.85,-224.324C1660.22,-215.979 1679.13,-203.212 1693.74,-193.352"/>
<polygon fill="midnightblue" stroke="midnightblue" points="1695.85,-196.15 1702.18,-187.655 1691.93,-190.348 1695.85,-196.15"/>
</g>
<!-- Node35&#45;&gt;Node4 -->
<g id="edge77" class="edge"><title>Node35&#45;&gt;Node4</title>
<path fill="none" stroke="midnightblue" d="M1665.86,-168.681C1609.52,-159.144 1517.15,-143.509 1456.46,-133.234"/>
<polygon fill="midnightblue" stroke="midnightblue" points="1456.7,-129.725 1446.25,-131.507 1455.53,-136.627 1456.7,-129.725"/>
</g>
<!-- Node35&#45;&gt;Node9 -->
<g id="edge79" class="edge"><title>Node35&#45;&gt;Node9</title>
<path fill="none" stroke="midnightblue" d="M1687.34,-168.461C1640.31,-154.306 1541.53,-126.141 1456,-112 1262.86,-80.0663 1206.87,-123.669 1017,-76 995.378,-70.5716 991.483,-64.8003 971,-56 945.311,-44.9628 916.055,-32.555 894.796,-23.5681"/>
<polygon fill="midnightblue" stroke="midnightblue" points="895.917,-20.2422 885.343,-19.5747 893.193,-26.6904 895.917,-20.2422"/>
</g>
<!-- Node35&#45;&gt;Node10 -->
<g id="edge80" class="edge"><title>Node35&#45;&gt;Node10</title>
<path fill="none" stroke="midnightblue" d="M1699.81,-168.431C1660.26,-146.471 1550.3,-87.6848 1452,-56 1396.03,-37.9587 1329.97,-25.979 1282.86,-18.9481"/>
<polygon fill="midnightblue" stroke="midnightblue" points="1283.21,-15.4621 1272.81,-17.4799 1282.2,-22.3886 1283.21,-15.4621"/>
</g>
<!-- Node35&#45;&gt;Node19 -->
<g id="edge78" class="edge"><title>Node35&#45;&gt;Node19</title>
<path fill="none" stroke="midnightblue" d="M1665.99,-169.112C1662.95,-168.711 1659.94,-168.336 1657,-168 1452.36,-144.601 1207.58,-130.8 1101.44,-125.505"/>
<polygon fill="midnightblue" stroke="midnightblue" points="1101.47,-122.002 1091.31,-125.005 1101.12,-128.994 1101.47,-122.002"/>
</g>
</g>
</svg>
