<?xml version="1.0" encoding="UTF-8" standalone="no"?>
<!DOCTYPE svg PUBLIC "-//W3C//DTD SVG 1.1//EN"
 "http://www.w3.org/Graphics/SVG/1.1/DTD/svg11.dtd">
<!-- Generated by graphviz version 2.38.0 (20140413.2041)
 -->
<!-- Title: OgreKeyFrame.h Pages: 1 -->
<svg width="2965pt" height="420pt"
 viewBox="0.00 0.00 2965.00 420.00" xmlns="http://www.w3.org/2000/svg" xmlns:xlink="http://www.w3.org/1999/xlink">
<g id="graph0" class="graph" transform="scale(1 1) rotate(0) translate(4 416)">
<title>OgreKeyFrame.h</title>
<!-- Node1 -->
<g id="node1" class="node"><title>Node1</title>
<polygon fill="#bfbfbf" stroke="black" points="1135.5,-392.5 1135.5,-411.5 1226.5,-411.5 1226.5,-392.5 1135.5,-392.5"/>
<text text-anchor="middle" x="1181" y="-399.5" font-family="Helvetica,sans-Serif" font-size="10.00">OgreKeyFrame.h</text>
</g>
<!-- Node2 -->
<g id="node2" class="node"><title>Node2</title>
<g id="a_node2"><a xlink:href="_ogre_prerequisites_8h.html" target="_top" xlink:title="OgrePrerequisites.h">
<polygon fill="none" stroke="black" points="1238.5,-168.5 1238.5,-187.5 1341.5,-187.5 1341.5,-168.5 1238.5,-168.5"/>
<text text-anchor="middle" x="1290" y="-175.5" font-family="Helvetica,sans-Serif" font-size="10.00">OgrePrerequisites.h</text>
</a>
</g>
</g>
<!-- Node1&#45;&gt;Node2 -->
<g id="edge1" class="edge"><title>Node1&#45;&gt;Node2</title>
<path fill="none" stroke="midnightblue" d="M1179.32,-392.274C1174.52,-364.701 1163.4,-278.081 1201,-224 1211.74,-208.552 1229.4,-198.11 1246.17,-191.208"/>
<polygon fill="midnightblue" stroke="midnightblue" points="1247.76,-194.349 1255.88,-187.542 1245.29,-187.8 1247.76,-194.349"/>
</g>
<!-- Node38 -->
<g id="node38" class="node"><title>Node38</title>
<g id="a_node38"><a xlink:href="_ogre_header_prefix_8h.html" target="_top" xlink:title="OgreHeaderPrefix.h">
<polygon fill="none" stroke="black" points="2721.5,-0.5 2721.5,-19.5 2824.5,-19.5 2824.5,-0.5 2721.5,-0.5"/>
<text text-anchor="middle" x="2773" y="-7.5" font-family="Helvetica,sans-Serif" font-size="10.00">OgreHeaderPrefix.h</text>
</a>
</g>
</g>
<!-- Node1&#45;&gt;Node38 -->
<g id="edge75" class="edge"><title>Node1&#45;&gt;Node38</title>
<path fill="none" stroke="midnightblue" d="M1226.69,-400.627C1504.67,-398.064 2957,-380.395 2957,-291 2957,-291 2957,-291 2957,-121 2957,-62.6636 2888.02,-34.526 2834.53,-21.4766"/>
<polygon fill="midnightblue" stroke="midnightblue" points="2835.28,-18.0564 2824.74,-19.2117 2833.7,-24.8762 2835.28,-18.0564"/>
</g>
<!-- Node39 -->
<g id="node39" class="node"><title>Node39</title>
<g id="a_node39"><a xlink:href="_ogre_header_suffix_8h.html" target="_top" xlink:title="OgreHeaderSuffix.h">
<polygon fill="none" stroke="black" points="100.5,-0.5 100.5,-19.5 203.5,-19.5 203.5,-0.5 100.5,-0.5"/>
<text text-anchor="middle" x="152" y="-7.5" font-family="Helvetica,sans-Serif" font-size="10.00">OgreHeaderSuffix.h</text>
</a>
</g>
</g>
<!-- Node1&#45;&gt;Node39 -->
<g id="edge76" class="edge"><title>Node1&#45;&gt;Node39</title>
<path fill="none" stroke="midnightblue" d="M1135.43,-399.189C918.386,-390.273 0,-349.109 0,-291 0,-291 0,-291 0,-121 0,-67.4368 62.7119,-37.2997 107.573,-22.5935"/>
<polygon fill="midnightblue" stroke="midnightblue" points="108.63,-25.9301 117.128,-19.6023 106.539,-19.2497 108.63,-25.9301"/>
</g>
<!-- Node40 -->
<g id="node40" class="node"><title>Node40</title>
<g id="a_node40"><a xlink:href="_ogre_vector3_8h.html" target="_top" xlink:title="OgreVector3.h">
<polygon fill="none" stroke="black" points="975,-336.5 975,-355.5 1055,-355.5 1055,-336.5 975,-336.5"/>
<text text-anchor="middle" x="1015" y="-343.5" font-family="Helvetica,sans-Serif" font-size="10.00">OgreVector3.h</text>
</a>
</g>
</g>
<!-- Node1&#45;&gt;Node40 -->
<g id="edge43" class="edge"><title>Node1&#45;&gt;Node40</title>
<path fill="none" stroke="midnightblue" d="M1154.7,-392.444C1126.65,-383.32 1082.06,-368.813 1050.82,-358.651"/>
<polygon fill="midnightblue" stroke="midnightblue" points="1051.77,-355.282 1041.18,-355.516 1049.61,-361.938 1051.77,-355.282"/>
</g>
<!-- Node41 -->
<g id="node41" class="node"><title>Node41</title>
<g id="a_node41"><a xlink:href="_ogre_quaternion_8h.html" target="_top" xlink:title="OgreQuaternion.h">
<polygon fill="none" stroke="black" points="1021.5,-280.5 1021.5,-299.5 1114.5,-299.5 1114.5,-280.5 1021.5,-280.5"/>
<text text-anchor="middle" x="1068" y="-287.5" font-family="Helvetica,sans-Serif" font-size="10.00">OgreQuaternion.h</text>
</a>
</g>
</g>
<!-- Node1&#45;&gt;Node41 -->
<g id="edge54" class="edge"><title>Node1&#45;&gt;Node41</title>
<path fill="none" stroke="midnightblue" d="M1172.13,-392.368C1153.15,-373.894 1108.36,-330.293 1084.17,-306.744"/>
<polygon fill="midnightblue" stroke="midnightblue" points="1086.43,-304.059 1076.83,-299.591 1081.55,-309.075 1086.43,-304.059"/>
</g>
<!-- Node44 -->
<g id="node44" class="node"><title>Node44</title>
<g id="a_node44"><a xlink:href="_ogre_any_8h.html" target="_top" xlink:title="OgreAny.h">
<polygon fill="none" stroke="black" points="2817.5,-280.5 2817.5,-299.5 2880.5,-299.5 2880.5,-280.5 2817.5,-280.5"/>
<text text-anchor="middle" x="2849" y="-287.5" font-family="Helvetica,sans-Serif" font-size="10.00">OgreAny.h</text>
</a>
</g>
</g>
<!-- Node1&#45;&gt;Node44 -->
<g id="edge55" class="edge"><title>Node1&#45;&gt;Node44</title>
<path fill="none" stroke="midnightblue" d="M1226.68,-400.344C1419.07,-397.122 2182.09,-379.724 2803,-300 2804.46,-299.812 2805.95,-299.606 2807.45,-299.385"/>
<polygon fill="midnightblue" stroke="midnightblue" points="2808.12,-302.822 2817.41,-297.745 2806.98,-295.915 2808.12,-302.822"/>
</g>
<!-- Node47 -->
<g id="node47" class="node"><title>Node47</title>
<g id="a_node47"><a xlink:href="_ogre_hardware_vertex_buffer_8h.html" target="_top" xlink:title="OgreHardwareVertexBuffer.h">
<polygon fill="none" stroke="black" points="1255.5,-336.5 1255.5,-355.5 1398.5,-355.5 1398.5,-336.5 1255.5,-336.5"/>
<text text-anchor="middle" x="1327" y="-343.5" font-family="Helvetica,sans-Serif" font-size="10.00">OgreHardwareVertexBuffer.h</text>
</a>
</g>
</g>
<!-- Node1&#45;&gt;Node47 -->
<g id="edge64" class="edge"><title>Node1&#45;&gt;Node47</title>
<path fill="none" stroke="midnightblue" d="M1204.13,-392.444C1228.48,-383.438 1267.01,-369.189 1294.42,-359.049"/>
<polygon fill="midnightblue" stroke="midnightblue" points="1295.81,-362.268 1303.97,-355.516 1293.38,-355.703 1295.81,-362.268"/>
</g>
<!-- Node3 -->
<g id="node3" class="node"><title>Node3</title>
<g id="a_node3"><a xlink:href="_ogre_platform_8h.html" target="_top" xlink:title="OgrePlatform.h">
<polygon fill="none" stroke="black" points="2585.5,-112.5 2585.5,-131.5 2668.5,-131.5 2668.5,-112.5 2585.5,-112.5"/>
<text text-anchor="middle" x="2627" y="-119.5" font-family="Helvetica,sans-Serif" font-size="10.00">OgrePlatform.h</text>
</a>
</g>
</g>
<!-- Node2&#45;&gt;Node3 -->
<g id="edge2" class="edge"><title>Node2&#45;&gt;Node3</title>
<path fill="none" stroke="midnightblue" d="M1341.59,-174.916C1554.2,-166.329 2361.27,-133.733 2574.87,-125.105"/>
<polygon fill="midnightblue" stroke="midnightblue" points="2575.32,-128.59 2585.18,-124.689 2575.04,-121.596 2575.32,-128.59"/>
</g>
<!-- Node5 -->
<g id="node5" class="node"><title>Node5</title>
<polygon fill="none" stroke="#bfbfbf" points="2535.5,-56.5 2535.5,-75.5 2576.5,-75.5 2576.5,-56.5 2535.5,-56.5"/>
<text text-anchor="middle" x="2556" y="-63.5" font-family="Helvetica,sans-Serif" font-size="10.00">string</text>
</g>
<!-- Node2&#45;&gt;Node5 -->
<g id="edge4" class="edge"><title>Node2&#45;&gt;Node5</title>
<path fill="none" stroke="midnightblue" d="M1341.73,-176.642C1511.22,-174.654 2064.81,-161.713 2525.64,-75.6267"/>
<polygon fill="midnightblue" stroke="midnightblue" points="2526.3,-79.0633 2535.48,-73.774 2525.01,-72.1841 2526.3,-79.0633"/>
</g>
<!-- Node6 -->
<g id="node6" class="node"><title>Node6</title>
<g id="a_node6"><a xlink:href="_ogre_std_headers_8h.html" target="_top" xlink:title="OgreStdHeaders.h">
<polygon fill="none" stroke="black" points="1539,-112.5 1539,-131.5 1637,-131.5 1637,-112.5 1539,-112.5"/>
<text text-anchor="middle" x="1588" y="-119.5" font-family="Helvetica,sans-Serif" font-size="10.00">OgreStdHeaders.h</text>
</a>
</g>
</g>
<!-- Node2&#45;&gt;Node6 -->
<g id="edge5" class="edge"><title>Node2&#45;&gt;Node6</title>
<path fill="none" stroke="midnightblue" d="M1337.22,-168.444C1389.75,-158.925 1474.61,-143.547 1530.85,-133.356"/>
<polygon fill="midnightblue" stroke="midnightblue" points="1531.79,-136.743 1541,-131.516 1530.54,-129.856 1531.79,-136.743"/>
</g>
<!-- Node36 -->
<g id="node36" class="node"><title>Node36</title>
<g id="a_node36"><a xlink:href="_ogre_memory_allocator_config_8h.html" target="_top" xlink:title="This file configures Ogre&#39;s memory allocators. ">
<polygon fill="none" stroke="red" points="180,-112.5 180,-131.5 328,-131.5 328,-112.5 180,-112.5"/>
<text text-anchor="middle" x="254" y="-119.5" font-family="Helvetica,sans-Serif" font-size="10.00">OgreMemoryAllocatorConfig.h</text>
</a>
</g>
</g>
<!-- Node2&#45;&gt;Node36 -->
<g id="edge36" class="edge"><title>Node2&#45;&gt;Node36</title>
<path fill="none" stroke="midnightblue" d="M1238.27,-174.304C1071.23,-165.597 545.122,-138.174 338.496,-127.404"/>
<polygon fill="midnightblue" stroke="midnightblue" points="338.476,-123.899 328.307,-126.873 338.112,-130.889 338.476,-123.899"/>
</g>
<!-- Node4 -->
<g id="node4" class="node"><title>Node4</title>
<g id="a_node4"><a xlink:href="_ogre_config_8h.html" target="_top" xlink:title="OgreConfig.h">
<polygon fill="none" stroke="red" points="2595,-56.5 2595,-75.5 2669,-75.5 2669,-56.5 2595,-56.5"/>
<text text-anchor="middle" x="2632" y="-63.5" font-family="Helvetica,sans-Serif" font-size="10.00">OgreConfig.h</text>
</a>
</g>
</g>
<!-- Node3&#45;&gt;Node4 -->
<g id="edge3" class="edge"><title>Node3&#45;&gt;Node4</title>
<path fill="none" stroke="midnightblue" d="M2627.83,-112.083C2628.48,-105.006 2629.42,-94.8611 2630.24,-85.9865"/>
<polygon fill="midnightblue" stroke="midnightblue" points="2633.75,-86.0312 2631.19,-75.7511 2626.78,-85.3858 2633.75,-86.0312"/>
</g>
<!-- Node6&#45;&gt;Node5 -->
<g id="edge15" class="edge"><title>Node6&#45;&gt;Node5</title>
<path fill="none" stroke="midnightblue" d="M1637.12,-120.22C1801.68,-117.366 2333.41,-106.124 2525.21,-75.6112"/>
<polygon fill="midnightblue" stroke="midnightblue" points="2525.88,-79.0472 2535.17,-73.9548 2524.74,-72.142 2525.88,-79.0472"/>
</g>
<!-- Node7 -->
<g id="node7" class="node"><title>Node7</title>
<polygon fill="none" stroke="#bfbfbf" points="1121.5,-56.5 1121.5,-75.5 1170.5,-75.5 1170.5,-56.5 1121.5,-56.5"/>
<text text-anchor="middle" x="1146" y="-63.5" font-family="Helvetica,sans-Serif" font-size="10.00">cassert</text>
</g>
<!-- Node6&#45;&gt;Node7 -->
<g id="edge6" class="edge"><title>Node6&#45;&gt;Node7</title>
<path fill="none" stroke="midnightblue" d="M1538.98,-117.961C1463.9,-112.79 1315.83,-100.55 1180.89,-75.8918"/>
<polygon fill="midnightblue" stroke="midnightblue" points="1181.26,-72.4001 1170.79,-74.0172 1179.98,-79.2826 1181.26,-72.4001"/>
</g>
<!-- Node8 -->
<g id="node8" class="node"><title>Node8</title>
<polygon fill="none" stroke="#bfbfbf" points="1188.5,-56.5 1188.5,-75.5 1231.5,-75.5 1231.5,-56.5 1188.5,-56.5"/>
<text text-anchor="middle" x="1210" y="-63.5" font-family="Helvetica,sans-Serif" font-size="10.00">cstdio</text>
</g>
<!-- Node6&#45;&gt;Node8 -->
<g id="edge7" class="edge"><title>Node6&#45;&gt;Node8</title>
<path fill="none" stroke="midnightblue" d="M1538.76,-117.014C1473.11,-111.173 1353.24,-98.667 1241.65,-75.8194"/>
<polygon fill="midnightblue" stroke="midnightblue" points="1242.08,-72.3327 1231.57,-73.7224 1240.65,-79.186 1242.08,-72.3327"/>
</g>
<!-- Node9 -->
<g id="node9" class="node"><title>Node9</title>
<polygon fill="none" stroke="#bfbfbf" points="1249.5,-56.5 1249.5,-75.5 1294.5,-75.5 1294.5,-56.5 1249.5,-56.5"/>
<text text-anchor="middle" x="1272" y="-63.5" font-family="Helvetica,sans-Serif" font-size="10.00">cstdlib</text>
</g>
<!-- Node6&#45;&gt;Node9 -->
<g id="edge8" class="edge"><title>Node6&#45;&gt;Node9</title>
<path fill="none" stroke="midnightblue" d="M1538.93,-115C1484.11,-107.902 1392.59,-94.8779 1304.53,-75.8833"/>
<polygon fill="midnightblue" stroke="midnightblue" points="1305.16,-72.4384 1294.64,-73.722 1303.66,-79.2769 1305.16,-72.4384"/>
</g>
<!-- Node10 -->
<g id="node10" class="node"><title>Node10</title>
<polygon fill="none" stroke="#bfbfbf" points="1312.5,-56.5 1312.5,-75.5 1353.5,-75.5 1353.5,-56.5 1312.5,-56.5"/>
<text text-anchor="middle" x="1333" y="-63.5" font-family="Helvetica,sans-Serif" font-size="10.00">ctime</text>
</g>
<!-- Node6&#45;&gt;Node10 -->
<g id="edge9" class="edge"><title>Node6&#45;&gt;Node10</title>
<path fill="none" stroke="midnightblue" d="M1538.99,-112.57C1495.35,-104.758 1429.62,-92.2339 1363.36,-75.8924"/>
<polygon fill="midnightblue" stroke="midnightblue" points="1364.14,-72.4779 1353.59,-73.4537 1362.44,-79.2698 1364.14,-72.4779"/>
</g>
<!-- Node11 -->
<g id="node11" class="node"><title>Node11</title>
<polygon fill="none" stroke="#bfbfbf" points="1372,-56.5 1372,-75.5 1418,-75.5 1418,-56.5 1372,-56.5"/>
<text text-anchor="middle" x="1395" y="-63.5" font-family="Helvetica,sans-Serif" font-size="10.00">cstring</text>
</g>
<!-- Node6&#45;&gt;Node11 -->
<g id="edge10" class="edge"><title>Node6&#45;&gt;Node11</title>
<path fill="none" stroke="midnightblue" d="M1557.42,-112.444C1522.2,-102.591 1464.56,-86.4621 1428.25,-76.3044"/>
<polygon fill="midnightblue" stroke="midnightblue" points="1428.74,-72.8066 1418.17,-73.4826 1426.86,-79.5477 1428.74,-72.8066"/>
</g>
<!-- Node12 -->
<g id="node12" class="node"><title>Node12</title>
<polygon fill="none" stroke="#bfbfbf" points="1436.5,-56.5 1436.5,-75.5 1485.5,-75.5 1485.5,-56.5 1436.5,-56.5"/>
<text text-anchor="middle" x="1461" y="-63.5" font-family="Helvetica,sans-Serif" font-size="10.00">cstdarg</text>
</g>
<!-- Node6&#45;&gt;Node12 -->
<g id="edge11" class="edge"><title>Node6&#45;&gt;Node12</title>
<path fill="none" stroke="midnightblue" d="M1567.88,-112.444C1546.98,-103.557 1514.07,-89.5632 1490.28,-79.4514"/>
<polygon fill="midnightblue" stroke="midnightblue" points="1491.6,-76.2085 1481.03,-75.5164 1488.86,-82.6504 1491.6,-76.2085"/>
</g>
<!-- Node13 -->
<g id="node13" class="node"><title>Node13</title>
<polygon fill="none" stroke="#bfbfbf" points="1504,-56.5 1504,-75.5 1548,-75.5 1548,-56.5 1504,-56.5"/>
<text text-anchor="middle" x="1526" y="-63.5" font-family="Helvetica,sans-Serif" font-size="10.00">cmath</text>
</g>
<!-- Node6&#45;&gt;Node13 -->
<g id="edge12" class="edge"><title>Node6&#45;&gt;Node13</title>
<path fill="none" stroke="midnightblue" d="M1578.04,-112.324C1568.87,-104.341 1555.06,-92.3128 1543.97,-82.6529"/>
<polygon fill="midnightblue" stroke="midnightblue" points="1545.98,-79.7624 1536.14,-75.8339 1541.38,-85.041 1545.98,-79.7624"/>
</g>
<!-- Node14 -->
<g id="node14" class="node"><title>Node14</title>
<polygon fill="none" stroke="#bfbfbf" points="1566,-56.5 1566,-75.5 1610,-75.5 1610,-56.5 1566,-56.5"/>
<text text-anchor="middle" x="1588" y="-63.5" font-family="Helvetica,sans-Serif" font-size="10.00">vector</text>
</g>
<!-- Node6&#45;&gt;Node14 -->
<g id="edge13" class="edge"><title>Node6&#45;&gt;Node14</title>
<path fill="none" stroke="midnightblue" d="M1588,-112.083C1588,-105.006 1588,-94.8611 1588,-85.9865"/>
<polygon fill="midnightblue" stroke="midnightblue" points="1591.5,-85.751 1588,-75.7511 1584.5,-85.7511 1591.5,-85.751"/>
</g>
<!-- Node15 -->
<g id="node15" class="node"><title>Node15</title>
<polygon fill="none" stroke="#bfbfbf" points="1628.5,-56.5 1628.5,-75.5 1663.5,-75.5 1663.5,-56.5 1628.5,-56.5"/>
<text text-anchor="middle" x="1646" y="-63.5" font-family="Helvetica,sans-Serif" font-size="10.00">map</text>
</g>
<!-- Node6&#45;&gt;Node15 -->
<g id="edge14" class="edge"><title>Node6&#45;&gt;Node15</title>
<path fill="none" stroke="midnightblue" d="M1597.32,-112.324C1605.89,-104.341 1618.81,-92.3128 1629.19,-82.6529"/>
<polygon fill="midnightblue" stroke="midnightblue" points="1631.58,-85.2098 1636.51,-75.8339 1626.81,-80.0865 1631.58,-85.2098"/>
</g>
<!-- Node16 -->
<g id="node16" class="node"><title>Node16</title>
<polygon fill="none" stroke="#bfbfbf" points="1682,-56.5 1682,-75.5 1712,-75.5 1712,-56.5 1682,-56.5"/>
<text text-anchor="middle" x="1697" y="-63.5" font-family="Helvetica,sans-Serif" font-size="10.00">set</text>
</g>
<!-- Node6&#45;&gt;Node16 -->
<g id="edge16" class="edge"><title>Node6&#45;&gt;Node16</title>
<path fill="none" stroke="midnightblue" d="M1605.51,-112.324C1623.8,-103.264 1652.61,-88.9933 1673,-78.8881"/>
<polygon fill="midnightblue" stroke="midnightblue" points="1674.58,-82.0131 1681.99,-74.4376 1671.47,-75.7407 1674.58,-82.0131"/>
</g>
<!-- Node17 -->
<g id="node17" class="node"><title>Node17</title>
<polygon fill="none" stroke="#bfbfbf" points="1730.5,-56.5 1730.5,-75.5 1759.5,-75.5 1759.5,-56.5 1730.5,-56.5"/>
<text text-anchor="middle" x="1745" y="-63.5" font-family="Helvetica,sans-Serif" font-size="10.00">list</text>
</g>
<!-- Node6&#45;&gt;Node17 -->
<g id="edge17" class="edge"><title>Node6&#45;&gt;Node17</title>
<path fill="none" stroke="midnightblue" d="M1614.08,-112.454C1639.12,-104.188 1678.22,-91.1238 1720.86,-75.9663"/>
<polygon fill="midnightblue" stroke="midnightblue" points="1722.06,-79.2548 1730.3,-72.597 1719.71,-72.6622 1722.06,-79.2548"/>
</g>
<!-- Node18 -->
<g id="node18" class="node"><title>Node18</title>
<polygon fill="none" stroke="#bfbfbf" points="1777.5,-56.5 1777.5,-75.5 1820.5,-75.5 1820.5,-56.5 1777.5,-56.5"/>
<text text-anchor="middle" x="1799" y="-63.5" font-family="Helvetica,sans-Serif" font-size="10.00">deque</text>
</g>
<!-- Node6&#45;&gt;Node18 -->
<g id="edge18" class="edge"><title>Node6&#45;&gt;Node18</title>
<path fill="none" stroke="midnightblue" d="M1624.53,-112.459C1659.11,-104.255 1712.69,-91.2354 1767.52,-76.3193"/>
<polygon fill="midnightblue" stroke="midnightblue" points="1768.68,-79.6292 1777.41,-73.6127 1766.84,-72.8777 1768.68,-79.6292"/>
</g>
<!-- Node19 -->
<g id="node19" class="node"><title>Node19</title>
<polygon fill="none" stroke="#bfbfbf" points="1838.5,-56.5 1838.5,-75.5 1881.5,-75.5 1881.5,-56.5 1838.5,-56.5"/>
<text text-anchor="middle" x="1860" y="-63.5" font-family="Helvetica,sans-Serif" font-size="10.00">queue</text>
</g>
<!-- Node6&#45;&gt;Node19 -->
<g id="edge19" class="edge"><title>Node6&#45;&gt;Node19</title>
<path fill="none" stroke="midnightblue" d="M1637.46,-113.404C1684.4,-105.837 1757.07,-93.1966 1828.39,-76.1964"/>
<polygon fill="midnightblue" stroke="midnightblue" points="1829.55,-79.5185 1838.45,-73.7687 1827.9,-72.7141 1829.55,-79.5185"/>
</g>
<!-- Node20 -->
<g id="node20" class="node"><title>Node20</title>
<polygon fill="none" stroke="#bfbfbf" points="1899.5,-56.5 1899.5,-75.5 1940.5,-75.5 1940.5,-56.5 1899.5,-56.5"/>
<text text-anchor="middle" x="1920" y="-63.5" font-family="Helvetica,sans-Serif" font-size="10.00">bitset</text>
</g>
<!-- Node6&#45;&gt;Node20 -->
<g id="edge20" class="edge"><title>Node6&#45;&gt;Node20</title>
<path fill="none" stroke="midnightblue" d="M1637.24,-116.04C1695.48,-109.651 1795.47,-97.0565 1889.26,-76.1291"/>
<polygon fill="midnightblue" stroke="midnightblue" points="1890.22,-79.5016 1899.19,-73.8759 1888.67,-72.675 1890.22,-79.5016"/>
</g>
<!-- Node21 -->
<g id="node21" class="node"><title>Node21</title>
<polygon fill="none" stroke="#bfbfbf" points="1959,-56.5 1959,-75.5 2015,-75.5 2015,-56.5 1959,-56.5"/>
<text text-anchor="middle" x="1987" y="-63.5" font-family="Helvetica,sans-Serif" font-size="10.00">algorithm</text>
</g>
<!-- Node6&#45;&gt;Node21 -->
<g id="edge21" class="edge"><title>Node6&#45;&gt;Node21</title>
<path fill="none" stroke="midnightblue" d="M1637.16,-116.697C1705.14,-110.348 1831.79,-97.088 1948.93,-76.0117"/>
<polygon fill="midnightblue" stroke="midnightblue" points="1949.58,-79.4519 1958.79,-74.2157 1948.32,-72.5653 1949.58,-79.4519"/>
</g>
<!-- Node22 -->
<g id="node22" class="node"><title>Node22</title>
<polygon fill="none" stroke="#bfbfbf" points="2033.5,-56.5 2033.5,-75.5 2092.5,-75.5 2092.5,-56.5 2033.5,-56.5"/>
<text text-anchor="middle" x="2063" y="-63.5" font-family="Helvetica,sans-Serif" font-size="10.00">functional</text>
</g>
<!-- Node6&#45;&gt;Node22 -->
<g id="edge22" class="edge"><title>Node6&#45;&gt;Node22</title>
<path fill="none" stroke="midnightblue" d="M1637.31,-117.911C1716.56,-112.508 1877.32,-99.7512 2023.23,-75.9218"/>
<polygon fill="midnightblue" stroke="midnightblue" points="2023.97,-79.3473 2033.27,-74.2617 2022.83,-72.4412 2023.97,-79.3473"/>
</g>
<!-- Node23 -->
<g id="node23" class="node"><title>Node23</title>
<polygon fill="none" stroke="#bfbfbf" points="2111,-56.5 2111,-75.5 2151,-75.5 2151,-56.5 2111,-56.5"/>
<text text-anchor="middle" x="2131" y="-63.5" font-family="Helvetica,sans-Serif" font-size="10.00">limits</text>
</g>
<!-- Node6&#45;&gt;Node23 -->
<g id="edge23" class="edge"><title>Node6&#45;&gt;Node23</title>
<path fill="none" stroke="midnightblue" d="M1637.03,-120.181C1727.32,-117.921 1925.91,-109.457 2100.96,-75.7903"/>
<polygon fill="midnightblue" stroke="midnightblue" points="2101.72,-79.2081 2110.86,-73.8537 2100.37,-72.3383 2101.72,-79.2081"/>
</g>
<!-- Node24 -->
<g id="node24" class="node"><title>Node24</title>
<polygon fill="none" stroke="#bfbfbf" points="2169,-56.5 2169,-75.5 2219,-75.5 2219,-56.5 2169,-56.5"/>
<text text-anchor="middle" x="2194" y="-63.5" font-family="Helvetica,sans-Serif" font-size="10.00">fstream</text>
</g>
<!-- Node6&#45;&gt;Node24 -->
<g id="edge24" class="edge"><title>Node6&#45;&gt;Node24</title>
<path fill="none" stroke="midnightblue" d="M1637.34,-120.106C1735.21,-117.688 1960.86,-108.901 2158.86,-75.8879"/>
<polygon fill="midnightblue" stroke="midnightblue" points="2159.58,-79.3147 2168.86,-74.1952 2158.42,-72.4128 2159.58,-79.3147"/>
</g>
<!-- Node25 -->
<g id="node25" class="node"><title>Node25</title>
<polygon fill="none" stroke="#bfbfbf" points="2237.5,-56.5 2237.5,-75.5 2282.5,-75.5 2282.5,-56.5 2237.5,-56.5"/>
<text text-anchor="middle" x="2260" y="-63.5" font-family="Helvetica,sans-Serif" font-size="10.00">iosfwd</text>
</g>
<!-- Node6&#45;&gt;Node25 -->
<g id="edge25" class="edge"><title>Node6&#45;&gt;Node25</title>
<path fill="none" stroke="midnightblue" d="M1637.39,-120.942C1743.78,-120.085 2002.44,-114.062 2227.4,-75.7026"/>
<polygon fill="midnightblue" stroke="midnightblue" points="2228.15,-79.1244 2237.41,-73.9703 2226.96,-72.2269 2228.15,-79.1244"/>
</g>
<!-- Node26 -->
<g id="node26" class="node"><title>Node26</title>
<polygon fill="none" stroke="#bfbfbf" points="2301,-56.5 2301,-75.5 2353,-75.5 2353,-56.5 2301,-56.5"/>
<text text-anchor="middle" x="2327" y="-63.5" font-family="Helvetica,sans-Serif" font-size="10.00">sstream</text>
</g>
<!-- Node6&#45;&gt;Node26 -->
<g id="edge26" class="edge"><title>Node6&#45;&gt;Node26</title>
<path fill="none" stroke="midnightblue" d="M1637.43,-121.019C1751.29,-120.382 2040.82,-114.871 2290.74,-75.8973"/>
<polygon fill="midnightblue" stroke="midnightblue" points="2291.41,-79.3359 2300.74,-74.3173 2290.31,-72.4218 2291.41,-79.3359"/>
</g>
<!-- Node27 -->
<g id="node27" class="node"><title>Node27</title>
<polygon fill="none" stroke="#bfbfbf" points="2371,-56.5 2371,-75.5 2439,-75.5 2439,-56.5 2371,-56.5"/>
<text text-anchor="middle" x="2405" y="-63.5" font-family="Helvetica,sans-Serif" font-size="10.00">sys/types.h</text>
</g>
<!-- Node6&#45;&gt;Node27 -->
<g id="edge27" class="edge"><title>Node6&#45;&gt;Node27</title>
<path fill="none" stroke="midnightblue" d="M1637.14,-120.664C1758.43,-119.296 2081.79,-112.367 2360.5,-75.9948"/>
<polygon fill="midnightblue" stroke="midnightblue" points="2361.36,-79.4122 2370.81,-74.6329 2360.44,-72.4725 2361.36,-79.4122"/>
</g>
<!-- Node28 -->
<g id="node28" class="node"><title>Node28</title>
<polygon fill="none" stroke="#bfbfbf" points="2457,-56.5 2457,-75.5 2517,-75.5 2517,-56.5 2457,-56.5"/>
<text text-anchor="middle" x="2487" y="-63.5" font-family="Helvetica,sans-Serif" font-size="10.00">sys/stat.h</text>
</g>
<!-- Node6&#45;&gt;Node28 -->
<g id="edge28" class="edge"><title>Node6&#45;&gt;Node28</title>
<path fill="none" stroke="midnightblue" d="M1637.25,-121.418C1767.87,-121.888 2133.92,-119.055 2446.69,-75.9212"/>
<polygon fill="midnightblue" stroke="midnightblue" points="2447.44,-79.3506 2456.86,-74.5018 2446.48,-72.4178 2447.44,-79.3506"/>
</g>
<!-- Node29 -->
<g id="node29" class="node"><title>Node29</title>
<polygon fill="none" stroke="#bfbfbf" points="385.5,-56.5 385.5,-75.5 436.5,-75.5 436.5,-56.5 385.5,-56.5"/>
<text text-anchor="middle" x="411" y="-63.5" font-family="Helvetica,sans-Serif" font-size="10.00">unistd.h</text>
</g>
<!-- Node6&#45;&gt;Node29 -->
<g id="edge29" class="edge"><title>Node6&#45;&gt;Node29</title>
<path fill="none" stroke="midnightblue" d="M1538.77,-120.45C1351.36,-118.146 681.723,-107.923 447.044,-75.7538"/>
<polygon fill="midnightblue" stroke="midnightblue" points="447.262,-72.2497 436.869,-74.3045 446.275,-79.1797 447.262,-72.2497"/>
</g>
<!-- Node30 -->
<g id="node30" class="node"><title>Node30</title>
<polygon fill="none" stroke="#bfbfbf" points="455,-56.5 455,-75.5 501,-75.5 501,-56.5 455,-56.5"/>
<text text-anchor="middle" x="478" y="-63.5" font-family="Helvetica,sans-Serif" font-size="10.00">dlfcn.h</text>
</g>
<!-- Node6&#45;&gt;Node30 -->
<g id="edge30" class="edge"><title>Node6&#45;&gt;Node30</title>
<path fill="none" stroke="midnightblue" d="M1538.71,-120.462C1358.12,-118.258 732.194,-108.517 511.48,-75.798"/>
<polygon fill="midnightblue" stroke="midnightblue" points="511.696,-72.29 501.279,-74.2225 510.628,-79.208 511.696,-72.29"/>
</g>
<!-- Node31 -->
<g id="node31" class="node"><title>Node31</title>
<polygon fill="none" stroke="#bfbfbf" points="519,-56.5 519,-75.5 597,-75.5 597,-56.5 519,-56.5"/>
<text text-anchor="middle" x="558" y="-63.5" font-family="Helvetica,sans-Serif" font-size="10.00">ext/hash_map</text>
</g>
<!-- Node6&#45;&gt;Node31 -->
<g id="edge31" class="edge"><title>Node6&#45;&gt;Node31</title>
<path fill="none" stroke="midnightblue" d="M1538.76,-121.166C1396.08,-121.134 970.01,-117.398 607.395,-75.9892"/>
<polygon fill="midnightblue" stroke="midnightblue" points="607.56,-72.4851 597.225,-74.816 606.758,-79.439 607.56,-72.4851"/>
</g>
<!-- Node32 -->
<g id="node32" class="node"><title>Node32</title>
<polygon fill="none" stroke="#bfbfbf" points="615.5,-56.5 615.5,-75.5 688.5,-75.5 688.5,-56.5 615.5,-56.5"/>
<text text-anchor="middle" x="652" y="-63.5" font-family="Helvetica,sans-Serif" font-size="10.00">ext/hash_set</text>
</g>
<!-- Node6&#45;&gt;Node32 -->
<g id="edge32" class="edge"><title>Node6&#45;&gt;Node32</title>
<path fill="none" stroke="midnightblue" d="M1538.52,-121.044C1404.6,-120.622 1023.84,-115.827 698.848,-76.0578"/>
<polygon fill="midnightblue" stroke="midnightblue" points="699.119,-72.5648 688.765,-74.8105 698.26,-79.5119 699.119,-72.5648"/>
</g>
<!-- Node33 -->
<g id="node33" class="node"><title>Node33</title>
<polygon fill="none" stroke="#bfbfbf" points="706.5,-56.5 706.5,-75.5 777.5,-75.5 777.5,-56.5 706.5,-56.5"/>
<text text-anchor="middle" x="742" y="-63.5" font-family="Helvetica,sans-Serif" font-size="10.00">sys/param.h</text>
</g>
<!-- Node6&#45;&gt;Node33 -->
<g id="edge33" class="edge"><title>Node6&#45;&gt;Node33</title>
<path fill="none" stroke="midnightblue" d="M1538.56,-120.646C1414.13,-119.238 1077.9,-112.219 788.076,-75.9345"/>
<polygon fill="midnightblue" stroke="midnightblue" points="788.147,-72.4156 777.786,-74.6313 787.267,-79.3601 788.147,-72.4156"/>
</g>
<!-- Node34 -->
<g id="node34" class="node"><title>Node34</title>
<polygon fill="none" stroke="#bfbfbf" points="796,-56.5 796,-75.5 962,-75.5 962,-56.5 796,-56.5"/>
<text text-anchor="middle" x="879" y="-63.5" font-family="Helvetica,sans-Serif" font-size="10.00">CoreFoundation/CoreFoundation.h</text>
</g>
<!-- Node6&#45;&gt;Node34 -->
<g id="edge34" class="edge"><title>Node6&#45;&gt;Node34</title>
<path fill="none" stroke="midnightblue" d="M1538.78,-117.825C1435.77,-111.09 1189.68,-94.5309 972.241,-76.0874"/>
<polygon fill="midnightblue" stroke="midnightblue" points="972.497,-72.5966 962.236,-75.2357 971.903,-79.5714 972.497,-72.5966"/>
</g>
<!-- Node35 -->
<g id="node35" class="node"><title>Node35</title>
<polygon fill="none" stroke="#bfbfbf" points="980,-56.5 980,-75.5 1104,-75.5 1104,-56.5 980,-56.5"/>
<text text-anchor="middle" x="1042" y="-63.5" font-family="Helvetica,sans-Serif" font-size="10.00">emscripten/emscripten.h</text>
</g>
<!-- Node6&#45;&gt;Node35 -->
<g id="edge35" class="edge"><title>Node6&#45;&gt;Node35</title>
<path fill="none" stroke="midnightblue" d="M1538.71,-116.848C1454.15,-109.611 1275.71,-93.8471 1114.43,-76.129"/>
<polygon fill="midnightblue" stroke="midnightblue" points="1114.65,-72.6318 1104.32,-75.0136 1113.88,-79.5895 1114.65,-72.6318"/>
</g>
<!-- Node37 -->
<g id="node37" class="node"><title>Node37</title>
<g id="a_node37"><a xlink:href="_ogre_memory_allocated_object_8h.html" target="_top" xlink:title="OgreMemoryAllocatedObject.h">
<polygon fill="none" stroke="black" points="218,-56.5 218,-75.5 368,-75.5 368,-56.5 218,-56.5"/>
<text text-anchor="middle" x="293" y="-63.5" font-family="Helvetica,sans-Serif" font-size="10.00">OgreMemoryAllocatedObject.h</text>
</a>
</g>
</g>
<!-- Node36&#45;&gt;Node37 -->
<g id="edge37" class="edge"><title>Node36&#45;&gt;Node37</title>
<path fill="none" stroke="midnightblue" d="M260.44,-112.083C265.949,-104.455 274.031,-93.2645 280.765,-83.9408"/>
<polygon fill="midnightblue" stroke="midnightblue" points="283.662,-85.9071 286.68,-75.7511 277.987,-81.8087 283.662,-85.9071"/>
</g>
<!-- Node36&#45;&gt;Node38 -->
<g id="edge41" class="edge"><title>Node36&#45;&gt;Node38</title>
<path fill="none" stroke="midnightblue" d="M240.505,-112.313C221.623,-99.1539 191.492,-73.8177 209,-56 254.259,-9.9396 2324.55,-10.4086 2711.17,-10.8987"/>
<polygon fill="midnightblue" stroke="midnightblue" points="2711.32,-14.3988 2721.32,-10.9121 2711.33,-7.39882 2711.32,-14.3988"/>
</g>
<!-- Node36&#45;&gt;Node39 -->
<g id="edge42" class="edge"><title>Node36&#45;&gt;Node39</title>
<path fill="none" stroke="midnightblue" d="M230.249,-112.426C213.062,-105.129 190.413,-93.0901 176,-76 164.74,-62.6488 158.533,-43.5345 155.268,-29.4885"/>
<polygon fill="midnightblue" stroke="midnightblue" points="158.663,-28.6195 153.241,-19.5174 151.804,-30.0142 158.663,-28.6195"/>
</g>
<!-- Node37&#45;&gt;Node2 -->
<g id="edge38" class="edge"><title>Node37&#45;&gt;Node2</title>
<path fill="none" stroke="midnightblue" d="M368.314,-75.3094C558.309,-96.2718 1054.33,-150.998 1228.48,-170.212"/>
<polygon fill="midnightblue" stroke="midnightblue" points="1228.17,-173.7 1238.5,-171.318 1228.94,-166.742 1228.17,-173.7"/>
</g>
<!-- Node37&#45;&gt;Node38 -->
<g id="edge39" class="edge"><title>Node37&#45;&gt;Node38</title>
<path fill="none" stroke="midnightblue" d="M368.075,-56.5558C370.748,-56.3518 373.396,-56.1653 376,-56 849.843,-25.9221 2382.9,-13.7143 2710.88,-11.414"/>
<polygon fill="midnightblue" stroke="midnightblue" points="2711.16,-14.9122 2721.14,-11.3426 2711.11,-7.9124 2711.16,-14.9122"/>
</g>
<!-- Node37&#45;&gt;Node39 -->
<g id="edge40" class="edge"><title>Node37&#45;&gt;Node39</title>
<path fill="none" stroke="midnightblue" d="M270.658,-56.4435C247.247,-47.4776 210.264,-33.314 183.81,-23.1827"/>
<polygon fill="midnightblue" stroke="midnightblue" points="184.828,-19.8245 174.237,-19.5164 182.324,-26.3615 184.828,-19.8245"/>
</g>
<!-- Node40&#45;&gt;Node2 -->
<g id="edge44" class="edge"><title>Node40&#45;&gt;Node2</title>
<path fill="none" stroke="midnightblue" d="M1011.86,-336.209C1007.7,-322.915 1002.08,-297.404 1013,-280 1058.23,-207.937 1161.5,-186.874 1228.38,-180.964"/>
<polygon fill="midnightblue" stroke="midnightblue" points="1228.68,-184.451 1238.37,-180.169 1228.13,-177.473 1228.68,-184.451"/>
</g>
<!-- Node40&#45;&gt;Node41 -->
<g id="edge45" class="edge"><title>Node40&#45;&gt;Node41</title>
<path fill="none" stroke="midnightblue" d="M1023.75,-336.083C1031.47,-328.22 1042.9,-316.569 1052.22,-307.081"/>
<polygon fill="midnightblue" stroke="midnightblue" points="1054.9,-309.34 1059.41,-299.751 1049.91,-304.436 1054.9,-309.34"/>
</g>
<!-- Node43 -->
<g id="node43" class="node"><title>Node43</title>
<g id="a_node43"><a xlink:href="_ogre_vector2_8h.html" target="_top" xlink:title="OgreVector2.h">
<polygon fill="none" stroke="black" points="885,-280.5 885,-299.5 965,-299.5 965,-280.5 885,-280.5"/>
<text text-anchor="middle" x="925" y="-287.5" font-family="Helvetica,sans-Serif" font-size="10.00">OgreVector2.h</text>
</a>
</g>
</g>
<!-- Node40&#45;&gt;Node43 -->
<g id="edge51" class="edge"><title>Node40&#45;&gt;Node43</title>
<path fill="none" stroke="midnightblue" d="M1000.54,-336.324C986.5,-327.9 964.952,-314.971 948.457,-305.074"/>
<polygon fill="midnightblue" stroke="midnightblue" points="949.8,-301.798 939.424,-299.655 946.198,-307.801 949.8,-301.798"/>
</g>
<!-- Node41&#45;&gt;Node2 -->
<g id="edge46" class="edge"><title>Node41&#45;&gt;Node2</title>
<path fill="none" stroke="midnightblue" d="M1079.36,-280.281C1097.24,-266.854 1133.38,-240.901 1167,-224 1194.14,-210.355 1226.45,-198.697 1251.14,-190.667"/>
<polygon fill="midnightblue" stroke="midnightblue" points="1252.42,-193.934 1260.88,-187.559 1250.29,-187.265 1252.42,-193.934"/>
</g>
<!-- Node42 -->
<g id="node42" class="node"><title>Node42</title>
<g id="a_node42"><a xlink:href="_ogre_math_8h.html" target="_top" xlink:title="OgreMath.h">
<polygon fill="none" stroke="black" points="821,-224.5 821,-243.5 889,-243.5 889,-224.5 821,-224.5"/>
<text text-anchor="middle" x="855" y="-231.5" font-family="Helvetica,sans-Serif" font-size="10.00">OgreMath.h</text>
</a>
</g>
</g>
<!-- Node41&#45;&gt;Node42 -->
<g id="edge47" class="edge"><title>Node41&#45;&gt;Node42</title>
<path fill="none" stroke="midnightblue" d="M1034.25,-280.444C997.482,-271.122 938.554,-256.183 898.378,-245.997"/>
<polygon fill="midnightblue" stroke="midnightblue" points="899.146,-242.581 888.593,-243.516 897.426,-249.367 899.146,-242.581"/>
</g>
<!-- Node42&#45;&gt;Node2 -->
<g id="edge48" class="edge"><title>Node42&#45;&gt;Node2</title>
<path fill="none" stroke="midnightblue" d="M889.134,-228.763C962.3,-219.68 1135.13,-198.226 1228.15,-186.677"/>
<polygon fill="midnightblue" stroke="midnightblue" points="1228.78,-190.127 1238.27,-185.422 1227.92,-183.18 1228.78,-190.127"/>
</g>
<!-- Node42&#45;&gt;Node38 -->
<g id="edge49" class="edge"><title>Node42&#45;&gt;Node38</title>
<path fill="none" stroke="midnightblue" d="M820.803,-232.059C657.458,-226.836 -26.2242,-196.331 200,-56 255.067,-21.8407 2324.78,-12.6334 2711.21,-11.2106"/>
<polygon fill="midnightblue" stroke="midnightblue" points="2711.37,-14.7102 2721.35,-11.1737 2711.34,-7.71023 2711.37,-14.7102"/>
</g>
<!-- Node42&#45;&gt;Node39 -->
<g id="edge50" class="edge"><title>Node42&#45;&gt;Node39</title>
<path fill="none" stroke="midnightblue" d="M820.683,-232.352C671.844,-229.379 88.4284,-215.971 62,-188 21.7087,-145.357 31.1571,-105.905 62,-56 71.6735,-40.348 88.6222,-29.958 105.222,-23.1496"/>
<polygon fill="midnightblue" stroke="midnightblue" points="106.751,-26.3151 114.898,-19.5421 104.305,-19.7561 106.751,-26.3151"/>
</g>
<!-- Node43&#45;&gt;Node2 -->
<g id="edge52" class="edge"><title>Node43&#45;&gt;Node2</title>
<path fill="none" stroke="midnightblue" d="M929.564,-280.069C937.474,-265.606 955.193,-237.336 979,-224 1020.51,-200.747 1149.82,-188.291 1228.03,-182.713"/>
<polygon fill="midnightblue" stroke="midnightblue" points="1228.5,-186.188 1238.24,-182.003 1228.02,-179.205 1228.5,-186.188"/>
</g>
<!-- Node43&#45;&gt;Node42 -->
<g id="edge53" class="edge"><title>Node43&#45;&gt;Node42</title>
<path fill="none" stroke="midnightblue" d="M913.753,-280.324C903.203,-272.185 887.199,-259.839 874.558,-250.087"/>
<polygon fill="midnightblue" stroke="midnightblue" points="876.507,-247.171 866.451,-243.834 872.231,-252.713 876.507,-247.171"/>
</g>
<!-- Node44&#45;&gt;Node2 -->
<g id="edge56" class="edge"><title>Node44&#45;&gt;Node2</title>
<path fill="none" stroke="midnightblue" d="M2817.15,-286.753C2624.35,-273.149 1612.83,-201.778 1351.61,-183.347"/>
<polygon fill="midnightblue" stroke="midnightblue" points="1351.77,-179.85 1341.55,-182.637 1351.28,-186.832 1351.77,-179.85"/>
</g>
<!-- Node44&#45;&gt;Node38 -->
<g id="edge62" class="edge"><title>Node44&#45;&gt;Node38</title>
<path fill="none" stroke="midnightblue" d="M2849,-280.442C2849,-261.936 2849,-216.812 2849,-179 2849,-179 2849,-179 2849,-121 2849,-90.2048 2842.53,-81.3191 2825,-56 2816.82,-44.1903 2804.85,-33.5418 2794.45,-25.5714"/>
<polygon fill="midnightblue" stroke="midnightblue" points="2796.34,-22.6188 2786.2,-19.5395 2792.21,-28.2685 2796.34,-22.6188"/>
</g>
<!-- Node44&#45;&gt;Node39 -->
<g id="edge63" class="edge"><title>Node44&#45;&gt;Node39</title>
<path fill="none" stroke="midnightblue" d="M2828.36,-280.421C2795.5,-265.231 2735,-230.293 2735,-179 2735,-179 2735,-179 2735,-121 2735,-87.7586 2726.59,-72.9618 2698,-56 2642.88,-23.2984 597.576,-12.9137 213.739,-11.251"/>
<polygon fill="midnightblue" stroke="midnightblue" points="213.674,-7.75083 203.659,-11.2077 213.644,-14.7508 213.674,-7.75083"/>
</g>
<!-- Node45 -->
<g id="node45" class="node"><title>Node45</title>
<g id="a_node45"><a xlink:href="_ogre_exception_8h.html" target="_top" xlink:title="OgreException.h">
<polygon fill="none" stroke="red" points="2617.5,-224.5 2617.5,-243.5 2706.5,-243.5 2706.5,-224.5 2617.5,-224.5"/>
<text text-anchor="middle" x="2662" y="-231.5" font-family="Helvetica,sans-Serif" font-size="10.00">OgreException.h</text>
</a>
</g>
</g>
<!-- Node44&#45;&gt;Node45 -->
<g id="edge57" class="edge"><title>Node44&#45;&gt;Node45</title>
<path fill="none" stroke="midnightblue" d="M2819.37,-280.444C2787.5,-271.241 2736.67,-256.562 2701.44,-246.388"/>
<polygon fill="midnightblue" stroke="midnightblue" points="2702.07,-242.928 2691.49,-243.516 2700.13,-249.653 2702.07,-242.928"/>
</g>
<!-- Node46 -->
<g id="node46" class="node"><title>Node46</title>
<polygon fill="none" stroke="#bfbfbf" points="2877.5,-224.5 2877.5,-243.5 2928.5,-243.5 2928.5,-224.5 2877.5,-224.5"/>
<text text-anchor="middle" x="2903" y="-231.5" font-family="Helvetica,sans-Serif" font-size="10.00">typeinfo</text>
</g>
<!-- Node44&#45;&gt;Node46 -->
<g id="edge61" class="edge"><title>Node44&#45;&gt;Node46</title>
<path fill="none" stroke="midnightblue" d="M2857.92,-280.083C2865.78,-272.22 2877.43,-260.569 2886.92,-251.081"/>
<polygon fill="midnightblue" stroke="midnightblue" points="2889.65,-253.297 2894.25,-243.751 2884.7,-248.347 2889.65,-253.297"/>
</g>
<!-- Node45&#45;&gt;Node2 -->
<g id="edge58" class="edge"><title>Node45&#45;&gt;Node2</title>
<path fill="none" stroke="midnightblue" d="M2617.13,-231.234C2414.63,-223.264 1585.61,-190.635 1351.71,-181.429"/>
<polygon fill="midnightblue" stroke="midnightblue" points="1351.8,-177.93 1341.67,-181.034 1351.53,-184.924 1351.8,-177.93"/>
</g>
<!-- Node45&#45;&gt;Node38 -->
<g id="edge59" class="edge"><title>Node45&#45;&gt;Node38</title>
<path fill="none" stroke="midnightblue" d="M2674.48,-224.336C2685.47,-216.122 2701.22,-202.855 2711,-188 2745.11,-136.208 2762.79,-63.5038 2769.6,-29.6755"/>
<polygon fill="midnightblue" stroke="midnightblue" points="2773.05,-30.261 2771.5,-19.7801 2766.18,-28.9396 2773.05,-30.261"/>
</g>
<!-- Node45&#45;&gt;Node39 -->
<g id="edge60" class="edge"><title>Node45&#45;&gt;Node39</title>
<path fill="none" stroke="midnightblue" d="M2666.68,-224.476C2681.61,-196.003 2724.49,-103.323 2678,-56 2633.45,-10.6525 597.066,-10.5353 213.829,-10.9155"/>
<polygon fill="midnightblue" stroke="midnightblue" points="213.759,-7.4155 203.763,-10.926 213.767,-14.4155 213.759,-7.4155"/>
</g>
<!-- Node47&#45;&gt;Node2 -->
<g id="edge65" class="edge"><title>Node47&#45;&gt;Node2</title>
<path fill="none" stroke="midnightblue" d="M1326.31,-336.352C1324.58,-316.302 1319.32,-265.214 1308,-224 1305.49,-214.872 1301.71,-205.076 1298.26,-196.963"/>
<polygon fill="midnightblue" stroke="midnightblue" points="1301.44,-195.49 1294.19,-187.762 1295.04,-198.323 1301.44,-195.49"/>
</g>
<!-- Node47&#45;&gt;Node38 -->
<g id="edge73" class="edge"><title>Node47&#45;&gt;Node38</title>
<path fill="none" stroke="midnightblue" d="M1398.57,-344.282C1667.87,-340.977 2610.26,-323.76 2716,-244 2783.74,-192.909 2779.76,-75.5659 2775.31,-29.7815"/>
<polygon fill="midnightblue" stroke="midnightblue" points="2778.78,-29.3263 2774.22,-19.767 2771.83,-30.0888 2778.78,-29.3263"/>
</g>
<!-- Node47&#45;&gt;Node39 -->
<g id="edge74" class="edge"><title>Node47&#45;&gt;Node39</title>
<path fill="none" stroke="midnightblue" d="M1302.16,-336.453C1264.06,-323.478 1188.79,-298.379 1124,-280 1024.45,-251.761 999.728,-242.973 898,-224 817.958,-209.072 230.019,-188.092 171,-132 143.217,-105.595 145.139,-56.3867 148.709,-29.5773"/>
<polygon fill="midnightblue" stroke="midnightblue" points="152.183,-30.0091 150.258,-19.5908 145.266,-28.9361 152.183,-30.0091"/>
</g>
<!-- Node48 -->
<g id="node48" class="node"><title>Node48</title>
<g id="a_node48"><a xlink:href="_ogre_hardware_buffer_8h.html" target="_top" xlink:title="OgreHardwareBuffer.h">
<polygon fill="none" stroke="black" points="1426,-280.5 1426,-299.5 1540,-299.5 1540,-280.5 1426,-280.5"/>
<text text-anchor="middle" x="1483" y="-287.5" font-family="Helvetica,sans-Serif" font-size="10.00">OgreHardwareBuffer.h</text>
</a>
</g>
</g>
<!-- Node47&#45;&gt;Node48 -->
<g id="edge66" class="edge"><title>Node47&#45;&gt;Node48</title>
<path fill="none" stroke="midnightblue" d="M1351.72,-336.444C1377.85,-327.399 1419.26,-313.064 1448.58,-302.916"/>
<polygon fill="midnightblue" stroke="midnightblue" points="1450.09,-306.095 1458.4,-299.516 1447.8,-299.48 1450.09,-306.095"/>
</g>
<!-- Node49 -->
<g id="node49" class="node"><title>Node49</title>
<g id="a_node49"><a xlink:href="_ogre_shared_ptr_8h.html" target="_top" xlink:title="OgreSharedPtr.h">
<polygon fill="none" stroke="red" points="1209.5,-224.5 1209.5,-243.5 1298.5,-243.5 1298.5,-224.5 1209.5,-224.5"/>
<text text-anchor="middle" x="1254" y="-231.5" font-family="Helvetica,sans-Serif" font-size="10.00">OgreSharedPtr.h</text>
</a>
</g>
</g>
<!-- Node47&#45;&gt;Node49 -->
<g id="edge69" class="edge"><title>Node47&#45;&gt;Node49</title>
<path fill="none" stroke="midnightblue" d="M1321.27,-336.368C1309.22,-318.215 1281.08,-275.802 1265.28,-251.99"/>
<polygon fill="midnightblue" stroke="midnightblue" points="1268.15,-249.988 1259.7,-243.591 1262.31,-253.859 1268.15,-249.988"/>
</g>
<!-- Node50 -->
<g id="node50" class="node"><title>Node50</title>
<g id="a_node50"><a xlink:href="_ogre_colour_value_8h.html" target="_top" xlink:title="OgreColourValue.h">
<polygon fill="none" stroke="black" points="1355.5,-224.5 1355.5,-243.5 1454.5,-243.5 1454.5,-224.5 1355.5,-224.5"/>
<text text-anchor="middle" x="1405" y="-231.5" font-family="Helvetica,sans-Serif" font-size="10.00">OgreColourValue.h</text>
</a>
</g>
</g>
<!-- Node47&#45;&gt;Node50 -->
<g id="edge71" class="edge"><title>Node47&#45;&gt;Node50</title>
<path fill="none" stroke="midnightblue" d="M1333.12,-336.368C1345.99,-318.215 1376.07,-275.802 1392.95,-251.99"/>
<polygon fill="midnightblue" stroke="midnightblue" points="1395.98,-253.773 1398.91,-243.591 1390.27,-249.724 1395.98,-253.773"/>
</g>
<!-- Node48&#45;&gt;Node2 -->
<g id="edge67" class="edge"><title>Node48&#45;&gt;Node2</title>
<path fill="none" stroke="midnightblue" d="M1483.04,-280.492C1482.62,-266.636 1479.7,-239.219 1464,-224 1434.41,-195.318 1389.03,-184.254 1352.04,-180.263"/>
<polygon fill="midnightblue" stroke="midnightblue" points="1352.13,-176.756 1341.85,-179.316 1351.48,-183.726 1352.13,-176.756"/>
</g>
<!-- Node48&#45;&gt;Node45 -->
<g id="edge68" class="edge"><title>Node48&#45;&gt;Node45</title>
<path fill="none" stroke="midnightblue" d="M1540.26,-286.377C1740.85,-277.19 2410.21,-246.532 2607.09,-237.515"/>
<polygon fill="midnightblue" stroke="midnightblue" points="2607.37,-241.006 2617.19,-237.052 2607.04,-234.013 2607.37,-241.006"/>
</g>
<!-- Node49&#45;&gt;Node2 -->
<g id="edge70" class="edge"><title>Node49&#45;&gt;Node2</title>
<path fill="none" stroke="midnightblue" d="M1259.94,-224.083C1264.98,-216.534 1272.34,-205.495 1278.51,-196.23"/>
<polygon fill="midnightblue" stroke="midnightblue" points="1281.53,-198.013 1284.17,-187.751 1275.71,-194.13 1281.53,-198.013"/>
</g>
<!-- Node50&#45;&gt;Node2 -->
<g id="edge72" class="edge"><title>Node50&#45;&gt;Node2</title>
<path fill="none" stroke="midnightblue" d="M1386.78,-224.444C1368.1,-215.675 1338.84,-201.935 1317.38,-191.858"/>
<polygon fill="midnightblue" stroke="midnightblue" points="1318.68,-188.599 1308.14,-187.516 1315.7,-194.935 1318.68,-188.599"/>
</g>
</g>
</svg>
