<?xml version="1.0" encoding="UTF-8" standalone="no"?>
<!DOCTYPE svg PUBLIC "-//W3C//DTD SVG 1.1//EN"
 "http://www.w3.org/Graphics/SVG/1.1/DTD/svg11.dtd">
<!-- Generated by graphviz version 2.38.0 (20140413.2041)
 -->
<!-- Title: OgreVolumeChunkHandler.h Pages: 1 -->
<svg width="3241pt" height="476pt"
 viewBox="0.00 0.00 3241.00 476.00" xmlns="http://www.w3.org/2000/svg" xmlns:xlink="http://www.w3.org/1999/xlink">
<g id="graph0" class="graph" transform="scale(1 1) rotate(0) translate(4 472)">
<title>OgreVolumeChunkHandler.h</title>
<!-- Node1 -->
<g id="node1" class="node"><title>Node1</title>
<polygon fill="#bfbfbf" stroke="black" points="1707.5,-448.5 1707.5,-467.5 1848.5,-467.5 1848.5,-448.5 1707.5,-448.5"/>
<text text-anchor="middle" x="1778" y="-455.5" font-family="Helvetica,sans-Serif" font-size="10.00">OgreVolumeChunkHandler.h</text>
</g>
<!-- Node2 -->
<g id="node2" class="node"><title>Node2</title>
<g id="a_node2"><a xlink:href="_ogre_work_queue_8h.html" target="_top" xlink:title="OgreWorkQueue.h">
<polygon fill="none" stroke="black" points="2313,-392.5 2313,-411.5 2411,-411.5 2411,-392.5 2313,-392.5"/>
<text text-anchor="middle" x="2362" y="-399.5" font-family="Helvetica,sans-Serif" font-size="10.00">OgreWorkQueue.h</text>
</a>
</g>
</g>
<!-- Node1&#45;&gt;Node2 -->
<g id="edge1" class="edge"><title>Node1&#45;&gt;Node2</title>
<path fill="none" stroke="midnightblue" d="M1848.73,-450.459C1964.94,-439.715 2194.14,-418.521 2302.53,-408.499"/>
<polygon fill="midnightblue" stroke="midnightblue" points="2303,-411.971 2312.63,-407.565 2302.35,-405 2303,-411.971"/>
</g>
<!-- Node50 -->
<g id="node50" class="node"><title>Node50</title>
<g id="a_node50"><a xlink:href="_ogre_volume_prerequisites_8h.html" target="_top" xlink:title="OgreVolumePrerequisites.h">
<polygon fill="none" stroke="black" points="0,-336.5 0,-355.5 136,-355.5 136,-336.5 0,-336.5"/>
<text text-anchor="middle" x="68" y="-343.5" font-family="Helvetica,sans-Serif" font-size="10.00">OgreVolumePrerequisites.h</text>
</a>
</g>
</g>
<!-- Node1&#45;&gt;Node50 -->
<g id="edge72" class="edge"><title>Node1&#45;&gt;Node50</title>
<path fill="none" stroke="midnightblue" d="M1707.3,-453.812C1480.62,-443.335 751.673,-407.653 150,-356 148.894,-355.905 147.78,-355.808 146.659,-355.708"/>
<polygon fill="midnightblue" stroke="midnightblue" points="146.714,-352.198 136.433,-354.756 146.065,-359.168 146.714,-352.198"/>
</g>
<!-- Node3 -->
<g id="node3" class="node"><title>Node3</title>
<g id="a_node3"><a xlink:href="_ogre_prerequisites_8h.html" target="_top" xlink:title="OgrePrerequisites.h">
<polygon fill="none" stroke="black" points="2334.5,-168.5 2334.5,-187.5 2437.5,-187.5 2437.5,-168.5 2334.5,-168.5"/>
<text text-anchor="middle" x="2386" y="-175.5" font-family="Helvetica,sans-Serif" font-size="10.00">OgrePrerequisites.h</text>
</a>
</g>
</g>
<!-- Node2&#45;&gt;Node3 -->
<g id="edge2" class="edge"><title>Node2&#45;&gt;Node3</title>
<path fill="none" stroke="midnightblue" d="M2349.91,-392.373C2314.6,-366.13 2216.79,-285.316 2260,-224 2274.76,-203.057 2300.19,-191.807 2324.36,-185.785"/>
<polygon fill="midnightblue" stroke="midnightblue" points="2325.25,-189.174 2334.25,-183.583 2323.72,-182.341 2325.25,-189.174"/>
</g>
<!-- Node39 -->
<g id="node39" class="node"><title>Node39</title>
<g id="a_node39"><a xlink:href="_ogre_header_prefix_8h.html" target="_top" xlink:title="OgreHeaderPrefix.h">
<polygon fill="none" stroke="black" points="2503.5,-0.5 2503.5,-19.5 2606.5,-19.5 2606.5,-0.5 2503.5,-0.5"/>
<text text-anchor="middle" x="2555" y="-7.5" font-family="Helvetica,sans-Serif" font-size="10.00">OgreHeaderPrefix.h</text>
</a>
</g>
</g>
<!-- Node2&#45;&gt;Node39 -->
<g id="edge70" class="edge"><title>Node2&#45;&gt;Node39</title>
<path fill="none" stroke="midnightblue" d="M2312.92,-398.864C1981.87,-384.139 88,-294.84 88,-179 88,-179 88,-179 88,-121 88,-85.8636 102.03,-72.5954 133,-56 186.596,-27.2805 2121.08,-13.7196 2493.37,-11.3729"/>
<polygon fill="midnightblue" stroke="midnightblue" points="2493.44,-14.8727 2503.41,-11.31 2493.39,-7.87281 2493.44,-14.8727"/>
</g>
<!-- Node40 -->
<g id="node40" class="node"><title>Node40</title>
<g id="a_node40"><a xlink:href="_ogre_header_suffix_8h.html" target="_top" xlink:title="OgreHeaderSuffix.h">
<polygon fill="none" stroke="black" points="3031.5,-0.5 3031.5,-19.5 3134.5,-19.5 3134.5,-0.5 3031.5,-0.5"/>
<text text-anchor="middle" x="3083" y="-7.5" font-family="Helvetica,sans-Serif" font-size="10.00">OgreHeaderSuffix.h</text>
</a>
</g>
</g>
<!-- Node2&#45;&gt;Node40 -->
<g id="edge71" class="edge"><title>Node2&#45;&gt;Node40</title>
<path fill="none" stroke="midnightblue" d="M2411.01,-400.008C2594.85,-395.647 3233,-374.496 3233,-291 3233,-291 3233,-291 3233,-121 3233,-67.7094 3170.67,-37.4147 3126.37,-22.6126"/>
<polygon fill="midnightblue" stroke="midnightblue" points="3127.25,-19.2206 3116.66,-19.5167 3125.13,-25.8897 3127.25,-19.2206"/>
</g>
<!-- Node43 -->
<g id="node43" class="node"><title>Node43</title>
<g id="a_node43"><a xlink:href="_ogre_any_8h.html" target="_top" xlink:title="OgreAny.h">
<polygon fill="none" stroke="black" points="2294.5,-280.5 2294.5,-299.5 2357.5,-299.5 2357.5,-280.5 2294.5,-280.5"/>
<text text-anchor="middle" x="2326" y="-287.5" font-family="Helvetica,sans-Serif" font-size="10.00">OgreAny.h</text>
</a>
</g>
</g>
<!-- Node2&#45;&gt;Node43 -->
<g id="edge51" class="edge"><title>Node2&#45;&gt;Node43</title>
<path fill="none" stroke="midnightblue" d="M2358.82,-392.411C2355.51,-383.384 2350.23,-368.75 2346,-356 2340.83,-340.415 2335.38,-322.582 2331.47,-309.542"/>
<polygon fill="midnightblue" stroke="midnightblue" points="2334.8,-308.457 2328.6,-299.87 2328.09,-310.453 2334.8,-308.457"/>
</g>
<!-- Node46 -->
<g id="node46" class="node"><title>Node46</title>
<g id="a_node46"><a xlink:href="_ogre_shared_ptr_8h.html" target="_top" xlink:title="OgreSharedPtr.h">
<polygon fill="none" stroke="black" points="2354.5,-336.5 2354.5,-355.5 2443.5,-355.5 2443.5,-336.5 2354.5,-336.5"/>
<text text-anchor="middle" x="2399" y="-343.5" font-family="Helvetica,sans-Serif" font-size="10.00">OgreSharedPtr.h</text>
</a>
</g>
</g>
<!-- Node2&#45;&gt;Node46 -->
<g id="edge60" class="edge"><title>Node2&#45;&gt;Node46</title>
<path fill="none" stroke="midnightblue" d="M2368.11,-392.083C2373.28,-384.534 2380.85,-373.495 2387.19,-364.23"/>
<polygon fill="midnightblue" stroke="midnightblue" points="2390.24,-365.979 2393,-355.751 2384.46,-362.022 2390.24,-365.979"/>
</g>
<!-- Node48 -->
<g id="node48" class="node"><title>Node48</title>
<g id="a_node48"><a xlink:href="_ogre_thread_headers_8h.html" target="_top" xlink:title="Threading/OgreThreadHeaders.h">
<polygon fill="none" stroke="red" points="2933,-224.5 2933,-243.5 3091,-243.5 3091,-224.5 2933,-224.5"/>
<text text-anchor="middle" x="3012" y="-231.5" font-family="Helvetica,sans-Serif" font-size="10.00">Threading/OgreThreadHeaders.h</text>
</a>
</g>
</g>
<!-- Node2&#45;&gt;Node48 -->
<g id="edge69" class="edge"><title>Node2&#45;&gt;Node48</title>
<path fill="none" stroke="midnightblue" d="M2395.58,-392.425C2504.43,-364.625 2847.53,-277.003 2968.92,-246.002"/>
<polygon fill="midnightblue" stroke="midnightblue" points="2969.8,-249.39 2978.62,-243.524 2968.07,-242.607 2969.8,-249.39"/>
</g>
<!-- Node49 -->
<g id="node49" class="node"><title>Node49</title>
<g id="a_node49"><a xlink:href="_ogre_common_8h.html" target="_top" xlink:title="OgreCommon.h">
<polygon fill="none" stroke="black" points="3005,-56.5 3005,-75.5 3091,-75.5 3091,-56.5 3005,-56.5"/>
<text text-anchor="middle" x="3048" y="-63.5" font-family="Helvetica,sans-Serif" font-size="10.00">OgreCommon.h</text>
</a>
</g>
</g>
<!-- Node2&#45;&gt;Node49 -->
<g id="edge66" class="edge"><title>Node2&#45;&gt;Node49</title>
<path fill="none" stroke="midnightblue" d="M2411.09,-399.06C2578.83,-391.788 3119,-362.797 3119,-291 3119,-291 3119,-291 3119,-177 3119,-138.101 3087.27,-102.052 3066.23,-82.4257"/>
<polygon fill="midnightblue" stroke="midnightblue" points="3068.56,-79.8128 3058.78,-75.7363 3063.89,-85.0215 3068.56,-79.8128"/>
</g>
<!-- Node4 -->
<g id="node4" class="node"><title>Node4</title>
<g id="a_node4"><a xlink:href="_ogre_platform_8h.html" target="_top" xlink:title="OgrePlatform.h">
<polygon fill="none" stroke="black" points="2349.5,-112.5 2349.5,-131.5 2432.5,-131.5 2432.5,-112.5 2349.5,-112.5"/>
<text text-anchor="middle" x="2391" y="-119.5" font-family="Helvetica,sans-Serif" font-size="10.00">OgrePlatform.h</text>
</a>
</g>
</g>
<!-- Node3&#45;&gt;Node4 -->
<g id="edge3" class="edge"><title>Node3&#45;&gt;Node4</title>
<path fill="none" stroke="midnightblue" d="M2386.83,-168.083C2387.48,-161.006 2388.42,-150.861 2389.24,-141.986"/>
<polygon fill="midnightblue" stroke="midnightblue" points="2392.75,-142.031 2390.19,-131.751 2385.78,-141.386 2392.75,-142.031"/>
</g>
<!-- Node6 -->
<g id="node6" class="node"><title>Node6</title>
<polygon fill="none" stroke="#bfbfbf" points="154.5,-56.5 154.5,-75.5 195.5,-75.5 195.5,-56.5 154.5,-56.5"/>
<text text-anchor="middle" x="175" y="-63.5" font-family="Helvetica,sans-Serif" font-size="10.00">string</text>
</g>
<!-- Node3&#45;&gt;Node6 -->
<g id="edge5" class="edge"><title>Node3&#45;&gt;Node6</title>
<path fill="none" stroke="midnightblue" d="M2334.47,-176.444C2048.5,-173.083 653.681,-153.038 205.836,-75.891"/>
<polygon fill="midnightblue" stroke="midnightblue" points="206.212,-72.4034 195.756,-74.116 204.998,-79.2973 206.212,-72.4034"/>
</g>
<!-- Node7 -->
<g id="node7" class="node"><title>Node7</title>
<g id="a_node7"><a xlink:href="_ogre_std_headers_8h.html" target="_top" xlink:title="OgreStdHeaders.h">
<polygon fill="none" stroke="black" points="1257,-112.5 1257,-131.5 1355,-131.5 1355,-112.5 1257,-112.5"/>
<text text-anchor="middle" x="1306" y="-119.5" font-family="Helvetica,sans-Serif" font-size="10.00">OgreStdHeaders.h</text>
</a>
</g>
</g>
<!-- Node3&#45;&gt;Node7 -->
<g id="edge6" class="edge"><title>Node3&#45;&gt;Node7</title>
<path fill="none" stroke="midnightblue" d="M2334.27,-174.414C2154.34,-165.417 1556.36,-135.518 1365.26,-125.963"/>
<polygon fill="midnightblue" stroke="midnightblue" points="1365.29,-122.46 1355.13,-125.457 1364.94,-129.452 1365.29,-122.46"/>
</g>
<!-- Node37 -->
<g id="node37" class="node"><title>Node37</title>
<g id="a_node37"><a xlink:href="_ogre_memory_allocator_config_8h.html" target="_top" xlink:title="This file configures Ogre&#39;s memory allocators. ">
<polygon fill="none" stroke="black" points="2584,-112.5 2584,-131.5 2732,-131.5 2732,-112.5 2584,-112.5"/>
<text text-anchor="middle" x="2658" y="-119.5" font-family="Helvetica,sans-Serif" font-size="10.00">OgreMemoryAllocatorConfig.h</text>
</a>
</g>
</g>
<!-- Node3&#45;&gt;Node37 -->
<g id="edge37" class="edge"><title>Node3&#45;&gt;Node37</title>
<path fill="none" stroke="midnightblue" d="M2429.1,-168.444C2476.85,-158.964 2553.86,-143.675 2605.19,-133.483"/>
<polygon fill="midnightblue" stroke="midnightblue" points="2605.98,-136.897 2615.1,-131.516 2604.61,-130.031 2605.98,-136.897"/>
</g>
<!-- Node5 -->
<g id="node5" class="node"><title>Node5</title>
<g id="a_node5"><a xlink:href="_ogre_config_8h.html" target="_top" xlink:title="OgreConfig.h">
<polygon fill="none" stroke="red" points="2364,-56.5 2364,-75.5 2438,-75.5 2438,-56.5 2364,-56.5"/>
<text text-anchor="middle" x="2401" y="-63.5" font-family="Helvetica,sans-Serif" font-size="10.00">OgreConfig.h</text>
</a>
</g>
</g>
<!-- Node4&#45;&gt;Node5 -->
<g id="edge4" class="edge"><title>Node4&#45;&gt;Node5</title>
<path fill="none" stroke="midnightblue" d="M2392.65,-112.083C2393.98,-104.927 2395.88,-94.6353 2397.54,-85.6911"/>
<polygon fill="midnightblue" stroke="midnightblue" points="2401,-86.2212 2399.38,-75.7511 2394.12,-84.9466 2401,-86.2212"/>
</g>
<!-- Node7&#45;&gt;Node6 -->
<g id="edge16" class="edge"><title>Node7&#45;&gt;Node6</title>
<path fill="none" stroke="midnightblue" d="M1256.86,-120.688C1073.77,-119.268 430.612,-111.9 205.816,-75.8323"/>
<polygon fill="midnightblue" stroke="midnightblue" points="206.191,-72.3465 195.75,-74.1489 205.036,-79.2506 206.191,-72.3465"/>
</g>
<!-- Node8 -->
<g id="node8" class="node"><title>Node8</title>
<polygon fill="none" stroke="#bfbfbf" points="628.5,-56.5 628.5,-75.5 677.5,-75.5 677.5,-56.5 628.5,-56.5"/>
<text text-anchor="middle" x="653" y="-63.5" font-family="Helvetica,sans-Serif" font-size="10.00">cassert</text>
</g>
<!-- Node7&#45;&gt;Node8 -->
<g id="edge7" class="edge"><title>Node7&#45;&gt;Node8</title>
<path fill="none" stroke="midnightblue" d="M1256.98,-120.658C1153.28,-119.242 904.058,-112.188 687.703,-75.9929"/>
<polygon fill="midnightblue" stroke="midnightblue" points="688.196,-72.5266 677.751,-74.3032 687.024,-79.4278 688.196,-72.5266"/>
</g>
<!-- Node9 -->
<g id="node9" class="node"><title>Node9</title>
<polygon fill="none" stroke="#bfbfbf" points="695.5,-56.5 695.5,-75.5 738.5,-75.5 738.5,-56.5 695.5,-56.5"/>
<text text-anchor="middle" x="717" y="-63.5" font-family="Helvetica,sans-Serif" font-size="10.00">cstdio</text>
</g>
<!-- Node7&#45;&gt;Node9 -->
<g id="edge8" class="edge"><title>Node7&#45;&gt;Node9</title>
<path fill="none" stroke="midnightblue" d="M1256.94,-120.516C1160.77,-118.822 940.795,-111.265 748.811,-75.993"/>
<polygon fill="midnightblue" stroke="midnightblue" points="749.296,-72.5231 738.823,-74.128 748.011,-79.4042 749.296,-72.5231"/>
</g>
<!-- Node10 -->
<g id="node10" class="node"><title>Node10</title>
<polygon fill="none" stroke="#bfbfbf" points="756.5,-56.5 756.5,-75.5 801.5,-75.5 801.5,-56.5 756.5,-56.5"/>
<text text-anchor="middle" x="779" y="-63.5" font-family="Helvetica,sans-Serif" font-size="10.00">cstdlib</text>
</g>
<!-- Node7&#45;&gt;Node10 -->
<g id="edge9" class="edge"><title>Node7&#45;&gt;Node10</title>
<path fill="none" stroke="midnightblue" d="M1256.76,-119.513C1169.06,-116.217 980.018,-106.184 811.642,-75.7545"/>
<polygon fill="midnightblue" stroke="midnightblue" points="812.072,-72.2752 801.605,-73.9116 810.808,-79.1601 812.072,-72.2752"/>
</g>
<!-- Node11 -->
<g id="node11" class="node"><title>Node11</title>
<polygon fill="none" stroke="#bfbfbf" points="819.5,-56.5 819.5,-75.5 860.5,-75.5 860.5,-56.5 819.5,-56.5"/>
<text text-anchor="middle" x="840" y="-63.5" font-family="Helvetica,sans-Serif" font-size="10.00">ctime</text>
</g>
<!-- Node7&#45;&gt;Node11 -->
<g id="edge10" class="edge"><title>Node7&#45;&gt;Node11</title>
<path fill="none" stroke="midnightblue" d="M1256.84,-118.949C1177.44,-114.978 1016.07,-104.187 870.533,-75.7061"/>
<polygon fill="midnightblue" stroke="midnightblue" points="871.019,-72.2341 860.528,-73.7148 869.652,-79.0994 871.019,-72.2341"/>
</g>
<!-- Node12 -->
<g id="node12" class="node"><title>Node12</title>
<polygon fill="none" stroke="#bfbfbf" points="879,-56.5 879,-75.5 925,-75.5 925,-56.5 879,-56.5"/>
<text text-anchor="middle" x="902" y="-63.5" font-family="Helvetica,sans-Serif" font-size="10.00">cstring</text>
</g>
<!-- Node7&#45;&gt;Node12 -->
<g id="edge11" class="edge"><title>Node7&#45;&gt;Node12</title>
<path fill="none" stroke="midnightblue" d="M1256.73,-117.321C1187.21,-111.625 1056.27,-99.0477 935.153,-75.7337"/>
<polygon fill="midnightblue" stroke="midnightblue" points="935.822,-72.2983 925.336,-73.8159 934.48,-79.1684 935.822,-72.2983"/>
</g>
<!-- Node13 -->
<g id="node13" class="node"><title>Node13</title>
<polygon fill="none" stroke="#bfbfbf" points="943.5,-56.5 943.5,-75.5 992.5,-75.5 992.5,-56.5 943.5,-56.5"/>
<text text-anchor="middle" x="968" y="-63.5" font-family="Helvetica,sans-Serif" font-size="10.00">cstdarg</text>
</g>
<!-- Node7&#45;&gt;Node13 -->
<g id="edge12" class="edge"><title>Node7&#45;&gt;Node13</title>
<path fill="none" stroke="midnightblue" d="M1256.74,-115.427C1198.37,-108.443 1098.04,-95.2417 1002.62,-75.9215"/>
<polygon fill="midnightblue" stroke="midnightblue" points="1003.31,-72.4896 992.807,-73.9092 1001.9,-79.3469 1003.31,-72.4896"/>
</g>
<!-- Node14 -->
<g id="node14" class="node"><title>Node14</title>
<polygon fill="none" stroke="#bfbfbf" points="1011,-56.5 1011,-75.5 1055,-75.5 1055,-56.5 1011,-56.5"/>
<text text-anchor="middle" x="1033" y="-63.5" font-family="Helvetica,sans-Serif" font-size="10.00">cmath</text>
</g>
<!-- Node7&#45;&gt;Node14 -->
<g id="edge13" class="edge"><title>Node7&#45;&gt;Node14</title>
<path fill="none" stroke="midnightblue" d="M1256.57,-113.277C1209.66,-105.619 1137,-92.909 1065.38,-76.146"/>
<polygon fill="midnightblue" stroke="midnightblue" points="1065.82,-72.6537 1055.28,-73.7539 1064.2,-79.4651 1065.82,-72.6537"/>
</g>
<!-- Node15 -->
<g id="node15" class="node"><title>Node15</title>
<polygon fill="none" stroke="#bfbfbf" points="1073,-56.5 1073,-75.5 1117,-75.5 1117,-56.5 1073,-56.5"/>
<text text-anchor="middle" x="1095" y="-63.5" font-family="Helvetica,sans-Serif" font-size="10.00">vector</text>
</g>
<!-- Node7&#45;&gt;Node15 -->
<g id="edge14" class="edge"><title>Node7&#45;&gt;Node15</title>
<path fill="none" stroke="midnightblue" d="M1270.94,-112.492C1234.8,-103.65 1176.85,-89.2742 1127,-76 1126.9,-75.9731 1126.8,-75.9461 1126.7,-75.919"/>
<polygon fill="midnightblue" stroke="midnightblue" points="1127.58,-72.5324 1117.01,-73.2778 1125.74,-79.2857 1127.58,-72.5324"/>
</g>
<!-- Node16 -->
<g id="node16" class="node"><title>Node16</title>
<polygon fill="none" stroke="#bfbfbf" points="1135.5,-56.5 1135.5,-75.5 1170.5,-75.5 1170.5,-56.5 1135.5,-56.5"/>
<text text-anchor="middle" x="1153" y="-63.5" font-family="Helvetica,sans-Serif" font-size="10.00">map</text>
</g>
<!-- Node7&#45;&gt;Node16 -->
<g id="edge15" class="edge"><title>Node7&#45;&gt;Node16</title>
<path fill="none" stroke="midnightblue" d="M1281.76,-112.444C1254.17,-102.707 1209.22,-86.8408 1180.39,-76.6654"/>
<polygon fill="midnightblue" stroke="midnightblue" points="1181.51,-73.3508 1170.92,-73.323 1179.18,-79.9517 1181.51,-73.3508"/>
</g>
<!-- Node17 -->
<g id="node17" class="node"><title>Node17</title>
<polygon fill="none" stroke="#bfbfbf" points="1189,-56.5 1189,-75.5 1219,-75.5 1219,-56.5 1189,-56.5"/>
<text text-anchor="middle" x="1204" y="-63.5" font-family="Helvetica,sans-Serif" font-size="10.00">set</text>
</g>
<!-- Node7&#45;&gt;Node17 -->
<g id="edge17" class="edge"><title>Node7&#45;&gt;Node17</title>
<path fill="none" stroke="midnightblue" d="M1289.61,-112.324C1272.94,-103.499 1246.93,-89.7302 1227.96,-79.6827"/>
<polygon fill="midnightblue" stroke="midnightblue" points="1229.49,-76.5363 1219.02,-74.9507 1226.22,-82.7228 1229.49,-76.5363"/>
</g>
<!-- Node18 -->
<g id="node18" class="node"><title>Node18</title>
<polygon fill="none" stroke="#bfbfbf" points="1237.5,-56.5 1237.5,-75.5 1266.5,-75.5 1266.5,-56.5 1237.5,-56.5"/>
<text text-anchor="middle" x="1252" y="-63.5" font-family="Helvetica,sans-Serif" font-size="10.00">list</text>
</g>
<!-- Node7&#45;&gt;Node18 -->
<g id="edge18" class="edge"><title>Node7&#45;&gt;Node18</title>
<path fill="none" stroke="midnightblue" d="M1297.08,-112.083C1289.22,-104.22 1277.57,-92.5688 1268.08,-83.0813"/>
<polygon fill="midnightblue" stroke="midnightblue" points="1270.3,-80.3473 1260.75,-75.7511 1265.35,-85.2971 1270.3,-80.3473"/>
</g>
<!-- Node19 -->
<g id="node19" class="node"><title>Node19</title>
<polygon fill="none" stroke="#bfbfbf" points="1284.5,-56.5 1284.5,-75.5 1327.5,-75.5 1327.5,-56.5 1284.5,-56.5"/>
<text text-anchor="middle" x="1306" y="-63.5" font-family="Helvetica,sans-Serif" font-size="10.00">deque</text>
</g>
<!-- Node7&#45;&gt;Node19 -->
<g id="edge19" class="edge"><title>Node7&#45;&gt;Node19</title>
<path fill="none" stroke="midnightblue" d="M1306,-112.083C1306,-105.006 1306,-94.8611 1306,-85.9865"/>
<polygon fill="midnightblue" stroke="midnightblue" points="1309.5,-85.751 1306,-75.7511 1302.5,-85.7511 1309.5,-85.751"/>
</g>
<!-- Node20 -->
<g id="node20" class="node"><title>Node20</title>
<polygon fill="none" stroke="#bfbfbf" points="1345.5,-56.5 1345.5,-75.5 1388.5,-75.5 1388.5,-56.5 1345.5,-56.5"/>
<text text-anchor="middle" x="1367" y="-63.5" font-family="Helvetica,sans-Serif" font-size="10.00">queue</text>
</g>
<!-- Node7&#45;&gt;Node20 -->
<g id="edge20" class="edge"><title>Node7&#45;&gt;Node20</title>
<path fill="none" stroke="midnightblue" d="M1315.8,-112.324C1324.82,-104.341 1338.41,-92.3128 1349.32,-82.6529"/>
<polygon fill="midnightblue" stroke="midnightblue" points="1351.85,-85.083 1357.02,-75.8339 1347.21,-79.8416 1351.85,-85.083"/>
</g>
<!-- Node21 -->
<g id="node21" class="node"><title>Node21</title>
<polygon fill="none" stroke="#bfbfbf" points="1406.5,-56.5 1406.5,-75.5 1447.5,-75.5 1447.5,-56.5 1406.5,-56.5"/>
<text text-anchor="middle" x="1427" y="-63.5" font-family="Helvetica,sans-Serif" font-size="10.00">bitset</text>
</g>
<!-- Node7&#45;&gt;Node21 -->
<g id="edge21" class="edge"><title>Node7&#45;&gt;Node21</title>
<path fill="none" stroke="midnightblue" d="M1325.17,-112.444C1344.91,-103.636 1375.89,-89.8116 1398.49,-79.722"/>
<polygon fill="midnightblue" stroke="midnightblue" points="1400.21,-82.788 1407.92,-75.5164 1397.36,-76.3957 1400.21,-82.788"/>
</g>
<!-- Node22 -->
<g id="node22" class="node"><title>Node22</title>
<polygon fill="none" stroke="#bfbfbf" points="1466,-56.5 1466,-75.5 1522,-75.5 1522,-56.5 1466,-56.5"/>
<text text-anchor="middle" x="1494" y="-63.5" font-family="Helvetica,sans-Serif" font-size="10.00">algorithm</text>
</g>
<!-- Node7&#45;&gt;Node22 -->
<g id="edge22" class="edge"><title>Node7&#45;&gt;Node22</title>
<path fill="none" stroke="midnightblue" d="M1335.79,-112.444C1368.3,-103.105 1420.44,-88.1287 1455.91,-77.9421"/>
<polygon fill="midnightblue" stroke="midnightblue" points="1457.24,-81.2002 1465.89,-75.0755 1455.31,-74.4723 1457.24,-81.2002"/>
</g>
<!-- Node23 -->
<g id="node23" class="node"><title>Node23</title>
<polygon fill="none" stroke="#bfbfbf" points="1540.5,-56.5 1540.5,-75.5 1599.5,-75.5 1599.5,-56.5 1540.5,-56.5"/>
<text text-anchor="middle" x="1570" y="-63.5" font-family="Helvetica,sans-Serif" font-size="10.00">functional</text>
</g>
<!-- Node7&#45;&gt;Node23 -->
<g id="edge23" class="edge"><title>Node7&#45;&gt;Node23</title>
<path fill="none" stroke="midnightblue" d="M1350.9,-112.422C1394.25,-104.053 1461.97,-90.739 1530.15,-76.1335"/>
<polygon fill="midnightblue" stroke="midnightblue" points="1531.17,-79.4943 1540.21,-73.9696 1529.7,-72.6508 1531.17,-79.4943"/>
</g>
<!-- Node24 -->
<g id="node24" class="node"><title>Node24</title>
<polygon fill="none" stroke="#bfbfbf" points="1618,-56.5 1618,-75.5 1658,-75.5 1658,-56.5 1618,-56.5"/>
<text text-anchor="middle" x="1638" y="-63.5" font-family="Helvetica,sans-Serif" font-size="10.00">limits</text>
</g>
<!-- Node7&#45;&gt;Node24 -->
<g id="edge24" class="edge"><title>Node7&#45;&gt;Node24</title>
<path fill="none" stroke="midnightblue" d="M1355.24,-116.04C1413.48,-109.651 1513.47,-97.0565 1607.83,-75.9659"/>
<polygon fill="midnightblue" stroke="midnightblue" points="1608.85,-79.3236 1617.83,-73.6948 1607.3,-72.4976 1608.85,-79.3236"/>
</g>
<!-- Node25 -->
<g id="node25" class="node"><title>Node25</title>
<polygon fill="none" stroke="#bfbfbf" points="1676,-56.5 1676,-75.5 1726,-75.5 1726,-56.5 1676,-56.5"/>
<text text-anchor="middle" x="1701" y="-63.5" font-family="Helvetica,sans-Serif" font-size="10.00">fstream</text>
</g>
<!-- Node7&#45;&gt;Node25 -->
<g id="edge25" class="edge"><title>Node7&#45;&gt;Node25</title>
<path fill="none" stroke="midnightblue" d="M1355.09,-116.995C1422.87,-111 1549.07,-98.1694 1665.67,-76.0253"/>
<polygon fill="midnightblue" stroke="midnightblue" points="1666.68,-79.3947 1675.84,-74.0652 1665.35,-72.5212 1666.68,-79.3947"/>
</g>
<!-- Node26 -->
<g id="node26" class="node"><title>Node26</title>
<polygon fill="none" stroke="#bfbfbf" points="1744.5,-56.5 1744.5,-75.5 1789.5,-75.5 1789.5,-56.5 1744.5,-56.5"/>
<text text-anchor="middle" x="1767" y="-63.5" font-family="Helvetica,sans-Serif" font-size="10.00">iosfwd</text>
</g>
<!-- Node7&#45;&gt;Node26 -->
<g id="edge26" class="edge"><title>Node7&#45;&gt;Node26</title>
<path fill="none" stroke="midnightblue" d="M1355.29,-118.553C1433.69,-114.067 1591.63,-102.606 1734.56,-75.7478"/>
<polygon fill="midnightblue" stroke="midnightblue" points="1735.22,-79.185 1744.39,-73.872 1733.91,-72.3091 1735.22,-79.185"/>
</g>
<!-- Node27 -->
<g id="node27" class="node"><title>Node27</title>
<polygon fill="none" stroke="#bfbfbf" points="1808,-56.5 1808,-75.5 1860,-75.5 1860,-56.5 1808,-56.5"/>
<text text-anchor="middle" x="1834" y="-63.5" font-family="Helvetica,sans-Serif" font-size="10.00">sstream</text>
</g>
<!-- Node7&#45;&gt;Node27 -->
<g id="edge27" class="edge"><title>Node7&#45;&gt;Node27</title>
<path fill="none" stroke="midnightblue" d="M1355.32,-119.122C1442.73,-115.223 1630.57,-104.284 1797.76,-75.9531"/>
<polygon fill="midnightblue" stroke="midnightblue" points="1798.46,-79.3835 1807.72,-74.2392 1797.28,-72.4848 1798.46,-79.3835"/>
</g>
<!-- Node28 -->
<g id="node28" class="node"><title>Node28</title>
<polygon fill="none" stroke="#bfbfbf" points="1878,-56.5 1878,-75.5 1946,-75.5 1946,-56.5 1878,-56.5"/>
<text text-anchor="middle" x="1912" y="-63.5" font-family="Helvetica,sans-Serif" font-size="10.00">sys/types.h</text>
</g>
<!-- Node7&#45;&gt;Node28 -->
<g id="edge28" class="edge"><title>Node7&#45;&gt;Node28</title>
<path fill="none" stroke="midnightblue" d="M1355.18,-119.164C1451.64,-115.109 1672.51,-103.59 1867.65,-76.0179"/>
<polygon fill="midnightblue" stroke="midnightblue" points="1868.4,-79.4462 1877.8,-74.5651 1867.41,-72.5168 1868.4,-79.4462"/>
</g>
<!-- Node29 -->
<g id="node29" class="node"><title>Node29</title>
<polygon fill="none" stroke="#bfbfbf" points="1964,-56.5 1964,-75.5 2024,-75.5 2024,-56.5 1964,-56.5"/>
<text text-anchor="middle" x="1994" y="-63.5" font-family="Helvetica,sans-Serif" font-size="10.00">sys/stat.h</text>
</g>
<!-- Node7&#45;&gt;Node29 -->
<g id="edge29" class="edge"><title>Node7&#45;&gt;Node29</title>
<path fill="none" stroke="midnightblue" d="M1355.13,-120.23C1462.25,-117.985 1724.86,-109.402 1953.67,-75.9586"/>
<polygon fill="midnightblue" stroke="midnightblue" points="1954.48,-79.3779 1963.86,-74.4505 1953.45,-72.4535 1954.48,-79.3779"/>
</g>
<!-- Node30 -->
<g id="node30" class="node"><title>Node30</title>
<polygon fill="none" stroke="#bfbfbf" points="2042.5,-56.5 2042.5,-75.5 2093.5,-75.5 2093.5,-56.5 2042.5,-56.5"/>
<text text-anchor="middle" x="2068" y="-63.5" font-family="Helvetica,sans-Serif" font-size="10.00">unistd.h</text>
</g>
<!-- Node7&#45;&gt;Node30 -->
<g id="edge30" class="edge"><title>Node7&#45;&gt;Node30</title>
<path fill="none" stroke="midnightblue" d="M1355.28,-121.162C1471.66,-120.858 1772.61,-116.052 2032.13,-75.8084"/>
<polygon fill="midnightblue" stroke="midnightblue" points="2032.79,-79.2485 2042.12,-74.2383 2031.7,-72.3334 2032.79,-79.2485"/>
</g>
<!-- Node31 -->
<g id="node31" class="node"><title>Node31</title>
<polygon fill="none" stroke="#bfbfbf" points="2112,-56.5 2112,-75.5 2158,-75.5 2158,-56.5 2112,-56.5"/>
<text text-anchor="middle" x="2135" y="-63.5" font-family="Helvetica,sans-Serif" font-size="10.00">dlfcn.h</text>
</g>
<!-- Node7&#45;&gt;Node31 -->
<g id="edge31" class="edge"><title>Node7&#45;&gt;Node31</title>
<path fill="none" stroke="midnightblue" d="M1355.16,-119.627C1502.32,-115.3 1938.63,-100.839 2101.39,-75.8435"/>
<polygon fill="midnightblue" stroke="midnightblue" points="2102.4,-79.2272 2111.71,-74.1819 2101.28,-72.3162 2102.4,-79.2272"/>
</g>
<!-- Node32 -->
<g id="node32" class="node"><title>Node32</title>
<polygon fill="none" stroke="#bfbfbf" points="2176,-56.5 2176,-75.5 2254,-75.5 2254,-56.5 2176,-56.5"/>
<text text-anchor="middle" x="2215" y="-63.5" font-family="Helvetica,sans-Serif" font-size="10.00">ext/hash_map</text>
</g>
<!-- Node7&#45;&gt;Node32 -->
<g id="edge32" class="edge"><title>Node7&#45;&gt;Node32</title>
<path fill="none" stroke="midnightblue" d="M1355.22,-120.716C1485.76,-119.475 1851.73,-112.818 2165.57,-76.0052"/>
<polygon fill="midnightblue" stroke="midnightblue" points="2166.25,-79.4484 2175.77,-74.7952 2165.43,-72.4971 2166.25,-79.4484"/>
</g>
<!-- Node33 -->
<g id="node33" class="node"><title>Node33</title>
<polygon fill="none" stroke="#bfbfbf" points="2272.5,-56.5 2272.5,-75.5 2345.5,-75.5 2345.5,-56.5 2272.5,-56.5"/>
<text text-anchor="middle" x="2309" y="-63.5" font-family="Helvetica,sans-Serif" font-size="10.00">ext/hash_set</text>
</g>
<!-- Node7&#45;&gt;Node33 -->
<g id="edge33" class="edge"><title>Node7&#45;&gt;Node33</title>
<path fill="none" stroke="midnightblue" d="M1355.01,-121.218C1495.06,-121.303 1909.06,-117.817 2262.25,-75.8781"/>
<polygon fill="midnightblue" stroke="midnightblue" points="2262.91,-79.3245 2272.42,-74.658 2262.07,-72.3744 2262.91,-79.3245"/>
</g>
<!-- Node34 -->
<g id="node34" class="node"><title>Node34</title>
<polygon fill="none" stroke="#bfbfbf" points="213.5,-56.5 213.5,-75.5 284.5,-75.5 284.5,-56.5 213.5,-56.5"/>
<text text-anchor="middle" x="249" y="-63.5" font-family="Helvetica,sans-Serif" font-size="10.00">sys/param.h</text>
</g>
<!-- Node7&#45;&gt;Node34 -->
<g id="edge34" class="edge"><title>Node7&#45;&gt;Node34</title>
<path fill="none" stroke="midnightblue" d="M1256.81,-121.47C1111.22,-122.295 669.787,-120.735 294.742,-75.8731"/>
<polygon fill="midnightblue" stroke="midnightblue" points="295.129,-72.3945 284.782,-74.6695 294.289,-79.344 295.129,-72.3945"/>
</g>
<!-- Node35 -->
<g id="node35" class="node"><title>Node35</title>
<polygon fill="none" stroke="#bfbfbf" points="303,-56.5 303,-75.5 469,-75.5 469,-56.5 303,-56.5"/>
<text text-anchor="middle" x="386" y="-63.5" font-family="Helvetica,sans-Serif" font-size="10.00">CoreFoundation/CoreFoundation.h</text>
</g>
<!-- Node7&#45;&gt;Node35 -->
<g id="edge35" class="edge"><title>Node7&#45;&gt;Node35</title>
<path fill="none" stroke="midnightblue" d="M1256.96,-119.075C1130.23,-113.944 781.304,-98.8068 479.496,-76.082"/>
<polygon fill="midnightblue" stroke="midnightblue" points="479.466,-72.5699 469.231,-75.3048 478.938,-79.5499 479.466,-72.5699"/>
</g>
<!-- Node36 -->
<g id="node36" class="node"><title>Node36</title>
<polygon fill="none" stroke="#bfbfbf" points="487,-56.5 487,-75.5 611,-75.5 611,-56.5 487,-56.5"/>
<text text-anchor="middle" x="549" y="-63.5" font-family="Helvetica,sans-Serif" font-size="10.00">emscripten/emscripten.h</text>
</g>
<!-- Node7&#45;&gt;Node36 -->
<g id="edge36" class="edge"><title>Node7&#45;&gt;Node36</title>
<path fill="none" stroke="midnightblue" d="M1256.77,-118.832C1145.38,-113.701 865.329,-99.5185 621.315,-76.1765"/>
<polygon fill="midnightblue" stroke="midnightblue" points="621.479,-72.6762 611.19,-75.2006 620.808,-79.6439 621.479,-72.6762"/>
</g>
<!-- Node38 -->
<g id="node38" class="node"><title>Node38</title>
<g id="a_node38"><a xlink:href="_ogre_memory_allocated_object_8h.html" target="_top" xlink:title="OgreMemoryAllocatedObject.h">
<polygon fill="none" stroke="black" points="2532,-56.5 2532,-75.5 2682,-75.5 2682,-56.5 2532,-56.5"/>
<text text-anchor="middle" x="2607" y="-63.5" font-family="Helvetica,sans-Serif" font-size="10.00">OgreMemoryAllocatedObject.h</text>
</a>
</g>
</g>
<!-- Node37&#45;&gt;Node38 -->
<g id="edge38" class="edge"><title>Node37&#45;&gt;Node38</title>
<path fill="none" stroke="midnightblue" d="M2649.58,-112.083C2642.15,-104.22 2631.15,-92.5688 2622.19,-83.0813"/>
<polygon fill="midnightblue" stroke="midnightblue" points="2624.68,-80.618 2615.26,-75.7511 2619.59,-85.4244 2624.68,-80.618"/>
</g>
<!-- Node37&#45;&gt;Node39 -->
<g id="edge42" class="edge"><title>Node37&#45;&gt;Node39</title>
<path fill="none" stroke="midnightblue" d="M2583.74,-113.276C2560.49,-106.953 2537.23,-95.7413 2523,-76 2511.93,-60.6463 2524.93,-40.8858 2537.53,-27.2031"/>
<polygon fill="midnightblue" stroke="midnightblue" points="2540.18,-29.5026 2544.71,-19.9285 2535.2,-24.5835 2540.18,-29.5026"/>
</g>
<!-- Node37&#45;&gt;Node40 -->
<g id="edge50" class="edge"><title>Node37&#45;&gt;Node40</title>
<path fill="none" stroke="midnightblue" d="M2732.23,-118.769C2851.73,-114.404 3075.86,-102.722 3100,-76 3111.8,-62.9356 3103.78,-42.6809 3095.2,-28.2563"/>
<polygon fill="midnightblue" stroke="midnightblue" points="3098.07,-26.2413 3089.69,-19.7533 3092.19,-30.0485 3098.07,-26.2413"/>
</g>
<!-- Node41 -->
<g id="node41" class="node"><title>Node41</title>
<g id="a_node41"><a xlink:href="_ogre_memory_s_t_l_allocator_8h.html" target="_top" xlink:title="OgreMemorySTLAllocator.h">
<polygon fill="none" stroke="black" points="2849.5,-56.5 2849.5,-75.5 2986.5,-75.5 2986.5,-56.5 2849.5,-56.5"/>
<text text-anchor="middle" x="2918" y="-63.5" font-family="Helvetica,sans-Serif" font-size="10.00">OgreMemorySTLAllocator.h</text>
</a>
</g>
</g>
<!-- Node37&#45;&gt;Node41 -->
<g id="edge43" class="edge"><title>Node37&#45;&gt;Node41</title>
<path fill="none" stroke="midnightblue" d="M2699.2,-112.444C2744.65,-103.004 2817.84,-87.802 2866.91,-77.6111"/>
<polygon fill="midnightblue" stroke="midnightblue" points="2867.92,-80.9769 2876.99,-75.5164 2866.49,-74.1232 2867.92,-80.9769"/>
</g>
<!-- Node42 -->
<g id="node42" class="node"><title>Node42</title>
<g id="a_node42"><a xlink:href="_ogre_memory_ned_pooling_8h.html" target="_top" xlink:title="OgreMemoryNedPooling.h">
<polygon fill="none" stroke="black" points="2700.5,-56.5 2700.5,-75.5 2831.5,-75.5 2831.5,-56.5 2700.5,-56.5"/>
<text text-anchor="middle" x="2766" y="-63.5" font-family="Helvetica,sans-Serif" font-size="10.00">OgreMemoryNedPooling.h</text>
</a>
</g>
</g>
<!-- Node37&#45;&gt;Node42 -->
<g id="edge47" class="edge"><title>Node37&#45;&gt;Node42</title>
<path fill="none" stroke="midnightblue" d="M2675.35,-112.324C2692.67,-103.664 2719.52,-90.2424 2739.5,-80.249"/>
<polygon fill="midnightblue" stroke="midnightblue" points="2741.31,-83.2572 2748.69,-75.6545 2738.18,-76.9962 2741.31,-83.2572"/>
</g>
<!-- Node38&#45;&gt;Node3 -->
<g id="edge39" class="edge"><title>Node38&#45;&gt;Node3</title>
<path fill="none" stroke="midnightblue" d="M2589.74,-75.5914C2551.25,-94.7509 2458.17,-141.078 2412.36,-163.878"/>
<polygon fill="midnightblue" stroke="midnightblue" points="2410.73,-160.779 2403.34,-168.368 2413.85,-167.046 2410.73,-160.779"/>
</g>
<!-- Node38&#45;&gt;Node39 -->
<g id="edge40" class="edge"><title>Node38&#45;&gt;Node39</title>
<path fill="none" stroke="midnightblue" d="M2598.41,-56.083C2590.84,-48.2195 2579.62,-36.5688 2570.49,-27.0813"/>
<polygon fill="midnightblue" stroke="midnightblue" points="2572.88,-24.5266 2563.43,-19.7511 2567.84,-29.3821 2572.88,-24.5266"/>
</g>
<!-- Node38&#45;&gt;Node40 -->
<g id="edge41" class="edge"><title>Node38&#45;&gt;Node40</title>
<path fill="none" stroke="midnightblue" d="M2682.16,-56.4733C2775.91,-45.8384 2934.41,-27.8574 3021.36,-17.9932"/>
<polygon fill="midnightblue" stroke="midnightblue" points="3021.8,-21.4656 3031.34,-16.8606 3021.01,-14.5102 3021.8,-21.4656"/>
</g>
<!-- Node41&#45;&gt;Node3 -->
<g id="edge44" class="edge"><title>Node41&#45;&gt;Node3</title>
<path fill="none" stroke="midnightblue" d="M2899.06,-75.5751C2867.15,-89.6542 2800.32,-117.546 2741,-132 2639.89,-156.637 2519.1,-168.3 2447.68,-173.418"/>
<polygon fill="midnightblue" stroke="midnightblue" points="2447.24,-169.94 2437.51,-174.127 2447.73,-176.923 2447.24,-169.94"/>
</g>
<!-- Node41&#45;&gt;Node39 -->
<g id="edge45" class="edge"><title>Node41&#45;&gt;Node39</title>
<path fill="none" stroke="midnightblue" d="M2860.48,-56.4435C2794.02,-46.5572 2685.08,-30.3512 2616.84,-20.1999"/>
<polygon fill="midnightblue" stroke="midnightblue" points="2617.07,-16.6957 2606.67,-18.6861 2616.04,-23.6195 2617.07,-16.6957"/>
</g>
<!-- Node41&#45;&gt;Node40 -->
<g id="edge46" class="edge"><title>Node41&#45;&gt;Node40</title>
<path fill="none" stroke="midnightblue" d="M2944.14,-56.4435C2972.02,-47.3196 3016.35,-32.8133 3047.4,-22.6509"/>
<polygon fill="midnightblue" stroke="midnightblue" points="3048.56,-25.9533 3056.98,-19.5164 3046.38,-19.3005 3048.56,-25.9533"/>
</g>
<!-- Node42&#45;&gt;Node39 -->
<g id="edge48" class="edge"><title>Node42&#45;&gt;Node39</title>
<path fill="none" stroke="midnightblue" d="M2732.57,-56.4435C2696.14,-47.1221 2637.77,-32.1828 2597.97,-21.9972"/>
<polygon fill="midnightblue" stroke="midnightblue" points="2598.83,-18.6051 2588.28,-19.5164 2597.1,-25.3866 2598.83,-18.6051"/>
</g>
<!-- Node42&#45;&gt;Node40 -->
<g id="edge49" class="edge"><title>Node42&#45;&gt;Node40</title>
<path fill="none" stroke="midnightblue" d="M2816.23,-56.4435C2872.34,-46.8851 2963.13,-31.4195 3022.95,-21.2298"/>
<polygon fill="midnightblue" stroke="midnightblue" points="3023.74,-24.6461 3033.01,-19.5164 3022.56,-17.7455 3023.74,-24.6461"/>
</g>
<!-- Node43&#45;&gt;Node3 -->
<g id="edge52" class="edge"><title>Node43&#45;&gt;Node3</title>
<path fill="none" stroke="midnightblue" d="M2330.71,-280.368C2340.52,-262.376 2363.34,-220.55 2376.39,-196.627"/>
<polygon fill="midnightblue" stroke="midnightblue" points="2379.6,-198.046 2381.31,-187.591 2373.45,-194.694 2379.6,-198.046"/>
</g>
<!-- Node43&#45;&gt;Node39 -->
<g id="edge58" class="edge"><title>Node43&#45;&gt;Node39</title>
<path fill="none" stroke="midnightblue" d="M2294.15,-288.142C2014.14,-280.322 -13.9611,-217.957 145,-56 187.382,-12.8192 2121.12,-10.9328 2493.37,-10.9702"/>
<polygon fill="midnightblue" stroke="midnightblue" points="2493.41,-14.4701 2503.41,-10.9717 2493.41,-7.47007 2493.41,-14.4701"/>
</g>
<!-- Node43&#45;&gt;Node40 -->
<g id="edge59" class="edge"><title>Node43&#45;&gt;Node40</title>
<path fill="none" stroke="midnightblue" d="M2357.66,-284.621C2481.93,-267.073 2935.74,-199.529 3063,-132 3097.89,-113.487 3115.02,-111.657 3132,-76 3141.06,-56.9866 3122.96,-38.0831 3106.26,-25.6046"/>
<polygon fill="midnightblue" stroke="midnightblue" points="3108.01,-22.5551 3097.81,-19.6982 3104,-28.2939 3108.01,-22.5551"/>
</g>
<!-- Node44 -->
<g id="node44" class="node"><title>Node44</title>
<g id="a_node44"><a xlink:href="_ogre_exception_8h.html" target="_top" xlink:title="OgreException.h">
<polygon fill="none" stroke="red" points="2452.5,-224.5 2452.5,-243.5 2541.5,-243.5 2541.5,-224.5 2452.5,-224.5"/>
<text text-anchor="middle" x="2497" y="-231.5" font-family="Helvetica,sans-Serif" font-size="10.00">OgreException.h</text>
</a>
</g>
</g>
<!-- Node43&#45;&gt;Node44 -->
<g id="edge53" class="edge"><title>Node43&#45;&gt;Node44</title>
<path fill="none" stroke="midnightblue" d="M2353.1,-280.444C2381.99,-271.32 2427.92,-256.813 2460.11,-246.651"/>
<polygon fill="midnightblue" stroke="midnightblue" points="2461.55,-249.865 2470.03,-243.516 2459.44,-243.19 2461.55,-249.865"/>
</g>
<!-- Node45 -->
<g id="node45" class="node"><title>Node45</title>
<polygon fill="none" stroke="#bfbfbf" points="2268.5,-224.5 2268.5,-243.5 2319.5,-243.5 2319.5,-224.5 2268.5,-224.5"/>
<text text-anchor="middle" x="2294" y="-231.5" font-family="Helvetica,sans-Serif" font-size="10.00">typeinfo</text>
</g>
<!-- Node43&#45;&gt;Node45 -->
<g id="edge57" class="edge"><title>Node43&#45;&gt;Node45</title>
<path fill="none" stroke="midnightblue" d="M2320.72,-280.083C2316.29,-272.613 2309.84,-261.724 2304.38,-252.52"/>
<polygon fill="midnightblue" stroke="midnightblue" points="2307.29,-250.57 2299.19,-243.751 2301.27,-254.138 2307.29,-250.57"/>
</g>
<!-- Node44&#45;&gt;Node3 -->
<g id="edge54" class="edge"><title>Node44&#45;&gt;Node3</title>
<path fill="none" stroke="midnightblue" d="M2479.17,-224.324C2461.28,-215.625 2433.52,-202.12 2412.95,-192.113"/>
<polygon fill="midnightblue" stroke="midnightblue" points="2414.31,-188.882 2403.79,-187.655 2411.25,-195.177 2414.31,-188.882"/>
</g>
<!-- Node44&#45;&gt;Node39 -->
<g id="edge55" class="edge"><title>Node44&#45;&gt;Node39</title>
<path fill="none" stroke="midnightblue" d="M2495.98,-224.413C2493.22,-197.951 2487.47,-115.829 2514,-56 2519,-44.7244 2527.96,-34.3774 2536.23,-26.4556"/>
<polygon fill="midnightblue" stroke="midnightblue" points="2538.7,-28.9406 2543.8,-19.6525 2534.03,-23.7346 2538.7,-28.9406"/>
</g>
<!-- Node44&#45;&gt;Node40 -->
<g id="edge56" class="edge"><title>Node44&#45;&gt;Node40</title>
<path fill="none" stroke="midnightblue" d="M2541.92,-228.612C2672.01,-214.889 3044.35,-168.097 3116,-76 3127.82,-60.8032 3113.94,-40.7119 3100.73,-26.911"/>
<polygon fill="midnightblue" stroke="midnightblue" points="3102.83,-24.0715 3093.22,-19.5967 3097.94,-29.0836 3102.83,-24.0715"/>
</g>
<!-- Node46&#45;&gt;Node3 -->
<g id="edge61" class="edge"><title>Node46&#45;&gt;Node3</title>
<path fill="none" stroke="midnightblue" d="M2398.3,-336.075C2396.25,-309.945 2390.25,-233.211 2387.45,-197.577"/>
<polygon fill="midnightblue" stroke="midnightblue" points="2390.94,-197.264 2386.67,-187.568 2383.96,-197.811 2390.94,-197.264"/>
</g>
<!-- Node47 -->
<g id="node47" class="node"><title>Node47</title>
<g id="a_node47"><a xlink:href="_ogre_atomic_scalar_8h.html" target="_top" xlink:title="OgreAtomicScalar.h">
<polygon fill="none" stroke="red" points="2429,-280.5 2429,-299.5 2533,-299.5 2533,-280.5 2429,-280.5"/>
<text text-anchor="middle" x="2481" y="-287.5" font-family="Helvetica,sans-Serif" font-size="10.00">OgreAtomicScalar.h</text>
</a>
</g>
</g>
<!-- Node46&#45;&gt;Node47 -->
<g id="edge62" class="edge"><title>Node46&#45;&gt;Node47</title>
<path fill="none" stroke="midnightblue" d="M2412.17,-336.324C2424.85,-327.979 2444.23,-315.212 2459.21,-305.352"/>
<polygon fill="midnightblue" stroke="midnightblue" points="2461.43,-308.078 2467.86,-299.655 2457.58,-302.231 2461.43,-308.078"/>
</g>
<!-- Node47&#45;&gt;Node3 -->
<g id="edge63" class="edge"><title>Node47&#45;&gt;Node3</title>
<path fill="none" stroke="midnightblue" d="M2473.55,-280.368C2457.73,-262.055 2420.59,-219.049 2400.13,-195.362"/>
<polygon fill="midnightblue" stroke="midnightblue" points="2402.6,-192.872 2393.42,-187.591 2397.31,-197.447 2402.6,-192.872"/>
</g>
<!-- Node47&#45;&gt;Node44 -->
<g id="edge64" class="edge"><title>Node47&#45;&gt;Node44</title>
<path fill="none" stroke="midnightblue" d="M2483.64,-280.083C2485.79,-272.849 2488.88,-262.409 2491.55,-253.397"/>
<polygon fill="midnightblue" stroke="midnightblue" points="2494.92,-254.333 2494.41,-243.751 2488.21,-252.345 2494.92,-254.333"/>
</g>
<!-- Node47&#45;&gt;Node48 -->
<g id="edge65" class="edge"><title>Node47&#45;&gt;Node48</title>
<path fill="none" stroke="midnightblue" d="M2533.37,-283.674C2623.95,-274.463 2810.86,-255.455 2922.42,-244.11"/>
<polygon fill="midnightblue" stroke="midnightblue" points="2923.05,-247.564 2932.64,-243.07 2922.34,-240.6 2923.05,-247.564"/>
</g>
<!-- Node49&#45;&gt;Node39 -->
<g id="edge67" class="edge"><title>Node49&#45;&gt;Node39</title>
<path fill="none" stroke="midnightblue" d="M3004.91,-57.3033C3001.9,-56.839 2998.9,-56.3991 2996,-56 2861.19,-37.4788 2702.23,-23.0755 2616.79,-15.9369"/>
<polygon fill="midnightblue" stroke="midnightblue" points="2616.99,-12.4421 2606.74,-15.1026 2616.41,-19.4181 2616.99,-12.4421"/>
</g>
<!-- Node49&#45;&gt;Node40 -->
<g id="edge68" class="edge"><title>Node49&#45;&gt;Node40</title>
<path fill="none" stroke="midnightblue" d="M3053.78,-56.083C3058.67,-48.5341 3065.83,-37.4948 3071.83,-28.2298"/>
<polygon fill="midnightblue" stroke="midnightblue" points="3074.83,-30.0463 3077.33,-19.7511 3068.95,-26.239 3074.83,-30.0463"/>
</g>
<!-- Node50&#45;&gt;Node3 -->
<g id="edge73" class="edge"><title>Node50&#45;&gt;Node3</title>
<path fill="none" stroke="midnightblue" d="M73.1089,-336.391C87.5713,-312.972 131.44,-248.248 188,-224 288.713,-180.823 1977.95,-178.899 2324.26,-178.96"/>
<polygon fill="midnightblue" stroke="midnightblue" points="2324.35,-182.46 2334.35,-178.962 2324.35,-175.46 2324.35,-182.46"/>
</g>
</g>
</svg>
