<?xml version="1.0" encoding="UTF-8" standalone="no"?>
<!DOCTYPE svg PUBLIC "-//W3C//DTD SVG 1.1//EN"
 "http://www.w3.org/Graphics/SVG/1.1/DTD/svg11.dtd">
<!-- Generated by graphviz version 2.38.0 (20140413.2041)
 -->
<!-- Title: Ogre::GLESRTTManager Pages: 1 -->
<svg width="476pt" height="140pt"
 viewBox="0.00 0.00 475.50 140.00" xmlns="http://www.w3.org/2000/svg" xmlns:xlink="http://www.w3.org/1999/xlink">
<g id="graph0" class="graph" transform="scale(1 1) rotate(0) translate(4 136)">
<title>Ogre::GLESRTTManager</title>
<!-- Node1 -->
<g id="node1" class="node"><title>Node1</title>
<polygon fill="#bfbfbf" stroke="black" points="182,-56.5 182,-75.5 309,-75.5 309,-56.5 182,-56.5"/>
<text text-anchor="middle" x="245.5" y="-63.5" font-family="Helvetica,sans-Serif" font-size="10.00">Ogre::GLESRTTManager</text>
</g>
<!-- Node3 -->
<g id="node3" class="node"><title>Node3</title>
<g id="a_node3"><a xlink:href="class_ogre_1_1_g_l_e_s_copying_r_t_t_manager.html" target="_top" xlink:title="Simple, copying manager/factory for RenderTextures. ">
<polygon fill="none" stroke="black" points="0,-0.5 0,-19.5 163,-19.5 163,-0.5 0,-0.5"/>
<text text-anchor="middle" x="81.5" y="-7.5" font-family="Helvetica,sans-Serif" font-size="10.00">Ogre::GLESCopyingRTTManager</text>
</a>
</g>
</g>
<!-- Node1&#45;&gt;Node3 -->
<g id="edge2" class="edge"><title>Node1&#45;&gt;Node3</title>
<path fill="none" stroke="midnightblue" d="M209.98,-53.3044C179.078,-43.1294 135.027,-28.6246 107.365,-19.5164"/>
<polygon fill="midnightblue" stroke="midnightblue" points="208.921,-56.6404 219.514,-56.4435 211.11,-49.9915 208.921,-56.6404"/>
</g>
<!-- Node4 -->
<g id="node4" class="node"><title>Node4</title>
<g id="a_node4"><a xlink:href="class_ogre_1_1_g_l_e_s_f_b_o_manager.html" target="_top" xlink:title="Factory for GL Frame Buffer Objects, and related things. ">
<polygon fill="none" stroke="black" points="181.5,-0.5 181.5,-19.5 309.5,-19.5 309.5,-0.5 181.5,-0.5"/>
<text text-anchor="middle" x="245.5" y="-7.5" font-family="Helvetica,sans-Serif" font-size="10.00">Ogre::GLESFBOManager</text>
</a>
</g>
</g>
<!-- Node1&#45;&gt;Node4 -->
<g id="edge3" class="edge"><title>Node1&#45;&gt;Node4</title>
<path fill="none" stroke="midnightblue" d="M245.5,-45.8045C245.5,-36.9102 245.5,-26.7798 245.5,-19.7511"/>
<polygon fill="midnightblue" stroke="midnightblue" points="242,-46.083 245.5,-56.083 249,-46.083 242,-46.083"/>
</g>
<!-- Node5 -->
<g id="node5" class="node"><title>Node5</title>
<g id="a_node5"><a xlink:href="class_ogre_1_1_g_l_e_s_p_b_r_t_t_manager.html" target="_top" xlink:title="Manager for rendertextures and PBuffers (offscreen rendering contexts) ">
<polygon fill="none" stroke="black" points="327.5,-0.5 327.5,-19.5 467.5,-19.5 467.5,-0.5 327.5,-0.5"/>
<text text-anchor="middle" x="397.5" y="-7.5" font-family="Helvetica,sans-Serif" font-size="10.00">Ogre::GLESPBRTTManager</text>
</a>
</g>
</g>
<!-- Node1&#45;&gt;Node5 -->
<g id="edge4" class="edge"><title>Node1&#45;&gt;Node5</title>
<path fill="none" stroke="midnightblue" d="M279.168,-53.0392C307.768,-42.8786 348.112,-28.5457 373.528,-19.5164"/>
<polygon fill="midnightblue" stroke="midnightblue" points="277.836,-49.7978 269.585,-56.4435 280.18,-56.3939 277.836,-49.7978"/>
</g>
<!-- Node2 -->
<g id="node2" class="node"><title>Node2</title>
<g id="a_node2"><a xlink:href="class_ogre_1_1_singleton.html" target="_top" xlink:title="Ogre::Singleton\&lt; GLESRTTManager \&gt;">
<polygon fill="none" stroke="black" points="153,-112.5 153,-131.5 338,-131.5 338,-112.5 153,-112.5"/>
<text text-anchor="middle" x="245.5" y="-119.5" font-family="Helvetica,sans-Serif" font-size="10.00">Ogre::Singleton&lt; GLESRTTManager &gt;</text>
</a>
</g>
</g>
<!-- Node2&#45;&gt;Node1 -->
<g id="edge1" class="edge"><title>Node2&#45;&gt;Node1</title>
<path fill="none" stroke="midnightblue" d="M245.5,-101.805C245.5,-92.9102 245.5,-82.7798 245.5,-75.7511"/>
<polygon fill="midnightblue" stroke="midnightblue" points="242,-102.083 245.5,-112.083 249,-102.083 242,-102.083"/>
</g>
</g>
</svg>
