<?xml version="1.0" encoding="UTF-8" standalone="no"?>
<!DOCTYPE svg PUBLIC "-//W3C//DTD SVG 1.1//EN"
 "http://www.w3.org/Graphics/SVG/1.1/DTD/svg11.dtd">
<!-- Generated by graphviz version 2.38.0 (20140413.2041)
 -->
<!-- Title: Ogre::GLESSupport Pages: 1 -->
<svg width="434pt" height="142pt"
 viewBox="0.00 0.00 434.00 142.00" xmlns="http://www.w3.org/2000/svg" xmlns:xlink="http://www.w3.org/1999/xlink">
<g id="graph0" class="graph" transform="scale(1 1) rotate(0) translate(4 138)">
<title>Ogre::GLESSupport</title>
<!-- Node1 -->
<g id="node1" class="node"><title>Node1</title>
<polygon fill="#bfbfbf" stroke="black" points="0,-57.5 0,-76.5 104,-76.5 104,-57.5 0,-57.5"/>
<text text-anchor="middle" x="52" y="-64.5" font-family="Helvetica,sans-Serif" font-size="10.00">Ogre::GLESSupport</text>
</g>
<!-- Node2 -->
<g id="node2" class="node"><title>Node2</title>
<g id="a_node2"><a xlink:href="class_ogre_1_1_e_a_g_l_support.html" target="_top" xlink:title="Ogre::EAGLSupport">
<polygon fill="none" stroke="black" points="140,-76.5 140,-95.5 244,-95.5 244,-76.5 140,-76.5"/>
<text text-anchor="middle" x="192" y="-83.5" font-family="Helvetica,sans-Serif" font-size="10.00">Ogre::EAGLSupport</text>
</a>
</g>
</g>
<!-- Node1&#45;&gt;Node2 -->
<g id="edge1" class="edge"><title>Node1&#45;&gt;Node2</title>
<path fill="none" stroke="midnightblue" d="M114.496,-75.4668C122.872,-76.6201 131.398,-77.7939 139.571,-78.9192"/>
<polygon fill="midnightblue" stroke="midnightblue" points="114.77,-71.9716 104.386,-74.0749 113.815,-78.9062 114.77,-71.9716"/>
</g>
<!-- Node3 -->
<g id="node3" class="node"><title>Node3</title>
<g id="a_node3"><a xlink:href="class_ogre_1_1_e_g_l_support.html" target="_top" xlink:title="Ogre::EGLSupport">
<polygon fill="none" stroke="black" points="143.5,-38.5 143.5,-57.5 240.5,-57.5 240.5,-38.5 143.5,-38.5"/>
<text text-anchor="middle" x="192" y="-45.5" font-family="Helvetica,sans-Serif" font-size="10.00">Ogre::EGLSupport</text>
</a>
</g>
</g>
<!-- Node1&#45;&gt;Node3 -->
<g id="edge2" class="edge"><title>Node1&#45;&gt;Node3</title>
<path fill="none" stroke="midnightblue" d="M114.363,-58.5515C124.039,-57.2193 133.917,-55.8593 143.224,-54.5778"/>
<polygon fill="midnightblue" stroke="midnightblue" points="113.815,-55.0938 104.386,-59.9251 114.77,-62.0284 113.815,-55.0938"/>
</g>
<!-- Node4 -->
<g id="node4" class="node"><title>Node4</title>
<g id="a_node4"><a xlink:href="class_ogre_1_1_android_e_g_l_support.html" target="_top" xlink:title="Ogre::AndroidEGLSupport">
<polygon fill="none" stroke="black" points="288,-114.5 288,-133.5 418,-133.5 418,-114.5 288,-114.5"/>
<text text-anchor="middle" x="353" y="-121.5" font-family="Helvetica,sans-Serif" font-size="10.00">Ogre::AndroidEGLSupport</text>
</a>
</g>
</g>
<!-- Node3&#45;&gt;Node4 -->
<g id="edge3" class="edge"><title>Node3&#45;&gt;Node4</title>
<path fill="none" stroke="midnightblue" d="M248.803,-62.0925C262.905,-74.5488 262.803,-85.8031 280,-96 296.235,-105.627 317.371,-110.453 332.536,-114.492"/>
<polygon fill="midnightblue" stroke="midnightblue" points="250.686,-59.1281 240.602,-55.8804 246.46,-64.7082 250.686,-59.1281"/>
</g>
<!-- Node3&#45;&gt;Node4 -->
<g id="edge4" class="edge"><title>Node3&#45;&gt;Node4</title>
<path fill="none" stroke="midnightblue" d="M213.929,-61.5905C223.574,-65.5008 234.876,-69.9634 244,-76 263.402,-88.8373 259.989,-102.135 280,-114 282.558,-115.517 285.237,-116.914 287.995,-118.195"/>
<polygon fill="midnightblue" stroke="midnightblue" points="215.213,-58.3338 204.639,-57.6728 212.493,-64.7836 215.213,-58.3338"/>
</g>
<!-- Node5 -->
<g id="node5" class="node"><title>Node5</title>
<g id="a_node5"><a xlink:href="class_ogre_1_1_emscripten_e_g_l_support.html" target="_top" xlink:title="Ogre::EmscriptenEGLSupport">
<polygon fill="none" stroke="black" points="280,-76.5 280,-95.5 426,-95.5 426,-76.5 280,-76.5"/>
<text text-anchor="middle" x="353" y="-83.5" font-family="Helvetica,sans-Serif" font-size="10.00">Ogre::EmscriptenEGLSupport</text>
</a>
</g>
</g>
<!-- Node3&#45;&gt;Node5 -->
<g id="edge5" class="edge"><title>Node3&#45;&gt;Node5</title>
<path fill="none" stroke="midnightblue" d="M243.077,-59.968C265.358,-65.2931 291.229,-71.4762 312.166,-76.4799"/>
<polygon fill="midnightblue" stroke="midnightblue" points="243.662,-56.5094 233.122,-57.589 242.035,-63.3177 243.662,-56.5094"/>
</g>
<!-- Node6 -->
<g id="node6" class="node"><title>Node6</title>
<g id="a_node6"><a xlink:href="class_ogre_1_1_win32_e_g_l_support.html" target="_top" xlink:title="Ogre::Win32EGLSupport">
<polygon fill="none" stroke="black" points="290.5,-38.5 290.5,-57.5 415.5,-57.5 415.5,-38.5 290.5,-38.5"/>
<text text-anchor="middle" x="353" y="-45.5" font-family="Helvetica,sans-Serif" font-size="10.00">Ogre::Win32EGLSupport</text>
</a>
</g>
</g>
<!-- Node3&#45;&gt;Node6 -->
<g id="edge6" class="edge"><title>Node3&#45;&gt;Node6</title>
<path fill="none" stroke="midnightblue" d="M250.837,-41.4778C263.727,-41.2004 277.439,-41.1763 290.471,-41.4057"/>
<polygon fill="midnightblue" stroke="midnightblue" points="250.606,-37.9828 240.705,-41.7547 250.797,-44.9802 250.606,-37.9828"/>
</g>
<!-- Node3&#45;&gt;Node6 -->
<g id="edge7" class="edge"><title>Node3&#45;&gt;Node6</title>
<path fill="none" stroke="midnightblue" d="M250.837,-54.5222C263.727,-54.7996 277.439,-54.8237 290.471,-54.5943"/>
<polygon fill="midnightblue" stroke="midnightblue" points="250.797,-51.0198 240.705,-54.2453 250.606,-58.0172 250.797,-51.0198"/>
</g>
<!-- Node7 -->
<g id="node7" class="node"><title>Node7</title>
<g id="a_node7"><a xlink:href="class_ogre_1_1_x11_e_g_l_support.html" target="_top" xlink:title="Ogre::X11EGLSupport">
<polygon fill="none" stroke="black" points="296,-0.5 296,-19.5 410,-19.5 410,-0.5 296,-0.5"/>
<text text-anchor="middle" x="353" y="-7.5" font-family="Helvetica,sans-Serif" font-size="10.00">Ogre::X11EGLSupport</text>
</a>
</g>
</g>
<!-- Node3&#45;&gt;Node7 -->
<g id="edge8" class="edge"><title>Node3&#45;&gt;Node7</title>
<path fill="none" stroke="midnightblue" d="M223.161,-35.3642C243.617,-29.2007 271.279,-22.2363 295.728,-16.9614"/>
<polygon fill="midnightblue" stroke="midnightblue" points="221.955,-32.0745 213.461,-38.4076 224.05,-38.7535 221.955,-32.0745"/>
</g>
<!-- Node3&#45;&gt;Node7 -->
<g id="edge9" class="edge"><title>Node3&#45;&gt;Node7</title>
<path fill="none" stroke="midnightblue" d="M250.535,-40.765C278.877,-34.6109 311.261,-26.2632 331.666,-19.5507"/>
<polygon fill="midnightblue" stroke="midnightblue" points="249.765,-37.3505 240.705,-42.8441 251.213,-44.199 249.765,-37.3505"/>
</g>
</g>
</svg>
