<?xml version="1.0" encoding="UTF-8" standalone="no"?>
<!DOCTYPE svg PUBLIC "-//W3C//DTD SVG 1.1//EN"
 "http://www.w3.org/Graphics/SVG/1.1/DTD/svg11.dtd">
<!-- Generated by graphviz version 2.38.0 (20140413.2041)
 -->
<!-- Title: Ogre::HardwareVertexBuffer Pages: 1 -->
<svg width="591pt" height="421pt"
 viewBox="0.00 0.00 591.00 420.50" xmlns="http://www.w3.org/2000/svg" xmlns:xlink="http://www.w3.org/1999/xlink">
<g id="graph0" class="graph" transform="scale(1 1) rotate(0) translate(4 416.5)">
<title>Ogre::HardwareVertexBuffer</title>
<!-- Node1 -->
<g id="node1" class="node"><title>Node1</title>
<polygon fill="#bfbfbf" stroke="black" points="249,-191.5 249,-210.5 389,-210.5 389,-191.5 249,-191.5"/>
<text text-anchor="middle" x="319" y="-198.5" font-family="Helvetica,sans-Serif" font-size="10.00">Ogre::HardwareVertexBuffer</text>
</g>
<!-- Node4 -->
<g id="node4" class="node"><title>Node4</title>
<g id="a_node4"><a xlink:href="class_ogre_1_1_d3_d11_hardware_vertex_buffer.html" target="_top" xlink:title="Specialisation of HardwareVertexBuffer for D3D11. ">
<polygon fill="none" stroke="black" points="431.5,-382 431.5,-412 576.5,-412 576.5,-382 431.5,-382"/>
<text text-anchor="start" x="439.5" y="-400" font-family="Helvetica,sans-Serif" font-size="10.00">Ogre::D3D11HardwareVertex</text>
<text text-anchor="middle" x="504" y="-389" font-family="Helvetica,sans-Serif" font-size="10.00">Buffer</text>
</a>
</g>
</g>
<!-- Node1&#45;&gt;Node4 -->
<g id="edge3" class="edge"><title>Node1&#45;&gt;Node4</title>
<path fill="none" stroke="midnightblue" d="M326.62,-220.582C339.682,-256.261 372.175,-331.951 425,-373 429.363,-376.39 434.207,-379.305 439.284,-381.81"/>
<polygon fill="midnightblue" stroke="midnightblue" points="329.822,-219.138 323.189,-210.877 323.222,-221.472 329.822,-219.138"/>
</g>
<!-- Node5 -->
<g id="node5" class="node"><title>Node5</title>
<g id="a_node5"><a xlink:href="class_ogre_1_1_d3_d9_hardware_vertex_buffer.html" target="_top" xlink:title="Specialisation of HardwareVertexBuffer for D3D9. ">
<polygon fill="none" stroke="black" points="434,-333 434,-363 574,-363 574,-333 434,-333"/>
<text text-anchor="start" x="442" y="-351" font-family="Helvetica,sans-Serif" font-size="10.00">Ogre::D3D9HardwareVertex</text>
<text text-anchor="middle" x="504" y="-340" font-family="Helvetica,sans-Serif" font-size="10.00">Buffer</text>
</a>
</g>
</g>
<!-- Node1&#45;&gt;Node5 -->
<g id="edge4" class="edge"><title>Node1&#45;&gt;Node5</title>
<path fill="none" stroke="midnightblue" d="M330.877,-219.39C347.704,-246.273 382.577,-296.124 425,-324 430.21,-327.423 435.933,-330.379 441.839,-332.926"/>
<polygon fill="midnightblue" stroke="midnightblue" points="333.712,-217.318 325.513,-210.609 327.739,-220.967 333.712,-217.318"/>
</g>
<!-- Node6 -->
<g id="node6" class="node"><title>Node6</title>
<g id="a_node6"><a xlink:href="class_ogre_1_1_default_hardware_vertex_buffer.html" target="_top" xlink:title="Specialisation of HardwareVertexBuffer for emulation. ">
<polygon fill="none" stroke="black" points="431,-284 431,-314 577,-314 577,-284 431,-284"/>
<text text-anchor="start" x="439" y="-302" font-family="Helvetica,sans-Serif" font-size="10.00">Ogre::DefaultHardwareVertex</text>
<text text-anchor="middle" x="504" y="-291" font-family="Helvetica,sans-Serif" font-size="10.00">Buffer</text>
</a>
</g>
</g>
<!-- Node1&#45;&gt;Node6 -->
<g id="edge5" class="edge"><title>Node1&#45;&gt;Node6</title>
<path fill="none" stroke="midnightblue" d="M339.002,-217.205C359.186,-233.717 392.592,-259.096 425,-275 431.741,-278.308 439.034,-281.275 446.362,-283.901"/>
<polygon fill="midnightblue" stroke="midnightblue" points="341.131,-214.423 331.203,-210.725 336.657,-219.807 341.131,-214.423"/>
</g>
<!-- Node7 -->
<g id="node7" class="node"><title>Node7</title>
<g id="a_node7"><a xlink:href="class_ogre_1_1_g_l3_plus_default_hardware_vertex_buffer.html" target="_top" xlink:title="Specialisation of HardwareVertexBuffer for emulation. ">
<polygon fill="none" stroke="black" points="426.5,-235 426.5,-265 581.5,-265 581.5,-235 426.5,-235"/>
<text text-anchor="start" x="434.5" y="-253" font-family="Helvetica,sans-Serif" font-size="10.00">Ogre::GL3PlusDefaultHardware</text>
<text text-anchor="middle" x="504" y="-242" font-family="Helvetica,sans-Serif" font-size="10.00">VertexBuffer</text>
</a>
</g>
</g>
<!-- Node1&#45;&gt;Node7 -->
<g id="edge6" class="edge"><title>Node1&#45;&gt;Node7</title>
<path fill="none" stroke="midnightblue" d="M365.524,-213.19C390.141,-219.781 420.755,-227.978 446.842,-234.963"/>
<polygon fill="midnightblue" stroke="midnightblue" points="366.284,-209.77 355.719,-210.564 364.473,-216.531 366.284,-209.77"/>
</g>
<!-- Node8 -->
<g id="node8" class="node"><title>Node8</title>
<g id="a_node8"><a xlink:href="class_ogre_1_1_g_l3_plus_hardware_vertex_buffer.html" target="_top" xlink:title="Specialisation of HardwareVertexBuffer for OpenGL. ">
<polygon fill="none" stroke="black" points="428,-186 428,-216 580,-216 580,-186 428,-186"/>
<text text-anchor="start" x="436" y="-204" font-family="Helvetica,sans-Serif" font-size="10.00">Ogre::GL3PlusHardwareVertex</text>
<text text-anchor="middle" x="504" y="-193" font-family="Helvetica,sans-Serif" font-size="10.00">Buffer</text>
</a>
</g>
</g>
<!-- Node1&#45;&gt;Node8 -->
<g id="edge7" class="edge"><title>Node1&#45;&gt;Node8</title>
<path fill="none" stroke="midnightblue" d="M399.375,-201C408.848,-201 418.498,-201 427.909,-201"/>
<polygon fill="midnightblue" stroke="midnightblue" points="399.184,-197.5 389.184,-201 399.184,-204.5 399.184,-197.5"/>
</g>
<!-- Node9 -->
<g id="node9" class="node"><title>Node9</title>
<g id="a_node9"><a xlink:href="class_ogre_1_1_g_l_default_hardware_vertex_buffer.html" target="_top" xlink:title="Specialisation of HardwareVertexBuffer for emulation. ">
<polygon fill="none" stroke="black" points="425,-137 425,-167 583,-167 583,-137 425,-137"/>
<text text-anchor="start" x="433" y="-155" font-family="Helvetica,sans-Serif" font-size="10.00">Ogre::GLDefaultHardwareVertex</text>
<text text-anchor="middle" x="504" y="-144" font-family="Helvetica,sans-Serif" font-size="10.00">Buffer</text>
</a>
</g>
</g>
<!-- Node1&#45;&gt;Node9 -->
<g id="edge8" class="edge"><title>Node1&#45;&gt;Node9</title>
<path fill="none" stroke="midnightblue" d="M365.524,-188.81C390.141,-182.219 420.755,-174.022 446.842,-167.037"/>
<polygon fill="midnightblue" stroke="midnightblue" points="364.473,-185.469 355.719,-191.436 366.284,-192.23 364.473,-185.469"/>
</g>
<!-- Node10 -->
<g id="node10" class="node"><title>Node10</title>
<g id="a_node10"><a xlink:href="class_ogre_1_1_g_l_e_s2_default_hardware_vertex_buffer.html" target="_top" xlink:title="Specialisation of HardwareVertexBuffer for emulation. ">
<polygon fill="none" stroke="black" points="429.5,-88 429.5,-118 578.5,-118 578.5,-88 429.5,-88"/>
<text text-anchor="start" x="437.5" y="-106" font-family="Helvetica,sans-Serif" font-size="10.00">Ogre::GLES2DefaultHardware</text>
<text text-anchor="middle" x="504" y="-95" font-family="Helvetica,sans-Serif" font-size="10.00">VertexBuffer</text>
</a>
</g>
</g>
<!-- Node1&#45;&gt;Node10 -->
<g id="edge9" class="edge"><title>Node1&#45;&gt;Node10</title>
<path fill="none" stroke="midnightblue" d="M339.002,-184.795C359.186,-168.283 392.592,-142.904 425,-127 431.741,-123.692 439.034,-120.725 446.362,-118.099"/>
<polygon fill="midnightblue" stroke="midnightblue" points="336.657,-182.193 331.203,-191.275 341.131,-187.577 336.657,-182.193"/>
</g>
<!-- Node11 -->
<g id="node11" class="node"><title>Node11</title>
<g id="a_node11"><a xlink:href="class_ogre_1_1_g_l_e_s_default_hardware_vertex_buffer.html" target="_top" xlink:title="Specialisation of HardwareVertexBuffer for emulation. ">
<polygon fill="none" stroke="black" points="432.5,-39 432.5,-69 575.5,-69 575.5,-39 432.5,-39"/>
<text text-anchor="start" x="440.5" y="-57" font-family="Helvetica,sans-Serif" font-size="10.00">Ogre::GLESDefaultHardware</text>
<text text-anchor="middle" x="504" y="-46" font-family="Helvetica,sans-Serif" font-size="10.00">VertexBuffer</text>
</a>
</g>
</g>
<!-- Node1&#45;&gt;Node11 -->
<g id="edge10" class="edge"><title>Node1&#45;&gt;Node11</title>
<path fill="none" stroke="midnightblue" d="M330.877,-182.61C347.704,-155.727 382.577,-105.876 425,-78 430.21,-74.5766 435.933,-71.6211 441.839,-69.0736"/>
<polygon fill="midnightblue" stroke="midnightblue" points="327.739,-181.033 325.513,-191.391 333.712,-184.682 327.739,-181.033"/>
</g>
<!-- Node12 -->
<g id="node12" class="node"><title>Node12</title>
<g id="a_node12"><a xlink:href="class_ogre_1_1_g_l_hardware_vertex_buffer.html" target="_top" xlink:title="Specialisation of HardwareVertexBuffer for OpenGL. ">
<polygon fill="none" stroke="black" points="427.5,-0.5 427.5,-19.5 580.5,-19.5 580.5,-0.5 427.5,-0.5"/>
<text text-anchor="middle" x="504" y="-7.5" font-family="Helvetica,sans-Serif" font-size="10.00">Ogre::GLHardwareVertexBuffer</text>
</a>
</g>
</g>
<!-- Node1&#45;&gt;Node12 -->
<g id="edge11" class="edge"><title>Node1&#45;&gt;Node12</title>
<path fill="none" stroke="midnightblue" d="M326.211,-181.624C338.774,-145.66 370.72,-68.6448 425,-29 430.29,-25.1363 436.267,-22.0509 442.5,-19.5882"/>
<polygon fill="midnightblue" stroke="midnightblue" points="322.8,-180.786 322.931,-191.38 329.435,-183.017 322.8,-180.786"/>
</g>
<!-- Node2 -->
<g id="node2" class="node"><title>Node2</title>
<g id="a_node2"><a xlink:href="class_ogre_1_1_hardware_buffer.html" target="_top" xlink:title="Abstract class defining common features of hardware buffers. ">
<polygon fill="none" stroke="black" points="101,-191.5 101,-210.5 213,-210.5 213,-191.5 101,-191.5"/>
<text text-anchor="middle" x="157" y="-198.5" font-family="Helvetica,sans-Serif" font-size="10.00">Ogre::HardwareBuffer</text>
</a>
</g>
</g>
<!-- Node2&#45;&gt;Node1 -->
<g id="edge1" class="edge"><title>Node2&#45;&gt;Node1</title>
<path fill="none" stroke="midnightblue" d="M223.264,-201C231.742,-201 240.448,-201 248.985,-201"/>
<polygon fill="midnightblue" stroke="midnightblue" points="223.063,-197.5 213.063,-201 223.063,-204.5 223.063,-197.5"/>
</g>
<!-- Node3 -->
<g id="node3" class="node"><title>Node3</title>
<g id="a_node3"><a xlink:href="class_ogre_1_1_allocated_object.html" target="_top" xlink:title="Superclass for all objects that wish to use custom memory allocators when their new / delete operator...">
<polygon fill="none" stroke="black" points="0,-191.5 0,-210.5 65,-210.5 65,-191.5 0,-191.5"/>
<text text-anchor="middle" x="32.5" y="-198.5" font-family="Helvetica,sans-Serif" font-size="10.00">BufferAlloc</text>
</a>
</g>
</g>
<!-- Node3&#45;&gt;Node2 -->
<g id="edge2" class="edge"><title>Node3&#45;&gt;Node2</title>
<path fill="none" stroke="midnightblue" d="M75.1571,-201C83.4035,-201 92.1796,-201 100.795,-201"/>
<polygon fill="midnightblue" stroke="midnightblue" points="75.0468,-197.5 65.0468,-201 75.0468,-204.5 75.0468,-197.5"/>
</g>
</g>
</svg>
