<?xml version="1.0" encoding="UTF-8" standalone="no"?>
<!DOCTYPE svg PUBLIC "-//W3C//DTD SVG 1.1//EN"
 "http://www.w3.org/Graphics/SVG/1.1/DTD/svg11.dtd">
<!-- Generated by graphviz version 2.38.0 (20140413.2041)
 -->
<!-- Title: Ogre::RenderSystem Pages: 1 -->
<svg width="619pt" height="180pt"
 viewBox="0.00 0.00 619.00 180.00" xmlns="http://www.w3.org/2000/svg" xmlns:xlink="http://www.w3.org/1999/xlink">
<g id="graph0" class="graph" transform="scale(1 1) rotate(0) translate(4 176)">
<title>Ogre::RenderSystem</title>
<!-- Node1 -->
<g id="node1" class="node"><title>Node1</title>
<polygon fill="#bfbfbf" stroke="black" points="123,-95.5 123,-114.5 232,-114.5 232,-95.5 123,-95.5"/>
<text text-anchor="middle" x="177.5" y="-102.5" font-family="Helvetica,sans-Serif" font-size="10.00">Ogre::RenderSystem</text>
</g>
<!-- Node3 -->
<g id="node3" class="node"><title>Node3</title>
<g id="a_node3"><a xlink:href="class_ogre_1_1_d3_d11_render_system.html" target="_top" xlink:title="Implementation of DirectX11 as a rendering system. ">
<polygon fill="none" stroke="black" points="278.5,-152.5 278.5,-171.5 418.5,-171.5 418.5,-152.5 278.5,-152.5"/>
<text text-anchor="middle" x="348.5" y="-159.5" font-family="Helvetica,sans-Serif" font-size="10.00">Ogre::D3D11RenderSystem</text>
</a>
</g>
</g>
<!-- Node1&#45;&gt;Node3 -->
<g id="edge2" class="edge"><title>Node1&#45;&gt;Node3</title>
<path fill="none" stroke="midnightblue" d="M207.898,-118.951C225.137,-126.758 247.493,-136.248 268,-143 278.783,-146.55 290.591,-149.737 301.729,-152.441"/>
<polygon fill="midnightblue" stroke="midnightblue" points="208.94,-115.578 198.393,-114.582 206.017,-121.938 208.94,-115.578"/>
</g>
<!-- Node4 -->
<g id="node4" class="node"><title>Node4</title>
<g id="a_node4"><a xlink:href="class_ogre_1_1_d3_d9_render_system.html" target="_top" xlink:title="Implementation of DirectX9 as a rendering system. ">
<polygon fill="none" stroke="black" points="281.5,-114.5 281.5,-133.5 415.5,-133.5 415.5,-114.5 281.5,-114.5"/>
<text text-anchor="middle" x="348.5" y="-121.5" font-family="Helvetica,sans-Serif" font-size="10.00">Ogre::D3D9RenderSystem</text>
</a>
</g>
</g>
<!-- Node1&#45;&gt;Node4 -->
<g id="edge3" class="edge"><title>Node1&#45;&gt;Node4</title>
<path fill="none" stroke="midnightblue" d="M242.468,-112.192C255.182,-113.621 268.557,-115.125 281.342,-116.562"/>
<polygon fill="midnightblue" stroke="midnightblue" points="242.766,-108.703 232.437,-111.064 241.984,-115.659 242.766,-108.703"/>
</g>
<!-- Node5 -->
<g id="node5" class="node"><title>Node5</title>
<g id="a_node5"><a xlink:href="class_ogre_1_1_g_l_e_s_render_system.html" target="_top" xlink:title="Implementation of GL as a rendering system. ">
<polygon fill="none" stroke="black" points="281,-76.5 281,-95.5 416,-95.5 416,-76.5 281,-76.5"/>
<text text-anchor="middle" x="348.5" y="-83.5" font-family="Helvetica,sans-Serif" font-size="10.00">Ogre::GLESRenderSystem</text>
</a>
</g>
</g>
<!-- Node1&#45;&gt;Node5 -->
<g id="edge4" class="edge"><title>Node1&#45;&gt;Node5</title>
<path fill="none" stroke="midnightblue" d="M242.715,-97.7806C255.155,-96.382 268.218,-94.9133 280.738,-93.5058"/>
<polygon fill="midnightblue" stroke="midnightblue" points="241.984,-94.3406 232.437,-98.936 242.766,-101.297 241.984,-94.3406"/>
</g>
<!-- Node6 -->
<g id="node6" class="node"><title>Node6</title>
<g id="a_node6"><a xlink:href="class_ogre_1_1_g_l_render_system_common.html" target="_top" xlink:title="Ogre::GLRenderSystemCommon">
<polygon fill="none" stroke="black" points="268,-38.5 268,-57.5 429,-57.5 429,-38.5 268,-38.5"/>
<text text-anchor="middle" x="348.5" y="-45.5" font-family="Helvetica,sans-Serif" font-size="10.00">Ogre::GLRenderSystemCommon</text>
</a>
</g>
</g>
<!-- Node1&#45;&gt;Node6 -->
<g id="edge5" class="edge"><title>Node1&#45;&gt;Node6</title>
<path fill="none" stroke="midnightblue" d="M207.898,-91.0492C225.137,-83.242 247.493,-73.7517 268,-67 278.783,-63.4498 290.591,-60.263 301.729,-57.5592"/>
<polygon fill="midnightblue" stroke="midnightblue" points="206.017,-88.0617 198.393,-95.418 208.94,-94.4221 206.017,-88.0617"/>
</g>
<!-- Node2 -->
<g id="node2" class="node"><title>Node2</title>
<g id="a_node2"><a xlink:href="class_ogre_1_1_allocated_object.html" target="_top" xlink:title="Superclass for all objects that wish to use custom memory allocators when their new / delete operator...">
<polygon fill="none" stroke="black" points="0,-95.5 0,-114.5 87,-114.5 87,-95.5 0,-95.5"/>
<text text-anchor="middle" x="43.5" y="-102.5" font-family="Helvetica,sans-Serif" font-size="10.00">RenderSysAlloc</text>
</a>
</g>
</g>
<!-- Node2&#45;&gt;Node1 -->
<g id="edge1" class="edge"><title>Node2&#45;&gt;Node1</title>
<path fill="none" stroke="midnightblue" d="M97.3702,-105C105.73,-105 114.382,-105 122.761,-105"/>
<polygon fill="midnightblue" stroke="midnightblue" points="97.3567,-101.5 87.3566,-105 97.3566,-108.5 97.3567,-101.5"/>
</g>
<!-- Node7 -->
<g id="node7" class="node"><title>Node7</title>
<g id="a_node7"><a xlink:href="class_ogre_1_1_g_l3_plus_render_system.html" target="_top" xlink:title="Implementation of GL 3 as a rendering system. ">
<polygon fill="none" stroke="black" points="465,-76.5 465,-95.5 611,-95.5 611,-76.5 465,-76.5"/>
<text text-anchor="middle" x="538" y="-83.5" font-family="Helvetica,sans-Serif" font-size="10.00">Ogre::GL3PlusRenderSystem</text>
</a>
</g>
</g>
<!-- Node6&#45;&gt;Node7 -->
<g id="edge6" class="edge"><title>Node6&#45;&gt;Node7</title>
<path fill="none" stroke="midnightblue" d="M406.784,-59.6095C433.451,-65.014 464.781,-71.3635 490.026,-76.4799"/>
<polygon fill="midnightblue" stroke="midnightblue" points="407.31,-56.1451 396.814,-57.589 405.92,-63.0056 407.31,-56.1451"/>
</g>
<!-- Node8 -->
<g id="node8" class="node"><title>Node8</title>
<g id="a_node8"><a xlink:href="class_ogre_1_1_g_l_e_s2_render_system.html" target="_top" xlink:title="Implementation of GL ES 2.x as a rendering system. ">
<polygon fill="none" stroke="black" points="468,-38.5 468,-57.5 608,-57.5 608,-38.5 468,-38.5"/>
<text text-anchor="middle" x="538" y="-45.5" font-family="Helvetica,sans-Serif" font-size="10.00">Ogre::GLES2RenderSystem</text>
</a>
</g>
</g>
<!-- Node6&#45;&gt;Node8 -->
<g id="edge7" class="edge"><title>Node6&#45;&gt;Node8</title>
<path fill="none" stroke="midnightblue" d="M439.031,-48C448.678,-48 458.385,-48 467.742,-48"/>
<polygon fill="midnightblue" stroke="midnightblue" points="439.017,-44.5001 429.017,-48 439.017,-51.5001 439.017,-44.5001"/>
</g>
<!-- Node9 -->
<g id="node9" class="node"><title>Node9</title>
<g id="a_node9"><a xlink:href="class_ogre_1_1_g_l_render_system.html" target="_top" xlink:title="Implementation of GL as a rendering system. ">
<polygon fill="none" stroke="black" points="477,-0.5 477,-19.5 599,-19.5 599,-0.5 477,-0.5"/>
<text text-anchor="middle" x="538" y="-7.5" font-family="Helvetica,sans-Serif" font-size="10.00">Ogre::GLRenderSystem</text>
</a>
</g>
</g>
<!-- Node6&#45;&gt;Node9 -->
<g id="edge8" class="edge"><title>Node6&#45;&gt;Node9</title>
<path fill="none" stroke="midnightblue" d="M406.784,-36.3905C433.451,-30.986 464.781,-24.6365 490.026,-19.5201"/>
<polygon fill="midnightblue" stroke="midnightblue" points="405.92,-32.9944 396.814,-38.411 407.31,-39.8549 405.92,-32.9944"/>
</g>
</g>
</svg>
