<?xml version="1.0" encoding="UTF-8" standalone="no"?>
<!DOCTYPE svg PUBLIC "-//W3C//DTD SVG 1.1//EN"
 "http://www.w3.org/Graphics/SVG/1.1/DTD/svg11.dtd">
<!-- Generated by graphviz version 2.38.0 (20140413.2041)
 -->
<!-- Title: Ogre::DepthBuffer Pages: 1 -->
<svg width="397pt" height="218pt"
 viewBox="0.00 0.00 397.00 218.00" xmlns="http://www.w3.org/2000/svg" xmlns:xlink="http://www.w3.org/1999/xlink">
<g id="graph0" class="graph" transform="scale(1 1) rotate(0) translate(4 214)">
<title>Ogre::DepthBuffer</title>
<!-- Node1 -->
<g id="node1" class="node"><title>Node1</title>
<polygon fill="#bfbfbf" stroke="black" points="123,-95.5 123,-114.5 219,-114.5 219,-95.5 123,-95.5"/>
<text text-anchor="middle" x="171" y="-102.5" font-family="Helvetica,sans-Serif" font-size="10.00">Ogre::DepthBuffer</text>
</g>
<!-- Node3 -->
<g id="node3" class="node"><title>Node3</title>
<g id="a_node3"><a xlink:href="class_ogre_1_1_d3_d11_depth_buffer.html" target="_top" xlink:title="Ogre::D3D11DepthBuffer">
<polygon fill="none" stroke="black" points="258.5,-190.5 258.5,-209.5 385.5,-209.5 385.5,-190.5 258.5,-190.5"/>
<text text-anchor="middle" x="322" y="-197.5" font-family="Helvetica,sans-Serif" font-size="10.00">Ogre::D3D11DepthBuffer</text>
</a>
</g>
</g>
<!-- Node1&#45;&gt;Node3 -->
<g id="edge2" class="edge"><title>Node1&#45;&gt;Node3</title>
<path fill="none" stroke="midnightblue" d="M186.555,-122.372C201.901,-139.622 227.61,-165.649 255,-181 261.865,-184.848 269.577,-187.974 277.243,-190.496"/>
<polygon fill="midnightblue" stroke="midnightblue" points="189.09,-119.953 179.893,-114.694 183.803,-124.541 189.09,-119.953"/>
</g>
<!-- Node4 -->
<g id="node4" class="node"><title>Node4</title>
<g id="a_node4"><a xlink:href="class_ogre_1_1_d3_d9_depth_buffer.html" target="_top" xlink:title="Ogre::D3D9DepthBuffer">
<polygon fill="none" stroke="black" points="261,-152.5 261,-171.5 383,-171.5 383,-152.5 261,-152.5"/>
<text text-anchor="middle" x="322" y="-159.5" font-family="Helvetica,sans-Serif" font-size="10.00">Ogre::D3D9DepthBuffer</text>
</a>
</g>
</g>
<!-- Node1&#45;&gt;Node4 -->
<g id="edge3" class="edge"><title>Node1&#45;&gt;Node4</title>
<path fill="none" stroke="midnightblue" d="M200.034,-119.101C215.917,-126.767 236.294,-136.069 255,-143 264.28,-146.438 274.481,-149.644 284.029,-152.407"/>
<polygon fill="midnightblue" stroke="midnightblue" points="201.302,-115.825 190.781,-114.575 198.226,-122.113 201.302,-115.825"/>
</g>
<!-- Node5 -->
<g id="node5" class="node"><title>Node5</title>
<g id="a_node5"><a xlink:href="class_ogre_1_1_g_l3_plus_depth_buffer.html" target="_top" xlink:title="Ogre::GL3PlusDepthBuffer">
<polygon fill="none" stroke="black" points="255,-114.5 255,-133.5 389,-133.5 389,-114.5 255,-114.5"/>
<text text-anchor="middle" x="322" y="-121.5" font-family="Helvetica,sans-Serif" font-size="10.00">Ogre::GL3PlusDepthBuffer</text>
</a>
</g>
</g>
<!-- Node1&#45;&gt;Node5 -->
<g id="edge4" class="edge"><title>Node1&#45;&gt;Node5</title>
<path fill="none" stroke="midnightblue" d="M229.193,-112.293C237.583,-113.363 246.282,-114.472 254.833,-115.563"/>
<polygon fill="midnightblue" stroke="midnightblue" points="229.507,-108.805 219.145,-111.012 228.621,-115.749 229.507,-108.805"/>
</g>
<!-- Node6 -->
<g id="node6" class="node"><title>Node6</title>
<g id="a_node6"><a xlink:href="class_ogre_1_1_g_l_depth_buffer.html" target="_top" xlink:title="Ogre::GLDepthBuffer">
<polygon fill="none" stroke="black" points="267.5,-76.5 267.5,-95.5 376.5,-95.5 376.5,-76.5 267.5,-76.5"/>
<text text-anchor="middle" x="322" y="-83.5" font-family="Helvetica,sans-Serif" font-size="10.00">Ogre::GLDepthBuffer</text>
</a>
</g>
</g>
<!-- Node1&#45;&gt;Node6 -->
<g id="edge5" class="edge"><title>Node1&#45;&gt;Node6</title>
<path fill="none" stroke="midnightblue" d="M229.066,-97.7231C241.663,-96.1167 254.965,-94.4206 267.418,-92.8326"/>
<polygon fill="midnightblue" stroke="midnightblue" points="228.621,-94.2514 219.145,-98.9883 229.507,-101.195 228.621,-94.2514"/>
</g>
<!-- Node7 -->
<g id="node7" class="node"><title>Node7</title>
<g id="a_node7"><a xlink:href="class_ogre_1_1_g_l_e_s2_depth_buffer.html" target="_top" xlink:title="Ogre::GLES2DepthBuffer">
<polygon fill="none" stroke="black" points="258,-38.5 258,-57.5 386,-57.5 386,-38.5 258,-38.5"/>
<text text-anchor="middle" x="322" y="-45.5" font-family="Helvetica,sans-Serif" font-size="10.00">Ogre::GLES2DepthBuffer</text>
</a>
</g>
</g>
<!-- Node1&#45;&gt;Node7 -->
<g id="edge6" class="edge"><title>Node1&#45;&gt;Node7</title>
<path fill="none" stroke="midnightblue" d="M200.034,-90.899C215.917,-83.233 236.294,-73.9307 255,-67 264.28,-63.5617 274.481,-60.3556 284.029,-57.5927"/>
<polygon fill="midnightblue" stroke="midnightblue" points="198.226,-87.887 190.781,-95.4249 201.302,-94.1751 198.226,-87.887"/>
</g>
<!-- Node8 -->
<g id="node8" class="node"><title>Node8</title>
<g id="a_node8"><a xlink:href="class_ogre_1_1_g_l_e_s_depth_buffer.html" target="_top" xlink:title="Ogre::GLESDepthBuffer">
<polygon fill="none" stroke="black" points="261,-0.5 261,-19.5 383,-19.5 383,-0.5 261,-0.5"/>
<text text-anchor="middle" x="322" y="-7.5" font-family="Helvetica,sans-Serif" font-size="10.00">Ogre::GLESDepthBuffer</text>
</a>
</g>
</g>
<!-- Node1&#45;&gt;Node8 -->
<g id="edge7" class="edge"><title>Node1&#45;&gt;Node8</title>
<path fill="none" stroke="midnightblue" d="M186.555,-87.628C201.901,-70.3781 227.61,-44.3512 255,-29 261.865,-25.1524 269.577,-22.0258 277.243,-19.5042"/>
<polygon fill="midnightblue" stroke="midnightblue" points="183.803,-85.4591 179.893,-95.3058 189.09,-90.047 183.803,-85.4591"/>
</g>
<!-- Node2 -->
<g id="node2" class="node"><title>Node2</title>
<g id="a_node2"><a xlink:href="class_ogre_1_1_allocated_object.html" target="_top" xlink:title="Superclass for all objects that wish to use custom memory allocators when their new / delete operator...">
<polygon fill="none" stroke="black" points="0,-95.5 0,-114.5 87,-114.5 87,-95.5 0,-95.5"/>
<text text-anchor="middle" x="43.5" y="-102.5" font-family="Helvetica,sans-Serif" font-size="10.00">RenderSysAlloc</text>
</a>
</g>
</g>
<!-- Node2&#45;&gt;Node1 -->
<g id="edge1" class="edge"><title>Node2&#45;&gt;Node1</title>
<path fill="none" stroke="midnightblue" d="M97.3935,-105C105.768,-105 114.383,-105 122.621,-105"/>
<polygon fill="midnightblue" stroke="midnightblue" points="97.339,-101.5 87.339,-105 97.3389,-108.5 97.339,-101.5"/>
</g>
</g>
</svg>
