<?xml version="1.0" encoding="UTF-8" standalone="no"?>
<!DOCTYPE svg PUBLIC "-//W3C//DTD SVG 1.1//EN"
 "http://www.w3.org/Graphics/SVG/1.1/DTD/svg11.dtd">
<!-- Generated by graphviz version 2.38.0 (20140413.2041)
 -->
<!-- Title: Ogre::HardwareBuffer Pages: 1 -->
<svg width="776pt" height="1595pt"
 viewBox="0.00 0.00 776.00 1594.50" xmlns="http://www.w3.org/2000/svg" xmlns:xlink="http://www.w3.org/1999/xlink">
<g id="graph0" class="graph" transform="scale(1 1) rotate(0) translate(4 1590.5)">
<title>Ogre::HardwareBuffer</title>
<!-- Node1 -->
<g id="node1" class="node"><title>Node1</title>
<polygon fill="#bfbfbf" stroke="black" points="101,-1042.5 101,-1061.5 213,-1061.5 213,-1042.5 101,-1042.5"/>
<text text-anchor="middle" x="157" y="-1049.5" font-family="Helvetica,sans-Serif" font-size="10.00">Ogre::HardwareBuffer</text>
</g>
<!-- Node3 -->
<g id="node3" class="node"><title>Node3</title>
<g id="a_node3"><a xlink:href="class_ogre_1_1_d3_d11_hardware_buffer.html" target="_top" xlink:title="Base implementation of a D3D11 buffer, dealing with all the common aspects. ">
<polygon fill="none" stroke="black" points="250.5,-1501.5 250.5,-1520.5 393.5,-1520.5 393.5,-1501.5 250.5,-1501.5"/>
<text text-anchor="middle" x="322" y="-1508.5" font-family="Helvetica,sans-Serif" font-size="10.00">Ogre::D3D11HardwareBuffer</text>
</a>
</g>
</g>
<!-- Node1&#45;&gt;Node3 -->
<g id="edge2" class="edge"><title>Node1&#45;&gt;Node3</title>
<path fill="none" stroke="midnightblue" d="M159.376,-1071.75C165.153,-1149.03 189.935,-1429.65 249,-1492 252.645,-1495.85 256.97,-1498.95 261.662,-1501.45"/>
<polygon fill="midnightblue" stroke="midnightblue" points="162.848,-1071.24 158.635,-1061.52 155.866,-1071.74 162.848,-1071.24"/>
</g>
<!-- Node4 -->
<g id="node4" class="node"><title>Node4</title>
<g id="a_node4"><a xlink:href="class_ogre_1_1_hardware_counter_buffer.html" target="_top" xlink:title="Specialisation of HardwareBuffer for a counter buffer. ">
<polygon fill="none" stroke="black" points="249,-1463.5 249,-1482.5 395,-1482.5 395,-1463.5 249,-1463.5"/>
<text text-anchor="middle" x="322" y="-1470.5" font-family="Helvetica,sans-Serif" font-size="10.00">Ogre::HardwareCounterBuffer</text>
</a>
</g>
</g>
<!-- Node1&#45;&gt;Node4 -->
<g id="edge3" class="edge"><title>Node1&#45;&gt;Node4</title>
<path fill="none" stroke="midnightblue" d="M165.356,-1071C193.826,-1144.53 296.232,-1409.03 317.224,-1463.25"/>
<polygon fill="midnightblue" stroke="midnightblue" points="168.585,-1069.65 161.711,-1061.58 162.057,-1072.17 168.585,-1069.65"/>
</g>
<!-- Node8 -->
<g id="node8" class="node"><title>Node8</title>
<g id="a_node8"><a xlink:href="class_ogre_1_1_hardware_index_buffer.html" target="_top" xlink:title="Specialisation of HardwareBuffer for vertex index buffers, still abstract. ">
<polygon fill="none" stroke="black" points="254,-1203.5 254,-1222.5 390,-1222.5 390,-1203.5 254,-1203.5"/>
<text text-anchor="middle" x="322" y="-1210.5" font-family="Helvetica,sans-Serif" font-size="10.00">Ogre::HardwareIndexBuffer</text>
</a>
</g>
</g>
<!-- Node1&#45;&gt;Node8 -->
<g id="edge7" class="edge"><title>Node1&#45;&gt;Node8</title>
<path fill="none" stroke="midnightblue" d="M175.035,-1068.83C208.995,-1102.37 284.175,-1176.63 311.137,-1203.26"/>
<polygon fill="midnightblue" stroke="midnightblue" points="177.282,-1066.13 167.708,-1061.59 172.363,-1071.11 177.282,-1066.13"/>
</g>
<!-- Node18 -->
<g id="node18" class="node"><title>Node18</title>
<g id="a_node18"><a xlink:href="class_ogre_1_1_hardware_pixel_buffer.html" target="_top" xlink:title="Specialisation of HardwareBuffer for a pixel buffer. ">
<polygon fill="none" stroke="black" points="255,-905.5 255,-924.5 389,-924.5 389,-905.5 255,-905.5"/>
<text text-anchor="middle" x="322" y="-912.5" font-family="Helvetica,sans-Serif" font-size="10.00">Ogre::HardwarePixelBuffer</text>
</a>
</g>
</g>
<!-- Node1&#45;&gt;Node18 -->
<g id="edge17" class="edge"><title>Node1&#45;&gt;Node18</title>
<path fill="none" stroke="midnightblue" d="M177.329,-1035.75C211.503,-1007.03 281.599,-948.116 309.333,-924.806"/>
<polygon fill="midnightblue" stroke="midnightblue" points="174.865,-1033.25 169.462,-1042.37 179.369,-1038.61 174.865,-1033.25"/>
</g>
<!-- Node32 -->
<g id="node32" class="node"><title>Node32</title>
<g id="a_node32"><a xlink:href="class_ogre_1_1_hardware_uniform_buffer.html" target="_top" xlink:title="Specialisation of HardwareBuffer for a uniform buffer. ">
<polygon fill="none" stroke="black" points="249,-607.5 249,-626.5 395,-626.5 395,-607.5 249,-607.5"/>
<text text-anchor="middle" x="322" y="-614.5" font-family="Helvetica,sans-Serif" font-size="10.00">Ogre::HardwareUniformBuffer</text>
</a>
</g>
</g>
<!-- Node1&#45;&gt;Node32 -->
<g id="edge31" class="edge"><title>Node1&#45;&gt;Node32</title>
<path fill="none" stroke="midnightblue" d="M165.365,-1032.34C193.913,-956.159 296.7,-681.849 317.366,-626.699"/>
<polygon fill="midnightblue" stroke="midnightblue" points="161.942,-1031.5 161.711,-1042.1 168.497,-1033.96 161.942,-1031.5"/>
</g>
<!-- Node40 -->
<g id="node40" class="node"><title>Node40</title>
<g id="a_node40"><a xlink:href="class_ogre_1_1_hardware_vertex_buffer.html" target="_top" xlink:title="Specialisation of HardwareBuffer for a vertex buffer. ">
<polygon fill="none" stroke="black" points="252,-216.5 252,-235.5 392,-235.5 392,-216.5 252,-216.5"/>
<text text-anchor="middle" x="322" y="-223.5" font-family="Helvetica,sans-Serif" font-size="10.00">Ogre::HardwareVertexBuffer</text>
</a>
</g>
</g>
<!-- Node1&#45;&gt;Node40 -->
<g id="edge39" class="edge"><title>Node1&#45;&gt;Node40</title>
<path fill="none" stroke="midnightblue" d="M161.852,-1032.48C184.756,-916.416 302.587,-319.309 319.081,-235.723"/>
<polygon fill="midnightblue" stroke="midnightblue" points="158.389,-1031.95 159.887,-1042.44 165.257,-1033.3 158.389,-1031.95"/>
</g>
<!-- Node2 -->
<g id="node2" class="node"><title>Node2</title>
<g id="a_node2"><a xlink:href="class_ogre_1_1_allocated_object.html" target="_top" xlink:title="Superclass for all objects that wish to use custom memory allocators when their new / delete operator...">
<polygon fill="none" stroke="black" points="0,-1042.5 0,-1061.5 65,-1061.5 65,-1042.5 0,-1042.5"/>
<text text-anchor="middle" x="32.5" y="-1049.5" font-family="Helvetica,sans-Serif" font-size="10.00">BufferAlloc</text>
</a>
</g>
</g>
<!-- Node2&#45;&gt;Node1 -->
<g id="edge1" class="edge"><title>Node2&#45;&gt;Node1</title>
<path fill="none" stroke="midnightblue" d="M75.1571,-1052C83.4035,-1052 92.1796,-1052 100.795,-1052"/>
<polygon fill="midnightblue" stroke="midnightblue" points="75.0468,-1048.5 65.0468,-1052 75.0468,-1055.5 75.0468,-1048.5"/>
</g>
<!-- Node5 -->
<g id="node5" class="node"><title>Node5</title>
<g id="a_node5"><a xlink:href="class_ogre_1_1_default_hardware_counter_buffer.html" target="_top" xlink:title="Specialisation of HardwareCounterBuffer for emulation. ">
<polygon fill="none" stroke="black" points="435.5,-1556 435.5,-1586 587.5,-1586 587.5,-1556 435.5,-1556"/>
<text text-anchor="start" x="443.5" y="-1574" font-family="Helvetica,sans-Serif" font-size="10.00">Ogre::DefaultHardwareCounter</text>
<text text-anchor="middle" x="511.5" y="-1563" font-family="Helvetica,sans-Serif" font-size="10.00">Buffer</text>
</a>
</g>
</g>
<!-- Node4&#45;&gt;Node5 -->
<g id="edge4" class="edge"><title>Node4&#45;&gt;Node5</title>
<path fill="none" stroke="midnightblue" d="M386.3,-1486.72C389.343,-1488.29 392.265,-1490.05 395,-1492 418.469,-1508.77 407.929,-1528.69 431,-1546 436.092,-1549.82 441.782,-1553.07 447.714,-1555.82"/>
<polygon fill="midnightblue" stroke="midnightblue" points="387.434,-1483.39 376.875,-1482.52 384.585,-1489.79 387.434,-1483.39"/>
</g>
<!-- Node6 -->
<g id="node6" class="node"><title>Node6</title>
<g id="a_node6"><a xlink:href="class_ogre_1_1_g_l3_plus_default_hardware_counter_buffer.html" target="_top" xlink:title="Specialisation of HardwareCounterBuffer for emulation. ">
<polygon fill="none" stroke="black" points="434,-1507 434,-1537 589,-1537 589,-1507 434,-1507"/>
<text text-anchor="start" x="442" y="-1525" font-family="Helvetica,sans-Serif" font-size="10.00">Ogre::GL3PlusDefaultHardware</text>
<text text-anchor="middle" x="511.5" y="-1514" font-family="Helvetica,sans-Serif" font-size="10.00">CounterBuffer</text>
</a>
</g>
</g>
<!-- Node4&#45;&gt;Node6 -->
<g id="edge5" class="edge"><title>Node4&#45;&gt;Node6</title>
<path fill="none" stroke="midnightblue" d="M369.308,-1485.1C394.587,-1491.71 426.114,-1499.95 452.961,-1506.96"/>
<polygon fill="midnightblue" stroke="midnightblue" points="370.157,-1481.71 359.597,-1482.56 368.387,-1488.48 370.157,-1481.71"/>
</g>
<!-- Node7 -->
<g id="node7" class="node"><title>Node7</title>
<g id="a_node7"><a xlink:href="class_ogre_1_1_g_l3_plus_hardware_counter_buffer.html" target="_top" xlink:title="Specialisation of HardwareCounterBuffer for OpenGL. ">
<polygon fill="none" stroke="black" points="432.5,-1458 432.5,-1488 590.5,-1488 590.5,-1458 432.5,-1458"/>
<text text-anchor="start" x="440.5" y="-1476" font-family="Helvetica,sans-Serif" font-size="10.00">Ogre::GL3PlusHardwareCounter</text>
<text text-anchor="middle" x="511.5" y="-1465" font-family="Helvetica,sans-Serif" font-size="10.00">Buffer</text>
</a>
</g>
</g>
<!-- Node4&#45;&gt;Node7 -->
<g id="edge6" class="edge"><title>Node4&#45;&gt;Node7</title>
<path fill="none" stroke="midnightblue" d="M405.307,-1473C414.307,-1473 423.45,-1473 432.397,-1473"/>
<polygon fill="midnightblue" stroke="midnightblue" points="405.224,-1469.5 395.224,-1473 405.224,-1476.5 405.224,-1469.5"/>
</g>
<!-- Node9 -->
<g id="node9" class="node"><title>Node9</title>
<g id="a_node9"><a xlink:href="class_ogre_1_1_d3_d11_hardware_index_buffer.html" target="_top" xlink:title="Ogre::D3D11HardwareIndex\lBuffer">
<polygon fill="none" stroke="black" points="441.5,-1409 441.5,-1439 581.5,-1439 581.5,-1409 441.5,-1409"/>
<text text-anchor="start" x="449.5" y="-1427" font-family="Helvetica,sans-Serif" font-size="10.00">Ogre::D3D11HardwareIndex</text>
<text text-anchor="middle" x="511.5" y="-1416" font-family="Helvetica,sans-Serif" font-size="10.00">Buffer</text>
</a>
</g>
</g>
<!-- Node8&#45;&gt;Node9 -->
<g id="edge8" class="edge"><title>Node8&#45;&gt;Node9</title>
<path fill="none" stroke="midnightblue" d="M329.008,-1232.56C341.624,-1270.38 374.472,-1353.78 431,-1399 435.858,-1402.89 441.327,-1406.17 447.065,-1408.95"/>
<polygon fill="midnightblue" stroke="midnightblue" points="332.254,-1231.22 325.861,-1222.78 325.591,-1233.37 332.254,-1231.22"/>
</g>
<!-- Node10 -->
<g id="node10" class="node"><title>Node10</title>
<g id="a_node10"><a xlink:href="class_ogre_1_1_d3_d9_hardware_index_buffer.html" target="_top" xlink:title="Ogre::D3D9HardwareIndexBuffer">
<polygon fill="none" stroke="black" points="431,-1370.5 431,-1389.5 592,-1389.5 592,-1370.5 431,-1370.5"/>
<text text-anchor="middle" x="511.5" y="-1377.5" font-family="Helvetica,sans-Serif" font-size="10.00">Ogre::D3D9HardwareIndexBuffer</text>
</a>
</g>
</g>
<!-- Node8&#45;&gt;Node10 -->
<g id="edge9" class="edge"><title>Node8&#45;&gt;Node10</title>
<path fill="none" stroke="midnightblue" d="M331.627,-1232.14C346.926,-1263.84 381.885,-1326.99 431,-1360 437.496,-1364.37 444.871,-1367.78 452.446,-1370.45"/>
<polygon fill="midnightblue" stroke="midnightblue" points="334.611,-1230.26 327.201,-1222.69 328.272,-1233.23 334.611,-1230.26"/>
</g>
<!-- Node11 -->
<g id="node11" class="node"><title>Node11</title>
<g id="a_node11"><a xlink:href="class_ogre_1_1_default_hardware_index_buffer.html" target="_top" xlink:title="Specialisation of HardwareIndexBuffer for emulation. ">
<polygon fill="none" stroke="black" points="441,-1321 441,-1351 582,-1351 582,-1321 441,-1321"/>
<text text-anchor="start" x="449" y="-1339" font-family="Helvetica,sans-Serif" font-size="10.00">Ogre::DefaultHardwareIndex</text>
<text text-anchor="middle" x="511.5" y="-1328" font-family="Helvetica,sans-Serif" font-size="10.00">Buffer</text>
</a>
</g>
</g>
<!-- Node8&#45;&gt;Node11 -->
<g id="edge10" class="edge"><title>Node8&#45;&gt;Node11</title>
<path fill="none" stroke="midnightblue" d="M337.704,-1230.34C357.028,-1252.1 392.999,-1289.2 431,-1311 437.652,-1314.82 444.957,-1318.12 452.359,-1320.97"/>
<polygon fill="midnightblue" stroke="midnightblue" points="340.131,-1227.8 330.923,-1222.56 334.854,-1232.4 340.131,-1227.8"/>
</g>
<!-- Node12 -->
<g id="node12" class="node"><title>Node12</title>
<g id="a_node12"><a xlink:href="class_ogre_1_1_g_l3_plus_default_hardware_index_buffer.html" target="_top" xlink:title="Specialisation of HardwareIndexBuffer for emulation. ">
<polygon fill="none" stroke="black" points="434,-1272 434,-1302 589,-1302 589,-1272 434,-1272"/>
<text text-anchor="start" x="442" y="-1290" font-family="Helvetica,sans-Serif" font-size="10.00">Ogre::GL3PlusDefaultHardware</text>
<text text-anchor="middle" x="511.5" y="-1279" font-family="Helvetica,sans-Serif" font-size="10.00">IndexBuffer</text>
</a>
</g>
</g>
<!-- Node8&#45;&gt;Node12 -->
<g id="edge11" class="edge"><title>Node8&#45;&gt;Node12</title>
<path fill="none" stroke="midnightblue" d="M351.438,-1227.05C372.987,-1237.41 403.483,-1251.48 431,-1262 440.054,-1265.46 449.815,-1268.83 459.291,-1271.9"/>
<polygon fill="midnightblue" stroke="midnightblue" points="352.735,-1223.79 342.21,-1222.57 349.681,-1230.08 352.735,-1223.79"/>
</g>
<!-- Node13 -->
<g id="node13" class="node"><title>Node13</title>
<g id="a_node13"><a xlink:href="class_ogre_1_1_g_l3_plus_hardware_index_buffer.html" target="_top" xlink:title="Ogre::GL3PlusHardwareIndex\lBuffer">
<polygon fill="none" stroke="black" points="438,-1223 438,-1253 585,-1253 585,-1223 438,-1223"/>
<text text-anchor="start" x="446" y="-1241" font-family="Helvetica,sans-Serif" font-size="10.00">Ogre::GL3PlusHardwareIndex</text>
<text text-anchor="middle" x="511.5" y="-1230" font-family="Helvetica,sans-Serif" font-size="10.00">Buffer</text>
</a>
</g>
</g>
<!-- Node8&#45;&gt;Node13 -->
<g id="edge12" class="edge"><title>Node8&#45;&gt;Node13</title>
<path fill="none" stroke="midnightblue" d="M400.43,-1223.32C412.787,-1224.97 425.534,-1226.67 437.776,-1228.3"/>
<polygon fill="midnightblue" stroke="midnightblue" points="400.537,-1219.81 390.162,-1221.95 399.612,-1226.75 400.537,-1219.81"/>
</g>
<!-- Node14 -->
<g id="node14" class="node"><title>Node14</title>
<g id="a_node14"><a xlink:href="class_ogre_1_1_g_l_default_hardware_index_buffer.html" target="_top" xlink:title="Specialisation of HardwareIndexBuffer for emulation. ">
<polygon fill="none" stroke="black" points="434.5,-1174 434.5,-1204 588.5,-1204 588.5,-1174 434.5,-1174"/>
<text text-anchor="start" x="442.5" y="-1192" font-family="Helvetica,sans-Serif" font-size="10.00">Ogre::GLDefaultHardwareIndex</text>
<text text-anchor="middle" x="511.5" y="-1181" font-family="Helvetica,sans-Serif" font-size="10.00">Buffer</text>
</a>
</g>
</g>
<!-- Node8&#45;&gt;Node14 -->
<g id="edge13" class="edge"><title>Node8&#45;&gt;Node14</title>
<path fill="none" stroke="midnightblue" d="M400.339,-1203.1C411.541,-1201.67 423.065,-1200.19 434.245,-1198.76"/>
<polygon fill="midnightblue" stroke="midnightblue" points="399.637,-1199.66 390.162,-1204.4 400.526,-1206.61 399.637,-1199.66"/>
</g>
<!-- Node15 -->
<g id="node15" class="node"><title>Node15</title>
<g id="a_node15"><a xlink:href="class_ogre_1_1_g_l_e_s2_default_hardware_index_buffer.html" target="_top" xlink:title="Specialisation of HardwareIndexBuffer for emulation. ">
<polygon fill="none" stroke="black" points="437,-1125 437,-1155 586,-1155 586,-1125 437,-1125"/>
<text text-anchor="start" x="445" y="-1143" font-family="Helvetica,sans-Serif" font-size="10.00">Ogre::GLES2DefaultHardware</text>
<text text-anchor="middle" x="511.5" y="-1132" font-family="Helvetica,sans-Serif" font-size="10.00">IndexBuffer</text>
</a>
</g>
</g>
<!-- Node8&#45;&gt;Node15 -->
<g id="edge14" class="edge"><title>Node8&#45;&gt;Node15</title>
<path fill="none" stroke="midnightblue" d="M351.403,-1198.86C372.934,-1188.45 403.423,-1174.37 431,-1164 439.367,-1160.85 448.344,-1157.83 457.146,-1155.04"/>
<polygon fill="midnightblue" stroke="midnightblue" points="349.637,-1195.83 342.183,-1203.36 352.706,-1202.12 349.637,-1195.83"/>
</g>
<!-- Node16 -->
<g id="node16" class="node"><title>Node16</title>
<g id="a_node16"><a xlink:href="class_ogre_1_1_g_l_e_s_default_hardware_index_buffer.html" target="_top" xlink:title="Specialisation of HardwareIndexBuffer for emulation. ">
<polygon fill="none" stroke="black" points="440,-1076 440,-1106 583,-1106 583,-1076 440,-1076"/>
<text text-anchor="start" x="448" y="-1094" font-family="Helvetica,sans-Serif" font-size="10.00">Ogre::GLESDefaultHardware</text>
<text text-anchor="middle" x="511.5" y="-1083" font-family="Helvetica,sans-Serif" font-size="10.00">IndexBuffer</text>
</a>
</g>
</g>
<!-- Node8&#45;&gt;Node16 -->
<g id="edge15" class="edge"><title>Node8&#45;&gt;Node16</title>
<path fill="none" stroke="midnightblue" d="M337.665,-1195.59C356.948,-1173.76 392.874,-1136.58 431,-1115 437.023,-1111.59 443.582,-1108.62 450.264,-1106.03"/>
<polygon fill="midnightblue" stroke="midnightblue" points="334.801,-1193.55 330.9,-1203.4 340.093,-1198.13 334.801,-1193.55"/>
</g>
<!-- Node17 -->
<g id="node17" class="node"><title>Node17</title>
<g id="a_node17"><a xlink:href="class_ogre_1_1_g_l_hardware_index_buffer.html" target="_top" xlink:title="Ogre::GLHardwareIndexBuffer">
<polygon fill="none" stroke="black" points="437,-1037.5 437,-1056.5 586,-1056.5 586,-1037.5 437,-1037.5"/>
<text text-anchor="middle" x="511.5" y="-1044.5" font-family="Helvetica,sans-Serif" font-size="10.00">Ogre::GLHardwareIndexBuffer</text>
</a>
</g>
</g>
<!-- Node8&#45;&gt;Node17 -->
<g id="edge16" class="edge"><title>Node8&#45;&gt;Node17</title>
<path fill="none" stroke="midnightblue" d="M331.585,-1193.79C346.82,-1162 381.69,-1098.72 431,-1066 436.794,-1062.16 443.282,-1059.09 449.987,-1056.64"/>
<polygon fill="midnightblue" stroke="midnightblue" points="328.218,-1192.73 327.178,-1203.28 334.566,-1195.68 328.218,-1192.73"/>
</g>
<!-- Node19 -->
<g id="node19" class="node"><title>Node19</title>
<g id="a_node19"><a xlink:href="class_ogre_1_1_d3_d11_hardware_pixel_buffer.html" target="_top" xlink:title="Ogre::D3D11HardwarePixel\lBuffer">
<polygon fill="none" stroke="black" points="442.5,-988 442.5,-1018 580.5,-1018 580.5,-988 442.5,-988"/>
<text text-anchor="start" x="450.5" y="-1006" font-family="Helvetica,sans-Serif" font-size="10.00">Ogre::D3D11HardwarePixel</text>
<text text-anchor="middle" x="511.5" y="-995" font-family="Helvetica,sans-Serif" font-size="10.00">Buffer</text>
</a>
</g>
</g>
<!-- Node18&#45;&gt;Node19 -->
<g id="edge18" class="edge"><title>Node18&#45;&gt;Node19</title>
<path fill="none" stroke="midnightblue" d="M345.49,-930.126C366.807,-943.971 400.08,-964.326 431,-978 439.204,-981.628 448.097,-984.965 456.865,-987.939"/>
<polygon fill="midnightblue" stroke="midnightblue" points="347.406,-927.197 337.127,-924.63 343.561,-933.047 347.406,-927.197"/>
</g>
<!-- Node20 -->
<g id="node20" class="node"><title>Node20</title>
<g id="a_node20"><a xlink:href="class_ogre_1_1_d3_d9_hardware_pixel_buffer.html" target="_top" xlink:title="Ogre::D3D9HardwarePixelBuffer">
<polygon fill="none" stroke="black" points="432,-949.5 432,-968.5 591,-968.5 591,-949.5 432,-949.5"/>
<text text-anchor="middle" x="511.5" y="-956.5" font-family="Helvetica,sans-Serif" font-size="10.00">Ogre::D3D9HardwarePixelBuffer</text>
</a>
</g>
</g>
<!-- Node18&#45;&gt;Node20 -->
<g id="edge19" class="edge"><title>Node18&#45;&gt;Node20</title>
<path fill="none" stroke="midnightblue" d="M373.61,-926.876C403.813,-933.964 441.657,-942.845 469.895,-949.471"/>
<polygon fill="midnightblue" stroke="midnightblue" points="374.22,-923.425 363.685,-924.547 372.621,-930.239 374.22,-923.425"/>
</g>
<!-- Node21 -->
<g id="node21" class="node"><title>Node21</title>
<g id="a_node21"><a xlink:href="class_ogre_1_1_g_l3_plus_hardware_pixel_buffer.html" target="_top" xlink:title="Ogre::GL3PlusHardwarePixel\lBuffer">
<polygon fill="none" stroke="black" points="439,-900 439,-930 584,-930 584,-900 439,-900"/>
<text text-anchor="start" x="447" y="-918" font-family="Helvetica,sans-Serif" font-size="10.00">Ogre::GL3PlusHardwarePixel</text>
<text text-anchor="middle" x="511.5" y="-907" font-family="Helvetica,sans-Serif" font-size="10.00">Buffer</text>
</a>
</g>
</g>
<!-- Node18&#45;&gt;Node21 -->
<g id="edge20" class="edge"><title>Node18&#45;&gt;Node21</title>
<path fill="none" stroke="midnightblue" d="M399.454,-915C412.506,-915 426.021,-915 438.94,-915"/>
<polygon fill="midnightblue" stroke="midnightblue" points="399.106,-911.5 389.105,-915 399.105,-918.5 399.106,-911.5"/>
</g>
<!-- Node24 -->
<g id="node24" class="node"><title>Node24</title>
<g id="a_node24"><a xlink:href="class_ogre_1_1_g_l_e_s2_hardware_pixel_buffer.html" target="_top" xlink:title="Ogre::GLES2HardwarePixel\lBuffer">
<polygon fill="none" stroke="black" points="442,-851 442,-881 581,-881 581,-851 442,-851"/>
<text text-anchor="start" x="450" y="-869" font-family="Helvetica,sans-Serif" font-size="10.00">Ogre::GLES2HardwarePixel</text>
<text text-anchor="middle" x="511.5" y="-858" font-family="Helvetica,sans-Serif" font-size="10.00">Buffer</text>
</a>
</g>
</g>
<!-- Node18&#45;&gt;Node24 -->
<g id="edge23" class="edge"><title>Node18&#45;&gt;Node24</title>
<path fill="none" stroke="midnightblue" d="M369.308,-902.898C394.587,-896.292 426.114,-888.053 452.961,-881.037"/>
<polygon fill="midnightblue" stroke="midnightblue" points="368.387,-899.521 359.597,-905.436 370.157,-906.294 368.387,-899.521"/>
</g>
<!-- Node27 -->
<g id="node27" class="node"><title>Node27</title>
<g id="a_node27"><a xlink:href="class_ogre_1_1_g_l_e_s_hardware_pixel_buffer.html" target="_top" xlink:title="Ogre::GLESHardwarePixelBuffer">
<polygon fill="none" stroke="black" points="431.5,-812.5 431.5,-831.5 591.5,-831.5 591.5,-812.5 431.5,-812.5"/>
<text text-anchor="middle" x="511.5" y="-819.5" font-family="Helvetica,sans-Serif" font-size="10.00">Ogre::GLESHardwarePixelBuffer</text>
</a>
</g>
</g>
<!-- Node18&#45;&gt;Node27 -->
<g id="edge26" class="edge"><title>Node18&#45;&gt;Node27</title>
<path fill="none" stroke="midnightblue" d="M342.091,-898.67C362.717,-881.839 397.188,-856.004 431,-841 439.561,-837.201 448.992,-834.098 458.275,-831.585"/>
<polygon fill="midnightblue" stroke="midnightblue" points="339.597,-896.191 334.141,-905.274 344.07,-901.576 339.597,-896.191"/>
</g>
<!-- Node30 -->
<g id="node30" class="node"><title>Node30</title>
<g id="a_node30"><a xlink:href="class_ogre_1_1_g_l_hardware_pixel_buffer.html" target="_top" xlink:title="Ogre::GLHardwarePixelBuffer">
<polygon fill="none" stroke="red" points="438.5,-774.5 438.5,-793.5 584.5,-793.5 584.5,-774.5 438.5,-774.5"/>
<text text-anchor="middle" x="511.5" y="-781.5" font-family="Helvetica,sans-Serif" font-size="10.00">Ogre::GLHardwarePixelBuffer</text>
</a>
</g>
</g>
<!-- Node18&#45;&gt;Node30 -->
<g id="edge29" class="edge"><title>Node18&#45;&gt;Node30</title>
<path fill="none" stroke="midnightblue" d="M335.035,-897.214C352.937,-872.195 389.014,-826.989 431,-803 437.777,-799.128 445.311,-796.043 452.965,-793.585"/>
<polygon fill="midnightblue" stroke="midnightblue" points="332.145,-895.24 329.285,-905.442 337.883,-899.25 332.145,-895.24"/>
</g>
<!-- Node22 -->
<g id="node22" class="node"><title>Node22</title>
<g id="a_node22"><a xlink:href="class_ogre_1_1_g_l3_plus_render_buffer.html" target="_top" xlink:title="Renderbuffer surface. ">
<polygon fill="none" stroke="black" points="628.5,-964.5 628.5,-983.5 767.5,-983.5 767.5,-964.5 628.5,-964.5"/>
<text text-anchor="middle" x="698" y="-971.5" font-family="Helvetica,sans-Serif" font-size="10.00">Ogre::GL3PlusRenderBuffer</text>
</a>
</g>
</g>
<!-- Node21&#45;&gt;Node22 -->
<g id="edge21" class="edge"><title>Node21&#45;&gt;Node22</title>
<path fill="none" stroke="midnightblue" d="M572.445,-933.214C579.072,-935.416 585.699,-937.702 592,-940 608.284,-945.939 611.612,-949.355 628,-955 637.985,-958.44 648.947,-961.69 659.135,-964.497"/>
<polygon fill="midnightblue" stroke="midnightblue" points="573.366,-929.832 562.774,-930.055 571.193,-936.487 573.366,-929.832"/>
</g>
<!-- Node23 -->
<g id="node23" class="node"><title>Node23</title>
<g id="a_node23"><a xlink:href="class_ogre_1_1_g_l3_plus_texture_buffer.html" target="_top" xlink:title="Texture surface. ">
<polygon fill="none" stroke="black" points="628,-926.5 628,-945.5 768,-945.5 768,-926.5 628,-926.5"/>
<text text-anchor="middle" x="698" y="-933.5" font-family="Helvetica,sans-Serif" font-size="10.00">Ogre::GL3PlusTextureBuffer</text>
</a>
</g>
</g>
<!-- Node21&#45;&gt;Node23 -->
<g id="edge22" class="edge"><title>Node21&#45;&gt;Node23</title>
<path fill="none" stroke="midnightblue" d="M594.307,-924.311C605.51,-925.586 616.921,-926.885 627.867,-928.131"/>
<polygon fill="midnightblue" stroke="midnightblue" points="594.428,-920.803 584.097,-923.149 593.637,-927.758 594.428,-920.803"/>
</g>
<!-- Node25 -->
<g id="node25" class="node"><title>Node25</title>
<g id="a_node25"><a xlink:href="class_ogre_1_1_g_l_e_s2_render_buffer.html" target="_top" xlink:title="Renderbuffer surface. ">
<polygon fill="none" stroke="black" points="631.5,-888.5 631.5,-907.5 764.5,-907.5 764.5,-888.5 631.5,-888.5"/>
<text text-anchor="middle" x="698" y="-895.5" font-family="Helvetica,sans-Serif" font-size="10.00">Ogre::GLES2RenderBuffer</text>
</a>
</g>
</g>
<!-- Node24&#45;&gt;Node25 -->
<g id="edge24" class="edge"><title>Node24&#45;&gt;Node25</title>
<path fill="none" stroke="midnightblue" d="M591.195,-879.649C608.325,-882.62 626.093,-885.702 642.065,-888.472"/>
<polygon fill="midnightblue" stroke="midnightblue" points="591.652,-876.176 581.201,-877.916 590.456,-883.073 591.652,-876.176"/>
</g>
<!-- Node26 -->
<g id="node26" class="node"><title>Node26</title>
<g id="a_node26"><a xlink:href="class_ogre_1_1_g_l_e_s2_texture_buffer.html" target="_top" xlink:title="Texture surface. ">
<polygon fill="none" stroke="black" points="631,-850.5 631,-869.5 765,-869.5 765,-850.5 631,-850.5"/>
<text text-anchor="middle" x="698" y="-857.5" font-family="Helvetica,sans-Serif" font-size="10.00">Ogre::GLES2TextureBuffer</text>
</a>
</g>
</g>
<!-- Node24&#45;&gt;Node26 -->
<g id="edge25" class="edge"><title>Node24&#45;&gt;Node26</title>
<path fill="none" stroke="midnightblue" d="M591.239,-863.439C604.487,-863.009 618.115,-862.565 630.998,-862.146"/>
<polygon fill="midnightblue" stroke="midnightblue" points="591.082,-859.943 581.201,-863.766 591.31,-866.939 591.082,-859.943"/>
</g>
<!-- Node28 -->
<g id="node28" class="node"><title>Node28</title>
<g id="a_node28"><a xlink:href="class_ogre_1_1_g_l_e_s_render_buffer.html" target="_top" xlink:title="Renderbuffer surface. ">
<polygon fill="none" stroke="black" points="634,-812.5 634,-831.5 762,-831.5 762,-812.5 634,-812.5"/>
<text text-anchor="middle" x="698" y="-819.5" font-family="Helvetica,sans-Serif" font-size="10.00">Ogre::GLESRenderBuffer</text>
</a>
</g>
</g>
<!-- Node27&#45;&gt;Node28 -->
<g id="edge27" class="edge"><title>Node27&#45;&gt;Node28</title>
<path fill="none" stroke="midnightblue" d="M601.571,-822C612.524,-822 623.536,-822 633.99,-822"/>
<polygon fill="midnightblue" stroke="midnightblue" points="601.548,-818.5 591.548,-822 601.547,-825.5 601.548,-818.5"/>
</g>
<!-- Node29 -->
<g id="node29" class="node"><title>Node29</title>
<g id="a_node29"><a xlink:href="class_ogre_1_1_g_l_e_s_texture_buffer.html" target="_top" xlink:title="Texture surface. ">
<polygon fill="none" stroke="black" points="633.5,-774.5 633.5,-793.5 762.5,-793.5 762.5,-774.5 633.5,-774.5"/>
<text text-anchor="middle" x="698" y="-781.5" font-family="Helvetica,sans-Serif" font-size="10.00">Ogre::GLESTextureBuffer</text>
</a>
</g>
</g>
<!-- Node27&#45;&gt;Node29 -->
<g id="edge28" class="edge"><title>Node27&#45;&gt;Node29</title>
<path fill="none" stroke="midnightblue" d="M568.867,-810.39C595.107,-804.986 625.936,-798.636 650.778,-793.52"/>
<polygon fill="midnightblue" stroke="midnightblue" points="568.145,-806.966 559.057,-812.411 569.558,-813.822 568.145,-806.966"/>
</g>
<!-- Node31 -->
<g id="node31" class="node"><title>Node31</title>
<g id="a_node31"><a xlink:href="class_ogre_1_1_g_l_render_buffer.html" target="_top" xlink:title="Renderbuffer surface. ">
<polygon fill="none" stroke="black" points="641,-736.5 641,-755.5 755,-755.5 755,-736.5 641,-736.5"/>
<text text-anchor="middle" x="698" y="-743.5" font-family="Helvetica,sans-Serif" font-size="10.00">Ogre::GLRenderBuffer</text>
</a>
</g>
</g>
<!-- Node30&#45;&gt;Node31 -->
<g id="edge30" class="edge"><title>Node30&#45;&gt;Node31</title>
<path fill="none" stroke="midnightblue" d="M568.867,-772.39C595.107,-766.986 625.936,-760.636 650.778,-755.52"/>
<polygon fill="midnightblue" stroke="midnightblue" points="568.145,-768.966 559.057,-774.411 569.558,-775.822 568.145,-768.966"/>
</g>
<!-- Node33 -->
<g id="node33" class="node"><title>Node33</title>
<g id="a_node33"><a xlink:href="class_ogre_1_1_d3_d11_hardware_uniform_buffer.html" target="_top" xlink:title="Specialisation of HardwareBuffer for D3D11. ">
<polygon fill="none" stroke="black" points="436,-725 436,-755 587,-755 587,-725 436,-725"/>
<text text-anchor="start" x="444" y="-743" font-family="Helvetica,sans-Serif" font-size="10.00">Ogre::D3D11HardwareUniform</text>
<text text-anchor="middle" x="511.5" y="-732" font-family="Helvetica,sans-Serif" font-size="10.00">Buffer</text>
</a>
</g>
</g>
<!-- Node32&#45;&gt;Node33 -->
<g id="edge32" class="edge"><title>Node32&#45;&gt;Node33</title>
<path fill="none" stroke="midnightblue" d="M337.704,-634.34C357.028,-656.1 392.999,-693.202 431,-715 437.652,-718.815 444.957,-722.123 452.359,-724.968"/>
<polygon fill="midnightblue" stroke="midnightblue" points="340.131,-631.798 330.923,-626.557 334.854,-636.396 340.131,-631.798"/>
</g>
<!-- Node34 -->
<g id="node34" class="node"><title>Node34</title>
<g id="a_node34"><a xlink:href="class_ogre_1_1_default_hardware_uniform_buffer.html" target="_top" xlink:title="Specialisation of HardwareUniformBuffer for emulation. ">
<polygon fill="none" stroke="black" points="435.5,-676 435.5,-706 587.5,-706 587.5,-676 435.5,-676"/>
<text text-anchor="start" x="443.5" y="-694" font-family="Helvetica,sans-Serif" font-size="10.00">Ogre::DefaultHardwareUniform</text>
<text text-anchor="middle" x="511.5" y="-683" font-family="Helvetica,sans-Serif" font-size="10.00">Buffer</text>
</a>
</g>
</g>
<!-- Node32&#45;&gt;Node34 -->
<g id="edge33" class="edge"><title>Node32&#45;&gt;Node34</title>
<path fill="none" stroke="midnightblue" d="M351.438,-631.046C372.987,-641.408 403.483,-655.476 431,-666 440.054,-669.463 449.815,-672.826 459.291,-675.903"/>
<polygon fill="midnightblue" stroke="midnightblue" points="352.735,-627.786 342.21,-626.572 349.681,-634.084 352.735,-627.786"/>
</g>
<!-- Node35 -->
<g id="node35" class="node"><title>Node35</title>
<g id="a_node35"><a xlink:href="class_ogre_1_1_g_l3_plus_default_hardware_uniform_buffer.html" target="_top" xlink:title="Specialisation of HardwareUniformBuffer for emulation. ">
<polygon fill="none" stroke="black" points="434,-627 434,-657 589,-657 589,-627 434,-627"/>
<text text-anchor="start" x="442" y="-645" font-family="Helvetica,sans-Serif" font-size="10.00">Ogre::GL3PlusDefaultHardware</text>
<text text-anchor="middle" x="511.5" y="-634" font-family="Helvetica,sans-Serif" font-size="10.00">UniformBuffer</text>
</a>
</g>
</g>
<!-- Node32&#45;&gt;Node35 -->
<g id="edge34" class="edge"><title>Node32&#45;&gt;Node35</title>
<path fill="none" stroke="midnightblue" d="M404.528,-627.87C414.307,-629.174 424.267,-630.502 433.971,-631.796"/>
<polygon fill="midnightblue" stroke="midnightblue" points="404.795,-624.375 394.421,-626.523 403.87,-631.314 404.795,-624.375"/>
</g>
<!-- Node36 -->
<g id="node36" class="node"><title>Node36</title>
<g id="a_node36"><a xlink:href="class_ogre_1_1_g_l3_plus_hardware_shader_storage_buffer.html" target="_top" xlink:title="Specialisation of HardwareUniformBuffer for the OpenGL Shader Storage Buffer. ">
<polygon fill="none" stroke="black" points="434.5,-578 434.5,-608 588.5,-608 588.5,-578 434.5,-578"/>
<text text-anchor="start" x="442.5" y="-596" font-family="Helvetica,sans-Serif" font-size="10.00">Ogre::GL3PlusHardwareShader</text>
<text text-anchor="middle" x="511.5" y="-585" font-family="Helvetica,sans-Serif" font-size="10.00">StorageBuffer</text>
</a>
</g>
</g>
<!-- Node32&#45;&gt;Node36 -->
<g id="edge35" class="edge"><title>Node32&#45;&gt;Node36</title>
<path fill="none" stroke="midnightblue" d="M405.213,-606.477C414.873,-605.24 424.699,-603.982 434.272,-602.757"/>
<polygon fill="midnightblue" stroke="midnightblue" points="404.699,-603.014 395.224,-607.755 405.588,-609.957 404.699,-603.014"/>
</g>
<!-- Node37 -->
<g id="node37" class="node"><title>Node37</title>
<g id="a_node37"><a xlink:href="class_ogre_1_1_g_l3_plus_hardware_uniform_buffer.html" target="_top" xlink:title="Specialisation of HardwareUniformBuffer for OpenGL. ">
<polygon fill="none" stroke="black" points="432.5,-529 432.5,-559 590.5,-559 590.5,-529 432.5,-529"/>
<text text-anchor="start" x="440.5" y="-547" font-family="Helvetica,sans-Serif" font-size="10.00">Ogre::GL3PlusHardwareUniform</text>
<text text-anchor="middle" x="511.5" y="-536" font-family="Helvetica,sans-Serif" font-size="10.00">Buffer</text>
</a>
</g>
</g>
<!-- Node32&#45;&gt;Node37 -->
<g id="edge36" class="edge"><title>Node32&#45;&gt;Node37</title>
<path fill="none" stroke="midnightblue" d="M351.403,-602.861C372.934,-592.452 403.423,-578.366 431,-568 439.367,-564.855 448.344,-561.825 457.146,-559.04"/>
<polygon fill="midnightblue" stroke="midnightblue" points="349.637,-599.829 342.183,-607.359 352.706,-606.12 349.637,-599.829"/>
</g>
<!-- Node38 -->
<g id="node38" class="node"><title>Node38</title>
<g id="a_node38"><a xlink:href="class_ogre_1_1_g_l_e_s2_default_hardware_uniform_buffer.html" target="_top" xlink:title="Specialisation of HardwareUniformBuffer for emulation. ">
<polygon fill="none" stroke="black" points="437,-480 437,-510 586,-510 586,-480 437,-480"/>
<text text-anchor="start" x="445" y="-498" font-family="Helvetica,sans-Serif" font-size="10.00">Ogre::GLES2DefaultHardware</text>
<text text-anchor="middle" x="511.5" y="-487" font-family="Helvetica,sans-Serif" font-size="10.00">UniformBuffer</text>
</a>
</g>
</g>
<!-- Node32&#45;&gt;Node38 -->
<g id="edge37" class="edge"><title>Node32&#45;&gt;Node38</title>
<path fill="none" stroke="midnightblue" d="M337.665,-599.591C356.948,-577.758 392.874,-540.579 431,-519 437.023,-515.591 443.582,-512.617 450.264,-510.034"/>
<polygon fill="midnightblue" stroke="midnightblue" points="334.801,-597.551 330.9,-607.402 340.093,-602.134 334.801,-597.551"/>
</g>
<!-- Node39 -->
<g id="node39" class="node"><title>Node39</title>
<g id="a_node39"><a xlink:href="class_ogre_1_1_g_l_e_s2_hardware_uniform_buffer.html" target="_top" xlink:title="Specialisation of HardwareUniformBuffer for OpenGL. ">
<polygon fill="none" stroke="black" points="435.5,-431 435.5,-461 587.5,-461 587.5,-431 435.5,-431"/>
<text text-anchor="start" x="443.5" y="-449" font-family="Helvetica,sans-Serif" font-size="10.00">Ogre::GLES2HardwareUniform</text>
<text text-anchor="middle" x="511.5" y="-438" font-family="Helvetica,sans-Serif" font-size="10.00">Buffer</text>
</a>
</g>
</g>
<!-- Node32&#45;&gt;Node39 -->
<g id="edge38" class="edge"><title>Node32&#45;&gt;Node39</title>
<path fill="none" stroke="midnightblue" d="M331.799,-598.105C347.349,-566.776 382.669,-504.153 431,-470 435.827,-466.589 441.148,-463.654 446.679,-461.132"/>
<polygon fill="midnightblue" stroke="midnightblue" points="328.487,-596.916 327.293,-607.443 334.791,-599.958 328.487,-596.916"/>
</g>
<!-- Node41 -->
<g id="node41" class="node"><title>Node41</title>
<g id="a_node41"><a xlink:href="class_ogre_1_1_d3_d11_hardware_vertex_buffer.html" target="_top" xlink:title="Specialisation of HardwareVertexBuffer for D3D11. ">
<polygon fill="none" stroke="black" points="439,-382 439,-412 584,-412 584,-382 439,-382"/>
<text text-anchor="start" x="447" y="-400" font-family="Helvetica,sans-Serif" font-size="10.00">Ogre::D3D11HardwareVertex</text>
<text text-anchor="middle" x="511.5" y="-389" font-family="Helvetica,sans-Serif" font-size="10.00">Buffer</text>
</a>
</g>
</g>
<!-- Node40&#45;&gt;Node41 -->
<g id="edge40" class="edge"><title>Node40&#45;&gt;Node41</title>
<path fill="none" stroke="midnightblue" d="M332.104,-245.155C347.882,-276.328 383.254,-337.965 431,-372 436.419,-375.863 442.458,-379.145 448.719,-381.93"/>
<polygon fill="midnightblue" stroke="midnightblue" points="335.072,-243.261 327.515,-235.835 328.792,-246.353 335.072,-243.261"/>
</g>
<!-- Node42 -->
<g id="node42" class="node"><title>Node42</title>
<g id="a_node42"><a xlink:href="class_ogre_1_1_d3_d9_hardware_vertex_buffer.html" target="_top" xlink:title="Specialisation of HardwareVertexBuffer for D3D9. ">
<polygon fill="none" stroke="black" points="441.5,-333 441.5,-363 581.5,-363 581.5,-333 441.5,-333"/>
<text text-anchor="start" x="449.5" y="-351" font-family="Helvetica,sans-Serif" font-size="10.00">Ogre::D3D9HardwareVertex</text>
<text text-anchor="middle" x="511.5" y="-340" font-family="Helvetica,sans-Serif" font-size="10.00">Buffer</text>
</a>
</g>
</g>
<!-- Node40&#45;&gt;Node42 -->
<g id="edge41" class="edge"><title>Node40&#45;&gt;Node42</title>
<path fill="none" stroke="midnightblue" d="M338.04,-243.486C357.473,-265.059 393.311,-301.509 431,-323 437.661,-326.798 444.972,-330.096 452.378,-332.936"/>
<polygon fill="midnightblue" stroke="midnightblue" points="340.448,-240.925 331.202,-235.751 335.203,-245.561 340.448,-240.925"/>
</g>
<!-- Node43 -->
<g id="node43" class="node"><title>Node43</title>
<g id="a_node43"><a xlink:href="class_ogre_1_1_default_hardware_vertex_buffer.html" target="_top" xlink:title="Specialisation of HardwareVertexBuffer for emulation. ">
<polygon fill="none" stroke="black" points="438.5,-284 438.5,-314 584.5,-314 584.5,-284 438.5,-284"/>
<text text-anchor="start" x="446.5" y="-302" font-family="Helvetica,sans-Serif" font-size="10.00">Ogre::DefaultHardwareVertex</text>
<text text-anchor="middle" x="511.5" y="-291" font-family="Helvetica,sans-Serif" font-size="10.00">Buffer</text>
</a>
</g>
</g>
<!-- Node40&#45;&gt;Node43 -->
<g id="edge42" class="edge"><title>Node40&#45;&gt;Node43</title>
<path fill="none" stroke="midnightblue" d="M351.863,-239.902C373.405,-250.013 403.704,-263.681 431,-274 440.203,-277.479 450.126,-280.874 459.737,-283.984"/>
<polygon fill="midnightblue" stroke="midnightblue" points="353.16,-236.644 342.624,-235.531 350.167,-242.971 353.16,-236.644"/>
</g>
<!-- Node44 -->
<g id="node44" class="node"><title>Node44</title>
<g id="a_node44"><a xlink:href="class_ogre_1_1_g_l3_plus_default_hardware_vertex_buffer.html" target="_top" xlink:title="Specialisation of HardwareVertexBuffer for emulation. ">
<polygon fill="none" stroke="black" points="434,-235 434,-265 589,-265 589,-235 434,-235"/>
<text text-anchor="start" x="442" y="-253" font-family="Helvetica,sans-Serif" font-size="10.00">Ogre::GL3PlusDefaultHardware</text>
<text text-anchor="middle" x="511.5" y="-242" font-family="Helvetica,sans-Serif" font-size="10.00">VertexBuffer</text>
</a>
</g>
</g>
<!-- Node40&#45;&gt;Node44 -->
<g id="edge43" class="edge"><title>Node40&#45;&gt;Node44</title>
<path fill="none" stroke="midnightblue" d="M401.995,-236.111C412.5,-237.456 423.258,-238.833 433.724,-240.173"/>
<polygon fill="midnightblue" stroke="midnightblue" points="402.383,-232.633 392.019,-234.834 401.494,-239.576 402.383,-232.633"/>
</g>
<!-- Node45 -->
<g id="node45" class="node"><title>Node45</title>
<g id="a_node45"><a xlink:href="class_ogre_1_1_g_l3_plus_hardware_vertex_buffer.html" target="_top" xlink:title="Specialisation of HardwareVertexBuffer for OpenGL. ">
<polygon fill="none" stroke="black" points="435.5,-186 435.5,-216 587.5,-216 587.5,-186 435.5,-186"/>
<text text-anchor="start" x="443.5" y="-204" font-family="Helvetica,sans-Serif" font-size="10.00">Ogre::GL3PlusHardwareVertex</text>
<text text-anchor="middle" x="511.5" y="-193" font-family="Helvetica,sans-Serif" font-size="10.00">Buffer</text>
</a>
</g>
</g>
<!-- Node40&#45;&gt;Node45 -->
<g id="edge44" class="edge"><title>Node40&#45;&gt;Node45</title>
<path fill="none" stroke="midnightblue" d="M402.045,-215.461C413.067,-213.991 424.367,-212.484 435.315,-211.025"/>
<polygon fill="midnightblue" stroke="midnightblue" points="401.469,-212.006 392.019,-216.797 402.394,-218.945 401.469,-212.006"/>
</g>
<!-- Node46 -->
<g id="node46" class="node"><title>Node46</title>
<g id="a_node46"><a xlink:href="class_ogre_1_1_g_l_default_hardware_vertex_buffer.html" target="_top" xlink:title="Specialisation of HardwareVertexBuffer for emulation. ">
<polygon fill="none" stroke="black" points="432.5,-137 432.5,-167 590.5,-167 590.5,-137 432.5,-137"/>
<text text-anchor="start" x="440.5" y="-155" font-family="Helvetica,sans-Serif" font-size="10.00">Ogre::GLDefaultHardwareVertex</text>
<text text-anchor="middle" x="511.5" y="-144" font-family="Helvetica,sans-Serif" font-size="10.00">Buffer</text>
</a>
</g>
</g>
<!-- Node40&#45;&gt;Node46 -->
<g id="edge45" class="edge"><title>Node40&#45;&gt;Node46</title>
<path fill="none" stroke="midnightblue" d="M350.98,-211.725C372.514,-201.064 403.199,-186.572 431,-176 439.22,-172.874 448.037,-169.875 456.699,-167.12"/>
<polygon fill="midnightblue" stroke="midnightblue" points="349.153,-208.725 341.772,-216.326 352.282,-214.987 349.153,-208.725"/>
</g>
<!-- Node47 -->
<g id="node47" class="node"><title>Node47</title>
<g id="a_node47"><a xlink:href="class_ogre_1_1_g_l_e_s2_default_hardware_vertex_buffer.html" target="_top" xlink:title="Specialisation of HardwareVertexBuffer for emulation. ">
<polygon fill="none" stroke="black" points="437,-88 437,-118 586,-118 586,-88 437,-88"/>
<text text-anchor="start" x="445" y="-106" font-family="Helvetica,sans-Serif" font-size="10.00">Ogre::GLES2DefaultHardware</text>
<text text-anchor="middle" x="511.5" y="-95" font-family="Helvetica,sans-Serif" font-size="10.00">VertexBuffer</text>
</a>
</g>
</g>
<!-- Node40&#45;&gt;Node47 -->
<g id="edge46" class="edge"><title>Node40&#45;&gt;Node47</title>
<path fill="none" stroke="midnightblue" d="M337.627,-208.406C356.869,-186.342 392.753,-148.776 431,-127 437.014,-123.576 443.568,-120.592 450.247,-118.004"/>
<polygon fill="midnightblue" stroke="midnightblue" points="334.716,-206.424 330.877,-216.299 340.036,-210.974 334.716,-206.424"/>
</g>
<!-- Node48 -->
<g id="node48" class="node"><title>Node48</title>
<g id="a_node48"><a xlink:href="class_ogre_1_1_g_l_e_s_default_hardware_vertex_buffer.html" target="_top" xlink:title="Specialisation of HardwareVertexBuffer for emulation. ">
<polygon fill="none" stroke="black" points="440,-39 440,-69 583,-69 583,-39 440,-39"/>
<text text-anchor="start" x="448" y="-57" font-family="Helvetica,sans-Serif" font-size="10.00">Ogre::GLESDefaultHardware</text>
<text text-anchor="middle" x="511.5" y="-46" font-family="Helvetica,sans-Serif" font-size="10.00">VertexBuffer</text>
</a>
</g>
</g>
<!-- Node40&#45;&gt;Node48 -->
<g id="edge47" class="edge"><title>Node40&#45;&gt;Node48</title>
<path fill="none" stroke="midnightblue" d="M331.765,-206.976C347.264,-175.433 382.511,-112.382 431,-78 435.822,-74.5809 441.138,-71.6414 446.668,-69.1155"/>
<polygon fill="midnightblue" stroke="midnightblue" points="328.425,-205.846 327.275,-216.378 334.742,-208.862 328.425,-205.846"/>
</g>
<!-- Node49 -->
<g id="node49" class="node"><title>Node49</title>
<g id="a_node49"><a xlink:href="class_ogre_1_1_g_l_hardware_vertex_buffer.html" target="_top" xlink:title="Specialisation of HardwareVertexBuffer for OpenGL. ">
<polygon fill="none" stroke="black" points="435,-0.5 435,-19.5 588,-19.5 588,-0.5 435,-0.5"/>
<text text-anchor="middle" x="511.5" y="-7.5" font-family="Helvetica,sans-Serif" font-size="10.00">Ogre::GLHardwareVertexBuffer</text>
</a>
</g>
</g>
<!-- Node40&#45;&gt;Node49 -->
<g id="edge48" class="edge"><title>Node40&#45;&gt;Node49</title>
<path fill="none" stroke="midnightblue" d="M327.913,-206.571C339.042,-166.706 370.07,-75.5078 431,-29 436.076,-25.1254 441.824,-22.0259 447.851,-19.5487"/>
<polygon fill="midnightblue" stroke="midnightblue" points="324.494,-205.81 325.294,-216.375 331.257,-207.617 324.494,-205.81"/>
</g>
</g>
</svg>
