<?xml version="1.0" encoding="UTF-8" standalone="no"?>
<!DOCTYPE svg PUBLIC "-//W3C//DTD SVG 1.1//EN"
 "http://www.w3.org/Graphics/SVG/1.1/DTD/svg11.dtd">
<!-- Generated by graphviz version 2.38.0 (20140413.2041)
 -->
<!-- Title: Ogre::GLESHardwarePixelBuffer Pages: 1 -->
<svg width="284pt" height="252pt"
 viewBox="0.00 0.00 283.50 252.00" xmlns="http://www.w3.org/2000/svg" xmlns:xlink="http://www.w3.org/1999/xlink">
<g id="graph0" class="graph" transform="scale(1 1) rotate(0) translate(4 248)">
<title>Ogre::GLESHardwarePixelBuffer</title>
<!-- Node1 -->
<g id="node1" class="node"><title>Node1</title>
<polygon fill="#bfbfbf" stroke="black" points="57,-56.5 57,-75.5 217,-75.5 217,-56.5 57,-56.5"/>
<text text-anchor="middle" x="137" y="-63.5" font-family="Helvetica,sans-Serif" font-size="10.00">Ogre::GLESHardwarePixelBuffer</text>
</g>
<!-- Node5 -->
<g id="node5" class="node"><title>Node5</title>
<g id="a_node5"><a xlink:href="class_ogre_1_1_g_l_e_s_render_buffer.html" target="_top" xlink:title="Renderbuffer surface. ">
<polygon fill="none" stroke="black" points="0,-0.5 0,-19.5 128,-19.5 128,-0.5 0,-0.5"/>
<text text-anchor="middle" x="64" y="-7.5" font-family="Helvetica,sans-Serif" font-size="10.00">Ogre::GLESRenderBuffer</text>
</a>
</g>
</g>
<!-- Node1&#45;&gt;Node5 -->
<g id="edge4" class="edge"><title>Node1&#45;&gt;Node5</title>
<path fill="none" stroke="midnightblue" d="M116.858,-50.1008C103.721,-40.3824 87.0179,-28.0269 75.9421,-19.8339"/>
<polygon fill="midnightblue" stroke="midnightblue" points="115.15,-53.1907 125.271,-56.324 119.313,-47.5631 115.15,-53.1907"/>
</g>
<!-- Node6 -->
<g id="node6" class="node"><title>Node6</title>
<g id="a_node6"><a xlink:href="class_ogre_1_1_g_l_e_s_texture_buffer.html" target="_top" xlink:title="Texture surface. ">
<polygon fill="none" stroke="black" points="146.5,-0.5 146.5,-19.5 275.5,-19.5 275.5,-0.5 146.5,-0.5"/>
<text text-anchor="middle" x="211" y="-7.5" font-family="Helvetica,sans-Serif" font-size="10.00">Ogre::GLESTextureBuffer</text>
</a>
</g>
</g>
<!-- Node1&#45;&gt;Node6 -->
<g id="edge5" class="edge"><title>Node1&#45;&gt;Node6</title>
<path fill="none" stroke="midnightblue" d="M157.034,-50.3804C170.409,-40.6204 187.559,-28.1057 198.894,-19.8339"/>
<polygon fill="midnightblue" stroke="midnightblue" points="154.904,-47.602 148.889,-56.324 159.03,-53.2565 154.904,-47.602"/>
</g>
<!-- Node2 -->
<g id="node2" class="node"><title>Node2</title>
<g id="a_node2"><a xlink:href="class_ogre_1_1_hardware_pixel_buffer.html" target="_top" xlink:title="Specialisation of HardwareBuffer for a pixel buffer. ">
<polygon fill="none" stroke="black" points="70,-112.5 70,-131.5 204,-131.5 204,-112.5 70,-112.5"/>
<text text-anchor="middle" x="137" y="-119.5" font-family="Helvetica,sans-Serif" font-size="10.00">Ogre::HardwarePixelBuffer</text>
</a>
</g>
</g>
<!-- Node2&#45;&gt;Node1 -->
<g id="edge1" class="edge"><title>Node2&#45;&gt;Node1</title>
<path fill="none" stroke="midnightblue" d="M137,-101.805C137,-92.9102 137,-82.7798 137,-75.7511"/>
<polygon fill="midnightblue" stroke="midnightblue" points="133.5,-102.083 137,-112.083 140.5,-102.083 133.5,-102.083"/>
</g>
<!-- Node3 -->
<g id="node3" class="node"><title>Node3</title>
<g id="a_node3"><a xlink:href="class_ogre_1_1_hardware_buffer.html" target="_top" xlink:title="Abstract class defining common features of hardware buffers. ">
<polygon fill="none" stroke="black" points="81,-168.5 81,-187.5 193,-187.5 193,-168.5 81,-168.5"/>
<text text-anchor="middle" x="137" y="-175.5" font-family="Helvetica,sans-Serif" font-size="10.00">Ogre::HardwareBuffer</text>
</a>
</g>
</g>
<!-- Node3&#45;&gt;Node2 -->
<g id="edge2" class="edge"><title>Node3&#45;&gt;Node2</title>
<path fill="none" stroke="midnightblue" d="M137,-157.805C137,-148.91 137,-138.78 137,-131.751"/>
<polygon fill="midnightblue" stroke="midnightblue" points="133.5,-158.083 137,-168.083 140.5,-158.083 133.5,-158.083"/>
</g>
<!-- Node4 -->
<g id="node4" class="node"><title>Node4</title>
<g id="a_node4"><a xlink:href="class_ogre_1_1_allocated_object.html" target="_top" xlink:title="Superclass for all objects that wish to use custom memory allocators when their new / delete operator...">
<polygon fill="none" stroke="black" points="104.5,-224.5 104.5,-243.5 169.5,-243.5 169.5,-224.5 104.5,-224.5"/>
<text text-anchor="middle" x="137" y="-231.5" font-family="Helvetica,sans-Serif" font-size="10.00">BufferAlloc</text>
</a>
</g>
</g>
<!-- Node4&#45;&gt;Node3 -->
<g id="edge3" class="edge"><title>Node4&#45;&gt;Node3</title>
<path fill="none" stroke="midnightblue" d="M137,-213.805C137,-204.91 137,-194.78 137,-187.751"/>
<polygon fill="midnightblue" stroke="midnightblue" points="133.5,-214.083 137,-224.083 140.5,-214.083 133.5,-214.083"/>
</g>
</g>
</svg>
