<?xml version="1.0" encoding="UTF-8" standalone="no"?>
<!DOCTYPE svg PUBLIC "-//W3C//DTD SVG 1.1//EN"
 "http://www.w3.org/Graphics/SVG/1.1/DTD/svg11.dtd">
<!-- Generated by graphviz version 2.38.0 (20140413.2041)
 -->
<!-- Title: Ogre::EGLContext Pages: 1 -->
<svg width="415pt" height="140pt"
 viewBox="0.00 0.00 415.00 140.00" xmlns="http://www.w3.org/2000/svg" xmlns:xlink="http://www.w3.org/1999/xlink">
<g id="graph0" class="graph" transform="scale(1 1) rotate(0) translate(4 136)">
<title>Ogre::EGLContext</title>
<!-- Node1 -->
<g id="node1" class="node"><title>Node1</title>
<polygon fill="#bfbfbf" stroke="black" points="162.5,-56.5 162.5,-75.5 260.5,-75.5 260.5,-56.5 162.5,-56.5"/>
<text text-anchor="middle" x="211.5" y="-63.5" font-family="Helvetica,sans-Serif" font-size="10.00">Ogre::EGLContext</text>
</g>
<!-- Node4 -->
<g id="node4" class="node"><title>Node4</title>
<g id="a_node4"><a xlink:href="class_ogre_1_1_android_e_g_l_context.html" target="_top" xlink:title="Ogre::AndroidEGLContext">
<polygon fill="none" stroke="black" points="0,-0.5 0,-19.5 131,-19.5 131,-0.5 0,-0.5"/>
<text text-anchor="middle" x="65.5" y="-7.5" font-family="Helvetica,sans-Serif" font-size="10.00">Ogre::AndroidEGLContext</text>
</a>
</g>
</g>
<!-- Node1&#45;&gt;Node4 -->
<g id="edge3" class="edge"><title>Node1&#45;&gt;Node4</title>
<path fill="none" stroke="midnightblue" d="M178.801,-52.9058C151.352,-42.7536 112.832,-28.5063 88.5259,-19.5164"/>
<polygon fill="midnightblue" stroke="midnightblue" points="177.773,-56.2572 188.366,-56.4435 180.201,-49.6919 177.773,-56.2572"/>
</g>
<!-- Node5 -->
<g id="node5" class="node"><title>Node5</title>
<g id="a_node5"><a xlink:href="class_ogre_1_1_win32_e_g_l_context.html" target="_top" xlink:title="Ogre::Win32EGLContext">
<polygon fill="none" stroke="black" points="149,-0.5 149,-19.5 274,-19.5 274,-0.5 149,-0.5"/>
<text text-anchor="middle" x="211.5" y="-7.5" font-family="Helvetica,sans-Serif" font-size="10.00">Ogre::Win32EGLContext</text>
</a>
</g>
</g>
<!-- Node1&#45;&gt;Node5 -->
<g id="edge4" class="edge"><title>Node1&#45;&gt;Node5</title>
<path fill="none" stroke="midnightblue" d="M211.5,-45.8045C211.5,-36.9102 211.5,-26.7798 211.5,-19.7511"/>
<polygon fill="midnightblue" stroke="midnightblue" points="208,-46.083 211.5,-56.083 215,-46.083 208,-46.083"/>
</g>
<!-- Node6 -->
<g id="node6" class="node"><title>Node6</title>
<g id="a_node6"><a xlink:href="class_ogre_1_1_x11_e_g_l_context.html" target="_top" xlink:title="Ogre::X11EGLContext">
<polygon fill="none" stroke="black" points="292,-0.5 292,-19.5 407,-19.5 407,-0.5 292,-0.5"/>
<text text-anchor="middle" x="349.5" y="-7.5" font-family="Helvetica,sans-Serif" font-size="10.00">Ogre::X11EGLContext</text>
</a>
</g>
</g>
<!-- Node1&#45;&gt;Node6 -->
<g id="edge5" class="edge"><title>Node1&#45;&gt;Node6</title>
<path fill="none" stroke="midnightblue" d="M242.749,-52.772C268.671,-42.6287 304.862,-28.4669 327.736,-19.5164"/>
<polygon fill="midnightblue" stroke="midnightblue" points="241.404,-49.5401 233.367,-56.4435 243.954,-56.0588 241.404,-49.5401"/>
</g>
<!-- Node2 -->
<g id="node2" class="node"><title>Node2</title>
<g id="a_node2"><a xlink:href="class_ogre_1_1_g_l_context.html" target="_top" xlink:title="Class that encapsulates an GL context. ">
<polygon fill="none" stroke="black" points="108,-112.5 108,-131.5 199,-131.5 199,-112.5 108,-112.5"/>
<text text-anchor="middle" x="153.5" y="-119.5" font-family="Helvetica,sans-Serif" font-size="10.00">Ogre::GLContext</text>
</a>
</g>
</g>
<!-- Node2&#45;&gt;Node1 -->
<g id="edge1" class="edge"><title>Node2&#45;&gt;Node1</title>
<path fill="none" stroke="midnightblue" d="M170.413,-105.253C180.703,-95.6731 193.466,-83.7906 202.012,-75.8339"/>
<polygon fill="midnightblue" stroke="midnightblue" points="167.753,-102.948 162.819,-112.324 172.523,-108.071 167.753,-102.948"/>
</g>
<!-- Node3 -->
<g id="node3" class="node"><title>Node3</title>
<g id="a_node3"><a xlink:href="class_ogre_1_1_g_l_e_s_context.html" target="_top" xlink:title="Class that encapsulates an GL context. ">
<polygon fill="none" stroke="black" points="217.5,-112.5 217.5,-131.5 321.5,-131.5 321.5,-112.5 217.5,-112.5"/>
<text text-anchor="middle" x="269.5" y="-119.5" font-family="Helvetica,sans-Serif" font-size="10.00">Ogre::GLESContext</text>
</a>
</g>
</g>
<!-- Node3&#45;&gt;Node1 -->
<g id="edge2" class="edge"><title>Node3&#45;&gt;Node1</title>
<path fill="none" stroke="midnightblue" d="M252.587,-105.253C242.297,-95.6731 229.534,-83.7906 220.988,-75.8339"/>
<polygon fill="midnightblue" stroke="midnightblue" points="250.477,-108.071 260.181,-112.324 255.247,-102.948 250.477,-108.071"/>
</g>
</g>
</svg>
