<?xml version="1.0" encoding="UTF-8" standalone="no"?>
<!DOCTYPE svg PUBLIC "-//W3C//DTD SVG 1.1//EN"
 "http://www.w3.org/Graphics/SVG/1.1/DTD/svg11.dtd">
<!-- Generated by graphviz version 2.38.0 (20140413.2041)
 -->
<!-- Title: Bites Pages: 1 -->
<svg width="251pt" height="231pt"
 viewBox="0.00 0.00 251.00 231.00" xmlns="http://www.w3.org/2000/svg" xmlns:xlink="http://www.w3.org/1999/xlink">
<g id="graph0" class="graph" transform="scale(1 1) rotate(0) translate(4 227)">
<title>Bites</title>
<g id="clust1" class="cluster"><title>clusterdir_08f45fe6822aeb4ce2bc268e3b1361be</title>
<g id="a_clust1"><a xlink:href="dir_08f45fe6822aeb4ce2bc268e3b1361be.html" target="_top" xlink:title="Components">
<polygon fill="#ddddee" stroke="black" points="77,-128 77,-215 235,-215 235,-128 77,-128"/>
<text text-anchor="middle" x="156" y="-203" font-family="Helvetica,sans-Serif" font-size="10.00">Components</text>
</a>
</g>
</g>
<g id="clust2" class="cluster"><title>clusterdir_8e0398f2f491aa57286b06c2d76cddc7</title>
<g id="a_clust2"><a xlink:href="dir_8e0398f2f491aa57286b06c2d76cddc7.html" target="_top">
<polygon fill="#eeeeff" stroke="black" points="85,-136 85,-188 227,-188 227,-136 85,-136"/>
</a>
</g>
</g>
<!-- dir_8e0398f2f491aa57286b06c2d76cddc7 -->
<g id="node1" class="node"><title>dir_8e0398f2f491aa57286b06c2d76cddc7</title>
<text text-anchor="middle" x="192" y="-159.5" font-family="Helvetica,sans-Serif" font-size="10.00">Bites</text>
</g>
<!-- dir_d32b938072b268341fd046bfca590d66 -->
<g id="node2" class="node"><title>dir_d32b938072b268341fd046bfca590d66</title>
<g id="a_node2"><a xlink:href="dir_d32b938072b268341fd046bfca590d66.html" target="_top" xlink:title="include">
<polygon fill="white" stroke="black" points="147,-180 93,-180 93,-144 147,-144 147,-180"/>
<text text-anchor="middle" x="120" y="-159.5" font-family="Helvetica,sans-Serif" font-size="10.00">include</text>
</a>
</g>
</g>
<!-- dir_8706f896e4fe8955ace027bce9ba5dd5 -->
<g id="node3" class="node"><title>dir_8706f896e4fe8955ace027bce9ba5dd5</title>
<g id="a_node3"><a xlink:href="dir_8706f896e4fe8955ace027bce9ba5dd5.html" target="_top" xlink:title="Overlay">
<polygon fill="none" stroke="red" points="54,-108 0,-108 0,-72 54,-72 54,-108"/>
<text text-anchor="middle" x="27" y="-87.5" font-family="Helvetica,sans-Serif" font-size="10.00">Overlay</text>
</a>
</g>
</g>
<!-- dir_d32b938072b268341fd046bfca590d66&#45;&gt;dir_8706f896e4fe8955ace027bce9ba5dd5 -->
<g id="edge3" class="edge"><title>dir_d32b938072b268341fd046bfca590d66&#45;&gt;dir_8706f896e4fe8955ace027bce9ba5dd5</title>
<path fill="none" stroke="black" d="M97.0112,-143.697C85.1861,-134.796 70.608,-123.823 57.8214,-114.199"/>
<polygon fill="black" stroke="black" points="59.8188,-111.322 49.7243,-108.104 55.6092,-116.915 59.8188,-111.322"/>
<g id="a_edge3&#45;headlabel"><a xlink:href="dir_000014_000016.html" target="_top" xlink:title="7">
<text text-anchor="middle" x="64.3983" y="-108.715" font-family="Helvetica,sans-Serif" font-size="10.00">7</text>
</a>
</g>
</g>
<!-- dir_f27769e102a75ce27486673abda6174e -->
<g id="node4" class="node"><title>dir_f27769e102a75ce27486673abda6174e</title>
<g id="a_node4"><a xlink:href="dir_f27769e102a75ce27486673abda6174e.html" target="_top" xlink:title="RTShaderSystem">
<polygon fill="none" stroke="red" points="167.5,-108 72.5,-108 72.5,-72 167.5,-72 167.5,-108"/>
<text text-anchor="middle" x="120" y="-87.5" font-family="Helvetica,sans-Serif" font-size="10.00">RTShaderSystem</text>
</a>
</g>
</g>
<!-- dir_d32b938072b268341fd046bfca590d66&#45;&gt;dir_f27769e102a75ce27486673abda6174e -->
<g id="edge4" class="edge"><title>dir_d32b938072b268341fd046bfca590d66&#45;&gt;dir_f27769e102a75ce27486673abda6174e</title>
<path fill="none" stroke="black" d="M120,-143.697C120,-135.983 120,-126.712 120,-118.112"/>
<polygon fill="black" stroke="black" points="123.5,-118.104 120,-108.104 116.5,-118.104 123.5,-118.104"/>
<g id="a_edge4&#45;headlabel"><a xlink:href="dir_000014_000060.html" target="_top" xlink:title="1">
<text text-anchor="middle" x="126.339" y="-119.199" font-family="Helvetica,sans-Serif" font-size="10.00">1</text>
</a>
</g>
</g>
<!-- dir_60895d3e9d196336faf5d9dad71ee9d7 -->
<g id="node5" class="node"><title>dir_60895d3e9d196336faf5d9dad71ee9d7</title>
<g id="a_node5"><a xlink:href="dir_60895d3e9d196336faf5d9dad71ee9d7.html" target="_top" xlink:title="OgreMain">
<polygon fill="none" stroke="red" points="149.5,-36 90.5,-36 90.5,-0 149.5,-0 149.5,-36"/>
<text text-anchor="middle" x="120" y="-15.5" font-family="Helvetica,sans-Serif" font-size="10.00">OgreMain</text>
</a>
</g>
</g>
<!-- dir_d32b938072b268341fd046bfca590d66&#45;&gt;dir_60895d3e9d196336faf5d9dad71ee9d7 -->
<g id="edge5" class="edge"><title>dir_d32b938072b268341fd046bfca590d66&#45;&gt;dir_60895d3e9d196336faf5d9dad71ee9d7</title>
<path fill="none" stroke="black" d="M138.547,-143.915C155.084,-128.657 176.734,-108.612 177,-108 183.391,-93.3316 183.391,-86.6684 177,-72 172.067,-60.6765 163.389,-50.6824 154.271,-42.5119"/>
<polygon fill="black" stroke="black" points="156.499,-39.8124 146.58,-36.0884 152.011,-45.185 156.499,-39.8124"/>
<g id="a_edge5&#45;headlabel"><a xlink:href="dir_000014_000000.html" target="_top" xlink:title="17">
<text text-anchor="middle" x="161.078" y="-37.4374" font-family="Helvetica,sans-Serif" font-size="10.00">17</text>
</a>
</g>
</g>
<!-- dir_8706f896e4fe8955ace027bce9ba5dd5&#45;&gt;dir_60895d3e9d196336faf5d9dad71ee9d7 -->
<g id="edge1" class="edge"><title>dir_8706f896e4fe8955ace027bce9ba5dd5&#45;&gt;dir_60895d3e9d196336faf5d9dad71ee9d7</title>
<path fill="none" stroke="black" d="M49.9888,-71.6966C61.8139,-62.796 76.392,-51.8232 89.1786,-42.1989"/>
<polygon fill="black" stroke="black" points="91.3908,-44.9145 97.2757,-36.1043 87.1812,-39.3217 91.3908,-44.9145"/>
<g id="a_edge1&#45;headlabel"><a xlink:href="dir_000016_000000.html" target="_top" xlink:title="23">
<text text-anchor="middle" x="90.2263" y="-46.8447" font-family="Helvetica,sans-Serif" font-size="10.00">23</text>
</a>
</g>
</g>
<!-- dir_f27769e102a75ce27486673abda6174e&#45;&gt;dir_60895d3e9d196336faf5d9dad71ee9d7 -->
<g id="edge2" class="edge"><title>dir_f27769e102a75ce27486673abda6174e&#45;&gt;dir_60895d3e9d196336faf5d9dad71ee9d7</title>
<path fill="none" stroke="black" d="M120,-71.6966C120,-63.9827 120,-54.7125 120,-46.1124"/>
<polygon fill="black" stroke="black" points="123.5,-46.1043 120,-36.1043 116.5,-46.1044 123.5,-46.1043"/>
<g id="a_edge2&#45;headlabel"><a xlink:href="dir_000060_000000.html" target="_top" xlink:title="36">
<text text-anchor="middle" x="126.339" y="-47.199" font-family="Helvetica,sans-Serif" font-size="10.00">36</text>
</a>
</g>
</g>
</g>
</svg>
