<?xml version="1.0" encoding="UTF-8" standalone="no"?>
<!DOCTYPE svg PUBLIC "-//W3C//DTD SVG 1.1//EN"
 "http://www.w3.org/Graphics/SVG/1.1/DTD/svg11.dtd">
<!-- Generated by graphviz version 2.38.0 (20140413.2041)
 -->
<!-- Title: EGL Pages: 1 -->
<svg width="326pt" height="159pt"
 viewBox="0.00 0.00 326.00 159.00" xmlns="http://www.w3.org/2000/svg" xmlns:xlink="http://www.w3.org/1999/xlink">
<g id="graph0" class="graph" transform="scale(1 1) rotate(0) translate(4 155)">
<title>EGL</title>
<g id="clust1" class="cluster"><title>clusterdir_48608e3db42cd9de14e5d64fb39a136c</title>
<g id="a_clust1"><a xlink:href="dir_48608e3db42cd9de14e5d64fb39a136c.html" target="_top" xlink:title="include">
<polygon fill="#ddddee" stroke="black" points="8,-56 8,-143 310,-143 310,-56 8,-56"/>
<text text-anchor="middle" x="159" y="-131" font-family="Helvetica,sans-Serif" font-size="10.00">include</text>
</a>
</g>
</g>
<g id="clust2" class="cluster"><title>clusterdir_230e93df8323b03e1f777ad5a69b8e11</title>
<g id="a_clust2"><a xlink:href="dir_230e93df8323b03e1f777ad5a69b8e11.html" target="_top">
<polygon fill="#eeeeff" stroke="black" points="16,-64 16,-116 302,-116 302,-64 16,-64"/>
</a>
</g>
</g>
<!-- dir_230e93df8323b03e1f777ad5a69b8e11 -->
<g id="node1" class="node"><title>dir_230e93df8323b03e1f777ad5a69b8e11</title>
<text text-anchor="middle" x="267" y="-87.5" font-family="Helvetica,sans-Serif" font-size="10.00">EGL</text>
</g>
<!-- dir_60895d3e9d196336faf5d9dad71ee9d7 -->
<g id="node5" class="node"><title>dir_60895d3e9d196336faf5d9dad71ee9d7</title>
<g id="a_node5"><a xlink:href="dir_60895d3e9d196336faf5d9dad71ee9d7.html" target="_top" xlink:title="OgreMain">
<polygon fill="none" stroke="red" points="152.5,-36 93.5,-36 93.5,-0 152.5,-0 152.5,-36"/>
<text text-anchor="middle" x="123" y="-15.5" font-family="Helvetica,sans-Serif" font-size="10.00">OgreMain</text>
</a>
</g>
</g>
<!-- dir_230e93df8323b03e1f777ad5a69b8e11&#45;&gt;dir_60895d3e9d196336faf5d9dad71ee9d7 -->
<g id="edge3" class="edge"><title>dir_230e93df8323b03e1f777ad5a69b8e11&#45;&gt;dir_60895d3e9d196336faf5d9dad71ee9d7</title>
<path fill="none" stroke="black" d="M251.309,-71.996C245.377,-66.3126 238.289,-60.33 231,-56 209.817,-43.417 183.74,-34.3298 162.517,-28.3104"/>
<polygon fill="black" stroke="black" points="163.406,-24.925 152.838,-25.6796 161.57,-31.6799 163.406,-24.925"/>
<g id="a_edge3&#45;headlabel"><a xlink:href="dir_000005_000000.html" target="_top" xlink:title="4">
<text text-anchor="middle" x="167.619" y="-20.6278" font-family="Helvetica,sans-Serif" font-size="10.00">4</text>
</a>
</g>
</g>
<!-- dir_eff3ab67f248eee4de196dc90ca319da -->
<g id="node2" class="node"><title>dir_eff3ab67f248eee4de196dc90ca319da</title>
<g id="a_node2"><a xlink:href="dir_eff3ab67f248eee4de196dc90ca319da.html" target="_top" xlink:title="Android">
<polygon fill="white" stroke="black" points="222,-108 168,-108 168,-72 222,-72 222,-108"/>
<text text-anchor="middle" x="195" y="-87.5" font-family="Helvetica,sans-Serif" font-size="10.00">Android</text>
</a>
</g>
</g>
<!-- dir_3cf4e33331ad0d88f30ace832419fec7 -->
<g id="node3" class="node"><title>dir_3cf4e33331ad0d88f30ace832419fec7</title>
<g id="a_node3"><a xlink:href="dir_3cf4e33331ad0d88f30ace832419fec7.html" target="_top" xlink:title="WIN32">
<polygon fill="white" stroke="black" points="150,-108 96,-108 96,-72 150,-72 150,-108"/>
<text text-anchor="middle" x="123" y="-87.5" font-family="Helvetica,sans-Serif" font-size="10.00">WIN32</text>
</a>
</g>
</g>
<!-- dir_3cf4e33331ad0d88f30ace832419fec7&#45;&gt;dir_60895d3e9d196336faf5d9dad71ee9d7 -->
<g id="edge2" class="edge"><title>dir_3cf4e33331ad0d88f30ace832419fec7&#45;&gt;dir_60895d3e9d196336faf5d9dad71ee9d7</title>
<path fill="none" stroke="black" d="M123,-71.6966C123,-63.9827 123,-54.7125 123,-46.1124"/>
<polygon fill="black" stroke="black" points="126.5,-46.1043 123,-36.1043 119.5,-46.1044 126.5,-46.1043"/>
<g id="a_edge2&#45;headlabel"><a xlink:href="dir_000039_000000.html" target="_top" xlink:title="1">
<text text-anchor="middle" x="129.339" y="-47.199" font-family="Helvetica,sans-Serif" font-size="10.00">1</text>
</a>
</g>
</g>
<!-- dir_b7a952e454acfd51369cab7359f63cd5 -->
<g id="node4" class="node"><title>dir_b7a952e454acfd51369cab7359f63cd5</title>
<g id="a_node4"><a xlink:href="dir_b7a952e454acfd51369cab7359f63cd5.html" target="_top" xlink:title="X11">
<polygon fill="white" stroke="black" points="78,-108 24,-108 24,-72 78,-72 78,-108"/>
<text text-anchor="middle" x="51" y="-87.5" font-family="Helvetica,sans-Serif" font-size="10.00">X11</text>
</a>
</g>
</g>
<!-- dir_b7a952e454acfd51369cab7359f63cd5&#45;&gt;dir_60895d3e9d196336faf5d9dad71ee9d7 -->
<g id="edge1" class="edge"><title>dir_b7a952e454acfd51369cab7359f63cd5&#45;&gt;dir_60895d3e9d196336faf5d9dad71ee9d7</title>
<path fill="none" stroke="black" d="M68.7978,-71.6966C77.604,-63.135 88.3821,-52.6562 98.0011,-43.3045"/>
<polygon fill="black" stroke="black" points="100.677,-45.5846 105.407,-36.1043 95.7972,-40.5657 100.677,-45.5846"/>
<g id="a_edge1&#45;headlabel"><a xlink:href="dir_000040_000000.html" target="_top" xlink:title="1">
<text text-anchor="middle" x="100.079" y="-47.6261" font-family="Helvetica,sans-Serif" font-size="10.00">1</text>
</a>
</g>
</g>
</g>
</svg>
