<?xml version="1.0" encoding="UTF-8" standalone="no"?>
<!DOCTYPE svg PUBLIC "-//W3C//DTD SVG 1.1//EN"
 "http://www.w3.org/Graphics/SVG/1.1/DTD/svg11.dtd">
<!-- Generated by graphviz version 2.38.0 (20140413.2041)
 -->
<!-- Title: include Pages: 1 -->
<svg width="398pt" height="159pt"
 viewBox="0.00 0.00 398.00 159.00" xmlns="http://www.w3.org/2000/svg" xmlns:xlink="http://www.w3.org/1999/xlink">
<g id="graph0" class="graph" transform="scale(1 1) rotate(0) translate(4 155)">
<title>include</title>
<g id="clust1" class="cluster"><title>clusterdir_b3e0d953830daf825e5c4855a5d892b6</title>
<g id="a_clust1"><a xlink:href="dir_b3e0d953830daf825e5c4855a5d892b6.html" target="_top" xlink:title="GLSupport">
<polygon fill="#ddddee" stroke="black" points="8,-56 8,-143 382,-143 382,-56 8,-56"/>
<text text-anchor="middle" x="195" y="-131" font-family="Helvetica,sans-Serif" font-size="10.00">GLSupport</text>
</a>
</g>
</g>
<g id="clust2" class="cluster"><title>clusterdir_b33112bc2a4f47ee961fc44161fedaf2</title>
<g id="a_clust2"><a xlink:href="dir_b33112bc2a4f47ee961fc44161fedaf2.html" target="_top">
<polygon fill="#eeeeff" stroke="black" points="16,-64 16,-116 374,-116 374,-64 16,-64"/>
</a>
</g>
</g>
<!-- dir_b33112bc2a4f47ee961fc44161fedaf2 -->
<g id="node1" class="node"><title>dir_b33112bc2a4f47ee961fc44161fedaf2</title>
<text text-anchor="middle" x="339" y="-87.5" font-family="Helvetica,sans-Serif" font-size="10.00">include</text>
</g>
<!-- dir_39511a2186d27b6cf526a10b2070a85e -->
<g id="node2" class="node"><title>dir_39511a2186d27b6cf526a10b2070a85e</title>
<g id="a_node2"><a xlink:href="dir_39511a2186d27b6cf526a10b2070a85e.html" target="_top" xlink:title="EGL">
<polygon fill="white" stroke="red" points="294,-108 240,-108 240,-72 294,-72 294,-108"/>
<text text-anchor="middle" x="267" y="-87.5" font-family="Helvetica,sans-Serif" font-size="10.00">EGL</text>
</a>
</g>
</g>
<!-- dir_60895d3e9d196336faf5d9dad71ee9d7 -->
<g id="node6" class="node"><title>dir_60895d3e9d196336faf5d9dad71ee9d7</title>
<g id="a_node6"><a xlink:href="dir_60895d3e9d196336faf5d9dad71ee9d7.html" target="_top" xlink:title="OgreMain">
<polygon fill="none" stroke="red" points="188.5,-36 129.5,-36 129.5,-0 188.5,-0 188.5,-36"/>
<text text-anchor="middle" x="159" y="-15.5" font-family="Helvetica,sans-Serif" font-size="10.00">OgreMain</text>
</a>
</g>
</g>
<!-- dir_39511a2186d27b6cf526a10b2070a85e&#45;&gt;dir_60895d3e9d196336faf5d9dad71ee9d7 -->
<g id="edge3" class="edge"><title>dir_39511a2186d27b6cf526a10b2070a85e&#45;&gt;dir_60895d3e9d196336faf5d9dad71ee9d7</title>
<path fill="none" stroke="black" d="M250.218,-71.8925C244.412,-66.4551 237.679,-60.6516 231,-56 220.729,-48.8468 208.89,-42.1925 197.817,-36.5558"/>
<polygon fill="black" stroke="black" points="199.263,-33.3662 188.747,-32.0716 196.16,-39.6412 199.263,-33.3662"/>
<g id="a_edge3&#45;headlabel"><a xlink:href="dir_000009_000000.html" target="_top" xlink:title="3">
<text text-anchor="middle" x="203.743" y="-29.9141" font-family="Helvetica,sans-Serif" font-size="10.00">3</text>
</a>
</g>
</g>
<!-- dir_2cf3d74262df76f65ee01650dcc547de -->
<g id="node3" class="node"><title>dir_2cf3d74262df76f65ee01650dcc547de</title>
<g id="a_node3"><a xlink:href="dir_2cf3d74262df76f65ee01650dcc547de.html" target="_top" xlink:title="GLX">
<polygon fill="white" stroke="black" points="222,-108 168,-108 168,-72 222,-72 222,-108"/>
<text text-anchor="middle" x="195" y="-87.5" font-family="Helvetica,sans-Serif" font-size="10.00">GLX</text>
</a>
</g>
</g>
<!-- dir_2cf3d74262df76f65ee01650dcc547de&#45;&gt;dir_60895d3e9d196336faf5d9dad71ee9d7 -->
<g id="edge4" class="edge"><title>dir_2cf3d74262df76f65ee01650dcc547de&#45;&gt;dir_60895d3e9d196336faf5d9dad71ee9d7</title>
<path fill="none" stroke="black" d="M186.101,-71.6966C182.003,-63.7284 177.051,-54.0995 172.507,-45.2641"/>
<polygon fill="black" stroke="black" points="175.483,-43.3965 167.797,-36.1043 169.258,-46.598 175.483,-43.3965"/>
<g id="a_edge4&#45;headlabel"><a xlink:href="dir_000048_000000.html" target="_top" xlink:title="2">
<text text-anchor="middle" x="179.651" y="-42.7946" font-family="Helvetica,sans-Serif" font-size="10.00">2</text>
</a>
</g>
</g>
<!-- dir_ef409de90fe5e2a54f08eeaf3bf96856 -->
<g id="node4" class="node"><title>dir_ef409de90fe5e2a54f08eeaf3bf96856</title>
<g id="a_node4"><a xlink:href="dir_ef409de90fe5e2a54f08eeaf3bf96856.html" target="_top" xlink:title="OSX">
<polygon fill="white" stroke="black" points="150,-108 96,-108 96,-72 150,-72 150,-108"/>
<text text-anchor="middle" x="123" y="-87.5" font-family="Helvetica,sans-Serif" font-size="10.00">OSX</text>
</a>
</g>
</g>
<!-- dir_ef409de90fe5e2a54f08eeaf3bf96856&#45;&gt;dir_60895d3e9d196336faf5d9dad71ee9d7 -->
<g id="edge2" class="edge"><title>dir_ef409de90fe5e2a54f08eeaf3bf96856&#45;&gt;dir_60895d3e9d196336faf5d9dad71ee9d7</title>
<path fill="none" stroke="black" d="M131.899,-71.6966C135.997,-63.7284 140.949,-54.0995 145.493,-45.2641"/>
<polygon fill="black" stroke="black" points="148.742,-46.598 150.203,-36.1043 142.517,-43.3965 148.742,-46.598"/>
<g id="a_edge2&#45;headlabel"><a xlink:href="dir_000056_000000.html" target="_top" xlink:title="3">
<text text-anchor="middle" x="149.623" y="-48.5931" font-family="Helvetica,sans-Serif" font-size="10.00">3</text>
</a>
</g>
</g>
<!-- dir_ff5ead63720ba44765db92b011eb7be3 -->
<g id="node5" class="node"><title>dir_ff5ead63720ba44765db92b011eb7be3</title>
<g id="a_node5"><a xlink:href="dir_ff5ead63720ba44765db92b011eb7be3.html" target="_top" xlink:title="win32">
<polygon fill="white" stroke="black" points="78,-108 24,-108 24,-72 78,-72 78,-108"/>
<text text-anchor="middle" x="51" y="-87.5" font-family="Helvetica,sans-Serif" font-size="10.00">win32</text>
</a>
</g>
</g>
<!-- dir_ff5ead63720ba44765db92b011eb7be3&#45;&gt;dir_60895d3e9d196336faf5d9dad71ee9d7 -->
<g id="edge1" class="edge"><title>dir_ff5ead63720ba44765db92b011eb7be3&#45;&gt;dir_60895d3e9d196336faf5d9dad71ee9d7</title>
<path fill="none" stroke="black" d="M67.7821,-71.8925C73.5884,-66.4551 80.3207,-60.6516 87,-56 97.2714,-48.8468 109.11,-42.1925 120.183,-36.5558"/>
<polygon fill="black" stroke="black" points="121.84,-39.6412 129.253,-32.0716 118.737,-33.3662 121.84,-39.6412"/>
<g id="a_edge1&#45;headlabel"><a xlink:href="dir_000067_000000.html" target="_top" xlink:title="1">
<text text-anchor="middle" x="119.876" y="-41.2794" font-family="Helvetica,sans-Serif" font-size="10.00">1</text>
</a>
</g>
</g>
</g>
</svg>
