<?xml version="1.0" encoding="UTF-8" standalone="no"?>
<!DOCTYPE svg PUBLIC "-//W3C//DTD SVG 1.1//EN"
 "http://www.w3.org/Graphics/SVG/1.1/DTD/svg11.dtd">
<!-- Generated by graphviz version 2.38.0 (20140413.2041)
 -->
<!-- Title: Components Pages: 1 -->
<svg width="590pt" height="204pt"
 viewBox="0.00 0.00 590.00 204.00" xmlns="http://www.w3.org/2000/svg" xmlns:xlink="http://www.w3.org/1999/xlink">
<g id="graph0" class="graph" transform="scale(1 1) rotate(0) translate(4 200)">
<title>Components</title>
<g id="clust1" class="cluster"><title>clusterdir_08f45fe6822aeb4ce2bc268e3b1361be</title>
<g id="a_clust1"><a xlink:href="dir_08f45fe6822aeb4ce2bc268e3b1361be.html" target="_top">
<polygon fill="#eeeeff" stroke="black" points="8,-64 8,-188 574,-188 574,-64 8,-64"/>
</a>
</g>
</g>
<!-- dir_08f45fe6822aeb4ce2bc268e3b1361be -->
<g id="node1" class="node"><title>dir_08f45fe6822aeb4ce2bc268e3b1361be</title>
<text text-anchor="middle" x="530" y="-159.5" font-family="Helvetica,sans-Serif" font-size="10.00">Components</text>
</g>
<!-- dir_8e0398f2f491aa57286b06c2d76cddc7 -->
<g id="node2" class="node"><title>dir_8e0398f2f491aa57286b06c2d76cddc7</title>
<g id="a_node2"><a xlink:href="dir_8e0398f2f491aa57286b06c2d76cddc7.html" target="_top" xlink:title="Bites">
<polygon fill="white" stroke="red" points="70,-180 16,-180 16,-144 70,-144 70,-180"/>
<text text-anchor="middle" x="43" y="-159.5" font-family="Helvetica,sans-Serif" font-size="10.00">Bites</text>
</a>
</g>
</g>
<!-- dir_8706f896e4fe8955ace027bce9ba5dd5 -->
<g id="node5" class="node"><title>dir_8706f896e4fe8955ace027bce9ba5dd5</title>
<g id="a_node5"><a xlink:href="dir_8706f896e4fe8955ace027bce9ba5dd5.html" target="_top" xlink:title="Overlay">
<polygon fill="white" stroke="red" points="70,-108 16,-108 16,-72 70,-72 70,-108"/>
<text text-anchor="middle" x="43" y="-87.5" font-family="Helvetica,sans-Serif" font-size="10.00">Overlay</text>
</a>
</g>
</g>
<!-- dir_8e0398f2f491aa57286b06c2d76cddc7&#45;&gt;dir_8706f896e4fe8955ace027bce9ba5dd5 -->
<g id="edge2" class="edge"><title>dir_8e0398f2f491aa57286b06c2d76cddc7&#45;&gt;dir_8706f896e4fe8955ace027bce9ba5dd5</title>
<path fill="none" stroke="black" d="M43,-143.697C43,-135.983 43,-126.712 43,-118.112"/>
<polygon fill="black" stroke="black" points="46.5001,-118.104 43,-108.104 39.5001,-118.104 46.5001,-118.104"/>
<g id="a_edge2&#45;headlabel"><a xlink:href="dir_000013_000016.html" target="_top" xlink:title="7">
<text text-anchor="middle" x="49.3393" y="-119.199" font-family="Helvetica,sans-Serif" font-size="10.00">7</text>
</a>
</g>
</g>
<!-- dir_f27769e102a75ce27486673abda6174e -->
<g id="node8" class="node"><title>dir_f27769e102a75ce27486673abda6174e</title>
<g id="a_node8"><a xlink:href="dir_f27769e102a75ce27486673abda6174e.html" target="_top" xlink:title="RTShaderSystem">
<polygon fill="white" stroke="red" points="183.5,-108 88.5,-108 88.5,-72 183.5,-72 183.5,-108"/>
<text text-anchor="middle" x="136" y="-87.5" font-family="Helvetica,sans-Serif" font-size="10.00">RTShaderSystem</text>
</a>
</g>
</g>
<!-- dir_8e0398f2f491aa57286b06c2d76cddc7&#45;&gt;dir_f27769e102a75ce27486673abda6174e -->
<g id="edge3" class="edge"><title>dir_8e0398f2f491aa57286b06c2d76cddc7&#45;&gt;dir_f27769e102a75ce27486673abda6174e</title>
<path fill="none" stroke="black" d="M65.9888,-143.697C77.8139,-134.796 92.392,-123.823 105.179,-114.199"/>
<polygon fill="black" stroke="black" points="107.391,-116.915 113.276,-108.104 103.181,-111.322 107.391,-116.915"/>
<g id="a_edge3&#45;headlabel"><a xlink:href="dir_000013_000060.html" target="_top" xlink:title="1">
<text text-anchor="middle" x="106.226" y="-118.845" font-family="Helvetica,sans-Serif" font-size="10.00">1</text>
</a>
</g>
</g>
<!-- dir_60895d3e9d196336faf5d9dad71ee9d7 -->
<g id="node11" class="node"><title>dir_60895d3e9d196336faf5d9dad71ee9d7</title>
<g id="a_node11"><a xlink:href="dir_60895d3e9d196336faf5d9dad71ee9d7.html" target="_top" xlink:title="OgreMain">
<polygon fill="none" stroke="red" points="351.5,-36 292.5,-36 292.5,-0 351.5,-0 351.5,-36"/>
<text text-anchor="middle" x="322" y="-15.5" font-family="Helvetica,sans-Serif" font-size="10.00">OgreMain</text>
</a>
</g>
</g>
<!-- dir_8e0398f2f491aa57286b06c2d76cddc7&#45;&gt;dir_60895d3e9d196336faf5d9dad71ee9d7 -->
<g id="edge4" class="edge"><title>dir_8e0398f2f491aa57286b06c2d76cddc7&#45;&gt;dir_60895d3e9d196336faf5d9dad71ee9d7</title>
<path fill="none" stroke="black" d="M70.2284,-147.279C73.1492,-146.068 76.1096,-144.946 79,-144 159.027,-117.819 195.325,-155.277 265,-108 276.877,-99.9412 295.525,-68.4941 308.232,-45.2542"/>
<polygon fill="black" stroke="black" points="311.45,-46.6618 313.113,-36.1983 305.288,-43.3405 311.45,-46.6618"/>
<g id="a_edge4&#45;headlabel"><a xlink:href="dir_000013_000000.html" target="_top" xlink:title="17">
<text text-anchor="middle" x="312.244" y="-48.6731" font-family="Helvetica,sans-Serif" font-size="10.00">17</text>
</a>
</g>
</g>
<!-- dir_7109e62a2f9e7dbfaefe06d1cbbb70da -->
<g id="node3" class="node"><title>dir_7109e62a2f9e7dbfaefe06d1cbbb70da</title>
<g id="a_node3"><a xlink:href="dir_7109e62a2f9e7dbfaefe06d1cbbb70da.html" target="_top" xlink:title="HLMS">
<polygon fill="white" stroke="red" points="286,-180 232,-180 232,-144 286,-144 286,-180"/>
<text text-anchor="middle" x="259" y="-159.5" font-family="Helvetica,sans-Serif" font-size="10.00">HLMS</text>
</a>
</g>
</g>
<!-- dir_7109e62a2f9e7dbfaefe06d1cbbb70da&#45;&gt;dir_60895d3e9d196336faf5d9dad71ee9d7 -->
<g id="edge12" class="edge"><title>dir_7109e62a2f9e7dbfaefe06d1cbbb70da&#45;&gt;dir_60895d3e9d196336faf5d9dad71ee9d7</title>
<path fill="none" stroke="black" d="M286.108,-148.151C289.106,-146.744 292.116,-145.338 295,-144 330.002,-127.762 353.126,-140.451 374,-108 384.579,-91.5531 382.129,-81.7858 374,-64 370.326,-55.9614 364.428,-48.8089 357.9,-42.7021"/>
<polygon fill="black" stroke="black" points="359.929,-39.833 350.042,-36.0233 355.395,-45.1666 359.929,-39.833"/>
<g id="a_edge12&#45;headlabel"><a xlink:href="dir_000051_000000.html" target="_top" xlink:title="16">
<text text-anchor="middle" x="364.506" y="-37.4977" font-family="Helvetica,sans-Serif" font-size="10.00">16</text>
</a>
</g>
</g>
<!-- dir_6cc559364089c5d8337bc807b0c9f32d -->
<g id="node4" class="node"><title>dir_6cc559364089c5d8337bc807b0c9f32d</title>
<g id="a_node4"><a xlink:href="dir_6cc559364089c5d8337bc807b0c9f32d.html" target="_top" xlink:title="MeshLodGenerator">
<polygon fill="white" stroke="red" points="403.5,-180 304.5,-180 304.5,-144 403.5,-144 403.5,-180"/>
<text text-anchor="middle" x="354" y="-159.5" font-family="Helvetica,sans-Serif" font-size="10.00">MeshLodGenerator</text>
</a>
</g>
</g>
<!-- dir_6cc559364089c5d8337bc807b0c9f32d&#45;&gt;dir_60895d3e9d196336faf5d9dad71ee9d7 -->
<g id="edge1" class="edge"><title>dir_6cc559364089c5d8337bc807b0c9f32d&#45;&gt;dir_60895d3e9d196336faf5d9dad71ee9d7</title>
<path fill="none" stroke="black" d="M381.34,-143.775C393.11,-134.718 405.617,-122.478 412,-108 419.888,-90.106 422.281,-80.6349 412,-64 400.894,-46.0307 380.2,-34.9968 361.453,-28.3557"/>
<polygon fill="black" stroke="black" points="362.48,-25.0094 351.888,-25.2698 360.33,-31.6713 362.48,-25.0094"/>
<g id="a_edge1&#45;headlabel"><a xlink:href="dir_000054_000000.html" target="_top" xlink:title="21">
<text text-anchor="middle" x="366.773" y="-20.9109" font-family="Helvetica,sans-Serif" font-size="10.00">21</text>
</a>
</g>
</g>
<!-- dir_8706f896e4fe8955ace027bce9ba5dd5&#45;&gt;dir_60895d3e9d196336faf5d9dad71ee9d7 -->
<g id="edge9" class="edge"><title>dir_8706f896e4fe8955ace027bce9ba5dd5&#45;&gt;dir_60895d3e9d196336faf5d9dad71ee9d7</title>
<path fill="none" stroke="black" d="M64.6113,-71.8318C69.1645,-68.848 74.0838,-66.0499 79,-64 146.883,-35.6947 232.813,-25.1194 282.183,-21.2212"/>
<polygon fill="black" stroke="black" points="282.722,-24.6911 292.438,-20.4666 282.208,-17.71 282.722,-24.6911"/>
<g id="a_edge9&#45;headlabel"><a xlink:href="dir_000016_000000.html" target="_top" xlink:title="23">
<text text-anchor="middle" x="279.345" y="-25.2864" font-family="Helvetica,sans-Serif" font-size="10.00">23</text>
</a>
</g>
</g>
<!-- dir_89ee6f5c6a401fe0ea0dd7d9d03123dc -->
<g id="node6" class="node"><title>dir_89ee6f5c6a401fe0ea0dd7d9d03123dc</title>
<g id="a_node6"><a xlink:href="dir_89ee6f5c6a401fe0ea0dd7d9d03123dc.html" target="_top" xlink:title="Paging">
<polygon fill="white" stroke="red" points="256,-108 202,-108 202,-72 256,-72 256,-108"/>
<text text-anchor="middle" x="229" y="-87.5" font-family="Helvetica,sans-Serif" font-size="10.00">Paging</text>
</a>
</g>
</g>
<!-- dir_89ee6f5c6a401fe0ea0dd7d9d03123dc&#45;&gt;dir_60895d3e9d196336faf5d9dad71ee9d7 -->
<g id="edge8" class="edge"><title>dir_89ee6f5c6a401fe0ea0dd7d9d03123dc&#45;&gt;dir_60895d3e9d196336faf5d9dad71ee9d7</title>
<path fill="none" stroke="black" d="M251.989,-71.6966C263.814,-62.796 278.392,-51.8232 291.179,-42.1989"/>
<polygon fill="black" stroke="black" points="293.391,-44.9145 299.276,-36.1043 289.181,-39.3217 293.391,-44.9145"/>
<g id="a_edge8&#45;headlabel"><a xlink:href="dir_000049_000000.html" target="_top" xlink:title="13">
<text text-anchor="middle" x="292.226" y="-46.8447" font-family="Helvetica,sans-Serif" font-size="10.00">13</text>
</a>
</g>
</g>
<!-- dir_dc202c8ff1c4da16bc4be8e40e6a2b7e -->
<g id="node7" class="node"><title>dir_dc202c8ff1c4da16bc4be8e40e6a2b7e</title>
<g id="a_node7"><a xlink:href="dir_dc202c8ff1c4da16bc4be8e40e6a2b7e.html" target="_top" xlink:title="Property">
<polygon fill="white" stroke="red" points="476,-180 422,-180 422,-144 476,-144 476,-180"/>
<text text-anchor="middle" x="449" y="-159.5" font-family="Helvetica,sans-Serif" font-size="10.00">Property</text>
</a>
</g>
</g>
<!-- dir_dc202c8ff1c4da16bc4be8e40e6a2b7e&#45;&gt;dir_60895d3e9d196336faf5d9dad71ee9d7 -->
<g id="edge11" class="edge"><title>dir_dc202c8ff1c4da16bc4be8e40e6a2b7e&#45;&gt;dir_60895d3e9d196336faf5d9dad71ee9d7</title>
<path fill="none" stroke="black" d="M450.235,-143.907C450.827,-122.791 448.667,-86.8628 430,-64 413.102,-43.3042 385.057,-31.9958 361.78,-25.8918"/>
<polygon fill="black" stroke="black" points="362.351,-22.4298 351.812,-23.5103 360.725,-29.2382 362.351,-22.4298"/>
<g id="a_edge11&#45;headlabel"><a xlink:href="dir_000058_000000.html" target="_top" xlink:title="7">
<text text-anchor="middle" x="366.507" y="-18.0034" font-family="Helvetica,sans-Serif" font-size="10.00">7</text>
</a>
</g>
</g>
<!-- dir_f27769e102a75ce27486673abda6174e&#45;&gt;dir_60895d3e9d196336faf5d9dad71ee9d7 -->
<g id="edge10" class="edge"><title>dir_f27769e102a75ce27486673abda6174e&#45;&gt;dir_60895d3e9d196336faf5d9dad71ee9d7</title>
<path fill="none" stroke="black" d="M173.847,-71.9109C180.206,-69.1807 186.765,-66.4507 193,-64 222.72,-52.3191 256.858,-40.4786 282.547,-31.8769"/>
<polygon fill="black" stroke="black" points="283.918,-35.1096 292.301,-28.6306 281.707,-28.4678 283.918,-35.1096"/>
<g id="a_edge10&#45;headlabel"><a xlink:href="dir_000060_000000.html" target="_top" xlink:title="36">
<text text-anchor="middle" x="281.404" y="-36.4387" font-family="Helvetica,sans-Serif" font-size="10.00">36</text>
</a>
</g>
</g>
<!-- dir_328ede960e4850d9d1e86d5586eff316 -->
<g id="node9" class="node"><title>dir_328ede960e4850d9d1e86d5586eff316</title>
<g id="a_node9"><a xlink:href="dir_328ede960e4850d9d1e86d5586eff316.html" target="_top" xlink:title="Terrain">
<polygon fill="white" stroke="red" points="142,-180 88,-180 88,-144 142,-144 142,-180"/>
<text text-anchor="middle" x="115" y="-159.5" font-family="Helvetica,sans-Serif" font-size="10.00">Terrain</text>
</a>
</g>
</g>
<!-- dir_328ede960e4850d9d1e86d5586eff316&#45;&gt;dir_89ee6f5c6a401fe0ea0dd7d9d03123dc -->
<g id="edge5" class="edge"><title>dir_328ede960e4850d9d1e86d5586eff316&#45;&gt;dir_89ee6f5c6a401fe0ea0dd7d9d03123dc</title>
<path fill="none" stroke="black" d="M142.016,-144.411C157.238,-135.064 176.449,-123.268 192.942,-113.141"/>
<polygon fill="black" stroke="black" points="195.092,-115.928 201.782,-107.713 191.429,-109.963 195.092,-115.928"/>
<g id="a_edge5&#45;headlabel"><a xlink:href="dir_000062_000049.html" target="_top" xlink:title="2">
<text text-anchor="middle" x="193.515" y="-117.728" font-family="Helvetica,sans-Serif" font-size="10.00">2</text>
</a>
</g>
</g>
<!-- dir_328ede960e4850d9d1e86d5586eff316&#45;&gt;dir_60895d3e9d196336faf5d9dad71ee9d7 -->
<g id="edge6" class="edge"><title>dir_328ede960e4850d9d1e86d5586eff316&#45;&gt;dir_60895d3e9d196336faf5d9dad71ee9d7</title>
<path fill="none" stroke="black" d="M142.278,-147.425C145.189,-146.185 148.134,-145.016 151,-144 214.398,-121.526 249.888,-155.007 298,-108 314.322,-92.0525 319.907,-66.2579 321.653,-46.5338"/>
<polygon fill="black" stroke="black" points="325.161,-46.4946 322.271,-36.3016 318.174,-46.0722 325.161,-46.4946"/>
<g id="a_edge6&#45;headlabel"><a xlink:href="dir_000062_000000.html" target="_top" xlink:title="18">
<text text-anchor="middle" x="327.779" y="-47.7539" font-family="Helvetica,sans-Serif" font-size="10.00">18</text>
</a>
</g>
</g>
<!-- dir_6c0cfb6eb61ed2a412ece4f226f7c3e6 -->
<g id="node10" class="node"><title>dir_6c0cfb6eb61ed2a412ece4f226f7c3e6</title>
<g id="a_node10"><a xlink:href="dir_6c0cfb6eb61ed2a412ece4f226f7c3e6.html" target="_top" xlink:title="Volume">
<polygon fill="white" stroke="red" points="214,-180 160,-180 160,-144 214,-144 214,-180"/>
<text text-anchor="middle" x="187" y="-159.5" font-family="Helvetica,sans-Serif" font-size="10.00">Volume</text>
</a>
</g>
</g>
<!-- dir_6c0cfb6eb61ed2a412ece4f226f7c3e6&#45;&gt;dir_60895d3e9d196336faf5d9dad71ee9d7 -->
<g id="edge7" class="edge"><title>dir_6c0cfb6eb61ed2a412ece4f226f7c3e6&#45;&gt;dir_60895d3e9d196336faf5d9dad71ee9d7</title>
<path fill="none" stroke="black" d="M214.353,-147.625C217.249,-146.346 220.17,-145.113 223,-144 272.05,-124.704 304.896,-150.554 336,-108 349.126,-90.042 343.349,-64.571 335.619,-45.4758"/>
<polygon fill="black" stroke="black" points="338.737,-43.8725 331.489,-36.145 332.336,-46.7059 338.737,-43.8725"/>
<g id="a_edge7&#45;headlabel"><a xlink:href="dir_000065_000000.html" target="_top" xlink:title="20">
<text text-anchor="middle" x="342.788" y="-43.5103" font-family="Helvetica,sans-Serif" font-size="10.00">20</text>
</a>
</g>
</g>
</g>
</svg>
