<?xml version="1.0" encoding="UTF-8" standalone="no"?>
<!DOCTYPE svg PUBLIC "-//W3C//DTD SVG 1.1//EN"
 "http://www.w3.org/Graphics/SVG/1.1/DTD/svg11.dtd">
<!-- Generated by graphviz version 2.38.0 (20140413.2041)
 -->
<!-- Title: GLES Pages: 1 -->
<svg width="182pt" height="231pt"
 viewBox="0.00 0.00 182.00 231.00" xmlns="http://www.w3.org/2000/svg" xmlns:xlink="http://www.w3.org/1999/xlink">
<g id="graph0" class="graph" transform="scale(1 1) rotate(0) translate(4 227)">
<title>GLES</title>
<g id="clust1" class="cluster"><title>clusterdir_24e7ff449c746e2a6398ef93a8bccde9</title>
<g id="a_clust1"><a xlink:href="dir_24e7ff449c746e2a6398ef93a8bccde9.html" target="_top" xlink:title="RenderSystems">
<polygon fill="#ddddee" stroke="black" points="8,-56 8,-215 166,-215 166,-56 8,-56"/>
<text text-anchor="middle" x="87" y="-203" font-family="Helvetica,sans-Serif" font-size="10.00">RenderSystems</text>
</a>
</g>
</g>
<g id="clust2" class="cluster"><title>clusterdir_ed56fe6352b64ba53997b647fa8fecbc</title>
<g id="a_clust2"><a xlink:href="dir_ed56fe6352b64ba53997b647fa8fecbc.html" target="_top">
<polygon fill="#eeeeff" stroke="black" points="16,-64 16,-188 158,-188 158,-64 16,-64"/>
</a>
</g>
</g>
<!-- dir_ed56fe6352b64ba53997b647fa8fecbc -->
<g id="node1" class="node"><title>dir_ed56fe6352b64ba53997b647fa8fecbc</title>
<text text-anchor="middle" x="123" y="-159.5" font-family="Helvetica,sans-Serif" font-size="10.00">GLES</text>
</g>
<!-- dir_48608e3db42cd9de14e5d64fb39a136c -->
<g id="node2" class="node"><title>dir_48608e3db42cd9de14e5d64fb39a136c</title>
<g id="a_node2"><a xlink:href="dir_48608e3db42cd9de14e5d64fb39a136c.html" target="_top" xlink:title="include">
<polygon fill="white" stroke="red" points="78,-108 24,-108 24,-72 78,-72 78,-108"/>
<text text-anchor="middle" x="51" y="-87.5" font-family="Helvetica,sans-Serif" font-size="10.00">include</text>
</a>
</g>
</g>
<!-- dir_60895d3e9d196336faf5d9dad71ee9d7 -->
<g id="node4" class="node"><title>dir_60895d3e9d196336faf5d9dad71ee9d7</title>
<g id="a_node4"><a xlink:href="dir_60895d3e9d196336faf5d9dad71ee9d7.html" target="_top" xlink:title="OgreMain">
<polygon fill="none" stroke="red" points="80.5,-36 21.5,-36 21.5,-0 80.5,-0 80.5,-36"/>
<text text-anchor="middle" x="51" y="-15.5" font-family="Helvetica,sans-Serif" font-size="10.00">OgreMain</text>
</a>
</g>
</g>
<!-- dir_48608e3db42cd9de14e5d64fb39a136c&#45;&gt;dir_60895d3e9d196336faf5d9dad71ee9d7 -->
<g id="edge2" class="edge"><title>dir_48608e3db42cd9de14e5d64fb39a136c&#45;&gt;dir_60895d3e9d196336faf5d9dad71ee9d7</title>
<path fill="none" stroke="black" d="M51,-71.6966C51,-63.9827 51,-54.7125 51,-46.1124"/>
<polygon fill="black" stroke="black" points="54.5001,-46.1043 51,-36.1043 47.5001,-46.1044 54.5001,-46.1043"/>
<g id="a_edge2&#45;headlabel"><a xlink:href="dir_000004_000000.html" target="_top" xlink:title="32">
<text text-anchor="middle" x="57.3393" y="-47.199" font-family="Helvetica,sans-Serif" font-size="10.00">32</text>
</a>
</g>
</g>
<!-- dir_2b7835fcde21dfc62998552629f2e73d -->
<g id="node3" class="node"><title>dir_2b7835fcde21dfc62998552629f2e73d</title>
<g id="a_node3"><a xlink:href="dir_2b7835fcde21dfc62998552629f2e73d.html" target="_top" xlink:title="src">
<polygon fill="white" stroke="red" points="78,-180 24,-180 24,-144 78,-144 78,-180"/>
<text text-anchor="middle" x="51" y="-159.5" font-family="Helvetica,sans-Serif" font-size="10.00">src</text>
</a>
</g>
</g>
<!-- dir_2b7835fcde21dfc62998552629f2e73d&#45;&gt;dir_48608e3db42cd9de14e5d64fb39a136c -->
<g id="edge1" class="edge"><title>dir_2b7835fcde21dfc62998552629f2e73d&#45;&gt;dir_48608e3db42cd9de14e5d64fb39a136c</title>
<path fill="none" stroke="black" d="M51,-143.697C51,-135.983 51,-126.712 51,-118.112"/>
<polygon fill="black" stroke="black" points="54.5001,-118.104 51,-108.104 47.5001,-118.104 54.5001,-118.104"/>
<g id="a_edge1&#45;headlabel"><a xlink:href="dir_000037_000004.html" target="_top" xlink:title="2">
<text text-anchor="middle" x="57.3393" y="-119.199" font-family="Helvetica,sans-Serif" font-size="10.00">2</text>
</a>
</g>
</g>
</g>
</svg>
