<?xml version="1.0" encoding="UTF-8" standalone="no"?>
<!DOCTYPE svg PUBLIC "-//W3C//DTD SVG 1.1//EN"
 "http://www.w3.org/Graphics/SVG/1.1/DTD/svg11.dtd">
<!-- Generated by graphviz version 2.38.0 (20140413.2041)
 -->
<!-- Title: GLES2 Pages: 1 -->
<svg width="206pt" height="303pt"
 viewBox="0.00 0.00 205.50 303.00" xmlns="http://www.w3.org/2000/svg" xmlns:xlink="http://www.w3.org/1999/xlink">
<g id="graph0" class="graph" transform="scale(1 1) rotate(0) translate(4 299)">
<title>GLES2</title>
<g id="clust1" class="cluster"><title>clusterdir_24e7ff449c746e2a6398ef93a8bccde9</title>
<g id="a_clust1"><a xlink:href="dir_24e7ff449c746e2a6398ef93a8bccde9.html" target="_top" xlink:title="RenderSystems">
<polygon fill="#ddddee" stroke="black" points="31.5,-128 31.5,-287 189.5,-287 189.5,-128 31.5,-128"/>
<text text-anchor="middle" x="110.5" y="-275" font-family="Helvetica,sans-Serif" font-size="10.00">RenderSystems</text>
</a>
</g>
</g>
<g id="clust2" class="cluster"><title>clusterdir_95be6b62f2ee137d9a338ca7693a5422</title>
<g id="a_clust2"><a xlink:href="dir_95be6b62f2ee137d9a338ca7693a5422.html" target="_top">
<polygon fill="#eeeeff" stroke="black" points="39.5,-136 39.5,-260 181.5,-260 181.5,-136 39.5,-136"/>
</a>
</g>
</g>
<!-- dir_95be6b62f2ee137d9a338ca7693a5422 -->
<g id="node1" class="node"><title>dir_95be6b62f2ee137d9a338ca7693a5422</title>
<text text-anchor="middle" x="146.5" y="-231.5" font-family="Helvetica,sans-Serif" font-size="10.00">GLES2</text>
</g>
<!-- dir_a957bfc5bdf1d730c1979aebd2aa76ef -->
<g id="node2" class="node"><title>dir_a957bfc5bdf1d730c1979aebd2aa76ef</title>
<g id="a_node2"><a xlink:href="dir_a957bfc5bdf1d730c1979aebd2aa76ef.html" target="_top" xlink:title="include">
<polygon fill="white" stroke="red" points="101.5,-180 47.5,-180 47.5,-144 101.5,-144 101.5,-180"/>
<text text-anchor="middle" x="74.5" y="-159.5" font-family="Helvetica,sans-Serif" font-size="10.00">include</text>
</a>
</g>
</g>
<!-- dir_b3e0d953830daf825e5c4855a5d892b6 -->
<g id="node4" class="node"><title>dir_b3e0d953830daf825e5c4855a5d892b6</title>
<g id="a_node4"><a xlink:href="dir_b3e0d953830daf825e5c4855a5d892b6.html" target="_top" xlink:title="GLSupport">
<polygon fill="none" stroke="red" points="63,-108 0,-108 0,-72 63,-72 63,-108"/>
<text text-anchor="middle" x="31.5" y="-87.5" font-family="Helvetica,sans-Serif" font-size="10.00">GLSupport</text>
</a>
</g>
</g>
<!-- dir_a957bfc5bdf1d730c1979aebd2aa76ef&#45;&gt;dir_b3e0d953830daf825e5c4855a5d892b6 -->
<g id="edge3" class="edge"><title>dir_a957bfc5bdf1d730c1979aebd2aa76ef&#45;&gt;dir_b3e0d953830daf825e5c4855a5d892b6</title>
<path fill="none" stroke="black" d="M63.8708,-143.697C58.8719,-135.559 52.809,-125.689 47.2879,-116.701"/>
<polygon fill="black" stroke="black" points="50.2234,-114.793 42.0069,-108.104 44.2589,-118.457 50.2234,-114.793"/>
<g id="a_edge3&#45;headlabel"><a xlink:href="dir_000026_000007.html" target="_top" xlink:title="6">
<text text-anchor="middle" x="54.5242" y="-113.87" font-family="Helvetica,sans-Serif" font-size="10.00">6</text>
</a>
</g>
</g>
<!-- dir_60895d3e9d196336faf5d9dad71ee9d7 -->
<g id="node5" class="node"><title>dir_60895d3e9d196336faf5d9dad71ee9d7</title>
<g id="a_node5"><a xlink:href="dir_60895d3e9d196336faf5d9dad71ee9d7.html" target="_top" xlink:title="OgreMain">
<polygon fill="none" stroke="red" points="121,-36 62,-36 62,-0 121,-0 121,-36"/>
<text text-anchor="middle" x="91.5" y="-15.5" font-family="Helvetica,sans-Serif" font-size="10.00">OgreMain</text>
</a>
</g>
</g>
<!-- dir_a957bfc5bdf1d730c1979aebd2aa76ef&#45;&gt;dir_60895d3e9d196336faf5d9dad71ee9d7 -->
<g id="edge4" class="edge"><title>dir_a957bfc5bdf1d730c1979aebd2aa76ef&#45;&gt;dir_60895d3e9d196336faf5d9dad71ee9d7</title>
<path fill="none" stroke="black" d="M76.5506,-143.871C79.4479,-119.67 84.7705,-75.2108 88.2205,-46.3932"/>
<polygon fill="black" stroke="black" points="91.7285,-46.5344 89.4421,-36.1893 84.7782,-45.7023 91.7285,-46.5344"/>
<g id="a_edge4&#45;headlabel"><a xlink:href="dir_000026_000000.html" target="_top" xlink:title="34">
<text text-anchor="middle" x="94.1205" y="-47.941" font-family="Helvetica,sans-Serif" font-size="10.00">34</text>
</a>
</g>
</g>
<!-- dir_a0e6a671bd7dbded4ed4cacfa3249847 -->
<g id="node3" class="node"><title>dir_a0e6a671bd7dbded4ed4cacfa3249847</title>
<g id="a_node3"><a xlink:href="dir_a0e6a671bd7dbded4ed4cacfa3249847.html" target="_top" xlink:title="src">
<polygon fill="white" stroke="red" points="101.5,-252 47.5,-252 47.5,-216 101.5,-216 101.5,-252"/>
<text text-anchor="middle" x="74.5" y="-231.5" font-family="Helvetica,sans-Serif" font-size="10.00">src</text>
</a>
</g>
</g>
<!-- dir_a0e6a671bd7dbded4ed4cacfa3249847&#45;&gt;dir_a957bfc5bdf1d730c1979aebd2aa76ef -->
<g id="edge1" class="edge"><title>dir_a0e6a671bd7dbded4ed4cacfa3249847&#45;&gt;dir_a957bfc5bdf1d730c1979aebd2aa76ef</title>
<path fill="none" stroke="black" d="M74.5,-215.697C74.5,-207.983 74.5,-198.712 74.5,-190.112"/>
<polygon fill="black" stroke="black" points="78.0001,-190.104 74.5,-180.104 71.0001,-190.104 78.0001,-190.104"/>
<g id="a_edge1&#45;headlabel"><a xlink:href="dir_000034_000026.html" target="_top" xlink:title="16">
<text text-anchor="middle" x="80.8393" y="-191.199" font-family="Helvetica,sans-Serif" font-size="10.00">16</text>
</a>
</g>
</g>
<!-- dir_a0e6a671bd7dbded4ed4cacfa3249847&#45;&gt;dir_60895d3e9d196336faf5d9dad71ee9d7 -->
<g id="edge2" class="edge"><title>dir_a0e6a671bd7dbded4ed4cacfa3249847&#45;&gt;dir_60895d3e9d196336faf5d9dad71ee9d7</title>
<path fill="none" stroke="black" d="M90.1099,-215.774C97.8729,-206.03 106.446,-193.184 110.5,-180 124.534,-134.363 111.625,-78.5118 101.319,-46.0233"/>
<polygon fill="black" stroke="black" points="104.576,-44.7252 98.1015,-36.3386 97.9327,-46.9321 104.576,-44.7252"/>
<g id="a_edge2&#45;headlabel"><a xlink:href="dir_000034_000000.html" target="_top" xlink:title="12">
<text text-anchor="middle" x="108.403" y="-44.7415" font-family="Helvetica,sans-Serif" font-size="10.00">12</text>
</a>
</g>
</g>
<!-- dir_b3e0d953830daf825e5c4855a5d892b6&#45;&gt;dir_60895d3e9d196336faf5d9dad71ee9d7 -->
<g id="edge5" class="edge"><title>dir_b3e0d953830daf825e5c4855a5d892b6&#45;&gt;dir_60895d3e9d196336faf5d9dad71ee9d7</title>
<path fill="none" stroke="black" d="M46.3315,-71.6966C53.5247,-63.3046 62.2967,-53.0705 70.1903,-43.8613"/>
<polygon fill="black" stroke="black" points="72.9886,-45.9747 76.8391,-36.1043 67.6738,-41.4191 72.9886,-45.9747"/>
<g id="a_edge5&#45;headlabel"><a xlink:href="dir_000007_000000.html" target="_top" xlink:title="14">
<text text-anchor="middle" x="72.805" y="-48.0517" font-family="Helvetica,sans-Serif" font-size="10.00">14</text>
</a>
</g>
</g>
</g>
</svg>
