<?xml version="1.0" encoding="UTF-8" standalone="no"?>
<!DOCTYPE svg PUBLIC "-//W3C//DTD SVG 1.1//EN"
 "http://www.w3.org/Graphics/SVG/1.1/DTD/svg11.dtd">
<!-- Generated by graphviz version 2.38.0 (20140413.2041)
 -->
<!-- Title: EGL Pages: 1 -->
<svg width="410pt" height="159pt"
 viewBox="0.00 0.00 410.00 159.00" xmlns="http://www.w3.org/2000/svg" xmlns:xlink="http://www.w3.org/1999/xlink">
<g id="graph0" class="graph" transform="scale(1 1) rotate(0) translate(4 155)">
<title>EGL</title>
<g id="clust1" class="cluster"><title>clusterdir_b33112bc2a4f47ee961fc44161fedaf2</title>
<g id="a_clust1"><a xlink:href="dir_b33112bc2a4f47ee961fc44161fedaf2.html" target="_top" xlink:title="include">
<polygon fill="#ddddee" stroke="black" points="8,-56 8,-143 394,-143 394,-56 8,-56"/>
<text text-anchor="middle" x="201" y="-131" font-family="Helvetica,sans-Serif" font-size="10.00">include</text>
</a>
</g>
</g>
<g id="clust2" class="cluster"><title>clusterdir_39511a2186d27b6cf526a10b2070a85e</title>
<g id="a_clust2"><a xlink:href="dir_39511a2186d27b6cf526a10b2070a85e.html" target="_top">
<polygon fill="#eeeeff" stroke="black" points="16,-64 16,-116 386,-116 386,-64 16,-64"/>
</a>
</g>
</g>
<!-- dir_39511a2186d27b6cf526a10b2070a85e -->
<g id="node1" class="node"><title>dir_39511a2186d27b6cf526a10b2070a85e</title>
<text text-anchor="middle" x="351" y="-87.5" font-family="Helvetica,sans-Serif" font-size="10.00">EGL</text>
</g>
<!-- dir_60895d3e9d196336faf5d9dad71ee9d7 -->
<g id="node6" class="node"><title>dir_60895d3e9d196336faf5d9dad71ee9d7</title>
<g id="a_node6"><a xlink:href="dir_60895d3e9d196336faf5d9dad71ee9d7.html" target="_top" xlink:title="OgreMain">
<polygon fill="none" stroke="red" points="266.5,-36 207.5,-36 207.5,-0 266.5,-0 266.5,-36"/>
<text text-anchor="middle" x="237" y="-15.5" font-family="Helvetica,sans-Serif" font-size="10.00">OgreMain</text>
</a>
</g>
</g>
<!-- dir_39511a2186d27b6cf526a10b2070a85e&#45;&gt;dir_60895d3e9d196336faf5d9dad71ee9d7 -->
<g id="edge2" class="edge"><title>dir_39511a2186d27b6cf526a10b2070a85e&#45;&gt;dir_60895d3e9d196336faf5d9dad71ee9d7</title>
<path fill="none" stroke="black" d="M334.303,-71.7675C328.503,-66.3218 321.752,-60.5449 315,-56 302.894,-47.8513 288.713,-40.5488 275.787,-34.6275"/>
<polygon fill="black" stroke="black" points="277.204,-31.4274 266.644,-30.5678 274.363,-37.825 277.204,-31.4274"/>
<g id="a_edge2&#45;headlabel"><a xlink:href="dir_000009_000000.html" target="_top" xlink:title="3">
<text text-anchor="middle" x="281.642" y="-27.7912" font-family="Helvetica,sans-Serif" font-size="10.00">3</text>
</a>
</g>
</g>
<!-- dir_a206d943791199ab7c02f44d36feeb54 -->
<g id="node2" class="node"><title>dir_a206d943791199ab7c02f44d36feeb54</title>
<g id="a_node2"><a xlink:href="dir_a206d943791199ab7c02f44d36feeb54.html" target="_top" xlink:title="Android">
<polygon fill="white" stroke="black" points="306,-108 252,-108 252,-72 306,-72 306,-108"/>
<text text-anchor="middle" x="279" y="-87.5" font-family="Helvetica,sans-Serif" font-size="10.00">Android</text>
</a>
</g>
</g>
<!-- dir_9fb29fe22b12df8bf6395a0d3888b811 -->
<g id="node3" class="node"><title>dir_9fb29fe22b12df8bf6395a0d3888b811</title>
<g id="a_node3"><a xlink:href="dir_9fb29fe22b12df8bf6395a0d3888b811.html" target="_top" xlink:title="Emscripten">
<polygon fill="white" stroke="black" points="234,-108 168,-108 168,-72 234,-72 234,-108"/>
<text text-anchor="middle" x="201" y="-87.5" font-family="Helvetica,sans-Serif" font-size="10.00">Emscripten</text>
</a>
</g>
</g>
<!-- dir_dab47e6401c47b6a3f35d5e5bb87809f -->
<g id="node4" class="node"><title>dir_dab47e6401c47b6a3f35d5e5bb87809f</title>
<g id="a_node4"><a xlink:href="dir_dab47e6401c47b6a3f35d5e5bb87809f.html" target="_top" xlink:title="WIN32">
<polygon fill="white" stroke="black" points="150,-108 96,-108 96,-72 150,-72 150,-108"/>
<text text-anchor="middle" x="123" y="-87.5" font-family="Helvetica,sans-Serif" font-size="10.00">WIN32</text>
</a>
</g>
</g>
<!-- dir_dab47e6401c47b6a3f35d5e5bb87809f&#45;&gt;dir_60895d3e9d196336faf5d9dad71ee9d7 -->
<g id="edge1" class="edge"><title>dir_dab47e6401c47b6a3f35d5e5bb87809f&#45;&gt;dir_60895d3e9d196336faf5d9dad71ee9d7</title>
<path fill="none" stroke="black" d="M139.697,-71.7675C145.497,-66.3218 152.248,-60.5449 159,-56 171.106,-47.8513 185.287,-40.5488 198.213,-34.6275"/>
<polygon fill="black" stroke="black" points="199.637,-37.825 207.356,-30.5678 196.796,-31.4274 199.637,-37.825"/>
<g id="a_edge1&#45;headlabel"><a xlink:href="dir_000068_000000.html" target="_top" xlink:title="1">
<text text-anchor="middle" x="197.504" y="-39.3787" font-family="Helvetica,sans-Serif" font-size="10.00">1</text>
</a>
</g>
</g>
<!-- dir_99e6087baac2d388f27d65e118df8481 -->
<g id="node5" class="node"><title>dir_99e6087baac2d388f27d65e118df8481</title>
<g id="a_node5"><a xlink:href="dir_99e6087baac2d388f27d65e118df8481.html" target="_top" xlink:title="X11">
<polygon fill="white" stroke="black" points="78,-108 24,-108 24,-72 78,-72 78,-108"/>
<text text-anchor="middle" x="51" y="-87.5" font-family="Helvetica,sans-Serif" font-size="10.00">X11</text>
</a>
</g>
</g>
</g>
</svg>
