<?xml version="1.0" encoding="UTF-8" standalone="no"?>
<!DOCTYPE svg PUBLIC "-//W3C//DTD SVG 1.1//EN"
 "http://www.w3.org/Graphics/SVG/1.1/DTD/svg11.dtd">
<!-- Generated by graphviz version 2.38.0 (20140413.2041)
 -->
<!-- Title: Graphical Class Hierarchy Pages: 1 -->
<svg width="247pt" height="66pt"
 viewBox="0.00 0.00 247.00 66.00" xmlns="http://www.w3.org/2000/svg" xmlns:xlink="http://www.w3.org/1999/xlink">
<g id="graph0" class="graph" transform="scale(1 1) rotate(0) translate(4 62)">
<title>Graphical Class Hierarchy</title>
<!-- Node1 -->
<g id="node1" class="node"><title>Node1</title>
<polygon fill="none" stroke="#bfbfbf" points="0,-19.5 0,-38.5 91,-38.5 91,-19.5 0,-19.5"/>
<text text-anchor="middle" x="45.5" y="-26.5" font-family="Helvetica,sans-Serif" font-size="10.00">UIViewController</text>
</g>
<!-- Node2 -->
<g id="node2" class="node"><title>Node2</title>
<g id="a_node2"><a xlink:href="interface_e_a_g_l2_view_controller.html" target="_top" xlink:title="EAGL2ViewController">
<polygon fill="none" stroke="black" points="127,-38.5 127,-57.5 239,-57.5 239,-38.5 127,-38.5"/>
<text text-anchor="middle" x="183" y="-45.5" font-family="Helvetica,sans-Serif" font-size="10.00">EAGL2ViewController</text>
</a>
</g>
</g>
<!-- Node1&#45;&gt;Node2 -->
<g id="edge1" class="edge"><title>Node1&#45;&gt;Node2</title>
<path fill="none" stroke="midnightblue" d="M101.348,-36.6908C109.774,-37.8724 118.477,-39.0927 126.908,-40.275"/>
<polygon fill="midnightblue" stroke="midnightblue" points="101.632,-33.1966 91.2433,-35.274 100.66,-40.1288 101.632,-33.1966"/>
</g>
<!-- Node3 -->
<g id="node3" class="node"><title>Node3</title>
<g id="a_node3"><a xlink:href="interface_e_a_g_l_view_controller.html" target="_top" xlink:title="EAGLViewController">
<polygon fill="none" stroke="black" points="129.5,-0.5 129.5,-19.5 236.5,-19.5 236.5,-0.5 129.5,-0.5"/>
<text text-anchor="middle" x="183" y="-7.5" font-family="Helvetica,sans-Serif" font-size="10.00">EAGLViewController</text>
</a>
</g>
</g>
<!-- Node1&#45;&gt;Node3 -->
<g id="edge2" class="edge"><title>Node1&#45;&gt;Node3</title>
<path fill="none" stroke="midnightblue" d="M101.152,-21.3366C110.44,-20.0343 120.069,-18.6841 129.305,-17.389"/>
<polygon fill="midnightblue" stroke="midnightblue" points="100.66,-17.8712 91.2433,-22.726 101.632,-24.8034 100.66,-17.8712"/>
</g>
</g>
</svg>
