<?xml version="1.0" encoding="UTF-8" standalone="no"?>
<!DOCTYPE svg PUBLIC "-//W3C//DTD SVG 1.1//EN"
 "http://www.w3.org/Graphics/SVG/1.1/DTD/svg11.dtd">
<!-- Generated by graphviz version 2.38.0 (20140413.2041)
 -->
<!-- Title: Graphical Class Hierarchy Pages: 1 -->
<svg width="340pt" height="78pt"
 viewBox="0.00 0.00 340.00 77.50" xmlns="http://www.w3.org/2000/svg" xmlns:xlink="http://www.w3.org/1999/xlink">
<g id="graph0" class="graph" transform="scale(1 1) rotate(0) translate(4 73.5)">
<title>Graphical Class Hierarchy</title>
<!-- Node1 -->
<g id="node1" class="node"><title>Node1</title>
<polygon fill="none" stroke="#bfbfbf" points="0,-17 0,-47 134,-47 134,-17 0,-17"/>
<text text-anchor="start" x="8" y="-35" font-family="Helvetica,sans-Serif" font-size="10.00">HardwareIndexBuffer</text>
<text text-anchor="middle" x="67" y="-24" font-family="Helvetica,sans-Serif" font-size="10.00"> MANAGED_RESOURCE</text>
</g>
<!-- Node2 -->
<g id="node2" class="node"><title>Node2</title>
<g id="a_node2"><a xlink:href="class_ogre_1_1_g_l_e_s2_hardware_index_buffer.html" target="_top" xlink:title="Ogre::GLES2HardwareIndex\lBuffer">
<polygon fill="none" stroke="black" points="180.5,-39 180.5,-69 321.5,-69 321.5,-39 180.5,-39"/>
<text text-anchor="start" x="188.5" y="-57" font-family="Helvetica,sans-Serif" font-size="10.00">Ogre::GLES2HardwareIndex</text>
<text text-anchor="middle" x="251" y="-46" font-family="Helvetica,sans-Serif" font-size="10.00">Buffer</text>
</a>
</g>
</g>
<!-- Node1&#45;&gt;Node2 -->
<g id="edge1" class="edge"><title>Node1&#45;&gt;Node2</title>
<path fill="none" stroke="midnightblue" d="M144.214,-41.2127C156.232,-42.6654 168.603,-44.1608 180.459,-45.594"/>
<polygon fill="midnightblue" stroke="midnightblue" points="144.569,-37.7302 134.221,-40.0047 143.729,-44.6796 144.569,-37.7302"/>
</g>
<!-- Node3 -->
<g id="node3" class="node"><title>Node3</title>
<g id="a_node3"><a xlink:href="class_ogre_1_1_g_l_e_s_hardware_index_buffer.html" target="_top" xlink:title="Ogre::GLESHardwareIndexBuffer">
<polygon fill="none" stroke="black" points="170,-0.5 170,-19.5 332,-19.5 332,-0.5 170,-0.5"/>
<text text-anchor="middle" x="251" y="-7.5" font-family="Helvetica,sans-Serif" font-size="10.00">Ogre::GLESHardwareIndexBuffer</text>
</a>
</g>
</g>
<!-- Node1&#45;&gt;Node3 -->
<g id="edge2" class="edge"><title>Node1&#45;&gt;Node3</title>
<path fill="none" stroke="midnightblue" d="M144.18,-22.7915C153.09,-21.7144 162.196,-20.6137 171.142,-19.5323"/>
<polygon fill="midnightblue" stroke="midnightblue" points="143.729,-19.3204 134.221,-23.9953 144.569,-26.2698 143.729,-19.3204"/>
</g>
</g>
</svg>
